<svg xmlns="http://www.w3.org/2000/svg" xmlns:xlink="http://www.w3.org/1999/xlink" version="1.1" x="0" y="0" height="50" width="800" viewBox="0 0 800 50" preserveAspectRatio="none"  >
<g label="Query sequence" class="clusterblast-cluster"  >
<text x="5" y="20" class="clusterblast-acc"  >
Query sequence</text>
<line x1="10" y1="35" x2="778.0" y2="35" style="stroke-width:1; stroke:grey; "  />
<polygon points="0,35 5,30 8,30 8,40 5,40 0,35 " style="fill:white; stroke-width:1; stroke:black; " description="&lt;b&gt;CONCODRAFT_83360&lt;/b&gt;&lt;br&gt;hypothetical protein&lt;br&gt;Location: 591 - 1010" locus_tag="CONCODRAFT_83360" class="clusterblast-orf" id="general-1_q0_0_all"  />
<polygon points="163,40 220,40 225,35 220,30 163,30 163,40 " style="fill:white; stroke-width:1; stroke:black; " description="&lt;b&gt;CONCODRAFT_3322&lt;/b&gt;&lt;br&gt;acetyl-CoA synthetase-like protein&lt;br&gt;Location: 8932 - 12088" locus_tag="CONCODRAFT_3322" class="clusterblast-orf" id="general-1_q1_0_all"  />
<polygon points="276,40 290,40 295,35 290,30 276,30 276,40 " style="fill:white; stroke-width:1; stroke:black; " description="&lt;b&gt;CONCODRAFT_23438&lt;/b&gt;&lt;br&gt;vacuolar serine protease&lt;br&gt;Location: 14703 - 15660" locus_tag="CONCODRAFT_23438" class="clusterblast-orf" id="general-1_q2_0_all"  />
<polygon points="336,35 341,30 391,30 391,40 341,40 336,35 " style="fill:white; stroke-width:1; stroke:black; " description="&lt;b&gt;CONCODRAFT_3324&lt;/b&gt;&lt;br&gt;acetyl-CoA synthetase-like protein&lt;br&gt;Location: 17747 - 20566" locus_tag="CONCODRAFT_3324" class="clusterblast-orf" id="general-1_q3_0_all"  />
<polygon points="450,35 455,30 490,30 490,40 455,40 450,35 " style="fill:white; stroke-width:1; stroke:black; " description="&lt;b&gt;CONCODRAFT_3325&lt;/b&gt;&lt;br&gt;hypothetical protein&lt;br&gt;Location: 23575 - 25606" locus_tag="CONCODRAFT_3325" class="clusterblast-orf" id="general-1_q4_0_all"  />
<polygon points="503,35 508,30 523,30 523,40 508,40 503,35 " style="fill:white; stroke-width:1; stroke:black; " description="&lt;b&gt;CONCODRAFT_3326&lt;/b&gt;&lt;br&gt;hypothetical protein&lt;br&gt;Location: 26270 - 27274" locus_tag="CONCODRAFT_3326" class="clusterblast-orf" id="general-1_q5_0_all"  />
<polygon points="620,40 662,40 667,35 662,30 620,30 620,40 " style="fill:white; stroke-width:1; stroke:black; " description="&lt;b&gt;CONCODRAFT_77232&lt;/b&gt;&lt;br&gt;alpha/beta-hydrolase&lt;br&gt;Location: 32244 - 34616" locus_tag="CONCODRAFT_77232" class="clusterblast-orf" id="general-1_q6_0_all"  />
<polygon points="678,40 683,40 688,35 683,30 678,30 678,40 " style="fill:white; stroke-width:1; stroke:black; " description="&lt;b&gt;CONCODRAFT_77233&lt;/b&gt;&lt;br&gt;hypothetical protein&lt;br&gt;Location: 35191 - 35689" locus_tag="CONCODRAFT_77233" class="clusterblast-orf" id="general-1_q7_0_all"  />
<polygon points="704,40 727,40 732,35 727,30 704,30 704,40 " style="fill:white; stroke-width:1; stroke:black; " description="&lt;b&gt;CONCODRAFT_55221&lt;/b&gt;&lt;br&gt;DUF382-domain-containing protein&lt;br&gt;Location: 36506 - 37954" locus_tag="CONCODRAFT_55221" class="clusterblast-orf" id="general-1_q8_0_all"  />
<polygon points="747,40 775,40 780,35 775,30 747,30 747,40 " style="fill:white; stroke-width:1; stroke:black; " description="&lt;b&gt;CONCODRAFT_68079&lt;/b&gt;&lt;br&gt;hypothetical protein&lt;br&gt;Location: 38692 - 40385" locus_tag="CONCODRAFT_68079" class="clusterblast-orf" id="general-1_q9_0_all"  />
</g>
</svg>
