<svg xmlns="http://www.w3.org/2000/svg" xmlns:xlink="http://www.w3.org/1999/xlink" version="1.1" x="0" y="0" height="230" width="800" viewBox="0 0 800 230" preserveAspectRatio="none"  >
<g label="Query sequence" class="clusterblast-cluster"  >
<text x="5" y="20" class="clusterblast-acc"  >
Query sequence</text>
<line x1="10" y1="35" x2="778.0" y2="35" style="stroke-width:1; stroke:grey; "  />
<polygon points="216,40 244,40 249,35 244,30 216,30 216,40 " style="fill:white; stroke-width:1; stroke:black; " description="&lt;b&gt;CONCODRAFT_83714&lt;/b&gt;&lt;br&gt;ARM repeat-containing protein&lt;br&gt;Location: 122270 - 127919" locus_tag="CONCODRAFT_83714" class="clusterblast-orf" id="dummy-1_q0_0_all"  />
<polygon points="254,40 254,40 259,35 254,30 254,30 254,40 " style="fill:white; stroke-width:1; stroke:black; " description="&lt;b&gt;CONCODRAFT_68583&lt;/b&gt;&lt;br&gt;isochorismatase domain-containing protein 2&lt;br&gt;Location: 128764 - 129647" locus_tag="CONCODRAFT_68583" class="clusterblast-orf" id="dummy-1_q1_0_all"  />
<polygon points="265,35 268,30 268,40 265,35 " style="fill:white; stroke-width:1; stroke:black; " description="&lt;b&gt;CONCODRAFT_4080&lt;/b&gt;&lt;br&gt;hypothetical protein&lt;br&gt;Location: 130713 - 131145" locus_tag="CONCODRAFT_4080" class="clusterblast-orf" id="dummy-1_q2_0_all"  />
<polygon points="288,35 289,30 289,40 288,35 " style="fill:white; stroke-width:1; stroke:black; " description="&lt;b&gt;CONCODRAFT_4081&lt;/b&gt;&lt;br&gt;hypothetical protein&lt;br&gt;Location: 134669 - 134835" locus_tag="CONCODRAFT_4081" class="clusterblast-orf" id="dummy-1_q3_0_all"  />
<polygon points="318,35 323,30 328,30 328,40 323,40 318,35 " style="fill:#d81515; stroke-width:1; stroke:black; " description="&lt;b&gt;CONCODRAFT_36233&lt;/b&gt;&lt;br&gt;acetyl-CoA synthetase-like protein&lt;br&gt;Location: 139699 - 141463" locus_tag="CONCODRAFT_36233" class="clusterblast-orf" id="dummy-1_q4_0_all"  />
<polygon points="328,35 333,30 423,30 423,40 333,40 328,35 " style="fill:#d81515; stroke-width:1; stroke:black; " description="&lt;b&gt;CONCODRAFT_36222&lt;/b&gt;&lt;br&gt;acetyl-CoA synthetase-like protein&lt;br&gt;Location: 141409 - 157663" locus_tag="CONCODRAFT_36222" class="clusterblast-orf" id="dummy-1_q5_0_all"  />
<polygon points="455,35 460,30 465,30 465,40 460,40 455,35 " style="fill:white; stroke-width:1; stroke:black; " description="&lt;b&gt;CONCODRAFT_4086&lt;/b&gt;&lt;br&gt;MFS general substrate transporter&lt;br&gt;Location: 163273 - 164947" locus_tag="CONCODRAFT_4086" class="clusterblast-orf" id="dummy-1_q6_0_all"  />
<polygon points="481,40 482,40 487,35 482,30 481,30 481,40 " style="fill:white; stroke-width:1; stroke:black; " description="&lt;b&gt;CONCODRAFT_83718&lt;/b&gt;&lt;br&gt;hypothetical protein&lt;br&gt;Location: 167647 - 168728" locus_tag="CONCODRAFT_83718" class="clusterblast-orf" id="dummy-1_q7_0_all"  />
<polygon points="490,35 495,30 503,30 503,40 495,40 490,35 " style="fill:white; stroke-width:1; stroke:black; " description="&lt;b&gt;CONCODRAFT_77510&lt;/b&gt;&lt;br&gt;hypothetical protein&lt;br&gt;Location: 169174 - 171445" locus_tag="CONCODRAFT_77510" class="clusterblast-orf" id="dummy-1_q8_0_all"  />
<polygon points="524,35 526,30 526,40 524,35 " style="fill:white; stroke-width:1; stroke:black; " description="&lt;b&gt;CONCODRAFT_4089&lt;/b&gt;&lt;br&gt;hypothetical protein&lt;br&gt;Location: 175046 - 175304" locus_tag="CONCODRAFT_4089" class="clusterblast-orf" id="dummy-1_q9_0_all"  />
<polygon points="546,40 549,40 554,35 549,30 546,30 546,40 " style="fill:white; stroke-width:1; stroke:black; " description="&lt;b&gt;CONCODRAFT_4090&lt;/b&gt;&lt;br&gt;MFS general substrate transporter&lt;br&gt;Location: 178859 - 180143" locus_tag="CONCODRAFT_4090" class="clusterblast-orf" id="dummy-1_q10_0_all"  />
<polygon points="562,40 563,35 562,30 562,40 " style="fill:white; stroke-width:1; stroke:black; " description="&lt;b&gt;CONCODRAFT_4091&lt;/b&gt;&lt;br&gt;hypothetical protein&lt;br&gt;Location: 181534 - 181771" locus_tag="CONCODRAFT_4091" class="clusterblast-orf" id="dummy-1_q11_0_all"  />
</g>
<g label="NZ_JABBGC010000002" description="NZ_JABBGC010000002 (1578680-1712279): Chitinophaga sp. G-6-1-13 contig2, whol... (5% of genes show similarity), NRPS,T1PKS" class="clusterblast-cluster"  >
<text x="5" y="70" class="clusterblast-acc"  >
<a xlink:href="https://antismash-db.secondarymetabolites.org/area.html?record=NZ_JABBGC010000002&amp;start=1578680&amp;end=1712279" target="_blank">NZ_JABBGC010000002 (1578680-1712279)</a>: Chitinophaga sp. G-6-1-13 contig2, whol... (5% of genes show similarity), NRPS,T1PKS</text>
<line x1="10" y1="85" x2="778.0" y2="85" style="stroke-width:1; stroke:grey; "  />
</g>
<g id="a1_000"  >
<polygon points="0,85 5,80 5,80 5,90 5,90 0,85 " style="fill:white; stroke-width:1; stroke:black; " description="&lt;b&gt;HHL17_RS22765&lt;/b&gt;&lt;br&gt;helix-turn-helix transcriptional regulator&lt;br&gt;Location: 1578681 - 1579589" locus_tag="HHL17_RS22765" class="clusterblast-orf" id="dummy-1_h1_2_0"  />
</g>
<g id="a1_001"  >
<polygon points="5,85 10,80 10,80 10,90 10,90 5,85 " style="fill:white; stroke-width:1; stroke:black; " description="&lt;b&gt;HHL17_RS22770&lt;/b&gt;&lt;br&gt;SDR family oxidoreductase&lt;br&gt;Location: 1579676 - 1580491" locus_tag="HHL17_RS22770" class="clusterblast-orf" id="dummy-1_h1_2_1"  />
</g>
<g id="a1_002"  >
<polygon points="13,90 13,90 18,85 13,80 13,80 13,90 " style="fill:white; stroke-width:1; stroke:black; " description="&lt;b&gt;HHL17_RS22775&lt;/b&gt;&lt;br&gt;secretory protein&lt;br&gt;Location: 1581068 - 1581802" locus_tag="HHL17_RS22775" class="clusterblast-orf" id="dummy-1_h1_2_2"  />
</g>
<g id="a1_003"  >
<polygon points="19,85 24,80 24,80 24,90 24,90 19,85 " style="fill:white; stroke-width:1; stroke:black; " description="&lt;b&gt;HHL17_RS22780&lt;/b&gt;&lt;br&gt;DUF1963 domain-containing protein&lt;br&gt;Location: 1582026 - 1582874" locus_tag="HHL17_RS22780" class="clusterblast-orf" id="dummy-1_h1_2_3"  />
</g>
<g id="a1_004"  >
<polygon points="25,85 26,80 26,90 25,85 " style="fill:white; stroke-width:1; stroke:black; " description="&lt;b&gt;HHL17_RS22785&lt;/b&gt;&lt;br&gt;hypothetical protein&lt;br&gt;Location: 1582958 - 1583284" locus_tag="HHL17_RS22785" class="clusterblast-orf" id="dummy-1_h1_2_4"  />
</g>
<g id="a1_005"  >
<polygon points="27,85 32,80 32,80 32,90 32,90 27,85 " style="fill:white; stroke-width:1; stroke:black; " description="&lt;b&gt;HHL17_RS22790&lt;/b&gt;&lt;br&gt;helix-turn-helix transcriptional regulator&lt;br&gt;Location: 1583388 - 1584317" locus_tag="HHL17_RS22790" class="clusterblast-orf" id="dummy-1_h1_2_5"  />
</g>
<g id="a1_006"  >
<polygon points="32,85 37,80 38,80 38,90 37,90 32,85 " style="fill:white; stroke-width:1; stroke:black; " description="&lt;b&gt;HHL17_RS22795&lt;/b&gt;&lt;br&gt;NmrA family NAD(P)-binding protein&lt;br&gt;Location: 1584323 - 1585186" locus_tag="HHL17_RS22795" class="clusterblast-orf" id="dummy-1_h1_2_6"  />
</g>
<g id="a1_007"  >
<polygon points="40,90 52,90 57,85 52,80 40,80 40,90 " style="fill:white; stroke-width:1; stroke:black; " description="&lt;b&gt;HHL17_RS22800&lt;/b&gt;&lt;br&gt;hypothetical protein&lt;br&gt;Location: 1585528 - 1588560" locus_tag="HHL17_RS22800" class="clusterblast-orf" id="dummy-1_h1_2_7"  />
</g>
<g id="a1_008"  >
<polygon points="58,90 60,85 58,80 58,90 " style="fill:white; stroke-width:1; stroke:black; " description="&lt;b&gt;HHL17_RS22805&lt;/b&gt;&lt;br&gt;HopJ type III effector protein&lt;br&gt;Location: 1588680 - 1589021" locus_tag="HHL17_RS22805" class="clusterblast-orf" id="dummy-1_h1_2_8"  />
</g>
<g id="a1_009"  >
<polygon points="60,90 61,90 66,85 61,80 60,80 60,90 " style="fill:white; stroke-width:1; stroke:black; " description="&lt;b&gt;HHL17_RS22810&lt;/b&gt;&lt;br&gt;alpha/beta hydrolase&lt;br&gt;Location: 1589074 - 1589985" locus_tag="HHL17_RS22810" class="clusterblast-orf" id="dummy-1_h1_2_9"  />
</g>
<g id="a1_0010"  >
<polygon points="67,90 67,85 67,80 67,90 " style="fill:white; stroke-width:1; stroke:black; " description="&lt;b&gt;HHL17_RS22815&lt;/b&gt;&lt;br&gt;GTP cyclohydrolase I FolE&lt;br&gt;Location: 1590208 - 1590285" locus_tag="HHL17_RS22815" class="clusterblast-orf" id="dummy-1_h1_2_10"  />
</g>
<g id="a1_0011"  >
<polygon points="68,85 73,80 73,80 73,90 73,90 68,85 " style="fill:white; stroke-width:1; stroke:black; " description="&lt;b&gt;HHL17_RS22820&lt;/b&gt;&lt;br&gt;DUF2167 domain-containing protein&lt;br&gt;Location: 1590358 - 1591326" locus_tag="HHL17_RS22820" class="clusterblast-orf" id="dummy-1_h1_2_11"  />
</g>
<g id="a1_0012"  >
<polygon points="74,90 76,90 81,85 76,80 74,80 74,90 " style="fill:white; stroke-width:1; stroke:black; " description="&lt;b&gt;HHL17_RS22825&lt;/b&gt;&lt;br&gt;winged helix-turn-helix domain-containing protein&lt;br&gt;Location: 1591498 - 1592691" locus_tag="HHL17_RS22825" class="clusterblast-orf" id="dummy-1_h1_2_12"  />
</g>
<g id="a1_0013"  >
<polygon points="81,85 86,80 86,80 86,90 86,90 81,85 " style="fill:white; stroke-width:1; stroke:black; " description="&lt;b&gt;HHL17_RS22830&lt;/b&gt;&lt;br&gt;hypothetical protein&lt;br&gt;Location: 1592692 - 1593525" locus_tag="HHL17_RS22830" class="clusterblast-orf" id="dummy-1_h1_2_13"  />
</g>
<g id="a1_0014"  >
<polygon points="86,85 91,80 101,80 101,90 91,90 86,85 " style="fill:white; stroke-width:1; stroke:black; " description="&lt;b&gt;HHL17_RS22835&lt;/b&gt;&lt;br&gt;TonB-dependent receptor&lt;br&gt;Location: 1593556 - 1596045" locus_tag="HHL17_RS22835" class="clusterblast-orf" id="dummy-1_h1_2_14"  />
</g>
<g id="a1_0015"  >
<polygon points="101,85 105,80 105,90 101,85 " style="fill:white; stroke-width:1; stroke:black; " description="&lt;b&gt;HHL17_RS22840&lt;/b&gt;&lt;br&gt;thioesterase&lt;br&gt;Location: 1596063 - 1596773" locus_tag="HHL17_RS22840" class="clusterblast-orf" id="dummy-1_h1_2_15"  />
</g>
<g id="a1_0016"  >
<polygon points="105,85 110,80 115,80 115,90 110,90 105,85 " style="fill:white; stroke-width:1; stroke:black; " description="&lt;b&gt;HHL17_RS22845&lt;/b&gt;&lt;br&gt;cyclic peptide export ABC transporter&lt;br&gt;Location: 1596775 - 1598469" locus_tag="HHL17_RS22845" class="clusterblast-orf" id="dummy-1_h1_2_16"  />
</g>
<g id="a1_0017"  >
<polygon points="116,85 121,80 238,80 238,90 121,90 116,85 " style="fill:#d81515; stroke-width:1; stroke:black; " description="&lt;b&gt;HHL17_RS22850&lt;/b&gt;&lt;br&gt;non-ribosomal peptide synthase/polyketide synthase&lt;br&gt;Location: 1598556 - 1619456&lt;br&gt;&lt;br&gt;&lt;b&gt;BlastP hit with CONCODRAFT_36233&lt;/b&gt;&lt;br&gt;Percentage identity: 33&lt;br&gt;Percentage coverage: 85&lt;br&gt;BLAST bit score: 233&lt;br&gt;E-value: 4.2e-59&lt;br&gt;&lt;br&gt;&lt;b&gt;BlastP hit with CONCODRAFT_36222&lt;/b&gt;&lt;br&gt;Percentage identity: 31&lt;br&gt;Percentage coverage: 52&lt;br&gt;BLAST bit score: 223&lt;br&gt;E-value: 1.1e-55" locus_tag="HHL17_RS22850" class="clusterblast-orf" id="dummy-1_h1_2_17"  />
</g>
<g id="a1_0018"  >
<polygon points="238,85 243,80 277,80 277,90 243,90 238,85 " style="fill:#d81515; stroke-width:1; stroke:black; " description="&lt;b&gt;HHL17_RS22855&lt;/b&gt;&lt;br&gt;amino acid adenylation domain-containing protein&lt;br&gt;Location: 1619481 - 1626071&lt;br&gt;&lt;br&gt;&lt;b&gt;BlastP hit with CONCODRAFT_36233&lt;/b&gt;&lt;br&gt;Percentage identity: 33&lt;br&gt;Percentage coverage: 86&lt;br&gt;BLAST bit score: 218&lt;br&gt;E-value: 2.4e-54" locus_tag="HHL17_RS22855" class="clusterblast-orf" id="dummy-1_h1_2_18"  />
</g>
<g id="a1_0019"  >
<polygon points="277,85 282,80 361,80 361,90 282,90 277,85 " style="fill:white; stroke-width:1; stroke:black; " description="&lt;b&gt;HHL17_RS22860&lt;/b&gt;&lt;br&gt;amino acid adenylation domain-containing protein&lt;br&gt;Location: 1626108 - 1640579" locus_tag="HHL17_RS22860" class="clusterblast-orf" id="dummy-1_h1_2_19"  />
</g>
<g id="a1_0020"  >
<polygon points="362,85 367,80 371,80 371,90 367,90 362,85 " style="fill:white; stroke-width:1; stroke:black; " description="&lt;b&gt;HHL17_RS22865&lt;/b&gt;&lt;br&gt;MBL fold metallo-hydrolase&lt;br&gt;Location: 1640687 - 1642303" locus_tag="HHL17_RS22865" class="clusterblast-orf" id="dummy-1_h1_2_20"  />
</g>
<g id="a1_0021"  >
<polygon points="373,85 378,80 378,80 378,90 378,90 373,85 " style="fill:white; stroke-width:1; stroke:black; " description="&lt;b&gt;HHL17_RS22870&lt;/b&gt;&lt;br&gt;2,3-diaminopropionate biosynthesis protein SbnB&lt;br&gt;Location: 1642544 - 1643512" locus_tag="HHL17_RS22870" class="clusterblast-orf" id="dummy-1_h1_2_21"  />
</g>
<g id="a1_0022"  >
<polygon points="378,85 383,80 384,80 384,90 383,90 378,85 " style="fill:white; stroke-width:1; stroke:black; " description="&lt;b&gt;HHL17_RS22875&lt;/b&gt;&lt;br&gt;2,3-diaminopropionate biosynthesis protein SbnA&lt;br&gt;Location: 1643518 - 1644483" locus_tag="HHL17_RS22875" class="clusterblast-orf" id="dummy-1_h1_2_22"  />
</g>
<g id="a1_0023"  >
<polygon points="390,85 391,80 391,90 390,85 " style="fill:white; stroke-width:1; stroke:black; " description="&lt;b&gt;HHL17_RS22880&lt;/b&gt;&lt;br&gt;helix-turn-helix transcriptional regulator&lt;br&gt;Location: 1645517 - 1645723" locus_tag="HHL17_RS22880" class="clusterblast-orf" id="dummy-1_h1_2_23"  />
</g>
<g id="a1_0024"  >
<polygon points="391,85 393,80 393,90 391,85 " style="fill:white; stroke-width:1; stroke:black; " description="&lt;b&gt;HHL17_RS22885&lt;/b&gt;&lt;br&gt;hypothetical protein&lt;br&gt;Location: 1645732 - 1646073" locus_tag="HHL17_RS22885" class="clusterblast-orf" id="dummy-1_h1_2_24"  />
</g>
<g id="a1_0025"  >
<polygon points="395,85 400,80 420,80 420,90 400,90 395,85 " style="fill:white; stroke-width:1; stroke:black; " description="&lt;b&gt;HHL17_RS22890&lt;/b&gt;&lt;br&gt;T9SS type A sorting domain-containing protein&lt;br&gt;Location: 1646288 - 1650565" locus_tag="HHL17_RS22890" class="clusterblast-orf" id="dummy-1_h1_2_25"  />
</g>
<g id="a1_0026"  >
<polygon points="420,85 423,80 423,90 420,85 " style="fill:white; stroke-width:1; stroke:black; " description="&lt;b&gt;HHL17_RS22895&lt;/b&gt;&lt;br&gt;hypothetical protein&lt;br&gt;Location: 1650613 - 1651146" locus_tag="HHL17_RS22895" class="clusterblast-orf" id="dummy-1_h1_2_26"  />
</g>
<g id="a1_0027"  >
<polygon points="423,85 428,80 428,80 428,90 428,90 423,85 " style="fill:white; stroke-width:1; stroke:black; " description="&lt;b&gt;HHL17_RS22900&lt;/b&gt;&lt;br&gt;heme ABC transporter ATP-binding protein&lt;br&gt;Location: 1651159 - 1651950" locus_tag="HHL17_RS22900" class="clusterblast-orf" id="dummy-1_h1_2_27"  />
</g>
<g id="a1_0028"  >
<polygon points="428,85 433,80 434,80 434,90 433,90 428,85 " style="fill:white; stroke-width:1; stroke:black; " description="&lt;b&gt;HHL17_RS22905&lt;/b&gt;&lt;br&gt;iron ABC transporter permease&lt;br&gt;Location: 1651950 - 1652978" locus_tag="HHL17_RS22905" class="clusterblast-orf" id="dummy-1_h1_2_28"  />
</g>
<g id="a1_0029"  >
<polygon points="434,85 439,80 439,80 439,90 439,90 434,85 " style="fill:white; stroke-width:1; stroke:black; " description="&lt;b&gt;HHL17_RS22910&lt;/b&gt;&lt;br&gt;ABC transporter substrate-binding protein&lt;br&gt;Location: 1652959 - 1653831" locus_tag="HHL17_RS22910" class="clusterblast-orf" id="dummy-1_h1_2_29"  />
</g>
<g id="a1_0030"  >
<polygon points="439,85 444,80 453,80 453,90 444,90 439,85 " style="fill:white; stroke-width:1; stroke:black; " description="&lt;b&gt;HHL17_RS22915&lt;/b&gt;&lt;br&gt;TonB-dependent receptor&lt;br&gt;Location: 1653862 - 1656186" locus_tag="HHL17_RS22915" class="clusterblast-orf" id="dummy-1_h1_2_30"  />
</g>
<g id="a1_0031"  >
<polygon points="455,90 459,85 455,80 455,90 " style="fill:white; stroke-width:1; stroke:black; " description="&lt;b&gt;HHL17_RS22920&lt;/b&gt;&lt;br&gt;hypothetical protein&lt;br&gt;Location: 1656534 - 1657301" locus_tag="HHL17_RS22920" class="clusterblast-orf" id="dummy-1_h1_2_31"  />
</g>
<g id="a1_0032"  >
<polygon points="460,90 462,85 460,80 460,90 " style="fill:white; stroke-width:1; stroke:black; " description="&lt;b&gt;HHL17_RS22925&lt;/b&gt;&lt;br&gt;hypothetical protein&lt;br&gt;Location: 1657416 - 1657850" locus_tag="HHL17_RS22925" class="clusterblast-orf" id="dummy-1_h1_2_32"  />
</g>
<g id="a1_0033"  >
<polygon points="465,90 473,90 478,85 473,80 465,80 465,90 " style="fill:white; stroke-width:1; stroke:black; " description="&lt;b&gt;HHL17_RS22930&lt;/b&gt;&lt;br&gt;DUF1553 domain-containing protein&lt;br&gt;Location: 1658241 - 1660559" locus_tag="HHL17_RS22930" class="clusterblast-orf" id="dummy-1_h1_2_33"  />
</g>
<g id="a1_0034"  >
<polygon points="478,90 482,90 487,85 482,80 478,80 478,90 " style="fill:white; stroke-width:1; stroke:black; " description="&lt;b&gt;HHL17_RS22935&lt;/b&gt;&lt;br&gt;DUF1501 domain-containing protein&lt;br&gt;Location: 1660614 - 1662068" locus_tag="HHL17_RS22935" class="clusterblast-orf" id="dummy-1_h1_2_34"  />
</g>
<g id="a1_0035"  >
<polygon points="487,90 488,90 493,85 488,80 487,80 487,90 " style="fill:white; stroke-width:1; stroke:black; " description="&lt;b&gt;HHL17_RS22940&lt;/b&gt;&lt;br&gt;6-bladed beta-propeller&lt;br&gt;Location: 1662084 - 1663109" locus_tag="HHL17_RS22940" class="clusterblast-orf" id="dummy-1_h1_2_35"  />
</g>
<g id="a1_0036"  >
<polygon points="493,90 501,90 506,85 501,80 493,80 493,90 " style="fill:white; stroke-width:1; stroke:black; " description="&lt;b&gt;HHL17_RS22945&lt;/b&gt;&lt;br&gt;cytochrome C&lt;br&gt;Location: 1663109 - 1665262" locus_tag="HHL17_RS22945" class="clusterblast-orf" id="dummy-1_h1_2_36"  />
</g>
<g id="a1_0037"  >
<polygon points="507,90 516,90 521,85 516,80 507,80 507,90 " style="fill:white; stroke-width:1; stroke:black; " description="&lt;b&gt;HHL17_RS22950&lt;/b&gt;&lt;br&gt;hypothetical protein&lt;br&gt;Location: 1665440 - 1667899" locus_tag="HHL17_RS22950" class="clusterblast-orf" id="dummy-1_h1_2_37"  />
</g>
<g id="a1_0038"  >
<polygon points="522,90 526,85 522,80 522,90 " style="fill:white; stroke-width:1; stroke:black; " description="&lt;b&gt;HHL17_RS22955&lt;/b&gt;&lt;br&gt;hypothetical protein&lt;br&gt;Location: 1668123 - 1668695" locus_tag="HHL17_RS22955" class="clusterblast-orf" id="dummy-1_h1_2_38"  />
</g>
<g id="a1_0039"  >
<polygon points="526,85 529,80 529,90 526,85 " style="fill:white; stroke-width:1; stroke:black; " description="&lt;b&gt;HHL17_RS22960&lt;/b&gt;&lt;br&gt;helix-turn-helix transcriptional regulator&lt;br&gt;Location: 1668815 - 1669186" locus_tag="HHL17_RS22960" class="clusterblast-orf" id="dummy-1_h1_2_39"  />
</g>
<g id="a1_0040"  >
<polygon points="529,90 530,90 535,85 530,80 529,80 529,90 " style="fill:white; stroke-width:1; stroke:black; " description="&lt;b&gt;HHL17_RS22965&lt;/b&gt;&lt;br&gt;NmrA/HSCARG family protein&lt;br&gt;Location: 1669312 - 1670268" locus_tag="HHL17_RS22965" class="clusterblast-orf" id="dummy-1_h1_2_40"  />
</g>
<g id="a1_0041"  >
<polygon points="536,90 536,85 536,80 536,90 " style="fill:white; stroke-width:1; stroke:black; " description="&lt;b&gt;HHL17_RS22970&lt;/b&gt;&lt;br&gt;hypothetical protein&lt;br&gt;Location: 1670381 - 1670518" locus_tag="HHL17_RS22970" class="clusterblast-orf" id="dummy-1_h1_2_41"  />
</g>
<g id="a1_0042"  >
<polygon points="537,90 538,90 543,85 538,80 537,80 537,90 " style="fill:white; stroke-width:1; stroke:black; " description="&lt;b&gt;HHL17_RS22975&lt;/b&gt;&lt;br&gt;hypothetical protein&lt;br&gt;Location: 1670592 - 1671650" locus_tag="HHL17_RS22975" class="clusterblast-orf" id="dummy-1_h1_2_42"  />
</g>
<g id="a1_0043"  >
<polygon points="543,90 545,85 543,80 543,90 " style="fill:white; stroke-width:1; stroke:black; " description="&lt;b&gt;HHL17_RS22980&lt;/b&gt;&lt;br&gt;hypothetical protein&lt;br&gt;Location: 1671694 - 1672086" locus_tag="HHL17_RS22980" class="clusterblast-orf" id="dummy-1_h1_2_43"  />
</g>
<g id="a1_0044"  >
<polygon points="546,85 551,80 552,80 552,90 551,90 546,85 " style="fill:white; stroke-width:1; stroke:black; " description="&lt;b&gt;HHL17_RS22985&lt;/b&gt;&lt;br&gt;NADP-dependent oxidoreductase&lt;br&gt;Location: 1672177 - 1673175" locus_tag="HHL17_RS22985" class="clusterblast-orf" id="dummy-1_h1_2_44"  />
</g>
<g id="a1_0045"  >
<polygon points="553,90 555,85 553,80 553,90 " style="fill:white; stroke-width:1; stroke:black; " description="&lt;b&gt;HHL17_RS22990&lt;/b&gt;&lt;br&gt;helix-turn-helix transcriptional regulator&lt;br&gt;Location: 1673370 - 1673732" locus_tag="HHL17_RS22990" class="clusterblast-orf" id="dummy-1_h1_2_45"  />
</g>
<g id="a1_0046"  >
<polygon points="556,85 561,80 664,80 664,90 561,90 556,85 " style="fill:#d81515; stroke-width:1; stroke:black; " description="&lt;b&gt;HHL17_RS22995&lt;/b&gt;&lt;br&gt;non-ribosomal peptide synthase/polyketide synthase&lt;br&gt;Location: 1673815 - 1692279&lt;br&gt;&lt;br&gt;&lt;b&gt;BlastP hit with CONCODRAFT_36233&lt;/b&gt;&lt;br&gt;Percentage identity: 31&lt;br&gt;Percentage coverage: 98&lt;br&gt;BLAST bit score: 252&lt;br&gt;E-value: 1.1e-64" locus_tag="HHL17_RS22995" class="clusterblast-orf" id="dummy-1_h1_2_46"  />
</g>
<g id="a1_0047"  >
<polygon points="671,90 673,85 671,80 671,90 " style="fill:white; stroke-width:1; stroke:black; " description="&lt;b&gt;HHL17_RS23000&lt;/b&gt;&lt;br&gt;hypothetical protein&lt;br&gt;Location: 1693602 - 1693985" locus_tag="HHL17_RS23000" class="clusterblast-orf" id="dummy-1_h1_2_47"  />
</g>
<g id="a1_0048"  >
<polygon points="674,85 679,80 684,80 684,90 679,90 674,85 " style="fill:white; stroke-width:1; stroke:black; " description="&lt;b&gt;HHL17_RS23005&lt;/b&gt;&lt;br&gt;Na+/H+ antiporter&lt;br&gt;Location: 1694104 - 1695750" locus_tag="HHL17_RS23005" class="clusterblast-orf" id="dummy-1_h1_2_48"  />
</g>
<g id="a1_0049"  >
<polygon points="686,90 687,90 692,85 687,80 686,80 686,90 " style="fill:white; stroke-width:1; stroke:black; " description="&lt;b&gt;HHL17_RS23010&lt;/b&gt;&lt;br&gt;acyl-CoA desaturase&lt;br&gt;Location: 1696155 - 1697153" locus_tag="HHL17_RS23010" class="clusterblast-orf" id="dummy-1_h1_2_49"  />
</g>
<g id="a1_0050"  >
<polygon points="693,90 697,85 693,80 693,90 " style="fill:white; stroke-width:1; stroke:black; " description="&lt;b&gt;HHL17_RS23015&lt;/b&gt;&lt;br&gt;AraC family transcriptional regulator&lt;br&gt;Location: 1697246 - 1698013" locus_tag="HHL17_RS23015" class="clusterblast-orf" id="dummy-1_h1_2_50"  />
</g>
<g id="a1_0051"  >
<polygon points="697,90 699,90 704,85 699,80 697,80 697,90 " style="fill:white; stroke-width:1; stroke:black; " description="&lt;b&gt;HHL17_RS23020&lt;/b&gt;&lt;br&gt;alkene reductase&lt;br&gt;Location: 1698078 - 1699166" locus_tag="HHL17_RS23020" class="clusterblast-orf" id="dummy-1_h1_2_51"  />
</g>
<g id="a1_0052"  >
<polygon points="704,90 705,90 710,85 705,80 704,80 704,90 " style="fill:white; stroke-width:1; stroke:black; " description="&lt;b&gt;HHL17_RS23025&lt;/b&gt;&lt;br&gt;helix-turn-helix transcriptional regulator&lt;br&gt;Location: 1699283 - 1700155" locus_tag="HHL17_RS23025" class="clusterblast-orf" id="dummy-1_h1_2_52"  />
</g>
<g id="a1_0053"  >
<polygon points="710,90 714,85 710,80 710,90 " style="fill:white; stroke-width:1; stroke:black; " description="&lt;b&gt;HHL17_RS23030&lt;/b&gt;&lt;br&gt;SDR family oxidoreductase&lt;br&gt;Location: 1700221 - 1700958" locus_tag="HHL17_RS23030" class="clusterblast-orf" id="dummy-1_h1_2_53"  />
</g>
<g id="a1_0054"  >
<polygon points="715,85 720,80 733,80 733,90 720,90 715,85 " style="fill:white; stroke-width:1; stroke:black; " description="&lt;b&gt;HHL17_RS23035&lt;/b&gt;&lt;br&gt;efflux RND transporter permease subunit&lt;br&gt;Location: 1701026 - 1704202" locus_tag="HHL17_RS23035" class="clusterblast-orf" id="dummy-1_h1_2_54"  />
</g>
<g id="a1_0055"  >
<polygon points="734,85 739,80 740,80 740,90 739,90 734,85 " style="fill:white; stroke-width:1; stroke:black; " description="&lt;b&gt;HHL17_RS23040&lt;/b&gt;&lt;br&gt;efflux RND transporter periplasmic adaptor subunit&lt;br&gt;Location: 1704284 - 1705402" locus_tag="HHL17_RS23040" class="clusterblast-orf" id="dummy-1_h1_2_55"  />
</g>
<g id="a1_0056"  >
<polygon points="741,85 743,80 743,90 741,85 " style="fill:white; stroke-width:1; stroke:black; " description="&lt;b&gt;HHL17_RS23045&lt;/b&gt;&lt;br&gt;winged helix-turn-helix transcriptional regulator&lt;br&gt;Location: 1705554 - 1705841" locus_tag="HHL17_RS23045" class="clusterblast-orf" id="dummy-1_h1_2_56"  />
</g>
<g id="a1_0057"  >
<polygon points="744,90 747,85 744,80 744,90 " style="fill:white; stroke-width:1; stroke:black; " description="&lt;b&gt;HHL17_RS23050&lt;/b&gt;&lt;br&gt;hypothetical protein&lt;br&gt;Location: 1706060 - 1706491" locus_tag="HHL17_RS23050" class="clusterblast-orf" id="dummy-1_h1_2_57"  />
</g>
<g id="a1_0058"  >
<polygon points="749,90 764,90 769,85 764,80 749,80 749,90 " style="fill:white; stroke-width:1; stroke:black; " description="&lt;b&gt;HHL17_RS23055&lt;/b&gt;&lt;br&gt;SusC/RagA family TonB-linked outer membrane protein&lt;br&gt;Location: 1706966 - 1710397" locus_tag="HHL17_RS23055" class="clusterblast-orf" id="dummy-1_h1_2_58"  />
</g>
<g id="a1_0059"  >
<polygon points="770,90 775,90 780,85 775,80 770,80 770,90 " style="fill:white; stroke-width:1; stroke:black; " description="&lt;b&gt;HHL17_RS23060&lt;/b&gt;&lt;br&gt;SusD/RagB family nutrient-binding outer membrane lipoprotein&lt;br&gt;Location: 1710432 - 1712123" locus_tag="HHL17_RS23060" class="clusterblast-orf" id="dummy-1_h1_2_59"  />
</g>
</svg>
