<svg xmlns="http://www.w3.org/2000/svg" xmlns:xlink="http://www.w3.org/1999/xlink" version="1.1" x="0" y="0" height="230" width="800" viewBox="0 0 800 230" preserveAspectRatio="none"  >
<g label="Query sequence" class="clusterblast-cluster"  >
<text x="5" y="20" class="clusterblast-acc"  >
Query sequence</text>
<line x1="10" y1="35" x2="778.0" y2="35" style="stroke-width:1; stroke:grey; "  />
<polygon points="286,40 301,40 306,35 301,30 286,30 286,40 " style="fill:white; stroke-width:1; stroke:black; " description="&lt;b&gt;CONCODRAFT_83714&lt;/b&gt;&lt;br&gt;ARM repeat-containing protein&lt;br&gt;Location: 122270 - 127919" locus_tag="CONCODRAFT_83714" class="clusterblast-orf" id="dummy-1_q0_0_all"  />
<polygon points="309,40 312,35 309,30 309,40 " style="fill:white; stroke-width:1; stroke:black; " description="&lt;b&gt;CONCODRAFT_68583&lt;/b&gt;&lt;br&gt;isochorismatase domain-containing protein 2&lt;br&gt;Location: 128764 - 129647" locus_tag="CONCODRAFT_68583" class="clusterblast-orf" id="dummy-1_q1_0_all"  />
<polygon points="316,35 317,30 317,40 316,35 " style="fill:white; stroke-width:1; stroke:black; " description="&lt;b&gt;CONCODRAFT_4080&lt;/b&gt;&lt;br&gt;hypothetical protein&lt;br&gt;Location: 130713 - 131145" locus_tag="CONCODRAFT_4080" class="clusterblast-orf" id="dummy-1_q2_0_all"  />
<polygon points="329,35 330,30 330,40 329,35 " style="fill:white; stroke-width:1; stroke:black; " description="&lt;b&gt;CONCODRAFT_4081&lt;/b&gt;&lt;br&gt;hypothetical protein&lt;br&gt;Location: 134669 - 134835" locus_tag="CONCODRAFT_4081" class="clusterblast-orf" id="dummy-1_q3_0_all"  />
<polygon points="347,35 352,30 353,30 353,40 352,40 347,35 " style="fill:#d81515; stroke-width:1; stroke:black; " description="&lt;b&gt;CONCODRAFT_36233&lt;/b&gt;&lt;br&gt;acetyl-CoA synthetase-like protein&lt;br&gt;Location: 139699 - 141463" locus_tag="CONCODRAFT_36233" class="clusterblast-orf" id="dummy-1_q4_0_all"  />
<polygon points="353,35 358,30 409,30 409,40 358,40 353,35 " style="fill:#d81515; stroke-width:1; stroke:black; " description="&lt;b&gt;CONCODRAFT_36222&lt;/b&gt;&lt;br&gt;acetyl-CoA synthetase-like protein&lt;br&gt;Location: 141409 - 157663" locus_tag="CONCODRAFT_36222" class="clusterblast-orf" id="dummy-1_q5_0_all"  />
<polygon points="429,35 434,30 434,30 434,40 434,40 429,35 " style="fill:white; stroke-width:1; stroke:black; " description="&lt;b&gt;CONCODRAFT_4086&lt;/b&gt;&lt;br&gt;MFS general substrate transporter&lt;br&gt;Location: 163273 - 164947" locus_tag="CONCODRAFT_4086" class="clusterblast-orf" id="dummy-1_q6_0_all"  />
<polygon points="444,40 448,35 444,30 444,40 " style="fill:white; stroke-width:1; stroke:black; " description="&lt;b&gt;CONCODRAFT_83718&lt;/b&gt;&lt;br&gt;hypothetical protein&lt;br&gt;Location: 167647 - 168728" locus_tag="CONCODRAFT_83718" class="clusterblast-orf" id="dummy-1_q7_0_all"  />
<polygon points="449,35 454,30 457,30 457,40 454,40 449,35 " style="fill:white; stroke-width:1; stroke:black; " description="&lt;b&gt;CONCODRAFT_77510&lt;/b&gt;&lt;br&gt;hypothetical protein&lt;br&gt;Location: 169174 - 171445" locus_tag="CONCODRAFT_77510" class="clusterblast-orf" id="dummy-1_q8_0_all"  />
<polygon points="469,35 470,30 470,40 469,35 " style="fill:white; stroke-width:1; stroke:black; " description="&lt;b&gt;CONCODRAFT_4089&lt;/b&gt;&lt;br&gt;hypothetical protein&lt;br&gt;Location: 175046 - 175304" locus_tag="CONCODRAFT_4089" class="clusterblast-orf" id="dummy-1_q9_0_all"  />
<polygon points="483,40 487,35 483,30 483,40 " style="fill:white; stroke-width:1; stroke:black; " description="&lt;b&gt;CONCODRAFT_4090&lt;/b&gt;&lt;br&gt;MFS general substrate transporter&lt;br&gt;Location: 178859 - 180143" locus_tag="CONCODRAFT_4090" class="clusterblast-orf" id="dummy-1_q10_0_all"  />
<polygon points="492,40 493,35 492,30 492,40 " style="fill:white; stroke-width:1; stroke:black; " description="&lt;b&gt;CONCODRAFT_4091&lt;/b&gt;&lt;br&gt;hypothetical protein&lt;br&gt;Location: 181534 - 181771" locus_tag="CONCODRAFT_4091" class="clusterblast-orf" id="dummy-1_q11_0_all"  />
</g>
<g label="NZ_CP019288" description="NZ_CP019288 (802435-1027059): Kordia antarctica strain IMCC3317 chromosome, c... (2% of genes show similarity), NRPS,T1PKS" class="clusterblast-cluster"  >
<text x="5" y="70" class="clusterblast-acc"  >
<a xlink:href="https://antismash-db.secondarymetabolites.org/area.html?record=NZ_CP019288&amp;start=802435&amp;end=1027059" target="_blank">NZ_CP019288 (802435-1027059)</a>: Kordia antarctica strain IMCC3317 chromosome, c... (2% of genes show similarity), NRPS,T1PKS</text>
<line x1="10" y1="85" x2="778.0" y2="85" style="stroke-width:1; stroke:grey; "  />
</g>
<g id="a1_000"  >
<polygon points="0,90 1,90 6,85 1,80 0,80 0,90 " style="fill:white; stroke-width:1; stroke:black; " description="&lt;b&gt;IMCC3317_RS03475&lt;/b&gt;&lt;br&gt;helix-turn-helix domain-containing protein&lt;br&gt;Location: 802436 - 804253" locus_tag="IMCC3317_RS03475" class="clusterblast-orf" id="dummy-1_h1_10_0"  />
</g>
<g id="a1_001"  >
<polygon points="6,90 7,85 6,80 6,90 " style="fill:white; stroke-width:1; stroke:black; " description="&lt;b&gt;IMCC3317_RS03480&lt;/b&gt;&lt;br&gt;class I lanthipeptide&lt;br&gt;Location: 804375 - 804575" locus_tag="IMCC3317_RS03480" class="clusterblast-orf" id="dummy-1_h1_10_1"  />
</g>
<g id="a1_002"  >
<polygon points="8,90 9,85 8,80 8,90 " style="fill:white; stroke-width:1; stroke:black; " description="&lt;b&gt;IMCC3317_RS03485&lt;/b&gt;&lt;br&gt;hypothetical protein&lt;br&gt;Location: 804897 - 805109" locus_tag="IMCC3317_RS03485" class="clusterblast-orf" id="dummy-1_h1_10_2"  />
</g>
<g id="a1_003"  >
<polygon points="9,90 12,85 9,80 9,90 " style="fill:white; stroke-width:1; stroke:black; " description="&lt;b&gt;IMCC3317_RS03490&lt;/b&gt;&lt;br&gt;nitroreductase family protein&lt;br&gt;Location: 805274 - 806008" locus_tag="IMCC3317_RS03490" class="clusterblast-orf" id="dummy-1_h1_10_3"  />
</g>
<g id="a1_004"  >
<polygon points="12,85 14,80 14,90 12,85 " style="fill:white; stroke-width:1; stroke:black; " description="&lt;b&gt;IMCC3317_RS03495&lt;/b&gt;&lt;br&gt;response regulator&lt;br&gt;Location: 806079 - 806735" locus_tag="IMCC3317_RS03495" class="clusterblast-orf" id="dummy-1_h1_10_4"  />
</g>
<g id="a1_005"  >
<polygon points="14,85 17,80 17,90 14,85 " style="fill:white; stroke-width:1; stroke:black; " description="&lt;b&gt;IMCC3317_RS03500&lt;/b&gt;&lt;br&gt;histidine kinase&lt;br&gt;Location: 806737 - 807519" locus_tag="IMCC3317_RS03500" class="clusterblast-orf" id="dummy-1_h1_10_5"  />
</g>
<g id="a1_006"  >
<polygon points="18,85 20,80 20,90 18,85 " style="fill:white; stroke-width:1; stroke:black; " description="&lt;b&gt;IMCC3317_RS03505&lt;/b&gt;&lt;br&gt;hypothetical protein&lt;br&gt;Location: 807687 - 808364" locus_tag="IMCC3317_RS03505" class="clusterblast-orf" id="dummy-1_h1_10_6"  />
</g>
<g id="a1_007"  >
<polygon points="20,85 22,80 22,90 20,85 " style="fill:white; stroke-width:1; stroke:black; " description="&lt;b&gt;IMCC3317_RS03510&lt;/b&gt;&lt;br&gt;hypothetical protein&lt;br&gt;Location: 808377 - 808796" locus_tag="IMCC3317_RS03510" class="clusterblast-orf" id="dummy-1_h1_10_7"  />
</g>
<g id="a1_008"  >
<polygon points="22,90 23,85 22,80 22,90 " style="fill:white; stroke-width:1; stroke:black; " description="&lt;b&gt;IMCC3317_RS03515&lt;/b&gt;&lt;br&gt;hypothetical protein&lt;br&gt;Location: 809052 - 809309" locus_tag="IMCC3317_RS03515" class="clusterblast-orf" id="dummy-1_h1_10_8"  />
</g>
<g id="a1_009"  >
<polygon points="23,85 26,80 26,90 23,85 " style="fill:white; stroke-width:1; stroke:black; " description="&lt;b&gt;IMCC3317_RS03520&lt;/b&gt;&lt;br&gt;allophanate hydrolase subunit 2 family protein&lt;br&gt;Location: 809287 - 810135" locus_tag="IMCC3317_RS03520" class="clusterblast-orf" id="dummy-1_h1_10_9"  />
</g>
<g id="a1_0010"  >
<polygon points="26,85 29,80 29,90 26,85 " style="fill:white; stroke-width:1; stroke:black; " description="&lt;b&gt;IMCC3317_RS03525&lt;/b&gt;&lt;br&gt;5-oxoprolinase subunit PxpB&lt;br&gt;Location: 810129 - 810818" locus_tag="IMCC3317_RS03525" class="clusterblast-orf" id="dummy-1_h1_10_10"  />
</g>
<g id="a1_0011"  >
<polygon points="29,85 31,80 31,90 29,85 " style="fill:white; stroke-width:1; stroke:black; " description="&lt;b&gt;IMCC3317_RS03530&lt;/b&gt;&lt;br&gt;5-oxoprolinase subunit PxpA&lt;br&gt;Location: 810900 - 811583" locus_tag="IMCC3317_RS03530" class="clusterblast-orf" id="dummy-1_h1_10_11"  />
</g>
<g id="a1_0012"  >
<polygon points="32,85 36,80 36,90 32,85 " style="fill:white; stroke-width:1; stroke:black; " description="&lt;b&gt;IMCC3317_RS03535&lt;/b&gt;&lt;br&gt;Nramp family divalent metal transporter&lt;br&gt;Location: 811658 - 812848" locus_tag="IMCC3317_RS03535" class="clusterblast-orf" id="dummy-1_h1_10_12"  />
</g>
<g id="a1_0013"  >
<polygon points="36,85 39,80 39,90 36,85 " style="fill:white; stroke-width:1; stroke:black; " description="&lt;b&gt;IMCC3317_RS03540&lt;/b&gt;&lt;br&gt;DUF2891 family protein&lt;br&gt;Location: 812832 - 813947" locus_tag="IMCC3317_RS03540" class="clusterblast-orf" id="dummy-1_h1_10_13"  />
</g>
<g id="a1_0014"  >
<polygon points="41,85 41,80 41,90 41,85 " style="fill:white; stroke-width:1; stroke:black; " description="&lt;b&gt;IMCC3317_RS03545&lt;/b&gt;&lt;br&gt;hypothetical protein&lt;br&gt;Location: 814244 - 814468" locus_tag="IMCC3317_RS03545" class="clusterblast-orf" id="dummy-1_h1_10_14"  />
</g>
<g id="a1_0015"  >
<polygon points="41,85 42,80 42,90 41,85 " style="fill:white; stroke-width:1; stroke:black; " description="&lt;b&gt;IMCC3317_RS03550&lt;/b&gt;&lt;br&gt;hypothetical protein&lt;br&gt;Location: 814496 - 814714" locus_tag="IMCC3317_RS03550" class="clusterblast-orf" id="dummy-1_h1_10_15"  />
</g>
<g id="a1_0016"  >
<polygon points="43,85 46,80 46,90 43,85 " style="fill:white; stroke-width:1; stroke:black; " description="&lt;b&gt;IMCC3317_RS03555&lt;/b&gt;&lt;br&gt;LytTR family transcriptional regulator DNA-binding domain-containing protein&lt;br&gt;Location: 814886 - 815758" locus_tag="IMCC3317_RS03555" class="clusterblast-orf" id="dummy-1_h1_10_16"  />
</g>
<g id="a1_0017"  >
<polygon points="47,85 50,80 50,90 47,85 " style="fill:white; stroke-width:1; stroke:black; " description="&lt;b&gt;IMCC3317_RS03560&lt;/b&gt;&lt;br&gt;4'-phosphopantetheinyl transferase superfamily protein&lt;br&gt;Location: 816253 - 816900" locus_tag="IMCC3317_RS03560" class="clusterblast-orf" id="dummy-1_h1_10_17"  />
</g>
<g id="a1_0018"  >
<polygon points="50,85 54,80 54,90 50,85 " style="fill:white; stroke-width:1; stroke:black; " description="&lt;b&gt;IMCC3317_RS03565&lt;/b&gt;&lt;br&gt;hypothetical protein&lt;br&gt;Location: 816910 - 818274" locus_tag="IMCC3317_RS03565" class="clusterblast-orf" id="dummy-1_h1_10_18"  />
</g>
<g id="a1_0019"  >
<polygon points="55,85 59,80 59,90 55,85 " style="fill:white; stroke-width:1; stroke:black; " description="&lt;b&gt;IMCC3317_RS03570&lt;/b&gt;&lt;br&gt;hypothetical protein&lt;br&gt;Location: 818325 - 819689" locus_tag="IMCC3317_RS03570" class="clusterblast-orf" id="dummy-1_h1_10_19"  />
</g>
<g id="a1_0020"  >
<polygon points="59,85 64,80 66,80 66,90 64,90 59,85 " style="fill:white; stroke-width:1; stroke:black; " description="&lt;b&gt;IMCC3317_RS03575&lt;/b&gt;&lt;br&gt;alpha/beta fold hydrolase&lt;br&gt;Location: 819713 - 821653" locus_tag="IMCC3317_RS03575" class="clusterblast-orf" id="dummy-1_h1_10_20"  />
</g>
<g id="a1_0021"  >
<polygon points="66,85 71,80 82,80 82,90 71,90 66,85 " style="fill:white; stroke-width:1; stroke:black; " description="&lt;b&gt;IMCC3317_RS03580&lt;/b&gt;&lt;br&gt;amino acid adenylation domain-containing protein&lt;br&gt;Location: 821690 - 826132" locus_tag="IMCC3317_RS03580" class="clusterblast-orf" id="dummy-1_h1_10_21"  />
</g>
<g id="a1_0022"  >
<polygon points="82,85 87,80 88,80 88,90 87,90 82,85 " style="fill:white; stroke-width:1; stroke:black; " description="&lt;b&gt;IMCC3317_RS03585&lt;/b&gt;&lt;br&gt;ATP-binding cassette domain-containing protein&lt;br&gt;Location: 826220 - 827848" locus_tag="IMCC3317_RS03585" class="clusterblast-orf" id="dummy-1_h1_10_22"  />
</g>
<g id="a1_0023"  >
<polygon points="88,85 89,80 89,90 88,85 " style="fill:white; stroke-width:1; stroke:black; " description="&lt;b&gt;IMCC3317_RS03590&lt;/b&gt;&lt;br&gt;hypothetical protein&lt;br&gt;Location: 827918 - 828298" locus_tag="IMCC3317_RS03590" class="clusterblast-orf" id="dummy-1_h1_10_23"  />
</g>
<g id="a1_0024"  >
<polygon points="90,85 92,80 92,90 90,85 " style="fill:white; stroke-width:1; stroke:black; " description="&lt;b&gt;IMCC3317_RS03595&lt;/b&gt;&lt;br&gt;alpha/beta fold hydrolase&lt;br&gt;Location: 828361 - 829092" locus_tag="IMCC3317_RS03595" class="clusterblast-orf" id="dummy-1_h1_10_24"  />
</g>
<g id="a1_0025"  >
<polygon points="92,85 97,80 100,80 100,90 97,90 92,85 " style="fill:white; stroke-width:1; stroke:black; " description="&lt;b&gt;IMCC3317_RS03600&lt;/b&gt;&lt;br&gt;TonB-dependent receptor&lt;br&gt;Location: 829095 - 831506" locus_tag="IMCC3317_RS03600" class="clusterblast-orf" id="dummy-1_h1_10_25"  />
</g>
<g id="a1_0026"  >
<polygon points="100,85 103,80 103,90 100,85 " style="fill:white; stroke-width:1; stroke:black; " description="&lt;b&gt;IMCC3317_RS03605&lt;/b&gt;&lt;br&gt;carboxypeptidase-like regulatory domain-containing protein&lt;br&gt;Location: 831518 - 832180" locus_tag="IMCC3317_RS03605" class="clusterblast-orf" id="dummy-1_h1_10_26"  />
</g>
<g id="a1_0027"  >
<polygon points="103,85 108,80 123,80 123,90 108,90 103,85 " style="fill:white; stroke-width:1; stroke:black; " description="&lt;b&gt;IMCC3317_RS03610&lt;/b&gt;&lt;br&gt;amino acid adenylation domain-containing protein&lt;br&gt;Location: 832193 - 838144" locus_tag="IMCC3317_RS03610" class="clusterblast-orf" id="dummy-1_h1_10_27"  />
</g>
<g id="a1_0028"  >
<polygon points="124,85 129,80 130,80 130,90 129,90 124,85 " style="fill:white; stroke-width:1; stroke:black; " description="&lt;b&gt;IMCC3317_RS03615&lt;/b&gt;&lt;br&gt;amino acid adenylation domain-containing protein&lt;br&gt;Location: 838155 - 840011" locus_tag="IMCC3317_RS03615" class="clusterblast-orf" id="dummy-1_h1_10_28"  />
</g>
<g id="a1_0029"  >
<polygon points="130,85 135,80 142,80 142,90 135,90 130,85 " style="fill:white; stroke-width:1; stroke:black; " description="&lt;b&gt;IMCC3317_RS03620&lt;/b&gt;&lt;br&gt;amino acid adenylation domain-containing protein&lt;br&gt;Location: 840032 - 843397" locus_tag="IMCC3317_RS03620" class="clusterblast-orf" id="dummy-1_h1_10_29"  />
</g>
<g id="a1_0030"  >
<polygon points="142,85 147,80 154,80 154,90 147,90 142,85 " style="fill:white; stroke-width:1; stroke:black; " description="&lt;b&gt;IMCC3317_RS03625&lt;/b&gt;&lt;br&gt;amino acid adenylation domain-containing protein&lt;br&gt;Location: 843417 - 846806" locus_tag="IMCC3317_RS03625" class="clusterblast-orf" id="dummy-1_h1_10_30"  />
</g>
<g id="a1_0031"  >
<polygon points="154,85 159,80 173,80 173,90 159,90 154,85 " style="fill:#d81515; stroke-width:1; stroke:black; " description="&lt;b&gt;IMCC3317_RS03630&lt;/b&gt;&lt;br&gt;amino acid adenylation domain-containing protein&lt;br&gt;Location: 846803 - 852484&lt;br&gt;&lt;br&gt;&lt;b&gt;BlastP hit with CONCODRAFT_36222&lt;/b&gt;&lt;br&gt;Percentage identity: 31&lt;br&gt;Percentage coverage: 44&lt;br&gt;BLAST bit score: 223&lt;br&gt;E-value: 8.2e-56" locus_tag="IMCC3317_RS03630" class="clusterblast-orf" id="dummy-1_h1_10_31"  />
</g>
<g id="a1_0032"  >
<polygon points="173,85 178,80 178,80 178,90 178,90 173,85 " style="fill:white; stroke-width:1; stroke:black; " description="&lt;b&gt;IMCC3317_RS03635&lt;/b&gt;&lt;br&gt;aminotransferase class III-fold pyridoxal phosphate-dependent enzyme&lt;br&gt;Location: 852486 - 853844" locus_tag="IMCC3317_RS03635" class="clusterblast-orf" id="dummy-1_h1_10_32"  />
</g>
<g id="a1_0033"  >
<polygon points="178,85 183,80 195,80 195,90 183,90 178,85 " style="fill:#d81515; stroke-width:1; stroke:black; " description="&lt;b&gt;IMCC3317_RS03640&lt;/b&gt;&lt;br&gt;amino acid adenylation domain-containing protein&lt;br&gt;Location: 853966 - 858729&lt;br&gt;&lt;br&gt;&lt;b&gt;BlastP hit with CONCODRAFT_36233&lt;/b&gt;&lt;br&gt;Percentage identity: 31&lt;br&gt;Percentage coverage: 85&lt;br&gt;BLAST bit score: 206&lt;br&gt;E-value: 9.3e-51" locus_tag="IMCC3317_RS03640" class="clusterblast-orf" id="dummy-1_h1_10_33"  />
</g>
<g id="a1_0034"  >
<polygon points="195,85 200,80 222,80 222,90 200,90 195,85 " style="fill:#d81515; stroke-width:1; stroke:black; " description="&lt;b&gt;IMCC3317_RS03645&lt;/b&gt;&lt;br&gt;amino acid adenylation domain-containing protein&lt;br&gt;Location: 858726 - 866543&lt;br&gt;&lt;br&gt;&lt;b&gt;BlastP hit with CONCODRAFT_36222&lt;/b&gt;&lt;br&gt;Percentage identity: 31&lt;br&gt;Percentage coverage: 52&lt;br&gt;BLAST bit score: 233&lt;br&gt;E-value: 1e-58" locus_tag="IMCC3317_RS03645" class="clusterblast-orf" id="dummy-1_h1_10_34"  />
</g>
<g id="a1_0035"  >
<polygon points="222,85 227,80 237,80 237,90 227,90 222,85 " style="fill:white; stroke-width:1; stroke:black; " description="&lt;b&gt;IMCC3317_RS03650&lt;/b&gt;&lt;br&gt;SDR family NAD(P)-dependent oxidoreductase&lt;br&gt;Location: 866552 - 870970" locus_tag="IMCC3317_RS03650" class="clusterblast-orf" id="dummy-1_h1_10_35"  />
</g>
<g id="a1_0036"  >
<polygon points="238,85 243,80 260,80 260,90 243,90 238,85 " style="fill:white; stroke-width:1; stroke:black; " description="&lt;b&gt;IMCC3317_RS03655&lt;/b&gt;&lt;br&gt;amino acid adenylation domain-containing protein&lt;br&gt;Location: 871013 - 877597" locus_tag="IMCC3317_RS03655" class="clusterblast-orf" id="dummy-1_h1_10_36"  />
</g>
<g id="a1_0037"  >
<polygon points="261,85 266,80 266,80 266,90 266,90 261,85 " style="fill:white; stroke-width:1; stroke:black; " description="&lt;b&gt;IMCC3317_RS03660&lt;/b&gt;&lt;br&gt;MBL fold metallo-hydrolase&lt;br&gt;Location: 877622 - 879223" locus_tag="IMCC3317_RS03660" class="clusterblast-orf" id="dummy-1_h1_10_37"  />
</g>
<g id="a1_0038"  >
<polygon points="266,85 271,80 282,80 282,90 271,90 266,85 " style="fill:white; stroke-width:1; stroke:black; " description="&lt;b&gt;IMCC3317_RS03665&lt;/b&gt;&lt;br&gt;LLM class flavin-dependent oxidoreductase&lt;br&gt;Location: 879263 - 883696" locus_tag="IMCC3317_RS03665" class="clusterblast-orf" id="dummy-1_h1_10_38"  />
</g>
<g id="a1_0039"  >
<polygon points="282,85 287,80 292,80 292,90 287,90 282,85 " style="fill:white; stroke-width:1; stroke:black; " description="&lt;b&gt;IMCC3317_RS03670&lt;/b&gt;&lt;br&gt;acyltransferase domain-containing protein&lt;br&gt;Location: 883750 - 886704" locus_tag="IMCC3317_RS03670" class="clusterblast-orf" id="dummy-1_h1_10_39"  />
</g>
<g id="a1_0040"  >
<polygon points="292,85 297,80 322,80 322,90 297,90 292,85 " style="fill:white; stroke-width:1; stroke:black; " description="&lt;b&gt;IMCC3317_RS03675&lt;/b&gt;&lt;br&gt;amino acid adenylation domain-containing protein&lt;br&gt;Location: 886710 - 895415" locus_tag="IMCC3317_RS03675" class="clusterblast-orf" id="dummy-1_h1_10_40"  />
</g>
<g id="a1_0041"  >
<polygon points="324,85 325,80 325,90 324,85 " style="fill:white; stroke-width:1; stroke:black; " description="&lt;b&gt;IMCC3317_RS03680&lt;/b&gt;&lt;br&gt;UpxY family transcription antiterminator&lt;br&gt;Location: 895787 - 896299" locus_tag="IMCC3317_RS03680" class="clusterblast-orf" id="dummy-1_h1_10_41"  />
</g>
<g id="a1_0042"  >
<polygon points="328,85 330,80 330,90 328,85 " style="fill:white; stroke-width:1; stroke:black; " description="&lt;b&gt;IMCC3317_RS03685&lt;/b&gt;&lt;br&gt;ATP-binding protein&lt;br&gt;Location: 897071 - 897654" locus_tag="IMCC3317_RS03685" class="clusterblast-orf" id="dummy-1_h1_10_42"  />
</g>
<g id="a1_0043"  >
<polygon points="331,90 332,85 331,80 331,90 " style="fill:white; stroke-width:1; stroke:black; " description="&lt;b&gt;IMCC3317_RS03690&lt;/b&gt;&lt;br&gt;hypothetical protein&lt;br&gt;Location: 897760 - 898188" locus_tag="IMCC3317_RS03690" class="clusterblast-orf" id="dummy-1_h1_10_43"  />
</g>
<g id="a1_0044"  >
<polygon points="333,85 333,80 333,90 333,85 " style="fill:white; stroke-width:1; stroke:black; " description="&lt;b&gt;IMCC3317_RS03695&lt;/b&gt;&lt;br&gt;hypothetical protein&lt;br&gt;Location: 898455 - 898613" locus_tag="IMCC3317_RS03695" class="clusterblast-orf" id="dummy-1_h1_10_44"  />
</g>
<g id="a1_0045"  >
<polygon points="335,85 339,80 339,90 335,85 " style="fill:white; stroke-width:1; stroke:black; " description="&lt;b&gt;IMCC3317_RS03700&lt;/b&gt;&lt;br&gt;radical SAM protein&lt;br&gt;Location: 899054 - 900229" locus_tag="IMCC3317_RS03700" class="clusterblast-orf" id="dummy-1_h1_10_45"  />
</g>
<g id="a1_0046"  >
<polygon points="339,85 340,80 340,90 339,85 " style="fill:white; stroke-width:1; stroke:black; " description="&lt;b&gt;IMCC3317_RS03705&lt;/b&gt;&lt;br&gt;hypothetical protein&lt;br&gt;Location: 900327 - 900566" locus_tag="IMCC3317_RS03705" class="clusterblast-orf" id="dummy-1_h1_10_46"  />
</g>
<g id="a1_0047"  >
<polygon points="341,85 342,80 342,90 341,85 " style="fill:white; stroke-width:1; stroke:black; " description="&lt;b&gt;IMCC3317_RS03710&lt;/b&gt;&lt;br&gt;hypothetical protein&lt;br&gt;Location: 900737 - 901081" locus_tag="IMCC3317_RS03710" class="clusterblast-orf" id="dummy-1_h1_10_47"  />
</g>
<g id="a1_0048"  >
<polygon points="343,85 345,80 345,90 343,85 " style="fill:white; stroke-width:1; stroke:black; " description="&lt;b&gt;IMCC3317_RS03715&lt;/b&gt;&lt;br&gt;glycosyltransferase&lt;br&gt;Location: 901224 - 902009" locus_tag="IMCC3317_RS03715" class="clusterblast-orf" id="dummy-1_h1_10_48"  />
</g>
<g id="a1_0049"  >
<polygon points="345,85 350,80 350,80 350,90 350,90 345,85 " style="fill:white; stroke-width:1; stroke:black; " description="&lt;b&gt;IMCC3317_RS03720&lt;/b&gt;&lt;br&gt;glycosyltransferase&lt;br&gt;Location: 902006 - 903478" locus_tag="IMCC3317_RS03720" class="clusterblast-orf" id="dummy-1_h1_10_49"  />
</g>
<g id="a1_0050"  >
<polygon points="350,85 355,80 356,80 356,90 355,90 350,85 " style="fill:white; stroke-width:1; stroke:black; " description="&lt;b&gt;IMCC3317_RS03725&lt;/b&gt;&lt;br&gt;hypothetical protein&lt;br&gt;Location: 903484 - 905106" locus_tag="IMCC3317_RS03725" class="clusterblast-orf" id="dummy-1_h1_10_50"  />
</g>
<g id="a1_0051"  >
<polygon points="356,85 357,80 357,90 356,85 " style="fill:white; stroke-width:1; stroke:black; " description="&lt;b&gt;IMCC3317_RS03730&lt;/b&gt;&lt;br&gt;hypothetical protein&lt;br&gt;Location: 905209 - 905379" locus_tag="IMCC3317_RS03730" class="clusterblast-orf" id="dummy-1_h1_10_51"  />
</g>
<g id="a1_0052"  >
<polygon points="357,85 362,80 365,80 365,90 362,90 357,85 " style="fill:white; stroke-width:1; stroke:black; " description="&lt;b&gt;IMCC3317_RS03735&lt;/b&gt;&lt;br&gt;TonB-dependent receptor&lt;br&gt;Location: 905458 - 907794" locus_tag="IMCC3317_RS03735" class="clusterblast-orf" id="dummy-1_h1_10_52"  />
</g>
<g id="a1_0053"  >
<polygon points="366,90 370,85 366,80 366,90 " style="fill:white; stroke-width:1; stroke:black; " description="&lt;b&gt;IMCC3317_RS03740&lt;/b&gt;&lt;br&gt;HAD-IIIA family hydrolase&lt;br&gt;Location: 907843 - 909132" locus_tag="IMCC3317_RS03740" class="clusterblast-orf" id="dummy-1_h1_10_53"  />
</g>
<g id="a1_0054"  >
<polygon points="370,90 373,85 370,80 370,90 " style="fill:white; stroke-width:1; stroke:black; " description="&lt;b&gt;IMCC3317_RS03745&lt;/b&gt;&lt;br&gt;GHMP kinase&lt;br&gt;Location: 909136 - 910110" locus_tag="IMCC3317_RS03745" class="clusterblast-orf" id="dummy-1_h1_10_54"  />
</g>
<g id="a1_0055"  >
<polygon points="373,90 376,85 373,80 373,90 " style="fill:white; stroke-width:1; stroke:black; " description="&lt;b&gt;IMCC3317_RS03750&lt;/b&gt;&lt;br&gt;FkbM family methyltransferase&lt;br&gt;Location: 910116 - 910925" locus_tag="IMCC3317_RS03750" class="clusterblast-orf" id="dummy-1_h1_10_55"  />
</g>
<g id="a1_0056"  >
<polygon points="376,85 378,80 378,90 376,85 " style="fill:white; stroke-width:1; stroke:black; " description="&lt;b&gt;IMCC3317_RS03755&lt;/b&gt;&lt;br&gt;SIS domain-containing protein&lt;br&gt;Location: 910912 - 911454" locus_tag="IMCC3317_RS03755" class="clusterblast-orf" id="dummy-1_h1_10_56"  />
</g>
<g id="a1_0057"  >
<polygon points="378,85 379,80 379,90 378,85 " style="fill:white; stroke-width:1; stroke:black; " description="&lt;b&gt;IMCC3317_RS03760&lt;/b&gt;&lt;br&gt;hypothetical protein&lt;br&gt;Location: 911553 - 911708" locus_tag="IMCC3317_RS03760" class="clusterblast-orf" id="dummy-1_h1_10_57"  />
</g>
<g id="a1_0058"  >
<polygon points="380,85 380,80 380,90 380,85 " style="fill:white; stroke-width:1; stroke:black; " description="&lt;b&gt;IMCC3317_RS03765&lt;/b&gt;&lt;br&gt;hypothetical protein&lt;br&gt;Location: 911933 - 912076" locus_tag="IMCC3317_RS03765" class="clusterblast-orf" id="dummy-1_h1_10_58"  />
</g>
<g id="a1_0059"  >
<polygon points="382,85 386,80 386,90 382,85 " style="fill:white; stroke-width:1; stroke:black; " description="&lt;b&gt;IMCC3317_RS03770&lt;/b&gt;&lt;br&gt;hypothetical protein&lt;br&gt;Location: 912584 - 913849" locus_tag="IMCC3317_RS03770" class="clusterblast-orf" id="dummy-1_h1_10_59"  />
</g>
<g id="a1_0060"  >
<polygon points="387,85 392,80 392,80 392,90 392,90 387,85 " style="fill:white; stroke-width:1; stroke:black; " description="&lt;b&gt;IMCC3317_RS03775&lt;/b&gt;&lt;br&gt;hypothetical protein&lt;br&gt;Location: 914002 - 915354" locus_tag="IMCC3317_RS03775" class="clusterblast-orf" id="dummy-1_h1_10_60"  />
</g>
<g id="a1_0061"  >
<polygon points="392,85 397,80 398,80 398,90 397,90 392,85 " style="fill:white; stroke-width:1; stroke:black; " description="&lt;b&gt;IMCC3317_RS03780&lt;/b&gt;&lt;br&gt;alpha/beta fold hydrolase&lt;br&gt;Location: 915382 - 917334" locus_tag="IMCC3317_RS03780" class="clusterblast-orf" id="dummy-1_h1_10_61"  />
</g>
<g id="a1_0062"  >
<polygon points="399,85 404,80 414,80 414,90 404,90 399,85 " style="fill:white; stroke-width:1; stroke:black; " description="&lt;b&gt;IMCC3317_RS03785&lt;/b&gt;&lt;br&gt;amino acid adenylation domain-containing protein&lt;br&gt;Location: 917352 - 921794" locus_tag="IMCC3317_RS03785" class="clusterblast-orf" id="dummy-1_h1_10_62"  />
</g>
<g id="a1_0063"  >
<polygon points="414,85 417,80 417,90 414,85 " style="fill:white; stroke-width:1; stroke:black; " description="&lt;b&gt;IMCC3317_RS03790&lt;/b&gt;&lt;br&gt;class D beta-lactamase&lt;br&gt;Location: 921916 - 922773" locus_tag="IMCC3317_RS03790" class="clusterblast-orf" id="dummy-1_h1_10_63"  />
</g>
<g id="a1_0064"  >
<polygon points="417,85 422,80 423,80 423,90 422,90 417,85 " style="fill:white; stroke-width:1; stroke:black; " description="&lt;b&gt;IMCC3317_RS03795&lt;/b&gt;&lt;br&gt;cyclic peptide export ABC transporter&lt;br&gt;Location: 922797 - 924425" locus_tag="IMCC3317_RS03795" class="clusterblast-orf" id="dummy-1_h1_10_64"  />
</g>
<g id="a1_0065"  >
<polygon points="423,85 426,80 426,90 423,85 " style="fill:white; stroke-width:1; stroke:black; " description="&lt;b&gt;IMCC3317_RS03800&lt;/b&gt;&lt;br&gt;alpha/beta fold hydrolase&lt;br&gt;Location: 924488 - 925207" locus_tag="IMCC3317_RS03800" class="clusterblast-orf" id="dummy-1_h1_10_65"  />
</g>
<g id="a1_0066"  >
<polygon points="426,85 431,80 434,80 434,90 431,90 426,85 " style="fill:white; stroke-width:1; stroke:black; " description="&lt;b&gt;IMCC3317_RS03805&lt;/b&gt;&lt;br&gt;TonB-dependent receptor&lt;br&gt;Location: 925276 - 927666" locus_tag="IMCC3317_RS03805" class="clusterblast-orf" id="dummy-1_h1_10_66"  />
</g>
<g id="a1_0067"  >
<polygon points="435,85 440,80 444,80 444,90 440,90 435,85 " style="fill:white; stroke-width:1; stroke:black; " description="&lt;b&gt;IMCC3317_RS03810&lt;/b&gt;&lt;br&gt;argininosuccinate lyase&lt;br&gt;Location: 927708 - 930398" locus_tag="IMCC3317_RS03810" class="clusterblast-orf" id="dummy-1_h1_10_67"  />
</g>
<g id="a1_0068"  >
<polygon points="444,85 447,80 447,90 444,85 " style="fill:white; stroke-width:1; stroke:black; " description="&lt;b&gt;IMCC3317_RS03815&lt;/b&gt;&lt;br&gt;pyridoxal-phosphate dependent enzyme&lt;br&gt;Location: 930388 - 931341" locus_tag="IMCC3317_RS03815" class="clusterblast-orf" id="dummy-1_h1_10_68"  />
</g>
<g id="a1_0069"  >
<polygon points="447,85 451,80 451,90 447,85 " style="fill:white; stroke-width:1; stroke:black; " description="&lt;b&gt;IMCC3317_RS03820&lt;/b&gt;&lt;br&gt;kinase&lt;br&gt;Location: 931431 - 932369" locus_tag="IMCC3317_RS03820" class="clusterblast-orf" id="dummy-1_h1_10_69"  />
</g>
<g id="a1_0070"  >
<polygon points="451,85 454,80 454,90 451,85 " style="fill:white; stroke-width:1; stroke:black; " description="&lt;b&gt;IMCC3317_RS03825&lt;/b&gt;&lt;br&gt;sulfotransferase family 2 domain-containing protein&lt;br&gt;Location: 932554 - 933423" locus_tag="IMCC3317_RS03825" class="clusterblast-orf" id="dummy-1_h1_10_70"  />
</g>
<g id="a1_0071"  >
<polygon points="454,85 459,80 468,80 468,90 459,90 454,85 " style="fill:white; stroke-width:1; stroke:black; " description="&lt;b&gt;IMCC3317_RS03830&lt;/b&gt;&lt;br&gt;amino acid adenylation domain-containing protein&lt;br&gt;Location: 933450 - 937331" locus_tag="IMCC3317_RS03830" class="clusterblast-orf" id="dummy-1_h1_10_71"  />
</g>
<g id="a1_0072"  >
<polygon points="468,85 473,80 484,80 484,90 473,90 468,85 " style="fill:white; stroke-width:1; stroke:black; " description="&lt;b&gt;IMCC3317_RS03835&lt;/b&gt;&lt;br&gt;amino acid adenylation domain-containing protein&lt;br&gt;Location: 937427 - 942097" locus_tag="IMCC3317_RS03835" class="clusterblast-orf" id="dummy-1_h1_10_72"  />
</g>
<g id="a1_0073"  >
<polygon points="485,85 490,80 513,80 513,90 490,90 485,85 " style="fill:white; stroke-width:1; stroke:black; " description="&lt;b&gt;IMCC3317_RS03840&lt;/b&gt;&lt;br&gt;amino acid adenylation domain-containing protein&lt;br&gt;Location: 942195 - 950432" locus_tag="IMCC3317_RS03840" class="clusterblast-orf" id="dummy-1_h1_10_73"  />
</g>
<g id="a1_0074"  >
<polygon points="513,85 518,80 536,80 536,90 518,90 513,85 " style="fill:white; stroke-width:1; stroke:black; " description="&lt;b&gt;IMCC3317_RS03845&lt;/b&gt;&lt;br&gt;amino acid adenylation domain-containing protein&lt;br&gt;Location: 950429 - 957052" locus_tag="IMCC3317_RS03845" class="clusterblast-orf" id="dummy-1_h1_10_74"  />
</g>
<g id="a1_0075"  >
<polygon points="537,85 542,80 542,80 542,90 542,90 537,85 " style="fill:white; stroke-width:1; stroke:black; " description="&lt;b&gt;IMCC3317_RS03850&lt;/b&gt;&lt;br&gt;MBL fold metallo-hydrolase&lt;br&gt;Location: 957092 - 958696" locus_tag="IMCC3317_RS03850" class="clusterblast-orf" id="dummy-1_h1_10_75"  />
</g>
<g id="a1_0076"  >
<polygon points="542,85 547,80 570,80 570,90 547,90 542,85 " style="fill:white; stroke-width:1; stroke:black; " description="&lt;b&gt;IMCC3317_RS03855&lt;/b&gt;&lt;br&gt;amino acid adenylation domain-containing protein&lt;br&gt;Location: 958706 - 966787" locus_tag="IMCC3317_RS03855" class="clusterblast-orf" id="dummy-1_h1_10_76"  />
</g>
<g id="a1_0077"  >
<polygon points="570,85 575,80 581,80 581,90 575,90 570,85 " style="fill:white; stroke-width:1; stroke:black; " description="&lt;b&gt;IMCC3317_RS03860&lt;/b&gt;&lt;br&gt;acyltransferase domain-containing protein&lt;br&gt;Location: 966787 - 969831" locus_tag="IMCC3317_RS03860" class="clusterblast-orf" id="dummy-1_h1_10_77"  />
</g>
<g id="a1_0078"  >
<polygon points="581,85 586,80 609,80 609,90 586,90 581,85 " style="fill:white; stroke-width:1; stroke:black; " description="&lt;b&gt;IMCC3317_RS03865&lt;/b&gt;&lt;br&gt;amino acid adenylation domain-containing protein&lt;br&gt;Location: 969903 - 978092" locus_tag="IMCC3317_RS03865" class="clusterblast-orf" id="dummy-1_h1_10_78"  />
</g>
<g id="a1_0079"  >
<polygon points="609,85 612,80 612,90 609,85 " style="fill:white; stroke-width:1; stroke:black; " description="&lt;b&gt;IMCC3317_RS03870&lt;/b&gt;&lt;br&gt;amino acid racemase&lt;br&gt;Location: 978082 - 978786" locus_tag="IMCC3317_RS03870" class="clusterblast-orf" id="dummy-1_h1_10_79"  />
</g>
<g id="a1_0080"  >
<polygon points="612,85 617,80 618,80 618,90 617,90 612,85 " style="fill:white; stroke-width:1; stroke:black; " description="&lt;b&gt;IMCC3317_RS03875&lt;/b&gt;&lt;br&gt;hypothetical protein&lt;br&gt;Location: 978846 - 980486" locus_tag="IMCC3317_RS03875" class="clusterblast-orf" id="dummy-1_h1_10_80"  />
</g>
<g id="a1_0081"  >
<polygon points="618,85 619,80 619,90 618,85 " style="fill:white; stroke-width:1; stroke:black; " description="&lt;b&gt;IMCC3317_RS03880&lt;/b&gt;&lt;br&gt;nuclear transport factor 2 family protein&lt;br&gt;Location: 980511 - 980933" locus_tag="IMCC3317_RS03880" class="clusterblast-orf" id="dummy-1_h1_10_81"  />
</g>
<g id="a1_0082"  >
<polygon points="619,85 624,80 631,80 631,90 624,90 619,85 " style="fill:white; stroke-width:1; stroke:black; " description="&lt;b&gt;IMCC3317_RS03885&lt;/b&gt;&lt;br&gt;acyltransferase domain-containing protein&lt;br&gt;Location: 980976 - 984191" locus_tag="IMCC3317_RS03885" class="clusterblast-orf" id="dummy-1_h1_10_82"  />
</g>
<g id="a1_0083"  >
<polygon points="631,85 636,80 650,80 650,90 636,90 631,85 " style="fill:white; stroke-width:1; stroke:black; " description="&lt;b&gt;IMCC3317_RS03890&lt;/b&gt;&lt;br&gt;LLM class flavin-dependent oxidoreductase&lt;br&gt;Location: 984193 - 989655" locus_tag="IMCC3317_RS03890" class="clusterblast-orf" id="dummy-1_h1_10_83"  />
</g>
<g id="a1_0084"  >
<polygon points="650,85 655,80 682,80 682,90 655,90 650,85 " style="fill:white; stroke-width:1; stroke:black; " description="&lt;b&gt;IMCC3317_RS03895&lt;/b&gt;&lt;br&gt;amino acid adenylation domain-containing protein&lt;br&gt;Location: 989643 - 999113" locus_tag="IMCC3317_RS03895" class="clusterblast-orf" id="dummy-1_h1_10_84"  />
</g>
<g id="a1_0085"  >
<polygon points="683,85 688,80 713,80 713,90 688,90 683,85 " style="fill:white; stroke-width:1; stroke:black; " description="&lt;b&gt;IMCC3317_RS03900&lt;/b&gt;&lt;br&gt;amino acid adenylation domain-containing protein&lt;br&gt;Location: 999244 - 1007916" locus_tag="IMCC3317_RS03900" class="clusterblast-orf" id="dummy-1_h1_10_85"  />
</g>
<g id="a1_0086"  >
<polygon points="713,85 715,80 715,90 713,85 " style="fill:white; stroke-width:1; stroke:black; " description="&lt;b&gt;IMCC3317_RS03905&lt;/b&gt;&lt;br&gt;4'-phosphopantetheinyl transferase superfamily protein&lt;br&gt;Location: 1007954 - 1008622" locus_tag="IMCC3317_RS03905" class="clusterblast-orf" id="dummy-1_h1_10_86"  />
</g>
<g id="a1_0087"  >
<polygon points="716,85 720,80 720,90 716,85 " style="fill:white; stroke-width:1; stroke:black; " description="&lt;b&gt;IMCC3317_RS03910&lt;/b&gt;&lt;br&gt;sulfate adenylyltransferase&lt;br&gt;Location: 1008681 - 1009937" locus_tag="IMCC3317_RS03910" class="clusterblast-orf" id="dummy-1_h1_10_87"  />
</g>
<g id="a1_0088"  >
<polygon points="720,85 723,80 723,90 720,85 " style="fill:white; stroke-width:1; stroke:black; " description="&lt;b&gt;IMCC3317_RS03915&lt;/b&gt;&lt;br&gt;sulfate adenylyltransferase subunit CysD&lt;br&gt;Location: 1009947 - 1010852" locus_tag="IMCC3317_RS03915" class="clusterblast-orf" id="dummy-1_h1_10_88"  />
</g>
<g id="a1_0089"  >
<polygon points="723,85 725,80 725,90 723,85 " style="fill:white; stroke-width:1; stroke:black; " description="&lt;b&gt;IMCC3317_RS03920&lt;/b&gt;&lt;br&gt;adenylyl-sulfate kinase&lt;br&gt;Location: 1010845 - 1011447" locus_tag="IMCC3317_RS03920" class="clusterblast-orf" id="dummy-1_h1_10_89"  />
</g>
<g id="a1_0090"  >
<polygon points="725,85 726,80 726,90 725,85 " style="fill:white; stroke-width:1; stroke:black; " description="&lt;b&gt;IMCC3317_RS03925&lt;/b&gt;&lt;br&gt;DUF2061 domain-containing protein&lt;br&gt;Location: 1011440 - 1011688" locus_tag="IMCC3317_RS03925" class="clusterblast-orf" id="dummy-1_h1_10_90"  />
</g>
<g id="a1_0091"  >
<polygon points="727,85 729,80 729,90 727,85 " style="fill:white; stroke-width:1; stroke:black; " description="&lt;b&gt;IMCC3317_RS03930&lt;/b&gt;&lt;br&gt;UpxY family transcription antiterminator&lt;br&gt;Location: 1011892 - 1012404" locus_tag="IMCC3317_RS03930" class="clusterblast-orf" id="dummy-1_h1_10_91"  />
</g>
<g id="a1_0092"  >
<polygon points="732,90 735,85 732,80 732,90 " style="fill:white; stroke-width:1; stroke:black; " description="&lt;b&gt;IMCC3317_RS03935&lt;/b&gt;&lt;br&gt;polysaccharide pyruvyl transferase family protein&lt;br&gt;Location: 1013305 - 1014363" locus_tag="IMCC3317_RS03935" class="clusterblast-orf" id="dummy-1_h1_10_92"  />
</g>
<g id="a1_0093"  >
<polygon points="736,85 739,80 739,90 736,85 " style="fill:white; stroke-width:1; stroke:black; " description="&lt;b&gt;IMCC3317_RS03940&lt;/b&gt;&lt;br&gt;hypothetical protein&lt;br&gt;Location: 1014415 - 1015503" locus_tag="IMCC3317_RS03940" class="clusterblast-orf" id="dummy-1_h1_10_93"  />
</g>
<g id="a1_0094"  >
<polygon points="740,85 741,80 741,90 740,85 " style="fill:white; stroke-width:1; stroke:black; " description="&lt;b&gt;IMCC3317_RS03945&lt;/b&gt;&lt;br&gt;hypothetical protein&lt;br&gt;Location: 1015568 - 1015834" locus_tag="IMCC3317_RS03945" class="clusterblast-orf" id="dummy-1_h1_10_94"  />
</g>
<g id="a1_0095"  >
<polygon points="741,90 745,85 741,80 741,90 " style="fill:white; stroke-width:1; stroke:black; " description="&lt;b&gt;IMCC3317_RS03950&lt;/b&gt;&lt;br&gt;DUF1343 domain-containing protein&lt;br&gt;Location: 1015909 - 1017159" locus_tag="IMCC3317_RS03950" class="clusterblast-orf" id="dummy-1_h1_10_95"  />
</g>
<g id="a1_0096"  >
<polygon points="745,90 749,85 745,80 745,90 " style="fill:white; stroke-width:1; stroke:black; " description="&lt;b&gt;IMCC3317_RS03955&lt;/b&gt;&lt;br&gt;hypothetical protein&lt;br&gt;Location: 1017200 - 1018132" locus_tag="IMCC3317_RS03955" class="clusterblast-orf" id="dummy-1_h1_10_96"  />
</g>
<g id="a1_0097"  >
<polygon points="749,85 754,80 755,80 755,90 754,90 749,85 " style="fill:white; stroke-width:1; stroke:black; " description="&lt;b&gt;IMCC3317_RS03960&lt;/b&gt;&lt;br&gt;YifB family Mg chelatase-like AAA ATPase&lt;br&gt;Location: 1018331 - 1019869" locus_tag="IMCC3317_RS03960" class="clusterblast-orf" id="dummy-1_h1_10_97"  />
</g>
<g id="a1_0098"  >
<polygon points="755,85 757,80 757,90 755,85 " style="fill:white; stroke-width:1; stroke:black; " description="&lt;b&gt;IMCC3317_RS03965&lt;/b&gt;&lt;br&gt;response regulator&lt;br&gt;Location: 1019970 - 1020608" locus_tag="IMCC3317_RS03965" class="clusterblast-orf" id="dummy-1_h1_10_98"  />
</g>
<g id="a1_0099"  >
<polygon points="757,85 762,80 764,80 764,90 762,90 757,85 " style="fill:white; stroke-width:1; stroke:black; " description="&lt;b&gt;IMCC3317_RS03970&lt;/b&gt;&lt;br&gt;tetratricopeptide repeat protein&lt;br&gt;Location: 1020612 - 1022720" locus_tag="IMCC3317_RS03970" class="clusterblast-orf" id="dummy-1_h1_10_99"  />
</g>
<g id="a1_00100"  >
<polygon points="764,85 766,80 766,90 764,85 " style="fill:white; stroke-width:1; stroke:black; " description="&lt;b&gt;IMCC3317_RS03975&lt;/b&gt;&lt;br&gt;hypothetical protein&lt;br&gt;Location: 1022727 - 1023206" locus_tag="IMCC3317_RS03975" class="clusterblast-orf" id="dummy-1_h1_10_100"  />
</g>
<g id="a1_00101"  >
<polygon points="767,85 769,80 769,90 767,85 " style="fill:white; stroke-width:1; stroke:black; " description="&lt;b&gt;IMCC3317_RS03980&lt;/b&gt;&lt;br&gt;hypothetical protein&lt;br&gt;Location: 1023343 - 1024005" locus_tag="IMCC3317_RS03980" class="clusterblast-orf" id="dummy-1_h1_10_101"  />
</g>
<g id="a1_00102"  >
<polygon points="769,85 771,80 771,90 769,85 " style="fill:white; stroke-width:1; stroke:black; " description="&lt;b&gt;IMCC3317_RS03985&lt;/b&gt;&lt;br&gt;hypothetical protein&lt;br&gt;Location: 1024079 - 1024546" locus_tag="IMCC3317_RS03985" class="clusterblast-orf" id="dummy-1_h1_10_102"  />
</g>
<g id="a1_00103"  >
<polygon points="772,90 773,85 772,80 772,90 " style="fill:white; stroke-width:1; stroke:black; " description="&lt;b&gt;IMCC3317_RS03990&lt;/b&gt;&lt;br&gt;RDD family protein&lt;br&gt;Location: 1024916 - 1025287" locus_tag="IMCC3317_RS03990" class="clusterblast-orf" id="dummy-1_h1_10_103"  />
</g>
<g id="a1_00104"  >
<polygon points="774,90 775,90 780,85 775,80 774,80 774,90 " style="fill:white; stroke-width:1; stroke:black; " description="&lt;b&gt;IMCC3317_RS03995&lt;/b&gt;&lt;br&gt;T9SS type A sorting domain-containing protein&lt;br&gt;Location: 1025512 - 1027059" locus_tag="IMCC3317_RS03995" class="clusterblast-orf" id="dummy-1_h1_10_104"  />
</g>
</svg>
