<svg xmlns="http://www.w3.org/2000/svg" xmlns:xlink="http://www.w3.org/1999/xlink" version="1.1" x="0" y="0" height="230" width="800" viewBox="0 0 800 230" preserveAspectRatio="none"  >
<g label="Query sequence" class="clusterblast-cluster"  >
<text x="5" y="20" class="clusterblast-acc"  >
Query sequence</text>
<line x1="10" y1="35" x2="778.0" y2="35" style="stroke-width:1; stroke:grey; "  />
<polygon points="82,40 135,40 140,35 135,30 82,30 82,40 " style="fill:white; stroke-width:1; stroke:black; " description="&lt;b&gt;CONCODRAFT_83714&lt;/b&gt;&lt;br&gt;ARM repeat-containing protein&lt;br&gt;Location: 122270 - 127919" locus_tag="CONCODRAFT_83714" class="clusterblast-orf" id="dummy-1_q0_0_all"  />
<polygon points="149,40 153,40 158,35 153,30 149,30 149,40 " style="fill:white; stroke-width:1; stroke:black; " description="&lt;b&gt;CONCODRAFT_68583&lt;/b&gt;&lt;br&gt;isochorismatase domain-containing protein 2&lt;br&gt;Location: 128764 - 129647" locus_tag="CONCODRAFT_68583" class="clusterblast-orf" id="dummy-1_q1_0_all"  />
<polygon points="169,35 174,30 174,30 174,40 174,40 169,35 " style="fill:white; stroke-width:1; stroke:black; " description="&lt;b&gt;CONCODRAFT_4080&lt;/b&gt;&lt;br&gt;hypothetical protein&lt;br&gt;Location: 130713 - 131145" locus_tag="CONCODRAFT_4080" class="clusterblast-orf" id="dummy-1_q2_0_all"  />
<polygon points="210,35 212,30 212,40 210,35 " style="fill:white; stroke-width:1; stroke:black; " description="&lt;b&gt;CONCODRAFT_4081&lt;/b&gt;&lt;br&gt;hypothetical protein&lt;br&gt;Location: 134669 - 134835" locus_tag="CONCODRAFT_4081" class="clusterblast-orf" id="dummy-1_q3_0_all"  />
<polygon points="262,35 267,30 280,30 280,40 267,40 262,35 " style="fill:#d81515; stroke-width:1; stroke:black; " description="&lt;b&gt;CONCODRAFT_36233&lt;/b&gt;&lt;br&gt;acetyl-CoA synthetase-like protein&lt;br&gt;Location: 139699 - 141463" locus_tag="CONCODRAFT_36233" class="clusterblast-orf" id="dummy-1_q4_0_all"  />
<polygon points="280,35 285,30 448,30 448,40 285,40 280,35 " style="fill:#d81515; stroke-width:1; stroke:black; " description="&lt;b&gt;CONCODRAFT_36222&lt;/b&gt;&lt;br&gt;acetyl-CoA synthetase-like protein&lt;br&gt;Location: 141409 - 157663" locus_tag="CONCODRAFT_36222" class="clusterblast-orf" id="dummy-1_q5_0_all"  />
<polygon points="506,35 511,30 523,30 523,40 511,40 506,35 " style="fill:white; stroke-width:1; stroke:black; " description="&lt;b&gt;CONCODRAFT_4086&lt;/b&gt;&lt;br&gt;MFS general substrate transporter&lt;br&gt;Location: 163273 - 164947" locus_tag="CONCODRAFT_4086" class="clusterblast-orf" id="dummy-1_q6_0_all"  />
<polygon points="551,40 557,40 562,35 557,30 551,30 551,40 " style="fill:white; stroke-width:1; stroke:black; " description="&lt;b&gt;CONCODRAFT_83718&lt;/b&gt;&lt;br&gt;hypothetical protein&lt;br&gt;Location: 167647 - 168728" locus_tag="CONCODRAFT_83718" class="clusterblast-orf" id="dummy-1_q7_0_all"  />
<polygon points="567,35 572,30 591,30 591,40 572,40 567,35 " style="fill:white; stroke-width:1; stroke:black; " description="&lt;b&gt;CONCODRAFT_77510&lt;/b&gt;&lt;br&gt;hypothetical protein&lt;br&gt;Location: 169174 - 171445" locus_tag="CONCODRAFT_77510" class="clusterblast-orf" id="dummy-1_q8_0_all"  />
<polygon points="628,35 630,30 630,40 628,35 " style="fill:white; stroke-width:1; stroke:black; " description="&lt;b&gt;CONCODRAFT_4089&lt;/b&gt;&lt;br&gt;hypothetical protein&lt;br&gt;Location: 175046 - 175304" locus_tag="CONCODRAFT_4089" class="clusterblast-orf" id="dummy-1_q9_0_all"  />
<polygon points="667,40 676,40 681,35 676,30 667,30 667,40 " style="fill:white; stroke-width:1; stroke:black; " description="&lt;b&gt;CONCODRAFT_4090&lt;/b&gt;&lt;br&gt;MFS general substrate transporter&lt;br&gt;Location: 178859 - 180143" locus_tag="CONCODRAFT_4090" class="clusterblast-orf" id="dummy-1_q10_0_all"  />
<polygon points="695,40 697,35 695,30 695,40 " style="fill:white; stroke-width:1; stroke:black; " description="&lt;b&gt;CONCODRAFT_4091&lt;/b&gt;&lt;br&gt;hypothetical protein&lt;br&gt;Location: 181534 - 181771" locus_tag="CONCODRAFT_4091" class="clusterblast-orf" id="dummy-1_q11_0_all"  />
</g>
<g label="NZ_CP018620" description="NZ_CP018620 (6824096-6905124): Paenibacillus xylanexedens strain PAMC 22703 c... (6% of genes show similarity), NRPS" class="clusterblast-cluster"  >
<text x="5" y="70" class="clusterblast-acc"  >
<a xlink:href="https://antismash-db.secondarymetabolites.org/area.html?record=NZ_CP018620&amp;start=6824096&amp;end=6905124" target="_blank">NZ_CP018620 (6824096-6905124)</a>: Paenibacillus xylanexedens strain PAMC 22703 c... (6% of genes show similarity), NRPS</text>
<line x1="10" y1="85" x2="778.0" y2="85" style="stroke-width:1; stroke:grey; "  />
</g>
<g id="a1_000"  >
<polygon points="0,90 2,90 7,85 2,80 0,80 0,90 " style="fill:white; stroke-width:1; stroke:black; " description="&lt;b&gt;BS614_RS29835&lt;/b&gt;&lt;br&gt;response regulator transcription factor&lt;br&gt;Location: 6824937 - 6825635" locus_tag="BS614_RS29835" class="clusterblast-orf" id="dummy-1_h1_4_0"  />
</g>
<g id="a1_001"  >
<polygon points="7,90 17,90 22,85 17,80 7,80 7,90 " style="fill:white; stroke-width:1; stroke:black; " description="&lt;b&gt;BS614_RS29840&lt;/b&gt;&lt;br&gt;HAMP domain-containing protein&lt;br&gt;Location: 6825656 - 6827098" locus_tag="BS614_RS29840" class="clusterblast-orf" id="dummy-1_h1_4_1"  />
</g>
<g id="a1_002"  >
<polygon points="23,90 26,90 31,85 26,80 23,80 23,90 " style="fill:white; stroke-width:1; stroke:black; " description="&lt;b&gt;BS614_RS29845&lt;/b&gt;&lt;br&gt;ABC transporter ATP-binding protein&lt;br&gt;Location: 6827202 - 6827960" locus_tag="BS614_RS29845" class="clusterblast-orf" id="dummy-1_h1_4_2"  />
</g>
<g id="a1_003"  >
<polygon points="31,90 51,90 56,85 51,80 31,80 31,90 " style="fill:white; stroke-width:1; stroke:black; " description="&lt;b&gt;BS614_RS29850&lt;/b&gt;&lt;br&gt;FtsX-like permease family protein&lt;br&gt;Location: 6827963 - 6830365" locus_tag="BS614_RS29850" class="clusterblast-orf" id="dummy-1_h1_4_3"  />
</g>
<g id="a1_004"  >
<polygon points="57,85 62,80 68,80 68,90 62,90 57,85 " style="fill:white; stroke-width:1; stroke:black; " description="&lt;b&gt;BS614_RS29855&lt;/b&gt;&lt;br&gt;homocysteine S-methyltransferase&lt;br&gt;Location: 6830449 - 6831516" locus_tag="BS614_RS29855" class="clusterblast-orf" id="dummy-1_h1_4_4"  />
</g>
<g id="a1_005"  >
<polygon points="67,85 72,80 82,80 82,90 72,90 67,85 " style="fill:white; stroke-width:1; stroke:black; " description="&lt;b&gt;BS614_RS29860&lt;/b&gt;&lt;br&gt;S-methylmethionine permease&lt;br&gt;Location: 6831494 - 6832906" locus_tag="BS614_RS29860" class="clusterblast-orf" id="dummy-1_h1_4_5"  />
</g>
<g id="a1_006"  >
<polygon points="85,85 90,80 97,80 97,90 90,90 85,85 " style="fill:white; stroke-width:1; stroke:black; " description="&lt;b&gt;BS614_RS29865&lt;/b&gt;&lt;br&gt;Ger(x)C family spore germination protein&lt;br&gt;Location: 6833171 - 6834373" locus_tag="BS614_RS29865" class="clusterblast-orf" id="dummy-1_h1_4_6"  />
</g>
<g id="a1_007"  >
<polygon points="97,85 102,80 108,80 108,90 102,90 97,85 " style="fill:white; stroke-width:1; stroke:black; " description="&lt;b&gt;BS614_RS29870&lt;/b&gt;&lt;br&gt;GerAB/ArcD/ProY family transporter&lt;br&gt;Location: 6834370 - 6835470" locus_tag="BS614_RS29870" class="clusterblast-orf" id="dummy-1_h1_4_7"  />
</g>
<g id="a1_008"  >
<polygon points="109,85 114,80 127,80 127,90 114,90 109,85 " style="fill:white; stroke-width:1; stroke:black; " description="&lt;b&gt;BS614_RS29875&lt;/b&gt;&lt;br&gt;spore germination protein&lt;br&gt;Location: 6835509 - 6837221" locus_tag="BS614_RS29875" class="clusterblast-orf" id="dummy-1_h1_4_8"  />
</g>
<g id="a1_009"  >
<polygon points="128,85 133,80 138,80 138,90 133,90 128,85 " style="fill:white; stroke-width:1; stroke:black; " description="&lt;b&gt;BS614_RS29880&lt;/b&gt;&lt;br&gt;PAS domain-containing methyl-accepting chemotaxis protein&lt;br&gt;Location: 6837373 - 6838278" locus_tag="BS614_RS29880" class="clusterblast-orf" id="dummy-1_h1_4_9"  />
</g>
<g id="a1_0010"  >
<polygon points="143,85 148,80 148,80 148,90 148,90 143,85 " style="fill:white; stroke-width:1; stroke:black; " description="&lt;b&gt;BS614_RS29885&lt;/b&gt;&lt;br&gt;glyoxalase&lt;br&gt;Location: 6838765 - 6839286" locus_tag="BS614_RS29885" class="clusterblast-orf" id="dummy-1_h1_4_10"  />
</g>
<g id="a1_0011"  >
<polygon points="150,85 155,80 155,80 155,90 155,90 150,85 " style="fill:white; stroke-width:1; stroke:black; " description="&lt;b&gt;BS614_RS29890&lt;/b&gt;&lt;br&gt;VOC family protein&lt;br&gt;Location: 6839519 - 6839962" locus_tag="BS614_RS29890" class="clusterblast-orf" id="dummy-1_h1_4_11"  />
</g>
<g id="a1_0012"  >
<polygon points="156,90 161,90 166,85 161,80 156,80 156,90 " style="fill:white; stroke-width:1; stroke:black; " description="&lt;b&gt;BS614_RS29895&lt;/b&gt;&lt;br&gt;YafY family transcriptional regulator&lt;br&gt;Location: 6840050 - 6841018" locus_tag="BS614_RS29895" class="clusterblast-orf" id="dummy-1_h1_4_12"  />
</g>
<g id="a1_0013"  >
<polygon points="166,85 171,80 178,80 178,90 171,90 166,85 " style="fill:white; stroke-width:1; stroke:black; " description="&lt;b&gt;BS614_RS29900&lt;/b&gt;&lt;br&gt;MFS transporter&lt;br&gt;Location: 6841057 - 6842238" locus_tag="BS614_RS29900" class="clusterblast-orf" id="dummy-1_h1_4_13"  />
</g>
<g id="a1_0014"  >
<polygon points="180,90 184,90 189,85 184,80 180,80 180,90 " style="fill:white; stroke-width:1; stroke:black; " description="&lt;b&gt;BS614_RS29905&lt;/b&gt;&lt;br&gt;LysR family transcriptional regulator&lt;br&gt;Location: 6842407 - 6843288" locus_tag="BS614_RS29905" class="clusterblast-orf" id="dummy-1_h1_4_14"  />
</g>
<g id="a1_0015"  >
<polygon points="190,90 192,90 197,85 192,80 190,80 190,90 " style="fill:white; stroke-width:1; stroke:black; " description="&lt;b&gt;BS614_RS29910&lt;/b&gt;&lt;br&gt;hypothetical protein&lt;br&gt;Location: 6843310 - 6843984" locus_tag="BS614_RS29910" class="clusterblast-orf" id="dummy-1_h1_4_15"  />
</g>
<g id="a1_0016"  >
<polygon points="198,85 203,80 393,80 393,90 203,90 198,85 " style="fill:white; stroke-width:1; stroke:black; " description="&lt;b&gt;BS614_RS29915&lt;/b&gt;&lt;br&gt;non-ribosomal peptide synthetase&lt;br&gt;Location: 6844097 - 6862999" locus_tag="BS614_RS29915" class="clusterblast-orf" id="dummy-1_h1_4_16"  />
</g>
<g id="a1_0017"  >
<polygon points="394,85 399,80 412,80 412,90 399,90 394,85 " style="fill:white; stroke-width:1; stroke:black; " description="&lt;b&gt;BS614_RS29920&lt;/b&gt;&lt;br&gt;ABC transporter ATP-binding protein&lt;br&gt;Location: 6863085 - 6864818" locus_tag="BS614_RS29920" class="clusterblast-orf" id="dummy-1_h1_4_17"  />
</g>
<g id="a1_0018"  >
<polygon points="412,85 417,80 431,80 431,90 417,90 412,85 " style="fill:white; stroke-width:1; stroke:black; " description="&lt;b&gt;BS614_RS29925&lt;/b&gt;&lt;br&gt;ABC transporter ATP-binding protein&lt;br&gt;Location: 6864815 - 6866641" locus_tag="BS614_RS29925" class="clusterblast-orf" id="dummy-1_h1_4_18"  />
</g>
<g id="a1_0019"  >
<polygon points="431,85 436,80 465,80 465,90 436,90 431,85 " style="fill:#d81515; stroke-width:1; stroke:black; " description="&lt;b&gt;BS614_RS29930&lt;/b&gt;&lt;br&gt;non-ribosomal peptide synthetase&lt;br&gt;Location: 6866631 - 6869909&lt;br&gt;&lt;br&gt;&lt;b&gt;BlastP hit with CONCODRAFT_36233&lt;/b&gt;&lt;br&gt;Percentage identity: 32&lt;br&gt;Percentage coverage: 86&lt;br&gt;BLAST bit score: 228&lt;br&gt;E-value: 2.3e-57&lt;br&gt;&lt;br&gt;&lt;b&gt;BlastP hit with CONCODRAFT_36222&lt;/b&gt;&lt;br&gt;Percentage identity: 31&lt;br&gt;Percentage coverage: 51&lt;br&gt;BLAST bit score: 256&lt;br&gt;E-value: 1.5e-65" locus_tag="BS614_RS29930" class="clusterblast-orf" id="dummy-1_h1_4_19"  />
</g>
<g id="a1_0020"  >
<polygon points="466,85 471,80 622,80 622,90 471,90 466,85 " style="fill:#d81515; stroke-width:1; stroke:black; " description="&lt;b&gt;BS614_RS29935&lt;/b&gt;&lt;br&gt;non-ribosomal peptide synthetase&lt;br&gt;Location: 6870062 - 6885124&lt;br&gt;&lt;br&gt;&lt;b&gt;BlastP hit with CONCODRAFT_36233&lt;/b&gt;&lt;br&gt;Percentage identity: 31&lt;br&gt;Percentage coverage: 97&lt;br&gt;BLAST bit score: 219&lt;br&gt;E-value: 8.1e-55" locus_tag="BS614_RS29935" class="clusterblast-orf" id="dummy-1_h1_4_20"  />
</g>
<g id="a1_0021"  >
<polygon points="629,85 634,80 643,80 643,90 634,90 629,85 " style="fill:white; stroke-width:1; stroke:black; " description="&lt;b&gt;BS614_RS29940&lt;/b&gt;&lt;br&gt;diaminobutyrate--2-oxoglutarate transaminase&lt;br&gt;Location: 6885813 - 6887096" locus_tag="BS614_RS29940" class="clusterblast-orf" id="dummy-1_h1_4_21"  />
</g>
<g id="a1_0022"  >
<polygon points="656,85 661,80 675,80 675,90 661,90 656,85 " style="fill:white; stroke-width:1; stroke:black; " description="&lt;b&gt;BS614_RS29950&lt;/b&gt;&lt;br&gt;glutamine--fructose-6-phosphate transaminase (isomerizing)&lt;br&gt;Location: 6888401 - 6890233" locus_tag="BS614_RS29950" class="clusterblast-orf" id="dummy-1_h1_4_22"  />
</g>
<g id="a1_0023"  >
<polygon points="683,85 688,80 697,80 697,90 688,90 683,85 " style="fill:white; stroke-width:1; stroke:black; " description="&lt;b&gt;BS614_RS29955&lt;/b&gt;&lt;br&gt;phosphoglucosamine mutase&lt;br&gt;Location: 6890984 - 6892324" locus_tag="BS614_RS29955" class="clusterblast-orf" id="dummy-1_h1_4_23"  />
</g>
<g id="a1_0024"  >
<polygon points="697,85 702,80 713,80 713,90 702,90 697,85 " style="fill:white; stroke-width:1; stroke:black; " description="&lt;b&gt;BS614_RS29960&lt;/b&gt;&lt;br&gt;hypothetical protein&lt;br&gt;Location: 6892398 - 6893891" locus_tag="BS614_RS29960" class="clusterblast-orf" id="dummy-1_h1_4_24"  />
</g>
<g id="a1_0025"  >
<polygon points="713,85 718,80 721,80 721,90 718,90 713,85 " style="fill:white; stroke-width:1; stroke:black; " description="&lt;b&gt;BS614_RS29965&lt;/b&gt;&lt;br&gt;TIGR00159 family protein&lt;br&gt;Location: 6893884 - 6894720" locus_tag="BS614_RS29965" class="clusterblast-orf" id="dummy-1_h1_4_25"  />
</g>
<g id="a1_0026"  >
<polygon points="725,85 730,80 731,80 731,90 730,90 725,85 " style="fill:white; stroke-width:1; stroke:black; " description="&lt;b&gt;BS614_RS29970&lt;/b&gt;&lt;br&gt;anti-sigma W factor&lt;br&gt;Location: 6895036 - 6895650" locus_tag="BS614_RS29970" class="clusterblast-orf" id="dummy-1_h1_4_26"  />
</g>
<g id="a1_0027"  >
<polygon points="732,85 737,80 738,80 738,90 737,90 732,85 " style="fill:white; stroke-width:1; stroke:black; " description="&lt;b&gt;BS614_RS29975&lt;/b&gt;&lt;br&gt;RNA polymerase sigma factor SigW&lt;br&gt;Location: 6895787 - 6896353" locus_tag="BS614_RS29975" class="clusterblast-orf" id="dummy-1_h1_4_27"  />
</g>
<g id="a1_0028"  >
<polygon points="741,85 746,80 770,80 770,90 746,90 741,85 " style="fill:white; stroke-width:1; stroke:black; " description="&lt;b&gt;BS614_RS29980&lt;/b&gt;&lt;br&gt;phosphoenolpyruvate carboxylase&lt;br&gt;Location: 6896614 - 6899406" locus_tag="BS614_RS29980" class="clusterblast-orf" id="dummy-1_h1_4_28"  />
</g>
<g id="a1_0029"  >
<polygon points="777,90 780,85 777,80 777,90 " style="fill:white; stroke-width:1; stroke:black; " description="&lt;b&gt;BS614_RS29985&lt;/b&gt;&lt;br&gt;WGxxGxxG-CTERM domain-containing protein&lt;br&gt;Location: 6900065 - 6900331" locus_tag="BS614_RS29985" class="clusterblast-orf" id="dummy-1_h1_4_29"  />
</g>
</svg>
