<svg xmlns="http://www.w3.org/2000/svg" xmlns:xlink="http://www.w3.org/1999/xlink" version="1.1" x="0" y="0" height="50" width="800" viewBox="0 0 800 50" preserveAspectRatio="none"  >
<g label="Query sequence" class="clusterblast-cluster"  >
<text x="5" y="20" class="clusterblast-acc"  >
Query sequence</text>
<line x1="10" y1="35" x2="778.0" y2="35" style="stroke-width:1; stroke:grey; "  />
<polygon points="0,40 36,40 41,35 36,30 0,30 0,40 " style="fill:white; stroke-width:1; stroke:black; " description="&lt;b&gt;CONCODRAFT_30300&lt;/b&gt;&lt;br&gt;Zn-dependent exopeptidase&lt;br&gt;Location: 243547 - 244513" locus_tag="CONCODRAFT_30300" class="clusterblast-orf" id="knownclusterblast-1_q0_0_all"  />
<polygon points="184,40 225,40 230,35 225,30 184,30 184,40 " style="fill:white; stroke-width:1; stroke:black; " description="&lt;b&gt;CONCODRAFT_74851&lt;/b&gt;&lt;br&gt;galactose oxidase&lt;br&gt;Location: 247876 - 248963" locus_tag="CONCODRAFT_74851" class="clusterblast-orf" id="knownclusterblast-1_q1_0_all"  />
<polygon points="297,40 353,40 358,35 353,30 297,30 297,40 " style="fill:white; stroke-width:1; stroke:black; " description="&lt;b&gt;CONCODRAFT_76799&lt;/b&gt;&lt;br&gt;hypothetical protein&lt;br&gt;Location: 250531 - 251959" locus_tag="CONCODRAFT_76799" class="clusterblast-orf" id="knownclusterblast-1_q2_0_all"  />
<polygon points="379,40 427,40 432,35 427,30 379,30 379,40 " style="fill:white; stroke-width:1; stroke:black; " description="&lt;b&gt;CONCODRAFT_54479&lt;/b&gt;&lt;br&gt;hypothetical protein&lt;br&gt;Location: 252460 - 253698" locus_tag="CONCODRAFT_54479" class="clusterblast-orf" id="knownclusterblast-1_q3_0_all"  />
<polygon points="441,40 495,40 500,35 495,30 441,30 441,40 " style="fill:white; stroke-width:1; stroke:black; " description="&lt;b&gt;CONCODRAFT_34556&lt;/b&gt;&lt;br&gt;hypothetical protein&lt;br&gt;Location: 253901 - 255297" locus_tag="CONCODRAFT_34556" class="clusterblast-orf" id="knownclusterblast-1_q4_0_all"  />
<polygon points="519,35 524,30 591,30 591,40 524,40 519,35 " style="fill:white; stroke-width:1; stroke:black; " description="&lt;b&gt;CONCODRAFT_76800&lt;/b&gt;&lt;br&gt;splicing factor 3A subunit 3-like protein&lt;br&gt;Location: 255737 - 257428" locus_tag="CONCODRAFT_76800" class="clusterblast-orf" id="knownclusterblast-1_q5_0_all"  />
<polygon points="599,40 617,40 622,35 617,30 599,30 599,40 " style="fill:white; stroke-width:1; stroke:black; " description="&lt;b&gt;CONCODRAFT_14725&lt;/b&gt;&lt;br&gt;biogenesis of lysosome-related organelles complex-1 subunit 1&lt;br&gt;Location: 257617 - 258170" locus_tag="CONCODRAFT_14725" class="clusterblast-orf" id="knownclusterblast-1_q6_0_all"  />
<polygon points="624,35 629,30 780,30 780,40 629,40 624,35 " style="fill:white; stroke-width:1; stroke:black; " description="&lt;b&gt;CONCODRAFT_67431&lt;/b&gt;&lt;br&gt;hypothetical protein&lt;br&gt;Location: 258201 - 261869" locus_tag="CONCODRAFT_67431" class="clusterblast-orf" id="knownclusterblast-1_q7_0_all"  />
</g>
</svg>
