<svg xmlns="http://www.w3.org/2000/svg" xmlns:xlink="http://www.w3.org/1999/xlink" version="1.1" x="0" y="0" height="50" width="800" viewBox="0 0 800 50" preserveAspectRatio="none"  >
<g label="Query sequence" class="clusterblast-cluster"  >
<text x="5" y="20" class="clusterblast-acc"  >
Query sequence</text>
<line x1="10" y1="35" x2="778.0" y2="35" style="stroke-width:1; stroke:grey; "  />
<polygon points="0,40 6,40 11,35 6,30 0,30 0,40 " style="fill:white; stroke-width:1; stroke:black; " description="&lt;b&gt;CONCODRAFT_77142&lt;/b&gt;&lt;br&gt;hypothetical protein&lt;br&gt;Location: 158210 - 158778" locus_tag="CONCODRAFT_77142" class="clusterblast-orf" id="knownclusterblast-1_q0_0_all"  />
<polygon points="18,40 24,40 29,35 24,30 18,30 18,40 " style="fill:white; stroke-width:1; stroke:black; " description="&lt;b&gt;CONCODRAFT_77143&lt;/b&gt;&lt;br&gt;hypothetical protein&lt;br&gt;Location: 159153 - 159711" locus_tag="CONCODRAFT_77143" class="clusterblast-orf" id="knownclusterblast-1_q1_0_all"  />
<polygon points="102,35 107,30 117,30 117,40 107,40 102,35 " style="fill:white; stroke-width:1; stroke:black; " description="&lt;b&gt;CONCODRAFT_77144&lt;/b&gt;&lt;br&gt;hypothetical protein&lt;br&gt;Location: 163435 - 164227" locus_tag="CONCODRAFT_77144" class="clusterblast-orf" id="knownclusterblast-1_q2_0_all"  />
<polygon points="273,40 413,40 418,35 413,30 273,30 273,40 " style="fill:white; stroke-width:1; stroke:black; " description="&lt;b&gt;CONCODRAFT_3129&lt;/b&gt;&lt;br&gt;acetyl-CoA synthetase-like protein&lt;br&gt;Location: 172207 - 179613" locus_tag="CONCODRAFT_3129" class="clusterblast-orf" id="knownclusterblast-1_q3_0_all"  />
<polygon points="430,35 435,30 452,30 452,40 435,40 430,35 " style="fill:white; stroke-width:1; stroke:black; " description="&lt;b&gt;CONCODRAFT_83265&lt;/b&gt;&lt;br&gt;hypothetical protein&lt;br&gt;Location: 180262 - 181380" locus_tag="CONCODRAFT_83265" class="clusterblast-orf" id="knownclusterblast-1_q4_0_all"  />
<polygon points="464,40 511,40 516,35 511,30 464,30 464,40 " style="fill:white; stroke-width:1; stroke:black; " description="&lt;b&gt;CONCODRAFT_74978&lt;/b&gt;&lt;br&gt;gtp-binding protein lepa&lt;br&gt;Location: 181984 - 184666" locus_tag="CONCODRAFT_74978" class="clusterblast-orf" id="knownclusterblast-1_q5_0_all"  />
<polygon points="522,40 548,40 553,35 548,30 522,30 522,40 " style="fill:white; stroke-width:1; stroke:black; " description="&lt;b&gt;CONCODRAFT_98917&lt;/b&gt;&lt;br&gt;hypothetical protein&lt;br&gt;Location: 184939 - 186524" locus_tag="CONCODRAFT_98917" class="clusterblast-orf" id="knownclusterblast-1_q6_0_all"  />
<polygon points="555,35 560,30 567,30 567,40 560,40 555,35 " style="fill:white; stroke-width:1; stroke:black; " description="&lt;b&gt;CONCODRAFT_77145&lt;/b&gt;&lt;br&gt;hypothetical protein&lt;br&gt;Location: 186661 - 187270" locus_tag="CONCODRAFT_77145" class="clusterblast-orf" id="knownclusterblast-1_q7_0_all"  />
<polygon points="595,35 600,30 606,30 606,40 600,40 595,35 " style="fill:white; stroke-width:1; stroke:black; " description="&lt;b&gt;CONCODRAFT_3134&lt;/b&gt;&lt;br&gt;hypothetical protein&lt;br&gt;Location: 188675 - 189282" locus_tag="CONCODRAFT_3134" class="clusterblast-orf" id="knownclusterblast-1_q8_0_all"  />
<polygon points="624,35 629,30 687,30 687,40 629,40 624,35 " style="fill:white; stroke-width:1; stroke:black; " description="&lt;b&gt;CONCODRAFT_83268&lt;/b&gt;&lt;br&gt;Cse1-domain-containing protein&lt;br&gt;Location: 190199 - 193413" locus_tag="CONCODRAFT_83268" class="clusterblast-orf" id="knownclusterblast-1_q9_0_all"  />
<polygon points="712,40 720,40 725,35 720,30 712,30 712,40 " style="fill:white; stroke-width:1; stroke:black; " description="&lt;b&gt;CONCODRAFT_15222&lt;/b&gt;&lt;br&gt;hypothetical protein&lt;br&gt;Location: 194664 - 195327" locus_tag="CONCODRAFT_15222" class="clusterblast-orf" id="knownclusterblast-1_q10_0_all"  />
<polygon points="739,35 744,30 780,30 780,40 744,40 739,35 " style="fill:white; stroke-width:1; stroke:black; " description="&lt;b&gt;CONCODRAFT_3137&lt;/b&gt;&lt;br&gt;hypothetical protein&lt;br&gt;Location: 196073 - 198152" locus_tag="CONCODRAFT_3137" class="clusterblast-orf" id="knownclusterblast-1_q11_0_all"  />
</g>
</svg>
