<svg xmlns="http://www.w3.org/2000/svg" xmlns:xlink="http://www.w3.org/1999/xlink" version="1.1" x="0" y="0" height="50" width="800" viewBox="0 0 800 50" preserveAspectRatio="none"  >
<g label="Query sequence" class="clusterblast-cluster"  >
<text x="5" y="20" class="clusterblast-acc"  >
Query sequence</text>
<line x1="10" y1="35" x2="778.0" y2="35" style="stroke-width:1; stroke:grey; "  />
<polygon points="0,35 5,30 12,30 12,40 5,40 0,35 " style="fill:white; stroke-width:1; stroke:black; " description="&lt;b&gt;CONCODRAFT_1858&lt;/b&gt;&lt;br&gt;hypothetical protein&lt;br&gt;Location: 365609 - 366427" locus_tag="CONCODRAFT_1858" class="clusterblast-orf" id="subclusterblast-1_q0_0_all"  />
<polygon points="31,40 36,40 41,35 36,30 31,30 31,40 " style="fill:white; stroke-width:1; stroke:black; " description="&lt;b&gt;CONCODRAFT_76567&lt;/b&gt;&lt;br&gt;hypothetical protein&lt;br&gt;Location: 367695 - 368336" locus_tag="CONCODRAFT_76567" class="clusterblast-orf" id="subclusterblast-1_q1_0_all"  />
<polygon points="108,40 126,40 131,35 126,30 108,30 108,40 " style="fill:white; stroke-width:1; stroke:black; " description="&lt;b&gt;CONCODRAFT_14398&lt;/b&gt;&lt;br&gt;MFS general substrate transporter&lt;br&gt;Location: 372799 - 374301" locus_tag="CONCODRAFT_14398" class="clusterblast-orf" id="subclusterblast-1_q2_0_all"  />
<polygon points="201,40 271,40 276,35 271,30 201,30 201,40 " style="fill:white; stroke-width:1; stroke:black; " description="&lt;b&gt;CONCODRAFT_67076&lt;/b&gt;&lt;br&gt;hypothetical protein&lt;br&gt;Location: 378993 - 383982" locus_tag="CONCODRAFT_67076" class="clusterblast-orf" id="subclusterblast-1_q3_0_all"  />
<polygon points="326,35 331,30 367,30 367,40 331,40 326,35 " style="fill:white; stroke-width:1; stroke:black; " description="&lt;b&gt;CONCODRAFT_14399&lt;/b&gt;&lt;br&gt;hypothetical protein&lt;br&gt;Location: 387298 - 389984" locus_tag="CONCODRAFT_14399" class="clusterblast-orf" id="subclusterblast-1_q4_0_all"  />
<polygon points="388,40 389,40 394,35 389,30 388,30 388,40 " style="fill:white; stroke-width:1; stroke:black; " description="&lt;b&gt;CONCODRAFT_1863&lt;/b&gt;&lt;br&gt;hypothetical protein&lt;br&gt;Location: 391400 - 391814" locus_tag="CONCODRAFT_1863" class="clusterblast-orf" id="subclusterblast-1_q5_0_all"  />
<polygon points="423,40 483,40 488,35 483,30 423,30 423,40 " style="fill:white; stroke-width:1; stroke:black; " description="&lt;b&gt;CONCODRAFT_165311&lt;/b&gt;&lt;br&gt;large subunit of L-aminoadipate-semialdehyde dehydrogenase&lt;br&gt;Location: 393711 - 398028" locus_tag="CONCODRAFT_165311" class="clusterblast-orf" id="subclusterblast-1_q6_0_all"  />
<polygon points="489,35 494,30 515,30 515,40 494,40 489,35 " style="fill:white; stroke-width:1; stroke:black; " description="&lt;b&gt;CONCODRAFT_1865&lt;/b&gt;&lt;br&gt;hypothetical protein&lt;br&gt;Location: 398119 - 399843" locus_tag="CONCODRAFT_1865" class="clusterblast-orf" id="subclusterblast-1_q7_0_all"  />
<polygon points="530,35 535,30 545,30 545,40 535,40 530,35 " style="fill:white; stroke-width:1; stroke:black; " description="&lt;b&gt;CONCODRAFT_1866&lt;/b&gt;&lt;br&gt;hypothetical protein&lt;br&gt;Location: 400825 - 401847" locus_tag="CONCODRAFT_1866" class="clusterblast-orf" id="subclusterblast-1_q8_0_all"  />
<polygon points="590,35 595,30 613,30 613,40 595,40 590,35 " style="fill:white; stroke-width:1; stroke:black; " description="&lt;b&gt;CONCODRAFT_33953&lt;/b&gt;&lt;br&gt;hypothetical protein&lt;br&gt;Location: 404811 - 406301" locus_tag="CONCODRAFT_33953" class="clusterblast-orf" id="subclusterblast-1_q9_0_all"  />
<polygon points="661,40 669,40 674,35 669,30 661,30 661,40 " style="fill:white; stroke-width:1; stroke:black; " description="&lt;b&gt;CONCODRAFT_54059&lt;/b&gt;&lt;br&gt;40S ribosomal protein S9&lt;br&gt;Location: 409498 - 410376" locus_tag="CONCODRAFT_54059" class="clusterblast-orf" id="subclusterblast-1_q10_0_all"  />
<polygon points="740,40 754,40 759,35 754,30 740,30 740,40 " style="fill:white; stroke-width:1; stroke:black; " description="&lt;b&gt;CONCODRAFT_14402&lt;/b&gt;&lt;br&gt;hypothetical protein&lt;br&gt;Location: 414758 - 416040" locus_tag="CONCODRAFT_14402" class="clusterblast-orf" id="subclusterblast-1_q11_0_all"  />
<polygon points="764,35 769,30 780,30 780,40 769,40 764,35 " style="fill:white; stroke-width:1; stroke:black; " description="&lt;b&gt;CONCODRAFT_82601&lt;/b&gt;&lt;br&gt;hypothetical protein&lt;br&gt;Location: 416341 - 417394" locus_tag="CONCODRAFT_82601" class="clusterblast-orf" id="subclusterblast-1_q12_0_all"  />
</g>
</svg>
