<svg xmlns="http://www.w3.org/2000/svg" xmlns:xlink="http://www.w3.org/1999/xlink" version="1.1" x="0" y="0" height="50" width="800" viewBox="0 0 800 50" preserveAspectRatio="none"  >
<g label="Query sequence" class="clusterblast-cluster"  >
<text x="5" y="20" class="clusterblast-acc"  >
Query sequence</text>
<line x1="10" y1="35" x2="778.0" y2="35" style="stroke-width:1; stroke:grey; "  />
<polygon points="0,40 69,40 74,35 69,30 0,30 0,40 " style="fill:white; stroke-width:1; stroke:black; " description="&lt;b&gt;CONCODRAFT_83714&lt;/b&gt;&lt;br&gt;ARM repeat-containing protein&lt;br&gt;Location: 122270 - 127919" locus_tag="CONCODRAFT_83714" class="clusterblast-orf" id="subclusterblast-1_q0_0_all"  />
<polygon points="85,40 91,40 96,35 91,30 85,30 85,40 " style="fill:white; stroke-width:1; stroke:black; " description="&lt;b&gt;CONCODRAFT_68583&lt;/b&gt;&lt;br&gt;isochorismatase domain-containing protein 2&lt;br&gt;Location: 128764 - 129647" locus_tag="CONCODRAFT_68583" class="clusterblast-orf" id="subclusterblast-1_q1_0_all"  />
<polygon points="110,35 115,30 116,30 116,40 115,40 110,35 " style="fill:white; stroke-width:1; stroke:black; " description="&lt;b&gt;CONCODRAFT_4080&lt;/b&gt;&lt;br&gt;hypothetical protein&lt;br&gt;Location: 130713 - 131145" locus_tag="CONCODRAFT_4080" class="clusterblast-orf" id="subclusterblast-1_q2_0_all"  />
<polygon points="162,35 164,30 164,40 162,35 " style="fill:white; stroke-width:1; stroke:black; " description="&lt;b&gt;CONCODRAFT_4081&lt;/b&gt;&lt;br&gt;hypothetical protein&lt;br&gt;Location: 134669 - 134835" locus_tag="CONCODRAFT_4081" class="clusterblast-orf" id="subclusterblast-1_q3_0_all"  />
<polygon points="228,35 233,30 251,30 251,40 233,40 228,35 " style="fill:white; stroke-width:1; stroke:black; " description="&lt;b&gt;CONCODRAFT_36233&lt;/b&gt;&lt;br&gt;acetyl-CoA synthetase-like protein&lt;br&gt;Location: 139699 - 141463" locus_tag="CONCODRAFT_36233" class="clusterblast-orf" id="subclusterblast-1_q4_0_all"  />
<polygon points="251,35 256,30 464,30 464,40 256,40 251,35 " style="fill:white; stroke-width:1; stroke:black; " description="&lt;b&gt;CONCODRAFT_36222&lt;/b&gt;&lt;br&gt;acetyl-CoA synthetase-like protein&lt;br&gt;Location: 141409 - 157663" locus_tag="CONCODRAFT_36222" class="clusterblast-orf" id="subclusterblast-1_q5_0_all"  />
<polygon points="537,35 542,30 559,30 559,40 542,40 537,35 " style="fill:white; stroke-width:1; stroke:black; " description="&lt;b&gt;CONCODRAFT_4086&lt;/b&gt;&lt;br&gt;MFS general substrate transporter&lt;br&gt;Location: 163273 - 164947" locus_tag="CONCODRAFT_4086" class="clusterblast-orf" id="subclusterblast-1_q6_0_all"  />
<polygon points="594,40 604,40 609,35 604,30 594,30 594,40 " style="fill:white; stroke-width:1; stroke:black; " description="&lt;b&gt;CONCODRAFT_83718&lt;/b&gt;&lt;br&gt;hypothetical protein&lt;br&gt;Location: 167647 - 168728" locus_tag="CONCODRAFT_83718" class="clusterblast-orf" id="subclusterblast-1_q7_0_all"  />
<polygon points="614,35 619,30 644,30 644,40 619,40 614,35 " style="fill:white; stroke-width:1; stroke:black; " description="&lt;b&gt;CONCODRAFT_77510&lt;/b&gt;&lt;br&gt;hypothetical protein&lt;br&gt;Location: 169174 - 171445" locus_tag="CONCODRAFT_77510" class="clusterblast-orf" id="subclusterblast-1_q8_0_all"  />
<polygon points="691,35 695,30 695,40 691,35 " style="fill:white; stroke-width:1; stroke:black; " description="&lt;b&gt;CONCODRAFT_4089&lt;/b&gt;&lt;br&gt;hypothetical protein&lt;br&gt;Location: 175046 - 175304" locus_tag="CONCODRAFT_4089" class="clusterblast-orf" id="subclusterblast-1_q9_0_all"  />
<polygon points="741,40 753,40 758,35 753,30 741,30 741,40 " style="fill:white; stroke-width:1; stroke:black; " description="&lt;b&gt;CONCODRAFT_4090&lt;/b&gt;&lt;br&gt;MFS general substrate transporter&lt;br&gt;Location: 178859 - 180143" locus_tag="CONCODRAFT_4090" class="clusterblast-orf" id="subclusterblast-1_q10_0_all"  />
<polygon points="777,40 780,35 777,30 777,40 " style="fill:white; stroke-width:1; stroke:black; " description="&lt;b&gt;CONCODRAFT_4091&lt;/b&gt;&lt;br&gt;hypothetical protein&lt;br&gt;Location: 181534 - 181771" locus_tag="CONCODRAFT_4091" class="clusterblast-orf" id="subclusterblast-1_q11_0_all"  />
</g>
</svg>
