<svg xmlns="http://www.w3.org/2000/svg" xmlns:xlink="http://www.w3.org/1999/xlink" version="1.1" x="0" y="0" height="230" width="800" viewBox="0 0 800 230" preserveAspectRatio="none"  >
<g label="Query sequence" class="clusterblast-cluster"  >
<text x="5" y="20" class="clusterblast-acc"  >
Query sequence</text>
<line x1="10" y1="35" x2="778.0" y2="35" style="stroke-width:1; stroke:grey; "  />
<polygon points="0,35 2,30 2,40 0,35 " style="fill:white; stroke-width:1; stroke:black; " description="&lt;b&gt;gene_1859&lt;/b&gt;&lt;br&gt;hypothetical protein&lt;br&gt;Location: 143882 - 144644" locus_tag="gene_1859" class="clusterblast-orf" id="dummy-1_q0_0_all"  />
<polygon points="2,35 7,30 11,30 11,40 7,40 2,35 " style="fill:white; stroke-width:1; stroke:black; " description="&lt;b&gt;gene_1860&lt;/b&gt;&lt;br&gt;hypothetical protein&lt;br&gt;Location: 144867 - 147678" locus_tag="gene_1860" class="clusterblast-orf" id="dummy-1_q1_0_all"  />
<polygon points="75,35 80,30 83,30 83,40 80,40 75,35 " style="fill:white; stroke-width:1; stroke:black; " description="&lt;b&gt;gene_1861&lt;/b&gt;&lt;br&gt;hypothetical protein&lt;br&gt;Location: 169851 - 172635" locus_tag="gene_1861" class="clusterblast-orf" id="dummy-1_q2_0_all"  />
<polygon points="258,40 258,40 263,35 258,30 258,30 258,40 " style="fill:white; stroke-width:1; stroke:black; " description="&lt;b&gt;gene_1862&lt;/b&gt;&lt;br&gt;hypothetical protein&lt;br&gt;Location: 232540 - 234235" locus_tag="gene_1862" class="clusterblast-orf" id="dummy-1_q3_0_all"  />
<polygon points="284,40 285,40 290,35 285,30 284,30 284,40 " style="fill:white; stroke-width:1; stroke:black; " description="&lt;b&gt;gene_1863&lt;/b&gt;&lt;br&gt;hypothetical protein&lt;br&gt;Location: 241469 - 243337" locus_tag="gene_1863" class="clusterblast-orf" id="dummy-1_q4_0_all"  />
<polygon points="361,40 362,40 367,35 362,30 361,30 361,40 " style="fill:white; stroke-width:1; stroke:black; " description="&lt;b&gt;gene_1864&lt;/b&gt;&lt;br&gt;hypothetical protein&lt;br&gt;Location: 267770 - 269634" locus_tag="gene_1864" class="clusterblast-orf" id="dummy-1_q5_0_all"  />
<polygon points="457,35 462,30 462,30 462,40 462,40 457,35 " style="fill:#d81515; stroke-width:1; stroke:black; " description="&lt;b&gt;gene_1865&lt;/b&gt;&lt;br&gt;hypothetical protein&lt;br&gt;Location: 300542 - 302342" locus_tag="gene_1865" class="clusterblast-orf" id="dummy-1_q6_0_all"  />
<polygon points="543,35 546,30 546,40 543,35 " style="fill:#15d8d8; stroke-width:1; stroke:black; " description="&lt;b&gt;gene_1866&lt;/b&gt;&lt;br&gt;hypothetical protein&lt;br&gt;Location: 330089 - 331271" locus_tag="gene_1866" class="clusterblast-orf" id="dummy-1_q7_0_all"  />
<polygon points="668,40 671,40 676,35 671,30 668,30 668,40 " style="fill:white; stroke-width:1; stroke:black; " description="&lt;b&gt;gene_1867&lt;/b&gt;&lt;br&gt;hypothetical protein&lt;br&gt;Location: 372826 - 375648" locus_tag="gene_1867" class="clusterblast-orf" id="dummy-1_q8_0_all"  />
<polygon points="710,40 714,35 710,30 710,40 " style="fill:white; stroke-width:1; stroke:black; " description="&lt;b&gt;gene_1868&lt;/b&gt;&lt;br&gt;hypothetical protein&lt;br&gt;Location: 387394 - 388494" locus_tag="gene_1868" class="clusterblast-orf" id="dummy-1_q9_0_all"  />
<polygon points="778,35 780,30 780,40 778,35 " style="fill:white; stroke-width:1; stroke:black; " description="&lt;b&gt;gene_1869&lt;/b&gt;&lt;br&gt;hypothetical protein&lt;br&gt;Location: 410603 - 411107" locus_tag="gene_1869" class="clusterblast-orf" id="dummy-1_q10_0_all"  />
</g>
<g label="NW_022194791" description="NW_022194791 (1480424-1501974): Fusarium proliferatum ET1 genome assembly, co... (28% of genes show similarity), terpene" class="clusterblast-cluster"  >
<text x="5" y="70" class="clusterblast-acc"  >
<a xlink:href="https://antismash-db.secondarymetabolites.org/area.html?record=NW_022194791&amp;start=1480424&amp;end=1501974" target="_blank">NW_022194791 (1480424-1501974)</a>: Fusarium proliferatum ET1 genome assembly, co... (28% of genes show similarity), terpene</text>
<line x1="10" y1="85" x2="778.0" y2="85" style="stroke-width:1; stroke:grey; "  />
</g>
<g id="a1_000"  >
<polygon points="364,90 365,90 370,85 365,80 364,80 364,90 " style="fill:white; stroke-width:1; stroke:black; " description="&lt;b&gt;FPRO_03281&lt;/b&gt;&lt;br&gt;uncharacterized protein&lt;br&gt;Location: 1482823 - 1485048" locus_tag="FPRO_03281" class="clusterblast-orf" id="dummy-1_h1_6_0"  />
</g>
<g id="a1_001"  >
<polygon points="373,85 378,80 378,80 378,90 378,90 373,85 " style="fill:white; stroke-width:1; stroke:black; " description="&lt;b&gt;FPRO_03280&lt;/b&gt;&lt;br&gt;related to DnaJ-like protein&lt;br&gt;Location: 1486146 - 1487836" locus_tag="FPRO_03280" class="clusterblast-orf" id="dummy-1_h1_6_1"  />
</g>
<g id="a1_002"  >
<polygon points="380,85 381,80 381,90 380,85 " style="fill:white; stroke-width:1; stroke:black; " description="&lt;b&gt;FPRO_03279&lt;/b&gt;&lt;br&gt;uncharacterized protein&lt;br&gt;Location: 1488593 - 1488884" locus_tag="FPRO_03279" class="clusterblast-orf" id="dummy-1_h1_6_2"  />
</g>
<g id="a1_003"  >
<polygon points="386,90 390,85 386,80 386,90 " style="fill:#d81515; stroke-width:1; stroke:black; " description="&lt;b&gt;FPRO_03278&lt;/b&gt;&lt;br&gt;probable farnesyl-diphosphate farnesyltransferase&lt;br&gt;Location: 1490425 - 1491974&lt;br&gt;&lt;br&gt;&lt;b&gt;BlastP hit with gene_1865&lt;/b&gt;&lt;br&gt;Percentage identity: 49&lt;br&gt;Percentage coverage: 97&lt;br&gt;BLAST bit score: 345&lt;br&gt;E-value: 8.5e-93" locus_tag="FPRO_03278" class="clusterblast-orf" id="dummy-1_h1_6_3"  />
</g>
<g id="a1_004"  >
<polygon points="394,85 398,80 398,90 394,85 " style="fill:#15d8d8; stroke-width:1; stroke:black; " description="&lt;b&gt;FPRO_03277&lt;/b&gt;&lt;br&gt;probable alkaline protease (oryzin)&lt;br&gt;Location: 1493249 - 1494741&lt;br&gt;&lt;br&gt;&lt;b&gt;BlastP hit with gene_1866&lt;/b&gt;&lt;br&gt;Percentage identity: 36&lt;br&gt;Percentage coverage: 72&lt;br&gt;BLAST bit score: 173&lt;br&gt;E-value: 5.8e-41" locus_tag="FPRO_03277" class="clusterblast-orf" id="dummy-1_h1_6_4"  />
</g>
<g id="a1_005"  >
<polygon points="412,90 412,85 412,80 412,90 " style="fill:white; stroke-width:1; stroke:black; " description="&lt;b&gt;FPRO_03276&lt;/b&gt;&lt;br&gt;uncharacterized protein&lt;br&gt;Location: 1499276 - 1499540" locus_tag="FPRO_03276" class="clusterblast-orf" id="dummy-1_h1_6_5"  />
</g>
<g id="a1_006"  >
<polygon points="413,90 415,85 413,80 413,90 " style="fill:white; stroke-width:1; stroke:black; " description="&lt;b&gt;FPRO_03275&lt;/b&gt;&lt;br&gt;related to O-methyltransferase&lt;br&gt;Location: 1499866 - 1500605" locus_tag="FPRO_03275" class="clusterblast-orf" id="dummy-1_h1_6_6"  />
</g>
</svg>
