<svg xmlns="http://www.w3.org/2000/svg" xmlns:xlink="http://www.w3.org/1999/xlink" version="1.1" x="0" y="0" height="100" width="800" viewBox="0 0 800 100" preserveAspectRatio="none"  >
<g label="Query sequence" class="clusterblast-cluster"  >
<text x="5" y="20" class="clusterblast-acc"  >
Query sequence</text>
<line x1="10" y1="35" x2="778.0" y2="35" style="stroke-width:1; stroke:grey; "  />
<polygon points="0,40 42,40 47,35 42,30 0,30 0,40 " style="fill:#d81515; stroke-width:1; stroke:black; " description="&lt;b&gt;gene_4443&lt;/b&gt;&lt;br&gt;hypothetical protein&lt;br&gt;Location: 532068 - 536277" locus_tag="gene_4443" class="clusterblast-orf" id="general-1_q0_0_all"  />
<polygon points="275,40 284,40 289,35 284,30 275,30 275,40 " style="fill:white; stroke-width:1; stroke:black; " description="&lt;b&gt;gene_4444&lt;/b&gt;&lt;br&gt;hypothetical protein&lt;br&gt;Location: 556553 - 557793" locus_tag="gene_4444" class="clusterblast-orf" id="general-1_q1_0_all"  />
<polygon points="437,35 442,30 506,30 506,40 442,40 437,35 " style="fill:white; stroke-width:1; stroke:black; " description="&lt;b&gt;gene_4445&lt;/b&gt;&lt;br&gt;hypothetical protein&lt;br&gt;Location: 571000 - 577140" locus_tag="gene_4445" class="clusterblast-orf" id="general-1_q2_0_all"  />
<polygon points="629,35 634,30 646,30 646,40 634,40 629,35 " style="fill:#15d8d8; stroke-width:1; stroke:black; " description="&lt;b&gt;gene_4446&lt;/b&gt;&lt;br&gt;hypothetical protein&lt;br&gt;Location: 588071 - 589572" locus_tag="gene_4446" class="clusterblast-orf" id="general-1_q3_0_all"  />
<polygon points="757,35 762,30 780,30 780,40 762,40 757,35 " style="fill:white; stroke-width:1; stroke:black; " description="&lt;b&gt;gene_4447&lt;/b&gt;&lt;br&gt;hypothetical protein&lt;br&gt;Location: 599493 - 601512" locus_tag="gene_4447" class="clusterblast-orf" id="general-1_q4_0_all"  />
</g>
<g label="LT598481" description="LT598481 (504750-548911): Lachancea meyersii CBS 8951 genome assembly, chromo... (9% of genes show similarity), NRPS-like" class="clusterblast-cluster"  >
<text x="5" y="70" class="clusterblast-acc"  >
<a xlink:href="https://antismash-db.secondarymetabolites.org/area.html?record=LT598481&amp;start=504750&amp;end=548911" target="_blank">LT598481 (504750-548911)</a>: Lachancea meyersii CBS 8951 genome assembly, chromo... (9% of genes show similarity), NRPS-like</text>
<line x1="10" y1="85" x2="778.0" y2="85" style="stroke-width:1; stroke:grey; "  />
</g>
<g id="a1_000"  >
<polygon points="156,85 161,80 161,80 161,90 161,90 156,85 " style="fill:white; stroke-width:1; stroke:black; " description="&lt;b&gt;LAME_0E05204G&lt;/b&gt;&lt;br&gt;&lt;br&gt;Location: 505267 - 505734" locus_tag="LAME_0E05204G" class="clusterblast-orf" id="general-1_all_1_1_0"  />
</g>
<g id="a1_001"  >
<polygon points="165,90 168,90 173,85 168,80 165,80 165,90 " style="fill:white; stroke-width:1; stroke:black; " description="&lt;b&gt;LAME_0E05226G&lt;/b&gt;&lt;br&gt;&lt;br&gt;Location: 506064 - 506762" locus_tag="LAME_0E05226G" class="clusterblast-orf" id="general-1_all_1_1_1"  />
</g>
<g id="a1_002"  >
<polygon points="173,85 178,80 180,80 180,90 178,90 173,85 " style="fill:white; stroke-width:1; stroke:black; " description="&lt;b&gt;LAME_0E05248G&lt;/b&gt;&lt;br&gt;&lt;br&gt;Location: 506804 - 507409" locus_tag="LAME_0E05248G" class="clusterblast-orf" id="general-1_all_1_1_2"  />
</g>
<g id="a1_003"  >
<polygon points="181,90 185,90 190,85 185,80 181,80 181,90 " style="fill:white; stroke-width:1; stroke:black; " description="&lt;b&gt;LAME_0E05270G&lt;/b&gt;&lt;br&gt;&lt;br&gt;Location: 507530 - 508273" locus_tag="LAME_0E05270G" class="clusterblast-orf" id="general-1_all_1_1_3"  />
</g>
<g id="a1_004"  >
<polygon points="190,85 195,80 205,80 205,90 195,90 190,85 " style="fill:white; stroke-width:1; stroke:black; " description="&lt;b&gt;LAME_0E05292G&lt;/b&gt;&lt;br&gt;&lt;br&gt;Location: 508333 - 509613" locus_tag="LAME_0E05292G" class="clusterblast-orf" id="general-1_all_1_1_4"  />
</g>
<g id="a1_005"  >
<polygon points="225,90 248,90 253,85 248,80 225,80 225,90 " style="fill:white; stroke-width:1; stroke:black; " description="&lt;b&gt;LAME_0E05314G&lt;/b&gt;&lt;br&gt;&lt;br&gt;Location: 511403 - 513925" locus_tag="LAME_0E05314G" class="clusterblast-orf" id="general-1_all_1_1_5"  />
</g>
<g id="a1_006"  >
<polygon points="254,85 259,80 276,80 276,90 259,90 254,85 " style="fill:white; stroke-width:1; stroke:black; " description="&lt;b&gt;LAME_0E05336G&lt;/b&gt;&lt;br&gt;&lt;br&gt;Location: 514029 - 515948" locus_tag="LAME_0E05336G" class="clusterblast-orf" id="general-1_all_1_1_6"  />
</g>
<g id="a1_007"  >
<polygon points="301,90 305,85 301,80 301,90 " style="fill:white; stroke-width:1; stroke:black; " description="&lt;b&gt;LAME_0E05358G&lt;/b&gt;&lt;br&gt;&lt;br&gt;Location: 518165 - 518575" locus_tag="LAME_0E05358G" class="clusterblast-orf" id="general-1_all_1_1_7"  />
</g>
<g id="a1_008"  >
<polygon points="306,85 311,80 321,80 321,90 311,90 306,85 " style="fill:white; stroke-width:1; stroke:black; " description="&lt;b&gt;LAME_0E05380G&lt;/b&gt;&lt;br&gt;&lt;br&gt;Location: 518641 - 519942" locus_tag="LAME_0E05380G" class="clusterblast-orf" id="general-1_all_1_1_8"  />
</g>
<g id="a1_009"  >
<polygon points="328,85 333,80 342,80 342,90 333,90 328,85 " style="fill:#15d8d8; stroke-width:1; stroke:black; " description="&lt;b&gt;LAME_0E05402G&lt;/b&gt;&lt;br&gt;&lt;br&gt;Location: 520573 - 521838&lt;br&gt;&lt;br&gt;&lt;b&gt;BlastP hit with gene_4446&lt;/b&gt;&lt;br&gt;Percentage identity: 32&lt;br&gt;Percentage coverage: 64&lt;br&gt;BLAST bit score: 111&lt;br&gt;E-value: 2e-22" locus_tag="LAME_0E05402G" class="clusterblast-orf" id="general-1_all_1_1_9"  />
</g>
<g id="a1_0010"  >
<polygon points="346,85 351,80 356,80 356,90 351,90 346,85 " style="fill:white; stroke-width:1; stroke:black; " description="&lt;b&gt;LAME_0E05424G&lt;/b&gt;&lt;br&gt;&lt;br&gt;Location: 522163 - 523074" locus_tag="LAME_0E05424G" class="clusterblast-orf" id="general-1_all_1_1_10"  />
</g>
<g id="a1_0011"  >
<polygon points="375,90 417,90 422,85 417,80 375,80 375,90 " style="fill:#d81515; stroke-width:1; stroke:black; " description="&lt;b&gt;LAME_0E05446G&lt;/b&gt;&lt;br&gt;&lt;br&gt;Location: 524751 - 528911&lt;br&gt;&lt;br&gt;&lt;b&gt;BlastP hit with gene_4443&lt;/b&gt;&lt;br&gt;Percentage identity: 45&lt;br&gt;Percentage coverage: 100&lt;br&gt;BLAST bit score: 1070&lt;br&gt;E-value: 1.4e-310" locus_tag="LAME_0E05446G" class="clusterblast-orf" id="general-1_all_1_1_11"  />
</g>
<g id="a1_0012"  >
<polygon points="423,85 428,80 450,80 450,90 428,90 423,85 " style="fill:white; stroke-width:1; stroke:black; " description="&lt;b&gt;LAME_0E05468G&lt;/b&gt;&lt;br&gt;&lt;br&gt;Location: 529004 - 531415" locus_tag="LAME_0E05468G" class="clusterblast-orf" id="general-1_all_1_1_12"  />
</g>
<g id="a1_0013"  >
<polygon points="467,90 491,90 496,85 491,80 467,80 467,90 " style="fill:white; stroke-width:1; stroke:black; " description="&lt;b&gt;LAME_0E05490G&lt;/b&gt;&lt;br&gt;&lt;br&gt;Location: 532953 - 535547" locus_tag="LAME_0E05490G" class="clusterblast-orf" id="general-1_all_1_1_13"  />
</g>
<g id="a1_0014"  >
<polygon points="498,85 503,80 504,80 504,90 503,90 498,85 " style="fill:white; stroke-width:1; stroke:black; " description="&lt;b&gt;LAME_0E05512G&lt;/b&gt;&lt;br&gt;&lt;br&gt;Location: 535709 - 536249" locus_tag="LAME_0E05512G" class="clusterblast-orf" id="general-1_all_1_1_14"  />
</g>
<g id="a1_0015"  >
<polygon points="506,90 509,90 514,85 509,80 506,80 506,90 " style="fill:white; stroke-width:1; stroke:black; " description="&lt;b&gt;LAME_0E05534G&lt;/b&gt;&lt;br&gt;&lt;br&gt;Location: 536399 - 537109" locus_tag="LAME_0E05534G" class="clusterblast-orf" id="general-1_all_1_1_15"  />
</g>
<g id="a1_0016"  >
<polygon points="515,85 520,80 530,80 530,90 520,90 515,85 " style="fill:white; stroke-width:1; stroke:black; " description="&lt;b&gt;LAME_0E05556G&lt;/b&gt;&lt;br&gt;&lt;br&gt;Location: 537254 - 538540" locus_tag="LAME_0E05556G" class="clusterblast-orf" id="general-1_all_1_1_16"  />
</g>
<g id="a1_0017"  >
<polygon points="541,90 546,90 551,85 546,80 541,80 541,90 " style="fill:white; stroke-width:1; stroke:black; " description="&lt;b&gt;LAME_0E05578G&lt;/b&gt;&lt;br&gt;&lt;br&gt;Location: 539571 - 540455" locus_tag="LAME_0E05578G" class="clusterblast-orf" id="general-1_all_1_1_17"  />
</g>
<g id="a1_0018"  >
<polygon points="553,90 565,90 570,85 565,80 553,80 553,90 " style="fill:white; stroke-width:1; stroke:black; " description="&lt;b&gt;LAME_0E05600G&lt;/b&gt;&lt;br&gt;&lt;br&gt;Location: 540646 - 542088" locus_tag="LAME_0E05600G" class="clusterblast-orf" id="general-1_all_1_1_18"  />
</g>
<g id="a1_0019"  >
<polygon points="570,85 575,80 585,80 585,90 575,90 570,85 " style="fill:white; stroke-width:1; stroke:black; " description="&lt;b&gt;LAME_0E05622G&lt;/b&gt;&lt;br&gt;&lt;br&gt;Location: 542095 - 543444" locus_tag="LAME_0E05622G" class="clusterblast-orf" id="general-1_all_1_1_19"  />
</g>
<g id="a1_0020"  >
<polygon points="589,90 589,90 594,85 589,80 589,80 589,90 " style="fill:white; stroke-width:1; stroke:black; " description="&lt;b&gt;LAME_0E05644G&lt;/b&gt;&lt;br&gt;&lt;br&gt;Location: 543821 - 544264" locus_tag="LAME_0E05644G" class="clusterblast-orf" id="general-1_all_1_1_20"  />
</g>
<g id="a1_0021"  >
<polygon points="597,85 602,80 623,80 623,90 602,90 597,85 " style="fill:white; stroke-width:1; stroke:black; " description="&lt;b&gt;LAME_0E05666G&lt;/b&gt;&lt;br&gt;&lt;br&gt;Location: 544573 - 546852" locus_tag="LAME_0E05666G" class="clusterblast-orf" id="general-1_all_1_1_21"  />
</g>
</svg>
