<svg xmlns="http://www.w3.org/2000/svg" xmlns:xlink="http://www.w3.org/1999/xlink" version="1.1" x="0" y="0" height="50" width="800" viewBox="0 0 800 50" preserveAspectRatio="none"  >
<g label="Query sequence" class="clusterblast-cluster"  >
<text x="5" y="20" class="clusterblast-acc"  >
Query sequence</text>
<line x1="10" y1="35" x2="778.0" y2="35" style="stroke-width:1; stroke:grey; "  />
<polygon points="0,35 2,30 2,40 0,35 " style="fill:white; stroke-width:1; stroke:black; " description="&lt;b&gt;gene_1859&lt;/b&gt;&lt;br&gt;hypothetical protein&lt;br&gt;Location: 143882 - 144644" locus_tag="gene_1859" class="clusterblast-orf" id="knownclusterblast-1_q0_0_all"  />
<polygon points="2,35 7,30 11,30 11,40 7,40 2,35 " style="fill:white; stroke-width:1; stroke:black; " description="&lt;b&gt;gene_1860&lt;/b&gt;&lt;br&gt;hypothetical protein&lt;br&gt;Location: 144867 - 147678" locus_tag="gene_1860" class="clusterblast-orf" id="knownclusterblast-1_q1_0_all"  />
<polygon points="75,35 80,30 83,30 83,40 80,40 75,35 " style="fill:white; stroke-width:1; stroke:black; " description="&lt;b&gt;gene_1861&lt;/b&gt;&lt;br&gt;hypothetical protein&lt;br&gt;Location: 169851 - 172635" locus_tag="gene_1861" class="clusterblast-orf" id="knownclusterblast-1_q2_0_all"  />
<polygon points="258,40 258,40 263,35 258,30 258,30 258,40 " style="fill:white; stroke-width:1; stroke:black; " description="&lt;b&gt;gene_1862&lt;/b&gt;&lt;br&gt;hypothetical protein&lt;br&gt;Location: 232540 - 234235" locus_tag="gene_1862" class="clusterblast-orf" id="knownclusterblast-1_q3_0_all"  />
<polygon points="284,40 285,40 290,35 285,30 284,30 284,40 " style="fill:white; stroke-width:1; stroke:black; " description="&lt;b&gt;gene_1863&lt;/b&gt;&lt;br&gt;hypothetical protein&lt;br&gt;Location: 241469 - 243337" locus_tag="gene_1863" class="clusterblast-orf" id="knownclusterblast-1_q4_0_all"  />
<polygon points="361,40 362,40 367,35 362,30 361,30 361,40 " style="fill:white; stroke-width:1; stroke:black; " description="&lt;b&gt;gene_1864&lt;/b&gt;&lt;br&gt;hypothetical protein&lt;br&gt;Location: 267770 - 269634" locus_tag="gene_1864" class="clusterblast-orf" id="knownclusterblast-1_q5_0_all"  />
<polygon points="457,35 462,30 462,30 462,40 462,40 457,35 " style="fill:white; stroke-width:1; stroke:black; " description="&lt;b&gt;gene_1865&lt;/b&gt;&lt;br&gt;hypothetical protein&lt;br&gt;Location: 300542 - 302342" locus_tag="gene_1865" class="clusterblast-orf" id="knownclusterblast-1_q6_0_all"  />
<polygon points="543,35 546,30 546,40 543,35 " style="fill:white; stroke-width:1; stroke:black; " description="&lt;b&gt;gene_1866&lt;/b&gt;&lt;br&gt;hypothetical protein&lt;br&gt;Location: 330089 - 331271" locus_tag="gene_1866" class="clusterblast-orf" id="knownclusterblast-1_q7_0_all"  />
<polygon points="668,40 671,40 676,35 671,30 668,30 668,40 " style="fill:white; stroke-width:1; stroke:black; " description="&lt;b&gt;gene_1867&lt;/b&gt;&lt;br&gt;hypothetical protein&lt;br&gt;Location: 372826 - 375648" locus_tag="gene_1867" class="clusterblast-orf" id="knownclusterblast-1_q8_0_all"  />
<polygon points="710,40 714,35 710,30 710,40 " style="fill:white; stroke-width:1; stroke:black; " description="&lt;b&gt;gene_1868&lt;/b&gt;&lt;br&gt;hypothetical protein&lt;br&gt;Location: 387394 - 388494" locus_tag="gene_1868" class="clusterblast-orf" id="knownclusterblast-1_q9_0_all"  />
<polygon points="778,35 780,30 780,40 778,35 " style="fill:white; stroke-width:1; stroke:black; " description="&lt;b&gt;gene_1869&lt;/b&gt;&lt;br&gt;hypothetical protein&lt;br&gt;Location: 410603 - 411107" locus_tag="gene_1869" class="clusterblast-orf" id="knownclusterblast-1_q10_0_all"  />
</g>
</svg>
