<svg xmlns="http://www.w3.org/2000/svg" xmlns:xlink="http://www.w3.org/1999/xlink" version="1.1" x="0" y="0" height="230" width="800" viewBox="0 0 800 230" preserveAspectRatio="none"  >
<g label="Query sequence" class="clusterblast-cluster"  >
<text x="5" y="20" class="clusterblast-acc"  >
Query sequence</text>
<line x1="10" y1="35" x2="778.0" y2="35" style="stroke-width:1; stroke:grey; "  />
<polygon points="0,35 0,30 0,40 0,35 " style="fill:#d81515; stroke-width:1; stroke:black; " description="&lt;b&gt;gene_7166&lt;/b&gt;&lt;br&gt;hypothetical protein&lt;br&gt;Location: 18965133 - 18966495" locus_tag="gene_7166" class="clusterblast-orf" id="dummy-1_q0_0_all"  />
<polygon points="47,40 48,35 47,30 47,40 " style="fill:white; stroke-width:1; stroke:black; " description="&lt;b&gt;gene_7168&lt;/b&gt;&lt;br&gt;hypothetical protein&lt;br&gt;Location: 19083543 - 19084895" locus_tag="gene_7168" class="clusterblast-orf" id="dummy-1_q1_0_all"  />
<polygon points="72,35 73,30 73,40 72,35 " style="fill:white; stroke-width:1; stroke:black; " description="&lt;b&gt;gene_7169&lt;/b&gt;&lt;br&gt;hypothetical protein&lt;br&gt;Location: 19146121 - 19146997" locus_tag="gene_7169" class="clusterblast-orf" id="dummy-1_q2_0_all"  />
<polygon points="73,35 73,30 73,40 73,35 " style="fill:white; stroke-width:1; stroke:black; " description="&lt;b&gt;gene_7170&lt;/b&gt;&lt;br&gt;hypothetical protein&lt;br&gt;Location: 19147022 - 19148750" locus_tag="gene_7170" class="clusterblast-orf" id="dummy-1_q3_0_all"  />
<polygon points="105,35 106,30 106,40 105,35 " style="fill:white; stroke-width:1; stroke:black; " description="&lt;b&gt;gene_7171&lt;/b&gt;&lt;br&gt;hypothetical protein&lt;br&gt;Location: 19228414 - 19228669" locus_tag="gene_7171" class="clusterblast-orf" id="dummy-1_q4_0_all"  />
<polygon points="122,40 123,35 122,30 122,40 " style="fill:white; stroke-width:1; stroke:black; " description="&lt;b&gt;gene_7172&lt;/b&gt;&lt;br&gt;hypothetical protein&lt;br&gt;Location: 19270644 - 19271845" locus_tag="gene_7172" class="clusterblast-orf" id="dummy-1_q5_0_all"  />
<polygon points="148,40 148,35 148,30 148,40 " style="fill:white; stroke-width:1; stroke:black; " description="&lt;b&gt;gene_7174&lt;/b&gt;&lt;br&gt;hypothetical protein&lt;br&gt;Location: 19333528 - 19335093" locus_tag="gene_7174" class="clusterblast-orf" id="dummy-1_q6_0_all"  />
<polygon points="186,40 186,35 186,30 186,40 " style="fill:white; stroke-width:1; stroke:black; " description="&lt;b&gt;gene_7175&lt;/b&gt;&lt;br&gt;hypothetical protein&lt;br&gt;Location: 19428374 - 19429006" locus_tag="gene_7175" class="clusterblast-orf" id="dummy-1_q7_0_all"  />
<polygon points="311,35 313,30 313,40 311,35 " style="fill:#77d815; stroke-width:1; stroke:black; " description="&lt;b&gt;gene_7177&lt;/b&gt;&lt;br&gt;hypothetical protein&lt;br&gt;Location: 19739908 - 19744621" locus_tag="gene_7177" class="clusterblast-orf" id="dummy-1_q8_0_all"  />
<polygon points="346,35 347,30 347,40 346,35 " style="fill:white; stroke-width:1; stroke:black; " description="&lt;b&gt;gene_7178&lt;/b&gt;&lt;br&gt;hypothetical protein&lt;br&gt;Location: 19826917 - 19828822" locus_tag="gene_7178" class="clusterblast-orf" id="dummy-1_q9_0_all"  />
<polygon points="361,35 362,30 362,40 361,35 " style="fill:white; stroke-width:1; stroke:black; " description="&lt;b&gt;gene_7179&lt;/b&gt;&lt;br&gt;hypothetical protein&lt;br&gt;Location: 19863328 - 19864618" locus_tag="gene_7179" class="clusterblast-orf" id="dummy-1_q10_0_all"  />
<polygon points="390,35 390,30 390,40 390,35 " style="fill:white; stroke-width:1; stroke:black; " description="&lt;b&gt;gene_7180&lt;/b&gt;&lt;br&gt;hypothetical protein&lt;br&gt;Location: 19934425 - 19935127" locus_tag="gene_7180" class="clusterblast-orf" id="dummy-1_q11_0_all"  />
<polygon points="390,35 390,30 390,40 390,35 " style="fill:white; stroke-width:1; stroke:black; " description="&lt;b&gt;gene_7181&lt;/b&gt;&lt;br&gt;hypothetical protein&lt;br&gt;Location: 19935328 - 19936461" locus_tag="gene_7181" class="clusterblast-orf" id="dummy-1_q12_0_all"  />
<polygon points="416,35 416,30 416,40 416,35 " style="fill:white; stroke-width:1; stroke:black; " description="&lt;b&gt;gene_7182&lt;/b&gt;&lt;br&gt;hypothetical protein&lt;br&gt;Location: 19999114 - 20001105" locus_tag="gene_7182" class="clusterblast-orf" id="dummy-1_q13_0_all"  />
<polygon points="466,40 466,35 466,30 466,40 " style="fill:white; stroke-width:1; stroke:black; " description="&lt;b&gt;gene_7184&lt;/b&gt;&lt;br&gt;hypothetical protein&lt;br&gt;Location: 20124331 - 20124715" locus_tag="gene_7184" class="clusterblast-orf" id="dummy-1_q14_0_all"  />
<polygon points="497,40 498,35 497,30 497,40 " style="fill:#15d8d8; stroke-width:1; stroke:black; " description="&lt;b&gt;gene_7185&lt;/b&gt;&lt;br&gt;hypothetical protein&lt;br&gt;Location: 20201909 - 20203487" locus_tag="gene_7185" class="clusterblast-orf" id="dummy-1_q15_0_all"  />
<polygon points="517,35 518,30 518,40 517,35 " style="fill:white; stroke-width:1; stroke:black; " description="&lt;b&gt;gene_7186&lt;/b&gt;&lt;br&gt;hypothetical protein&lt;br&gt;Location: 20250080 - 20252500" locus_tag="gene_7186" class="clusterblast-orf" id="dummy-1_q16_0_all"  />
<polygon points="633,40 634,35 633,30 633,40 " style="fill:#7715d8; stroke-width:1; stroke:black; " description="&lt;b&gt;gene_7188&lt;/b&gt;&lt;br&gt;hypothetical protein&lt;br&gt;Location: 20539055 - 20540575" locus_tag="gene_7188" class="clusterblast-orf" id="dummy-1_q17_0_all"  />
<polygon points="681,35 682,30 682,40 681,35 " style="fill:white; stroke-width:1; stroke:black; " description="&lt;b&gt;gene_7189&lt;/b&gt;&lt;br&gt;hypothetical protein&lt;br&gt;Location: 20658920 - 20660517" locus_tag="gene_7189" class="clusterblast-orf" id="dummy-1_q18_0_all"  />
<polygon points="713,35 713,30 713,40 713,35 " style="fill:white; stroke-width:1; stroke:black; " description="&lt;b&gt;gene_7190&lt;/b&gt;&lt;br&gt;hypothetical protein&lt;br&gt;Location: 20737363 - 20738626" locus_tag="gene_7190" class="clusterblast-orf" id="dummy-1_q19_0_all"  />
<polygon points="779,35 780,30 780,40 779,35 " style="fill:white; stroke-width:1; stroke:black; " description="&lt;b&gt;gene_7191&lt;/b&gt;&lt;br&gt;hypothetical protein&lt;br&gt;Location: 20901329 - 20903009" locus_tag="gene_7191" class="clusterblast-orf" id="dummy-1_q20_0_all"  />
</g>
<g label="NW_015622504" description="NW_015622504 (6033103-6077303): Exophiala mesophila strain CBS 40295 unplaced... (16% of genes show similarity), NRPS-like" class="clusterblast-cluster"  >
<text x="5" y="70" class="clusterblast-acc"  >
<a xlink:href="https://antismash-db.secondarymetabolites.org/area.html?record=NW_015622504&amp;start=6033103&amp;end=6077303" target="_blank">NW_015622504 (6033103-6077303)</a>: Exophiala mesophila strain CBS 40295 unplaced... (16% of genes show similarity), NRPS-like</text>
<line x1="10" y1="85" x2="778.0" y2="85" style="stroke-width:1; stroke:grey; "  />
</g>
<g id="a1_000"  >
<polygon points="383,90 383,85 383,80 383,90 " style="fill:white; stroke-width:1; stroke:black; " description="&lt;b&gt;PV10_01924&lt;/b&gt;&lt;br&gt;hypothetical protein&lt;br&gt;Location: 6075734 - 6074676" locus_tag="PV10_01924" class="clusterblast-orf" id="dummy-1_h1_3_0"  />
</g>
<g id="a1_001"  >
<polygon points="384,85 384,80 384,90 384,85 " style="fill:#d81515; stroke-width:1; stroke:black; " description="&lt;b&gt;PV10_01923&lt;/b&gt;&lt;br&gt;hypothetical protein&lt;br&gt;Location: 6073929 - 6072298&lt;br&gt;&lt;br&gt;&lt;b&gt;BlastP hit with gene_7166&lt;/b&gt;&lt;br&gt;Percentage identity: 46&lt;br&gt;Percentage coverage: 85&lt;br&gt;BLAST bit score: 323&lt;br&gt;E-value: 4e-86" locus_tag="PV10_01923" class="clusterblast-orf" id="dummy-1_h1_3_1"  />
</g>
<g id="a1_002"  >
<polygon points="386,90 386,85 386,80 386,90 " style="fill:white; stroke-width:1; stroke:black; " description="&lt;b&gt;PV10_01922&lt;/b&gt;&lt;br&gt;hypothetical protein&lt;br&gt;Location: 6069174 - 6067717" locus_tag="PV10_01922" class="clusterblast-orf" id="dummy-1_h1_3_2"  />
</g>
<g id="a1_003"  >
<polygon points="386,90 387,85 386,80 386,90 " style="fill:white; stroke-width:1; stroke:black; " description="&lt;b&gt;PV10_01921&lt;/b&gt;&lt;br&gt;hypothetical protein&lt;br&gt;Location: 6067130 - 6066088" locus_tag="PV10_01921" class="clusterblast-orf" id="dummy-1_h1_3_3"  />
</g>
<g id="a1_004"  >
<polygon points="387,85 388,80 388,90 387,85 " style="fill:white; stroke-width:1; stroke:black; " description="&lt;b&gt;PV10_01920&lt;/b&gt;&lt;br&gt;hypothetical protein&lt;br&gt;Location: 6065343 - 6064196" locus_tag="PV10_01920" class="clusterblast-orf" id="dummy-1_h1_3_4"  />
</g>
<g id="a1_005"  >
<polygon points="388,90 389,85 388,80 388,90 " style="fill:white; stroke-width:1; stroke:black; " description="&lt;b&gt;PV10_01919&lt;/b&gt;&lt;br&gt;hypothetical protein&lt;br&gt;Location: 6063046 - 6061793" locus_tag="PV10_01919" class="clusterblast-orf" id="dummy-1_h1_3_5"  />
</g>
<g id="a1_006"  >
<polygon points="389,85 390,80 390,90 389,85 " style="fill:white; stroke-width:1; stroke:black; " description="&lt;b&gt;PV10_01918&lt;/b&gt;&lt;br&gt;hypothetical protein&lt;br&gt;Location: 6060143 - 6058251" locus_tag="PV10_01918" class="clusterblast-orf" id="dummy-1_h1_3_6"  />
</g>
<g id="a1_007"  >
<polygon points="390,90 392,85 390,80 390,90 " style="fill:#77d815; stroke-width:1; stroke:black; " description="&lt;b&gt;PV10_01917&lt;/b&gt;&lt;br&gt;L-aminoadipate-semialdehyde dehydrogenase&lt;br&gt;Location: 6057303 - 6053104&lt;br&gt;&lt;br&gt;&lt;b&gt;BlastP hit with gene_7177&lt;/b&gt;&lt;br&gt;Percentage identity: 43&lt;br&gt;Percentage coverage: 100&lt;br&gt;BLAST bit score: 1039&lt;br&gt;E-value: 4.4e-301" locus_tag="PV10_01917" class="clusterblast-orf" id="dummy-1_h1_3_7"  />
</g>
<g id="a1_008"  >
<polygon points="392,85 394,80 394,90 392,85 " style="fill:white; stroke-width:1; stroke:black; " description="&lt;b&gt;PV10_01916&lt;/b&gt;&lt;br&gt;hypothetical protein&lt;br&gt;Location: 6052873 - 6049214" locus_tag="PV10_01916" class="clusterblast-orf" id="dummy-1_h1_3_8"  />
</g>
<g id="a1_009"  >
<polygon points="394,85 394,80 394,90 394,85 " style="fill:white; stroke-width:1; stroke:black; " description="&lt;b&gt;PV10_01915&lt;/b&gt;&lt;br&gt;hypothetical protein&lt;br&gt;Location: 6048522 - 6047366" locus_tag="PV10_01915" class="clusterblast-orf" id="dummy-1_h1_3_9"  />
</g>
<g id="a1_0010"  >
<polygon points="395,90 395,85 395,80 395,90 " style="fill:white; stroke-width:1; stroke:black; " description="&lt;b&gt;PV10_01914&lt;/b&gt;&lt;br&gt;hypothetical protein&lt;br&gt;Location: 6046206 - 6045844" locus_tag="PV10_01914" class="clusterblast-orf" id="dummy-1_h1_3_10"  />
</g>
<g id="a1_0011"  >
<polygon points="395,90 396,85 395,80 395,90 " style="fill:white; stroke-width:1; stroke:black; " description="&lt;b&gt;PV10_01913&lt;/b&gt;&lt;br&gt;hypothetical protein&lt;br&gt;Location: 6045204 - 6042952" locus_tag="PV10_01913" class="clusterblast-orf" id="dummy-1_h1_3_11"  />
</g>
</svg>
