<svg xmlns="http://www.w3.org/2000/svg" xmlns:xlink="http://www.w3.org/1999/xlink" version="1.1" x="0" y="0" height="230" width="800" viewBox="0 0 800 230" preserveAspectRatio="none"  >
<g label="Query sequence" class="clusterblast-cluster"  >
<text x="5" y="20" class="clusterblast-acc"  >
Query sequence</text>
<line x1="10" y1="35" x2="778.0" y2="35" style="stroke-width:1; stroke:grey; "  />
<polygon points="0,35 0,30 0,40 0,35 " style="fill:#d81515; stroke-width:1; stroke:black; " description="&lt;b&gt;gene_7166&lt;/b&gt;&lt;br&gt;hypothetical protein&lt;br&gt;Location: 18965133 - 18966495" locus_tag="gene_7166" class="clusterblast-orf" id="dummy-1_q0_0_all"  />
<polygon points="47,40 48,35 47,30 47,40 " style="fill:white; stroke-width:1; stroke:black; " description="&lt;b&gt;gene_7168&lt;/b&gt;&lt;br&gt;hypothetical protein&lt;br&gt;Location: 19083543 - 19084895" locus_tag="gene_7168" class="clusterblast-orf" id="dummy-1_q1_0_all"  />
<polygon points="72,35 73,30 73,40 72,35 " style="fill:white; stroke-width:1; stroke:black; " description="&lt;b&gt;gene_7169&lt;/b&gt;&lt;br&gt;hypothetical protein&lt;br&gt;Location: 19146121 - 19146997" locus_tag="gene_7169" class="clusterblast-orf" id="dummy-1_q2_0_all"  />
<polygon points="73,35 73,30 73,40 73,35 " style="fill:white; stroke-width:1; stroke:black; " description="&lt;b&gt;gene_7170&lt;/b&gt;&lt;br&gt;hypothetical protein&lt;br&gt;Location: 19147022 - 19148750" locus_tag="gene_7170" class="clusterblast-orf" id="dummy-1_q3_0_all"  />
<polygon points="105,35 106,30 106,40 105,35 " style="fill:white; stroke-width:1; stroke:black; " description="&lt;b&gt;gene_7171&lt;/b&gt;&lt;br&gt;hypothetical protein&lt;br&gt;Location: 19228414 - 19228669" locus_tag="gene_7171" class="clusterblast-orf" id="dummy-1_q4_0_all"  />
<polygon points="122,40 123,35 122,30 122,40 " style="fill:white; stroke-width:1; stroke:black; " description="&lt;b&gt;gene_7172&lt;/b&gt;&lt;br&gt;hypothetical protein&lt;br&gt;Location: 19270644 - 19271845" locus_tag="gene_7172" class="clusterblast-orf" id="dummy-1_q5_0_all"  />
<polygon points="148,40 148,35 148,30 148,40 " style="fill:white; stroke-width:1; stroke:black; " description="&lt;b&gt;gene_7174&lt;/b&gt;&lt;br&gt;hypothetical protein&lt;br&gt;Location: 19333528 - 19335093" locus_tag="gene_7174" class="clusterblast-orf" id="dummy-1_q6_0_all"  />
<polygon points="186,40 186,35 186,30 186,40 " style="fill:white; stroke-width:1; stroke:black; " description="&lt;b&gt;gene_7175&lt;/b&gt;&lt;br&gt;hypothetical protein&lt;br&gt;Location: 19428374 - 19429006" locus_tag="gene_7175" class="clusterblast-orf" id="dummy-1_q7_0_all"  />
<polygon points="311,35 313,30 313,40 311,35 " style="fill:#77d815; stroke-width:1; stroke:black; " description="&lt;b&gt;gene_7177&lt;/b&gt;&lt;br&gt;hypothetical protein&lt;br&gt;Location: 19739908 - 19744621" locus_tag="gene_7177" class="clusterblast-orf" id="dummy-1_q8_0_all"  />
<polygon points="346,35 347,30 347,40 346,35 " style="fill:white; stroke-width:1; stroke:black; " description="&lt;b&gt;gene_7178&lt;/b&gt;&lt;br&gt;hypothetical protein&lt;br&gt;Location: 19826917 - 19828822" locus_tag="gene_7178" class="clusterblast-orf" id="dummy-1_q9_0_all"  />
<polygon points="361,35 362,30 362,40 361,35 " style="fill:white; stroke-width:1; stroke:black; " description="&lt;b&gt;gene_7179&lt;/b&gt;&lt;br&gt;hypothetical protein&lt;br&gt;Location: 19863328 - 19864618" locus_tag="gene_7179" class="clusterblast-orf" id="dummy-1_q10_0_all"  />
<polygon points="390,35 390,30 390,40 390,35 " style="fill:white; stroke-width:1; stroke:black; " description="&lt;b&gt;gene_7180&lt;/b&gt;&lt;br&gt;hypothetical protein&lt;br&gt;Location: 19934425 - 19935127" locus_tag="gene_7180" class="clusterblast-orf" id="dummy-1_q11_0_all"  />
<polygon points="390,35 390,30 390,40 390,35 " style="fill:white; stroke-width:1; stroke:black; " description="&lt;b&gt;gene_7181&lt;/b&gt;&lt;br&gt;hypothetical protein&lt;br&gt;Location: 19935328 - 19936461" locus_tag="gene_7181" class="clusterblast-orf" id="dummy-1_q12_0_all"  />
<polygon points="416,35 416,30 416,40 416,35 " style="fill:white; stroke-width:1; stroke:black; " description="&lt;b&gt;gene_7182&lt;/b&gt;&lt;br&gt;hypothetical protein&lt;br&gt;Location: 19999114 - 20001105" locus_tag="gene_7182" class="clusterblast-orf" id="dummy-1_q13_0_all"  />
<polygon points="466,40 466,35 466,30 466,40 " style="fill:white; stroke-width:1; stroke:black; " description="&lt;b&gt;gene_7184&lt;/b&gt;&lt;br&gt;hypothetical protein&lt;br&gt;Location: 20124331 - 20124715" locus_tag="gene_7184" class="clusterblast-orf" id="dummy-1_q14_0_all"  />
<polygon points="497,40 498,35 497,30 497,40 " style="fill:#15d8d8; stroke-width:1; stroke:black; " description="&lt;b&gt;gene_7185&lt;/b&gt;&lt;br&gt;hypothetical protein&lt;br&gt;Location: 20201909 - 20203487" locus_tag="gene_7185" class="clusterblast-orf" id="dummy-1_q15_0_all"  />
<polygon points="517,35 518,30 518,40 517,35 " style="fill:white; stroke-width:1; stroke:black; " description="&lt;b&gt;gene_7186&lt;/b&gt;&lt;br&gt;hypothetical protein&lt;br&gt;Location: 20250080 - 20252500" locus_tag="gene_7186" class="clusterblast-orf" id="dummy-1_q16_0_all"  />
<polygon points="633,40 634,35 633,30 633,40 " style="fill:#7715d8; stroke-width:1; stroke:black; " description="&lt;b&gt;gene_7188&lt;/b&gt;&lt;br&gt;hypothetical protein&lt;br&gt;Location: 20539055 - 20540575" locus_tag="gene_7188" class="clusterblast-orf" id="dummy-1_q17_0_all"  />
<polygon points="681,35 682,30 682,40 681,35 " style="fill:white; stroke-width:1; stroke:black; " description="&lt;b&gt;gene_7189&lt;/b&gt;&lt;br&gt;hypothetical protein&lt;br&gt;Location: 20658920 - 20660517" locus_tag="gene_7189" class="clusterblast-orf" id="dummy-1_q18_0_all"  />
<polygon points="713,35 713,30 713,40 713,35 " style="fill:white; stroke-width:1; stroke:black; " description="&lt;b&gt;gene_7190&lt;/b&gt;&lt;br&gt;hypothetical protein&lt;br&gt;Location: 20737363 - 20738626" locus_tag="gene_7190" class="clusterblast-orf" id="dummy-1_q19_0_all"  />
<polygon points="779,35 780,30 780,40 779,35 " style="fill:white; stroke-width:1; stroke:black; " description="&lt;b&gt;gene_7191&lt;/b&gt;&lt;br&gt;hypothetical protein&lt;br&gt;Location: 20901329 - 20903009" locus_tag="gene_7191" class="clusterblast-orf" id="dummy-1_q20_0_all"  />
</g>
<g label="NW_008806296" description="NW_008806296 (68100-112334): Wallemia ichthyophaga EXF-994 unplaced genomic s... (10% of genes show similarity), NRPS-like" class="clusterblast-cluster"  >
<text x="5" y="70" class="clusterblast-acc"  >
<a xlink:href="https://antismash-db.secondarymetabolites.org/area.html?record=NW_008806296&amp;start=68100&amp;end=112334" target="_blank">NW_008806296 (68100-112334)</a>: Wallemia ichthyophaga EXF-994 unplaced genomic s... (10% of genes show similarity), NRPS-like</text>
<line x1="10" y1="85" x2="778.0" y2="85" style="stroke-width:1; stroke:grey; "  />
</g>
<g id="a1_000"  >
<polygon points="381,90 381,85 381,80 381,90 " style="fill:white; stroke-width:1; stroke:black; " description="&lt;b&gt;J056_002650&lt;/b&gt;&lt;br&gt;hypothetical protein&lt;br&gt;Location: 69136 - 69885" locus_tag="J056_002650" class="clusterblast-orf" id="dummy-1_h1_1_0"  />
</g>
<g id="a1_001"  >
<polygon points="381,85 382,80 382,90 381,85 " style="fill:#d81515; stroke-width:1; stroke:black; " description="&lt;b&gt;J056_002651&lt;/b&gt;&lt;br&gt;Carboxylic acid transporter protein-like protein&lt;br&gt;Location: 69960 - 71822&lt;br&gt;&lt;br&gt;&lt;b&gt;BlastP hit with gene_7166&lt;/b&gt;&lt;br&gt;Percentage identity: 32&lt;br&gt;Percentage coverage: 94&lt;br&gt;BLAST bit score: 223&lt;br&gt;E-value: 5.7e-56" locus_tag="J056_002651" class="clusterblast-orf" id="dummy-1_h1_1_1"  />
</g>
<g id="a1_002"  >
<polygon points="382,85 382,80 382,90 382,85 " style="fill:white; stroke-width:1; stroke:black; " description="&lt;b&gt;J056_002652&lt;/b&gt;&lt;br&gt;hypothetical protein&lt;br&gt;Location: 71965 - 72957" locus_tag="J056_002652" class="clusterblast-orf" id="dummy-1_h1_1_2"  />
</g>
<g id="a1_003"  >
<polygon points="382,85 384,80 384,90 382,85 " style="fill:white; stroke-width:1; stroke:black; " description="&lt;b&gt;J056_002653&lt;/b&gt;&lt;br&gt;Tuberous sclerosis 1 protein-like protein&lt;br&gt;Location: 73048 - 75875" locus_tag="J056_002653" class="clusterblast-orf" id="dummy-1_h1_1_3"  />
</g>
<g id="a1_004"  >
<polygon points="384,85 385,80 385,90 384,85 " style="fill:white; stroke-width:1; stroke:black; " description="&lt;b&gt;J056_002654&lt;/b&gt;&lt;br&gt;Serine/threonine-protein kinase shk2&lt;br&gt;Location: 76338 - 78336" locus_tag="J056_002654" class="clusterblast-orf" id="dummy-1_h1_1_4"  />
</g>
<g id="a1_005"  >
<polygon points="385,85 386,80 386,90 385,85 " style="fill:white; stroke-width:1; stroke:black; " description="&lt;b&gt;J056_002655&lt;/b&gt;&lt;br&gt;hypothetical protein&lt;br&gt;Location: 78755 - 80630" locus_tag="J056_002655" class="clusterblast-orf" id="dummy-1_h1_1_5"  />
</g>
<g id="a1_006"  >
<polygon points="386,90 387,85 386,80 386,90 " style="fill:white; stroke-width:1; stroke:black; " description="&lt;b&gt;J056_002656&lt;/b&gt;&lt;br&gt;hypothetical protein&lt;br&gt;Location: 80803 - 83632" locus_tag="J056_002656" class="clusterblast-orf" id="dummy-1_h1_1_6"  />
</g>
<g id="a1_007"  >
<polygon points="387,85 387,80 387,90 387,85 " style="fill:white; stroke-width:1; stroke:black; " description="&lt;b&gt;J056_002657&lt;/b&gt;&lt;br&gt;Putative methyltransferase C2C4.06c&lt;br&gt;Location: 83729 - 85312" locus_tag="J056_002657" class="clusterblast-orf" id="dummy-1_h1_1_7"  />
</g>
<g id="a1_008"  >
<polygon points="387,85 388,80 388,90 387,85 " style="fill:white; stroke-width:1; stroke:black; " description="&lt;b&gt;J056_002658&lt;/b&gt;&lt;br&gt;hypothetical protein&lt;br&gt;Location: 85453 - 88019" locus_tag="J056_002658" class="clusterblast-orf" id="dummy-1_h1_1_8"  />
</g>
<g id="a1_009"  >
<polygon points="389,85 390,80 390,90 389,85 " style="fill:#77d815; stroke-width:1; stroke:black; " description="&lt;b&gt;J056_002659&lt;/b&gt;&lt;br&gt;L-aminoadipate-semialdehyde dehydrogenase&lt;br&gt;Location: 88101 - 92334&lt;br&gt;&lt;br&gt;&lt;b&gt;BlastP hit with gene_7177&lt;/b&gt;&lt;br&gt;Percentage identity: 47&lt;br&gt;Percentage coverage: 100&lt;br&gt;BLAST bit score: 1211&lt;br&gt;E-value: 0.0" locus_tag="J056_002659" class="clusterblast-orf" id="dummy-1_h1_1_9"  />
</g>
<g id="a1_0010"  >
<polygon points="390,90 391,85 390,80 390,90 " style="fill:white; stroke-width:1; stroke:black; " description="&lt;b&gt;J056_002660&lt;/b&gt;&lt;br&gt;MYND-type zinc finger protein samB&lt;br&gt;Location: 92637 - 94961" locus_tag="J056_002660" class="clusterblast-orf" id="dummy-1_h1_1_10"  />
</g>
<g id="a1_0011"  >
<polygon points="391,90 392,85 391,80 391,90 " style="fill:white; stroke-width:1; stroke:black; " description="&lt;b&gt;J056_002661&lt;/b&gt;&lt;br&gt;hypothetical protein&lt;br&gt;Location: 95137 - 95658" locus_tag="J056_002661" class="clusterblast-orf" id="dummy-1_h1_1_11"  />
</g>
<g id="a1_0012"  >
<polygon points="392,85 392,80 392,90 392,85 " style="fill:white; stroke-width:1; stroke:black; " description="&lt;b&gt;J056_002662&lt;/b&gt;&lt;br&gt;Abhydrolase domain-containing protein C22H12.03&lt;br&gt;Location: 95728 - 96465" locus_tag="J056_002662" class="clusterblast-orf" id="dummy-1_h1_1_12"  />
</g>
<g id="a1_0013"  >
<polygon points="392,90 393,85 392,80 392,90 " style="fill:white; stroke-width:1; stroke:black; " description="&lt;b&gt;J056_002663&lt;/b&gt;&lt;br&gt;RWD domain-containing protein 1&lt;br&gt;Location: 97536 - 98687" locus_tag="J056_002663" class="clusterblast-orf" id="dummy-1_h1_1_13"  />
</g>
<g id="a1_0014"  >
<polygon points="393,90 394,85 393,80 393,90 " style="fill:white; stroke-width:1; stroke:black; " description="&lt;b&gt;J056_002664&lt;/b&gt;&lt;br&gt;Serine/threonine-protein kinase ssp1&lt;br&gt;Location: 98798 - 101896" locus_tag="J056_002664" class="clusterblast-orf" id="dummy-1_h1_1_14"  />
</g>
<g id="a1_0015"  >
<polygon points="394,85 395,80 395,90 394,85 " style="fill:white; stroke-width:1; stroke:black; " description="&lt;b&gt;J056_002665&lt;/b&gt;&lt;br&gt;60S ribosomal protein L4-B&lt;br&gt;Location: 102187 - 103302" locus_tag="J056_002665" class="clusterblast-orf" id="dummy-1_h1_1_15"  />
</g>
<g id="a1_0016"  >
<polygon points="395,85 395,80 395,90 395,85 " style="fill:white; stroke-width:1; stroke:black; " description="&lt;b&gt;J056_002666&lt;/b&gt;&lt;br&gt;putative methyltransferase C2A9.10&lt;br&gt;Location: 103522 - 104544" locus_tag="J056_002666" class="clusterblast-orf" id="dummy-1_h1_1_16"  />
</g>
<g id="a1_0017"  >
<polygon points="395,90 396,85 395,80 395,90 " style="fill:white; stroke-width:1; stroke:black; " description="&lt;b&gt;J056_002667&lt;/b&gt;&lt;br&gt;hypothetical protein&lt;br&gt;Location: 104589 - 106423" locus_tag="J056_002667" class="clusterblast-orf" id="dummy-1_h1_1_17"  />
</g>
<g id="a1_0018"  >
<polygon points="396,90 397,85 396,80 396,90 " style="fill:white; stroke-width:1; stroke:black; " description="&lt;b&gt;J056_002668&lt;/b&gt;&lt;br&gt;Ribosome biosis protein RLP24&lt;br&gt;Location: 107158 - 108941" locus_tag="J056_002668" class="clusterblast-orf" id="dummy-1_h1_1_18"  />
</g>
<g id="a1_0019"  >
<polygon points="397,85 398,80 398,90 397,85 " style="fill:white; stroke-width:1; stroke:black; " description="&lt;b&gt;J056_002669&lt;/b&gt;&lt;br&gt;Stress-activated map kinase-interacting protein 1&lt;br&gt;Location: 109059 - 111957" locus_tag="J056_002669" class="clusterblast-orf" id="dummy-1_h1_1_19"  />
</g>
</svg>
