<svg xmlns="http://www.w3.org/2000/svg" xmlns:xlink="http://www.w3.org/1999/xlink" version="1.1" x="0" y="0" height="50" width="800" viewBox="0 0 800 50" preserveAspectRatio="none"  >
<g label="Query sequence" class="clusterblast-cluster"  >
<text x="5" y="20" class="clusterblast-acc"  >
Query sequence</text>
<line x1="10" y1="35" x2="778.0" y2="35" style="stroke-width:1; stroke:grey; "  />
<polygon points="0,40 1,35 0,30 0,40 " style="fill:white; stroke-width:1; stroke:black; " description="&lt;b&gt;gene_8684&lt;/b&gt;&lt;br&gt;hypothetical protein&lt;br&gt;Location: 9065269 - 9066004" locus_tag="gene_8684" class="clusterblast-orf" id="knownclusterblast-1_q0_0_all"  />
<polygon points="75,40 77,35 75,30 75,40 " style="fill:white; stroke-width:1; stroke:black; " description="&lt;b&gt;gene_8685&lt;/b&gt;&lt;br&gt;hypothetical protein&lt;br&gt;Location: 9115708 - 9116947" locus_tag="gene_8685" class="clusterblast-orf" id="knownclusterblast-1_q1_0_all"  />
<polygon points="181,40 181,40 186,35 181,30 181,30 181,40 " style="fill:white; stroke-width:1; stroke:black; " description="&lt;b&gt;gene_8686&lt;/b&gt;&lt;br&gt;hypothetical protein&lt;br&gt;Location: 9185989 - 9189070" locus_tag="gene_8686" class="clusterblast-orf" id="knownclusterblast-1_q2_0_all"  />
<polygon points="275,35 278,30 278,40 275,35 " style="fill:white; stroke-width:1; stroke:black; " description="&lt;b&gt;gene_8687&lt;/b&gt;&lt;br&gt;hypothetical protein&lt;br&gt;Location: 9248489 - 9250108" locus_tag="gene_8687" class="clusterblast-orf" id="knownclusterblast-1_q3_0_all"  />
<polygon points="393,35 397,30 397,40 393,35 " style="fill:white; stroke-width:1; stroke:black; " description="&lt;b&gt;gene_8688&lt;/b&gt;&lt;br&gt;hypothetical protein&lt;br&gt;Location: 9326958 - 9329831" locus_tag="gene_8688" class="clusterblast-orf" id="knownclusterblast-1_q4_0_all"  />
<polygon points="537,35 542,30 543,30 543,40 542,40 537,35 " style="fill:white; stroke-width:1; stroke:black; " description="&lt;b&gt;gene_8689&lt;/b&gt;&lt;br&gt;hypothetical protein&lt;br&gt;Location: 9422778 - 9426359" locus_tag="gene_8689" class="clusterblast-orf" id="knownclusterblast-1_q5_0_all"  />
<polygon points="613,35 618,30 618,30 618,40 618,40 613,35 " style="fill:white; stroke-width:1; stroke:black; " description="&lt;b&gt;gene_8690&lt;/b&gt;&lt;br&gt;hypothetical protein&lt;br&gt;Location: 9473246 - 9476738" locus_tag="gene_8690" class="clusterblast-orf" id="knownclusterblast-1_q6_0_all"  />
<polygon points="779,40 780,35 779,30 779,40 " style="fill:white; stroke-width:1; stroke:black; " description="&lt;b&gt;gene_8691&lt;/b&gt;&lt;br&gt;hypothetical protein&lt;br&gt;Location: 9583444 - 9583852" locus_tag="gene_8691" class="clusterblast-orf" id="knownclusterblast-1_q7_0_all"  />
</g>
</svg>
