<svg xmlns="http://www.w3.org/2000/svg" xmlns:xlink="http://www.w3.org/1999/xlink" version="1.1" x="0" y="0" height="230" width="800" viewBox="0 0 800 230" preserveAspectRatio="none"  >
<g label="Query sequence" class="clusterblast-cluster"  >
<text x="5" y="20" class="clusterblast-acc"  >
Query sequence</text>
<line x1="10" y1="35" x2="778.0" y2="35" style="stroke-width:1; stroke:grey; "  />
<polygon points="0,35 5,30 33,30 33,40 5,40 0,35 " style="fill:white; stroke-width:1; stroke:black; " description="&lt;b&gt;gene_7712&lt;/b&gt;&lt;br&gt;hypothetical protein&lt;br&gt;Location: 16591 - 16978" locus_tag="gene_7712" class="clusterblast-orf" id="dummy-1_q0_0_all"  />
<polygon points="183,35 188,30 334,30 334,40 188,40 183,35 " style="fill:#d81515; stroke-width:1; stroke:black; " description="&lt;b&gt;gene_7713&lt;/b&gt;&lt;br&gt;hypothetical protein&lt;br&gt;Location: 18773 - 20585" locus_tag="gene_7713" class="clusterblast-orf" id="dummy-1_q1_0_all"  />
<polygon points="455,40 549,40 554,35 549,30 455,30 455,40 " style="fill:white; stroke-width:1; stroke:black; " description="&lt;b&gt;gene_7714&lt;/b&gt;&lt;br&gt;hypothetical protein&lt;br&gt;Location: 22033 - 23213" locus_tag="gene_7714" class="clusterblast-orf" id="dummy-1_q2_0_all"  />
<polygon points="634,40 775,40 780,35 775,30 634,30 634,40 " style="fill:#d81515; stroke-width:1; stroke:black; " description="&lt;b&gt;gene_7715&lt;/b&gt;&lt;br&gt;hypothetical protein&lt;br&gt;Location: 24180 - 25926" locus_tag="gene_7715" class="clusterblast-orf" id="dummy-1_q3_0_all"  />
</g>
<g label="NW_006267366" description="NW_006267366 (1141250-1156888): Agaricus bisporus var. bisporus H97 unplaced ... (50% of genes show similarity), siderophore" class="clusterblast-cluster"  >
<text x="5" y="70" class="clusterblast-acc"  >
<a xlink:href="https://antismash-db.secondarymetabolites.org/area.html?record=NW_006267366&amp;start=1141250&amp;end=1156888" target="_blank">NW_006267366 (1141250-1156888)</a>: Agaricus bisporus var. bisporus H97 unplaced ... (50% of genes show similarity), siderophore</text>
<line x1="10" y1="85" x2="778.0" y2="85" style="stroke-width:1; stroke:grey; "  />
</g>
<g id="a1_000"  >
<polygon points="36,90 214,90 219,85 214,80 36,80 36,90 " style="fill:#d81515; stroke-width:1; stroke:black; " description="&lt;b&gt;AGABI2DRAFT_183956&lt;/b&gt;&lt;br&gt;hypothetical protein&lt;br&gt;Location: 1151888 - 1149691&lt;br&gt;&lt;br&gt;&lt;b&gt;BlastP hit with gene_7713&lt;/b&gt;&lt;br&gt;Percentage identity: 35&lt;br&gt;Percentage coverage: 77&lt;br&gt;BLAST bit score: 253&lt;br&gt;E-value: 6.8e-65&lt;br&gt;&lt;br&gt;&lt;b&gt;BlastP hit with gene_7715&lt;/b&gt;&lt;br&gt;Percentage identity: 32&lt;br&gt;Percentage coverage: 106&lt;br&gt;BLAST bit score: 284&lt;br&gt;E-value: 2e-74" locus_tag="AGABI2DRAFT_183956" class="clusterblast-orf" id="dummy-1_h1_1_0"  />
</g>
<g id="a1_001"  >
<polygon points="323,90 502,90 507,85 502,80 323,80 323,90 " style="fill:#d81515; stroke-width:1; stroke:black; " description="&lt;b&gt;AGABI2DRAFT_218206&lt;/b&gt;&lt;br&gt;hypothetical protein&lt;br&gt;Location: 1148447 - 1146251&lt;br&gt;&lt;br&gt;&lt;b&gt;BlastP hit with gene_7715&lt;/b&gt;&lt;br&gt;Percentage identity: 31&lt;br&gt;Percentage coverage: 105&lt;br&gt;BLAST bit score: 265&lt;br&gt;E-value: 1.3e-68" locus_tag="AGABI2DRAFT_218206" class="clusterblast-orf" id="dummy-1_h1_1_1"  />
</g>
<g id="a1_002"  >
<polygon points="531,90 647,90 652,85 647,80 531,80 531,90 " style="fill:white; stroke-width:1; stroke:black; " description="&lt;b&gt;AGABI2DRAFT_218205&lt;/b&gt;&lt;br&gt;hypothetical protein&lt;br&gt;Location: 1145953 - 1144508" locus_tag="AGABI2DRAFT_218205" class="clusterblast-orf" id="dummy-1_h1_1_2"  />
</g>
<g id="a1_003"  >
<polygon points="659,85 664,80 743,80 743,90 664,90 659,85 " style="fill:white; stroke-width:1; stroke:black; " description="&lt;b&gt;AGABI2DRAFT_66531&lt;/b&gt;&lt;br&gt;hypothetical protein&lt;br&gt;Location: 1144430 - 1143415" locus_tag="AGABI2DRAFT_66531" class="clusterblast-orf" id="dummy-1_h1_1_3"  />
</g>
</svg>
