<svg xmlns="http://www.w3.org/2000/svg" xmlns:xlink="http://www.w3.org/1999/xlink" version="1.1" x="0" y="0" height="50" width="800" viewBox="0 0 800 50" preserveAspectRatio="none"  >
<g label="Query sequence" class="clusterblast-cluster"  >
<text x="5" y="20" class="clusterblast-acc"  >
Query sequence</text>
<line x1="10" y1="35" x2="778.0" y2="35" style="stroke-width:1; stroke:grey; "  />
<polygon points="0,35 5,30 18,30 18,40 5,40 0,35 " style="fill:white; stroke-width:1; stroke:black; " description="&lt;b&gt;gene_5551&lt;/b&gt;&lt;br&gt;hypothetical protein&lt;br&gt;Location: 32547 - 33483" locus_tag="gene_5551" class="clusterblast-orf" id="knownclusterblast-1_q0_0_all"  />
<polygon points="21,40 25,35 21,30 21,40 " style="fill:white; stroke-width:1; stroke:black; " description="&lt;b&gt;gene_5552&lt;/b&gt;&lt;br&gt;hypothetical protein&lt;br&gt;Location: 33663 - 33888" locus_tag="gene_5552" class="clusterblast-orf" id="knownclusterblast-1_q1_0_all"  />
<polygon points="27,35 32,30 88,30 88,40 32,40 27,35 " style="fill:white; stroke-width:1; stroke:black; " description="&lt;b&gt;gene_5553&lt;/b&gt;&lt;br&gt;hypothetical protein&lt;br&gt;Location: 33974 - 37192" locus_tag="gene_5553" class="clusterblast-orf" id="knownclusterblast-1_q2_0_all"  />
<polygon points="106,40 147,40 152,35 147,30 106,30 106,40 " style="fill:white; stroke-width:1; stroke:black; " description="&lt;b&gt;gene_5554&lt;/b&gt;&lt;br&gt;hypothetical protein&lt;br&gt;Location: 38089 - 40539" locus_tag="gene_5554" class="clusterblast-orf" id="knownclusterblast-1_q3_0_all"  />
<polygon points="158,35 163,30 187,30 187,40 163,40 158,35 " style="fill:white; stroke-width:1; stroke:black; " description="&lt;b&gt;gene_5555&lt;/b&gt;&lt;br&gt;hypothetical protein&lt;br&gt;Location: 40805 - 42323" locus_tag="gene_5555" class="clusterblast-orf" id="knownclusterblast-1_q4_0_all"  />
<polygon points="217,35 222,30 225,30 225,40 222,40 217,35 " style="fill:white; stroke-width:1; stroke:black; " description="&lt;b&gt;gene_5556&lt;/b&gt;&lt;br&gt;hypothetical protein&lt;br&gt;Location: 43900 - 44317" locus_tag="gene_5556" class="clusterblast-orf" id="knownclusterblast-1_q5_0_all"  />
<polygon points="280,40 304,40 309,35 304,30 280,30 280,40 " style="fill:white; stroke-width:1; stroke:black; " description="&lt;b&gt;gene_5557&lt;/b&gt;&lt;br&gt;hypothetical protein&lt;br&gt;Location: 47232 - 48732" locus_tag="gene_5557" class="clusterblast-orf" id="knownclusterblast-1_q6_0_all"  />
<polygon points="328,35 333,30 388,30 388,40 333,40 328,35 " style="fill:white; stroke-width:1; stroke:black; " description="&lt;b&gt;gene_5558&lt;/b&gt;&lt;br&gt;hypothetical protein&lt;br&gt;Location: 49748 - 52889" locus_tag="gene_5558" class="clusterblast-orf" id="knownclusterblast-1_q7_0_all"  />
<polygon points="452,35 457,30 472,30 472,40 457,40 452,35 " style="fill:white; stroke-width:1; stroke:black; " description="&lt;b&gt;gene_5559&lt;/b&gt;&lt;br&gt;hypothetical protein&lt;br&gt;Location: 56200 - 57255" locus_tag="gene_5559" class="clusterblast-orf" id="knownclusterblast-1_q8_0_all"  />
<polygon points="486,35 491,30 548,30 548,40 491,40 486,35 " style="fill:white; stroke-width:1; stroke:black; " description="&lt;b&gt;gene_5560&lt;/b&gt;&lt;br&gt;hypothetical protein&lt;br&gt;Location: 57983 - 61250" locus_tag="gene_5560" class="clusterblast-orf" id="knownclusterblast-1_q9_0_all"  />
<polygon points="573,35 578,30 594,30 594,40 578,40 573,35 " style="fill:white; stroke-width:1; stroke:black; " description="&lt;b&gt;gene_5561&lt;/b&gt;&lt;br&gt;hypothetical protein&lt;br&gt;Location: 62533 - 63640" locus_tag="gene_5561" class="clusterblast-orf" id="knownclusterblast-1_q10_0_all"  />
<polygon points="638,35 643,30 652,30 652,40 643,40 638,35 " style="fill:white; stroke-width:1; stroke:black; " description="&lt;b&gt;gene_5562&lt;/b&gt;&lt;br&gt;hypothetical protein&lt;br&gt;Location: 65920 - 66703" locus_tag="gene_5562" class="clusterblast-orf" id="knownclusterblast-1_q11_0_all"  />
<polygon points="676,35 681,30 698,30 698,40 681,40 676,35 " style="fill:white; stroke-width:1; stroke:black; " description="&lt;b&gt;gene_5563&lt;/b&gt;&lt;br&gt;hypothetical protein&lt;br&gt;Location: 67954 - 69073" locus_tag="gene_5563" class="clusterblast-orf" id="knownclusterblast-1_q12_0_all"  />
<polygon points="724,40 738,40 743,35 738,30 724,30 724,40 " style="fill:white; stroke-width:1; stroke:black; " description="&lt;b&gt;gene_5564&lt;/b&gt;&lt;br&gt;hypothetical protein&lt;br&gt;Location: 70441 - 71437" locus_tag="gene_5564" class="clusterblast-orf" id="knownclusterblast-1_q13_0_all"  />
<polygon points="773,40 775,40 780,35 775,30 773,30 773,40 " style="fill:white; stroke-width:1; stroke:black; " description="&lt;b&gt;gene_5565&lt;/b&gt;&lt;br&gt;hypothetical protein&lt;br&gt;Location: 72986 - 73359" locus_tag="gene_5565" class="clusterblast-orf" id="knownclusterblast-1_q14_0_all"  />
</g>
</svg>
