<svg xmlns="http://www.w3.org/2000/svg" xmlns:xlink="http://www.w3.org/1999/xlink" version="1.1" x="0" y="0" height="230" width="800" viewBox="0 0 800 230" preserveAspectRatio="none"  >
<g label="Query sequence" class="clusterblast-cluster"  >
<text x="5" y="20" class="clusterblast-acc"  >
Query sequence</text>
<line x1="10" y1="35" x2="778.0" y2="35" style="stroke-width:1; stroke:grey; "  />
<polygon points="358,40 413,40 418,35 413,30 358,30 358,40 " style="fill:#d81515; stroke-width:1; stroke:black; " description="&lt;b&gt;DSO57v2_018976_ncbi_DSO57v2_018976-T3&lt;/b&gt;&lt;br&gt;hypothetical protein&lt;br&gt;Location: 319190 - 320742" locus_tag="DSO57v2_018976_ncbi_DSO57v2_018976-T3" class="clusterblast-orf" id="dummy-1_q0_0_all"  />
<polygon points="358,40 417,40 422,35 417,30 358,30 358,40 " style="fill:#d81515; stroke-width:1; stroke:black; " description="&lt;b&gt;DSO57v2_018976&lt;/b&gt;&lt;br&gt;hypothetical protein&lt;br&gt;Location: 319190 - 320839" locus_tag="DSO57v2_018976" class="clusterblast-orf" id="dummy-1_q1_0_all"  />
<polygon points="371,40 417,40 422,35 417,30 371,30 371,40 " style="fill:#d81515; stroke-width:1; stroke:black; " description="&lt;b&gt;DSO57v2_018976_ncbi_DSO57v2_018976-T2&lt;/b&gt;&lt;br&gt;hypothetical protein&lt;br&gt;Location: 319537 - 320839" locus_tag="DSO57v2_018976_ncbi_DSO57v2_018976-T2" class="clusterblast-orf" id="dummy-1_q2_0_all"  />
</g>
<g label="NC_006685" description="NC_006685 (1671729-1693643): Cryptococcus neoformans var. neoformans JEC21 ch... (22% of genes show similarity), terpene" class="clusterblast-cluster"  >
<text x="5" y="70" class="clusterblast-acc"  >
<a xlink:href="https://antismash-db.secondarymetabolites.org/area.html?record=NC_006685&amp;start=1671729&amp;end=1693643" target="_blank">NC_006685 (1671729-1693643)</a>: Cryptococcus neoformans var. neoformans JEC21 ch... (22% of genes show similarity), terpene</text>
<line x1="10" y1="85" x2="778.0" y2="85" style="stroke-width:1; stroke:grey; "  />
</g>
<g id="a1_000"  >
<polygon points="0,90 12,90 17,85 12,80 0,80 0,90 " style="fill:white; stroke-width:1; stroke:black; " description="&lt;b&gt;CNC05610&lt;/b&gt;&lt;br&gt;hypothetical protein&lt;br&gt;Location: 1672419 - 1672876" locus_tag="CNC05610" class="clusterblast-orf" id="dummy-1_h1_4_0"  />
</g>
<g id="a1_001"  >
<polygon points="36,85 41,80 218,80 218,90 41,90 36,85 " style="fill:white; stroke-width:1; stroke:black; " description="&lt;b&gt;CNC05620&lt;/b&gt;&lt;br&gt;conserved hypothetical protein&lt;br&gt;Location: 1673357 - 1677987" locus_tag="CNC05620" class="clusterblast-orf" id="dummy-1_h1_4_1"  />
</g>
<g id="a1_002"  >
<polygon points="252,90 278,90 283,85 278,80 252,80 252,90 " style="fill:white; stroke-width:1; stroke:black; " description="&lt;b&gt;CNC05640&lt;/b&gt;&lt;br&gt;expressed protein&lt;br&gt;Location: 1678861 - 1679634" locus_tag="CNC05640" class="clusterblast-orf" id="dummy-1_h1_4_2"  />
</g>
<g id="a1_003"  >
<polygon points="288,85 293,80 355,80 355,90 293,90 288,85 " style="fill:white; stroke-width:1; stroke:black; " description="&lt;b&gt;CNC05650&lt;/b&gt;&lt;br&gt;conserved hypothetical protein&lt;br&gt;Location: 1679774 - 1681476" locus_tag="CNC05650" class="clusterblast-orf" id="dummy-1_h1_4_3"  />
</g>
<g id="a1_004"  >
<polygon points="365,90 435,90 440,85 435,80 365,80 365,90 " style="fill:#d81515; stroke-width:1; stroke:black; " description="&lt;b&gt;CNC05660_XP_569782.2&lt;/b&gt;&lt;br&gt;farnesyl-diphosphate farnesyltransferase, putative&lt;br&gt;Location: 1681730 - 1683643&lt;br&gt;&lt;br&gt;&lt;b&gt;BlastP hit with DSO57v2_018976_ncbi_DSO57v2_018976-T3&lt;/b&gt;&lt;br&gt;Percentage identity: 45&lt;br&gt;Percentage coverage: 86&lt;br&gt;BLAST bit score: 287&lt;br&gt;E-value: 2.1e-75&lt;br&gt;&lt;br&gt;&lt;b&gt;BlastP hit with DSO57v2_018976&lt;/b&gt;&lt;br&gt;Percentage identity: 44&lt;br&gt;Percentage coverage: 92&lt;br&gt;BLAST bit score: 303&lt;br&gt;E-value: 3.9e-80&lt;br&gt;&lt;br&gt;&lt;b&gt;BlastP hit with DSO57v2_018976_ncbi_DSO57v2_018976-T2&lt;/b&gt;&lt;br&gt;Percentage identity: 43&lt;br&gt;Percentage coverage: 90&lt;br&gt;BLAST bit score: 237&lt;br&gt;E-value: 1.6e-60" locus_tag="CNC05660_XP_569782.2" class="clusterblast-orf" id="dummy-1_h1_4_4"  />
</g>
<g id="a1_005"  >
<polygon points="365,90 435,90 440,85 435,80 365,80 365,90 " style="fill:#d81515; stroke-width:1; stroke:black; " description="&lt;b&gt;CNC05660&lt;/b&gt;&lt;br&gt;farnesyl-diphosphate farnesyltransferase, putative&lt;br&gt;Location: 1681730 - 1683643&lt;br&gt;&lt;br&gt;&lt;b&gt;BlastP hit with DSO57v2_018976_ncbi_DSO57v2_018976-T3&lt;/b&gt;&lt;br&gt;Percentage identity: 45&lt;br&gt;Percentage coverage: 86&lt;br&gt;BLAST bit score: 287&lt;br&gt;E-value: 2.1e-75&lt;br&gt;&lt;br&gt;&lt;b&gt;BlastP hit with DSO57v2_018976&lt;/b&gt;&lt;br&gt;Percentage identity: 44&lt;br&gt;Percentage coverage: 92&lt;br&gt;BLAST bit score: 303&lt;br&gt;E-value: 3.9e-80&lt;br&gt;&lt;br&gt;&lt;b&gt;BlastP hit with DSO57v2_018976_ncbi_DSO57v2_018976-T2&lt;/b&gt;&lt;br&gt;Percentage identity: 43&lt;br&gt;Percentage coverage: 90&lt;br&gt;BLAST bit score: 237&lt;br&gt;E-value: 1.6e-60" locus_tag="CNC05660" class="clusterblast-orf" id="dummy-1_h1_4_5"  />
</g>
<g id="a1_006"  >
<polygon points="452,90 537,90 542,85 537,80 452,80 452,90 " style="fill:white; stroke-width:1; stroke:black; " description="&lt;b&gt;CNC05670&lt;/b&gt;&lt;br&gt;X-Pro aminopeptidase, putative&lt;br&gt;Location: 1683945 - 1686243" locus_tag="CNC05670" class="clusterblast-orf" id="dummy-1_h1_4_6"  />
</g>
<g id="a1_007"  >
<polygon points="590,90 667,90 672,85 667,80 590,80 590,90 " style="fill:white; stroke-width:1; stroke:black; " description="&lt;b&gt;CNC05680&lt;/b&gt;&lt;br&gt;expressed protein&lt;br&gt;Location: 1687474 - 1689561" locus_tag="CNC05680" class="clusterblast-orf" id="dummy-1_h1_4_7"  />
</g>
<g id="a1_008"  >
<polygon points="680,85 685,80 780,80 780,90 685,90 680,85 " style="fill:white; stroke-width:1; stroke:black; " description="&lt;b&gt;CNC05690&lt;/b&gt;&lt;br&gt;ferroxidase, putative&lt;br&gt;Location: 1689766 - 1692301" locus_tag="CNC05690" class="clusterblast-orf" id="dummy-1_h1_4_8"  />
</g>
</svg>
