<svg xmlns="http://www.w3.org/2000/svg" xmlns:xlink="http://www.w3.org/1999/xlink" version="1.1" x="0" y="0" height="230" width="800" viewBox="0 0 800 230" preserveAspectRatio="none"  >
<g label="Query sequence" class="clusterblast-cluster"  >
<text x="5" y="20" class="clusterblast-acc"  >
Query sequence</text>
<line x1="10" y1="35" x2="778.0" y2="35" style="stroke-width:1; stroke:grey; "  />
<polygon points="237,35 242,30 246,30 246,40 242,40 237,35 " style="fill:#d81515; stroke-width:1; stroke:black; " description="&lt;b&gt;MCIC6FC_002123&lt;/b&gt;&lt;br&gt;hypothetical protein&lt;br&gt;Location: 121 - 848" locus_tag="MCIC6FC_002123" class="clusterblast-orf" id="dummy-1_q0_0_all"  />
<polygon points="248,40 253,40 258,35 253,30 248,30 248,40 " style="fill:white; stroke-width:1; stroke:black; " description="&lt;b&gt;MCIC6FC_002124&lt;/b&gt;&lt;br&gt;hypothetical protein&lt;br&gt;Location: 1018 - 1774" locus_tag="MCIC6FC_002124" class="clusterblast-orf" id="dummy-1_q1_0_all"  />
<polygon points="262,35 267,30 284,30 284,40 267,40 262,35 " style="fill:white; stroke-width:1; stroke:black; " description="&lt;b&gt;MCIC6FC_002125&lt;/b&gt;&lt;br&gt;hypothetical protein&lt;br&gt;Location: 2041 - 3727" locus_tag="MCIC6FC_002125" class="clusterblast-orf" id="dummy-1_q2_0_all"  />
<polygon points="288,35 293,30 299,30 299,40 293,40 288,35 " style="fill:#77d815; stroke-width:1; stroke:black; " description="&lt;b&gt;MCIC6FC_002126&lt;/b&gt;&lt;br&gt;hypothetical protein&lt;br&gt;Location: 4035 - 4825" locus_tag="MCIC6FC_002126" class="clusterblast-orf" id="dummy-1_q3_0_all"  />
<polygon points="302,40 437,40 442,35 437,30 302,30 302,40 " style="fill:#15d8d8; stroke-width:1; stroke:black; " description="&lt;b&gt;MCIC6FC_002127&lt;/b&gt;&lt;br&gt;hypothetical protein&lt;br&gt;Location: 5057 - 15635" locus_tag="MCIC6FC_002127" class="clusterblast-orf" id="dummy-1_q4_0_all"  />
<polygon points="443,35 448,30 454,30 454,40 448,40 443,35 " style="fill:#7715d8; stroke-width:1; stroke:black; " description="&lt;b&gt;MCIC6FC_002128&lt;/b&gt;&lt;br&gt;hypothetical protein&lt;br&gt;Location: 15728 - 16598" locus_tag="MCIC6FC_002128" class="clusterblast-orf" id="dummy-1_q5_0_all"  />
<polygon points="456,40 469,40 474,35 469,30 456,30 456,40 " style="fill:#d8a715; stroke-width:1; stroke:black; " description="&lt;b&gt;MCIC6FC_002129&lt;/b&gt;&lt;br&gt;hypothetical protein&lt;br&gt;Location: 16700 - 18073" locus_tag="MCIC6FC_002129" class="clusterblast-orf" id="dummy-1_q6_0_all"  />
<polygon points="482,40 493,40 498,35 493,30 482,30 482,40 " style="fill:white; stroke-width:1; stroke:black; " description="&lt;b&gt;MCIC6FC_002130&lt;/b&gt;&lt;br&gt;hypothetical protein&lt;br&gt;Location: 18704 - 19908" locus_tag="MCIC6FC_002130" class="clusterblast-orf" id="dummy-1_q7_0_all"  />
<polygon points="499,35 504,30 519,30 519,40 504,40 499,35 " style="fill:#15d846; stroke-width:1; stroke:black; " description="&lt;b&gt;MCIC6FC_002131&lt;/b&gt;&lt;br&gt;hypothetical protein&lt;br&gt;Location: 19975 - 21492" locus_tag="MCIC6FC_002131" class="clusterblast-orf" id="dummy-1_q8_0_all"  />
<polygon points="521,40 533,40 538,35 533,30 521,30 521,40 " style="fill:#1546d8; stroke-width:1; stroke:black; " description="&lt;b&gt;MCIC6FC_002132&lt;/b&gt;&lt;br&gt;hypothetical protein&lt;br&gt;Location: 21620 - 22910" locus_tag="MCIC6FC_002132" class="clusterblast-orf" id="dummy-1_q9_0_all"  />
<polygon points="538,40 538,40 543,35 538,30 538,30 538,40 " style="fill:#d815a7; stroke-width:1; stroke:black; " description="&lt;b&gt;MCIC6FC_002133&lt;/b&gt;&lt;br&gt;hypothetical protein&lt;br&gt;Location: 22934 - 23272" locus_tag="MCIC6FC_002133" class="clusterblast-orf" id="dummy-1_q10_0_all"  />
</g>
<g label="NZ_SZZZ01000003" description="NZ_SZZZ01000003 (180548-241196): Pantoea sp. Taur Taurocerus sp symbiont cont... (3% of genes show similarity), acyl_amino_acids" class="clusterblast-cluster"  >
<text x="5" y="70" class="clusterblast-acc"  >
<a xlink:href="https://antismash-db.secondarymetabolites.org/area.html?record=NZ_SZZZ01000003&amp;start=180548&amp;end=241196" target="_blank">NZ_SZZZ01000003 (180548-241196)</a>: Pantoea sp. Taur Taurocerus sp symbiont cont... (3% of genes show similarity), acyl_amino_acids</text>
<line x1="10" y1="85" x2="778.0" y2="85" style="stroke-width:1; stroke:grey; "  />
</g>
<g id="a1_000"  >
<polygon points="0,90 21,90 26,85 21,80 0,80 0,90 " style="fill:white; stroke-width:1; stroke:black; " description="&lt;b&gt;FD744_RS05720&lt;/b&gt;&lt;br&gt;bifunctional UDP-4-amino-4-deoxy-L-arabinose formyltransferase/UDP-glucuronic acid oxidase ArnA&lt;br&gt;Location: 240834 - 238855" locus_tag="FD744_RS05720" class="clusterblast-orf" id="dummy-1_h1_8_0"  />
</g>
<g id="a1_001"  >
<polygon points="26,90 32,90 37,85 32,80 26,80 26,90 " style="fill:white; stroke-width:1; stroke:black; " description="&lt;b&gt;FD744_RS05715&lt;/b&gt;&lt;br&gt;4-deoxy-4-formamido-L-arabinose- phosphoundecaprenol deformylase&lt;br&gt;Location: 238858 - 237974" locus_tag="FD744_RS05715" class="clusterblast-orf" id="dummy-1_h1_8_1"  />
</g>
<g id="a1_002"  >
<polygon points="38,90 55,90 60,85 55,80 38,80 38,90 " style="fill:white; stroke-width:1; stroke:black; " description="&lt;b&gt;FD744_RS05710&lt;/b&gt;&lt;br&gt;lipid IV(A) 4-amino-4-deoxy-L-arabinosyltransferase&lt;br&gt;Location: 237942 - 236281" locus_tag="FD744_RS05710" class="clusterblast-orf" id="dummy-1_h1_8_2"  />
</g>
<g id="a1_003"  >
<polygon points="60,90 64,85 60,80 60,90 " style="fill:white; stroke-width:1; stroke:black; " description="&lt;b&gt;FD744_RS05705&lt;/b&gt;&lt;br&gt;4-amino-4-deoxy-L-arabinose-phosphoundecaprenol flippase subunit ArnE&lt;br&gt;Location: 236284 - 235952" locus_tag="FD744_RS05705" class="clusterblast-orf" id="dummy-1_h1_8_3"  />
</g>
<g id="a1_004"  >
<polygon points="64,90 64,90 69,85 64,80 64,80 64,90 " style="fill:white; stroke-width:1; stroke:black; " description="&lt;b&gt;FD744_RS05700&lt;/b&gt;&lt;br&gt;4-amino-4-deoxy-L-arabinose-phospho-UDP flippase&lt;br&gt;Location: 235955 - 235581" locus_tag="FD744_RS05700" class="clusterblast-orf" id="dummy-1_h1_8_4"  />
</g>
<g id="a1_005"  >
<polygon points="70,85 75,80 85,80 85,90 75,90 70,85 " style="fill:white; stroke-width:1; stroke:black; " description="&lt;b&gt;FD744_RS05695&lt;/b&gt;&lt;br&gt;alpha-hydroxy-acid oxidizing protein&lt;br&gt;Location: 235494 - 234337" locus_tag="FD744_RS05695" class="clusterblast-orf" id="dummy-1_h1_8_5"  />
</g>
<g id="a1_006"  >
<polygon points="87,85 92,80 105,80 105,90 92,90 87,85 " style="fill:white; stroke-width:1; stroke:black; " description="&lt;b&gt;FD744_RS05690&lt;/b&gt;&lt;br&gt;MHS family MFS transporter&lt;br&gt;Location: 234201 - 232858" locus_tag="FD744_RS05690" class="clusterblast-orf" id="dummy-1_h1_8_6"  />
</g>
<g id="a1_007"  >
<polygon points="113,90 181,90 186,85 181,80 113,80 113,90 " style="fill:white; stroke-width:1; stroke:black; " description="&lt;b&gt;FD744_RS05685&lt;/b&gt;&lt;br&gt;autotransporter outer membrane beta-barrel domain-containing protein&lt;br&gt;Location: 232277 - 226728" locus_tag="FD744_RS05685" class="clusterblast-orf" id="dummy-1_h1_8_7"  />
</g>
<g id="a1_008"  >
<polygon points="190,90 204,90 209,85 204,80 190,80 190,90 " style="fill:#15d8d8; stroke-width:1; stroke:black; " description="&lt;b&gt;FD744_RS05680&lt;/b&gt;&lt;br&gt;sugar porter family MFS transporter&lt;br&gt;Location: 226407 - 224962&lt;br&gt;&lt;br&gt;&lt;b&gt;BlastP hit with MCIC6FC_002127&lt;/b&gt;&lt;br&gt;Percentage identity: 37&lt;br&gt;Percentage coverage: 16&lt;br&gt;BLAST bit score: 277&lt;br&gt;E-value: 1.6e-71" locus_tag="FD744_RS05680" class="clusterblast-orf" id="dummy-1_h1_8_8"  />
</g>
<g id="a1_009"  >
<polygon points="211,90 217,90 222,85 217,80 211,80 211,90 " style="fill:white; stroke-width:1; stroke:black; " description="&lt;b&gt;FD744_RS05675&lt;/b&gt;&lt;br&gt;TIM barrel protein&lt;br&gt;Location: 224817 - 223996" locus_tag="FD744_RS05675" class="clusterblast-orf" id="dummy-1_h1_8_9"  />
</g>
<g id="a1_0010"  >
<polygon points="223,90 231,90 236,85 231,80 223,80 223,90 " style="fill:white; stroke-width:1; stroke:black; " description="&lt;b&gt;FD744_RS05670&lt;/b&gt;&lt;br&gt;Gfo/Idh/MocA family oxidoreductase&lt;br&gt;Location: 223962 - 222952" locus_tag="FD744_RS05670" class="clusterblast-orf" id="dummy-1_h1_8_10"  />
</g>
<g id="a1_0011"  >
<polygon points="240,90 242,85 240,80 240,90 " style="fill:white; stroke-width:1; stroke:black; " description="&lt;b&gt;FD744_RS05665&lt;/b&gt;&lt;br&gt;hypothetical protein&lt;br&gt;Location: 222661 - 222467" locus_tag="FD744_RS05665" class="clusterblast-orf" id="dummy-1_h1_8_11"  />
</g>
<g id="a1_0012"  >
<polygon points="242,90 248,90 253,85 248,80 242,80 242,90 " style="fill:white; stroke-width:1; stroke:black; " description="&lt;b&gt;FD744_RS05660&lt;/b&gt;&lt;br&gt;hypothetical protein&lt;br&gt;Location: 222457 - 221669" locus_tag="FD744_RS05660" class="clusterblast-orf" id="dummy-1_h1_8_12"  />
</g>
<g id="a1_0013"  >
<polygon points="254,90 266,90 271,85 266,80 254,80 254,90 " style="fill:white; stroke-width:1; stroke:black; " description="&lt;b&gt;FD744_RS05655&lt;/b&gt;&lt;br&gt;tryptophan permease&lt;br&gt;Location: 221555 - 220317" locus_tag="FD744_RS05655" class="clusterblast-orf" id="dummy-1_h1_8_13"  />
</g>
<g id="a1_0014"  >
<polygon points="271,85 276,80 281,80 281,90 276,90 271,85 " style="fill:white; stroke-width:1; stroke:black; " description="&lt;b&gt;FD744_RS05650&lt;/b&gt;&lt;br&gt;Fe(3+) dicitrate ABC transporter ATP-binding protein FecE&lt;br&gt;Location: 220315 - 219542" locus_tag="FD744_RS05650" class="clusterblast-orf" id="dummy-1_h1_8_14"  />
</g>
<g id="a1_0015"  >
<polygon points="281,85 286,80 294,80 294,90 286,90 281,85 " style="fill:white; stroke-width:1; stroke:black; " description="&lt;b&gt;FD744_RS05645&lt;/b&gt;&lt;br&gt;Fe(3+) dicitrate ABC transporter permease subunit FecD&lt;br&gt;Location: 219541 - 218585" locus_tag="FD744_RS05645" class="clusterblast-orf" id="dummy-1_h1_8_15"  />
</g>
<g id="a1_0016"  >
<polygon points="294,85 299,80 307,80 307,90 299,90 294,85 " style="fill:white; stroke-width:1; stroke:black; " description="&lt;b&gt;FD744_RS05640&lt;/b&gt;&lt;br&gt;iron-dicitrate ABC transporter permease FecC&lt;br&gt;Location: 218588 - 217599" locus_tag="FD744_RS05640" class="clusterblast-orf" id="dummy-1_h1_8_16"  />
</g>
<g id="a1_0017"  >
<polygon points="307,85 312,80 318,80 318,90 312,90 307,85 " style="fill:white; stroke-width:1; stroke:black; " description="&lt;b&gt;FD744_RS05635&lt;/b&gt;&lt;br&gt;ABC transporter substrate-binding protein&lt;br&gt;Location: 217602 - 216715" locus_tag="FD744_RS05635" class="clusterblast-orf" id="dummy-1_h1_8_17"  />
</g>
<g id="a1_0018"  >
<polygon points="319,85 324,80 350,80 350,90 324,90 319,85 " style="fill:white; stroke-width:1; stroke:black; " description="&lt;b&gt;FD744_RS05630&lt;/b&gt;&lt;br&gt;TonB-dependent receptor family protein&lt;br&gt;Location: 216650 - 214290" locus_tag="FD744_RS05630" class="clusterblast-orf" id="dummy-1_h1_8_18"  />
</g>
<g id="a1_0019"  >
<polygon points="352,85 357,80 364,80 364,90 357,90 352,85 " style="fill:white; stroke-width:1; stroke:black; " description="&lt;b&gt;FD744_RS05625&lt;/b&gt;&lt;br&gt;fec operon regulator FecR&lt;br&gt;Location: 214192 - 213242" locus_tag="FD744_RS05625" class="clusterblast-orf" id="dummy-1_h1_8_19"  />
</g>
<g id="a1_0020"  >
<polygon points="364,85 369,80 371,80 371,90 369,90 364,85 " style="fill:white; stroke-width:1; stroke:black; " description="&lt;b&gt;FD744_RS05620&lt;/b&gt;&lt;br&gt;sigma-70 family RNA polymerase sigma factor&lt;br&gt;Location: 213241 - 212720" locus_tag="FD744_RS05620" class="clusterblast-orf" id="dummy-1_h1_8_20"  />
</g>
<g id="a1_0021"  >
<polygon points="374,85 379,80 386,80 386,90 379,90 374,85 " style="fill:white; stroke-width:1; stroke:black; " description="&lt;b&gt;FD744_RS05615&lt;/b&gt;&lt;br&gt;sugar ABC transporter substrate-binding protein&lt;br&gt;Location: 212498 - 211575" locus_tag="FD744_RS05615" class="clusterblast-orf" id="dummy-1_h1_8_21"  />
</g>
<g id="a1_0022"  >
<polygon points="391,85 396,80 400,80 400,90 396,90 391,85 " style="fill:white; stroke-width:1; stroke:black; " description="&lt;b&gt;FD744_RS05610&lt;/b&gt;&lt;br&gt;hypothetical protein&lt;br&gt;Location: 211196 - 210549" locus_tag="FD744_RS05610" class="clusterblast-orf" id="dummy-1_h1_8_22"  />
</g>
<g id="a1_0023"  >
<polygon points="405,85 410,80 419,80 419,90 410,90 405,85 " style="fill:white; stroke-width:1; stroke:black; " description="&lt;b&gt;FD744_RS05605&lt;/b&gt;&lt;br&gt;TIM barrel protein&lt;br&gt;Location: 210124 - 209132" locus_tag="FD744_RS05605" class="clusterblast-orf" id="dummy-1_h1_8_23"  />
</g>
<g id="a1_0024"  >
<polygon points="422,90 436,90 441,85 436,80 422,80 422,90 " style="fill:white; stroke-width:1; stroke:black; " description="&lt;b&gt;FD744_RS05600&lt;/b&gt;&lt;br&gt;M24 family metallopeptidase&lt;br&gt;Location: 208838 - 207444" locus_tag="FD744_RS05600" class="clusterblast-orf" id="dummy-1_h1_8_24"  />
</g>
<g id="a1_0025"  >
<polygon points="441,85 446,80 461,80 461,90 446,90 441,85 " style="fill:white; stroke-width:1; stroke:black; " description="&lt;b&gt;FD744_RS05595&lt;/b&gt;&lt;br&gt;diguanylate cyclase&lt;br&gt;Location: 207427 - 205943" locus_tag="FD744_RS05595" class="clusterblast-orf" id="dummy-1_h1_8_25"  />
</g>
<g id="a1_0026"  >
<polygon points="464,85 469,80 485,80 485,90 469,90 464,85 " style="fill:white; stroke-width:1; stroke:black; " description="&lt;b&gt;FD744_RS05590&lt;/b&gt;&lt;br&gt;mechanosensitive ion channel&lt;br&gt;Location: 205701 - 204094" locus_tag="FD744_RS05590" class="clusterblast-orf" id="dummy-1_h1_8_26"  />
</g>
<g id="a1_0027"  >
<polygon points="497,90 500,85 497,80 497,90 " style="fill:white; stroke-width:1; stroke:black; " description="&lt;b&gt;FD744_RS05585&lt;/b&gt;&lt;br&gt;DUF1471 domain-containing protein&lt;br&gt;Location: 203199 - 202948" locus_tag="FD744_RS05585" class="clusterblast-orf" id="dummy-1_h1_8_27"  />
</g>
<g id="a1_0028"  >
<polygon points="504,90 518,90 523,85 518,80 504,80 504,90 " style="fill:white; stroke-width:1; stroke:black; " description="&lt;b&gt;FD744_RS05580&lt;/b&gt;&lt;br&gt;aspartate-alanine antiporter&lt;br&gt;Location: 202687 - 201236" locus_tag="FD744_RS05580" class="clusterblast-orf" id="dummy-1_h1_8_28"  />
</g>
<g id="a1_0029"  >
<polygon points="527,90 530,85 527,80 527,90 " style="fill:white; stroke-width:1; stroke:black; " description="&lt;b&gt;FD744_RS05575&lt;/b&gt;&lt;br&gt;helix-turn-helix domain-containing protein&lt;br&gt;Location: 200947 - 200687" locus_tag="FD744_RS05575" class="clusterblast-orf" id="dummy-1_h1_8_29"  />
</g>
<g id="a1_0030"  >
<polygon points="531,85 536,80 536,80 536,90 536,90 531,85 " style="fill:white; stroke-width:1; stroke:black; " description="&lt;b&gt;FD744_RS05570&lt;/b&gt;&lt;br&gt;type II toxin-antitoxin system VapC family toxin&lt;br&gt;Location: 200632 - 200216" locus_tag="FD744_RS05570" class="clusterblast-orf" id="dummy-1_h1_8_30"  />
</g>
<g id="a1_0031"  >
<polygon points="536,85 539,80 539,90 536,85 " style="fill:white; stroke-width:1; stroke:black; " description="&lt;b&gt;FD744_RS05565&lt;/b&gt;&lt;br&gt;AbrB/MazE/SpoVT family DNA-binding domain-containing protein&lt;br&gt;Location: 200219 - 199989" locus_tag="FD744_RS05565" class="clusterblast-orf" id="dummy-1_h1_8_31"  />
</g>
<g id="a1_0032"  >
<polygon points="544,90 544,90 549,85 544,80 544,80 544,90 " style="fill:white; stroke-width:1; stroke:black; " description="&lt;b&gt;FD744_RS05560&lt;/b&gt;&lt;br&gt;DUF4174 domain-containing protein&lt;br&gt;Location: 199681 - 199235" locus_tag="FD744_RS05560" class="clusterblast-orf" id="dummy-1_h1_8_32"  />
</g>
<g id="a1_0033"  >
<polygon points="550,85 555,80 557,80 557,90 555,90 550,85 " style="fill:white; stroke-width:1; stroke:black; " description="&lt;b&gt;FD744_RS05555&lt;/b&gt;&lt;br&gt;flavin reductase family protein&lt;br&gt;Location: 199223 - 198651" locus_tag="FD744_RS05555" class="clusterblast-orf" id="dummy-1_h1_8_33"  />
</g>
<g id="a1_0034"  >
<polygon points="561,90 568,90 573,85 568,80 561,80 561,90 " style="fill:white; stroke-width:1; stroke:black; " description="&lt;b&gt;FD744_RS05550&lt;/b&gt;&lt;br&gt;LysR family transcriptional regulator&lt;br&gt;Location: 198390 - 197476" locus_tag="FD744_RS05550" class="clusterblast-orf" id="dummy-1_h1_8_34"  />
</g>
<g id="a1_0035"  >
<polygon points="574,90 588,90 593,85 588,80 574,80 574,90 " style="fill:#d815a7; stroke-width:1; stroke:black; " description="&lt;b&gt;FD744_RS05545&lt;/b&gt;&lt;br&gt;amidohydrolase&lt;br&gt;Location: 197354 - 195927&lt;br&gt;&lt;br&gt;&lt;b&gt;BlastP hit with MCIC6FC_002133&lt;/b&gt;&lt;br&gt;Percentage identity: 41&lt;br&gt;Percentage coverage: 97&lt;br&gt;BLAST bit score: 68&lt;br&gt;E-value: 4e-10" locus_tag="FD744_RS05545" class="clusterblast-orf" id="dummy-1_h1_8_35"  />
</g>
<g id="a1_0036"  >
<polygon points="593,90 609,90 614,85 609,80 593,80 593,90 " style="fill:white; stroke-width:1; stroke:black; " description="&lt;b&gt;FD744_RS05540&lt;/b&gt;&lt;br&gt;ABC transporter substrate-binding protein&lt;br&gt;Location: 195909 - 194317" locus_tag="FD744_RS05540" class="clusterblast-orf" id="dummy-1_h1_8_36"  />
</g>
<g id="a1_0037"  >
<polygon points="615,90 624,90 629,85 624,80 615,80 615,90 " style="fill:white; stroke-width:1; stroke:black; " description="&lt;b&gt;FD744_RS05535&lt;/b&gt;&lt;br&gt;ABC transporter permease&lt;br&gt;Location: 194304 - 193234" locus_tag="FD744_RS05535" class="clusterblast-orf" id="dummy-1_h1_8_37"  />
</g>
<g id="a1_0038"  >
<polygon points="629,90 636,90 641,85 636,80 629,80 629,90 " style="fill:white; stroke-width:1; stroke:black; " description="&lt;b&gt;FD744_RS05530&lt;/b&gt;&lt;br&gt;ABC transporter permease&lt;br&gt;Location: 193237 - 192302" locus_tag="FD744_RS05530" class="clusterblast-orf" id="dummy-1_h1_8_38"  />
</g>
<g id="a1_0039"  >
<polygon points="641,90 647,90 652,85 647,80 641,80 641,90 " style="fill:white; stroke-width:1; stroke:black; " description="&lt;b&gt;FD744_RS05525&lt;/b&gt;&lt;br&gt;ABC transporter ATP-binding protein&lt;br&gt;Location: 192309 - 191446" locus_tag="FD744_RS05525" class="clusterblast-orf" id="dummy-1_h1_8_39"  />
</g>
<g id="a1_0040"  >
<polygon points="652,90 657,90 662,85 657,80 652,80 652,90 " style="fill:white; stroke-width:1; stroke:black; " description="&lt;b&gt;FD744_RS05520&lt;/b&gt;&lt;br&gt;ABC transporter ATP-binding protein&lt;br&gt;Location: 191449 - 190685" locus_tag="FD744_RS05520" class="clusterblast-orf" id="dummy-1_h1_8_40"  />
</g>
<g id="a1_0041"  >
<polygon points="663,90 670,90 675,85 670,80 663,80 663,90 " style="fill:white; stroke-width:1; stroke:black; " description="&lt;b&gt;FD744_RS05515&lt;/b&gt;&lt;br&gt;serine hydrolase&lt;br&gt;Location: 190649 - 189726" locus_tag="FD744_RS05515" class="clusterblast-orf" id="dummy-1_h1_8_41"  />
</g>
<g id="a1_0042"  >
<polygon points="675,90 687,90 692,85 687,80 675,80 675,90 " style="fill:white; stroke-width:1; stroke:black; " description="&lt;b&gt;FD744_RS05510&lt;/b&gt;&lt;br&gt;MmgE/PrpD family protein&lt;br&gt;Location: 189729 - 188443" locus_tag="FD744_RS05510" class="clusterblast-orf" id="dummy-1_h1_8_42"  />
</g>
<g id="a1_0043"  >
<polygon points="695,90 696,90 701,85 696,80 695,80 695,90 " style="fill:white; stroke-width:1; stroke:black; " description="&lt;b&gt;FD744_RS05505&lt;/b&gt;&lt;br&gt;hypothetical protein&lt;br&gt;Location: 188222 - 187788" locus_tag="FD744_RS05505" class="clusterblast-orf" id="dummy-1_h1_8_43"  />
</g>
<g id="a1_0044"  >
<polygon points="701,90 703,90 708,85 703,80 701,80 701,90 " style="fill:white; stroke-width:1; stroke:black; " description="&lt;b&gt;FD744_RS05500&lt;/b&gt;&lt;br&gt;sigma-70 family RNA polymerase sigma factor&lt;br&gt;Location: 187782 - 187234" locus_tag="FD744_RS05500" class="clusterblast-orf" id="dummy-1_h1_8_44"  />
</g>
<g id="a1_0045"  >
<polygon points="709,85 714,80 723,80 723,90 714,90 709,85 " style="fill:white; stroke-width:1; stroke:black; " description="&lt;b&gt;FD744_RS05495&lt;/b&gt;&lt;br&gt;MBL fold metallo-hydrolase&lt;br&gt;Location: 187155 - 186136" locus_tag="FD744_RS05495" class="clusterblast-orf" id="dummy-1_h1_8_45"  />
</g>
<g id="a1_0046"  >
<polygon points="725,90 729,85 725,80 725,90 " style="fill:white; stroke-width:1; stroke:black; " description="&lt;b&gt;FD744_RS05490&lt;/b&gt;&lt;br&gt;gamma-glutamylcyclotransferase&lt;br&gt;Location: 185979 - 185647" locus_tag="FD744_RS05490" class="clusterblast-orf" id="dummy-1_h1_8_46"  />
</g>
<g id="a1_0047"  >
<polygon points="731,90 737,90 742,85 737,80 731,80 731,90 " style="fill:white; stroke-width:1; stroke:black; " description="&lt;b&gt;FD744_RS05485&lt;/b&gt;&lt;br&gt;MBL fold metallo-hydrolase&lt;br&gt;Location: 185476 - 184688" locus_tag="FD744_RS05485" class="clusterblast-orf" id="dummy-1_h1_8_47"  />
</g>
<g id="a1_0048"  >
<polygon points="746,85 748,80 748,90 746,85 " style="fill:white; stroke-width:1; stroke:black; " description="&lt;b&gt;FD744_RS05480&lt;/b&gt;&lt;br&gt;hypothetical protein&lt;br&gt;Location: 184395 - 184189" locus_tag="FD744_RS05480" class="clusterblast-orf" id="dummy-1_h1_8_48"  />
</g>
<g id="a1_0049"  >
<polygon points="754,90 759,90 764,85 759,80 754,80 754,90 " style="fill:white; stroke-width:1; stroke:black; " description="&lt;b&gt;FD744_RS05475&lt;/b&gt;&lt;br&gt;MetQ/NlpA family lipoprotein&lt;br&gt;Location: 183786 - 182986" locus_tag="FD744_RS05475" class="clusterblast-orf" id="dummy-1_h1_8_49"  />
</g>
<g id="a1_0050"  >
<polygon points="765,85 770,80 780,80 780,90 770,90 765,85 " style="fill:white; stroke-width:1; stroke:black; " description="&lt;b&gt;FD744_RS05470&lt;/b&gt;&lt;br&gt;NAD-dependent epimerase/dehydratase family protein&lt;br&gt;Location: 182939 - 181830" locus_tag="FD744_RS05470" class="clusterblast-orf" id="dummy-1_h1_8_50"  />
</g>
</svg>
