<svg xmlns="http://www.w3.org/2000/svg" xmlns:xlink="http://www.w3.org/1999/xlink" version="1.1" x="0" y="0" height="230" width="800" viewBox="0 0 800 230" preserveAspectRatio="none"  >
<g label="Query sequence" class="clusterblast-cluster"  >
<text x="5" y="20" class="clusterblast-acc"  >
Query sequence</text>
<line x1="10" y1="35" x2="778.0" y2="35" style="stroke-width:1; stroke:grey; "  />
<polygon points="131,35 136,30 148,30 148,40 136,40 131,35 " style="fill:#d81515; stroke-width:1; stroke:black; " description="&lt;b&gt;MCIC6FC_009770&lt;/b&gt;&lt;br&gt;hypothetical protein&lt;br&gt;Location: 290 - 699" locus_tag="MCIC6FC_009770" class="clusterblast-orf" id="dummy-1_q0_0_all"  />
<polygon points="183,35 188,30 324,30 324,40 188,40 183,35 " style="fill:#15d863; stroke-width:1; stroke:black; " description="&lt;b&gt;MCIC6FC_009771&lt;/b&gt;&lt;br&gt;hypothetical protein&lt;br&gt;Location: 1547 - 4931" locus_tag="MCIC6FC_009771" class="clusterblast-orf" id="dummy-1_q1_0_all"  />
<polygon points="362,35 367,30 431,30 431,40 367,40 362,35 " style="fill:#1563d8; stroke-width:1; stroke:black; " description="&lt;b&gt;MCIC6FC_009772&lt;/b&gt;&lt;br&gt;hypothetical protein&lt;br&gt;Location: 5866 - 7516" locus_tag="MCIC6FC_009772" class="clusterblast-orf" id="dummy-1_q2_0_all"  />
<polygon points="507,35 512,30 572,30 572,40 512,40 507,35 " style="fill:#b115d8; stroke-width:1; stroke:black; " description="&lt;b&gt;MCIC6FC_009773&lt;/b&gt;&lt;br&gt;hypothetical protein&lt;br&gt;Location: 9357 - 10920" locus_tag="MCIC6FC_009773" class="clusterblast-orf" id="dummy-1_q3_0_all"  />
<polygon points="574,40 644,40 649,35 644,30 574,30 574,40 " style="fill:#b1d815; stroke-width:1; stroke:black; " description="&lt;b&gt;MCIC6FC_009774&lt;/b&gt;&lt;br&gt;hypothetical protein&lt;br&gt;Location: 10967 - 12763" locus_tag="MCIC6FC_009774" class="clusterblast-orf" id="dummy-1_q4_0_all"  />
</g>
<g label="NZ_JACGXI010000003" description="NZ_JACGXI010000003 (252921-273560): Pantoea agglomerans strain 62e Ga0326530 ... (28% of genes show similarity), hserlactone" class="clusterblast-cluster"  >
<text x="5" y="70" class="clusterblast-acc"  >
<a xlink:href="https://antismash-db.secondarymetabolites.org/area.html?record=NZ_JACGXI010000003&amp;start=252921&amp;end=273560" target="_blank">NZ_JACGXI010000003 (252921-273560)</a>: Pantoea agglomerans strain 62e Ga0326530 ... (28% of genes show similarity), hserlactone</text>
<line x1="10" y1="85" x2="778.0" y2="85" style="stroke-width:1; stroke:grey; "  />
</g>
<g id="a1_000"  >
<polygon points="0,90 52,90 57,85 52,80 0,80 0,90 " style="fill:white; stroke-width:1; stroke:black; " description="&lt;b&gt;FHW08_RS14660&lt;/b&gt;&lt;br&gt;hexose-6-phosphate:phosphate antiporter&lt;br&gt;Location: 253724 - 255115" locus_tag="FHW08_RS14660" class="clusterblast-orf" id="dummy-1_h1_8_0"  />
</g>
<g id="a1_001"  >
<polygon points="69,90 127,90 132,85 127,80 69,80 69,90 " style="fill:white; stroke-width:1; stroke:black; " description="&lt;b&gt;FHW08_RS14665&lt;/b&gt;&lt;br&gt;transcription antiterminator&lt;br&gt;Location: 255395 - 256909" locus_tag="FHW08_RS14665" class="clusterblast-orf" id="dummy-1_h1_8_1"  />
</g>
<g id="a1_002"  >
<polygon points="133,90 147,90 152,85 147,80 133,80 133,90 " style="fill:white; stroke-width:1; stroke:black; " description="&lt;b&gt;FHW08_RS14670&lt;/b&gt;&lt;br&gt;PTS sugar transporter subunit IIA&lt;br&gt;Location: 256928 - 257401" locus_tag="FHW08_RS14670" class="clusterblast-orf" id="dummy-1_h1_8_2"  />
</g>
<g id="a1_003"  >
<polygon points="157,90 211,90 216,85 211,80 157,80 157,90 " style="fill:white; stroke-width:1; stroke:black; " description="&lt;b&gt;FHW08_RS14675&lt;/b&gt;&lt;br&gt;PTS transporter subunit EIIC&lt;br&gt;Location: 257509 - 258933" locus_tag="FHW08_RS14675" class="clusterblast-orf" id="dummy-1_h1_8_3"  />
</g>
<g id="a1_004"  >
<polygon points="216,90 247,90 252,85 247,80 216,80 216,90 " style="fill:white; stroke-width:1; stroke:black; " description="&lt;b&gt;FHW08_RS14680&lt;/b&gt;&lt;br&gt;ketose-bisphosphate aldolase&lt;br&gt;Location: 258939 - 259799" locus_tag="FHW08_RS14680" class="clusterblast-orf" id="dummy-1_h1_8_4"  />
</g>
<g id="a1_005"  >
<polygon points="258,85 263,80 268,80 268,90 263,90 258,85 " style="fill:white; stroke-width:1; stroke:black; " description="&lt;b&gt;FHW08_RS14685&lt;/b&gt;&lt;br&gt;type II toxin-antitoxin system RelE/ParE family toxin&lt;br&gt;Location: 259938 - 260177" locus_tag="FHW08_RS14685" class="clusterblast-orf" id="dummy-1_h1_8_5"  />
</g>
<g id="a1_006"  >
<polygon points="269,85 274,80 280,80 280,90 274,90 269,85 " style="fill:#15d863; stroke-width:1; stroke:black; " description="&lt;b&gt;FHW08_RS14690&lt;/b&gt;&lt;br&gt;transcriptional regulator&lt;br&gt;Location: 260218 - 260466&lt;br&gt;&lt;br&gt;&lt;b&gt;BlastP hit with MCIC6FC_009771&lt;/b&gt;&lt;br&gt;Percentage identity: 84&lt;br&gt;Percentage coverage: 17&lt;br&gt;BLAST bit score: 118&lt;br&gt;E-value: 1.9e-24" locus_tag="FHW08_RS14690" class="clusterblast-orf" id="dummy-1_h1_8_6"  />
</g>
<g id="a1_007"  >
<polygon points="292,85 297,80 326,80 326,90 297,90 292,85 " style="fill:#15d863; stroke-width:1; stroke:black; " description="&lt;b&gt;FHW08_RS14695&lt;/b&gt;&lt;br&gt;CDP-diacylglycerol diphosphatase&lt;br&gt;Location: 260772 - 261590&lt;br&gt;&lt;br&gt;&lt;b&gt;BlastP hit with MCIC6FC_009771&lt;/b&gt;&lt;br&gt;Percentage identity: 97&lt;br&gt;Percentage coverage: 56&lt;br&gt;BLAST bit score: 499&lt;br&gt;E-value: 3.9e-139" locus_tag="FHW08_RS14695" class="clusterblast-orf" id="dummy-1_h1_8_7"  />
</g>
<g id="a1_008"  >
<polygon points="329,85 334,80 335,80 335,90 334,90 329,85 " style="fill:white; stroke-width:1; stroke:black; " description="&lt;b&gt;FHW08_RS14700&lt;/b&gt;&lt;br&gt;hypothetical protein&lt;br&gt;Location: 261664 - 261798" locus_tag="FHW08_RS14700" class="clusterblast-orf" id="dummy-1_h1_8_8"  />
</g>
<g id="a1_009"  >
<polygon points="352,90 376,90 381,85 376,80 352,80 352,90 " style="fill:white; stroke-width:1; stroke:black; " description="&lt;b&gt;FHW08_RS14705&lt;/b&gt;&lt;br&gt;LuxR family transcriptional regulator&lt;br&gt;Location: 262215 - 262907" locus_tag="FHW08_RS14705" class="clusterblast-orf" id="dummy-1_h1_8_9"  />
</g>
<g id="a1_0010"  >
<polygon points="382,85 387,80 408,80 408,90 387,90 382,85 " style="fill:#1563d8; stroke-width:1; stroke:black; " description="&lt;b&gt;FHW08_RS14710&lt;/b&gt;&lt;br&gt;GNAT family N-acetyltransferase&lt;br&gt;Location: 262922 - 263560&lt;br&gt;&lt;br&gt;&lt;b&gt;BlastP hit with MCIC6FC_009772&lt;/b&gt;&lt;br&gt;Percentage identity: 96&lt;br&gt;Percentage coverage: 72&lt;br&gt;BLAST bit score: 369&lt;br&gt;E-value: 2.8e-100" locus_tag="FHW08_RS14710" class="clusterblast-orf" id="dummy-1_h1_8_10"  />
</g>
<g id="a1_0011"  >
<polygon points="461,85 466,80 472,80 472,90 466,90 461,85 " style="fill:white; stroke-width:1; stroke:black; " description="&lt;b&gt;FHW08_RS14715&lt;/b&gt;&lt;br&gt;hypothetical protein&lt;br&gt;Location: 264840 - 265103" locus_tag="FHW08_RS14715" class="clusterblast-orf" id="dummy-1_h1_8_11"  />
</g>
<g id="a1_0012"  >
<polygon points="471,85 476,80 482,80 482,90 476,90 471,85 " style="fill:white; stroke-width:1; stroke:black; " description="&lt;b&gt;FHW08_RS14720&lt;/b&gt;&lt;br&gt;DUF2778 domain-containing protein&lt;br&gt;Location: 265072 - 265338" locus_tag="FHW08_RS14720" class="clusterblast-orf" id="dummy-1_h1_8_12"  />
</g>
<g id="a1_0013"  >
<polygon points="482,85 487,80 495,80 495,90 487,90 482,85 " style="fill:#b115d8; stroke-width:1; stroke:black; " description="&lt;b&gt;FHW08_RS14725&lt;/b&gt;&lt;br&gt;endoribonuclease SymE&lt;br&gt;Location: 265335 - 265664&lt;br&gt;&lt;br&gt;&lt;b&gt;BlastP hit with MCIC6FC_009773&lt;/b&gt;&lt;br&gt;Percentage identity: 99&lt;br&gt;Percentage coverage: 38&lt;br&gt;BLAST bit score: 209&lt;br&gt;E-value: 4.1e-52" locus_tag="FHW08_RS14725" class="clusterblast-orf" id="dummy-1_h1_8_13"  />
</g>
<g id="a1_0014"  >
<polygon points="517,85 522,80 531,80 531,90 522,90 517,85 " style="fill:#b115d8; stroke-width:1; stroke:black; " description="&lt;b&gt;FHW08_RS14730&lt;/b&gt;&lt;br&gt;DNA-binding transcriptional regulator&lt;br&gt;Location: 266187 - 266510&lt;br&gt;&lt;br&gt;&lt;b&gt;BlastP hit with MCIC6FC_009773&lt;/b&gt;&lt;br&gt;Percentage identity: 75&lt;br&gt;Percentage coverage: 36&lt;br&gt;BLAST bit score: 139&lt;br&gt;E-value: 5.2e-31" locus_tag="FHW08_RS14730" class="clusterblast-orf" id="dummy-1_h1_8_14"  />
</g>
<g id="a1_0015"  >
<polygon points="530,85 535,80 540,80 540,90 535,90 530,85 " style="fill:white; stroke-width:1; stroke:black; " description="&lt;b&gt;FHW08_RS14735&lt;/b&gt;&lt;br&gt;type II toxin-antitoxin system RelE/ParE family toxin&lt;br&gt;Location: 266494 - 266738" locus_tag="FHW08_RS14735" class="clusterblast-orf" id="dummy-1_h1_8_15"  />
</g>
<g id="a1_0016"  >
<polygon points="549,90 587,90 592,85 587,80 549,80 549,90 " style="fill:#b1d815; stroke-width:1; stroke:black; " description="&lt;b&gt;FHW08_RS14740&lt;/b&gt;&lt;br&gt;hypothetical protein&lt;br&gt;Location: 266942 - 267994&lt;br&gt;&lt;br&gt;&lt;b&gt;BlastP hit with MCIC6FC_009774&lt;/b&gt;&lt;br&gt;Percentage identity: 90&lt;br&gt;Percentage coverage: 81&lt;br&gt;BLAST bit score: 500&lt;br&gt;E-value: 1.1e-139" locus_tag="FHW08_RS14740" class="clusterblast-orf" id="dummy-1_h1_8_16"  />
</g>
<g id="a1_0017"  >
<polygon points="592,90 598,90 603,85 598,80 592,80 592,90 " style="fill:white; stroke-width:1; stroke:black; " description="&lt;b&gt;FHW08_RS14745&lt;/b&gt;&lt;br&gt;hypothetical protein&lt;br&gt;Location: 267988 - 268263" locus_tag="FHW08_RS14745" class="clusterblast-orf" id="dummy-1_h1_8_17"  />
</g>
<g id="a1_0018"  >
<polygon points="624,85 629,80 649,80 649,90 629,90 624,85 " style="fill:white; stroke-width:1; stroke:black; " description="&lt;b&gt;FHW08_RS14750&lt;/b&gt;&lt;br&gt;transposase family protein&lt;br&gt;Location: 268766 - 269366" locus_tag="FHW08_RS14750" class="clusterblast-orf" id="dummy-1_h1_8_18"  />
</g>
<g id="a1_0019"  >
<polygon points="667,90 707,90 712,85 707,80 667,80 667,90 " style="fill:white; stroke-width:1; stroke:black; " description="&lt;b&gt;FHW08_RS14755&lt;/b&gt;&lt;br&gt;DNA sulfur modification protein DndB&lt;br&gt;Location: 269786 - 270871" locus_tag="FHW08_RS14755" class="clusterblast-orf" id="dummy-1_h1_8_19"  />
</g>
<g id="a1_0020"  >
<polygon points="712,90 774,90 779,85 774,80 712,80 712,90 " style="fill:white; stroke-width:1; stroke:black; " description="&lt;b&gt;FHW08_RS14760&lt;/b&gt;&lt;br&gt;DNA phosphorothioation system sulfurtransferase DndC&lt;br&gt;Location: 270868 - 272502" locus_tag="FHW08_RS14760" class="clusterblast-orf" id="dummy-1_h1_8_20"  />
</g>
</svg>
