<svg xmlns="http://www.w3.org/2000/svg" xmlns:xlink="http://www.w3.org/1999/xlink" version="1.1" x="0" y="0" height="230" width="800" viewBox="0 0 800 230" preserveAspectRatio="none"  >
<g label="Query sequence" class="clusterblast-cluster"  >
<text x="5" y="20" class="clusterblast-acc"  >
Query sequence</text>
<line x1="10" y1="35" x2="778.0" y2="35" style="stroke-width:1; stroke:grey; "  />
<polygon points="18,35 23,30 38,30 38,40 23,40 18,35 " style="fill:#d81515; stroke-width:1; stroke:black; " description="&lt;b&gt;MCIC6FC_005786&lt;/b&gt;&lt;br&gt;hypothetical protein&lt;br&gt;Location: 1910200 - 1912388" locus_tag="MCIC6FC_005786" class="clusterblast-orf" id="dummy-3_q0_0_all"  />
<polygon points="39,40 74,40 79,35 74,30 39,30 39,40 " style="fill:#77d815; stroke-width:1; stroke:black; " description="&lt;b&gt;MCIC6FC_005787&lt;/b&gt;&lt;br&gt;hypothetical protein&lt;br&gt;Location: 1912502 - 1917042" locus_tag="MCIC6FC_005787" class="clusterblast-orf" id="dummy-3_q1_0_all"  />
<polygon points="80,35 85,30 95,30 95,40 85,40 80,35 " style="fill:#15d8d8; stroke-width:1; stroke:black; " description="&lt;b&gt;MCIC6FC_005788&lt;/b&gt;&lt;br&gt;hypothetical protein&lt;br&gt;Location: 1917174 - 1918868" locus_tag="MCIC6FC_005788" class="clusterblast-orf" id="dummy-3_q2_0_all"  />
<polygon points="97,40 116,40 121,35 116,30 97,30 97,40 " style="fill:#7715d8; stroke-width:1; stroke:black; " description="&lt;b&gt;MCIC6FC_005789&lt;/b&gt;&lt;br&gt;hypothetical protein&lt;br&gt;Location: 1919075 - 1921770" locus_tag="MCIC6FC_005789" class="clusterblast-orf" id="dummy-3_q3_0_all"  />
<polygon points="121,40 124,40 129,35 124,30 121,30 121,40 " style="fill:#d84615; stroke-width:1; stroke:black; " description="&lt;b&gt;MCIC6FC_005790&lt;/b&gt;&lt;br&gt;hypothetical protein&lt;br&gt;Location: 1921817 - 1922711" locus_tag="MCIC6FC_005790" class="clusterblast-orf" id="dummy-3_q4_0_all"  />
<polygon points="129,35 134,30 138,30 138,40 134,40 129,35 " style="fill:#46d815; stroke-width:1; stroke:black; " description="&lt;b&gt;MCIC6FC_005791&lt;/b&gt;&lt;br&gt;hypothetical protein&lt;br&gt;Location: 1922765 - 1923740" locus_tag="MCIC6FC_005791" class="clusterblast-orf" id="dummy-3_q5_0_all"  />
<polygon points="139,40 174,40 179,35 174,30 139,30 139,40 " style="fill:#15a7d8; stroke-width:1; stroke:black; " description="&lt;b&gt;MCIC6FC_005792&lt;/b&gt;&lt;br&gt;hypothetical protein&lt;br&gt;Location: 1923829 - 1928328" locus_tag="MCIC6FC_005792" class="clusterblast-orf" id="dummy-3_q6_0_all"  />
<polygon points="180,35 185,30 454,30 454,40 185,40 180,35 " style="fill:#a715d8; stroke-width:1; stroke:black; " description="&lt;b&gt;MCIC6FC_005793&lt;/b&gt;&lt;br&gt;hypothetical protein&lt;br&gt;Location: 1928467 - 1959441" locus_tag="MCIC6FC_005793" class="clusterblast-orf" id="dummy-3_q7_0_all"  />
<polygon points="455,40 459,40 464,35 459,30 455,30 455,40 " style="fill:#d87715; stroke-width:1; stroke:black; " description="&lt;b&gt;MCIC6FC_005794&lt;/b&gt;&lt;br&gt;hypothetical protein&lt;br&gt;Location: 1959602 - 1960571" locus_tag="MCIC6FC_005794" class="clusterblast-orf" id="dummy-3_q8_0_all"  />
<polygon points="465,35 470,30 482,30 482,40 470,40 465,35 " style="fill:#15d815; stroke-width:1; stroke:black; " description="&lt;b&gt;MCIC6FC_005795&lt;/b&gt;&lt;br&gt;hypothetical protein&lt;br&gt;Location: 1960675 - 1962660" locus_tag="MCIC6FC_005795" class="clusterblast-orf" id="dummy-3_q9_0_all"  />
<polygon points="483,40 484,40 489,35 484,30 483,30 483,40 " style="fill:#1577d8; stroke-width:1; stroke:black; " description="&lt;b&gt;MCIC6FC_005796&lt;/b&gt;&lt;br&gt;hypothetical protein&lt;br&gt;Location: 1962795 - 1963383" locus_tag="MCIC6FC_005796" class="clusterblast-orf" id="dummy-3_q10_0_all"  />
<polygon points="490,40 492,40 497,35 492,30 490,30 490,40 " style="fill:#d815d8; stroke-width:1; stroke:black; " description="&lt;b&gt;MCIC6FC_005797&lt;/b&gt;&lt;br&gt;hypothetical protein&lt;br&gt;Location: 1963495 - 1964296" locus_tag="MCIC6FC_005797" class="clusterblast-orf" id="dummy-3_q11_0_all"  />
<polygon points="497,40 556,40 561,35 556,30 497,30 497,40 " style="fill:#d8a715; stroke-width:1; stroke:black; " description="&lt;b&gt;MCIC6FC_005798&lt;/b&gt;&lt;br&gt;hypothetical protein&lt;br&gt;Location: 1964348 - 1971527" locus_tag="MCIC6FC_005798" class="clusterblast-orf" id="dummy-3_q12_0_all"  />
<polygon points="561,35 566,30 569,30 569,40 566,40 561,35 " style="fill:#15d846; stroke-width:1; stroke:black; " description="&lt;b&gt;MCIC6FC_005799&lt;/b&gt;&lt;br&gt;hypothetical protein&lt;br&gt;Location: 1971536 - 1972520" locus_tag="MCIC6FC_005799" class="clusterblast-orf" id="dummy-3_q13_0_all"  />
<polygon points="570,40 571,40 576,35 571,30 570,30 570,40 " style="fill:#15d846; stroke-width:1; stroke:black; " description="&lt;b&gt;MCIC6FC_005800&lt;/b&gt;&lt;br&gt;hypothetical protein&lt;br&gt;Location: 1972612 - 1973299" locus_tag="MCIC6FC_005800" class="clusterblast-orf" id="dummy-3_q14_0_all"  />
<polygon points="576,35 579,30 579,40 576,35 " style="fill:#1546d8; stroke-width:1; stroke:black; " description="&lt;b&gt;MCIC6FC_005801&lt;/b&gt;&lt;br&gt;hypothetical protein&lt;br&gt;Location: 1973303 - 1973648" locus_tag="MCIC6FC_005801" class="clusterblast-orf" id="dummy-3_q15_0_all"  />
<polygon points="580,35 585,30 585,30 585,40 585,40 580,35 " style="fill:#d815a7; stroke-width:1; stroke:black; " description="&lt;b&gt;MCIC6FC_005802&lt;/b&gt;&lt;br&gt;hypothetical protein&lt;br&gt;Location: 1973672 - 1974304" locus_tag="MCIC6FC_005802" class="clusterblast-orf" id="dummy-3_q16_0_all"  />
<polygon points="586,40 593,40 598,35 593,30 586,30 586,40 " style="fill:#d8d815; stroke-width:1; stroke:black; " description="&lt;b&gt;MCIC6FC_005803&lt;/b&gt;&lt;br&gt;hypothetical protein&lt;br&gt;Location: 1974391 - 1975716" locus_tag="MCIC6FC_005803" class="clusterblast-orf" id="dummy-3_q17_0_all"  />
<polygon points="601,35 606,30 608,30 608,40 606,40 601,35 " style="fill:#15d877; stroke-width:1; stroke:black; " description="&lt;b&gt;MCIC6FC_005804&lt;/b&gt;&lt;br&gt;hypothetical protein&lt;br&gt;Location: 1976049 - 1976838" locus_tag="MCIC6FC_005804" class="clusterblast-orf" id="dummy-3_q18_0_all"  />
<polygon points="608,40 619,40 624,35 619,30 608,30 608,40 " style="fill:white; stroke-width:1; stroke:black; " description="&lt;b&gt;MCIC6FC_005805&lt;/b&gt;&lt;br&gt;hypothetical protein&lt;br&gt;Location: 1976898 - 1978654" locus_tag="MCIC6FC_005805" class="clusterblast-orf" id="dummy-3_q19_0_all"  />
<polygon points="624,35 628,30 628,40 624,35 " style="fill:#1515d8; stroke-width:1; stroke:black; " description="&lt;b&gt;MCIC6FC_005806&lt;/b&gt;&lt;br&gt;hypothetical protein&lt;br&gt;Location: 1978716 - 1979176" locus_tag="MCIC6FC_005806" class="clusterblast-orf" id="dummy-3_q20_0_all"  />
<polygon points="629,40 640,40 645,35 640,30 629,30 629,40 " style="fill:#d81577; stroke-width:1; stroke:black; " description="&lt;b&gt;MCIC6FC_005807&lt;/b&gt;&lt;br&gt;hypothetical protein&lt;br&gt;Location: 1979309 - 1981063" locus_tag="MCIC6FC_005807" class="clusterblast-orf" id="dummy-3_q21_0_all"  />
<polygon points="646,35 651,30 655,30 655,40 651,40 646,35 " style="fill:#a7d815; stroke-width:1; stroke:black; " description="&lt;b&gt;MCIC6FC_005808&lt;/b&gt;&lt;br&gt;hypothetical protein&lt;br&gt;Location: 1981136 - 1982256" locus_tag="MCIC6FC_005808" class="clusterblast-orf" id="dummy-3_q22_0_all"  />
<polygon points="656,35 661,30 686,30 686,40 661,40 656,35 " style="fill:#15d8a7; stroke-width:1; stroke:black; " description="&lt;b&gt;MCIC6FC_005809&lt;/b&gt;&lt;br&gt;hypothetical protein&lt;br&gt;Location: 1982279 - 1985697" locus_tag="MCIC6FC_005809" class="clusterblast-orf" id="dummy-3_q23_0_all"  />
<polygon points="690,40 699,40 704,35 699,30 690,30 690,40 " style="fill:#4615d8; stroke-width:1; stroke:black; " description="&lt;b&gt;MCIC6FC_005810&lt;/b&gt;&lt;br&gt;hypothetical protein&lt;br&gt;Location: 1986109 - 1987765" locus_tag="MCIC6FC_005810" class="clusterblast-orf" id="dummy-3_q24_0_all"  />
<polygon points="705,40 706,40 711,35 706,30 705,30 705,40 " style="fill:#d81546; stroke-width:1; stroke:black; " description="&lt;b&gt;MCIC6FC_005811&lt;/b&gt;&lt;br&gt;hypothetical protein&lt;br&gt;Location: 1987866 - 1988532" locus_tag="MCIC6FC_005811" class="clusterblast-orf" id="dummy-3_q25_0_all"  />
<polygon points="715,40 717,40 722,35 717,30 715,30 715,40 " style="fill:white; stroke-width:1; stroke:black; " description="&lt;b&gt;MCIC6FC_005812&lt;/b&gt;&lt;br&gt;hypothetical protein&lt;br&gt;Location: 1989036 - 1989803" locus_tag="MCIC6FC_005812" class="clusterblast-orf" id="dummy-3_q26_0_all"  />
<polygon points="722,35 727,30 761,30 761,40 727,40 722,35 " style="fill:white; stroke-width:1; stroke:black; " description="&lt;b&gt;MCIC6FC_005813&lt;/b&gt;&lt;br&gt;hypothetical protein&lt;br&gt;Location: 1989807 - 1994168" locus_tag="MCIC6FC_005813" class="clusterblast-orf" id="dummy-3_q27_0_all"  />
</g>
<g label="NZ_CP027746" description="NZ_CP027746 (4905550-4994191): Pseudomonas chlororaphis subsp. aurantiaca str... (53% of genes show similarity), NRPS,resorcinol" class="clusterblast-cluster"  >
<text x="5" y="70" class="clusterblast-acc"  >
<a xlink:href="https://antismash-db.secondarymetabolites.org/area.html?record=NZ_CP027746&amp;start=4905550&amp;end=4994191" target="_blank">NZ_CP027746 (4905550-4994191)</a>: Pseudomonas chlororaphis subsp. aurantiaca str... (53% of genes show similarity), NRPS,resorcinol</text>
<line x1="10" y1="85" x2="778.0" y2="85" style="stroke-width:1; stroke:grey; "  />
</g>
<g id="a3_000"  >
<polygon points="0,85 5,80 11,80 11,90 5,90 0,85 " style="fill:#d81515; stroke-width:1; stroke:black; " description="&lt;b&gt;C4K17_RS22010&lt;/b&gt;&lt;br&gt;lysine N(6)-hydroxylase/L-ornithine N(5)-oxygenase family protein&lt;br&gt;Location: 4905551 - 4906885&lt;br&gt;&lt;br&gt;&lt;b&gt;BlastP hit with MCIC6FC_005786&lt;/b&gt;&lt;br&gt;Percentage identity: 84&lt;br&gt;Percentage coverage: 69&lt;br&gt;BLAST bit score: 747&lt;br&gt;E-value: 1.2e-213" locus_tag="C4K17_RS22010" class="clusterblast-orf" id="dummy-3_h3_2_0"  />
</g>
<g id="a3_001"  >
<polygon points="12,85 17,80 17,80 17,90 17,90 12,85 " style="fill:#d81515; stroke-width:1; stroke:black; " description="&lt;b&gt;C4K17_RS22015&lt;/b&gt;&lt;br&gt;sigma-70 family RNA polymerase sigma factor&lt;br&gt;Location: 4907017 - 4907499&lt;br&gt;&lt;br&gt;&lt;b&gt;BlastP hit with MCIC6FC_005786&lt;/b&gt;&lt;br&gt;Percentage identity: 90&lt;br&gt;Percentage coverage: 24&lt;br&gt;BLAST bit score: 284&lt;br&gt;E-value: 2.3e-74" locus_tag="C4K17_RS22015" class="clusterblast-orf" id="dummy-3_h3_2_1"  />
</g>
<g id="a3_002"  >
<polygon points="20,90 25,90 30,85 25,80 20,80 20,90 " style="fill:#77d815; stroke-width:1; stroke:black; " description="&lt;b&gt;C4K17_RS22020&lt;/b&gt;&lt;br&gt;efflux RND transporter periplasmic adaptor subunit&lt;br&gt;Location: 4907833 - 4909005&lt;br&gt;&lt;br&gt;&lt;b&gt;BlastP hit with MCIC6FC_005787&lt;/b&gt;&lt;br&gt;Percentage identity: 88&lt;br&gt;Percentage coverage: 26&lt;br&gt;BLAST bit score: 588&lt;br&gt;E-value: 1.7e-165" locus_tag="C4K17_RS22020" class="clusterblast-orf" id="dummy-3_h3_2_2"  />
</g>
<g id="a3_003"  >
<polygon points="30,90 42,90 47,85 42,80 30,80 30,90 " style="fill:#77d815; stroke-width:1; stroke:black; " description="&lt;b&gt;C4K17_RS22025&lt;/b&gt;&lt;br&gt;MacB family efflux pump subunit&lt;br&gt;Location: 4909006 - 4910979&lt;br&gt;&lt;br&gt;&lt;b&gt;BlastP hit with MCIC6FC_005787&lt;/b&gt;&lt;br&gt;Percentage identity: 92&lt;br&gt;Percentage coverage: 43&lt;br&gt;BLAST bit score: 1128&lt;br&gt;E-value: 0.0" locus_tag="C4K17_RS22025" class="clusterblast-orf" id="dummy-3_h3_2_3"  />
</g>
<g id="a3_004"  >
<polygon points="48,90 55,90 60,85 55,80 48,80 48,90 " style="fill:#77d815; stroke-width:1; stroke:black; " description="&lt;b&gt;C4K17_RS22030&lt;/b&gt;&lt;br&gt;efflux transporter outer membrane subunit&lt;br&gt;Location: 4910987 - 4912405&lt;br&gt;&lt;br&gt;&lt;b&gt;BlastP hit with MCIC6FC_005787&lt;/b&gt;&lt;br&gt;Percentage identity: 79&lt;br&gt;Percentage coverage: 31&lt;br&gt;BLAST bit score: 663&lt;br&gt;E-value: 7.1e-188" locus_tag="C4K17_RS22030" class="clusterblast-orf" id="dummy-3_h3_2_4"  />
</g>
<g id="a3_005"  >
<polygon points="62,85 67,80 76,80 76,90 67,90 62,85 " style="fill:#15d8d8; stroke-width:1; stroke:black; " description="&lt;b&gt;C4K17_RS22035&lt;/b&gt;&lt;br&gt;PvdJ/PvdD/PvdP-like protein&lt;br&gt;Location: 4912596 - 4914221&lt;br&gt;&lt;br&gt;&lt;b&gt;BlastP hit with MCIC6FC_005788&lt;/b&gt;&lt;br&gt;Percentage identity: 60&lt;br&gt;Percentage coverage: 98&lt;br&gt;BLAST bit score: 695&lt;br&gt;E-value: 6.2e-198" locus_tag="C4K17_RS22035" class="clusterblast-orf" id="dummy-3_h3_2_5"  />
</g>
<g id="a3_006"  >
<polygon points="78,90 85,90 90,85 85,80 78,80 78,90 " style="fill:#7715d8; stroke-width:1; stroke:black; " description="&lt;b&gt;C4K17_RS22040&lt;/b&gt;&lt;br&gt;pyoverdine-tailoring dipeptidase-like protein PvdM&lt;br&gt;Location: 4914441 - 4915790&lt;br&gt;&lt;br&gt;&lt;b&gt;BlastP hit with MCIC6FC_005789&lt;/b&gt;&lt;br&gt;Percentage identity: 70&lt;br&gt;Percentage coverage: 52&lt;br&gt;BLAST bit score: 644&lt;br&gt;E-value: 2e-182" locus_tag="C4K17_RS22040" class="clusterblast-orf" id="dummy-3_h3_2_6"  />
</g>
<g id="a3_007"  >
<polygon points="90,90 97,90 102,85 97,80 90,80 90,90 " style="fill:#7715d8; stroke-width:1; stroke:black; " description="&lt;b&gt;C4K17_RS22045&lt;/b&gt;&lt;br&gt;aminotransferase class V-fold PLP-dependent enzyme&lt;br&gt;Location: 4915821 - 4917113&lt;br&gt;&lt;br&gt;&lt;b&gt;BlastP hit with MCIC6FC_005789&lt;/b&gt;&lt;br&gt;Percentage identity: 66&lt;br&gt;Percentage coverage: 50&lt;br&gt;BLAST bit score: 590&lt;br&gt;E-value: 3.4e-166" locus_tag="C4K17_RS22045" class="clusterblast-orf" id="dummy-3_h3_2_7"  />
</g>
<g id="a3_008"  >
<polygon points="102,90 105,90 110,85 105,80 102,80 102,90 " style="fill:#d84615; stroke-width:1; stroke:black; " description="&lt;b&gt;C4K17_RS22050&lt;/b&gt;&lt;br&gt;formylglycine-generating enzyme family protein&lt;br&gt;Location: 4917158 - 4918057&lt;br&gt;&lt;br&gt;&lt;b&gt;BlastP hit with MCIC6FC_005790&lt;/b&gt;&lt;br&gt;Percentage identity: 70&lt;br&gt;Percentage coverage: 97&lt;br&gt;BLAST bit score: 428&lt;br&gt;E-value: 5.8e-118" locus_tag="C4K17_RS22050" class="clusterblast-orf" id="dummy-3_h3_2_8"  />
</g>
<g id="a3_009"  >
<polygon points="111,85 116,80 119,80 119,90 116,90 111,85 " style="fill:#46d815; stroke-width:1; stroke:black; " description="&lt;b&gt;C4K17_RS22055&lt;/b&gt;&lt;br&gt;N(5)-hydroxyornithine transformylase PvdF&lt;br&gt;Location: 4918212 - 4919039&lt;br&gt;&lt;br&gt;&lt;b&gt;BlastP hit with MCIC6FC_005791&lt;/b&gt;&lt;br&gt;Percentage identity: 92&lt;br&gt;Percentage coverage: 86&lt;br&gt;BLAST bit score: 520&lt;br&gt;E-value: 1.6e-145" locus_tag="C4K17_RS22055" class="clusterblast-orf" id="dummy-3_h3_2_9"  />
</g>
<g id="a3_0010"  >
<polygon points="120,90 130,90 135,85 130,80 120,80 120,90 " style="fill:#15a7d8; stroke-width:1; stroke:black; " description="&lt;b&gt;C4K17_RS22060&lt;/b&gt;&lt;br&gt;cyclic peptide export ABC transporter&lt;br&gt;Location: 4919226 - 4920878&lt;br&gt;&lt;br&gt;&lt;b&gt;BlastP hit with MCIC6FC_005792&lt;/b&gt;&lt;br&gt;Percentage identity: 83&lt;br&gt;Percentage coverage: 39&lt;br&gt;BLAST bit score: 869&lt;br&gt;E-value: 4.6e-250" locus_tag="C4K17_RS22060" class="clusterblast-orf" id="dummy-3_h3_2_10"  />
</g>
<g id="a3_0011"  >
<polygon points="136,90 153,90 158,85 153,80 136,80 136,90 " style="fill:#15a7d8; stroke-width:1; stroke:black; " description="&lt;b&gt;C4K17_RS22065&lt;/b&gt;&lt;br&gt;TonB-dependent siderophore receptor&lt;br&gt;Location: 4921032 - 4923431&lt;br&gt;&lt;br&gt;&lt;b&gt;BlastP hit with MCIC6FC_005792&lt;/b&gt;&lt;br&gt;Percentage identity: 41&lt;br&gt;Percentage coverage: 59&lt;br&gt;BLAST bit score: 569&lt;br&gt;E-value: 7.5e-160" locus_tag="C4K17_RS22065" class="clusterblast-orf" id="dummy-3_h3_2_11"  />
</g>
<g id="a3_0012"  >
<polygon points="163,85 168,80 268,80 268,90 168,90 163,85 " style="fill:#a715d8; stroke-width:1; stroke:black; " description="&lt;b&gt;C4K17_RS22070&lt;/b&gt;&lt;br&gt;non-ribosomal peptide synthetase&lt;br&gt;Location: 4924060 - 4935945&lt;br&gt;&lt;br&gt;&lt;b&gt;BlastP hit with MCIC6FC_005793&lt;/b&gt;&lt;br&gt;Percentage identity: 55&lt;br&gt;Percentage coverage: 37&lt;br&gt;BLAST bit score: 3671&lt;br&gt;E-value: 0.0" locus_tag="C4K17_RS22070" class="clusterblast-orf" id="dummy-3_h3_2_12"  />
</g>
<g id="a3_0013"  >
<polygon points="268,85 273,80 394,80 394,90 273,90 268,85 " style="fill:#a715d8; stroke-width:1; stroke:black; " description="&lt;b&gt;C4K17_RS22075&lt;/b&gt;&lt;br&gt;non-ribosomal peptide synthetase&lt;br&gt;Location: 4935949 - 4950162&lt;br&gt;&lt;br&gt;&lt;b&gt;BlastP hit with MCIC6FC_005793&lt;/b&gt;&lt;br&gt;Percentage identity: 51&lt;br&gt;Percentage coverage: 47&lt;br&gt;BLAST bit score: 4322&lt;br&gt;E-value: 0.0" locus_tag="C4K17_RS22075" class="clusterblast-orf" id="dummy-3_h3_2_13"  />
</g>
<g id="a3_0014"  >
<polygon points="396,90 399,90 404,85 399,80 396,80 396,90 " style="fill:#d87715; stroke-width:1; stroke:black; " description="&lt;b&gt;C4K17_RS22080&lt;/b&gt;&lt;br&gt;siderophore-interacting protein&lt;br&gt;Location: 4950340 - 4951323&lt;br&gt;&lt;br&gt;&lt;b&gt;BlastP hit with MCIC6FC_005794&lt;/b&gt;&lt;br&gt;Percentage identity: 72&lt;br&gt;Percentage coverage: 101&lt;br&gt;BLAST bit score: 484&lt;br&gt;E-value: 7.4e-135" locus_tag="C4K17_RS22080" class="clusterblast-orf" id="dummy-3_h3_2_14"  />
</g>
<g id="a3_0015"  >
<polygon points="405,85 410,80 412,80 412,90 410,90 405,85 " style="fill:#15d815; stroke-width:1; stroke:black; " description="&lt;b&gt;C4K17_RS22085&lt;/b&gt;&lt;br&gt;thioesterase&lt;br&gt;Location: 4951404 - 4952144&lt;br&gt;&lt;br&gt;&lt;b&gt;BlastP hit with MCIC6FC_005795&lt;/b&gt;&lt;br&gt;Percentage identity: 77&lt;br&gt;Percentage coverage: 39&lt;br&gt;BLAST bit score: 380&lt;br&gt;E-value: 3.8e-103" locus_tag="C4K17_RS22085" class="clusterblast-orf" id="dummy-3_h3_2_15"  />
</g>
<g id="a3_0016"  >
<polygon points="413,90 418,90 423,85 418,80 413,80 413,90 " style="fill:white; stroke-width:1; stroke:black; " description="&lt;b&gt;C4K17_RS22090&lt;/b&gt;&lt;br&gt;cupin-like domain-containing protein&lt;br&gt;Location: 4952306 - 4953439" locus_tag="C4K17_RS22090" class="clusterblast-orf" id="dummy-3_h3_2_16"  />
</g>
<g id="a3_0017"  >
<polygon points="423,85 428,80 434,80 434,90 428,90 423,85 " style="fill:#15d815; stroke-width:1; stroke:black; " description="&lt;b&gt;C4K17_RS22095&lt;/b&gt;&lt;br&gt;MFS transporter&lt;br&gt;Location: 4953443 - 4954636&lt;br&gt;&lt;br&gt;&lt;b&gt;BlastP hit with MCIC6FC_005795&lt;/b&gt;&lt;br&gt;Percentage identity: 81&lt;br&gt;Percentage coverage: 62&lt;br&gt;BLAST bit score: 554&lt;br&gt;E-value: 1.9e-155" locus_tag="C4K17_RS22095" class="clusterblast-orf" id="dummy-3_h3_2_17"  />
</g>
<g id="a3_0018"  >
<polygon points="435,90 435,90 440,85 435,80 435,80 435,90 " style="fill:#1577d8; stroke-width:1; stroke:black; " description="&lt;b&gt;C4K17_RS22100&lt;/b&gt;&lt;br&gt;TetR/AcrR family transcriptional regulator&lt;br&gt;Location: 4954769 - 4955356&lt;br&gt;&lt;br&gt;&lt;b&gt;BlastP hit with MCIC6FC_005796&lt;/b&gt;&lt;br&gt;Percentage identity: 69&lt;br&gt;Percentage coverage: 99&lt;br&gt;BLAST bit score: 243&lt;br&gt;E-value: 1.3e-62" locus_tag="C4K17_RS22100" class="clusterblast-orf" id="dummy-3_h3_2_18"  />
</g>
<g id="a3_0019"  >
<polygon points="441,90 443,90 448,85 443,80 441,80 441,90 " style="fill:#d815d8; stroke-width:1; stroke:black; " description="&lt;b&gt;C4K17_RS22105&lt;/b&gt;&lt;br&gt;glucose 1-dehydrogenase&lt;br&gt;Location: 4955475 - 4956275&lt;br&gt;&lt;br&gt;&lt;b&gt;BlastP hit with MCIC6FC_005797&lt;/b&gt;&lt;br&gt;Percentage identity: 77&lt;br&gt;Percentage coverage: 100&lt;br&gt;BLAST bit score: 390&lt;br&gt;E-value: 1.6e-106" locus_tag="C4K17_RS22105" class="clusterblast-orf" id="dummy-3_h3_2_19"  />
</g>
<g id="a3_0020"  >
<polygon points="448,90 459,90 464,85 459,80 448,80 448,90 " style="fill:#d8a715; stroke-width:1; stroke:black; " description="&lt;b&gt;C4K17_RS22110&lt;/b&gt;&lt;br&gt;glycoside hydrolase family 15 protein&lt;br&gt;Location: 4956268 - 4958088&lt;br&gt;&lt;br&gt;&lt;b&gt;BlastP hit with MCIC6FC_005798&lt;/b&gt;&lt;br&gt;Percentage identity: 82&lt;br&gt;Percentage coverage: 26&lt;br&gt;BLAST bit score: 987&lt;br&gt;E-value: 3.2e-285" locus_tag="C4K17_RS22110" class="clusterblast-orf" id="dummy-3_h3_2_20"  />
</g>
<g id="a3_0021"  >
<polygon points="468,90 472,85 468,80 468,90 " style="fill:white; stroke-width:1; stroke:black; " description="&lt;b&gt;C4K17_RS22115&lt;/b&gt;&lt;br&gt;cysteine hydrolase family protein&lt;br&gt;Location: 4958487 - 4958969" locus_tag="C4K17_RS22115" class="clusterblast-orf" id="dummy-3_h3_2_21"  />
</g>
<g id="a3_0022"  >
<polygon points="473,90 475,90 480,85 475,80 473,80 473,90 " style="fill:white; stroke-width:1; stroke:black; " description="&lt;b&gt;C4K17_RS22120&lt;/b&gt;&lt;br&gt;hypothetical protein&lt;br&gt;Location: 4959074 - 4959838" locus_tag="C4K17_RS22120" class="clusterblast-orf" id="dummy-3_h3_2_22"  />
</g>
<g id="a3_0023"  >
<polygon points="480,90 483,90 488,85 483,80 480,80 480,90 " style="fill:white; stroke-width:1; stroke:black; " description="&lt;b&gt;C4K17_RS22125&lt;/b&gt;&lt;br&gt;alpha/beta hydrolase&lt;br&gt;Location: 4959876 - 4960784" locus_tag="C4K17_RS22125" class="clusterblast-orf" id="dummy-3_h3_2_23"  />
</g>
<g id="a3_0024"  >
<polygon points="488,85 490,80 490,90 488,85 " style="fill:white; stroke-width:1; stroke:black; " description="&lt;b&gt;C4K17_RS22130&lt;/b&gt;&lt;br&gt;PAAR domain-containing protein&lt;br&gt;Location: 4960777 - 4961040" locus_tag="C4K17_RS22130" class="clusterblast-orf" id="dummy-3_h3_2_24"  />
</g>
<g id="a3_0025"  >
<polygon points="491,85 494,80 494,90 491,85 " style="fill:white; stroke-width:1; stroke:black; " description="&lt;b&gt;C4K17_RS22135&lt;/b&gt;&lt;br&gt;histidine kinase&lt;br&gt;Location: 4961114 - 4961518" locus_tag="C4K17_RS22135" class="clusterblast-orf" id="dummy-3_h3_2_25"  />
</g>
<g id="a3_0026"  >
<polygon points="495,85 500,80 500,80 500,90 500,90 495,85 " style="fill:white; stroke-width:1; stroke:black; " description="&lt;b&gt;C4K17_RS22140&lt;/b&gt;&lt;br&gt;hypothetical protein&lt;br&gt;Location: 4961582 - 4962172" locus_tag="C4K17_RS22140" class="clusterblast-orf" id="dummy-3_h3_2_26"  />
</g>
<g id="a3_0027"  >
<polygon points="504,85 509,80 542,80 542,90 509,90 504,85 " style="fill:white; stroke-width:1; stroke:black; " description="&lt;b&gt;C4K17_RS22145&lt;/b&gt;&lt;br&gt;RHS repeat protein&lt;br&gt;Location: 4962559 - 4966887" locus_tag="C4K17_RS22145" class="clusterblast-orf" id="dummy-3_h3_2_27"  />
</g>
<g id="a3_0028"  >
<polygon points="542,85 547,80 568,80 568,90 547,90 542,85 " style="fill:white; stroke-width:1; stroke:black; " description="&lt;b&gt;C4K17_RS22150&lt;/b&gt;&lt;br&gt;type VI secretion system tip protein VgrG&lt;br&gt;Location: 4966884 - 4969814" locus_tag="C4K17_RS22150" class="clusterblast-orf" id="dummy-3_h3_2_28"  />
</g>
<g id="a3_0029"  >
<polygon points="569,85 573,80 573,90 569,85 " style="fill:white; stroke-width:1; stroke:black; " description="&lt;b&gt;C4K17_RS22155&lt;/b&gt;&lt;br&gt;Hcp family type VI secretion system effector&lt;br&gt;Location: 4969943 - 4970461" locus_tag="C4K17_RS22155" class="clusterblast-orf" id="dummy-3_h3_2_29"  />
</g>
<g id="a3_0030"  >
<polygon points="573,90 575,85 573,80 573,90 " style="fill:white; stroke-width:1; stroke:black; " description="&lt;b&gt;C4K17_RS22160&lt;/b&gt;&lt;br&gt;hypothetical protein&lt;br&gt;Location: 4970460 - 4970687" locus_tag="C4K17_RS22160" class="clusterblast-orf" id="dummy-3_h3_2_30"  />
</g>
<g id="a3_0031"  >
<polygon points="577,85 582,80 585,80 585,90 582,90 577,85 " style="fill:#15d846; stroke-width:1; stroke:black; " description="&lt;b&gt;C4K17_RS22165&lt;/b&gt;&lt;br&gt;GlxA family transcriptional regulator&lt;br&gt;Location: 4970819 - 4971811&lt;br&gt;&lt;br&gt;&lt;b&gt;BlastP hit with MCIC6FC_005799&lt;/b&gt;&lt;br&gt;Percentage identity: 79&lt;br&gt;Percentage coverage: 98&lt;br&gt;BLAST bit score: 503&lt;br&gt;E-value: 1.6e-140&lt;br&gt;&lt;br&gt;&lt;b&gt;BlastP hit with MCIC6FC_005800&lt;/b&gt;&lt;br&gt;Percentage identity: 38&lt;br&gt;Percentage coverage: 96&lt;br&gt;BLAST bit score: 111&lt;br&gt;E-value: 9.2e-23" locus_tag="C4K17_RS22165" class="clusterblast-orf" id="dummy-3_h3_2_31"  />
</g>
<g id="a3_0032"  >
<polygon points="586,90 587,90 592,85 587,80 586,80 586,90 " style="fill:#15d846; stroke-width:1; stroke:black; " description="&lt;b&gt;C4K17_RS22170&lt;/b&gt;&lt;br&gt;DJ-1/PfpI family protein&lt;br&gt;Location: 4971926 - 4972612&lt;br&gt;&lt;br&gt;&lt;b&gt;BlastP hit with MCIC6FC_005799&lt;/b&gt;&lt;br&gt;Percentage identity: 35&lt;br&gt;Percentage coverage: 57&lt;br&gt;BLAST bit score: 93&lt;br&gt;E-value: 3.7e-17&lt;br&gt;&lt;br&gt;&lt;b&gt;BlastP hit with MCIC6FC_005800&lt;/b&gt;&lt;br&gt;Percentage identity: 81&lt;br&gt;Percentage coverage: 98&lt;br&gt;BLAST bit score: 351&lt;br&gt;E-value: 5.3e-95" locus_tag="C4K17_RS22170" class="clusterblast-orf" id="dummy-3_h3_2_32"  />
</g>
<g id="a3_0033"  >
<polygon points="593,85 596,80 596,90 593,85 " style="fill:white; stroke-width:1; stroke:black; " description="&lt;b&gt;C4K17_RS22175&lt;/b&gt;&lt;br&gt;2-hexyl-5-propylresorcinol biosynthesis acyl carrier protein DarC&lt;br&gt;Location: 4972702 - 4972959" locus_tag="C4K17_RS22175" class="clusterblast-orf" id="dummy-3_h3_2_33"  />
</g>
<g id="a3_0034"  >
<polygon points="596,85 601,80 606,80 606,90 601,90 596,85 " style="fill:white; stroke-width:1; stroke:black; " description="&lt;b&gt;C4K17_RS22180&lt;/b&gt;&lt;br&gt;beta-ketoacyl synthase DarB&lt;br&gt;Location: 4973040 - 4974191" locus_tag="C4K17_RS22180" class="clusterblast-orf" id="dummy-3_h3_2_34"  />
</g>
<g id="a3_0035"  >
<polygon points="607,85 612,80 615,80 615,90 612,90 607,85 " style="fill:white; stroke-width:1; stroke:black; " description="&lt;b&gt;C4K17_RS22185&lt;/b&gt;&lt;br&gt;2-hexyl, 5-propylresorcinol biosynthesis aromatase DarA&lt;br&gt;Location: 4974199 - 4975140" locus_tag="C4K17_RS22185" class="clusterblast-orf" id="dummy-3_h3_2_35"  />
</g>
<g id="a3_0036"  >
<polygon points="619,90 623,85 619,80 619,90 " style="fill:white; stroke-width:1; stroke:black; " description="&lt;b&gt;C4K17_RS22190&lt;/b&gt;&lt;br&gt;GFA family protein&lt;br&gt;Location: 4975645 - 4976049" locus_tag="C4K17_RS22190" class="clusterblast-orf" id="dummy-3_h3_2_36"  />
</g>
<g id="a3_0037"  >
<polygon points="625,85 630,80 632,80 632,90 630,90 625,85 " style="fill:#15d877; stroke-width:1; stroke:black; " description="&lt;b&gt;C4K17_RS22195&lt;/b&gt;&lt;br&gt;phosphotransferase&lt;br&gt;Location: 4976271 - 4977077&lt;br&gt;&lt;br&gt;&lt;b&gt;BlastP hit with MCIC6FC_005804&lt;/b&gt;&lt;br&gt;Percentage identity: 71&lt;br&gt;Percentage coverage: 100&lt;br&gt;BLAST bit score: 378&lt;br&gt;E-value: 4.7e-103" locus_tag="C4K17_RS22195" class="clusterblast-orf" id="dummy-3_h3_2_37"  />
</g>
<g id="a3_0038"  >
<polygon points="632,85 635,80 635,90 632,85 " style="fill:white; stroke-width:1; stroke:black; " description="&lt;b&gt;C4K17_RS22200&lt;/b&gt;&lt;br&gt;helix-turn-helix transcriptional regulator&lt;br&gt;Location: 4977093 - 4977452" locus_tag="C4K17_RS22200" class="clusterblast-orf" id="dummy-3_h3_2_38"  />
</g>
<g id="a3_0039"  >
<polygon points="635,85 639,80 639,90 635,85 " style="fill:#1515d8; stroke-width:1; stroke:black; " description="&lt;b&gt;C4K17_RS22205&lt;/b&gt;&lt;br&gt;SRPBCC family protein&lt;br&gt;Location: 4977442 - 4977897&lt;br&gt;&lt;br&gt;&lt;b&gt;BlastP hit with MCIC6FC_005806&lt;/b&gt;&lt;br&gt;Percentage identity: 71&lt;br&gt;Percentage coverage: 102&lt;br&gt;BLAST bit score: 220&lt;br&gt;E-value: 9e-56" locus_tag="C4K17_RS22205" class="clusterblast-orf" id="dummy-3_h3_2_39"  />
</g>
<g id="a3_0040"  >
<polygon points="641,90 644,85 641,80 641,90 " style="fill:#d81577; stroke-width:1; stroke:black; " description="&lt;b&gt;C4K17_RS22210&lt;/b&gt;&lt;br&gt;DUF1311 domain-containing protein&lt;br&gt;Location: 4978090 - 4978491&lt;br&gt;&lt;br&gt;&lt;b&gt;BlastP hit with MCIC6FC_005807&lt;/b&gt;&lt;br&gt;Percentage identity: 72&lt;br&gt;Percentage coverage: 24&lt;br&gt;BLAST bit score: 195&lt;br&gt;E-value: 1.2e-47" locus_tag="C4K17_RS22210" class="clusterblast-orf" id="dummy-3_h3_2_40"  />
</g>
<g id="a3_0041"  >
<polygon points="645,85 650,80 655,80 655,90 650,90 645,85 " style="fill:#a7d815; stroke-width:1; stroke:black; " description="&lt;b&gt;C4K17_RS22215&lt;/b&gt;&lt;br&gt;quinohemoprotein amine dehydrogenase subunit beta&lt;br&gt;Location: 4978545 - 4979672&lt;br&gt;&lt;br&gt;&lt;b&gt;BlastP hit with MCIC6FC_005808&lt;/b&gt;&lt;br&gt;Percentage identity: 83&lt;br&gt;Percentage coverage: 101&lt;br&gt;BLAST bit score: 638&lt;br&gt;E-value: 3.5e-181" locus_tag="C4K17_RS22215" class="clusterblast-orf" id="dummy-3_h3_2_41"  />
</g>
<g id="a3_0042"  >
<polygon points="655,85 658,80 658,90 655,85 " style="fill:white; stroke-width:1; stroke:black; " description="&lt;b&gt;C4K17_RS22220&lt;/b&gt;&lt;br&gt;quinohemoprotein amine dehydrogenase subunit gamma&lt;br&gt;Location: 4979696 - 4980019" locus_tag="C4K17_RS22220" class="clusterblast-orf" id="dummy-3_h3_2_42"  />
</g>
<g id="a3_0043"  >
<polygon points="658,85 663,80 671,80 671,90 663,90 658,85 " style="fill:#15d8a7; stroke-width:1; stroke:black; " description="&lt;b&gt;C4K17_RS22225&lt;/b&gt;&lt;br&gt;quinohemoprotein amine dehydrogenase maturation protein&lt;br&gt;Location: 4980021 - 4981454&lt;br&gt;&lt;br&gt;&lt;b&gt;BlastP hit with MCIC6FC_005809&lt;/b&gt;&lt;br&gt;Percentage identity: 89&lt;br&gt;Percentage coverage: 43&lt;br&gt;BLAST bit score: 831&lt;br&gt;E-value: 8.3e-239" locus_tag="C4K17_RS22225" class="clusterblast-orf" id="dummy-3_h3_2_43"  />
</g>
<g id="a3_0044"  >
<polygon points="671,85 676,80 685,80 685,90 676,90 671,85 " style="fill:#15d8a7; stroke-width:1; stroke:black; " description="&lt;b&gt;C4K17_RS22230&lt;/b&gt;&lt;br&gt;quinohemoprotein amine dehydrogenase subunit alpha&lt;br&gt;Location: 4981535 - 4983115&lt;br&gt;&lt;br&gt;&lt;b&gt;BlastP hit with MCIC6FC_005809&lt;/b&gt;&lt;br&gt;Percentage identity: 81&lt;br&gt;Percentage coverage: 46&lt;br&gt;BLAST bit score: 827&lt;br&gt;E-value: 1.2e-237" locus_tag="C4K17_RS22230" class="clusterblast-orf" id="dummy-3_h3_2_44"  />
</g>
<g id="a3_0045"  >
<polygon points="689,90 690,90 695,85 690,80 689,80 689,90 " style="fill:#d81546; stroke-width:1; stroke:black; " description="&lt;b&gt;C4K17_RS22235&lt;/b&gt;&lt;br&gt;HAD-IA family hydrolase&lt;br&gt;Location: 4983548 - 4984213&lt;br&gt;&lt;br&gt;&lt;b&gt;BlastP hit with MCIC6FC_005811&lt;/b&gt;&lt;br&gt;Percentage identity: 79&lt;br&gt;Percentage coverage: 99&lt;br&gt;BLAST bit score: 349&lt;br&gt;E-value: 2.6e-94" locus_tag="C4K17_RS22235" class="clusterblast-orf" id="dummy-3_h3_2_45"  />
</g>
<g id="a3_0046"  >
<polygon points="696,90 700,85 696,80 696,90 " style="fill:white; stroke-width:1; stroke:black; " description="&lt;b&gt;C4K17_RS22240&lt;/b&gt;&lt;br&gt;DUF1090 family protein&lt;br&gt;Location: 4984342 - 4984746" locus_tag="C4K17_RS22240" class="clusterblast-orf" id="dummy-3_h3_2_46"  />
</g>
<g id="a3_0047"  >
<polygon points="702,90 711,90 716,85 711,80 702,80 702,90 " style="fill:white; stroke-width:1; stroke:black; " description="&lt;b&gt;C4K17_RS22245&lt;/b&gt;&lt;br&gt;methyl-accepting chemotaxis protein&lt;br&gt;Location: 4984983 - 4986548" locus_tag="C4K17_RS22245" class="clusterblast-orf" id="dummy-3_h3_2_47"  />
</g>
<g id="a3_0048"  >
<polygon points="717,85 721,80 721,90 717,85 " style="fill:white; stroke-width:1; stroke:black; " description="&lt;b&gt;C4K17_RS22250&lt;/b&gt;&lt;br&gt;hemerythrin domain-containing protein&lt;br&gt;Location: 4986653 - 4987096" locus_tag="C4K17_RS22250" class="clusterblast-orf" id="dummy-3_h3_2_48"  />
</g>
<g id="a3_0049"  >
<polygon points="722,85 726,80 726,90 722,85 " style="fill:white; stroke-width:1; stroke:black; " description="&lt;b&gt;C4K17_RS22255&lt;/b&gt;&lt;br&gt;MliC family protein&lt;br&gt;Location: 4987309 - 4987698" locus_tag="C4K17_RS22255" class="clusterblast-orf" id="dummy-3_h3_2_49"  />
</g>
<g id="a3_0050"  >
<polygon points="728,90 736,90 741,85 736,80 728,80 728,90 " style="fill:white; stroke-width:1; stroke:black; " description="&lt;b&gt;C4K17_RS22260&lt;/b&gt;&lt;br&gt;aldehyde dehydrogenase family protein&lt;br&gt;Location: 4987932 - 4989422" locus_tag="C4K17_RS22260" class="clusterblast-orf" id="dummy-3_h3_2_50"  />
</g>
<g id="a3_0051"  >
<polygon points="743,90 755,90 760,85 755,80 743,80 743,90 " style="fill:white; stroke-width:1; stroke:black; " description="&lt;b&gt;C4K17_RS22265&lt;/b&gt;&lt;br&gt;amidohydrolase family protein&lt;br&gt;Location: 4989653 - 4991554" locus_tag="C4K17_RS22265" class="clusterblast-orf" id="dummy-3_h3_2_51"  />
</g>
<g id="a3_0052"  >
<polygon points="762,85 767,80 774,80 774,90 767,90 762,85 " style="fill:white; stroke-width:1; stroke:black; " description="&lt;b&gt;C4K17_RS22270&lt;/b&gt;&lt;br&gt;tryptophan 7-halogenase&lt;br&gt;Location: 4991779 - 4993086" locus_tag="C4K17_RS22270" class="clusterblast-orf" id="dummy-3_h3_2_52"  />
</g>
<g id="a3_0053"  >
<polygon points="774,85 779,80 779,80 779,90 779,90 774,85 " style="fill:white; stroke-width:1; stroke:black; " description="&lt;b&gt;C4K17_RS22275&lt;/b&gt;&lt;br&gt;peptidase S8 and S53 subtilisin kexin sedolisin&lt;br&gt;Location: 4993083 - 4993760" locus_tag="C4K17_RS22275" class="clusterblast-orf" id="dummy-3_h3_2_53"  />
</g>
</svg>
