<svg xmlns="http://www.w3.org/2000/svg" xmlns:xlink="http://www.w3.org/1999/xlink" version="1.1" x="0" y="0" height="230" width="800" viewBox="0 0 800 230" preserveAspectRatio="none"  >
<g label="Query sequence" class="clusterblast-cluster"  >
<text x="5" y="20" class="clusterblast-acc"  >
Query sequence</text>
<line x1="10" y1="35" x2="778.0" y2="35" style="stroke-width:1; stroke:grey; "  />
<polygon points="0,35 5,30 6,30 6,40 5,40 0,35 " style="fill:white; stroke-width:1; stroke:black; " description="&lt;b&gt;MCIC6FC_015552&lt;/b&gt;&lt;br&gt;hypothetical protein&lt;br&gt;Location: 371442 - 372090" locus_tag="MCIC6FC_015552" class="clusterblast-orf" id="dummy-3_q0_0_all"  />
<polygon points="6,35 11,30 88,30 88,40 11,40 6,35 " style="fill:#d81515; stroke-width:1; stroke:black; " description="&lt;b&gt;MCIC6FC_015553&lt;/b&gt;&lt;br&gt;hypothetical protein&lt;br&gt;Location: 372113 - 380390" locus_tag="MCIC6FC_015553" class="clusterblast-orf" id="dummy-3_q1_0_all"  />
<polygon points="88,35 93,30 95,30 95,40 93,40 88,35 " style="fill:#63d815; stroke-width:1; stroke:black; " description="&lt;b&gt;MCIC6FC_015554&lt;/b&gt;&lt;br&gt;hypothetical protein&lt;br&gt;Location: 380413 - 381082" locus_tag="MCIC6FC_015554" class="clusterblast-orf" id="dummy-3_q2_0_all"  />
<polygon points="97,40 97,40 102,35 97,30 97,30 97,40 " style="fill:#15b1d8; stroke-width:1; stroke:black; " description="&lt;b&gt;MCIC6FC_015555&lt;/b&gt;&lt;br&gt;hypothetical protein&lt;br&gt;Location: 381269 - 381827" locus_tag="MCIC6FC_015555" class="clusterblast-orf" id="dummy-3_q3_0_all"  />
<polygon points="102,35 107,30 125,30 125,40 107,40 102,35 " style="fill:white; stroke-width:1; stroke:black; " description="&lt;b&gt;MCIC6FC_015556&lt;/b&gt;&lt;br&gt;hypothetical protein&lt;br&gt;Location: 381840 - 384127" locus_tag="MCIC6FC_015556" class="clusterblast-orf" id="dummy-3_q4_0_all"  />
<polygon points="127,40 132,40 137,35 132,30 127,30 127,40 " style="fill:white; stroke-width:1; stroke:black; " description="&lt;b&gt;MCIC6FC_015557&lt;/b&gt;&lt;br&gt;hypothetical protein&lt;br&gt;Location: 384363 - 385391" locus_tag="MCIC6FC_015557" class="clusterblast-orf" id="dummy-3_q5_0_all"  />
<polygon points="138,35 143,30 150,30 150,40 143,40 138,35 " style="fill:#b115d8; stroke-width:1; stroke:black; " description="&lt;b&gt;MCIC6FC_015558&lt;/b&gt;&lt;br&gt;hypothetical protein&lt;br&gt;Location: 385461 - 386667" locus_tag="MCIC6FC_015558" class="clusterblast-orf" id="dummy-3_q6_0_all"  />
<polygon points="153,35 158,30 163,30 163,40 158,40 153,35 " style="fill:#d86315; stroke-width:1; stroke:black; " description="&lt;b&gt;MCIC6FC_015559&lt;/b&gt;&lt;br&gt;hypothetical protein&lt;br&gt;Location: 386933 - 388010" locus_tag="MCIC6FC_015559" class="clusterblast-orf" id="dummy-3_q7_0_all"  />
<polygon points="165,40 166,40 171,35 166,30 165,30 165,40 " style="fill:#15d815; stroke-width:1; stroke:black; " description="&lt;b&gt;MCIC6FC_015560&lt;/b&gt;&lt;br&gt;hypothetical protein&lt;br&gt;Location: 388141 - 388819" locus_tag="MCIC6FC_015560" class="clusterblast-orf" id="dummy-3_q8_0_all"  />
<polygon points="172,40 179,40 184,35 179,30 172,30 172,40 " style="fill:#1563d8; stroke-width:1; stroke:black; " description="&lt;b&gt;MCIC6FC_015561&lt;/b&gt;&lt;br&gt;hypothetical protein&lt;br&gt;Location: 388845 - 390088" locus_tag="MCIC6FC_015561" class="clusterblast-orf" id="dummy-3_q9_0_all"  />
<polygon points="185,40 219,40 224,35 219,30 185,30 185,40 " style="fill:#d815b1; stroke-width:1; stroke:black; " description="&lt;b&gt;MCIC6FC_015562&lt;/b&gt;&lt;br&gt;hypothetical protein&lt;br&gt;Location: 390156 - 394193" locus_tag="MCIC6FC_015562" class="clusterblast-orf" id="dummy-3_q10_0_all"  />
<polygon points="225,35 230,30 247,30 247,40 230,40 225,35 " style="fill:#d8b115; stroke-width:1; stroke:black; " description="&lt;b&gt;MCIC6FC_015563&lt;/b&gt;&lt;br&gt;hypothetical protein&lt;br&gt;Location: 394235 - 396454" locus_tag="MCIC6FC_015563" class="clusterblast-orf" id="dummy-3_q11_0_all"  />
<polygon points="250,40 309,40 314,35 309,30 250,30 250,40 " style="fill:#15d863; stroke-width:1; stroke:black; " description="&lt;b&gt;MCIC6FC_015564&lt;/b&gt;&lt;br&gt;hypothetical protein&lt;br&gt;Location: 396796 - 403215" locus_tag="MCIC6FC_015564" class="clusterblast-orf" id="dummy-3_q12_0_all"  />
<polygon points="326,35 331,30 341,30 341,40 331,40 326,35 " style="fill:#1515d8; stroke-width:1; stroke:black; " description="&lt;b&gt;MCIC6FC_015565&lt;/b&gt;&lt;br&gt;hypothetical protein&lt;br&gt;Location: 404434 - 405952" locus_tag="MCIC6FC_015565" class="clusterblast-orf" id="dummy-3_q13_0_all"  />
<polygon points="341,35 346,30 357,30 357,40 346,40 341,35 " style="fill:#d81563; stroke-width:1; stroke:black; " description="&lt;b&gt;MCIC6FC_015566&lt;/b&gt;&lt;br&gt;hypothetical protein&lt;br&gt;Location: 405978 - 407634" locus_tag="MCIC6FC_015566" class="clusterblast-orf" id="dummy-3_q14_0_all"  />
<polygon points="359,35 364,30 366,30 366,40 364,40 359,35 " style="fill:#b1d815; stroke-width:1; stroke:black; " description="&lt;b&gt;MCIC6FC_015567&lt;/b&gt;&lt;br&gt;hypothetical protein&lt;br&gt;Location: 407821 - 408496" locus_tag="MCIC6FC_015567" class="clusterblast-orf" id="dummy-3_q15_0_all"  />
<polygon points="369,40 405,40 410,35 405,30 369,30 369,40 " style="fill:#15d815; stroke-width:1; stroke:black; " description="&lt;b&gt;MCIC6FC_015568&lt;/b&gt;&lt;br&gt;hypothetical protein&lt;br&gt;Location: 408773 - 412960" locus_tag="MCIC6FC_015568" class="clusterblast-orf" id="dummy-3_q16_0_all"  />
<polygon points="412,40 422,40 427,35 422,30 412,30 412,40 " style="fill:#15d8b1; stroke-width:1; stroke:black; " description="&lt;b&gt;MCIC6FC_015569&lt;/b&gt;&lt;br&gt;hypothetical protein&lt;br&gt;Location: 413124 - 414658" locus_tag="MCIC6FC_015569" class="clusterblast-orf" id="dummy-3_q17_0_all"  />
<polygon points="427,35 432,30 526,30 526,40 432,40 427,35 " style="fill:#6315d8; stroke-width:1; stroke:black; " description="&lt;b&gt;MCIC6FC_015570&lt;/b&gt;&lt;br&gt;hypothetical protein&lt;br&gt;Location: 414704 - 424715" locus_tag="MCIC6FC_015570" class="clusterblast-orf" id="dummy-3_q18_0_all"  />
<polygon points="529,35 534,30 536,30 536,40 534,40 529,35 " style="fill:white; stroke-width:1; stroke:black; " description="&lt;b&gt;MCIC6FC_015571&lt;/b&gt;&lt;br&gt;hypothetical protein&lt;br&gt;Location: 424954 - 425722" locus_tag="MCIC6FC_015571" class="clusterblast-orf" id="dummy-3_q19_0_all"  />
<polygon points="537,35 542,30 591,30 591,40 542,40 537,35 " style="fill:#15d815; stroke-width:1; stroke:black; " description="&lt;b&gt;MCIC6FC_015572&lt;/b&gt;&lt;br&gt;hypothetical protein&lt;br&gt;Location: 425831 - 431252" locus_tag="MCIC6FC_015572" class="clusterblast-orf" id="dummy-3_q20_0_all"  />
<polygon points="593,40 593,40 598,35 593,30 593,30 593,40 " style="fill:white; stroke-width:1; stroke:black; " description="&lt;b&gt;MCIC6FC_015573&lt;/b&gt;&lt;br&gt;hypothetical protein&lt;br&gt;Location: 431508 - 431991" locus_tag="MCIC6FC_015573" class="clusterblast-orf" id="dummy-3_q21_0_all"  />
<polygon points="599,40 640,40 645,35 640,30 599,30 599,40 " style="fill:white; stroke-width:1; stroke:black; " description="&lt;b&gt;MCIC6FC_015574&lt;/b&gt;&lt;br&gt;hypothetical protein&lt;br&gt;Location: 432110 - 436710" locus_tag="MCIC6FC_015574" class="clusterblast-orf" id="dummy-3_q22_0_all"  />
<polygon points="646,35 651,30 707,30 707,40 651,40 646,35 " style="fill:white; stroke-width:1; stroke:black; " description="&lt;b&gt;MCIC6FC_015575&lt;/b&gt;&lt;br&gt;hypothetical protein&lt;br&gt;Location: 436847 - 443044" locus_tag="MCIC6FC_015575" class="clusterblast-orf" id="dummy-3_q23_0_all"  />
<polygon points="709,40 709,40 714,35 709,30 709,30 709,40 " style="fill:white; stroke-width:1; stroke:black; " description="&lt;b&gt;MCIC6FC_015576&lt;/b&gt;&lt;br&gt;hypothetical protein&lt;br&gt;Location: 443239 - 443728" locus_tag="MCIC6FC_015576" class="clusterblast-orf" id="dummy-3_q24_0_all"  />
<polygon points="715,35 720,30 724,30 724,40 720,40 715,35 " style="fill:white; stroke-width:1; stroke:black; " description="&lt;b&gt;MCIC6FC_015577&lt;/b&gt;&lt;br&gt;hypothetical protein&lt;br&gt;Location: 443855 - 444719" locus_tag="MCIC6FC_015577" class="clusterblast-orf" id="dummy-3_q25_0_all"  />
<polygon points="725,40 744,40 749,35 744,30 725,30 725,40 " style="fill:white; stroke-width:1; stroke:black; " description="&lt;b&gt;MCIC6FC_015578&lt;/b&gt;&lt;br&gt;hypothetical protein&lt;br&gt;Location: 444816 - 447254" locus_tag="MCIC6FC_015578" class="clusterblast-orf" id="dummy-3_q26_0_all"  />
<polygon points="752,40 775,40 780,35 775,30 752,30 752,40 " style="fill:white; stroke-width:1; stroke:black; " description="&lt;b&gt;MCIC6FC_015579&lt;/b&gt;&lt;br&gt;hypothetical protein&lt;br&gt;Location: 447568 - 450357" locus_tag="MCIC6FC_015579" class="clusterblast-orf" id="dummy-3_q27_0_all"  />
</g>
<g label="NZ_MSDI01000001" description="NZ_MSDI01000001 (327987-373035): Pseudomonas fluorescens strain E24 PF E24 co... (70% of genes show similarity), NRPS" class="clusterblast-cluster"  >
<text x="5" y="70" class="clusterblast-acc"  >
<a xlink:href="https://antismash-db.secondarymetabolites.org/area.html?record=NZ_MSDI01000001&amp;start=327987&amp;end=373035" target="_blank">NZ_MSDI01000001 (327987-373035)</a>: Pseudomonas fluorescens strain E24 PF E24 co... (70% of genes show similarity), NRPS</text>
<line x1="10" y1="85" x2="778.0" y2="85" style="stroke-width:1; stroke:grey; "  />
</g>
<g id="a3_000"  >
<polygon points="167,85 172,80 198,80 198,90 172,90 167,85 " style="fill:#d81515; stroke-width:1; stroke:black; " description="&lt;b&gt;BFW91_RS01780&lt;/b&gt;&lt;br&gt;hybrid sensor histidine kinase/response regulator&lt;br&gt;Location: 373035 - 369862&lt;br&gt;&lt;br&gt;&lt;b&gt;BlastP hit with MCIC6FC_015553&lt;/b&gt;&lt;br&gt;Percentage identity: 88&lt;br&gt;Percentage coverage: 39&lt;br&gt;BLAST bit score: 1846&lt;br&gt;E-value: 0.0" locus_tag="BFW91_RS01780" class="clusterblast-orf" id="dummy-3_h3_1_0"  />
</g>
<g id="a3_001"  >
<polygon points="199,85 204,80 211,80 211,90 204,90 199,85 " style="fill:#d81515; stroke-width:1; stroke:black; " description="&lt;b&gt;BFW91_RS01775&lt;/b&gt;&lt;br&gt;EAL domain-containing protein&lt;br&gt;Location: 369778 - 368585&lt;br&gt;&lt;br&gt;&lt;b&gt;BlastP hit with MCIC6FC_015553&lt;/b&gt;&lt;br&gt;Percentage identity: 97&lt;br&gt;Percentage coverage: 14&lt;br&gt;BLAST bit score: 715&lt;br&gt;E-value: 1.6e-203" locus_tag="BFW91_RS01775" class="clusterblast-orf" id="dummy-3_h3_1_1"  />
</g>
<g id="a3_002"  >
<polygon points="211,85 216,80 238,80 238,90 216,90 211,85 " style="fill:#d81515; stroke-width:1; stroke:black; " description="&lt;b&gt;BFW91_RS01770&lt;/b&gt;&lt;br&gt;response regulator&lt;br&gt;Location: 368598 - 365800&lt;br&gt;&lt;br&gt;&lt;b&gt;BlastP hit with MCIC6FC_015553&lt;/b&gt;&lt;br&gt;Percentage identity: 93&lt;br&gt;Percentage coverage: 34&lt;br&gt;BLAST bit score: 1693&lt;br&gt;E-value: 0.0" locus_tag="BFW91_RS01770" class="clusterblast-orf" id="dummy-3_h3_1_2"  />
</g>
<g id="a3_003"  >
<polygon points="239,85 244,80 249,80 249,90 244,90 239,85 " style="fill:#d81515; stroke-width:1; stroke:black; " description="&lt;b&gt;BFW91_RS01765&lt;/b&gt;&lt;br&gt;fimbrial protein&lt;br&gt;Location: 365742 - 364762&lt;br&gt;&lt;br&gt;&lt;b&gt;BlastP hit with MCIC6FC_015553&lt;/b&gt;&lt;br&gt;Percentage identity: 89&lt;br&gt;Percentage coverage: 12&lt;br&gt;BLAST bit score: 593&lt;br&gt;E-value: 9.4e-167" locus_tag="BFW91_RS01765" class="clusterblast-orf" id="dummy-3_h3_1_3"  />
</g>
<g id="a3_004"  >
<polygon points="249,85 254,80 256,80 256,90 254,90 249,85 " style="fill:#63d815; stroke-width:1; stroke:black; " description="&lt;b&gt;BFW91_RS01760&lt;/b&gt;&lt;br&gt;molecular chaperone&lt;br&gt;Location: 364738 - 364046&lt;br&gt;&lt;br&gt;&lt;b&gt;BlastP hit with MCIC6FC_015554&lt;/b&gt;&lt;br&gt;Percentage identity: 83&lt;br&gt;Percentage coverage: 100&lt;br&gt;BLAST bit score: 377&lt;br&gt;E-value: 1.1e-102" locus_tag="BFW91_RS01760" class="clusterblast-orf" id="dummy-3_h3_1_4"  />
</g>
<g id="a3_005"  >
<polygon points="258,90 258,90 263,85 258,80 258,80 258,90 " style="fill:#15b1d8; stroke-width:1; stroke:black; " description="&lt;b&gt;BFW91_RS01755&lt;/b&gt;&lt;br&gt;hypothetical protein&lt;br&gt;Location: 363845 - 363324&lt;br&gt;&lt;br&gt;&lt;b&gt;BlastP hit with MCIC6FC_015555&lt;/b&gt;&lt;br&gt;Percentage identity: 91&lt;br&gt;Percentage coverage: 95&lt;br&gt;BLAST bit score: 287&lt;br&gt;E-value: 9.1e-76" locus_tag="BFW91_RS01755" class="clusterblast-orf" id="dummy-3_h3_1_5"  />
</g>
<g id="a3_006"  >
<polygon points="263,85 268,80 275,80 275,90 268,90 263,85 " style="fill:#b115d8; stroke-width:1; stroke:black; " description="&lt;b&gt;BFW91_RS01750&lt;/b&gt;&lt;br&gt;DUF1835 domain-containing protein&lt;br&gt;Location: 363316 - 362111&lt;br&gt;&lt;br&gt;&lt;b&gt;BlastP hit with MCIC6FC_015558&lt;/b&gt;&lt;br&gt;Percentage identity: 81&lt;br&gt;Percentage coverage: 100&lt;br&gt;BLAST bit score: 676&lt;br&gt;E-value: 1.3e-192" locus_tag="BFW91_RS01750" class="clusterblast-orf" id="dummy-3_h3_1_6"  />
</g>
<g id="a3_007"  >
<polygon points="277,85 282,80 288,80 288,90 282,90 277,85 " style="fill:#d86315; stroke-width:1; stroke:black; " description="&lt;b&gt;BFW91_RS01745&lt;/b&gt;&lt;br&gt;aldo/keto reductase&lt;br&gt;Location: 361843 - 360767&lt;br&gt;&lt;br&gt;&lt;b&gt;BlastP hit with MCIC6FC_015559&lt;/b&gt;&lt;br&gt;Percentage identity: 98&lt;br&gt;Percentage coverage: 100&lt;br&gt;BLAST bit score: 721&lt;br&gt;E-value: 5.2e-206" locus_tag="BFW91_RS01745" class="clusterblast-orf" id="dummy-3_h3_1_7"  />
</g>
<g id="a3_008"  >
<polygon points="289,90 291,90 296,85 291,80 289,80 289,90 " style="fill:#15d815; stroke-width:1; stroke:black; " description="&lt;b&gt;BFW91_RS01740&lt;/b&gt;&lt;br&gt;ATP-binding cassette domain-containing protein&lt;br&gt;Location: 360635 - 359958&lt;br&gt;&lt;br&gt;&lt;b&gt;BlastP hit with MCIC6FC_015560&lt;/b&gt;&lt;br&gt;Percentage identity: 84&lt;br&gt;Percentage coverage: 100&lt;br&gt;BLAST bit score: 378&lt;br&gt;E-value: 5.2e-103" locus_tag="BFW91_RS01740" class="clusterblast-orf" id="dummy-3_h3_1_8"  />
</g>
<g id="a3_009"  >
<polygon points="296,90 299,90 304,85 299,80 296,80 296,90 " style="fill:#1563d8; stroke-width:1; stroke:black; " description="&lt;b&gt;BFW91_RS01735&lt;/b&gt;&lt;br&gt;iron export ABC transporter permease subunit FetB&lt;br&gt;Location: 359961 - 359170&lt;br&gt;&lt;br&gt;&lt;b&gt;BlastP hit with MCIC6FC_015561&lt;/b&gt;&lt;br&gt;Percentage identity: 100&lt;br&gt;Percentage coverage: 63&lt;br&gt;BLAST bit score: 447&lt;br&gt;E-value: 1.5e-123" locus_tag="BFW91_RS01735" class="clusterblast-orf" id="dummy-3_h3_1_9"  />
</g>
<g id="a3_0010"  >
<polygon points="304,85 309,80 314,80 314,90 309,90 304,85 " style="fill:white; stroke-width:1; stroke:black; " description="&lt;b&gt;BFW91_RS01730&lt;/b&gt;&lt;br&gt;L-idonate 5-dehydrogenase&lt;br&gt;Location: 359166 - 358114" locus_tag="BFW91_RS01730" class="clusterblast-orf" id="dummy-3_h3_1_10"  />
</g>
<g id="a3_0011"  >
<polygon points="314,85 319,80 322,80 322,90 319,90 314,85 " style="fill:white; stroke-width:1; stroke:black; " description="&lt;b&gt;BFW91_RS01725&lt;/b&gt;&lt;br&gt;glucose 1-dehydrogenase&lt;br&gt;Location: 358100 - 357327" locus_tag="BFW91_RS01725" class="clusterblast-orf" id="dummy-3_h3_1_11"  />
</g>
<g id="a3_0012"  >
<polygon points="323,90 327,90 332,85 327,80 323,80 323,90 " style="fill:#1563d8; stroke-width:1; stroke:black; " description="&lt;b&gt;BFW91_RS01720&lt;/b&gt;&lt;br&gt;LysR family transcriptional regulator&lt;br&gt;Location: 357192 - 356320&lt;br&gt;&lt;br&gt;&lt;b&gt;BlastP hit with MCIC6FC_015561&lt;/b&gt;&lt;br&gt;Percentage identity: 85&lt;br&gt;Percentage coverage: 20&lt;br&gt;BLAST bit score: 128&lt;br&gt;E-value: 1.2e-27" locus_tag="BFW91_RS01720" class="clusterblast-orf" id="dummy-3_h3_1_12"  />
</g>
<g id="a3_0013"  >
<polygon points="332,85 337,80 347,80 347,90 337,90 332,85 " style="fill:#d8b115; stroke-width:1; stroke:black; " description="&lt;b&gt;BFW91_RS01715&lt;/b&gt;&lt;br&gt;efflux transporter outer membrane subunit&lt;br&gt;Location: 356281 - 354812&lt;br&gt;&lt;br&gt;&lt;b&gt;BlastP hit with MCIC6FC_015563&lt;/b&gt;&lt;br&gt;Percentage identity: 92&lt;br&gt;Percentage coverage: 65&lt;br&gt;BLAST bit score: 814&lt;br&gt;E-value: 9.1e-234" locus_tag="BFW91_RS01715" class="clusterblast-orf" id="dummy-3_h3_1_13"  />
</g>
<g id="a3_0014"  >
<polygon points="347,85 352,80 355,80 355,90 352,90 347,85 " style="fill:#d8b115; stroke-width:1; stroke:black; " description="&lt;b&gt;BFW91_RS01710&lt;/b&gt;&lt;br&gt;helix-turn-helix transcriptional regulator&lt;br&gt;Location: 354812 - 354018&lt;br&gt;&lt;br&gt;&lt;b&gt;BlastP hit with MCIC6FC_015563&lt;/b&gt;&lt;br&gt;Percentage identity: 86&lt;br&gt;Percentage coverage: 37&lt;br&gt;BLAST bit score: 443&lt;br&gt;E-value: 5.5e-122" locus_tag="BFW91_RS01710" class="clusterblast-orf" id="dummy-3_h3_1_14"  />
</g>
<g id="a3_0015"  >
<polygon points="360,90 417,90 422,85 417,80 360,80 360,90 " style="fill:#15d863; stroke-width:1; stroke:black; " description="&lt;b&gt;BFW91_RS01705&lt;/b&gt;&lt;br&gt;non-ribosomal peptide synthetase&lt;br&gt;Location: 353531 - 347262&lt;br&gt;&lt;br&gt;&lt;b&gt;BlastP hit with MCIC6FC_015564&lt;/b&gt;&lt;br&gt;Percentage identity: 85&lt;br&gt;Percentage coverage: 99&lt;br&gt;BLAST bit score: 3549&lt;br&gt;E-value: 0.0" locus_tag="BFW91_RS01705" class="clusterblast-orf" id="dummy-3_h3_1_15"  />
</g>
<g id="a3_0016"  >
<polygon points="422,85 427,80 437,80 437,90 427,90 422,85 " style="fill:#1515d8; stroke-width:1; stroke:black; " description="&lt;b&gt;BFW91_RS01700&lt;/b&gt;&lt;br&gt;glycosyltransferase family 39 protein&lt;br&gt;Location: 347206 - 345689&lt;br&gt;&lt;br&gt;&lt;b&gt;BlastP hit with MCIC6FC_015565&lt;/b&gt;&lt;br&gt;Percentage identity: 94&lt;br&gt;Percentage coverage: 100&lt;br&gt;BLAST bit score: 999&lt;br&gt;E-value: 1.1e-289" locus_tag="BFW91_RS01700" class="clusterblast-orf" id="dummy-3_h3_1_16"  />
</g>
<g id="a3_0017"  >
<polygon points="437,85 442,80 454,80 454,90 442,90 437,85 " style="fill:#d81563; stroke-width:1; stroke:black; " description="&lt;b&gt;BFW91_RS01695&lt;/b&gt;&lt;br&gt;lipid IV(A) 4-amino-4-deoxy-L-arabinosyltransferase&lt;br&gt;Location: 345662 - 344007&lt;br&gt;&lt;br&gt;&lt;b&gt;BlastP hit with MCIC6FC_015566&lt;/b&gt;&lt;br&gt;Percentage identity: 86&lt;br&gt;Percentage coverage: 100&lt;br&gt;BLAST bit score: 976&lt;br&gt;E-value: 1.4e-282" locus_tag="BFW91_RS01695" class="clusterblast-orf" id="dummy-3_h3_1_17"  />
</g>
<g id="a3_0018"  >
<polygon points="456,85 461,80 462,80 462,90 461,90 456,85 " style="fill:#b1d815; stroke-width:1; stroke:black; " description="&lt;b&gt;BFW91_RS01690&lt;/b&gt;&lt;br&gt;histidine phosphatase family protein&lt;br&gt;Location: 343817 - 343143&lt;br&gt;&lt;br&gt;&lt;b&gt;BlastP hit with MCIC6FC_015567&lt;/b&gt;&lt;br&gt;Percentage identity: 78&lt;br&gt;Percentage coverage: 100&lt;br&gt;BLAST bit score: 377&lt;br&gt;E-value: 1.2e-102" locus_tag="BFW91_RS01690" class="clusterblast-orf" id="dummy-3_h3_1_18"  />
</g>
<g id="a3_0019"  >
<polygon points="465,90 467,90 472,85 467,80 465,80 465,90 " style="fill:#15d815; stroke-width:1; stroke:black; " description="&lt;b&gt;BFW91_RS01685&lt;/b&gt;&lt;br&gt;ABC transporter ATP-binding protein&lt;br&gt;Location: 342868 - 342200&lt;br&gt;&lt;br&gt;&lt;b&gt;BlastP hit with MCIC6FC_015568&lt;/b&gt;&lt;br&gt;Percentage identity: 93&lt;br&gt;Percentage coverage: 15&lt;br&gt;BLAST bit score: 376&lt;br&gt;E-value: 1.2e-101&lt;br&gt;&lt;br&gt;&lt;b&gt;BlastP hit with MCIC6FC_015572&lt;/b&gt;&lt;br&gt;Percentage identity: 38&lt;br&gt;Percentage coverage: 13&lt;br&gt;BLAST bit score: 129&lt;br&gt;E-value: 2.5e-27" locus_tag="BFW91_RS01685" class="clusterblast-orf" id="dummy-3_h3_1_19"  />
</g>
<g id="a3_0020"  >
<polygon points="472,90 491,90 496,85 491,80 472,80 472,90 " style="fill:#15d815; stroke-width:1; stroke:black; " description="&lt;b&gt;BFW91_RS01680&lt;/b&gt;&lt;br&gt;ABC transporter permease&lt;br&gt;Location: 342198 - 339736&lt;br&gt;&lt;br&gt;&lt;b&gt;BlastP hit with MCIC6FC_015568&lt;/b&gt;&lt;br&gt;Percentage identity: 93&lt;br&gt;Percentage coverage: 59&lt;br&gt;BLAST bit score: 1439&lt;br&gt;E-value: 0.0" locus_tag="BFW91_RS01680" class="clusterblast-orf" id="dummy-3_h3_1_20"  />
</g>
<g id="a3_0021"  >
<polygon points="496,90 501,90 506,85 501,80 496,80 496,90 " style="fill:#15d815; stroke-width:1; stroke:black; " description="&lt;b&gt;BFW91_RS01675&lt;/b&gt;&lt;br&gt;iron ABC transporter permease&lt;br&gt;Location: 339746 - 338682&lt;br&gt;&lt;br&gt;&lt;b&gt;BlastP hit with MCIC6FC_015568&lt;/b&gt;&lt;br&gt;Percentage identity: 90&lt;br&gt;Percentage coverage: 26&lt;br&gt;BLAST bit score: 671&lt;br&gt;E-value: 1.8e-190" locus_tag="BFW91_RS01675" class="clusterblast-orf" id="dummy-3_h3_1_21"  />
</g>
<g id="a3_0022"  >
<polygon points="508,90 517,90 522,85 517,80 508,80 508,90 " style="fill:#15d8b1; stroke-width:1; stroke:black; " description="&lt;b&gt;BFW91_RS01670&lt;/b&gt;&lt;br&gt;hypothetical protein&lt;br&gt;Location: 338531 - 337089&lt;br&gt;&lt;br&gt;&lt;b&gt;BlastP hit with MCIC6FC_015569&lt;/b&gt;&lt;br&gt;Percentage identity: 89&lt;br&gt;Percentage coverage: 98&lt;br&gt;BLAST bit score: 873&lt;br&gt;E-value: 8.6e-252" locus_tag="BFW91_RS01670" class="clusterblast-orf" id="dummy-3_h3_1_22"  />
</g>
<g id="a3_0023"  >
<polygon points="523,85 528,80 534,80 534,90 528,90 523,85 " style="fill:#6315d8; stroke-width:1; stroke:black; " description="&lt;b&gt;BFW91_RS01665&lt;/b&gt;&lt;br&gt;SMP-30/gluconolactonase/LRE family protein&lt;br&gt;Location: 337037 - 335937&lt;br&gt;&lt;br&gt;&lt;b&gt;BlastP hit with MCIC6FC_015570&lt;/b&gt;&lt;br&gt;Percentage identity: 87&lt;br&gt;Percentage coverage: 12&lt;br&gt;BLAST bit score: 602&lt;br&gt;E-value: 3e-169" locus_tag="BFW91_RS01665" class="clusterblast-orf" id="dummy-3_h3_1_23"  />
</g>
<g id="a3_0024"  >
<polygon points="534,85 539,80 540,80 540,90 539,90 534,85 " style="fill:white; stroke-width:1; stroke:black; " description="&lt;b&gt;BFW91_RS01660&lt;/b&gt;&lt;br&gt;sterol desaturase family protein&lt;br&gt;Location: 335940 - 335263" locus_tag="BFW91_RS01660" class="clusterblast-orf" id="dummy-3_h3_1_24"  />
</g>
<g id="a3_0025"  >
<polygon points="543,90 547,90 552,85 547,80 543,80 543,90 " style="fill:white; stroke-width:1; stroke:black; " description="&lt;b&gt;BFW91_RS01655&lt;/b&gt;&lt;br&gt;substrate-binding domain-containing protein&lt;br&gt;Location: 334945 - 334022" locus_tag="BFW91_RS01655" class="clusterblast-orf" id="dummy-3_h3_1_25"  />
</g>
<g id="a3_0026"  >
<polygon points="553,90 563,90 568,85 563,80 553,80 553,90 " style="fill:white; stroke-width:1; stroke:black; " description="&lt;b&gt;BFW91_RS01650&lt;/b&gt;&lt;br&gt;sugar ABC transporter ATP-binding protein&lt;br&gt;Location: 333957 - 332449" locus_tag="BFW91_RS01650" class="clusterblast-orf" id="dummy-3_h3_1_26"  />
</g>
<g id="a3_0027"  >
<polygon points="568,90 572,90 577,85 572,80 568,80 568,90 " style="fill:white; stroke-width:1; stroke:black; " description="&lt;b&gt;BFW91_RS01645&lt;/b&gt;&lt;br&gt;ribose ABC transporter permease&lt;br&gt;Location: 332483 - 331491" locus_tag="BFW91_RS01645" class="clusterblast-orf" id="dummy-3_h3_1_27"  />
</g>
<g id="a3_0028"  >
<polygon points="578,90 583,90 588,85 583,80 578,80 578,90 " style="fill:white; stroke-width:1; stroke:black; " description="&lt;b&gt;BFW91_RS01640&lt;/b&gt;&lt;br&gt;alcohol dehydrogenase catalytic domain-containing protein&lt;br&gt;Location: 331463 - 330384" locus_tag="BFW91_RS01640" class="clusterblast-orf" id="dummy-3_h3_1_28"  />
</g>
<g id="a3_0029"  >
<polygon points="588,90 599,90 604,85 599,80 588,80 588,90 " style="fill:white; stroke-width:1; stroke:black; " description="&lt;b&gt;BFW91_RS01635&lt;/b&gt;&lt;br&gt;FGGY-family carbohydrate kinase&lt;br&gt;Location: 330382 - 328850" locus_tag="BFW91_RS01635" class="clusterblast-orf" id="dummy-3_h3_1_29"  />
</g>
<g id="a3_0030"  >
<polygon points="605,90 607,90 612,85 607,80 605,80 605,90 " style="fill:white; stroke-width:1; stroke:black; " description="&lt;b&gt;BFW91_RS01630&lt;/b&gt;&lt;br&gt;SDR family oxidoreductase&lt;br&gt;Location: 328713 - 327988" locus_tag="BFW91_RS01630" class="clusterblast-orf" id="dummy-3_h3_1_30"  />
</g>
</svg>
