<svg xmlns="http://www.w3.org/2000/svg" xmlns:xlink="http://www.w3.org/1999/xlink" version="1.1" x="0" y="0" height="230" width="800" viewBox="0 0 800 230" preserveAspectRatio="none"  >
<g label="Query sequence" class="clusterblast-cluster"  >
<text x="5" y="20" class="clusterblast-acc"  >
Query sequence</text>
<line x1="10" y1="35" x2="778.0" y2="35" style="stroke-width:1; stroke:grey; "  />
<polygon points="53,35 58,30 64,30 64,40 58,40 53,35 " style="fill:#d81515; stroke-width:1; stroke:black; " description="&lt;b&gt;MCIC6FC_015424&lt;/b&gt;&lt;br&gt;hypothetical protein&lt;br&gt;Location: 116480 - 116759" locus_tag="MCIC6FC_015424" class="clusterblast-orf" id="dummy-2_q0_0_all"  />
<polygon points="78,40 139,40 144,35 139,30 78,30 78,40 " style="fill:#15d815; stroke-width:1; stroke:black; " description="&lt;b&gt;MCIC6FC_015425&lt;/b&gt;&lt;br&gt;hypothetical protein&lt;br&gt;Location: 117152 - 118979" locus_tag="MCIC6FC_015425" class="clusterblast-orf" id="dummy-2_q1_0_all"  />
<polygon points="149,40 191,40 196,35 191,30 149,30 149,40 " style="fill:#1515d8; stroke-width:1; stroke:black; " description="&lt;b&gt;MCIC6FC_015426&lt;/b&gt;&lt;br&gt;hypothetical protein&lt;br&gt;Location: 119111 - 120437" locus_tag="MCIC6FC_015426" class="clusterblast-orf" id="dummy-2_q2_0_all"  />
<polygon points="212,40 346,40 351,35 346,30 212,30 212,40 " style="fill:#d815d8; stroke-width:1; stroke:black; " description="&lt;b&gt;MCIC6FC_015427&lt;/b&gt;&lt;br&gt;hypothetical protein&lt;br&gt;Location: 120854 - 124718" locus_tag="MCIC6FC_015427" class="clusterblast-orf" id="dummy-2_q3_0_all"  />
<polygon points="351,35 356,30 541,30 541,40 356,40 351,35 " style="fill:#d8d815; stroke-width:1; stroke:black; " description="&lt;b&gt;MCIC6FC_015428&lt;/b&gt;&lt;br&gt;hypothetical protein&lt;br&gt;Location: 124725 - 129958" locus_tag="MCIC6FC_015428" class="clusterblast-orf" id="dummy-2_q4_0_all"  />
<polygon points="548,40 721,40 726,35 721,30 548,30 548,40 " style="fill:#15d8d8; stroke-width:1; stroke:black; " description="&lt;b&gt;MCIC6FC_015429&lt;/b&gt;&lt;br&gt;hypothetical protein&lt;br&gt;Location: 130173 - 135098" locus_tag="MCIC6FC_015429" class="clusterblast-orf" id="dummy-2_q5_0_all"  />
</g>
<g label="NZ_CP011117" description="NZ_CP011117 (5789945-5816743): Pseudomonas synxantha strain LBUM223 chromosom... (41% of genes show similarity), NAGGN,TfuA-related" class="clusterblast-cluster"  >
<text x="5" y="70" class="clusterblast-acc"  >
<a xlink:href="https://antismash-db.secondarymetabolites.org/area.html?record=NZ_CP011117&amp;start=5789945&amp;end=5816743" target="_blank">NZ_CP011117 (5789945-5816743)</a>: Pseudomonas synxantha strain LBUM223 chromosom... (41% of genes show similarity), NAGGN,TfuA-related</text>
<line x1="10" y1="85" x2="778.0" y2="85" style="stroke-width:1; stroke:grey; "  />
</g>
<g id="a2_000"  >
<polygon points="0,90 14,90 19,85 14,80 0,80 0,90 " style="fill:white; stroke-width:1; stroke:black; " description="&lt;b&gt;VO64_RS27265&lt;/b&gt;&lt;br&gt;acireductone dioxygenase&lt;br&gt;Location: 5790161 - 5790691" locus_tag="VO64_RS27265" class="clusterblast-orf" id="dummy-2_h2_4_0"  />
</g>
<g id="a2_001"  >
<polygon points="26,90 31,90 36,85 31,80 26,80 26,90 " style="fill:white; stroke-width:1; stroke:black; " description="&lt;b&gt;VO64_RS27270&lt;/b&gt;&lt;br&gt;helix-turn-helix transcriptional regulator&lt;br&gt;Location: 5790903 - 5791172" locus_tag="VO64_RS27270" class="clusterblast-orf" id="dummy-2_h2_4_1"  />
</g>
<g id="a2_002"  >
<polygon points="38,85 43,80 48,80 48,90 43,90 38,85 " style="fill:#d81515; stroke-width:1; stroke:black; " description="&lt;b&gt;VO64_RS27275&lt;/b&gt;&lt;br&gt;DUF3509 domain-containing protein&lt;br&gt;Location: 5791231 - 5791509&lt;br&gt;&lt;br&gt;&lt;b&gt;BlastP hit with MCIC6FC_015424&lt;/b&gt;&lt;br&gt;Percentage identity: 99&lt;br&gt;Percentage coverage: 100&lt;br&gt;BLAST bit score: 180&lt;br&gt;E-value: 6.5e-44" locus_tag="VO64_RS27275" class="clusterblast-orf" id="dummy-2_h2_4_2"  />
</g>
<g id="a2_003"  >
<polygon points="52,85 57,80 63,80 63,90 57,90 52,85 " style="fill:white; stroke-width:1; stroke:black; " description="&lt;b&gt;VO64_RS31255&lt;/b&gt;&lt;br&gt;hypothetical protein&lt;br&gt;Location: 5791609 - 5791917" locus_tag="VO64_RS31255" class="clusterblast-orf" id="dummy-2_h2_4_3"  />
</g>
<g id="a2_004"  >
<polygon points="63,90 124,90 129,85 124,80 63,80 63,90 " style="fill:#15d815; stroke-width:1; stroke:black; " description="&lt;b&gt;VO64_RS27280&lt;/b&gt;&lt;br&gt;long-chain-acyl-CoA synthetase&lt;br&gt;Location: 5791916 - 5793742&lt;br&gt;&lt;br&gt;&lt;b&gt;BlastP hit with MCIC6FC_015425&lt;/b&gt;&lt;br&gt;Percentage identity: 88&lt;br&gt;Percentage coverage: 100&lt;br&gt;BLAST bit score: 1117&lt;br&gt;E-value: 0.0" locus_tag="VO64_RS27280" class="clusterblast-orf" id="dummy-2_h2_4_4"  />
</g>
<g id="a2_005"  >
<polygon points="133,90 146,90 151,85 146,80 133,80 133,90 " style="fill:#1515d8; stroke-width:1; stroke:black; " description="&lt;b&gt;VO64_RS27285&lt;/b&gt;&lt;br&gt;ankyrin repeat domain-containing protein&lt;br&gt;Location: 5793849 - 5794364&lt;br&gt;&lt;br&gt;&lt;b&gt;BlastP hit with MCIC6FC_015426&lt;/b&gt;&lt;br&gt;Percentage identity: 91&lt;br&gt;Percentage coverage: 13&lt;br&gt;BLAST bit score: 104&lt;br&gt;E-value: 2.1e-20" locus_tag="VO64_RS27285" class="clusterblast-orf" id="dummy-2_h2_4_5"  />
</g>
<g id="a2_006"  >
<polygon points="153,90 167,90 172,85 167,80 153,80 153,90 " style="fill:#1515d8; stroke-width:1; stroke:black; " description="&lt;b&gt;VO64_RS27290&lt;/b&gt;&lt;br&gt;hypothetical protein&lt;br&gt;Location: 5794405 - 5794935&lt;br&gt;&lt;br&gt;&lt;b&gt;BlastP hit with MCIC6FC_015426&lt;/b&gt;&lt;br&gt;Percentage identity: 95&lt;br&gt;Percentage coverage: 42&lt;br&gt;BLAST bit score: 328&lt;br&gt;E-value: 8.8e-88" locus_tag="VO64_RS27290" class="clusterblast-orf" id="dummy-2_h2_4_6"  />
</g>
<g id="a2_007"  >
<polygon points="175,90 176,90 181,85 176,80 175,80 175,90 " style="fill:#1515d8; stroke-width:1; stroke:black; " description="&lt;b&gt;VO64_RS27295&lt;/b&gt;&lt;br&gt;hypothetical protein&lt;br&gt;Location: 5795004 - 5795195&lt;br&gt;&lt;br&gt;&lt;b&gt;BlastP hit with MCIC6FC_015426&lt;/b&gt;&lt;br&gt;Percentage identity: 100&lt;br&gt;Percentage coverage: 15&lt;br&gt;BLAST bit score: 122&lt;br&gt;E-value: 1.3e-25" locus_tag="VO64_RS27295" class="clusterblast-orf" id="dummy-2_h2_4_7"  />
</g>
<g id="a2_008"  >
<polygon points="184,85 189,80 225,80 225,90 189,90 184,85 " style="fill:white; stroke-width:1; stroke:black; " description="&lt;b&gt;VO64_RS27300&lt;/b&gt;&lt;br&gt;hypothetical protein&lt;br&gt;Location: 5795273 - 5796406" locus_tag="VO64_RS27300" class="clusterblast-orf" id="dummy-2_h2_4_8"  />
</g>
<g id="a2_009"  >
<polygon points="227,85 232,80 274,80 274,90 232,90 227,85 " style="fill:white; stroke-width:1; stroke:black; " description="&lt;b&gt;VO64_RS27305&lt;/b&gt;&lt;br&gt;MFS transporter&lt;br&gt;Location: 5796448 - 5797752" locus_tag="VO64_RS27305" class="clusterblast-orf" id="dummy-2_h2_4_9"  />
</g>
<g id="a2_0010"  >
<polygon points="276,85 281,80 316,80 316,90 281,90 276,85 " style="fill:white; stroke-width:1; stroke:black; " description="&lt;b&gt;VO64_RS27310&lt;/b&gt;&lt;br&gt;molybdopterin-synthase adenylyltransferase MoeB&lt;br&gt;Location: 5797799 - 5798923" locus_tag="VO64_RS27310" class="clusterblast-orf" id="dummy-2_h2_4_10"  />
</g>
<g id="a2_0011"  >
<polygon points="316,85 321,80 326,80 326,90 321,90 316,85 " style="fill:white; stroke-width:1; stroke:black; " description="&lt;b&gt;VO64_RS27315&lt;/b&gt;&lt;br&gt;MoaD/ThiS family protein&lt;br&gt;Location: 5798925 - 5799197" locus_tag="VO64_RS27315" class="clusterblast-orf" id="dummy-2_h2_4_11"  />
</g>
<g id="a2_0012"  >
<polygon points="326,85 331,80 353,80 353,90 331,90 326,85 " style="fill:white; stroke-width:1; stroke:black; " description="&lt;b&gt;VO64_RS27320&lt;/b&gt;&lt;br&gt;hypothetical protein&lt;br&gt;Location: 5799201 - 5799935" locus_tag="VO64_RS27320" class="clusterblast-orf" id="dummy-2_h2_4_12"  />
</g>
<g id="a2_0013"  >
<polygon points="353,85 358,80 378,80 378,90 358,90 353,85 " style="fill:white; stroke-width:1; stroke:black; " description="&lt;b&gt;VO64_RS27325&lt;/b&gt;&lt;br&gt;hypothetical protein&lt;br&gt;Location: 5799946 - 5800647" locus_tag="VO64_RS27325" class="clusterblast-orf" id="dummy-2_h2_4_13"  />
</g>
<g id="a2_0014"  >
<polygon points="378,85 383,80 422,80 422,90 383,90 378,85 " style="fill:white; stroke-width:1; stroke:black; " description="&lt;b&gt;VO64_RS27330&lt;/b&gt;&lt;br&gt;hypothetical protein&lt;br&gt;Location: 5800628 - 5801845" locus_tag="VO64_RS27330" class="clusterblast-orf" id="dummy-2_h2_4_14"  />
</g>
<g id="a2_0015"  >
<polygon points="425,85 430,80 431,80 431,90 430,90 425,85 " style="fill:white; stroke-width:1; stroke:black; " description="&lt;b&gt;VO64_RS31335&lt;/b&gt;&lt;br&gt;hypothetical protein&lt;br&gt;Location: 5801923 - 5802099" locus_tag="VO64_RS31335" class="clusterblast-orf" id="dummy-2_h2_4_15"  />
</g>
<g id="a2_0016"  >
<polygon points="457,90 527,90 532,85 527,80 457,80 457,90 " style="fill:#d815d8; stroke-width:1; stroke:black; " description="&lt;b&gt;VO64_RS27335&lt;/b&gt;&lt;br&gt;LTA synthase family protein&lt;br&gt;Location: 5802819 - 5804906&lt;br&gt;&lt;br&gt;&lt;b&gt;BlastP hit with MCIC6FC_015427&lt;/b&gt;&lt;br&gt;Percentage identity: 97&lt;br&gt;Percentage coverage: 62&lt;br&gt;BLAST bit score: 1357&lt;br&gt;E-value: 0.0" locus_tag="VO64_RS27335" class="clusterblast-orf" id="dummy-2_h2_4_16"  />
</g>
<g id="a2_0017"  >
<polygon points="535,85 540,80 540,80 540,90 540,90 535,85 " style="fill:white; stroke-width:1; stroke:black; " description="&lt;b&gt;VO64_RS27340&lt;/b&gt;&lt;br&gt;DUF3309 domain-containing protein&lt;br&gt;Location: 5804978 - 5805130" locus_tag="VO64_RS27340" class="clusterblast-orf" id="dummy-2_h2_4_17"  />
</g>
<g id="a2_0018"  >
<polygon points="552,90 577,90 582,85 577,80 552,80 552,90 " style="fill:#d815d8; stroke-width:1; stroke:black; " description="&lt;b&gt;VO64_RS27345&lt;/b&gt;&lt;br&gt;SDR family oxidoreductase&lt;br&gt;Location: 5805457 - 5806272&lt;br&gt;&lt;br&gt;&lt;b&gt;BlastP hit with MCIC6FC_015427&lt;/b&gt;&lt;br&gt;Percentage identity: 92&lt;br&gt;Percentage coverage: 24&lt;br&gt;BLAST bit score: 486&lt;br&gt;E-value: 6.7e-135" locus_tag="VO64_RS27345" class="clusterblast-orf" id="dummy-2_h2_4_18"  />
</g>
<g id="a2_0019"  >
<polygon points="586,90 589,90 594,85 589,80 586,80 586,90 " style="fill:white; stroke-width:1; stroke:black; " description="&lt;b&gt;VO64_RS27350&lt;/b&gt;&lt;br&gt;carbon storage regulator CsrA&lt;br&gt;Location: 5806400 - 5806603" locus_tag="VO64_RS27350" class="clusterblast-orf" id="dummy-2_h2_4_19"  />
</g>
<g id="a2_0020"  >
<polygon points="594,85 599,80 602,80 602,90 599,90 594,85 " style="fill:white; stroke-width:1; stroke:black; " description="&lt;b&gt;VO64_RS27355&lt;/b&gt;&lt;br&gt;YheU family protein&lt;br&gt;Location: 5806614 - 5806841" locus_tag="VO64_RS27355" class="clusterblast-orf" id="dummy-2_h2_4_20"  />
</g>
<g id="a2_0021"  >
<polygon points="605,85 610,80 648,80 648,90 610,90 605,85 " style="fill:#d8d815; stroke-width:1; stroke:black; " description="&lt;b&gt;VO64_RS27360&lt;/b&gt;&lt;br&gt;osmoprotectant NAGGN system M42 family peptidase&lt;br&gt;Location: 5806917 - 5808101&lt;br&gt;&lt;br&gt;&lt;b&gt;BlastP hit with MCIC6FC_015428&lt;/b&gt;&lt;br&gt;Percentage identity: 98&lt;br&gt;Percentage coverage: 23&lt;br&gt;BLAST bit score: 769&lt;br&gt;E-value: 6e-220" locus_tag="VO64_RS27360" class="clusterblast-orf" id="dummy-2_h2_4_21"  />
</g>
<g id="a2_0022"  >
<polygon points="652,85 657,80 715,80 715,90 657,90 652,85 " style="fill:#d8d815; stroke-width:1; stroke:black; " description="&lt;b&gt;VO64_RS27365&lt;/b&gt;&lt;br&gt;N-acetylglutaminylglutamine synthetase&lt;br&gt;Location: 5808222 - 5809967&lt;br&gt;&lt;br&gt;&lt;b&gt;BlastP hit with MCIC6FC_015428&lt;/b&gt;&lt;br&gt;Percentage identity: 94&lt;br&gt;Percentage coverage: 34&lt;br&gt;BLAST bit score: 1091&lt;br&gt;E-value: 0.0" locus_tag="VO64_RS27365" class="clusterblast-orf" id="dummy-2_h2_4_22"  />
</g>
<g id="a2_0023"  >
<polygon points="715,85 720,80 780,80 780,90 720,90 715,85 " style="fill:#d8d815; stroke-width:1; stroke:black; " description="&lt;b&gt;VO64_RS27370&lt;/b&gt;&lt;br&gt;N-acetylglutaminylglutamine amidotransferase&lt;br&gt;Location: 5809971 - 5811743&lt;br&gt;&lt;br&gt;&lt;b&gt;BlastP hit with MCIC6FC_015428&lt;/b&gt;&lt;br&gt;Percentage identity: 97&lt;br&gt;Percentage coverage: 35&lt;br&gt;BLAST bit score: 1154&lt;br&gt;E-value: 0.0" locus_tag="VO64_RS27370" class="clusterblast-orf" id="dummy-2_h2_4_23"  />
</g>
</svg>
