<svg xmlns="http://www.w3.org/2000/svg" xmlns:xlink="http://www.w3.org/1999/xlink" version="1.1" x="0" y="0" height="230" width="800" viewBox="0 0 800 230" preserveAspectRatio="none"  >
<g label="Query sequence" class="clusterblast-cluster"  >
<text x="5" y="20" class="clusterblast-acc"  >
Query sequence</text>
<line x1="10" y1="35" x2="778.0" y2="35" style="stroke-width:1; stroke:grey; "  />
<polygon points="83,40 146,40 151,35 146,30 83,30 83,40 " style="fill:#d81515; stroke-width:1; stroke:black; " description="&lt;b&gt;MCIC6FC_019806&lt;/b&gt;&lt;br&gt;hypothetical protein&lt;br&gt;Location: 44058 - 45851" locus_tag="MCIC6FC_019806" class="clusterblast-orf" id="dummy-1_q0_0_all"  />
<polygon points="156,35 161,30 206,30 206,40 161,40 156,35 " style="fill:#3cd815; stroke-width:1; stroke:black; " description="&lt;b&gt;MCIC6FC_019807&lt;/b&gt;&lt;br&gt;hypothetical protein&lt;br&gt;Location: 45981 - 47312" locus_tag="MCIC6FC_019807" class="clusterblast-orf" id="dummy-1_q1_0_all"  />
<polygon points="208,40 290,40 295,35 290,30 208,30 208,40 " style="fill:#1563d8; stroke-width:1; stroke:black; " description="&lt;b&gt;MCIC6FC_019808&lt;/b&gt;&lt;br&gt;hypothetical protein&lt;br&gt;Location: 47362 - 49671" locus_tag="MCIC6FC_019808" class="clusterblast-orf" id="dummy-1_q2_0_all"  />
<polygon points="318,35 323,30 379,30 379,40 323,40 318,35 " style="fill:#b115d8; stroke-width:1; stroke:black; " description="&lt;b&gt;MCIC6FC_019809&lt;/b&gt;&lt;br&gt;hypothetical protein&lt;br&gt;Location: 50264 - 51899" locus_tag="MCIC6FC_019809" class="clusterblast-orf" id="dummy-1_q3_0_all"  />
<polygon points="385,40 424,40 429,35 424,30 385,30 385,40 " style="fill:#d88a15; stroke-width:1; stroke:black; " description="&lt;b&gt;MCIC6FC_019810&lt;/b&gt;&lt;br&gt;hypothetical protein&lt;br&gt;Location: 52046 - 53210" locus_tag="MCIC6FC_019810" class="clusterblast-orf" id="dummy-1_q4_0_all"  />
<polygon points="429,40 485,40 490,35 485,30 429,30 429,40 " style="fill:#15d863; stroke-width:1; stroke:black; " description="&lt;b&gt;MCIC6FC_019811&lt;/b&gt;&lt;br&gt;hypothetical protein&lt;br&gt;Location: 53221 - 54828" locus_tag="MCIC6FC_019811" class="clusterblast-orf" id="dummy-1_q5_0_all"  />
<polygon points="490,40 588,40 593,35 588,30 490,30 490,40 " style="fill:#3c15d8; stroke-width:1; stroke:black; " description="&lt;b&gt;MCIC6FC_019812&lt;/b&gt;&lt;br&gt;hypothetical protein&lt;br&gt;Location: 54843 - 57573" locus_tag="MCIC6FC_019812" class="clusterblast-orf" id="dummy-1_q6_0_all"  />
<polygon points="596,35 601,30 619,30 619,40 601,40 596,35 " style="fill:#d8158a; stroke-width:1; stroke:black; " description="&lt;b&gt;MCIC6FC_019813&lt;/b&gt;&lt;br&gt;hypothetical protein&lt;br&gt;Location: 57648 - 58261" locus_tag="MCIC6FC_019813" class="clusterblast-orf" id="dummy-1_q7_0_all"  />
<polygon points="622,40 630,40 635,35 630,30 622,30 622,40 " style="fill:#b1d815; stroke-width:1; stroke:black; " description="&lt;b&gt;MCIC6FC_019814&lt;/b&gt;&lt;br&gt;hypothetical protein&lt;br&gt;Location: 58334 - 58685" locus_tag="MCIC6FC_019814" class="clusterblast-orf" id="dummy-1_q8_0_all"  />
<polygon points="653,40 691,40 696,35 691,30 653,30 653,40 " style="fill:#15d8d8; stroke-width:1; stroke:black; " description="&lt;b&gt;MCIC6FC_019815&lt;/b&gt;&lt;br&gt;hypothetical protein&lt;br&gt;Location: 59151 - 60304" locus_tag="MCIC6FC_019815" class="clusterblast-orf" id="dummy-1_q9_0_all"  />
</g>
<g label="NZ_CABVGW010000013" description="NZ_CABVGW010000013 (69273-92429): Pseudomonas fluorescens isolate PS682, whol... (72% of genes show similarity), betalactone" class="clusterblast-cluster"  >
<text x="5" y="70" class="clusterblast-acc"  >
<a xlink:href="https://antismash-db.secondarymetabolites.org/area.html?record=NZ_CABVGW010000013&amp;start=69273&amp;end=92429" target="_blank">NZ_CABVGW010000013 (69273-92429)</a>: Pseudomonas fluorescens isolate PS682, whol... (72% of genes show similarity), betalactone</text>
<line x1="10" y1="85" x2="778.0" y2="85" style="stroke-width:1; stroke:grey; "  />
</g>
<g id="a1_000"  >
<polygon points="0,85 5,80 65,80 65,90 5,90 0,85 " style="fill:white; stroke-width:1; stroke:black; " description="&lt;b&gt;F8N22_RS20475&lt;/b&gt;&lt;br&gt;outer membrane protein assembly factor&lt;br&gt;Location: 90917 - 89190" locus_tag="F8N22_RS20475" class="clusterblast-orf" id="dummy-1_h1_2_0"  />
</g>
<g id="a1_001"  >
<polygon points="67,85 72,80 92,80 92,90 72,90 67,85 " style="fill:white; stroke-width:1; stroke:black; " description="&lt;b&gt;F8N22_RS20470&lt;/b&gt;&lt;br&gt;GNAT family N-acetyltransferase&lt;br&gt;Location: 89125 - 88475" locus_tag="F8N22_RS20470" class="clusterblast-orf" id="dummy-1_h1_2_1"  />
</g>
<g id="a1_002"  >
<polygon points="98,90 124,90 129,85 124,80 98,80 98,90 " style="fill:white; stroke-width:1; stroke:black; " description="&lt;b&gt;F8N22_RS20465&lt;/b&gt;&lt;br&gt;exodeoxyribonuclease III&lt;br&gt;Location: 88306 - 87494" locus_tag="F8N22_RS20465" class="clusterblast-orf" id="dummy-1_h1_2_2"  />
</g>
<g id="a1_003"  >
<polygon points="130,90 136,90 141,85 136,80 130,80 130,90 " style="fill:white; stroke-width:1; stroke:black; " description="&lt;b&gt;F8N22_RS20460&lt;/b&gt;&lt;br&gt;hypothetical protein&lt;br&gt;Location: 87471 - 87168" locus_tag="F8N22_RS20460" class="clusterblast-orf" id="dummy-1_h1_2_3"  />
</g>
<g id="a1_004"  >
<polygon points="159,90 205,90 210,85 205,80 159,80 159,90 " style="fill:#d81515; stroke-width:1; stroke:black; " description="&lt;b&gt;F8N22_RS20455&lt;/b&gt;&lt;br&gt;OmpA family protein&lt;br&gt;Location: 86677 - 85346&lt;br&gt;&lt;br&gt;&lt;b&gt;BlastP hit with MCIC6FC_019806&lt;/b&gt;&lt;br&gt;Percentage identity: 98&lt;br&gt;Percentage coverage: 94&lt;br&gt;BLAST bit score: 841&lt;br&gt;E-value: 6e-242" locus_tag="F8N22_RS20455" class="clusterblast-orf" id="dummy-1_h1_2_4"  />
</g>
<g id="a1_005"  >
<polygon points="214,85 219,80 261,80 261,90 219,90 214,85 " style="fill:#3cd815; stroke-width:1; stroke:black; " description="&lt;b&gt;F8N22_RS20450&lt;/b&gt;&lt;br&gt;acyl-CoA dehydrogenase&lt;br&gt;Location: 85219 - 83990&lt;br&gt;&lt;br&gt;&lt;b&gt;BlastP hit with MCIC6FC_019807&lt;/b&gt;&lt;br&gt;Percentage identity: 100&lt;br&gt;Percentage coverage: 98&lt;br&gt;BLAST bit score: 830&lt;br&gt;E-value: 7.1e-239" locus_tag="F8N22_RS20450" class="clusterblast-orf" id="dummy-1_h1_2_5"  />
</g>
<g id="a1_006"  >
<polygon points="267,90 297,90 302,85 297,80 267,80 267,90 " style="fill:#1563d8; stroke-width:1; stroke:black; " description="&lt;b&gt;F8N22_RS20445&lt;/b&gt;&lt;br&gt;LysR family transcriptional regulator&lt;br&gt;Location: 83838 - 82906&lt;br&gt;&lt;br&gt;&lt;b&gt;BlastP hit with MCIC6FC_019808&lt;/b&gt;&lt;br&gt;Percentage identity: 100&lt;br&gt;Percentage coverage: 43&lt;br&gt;BLAST bit score: 612&lt;br&gt;E-value: 5.3e-173" locus_tag="F8N22_RS20445" class="clusterblast-orf" id="dummy-1_h1_2_6"  />
</g>
<g id="a1_007"  >
<polygon points="304,90 314,90 319,85 314,80 304,80 304,90 " style="fill:#1563d8; stroke-width:1; stroke:black; " description="&lt;b&gt;F8N22_RS20440&lt;/b&gt;&lt;br&gt;MerR family DNA-binding transcriptional regulator&lt;br&gt;Location: 82838 - 82446&lt;br&gt;&lt;br&gt;&lt;b&gt;BlastP hit with MCIC6FC_019808&lt;/b&gt;&lt;br&gt;Percentage identity: 100&lt;br&gt;Percentage coverage: 13&lt;br&gt;BLAST bit score: 185&lt;br&gt;E-value: 1.6e-44" locus_tag="F8N22_RS20440" class="clusterblast-orf" id="dummy-1_h1_2_7"  />
</g>
<g id="a1_008"  >
<polygon points="320,90 349,90 354,85 349,80 320,80 320,90 " style="fill:#1563d8; stroke-width:1; stroke:black; " description="&lt;b&gt;F8N22_RS20435&lt;/b&gt;&lt;br&gt;hydroxymethylglutaryl-CoA lyase&lt;br&gt;Location: 82429 - 81530&lt;br&gt;&lt;br&gt;&lt;b&gt;BlastP hit with MCIC6FC_019808&lt;/b&gt;&lt;br&gt;Percentage identity: 96&lt;br&gt;Percentage coverage: 42&lt;br&gt;BLAST bit score: 570&lt;br&gt;E-value: 2.3e-160" locus_tag="F8N22_RS20435" class="clusterblast-orf" id="dummy-1_h1_2_8"  />
</g>
<g id="a1_009"  >
<polygon points="377,85 382,80 439,80 439,90 382,90 377,85 " style="fill:#b115d8; stroke-width:1; stroke:black; " description="&lt;b&gt;F8N22_RS20430&lt;/b&gt;&lt;br&gt;AMP-binding protein&lt;br&gt;Location: 80908 - 79274&lt;br&gt;&lt;br&gt;&lt;b&gt;BlastP hit with MCIC6FC_019809&lt;/b&gt;&lt;br&gt;Percentage identity: 99&lt;br&gt;Percentage coverage: 100&lt;br&gt;BLAST bit score: 1121&lt;br&gt;E-value: 0.0" locus_tag="F8N22_RS20430" class="clusterblast-orf" id="dummy-1_h1_2_9"  />
</g>
<g id="a1_0010"  >
<polygon points="444,90 483,90 488,85 483,80 444,80 444,90 " style="fill:#d88a15; stroke-width:1; stroke:black; " description="&lt;b&gt;F8N22_RS20425&lt;/b&gt;&lt;br&gt;isovaleryl-CoA dehydrogenase&lt;br&gt;Location: 79125 - 77962&lt;br&gt;&lt;br&gt;&lt;b&gt;BlastP hit with MCIC6FC_019810&lt;/b&gt;&lt;br&gt;Percentage identity: 99&lt;br&gt;Percentage coverage: 100&lt;br&gt;BLAST bit score: 774&lt;br&gt;E-value: 4.3e-222" locus_tag="F8N22_RS20425" class="clusterblast-orf" id="dummy-1_h1_2_10"  />
</g>
<g id="a1_0011"  >
<polygon points="489,90 544,90 549,85 544,80 489,80 489,90 " style="fill:#15d863; stroke-width:1; stroke:black; " description="&lt;b&gt;F8N22_RS20420&lt;/b&gt;&lt;br&gt;methylcrotonoyl-CoA carboxylase&lt;br&gt;Location: 77950 - 76343&lt;br&gt;&lt;br&gt;&lt;b&gt;BlastP hit with MCIC6FC_019811&lt;/b&gt;&lt;br&gt;Percentage identity: 97&lt;br&gt;Percentage coverage: 103&lt;br&gt;BLAST bit score: 1026&lt;br&gt;E-value: 1.1e-297" locus_tag="F8N22_RS20420" class="clusterblast-orf" id="dummy-1_h1_2_11"  />
</g>
<g id="a1_0012"  >
<polygon points="550,90 575,90 580,85 575,80 550,80 550,90 " style="fill:#3c15d8; stroke-width:1; stroke:black; " description="&lt;b&gt;F8N22_RS20415&lt;/b&gt;&lt;br&gt;gamma-carboxygeranoyl-CoA hydratase&lt;br&gt;Location: 76327 - 75521&lt;br&gt;&lt;br&gt;&lt;b&gt;BlastP hit with MCIC6FC_019812&lt;/b&gt;&lt;br&gt;Percentage identity: 88&lt;br&gt;Percentage coverage: 31&lt;br&gt;BLAST bit score: 445&lt;br&gt;E-value: 1.3e-122" locus_tag="F8N22_RS20415" class="clusterblast-orf" id="dummy-1_h1_2_12"  />
</g>
<g id="a1_0013"  >
<polygon points="580,90 648,90 653,85 648,80 580,80 580,90 " style="fill:#3c15d8; stroke-width:1; stroke:black; " description="&lt;b&gt;F8N22_RS20410&lt;/b&gt;&lt;br&gt;ATP-grasp domain-containing protein&lt;br&gt;Location: 75524 - 73599&lt;br&gt;&lt;br&gt;&lt;b&gt;BlastP hit with MCIC6FC_019812&lt;/b&gt;&lt;br&gt;Percentage identity: 98&lt;br&gt;Percentage coverage: 72&lt;br&gt;BLAST bit score: 1183&lt;br&gt;E-value: 0.0" locus_tag="F8N22_RS20410" class="clusterblast-orf" id="dummy-1_h1_2_13"  />
</g>
<g id="a1_0014"  >
<polygon points="653,85 658,80 677,80 677,90 658,90 653,85 " style="fill:#d8158a; stroke-width:1; stroke:black; " description="&lt;b&gt;F8N22_RS20405&lt;/b&gt;&lt;br&gt;helix-turn-helix domain-containing protein&lt;br&gt;Location: 73602 - 72970&lt;br&gt;&lt;br&gt;&lt;b&gt;BlastP hit with MCIC6FC_019813&lt;/b&gt;&lt;br&gt;Percentage identity: 92&lt;br&gt;Percentage coverage: 70&lt;br&gt;BLAST bit score: 255&lt;br&gt;E-value: 5.6e-66" locus_tag="F8N22_RS20405" class="clusterblast-orf" id="dummy-1_h1_2_14"  />
</g>
<g id="a1_0015"  >
<polygon points="682,90 690,90 695,85 690,80 682,80 682,90 " style="fill:#b1d815; stroke-width:1; stroke:black; " description="&lt;b&gt;F8N22_RS20400&lt;/b&gt;&lt;br&gt;DUF3077 domain-containing protein&lt;br&gt;Location: 72838 - 72488&lt;br&gt;&lt;br&gt;&lt;b&gt;BlastP hit with MCIC6FC_019814&lt;/b&gt;&lt;br&gt;Percentage identity: 96&lt;br&gt;Percentage coverage: 100&lt;br&gt;BLAST bit score: 213&lt;br&gt;E-value: 1.1e-53" locus_tag="F8N22_RS20400" class="clusterblast-orf" id="dummy-1_h1_2_15"  />
</g>
<g id="a1_0016"  >
<polygon points="712,90 751,90 756,85 751,80 712,80 712,90 " style="fill:#15d8d8; stroke-width:1; stroke:black; " description="&lt;b&gt;F8N22_RS20395&lt;/b&gt;&lt;br&gt;carboxypeptidase family protein&lt;br&gt;Location: 72021 - 70870&lt;br&gt;&lt;br&gt;&lt;b&gt;BlastP hit with MCIC6FC_019815&lt;/b&gt;&lt;br&gt;Percentage identity: 94&lt;br&gt;Percentage coverage: 103&lt;br&gt;BLAST bit score: 715&lt;br&gt;E-value: 3e-204" locus_tag="F8N22_RS20395" class="clusterblast-orf" id="dummy-1_h1_2_16"  />
</g>
<g id="a1_0017"  >
<polygon points="759,85 764,80 780,80 780,90 764,90 759,85 " style="fill:white; stroke-width:1; stroke:black; " description="&lt;b&gt;F8N22_RS20390&lt;/b&gt;&lt;br&gt;cytochrome b&lt;br&gt;Location: 70787 - 70245" locus_tag="F8N22_RS20390" class="clusterblast-orf" id="dummy-1_h1_2_17"  />
</g>
</svg>
