<svg xmlns="http://www.w3.org/2000/svg" xmlns:xlink="http://www.w3.org/1999/xlink" version="1.1" x="0" y="0" height="230" width="800" viewBox="0 0 800 230" preserveAspectRatio="none"  >
<g label="Query sequence" class="clusterblast-cluster"  >
<text x="5" y="20" class="clusterblast-acc"  >
Query sequence</text>
<line x1="10" y1="35" x2="778.0" y2="35" style="stroke-width:1; stroke:grey; "  />
<polygon points="4,40 53,40 58,35 53,30 4,30 4,40 " style="fill:#d81515; stroke-width:1; stroke:black; " description="&lt;b&gt;MCIC6FC_005835&lt;/b&gt;&lt;br&gt;hypothetical protein&lt;br&gt;Location: 2047281 - 2050906" locus_tag="MCIC6FC_005835" class="clusterblast-orf" id="dummy-4_q0_0_all"  />
<polygon points="59,40 79,40 84,35 79,30 59,30 59,40 " style="fill:#6ad815; stroke-width:1; stroke:black; " description="&lt;b&gt;MCIC6FC_005836&lt;/b&gt;&lt;br&gt;hypothetical protein&lt;br&gt;Location: 2050941 - 2052611" locus_tag="MCIC6FC_005836" class="clusterblast-orf" id="dummy-4_q1_0_all"  />
<polygon points="84,40 107,40 112,35 107,30 84,30 84,40 " style="fill:#15bfd8; stroke-width:1; stroke:black; " description="&lt;b&gt;MCIC6FC_005837&lt;/b&gt;&lt;br&gt;hypothetical protein&lt;br&gt;Location: 2052634 - 2054500" locus_tag="MCIC6FC_005837" class="clusterblast-orf" id="dummy-4_q2_0_all"  />
<polygon points="114,40 122,40 127,35 122,30 114,30 114,40 " style="fill:#9d15d8; stroke-width:1; stroke:black; " description="&lt;b&gt;MCIC6FC_005838&lt;/b&gt;&lt;br&gt;hypothetical protein&lt;br&gt;Location: 2054640 - 2055468" locus_tag="MCIC6FC_005838" class="clusterblast-orf" id="dummy-4_q3_0_all"  />
<polygon points="128,35 133,30 154,30 154,40 133,40 128,35 " style="fill:#d84815; stroke-width:1; stroke:black; " description="&lt;b&gt;MCIC6FC_005839&lt;/b&gt;&lt;br&gt;hypothetical protein&lt;br&gt;Location: 2055536 - 2057256" locus_tag="MCIC6FC_005839" class="clusterblast-orf" id="dummy-4_q4_0_all"  />
<polygon points="157,35 162,30 176,30 176,40 162,40 157,35 " style="fill:#37d815; stroke-width:1; stroke:black; " description="&lt;b&gt;MCIC6FC_005840&lt;/b&gt;&lt;br&gt;hypothetical protein&lt;br&gt;Location: 2057492 - 2058741" locus_tag="MCIC6FC_005840" class="clusterblast-orf" id="dummy-4_q5_0_all"  />
<polygon points="177,35 182,30 187,30 187,40 182,40 177,35 " style="fill:#158cd8; stroke-width:1; stroke:black; " description="&lt;b&gt;MCIC6FC_005841&lt;/b&gt;&lt;br&gt;hypothetical protein&lt;br&gt;Location: 2058819 - 2059497" locus_tag="MCIC6FC_005841" class="clusterblast-orf" id="dummy-4_q6_0_all"  />
<polygon points="190,40 218,40 223,35 218,30 190,30 190,40 " style="fill:#d015d8; stroke-width:1; stroke:black; " description="&lt;b&gt;MCIC6FC_005842&lt;/b&gt;&lt;br&gt;hypothetical protein&lt;br&gt;Location: 2059651 - 2061882" locus_tag="MCIC6FC_005842" class="clusterblast-orf" id="dummy-4_q7_0_all"  />
<polygon points="224,40 235,40 240,35 235,30 224,30 224,40 " style="fill:#d015d8; stroke-width:1; stroke:black; " description="&lt;b&gt;MCIC6FC_005843&lt;/b&gt;&lt;br&gt;hypothetical protein&lt;br&gt;Location: 2061923 - 2063008" locus_tag="MCIC6FC_005843" class="clusterblast-orf" id="dummy-4_q8_0_all"  />
<polygon points="240,35 245,30 255,30 255,40 245,40 240,35 " style="fill:#d87b15; stroke-width:1; stroke:black; " description="&lt;b&gt;MCIC6FC_005844&lt;/b&gt;&lt;br&gt;hypothetical protein&lt;br&gt;Location: 2063011 - 2064018" locus_tag="MCIC6FC_005844" class="clusterblast-orf" id="dummy-4_q9_0_all"  />
<polygon points="257,35 262,30 265,30 265,40 262,40 257,35 " style="fill:#15d826; stroke-width:1; stroke:black; " description="&lt;b&gt;MCIC6FC_005845&lt;/b&gt;&lt;br&gt;hypothetical protein&lt;br&gt;Location: 2064129 - 2064652" locus_tag="MCIC6FC_005845" class="clusterblast-orf" id="dummy-4_q10_0_all"  />
<polygon points="268,35 273,30 300,30 300,40 273,40 268,35 " style="fill:#1559d8; stroke-width:1; stroke:black; " description="&lt;b&gt;MCIC6FC_005846&lt;/b&gt;&lt;br&gt;hypothetical protein&lt;br&gt;Location: 2064850 - 2067013" locus_tag="MCIC6FC_005846" class="clusterblast-orf" id="dummy-4_q11_0_all"  />
<polygon points="302,35 307,30 498,30 498,40 307,40 302,35 " style="fill:#d815ae; stroke-width:1; stroke:black; " description="&lt;b&gt;MCIC6FC_005847&lt;/b&gt;&lt;br&gt;hypothetical protein&lt;br&gt;Location: 2067133 - 2080148" locus_tag="MCIC6FC_005847" class="clusterblast-orf" id="dummy-4_q12_0_all"  />
<polygon points="504,40 507,40 512,35 507,30 504,30 504,40 " style="fill:#d8ae15; stroke-width:1; stroke:black; " description="&lt;b&gt;MCIC6FC_005848&lt;/b&gt;&lt;br&gt;hypothetical protein&lt;br&gt;Location: 2080521 - 2081070" locus_tag="MCIC6FC_005848" class="clusterblast-orf" id="dummy-4_q13_0_all"  />
<polygon points="513,35 518,30 532,30 532,40 518,40 513,35 " style="fill:#15d859; stroke-width:1; stroke:black; " description="&lt;b&gt;MCIC6FC_005849&lt;/b&gt;&lt;br&gt;hypothetical protein&lt;br&gt;Location: 2081115 - 2082375" locus_tag="MCIC6FC_005849" class="clusterblast-orf" id="dummy-4_q14_0_all"  />
<polygon points="533,35 538,30 544,30 544,40 538,40 533,35 " style="fill:#1526d8; stroke-width:1; stroke:black; " description="&lt;b&gt;MCIC6FC_005850&lt;/b&gt;&lt;br&gt;hypothetical protein&lt;br&gt;Location: 2082459 - 2083207" locus_tag="MCIC6FC_005850" class="clusterblast-orf" id="dummy-4_q15_0_all"  />
<polygon points="545,40 604,40 609,35 604,30 545,30 545,40 " style="fill:#d8157b; stroke-width:1; stroke:black; " description="&lt;b&gt;MCIC6FC_005851&lt;/b&gt;&lt;br&gt;hypothetical protein&lt;br&gt;Location: 2083275 - 2087517" locus_tag="MCIC6FC_005851" class="clusterblast-orf" id="dummy-4_q16_0_all"  />
<polygon points="610,40 635,40 640,35 635,30 610,30 610,40 " style="fill:#d0d815; stroke-width:1; stroke:black; " description="&lt;b&gt;MCIC6FC_005852&lt;/b&gt;&lt;br&gt;hypothetical protein&lt;br&gt;Location: 2087610 - 2089562" locus_tag="MCIC6FC_005852" class="clusterblast-orf" id="dummy-4_q17_0_all"  />
<polygon points="640,40 665,40 670,35 665,30 640,30 640,40 " style="fill:#15d88c; stroke-width:1; stroke:black; " description="&lt;b&gt;MCIC6FC_005853&lt;/b&gt;&lt;br&gt;hypothetical protein&lt;br&gt;Location: 2089608 - 2091564" locus_tag="MCIC6FC_005853" class="clusterblast-orf" id="dummy-4_q18_0_all"  />
<polygon points="673,40 675,40 680,35 675,30 673,30 673,40 " style="fill:#3715d8; stroke-width:1; stroke:black; " description="&lt;b&gt;MCIC6FC_005854&lt;/b&gt;&lt;br&gt;hypothetical protein&lt;br&gt;Location: 2091767 - 2092241" locus_tag="MCIC6FC_005854" class="clusterblast-orf" id="dummy-4_q19_0_all"  />
<polygon points="681,40 685,35 681,30 681,40 " style="fill:#d81548; stroke-width:1; stroke:black; " description="&lt;b&gt;MCIC6FC_005855&lt;/b&gt;&lt;br&gt;hypothetical protein&lt;br&gt;Location: 2092315 - 2092600" locus_tag="MCIC6FC_005855" class="clusterblast-orf" id="dummy-4_q20_0_all"  />
<polygon points="687,35 692,30 714,30 714,40 692,40 687,35 " style="fill:#9dd815; stroke-width:1; stroke:black; " description="&lt;b&gt;MCIC6FC_005856&lt;/b&gt;&lt;br&gt;hypothetical protein&lt;br&gt;Location: 2092677 - 2094503" locus_tag="MCIC6FC_005856" class="clusterblast-orf" id="dummy-4_q21_0_all"  />
<polygon points="722,40 755,40 760,35 755,30 722,30 722,40 " style="fill:#15d8bf; stroke-width:1; stroke:black; " description="&lt;b&gt;MCIC6FC_005857&lt;/b&gt;&lt;br&gt;hypothetical protein&lt;br&gt;Location: 2095064 - 2097589" locus_tag="MCIC6FC_005857" class="clusterblast-orf" id="dummy-4_q22_0_all"  />
<polygon points="760,35 765,30 776,30 776,40 765,40 760,35 " style="fill:#6a15d8; stroke-width:1; stroke:black; " description="&lt;b&gt;MCIC6FC_005858&lt;/b&gt;&lt;br&gt;hypothetical protein&lt;br&gt;Location: 2097590 - 2098608" locus_tag="MCIC6FC_005858" class="clusterblast-orf" id="dummy-4_q23_0_all"  />
</g>
<g label="NZ_CP027718" description="NZ_CP027718 (4816777-4869794): Pseudomonas chlororaphis subsp. aurantiaca str... (91% of genes show similarity), NRPS" class="clusterblast-cluster"  >
<text x="5" y="70" class="clusterblast-acc"  >
<a xlink:href="https://antismash-db.secondarymetabolites.org/area.html?record=NZ_CP027718&amp;start=4816777&amp;end=4869794" target="_blank">NZ_CP027718 (4816777-4869794)</a>: Pseudomonas chlororaphis subsp. aurantiaca str... (91% of genes show similarity), NRPS</text>
<line x1="10" y1="85" x2="778.0" y2="85" style="stroke-width:1; stroke:grey; "  />
</g>
<g id="a4_000"  >
<polygon points="0,90 3,90 8,85 3,80 0,80 0,90 " style="fill:#d81515; stroke-width:1; stroke:black; " description="&lt;b&gt;C4K15_RS21250&lt;/b&gt;&lt;br&gt;hypothetical protein&lt;br&gt;Location: 4816974 - 4817546&lt;br&gt;&lt;br&gt;&lt;b&gt;BlastP hit with MCIC6FC_005835&lt;/b&gt;&lt;br&gt;Percentage identity: 76&lt;br&gt;Percentage coverage: 17&lt;br&gt;BLAST bit score: 280&lt;br&gt;E-value: 9.4e-73" locus_tag="C4K15_RS21250" class="clusterblast-orf" id="dummy-4_h4_7_0"  />
</g>
<g id="a4_001"  >
<polygon points="9,90 18,90 23,85 18,80 9,80 9,90 " style="fill:#6ad815; stroke-width:1; stroke:black; " description="&lt;b&gt;C4K15_RS21255&lt;/b&gt;&lt;br&gt;zinc ABC transporter substrate-binding protein&lt;br&gt;Location: 4817582 - 4818511&lt;br&gt;&lt;br&gt;&lt;b&gt;BlastP hit with MCIC6FC_005836&lt;/b&gt;&lt;br&gt;Percentage identity: 96&lt;br&gt;Percentage coverage: 55&lt;br&gt;BLAST bit score: 565&lt;br&gt;E-value: 5.6e-159" locus_tag="C4K15_RS21255" class="clusterblast-orf" id="dummy-4_h4_7_1"  />
</g>
<g id="a4_002"  >
<polygon points="23,90 29,90 34,85 29,80 23,80 23,90 " style="fill:#6ad815; stroke-width:1; stroke:black; " description="&lt;b&gt;C4K15_RS21260&lt;/b&gt;&lt;br&gt;metal ABC transporter ATP-binding protein&lt;br&gt;Location: 4818508 - 4819263&lt;br&gt;&lt;br&gt;&lt;b&gt;BlastP hit with MCIC6FC_005836&lt;/b&gt;&lt;br&gt;Percentage identity: 88&lt;br&gt;Percentage coverage: 44&lt;br&gt;BLAST bit score: 425&lt;br&gt;E-value: 6.9e-117" locus_tag="C4K15_RS21260" class="clusterblast-orf" id="dummy-4_h4_7_2"  />
</g>
<g id="a4_003"  >
<polygon points="34,90 42,90 47,85 42,80 34,80 34,90 " style="fill:#15bfd8; stroke-width:1; stroke:black; " description="&lt;b&gt;C4K15_RS21265&lt;/b&gt;&lt;br&gt;metal ABC transporter permease&lt;br&gt;Location: 4819263 - 4820162&lt;br&gt;&lt;br&gt;&lt;b&gt;BlastP hit with MCIC6FC_005837&lt;/b&gt;&lt;br&gt;Percentage identity: 97&lt;br&gt;Percentage coverage: 48&lt;br&gt;BLAST bit score: 439&lt;br&gt;E-value: 6.4e-121" locus_tag="C4K15_RS21265" class="clusterblast-orf" id="dummy-4_h4_7_3"  />
</g>
<g id="a4_004"  >
<polygon points="47,90 57,90 62,85 57,80 47,80 47,90 " style="fill:#15bfd8; stroke-width:1; stroke:black; " description="&lt;b&gt;C4K15_RS21270&lt;/b&gt;&lt;br&gt;zinc ABC transporter solute-binding protein&lt;br&gt;Location: 4820163 - 4821161&lt;br&gt;&lt;br&gt;&lt;b&gt;BlastP hit with MCIC6FC_005837&lt;/b&gt;&lt;br&gt;Percentage identity: 81&lt;br&gt;Percentage coverage: 53&lt;br&gt;BLAST bit score: 485&lt;br&gt;E-value: 6e-135" locus_tag="C4K15_RS21270" class="clusterblast-orf" id="dummy-4_h4_7_4"  />
</g>
<g id="a4_005"  >
<polygon points="67,90 74,90 79,85 74,80 67,80 67,90 " style="fill:#9d15d8; stroke-width:1; stroke:black; " description="&lt;b&gt;C4K15_RS21275&lt;/b&gt;&lt;br&gt;class I SAM-dependent methyltransferase&lt;br&gt;Location: 4821457 - 4822284&lt;br&gt;&lt;br&gt;&lt;b&gt;BlastP hit with MCIC6FC_005838&lt;/b&gt;&lt;br&gt;Percentage identity: 76&lt;br&gt;Percentage coverage: 99&lt;br&gt;BLAST bit score: 448&lt;br&gt;E-value: 6.6e-124" locus_tag="C4K15_RS21275" class="clusterblast-orf" id="dummy-4_h4_7_5"  />
</g>
<g id="a4_006"  >
<polygon points="83,85 86,80 86,90 83,85 " style="fill:#d84815; stroke-width:1; stroke:black; " description="&lt;b&gt;C4K15_RS21280&lt;/b&gt;&lt;br&gt;MbtH family protein&lt;br&gt;Location: 4822520 - 4822744&lt;br&gt;&lt;br&gt;&lt;b&gt;BlastP hit with MCIC6FC_005839&lt;/b&gt;&lt;br&gt;Percentage identity: 97&lt;br&gt;Percentage coverage: 13&lt;br&gt;BLAST bit score: 151&lt;br&gt;E-value: 3.2e-34" locus_tag="C4K15_RS21280" class="clusterblast-orf" id="dummy-4_h4_7_6"  />
</g>
<g id="a4_007"  >
<polygon points="88,85 93,80 109,80 109,90 93,90 88,85 " style="fill:#d84815; stroke-width:1; stroke:black; " description="&lt;b&gt;C4K15_RS21285&lt;/b&gt;&lt;br&gt;aspartate aminotransferase family protein&lt;br&gt;Location: 4822826 - 4824238&lt;br&gt;&lt;br&gt;&lt;b&gt;BlastP hit with MCIC6FC_005839&lt;/b&gt;&lt;br&gt;Percentage identity: 85&lt;br&gt;Percentage coverage: 88&lt;br&gt;BLAST bit score: 782&lt;br&gt;E-value: 2.8e-224" locus_tag="C4K15_RS21285" class="clusterblast-orf" id="dummy-4_h4_7_7"  />
</g>
<g id="a4_008"  >
<polygon points="113,85 118,80 133,80 133,90 118,90 113,85 " style="fill:#37d815; stroke-width:1; stroke:black; " description="&lt;b&gt;C4K15_RS21290&lt;/b&gt;&lt;br&gt;two-component sensor histidine kinase&lt;br&gt;Location: 4824505 - 4825827&lt;br&gt;&lt;br&gt;&lt;b&gt;BlastP hit with MCIC6FC_005840&lt;/b&gt;&lt;br&gt;Percentage identity: 80&lt;br&gt;Percentage coverage: 103&lt;br&gt;BLAST bit score: 645&lt;br&gt;E-value: 3.1e-183" locus_tag="C4K15_RS21290" class="clusterblast-orf" id="dummy-4_h4_7_8"  />
</g>
<g id="a4_009"  >
<polygon points="133,85 138,80 143,80 143,90 138,90 133,85 " style="fill:#158cd8; stroke-width:1; stroke:black; " description="&lt;b&gt;C4K15_RS21295&lt;/b&gt;&lt;br&gt;response regulator&lt;br&gt;Location: 4825831 - 4826508&lt;br&gt;&lt;br&gt;&lt;b&gt;BlastP hit with MCIC6FC_005841&lt;/b&gt;&lt;br&gt;Percentage identity: 97&lt;br&gt;Percentage coverage: 99&lt;br&gt;BLAST bit score: 419&lt;br&gt;E-value: 2e-115" locus_tag="C4K15_RS21295" class="clusterblast-orf" id="dummy-4_h4_7_9"  />
</g>
<g id="a4_0010"  >
<polygon points="145,90 166,90 171,85 166,80 145,80 145,90 " style="fill:#d015d8; stroke-width:1; stroke:black; " description="&lt;b&gt;C4K15_RS21300&lt;/b&gt;&lt;br&gt;protein-disulfide reductase DsbD&lt;br&gt;Location: 4826663 - 4828402&lt;br&gt;&lt;br&gt;&lt;b&gt;BlastP hit with MCIC6FC_005842&lt;/b&gt;&lt;br&gt;Percentage identity: 78&lt;br&gt;Percentage coverage: 77&lt;br&gt;BLAST bit score: 861&lt;br&gt;E-value: 5e-248" locus_tag="C4K15_RS21300" class="clusterblast-orf" id="dummy-4_h4_7_10"  />
</g>
<g id="a4_0011"  >
<polygon points="171,90 180,90 185,85 180,80 171,80 171,90 " style="fill:#d015d8; stroke-width:1; stroke:black; " description="&lt;b&gt;C4K15_RS21305&lt;/b&gt;&lt;br&gt;TlpA family protein disulfide reductase&lt;br&gt;Location: 4828402 - 4829274&lt;br&gt;&lt;br&gt;&lt;b&gt;BlastP hit with MCIC6FC_005842&lt;/b&gt;&lt;br&gt;Percentage identity: 86&lt;br&gt;Percentage coverage: 21&lt;br&gt;BLAST bit score: 269&lt;br&gt;E-value: 8.4e-70&lt;br&gt;&lt;br&gt;&lt;b&gt;BlastP hit with MCIC6FC_005843&lt;/b&gt;&lt;br&gt;Percentage identity: 91&lt;br&gt;Percentage coverage: 28&lt;br&gt;BLAST bit score: 179&lt;br&gt;E-value: 7.4e-43" locus_tag="C4K15_RS21305" class="clusterblast-orf" id="dummy-4_h4_7_11"  />
</g>
<g id="a4_0012"  >
<polygon points="184,90 191,90 196,85 191,80 184,80 184,90 " style="fill:#d015d8; stroke-width:1; stroke:black; " description="&lt;b&gt;C4K15_RS21310&lt;/b&gt;&lt;br&gt;thiol:disulfide interchange protein DsbG&lt;br&gt;Location: 4829250 - 4830017&lt;br&gt;&lt;br&gt;&lt;b&gt;BlastP hit with MCIC6FC_005843&lt;/b&gt;&lt;br&gt;Percentage identity: 80&lt;br&gt;Percentage coverage: 72&lt;br&gt;BLAST bit score: 416&lt;br&gt;E-value: 2.7e-114" locus_tag="C4K15_RS21310" class="clusterblast-orf" id="dummy-4_h4_7_12"  />
</g>
<g id="a4_0013"  >
<polygon points="197,90 243,90 248,85 243,80 197,80 197,90 " style="fill:white; stroke-width:1; stroke:black; " description="&lt;b&gt;C4K15_RS21315&lt;/b&gt;&lt;br&gt;ATP-binding protein&lt;br&gt;Location: 4830112 - 4833468" locus_tag="C4K15_RS21315" class="clusterblast-orf" id="dummy-4_h4_7_13"  />
</g>
<g id="a4_0014"  >
<polygon points="250,85 255,80 255,80 255,90 255,90 250,85 " style="fill:#15d826; stroke-width:1; stroke:black; " description="&lt;b&gt;C4K15_RS21320&lt;/b&gt;&lt;br&gt;DUF3077 domain-containing protein&lt;br&gt;Location: 4833613 - 4833957&lt;br&gt;&lt;br&gt;&lt;b&gt;BlastP hit with MCIC6FC_005845&lt;/b&gt;&lt;br&gt;Percentage identity: 68&lt;br&gt;Percentage coverage: 80&lt;br&gt;BLAST bit score: 146&lt;br&gt;E-value: 1.7e-33" locus_tag="C4K15_RS21320" class="clusterblast-orf" id="dummy-4_h4_7_14"  />
</g>
<g id="a4_0015"  >
<polygon points="263,85 268,80 279,80 279,90 268,90 263,85 " style="fill:#1559d8; stroke-width:1; stroke:black; " description="&lt;b&gt;C4K15_RS21325&lt;/b&gt;&lt;br&gt;hypothetical protein&lt;br&gt;Location: 4834513 - 4835565&lt;br&gt;&lt;br&gt;&lt;b&gt;BlastP hit with MCIC6FC_005846&lt;/b&gt;&lt;br&gt;Percentage identity: 83&lt;br&gt;Percentage coverage: 50&lt;br&gt;BLAST bit score: 622&lt;br&gt;E-value: 4.9e-176" locus_tag="C4K15_RS21325" class="clusterblast-orf" id="dummy-4_h4_7_15"  />
</g>
<g id="a4_0016"  >
<polygon points="283,85 288,80 295,80 295,90 288,90 283,85 " style="fill:#d87b15; stroke-width:1; stroke:black; " description="&lt;b&gt;C4K15_RS21330&lt;/b&gt;&lt;br&gt;alpha/beta fold hydrolase&lt;br&gt;Location: 4835785 - 4836603&lt;br&gt;&lt;br&gt;&lt;b&gt;BlastP hit with MCIC6FC_005844&lt;/b&gt;&lt;br&gt;Percentage identity: 83&lt;br&gt;Percentage coverage: 87&lt;br&gt;BLAST bit score: 468&lt;br&gt;E-value: 6.9e-130" locus_tag="C4K15_RS21330" class="clusterblast-orf" id="dummy-4_h4_7_16"  />
</g>
<g id="a4_0017"  >
<polygon points="297,85 302,80 493,80 493,90 302,90 297,85 " style="fill:#d815ae; stroke-width:1; stroke:black; " description="&lt;b&gt;C4K15_RS21335&lt;/b&gt;&lt;br&gt;non-ribosomal peptide synthetase&lt;br&gt;Location: 4836778 - 4849794&lt;br&gt;&lt;br&gt;&lt;b&gt;BlastP hit with MCIC6FC_005847&lt;/b&gt;&lt;br&gt;Percentage identity: 87&lt;br&gt;Percentage coverage: 101&lt;br&gt;BLAST bit score: 7549&lt;br&gt;E-value: 0.0" locus_tag="C4K15_RS21335" class="clusterblast-orf" id="dummy-4_h4_7_17"  />
</g>
<g id="a4_0018"  >
<polygon points="499,90 502,90 507,85 502,80 499,80 499,90 " style="fill:#d8ae15; stroke-width:1; stroke:black; " description="&lt;b&gt;C4K15_RS21340&lt;/b&gt;&lt;br&gt;RNA polymerase factor sigma-70&lt;br&gt;Location: 4850170 - 4850718&lt;br&gt;&lt;br&gt;&lt;b&gt;BlastP hit with MCIC6FC_005848&lt;/b&gt;&lt;br&gt;Percentage identity: 96&lt;br&gt;Percentage coverage: 98&lt;br&gt;BLAST bit score: 316&lt;br&gt;E-value: 2.4e-84" locus_tag="C4K15_RS21340" class="clusterblast-orf" id="dummy-4_h4_7_18"  />
</g>
<g id="a4_0019"  >
<polygon points="508,85 513,80 515,80 515,90 513,90 508,85 " style="fill:white; stroke-width:1; stroke:black; " description="&lt;b&gt;C4K15_RS21345&lt;/b&gt;&lt;br&gt;pyoverdine biosynthesis protein&lt;br&gt;Location: 4850775 - 4851212" locus_tag="C4K15_RS21345" class="clusterblast-orf" id="dummy-4_h4_7_19"  />
</g>
<g id="a4_0020"  >
<polygon points="516,85 521,80 528,80 528,90 521,90 516,85 " style="fill:#15d859; stroke-width:1; stroke:black; " description="&lt;b&gt;C4K15_RS21350&lt;/b&gt;&lt;br&gt;transporter substrate-binding domain-containing protein&lt;br&gt;Location: 4851284 - 4852075&lt;br&gt;&lt;br&gt;&lt;b&gt;BlastP hit with MCIC6FC_005849&lt;/b&gt;&lt;br&gt;Percentage identity: 67&lt;br&gt;Percentage coverage: 66&lt;br&gt;BLAST bit score: 319&lt;br&gt;E-value: 5e-85" locus_tag="C4K15_RS21350" class="clusterblast-orf" id="dummy-4_h4_7_20"  />
</g>
<g id="a4_0021"  >
<polygon points="529,85 534,80 538,80 538,90 534,90 529,85 " style="fill:#1526d8; stroke-width:1; stroke:black; " description="&lt;b&gt;C4K15_RS21355&lt;/b&gt;&lt;br&gt;TetR/AcrR family transcriptional regulator&lt;br&gt;Location: 4852176 - 4852772&lt;br&gt;&lt;br&gt;&lt;b&gt;BlastP hit with MCIC6FC_005850&lt;/b&gt;&lt;br&gt;Percentage identity: 91&lt;br&gt;Percentage coverage: 88&lt;br&gt;BLAST bit score: 357&lt;br&gt;E-value: 1.2e-96" locus_tag="C4K15_RS21355" class="clusterblast-orf" id="dummy-4_h4_7_21"  />
</g>
<g id="a4_0022"  >
<polygon points="542,90 564,90 569,85 564,80 542,80 542,90 " style="fill:#d8157b; stroke-width:1; stroke:black; " description="&lt;b&gt;C4K15_RS21360&lt;/b&gt;&lt;br&gt;DUF1446 domain-containing protein&lt;br&gt;Location: 4853010 - 4854800&lt;br&gt;&lt;br&gt;&lt;b&gt;BlastP hit with MCIC6FC_005851&lt;/b&gt;&lt;br&gt;Percentage identity: 84&lt;br&gt;Percentage coverage: 45&lt;br&gt;BLAST bit score: 1017&lt;br&gt;E-value: 1e-294" locus_tag="C4K15_RS21360" class="clusterblast-orf" id="dummy-4_h4_7_22"  />
</g>
<g id="a4_0023"  >
<polygon points="569,90 577,90 582,85 577,80 569,80 569,90 " style="fill:#d8157b; stroke-width:1; stroke:black; " description="&lt;b&gt;C4K15_RS21365&lt;/b&gt;&lt;br&gt;SDR family oxidoreductase&lt;br&gt;Location: 4854813 - 4855682&lt;br&gt;&lt;br&gt;&lt;b&gt;BlastP hit with MCIC6FC_005851&lt;/b&gt;&lt;br&gt;Percentage identity: 86&lt;br&gt;Percentage coverage: 19&lt;br&gt;BLAST bit score: 427&lt;br&gt;E-value: 4.5e-117" locus_tag="C4K15_RS21365" class="clusterblast-orf" id="dummy-4_h4_7_23"  />
</g>
<g id="a4_0024"  >
<polygon points="582,90 601,90 606,85 601,80 582,80 582,90 " style="fill:#d8157b; stroke-width:1; stroke:black; " description="&lt;b&gt;C4K15_RS21370&lt;/b&gt;&lt;br&gt;acyl-CoA carboxylase subunit beta&lt;br&gt;Location: 4855686 - 4857302&lt;br&gt;&lt;br&gt;&lt;b&gt;BlastP hit with MCIC6FC_005851&lt;/b&gt;&lt;br&gt;Percentage identity: 92&lt;br&gt;Percentage coverage: 38&lt;br&gt;BLAST bit score: 925&lt;br&gt;E-value: 5.2e-267" locus_tag="C4K15_RS21370" class="clusterblast-orf" id="dummy-4_h4_7_24"  />
</g>
<g id="a4_0025"  >
<polygon points="609,90 622,90 627,85 622,80 609,80 609,90 " style="fill:#d0d815; stroke-width:1; stroke:black; " description="&lt;b&gt;C4K15_RS21375&lt;/b&gt;&lt;br&gt;acyl-CoA/acyl-ACP dehydrogenase&lt;br&gt;Location: 4857511 - 4858668&lt;br&gt;&lt;br&gt;&lt;b&gt;BlastP hit with MCIC6FC_005852&lt;/b&gt;&lt;br&gt;Percentage identity: 96&lt;br&gt;Percentage coverage: 58&lt;br&gt;BLAST bit score: 709&lt;br&gt;E-value: 2.7e-202" locus_tag="C4K15_RS21375" class="clusterblast-orf" id="dummy-4_h4_7_25"  />
</g>
<g id="a4_0026"  >
<polygon points="627,90 634,90 639,85 634,80 627,80 627,90 " style="fill:#d0d815; stroke-width:1; stroke:black; " description="&lt;b&gt;C4K15_RS21380&lt;/b&gt;&lt;br&gt;enoyl-CoA hydratase/isomerase family protein&lt;br&gt;Location: 4858665 - 4859501&lt;br&gt;&lt;br&gt;&lt;b&gt;BlastP hit with MCIC6FC_005852&lt;/b&gt;&lt;br&gt;Percentage identity: 80&lt;br&gt;Percentage coverage: 42&lt;br&gt;BLAST bit score: 397&lt;br&gt;E-value: 2.3e-108" locus_tag="C4K15_RS21380" class="clusterblast-orf" id="dummy-4_h4_7_26"  />
</g>
<g id="a4_0027"  >
<polygon points="639,90 664,90 669,85 664,80 639,80 639,90 " style="fill:#15d88c; stroke-width:1; stroke:black; " description="&lt;b&gt;C4K15_RS21385&lt;/b&gt;&lt;br&gt;acetyl/propionyl/methylcrotonyl-CoA carboxylase subunit alpha&lt;br&gt;Location: 4859505 - 4861466&lt;br&gt;&lt;br&gt;&lt;b&gt;BlastP hit with MCIC6FC_005853&lt;/b&gt;&lt;br&gt;Percentage identity: 80&lt;br&gt;Percentage coverage: 100&lt;br&gt;BLAST bit score: 1009&lt;br&gt;E-value: 1.3e-292" locus_tag="C4K15_RS21385" class="clusterblast-orf" id="dummy-4_h4_7_27"  />
</g>
<g id="a4_0028"  >
<polygon points="670,90 673,90 678,85 673,80 670,80 670,90 " style="fill:#3715d8; stroke-width:1; stroke:black; " description="&lt;b&gt;C4K15_RS21390&lt;/b&gt;&lt;br&gt;exonuclease&lt;br&gt;Location: 4861536 - 4862078&lt;br&gt;&lt;br&gt;&lt;b&gt;BlastP hit with MCIC6FC_005854&lt;/b&gt;&lt;br&gt;Percentage identity: 86&lt;br&gt;Percentage coverage: 100&lt;br&gt;BLAST bit score: 280&lt;br&gt;E-value: 1e-73" locus_tag="C4K15_RS21390" class="clusterblast-orf" id="dummy-4_h4_7_28"  />
</g>
<g id="a4_0029"  >
<polygon points="679,90 679,90 684,85 679,80 679,80 679,90 " style="fill:#d81548; stroke-width:1; stroke:black; " description="&lt;b&gt;C4K15_RS21395&lt;/b&gt;&lt;br&gt;pyrimidine/purine nucleoside phosphorylase&lt;br&gt;Location: 4862161 - 4862445&lt;br&gt;&lt;br&gt;&lt;b&gt;BlastP hit with MCIC6FC_005855&lt;/b&gt;&lt;br&gt;Percentage identity: 96&lt;br&gt;Percentage coverage: 100&lt;br&gt;BLAST bit score: 188&lt;br&gt;E-value: 2.5e-46" locus_tag="C4K15_RS21395" class="clusterblast-orf" id="dummy-4_h4_7_29"  />
</g>
<g id="a4_0030"  >
<polygon points="685,85 690,80 697,80 697,90 690,90 685,85 " style="fill:#9dd815; stroke-width:1; stroke:black; " description="&lt;b&gt;C4K15_RS21400&lt;/b&gt;&lt;br&gt;MOSC domain-containing protein&lt;br&gt;Location: 4862532 - 4863335&lt;br&gt;&lt;br&gt;&lt;b&gt;BlastP hit with MCIC6FC_005856&lt;/b&gt;&lt;br&gt;Percentage identity: 80&lt;br&gt;Percentage coverage: 48&lt;br&gt;BLAST bit score: 431&lt;br&gt;E-value: 9.9e-119" locus_tag="C4K15_RS21400" class="clusterblast-orf" id="dummy-4_h4_7_30"  />
</g>
<g id="a4_0031"  >
<polygon points="699,85 704,80 713,80 713,90 704,90 699,85 " style="fill:#9dd815; stroke-width:1; stroke:black; " description="&lt;b&gt;C4K15_RS21405&lt;/b&gt;&lt;br&gt;chemotaxis protein CheV&lt;br&gt;Location: 4863435 - 4864370&lt;br&gt;&lt;br&gt;&lt;b&gt;BlastP hit with MCIC6FC_005856&lt;/b&gt;&lt;br&gt;Percentage identity: 97&lt;br&gt;Percentage coverage: 55&lt;br&gt;BLAST bit score: 591&lt;br&gt;E-value: 9.8e-167" locus_tag="C4K15_RS21405" class="clusterblast-orf" id="dummy-4_h4_7_31"  />
</g>
<g id="a4_0032"  >
<polygon points="721,90 723,90 728,85 723,80 721,80 721,90 " style="fill:#15d8bf; stroke-width:1; stroke:black; " description="&lt;b&gt;C4K15_RS21410&lt;/b&gt;&lt;br&gt;hypothetical protein&lt;br&gt;Location: 4864911 - 4865378&lt;br&gt;&lt;br&gt;&lt;b&gt;BlastP hit with MCIC6FC_005857&lt;/b&gt;&lt;br&gt;Percentage identity: 53&lt;br&gt;Percentage coverage: 19&lt;br&gt;BLAST bit score: 126&lt;br&gt;E-value: 1e-26" locus_tag="C4K15_RS21410" class="clusterblast-orf" id="dummy-4_h4_7_32"  />
</g>
<g id="a4_0033"  >
<polygon points="735,90 744,90 749,85 744,80 735,80 735,90 " style="fill:#15d8bf; stroke-width:1; stroke:black; " description="&lt;b&gt;C4K15_RS21415&lt;/b&gt;&lt;br&gt;sensor histidine kinase&lt;br&gt;Location: 4865882 - 4866775&lt;br&gt;&lt;br&gt;&lt;b&gt;BlastP hit with MCIC6FC_005857&lt;/b&gt;&lt;br&gt;Percentage identity: 79&lt;br&gt;Percentage coverage: 40&lt;br&gt;BLAST bit score: 406&lt;br&gt;E-value: 6.9e-111" locus_tag="C4K15_RS21415" class="clusterblast-orf" id="dummy-4_h4_7_33"  />
</g>
<g id="a4_0034"  >
<polygon points="749,90 754,90 759,85 754,80 749,80 749,90 " style="fill:#15d8bf; stroke-width:1; stroke:black; " description="&lt;b&gt;C4K15_RS21420&lt;/b&gt;&lt;br&gt;response regulator transcription factor&lt;br&gt;Location: 4866772 - 4867431&lt;br&gt;&lt;br&gt;&lt;b&gt;BlastP hit with MCIC6FC_005857&lt;/b&gt;&lt;br&gt;Percentage identity: 83&lt;br&gt;Percentage coverage: 31&lt;br&gt;BLAST bit score: 327&lt;br&gt;E-value: 2.4e-87" locus_tag="C4K15_RS21420" class="clusterblast-orf" id="dummy-4_h4_7_34"  />
</g>
<g id="a4_0035"  >
<polygon points="759,85 764,80 772,80 772,90 764,90 759,85 " style="fill:#6a15d8; stroke-width:1; stroke:black; " description="&lt;b&gt;C4K15_RS21425&lt;/b&gt;&lt;br&gt;lipid kinase YegS&lt;br&gt;Location: 4867428 - 4868330&lt;br&gt;&lt;br&gt;&lt;b&gt;BlastP hit with MCIC6FC_005858&lt;/b&gt;&lt;br&gt;Percentage identity: 84&lt;br&gt;Percentage coverage: 95&lt;br&gt;BLAST bit score: 482&lt;br&gt;E-value: 4.6e-134" locus_tag="C4K15_RS21425" class="clusterblast-orf" id="dummy-4_h4_7_35"  />
</g>
<g id="a4_0036"  >
<polygon points="776,90 780,85 776,80 776,90 " style="fill:white; stroke-width:1; stroke:black; " description="&lt;b&gt;C4K15_RS21430&lt;/b&gt;&lt;br&gt;hypothetical protein&lt;br&gt;Location: 4868555 - 4868818" locus_tag="C4K15_RS21430" class="clusterblast-orf" id="dummy-4_h4_7_36"  />
</g>
</svg>
