<svg xmlns="http://www.w3.org/2000/svg" xmlns:xlink="http://www.w3.org/1999/xlink" version="1.1" x="0" y="0" height="230" width="800" viewBox="0 0 800 230" preserveAspectRatio="none"  >
<g label="Query sequence" class="clusterblast-cluster"  >
<text x="5" y="20" class="clusterblast-acc"  >
Query sequence</text>
<line x1="10" y1="35" x2="778.0" y2="35" style="stroke-width:1; stroke:grey; "  />
<polygon points="131,40 319,40 324,35 319,30 131,30 131,40 " style="fill:#d81515; stroke-width:1; stroke:black; " description="&lt;b&gt;MCIC6FC_022620&lt;/b&gt;&lt;br&gt;hypothetical protein&lt;br&gt;Location: 222 - 2660" locus_tag="MCIC6FC_022620" class="clusterblast-orf" id="dummy-1_q0_0_all"  />
<polygon points="325,35 330,30 397,30 397,40 330,40 325,35 " style="fill:#77d815; stroke-width:1; stroke:black; " description="&lt;b&gt;MCIC6FC_022621&lt;/b&gt;&lt;br&gt;hypothetical protein&lt;br&gt;Location: 2670 - 3585" locus_tag="MCIC6FC_022621" class="clusterblast-orf" id="dummy-1_q1_0_all"  />
<polygon points="405,40 509,40 514,35 509,30 405,30 405,40 " style="fill:#15d8d8; stroke-width:1; stroke:black; " description="&lt;b&gt;MCIC6FC_022622&lt;/b&gt;&lt;br&gt;hypothetical protein&lt;br&gt;Location: 3688 - 5057" locus_tag="MCIC6FC_022622" class="clusterblast-orf" id="dummy-1_q2_0_all"  />
<polygon points="522,40 645,40 650,35 645,30 522,30 522,40 " style="fill:#7715d8; stroke-width:1; stroke:black; " description="&lt;b&gt;MCIC6FC_022623&lt;/b&gt;&lt;br&gt;hypothetical protein&lt;br&gt;Location: 5163 - 6777" locus_tag="MCIC6FC_022623" class="clusterblast-orf" id="dummy-1_q3_0_all"  />
</g>
<g label="NZ_JSYZ01000002" description="NZ_JSYZ01000002 (15806-26691): Pseudomonas fuscovaginae strain IRRI 6609 Pf I... (54% of genes show similarity), bacteriocin" class="clusterblast-cluster"  >
<text x="5" y="70" class="clusterblast-acc"  >
<a xlink:href="https://antismash-db.secondarymetabolites.org/area.html?record=NZ_JSYZ01000002&amp;start=15806&amp;end=26691" target="_blank">NZ_JSYZ01000002 (15806-26691)</a>: Pseudomonas fuscovaginae strain IRRI 6609 Pf I... (54% of genes show similarity), bacteriocin</text>
<line x1="10" y1="85" x2="778.0" y2="85" style="stroke-width:1; stroke:grey; "  />
</g>
<g id="a1_000"  >
<polygon points="0,90 68,90 73,85 68,80 0,80 0,90 " style="fill:white; stroke-width:1; stroke:black; " description="&lt;b&gt;PF66_RS02065&lt;/b&gt;&lt;br&gt;high-affinity branched-chain amino acid ABC transporter permease LivH&lt;br&gt;Location: 16687 - 17610" locus_tag="PF66_RS02065" class="clusterblast-orf" id="dummy-1_h1_3_0"  />
</g>
<g id="a1_001"  >
<polygon points="72,90 167,90 172,85 167,80 72,80 72,90 " style="fill:white; stroke-width:1; stroke:black; " description="&lt;b&gt;PF66_RS02070&lt;/b&gt;&lt;br&gt;high-affinity branched-chain amino acid ABC transporter permease LivM&lt;br&gt;Location: 17607 - 18860" locus_tag="PF66_RS02070" class="clusterblast-orf" id="dummy-1_h1_3_1"  />
</g>
<g id="a1_002"  >
<polygon points="171,90 227,90 232,85 227,80 171,80 171,90 " style="fill:white; stroke-width:1; stroke:black; " description="&lt;b&gt;PF66_RS02075&lt;/b&gt;&lt;br&gt;ABC transporter ATP-binding protein&lt;br&gt;Location: 18857 - 19624" locus_tag="PF66_RS02075" class="clusterblast-orf" id="dummy-1_h1_3_2"  />
</g>
<g id="a1_003"  >
<polygon points="232,90 283,90 288,85 283,80 232,80 232,90 " style="fill:white; stroke-width:1; stroke:black; " description="&lt;b&gt;PF66_RS02080&lt;/b&gt;&lt;br&gt;ABC transporter ATP-binding protein&lt;br&gt;Location: 19625 - 20326" locus_tag="PF66_RS02080" class="clusterblast-orf" id="dummy-1_h1_3_3"  />
</g>
<g id="a1_004"  >
<polygon points="301,90 320,90 325,85 320,80 301,80 301,90 " style="fill:white; stroke-width:1; stroke:black; " description="&lt;b&gt;PF66_RS02085&lt;/b&gt;&lt;br&gt;DUF2282 domain-containing protein&lt;br&gt;Location: 20493 - 20798" locus_tag="PF66_RS02085" class="clusterblast-orf" id="dummy-1_h1_3_4"  />
</g>
<g id="a1_005"  >
<polygon points="326,90 391,90 396,85 391,80 326,80 326,90 " style="fill:#d81515; stroke-width:1; stroke:black; " description="&lt;b&gt;PF66_RS02090&lt;/b&gt;&lt;br&gt;DUF692 domain-containing protein&lt;br&gt;Location: 20807 - 21691&lt;br&gt;&lt;br&gt;&lt;b&gt;BlastP hit with MCIC6FC_022620&lt;/b&gt;&lt;br&gt;Percentage identity: 82&lt;br&gt;Percentage coverage: 37&lt;br&gt;BLAST bit score: 459&lt;br&gt;E-value: 7.5e-127" locus_tag="PF66_RS02090" class="clusterblast-orf" id="dummy-1_h1_3_5"  />
</g>
<g id="a1_006"  >
<polygon points="396,90 451,90 456,85 451,80 396,80 396,90 " style="fill:#d81515; stroke-width:1; stroke:black; " description="&lt;b&gt;PF66_RS02095&lt;/b&gt;&lt;br&gt;DUF2063 domain-containing protein&lt;br&gt;Location: 21688 - 22449&lt;br&gt;&lt;br&gt;&lt;b&gt;BlastP hit with MCIC6FC_022620&lt;/b&gt;&lt;br&gt;Percentage identity: 57&lt;br&gt;Percentage coverage: 33&lt;br&gt;BLAST bit score: 251&lt;br&gt;E-value: 3.1e-64" locus_tag="PF66_RS02095" class="clusterblast-orf" id="dummy-1_h1_3_6"  />
</g>
<g id="a1_007"  >
<polygon points="456,85 461,80 528,80 528,90 461,90 456,85 " style="fill:#77d815; stroke-width:1; stroke:black; " description="&lt;b&gt;PF66_RS02100&lt;/b&gt;&lt;br&gt;LysR family transcriptional regulator&lt;br&gt;Location: 22450 - 23364&lt;br&gt;&lt;br&gt;&lt;b&gt;BlastP hit with MCIC6FC_022621&lt;/b&gt;&lt;br&gt;Percentage identity: 83&lt;br&gt;Percentage coverage: 100&lt;br&gt;BLAST bit score: 505&lt;br&gt;E-value: 2.9e-141" locus_tag="PF66_RS02100" class="clusterblast-orf" id="dummy-1_h1_3_7"  />
</g>
<g id="a1_008"  >
<polygon points="537,90 579,90 584,85 579,80 537,80 537,90 " style="fill:#15d8d8; stroke-width:1; stroke:black; " description="&lt;b&gt;PF66_RS02105&lt;/b&gt;&lt;br&gt;short chain dehydrogenase&lt;br&gt;Location: 23471 - 24070&lt;br&gt;&lt;br&gt;&lt;b&gt;BlastP hit with MCIC6FC_022622&lt;/b&gt;&lt;br&gt;Percentage identity: 78&lt;br&gt;Percentage coverage: 46&lt;br&gt;BLAST bit score: 307&lt;br&gt;E-value: 2.8e-81" locus_tag="PF66_RS02105" class="clusterblast-orf" id="dummy-1_h1_3_8"  />
</g>
<g id="a1_009"  >
<polygon points="590,90 638,90 643,85 638,80 590,80 590,90 " style="fill:#15d8d8; stroke-width:1; stroke:black; " description="&lt;b&gt;PF66_RS02110&lt;/b&gt;&lt;br&gt;hypothetical protein&lt;br&gt;Location: 24140 - 24814&lt;br&gt;&lt;br&gt;&lt;b&gt;BlastP hit with MCIC6FC_022622&lt;/b&gt;&lt;br&gt;Percentage identity: 60&lt;br&gt;Percentage coverage: 52&lt;br&gt;BLAST bit score: 278&lt;br&gt;E-value: 1.1e-72" locus_tag="PF66_RS02110" class="clusterblast-orf" id="dummy-1_h1_3_9"  />
</g>
<g id="a1_0010"  >
<polygon points="652,90 775,90 780,85 775,80 652,80 652,90 " style="fill:#7715d8; stroke-width:1; stroke:black; " description="&lt;b&gt;PF66_RS02115&lt;/b&gt;&lt;br&gt;NAD(P)/FAD-dependent oxidoreductase&lt;br&gt;Location: 24923 - 26536&lt;br&gt;&lt;br&gt;&lt;b&gt;BlastP hit with MCIC6FC_022623&lt;/b&gt;&lt;br&gt;Percentage identity: 90&lt;br&gt;Percentage coverage: 100&lt;br&gt;BLAST bit score: 978&lt;br&gt;E-value: 2.1e-283" locus_tag="PF66_RS02115" class="clusterblast-orf" id="dummy-1_h1_3_10"  />
</g>
</svg>
