<svg xmlns="http://www.w3.org/2000/svg" xmlns:xlink="http://www.w3.org/1999/xlink" version="1.1" x="0" y="0" height="230" width="800" viewBox="0 0 800 230" preserveAspectRatio="none"  >
<g label="Query sequence" class="clusterblast-cluster"  >
<text x="5" y="20" class="clusterblast-acc"  >
Query sequence</text>
<line x1="10" y1="35" x2="778.0" y2="35" style="stroke-width:1; stroke:grey; "  />
<polygon points="0,35 5,30 23,30 23,40 5,40 0,35 " style="fill:white; stroke-width:1; stroke:black; " description="&lt;b&gt;MCIC6FC_007469&lt;/b&gt;&lt;br&gt;hypothetical protein&lt;br&gt;Location: 672575 - 674644" locus_tag="MCIC6FC_007469" class="clusterblast-orf" id="dummy-2_q0_0_all"  />
<polygon points="24,40 30,40 35,35 30,30 24,30 24,40 " style="fill:white; stroke-width:1; stroke:black; " description="&lt;b&gt;MCIC6FC_007470&lt;/b&gt;&lt;br&gt;hypothetical protein&lt;br&gt;Location: 674727 - 675636" locus_tag="MCIC6FC_007470" class="clusterblast-orf" id="dummy-2_q1_0_all"  />
<polygon points="35,35 40,30 61,30 61,40 40,40 35,35 " style="fill:#d81515; stroke-width:1; stroke:black; " description="&lt;b&gt;MCIC6FC_007471&lt;/b&gt;&lt;br&gt;hypothetical protein&lt;br&gt;Location: 675666 - 677901" locus_tag="MCIC6FC_007471" class="clusterblast-orf" id="dummy-2_q2_0_all"  />
<polygon points="63,40 84,40 89,35 84,30 63,30 63,40 " style="fill:#6ad815; stroke-width:1; stroke:black; " description="&lt;b&gt;MCIC6FC_007472&lt;/b&gt;&lt;br&gt;hypothetical protein&lt;br&gt;Location: 678045 - 680361" locus_tag="MCIC6FC_007472" class="clusterblast-orf" id="dummy-2_q3_0_all"  />
<polygon points="92,35 97,30 123,30 123,40 97,40 92,35 " style="fill:#15bfd8; stroke-width:1; stroke:black; " description="&lt;b&gt;MCIC6FC_007473&lt;/b&gt;&lt;br&gt;hypothetical protein&lt;br&gt;Location: 680593 - 683317" locus_tag="MCIC6FC_007473" class="clusterblast-orf" id="dummy-2_q4_0_all"  />
<polygon points="125,40 137,40 142,35 137,30 125,30 125,40 " style="fill:#9d15d8; stroke-width:1; stroke:black; " description="&lt;b&gt;MCIC6FC_007474&lt;/b&gt;&lt;br&gt;hypothetical protein&lt;br&gt;Location: 683450 - 684953" locus_tag="MCIC6FC_007474" class="clusterblast-orf" id="dummy-2_q5_0_all"  />
<polygon points="142,35 147,30 151,30 151,40 147,40 142,35 " style="fill:#d84815; stroke-width:1; stroke:black; " description="&lt;b&gt;MCIC6FC_007475&lt;/b&gt;&lt;br&gt;hypothetical protein&lt;br&gt;Location: 684963 - 685723" locus_tag="MCIC6FC_007475" class="clusterblast-orf" id="dummy-2_q6_0_all"  />
<polygon points="152,40 157,40 162,35 157,30 152,30 152,40 " style="fill:#37d815; stroke-width:1; stroke:black; " description="&lt;b&gt;MCIC6FC_007476&lt;/b&gt;&lt;br&gt;hypothetical protein&lt;br&gt;Location: 685781 - 686674" locus_tag="MCIC6FC_007476" class="clusterblast-orf" id="dummy-2_q7_0_all"  />
<polygon points="162,35 167,30 172,30 172,40 167,40 162,35 " style="fill:#158cd8; stroke-width:1; stroke:black; " description="&lt;b&gt;MCIC6FC_007477&lt;/b&gt;&lt;br&gt;hypothetical protein&lt;br&gt;Location: 686682 - 687549" locus_tag="MCIC6FC_007477" class="clusterblast-orf" id="dummy-2_q8_0_all"  />
<polygon points="173,40 181,40 186,35 181,30 173,30 173,40 " style="fill:#d015d8; stroke-width:1; stroke:black; " description="&lt;b&gt;MCIC6FC_007478&lt;/b&gt;&lt;br&gt;hypothetical protein&lt;br&gt;Location: 687621 - 688727" locus_tag="MCIC6FC_007478" class="clusterblast-orf" id="dummy-2_q9_0_all"  />
<polygon points="186,35 191,30 192,30 192,40 191,40 186,35 " style="fill:#d87b15; stroke-width:1; stroke:black; " description="&lt;b&gt;MCIC6FC_007479&lt;/b&gt;&lt;br&gt;hypothetical protein&lt;br&gt;Location: 688781 - 689242" locus_tag="MCIC6FC_007479" class="clusterblast-orf" id="dummy-2_q10_0_all"  />
<polygon points="197,35 202,30 212,30 212,40 202,40 197,35 " style="fill:#15d826; stroke-width:1; stroke:black; " description="&lt;b&gt;MCIC6FC_007480&lt;/b&gt;&lt;br&gt;hypothetical protein&lt;br&gt;Location: 689670 - 690984" locus_tag="MCIC6FC_007480" class="clusterblast-orf" id="dummy-2_q11_0_all"  />
<polygon points="215,35 220,30 225,30 225,40 220,40 215,35 " style="fill:#1559d8; stroke-width:1; stroke:black; " description="&lt;b&gt;MCIC6FC_007481&lt;/b&gt;&lt;br&gt;hypothetical protein&lt;br&gt;Location: 691289 - 692105" locus_tag="MCIC6FC_007481" class="clusterblast-orf" id="dummy-2_q12_0_all"  />
<polygon points="225,35 230,30 232,30 232,40 230,40 225,35 " style="fill:#d015d8; stroke-width:1; stroke:black; " description="&lt;b&gt;MCIC6FC_007482&lt;/b&gt;&lt;br&gt;hypothetical protein&lt;br&gt;Location: 692133 - 692766" locus_tag="MCIC6FC_007482" class="clusterblast-orf" id="dummy-2_q13_0_all"  />
<polygon points="234,40 260,40 265,35 260,30 234,30 234,40 " style="fill:#d815ae; stroke-width:1; stroke:black; " description="&lt;b&gt;MCIC6FC_007483&lt;/b&gt;&lt;br&gt;hypothetical protein&lt;br&gt;Location: 692877 - 695575" locus_tag="MCIC6FC_007483" class="clusterblast-orf" id="dummy-2_q14_0_all"  />
<polygon points="265,35 270,30 272,30 272,40 270,40 265,35 " style="fill:#d8ae15; stroke-width:1; stroke:black; " description="&lt;b&gt;MCIC6FC_007484&lt;/b&gt;&lt;br&gt;hypothetical protein&lt;br&gt;Location: 695586 - 696207" locus_tag="MCIC6FC_007484" class="clusterblast-orf" id="dummy-2_q15_0_all"  />
<polygon points="275,40 340,40 345,35 340,30 275,30 275,40 " style="fill:#15d859; stroke-width:1; stroke:black; " description="&lt;b&gt;MCIC6FC_007485&lt;/b&gt;&lt;br&gt;hypothetical protein&lt;br&gt;Location: 696508 - 702544" locus_tag="MCIC6FC_007485" class="clusterblast-orf" id="dummy-2_q16_0_all"  />
<polygon points="346,35 351,30 376,30 376,40 351,40 346,35 " style="fill:#1526d8; stroke-width:1; stroke:black; " description="&lt;b&gt;MCIC6FC_007486&lt;/b&gt;&lt;br&gt;hypothetical protein&lt;br&gt;Location: 702671 - 705211" locus_tag="MCIC6FC_007486" class="clusterblast-orf" id="dummy-2_q17_0_all"  />
<polygon points="377,35 382,30 387,30 387,40 382,40 377,35 " style="fill:#d8157b; stroke-width:1; stroke:black; " description="&lt;b&gt;MCIC6FC_007487&lt;/b&gt;&lt;br&gt;hypothetical protein&lt;br&gt;Location: 705352 - 706216" locus_tag="MCIC6FC_007487" class="clusterblast-orf" id="dummy-2_q18_0_all"  />
<polygon points="391,35 396,30 416,30 416,40 396,40 391,35 " style="fill:#d0d815; stroke-width:1; stroke:black; " description="&lt;b&gt;MCIC6FC_007488&lt;/b&gt;&lt;br&gt;hypothetical protein&lt;br&gt;Location: 706499 - 708736" locus_tag="MCIC6FC_007488" class="clusterblast-orf" id="dummy-2_q19_0_all"  />
<polygon points="418,35 423,30 457,30 457,40 423,40 418,35 " style="fill:#15d88c; stroke-width:1; stroke:black; " description="&lt;b&gt;MCIC6FC_007489&lt;/b&gt;&lt;br&gt;hypothetical protein&lt;br&gt;Location: 708846 - 712262" locus_tag="MCIC6FC_007489" class="clusterblast-orf" id="dummy-2_q20_0_all"  />
<polygon points="458,40 462,40 467,35 462,30 458,30 458,40 " style="fill:#3715d8; stroke-width:1; stroke:black; " description="&lt;b&gt;MCIC6FC_007490&lt;/b&gt;&lt;br&gt;hypothetical protein&lt;br&gt;Location: 712372 - 713153" locus_tag="MCIC6FC_007490" class="clusterblast-orf" id="dummy-2_q21_0_all"  />
<polygon points="469,40 512,40 517,35 512,30 469,30 469,40 " style="fill:#d81548; stroke-width:1; stroke:black; " description="&lt;b&gt;MCIC6FC_007491&lt;/b&gt;&lt;br&gt;hypothetical protein&lt;br&gt;Location: 713274 - 717451" locus_tag="MCIC6FC_007491" class="clusterblast-orf" id="dummy-2_q22_0_all"  />
<polygon points="517,35 522,30 534,30 534,40 522,40 517,35 " style="fill:#15bfd8; stroke-width:1; stroke:black; " description="&lt;b&gt;MCIC6FC_007492&lt;/b&gt;&lt;br&gt;hypothetical protein&lt;br&gt;Location: 717453 - 718988" locus_tag="MCIC6FC_007492" class="clusterblast-orf" id="dummy-2_q23_0_all"  />
<polygon points="536,35 541,30 566,30 566,40 541,40 536,35 " style="fill:#9dd815; stroke-width:1; stroke:black; " description="&lt;b&gt;MCIC6FC_007493&lt;/b&gt;&lt;br&gt;hypothetical protein&lt;br&gt;Location: 719128 - 721732" locus_tag="MCIC6FC_007493" class="clusterblast-orf" id="dummy-2_q24_0_all"  />
<polygon points="568,35 573,30 592,30 592,40 573,40 568,35 " style="fill:#15d8bf; stroke-width:1; stroke:black; " description="&lt;b&gt;MCIC6FC_007494&lt;/b&gt;&lt;br&gt;hypothetical protein&lt;br&gt;Location: 721903 - 723972" locus_tag="MCIC6FC_007494" class="clusterblast-orf" id="dummy-2_q25_0_all"  />
<polygon points="592,35 597,30 751,30 751,40 597,40 592,35 " style="fill:#6a15d8; stroke-width:1; stroke:black; " description="&lt;b&gt;MCIC6FC_007495&lt;/b&gt;&lt;br&gt;hypothetical protein&lt;br&gt;Location: 724015 - 737775" locus_tag="MCIC6FC_007495" class="clusterblast-orf" id="dummy-2_q26_0_all"  />
<polygon points="757,35 762,30 768,30 768,40 762,40 757,35 " style="fill:white; stroke-width:1; stroke:black; " description="&lt;b&gt;MCIC6FC_007496&lt;/b&gt;&lt;br&gt;hypothetical protein&lt;br&gt;Location: 738268 - 739222" locus_tag="MCIC6FC_007496" class="clusterblast-orf" id="dummy-2_q27_0_all"  />
<polygon points="768,35 773,30 780,30 780,40 773,40 768,35 " style="fill:white; stroke-width:1; stroke:black; " description="&lt;b&gt;MCIC6FC_007497&lt;/b&gt;&lt;br&gt;hypothetical protein&lt;br&gt;Location: 739248 - 740262" locus_tag="MCIC6FC_007497" class="clusterblast-orf" id="dummy-2_q28_0_all"  />
</g>
<g label="NZ_LT907842" description="NZ_LT907842 (5735876-5765125): Pseudomonas fluorescens strain ATCC 13525 chro... (75% of genes show similarity), thiopeptide" class="clusterblast-cluster"  >
<text x="5" y="70" class="clusterblast-acc"  >
<a xlink:href="https://antismash-db.secondarymetabolites.org/area.html?record=NZ_LT907842&amp;start=5735876&amp;end=5765125" target="_blank">NZ_LT907842 (5735876-5765125)</a>: Pseudomonas fluorescens strain ATCC 13525 chro... (75% of genes show similarity), thiopeptide</text>
<line x1="10" y1="85" x2="778.0" y2="85" style="stroke-width:1; stroke:grey; "  />
</g>
<g id="a2_000"  >
<polygon points="236,90 236,90 241,85 236,80 236,80 236,90 " style="fill:#6ad815; stroke-width:1; stroke:black; " description="&lt;b&gt;CPH89_RS26630&lt;/b&gt;&lt;br&gt;ATP-binding protein&lt;br&gt;Location: 5765077 - 5764598&lt;br&gt;&lt;br&gt;&lt;b&gt;BlastP hit with MCIC6FC_007472&lt;/b&gt;&lt;br&gt;Percentage identity: 88&lt;br&gt;Percentage coverage: 20&lt;br&gt;BLAST bit score: 265&lt;br&gt;E-value: 1.6e-68" locus_tag="CPH89_RS26630" class="clusterblast-orf" id="dummy-2_h2_2_0"  />
</g>
<g id="a2_001"  >
<polygon points="241,90 245,90 250,85 245,80 241,80 241,90 " style="fill:#6ad815; stroke-width:1; stroke:black; " description="&lt;b&gt;CPH89_RS26625&lt;/b&gt;&lt;br&gt;nucleotidyltransferase domain-containing protein&lt;br&gt;Location: 5764601 - 5763831&lt;br&gt;&lt;br&gt;&lt;b&gt;BlastP hit with MCIC6FC_007472&lt;/b&gt;&lt;br&gt;Percentage identity: 73&lt;br&gt;Percentage coverage: 34&lt;br&gt;BLAST bit score: 383&lt;br&gt;E-value: 4.1e-104" locus_tag="CPH89_RS26625" class="clusterblast-orf" id="dummy-2_h2_2_1"  />
</g>
<g id="a2_002"  >
<polygon points="251,85 256,80 273,80 273,90 256,90 251,85 " style="fill:#15bfd8; stroke-width:1; stroke:black; " description="&lt;b&gt;CPH89_RS26620&lt;/b&gt;&lt;br&gt;methyl-accepting chemotaxis protein&lt;br&gt;Location: 5763755 - 5761815&lt;br&gt;&lt;br&gt;&lt;b&gt;BlastP hit with MCIC6FC_007473&lt;/b&gt;&lt;br&gt;Percentage identity: 95&lt;br&gt;Percentage coverage: 81&lt;br&gt;BLAST bit score: 1149&lt;br&gt;E-value: 0.0&lt;br&gt;&lt;br&gt;&lt;b&gt;BlastP hit with MCIC6FC_007492&lt;/b&gt;&lt;br&gt;Percentage identity: 41&lt;br&gt;Percentage coverage: 29&lt;br&gt;BLAST bit score: 84&lt;br&gt;E-value: 4.5e-14" locus_tag="CPH89_RS26620" class="clusterblast-orf" id="dummy-2_h2_2_2"  />
</g>
<g id="a2_003"  >
<polygon points="277,90 277,90 282,85 277,80 277,80 277,90 " style="fill:#37d815; stroke-width:1; stroke:black; " description="&lt;b&gt;CPH89_RS26615&lt;/b&gt;&lt;br&gt;VOC family protein&lt;br&gt;Location: 5761513 - 5761058&lt;br&gt;&lt;br&gt;&lt;b&gt;BlastP hit with MCIC6FC_007476&lt;/b&gt;&lt;br&gt;Percentage identity: 76&lt;br&gt;Percentage coverage: 51&lt;br&gt;BLAST bit score: 232&lt;br&gt;E-value: 5.8e-59" locus_tag="CPH89_RS26615" class="clusterblast-orf" id="dummy-2_h2_2_3"  />
</g>
<g id="a2_004"  >
<polygon points="282,90 282,90 287,85 282,80 282,80 282,90 " style="fill:#d015d8; stroke-width:1; stroke:black; " description="&lt;b&gt;CPH89_RS26610&lt;/b&gt;&lt;br&gt;NUDIX domain-containing protein&lt;br&gt;Location: 5761065 - 5760616&lt;br&gt;&lt;br&gt;&lt;b&gt;BlastP hit with MCIC6FC_007478&lt;/b&gt;&lt;br&gt;Percentage identity: 79&lt;br&gt;Percentage coverage: 41&lt;br&gt;BLAST bit score: 242&lt;br&gt;E-value: 7.1e-62" locus_tag="CPH89_RS26610" class="clusterblast-orf" id="dummy-2_h2_2_4"  />
</g>
<g id="a2_005"  >
<polygon points="287,85 292,80 300,80 300,90 292,90 287,85 " style="fill:white; stroke-width:1; stroke:black; " description="&lt;b&gt;CPH89_RS26605&lt;/b&gt;&lt;br&gt;FAD-binding oxidoreductase&lt;br&gt;Location: 5760604 - 5759537" locus_tag="CPH89_RS26605" class="clusterblast-orf" id="dummy-2_h2_2_5"  />
</g>
<g id="a2_006"  >
<polygon points="300,85 305,80 306,80 306,90 305,90 300,85 " style="fill:#d87b15; stroke-width:1; stroke:black; " description="&lt;b&gt;CPH89_RS26600&lt;/b&gt;&lt;br&gt;cysteine hydrolase&lt;br&gt;Location: 5759523 - 5758963&lt;br&gt;&lt;br&gt;&lt;b&gt;BlastP hit with MCIC6FC_007479&lt;/b&gt;&lt;br&gt;Percentage identity: 84&lt;br&gt;Percentage coverage: 100&lt;br&gt;BLAST bit score: 218&lt;br&gt;E-value: 4.9e-55" locus_tag="CPH89_RS26600" class="clusterblast-orf" id="dummy-2_h2_2_6"  />
</g>
<g id="a2_007"  >
<polygon points="307,85 312,80 322,80 322,90 312,90 307,85 " style="fill:#15d826; stroke-width:1; stroke:black; " description="&lt;b&gt;CPH89_RS26595&lt;/b&gt;&lt;br&gt;FAD-binding oxidoreductase&lt;br&gt;Location: 5758893 - 5757580&lt;br&gt;&lt;br&gt;&lt;b&gt;BlastP hit with MCIC6FC_007480&lt;/b&gt;&lt;br&gt;Percentage identity: 92&lt;br&gt;Percentage coverage: 100&lt;br&gt;BLAST bit score: 824&lt;br&gt;E-value: 7e-237" locus_tag="CPH89_RS26595" class="clusterblast-orf" id="dummy-2_h2_2_7"  />
</g>
<g id="a2_008"  >
<polygon points="323,85 325,80 325,90 323,85 " style="fill:white; stroke-width:1; stroke:black; " description="&lt;b&gt;CPH89_RS30480&lt;/b&gt;&lt;br&gt;hypothetical protein&lt;br&gt;Location: 5757528 - 5757373" locus_tag="CPH89_RS30480" class="clusterblast-orf" id="dummy-2_h2_2_8"  />
</g>
<g id="a2_009"  >
<polygon points="325,85 330,80 333,80 333,90 330,90 325,85 " style="fill:#d015d8; stroke-width:1; stroke:black; " description="&lt;b&gt;CPH89_RS26590&lt;/b&gt;&lt;br&gt;TetR family transcriptional regulator&lt;br&gt;Location: 5757295 - 5756663&lt;br&gt;&lt;br&gt;&lt;b&gt;BlastP hit with MCIC6FC_007478&lt;/b&gt;&lt;br&gt;Percentage identity: 53&lt;br&gt;Percentage coverage: 17&lt;br&gt;BLAST bit score: 63&lt;br&gt;E-value: 4.5e-08&lt;br&gt;&lt;br&gt;&lt;b&gt;BlastP hit with MCIC6FC_007482&lt;/b&gt;&lt;br&gt;Percentage identity: 87&lt;br&gt;Percentage coverage: 99&lt;br&gt;BLAST bit score: 337&lt;br&gt;E-value: 7.3e-91" locus_tag="CPH89_RS26590" class="clusterblast-orf" id="dummy-2_h2_2_9"  />
</g>
<g id="a2_0010"  >
<polygon points="334,90 337,90 342,85 337,80 334,80 334,90 " style="fill:#d815ae; stroke-width:1; stroke:black; " description="&lt;b&gt;CPH89_RS26585&lt;/b&gt;&lt;br&gt;class I SAM-dependent methyltransferase&lt;br&gt;Location: 5756551 - 5755895&lt;br&gt;&lt;br&gt;&lt;b&gt;BlastP hit with MCIC6FC_007483&lt;/b&gt;&lt;br&gt;Percentage identity: 88&lt;br&gt;Percentage coverage: 24&lt;br&gt;BLAST bit score: 354&lt;br&gt;E-value: 2.4e-95" locus_tag="CPH89_RS26585" class="clusterblast-orf" id="dummy-2_h2_2_10"  />
</g>
<g id="a2_0011"  >
<polygon points="342,85 347,80 349,80 349,90 347,90 342,85 " style="fill:#d8ae15; stroke-width:1; stroke:black; " description="&lt;b&gt;CPH89_RS26580&lt;/b&gt;&lt;br&gt;LysE family translocator&lt;br&gt;Location: 5755881 - 5755261&lt;br&gt;&lt;br&gt;&lt;b&gt;BlastP hit with MCIC6FC_007484&lt;/b&gt;&lt;br&gt;Percentage identity: 86&lt;br&gt;Percentage coverage: 105&lt;br&gt;BLAST bit score: 346&lt;br&gt;E-value: 2.5e-93" locus_tag="CPH89_RS26580" class="clusterblast-orf" id="dummy-2_h2_2_11"  />
</g>
<g id="a2_0012"  >
<polygon points="350,90 371,90 376,85 371,80 350,80 350,90 " style="fill:#15d859; stroke-width:1; stroke:black; " description="&lt;b&gt;CPH89_RS26575&lt;/b&gt;&lt;br&gt;OsmC domain/YcaO domain-containing protein&lt;br&gt;Location: 5755125 - 5752927&lt;br&gt;&lt;br&gt;&lt;b&gt;BlastP hit with MCIC6FC_007485&lt;/b&gt;&lt;br&gt;Percentage identity: 97&lt;br&gt;Percentage coverage: 38&lt;br&gt;BLAST bit score: 1443&lt;br&gt;E-value: 0.0" locus_tag="CPH89_RS26575" class="clusterblast-orf" id="dummy-2_h2_2_12"  />
</g>
<g id="a2_0013"  >
<polygon points="390,85 395,80 404,80 404,90 395,90 390,85 " style="fill:#1526d8; stroke-width:1; stroke:black; " description="&lt;b&gt;CPH89_RS26570&lt;/b&gt;&lt;br&gt;cystathionine gamma-synthase&lt;br&gt;Location: 5751673 - 5750507&lt;br&gt;&lt;br&gt;&lt;b&gt;BlastP hit with MCIC6FC_007486&lt;/b&gt;&lt;br&gt;Percentage identity: 96&lt;br&gt;Percentage coverage: 46&lt;br&gt;BLAST bit score: 751&lt;br&gt;E-value: 8.4e-215" locus_tag="CPH89_RS26570" class="clusterblast-orf" id="dummy-2_h2_2_13"  />
</g>
<g id="a2_0014"  >
<polygon points="404,85 409,80 420,80 420,90 409,90 404,85 " style="fill:#1526d8; stroke-width:1; stroke:black; " description="&lt;b&gt;CPH89_RS26565&lt;/b&gt;&lt;br&gt;pyridoxal-phosphate dependent enzyme&lt;br&gt;Location: 5750510 - 5749134&lt;br&gt;&lt;br&gt;&lt;b&gt;BlastP hit with MCIC6FC_007486&lt;/b&gt;&lt;br&gt;Percentage identity: 93&lt;br&gt;Percentage coverage: 54&lt;br&gt;BLAST bit score: 843&lt;br&gt;E-value: 2.1e-242" locus_tag="CPH89_RS26565" class="clusterblast-orf" id="dummy-2_h2_2_14"  />
</g>
<g id="a2_0015"  >
<polygon points="421,85 426,80 431,80 431,90 426,90 421,85 " style="fill:#d8157b; stroke-width:1; stroke:black; " description="&lt;b&gt;CPH89_RS26560&lt;/b&gt;&lt;br&gt;4-hydroxy-tetrahydrodipicolinate synthase&lt;br&gt;Location: 5748990 - 5748139&lt;br&gt;&lt;br&gt;&lt;b&gt;BlastP hit with MCIC6FC_007487&lt;/b&gt;&lt;br&gt;Percentage identity: 87&lt;br&gt;Percentage coverage: 99&lt;br&gt;BLAST bit score: 472&lt;br&gt;E-value: 3.4e-131" locus_tag="CPH89_RS26560" class="clusterblast-orf" id="dummy-2_h2_2_15"  />
</g>
<g id="a2_0016"  >
<polygon points="434,85 439,80 446,80 446,90 439,90 434,85 " style="fill:#d0d815; stroke-width:1; stroke:black; " description="&lt;b&gt;CPH89_RS26555&lt;/b&gt;&lt;br&gt;alpha/beta hydrolase&lt;br&gt;Location: 5747853 - 5746876&lt;br&gt;&lt;br&gt;&lt;b&gt;BlastP hit with MCIC6FC_007488&lt;/b&gt;&lt;br&gt;Percentage identity: 87&lt;br&gt;Percentage coverage: 48&lt;br&gt;BLAST bit score: 582&lt;br&gt;E-value: 4.2e-164" locus_tag="CPH89_RS26555" class="clusterblast-orf" id="dummy-2_h2_2_16"  />
</g>
<g id="a2_0017"  >
<polygon points="447,85 452,80 452,80 452,90 452,90 447,85 " style="fill:#d0d815; stroke-width:1; stroke:black; " description="&lt;b&gt;CPH89_RS26550&lt;/b&gt;&lt;br&gt;VOC family protein&lt;br&gt;Location: 5746771 - 5746289&lt;br&gt;&lt;br&gt;&lt;b&gt;BlastP hit with MCIC6FC_007488&lt;/b&gt;&lt;br&gt;Percentage identity: 86&lt;br&gt;Percentage coverage: 23&lt;br&gt;BLAST bit score: 295&lt;br&gt;E-value: 1.3e-77" locus_tag="CPH89_RS26550" class="clusterblast-orf" id="dummy-2_h2_2_17"  />
</g>
<g id="a2_0018"  >
<polygon points="453,85 457,80 457,90 453,85 " style="fill:#15d88c; stroke-width:1; stroke:black; " description="&lt;b&gt;CPH89_RS26545&lt;/b&gt;&lt;br&gt;ester cyclase&lt;br&gt;Location: 5746269 - 5745877&lt;br&gt;&lt;br&gt;&lt;b&gt;BlastP hit with MCIC6FC_007489&lt;/b&gt;&lt;br&gt;Percentage identity: 82&lt;br&gt;Percentage coverage: 11&lt;br&gt;BLAST bit score: 215&lt;br&gt;E-value: 2.8e-53" locus_tag="CPH89_RS26545" class="clusterblast-orf" id="dummy-2_h2_2_18"  />
</g>
<g id="a2_0019"  >
<polygon points="457,85 462,80 465,80 465,90 462,90 457,85 " style="fill:#15d88c; stroke-width:1; stroke:black; " description="&lt;b&gt;CPH89_RS26540&lt;/b&gt;&lt;br&gt;LysE family translocator&lt;br&gt;Location: 5745846 - 5745226&lt;br&gt;&lt;br&gt;&lt;b&gt;BlastP hit with MCIC6FC_007489&lt;/b&gt;&lt;br&gt;Percentage identity: 87&lt;br&gt;Percentage coverage: 19&lt;br&gt;BLAST bit score: 329&lt;br&gt;E-value: 1.3e-87" locus_tag="CPH89_RS26540" class="clusterblast-orf" id="dummy-2_h2_2_19"  />
</g>
<g id="a2_0020"  >
<polygon points="466,85 468,80 468,90 466,85 " style="fill:white; stroke-width:1; stroke:black; " description="&lt;b&gt;CPH89_RS30305&lt;/b&gt;&lt;br&gt;hypothetical protein&lt;br&gt;Location: 5745094 - 5744951" locus_tag="CPH89_RS30305" class="clusterblast-orf" id="dummy-2_h2_2_20"  />
</g>
<g id="a2_0021"  >
<polygon points="468,85 473,80 477,80 477,90 473,90 468,85 " style="fill:#15d8bf; stroke-width:1; stroke:black; " description="&lt;b&gt;CPH89_RS26535&lt;/b&gt;&lt;br&gt;PIG-L family deacetylase&lt;br&gt;Location: 5744919 - 5744158&lt;br&gt;&lt;br&gt;&lt;b&gt;BlastP hit with MCIC6FC_007494&lt;/b&gt;&lt;br&gt;Percentage identity: 88&lt;br&gt;Percentage coverage: 38&lt;br&gt;BLAST bit score: 452&lt;br&gt;E-value: 6.3e-125" locus_tag="CPH89_RS26535" class="clusterblast-orf" id="dummy-2_h2_2_21"  />
</g>
<g id="a2_0022"  >
<polygon points="479,85 484,80 487,80 487,90 484,90 479,85 " style="fill:white; stroke-width:1; stroke:black; " description="&lt;b&gt;CPH89_RS26530&lt;/b&gt;&lt;br&gt;glycosyltransferase family 2 protein&lt;br&gt;Location: 5743969 - 5743310" locus_tag="CPH89_RS26530" class="clusterblast-orf" id="dummy-2_h2_2_22"  />
</g>
<g id="a2_0023"  >
<polygon points="487,85 492,80 494,80 494,90 492,90 487,85 " style="fill:white; stroke-width:1; stroke:black; " description="&lt;b&gt;CPH89_RS26525&lt;/b&gt;&lt;br&gt;methyltransferase domain-containing protein&lt;br&gt;Location: 5743313 - 5742714" locus_tag="CPH89_RS26525" class="clusterblast-orf" id="dummy-2_h2_2_23"  />
</g>
<g id="a2_0024"  >
<polygon points="493,85 498,80 502,80 502,90 498,90 493,85 " style="fill:#15d8bf; stroke-width:1; stroke:black; " description="&lt;b&gt;CPH89_RS26520&lt;/b&gt;&lt;br&gt;PIG-L family deacetylase&lt;br&gt;Location: 5742717 - 5741959&lt;br&gt;&lt;br&gt;&lt;b&gt;BlastP hit with MCIC6FC_007494&lt;/b&gt;&lt;br&gt;Percentage identity: 59&lt;br&gt;Percentage coverage: 38&lt;br&gt;BLAST bit score: 298&lt;br&gt;E-value: 2e-78" locus_tag="CPH89_RS26520" class="clusterblast-orf" id="dummy-2_h2_2_24"  />
</g>
<g id="a2_0025"  >
<polygon points="502,85 507,80 514,80 514,90 507,90 502,85 " style="fill:white; stroke-width:1; stroke:black; " description="&lt;b&gt;CPH89_RS26515&lt;/b&gt;&lt;br&gt;acyl-CoA dehydrogenase&lt;br&gt;Location: 5741962 - 5740964" locus_tag="CPH89_RS26515" class="clusterblast-orf" id="dummy-2_h2_2_25"  />
</g>
<g id="a2_0026"  >
<polygon points="514,85 519,80 539,80 539,90 519,90 514,85 " style="fill:#6a15d8; stroke-width:1; stroke:black; " description="&lt;b&gt;CPH89_RS26510&lt;/b&gt;&lt;br&gt;glycogen debranching protein GlgX&lt;br&gt;Location: 5740962 - 5738806&lt;br&gt;&lt;br&gt;&lt;b&gt;BlastP hit with MCIC6FC_007495&lt;/b&gt;&lt;br&gt;Percentage identity: 92&lt;br&gt;Percentage coverage: 16&lt;br&gt;BLAST bit score: 1393&lt;br&gt;E-value: 0.0" locus_tag="CPH89_RS26510" class="clusterblast-orf" id="dummy-2_h2_2_26"  />
</g>
<g id="a2_0027"  >
<polygon points="540,85 543,80 543,90 540,85 " style="fill:white; stroke-width:1; stroke:black; " description="&lt;b&gt;CPH89_RS26505&lt;/b&gt;&lt;br&gt;DUF2934 domain-containing protein&lt;br&gt;Location: 5738674 - 5738405" locus_tag="CPH89_RS26505" class="clusterblast-orf" id="dummy-2_h2_2_27"  />
</g>
</svg>
