<svg xmlns="http://www.w3.org/2000/svg" xmlns:xlink="http://www.w3.org/1999/xlink" version="1.1" x="0" y="0" height="230" width="800" viewBox="0 0 800 230" preserveAspectRatio="none"  >
<g label="Query sequence" class="clusterblast-cluster"  >
<text x="5" y="20" class="clusterblast-acc"  >
Query sequence</text>
<line x1="10" y1="35" x2="778.0" y2="35" style="stroke-width:1; stroke:grey; "  />
<polygon points="0,40 2,40 7,35 2,30 0,30 0,40 " style="fill:white; stroke-width:1; stroke:black; " description="&lt;b&gt;MCIC6FC_007710&lt;/b&gt;&lt;br&gt;hypothetical protein&lt;br&gt;Location: 1251208 - 1251795" locus_tag="MCIC6FC_007710" class="clusterblast-orf" id="dummy-5_q0_0_all"  />
<polygon points="13,35 18,30 22,30 22,40 18,40 13,35 " style="fill:white; stroke-width:1; stroke:black; " description="&lt;b&gt;MCIC6FC_007711&lt;/b&gt;&lt;br&gt;hypothetical protein&lt;br&gt;Location: 1252265 - 1252994" locus_tag="MCIC6FC_007711" class="clusterblast-orf" id="dummy-5_q1_0_all"  />
<polygon points="23,35 28,30 36,30 36,40 28,40 23,35 " style="fill:white; stroke-width:1; stroke:black; " description="&lt;b&gt;MCIC6FC_007712&lt;/b&gt;&lt;br&gt;hypothetical protein&lt;br&gt;Location: 1253061 - 1254061" locus_tag="MCIC6FC_007712" class="clusterblast-orf" id="dummy-5_q2_0_all"  />
<polygon points="36,35 41,30 84,30 84,40 41,40 36,35 " style="fill:white; stroke-width:1; stroke:black; " description="&lt;b&gt;MCIC6FC_007713&lt;/b&gt;&lt;br&gt;hypothetical protein&lt;br&gt;Location: 1254097 - 1257816" locus_tag="MCIC6FC_007713" class="clusterblast-orf" id="dummy-5_q3_0_all"  />
<polygon points="84,35 89,30 123,30 123,40 89,40 84,35 " style="fill:white; stroke-width:1; stroke:black; " description="&lt;b&gt;MCIC6FC_007714&lt;/b&gt;&lt;br&gt;hypothetical protein&lt;br&gt;Location: 1257838 - 1260920" locus_tag="MCIC6FC_007714" class="clusterblast-orf" id="dummy-5_q4_0_all"  />
<polygon points="126,40 133,40 138,35 133,30 126,30 126,40 " style="fill:white; stroke-width:1; stroke:black; " description="&lt;b&gt;MCIC6FC_007715&lt;/b&gt;&lt;br&gt;hypothetical protein&lt;br&gt;Location: 1261154 - 1262081" locus_tag="MCIC6FC_007715" class="clusterblast-orf" id="dummy-5_q5_0_all"  />
<polygon points="140,40 151,40 156,35 151,30 140,30 140,40 " style="fill:white; stroke-width:1; stroke:black; " description="&lt;b&gt;MCIC6FC_007716&lt;/b&gt;&lt;br&gt;hypothetical protein&lt;br&gt;Location: 1262205 - 1263495" locus_tag="MCIC6FC_007716" class="clusterblast-orf" id="dummy-5_q6_0_all"  />
<polygon points="157,40 179,40 184,35 179,30 157,30 157,40 " style="fill:white; stroke-width:1; stroke:black; " description="&lt;b&gt;MCIC6FC_007717&lt;/b&gt;&lt;br&gt;hypothetical protein&lt;br&gt;Location: 1263560 - 1265662" locus_tag="MCIC6FC_007717" class="clusterblast-orf" id="dummy-5_q7_0_all"  />
<polygon points="184,40 184,40 189,35 184,30 184,30 184,40 " style="fill:white; stroke-width:1; stroke:black; " description="&lt;b&gt;MCIC6FC_007718&lt;/b&gt;&lt;br&gt;hypothetical protein&lt;br&gt;Location: 1265670 - 1266063" locus_tag="MCIC6FC_007718" class="clusterblast-orf" id="dummy-5_q8_0_all"  />
<polygon points="190,35 195,30 229,30 229,40 195,40 190,35 " style="fill:#d81515; stroke-width:1; stroke:black; " description="&lt;b&gt;MCIC6FC_007719&lt;/b&gt;&lt;br&gt;hypothetical protein&lt;br&gt;Location: 1266108 - 1269198" locus_tag="MCIC6FC_007719" class="clusterblast-orf" id="dummy-5_q9_0_all"  />
<polygon points="234,40 240,40 245,35 240,30 234,30 234,40 " style="fill:white; stroke-width:1; stroke:black; " description="&lt;b&gt;MCIC6FC_007720&lt;/b&gt;&lt;br&gt;hypothetical protein&lt;br&gt;Location: 1269625 - 1270453" locus_tag="MCIC6FC_007720" class="clusterblast-orf" id="dummy-5_q10_0_all"  />
<polygon points="245,35 250,30 577,30 577,40 250,40 245,35 " style="fill:#77d815; stroke-width:1; stroke:black; " description="&lt;b&gt;MCIC6FC_007721&lt;/b&gt;&lt;br&gt;hypothetical protein&lt;br&gt;Location: 1270497 - 1296529" locus_tag="MCIC6FC_007721" class="clusterblast-orf" id="dummy-5_q11_0_all"  />
<polygon points="580,40 606,40 611,35 606,30 580,30 580,40 " style="fill:#15d8d8; stroke-width:1; stroke:black; " description="&lt;b&gt;MCIC6FC_007722&lt;/b&gt;&lt;br&gt;hypothetical protein&lt;br&gt;Location: 1296753 - 1299161" locus_tag="MCIC6FC_007722" class="clusterblast-orf" id="dummy-5_q12_0_all"  />
<polygon points="612,40 627,40 632,35 627,30 612,30 612,40 " style="fill:#7715d8; stroke-width:1; stroke:black; " description="&lt;b&gt;MCIC6FC_007723&lt;/b&gt;&lt;br&gt;hypothetical protein&lt;br&gt;Location: 1299241 - 1300860" locus_tag="MCIC6FC_007723" class="clusterblast-orf" id="dummy-5_q13_0_all"  />
<polygon points="633,40 713,40 718,35 713,30 633,30 633,40 " style="fill:#d8a715; stroke-width:1; stroke:black; " description="&lt;b&gt;MCIC6FC_007724&lt;/b&gt;&lt;br&gt;hypothetical protein&lt;br&gt;Location: 1300944 - 1307573" locus_tag="MCIC6FC_007724" class="clusterblast-orf" id="dummy-5_q14_0_all"  />
<polygon points="719,40 724,40 729,35 724,30 719,30 719,40 " style="fill:#15d846; stroke-width:1; stroke:black; " description="&lt;b&gt;MCIC6FC_007725&lt;/b&gt;&lt;br&gt;hypothetical protein&lt;br&gt;Location: 1307635 - 1308442" locus_tag="MCIC6FC_007725" class="clusterblast-orf" id="dummy-5_q15_0_all"  />
<polygon points="730,40 738,40 743,35 738,30 730,30 730,40 " style="fill:#1546d8; stroke-width:1; stroke:black; " description="&lt;b&gt;MCIC6FC_007726&lt;/b&gt;&lt;br&gt;hypothetical protein&lt;br&gt;Location: 1308493 - 1309537" locus_tag="MCIC6FC_007726" class="clusterblast-orf" id="dummy-5_q16_0_all"  />
<polygon points="743,40 775,40 780,35 775,30 743,30 743,40 " style="fill:#d815a7; stroke-width:1; stroke:black; " description="&lt;b&gt;MCIC6FC_007727&lt;/b&gt;&lt;br&gt;hypothetical protein&lt;br&gt;Location: 1309578 - 1312417" locus_tag="MCIC6FC_007727" class="clusterblast-orf" id="dummy-5_q17_0_all"  />
</g>
<g label="NZ_CP019428" description="NZ_CP019428 (3563563-3604450): Pseudomonas sp. R76 chromosome, complete genome (59% of genes show similarity), NRPS" class="clusterblast-cluster"  >
<text x="5" y="70" class="clusterblast-acc"  >
<a xlink:href="https://antismash-db.secondarymetabolites.org/area.html?record=NZ_CP019428&amp;start=3563563&amp;end=3604450" target="_blank">NZ_CP019428 (3563563-3604450)</a>: Pseudomonas sp. R76 chromosome, complete genome (59% of genes show similarity), NRPS</text>
<line x1="10" y1="85" x2="778.0" y2="85" style="stroke-width:1; stroke:grey; "  />
</g>
<g id="a5_000"  >
<polygon points="129,85 134,80 145,80 145,90 134,90 129,85 " style="fill:white; stroke-width:1; stroke:black; " description="&lt;b&gt;PspR76_RS16040&lt;/b&gt;&lt;br&gt;RhtX/FptX family siderophore transporter&lt;br&gt;Location: 3563564 - 3564790" locus_tag="PspR76_RS16040" class="clusterblast-orf" id="dummy-5_h5_7_0"  />
</g>
<g id="a5_001"  >
<polygon points="145,85 150,80 164,80 164,90 150,90 145,85 " style="fill:white; stroke-width:1; stroke:black; " description="&lt;b&gt;PspR76_RS16045&lt;/b&gt;&lt;br&gt;PepSY domain-containing protein&lt;br&gt;Location: 3564803 - 3566284" locus_tag="PspR76_RS16045" class="clusterblast-orf" id="dummy-5_h5_7_1"  />
</g>
<g id="a5_002"  >
<polygon points="164,85 167,80 167,90 164,85 " style="fill:white; stroke-width:1; stroke:black; " description="&lt;b&gt;PspR76_RS16050&lt;/b&gt;&lt;br&gt;hypothetical protein&lt;br&gt;Location: 3566281 - 3566562" locus_tag="PspR76_RS16050" class="clusterblast-orf" id="dummy-5_h5_7_2"  />
</g>
<g id="a5_003"  >
<polygon points="167,85 172,80 194,80 194,90 172,90 167,85 " style="fill:white; stroke-width:1; stroke:black; " description="&lt;b&gt;PspR76_RS16055&lt;/b&gt;&lt;br&gt;TonB-dependent siderophore receptor&lt;br&gt;Location: 3566562 - 3568637" locus_tag="PspR76_RS16055" class="clusterblast-orf" id="dummy-5_h5_7_3"  />
</g>
<g id="a5_004"  >
<polygon points="196,85 201,80 217,80 217,90 201,90 196,85 " style="fill:white; stroke-width:1; stroke:black; " description="&lt;b&gt;PspR76_RS16060&lt;/b&gt;&lt;br&gt;ATP-binding cassette domain-containing protein&lt;br&gt;Location: 3568803 - 3570488" locus_tag="PspR76_RS16060" class="clusterblast-orf" id="dummy-5_h5_7_4"  />
</g>
<g id="a5_005"  >
<polygon points="217,85 222,80 239,80 239,90 222,90 217,85 " style="fill:white; stroke-width:1; stroke:black; " description="&lt;b&gt;PspR76_RS16065&lt;/b&gt;&lt;br&gt;ATP-binding cassette domain-containing protein&lt;br&gt;Location: 3570485 - 3572206" locus_tag="PspR76_RS16065" class="clusterblast-orf" id="dummy-5_h5_7_5"  />
</g>
<g id="a5_006"  >
<polygon points="239,85 244,80 252,80 252,90 244,90 239,85 " style="fill:white; stroke-width:1; stroke:black; " description="&lt;b&gt;PspR76_RS16070&lt;/b&gt;&lt;br&gt;Gfo/Idh/MocA family oxidoreductase&lt;br&gt;Location: 3572203 - 3573252" locus_tag="PspR76_RS16070" class="clusterblast-orf" id="dummy-5_h5_7_6"  />
</g>
<g id="a5_007"  >
<polygon points="252,85 257,80 321,80 321,90 257,90 252,85 " style="fill:#77d815; stroke-width:1; stroke:black; " description="&lt;b&gt;PspR76_RS16075&lt;/b&gt;&lt;br&gt;amino acid adenylation domain-containing protein&lt;br&gt;Location: 3573249 - 3578603&lt;br&gt;&lt;br&gt;&lt;b&gt;BlastP hit with MCIC6FC_007721&lt;/b&gt;&lt;br&gt;Percentage identity: 90&lt;br&gt;Percentage coverage: 21&lt;br&gt;BLAST bit score: 3134&lt;br&gt;E-value: 0.0" locus_tag="PspR76_RS16075" class="clusterblast-orf" id="dummy-5_h5_7_7"  />
</g>
<g id="a5_008"  >
<polygon points="321,85 326,80 375,80 375,90 326,90 321,85 " style="fill:#77d815; stroke-width:1; stroke:black; " description="&lt;b&gt;PspR76_RS16080&lt;/b&gt;&lt;br&gt;amino acid adenylation domain-containing protein&lt;br&gt;Location: 3578600 - 3582868&lt;br&gt;&lt;br&gt;&lt;b&gt;BlastP hit with MCIC6FC_007721&lt;/b&gt;&lt;br&gt;Percentage identity: 85&lt;br&gt;Percentage coverage: 17&lt;br&gt;BLAST bit score: 2347&lt;br&gt;E-value: 0.0" locus_tag="PspR76_RS16080" class="clusterblast-orf" id="dummy-5_h5_7_8"  />
</g>
<g id="a5_009"  >
<polygon points="377,85 382,80 388,80 388,90 382,90 377,85 " style="fill:white; stroke-width:1; stroke:black; " description="&lt;b&gt;PspR76_RS16085&lt;/b&gt;&lt;br&gt;helix-turn-helix domain-containing protein&lt;br&gt;Location: 3583024 - 3583917" locus_tag="PspR76_RS16085" class="clusterblast-orf" id="dummy-5_h5_7_9"  />
</g>
<g id="a5_0010"  >
<polygon points="391,90 407,90 412,85 407,80 391,80 391,90 " style="fill:#15d8d8; stroke-width:1; stroke:black; " description="&lt;b&gt;PspR76_RS16090&lt;/b&gt;&lt;br&gt;AMP-binding protein&lt;br&gt;Location: 3584141 - 3585796&lt;br&gt;&lt;br&gt;&lt;b&gt;BlastP hit with MCIC6FC_007722&lt;/b&gt;&lt;br&gt;Percentage identity: 92&lt;br&gt;Percentage coverage: 71&lt;br&gt;BLAST bit score: 1032&lt;br&gt;E-value: 3e-299" locus_tag="PspR76_RS16090" class="clusterblast-orf" id="dummy-5_h5_7_10"  />
</g>
<g id="a5_0011"  >
<polygon points="413,90 417,90 422,85 417,80 413,80 413,90 " style="fill:#15d8d8; stroke-width:1; stroke:black; " description="&lt;b&gt;PspR76_RS16095&lt;/b&gt;&lt;br&gt;alpha/beta fold hydrolase&lt;br&gt;Location: 3585829 - 3586548&lt;br&gt;&lt;br&gt;&lt;b&gt;BlastP hit with MCIC6FC_007722&lt;/b&gt;&lt;br&gt;Percentage identity: 91&lt;br&gt;Percentage coverage: 29&lt;br&gt;BLAST bit score: 426&lt;br&gt;E-value: 4.4e-117" locus_tag="PspR76_RS16095" class="clusterblast-orf" id="dummy-5_h5_7_11"  />
</g>
<g id="a5_0012"  >
<polygon points="422,90 426,85 422,80 422,90 " style="fill:#7715d8; stroke-width:1; stroke:black; " description="&lt;b&gt;PspR76_RS16100&lt;/b&gt;&lt;br&gt;isochorismate lyase&lt;br&gt;Location: 3586548 - 3586853&lt;br&gt;&lt;br&gt;&lt;b&gt;BlastP hit with MCIC6FC_007723&lt;/b&gt;&lt;br&gt;Percentage identity: 97&lt;br&gt;Percentage coverage: 11&lt;br&gt;BLAST bit score: 111&lt;br&gt;E-value: 2.2e-22" locus_tag="PspR76_RS16100" class="clusterblast-orf" id="dummy-5_h5_7_12"  />
</g>
<g id="a5_0013"  >
<polygon points="426,90 439,90 444,85 439,80 426,80 426,90 " style="fill:#7715d8; stroke-width:1; stroke:black; " description="&lt;b&gt;PspR76_RS16105&lt;/b&gt;&lt;br&gt;isochorismate synthase&lt;br&gt;Location: 3586850 - 3588247&lt;br&gt;&lt;br&gt;&lt;b&gt;BlastP hit with MCIC6FC_007723&lt;/b&gt;&lt;br&gt;Percentage identity: 82&lt;br&gt;Percentage coverage: 87&lt;br&gt;BLAST bit score: 798&lt;br&gt;E-value: 3.8e-229" locus_tag="PspR76_RS16105" class="clusterblast-orf" id="dummy-5_h5_7_13"  />
</g>
<g id="a5_0014"  >
<polygon points="445,90 449,90 454,85 449,80 445,80 445,90 " style="fill:#d8a715; stroke-width:1; stroke:black; " description="&lt;b&gt;PspR76_RS16110&lt;/b&gt;&lt;br&gt;helix-turn-helix domain-containing protein&lt;br&gt;Location: 3588332 - 3589069&lt;br&gt;&lt;br&gt;&lt;b&gt;BlastP hit with MCIC6FC_007724&lt;/b&gt;&lt;br&gt;Percentage identity: 90&lt;br&gt;Percentage coverage: 12&lt;br&gt;BLAST bit score: 433&lt;br&gt;E-value: 1.6e-118" locus_tag="PspR76_RS16110" class="clusterblast-orf" id="dummy-5_h5_7_14"  />
</g>
<g id="a5_0015"  >
<polygon points="456,90 465,90 470,85 465,80 456,80 456,90 " style="fill:#d8a715; stroke-width:1; stroke:black; " description="&lt;b&gt;PspR76_RS16115&lt;/b&gt;&lt;br&gt;SDR family oxidoreductase&lt;br&gt;Location: 3589250 - 3590314&lt;br&gt;&lt;br&gt;&lt;b&gt;BlastP hit with MCIC6FC_007724&lt;/b&gt;&lt;br&gt;Percentage identity: 88&lt;br&gt;Percentage coverage: 16&lt;br&gt;BLAST bit score: 600&lt;br&gt;E-value: 7.8e-169" locus_tag="PspR76_RS16115" class="clusterblast-orf" id="dummy-5_h5_7_15"  />
</g>
<g id="a5_0016"  >
<polygon points="470,90 481,90 486,85 481,80 470,80 470,90 " style="fill:#d8a715; stroke-width:1; stroke:black; " description="&lt;b&gt;PspR76_RS16120&lt;/b&gt;&lt;br&gt;aminotransferase class III-fold pyridoxal phosphate-dependent enzyme&lt;br&gt;Location: 3590311 - 3591570&lt;br&gt;&lt;br&gt;&lt;b&gt;BlastP hit with MCIC6FC_007724&lt;/b&gt;&lt;br&gt;Percentage identity: 95&lt;br&gt;Percentage coverage: 20&lt;br&gt;BLAST bit score: 772&lt;br&gt;E-value: 8.8e-221" locus_tag="PspR76_RS16120" class="clusterblast-orf" id="dummy-5_h5_7_16"  />
</g>
<g id="a5_0017"  >
<polygon points="486,90 487,90 492,85 487,80 486,80 486,90 " style="fill:white; stroke-width:1; stroke:black; " description="&lt;b&gt;PspR76_RS16125&lt;/b&gt;&lt;br&gt;SRPBCC family protein&lt;br&gt;Location: 3591587 - 3592036" locus_tag="PspR76_RS16125" class="clusterblast-orf" id="dummy-5_h5_7_17"  />
</g>
<g id="a5_0018"  >
<polygon points="492,90 501,90 506,85 501,80 492,80 492,90 " style="fill:#d8a715; stroke-width:1; stroke:black; " description="&lt;b&gt;PspR76_RS16130&lt;/b&gt;&lt;br&gt;acyl-CoA dehydrogenase&lt;br&gt;Location: 3592033 - 3593175&lt;br&gt;&lt;br&gt;&lt;b&gt;BlastP hit with MCIC6FC_007724&lt;/b&gt;&lt;br&gt;Percentage identity: 90&lt;br&gt;Percentage coverage: 17&lt;br&gt;BLAST bit score: 595&lt;br&gt;E-value: 1.9e-167" locus_tag="PspR76_RS16130" class="clusterblast-orf" id="dummy-5_h5_7_18"  />
</g>
<g id="a5_0019"  >
<polygon points="506,90 512,90 517,85 512,80 506,80 506,90 " style="fill:#d8a715; stroke-width:1; stroke:black; " description="&lt;b&gt;PspR76_RS16135&lt;/b&gt;&lt;br&gt;SDR family NAD(P)-dependent oxidoreductase&lt;br&gt;Location: 3593172 - 3593999&lt;br&gt;&lt;br&gt;&lt;b&gt;BlastP hit with MCIC6FC_007724&lt;/b&gt;&lt;br&gt;Percentage identity: 94&lt;br&gt;Percentage coverage: 13&lt;br&gt;BLAST bit score: 497&lt;br&gt;E-value: 9.3e-138" locus_tag="PspR76_RS16135" class="clusterblast-orf" id="dummy-5_h5_7_19"  />
</g>
<g id="a5_0020"  >
<polygon points="517,90 524,90 529,85 524,80 517,80 517,90 " style="fill:#d8a715; stroke-width:1; stroke:black; " description="&lt;b&gt;PspR76_RS16140&lt;/b&gt;&lt;br&gt;fatty acid desaturase&lt;br&gt;Location: 3594010 - 3594963&lt;br&gt;&lt;br&gt;&lt;b&gt;BlastP hit with MCIC6FC_007724&lt;/b&gt;&lt;br&gt;Percentage identity: 83&lt;br&gt;Percentage coverage: 15&lt;br&gt;BLAST bit score: 524&lt;br&gt;E-value: 5.4e-146" locus_tag="PspR76_RS16140" class="clusterblast-orf" id="dummy-5_h5_7_20"  />
</g>
<g id="a5_0021"  >
<polygon points="530,90 535,90 540,85 535,80 530,80 530,90 " style="fill:#15d846; stroke-width:1; stroke:black; " description="&lt;b&gt;PspR76_RS16145&lt;/b&gt;&lt;br&gt;DUF3050 domain-containing protein&lt;br&gt;Location: 3595025 - 3595831&lt;br&gt;&lt;br&gt;&lt;b&gt;BlastP hit with MCIC6FC_007725&lt;/b&gt;&lt;br&gt;Percentage identity: 94&lt;br&gt;Percentage coverage: 100&lt;br&gt;BLAST bit score: 513&lt;br&gt;E-value: 1.2e-143" locus_tag="PspR76_RS16145" class="clusterblast-orf" id="dummy-5_h5_7_21"  />
</g>
<g id="a5_0022"  >
<polygon points="541,90 549,90 554,85 549,80 541,80 541,90 " style="fill:#1546d8; stroke-width:1; stroke:black; " description="&lt;b&gt;PspR76_RS16150&lt;/b&gt;&lt;br&gt;efflux RND transporter periplasmic adaptor subunit&lt;br&gt;Location: 3595859 - 3596926&lt;br&gt;&lt;br&gt;&lt;b&gt;BlastP hit with MCIC6FC_007726&lt;/b&gt;&lt;br&gt;Percentage identity: 96&lt;br&gt;Percentage coverage: 100&lt;br&gt;BLAST bit score: 601&lt;br&gt;E-value: 5.9e-170" locus_tag="PspR76_RS16150" class="clusterblast-orf" id="dummy-5_h5_7_22"  />
</g>
<g id="a5_0023"  >
<polygon points="554,90 568,90 573,85 568,80 554,80 554,90 " style="fill:#d815a7; stroke-width:1; stroke:black; " description="&lt;b&gt;PspR76_RS16155&lt;/b&gt;&lt;br&gt;DHA2 family efflux MFS transporter permease subunit&lt;br&gt;Location: 3596923 - 3598440&lt;br&gt;&lt;br&gt;&lt;b&gt;BlastP hit with MCIC6FC_007727&lt;/b&gt;&lt;br&gt;Percentage identity: 98&lt;br&gt;Percentage coverage: 52&lt;br&gt;BLAST bit score: 939&lt;br&gt;E-value: 3.2e-271" locus_tag="PspR76_RS16155" class="clusterblast-orf" id="dummy-5_h5_7_23"  />
</g>
<g id="a5_0024"  >
<polygon points="574,90 586,90 591,85 586,80 574,80 574,90 " style="fill:#d815a7; stroke-width:1; stroke:black; " description="&lt;b&gt;PspR76_RS16160&lt;/b&gt;&lt;br&gt;TolC family outer membrane protein&lt;br&gt;Location: 3598462 - 3599805&lt;br&gt;&lt;br&gt;&lt;b&gt;BlastP hit with MCIC6FC_007727&lt;/b&gt;&lt;br&gt;Percentage identity: 94&lt;br&gt;Percentage coverage: 48&lt;br&gt;BLAST bit score: 795&lt;br&gt;E-value: 4.3e-228" locus_tag="PspR76_RS16160" class="clusterblast-orf" id="dummy-5_h5_7_24"  />
</g>
<g id="a5_0025"  >
<polygon points="593,90 604,90 609,85 604,80 593,80 593,90 " style="fill:white; stroke-width:1; stroke:black; " description="&lt;b&gt;PspR76_RS16165&lt;/b&gt;&lt;br&gt;efflux RND transporter periplasmic adaptor subunit&lt;br&gt;Location: 3600014 - 3601255" locus_tag="PspR76_RS16165" class="clusterblast-orf" id="dummy-5_h5_7_25"  />
</g>
<g id="a5_0026"  >
<polygon points="609,90 645,90 650,85 645,80 609,80 609,90 " style="fill:white; stroke-width:1; stroke:black; " description="&lt;b&gt;PspR76_RS16170&lt;/b&gt;&lt;br&gt;multidrug efflux RND transporter permease subunit&lt;br&gt;Location: 3601271 - 3604450" locus_tag="PspR76_RS16170" class="clusterblast-orf" id="dummy-5_h5_7_26"  />
</g>
</svg>
