<svg xmlns="http://www.w3.org/2000/svg" xmlns:xlink="http://www.w3.org/1999/xlink" version="1.1" x="0" y="0" height="230" width="800" viewBox="0 0 800 230" preserveAspectRatio="none"  >
<g label="Query sequence" class="clusterblast-cluster"  >
<text x="5" y="20" class="clusterblast-acc"  >
Query sequence</text>
<line x1="10" y1="35" x2="778.0" y2="35" style="stroke-width:1; stroke:grey; "  />
<polygon points="228,35 233,30 412,30 412,40 233,40 228,35 " style="fill:#d81515; stroke-width:1; stroke:black; " description="&lt;b&gt;MCIC6FC_022098&lt;/b&gt;&lt;br&gt;hypothetical protein&lt;br&gt;Location: 905 - 6288" locus_tag="MCIC6FC_022098" class="clusterblast-orf" id="dummy-1_q0_0_all"  />
<polygon points="420,35 425,30 484,30 484,40 425,40 420,35 " style="fill:#15d8d8; stroke-width:1; stroke:black; " description="&lt;b&gt;MCIC6FC_022099&lt;/b&gt;&lt;br&gt;hypothetical protein&lt;br&gt;Location: 6504 - 8392" locus_tag="MCIC6FC_022099" class="clusterblast-orf" id="dummy-1_q1_0_all"  />
<polygon points="484,35 489,30 552,30 552,40 489,40 484,35 " style="fill:white; stroke-width:1; stroke:black; " description="&lt;b&gt;MCIC6FC_022100&lt;/b&gt;&lt;br&gt;hypothetical protein&lt;br&gt;Location: 8394 - 10360" locus_tag="MCIC6FC_022100" class="clusterblast-orf" id="dummy-1_q2_0_all"  />
</g>
<g label="NZ_CP026378" description="NZ_CP026378 (657188-680781): Mixta calida strain DSM 22759 chromosome, comple... (27% of genes show similarity), terpene" class="clusterblast-cluster"  >
<text x="5" y="70" class="clusterblast-acc"  >
<a xlink:href="https://antismash-db.secondarymetabolites.org/area.html?record=NZ_CP026378&amp;start=657188&amp;end=680781" target="_blank">NZ_CP026378 (657188-680781)</a>: Mixta calida strain DSM 22759 chromosome, comple... (27% of genes show similarity), terpene</text>
<line x1="10" y1="85" x2="778.0" y2="85" style="stroke-width:1; stroke:grey; "  />
</g>
<g id="a1_000"  >
<polygon points="0,85 5,80 103,80 103,90 5,90 0,85 " style="fill:white; stroke-width:1; stroke:black; " description="&lt;b&gt;C2E16_RS03225&lt;/b&gt;&lt;br&gt;autotransporter serine protease&lt;br&gt;Location: 680345 - 677313" locus_tag="C2E16_RS03225" class="clusterblast-orf" id="dummy-1_h1_7_0"  />
</g>
<g id="a1_001"  >
<polygon points="126,85 131,80 175,80 175,90 131,90 126,85 " style="fill:white; stroke-width:1; stroke:black; " description="&lt;b&gt;C2E16_RS03220&lt;/b&gt;&lt;br&gt;6-phospho-beta-glucosidase&lt;br&gt;Location: 676658 - 675231" locus_tag="C2E16_RS03220" class="clusterblast-orf" id="dummy-1_h1_7_1"  />
</g>
<g id="a1_002"  >
<polygon points="175,85 180,80 225,80 225,90 180,90 175,85 " style="fill:white; stroke-width:1; stroke:black; " description="&lt;b&gt;C2E16_RS03215&lt;/b&gt;&lt;br&gt;PTS cellobiose/arbutin/salicin transporter subunit IIBC&lt;br&gt;Location: 675218 - 673759" locus_tag="C2E16_RS03215" class="clusterblast-orf" id="dummy-1_h1_7_2"  />
</g>
<g id="a1_003"  >
<polygon points="270,90 300,90 305,85 300,80 270,80 270,90 " style="fill:white; stroke-width:1; stroke:black; " description="&lt;b&gt;C2E16_RS03210&lt;/b&gt;&lt;br&gt;LacI family DNA-binding transcriptional regulator&lt;br&gt;Location: 672441 - 671431" locus_tag="C2E16_RS03210" class="clusterblast-orf" id="dummy-1_h1_7_3"  />
</g>
<g id="a1_004"  >
<polygon points="311,90 325,90 330,85 325,80 311,80 311,90 " style="fill:white; stroke-width:1; stroke:black; " description="&lt;b&gt;C2E16_RS03205&lt;/b&gt;&lt;br&gt;sterol desaturase family protein&lt;br&gt;Location: 671268 - 670699" locus_tag="C2E16_RS03205" class="clusterblast-orf" id="dummy-1_h1_7_4"  />
</g>
<g id="a1_005"  >
<polygon points="327,85 332,80 360,80 360,90 332,90 327,85 " style="fill:white; stroke-width:1; stroke:black; " description="&lt;b&gt;C2E16_RS03200&lt;/b&gt;&lt;br&gt;phytoene/squalene synthase family protein&lt;br&gt;Location: 670781 - 669835" locus_tag="C2E16_RS03200" class="clusterblast-orf" id="dummy-1_h1_7_5"  />
</g>
<g id="a1_006"  >
<polygon points="360,85 365,80 410,80 410,90 365,90 360,85 " style="fill:#d81515; stroke-width:1; stroke:black; " description="&lt;b&gt;C2E16_RS03195&lt;/b&gt;&lt;br&gt;phytoene desaturase&lt;br&gt;Location: 669838 - 668357&lt;br&gt;&lt;br&gt;&lt;b&gt;BlastP hit with MCIC6FC_022098&lt;/b&gt;&lt;br&gt;Percentage identity: 68&lt;br&gt;Percentage coverage: 17&lt;br&gt;BLAST bit score: 265&lt;br&gt;E-value: 2.5e-68" locus_tag="C2E16_RS03195" class="clusterblast-orf" id="dummy-1_h1_7_6"  />
</g>
<g id="a1_007"  >
<polygon points="410,85 415,80 450,80 450,90 415,90 410,85 " style="fill:#d81515; stroke-width:1; stroke:black; " description="&lt;b&gt;C2E16_RS03190&lt;/b&gt;&lt;br&gt;lycopene beta-cyclase CrtY&lt;br&gt;Location: 668364 - 667189&lt;br&gt;&lt;br&gt;&lt;b&gt;BlastP hit with MCIC6FC_022098&lt;/b&gt;&lt;br&gt;Percentage identity: 52&lt;br&gt;Percentage coverage: 24&lt;br&gt;BLAST bit score: 275&lt;br&gt;E-value: 3.2e-71" locus_tag="C2E16_RS03190" class="clusterblast-orf" id="dummy-1_h1_7_7"  />
</g>
<g id="a1_008"  >
<polygon points="450,85 455,80 494,80 494,90 455,90 450,85 " style="fill:#d81515; stroke-width:1; stroke:black; " description="&lt;b&gt;C2E16_RS03185&lt;/b&gt;&lt;br&gt;glycosyltransferase family 1 protein&lt;br&gt;Location: 667192 - 665927&lt;br&gt;&lt;br&gt;&lt;b&gt;BlastP hit with MCIC6FC_022098&lt;/b&gt;&lt;br&gt;Percentage identity: 54&lt;br&gt;Percentage coverage: 37&lt;br&gt;BLAST bit score: 450&lt;br&gt;E-value: 5.6e-124" locus_tag="C2E16_RS03185" class="clusterblast-orf" id="dummy-1_h1_7_8"  />
</g>
<g id="a1_009"  >
<polygon points="494,85 499,80 529,80 529,90 499,90 494,85 " style="fill:white; stroke-width:1; stroke:black; " description="&lt;b&gt;C2E16_RS03180&lt;/b&gt;&lt;br&gt;type 2 isopentenyl-diphosphate Delta-isomerase&lt;br&gt;Location: 665930 - 664887" locus_tag="C2E16_RS03180" class="clusterblast-orf" id="dummy-1_h1_7_9"  />
</g>
<g id="a1_0010"  >
<polygon points="531,85 536,80 562,80 562,90 536,90 531,85 " style="fill:#d81515; stroke-width:1; stroke:black; " description="&lt;b&gt;C2E16_RS03175&lt;/b&gt;&lt;br&gt;polyprenyl synthetase family protein&lt;br&gt;Location: 664843 - 663938&lt;br&gt;&lt;br&gt;&lt;b&gt;BlastP hit with MCIC6FC_022098&lt;/b&gt;&lt;br&gt;Percentage identity: 64&lt;br&gt;Percentage coverage: 19&lt;br&gt;BLAST bit score: 258&lt;br&gt;E-value: 4.1e-66" locus_tag="C2E16_RS03175" class="clusterblast-orf" id="dummy-1_h1_7_10"  />
</g>
<g id="a1_0011"  >
<polygon points="570,85 575,80 589,80 589,90 575,90 570,85 " style="fill:#15d8d8; stroke-width:1; stroke:black; " description="&lt;b&gt;C2E16_RS03170&lt;/b&gt;&lt;br&gt;YtfJ family protein&lt;br&gt;Location: 663699 - 663145&lt;br&gt;&lt;br&gt;&lt;b&gt;BlastP hit with MCIC6FC_022099&lt;/b&gt;&lt;br&gt;Percentage identity: 49&lt;br&gt;Percentage coverage: 35&lt;br&gt;BLAST bit score: 160&lt;br&gt;E-value: 3.8e-37" locus_tag="C2E16_RS03170" class="clusterblast-orf" id="dummy-1_h1_7_11"  />
</g>
<g id="a1_0012"  >
<polygon points="596,85 601,80 610,80 610,90 601,90 596,85 " style="fill:white; stroke-width:1; stroke:black; " description="&lt;b&gt;C2E16_RS03165&lt;/b&gt;&lt;br&gt;hypothetical protein&lt;br&gt;Location: 662950 - 662528" locus_tag="C2E16_RS03165" class="clusterblast-orf" id="dummy-1_h1_7_12"  />
</g>
<g id="a1_0013"  >
<polygon points="619,90 649,90 654,85 649,80 619,80 619,90 " style="fill:white; stroke-width:1; stroke:black; " description="&lt;b&gt;C2E16_RS03160&lt;/b&gt;&lt;br&gt;HNH endonuclease&lt;br&gt;Location: 662277 - 661264" locus_tag="C2E16_RS03160" class="clusterblast-orf" id="dummy-1_h1_7_13"  />
</g>
<g id="a1_0014"  >
<polygon points="654,90 668,90 673,85 668,80 654,80 654,90 " style="fill:white; stroke-width:1; stroke:black; " description="&lt;b&gt;C2E16_RS03155&lt;/b&gt;&lt;br&gt;class I SAM-dependent methyltransferase&lt;br&gt;Location: 661264 - 660686" locus_tag="C2E16_RS03155" class="clusterblast-orf" id="dummy-1_h1_7_14"  />
</g>
<g id="a1_0015"  >
<polygon points="677,90 695,90 700,85 695,80 677,80 677,90 " style="fill:white; stroke-width:1; stroke:black; " description="&lt;b&gt;C2E16_RS03150&lt;/b&gt;&lt;br&gt;YecA family protein&lt;br&gt;Location: 660586 - 659918" locus_tag="C2E16_RS03150" class="clusterblast-orf" id="dummy-1_h1_7_15"  />
</g>
<g id="a1_0016"  >
<polygon points="703,85 708,80 762,80 762,90 708,90 703,85 " style="fill:white; stroke-width:1; stroke:black; " description="&lt;b&gt;C2E16_RS03145&lt;/b&gt;&lt;br&gt;DUF4153 domain-containing protein&lt;br&gt;Location: 659831 - 658113" locus_tag="C2E16_RS03145" class="clusterblast-orf" id="dummy-1_h1_7_16"  />
</g>
<g id="a1_0017"  >
<polygon points="769,85 774,80 780,80 780,90 774,90 769,85 " style="fill:white; stroke-width:1; stroke:black; " description="&lt;b&gt;C2E16_RS03140&lt;/b&gt;&lt;br&gt;hypothetical protein&lt;br&gt;Location: 657890 - 657591" locus_tag="C2E16_RS03140" class="clusterblast-orf" id="dummy-1_h1_7_17"  />
</g>
</svg>
