<svg xmlns="http://www.w3.org/2000/svg" xmlns:xlink="http://www.w3.org/1999/xlink" version="1.1" x="0" y="0" height="230" width="800" viewBox="0 0 800 230" preserveAspectRatio="none"  >
<g label="Query sequence" class="clusterblast-cluster"  >
<text x="5" y="20" class="clusterblast-acc"  >
Query sequence</text>
<line x1="10" y1="35" x2="778.0" y2="35" style="stroke-width:1; stroke:grey; "  />
<polygon points="0,35 5,30 23,30 23,40 5,40 0,35 " style="fill:white; stroke-width:1; stroke:black; " description="&lt;b&gt;MCIC6FC_007469&lt;/b&gt;&lt;br&gt;hypothetical protein&lt;br&gt;Location: 672575 - 674644" locus_tag="MCIC6FC_007469" class="clusterblast-orf" id="dummy-2_q0_0_all"  />
<polygon points="24,40 30,40 35,35 30,30 24,30 24,40 " style="fill:white; stroke-width:1; stroke:black; " description="&lt;b&gt;MCIC6FC_007470&lt;/b&gt;&lt;br&gt;hypothetical protein&lt;br&gt;Location: 674727 - 675636" locus_tag="MCIC6FC_007470" class="clusterblast-orf" id="dummy-2_q1_0_all"  />
<polygon points="35,35 40,30 61,30 61,40 40,40 35,35 " style="fill:#d81515; stroke-width:1; stroke:black; " description="&lt;b&gt;MCIC6FC_007471&lt;/b&gt;&lt;br&gt;hypothetical protein&lt;br&gt;Location: 675666 - 677901" locus_tag="MCIC6FC_007471" class="clusterblast-orf" id="dummy-2_q2_0_all"  />
<polygon points="63,40 84,40 89,35 84,30 63,30 63,40 " style="fill:#6ad815; stroke-width:1; stroke:black; " description="&lt;b&gt;MCIC6FC_007472&lt;/b&gt;&lt;br&gt;hypothetical protein&lt;br&gt;Location: 678045 - 680361" locus_tag="MCIC6FC_007472" class="clusterblast-orf" id="dummy-2_q3_0_all"  />
<polygon points="92,35 97,30 123,30 123,40 97,40 92,35 " style="fill:#15bfd8; stroke-width:1; stroke:black; " description="&lt;b&gt;MCIC6FC_007473&lt;/b&gt;&lt;br&gt;hypothetical protein&lt;br&gt;Location: 680593 - 683317" locus_tag="MCIC6FC_007473" class="clusterblast-orf" id="dummy-2_q4_0_all"  />
<polygon points="125,40 137,40 142,35 137,30 125,30 125,40 " style="fill:#9d15d8; stroke-width:1; stroke:black; " description="&lt;b&gt;MCIC6FC_007474&lt;/b&gt;&lt;br&gt;hypothetical protein&lt;br&gt;Location: 683450 - 684953" locus_tag="MCIC6FC_007474" class="clusterblast-orf" id="dummy-2_q5_0_all"  />
<polygon points="142,35 147,30 151,30 151,40 147,40 142,35 " style="fill:#d84815; stroke-width:1; stroke:black; " description="&lt;b&gt;MCIC6FC_007475&lt;/b&gt;&lt;br&gt;hypothetical protein&lt;br&gt;Location: 684963 - 685723" locus_tag="MCIC6FC_007475" class="clusterblast-orf" id="dummy-2_q6_0_all"  />
<polygon points="152,40 157,40 162,35 157,30 152,30 152,40 " style="fill:#37d815; stroke-width:1; stroke:black; " description="&lt;b&gt;MCIC6FC_007476&lt;/b&gt;&lt;br&gt;hypothetical protein&lt;br&gt;Location: 685781 - 686674" locus_tag="MCIC6FC_007476" class="clusterblast-orf" id="dummy-2_q7_0_all"  />
<polygon points="162,35 167,30 172,30 172,40 167,40 162,35 " style="fill:#158cd8; stroke-width:1; stroke:black; " description="&lt;b&gt;MCIC6FC_007477&lt;/b&gt;&lt;br&gt;hypothetical protein&lt;br&gt;Location: 686682 - 687549" locus_tag="MCIC6FC_007477" class="clusterblast-orf" id="dummy-2_q8_0_all"  />
<polygon points="173,40 181,40 186,35 181,30 173,30 173,40 " style="fill:#d015d8; stroke-width:1; stroke:black; " description="&lt;b&gt;MCIC6FC_007478&lt;/b&gt;&lt;br&gt;hypothetical protein&lt;br&gt;Location: 687621 - 688727" locus_tag="MCIC6FC_007478" class="clusterblast-orf" id="dummy-2_q9_0_all"  />
<polygon points="186,35 191,30 192,30 192,40 191,40 186,35 " style="fill:#d87b15; stroke-width:1; stroke:black; " description="&lt;b&gt;MCIC6FC_007479&lt;/b&gt;&lt;br&gt;hypothetical protein&lt;br&gt;Location: 688781 - 689242" locus_tag="MCIC6FC_007479" class="clusterblast-orf" id="dummy-2_q10_0_all"  />
<polygon points="197,35 202,30 212,30 212,40 202,40 197,35 " style="fill:#15d826; stroke-width:1; stroke:black; " description="&lt;b&gt;MCIC6FC_007480&lt;/b&gt;&lt;br&gt;hypothetical protein&lt;br&gt;Location: 689670 - 690984" locus_tag="MCIC6FC_007480" class="clusterblast-orf" id="dummy-2_q11_0_all"  />
<polygon points="215,35 220,30 225,30 225,40 220,40 215,35 " style="fill:#1559d8; stroke-width:1; stroke:black; " description="&lt;b&gt;MCIC6FC_007481&lt;/b&gt;&lt;br&gt;hypothetical protein&lt;br&gt;Location: 691289 - 692105" locus_tag="MCIC6FC_007481" class="clusterblast-orf" id="dummy-2_q12_0_all"  />
<polygon points="225,35 230,30 232,30 232,40 230,40 225,35 " style="fill:#d015d8; stroke-width:1; stroke:black; " description="&lt;b&gt;MCIC6FC_007482&lt;/b&gt;&lt;br&gt;hypothetical protein&lt;br&gt;Location: 692133 - 692766" locus_tag="MCIC6FC_007482" class="clusterblast-orf" id="dummy-2_q13_0_all"  />
<polygon points="234,40 260,40 265,35 260,30 234,30 234,40 " style="fill:#d815ae; stroke-width:1; stroke:black; " description="&lt;b&gt;MCIC6FC_007483&lt;/b&gt;&lt;br&gt;hypothetical protein&lt;br&gt;Location: 692877 - 695575" locus_tag="MCIC6FC_007483" class="clusterblast-orf" id="dummy-2_q14_0_all"  />
<polygon points="265,35 270,30 272,30 272,40 270,40 265,35 " style="fill:#d8ae15; stroke-width:1; stroke:black; " description="&lt;b&gt;MCIC6FC_007484&lt;/b&gt;&lt;br&gt;hypothetical protein&lt;br&gt;Location: 695586 - 696207" locus_tag="MCIC6FC_007484" class="clusterblast-orf" id="dummy-2_q15_0_all"  />
<polygon points="275,40 340,40 345,35 340,30 275,30 275,40 " style="fill:#15d859; stroke-width:1; stroke:black; " description="&lt;b&gt;MCIC6FC_007485&lt;/b&gt;&lt;br&gt;hypothetical protein&lt;br&gt;Location: 696508 - 702544" locus_tag="MCIC6FC_007485" class="clusterblast-orf" id="dummy-2_q16_0_all"  />
<polygon points="346,35 351,30 376,30 376,40 351,40 346,35 " style="fill:#1526d8; stroke-width:1; stroke:black; " description="&lt;b&gt;MCIC6FC_007486&lt;/b&gt;&lt;br&gt;hypothetical protein&lt;br&gt;Location: 702671 - 705211" locus_tag="MCIC6FC_007486" class="clusterblast-orf" id="dummy-2_q17_0_all"  />
<polygon points="377,35 382,30 387,30 387,40 382,40 377,35 " style="fill:#d8157b; stroke-width:1; stroke:black; " description="&lt;b&gt;MCIC6FC_007487&lt;/b&gt;&lt;br&gt;hypothetical protein&lt;br&gt;Location: 705352 - 706216" locus_tag="MCIC6FC_007487" class="clusterblast-orf" id="dummy-2_q18_0_all"  />
<polygon points="391,35 396,30 416,30 416,40 396,40 391,35 " style="fill:#d0d815; stroke-width:1; stroke:black; " description="&lt;b&gt;MCIC6FC_007488&lt;/b&gt;&lt;br&gt;hypothetical protein&lt;br&gt;Location: 706499 - 708736" locus_tag="MCIC6FC_007488" class="clusterblast-orf" id="dummy-2_q19_0_all"  />
<polygon points="418,35 423,30 457,30 457,40 423,40 418,35 " style="fill:#15d88c; stroke-width:1; stroke:black; " description="&lt;b&gt;MCIC6FC_007489&lt;/b&gt;&lt;br&gt;hypothetical protein&lt;br&gt;Location: 708846 - 712262" locus_tag="MCIC6FC_007489" class="clusterblast-orf" id="dummy-2_q20_0_all"  />
<polygon points="458,40 462,40 467,35 462,30 458,30 458,40 " style="fill:#3715d8; stroke-width:1; stroke:black; " description="&lt;b&gt;MCIC6FC_007490&lt;/b&gt;&lt;br&gt;hypothetical protein&lt;br&gt;Location: 712372 - 713153" locus_tag="MCIC6FC_007490" class="clusterblast-orf" id="dummy-2_q21_0_all"  />
<polygon points="469,40 512,40 517,35 512,30 469,30 469,40 " style="fill:#d81548; stroke-width:1; stroke:black; " description="&lt;b&gt;MCIC6FC_007491&lt;/b&gt;&lt;br&gt;hypothetical protein&lt;br&gt;Location: 713274 - 717451" locus_tag="MCIC6FC_007491" class="clusterblast-orf" id="dummy-2_q22_0_all"  />
<polygon points="517,35 522,30 534,30 534,40 522,40 517,35 " style="fill:#15bfd8; stroke-width:1; stroke:black; " description="&lt;b&gt;MCIC6FC_007492&lt;/b&gt;&lt;br&gt;hypothetical protein&lt;br&gt;Location: 717453 - 718988" locus_tag="MCIC6FC_007492" class="clusterblast-orf" id="dummy-2_q23_0_all"  />
<polygon points="536,35 541,30 566,30 566,40 541,40 536,35 " style="fill:#9dd815; stroke-width:1; stroke:black; " description="&lt;b&gt;MCIC6FC_007493&lt;/b&gt;&lt;br&gt;hypothetical protein&lt;br&gt;Location: 719128 - 721732" locus_tag="MCIC6FC_007493" class="clusterblast-orf" id="dummy-2_q24_0_all"  />
<polygon points="568,35 573,30 592,30 592,40 573,40 568,35 " style="fill:#15d8bf; stroke-width:1; stroke:black; " description="&lt;b&gt;MCIC6FC_007494&lt;/b&gt;&lt;br&gt;hypothetical protein&lt;br&gt;Location: 721903 - 723972" locus_tag="MCIC6FC_007494" class="clusterblast-orf" id="dummy-2_q25_0_all"  />
<polygon points="592,35 597,30 751,30 751,40 597,40 592,35 " style="fill:#6a15d8; stroke-width:1; stroke:black; " description="&lt;b&gt;MCIC6FC_007495&lt;/b&gt;&lt;br&gt;hypothetical protein&lt;br&gt;Location: 724015 - 737775" locus_tag="MCIC6FC_007495" class="clusterblast-orf" id="dummy-2_q26_0_all"  />
<polygon points="757,35 762,30 768,30 768,40 762,40 757,35 " style="fill:white; stroke-width:1; stroke:black; " description="&lt;b&gt;MCIC6FC_007496&lt;/b&gt;&lt;br&gt;hypothetical protein&lt;br&gt;Location: 738268 - 739222" locus_tag="MCIC6FC_007496" class="clusterblast-orf" id="dummy-2_q27_0_all"  />
<polygon points="768,35 773,30 780,30 780,40 773,40 768,35 " style="fill:white; stroke-width:1; stroke:black; " description="&lt;b&gt;MCIC6FC_007497&lt;/b&gt;&lt;br&gt;hypothetical protein&lt;br&gt;Location: 739248 - 740262" locus_tag="MCIC6FC_007497" class="clusterblast-orf" id="dummy-2_q28_0_all"  />
</g>
<g label="NZ_CP015600" description="NZ_CP015600 (3439647-3467711): Pseudomonas antarctica strain PAMC 27494 chrom... (78% of genes show similarity), thiopeptide" class="clusterblast-cluster"  >
<text x="5" y="70" class="clusterblast-acc"  >
<a xlink:href="https://antismash-db.secondarymetabolites.org/area.html?record=NZ_CP015600&amp;start=3439647&amp;end=3467711" target="_blank">NZ_CP015600 (3439647-3467711)</a>: Pseudomonas antarctica strain PAMC 27494 chrom... (78% of genes show similarity), thiopeptide</text>
<line x1="10" y1="85" x2="778.0" y2="85" style="stroke-width:1; stroke:grey; "  />
</g>
<g id="a2_000"  >
<polygon points="238,90 241,90 246,85 241,80 238,80 238,90 " style="fill:#6ad815; stroke-width:1; stroke:black; " description="&lt;b&gt;A7J50_RS15660&lt;/b&gt;&lt;br&gt;nucleotidyltransferase domain-containing protein&lt;br&gt;Location: 3467470 - 3466700&lt;br&gt;&lt;br&gt;&lt;b&gt;BlastP hit with MCIC6FC_007472&lt;/b&gt;&lt;br&gt;Percentage identity: 74&lt;br&gt;Percentage coverage: 34&lt;br&gt;BLAST bit score: 383&lt;br&gt;E-value: 5.4e-104" locus_tag="A7J50_RS15660" class="clusterblast-orf" id="dummy-2_h2_1_0"  />
</g>
<g id="a2_001"  >
<polygon points="247,85 252,80 270,80 270,90 252,90 247,85 " style="fill:#15bfd8; stroke-width:1; stroke:black; " description="&lt;b&gt;A7J50_RS15655&lt;/b&gt;&lt;br&gt;methyl-accepting chemotaxis protein&lt;br&gt;Location: 3466620 - 3464680&lt;br&gt;&lt;br&gt;&lt;b&gt;BlastP hit with MCIC6FC_007473&lt;/b&gt;&lt;br&gt;Percentage identity: 95&lt;br&gt;Percentage coverage: 81&lt;br&gt;BLAST bit score: 1152&lt;br&gt;E-value: 0.0&lt;br&gt;&lt;br&gt;&lt;b&gt;BlastP hit with MCIC6FC_007492&lt;/b&gt;&lt;br&gt;Percentage identity: 41&lt;br&gt;Percentage coverage: 29&lt;br&gt;BLAST bit score: 82&lt;br&gt;E-value: 1.3e-13" locus_tag="A7J50_RS15655" class="clusterblast-orf" id="dummy-2_h2_1_1"  />
</g>
<g id="a2_002"  >
<polygon points="273,90 273,90 278,85 273,80 273,80 273,90 " style="fill:#37d815; stroke-width:1; stroke:black; " description="&lt;b&gt;A7J50_RS15650&lt;/b&gt;&lt;br&gt;hypothetical protein&lt;br&gt;Location: 3464376 - 3463948&lt;br&gt;&lt;br&gt;&lt;b&gt;BlastP hit with MCIC6FC_007476&lt;/b&gt;&lt;br&gt;Percentage identity: 84&lt;br&gt;Percentage coverage: 29&lt;br&gt;BLAST bit score: 142&lt;br&gt;E-value: 6.1e-32" locus_tag="A7J50_RS15650" class="clusterblast-orf" id="dummy-2_h2_1_2"  />
</g>
<g id="a2_003"  >
<polygon points="278,90 279,90 284,85 279,80 278,80 278,90 " style="fill:#37d815; stroke-width:1; stroke:black; " description="&lt;b&gt;A7J50_RS15645&lt;/b&gt;&lt;br&gt;VOC family protein&lt;br&gt;Location: 3463927 - 3463472&lt;br&gt;&lt;br&gt;&lt;b&gt;BlastP hit with MCIC6FC_007476&lt;/b&gt;&lt;br&gt;Percentage identity: 77&lt;br&gt;Percentage coverage: 52&lt;br&gt;BLAST bit score: 236&lt;br&gt;E-value: 3.1e-60" locus_tag="A7J50_RS15645" class="clusterblast-orf" id="dummy-2_h2_1_3"  />
</g>
<g id="a2_004"  >
<polygon points="284,90 284,90 289,85 284,80 284,80 284,90 " style="fill:#d015d8; stroke-width:1; stroke:black; " description="&lt;b&gt;A7J50_RS15640&lt;/b&gt;&lt;br&gt;NUDIX domain-containing protein&lt;br&gt;Location: 3463479 - 3463030&lt;br&gt;&lt;br&gt;&lt;b&gt;BlastP hit with MCIC6FC_007478&lt;/b&gt;&lt;br&gt;Percentage identity: 79&lt;br&gt;Percentage coverage: 41&lt;br&gt;BLAST bit score: 239&lt;br&gt;E-value: 4.6e-61" locus_tag="A7J50_RS15640" class="clusterblast-orf" id="dummy-2_h2_1_4"  />
</g>
<g id="a2_005"  >
<polygon points="289,85 294,80 296,80 296,90 294,90 289,85 " style="fill:#d87b15; stroke-width:1; stroke:black; " description="&lt;b&gt;A7J50_RS15635&lt;/b&gt;&lt;br&gt;cysteine hydrolase&lt;br&gt;Location: 3462986 - 3462408&lt;br&gt;&lt;br&gt;&lt;b&gt;BlastP hit with MCIC6FC_007479&lt;/b&gt;&lt;br&gt;Percentage identity: 82&lt;br&gt;Percentage coverage: 100&lt;br&gt;BLAST bit score: 216&lt;br&gt;E-value: 1.4e-54" locus_tag="A7J50_RS15635" class="clusterblast-orf" id="dummy-2_h2_1_5"  />
</g>
<g id="a2_006"  >
<polygon points="297,85 302,80 312,80 312,90 302,90 297,85 " style="fill:#15d826; stroke-width:1; stroke:black; " description="&lt;b&gt;A7J50_RS15630&lt;/b&gt;&lt;br&gt;FAD-binding oxidoreductase&lt;br&gt;Location: 3462338 - 3461025&lt;br&gt;&lt;br&gt;&lt;b&gt;BlastP hit with MCIC6FC_007480&lt;/b&gt;&lt;br&gt;Percentage identity: 92&lt;br&gt;Percentage coverage: 100&lt;br&gt;BLAST bit score: 830&lt;br&gt;E-value: 9.8e-239" locus_tag="A7J50_RS15630" class="clusterblast-orf" id="dummy-2_h2_1_6"  />
</g>
<g id="a2_007"  >
<polygon points="312,85 314,80 314,90 312,85 " style="fill:white; stroke-width:1; stroke:black; " description="&lt;b&gt;A7J50_RS31655&lt;/b&gt;&lt;br&gt;hypothetical protein&lt;br&gt;Location: 3460974 - 3460819" locus_tag="A7J50_RS31655" class="clusterblast-orf" id="dummy-2_h2_1_7"  />
</g>
<g id="a2_008"  >
<polygon points="315,85 320,80 325,80 325,90 320,90 315,85 " style="fill:#1559d8; stroke-width:1; stroke:black; " description="&lt;b&gt;A7J50_RS15625&lt;/b&gt;&lt;br&gt;Suppressor of fused protein (SUFU)&lt;br&gt;Location: 3460717 - 3459911&lt;br&gt;&lt;br&gt;&lt;b&gt;BlastP hit with MCIC6FC_007481&lt;/b&gt;&lt;br&gt;Percentage identity: 85&lt;br&gt;Percentage coverage: 100&lt;br&gt;BLAST bit score: 461&lt;br&gt;E-value: 5.7e-128" locus_tag="A7J50_RS15625" class="clusterblast-orf" id="dummy-2_h2_1_8"  />
</g>
<g id="a2_009"  >
<polygon points="325,85 330,80 332,80 332,90 330,90 325,85 " style="fill:#d015d8; stroke-width:1; stroke:black; " description="&lt;b&gt;A7J50_RS15620&lt;/b&gt;&lt;br&gt;TetR/AcrR family transcriptional regulator&lt;br&gt;Location: 3459882 - 3459250&lt;br&gt;&lt;br&gt;&lt;b&gt;BlastP hit with MCIC6FC_007478&lt;/b&gt;&lt;br&gt;Percentage identity: 53&lt;br&gt;Percentage coverage: 17&lt;br&gt;BLAST bit score: 64&lt;br&gt;E-value: 3.5e-08&lt;br&gt;&lt;br&gt;&lt;b&gt;BlastP hit with MCIC6FC_007482&lt;/b&gt;&lt;br&gt;Percentage identity: 90&lt;br&gt;Percentage coverage: 100&lt;br&gt;BLAST bit score: 358&lt;br&gt;E-value: 6.8e-97" locus_tag="A7J50_RS15620" class="clusterblast-orf" id="dummy-2_h2_1_9"  />
</g>
<g id="a2_0010"  >
<polygon points="334,90 336,90 341,85 336,80 334,80 334,90 " style="fill:#d815ae; stroke-width:1; stroke:black; " description="&lt;b&gt;A7J50_RS15615&lt;/b&gt;&lt;br&gt;methyltransferase&lt;br&gt;Location: 3459138 - 3458482&lt;br&gt;&lt;br&gt;&lt;b&gt;BlastP hit with MCIC6FC_007483&lt;/b&gt;&lt;br&gt;Percentage identity: 89&lt;br&gt;Percentage coverage: 24&lt;br&gt;BLAST bit score: 361&lt;br&gt;E-value: 3.3e-97" locus_tag="A7J50_RS15615" class="clusterblast-orf" id="dummy-2_h2_1_10"  />
</g>
<g id="a2_0011"  >
<polygon points="341,85 346,80 348,80 348,90 346,90 341,85 " style="fill:#d8ae15; stroke-width:1; stroke:black; " description="&lt;b&gt;A7J50_RS15610&lt;/b&gt;&lt;br&gt;LysE family translocator&lt;br&gt;Location: 3458468 - 3457848&lt;br&gt;&lt;br&gt;&lt;b&gt;BlastP hit with MCIC6FC_007484&lt;/b&gt;&lt;br&gt;Percentage identity: 88&lt;br&gt;Percentage coverage: 105&lt;br&gt;BLAST bit score: 354&lt;br&gt;E-value: 9.2e-96" locus_tag="A7J50_RS15610" class="clusterblast-orf" id="dummy-2_h2_1_11"  />
</g>
<g id="a2_0012"  >
<polygon points="350,90 370,90 375,85 370,80 350,80 350,90 " style="fill:#15d859; stroke-width:1; stroke:black; " description="&lt;b&gt;A7J50_RS15605&lt;/b&gt;&lt;br&gt;OsmC domain/YcaO domain-containing protein&lt;br&gt;Location: 3457711 - 3455513&lt;br&gt;&lt;br&gt;&lt;b&gt;BlastP hit with MCIC6FC_007485&lt;/b&gt;&lt;br&gt;Percentage identity: 98&lt;br&gt;Percentage coverage: 38&lt;br&gt;BLAST bit score: 1451&lt;br&gt;E-value: 0.0" locus_tag="A7J50_RS15605" class="clusterblast-orf" id="dummy-2_h2_1_12"  />
</g>
<g id="a2_0013"  >
<polygon points="381,85 386,80 394,80 394,90 386,90 381,85 " style="fill:#1526d8; stroke-width:1; stroke:black; " description="&lt;b&gt;A7J50_RS15600&lt;/b&gt;&lt;br&gt;cystathionine gamma-synthase&lt;br&gt;Location: 3455054 - 3453888&lt;br&gt;&lt;br&gt;&lt;b&gt;BlastP hit with MCIC6FC_007486&lt;/b&gt;&lt;br&gt;Percentage identity: 98&lt;br&gt;Percentage coverage: 46&lt;br&gt;BLAST bit score: 760&lt;br&gt;E-value: 1.4e-217" locus_tag="A7J50_RS15600" class="clusterblast-orf" id="dummy-2_h2_1_13"  />
</g>
<g id="a2_0014"  >
<polygon points="394,85 399,80 410,80 410,90 399,90 394,85 " style="fill:#1526d8; stroke-width:1; stroke:black; " description="&lt;b&gt;A7J50_RS15595&lt;/b&gt;&lt;br&gt;pyridoxal-phosphate dependent enzyme&lt;br&gt;Location: 3453891 - 3452515&lt;br&gt;&lt;br&gt;&lt;b&gt;BlastP hit with MCIC6FC_007486&lt;/b&gt;&lt;br&gt;Percentage identity: 95&lt;br&gt;Percentage coverage: 54&lt;br&gt;BLAST bit score: 852&lt;br&gt;E-value: 3.5e-245" locus_tag="A7J50_RS15595" class="clusterblast-orf" id="dummy-2_h2_1_14"  />
</g>
<g id="a2_0015"  >
<polygon points="412,85 417,80 421,80 421,90 417,90 412,85 " style="fill:#d8157b; stroke-width:1; stroke:black; " description="&lt;b&gt;A7J50_RS15590&lt;/b&gt;&lt;br&gt;4-hydroxy-tetrahydrodipicolinate synthase&lt;br&gt;Location: 3452370 - 3451519&lt;br&gt;&lt;br&gt;&lt;b&gt;BlastP hit with MCIC6FC_007487&lt;/b&gt;&lt;br&gt;Percentage identity: 80&lt;br&gt;Percentage coverage: 99&lt;br&gt;BLAST bit score: 425&lt;br&gt;E-value: 3.6e-117" locus_tag="A7J50_RS15590" class="clusterblast-orf" id="dummy-2_h2_1_15"  />
</g>
<g id="a2_0016"  >
<polygon points="425,85 430,80 436,80 436,90 430,90 425,85 " style="fill:#d0d815; stroke-width:1; stroke:black; " description="&lt;b&gt;A7J50_RS15585&lt;/b&gt;&lt;br&gt;alpha/beta hydrolase&lt;br&gt;Location: 3451233 - 3450256&lt;br&gt;&lt;br&gt;&lt;b&gt;BlastP hit with MCIC6FC_007488&lt;/b&gt;&lt;br&gt;Percentage identity: 87&lt;br&gt;Percentage coverage: 48&lt;br&gt;BLAST bit score: 579&lt;br&gt;E-value: 3.6e-163" locus_tag="A7J50_RS15585" class="clusterblast-orf" id="dummy-2_h2_1_16"  />
</g>
<g id="a2_0017"  >
<polygon points="437,85 438,80 438,90 437,85 " style="fill:white; stroke-width:1; stroke:black; " description="&lt;b&gt;A7J50_RS31395&lt;/b&gt;&lt;br&gt;VOC family protein&lt;br&gt;Location: 3450151 - 3450050" locus_tag="A7J50_RS31395" class="clusterblast-orf" id="dummy-2_h2_1_17"  />
</g>
<g id="a2_0018"  >
<polygon points="438,85 443,80 443,80 443,90 443,90 438,85 " style="fill:#15d88c; stroke-width:1; stroke:black; " description="&lt;b&gt;A7J50_RS15580&lt;/b&gt;&lt;br&gt;SnoaL-like domain-containing protein&lt;br&gt;Location: 3450040 - 3449648&lt;br&gt;&lt;br&gt;&lt;b&gt;BlastP hit with MCIC6FC_007489&lt;/b&gt;&lt;br&gt;Percentage identity: 85&lt;br&gt;Percentage coverage: 11&lt;br&gt;BLAST bit score: 222&lt;br&gt;E-value: 3e-55" locus_tag="A7J50_RS15580" class="clusterblast-orf" id="dummy-2_h2_1_18"  />
</g>
<g id="a2_0019"  >
<polygon points="443,85 448,80 450,80 450,90 448,90 443,85 " style="fill:#15d88c; stroke-width:1; stroke:black; " description="&lt;b&gt;A7J50_RS15575&lt;/b&gt;&lt;br&gt;LysE family translocator&lt;br&gt;Location: 3449617 - 3448997&lt;br&gt;&lt;br&gt;&lt;b&gt;BlastP hit with MCIC6FC_007489&lt;/b&gt;&lt;br&gt;Percentage identity: 86&lt;br&gt;Percentage coverage: 19&lt;br&gt;BLAST bit score: 329&lt;br&gt;E-value: 1e-87" locus_tag="A7J50_RS15575" class="clusterblast-orf" id="dummy-2_h2_1_19"  />
</g>
<g id="a2_0020"  >
<polygon points="453,85 458,80 465,80 465,90 458,90 453,85 " style="fill:#15d8bf; stroke-width:1; stroke:black; " description="&lt;b&gt;A7J50_RS15570&lt;/b&gt;&lt;br&gt;alpha/beta hydrolase&lt;br&gt;Location: 3448774 - 3447755&lt;br&gt;&lt;br&gt;&lt;b&gt;BlastP hit with MCIC6FC_007494&lt;/b&gt;&lt;br&gt;Percentage identity: 87&lt;br&gt;Percentage coverage: 53&lt;br&gt;BLAST bit score: 626&lt;br&gt;E-value: 4.2e-177" locus_tag="A7J50_RS15570" class="clusterblast-orf" id="dummy-2_h2_1_20"  />
</g>
<g id="a2_0021"  >
<polygon points="466,85 471,80 475,80 475,90 471,90 466,85 " style="fill:#15d8bf; stroke-width:1; stroke:black; " description="&lt;b&gt;A7J50_RS15565&lt;/b&gt;&lt;br&gt;PIG-L family deacetylase&lt;br&gt;Location: 3447615 - 3446854&lt;br&gt;&lt;br&gt;&lt;b&gt;BlastP hit with MCIC6FC_007494&lt;/b&gt;&lt;br&gt;Percentage identity: 88&lt;br&gt;Percentage coverage: 38&lt;br&gt;BLAST bit score: 455&lt;br&gt;E-value: 9.7e-126" locus_tag="A7J50_RS15565" class="clusterblast-orf" id="dummy-2_h2_1_21"  />
</g>
<g id="a2_0022"  >
<polygon points="477,85 482,80 485,80 485,90 482,90 477,85 " style="fill:white; stroke-width:1; stroke:black; " description="&lt;b&gt;A7J50_RS15560&lt;/b&gt;&lt;br&gt;glycosyltransferase family 2 protein&lt;br&gt;Location: 3446663 - 3446004" locus_tag="A7J50_RS15560" class="clusterblast-orf" id="dummy-2_h2_1_22"  />
</g>
<g id="a2_0023"  >
<polygon points="485,85 490,80 492,80 492,90 490,90 485,85 " style="fill:white; stroke-width:1; stroke:black; " description="&lt;b&gt;A7J50_RS15555&lt;/b&gt;&lt;br&gt;methyltransferase domain-containing protein&lt;br&gt;Location: 3446007 - 3445408" locus_tag="A7J50_RS15555" class="clusterblast-orf" id="dummy-2_h2_1_23"  />
</g>
<g id="a2_0024"  >
<polygon points="492,85 497,80 500,80 500,90 497,90 492,85 " style="fill:#15d8bf; stroke-width:1; stroke:black; " description="&lt;b&gt;A7J50_RS15550&lt;/b&gt;&lt;br&gt;PIG-L family deacetylase&lt;br&gt;Location: 3445411 - 3444653&lt;br&gt;&lt;br&gt;&lt;b&gt;BlastP hit with MCIC6FC_007494&lt;/b&gt;&lt;br&gt;Percentage identity: 59&lt;br&gt;Percentage coverage: 38&lt;br&gt;BLAST bit score: 299&lt;br&gt;E-value: 8.9e-79" locus_tag="A7J50_RS15550" class="clusterblast-orf" id="dummy-2_h2_1_24"  />
</g>
<g id="a2_0025"  >
<polygon points="500,85 505,80 512,80 512,90 505,90 500,85 " style="fill:white; stroke-width:1; stroke:black; " description="&lt;b&gt;A7J50_RS15545&lt;/b&gt;&lt;br&gt;hypothetical protein&lt;br&gt;Location: 3444656 - 3443658" locus_tag="A7J50_RS15545" class="clusterblast-orf" id="dummy-2_h2_1_25"  />
</g>
<g id="a2_0026"  >
<polygon points="512,85 517,80 537,80 537,90 517,90 512,85 " style="fill:#6a15d8; stroke-width:1; stroke:black; " description="&lt;b&gt;A7J50_RS15540&lt;/b&gt;&lt;br&gt;glycogen debranching protein GlgX&lt;br&gt;Location: 3443656 - 3441500&lt;br&gt;&lt;br&gt;&lt;b&gt;BlastP hit with MCIC6FC_007495&lt;/b&gt;&lt;br&gt;Percentage identity: 92&lt;br&gt;Percentage coverage: 16&lt;br&gt;BLAST bit score: 1391&lt;br&gt;E-value: 0.0" locus_tag="A7J50_RS15540" class="clusterblast-orf" id="dummy-2_h2_1_26"  />
</g>
<g id="a2_0027"  >
<polygon points="538,85 541,80 541,90 538,85 " style="fill:white; stroke-width:1; stroke:black; " description="&lt;b&gt;A7J50_RS15535&lt;/b&gt;&lt;br&gt;DUF2934 domain-containing protein&lt;br&gt;Location: 3441368 - 3441099" locus_tag="A7J50_RS15535" class="clusterblast-orf" id="dummy-2_h2_1_27"  />
</g>
</svg>
