<svg xmlns="http://www.w3.org/2000/svg" xmlns:xlink="http://www.w3.org/1999/xlink" version="1.1" x="0" y="0" height="230" width="800" viewBox="0 0 800 230" preserveAspectRatio="none"  >
<g label="Query sequence" class="clusterblast-cluster"  >
<text x="5" y="20" class="clusterblast-acc"  >
Query sequence</text>
<line x1="10" y1="35" x2="778.0" y2="35" style="stroke-width:1; stroke:grey; "  />
<polygon points="0,35 5,30 5,30 5,40 5,40 0,35 " style="fill:white; stroke-width:1; stroke:black; " description="&lt;b&gt;MCIC6FC_006864&lt;/b&gt;&lt;br&gt;hypothetical protein&lt;br&gt;Location: 388330 - 388739" locus_tag="MCIC6FC_006864" class="clusterblast-orf" id="dummy-1_q0_0_all"  />
<polygon points="7,40 17,40 22,35 17,30 7,30 7,40 " style="fill:white; stroke-width:1; stroke:black; " description="&lt;b&gt;MCIC6FC_006865&lt;/b&gt;&lt;br&gt;hypothetical protein&lt;br&gt;Location: 388894 - 390042" locus_tag="MCIC6FC_006865" class="clusterblast-orf" id="dummy-1_q1_0_all"  />
<polygon points="36,35 41,30 61,30 61,40 41,40 36,35 " style="fill:#d81515; stroke-width:1; stroke:black; " description="&lt;b&gt;MCIC6FC_006866&lt;/b&gt;&lt;br&gt;hypothetical protein&lt;br&gt;Location: 391149 - 393087" locus_tag="MCIC6FC_006866" class="clusterblast-orf" id="dummy-1_q2_0_all"  />
<polygon points="63,35 68,30 121,30 121,40 68,40 63,35 " style="fill:white; stroke-width:1; stroke:black; " description="&lt;b&gt;MCIC6FC_006867&lt;/b&gt;&lt;br&gt;hypothetical protein&lt;br&gt;Location: 393236 - 397650" locus_tag="MCIC6FC_006867" class="clusterblast-orf" id="dummy-1_q3_0_all"  />
<polygon points="122,40 154,40 159,35 154,30 122,30 122,40 " style="fill:#33d815; stroke-width:1; stroke:black; " description="&lt;b&gt;MCIC6FC_006868&lt;/b&gt;&lt;br&gt;hypothetical protein&lt;br&gt;Location: 397737 - 400640" locus_tag="MCIC6FC_006868" class="clusterblast-orf" id="dummy-1_q4_0_all"  />
<polygon points="161,35 166,30 166,30 166,40 166,40 161,35 " style="fill:#15abd8; stroke-width:1; stroke:black; " description="&lt;b&gt;MCIC6FC_006869&lt;/b&gt;&lt;br&gt;hypothetical protein&lt;br&gt;Location: 400740 - 401154" locus_tag="MCIC6FC_006869" class="clusterblast-orf" id="dummy-1_q5_0_all"  />
<polygon points="168,40 184,40 189,35 184,30 168,30 168,40 " style="fill:#8d15d8; stroke-width:1; stroke:black; " description="&lt;b&gt;MCIC6FC_006870&lt;/b&gt;&lt;br&gt;hypothetical protein&lt;br&gt;Location: 401288 - 402896" locus_tag="MCIC6FC_006870" class="clusterblast-orf" id="dummy-1_q6_0_all"  />
<polygon points="189,35 194,30 197,30 197,40 194,40 189,35 " style="fill:#d86f15; stroke-width:1; stroke:black; " description="&lt;b&gt;MCIC6FC_006871&lt;/b&gt;&lt;br&gt;hypothetical protein&lt;br&gt;Location: 402949 - 403510" locus_tag="MCIC6FC_006871" class="clusterblast-orf" id="dummy-1_q7_0_all"  />
<polygon points="200,40 220,40 225,35 220,30 200,30 200,40 " style="fill:#15d851; stroke-width:1; stroke:black; " description="&lt;b&gt;MCIC6FC_006872&lt;/b&gt;&lt;br&gt;hypothetical protein&lt;br&gt;Location: 403758 - 405677" locus_tag="MCIC6FC_006872" class="clusterblast-orf" id="dummy-1_q8_0_all"  />
<polygon points="242,35 247,30 286,30 286,40 247,40 242,35 " style="fill:#d81515; stroke-width:1; stroke:black; " description="&lt;b&gt;MCIC6FC_006873&lt;/b&gt;&lt;br&gt;hypothetical protein&lt;br&gt;Location: 407045 - 410364" locus_tag="MCIC6FC_006873" class="clusterblast-orf" id="dummy-1_q9_0_all"  />
<polygon points="287,40 311,40 316,35 311,30 287,30 287,40 " style="fill:#1551d8; stroke-width:1; stroke:black; " description="&lt;b&gt;MCIC6FC_006874&lt;/b&gt;&lt;br&gt;hypothetical protein&lt;br&gt;Location: 410480 - 412722" locus_tag="MCIC6FC_006874" class="clusterblast-orf" id="dummy-1_q10_0_all"  />
<polygon points="318,35 323,30 351,30 351,40 323,40 318,35 " style="fill:#d815c9; stroke-width:1; stroke:black; " description="&lt;b&gt;MCIC6FC_006875&lt;/b&gt;&lt;br&gt;hypothetical protein&lt;br&gt;Location: 412842 - 415380" locus_tag="MCIC6FC_006875" class="clusterblast-orf" id="dummy-1_q11_0_all"  />
<polygon points="352,35 357,30 394,30 394,40 357,40 352,35 " style="fill:#d8c915; stroke-width:1; stroke:black; " description="&lt;b&gt;MCIC6FC_006876&lt;/b&gt;&lt;br&gt;hypothetical protein&lt;br&gt;Location: 415496 - 418718" locus_tag="MCIC6FC_006876" class="clusterblast-orf" id="dummy-1_q12_0_all"  />
<polygon points="405,35 410,30 431,30 431,40 410,40 405,35 " style="fill:#15d8ab; stroke-width:1; stroke:black; " description="&lt;b&gt;MCIC6FC_006877&lt;/b&gt;&lt;br&gt;hypothetical protein&lt;br&gt;Location: 419604 - 421601" locus_tag="MCIC6FC_006877" class="clusterblast-orf" id="dummy-1_q13_0_all"  />
<polygon points="432,35 437,30 445,30 445,40 437,40 432,35 " style="fill:#3315d8; stroke-width:1; stroke:black; " description="&lt;b&gt;MCIC6FC_006878&lt;/b&gt;&lt;br&gt;hypothetical protein&lt;br&gt;Location: 421635 - 422689" locus_tag="MCIC6FC_006878" class="clusterblast-orf" id="dummy-1_q14_0_all"  />
<polygon points="446,40 451,40 456,35 451,30 446,30 446,40 " style="fill:#d8156f; stroke-width:1; stroke:black; " description="&lt;b&gt;MCIC6FC_006879&lt;/b&gt;&lt;br&gt;hypothetical protein&lt;br&gt;Location: 422755 - 423470" locus_tag="MCIC6FC_006879" class="clusterblast-orf" id="dummy-1_q15_0_all"  />
<polygon points="457,35 462,30 520,30 520,40 462,40 457,35 " style="fill:#d81515; stroke-width:1; stroke:black; " description="&lt;b&gt;MCIC6FC_006880&lt;/b&gt;&lt;br&gt;hypothetical protein&lt;br&gt;Location: 423592 - 428431" locus_tag="MCIC6FC_006880" class="clusterblast-orf" id="dummy-1_q16_0_all"  />
<polygon points="522,35 527,30 599,30 599,40 527,40 522,35 " style="fill:#8dd815; stroke-width:1; stroke:black; " description="&lt;b&gt;MCIC6FC_006881&lt;/b&gt;&lt;br&gt;hypothetical protein&lt;br&gt;Location: 428595 - 434521" locus_tag="MCIC6FC_006881" class="clusterblast-orf" id="dummy-1_q17_0_all"  />
<polygon points="601,35 606,30 759,30 759,40 606,40 601,35 " style="fill:white; stroke-width:1; stroke:black; " description="&lt;b&gt;MCIC6FC_006882&lt;/b&gt;&lt;br&gt;hypothetical protein&lt;br&gt;Location: 434700 - 446857" locus_tag="MCIC6FC_006882" class="clusterblast-orf" id="dummy-1_q18_0_all"  />
<polygon points="759,35 764,30 780,30 780,40 764,40 759,35 " style="fill:white; stroke-width:1; stroke:black; " description="&lt;b&gt;MCIC6FC_006883&lt;/b&gt;&lt;br&gt;hypothetical protein&lt;br&gt;Location: 446877 - 448445" locus_tag="MCIC6FC_006883" class="clusterblast-orf" id="dummy-1_q19_0_all"  />
</g>
<g label="NZ_FOIH01000003" description="NZ_FOIH01000003 (431084-460739): Pseudomonas sp. NFR09, whole genome shotgun ... (51% of genes show similarity), thiopeptide" class="clusterblast-cluster"  >
<text x="5" y="70" class="clusterblast-acc"  >
<a xlink:href="https://antismash-db.secondarymetabolites.org/area.html?record=NZ_FOIH01000003&amp;start=431084&amp;end=460739" target="_blank">NZ_FOIH01000003 (431084-460739)</a>: Pseudomonas sp. NFR09, whole genome shotgun ... (51% of genes show similarity), thiopeptide</text>
<line x1="10" y1="85" x2="778.0" y2="85" style="stroke-width:1; stroke:grey; "  />
</g>
<g id="a1_000"  >
<polygon points="215,90 215,90 220,85 215,80 215,80 215,90 " style="fill:#33d815; stroke-width:1; stroke:black; " description="&lt;b&gt;BMX59_RS09625&lt;/b&gt;&lt;br&gt;nitrite reductase small subunit NirD&lt;br&gt;Location: 458466 - 458104&lt;br&gt;&lt;br&gt;&lt;b&gt;BlastP hit with MCIC6FC_006868&lt;/b&gt;&lt;br&gt;Percentage identity: 93&lt;br&gt;Percentage coverage: 12&lt;br&gt;BLAST bit score: 225&lt;br&gt;E-value: 3.1e-56" locus_tag="BMX59_RS09625" class="clusterblast-orf" id="dummy-1_h1_5_0"  />
</g>
<g id="a1_001"  >
<polygon points="223,85 228,80 230,80 230,90 228,90 223,85 " style="fill:#15abd8; stroke-width:1; stroke:black; " description="&lt;b&gt;BMX59_RS09620&lt;/b&gt;&lt;br&gt;winged helix-turn-helix transcriptional regulator&lt;br&gt;Location: 457859 - 457326&lt;br&gt;&lt;br&gt;&lt;b&gt;BlastP hit with MCIC6FC_006869&lt;/b&gt;&lt;br&gt;Percentage identity: 94&lt;br&gt;Percentage coverage: 100&lt;br&gt;BLAST bit score: 246&lt;br&gt;E-value: 1.9e-63" locus_tag="BMX59_RS09620" class="clusterblast-orf" id="dummy-1_h1_5_1"  />
</g>
<g id="a1_002"  >
<polygon points="230,90 245,90 250,85 245,80 230,80 230,90 " style="fill:#8d15d8; stroke-width:1; stroke:black; " description="&lt;b&gt;BMX59_RS09615&lt;/b&gt;&lt;br&gt;FAD-dependent oxidoreductase&lt;br&gt;Location: 457312 - 455810&lt;br&gt;&lt;br&gt;&lt;b&gt;BlastP hit with MCIC6FC_006870&lt;/b&gt;&lt;br&gt;Percentage identity: 85&lt;br&gt;Percentage coverage: 97&lt;br&gt;BLAST bit score: 804&lt;br&gt;E-value: 8.3e-231" locus_tag="BMX59_RS09615" class="clusterblast-orf" id="dummy-1_h1_5_2"  />
</g>
<g id="a1_003"  >
<polygon points="252,85 257,80 259,80 259,90 257,90 252,85 " style="fill:#d86f15; stroke-width:1; stroke:black; " description="&lt;b&gt;BMX59_RS09610&lt;/b&gt;&lt;br&gt;cysteine hydrolase&lt;br&gt;Location: 455666 - 455106&lt;br&gt;&lt;br&gt;&lt;b&gt;BlastP hit with MCIC6FC_006871&lt;/b&gt;&lt;br&gt;Percentage identity: 89&lt;br&gt;Percentage coverage: 98&lt;br&gt;BLAST bit score: 338&lt;br&gt;E-value: 5e-91" locus_tag="BMX59_RS09610" class="clusterblast-orf" id="dummy-1_h1_5_3"  />
</g>
<g id="a1_004"  >
<polygon points="263,85 268,80 272,80 272,90 268,90 263,85 " style="fill:white; stroke-width:1; stroke:black; " description="&lt;b&gt;BMX59_RS09600&lt;/b&gt;&lt;br&gt;TetR family transcriptional regulator&lt;br&gt;Location: 454766 - 454134" locus_tag="BMX59_RS09600" class="clusterblast-orf" id="dummy-1_h1_5_4"  />
</g>
<g id="a1_005"  >
<polygon points="273,90 277,90 282,85 277,80 273,80 273,90 " style="fill:white; stroke-width:1; stroke:black; " description="&lt;b&gt;BMX59_RS09595&lt;/b&gt;&lt;br&gt;class I SAM-dependent methyltransferase&lt;br&gt;Location: 454022 - 453360" locus_tag="BMX59_RS09595" class="clusterblast-orf" id="dummy-1_h1_5_5"  />
</g>
<g id="a1_006"  >
<polygon points="281,85 286,80 290,80 290,90 286,90 281,85 " style="fill:white; stroke-width:1; stroke:black; " description="&lt;b&gt;BMX59_RS09590&lt;/b&gt;&lt;br&gt;LysE family translocator&lt;br&gt;Location: 453373 - 452753" locus_tag="BMX59_RS09590" class="clusterblast-orf" id="dummy-1_h1_5_6"  />
</g>
<g id="a1_007"  >
<polygon points="293,85 298,80 314,80 314,90 298,90 293,85 " style="fill:#d81515; stroke-width:1; stroke:black; " description="&lt;b&gt;BMX59_RS09585&lt;/b&gt;&lt;br&gt;methyl-accepting chemotaxis protein&lt;br&gt;Location: 452467 - 450902&lt;br&gt;&lt;br&gt;&lt;b&gt;BlastP hit with MCIC6FC_006873&lt;/b&gt;&lt;br&gt;Percentage identity: 83&lt;br&gt;Percentage coverage: 56&lt;br&gt;BLAST bit score: 604&lt;br&gt;E-value: 1.6e-170" locus_tag="BMX59_RS09585" class="clusterblast-orf" id="dummy-1_h1_5_7"  />
</g>
<g id="a1_008"  >
<polygon points="316,90 339,90 344,85 339,80 316,80 316,90 " style="fill:#1551d8; stroke-width:1; stroke:black; " description="&lt;b&gt;BMX59_RS09580&lt;/b&gt;&lt;br&gt;OsmC domain/YcaO domain-containing protein&lt;br&gt;Location: 450739 - 448541&lt;br&gt;&lt;br&gt;&lt;b&gt;BlastP hit with MCIC6FC_006874&lt;/b&gt;&lt;br&gt;Percentage identity: 98&lt;br&gt;Percentage coverage: 99&lt;br&gt;BLAST bit score: 1450&lt;br&gt;E-value: 0.0" locus_tag="BMX59_RS09580" class="clusterblast-orf" id="dummy-1_h1_5_8"  />
</g>
<g id="a1_009"  >
<polygon points="347,85 352,80 362,80 362,90 352,90 347,85 " style="fill:#d815c9; stroke-width:1; stroke:black; " description="&lt;b&gt;BMX59_RS09570&lt;/b&gt;&lt;br&gt;cystathionine gamma-synthase&lt;br&gt;Location: 448300 - 447134&lt;br&gt;&lt;br&gt;&lt;b&gt;BlastP hit with MCIC6FC_006875&lt;/b&gt;&lt;br&gt;Percentage identity: 96&lt;br&gt;Percentage coverage: 48&lt;br&gt;BLAST bit score: 754&lt;br&gt;E-value: 1.2e-215" locus_tag="BMX59_RS09570" class="clusterblast-orf" id="dummy-1_h1_5_9"  />
</g>
<g id="a1_0010"  >
<polygon points="362,85 367,80 380,80 380,90 367,90 362,85 " style="fill:#d815c9; stroke-width:1; stroke:black; " description="&lt;b&gt;BMX59_RS09565&lt;/b&gt;&lt;br&gt;cystathionine beta-synthase&lt;br&gt;Location: 447137 - 445761&lt;br&gt;&lt;br&gt;&lt;b&gt;BlastP hit with MCIC6FC_006875&lt;/b&gt;&lt;br&gt;Percentage identity: 88&lt;br&gt;Percentage coverage: 56&lt;br&gt;BLAST bit score: 755&lt;br&gt;E-value: 7.3e-216" locus_tag="BMX59_RS09565" class="clusterblast-orf" id="dummy-1_h1_5_10"  />
</g>
<g id="a1_0011"  >
<polygon points="382,85 387,80 393,80 393,90 387,90 382,85 " style="fill:#d8c915; stroke-width:1; stroke:black; " description="&lt;b&gt;BMX59_RS09560&lt;/b&gt;&lt;br&gt;4-hydroxy-tetrahydrodipicolinate synthase&lt;br&gt;Location: 445644 - 444781&lt;br&gt;&lt;br&gt;&lt;b&gt;BlastP hit with MCIC6FC_006876&lt;/b&gt;&lt;br&gt;Percentage identity: 79&lt;br&gt;Percentage coverage: 36&lt;br&gt;BLAST bit score: 289&lt;br&gt;E-value: 5.9e-76" locus_tag="BMX59_RS09560" class="clusterblast-orf" id="dummy-1_h1_5_11"  />
</g>
<g id="a1_0012"  >
<polygon points="397,85 402,80 415,80 415,90 402,90 397,85 " style="fill:#15d8ab; stroke-width:1; stroke:black; " description="&lt;b&gt;BMX59_RS09555&lt;/b&gt;&lt;br&gt;hypothetical protein&lt;br&gt;Location: 444487 - 443096&lt;br&gt;&lt;br&gt;&lt;b&gt;BlastP hit with MCIC6FC_006877&lt;/b&gt;&lt;br&gt;Percentage identity: 79&lt;br&gt;Percentage coverage: 76&lt;br&gt;BLAST bit score: 716&lt;br&gt;E-value: 2.8e-204" locus_tag="BMX59_RS09555" class="clusterblast-orf" id="dummy-1_h1_5_12"  />
</g>
<g id="a1_0013"  >
<polygon points="418,90 424,90 429,85 424,80 418,80 418,90 " style="fill:white; stroke-width:1; stroke:black; " description="&lt;b&gt;BMX59_RS09550&lt;/b&gt;&lt;br&gt;SGNH/GDSL hydrolase family protein&lt;br&gt;Location: 442887 - 441991" locus_tag="BMX59_RS09550" class="clusterblast-orf" id="dummy-1_h1_5_13"  />
</g>
<g id="a1_0014"  >
<polygon points="429,85 434,80 435,80 435,90 434,90 429,85 " style="fill:#15d8ab; stroke-width:1; stroke:black; " description="&lt;b&gt;BMX59_RS09545&lt;/b&gt;&lt;br&gt;VOC family protein&lt;br&gt;Location: 441994 - 441512&lt;br&gt;&lt;br&gt;&lt;b&gt;BlastP hit with MCIC6FC_006877&lt;/b&gt;&lt;br&gt;Percentage identity: 88&lt;br&gt;Percentage coverage: 26&lt;br&gt;BLAST bit score: 290&lt;br&gt;E-value: 3.9e-76" locus_tag="BMX59_RS09545" class="clusterblast-orf" id="dummy-1_h1_5_14"  />
</g>
<g id="a1_0015"  >
<polygon points="436,85 441,80 441,80 441,90 441,90 436,85 " style="fill:#3315d8; stroke-width:1; stroke:black; " description="&lt;b&gt;BMX59_RS09540&lt;/b&gt;&lt;br&gt;ester cyclase&lt;br&gt;Location: 441477 - 441085&lt;br&gt;&lt;br&gt;&lt;b&gt;BlastP hit with MCIC6FC_006878&lt;/b&gt;&lt;br&gt;Percentage identity: 93&lt;br&gt;Percentage coverage: 39&lt;br&gt;BLAST bit score: 250&lt;br&gt;E-value: 3.2e-64" locus_tag="BMX59_RS09540" class="clusterblast-orf" id="dummy-1_h1_5_15"  />
</g>
<g id="a1_0016"  >
<polygon points="441,85 446,80 449,80 449,90 446,90 441,85 " style="fill:#3315d8; stroke-width:1; stroke:black; " description="&lt;b&gt;BMX59_RS09535&lt;/b&gt;&lt;br&gt;LysE family translocator&lt;br&gt;Location: 441081 - 440461&lt;br&gt;&lt;br&gt;&lt;b&gt;BlastP hit with MCIC6FC_006878&lt;/b&gt;&lt;br&gt;Percentage identity: 93&lt;br&gt;Percentage coverage: 56&lt;br&gt;BLAST bit score: 340&lt;br&gt;E-value: 2.3e-91" locus_tag="BMX59_RS09535" class="clusterblast-orf" id="dummy-1_h1_5_16"  />
</g>
<g id="a1_0017"  >
<polygon points="450,85 454,80 454,90 450,85 " style="fill:white; stroke-width:1; stroke:black; " description="&lt;b&gt;BMX59_RS09530&lt;/b&gt;&lt;br&gt;hypothetical protein&lt;br&gt;Location: 440351 - 440052" locus_tag="BMX59_RS09530" class="clusterblast-orf" id="dummy-1_h1_5_17"  />
</g>
<g id="a1_0018"  >
<polygon points="458,90 462,85 458,80 458,90 " style="fill:white; stroke-width:1; stroke:black; " description="&lt;b&gt;BMX59_RS09525&lt;/b&gt;&lt;br&gt;hypothetical protein&lt;br&gt;Location: 439796 - 439422" locus_tag="BMX59_RS09525" class="clusterblast-orf" id="dummy-1_h1_5_18"  />
</g>
<g id="a1_0019"  >
<polygon points="468,90 468,90 473,85 468,80 468,80 468,90 " style="fill:white; stroke-width:1; stroke:black; " description="&lt;b&gt;BMX59_RS09520&lt;/b&gt;&lt;br&gt;DUF4113 domain-containing protein&lt;br&gt;Location: 439004 - 438601" locus_tag="BMX59_RS09520" class="clusterblast-orf" id="dummy-1_h1_5_19"  />
</g>
<g id="a1_0020"  >
<polygon points="474,85 476,80 476,90 474,85 " style="fill:white; stroke-width:1; stroke:black; " description="&lt;b&gt;BMX59_RS09515&lt;/b&gt;&lt;br&gt;hypothetical protein&lt;br&gt;Location: 438531 - 438361" locus_tag="BMX59_RS09515" class="clusterblast-orf" id="dummy-1_h1_5_20"  />
</g>
<g id="a1_0021"  >
<polygon points="476,85 480,80 480,90 476,85 " style="fill:white; stroke-width:1; stroke:black; " description="&lt;b&gt;BMX59_RS30095&lt;/b&gt;&lt;br&gt;hypothetical protein&lt;br&gt;Location: 438364 - 438101" locus_tag="BMX59_RS30095" class="clusterblast-orf" id="dummy-1_h1_5_21"  />
</g>
<g id="a1_0022"  >
<polygon points="480,85 483,80 483,90 480,85 " style="fill:white; stroke-width:1; stroke:black; " description="&lt;b&gt;BMX59_RS09510&lt;/b&gt;&lt;br&gt;holin&lt;br&gt;Location: 438078 - 437827" locus_tag="BMX59_RS09510" class="clusterblast-orf" id="dummy-1_h1_5_22"  />
</g>
<g id="a1_0023"  >
<polygon points="485,85 488,80 488,90 485,85 " style="fill:white; stroke-width:1; stroke:black; " description="&lt;b&gt;BMX59_RS09505&lt;/b&gt;&lt;br&gt;hypothetical protein&lt;br&gt;Location: 437656 - 437441" locus_tag="BMX59_RS09505" class="clusterblast-orf" id="dummy-1_h1_5_23"  />
</g>
<g id="a1_0024"  >
<polygon points="492,90 495,85 492,80 492,90 " style="fill:white; stroke-width:1; stroke:black; " description="&lt;b&gt;BMX59_RS09500&lt;/b&gt;&lt;br&gt;hypothetical protein&lt;br&gt;Location: 437153 - 436944" locus_tag="BMX59_RS09500" class="clusterblast-orf" id="dummy-1_h1_5_24"  />
</g>
<g id="a1_0025"  >
<polygon points="516,90 532,90 537,85 532,80 516,80 516,90 " style="fill:#d81515; stroke-width:1; stroke:black; " description="&lt;b&gt;BMX59_RS09495&lt;/b&gt;&lt;br&gt;methyl-accepting chemotaxis protein&lt;br&gt;Location: 435285 - 433648&lt;br&gt;&lt;br&gt;&lt;b&gt;BlastP hit with MCIC6FC_006873&lt;/b&gt;&lt;br&gt;Percentage identity: 44&lt;br&gt;Percentage coverage: 22&lt;br&gt;BLAST bit score: 114&lt;br&gt;E-value: 6.5e-23&lt;br&gt;&lt;br&gt;&lt;b&gt;BlastP hit with MCIC6FC_006880&lt;/b&gt;&lt;br&gt;Percentage identity: 41&lt;br&gt;Percentage coverage: 13&lt;br&gt;BLAST bit score: 109&lt;br&gt;E-value: 2.7e-21" locus_tag="BMX59_RS09495" class="clusterblast-orf" id="dummy-1_h1_5_25"  />
</g>
<g id="a1_0026"  >
<polygon points="547,85 552,80 553,80 553,90 552,90 547,85 " style="fill:white; stroke-width:1; stroke:black; " description="&lt;b&gt;BMX59_RS09485&lt;/b&gt;&lt;br&gt;hypothetical protein&lt;br&gt;Location: 432909 - 432451" locus_tag="BMX59_RS09485" class="clusterblast-orf" id="dummy-1_h1_5_26"  />
</g>
<g id="a1_0027"  >
<polygon points="553,85 557,80 557,90 553,85 " style="fill:white; stroke-width:1; stroke:black; " description="&lt;b&gt;BMX59_RS09480&lt;/b&gt;&lt;br&gt;hypothetical protein&lt;br&gt;Location: 432458 - 432156" locus_tag="BMX59_RS09480" class="clusterblast-orf" id="dummy-1_h1_5_27"  />
</g>
<g id="a1_0028"  >
<polygon points="559,85 564,80 564,80 564,90 564,90 559,85 " style="fill:#3315d8; stroke-width:1; stroke:black; " description="&lt;b&gt;BMX59_RS09475&lt;/b&gt;&lt;br&gt;LysE family translocator&lt;br&gt;Location: 431998 - 431630&lt;br&gt;&lt;br&gt;&lt;b&gt;BlastP hit with MCIC6FC_006878&lt;/b&gt;&lt;br&gt;Percentage identity: 91&lt;br&gt;Percentage coverage: 37&lt;br&gt;BLAST bit score: 217&lt;br&gt;E-value: 3e-54" locus_tag="BMX59_RS09475" class="clusterblast-orf" id="dummy-1_h1_5_28"  />
</g>
</svg>
