<svg xmlns="http://www.w3.org/2000/svg" xmlns:xlink="http://www.w3.org/1999/xlink" version="1.1" x="0" y="0" height="230" width="800" viewBox="0 0 800 230" preserveAspectRatio="none"  >
<g label="Query sequence" class="clusterblast-cluster"  >
<text x="5" y="20" class="clusterblast-acc"  >
Query sequence</text>
<line x1="10" y1="35" x2="778.0" y2="35" style="stroke-width:1; stroke:grey; "  />
<polygon points="251,35 256,30 300,30 300,40 256,40 251,35 " style="fill:white; stroke-width:1; stroke:black; " description="&lt;b&gt;MCIC6FC_014722&lt;/b&gt;&lt;br&gt;hypothetical protein&lt;br&gt;Location: 233376 - 236576" locus_tag="MCIC6FC_014722" class="clusterblast-orf" id="dummy-1_q0_0_all"  />
<polygon points="300,35 305,30 312,30 312,40 305,40 300,35 " style="fill:white; stroke-width:1; stroke:black; " description="&lt;b&gt;MCIC6FC_014723&lt;/b&gt;&lt;br&gt;hypothetical protein&lt;br&gt;Location: 236600 - 237359" locus_tag="MCIC6FC_014723" class="clusterblast-orf" id="dummy-1_q1_0_all"  />
<polygon points="322,35 327,30 369,30 369,40 327,40 322,35 " style="fill:#d81515; stroke-width:1; stroke:black; " description="&lt;b&gt;MCIC6FC_014724&lt;/b&gt;&lt;br&gt;hypothetical protein&lt;br&gt;Location: 238014 - 241095" locus_tag="MCIC6FC_014724" class="clusterblast-orf" id="dummy-1_q2_0_all"  />
<polygon points="369,35 374,30 399,30 399,40 374,40 369,35 " style="fill:#d81515; stroke-width:1; stroke:black; " description="&lt;b&gt;MCIC6FC_014725&lt;/b&gt;&lt;br&gt;hypothetical protein&lt;br&gt;Location: 241149 - 243066" locus_tag="MCIC6FC_014725" class="clusterblast-orf" id="dummy-1_q3_0_all"  />
<polygon points="399,35 404,30 515,30 515,40 404,40 399,35 " style="fill:#15d8d8; stroke-width:1; stroke:black; " description="&lt;b&gt;MCIC6FC_014726&lt;/b&gt;&lt;br&gt;hypothetical protein&lt;br&gt;Location: 243089 - 250669" locus_tag="MCIC6FC_014726" class="clusterblast-orf" id="dummy-1_q4_0_all"  />
<polygon points="518,35 523,30 528,30 528,40 523,40 518,35 " style="fill:white; stroke-width:1; stroke:black; " description="&lt;b&gt;MCIC6FC_014727&lt;/b&gt;&lt;br&gt;hypothetical protein&lt;br&gt;Location: 250848 - 251563" locus_tag="MCIC6FC_014727" class="clusterblast-orf" id="dummy-1_q5_0_all"  />
</g>
<g label="NZ_LYKE01000016" description="NZ_LYKE01000016 (12952-65541): Acinetobacter nosocomialis strain XH653 XH653 ... (12% of genes show similarity), NRPS" class="clusterblast-cluster"  >
<text x="5" y="70" class="clusterblast-acc"  >
<a xlink:href="https://antismash-db.secondarymetabolites.org/area.html?record=NZ_LYKE01000016&amp;start=12952&amp;end=65541" target="_blank">NZ_LYKE01000016 (12952-65541)</a>: Acinetobacter nosocomialis strain XH653 XH653 ... (12% of genes show similarity), NRPS</text>
<line x1="10" y1="85" x2="778.0" y2="85" style="stroke-width:1; stroke:grey; "  />
</g>
<g id="a1_000"  >
<polygon points="0,90 18,90 23,85 18,80 0,80 0,90 " style="fill:white; stroke-width:1; stroke:black; " description="&lt;b&gt;A7M54_RS10215&lt;/b&gt;&lt;br&gt;phospholipase D family protein&lt;br&gt;Location: 13811 - 15370" locus_tag="A7M54_RS10215" class="clusterblast-orf" id="dummy-1_h1_5_0"  />
</g>
<g id="a1_001"  >
<polygon points="23,85 28,80 32,80 32,90 28,90 23,85 " style="fill:white; stroke-width:1; stroke:black; " description="&lt;b&gt;A7M54_RS10220&lt;/b&gt;&lt;br&gt;uracil-DNA glycosylase family protein&lt;br&gt;Location: 15380 - 15967" locus_tag="A7M54_RS10220" class="clusterblast-orf" id="dummy-1_h1_5_1"  />
</g>
<g id="a1_002"  >
<polygon points="35,85 39,80 39,90 35,85 " style="fill:white; stroke-width:1; stroke:black; " description="&lt;b&gt;A7M54_RS10225&lt;/b&gt;&lt;br&gt;hypothetical protein&lt;br&gt;Location: 16131 - 16367" locus_tag="A7M54_RS10225" class="clusterblast-orf" id="dummy-1_h1_5_2"  />
</g>
<g id="a1_003"  >
<polygon points="42,85 45,80 45,90 42,85 " style="fill:white; stroke-width:1; stroke:black; " description="&lt;b&gt;A7M54_RS18665&lt;/b&gt;&lt;br&gt;hypothetical protein&lt;br&gt;Location: 16620 - 16796" locus_tag="A7M54_RS18665" class="clusterblast-orf" id="dummy-1_h1_5_3"  />
</g>
<g id="a1_004"  >
<polygon points="54,85 59,80 70,80 70,90 59,90 54,85 " style="fill:#15d8d8; stroke-width:1; stroke:black; " description="&lt;b&gt;A7M54_RS10230&lt;/b&gt;&lt;br&gt;dipeptidase&lt;br&gt;Location: 17376 - 18428&lt;br&gt;&lt;br&gt;&lt;b&gt;BlastP hit with MCIC6FC_014726&lt;/b&gt;&lt;br&gt;Percentage identity: 36&lt;br&gt;Percentage coverage: 18&lt;br&gt;BLAST bit score: 175&lt;br&gt;E-value: 5.5e-41" locus_tag="A7M54_RS10230" class="clusterblast-orf" id="dummy-1_h1_5_4"  />
</g>
<g id="a1_005"  >
<polygon points="70,85 75,80 88,80 88,90 75,90 70,85 " style="fill:#d81515; stroke-width:1; stroke:black; " description="&lt;b&gt;A7M54_RS10235&lt;/b&gt;&lt;br&gt;pyrroloquinoline quinone biosynthesis protein PqqE&lt;br&gt;Location: 18445 - 19599&lt;br&gt;&lt;br&gt;&lt;b&gt;BlastP hit with MCIC6FC_014724&lt;/b&gt;&lt;br&gt;Percentage identity: 53&lt;br&gt;Percentage coverage: 25&lt;br&gt;BLAST bit score: 225&lt;br&gt;E-value: 2.8e-56&lt;br&gt;&lt;br&gt;&lt;b&gt;BlastP hit with MCIC6FC_014725&lt;/b&gt;&lt;br&gt;Percentage identity: 73&lt;br&gt;Percentage coverage: 19&lt;br&gt;BLAST bit score: 180&lt;br&gt;E-value: 4e-43" locus_tag="A7M54_RS10235" class="clusterblast-orf" id="dummy-1_h1_5_5"  />
</g>
<g id="a1_006"  >
<polygon points="88,85 92,80 92,90 88,85 " style="fill:#d81515; stroke-width:1; stroke:black; " description="&lt;b&gt;A7M54_RS10240&lt;/b&gt;&lt;br&gt;pyrroloquinoline quinone biosynthesis peptide chaperone PqqD&lt;br&gt;Location: 19596 - 19880&lt;br&gt;&lt;br&gt;&lt;b&gt;BlastP hit with MCIC6FC_014725&lt;/b&gt;&lt;br&gt;Percentage identity: 45&lt;br&gt;Percentage coverage: 11&lt;br&gt;BLAST bit score: 64&lt;br&gt;E-value: 5.5e-08" locus_tag="A7M54_RS10240" class="clusterblast-orf" id="dummy-1_h1_5_6"  />
</g>
<g id="a1_007"  >
<polygon points="92,85 97,80 104,80 104,90 97,90 92,85 " style="fill:#d81515; stroke-width:1; stroke:black; " description="&lt;b&gt;A7M54_RS10245&lt;/b&gt;&lt;br&gt;pyrroloquinoline-quinone synthase PqqC&lt;br&gt;Location: 19877 - 20635&lt;br&gt;&lt;br&gt;&lt;b&gt;BlastP hit with MCIC6FC_014725&lt;/b&gt;&lt;br&gt;Percentage identity: 64&lt;br&gt;Percentage coverage: 43&lt;br&gt;BLAST bit score: 324&lt;br&gt;E-value: 1.7e-86" locus_tag="A7M54_RS10245" class="clusterblast-orf" id="dummy-1_h1_5_7"  />
</g>
<g id="a1_008"  >
<polygon points="104,85 109,80 118,80 118,90 109,90 104,85 " style="fill:#d81515; stroke-width:1; stroke:black; " description="&lt;b&gt;A7M54_RS10250&lt;/b&gt;&lt;br&gt;pyrroloquinoline quinone biosynthesis protein PqqB&lt;br&gt;Location: 20644 - 21555&lt;br&gt;&lt;br&gt;&lt;b&gt;BlastP hit with MCIC6FC_014725&lt;/b&gt;&lt;br&gt;Percentage identity: 52&lt;br&gt;Percentage coverage: 21&lt;br&gt;BLAST bit score: 134&lt;br&gt;E-value: 4.3e-29" locus_tag="A7M54_RS10250" class="clusterblast-orf" id="dummy-1_h1_5_8"  />
</g>
<g id="a1_009"  >
<polygon points="119,85 120,80 120,90 119,85 " style="fill:white; stroke-width:1; stroke:black; " description="&lt;b&gt;A7M54_RS10255&lt;/b&gt;&lt;br&gt;pyrroloquinoline quinone precursor peptide PqqA&lt;br&gt;Location: 21631 - 21705" locus_tag="A7M54_RS10255" class="clusterblast-orf" id="dummy-1_h1_5_9"  />
</g>
<g id="a1_0010"  >
<polygon points="123,85 128,80 155,80 155,90 128,90 123,85 " style="fill:white; stroke-width:1; stroke:black; " description="&lt;b&gt;A7M54_RS10260&lt;/b&gt;&lt;br&gt;polyphosphate kinase 1&lt;br&gt;Location: 21929 - 24004" locus_tag="A7M54_RS10260" class="clusterblast-orf" id="dummy-1_h1_5_10"  />
</g>
<g id="a1_0011"  >
<polygon points="160,90 182,90 187,85 182,80 160,80 160,90 " style="fill:white; stroke-width:1; stroke:black; " description="&lt;b&gt;A7M54_RS10265&lt;/b&gt;&lt;br&gt;bifunctional metallophosphatase/5'-nucleotidase&lt;br&gt;Location: 24312 - 26093" locus_tag="A7M54_RS10265" class="clusterblast-orf" id="dummy-1_h1_5_11"  />
</g>
<g id="a1_0012"  >
<polygon points="188,85 193,80 194,80 194,90 193,90 188,85 " style="fill:white; stroke-width:1; stroke:black; " description="&lt;b&gt;A7M54_RS10270&lt;/b&gt;&lt;br&gt;transcriptional repressor&lt;br&gt;Location: 26166 - 26567" locus_tag="A7M54_RS10270" class="clusterblast-orf" id="dummy-1_h1_5_12"  />
</g>
<g id="a1_0013"  >
<polygon points="196,85 201,80 226,80 226,90 201,90 196,85 " style="fill:white; stroke-width:1; stroke:black; " description="&lt;b&gt;A7M54_RS10275&lt;/b&gt;&lt;br&gt;TonB-dependent receptor&lt;br&gt;Location: 26704 - 28665" locus_tag="A7M54_RS10275" class="clusterblast-orf" id="dummy-1_h1_5_13"  />
</g>
<g id="a1_0014"  >
<polygon points="230,90 272,90 277,85 272,80 230,80 230,90 " style="fill:white; stroke-width:1; stroke:black; " description="&lt;b&gt;A7M54_RS10280&lt;/b&gt;&lt;br&gt;multidrug efflux RND transporter permease subunit&lt;br&gt;Location: 28883 - 32017" locus_tag="A7M54_RS10280" class="clusterblast-orf" id="dummy-1_h1_5_14"  />
</g>
<g id="a1_0015"  >
<polygon points="278,85 283,80 291,80 291,90 283,90 278,85 " style="fill:white; stroke-width:1; stroke:black; " description="&lt;b&gt;A7M54_RS10285&lt;/b&gt;&lt;br&gt;isochorismatase&lt;br&gt;Location: 32063 - 32932" locus_tag="A7M54_RS10285" class="clusterblast-orf" id="dummy-1_h1_5_15"  />
</g>
<g id="a1_0016"  >
<polygon points="292,85 297,80 317,80 317,90 297,90 292,85 " style="fill:white; stroke-width:1; stroke:black; " description="&lt;b&gt;A7M54_RS10290&lt;/b&gt;&lt;br&gt;AMP-binding protein&lt;br&gt;Location: 32953 - 34617" locus_tag="A7M54_RS10290" class="clusterblast-orf" id="dummy-1_h1_5_16"  />
</g>
<g id="a1_0017"  >
<polygon points="317,85 322,80 336,80 336,90 322,90 317,85 " style="fill:white; stroke-width:1; stroke:black; " description="&lt;b&gt;A7M54_RS10295&lt;/b&gt;&lt;br&gt;isochorismate synthase&lt;br&gt;Location: 34629 - 35852" locus_tag="A7M54_RS10295" class="clusterblast-orf" id="dummy-1_h1_5_17"  />
</g>
<g id="a1_0018"  >
<polygon points="337,85 342,80 348,80 348,90 342,90 337,85 " style="fill:white; stroke-width:1; stroke:black; " description="&lt;b&gt;A7M54_RS10300&lt;/b&gt;&lt;br&gt;SDR family oxidoreductase&lt;br&gt;Location: 35897 - 36667" locus_tag="A7M54_RS10300" class="clusterblast-orf" id="dummy-1_h1_5_18"  />
</g>
<g id="a1_0019"  >
<polygon points="352,90 366,90 371,85 366,80 352,80 352,90 " style="fill:white; stroke-width:1; stroke:black; " description="&lt;b&gt;A7M54_RS10305&lt;/b&gt;&lt;br&gt;enterochelin esterase&lt;br&gt;Location: 36933 - 38132" locus_tag="A7M54_RS10305" class="clusterblast-orf" id="dummy-1_h1_5_19"  />
</g>
<g id="a1_0020"  >
<polygon points="371,90 374,85 371,80 371,90 " style="fill:white; stroke-width:1; stroke:black; " description="&lt;b&gt;A7M54_RS10310&lt;/b&gt;&lt;br&gt;MbtH family protein&lt;br&gt;Location: 38162 - 38377" locus_tag="A7M54_RS10310" class="clusterblast-orf" id="dummy-1_h1_5_20"  />
</g>
<g id="a1_0021"  >
<polygon points="375,90 479,90 484,85 479,80 375,80 375,90 " style="fill:white; stroke-width:1; stroke:black; " description="&lt;b&gt;A7M54_RS10315&lt;/b&gt;&lt;br&gt;non-ribosomal peptide synthetase&lt;br&gt;Location: 38390 - 45541" locus_tag="A7M54_RS10315" class="clusterblast-orf" id="dummy-1_h1_5_21"  />
</g>
<g id="a1_0022"  >
<polygon points="484,90 498,90 503,85 498,80 484,80 484,90 " style="fill:white; stroke-width:1; stroke:black; " description="&lt;b&gt;A7M54_RS10320&lt;/b&gt;&lt;br&gt;enterobactin transporter EntS&lt;br&gt;Location: 45538 - 46788" locus_tag="A7M54_RS10320" class="clusterblast-orf" id="dummy-1_h1_5_22"  />
</g>
<g id="a1_0023"  >
<polygon points="503,85 508,80 515,80 515,90 508,90 503,85 " style="fill:white; stroke-width:1; stroke:black; " description="&lt;b&gt;A7M54_RS10325&lt;/b&gt;&lt;br&gt;4'-phosphopantetheinyl transferase superfamily protein&lt;br&gt;Location: 46831 - 47562" locus_tag="A7M54_RS10325" class="clusterblast-orf" id="dummy-1_h1_5_23"  />
</g>
<g id="a1_0024"  >
<polygon points="521,90 525,85 521,80 521,90 " style="fill:white; stroke-width:1; stroke:black; " description="&lt;b&gt;A7M54_RS10335&lt;/b&gt;&lt;br&gt;hypothetical protein&lt;br&gt;Location: 47976 - 48266" locus_tag="A7M54_RS10335" class="clusterblast-orf" id="dummy-1_h1_5_24"  />
</g>
<g id="a1_0025"  >
<polygon points="525,90 545,90 550,85 545,80 525,80 525,90 " style="fill:white; stroke-width:1; stroke:black; " description="&lt;b&gt;A7M54_RS10340&lt;/b&gt;&lt;br&gt;PepSY domain-containing protein&lt;br&gt;Location: 48269 - 49873" locus_tag="A7M54_RS10340" class="clusterblast-orf" id="dummy-1_h1_5_25"  />
</g>
<g id="a1_0026"  >
<polygon points="551,85 556,80 560,80 560,90 556,90 551,85 " style="fill:white; stroke-width:1; stroke:black; " description="&lt;b&gt;A7M54_RS10345&lt;/b&gt;&lt;br&gt;ATP-binding cassette domain-containing protein&lt;br&gt;Location: 49917 - 50537" locus_tag="A7M54_RS10345" class="clusterblast-orf" id="dummy-1_h1_5_26"  />
</g>
<g id="a1_0027"  >
<polygon points="560,85 565,80 571,80 571,90 565,90 560,85 " style="fill:white; stroke-width:1; stroke:black; " description="&lt;b&gt;A7M54_RS10350&lt;/b&gt;&lt;br&gt;molybdate ABC transporter permease subunit&lt;br&gt;Location: 50542 - 51234" locus_tag="A7M54_RS10350" class="clusterblast-orf" id="dummy-1_h1_5_27"  />
</g>
<g id="a1_0028"  >
<polygon points="571,85 576,80 583,80 583,90 576,90 571,85 " style="fill:white; stroke-width:1; stroke:black; " description="&lt;b&gt;A7M54_RS10355&lt;/b&gt;&lt;br&gt;molybdate ABC transporter substrate-binding protein&lt;br&gt;Location: 51231 - 52016" locus_tag="A7M54_RS10355" class="clusterblast-orf" id="dummy-1_h1_5_28"  />
</g>
<g id="a1_0029"  >
<polygon points="586,85 591,80 591,80 591,90 591,90 586,85 " style="fill:white; stroke-width:1; stroke:black; " description="&lt;b&gt;A7M54_RS10365&lt;/b&gt;&lt;br&gt;LysR family transcriptional regulator&lt;br&gt;Location: 52208 - 52558" locus_tag="A7M54_RS10365" class="clusterblast-orf" id="dummy-1_h1_5_29"  />
</g>
<g id="a1_0030"  >
<polygon points="594,90 611,90 616,85 611,80 594,80 594,90 " style="fill:white; stroke-width:1; stroke:black; " description="&lt;b&gt;A7M54_RS10370&lt;/b&gt;&lt;br&gt;anthranilate 1,2-dioxygenase large subunit&lt;br&gt;Location: 52781 - 54196" locus_tag="A7M54_RS10370" class="clusterblast-orf" id="dummy-1_h1_5_30"  />
</g>
<g id="a1_0031"  >
<polygon points="616,90 618,90 623,85 618,80 616,80 616,90 " style="fill:white; stroke-width:1; stroke:black; " description="&lt;b&gt;A7M54_RS10375&lt;/b&gt;&lt;br&gt;anthranilate 1,2-dioxygenase small subunit&lt;br&gt;Location: 54199 - 54690" locus_tag="A7M54_RS10375" class="clusterblast-orf" id="dummy-1_h1_5_31"  />
</g>
<g id="a1_0032"  >
<polygon points="624,90 634,90 639,85 634,80 624,80 624,90 " style="fill:white; stroke-width:1; stroke:black; " description="&lt;b&gt;A7M54_RS10380&lt;/b&gt;&lt;br&gt;anthranilate 1,2-dioxygenase electron transfer component AntC&lt;br&gt;Location: 54696 - 55730" locus_tag="A7M54_RS10380" class="clusterblast-orf" id="dummy-1_h1_5_32"  />
</g>
<g id="a1_0033"  >
<polygon points="646,90 657,90 662,85 657,80 646,80 646,90 " style="fill:white; stroke-width:1; stroke:black; " description="&lt;b&gt;A7M54_RS10385&lt;/b&gt;&lt;br&gt;AraC family transcriptional regulator&lt;br&gt;Location: 56181 - 57239" locus_tag="A7M54_RS10385" class="clusterblast-orf" id="dummy-1_h1_5_33"  />
</g>
<g id="a1_0034"  >
<polygon points="663,85 668,80 678,80 678,90 668,90 663,85 " style="fill:white; stroke-width:1; stroke:black; " description="&lt;b&gt;A7M54_RS10390&lt;/b&gt;&lt;br&gt;transporter&lt;br&gt;Location: 57296 - 58243" locus_tag="A7M54_RS10390" class="clusterblast-orf" id="dummy-1_h1_5_34"  />
</g>
<g id="a1_0035"  >
<polygon points="678,85 683,80 687,80 687,90 683,90 678,85 " style="fill:white; stroke-width:1; stroke:black; " description="&lt;b&gt;A7M54_RS10395&lt;/b&gt;&lt;br&gt;flavin reductase family protein&lt;br&gt;Location: 58297 - 58827" locus_tag="A7M54_RS10395" class="clusterblast-orf" id="dummy-1_h1_5_35"  />
</g>
<g id="a1_0036"  >
<polygon points="687,85 692,80 706,80 706,90 692,90 687,85 " style="fill:white; stroke-width:1; stroke:black; " description="&lt;b&gt;A7M54_RS10400&lt;/b&gt;&lt;br&gt;alanine-phosphoribitol ligase&lt;br&gt;Location: 58856 - 60106" locus_tag="A7M54_RS10400" class="clusterblast-orf" id="dummy-1_h1_5_36"  />
</g>
<g id="a1_0037"  >
<polygon points="707,85 712,80 719,80 719,90 712,90 707,85 " style="fill:white; stroke-width:1; stroke:black; " description="&lt;b&gt;A7M54_RS10405&lt;/b&gt;&lt;br&gt;SDR family oxidoreductase&lt;br&gt;Location: 60138 - 60923" locus_tag="A7M54_RS10405" class="clusterblast-orf" id="dummy-1_h1_5_37"  />
</g>
<g id="a1_0038"  >
<polygon points="719,85 724,80 738,80 738,90 724,90 719,85 " style="fill:white; stroke-width:1; stroke:black; " description="&lt;b&gt;A7M54_RS10410&lt;/b&gt;&lt;br&gt;dienelactone hydrolase family protein&lt;br&gt;Location: 60936 - 62186" locus_tag="A7M54_RS10410" class="clusterblast-orf" id="dummy-1_h1_5_38"  />
</g>
<g id="a1_0039"  >
<polygon points="743,90 758,90 763,85 758,80 743,80 743,90 " style="fill:white; stroke-width:1; stroke:black; " description="&lt;b&gt;A7M54_RS10415&lt;/b&gt;&lt;br&gt;MFS transporter&lt;br&gt;Location: 62517 - 63860" locus_tag="A7M54_RS10415" class="clusterblast-orf" id="dummy-1_h1_5_39"  />
</g>
<g id="a1_0040"  >
<polygon points="764,85 769,80 780,80 780,90 769,90 764,85 " style="fill:white; stroke-width:1; stroke:black; " description="&lt;b&gt;A7M54_RS10420&lt;/b&gt;&lt;br&gt;AraC family transcriptional regulator&lt;br&gt;Location: 63931 - 64917" locus_tag="A7M54_RS10420" class="clusterblast-orf" id="dummy-1_h1_5_40"  />
</g>
</svg>
