<svg xmlns="http://www.w3.org/2000/svg" xmlns:xlink="http://www.w3.org/1999/xlink" version="1.1" x="0" y="0" height="230" width="800" viewBox="0 0 800 230" preserveAspectRatio="none"  >
<g label="Query sequence" class="clusterblast-cluster"  >
<text x="5" y="20" class="clusterblast-acc"  >
Query sequence</text>
<line x1="10" y1="35" x2="778.0" y2="35" style="stroke-width:1; stroke:grey; "  />
<polygon points="0,35 5,30 18,30 18,40 5,40 0,35 " style="fill:white; stroke-width:1; stroke:black; " description="&lt;b&gt;MCIC6FC_007663&lt;/b&gt;&lt;br&gt;hypothetical protein&lt;br&gt;Location: 1093721 - 1096121" locus_tag="MCIC6FC_007663" class="clusterblast-orf" id="dummy-4_q0_0_all"  />
<polygon points="21,40 21,40 26,35 21,30 21,30 21,40 " style="fill:#d81515; stroke-width:1; stroke:black; " description="&lt;b&gt;MCIC6FC_007664&lt;/b&gt;&lt;br&gt;hypothetical protein&lt;br&gt;Location: 1096391 - 1097087" locus_tag="MCIC6FC_007664" class="clusterblast-orf" id="dummy-4_q1_0_all"  />
<polygon points="27,35 32,30 40,30 40,40 32,40 27,35 " style="fill:#63d815; stroke-width:1; stroke:black; " description="&lt;b&gt;MCIC6FC_007665&lt;/b&gt;&lt;br&gt;hypothetical protein&lt;br&gt;Location: 1097151 - 1098795" locus_tag="MCIC6FC_007665" class="clusterblast-orf" id="dummy-4_q2_0_all"  />
<polygon points="40,35 45,30 63,30 63,40 45,40 40,35 " style="fill:#15b1d8; stroke-width:1; stroke:black; " description="&lt;b&gt;MCIC6FC_007666&lt;/b&gt;&lt;br&gt;hypothetical protein&lt;br&gt;Location: 1098900 - 1101713" locus_tag="MCIC6FC_007666" class="clusterblast-orf" id="dummy-4_q3_0_all"  />
<polygon points="68,35 73,30 76,30 76,40 73,40 68,35 " style="fill:#b115d8; stroke-width:1; stroke:black; " description="&lt;b&gt;MCIC6FC_007667&lt;/b&gt;&lt;br&gt;hypothetical protein&lt;br&gt;Location: 1102460 - 1103483" locus_tag="MCIC6FC_007667" class="clusterblast-orf" id="dummy-4_q4_0_all"  />
<polygon points="78,40 98,40 103,35 98,30 78,30 78,40 " style="fill:#d86315; stroke-width:1; stroke:black; " description="&lt;b&gt;MCIC6FC_007668&lt;/b&gt;&lt;br&gt;hypothetical protein&lt;br&gt;Location: 1103667 - 1106912" locus_tag="MCIC6FC_007668" class="clusterblast-orf" id="dummy-4_q5_0_all"  />
<polygon points="104,35 109,30 116,30 116,40 109,40 104,35 " style="fill:white; stroke-width:1; stroke:black; " description="&lt;b&gt;MCIC6FC_007669&lt;/b&gt;&lt;br&gt;hypothetical protein&lt;br&gt;Location: 1106991 - 1108552" locus_tag="MCIC6FC_007669" class="clusterblast-orf" id="dummy-4_q6_0_all"  />
<polygon points="118,40 150,40 155,35 150,30 118,30 118,40 " style="fill:#15d815; stroke-width:1; stroke:black; " description="&lt;b&gt;MCIC6FC_007670&lt;/b&gt;&lt;br&gt;hypothetical protein&lt;br&gt;Location: 1108741 - 1113501" locus_tag="MCIC6FC_007670" class="clusterblast-orf" id="dummy-4_q7_0_all"  />
<polygon points="156,40 198,40 203,35 198,30 156,30 156,40 " style="fill:white; stroke-width:1; stroke:black; " description="&lt;b&gt;MCIC6FC_007671&lt;/b&gt;&lt;br&gt;hypothetical protein&lt;br&gt;Location: 1113526 - 1119611" locus_tag="MCIC6FC_007671" class="clusterblast-orf" id="dummy-4_q8_0_all"  />
<polygon points="205,35 210,30 257,30 257,40 210,40 205,35 " style="fill:white; stroke-width:1; stroke:black; " description="&lt;b&gt;MCIC6FC_007672&lt;/b&gt;&lt;br&gt;hypothetical protein&lt;br&gt;Location: 1119764 - 1126360" locus_tag="MCIC6FC_007672" class="clusterblast-orf" id="dummy-4_q9_0_all"  />
<polygon points="266,40 269,40 274,35 269,30 266,30 266,40 " style="fill:white; stroke-width:1; stroke:black; " description="&lt;b&gt;MCIC6FC_007673&lt;/b&gt;&lt;br&gt;hypothetical protein&lt;br&gt;Location: 1127567 - 1128578" locus_tag="MCIC6FC_007673" class="clusterblast-orf" id="dummy-4_q10_0_all"  />
<polygon points="274,40 312,40 317,35 312,30 274,30 274,40 " style="fill:white; stroke-width:1; stroke:black; " description="&lt;b&gt;MCIC6FC_007674&lt;/b&gt;&lt;br&gt;hypothetical protein&lt;br&gt;Location: 1128582 - 1134029" locus_tag="MCIC6FC_007674" class="clusterblast-orf" id="dummy-4_q11_0_all"  />
<polygon points="317,40 337,40 342,35 337,30 317,30 317,40 " style="fill:white; stroke-width:1; stroke:black; " description="&lt;b&gt;MCIC6FC_007675&lt;/b&gt;&lt;br&gt;hypothetical protein&lt;br&gt;Location: 1134052 - 1137201" locus_tag="MCIC6FC_007675" class="clusterblast-orf" id="dummy-4_q12_0_all"  />
<polygon points="346,40 350,40 355,35 350,30 346,30 346,40 " style="fill:#1563d8; stroke-width:1; stroke:black; " description="&lt;b&gt;MCIC6FC_007676&lt;/b&gt;&lt;br&gt;hypothetical protein&lt;br&gt;Location: 1137745 - 1138843" locus_tag="MCIC6FC_007676" class="clusterblast-orf" id="dummy-4_q13_0_all"  />
<polygon points="355,40 369,40 374,35 369,30 355,30 355,40 " style="fill:#d815b1; stroke-width:1; stroke:black; " description="&lt;b&gt;MCIC6FC_007677&lt;/b&gt;&lt;br&gt;hypothetical protein&lt;br&gt;Location: 1138918 - 1141240" locus_tag="MCIC6FC_007677" class="clusterblast-orf" id="dummy-4_q14_0_all"  />
<polygon points="374,40 416,40 421,35 416,30 374,30 374,40 " style="fill:#d8b115; stroke-width:1; stroke:black; " description="&lt;b&gt;MCIC6FC_007678&lt;/b&gt;&lt;br&gt;hypothetical protein&lt;br&gt;Location: 1141329 - 1147247" locus_tag="MCIC6FC_007678" class="clusterblast-orf" id="dummy-4_q15_0_all"  />
<polygon points="423,35 428,30 431,30 431,40 428,40 423,35 " style="fill:#15d863; stroke-width:1; stroke:black; " description="&lt;b&gt;MCIC6FC_007679&lt;/b&gt;&lt;br&gt;hypothetical protein&lt;br&gt;Location: 1147487 - 1148477" locus_tag="MCIC6FC_007679" class="clusterblast-orf" id="dummy-4_q16_0_all"  />
<polygon points="432,40 444,40 449,35 444,30 432,30 432,40 " style="fill:#1515d8; stroke-width:1; stroke:black; " description="&lt;b&gt;MCIC6FC_007680&lt;/b&gt;&lt;br&gt;hypothetical protein&lt;br&gt;Location: 1148651 - 1150764" locus_tag="MCIC6FC_007680" class="clusterblast-orf" id="dummy-4_q17_0_all"  />
<polygon points="449,35 454,30 466,30 466,40 454,40 449,35 " style="fill:#1515d8; stroke-width:1; stroke:black; " description="&lt;b&gt;MCIC6FC_007681&lt;/b&gt;&lt;br&gt;hypothetical protein&lt;br&gt;Location: 1150848 - 1152996" locus_tag="MCIC6FC_007681" class="clusterblast-orf" id="dummy-4_q18_0_all"  />
<polygon points="467,35 472,30 498,30 498,40 472,40 467,35 " style="fill:#d81563; stroke-width:1; stroke:black; " description="&lt;b&gt;MCIC6FC_007682&lt;/b&gt;&lt;br&gt;hypothetical protein&lt;br&gt;Location: 1153029 - 1156964" locus_tag="MCIC6FC_007682" class="clusterblast-orf" id="dummy-4_q19_0_all"  />
<polygon points="500,40 545,40 550,35 545,30 500,30 500,40 " style="fill:#15d815; stroke-width:1; stroke:black; " description="&lt;b&gt;MCIC6FC_007683&lt;/b&gt;&lt;br&gt;hypothetical protein&lt;br&gt;Location: 1157259 - 1163679" locus_tag="MCIC6FC_007683" class="clusterblast-orf" id="dummy-4_q20_0_all"  />
<polygon points="551,40 625,40 630,35 625,30 551,30 551,40 " style="fill:#15d815; stroke-width:1; stroke:black; " description="&lt;b&gt;MCIC6FC_007684&lt;/b&gt;&lt;br&gt;hypothetical protein&lt;br&gt;Location: 1163717 - 1173743" locus_tag="MCIC6FC_007684" class="clusterblast-orf" id="dummy-4_q21_0_all"  />
<polygon points="630,40 710,40 715,35 710,30 630,30 630,40 " style="fill:#15d815; stroke-width:1; stroke:black; " description="&lt;b&gt;MCIC6FC_007685&lt;/b&gt;&lt;br&gt;hypothetical protein&lt;br&gt;Location: 1173784 - 1184642" locus_tag="MCIC6FC_007685" class="clusterblast-orf" id="dummy-4_q22_0_all"  />
<polygon points="715,40 737,40 742,35 737,30 715,30 715,40 " style="fill:#b1d815; stroke-width:1; stroke:black; " description="&lt;b&gt;MCIC6FC_007686&lt;/b&gt;&lt;br&gt;hypothetical protein&lt;br&gt;Location: 1184649 - 1188017" locus_tag="MCIC6FC_007686" class="clusterblast-orf" id="dummy-4_q23_0_all"  />
<polygon points="743,40 762,40 767,35 762,30 743,30 743,40 " style="fill:#15d8b1; stroke-width:1; stroke:black; " description="&lt;b&gt;MCIC6FC_007687&lt;/b&gt;&lt;br&gt;hypothetical protein&lt;br&gt;Location: 1188087 - 1191138" locus_tag="MCIC6FC_007687" class="clusterblast-orf" id="dummy-4_q24_0_all"  />
<polygon points="767,35 772,30 780,30 780,40 772,40 767,35 " style="fill:#6315d8; stroke-width:1; stroke:black; " description="&lt;b&gt;MCIC6FC_007688&lt;/b&gt;&lt;br&gt;hypothetical protein&lt;br&gt;Location: 1191187 - 1192790" locus_tag="MCIC6FC_007688" class="clusterblast-orf" id="dummy-4_q25_0_all"  />
</g>
<g label="NZ_VEIM01000014" description="NZ_VEIM01000014 (55629-119538): Pseudomonas sp. URMO17WK12:I11 strain DE0021 ... (33% of genes show similarity), NRPS" class="clusterblast-cluster"  >
<text x="5" y="70" class="clusterblast-acc"  >
<a xlink:href="https://antismash-db.secondarymetabolites.org/area.html?record=NZ_VEIM01000014&amp;start=55629&amp;end=119538" target="_blank">NZ_VEIM01000014 (55629-119538)</a>: Pseudomonas sp. URMO17WK12:I11 strain DE0021 ... (33% of genes show similarity), NRPS</text>
<line x1="10" y1="85" x2="778.0" y2="85" style="stroke-width:1; stroke:grey; "  />
</g>
<g id="a4_000"  >
<polygon points="162,90 163,85 162,80 162,90 " style="fill:white; stroke-width:1; stroke:black; " description="&lt;b&gt;FS699_RS17665&lt;/b&gt;&lt;br&gt;stress-induced protein&lt;br&gt;Location: 58584 - 58811" locus_tag="FS699_RS17665" class="clusterblast-orf" id="dummy-4_h4_7_0"  />
</g>
<g id="a4_001"  >
<polygon points="164,90 167,85 164,80 164,90 " style="fill:white; stroke-width:1; stroke:black; " description="&lt;b&gt;FS699_RS17670&lt;/b&gt;&lt;br&gt;hypothetical protein&lt;br&gt;Location: 58942 - 59211" locus_tag="FS699_RS17670" class="clusterblast-orf" id="dummy-4_h4_7_1"  />
</g>
<g id="a4_002"  >
<polygon points="167,85 168,80 168,90 167,85 " style="fill:white; stroke-width:1; stroke:black; " description="&lt;b&gt;FS699_RS22430&lt;/b&gt;&lt;br&gt;hypothetical protein&lt;br&gt;Location: 59237 - 59404" locus_tag="FS699_RS22430" class="clusterblast-orf" id="dummy-4_h4_7_2"  />
</g>
<g id="a4_003"  >
<polygon points="169,85 174,80 174,80 174,90 174,90 169,85 " style="fill:white; stroke-width:1; stroke:black; " description="&lt;b&gt;FS699_RS17675&lt;/b&gt;&lt;br&gt;response regulator&lt;br&gt;Location: 59562 - 60176" locus_tag="FS699_RS17675" class="clusterblast-orf" id="dummy-4_h4_7_3"  />
</g>
<g id="a4_004"  >
<polygon points="175,90 183,90 188,85 183,80 175,80 175,90 " style="fill:white; stroke-width:1; stroke:black; " description="&lt;b&gt;FS699_RS17680&lt;/b&gt;&lt;br&gt;response regulator&lt;br&gt;Location: 60292 - 61914" locus_tag="FS699_RS17680" class="clusterblast-orf" id="dummy-4_h4_7_4"  />
</g>
<g id="a4_005"  >
<polygon points="188,85 190,80 190,90 188,85 " style="fill:white; stroke-width:1; stroke:black; " description="&lt;b&gt;FS699_RS17685&lt;/b&gt;&lt;br&gt;hypothetical protein&lt;br&gt;Location: 61929 - 62225" locus_tag="FS699_RS17685" class="clusterblast-orf" id="dummy-4_h4_7_5"  />
</g>
<g id="a4_006"  >
<polygon points="192,90 195,85 192,80 192,90 " style="fill:white; stroke-width:1; stroke:black; " description="&lt;b&gt;FS699_RS17690&lt;/b&gt;&lt;br&gt;transcriptional regulator&lt;br&gt;Location: 62455 - 62799" locus_tag="FS699_RS17690" class="clusterblast-orf" id="dummy-4_h4_7_6"  />
</g>
<g id="a4_007"  >
<polygon points="195,90 196,85 195,80 195,90 " style="fill:white; stroke-width:1; stroke:black; " description="&lt;b&gt;FS699_RS22435&lt;/b&gt;&lt;br&gt;hypothetical protein&lt;br&gt;Location: 62799 - 62939" locus_tag="FS699_RS22435" class="clusterblast-orf" id="dummy-4_h4_7_7"  />
</g>
<g id="a4_008"  >
<polygon points="196,85 201,80 206,80 206,90 201,90 196,85 " style="fill:white; stroke-width:1; stroke:black; " description="&lt;b&gt;FS699_RS17695&lt;/b&gt;&lt;br&gt;anion permease&lt;br&gt;Location: 62987 - 64240" locus_tag="FS699_RS17695" class="clusterblast-orf" id="dummy-4_h4_7_8"  />
</g>
<g id="a4_009"  >
<polygon points="206,85 211,80 216,80 216,90 211,90 206,85 " style="fill:white; stroke-width:1; stroke:black; " description="&lt;b&gt;FS699_RS17700&lt;/b&gt;&lt;br&gt;MFS transporter&lt;br&gt;Location: 64248 - 65498" locus_tag="FS699_RS17700" class="clusterblast-orf" id="dummy-4_h4_7_9"  />
</g>
<g id="a4_0010"  >
<polygon points="219,85 223,80 223,90 219,85 " style="fill:white; stroke-width:1; stroke:black; " description="&lt;b&gt;FS699_RS17705&lt;/b&gt;&lt;br&gt;methyltransferase domain-containing protein&lt;br&gt;Location: 65809 - 66420" locus_tag="FS699_RS17705" class="clusterblast-orf" id="dummy-4_h4_7_10"  />
</g>
<g id="a4_0011"  >
<polygon points="226,90 228,90 233,85 228,80 226,80 226,90 " style="fill:white; stroke-width:1; stroke:black; " description="&lt;b&gt;FS699_RS17710&lt;/b&gt;&lt;br&gt;hypothetical protein&lt;br&gt;Location: 66768 - 67676" locus_tag="FS699_RS17710" class="clusterblast-orf" id="dummy-4_h4_7_11"  />
</g>
<g id="a4_0012"  >
<polygon points="235,85 240,80 242,80 242,90 240,90 235,85 " style="fill:#15d863; stroke-width:1; stroke:black; " description="&lt;b&gt;FS699_RS17715&lt;/b&gt;&lt;br&gt;helix-turn-helix domain-containing protein&lt;br&gt;Location: 67901 - 68836&lt;br&gt;&lt;br&gt;&lt;b&gt;BlastP hit with MCIC6FC_007679&lt;/b&gt;&lt;br&gt;Percentage identity: 77&lt;br&gt;Percentage coverage: 94&lt;br&gt;BLAST bit score: 485&lt;br&gt;E-value: 5.8e-135" locus_tag="FS699_RS17715" class="clusterblast-orf" id="dummy-4_h4_7_12"  />
</g>
<g id="a4_0013"  >
<polygon points="245,85 250,80 261,80 261,90 250,90 245,85 " style="fill:#1515d8; stroke-width:1; stroke:black; " description="&lt;b&gt;FS699_RS17720&lt;/b&gt;&lt;br&gt;TonB-dependent receptor&lt;br&gt;Location: 69122 - 71251&lt;br&gt;&lt;br&gt;&lt;b&gt;BlastP hit with MCIC6FC_007680&lt;/b&gt;&lt;br&gt;Percentage identity: 55&lt;br&gt;Percentage coverage: 100&lt;br&gt;BLAST bit score: 755&lt;br&gt;E-value: 3.6e-216&lt;br&gt;&lt;br&gt;&lt;b&gt;BlastP hit with MCIC6FC_007681&lt;/b&gt;&lt;br&gt;Percentage identity: 83&lt;br&gt;Percentage coverage: 100&lt;br&gt;BLAST bit score: 1203&lt;br&gt;E-value: 0.0" locus_tag="FS699_RS17720" class="clusterblast-orf" id="dummy-4_h4_7_13"  />
</g>
<g id="a4_0014"  >
<polygon points="262,85 267,80 286,80 286,90 267,90 262,85 " style="fill:#d81563; stroke-width:1; stroke:black; " description="&lt;b&gt;FS699_RS17725&lt;/b&gt;&lt;br&gt;hypothetical protein&lt;br&gt;Location: 71287 - 74391&lt;br&gt;&lt;br&gt;&lt;b&gt;BlastP hit with MCIC6FC_007682&lt;/b&gt;&lt;br&gt;Percentage identity: 71&lt;br&gt;Percentage coverage: 80&lt;br&gt;BLAST bit score: 1425&lt;br&gt;E-value: 0.0" locus_tag="FS699_RS17725" class="clusterblast-orf" id="dummy-4_h4_7_14"  />
</g>
<g id="a4_0015"  >
<polygon points="286,85 291,80 293,80 293,90 291,90 286,85 " style="fill:#d81563; stroke-width:1; stroke:black; " description="&lt;b&gt;FS699_RS17730&lt;/b&gt;&lt;br&gt;ATP-binding cassette domain-containing protein&lt;br&gt;Location: 74388 - 75272&lt;br&gt;&lt;br&gt;&lt;b&gt;BlastP hit with MCIC6FC_007682&lt;/b&gt;&lt;br&gt;Percentage identity: 90&lt;br&gt;Percentage coverage: 21&lt;br&gt;BLAST bit score: 478&lt;br&gt;E-value: 2.1e-132" locus_tag="FS699_RS17730" class="clusterblast-orf" id="dummy-4_h4_7_15"  />
</g>
<g id="a4_0016"  >
<polygon points="296,90 342,90 347,85 342,80 296,80 296,90 " style="fill:#15d815; stroke-width:1; stroke:black; " description="&lt;b&gt;FS699_RS17735&lt;/b&gt;&lt;br&gt;amino acid adenylation domain-containing protein&lt;br&gt;Location: 75630 - 82085&lt;br&gt;&lt;br&gt;&lt;b&gt;BlastP hit with MCIC6FC_007683&lt;/b&gt;&lt;br&gt;Percentage identity: 76&lt;br&gt;Percentage coverage: 101&lt;br&gt;BLAST bit score: 3236&lt;br&gt;E-value: 0.0&lt;br&gt;&lt;br&gt;&lt;b&gt;BlastP hit with MCIC6FC_007684&lt;/b&gt;&lt;br&gt;Percentage identity: 43&lt;br&gt;Percentage coverage: 28&lt;br&gt;BLAST bit score: 667&lt;br&gt;E-value: 8.2e-189" locus_tag="FS699_RS17735" class="clusterblast-orf" id="dummy-4_h4_7_16"  />
</g>
<g id="a4_0017"  >
<polygon points="347,90 385,90 390,85 385,80 347,80 347,90 " style="fill:#15d815; stroke-width:1; stroke:black; " description="&lt;b&gt;FS699_RS17740&lt;/b&gt;&lt;br&gt;amino acid adenylation domain-containing protein&lt;br&gt;Location: 82122 - 87590&lt;br&gt;&lt;br&gt;&lt;b&gt;BlastP hit with MCIC6FC_007683&lt;/b&gt;&lt;br&gt;Percentage identity: 44&lt;br&gt;Percentage coverage: 43&lt;br&gt;BLAST bit score: 690&lt;br&gt;E-value: 7.7e-196&lt;br&gt;&lt;br&gt;&lt;b&gt;BlastP hit with MCIC6FC_007684&lt;/b&gt;&lt;br&gt;Percentage identity: 79&lt;br&gt;Percentage coverage: 55&lt;br&gt;BLAST bit score: 2794&lt;br&gt;E-value: 0.0&lt;br&gt;&lt;br&gt;&lt;b&gt;BlastP hit with MCIC6FC_007685&lt;/b&gt;&lt;br&gt;Percentage identity: 40&lt;br&gt;Percentage coverage: 12&lt;br&gt;BLAST bit score: 230&lt;br&gt;E-value: 2e-57" locus_tag="FS699_RS17740" class="clusterblast-orf" id="dummy-4_h4_7_17"  />
</g>
<g id="a4_0018"  >
<polygon points="390,90 399,90 404,85 399,80 390,80 390,90 " style="fill:#15d815; stroke-width:1; stroke:black; " description="&lt;b&gt;FS699_RS17745&lt;/b&gt;&lt;br&gt;ATP-binding cassette domain-containing protein&lt;br&gt;Location: 87587 - 89326&lt;br&gt;&lt;br&gt;&lt;b&gt;BlastP hit with MCIC6FC_007684&lt;/b&gt;&lt;br&gt;Percentage identity: 84&lt;br&gt;Percentage coverage: 17&lt;br&gt;BLAST bit score: 893&lt;br&gt;E-value: 7e-257" locus_tag="FS699_RS17745" class="clusterblast-orf" id="dummy-4_h4_7_18"  />
</g>
<g id="a4_0019"  >
<polygon points="404,90 412,90 417,85 412,80 404,80 404,90 " style="fill:#15d815; stroke-width:1; stroke:black; " description="&lt;b&gt;FS699_RS17750&lt;/b&gt;&lt;br&gt;ATP-binding cassette domain-containing protein&lt;br&gt;Location: 89323 - 91068&lt;br&gt;&lt;br&gt;&lt;b&gt;BlastP hit with MCIC6FC_007684&lt;/b&gt;&lt;br&gt;Percentage identity: 87&lt;br&gt;Percentage coverage: 17&lt;br&gt;BLAST bit score: 917&lt;br&gt;E-value: 3.5e-264" locus_tag="FS699_RS17750" class="clusterblast-orf" id="dummy-4_h4_7_19"  />
</g>
<g id="a4_0020"  >
<polygon points="417,90 421,90 426,85 421,80 417,80 417,90 " style="fill:#15d815; stroke-width:1; stroke:black; " description="&lt;b&gt;FS699_RS17755&lt;/b&gt;&lt;br&gt;saccharopine dehydrogenase&lt;br&gt;Location: 91062 - 92162&lt;br&gt;&lt;br&gt;&lt;b&gt;BlastP hit with MCIC6FC_007684&lt;/b&gt;&lt;br&gt;Percentage identity: 68&lt;br&gt;Percentage coverage: 11&lt;br&gt;BLAST bit score: 480&lt;br&gt;E-value: 1.4e-132" locus_tag="FS699_RS17755" class="clusterblast-orf" id="dummy-4_h4_7_20"  />
</g>
<g id="a4_0021"  >
<polygon points="426,90 429,90 434,85 429,80 426,80 426,90 " style="fill:white; stroke-width:1; stroke:black; " description="&lt;b&gt;FS699_RS17760&lt;/b&gt;&lt;br&gt;methyltransferase&lt;br&gt;Location: 92204 - 93193" locus_tag="FS699_RS17760" class="clusterblast-orf" id="dummy-4_h4_7_21"  />
</g>
<g id="a4_0022"  >
<polygon points="434,90 443,90 448,85 443,80 434,80 434,90 " style="fill:#15d815; stroke-width:1; stroke:black; " description="&lt;b&gt;FS699_RS17765&lt;/b&gt;&lt;br&gt;methyltransferase&lt;br&gt;Location: 93196 - 94914&lt;br&gt;&lt;br&gt;&lt;b&gt;BlastP hit with MCIC6FC_007685&lt;/b&gt;&lt;br&gt;Percentage identity: 68&lt;br&gt;Percentage coverage: 17&lt;br&gt;BLAST bit score: 734&lt;br&gt;E-value: 4.3e-209" locus_tag="FS699_RS17765" class="clusterblast-orf" id="dummy-4_h4_7_22"  />
</g>
<g id="a4_0023"  >
<polygon points="448,90 452,90 457,85 452,80 448,80 448,90 " style="fill:#15d815; stroke-width:1; stroke:black; " description="&lt;b&gt;FS699_RS17770&lt;/b&gt;&lt;br&gt;cytochrome P450&lt;br&gt;Location: 94911 - 96101&lt;br&gt;&lt;br&gt;&lt;b&gt;BlastP hit with MCIC6FC_007685&lt;/b&gt;&lt;br&gt;Percentage identity: 87&lt;br&gt;Percentage coverage: 11&lt;br&gt;BLAST bit score: 631&lt;br&gt;E-value: 3.9e-178" locus_tag="FS699_RS17770" class="clusterblast-orf" id="dummy-4_h4_7_23"  />
</g>
<g id="a4_0024"  >
<polygon points="457,90 461,90 466,85 461,80 457,80 457,90 " style="fill:#15d815; stroke-width:1; stroke:black; " description="&lt;b&gt;FS699_RS17775&lt;/b&gt;&lt;br&gt;Gfo/Idh/MocA family oxidoreductase&lt;br&gt;Location: 96044 - 97231&lt;br&gt;&lt;br&gt;&lt;b&gt;BlastP hit with MCIC6FC_007685&lt;/b&gt;&lt;br&gt;Percentage identity: 81&lt;br&gt;Percentage coverage: 11&lt;br&gt;BLAST bit score: 602&lt;br&gt;E-value: 3.3e-169" locus_tag="FS699_RS17775" class="clusterblast-orf" id="dummy-4_h4_7_24"  />
</g>
<g id="a4_0025"  >
<polygon points="466,90 467,90 472,85 467,80 466,80 466,90 " style="fill:white; stroke-width:1; stroke:black; " description="&lt;b&gt;FS699_RS17780&lt;/b&gt;&lt;br&gt;VOC family protein&lt;br&gt;Location: 97264 - 97947" locus_tag="FS699_RS17780" class="clusterblast-orf" id="dummy-4_h4_7_25"  />
</g>
<g id="a4_0026"  >
<polygon points="472,90 479,90 484,85 479,80 472,80 472,90 " style="fill:#15d815; stroke-width:1; stroke:black; " description="&lt;b&gt;FS699_RS17785&lt;/b&gt;&lt;br&gt;AMP-binding protein&lt;br&gt;Location: 97940 - 99538&lt;br&gt;&lt;br&gt;&lt;b&gt;BlastP hit with MCIC6FC_007670&lt;/b&gt;&lt;br&gt;Percentage identity: 38&lt;br&gt;Percentage coverage: 38&lt;br&gt;BLAST bit score: 316&lt;br&gt;E-value: 1.9e-83&lt;br&gt;&lt;br&gt;&lt;b&gt;BlastP hit with MCIC6FC_007685&lt;/b&gt;&lt;br&gt;Percentage identity: 79&lt;br&gt;Percentage coverage: 16&lt;br&gt;BLAST bit score: 831&lt;br&gt;E-value: 3.3e-238" locus_tag="FS699_RS17785" class="clusterblast-orf" id="dummy-4_h4_7_26"  />
</g>
<g id="a4_0027"  >
<polygon points="484,90 485,90 490,85 485,80 484,80 484,90 " style="fill:white; stroke-width:1; stroke:black; " description="&lt;b&gt;FS699_RS17790&lt;/b&gt;&lt;br&gt;alpha/beta fold hydrolase&lt;br&gt;Location: 99535 - 100287" locus_tag="FS699_RS17790" class="clusterblast-orf" id="dummy-4_h4_7_27"  />
</g>
<g id="a4_0028"  >
<polygon points="490,90 492,85 490,80 490,90 " style="fill:white; stroke-width:1; stroke:black; " description="&lt;b&gt;FS699_RS17795&lt;/b&gt;&lt;br&gt;isochorismate lyase&lt;br&gt;Location: 100290 - 100598" locus_tag="FS699_RS17795" class="clusterblast-orf" id="dummy-4_h4_7_28"  />
</g>
<g id="a4_0029"  >
<polygon points="492,90 498,90 503,85 498,80 492,80 492,90 " style="fill:#15d815; stroke-width:1; stroke:black; " description="&lt;b&gt;FS699_RS17800&lt;/b&gt;&lt;br&gt;isochorismate synthase&lt;br&gt;Location: 100595 - 101962&lt;br&gt;&lt;br&gt;&lt;b&gt;BlastP hit with MCIC6FC_007685&lt;/b&gt;&lt;br&gt;Percentage identity: 64&lt;br&gt;Percentage coverage: 13&lt;br&gt;BLAST bit score: 570&lt;br&gt;E-value: 1.1e-159" locus_tag="FS699_RS17800" class="clusterblast-orf" id="dummy-4_h4_7_29"  />
</g>
<g id="a4_0030"  >
<polygon points="505,85 510,80 510,80 510,90 510,90 505,85 " style="fill:white; stroke-width:1; stroke:black; " description="&lt;b&gt;FS699_RS17805&lt;/b&gt;&lt;br&gt;TetR family transcriptional regulator&lt;br&gt;Location: 102189 - 102776" locus_tag="FS699_RS17805" class="clusterblast-orf" id="dummy-4_h4_7_30"  />
</g>
<g id="a4_0031"  >
<polygon points="511,85 516,80 520,80 520,90 516,90 511,85 " style="fill:white; stroke-width:1; stroke:black; " description="&lt;b&gt;FS699_RS17810&lt;/b&gt;&lt;br&gt;MFS transporter&lt;br&gt;Location: 102934 - 104142" locus_tag="FS699_RS17810" class="clusterblast-orf" id="dummy-4_h4_7_31"  />
</g>
<g id="a4_0032"  >
<polygon points="525,90 526,90 531,85 526,80 525,80 525,90 " style="fill:white; stroke-width:1; stroke:black; " description="&lt;b&gt;FS699_RS17815&lt;/b&gt;&lt;br&gt;hypothetical protein&lt;br&gt;Location: 104773 - 105522" locus_tag="FS699_RS17815" class="clusterblast-orf" id="dummy-4_h4_7_32"  />
</g>
<g id="a4_0033"  >
<polygon points="532,90 536,85 532,80 532,90 " style="fill:white; stroke-width:1; stroke:black; " description="&lt;b&gt;FS699_RS17820&lt;/b&gt;&lt;br&gt;type VI secretion system contractile sheath small subunit&lt;br&gt;Location: 105587 - 106120" locus_tag="FS699_RS17820" class="clusterblast-orf" id="dummy-4_h4_7_33"  />
</g>
<g id="a4_0034"  >
<polygon points="536,90 543,90 548,85 543,80 536,80 536,90 " style="fill:white; stroke-width:1; stroke:black; " description="&lt;b&gt;FS699_RS17825&lt;/b&gt;&lt;br&gt;type VI secretion system contractile sheath large subunit&lt;br&gt;Location: 106135 - 107637" locus_tag="FS699_RS17825" class="clusterblast-orf" id="dummy-4_h4_7_34"  />
</g>
<g id="a4_0035"  >
<polygon points="548,90 552,85 548,80 548,90 " style="fill:white; stroke-width:1; stroke:black; " description="&lt;b&gt;FS699_RS17830&lt;/b&gt;&lt;br&gt;type VI secretion system baseplate subunit TssE&lt;br&gt;Location: 107670 - 108152" locus_tag="FS699_RS17830" class="clusterblast-orf" id="dummy-4_h4_7_35"  />
</g>
<g id="a4_0036"  >
<polygon points="552,90 561,90 566,85 561,80 552,80 552,90 " style="fill:white; stroke-width:1; stroke:black; " description="&lt;b&gt;FS699_RS17835&lt;/b&gt;&lt;br&gt;type VI secretion system baseplate subunit TssF&lt;br&gt;Location: 108152 - 109984" locus_tag="FS699_RS17835" class="clusterblast-orf" id="dummy-4_h4_7_36"  />
</g>
<g id="a4_0037"  >
<polygon points="566,90 569,90 574,85 569,80 566,80 566,90 " style="fill:white; stroke-width:1; stroke:black; " description="&lt;b&gt;FS699_RS17840&lt;/b&gt;&lt;br&gt;type VI secretion system baseplate subunit TssG&lt;br&gt;Location: 109948 - 111018" locus_tag="FS699_RS17840" class="clusterblast-orf" id="dummy-4_h4_7_37"  />
</g>
<g id="a4_0038"  >
<polygon points="574,90 590,90 595,85 590,80 574,80 574,90 " style="fill:white; stroke-width:1; stroke:black; " description="&lt;b&gt;FS699_RS17845&lt;/b&gt;&lt;br&gt;type VI secretion system ATPase TssH&lt;br&gt;Location: 111015 - 113612" locus_tag="FS699_RS17845" class="clusterblast-orf" id="dummy-4_h4_7_38"  />
</g>
<g id="a4_0039"  >
<polygon points="596,90 596,90 601,85 596,80 596,80 596,90 " style="fill:white; stroke-width:1; stroke:black; " description="&lt;b&gt;FS699_RS17850&lt;/b&gt;&lt;br&gt;type VI secretion system lipoprotein TssJ&lt;br&gt;Location: 113687 - 114409" locus_tag="FS699_RS17850" class="clusterblast-orf" id="dummy-4_h4_7_39"  />
</g>
<g id="a4_0040"  >
<polygon points="601,90 607,90 612,85 607,80 601,80 601,90 " style="fill:white; stroke-width:1; stroke:black; " description="&lt;b&gt;FS699_RS17855&lt;/b&gt;&lt;br&gt;type VI secretion system baseplate subunit TssK&lt;br&gt;Location: 114406 - 115749" locus_tag="FS699_RS17855" class="clusterblast-orf" id="dummy-4_h4_7_40"  />
</g>
<g id="a4_0041"  >
<polygon points="612,90 612,90 617,85 612,80 612,80 612,90 " style="fill:white; stroke-width:1; stroke:black; " description="&lt;b&gt;FS699_RS17860&lt;/b&gt;&lt;br&gt;DotU family type IV/VI secretion system protein&lt;br&gt;Location: 115746 - 116459" locus_tag="FS699_RS17860" class="clusterblast-orf" id="dummy-4_h4_7_41"  />
</g>
</svg>
