<svg xmlns="http://www.w3.org/2000/svg" xmlns:xlink="http://www.w3.org/1999/xlink" version="1.1" x="0" y="0" height="230" width="800" viewBox="0 0 800 230" preserveAspectRatio="none"  >
<g label="Query sequence" class="clusterblast-cluster"  >
<text x="5" y="20" class="clusterblast-acc"  >
Query sequence</text>
<line x1="10" y1="35" x2="778.0" y2="35" style="stroke-width:1; stroke:grey; "  />
<polygon points="272,40 340,40 345,35 340,30 272,30 272,40 " style="fill:#d81515; stroke-width:1; stroke:black; " description="&lt;b&gt;MCIC6FC_010447&lt;/b&gt;&lt;br&gt;hypothetical protein&lt;br&gt;Location: 151343 - 154644" locus_tag="MCIC6FC_010447" class="clusterblast-orf" id="dummy-1_q0_0_all"  />
<polygon points="364,40 375,40 380,35 375,30 364,30 364,40 " style="fill:#77d815; stroke-width:1; stroke:black; " description="&lt;b&gt;MCIC6FC_010448&lt;/b&gt;&lt;br&gt;hypothetical protein&lt;br&gt;Location: 155471 - 156215" locus_tag="MCIC6FC_010448" class="clusterblast-orf" id="dummy-1_q1_0_all"  />
<polygon points="381,40 413,40 418,35 413,30 381,30 381,40 " style="fill:#15d8d8; stroke-width:1; stroke:black; " description="&lt;b&gt;MCIC6FC_010449&lt;/b&gt;&lt;br&gt;hypothetical protein&lt;br&gt;Location: 156240 - 157904" locus_tag="MCIC6FC_010449" class="clusterblast-orf" id="dummy-1_q2_0_all"  />
<polygon points="421,40 502,40 507,35 502,30 421,30 421,40 " style="fill:#7715d8; stroke-width:1; stroke:black; " description="&lt;b&gt;MCIC6FC_010450&lt;/b&gt;&lt;br&gt;hypothetical protein&lt;br&gt;Location: 158056 - 161937" locus_tag="MCIC6FC_010450" class="clusterblast-orf" id="dummy-1_q3_0_all"  />
</g>
<g label="NZ_CP028519" description="NZ_CP028519 (139097-175576): Microvirgula aerodenitrificans strain BE2.4 chro... (10% of genes show similarity), betalactone" class="clusterblast-cluster"  >
<text x="5" y="70" class="clusterblast-acc"  >
<a xlink:href="https://antismash-db.secondarymetabolites.org/area.html?record=NZ_CP028519&amp;start=139097&amp;end=175576" target="_blank">NZ_CP028519 (139097-175576)</a>: Microvirgula aerodenitrificans strain BE2.4 chro... (10% of genes show similarity), betalactone</text>
<line x1="10" y1="85" x2="778.0" y2="85" style="stroke-width:1; stroke:grey; "  />
</g>
<g id="a1_000"  >
<polygon points="0,85 5,80 10,80 10,90 5,90 0,85 " style="fill:white; stroke-width:1; stroke:black; " description="&lt;b&gt;DAI18_RS00650&lt;/b&gt;&lt;br&gt;Cd(II)/Pb(II)-responsive transcriptional regulator&lt;br&gt;Location: 139623 - 140084" locus_tag="DAI18_RS00650" class="clusterblast-orf" id="dummy-1_h1_5_0"  />
</g>
<g id="a1_001"  >
<polygon points="12,90 59,90 64,85 59,80 12,80 12,90 " style="fill:#d81515; stroke-width:1; stroke:black; " description="&lt;b&gt;DAI18_RS00655&lt;/b&gt;&lt;br&gt;heavy metal translocating P-type ATPase&lt;br&gt;Location: 140189 - 142507&lt;br&gt;&lt;br&gt;&lt;b&gt;BlastP hit with MCIC6FC_010447&lt;/b&gt;&lt;br&gt;Percentage identity: 62&lt;br&gt;Percentage coverage: 67&lt;br&gt;BLAST bit score: 816&lt;br&gt;E-value: 2.8e-234" locus_tag="DAI18_RS00655" class="clusterblast-orf" id="dummy-1_h1_5_1"  />
</g>
<g id="a1_002"  >
<polygon points="65,90 67,90 72,85 67,80 65,80 65,90 " style="fill:white; stroke-width:1; stroke:black; " description="&lt;b&gt;DAI18_RS00660&lt;/b&gt;&lt;br&gt;hypothetical protein&lt;br&gt;Location: 142550 - 142867" locus_tag="DAI18_RS00660" class="clusterblast-orf" id="dummy-1_h1_5_2"  />
</g>
<g id="a1_003"  >
<polygon points="76,90 123,90 128,85 123,80 76,80 76,90 " style="fill:#d81515; stroke-width:1; stroke:black; " description="&lt;b&gt;DAI18_RS00665&lt;/b&gt;&lt;br&gt;copper-translocating P-type ATPase&lt;br&gt;Location: 143055 - 145424&lt;br&gt;&lt;br&gt;&lt;b&gt;BlastP hit with MCIC6FC_010447&lt;/b&gt;&lt;br&gt;Percentage identity: 32&lt;br&gt;Percentage coverage: 66&lt;br&gt;BLAST bit score: 301&lt;br&gt;E-value: 3.9e-79" locus_tag="DAI18_RS00665" class="clusterblast-orf" id="dummy-1_h1_5_3"  />
</g>
<g id="a1_004"  >
<polygon points="129,90 129,90 134,85 129,80 129,80 129,90 " style="fill:white; stroke-width:1; stroke:black; " description="&lt;b&gt;DAI18_RS00670&lt;/b&gt;&lt;br&gt;heavy-metal-associated domain-containing protein&lt;br&gt;Location: 145472 - 145672" locus_tag="DAI18_RS00670" class="clusterblast-orf" id="dummy-1_h1_5_4"  />
</g>
<g id="a1_005"  >
<polygon points="133,90 135,90 140,85 135,80 133,80 133,90 " style="fill:white; stroke-width:1; stroke:black; " description="&lt;b&gt;DAI18_RS00675&lt;/b&gt;&lt;br&gt;metal-sensitive transcriptional regulator&lt;br&gt;Location: 145650 - 145970" locus_tag="DAI18_RS00675" class="clusterblast-orf" id="dummy-1_h1_5_5"  />
</g>
<g id="a1_006"  >
<polygon points="143,90 161,90 166,85 161,80 143,80 143,90 " style="fill:white; stroke-width:1; stroke:black; " description="&lt;b&gt;DAI18_RS00680&lt;/b&gt;&lt;br&gt;depolymerase&lt;br&gt;Location: 146067 - 147131" locus_tag="DAI18_RS00680" class="clusterblast-orf" id="dummy-1_h1_5_6"  />
</g>
<g id="a1_007"  >
<polygon points="166,85 171,80 195,80 195,90 171,90 166,85 " style="fill:white; stroke-width:1; stroke:black; " description="&lt;b&gt;DAI18_RS00685&lt;/b&gt;&lt;br&gt;D-amino acid dehydrogenase&lt;br&gt;Location: 147103 - 148413" locus_tag="DAI18_RS00685" class="clusterblast-orf" id="dummy-1_h1_5_7"  />
</g>
<g id="a1_008"  >
<polygon points="198,90 204,90 209,85 204,80 198,80 198,90 " style="fill:white; stroke-width:1; stroke:black; " description="&lt;b&gt;DAI18_RS00690&lt;/b&gt;&lt;br&gt;winged helix-turn-helix transcriptional regulator&lt;br&gt;Location: 148576 - 149064" locus_tag="DAI18_RS00690" class="clusterblast-orf" id="dummy-1_h1_5_8"  />
</g>
<g id="a1_009"  >
<polygon points="210,85 215,80 247,80 247,90 215,90 210,85 " style="fill:white; stroke-width:1; stroke:black; " description="&lt;b&gt;DAI18_RS00695&lt;/b&gt;&lt;br&gt;AMP-binding protein&lt;br&gt;Location: 149098 - 150774" locus_tag="DAI18_RS00695" class="clusterblast-orf" id="dummy-1_h1_5_9"  />
</g>
<g id="a1_0010"  >
<polygon points="252,90 274,90 279,85 274,80 252,80 252,90 " style="fill:white; stroke-width:1; stroke:black; " description="&lt;b&gt;DAI18_RS00700&lt;/b&gt;&lt;br&gt;isovaleryl-CoA dehydrogenase&lt;br&gt;Location: 151014 - 152189" locus_tag="DAI18_RS00700" class="clusterblast-orf" id="dummy-1_h1_5_10"  />
</g>
<g id="a1_0011"  >
<polygon points="279,90 309,90 314,85 309,80 279,80 279,90 " style="fill:white; stroke-width:1; stroke:black; " description="&lt;b&gt;DAI18_RS00705&lt;/b&gt;&lt;br&gt;methylcrotonoyl-CoA carboxylase&lt;br&gt;Location: 152203 - 153801" locus_tag="DAI18_RS00705" class="clusterblast-orf" id="dummy-1_h1_5_11"  />
</g>
<g id="a1_0012"  >
<polygon points="315,90 354,90 359,85 354,80 315,80 315,90 " style="fill:white; stroke-width:1; stroke:black; " description="&lt;b&gt;DAI18_RS00710&lt;/b&gt;&lt;br&gt;acetyl/propionyl/methylcrotonyl-CoA carboxylase subunit alpha&lt;br&gt;Location: 153830 - 155791" locus_tag="DAI18_RS00710" class="clusterblast-orf" id="dummy-1_h1_5_12"  />
</g>
<g id="a1_0013"  >
<polygon points="359,90 375,90 380,85 375,80 359,80 359,90 " style="fill:white; stroke-width:1; stroke:black; " description="&lt;b&gt;DAI18_RS00715&lt;/b&gt;&lt;br&gt;hydroxymethylglutaryl-CoA lyase&lt;br&gt;Location: 155820 - 156737" locus_tag="DAI18_RS00715" class="clusterblast-orf" id="dummy-1_h1_5_13"  />
</g>
<g id="a1_0014"  >
<polygon points="381,90 397,90 402,85 397,80 381,80 381,90 " style="fill:white; stroke-width:1; stroke:black; " description="&lt;b&gt;DAI18_RS00720&lt;/b&gt;&lt;br&gt;MurR/RpiR family transcriptional regulator&lt;br&gt;Location: 156817 - 157749" locus_tag="DAI18_RS00720" class="clusterblast-orf" id="dummy-1_h1_5_14"  />
</g>
<g id="a1_0015"  >
<polygon points="405,90 417,90 422,85 417,80 405,80 405,90 " style="fill:white; stroke-width:1; stroke:black; " description="&lt;b&gt;DAI18_RS00725&lt;/b&gt;&lt;br&gt;glutamine ABC transporter substrate-binding protein GlnH&lt;br&gt;Location: 157889 - 158641" locus_tag="DAI18_RS00725" class="clusterblast-orf" id="dummy-1_h1_5_15"  />
</g>
<g id="a1_0016"  >
<polygon points="426,90 436,90 441,85 436,80 426,80 426,90 " style="fill:white; stroke-width:1; stroke:black; " description="&lt;b&gt;DAI18_RS00730&lt;/b&gt;&lt;br&gt;glutamine ABC transporter permease GlnP&lt;br&gt;Location: 158831 - 159487" locus_tag="DAI18_RS00730" class="clusterblast-orf" id="dummy-1_h1_5_16"  />
</g>
<g id="a1_0017"  >
<polygon points="441,90 452,90 457,85 452,80 441,80 441,90 " style="fill:#7715d8; stroke-width:1; stroke:black; " description="&lt;b&gt;DAI18_RS00735&lt;/b&gt;&lt;br&gt;glutamine ABC transporter ATP-binding protein GlnQ&lt;br&gt;Location: 159490 - 160212&lt;br&gt;&lt;br&gt;&lt;b&gt;BlastP hit with MCIC6FC_010450&lt;/b&gt;&lt;br&gt;Percentage identity: 34&lt;br&gt;Percentage coverage: 20&lt;br&gt;BLAST bit score: 129&lt;br&gt;E-value: 2.3e-27" locus_tag="DAI18_RS00735" class="clusterblast-orf" id="dummy-1_h1_5_17"  />
</g>
<g id="a1_0018"  >
<polygon points="457,90 475,90 480,85 475,80 457,80 457,90 " style="fill:white; stroke-width:1; stroke:black; " description="&lt;b&gt;DAI18_RS00740&lt;/b&gt;&lt;br&gt;peptidase C45&lt;br&gt;Location: 160209 - 161261" locus_tag="DAI18_RS00740" class="clusterblast-orf" id="dummy-1_h1_5_18"  />
</g>
<g id="a1_0019"  >
<polygon points="482,90 507,90 512,85 507,80 482,80 482,90 " style="fill:white; stroke-width:1; stroke:black; " description="&lt;b&gt;DAI18_RS00745&lt;/b&gt;&lt;br&gt;aspartate aminotransferase family protein&lt;br&gt;Location: 161370 - 162698" locus_tag="DAI18_RS00745" class="clusterblast-orf" id="dummy-1_h1_5_19"  />
</g>
<g id="a1_0020"  >
<polygon points="512,90 526,90 531,85 526,80 512,80 512,90 " style="fill:white; stroke-width:1; stroke:black; " description="&lt;b&gt;DAI18_RS00750&lt;/b&gt;&lt;br&gt;3-keto-5-aminohexanoate cleavage protein&lt;br&gt;Location: 162703 - 163557" locus_tag="DAI18_RS00750" class="clusterblast-orf" id="dummy-1_h1_5_20"  />
</g>
<g id="a1_0021"  >
<polygon points="533,90 571,90 576,85 571,80 533,80 533,90 " style="fill:white; stroke-width:1; stroke:black; " description="&lt;b&gt;DAI18_RS00755&lt;/b&gt;&lt;br&gt;acetoacetate--CoA ligase&lt;br&gt;Location: 163628 - 165576" locus_tag="DAI18_RS00755" class="clusterblast-orf" id="dummy-1_h1_5_21"  />
</g>
<g id="a1_0022"  >
<polygon points="576,85 581,80 612,80 612,90 581,90 576,85 " style="fill:white; stroke-width:1; stroke:black; " description="&lt;b&gt;DAI18_RS00760&lt;/b&gt;&lt;br&gt;hypothetical protein&lt;br&gt;Location: 165590 - 167209" locus_tag="DAI18_RS00760" class="clusterblast-orf" id="dummy-1_h1_5_22"  />
</g>
<g id="a1_0023"  >
<polygon points="615,85 620,80 623,80 623,90 620,90 615,85 " style="fill:white; stroke-width:1; stroke:black; " description="&lt;b&gt;DAI18_RS00765&lt;/b&gt;&lt;br&gt;RidA family protein&lt;br&gt;Location: 167344 - 167691" locus_tag="DAI18_RS00765" class="clusterblast-orf" id="dummy-1_h1_5_23"  />
</g>
<g id="a1_0024"  >
<polygon points="623,85 628,80 649,80 649,90 628,90 623,85 " style="fill:white; stroke-width:1; stroke:black; " description="&lt;b&gt;DAI18_RS00770&lt;/b&gt;&lt;br&gt;DUF1016 domain-containing protein&lt;br&gt;Location: 167688 - 168872" locus_tag="DAI18_RS00770" class="clusterblast-orf" id="dummy-1_h1_5_24"  />
</g>
<g id="a1_0025"  >
<polygon points="651,85 656,80 713,80 713,90 656,90 651,85 " style="fill:white; stroke-width:1; stroke:black; " description="&lt;b&gt;DAI18_RS00775&lt;/b&gt;&lt;br&gt;cell division protein FtsK&lt;br&gt;Location: 168939 - 171758" locus_tag="DAI18_RS00775" class="clusterblast-orf" id="dummy-1_h1_5_25"  />
</g>
<g id="a1_0026"  >
<polygon points="717,85 722,80 747,80 747,90 722,90 717,85 " style="fill:white; stroke-width:1; stroke:black; " description="&lt;b&gt;DAI18_RS00780&lt;/b&gt;&lt;br&gt;L-serine ammonia-lyase&lt;br&gt;Location: 171920 - 173287" locus_tag="DAI18_RS00780" class="clusterblast-orf" id="dummy-1_h1_5_26"  />
</g>
<g id="a1_0027"  >
<polygon points="749,85 754,80 759,80 759,90 754,90 749,85 " style="fill:white; stroke-width:1; stroke:black; " description="&lt;b&gt;DAI18_RS00785&lt;/b&gt;&lt;br&gt;D-tyrosyl-tRNA(Tyr) deacylase&lt;br&gt;Location: 173379 - 173831" locus_tag="DAI18_RS00785" class="clusterblast-orf" id="dummy-1_h1_5_27"  />
</g>
<g id="a1_0028"  >
<polygon points="762,90 775,90 780,85 775,80 762,80 762,90 " style="fill:white; stroke-width:1; stroke:black; " description="&lt;b&gt;DAI18_RS00790&lt;/b&gt;&lt;br&gt;peroxide stress protein YaaA&lt;br&gt;Location: 173961 - 174743" locus_tag="DAI18_RS00790" class="clusterblast-orf" id="dummy-1_h1_5_28"  />
</g>
</svg>
