<svg xmlns="http://www.w3.org/2000/svg" xmlns:xlink="http://www.w3.org/1999/xlink" version="1.1" x="0" y="0" height="230" width="800" viewBox="0 0 800 230" preserveAspectRatio="none"  >
<g label="Query sequence" class="clusterblast-cluster"  >
<text x="5" y="20" class="clusterblast-acc"  >
Query sequence</text>
<line x1="10" y1="35" x2="778.0" y2="35" style="stroke-width:1; stroke:grey; "  />
<polygon points="109,35 114,30 150,30 150,40 114,40 109,35 " style="fill:#d81515; stroke-width:1; stroke:black; " description="&lt;b&gt;MCIC6FC_011658&lt;/b&gt;&lt;br&gt;hypothetical protein&lt;br&gt;Location: 100 - 2360" locus_tag="MCIC6FC_011658" class="clusterblast-orf" id="dummy-1_q0_0_all"  />
<polygon points="152,35 157,30 180,30 180,40 157,40 152,35 " style="fill:#5cd815; stroke-width:1; stroke:black; " description="&lt;b&gt;MCIC6FC_011659&lt;/b&gt;&lt;br&gt;hypothetical protein&lt;br&gt;Location: 2465 - 3959" locus_tag="MCIC6FC_011659" class="clusterblast-orf" id="dummy-1_q1_0_all"  />
<polygon points="185,40 214,40 219,35 214,30 185,30 185,40 " style="fill:#15a3d8; stroke-width:1; stroke:black; " description="&lt;b&gt;MCIC6FC_011660&lt;/b&gt;&lt;br&gt;hypothetical protein&lt;br&gt;Location: 4238 - 6118" locus_tag="MCIC6FC_011660" class="clusterblast-orf" id="dummy-1_q2_0_all"  />
<polygon points="220,35 225,30 319,30 319,40 225,40 220,35 " style="fill:#c715d8; stroke-width:1; stroke:black; " description="&lt;b&gt;MCIC6FC_011661&lt;/b&gt;&lt;br&gt;hypothetical protein&lt;br&gt;Location: 6149 - 11584" locus_tag="MCIC6FC_011661" class="clusterblast-orf" id="dummy-1_q3_0_all"  />
<polygon points="328,35 333,30 344,30 344,40 333,40 328,35 " style="fill:#d88015; stroke-width:1; stroke:black; " description="&lt;b&gt;MCIC6FC_011662&lt;/b&gt;&lt;br&gt;hypothetical protein&lt;br&gt;Location: 12070 - 12936" locus_tag="MCIC6FC_011662" class="clusterblast-orf" id="dummy-1_q4_0_all"  />
<polygon points="347,40 408,40 413,35 408,30 347,30 347,40 " style="fill:#15d839; stroke-width:1; stroke:black; " description="&lt;b&gt;MCIC6FC_011663&lt;/b&gt;&lt;br&gt;hypothetical protein&lt;br&gt;Location: 13099 - 16745" locus_tag="MCIC6FC_011663" class="clusterblast-orf" id="dummy-1_q5_0_all"  />
<polygon points="416,40 428,40 433,35 428,30 416,30 416,40 " style="fill:#1539d8; stroke-width:1; stroke:black; " description="&lt;b&gt;MCIC6FC_011664&lt;/b&gt;&lt;br&gt;hypothetical protein&lt;br&gt;Location: 16896 - 17817" locus_tag="MCIC6FC_011664" class="clusterblast-orf" id="dummy-1_q6_0_all"  />
<polygon points="437,40 506,40 511,35 506,30 437,30 437,40 " style="fill:#d81580; stroke-width:1; stroke:black; " description="&lt;b&gt;MCIC6FC_011665&lt;/b&gt;&lt;br&gt;hypothetical protein&lt;br&gt;Location: 18044 - 22102" locus_tag="MCIC6FC_011665" class="clusterblast-orf" id="dummy-1_q7_0_all"  />
<polygon points="514,35 519,30 566,30 566,40 519,40 514,35 " style="fill:#c7d815; stroke-width:1; stroke:black; " description="&lt;b&gt;MCIC6FC_011666&lt;/b&gt;&lt;br&gt;hypothetical protein&lt;br&gt;Location: 22217 - 25086" locus_tag="MCIC6FC_011666" class="clusterblast-orf" id="dummy-1_q8_0_all"  />
<polygon points="575,40 653,40 658,35 653,30 575,30 575,40 " style="fill:#15d8a3; stroke-width:1; stroke:black; " description="&lt;b&gt;MCIC6FC_011667&lt;/b&gt;&lt;br&gt;hypothetical protein&lt;br&gt;Location: 25569 - 30093" locus_tag="MCIC6FC_011667" class="clusterblast-orf" id="dummy-1_q9_0_all"  />
<polygon points="663,40 665,40 670,35 665,30 663,30 663,40 " style="fill:#5c15d8; stroke-width:1; stroke:black; " description="&lt;b&gt;MCIC6FC_011668&lt;/b&gt;&lt;br&gt;hypothetical protein&lt;br&gt;Location: 30394 - 30787" locus_tag="MCIC6FC_011668" class="clusterblast-orf" id="dummy-1_q10_0_all"  />
</g>
<g label="NZ_CP058533" description="NZ_CP058533 (4225421-4268799): Pseudomonas fluorescens strain W-6 chromosome,... (59% of genes show similarity), NRPS-like" class="clusterblast-cluster"  >
<text x="5" y="70" class="clusterblast-acc"  >
<a xlink:href="https://antismash-db.secondarymetabolites.org/area.html?record=NZ_CP058533&amp;start=4225421&amp;end=4268799" target="_blank">NZ_CP058533 (4225421-4268799)</a>: Pseudomonas fluorescens strain W-6 chromosome,... (59% of genes show similarity), NRPS-like</text>
<line x1="10" y1="85" x2="778.0" y2="85" style="stroke-width:1; stroke:grey; "  />
</g>
<g id="a1_000"  >
<polygon points="0,85 5,80 27,80 27,90 5,90 0,85 " style="fill:white; stroke-width:1; stroke:black; " description="&lt;b&gt;HXS75_RS19100&lt;/b&gt;&lt;br&gt;acetyl-CoA hydrolase/transferase family protein&lt;br&gt;Location: 4268613 - 4267120" locus_tag="HXS75_RS19100" class="clusterblast-orf" id="dummy-1_h1_5_0"  />
</g>
<g id="a1_001"  >
<polygon points="30,85 35,80 56,80 56,90 35,90 30,85 " style="fill:white; stroke-width:1; stroke:black; " description="&lt;b&gt;HXS75_RS19095&lt;/b&gt;&lt;br&gt;NAD(P)(+) transhydrogenase (Re/Si-specific) subunit beta&lt;br&gt;Location: 4266940 - 4265504" locus_tag="HXS75_RS19095" class="clusterblast-orf" id="dummy-1_h1_5_1"  />
</g>
<g id="a1_002"  >
<polygon points="56,85 61,80 62,80 62,90 61,90 56,85 " style="fill:white; stroke-width:1; stroke:black; " description="&lt;b&gt;HXS75_RS19090&lt;/b&gt;&lt;br&gt;NAD(P) transhydrogenase subunit alpha&lt;br&gt;Location: 4265504 - 4265181" locus_tag="HXS75_RS19090" class="clusterblast-orf" id="dummy-1_h1_5_2"  />
</g>
<g id="a1_003"  >
<polygon points="63,85 68,80 83,80 83,90 68,90 63,85 " style="fill:white; stroke-width:1; stroke:black; " description="&lt;b&gt;HXS75_RS19085&lt;/b&gt;&lt;br&gt;Re/Si-specific NAD(P)(+) transhydrogenase subunit alpha&lt;br&gt;Location: 4265165 - 4264044" locus_tag="HXS75_RS19085" class="clusterblast-orf" id="dummy-1_h1_5_3"  />
</g>
<g id="a1_004"  >
<polygon points="91,85 96,80 108,80 108,90 96,90 91,85 " style="fill:white; stroke-width:1; stroke:black; " description="&lt;b&gt;HXS75_RS19080&lt;/b&gt;&lt;br&gt;LysR family transcriptional regulator&lt;br&gt;Location: 4263591 - 4262692" locus_tag="HXS75_RS19080" class="clusterblast-orf" id="dummy-1_h1_5_4"  />
</g>
<g id="a1_005"  >
<polygon points="111,90 127,90 132,85 127,80 111,80 111,90 " style="fill:white; stroke-width:1; stroke:black; " description="&lt;b&gt;HXS75_RS19075&lt;/b&gt;&lt;br&gt;acyl-CoA dehydrogenase&lt;br&gt;Location: 4262535 - 4261354" locus_tag="HXS75_RS19075" class="clusterblast-orf" id="dummy-1_h1_5_5"  />
</g>
<g id="a1_006"  >
<polygon points="133,90 150,90 155,85 150,80 133,80 133,90 " style="fill:white; stroke-width:1; stroke:black; " description="&lt;b&gt;HXS75_RS19070&lt;/b&gt;&lt;br&gt;CoA transferase&lt;br&gt;Location: 4261341 - 4260121" locus_tag="HXS75_RS19070" class="clusterblast-orf" id="dummy-1_h1_5_6"  />
</g>
<g id="a1_007"  >
<polygon points="266,85 271,80 284,80 284,90 271,90 266,85 " style="fill:#d81515; stroke-width:1; stroke:black; " description="&lt;b&gt;HXS75_RS19035&lt;/b&gt;&lt;br&gt;TonB-dependent receptor plug domain-containing protein&lt;br&gt;Location: 4254022 - 4253041&lt;br&gt;&lt;br&gt;&lt;b&gt;BlastP hit with MCIC6FC_011658&lt;/b&gt;&lt;br&gt;Percentage identity: 54&lt;br&gt;Percentage coverage: 11&lt;br&gt;BLAST bit score: 81&lt;br&gt;E-value: 5.8e-13" locus_tag="HXS75_RS19035" class="clusterblast-orf" id="dummy-1_h1_5_7"  />
</g>
<g id="a1_008"  >
<polygon points="286,85 291,80 304,80 304,90 291,90 286,85 " style="fill:#5cd815; stroke-width:1; stroke:black; " description="&lt;b&gt;HXS75_RS19030&lt;/b&gt;&lt;br&gt;FecR family protein&lt;br&gt;Location: 4252956 - 4251982&lt;br&gt;&lt;br&gt;&lt;b&gt;BlastP hit with MCIC6FC_011659&lt;/b&gt;&lt;br&gt;Percentage identity: 68&lt;br&gt;Percentage coverage: 70&lt;br&gt;BLAST bit score: 394&lt;br&gt;E-value: 1.1e-107" locus_tag="HXS75_RS19030" class="clusterblast-orf" id="dummy-1_h1_5_8"  />
</g>
<g id="a1_009"  >
<polygon points="304,85 309,80 311,80 311,90 309,90 304,85 " style="fill:#5cd815; stroke-width:1; stroke:black; " description="&lt;b&gt;HXS75_RS19025&lt;/b&gt;&lt;br&gt;sigma-70 family RNA polymerase sigma factor&lt;br&gt;Location: 4251989 - 4251574&lt;br&gt;&lt;br&gt;&lt;b&gt;BlastP hit with MCIC6FC_011659&lt;/b&gt;&lt;br&gt;Percentage identity: 71&lt;br&gt;Percentage coverage: 15&lt;br&gt;BLAST bit score: 96&lt;br&gt;E-value: 5.9e-18" locus_tag="HXS75_RS19025" class="clusterblast-orf" id="dummy-1_h1_5_9"  />
</g>
<g id="a1_0010"  >
<polygon points="318,90 347,90 352,85 347,80 318,80 318,90 " style="fill:#15a3d8; stroke-width:1; stroke:black; " description="&lt;b&gt;HXS75_RS19020&lt;/b&gt;&lt;br&gt;methyl-accepting chemotaxis protein&lt;br&gt;Location: 4251198 - 4249318&lt;br&gt;&lt;br&gt;&lt;b&gt;BlastP hit with MCIC6FC_011660&lt;/b&gt;&lt;br&gt;Percentage identity: 95&lt;br&gt;Percentage coverage: 102&lt;br&gt;BLAST bit score: 923&lt;br&gt;E-value: 1.2e-266" locus_tag="HXS75_RS19020" class="clusterblast-orf" id="dummy-1_h1_5_10"  />
</g>
<g id="a1_0011"  >
<polygon points="353,85 358,80 362,80 362,90 358,90 353,85 " style="fill:white; stroke-width:1; stroke:black; " description="&lt;b&gt;HXS75_RS19015&lt;/b&gt;&lt;br&gt;SRPBCC family protein&lt;br&gt;Location: 4249283 - 4248819" locus_tag="HXS75_RS19015" class="clusterblast-orf" id="dummy-1_h1_5_11"  />
</g>
<g id="a1_0012"  >
<polygon points="362,85 367,80 424,80 424,90 367,90 362,85 " style="fill:#c715d8; stroke-width:1; stroke:black; " description="&lt;b&gt;HXS75_RS19010&lt;/b&gt;&lt;br&gt;non-ribosomal peptide synthetase&lt;br&gt;Location: 4248799 - 4245422&lt;br&gt;&lt;br&gt;&lt;b&gt;BlastP hit with MCIC6FC_011661&lt;/b&gt;&lt;br&gt;Percentage identity: 66&lt;br&gt;Percentage coverage: 63&lt;br&gt;BLAST bit score: 1459&lt;br&gt;E-value: 0.0" locus_tag="HXS75_RS19010" class="clusterblast-orf" id="dummy-1_h1_5_12"  />
</g>
<g id="a1_0013"  >
<polygon points="424,85 429,80 441,80 441,90 429,90 424,85 " style="fill:#c715d8; stroke-width:1; stroke:black; " description="&lt;b&gt;HXS75_RS19005&lt;/b&gt;&lt;br&gt;diiron oxygenase&lt;br&gt;Location: 4245425 - 4244487&lt;br&gt;&lt;br&gt;&lt;b&gt;BlastP hit with MCIC6FC_011661&lt;/b&gt;&lt;br&gt;Percentage identity: 82&lt;br&gt;Percentage coverage: 17&lt;br&gt;BLAST bit score: 508&lt;br&gt;E-value: 3.4e-141" locus_tag="HXS75_RS19005" class="clusterblast-orf" id="dummy-1_h1_5_13"  />
</g>
<g id="a1_0014"  >
<polygon points="441,85 446,80 455,80 455,90 446,90 441,85 " style="fill:#c715d8; stroke-width:1; stroke:black; " description="&lt;b&gt;HXS75_RS19000&lt;/b&gt;&lt;br&gt;DUF3050 domain-containing protein&lt;br&gt;Location: 4244490 - 4243732&lt;br&gt;&lt;br&gt;&lt;b&gt;BlastP hit with MCIC6FC_011661&lt;/b&gt;&lt;br&gt;Percentage identity: 63&lt;br&gt;Percentage coverage: 10&lt;br&gt;BLAST bit score: 231&lt;br&gt;E-value: 6.2e-58" locus_tag="HXS75_RS19000" class="clusterblast-orf" id="dummy-1_h1_5_14"  />
</g>
<g id="a1_0015"  >
<polygon points="461,85 466,80 474,80 474,90 466,90 461,85 " style="fill:#d88015; stroke-width:1; stroke:black; " description="&lt;b&gt;HXS75_RS18995&lt;/b&gt;&lt;br&gt;GntR family transcriptional regulator&lt;br&gt;Location: 4243391 - 4242684&lt;br&gt;&lt;br&gt;&lt;b&gt;BlastP hit with MCIC6FC_011662&lt;/b&gt;&lt;br&gt;Percentage identity: 88&lt;br&gt;Percentage coverage: 86&lt;br&gt;BLAST bit score: 394&lt;br&gt;E-value: 6.5e-108" locus_tag="HXS75_RS18995" class="clusterblast-orf" id="dummy-1_h1_5_15"  />
</g>
<g id="a1_0016"  >
<polygon points="479,90 490,90 495,85 490,80 479,80 479,90 " style="fill:#15d839; stroke-width:1; stroke:black; " description="&lt;b&gt;HXS75_RS18990&lt;/b&gt;&lt;br&gt;TauD/TfdA family dioxygenase&lt;br&gt;Location: 4242417 - 4241524&lt;br&gt;&lt;br&gt;&lt;b&gt;BlastP hit with MCIC6FC_011663&lt;/b&gt;&lt;br&gt;Percentage identity: 94&lt;br&gt;Percentage coverage: 24&lt;br&gt;BLAST bit score: 562&lt;br&gt;E-value: 7.8e-158" locus_tag="HXS75_RS18990" class="clusterblast-orf" id="dummy-1_h1_5_16"  />
</g>
<g id="a1_0017"  >
<polygon points="495,90 509,90 514,85 509,80 495,80 495,90 " style="fill:#15d839; stroke-width:1; stroke:black; " description="&lt;b&gt;HXS75_RS18985&lt;/b&gt;&lt;br&gt;ABC transporter substrate-binding protein&lt;br&gt;Location: 4241509 - 4240484&lt;br&gt;&lt;br&gt;&lt;b&gt;BlastP hit with MCIC6FC_011663&lt;/b&gt;&lt;br&gt;Percentage identity: 98&lt;br&gt;Percentage coverage: 29&lt;br&gt;BLAST bit score: 667&lt;br&gt;E-value: 2.9e-189" locus_tag="HXS75_RS18985" class="clusterblast-orf" id="dummy-1_h1_5_17"  />
</g>
<g id="a1_0018"  >
<polygon points="514,90 525,90 530,85 525,80 514,80 514,90 " style="fill:#15d839; stroke-width:1; stroke:black; " description="&lt;b&gt;HXS75_RS18980&lt;/b&gt;&lt;br&gt;ABC transporter ATP-binding protein&lt;br&gt;Location: 4240482 - 4239631&lt;br&gt;&lt;br&gt;&lt;b&gt;BlastP hit with MCIC6FC_011663&lt;/b&gt;&lt;br&gt;Percentage identity: 95&lt;br&gt;Percentage coverage: 24&lt;br&gt;BLAST bit score: 524&lt;br&gt;E-value: 2.4e-146" locus_tag="HXS75_RS18980" class="clusterblast-orf" id="dummy-1_h1_5_18"  />
</g>
<g id="a1_0019"  >
<polygon points="530,90 540,90 545,85 540,80 530,80 530,90 " style="fill:#15d839; stroke-width:1; stroke:black; " description="&lt;b&gt;HXS75_RS18975&lt;/b&gt;&lt;br&gt;ABC transporter permease&lt;br&gt;Location: 4239619 - 4238771&lt;br&gt;&lt;br&gt;&lt;b&gt;BlastP hit with MCIC6FC_011663&lt;/b&gt;&lt;br&gt;Percentage identity: 98&lt;br&gt;Percentage coverage: 24&lt;br&gt;BLAST bit score: 525&lt;br&gt;E-value: 1.4e-146" locus_tag="HXS75_RS18975" class="clusterblast-orf" id="dummy-1_h1_5_19"  />
</g>
<g id="a1_0020"  >
<polygon points="547,90 554,90 559,85 554,80 547,80 547,90 " style="fill:white; stroke-width:1; stroke:black; " description="&lt;b&gt;HXS75_RS18970&lt;/b&gt;&lt;br&gt;TonB family protein&lt;br&gt;Location: 4238671 - 4238045" locus_tag="HXS75_RS18970" class="clusterblast-orf" id="dummy-1_h1_5_20"  />
</g>
<g id="a1_0021"  >
<polygon points="560,90 571,90 576,85 571,80 560,80 560,90 " style="fill:#1539d8; stroke-width:1; stroke:black; " description="&lt;b&gt;HXS75_RS18965&lt;/b&gt;&lt;br&gt;LysR family transcriptional regulator&lt;br&gt;Location: 4237992 - 4237072&lt;br&gt;&lt;br&gt;&lt;b&gt;BlastP hit with MCIC6FC_011664&lt;/b&gt;&lt;br&gt;Percentage identity: 97&lt;br&gt;Percentage coverage: 100&lt;br&gt;BLAST bit score: 593&lt;br&gt;E-value: 1.4e-167" locus_tag="HXS75_RS18965" class="clusterblast-orf" id="dummy-1_h1_5_21"  />
</g>
<g id="a1_0022"  >
<polygon points="581,90 604,90 609,85 604,80 581,80 581,90 " style="fill:#d81580; stroke-width:1; stroke:black; " description="&lt;b&gt;HXS75_RS18960&lt;/b&gt;&lt;br&gt;MFS transporter&lt;br&gt;Location: 4236838 - 4235303&lt;br&gt;&lt;br&gt;&lt;b&gt;BlastP hit with MCIC6FC_011665&lt;/b&gt;&lt;br&gt;Percentage identity: 95&lt;br&gt;Percentage coverage: 38&lt;br&gt;BLAST bit score: 941&lt;br&gt;E-value: 7e-272" locus_tag="HXS75_RS18960" class="clusterblast-orf" id="dummy-1_h1_5_22"  />
</g>
<g id="a1_0023"  >
<polygon points="609,90 623,90 628,85 623,80 609,80 609,90 " style="fill:#d81580; stroke-width:1; stroke:black; " description="&lt;b&gt;HXS75_RS18955&lt;/b&gt;&lt;br&gt;HlyD family secretion protein&lt;br&gt;Location: 4235287 - 4234229&lt;br&gt;&lt;br&gt;&lt;b&gt;BlastP hit with MCIC6FC_011665&lt;/b&gt;&lt;br&gt;Percentage identity: 95&lt;br&gt;Percentage coverage: 26&lt;br&gt;BLAST bit score: 604&lt;br&gt;E-value: 2.7e-170" locus_tag="HXS75_RS18955" class="clusterblast-orf" id="dummy-1_h1_5_23"  />
</g>
<g id="a1_0024"  >
<polygon points="628,90 650,90 655,85 650,80 628,80 628,90 " style="fill:#d81580; stroke-width:1; stroke:black; " description="&lt;b&gt;HXS75_RS18950&lt;/b&gt;&lt;br&gt;efflux transporter outer membrane subunit&lt;br&gt;Location: 4234232 - 4232787&lt;br&gt;&lt;br&gt;&lt;b&gt;BlastP hit with MCIC6FC_011665&lt;/b&gt;&lt;br&gt;Percentage identity: 94&lt;br&gt;Percentage coverage: 35&lt;br&gt;BLAST bit score: 852&lt;br&gt;E-value: 7.3e-245" locus_tag="HXS75_RS18950" class="clusterblast-orf" id="dummy-1_h1_5_24"  />
</g>
<g id="a1_0025"  >
<polygon points="657,90 662,90 667,85 662,80 657,80 657,90 " style="fill:white; stroke-width:1; stroke:black; " description="&lt;b&gt;HXS75_RS18945&lt;/b&gt;&lt;br&gt;hypothetical protein&lt;br&gt;Location: 4232683 - 4232117" locus_tag="HXS75_RS18945" class="clusterblast-orf" id="dummy-1_h1_5_25"  />
</g>
<g id="a1_0026"  >
<polygon points="669,85 674,80 681,80 681,90 674,90 669,85 " style="fill:#c7d815; stroke-width:1; stroke:black; " description="&lt;b&gt;HXS75_RS18940&lt;/b&gt;&lt;br&gt;DUF3142 domain-containing protein&lt;br&gt;Location: 4232030 - 4231326&lt;br&gt;&lt;br&gt;&lt;b&gt;BlastP hit with MCIC6FC_011666&lt;/b&gt;&lt;br&gt;Percentage identity: 89&lt;br&gt;Percentage coverage: 25&lt;br&gt;BLAST bit score: 430&lt;br&gt;E-value: 6.2e-118" locus_tag="HXS75_RS18940" class="clusterblast-orf" id="dummy-1_h1_5_26"  />
</g>
<g id="a1_0027"  >
<polygon points="681,85 686,80 721,80 721,90 686,90 681,85 " style="fill:#c7d815; stroke-width:1; stroke:black; " description="&lt;b&gt;HXS75_RS18935&lt;/b&gt;&lt;br&gt;outer membrane assembly lipoprotein YfiO&lt;br&gt;Location: 4231329 - 4229170&lt;br&gt;&lt;br&gt;&lt;b&gt;BlastP hit with MCIC6FC_011666&lt;/b&gt;&lt;br&gt;Percentage identity: 80&lt;br&gt;Percentage coverage: 71&lt;br&gt;BLAST bit score: 1031&lt;br&gt;E-value: 4.7e-299" locus_tag="HXS75_RS18935" class="clusterblast-orf" id="dummy-1_h1_5_27"  />
</g>
<g id="a1_0028"  >
<polygon points="724,90 748,90 753,85 748,80 724,80 724,90 " style="fill:#15d8a3; stroke-width:1; stroke:black; " description="&lt;b&gt;HXS75_RS18930&lt;/b&gt;&lt;br&gt;glycosyltransferase family 39 protein&lt;br&gt;Location: 4228989 - 4227403&lt;br&gt;&lt;br&gt;&lt;b&gt;BlastP hit with MCIC6FC_011667&lt;/b&gt;&lt;br&gt;Percentage identity: 82&lt;br&gt;Percentage coverage: 37&lt;br&gt;BLAST bit score: 685&lt;br&gt;E-value: 1.3e-194" locus_tag="HXS75_RS18930" class="clusterblast-orf" id="dummy-1_h1_5_28"  />
</g>
<g id="a1_0029"  >
<polygon points="754,90 758,85 754,80 754,90 " style="fill:white; stroke-width:1; stroke:black; " description="&lt;b&gt;HXS75_RS18925&lt;/b&gt;&lt;br&gt;DUF2789 domain-containing protein&lt;br&gt;Location: 4227369 - 4227127" locus_tag="HXS75_RS18925" class="clusterblast-orf" id="dummy-1_h1_5_29"  />
</g>
<g id="a1_0030"  >
<polygon points="760,90 767,90 772,85 767,80 760,80 760,90 " style="fill:white; stroke-width:1; stroke:black; " description="&lt;b&gt;HXS75_RS18920&lt;/b&gt;&lt;br&gt;hypothetical protein&lt;br&gt;Location: 4227033 - 4226380" locus_tag="HXS75_RS18920" class="clusterblast-orf" id="dummy-1_h1_5_30"  />
</g>
<g id="a1_0031"  >
<polygon points="772,90 775,90 780,85 775,80 772,80 772,90 " style="fill:white; stroke-width:1; stroke:black; " description="&lt;b&gt;HXS75_RS18915&lt;/b&gt;&lt;br&gt;hypothetical protein&lt;br&gt;Location: 4226383 - 4225967" locus_tag="HXS75_RS18915" class="clusterblast-orf" id="dummy-1_h1_5_31"  />
</g>
</svg>
