<svg xmlns="http://www.w3.org/2000/svg" xmlns:xlink="http://www.w3.org/1999/xlink" version="1.1" x="0" y="0" height="230" width="800" viewBox="0 0 800 230" preserveAspectRatio="none"  >
<g label="Query sequence" class="clusterblast-cluster"  >
<text x="5" y="20" class="clusterblast-acc"  >
Query sequence</text>
<line x1="10" y1="35" x2="778.0" y2="35" style="stroke-width:1; stroke:grey; "  />
<polygon points="0,35 5,30 193,30 193,40 5,40 0,35 " style="fill:#d81515; stroke-width:1; stroke:black; " description="&lt;b&gt;MCIC6FC_005928&lt;/b&gt;&lt;br&gt;hypothetical protein&lt;br&gt;Location: 2246328 - 2250248" locus_tag="MCIC6FC_005928" class="clusterblast-orf" id="dummy-5_q0_0_all"  />
<polygon points="200,40 540,40 545,35 540,30 200,30 200,40 " style="fill:#77d815; stroke-width:1; stroke:black; " description="&lt;b&gt;MCIC6FC_005929&lt;/b&gt;&lt;br&gt;hypothetical protein&lt;br&gt;Location: 2250396 - 2257407" locus_tag="MCIC6FC_005929" class="clusterblast-orf" id="dummy-5_q1_0_all"  />
<polygon points="546,35 551,30 622,30 622,40 551,40 546,35 " style="fill:#15d8d8; stroke-width:1; stroke:black; " description="&lt;b&gt;MCIC6FC_005930&lt;/b&gt;&lt;br&gt;hypothetical protein&lt;br&gt;Location: 2257420 - 2258963" locus_tag="MCIC6FC_005930" class="clusterblast-orf" id="dummy-5_q2_0_all"  />
<polygon points="652,35 657,30 780,30 780,40 657,40 652,35 " style="fill:#7715d8; stroke-width:1; stroke:black; " description="&lt;b&gt;MCIC6FC_005931&lt;/b&gt;&lt;br&gt;hypothetical protein&lt;br&gt;Location: 2259577 - 2262177" locus_tag="MCIC6FC_005931" class="clusterblast-orf" id="dummy-5_q3_0_all"  />
</g>
<g label="NZ_FOEY01000006" description="NZ_FOEY01000006 (385044-399877): Pseudomonas sp. NFPP19, whole genome shotgun... (72% of genes show similarity), NAGGN" class="clusterblast-cluster"  >
<text x="5" y="70" class="clusterblast-acc"  >
<a xlink:href="https://antismash-db.secondarymetabolites.org/area.html?record=NZ_FOEY01000006&amp;start=385044&amp;end=399877" target="_blank">NZ_FOEY01000006 (385044-399877)</a>: Pseudomonas sp. NFPP19, whole genome shotgun... (72% of genes show similarity), NAGGN</text>
<line x1="10" y1="85" x2="778.0" y2="85" style="stroke-width:1; stroke:grey; "  />
</g>
<g id="a5_000"  >
<polygon points="58,85 63,80 133,80 133,90 63,90 58,85 " style="fill:#d81515; stroke-width:1; stroke:black; " description="&lt;b&gt;BMW80_RS21495&lt;/b&gt;&lt;br&gt;polyphosphate:AMP phosphotransferase&lt;br&gt;Location: 398729 - 397206&lt;br&gt;&lt;br&gt;&lt;b&gt;BlastP hit with MCIC6FC_005928&lt;/b&gt;&lt;br&gt;Percentage identity: 98&lt;br&gt;Percentage coverage: 40&lt;br&gt;BLAST bit score: 996&lt;br&gt;E-value: 2.2e-288" locus_tag="BMW80_RS21495" class="clusterblast-orf" id="dummy-5_h5_10_0"  />
</g>
<g id="a5_001"  >
<polygon points="140,90 233,90 238,85 233,80 140,80 140,90 " style="fill:#77d815; stroke-width:1; stroke:black; " description="&lt;b&gt;BMW80_RS21490&lt;/b&gt;&lt;br&gt;bifunctional tRNA (5-methylaminomethyl-2-thiouridine)(34)-methyltransferase MnmD/FAD-dependent 5-carboxymethylaminomethyl-2-thiouridine(34) oxidoreductase MnmC&lt;br&gt;Location: 397057 - 395081&lt;br&gt;&lt;br&gt;&lt;b&gt;BlastP hit with MCIC6FC_005929&lt;/b&gt;&lt;br&gt;Percentage identity: 95&lt;br&gt;Percentage coverage: 29&lt;br&gt;BLAST bit score: 1256&lt;br&gt;E-value: 0.0" locus_tag="BMW80_RS21490" class="clusterblast-orf" id="dummy-5_h5_10_1"  />
</g>
<g id="a5_002"  >
<polygon points="248,90 330,90 335,85 330,80 248,80 248,90 " style="fill:#77d815; stroke-width:1; stroke:black; " description="&lt;b&gt;BMW80_RS21485&lt;/b&gt;&lt;br&gt;N-acetylglutaminylglutamine amidotransferase&lt;br&gt;Location: 394877 - 393105&lt;br&gt;&lt;br&gt;&lt;b&gt;BlastP hit with MCIC6FC_005929&lt;/b&gt;&lt;br&gt;Percentage identity: 98&lt;br&gt;Percentage coverage: 26&lt;br&gt;BLAST bit score: 1156&lt;br&gt;E-value: 0.0" locus_tag="BMW80_RS21485" class="clusterblast-orf" id="dummy-5_h5_10_2"  />
</g>
<g id="a5_003"  >
<polygon points="335,90 416,90 421,85 416,80 335,80 335,90 " style="fill:#77d815; stroke-width:1; stroke:black; " description="&lt;b&gt;BMW80_RS21480&lt;/b&gt;&lt;br&gt;N-acetylglutaminylglutamine synthetase&lt;br&gt;Location: 393101 - 391356&lt;br&gt;&lt;br&gt;&lt;b&gt;BlastP hit with MCIC6FC_005929&lt;/b&gt;&lt;br&gt;Percentage identity: 99&lt;br&gt;Percentage coverage: 26&lt;br&gt;BLAST bit score: 1143&lt;br&gt;E-value: 0.0" locus_tag="BMW80_RS21480" class="clusterblast-orf" id="dummy-5_h5_10_3"  />
</g>
<g id="a5_004"  >
<polygon points="427,90 481,90 486,85 481,80 427,80 427,90 " style="fill:#77d815; stroke-width:1; stroke:black; " description="&lt;b&gt;BMW80_RS21475&lt;/b&gt;&lt;br&gt;osmoprotectant NAGGN system M42 family peptidase&lt;br&gt;Location: 391229 - 390045&lt;br&gt;&lt;br&gt;&lt;b&gt;BlastP hit with MCIC6FC_005929&lt;/b&gt;&lt;br&gt;Percentage identity: 100&lt;br&gt;Percentage coverage: 18&lt;br&gt;BLAST bit score: 789&lt;br&gt;E-value: 9.7e-226" locus_tag="BMW80_RS21475" class="clusterblast-orf" id="dummy-5_h5_10_4"  />
</g>
<g id="a5_005"  >
<polygon points="490,90 496,90 501,85 496,80 490,80 490,90 " style="fill:white; stroke-width:1; stroke:black; " description="&lt;b&gt;BMW80_RS21470&lt;/b&gt;&lt;br&gt;YheU family protein&lt;br&gt;Location: 389960 - 389733" locus_tag="BMW80_RS21470" class="clusterblast-orf" id="dummy-5_h5_10_5"  />
</g>
<g id="a5_006"  >
<polygon points="503,85 508,80 519,80 519,90 508,90 503,85 " style="fill:#15d8d8; stroke-width:1; stroke:black; " description="&lt;b&gt;BMW80_RS21465&lt;/b&gt;&lt;br&gt;YnfA family protein&lt;br&gt;Location: 389696 - 389364&lt;br&gt;&lt;br&gt;&lt;b&gt;BlastP hit with MCIC6FC_005930&lt;/b&gt;&lt;br&gt;Percentage identity: 97&lt;br&gt;Percentage coverage: 23&lt;br&gt;BLAST bit score: 216&lt;br&gt;E-value: 7.2e-54" locus_tag="BMW80_RS21465" class="clusterblast-orf" id="dummy-5_h5_10_6"  />
</g>
<g id="a5_007"  >
<polygon points="522,85 527,80 562,80 562,90 527,90 522,85 " style="fill:#15d8d8; stroke-width:1; stroke:black; " description="&lt;b&gt;BMW80_RS21460&lt;/b&gt;&lt;br&gt;SDR family oxidoreductase&lt;br&gt;Location: 389298 - 388483&lt;br&gt;&lt;br&gt;&lt;b&gt;BlastP hit with MCIC6FC_005930&lt;/b&gt;&lt;br&gt;Percentage identity: 97&lt;br&gt;Percentage coverage: 52&lt;br&gt;BLAST bit score: 478&lt;br&gt;E-value: 5.9e-133" locus_tag="BMW80_RS21460" class="clusterblast-orf" id="dummy-5_h5_10_7"  />
</g>
<g id="a5_008"  >
<polygon points="578,90 580,90 585,85 580,80 578,80 578,90 " style="fill:white; stroke-width:1; stroke:black; " description="&lt;b&gt;BMW80_RS21455&lt;/b&gt;&lt;br&gt;DUF3309 domain-containing protein&lt;br&gt;Location: 388175 - 388023" locus_tag="BMW80_RS21455" class="clusterblast-orf" id="dummy-5_h5_10_8"  />
</g>
<g id="a5_009"  >
<polygon points="593,85 598,80 696,80 696,90 598,90 593,85 " style="fill:#7715d8; stroke-width:1; stroke:black; " description="&lt;b&gt;BMW80_RS21450&lt;/b&gt;&lt;br&gt;LTA synthase family protein&lt;br&gt;Location: 387860 - 385773&lt;br&gt;&lt;br&gt;&lt;b&gt;BlastP hit with MCIC6FC_005931&lt;/b&gt;&lt;br&gt;Percentage identity: 99&lt;br&gt;Percentage coverage: 93&lt;br&gt;BLAST bit score: 1363&lt;br&gt;E-value: 0.0" locus_tag="BMW80_RS21450" class="clusterblast-orf" id="dummy-5_h5_10_9"  />
</g>
<g id="a5_0010"  >
<polygon points="711,85 716,80 721,80 721,90 716,90 711,85 " style="fill:white; stroke-width:1; stroke:black; " description="&lt;b&gt;BMW80_RS21445&lt;/b&gt;&lt;br&gt;PLDc N-terminal domain-containing protein&lt;br&gt;Location: 385455 - 385264" locus_tag="BMW80_RS21445" class="clusterblast-orf" id="dummy-5_h5_10_10"  />
</g>
</svg>
