<svg xmlns="http://www.w3.org/2000/svg" xmlns:xlink="http://www.w3.org/1999/xlink" version="1.1" x="0" y="0" height="230" width="800" viewBox="0 0 800 230" preserveAspectRatio="none"  >
<g label="Query sequence" class="clusterblast-cluster"  >
<text x="5" y="20" class="clusterblast-acc"  >
Query sequence</text>
<line x1="10" y1="35" x2="778.0" y2="35" style="stroke-width:1; stroke:grey; "  />
<polygon points="224,35 229,30 413,30 413,40 229,40 224,35 " style="fill:#d81515; stroke-width:1; stroke:black; " description="&lt;b&gt;MCIC6FC_022098&lt;/b&gt;&lt;br&gt;hypothetical protein&lt;br&gt;Location: 905 - 6288" locus_tag="MCIC6FC_022098" class="clusterblast-orf" id="dummy-1_q0_0_all"  />
<polygon points="420,35 425,30 487,30 487,40 425,40 420,35 " style="fill:#15d8d8; stroke-width:1; stroke:black; " description="&lt;b&gt;MCIC6FC_022099&lt;/b&gt;&lt;br&gt;hypothetical protein&lt;br&gt;Location: 6504 - 8392" locus_tag="MCIC6FC_022099" class="clusterblast-orf" id="dummy-1_q1_0_all"  />
<polygon points="487,35 492,30 555,30 555,40 492,40 487,35 " style="fill:white; stroke-width:1; stroke:black; " description="&lt;b&gt;MCIC6FC_022100&lt;/b&gt;&lt;br&gt;hypothetical protein&lt;br&gt;Location: 8394 - 10360" locus_tag="MCIC6FC_022100" class="clusterblast-orf" id="dummy-1_q2_0_all"  />
</g>
<g label="NZ_NRNN01000002" description="NZ_NRNN01000002 (260583-284198): Cronobacter dublinensis strain cro3540W cont... (18% of genes show similarity), terpene" class="clusterblast-cluster"  >
<text x="5" y="70" class="clusterblast-acc"  >
<a xlink:href="https://antismash-db.secondarymetabolites.org/area.html?record=NZ_NRNN01000002&amp;start=260583&amp;end=284198" target="_blank">NZ_NRNN01000002 (260583-284198)</a>: Cronobacter dublinensis strain cro3540W cont... (18% of genes show similarity), terpene</text>
<line x1="10" y1="85" x2="778.0" y2="85" style="stroke-width:1; stroke:grey; "  />
</g>
<g id="a1_000"  >
<polygon points="0,90 20,90 25,85 20,80 0,80 0,90 " style="fill:white; stroke-width:1; stroke:black; " description="&lt;b&gt;CI869_RS05430&lt;/b&gt;&lt;br&gt;tRNA (guanosine(46)-N7)-methyltransferase TrmB&lt;br&gt;Location: 260638 - 261357" locus_tag="CI869_RS05430" class="clusterblast-orf" id="dummy-1_h1_6_0"  />
</g>
<g id="a1_001"  >
<polygon points="25,90 31,90 36,85 31,80 25,80 25,90 " style="fill:white; stroke-width:1; stroke:black; " description="&lt;b&gt;CI869_RS05435&lt;/b&gt;&lt;br&gt;YggL family protein&lt;br&gt;Location: 261357 - 261683" locus_tag="CI869_RS05435" class="clusterblast-orf" id="dummy-1_h1_6_1"  />
</g>
<g id="a1_002"  >
<polygon points="38,90 58,90 63,85 58,80 38,80 38,90 " style="fill:white; stroke-width:1; stroke:black; " description="&lt;b&gt;CI869_RS05440&lt;/b&gt;&lt;br&gt;DUF2884 domain-containing protein&lt;br&gt;Location: 261734 - 262450" locus_tag="CI869_RS05440" class="clusterblast-orf" id="dummy-1_h1_6_2"  />
</g>
<g id="a1_003"  >
<polygon points="68,90 76,90 81,85 76,80 68,80 68,90 " style="fill:white; stroke-width:1; stroke:black; " description="&lt;b&gt;CI869_RS05445&lt;/b&gt;&lt;br&gt;hypothetical protein&lt;br&gt;Location: 262600 - 262974" locus_tag="CI869_RS05445" class="clusterblast-orf" id="dummy-1_h1_6_3"  />
</g>
<g id="a1_004"  >
<polygon points="85,90 89,90 94,85 89,80 85,80 85,90 " style="fill:white; stroke-width:1; stroke:black; " description="&lt;b&gt;CI869_RS05450&lt;/b&gt;&lt;br&gt;DUF4160 domain-containing protein&lt;br&gt;Location: 263084 - 263326" locus_tag="CI869_RS05450" class="clusterblast-orf" id="dummy-1_h1_6_4"  />
</g>
<g id="a1_005"  >
<polygon points="93,90 97,90 102,85 97,80 93,80 93,90 " style="fill:white; stroke-width:1; stroke:black; " description="&lt;b&gt;CI869_RS05455&lt;/b&gt;&lt;br&gt;DUF2442 domain-containing protein&lt;br&gt;Location: 263310 - 263558" locus_tag="CI869_RS05455" class="clusterblast-orf" id="dummy-1_h1_6_5"  />
</g>
<g id="a1_006"  >
<polygon points="103,85 108,80 137,80 137,90 108,90 103,85 " style="fill:white; stroke-width:1; stroke:black; " description="&lt;b&gt;CI869_RS05460&lt;/b&gt;&lt;br&gt;GTPase&lt;br&gt;Location: 263582 - 264556" locus_tag="CI869_RS05460" class="clusterblast-orf" id="dummy-1_h1_6_6"  />
</g>
<g id="a1_007"  >
<polygon points="137,85 142,80 145,80 145,90 142,90 137,85 " style="fill:white; stroke-width:1; stroke:black; " description="&lt;b&gt;CI869_RS05465&lt;/b&gt;&lt;br&gt;YbdD/YjiX family protein&lt;br&gt;Location: 264575 - 264778" locus_tag="CI869_RS05465" class="clusterblast-orf" id="dummy-1_h1_6_7"  />
</g>
<g id="a1_008"  >
<polygon points="151,85 156,80 226,80 226,90 156,90 151,85 " style="fill:white; stroke-width:1; stroke:black; " description="&lt;b&gt;CI869_RS05470&lt;/b&gt;&lt;br&gt;carbon starvation protein A&lt;br&gt;Location: 264957 - 267110" locus_tag="CI869_RS05470" class="clusterblast-orf" id="dummy-1_h1_6_8"  />
</g>
<g id="a1_009"  >
<polygon points="255,90 322,90 327,85 322,80 255,80 255,90 " style="fill:white; stroke-width:1; stroke:black; " description="&lt;b&gt;CI869_RS05475&lt;/b&gt;&lt;br&gt;HAMP domain-containing protein&lt;br&gt;Location: 267924 - 269977" locus_tag="CI869_RS05475" class="clusterblast-orf" id="dummy-1_h1_6_9"  />
</g>
<g id="a1_0010"  >
<polygon points="333,90 346,90 351,85 346,80 333,80 333,90 " style="fill:white; stroke-width:1; stroke:black; " description="&lt;b&gt;CI869_RS05480&lt;/b&gt;&lt;br&gt;beta-carotene hydroxylase&lt;br&gt;Location: 270154 - 270687" locus_tag="CI869_RS05480" class="clusterblast-orf" id="dummy-1_h1_6_10"  />
</g>
<g id="a1_0011"  >
<polygon points="348,85 353,80 382,80 382,90 353,90 348,85 " style="fill:white; stroke-width:1; stroke:black; " description="&lt;b&gt;CI869_RS05485&lt;/b&gt;&lt;br&gt;phytoene/squalene synthase family protein&lt;br&gt;Location: 270584 - 271555" locus_tag="CI869_RS05485" class="clusterblast-orf" id="dummy-1_h1_6_11"  />
</g>
<g id="a1_0012"  >
<polygon points="382,85 387,80 434,80 434,90 387,90 382,85 " style="fill:#d81515; stroke-width:1; stroke:black; " description="&lt;b&gt;CI869_RS05490&lt;/b&gt;&lt;br&gt;phytoene desaturase&lt;br&gt;Location: 271552 - 273030&lt;br&gt;&lt;br&gt;&lt;b&gt;BlastP hit with MCIC6FC_022098&lt;/b&gt;&lt;br&gt;Percentage identity: 67&lt;br&gt;Percentage coverage: 17&lt;br&gt;BLAST bit score: 261&lt;br&gt;E-value: 4.8e-67" locus_tag="CI869_RS05490" class="clusterblast-orf" id="dummy-1_h1_6_12"  />
</g>
<g id="a1_0013"  >
<polygon points="433,85 438,80 474,80 474,90 438,90 433,85 " style="fill:#d81515; stroke-width:1; stroke:black; " description="&lt;b&gt;CI869_RS05495&lt;/b&gt;&lt;br&gt;lycopene beta-cyclase CrtY&lt;br&gt;Location: 273023 - 274198&lt;br&gt;&lt;br&gt;&lt;b&gt;BlastP hit with MCIC6FC_022098&lt;/b&gt;&lt;br&gt;Percentage identity: 51&lt;br&gt;Percentage coverage: 24&lt;br&gt;BLAST bit score: 267&lt;br&gt;E-value: 6.7e-69" locus_tag="CI869_RS05495" class="clusterblast-orf" id="dummy-1_h1_6_13"  />
</g>
<g id="a1_0014"  >
<polygon points="474,85 479,80 519,80 519,90 479,90 474,85 " style="fill:#d81515; stroke-width:1; stroke:black; " description="&lt;b&gt;CI869_RS05500&lt;/b&gt;&lt;br&gt;glycosyltransferase family 1 protein&lt;br&gt;Location: 274195 - 275469&lt;br&gt;&lt;br&gt;&lt;b&gt;BlastP hit with MCIC6FC_022098&lt;/b&gt;&lt;br&gt;Percentage identity: 56&lt;br&gt;Percentage coverage: 37&lt;br&gt;BLAST bit score: 452&lt;br&gt;E-value: 1.5e-124" locus_tag="CI869_RS05500" class="clusterblast-orf" id="dummy-1_h1_6_14"  />
</g>
<g id="a1_0015"  >
<polygon points="519,85 524,80 555,80 555,90 524,90 519,85 " style="fill:white; stroke-width:1; stroke:black; " description="&lt;b&gt;CI869_RS05505&lt;/b&gt;&lt;br&gt;type 2 isopentenyl-diphosphate Delta-isomerase&lt;br&gt;Location: 275466 - 276509" locus_tag="CI869_RS05505" class="clusterblast-orf" id="dummy-1_h1_6_15"  />
</g>
<g id="a1_0016"  >
<polygon points="557,85 562,80 589,80 589,90 562,90 557,85 " style="fill:#d81515; stroke-width:1; stroke:black; " description="&lt;b&gt;CI869_RS05510&lt;/b&gt;&lt;br&gt;polyprenyl synthetase family protein&lt;br&gt;Location: 276555 - 277460&lt;br&gt;&lt;br&gt;&lt;b&gt;BlastP hit with MCIC6FC_022098&lt;/b&gt;&lt;br&gt;Percentage identity: 65&lt;br&gt;Percentage coverage: 18&lt;br&gt;BLAST bit score: 257&lt;br&gt;E-value: 5.3e-66" locus_tag="CI869_RS05510" class="clusterblast-orf" id="dummy-1_h1_6_16"  />
</g>
<g id="a1_0017"  >
<polygon points="598,85 603,80 617,80 617,90 603,90 598,85 " style="fill:#15d8d8; stroke-width:1; stroke:black; " description="&lt;b&gt;CI869_RS05520&lt;/b&gt;&lt;br&gt;YtfJ family protein&lt;br&gt;Location: 277718 - 278266&lt;br&gt;&lt;br&gt;&lt;b&gt;BlastP hit with MCIC6FC_022099&lt;/b&gt;&lt;br&gt;Percentage identity: 51&lt;br&gt;Percentage coverage: 35&lt;br&gt;BLAST bit score: 171&lt;br&gt;E-value: 1.7e-40" locus_tag="CI869_RS05520" class="clusterblast-orf" id="dummy-1_h1_6_17"  />
</g>
<g id="a1_0018"  >
<polygon points="625,90 636,90 641,85 636,80 625,80 625,90 " style="fill:white; stroke-width:1; stroke:black; " description="&lt;b&gt;CI869_RS05525&lt;/b&gt;&lt;br&gt;hypothetical protein&lt;br&gt;Location: 278498 - 278944" locus_tag="CI869_RS05525" class="clusterblast-orf" id="dummy-1_h1_6_18"  />
</g>
<g id="a1_0019"  >
<polygon points="641,90 647,90 652,85 647,80 641,80 641,90 " style="fill:white; stroke-width:1; stroke:black; " description="&lt;b&gt;CI869_RS05530&lt;/b&gt;&lt;br&gt;DUF1493 family protein&lt;br&gt;Location: 278944 - 279258" locus_tag="CI869_RS05530" class="clusterblast-orf" id="dummy-1_h1_6_19"  />
</g>
<g id="a1_0020"  >
<polygon points="657,90 661,85 657,80 657,90 " style="fill:white; stroke-width:1; stroke:black; " description="&lt;b&gt;CI869_RS21825&lt;/b&gt;&lt;br&gt;hypothetical protein&lt;br&gt;Location: 279406 - 279513" locus_tag="CI869_RS21825" class="clusterblast-orf" id="dummy-1_h1_6_20"  />
</g>
<g id="a1_0021"  >
<polygon points="663,85 668,80 677,80 677,90 668,90 663,85 " style="fill:white; stroke-width:1; stroke:black; " description="&lt;b&gt;CI869_RS05535&lt;/b&gt;&lt;br&gt;hypothetical protein&lt;br&gt;Location: 279574 - 279975" locus_tag="CI869_RS05535" class="clusterblast-orf" id="dummy-1_h1_6_21"  />
</g>
<g id="a1_0022"  >
<polygon points="681,85 686,80 687,80 687,90 686,90 681,85 " style="fill:white; stroke-width:1; stroke:black; " description="&lt;b&gt;CI869_RS21830&lt;/b&gt;&lt;br&gt;hypothetical protein&lt;br&gt;Location: 280097 - 280273" locus_tag="CI869_RS21830" class="clusterblast-orf" id="dummy-1_h1_6_22"  />
</g>
<g id="a1_0023"  >
<polygon points="706,90 715,90 720,85 715,80 706,80 706,90 " style="fill:white; stroke-width:1; stroke:black; " description="&lt;b&gt;CI869_RS05545&lt;/b&gt;&lt;br&gt;BPSL0067 family protein&lt;br&gt;Location: 280803 - 281204" locus_tag="CI869_RS05545" class="clusterblast-orf" id="dummy-1_h1_6_23"  />
</g>
<g id="a1_0024"  >
<polygon points="719,90 727,90 732,85 727,80 719,80 719,90 " style="fill:white; stroke-width:1; stroke:black; " description="&lt;b&gt;CI869_RS05550&lt;/b&gt;&lt;br&gt;hypothetical protein&lt;br&gt;Location: 281191 - 281559" locus_tag="CI869_RS05550" class="clusterblast-orf" id="dummy-1_h1_6_24"  />
</g>
<g id="a1_0025"  >
<polygon points="745,90 758,90 763,85 758,80 745,80 745,90 " style="fill:white; stroke-width:1; stroke:black; " description="&lt;b&gt;CI869_RS05560&lt;/b&gt;&lt;br&gt;G/U mismatch-specific DNA glycosylase&lt;br&gt;Location: 281935 - 282441" locus_tag="CI869_RS05560" class="clusterblast-orf" id="dummy-1_h1_6_25"  />
</g>
<g id="a1_0026"  >
<polygon points="765,85 770,80 780,80 780,90 770,90 765,85 " style="fill:white; stroke-width:1; stroke:black; " description="&lt;b&gt;CI869_RS05565&lt;/b&gt;&lt;br&gt;hypothetical protein&lt;br&gt;Location: 282488 - 282907" locus_tag="CI869_RS05565" class="clusterblast-orf" id="dummy-1_h1_6_26"  />
</g>
</svg>
