<svg xmlns="http://www.w3.org/2000/svg" xmlns:xlink="http://www.w3.org/1999/xlink" version="1.1" x="0" y="0" height="230" width="800" viewBox="0 0 800 230" preserveAspectRatio="none"  >
<g label="Query sequence" class="clusterblast-cluster"  >
<text x="5" y="20" class="clusterblast-acc"  >
Query sequence</text>
<line x1="10" y1="35" x2="778.0" y2="35" style="stroke-width:1; stroke:grey; "  />
<polygon points="0,35 5,30 47,30 47,40 5,40 0,35 " style="fill:#d81515; stroke-width:1; stroke:black; " description="&lt;b&gt;MCIC6FC_008038&lt;/b&gt;&lt;br&gt;hypothetical protein&lt;br&gt;Location: 163889 - 165503" locus_tag="MCIC6FC_008038" class="clusterblast-orf" id="dummy-1_q0_0_all"  />
<polygon points="51,35 56,30 70,30 70,40 56,40 51,35 " style="fill:#15d815; stroke-width:1; stroke:black; " description="&lt;b&gt;MCIC6FC_008039&lt;/b&gt;&lt;br&gt;hypothetical protein&lt;br&gt;Location: 165609 - 166281" locus_tag="MCIC6FC_008039" class="clusterblast-orf" id="dummy-1_q1_0_all"  />
<polygon points="73,35 78,30 91,30 91,40 78,40 73,35 " style="fill:#1515d8; stroke-width:1; stroke:black; " description="&lt;b&gt;MCIC6FC_008040&lt;/b&gt;&lt;br&gt;hypothetical protein&lt;br&gt;Location: 166378 - 166978" locus_tag="MCIC6FC_008040" class="clusterblast-orf" id="dummy-1_q2_0_all"  />
<polygon points="94,40 116,40 121,35 116,30 94,30 94,40 " style="fill:#d815d8; stroke-width:1; stroke:black; " description="&lt;b&gt;MCIC6FC_008041&lt;/b&gt;&lt;br&gt;hypothetical protein&lt;br&gt;Location: 167081 - 167996" locus_tag="MCIC6FC_008041" class="clusterblast-orf" id="dummy-1_q3_0_all"  />
<polygon points="121,35 126,30 184,30 184,40 126,40 121,35 " style="fill:#d8d815; stroke-width:1; stroke:black; " description="&lt;b&gt;MCIC6FC_008042&lt;/b&gt;&lt;br&gt;hypothetical protein&lt;br&gt;Location: 168006 - 170121" locus_tag="MCIC6FC_008042" class="clusterblast-orf" id="dummy-1_q4_0_all"  />
<polygon points="185,35 190,30 349,30 349,40 190,40 185,35 " style="fill:#15d8d8; stroke-width:1; stroke:black; " description="&lt;b&gt;MCIC6FC_008043&lt;/b&gt;&lt;br&gt;hypothetical protein&lt;br&gt;Location: 170144 - 175701" locus_tag="MCIC6FC_008043" class="clusterblast-orf" id="dummy-1_q5_0_all"  />
<polygon points="359,40 363,40 368,35 363,30 359,30 359,40 " style="fill:white; stroke-width:1; stroke:black; " description="&lt;b&gt;MCIC6FC_008044&lt;/b&gt;&lt;br&gt;hypothetical protein&lt;br&gt;Location: 176041 - 176344" locus_tag="MCIC6FC_008044" class="clusterblast-orf" id="dummy-1_q6_0_all"  />
<polygon points="377,35 382,30 463,30 463,40 382,40 377,35 " style="fill:white; stroke-width:1; stroke:black; " description="&lt;b&gt;MCIC6FC_008045&lt;/b&gt;&lt;br&gt;hypothetical protein&lt;br&gt;Location: 176636 - 179560" locus_tag="MCIC6FC_008045" class="clusterblast-orf" id="dummy-1_q7_0_all"  />
<polygon points="470,40 505,40 510,35 505,30 470,30 470,40 " style="fill:white; stroke-width:1; stroke:black; " description="&lt;b&gt;MCIC6FC_008046&lt;/b&gt;&lt;br&gt;hypothetical protein&lt;br&gt;Location: 179802 - 181149" locus_tag="MCIC6FC_008046" class="clusterblast-orf" id="dummy-1_q8_0_all"  />
<polygon points="515,35 520,30 599,30 599,40 520,40 515,35 " style="fill:white; stroke-width:1; stroke:black; " description="&lt;b&gt;MCIC6FC_008047&lt;/b&gt;&lt;br&gt;hypothetical protein&lt;br&gt;Location: 181305 - 184152" locus_tag="MCIC6FC_008047" class="clusterblast-orf" id="dummy-1_q9_0_all"  />
<polygon points="605,40 609,40 614,35 609,30 605,30 605,40 " style="fill:white; stroke-width:1; stroke:black; " description="&lt;b&gt;MCIC6FC_008048&lt;/b&gt;&lt;br&gt;hypothetical protein&lt;br&gt;Location: 184371 - 184666" locus_tag="MCIC6FC_008048" class="clusterblast-orf" id="dummy-1_q10_0_all"  />
<polygon points="615,35 620,30 705,30 705,40 620,40 615,35 " style="fill:white; stroke-width:1; stroke:black; " description="&lt;b&gt;MCIC6FC_008049&lt;/b&gt;&lt;br&gt;hypothetical protein&lt;br&gt;Location: 184709 - 187762" locus_tag="MCIC6FC_008049" class="clusterblast-orf" id="dummy-1_q11_0_all"  />
<polygon points="736,35 741,30 780,30 780,40 741,40 736,35 " style="fill:white; stroke-width:1; stroke:black; " description="&lt;b&gt;MCIC6FC_008050&lt;/b&gt;&lt;br&gt;hypothetical protein&lt;br&gt;Location: 188804 - 190280" locus_tag="MCIC6FC_008050" class="clusterblast-orf" id="dummy-1_q12_0_all"  />
</g>
<g label="NZ_LT629777" description="NZ_LT629777 (81225-92119): Pseudomonas asplenii strain ATCC 23835 chromosome I (90% of genes show similarity), bacteriocin" class="clusterblast-cluster"  >
<text x="5" y="70" class="clusterblast-acc"  >
<a xlink:href="https://antismash-db.secondarymetabolites.org/area.html?record=NZ_LT629777&amp;start=81225&amp;end=92119" target="_blank">NZ_LT629777 (81225-92119)</a>: Pseudomonas asplenii strain ATCC 23835 chromosome I (90% of genes show similarity), bacteriocin</text>
<line x1="10" y1="85" x2="778.0" y2="85" style="stroke-width:1; stroke:grey; "  />
</g>
<g id="a1_000"  >
<polygon points="242,85 247,80 290,80 290,90 247,90 242,85 " style="fill:#d81515; stroke-width:1; stroke:black; " description="&lt;b&gt;BLU37_RS00445&lt;/b&gt;&lt;br&gt;NAD(P)/FAD-dependent oxidoreductase&lt;br&gt;Location: 92073 - 90460&lt;br&gt;&lt;br&gt;&lt;b&gt;BlastP hit with MCIC6FC_008038&lt;/b&gt;&lt;br&gt;Percentage identity: 91&lt;br&gt;Percentage coverage: 100&lt;br&gt;BLAST bit score: 983&lt;br&gt;E-value: 1.1e-284" locus_tag="BLU37_RS00445" class="clusterblast-orf" id="dummy-1_h1_4_0"  />
</g>
<g id="a1_001"  >
<polygon points="293,85 298,80 313,80 313,90 298,90 293,85 " style="fill:#15d815; stroke-width:1; stroke:black; " description="&lt;b&gt;BLU37_RS00440&lt;/b&gt;&lt;br&gt;hypothetical protein&lt;br&gt;Location: 90350 - 89679&lt;br&gt;&lt;br&gt;&lt;b&gt;BlastP hit with MCIC6FC_008039&lt;/b&gt;&lt;br&gt;Percentage identity: 66&lt;br&gt;Percentage coverage: 101&lt;br&gt;BLAST bit score: 299&lt;br&gt;E-value: 3.1e-79" locus_tag="BLU37_RS00440" class="clusterblast-orf" id="dummy-1_h1_4_1"  />
</g>
<g id="a1_002"  >
<polygon points="318,85 323,80 336,80 336,90 323,90 318,85 " style="fill:#1515d8; stroke-width:1; stroke:black; " description="&lt;b&gt;BLU37_RS00435&lt;/b&gt;&lt;br&gt;short chain dehydrogenase&lt;br&gt;Location: 89498 - 88899&lt;br&gt;&lt;br&gt;&lt;b&gt;BlastP hit with MCIC6FC_008040&lt;/b&gt;&lt;br&gt;Percentage identity: 78&lt;br&gt;Percentage coverage: 100&lt;br&gt;BLAST bit score: 311&lt;br&gt;E-value: 5.3e-83" locus_tag="BLU37_RS00435" class="clusterblast-orf" id="dummy-1_h1_4_2"  />
</g>
<g id="a1_003"  >
<polygon points="339,90 361,90 366,85 361,80 339,80 339,90 " style="fill:#d815d8; stroke-width:1; stroke:black; " description="&lt;b&gt;BLU37_RS00430&lt;/b&gt;&lt;br&gt;LysR family transcriptional regulator&lt;br&gt;Location: 88792 - 87878&lt;br&gt;&lt;br&gt;&lt;b&gt;BlastP hit with MCIC6FC_008041&lt;/b&gt;&lt;br&gt;Percentage identity: 80&lt;br&gt;Percentage coverage: 103&lt;br&gt;BLAST bit score: 482&lt;br&gt;E-value: 2.6e-134" locus_tag="BLU37_RS00430" class="clusterblast-orf" id="dummy-1_h1_4_3"  />
</g>
<g id="a1_004"  >
<polygon points="366,85 371,80 389,80 389,90 371,90 366,85 " style="fill:#d8d815; stroke-width:1; stroke:black; " description="&lt;b&gt;BLU37_RS00425&lt;/b&gt;&lt;br&gt;putative DNA-binding domain-containing protein&lt;br&gt;Location: 87877 - 87116&lt;br&gt;&lt;br&gt;&lt;b&gt;BlastP hit with MCIC6FC_008042&lt;/b&gt;&lt;br&gt;Percentage identity: 51&lt;br&gt;Percentage coverage: 36&lt;br&gt;BLAST bit score: 198&lt;br&gt;E-value: 2.1e-48" locus_tag="BLU37_RS00425" class="clusterblast-orf" id="dummy-1_h1_4_4"  />
</g>
<g id="a1_005"  >
<polygon points="389,85 394,80 415,80 415,90 394,90 389,85 " style="fill:#d8d815; stroke-width:1; stroke:black; " description="&lt;b&gt;BLU37_RS00420&lt;/b&gt;&lt;br&gt;DUF692 domain-containing protein&lt;br&gt;Location: 87119 - 86226&lt;br&gt;&lt;br&gt;&lt;b&gt;BlastP hit with MCIC6FC_008042&lt;/b&gt;&lt;br&gt;Percentage identity: 78&lt;br&gt;Percentage coverage: 44&lt;br&gt;BLAST bit score: 453&lt;br&gt;E-value: 3.7e-125" locus_tag="BLU37_RS00420" class="clusterblast-orf" id="dummy-1_h1_4_5"  />
</g>
<g id="a1_006"  >
<polygon points="416,85 421,80 425,80 425,90 421,90 416,85 " style="fill:white; stroke-width:1; stroke:black; " description="&lt;b&gt;BLU37_RS00415&lt;/b&gt;&lt;br&gt;DUF2282 domain-containing protein&lt;br&gt;Location: 86199 - 85894" locus_tag="BLU37_RS00415" class="clusterblast-orf" id="dummy-1_h1_4_6"  />
</g>
<g id="a1_007"  >
<polygon points="429,85 434,80 450,80 450,90 434,90 429,85 " style="fill:#15d8d8; stroke-width:1; stroke:black; " description="&lt;b&gt;BLU37_RS00410&lt;/b&gt;&lt;br&gt;ABC transporter ATP-binding protein&lt;br&gt;Location: 85745 - 85044&lt;br&gt;&lt;br&gt;&lt;b&gt;BlastP hit with MCIC6FC_008043&lt;/b&gt;&lt;br&gt;Percentage identity: 97&lt;br&gt;Percentage coverage: 13&lt;br&gt;BLAST bit score: 399&lt;br&gt;E-value: 2.1e-108" locus_tag="BLU37_RS00410" class="clusterblast-orf" id="dummy-1_h1_4_7"  />
</g>
<g id="a1_008"  >
<polygon points="450,85 455,80 473,80 473,90 455,90 450,85 " style="fill:#15d8d8; stroke-width:1; stroke:black; " description="&lt;b&gt;BLU37_RS00405&lt;/b&gt;&lt;br&gt;high-affinity branched-chain amino acid ABC transporter ATP-binding protein LivG&lt;br&gt;Location: 85043 - 84276&lt;br&gt;&lt;br&gt;&lt;b&gt;BlastP hit with MCIC6FC_008043&lt;/b&gt;&lt;br&gt;Percentage identity: 94&lt;br&gt;Percentage coverage: 15&lt;br&gt;BLAST bit score: 468&lt;br&gt;E-value: 2.8e-129" locus_tag="BLU37_RS00405" class="clusterblast-orf" id="dummy-1_h1_4_8"  />
</g>
<g id="a1_009"  >
<polygon points="473,85 478,80 510,80 510,90 478,90 473,85 " style="fill:#15d8d8; stroke-width:1; stroke:black; " description="&lt;b&gt;BLU37_RS00400&lt;/b&gt;&lt;br&gt;high-affinity branched-chain amino acid ABC transporter permease LivM&lt;br&gt;Location: 84279 - 83026&lt;br&gt;&lt;br&gt;&lt;b&gt;BlastP hit with MCIC6FC_008043&lt;/b&gt;&lt;br&gt;Percentage identity: 90&lt;br&gt;Percentage coverage: 25&lt;br&gt;BLAST bit score: 672&lt;br&gt;E-value: 9.7e-191" locus_tag="BLU37_RS00400" class="clusterblast-orf" id="dummy-1_h1_4_9"  />
</g>
<g id="a1_0010"  >
<polygon points="510,85 515,80 537,80 537,90 515,90 510,85 " style="fill:#15d8d8; stroke-width:1; stroke:black; " description="&lt;b&gt;BLU37_RS00395&lt;/b&gt;&lt;br&gt;high-affinity branched-chain amino acid ABC transporter permease LivH&lt;br&gt;Location: 83029 - 82106&lt;br&gt;&lt;br&gt;&lt;b&gt;BlastP hit with MCIC6FC_008043&lt;/b&gt;&lt;br&gt;Percentage identity: 96&lt;br&gt;Percentage coverage: 18&lt;br&gt;BLAST bit score: 516&lt;br&gt;E-value: 1.2e-143" locus_tag="BLU37_RS00395" class="clusterblast-orf" id="dummy-1_h1_4_10"  />
</g>
</svg>
