<svg xmlns="http://www.w3.org/2000/svg" xmlns:xlink="http://www.w3.org/1999/xlink" version="1.1" x="0" y="0" height="230" width="800" viewBox="0 0 800 230" preserveAspectRatio="none"  >
<g label="Query sequence" class="clusterblast-cluster"  >
<text x="5" y="20" class="clusterblast-acc"  >
Query sequence</text>
<line x1="10" y1="35" x2="778.0" y2="35" style="stroke-width:1; stroke:grey; "  />
<polygon points="0,40 61,40 66,35 61,30 0,30 0,40 " style="fill:white; stroke-width:1; stroke:black; " description="&lt;b&gt;MCIC6FC_012175&lt;/b&gt;&lt;br&gt;hypothetical protein&lt;br&gt;Location: 85985 - 90560" locus_tag="MCIC6FC_012175" class="clusterblast-orf" id="dummy-1_q0_0_all"  />
<polygon points="66,40 138,40 143,35 138,30 66,30 66,40 " style="fill:#d81515; stroke-width:1; stroke:black; " description="&lt;b&gt;MCIC6FC_012176&lt;/b&gt;&lt;br&gt;hypothetical protein&lt;br&gt;Location: 90573 - 95850" locus_tag="MCIC6FC_012176" class="clusterblast-orf" id="dummy-1_q1_0_all"  />
<polygon points="145,35 150,30 166,30 166,40 150,40 145,35 " style="fill:#3cd815; stroke-width:1; stroke:black; " description="&lt;b&gt;MCIC6FC_012177&lt;/b&gt;&lt;br&gt;hypothetical protein&lt;br&gt;Location: 96034 - 97476" locus_tag="MCIC6FC_012177" class="clusterblast-orf" id="dummy-1_q2_0_all"  />
<polygon points="172,35 177,30 233,30 233,40 177,40 172,35 " style="fill:#1563d8; stroke-width:1; stroke:black; " description="&lt;b&gt;MCIC6FC_012178&lt;/b&gt;&lt;br&gt;hypothetical protein&lt;br&gt;Location: 97863 - 102059" locus_tag="MCIC6FC_012178" class="clusterblast-orf" id="dummy-1_q3_0_all"  />
<polygon points="236,40 268,40 273,35 268,30 236,30 236,40 " style="fill:#b115d8; stroke-width:1; stroke:black; " description="&lt;b&gt;MCIC6FC_012179&lt;/b&gt;&lt;br&gt;hypothetical protein&lt;br&gt;Location: 102315 - 104830" locus_tag="MCIC6FC_012179" class="clusterblast-orf" id="dummy-1_q4_0_all"  />
<polygon points="273,35 278,30 286,30 286,40 278,40 273,35 " style="fill:#d88a15; stroke-width:1; stroke:black; " description="&lt;b&gt;MCIC6FC_012180&lt;/b&gt;&lt;br&gt;hypothetical protein&lt;br&gt;Location: 104832 - 105751" locus_tag="MCIC6FC_012180" class="clusterblast-orf" id="dummy-1_q5_0_all"  />
<polygon points="290,35 295,30 381,30 381,40 295,40 290,35 " style="fill:#15d863; stroke-width:1; stroke:black; " description="&lt;b&gt;MCIC6FC_012181&lt;/b&gt;&lt;br&gt;hypothetical protein&lt;br&gt;Location: 105975 - 112248" locus_tag="MCIC6FC_012181" class="clusterblast-orf" id="dummy-1_q6_0_all"  />
<polygon points="387,40 393,40 398,35 393,30 387,30 387,40 " style="fill:#3c15d8; stroke-width:1; stroke:black; " description="&lt;b&gt;MCIC6FC_012182&lt;/b&gt;&lt;br&gt;hypothetical protein&lt;br&gt;Location: 112684 - 113485" locus_tag="MCIC6FC_012182" class="clusterblast-orf" id="dummy-1_q7_0_all"  />
<polygon points="399,40 423,40 428,35 423,30 399,30 399,40 " style="fill:#d8158a; stroke-width:1; stroke:black; " description="&lt;b&gt;MCIC6FC_012183&lt;/b&gt;&lt;br&gt;hypothetical protein&lt;br&gt;Location: 113517 - 115525" locus_tag="MCIC6FC_012183" class="clusterblast-orf" id="dummy-1_q8_0_all"  />
<polygon points="433,35 438,30 454,30 454,40 438,40 433,35 " style="fill:#b1d815; stroke-width:1; stroke:black; " description="&lt;b&gt;MCIC6FC_012184&lt;/b&gt;&lt;br&gt;hypothetical protein&lt;br&gt;Location: 115877 - 117343" locus_tag="MCIC6FC_012184" class="clusterblast-orf" id="dummy-1_q9_0_all"  />
<polygon points="456,40 468,40 473,35 468,30 456,30 456,40 " style="fill:#15d8d8; stroke-width:1; stroke:black; " description="&lt;b&gt;MCIC6FC_012185&lt;/b&gt;&lt;br&gt;hypothetical protein&lt;br&gt;Location: 117475 - 118598" locus_tag="MCIC6FC_012185" class="clusterblast-orf" id="dummy-1_q10_0_all"  />
<polygon points="473,35 478,30 483,30 483,40 478,40 473,35 " style="fill:white; stroke-width:1; stroke:black; " description="&lt;b&gt;MCIC6FC_012186&lt;/b&gt;&lt;br&gt;hypothetical protein&lt;br&gt;Location: 118611 - 119329" locus_tag="MCIC6FC_012186" class="clusterblast-orf" id="dummy-1_q11_0_all"  />
<polygon points="485,35 490,30 493,30 493,40 490,40 485,35 " style="fill:white; stroke-width:1; stroke:black; " description="&lt;b&gt;MCIC6FC_012187&lt;/b&gt;&lt;br&gt;hypothetical protein&lt;br&gt;Location: 119420 - 119974" locus_tag="MCIC6FC_012187" class="clusterblast-orf" id="dummy-1_q12_0_all"  />
<polygon points="494,40 524,40 529,35 524,30 494,30 494,40 " style="fill:white; stroke-width:1; stroke:black; " description="&lt;b&gt;MCIC6FC_012188&lt;/b&gt;&lt;br&gt;hypothetical protein&lt;br&gt;Location: 120084 - 122513" locus_tag="MCIC6FC_012188" class="clusterblast-orf" id="dummy-1_q13_0_all"  />
<polygon points="544,35 549,30 636,30 636,40 549,40 544,35 " style="fill:white; stroke-width:1; stroke:black; " description="&lt;b&gt;MCIC6FC_012189&lt;/b&gt;&lt;br&gt;hypothetical protein&lt;br&gt;Location: 123493 - 129834" locus_tag="MCIC6FC_012189" class="clusterblast-orf" id="dummy-1_q14_0_all"  />
<polygon points="636,35 641,30 742,30 742,40 641,40 636,35 " style="fill:white; stroke-width:1; stroke:black; " description="&lt;b&gt;MCIC6FC_012190&lt;/b&gt;&lt;br&gt;hypothetical protein&lt;br&gt;Location: 129871 - 137203" locus_tag="MCIC6FC_012190" class="clusterblast-orf" id="dummy-1_q15_0_all"  />
<polygon points="745,35 750,30 780,30 780,40 750,40 745,35 " style="fill:white; stroke-width:1; stroke:black; " description="&lt;b&gt;MCIC6FC_012191&lt;/b&gt;&lt;br&gt;hypothetical protein&lt;br&gt;Location: 137366 - 139772" locus_tag="MCIC6FC_012191" class="clusterblast-orf" id="dummy-1_q16_0_all"  />
</g>
<g label="NZ_CABVIZ010000001" description="NZ_CABVIZ010000001 (411828-455501): Pseudomonas fluorescens isolate PS907, wh... (44% of genes show similarity), NRPS" class="clusterblast-cluster"  >
<text x="5" y="70" class="clusterblast-acc"  >
<a xlink:href="https://antismash-db.secondarymetabolites.org/area.html?record=NZ_CABVIZ010000001&amp;start=411828&amp;end=455501" target="_blank">NZ_CABVIZ010000001 (411828-455501)</a>: Pseudomonas fluorescens isolate PS907, wh... (44% of genes show similarity), NRPS</text>
<line x1="10" y1="85" x2="778.0" y2="85" style="stroke-width:1; stroke:grey; "  />
</g>
<g id="a1_000"  >
<polygon points="73,85 78,80 95,80 95,90 78,90 73,85 " style="fill:white; stroke-width:1; stroke:black; " description="&lt;b&gt;F8N55_RS02120&lt;/b&gt;&lt;br&gt;FGGY-family carbohydrate kinase&lt;br&gt;Location: 411829 - 413361" locus_tag="F8N55_RS02120" class="clusterblast-orf" id="dummy-1_h1_4_0"  />
</g>
<g id="a1_001"  >
<polygon points="95,85 100,80 111,80 111,90 100,90 95,85 " style="fill:white; stroke-width:1; stroke:black; " description="&lt;b&gt;F8N55_RS02125&lt;/b&gt;&lt;br&gt;alcohol dehydrogenase catalytic domain-containing protein&lt;br&gt;Location: 413370 - 414455" locus_tag="F8N55_RS02125" class="clusterblast-orf" id="dummy-1_h1_4_1"  />
</g>
<g id="a1_002"  >
<polygon points="111,85 116,80 126,80 126,90 116,90 111,85 " style="fill:white; stroke-width:1; stroke:black; " description="&lt;b&gt;F8N55_RS02130&lt;/b&gt;&lt;br&gt;ribose ABC transporter permease&lt;br&gt;Location: 414478 - 415470" locus_tag="F8N55_RS02130" class="clusterblast-orf" id="dummy-1_h1_4_2"  />
</g>
<g id="a1_003"  >
<polygon points="125,85 130,80 147,80 147,90 130,90 125,85 " style="fill:#d88a15; stroke-width:1; stroke:black; " description="&lt;b&gt;F8N55_RS02135&lt;/b&gt;&lt;br&gt;sugar ABC transporter ATP-binding protein&lt;br&gt;Location: 415436 - 416944&lt;br&gt;&lt;br&gt;&lt;b&gt;BlastP hit with MCIC6FC_012180&lt;/b&gt;&lt;br&gt;Percentage identity: 34&lt;br&gt;Percentage coverage: 76&lt;br&gt;BLAST bit score: 108&lt;br&gt;E-value: 1.3e-21" locus_tag="F8N55_RS02135" class="clusterblast-orf" id="dummy-1_h1_4_3"  />
</g>
<g id="a1_004"  >
<polygon points="148,85 153,80 161,80 161,90 153,90 148,85 " style="fill:white; stroke-width:1; stroke:black; " description="&lt;b&gt;F8N55_RS02140&lt;/b&gt;&lt;br&gt;substrate-binding domain-containing protein&lt;br&gt;Location: 417008 - 417931" locus_tag="F8N55_RS02140" class="clusterblast-orf" id="dummy-1_h1_4_4"  />
</g>
<g id="a1_005"  >
<polygon points="166,90 170,90 175,85 170,80 166,80 166,90 " style="fill:#d81515; stroke-width:1; stroke:black; " description="&lt;b&gt;F8N55_RS02145&lt;/b&gt;&lt;br&gt;fatty acid hydroxylase family protein&lt;br&gt;Location: 418226 - 418903&lt;br&gt;&lt;br&gt;&lt;b&gt;BlastP hit with MCIC6FC_012176&lt;/b&gt;&lt;br&gt;Percentage identity: 93&lt;br&gt;Percentage coverage: 15&lt;br&gt;BLAST bit score: 455&lt;br&gt;E-value: 2.8e-125" locus_tag="F8N55_RS02145" class="clusterblast-orf" id="dummy-1_h1_4_5"  />
</g>
<g id="a1_006"  >
<polygon points="175,90 186,90 191,85 186,80 175,80 175,90 " style="fill:white; stroke-width:1; stroke:black; " description="&lt;b&gt;F8N55_RS02150&lt;/b&gt;&lt;br&gt;SMP-30/gluconolactonase/LRE family protein&lt;br&gt;Location: 418900 - 420000" locus_tag="F8N55_RS02150" class="clusterblast-orf" id="dummy-1_h1_4_6"  />
</g>
<g id="a1_007"  >
<polygon points="192,85 197,80 213,80 213,90 197,90 192,85 " style="fill:#3cd815; stroke-width:1; stroke:black; " description="&lt;b&gt;F8N55_RS02155&lt;/b&gt;&lt;br&gt;hypothetical protein&lt;br&gt;Location: 420051 - 421493&lt;br&gt;&lt;br&gt;&lt;b&gt;BlastP hit with MCIC6FC_012177&lt;/b&gt;&lt;br&gt;Percentage identity: 95&lt;br&gt;Percentage coverage: 102&lt;br&gt;BLAST bit score: 909&lt;br&gt;E-value: 1e-262" locus_tag="F8N55_RS02155" class="clusterblast-orf" id="dummy-1_h1_4_7"  />
</g>
<g id="a1_008"  >
<polygon points="215,85 220,80 220,80 220,90 220,90 215,85 " style="fill:white; stroke-width:1; stroke:black; " description="&lt;b&gt;F8N55_RS02160&lt;/b&gt;&lt;br&gt;hypothetical protein&lt;br&gt;Location: 421607 - 421987" locus_tag="F8N55_RS02160" class="clusterblast-orf" id="dummy-1_h1_4_8"  />
</g>
<g id="a1_009"  >
<polygon points="220,85 225,80 235,80 235,90 225,90 220,85 " style="fill:white; stroke-width:1; stroke:black; " description="&lt;b&gt;F8N55_RS02165&lt;/b&gt;&lt;br&gt;hypothetical protein&lt;br&gt;Location: 421990 - 422985" locus_tag="F8N55_RS02165" class="clusterblast-orf" id="dummy-1_h1_4_9"  />
</g>
<g id="a1_0010"  >
<polygon points="237,85 242,80 252,80 252,90 242,90 237,85 " style="fill:#1563d8; stroke-width:1; stroke:black; " description="&lt;b&gt;F8N55_RS02170&lt;/b&gt;&lt;br&gt;iron ABC transporter permease&lt;br&gt;Location: 423124 - 424185&lt;br&gt;&lt;br&gt;&lt;b&gt;BlastP hit with MCIC6FC_012178&lt;/b&gt;&lt;br&gt;Percentage identity: 97&lt;br&gt;Percentage coverage: 26&lt;br&gt;BLAST bit score: 727&lt;br&gt;E-value: 2.1e-207" locus_tag="F8N55_RS02170" class="clusterblast-orf" id="dummy-1_h1_4_10"  />
</g>
<g id="a1_0011"  >
<polygon points="252,85 257,80 288,80 288,90 257,90 252,85 " style="fill:#1563d8; stroke-width:1; stroke:black; " description="&lt;b&gt;F8N55_RS02175&lt;/b&gt;&lt;br&gt;FtsX-like permease family protein&lt;br&gt;Location: 424175 - 426637&lt;br&gt;&lt;br&gt;&lt;b&gt;BlastP hit with MCIC6FC_012178&lt;/b&gt;&lt;br&gt;Percentage identity: 98&lt;br&gt;Percentage coverage: 59&lt;br&gt;BLAST bit score: 1534&lt;br&gt;E-value: 0.0" locus_tag="F8N55_RS02175" class="clusterblast-orf" id="dummy-1_h1_4_11"  />
</g>
<g id="a1_0012"  >
<polygon points="288,85 293,80 297,80 297,90 293,90 288,85 " style="fill:#1563d8; stroke-width:1; stroke:black; " description="&lt;b&gt;F8N55_RS02180&lt;/b&gt;&lt;br&gt;ABC transporter ATP-binding protein&lt;br&gt;Location: 426639 - 427307&lt;br&gt;&lt;br&gt;&lt;b&gt;BlastP hit with MCIC6FC_012178&lt;/b&gt;&lt;br&gt;Percentage identity: 97&lt;br&gt;Percentage coverage: 15&lt;br&gt;BLAST bit score: 398&lt;br&gt;E-value: 3.9e-108" locus_tag="F8N55_RS02180" class="clusterblast-orf" id="dummy-1_h1_4_12"  />
</g>
<g id="a1_0013"  >
<polygon points="301,90 306,90 311,85 306,80 301,80 301,90 " style="fill:#b115d8; stroke-width:1; stroke:black; " description="&lt;b&gt;F8N55_RS02185&lt;/b&gt;&lt;br&gt;histidine phosphatase family protein&lt;br&gt;Location: 427577 - 428257&lt;br&gt;&lt;br&gt;&lt;b&gt;BlastP hit with MCIC6FC_012179&lt;/b&gt;&lt;br&gt;Percentage identity: 91&lt;br&gt;Percentage coverage: 28&lt;br&gt;BLAST bit score: 399&lt;br&gt;E-value: 9.6e-109" locus_tag="F8N55_RS02185" class="clusterblast-orf" id="dummy-1_h1_4_13"  />
</g>
<g id="a1_0014"  >
<polygon points="314,90 333,90 338,85 333,80 314,80 314,90 " style="fill:#b115d8; stroke-width:1; stroke:black; " description="&lt;b&gt;F8N55_RS02190&lt;/b&gt;&lt;br&gt;lipid IV(A) 4-amino-4-deoxy-L-arabinosyltransferase&lt;br&gt;Location: 428436 - 430091&lt;br&gt;&lt;br&gt;&lt;b&gt;BlastP hit with MCIC6FC_012179&lt;/b&gt;&lt;br&gt;Percentage identity: 97&lt;br&gt;Percentage coverage: 72&lt;br&gt;BLAST bit score: 1066&lt;br&gt;E-value: 1.1e-309" locus_tag="F8N55_RS02190" class="clusterblast-orf" id="dummy-1_h1_4_14"  />
</g>
<g id="a1_0015"  >
<polygon points="338,85 343,80 351,80 351,90 343,90 338,85 " style="fill:#d88a15; stroke-width:1; stroke:black; " description="&lt;b&gt;F8N55_RS02195&lt;/b&gt;&lt;br&gt;sugar ABC transporter ATP-binding protein&lt;br&gt;Location: 430094 - 431020&lt;br&gt;&lt;br&gt;&lt;b&gt;BlastP hit with MCIC6FC_012180&lt;/b&gt;&lt;br&gt;Percentage identity: 88&lt;br&gt;Percentage coverage: 106&lt;br&gt;BLAST bit score: 502&lt;br&gt;E-value: 4e-140" locus_tag="F8N55_RS02195" class="clusterblast-orf" id="dummy-1_h1_4_15"  />
</g>
<g id="a1_0016"  >
<polygon points="356,85 361,80 446,80 446,90 361,90 356,85 " style="fill:#15d863; stroke-width:1; stroke:black; " description="&lt;b&gt;F8N55_RS02200&lt;/b&gt;&lt;br&gt;amino acid adenylation domain-containing protein&lt;br&gt;Location: 431341 - 437562&lt;br&gt;&lt;br&gt;&lt;b&gt;BlastP hit with MCIC6FC_012181&lt;/b&gt;&lt;br&gt;Percentage identity: 95&lt;br&gt;Percentage coverage: 101&lt;br&gt;BLAST bit score: 3899&lt;br&gt;E-value: 0.0" locus_tag="F8N55_RS02200" class="clusterblast-orf" id="dummy-1_h1_4_16"  />
</g>
<g id="a1_0017"  >
<polygon points="453,90 460,90 465,85 460,80 453,80 453,90 " style="fill:#3c15d8; stroke-width:1; stroke:black; " description="&lt;b&gt;F8N55_RS02205&lt;/b&gt;&lt;br&gt;helix-turn-helix transcriptional regulator&lt;br&gt;Location: 438051 - 438845&lt;br&gt;&lt;br&gt;&lt;b&gt;BlastP hit with MCIC6FC_012182&lt;/b&gt;&lt;br&gt;Percentage identity: 98&lt;br&gt;Percentage coverage: 99&lt;br&gt;BLAST bit score: 513&lt;br&gt;E-value: 1.6e-143" locus_tag="F8N55_RS02205" class="clusterblast-orf" id="dummy-1_h1_4_17"  />
</g>
<g id="a1_0018"  >
<polygon points="465,90 481,90 486,85 481,80 465,80 465,90 " style="fill:#d8158a; stroke-width:1; stroke:black; " description="&lt;b&gt;F8N55_RS02210&lt;/b&gt;&lt;br&gt;efflux transporter outer membrane subunit&lt;br&gt;Location: 438845 - 440287&lt;br&gt;&lt;br&gt;&lt;b&gt;BlastP hit with MCIC6FC_012183&lt;/b&gt;&lt;br&gt;Percentage identity: 98&lt;br&gt;Percentage coverage: 76&lt;br&gt;BLAST bit score: 868&lt;br&gt;E-value: 5.9e-250" locus_tag="F8N55_RS02210" class="clusterblast-orf" id="dummy-1_h1_4_18"  />
</g>
<g id="a1_0019"  >
<polygon points="486,85 491,80 491,80 491,90 491,90 486,85 " style="fill:white; stroke-width:1; stroke:black; " description="&lt;b&gt;F8N55_RS02215&lt;/b&gt;&lt;br&gt;RidA family protein&lt;br&gt;Location: 440294 - 440698" locus_tag="F8N55_RS02215" class="clusterblast-orf" id="dummy-1_h1_4_19"  />
</g>
<g id="a1_0020"  >
<polygon points="496,85 501,80 509,80 509,90 501,90 496,85 " style="fill:white; stroke-width:1; stroke:black; " description="&lt;b&gt;F8N55_RS02220&lt;/b&gt;&lt;br&gt;flavin-nucleotide-binding protein&lt;br&gt;Location: 440976 - 441908" locus_tag="F8N55_RS02220" class="clusterblast-orf" id="dummy-1_h1_4_20"  />
</g>
<g id="a1_0021"  >
<polygon points="510,85 515,80 523,80 523,90 515,90 510,85 " style="fill:white; stroke-width:1; stroke:black; " description="&lt;b&gt;F8N55_RS02225&lt;/b&gt;&lt;br&gt;LysR family transcriptional regulator&lt;br&gt;Location: 441988 - 442872" locus_tag="F8N55_RS02225" class="clusterblast-orf" id="dummy-1_h1_4_21"  />
</g>
<g id="a1_0022"  >
<polygon points="523,85 528,80 536,80 536,90 528,90 523,85 " style="fill:white; stroke-width:1; stroke:black; " description="&lt;b&gt;F8N55_RS02230&lt;/b&gt;&lt;br&gt;LysR family transcriptional regulator&lt;br&gt;Location: 442872 - 443792" locus_tag="F8N55_RS02230" class="clusterblast-orf" id="dummy-1_h1_4_22"  />
</g>
<g id="a1_0023"  >
<polygon points="537,85 542,80 546,80 546,90 542,90 537,85 " style="fill:white; stroke-width:1; stroke:black; " description="&lt;b&gt;F8N55_RS02235&lt;/b&gt;&lt;br&gt;glutathione S-transferase&lt;br&gt;Location: 443811 - 444431" locus_tag="F8N55_RS02235" class="clusterblast-orf" id="dummy-1_h1_4_23"  />
</g>
<g id="a1_0024"  >
<polygon points="549,85 554,80 561,80 561,90 554,90 549,85 " style="fill:#b1d815; stroke-width:1; stroke:black; " description="&lt;b&gt;F8N55_RS02240&lt;/b&gt;&lt;br&gt;iron export ABC transporter permease subunit FetB&lt;br&gt;Location: 444672 - 445463&lt;br&gt;&lt;br&gt;&lt;b&gt;BlastP hit with MCIC6FC_012184&lt;/b&gt;&lt;br&gt;Percentage identity: 100&lt;br&gt;Percentage coverage: 54&lt;br&gt;BLAST bit score: 487&lt;br&gt;E-value: 1.3e-135" locus_tag="F8N55_RS02240" class="clusterblast-orf" id="dummy-1_h1_4_24"  />
</g>
<g id="a1_0025"  >
<polygon points="561,85 566,80 570,80 570,90 566,90 561,85 " style="fill:#b1d815; stroke-width:1; stroke:black; " description="&lt;b&gt;F8N55_RS02245&lt;/b&gt;&lt;br&gt;ATP-binding cassette domain-containing protein&lt;br&gt;Location: 445460 - 446137&lt;br&gt;&lt;br&gt;&lt;b&gt;BlastP hit with MCIC6FC_012184&lt;/b&gt;&lt;br&gt;Percentage identity: 97&lt;br&gt;Percentage coverage: 46&lt;br&gt;BLAST bit score: 423&lt;br&gt;E-value: 2.3e-116" locus_tag="F8N55_RS02245" class="clusterblast-orf" id="dummy-1_h1_4_25"  />
</g>
<g id="a1_0026"  >
<polygon points="572,90 583,90 588,85 583,80 572,80 572,90 " style="fill:#15d8d8; stroke-width:1; stroke:black; " description="&lt;b&gt;F8N55_RS02250&lt;/b&gt;&lt;br&gt;aldo/keto reductase&lt;br&gt;Location: 446270 - 447346&lt;br&gt;&lt;br&gt;&lt;b&gt;BlastP hit with MCIC6FC_012185&lt;/b&gt;&lt;br&gt;Percentage identity: 98&lt;br&gt;Percentage coverage: 99&lt;br&gt;BLAST bit score: 728&lt;br&gt;E-value: 4.3e-208" locus_tag="F8N55_RS02250" class="clusterblast-orf" id="dummy-1_h1_4_26"  />
</g>
<g id="a1_0027"  >
<polygon points="589,90 593,85 589,80 589,90 " style="fill:white; stroke-width:1; stroke:black; " description="&lt;b&gt;F8N55_RS02255&lt;/b&gt;&lt;br&gt;hypothetical protein&lt;br&gt;Location: 447428 - 447670" locus_tag="F8N55_RS02255" class="clusterblast-orf" id="dummy-1_h1_4_27"  />
</g>
<g id="a1_0028"  >
<polygon points="595,90 607,90 612,85 607,80 595,80 595,90 " style="fill:white; stroke-width:1; stroke:black; " description="&lt;b&gt;F8N55_RS02260&lt;/b&gt;&lt;br&gt;DUF1835 domain-containing protein&lt;br&gt;Location: 447821 - 449014" locus_tag="F8N55_RS02260" class="clusterblast-orf" id="dummy-1_h1_4_28"  />
</g>
<g id="a1_0029"  >
<polygon points="612,85 617,80 620,80 620,90 617,90 612,85 " style="fill:white; stroke-width:1; stroke:black; " description="&lt;b&gt;F8N55_RS02265&lt;/b&gt;&lt;br&gt;hypothetical protein&lt;br&gt;Location: 449030 - 449566" locus_tag="F8N55_RS02265" class="clusterblast-orf" id="dummy-1_h1_4_29"  />
</g>
<g id="a1_0030"  >
<polygon points="623,90 628,90 633,85 628,80 623,80 623,90 " style="fill:white; stroke-width:1; stroke:black; " description="&lt;b&gt;F8N55_RS02270&lt;/b&gt;&lt;br&gt;fimbria/pilus periplasmic chaperone&lt;br&gt;Location: 449754 - 450443" locus_tag="F8N55_RS02270" class="clusterblast-orf" id="dummy-1_h1_4_30"  />
</g>
<g id="a1_0031"  >
<polygon points="633,90 642,90 647,85 642,80 633,80 633,90 " style="fill:white; stroke-width:1; stroke:black; " description="&lt;b&gt;F8N55_RS02275&lt;/b&gt;&lt;br&gt;fimbrial protein&lt;br&gt;Location: 450467 - 451447" locus_tag="F8N55_RS02275" class="clusterblast-orf" id="dummy-1_h1_4_31"  />
</g>
<g id="a1_0032"  >
<polygon points="648,90 684,90 689,85 684,80 648,80 648,90 " style="fill:white; stroke-width:1; stroke:black; " description="&lt;b&gt;F8N55_RS02280&lt;/b&gt;&lt;br&gt;response regulator&lt;br&gt;Location: 451505 - 454321" locus_tag="F8N55_RS02280" class="clusterblast-orf" id="dummy-1_h1_4_32"  />
</g>
<g id="a1_0033"  >
<polygon points="689,90 701,90 706,85 701,80 689,80 689,90 " style="fill:white; stroke-width:1; stroke:black; " description="&lt;b&gt;F8N55_RS02285&lt;/b&gt;&lt;br&gt;EAL domain-containing protein&lt;br&gt;Location: 454308 - 455501" locus_tag="F8N55_RS02285" class="clusterblast-orf" id="dummy-1_h1_4_33"  />
</g>
</svg>
