<svg xmlns="http://www.w3.org/2000/svg" xmlns:xlink="http://www.w3.org/1999/xlink" version="1.1" x="0" y="0" height="230" width="800" viewBox="0 0 800 230" preserveAspectRatio="none"  >
<g label="Query sequence" class="clusterblast-cluster"  >
<text x="5" y="20" class="clusterblast-acc"  >
Query sequence</text>
<line x1="10" y1="35" x2="778.0" y2="35" style="stroke-width:1; stroke:grey; "  />
<polygon points="115,40 315,40 320,35 315,30 115,30 115,40 " style="fill:#d81515; stroke-width:1; stroke:black; " description="&lt;b&gt;MCIC6FC_022620&lt;/b&gt;&lt;br&gt;hypothetical protein&lt;br&gt;Location: 222 - 2660" locus_tag="MCIC6FC_022620" class="clusterblast-orf" id="dummy-1_q0_0_all"  />
<polygon points="321,35 326,30 397,30 397,40 326,40 321,35 " style="fill:#77d815; stroke-width:1; stroke:black; " description="&lt;b&gt;MCIC6FC_022621&lt;/b&gt;&lt;br&gt;hypothetical protein&lt;br&gt;Location: 2670 - 3585" locus_tag="MCIC6FC_022621" class="clusterblast-orf" id="dummy-1_q1_0_all"  />
<polygon points="406,40 516,40 521,35 516,30 406,30 406,40 " style="fill:#15d8d8; stroke-width:1; stroke:black; " description="&lt;b&gt;MCIC6FC_022622&lt;/b&gt;&lt;br&gt;hypothetical protein&lt;br&gt;Location: 3688 - 5057" locus_tag="MCIC6FC_022622" class="clusterblast-orf" id="dummy-1_q2_0_all"  />
<polygon points="530,40 660,40 665,35 660,30 530,30 530,40 " style="fill:#7715d8; stroke-width:1; stroke:black; " description="&lt;b&gt;MCIC6FC_022623&lt;/b&gt;&lt;br&gt;hypothetical protein&lt;br&gt;Location: 5163 - 6777" locus_tag="MCIC6FC_022623" class="clusterblast-orf" id="dummy-1_q3_0_all"  />
</g>
<g label="NZ_KB907429" description="NZ_KB907429 (397340-406631): Pseudomonas sp. 45MFCol3.1 G368DRAFT scaffold000... (50% of genes show similarity), bacteriocin" class="clusterblast-cluster"  >
<text x="5" y="70" class="clusterblast-acc"  >
<a xlink:href="https://antismash-db.secondarymetabolites.org/area.html?record=NZ_KB907429&amp;start=397340&amp;end=406631" target="_blank">NZ_KB907429 (397340-406631)</a>: Pseudomonas sp. 45MFCol3.1 G368DRAFT scaffold000... (50% of genes show similarity), bacteriocin</text>
<line x1="10" y1="85" x2="778.0" y2="85" style="stroke-width:1; stroke:grey; "  />
</g>
<g id="a1_000"  >
<polygon points="0,90 100,90 105,85 100,80 0,80 0,90 " style="fill:white; stroke-width:1; stroke:black; " description="&lt;b&gt;G368_RS0101985&lt;/b&gt;&lt;br&gt;high-affinity branched-chain amino acid ABC transporter permease LivM&lt;br&gt;Location: 406631 - 405375" locus_tag="G368_RS0101985" class="clusterblast-orf" id="dummy-1_h1_10_0"  />
</g>
<g id="a1_001"  >
<polygon points="105,90 164,90 169,85 164,80 105,80 105,90 " style="fill:white; stroke-width:1; stroke:black; " description="&lt;b&gt;G368_RS0101980&lt;/b&gt;&lt;br&gt;high-affinity branched-chain amino acid ABC transporter ATP-binding protein LivG&lt;br&gt;Location: 405378 - 404611" locus_tag="G368_RS0101980" class="clusterblast-orf" id="dummy-1_h1_10_1"  />
</g>
<g id="a1_002"  >
<polygon points="169,90 223,90 228,85 223,80 169,80 169,90 " style="fill:white; stroke-width:1; stroke:black; " description="&lt;b&gt;G368_RS0101975&lt;/b&gt;&lt;br&gt;ABC transporter ATP-binding protein&lt;br&gt;Location: 404610 - 403909" locus_tag="G368_RS0101975" class="clusterblast-orf" id="dummy-1_h1_10_2"  />
</g>
<g id="a1_003"  >
<polygon points="246,90 275,90 280,85 275,80 246,80 246,90 " style="fill:white; stroke-width:1; stroke:black; " description="&lt;b&gt;G368_RS0101970&lt;/b&gt;&lt;br&gt;hypothetical protein&lt;br&gt;Location: 403692 - 403288" locus_tag="G368_RS0101970" class="clusterblast-orf" id="dummy-1_h1_10_3"  />
</g>
<g id="a1_004"  >
<polygon points="280,90 333,90 338,85 333,80 280,80 280,90 " style="fill:white; stroke-width:1; stroke:black; " description="&lt;b&gt;G368_RS0101965&lt;/b&gt;&lt;br&gt;RES family NAD+ phosphorylase&lt;br&gt;Location: 403294 - 402602" locus_tag="G368_RS0101965" class="clusterblast-orf" id="dummy-1_h1_10_4"  />
</g>
<g id="a1_005"  >
<polygon points="356,90 377,90 382,85 377,80 356,80 356,90 " style="fill:white; stroke-width:1; stroke:black; " description="&lt;b&gt;G368_RS0101960&lt;/b&gt;&lt;br&gt;DUF2282 domain-containing protein&lt;br&gt;Location: 402385 - 402080" locus_tag="G368_RS0101960" class="clusterblast-orf" id="dummy-1_h1_10_5"  />
</g>
<g id="a1_006"  >
<polygon points="384,90 451,90 456,85 451,80 384,80 384,90 " style="fill:#d81515; stroke-width:1; stroke:black; " description="&lt;b&gt;G368_RS0101955&lt;/b&gt;&lt;br&gt;DUF692 domain-containing protein&lt;br&gt;Location: 402052 - 401198&lt;br&gt;&lt;br&gt;&lt;b&gt;BlastP hit with MCIC6FC_022620&lt;/b&gt;&lt;br&gt;Percentage identity: 85&lt;br&gt;Percentage coverage: 38&lt;br&gt;BLAST bit score: 496&lt;br&gt;E-value: 4.2e-138" locus_tag="G368_RS0101955" class="clusterblast-orf" id="dummy-1_h1_10_6"  />
</g>
<g id="a1_007"  >
<polygon points="455,90 514,90 519,85 514,80 455,80 455,90 " style="fill:#d81515; stroke-width:1; stroke:black; " description="&lt;b&gt;G368_RS0101950&lt;/b&gt;&lt;br&gt;putative DNA-binding domain-containing protein&lt;br&gt;Location: 401201 - 400440&lt;br&gt;&lt;br&gt;&lt;b&gt;BlastP hit with MCIC6FC_022620&lt;/b&gt;&lt;br&gt;Percentage identity: 62&lt;br&gt;Percentage coverage: 33&lt;br&gt;BLAST bit score: 275&lt;br&gt;E-value: 1.5e-71" locus_tag="G368_RS0101950" class="clusterblast-orf" id="dummy-1_h1_10_7"  />
</g>
<g id="a1_008"  >
<polygon points="519,90 554,90 559,85 554,80 519,80 519,90 " style="fill:#d81515; stroke-width:1; stroke:black; " description="&lt;b&gt;G368_RS0101945&lt;/b&gt;&lt;br&gt;DoxX family protein&lt;br&gt;Location: 400443 - 399964&lt;br&gt;&lt;br&gt;&lt;b&gt;BlastP hit with MCIC6FC_022620&lt;/b&gt;&lt;br&gt;Percentage identity: 79&lt;br&gt;Percentage coverage: 20&lt;br&gt;BLAST bit score: 225&lt;br&gt;E-value: 1.8e-56" locus_tag="G368_RS0101945" class="clusterblast-orf" id="dummy-1_h1_10_8"  />
</g>
<g id="a1_009"  >
<polygon points="573,85 578,80 649,80 649,90 578,90 573,85 " style="fill:#77d815; stroke-width:1; stroke:black; " description="&lt;b&gt;G368_RS0101940&lt;/b&gt;&lt;br&gt;LysR family transcriptional regulator&lt;br&gt;Location: 399802 - 398894&lt;br&gt;&lt;br&gt;&lt;b&gt;BlastP hit with MCIC6FC_022621&lt;/b&gt;&lt;br&gt;Percentage identity: 87&lt;br&gt;Percentage coverage: 99&lt;br&gt;BLAST bit score: 529&lt;br&gt;E-value: 2.5e-148" locus_tag="G368_RS0101940" class="clusterblast-orf" id="dummy-1_h1_10_9"  />
</g>
<g id="a1_0010"  >
<polygon points="658,90 703,90 708,85 703,80 658,80 658,90 " style="fill:#15d8d8; stroke-width:1; stroke:black; " description="&lt;b&gt;G368_RS0101935&lt;/b&gt;&lt;br&gt;short chain dehydrogenase&lt;br&gt;Location: 398787 - 398188&lt;br&gt;&lt;br&gt;&lt;b&gt;BlastP hit with MCIC6FC_022622&lt;/b&gt;&lt;br&gt;Percentage identity: 84&lt;br&gt;Percentage coverage: 46&lt;br&gt;BLAST bit score: 327&lt;br&gt;E-value: 1.5e-87" locus_tag="G368_RS0101935" class="clusterblast-orf" id="dummy-1_h1_10_10"  />
</g>
<g id="a1_0011"  >
<polygon points="724,90 775,90 780,85 775,80 724,80 724,90 " style="fill:#15d8d8; stroke-width:1; stroke:black; " description="&lt;b&gt;G368_RS0101930&lt;/b&gt;&lt;br&gt;membrane protein&lt;br&gt;Location: 398006 - 397341&lt;br&gt;&lt;br&gt;&lt;b&gt;BlastP hit with MCIC6FC_022622&lt;/b&gt;&lt;br&gt;Percentage identity: 65&lt;br&gt;Percentage coverage: 52&lt;br&gt;BLAST bit score: 302&lt;br&gt;E-value: 5.2e-80" locus_tag="G368_RS0101930" class="clusterblast-orf" id="dummy-1_h1_10_11"  />
</g>
</svg>
