<svg xmlns="http://www.w3.org/2000/svg" xmlns:xlink="http://www.w3.org/1999/xlink" version="1.1" x="0" y="0" height="230" width="800" viewBox="0 0 800 230" preserveAspectRatio="none"  >
<g label="Query sequence" class="clusterblast-cluster"  >
<text x="5" y="20" class="clusterblast-acc"  >
Query sequence</text>
<line x1="10" y1="35" x2="778.0" y2="35" style="stroke-width:1; stroke:grey; "  />
<polygon points="0,35 5,30 193,30 193,40 5,40 0,35 " style="fill:#d81515; stroke-width:1; stroke:black; " description="&lt;b&gt;MCIC6FC_005928&lt;/b&gt;&lt;br&gt;hypothetical protein&lt;br&gt;Location: 2246328 - 2250248" locus_tag="MCIC6FC_005928" class="clusterblast-orf" id="dummy-5_q0_0_all"  />
<polygon points="200,40 540,40 545,35 540,30 200,30 200,40 " style="fill:#77d815; stroke-width:1; stroke:black; " description="&lt;b&gt;MCIC6FC_005929&lt;/b&gt;&lt;br&gt;hypothetical protein&lt;br&gt;Location: 2250396 - 2257407" locus_tag="MCIC6FC_005929" class="clusterblast-orf" id="dummy-5_q1_0_all"  />
<polygon points="546,35 551,30 622,30 622,40 551,40 546,35 " style="fill:#15d8d8; stroke-width:1; stroke:black; " description="&lt;b&gt;MCIC6FC_005930&lt;/b&gt;&lt;br&gt;hypothetical protein&lt;br&gt;Location: 2257420 - 2258963" locus_tag="MCIC6FC_005930" class="clusterblast-orf" id="dummy-5_q2_0_all"  />
<polygon points="652,35 657,30 780,30 780,40 657,40 652,35 " style="fill:#7715d8; stroke-width:1; stroke:black; " description="&lt;b&gt;MCIC6FC_005931&lt;/b&gt;&lt;br&gt;hypothetical protein&lt;br&gt;Location: 2259577 - 2262177" locus_tag="MCIC6FC_005931" class="clusterblast-orf" id="dummy-5_q3_0_all"  />
</g>
<g label="NZ_RJUX01000002" description="NZ_RJUX01000002 (825705-840538): Pseudomonas protegens strain JUb28 Ga0304786... (72% of genes show similarity), NAGGN" class="clusterblast-cluster"  >
<text x="5" y="70" class="clusterblast-acc"  >
<a xlink:href="https://antismash-db.secondarymetabolites.org/area.html?record=NZ_RJUX01000002&amp;start=825705&amp;end=840538" target="_blank">NZ_RJUX01000002 (825705-840538)</a>: Pseudomonas protegens strain JUb28 Ga0304786... (72% of genes show similarity), NAGGN</text>
<line x1="10" y1="85" x2="778.0" y2="85" style="stroke-width:1; stroke:grey; "  />
</g>
<g id="a5_000"  >
<polygon points="58,85 63,80 133,80 133,90 63,90 58,85 " style="fill:#d81515; stroke-width:1; stroke:black; " description="&lt;b&gt;EC837_RS22190&lt;/b&gt;&lt;br&gt;polyphosphate:AMP phosphotransferase&lt;br&gt;Location: 839381 - 837867&lt;br&gt;&lt;br&gt;&lt;b&gt;BlastP hit with MCIC6FC_005928&lt;/b&gt;&lt;br&gt;Percentage identity: 98&lt;br&gt;Percentage coverage: 41&lt;br&gt;BLAST bit score: 1016&lt;br&gt;E-value: 2.1e-294" locus_tag="EC837_RS22190" class="clusterblast-orf" id="dummy-5_h5_1_0"  />
</g>
<g id="a5_001"  >
<polygon points="140,90 232,90 237,85 232,80 140,80 140,90 " style="fill:#77d815; stroke-width:1; stroke:black; " description="&lt;b&gt;EC837_RS22185&lt;/b&gt;&lt;br&gt;bifunctional tRNA (5-methylaminomethyl-2-thiouridine)(34)-methyltransferase MnmD/FAD-dependent 5-carboxymethylaminomethyl-2-thiouridine(34) oxidoreductase MnmC&lt;br&gt;Location: 837718 - 835742&lt;br&gt;&lt;br&gt;&lt;b&gt;BlastP hit with MCIC6FC_005929&lt;/b&gt;&lt;br&gt;Percentage identity: 95&lt;br&gt;Percentage coverage: 29&lt;br&gt;BLAST bit score: 1255&lt;br&gt;E-value: 0.0" locus_tag="EC837_RS22185" class="clusterblast-orf" id="dummy-5_h5_1_1"  />
</g>
<g id="a5_002"  >
<polygon points="247,90 330,90 335,85 330,80 247,80 247,90 " style="fill:#77d815; stroke-width:1; stroke:black; " description="&lt;b&gt;EC837_RS22180&lt;/b&gt;&lt;br&gt;N-acetylglutaminylglutamine amidotransferase&lt;br&gt;Location: 835538 - 833766&lt;br&gt;&lt;br&gt;&lt;b&gt;BlastP hit with MCIC6FC_005929&lt;/b&gt;&lt;br&gt;Percentage identity: 98&lt;br&gt;Percentage coverage: 26&lt;br&gt;BLAST bit score: 1156&lt;br&gt;E-value: 0.0" locus_tag="EC837_RS22180" class="clusterblast-orf" id="dummy-5_h5_1_2"  />
</g>
<g id="a5_003"  >
<polygon points="335,90 416,90 421,85 416,80 335,80 335,90 " style="fill:#77d815; stroke-width:1; stroke:black; " description="&lt;b&gt;EC837_RS22175&lt;/b&gt;&lt;br&gt;N-acetylglutaminylglutamine synthetase&lt;br&gt;Location: 833762 - 832017&lt;br&gt;&lt;br&gt;&lt;b&gt;BlastP hit with MCIC6FC_005929&lt;/b&gt;&lt;br&gt;Percentage identity: 98&lt;br&gt;Percentage coverage: 26&lt;br&gt;BLAST bit score: 1142&lt;br&gt;E-value: 0.0" locus_tag="EC837_RS22175" class="clusterblast-orf" id="dummy-5_h5_1_3"  />
</g>
<g id="a5_004"  >
<polygon points="427,90 480,90 485,85 480,80 427,80 427,90 " style="fill:#77d815; stroke-width:1; stroke:black; " description="&lt;b&gt;EC837_RS22170&lt;/b&gt;&lt;br&gt;osmoprotectant NAGGN system M42 family peptidase&lt;br&gt;Location: 831890 - 830706&lt;br&gt;&lt;br&gt;&lt;b&gt;BlastP hit with MCIC6FC_005929&lt;/b&gt;&lt;br&gt;Percentage identity: 100&lt;br&gt;Percentage coverage: 18&lt;br&gt;BLAST bit score: 789&lt;br&gt;E-value: 9.7e-226" locus_tag="EC837_RS22170" class="clusterblast-orf" id="dummy-5_h5_1_4"  />
</g>
<g id="a5_005"  >
<polygon points="489,90 496,90 501,85 496,80 489,80 489,90 " style="fill:white; stroke-width:1; stroke:black; " description="&lt;b&gt;EC837_RS22165&lt;/b&gt;&lt;br&gt;YheU family protein&lt;br&gt;Location: 830621 - 830394" locus_tag="EC837_RS22165" class="clusterblast-orf" id="dummy-5_h5_1_5"  />
</g>
<g id="a5_006"  >
<polygon points="502,85 507,80 519,80 519,90 507,90 502,85 " style="fill:#15d8d8; stroke-width:1; stroke:black; " description="&lt;b&gt;EC837_RS22160&lt;/b&gt;&lt;br&gt;YnfA family protein&lt;br&gt;Location: 830357 - 830025&lt;br&gt;&lt;br&gt;&lt;b&gt;BlastP hit with MCIC6FC_005930&lt;/b&gt;&lt;br&gt;Percentage identity: 97&lt;br&gt;Percentage coverage: 23&lt;br&gt;BLAST bit score: 216&lt;br&gt;E-value: 7.2e-54" locus_tag="EC837_RS22160" class="clusterblast-orf" id="dummy-5_h5_1_6"  />
</g>
<g id="a5_007"  >
<polygon points="522,85 527,80 562,80 562,90 527,90 522,85 " style="fill:#15d8d8; stroke-width:1; stroke:black; " description="&lt;b&gt;EC837_RS22155&lt;/b&gt;&lt;br&gt;SDR family oxidoreductase&lt;br&gt;Location: 829959 - 829144&lt;br&gt;&lt;br&gt;&lt;b&gt;BlastP hit with MCIC6FC_005930&lt;/b&gt;&lt;br&gt;Percentage identity: 97&lt;br&gt;Percentage coverage: 52&lt;br&gt;BLAST bit score: 478&lt;br&gt;E-value: 5.9e-133" locus_tag="EC837_RS22155" class="clusterblast-orf" id="dummy-5_h5_1_7"  />
</g>
<g id="a5_008"  >
<polygon points="577,90 580,90 585,85 580,80 577,80 577,90 " style="fill:white; stroke-width:1; stroke:black; " description="&lt;b&gt;EC837_RS22150&lt;/b&gt;&lt;br&gt;DUF3309 domain-containing protein&lt;br&gt;Location: 828835 - 828683" locus_tag="EC837_RS22150" class="clusterblast-orf" id="dummy-5_h5_1_8"  />
</g>
<g id="a5_009"  >
<polygon points="593,85 598,80 696,80 696,90 598,90 593,85 " style="fill:#7715d8; stroke-width:1; stroke:black; " description="&lt;b&gt;EC837_RS22145&lt;/b&gt;&lt;br&gt;LTA synthase family protein&lt;br&gt;Location: 828520 - 826433&lt;br&gt;&lt;br&gt;&lt;b&gt;BlastP hit with MCIC6FC_005931&lt;/b&gt;&lt;br&gt;Percentage identity: 99&lt;br&gt;Percentage coverage: 93&lt;br&gt;BLAST bit score: 1363&lt;br&gt;E-value: 0.0" locus_tag="EC837_RS22145" class="clusterblast-orf" id="dummy-5_h5_1_9"  />
</g>
<g id="a5_0010"  >
<polygon points="711,85 716,80 721,80 721,90 716,90 711,85 " style="fill:white; stroke-width:1; stroke:black; " description="&lt;b&gt;EC837_RS22140&lt;/b&gt;&lt;br&gt;PLDc N-terminal domain-containing protein&lt;br&gt;Location: 826115 - 825924" locus_tag="EC837_RS22140" class="clusterblast-orf" id="dummy-5_h5_1_10"  />
</g>
</svg>
