<svg xmlns="http://www.w3.org/2000/svg" xmlns:xlink="http://www.w3.org/1999/xlink" version="1.1" x="0" y="0" height="230" width="800" viewBox="0 0 800 230" preserveAspectRatio="none"  >
<g label="Query sequence" class="clusterblast-cluster"  >
<text x="5" y="20" class="clusterblast-acc"  >
Query sequence</text>
<line x1="10" y1="35" x2="778.0" y2="35" style="stroke-width:1; stroke:grey; "  />
<polygon points="159,40 161,40 166,35 161,30 159,30 159,40 " style="fill:#d81515; stroke-width:1; stroke:black; " description="&lt;b&gt;MCIC6FC_021116&lt;/b&gt;&lt;br&gt;hypothetical protein&lt;br&gt;Location: 19640 - 20363" locus_tag="MCIC6FC_021116" class="clusterblast-orf" id="dummy-1_q0_0_all"  />
<polygon points="172,35 177,30 206,30 206,40 177,40 172,35 " style="fill:white; stroke-width:1; stroke:black; " description="&lt;b&gt;MCIC6FC_021117&lt;/b&gt;&lt;br&gt;hypothetical protein&lt;br&gt;Location: 20977 - 24350" locus_tag="MCIC6FC_021117" class="clusterblast-orf" id="dummy-1_q1_0_all"  />
<polygon points="211,40 275,40 280,35 275,30 211,30 211,40 " style="fill:white; stroke-width:1; stroke:black; " description="&lt;b&gt;MCIC6FC_021118&lt;/b&gt;&lt;br&gt;hypothetical protein&lt;br&gt;Location: 24858 - 31752" locus_tag="MCIC6FC_021118" class="clusterblast-orf" id="dummy-1_q2_0_all"  />
<polygon points="289,35 294,30 324,30 324,40 294,40 289,35 " style="fill:white; stroke-width:1; stroke:black; " description="&lt;b&gt;MCIC6FC_021119&lt;/b&gt;&lt;br&gt;hypothetical protein&lt;br&gt;Location: 32597 - 36108" locus_tag="MCIC6FC_021119" class="clusterblast-orf" id="dummy-1_q3_0_all"  />
<polygon points="330,35 335,30 344,30 344,40 335,40 330,35 " style="fill:white; stroke-width:1; stroke:black; " description="&lt;b&gt;MCIC6FC_021120&lt;/b&gt;&lt;br&gt;hypothetical protein&lt;br&gt;Location: 36683 - 38100" locus_tag="MCIC6FC_021120" class="clusterblast-orf" id="dummy-1_q4_0_all"  />
<polygon points="352,40 353,40 358,35 353,30 352,30 352,40 " style="fill:white; stroke-width:1; stroke:black; " description="&lt;b&gt;MCIC6FC_021121&lt;/b&gt;&lt;br&gt;hypothetical protein&lt;br&gt;Location: 38889 - 39534" locus_tag="MCIC6FC_021121" class="clusterblast-orf" id="dummy-1_q5_0_all"  />
<polygon points="359,35 364,30 420,30 420,40 364,40 359,35 " style="fill:#15d863; stroke-width:1; stroke:black; " description="&lt;b&gt;MCIC6FC_021122&lt;/b&gt;&lt;br&gt;hypothetical protein&lt;br&gt;Location: 39551 - 45681" locus_tag="MCIC6FC_021122" class="clusterblast-orf" id="dummy-1_q6_0_all"  />
<polygon points="435,40 482,40 487,35 482,30 435,30 435,40 " style="fill:#1563d8; stroke-width:1; stroke:black; " description="&lt;b&gt;MCIC6FC_021123&lt;/b&gt;&lt;br&gt;hypothetical protein&lt;br&gt;Location: 47121 - 52324" locus_tag="MCIC6FC_021123" class="clusterblast-orf" id="dummy-1_q7_0_all"  />
<polygon points="487,40 506,40 511,35 506,30 487,30 487,40 " style="fill:#b115d8; stroke-width:1; stroke:black; " description="&lt;b&gt;MCIC6FC_021124&lt;/b&gt;&lt;br&gt;hypothetical protein&lt;br&gt;Location: 52348 - 54739" locus_tag="MCIC6FC_021124" class="clusterblast-orf" id="dummy-1_q8_0_all"  />
<polygon points="511,35 516,30 520,30 520,40 516,40 511,35 " style="fill:#b1d815; stroke-width:1; stroke:black; " description="&lt;b&gt;MCIC6FC_021125&lt;/b&gt;&lt;br&gt;hypothetical protein&lt;br&gt;Location: 54748 - 55637" locus_tag="MCIC6FC_021125" class="clusterblast-orf" id="dummy-1_q9_0_all"  />
<polygon points="547,40 604,40 609,35 604,30 547,30 547,40 " style="fill:#15d863; stroke-width:1; stroke:black; " description="&lt;b&gt;MCIC6FC_021126&lt;/b&gt;&lt;br&gt;hypothetical protein&lt;br&gt;Location: 58292 - 64540" locus_tag="MCIC6FC_021126" class="clusterblast-orf" id="dummy-1_q10_0_all"  />
<polygon points="611,40 616,40 621,35 616,30 611,30 611,40 " style="fill:white; stroke-width:1; stroke:black; " description="&lt;b&gt;MCIC6FC_021127&lt;/b&gt;&lt;br&gt;hypothetical protein&lt;br&gt;Location: 64712 - 65655" locus_tag="MCIC6FC_021127" class="clusterblast-orf" id="dummy-1_q11_0_all"  />
</g>
<g label="NZ_NOLJ01000001" description="NZ_NOLJ01000001 (861367-940122): Nostoc sp. 'Peltigera membranacea cyanobiont... (9% of genes show similarity), NRPS,T1PKS" class="clusterblast-cluster"  >
<text x="5" y="70" class="clusterblast-acc"  >
<a xlink:href="https://antismash-db.secondarymetabolites.org/area.html?record=NZ_NOLJ01000001&amp;start=861367&amp;end=940122" target="_blank">NZ_NOLJ01000001 (861367-940122)</a>: Nostoc sp. 'Peltigera membranacea cyanobiont... (9% of genes show similarity), NRPS,T1PKS</text>
<line x1="10" y1="85" x2="778.0" y2="85" style="stroke-width:1; stroke:grey; "  />
</g>
<g id="a1_000"  >
<polygon points="0,85 2,80 2,90 0,85 " style="fill:white; stroke-width:1; stroke:black; " description="&lt;b&gt;CDG76_RS03870&lt;/b&gt;&lt;br&gt;hypothetical protein&lt;br&gt;Location: 939524 - 939309" locus_tag="CDG76_RS03870" class="clusterblast-orf" id="dummy-1_h1_6_0"  />
</g>
<g id="a1_001"  >
<polygon points="8,85 13,80 23,80 23,90 13,90 8,85 " style="fill:white; stroke-width:1; stroke:black; " description="&lt;b&gt;CDG76_RS03865&lt;/b&gt;&lt;br&gt;alpha-amylase&lt;br&gt;Location: 938636 - 937179" locus_tag="CDG76_RS03865" class="clusterblast-orf" id="dummy-1_h1_6_1"  />
</g>
<g id="a1_002"  >
<polygon points="24,85 29,80 33,80 33,90 29,90 24,85 " style="fill:white; stroke-width:1; stroke:black; " description="&lt;b&gt;CDG76_RS03860&lt;/b&gt;&lt;br&gt;alpha/beta hydrolase&lt;br&gt;Location: 937042 - 936194" locus_tag="CDG76_RS03860" class="clusterblast-orf" id="dummy-1_h1_6_2"  />
</g>
<g id="a1_003"  >
<polygon points="39,90 55,90 60,85 55,80 39,80 39,90 " style="fill:white; stroke-width:1; stroke:black; " description="&lt;b&gt;CDG76_RS03855&lt;/b&gt;&lt;br&gt;VWA domain-containing protein&lt;br&gt;Location: 935608 - 933542" locus_tag="CDG76_RS03855" class="clusterblast-orf" id="dummy-1_h1_6_3"  />
</g>
<g id="a1_004"  >
<polygon points="61,85 66,80 69,80 69,90 66,90 61,85 " style="fill:white; stroke-width:1; stroke:black; " description="&lt;b&gt;CDG76_RS03850&lt;/b&gt;&lt;br&gt;ABC transporter ATP-binding protein&lt;br&gt;Location: 933373 - 932558" locus_tag="CDG76_RS03850" class="clusterblast-orf" id="dummy-1_h1_6_4"  />
</g>
<g id="a1_005"  >
<polygon points="73,85 78,80 83,80 83,90 78,90 73,85 " style="fill:white; stroke-width:1; stroke:black; " description="&lt;b&gt;CDG76_RS03845&lt;/b&gt;&lt;br&gt;iron ABC transporter permease&lt;br&gt;Location: 932252 - 931200" locus_tag="CDG76_RS03845" class="clusterblast-orf" id="dummy-1_h1_6_5"  />
</g>
<g id="a1_006"  >
<polygon points="83,85 88,80 93,80 93,90 88,90 83,85 " style="fill:white; stroke-width:1; stroke:black; " description="&lt;b&gt;CDG76_RS03840&lt;/b&gt;&lt;br&gt;iron ABC transporter permease&lt;br&gt;Location: 931203 - 930172" locus_tag="CDG76_RS03840" class="clusterblast-orf" id="dummy-1_h1_6_6"  />
</g>
<g id="a1_007"  >
<polygon points="93,85 98,80 101,80 101,90 98,90 93,85 " style="fill:white; stroke-width:1; stroke:black; " description="&lt;b&gt;CDG76_RS03835&lt;/b&gt;&lt;br&gt;hypothetical protein&lt;br&gt;Location: 930179 - 929442" locus_tag="CDG76_RS03835" class="clusterblast-orf" id="dummy-1_h1_6_7"  />
</g>
<g id="a1_008"  >
<polygon points="101,85 106,80 122,80 122,90 106,90 101,85 " style="fill:white; stroke-width:1; stroke:black; " description="&lt;b&gt;CDG76_RS03830&lt;/b&gt;&lt;br&gt;acylase&lt;br&gt;Location: 929436 - 927310" locus_tag="CDG76_RS03830" class="clusterblast-orf" id="dummy-1_h1_6_8"  />
</g>
<g id="a1_009"  >
<polygon points="123,85 128,80 136,80 136,90 128,90 123,85 " style="fill:white; stroke-width:1; stroke:black; " description="&lt;b&gt;CDG76_RS03825&lt;/b&gt;&lt;br&gt;MFS transporter&lt;br&gt;Location: 927275 - 925974" locus_tag="CDG76_RS03825" class="clusterblast-orf" id="dummy-1_h1_6_9"  />
</g>
<g id="a1_0010"  >
<polygon points="136,85 141,80 146,80 146,90 141,90 136,85 " style="fill:white; stroke-width:1; stroke:black; " description="&lt;b&gt;CDG76_RS03820&lt;/b&gt;&lt;br&gt;iron-siderophore ABC transporter substrate-binding protein&lt;br&gt;Location: 925936 - 924953" locus_tag="CDG76_RS03820" class="clusterblast-orf" id="dummy-1_h1_6_10"  />
</g>
<g id="a1_0011"  >
<polygon points="146,85 151,80 156,80 156,90 151,90 146,85 " style="fill:white; stroke-width:1; stroke:black; " description="&lt;b&gt;CDG76_RS03815&lt;/b&gt;&lt;br&gt;sucrase ferredoxin&lt;br&gt;Location: 924940 - 923984" locus_tag="CDG76_RS03815" class="clusterblast-orf" id="dummy-1_h1_6_11"  />
</g>
<g id="a1_0012"  >
<polygon points="158,85 163,80 183,80 183,90 163,90 158,85 " style="fill:white; stroke-width:1; stroke:black; " description="&lt;b&gt;CDG76_RS03810&lt;/b&gt;&lt;br&gt;TonB-dependent siderophore receptor&lt;br&gt;Location: 923762 - 921264" locus_tag="CDG76_RS03810" class="clusterblast-orf" id="dummy-1_h1_6_12"  />
</g>
<g id="a1_0013"  >
<polygon points="194,90 224,90 229,85 224,80 194,80 194,90 " style="fill:white; stroke-width:1; stroke:black; " description="&lt;b&gt;CDG76_RS03805&lt;/b&gt;&lt;br&gt;AMP-binding protein&lt;br&gt;Location: 920122 - 916664" locus_tag="CDG76_RS03805" class="clusterblast-orf" id="dummy-1_h1_6_13"  />
</g>
<g id="a1_0014"  >
<polygon points="230,90 235,90 240,85 235,80 230,80 230,90 " style="fill:white; stroke-width:1; stroke:black; " description="&lt;b&gt;CDG76_RS03800&lt;/b&gt;&lt;br&gt;hypothetical protein&lt;br&gt;Location: 916533 - 915619" locus_tag="CDG76_RS03800" class="clusterblast-orf" id="dummy-1_h1_6_14"  />
</g>
<g id="a1_0015"  >
<polygon points="240,90 245,90 250,85 245,80 240,80 240,90 " style="fill:#15d863; stroke-width:1; stroke:black; " description="&lt;b&gt;CDG76_RS03795&lt;/b&gt;&lt;br&gt;taurine catabolism dioxygenase TauD&lt;br&gt;Location: 915609 - 914560&lt;br&gt;&lt;br&gt;&lt;b&gt;BlastP hit with MCIC6FC_021126&lt;/b&gt;&lt;br&gt;Percentage identity: 32&lt;br&gt;Percentage coverage: 18&lt;br&gt;BLAST bit score: 180&lt;br&gt;E-value: 1.2e-42" locus_tag="CDG76_RS03795" class="clusterblast-orf" id="dummy-1_h1_6_15"  />
</g>
<g id="a1_0016"  >
<polygon points="250,90 333,90 338,85 333,80 250,80 250,90 " style="fill:#15d863; stroke-width:1; stroke:black; " description="&lt;b&gt;CDG76_RS03790&lt;/b&gt;&lt;br&gt;non-ribosomal peptide synthetase&lt;br&gt;Location: 914537 - 905814&lt;br&gt;&lt;br&gt;&lt;b&gt;BlastP hit with MCIC6FC_021126&lt;/b&gt;&lt;br&gt;Percentage identity: 32&lt;br&gt;Percentage coverage: 16&lt;br&gt;BLAST bit score: 123&lt;br&gt;E-value: 1.7e-25" locus_tag="CDG76_RS03790" class="clusterblast-orf" id="dummy-1_h1_6_16"  />
</g>
<g id="a1_0017"  >
<polygon points="340,90 343,90 348,85 343,80 340,80 340,90 " style="fill:white; stroke-width:1; stroke:black; " description="&lt;b&gt;CDG76_RS03785&lt;/b&gt;&lt;br&gt;class I SAM-dependent methyltransferase&lt;br&gt;Location: 905647 - 904853" locus_tag="CDG76_RS03785" class="clusterblast-orf" id="dummy-1_h1_6_17"  />
</g>
<g id="a1_0018"  >
<polygon points="349,90 376,90 381,85 376,80 349,80 349,90 " style="fill:white; stroke-width:1; stroke:black; " description="&lt;b&gt;CDG76_RS03780&lt;/b&gt;&lt;br&gt;non-ribosomal peptide synthetase&lt;br&gt;Location: 904739 - 901536" locus_tag="CDG76_RS03780" class="clusterblast-orf" id="dummy-1_h1_6_18"  />
</g>
<g id="a1_0019"  >
<polygon points="382,90 406,90 411,85 406,80 382,80 382,90 " style="fill:white; stroke-width:1; stroke:black; " description="&lt;b&gt;CDG76_RS03775&lt;/b&gt;&lt;br&gt;type I polyketide synthase&lt;br&gt;Location: 901488 - 898558" locus_tag="CDG76_RS03775" class="clusterblast-orf" id="dummy-1_h1_6_19"  />
</g>
<g id="a1_0020"  >
<polygon points="412,90 460,90 465,85 460,80 412,80 412,90 " style="fill:#15d863; stroke-width:1; stroke:black; " description="&lt;b&gt;CDG76_RS03770&lt;/b&gt;&lt;br&gt;non-ribosomal peptide synthetase&lt;br&gt;Location: 898497 - 893215&lt;br&gt;&lt;br&gt;&lt;b&gt;BlastP hit with MCIC6FC_021122&lt;/b&gt;&lt;br&gt;Percentage identity: 32&lt;br&gt;Percentage coverage: 31&lt;br&gt;BLAST bit score: 265&lt;br&gt;E-value: 5.4e-68" locus_tag="CDG76_RS03770" class="clusterblast-orf" id="dummy-1_h1_6_20"  />
</g>
<g id="a1_0021"  >
<polygon points="465,90 507,90 512,85 507,80 465,80 465,90 " style="fill:white; stroke-width:1; stroke:black; " description="&lt;b&gt;CDG76_RS03765&lt;/b&gt;&lt;br&gt;type I polyketide synthase&lt;br&gt;Location: 893218 - 888458" locus_tag="CDG76_RS03765" class="clusterblast-orf" id="dummy-1_h1_6_21"  />
</g>
<g id="a1_0022"  >
<polygon points="513,90 524,90 529,85 524,80 513,80 513,90 " style="fill:white; stroke-width:1; stroke:black; " description="&lt;b&gt;CDG76_RS03760&lt;/b&gt;&lt;br&gt;condensation protein&lt;br&gt;Location: 888371 - 886794" locus_tag="CDG76_RS03760" class="clusterblast-orf" id="dummy-1_h1_6_22"  />
</g>
<g id="a1_0023"  >
<polygon points="529,90 535,90 540,85 535,80 529,80 529,90 " style="fill:#15d863; stroke-width:1; stroke:black; " description="&lt;b&gt;CDG76_RS03755&lt;/b&gt;&lt;br&gt;taurine catabolism dioxygenase TauD&lt;br&gt;Location: 886771 - 885743&lt;br&gt;&lt;br&gt;&lt;b&gt;BlastP hit with MCIC6FC_021126&lt;/b&gt;&lt;br&gt;Percentage identity: 33&lt;br&gt;Percentage coverage: 18&lt;br&gt;BLAST bit score: 170&lt;br&gt;E-value: 1.2e-39" locus_tag="CDG76_RS03755" class="clusterblast-orf" id="dummy-1_h1_6_23"  />
</g>
<g id="a1_0024"  >
<polygon points="540,90 579,90 584,85 579,80 540,80 540,90 " style="fill:white; stroke-width:1; stroke:black; " description="&lt;b&gt;CDG76_RS03750&lt;/b&gt;&lt;br&gt;non-ribosomal peptide synthetase&lt;br&gt;Location: 885723 - 881368" locus_tag="CDG76_RS03750" class="clusterblast-orf" id="dummy-1_h1_6_24"  />
</g>
<g id="a1_0025"  >
<polygon points="584,90 587,90 592,85 587,80 584,80 584,90 " style="fill:white; stroke-width:1; stroke:black; " description="&lt;b&gt;CDG76_RS03745&lt;/b&gt;&lt;br&gt;class I SAM-dependent methyltransferase&lt;br&gt;Location: 881324 - 880566" locus_tag="CDG76_RS03745" class="clusterblast-orf" id="dummy-1_h1_6_25"  />
</g>
<g id="a1_0026"  >
<polygon points="592,90 602,90 607,85 602,80 592,80 592,90 " style="fill:white; stroke-width:1; stroke:black; " description="&lt;b&gt;CDG76_RS03740&lt;/b&gt;&lt;br&gt;aminotransferase class III-fold pyridoxal phosphate-dependent enzyme&lt;br&gt;Location: 880506 - 879052" locus_tag="CDG76_RS03740" class="clusterblast-orf" id="dummy-1_h1_6_26"  />
</g>
<g id="a1_0027"  >
<polygon points="607,90 610,85 607,80 607,90 " style="fill:white; stroke-width:1; stroke:black; " description="&lt;b&gt;CDG76_RS03735&lt;/b&gt;&lt;br&gt;MbtH family protein&lt;br&gt;Location: 879013 - 878786" locus_tag="CDG76_RS03735" class="clusterblast-orf" id="dummy-1_h1_6_27"  />
</g>
<g id="a1_0028"  >
<polygon points="611,85 616,80 618,80 618,90 616,90 611,85 " style="fill:white; stroke-width:1; stroke:black; " description="&lt;b&gt;CDG76_RS03730&lt;/b&gt;&lt;br&gt;DUF642 domain-containing protein&lt;br&gt;Location: 878623 - 877961" locus_tag="CDG76_RS03730" class="clusterblast-orf" id="dummy-1_h1_6_28"  />
</g>
<g id="a1_0029"  >
<polygon points="621,85 626,80 627,80 627,90 626,90 621,85 " style="fill:white; stroke-width:1; stroke:black; " description="&lt;b&gt;CDG76_RS03725&lt;/b&gt;&lt;br&gt;DUF642 domain-containing protein&lt;br&gt;Location: 877678 - 877070" locus_tag="CDG76_RS03725" class="clusterblast-orf" id="dummy-1_h1_6_29"  />
</g>
<g id="a1_0030"  >
<polygon points="627,85 632,80 636,80 636,90 632,90 627,85 " style="fill:white; stroke-width:1; stroke:black; " description="&lt;b&gt;CDG76_RS03720&lt;/b&gt;&lt;br&gt;molybdate ABC transporter substrate-binding protein&lt;br&gt;Location: 877030 - 876176" locus_tag="CDG76_RS03720" class="clusterblast-orf" id="dummy-1_h1_6_30"  />
</g>
<g id="a1_0031"  >
<polygon points="643,90 647,85 643,80 643,90 " style="fill:white; stroke-width:1; stroke:black; " description="&lt;b&gt;CDG76_RS03715&lt;/b&gt;&lt;br&gt;fasciclin domain-containing protein&lt;br&gt;Location: 875440 - 875039" locus_tag="CDG76_RS03715" class="clusterblast-orf" id="dummy-1_h1_6_31"  />
</g>
<g id="a1_0032"  >
<polygon points="649,85 654,80 656,80 656,90 654,90 649,85 " style="fill:white; stroke-width:1; stroke:black; " description="&lt;b&gt;CDG76_RS03710&lt;/b&gt;&lt;br&gt;DNA/RNA nuclease SfsA&lt;br&gt;Location: 874853 - 874128" locus_tag="CDG76_RS03710" class="clusterblast-orf" id="dummy-1_h1_6_32"  />
</g>
<g id="a1_0033"  >
<polygon points="659,90 660,90 665,85 660,80 659,80 659,90 " style="fill:white; stroke-width:1; stroke:black; " description="&lt;b&gt;CDG76_RS03705&lt;/b&gt;&lt;br&gt;hypothetical protein&lt;br&gt;Location: 873888 - 873220" locus_tag="CDG76_RS03705" class="clusterblast-orf" id="dummy-1_h1_6_33"  />
</g>
<g id="a1_0034"  >
<polygon points="669,90 676,90 681,85 676,80 669,80 669,90 " style="fill:white; stroke-width:1; stroke:black; " description="&lt;b&gt;CDG76_RS03700&lt;/b&gt;&lt;br&gt;tetratricopeptide repeat protein&lt;br&gt;Location: 872900 - 871632" locus_tag="CDG76_RS03700" class="clusterblast-orf" id="dummy-1_h1_6_34"  />
</g>
<g id="a1_0035"  >
<polygon points="683,85 688,80 691,80 691,90 688,90 683,85 " style="fill:white; stroke-width:1; stroke:black; " description="&lt;b&gt;CDG76_RS03695&lt;/b&gt;&lt;br&gt;PEP-CTERM sorting domain-containing protein&lt;br&gt;Location: 871507 - 870674" locus_tag="CDG76_RS03695" class="clusterblast-orf" id="dummy-1_h1_6_35"  />
</g>
<g id="a1_0036"  >
<polygon points="698,90 711,90 716,85 711,80 698,80 698,90 " style="fill:white; stroke-width:1; stroke:black; " description="&lt;b&gt;CDG76_RS03690&lt;/b&gt;&lt;br&gt;arginine--tRNA ligase&lt;br&gt;Location: 869945 - 868191" locus_tag="CDG76_RS03690" class="clusterblast-orf" id="dummy-1_h1_6_36"  />
</g>
<g id="a1_0037"  >
<polygon points="717,90 718,90 723,85 718,80 717,80 717,90 " style="fill:white; stroke-width:1; stroke:black; " description="&lt;b&gt;CDG76_RS03685&lt;/b&gt;&lt;br&gt;Uma2 family endonuclease&lt;br&gt;Location: 868064 - 867501" locus_tag="CDG76_RS03685" class="clusterblast-orf" id="dummy-1_h1_6_37"  />
</g>
<g id="a1_0038"  >
<polygon points="723,90 723,90 728,85 723,80 723,80 723,90 " style="fill:white; stroke-width:1; stroke:black; " description="&lt;b&gt;CDG76_RS03680&lt;/b&gt;&lt;br&gt;cobalamin biosynthesis protein&lt;br&gt;Location: 867463 - 866993" locus_tag="CDG76_RS03680" class="clusterblast-orf" id="dummy-1_h1_6_38"  />
</g>
<g id="a1_0039"  >
<polygon points="728,85 732,80 732,90 728,85 " style="fill:white; stroke-width:1; stroke:black; " description="&lt;b&gt;CDG76_RS03675&lt;/b&gt;&lt;br&gt;phage holin family protein&lt;br&gt;Location: 866988 - 866635" locus_tag="CDG76_RS03675" class="clusterblast-orf" id="dummy-1_h1_6_39"  />
</g>
<g id="a1_0040"  >
<polygon points="736,85 741,80 745,80 745,90 741,90 736,85 " style="fill:white; stroke-width:1; stroke:black; " description="&lt;b&gt;CDG76_RS03670&lt;/b&gt;&lt;br&gt;peptidoglycan-binding protein&lt;br&gt;Location: 866211 - 865288" locus_tag="CDG76_RS03670" class="clusterblast-orf" id="dummy-1_h1_6_40"  />
</g>
<g id="a1_0041"  >
<polygon points="747,85 751,80 751,90 747,85 " style="fill:white; stroke-width:1; stroke:black; " description="&lt;b&gt;CDG76_RS03665&lt;/b&gt;&lt;br&gt;transposase&lt;br&gt;Location: 865116 - 864721" locus_tag="CDG76_RS03665" class="clusterblast-orf" id="dummy-1_h1_6_41"  />
</g>
<g id="a1_0042"  >
<polygon points="753,85 758,80 766,80 766,90 758,90 753,85 " style="fill:white; stroke-width:1; stroke:black; " description="&lt;b&gt;CDG76_RS03660&lt;/b&gt;&lt;br&gt;insulinase family protein&lt;br&gt;Location: 864494 - 863223" locus_tag="CDG76_RS03660" class="clusterblast-orf" id="dummy-1_h1_6_42"  />
</g>
<g id="a1_0043"  >
<polygon points="767,85 772,80 780,80 780,90 772,90 767,85 " style="fill:white; stroke-width:1; stroke:black; " description="&lt;b&gt;CDG76_RS03655&lt;/b&gt;&lt;br&gt;insulinase family protein&lt;br&gt;Location: 863128 - 861863" locus_tag="CDG76_RS03655" class="clusterblast-orf" id="dummy-1_h1_6_43"  />
</g>
</svg>
