<svg xmlns="http://www.w3.org/2000/svg" xmlns:xlink="http://www.w3.org/1999/xlink" version="1.1" x="0" y="0" height="230" width="800" viewBox="0 0 800 230" preserveAspectRatio="none"  >
<g label="Query sequence" class="clusterblast-cluster"  >
<text x="5" y="20" class="clusterblast-acc"  >
Query sequence</text>
<line x1="10" y1="35" x2="778.0" y2="35" style="stroke-width:1; stroke:grey; "  />
<polygon points="191,40 288,40 293,35 288,30 191,30 191,40 " style="fill:#d81515; stroke-width:1; stroke:black; " description="&lt;b&gt;MCIC6FC_016886&lt;/b&gt;&lt;br&gt;hypothetical protein&lt;br&gt;Location: 31 - 6733" locus_tag="MCIC6FC_016886" class="clusterblast-orf" id="dummy-1_q0_0_all"  />
<polygon points="300,35 305,30 317,30 317,40 305,40 300,35 " style="fill:#15d815; stroke-width:1; stroke:black; " description="&lt;b&gt;MCIC6FC_016887&lt;/b&gt;&lt;br&gt;hypothetical protein&lt;br&gt;Location: 7172 - 8310" locus_tag="MCIC6FC_016887" class="clusterblast-orf" id="dummy-1_q1_0_all"  />
<polygon points="320,35 325,30 330,30 330,40 325,40 320,35 " style="fill:#15d815; stroke-width:1; stroke:black; " description="&lt;b&gt;MCIC6FC_016888&lt;/b&gt;&lt;br&gt;hypothetical protein&lt;br&gt;Location: 8475 - 9192" locus_tag="MCIC6FC_016888" class="clusterblast-orf" id="dummy-1_q2_0_all"  />
<polygon points="341,40 449,40 454,35 449,30 341,30 341,40 " style="fill:#1515d8; stroke-width:1; stroke:black; " description="&lt;b&gt;MCIC6FC_016889&lt;/b&gt;&lt;br&gt;hypothetical protein&lt;br&gt;Location: 9882 - 17276" locus_tag="MCIC6FC_016889" class="clusterblast-orf" id="dummy-1_q3_0_all"  />
<polygon points="455,40 458,40 463,35 458,30 455,30 455,40 " style="fill:white; stroke-width:1; stroke:black; " description="&lt;b&gt;MCIC6FC_016890&lt;/b&gt;&lt;br&gt;hypothetical protein&lt;br&gt;Location: 17354 - 17893" locus_tag="MCIC6FC_016890" class="clusterblast-orf" id="dummy-1_q4_0_all"  />
<polygon points="463,35 468,30 495,30 495,40 468,40 463,35 " style="fill:#d815d8; stroke-width:1; stroke:black; " description="&lt;b&gt;MCIC6FC_016891&lt;/b&gt;&lt;br&gt;hypothetical protein&lt;br&gt;Location: 17927 - 19999" locus_tag="MCIC6FC_016891" class="clusterblast-orf" id="dummy-1_q5_0_all"  />
<polygon points="499,40 508,40 513,35 508,30 499,30 499,40 " style="fill:#d8d815; stroke-width:1; stroke:black; " description="&lt;b&gt;MCIC6FC_016892&lt;/b&gt;&lt;br&gt;hypothetical protein&lt;br&gt;Location: 20291 - 21151" locus_tag="MCIC6FC_016892" class="clusterblast-orf" id="dummy-1_q6_0_all"  />
<polygon points="521,40 583,40 588,35 583,30 521,30 521,40 " style="fill:#15d8d8; stroke-width:1; stroke:black; " description="&lt;b&gt;MCIC6FC_016893&lt;/b&gt;&lt;br&gt;hypothetical protein&lt;br&gt;Location: 21717 - 26130" locus_tag="MCIC6FC_016893" class="clusterblast-orf" id="dummy-1_q7_0_all"  />
</g>
<g label="NZ_KI973205" description="NZ_KI973205 (270114-322239): Enterobacter sp. MGH 37 adjcm-supercont1.1, whol... (18% of genes show similarity), NRPS" class="clusterblast-cluster"  >
<text x="5" y="70" class="clusterblast-acc"  >
<a xlink:href="https://antismash-db.secondarymetabolites.org/area.html?record=NZ_KI973205&amp;start=270114&amp;end=322239" target="_blank">NZ_KI973205 (270114-322239)</a>: Enterobacter sp. MGH 37 adjcm-supercont1.1, whol... (18% of genes show similarity), NRPS</text>
<line x1="10" y1="85" x2="778.0" y2="85" style="stroke-width:1; stroke:grey; "  />
</g>
<g id="a1_000"  >
<polygon points="0,85 5,80 22,80 22,90 5,90 0,85 " style="fill:white; stroke-width:1; stroke:black; " description="&lt;b&gt;L383_RS22360&lt;/b&gt;&lt;br&gt;betaine-aldehyde dehydrogenase&lt;br&gt;Location: 270609 - 272081" locus_tag="L383_RS22360" class="clusterblast-orf" id="dummy-1_h1_10_0"  />
</g>
<g id="a1_001"  >
<polygon points="22,85 27,80 31,80 31,90 27,90 22,85 " style="fill:white; stroke-width:1; stroke:black; " description="&lt;b&gt;L383_RS22355&lt;/b&gt;&lt;br&gt;transcriptional regulator BetI&lt;br&gt;Location: 272095 - 272682" locus_tag="L383_RS22355" class="clusterblast-orf" id="dummy-1_h1_10_1"  />
</g>
<g id="a1_002"  >
<polygon points="33,90 59,90 64,85 59,80 33,80 33,90 " style="fill:white; stroke-width:1; stroke:black; " description="&lt;b&gt;L383_RS22350&lt;/b&gt;&lt;br&gt;choline BCCT transporter BetT&lt;br&gt;Location: 272811 - 274844" locus_tag="L383_RS22350" class="clusterblast-orf" id="dummy-1_h1_10_2"  />
</g>
<g id="a1_003"  >
<polygon points="81,90 84,90 89,85 84,80 81,80 81,90 " style="fill:white; stroke-width:1; stroke:black; " description="&lt;b&gt;L383_RS22335&lt;/b&gt;&lt;br&gt;hypothetical protein&lt;br&gt;Location: 275941 - 276486" locus_tag="L383_RS22335" class="clusterblast-orf" id="dummy-1_h1_10_3"  />
</g>
<g id="a1_004"  >
<polygon points="91,90 94,90 99,85 94,80 91,80 91,90 " style="fill:white; stroke-width:1; stroke:black; " description="&lt;b&gt;L383_RS22330&lt;/b&gt;&lt;br&gt;fimbrial protein&lt;br&gt;Location: 276602 - 277156" locus_tag="L383_RS22330" class="clusterblast-orf" id="dummy-1_h1_10_4"  />
</g>
<g id="a1_005"  >
<polygon points="100,90 105,90 110,85 105,80 100,80 100,90 " style="fill:#1515d8; stroke-width:1; stroke:black; " description="&lt;b&gt;L383_RS22325&lt;/b&gt;&lt;br&gt;molecular chaperone&lt;br&gt;Location: 277217 - 277894&lt;br&gt;&lt;br&gt;&lt;b&gt;BlastP hit with MCIC6FC_016889&lt;/b&gt;&lt;br&gt;Percentage identity: 35&lt;br&gt;Percentage coverage: 13&lt;br&gt;BLAST bit score: 129&lt;br&gt;E-value: 2.4e-27" locus_tag="L383_RS22325" class="clusterblast-orf" id="dummy-1_h1_10_5"  />
</g>
<g id="a1_006"  >
<polygon points="113,90 144,90 149,85 144,80 113,80 113,90 " style="fill:#1515d8; stroke-width:1; stroke:black; " description="&lt;b&gt;L383_RS22320&lt;/b&gt;&lt;br&gt;fimbrial biogenesis outer membrane usher protein&lt;br&gt;Location: 278067 - 280430&lt;br&gt;&lt;br&gt;&lt;b&gt;BlastP hit with MCIC6FC_016889&lt;/b&gt;&lt;br&gt;Percentage identity: 35&lt;br&gt;Percentage coverage: 47&lt;br&gt;BLAST bit score: 414&lt;br&gt;E-value: 6.4e-113" locus_tag="L383_RS22320" class="clusterblast-orf" id="dummy-1_h1_10_6"  />
</g>
<g id="a1_007"  >
<polygon points="150,90 160,90 165,85 160,80 150,80 150,90 " style="fill:white; stroke-width:1; stroke:black; " description="&lt;b&gt;L383_RS22315&lt;/b&gt;&lt;br&gt;fimbrial protein&lt;br&gt;Location: 280492 - 281487" locus_tag="L383_RS22315" class="clusterblast-orf" id="dummy-1_h1_10_7"  />
</g>
<g id="a1_008"  >
<polygon points="167,85 172,80 172,80 172,90 172,90 167,85 " style="fill:white; stroke-width:1; stroke:black; " description="&lt;b&gt;L383_RS25600&lt;/b&gt;&lt;br&gt;methionine synthase&lt;br&gt;Location: 281626 - 281923" locus_tag="L383_RS25600" class="clusterblast-orf" id="dummy-1_h1_10_8"  />
</g>
<g id="a1_009"  >
<polygon points="172,85 174,80 174,90 172,85 " style="fill:white; stroke-width:1; stroke:black; " description="&lt;b&gt;L383_RS25785&lt;/b&gt;&lt;br&gt;DUF1852 family protein&lt;br&gt;Location: 281927 - 282059" locus_tag="L383_RS25785" class="clusterblast-orf" id="dummy-1_h1_10_9"  />
</g>
<g id="a1_0010"  >
<polygon points="176,90 185,90 190,85 185,80 176,80 176,90 " style="fill:white; stroke-width:1; stroke:black; " description="&lt;b&gt;L383_RS22310&lt;/b&gt;&lt;br&gt;metal ABC transporter substrate-binding protein&lt;br&gt;Location: 282225 - 283127" locus_tag="L383_RS22310" class="clusterblast-orf" id="dummy-1_h1_10_10"  />
</g>
<g id="a1_0011"  >
<polygon points="190,90 197,90 202,85 197,80 190,80 190,90 " style="fill:white; stroke-width:1; stroke:black; " description="&lt;b&gt;L383_RS22305&lt;/b&gt;&lt;br&gt;iron/manganese ABC transporter ATP-binding protein SitB&lt;br&gt;Location: 283130 - 283936" locus_tag="L383_RS22305" class="clusterblast-orf" id="dummy-1_h1_10_11"  />
</g>
<g id="a1_0012"  >
<polygon points="202,90 210,90 215,85 210,80 202,80 202,90 " style="fill:white; stroke-width:1; stroke:black; " description="&lt;b&gt;L383_RS22300&lt;/b&gt;&lt;br&gt;iron/manganese ABC transporter permease subunit SitC&lt;br&gt;Location: 283933 - 284790" locus_tag="L383_RS22300" class="clusterblast-orf" id="dummy-1_h1_10_12"  />
</g>
<g id="a1_0013"  >
<polygon points="215,90 223,90 228,85 223,80 215,80 215,90 " style="fill:white; stroke-width:1; stroke:black; " description="&lt;b&gt;L383_RS22295&lt;/b&gt;&lt;br&gt;metal ABC transporter permease&lt;br&gt;Location: 284787 - 285626" locus_tag="L383_RS22295" class="clusterblast-orf" id="dummy-1_h1_10_13"  />
</g>
<g id="a1_0014"  >
<polygon points="227,85 232,80 238,80 238,90 232,90 227,85 " style="fill:white; stroke-width:1; stroke:black; " description="&lt;b&gt;L383_RS22290&lt;/b&gt;&lt;br&gt;enterobactin synthase subunit EntD&lt;br&gt;Location: 285580 - 286254" locus_tag="L383_RS22290" class="clusterblast-orf" id="dummy-1_h1_10_14"  />
</g>
<g id="a1_0015"  >
<polygon points="239,85 244,80 273,80 273,90 244,90 239,85 " style="fill:white; stroke-width:1; stroke:black; " description="&lt;b&gt;L383_RS22285&lt;/b&gt;&lt;br&gt;TonB-dependent siderophore receptor&lt;br&gt;Location: 286313 - 288553" locus_tag="L383_RS22285" class="clusterblast-orf" id="dummy-1_h1_10_15"  />
</g>
<g id="a1_0016"  >
<polygon points="275,90 288,90 293,85 288,80 275,80 275,90 " style="fill:white; stroke-width:1; stroke:black; " description="&lt;b&gt;L383_RS22280&lt;/b&gt;&lt;br&gt;enterochelin esterase&lt;br&gt;Location: 288699 - 289895" locus_tag="L383_RS22280" class="clusterblast-orf" id="dummy-1_h1_10_16"  />
</g>
<g id="a1_0017"  >
<polygon points="293,90 296,85 293,80 293,90 " style="fill:white; stroke-width:1; stroke:black; " description="&lt;b&gt;L383_RS22275&lt;/b&gt;&lt;br&gt;MbtH family NRPS accessory protein&lt;br&gt;Location: 289906 - 290118" locus_tag="L383_RS22275" class="clusterblast-orf" id="dummy-1_h1_10_17"  />
</g>
<g id="a1_0018"  >
<polygon points="296,90 350,90 355,85 350,80 296,80 296,90 " style="fill:#d81515; stroke-width:1; stroke:black; " description="&lt;b&gt;L383_RS22270&lt;/b&gt;&lt;br&gt;enterobactin non-ribosomal peptide synthetase EntF&lt;br&gt;Location: 290115 - 293972&lt;br&gt;&lt;br&gt;&lt;b&gt;BlastP hit with MCIC6FC_016886&lt;/b&gt;&lt;br&gt;Percentage identity: 62&lt;br&gt;Percentage coverage: 77&lt;br&gt;BLAST bit score: 1442&lt;br&gt;E-value: 0.0" locus_tag="L383_RS22270" class="clusterblast-orf" id="dummy-1_h1_10_18"  />
</g>
<g id="a1_0019"  >
<polygon points="357,85 362,80 369,80 369,90 362,90 357,85 " style="fill:white; stroke-width:1; stroke:black; " description="&lt;b&gt;L383_RS22265&lt;/b&gt;&lt;br&gt;iron-enterobactin ABC transporter ATP-binding protein&lt;br&gt;Location: 294081 - 294881" locus_tag="L383_RS22265" class="clusterblast-orf" id="dummy-1_h1_10_19"  />
</g>
<g id="a1_0020"  >
<polygon points="369,85 374,80 384,80 384,90 374,90 369,85 " style="fill:#d815d8; stroke-width:1; stroke:black; " description="&lt;b&gt;L383_RS22260&lt;/b&gt;&lt;br&gt;iron-enterobactin ABC transporter permease&lt;br&gt;Location: 294878 - 295870&lt;br&gt;&lt;br&gt;&lt;b&gt;BlastP hit with MCIC6FC_016891&lt;/b&gt;&lt;br&gt;Percentage identity: 56&lt;br&gt;Percentage coverage: 55&lt;br&gt;BLAST bit score: 270&lt;br&gt;E-value: 4.8e-70" locus_tag="L383_RS22260" class="clusterblast-orf" id="dummy-1_h1_10_20"  />
</g>
<g id="a1_0021"  >
<polygon points="384,85 389,80 399,80 399,90 389,90 384,85 " style="fill:#d815d8; stroke-width:1; stroke:black; " description="&lt;b&gt;L383_RS22255&lt;/b&gt;&lt;br&gt;Fe(3+)-siderophore ABC transporter permease&lt;br&gt;Location: 295867 - 296871&lt;br&gt;&lt;br&gt;&lt;b&gt;BlastP hit with MCIC6FC_016891&lt;/b&gt;&lt;br&gt;Percentage identity: 62&lt;br&gt;Percentage coverage: 61&lt;br&gt;BLAST bit score: 322&lt;br&gt;E-value: 1.1e-85" locus_tag="L383_RS22255" class="clusterblast-orf" id="dummy-1_h1_10_21"  />
</g>
<g id="a1_0022"  >
<polygon points="401,90 415,90 420,85 415,80 401,80 401,90 " style="fill:#d8d815; stroke-width:1; stroke:black; " description="&lt;b&gt;L383_RS22250&lt;/b&gt;&lt;br&gt;enterobactin transporter EntS&lt;br&gt;Location: 296980 - 298215&lt;br&gt;&lt;br&gt;&lt;b&gt;BlastP hit with MCIC6FC_016892&lt;/b&gt;&lt;br&gt;Percentage identity: 49&lt;br&gt;Percentage coverage: 128&lt;br&gt;BLAST bit score: 151&lt;br&gt;E-value: 6.3e-35" locus_tag="L383_RS22250" class="clusterblast-orf" id="dummy-1_h1_10_22"  />
</g>
<g id="a1_0023"  >
<polygon points="421,85 426,80 436,80 436,90 426,90 421,85 " style="fill:white; stroke-width:1; stroke:black; " description="&lt;b&gt;L383_RS22245&lt;/b&gt;&lt;br&gt;Fe2+-enterobactin ABC transporter substrate-binding protein&lt;br&gt;Location: 298297 - 299256" locus_tag="L383_RS22245" class="clusterblast-orf" id="dummy-1_h1_10_23"  />
</g>
<g id="a1_0024"  >
<polygon points="438,90 451,90 456,85 451,80 438,80 438,90 " style="fill:#15d8d8; stroke-width:1; stroke:black; " description="&lt;b&gt;L383_RS22240&lt;/b&gt;&lt;br&gt;isochorismate synthase EntC&lt;br&gt;Location: 299444 - 300619&lt;br&gt;&lt;br&gt;&lt;b&gt;BlastP hit with MCIC6FC_016893&lt;/b&gt;&lt;br&gt;Percentage identity: 59&lt;br&gt;Percentage coverage: 31&lt;br&gt;BLAST bit score: 386&lt;br&gt;E-value: 1.3e-104" locus_tag="L383_RS22240" class="clusterblast-orf" id="dummy-1_h1_10_24"  />
</g>
<g id="a1_0025"  >
<polygon points="456,90 476,90 481,85 476,80 456,80 456,90 " style="fill:#15d8d8; stroke-width:1; stroke:black; " description="&lt;b&gt;L383_RS22235&lt;/b&gt;&lt;br&gt;(2,3-dihydroxybenzoyl)adenylate synthase EntE&lt;br&gt;Location: 300629 - 302239&lt;br&gt;&lt;br&gt;&lt;b&gt;BlastP hit with MCIC6FC_016893&lt;/b&gt;&lt;br&gt;Percentage identity: 73&lt;br&gt;Percentage coverage: 45&lt;br&gt;BLAST bit score: 740&lt;br&gt;E-value: 2.1e-211" locus_tag="L383_RS22235" class="clusterblast-orf" id="dummy-1_h1_10_25"  />
</g>
<g id="a1_0026"  >
<polygon points="481,90 489,90 494,85 489,80 481,80 481,90 " style="fill:#15d8d8; stroke-width:1; stroke:black; " description="&lt;b&gt;L383_RS22230&lt;/b&gt;&lt;br&gt;isochorismatase&lt;br&gt;Location: 302250 - 303104&lt;br&gt;&lt;br&gt;&lt;b&gt;BlastP hit with MCIC6FC_016893&lt;/b&gt;&lt;br&gt;Percentage identity: 79&lt;br&gt;Percentage coverage: 20&lt;br&gt;BLAST bit score: 360&lt;br&gt;E-value: 7.8e-97" locus_tag="L383_RS22230" class="clusterblast-orf" id="dummy-1_h1_10_26"  />
</g>
<g id="a1_0027"  >
<polygon points="494,90 501,90 506,85 501,80 494,80 494,90 " style="fill:white; stroke-width:1; stroke:black; " description="&lt;b&gt;L383_RS22225&lt;/b&gt;&lt;br&gt;2,3-dihydro-2,3-dihydroxybenzoate dehydrogenase EntA&lt;br&gt;Location: 303104 - 303859" locus_tag="L383_RS22225" class="clusterblast-orf" id="dummy-1_h1_10_27"  />
</g>
<g id="a1_0028"  >
<polygon points="506,90 507,90 512,85 507,80 506,80 506,90 " style="fill:white; stroke-width:1; stroke:black; " description="&lt;b&gt;L383_RS22220&lt;/b&gt;&lt;br&gt;proofreading thioesterase EntH&lt;br&gt;Location: 303860 - 304273" locus_tag="L383_RS22220" class="clusterblast-orf" id="dummy-1_h1_10_28"  />
</g>
<g id="a1_0029"  >
<polygon points="514,90 541,90 546,85 541,80 514,80 514,90 " style="fill:white; stroke-width:1; stroke:black; " description="&lt;b&gt;L383_RS22215&lt;/b&gt;&lt;br&gt;carbon starvation protein CstA&lt;br&gt;Location: 304423 - 306528" locus_tag="L383_RS22215" class="clusterblast-orf" id="dummy-1_h1_10_29"  />
</g>
<g id="a1_0030"  >
<polygon points="547,90 550,85 547,80 547,90 " style="fill:white; stroke-width:1; stroke:black; " description="&lt;b&gt;L383_RS22210&lt;/b&gt;&lt;br&gt;YbdD/YjiX family protein&lt;br&gt;Location: 306588 - 306785" locus_tag="L383_RS22210" class="clusterblast-orf" id="dummy-1_h1_10_30"  />
</g>
<g id="a1_0031"  >
<polygon points="550,85 551,80 551,90 550,85 " style="fill:white; stroke-width:1; stroke:black; " description="&lt;b&gt;L383_RS25790&lt;/b&gt;&lt;br&gt;transcriptional regulator&lt;br&gt;Location: 306782 - 306856" locus_tag="L383_RS25790" class="clusterblast-orf" id="dummy-1_h1_10_31"  />
</g>
<g id="a1_0032"  >
<polygon points="552,85 557,80 563,80 563,90 557,90 552,85 " style="fill:white; stroke-width:1; stroke:black; " description="&lt;b&gt;L383_RS22205&lt;/b&gt;&lt;br&gt;3-oxoacyl-ACP reductase FabG&lt;br&gt;Location: 306917 - 307660" locus_tag="L383_RS22205" class="clusterblast-orf" id="dummy-1_h1_10_32"  />
</g>
<g id="a1_0033"  >
<polygon points="564,85 569,80 581,80 581,90 569,90 564,85 " style="fill:white; stroke-width:1; stroke:black; " description="&lt;b&gt;L383_RS22200&lt;/b&gt;&lt;br&gt;oxidoreductase&lt;br&gt;Location: 307720 - 308808" locus_tag="L383_RS22200" class="clusterblast-orf" id="dummy-1_h1_10_33"  />
</g>
<g id="a1_0034"  >
<polygon points="583,90 601,90 606,85 601,80 583,80 583,90 " style="fill:white; stroke-width:1; stroke:black; " description="&lt;b&gt;L383_RS22195&lt;/b&gt;&lt;br&gt;sugar ABC transporter ATP-binding protein&lt;br&gt;Location: 308968 - 310470" locus_tag="L383_RS22195" class="clusterblast-orf" id="dummy-1_h1_10_34"  />
</g>
<g id="a1_0035"  >
<polygon points="606,90 616,90 621,85 616,80 606,80 606,90 " style="fill:white; stroke-width:1; stroke:black; " description="&lt;b&gt;L383_RS22190&lt;/b&gt;&lt;br&gt;ABC transporter permease&lt;br&gt;Location: 310467 - 311462" locus_tag="L383_RS22190" class="clusterblast-orf" id="dummy-1_h1_10_35"  />
</g>
<g id="a1_0036"  >
<polygon points="622,90 633,90 638,85 633,80 622,80 622,90 " style="fill:white; stroke-width:1; stroke:black; " description="&lt;b&gt;L383_RS22185&lt;/b&gt;&lt;br&gt;sugar ABC transporter substrate-binding protein&lt;br&gt;Location: 311482 - 312546" locus_tag="L383_RS22185" class="clusterblast-orf" id="dummy-1_h1_10_36"  />
</g>
<g id="a1_0037"  >
<polygon points="638,90 652,90 657,85 652,80 638,80 638,90 " style="fill:white; stroke-width:1; stroke:black; " description="&lt;b&gt;L383_RS22180&lt;/b&gt;&lt;br&gt;LVIVD repeat-containing protein&lt;br&gt;Location: 312543 - 313784" locus_tag="L383_RS22180" class="clusterblast-orf" id="dummy-1_h1_10_37"  />
</g>
<g id="a1_0038"  >
<polygon points="658,85 663,80 676,80 676,90 663,90 658,85 " style="fill:white; stroke-width:1; stroke:black; " description="&lt;b&gt;L383_RS22175&lt;/b&gt;&lt;br&gt;S-methyl-5-thioribose kinase&lt;br&gt;Location: 313847 - 315046" locus_tag="L383_RS22175" class="clusterblast-orf" id="dummy-1_h1_10_38"  />
</g>
<g id="a1_0039"  >
<polygon points="678,90 688,90 693,85 688,80 678,80 678,90 " style="fill:white; stroke-width:1; stroke:black; " description="&lt;b&gt;L383_RS22170&lt;/b&gt;&lt;br&gt;S-methyl-5-thioribose-1-phosphate isomerase&lt;br&gt;Location: 315151 - 316167" locus_tag="L383_RS22170" class="clusterblast-orf" id="dummy-1_h1_10_39"  />
</g>
<g id="a1_0040"  >
<polygon points="694,90 696,90 701,85 696,80 694,80 694,90 " style="fill:white; stroke-width:1; stroke:black; " description="&lt;b&gt;L383_RS22165&lt;/b&gt;&lt;br&gt;SRPBCC family protein&lt;br&gt;Location: 316210 - 316689" locus_tag="L383_RS22165" class="clusterblast-orf" id="dummy-1_h1_10_40"  />
</g>
<g id="a1_0041"  >
<polygon points="701,85 706,80 706,80 706,90 706,90 701,85 " style="fill:white; stroke-width:1; stroke:black; " description="&lt;b&gt;L383_RS22160&lt;/b&gt;&lt;br&gt;helix-turn-helix domain-containing protein&lt;br&gt;Location: 316725 - 316997" locus_tag="L383_RS22160" class="clusterblast-orf" id="dummy-1_h1_10_41"  />
</g>
<g id="a1_0042"  >
<polygon points="707,90 711,85 707,80 707,90 " style="fill:white; stroke-width:1; stroke:black; " description="&lt;b&gt;L383_RS22155&lt;/b&gt;&lt;br&gt;helix-turn-helix transcriptional regulator&lt;br&gt;Location: 317104 - 317328" locus_tag="L383_RS22155" class="clusterblast-orf" id="dummy-1_h1_10_42"  />
</g>
<g id="a1_0043"  >
<polygon points="711,90 726,90 731,85 726,80 711,80 711,90 " style="fill:white; stroke-width:1; stroke:black; " description="&lt;b&gt;L383_RS22150&lt;/b&gt;&lt;br&gt;hypothetical protein&lt;br&gt;Location: 317346 - 318665" locus_tag="L383_RS22150" class="clusterblast-orf" id="dummy-1_h1_10_43"  />
</g>
<g id="a1_0044"  >
<polygon points="732,85 737,80 740,80 740,90 737,90 732,85 " style="fill:white; stroke-width:1; stroke:black; " description="&lt;b&gt;L383_RS22145&lt;/b&gt;&lt;br&gt;acireductone dioxygenase&lt;br&gt;Location: 318729 - 319271" locus_tag="L383_RS22145" class="clusterblast-orf" id="dummy-1_h1_10_44"  />
</g>
<g id="a1_0045"  >
<polygon points="740,85 745,80 751,80 751,90 745,90 740,85 " style="fill:white; stroke-width:1; stroke:black; " description="&lt;b&gt;L383_RS22140&lt;/b&gt;&lt;br&gt;acireductone synthase&lt;br&gt;Location: 319268 - 319957" locus_tag="L383_RS22140" class="clusterblast-orf" id="dummy-1_h1_10_45"  />
</g>
<g id="a1_0046"  >
<polygon points="751,85 756,80 760,80 760,90 756,90 751,85 " style="fill:white; stroke-width:1; stroke:black; " description="&lt;b&gt;L383_RS22135&lt;/b&gt;&lt;br&gt;methylthioribulose 1-phosphate dehydratase&lt;br&gt;Location: 319954 - 320568" locus_tag="L383_RS22135" class="clusterblast-orf" id="dummy-1_h1_10_46"  />
</g>
<g id="a1_0047"  >
<polygon points="762,90 775,90 780,85 775,80 762,80 762,90 " style="fill:white; stroke-width:1; stroke:black; " description="&lt;b&gt;L383_RS22130&lt;/b&gt;&lt;br&gt;pyridoxal phosphate-dependent aminotransferase&lt;br&gt;Location: 320690 - 321850" locus_tag="L383_RS22130" class="clusterblast-orf" id="dummy-1_h1_10_47"  />
</g>
</svg>
