<svg xmlns="http://www.w3.org/2000/svg" xmlns:xlink="http://www.w3.org/1999/xlink" version="1.1" x="0" y="0" height="230" width="800" viewBox="0 0 800 230" preserveAspectRatio="none"  >
<g label="Query sequence" class="clusterblast-cluster"  >
<text x="5" y="20" class="clusterblast-acc"  >
Query sequence</text>
<line x1="10" y1="35" x2="778.0" y2="35" style="stroke-width:1; stroke:grey; "  />
<polygon points="0,35 5,30 6,30 6,40 5,40 0,35 " style="fill:white; stroke-width:1; stroke:black; " description="&lt;b&gt;MCIC6FC_015552&lt;/b&gt;&lt;br&gt;hypothetical protein&lt;br&gt;Location: 371442 - 372090" locus_tag="MCIC6FC_015552" class="clusterblast-orf" id="dummy-3_q0_0_all"  />
<polygon points="6,35 11,30 88,30 88,40 11,40 6,35 " style="fill:#d81515; stroke-width:1; stroke:black; " description="&lt;b&gt;MCIC6FC_015553&lt;/b&gt;&lt;br&gt;hypothetical protein&lt;br&gt;Location: 372113 - 380390" locus_tag="MCIC6FC_015553" class="clusterblast-orf" id="dummy-3_q1_0_all"  />
<polygon points="88,35 93,30 95,30 95,40 93,40 88,35 " style="fill:#63d815; stroke-width:1; stroke:black; " description="&lt;b&gt;MCIC6FC_015554&lt;/b&gt;&lt;br&gt;hypothetical protein&lt;br&gt;Location: 380413 - 381082" locus_tag="MCIC6FC_015554" class="clusterblast-orf" id="dummy-3_q2_0_all"  />
<polygon points="97,40 97,40 102,35 97,30 97,30 97,40 " style="fill:#15b1d8; stroke-width:1; stroke:black; " description="&lt;b&gt;MCIC6FC_015555&lt;/b&gt;&lt;br&gt;hypothetical protein&lt;br&gt;Location: 381269 - 381827" locus_tag="MCIC6FC_015555" class="clusterblast-orf" id="dummy-3_q3_0_all"  />
<polygon points="102,35 107,30 125,30 125,40 107,40 102,35 " style="fill:white; stroke-width:1; stroke:black; " description="&lt;b&gt;MCIC6FC_015556&lt;/b&gt;&lt;br&gt;hypothetical protein&lt;br&gt;Location: 381840 - 384127" locus_tag="MCIC6FC_015556" class="clusterblast-orf" id="dummy-3_q4_0_all"  />
<polygon points="127,40 132,40 137,35 132,30 127,30 127,40 " style="fill:white; stroke-width:1; stroke:black; " description="&lt;b&gt;MCIC6FC_015557&lt;/b&gt;&lt;br&gt;hypothetical protein&lt;br&gt;Location: 384363 - 385391" locus_tag="MCIC6FC_015557" class="clusterblast-orf" id="dummy-3_q5_0_all"  />
<polygon points="138,35 143,30 150,30 150,40 143,40 138,35 " style="fill:#b115d8; stroke-width:1; stroke:black; " description="&lt;b&gt;MCIC6FC_015558&lt;/b&gt;&lt;br&gt;hypothetical protein&lt;br&gt;Location: 385461 - 386667" locus_tag="MCIC6FC_015558" class="clusterblast-orf" id="dummy-3_q6_0_all"  />
<polygon points="153,35 158,30 163,30 163,40 158,40 153,35 " style="fill:#d86315; stroke-width:1; stroke:black; " description="&lt;b&gt;MCIC6FC_015559&lt;/b&gt;&lt;br&gt;hypothetical protein&lt;br&gt;Location: 386933 - 388010" locus_tag="MCIC6FC_015559" class="clusterblast-orf" id="dummy-3_q7_0_all"  />
<polygon points="165,40 166,40 171,35 166,30 165,30 165,40 " style="fill:#15d815; stroke-width:1; stroke:black; " description="&lt;b&gt;MCIC6FC_015560&lt;/b&gt;&lt;br&gt;hypothetical protein&lt;br&gt;Location: 388141 - 388819" locus_tag="MCIC6FC_015560" class="clusterblast-orf" id="dummy-3_q8_0_all"  />
<polygon points="172,40 179,40 184,35 179,30 172,30 172,40 " style="fill:#1563d8; stroke-width:1; stroke:black; " description="&lt;b&gt;MCIC6FC_015561&lt;/b&gt;&lt;br&gt;hypothetical protein&lt;br&gt;Location: 388845 - 390088" locus_tag="MCIC6FC_015561" class="clusterblast-orf" id="dummy-3_q9_0_all"  />
<polygon points="185,40 219,40 224,35 219,30 185,30 185,40 " style="fill:#d815b1; stroke-width:1; stroke:black; " description="&lt;b&gt;MCIC6FC_015562&lt;/b&gt;&lt;br&gt;hypothetical protein&lt;br&gt;Location: 390156 - 394193" locus_tag="MCIC6FC_015562" class="clusterblast-orf" id="dummy-3_q10_0_all"  />
<polygon points="225,35 230,30 247,30 247,40 230,40 225,35 " style="fill:#d8b115; stroke-width:1; stroke:black; " description="&lt;b&gt;MCIC6FC_015563&lt;/b&gt;&lt;br&gt;hypothetical protein&lt;br&gt;Location: 394235 - 396454" locus_tag="MCIC6FC_015563" class="clusterblast-orf" id="dummy-3_q11_0_all"  />
<polygon points="250,40 309,40 314,35 309,30 250,30 250,40 " style="fill:#15d863; stroke-width:1; stroke:black; " description="&lt;b&gt;MCIC6FC_015564&lt;/b&gt;&lt;br&gt;hypothetical protein&lt;br&gt;Location: 396796 - 403215" locus_tag="MCIC6FC_015564" class="clusterblast-orf" id="dummy-3_q12_0_all"  />
<polygon points="326,35 331,30 341,30 341,40 331,40 326,35 " style="fill:#1515d8; stroke-width:1; stroke:black; " description="&lt;b&gt;MCIC6FC_015565&lt;/b&gt;&lt;br&gt;hypothetical protein&lt;br&gt;Location: 404434 - 405952" locus_tag="MCIC6FC_015565" class="clusterblast-orf" id="dummy-3_q13_0_all"  />
<polygon points="341,35 346,30 357,30 357,40 346,40 341,35 " style="fill:#d81563; stroke-width:1; stroke:black; " description="&lt;b&gt;MCIC6FC_015566&lt;/b&gt;&lt;br&gt;hypothetical protein&lt;br&gt;Location: 405978 - 407634" locus_tag="MCIC6FC_015566" class="clusterblast-orf" id="dummy-3_q14_0_all"  />
<polygon points="359,35 364,30 366,30 366,40 364,40 359,35 " style="fill:#b1d815; stroke-width:1; stroke:black; " description="&lt;b&gt;MCIC6FC_015567&lt;/b&gt;&lt;br&gt;hypothetical protein&lt;br&gt;Location: 407821 - 408496" locus_tag="MCIC6FC_015567" class="clusterblast-orf" id="dummy-3_q15_0_all"  />
<polygon points="369,40 405,40 410,35 405,30 369,30 369,40 " style="fill:#15d815; stroke-width:1; stroke:black; " description="&lt;b&gt;MCIC6FC_015568&lt;/b&gt;&lt;br&gt;hypothetical protein&lt;br&gt;Location: 408773 - 412960" locus_tag="MCIC6FC_015568" class="clusterblast-orf" id="dummy-3_q16_0_all"  />
<polygon points="412,40 422,40 427,35 422,30 412,30 412,40 " style="fill:#15d8b1; stroke-width:1; stroke:black; " description="&lt;b&gt;MCIC6FC_015569&lt;/b&gt;&lt;br&gt;hypothetical protein&lt;br&gt;Location: 413124 - 414658" locus_tag="MCIC6FC_015569" class="clusterblast-orf" id="dummy-3_q17_0_all"  />
<polygon points="427,35 432,30 526,30 526,40 432,40 427,35 " style="fill:#6315d8; stroke-width:1; stroke:black; " description="&lt;b&gt;MCIC6FC_015570&lt;/b&gt;&lt;br&gt;hypothetical protein&lt;br&gt;Location: 414704 - 424715" locus_tag="MCIC6FC_015570" class="clusterblast-orf" id="dummy-3_q18_0_all"  />
<polygon points="529,35 534,30 536,30 536,40 534,40 529,35 " style="fill:white; stroke-width:1; stroke:black; " description="&lt;b&gt;MCIC6FC_015571&lt;/b&gt;&lt;br&gt;hypothetical protein&lt;br&gt;Location: 424954 - 425722" locus_tag="MCIC6FC_015571" class="clusterblast-orf" id="dummy-3_q19_0_all"  />
<polygon points="537,35 542,30 591,30 591,40 542,40 537,35 " style="fill:#15d815; stroke-width:1; stroke:black; " description="&lt;b&gt;MCIC6FC_015572&lt;/b&gt;&lt;br&gt;hypothetical protein&lt;br&gt;Location: 425831 - 431252" locus_tag="MCIC6FC_015572" class="clusterblast-orf" id="dummy-3_q20_0_all"  />
<polygon points="593,40 593,40 598,35 593,30 593,30 593,40 " style="fill:white; stroke-width:1; stroke:black; " description="&lt;b&gt;MCIC6FC_015573&lt;/b&gt;&lt;br&gt;hypothetical protein&lt;br&gt;Location: 431508 - 431991" locus_tag="MCIC6FC_015573" class="clusterblast-orf" id="dummy-3_q21_0_all"  />
<polygon points="599,40 640,40 645,35 640,30 599,30 599,40 " style="fill:white; stroke-width:1; stroke:black; " description="&lt;b&gt;MCIC6FC_015574&lt;/b&gt;&lt;br&gt;hypothetical protein&lt;br&gt;Location: 432110 - 436710" locus_tag="MCIC6FC_015574" class="clusterblast-orf" id="dummy-3_q22_0_all"  />
<polygon points="646,35 651,30 707,30 707,40 651,40 646,35 " style="fill:white; stroke-width:1; stroke:black; " description="&lt;b&gt;MCIC6FC_015575&lt;/b&gt;&lt;br&gt;hypothetical protein&lt;br&gt;Location: 436847 - 443044" locus_tag="MCIC6FC_015575" class="clusterblast-orf" id="dummy-3_q23_0_all"  />
<polygon points="709,40 709,40 714,35 709,30 709,30 709,40 " style="fill:white; stroke-width:1; stroke:black; " description="&lt;b&gt;MCIC6FC_015576&lt;/b&gt;&lt;br&gt;hypothetical protein&lt;br&gt;Location: 443239 - 443728" locus_tag="MCIC6FC_015576" class="clusterblast-orf" id="dummy-3_q24_0_all"  />
<polygon points="715,35 720,30 724,30 724,40 720,40 715,35 " style="fill:white; stroke-width:1; stroke:black; " description="&lt;b&gt;MCIC6FC_015577&lt;/b&gt;&lt;br&gt;hypothetical protein&lt;br&gt;Location: 443855 - 444719" locus_tag="MCIC6FC_015577" class="clusterblast-orf" id="dummy-3_q25_0_all"  />
<polygon points="725,40 744,40 749,35 744,30 725,30 725,40 " style="fill:white; stroke-width:1; stroke:black; " description="&lt;b&gt;MCIC6FC_015578&lt;/b&gt;&lt;br&gt;hypothetical protein&lt;br&gt;Location: 444816 - 447254" locus_tag="MCIC6FC_015578" class="clusterblast-orf" id="dummy-3_q26_0_all"  />
<polygon points="752,40 775,40 780,35 775,30 752,30 752,40 " style="fill:white; stroke-width:1; stroke:black; " description="&lt;b&gt;MCIC6FC_015579&lt;/b&gt;&lt;br&gt;hypothetical protein&lt;br&gt;Location: 447568 - 450357" locus_tag="MCIC6FC_015579" class="clusterblast-orf" id="dummy-3_q27_0_all"  />
</g>
<g label="NZ_JACAPL010000013" description="NZ_JACAPL010000013 (165204-211474): Pseudomonas sp. D2002 run0228 D2002 S37 L... (67% of genes show similarity), NRPS" class="clusterblast-cluster"  >
<text x="5" y="70" class="clusterblast-acc"  >
<a xlink:href="https://antismash-db.secondarymetabolites.org/area.html?record=NZ_JACAPL010000013&amp;start=165204&amp;end=211474" target="_blank">NZ_JACAPL010000013 (165204-211474)</a>: Pseudomonas sp. D2002 run0228 D2002 S37 L... (67% of genes show similarity), NRPS</text>
<line x1="10" y1="85" x2="778.0" y2="85" style="stroke-width:1; stroke:grey; "  />
</g>
<g id="a3_000"  >
<polygon points="169,85 174,80 197,80 197,90 174,90 169,85 " style="fill:#d81515; stroke-width:1; stroke:black; " description="&lt;b&gt;HX783_RS24265&lt;/b&gt;&lt;br&gt;response regulator&lt;br&gt;Location: 210698 - 207900&lt;br&gt;&lt;br&gt;&lt;b&gt;BlastP hit with MCIC6FC_015553&lt;/b&gt;&lt;br&gt;Percentage identity: 95&lt;br&gt;Percentage coverage: 34&lt;br&gt;BLAST bit score: 1726&lt;br&gt;E-value: 0.0" locus_tag="HX783_RS24265" class="clusterblast-orf" id="dummy-3_h3_6_0"  />
</g>
<g id="a3_001"  >
<polygon points="197,85 202,80 207,80 207,90 202,90 197,85 " style="fill:#d81515; stroke-width:1; stroke:black; " description="&lt;b&gt;HX783_RS24260&lt;/b&gt;&lt;br&gt;fimbrial protein&lt;br&gt;Location: 207826 - 206846&lt;br&gt;&lt;br&gt;&lt;b&gt;BlastP hit with MCIC6FC_015553&lt;/b&gt;&lt;br&gt;Percentage identity: 93&lt;br&gt;Percentage coverage: 12&lt;br&gt;BLAST bit score: 620&lt;br&gt;E-value: 7.2e-175" locus_tag="HX783_RS24260" class="clusterblast-orf" id="dummy-3_h3_6_1"  />
</g>
<g id="a3_002"  >
<polygon points="207,85 212,80 214,80 214,90 212,90 207,85 " style="fill:#63d815; stroke-width:1; stroke:black; " description="&lt;b&gt;HX783_RS24255&lt;/b&gt;&lt;br&gt;fimbria/pilus periplasmic chaperone&lt;br&gt;Location: 206822 - 206130&lt;br&gt;&lt;br&gt;&lt;b&gt;BlastP hit with MCIC6FC_015554&lt;/b&gt;&lt;br&gt;Percentage identity: 88&lt;br&gt;Percentage coverage: 100&lt;br&gt;BLAST bit score: 398&lt;br&gt;E-value: 3.7e-109" locus_tag="HX783_RS24255" class="clusterblast-orf" id="dummy-3_h3_6_2"  />
</g>
<g id="a3_003"  >
<polygon points="216,90 216,90 221,85 216,80 216,80 216,90 " style="fill:#15b1d8; stroke-width:1; stroke:black; " description="&lt;b&gt;HX783_RS24250&lt;/b&gt;&lt;br&gt;chemotaxis protein CheY&lt;br&gt;Location: 205929 - 205408&lt;br&gt;&lt;br&gt;&lt;b&gt;BlastP hit with MCIC6FC_015555&lt;/b&gt;&lt;br&gt;Percentage identity: 90&lt;br&gt;Percentage coverage: 95&lt;br&gt;BLAST bit score: 285&lt;br&gt;E-value: 4.5e-75" locus_tag="HX783_RS24250" class="clusterblast-orf" id="dummy-3_h3_6_3"  />
</g>
<g id="a3_004"  >
<polygon points="225,85 230,80 236,80 236,90 230,90 225,85 " style="fill:#d86315; stroke-width:1; stroke:black; " description="&lt;b&gt;HX783_RS24245&lt;/b&gt;&lt;br&gt;aldo/keto reductase&lt;br&gt;Location: 205031 - 203955&lt;br&gt;&lt;br&gt;&lt;b&gt;BlastP hit with MCIC6FC_015559&lt;/b&gt;&lt;br&gt;Percentage identity: 98&lt;br&gt;Percentage coverage: 100&lt;br&gt;BLAST bit score: 718&lt;br&gt;E-value: 3.4e-205" locus_tag="HX783_RS24245" class="clusterblast-orf" id="dummy-3_h3_6_4"  />
</g>
<g id="a3_005"  >
<polygon points="237,90 239,90 244,85 239,80 237,80 237,90 " style="fill:#15d815; stroke-width:1; stroke:black; " description="&lt;b&gt;HX783_RS24240&lt;/b&gt;&lt;br&gt;ATP-binding cassette domain-containing protein&lt;br&gt;Location: 203824 - 203147&lt;br&gt;&lt;br&gt;&lt;b&gt;BlastP hit with MCIC6FC_015560&lt;/b&gt;&lt;br&gt;Percentage identity: 90&lt;br&gt;Percentage coverage: 100&lt;br&gt;BLAST bit score: 399&lt;br&gt;E-value: 1.7e-109" locus_tag="HX783_RS24240" class="clusterblast-orf" id="dummy-3_h3_6_5"  />
</g>
<g id="a3_006"  >
<polygon points="244,90 246,90 251,85 246,80 244,80 244,90 " style="fill:#1563d8; stroke-width:1; stroke:black; " description="&lt;b&gt;HX783_RS24235&lt;/b&gt;&lt;br&gt;iron export ABC transporter permease subunit FetB&lt;br&gt;Location: 203150 - 202356&lt;br&gt;&lt;br&gt;&lt;b&gt;BlastP hit with MCIC6FC_015561&lt;/b&gt;&lt;br&gt;Percentage identity: 99&lt;br&gt;Percentage coverage: 64&lt;br&gt;BLAST bit score: 447&lt;br&gt;E-value: 1.5e-123" locus_tag="HX783_RS24235" class="clusterblast-orf" id="dummy-3_h3_6_6"  />
</g>
<g id="a3_007"  >
<polygon points="251,85 253,80 253,90 251,85 " style="fill:white; stroke-width:1; stroke:black; " description="&lt;b&gt;HX783_RS24230&lt;/b&gt;&lt;br&gt;DUF2599 domain-containing protein&lt;br&gt;Location: 202352 - 202239" locus_tag="HX783_RS24230" class="clusterblast-orf" id="dummy-3_h3_6_7"  />
</g>
<g id="a3_008"  >
<polygon points="254,85 259,80 264,80 264,90 259,90 254,85 " style="fill:white; stroke-width:1; stroke:black; " description="&lt;b&gt;HX783_RS24225&lt;/b&gt;&lt;br&gt;L-idonate 5-dehydrogenase&lt;br&gt;Location: 202084 - 201032" locus_tag="HX783_RS24225" class="clusterblast-orf" id="dummy-3_h3_6_8"  />
</g>
<g id="a3_009"  >
<polygon points="265,85 270,80 272,80 272,90 270,90 265,85 " style="fill:white; stroke-width:1; stroke:black; " description="&lt;b&gt;HX783_RS24220&lt;/b&gt;&lt;br&gt;glucose 1-dehydrogenase&lt;br&gt;Location: 201017 - 200244" locus_tag="HX783_RS24220" class="clusterblast-orf" id="dummy-3_h3_6_9"  />
</g>
<g id="a3_0010"  >
<polygon points="272,85 277,80 286,80 286,90 277,90 272,85 " style="fill:white; stroke-width:1; stroke:black; " description="&lt;b&gt;HX783_RS24215&lt;/b&gt;&lt;br&gt;GntP family permease&lt;br&gt;Location: 200223 - 198871" locus_tag="HX783_RS24215" class="clusterblast-orf" id="dummy-3_h3_6_10"  />
</g>
<g id="a3_0011"  >
<polygon points="287,90 291,90 296,85 291,80 287,80 287,90 " style="fill:#1563d8; stroke-width:1; stroke:black; " description="&lt;b&gt;HX783_RS24210&lt;/b&gt;&lt;br&gt;LysR family transcriptional regulator&lt;br&gt;Location: 198728 - 197856&lt;br&gt;&lt;br&gt;&lt;b&gt;BlastP hit with MCIC6FC_015561&lt;/b&gt;&lt;br&gt;Percentage identity: 91&lt;br&gt;Percentage coverage: 20&lt;br&gt;BLAST bit score: 134&lt;br&gt;E-value: 1.7e-29" locus_tag="HX783_RS24210" class="clusterblast-orf" id="dummy-3_h3_6_11"  />
</g>
<g id="a3_0012"  >
<polygon points="297,90 298,90 303,85 298,80 297,80 297,90 " style="fill:#d815b1; stroke-width:1; stroke:black; " description="&lt;b&gt;HX783_RS24205&lt;/b&gt;&lt;br&gt;glutathione S-transferase&lt;br&gt;Location: 197750 - 197118&lt;br&gt;&lt;br&gt;&lt;b&gt;BlastP hit with MCIC6FC_015562&lt;/b&gt;&lt;br&gt;Percentage identity: 91&lt;br&gt;Percentage coverage: 17&lt;br&gt;BLAST bit score: 377&lt;br&gt;E-value: 6.4e-102" locus_tag="HX783_RS24205" class="clusterblast-orf" id="dummy-3_h3_6_12"  />
</g>
<g id="a3_0013"  >
<polygon points="303,90 307,90 312,85 307,80 303,80 303,90 " style="fill:#d815b1; stroke-width:1; stroke:black; " description="&lt;b&gt;HX783_RS24200&lt;/b&gt;&lt;br&gt;LysR family transcriptional regulator&lt;br&gt;Location: 197101 - 196181&lt;br&gt;&lt;br&gt;&lt;b&gt;BlastP hit with MCIC6FC_015562&lt;/b&gt;&lt;br&gt;Percentage identity: 93&lt;br&gt;Percentage coverage: 22&lt;br&gt;BLAST bit score: 498&lt;br&gt;E-value: 2.5e-138" locus_tag="HX783_RS24200" class="clusterblast-orf" id="dummy-3_h3_6_13"  />
</g>
<g id="a3_0014"  >
<polygon points="312,90 316,90 321,85 316,80 312,80 312,90 " style="fill:#d815b1; stroke-width:1; stroke:black; " description="&lt;b&gt;HX783_RS24195&lt;/b&gt;&lt;br&gt;LysR family transcriptional regulator&lt;br&gt;Location: 196181 - 195297&lt;br&gt;&lt;br&gt;&lt;b&gt;BlastP hit with MCIC6FC_015562&lt;/b&gt;&lt;br&gt;Percentage identity: 83&lt;br&gt;Percentage coverage: 24&lt;br&gt;BLAST bit score: 474&lt;br&gt;E-value: 3.9e-131" locus_tag="HX783_RS24195" class="clusterblast-orf" id="dummy-3_h3_6_14"  />
</g>
<g id="a3_0015"  >
<polygon points="322,90 326,90 331,85 326,80 322,80 322,90 " style="fill:#d815b1; stroke-width:1; stroke:black; " description="&lt;b&gt;HX783_RS24190&lt;/b&gt;&lt;br&gt;pyridoxamine 5'-phosphate oxidase family protein&lt;br&gt;Location: 195217 - 194282&lt;br&gt;&lt;br&gt;&lt;b&gt;BlastP hit with MCIC6FC_015562&lt;/b&gt;&lt;br&gt;Percentage identity: 88&lt;br&gt;Percentage coverage: 25&lt;br&gt;BLAST bit score: 558&lt;br&gt;E-value: 1.6e-156" locus_tag="HX783_RS24190" class="clusterblast-orf" id="dummy-3_h3_6_15"  />
</g>
<g id="a3_0016"  >
<polygon points="332,85 337,80 346,80 346,90 337,90 332,85 " style="fill:#d8b115; stroke-width:1; stroke:black; " description="&lt;b&gt;HX783_RS24185&lt;/b&gt;&lt;br&gt;AdeC/AdeK/OprM family multidrug efflux complex outer membrane factor&lt;br&gt;Location: 194180 - 192759&lt;br&gt;&lt;br&gt;&lt;b&gt;BlastP hit with MCIC6FC_015563&lt;/b&gt;&lt;br&gt;Percentage identity: 92&lt;br&gt;Percentage coverage: 65&lt;br&gt;BLAST bit score: 821&lt;br&gt;E-value: 7.4e-236" locus_tag="HX783_RS24185" class="clusterblast-orf" id="dummy-3_h3_6_16"  />
</g>
<g id="a3_0017"  >
<polygon points="346,85 351,80 354,80 354,90 351,90 346,85 " style="fill:#d8b115; stroke-width:1; stroke:black; " description="&lt;b&gt;HX783_RS24180&lt;/b&gt;&lt;br&gt;helix-turn-helix transcriptional regulator&lt;br&gt;Location: 192759 - 191965&lt;br&gt;&lt;br&gt;&lt;b&gt;BlastP hit with MCIC6FC_015563&lt;/b&gt;&lt;br&gt;Percentage identity: 89&lt;br&gt;Percentage coverage: 37&lt;br&gt;BLAST bit score: 467&lt;br&gt;E-value: 3.6e-129" locus_tag="HX783_RS24180" class="clusterblast-orf" id="dummy-3_h3_6_17"  />
</g>
<g id="a3_0018"  >
<polygon points="359,90 416,90 421,85 416,80 359,80 359,90 " style="fill:#15d863; stroke-width:1; stroke:black; " description="&lt;b&gt;HX783_RS24175&lt;/b&gt;&lt;br&gt;amino acid adenylation domain-containing protein&lt;br&gt;Location: 191474 - 185205&lt;br&gt;&lt;br&gt;&lt;b&gt;BlastP hit with MCIC6FC_015564&lt;/b&gt;&lt;br&gt;Percentage identity: 89&lt;br&gt;Percentage coverage: 99&lt;br&gt;BLAST bit score: 3671&lt;br&gt;E-value: 0.0" locus_tag="HX783_RS24175" class="clusterblast-orf" id="dummy-3_h3_6_18"  />
</g>
<g id="a3_0019"  >
<polygon points="426,85 429,80 429,90 426,85 " style="fill:white; stroke-width:1; stroke:black; " description="&lt;b&gt;HX783_RS24170&lt;/b&gt;&lt;br&gt;hypothetical protein&lt;br&gt;Location: 184650 - 184342" locus_tag="HX783_RS24170" class="clusterblast-orf" id="dummy-3_h3_6_19"  />
</g>
<g id="a3_0020"  >
<polygon points="434,90 438,90 443,85 438,80 434,80 434,90 " style="fill:white; stroke-width:1; stroke:black; " description="&lt;b&gt;HX783_RS24165&lt;/b&gt;&lt;br&gt;hypothetical protein&lt;br&gt;Location: 183848 - 182997" locus_tag="HX783_RS24165" class="clusterblast-orf" id="dummy-3_h3_6_20"  />
</g>
<g id="a3_0021"  >
<polygon points="450,90 452,90 457,85 452,80 450,80 450,90 " style="fill:white; stroke-width:1; stroke:black; " description="&lt;b&gt;HX783_RS24160&lt;/b&gt;&lt;br&gt;ABC transporter permease&lt;br&gt;Location: 182301 - 181558" locus_tag="HX783_RS24160" class="clusterblast-orf" id="dummy-3_h3_6_21"  />
</g>
<g id="a3_0022"  >
<polygon points="457,90 459,90 464,85 459,80 457,80 457,90 " style="fill:white; stroke-width:1; stroke:black; " description="&lt;b&gt;HX783_RS24155&lt;/b&gt;&lt;br&gt;AAA family ATPase&lt;br&gt;Location: 181558 - 180845" locus_tag="HX783_RS24155" class="clusterblast-orf" id="dummy-3_h3_6_22"  />
</g>
<g id="a3_0023"  >
<polygon points="464,85 469,80 479,80 479,90 469,90 464,85 " style="fill:#1515d8; stroke-width:1; stroke:black; " description="&lt;b&gt;HX783_RS24150&lt;/b&gt;&lt;br&gt;glycosyltransferase family 39 protein&lt;br&gt;Location: 180823 - 179306&lt;br&gt;&lt;br&gt;&lt;b&gt;BlastP hit with MCIC6FC_015565&lt;/b&gt;&lt;br&gt;Percentage identity: 91&lt;br&gt;Percentage coverage: 99&lt;br&gt;BLAST bit score: 964&lt;br&gt;E-value: 5e-279" locus_tag="HX783_RS24150" class="clusterblast-orf" id="dummy-3_h3_6_23"  />
</g>
<g id="a3_0024"  >
<polygon points="479,85 484,80 496,80 496,90 484,90 479,85 " style="fill:#d81563; stroke-width:1; stroke:black; " description="&lt;b&gt;HX783_RS24145&lt;/b&gt;&lt;br&gt;lipid IV(A) 4-amino-4-deoxy-L-arabinosyltransferase&lt;br&gt;Location: 179279 - 177624&lt;br&gt;&lt;br&gt;&lt;b&gt;BlastP hit with MCIC6FC_015566&lt;/b&gt;&lt;br&gt;Percentage identity: 90&lt;br&gt;Percentage coverage: 100&lt;br&gt;BLAST bit score: 1014&lt;br&gt;E-value: 4.6e-294" locus_tag="HX783_RS24145" class="clusterblast-orf" id="dummy-3_h3_6_24"  />
</g>
<g id="a3_0025"  >
<polygon points="498,85 503,80 504,80 504,90 503,90 498,85 " style="fill:#b1d815; stroke-width:1; stroke:black; " description="&lt;b&gt;HX783_RS24140&lt;/b&gt;&lt;br&gt;histidine phosphatase family protein&lt;br&gt;Location: 177437 - 176763&lt;br&gt;&lt;br&gt;&lt;b&gt;BlastP hit with MCIC6FC_015567&lt;/b&gt;&lt;br&gt;Percentage identity: 87&lt;br&gt;Percentage coverage: 100&lt;br&gt;BLAST bit score: 405&lt;br&gt;E-value: 4e-111" locus_tag="HX783_RS24140" class="clusterblast-orf" id="dummy-3_h3_6_25"  />
</g>
<g id="a3_0026"  >
<polygon points="507,90 509,90 514,85 509,80 507,80 507,90 " style="fill:#15d815; stroke-width:1; stroke:black; " description="&lt;b&gt;HX783_RS24135&lt;/b&gt;&lt;br&gt;ABC transporter ATP-binding protein&lt;br&gt;Location: 176485 - 175817&lt;br&gt;&lt;br&gt;&lt;b&gt;BlastP hit with MCIC6FC_015568&lt;/b&gt;&lt;br&gt;Percentage identity: 95&lt;br&gt;Percentage coverage: 15&lt;br&gt;BLAST bit score: 388&lt;br&gt;E-value: 4e-105&lt;br&gt;&lt;br&gt;&lt;b&gt;BlastP hit with MCIC6FC_015572&lt;/b&gt;&lt;br&gt;Percentage identity: 37&lt;br&gt;Percentage coverage: 13&lt;br&gt;BLAST bit score: 131&lt;br&gt;E-value: 1.1e-27" locus_tag="HX783_RS24135" class="clusterblast-orf" id="dummy-3_h3_6_26"  />
</g>
<g id="a3_0027"  >
<polygon points="514,90 533,90 538,85 533,80 514,80 514,90 " style="fill:#15d815; stroke-width:1; stroke:black; " description="&lt;b&gt;HX783_RS24130&lt;/b&gt;&lt;br&gt;FtsX-like permease family protein&lt;br&gt;Location: 175815 - 173353&lt;br&gt;&lt;br&gt;&lt;b&gt;BlastP hit with MCIC6FC_015568&lt;/b&gt;&lt;br&gt;Percentage identity: 95&lt;br&gt;Percentage coverage: 59&lt;br&gt;BLAST bit score: 1468&lt;br&gt;E-value: 0.0" locus_tag="HX783_RS24130" class="clusterblast-orf" id="dummy-3_h3_6_27"  />
</g>
<g id="a3_0028"  >
<polygon points="538,90 543,90 548,85 543,80 538,80 538,90 " style="fill:#15d815; stroke-width:1; stroke:black; " description="&lt;b&gt;HX783_RS24125&lt;/b&gt;&lt;br&gt;iron ABC transporter permease&lt;br&gt;Location: 173363 - 172299&lt;br&gt;&lt;br&gt;&lt;b&gt;BlastP hit with MCIC6FC_015568&lt;/b&gt;&lt;br&gt;Percentage identity: 93&lt;br&gt;Percentage coverage: 26&lt;br&gt;BLAST bit score: 692&lt;br&gt;E-value: 9.9e-197" locus_tag="HX783_RS24125" class="clusterblast-orf" id="dummy-3_h3_6_28"  />
</g>
<g id="a3_0029"  >
<polygon points="550,90 559,90 564,85 559,80 550,80 550,90 " style="fill:#15d8b1; stroke-width:1; stroke:black; " description="&lt;b&gt;HX783_RS24120&lt;/b&gt;&lt;br&gt;hypothetical protein&lt;br&gt;Location: 172134 - 170692&lt;br&gt;&lt;br&gt;&lt;b&gt;BlastP hit with MCIC6FC_015569&lt;/b&gt;&lt;br&gt;Percentage identity: 90&lt;br&gt;Percentage coverage: 97&lt;br&gt;BLAST bit score: 892&lt;br&gt;E-value: 2.3e-257" locus_tag="HX783_RS24120" class="clusterblast-orf" id="dummy-3_h3_6_29"  />
</g>
<g id="a3_0030"  >
<polygon points="565,85 570,80 576,80 576,90 570,90 565,85 " style="fill:#6315d8; stroke-width:1; stroke:black; " description="&lt;b&gt;HX783_RS24115&lt;/b&gt;&lt;br&gt;SMP-30/gluconolactonase/LRE family protein&lt;br&gt;Location: 170630 - 169530&lt;br&gt;&lt;br&gt;&lt;b&gt;BlastP hit with MCIC6FC_015570&lt;/b&gt;&lt;br&gt;Percentage identity: 92&lt;br&gt;Percentage coverage: 12&lt;br&gt;BLAST bit score: 627&lt;br&gt;E-value: 8.7e-177" locus_tag="HX783_RS24115" class="clusterblast-orf" id="dummy-3_h3_6_30"  />
</g>
<g id="a3_0031"  >
<polygon points="576,85 581,80 582,80 582,90 581,90 576,85 " style="fill:white; stroke-width:1; stroke:black; " description="&lt;b&gt;HX783_RS24110&lt;/b&gt;&lt;br&gt;sterol desaturase family protein&lt;br&gt;Location: 169527 - 168856" locus_tag="HX783_RS24110" class="clusterblast-orf" id="dummy-3_h3_6_31"  />
</g>
<g id="a3_0032"  >
<polygon points="585,90 590,90 595,85 590,80 585,80 585,90 " style="fill:white; stroke-width:1; stroke:black; " description="&lt;b&gt;HX783_RS24105&lt;/b&gt;&lt;br&gt;substrate-binding domain-containing protein&lt;br&gt;Location: 168560 - 167637" locus_tag="HX783_RS24105" class="clusterblast-orf" id="dummy-3_h3_6_32"  />
</g>
<g id="a3_0033"  >
<polygon points="595,90 605,90 610,85 605,80 595,80 595,90 " style="fill:white; stroke-width:1; stroke:black; " description="&lt;b&gt;HX783_RS24100&lt;/b&gt;&lt;br&gt;sugar ABC transporter ATP-binding protein&lt;br&gt;Location: 167573 - 166065" locus_tag="HX783_RS24100" class="clusterblast-orf" id="dummy-3_h3_6_33"  />
</g>
</svg>
