<svg xmlns="http://www.w3.org/2000/svg" xmlns:xlink="http://www.w3.org/1999/xlink" version="1.1" x="0" y="0" height="230" width="800" viewBox="0 0 800 230" preserveAspectRatio="none"  >
<g label="Query sequence" class="clusterblast-cluster"  >
<text x="5" y="20" class="clusterblast-acc"  >
Query sequence</text>
<line x1="10" y1="35" x2="778.0" y2="35" style="stroke-width:1; stroke:grey; "  />
<polygon points="11,35 16,30 26,30 26,40 16,40 11,35 " style="fill:#d81515; stroke-width:1; stroke:black; " description="&lt;b&gt;MCIC6FC_007887&lt;/b&gt;&lt;br&gt;hypothetical protein&lt;br&gt;Location: 1618687 - 1619925" locus_tag="MCIC6FC_007887" class="clusterblast-orf" id="dummy-6_q0_0_all"  />
<polygon points="26,35 31,30 49,30 49,40 31,40 26,35 " style="fill:#4dd815; stroke-width:1; stroke:black; " description="&lt;b&gt;MCIC6FC_007888&lt;/b&gt;&lt;br&gt;hypothetical protein&lt;br&gt;Location: 1619941 - 1621734" locus_tag="MCIC6FC_007888" class="clusterblast-orf" id="dummy-6_q1_0_all"  />
<polygon points="49,35 54,30 63,30 63,40 54,40 49,35 " style="fill:#15bcd8; stroke-width:1; stroke:black; " description="&lt;b&gt;MCIC6FC_007889&lt;/b&gt;&lt;br&gt;hypothetical protein&lt;br&gt;Location: 1621784 - 1622873" locus_tag="MCIC6FC_007889" class="clusterblast-orf" id="dummy-6_q2_0_all"  />
<polygon points="63,35 68,30 80,30 80,40 68,40 63,35 " style="fill:#8515d8; stroke-width:1; stroke:black; " description="&lt;b&gt;MCIC6FC_007890&lt;/b&gt;&lt;br&gt;hypothetical protein&lt;br&gt;Location: 1622896 - 1624255" locus_tag="MCIC6FC_007890" class="clusterblast-orf" id="dummy-6_q3_0_all"  />
<polygon points="82,40 88,40 93,35 88,30 82,30 82,40 " style="fill:#d84d15; stroke-width:1; stroke:black; " description="&lt;b&gt;MCIC6FC_007891&lt;/b&gt;&lt;br&gt;hypothetical protein&lt;br&gt;Location: 1624394 - 1625291" locus_tag="MCIC6FC_007891" class="clusterblast-orf" id="dummy-6_q4_0_all"  />
<polygon points="94,40 116,40 121,35 116,30 94,30 94,40 " style="fill:#15d815; stroke-width:1; stroke:black; " description="&lt;b&gt;MCIC6FC_007892&lt;/b&gt;&lt;br&gt;hypothetical protein&lt;br&gt;Location: 1625391 - 1627551" locus_tag="MCIC6FC_007892" class="clusterblast-orf" id="dummy-6_q5_0_all"  />
<polygon points="122,35 127,30 135,30 135,40 127,40 122,35 " style="fill:#1585d8; stroke-width:1; stroke:black; " description="&lt;b&gt;MCIC6FC_007893&lt;/b&gt;&lt;br&gt;hypothetical protein&lt;br&gt;Location: 1627593 - 1628671" locus_tag="MCIC6FC_007893" class="clusterblast-orf" id="dummy-6_q6_0_all"  />
<polygon points="136,40 140,40 145,35 140,30 136,30 136,40 " style="fill:#bc15d8; stroke-width:1; stroke:black; " description="&lt;b&gt;MCIC6FC_007894&lt;/b&gt;&lt;br&gt;hypothetical protein&lt;br&gt;Location: 1628768 - 1629501" locus_tag="MCIC6FC_007894" class="clusterblast-orf" id="dummy-6_q7_0_all"  />
<polygon points="146,35 151,30 151,30 151,40 151,40 146,35 " style="fill:#d88515; stroke-width:1; stroke:black; " description="&lt;b&gt;MCIC6FC_007895&lt;/b&gt;&lt;br&gt;hypothetical protein&lt;br&gt;Location: 1629543 - 1629981" locus_tag="MCIC6FC_007895" class="clusterblast-orf" id="dummy-6_q8_0_all"  />
<polygon points="153,35 158,30 159,30 159,40 158,40 153,35 " style="fill:#15d84d; stroke-width:1; stroke:black; " description="&lt;b&gt;MCIC6FC_007896&lt;/b&gt;&lt;br&gt;hypothetical protein&lt;br&gt;Location: 1630103 - 1630574" locus_tag="MCIC6FC_007896" class="clusterblast-orf" id="dummy-6_q9_0_all"  />
<polygon points="160,40 171,40 176,35 171,30 160,30 160,40 " style="fill:#154dd8; stroke-width:1; stroke:black; " description="&lt;b&gt;MCIC6FC_007897&lt;/b&gt;&lt;br&gt;hypothetical protein&lt;br&gt;Location: 1630697 - 1631945" locus_tag="MCIC6FC_007897" class="clusterblast-orf" id="dummy-6_q10_0_all"  />
<polygon points="179,40 182,40 187,35 182,30 179,30 179,40 " style="fill:#d815bc; stroke-width:1; stroke:black; " description="&lt;b&gt;MCIC6FC_007898&lt;/b&gt;&lt;br&gt;hypothetical protein&lt;br&gt;Location: 1632165 - 1632855" locus_tag="MCIC6FC_007898" class="clusterblast-orf" id="dummy-6_q11_0_all"  />
<polygon points="188,35 193,30 226,30 226,40 193,40 188,35 " style="fill:#d8bc15; stroke-width:1; stroke:black; " description="&lt;b&gt;MCIC6FC_007899&lt;/b&gt;&lt;br&gt;hypothetical protein&lt;br&gt;Location: 1632911 - 1635995" locus_tag="MCIC6FC_007899" class="clusterblast-orf" id="dummy-6_q12_0_all"  />
<polygon points="233,35 238,30 536,30 536,40 238,40 233,35 " style="fill:#15d885; stroke-width:1; stroke:black; " description="&lt;b&gt;MCIC6FC_007900&lt;/b&gt;&lt;br&gt;hypothetical protein&lt;br&gt;Location: 1636549 - 1660777" locus_tag="MCIC6FC_007900" class="clusterblast-orf" id="dummy-6_q13_0_all"  />
<polygon points="538,35 543,30 559,30 559,40 543,40 538,35 " style="fill:#1515d8; stroke-width:1; stroke:black; " description="&lt;b&gt;MCIC6FC_007901&lt;/b&gt;&lt;br&gt;hypothetical protein&lt;br&gt;Location: 1660996 - 1662651" locus_tag="MCIC6FC_007901" class="clusterblast-orf" id="dummy-6_q14_0_all"  />
<polygon points="562,35 567,30 622,30 622,40 567,40 562,35 " style="fill:#1515d8; stroke-width:1; stroke:black; " description="&lt;b&gt;MCIC6FC_007902&lt;/b&gt;&lt;br&gt;hypothetical protein&lt;br&gt;Location: 1662893 - 1667726" locus_tag="MCIC6FC_007902" class="clusterblast-orf" id="dummy-6_q15_0_all"  />
<polygon points="641,40 652,40 657,35 652,30 641,30 641,40 " style="fill:#d81585; stroke-width:1; stroke:black; " description="&lt;b&gt;MCIC6FC_007903&lt;/b&gt;&lt;br&gt;hypothetical protein&lt;br&gt;Location: 1669225 - 1670522" locus_tag="MCIC6FC_007903" class="clusterblast-orf" id="dummy-6_q16_0_all"  />
<polygon points="658,40 662,40 667,35 662,30 658,30 658,40 " style="fill:#bcd815; stroke-width:1; stroke:black; " description="&lt;b&gt;MCIC6FC_007904&lt;/b&gt;&lt;br&gt;hypothetical protein&lt;br&gt;Location: 1670591 - 1671338" locus_tag="MCIC6FC_007904" class="clusterblast-orf" id="dummy-6_q17_0_all"  />
<polygon points="670,35 675,30 677,30 677,40 675,40 670,35 " style="fill:#15d8bc; stroke-width:1; stroke:black; " description="&lt;b&gt;MCIC6FC_007905&lt;/b&gt;&lt;br&gt;hypothetical protein&lt;br&gt;Location: 1671548 - 1672133" locus_tag="MCIC6FC_007905" class="clusterblast-orf" id="dummy-6_q18_0_all"  />
<polygon points="678,35 683,30 691,30 691,40 683,40 678,35 " style="fill:#4d15d8; stroke-width:1; stroke:black; " description="&lt;b&gt;MCIC6FC_007906&lt;/b&gt;&lt;br&gt;hypothetical protein&lt;br&gt;Location: 1672192 - 1673215" locus_tag="MCIC6FC_007906" class="clusterblast-orf" id="dummy-6_q19_0_all"  />
<polygon points="692,35 697,30 720,30 720,40 697,40 692,35 " style="fill:#d8154d; stroke-width:1; stroke:black; " description="&lt;b&gt;MCIC6FC_007907&lt;/b&gt;&lt;br&gt;hypothetical protein&lt;br&gt;Location: 1673279 - 1675586" locus_tag="MCIC6FC_007907" class="clusterblast-orf" id="dummy-6_q20_0_all"  />
<polygon points="722,40 764,40 769,35 764,30 722,30 722,40 " style="fill:#85d815; stroke-width:1; stroke:black; " description="&lt;b&gt;MCIC6FC_007908&lt;/b&gt;&lt;br&gt;hypothetical protein&lt;br&gt;Location: 1675751 - 1679462" locus_tag="MCIC6FC_007908" class="clusterblast-orf" id="dummy-6_q21_0_all"  />
</g>
<g label="NZ_LT629704" description="NZ_LT629704 (3510772-3573303): Pseudomonas antarctica strain LMG 22709 chromo... (93% of genes show similarity), NRPS" class="clusterblast-cluster"  >
<text x="5" y="70" class="clusterblast-acc"  >
<a xlink:href="https://antismash-db.secondarymetabolites.org/area.html?record=NZ_LT629704&amp;start=3510772&amp;end=3573303" target="_blank">NZ_LT629704 (3510772-3573303)</a>: Pseudomonas antarctica strain LMG 22709 chromo... (93% of genes show similarity), NRPS</text>
<line x1="10" y1="85" x2="778.0" y2="85" style="stroke-width:1; stroke:grey; "  />
</g>
<g id="a6_000"  >
<polygon points="0,90 12,90 17,85 12,80 0,80 0,90 " style="fill:white; stroke-width:1; stroke:black; " description="&lt;b&gt;BLQ27_RS16195&lt;/b&gt;&lt;br&gt;HAMP domain-containing histidine kinase&lt;br&gt;Location: 3573303 - 3571909" locus_tag="BLQ27_RS16195" class="clusterblast-orf" id="dummy-6_h6_1_0"  />
</g>
<g id="a6_001"  >
<polygon points="19,85 24,80 24,80 24,90 24,90 19,85 " style="fill:#d81515; stroke-width:1; stroke:black; " description="&lt;b&gt;BLQ27_RS16190&lt;/b&gt;&lt;br&gt;SRPBCC family protein&lt;br&gt;Location: 3571769 - 3571353&lt;br&gt;&lt;br&gt;&lt;b&gt;BlastP hit with MCIC6FC_007887&lt;/b&gt;&lt;br&gt;Percentage identity: 96&lt;br&gt;Percentage coverage: 34&lt;br&gt;BLAST bit score: 252&lt;br&gt;E-value: 5.7e-65" locus_tag="BLQ27_RS16190" class="clusterblast-orf" id="dummy-6_h6_1_1"  />
</g>
<g id="a6_002"  >
<polygon points="26,85 31,80 42,80 42,90 31,90 26,85 " style="fill:#4dd815; stroke-width:1; stroke:black; " description="&lt;b&gt;BLQ27_RS16185&lt;/b&gt;&lt;br&gt;FAD-binding oxidoreductase&lt;br&gt;Location: 3571175 - 3569880&lt;br&gt;&lt;br&gt;&lt;b&gt;BlastP hit with MCIC6FC_007888&lt;/b&gt;&lt;br&gt;Percentage identity: 95&lt;br&gt;Percentage coverage: 79&lt;br&gt;BLAST bit score: 795&lt;br&gt;E-value: 2.4e-228" locus_tag="BLQ27_RS16185" class="clusterblast-orf" id="dummy-6_h6_1_2"  />
</g>
<g id="a6_003"  >
<polygon points="42,85 47,80 56,80 56,90 47,90 42,85 " style="fill:#15bcd8; stroke-width:1; stroke:black; " description="&lt;b&gt;BLQ27_RS16180&lt;/b&gt;&lt;br&gt;polyamine ABC transporter substrate-binding protein&lt;br&gt;Location: 3569883 - 3568795&lt;br&gt;&lt;br&gt;&lt;b&gt;BlastP hit with MCIC6FC_007889&lt;/b&gt;&lt;br&gt;Percentage identity: 97&lt;br&gt;Percentage coverage: 100&lt;br&gt;BLAST bit score: 709&lt;br&gt;E-value: 1.6e-202" locus_tag="BLQ27_RS16180" class="clusterblast-orf" id="dummy-6_h6_1_3"  />
</g>
<g id="a6_004"  >
<polygon points="56,85 61,80 72,80 72,90 61,90 56,85 " style="fill:#8515d8; stroke-width:1; stroke:black; " description="&lt;b&gt;BLQ27_RS16175&lt;/b&gt;&lt;br&gt;glutamine synthetase&lt;br&gt;Location: 3568773 - 3567485&lt;br&gt;&lt;br&gt;&lt;b&gt;BlastP hit with MCIC6FC_007890&lt;/b&gt;&lt;br&gt;Percentage identity: 93&lt;br&gt;Percentage coverage: 34&lt;br&gt;BLAST bit score: 307&lt;br&gt;E-value: 1.7e-81" locus_tag="BLQ27_RS16175" class="clusterblast-orf" id="dummy-6_h6_1_4"  />
</g>
<g id="a6_005"  >
<polygon points="74,90 80,90 85,85 80,80 74,80 74,90 " style="fill:#d84d15; stroke-width:1; stroke:black; " description="&lt;b&gt;BLQ27_RS16170&lt;/b&gt;&lt;br&gt;helix-turn-helix domain-containing protein&lt;br&gt;Location: 3567346 - 3566450&lt;br&gt;&lt;br&gt;&lt;b&gt;BlastP hit with MCIC6FC_007891&lt;/b&gt;&lt;br&gt;Percentage identity: 95&lt;br&gt;Percentage coverage: 100&lt;br&gt;BLAST bit score: 582&lt;br&gt;E-value: 3.2e-164" locus_tag="BLQ27_RS16170" class="clusterblast-orf" id="dummy-6_h6_1_5"  />
</g>
<g id="a6_006"  >
<polygon points="92,90 99,90 104,85 99,80 92,80 92,90 " style="fill:white; stroke-width:1; stroke:black; " description="&lt;b&gt;BLQ27_RS16165&lt;/b&gt;&lt;br&gt;IS110 family transposase&lt;br&gt;Location: 3565916 - 3564954" locus_tag="BLQ27_RS16165" class="clusterblast-orf" id="dummy-6_h6_1_6"  />
</g>
<g id="a6_007"  >
<polygon points="105,90 127,90 132,85 127,80 105,80 105,90 " style="fill:#15d815; stroke-width:1; stroke:black; " description="&lt;b&gt;BLQ27_RS16160&lt;/b&gt;&lt;br&gt;TonB-dependent siderophore receptor&lt;br&gt;Location: 3564842 - 3562695&lt;br&gt;&lt;br&gt;&lt;b&gt;BlastP hit with MCIC6FC_007892&lt;/b&gt;&lt;br&gt;Percentage identity: 91&lt;br&gt;Percentage coverage: 100&lt;br&gt;BLAST bit score: 1315&lt;br&gt;E-value: 0.0" locus_tag="BLQ27_RS16160" class="clusterblast-orf" id="dummy-6_h6_1_7"  />
</g>
<g id="a6_008"  >
<polygon points="132,85 137,80 146,80 146,90 137,90 132,85 " style="fill:#1585d8; stroke-width:1; stroke:black; " description="&lt;b&gt;BLQ27_RS16155&lt;/b&gt;&lt;br&gt;MFS transporter&lt;br&gt;Location: 3562705 - 3561575&lt;br&gt;&lt;br&gt;&lt;b&gt;BlastP hit with MCIC6FC_007893&lt;/b&gt;&lt;br&gt;Percentage identity: 89&lt;br&gt;Percentage coverage: 99&lt;br&gt;BLAST bit score: 570&lt;br&gt;E-value: 1.4e-160" locus_tag="BLQ27_RS16155" class="clusterblast-orf" id="dummy-6_h6_1_8"  />
</g>
<g id="a6_009"  >
<polygon points="147,90 152,90 157,85 152,80 147,80 147,90 " style="fill:#bc15d8; stroke-width:1; stroke:black; " description="&lt;b&gt;BLQ27_RS16150&lt;/b&gt;&lt;br&gt;helix-turn-helix transcriptional regulator&lt;br&gt;Location: 3561476 - 3560706&lt;br&gt;&lt;br&gt;&lt;b&gt;BlastP hit with MCIC6FC_007894&lt;/b&gt;&lt;br&gt;Percentage identity: 90&lt;br&gt;Percentage coverage: 100&lt;br&gt;BLAST bit score: 416&lt;br&gt;E-value: 2.3e-114" locus_tag="BLQ27_RS16150" class="clusterblast-orf" id="dummy-6_h6_1_9"  />
</g>
<g id="a6_0010"  >
<polygon points="157,85 162,80 162,80 162,90 162,90 157,85 " style="fill:#d88515; stroke-width:1; stroke:black; " description="&lt;b&gt;BLQ27_RS16145&lt;/b&gt;&lt;br&gt;carboxymuconolactone decarboxylase family protein&lt;br&gt;Location: 3560701 - 3560264&lt;br&gt;&lt;br&gt;&lt;b&gt;BlastP hit with MCIC6FC_007895&lt;/b&gt;&lt;br&gt;Percentage identity: 92&lt;br&gt;Percentage coverage: 100&lt;br&gt;BLAST bit score: 266&lt;br&gt;E-value: 1.9e-69" locus_tag="BLQ27_RS16145" class="clusterblast-orf" id="dummy-6_h6_1_10"  />
</g>
<g id="a6_0011"  >
<polygon points="164,85 169,80 170,80 170,90 169,90 164,85 " style="fill:#15d84d; stroke-width:1; stroke:black; " description="&lt;b&gt;BLQ27_RS16140&lt;/b&gt;&lt;br&gt;Lrp/AsnC family transcriptional regulator&lt;br&gt;Location: 3560115 - 3559645&lt;br&gt;&lt;br&gt;&lt;b&gt;BlastP hit with MCIC6FC_007896&lt;/b&gt;&lt;br&gt;Percentage identity: 97&lt;br&gt;Percentage coverage: 100&lt;br&gt;BLAST bit score: 300&lt;br&gt;E-value: 7.3e-80" locus_tag="BLQ27_RS16140" class="clusterblast-orf" id="dummy-6_h6_1_11"  />
</g>
<g id="a6_0012"  >
<polygon points="171,90 182,90 187,85 182,80 171,80 171,90 " style="fill:#154dd8; stroke-width:1; stroke:black; " description="&lt;b&gt;BLQ27_RS16135&lt;/b&gt;&lt;br&gt;methionine gamma-lyase&lt;br&gt;Location: 3559521 - 3558286&lt;br&gt;&lt;br&gt;&lt;b&gt;BlastP hit with MCIC6FC_007897&lt;/b&gt;&lt;br&gt;Percentage identity: 94&lt;br&gt;Percentage coverage: 99&lt;br&gt;BLAST bit score: 773&lt;br&gt;E-value: 1.3e-221" locus_tag="BLQ27_RS16135" class="clusterblast-orf" id="dummy-6_h6_1_12"  />
</g>
<g id="a6_0013"  >
<polygon points="190,90 193,90 198,85 193,80 190,80 190,90 " style="fill:#d815bc; stroke-width:1; stroke:black; " description="&lt;b&gt;BLQ27_RS16130&lt;/b&gt;&lt;br&gt;helix-turn-helix transcriptional regulator&lt;br&gt;Location: 3558045 - 3557368&lt;br&gt;&lt;br&gt;&lt;b&gt;BlastP hit with MCIC6FC_007898&lt;/b&gt;&lt;br&gt;Percentage identity: 92&lt;br&gt;Percentage coverage: 98&lt;br&gt;BLAST bit score: 406&lt;br&gt;E-value: 2.4e-111" locus_tag="BLQ27_RS16130" class="clusterblast-orf" id="dummy-6_h6_1_13"  />
</g>
<g id="a6_0014"  >
<polygon points="200,85 205,80 224,80 224,90 205,90 200,85 " style="fill:#d8bc15; stroke-width:1; stroke:black; " description="&lt;b&gt;BLQ27_RS16125&lt;/b&gt;&lt;br&gt;MacB family efflux pump subunit&lt;br&gt;Location: 3557231 - 3555273&lt;br&gt;&lt;br&gt;&lt;b&gt;BlastP hit with MCIC6FC_007899&lt;/b&gt;&lt;br&gt;Percentage identity: 99&lt;br&gt;Percentage coverage: 64&lt;br&gt;BLAST bit score: 1225&lt;br&gt;E-value: 0.0" locus_tag="BLQ27_RS16125" class="clusterblast-orf" id="dummy-6_h6_1_14"  />
</g>
<g id="a6_0015"  >
<polygon points="224,85 229,80 239,80 239,90 229,90 224,85 " style="fill:#d8bc15; stroke-width:1; stroke:black; " description="&lt;b&gt;BLQ27_RS16120&lt;/b&gt;&lt;br&gt;macrolide transporter subunit MacA&lt;br&gt;Location: 3555268 - 3554117&lt;br&gt;&lt;br&gt;&lt;b&gt;BlastP hit with MCIC6FC_007899&lt;/b&gt;&lt;br&gt;Percentage identity: 96&lt;br&gt;Percentage coverage: 36&lt;br&gt;BLAST bit score: 665&lt;br&gt;E-value: 1.3e-188" locus_tag="BLQ27_RS16120" class="clusterblast-orf" id="dummy-6_h6_1_15"  />
</g>
<g id="a6_0016"  >
<polygon points="244,85 249,80 385,80 385,90 249,90 244,85 " style="fill:#15d885; stroke-width:1; stroke:black; " description="&lt;b&gt;BLQ27_RS16115&lt;/b&gt;&lt;br&gt;amino acid adenylation domain-containing protein&lt;br&gt;Location: 3553741 - 3542417&lt;br&gt;&lt;br&gt;&lt;b&gt;BlastP hit with MCIC6FC_007900&lt;/b&gt;&lt;br&gt;Percentage identity: 92&lt;br&gt;Percentage coverage: 47&lt;br&gt;BLAST bit score: 6849&lt;br&gt;E-value: 0.0" locus_tag="BLQ27_RS16115" class="clusterblast-orf" id="dummy-6_h6_1_16"  />
</g>
<g id="a6_0017"  >
<polygon points="385,85 390,80 546,80 546,90 390,90 385,85 " style="fill:#15d885; stroke-width:1; stroke:black; " description="&lt;b&gt;BLQ27_RS16110&lt;/b&gt;&lt;br&gt;non-ribosomal peptide synthetase&lt;br&gt;Location: 3542420 - 3529515&lt;br&gt;&lt;br&gt;&lt;b&gt;BlastP hit with MCIC6FC_007900&lt;/b&gt;&lt;br&gt;Percentage identity: 92&lt;br&gt;Percentage coverage: 54&lt;br&gt;BLAST bit score: 7849&lt;br&gt;E-value: 0.0" locus_tag="BLQ27_RS16110" class="clusterblast-orf" id="dummy-6_h6_1_17"  />
</g>
<g id="a6_0018"  >
<polygon points="548,85 553,80 556,80 556,90 553,90 548,85 " style="fill:#1515d8; stroke-width:1; stroke:black; " description="&lt;b&gt;BLQ27_RS16105&lt;/b&gt;&lt;br&gt;VWA domain-containing protein&lt;br&gt;Location: 3529298 - 3528696&lt;br&gt;&lt;br&gt;&lt;b&gt;BlastP hit with MCIC6FC_007901&lt;/b&gt;&lt;br&gt;Percentage identity: 90&lt;br&gt;Percentage coverage: 38&lt;br&gt;BLAST bit score: 362&lt;br&gt;E-value: 6.9e-98" locus_tag="BLQ27_RS16105" class="clusterblast-orf" id="dummy-6_h6_1_18"  />
</g>
<g id="a6_0019"  >
<polygon points="557,85 562,80 569,80 569,90 562,90 557,85 " style="fill:#1515d8; stroke-width:1; stroke:black; " description="&lt;b&gt;BLQ27_RS16100&lt;/b&gt;&lt;br&gt;AAA family ATPase&lt;br&gt;Location: 3528642 - 3527638&lt;br&gt;&lt;br&gt;&lt;b&gt;BlastP hit with MCIC6FC_007901&lt;/b&gt;&lt;br&gt;Percentage identity: 87&lt;br&gt;Percentage coverage: 62&lt;br&gt;BLAST bit score: 540&lt;br&gt;E-value: 1.4e-151" locus_tag="BLQ27_RS16100" class="clusterblast-orf" id="dummy-6_h6_1_19"  />
</g>
<g id="a6_0020"  >
<polygon points="570,85 575,80 617,80 617,90 575,90 570,85 " style="fill:#1515d8; stroke-width:1; stroke:black; " description="&lt;b&gt;BLQ27_RS16095&lt;/b&gt;&lt;br&gt;cobaltochelatase subunit CobN&lt;br&gt;Location: 3527531 - 3523770&lt;br&gt;&lt;br&gt;&lt;b&gt;BlastP hit with MCIC6FC_007902&lt;/b&gt;&lt;br&gt;Percentage identity: 96&lt;br&gt;Percentage coverage: 78&lt;br&gt;BLAST bit score: 2452&lt;br&gt;E-value: 0.0" locus_tag="BLQ27_RS16095" class="clusterblast-orf" id="dummy-6_h6_1_20"  />
</g>
<g id="a6_0021"  >
<polygon points="617,85 622,80 631,80 631,90 622,90 617,85 " style="fill:#1515d8; stroke-width:1; stroke:black; " description="&lt;b&gt;BLQ27_RS16090&lt;/b&gt;&lt;br&gt;cobalamin biosynthesis protein CobW&lt;br&gt;Location: 3523766 - 3522699&lt;br&gt;&lt;br&gt;&lt;b&gt;BlastP hit with MCIC6FC_007902&lt;/b&gt;&lt;br&gt;Percentage identity: 99&lt;br&gt;Percentage coverage: 22&lt;br&gt;BLAST bit score: 633&lt;br&gt;E-value: 4.9e-179" locus_tag="BLQ27_RS16090" class="clusterblast-orf" id="dummy-6_h6_1_21"  />
</g>
<g id="a6_0022"  >
<polygon points="652,90 655,85 652,80 652,90 " style="fill:#d81585; stroke-width:1; stroke:black; " description="&lt;b&gt;BLQ27_RS16080&lt;/b&gt;&lt;br&gt;CbtB-domain containing protein&lt;br&gt;Location: 3520968 - 3520780&lt;br&gt;&lt;br&gt;&lt;b&gt;BlastP hit with MCIC6FC_007903&lt;/b&gt;&lt;br&gt;Percentage identity: 96&lt;br&gt;Percentage coverage: 11&lt;br&gt;BLAST bit score: 78&lt;br&gt;E-value: 2e-12" locus_tag="BLQ27_RS16080" class="clusterblast-orf" id="dummy-6_h6_1_22"  />
</g>
<g id="a6_0023"  >
<polygon points="655,90 659,90 664,85 659,80 655,80 655,90 " style="fill:#d81585; stroke-width:1; stroke:black; " description="&lt;b&gt;BLQ27_RS16075&lt;/b&gt;&lt;br&gt;CbtA family protein&lt;br&gt;Location: 3520768 - 3520061&lt;br&gt;&lt;br&gt;&lt;b&gt;BlastP hit with MCIC6FC_007903&lt;/b&gt;&lt;br&gt;Percentage identity: 96&lt;br&gt;Percentage coverage: 51&lt;br&gt;BLAST bit score: 395&lt;br&gt;E-value: 5.8e-108" locus_tag="BLQ27_RS16075" class="clusterblast-orf" id="dummy-6_h6_1_23"  />
</g>
<g id="a6_0024"  >
<polygon points="664,90 668,85 664,80 664,90 " style="fill:#d81585; stroke-width:1; stroke:black; " description="&lt;b&gt;BLQ27_RS16070&lt;/b&gt;&lt;br&gt;cobalamin biosynthesis protein&lt;br&gt;Location: 3520064 - 3519672&lt;br&gt;&lt;br&gt;&lt;b&gt;BlastP hit with MCIC6FC_007903&lt;/b&gt;&lt;br&gt;Percentage identity: 90&lt;br&gt;Percentage coverage: 31&lt;br&gt;BLAST bit score: 223&lt;br&gt;E-value: 3.9e-56" locus_tag="BLQ27_RS16070" class="clusterblast-orf" id="dummy-6_h6_1_24"  />
</g>
<g id="a6_0025"  >
<polygon points="669,90 674,90 679,85 674,80 669,80 669,90 " style="fill:#bcd815; stroke-width:1; stroke:black; " description="&lt;b&gt;BLQ27_RS16065&lt;/b&gt;&lt;br&gt;precorrin-4 C(11)-methyltransferase&lt;br&gt;Location: 3519602 - 3518856&lt;br&gt;&lt;br&gt;&lt;b&gt;BlastP hit with MCIC6FC_007904&lt;/b&gt;&lt;br&gt;Percentage identity: 96&lt;br&gt;Percentage coverage: 100&lt;br&gt;BLAST bit score: 477&lt;br&gt;E-value: 9.1e-133" locus_tag="BLQ27_RS16065" class="clusterblast-orf" id="dummy-6_h6_1_25"  />
</g>
<g id="a6_0026"  >
<polygon points="680,85 685,80 688,80 688,90 685,90 680,85 " style="fill:#15d8bc; stroke-width:1; stroke:black; " description="&lt;b&gt;BLQ27_RS16060&lt;/b&gt;&lt;br&gt;Fe-S biogenesis protein NfuA&lt;br&gt;Location: 3518712 - 3518128&lt;br&gt;&lt;br&gt;&lt;b&gt;BlastP hit with MCIC6FC_007905&lt;/b&gt;&lt;br&gt;Percentage identity: 100&lt;br&gt;Percentage coverage: 100&lt;br&gt;BLAST bit score: 398&lt;br&gt;E-value: 3.2e-109" locus_tag="BLQ27_RS16060" class="clusterblast-orf" id="dummy-6_h6_1_26"  />
</g>
<g id="a6_0027"  >
<polygon points="688,85 693,80 701,80 701,90 693,90 688,85 " style="fill:#4d15d8; stroke-width:1; stroke:black; " description="&lt;b&gt;BLQ27_RS16055&lt;/b&gt;&lt;br&gt;acyltransferase&lt;br&gt;Location: 3518069 - 3517044&lt;br&gt;&lt;br&gt;&lt;b&gt;BlastP hit with MCIC6FC_007906&lt;/b&gt;&lt;br&gt;Percentage identity: 61&lt;br&gt;Percentage coverage: 100&lt;br&gt;BLAST bit score: 404&lt;br&gt;E-value: 7.9e-111" locus_tag="BLQ27_RS16055" class="clusterblast-orf" id="dummy-6_h6_1_27"  />
</g>
<g id="a6_0028"  >
<polygon points="702,85 707,80 731,80 731,90 707,90 702,85 " style="fill:#d8154d; stroke-width:1; stroke:black; " description="&lt;b&gt;BLQ27_RS16050&lt;/b&gt;&lt;br&gt;fatty acid cis/trans isomerase&lt;br&gt;Location: 3516956 - 3514650&lt;br&gt;&lt;br&gt;&lt;b&gt;BlastP hit with MCIC6FC_007907&lt;/b&gt;&lt;br&gt;Percentage identity: 96&lt;br&gt;Percentage coverage: 100&lt;br&gt;BLAST bit score: 1531&lt;br&gt;E-value: 0.0" locus_tag="BLQ27_RS16050" class="clusterblast-orf" id="dummy-6_h6_1_28"  />
</g>
<g id="a6_0029"  >
<polygon points="733,90 775,90 780,85 775,80 733,80 733,90 " style="fill:#85d815; stroke-width:1; stroke:black; " description="&lt;b&gt;BLQ27_RS16045&lt;/b&gt;&lt;br&gt;methionine synthase&lt;br&gt;Location: 3514483 - 3510773&lt;br&gt;&lt;br&gt;&lt;b&gt;BlastP hit with MCIC6FC_007908&lt;/b&gt;&lt;br&gt;Percentage identity: 99&lt;br&gt;Percentage coverage: 100&lt;br&gt;BLAST bit score: 2443&lt;br&gt;E-value: 0.0" locus_tag="BLQ27_RS16045" class="clusterblast-orf" id="dummy-6_h6_1_29"  />
</g>
</svg>
