<svg xmlns="http://www.w3.org/2000/svg" xmlns:xlink="http://www.w3.org/1999/xlink" version="1.1" x="0" y="0" height="230" width="800" viewBox="0 0 800 230" preserveAspectRatio="none"  >
<g label="Query sequence" class="clusterblast-cluster"  >
<text x="5" y="20" class="clusterblast-acc"  >
Query sequence</text>
<line x1="10" y1="35" x2="778.0" y2="35" style="stroke-width:1; stroke:grey; "  />
<polygon points="284,35 289,30 396,30 396,40 289,40 284,35 " style="fill:#d81515; stroke-width:1; stroke:black; " description="&lt;b&gt;MCIC6FC_018158&lt;/b&gt;&lt;br&gt;hypothetical protein&lt;br&gt;Location: 80 - 6182" locus_tag="MCIC6FC_018158" class="clusterblast-orf" id="dummy-1_q0_0_all"  />
<polygon points="397,40 412,40 417,35 412,30 397,30 397,40 " style="fill:#15d815; stroke-width:1; stroke:black; " description="&lt;b&gt;MCIC6FC_018159&lt;/b&gt;&lt;br&gt;hypothetical protein&lt;br&gt;Location: 6243 - 7316" locus_tag="MCIC6FC_018159" class="clusterblast-orf" id="dummy-1_q1_0_all"  />
<polygon points="417,35 422,30 483,30 483,40 422,40 417,35 " style="fill:#1515d8; stroke-width:1; stroke:black; " description="&lt;b&gt;MCIC6FC_018160&lt;/b&gt;&lt;br&gt;hypothetical protein&lt;br&gt;Location: 7322 - 10946" locus_tag="MCIC6FC_018160" class="clusterblast-orf" id="dummy-1_q2_0_all"  />
<polygon points="486,35 491,30 495,30 495,40 491,40 486,35 " style="fill:#1515d8; stroke-width:1; stroke:black; " description="&lt;b&gt;MCIC6FC_018161&lt;/b&gt;&lt;br&gt;hypothetical protein&lt;br&gt;Location: 11087 - 11594" locus_tag="MCIC6FC_018161" class="clusterblast-orf" id="dummy-1_q3_0_all"  />
</g>
<g label="NZ_LMOC01000007" description="NZ_LMOC01000007 (41479-85571): Pseudomonas sp. Leaf129 contig 3, whole genome... (18% of genes show similarity), NRPS-like" class="clusterblast-cluster"  >
<text x="5" y="70" class="clusterblast-acc"  >
<a xlink:href="https://antismash-db.secondarymetabolites.org/area.html?record=NZ_LMOC01000007&amp;start=41479&amp;end=85571" target="_blank">NZ_LMOC01000007 (41479-85571)</a>: Pseudomonas sp. Leaf129 contig 3, whole genome... (18% of genes show similarity), NRPS-like</text>
<line x1="10" y1="85" x2="778.0" y2="85" style="stroke-width:1; stroke:grey; "  />
</g>
<g id="a1_000"  >
<polygon points="0,90 11,90 16,85 11,80 0,80 0,90 " style="fill:white; stroke-width:1; stroke:black; " description="&lt;b&gt;ASF66_RS11695&lt;/b&gt;&lt;br&gt;sugar nucleotide-binding protein&lt;br&gt;Location: 41741 - 42625" locus_tag="ASF66_RS11695" class="clusterblast-orf" id="dummy-1_h1_8_0"  />
</g>
<g id="a1_001"  >
<polygon points="16,90 28,90 33,85 28,80 16,80 16,90 " style="fill:white; stroke-width:1; stroke:black; " description="&lt;b&gt;ASF66_RS11700&lt;/b&gt;&lt;br&gt;NAD-dependent epimerase/dehydratase family protein&lt;br&gt;Location: 42618 - 43547" locus_tag="ASF66_RS11700" class="clusterblast-orf" id="dummy-1_h1_8_1"  />
</g>
<g id="a1_002"  >
<polygon points="34,85 39,80 47,80 47,90 39,90 34,85 " style="fill:white; stroke-width:1; stroke:black; " description="&lt;b&gt;ASF66_RS11705&lt;/b&gt;&lt;br&gt;outer membrane beta-barrel protein&lt;br&gt;Location: 43613 - 44311" locus_tag="ASF66_RS11705" class="clusterblast-orf" id="dummy-1_h1_8_2"  />
</g>
<g id="a1_003"  >
<polygon points="48,85 53,80 58,80 58,90 53,90 48,85 " style="fill:white; stroke-width:1; stroke:black; " description="&lt;b&gt;ASF66_RS11710&lt;/b&gt;&lt;br&gt;DUF3299 domain-containing protein&lt;br&gt;Location: 44406 - 44921" locus_tag="ASF66_RS11710" class="clusterblast-orf" id="dummy-1_h1_8_3"  />
</g>
<g id="a1_004"  >
<polygon points="58,85 63,80 81,80 81,90 63,90 58,85 " style="fill:white; stroke-width:1; stroke:black; " description="&lt;b&gt;ASF66_RS11715&lt;/b&gt;&lt;br&gt;ABC transporter permease&lt;br&gt;Location: 44933 - 46198" locus_tag="ASF66_RS11715" class="clusterblast-orf" id="dummy-1_h1_8_4"  />
</g>
<g id="a1_005"  >
<polygon points="81,85 86,80 94,80 94,90 86,90 81,85 " style="fill:white; stroke-width:1; stroke:black; " description="&lt;b&gt;ASF66_RS11720&lt;/b&gt;&lt;br&gt;ABC transporter ATP-binding protein&lt;br&gt;Location: 46198 - 46917" locus_tag="ASF66_RS11720" class="clusterblast-orf" id="dummy-1_h1_8_5"  />
</g>
<g id="a1_006"  >
<polygon points="94,85 99,80 105,80 105,90 99,90 94,85 " style="fill:white; stroke-width:1; stroke:black; " description="&lt;b&gt;ASF66_RS11725&lt;/b&gt;&lt;br&gt;DUF2796 domain-containing protein&lt;br&gt;Location: 46921 - 47514" locus_tag="ASF66_RS11725" class="clusterblast-orf" id="dummy-1_h1_8_6"  />
</g>
<g id="a1_007"  >
<polygon points="109,90 110,90 115,85 110,80 109,80 109,90 " style="fill:white; stroke-width:1; stroke:black; " description="&lt;b&gt;ASF66_RS11730&lt;/b&gt;&lt;br&gt;hypothetical protein&lt;br&gt;Location: 47698 - 48054" locus_tag="ASF66_RS11730" class="clusterblast-orf" id="dummy-1_h1_8_7"  />
</g>
<g id="a1_008"  >
<polygon points="116,85 121,80 132,80 132,90 121,90 116,85 " style="fill:white; stroke-width:1; stroke:black; " description="&lt;b&gt;ASF66_RS11735&lt;/b&gt;&lt;br&gt;thioredoxin&lt;br&gt;Location: 48094 - 48966" locus_tag="ASF66_RS11735" class="clusterblast-orf" id="dummy-1_h1_8_8"  />
</g>
<g id="a1_009"  >
<polygon points="134,85 139,80 142,80 142,90 139,90 134,85 " style="fill:white; stroke-width:1; stroke:black; " description="&lt;b&gt;ASF66_RS11740&lt;/b&gt;&lt;br&gt;YbaY family lipoprotein&lt;br&gt;Location: 49067 - 49528" locus_tag="ASF66_RS11740" class="clusterblast-orf" id="dummy-1_h1_8_9"  />
</g>
<g id="a1_0010"  >
<polygon points="144,90 147,90 152,85 147,80 144,80 144,90 " style="fill:white; stroke-width:1; stroke:black; " description="&lt;b&gt;ASF66_RS11745&lt;/b&gt;&lt;br&gt;transcriptional regulator NrdR&lt;br&gt;Location: 49636 - 50100" locus_tag="ASF66_RS11745" class="clusterblast-orf" id="dummy-1_h1_8_10"  />
</g>
<g id="a1_0011"  >
<polygon points="153,90 169,90 174,85 169,80 153,80 153,90 " style="fill:white; stroke-width:1; stroke:black; " description="&lt;b&gt;ASF66_RS11750&lt;/b&gt;&lt;br&gt;bifunctional diaminohydroxyphosphoribosylaminopyrimidine deaminase/5-amino-6-(5-phosphoribosylamino)uracil reductase RibD&lt;br&gt;Location: 50106 - 51269" locus_tag="ASF66_RS11750" class="clusterblast-orf" id="dummy-1_h1_8_11"  />
</g>
<g id="a1_0012"  >
<polygon points="175,90 182,90 187,85 182,80 175,80 175,90 " style="fill:white; stroke-width:1; stroke:black; " description="&lt;b&gt;ASF66_RS11755&lt;/b&gt;&lt;br&gt;riboflavin synthase&lt;br&gt;Location: 51315 - 51977" locus_tag="ASF66_RS11755" class="clusterblast-orf" id="dummy-1_h1_8_12"  />
</g>
<g id="a1_0013"  >
<polygon points="187,90 202,90 207,85 202,80 187,80 187,90 " style="fill:white; stroke-width:1; stroke:black; " description="&lt;b&gt;ASF66_RS11760&lt;/b&gt;&lt;br&gt;bifunctional 3,4-dihydroxy-2-butanone-4-phosphate synthase/GTP cyclohydrolase II&lt;br&gt;Location: 52012 - 53103" locus_tag="ASF66_RS11760" class="clusterblast-orf" id="dummy-1_h1_8_13"  />
</g>
<g id="a1_0014"  >
<polygon points="210,90 214,90 219,85 214,80 210,80 210,90 " style="fill:white; stroke-width:1; stroke:black; " description="&lt;b&gt;ASF66_RS11765&lt;/b&gt;&lt;br&gt;6,7-dimethyl-8-ribityllumazine synthase&lt;br&gt;Location: 53237 - 53713" locus_tag="ASF66_RS11765" class="clusterblast-orf" id="dummy-1_h1_8_14"  />
</g>
<g id="a1_0015"  >
<polygon points="219,90 223,90 228,85 223,80 219,80 219,90 " style="fill:white; stroke-width:1; stroke:black; " description="&lt;b&gt;ASF66_RS11770&lt;/b&gt;&lt;br&gt;transcription antitermination factor NusB&lt;br&gt;Location: 53710 - 54210" locus_tag="ASF66_RS11770" class="clusterblast-orf" id="dummy-1_h1_8_15"  />
</g>
<g id="a1_0016"  >
<polygon points="228,90 241,90 246,85 241,80 228,80 228,90 " style="fill:white; stroke-width:1; stroke:black; " description="&lt;b&gt;ASF66_RS11775&lt;/b&gt;&lt;br&gt;thiamine-phosphate kinase&lt;br&gt;Location: 54228 - 55193" locus_tag="ASF66_RS11775" class="clusterblast-orf" id="dummy-1_h1_8_16"  />
</g>
<g id="a1_0017"  >
<polygon points="246,90 250,90 255,85 250,80 246,80 246,90 " style="fill:white; stroke-width:1; stroke:black; " description="&lt;b&gt;ASF66_RS11780&lt;/b&gt;&lt;br&gt;phosphatidylglycerophosphatase A&lt;br&gt;Location: 55190 - 55699" locus_tag="ASF66_RS11780" class="clusterblast-orf" id="dummy-1_h1_8_17"  />
</g>
<g id="a1_0018"  >
<polygon points="256,90 264,90 269,85 264,80 256,80 256,90 " style="fill:white; stroke-width:1; stroke:black; " description="&lt;b&gt;ASF66_RS11785&lt;/b&gt;&lt;br&gt;transporter substrate-binding domain-containing protein&lt;br&gt;Location: 55737 - 56480" locus_tag="ASF66_RS11785" class="clusterblast-orf" id="dummy-1_h1_8_18"  />
</g>
<g id="a1_0019"  >
<polygon points="271,90 278,90 283,85 278,80 271,80 271,90 " style="fill:white; stroke-width:1; stroke:black; " description="&lt;b&gt;ASF66_RS11790&lt;/b&gt;&lt;br&gt;GTP cyclohydrolase II&lt;br&gt;Location: 56583 - 57224" locus_tag="ASF66_RS11790" class="clusterblast-orf" id="dummy-1_h1_8_19"  />
</g>
<g id="a1_0020"  >
<polygon points="284,85 289,80 318,80 318,90 289,90 284,85 " style="fill:white; stroke-width:1; stroke:black; " description="&lt;b&gt;ASF66_RS11795&lt;/b&gt;&lt;br&gt;1-deoxy-D-xylulose-5-phosphate synthase&lt;br&gt;Location: 57270 - 59168" locus_tag="ASF66_RS11795" class="clusterblast-orf" id="dummy-1_h1_8_20"  />
</g>
<g id="a1_0021"  >
<polygon points="320,85 325,80 336,80 336,90 325,90 320,85 " style="fill:white; stroke-width:1; stroke:black; " description="&lt;b&gt;ASF66_RS11800&lt;/b&gt;&lt;br&gt;(2E,6E)-farnesyl diphosphate synthase&lt;br&gt;Location: 59239 - 60126" locus_tag="ASF66_RS11800" class="clusterblast-orf" id="dummy-1_h1_8_21"  />
</g>
<g id="a1_0022"  >
<polygon points="336,85 340,80 340,90 336,85 " style="fill:white; stroke-width:1; stroke:black; " description="&lt;b&gt;ASF66_RS11805&lt;/b&gt;&lt;br&gt;exodeoxyribonuclease VII small subunit&lt;br&gt;Location: 60123 - 60365" locus_tag="ASF66_RS11805" class="clusterblast-orf" id="dummy-1_h1_8_22"  />
</g>
<g id="a1_0023"  >
<polygon points="342,85 347,80 361,80 361,90 347,90 342,85 " style="fill:#d81515; stroke-width:1; stroke:black; " description="&lt;b&gt;ASF66_RS11810&lt;/b&gt;&lt;br&gt;NAD(P)-dependent alcohol dehydrogenase&lt;br&gt;Location: 60446 - 61483&lt;br&gt;&lt;br&gt;&lt;b&gt;BlastP hit with MCIC6FC_018158&lt;/b&gt;&lt;br&gt;Percentage identity: 71&lt;br&gt;Percentage coverage: 17&lt;br&gt;BLAST bit score: 409&lt;br&gt;E-value: 1.7e-111" locus_tag="ASF66_RS11810" class="clusterblast-orf" id="dummy-1_h1_8_23"  />
</g>
<g id="a1_0024"  >
<polygon points="361,85 366,80 436,80 436,90 366,90 361,85 " style="fill:#d81515; stroke-width:1; stroke:black; " description="&lt;b&gt;ASF66_RS11815&lt;/b&gt;&lt;br&gt;SDR family oxidoreductase&lt;br&gt;Location: 61480 - 65571&lt;br&gt;&lt;br&gt;&lt;b&gt;BlastP hit with MCIC6FC_018158&lt;/b&gt;&lt;br&gt;Percentage identity: 76&lt;br&gt;Percentage coverage: 75&lt;br&gt;BLAST bit score: 1861&lt;br&gt;E-value: 0.0" locus_tag="ASF66_RS11815" class="clusterblast-orf" id="dummy-1_h1_8_24"  />
</g>
<g id="a1_0025"  >
<polygon points="436,85 441,80 453,80 453,90 441,90 436,85 " style="fill:#d81515; stroke-width:1; stroke:black; " description="&lt;b&gt;ASF66_RS11820&lt;/b&gt;&lt;br&gt;DMT family transporter&lt;br&gt;Location: 65586 - 66500&lt;br&gt;&lt;br&gt;&lt;b&gt;BlastP hit with MCIC6FC_018158&lt;/b&gt;&lt;br&gt;Percentage identity: 94&lt;br&gt;Percentage coverage: 17&lt;br&gt;BLAST bit score: 474&lt;br&gt;E-value: 4.2e-131" locus_tag="ASF66_RS11820" class="clusterblast-orf" id="dummy-1_h1_8_25"  />
</g>
<g id="a1_0026"  >
<polygon points="454,90 467,90 472,85 467,80 454,80 454,90 " style="fill:#15d815; stroke-width:1; stroke:black; " description="&lt;b&gt;ASF66_RS11825&lt;/b&gt;&lt;br&gt;LysR family transcriptional regulator&lt;br&gt;Location: 66596 - 67534&lt;br&gt;&lt;br&gt;&lt;b&gt;BlastP hit with MCIC6FC_018159&lt;/b&gt;&lt;br&gt;Percentage identity: 89&lt;br&gt;Percentage coverage: 91&lt;br&gt;BLAST bit score: 488&lt;br&gt;E-value: 6.5e-136" locus_tag="ASF66_RS11825" class="clusterblast-orf" id="dummy-1_h1_8_26"  />
</g>
<g id="a1_0027"  >
<polygon points="472,85 477,80 482,80 482,90 477,90 472,85 " style="fill:white; stroke-width:1; stroke:black; " description="&lt;b&gt;ASF66_RS11830&lt;/b&gt;&lt;br&gt;adenylyl-sulfate kinase&lt;br&gt;Location: 67539 - 68123" locus_tag="ASF66_RS11830" class="clusterblast-orf" id="dummy-1_h1_8_27"  />
</g>
<g id="a1_0028"  >
<polygon points="482,85 487,80 503,80 503,90 487,90 482,85 " style="fill:#1515d8; stroke-width:1; stroke:black; " description="&lt;b&gt;ASF66_RS11835&lt;/b&gt;&lt;br&gt;aromatic ring-hydroxylating dioxygenase subunit alpha&lt;br&gt;Location: 68116 - 69270&lt;br&gt;&lt;br&gt;&lt;b&gt;BlastP hit with MCIC6FC_018160&lt;/b&gt;&lt;br&gt;Percentage identity: 64&lt;br&gt;Percentage coverage: 35&lt;br&gt;BLAST bit score: 425&lt;br&gt;E-value: 1.8e-116" locus_tag="ASF66_RS11835" class="clusterblast-orf" id="dummy-1_h1_8_28"  />
</g>
<g id="a1_0029"  >
<polygon points="503,85 508,80 523,80 523,90 508,90 503,85 " style="fill:#1515d8; stroke-width:1; stroke:black; " description="&lt;b&gt;ASF66_RS11840&lt;/b&gt;&lt;br&gt;mandelate racemase/muconate lactonizing enzyme family protein&lt;br&gt;Location: 69263 - 70366&lt;br&gt;&lt;br&gt;&lt;b&gt;BlastP hit with MCIC6FC_018160&lt;/b&gt;&lt;br&gt;Percentage identity: 77&lt;br&gt;Percentage coverage: 28&lt;br&gt;BLAST bit score: 441&lt;br&gt;E-value: 2.4e-121" locus_tag="ASF66_RS11840" class="clusterblast-orf" id="dummy-1_h1_8_29"  />
</g>
<g id="a1_0030"  >
<polygon points="523,85 528,80 547,80 547,90 528,90 523,85 " style="fill:#1515d8; stroke-width:1; stroke:black; " description="&lt;b&gt;ASF66_RS11845&lt;/b&gt;&lt;br&gt;NAD(P)-dependent oxidoreductase&lt;br&gt;Location: 70363 - 71682&lt;br&gt;&lt;br&gt;&lt;b&gt;BlastP hit with MCIC6FC_018160&lt;/b&gt;&lt;br&gt;Percentage identity: 62&lt;br&gt;Percentage coverage: 28&lt;br&gt;BLAST bit score: 337&lt;br&gt;E-value: 3.8e-90&lt;br&gt;&lt;br&gt;&lt;b&gt;BlastP hit with MCIC6FC_018161&lt;/b&gt;&lt;br&gt;Percentage identity: 60&lt;br&gt;Percentage coverage: 52&lt;br&gt;BLAST bit score: 72&lt;br&gt;E-value: 2.9e-11" locus_tag="ASF66_RS11845" class="clusterblast-orf" id="dummy-1_h1_8_30"  />
</g>
<g id="a1_0031"  >
<polygon points="548,85 553,80 565,80 565,90 553,90 548,85 " style="fill:#1515d8; stroke-width:1; stroke:black; " description="&lt;b&gt;ASF66_RS22070&lt;/b&gt;&lt;br&gt;isopenicillin N synthase family oxygenase&lt;br&gt;Location: 71702 - 72643&lt;br&gt;&lt;br&gt;&lt;b&gt;BlastP hit with MCIC6FC_018161&lt;/b&gt;&lt;br&gt;Percentage identity: 83&lt;br&gt;Percentage coverage: 51&lt;br&gt;BLAST bit score: 115&lt;br&gt;E-value: 3.9e-24" locus_tag="ASF66_RS22070" class="clusterblast-orf" id="dummy-1_h1_8_31"  />
</g>
<g id="a1_0032"  >
<polygon points="565,85 570,80 577,80 577,90 570,90 565,85 " style="fill:white; stroke-width:1; stroke:black; " description="&lt;b&gt;ASF66_RS11855&lt;/b&gt;&lt;br&gt;class I SAM-dependent methyltransferase&lt;br&gt;Location: 72640 - 73317" locus_tag="ASF66_RS11855" class="clusterblast-orf" id="dummy-1_h1_8_32"  />
</g>
<g id="a1_0033"  >
<polygon points="586,90 591,90 596,85 591,80 586,80 586,90 " style="fill:white; stroke-width:1; stroke:black; " description="&lt;b&gt;ASF66_RS11860&lt;/b&gt;&lt;br&gt;VOC family protein&lt;br&gt;Location: 73810 - 74337" locus_tag="ASF66_RS11860" class="clusterblast-orf" id="dummy-1_h1_8_33"  />
</g>
<g id="a1_0034"  >
<polygon points="596,85 601,80 610,80 610,90 601,90 596,85 " style="fill:white; stroke-width:1; stroke:black; " description="&lt;b&gt;ASF66_RS11865&lt;/b&gt;&lt;br&gt;amino acid ABC transporter ATP-binding protein&lt;br&gt;Location: 74350 - 75123" locus_tag="ASF66_RS11865" class="clusterblast-orf" id="dummy-1_h1_8_34"  />
</g>
<g id="a1_0035"  >
<polygon points="610,85 615,80 622,80 622,90 615,90 610,85 " style="fill:white; stroke-width:1; stroke:black; " description="&lt;b&gt;ASF66_RS11870&lt;/b&gt;&lt;br&gt;amino acid ABC transporter permease&lt;br&gt;Location: 75116 - 75778" locus_tag="ASF66_RS11870" class="clusterblast-orf" id="dummy-1_h1_8_35"  />
</g>
<g id="a1_0036"  >
<polygon points="623,85 628,80 634,80 634,90 628,90 623,85 " style="fill:white; stroke-width:1; stroke:black; " description="&lt;b&gt;ASF66_RS11875&lt;/b&gt;&lt;br&gt;amino acid ABC transporter permease&lt;br&gt;Location: 75791 - 76432" locus_tag="ASF66_RS11875" class="clusterblast-orf" id="dummy-1_h1_8_36"  />
</g>
<g id="a1_0037"  >
<polygon points="638,85 643,80 654,80 654,90 643,90 638,85 " style="fill:white; stroke-width:1; stroke:black; " description="&lt;b&gt;ASF66_RS11880&lt;/b&gt;&lt;br&gt;transporter substrate-binding domain-containing protein&lt;br&gt;Location: 76604 - 77497" locus_tag="ASF66_RS11880" class="clusterblast-orf" id="dummy-1_h1_8_37"  />
</g>
<g id="a1_0038"  >
<polygon points="659,90 682,90 687,85 682,80 659,80 659,90 " style="fill:white; stroke-width:1; stroke:black; " description="&lt;b&gt;ASF66_RS11885&lt;/b&gt;&lt;br&gt;PLP-dependent aminotransferase family protein&lt;br&gt;Location: 77785 - 79281" locus_tag="ASF66_RS11885" class="clusterblast-orf" id="dummy-1_h1_8_38"  />
</g>
<g id="a1_0039"  >
<polygon points="689,85 694,80 713,80 713,90 694,90 689,85 " style="fill:white; stroke-width:1; stroke:black; " description="&lt;b&gt;ASF66_RS11890&lt;/b&gt;&lt;br&gt;aspartate aminotransferase family protein&lt;br&gt;Location: 79409 - 80731" locus_tag="ASF66_RS11890" class="clusterblast-orf" id="dummy-1_h1_8_39"  />
</g>
<g id="a1_0040"  >
<polygon points="717,90 727,90 732,85 727,80 717,80 717,90 " style="fill:white; stroke-width:1; stroke:black; " description="&lt;b&gt;ASF66_RS11895&lt;/b&gt;&lt;br&gt;aldolase&lt;br&gt;Location: 80962 - 81747" locus_tag="ASF66_RS11895" class="clusterblast-orf" id="dummy-1_h1_8_40"  />
</g>
<g id="a1_0041"  >
<polygon points="738,85 743,80 748,80 748,90 743,90 738,85 " style="fill:white; stroke-width:1; stroke:black; " description="&lt;b&gt;ASF66_RS11900&lt;/b&gt;&lt;br&gt;inorganic diphosphatase&lt;br&gt;Location: 82118 - 82645" locus_tag="ASF66_RS11900" class="clusterblast-orf" id="dummy-1_h1_8_41"  />
</g>
<g id="a1_0042"  >
<polygon points="753,85 758,80 768,80 768,90 758,90 753,85 " style="fill:white; stroke-width:1; stroke:black; " description="&lt;b&gt;ASF66_RS11905&lt;/b&gt;&lt;br&gt;zinc-dependent peptidase&lt;br&gt;Location: 82917 - 83708" locus_tag="ASF66_RS11905" class="clusterblast-orf" id="dummy-1_h1_8_42"  />
</g>
<g id="a1_0043"  >
<polygon points="768,85 773,80 780,80 780,90 773,90 768,85 " style="fill:white; stroke-width:1; stroke:black; " description="&lt;b&gt;ASF66_RS11910&lt;/b&gt;&lt;br&gt;DedA family protein&lt;br&gt;Location: 83713 - 84360" locus_tag="ASF66_RS11910" class="clusterblast-orf" id="dummy-1_h1_8_43"  />
</g>
</svg>
