<svg xmlns="http://www.w3.org/2000/svg" xmlns:xlink="http://www.w3.org/1999/xlink" version="1.1" x="0" y="0" height="230" width="800" viewBox="0 0 800 230" preserveAspectRatio="none"  >
<g label="Query sequence" class="clusterblast-cluster"  >
<text x="5" y="20" class="clusterblast-acc"  >
Query sequence</text>
<line x1="10" y1="35" x2="778.0" y2="35" style="stroke-width:1; stroke:grey; "  />
<polygon points="159,35 164,30 168,30 168,40 164,40 159,35 " style="fill:#d81515; stroke-width:1; stroke:black; " description="&lt;b&gt;MCIC6FC_007887&lt;/b&gt;&lt;br&gt;hypothetical protein&lt;br&gt;Location: 1618687 - 1619925" locus_tag="MCIC6FC_007887" class="clusterblast-orf" id="dummy-6_q0_0_all"  />
<polygon points="169,35 174,30 182,30 182,40 174,40 169,35 " style="fill:#4dd815; stroke-width:1; stroke:black; " description="&lt;b&gt;MCIC6FC_007888&lt;/b&gt;&lt;br&gt;hypothetical protein&lt;br&gt;Location: 1619941 - 1621734" locus_tag="MCIC6FC_007888" class="clusterblast-orf" id="dummy-6_q1_0_all"  />
<polygon points="183,35 188,30 191,30 191,40 188,40 183,35 " style="fill:#15bcd8; stroke-width:1; stroke:black; " description="&lt;b&gt;MCIC6FC_007889&lt;/b&gt;&lt;br&gt;hypothetical protein&lt;br&gt;Location: 1621784 - 1622873" locus_tag="MCIC6FC_007889" class="clusterblast-orf" id="dummy-6_q2_0_all"  />
<polygon points="191,35 196,30 201,30 201,40 196,40 191,35 " style="fill:#8515d8; stroke-width:1; stroke:black; " description="&lt;b&gt;MCIC6FC_007890&lt;/b&gt;&lt;br&gt;hypothetical protein&lt;br&gt;Location: 1622896 - 1624255" locus_tag="MCIC6FC_007890" class="clusterblast-orf" id="dummy-6_q3_0_all"  />
<polygon points="202,40 204,40 209,35 204,30 202,30 202,40 " style="fill:#d84d15; stroke-width:1; stroke:black; " description="&lt;b&gt;MCIC6FC_007891&lt;/b&gt;&lt;br&gt;hypothetical protein&lt;br&gt;Location: 1624394 - 1625291" locus_tag="MCIC6FC_007891" class="clusterblast-orf" id="dummy-6_q4_0_all"  />
<polygon points="210,40 221,40 226,35 221,30 210,30 210,40 " style="fill:#15d815; stroke-width:1; stroke:black; " description="&lt;b&gt;MCIC6FC_007892&lt;/b&gt;&lt;br&gt;hypothetical protein&lt;br&gt;Location: 1625391 - 1627551" locus_tag="MCIC6FC_007892" class="clusterblast-orf" id="dummy-6_q5_0_all"  />
<polygon points="227,35 232,30 235,30 235,40 232,40 227,35 " style="fill:#1585d8; stroke-width:1; stroke:black; " description="&lt;b&gt;MCIC6FC_007893&lt;/b&gt;&lt;br&gt;hypothetical protein&lt;br&gt;Location: 1627593 - 1628671" locus_tag="MCIC6FC_007893" class="clusterblast-orf" id="dummy-6_q6_0_all"  />
<polygon points="236,40 236,40 241,35 236,30 236,30 236,40 " style="fill:#bc15d8; stroke-width:1; stroke:black; " description="&lt;b&gt;MCIC6FC_007894&lt;/b&gt;&lt;br&gt;hypothetical protein&lt;br&gt;Location: 1628768 - 1629501" locus_tag="MCIC6FC_007894" class="clusterblast-orf" id="dummy-6_q7_0_all"  />
<polygon points="241,35 245,30 245,40 241,35 " style="fill:#d88515; stroke-width:1; stroke:black; " description="&lt;b&gt;MCIC6FC_007895&lt;/b&gt;&lt;br&gt;hypothetical protein&lt;br&gt;Location: 1629543 - 1629981" locus_tag="MCIC6FC_007895" class="clusterblast-orf" id="dummy-6_q8_0_all"  />
<polygon points="246,35 249,30 249,40 246,35 " style="fill:#15d84d; stroke-width:1; stroke:black; " description="&lt;b&gt;MCIC6FC_007896&lt;/b&gt;&lt;br&gt;hypothetical protein&lt;br&gt;Location: 1630103 - 1630574" locus_tag="MCIC6FC_007896" class="clusterblast-orf" id="dummy-6_q9_0_all"  />
<polygon points="250,40 255,40 260,35 255,30 250,30 250,40 " style="fill:#154dd8; stroke-width:1; stroke:black; " description="&lt;b&gt;MCIC6FC_007897&lt;/b&gt;&lt;br&gt;hypothetical protein&lt;br&gt;Location: 1630697 - 1631945" locus_tag="MCIC6FC_007897" class="clusterblast-orf" id="dummy-6_q10_0_all"  />
<polygon points="261,40 262,40 267,35 262,30 261,30 261,40 " style="fill:#d815bc; stroke-width:1; stroke:black; " description="&lt;b&gt;MCIC6FC_007898&lt;/b&gt;&lt;br&gt;hypothetical protein&lt;br&gt;Location: 1632165 - 1632855" locus_tag="MCIC6FC_007898" class="clusterblast-orf" id="dummy-6_q11_0_all"  />
<polygon points="267,35 272,30 290,30 290,40 272,40 267,35 " style="fill:#d8bc15; stroke-width:1; stroke:black; " description="&lt;b&gt;MCIC6FC_007899&lt;/b&gt;&lt;br&gt;hypothetical protein&lt;br&gt;Location: 1632911 - 1635995" locus_tag="MCIC6FC_007899" class="clusterblast-orf" id="dummy-6_q12_0_all"  />
<polygon points="295,35 300,30 478,30 478,40 300,40 295,35 " style="fill:#15d885; stroke-width:1; stroke:black; " description="&lt;b&gt;MCIC6FC_007900&lt;/b&gt;&lt;br&gt;hypothetical protein&lt;br&gt;Location: 1636549 - 1660777" locus_tag="MCIC6FC_007900" class="clusterblast-orf" id="dummy-6_q13_0_all"  />
<polygon points="480,35 485,30 493,30 493,40 485,40 480,35 " style="fill:#1515d8; stroke-width:1; stroke:black; " description="&lt;b&gt;MCIC6FC_007901&lt;/b&gt;&lt;br&gt;hypothetical protein&lt;br&gt;Location: 1660996 - 1662651" locus_tag="MCIC6FC_007901" class="clusterblast-orf" id="dummy-6_q14_0_all"  />
<polygon points="494,35 499,30 531,30 531,40 499,40 494,35 " style="fill:#1515d8; stroke-width:1; stroke:black; " description="&lt;b&gt;MCIC6FC_007902&lt;/b&gt;&lt;br&gt;hypothetical protein&lt;br&gt;Location: 1662893 - 1667726" locus_tag="MCIC6FC_007902" class="clusterblast-orf" id="dummy-6_q15_0_all"  />
<polygon points="542,40 547,40 552,35 547,30 542,30 542,40 " style="fill:#d81585; stroke-width:1; stroke:black; " description="&lt;b&gt;MCIC6FC_007903&lt;/b&gt;&lt;br&gt;hypothetical protein&lt;br&gt;Location: 1669225 - 1670522" locus_tag="MCIC6FC_007903" class="clusterblast-orf" id="dummy-6_q16_0_all"  />
<polygon points="553,40 553,40 558,35 553,30 553,30 553,40 " style="fill:#bcd815; stroke-width:1; stroke:black; " description="&lt;b&gt;MCIC6FC_007904&lt;/b&gt;&lt;br&gt;hypothetical protein&lt;br&gt;Location: 1670591 - 1671338" locus_tag="MCIC6FC_007904" class="clusterblast-orf" id="dummy-6_q17_0_all"  />
<polygon points="560,35 564,30 564,40 560,35 " style="fill:#15d8bc; stroke-width:1; stroke:black; " description="&lt;b&gt;MCIC6FC_007905&lt;/b&gt;&lt;br&gt;hypothetical protein&lt;br&gt;Location: 1671548 - 1672133" locus_tag="MCIC6FC_007905" class="clusterblast-orf" id="dummy-6_q18_0_all"  />
<polygon points="565,35 570,30 573,30 573,40 570,40 565,35 " style="fill:#4d15d8; stroke-width:1; stroke:black; " description="&lt;b&gt;MCIC6FC_007906&lt;/b&gt;&lt;br&gt;hypothetical protein&lt;br&gt;Location: 1672192 - 1673215" locus_tag="MCIC6FC_007906" class="clusterblast-orf" id="dummy-6_q19_0_all"  />
<polygon points="573,35 578,30 591,30 591,40 578,40 573,35 " style="fill:#d8154d; stroke-width:1; stroke:black; " description="&lt;b&gt;MCIC6FC_007907&lt;/b&gt;&lt;br&gt;hypothetical protein&lt;br&gt;Location: 1673279 - 1675586" locus_tag="MCIC6FC_007907" class="clusterblast-orf" id="dummy-6_q20_0_all"  />
<polygon points="592,40 615,40 620,35 615,30 592,30 592,40 " style="fill:#85d815; stroke-width:1; stroke:black; " description="&lt;b&gt;MCIC6FC_007908&lt;/b&gt;&lt;br&gt;hypothetical protein&lt;br&gt;Location: 1675751 - 1679462" locus_tag="MCIC6FC_007908" class="clusterblast-orf" id="dummy-6_q21_0_all"  />
</g>
<g label="NZ_CABVGW010000014" description="NZ_CABVGW010000014 (41734-146114): Pseudomonas fluorescens isolate PS682, who... (45% of genes show similarity), NRPS" class="clusterblast-cluster"  >
<text x="5" y="70" class="clusterblast-acc"  >
<a xlink:href="https://antismash-db.secondarymetabolites.org/area.html?record=NZ_CABVGW010000014&amp;start=41734&amp;end=146114" target="_blank">NZ_CABVGW010000014 (41734-146114)</a>: Pseudomonas fluorescens isolate PS682, who... (45% of genes show similarity), NRPS</text>
<line x1="10" y1="85" x2="778.0" y2="85" style="stroke-width:1; stroke:grey; "  />
</g>
<g id="a6_000"  >
<polygon points="0,85 3,80 3,90 0,85 " style="fill:#d81515; stroke-width:1; stroke:black; " description="&lt;b&gt;F8N22_RS21230&lt;/b&gt;&lt;br&gt;SRPBCC family protein&lt;br&gt;Location: 42413 - 42829&lt;br&gt;&lt;br&gt;&lt;b&gt;BlastP hit with MCIC6FC_007887&lt;/b&gt;&lt;br&gt;Percentage identity: 91&lt;br&gt;Percentage coverage: 34&lt;br&gt;BLAST bit score: 244&lt;br&gt;E-value: 1.6e-62" locus_tag="F8N22_RS21230" class="clusterblast-orf" id="dummy-6_h6_10_0"  />
</g>
<g id="a6_001"  >
<polygon points="3,85 8,80 9,80 9,90 8,90 3,85 " style="fill:#d81515; stroke-width:1; stroke:black; " description="&lt;b&gt;F8N22_RS21235&lt;/b&gt;&lt;br&gt;SDR family oxidoreductase&lt;br&gt;Location: 42859 - 43707&lt;br&gt;&lt;br&gt;&lt;b&gt;BlastP hit with MCIC6FC_007887&lt;/b&gt;&lt;br&gt;Percentage identity: 97&lt;br&gt;Percentage coverage: 66&lt;br&gt;BLAST bit score: 473&lt;br&gt;E-value: 2.1e-131" locus_tag="F8N22_RS21235" class="clusterblast-orf" id="dummy-6_h6_10_1"  />
</g>
<g id="a6_002"  >
<polygon points="9,85 14,80 17,80 17,90 14,90 9,85 " style="fill:#4dd815; stroke-width:1; stroke:black; " description="&lt;b&gt;F8N22_RS21240&lt;/b&gt;&lt;br&gt;aldo/keto reductase&lt;br&gt;Location: 43674 - 44678&lt;br&gt;&lt;br&gt;&lt;b&gt;BlastP hit with MCIC6FC_007888&lt;/b&gt;&lt;br&gt;Percentage identity: 53&lt;br&gt;Percentage coverage: 33&lt;br&gt;BLAST bit score: 141&lt;br&gt;E-value: 2.5e-31" locus_tag="F8N22_RS21240" class="clusterblast-orf" id="dummy-6_h6_10_2"  />
</g>
<g id="a6_003"  >
<polygon points="18,90 19,90 24,85 19,80 18,80 18,90 " style="fill:white; stroke-width:1; stroke:black; " description="&lt;b&gt;F8N22_RS21245&lt;/b&gt;&lt;br&gt;LysR family transcriptional regulator&lt;br&gt;Location: 44792 - 45685" locus_tag="F8N22_RS21245" class="clusterblast-orf" id="dummy-6_h6_10_3"  />
</g>
<g id="a6_004"  >
<polygon points="25,85 30,80 35,80 35,90 30,90 25,85 " style="fill:#4dd815; stroke-width:1; stroke:black; " description="&lt;b&gt;F8N22_RS21250&lt;/b&gt;&lt;br&gt;FAD-binding oxidoreductase&lt;br&gt;Location: 45759 - 47051&lt;br&gt;&lt;br&gt;&lt;b&gt;BlastP hit with MCIC6FC_007888&lt;/b&gt;&lt;br&gt;Percentage identity: 91&lt;br&gt;Percentage coverage: 78&lt;br&gt;BLAST bit score: 770&lt;br&gt;E-value: 1.4e-220" locus_tag="F8N22_RS21250" class="clusterblast-orf" id="dummy-6_h6_10_4"  />
</g>
<g id="a6_005"  >
<polygon points="35,85 40,80 43,80 43,90 40,90 35,85 " style="fill:#15bcd8; stroke-width:1; stroke:black; " description="&lt;b&gt;F8N22_RS21255&lt;/b&gt;&lt;br&gt;extracellular solute-binding protein&lt;br&gt;Location: 47048 - 48136&lt;br&gt;&lt;br&gt;&lt;b&gt;BlastP hit with MCIC6FC_007889&lt;/b&gt;&lt;br&gt;Percentage identity: 96&lt;br&gt;Percentage coverage: 100&lt;br&gt;BLAST bit score: 708&lt;br&gt;E-value: 4.6e-202" locus_tag="F8N22_RS21255" class="clusterblast-orf" id="dummy-6_h6_10_5"  />
</g>
<g id="a6_006"  >
<polygon points="43,85 48,80 53,80 53,90 48,90 43,85 " style="fill:#8515d8; stroke-width:1; stroke:black; " description="&lt;b&gt;F8N22_RS21260&lt;/b&gt;&lt;br&gt;glutamine synthetase&lt;br&gt;Location: 48160 - 49518&lt;br&gt;&lt;br&gt;&lt;b&gt;BlastP hit with MCIC6FC_007890&lt;/b&gt;&lt;br&gt;Percentage identity: 97&lt;br&gt;Percentage coverage: 100&lt;br&gt;BLAST bit score: 908&lt;br&gt;E-value: 2.2e-262" locus_tag="F8N22_RS21260" class="clusterblast-orf" id="dummy-6_h6_10_6"  />
</g>
<g id="a6_007"  >
<polygon points="54,90 56,90 61,85 56,80 54,80 54,90 " style="fill:#d84d15; stroke-width:1; stroke:black; " description="&lt;b&gt;F8N22_RS21265&lt;/b&gt;&lt;br&gt;helix-turn-helix domain-containing protein&lt;br&gt;Location: 49658 - 50554&lt;br&gt;&lt;br&gt;&lt;b&gt;BlastP hit with MCIC6FC_007891&lt;/b&gt;&lt;br&gt;Percentage identity: 93&lt;br&gt;Percentage coverage: 99&lt;br&gt;BLAST bit score: 566&lt;br&gt;E-value: 2.3e-159" locus_tag="F8N22_RS21265" class="clusterblast-orf" id="dummy-6_h6_10_7"  />
</g>
<g id="a6_008"  >
<polygon points="62,90 74,90 79,85 74,80 62,80 62,90 " style="fill:#15d815; stroke-width:1; stroke:black; " description="&lt;b&gt;F8N22_RS21270&lt;/b&gt;&lt;br&gt;TonB-dependent siderophore receptor&lt;br&gt;Location: 50694 - 52856&lt;br&gt;&lt;br&gt;&lt;b&gt;BlastP hit with MCIC6FC_007892&lt;/b&gt;&lt;br&gt;Percentage identity: 91&lt;br&gt;Percentage coverage: 100&lt;br&gt;BLAST bit score: 1330&lt;br&gt;E-value: 0.0" locus_tag="F8N22_RS21270" class="clusterblast-orf" id="dummy-6_h6_10_8"  />
</g>
<g id="a6_009"  >
<polygon points="79,85 84,80 87,80 87,90 84,90 79,85 " style="fill:#1585d8; stroke-width:1; stroke:black; " description="&lt;b&gt;F8N22_RS21275&lt;/b&gt;&lt;br&gt;MFS transporter&lt;br&gt;Location: 52846 - 53976&lt;br&gt;&lt;br&gt;&lt;b&gt;BlastP hit with MCIC6FC_007893&lt;/b&gt;&lt;br&gt;Percentage identity: 87&lt;br&gt;Percentage coverage: 99&lt;br&gt;BLAST bit score: 554&lt;br&gt;E-value: 8.1e-156" locus_tag="F8N22_RS21275" class="clusterblast-orf" id="dummy-6_h6_10_9"  />
</g>
<g id="a6_0010"  >
<polygon points="88,90 89,90 94,85 89,80 88,80 88,90 " style="fill:#bc15d8; stroke-width:1; stroke:black; " description="&lt;b&gt;F8N22_RS21280&lt;/b&gt;&lt;br&gt;helix-turn-helix transcriptional regulator&lt;br&gt;Location: 54078 - 54848&lt;br&gt;&lt;br&gt;&lt;b&gt;BlastP hit with MCIC6FC_007894&lt;/b&gt;&lt;br&gt;Percentage identity: 88&lt;br&gt;Percentage coverage: 100&lt;br&gt;BLAST bit score: 402&lt;br&gt;E-value: 3.4e-110" locus_tag="F8N22_RS21280" class="clusterblast-orf" id="dummy-6_h6_10_10"  />
</g>
<g id="a6_0011"  >
<polygon points="94,85 97,80 97,90 94,85 " style="fill:#d88515; stroke-width:1; stroke:black; " description="&lt;b&gt;F8N22_RS21285&lt;/b&gt;&lt;br&gt;carboxymuconolactone decarboxylase family protein&lt;br&gt;Location: 54853 - 55290&lt;br&gt;&lt;br&gt;&lt;b&gt;BlastP hit with MCIC6FC_007895&lt;/b&gt;&lt;br&gt;Percentage identity: 95&lt;br&gt;Percentage coverage: 100&lt;br&gt;BLAST bit score: 272&lt;br&gt;E-value: 2.6e-71" locus_tag="F8N22_RS21285" class="clusterblast-orf" id="dummy-6_h6_10_11"  />
</g>
<g id="a6_0012"  >
<polygon points="98,85 101,80 101,90 98,85 " style="fill:#15d84d; stroke-width:1; stroke:black; " description="&lt;b&gt;F8N22_RS21290&lt;/b&gt;&lt;br&gt;Lrp/AsnC family transcriptional regulator&lt;br&gt;Location: 55388 - 55858&lt;br&gt;&lt;br&gt;&lt;b&gt;BlastP hit with MCIC6FC_007896&lt;/b&gt;&lt;br&gt;Percentage identity: 96&lt;br&gt;Percentage coverage: 100&lt;br&gt;BLAST bit score: 298&lt;br&gt;E-value: 4.8e-79" locus_tag="F8N22_RS21290" class="clusterblast-orf" id="dummy-6_h6_10_12"  />
</g>
<g id="a6_0013"  >
<polygon points="102,90 107,90 112,85 107,80 102,80 102,90 " style="fill:#154dd8; stroke-width:1; stroke:black; " description="&lt;b&gt;F8N22_RS21295&lt;/b&gt;&lt;br&gt;methionine gamma-lyase&lt;br&gt;Location: 55982 - 57217&lt;br&gt;&lt;br&gt;&lt;b&gt;BlastP hit with MCIC6FC_007897&lt;/b&gt;&lt;br&gt;Percentage identity: 94&lt;br&gt;Percentage coverage: 97&lt;br&gt;BLAST bit score: 753&lt;br&gt;E-value: 1.1e-215" locus_tag="F8N22_RS21295" class="clusterblast-orf" id="dummy-6_h6_10_13"  />
</g>
<g id="a6_0014"  >
<polygon points="113,90 113,90 118,85 113,80 113,80 113,90 " style="fill:#d815bc; stroke-width:1; stroke:black; " description="&lt;b&gt;F8N22_RS21300&lt;/b&gt;&lt;br&gt;helix-turn-helix transcriptional regulator&lt;br&gt;Location: 57364 - 58047&lt;br&gt;&lt;br&gt;&lt;b&gt;BlastP hit with MCIC6FC_007898&lt;/b&gt;&lt;br&gt;Percentage identity: 93&lt;br&gt;Percentage coverage: 98&lt;br&gt;BLAST bit score: 410&lt;br&gt;E-value: 9.7e-113" locus_tag="F8N22_RS21300" class="clusterblast-orf" id="dummy-6_h6_10_14"  />
</g>
<g id="a6_0015"  >
<polygon points="119,85 124,80 133,80 133,90 124,90 119,85 " style="fill:#d8bc15; stroke-width:1; stroke:black; " description="&lt;b&gt;F8N22_RS21305&lt;/b&gt;&lt;br&gt;MacB family efflux pump subunit&lt;br&gt;Location: 58118 - 60076&lt;br&gt;&lt;br&gt;&lt;b&gt;BlastP hit with MCIC6FC_007899&lt;/b&gt;&lt;br&gt;Percentage identity: 97&lt;br&gt;Percentage coverage: 64&lt;br&gt;BLAST bit score: 1205&lt;br&gt;E-value: 0.0" locus_tag="F8N22_RS21305" class="clusterblast-orf" id="dummy-6_h6_10_15"  />
</g>
<g id="a6_0016"  >
<polygon points="134,85 139,80 142,80 142,90 139,90 134,85 " style="fill:#d8bc15; stroke-width:1; stroke:black; " description="&lt;b&gt;F8N22_RS21310&lt;/b&gt;&lt;br&gt;macrolide transporter subunit MacA&lt;br&gt;Location: 60080 - 61231&lt;br&gt;&lt;br&gt;&lt;b&gt;BlastP hit with MCIC6FC_007899&lt;/b&gt;&lt;br&gt;Percentage identity: 96&lt;br&gt;Percentage coverage: 36&lt;br&gt;BLAST bit score: 662&lt;br&gt;E-value: 6.3e-188" locus_tag="F8N22_RS21310" class="clusterblast-orf" id="dummy-6_h6_10_16"  />
</g>
<g id="a6_0017"  >
<polygon points="144,90 146,85 144,80 144,90 " style="fill:white; stroke-width:1; stroke:black; " description="&lt;b&gt;F8N22_RS21315&lt;/b&gt;&lt;br&gt;hypothetical protein&lt;br&gt;Location: 61480 - 61667" locus_tag="F8N22_RS21315" class="clusterblast-orf" id="dummy-6_h6_10_17"  />
</g>
<g id="a6_0018"  >
<polygon points="146,85 151,80 232,80 232,90 151,90 146,85 " style="fill:#15d885; stroke-width:1; stroke:black; " description="&lt;b&gt;F8N22_RS21320&lt;/b&gt;&lt;br&gt;amino acid adenylation domain-containing protein&lt;br&gt;Location: 61735 - 73029&lt;br&gt;&lt;br&gt;&lt;b&gt;BlastP hit with MCIC6FC_007900&lt;/b&gt;&lt;br&gt;Percentage identity: 87&lt;br&gt;Percentage coverage: 47&lt;br&gt;BLAST bit score: 6470&lt;br&gt;E-value: 0.0" locus_tag="F8N22_RS21320" class="clusterblast-orf" id="dummy-6_h6_10_18"  />
</g>
<g id="a6_0019"  >
<polygon points="232,85 237,80 329,80 329,90 237,90 232,85 " style="fill:#15d885; stroke-width:1; stroke:black; " description="&lt;b&gt;F8N22_RS21325&lt;/b&gt;&lt;br&gt;amino acid adenylation domain-containing protein&lt;br&gt;Location: 73026 - 85853&lt;br&gt;&lt;br&gt;&lt;b&gt;BlastP hit with MCIC6FC_007900&lt;/b&gt;&lt;br&gt;Percentage identity: 86&lt;br&gt;Percentage coverage: 54&lt;br&gt;BLAST bit score: 7263&lt;br&gt;E-value: 0.0" locus_tag="F8N22_RS21325" class="clusterblast-orf" id="dummy-6_h6_10_19"  />
</g>
<g id="a6_0020"  >
<polygon points="331,85 336,80 343,80 343,90 336,90 331,85 " style="fill:white; stroke-width:1; stroke:black; " description="&lt;b&gt;F8N22_RS21330&lt;/b&gt;&lt;br&gt;PvdJ/PvdD/PvdP-like protein&lt;br&gt;Location: 86100 - 87725" locus_tag="F8N22_RS21330" class="clusterblast-orf" id="dummy-6_h6_10_20"  />
</g>
<g id="a6_0021"  >
<polygon points="344,90 350,90 355,85 350,80 344,80 344,90 " style="fill:white; stroke-width:1; stroke:black; " description="&lt;b&gt;F8N22_RS21335&lt;/b&gt;&lt;br&gt;membrane dipeptidase&lt;br&gt;Location: 87868 - 89217" locus_tag="F8N22_RS21335" class="clusterblast-orf" id="dummy-6_h6_10_21"  />
</g>
<g id="a6_0022"  >
<polygon points="355,90 359,90 364,85 359,80 355,80 355,90 " style="fill:white; stroke-width:1; stroke:black; " description="&lt;b&gt;F8N22_RS21340&lt;/b&gt;&lt;br&gt;aminotransferase class V-fold PLP-dependent enzyme&lt;br&gt;Location: 89236 - 90507" locus_tag="F8N22_RS21340" class="clusterblast-orf" id="dummy-6_h6_10_22"  />
</g>
<g id="a6_0023"  >
<polygon points="365,90 366,90 371,85 366,80 365,80 365,90 " style="fill:white; stroke-width:1; stroke:black; " description="&lt;b&gt;F8N22_RS21345&lt;/b&gt;&lt;br&gt;formylglycine-generating enzyme family protein&lt;br&gt;Location: 90542 - 91402" locus_tag="F8N22_RS21345" class="clusterblast-orf" id="dummy-6_h6_10_23"  />
</g>
<g id="a6_0024"  >
<polygon points="372,85 377,80 378,80 378,90 377,90 372,85 " style="fill:white; stroke-width:1; stroke:black; " description="&lt;b&gt;F8N22_RS21350&lt;/b&gt;&lt;br&gt;N(5)-hydroxyornithine transformylase PvdF&lt;br&gt;Location: 91528 - 92358" locus_tag="F8N22_RS21350" class="clusterblast-orf" id="dummy-6_h6_10_24"  />
</g>
<g id="a6_0025"  >
<polygon points="380,90 387,90 392,85 387,80 380,80 380,90 " style="fill:white; stroke-width:1; stroke:black; " description="&lt;b&gt;F8N22_RS21355&lt;/b&gt;&lt;br&gt;cyclic peptide export ABC transporter&lt;br&gt;Location: 92559 - 94211" locus_tag="F8N22_RS21355" class="clusterblast-orf" id="dummy-6_h6_10_25"  />
</g>
<g id="a6_0026"  >
<polygon points="394,90 407,90 412,85 407,80 394,80 394,90 " style="fill:white; stroke-width:1; stroke:black; " description="&lt;b&gt;F8N22_RS21360&lt;/b&gt;&lt;br&gt;TonB-dependent siderophore receptor&lt;br&gt;Location: 94368 - 96749" locus_tag="F8N22_RS21360" class="clusterblast-orf" id="dummy-6_h6_10_26"  />
</g>
<g id="a6_0027"  >
<polygon points="413,85 418,80 491,80 491,90 418,90 413,85 " style="fill:#15d885; stroke-width:1; stroke:black; " description="&lt;b&gt;F8N22_RS21365&lt;/b&gt;&lt;br&gt;amino acid adenylation domain-containing protein&lt;br&gt;Location: 96903 - 107255&lt;br&gt;&lt;br&gt;&lt;b&gt;BlastP hit with MCIC6FC_007900&lt;/b&gt;&lt;br&gt;Percentage identity: 39&lt;br&gt;Percentage coverage: 40&lt;br&gt;BLAST bit score: 1851&lt;br&gt;E-value: 0.0" locus_tag="F8N22_RS21365" class="clusterblast-orf" id="dummy-6_h6_10_27"  />
</g>
<g id="a6_0028"  >
<polygon points="492,85 497,80 551,80 551,90 497,90 492,85 " style="fill:#15d885; stroke-width:1; stroke:black; " description="&lt;b&gt;F8N22_RS21370&lt;/b&gt;&lt;br&gt;amino acid adenylation domain-containing protein&lt;br&gt;Location: 107329 - 115110&lt;br&gt;&lt;br&gt;&lt;b&gt;BlastP hit with MCIC6FC_007900&lt;/b&gt;&lt;br&gt;Percentage identity: 36&lt;br&gt;Percentage coverage: 32&lt;br&gt;BLAST bit score: 1309&lt;br&gt;E-value: 0.0" locus_tag="F8N22_RS21370" class="clusterblast-orf" id="dummy-6_h6_10_28"  />
</g>
<g id="a6_0029"  >
<polygon points="551,85 556,80 634,80 634,90 556,90 551,85 " style="fill:#15d885; stroke-width:1; stroke:black; " description="&lt;b&gt;F8N22_RS21375&lt;/b&gt;&lt;br&gt;amino acid adenylation domain-containing protein&lt;br&gt;Location: 115114 - 126114&lt;br&gt;&lt;br&gt;&lt;b&gt;BlastP hit with MCIC6FC_007900&lt;/b&gt;&lt;br&gt;Percentage identity: 35&lt;br&gt;Percentage coverage: 46&lt;br&gt;BLAST bit score: 1768&lt;br&gt;E-value: 0.0" locus_tag="F8N22_RS21375" class="clusterblast-orf" id="dummy-6_h6_10_29"  />
</g>
<g id="a6_0030"  >
<polygon points="636,90 637,85 636,80 636,90 " style="fill:white; stroke-width:1; stroke:black; " description="&lt;b&gt;F8N22_RS21380&lt;/b&gt;&lt;br&gt;type II toxin-antitoxin system HicA family toxin&lt;br&gt;Location: 126324 - 126392" locus_tag="F8N22_RS21380" class="clusterblast-orf" id="dummy-6_h6_10_30"  />
</g>
<g id="a6_0031"  >
<polygon points="637,85 642,80 646,80 646,90 642,90 637,85 " style="fill:white; stroke-width:1; stroke:black; " description="&lt;b&gt;F8N22_RS21385&lt;/b&gt;&lt;br&gt;MFS transporter&lt;br&gt;Location: 126449 - 127621" locus_tag="F8N22_RS21385" class="clusterblast-orf" id="dummy-6_h6_10_31"  />
</g>
<g id="a6_0032"  >
<polygon points="646,85 651,80 656,80 656,90 651,90 646,85 " style="fill:white; stroke-width:1; stroke:black; " description="&lt;b&gt;F8N22_RS21390&lt;/b&gt;&lt;br&gt;MATE family efflux transporter&lt;br&gt;Location: 127662 - 129017" locus_tag="F8N22_RS21390" class="clusterblast-orf" id="dummy-6_h6_10_32"  />
</g>
<g id="a6_0033"  >
<polygon points="657,85 662,80 664,80 664,90 662,90 657,85 " style="fill:white; stroke-width:1; stroke:black; " description="&lt;b&gt;F8N22_RS21395&lt;/b&gt;&lt;br&gt;ATP-dependent Clp protease ATP-binding subunit&lt;br&gt;Location: 129055 - 130038" locus_tag="F8N22_RS21395" class="clusterblast-orf" id="dummy-6_h6_10_33"  />
</g>
<g id="a6_0034"  >
<polygon points="664,85 669,80 672,80 672,90 669,90 664,85 " style="fill:white; stroke-width:1; stroke:black; " description="&lt;b&gt;F8N22_RS21400&lt;/b&gt;&lt;br&gt;aliphatic amidase&lt;br&gt;Location: 130042 - 131085" locus_tag="F8N22_RS21400" class="clusterblast-orf" id="dummy-6_h6_10_34"  />
</g>
<g id="a6_0035"  >
<polygon points="672,85 675,80 675,90 672,85 " style="fill:white; stroke-width:1; stroke:black; " description="&lt;b&gt;F8N22_RS21405&lt;/b&gt;&lt;br&gt;zinc ribbon domain-containing protein&lt;br&gt;Location: 131101 - 131448" locus_tag="F8N22_RS21405" class="clusterblast-orf" id="dummy-6_h6_10_35"  />
</g>
<g id="a6_0036"  >
<polygon points="675,85 680,80 684,80 684,90 680,90 675,85 " style="fill:white; stroke-width:1; stroke:black; " description="&lt;b&gt;F8N22_RS21410&lt;/b&gt;&lt;br&gt;acetamidase/formamidase family protein&lt;br&gt;Location: 131451 - 132680" locus_tag="F8N22_RS21410" class="clusterblast-orf" id="dummy-6_h6_10_36"  />
</g>
<g id="a6_0037"  >
<polygon points="686,90 693,90 698,85 693,80 686,80 686,90 " style="fill:white; stroke-width:1; stroke:black; " description="&lt;b&gt;F8N22_RS21415&lt;/b&gt;&lt;br&gt;methyl-accepting chemotaxis protein&lt;br&gt;Location: 132913 - 134553" locus_tag="F8N22_RS21415" class="clusterblast-orf" id="dummy-6_h6_10_37"  />
</g>
<g id="a6_0038"  >
<polygon points="699,85 704,80 708,80 708,90 704,90 699,85 " style="fill:white; stroke-width:1; stroke:black; " description="&lt;b&gt;F8N22_RS21420&lt;/b&gt;&lt;br&gt;hypothetical protein&lt;br&gt;Location: 134690 - 135796" locus_tag="F8N22_RS21420" class="clusterblast-orf" id="dummy-6_h6_10_38"  />
</g>
<g id="a6_0039"  >
<polygon points="709,85 714,80 714,80 714,90 714,90 709,85 " style="fill:white; stroke-width:1; stroke:black; " description="&lt;b&gt;F8N22_RS21425&lt;/b&gt;&lt;br&gt;urea ABC transporter ATP-binding subunit UrtE&lt;br&gt;Location: 135973 - 136662" locus_tag="F8N22_RS21425" class="clusterblast-orf" id="dummy-6_h6_10_39"  />
</g>
<g id="a6_0040"  >
<polygon points="715,85 720,80 720,80 720,90 720,90 715,85 " style="fill:white; stroke-width:1; stroke:black; " description="&lt;b&gt;F8N22_RS21430&lt;/b&gt;&lt;br&gt;urea ABC transporter ATP-binding protein UrtD&lt;br&gt;Location: 136673 - 137431" locus_tag="F8N22_RS21430" class="clusterblast-orf" id="dummy-6_h6_10_40"  />
</g>
<g id="a6_0041"  >
<polygon points="720,85 725,80 729,80 729,90 725,90 720,85 " style="fill:white; stroke-width:1; stroke:black; " description="&lt;b&gt;F8N22_RS21435&lt;/b&gt;&lt;br&gt;urea ABC transporter permease subunit UrtC&lt;br&gt;Location: 137428 - 138591" locus_tag="F8N22_RS21435" class="clusterblast-orf" id="dummy-6_h6_10_41"  />
</g>
<g id="a6_0042"  >
<polygon points="729,85 734,80 736,80 736,90 734,90 729,85 " style="fill:white; stroke-width:1; stroke:black; " description="&lt;b&gt;F8N22_RS21440&lt;/b&gt;&lt;br&gt;urea ABC transporter permease subunit UrtB&lt;br&gt;Location: 138602 - 139483" locus_tag="F8N22_RS21440" class="clusterblast-orf" id="dummy-6_h6_10_42"  />
</g>
<g id="a6_0043"  >
<polygon points="737,85 742,80 747,80 747,90 742,90 737,85 " style="fill:white; stroke-width:1; stroke:black; " description="&lt;b&gt;F8N22_RS21445&lt;/b&gt;&lt;br&gt;urea ABC transporter substrate-binding protein&lt;br&gt;Location: 139692 - 140900" locus_tag="F8N22_RS21445" class="clusterblast-orf" id="dummy-6_h6_10_43"  />
</g>
<g id="a6_0044"  >
<polygon points="749,90 770,90 775,85 770,80 749,80 749,90 " style="fill:white; stroke-width:1; stroke:black; " description="&lt;b&gt;F8N22_RS21450&lt;/b&gt;&lt;br&gt;response regulator&lt;br&gt;Location: 141215 - 144598" locus_tag="F8N22_RS21450" class="clusterblast-orf" id="dummy-6_h6_10_44"  />
</g>
<g id="a6_0045"  >
<polygon points="774,90 775,90 780,85 775,80 774,80 774,90 " style="fill:white; stroke-width:1; stroke:black; " description="&lt;b&gt;F8N22_RS21455&lt;/b&gt;&lt;br&gt;response regulator transcription factor&lt;br&gt;Location: 144573 - 145238" locus_tag="F8N22_RS21455" class="clusterblast-orf" id="dummy-6_h6_10_45"  />
</g>
</svg>
