<svg xmlns="http://www.w3.org/2000/svg" xmlns:xlink="http://www.w3.org/1999/xlink" version="1.1" x="0" y="0" height="230" width="800" viewBox="0 0 800 230" preserveAspectRatio="none"  >
<g label="Query sequence" class="clusterblast-cluster"  >
<text x="5" y="20" class="clusterblast-acc"  >
Query sequence</text>
<line x1="10" y1="35" x2="778.0" y2="35" style="stroke-width:1; stroke:grey; "  />
<polygon points="7,40 14,40 19,35 14,30 7,30 7,40 " style="fill:#d81515; stroke-width:1; stroke:black; " description="&lt;b&gt;MCIC6FC_015386&lt;/b&gt;&lt;br&gt;hypothetical protein&lt;br&gt;Location: 35482 - 36303" locus_tag="MCIC6FC_015386" class="clusterblast-orf" id="dummy-1_q0_0_all"  />
<polygon points="20,35 25,30 63,30 63,40 25,40 20,35 " style="fill:#56d815; stroke-width:1; stroke:black; " description="&lt;b&gt;MCIC6FC_015387&lt;/b&gt;&lt;br&gt;hypothetical protein&lt;br&gt;Location: 36361 - 39224" locus_tag="MCIC6FC_015387" class="clusterblast-orf" id="dummy-1_q1_0_all"  />
<polygon points="65,40 90,40 95,35 90,30 65,30 65,40 " style="fill:#1597d8; stroke-width:1; stroke:black; " description="&lt;b&gt;MCIC6FC_015388&lt;/b&gt;&lt;br&gt;hypothetical protein&lt;br&gt;Location: 39319 - 41380" locus_tag="MCIC6FC_015388" class="clusterblast-orf" id="dummy-1_q2_0_all"  />
<polygon points="96,35 101,30 153,30 153,40 101,40 96,35 " style="fill:#9715d8; stroke-width:1; stroke:black; " description="&lt;b&gt;MCIC6FC_015389&lt;/b&gt;&lt;br&gt;hypothetical protein&lt;br&gt;Location: 41444 - 45243" locus_tag="MCIC6FC_015389" class="clusterblast-orf" id="dummy-1_q3_0_all"  />
<polygon points="154,35 159,30 196,30 196,40 159,40 154,35 " style="fill:#d85615; stroke-width:1; stroke:black; " description="&lt;b&gt;MCIC6FC_015390&lt;/b&gt;&lt;br&gt;hypothetical protein&lt;br&gt;Location: 45314 - 48104" locus_tag="MCIC6FC_015390" class="clusterblast-orf" id="dummy-1_q4_0_all"  />
<polygon points="196,35 201,30 236,30 236,40 201,40 196,35 " style="fill:#15d815; stroke-width:1; stroke:black; " description="&lt;b&gt;MCIC6FC_015391&lt;/b&gt;&lt;br&gt;hypothetical protein&lt;br&gt;Location: 48107 - 50772" locus_tag="MCIC6FC_015391" class="clusterblast-orf" id="dummy-1_q5_0_all"  />
<polygon points="238,40 242,40 247,35 242,30 238,30 238,40 " style="fill:#1556d8; stroke-width:1; stroke:black; " description="&lt;b&gt;MCIC6FC_015392&lt;/b&gt;&lt;br&gt;hypothetical protein&lt;br&gt;Location: 50925 - 51549" locus_tag="MCIC6FC_015392" class="clusterblast-orf" id="dummy-1_q6_0_all"  />
<polygon points="250,40 256,40 261,35 256,30 250,30 250,40 " style="fill:#d815d8; stroke-width:1; stroke:black; " description="&lt;b&gt;MCIC6FC_015393&lt;/b&gt;&lt;br&gt;hypothetical protein&lt;br&gt;Location: 51705 - 52431" locus_tag="MCIC6FC_015393" class="clusterblast-orf" id="dummy-1_q7_0_all"  />
<polygon points="263,35 268,30 272,30 272,40 268,40 263,35 " style="fill:#d89715; stroke-width:1; stroke:black; " description="&lt;b&gt;MCIC6FC_015394&lt;/b&gt;&lt;br&gt;hypothetical protein&lt;br&gt;Location: 52619 - 53210" locus_tag="MCIC6FC_015394" class="clusterblast-orf" id="dummy-1_q8_0_all"  />
<polygon points="277,40 283,40 288,35 283,30 277,30 277,40 " style="fill:#15d856; stroke-width:1; stroke:black; " description="&lt;b&gt;MCIC6FC_015395&lt;/b&gt;&lt;br&gt;hypothetical protein&lt;br&gt;Location: 53508 - 54261" locus_tag="MCIC6FC_015395" class="clusterblast-orf" id="dummy-1_q9_0_all"  />
<polygon points="289,40 477,40 482,35 477,30 289,30 289,40 " style="fill:#1515d8; stroke-width:1; stroke:black; " description="&lt;b&gt;MCIC6FC_015396&lt;/b&gt;&lt;br&gt;hypothetical protein&lt;br&gt;Location: 54312 - 67209" locus_tag="MCIC6FC_015396" class="clusterblast-orf" id="dummy-1_q10_0_all"  />
<polygon points="485,40 506,40 511,35 506,30 485,30 485,40 " style="fill:white; stroke-width:1; stroke:black; " description="&lt;b&gt;MCIC6FC_015397&lt;/b&gt;&lt;br&gt;hypothetical protein&lt;br&gt;Location: 67444 - 69197" locus_tag="MCIC6FC_015397" class="clusterblast-orf" id="dummy-1_q11_0_all"  />
<polygon points="514,35 519,30 564,30 564,40 519,40 514,35 " style="fill:#d81597; stroke-width:1; stroke:black; " description="&lt;b&gt;MCIC6FC_015398&lt;/b&gt;&lt;br&gt;hypothetical protein&lt;br&gt;Location: 69397 - 72707" locus_tag="MCIC6FC_015398" class="clusterblast-orf" id="dummy-1_q12_0_all"  />
<polygon points="567,40 637,40 642,35 637,30 567,30 567,40 " style="fill:#d8d815; stroke-width:1; stroke:black; " description="&lt;b&gt;MCIC6FC_015399&lt;/b&gt;&lt;br&gt;hypothetical protein&lt;br&gt;Location: 72884 - 77959" locus_tag="MCIC6FC_015399" class="clusterblast-orf" id="dummy-1_q13_0_all"  />
<polygon points="644,40 647,35 644,30 644,40 " style="fill:#15d897; stroke-width:1; stroke:black; " description="&lt;b&gt;MCIC6FC_015400&lt;/b&gt;&lt;br&gt;hypothetical protein&lt;br&gt;Location: 78042 - 78267" locus_tag="MCIC6FC_015400" class="clusterblast-orf" id="dummy-1_q14_0_all"  />
<polygon points="649,35 654,30 705,30 705,40 654,40 649,35 " style="fill:#5615d8; stroke-width:1; stroke:black; " description="&lt;b&gt;MCIC6FC_015401&lt;/b&gt;&lt;br&gt;hypothetical protein&lt;br&gt;Location: 78379 - 82156" locus_tag="MCIC6FC_015401" class="clusterblast-orf" id="dummy-1_q15_0_all"  />
<polygon points="709,35 714,30 728,30 728,40 714,40 709,35 " style="fill:#d81556; stroke-width:1; stroke:black; " description="&lt;b&gt;MCIC6FC_015402&lt;/b&gt;&lt;br&gt;hypothetical protein&lt;br&gt;Location: 82401 - 83691" locus_tag="MCIC6FC_015402" class="clusterblast-orf" id="dummy-1_q16_0_all"  />
<polygon points="731,35 736,30 741,30 741,40 736,40 731,35 " style="fill:#97d815; stroke-width:1; stroke:black; " description="&lt;b&gt;MCIC6FC_015403&lt;/b&gt;&lt;br&gt;hypothetical protein&lt;br&gt;Location: 83886 - 84522" locus_tag="MCIC6FC_015403" class="clusterblast-orf" id="dummy-1_q17_0_all"  />
<polygon points="742,35 747,30 772,30 772,40 747,40 742,35 " style="fill:#15d8d8; stroke-width:1; stroke:black; " description="&lt;b&gt;MCIC6FC_015404&lt;/b&gt;&lt;br&gt;hypothetical protein&lt;br&gt;Location: 84618 - 86626" locus_tag="MCIC6FC_015404" class="clusterblast-orf" id="dummy-1_q18_0_all"  />
</g>
<g label="NZ_AZVU01000002" description="NZ_AZVU01000002 (299617-352514): Pseudomonas sp. LAMO17WK12:I2 D883DRAFT scaf... (77% of genes show similarity), NRPS" class="clusterblast-cluster"  >
<text x="5" y="70" class="clusterblast-acc"  >
<a xlink:href="https://antismash-db.secondarymetabolites.org/area.html?record=NZ_AZVU01000002&amp;start=299617&amp;end=352514" target="_blank">NZ_AZVU01000002 (299617-352514)</a>: Pseudomonas sp. LAMO17WK12:I2 D883DRAFT scaf... (77% of genes show similarity), NRPS</text>
<line x1="10" y1="85" x2="778.0" y2="85" style="stroke-width:1; stroke:grey; "  />
</g>
<g id="a1_000"  >
<polygon points="0,90 4,85 0,80 0,90 " style="fill:white; stroke-width:1; stroke:black; " description="&lt;b&gt;D883_RS0104355&lt;/b&gt;&lt;br&gt;hypothetical protein&lt;br&gt;Location: 300277 - 300585" locus_tag="D883_RS0104355" class="clusterblast-orf" id="dummy-1_h1_9_0"  />
</g>
<g id="a1_001"  >
<polygon points="4,90 4,90 9,85 4,80 4,80 4,90 " style="fill:white; stroke-width:1; stroke:black; " description="&lt;b&gt;D883_RS0104360&lt;/b&gt;&lt;br&gt;hypothetical protein&lt;br&gt;Location: 300610 - 300936" locus_tag="D883_RS0104360" class="clusterblast-orf" id="dummy-1_h1_9_1"  />
</g>
<g id="a1_002"  >
<polygon points="10,90 13,90 18,85 13,80 10,80 10,90 " style="fill:white; stroke-width:1; stroke:black; " description="&lt;b&gt;D883_RS0104365&lt;/b&gt;&lt;br&gt;hypothetical protein&lt;br&gt;Location: 300970 - 301515" locus_tag="D883_RS0104365" class="clusterblast-orf" id="dummy-1_h1_9_2"  />
</g>
<g id="a1_003"  >
<polygon points="19,90 28,90 33,85 28,80 19,80 19,90 " style="fill:#d81515; stroke-width:1; stroke:black; " description="&lt;b&gt;D883_RS0104370&lt;/b&gt;&lt;br&gt;lipid kinase YegS&lt;br&gt;Location: 301612 - 302532&lt;br&gt;&lt;br&gt;&lt;b&gt;BlastP hit with MCIC6FC_015386&lt;/b&gt;&lt;br&gt;Percentage identity: 89&lt;br&gt;Percentage coverage: 100&lt;br&gt;BLAST bit score: 466&lt;br&gt;E-value: 1.7e-129" locus_tag="D883_RS0104370" class="clusterblast-orf" id="dummy-1_h1_9_3"  />
</g>
<g id="a1_004"  >
<polygon points="33,85 38,80 42,80 42,90 38,90 33,85 " style="fill:#56d815; stroke-width:1; stroke:black; " description="&lt;b&gt;D883_RS0104375&lt;/b&gt;&lt;br&gt;response regulator transcription factor&lt;br&gt;Location: 302491 - 303150&lt;br&gt;&lt;br&gt;&lt;b&gt;BlastP hit with MCIC6FC_015387&lt;/b&gt;&lt;br&gt;Percentage identity: 79&lt;br&gt;Percentage coverage: 30&lt;br&gt;BLAST bit score: 288&lt;br&gt;E-value: 1.6e-75" locus_tag="D883_RS0104375" class="clusterblast-orf" id="dummy-1_h1_9_4"  />
</g>
<g id="a1_005"  >
<polygon points="42,85 47,80 56,80 56,90 47,90 42,85 " style="fill:#56d815; stroke-width:1; stroke:black; " description="&lt;b&gt;D883_RS0104380&lt;/b&gt;&lt;br&gt;sensor histidine kinase&lt;br&gt;Location: 303147 - 304040&lt;br&gt;&lt;br&gt;&lt;b&gt;BlastP hit with MCIC6FC_015387&lt;/b&gt;&lt;br&gt;Percentage identity: 88&lt;br&gt;Percentage coverage: 44&lt;br&gt;BLAST bit score: 502&lt;br&gt;E-value: 5.4e-140" locus_tag="D883_RS0104380" class="clusterblast-orf" id="dummy-1_h1_9_5"  />
</g>
<g id="a1_006"  >
<polygon points="61,85 66,80 68,80 68,90 66,90 61,85 " style="fill:#56d815; stroke-width:1; stroke:black; " description="&lt;b&gt;D883_RS0104385&lt;/b&gt;&lt;br&gt;hypothetical protein&lt;br&gt;Location: 304396 - 304845&lt;br&gt;&lt;br&gt;&lt;b&gt;BlastP hit with MCIC6FC_015387&lt;/b&gt;&lt;br&gt;Percentage identity: 81&lt;br&gt;Percentage coverage: 21&lt;br&gt;BLAST bit score: 219&lt;br&gt;E-value: 9.2e-55" locus_tag="D883_RS0104385" class="clusterblast-orf" id="dummy-1_h1_9_6"  />
</g>
<g id="a1_007"  >
<polygon points="76,90 85,90 90,85 85,80 76,80 76,90 " style="fill:#1597d8; stroke-width:1; stroke:black; " description="&lt;b&gt;D883_RS0104390&lt;/b&gt;&lt;br&gt;chemotaxis protein CheV&lt;br&gt;Location: 305396 - 306331&lt;br&gt;&lt;br&gt;&lt;b&gt;BlastP hit with MCIC6FC_015388&lt;/b&gt;&lt;br&gt;Percentage identity: 98&lt;br&gt;Percentage coverage: 50&lt;br&gt;BLAST bit score: 594&lt;br&gt;E-value: 9.7e-168" locus_tag="D883_RS0104390" class="clusterblast-orf" id="dummy-1_h1_9_7"  />
</g>
<g id="a1_008"  >
<polygon points="91,90 98,90 103,85 98,80 91,80 91,90 " style="fill:#1597d8; stroke-width:1; stroke:black; " description="&lt;b&gt;D883_RS0104395&lt;/b&gt;&lt;br&gt;MOSC domain-containing protein&lt;br&gt;Location: 306371 - 307177&lt;br&gt;&lt;br&gt;&lt;b&gt;BlastP hit with MCIC6FC_015388&lt;/b&gt;&lt;br&gt;Percentage identity: 86&lt;br&gt;Percentage coverage: 44&lt;br&gt;BLAST bit score: 477&lt;br&gt;E-value: 2.9e-132" locus_tag="D883_RS0104395" class="clusterblast-orf" id="dummy-1_h1_9_8"  />
</g>
<g id="a1_009"  >
<polygon points="104,85 108,80 108,90 104,85 " style="fill:white; stroke-width:1; stroke:black; " description="&lt;b&gt;D883_RS0104400&lt;/b&gt;&lt;br&gt;pyrimidine/purine nucleoside phosphorylase&lt;br&gt;Location: 307241 - 307525" locus_tag="D883_RS0104400" class="clusterblast-orf" id="dummy-1_h1_9_9"  />
</g>
<g id="a1_0010"  >
<polygon points="109,85 114,80 117,80 117,90 114,90 109,85 " style="fill:#9715d8; stroke-width:1; stroke:black; " description="&lt;b&gt;D883_RS0104405&lt;/b&gt;&lt;br&gt;exonuclease&lt;br&gt;Location: 307590 - 308132&lt;br&gt;&lt;br&gt;&lt;b&gt;BlastP hit with MCIC6FC_015389&lt;/b&gt;&lt;br&gt;Percentage identity: 95&lt;br&gt;Percentage coverage: 16&lt;br&gt;BLAST bit score: 361&lt;br&gt;E-value: 4.3e-97" locus_tag="D883_RS0104405" class="clusterblast-orf" id="dummy-1_h1_9_10"  />
</g>
<g id="a1_0011"  >
<polygon points="118,85 123,80 146,80 146,90 123,90 118,85 " style="fill:#9715d8; stroke-width:1; stroke:black; " description="&lt;b&gt;D883_RS0104410&lt;/b&gt;&lt;br&gt;acetyl/propionyl/methylcrotonyl-CoA carboxylase subunit alpha&lt;br&gt;Location: 308207 - 310090&lt;br&gt;&lt;br&gt;&lt;b&gt;BlastP hit with MCIC6FC_015389&lt;/b&gt;&lt;br&gt;Percentage identity: 77&lt;br&gt;Percentage coverage: 53&lt;br&gt;BLAST bit score: 917&lt;br&gt;E-value: 1.6e-264" locus_tag="D883_RS0104410" class="clusterblast-orf" id="dummy-1_h1_9_11"  />
</g>
<g id="a1_0012"  >
<polygon points="158,85 163,80 169,80 169,90 163,90 158,85 " style="fill:#9715d8; stroke-width:1; stroke:black; " description="&lt;b&gt;D883_RS0104415&lt;/b&gt;&lt;br&gt;enoyl-CoA hydratase/isomerase family protein&lt;br&gt;Location: 310870 - 311631&lt;br&gt;&lt;br&gt;&lt;b&gt;BlastP hit with MCIC6FC_015389&lt;/b&gt;&lt;br&gt;Percentage identity: 86&lt;br&gt;Percentage coverage: 20&lt;br&gt;BLAST bit score: 369&lt;br&gt;E-value: 1.6e-99" locus_tag="D883_RS0104415" class="clusterblast-orf" id="dummy-1_h1_9_12"  />
</g>
<g id="a1_0013"  >
<polygon points="169,85 174,80 187,80 187,90 174,90 169,85 " style="fill:#d85615; stroke-width:1; stroke:black; " description="&lt;b&gt;D883_RS0104420&lt;/b&gt;&lt;br&gt;acyl-CoA dehydrogenase family protein&lt;br&gt;Location: 311628 - 312785&lt;br&gt;&lt;br&gt;&lt;b&gt;BlastP hit with MCIC6FC_015390&lt;/b&gt;&lt;br&gt;Percentage identity: 98&lt;br&gt;Percentage coverage: 41&lt;br&gt;BLAST bit score: 762&lt;br&gt;E-value: 4e-218" locus_tag="D883_RS0104420" class="clusterblast-orf" id="dummy-1_h1_9_13"  />
</g>
<g id="a1_0014"  >
<polygon points="187,85 192,80 211,80 211,90 192,90 187,85 " style="fill:#d85615; stroke-width:1; stroke:black; " description="&lt;b&gt;D883_RS0104425&lt;/b&gt;&lt;br&gt;acyl-CoA carboxylase subunit beta&lt;br&gt;Location: 312802 - 314418&lt;br&gt;&lt;br&gt;&lt;b&gt;BlastP hit with MCIC6FC_015390&lt;/b&gt;&lt;br&gt;Percentage identity: 93&lt;br&gt;Percentage coverage: 58&lt;br&gt;BLAST bit score: 983&lt;br&gt;E-value: 1.4e-284" locus_tag="D883_RS0104425" class="clusterblast-orf" id="dummy-1_h1_9_14"  />
</g>
<g id="a1_0015"  >
<polygon points="213,85 218,80 239,80 239,90 218,90 213,85 " style="fill:#15d815; stroke-width:1; stroke:black; " description="&lt;b&gt;D883_RS0104435&lt;/b&gt;&lt;br&gt;DUF1446 domain-containing protein&lt;br&gt;Location: 314520 - 316298&lt;br&gt;&lt;br&gt;&lt;b&gt;BlastP hit with MCIC6FC_015391&lt;/b&gt;&lt;br&gt;Percentage identity: 91&lt;br&gt;Percentage coverage: 67&lt;br&gt;BLAST bit score: 1083&lt;br&gt;E-value: 0.0" locus_tag="D883_RS0104435" class="clusterblast-orf" id="dummy-1_h1_9_15"  />
</g>
<g id="a1_0016"  >
<polygon points="241,90 246,90 251,85 246,80 241,80 241,90 " style="fill:#1556d8; stroke-width:1; stroke:black; " description="&lt;b&gt;D883_RS0104440&lt;/b&gt;&lt;br&gt;TetR family transcriptional regulator&lt;br&gt;Location: 316452 - 317075&lt;br&gt;&lt;br&gt;&lt;b&gt;BlastP hit with MCIC6FC_015392&lt;/b&gt;&lt;br&gt;Percentage identity: 94&lt;br&gt;Percentage coverage: 100&lt;br&gt;BLAST bit score: 382&lt;br&gt;E-value: 2.5e-104" locus_tag="D883_RS0104440" class="clusterblast-orf" id="dummy-1_h1_9_16"  />
</g>
<g id="a1_0017"  >
<polygon points="252,90 259,90 264,85 259,80 252,80 252,90 " style="fill:#d815d8; stroke-width:1; stroke:black; " description="&lt;b&gt;D883_RS0104445&lt;/b&gt;&lt;br&gt;transporter substrate-binding domain-containing protein&lt;br&gt;Location: 317169 - 317957&lt;br&gt;&lt;br&gt;&lt;b&gt;BlastP hit with MCIC6FC_015393&lt;/b&gt;&lt;br&gt;Percentage identity: 92&lt;br&gt;Percentage coverage: 100&lt;br&gt;BLAST bit score: 459&lt;br&gt;E-value: 2.5e-127" locus_tag="D883_RS0104445" class="clusterblast-orf" id="dummy-1_h1_9_17"  />
</g>
<g id="a1_0018"  >
<polygon points="264,85 269,80 272,80 272,90 269,90 264,85 " style="fill:#d89715; stroke-width:1; stroke:black; " description="&lt;b&gt;D883_RS0104450&lt;/b&gt;&lt;br&gt;RNA polymerase factor sigma-70&lt;br&gt;Location: 317960 - 318511&lt;br&gt;&lt;br&gt;&lt;b&gt;BlastP hit with MCIC6FC_015394&lt;/b&gt;&lt;br&gt;Percentage identity: 98&lt;br&gt;Percentage coverage: 93&lt;br&gt;BLAST bit score: 361&lt;br&gt;E-value: 7.5e-98" locus_tag="D883_RS0104450" class="clusterblast-orf" id="dummy-1_h1_9_18"  />
</g>
<g id="a1_0019"  >
<polygon points="277,90 283,90 288,85 283,80 277,80 277,90 " style="fill:#15d856; stroke-width:1; stroke:black; " description="&lt;b&gt;D883_RS0104455&lt;/b&gt;&lt;br&gt;thioesterase&lt;br&gt;Location: 318814 - 319566&lt;br&gt;&lt;br&gt;&lt;b&gt;BlastP hit with MCIC6FC_015395&lt;/b&gt;&lt;br&gt;Percentage identity: 90&lt;br&gt;Percentage coverage: 100&lt;br&gt;BLAST bit score: 458&lt;br&gt;E-value: 3.4e-127" locus_tag="D883_RS0104455" class="clusterblast-orf" id="dummy-1_h1_9_19"  />
</g>
<g id="a1_0020"  >
<polygon points="289,90 477,90 482,85 477,80 289,80 289,90 " style="fill:#1515d8; stroke-width:1; stroke:black; " description="&lt;b&gt;D883_RS0104460&lt;/b&gt;&lt;br&gt;non-ribosomal peptide synthetase&lt;br&gt;Location: 319618 - 332514&lt;br&gt;&lt;br&gt;&lt;b&gt;BlastP hit with MCIC6FC_015396&lt;/b&gt;&lt;br&gt;Percentage identity: 93&lt;br&gt;Percentage coverage: 100&lt;br&gt;BLAST bit score: 8050&lt;br&gt;E-value: 0.0" locus_tag="D883_RS0104460" class="clusterblast-orf" id="dummy-1_h1_9_20"  />
</g>
<g id="a1_0021"  >
<polygon points="483,85 488,80 494,80 494,90 488,90 483,85 " style="fill:#d81597; stroke-width:1; stroke:black; " description="&lt;b&gt;D883_RS0104465&lt;/b&gt;&lt;br&gt;thiol:disulfide interchange protein DsbG&lt;br&gt;Location: 332578 - 333339&lt;br&gt;&lt;br&gt;&lt;b&gt;BlastP hit with MCIC6FC_015398&lt;/b&gt;&lt;br&gt;Percentage identity: 95&lt;br&gt;Percentage coverage: 24&lt;br&gt;BLAST bit score: 431&lt;br&gt;E-value: 2.4e-118" locus_tag="D883_RS0104465" class="clusterblast-orf" id="dummy-1_h1_9_21"  />
</g>
<g id="a1_0022"  >
<polygon points="494,85 499,80 506,80 506,90 499,90 494,85 " style="fill:#d81597; stroke-width:1; stroke:black; " description="&lt;b&gt;D883_RS0104470&lt;/b&gt;&lt;br&gt;TlpA family protein disulfide reductase&lt;br&gt;Location: 333315 - 334166&lt;br&gt;&lt;br&gt;&lt;b&gt;BlastP hit with MCIC6FC_015398&lt;/b&gt;&lt;br&gt;Percentage identity: 93&lt;br&gt;Percentage coverage: 24&lt;br&gt;BLAST bit score: 478&lt;br&gt;E-value: 1.7e-132" locus_tag="D883_RS0104470" class="clusterblast-orf" id="dummy-1_h1_9_22"  />
</g>
<g id="a1_0023"  >
<polygon points="506,85 511,80 532,80 532,90 511,90 506,85 " style="fill:#d81597; stroke-width:1; stroke:black; " description="&lt;b&gt;D883_RS0104475&lt;/b&gt;&lt;br&gt;protein-disulfide reductase DsbD&lt;br&gt;Location: 334166 - 335893&lt;br&gt;&lt;br&gt;&lt;b&gt;BlastP hit with MCIC6FC_015398&lt;/b&gt;&lt;br&gt;Percentage identity: 90&lt;br&gt;Percentage coverage: 51&lt;br&gt;BLAST bit score: 960&lt;br&gt;E-value: 1.5e-277" locus_tag="D883_RS0104475" class="clusterblast-orf" id="dummy-1_h1_9_23"  />
</g>
<g id="a1_0024"  >
<polygon points="535,90 540,90 545,85 540,80 535,80 535,90 " style="fill:#d8d815; stroke-width:1; stroke:black; " description="&lt;b&gt;D883_RS0104480&lt;/b&gt;&lt;br&gt;response regulator&lt;br&gt;Location: 336070 - 336750&lt;br&gt;&lt;br&gt;&lt;b&gt;BlastP hit with MCIC6FC_015399&lt;/b&gt;&lt;br&gt;Percentage identity: 96&lt;br&gt;Percentage coverage: 15&lt;br&gt;BLAST bit score: 413&lt;br&gt;E-value: 1.2e-112" locus_tag="D883_RS0104480" class="clusterblast-orf" id="dummy-1_h1_9_24"  />
</g>
<g id="a1_0025"  >
<polygon points="545,90 560,90 565,85 560,80 545,80 545,90 " style="fill:#d8d815; stroke-width:1; stroke:black; " description="&lt;b&gt;D883_RS0104485&lt;/b&gt;&lt;br&gt;two-component sensor histidine kinase&lt;br&gt;Location: 336747 - 338069&lt;br&gt;&lt;br&gt;&lt;b&gt;BlastP hit with MCIC6FC_015399&lt;/b&gt;&lt;br&gt;Percentage identity: 91&lt;br&gt;Percentage coverage: 30&lt;br&gt;BLAST bit score: 742&lt;br&gt;E-value: 1.1e-211" locus_tag="D883_RS0104485" class="clusterblast-orf" id="dummy-1_h1_9_25"  />
</g>
<g id="a1_0026"  >
<polygon points="567,90 573,90 578,85 573,80 567,80 567,90 " style="fill:#d8d815; stroke-width:1; stroke:black; " description="&lt;b&gt;D883_RS0104490&lt;/b&gt;&lt;br&gt;N-acetylmuramoyl-L-alanine amidase&lt;br&gt;Location: 338193 - 338960&lt;br&gt;&lt;br&gt;&lt;b&gt;BlastP hit with MCIC6FC_015399&lt;/b&gt;&lt;br&gt;Percentage identity: 81&lt;br&gt;Percentage coverage: 16&lt;br&gt;BLAST bit score: 395&lt;br&gt;E-value: 2.6e-107" locus_tag="D883_RS0104490" class="clusterblast-orf" id="dummy-1_h1_9_26"  />
</g>
<g id="a1_0027"  >
<polygon points="580,90 596,90 601,85 596,80 580,80 580,90 " style="fill:#d8d815; stroke-width:1; stroke:black; " description="&lt;b&gt;D883_RS0104495&lt;/b&gt;&lt;br&gt;aspartate aminotransferase family protein&lt;br&gt;Location: 339110 - 340504&lt;br&gt;&lt;br&gt;&lt;b&gt;BlastP hit with MCIC6FC_015399&lt;/b&gt;&lt;br&gt;Percentage identity: 95&lt;br&gt;Percentage coverage: 33&lt;br&gt;BLAST bit score: 883&lt;br&gt;E-value: 3.2e-254" locus_tag="D883_RS0104495" class="clusterblast-orf" id="dummy-1_h1_9_27"  />
</g>
<g id="a1_0028"  >
<polygon points="602,90 606,85 602,80 602,90 " style="fill:#15d897; stroke-width:1; stroke:black; " description="&lt;b&gt;D883_RS0104500&lt;/b&gt;&lt;br&gt;MbtH family protein&lt;br&gt;Location: 340587 - 340808&lt;br&gt;&lt;br&gt;&lt;b&gt;BlastP hit with MCIC6FC_015400&lt;/b&gt;&lt;br&gt;Percentage identity: 97&lt;br&gt;Percentage coverage: 99&lt;br&gt;BLAST bit score: 155&lt;br&gt;E-value: 1.8e-36" locus_tag="D883_RS0104500" class="clusterblast-orf" id="dummy-1_h1_9_28"  />
</g>
<g id="a1_0029"  >
<polygon points="610,85 615,80 642,80 642,90 615,90 610,85 " style="fill:#5615d8; stroke-width:1; stroke:black; " description="&lt;b&gt;D883_RS0104505&lt;/b&gt;&lt;br&gt;mechanosensitive ion channel family protein&lt;br&gt;Location: 341086 - 343251&lt;br&gt;&lt;br&gt;&lt;b&gt;BlastP hit with MCIC6FC_015401&lt;/b&gt;&lt;br&gt;Percentage identity: 96&lt;br&gt;Percentage coverage: 57&lt;br&gt;BLAST bit score: 1265&lt;br&gt;E-value: 0.0" locus_tag="D883_RS0104505" class="clusterblast-orf" id="dummy-1_h1_9_29"  />
</g>
<g id="a1_0030"  >
<polygon points="643,85 646,80 646,90 643,85 " style="fill:white; stroke-width:1; stroke:black; " description="&lt;b&gt;D883_RS34440&lt;/b&gt;&lt;br&gt;hypothetical protein&lt;br&gt;Location: 343304 - 343480" locus_tag="D883_RS34440" class="clusterblast-orf" id="dummy-1_h1_9_30"  />
</g>
<g id="a1_0031"  >
<polygon points="648,85 653,80 667,80 667,90 653,90 648,85 " style="fill:#d81556; stroke-width:1; stroke:black; " description="&lt;b&gt;D883_RS0104515&lt;/b&gt;&lt;br&gt;M18 family aminopeptidase&lt;br&gt;Location: 343639 - 344928&lt;br&gt;&lt;br&gt;&lt;b&gt;BlastP hit with MCIC6FC_015402&lt;/b&gt;&lt;br&gt;Percentage identity: 99&lt;br&gt;Percentage coverage: 100&lt;br&gt;BLAST bit score: 870&lt;br&gt;E-value: 6.4e-251" locus_tag="D883_RS0104515" class="clusterblast-orf" id="dummy-1_h1_9_31"  />
</g>
<g id="a1_0032"  >
<polygon points="669,85 674,80 679,80 679,90 674,90 669,85 " style="fill:#97d815; stroke-width:1; stroke:black; " description="&lt;b&gt;D883_RS0104520&lt;/b&gt;&lt;br&gt;RluA family pseudouridine synthase&lt;br&gt;Location: 345045 - 345680&lt;br&gt;&lt;br&gt;&lt;b&gt;BlastP hit with MCIC6FC_015403&lt;/b&gt;&lt;br&gt;Percentage identity: 99&lt;br&gt;Percentage coverage: 100&lt;br&gt;BLAST bit score: 451&lt;br&gt;E-value: 5.9e-125" locus_tag="D883_RS0104520" class="clusterblast-orf" id="dummy-1_h1_9_32"  />
</g>
<g id="a1_0033"  >
<polygon points="680,85 684,80 684,90 680,85 " style="fill:#15d8d8; stroke-width:1; stroke:black; " description="&lt;b&gt;D883_RS0104525&lt;/b&gt;&lt;br&gt;cell division topological specificity factor MinE&lt;br&gt;Location: 345777 - 346031&lt;br&gt;&lt;br&gt;&lt;b&gt;BlastP hit with MCIC6FC_015404&lt;/b&gt;&lt;br&gt;Percentage identity: 100&lt;br&gt;Percentage coverage: 11&lt;br&gt;BLAST bit score: 134&lt;br&gt;E-value: 3.5e-29" locus_tag="D883_RS0104525" class="clusterblast-orf" id="dummy-1_h1_9_33"  />
</g>
<g id="a1_0034"  >
<polygon points="684,85 689,80 696,80 696,90 689,90 684,85 " style="fill:#15d8d8; stroke-width:1; stroke:black; " description="&lt;b&gt;D883_RS0104530&lt;/b&gt;&lt;br&gt;septum site-determining protein MinD&lt;br&gt;Location: 346035 - 346847&lt;br&gt;&lt;br&gt;&lt;b&gt;BlastP hit with MCIC6FC_015404&lt;/b&gt;&lt;br&gt;Percentage identity: 100&lt;br&gt;Percentage coverage: 44&lt;br&gt;BLAST bit score: 503&lt;br&gt;E-value: 2.9e-140" locus_tag="D883_RS0104530" class="clusterblast-orf" id="dummy-1_h1_9_34"  />
</g>
<g id="a1_0035"  >
<polygon points="699,85 704,80 710,80 710,90 704,90 699,85 " style="fill:#15d8d8; stroke-width:1; stroke:black; " description="&lt;b&gt;D883_RS0104535&lt;/b&gt;&lt;br&gt;septum site-determining protein MinC&lt;br&gt;Location: 347049 - 347786&lt;br&gt;&lt;br&gt;&lt;b&gt;BlastP hit with MCIC6FC_015404&lt;/b&gt;&lt;br&gt;Percentage identity: 95&lt;br&gt;Percentage coverage: 41&lt;br&gt;BLAST bit score: 453&lt;br&gt;E-value: 2.6e-125" locus_tag="D883_RS0104535" class="clusterblast-orf" id="dummy-1_h1_9_35"  />
</g>
<g id="a1_0036"  >
<polygon points="712,90 721,90 726,85 721,80 712,80 712,90 " style="fill:white; stroke-width:1; stroke:black; " description="&lt;b&gt;D883_RS0104540&lt;/b&gt;&lt;br&gt;lipid A biosynthesis lauroyl acyltransferase&lt;br&gt;Location: 347906 - 348841" locus_tag="D883_RS0104540" class="clusterblast-orf" id="dummy-1_h1_9_36"  />
</g>
<g id="a1_0037"  >
<polygon points="726,90 738,90 743,85 738,80 726,80 726,90 " style="fill:white; stroke-width:1; stroke:black; " description="&lt;b&gt;D883_RS0104545&lt;/b&gt;&lt;br&gt;patatin-like phospholipase family protein&lt;br&gt;Location: 348872 - 350020" locus_tag="D883_RS0104545" class="clusterblast-orf" id="dummy-1_h1_9_37"  />
</g>
<g id="a1_0038"  >
<polygon points="744,85 749,80 756,80 756,90 749,90 744,85 " style="fill:white; stroke-width:1; stroke:black; " description="&lt;b&gt;D883_RS0104550&lt;/b&gt;&lt;br&gt;membrane protein&lt;br&gt;Location: 350067 - 350852" locus_tag="D883_RS0104550" class="clusterblast-orf" id="dummy-1_h1_9_38"  />
</g>
<g id="a1_0039"  >
<polygon points="759,85 764,80 780,80 780,90 764,90 759,85 " style="fill:white; stroke-width:1; stroke:black; " description="&lt;b&gt;D883_RS0104555&lt;/b&gt;&lt;br&gt;purine permease&lt;br&gt;Location: 351083 - 352432" locus_tag="D883_RS0104555" class="clusterblast-orf" id="dummy-1_h1_9_39"  />
</g>
</svg>
