<svg xmlns="http://www.w3.org/2000/svg" xmlns:xlink="http://www.w3.org/1999/xlink" version="1.1" x="0" y="0" height="230" width="800" viewBox="0 0 800 230" preserveAspectRatio="none"  >
<g label="Query sequence" class="clusterblast-cluster"  >
<text x="5" y="20" class="clusterblast-acc"  >
Query sequence</text>
<line x1="10" y1="35" x2="778.0" y2="35" style="stroke-width:1; stroke:grey; "  />
<polygon points="197,35 202,30 209,30 209,40 202,40 197,35 " style="fill:#d81515; stroke-width:1; stroke:black; " description="&lt;b&gt;MCIC6FC_002123&lt;/b&gt;&lt;br&gt;hypothetical protein&lt;br&gt;Location: 121 - 848" locus_tag="MCIC6FC_002123" class="clusterblast-orf" id="dummy-1_q0_0_all"  />
<polygon points="212,40 219,40 224,35 219,30 212,30 212,40 " style="fill:white; stroke-width:1; stroke:black; " description="&lt;b&gt;MCIC6FC_002124&lt;/b&gt;&lt;br&gt;hypothetical protein&lt;br&gt;Location: 1018 - 1774" locus_tag="MCIC6FC_002124" class="clusterblast-orf" id="dummy-1_q1_0_all"  />
<polygon points="229,35 234,30 257,30 257,40 234,40 229,35 " style="fill:white; stroke-width:1; stroke:black; " description="&lt;b&gt;MCIC6FC_002125&lt;/b&gt;&lt;br&gt;hypothetical protein&lt;br&gt;Location: 2041 - 3727" locus_tag="MCIC6FC_002125" class="clusterblast-orf" id="dummy-1_q2_0_all"  />
<polygon points="262,35 267,30 275,30 275,40 267,40 262,35 " style="fill:#77d815; stroke-width:1; stroke:black; " description="&lt;b&gt;MCIC6FC_002126&lt;/b&gt;&lt;br&gt;hypothetical protein&lt;br&gt;Location: 4035 - 4825" locus_tag="MCIC6FC_002126" class="clusterblast-orf" id="dummy-1_q3_0_all"  />
<polygon points="279,40 450,40 455,35 450,30 279,30 279,40 " style="fill:#15d8d8; stroke-width:1; stroke:black; " description="&lt;b&gt;MCIC6FC_002127&lt;/b&gt;&lt;br&gt;hypothetical protein&lt;br&gt;Location: 5057 - 15635" locus_tag="MCIC6FC_002127" class="clusterblast-orf" id="dummy-1_q4_0_all"  />
<polygon points="457,35 462,30 471,30 471,40 462,40 457,35 " style="fill:#7715d8; stroke-width:1; stroke:black; " description="&lt;b&gt;MCIC6FC_002128&lt;/b&gt;&lt;br&gt;hypothetical protein&lt;br&gt;Location: 15728 - 16598" locus_tag="MCIC6FC_002128" class="clusterblast-orf" id="dummy-1_q5_0_all"  />
<polygon points="473,40 491,40 496,35 491,30 473,30 473,40 " style="fill:#d8a715; stroke-width:1; stroke:black; " description="&lt;b&gt;MCIC6FC_002129&lt;/b&gt;&lt;br&gt;hypothetical protein&lt;br&gt;Location: 16700 - 18073" locus_tag="MCIC6FC_002129" class="clusterblast-orf" id="dummy-1_q6_0_all"  />
<polygon points="506,40 521,40 526,35 521,30 506,30 506,40 " style="fill:white; stroke-width:1; stroke:black; " description="&lt;b&gt;MCIC6FC_002130&lt;/b&gt;&lt;br&gt;hypothetical protein&lt;br&gt;Location: 18704 - 19908" locus_tag="MCIC6FC_002130" class="clusterblast-orf" id="dummy-1_q7_0_all"  />
<polygon points="528,35 533,30 553,30 553,40 533,40 528,35 " style="fill:#15d846; stroke-width:1; stroke:black; " description="&lt;b&gt;MCIC6FC_002131&lt;/b&gt;&lt;br&gt;hypothetical protein&lt;br&gt;Location: 19975 - 21492" locus_tag="MCIC6FC_002131" class="clusterblast-orf" id="dummy-1_q8_0_all"  />
<polygon points="555,40 571,40 576,35 571,30 555,30 555,40 " style="fill:#1546d8; stroke-width:1; stroke:black; " description="&lt;b&gt;MCIC6FC_002132&lt;/b&gt;&lt;br&gt;hypothetical protein&lt;br&gt;Location: 21620 - 22910" locus_tag="MCIC6FC_002132" class="clusterblast-orf" id="dummy-1_q9_0_all"  />
<polygon points="577,40 578,40 583,35 578,30 577,30 577,40 " style="fill:#d815a7; stroke-width:1; stroke:black; " description="&lt;b&gt;MCIC6FC_002133&lt;/b&gt;&lt;br&gt;hypothetical protein&lt;br&gt;Location: 22934 - 23272" locus_tag="MCIC6FC_002133" class="clusterblast-orf" id="dummy-1_q10_0_all"  />
</g>
<g label="NZ_QRAP01000001" description="NZ_QRAP01000001 (952301-1000071): Enterobacillus tribolii strain DSM 103736 G... (5% of genes show similarity), NRPS,T1PKS" class="clusterblast-cluster"  >
<text x="5" y="70" class="clusterblast-acc"  >
<a xlink:href="https://antismash-db.secondarymetabolites.org/area.html?record=NZ_QRAP01000001&amp;start=952301&amp;end=1000071" target="_blank">NZ_QRAP01000001 (952301-1000071)</a>: Enterobacillus tribolii strain DSM 103736 G... (5% of genes show similarity), NRPS,T1PKS</text>
<line x1="10" y1="85" x2="778.0" y2="85" style="stroke-width:1; stroke:grey; "  />
</g>
<g id="a1_000"  >
<polygon points="0,90 3,90 8,85 3,80 0,80 0,90 " style="fill:white; stroke-width:1; stroke:black; " description="&lt;b&gt;C8D90_RS04455&lt;/b&gt;&lt;br&gt;chemotaxis protein CheW&lt;br&gt;Location: 999680 - 999186" locus_tag="C8D90_RS04455" class="clusterblast-orf" id="dummy-1_h1_9_0"  />
</g>
<g id="a1_001"  >
<polygon points="11,90 34,90 39,85 34,80 11,80 11,90 " style="fill:#15d8d8; stroke-width:1; stroke:black; " description="&lt;b&gt;C8D90_RS04450&lt;/b&gt;&lt;br&gt;Tar ligand binding domain-containing protein&lt;br&gt;Location: 998976 - 997288&lt;br&gt;&lt;br&gt;&lt;b&gt;BlastP hit with MCIC6FC_002127&lt;/b&gt;&lt;br&gt;Percentage identity: 45&lt;br&gt;Percentage coverage: 14&lt;br&gt;BLAST bit score: 133&lt;br&gt;E-value: 2.8e-28" locus_tag="C8D90_RS04450" class="clusterblast-orf" id="dummy-1_h1_9_1"  />
</g>
<g id="a1_002"  >
<polygon points="41,90 63,90 68,85 63,80 41,80 41,90 " style="fill:white; stroke-width:1; stroke:black; " description="&lt;b&gt;C8D90_RS04445&lt;/b&gt;&lt;br&gt;Tar ligand binding domain-containing protein&lt;br&gt;Location: 997164 - 995569" locus_tag="C8D90_RS04445" class="clusterblast-orf" id="dummy-1_h1_9_2"  />
</g>
<g id="a1_003"  >
<polygon points="69,90 78,90 83,85 78,80 69,80 69,90 " style="fill:white; stroke-width:1; stroke:black; " description="&lt;b&gt;C8D90_RS04440&lt;/b&gt;&lt;br&gt;protein-glutamate O-methyltransferase CheR&lt;br&gt;Location: 995527 - 994640" locus_tag="C8D90_RS04440" class="clusterblast-orf" id="dummy-1_h1_9_3"  />
</g>
<g id="a1_004"  >
<polygon points="83,90 96,90 101,85 96,80 83,80 83,90 " style="fill:white; stroke-width:1; stroke:black; " description="&lt;b&gt;C8D90_RS04435&lt;/b&gt;&lt;br&gt;chemotaxis response regulator protein-glutamate methylesterase&lt;br&gt;Location: 994643 - 993588" locus_tag="C8D90_RS04435" class="clusterblast-orf" id="dummy-1_h1_9_4"  />
</g>
<g id="a1_005"  >
<polygon points="102,90 103,90 108,85 103,80 102,80 102,90 " style="fill:white; stroke-width:1; stroke:black; " description="&lt;b&gt;C8D90_RS04430&lt;/b&gt;&lt;br&gt;chemotaxis protein CheY&lt;br&gt;Location: 993536 - 993147" locus_tag="C8D90_RS04430" class="clusterblast-orf" id="dummy-1_h1_9_5"  />
</g>
<g id="a1_006"  >
<polygon points="109,90 114,90 119,85 114,80 109,80 109,90 " style="fill:white; stroke-width:1; stroke:black; " description="&lt;b&gt;C8D90_RS04425&lt;/b&gt;&lt;br&gt;protein phosphatase CheZ&lt;br&gt;Location: 993137 - 992493" locus_tag="C8D90_RS04425" class="clusterblast-orf" id="dummy-1_h1_9_6"  />
</g>
<g id="a1_007"  >
<polygon points="120,85 125,80 140,80 140,90 125,90 120,85 " style="fill:#1546d8; stroke-width:1; stroke:black; " description="&lt;b&gt;C8D90_RS04420&lt;/b&gt;&lt;br&gt;amidohydrolase&lt;br&gt;Location: 992435 - 991251&lt;br&gt;&lt;br&gt;&lt;b&gt;BlastP hit with MCIC6FC_002132&lt;/b&gt;&lt;br&gt;Percentage identity: 37&lt;br&gt;Percentage coverage: 48&lt;br&gt;BLAST bit score: 99&lt;br&gt;E-value: 1.2e-18" locus_tag="C8D90_RS04420" class="clusterblast-orf" id="dummy-1_h1_9_7"  />
</g>
<g id="a1_008"  >
<polygon points="143,85 148,80 149,80 149,90 148,90 143,85 " style="fill:white; stroke-width:1; stroke:black; " description="&lt;b&gt;C8D90_RS04415&lt;/b&gt;&lt;br&gt;nitrous oxide-stimulated promoter family protein&lt;br&gt;Location: 991078 - 990734" locus_tag="C8D90_RS04415" class="clusterblast-orf" id="dummy-1_h1_9_8"  />
</g>
<g id="a1_009"  >
<polygon points="151,85 156,80 174,80 174,90 156,90 151,85 " style="fill:white; stroke-width:1; stroke:black; " description="&lt;b&gt;C8D90_RS04410&lt;/b&gt;&lt;br&gt;hypothetical protein&lt;br&gt;Location: 990594 - 989200" locus_tag="C8D90_RS04410" class="clusterblast-orf" id="dummy-1_h1_9_9"  />
</g>
<g id="a1_0010"  >
<polygon points="175,85 180,80 198,80 198,90 180,90 175,85 " style="fill:white; stroke-width:1; stroke:black; " description="&lt;b&gt;C8D90_RS04405&lt;/b&gt;&lt;br&gt;hypothetical protein&lt;br&gt;Location: 989160 - 987787" locus_tag="C8D90_RS04405" class="clusterblast-orf" id="dummy-1_h1_9_10"  />
</g>
<g id="a1_0011"  >
<polygon points="199,85 204,80 218,80 218,90 204,90 199,85 " style="fill:white; stroke-width:1; stroke:black; " description="&lt;b&gt;C8D90_RS04400&lt;/b&gt;&lt;br&gt;merozoite surface protein 3b&lt;br&gt;Location: 987734 - 986577" locus_tag="C8D90_RS04400" class="clusterblast-orf" id="dummy-1_h1_9_11"  />
</g>
<g id="a1_0012"  >
<polygon points="222,90 235,90 240,85 235,80 222,80 222,90 " style="fill:white; stroke-width:1; stroke:black; " description="&lt;b&gt;C8D90_RS04395&lt;/b&gt;&lt;br&gt;YedE-related selenium metabolism membrane protein&lt;br&gt;Location: 986331 - 985249" locus_tag="C8D90_RS04395" class="clusterblast-orf" id="dummy-1_h1_9_12"  />
</g>
<g id="a1_0013"  >
<polygon points="240,90 244,85 240,80 240,90 " style="fill:white; stroke-width:1; stroke:black; " description="&lt;b&gt;C8D90_RS04390&lt;/b&gt;&lt;br&gt;DUF3343 domain-containing protein&lt;br&gt;Location: 985252 - 985001" locus_tag="C8D90_RS04390" class="clusterblast-orf" id="dummy-1_h1_9_13"  />
</g>
<g id="a1_0014"  >
<polygon points="246,85 251,80 253,80 253,90 251,90 246,85 " style="fill:white; stroke-width:1; stroke:black; " description="&lt;b&gt;C8D90_RS04385&lt;/b&gt;&lt;br&gt;VOC family protein&lt;br&gt;Location: 984905 - 984459" locus_tag="C8D90_RS04385" class="clusterblast-orf" id="dummy-1_h1_9_14"  />
</g>
<g id="a1_0015"  >
<polygon points="259,90 271,90 276,85 271,80 259,80 259,90 " style="fill:white; stroke-width:1; stroke:black; " description="&lt;b&gt;C8D90_RS04380&lt;/b&gt;&lt;br&gt;RelA/SpoT domain-containing protein&lt;br&gt;Location: 984106 - 983063" locus_tag="C8D90_RS04380" class="clusterblast-orf" id="dummy-1_h1_9_15"  />
</g>
<g id="a1_0016"  >
<polygon points="279,85 284,80 295,80 295,90 284,90 279,85 " style="fill:white; stroke-width:1; stroke:black; " description="&lt;b&gt;C8D90_RS04375&lt;/b&gt;&lt;br&gt;helix-turn-helix domain-containing protein&lt;br&gt;Location: 982921 - 981962" locus_tag="C8D90_RS04375" class="clusterblast-orf" id="dummy-1_h1_9_16"  />
</g>
<g id="a1_0017"  >
<polygon points="304,90 306,90 311,85 306,80 304,80 304,90 " style="fill:white; stroke-width:1; stroke:black; " description="&lt;b&gt;C8D90_RS04370&lt;/b&gt;&lt;br&gt;hypothetical protein&lt;br&gt;Location: 981410 - 981000" locus_tag="C8D90_RS04370" class="clusterblast-orf" id="dummy-1_h1_9_17"  />
</g>
<g id="a1_0018"  >
<polygon points="312,90 320,90 325,85 320,80 312,80 312,90 " style="fill:white; stroke-width:1; stroke:black; " description="&lt;b&gt;C8D90_RS04365&lt;/b&gt;&lt;br&gt;hypothetical protein&lt;br&gt;Location: 980951 - 980124" locus_tag="C8D90_RS04365" class="clusterblast-orf" id="dummy-1_h1_9_18"  />
</g>
<g id="a1_0019"  >
<polygon points="326,90 451,90 456,85 451,80 326,80 326,90 " style="fill:white; stroke-width:1; stroke:black; " description="&lt;b&gt;C8D90_RS04360&lt;/b&gt;&lt;br&gt;aminotransferase class III-fold pyridoxal phosphate-dependent enzyme&lt;br&gt;Location: 980071 - 972302" locus_tag="C8D90_RS04360" class="clusterblast-orf" id="dummy-1_h1_9_19"  />
</g>
<g id="a1_0020"  >
<polygon points="456,90 468,90 473,85 468,80 456,80 456,90 " style="fill:white; stroke-width:1; stroke:black; " description="&lt;b&gt;C8D90_RS04355&lt;/b&gt;&lt;br&gt;arylesterase&lt;br&gt;Location: 972302 - 971286" locus_tag="C8D90_RS04355" class="clusterblast-orf" id="dummy-1_h1_9_20"  />
</g>
<g id="a1_0021"  >
<polygon points="474,85 479,80 486,80 486,90 479,90 474,85 " style="fill:white; stroke-width:1; stroke:black; " description="&lt;b&gt;C8D90_RS04350&lt;/b&gt;&lt;br&gt;4'-phosphopantetheinyl transferase superfamily protein&lt;br&gt;Location: 971217 - 970504" locus_tag="C8D90_RS04350" class="clusterblast-orf" id="dummy-1_h1_9_21"  />
</g>
<g id="a1_0022"  >
<polygon points="488,85 493,80 504,80 504,90 493,90 488,85 " style="fill:white; stroke-width:1; stroke:black; " description="&lt;b&gt;C8D90_RS04345&lt;/b&gt;&lt;br&gt;AraC family transcriptional regulator&lt;br&gt;Location: 970363 - 969386" locus_tag="C8D90_RS04345" class="clusterblast-orf" id="dummy-1_h1_9_22"  />
</g>
<g id="a1_0023"  >
<polygon points="505,85 510,80 544,80 544,90 510,90 505,85 " style="fill:white; stroke-width:1; stroke:black; " description="&lt;b&gt;C8D90_RS04340&lt;/b&gt;&lt;br&gt;glycoside hydrolase family 3 C-terminal domain-containing protein&lt;br&gt;Location: 969332 - 966984" locus_tag="C8D90_RS04340" class="clusterblast-orf" id="dummy-1_h1_9_23"  />
</g>
<g id="a1_0024"  >
<polygon points="544,85 549,80 567,80 567,90 549,90 544,85 " style="fill:white; stroke-width:1; stroke:black; " description="&lt;b&gt;C8D90_RS04335&lt;/b&gt;&lt;br&gt;MFS transporter&lt;br&gt;Location: 966982 - 965606" locus_tag="C8D90_RS04335" class="clusterblast-orf" id="dummy-1_h1_9_24"  />
</g>
<g id="a1_0025"  >
<polygon points="574,90 588,90 593,85 588,80 574,80 574,90 " style="fill:white; stroke-width:1; stroke:black; " description="&lt;b&gt;C8D90_RS04330&lt;/b&gt;&lt;br&gt;tyrosine-protein phosphatase&lt;br&gt;Location: 965172 - 964045" locus_tag="C8D90_RS04330" class="clusterblast-orf" id="dummy-1_h1_9_25"  />
</g>
<g id="a1_0026"  >
<polygon points="600,85 605,80 609,80 609,90 605,90 600,85 " style="fill:white; stroke-width:1; stroke:black; " description="&lt;b&gt;C8D90_RS04325&lt;/b&gt;&lt;br&gt;DUF2058 domain-containing protein&lt;br&gt;Location: 963632 - 963093" locus_tag="C8D90_RS04325" class="clusterblast-orf" id="dummy-1_h1_9_26"  />
</g>
<g id="a1_0027"  >
<polygon points="614,90 614,90 619,85 614,80 614,80 614,90 " style="fill:white; stroke-width:1; stroke:black; " description="&lt;b&gt;C8D90_RS04320&lt;/b&gt;&lt;br&gt;As(III)-sensing metalloregulatory transcriptional repressor ArsR&lt;br&gt;Location: 962824 - 962474" locus_tag="C8D90_RS04320" class="clusterblast-orf" id="dummy-1_h1_9_27"  />
</g>
<g id="a1_0028"  >
<polygon points="621,90 621,90 626,85 621,80 621,80 621,90 " style="fill:white; stroke-width:1; stroke:black; " description="&lt;b&gt;C8D90_RS04315&lt;/b&gt;&lt;br&gt;arsenic metallochaperone ArsD family protein&lt;br&gt;Location: 962370 - 962083" locus_tag="C8D90_RS04315" class="clusterblast-orf" id="dummy-1_h1_9_28"  />
</g>
<g id="a1_0029"  >
<polygon points="626,90 629,85 626,80 626,90 " style="fill:white; stroke-width:1; stroke:black; " description="&lt;b&gt;C8D90_RS04310&lt;/b&gt;&lt;br&gt;AAA family ATPase&lt;br&gt;Location: 962065 - 961919" locus_tag="C8D90_RS04310" class="clusterblast-orf" id="dummy-1_h1_9_29"  />
</g>
<g id="a1_0030"  >
<polygon points="629,90 632,85 629,80 629,90 " style="fill:white; stroke-width:1; stroke:black; " description="&lt;b&gt;C8D90_RS04305&lt;/b&gt;&lt;br&gt;arsenical pump-driving ATPase&lt;br&gt;Location: 961922 - 961710" locus_tag="C8D90_RS04305" class="clusterblast-orf" id="dummy-1_h1_9_30"  />
</g>
<g id="a1_0031"  >
<polygon points="633,90 649,90 654,85 649,80 633,80 633,90 " style="fill:white; stroke-width:1; stroke:black; " description="&lt;b&gt;C8D90_RS04300&lt;/b&gt;&lt;br&gt;arsenic transporter&lt;br&gt;Location: 961663 - 960374" locus_tag="C8D90_RS04300" class="clusterblast-orf" id="dummy-1_h1_9_31"  />
</g>
<g id="a1_0032"  >
<polygon points="655,90 657,90 662,85 657,80 655,80 655,90 " style="fill:white; stroke-width:1; stroke:black; " description="&lt;b&gt;C8D90_RS04295&lt;/b&gt;&lt;br&gt;glutaredoxin-dependent arsenate reductase&lt;br&gt;Location: 960361 - 959936" locus_tag="C8D90_RS04295" class="clusterblast-orf" id="dummy-1_h1_9_32"  />
</g>
<g id="a1_0033"  >
<polygon points="668,85 673,80 686,80 686,90 673,90 668,85 " style="fill:white; stroke-width:1; stroke:black; " description="&lt;b&gt;C8D90_RS04290&lt;/b&gt;&lt;br&gt;redox-regulated ATPase YchF&lt;br&gt;Location: 959536 - 958445" locus_tag="C8D90_RS04290" class="clusterblast-orf" id="dummy-1_h1_9_33"  />
</g>
<g id="a1_0034"  >
<polygon points="688,85 693,80 699,80 699,90 693,90 688,85 " style="fill:white; stroke-width:1; stroke:black; " description="&lt;b&gt;C8D90_RS04285&lt;/b&gt;&lt;br&gt;aminoacyl-tRNA hydrolase&lt;br&gt;Location: 958324 - 957665" locus_tag="C8D90_RS04285" class="clusterblast-orf" id="dummy-1_h1_9_34"  />
</g>
<g id="a1_0035"  >
<polygon points="703,90 703,90 708,85 703,80 703,80 703,90 " style="fill:white; stroke-width:1; stroke:black; " description="&lt;b&gt;C8D90_RS04280&lt;/b&gt;&lt;br&gt;stress-induced protein YchH&lt;br&gt;Location: 957425 - 957147" locus_tag="C8D90_RS04280" class="clusterblast-orf" id="dummy-1_h1_9_35"  />
</g>
<g id="a1_0036"  >
<polygon points="711,85 716,80 727,80 727,90 716,90 711,85 " style="fill:white; stroke-width:1; stroke:black; " description="&lt;b&gt;C8D90_RS04275&lt;/b&gt;&lt;br&gt;ribose-phosphate diphosphokinase&lt;br&gt;Location: 956957 - 956010" locus_tag="C8D90_RS04275" class="clusterblast-orf" id="dummy-1_h1_9_36"  />
</g>
<g id="a1_0037"  >
<polygon points="730,85 735,80 744,80 744,90 735,90 730,85 " style="fill:white; stroke-width:1; stroke:black; " description="&lt;b&gt;C8D90_RS04270&lt;/b&gt;&lt;br&gt;4-(cytidine 5'-diphospho)-2-C-methyl-D-erythritol kinase&lt;br&gt;Location: 955849 - 954968" locus_tag="C8D90_RS04270" class="clusterblast-orf" id="dummy-1_h1_9_37"  />
</g>
<g id="a1_0038"  >
<polygon points="744,85 749,80 755,80 755,90 749,90 744,85 " style="fill:white; stroke-width:1; stroke:black; " description="&lt;b&gt;C8D90_RS04265&lt;/b&gt;&lt;br&gt;lipoprotein localization protein LolB&lt;br&gt;Location: 954968 - 954348" locus_tag="C8D90_RS04265" class="clusterblast-orf" id="dummy-1_h1_9_38"  />
</g>
<g id="a1_0039"  >
<polygon points="758,90 775,90 780,85 775,80 758,80 758,90 " style="fill:white; stroke-width:1; stroke:black; " description="&lt;b&gt;C8D90_RS04260&lt;/b&gt;&lt;br&gt;glutamyl-tRNA reductase&lt;br&gt;Location: 954123 - 952861" locus_tag="C8D90_RS04260" class="clusterblast-orf" id="dummy-1_h1_9_39"  />
</g>
</svg>
