<svg xmlns="http://www.w3.org/2000/svg" xmlns:xlink="http://www.w3.org/1999/xlink" version="1.1" x="0" y="0" height="230" width="800" viewBox="0 0 800 230" preserveAspectRatio="none"  >
<g label="Query sequence" class="clusterblast-cluster"  >
<text x="5" y="20" class="clusterblast-acc"  >
Query sequence</text>
<line x1="10" y1="35" x2="778.0" y2="35" style="stroke-width:1; stroke:grey; "  />
<polygon points="0,35 5,30 20,30 20,40 5,40 0,35 " style="fill:#d81515; stroke-width:1; stroke:black; " description="&lt;b&gt;MCIC6FC_005786&lt;/b&gt;&lt;br&gt;hypothetical protein&lt;br&gt;Location: 1910200 - 1912388" locus_tag="MCIC6FC_005786" class="clusterblast-orf" id="dummy-3_q0_0_all"  />
<polygon points="21,40 58,40 63,35 58,30 21,30 21,40 " style="fill:#77d815; stroke-width:1; stroke:black; " description="&lt;b&gt;MCIC6FC_005787&lt;/b&gt;&lt;br&gt;hypothetical protein&lt;br&gt;Location: 1912502 - 1917042" locus_tag="MCIC6FC_005787" class="clusterblast-orf" id="dummy-3_q1_0_all"  />
<polygon points="64,35 69,30 80,30 80,40 69,40 64,35 " style="fill:#15d8d8; stroke-width:1; stroke:black; " description="&lt;b&gt;MCIC6FC_005788&lt;/b&gt;&lt;br&gt;hypothetical protein&lt;br&gt;Location: 1917174 - 1918868" locus_tag="MCIC6FC_005788" class="clusterblast-orf" id="dummy-3_q2_0_all"  />
<polygon points="82,40 102,40 107,35 102,30 82,30 82,40 " style="fill:#7715d8; stroke-width:1; stroke:black; " description="&lt;b&gt;MCIC6FC_005789&lt;/b&gt;&lt;br&gt;hypothetical protein&lt;br&gt;Location: 1919075 - 1921770" locus_tag="MCIC6FC_005789" class="clusterblast-orf" id="dummy-3_q3_0_all"  />
<polygon points="108,40 111,40 116,35 111,30 108,30 108,40 " style="fill:#d84615; stroke-width:1; stroke:black; " description="&lt;b&gt;MCIC6FC_005790&lt;/b&gt;&lt;br&gt;hypothetical protein&lt;br&gt;Location: 1921817 - 1922711" locus_tag="MCIC6FC_005790" class="clusterblast-orf" id="dummy-3_q4_0_all"  />
<polygon points="116,35 121,30 125,30 125,40 121,40 116,35 " style="fill:#46d815; stroke-width:1; stroke:black; " description="&lt;b&gt;MCIC6FC_005791&lt;/b&gt;&lt;br&gt;hypothetical protein&lt;br&gt;Location: 1922765 - 1923740" locus_tag="MCIC6FC_005791" class="clusterblast-orf" id="dummy-3_q5_0_all"  />
<polygon points="126,40 163,40 168,35 163,30 126,30 126,40 " style="fill:#15a7d8; stroke-width:1; stroke:black; " description="&lt;b&gt;MCIC6FC_005792&lt;/b&gt;&lt;br&gt;hypothetical protein&lt;br&gt;Location: 1923829 - 1928328" locus_tag="MCIC6FC_005792" class="clusterblast-orf" id="dummy-3_q6_0_all"  />
<polygon points="169,35 174,30 457,30 457,40 174,40 169,35 " style="fill:#a715d8; stroke-width:1; stroke:black; " description="&lt;b&gt;MCIC6FC_005793&lt;/b&gt;&lt;br&gt;hypothetical protein&lt;br&gt;Location: 1928467 - 1959441" locus_tag="MCIC6FC_005793" class="clusterblast-orf" id="dummy-3_q7_0_all"  />
<polygon points="459,40 463,40 468,35 463,30 459,30 459,40 " style="fill:#d87715; stroke-width:1; stroke:black; " description="&lt;b&gt;MCIC6FC_005794&lt;/b&gt;&lt;br&gt;hypothetical protein&lt;br&gt;Location: 1959602 - 1960571" locus_tag="MCIC6FC_005794" class="clusterblast-orf" id="dummy-3_q8_0_all"  />
<polygon points="468,35 473,30 487,30 487,40 473,40 468,35 " style="fill:#15d815; stroke-width:1; stroke:black; " description="&lt;b&gt;MCIC6FC_005795&lt;/b&gt;&lt;br&gt;hypothetical protein&lt;br&gt;Location: 1960675 - 1962660" locus_tag="MCIC6FC_005795" class="clusterblast-orf" id="dummy-3_q9_0_all"  />
<polygon points="488,40 489,40 494,35 489,30 488,30 488,40 " style="fill:#1577d8; stroke-width:1; stroke:black; " description="&lt;b&gt;MCIC6FC_005796&lt;/b&gt;&lt;br&gt;hypothetical protein&lt;br&gt;Location: 1962795 - 1963383" locus_tag="MCIC6FC_005796" class="clusterblast-orf" id="dummy-3_q10_0_all"  />
<polygon points="495,40 497,40 502,35 497,30 495,30 495,40 " style="fill:#d815d8; stroke-width:1; stroke:black; " description="&lt;b&gt;MCIC6FC_005797&lt;/b&gt;&lt;br&gt;hypothetical protein&lt;br&gt;Location: 1963495 - 1964296" locus_tag="MCIC6FC_005797" class="clusterblast-orf" id="dummy-3_q11_0_all"  />
<polygon points="503,40 564,40 569,35 564,30 503,30 503,40 " style="fill:#d8a715; stroke-width:1; stroke:black; " description="&lt;b&gt;MCIC6FC_005798&lt;/b&gt;&lt;br&gt;hypothetical protein&lt;br&gt;Location: 1964348 - 1971527" locus_tag="MCIC6FC_005798" class="clusterblast-orf" id="dummy-3_q12_0_all"  />
<polygon points="569,35 574,30 578,30 578,40 574,40 569,35 " style="fill:#15d846; stroke-width:1; stroke:black; " description="&lt;b&gt;MCIC6FC_005799&lt;/b&gt;&lt;br&gt;hypothetical protein&lt;br&gt;Location: 1971536 - 1972520" locus_tag="MCIC6FC_005799" class="clusterblast-orf" id="dummy-3_q13_0_all"  />
<polygon points="579,40 581,40 586,35 581,30 579,30 579,40 " style="fill:#15d846; stroke-width:1; stroke:black; " description="&lt;b&gt;MCIC6FC_005800&lt;/b&gt;&lt;br&gt;hypothetical protein&lt;br&gt;Location: 1972612 - 1973299" locus_tag="MCIC6FC_005800" class="clusterblast-orf" id="dummy-3_q14_0_all"  />
<polygon points="586,35 589,30 589,40 586,35 " style="fill:#1546d8; stroke-width:1; stroke:black; " description="&lt;b&gt;MCIC6FC_005801&lt;/b&gt;&lt;br&gt;hypothetical protein&lt;br&gt;Location: 1973303 - 1973648" locus_tag="MCIC6FC_005801" class="clusterblast-orf" id="dummy-3_q15_0_all"  />
<polygon points="589,35 594,30 595,30 595,40 594,40 589,35 " style="fill:#d815a7; stroke-width:1; stroke:black; " description="&lt;b&gt;MCIC6FC_005802&lt;/b&gt;&lt;br&gt;hypothetical protein&lt;br&gt;Location: 1973672 - 1974304" locus_tag="MCIC6FC_005802" class="clusterblast-orf" id="dummy-3_q16_0_all"  />
<polygon points="596,40 603,40 608,35 603,30 596,30 596,40 " style="fill:#d8d815; stroke-width:1; stroke:black; " description="&lt;b&gt;MCIC6FC_005803&lt;/b&gt;&lt;br&gt;hypothetical protein&lt;br&gt;Location: 1974391 - 1975716" locus_tag="MCIC6FC_005803" class="clusterblast-orf" id="dummy-3_q17_0_all"  />
<polygon points="611,35 616,30 619,30 619,40 616,40 611,35 " style="fill:#15d877; stroke-width:1; stroke:black; " description="&lt;b&gt;MCIC6FC_005804&lt;/b&gt;&lt;br&gt;hypothetical protein&lt;br&gt;Location: 1976049 - 1976838" locus_tag="MCIC6FC_005804" class="clusterblast-orf" id="dummy-3_q18_0_all"  />
<polygon points="619,40 630,40 635,35 630,30 619,30 619,40 " style="fill:white; stroke-width:1; stroke:black; " description="&lt;b&gt;MCIC6FC_005805&lt;/b&gt;&lt;br&gt;hypothetical protein&lt;br&gt;Location: 1976898 - 1978654" locus_tag="MCIC6FC_005805" class="clusterblast-orf" id="dummy-3_q19_0_all"  />
<polygon points="636,35 640,30 640,40 636,35 " style="fill:#1515d8; stroke-width:1; stroke:black; " description="&lt;b&gt;MCIC6FC_005806&lt;/b&gt;&lt;br&gt;hypothetical protein&lt;br&gt;Location: 1978716 - 1979176" locus_tag="MCIC6FC_005806" class="clusterblast-orf" id="dummy-3_q20_0_all"  />
<polygon points="642,40 653,40 658,35 653,30 642,30 642,40 " style="fill:#d81577; stroke-width:1; stroke:black; " description="&lt;b&gt;MCIC6FC_005807&lt;/b&gt;&lt;br&gt;hypothetical protein&lt;br&gt;Location: 1979309 - 1981063" locus_tag="MCIC6FC_005807" class="clusterblast-orf" id="dummy-3_q21_0_all"  />
<polygon points="659,35 664,30 669,30 669,40 664,40 659,35 " style="fill:#a7d815; stroke-width:1; stroke:black; " description="&lt;b&gt;MCIC6FC_005808&lt;/b&gt;&lt;br&gt;hypothetical protein&lt;br&gt;Location: 1981136 - 1982256" locus_tag="MCIC6FC_005808" class="clusterblast-orf" id="dummy-3_q22_0_all"  />
<polygon points="669,35 674,30 701,30 701,40 674,40 669,35 " style="fill:#15d8a7; stroke-width:1; stroke:black; " description="&lt;b&gt;MCIC6FC_005809&lt;/b&gt;&lt;br&gt;hypothetical protein&lt;br&gt;Location: 1982279 - 1985697" locus_tag="MCIC6FC_005809" class="clusterblast-orf" id="dummy-3_q23_0_all"  />
<polygon points="705,40 715,40 720,35 715,30 705,30 705,40 " style="fill:#4615d8; stroke-width:1; stroke:black; " description="&lt;b&gt;MCIC6FC_005810&lt;/b&gt;&lt;br&gt;hypothetical protein&lt;br&gt;Location: 1986109 - 1987765" locus_tag="MCIC6FC_005810" class="clusterblast-orf" id="dummy-3_q24_0_all"  />
<polygon points="721,40 722,40 727,35 722,30 721,30 721,40 " style="fill:#d81546; stroke-width:1; stroke:black; " description="&lt;b&gt;MCIC6FC_005811&lt;/b&gt;&lt;br&gt;hypothetical protein&lt;br&gt;Location: 1987866 - 1988532" locus_tag="MCIC6FC_005811" class="clusterblast-orf" id="dummy-3_q25_0_all"  />
<polygon points="732,40 734,40 739,35 734,30 732,30 732,40 " style="fill:white; stroke-width:1; stroke:black; " description="&lt;b&gt;MCIC6FC_005812&lt;/b&gt;&lt;br&gt;hypothetical protein&lt;br&gt;Location: 1989036 - 1989803" locus_tag="MCIC6FC_005812" class="clusterblast-orf" id="dummy-3_q26_0_all"  />
<polygon points="739,35 744,30 780,30 780,40 744,40 739,35 " style="fill:white; stroke-width:1; stroke:black; " description="&lt;b&gt;MCIC6FC_005813&lt;/b&gt;&lt;br&gt;hypothetical protein&lt;br&gt;Location: 1989807 - 1994168" locus_tag="MCIC6FC_005813" class="clusterblast-orf" id="dummy-3_q27_0_all"  />
</g>
<g label="NZ_CP027705" description="NZ_CP027705 (4590553-4665055): Pseudomonas sp. CMR5c chromosome, complete genome (77% of genes show similarity), NRPS" class="clusterblast-cluster"  >
<text x="5" y="70" class="clusterblast-acc"  >
<a xlink:href="https://antismash-db.secondarymetabolites.org/area.html?record=NZ_CP027705&amp;start=4590553&amp;end=4665055" target="_blank">NZ_CP027705 (4590553-4665055)</a>: Pseudomonas sp. CMR5c chromosome, complete genome (77% of genes show similarity), NRPS</text>
<line x1="10" y1="85" x2="778.0" y2="85" style="stroke-width:1; stroke:grey; "  />
</g>
<g id="a3_000"  >
<polygon points="43,85 48,80 56,80 56,90 48,90 43,85 " style="fill:#d81515; stroke-width:1; stroke:black; " description="&lt;b&gt;C4K40_RS21145&lt;/b&gt;&lt;br&gt;lysine N(6)-hydroxylase/L-ornithine N(5)-oxygenase family protein&lt;br&gt;Location: 4590554 - 4591891&lt;br&gt;&lt;br&gt;&lt;b&gt;BlastP hit with MCIC6FC_005786&lt;/b&gt;&lt;br&gt;Percentage identity: 91&lt;br&gt;Percentage coverage: 69&lt;br&gt;BLAST bit score: 810&lt;br&gt;E-value: 1.2e-232" locus_tag="C4K40_RS21145" class="clusterblast-orf" id="dummy-3_h3_8_0"  />
</g>
<g id="a3_001"  >
<polygon points="57,85 62,80 62,80 62,90 62,90 57,85 " style="fill:#d81515; stroke-width:1; stroke:black; " description="&lt;b&gt;C4K40_RS21150&lt;/b&gt;&lt;br&gt;sigma-70 family RNA polymerase sigma factor&lt;br&gt;Location: 4592041 - 4592523&lt;br&gt;&lt;br&gt;&lt;b&gt;BlastP hit with MCIC6FC_005786&lt;/b&gt;&lt;br&gt;Percentage identity: 94&lt;br&gt;Percentage coverage: 24&lt;br&gt;BLAST bit score: 290&lt;br&gt;E-value: 4.1e-76" locus_tag="C4K40_RS21150" class="clusterblast-orf" id="dummy-3_h3_8_1"  />
</g>
<g id="a3_002"  >
<polygon points="65,90 71,90 76,85 71,80 65,80 65,90 " style="fill:#77d815; stroke-width:1; stroke:black; " description="&lt;b&gt;C4K40_RS21155&lt;/b&gt;&lt;br&gt;efflux RND transporter periplasmic adaptor subunit&lt;br&gt;Location: 4592847 - 4594019&lt;br&gt;&lt;br&gt;&lt;b&gt;BlastP hit with MCIC6FC_005787&lt;/b&gt;&lt;br&gt;Percentage identity: 91&lt;br&gt;Percentage coverage: 26&lt;br&gt;BLAST bit score: 607&lt;br&gt;E-value: 2.7e-171" locus_tag="C4K40_RS21155" class="clusterblast-orf" id="dummy-3_h3_8_2"  />
</g>
<g id="a3_003"  >
<polygon points="76,90 89,90 94,85 89,80 76,80 76,90 " style="fill:#77d815; stroke-width:1; stroke:black; " description="&lt;b&gt;C4K40_RS21160&lt;/b&gt;&lt;br&gt;MacB family efflux pump subunit&lt;br&gt;Location: 4594020 - 4595993&lt;br&gt;&lt;br&gt;&lt;b&gt;BlastP hit with MCIC6FC_005787&lt;/b&gt;&lt;br&gt;Percentage identity: 92&lt;br&gt;Percentage coverage: 43&lt;br&gt;BLAST bit score: 1142&lt;br&gt;E-value: 0.0" locus_tag="C4K40_RS21160" class="clusterblast-orf" id="dummy-3_h3_8_3"  />
</g>
<g id="a3_004"  >
<polygon points="94,90 102,90 107,85 102,80 94,80 94,90 " style="fill:white; stroke-width:1; stroke:black; " description="&lt;b&gt;C4K40_RS21165&lt;/b&gt;&lt;br&gt;efflux transporter outer membrane subunit&lt;br&gt;Location: 4595997 - 4597405" locus_tag="C4K40_RS21165" class="clusterblast-orf" id="dummy-3_h3_8_4"  />
</g>
<g id="a3_005"  >
<polygon points="108,90 111,85 108,80 108,90 " style="fill:white; stroke-width:1; stroke:black; " description="&lt;b&gt;C4K40_RS31640&lt;/b&gt;&lt;br&gt;DUF3349 domain-containing protein&lt;br&gt;Location: 4597527 - 4597826" locus_tag="C4K40_RS31640" class="clusterblast-orf" id="dummy-3_h3_8_5"  />
</g>
<g id="a3_006"  >
<polygon points="111,90 115,85 111,80 111,90 " style="fill:white; stroke-width:1; stroke:black; " description="&lt;b&gt;C4K40_RS21175&lt;/b&gt;&lt;br&gt;SMI1/KNR4 family protein&lt;br&gt;Location: 4597854 - 4598279" locus_tag="C4K40_RS21175" class="clusterblast-orf" id="dummy-3_h3_8_6"  />
</g>
<g id="a3_007"  >
<polygon points="116,85 121,80 131,80 131,90 121,90 116,85 " style="fill:#15d8d8; stroke-width:1; stroke:black; " description="&lt;b&gt;C4K40_RS21180&lt;/b&gt;&lt;br&gt;twin-arginine translocation signal domain-containing protein&lt;br&gt;Location: 4598316 - 4599947&lt;br&gt;&lt;br&gt;&lt;b&gt;BlastP hit with MCIC6FC_005788&lt;/b&gt;&lt;br&gt;Percentage identity: 59&lt;br&gt;Percentage coverage: 99&lt;br&gt;BLAST bit score: 678&lt;br&gt;E-value: 7.8e-193" locus_tag="C4K40_RS21180" class="clusterblast-orf" id="dummy-3_h3_8_7"  />
</g>
<g id="a3_008"  >
<polygon points="132,90 140,90 145,85 140,80 132,80 132,90 " style="fill:#7715d8; stroke-width:1; stroke:black; " description="&lt;b&gt;C4K40_RS21185&lt;/b&gt;&lt;br&gt;pyoverdine-tailoring dipeptidase-like protein PvdM&lt;br&gt;Location: 4600121 - 4601470&lt;br&gt;&lt;br&gt;&lt;b&gt;BlastP hit with MCIC6FC_005789&lt;/b&gt;&lt;br&gt;Percentage identity: 72&lt;br&gt;Percentage coverage: 52&lt;br&gt;BLAST bit score: 671&lt;br&gt;E-value: 8.8e-191" locus_tag="C4K40_RS21185" class="clusterblast-orf" id="dummy-3_h3_8_8"  />
</g>
<g id="a3_009"  >
<polygon points="145,90 152,90 157,85 152,80 145,80 145,90 " style="fill:#7715d8; stroke-width:1; stroke:black; " description="&lt;b&gt;C4K40_RS21190&lt;/b&gt;&lt;br&gt;aminotransferase class V-fold PLP-dependent enzyme&lt;br&gt;Location: 4601501 - 4602793&lt;br&gt;&lt;br&gt;&lt;b&gt;BlastP hit with MCIC6FC_005789&lt;/b&gt;&lt;br&gt;Percentage identity: 64&lt;br&gt;Percentage coverage: 50&lt;br&gt;BLAST bit score: 571&lt;br&gt;E-value: 1.2e-160" locus_tag="C4K40_RS21190" class="clusterblast-orf" id="dummy-3_h3_8_9"  />
</g>
<g id="a3_0010"  >
<polygon points="158,90 161,90 166,85 161,80 158,80 158,90 " style="fill:#d84615; stroke-width:1; stroke:black; " description="&lt;b&gt;C4K40_RS21195&lt;/b&gt;&lt;br&gt;formylglycine-generating enzyme family protein&lt;br&gt;Location: 4602831 - 4603721&lt;br&gt;&lt;br&gt;&lt;b&gt;BlastP hit with MCIC6FC_005790&lt;/b&gt;&lt;br&gt;Percentage identity: 69&lt;br&gt;Percentage coverage: 97&lt;br&gt;BLAST bit score: 423&lt;br&gt;E-value: 1.9e-116" locus_tag="C4K40_RS21195" class="clusterblast-orf" id="dummy-3_h3_8_10"  />
</g>
<g id="a3_0011"  >
<polygon points="168,85 173,80 175,80 175,90 173,90 168,85 " style="fill:#46d815; stroke-width:1; stroke:black; " description="&lt;b&gt;C4K40_RS21200&lt;/b&gt;&lt;br&gt;N(5)-hydroxyornithine transformylase PvdF&lt;br&gt;Location: 4603913 - 4604740&lt;br&gt;&lt;br&gt;&lt;b&gt;BlastP hit with MCIC6FC_005791&lt;/b&gt;&lt;br&gt;Percentage identity: 93&lt;br&gt;Percentage coverage: 86&lt;br&gt;BLAST bit score: 520&lt;br&gt;E-value: 1.6e-145" locus_tag="C4K40_RS21200" class="clusterblast-orf" id="dummy-3_h3_8_11"  />
</g>
<g id="a3_0012"  >
<polygon points="177,90 188,90 193,85 188,80 177,80 177,90 " style="fill:#15a7d8; stroke-width:1; stroke:black; " description="&lt;b&gt;C4K40_RS21205&lt;/b&gt;&lt;br&gt;cyclic peptide export ABC transporter&lt;br&gt;Location: 4604946 - 4606598&lt;br&gt;&lt;br&gt;&lt;b&gt;BlastP hit with MCIC6FC_005792&lt;/b&gt;&lt;br&gt;Percentage identity: 88&lt;br&gt;Percentage coverage: 39&lt;br&gt;BLAST bit score: 916&lt;br&gt;E-value: 4.3e-264" locus_tag="C4K40_RS21205" class="clusterblast-orf" id="dummy-3_h3_8_12"  />
</g>
<g id="a3_0013"  >
<polygon points="194,90 211,90 216,85 211,80 194,80 194,90 " style="fill:#15a7d8; stroke-width:1; stroke:black; " description="&lt;b&gt;C4K40_RS21210&lt;/b&gt;&lt;br&gt;TonB-dependent siderophore receptor&lt;br&gt;Location: 4606748 - 4609117&lt;br&gt;&lt;br&gt;&lt;b&gt;BlastP hit with MCIC6FC_005792&lt;/b&gt;&lt;br&gt;Percentage identity: 42&lt;br&gt;Percentage coverage: 59&lt;br&gt;BLAST bit score: 584&lt;br&gt;E-value: 3e-164" locus_tag="C4K40_RS21210" class="clusterblast-orf" id="dummy-3_h3_8_13"  />
</g>
<g id="a3_0014"  >
<polygon points="219,85 224,80 388,80 388,90 224,90 219,85 " style="fill:#a715d8; stroke-width:1; stroke:black; " description="&lt;b&gt;C4K40_RS21215&lt;/b&gt;&lt;br&gt;non-ribosomal peptide synthetase&lt;br&gt;Location: 4609450 - 4627626&lt;br&gt;&lt;br&gt;&lt;b&gt;BlastP hit with MCIC6FC_005793&lt;/b&gt;&lt;br&gt;Percentage identity: 46&lt;br&gt;Percentage coverage: 65&lt;br&gt;BLAST bit score: 5135&lt;br&gt;E-value: 0.0" locus_tag="C4K40_RS21215" class="clusterblast-orf" id="dummy-3_h3_8_14"  />
</g>
<g id="a3_0015"  >
<polygon points="388,85 393,80 461,80 461,90 393,90 388,85 " style="fill:#a715d8; stroke-width:1; stroke:black; " description="&lt;b&gt;C4K40_RS21220&lt;/b&gt;&lt;br&gt;amino acid adenylation domain-containing protein&lt;br&gt;Location: 4627637 - 4635460&lt;br&gt;&lt;br&gt;&lt;b&gt;BlastP hit with MCIC6FC_005793&lt;/b&gt;&lt;br&gt;Percentage identity: 54&lt;br&gt;Percentage coverage: 25&lt;br&gt;BLAST bit score: 2591&lt;br&gt;E-value: 0.0" locus_tag="C4K40_RS21220" class="clusterblast-orf" id="dummy-3_h3_8_15"  />
</g>
<g id="a3_0016"  >
<polygon points="461,85 466,80 563,80 563,90 466,90 461,85 " style="fill:#a715d8; stroke-width:1; stroke:black; " description="&lt;b&gt;C4K40_RS21225&lt;/b&gt;&lt;br&gt;non-ribosomal peptide synthetase&lt;br&gt;Location: 4635464 - 4646497&lt;br&gt;&lt;br&gt;&lt;b&gt;BlastP hit with MCIC6FC_005793&lt;/b&gt;&lt;br&gt;Percentage identity: 51&lt;br&gt;Percentage coverage: 36&lt;br&gt;BLAST bit score: 3376&lt;br&gt;E-value: 0.0" locus_tag="C4K40_RS21225" class="clusterblast-orf" id="dummy-3_h3_8_16"  />
</g>
<g id="a3_0017"  >
<polygon points="565,90 569,90 574,85 569,80 565,80 565,90 " style="fill:#d87715; stroke-width:1; stroke:black; " description="&lt;b&gt;C4K40_RS21230&lt;/b&gt;&lt;br&gt;siderophore-interacting protein&lt;br&gt;Location: 4646672 - 4647637&lt;br&gt;&lt;br&gt;&lt;b&gt;BlastP hit with MCIC6FC_005794&lt;/b&gt;&lt;br&gt;Percentage identity: 82&lt;br&gt;Percentage coverage: 100&lt;br&gt;BLAST bit score: 549&lt;br&gt;E-value: 1.9e-154" locus_tag="C4K40_RS21230" class="clusterblast-orf" id="dummy-3_h3_8_17"  />
</g>
<g id="a3_0018"  >
<polygon points="574,85 579,80 581,80 581,90 579,90 574,85 " style="fill:#15d815; stroke-width:1; stroke:black; " description="&lt;b&gt;C4K40_RS21235&lt;/b&gt;&lt;br&gt;thioesterase&lt;br&gt;Location: 4647682 - 4648422&lt;br&gt;&lt;br&gt;&lt;b&gt;BlastP hit with MCIC6FC_005795&lt;/b&gt;&lt;br&gt;Percentage identity: 92&lt;br&gt;Percentage coverage: 39&lt;br&gt;BLAST bit score: 456&lt;br&gt;E-value: 4.1e-126" locus_tag="C4K40_RS21235" class="clusterblast-orf" id="dummy-3_h3_8_18"  />
</g>
<g id="a3_0019"  >
<polygon points="582,85 587,80 593,80 593,90 587,90 582,85 " style="fill:#15d815; stroke-width:1; stroke:black; " description="&lt;b&gt;C4K40_RS21240&lt;/b&gt;&lt;br&gt;MFS transporter&lt;br&gt;Location: 4648576 - 4649748&lt;br&gt;&lt;br&gt;&lt;b&gt;BlastP hit with MCIC6FC_005795&lt;/b&gt;&lt;br&gt;Percentage identity: 88&lt;br&gt;Percentage coverage: 62&lt;br&gt;BLAST bit score: 601&lt;br&gt;E-value: 1.4e-169" locus_tag="C4K40_RS21240" class="clusterblast-orf" id="dummy-3_h3_8_19"  />
</g>
<g id="a3_0020"  >
<polygon points="595,90 595,90 600,85 595,80 595,80 595,90 " style="fill:#1577d8; stroke-width:1; stroke:black; " description="&lt;b&gt;C4K40_RS21245&lt;/b&gt;&lt;br&gt;TetR/AcrR family transcriptional regulator&lt;br&gt;Location: 4649874 - 4650461&lt;br&gt;&lt;br&gt;&lt;b&gt;BlastP hit with MCIC6FC_005796&lt;/b&gt;&lt;br&gt;Percentage identity: 80&lt;br&gt;Percentage coverage: 98&lt;br&gt;BLAST bit score: 292&lt;br&gt;E-value: 3.3e-77" locus_tag="C4K40_RS21245" class="clusterblast-orf" id="dummy-3_h3_8_20"  />
</g>
<g id="a3_0021"  >
<polygon points="601,90 613,90 618,85 613,80 601,80 601,90 " style="fill:#d8a715; stroke-width:1; stroke:black; " description="&lt;b&gt;C4K40_RS21250&lt;/b&gt;&lt;br&gt;glycoside hydrolase family 15 protein&lt;br&gt;Location: 4650580 - 4652406&lt;br&gt;&lt;br&gt;&lt;b&gt;BlastP hit with MCIC6FC_005798&lt;/b&gt;&lt;br&gt;Percentage identity: 85&lt;br&gt;Percentage coverage: 26&lt;br&gt;BLAST bit score: 1036&lt;br&gt;E-value: 4.6e-300" locus_tag="C4K40_RS21250" class="clusterblast-orf" id="dummy-3_h3_8_21"  />
</g>
<g id="a3_0022"  >
<polygon points="619,90 622,85 619,80 619,90 " style="fill:white; stroke-width:1; stroke:black; " description="&lt;b&gt;C4K40_RS21255&lt;/b&gt;&lt;br&gt;hypothetical protein&lt;br&gt;Location: 4652459 - 4652827" locus_tag="C4K40_RS21255" class="clusterblast-orf" id="dummy-3_h3_8_22"  />
</g>
<g id="a3_0023"  >
<polygon points="623,90 627,85 623,80 623,90 " style="fill:white; stroke-width:1; stroke:black; " description="&lt;b&gt;C4K40_RS21260&lt;/b&gt;&lt;br&gt;hypothetical protein&lt;br&gt;Location: 4652949 - 4653335" locus_tag="C4K40_RS21260" class="clusterblast-orf" id="dummy-3_h3_8_23"  />
</g>
<g id="a3_0024"  >
<polygon points="627,90 631,85 627,80 627,90 " style="fill:white; stroke-width:1; stroke:black; " description="&lt;b&gt;C4K40_RS21265&lt;/b&gt;&lt;br&gt;hypothetical protein&lt;br&gt;Location: 4653368 - 4653820" locus_tag="C4K40_RS21265" class="clusterblast-orf" id="dummy-3_h3_8_24"  />
</g>
<g id="a3_0025"  >
<polygon points="632,90 635,90 640,85 635,80 632,80 632,90 " style="fill:white; stroke-width:1; stroke:black; " description="&lt;b&gt;C4K40_RS21270&lt;/b&gt;&lt;br&gt;alpha/beta hydrolase&lt;br&gt;Location: 4653880 - 4654785" locus_tag="C4K40_RS21270" class="clusterblast-orf" id="dummy-3_h3_8_25"  />
</g>
<g id="a3_0026"  >
<polygon points="641,90 645,85 641,80 641,90 " style="fill:white; stroke-width:1; stroke:black; " description="&lt;b&gt;C4K40_RS21275&lt;/b&gt;&lt;br&gt;hypothetical protein&lt;br&gt;Location: 4654863 - 4655336" locus_tag="C4K40_RS21275" class="clusterblast-orf" id="dummy-3_h3_8_26"  />
</g>
<g id="a3_0027"  >
<polygon points="645,90 654,90 659,85 654,80 645,80 645,90 " style="fill:#d8a715; stroke-width:1; stroke:black; " description="&lt;b&gt;C4K40_RS21280&lt;/b&gt;&lt;br&gt;TIGR01777 family protein&lt;br&gt;Location: 4655352 - 4656794&lt;br&gt;&lt;br&gt;&lt;b&gt;BlastP hit with MCIC6FC_005798&lt;/b&gt;&lt;br&gt;Percentage identity: 85&lt;br&gt;Percentage coverage: 21&lt;br&gt;BLAST bit score: 772&lt;br&gt;E-value: 1.2e-220" locus_tag="C4K40_RS21280" class="clusterblast-orf" id="dummy-3_h3_8_27"  />
</g>
<g id="a3_0028"  >
<polygon points="659,90 677,90 682,85 677,80 659,80 659,90 " style="fill:#d8a715; stroke-width:1; stroke:black; " description="&lt;b&gt;C4K40_RS21285&lt;/b&gt;&lt;br&gt;alpha/beta hydrolase&lt;br&gt;Location: 4656809 - 4659247&lt;br&gt;&lt;br&gt;&lt;b&gt;BlastP hit with MCIC6FC_005798&lt;/b&gt;&lt;br&gt;Percentage identity: 85&lt;br&gt;Percentage coverage: 36&lt;br&gt;BLAST bit score: 1440&lt;br&gt;E-value: 0.0" locus_tag="C4K40_RS21285" class="clusterblast-orf" id="dummy-3_h3_8_28"  />
</g>
<g id="a3_0029"  >
<polygon points="682,85 687,80 691,80 691,90 687,90 682,85 " style="fill:#15d846; stroke-width:1; stroke:black; " description="&lt;b&gt;C4K40_RS21290&lt;/b&gt;&lt;br&gt;GlxA family transcriptional regulator&lt;br&gt;Location: 4659255 - 4660241&lt;br&gt;&lt;br&gt;&lt;b&gt;BlastP hit with MCIC6FC_005799&lt;/b&gt;&lt;br&gt;Percentage identity: 87&lt;br&gt;Percentage coverage: 99&lt;br&gt;BLAST bit score: 552&lt;br&gt;E-value: 2.9e-155&lt;br&gt;&lt;br&gt;&lt;b&gt;BlastP hit with MCIC6FC_005800&lt;/b&gt;&lt;br&gt;Percentage identity: 33&lt;br&gt;Percentage coverage: 107&lt;br&gt;BLAST bit score: 95&lt;br&gt;E-value: 9e-18" locus_tag="C4K40_RS21290" class="clusterblast-orf" id="dummy-3_h3_8_29"  />
</g>
<g id="a3_0030"  >
<polygon points="692,90 693,90 698,85 693,80 692,80 692,90 " style="fill:#15d846; stroke-width:1; stroke:black; " description="&lt;b&gt;C4K40_RS21295&lt;/b&gt;&lt;br&gt;DJ-1/PfpI family protein&lt;br&gt;Location: 4660334 - 4661020&lt;br&gt;&lt;br&gt;&lt;b&gt;BlastP hit with MCIC6FC_005799&lt;/b&gt;&lt;br&gt;Percentage identity: 36&lt;br&gt;Percentage coverage: 52&lt;br&gt;BLAST bit score: 84&lt;br&gt;E-value: 2.3e-14&lt;br&gt;&lt;br&gt;&lt;b&gt;BlastP hit with MCIC6FC_005800&lt;/b&gt;&lt;br&gt;Percentage identity: 83&lt;br&gt;Percentage coverage: 100&lt;br&gt;BLAST bit score: 380&lt;br&gt;E-value: 1.4e-103" locus_tag="C4K40_RS21295" class="clusterblast-orf" id="dummy-3_h3_8_30"  />
</g>
<g id="a3_0031"  >
<polygon points="698,85 701,80 701,90 698,85 " style="fill:#1546d8; stroke-width:1; stroke:black; " description="&lt;b&gt;C4K40_RS21300&lt;/b&gt;&lt;br&gt;antibiotic biosynthesis monooxygenase&lt;br&gt;Location: 4661032 - 4661376&lt;br&gt;&lt;br&gt;&lt;b&gt;BlastP hit with MCIC6FC_005801&lt;/b&gt;&lt;br&gt;Percentage identity: 81&lt;br&gt;Percentage coverage: 100&lt;br&gt;BLAST bit score: 195&lt;br&gt;E-value: 4.2e-48" locus_tag="C4K40_RS21300" class="clusterblast-orf" id="dummy-3_h3_8_31"  />
</g>
<g id="a3_0032"  >
<polygon points="702,85 707,80 707,80 707,90 707,90 702,85 " style="fill:#d815a7; stroke-width:1; stroke:black; " description="&lt;b&gt;C4K40_RS21305&lt;/b&gt;&lt;br&gt;LysE family translocator&lt;br&gt;Location: 4661400 - 4662032&lt;br&gt;&lt;br&gt;&lt;b&gt;BlastP hit with MCIC6FC_005802&lt;/b&gt;&lt;br&gt;Percentage identity: 75&lt;br&gt;Percentage coverage: 107&lt;br&gt;BLAST bit score: 278&lt;br&gt;E-value: 6.4e-73" locus_tag="C4K40_RS21305" class="clusterblast-orf" id="dummy-3_h3_8_32"  />
</g>
<g id="a3_0033"  >
<polygon points="708,90 716,90 721,85 716,80 708,80 708,90 " style="fill:#d8d815; stroke-width:1; stroke:black; " description="&lt;b&gt;C4K40_RS21310&lt;/b&gt;&lt;br&gt;PLP-dependent aminotransferase family protein&lt;br&gt;Location: 4662122 - 4663447&lt;br&gt;&lt;br&gt;&lt;b&gt;BlastP hit with MCIC6FC_005803&lt;/b&gt;&lt;br&gt;Percentage identity: 77&lt;br&gt;Percentage coverage: 108&lt;br&gt;BLAST bit score: 634&lt;br&gt;E-value: 9.6e-180" locus_tag="C4K40_RS21310" class="clusterblast-orf" id="dummy-3_h3_8_33"  />
</g>
<g id="a3_0034"  >
<polygon points="723,85 728,80 731,80 731,90 728,90 723,85 " style="fill:#15d877; stroke-width:1; stroke:black; " description="&lt;b&gt;C4K40_RS21315&lt;/b&gt;&lt;br&gt;3'-kinase&lt;br&gt;Location: 4663715 - 4664515&lt;br&gt;&lt;br&gt;&lt;b&gt;BlastP hit with MCIC6FC_005804&lt;/b&gt;&lt;br&gt;Percentage identity: 84&lt;br&gt;Percentage coverage: 99&lt;br&gt;BLAST bit score: 447&lt;br&gt;E-value: 8.2e-124" locus_tag="C4K40_RS21315" class="clusterblast-orf" id="dummy-3_h3_8_34"  />
</g>
<g id="a3_0035"  >
<polygon points="731,85 736,80 736,80 736,90 736,90 731,85 " style="fill:#1515d8; stroke-width:1; stroke:black; " description="&lt;b&gt;C4K40_RS21320&lt;/b&gt;&lt;br&gt;SRPBCC family protein&lt;br&gt;Location: 4664597 - 4665055&lt;br&gt;&lt;br&gt;&lt;b&gt;BlastP hit with MCIC6FC_005806&lt;/b&gt;&lt;br&gt;Percentage identity: 73&lt;br&gt;Percentage coverage: 103&lt;br&gt;BLAST bit score: 233&lt;br&gt;E-value: 1.3e-59" locus_tag="C4K40_RS21320" class="clusterblast-orf" id="dummy-3_h3_8_35"  />
</g>
</svg>
