<svg xmlns="http://www.w3.org/2000/svg" xmlns:xlink="http://www.w3.org/1999/xlink" version="1.1" x="0" y="0" height="230" width="800" viewBox="0 0 800 230" preserveAspectRatio="none"  >
<g label="Query sequence" class="clusterblast-cluster"  >
<text x="5" y="20" class="clusterblast-acc"  >
Query sequence</text>
<line x1="10" y1="35" x2="778.0" y2="35" style="stroke-width:1; stroke:grey; "  />
<polygon points="349,40 351,35 349,30 349,40 " style="fill:#d81515; stroke-width:1; stroke:black; " description="&lt;b&gt;MCIC6FC_011964&lt;/b&gt;&lt;br&gt;hypothetical protein&lt;br&gt;Location: 48 - 393" locus_tag="MCIC6FC_011964" class="clusterblast-orf" id="dummy-1_q0_0_all"  />
<polygon points="352,40 356,40 361,35 356,30 352,30 352,40 " style="fill:#15d815; stroke-width:1; stroke:black; " description="&lt;b&gt;MCIC6FC_011965&lt;/b&gt;&lt;br&gt;hypothetical protein&lt;br&gt;Location: 663 - 2340" locus_tag="MCIC6FC_011965" class="clusterblast-orf" id="dummy-1_q1_0_all"  />
<polygon points="361,40 365,40 370,35 365,30 361,30 361,40 " style="fill:#1515d8; stroke-width:1; stroke:black; " description="&lt;b&gt;MCIC6FC_011966&lt;/b&gt;&lt;br&gt;hypothetical protein&lt;br&gt;Location: 2343 - 4090" locus_tag="MCIC6FC_011966" class="clusterblast-orf" id="dummy-1_q2_0_all"  />
<polygon points="370,40 379,40 384,35 379,30 370,30 370,40 " style="fill:#1515d8; stroke-width:1; stroke:black; " description="&lt;b&gt;MCIC6FC_011967&lt;/b&gt;&lt;br&gt;hypothetical protein&lt;br&gt;Location: 4152 - 6743" locus_tag="MCIC6FC_011967" class="clusterblast-orf" id="dummy-1_q3_0_all"  />
<polygon points="386,40 409,40 414,35 409,30 386,30 386,40 " style="fill:white; stroke-width:1; stroke:black; " description="&lt;b&gt;MCIC6FC_011968&lt;/b&gt;&lt;br&gt;hypothetical protein&lt;br&gt;Location: 7256 - 12594" locus_tag="MCIC6FC_011968" class="clusterblast-orf" id="dummy-1_q4_0_all"  />
<polygon points="414,35 418,30 418,40 414,35 " style="fill:white; stroke-width:1; stroke:black; " description="&lt;b&gt;MCIC6FC_011969&lt;/b&gt;&lt;br&gt;hypothetical protein&lt;br&gt;Location: 12720 - 13468" locus_tag="MCIC6FC_011969" class="clusterblast-orf" id="dummy-1_q5_0_all"  />
<polygon points="419,40 421,40 426,35 421,30 419,30 419,40 " style="fill:white; stroke-width:1; stroke:black; " description="&lt;b&gt;MCIC6FC_011970&lt;/b&gt;&lt;br&gt;hypothetical protein&lt;br&gt;Location: 13682 - 15001" locus_tag="MCIC6FC_011970" class="clusterblast-orf" id="dummy-1_q6_0_all"  />
<polygon points="426,35 430,30 430,40 426,35 " style="fill:white; stroke-width:1; stroke:black; " description="&lt;b&gt;MCIC6FC_011971&lt;/b&gt;&lt;br&gt;hypothetical protein&lt;br&gt;Location: 15057 - 15775" locus_tag="MCIC6FC_011971" class="clusterblast-orf" id="dummy-1_q7_0_all"  />
</g>
<g label="NZ_CP034587" description="NZ_CP034587 (467666-619676): Streptomyces luteoverticillatus strain CGMCC 150... (6% of genes show similarity), NRPS-like,T1PKS,lassopeptide" class="clusterblast-cluster"  >
<text x="5" y="70" class="clusterblast-acc"  >
<a xlink:href="https://antismash-db.secondarymetabolites.org/area.html?record=NZ_CP034587&amp;start=467666&amp;end=619676" target="_blank">NZ_CP034587 (467666-619676)</a>: Streptomyces luteoverticillatus strain CGMCC 150... (6% of genes show similarity), NRPS-like,T1PKS,lassopeptide</text>
<line x1="10" y1="85" x2="778.0" y2="85" style="stroke-width:1; stroke:grey; "  />
</g>
<g id="a1_000"  >
<polygon points="0,90 10,90 15,85 10,80 0,80 0,90 " style="fill:white; stroke-width:1; stroke:black; " description="&lt;b&gt;EKH77_RS02360&lt;/b&gt;&lt;br&gt;hypothetical protein&lt;br&gt;Location: 619676 - 616596" locus_tag="EKH77_RS02360" class="clusterblast-orf" id="dummy-1_h1_7_0"  />
</g>
<g id="a1_001"  >
<polygon points="15,90 33,90 38,85 33,80 15,80 15,90 " style="fill:white; stroke-width:1; stroke:black; " description="&lt;b&gt;EKH77_RS02355&lt;/b&gt;&lt;br&gt;peptidoglycan-binding protein&lt;br&gt;Location: 616579 - 612077" locus_tag="EKH77_RS02355" class="clusterblast-orf" id="dummy-1_h1_7_1"  />
</g>
<g id="a1_002"  >
<polygon points="42,85 44,80 44,90 42,85 " style="fill:white; stroke-width:1; stroke:black; " description="&lt;b&gt;EKH77_RS02350&lt;/b&gt;&lt;br&gt;lasso peptide biosynthesis B2 protein&lt;br&gt;Location: 611327 - 610911" locus_tag="EKH77_RS02350" class="clusterblast-orf" id="dummy-1_h1_7_2"  />
</g>
<g id="a1_003"  >
<polygon points="44,85 46,80 46,90 44,85 " style="fill:white; stroke-width:1; stroke:black; " description="&lt;b&gt;EKH77_RS02345&lt;/b&gt;&lt;br&gt;lasso peptide biosynthesis PqqD family chaperone&lt;br&gt;Location: 610914 - 610648" locus_tag="EKH77_RS02345" class="clusterblast-orf" id="dummy-1_h1_7_3"  />
</g>
<g id="a1_004"  >
<polygon points="46,85 51,80 55,80 55,90 51,90 46,85 " style="fill:white; stroke-width:1; stroke:black; " description="&lt;b&gt;EKH77_RS02340&lt;/b&gt;&lt;br&gt;hypothetical protein&lt;br&gt;Location: 610651 - 608858" locus_tag="EKH77_RS02340" class="clusterblast-orf" id="dummy-1_h1_7_4"  />
</g>
<g id="a1_005"  >
<polygon points="57,85 60,80 60,90 57,85 " style="fill:white; stroke-width:1; stroke:black; " description="&lt;b&gt;EKH77_RS02335&lt;/b&gt;&lt;br&gt;hypothetical protein&lt;br&gt;Location: 608420 - 607884" locus_tag="EKH77_RS02335" class="clusterblast-orf" id="dummy-1_h1_7_5"  />
</g>
<g id="a1_006"  >
<polygon points="64,85 65,80 65,90 64,85 " style="fill:white; stroke-width:1; stroke:black; " description="&lt;b&gt;EKH77_RS02330&lt;/b&gt;&lt;br&gt;helix-turn-helix transcriptional regulator&lt;br&gt;Location: 607067 - 606921" locus_tag="EKH77_RS02330" class="clusterblast-orf" id="dummy-1_h1_7_6"  />
</g>
<g id="a1_007"  >
<polygon points="66,90 68,85 66,80 66,90 " style="fill:white; stroke-width:1; stroke:black; " description="&lt;b&gt;EKH77_RS32865&lt;/b&gt;&lt;br&gt;hypothetical protein&lt;br&gt;Location: 606813 - 606406" locus_tag="EKH77_RS32865" class="clusterblast-orf" id="dummy-1_h1_7_7"  />
</g>
<g id="a1_008"  >
<polygon points="68,90 71,85 68,80 68,90 " style="fill:white; stroke-width:1; stroke:black; " description="&lt;b&gt;EKH77_RS02315&lt;/b&gt;&lt;br&gt;dienelactone hydrolase family protein&lt;br&gt;Location: 606321 - 605713" locus_tag="EKH77_RS02315" class="clusterblast-orf" id="dummy-1_h1_7_8"  />
</g>
<g id="a1_009"  >
<polygon points="72,90 73,85 72,80 72,90 " style="fill:white; stroke-width:1; stroke:black; " description="&lt;b&gt;EKH77_RS02310&lt;/b&gt;&lt;br&gt;pyrroloquinoline quinone precursor peptide PqqA&lt;br&gt;Location: 605563 - 605393" locus_tag="EKH77_RS02310" class="clusterblast-orf" id="dummy-1_h1_7_9"  />
</g>
<g id="a1_0010"  >
<polygon points="73,90 76,85 73,80 73,90 " style="fill:#15d815; stroke-width:1; stroke:black; " description="&lt;b&gt;EKH77_RS02305&lt;/b&gt;&lt;br&gt;pyrroloquinoline-quinone synthase PqqC&lt;br&gt;Location: 605386 - 604682&lt;br&gt;&lt;br&gt;&lt;b&gt;BlastP hit with MCIC6FC_011965&lt;/b&gt;&lt;br&gt;Percentage identity: 47&lt;br&gt;Percentage coverage: 40&lt;br&gt;BLAST bit score: 213&lt;br&gt;E-value: 5.4e-53" locus_tag="EKH77_RS02305" class="clusterblast-orf" id="dummy-1_h1_7_10"  />
</g>
<g id="a1_0011"  >
<polygon points="76,90 78,85 76,80 76,90 " style="fill:white; stroke-width:1; stroke:black; " description="&lt;b&gt;EKH77_RS02300&lt;/b&gt;&lt;br&gt;pyrroloquinoline quinone biosynthesis peptide chaperone PqqD&lt;br&gt;Location: 604685 - 604425" locus_tag="EKH77_RS02300" class="clusterblast-orf" id="dummy-1_h1_7_11"  />
</g>
<g id="a1_0012"  >
<polygon points="78,90 78,90 83,85 78,80 78,80 78,90 " style="fill:#1515d8; stroke-width:1; stroke:black; " description="&lt;b&gt;EKH77_RS02295&lt;/b&gt;&lt;br&gt;pyrroloquinoline quinone biosynthesis protein PqqE&lt;br&gt;Location: 604410 - 603361&lt;br&gt;&lt;br&gt;&lt;b&gt;BlastP hit with MCIC6FC_011966&lt;/b&gt;&lt;br&gt;Percentage identity: 49&lt;br&gt;Percentage coverage: 63&lt;br&gt;BLAST bit score: 348&lt;br&gt;E-value: 1.1e-93" locus_tag="EKH77_RS02295" class="clusterblast-orf" id="dummy-1_h1_7_12"  />
</g>
<g id="a1_0013"  >
<polygon points="83,90 83,90 88,85 83,80 83,80 83,90 " style="fill:#15d815; stroke-width:1; stroke:black; " description="&lt;b&gt;EKH77_RS02290&lt;/b&gt;&lt;br&gt;pyrroloquinoline quinone biosynthesis protein PqqB&lt;br&gt;Location: 603364 - 602465&lt;br&gt;&lt;br&gt;&lt;b&gt;BlastP hit with MCIC6FC_011965&lt;/b&gt;&lt;br&gt;Percentage identity: 37&lt;br&gt;Percentage coverage: 54&lt;br&gt;BLAST bit score: 184&lt;br&gt;E-value: 3.5e-44" locus_tag="EKH77_RS02290" class="clusterblast-orf" id="dummy-1_h1_7_13"  />
</g>
<g id="a1_0014"  >
<polygon points="88,85 92,80 92,90 88,85 " style="fill:white; stroke-width:1; stroke:black; " description="&lt;b&gt;EKH77_RS02285&lt;/b&gt;&lt;br&gt;ATP/GTP-binding protein&lt;br&gt;Location: 602457 - 601726" locus_tag="EKH77_RS02285" class="clusterblast-orf" id="dummy-1_h1_7_14"  />
</g>
<g id="a1_0015"  >
<polygon points="93,90 97,85 93,80 93,90 " style="fill:white; stroke-width:1; stroke:black; " description="&lt;b&gt;EKH77_RS02280&lt;/b&gt;&lt;br&gt;polysaccharide deacetylase family protein&lt;br&gt;Location: 601466 - 600759" locus_tag="EKH77_RS02280" class="clusterblast-orf" id="dummy-1_h1_7_15"  />
</g>
<g id="a1_0016"  >
<polygon points="97,90 99,85 97,80 97,90 " style="fill:white; stroke-width:1; stroke:black; " description="&lt;b&gt;EKH77_RS02275&lt;/b&gt;&lt;br&gt;septal ring lytic transglycosylase RlpA family protein&lt;br&gt;Location: 600702 - 600286" locus_tag="EKH77_RS02275" class="clusterblast-orf" id="dummy-1_h1_7_16"  />
</g>
<g id="a1_0017"  >
<polygon points="100,90 100,90 105,85 100,80 100,80 100,90 " style="fill:white; stroke-width:1; stroke:black; " description="&lt;b&gt;EKH77_RS02270&lt;/b&gt;&lt;br&gt;GDP-mannose 4,6-dehydratase&lt;br&gt;Location: 600109 - 599072" locus_tag="EKH77_RS02270" class="clusterblast-orf" id="dummy-1_h1_7_17"  />
</g>
<g id="a1_0018"  >
<polygon points="107,90 248,90 253,85 248,80 107,80 107,90 " style="fill:white; stroke-width:1; stroke:black; " description="&lt;b&gt;EKH77_RS02265&lt;/b&gt;&lt;br&gt;SDR family NAD(P)-dependent oxidoreductase&lt;br&gt;Location: 598809 - 570274" locus_tag="EKH77_RS02265" class="clusterblast-orf" id="dummy-1_h1_7_18"  />
</g>
<g id="a1_0019"  >
<polygon points="253,90 302,90 307,85 302,80 253,80 253,90 " style="fill:white; stroke-width:1; stroke:black; " description="&lt;b&gt;EKH77_RS02260&lt;/b&gt;&lt;br&gt;SDR family NAD(P)-dependent oxidoreductase&lt;br&gt;Location: 570262 - 559796" locus_tag="EKH77_RS02260" class="clusterblast-orf" id="dummy-1_h1_7_19"  />
</g>
<g id="a1_0020"  >
<polygon points="307,90 388,90 393,85 388,80 307,80 307,90 " style="fill:white; stroke-width:1; stroke:black; " description="&lt;b&gt;EKH77_RS02255&lt;/b&gt;&lt;br&gt;SDR family NAD(P)-dependent oxidoreductase&lt;br&gt;Location: 559760 - 542907" locus_tag="EKH77_RS02255" class="clusterblast-orf" id="dummy-1_h1_7_20"  />
</g>
<g id="a1_0021"  >
<polygon points="394,90 416,90 421,85 416,80 394,80 394,90 " style="fill:white; stroke-width:1; stroke:black; " description="&lt;b&gt;EKH77_RS32860&lt;/b&gt;&lt;br&gt;SDR family NAD(P)-dependent oxidoreductase&lt;br&gt;Location: 542707 - 537518" locus_tag="EKH77_RS32860" class="clusterblast-orf" id="dummy-1_h1_7_21"  />
</g>
<g id="a1_0022"  >
<polygon points="421,90 439,90 444,85 439,80 421,80 421,90 " style="fill:white; stroke-width:1; stroke:black; " description="&lt;b&gt;EKH77_RS32855&lt;/b&gt;&lt;br&gt;acyltransferase domain-containing protein&lt;br&gt;Location: 537506 - 533094" locus_tag="EKH77_RS32855" class="clusterblast-orf" id="dummy-1_h1_7_22"  />
</g>
<g id="a1_0023"  >
<polygon points="444,90 474,90 479,85 474,80 444,80 444,90 " style="fill:white; stroke-width:1; stroke:black; " description="&lt;b&gt;EKH77_RS02245&lt;/b&gt;&lt;br&gt;SDR family NAD(P)-dependent oxidoreductase&lt;br&gt;Location: 533088 - 526165" locus_tag="EKH77_RS02245" class="clusterblast-orf" id="dummy-1_h1_7_23"  />
</g>
<g id="a1_0024"  >
<polygon points="480,90 485,90 490,85 485,80 480,80 480,90 " style="fill:white; stroke-width:1; stroke:black; " description="&lt;b&gt;EKH77_RS32850&lt;/b&gt;&lt;br&gt;hypothetical protein&lt;br&gt;Location: 526109 - 523995" locus_tag="EKH77_RS32850" class="clusterblast-orf" id="dummy-1_h1_7_24"  />
</g>
<g id="a1_0025"  >
<polygon points="507,90 557,90 562,85 557,80 507,80 507,90 " style="fill:white; stroke-width:1; stroke:black; " description="&lt;b&gt;EKH77_RS02240&lt;/b&gt;&lt;br&gt;SDR family NAD(P)-dependent oxidoreductase&lt;br&gt;Location: 520767 - 510133" locus_tag="EKH77_RS02240" class="clusterblast-orf" id="dummy-1_h1_7_25"  />
</g>
<g id="a1_0026"  >
<polygon points="561,90 635,90 640,85 635,80 561,80 561,90 " style="fill:white; stroke-width:1; stroke:black; " description="&lt;b&gt;EKH77_RS02235&lt;/b&gt;&lt;br&gt;SDR family NAD(P)-dependent oxidoreductase&lt;br&gt;Location: 510265 - 494774" locus_tag="EKH77_RS02235" class="clusterblast-orf" id="dummy-1_h1_7_26"  />
</g>
<g id="a1_0027"  >
<polygon points="641,85 645,80 645,90 641,85 " style="fill:white; stroke-width:1; stroke:black; " description="&lt;b&gt;EKH77_RS02230&lt;/b&gt;&lt;br&gt;ABC transporter permease&lt;br&gt;Location: 494697 - 493831" locus_tag="EKH77_RS02230" class="clusterblast-orf" id="dummy-1_h1_7_27"  />
</g>
<g id="a1_0028"  >
<polygon points="646,85 651,80 651,80 651,90 651,90 646,85 " style="fill:white; stroke-width:1; stroke:black; " description="&lt;b&gt;EKH77_RS02225&lt;/b&gt;&lt;br&gt;ATP-binding cassette domain-containing protein&lt;br&gt;Location: 493779 - 492772" locus_tag="EKH77_RS02225" class="clusterblast-orf" id="dummy-1_h1_7_28"  />
</g>
<g id="a1_0029"  >
<polygon points="652,90 656,85 652,80 652,90 " style="fill:white; stroke-width:1; stroke:black; " description="&lt;b&gt;EKH77_RS02220&lt;/b&gt;&lt;br&gt;peptide chain release factor N(5)-glutamine methyltransferase&lt;br&gt;Location: 492547 - 491678" locus_tag="EKH77_RS02220" class="clusterblast-orf" id="dummy-1_h1_7_29"  />
</g>
<g id="a1_0030"  >
<polygon points="657,85 662,80 683,80 683,90 662,90 657,85 " style="fill:white; stroke-width:1; stroke:black; " description="&lt;b&gt;EKH77_RS02215&lt;/b&gt;&lt;br&gt;AMP-binding protein&lt;br&gt;Location: 491605 - 486377" locus_tag="EKH77_RS02215" class="clusterblast-orf" id="dummy-1_h1_7_30"  />
</g>
<g id="a1_0031"  >
<polygon points="684,85 689,80 695,80 695,90 689,90 684,85 " style="fill:white; stroke-width:1; stroke:black; " description="&lt;b&gt;EKH77_RS02210&lt;/b&gt;&lt;br&gt;aminodeoxychorismate synthase component I&lt;br&gt;Location: 486316 - 484196" locus_tag="EKH77_RS02210" class="clusterblast-orf" id="dummy-1_h1_7_31"  />
</g>
<g id="a1_0032"  >
<polygon points="695,85 699,80 699,90 695,85 " style="fill:white; stroke-width:1; stroke:black; " description="&lt;b&gt;EKH77_RS02205&lt;/b&gt;&lt;br&gt;thioesterase&lt;br&gt;Location: 484196 - 483438" locus_tag="EKH77_RS02205" class="clusterblast-orf" id="dummy-1_h1_7_32"  />
</g>
<g id="a1_0033"  >
<polygon points="699,85 700,80 700,90 699,85 " style="fill:white; stroke-width:1; stroke:black; " description="&lt;b&gt;EKH77_RS02200&lt;/b&gt;&lt;br&gt;ferredoxin&lt;br&gt;Location: 483392 - 483198" locus_tag="EKH77_RS02200" class="clusterblast-orf" id="dummy-1_h1_7_33"  />
</g>
<g id="a1_0034"  >
<polygon points="700,85 705,80 706,80 706,90 705,90 700,85 " style="fill:white; stroke-width:1; stroke:black; " description="&lt;b&gt;EKH77_RS02195&lt;/b&gt;&lt;br&gt;cytochrome P450&lt;br&gt;Location: 483198 - 482011" locus_tag="EKH77_RS02195" class="clusterblast-orf" id="dummy-1_h1_7_34"  />
</g>
<g id="a1_0035"  >
<polygon points="706,85 711,80 712,80 712,90 711,90 706,85 " style="fill:white; stroke-width:1; stroke:black; " description="&lt;b&gt;EKH77_RS02190&lt;/b&gt;&lt;br&gt;DegT/DnrJ/EryC1/StrS family aminotransferase&lt;br&gt;Location: 481969 - 480911" locus_tag="EKH77_RS02190" class="clusterblast-orf" id="dummy-1_h1_7_35"  />
</g>
<g id="a1_0036"  >
<polygon points="712,85 717,80 719,80 719,90 717,90 712,85 " style="fill:white; stroke-width:1; stroke:black; " description="&lt;b&gt;EKH77_RS02185&lt;/b&gt;&lt;br&gt;glycosyltransferase family 1 protein&lt;br&gt;Location: 480895 - 479519" locus_tag="EKH77_RS02185" class="clusterblast-orf" id="dummy-1_h1_7_36"  />
</g>
<g id="a1_0037"  >
<polygon points="720,90 731,90 736,85 731,80 720,80 720,90 " style="fill:white; stroke-width:1; stroke:black; " description="&lt;b&gt;EKH77_RS02180&lt;/b&gt;&lt;br&gt;helix-turn-helix domain-containing protein&lt;br&gt;Location: 479233 - 476231" locus_tag="EKH77_RS02180" class="clusterblast-orf" id="dummy-1_h1_7_37"  />
</g>
<g id="a1_0038"  >
<polygon points="741,90 744,90 749,85 744,80 741,80 741,90 " style="fill:white; stroke-width:1; stroke:black; " description="&lt;b&gt;EKH77_RS02175&lt;/b&gt;&lt;br&gt;helix-turn-helix transcriptional regulator&lt;br&gt;Location: 475159 - 473531" locus_tag="EKH77_RS02175" class="clusterblast-orf" id="dummy-1_h1_7_38"  />
</g>
<g id="a1_0039"  >
<polygon points="749,90 759,90 764,85 759,80 749,80 749,90 " style="fill:white; stroke-width:1; stroke:black; " description="&lt;b&gt;EKH77_RS02170&lt;/b&gt;&lt;br&gt;LuxR family transcriptional regulator&lt;br&gt;Location: 473526 - 470713" locus_tag="EKH77_RS02170" class="clusterblast-orf" id="dummy-1_h1_7_39"  />
</g>
<g id="a1_0040"  >
<polygon points="765,90 769,85 765,80 765,90 " style="fill:white; stroke-width:1; stroke:black; " description="&lt;b&gt;EKH77_RS02165&lt;/b&gt;&lt;br&gt;PAS and helix-turn-helix domain-containing protein&lt;br&gt;Location: 470413 - 469703" locus_tag="EKH77_RS02165" class="clusterblast-orf" id="dummy-1_h1_7_40"  />
</g>
<g id="a1_0041"  >
<polygon points="770,90 773,85 770,80 770,90 " style="fill:white; stroke-width:1; stroke:black; " description="&lt;b&gt;EKH77_RS02160&lt;/b&gt;&lt;br&gt;DUF4956 domain-containing protein&lt;br&gt;Location: 469530 - 468901" locus_tag="EKH77_RS02160" class="clusterblast-orf" id="dummy-1_h1_7_41"  />
</g>
<g id="a1_0042"  >
<polygon points="773,90 777,85 773,80 773,90 " style="fill:white; stroke-width:1; stroke:black; " description="&lt;b&gt;EKH77_RS02155&lt;/b&gt;&lt;br&gt;polyphosphate polymerase domain-containing protein&lt;br&gt;Location: 468904 - 468062" locus_tag="EKH77_RS02155" class="clusterblast-orf" id="dummy-1_h1_7_42"  />
</g>
<g id="a1_0043"  >
<polygon points="777,85 780,80 780,90 777,85 " style="fill:white; stroke-width:1; stroke:black; " description="&lt;b&gt;EKH77_RS02150&lt;/b&gt;&lt;br&gt;hypothetical protein&lt;br&gt;Location: 468095 - 467667" locus_tag="EKH77_RS02150" class="clusterblast-orf" id="dummy-1_h1_7_43"  />
</g>
</svg>
