<svg xmlns="http://www.w3.org/2000/svg" xmlns:xlink="http://www.w3.org/1999/xlink" version="1.1" x="0" y="0" height="230" width="800" viewBox="0 0 800 230" preserveAspectRatio="none"  >
<g label="Query sequence" class="clusterblast-cluster"  >
<text x="5" y="20" class="clusterblast-acc"  >
Query sequence</text>
<line x1="10" y1="35" x2="778.0" y2="35" style="stroke-width:1; stroke:grey; "  />
<polygon points="332,40 335,35 332,30 332,40 " style="fill:#d81515; stroke-width:1; stroke:black; " description="&lt;b&gt;MCIC6FC_011964&lt;/b&gt;&lt;br&gt;hypothetical protein&lt;br&gt;Location: 48 - 393" locus_tag="MCIC6FC_011964" class="clusterblast-orf" id="dummy-1_q0_0_all"  />
<polygon points="337,40 344,40 349,35 344,30 337,30 337,40 " style="fill:#15d815; stroke-width:1; stroke:black; " description="&lt;b&gt;MCIC6FC_011965&lt;/b&gt;&lt;br&gt;hypothetical protein&lt;br&gt;Location: 663 - 2340" locus_tag="MCIC6FC_011965" class="clusterblast-orf" id="dummy-1_q1_0_all"  />
<polygon points="349,40 357,40 362,35 357,30 349,30 349,40 " style="fill:#1515d8; stroke-width:1; stroke:black; " description="&lt;b&gt;MCIC6FC_011966&lt;/b&gt;&lt;br&gt;hypothetical protein&lt;br&gt;Location: 2343 - 4090" locus_tag="MCIC6FC_011966" class="clusterblast-orf" id="dummy-1_q2_0_all"  />
<polygon points="362,40 376,40 381,35 376,30 362,30 362,40 " style="fill:#1515d8; stroke-width:1; stroke:black; " description="&lt;b&gt;MCIC6FC_011967&lt;/b&gt;&lt;br&gt;hypothetical protein&lt;br&gt;Location: 4152 - 6743" locus_tag="MCIC6FC_011967" class="clusterblast-orf" id="dummy-1_q3_0_all"  />
<polygon points="385,40 419,40 424,35 419,30 385,30 385,40 " style="fill:white; stroke-width:1; stroke:black; " description="&lt;b&gt;MCIC6FC_011968&lt;/b&gt;&lt;br&gt;hypothetical protein&lt;br&gt;Location: 7256 - 12594" locus_tag="MCIC6FC_011968" class="clusterblast-orf" id="dummy-1_q4_0_all"  />
<polygon points="425,35 430,30 430,30 430,40 430,40 425,35 " style="fill:white; stroke-width:1; stroke:black; " description="&lt;b&gt;MCIC6FC_011969&lt;/b&gt;&lt;br&gt;hypothetical protein&lt;br&gt;Location: 12720 - 13468" locus_tag="MCIC6FC_011969" class="clusterblast-orf" id="dummy-1_q5_0_all"  />
<polygon points="432,40 436,40 441,35 436,30 432,30 432,40 " style="fill:white; stroke-width:1; stroke:black; " description="&lt;b&gt;MCIC6FC_011970&lt;/b&gt;&lt;br&gt;hypothetical protein&lt;br&gt;Location: 13682 - 15001" locus_tag="MCIC6FC_011970" class="clusterblast-orf" id="dummy-1_q6_0_all"  />
<polygon points="442,35 447,30 447,30 447,40 447,40 442,35 " style="fill:white; stroke-width:1; stroke:black; " description="&lt;b&gt;MCIC6FC_011971&lt;/b&gt;&lt;br&gt;hypothetical protein&lt;br&gt;Location: 15057 - 15775" locus_tag="MCIC6FC_011971" class="clusterblast-orf" id="dummy-1_q7_0_all"  />
</g>
<g label="NZ_QJKF01000015" description="NZ_QJKF01000015 (47984-155231): Nocardia tenerifensis strain DSM 44704 Ga0244... (3% of genes show similarity), NRPS,phosphonate,terpene" class="clusterblast-cluster"  >
<text x="5" y="70" class="clusterblast-acc"  >
<a xlink:href="https://antismash-db.secondarymetabolites.org/area.html?record=NZ_QJKF01000015&amp;start=47984&amp;end=155231" target="_blank">NZ_QJKF01000015 (47984-155231)</a>: Nocardia tenerifensis strain DSM 44704 Ga0244... (3% of genes show similarity), NRPS,phosphonate,terpene</text>
<line x1="10" y1="85" x2="778.0" y2="85" style="stroke-width:1; stroke:grey; "  />
</g>
<g id="a1_000"  >
<polygon points="0,85 1,80 1,90 0,85 " style="fill:white; stroke-width:1; stroke:black; " description="&lt;b&gt;DFR70_RS35985&lt;/b&gt;&lt;br&gt;heavy-metal-associated domain-containing protein&lt;br&gt;Location: 154895 - 154686" locus_tag="DFR70_RS35985" class="clusterblast-orf" id="dummy-1_h1_4_0"  />
</g>
<g id="a1_001"  >
<polygon points="1,85 4,80 4,90 1,85 " style="fill:white; stroke-width:1; stroke:black; " description="&lt;b&gt;DFR70_RS35980&lt;/b&gt;&lt;br&gt;nuclear transport factor 2 family protein&lt;br&gt;Location: 154689 - 154273" locus_tag="DFR70_RS35980" class="clusterblast-orf" id="dummy-1_h1_4_1"  />
</g>
<g id="a1_002"  >
<polygon points="5,90 9,85 5,80 5,90 " style="fill:white; stroke-width:1; stroke:black; " description="&lt;b&gt;DFR70_RS35975&lt;/b&gt;&lt;br&gt;TetR/AcrR family transcriptional regulator&lt;br&gt;Location: 154173 - 153544" locus_tag="DFR70_RS35975" class="clusterblast-orf" id="dummy-1_h1_4_2"  />
</g>
<g id="a1_003"  >
<polygon points="10,85 15,80 15,80 15,90 15,90 10,85 " style="fill:white; stroke-width:1; stroke:black; " description="&lt;b&gt;DFR70_RS35970&lt;/b&gt;&lt;br&gt;TetR/AcrR family transcriptional regulator&lt;br&gt;Location: 153426 - 152833" locus_tag="DFR70_RS35970" class="clusterblast-orf" id="dummy-1_h1_4_3"  />
</g>
<g id="a1_004"  >
<polygon points="15,90 19,85 15,80 15,90 " style="fill:white; stroke-width:1; stroke:black; " description="&lt;b&gt;DFR70_RS35965&lt;/b&gt;&lt;br&gt;DUF1772 domain-containing protein&lt;br&gt;Location: 152749 - 152234" locus_tag="DFR70_RS35965" class="clusterblast-orf" id="dummy-1_h1_4_4"  />
</g>
<g id="a1_005"  >
<polygon points="20,85 25,80 27,80 27,90 25,90 20,85 " style="fill:white; stroke-width:1; stroke:black; " description="&lt;b&gt;DFR70_RS35960&lt;/b&gt;&lt;br&gt;zinc-dependent alcohol dehydrogenase family protein&lt;br&gt;Location: 152111 - 151089" locus_tag="DFR70_RS35960" class="clusterblast-orf" id="dummy-1_h1_4_5"  />
</g>
<g id="a1_006"  >
<polygon points="32,90 33,85 32,80 32,90 " style="fill:white; stroke-width:1; stroke:black; " description="&lt;b&gt;DFR70_RS35955&lt;/b&gt;&lt;br&gt;hypothetical protein&lt;br&gt;Location: 150485 - 150270" locus_tag="DFR70_RS35955" class="clusterblast-orf" id="dummy-1_h1_4_6"  />
</g>
<g id="a1_007"  >
<polygon points="34,85 39,80 39,80 39,90 39,90 34,85 " style="fill:white; stroke-width:1; stroke:black; " description="&lt;b&gt;DFR70_RS35950&lt;/b&gt;&lt;br&gt;CGNR zinc finger domain-containing protein&lt;br&gt;Location: 150163 - 149525" locus_tag="DFR70_RS35950" class="clusterblast-orf" id="dummy-1_h1_4_7"  />
</g>
<g id="a1_008"  >
<polygon points="39,90 39,90 44,85 39,80 39,80 39,90 " style="fill:white; stroke-width:1; stroke:black; " description="&lt;b&gt;DFR70_RS35945&lt;/b&gt;&lt;br&gt;class I SAM-dependent methyltransferase&lt;br&gt;Location: 149511 - 148765" locus_tag="DFR70_RS35945" class="clusterblast-orf" id="dummy-1_h1_4_8"  />
</g>
<g id="a1_009"  >
<polygon points="44,85 49,80 52,80 52,90 49,90 44,85 " style="fill:white; stroke-width:1; stroke:black; " description="&lt;b&gt;DFR70_RS35940&lt;/b&gt;&lt;br&gt;aspartate carbamoyltransferase&lt;br&gt;Location: 148758 - 147715" locus_tag="DFR70_RS35940" class="clusterblast-orf" id="dummy-1_h1_4_9"  />
</g>
<g id="a1_0010"  >
<polygon points="52,85 57,80 61,80 61,90 57,90 52,85 " style="fill:white; stroke-width:1; stroke:black; " description="&lt;b&gt;DFR70_RS35935&lt;/b&gt;&lt;br&gt;MFS transporter&lt;br&gt;Location: 147682 - 146438" locus_tag="DFR70_RS35935" class="clusterblast-orf" id="dummy-1_h1_4_10"  />
</g>
<g id="a1_0011"  >
<polygon points="61,85 66,80 70,80 70,90 66,90 61,85 " style="fill:white; stroke-width:1; stroke:black; " description="&lt;b&gt;DFR70_RS35930&lt;/b&gt;&lt;br&gt;ATP-grasp domain-containing protein&lt;br&gt;Location: 146441 - 145239" locus_tag="DFR70_RS35930" class="clusterblast-orf" id="dummy-1_h1_4_11"  />
</g>
<g id="a1_0012"  >
<polygon points="70,85 75,80 79,80 79,90 75,90 70,85 " style="fill:white; stroke-width:1; stroke:black; " description="&lt;b&gt;DFR70_RS35925&lt;/b&gt;&lt;br&gt;ATP-grasp domain-containing protein&lt;br&gt;Location: 145242 - 144046" locus_tag="DFR70_RS35925" class="clusterblast-orf" id="dummy-1_h1_4_12"  />
</g>
<g id="a1_0013"  >
<polygon points="79,85 84,80 89,80 89,90 84,90 79,85 " style="fill:white; stroke-width:1; stroke:black; " description="&lt;b&gt;DFR70_RS35920&lt;/b&gt;&lt;br&gt;phosphonoacetaldehyde dehydrogenase&lt;br&gt;Location: 144038 - 142599" locus_tag="DFR70_RS35920" class="clusterblast-orf" id="dummy-1_h1_4_13"  />
</g>
<g id="a1_0014"  >
<polygon points="89,85 94,80 97,80 97,90 94,90 89,85 " style="fill:white; stroke-width:1; stroke:black; " description="&lt;b&gt;DFR70_RS35915&lt;/b&gt;&lt;br&gt;hypothetical protein&lt;br&gt;Location: 142602 - 141550" locus_tag="DFR70_RS35915" class="clusterblast-orf" id="dummy-1_h1_4_14"  />
</g>
<g id="a1_0015"  >
<polygon points="97,85 98,80 98,90 97,85 " style="fill:white; stroke-width:1; stroke:black; " description="&lt;b&gt;DFR70_RS35910&lt;/b&gt;&lt;br&gt;hypothetical protein&lt;br&gt;Location: 141553 - 141356" locus_tag="DFR70_RS35910" class="clusterblast-orf" id="dummy-1_h1_4_15"  />
</g>
<g id="a1_0016"  >
<polygon points="99,85 104,80 105,80 105,90 104,90 99,85 " style="fill:white; stroke-width:1; stroke:black; " description="&lt;b&gt;DFR70_RS35905&lt;/b&gt;&lt;br&gt;TauD/TfdA family dioxygenase&lt;br&gt;Location: 141341 - 140469" locus_tag="DFR70_RS35905" class="clusterblast-orf" id="dummy-1_h1_4_16"  />
</g>
<g id="a1_0017"  >
<polygon points="105,85 110,80 114,80 114,90 110,90 105,85 " style="fill:white; stroke-width:1; stroke:black; " description="&lt;b&gt;DFR70_RS35900&lt;/b&gt;&lt;br&gt;hypothetical protein&lt;br&gt;Location: 140479 - 139253" locus_tag="DFR70_RS35900" class="clusterblast-orf" id="dummy-1_h1_4_17"  />
</g>
<g id="a1_0018"  >
<polygon points="114,85 119,80 122,80 122,90 119,90 114,85 " style="fill:white; stroke-width:1; stroke:black; " description="&lt;b&gt;DFR70_RS35895&lt;/b&gt;&lt;br&gt;phosphonopyruvate decarboxylase&lt;br&gt;Location: 139275 - 138097" locus_tag="DFR70_RS35895" class="clusterblast-orf" id="dummy-1_h1_4_18"  />
</g>
<g id="a1_0019"  >
<polygon points="122,85 127,80 136,80 136,90 127,90 122,85 " style="fill:white; stroke-width:1; stroke:black; " description="&lt;b&gt;DFR70_RS35890&lt;/b&gt;&lt;br&gt;S9 family peptidase&lt;br&gt;Location: 138103 - 136229" locus_tag="DFR70_RS35890" class="clusterblast-orf" id="dummy-1_h1_4_19"  />
</g>
<g id="a1_0020"  >
<polygon points="136,85 141,80 143,80 143,90 141,90 136,85 " style="fill:white; stroke-width:1; stroke:black; " description="&lt;b&gt;DFR70_RS35885&lt;/b&gt;&lt;br&gt;aminotransferase class I/II-fold pyridoxal phosphate-dependent enzyme&lt;br&gt;Location: 136232 - 135228" locus_tag="DFR70_RS35885" class="clusterblast-orf" id="dummy-1_h1_4_20"  />
</g>
<g id="a1_0021"  >
<polygon points="143,85 148,80 159,80 159,90 148,90 143,85 " style="fill:white; stroke-width:1; stroke:black; " description="&lt;b&gt;DFR70_RS45675&lt;/b&gt;&lt;br&gt;isocitrate lyase/phosphoenolpyruvate mutase family protein&lt;br&gt;Location: 135231 - 133117" locus_tag="DFR70_RS45675" class="clusterblast-orf" id="dummy-1_h1_4_21"  />
</g>
<g id="a1_0022"  >
<polygon points="163,90 165,90 170,85 165,80 163,80 163,90 " style="fill:white; stroke-width:1; stroke:black; " description="&lt;b&gt;DFR70_RS35875&lt;/b&gt;&lt;br&gt;sulfate adenylyltransferase subunit CysD&lt;br&gt;Location: 132468 - 131557" locus_tag="DFR70_RS35875" class="clusterblast-orf" id="dummy-1_h1_4_22"  />
</g>
<g id="a1_0023"  >
<polygon points="170,90 179,90 184,85 179,80 170,80 170,90 " style="fill:white; stroke-width:1; stroke:black; " description="&lt;b&gt;DFR70_RS35870&lt;/b&gt;&lt;br&gt;adenylyl-sulfate kinase&lt;br&gt;Location: 131557 - 129716" locus_tag="DFR70_RS35870" class="clusterblast-orf" id="dummy-1_h1_4_23"  />
</g>
<g id="a1_0024"  >
<polygon points="183,85 188,80 191,80 191,90 188,90 183,85 " style="fill:white; stroke-width:1; stroke:black; " description="&lt;b&gt;DFR70_RS35865&lt;/b&gt;&lt;br&gt;MFS transporter&lt;br&gt;Location: 129726 - 128644" locus_tag="DFR70_RS35865" class="clusterblast-orf" id="dummy-1_h1_4_24"  />
</g>
<g id="a1_0025"  >
<polygon points="194,90 198,90 203,85 198,80 194,80 194,90 " style="fill:white; stroke-width:1; stroke:black; " description="&lt;b&gt;DFR70_RS35860&lt;/b&gt;&lt;br&gt;membrane dipeptidase&lt;br&gt;Location: 128261 - 127062" locus_tag="DFR70_RS35860" class="clusterblast-orf" id="dummy-1_h1_4_25"  />
</g>
<g id="a1_0026"  >
<polygon points="203,90 205,90 210,85 205,80 203,80 203,90 " style="fill:white; stroke-width:1; stroke:black; " description="&lt;b&gt;DFR70_RS35855&lt;/b&gt;&lt;br&gt;NADP-dependent oxidoreductase&lt;br&gt;Location: 127005 - 126112" locus_tag="DFR70_RS35855" class="clusterblast-orf" id="dummy-1_h1_4_26"  />
</g>
<g id="a1_0027"  >
<polygon points="210,90 218,90 223,85 218,80 210,80 210,90 " style="fill:white; stroke-width:1; stroke:black; " description="&lt;b&gt;DFR70_RS35850&lt;/b&gt;&lt;br&gt;CocE/NonD family hydrolase&lt;br&gt;Location: 126036 - 124321" locus_tag="DFR70_RS35850" class="clusterblast-orf" id="dummy-1_h1_4_27"  />
</g>
<g id="a1_0028"  >
<polygon points="223,90 226,85 223,80 223,90 " style="fill:white; stroke-width:1; stroke:black; " description="&lt;b&gt;DFR70_RS35845&lt;/b&gt;&lt;br&gt;antibiotic biosynthesis monooxygenase&lt;br&gt;Location: 124297 - 123956" locus_tag="DFR70_RS35845" class="clusterblast-orf" id="dummy-1_h1_4_28"  />
</g>
<g id="a1_0029"  >
<polygon points="230,90 231,85 230,80 230,90 " style="fill:white; stroke-width:1; stroke:black; " description="&lt;b&gt;DFR70_RS35840&lt;/b&gt;&lt;br&gt;pyrroloquinoline quinone precursor peptide PqqA&lt;br&gt;Location: 123370 - 123281" locus_tag="DFR70_RS35840" class="clusterblast-orf" id="dummy-1_h1_4_29"  />
</g>
<g id="a1_0030"  >
<polygon points="231,90 231,90 236,85 231,80 231,80 231,90 " style="fill:#15d815; stroke-width:1; stroke:black; " description="&lt;b&gt;DFR70_RS35835&lt;/b&gt;&lt;br&gt;pyrroloquinoline-quinone synthase PqqC&lt;br&gt;Location: 123245 - 122529&lt;br&gt;&lt;br&gt;&lt;b&gt;BlastP hit with MCIC6FC_011965&lt;/b&gt;&lt;br&gt;Percentage identity: 48&lt;br&gt;Percentage coverage: 42&lt;br&gt;BLAST bit score: 215&lt;br&gt;E-value: 1.8e-53" locus_tag="DFR70_RS35835" class="clusterblast-orf" id="dummy-1_h1_4_30"  />
</g>
<g id="a1_0031"  >
<polygon points="236,90 238,85 236,80 236,90 " style="fill:white; stroke-width:1; stroke:black; " description="&lt;b&gt;DFR70_RS35830&lt;/b&gt;&lt;br&gt;pyrroloquinoline quinone biosynthesis peptide chaperone PqqD&lt;br&gt;Location: 122532 - 122269" locus_tag="DFR70_RS35830" class="clusterblast-orf" id="dummy-1_h1_4_31"  />
</g>
<g id="a1_0032"  >
<polygon points="238,90 241,90 246,85 241,80 238,80 238,90 " style="fill:#1515d8; stroke-width:1; stroke:black; " description="&lt;b&gt;DFR70_RS35825&lt;/b&gt;&lt;br&gt;pyrroloquinoline quinone biosynthesis protein PqqE&lt;br&gt;Location: 122276 - 121185&lt;br&gt;&lt;br&gt;&lt;b&gt;BlastP hit with MCIC6FC_011966&lt;/b&gt;&lt;br&gt;Percentage identity: 53&lt;br&gt;Percentage coverage: 64&lt;br&gt;BLAST bit score: 379&lt;br&gt;E-value: 5.7e-103" locus_tag="DFR70_RS35825" class="clusterblast-orf" id="dummy-1_h1_4_32"  />
</g>
<g id="a1_0033"  >
<polygon points="246,90 247,90 252,85 247,80 246,80 246,90 " style="fill:#15d815; stroke-width:1; stroke:black; " description="&lt;b&gt;DFR70_RS35820&lt;/b&gt;&lt;br&gt;pyrroloquinoline quinone biosynthesis protein PqqB&lt;br&gt;Location: 121194 - 120292&lt;br&gt;&lt;br&gt;&lt;b&gt;BlastP hit with MCIC6FC_011965&lt;/b&gt;&lt;br&gt;Percentage identity: 37&lt;br&gt;Percentage coverage: 56&lt;br&gt;BLAST bit score: 190&lt;br&gt;E-value: 3.7e-46" locus_tag="DFR70_RS35820" class="clusterblast-orf" id="dummy-1_h1_4_33"  />
</g>
<g id="a1_0034"  >
<polygon points="252,85 257,80 263,80 263,90 257,90 252,85 " style="fill:white; stroke-width:1; stroke:black; " description="&lt;b&gt;DFR70_RS35815&lt;/b&gt;&lt;br&gt;PQQ-binding-like beta-propeller repeat protein&lt;br&gt;Location: 120281 - 118800" locus_tag="DFR70_RS35815" class="clusterblast-orf" id="dummy-1_h1_4_34"  />
</g>
<g id="a1_0035"  >
<polygon points="265,85 270,80 291,80 291,90 270,90 265,85 " style="fill:white; stroke-width:1; stroke:black; " description="&lt;b&gt;DFR70_RS35810&lt;/b&gt;&lt;br&gt;hypothetical protein&lt;br&gt;Location: 118529 - 115071" locus_tag="DFR70_RS35810" class="clusterblast-orf" id="dummy-1_h1_4_35"  />
</g>
<g id="a1_0036"  >
<polygon points="292,90 296,85 292,80 292,90 " style="fill:white; stroke-width:1; stroke:black; " description="&lt;b&gt;DFR70_RS35805&lt;/b&gt;&lt;br&gt;dihydrofolate reductase family protein&lt;br&gt;Location: 114863 - 114285" locus_tag="DFR70_RS35805" class="clusterblast-orf" id="dummy-1_h1_4_36"  />
</g>
<g id="a1_0037"  >
<polygon points="297,85 301,80 301,90 297,85 " style="fill:white; stroke-width:1; stroke:black; " description="&lt;b&gt;DFR70_RS35800&lt;/b&gt;&lt;br&gt;TetR/AcrR family transcriptional regulator&lt;br&gt;Location: 114225 - 113656" locus_tag="DFR70_RS35800" class="clusterblast-orf" id="dummy-1_h1_4_37"  />
</g>
<g id="a1_0038"  >
<polygon points="302,90 306,85 302,80 302,90 " style="fill:white; stroke-width:1; stroke:black; " description="&lt;b&gt;DFR70_RS35795&lt;/b&gt;&lt;br&gt;hypothetical protein&lt;br&gt;Location: 113503 - 112979" locus_tag="DFR70_RS35795" class="clusterblast-orf" id="dummy-1_h1_4_38"  />
</g>
<g id="a1_0039"  >
<polygon points="306,90 309,85 306,80 306,90 " style="fill:white; stroke-width:1; stroke:black; " description="&lt;b&gt;DFR70_RS35790&lt;/b&gt;&lt;br&gt;hypothetical protein&lt;br&gt;Location: 112898 - 112581" locus_tag="DFR70_RS35790" class="clusterblast-orf" id="dummy-1_h1_4_39"  />
</g>
<g id="a1_0040"  >
<polygon points="310,90 312,85 310,80 310,90 " style="fill:white; stroke-width:1; stroke:black; " description="&lt;b&gt;DFR70_RS35785&lt;/b&gt;&lt;br&gt;hypothetical protein&lt;br&gt;Location: 112364 - 112089" locus_tag="DFR70_RS35785" class="clusterblast-orf" id="dummy-1_h1_4_40"  />
</g>
<g id="a1_0041"  >
<polygon points="313,85 318,80 323,80 323,90 318,90 313,85 " style="fill:white; stroke-width:1; stroke:black; " description="&lt;b&gt;DFR70_RS35780&lt;/b&gt;&lt;br&gt;carotenoid oxygenase family protein&lt;br&gt;Location: 112036 - 110651" locus_tag="DFR70_RS35780" class="clusterblast-orf" id="dummy-1_h1_4_41"  />
</g>
<g id="a1_0042"  >
<polygon points="323,85 328,80 329,80 329,90 328,90 323,85 " style="fill:white; stroke-width:1; stroke:black; " description="&lt;b&gt;DFR70_RS35775&lt;/b&gt;&lt;br&gt;lycopene cyclase domain-containing protein&lt;br&gt;Location: 110649 - 109819" locus_tag="DFR70_RS35775" class="clusterblast-orf" id="dummy-1_h1_4_42"  />
</g>
<g id="a1_0043"  >
<polygon points="329,85 334,80 336,80 336,90 334,90 329,85 " style="fill:white; stroke-width:1; stroke:black; " description="&lt;b&gt;DFR70_RS35770&lt;/b&gt;&lt;br&gt;phytoene/squalene synthase family protein&lt;br&gt;Location: 109822 - 108887" locus_tag="DFR70_RS35770" class="clusterblast-orf" id="dummy-1_h1_4_43"  />
</g>
<g id="a1_0044"  >
<polygon points="336,85 341,80 347,80 347,90 341,90 336,85 " style="fill:white; stroke-width:1; stroke:black; " description="&lt;b&gt;DFR70_RS35765&lt;/b&gt;&lt;br&gt;phytoene desaturase&lt;br&gt;Location: 108883 - 107387" locus_tag="DFR70_RS35765" class="clusterblast-orf" id="dummy-1_h1_4_44"  />
</g>
<g id="a1_0045"  >
<polygon points="347,85 352,80 352,80 352,90 352,90 347,85 " style="fill:white; stroke-width:1; stroke:black; " description="&lt;b&gt;DFR70_RS35760&lt;/b&gt;&lt;br&gt;hypothetical protein&lt;br&gt;Location: 107343 - 106630" locus_tag="DFR70_RS35760" class="clusterblast-orf" id="dummy-1_h1_4_45"  />
</g>
<g id="a1_0046"  >
<polygon points="354,85 357,80 357,90 354,85 " style="fill:white; stroke-width:1; stroke:black; " description="&lt;b&gt;DFR70_RS35755&lt;/b&gt;&lt;br&gt;hypothetical protein&lt;br&gt;Location: 106439 - 106014" locus_tag="DFR70_RS35755" class="clusterblast-orf" id="dummy-1_h1_4_46"  />
</g>
<g id="a1_0047"  >
<polygon points="357,85 361,80 361,90 357,85 " style="fill:white; stroke-width:1; stroke:black; " description="&lt;b&gt;DFR70_RS35750&lt;/b&gt;&lt;br&gt;hypothetical protein&lt;br&gt;Location: 106014 - 105400" locus_tag="DFR70_RS35750" class="clusterblast-orf" id="dummy-1_h1_4_47"  />
</g>
<g id="a1_0048"  >
<polygon points="363,85 365,80 365,90 363,85 " style="fill:white; stroke-width:1; stroke:black; " description="&lt;b&gt;DFR70_RS35745&lt;/b&gt;&lt;br&gt;acyl carrier protein&lt;br&gt;Location: 105091 - 104831" locus_tag="DFR70_RS35745" class="clusterblast-orf" id="dummy-1_h1_4_48"  />
</g>
<g id="a1_0049"  >
<polygon points="365,85 370,80 371,80 371,90 370,90 365,85 " style="fill:white; stroke-width:1; stroke:black; " description="&lt;b&gt;DFR70_RS35740&lt;/b&gt;&lt;br&gt;acyl-ACP desaturase&lt;br&gt;Location: 104834 - 104022" locus_tag="DFR70_RS35740" class="clusterblast-orf" id="dummy-1_h1_4_49"  />
</g>
<g id="a1_0050"  >
<polygon points="372,85 377,80 381,80 381,90 377,90 372,85 " style="fill:white; stroke-width:1; stroke:black; " description="&lt;b&gt;DFR70_RS35735&lt;/b&gt;&lt;br&gt;cytochrome P450&lt;br&gt;Location: 103944 - 102676" locus_tag="DFR70_RS35735" class="clusterblast-orf" id="dummy-1_h1_4_50"  />
</g>
<g id="a1_0051"  >
<polygon points="381,85 386,80 393,80 393,90 386,90 381,85 " style="fill:white; stroke-width:1; stroke:black; " description="&lt;b&gt;DFR70_RS35730&lt;/b&gt;&lt;br&gt;fatty acyl-AMP ligase&lt;br&gt;Location: 102679 - 101006" locus_tag="DFR70_RS35730" class="clusterblast-orf" id="dummy-1_h1_4_51"  />
</g>
<g id="a1_0052"  >
<polygon points="398,90 403,90 408,85 403,80 398,80 398,90 " style="fill:white; stroke-width:1; stroke:black; " description="&lt;b&gt;DFR70_RS35725&lt;/b&gt;&lt;br&gt;hypothetical protein&lt;br&gt;Location: 100370 - 98964" locus_tag="DFR70_RS35725" class="clusterblast-orf" id="dummy-1_h1_4_52"  />
</g>
<g id="a1_0053"  >
<polygon points="409,90 411,85 409,80 409,90 " style="fill:white; stroke-width:1; stroke:black; " description="&lt;b&gt;DFR70_RS35720&lt;/b&gt;&lt;br&gt;acyl carrier protein&lt;br&gt;Location: 98894 - 98655" locus_tag="DFR70_RS35720" class="clusterblast-orf" id="dummy-1_h1_4_53"  />
</g>
<g id="a1_0054"  >
<polygon points="411,85 416,80 418,80 418,90 416,90 411,85 " style="fill:white; stroke-width:1; stroke:black; " description="&lt;b&gt;DFR70_RS35715&lt;/b&gt;&lt;br&gt;patatin-like phospholipase family protein&lt;br&gt;Location: 98570 - 97698" locus_tag="DFR70_RS35715" class="clusterblast-orf" id="dummy-1_h1_4_54"  />
</g>
<g id="a1_0055"  >
<polygon points="421,85 424,80 424,90 421,85 " style="fill:white; stroke-width:1; stroke:black; " description="&lt;b&gt;DFR70_RS35710&lt;/b&gt;&lt;br&gt;hypothetical protein&lt;br&gt;Location: 97190 - 96783" locus_tag="DFR70_RS35710" class="clusterblast-orf" id="dummy-1_h1_4_55"  />
</g>
<g id="a1_0056"  >
<polygon points="427,85 431,80 431,90 427,85 " style="fill:white; stroke-width:1; stroke:black; " description="&lt;b&gt;DFR70_RS35705&lt;/b&gt;&lt;br&gt;GNAT family N-acetyltransferase&lt;br&gt;Location: 96385 - 95852" locus_tag="DFR70_RS35705" class="clusterblast-orf" id="dummy-1_h1_4_56"  />
</g>
<g id="a1_0057"  >
<polygon points="433,85 437,80 437,90 433,85 " style="fill:white; stroke-width:1; stroke:black; " description="&lt;b&gt;DFR70_RS35700&lt;/b&gt;&lt;br&gt;hypothetical protein&lt;br&gt;Location: 95532 - 95053" locus_tag="DFR70_RS35700" class="clusterblast-orf" id="dummy-1_h1_4_57"  />
</g>
<g id="a1_0058"  >
<polygon points="438,90 440,85 438,80 438,90 " style="fill:white; stroke-width:1; stroke:black; " description="&lt;b&gt;DFR70_RS35695&lt;/b&gt;&lt;br&gt;hypothetical protein&lt;br&gt;Location: 94924 - 94661" locus_tag="DFR70_RS35695" class="clusterblast-orf" id="dummy-1_h1_4_58"  />
</g>
<g id="a1_0059"  >
<polygon points="440,90 456,90 461,85 456,80 440,80 440,90 " style="fill:white; stroke-width:1; stroke:black; " description="&lt;b&gt;DFR70_RS35690&lt;/b&gt;&lt;br&gt;AfsR/SARP family transcriptional regulator&lt;br&gt;Location: 94585 - 91745" locus_tag="DFR70_RS35690" class="clusterblast-orf" id="dummy-1_h1_4_59"  />
</g>
<g id="a1_0060"  >
<polygon points="462,90 473,90 478,85 473,80 462,80 462,90 " style="fill:white; stroke-width:1; stroke:black; " description="&lt;b&gt;DFR70_RS35685&lt;/b&gt;&lt;br&gt;MMPL family transporter&lt;br&gt;Location: 91578 - 89398" locus_tag="DFR70_RS35685" class="clusterblast-orf" id="dummy-1_h1_4_60"  />
</g>
<g id="a1_0061"  >
<polygon points="479,90 482,90 487,85 482,80 479,80 479,90 " style="fill:white; stroke-width:1; stroke:black; " description="&lt;b&gt;DFR70_RS35680&lt;/b&gt;&lt;br&gt;sensor histidine kinase&lt;br&gt;Location: 89327 - 88155" locus_tag="DFR70_RS35680" class="clusterblast-orf" id="dummy-1_h1_4_61"  />
</g>
<g id="a1_0062"  >
<polygon points="487,90 487,90 492,85 487,80 487,80 487,90 " style="fill:white; stroke-width:1; stroke:black; " description="&lt;b&gt;DFR70_RS35675&lt;/b&gt;&lt;br&gt;response regulator transcription factor&lt;br&gt;Location: 88134 - 87451" locus_tag="DFR70_RS35675" class="clusterblast-orf" id="dummy-1_h1_4_62"  />
</g>
<g id="a1_0063"  >
<polygon points="493,90 497,85 493,80 493,90 " style="fill:white; stroke-width:1; stroke:black; " description="&lt;b&gt;DFR70_RS35670&lt;/b&gt;&lt;br&gt;VanZ family protein&lt;br&gt;Location: 87341 - 86787" locus_tag="DFR70_RS35670" class="clusterblast-orf" id="dummy-1_h1_4_63"  />
</g>
<g id="a1_0064"  >
<polygon points="498,85 503,80 505,80 505,90 503,90 498,85 " style="fill:white; stroke-width:1; stroke:black; " description="&lt;b&gt;DFR70_RS35665&lt;/b&gt;&lt;br&gt;DMT family transporter&lt;br&gt;Location: 86653 - 85760" locus_tag="DFR70_RS35665" class="clusterblast-orf" id="dummy-1_h1_4_64"  />
</g>
<g id="a1_0065"  >
<polygon points="505,85 510,80 513,80 513,90 510,90 505,85 " style="fill:white; stroke-width:1; stroke:black; " description="&lt;b&gt;DFR70_RS35660&lt;/b&gt;&lt;br&gt;fatty acid desaturase family protein&lt;br&gt;Location: 85763 - 84648" locus_tag="DFR70_RS35660" class="clusterblast-orf" id="dummy-1_h1_4_65"  />
</g>
<g id="a1_0066"  >
<polygon points="516,85 521,80 521,80 521,90 521,90 516,85 " style="fill:white; stroke-width:1; stroke:black; " description="&lt;b&gt;DFR70_RS35655&lt;/b&gt;&lt;br&gt;methyltransferase domain-containing protein&lt;br&gt;Location: 84267 - 83554" locus_tag="DFR70_RS35655" class="clusterblast-orf" id="dummy-1_h1_4_66"  />
</g>
<g id="a1_0067"  >
<polygon points="522,85 523,80 523,90 522,85 " style="fill:white; stroke-width:1; stroke:black; " description="&lt;b&gt;DFR70_RS35650&lt;/b&gt;&lt;br&gt;hypothetical protein&lt;br&gt;Location: 83448 - 83209" locus_tag="DFR70_RS35650" class="clusterblast-orf" id="dummy-1_h1_4_67"  />
</g>
<g id="a1_0068"  >
<polygon points="524,85 529,80 540,80 540,90 529,90 524,85 " style="fill:white; stroke-width:1; stroke:black; " description="&lt;b&gt;DFR70_RS35645&lt;/b&gt;&lt;br&gt;ATP-binding cassette domain-containing protein&lt;br&gt;Location: 83183 - 80889" locus_tag="DFR70_RS35645" class="clusterblast-orf" id="dummy-1_h1_4_68"  />
</g>
<g id="a1_0069"  >
<polygon points="541,85 543,80 543,90 541,85 " style="fill:white; stroke-width:1; stroke:black; " description="&lt;b&gt;DFR70_RS35640&lt;/b&gt;&lt;br&gt;DUF5132 domain-containing protein&lt;br&gt;Location: 80843 - 80571" locus_tag="DFR70_RS35640" class="clusterblast-orf" id="dummy-1_h1_4_69"  />
</g>
<g id="a1_0070"  >
<polygon points="543,85 548,80 635,80 635,90 548,90 543,85 " style="fill:white; stroke-width:1; stroke:black; " description="&lt;b&gt;DFR70_RS35635&lt;/b&gt;&lt;br&gt;non-ribosomal peptide synthetase&lt;br&gt;Location: 80509 - 67985" locus_tag="DFR70_RS35635" class="clusterblast-orf" id="dummy-1_h1_4_70"  />
</g>
<g id="a1_0071"  >
<polygon points="637,90 642,90 647,85 642,80 637,80 637,90 " style="fill:white; stroke-width:1; stroke:black; " description="&lt;b&gt;DFR70_RS35630&lt;/b&gt;&lt;br&gt;TerD family protein&lt;br&gt;Location: 67600 - 66269" locus_tag="DFR70_RS35630" class="clusterblast-orf" id="dummy-1_h1_4_71"  />
</g>
<g id="a1_0072"  >
<polygon points="647,85 652,80 652,80 652,90 652,90 647,85 " style="fill:white; stroke-width:1; stroke:black; " description="&lt;b&gt;DFR70_RS35625&lt;/b&gt;&lt;br&gt;TerD family protein&lt;br&gt;Location: 66253 - 65678" locus_tag="DFR70_RS35625" class="clusterblast-orf" id="dummy-1_h1_4_72"  />
</g>
<g id="a1_0073"  >
<polygon points="656,85 660,80 660,90 656,85 " style="fill:white; stroke-width:1; stroke:black; " description="&lt;b&gt;DFR70_RS35620&lt;/b&gt;&lt;br&gt;glyoxalase&lt;br&gt;Location: 65030 - 64572" locus_tag="DFR70_RS35620" class="clusterblast-orf" id="dummy-1_h1_4_73"  />
</g>
<g id="a1_0074"  >
<polygon points="660,85 662,80 662,90 660,85 " style="fill:white; stroke-width:1; stroke:black; " description="&lt;b&gt;DFR70_RS44965&lt;/b&gt;&lt;br&gt;hypothetical protein&lt;br&gt;Location: 64454 - 64191" locus_tag="DFR70_RS44965" class="clusterblast-orf" id="dummy-1_h1_4_74"  />
</g>
<g id="a1_0075"  >
<polygon points="665,85 670,80 670,80 670,90 670,90 665,85 " style="fill:white; stroke-width:1; stroke:black; " description="&lt;b&gt;DFR70_RS35615&lt;/b&gt;&lt;br&gt;TetR/AcrR family transcriptional regulator&lt;br&gt;Location: 63816 - 63187" locus_tag="DFR70_RS35615" class="clusterblast-orf" id="dummy-1_h1_4_75"  />
</g>
<g id="a1_0076"  >
<polygon points="670,90 676,90 681,85 676,80 670,80 670,90 " style="fill:white; stroke-width:1; stroke:black; " description="&lt;b&gt;DFR70_RS35610&lt;/b&gt;&lt;br&gt;carboxylesterase/lipase family protein&lt;br&gt;Location: 63121 - 61658" locus_tag="DFR70_RS35610" class="clusterblast-orf" id="dummy-1_h1_4_76"  />
</g>
<g id="a1_0077"  >
<polygon points="681,85 686,80 689,80 689,90 686,90 681,85 " style="fill:white; stroke-width:1; stroke:black; " description="&lt;b&gt;DFR70_RS35605&lt;/b&gt;&lt;br&gt;hypothetical protein&lt;br&gt;Location: 61575 - 60574" locus_tag="DFR70_RS35605" class="clusterblast-orf" id="dummy-1_h1_4_77"  />
</g>
<g id="a1_0078"  >
<polygon points="688,85 690,80 690,90 688,85 " style="fill:white; stroke-width:1; stroke:black; " description="&lt;b&gt;DFR70_RS45670&lt;/b&gt;&lt;br&gt;hypothetical protein&lt;br&gt;Location: 60617 - 60372" locus_tag="DFR70_RS45670" class="clusterblast-orf" id="dummy-1_h1_4_78"  />
</g>
<g id="a1_0079"  >
<polygon points="692,85 695,80 695,90 692,85 " style="fill:white; stroke-width:1; stroke:black; " description="&lt;b&gt;DFR70_RS45665&lt;/b&gt;&lt;br&gt;hypothetical protein&lt;br&gt;Location: 60095 - 59793" locus_tag="DFR70_RS45665" class="clusterblast-orf" id="dummy-1_h1_4_79"  />
</g>
<g id="a1_0080"  >
<polygon points="701,85 706,80 710,80 710,90 706,90 701,85 " style="fill:white; stroke-width:1; stroke:black; " description="&lt;b&gt;DFR70_RS35590&lt;/b&gt;&lt;br&gt;hypothetical protein&lt;br&gt;Location: 58847 - 57681" locus_tag="DFR70_RS35590" class="clusterblast-orf" id="dummy-1_h1_4_80"  />
</g>
<g id="a1_0081"  >
<polygon points="710,85 715,80 717,80 717,90 715,90 710,85 " style="fill:white; stroke-width:1; stroke:black; " description="&lt;b&gt;DFR70_RS35585&lt;/b&gt;&lt;br&gt;zinc ABC transporter substrate-binding protein&lt;br&gt;Location: 57654 - 56728" locus_tag="DFR70_RS35585" class="clusterblast-orf" id="dummy-1_h1_4_81"  />
</g>
<g id="a1_0082"  >
<polygon points="717,85 722,80 731,80 731,90 722,90 717,85 " style="fill:white; stroke-width:1; stroke:black; " description="&lt;b&gt;DFR70_RS35580&lt;/b&gt;&lt;br&gt;metal ABC transporter permease&lt;br&gt;Location: 56731 - 54749" locus_tag="DFR70_RS35580" class="clusterblast-orf" id="dummy-1_h1_4_82"  />
</g>
<g id="a1_0083"  >
<polygon points="732,90 732,90 737,85 732,80 732,80 732,90 " style="fill:white; stroke-width:1; stroke:black; " description="&lt;b&gt;DFR70_RS35575&lt;/b&gt;&lt;br&gt;ATP-binding cassette domain-containing protein&lt;br&gt;Location: 54702 - 53977" locus_tag="DFR70_RS35575" class="clusterblast-orf" id="dummy-1_h1_4_83"  />
</g>
<g id="a1_0084"  >
<polygon points="740,85 745,80 745,80 745,90 745,90 740,85 " style="fill:white; stroke-width:1; stroke:black; " description="&lt;b&gt;DFR70_RS35570&lt;/b&gt;&lt;br&gt;hypothetical protein&lt;br&gt;Location: 53634 - 52909" locus_tag="DFR70_RS35570" class="clusterblast-orf" id="dummy-1_h1_4_84"  />
</g>
<g id="a1_0085"  >
<polygon points="745,85 749,80 749,90 745,85 " style="fill:white; stroke-width:1; stroke:black; " description="&lt;b&gt;DFR70_RS35565&lt;/b&gt;&lt;br&gt;sigma-70 family RNA polymerase sigma factor&lt;br&gt;Location: 52912 - 52274" locus_tag="DFR70_RS35565" class="clusterblast-orf" id="dummy-1_h1_4_85"  />
</g>
<g id="a1_0086"  >
<polygon points="754,90 757,90 762,85 757,80 754,80 754,90 " style="fill:white; stroke-width:1; stroke:black; " description="&lt;b&gt;DFR70_RS35560&lt;/b&gt;&lt;br&gt;hypothetical protein&lt;br&gt;Location: 51634 - 50567" locus_tag="DFR70_RS35560" class="clusterblast-orf" id="dummy-1_h1_4_86"  />
</g>
<g id="a1_0087"  >
<polygon points="763,90 765,90 770,85 765,80 763,80 763,90 " style="fill:white; stroke-width:1; stroke:black; " description="&lt;b&gt;DFR70_RS35555&lt;/b&gt;&lt;br&gt;SAM-dependent methyltransferase&lt;br&gt;Location: 50451 - 49504" locus_tag="DFR70_RS35555" class="clusterblast-orf" id="dummy-1_h1_4_87"  />
</g>
<g id="a1_0088"  >
<polygon points="770,90 774,85 770,80 770,90 " style="fill:white; stroke-width:1; stroke:black; " description="&lt;b&gt;DFR70_RS35550&lt;/b&gt;&lt;br&gt;hypothetical protein&lt;br&gt;Location: 49399 - 48917" locus_tag="DFR70_RS35550" class="clusterblast-orf" id="dummy-1_h1_4_88"  />
</g>
<g id="a1_0089"  >
<polygon points="774,90 775,90 780,85 775,80 774,80 774,90 " style="fill:white; stroke-width:1; stroke:black; " description="&lt;b&gt;DFR70_RS35545&lt;/b&gt;&lt;br&gt;ATP-binding cassette domain-containing protein&lt;br&gt;Location: 48901 - 48164" locus_tag="DFR70_RS35545" class="clusterblast-orf" id="dummy-1_h1_4_89"  />
</g>
</svg>
