<svg xmlns="http://www.w3.org/2000/svg" xmlns:xlink="http://www.w3.org/1999/xlink" version="1.1" x="0" y="0" height="230" width="800" viewBox="0 0 800 230" preserveAspectRatio="none"  >
<g label="Query sequence" class="clusterblast-cluster"  >
<text x="5" y="20" class="clusterblast-acc"  >
Query sequence</text>
<line x1="10" y1="35" x2="778.0" y2="35" style="stroke-width:1; stroke:grey; "  />
<polygon points="176,35 181,30 190,30 190,40 181,40 176,35 " style="fill:#d81515; stroke-width:1; stroke:black; " description="&lt;b&gt;MCIC6FC_002123&lt;/b&gt;&lt;br&gt;hypothetical protein&lt;br&gt;Location: 121 - 848" locus_tag="MCIC6FC_002123" class="clusterblast-orf" id="dummy-1_q0_0_all"  />
<polygon points="193,40 202,40 207,35 202,30 193,30 193,40 " style="fill:white; stroke-width:1; stroke:black; " description="&lt;b&gt;MCIC6FC_002124&lt;/b&gt;&lt;br&gt;hypothetical protein&lt;br&gt;Location: 1018 - 1774" locus_tag="MCIC6FC_002124" class="clusterblast-orf" id="dummy-1_q1_0_all"  />
<polygon points="212,35 217,30 243,30 243,40 217,40 212,35 " style="fill:white; stroke-width:1; stroke:black; " description="&lt;b&gt;MCIC6FC_002125&lt;/b&gt;&lt;br&gt;hypothetical protein&lt;br&gt;Location: 2041 - 3727" locus_tag="MCIC6FC_002125" class="clusterblast-orf" id="dummy-1_q2_0_all"  />
<polygon points="249,35 254,30 263,30 263,40 254,40 249,35 " style="fill:#77d815; stroke-width:1; stroke:black; " description="&lt;b&gt;MCIC6FC_002126&lt;/b&gt;&lt;br&gt;hypothetical protein&lt;br&gt;Location: 4035 - 4825" locus_tag="MCIC6FC_002126" class="clusterblast-orf" id="dummy-1_q3_0_all"  />
<polygon points="267,40 457,40 462,35 457,30 267,30 267,40 " style="fill:#15d8d8; stroke-width:1; stroke:black; " description="&lt;b&gt;MCIC6FC_002127&lt;/b&gt;&lt;br&gt;hypothetical protein&lt;br&gt;Location: 5057 - 15635" locus_tag="MCIC6FC_002127" class="clusterblast-orf" id="dummy-1_q4_0_all"  />
<polygon points="464,35 469,30 480,30 480,40 469,40 464,35 " style="fill:#7715d8; stroke-width:1; stroke:black; " description="&lt;b&gt;MCIC6FC_002128&lt;/b&gt;&lt;br&gt;hypothetical protein&lt;br&gt;Location: 15728 - 16598" locus_tag="MCIC6FC_002128" class="clusterblast-orf" id="dummy-1_q5_0_all"  />
<polygon points="482,40 502,40 507,35 502,30 482,30 482,40 " style="fill:#d8a715; stroke-width:1; stroke:black; " description="&lt;b&gt;MCIC6FC_002129&lt;/b&gt;&lt;br&gt;hypothetical protein&lt;br&gt;Location: 16700 - 18073" locus_tag="MCIC6FC_002129" class="clusterblast-orf" id="dummy-1_q6_0_all"  />
<polygon points="519,40 536,40 541,35 536,30 519,30 519,40 " style="fill:white; stroke-width:1; stroke:black; " description="&lt;b&gt;MCIC6FC_002130&lt;/b&gt;&lt;br&gt;hypothetical protein&lt;br&gt;Location: 18704 - 19908" locus_tag="MCIC6FC_002130" class="clusterblast-orf" id="dummy-1_q7_0_all"  />
<polygon points="542,35 547,30 570,30 570,40 547,40 542,35 " style="fill:#15d846; stroke-width:1; stroke:black; " description="&lt;b&gt;MCIC6FC_002131&lt;/b&gt;&lt;br&gt;hypothetical protein&lt;br&gt;Location: 19975 - 21492" locus_tag="MCIC6FC_002131" class="clusterblast-orf" id="dummy-1_q8_0_all"  />
<polygon points="572,40 591,40 596,35 591,30 572,30 572,40 " style="fill:#1546d8; stroke-width:1; stroke:black; " description="&lt;b&gt;MCIC6FC_002132&lt;/b&gt;&lt;br&gt;hypothetical protein&lt;br&gt;Location: 21620 - 22910" locus_tag="MCIC6FC_002132" class="clusterblast-orf" id="dummy-1_q9_0_all"  />
<polygon points="597,40 598,40 603,35 598,30 597,30 597,40 " style="fill:#d815a7; stroke-width:1; stroke:black; " description="&lt;b&gt;MCIC6FC_002133&lt;/b&gt;&lt;br&gt;hypothetical protein&lt;br&gt;Location: 22934 - 23272" locus_tag="MCIC6FC_002133" class="clusterblast-orf" id="dummy-1_q10_0_all"  />
</g>
<g label="NZ_LT977065" description="NZ_LT977065 (2309240-2352336): Cupriavidus taiwanensis isolate Cupriavidus ta... (9% of genes show similarity), NRPS-like" class="clusterblast-cluster"  >
<text x="5" y="70" class="clusterblast-acc"  >
<a xlink:href="https://antismash-db.secondarymetabolites.org/area.html?record=NZ_LT977065&amp;start=2309240&amp;end=2352336" target="_blank">NZ_LT977065 (2309240-2352336)</a>: Cupriavidus taiwanensis isolate Cupriavidus ta... (9% of genes show similarity), NRPS-like</text>
<line x1="10" y1="85" x2="778.0" y2="85" style="stroke-width:1; stroke:grey; "  />
</g>
<g id="a1_000"  >
<polygon points="0,85 5,80 18,80 18,90 5,90 0,85 " style="fill:#7715d8; stroke-width:1; stroke:black; " description="&lt;b&gt;D0Z50_RS26435&lt;/b&gt;&lt;br&gt;LysR family transcriptional regulator&lt;br&gt;Location: 2309288 - 2310310&lt;br&gt;&lt;br&gt;&lt;b&gt;BlastP hit with MCIC6FC_002128&lt;/b&gt;&lt;br&gt;Percentage identity: 58&lt;br&gt;Percentage coverage: 87&lt;br&gt;BLAST bit score: 288&lt;br&gt;E-value: 8.7e-76" locus_tag="D0Z50_RS26435" class="clusterblast-orf" id="dummy-1_h1_10_0"  />
</g>
<g id="a1_001"  >
<polygon points="20,90 38,90 43,85 38,80 20,80 20,90 " style="fill:#d8a715; stroke-width:1; stroke:black; " description="&lt;b&gt;D0Z50_RS26440&lt;/b&gt;&lt;br&gt;MFS transporter&lt;br&gt;Location: 2310417 - 2311637&lt;br&gt;&lt;br&gt;&lt;b&gt;BlastP hit with MCIC6FC_002129&lt;/b&gt;&lt;br&gt;Percentage identity: 36&lt;br&gt;Percentage coverage: 95&lt;br&gt;BLAST bit score: 163&lt;br&gt;E-value: 6.3e-38" locus_tag="D0Z50_RS26440" class="clusterblast-orf" id="dummy-1_h1_10_1"  />
</g>
<g id="a1_002"  >
<polygon points="43,85 48,80 78,80 78,90 48,90 43,85 " style="fill:white; stroke-width:1; stroke:black; " description="&lt;b&gt;D0Z50_RS26445&lt;/b&gt;&lt;br&gt;histidine kinase&lt;br&gt;Location: 2311651 - 2313528" locus_tag="D0Z50_RS26445" class="clusterblast-orf" id="dummy-1_h1_10_2"  />
</g>
<g id="a1_003"  >
<polygon points="78,85 83,80 90,80 90,90 83,90 78,85 " style="fill:white; stroke-width:1; stroke:black; " description="&lt;b&gt;D0Z50_RS26450&lt;/b&gt;&lt;br&gt;response regulator transcription factor&lt;br&gt;Location: 2313536 - 2314210" locus_tag="D0Z50_RS26450" class="clusterblast-orf" id="dummy-1_h1_10_3"  />
</g>
<g id="a1_004"  >
<polygon points="96,85 101,80 118,80 118,90 101,90 96,85 " style="fill:white; stroke-width:1; stroke:black; " description="&lt;b&gt;D0Z50_RS26455&lt;/b&gt;&lt;br&gt;CoA transferase&lt;br&gt;Location: 2314509 - 2315744" locus_tag="D0Z50_RS26455" class="clusterblast-orf" id="dummy-1_h1_10_4"  />
</g>
<g id="a1_005"  >
<polygon points="121,90 131,90 136,85 131,80 121,80 121,90 " style="fill:white; stroke-width:1; stroke:black; " description="&lt;b&gt;D0Z50_RS26460&lt;/b&gt;&lt;br&gt;IclR family transcriptional regulator&lt;br&gt;Location: 2315896 - 2316708" locus_tag="D0Z50_RS26460" class="clusterblast-orf" id="dummy-1_h1_10_5"  />
</g>
<g id="a1_006"  >
<polygon points="139,90 152,90 157,85 152,80 139,80 139,90 " style="fill:white; stroke-width:1; stroke:black; " description="&lt;b&gt;D0Z50_RS26465&lt;/b&gt;&lt;br&gt;tripartite tricarboxylate transporter substrate binding protein&lt;br&gt;Location: 2316850 - 2317860" locus_tag="D0Z50_RS26465" class="clusterblast-orf" id="dummy-1_h1_10_6"  />
</g>
<g id="a1_007"  >
<polygon points="158,90 175,90 180,85 175,80 158,80 158,90 " style="fill:white; stroke-width:1; stroke:black; " description="&lt;b&gt;D0Z50_RS26470&lt;/b&gt;&lt;br&gt;acyl-CoA dehydrogenase&lt;br&gt;Location: 2317902 - 2319080" locus_tag="D0Z50_RS26470" class="clusterblast-orf" id="dummy-1_h1_10_7"  />
</g>
<g id="a1_008"  >
<polygon points="189,90 207,90 212,85 207,80 189,80 189,90 " style="fill:white; stroke-width:1; stroke:black; " description="&lt;b&gt;D0Z50_RS26475&lt;/b&gt;&lt;br&gt;quorum-sensing autoinducer synthase&lt;br&gt;Location: 2319555 - 2320805" locus_tag="D0Z50_RS26475" class="clusterblast-orf" id="dummy-1_h1_10_8"  />
</g>
<g id="a1_009"  >
<polygon points="213,90 232,90 237,85 232,80 213,80 213,90 " style="fill:white; stroke-width:1; stroke:black; " description="&lt;b&gt;D0Z50_RS26480&lt;/b&gt;&lt;br&gt;HAMP domain-containing histidine kinase&lt;br&gt;Location: 2320857 - 2322194" locus_tag="D0Z50_RS26480" class="clusterblast-orf" id="dummy-1_h1_10_9"  />
</g>
<g id="a1_0010"  >
<polygon points="238,85 243,80 260,80 260,90 243,90 238,85 " style="fill:white; stroke-width:1; stroke:black; " description="&lt;b&gt;D0Z50_RS26485&lt;/b&gt;&lt;br&gt;CoA transferase&lt;br&gt;Location: 2322238 - 2323452" locus_tag="D0Z50_RS26485" class="clusterblast-orf" id="dummy-1_h1_10_10"  />
</g>
<g id="a1_0011"  >
<polygon points="268,90 282,90 287,85 282,80 268,80 268,90 " style="fill:white; stroke-width:1; stroke:black; " description="&lt;b&gt;D0Z50_RS26490&lt;/b&gt;&lt;br&gt;formamidase&lt;br&gt;Location: 2323864 - 2324889" locus_tag="D0Z50_RS26490" class="clusterblast-orf" id="dummy-1_h1_10_11"  />
</g>
<g id="a1_0012"  >
<polygon points="287,90 291,85 287,80 287,90 " style="fill:white; stroke-width:1; stroke:black; " description="&lt;b&gt;D0Z50_RS26495&lt;/b&gt;&lt;br&gt;DUF1427 family protein&lt;br&gt;Location: 2324916 - 2325125" locus_tag="D0Z50_RS26495" class="clusterblast-orf" id="dummy-1_h1_10_12"  />
</g>
<g id="a1_0013"  >
<polygon points="292,90 295,85 292,80 292,90 " style="fill:white; stroke-width:1; stroke:black; " description="&lt;b&gt;D0Z50_RS26500&lt;/b&gt;&lt;br&gt;DUF1427 family protein&lt;br&gt;Location: 2325157 - 2325348" locus_tag="D0Z50_RS26500" class="clusterblast-orf" id="dummy-1_h1_10_13"  />
</g>
<g id="a1_0014"  >
<polygon points="296,90 336,90 341,85 336,80 296,80 296,90 " style="fill:white; stroke-width:1; stroke:black; " description="&lt;b&gt;D0Z50_RS26505&lt;/b&gt;&lt;br&gt;helix-turn-helix domain-containing protein&lt;br&gt;Location: 2325399 - 2327809" locus_tag="D0Z50_RS26505" class="clusterblast-orf" id="dummy-1_h1_10_14"  />
</g>
<g id="a1_0015"  >
<polygon points="342,90 346,90 351,85 346,80 342,80 342,90 " style="fill:white; stroke-width:1; stroke:black; " description="&lt;b&gt;D0Z50_RS26510&lt;/b&gt;&lt;br&gt;hypothetical protein&lt;br&gt;Location: 2327892 - 2328389" locus_tag="D0Z50_RS26510" class="clusterblast-orf" id="dummy-1_h1_10_15"  />
</g>
<g id="a1_0016"  >
<polygon points="352,85 357,80 359,80 359,90 357,90 352,85 " style="fill:white; stroke-width:1; stroke:black; " description="&lt;b&gt;D0Z50_RS26515&lt;/b&gt;&lt;br&gt;hypothetical protein&lt;br&gt;Location: 2328399 - 2328830" locus_tag="D0Z50_RS26515" class="clusterblast-orf" id="dummy-1_h1_10_16"  />
</g>
<g id="a1_0017"  >
<polygon points="367,90 419,90 424,85 419,80 367,80 367,90 " style="fill:white; stroke-width:1; stroke:black; " description="&lt;b&gt;D0Z50_RS26520&lt;/b&gt;&lt;br&gt;acetoacetate--CoA ligase&lt;br&gt;Location: 2329241 - 2332336" locus_tag="D0Z50_RS26520" class="clusterblast-orf" id="dummy-1_h1_10_17"  />
</g>
<g id="a1_0018"  >
<polygon points="424,90 434,90 439,85 434,80 424,80 424,90 " style="fill:white; stroke-width:1; stroke:black; " description="&lt;b&gt;D0Z50_RS26525&lt;/b&gt;&lt;br&gt;4'-phosphopantetheinyl transferase superfamily protein&lt;br&gt;Location: 2332357 - 2333130" locus_tag="D0Z50_RS26525" class="clusterblast-orf" id="dummy-1_h1_10_18"  />
</g>
<g id="a1_0019"  >
<polygon points="443,90 447,90 452,85 447,80 443,80 443,90 " style="fill:white; stroke-width:1; stroke:black; " description="&lt;b&gt;D0Z50_RS26530&lt;/b&gt;&lt;br&gt;DNA-binding response regulator&lt;br&gt;Location: 2333383 - 2333877" locus_tag="D0Z50_RS26530" class="clusterblast-orf" id="dummy-1_h1_10_19"  />
</g>
<g id="a1_0020"  >
<polygon points="453,85 458,80 472,80 472,90 458,90 453,85 " style="fill:white; stroke-width:1; stroke:black; " description="&lt;b&gt;D0Z50_RS26535&lt;/b&gt;&lt;br&gt;patatin-like phospholipase family protein&lt;br&gt;Location: 2333895 - 2334962" locus_tag="D0Z50_RS26535" class="clusterblast-orf" id="dummy-1_h1_10_20"  />
</g>
<g id="a1_0021"  >
<polygon points="476,85 481,80 498,80 498,90 481,90 476,85 " style="fill:white; stroke-width:1; stroke:black; " description="&lt;b&gt;D0Z50_RS26540&lt;/b&gt;&lt;br&gt;MFS transporter&lt;br&gt;Location: 2335166 - 2336371" locus_tag="D0Z50_RS26540" class="clusterblast-orf" id="dummy-1_h1_10_21"  />
</g>
<g id="a1_0022"  >
<polygon points="502,90 515,90 520,85 515,80 502,80 502,90 " style="fill:white; stroke-width:1; stroke:black; " description="&lt;b&gt;D0Z50_RS26545&lt;/b&gt;&lt;br&gt;GlxA family transcriptional regulator&lt;br&gt;Location: 2336571 - 2337524" locus_tag="D0Z50_RS26545" class="clusterblast-orf" id="dummy-1_h1_10_22"  />
</g>
<g id="a1_0023"  >
<polygon points="524,90 550,90 555,85 550,80 524,80 524,90 " style="fill:white; stroke-width:1; stroke:black; " description="&lt;b&gt;D0Z50_RS26550&lt;/b&gt;&lt;br&gt;mechanosensitive ion channel&lt;br&gt;Location: 2337783 - 2339420" locus_tag="D0Z50_RS26550" class="clusterblast-orf" id="dummy-1_h1_10_23"  />
</g>
<g id="a1_0024"  >
<polygon points="559,90 563,90 568,85 563,80 559,80 559,90 " style="fill:white; stroke-width:1; stroke:black; " description="&lt;b&gt;D0Z50_RS26555&lt;/b&gt;&lt;br&gt;(2Fe-2S)-binding protein&lt;br&gt;Location: 2339655 - 2340125" locus_tag="D0Z50_RS26555" class="clusterblast-orf" id="dummy-1_h1_10_24"  />
</g>
<g id="a1_0025"  >
<polygon points="568,90 605,90 610,85 605,80 568,80 568,90 " style="fill:white; stroke-width:1; stroke:black; " description="&lt;b&gt;D0Z50_RS26560&lt;/b&gt;&lt;br&gt;xanthine dehydrogenase family protein molybdopterin-binding subunit&lt;br&gt;Location: 2340125 - 2342416" locus_tag="D0Z50_RS26560" class="clusterblast-orf" id="dummy-1_h1_10_25"  />
</g>
<g id="a1_0026"  >
<polygon points="611,85 616,80 631,80 631,90 616,90 611,85 " style="fill:#d81515; stroke-width:1; stroke:black; " description="&lt;b&gt;D0Z50_RS26565&lt;/b&gt;&lt;br&gt;MFS transporter&lt;br&gt;Location: 2342462 - 2343592&lt;br&gt;&lt;br&gt;&lt;b&gt;BlastP hit with MCIC6FC_002123&lt;/b&gt;&lt;br&gt;Percentage identity: 33&lt;br&gt;Percentage coverage: 105&lt;br&gt;BLAST bit score: 108&lt;br&gt;E-value: 1.4e-21" locus_tag="D0Z50_RS26565" class="clusterblast-orf" id="dummy-1_h1_10_26"  />
</g>
<g id="a1_0027"  >
<polygon points="637,90 649,90 654,85 649,80 637,80 637,90 " style="fill:white; stroke-width:1; stroke:black; " description="&lt;b&gt;D0Z50_RS26570&lt;/b&gt;&lt;br&gt;LysR family transcriptional regulator&lt;br&gt;Location: 2343920 - 2344807" locus_tag="D0Z50_RS26570" class="clusterblast-orf" id="dummy-1_h1_10_27"  />
</g>
<g id="a1_0028"  >
<polygon points="656,85 661,80 695,80 695,90 661,90 656,85 " style="fill:white; stroke-width:1; stroke:black; " description="&lt;b&gt;D0Z50_RS26575&lt;/b&gt;&lt;br&gt;DUF2235 domain-containing protein&lt;br&gt;Location: 2344947 - 2347073" locus_tag="D0Z50_RS26575" class="clusterblast-orf" id="dummy-1_h1_10_28"  />
</g>
<g id="a1_0029"  >
<polygon points="695,85 700,80 707,80 707,90 700,90 695,85 " style="fill:white; stroke-width:1; stroke:black; " description="&lt;b&gt;D0Z50_RS26580&lt;/b&gt;&lt;br&gt;DUF3304 domain-containing protein&lt;br&gt;Location: 2347070 - 2347696" locus_tag="D0Z50_RS26580" class="clusterblast-orf" id="dummy-1_h1_10_29"  />
</g>
<g id="a1_0030"  >
<polygon points="708,85 713,80 726,80 726,90 713,90 708,85 " style="fill:white; stroke-width:1; stroke:black; " description="&lt;b&gt;D0Z50_RS26585&lt;/b&gt;&lt;br&gt;DUF4123 domain-containing protein&lt;br&gt;Location: 2347766 - 2348725" locus_tag="D0Z50_RS26585" class="clusterblast-orf" id="dummy-1_h1_10_30"  />
</g>
<g id="a1_0031"  >
<polygon points="726,85 731,80 780,80 780,90 731,90 726,85 " style="fill:white; stroke-width:1; stroke:black; " description="&lt;b&gt;D0Z50_RS26590&lt;/b&gt;&lt;br&gt;type VI secretion system tip protein VgrG&lt;br&gt;Location: 2348722 - 2351634" locus_tag="D0Z50_RS26590" class="clusterblast-orf" id="dummy-1_h1_10_31"  />
</g>
</svg>
