<svg xmlns="http://www.w3.org/2000/svg" xmlns:xlink="http://www.w3.org/1999/xlink" version="1.1" x="0" y="0" height="230" width="800" viewBox="0 0 800 230" preserveAspectRatio="none"  >
<g label="Query sequence" class="clusterblast-cluster"  >
<text x="5" y="20" class="clusterblast-acc"  >
Query sequence</text>
<line x1="10" y1="35" x2="778.0" y2="35" style="stroke-width:1; stroke:grey; "  />
<polygon points="132,40 154,40 159,35 154,30 132,30 132,40 " style="fill:#d81515; stroke-width:1; stroke:black; " description="&lt;b&gt;MCIC6FC_019439&lt;/b&gt;&lt;br&gt;hypothetical protein&lt;br&gt;Location: 217 - 556" locus_tag="MCIC6FC_019439" class="clusterblast-orf" id="dummy-1_q0_0_all"  />
<polygon points="161,40 321,40 326,35 321,30 161,30 161,40 " style="fill:#15d863; stroke-width:1; stroke:black; " description="&lt;b&gt;MCIC6FC_019440&lt;/b&gt;&lt;br&gt;hypothetical protein&lt;br&gt;Location: 579 - 2695" locus_tag="MCIC6FC_019440" class="clusterblast-orf" id="dummy-1_q1_0_all"  />
<polygon points="327,35 332,30 398,30 398,40 332,40 327,35 " style="fill:#1563d8; stroke-width:1; stroke:black; " description="&lt;b&gt;MCIC6FC_019441&lt;/b&gt;&lt;br&gt;hypothetical protein&lt;br&gt;Location: 2711 - 3611" locus_tag="MCIC6FC_019441" class="clusterblast-orf" id="dummy-1_q2_0_all"  />
<polygon points="407,40 509,40 514,35 509,30 407,30 407,40 " style="fill:#b115d8; stroke-width:1; stroke:black; " description="&lt;b&gt;MCIC6FC_019442&lt;/b&gt;&lt;br&gt;hypothetical protein&lt;br&gt;Location: 3723 - 5091" locus_tag="MCIC6FC_019442" class="clusterblast-orf" id="dummy-1_q3_0_all"  />
<polygon points="522,40 643,40 648,35 643,30 522,30 522,40 " style="fill:#b1d815; stroke-width:1; stroke:black; " description="&lt;b&gt;MCIC6FC_019443&lt;/b&gt;&lt;br&gt;hypothetical protein&lt;br&gt;Location: 5197 - 6811" locus_tag="MCIC6FC_019443" class="clusterblast-orf" id="dummy-1_q4_0_all"  />
</g>
<g label="NZ_LT629777" description="NZ_LT629777 (81225-92119): Pseudomonas asplenii strain ATCC 23835 chromosome I (63% of genes show similarity), bacteriocin" class="clusterblast-cluster"  >
<text x="5" y="70" class="clusterblast-acc"  >
<a xlink:href="https://antismash-db.secondarymetabolites.org/area.html?record=NZ_LT629777&amp;start=81225&amp;end=92119" target="_blank">NZ_LT629777 (81225-92119)</a>: Pseudomonas asplenii strain ATCC 23835 chromosome I (63% of genes show similarity), bacteriocin</text>
<line x1="10" y1="85" x2="778.0" y2="85" style="stroke-width:1; stroke:grey; "  />
</g>
<g id="a1_000"  >
<polygon points="0,90 67,90 72,85 67,80 0,80 0,90 " style="fill:white; stroke-width:1; stroke:black; " description="&lt;b&gt;BLU37_RS00395&lt;/b&gt;&lt;br&gt;high-affinity branched-chain amino acid ABC transporter permease LivH&lt;br&gt;Location: 82106 - 83029" locus_tag="BLU37_RS00395" class="clusterblast-orf" id="dummy-1_h1_3_0"  />
</g>
<g id="a1_001"  >
<polygon points="71,90 165,90 170,85 165,80 71,80 71,90 " style="fill:white; stroke-width:1; stroke:black; " description="&lt;b&gt;BLU37_RS00400&lt;/b&gt;&lt;br&gt;high-affinity branched-chain amino acid ABC transporter permease LivM&lt;br&gt;Location: 83026 - 84279" locus_tag="BLU37_RS00400" class="clusterblast-orf" id="dummy-1_h1_3_1"  />
</g>
<g id="a1_002"  >
<polygon points="169,90 224,90 229,85 224,80 169,80 169,90 " style="fill:white; stroke-width:1; stroke:black; " description="&lt;b&gt;BLU37_RS00405&lt;/b&gt;&lt;br&gt;high-affinity branched-chain amino acid ABC transporter ATP-binding protein LivG&lt;br&gt;Location: 84276 - 85043" locus_tag="BLU37_RS00405" class="clusterblast-orf" id="dummy-1_h1_3_2"  />
</g>
<g id="a1_003"  >
<polygon points="229,90 279,90 284,85 279,80 229,80 229,90 " style="fill:white; stroke-width:1; stroke:black; " description="&lt;b&gt;BLU37_RS00410&lt;/b&gt;&lt;br&gt;ABC transporter ATP-binding protein&lt;br&gt;Location: 85044 - 85745" locus_tag="BLU37_RS00410" class="clusterblast-orf" id="dummy-1_h1_3_3"  />
</g>
<g id="a1_004"  >
<polygon points="296,90 315,90 320,85 315,80 296,80 296,90 " style="fill:#d81515; stroke-width:1; stroke:black; " description="&lt;b&gt;BLU37_RS00415&lt;/b&gt;&lt;br&gt;DUF2282 domain-containing protein&lt;br&gt;Location: 85894 - 86199&lt;br&gt;&lt;br&gt;&lt;b&gt;BlastP hit with MCIC6FC_019439&lt;/b&gt;&lt;br&gt;Percentage identity: 66&lt;br&gt;Percentage coverage: 88&lt;br&gt;BLAST bit score: 114&lt;br&gt;E-value: 9.1e-24" locus_tag="BLU37_RS00415" class="clusterblast-orf" id="dummy-1_h1_3_4"  />
</g>
<g id="a1_005"  >
<polygon points="322,90 387,90 392,85 387,80 322,80 322,90 " style="fill:#15d863; stroke-width:1; stroke:black; " description="&lt;b&gt;BLU37_RS00420&lt;/b&gt;&lt;br&gt;DUF692 domain-containing protein&lt;br&gt;Location: 86226 - 87119&lt;br&gt;&lt;br&gt;&lt;b&gt;BlastP hit with MCIC6FC_019440&lt;/b&gt;&lt;br&gt;Percentage identity: 72&lt;br&gt;Percentage coverage: 46&lt;br&gt;BLAST bit score: 399&lt;br&gt;E-value: 8e-109" locus_tag="BLU37_RS00420" class="clusterblast-orf" id="dummy-1_h1_3_5"  />
</g>
<g id="a1_006"  >
<polygon points="392,90 446,90 451,85 446,80 392,80 392,90 " style="fill:#15d863; stroke-width:1; stroke:black; " description="&lt;b&gt;BLU37_RS00425&lt;/b&gt;&lt;br&gt;putative DNA-binding domain-containing protein&lt;br&gt;Location: 87116 - 87877&lt;br&gt;&lt;br&gt;&lt;b&gt;BlastP hit with MCIC6FC_019440&lt;/b&gt;&lt;br&gt;Percentage identity: 53&lt;br&gt;Percentage coverage: 38&lt;br&gt;BLAST bit score: 233&lt;br&gt;E-value: 4.4e-59" locus_tag="BLU37_RS00425" class="clusterblast-orf" id="dummy-1_h1_3_6"  />
</g>
<g id="a1_007"  >
<polygon points="451,85 456,80 523,80 523,90 456,90 451,85 " style="fill:#1563d8; stroke-width:1; stroke:black; " description="&lt;b&gt;BLU37_RS00430&lt;/b&gt;&lt;br&gt;LysR family transcriptional regulator&lt;br&gt;Location: 87878 - 88792&lt;br&gt;&lt;br&gt;&lt;b&gt;BlastP hit with MCIC6FC_019441&lt;/b&gt;&lt;br&gt;Percentage identity: 82&lt;br&gt;Percentage coverage: 100&lt;br&gt;BLAST bit score: 498&lt;br&gt;E-value: 6e-139" locus_tag="BLU37_RS00430" class="clusterblast-orf" id="dummy-1_h1_3_7"  />
</g>
<g id="a1_008"  >
<polygon points="531,90 573,90 578,85 573,80 531,80 531,90 " style="fill:#b115d8; stroke-width:1; stroke:black; " description="&lt;b&gt;BLU37_RS00435&lt;/b&gt;&lt;br&gt;short chain dehydrogenase&lt;br&gt;Location: 88899 - 89498&lt;br&gt;&lt;br&gt;&lt;b&gt;BlastP hit with MCIC6FC_019442&lt;/b&gt;&lt;br&gt;Percentage identity: 78&lt;br&gt;Percentage coverage: 45&lt;br&gt;BLAST bit score: 301&lt;br&gt;E-value: 1.5e-79" locus_tag="BLU37_RS00435" class="clusterblast-orf" id="dummy-1_h1_3_8"  />
</g>
<g id="a1_009"  >
<polygon points="592,90 640,90 645,85 640,80 592,80 592,90 " style="fill:#b115d8; stroke-width:1; stroke:black; " description="&lt;b&gt;BLU37_RS00440&lt;/b&gt;&lt;br&gt;hypothetical protein&lt;br&gt;Location: 89679 - 90350&lt;br&gt;&lt;br&gt;&lt;b&gt;BlastP hit with MCIC6FC_019442&lt;/b&gt;&lt;br&gt;Percentage identity: 64&lt;br&gt;Percentage coverage: 53&lt;br&gt;BLAST bit score: 297&lt;br&gt;E-value: 2.2e-78" locus_tag="BLU37_RS00440" class="clusterblast-orf" id="dummy-1_h1_3_9"  />
</g>
<g id="a1_0010"  >
<polygon points="653,90 775,90 780,85 775,80 653,80 653,90 " style="fill:#b1d815; stroke-width:1; stroke:black; " description="&lt;b&gt;BLU37_RS00445&lt;/b&gt;&lt;br&gt;NAD(P)/FAD-dependent oxidoreductase&lt;br&gt;Location: 90460 - 92073&lt;br&gt;&lt;br&gt;&lt;b&gt;BlastP hit with MCIC6FC_019443&lt;/b&gt;&lt;br&gt;Percentage identity: 89&lt;br&gt;Percentage coverage: 100&lt;br&gt;BLAST bit score: 974&lt;br&gt;E-value: 3.9e-282" locus_tag="BLU37_RS00445" class="clusterblast-orf" id="dummy-1_h1_3_10"  />
</g>
</svg>
