<svg xmlns="http://www.w3.org/2000/svg" xmlns:xlink="http://www.w3.org/1999/xlink" version="1.1" x="0" y="0" height="230" width="800" viewBox="0 0 800 230" preserveAspectRatio="none"  >
<g label="Query sequence" class="clusterblast-cluster"  >
<text x="5" y="20" class="clusterblast-acc"  >
Query sequence</text>
<line x1="10" y1="35" x2="778.0" y2="35" style="stroke-width:1; stroke:grey; "  />
<polygon points="0,35 5,30 51,30 51,40 5,40 0,35 " style="fill:#d81515; stroke-width:1; stroke:black; " description="&lt;b&gt;MCIC6FC_014867&lt;/b&gt;&lt;br&gt;hypothetical protein&lt;br&gt;Location: 155478 - 157092" locus_tag="MCIC6FC_014867" class="clusterblast-orf" id="dummy-1_q0_0_all"  />
<polygon points="55,35 60,30 76,30 76,40 60,40 55,35 " style="fill:#15d815; stroke-width:1; stroke:black; " description="&lt;b&gt;MCIC6FC_014868&lt;/b&gt;&lt;br&gt;hypothetical protein&lt;br&gt;Location: 157205 - 157883" locus_tag="MCIC6FC_014868" class="clusterblast-orf" id="dummy-1_q1_0_all"  />
<polygon points="80,35 85,30 99,30 99,40 85,40 80,35 " style="fill:#1515d8; stroke-width:1; stroke:black; " description="&lt;b&gt;MCIC6FC_014869&lt;/b&gt;&lt;br&gt;hypothetical protein&lt;br&gt;Location: 157994 - 158594" locus_tag="MCIC6FC_014869" class="clusterblast-orf" id="dummy-1_q2_0_all"  />
<polygon points="102,40 126,40 131,35 126,30 102,30 102,40 " style="fill:#d815d8; stroke-width:1; stroke:black; " description="&lt;b&gt;MCIC6FC_014870&lt;/b&gt;&lt;br&gt;hypothetical protein&lt;br&gt;Location: 158696 - 159606" locus_tag="MCIC6FC_014870" class="clusterblast-orf" id="dummy-1_q3_0_all"  />
<polygon points="133,35 138,30 215,30 215,40 138,40 133,35 " style="fill:#d8d815; stroke-width:1; stroke:black; " description="&lt;b&gt;MCIC6FC_014871&lt;/b&gt;&lt;br&gt;hypothetical protein&lt;br&gt;Location: 159656 - 162249" locus_tag="MCIC6FC_014871" class="clusterblast-orf" id="dummy-1_q4_0_all"  />
<polygon points="217,35 222,30 333,30 333,40 222,40 217,35 " style="fill:#15d8d8; stroke-width:1; stroke:black; " description="&lt;b&gt;MCIC6FC_014872&lt;/b&gt;&lt;br&gt;hypothetical protein&lt;br&gt;Location: 162308 - 165951" locus_tag="MCIC6FC_014872" class="clusterblast-orf" id="dummy-1_q5_0_all"  />
<polygon points="335,35 340,30 376,30 376,40 340,40 335,35 " style="fill:white; stroke-width:1; stroke:black; " description="&lt;b&gt;MCIC6FC_014873&lt;/b&gt;&lt;br&gt;hypothetical protein&lt;br&gt;Location: 165993 - 167309" locus_tag="MCIC6FC_014873" class="clusterblast-orf" id="dummy-1_q6_0_all"  />
<polygon points="379,40 392,40 397,35 392,30 379,30 379,40 " style="fill:white; stroke-width:1; stroke:black; " description="&lt;b&gt;MCIC6FC_014874&lt;/b&gt;&lt;br&gt;hypothetical protein&lt;br&gt;Location: 167398 - 167954" locus_tag="MCIC6FC_014874" class="clusterblast-orf" id="dummy-1_q7_0_all"  />
<polygon points="406,35 411,30 475,30 475,40 411,40 406,35 " style="fill:white; stroke-width:1; stroke:black; " description="&lt;b&gt;MCIC6FC_014875&lt;/b&gt;&lt;br&gt;hypothetical protein&lt;br&gt;Location: 168228 - 170412" locus_tag="MCIC6FC_014875" class="clusterblast-orf" id="dummy-1_q8_0_all"  />
<polygon points="482,40 494,40 499,35 494,30 482,30 482,40 " style="fill:white; stroke-width:1; stroke:black; " description="&lt;b&gt;MCIC6FC_014876&lt;/b&gt;&lt;br&gt;hypothetical protein&lt;br&gt;Location: 170613 - 171161" locus_tag="MCIC6FC_014876" class="clusterblast-orf" id="dummy-1_q9_0_all"  />
<polygon points="500,35 505,30 568,30 568,40 505,40 500,35 " style="fill:white; stroke-width:1; stroke:black; " description="&lt;b&gt;MCIC6FC_014877&lt;/b&gt;&lt;br&gt;hypothetical protein&lt;br&gt;Location: 171182 - 173331" locus_tag="MCIC6FC_014877" class="clusterblast-orf" id="dummy-1_q10_0_all"  />
<polygon points="585,40 633,40 638,35 633,30 585,30 585,40 " style="fill:white; stroke-width:1; stroke:black; " description="&lt;b&gt;MCIC6FC_014878&lt;/b&gt;&lt;br&gt;hypothetical protein&lt;br&gt;Location: 173853 - 175521" locus_tag="MCIC6FC_014878" class="clusterblast-orf" id="dummy-1_q11_0_all"  />
<polygon points="641,35 646,30 732,30 732,40 646,40 641,35 " style="fill:white; stroke-width:1; stroke:black; " description="&lt;b&gt;MCIC6FC_014879&lt;/b&gt;&lt;br&gt;hypothetical protein&lt;br&gt;Location: 175617 - 178467" locus_tag="MCIC6FC_014879" class="clusterblast-orf" id="dummy-1_q12_0_all"  />
<polygon points="739,40 745,40 750,35 745,30 739,30 739,40 " style="fill:white; stroke-width:1; stroke:black; " description="&lt;b&gt;MCIC6FC_014880&lt;/b&gt;&lt;br&gt;hypothetical protein&lt;br&gt;Location: 178685 - 179027" locus_tag="MCIC6FC_014880" class="clusterblast-orf" id="dummy-1_q13_0_all"  />
<polygon points="751,35 756,30 780,30 780,40 756,40 751,35 " style="fill:white; stroke-width:1; stroke:black; " description="&lt;b&gt;MCIC6FC_014881&lt;/b&gt;&lt;br&gt;hypothetical protein&lt;br&gt;Location: 179062 - 179977" locus_tag="MCIC6FC_014881" class="clusterblast-orf" id="dummy-1_q14_0_all"  />
</g>
<g label="NZ_JSYZ01000002" description="NZ_JSYZ01000002 (15806-26691): Pseudomonas fuscovaginae strain IRRI 6609 Pf I... (90% of genes show similarity), bacteriocin" class="clusterblast-cluster"  >
<text x="5" y="70" class="clusterblast-acc"  >
<a xlink:href="https://antismash-db.secondarymetabolites.org/area.html?record=NZ_JSYZ01000002&amp;start=15806&amp;end=26691" target="_blank">NZ_JSYZ01000002 (15806-26691)</a>: Pseudomonas fuscovaginae strain IRRI 6609 Pf I... (90% of genes show similarity), bacteriocin</text>
<line x1="10" y1="85" x2="778.0" y2="85" style="stroke-width:1; stroke:grey; "  />
</g>
<g id="a1_000"  >
<polygon points="233,85 238,80 284,80 284,90 238,90 233,85 " style="fill:#d81515; stroke-width:1; stroke:black; " description="&lt;b&gt;PF66_RS02115&lt;/b&gt;&lt;br&gt;NAD(P)/FAD-dependent oxidoreductase&lt;br&gt;Location: 26536 - 24923&lt;br&gt;&lt;br&gt;&lt;b&gt;BlastP hit with MCIC6FC_014867&lt;/b&gt;&lt;br&gt;Percentage identity: 92&lt;br&gt;Percentage coverage: 100&lt;br&gt;BLAST bit score: 990&lt;br&gt;E-value: 5.3e-287" locus_tag="PF66_RS02115" class="clusterblast-orf" id="dummy-1_h1_3_0"  />
</g>
<g id="a1_001"  >
<polygon points="288,85 293,80 309,80 309,90 293,90 288,85 " style="fill:#15d815; stroke-width:1; stroke:black; " description="&lt;b&gt;PF66_RS02110&lt;/b&gt;&lt;br&gt;hypothetical protein&lt;br&gt;Location: 24814 - 24140&lt;br&gt;&lt;br&gt;&lt;b&gt;BlastP hit with MCIC6FC_014868&lt;/b&gt;&lt;br&gt;Percentage identity: 63&lt;br&gt;Percentage coverage: 101&lt;br&gt;BLAST bit score: 284&lt;br&gt;E-value: 1e-74" locus_tag="PF66_RS02110" class="clusterblast-orf" id="dummy-1_h1_3_1"  />
</g>
<g id="a1_002"  >
<polygon points="311,85 316,80 330,80 330,90 316,90 311,85 " style="fill:#1515d8; stroke-width:1; stroke:black; " description="&lt;b&gt;PF66_RS02105&lt;/b&gt;&lt;br&gt;short chain dehydrogenase&lt;br&gt;Location: 24070 - 23471&lt;br&gt;&lt;br&gt;&lt;b&gt;BlastP hit with MCIC6FC_014869&lt;/b&gt;&lt;br&gt;Percentage identity: 79&lt;br&gt;Percentage coverage: 100&lt;br&gt;BLAST bit score: 315&lt;br&gt;E-value: 4.8e-84" locus_tag="PF66_RS02105" class="clusterblast-orf" id="dummy-1_h1_3_2"  />
</g>
<g id="a1_003"  >
<polygon points="334,90 358,90 363,85 358,80 334,80 334,90 " style="fill:#d815d8; stroke-width:1; stroke:black; " description="&lt;b&gt;PF66_RS02100&lt;/b&gt;&lt;br&gt;LysR family transcriptional regulator&lt;br&gt;Location: 23364 - 22450&lt;br&gt;&lt;br&gt;&lt;b&gt;BlastP hit with MCIC6FC_014870&lt;/b&gt;&lt;br&gt;Percentage identity: 79&lt;br&gt;Percentage coverage: 103&lt;br&gt;BLAST bit score: 468&lt;br&gt;E-value: 6.5e-130" locus_tag="PF66_RS02100" class="clusterblast-orf" id="dummy-1_h1_3_3"  />
</g>
<g id="a1_004"  >
<polygon points="363,85 368,80 387,80 387,90 368,90 363,85 " style="fill:#d8d815; stroke-width:1; stroke:black; " description="&lt;b&gt;PF66_RS02095&lt;/b&gt;&lt;br&gt;DUF2063 domain-containing protein&lt;br&gt;Location: 22449 - 21688&lt;br&gt;&lt;br&gt;&lt;b&gt;BlastP hit with MCIC6FC_014871&lt;/b&gt;&lt;br&gt;Percentage identity: 54&lt;br&gt;Percentage coverage: 31&lt;br&gt;BLAST bit score: 246&lt;br&gt;E-value: 1.1e-62" locus_tag="PF66_RS02095" class="clusterblast-orf" id="dummy-1_h1_3_4"  />
</g>
<g id="a1_005"  >
<polygon points="387,85 392,80 415,80 415,90 392,90 387,85 " style="fill:#d8d815; stroke-width:1; stroke:black; " description="&lt;b&gt;PF66_RS02090&lt;/b&gt;&lt;br&gt;DUF692 domain-containing protein&lt;br&gt;Location: 21691 - 20807&lt;br&gt;&lt;br&gt;&lt;b&gt;BlastP hit with MCIC6FC_014871&lt;/b&gt;&lt;br&gt;Percentage identity: 69&lt;br&gt;Percentage coverage: 37&lt;br&gt;BLAST bit score: 404&lt;br&gt;E-value: 2.4e-110" locus_tag="PF66_RS02090" class="clusterblast-orf" id="dummy-1_h1_3_5"  />
</g>
<g id="a1_006"  >
<polygon points="415,85 420,80 425,80 425,90 420,90 415,85 " style="fill:white; stroke-width:1; stroke:black; " description="&lt;b&gt;PF66_RS02085&lt;/b&gt;&lt;br&gt;DUF2282 domain-containing protein&lt;br&gt;Location: 20798 - 20493" locus_tag="PF66_RS02085" class="clusterblast-orf" id="dummy-1_h1_3_6"  />
</g>
<g id="a1_007"  >
<polygon points="430,85 435,80 453,80 453,90 435,90 430,85 " style="fill:#15d8d8; stroke-width:1; stroke:black; " description="&lt;b&gt;PF66_RS02080&lt;/b&gt;&lt;br&gt;ABC transporter ATP-binding protein&lt;br&gt;Location: 20326 - 19625&lt;br&gt;&lt;br&gt;&lt;b&gt;BlastP hit with MCIC6FC_014872&lt;/b&gt;&lt;br&gt;Percentage identity: 94&lt;br&gt;Percentage coverage: 20&lt;br&gt;BLAST bit score: 429&lt;br&gt;E-value: 1.3e-117" locus_tag="PF66_RS02080" class="clusterblast-orf" id="dummy-1_h1_3_7"  />
</g>
<g id="a1_008"  >
<polygon points="453,85 458,80 477,80 477,90 458,90 453,85 " style="fill:#15d8d8; stroke-width:1; stroke:black; " description="&lt;b&gt;PF66_RS02075&lt;/b&gt;&lt;br&gt;ABC transporter ATP-binding protein&lt;br&gt;Location: 19624 - 18857&lt;br&gt;&lt;br&gt;&lt;b&gt;BlastP hit with MCIC6FC_014872&lt;/b&gt;&lt;br&gt;Percentage identity: 91&lt;br&gt;Percentage coverage: 22&lt;br&gt;BLAST bit score: 462&lt;br&gt;E-value: 1.1e-127" locus_tag="PF66_RS02075" class="clusterblast-orf" id="dummy-1_h1_3_8"  />
</g>
<g id="a1_009"  >
<polygon points="477,85 482,80 517,80 517,90 482,90 477,85 " style="fill:#15d8d8; stroke-width:1; stroke:black; " description="&lt;b&gt;PF66_RS02070&lt;/b&gt;&lt;br&gt;high-affinity branched-chain amino acid ABC transporter permease LivM&lt;br&gt;Location: 18860 - 17607&lt;br&gt;&lt;br&gt;&lt;b&gt;BlastP hit with MCIC6FC_014872&lt;/b&gt;&lt;br&gt;Percentage identity: 87&lt;br&gt;Percentage coverage: 34&lt;br&gt;BLAST bit score: 648&lt;br&gt;E-value: 1.4e-183" locus_tag="PF66_RS02070" class="clusterblast-orf" id="dummy-1_h1_3_9"  />
</g>
<g id="a1_0010"  >
<polygon points="517,85 522,80 546,80 546,90 522,90 517,85 " style="fill:#15d8d8; stroke-width:1; stroke:black; " description="&lt;b&gt;PF66_RS02065&lt;/b&gt;&lt;br&gt;high-affinity branched-chain amino acid ABC transporter permease LivH&lt;br&gt;Location: 17610 - 16687&lt;br&gt;&lt;br&gt;&lt;b&gt;BlastP hit with MCIC6FC_014872&lt;/b&gt;&lt;br&gt;Percentage identity: 94&lt;br&gt;Percentage coverage: 25&lt;br&gt;BLAST bit score: 514&lt;br&gt;E-value: 4.1e-143" locus_tag="PF66_RS02065" class="clusterblast-orf" id="dummy-1_h1_3_10"  />
</g>
</svg>
