<svg xmlns="http://www.w3.org/2000/svg" xmlns:xlink="http://www.w3.org/1999/xlink" version="1.1" x="0" y="0" height="230" width="800" viewBox="0 0 800 230" preserveAspectRatio="none"  >
<g label="Query sequence" class="clusterblast-cluster"  >
<text x="5" y="20" class="clusterblast-acc"  >
Query sequence</text>
<line x1="10" y1="35" x2="778.0" y2="35" style="stroke-width:1; stroke:grey; "  />
<polygon points="234,40 235,40 240,35 235,30 234,30 234,40 " style="fill:#d81515; stroke-width:1; stroke:black; " description="&lt;b&gt;MCIC6FC_020138&lt;/b&gt;&lt;br&gt;hypothetical protein&lt;br&gt;Location: 114 - 687" locus_tag="MCIC6FC_020138" class="clusterblast-orf" id="dummy-1_q0_0_all"  />
<polygon points="243,40 247,40 252,35 247,30 243,30 243,40 " style="fill:#4dd815; stroke-width:1; stroke:black; " description="&lt;b&gt;MCIC6FC_020139&lt;/b&gt;&lt;br&gt;hypothetical protein&lt;br&gt;Location: 960 - 1943" locus_tag="MCIC6FC_020139" class="clusterblast-orf" id="dummy-1_q1_0_all"  />
<polygon points="262,40 269,40 274,35 269,30 262,30 262,40 " style="fill:#1585d8; stroke-width:1; stroke:black; " description="&lt;b&gt;MCIC6FC_020140&lt;/b&gt;&lt;br&gt;hypothetical protein&lt;br&gt;Location: 2996 - 4226" locus_tag="MCIC6FC_020140" class="clusterblast-orf" id="dummy-1_q2_0_all"  />
<polygon points="278,40 286,40 291,35 286,30 278,30 278,40 " style="fill:#d815bc; stroke-width:1; stroke:black; " description="&lt;b&gt;MCIC6FC_020141&lt;/b&gt;&lt;br&gt;hypothetical protein&lt;br&gt;Location: 4568 - 5893" locus_tag="MCIC6FC_020141" class="clusterblast-orf" id="dummy-1_q3_0_all"  />
<polygon points="291,35 296,30 307,30 307,40 296,40 291,35 " style="fill:white; stroke-width:1; stroke:black; " description="&lt;b&gt;MCIC6FC_020142&lt;/b&gt;&lt;br&gt;hypothetical protein&lt;br&gt;Location: 5948 - 7562" locus_tag="MCIC6FC_020142" class="clusterblast-orf" id="dummy-1_q4_0_all"  />
<polygon points="320,35 325,30 400,30 400,40 325,40 320,35 " style="fill:#d8bc15; stroke-width:1; stroke:black; " description="&lt;b&gt;MCIC6FC_020143&lt;/b&gt;&lt;br&gt;hypothetical protein&lt;br&gt;Location: 8925 - 17130" locus_tag="MCIC6FC_020143" class="clusterblast-orf" id="dummy-1_q5_0_all"  />
<polygon points="401,35 406,30 410,30 410,40 406,40 401,35 " style="fill:#d8bc15; stroke-width:1; stroke:black; " description="&lt;b&gt;MCIC6FC_020144&lt;/b&gt;&lt;br&gt;hypothetical protein&lt;br&gt;Location: 17218 - 18097" locus_tag="MCIC6FC_020144" class="clusterblast-orf" id="dummy-1_q6_0_all"  />
<polygon points="411,35 416,30 417,30 417,40 416,40 411,35 " style="fill:#d8bc15; stroke-width:1; stroke:black; " description="&lt;b&gt;MCIC6FC_020145&lt;/b&gt;&lt;br&gt;hypothetical protein&lt;br&gt;Location: 18194 - 18878" locus_tag="MCIC6FC_020145" class="clusterblast-orf" id="dummy-1_q7_0_all"  />
<polygon points="434,35 439,30 453,30 453,40 439,40 434,35 " style="fill:#15d885; stroke-width:1; stroke:black; " description="&lt;b&gt;MCIC6FC_020146&lt;/b&gt;&lt;br&gt;hypothetical protein&lt;br&gt;Location: 20591 - 22534" locus_tag="MCIC6FC_020146" class="clusterblast-orf" id="dummy-1_q8_0_all"  />
<polygon points="455,35 460,30 465,30 465,40 460,40 455,35 " style="fill:white; stroke-width:1; stroke:black; " description="&lt;b&gt;MCIC6FC_020147&lt;/b&gt;&lt;br&gt;hypothetical protein&lt;br&gt;Location: 22743 - 23808" locus_tag="MCIC6FC_020147" class="clusterblast-orf" id="dummy-1_q9_0_all"  />
<polygon points="465,35 470,30 482,30 482,40 470,40 465,35 " style="fill:white; stroke-width:1; stroke:black; " description="&lt;b&gt;MCIC6FC_020148&lt;/b&gt;&lt;br&gt;hypothetical protein&lt;br&gt;Location: 23809 - 25562" locus_tag="MCIC6FC_020148" class="clusterblast-orf" id="dummy-1_q10_0_all"  />
<polygon points="483,35 488,30 513,30 513,40 488,40 483,35 " style="fill:#4d15d8; stroke-width:1; stroke:black; " description="&lt;b&gt;MCIC6FC_020149&lt;/b&gt;&lt;br&gt;hypothetical protein&lt;br&gt;Location: 25630 - 28698" locus_tag="MCIC6FC_020149" class="clusterblast-orf" id="dummy-1_q11_0_all"  />
<polygon points="513,35 518,30 545,30 545,40 518,40 513,35 " style="fill:white; stroke-width:1; stroke:black; " description="&lt;b&gt;MCIC6FC_020150&lt;/b&gt;&lt;br&gt;hypothetical protein&lt;br&gt;Location: 28737 - 31983" locus_tag="MCIC6FC_020150" class="clusterblast-orf" id="dummy-1_q12_0_all"  />
</g>
<g label="NZ_CP033073" description="NZ_CP033073 (6804471-6885256): Streptomyces sp. Z022 chromosome, complete genome (3% of genes show similarity), NRPS,T1PKS,T3PKS" class="clusterblast-cluster"  >
<text x="5" y="70" class="clusterblast-acc"  >
<a xlink:href="https://antismash-db.secondarymetabolites.org/area.html?record=NZ_CP033073&amp;start=6804471&amp;end=6885256" target="_blank">NZ_CP033073 (6804471-6885256)</a>: Streptomyces sp. Z022 chromosome, complete genome (3% of genes show similarity), NRPS,T1PKS,T3PKS</text>
<line x1="10" y1="85" x2="778.0" y2="85" style="stroke-width:1; stroke:grey; "  />
</g>
<g id="a1_000"  >
<polygon points="0,85 5,80 9,80 9,90 5,90 0,85 " style="fill:white; stroke-width:1; stroke:black; " description="&lt;b&gt;D9753_RS30855&lt;/b&gt;&lt;br&gt;ATP-binding cassette domain-containing protein&lt;br&gt;Location: 6805213 - 6806217" locus_tag="D9753_RS30855" class="clusterblast-orf" id="dummy-1_h1_9_0"  />
</g>
<g id="a1_001"  >
<polygon points="10,85 15,80 18,80 18,90 15,90 10,85 " style="fill:white; stroke-width:1; stroke:black; " description="&lt;b&gt;D9753_RS30860&lt;/b&gt;&lt;br&gt;DUF4097 family beta strand repeat protein&lt;br&gt;Location: 6806298 - 6807143" locus_tag="D9753_RS30860" class="clusterblast-orf" id="dummy-1_h1_9_1"  />
</g>
<g id="a1_002"  >
<polygon points="19,85 24,80 24,80 24,90 24,90 19,85 " style="fill:white; stroke-width:1; stroke:black; " description="&lt;b&gt;D9753_RS30865&lt;/b&gt;&lt;br&gt;toxin-antitoxin system HicB family antitoxin&lt;br&gt;Location: 6807234 - 6807752" locus_tag="D9753_RS30865" class="clusterblast-orf" id="dummy-1_h1_9_2"  />
</g>
<g id="a1_003"  >
<polygon points="30,90 34,85 30,80 30,90 " style="fill:white; stroke-width:1; stroke:black; " description="&lt;b&gt;D9753_RS30870&lt;/b&gt;&lt;br&gt;MerR family transcriptional regulator&lt;br&gt;Location: 6808369 - 6808713" locus_tag="D9753_RS30870" class="clusterblast-orf" id="dummy-1_h1_9_3"  />
</g>
<g id="a1_004"  >
<polygon points="35,85 40,80 52,80 52,90 40,90 35,85 " style="fill:white; stroke-width:1; stroke:black; " description="&lt;b&gt;D9753_RS30875&lt;/b&gt;&lt;br&gt;SpoIIE family protein phosphatase&lt;br&gt;Location: 6808848 - 6810560" locus_tag="D9753_RS30875" class="clusterblast-orf" id="dummy-1_h1_9_4"  />
</g>
<g id="a1_005"  >
<polygon points="60,90 63,85 60,80 60,90 " style="fill:white; stroke-width:1; stroke:black; " description="&lt;b&gt;D9753_RS30880&lt;/b&gt;&lt;br&gt;hypothetical protein&lt;br&gt;Location: 6811436 - 6811777" locus_tag="D9753_RS30880" class="clusterblast-orf" id="dummy-1_h1_9_5"  />
</g>
<g id="a1_006"  >
<polygon points="64,90 66,90 71,85 66,80 64,80 64,90 " style="fill:white; stroke-width:1; stroke:black; " description="&lt;b&gt;D9753_RS30885&lt;/b&gt;&lt;br&gt;DUF305 domain-containing protein&lt;br&gt;Location: 6811870 - 6812523" locus_tag="D9753_RS30885" class="clusterblast-orf" id="dummy-1_h1_9_6"  />
</g>
<g id="a1_007"  >
<polygon points="71,85 76,80 83,80 83,90 76,90 71,85 " style="fill:#15d885; stroke-width:1; stroke:black; " description="&lt;b&gt;D9753_RS30890&lt;/b&gt;&lt;br&gt;ornithine--oxo-acid transaminase&lt;br&gt;Location: 6812566 - 6813783&lt;br&gt;&lt;br&gt;&lt;b&gt;BlastP hit with MCIC6FC_020146&lt;/b&gt;&lt;br&gt;Percentage identity: 34&lt;br&gt;Percentage coverage: 56&lt;br&gt;BLAST bit score: 133&lt;br&gt;E-value: 7.6e-29" locus_tag="D9753_RS30890" class="clusterblast-orf" id="dummy-1_h1_9_7"  />
</g>
<g id="a1_008"  >
<polygon points="83,85 88,80 91,80 91,90 88,90 83,85 " style="fill:white; stroke-width:1; stroke:black; " description="&lt;b&gt;D9753_RS30895&lt;/b&gt;&lt;br&gt;amidinotransferase&lt;br&gt;Location: 6813783 - 6814592" locus_tag="D9753_RS30895" class="clusterblast-orf" id="dummy-1_h1_9_8"  />
</g>
<g id="a1_009"  >
<polygon points="92,85 97,80 97,80 97,90 97,90 92,85 " style="fill:white; stroke-width:1; stroke:black; " description="&lt;b&gt;D9753_RS30900&lt;/b&gt;&lt;br&gt;Lrp/AsnC family transcriptional regulator&lt;br&gt;Location: 6814745 - 6815230" locus_tag="D9753_RS30900" class="clusterblast-orf" id="dummy-1_h1_9_9"  />
</g>
<g id="a1_0010"  >
<polygon points="97,85 99,80 99,90 97,85 " style="fill:white; stroke-width:1; stroke:black; " description="&lt;b&gt;D9753_RS30905&lt;/b&gt;&lt;br&gt;hypothetical protein&lt;br&gt;Location: 6815268 - 6815447" locus_tag="D9753_RS30905" class="clusterblast-orf" id="dummy-1_h1_9_10"  />
</g>
<g id="a1_0011"  >
<polygon points="101,85 106,80 110,80 110,90 106,90 101,85 " style="fill:white; stroke-width:1; stroke:black; " description="&lt;b&gt;D9753_RS30910&lt;/b&gt;&lt;br&gt;cytochrome c oxidase assembly protein&lt;br&gt;Location: 6815592 - 6816542" locus_tag="D9753_RS30910" class="clusterblast-orf" id="dummy-1_h1_9_11"  />
</g>
<g id="a1_0012"  >
<polygon points="111,85 116,80 121,80 121,90 116,90 111,85 " style="fill:white; stroke-width:1; stroke:black; " description="&lt;b&gt;D9753_RS30915&lt;/b&gt;&lt;br&gt;6-phosphofructokinase&lt;br&gt;Location: 6816653 - 6817678" locus_tag="D9753_RS30915" class="clusterblast-orf" id="dummy-1_h1_9_12"  />
</g>
<g id="a1_0013"  >
<polygon points="123,85 128,80 130,80 130,90 128,90 123,85 " style="fill:white; stroke-width:1; stroke:black; " description="&lt;b&gt;D9753_RS30920&lt;/b&gt;&lt;br&gt;glutamine amidotransferase&lt;br&gt;Location: 6817906 - 6818634" locus_tag="D9753_RS30920" class="clusterblast-orf" id="dummy-1_h1_9_13"  />
</g>
<g id="a1_0014"  >
<polygon points="130,85 135,80 143,80 143,90 135,90 130,85 " style="fill:white; stroke-width:1; stroke:black; " description="&lt;b&gt;D9753_RS30925&lt;/b&gt;&lt;br&gt;DUF1727 domain-containing protein&lt;br&gt;Location: 6818656 - 6819894" locus_tag="D9753_RS30925" class="clusterblast-orf" id="dummy-1_h1_9_14"  />
</g>
<g id="a1_0015"  >
<polygon points="144,90 144,90 149,85 144,80 144,80 144,90 " style="fill:white; stroke-width:1; stroke:black; " description="&lt;b&gt;D9753_RS30930&lt;/b&gt;&lt;br&gt;peptide deformylase&lt;br&gt;Location: 6820048 - 6820587" locus_tag="D9753_RS30930" class="clusterblast-orf" id="dummy-1_h1_9_15"  />
</g>
<g id="a1_0016"  >
<polygon points="150,85 155,80 156,80 156,90 155,90 150,85 " style="fill:white; stroke-width:1; stroke:black; " description="&lt;b&gt;D9753_RS30935&lt;/b&gt;&lt;br&gt;TetR/AcrR family transcriptional regulator&lt;br&gt;Location: 6820612 - 6821256" locus_tag="D9753_RS30935" class="clusterblast-orf" id="dummy-1_h1_9_16"  />
</g>
<g id="a1_0017"  >
<polygon points="158,90 164,90 169,85 164,80 158,80 158,90 " style="fill:white; stroke-width:1; stroke:black; " description="&lt;b&gt;D9753_RS30940&lt;/b&gt;&lt;br&gt;acyl-CoA dehydrogenase&lt;br&gt;Location: 6821427 - 6822656" locus_tag="D9753_RS30940" class="clusterblast-orf" id="dummy-1_h1_9_17"  />
</g>
<g id="a1_0018"  >
<polygon points="170,85 175,80 175,80 175,90 175,90 170,85 " style="fill:white; stroke-width:1; stroke:black; " description="&lt;b&gt;D9753_RS30945&lt;/b&gt;&lt;br&gt;cupin domain-containing protein&lt;br&gt;Location: 6822732 - 6823253" locus_tag="D9753_RS30945" class="clusterblast-orf" id="dummy-1_h1_9_18"  />
</g>
<g id="a1_0019"  >
<polygon points="175,85 180,80 187,80 187,90 180,90 175,85 " style="fill:white; stroke-width:1; stroke:black; " description="&lt;b&gt;D9753_RS30950&lt;/b&gt;&lt;br&gt;cytochrome P450&lt;br&gt;Location: 6823261 - 6824475" locus_tag="D9753_RS30950" class="clusterblast-orf" id="dummy-1_h1_9_19"  />
</g>
<g id="a1_0020"  >
<polygon points="187,85 192,80 198,80 198,90 192,90 187,85 " style="fill:white; stroke-width:1; stroke:black; " description="&lt;b&gt;D9753_RS30955&lt;/b&gt;&lt;br&gt;type III polyketide synthase&lt;br&gt;Location: 6824472 - 6825536" locus_tag="D9753_RS30955" class="clusterblast-orf" id="dummy-1_h1_9_20"  />
</g>
<g id="a1_0021"  >
<polygon points="200,85 202,80 202,90 200,85 " style="fill:white; stroke-width:1; stroke:black; " description="&lt;b&gt;D9753_RS30960&lt;/b&gt;&lt;br&gt;hypothetical protein&lt;br&gt;Location: 6825786 - 6826007" locus_tag="D9753_RS30960" class="clusterblast-orf" id="dummy-1_h1_9_21"  />
</g>
<g id="a1_0022"  >
<polygon points="203,85 208,80 216,80 216,90 208,90 203,85 " style="fill:white; stroke-width:1; stroke:black; " description="&lt;b&gt;D9753_RS30965&lt;/b&gt;&lt;br&gt;NADP-dependent succinic semialdehyde dehydrogenase&lt;br&gt;Location: 6826046 - 6827431" locus_tag="D9753_RS30965" class="clusterblast-orf" id="dummy-1_h1_9_22"  />
</g>
<g id="a1_0023"  >
<polygon points="217,85 221,80 221,90 217,85 " style="fill:white; stroke-width:1; stroke:black; " description="&lt;b&gt;D9753_RS30970&lt;/b&gt;&lt;br&gt;NUDIX domain-containing protein&lt;br&gt;Location: 6827507 - 6827980" locus_tag="D9753_RS30970" class="clusterblast-orf" id="dummy-1_h1_9_23"  />
</g>
<g id="a1_0024"  >
<polygon points="221,85 226,80 236,80 236,90 226,90 221,85 " style="fill:white; stroke-width:1; stroke:black; " description="&lt;b&gt;D9753_RS30975&lt;/b&gt;&lt;br&gt;ATP-dependent DNA ligase&lt;br&gt;Location: 6827977 - 6829515" locus_tag="D9753_RS30975" class="clusterblast-orf" id="dummy-1_h1_9_24"  />
</g>
<g id="a1_0025"  >
<polygon points="238,90 238,90 243,85 238,80 238,80 238,90 " style="fill:white; stroke-width:1; stroke:black; " description="&lt;b&gt;D9753_RS30980&lt;/b&gt;&lt;br&gt;helix-turn-helix transcriptional regulator&lt;br&gt;Location: 6829680 - 6830252" locus_tag="D9753_RS30980" class="clusterblast-orf" id="dummy-1_h1_9_25"  />
</g>
<g id="a1_0026"  >
<polygon points="244,90 249,90 254,85 249,80 244,80 244,90 " style="fill:white; stroke-width:1; stroke:black; " description="&lt;b&gt;D9753_RS30985&lt;/b&gt;&lt;br&gt;NADPH:quinone oxidoreductase family protein&lt;br&gt;Location: 6830339 - 6831310" locus_tag="D9753_RS30985" class="clusterblast-orf" id="dummy-1_h1_9_26"  />
</g>
<g id="a1_0027"  >
<polygon points="254,90 260,90 265,85 260,80 254,80 254,90 " style="fill:white; stroke-width:1; stroke:black; " description="&lt;b&gt;D9753_RS30990&lt;/b&gt;&lt;br&gt;acyl-CoA dehydrogenase&lt;br&gt;Location: 6831307 - 6832488" locus_tag="D9753_RS30990" class="clusterblast-orf" id="dummy-1_h1_9_27"  />
</g>
<g id="a1_0028"  >
<polygon points="265,90 271,90 276,85 271,80 265,80 265,90 " style="fill:white; stroke-width:1; stroke:black; " description="&lt;b&gt;D9753_RS30995&lt;/b&gt;&lt;br&gt;acyl-CoA/acyl-ACP dehydrogenase&lt;br&gt;Location: 6832485 - 6833567" locus_tag="D9753_RS30995" class="clusterblast-orf" id="dummy-1_h1_9_28"  />
</g>
<g id="a1_0029"  >
<polygon points="278,90 279,85 278,80 278,90 " style="fill:white; stroke-width:1; stroke:black; " description="&lt;b&gt;D9753_RS36770&lt;/b&gt;&lt;br&gt;hypothetical protein&lt;br&gt;Location: 6833773 - 6833904" locus_tag="D9753_RS36770" class="clusterblast-orf" id="dummy-1_h1_9_29"  />
</g>
<g id="a1_0030"  >
<polygon points="280,90 282,85 280,80 280,90 " style="fill:white; stroke-width:1; stroke:black; " description="&lt;b&gt;D9753_RS31005&lt;/b&gt;&lt;br&gt;hypothetical protein&lt;br&gt;Location: 6834006 - 6834200" locus_tag="D9753_RS31005" class="clusterblast-orf" id="dummy-1_h1_9_30"  />
</g>
<g id="a1_0031"  >
<polygon points="282,85 287,80 293,80 293,90 287,90 282,85 " style="fill:white; stroke-width:1; stroke:black; " description="&lt;b&gt;D9753_RS31010&lt;/b&gt;&lt;br&gt;phosphodiester glycosidase family protein&lt;br&gt;Location: 6834202 - 6835365" locus_tag="D9753_RS31010" class="clusterblast-orf" id="dummy-1_h1_9_31"  />
</g>
<g id="a1_0032"  >
<polygon points="294,85 298,80 298,90 294,85 " style="fill:white; stroke-width:1; stroke:black; " description="&lt;b&gt;D9753_RS31015&lt;/b&gt;&lt;br&gt;DUF779 domain-containing protein&lt;br&gt;Location: 6835428 - 6835832" locus_tag="D9753_RS31015" class="clusterblast-orf" id="dummy-1_h1_9_32"  />
</g>
<g id="a1_0033"  >
<polygon points="299,85 304,80 305,80 305,90 304,90 299,85 " style="fill:white; stroke-width:1; stroke:black; " description="&lt;b&gt;D9753_RS31020&lt;/b&gt;&lt;br&gt;DedA family protein&lt;br&gt;Location: 6835965 - 6836603" locus_tag="D9753_RS31020" class="clusterblast-orf" id="dummy-1_h1_9_33"  />
</g>
<g id="a1_0034"  >
<polygon points="309,90 309,90 314,85 309,80 309,80 309,90 " style="fill:white; stroke-width:1; stroke:black; " description="&lt;b&gt;D9753_RS31025&lt;/b&gt;&lt;br&gt;hypothetical protein&lt;br&gt;Location: 6837007 - 6837528" locus_tag="D9753_RS31025" class="clusterblast-orf" id="dummy-1_h1_9_34"  />
</g>
<g id="a1_0035"  >
<polygon points="316,90 327,90 332,85 327,80 316,80 316,90 " style="fill:white; stroke-width:1; stroke:black; " description="&lt;b&gt;D9753_RS31030&lt;/b&gt;&lt;br&gt;long-chain fatty acid--CoA ligase&lt;br&gt;Location: 6837672 - 6839381" locus_tag="D9753_RS31030" class="clusterblast-orf" id="dummy-1_h1_9_35"  />
</g>
<g id="a1_0036"  >
<polygon points="335,85 339,80 339,90 335,85 " style="fill:white; stroke-width:1; stroke:black; " description="&lt;b&gt;D9753_RS31035&lt;/b&gt;&lt;br&gt;hypothetical protein&lt;br&gt;Location: 6839645 - 6840079" locus_tag="D9753_RS31035" class="clusterblast-orf" id="dummy-1_h1_9_36"  />
</g>
<g id="a1_0037"  >
<polygon points="339,85 344,80 350,80 350,90 344,90 339,85 " style="fill:white; stroke-width:1; stroke:black; " description="&lt;b&gt;D9753_RS31040&lt;/b&gt;&lt;br&gt;NAD(P)-binding domain-containing protein&lt;br&gt;Location: 6840076 - 6841158" locus_tag="D9753_RS31040" class="clusterblast-orf" id="dummy-1_h1_9_37"  />
</g>
<g id="a1_0038"  >
<polygon points="350,85 355,80 365,80 365,90 355,90 350,85 " style="fill:white; stroke-width:1; stroke:black; " description="&lt;b&gt;D9753_RS31045&lt;/b&gt;&lt;br&gt;MFS transporter&lt;br&gt;Location: 6841155 - 6842705" locus_tag="D9753_RS31045" class="clusterblast-orf" id="dummy-1_h1_9_38"  />
</g>
<g id="a1_0039"  >
<polygon points="366,85 371,80 477,80 477,90 371,90 366,85 " style="fill:#d8bc15; stroke-width:1; stroke:black; " description="&lt;b&gt;D9753_RS31050&lt;/b&gt;&lt;br&gt;amino acid adenylation domain-containing protein&lt;br&gt;Location: 6842822 - 6854209&lt;br&gt;&lt;br&gt;&lt;b&gt;BlastP hit with MCIC6FC_020143&lt;/b&gt;&lt;br&gt;Percentage identity: 31&lt;br&gt;Percentage coverage: 28&lt;br&gt;BLAST bit score: 218&lt;br&gt;E-value: 5.1e-54" locus_tag="D9753_RS31050" class="clusterblast-orf" id="dummy-1_h1_9_39"  />
</g>
<g id="a1_0040"  >
<polygon points="465,85 470,80 494,80 494,90 470,90 465,85 " style="fill:white; stroke-width:1; stroke:black; " description="&lt;b&gt;D9753_RS36775&lt;/b&gt;&lt;br&gt;acyltransferase domain-containing protein&lt;br&gt;Location: 6852970 - 6855990" locus_tag="D9753_RS36775" class="clusterblast-orf" id="dummy-1_h1_9_40"  />
</g>
<g id="a1_0041"  >
<polygon points="496,85 501,80 590,80 590,90 501,90 496,85 " style="fill:white; stroke-width:1; stroke:black; " description="&lt;b&gt;D9753_RS31065&lt;/b&gt;&lt;br&gt;SDR family NAD(P)-dependent oxidoreductase&lt;br&gt;Location: 6856206 - 6865835" locus_tag="D9753_RS31065" class="clusterblast-orf" id="dummy-1_h1_9_41"  />
</g>
<g id="a1_0042"  >
<polygon points="593,85 598,80 602,80 602,90 598,90 593,85 " style="fill:white; stroke-width:1; stroke:black; " description="&lt;b&gt;D9753_RS31070&lt;/b&gt;&lt;br&gt;LysR family transcriptional regulator&lt;br&gt;Location: 6866094 - 6866993" locus_tag="D9753_RS31070" class="clusterblast-orf" id="dummy-1_h1_9_42"  />
</g>
<g id="a1_0043"  >
<polygon points="607,85 610,80 610,90 607,85 " style="fill:white; stroke-width:1; stroke:black; " description="&lt;b&gt;D9753_RS31075&lt;/b&gt;&lt;br&gt;hypothetical protein&lt;br&gt;Location: 6867522 - 6867848" locus_tag="D9753_RS31075" class="clusterblast-orf" id="dummy-1_h1_9_43"  />
</g>
<g id="a1_0044"  >
<polygon points="610,85 615,80 616,80 616,90 615,90 610,85 " style="fill:white; stroke-width:1; stroke:black; " description="&lt;b&gt;D9753_RS31080&lt;/b&gt;&lt;br&gt;RNA polymerase sigma factor&lt;br&gt;Location: 6867854 - 6868477" locus_tag="D9753_RS31080" class="clusterblast-orf" id="dummy-1_h1_9_44"  />
</g>
<g id="a1_0045"  >
<polygon points="629,90 636,90 641,85 636,80 629,80 629,90 " style="fill:white; stroke-width:1; stroke:black; " description="&lt;b&gt;D9753_RS31090&lt;/b&gt;&lt;br&gt;MFS transporter&lt;br&gt;Location: 6869805 - 6871028" locus_tag="D9753_RS31090" class="clusterblast-orf" id="dummy-1_h1_9_45"  />
</g>
<g id="a1_0046"  >
<polygon points="644,90 660,90 665,85 660,80 644,80 644,90 " style="fill:white; stroke-width:1; stroke:black; " description="&lt;b&gt;D9753_RS31095&lt;/b&gt;&lt;br&gt;alpha-L-arabinofuranosidase&lt;br&gt;Location: 6871390 - 6873516" locus_tag="D9753_RS31095" class="clusterblast-orf" id="dummy-1_h1_9_46"  />
</g>
<g id="a1_0047"  >
<polygon points="667,90 672,90 677,85 672,80 667,80 667,90 " style="fill:white; stroke-width:1; stroke:black; " description="&lt;b&gt;D9753_RS31100&lt;/b&gt;&lt;br&gt;sodium:calcium antiporter&lt;br&gt;Location: 6873676 - 6874740" locus_tag="D9753_RS31100" class="clusterblast-orf" id="dummy-1_h1_9_47"  />
</g>
<g id="a1_0048"  >
<polygon points="677,85 682,80 688,80 688,90 682,90 677,85 " style="fill:white; stroke-width:1; stroke:black; " description="&lt;b&gt;D9753_RS31105&lt;/b&gt;&lt;br&gt;YihY/virulence factor BrkB family protein&lt;br&gt;Location: 6874788 - 6875849" locus_tag="D9753_RS31105" class="clusterblast-orf" id="dummy-1_h1_9_48"  />
</g>
<g id="a1_0049"  >
<polygon points="690,90 694,90 699,85 694,80 690,80 690,90 " style="fill:white; stroke-width:1; stroke:black; " description="&lt;b&gt;D9753_RS31110&lt;/b&gt;&lt;br&gt;YihY/virulence factor BrkB family protein&lt;br&gt;Location: 6876033 - 6877040" locus_tag="D9753_RS31110" class="clusterblast-orf" id="dummy-1_h1_9_49"  />
</g>
<g id="a1_0050"  >
<polygon points="703,85 708,80 718,80 718,90 708,90 703,85 " style="fill:white; stroke-width:1; stroke:black; " description="&lt;b&gt;D9753_RS31115&lt;/b&gt;&lt;br&gt;hypothetical protein&lt;br&gt;Location: 6877414 - 6878909" locus_tag="D9753_RS31115" class="clusterblast-orf" id="dummy-1_h1_9_50"  />
</g>
<g id="a1_0051"  >
<polygon points="720,90 722,85 720,80 720,90 " style="fill:white; stroke-width:1; stroke:black; " description="&lt;b&gt;D9753_RS31120&lt;/b&gt;&lt;br&gt;coagulation factor 5/8 type domain-containing protein&lt;br&gt;Location: 6879143 - 6879322" locus_tag="D9753_RS31120" class="clusterblast-orf" id="dummy-1_h1_9_51"  />
</g>
<g id="a1_0052"  >
<polygon points="722,85 726,80 726,90 722,85 " style="fill:white; stroke-width:1; stroke:black; " description="&lt;b&gt;D9753_RS31125&lt;/b&gt;&lt;br&gt;spore-associated protein A&lt;br&gt;Location: 6879397 - 6879732" locus_tag="D9753_RS31125" class="clusterblast-orf" id="dummy-1_h1_9_52"  />
</g>
<g id="a1_0053"  >
<polygon points="732,90 737,90 742,85 737,80 732,80 732,90 " style="fill:white; stroke-width:1; stroke:black; " description="&lt;b&gt;D9753_RS31130&lt;/b&gt;&lt;br&gt;sensor histidine kinase&lt;br&gt;Location: 6880344 - 6881405" locus_tag="D9753_RS31130" class="clusterblast-orf" id="dummy-1_h1_9_53"  />
</g>
<g id="a1_0054"  >
<polygon points="742,90 743,90 748,85 743,80 742,80 742,90 " style="fill:white; stroke-width:1; stroke:black; " description="&lt;b&gt;D9753_RS31135&lt;/b&gt;&lt;br&gt;response regulator transcription factor&lt;br&gt;Location: 6881402 - 6882064" locus_tag="D9753_RS31135" class="clusterblast-orf" id="dummy-1_h1_9_54"  />
</g>
<g id="a1_0055"  >
<polygon points="750,90 751,90 756,85 751,80 750,80 750,90 " style="fill:white; stroke-width:1; stroke:black; " description="&lt;b&gt;D9753_RS31140&lt;/b&gt;&lt;br&gt;GPP34 family phosphoprotein&lt;br&gt;Location: 6882197 - 6882841" locus_tag="D9753_RS31140" class="clusterblast-orf" id="dummy-1_h1_9_55"  />
</g>
<g id="a1_0056"  >
<polygon points="756,90 766,90 771,85 766,80 756,80 756,90 " style="fill:white; stroke-width:1; stroke:black; " description="&lt;b&gt;D9753_RS31145&lt;/b&gt;&lt;br&gt;carboxylesterase family protein&lt;br&gt;Location: 6882843 - 6884378" locus_tag="D9753_RS31145" class="clusterblast-orf" id="dummy-1_h1_9_56"  />
</g>
<g id="a1_0057"  >
<polygon points="772,85 777,80 780,80 780,90 777,90 772,85 " style="fill:white; stroke-width:1; stroke:black; " description="&lt;b&gt;D9753_RS31150&lt;/b&gt;&lt;br&gt;SDR family oxidoreductase&lt;br&gt;Location: 6884519 - 6885256" locus_tag="D9753_RS31150" class="clusterblast-orf" id="dummy-1_h1_9_57"  />
</g>
</svg>
