<svg xmlns="http://www.w3.org/2000/svg" xmlns:xlink="http://www.w3.org/1999/xlink" version="1.1" x="0" y="0" height="230" width="800" viewBox="0 0 800 230" preserveAspectRatio="none"  >
<g label="Query sequence" class="clusterblast-cluster"  >
<text x="5" y="20" class="clusterblast-acc"  >
Query sequence</text>
<line x1="10" y1="35" x2="778.0" y2="35" style="stroke-width:1; stroke:grey; "  />
<polygon points="189,35 194,30 239,30 239,40 194,40 189,35 " style="fill:white; stroke-width:1; stroke:black; " description="&lt;b&gt;MCIC6FC_015726&lt;/b&gt;&lt;br&gt;hypothetical protein&lt;br&gt;Location: 219963 - 224935" locus_tag="MCIC6FC_015726" class="clusterblast-orf" id="dummy-1_q0_0_all"  />
<polygon points="242,40 304,40 309,35 304,30 242,30 242,40 " style="fill:white; stroke-width:1; stroke:black; " description="&lt;b&gt;MCIC6FC_015727&lt;/b&gt;&lt;br&gt;hypothetical protein&lt;br&gt;Location: 225227 - 232016" locus_tag="MCIC6FC_015727" class="clusterblast-orf" id="dummy-1_q1_0_all"  />
<polygon points="310,40 310,40 315,35 310,30 310,30 310,40 " style="fill:white; stroke-width:1; stroke:black; " description="&lt;b&gt;MCIC6FC_015728&lt;/b&gt;&lt;br&gt;hypothetical protein&lt;br&gt;Location: 232179 - 232641" locus_tag="MCIC6FC_015728" class="clusterblast-orf" id="dummy-1_q2_0_all"  />
<polygon points="317,35 322,30 327,30 327,40 322,40 317,35 " style="fill:white; stroke-width:1; stroke:black; " description="&lt;b&gt;MCIC6FC_015729&lt;/b&gt;&lt;br&gt;hypothetical protein&lt;br&gt;Location: 232802 - 233845" locus_tag="MCIC6FC_015729" class="clusterblast-orf" id="dummy-1_q3_0_all"  />
<polygon points="327,35 332,30 367,30 367,40 332,40 327,35 " style="fill:white; stroke-width:1; stroke:black; " description="&lt;b&gt;MCIC6FC_015730&lt;/b&gt;&lt;br&gt;hypothetical protein&lt;br&gt;Location: 233870 - 237951" locus_tag="MCIC6FC_015730" class="clusterblast-orf" id="dummy-1_q4_0_all"  />
<polygon points="369,40 383,40 388,35 383,30 369,30 369,40 " style="fill:#d81515; stroke-width:1; stroke:black; " description="&lt;b&gt;MCIC6FC_015731&lt;/b&gt;&lt;br&gt;hypothetical protein&lt;br&gt;Location: 238143 - 240051" locus_tag="MCIC6FC_015731" class="clusterblast-orf" id="dummy-1_q5_0_all"  />
<polygon points="392,40 394,40 399,35 394,30 392,30 392,40 " style="fill:#15d815; stroke-width:1; stroke:black; " description="&lt;b&gt;MCIC6FC_015732&lt;/b&gt;&lt;br&gt;hypothetical protein&lt;br&gt;Location: 240415 - 241110" locus_tag="MCIC6FC_015732" class="clusterblast-orf" id="dummy-1_q6_0_all"  />
<polygon points="399,40 408,40 413,35 408,30 399,30 399,40 " style="fill:#15d815; stroke-width:1; stroke:black; " description="&lt;b&gt;MCIC6FC_015733&lt;/b&gt;&lt;br&gt;hypothetical protein&lt;br&gt;Location: 241181 - 242573" locus_tag="MCIC6FC_015733" class="clusterblast-orf" id="dummy-1_q7_0_all"  />
<polygon points="414,35 419,30 443,30 443,40 419,40 414,35 " style="fill:#1515d8; stroke-width:1; stroke:black; " description="&lt;b&gt;MCIC6FC_015734&lt;/b&gt;&lt;br&gt;hypothetical protein&lt;br&gt;Location: 242686 - 245622" locus_tag="MCIC6FC_015734" class="clusterblast-orf" id="dummy-1_q8_0_all"  />
<polygon points="444,40 447,35 444,30 444,40 " style="fill:white; stroke-width:1; stroke:black; " description="&lt;b&gt;MCIC6FC_015735&lt;/b&gt;&lt;br&gt;hypothetical protein&lt;br&gt;Location: 245715 - 246014" locus_tag="MCIC6FC_015735" class="clusterblast-orf" id="dummy-1_q9_0_all"  />
<polygon points="449,35 454,30 464,30 464,40 454,40 449,35 " style="fill:white; stroke-width:1; stroke:black; " description="&lt;b&gt;MCIC6FC_015736&lt;/b&gt;&lt;br&gt;hypothetical protein&lt;br&gt;Location: 246155 - 247676" locus_tag="MCIC6FC_015736" class="clusterblast-orf" id="dummy-1_q10_0_all"  />
<polygon points="469,40 472,40 477,35 472,30 469,30 469,40 " style="fill:white; stroke-width:1; stroke:black; " description="&lt;b&gt;MCIC6FC_015737&lt;/b&gt;&lt;br&gt;hypothetical protein&lt;br&gt;Location: 248191 - 248986" locus_tag="MCIC6FC_015737" class="clusterblast-orf" id="dummy-1_q11_0_all"  />
<polygon points="477,35 482,30 490,30 490,40 482,40 477,35 " style="fill:white; stroke-width:1; stroke:black; " description="&lt;b&gt;MCIC6FC_015738&lt;/b&gt;&lt;br&gt;hypothetical protein&lt;br&gt;Location: 249038 - 250333" locus_tag="MCIC6FC_015738" class="clusterblast-orf" id="dummy-1_q12_0_all"  />
<polygon points="490,35 495,30 500,30 500,40 495,40 490,35 " style="fill:white; stroke-width:1; stroke:black; " description="&lt;b&gt;MCIC6FC_015739&lt;/b&gt;&lt;br&gt;hypothetical protein&lt;br&gt;Location: 250378 - 251386" locus_tag="MCIC6FC_015739" class="clusterblast-orf" id="dummy-1_q13_0_all"  />
<polygon points="501,40 503,40 508,35 503,30 501,30 501,40 " style="fill:white; stroke-width:1; stroke:black; " description="&lt;b&gt;MCIC6FC_015740&lt;/b&gt;&lt;br&gt;hypothetical protein&lt;br&gt;Location: 251445 - 252194" locus_tag="MCIC6FC_015740" class="clusterblast-orf" id="dummy-1_q14_0_all"  />
<polygon points="509,35 514,30 543,30 543,40 514,40 509,35 " style="fill:white; stroke-width:1; stroke:black; " description="&lt;b&gt;MCIC6FC_015741&lt;/b&gt;&lt;br&gt;hypothetical protein&lt;br&gt;Location: 252222 - 255671" locus_tag="MCIC6FC_015741" class="clusterblast-orf" id="dummy-1_q15_0_all"  />
<polygon points="543,35 548,30 562,30 562,40 548,40 543,35 " style="fill:white; stroke-width:1; stroke:black; " description="&lt;b&gt;MCIC6FC_015742&lt;/b&gt;&lt;br&gt;hypothetical protein&lt;br&gt;Location: 255717 - 257591" locus_tag="MCIC6FC_015742" class="clusterblast-orf" id="dummy-1_q16_0_all"  />
<polygon points="563,40 585,40 590,35 585,30 563,30 563,40 " style="fill:white; stroke-width:1; stroke:black; " description="&lt;b&gt;MCIC6FC_015743&lt;/b&gt;&lt;br&gt;hypothetical protein&lt;br&gt;Location: 257671 - 260408" locus_tag="MCIC6FC_015743" class="clusterblast-orf" id="dummy-1_q17_0_all"  />
</g>
<g label="NZ_CP015202" description="NZ_CP015202 (897888-976719): Pseudomonas putida B6-2 chromosome, complete genome (12% of genes show similarity), NRPS" class="clusterblast-cluster"  >
<text x="5" y="70" class="clusterblast-acc"  >
<a xlink:href="https://antismash-db.secondarymetabolites.org/area.html?record=NZ_CP015202&amp;start=897888&amp;end=976719" target="_blank">NZ_CP015202 (897888-976719)</a>: Pseudomonas putida B6-2 chromosome, complete genome (12% of genes show similarity), NRPS</text>
<line x1="10" y1="85" x2="778.0" y2="85" style="stroke-width:1; stroke:grey; "  />
</g>
<g id="a1_000"  >
<polygon points="0,90 3,90 8,85 3,80 0,80 0,90 " style="fill:white; stroke-width:1; stroke:black; " description="&lt;b&gt;KKK_RS04305&lt;/b&gt;&lt;br&gt;ABC transporter substrate-binding protein&lt;br&gt;Location: 976719 - 975829" locus_tag="KKK_RS04305" class="clusterblast-orf" id="dummy-1_h1_10_0"  />
</g>
<g id="a1_001"  >
<polygon points="8,90 22,90 27,85 22,80 8,80 8,90 " style="fill:#d81515; stroke-width:1; stroke:black; " description="&lt;b&gt;KKK_RS04300&lt;/b&gt;&lt;br&gt;response regulator&lt;br&gt;Location: 975832 - 973901&lt;br&gt;&lt;br&gt;&lt;b&gt;BlastP hit with MCIC6FC_015731&lt;/b&gt;&lt;br&gt;Percentage identity: 54&lt;br&gt;Percentage coverage: 116&lt;br&gt;BLAST bit score: 545&lt;br&gt;E-value: 4.6e-153" locus_tag="KKK_RS04300" class="clusterblast-orf" id="dummy-1_h1_10_1"  />
</g>
<g id="a1_002"  >
<polygon points="29,90 30,90 35,85 30,80 29,80 29,90 " style="fill:#15d815; stroke-width:1; stroke:black; " description="&lt;b&gt;KKK_RS04295&lt;/b&gt;&lt;br&gt;3-hydroxyacyl-[acyl-carrier-protein] dehydratase FabA&lt;br&gt;Location: 973693 - 973178&lt;br&gt;&lt;br&gt;&lt;b&gt;BlastP hit with MCIC6FC_015732&lt;/b&gt;&lt;br&gt;Percentage identity: 91&lt;br&gt;Percentage coverage: 58&lt;br&gt;BLAST bit score: 234&lt;br&gt;E-value: 8.8e-60" locus_tag="KKK_RS04295" class="clusterblast-orf" id="dummy-1_h1_10_2"  />
</g>
<g id="a1_003"  >
<polygon points="35,90 42,90 47,85 42,80 35,80 35,90 " style="fill:#15d815; stroke-width:1; stroke:black; " description="&lt;b&gt;KKK_RS04290&lt;/b&gt;&lt;br&gt;beta-ketoacyl-ACP synthase I&lt;br&gt;Location: 973166 - 971946&lt;br&gt;&lt;br&gt;&lt;b&gt;BlastP hit with MCIC6FC_015732&lt;/b&gt;&lt;br&gt;Percentage identity: 93&lt;br&gt;Percentage coverage: 41&lt;br&gt;BLAST bit score: 160&lt;br&gt;E-value: 1.6e-37&lt;br&gt;&lt;br&gt;&lt;b&gt;BlastP hit with MCIC6FC_015733&lt;/b&gt;&lt;br&gt;Percentage identity: 80&lt;br&gt;Percentage coverage: 64&lt;br&gt;BLAST bit score: 403&lt;br&gt;E-value: 2.8e-110" locus_tag="KKK_RS04290" class="clusterblast-orf" id="dummy-1_h1_10_3"  />
</g>
<g id="a1_004"  >
<polygon points="48,85 53,80 58,80 58,90 53,90 48,85 " style="fill:white; stroke-width:1; stroke:black; " description="&lt;b&gt;KKK_RS04285&lt;/b&gt;&lt;br&gt;amidohydrolase family protein&lt;br&gt;Location: 971788 - 970781" locus_tag="KKK_RS04285" class="clusterblast-orf" id="dummy-1_h1_10_4"  />
</g>
<g id="a1_005"  >
<polygon points="59,90 63,90 68,85 63,80 59,80 59,90 " style="fill:white; stroke-width:1; stroke:black; " description="&lt;b&gt;KKK_RS04280&lt;/b&gt;&lt;br&gt;pirin family protein&lt;br&gt;Location: 970663 - 969800" locus_tag="KKK_RS04280" class="clusterblast-orf" id="dummy-1_h1_10_5"  />
</g>
<g id="a1_006"  >
<polygon points="69,85 74,80 77,80 77,90 74,90 69,85 " style="fill:#1515d8; stroke-width:1; stroke:black; " description="&lt;b&gt;KKK_RS04275&lt;/b&gt;&lt;br&gt;dienelactone hydrolase family protein&lt;br&gt;Location: 969660 - 968935&lt;br&gt;&lt;br&gt;&lt;b&gt;BlastP hit with MCIC6FC_015734&lt;/b&gt;&lt;br&gt;Percentage identity: 38&lt;br&gt;Percentage coverage: 27&lt;br&gt;BLAST bit score: 114&lt;br&gt;E-value: 6.8e-23" locus_tag="KKK_RS04275" class="clusterblast-orf" id="dummy-1_h1_10_6"  />
</g>
<g id="a1_007"  >
<polygon points="77,85 82,80 96,80 96,90 82,90 77,85 " style="fill:#1515d8; stroke-width:1; stroke:black; " description="&lt;b&gt;KKK_RS04270&lt;/b&gt;&lt;br&gt;molecular chaperone HtpG&lt;br&gt;Location: 968871 - 966967&lt;br&gt;&lt;br&gt;&lt;b&gt;BlastP hit with MCIC6FC_015734&lt;/b&gt;&lt;br&gt;Percentage identity: 73&lt;br&gt;Percentage coverage: 76&lt;br&gt;BLAST bit score: 844&lt;br&gt;E-value: 9.5e-243" locus_tag="KKK_RS04270" class="clusterblast-orf" id="dummy-1_h1_10_7"  />
</g>
<g id="a1_008"  >
<polygon points="97,85 101,80 101,90 97,85 " style="fill:white; stroke-width:1; stroke:black; " description="&lt;b&gt;KKK_RS04265&lt;/b&gt;&lt;br&gt;PaaI family thioesterase&lt;br&gt;Location: 966897 - 966415" locus_tag="KKK_RS04265" class="clusterblast-orf" id="dummy-1_h1_10_8"  />
</g>
<g id="a1_009"  >
<polygon points="101,85 106,80 106,80 106,90 106,90 101,85 " style="fill:white; stroke-width:1; stroke:black; " description="&lt;b&gt;KKK_RS04260&lt;/b&gt;&lt;br&gt;PaaI family thioesterase&lt;br&gt;Location: 966418 - 965942" locus_tag="KKK_RS04260" class="clusterblast-orf" id="dummy-1_h1_10_9"  />
</g>
<g id="a1_0010"  >
<polygon points="108,90 110,85 108,80 108,90 " style="fill:white; stroke-width:1; stroke:black; " description="&lt;b&gt;KKK_RS04255&lt;/b&gt;&lt;br&gt;hypothetical protein&lt;br&gt;Location: 965787 - 965515" locus_tag="KKK_RS04255" class="clusterblast-orf" id="dummy-1_h1_10_10"  />
</g>
<g id="a1_0011"  >
<polygon points="112,90 119,90 124,85 119,80 112,80 112,90 " style="fill:white; stroke-width:1; stroke:black; " description="&lt;b&gt;KKK_RS04250&lt;/b&gt;&lt;br&gt;efflux RND transporter periplasmic adaptor subunit&lt;br&gt;Location: 965309 - 964146" locus_tag="KKK_RS04250" class="clusterblast-orf" id="dummy-1_h1_10_11"  />
</g>
<g id="a1_0012"  >
<polygon points="124,90 138,90 143,85 138,80 124,80 124,90 " style="fill:white; stroke-width:1; stroke:black; " description="&lt;b&gt;KKK_RS04245&lt;/b&gt;&lt;br&gt;MacB family efflux pump subunit&lt;br&gt;Location: 964145 - 962175" locus_tag="KKK_RS04245" class="clusterblast-orf" id="dummy-1_h1_10_12"  />
</g>
<g id="a1_0013"  >
<polygon points="143,90 153,90 158,85 153,80 143,80 143,90 " style="fill:white; stroke-width:1; stroke:black; " description="&lt;b&gt;KKK_RS04240&lt;/b&gt;&lt;br&gt;efflux transporter outer membrane subunit&lt;br&gt;Location: 962178 - 960739" locus_tag="KKK_RS04240" class="clusterblast-orf" id="dummy-1_h1_10_13"  />
</g>
<g id="a1_0014"  >
<polygon points="158,90 163,90 168,85 163,80 158,80 158,90 " style="fill:white; stroke-width:1; stroke:black; " description="&lt;b&gt;KKK_RS04235&lt;/b&gt;&lt;br&gt;acetyltransferase&lt;br&gt;Location: 960662 - 959643" locus_tag="KKK_RS04235" class="clusterblast-orf" id="dummy-1_h1_10_14"  />
</g>
<g id="a1_0015"  >
<polygon points="169,90 180,90 185,85 180,80 169,80 169,90 " style="fill:white; stroke-width:1; stroke:black; " description="&lt;b&gt;KKK_RS04230&lt;/b&gt;&lt;br&gt;cyclic peptide export ABC transporter&lt;br&gt;Location: 959620 - 957971" locus_tag="KKK_RS04230" class="clusterblast-orf" id="dummy-1_h1_10_15"  />
</g>
<g id="a1_0016"  >
<polygon points="187,90 224,90 229,85 224,80 187,80 187,90 " style="fill:white; stroke-width:1; stroke:black; " description="&lt;b&gt;KKK_RS04225&lt;/b&gt;&lt;br&gt;non-ribosomal peptide synthetase&lt;br&gt;Location: 957764 - 953556" locus_tag="KKK_RS04225" class="clusterblast-orf" id="dummy-1_h1_10_16"  />
</g>
<g id="a1_0017"  >
<polygon points="229,90 233,90 238,85 233,80 229,80 229,90 " style="fill:white; stroke-width:1; stroke:black; " description="&lt;b&gt;KKK_RS04220&lt;/b&gt;&lt;br&gt;formylglycine-generating enzyme family protein&lt;br&gt;Location: 953518 - 952640" locus_tag="KKK_RS04220" class="clusterblast-orf" id="dummy-1_h1_10_17"  />
</g>
<g id="a1_0018"  >
<polygon points="238,85 243,80 263,80 263,90 243,90 238,85 " style="fill:white; stroke-width:1; stroke:black; " description="&lt;b&gt;KKK_RS04215&lt;/b&gt;&lt;br&gt;TonB-dependent siderophore receptor&lt;br&gt;Location: 952582 - 950090" locus_tag="KKK_RS04215" class="clusterblast-orf" id="dummy-1_h1_10_18"  />
</g>
<g id="a1_0019"  >
<polygon points="266,85 271,80 297,80 297,90 271,90 266,85 " style="fill:white; stroke-width:1; stroke:black; " description="&lt;b&gt;KKK_RS04210&lt;/b&gt;&lt;br&gt;non-ribosomal peptide synthetase&lt;br&gt;Location: 949781 - 946605" locus_tag="KKK_RS04210" class="clusterblast-orf" id="dummy-1_h1_10_19"  />
</g>
<g id="a1_0020"  >
<polygon points="297,85 302,80 399,80 399,90 302,90 297,85 " style="fill:white; stroke-width:1; stroke:black; " description="&lt;b&gt;KKK_RS04205&lt;/b&gt;&lt;br&gt;non-ribosomal peptide synthetase&lt;br&gt;Location: 946608 - 936310" locus_tag="KKK_RS04205" class="clusterblast-orf" id="dummy-1_h1_10_20"  />
</g>
<g id="a1_0021"  >
<polygon points="399,85 404,80 433,80 433,90 404,90 399,85 " style="fill:white; stroke-width:1; stroke:black; " description="&lt;b&gt;KKK_RS04200&lt;/b&gt;&lt;br&gt;non-ribosomal peptide synthetase&lt;br&gt;Location: 936297 - 932908" locus_tag="KKK_RS04200" class="clusterblast-orf" id="dummy-1_h1_10_21"  />
</g>
<g id="a1_0022"  >
<polygon points="433,85 438,80 588,80 588,90 438,90 433,85 " style="fill:white; stroke-width:1; stroke:black; " description="&lt;b&gt;KKK_RS04195&lt;/b&gt;&lt;br&gt;non-ribosomal peptide synthetase&lt;br&gt;Location: 932908 - 917216" locus_tag="KKK_RS04195" class="clusterblast-orf" id="dummy-1_h1_10_22"  />
</g>
<g id="a1_0023"  >
<polygon points="591,90 598,90 603,85 598,80 591,80 591,90 " style="fill:white; stroke-width:1; stroke:black; " description="&lt;b&gt;KKK_RS04190&lt;/b&gt;&lt;br&gt;PepSY domain-containing protein&lt;br&gt;Location: 916967 - 915771" locus_tag="KKK_RS04190" class="clusterblast-orf" id="dummy-1_h1_10_23"  />
</g>
<g id="a1_0024"  >
<polygon points="603,90 603,90 608,85 603,80 603,80 603,90 " style="fill:white; stroke-width:1; stroke:black; " description="&lt;b&gt;KKK_RS04185&lt;/b&gt;&lt;br&gt;hypothetical protein&lt;br&gt;Location: 915774 - 915232" locus_tag="KKK_RS04185" class="clusterblast-orf" id="dummy-1_h1_10_24"  />
</g>
<g id="a1_0025"  >
<polygon points="608,85 613,80 616,80 616,90 613,90 608,85 " style="fill:white; stroke-width:1; stroke:black; " description="&lt;b&gt;KKK_RS04180&lt;/b&gt;&lt;br&gt;DUF599 family protein&lt;br&gt;Location: 915202 - 914453" locus_tag="KKK_RS04180" class="clusterblast-orf" id="dummy-1_h1_10_25"  />
</g>
<g id="a1_0026"  >
<polygon points="618,85 623,80 631,80 631,90 623,90 618,85 " style="fill:white; stroke-width:1; stroke:black; " description="&lt;b&gt;KKK_RS04175&lt;/b&gt;&lt;br&gt;branched-chain amino acid transport system II carrier protein&lt;br&gt;Location: 914217 - 912904" locus_tag="KKK_RS04175" class="clusterblast-orf" id="dummy-1_h1_10_26"  />
</g>
<g id="a1_0027"  >
<polygon points="635,85 640,80 644,80 644,90 640,90 635,85 " style="fill:white; stroke-width:1; stroke:black; " description="&lt;b&gt;KKK_RS04170&lt;/b&gt;&lt;br&gt;succinate--CoA ligase subunit alpha&lt;br&gt;Location: 912500 - 911616" locus_tag="KKK_RS04170" class="clusterblast-orf" id="dummy-1_h1_10_27"  />
</g>
<g id="a1_0028"  >
<polygon points="644,85 649,80 655,80 655,90 649,90 644,85 " style="fill:white; stroke-width:1; stroke:black; " description="&lt;b&gt;KKK_RS04165&lt;/b&gt;&lt;br&gt;ADP-forming succinate--CoA ligase subunit beta&lt;br&gt;Location: 911616 - 910450" locus_tag="KKK_RS04165" class="clusterblast-orf" id="dummy-1_h1_10_28"  />
</g>
<g id="a1_0029"  >
<polygon points="657,85 662,80 671,80 671,90 662,90 657,85 " style="fill:white; stroke-width:1; stroke:black; " description="&lt;b&gt;KKK_RS04160&lt;/b&gt;&lt;br&gt;dihydrolipoyl dehydrogenase&lt;br&gt;Location: 910278 - 908842" locus_tag="KKK_RS04160" class="clusterblast-orf" id="dummy-1_h1_10_29"  />
</g>
<g id="a1_0030"  >
<polygon points="672,85 677,80 684,80 684,90 677,90 672,85 " style="fill:white; stroke-width:1; stroke:black; " description="&lt;b&gt;KKK_RS04155&lt;/b&gt;&lt;br&gt;2-oxoglutarate dehydrogenase complex dihydrolipoyllysine-residue succinyltransferase&lt;br&gt;Location: 908748 - 907525" locus_tag="KKK_RS04155" class="clusterblast-orf" id="dummy-1_h1_10_30"  />
</g>
<g id="a1_0031"  >
<polygon points="685,85 690,80 713,80 713,90 690,90 685,85 " style="fill:white; stroke-width:1; stroke:black; " description="&lt;b&gt;KKK_RS04150&lt;/b&gt;&lt;br&gt;2-oxoglutarate dehydrogenase E1 component&lt;br&gt;Location: 907482 - 904651" locus_tag="KKK_RS04150" class="clusterblast-orf" id="dummy-1_h1_10_31"  />
</g>
<g id="a1_0032"  >
<polygon points="715,85 720,80 722,80 722,90 720,90 715,85 " style="fill:white; stroke-width:1; stroke:black; " description="&lt;b&gt;KKK_RS04145&lt;/b&gt;&lt;br&gt;succinate dehydrogenase iron-sulfur subunit&lt;br&gt;Location: 904404 - 903700" locus_tag="KKK_RS04145" class="clusterblast-orf" id="dummy-1_h1_10_32"  />
</g>
<g id="a1_0033"  >
<polygon points="722,85 727,80 740,80 740,90 727,90 722,85 " style="fill:white; stroke-width:1; stroke:black; " description="&lt;b&gt;KKK_RS04140&lt;/b&gt;&lt;br&gt;succinate dehydrogenase flavoprotein subunit&lt;br&gt;Location: 903688 - 901916" locus_tag="KKK_RS04140" class="clusterblast-orf" id="dummy-1_h1_10_33"  />
</g>
<g id="a1_0034"  >
<polygon points="740,85 743,80 743,90 740,85 " style="fill:white; stroke-width:1; stroke:black; " description="&lt;b&gt;KKK_RS04135&lt;/b&gt;&lt;br&gt;succinate dehydrogenase, hydrophobic membrane anchor protein&lt;br&gt;Location: 901912 - 901544" locus_tag="KKK_RS04135" class="clusterblast-orf" id="dummy-1_h1_10_34"  />
</g>
<g id="a1_0035"  >
<polygon points="743,85 747,80 747,90 743,85 " style="fill:white; stroke-width:1; stroke:black; " description="&lt;b&gt;KKK_RS04130&lt;/b&gt;&lt;br&gt;succinate dehydrogenase, cytochrome b556 subunit&lt;br&gt;Location: 901550 - 901176" locus_tag="KKK_RS04130" class="clusterblast-orf" id="dummy-1_h1_10_35"  />
</g>
<g id="a1_0036"  >
<polygon points="751,90 758,90 763,85 758,80 751,80 751,90 " style="fill:white; stroke-width:1; stroke:black; " description="&lt;b&gt;KKK_RS04125&lt;/b&gt;&lt;br&gt;citrate (Si)-synthase&lt;br&gt;Location: 900811 - 899522" locus_tag="KKK_RS04125" class="clusterblast-orf" id="dummy-1_h1_10_36"  />
</g>
<g id="a1_0037"  >
<polygon points="765,85 770,80 771,80 771,90 770,90 765,85 " style="fill:white; stroke-width:1; stroke:black; " description="&lt;b&gt;KKK_RS04120&lt;/b&gt;&lt;br&gt;START domain-containing protein&lt;br&gt;Location: 899346 - 898741" locus_tag="KKK_RS04120" class="clusterblast-orf" id="dummy-1_h1_10_37"  />
</g>
<g id="a1_0038"  >
<polygon points="771,85 774,80 774,90 771,85 " style="fill:white; stroke-width:1; stroke:black; " description="&lt;b&gt;KKK_RS04115&lt;/b&gt;&lt;br&gt;hypothetical protein&lt;br&gt;Location: 898707 - 898453" locus_tag="KKK_RS04115" class="clusterblast-orf" id="dummy-1_h1_10_38"  />
</g>
<g id="a1_0039"  >
<polygon points="775,85 780,80 780,80 780,90 780,90 775,85 " style="fill:white; stroke-width:1; stroke:black; " description="&lt;b&gt;KKK_RS04110&lt;/b&gt;&lt;br&gt;hypothetical protein&lt;br&gt;Location: 898323 - 897889" locus_tag="KKK_RS04110" class="clusterblast-orf" id="dummy-1_h1_10_39"  />
</g>
</svg>
