<svg xmlns="http://www.w3.org/2000/svg" xmlns:xlink="http://www.w3.org/1999/xlink" version="1.1" x="0" y="0" height="230" width="800" viewBox="0 0 800 230" preserveAspectRatio="none"  >
<g label="Query sequence" class="clusterblast-cluster"  >
<text x="5" y="20" class="clusterblast-acc"  >
Query sequence</text>
<line x1="10" y1="35" x2="778.0" y2="35" style="stroke-width:1; stroke:grey; "  />
<polygon points="115,35 120,30 144,30 144,40 120,40 115,35 " style="fill:#d81515; stroke-width:1; stroke:black; " description="&lt;b&gt;MCIC6FC_014177&lt;/b&gt;&lt;br&gt;hypothetical protein&lt;br&gt;Location: 51 - 931" locus_tag="MCIC6FC_014177" class="clusterblast-orf" id="dummy-1_q0_0_all"  />
<polygon points="152,40 482,40 487,35 482,30 152,30 152,40 " style="fill:#77d815; stroke-width:1; stroke:black; " description="&lt;b&gt;MCIC6FC_014178&lt;/b&gt;&lt;br&gt;hypothetical protein&lt;br&gt;Location: 1164 - 11121" locus_tag="MCIC6FC_014178" class="clusterblast-orf" id="dummy-1_q1_0_all"  />
<polygon points="527,40 563,40 568,35 563,30 527,30 527,40 " style="fill:#15d8d8; stroke-width:1; stroke:black; " description="&lt;b&gt;MCIC6FC_014179&lt;/b&gt;&lt;br&gt;hypothetical protein&lt;br&gt;Location: 12305 - 13530" locus_tag="MCIC6FC_014179" class="clusterblast-orf" id="dummy-1_q2_0_all"  />
<polygon points="568,35 573,30 665,30 665,40 573,40 568,35 " style="fill:#7715d8; stroke-width:1; stroke:black; " description="&lt;b&gt;MCIC6FC_014180&lt;/b&gt;&lt;br&gt;hypothetical protein&lt;br&gt;Location: 13539 - 16408" locus_tag="MCIC6FC_014180" class="clusterblast-orf" id="dummy-1_q3_0_all"  />
</g>
<g label="NZ_JNGC01000003" description="NZ_JNGC01000003 (360317-383879): Pantoea agglomerans strain 190 plasmid unnam... (45% of genes show similarity), terpene" class="clusterblast-cluster"  >
<text x="5" y="70" class="clusterblast-acc"  >
<a xlink:href="https://antismash-db.secondarymetabolites.org/area.html?record=NZ_JNGC01000003&amp;start=360317&amp;end=383879" target="_blank">NZ_JNGC01000003 (360317-383879)</a>: Pantoea agglomerans strain 190 plasmid unnam... (45% of genes show similarity), terpene</text>
<line x1="10" y1="85" x2="778.0" y2="85" style="stroke-width:1; stroke:grey; "  />
</g>
<g id="a1_000"  >
<polygon points="0,90 25,90 30,85 25,80 0,80 0,90 " style="fill:white; stroke-width:1; stroke:black; " description="&lt;b&gt;FB99_RS20700&lt;/b&gt;&lt;br&gt;glutaminase B&lt;br&gt;Location: 383635 - 382715" locus_tag="FB99_RS20700" class="clusterblast-orf" id="dummy-1_h1_3_0"  />
</g>
<g id="a1_001"  >
<polygon points="35,85 40,80 66,80 66,90 40,90 35,85 " style="fill:white; stroke-width:1; stroke:black; " description="&lt;b&gt;FB99_RS20695&lt;/b&gt;&lt;br&gt;Rpn family recombination-promoting nuclease/putative transposase&lt;br&gt;Location: 382576 - 381647" locus_tag="FB99_RS20695" class="clusterblast-orf" id="dummy-1_h1_3_1"  />
</g>
<g id="a1_002"  >
<polygon points="74,85 79,80 105,80 105,90 79,90 74,85 " style="fill:#d81515; stroke-width:1; stroke:black; " description="&lt;b&gt;FB99_RS20690&lt;/b&gt;&lt;br&gt;D-2-hydroxyacid dehydrogenase&lt;br&gt;Location: 381432 - 380494&lt;br&gt;&lt;br&gt;&lt;b&gt;BlastP hit with MCIC6FC_014177&lt;/b&gt;&lt;br&gt;Percentage identity: 91&lt;br&gt;Percentage coverage: 99&lt;br&gt;BLAST bit score: 486&lt;br&gt;E-value: 2.2e-135" locus_tag="FB99_RS20690" class="clusterblast-orf" id="dummy-1_h1_3_2"  />
</g>
<g id="a1_003"  >
<polygon points="113,90 122,90 127,85 122,80 113,80 113,90 " style="fill:white; stroke-width:1; stroke:black; " description="&lt;b&gt;FB99_RS20685&lt;/b&gt;&lt;br&gt;DUF2946 domain-containing protein&lt;br&gt;Location: 380272 - 379853" locus_tag="FB99_RS20685" class="clusterblast-orf" id="dummy-1_h1_3_3"  />
</g>
<g id="a1_004"  >
<polygon points="128,90 181,90 186,85 181,80 128,80 128,90 " style="fill:#77d815; stroke-width:1; stroke:black; " description="&lt;b&gt;FB99_RS20680&lt;/b&gt;&lt;br&gt;DUF2534 family protein&lt;br&gt;Location: 379807 - 378077&lt;br&gt;&lt;br&gt;&lt;b&gt;BlastP hit with MCIC6FC_014178&lt;/b&gt;&lt;br&gt;Percentage identity: 93&lt;br&gt;Percentage coverage: 20&lt;br&gt;BLAST bit score: 957&lt;br&gt;E-value: 2.5e-276" locus_tag="FB99_RS20680" class="clusterblast-orf" id="dummy-1_h1_3_4"  />
</g>
<g id="a1_005"  >
<polygon points="191,90 208,90 213,85 208,80 191,80 191,90 " style="fill:white; stroke-width:1; stroke:black; " description="&lt;b&gt;FB99_RS20675&lt;/b&gt;&lt;br&gt;pirin family protein&lt;br&gt;Location: 377950 - 377273" locus_tag="FB99_RS20675" class="clusterblast-orf" id="dummy-1_h1_3_5"  />
</g>
<g id="a1_006"  >
<polygon points="215,85 220,80 223,80 223,90 220,90 215,85 " style="fill:white; stroke-width:1; stroke:black; " description="&lt;b&gt;FB99_RS20670&lt;/b&gt;&lt;br&gt;hypothetical protein&lt;br&gt;Location: 377228 - 377001" locus_tag="FB99_RS20670" class="clusterblast-orf" id="dummy-1_h1_3_6"  />
</g>
<g id="a1_007"  >
<polygon points="228,90 241,90 246,85 241,80 228,80 228,90 " style="fill:white; stroke-width:1; stroke:black; " description="&lt;b&gt;FB99_RS20665&lt;/b&gt;&lt;br&gt;YtfJ family protein&lt;br&gt;Location: 376828 - 376298" locus_tag="FB99_RS20665" class="clusterblast-orf" id="dummy-1_h1_3_7"  />
</g>
<g id="a1_008"  >
<polygon points="254,90 279,90 284,85 279,80 254,80 254,90 " style="fill:#77d815; stroke-width:1; stroke:black; " description="&lt;b&gt;FB99_RS20660&lt;/b&gt;&lt;br&gt;polyprenyl synthetase family protein&lt;br&gt;Location: 376079 - 375171&lt;br&gt;&lt;br&gt;&lt;b&gt;BlastP hit with MCIC6FC_014178&lt;/b&gt;&lt;br&gt;Percentage identity: 99&lt;br&gt;Percentage coverage: 10&lt;br&gt;BLAST bit score: 527&lt;br&gt;E-value: 6.4e-147" locus_tag="FB99_RS20660" class="clusterblast-orf" id="dummy-1_h1_3_8"  />
</g>
<g id="a1_009"  >
<polygon points="285,90 323,90 328,85 323,80 285,80 285,90 " style="fill:#77d815; stroke-width:1; stroke:black; " description="&lt;b&gt;FB99_RS20655&lt;/b&gt;&lt;br&gt;glycosyltransferase family 1 protein&lt;br&gt;Location: 375161 - 373866&lt;br&gt;&lt;br&gt;&lt;b&gt;BlastP hit with MCIC6FC_014178&lt;/b&gt;&lt;br&gt;Percentage identity: 80&lt;br&gt;Percentage coverage: 15&lt;br&gt;BLAST bit score: 597&lt;br&gt;E-value: 5.1e-168" locus_tag="FB99_RS20655" class="clusterblast-orf" id="dummy-1_h1_3_9"  />
</g>
<g id="a1_0010"  >
<polygon points="328,90 362,90 367,85 362,80 328,80 328,90 " style="fill:#77d815; stroke-width:1; stroke:black; " description="&lt;b&gt;FB99_RS20650&lt;/b&gt;&lt;br&gt;lycopene beta-cyclase CrtY&lt;br&gt;Location: 373879 - 372719&lt;br&gt;&lt;br&gt;&lt;b&gt;BlastP hit with MCIC6FC_014178&lt;/b&gt;&lt;br&gt;Percentage identity: 98&lt;br&gt;Percentage coverage: 14&lt;br&gt;BLAST bit score: 758&lt;br&gt;E-value: 2.9e-216" locus_tag="FB99_RS20650" class="clusterblast-orf" id="dummy-1_h1_3_10"  />
</g>
<g id="a1_0011"  >
<polygon points="367,90 411,90 416,85 411,80 367,80 367,90 " style="fill:#77d815; stroke-width:1; stroke:black; " description="&lt;b&gt;FB99_RS20645&lt;/b&gt;&lt;br&gt;phytoene desaturase&lt;br&gt;Location: 372722 - 371244&lt;br&gt;&lt;br&gt;&lt;b&gt;BlastP hit with MCIC6FC_014178&lt;/b&gt;&lt;br&gt;Percentage identity: 95&lt;br&gt;Percentage coverage: 16&lt;br&gt;BLAST bit score: 834&lt;br&gt;E-value: 4.2e-239" locus_tag="FB99_RS20645" class="clusterblast-orf" id="dummy-1_h1_3_11"  />
</g>
<g id="a1_0012"  >
<polygon points="416,90 442,90 447,85 442,80 416,80 416,90 " style="fill:#77d815; stroke-width:1; stroke:black; " description="&lt;b&gt;FB99_RS20640&lt;/b&gt;&lt;br&gt;phytoene/squalene synthase family protein&lt;br&gt;Location: 371247 - 370318&lt;br&gt;&lt;br&gt;&lt;b&gt;BlastP hit with MCIC6FC_014178&lt;/b&gt;&lt;br&gt;Percentage identity: 98&lt;br&gt;Percentage coverage: 11&lt;br&gt;BLAST bit score: 571&lt;br&gt;E-value: 5.1e-160" locus_tag="FB99_RS20640" class="clusterblast-orf" id="dummy-1_h1_3_12"  />
</g>
<g id="a1_0013"  >
<polygon points="445,85 450,80 463,80 463,90 450,90 445,85 " style="fill:white; stroke-width:1; stroke:black; " description="&lt;b&gt;FB99_RS20635&lt;/b&gt;&lt;br&gt;sterol desaturase family protein&lt;br&gt;Location: 370379 - 369852" locus_tag="FB99_RS20635" class="clusterblast-orf" id="dummy-1_h1_3_13"  />
</g>
<g id="a1_0014"  >
<polygon points="470,85 475,80 507,80 507,90 475,90 470,85 " style="fill:white; stroke-width:1; stroke:black; " description="&lt;b&gt;FB99_RS20630&lt;/b&gt;&lt;br&gt;fimbrial protein&lt;br&gt;Location: 369642 - 368533" locus_tag="FB99_RS20630" class="clusterblast-orf" id="dummy-1_h1_3_14"  />
</g>
<g id="a1_0015"  >
<polygon points="508,85 513,80 590,80 590,90 513,90 508,85 " style="fill:white; stroke-width:1; stroke:black; " description="&lt;b&gt;FB99_RS20625&lt;/b&gt;&lt;br&gt;fimbrial biogenesis outer membrane usher protein&lt;br&gt;Location: 368516 - 366075" locus_tag="FB99_RS20625" class="clusterblast-orf" id="dummy-1_h1_3_15"  />
</g>
<g id="a1_0016"  >
<polygon points="594,85 599,80 617,80 617,90 599,90 594,85 " style="fill:white; stroke-width:1; stroke:black; " description="&lt;b&gt;FB99_RS20620&lt;/b&gt;&lt;br&gt;molecular chaperone&lt;br&gt;Location: 365948 - 365280" locus_tag="FB99_RS20620" class="clusterblast-orf" id="dummy-1_h1_3_16"  />
</g>
<g id="a1_0017"  >
<polygon points="619,85 624,80 639,80 639,90 624,90 619,85 " style="fill:white; stroke-width:1; stroke:black; " description="&lt;b&gt;FB99_RS20615&lt;/b&gt;&lt;br&gt;type 1 fimbrial protein&lt;br&gt;Location: 365224 - 364634" locus_tag="FB99_RS20615" class="clusterblast-orf" id="dummy-1_h1_3_17"  />
</g>
<g id="a1_0018"  >
<polygon points="654,85 659,80 663,80 663,90 659,90 654,85 " style="fill:white; stroke-width:1; stroke:black; " description="&lt;b&gt;FB99_RS20610&lt;/b&gt;&lt;br&gt;hypothetical protein&lt;br&gt;Location: 364187 - 363918" locus_tag="FB99_RS20610" class="clusterblast-orf" id="dummy-1_h1_3_18"  />
</g>
<g id="a1_0019"  >
<polygon points="673,90 687,90 692,85 687,80 673,80 673,90 " style="fill:#15d8d8; stroke-width:1; stroke:black; " description="&lt;b&gt;FB99_RS20605&lt;/b&gt;&lt;br&gt;thioredoxin domain-containing protein&lt;br&gt;Location: 363600 - 363058&lt;br&gt;&lt;br&gt;&lt;b&gt;BlastP hit with MCIC6FC_014179&lt;/b&gt;&lt;br&gt;Percentage identity: 87&lt;br&gt;Percentage coverage: 55&lt;br&gt;BLAST bit score: 290&lt;br&gt;E-value: 1.4e-76" locus_tag="FB99_RS20605" class="clusterblast-orf" id="dummy-1_h1_3_19"  />
</g>
<g id="a1_0020"  >
<polygon points="700,90 709,90 714,85 709,80 700,80 700,90 " style="fill:#15d8d8; stroke-width:1; stroke:black; " description="&lt;b&gt;FB99_RS20600&lt;/b&gt;&lt;br&gt;ASCH domain-containing protein&lt;br&gt;Location: 362805 - 362392&lt;br&gt;&lt;br&gt;&lt;b&gt;BlastP hit with MCIC6FC_014179&lt;/b&gt;&lt;br&gt;Percentage identity: 99&lt;br&gt;Percentage coverage: 47&lt;br&gt;BLAST bit score: 279&lt;br&gt;E-value: 3.2e-73" locus_tag="FB99_RS20600" class="clusterblast-orf" id="dummy-1_h1_3_20"  />
</g>
<g id="a1_0021"  >
<polygon points="714,85 719,80 747,80 747,90 719,90 714,85 " style="fill:#7715d8; stroke-width:1; stroke:black; " description="&lt;b&gt;FB99_RS20595&lt;/b&gt;&lt;br&gt;HesA/MoeB/ThiF family protein&lt;br&gt;Location: 362382 - 361414&lt;br&gt;&lt;br&gt;&lt;b&gt;BlastP hit with MCIC6FC_014180&lt;/b&gt;&lt;br&gt;Percentage identity: 80&lt;br&gt;Percentage coverage: 43&lt;br&gt;BLAST bit score: 471&lt;br&gt;E-value: 1.5e-130" locus_tag="FB99_RS20595" class="clusterblast-orf" id="dummy-1_h1_3_21"  />
</g>
<g id="a1_0022"  >
<polygon points="747,85 752,80 773,80 773,90 752,90 747,85 " style="fill:#7715d8; stroke-width:1; stroke:black; " description="&lt;b&gt;FB99_RS20590&lt;/b&gt;&lt;br&gt;thiazole synthase&lt;br&gt;Location: 361404 - 360646&lt;br&gt;&lt;br&gt;&lt;b&gt;BlastP hit with MCIC6FC_014180&lt;/b&gt;&lt;br&gt;Percentage identity: 75&lt;br&gt;Percentage coverage: 27&lt;br&gt;BLAST bit score: 265&lt;br&gt;E-value: 1.6e-68" locus_tag="FB99_RS20590" class="clusterblast-orf" id="dummy-1_h1_3_22"  />
</g>
<g id="a1_0023"  >
<polygon points="773,85 778,80 780,80 780,90 778,90 773,85 " style="fill:white; stroke-width:1; stroke:black; " description="&lt;b&gt;FB99_RS20585&lt;/b&gt;&lt;br&gt;sulfur carrier protein ThiS&lt;br&gt;Location: 360643 - 360446" locus_tag="FB99_RS20585" class="clusterblast-orf" id="dummy-1_h1_3_23"  />
</g>
</svg>
