<svg xmlns="http://www.w3.org/2000/svg" xmlns:xlink="http://www.w3.org/1999/xlink" version="1.1" x="0" y="0" height="230" width="800" viewBox="0 0 800 230" preserveAspectRatio="none"  >
<g label="Query sequence" class="clusterblast-cluster"  >
<text x="5" y="20" class="clusterblast-acc"  >
Query sequence</text>
<line x1="10" y1="35" x2="778.0" y2="35" style="stroke-width:1; stroke:grey; "  />
<polygon points="174,40 266,40 271,35 266,30 174,30 174,40 " style="fill:#d81515; stroke-width:1; stroke:black; " description="&lt;b&gt;MCIC6FC_010561&lt;/b&gt;&lt;br&gt;hypothetical protein&lt;br&gt;Location: 385973 - 391167" locus_tag="MCIC6FC_010561" class="clusterblast-orf" id="dummy-2_q0_0_all"  />
<polygon points="272,35 277,30 292,30 292,40 277,40 272,35 " style="fill:white; stroke-width:1; stroke:black; " description="&lt;b&gt;MCIC6FC_010562&lt;/b&gt;&lt;br&gt;hypothetical protein&lt;br&gt;Location: 391247 - 392320" locus_tag="MCIC6FC_010562" class="clusterblast-orf" id="dummy-2_q1_0_all"  />
<polygon points="294,40 332,40 337,35 332,30 294,30 294,40 " style="fill:white; stroke-width:1; stroke:black; " description="&lt;b&gt;MCIC6FC_010563&lt;/b&gt;&lt;br&gt;hypothetical protein&lt;br&gt;Location: 392422 - 394709" locus_tag="MCIC6FC_010563" class="clusterblast-orf" id="dummy-2_q2_0_all"  />
<polygon points="348,40 351,35 348,30 348,40 " style="fill:#4dd815; stroke-width:1; stroke:black; " description="&lt;b&gt;MCIC6FC_010564&lt;/b&gt;&lt;br&gt;hypothetical protein&lt;br&gt;Location: 395315 - 395474" locus_tag="MCIC6FC_010564" class="clusterblast-orf" id="dummy-2_q3_0_all"  />
<polygon points="352,35 357,30 426,30 426,40 357,40 352,35 " style="fill:#1585d8; stroke-width:1; stroke:black; " description="&lt;b&gt;MCIC6FC_010565&lt;/b&gt;&lt;br&gt;hypothetical protein&lt;br&gt;Location: 395512 - 399474" locus_tag="MCIC6FC_010565" class="clusterblast-orf" id="dummy-2_q4_0_all"  />
<polygon points="427,35 432,30 444,30 444,40 432,40 427,35 " style="fill:#d815bc; stroke-width:1; stroke:black; " description="&lt;b&gt;MCIC6FC_010566&lt;/b&gt;&lt;br&gt;hypothetical protein&lt;br&gt;Location: 399568 - 400480" locus_tag="MCIC6FC_010566" class="clusterblast-orf" id="dummy-2_q5_0_all"  />
<polygon points="451,35 456,30 512,30 512,40 456,40 451,35 " style="fill:#d8bc15; stroke-width:1; stroke:black; " description="&lt;b&gt;MCIC6FC_010567&lt;/b&gt;&lt;br&gt;hypothetical protein&lt;br&gt;Location: 400814 - 404118" locus_tag="MCIC6FC_010567" class="clusterblast-orf" id="dummy-2_q6_0_all"  />
<polygon points="514,35 519,30 545,30 545,40 519,40 514,35 " style="fill:#15d885; stroke-width:1; stroke:black; " description="&lt;b&gt;MCIC6FC_010568&lt;/b&gt;&lt;br&gt;hypothetical protein&lt;br&gt;Location: 404213 - 405896" locus_tag="MCIC6FC_010568" class="clusterblast-orf" id="dummy-2_q7_0_all"  />
<polygon points="548,35 553,30 558,30 558,40 553,40 548,35 " style="fill:#4d15d8; stroke-width:1; stroke:black; " description="&lt;b&gt;MCIC6FC_010569&lt;/b&gt;&lt;br&gt;hypothetical protein&lt;br&gt;Location: 406064 - 406562" locus_tag="MCIC6FC_010569" class="clusterblast-orf" id="dummy-2_q8_0_all"  />
<polygon points="561,40 600,40 605,35 600,30 561,30 561,40 " style="fill:white; stroke-width:1; stroke:black; " description="&lt;b&gt;MCIC6FC_010570&lt;/b&gt;&lt;br&gt;hypothetical protein&lt;br&gt;Location: 406733 - 409113" locus_tag="MCIC6FC_010570" class="clusterblast-orf" id="dummy-2_q9_0_all"  />
</g>
<g label="NC_007005" description="NC_007005 (5504337-5546191): Pseudomonas syringae pv. syringae B728a, complet... (26% of genes show similarity), NRPS-like" class="clusterblast-cluster"  >
<text x="5" y="70" class="clusterblast-acc"  >
<a xlink:href="https://antismash-db.secondarymetabolites.org/area.html?record=NC_007005&amp;start=5504337&amp;end=5546191" target="_blank">NC_007005 (5504337-5546191)</a>: Pseudomonas syringae pv. syringae B728a, complet... (26% of genes show similarity), NRPS-like</text>
<line x1="10" y1="85" x2="778.0" y2="85" style="stroke-width:1; stroke:grey; "  />
</g>
<g id="a2_000"  >
<polygon points="0,90 19,90 24,85 19,80 0,80 0,90 " style="fill:#d81515; stroke-width:1; stroke:black; " description="&lt;b&gt;PSYR_RS24285&lt;/b&gt;&lt;br&gt;GGDEF domain-containing protein&lt;br&gt;Location: 5546191 - 5544893&lt;br&gt;&lt;br&gt;&lt;b&gt;BlastP hit with MCIC6FC_010561&lt;/b&gt;&lt;br&gt;Percentage identity: 84&lt;br&gt;Percentage coverage: 26&lt;br&gt;BLAST bit score: 710&lt;br&gt;E-value: 5.5e-202" locus_tag="PSYR_RS24285" class="clusterblast-orf" id="dummy-2_h2_6_0"  />
</g>
<g id="a2_001"  >
<polygon points="27,90 55,90 60,85 55,80 27,80 27,90 " style="fill:#d81515; stroke-width:1; stroke:black; " description="&lt;b&gt;PSYR_RS24280&lt;/b&gt;&lt;br&gt;acyl-CoA dehydrogenase&lt;br&gt;Location: 5544723 - 5542945&lt;br&gt;&lt;br&gt;&lt;b&gt;BlastP hit with MCIC6FC_010561&lt;/b&gt;&lt;br&gt;Percentage identity: 84&lt;br&gt;Percentage coverage: 36&lt;br&gt;BLAST bit score: 1008&lt;br&gt;E-value: 5.7e-292" locus_tag="PSYR_RS24280" class="clusterblast-orf" id="dummy-2_h2_6_1"  />
</g>
<g id="a2_002"  >
<polygon points="68,90 71,85 68,80 68,90 " style="fill:#4dd815; stroke-width:1; stroke:black; " description="&lt;b&gt;PSYR_RS24275&lt;/b&gt;&lt;br&gt;YqaE/Pmp3 family membrane protein&lt;br&gt;Location: 5542541 - 5542380&lt;br&gt;&lt;br&gt;&lt;b&gt;BlastP hit with MCIC6FC_010564&lt;/b&gt;&lt;br&gt;Percentage identity: 83&lt;br&gt;Percentage coverage: 100&lt;br&gt;BLAST bit score: 91&lt;br&gt;E-value: 2.9e-17" locus_tag="PSYR_RS24275" class="clusterblast-orf" id="dummy-2_h2_6_2"  />
</g>
<g id="a2_003"  >
<polygon points="72,85 77,80 106,80 106,90 77,90 72,85 " style="fill:#1585d8; stroke-width:1; stroke:black; " description="&lt;b&gt;PSYR_RS24270&lt;/b&gt;&lt;br&gt;S9 family peptidase&lt;br&gt;Location: 5542324 - 5540498&lt;br&gt;&lt;br&gt;&lt;b&gt;BlastP hit with MCIC6FC_010565&lt;/b&gt;&lt;br&gt;Percentage identity: 66&lt;br&gt;Percentage coverage: 49&lt;br&gt;BLAST bit score: 847&lt;br&gt;E-value: 2.2e-243" locus_tag="PSYR_RS24270" class="clusterblast-orf" id="dummy-2_h2_6_3"  />
</g>
<g id="a2_004"  >
<polygon points="105,85 110,80 127,80 127,90 110,90 105,85 " style="fill:#1585d8; stroke-width:1; stroke:black; " description="&lt;b&gt;PSYR_RS24265&lt;/b&gt;&lt;br&gt;pyrroloquinoline quinone biosynthesis protein PqqE&lt;br&gt;Location: 5540535 - 5539366&lt;br&gt;&lt;br&gt;&lt;b&gt;BlastP hit with MCIC6FC_010565&lt;/b&gt;&lt;br&gt;Percentage identity: 89&lt;br&gt;Percentage coverage: 27&lt;br&gt;BLAST bit score: 632&lt;br&gt;E-value: 1.1e-178" locus_tag="PSYR_RS24265" class="clusterblast-orf" id="dummy-2_h2_6_4"  />
</g>
<g id="a2_005"  >
<polygon points="127,85 132,80 132,80 132,90 132,90 127,85 " style="fill:white; stroke-width:1; stroke:black; " description="&lt;b&gt;PSYR_RS24260&lt;/b&gt;&lt;br&gt;pyrroloquinoline quinone biosynthesis peptide chaperone PqqD&lt;br&gt;Location: 5539373 - 5539089" locus_tag="PSYR_RS24260" class="clusterblast-orf" id="dummy-2_h2_6_5"  />
</g>
<g id="a2_006"  >
<polygon points="132,85 137,80 146,80 146,90 137,90 132,85 " style="fill:#1585d8; stroke-width:1; stroke:black; " description="&lt;b&gt;PSYR_RS24255&lt;/b&gt;&lt;br&gt;pyrroloquinoline-quinone synthase PqqC&lt;br&gt;Location: 5539092 - 5538337&lt;br&gt;&lt;br&gt;&lt;b&gt;BlastP hit with MCIC6FC_010565&lt;/b&gt;&lt;br&gt;Percentage identity: 95&lt;br&gt;Percentage coverage: 19&lt;br&gt;BLAST bit score: 478&lt;br&gt;E-value: 2e-132" locus_tag="PSYR_RS24255" class="clusterblast-orf" id="dummy-2_h2_6_6"  />
</g>
<g id="a2_007"  >
<polygon points="146,85 151,80 163,80 163,90 151,90 146,85 " style="fill:#d815bc; stroke-width:1; stroke:black; " description="&lt;b&gt;PSYR_RS24250&lt;/b&gt;&lt;br&gt;pyrroloquinoline quinone biosynthesis protein PqqB&lt;br&gt;Location: 5538328 - 5537417&lt;br&gt;&lt;br&gt;&lt;b&gt;BlastP hit with MCIC6FC_010566&lt;/b&gt;&lt;br&gt;Percentage identity: 88&lt;br&gt;Percentage coverage: 100&lt;br&gt;BLAST bit score: 571&lt;br&gt;E-value: 4.3e-161" locus_tag="PSYR_RS24250" class="clusterblast-orf" id="dummy-2_h2_6_7"  />
</g>
<g id="a2_008"  >
<polygon points="165,85 166,80 166,90 165,85 " style="fill:white; stroke-width:1; stroke:black; " description="&lt;b&gt;PSYR_RS24245&lt;/b&gt;&lt;br&gt;pyrroloquinoline quinone precursor peptide PqqA&lt;br&gt;Location: 5537328 - 5537254" locus_tag="PSYR_RS24245" class="clusterblast-orf" id="dummy-2_h2_6_8"  />
</g>
<g id="a2_009"  >
<polygon points="169,85 174,80 211,80 211,90 174,90 169,85 " style="fill:#d8bc15; stroke-width:1; stroke:black; " description="&lt;b&gt;PSYR_RS24240&lt;/b&gt;&lt;br&gt;pyrroloquinoline quinone biosynthesis protein PqqF&lt;br&gt;Location: 5537118 - 5534830&lt;br&gt;&lt;br&gt;&lt;b&gt;BlastP hit with MCIC6FC_010567&lt;/b&gt;&lt;br&gt;Percentage identity: 46&lt;br&gt;Percentage coverage: 78&lt;br&gt;BLAST bit score: 600&lt;br&gt;E-value: 3.8e-169" locus_tag="PSYR_RS24240" class="clusterblast-orf" id="dummy-2_h2_6_9"  />
</g>
<g id="a2_0010"  >
<polygon points="236,85 241,80 251,80 251,90 241,90 236,85 " style="fill:#d8bc15; stroke-width:1; stroke:black; " description="&lt;b&gt;PSYR_RS24235&lt;/b&gt;&lt;br&gt;carbon-nitrogen hydrolase family protein&lt;br&gt;Location: 5533503 - 5532709&lt;br&gt;&lt;br&gt;&lt;b&gt;BlastP hit with MCIC6FC_010567&lt;/b&gt;&lt;br&gt;Percentage identity: 62&lt;br&gt;Percentage coverage: 24&lt;br&gt;BLAST bit score: 279&lt;br&gt;E-value: 1.1e-72" locus_tag="PSYR_RS24235" class="clusterblast-orf" id="dummy-2_h2_6_10"  />
</g>
<g id="a2_0011"  >
<polygon points="251,85 256,80 282,80 282,90 256,90 251,85 " style="fill:#15d885; stroke-width:1; stroke:black; " description="&lt;b&gt;PSYR_RS24230&lt;/b&gt;&lt;br&gt;NAD(P)/FAD-dependent oxidoreductase&lt;br&gt;Location: 5532693 - 5531014&lt;br&gt;&lt;br&gt;&lt;b&gt;BlastP hit with MCIC6FC_010568&lt;/b&gt;&lt;br&gt;Percentage identity: 91&lt;br&gt;Percentage coverage: 100&lt;br&gt;BLAST bit score: 1085&lt;br&gt;E-value: 0.0" locus_tag="PSYR_RS24230" class="clusterblast-orf" id="dummy-2_h2_6_11"  />
</g>
<g id="a2_0012"  >
<polygon points="285,85 290,80 294,80 294,90 290,90 285,85 " style="fill:#4d15d8; stroke-width:1; stroke:black; " description="&lt;b&gt;PSYR_RS24225&lt;/b&gt;&lt;br&gt;Lrp/AsnC family transcriptional regulator&lt;br&gt;Location: 5530861 - 5530400&lt;br&gt;&lt;br&gt;&lt;b&gt;BlastP hit with MCIC6FC_010569&lt;/b&gt;&lt;br&gt;Percentage identity: 90&lt;br&gt;Percentage coverage: 91&lt;br&gt;BLAST bit score: 261&lt;br&gt;E-value: 6.8e-68" locus_tag="PSYR_RS24225" class="clusterblast-orf" id="dummy-2_h2_6_12"  />
</g>
<g id="a2_0013"  >
<polygon points="294,85 299,80 314,80 314,90 299,90 294,85 " style="fill:white; stroke-width:1; stroke:black; " description="&lt;b&gt;PSYR_RS24220&lt;/b&gt;&lt;br&gt;FUSC family protein&lt;br&gt;Location: 5530389 - 5529313" locus_tag="PSYR_RS24220" class="clusterblast-orf" id="dummy-2_h2_6_13"  />
</g>
<g id="a2_0014"  >
<polygon points="319,90 323,85 319,80 319,90 " style="fill:white; stroke-width:1; stroke:black; " description="&lt;b&gt;PSYR_RS24215&lt;/b&gt;&lt;br&gt;hypothetical protein&lt;br&gt;Location: 5529057 - 5528845" locus_tag="PSYR_RS24215" class="clusterblast-orf" id="dummy-2_h2_6_14"  />
</g>
<g id="a2_0015"  >
<polygon points="323,85 328,80 344,80 344,90 328,90 323,85 " style="fill:white; stroke-width:1; stroke:black; " description="&lt;b&gt;PSYR_RS24210&lt;/b&gt;&lt;br&gt;Fic family protein&lt;br&gt;Location: 5528820 - 5527690" locus_tag="PSYR_RS24210" class="clusterblast-orf" id="dummy-2_h2_6_15"  />
</g>
<g id="a2_0016"  >
<polygon points="355,90 425,90 430,85 425,80 355,80 355,90 " style="fill:white; stroke-width:1; stroke:black; " description="&lt;b&gt;PSYR_RS24205&lt;/b&gt;&lt;br&gt;non-ribosomal peptide synthetase&lt;br&gt;Location: 5527136 - 5523096" locus_tag="PSYR_RS24205" class="clusterblast-orf" id="dummy-2_h2_6_16"  />
</g>
<g id="a2_0017"  >
<polygon points="430,90 437,90 442,85 437,80 430,80 430,90 " style="fill:white; stroke-width:1; stroke:black; " description="&lt;b&gt;PSYR_RS24200&lt;/b&gt;&lt;br&gt;4'-phosphopantetheinyl transferase superfamily protein&lt;br&gt;Location: 5523099 - 5522467" locus_tag="PSYR_RS24200" class="clusterblast-orf" id="dummy-2_h2_6_17"  />
</g>
<g id="a2_0018"  >
<polygon points="444,85 449,80 460,80 460,90 449,90 444,85 " style="fill:white; stroke-width:1; stroke:black; " description="&lt;b&gt;PSYR_RS24195&lt;/b&gt;&lt;br&gt;formate/nitrite transporter family protein&lt;br&gt;Location: 5522320 - 5521505" locus_tag="PSYR_RS24195" class="clusterblast-orf" id="dummy-2_h2_6_18"  />
</g>
<g id="a2_0019"  >
<polygon points="473,90 497,90 502,85 497,80 473,80 473,90 " style="fill:white; stroke-width:1; stroke:black; " description="&lt;b&gt;PSYR_RS24190&lt;/b&gt;&lt;br&gt;effector protein hopAB1&lt;br&gt;Location: 5520779 - 5519229" locus_tag="PSYR_RS24190" class="clusterblast-orf" id="dummy-2_h2_6_19"  />
</g>
<g id="a2_0020"  >
<polygon points="503,85 505,80 505,90 503,85 " style="fill:white; stroke-width:1; stroke:black; " description="&lt;b&gt;PSYR_RS24185&lt;/b&gt;&lt;br&gt;IS5/IS1182 family transposase&lt;br&gt;Location: 5519166 - 5519074" locus_tag="PSYR_RS24185" class="clusterblast-orf" id="dummy-2_h2_6_20"  />
</g>
<g id="a2_0021"  >
<polygon points="505,90 505,90 510,85 505,80 505,80 505,90 " style="fill:white; stroke-width:1; stroke:black; " description="&lt;b&gt;PSYR_RS24180&lt;/b&gt;&lt;br&gt;hypothetical protein&lt;br&gt;Location: 5519053 - 5518823" locus_tag="PSYR_RS24180" class="clusterblast-orf" id="dummy-2_h2_6_21"  />
</g>
<g id="a2_0022"  >
<polygon points="509,85 514,80 520,80 520,90 514,90 509,85 " style="fill:white; stroke-width:1; stroke:black; " description="&lt;b&gt;PSYR_RS24175&lt;/b&gt;&lt;br&gt;IS66 family transposase&lt;br&gt;Location: 5518826 - 5518280" locus_tag="PSYR_RS24175" class="clusterblast-orf" id="dummy-2_h2_6_22"  />
</g>
<g id="a2_0023"  >
<polygon points="520,90 522,90 527,85 522,80 520,80 520,90 " style="fill:white; stroke-width:1; stroke:black; " description="&lt;b&gt;PSYR_RS24170&lt;/b&gt;&lt;br&gt;ATP-binding protein&lt;br&gt;Location: 5518278 - 5517913" locus_tag="PSYR_RS24170" class="clusterblast-orf" id="dummy-2_h2_6_23"  />
</g>
<g id="a2_0024"  >
<polygon points="526,90 531,90 536,85 531,80 526,80 526,90 " style="fill:white; stroke-width:1; stroke:black; " description="&lt;b&gt;PSYR_RS24165&lt;/b&gt;&lt;br&gt;hypothetical protein&lt;br&gt;Location: 5517916 - 5517416" locus_tag="PSYR_RS24165" class="clusterblast-orf" id="dummy-2_h2_6_24"  />
</g>
<g id="a2_0025"  >
<polygon points="537,90 539,90 544,85 539,80 537,80 537,90 " style="fill:white; stroke-width:1; stroke:black; " description="&lt;b&gt;PSYR_RS24160&lt;/b&gt;&lt;br&gt;hypothetical protein&lt;br&gt;Location: 5517334 - 5516978" locus_tag="PSYR_RS24160" class="clusterblast-orf" id="dummy-2_h2_6_25"  />
</g>
<g id="a2_0026"  >
<polygon points="545,90 548,90 553,85 548,80 545,80 545,90 " style="fill:white; stroke-width:1; stroke:black; " description="&lt;b&gt;PSYR_RS24155&lt;/b&gt;&lt;br&gt;hypothetical protein&lt;br&gt;Location: 5516896 - 5516468" locus_tag="PSYR_RS24155" class="clusterblast-orf" id="dummy-2_h2_6_26"  />
</g>
<g id="a2_0027"  >
<polygon points="554,90 558,85 554,80 554,90 " style="fill:white; stroke-width:1; stroke:black; " description="&lt;b&gt;PSYR_RS24150&lt;/b&gt;&lt;br&gt;hypothetical protein&lt;br&gt;Location: 5516463 - 5516212" locus_tag="PSYR_RS24150" class="clusterblast-orf" id="dummy-2_h2_6_27"  />
</g>
<g id="a2_0028"  >
<polygon points="559,90 559,90 564,85 559,80 559,80 559,90 " style="fill:white; stroke-width:1; stroke:black; " description="&lt;b&gt;PSYR_RS24145&lt;/b&gt;&lt;br&gt;hypothetical protein&lt;br&gt;Location: 5516160 - 5515912" locus_tag="PSYR_RS24145" class="clusterblast-orf" id="dummy-2_h2_6_28"  />
</g>
<g id="a2_0029"  >
<polygon points="566,90 568,85 566,80 566,90 " style="fill:white; stroke-width:1; stroke:black; " description="&lt;b&gt;PSYR_RS24140&lt;/b&gt;&lt;br&gt;hypothetical protein&lt;br&gt;Location: 5515808 - 5515668" locus_tag="PSYR_RS24140" class="clusterblast-orf" id="dummy-2_h2_6_29"  />
</g>
<g id="a2_0030"  >
<polygon points="572,85 577,80 578,80 578,90 577,90 572,85 " style="fill:white; stroke-width:1; stroke:black; " description="&lt;b&gt;PSYR_RS24135&lt;/b&gt;&lt;br&gt;bacteriocin immunity protein&lt;br&gt;Location: 5515447 - 5515172" locus_tag="PSYR_RS24135" class="clusterblast-orf" id="dummy-2_h2_6_30"  />
</g>
<g id="a2_0031"  >
<polygon points="578,85 583,80 612,80 612,90 583,90 578,85 " style="fill:white; stroke-width:1; stroke:black; " description="&lt;b&gt;PSYR_RS24130&lt;/b&gt;&lt;br&gt;HNH nuclease&lt;br&gt;Location: 5515167 - 5513326" locus_tag="PSYR_RS24130" class="clusterblast-orf" id="dummy-2_h2_6_31"  />
</g>
<g id="a2_0032"  >
<polygon points="626,90 635,90 640,85 635,80 626,80 626,90 " style="fill:white; stroke-width:1; stroke:black; " description="&lt;b&gt;PSYR_RS24125&lt;/b&gt;&lt;br&gt;IS66 family transposase&lt;br&gt;Location: 5512552 - 5511809" locus_tag="PSYR_RS24125" class="clusterblast-orf" id="dummy-2_h2_6_32"  />
</g>
<g id="a2_0033"  >
<polygon points="641,90 645,90 650,85 645,80 641,80 641,90 " style="fill:white; stroke-width:1; stroke:black; " description="&lt;b&gt;PSYR_RS24120&lt;/b&gt;&lt;br&gt;GNAT family N-acetyltransferase&lt;br&gt;Location: 5511753 - 5511307" locus_tag="PSYR_RS24120" class="clusterblast-orf" id="dummy-2_h2_6_33"  />
</g>
<g id="a2_0034"  >
<polygon points="651,90 651,90 656,85 651,80 651,80 651,90 " style="fill:white; stroke-width:1; stroke:black; " description="&lt;b&gt;PSYR_RS24115&lt;/b&gt;&lt;br&gt;hypothetical protein&lt;br&gt;Location: 5511227 - 5510988" locus_tag="PSYR_RS24115" class="clusterblast-orf" id="dummy-2_h2_6_34"  />
</g>
<g id="a2_0035"  >
<polygon points="657,90 658,90 663,85 658,80 657,80 657,90 " style="fill:white; stroke-width:1; stroke:black; " description="&lt;b&gt;PSYR_RS24110&lt;/b&gt;&lt;br&gt;hypothetical protein&lt;br&gt;Location: 5510915 - 5510601" locus_tag="PSYR_RS24110" class="clusterblast-orf" id="dummy-2_h2_6_35"  />
</g>
<g id="a2_0036"  >
<polygon points="663,85 668,80 681,80 681,90 668,90 663,85 " style="fill:white; stroke-width:1; stroke:black; " description="&lt;b&gt;PSYR_RS24105&lt;/b&gt;&lt;br&gt;tyrosine-type recombinase/integrase&lt;br&gt;Location: 5510575 - 5509613" locus_tag="PSYR_RS24105" class="clusterblast-orf" id="dummy-2_h2_6_36"  />
</g>
<g id="a2_0037"  >
<polygon points="687,90 687,90 692,85 687,80 687,80 687,90 " style="fill:white; stroke-width:1; stroke:black; " description="&lt;b&gt;PSYR_RS24100&lt;/b&gt;&lt;br&gt;type II toxin-antitoxin system prevent-host-death family antitoxin&lt;br&gt;Location: 5509275 - 5509027" locus_tag="PSYR_RS24100" class="clusterblast-orf" id="dummy-2_h2_6_37"  />
</g>
<g id="a2_0038"  >
<polygon points="692,90 694,90 699,85 694,80 692,80 692,90 " style="fill:white; stroke-width:1; stroke:black; " description="&lt;b&gt;PSYR_RS24095&lt;/b&gt;&lt;br&gt;type II toxin-antitoxin system RelE/ParE family toxin&lt;br&gt;Location: 5509014 - 5508664" locus_tag="PSYR_RS24095" class="clusterblast-orf" id="dummy-2_h2_6_38"  />
</g>
<g id="a2_0039"  >
<polygon points="706,85 710,80 710,90 706,85 " style="fill:white; stroke-width:1; stroke:black; " description="&lt;b&gt;PSYR_RS24090&lt;/b&gt;&lt;br&gt;hypothetical protein&lt;br&gt;Location: 5508297 - 5508082" locus_tag="PSYR_RS24090" class="clusterblast-orf" id="dummy-2_h2_6_39"  />
</g>
<g id="a2_0040"  >
<polygon points="711,85 716,80 730,80 730,90 716,90 711,85 " style="fill:white; stroke-width:1; stroke:black; " description="&lt;b&gt;PSYR_RS24085&lt;/b&gt;&lt;br&gt;P-type conjugative transfer protein TrbL&lt;br&gt;Location: 5508014 - 5507007" locus_tag="PSYR_RS24085" class="clusterblast-orf" id="dummy-2_h2_6_40"  />
</g>
<g id="a2_0041"  >
<polygon points="733,85 738,80 780,80 780,90 738,90 733,85 " style="fill:white; stroke-width:1; stroke:black; " description="&lt;b&gt;PSYR_RS24075&lt;/b&gt;&lt;br&gt;bifunctional diguanylate cyclase/phosphodiesterase&lt;br&gt;Location: 5506824 - 5504338" locus_tag="PSYR_RS24075" class="clusterblast-orf" id="dummy-2_h2_6_41"  />
</g>
</svg>
