<svg xmlns="http://www.w3.org/2000/svg" xmlns:xlink="http://www.w3.org/1999/xlink" version="1.1" x="0" y="0" height="230" width="800" viewBox="0 0 800 230" preserveAspectRatio="none"  >
<g label="Query sequence" class="clusterblast-cluster"  >
<text x="5" y="20" class="clusterblast-acc"  >
Query sequence</text>
<line x1="10" y1="35" x2="778.0" y2="35" style="stroke-width:1; stroke:grey; "  />
<polygon points="140,40 141,40 146,35 141,30 140,30 140,40 " style="fill:#d81515; stroke-width:1; stroke:black; " description="&lt;b&gt;MCIC6FC_021937&lt;/b&gt;&lt;br&gt;hypothetical protein&lt;br&gt;Location: 55403 - 55824" locus_tag="MCIC6FC_021937" class="clusterblast-orf" id="dummy-1_q0_0_all"  />
<polygon points="146,40 192,40 197,35 192,30 146,30 146,40 " style="fill:#77d815; stroke-width:1; stroke:black; " description="&lt;b&gt;MCIC6FC_021938&lt;/b&gt;&lt;br&gt;hypothetical protein&lt;br&gt;Location: 55847 - 59617" locus_tag="MCIC6FC_021938" class="clusterblast-orf" id="dummy-1_q1_0_all"  />
<polygon points="198,35 203,30 235,30 235,40 203,40 198,35 " style="fill:#15d8d8; stroke-width:1; stroke:black; " description="&lt;b&gt;MCIC6FC_021939&lt;/b&gt;&lt;br&gt;hypothetical protein&lt;br&gt;Location: 59691 - 62473" locus_tag="MCIC6FC_021939" class="clusterblast-orf" id="dummy-1_q2_0_all"  />
<polygon points="238,35 243,30 264,30 264,40 243,40 238,35 " style="fill:#7715d8; stroke-width:1; stroke:black; " description="&lt;b&gt;MCIC6FC_021940&lt;/b&gt;&lt;br&gt;hypothetical protein&lt;br&gt;Location: 62725 - 64695" locus_tag="MCIC6FC_021940" class="clusterblast-orf" id="dummy-1_q3_0_all"  />
<polygon points="271,40 276,40 281,35 276,30 271,30 271,40 " style="fill:#d8a715; stroke-width:1; stroke:black; " description="&lt;b&gt;MCIC6FC_021941&lt;/b&gt;&lt;br&gt;hypothetical protein&lt;br&gt;Location: 65215 - 65932" locus_tag="MCIC6FC_021941" class="clusterblast-orf" id="dummy-1_q4_0_all"  />
<polygon points="282,40 298,40 303,35 298,30 282,30 282,40 " style="fill:#15d846; stroke-width:1; stroke:black; " description="&lt;b&gt;MCIC6FC_021942&lt;/b&gt;&lt;br&gt;hypothetical protein&lt;br&gt;Location: 66050 - 67624" locus_tag="MCIC6FC_021942" class="clusterblast-orf" id="dummy-1_q5_0_all"  />
<polygon points="305,35 310,30 336,30 336,40 310,40 305,35 " style="fill:white; stroke-width:1; stroke:black; " description="&lt;b&gt;MCIC6FC_021943&lt;/b&gt;&lt;br&gt;hypothetical protein&lt;br&gt;Location: 67770 - 70040" locus_tag="MCIC6FC_021943" class="clusterblast-orf" id="dummy-1_q6_0_all"  />
<polygon points="371,35 376,30 388,30 388,40 376,40 371,35 " style="fill:white; stroke-width:1; stroke:black; " description="&lt;b&gt;MCIC6FC_021944&lt;/b&gt;&lt;br&gt;hypothetical protein&lt;br&gt;Location: 72711 - 73984" locus_tag="MCIC6FC_021944" class="clusterblast-orf" id="dummy-1_q7_0_all"  />
<polygon points="392,35 397,30 402,30 402,40 397,40 392,35 " style="fill:#1546d8; stroke-width:1; stroke:black; " description="&lt;b&gt;MCIC6FC_021945&lt;/b&gt;&lt;br&gt;hypothetical protein&lt;br&gt;Location: 74227 - 75000" locus_tag="MCIC6FC_021945" class="clusterblast-orf" id="dummy-1_q8_0_all"  />
<polygon points="403,35 408,30 430,30 430,40 408,40 403,35 " style="fill:#d815a7; stroke-width:1; stroke:black; " description="&lt;b&gt;MCIC6FC_021946&lt;/b&gt;&lt;br&gt;hypothetical protein&lt;br&gt;Location: 75073 - 77123" locus_tag="MCIC6FC_021946" class="clusterblast-orf" id="dummy-1_q9_0_all"  />
<polygon points="431,35 436,30 520,30 520,40 436,40 431,35 " style="fill:#d815a7; stroke-width:1; stroke:black; " description="&lt;b&gt;MCIC6FC_021947&lt;/b&gt;&lt;br&gt;hypothetical protein&lt;br&gt;Location: 77158 - 83829" locus_tag="MCIC6FC_021947" class="clusterblast-orf" id="dummy-1_q10_0_all"  />
<polygon points="529,40 535,40 540,35 535,30 529,30 529,40 " style="fill:white; stroke-width:1; stroke:black; " description="&lt;b&gt;MCIC6FC_021948&lt;/b&gt;&lt;br&gt;hypothetical protein&lt;br&gt;Location: 84520 - 85380" locus_tag="MCIC6FC_021948" class="clusterblast-orf" id="dummy-1_q11_0_all"  />
<polygon points="541,35 546,30 561,30 561,40 546,40 541,35 " style="fill:white; stroke-width:1; stroke:black; " description="&lt;b&gt;MCIC6FC_021949&lt;/b&gt;&lt;br&gt;hypothetical protein&lt;br&gt;Location: 85440 - 86954" locus_tag="MCIC6FC_021949" class="clusterblast-orf" id="dummy-1_q12_0_all"  />
<polygon points="561,40 562,40 567,35 562,30 561,30 561,40 " style="fill:white; stroke-width:1; stroke:black; " description="&lt;b&gt;MCIC6FC_021950&lt;/b&gt;&lt;br&gt;hypothetical protein&lt;br&gt;Location: 86955 - 87358" locus_tag="MCIC6FC_021950" class="clusterblast-orf" id="dummy-1_q13_0_all"  />
<polygon points="571,35 576,30 583,30 583,40 576,40 571,35 " style="fill:white; stroke-width:1; stroke:black; " description="&lt;b&gt;MCIC6FC_021951&lt;/b&gt;&lt;br&gt;hypothetical protein&lt;br&gt;Location: 87647 - 88546" locus_tag="MCIC6FC_021951" class="clusterblast-orf" id="dummy-1_q14_0_all"  />
<polygon points="584,35 589,30 639,30 639,40 589,40 584,35 " style="fill:white; stroke-width:1; stroke:black; " description="&lt;b&gt;MCIC6FC_021952&lt;/b&gt;&lt;br&gt;hypothetical protein&lt;br&gt;Location: 88626 - 92757" locus_tag="MCIC6FC_021952" class="clusterblast-orf" id="dummy-1_q15_0_all"  />
</g>
<g label="NC_019892" description="NC_019892 (8901552-8962238): Singulisphaera acidiphila DSM 18658, complete se... (6% of genes show similarity), NRPS,T1PKS" class="clusterblast-cluster"  >
<text x="5" y="70" class="clusterblast-acc"  >
<a xlink:href="https://antismash-db.secondarymetabolites.org/area.html?record=NC_019892&amp;start=8901552&amp;end=8962238" target="_blank">NC_019892 (8901552-8962238)</a>: Singulisphaera acidiphila DSM 18658, complete se... (6% of genes show similarity), NRPS,T1PKS</text>
<line x1="10" y1="85" x2="778.0" y2="85" style="stroke-width:1; stroke:grey; "  />
</g>
<g id="a1_000"  >
<polygon points="0,85 5,80 41,80 41,90 5,90 0,85 " style="fill:white; stroke-width:1; stroke:black; " description="&lt;b&gt;SINAC_RS34520&lt;/b&gt;&lt;br&gt;HEAT repeat domain-containing protein&lt;br&gt;Location: 8902993 - 8906121" locus_tag="SINAC_RS34520" class="clusterblast-orf" id="dummy-1_h1_2_0"  />
</g>
<g id="a1_001"  >
<polygon points="43,85 48,80 59,80 59,90 48,90 43,85 " style="fill:white; stroke-width:1; stroke:black; " description="&lt;b&gt;SINAC_RS34525&lt;/b&gt;&lt;br&gt;lactonase family protein&lt;br&gt;Location: 8906289 - 8907461" locus_tag="SINAC_RS34525" class="clusterblast-orf" id="dummy-1_h1_2_1"  />
</g>
<g id="a1_002"  >
<polygon points="61,85 65,80 65,90 61,85 " style="fill:white; stroke-width:1; stroke:black; " description="&lt;b&gt;SINAC_RS34530&lt;/b&gt;&lt;br&gt;hypothetical protein&lt;br&gt;Location: 8907576 - 8907920" locus_tag="SINAC_RS34530" class="clusterblast-orf" id="dummy-1_h1_2_2"  />
</g>
<g id="a1_003"  >
<polygon points="70,90 70,90 75,85 70,80 70,80 70,90 " style="fill:white; stroke-width:1; stroke:black; " description="&lt;b&gt;SINAC_RS34535&lt;/b&gt;&lt;br&gt;Dabb family protein&lt;br&gt;Location: 8908239 - 8908643" locus_tag="SINAC_RS34535" class="clusterblast-orf" id="dummy-1_h1_2_3"  />
</g>
<g id="a1_004"  >
<polygon points="79,90 79,90 84,85 79,80 79,80 79,90 " style="fill:white; stroke-width:1; stroke:black; " description="&lt;b&gt;SINAC_RS34540&lt;/b&gt;&lt;br&gt;winged helix-turn-helix transcriptional regulator&lt;br&gt;Location: 8908979 - 8909344" locus_tag="SINAC_RS34540" class="clusterblast-orf" id="dummy-1_h1_2_4"  />
</g>
<g id="a1_005"  >
<polygon points="86,85 91,80 100,80 100,90 91,90 86,85 " style="fill:white; stroke-width:1; stroke:black; " description="&lt;b&gt;SINAC_RS34545&lt;/b&gt;&lt;br&gt;ThuA domain-containing protein&lt;br&gt;Location: 8909476 - 8910510" locus_tag="SINAC_RS34545" class="clusterblast-orf" id="dummy-1_h1_2_5"  />
</g>
<g id="a1_006"  >
<polygon points="104,85 109,80 124,80 124,90 109,90 104,85 " style="fill:white; stroke-width:1; stroke:black; " description="&lt;b&gt;SINAC_RS34550&lt;/b&gt;&lt;br&gt;alpha-amylase&lt;br&gt;Location: 8910797 - 8912320" locus_tag="SINAC_RS34550" class="clusterblast-orf" id="dummy-1_h1_2_6"  />
</g>
<g id="a1_007"  >
<polygon points="125,85 130,80 133,80 133,90 130,90 125,85 " style="fill:white; stroke-width:1; stroke:black; " description="&lt;b&gt;SINAC_RS34555&lt;/b&gt;&lt;br&gt;sigma-70 family RNA polymerase sigma factor&lt;br&gt;Location: 8912397 - 8913002" locus_tag="SINAC_RS34555" class="clusterblast-orf" id="dummy-1_h1_2_7"  />
</g>
<g id="a1_008"  >
<polygon points="138,90 178,90 183,85 178,80 138,80 138,90 " style="fill:white; stroke-width:1; stroke:black; " description="&lt;b&gt;SINAC_RS38330&lt;/b&gt;&lt;br&gt;serine/threonine-protein kinase&lt;br&gt;Location: 8913335 - 8916751" locus_tag="SINAC_RS38330" class="clusterblast-orf" id="dummy-1_h1_2_8"  />
</g>
<g id="a1_009"  >
<polygon points="185,90 200,90 205,85 200,80 185,80 185,90 " style="fill:white; stroke-width:1; stroke:black; " description="&lt;b&gt;SINAC_RS34565&lt;/b&gt;&lt;br&gt;hypothetical protein&lt;br&gt;Location: 8916868 - 8918400" locus_tag="SINAC_RS34565" class="clusterblast-orf" id="dummy-1_h1_2_9"  />
</g>
<g id="a1_0010"  >
<polygon points="207,85 212,80 218,80 218,90 212,90 207,85 " style="fill:white; stroke-width:1; stroke:black; " description="&lt;b&gt;SINAC_RS34570&lt;/b&gt;&lt;br&gt;FkbM family methyltransferase&lt;br&gt;Location: 8918504 - 8919397" locus_tag="SINAC_RS34570" class="clusterblast-orf" id="dummy-1_h1_2_10"  />
</g>
<g id="a1_0011"  >
<polygon points="243,90 246,85 243,80 243,90 " style="fill:white; stroke-width:1; stroke:black; " description="&lt;b&gt;SINAC_RS34575&lt;/b&gt;&lt;br&gt;MbtH family NRPS accessory protein&lt;br&gt;Location: 8921227 - 8921442" locus_tag="SINAC_RS34575" class="clusterblast-orf" id="dummy-1_h1_2_11"  />
</g>
<g id="a1_0012"  >
<polygon points="247,90 436,90 441,85 436,80 247,80 247,90 " style="fill:white; stroke-width:1; stroke:black; " description="&lt;b&gt;SINAC_RS34580&lt;/b&gt;&lt;br&gt;hybrid non-ribosomal peptide synthetase/type I polyketide synthase&lt;br&gt;Location: 8921553 - 8936087" locus_tag="SINAC_RS34580" class="clusterblast-orf" id="dummy-1_h1_2_12"  />
</g>
<g id="a1_0013"  >
<polygon points="445,90 518,90 523,85 518,80 445,80 445,90 " style="fill:white; stroke-width:1; stroke:black; " description="&lt;b&gt;SINAC_RS34585&lt;/b&gt;&lt;br&gt;non-ribosomal peptide synthetase&lt;br&gt;Location: 8936353 - 8942238" locus_tag="SINAC_RS34585" class="clusterblast-orf" id="dummy-1_h1_2_13"  />
</g>
<g id="a1_0014"  >
<polygon points="528,90 541,90 546,85 541,80 528,80 528,90 " style="fill:white; stroke-width:1; stroke:black; " description="&lt;b&gt;SINAC_RS34590&lt;/b&gt;&lt;br&gt;IS4 family transposase&lt;br&gt;Location: 8942559 - 8943944" locus_tag="SINAC_RS34590" class="clusterblast-orf" id="dummy-1_h1_2_14"  />
</g>
<g id="a1_0015"  >
<polygon points="551,90 568,90 573,85 568,80 551,80 551,90 " style="fill:white; stroke-width:1; stroke:black; " description="&lt;b&gt;SINAC_RS34595&lt;/b&gt;&lt;br&gt;cyclic peptide export ABC transporter&lt;br&gt;Location: 8944326 - 8945981" locus_tag="SINAC_RS34595" class="clusterblast-orf" id="dummy-1_h1_2_15"  />
</g>
<g id="a1_0016"  >
<polygon points="575,90 587,90 592,85 587,80 575,80 575,90 " style="fill:white; stroke-width:1; stroke:black; " description="&lt;b&gt;SINAC_RS34600&lt;/b&gt;&lt;br&gt;efflux RND transporter periplasmic adaptor subunit&lt;br&gt;Location: 8946103 - 8947398" locus_tag="SINAC_RS34600" class="clusterblast-orf" id="dummy-1_h1_2_16"  />
</g>
<g id="a1_0017"  >
<polygon points="593,90 617,90 622,85 617,80 593,80 593,90 " style="fill:#d815a7; stroke-width:1; stroke:black; " description="&lt;b&gt;SINAC_RS34605&lt;/b&gt;&lt;br&gt;ATP-binding cassette domain-containing protein&lt;br&gt;Location: 8947466 - 8949634&lt;br&gt;&lt;br&gt;&lt;b&gt;BlastP hit with MCIC6FC_021946&lt;/b&gt;&lt;br&gt;Percentage identity: 49&lt;br&gt;Percentage coverage: 18&lt;br&gt;BLAST bit score: 82&lt;br&gt;E-value: 1.2e-13&lt;br&gt;&lt;br&gt;&lt;b&gt;BlastP hit with MCIC6FC_021947&lt;/b&gt;&lt;br&gt;Percentage identity: 32&lt;br&gt;Percentage coverage: 26&lt;br&gt;BLAST bit score: 201&lt;br&gt;E-value: 5.3e-49" locus_tag="SINAC_RS34605" class="clusterblast-orf" id="dummy-1_h1_2_17"  />
</g>
<g id="a1_0018"  >
<polygon points="623,85 628,80 640,80 640,90 628,90 623,85 " style="fill:#1546d8; stroke-width:1; stroke:black; " description="&lt;b&gt;SINAC_RS34610&lt;/b&gt;&lt;br&gt;beta-ketoacyl-[acyl-carrier-protein] synthase family protein&lt;br&gt;Location: 8949735 - 8951000&lt;br&gt;&lt;br&gt;&lt;b&gt;BlastP hit with MCIC6FC_021945&lt;/b&gt;&lt;br&gt;Percentage identity: 36&lt;br&gt;Percentage coverage: 105&lt;br&gt;BLAST bit score: 122&lt;br&gt;E-value: 6.9e-26" locus_tag="SINAC_RS34610" class="clusterblast-orf" id="dummy-1_h1_2_18"  />
</g>
<g id="a1_0019"  >
<polygon points="643,90 646,85 643,80 643,90 " style="fill:white; stroke-width:1; stroke:black; " description="&lt;b&gt;SINAC_RS34615&lt;/b&gt;&lt;br&gt;hypothetical protein&lt;br&gt;Location: 8951199 - 8951426" locus_tag="SINAC_RS34615" class="clusterblast-orf" id="dummy-1_h1_2_19"  />
</g>
<g id="a1_0020"  >
<polygon points="647,85 652,80 669,80 669,90 652,90 647,85 " style="fill:white; stroke-width:1; stroke:black; " description="&lt;b&gt;SINAC_RS34620&lt;/b&gt;&lt;br&gt;hypothetical protein&lt;br&gt;Location: 8951501 - 8953135" locus_tag="SINAC_RS34620" class="clusterblast-orf" id="dummy-1_h1_2_20"  />
</g>
<g id="a1_0021"  >
<polygon points="673,90 677,85 673,80 673,90 " style="fill:white; stroke-width:1; stroke:black; " description="&lt;b&gt;SINAC_RS34625&lt;/b&gt;&lt;br&gt;VOC family protein&lt;br&gt;Location: 8953433 - 8953786" locus_tag="SINAC_RS34625" class="clusterblast-orf" id="dummy-1_h1_2_21"  />
</g>
<g id="a1_0022"  >
<polygon points="682,90 685,90 690,85 685,80 682,80 682,90 " style="fill:white; stroke-width:1; stroke:black; " description="&lt;b&gt;SINAC_RS34630&lt;/b&gt;&lt;br&gt;hypothetical protein&lt;br&gt;Location: 8954106 - 8954732" locus_tag="SINAC_RS34630" class="clusterblast-orf" id="dummy-1_h1_2_22"  />
</g>
<g id="a1_0023"  >
<polygon points="692,90 697,90 702,85 697,80 692,80 692,90 " style="fill:white; stroke-width:1; stroke:black; " description="&lt;b&gt;SINAC_RS39310&lt;/b&gt;&lt;br&gt;hypothetical protein&lt;br&gt;Location: 8954902 - 8955654" locus_tag="SINAC_RS39310" class="clusterblast-orf" id="dummy-1_h1_2_23"  />
</g>
<g id="a1_0024"  >
<polygon points="702,90 705,90 710,85 705,80 702,80 702,90 " style="fill:white; stroke-width:1; stroke:black; " description="&lt;b&gt;SINAC_RS34635&lt;/b&gt;&lt;br&gt;tyrosine-protein phosphatase&lt;br&gt;Location: 8955620 - 8956213" locus_tag="SINAC_RS34635" class="clusterblast-orf" id="dummy-1_h1_2_24"  />
</g>
<g id="a1_0025"  >
<polygon points="711,90 712,90 717,85 712,80 711,80 711,90 " style="fill:white; stroke-width:1; stroke:black; " description="&lt;b&gt;SINAC_RS34640&lt;/b&gt;&lt;br&gt;acyl-CoA thioesterase&lt;br&gt;Location: 8956317 - 8956754" locus_tag="SINAC_RS34640" class="clusterblast-orf" id="dummy-1_h1_2_25"  />
</g>
<g id="a1_0026"  >
<polygon points="717,85 722,80 723,80 723,90 722,90 717,85 " style="fill:white; stroke-width:1; stroke:black; " description="&lt;b&gt;SINAC_RS34645&lt;/b&gt;&lt;br&gt;hypothetical protein&lt;br&gt;Location: 8956722 - 8957198" locus_tag="SINAC_RS34645" class="clusterblast-orf" id="dummy-1_h1_2_26"  />
</g>
<g id="a1_0027"  >
<polygon points="724,85 729,80 737,80 737,90 729,90 724,85 " style="fill:white; stroke-width:1; stroke:black; " description="&lt;b&gt;SINAC_RS34650&lt;/b&gt;&lt;br&gt;serine hydrolase&lt;br&gt;Location: 8957301 - 8958227" locus_tag="SINAC_RS34650" class="clusterblast-orf" id="dummy-1_h1_2_27"  />
</g>
<g id="a1_0028"  >
<polygon points="741,90 749,90 754,85 749,80 741,80 741,90 " style="fill:white; stroke-width:1; stroke:black; " description="&lt;b&gt;SINAC_RS34655&lt;/b&gt;&lt;br&gt;CvpA family protein&lt;br&gt;Location: 8958526 - 8959518" locus_tag="SINAC_RS34655" class="clusterblast-orf" id="dummy-1_h1_2_28"  />
</g>
<g id="a1_0029"  >
<polygon points="754,90 757,85 754,80 754,90 " style="fill:white; stroke-width:1; stroke:black; " description="&lt;b&gt;SINAC_RS34660&lt;/b&gt;&lt;br&gt;RNA-binding S4 domain-containing protein&lt;br&gt;Location: 8959518 - 8959757" locus_tag="SINAC_RS34660" class="clusterblast-orf" id="dummy-1_h1_2_29"  />
</g>
<g id="a1_0030"  >
<polygon points="761,90 775,90 780,85 775,80 761,80 761,90 " style="fill:white; stroke-width:1; stroke:black; " description="&lt;b&gt;SINAC_RS34665&lt;/b&gt;&lt;br&gt;6-phosphofructokinase&lt;br&gt;Location: 8960050 - 8961429" locus_tag="SINAC_RS34665" class="clusterblast-orf" id="dummy-1_h1_2_30"  />
</g>
</svg>
