<svg xmlns="http://www.w3.org/2000/svg" xmlns:xlink="http://www.w3.org/1999/xlink" version="1.1" x="0" y="0" height="230" width="800" viewBox="0 0 800 230" preserveAspectRatio="none"  >
<g label="Query sequence" class="clusterblast-cluster"  >
<text x="5" y="20" class="clusterblast-acc"  >
Query sequence</text>
<line x1="10" y1="35" x2="778.0" y2="35" style="stroke-width:1; stroke:grey; "  />
<polygon points="31,35 36,30 62,30 62,40 36,40 31,35 " style="fill:#d81515; stroke-width:1; stroke:black; " description="&lt;b&gt;MCIC6FC_005696&lt;/b&gt;&lt;br&gt;hypothetical protein&lt;br&gt;Location: 1757129 - 1757963" locus_tag="MCIC6FC_005696" class="clusterblast-orf" id="dummy-2_q0_0_all"  />
<polygon points="73,40 120,40 125,35 120,30 73,30 73,40 " style="fill:#77d815; stroke-width:1; stroke:black; " description="&lt;b&gt;MCIC6FC_005697&lt;/b&gt;&lt;br&gt;hypothetical protein&lt;br&gt;Location: 1758257 - 1759641" locus_tag="MCIC6FC_005697" class="clusterblast-orf" id="dummy-2_q1_0_all"  />
<polygon points="126,35 131,30 176,30 176,40 131,40 126,35 " style="fill:#15d8d8; stroke-width:1; stroke:black; " description="&lt;b&gt;MCIC6FC_005698&lt;/b&gt;&lt;br&gt;hypothetical protein&lt;br&gt;Location: 1759686 - 1761017" locus_tag="MCIC6FC_005698" class="clusterblast-orf" id="dummy-2_q2_0_all"  />
<polygon points="179,40 209,40 214,35 209,30 179,30 179,40 " style="fill:#7715d8; stroke-width:1; stroke:black; " description="&lt;b&gt;MCIC6FC_005699&lt;/b&gt;&lt;br&gt;hypothetical protein&lt;br&gt;Location: 1761096 - 1762032" locus_tag="MCIC6FC_005699" class="clusterblast-orf" id="dummy-2_q3_0_all"  />
<polygon points="219,40 229,40 234,35 229,30 219,30 219,40 " style="fill:#d87715; stroke-width:1; stroke:black; " description="&lt;b&gt;MCIC6FC_005700&lt;/b&gt;&lt;br&gt;hypothetical protein&lt;br&gt;Location: 1762158 - 1762563" locus_tag="MCIC6FC_005700" class="clusterblast-orf" id="dummy-2_q4_0_all"  />
<polygon points="236,40 265,40 270,35 265,30 236,30 236,40 " style="fill:#15d815; stroke-width:1; stroke:black; " description="&lt;b&gt;MCIC6FC_005701&lt;/b&gt;&lt;br&gt;hypothetical protein&lt;br&gt;Location: 1762625 - 1763526" locus_tag="MCIC6FC_005701" class="clusterblast-orf" id="dummy-2_q5_0_all"  />
<polygon points="292,35 297,30 356,30 356,40 297,40 292,35 " style="fill:#1577d8; stroke-width:1; stroke:black; " description="&lt;b&gt;MCIC6FC_005702&lt;/b&gt;&lt;br&gt;hypothetical protein&lt;br&gt;Location: 1764136 - 1765840" locus_tag="MCIC6FC_005702" class="clusterblast-orf" id="dummy-2_q6_0_all"  />
<polygon points="364,40 467,40 472,35 467,30 364,30 364,40 " style="fill:#d815d8; stroke-width:1; stroke:black; " description="&lt;b&gt;MCIC6FC_005703&lt;/b&gt;&lt;br&gt;hypothetical protein&lt;br&gt;Location: 1766068 - 1768941" locus_tag="MCIC6FC_005703" class="clusterblast-orf" id="dummy-2_q7_0_all"  />
<polygon points="472,40 570,40 575,35 570,30 472,30 472,40 " style="fill:#d8d815; stroke-width:1; stroke:black; " description="&lt;b&gt;MCIC6FC_005704&lt;/b&gt;&lt;br&gt;hypothetical protein&lt;br&gt;Location: 1768958 - 1771718" locus_tag="MCIC6FC_005704" class="clusterblast-orf" id="dummy-2_q8_0_all"  />
<polygon points="576,35 581,30 602,30 602,40 581,40 576,35 " style="fill:#15d877; stroke-width:1; stroke:black; " description="&lt;b&gt;MCIC6FC_005705&lt;/b&gt;&lt;br&gt;hypothetical protein&lt;br&gt;Location: 1771740 - 1772436" locus_tag="MCIC6FC_005705" class="clusterblast-orf" id="dummy-2_q9_0_all"  />
<polygon points="607,40 676,40 681,35 676,30 607,30 607,40 " style="fill:#1515d8; stroke-width:1; stroke:black; " description="&lt;b&gt;MCIC6FC_005706&lt;/b&gt;&lt;br&gt;hypothetical protein&lt;br&gt;Location: 1772567 - 1774554" locus_tag="MCIC6FC_005706" class="clusterblast-orf" id="dummy-2_q10_0_all"  />
<polygon points="682,35 687,30 699,30 699,40 687,40 682,35 " style="fill:#d81577; stroke-width:1; stroke:black; " description="&lt;b&gt;MCIC6FC_005707&lt;/b&gt;&lt;br&gt;hypothetical protein&lt;br&gt;Location: 1774590 - 1775046" locus_tag="MCIC6FC_005707" class="clusterblast-orf" id="dummy-2_q11_0_all"  />
<polygon points="703,40 744,40 749,35 744,30 703,30 703,40 " style="fill:white; stroke-width:1; stroke:black; " description="&lt;b&gt;MCIC6FC_005708&lt;/b&gt;&lt;br&gt;hypothetical protein&lt;br&gt;Location: 1775150 - 1776370" locus_tag="MCIC6FC_005708" class="clusterblast-orf" id="dummy-2_q12_0_all"  />
</g>
<g label="NZ_MOAP01000007" description="NZ_MOAP01000007 (302336-325561): Pseudomonas protegens strain 12H11 12H11 con... (83% of genes show similarity), betalactone" class="clusterblast-cluster"  >
<text x="5" y="70" class="clusterblast-acc"  >
<a xlink:href="https://antismash-db.secondarymetabolites.org/area.html?record=NZ_MOAP01000007&amp;start=302336&amp;end=325561" target="_blank">NZ_MOAP01000007 (302336-325561)</a>: Pseudomonas protegens strain 12H11 12H11 con... (83% of genes show similarity), betalactone</text>
<line x1="10" y1="85" x2="778.0" y2="85" style="stroke-width:1; stroke:grey; "  />
</g>
<g id="a2_000"  >
<polygon points="0,85 5,80 64,80 64,90 5,90 0,85 " style="fill:white; stroke-width:1; stroke:black; " description="&lt;b&gt;BK639_RS19815&lt;/b&gt;&lt;br&gt;outer membrane protein assembly factor&lt;br&gt;Location: 303857 - 305584" locus_tag="BK639_RS19815" class="clusterblast-orf" id="dummy-2_h2_8_0"  />
</g>
<g id="a2_001"  >
<polygon points="66,85 71,80 91,80 91,90 71,90 66,85 " style="fill:white; stroke-width:1; stroke:black; " description="&lt;b&gt;BK639_RS19820&lt;/b&gt;&lt;br&gt;GNAT family N-acetyltransferase&lt;br&gt;Location: 305650 - 306300" locus_tag="BK639_RS19820" class="clusterblast-orf" id="dummy-2_h2_8_1"  />
</g>
<g id="a2_002"  >
<polygon points="97,90 123,90 128,85 123,80 97,80 97,90 " style="fill:white; stroke-width:1; stroke:black; " description="&lt;b&gt;BK639_RS19825&lt;/b&gt;&lt;br&gt;exodeoxyribonuclease III&lt;br&gt;Location: 306476 - 307288" locus_tag="BK639_RS19825" class="clusterblast-orf" id="dummy-2_h2_8_2"  />
</g>
<g id="a2_003"  >
<polygon points="129,85 134,80 142,80 142,90 134,90 129,85 " style="fill:#d81515; stroke-width:1; stroke:black; " description="&lt;b&gt;BK639_RS19830&lt;/b&gt;&lt;br&gt;YegP family protein&lt;br&gt;Location: 307337 - 307669&lt;br&gt;&lt;br&gt;&lt;b&gt;BlastP hit with MCIC6FC_005696&lt;/b&gt;&lt;br&gt;Percentage identity: 92&lt;br&gt;Percentage coverage: 44&lt;br&gt;BLAST bit score: 200&lt;br&gt;E-value: 2.8e-49" locus_tag="BK639_RS19830" class="clusterblast-orf" id="dummy-2_h2_8_3"  />
</g>
<g id="a2_004"  >
<polygon points="153,90 199,90 204,85 199,80 153,80 153,90 " style="fill:#77d815; stroke-width:1; stroke:black; " description="&lt;b&gt;BK639_RS19835&lt;/b&gt;&lt;br&gt;phosphate ABC transporter substrate-binding/OmpA family protein&lt;br&gt;Location: 307962 - 309344&lt;br&gt;&lt;br&gt;&lt;b&gt;BlastP hit with MCIC6FC_005697&lt;/b&gt;&lt;br&gt;Percentage identity: 85&lt;br&gt;Percentage coverage: 103&lt;br&gt;BLAST bit score: 766&lt;br&gt;E-value: 1.8e-219" locus_tag="BK639_RS19835" class="clusterblast-orf" id="dummy-2_h2_8_4"  />
</g>
<g id="a2_005"  >
<polygon points="206,85 211,80 252,80 252,90 211,90 206,85 " style="fill:#15d8d8; stroke-width:1; stroke:black; " description="&lt;b&gt;BK639_RS19840&lt;/b&gt;&lt;br&gt;acyl-CoA dehydrogenase&lt;br&gt;Location: 309400 - 310629&lt;br&gt;&lt;br&gt;&lt;b&gt;BlastP hit with MCIC6FC_005698&lt;/b&gt;&lt;br&gt;Percentage identity: 97&lt;br&gt;Percentage coverage: 95&lt;br&gt;BLAST bit score: 817&lt;br&gt;E-value: 4.9e-235" locus_tag="BK639_RS19840" class="clusterblast-orf" id="dummy-2_h2_8_5"  />
</g>
<g id="a2_006"  >
<polygon points="259,90 289,90 294,85 289,80 259,80 259,90 " style="fill:#7715d8; stroke-width:1; stroke:black; " description="&lt;b&gt;BK639_RS19845&lt;/b&gt;&lt;br&gt;LysR family transcriptional regulator&lt;br&gt;Location: 310810 - 311745&lt;br&gt;&lt;br&gt;&lt;b&gt;BlastP hit with MCIC6FC_005699&lt;/b&gt;&lt;br&gt;Percentage identity: 98&lt;br&gt;Percentage coverage: 100&lt;br&gt;BLAST bit score: 602&lt;br&gt;E-value: 1.8e-170" locus_tag="BK639_RS19845" class="clusterblast-orf" id="dummy-2_h2_8_6"  />
</g>
<g id="a2_007"  >
<polygon points="298,90 309,90 314,85 309,80 298,80 298,90 " style="fill:#d87715; stroke-width:1; stroke:black; " description="&lt;b&gt;BK639_RS19850&lt;/b&gt;&lt;br&gt;MerR family DNA-binding transcriptional regulator&lt;br&gt;Location: 311870 - 312274&lt;br&gt;&lt;br&gt;&lt;b&gt;BlastP hit with MCIC6FC_005700&lt;/b&gt;&lt;br&gt;Percentage identity: 98&lt;br&gt;Percentage coverage: 100&lt;br&gt;BLAST bit score: 247&lt;br&gt;E-value: 1.1e-63" locus_tag="BK639_RS19850" class="clusterblast-orf" id="dummy-2_h2_8_7"  />
</g>
<g id="a2_008"  >
<polygon points="316,90 344,90 349,85 344,80 316,80 316,90 " style="fill:#15d815; stroke-width:1; stroke:black; " description="&lt;b&gt;BK639_RS19855&lt;/b&gt;&lt;br&gt;hydroxymethylglutaryl-CoA lyase&lt;br&gt;Location: 312337 - 313236&lt;br&gt;&lt;br&gt;&lt;b&gt;BlastP hit with MCIC6FC_005701&lt;/b&gt;&lt;br&gt;Percentage identity: 92&lt;br&gt;Percentage coverage: 103&lt;br&gt;BLAST bit score: 542&lt;br&gt;E-value: 3.5e-152" locus_tag="BK639_RS19855" class="clusterblast-orf" id="dummy-2_h2_8_8"  />
</g>
<g id="a2_009"  >
<polygon points="373,85 378,80 436,80 436,90 378,90 373,85 " style="fill:#1577d8; stroke-width:1; stroke:black; " description="&lt;b&gt;BK639_RS19860&lt;/b&gt;&lt;br&gt;AMP-binding protein&lt;br&gt;Location: 313858 - 315561&lt;br&gt;&lt;br&gt;&lt;b&gt;BlastP hit with MCIC6FC_005702&lt;/b&gt;&lt;br&gt;Percentage identity: 95&lt;br&gt;Percentage coverage: 100&lt;br&gt;BLAST bit score: 1124&lt;br&gt;E-value: 0.0" locus_tag="BK639_RS19860" class="clusterblast-orf" id="dummy-2_h2_8_9"  />
</g>
<g id="a2_0010"  >
<polygon points="445,90 483,90 488,85 483,80 445,80 445,90 " style="fill:#d815d8; stroke-width:1; stroke:black; " description="&lt;b&gt;BK639_RS19865&lt;/b&gt;&lt;br&gt;isovaleryl-CoA dehydrogenase&lt;br&gt;Location: 315790 - 316953&lt;br&gt;&lt;br&gt;&lt;b&gt;BlastP hit with MCIC6FC_005703&lt;/b&gt;&lt;br&gt;Percentage identity: 99&lt;br&gt;Percentage coverage: 43&lt;br&gt;BLAST bit score: 770&lt;br&gt;E-value: 1.9e-220" locus_tag="BK639_RS19865" class="clusterblast-orf" id="dummy-2_h2_8_10"  />
</g>
<g id="a2_0011"  >
<polygon points="492,90 547,90 552,85 547,80 492,80 492,90 " style="fill:#d815d8; stroke-width:1; stroke:black; " description="&lt;b&gt;BK639_RS19870&lt;/b&gt;&lt;br&gt;methylcrotonoyl-CoA carboxylase&lt;br&gt;Location: 317060 - 318664&lt;br&gt;&lt;br&gt;&lt;b&gt;BlastP hit with MCIC6FC_005703&lt;/b&gt;&lt;br&gt;Percentage identity: 95&lt;br&gt;Percentage coverage: 58&lt;br&gt;BLAST bit score: 991&lt;br&gt;E-value: 5.2e-287" locus_tag="BK639_RS19870" class="clusterblast-orf" id="dummy-2_h2_8_11"  />
</g>
<g id="a2_0012"  >
<polygon points="553,90 578,90 583,85 578,80 553,80 553,90 " style="fill:#d8d815; stroke-width:1; stroke:black; " description="&lt;b&gt;BK639_RS19875&lt;/b&gt;&lt;br&gt;gamma-carboxygeranoyl-CoA hydratase&lt;br&gt;Location: 318682 - 319497&lt;br&gt;&lt;br&gt;&lt;b&gt;BlastP hit with MCIC6FC_005704&lt;/b&gt;&lt;br&gt;Percentage identity: 96&lt;br&gt;Percentage coverage: 25&lt;br&gt;BLAST bit score: 429&lt;br&gt;E-value: 1.1e-117" locus_tag="BK639_RS19875" class="clusterblast-orf" id="dummy-2_h2_8_12"  />
</g>
<g id="a2_0013"  >
<polygon points="583,90 651,90 656,85 651,80 583,80 583,90 " style="fill:#d8d815; stroke-width:1; stroke:black; " description="&lt;b&gt;BK639_RS19880&lt;/b&gt;&lt;br&gt;acetyl/propionyl/methylcrotonyl-CoA carboxylase subunit alpha&lt;br&gt;Location: 319497 - 321443&lt;br&gt;&lt;br&gt;&lt;b&gt;BlastP hit with MCIC6FC_005704&lt;/b&gt;&lt;br&gt;Percentage identity: 93&lt;br&gt;Percentage coverage: 70&lt;br&gt;BLAST bit score: 1164&lt;br&gt;E-value: 0.0" locus_tag="BK639_RS19880" class="clusterblast-orf" id="dummy-2_h2_8_13"  />
</g>
<g id="a2_0014"  >
<polygon points="658,85 663,80 682,80 682,90 663,90 658,85 " style="fill:#15d877; stroke-width:1; stroke:black; " description="&lt;b&gt;BK639_RS19885&lt;/b&gt;&lt;br&gt;LexA family transcriptional regulator&lt;br&gt;Location: 321498 - 322163&lt;br&gt;&lt;br&gt;&lt;b&gt;BlastP hit with MCIC6FC_005705&lt;/b&gt;&lt;br&gt;Percentage identity: 90&lt;br&gt;Percentage coverage: 98&lt;br&gt;BLAST bit score: 394&lt;br&gt;E-value: 6.8e-108" locus_tag="BK639_RS19885" class="clusterblast-orf" id="dummy-2_h2_8_14"  />
</g>
<g id="a2_0015"  >
<polygon points="687,90 695,90 700,85 695,80 687,80 687,90 " style="fill:#1515d8; stroke-width:1; stroke:black; " description="&lt;b&gt;BK639_RS19890&lt;/b&gt;&lt;br&gt;DUF3077 domain-containing protein&lt;br&gt;Location: 322297 - 322644&lt;br&gt;&lt;br&gt;&lt;b&gt;BlastP hit with MCIC6FC_005706&lt;/b&gt;&lt;br&gt;Percentage identity: 83&lt;br&gt;Percentage coverage: 23&lt;br&gt;BLAST bit score: 180&lt;br&gt;E-value: 6e-43" locus_tag="BK639_RS19890" class="clusterblast-orf" id="dummy-2_h2_8_15"  />
</g>
<g id="a2_0016"  >
<polygon points="718,90 756,90 761,85 756,80 718,80 718,90 " style="fill:#1515d8; stroke-width:1; stroke:black; " description="&lt;b&gt;BK639_RS19895&lt;/b&gt;&lt;br&gt;carboxypeptidase family protein&lt;br&gt;Location: 323118 - 324272&lt;br&gt;&lt;br&gt;&lt;b&gt;BlastP hit with MCIC6FC_005706&lt;/b&gt;&lt;br&gt;Percentage identity: 92&lt;br&gt;Percentage coverage: 78&lt;br&gt;BLAST bit score: 745&lt;br&gt;E-value: 4.6e-213" locus_tag="BK639_RS19895" class="clusterblast-orf" id="dummy-2_h2_8_16"  />
</g>
<g id="a2_0017"  >
<polygon points="763,85 768,80 780,80 780,90 768,90 763,85 " style="fill:#d81577; stroke-width:1; stroke:black; " description="&lt;b&gt;BK639_RS19900&lt;/b&gt;&lt;br&gt;helix-turn-helix transcriptional regulator&lt;br&gt;Location: 324309 - 324764&lt;br&gt;&lt;br&gt;&lt;b&gt;BlastP hit with MCIC6FC_005707&lt;/b&gt;&lt;br&gt;Percentage identity: 93&lt;br&gt;Percentage coverage: 100&lt;br&gt;BLAST bit score: 297&lt;br&gt;E-value: 7.9e-79" locus_tag="BK639_RS19900" class="clusterblast-orf" id="dummy-2_h2_8_17"  />
</g>
</svg>
