<svg xmlns="http://www.w3.org/2000/svg" xmlns:xlink="http://www.w3.org/1999/xlink" version="1.1" x="0" y="0" height="230" width="800" viewBox="0 0 800 230" preserveAspectRatio="none"  >
<g label="Query sequence" class="clusterblast-cluster"  >
<text x="5" y="20" class="clusterblast-acc"  >
Query sequence</text>
<line x1="10" y1="35" x2="778.0" y2="35" style="stroke-width:1; stroke:grey; "  />
<polygon points="0,40 112,40 117,35 112,30 0,30 0,40 " style="fill:#d81515; stroke-width:1; stroke:black; " description="&lt;b&gt;MCIC6FC_019652&lt;/b&gt;&lt;br&gt;hypothetical protein&lt;br&gt;Location: 118749 - 120664" locus_tag="MCIC6FC_019652" class="clusterblast-orf" id="dummy-1_q0_0_all"  />
<polygon points="145,40 533,40 538,35 533,30 145,30 145,40 " style="fill:#15d815; stroke-width:1; stroke:black; " description="&lt;b&gt;MCIC6FC_019653&lt;/b&gt;&lt;br&gt;hypothetical protein&lt;br&gt;Location: 121128 - 127587" locus_tag="MCIC6FC_019653" class="clusterblast-orf" id="dummy-1_q1_0_all"  />
<polygon points="556,40 775,40 780,35 775,30 556,30 556,40 " style="fill:#1515d8; stroke-width:1; stroke:black; " description="&lt;b&gt;MCIC6FC_019654&lt;/b&gt;&lt;br&gt;hypothetical protein&lt;br&gt;Location: 127885 - 131565" locus_tag="MCIC6FC_019654" class="clusterblast-orf" id="dummy-1_q2_0_all"  />
</g>
<g label="NZ_PYUQ02000011" description="NZ_PYUQ02000011 (162112-174605): Halomonas sp. SL1 HAL S10 001 contig 11 cons... (37% of genes show similarity), siderophore" class="clusterblast-cluster"  >
<text x="5" y="70" class="clusterblast-acc"  >
<a xlink:href="https://antismash-db.secondarymetabolites.org/area.html?record=NZ_PYUQ02000011&amp;start=162112&amp;end=174605" target="_blank">NZ_PYUQ02000011 (162112-174605)</a>: Halomonas sp. SL1 HAL S10 001 contig 11 cons... (37% of genes show similarity), siderophore</text>
<line x1="10" y1="85" x2="778.0" y2="85" style="stroke-width:1; stroke:grey; "  />
</g>
<g id="a1_000"  >
<polygon points="47,90 137,90 142,85 137,80 47,80 47,90 " style="fill:#d81515; stroke-width:1; stroke:black; " description="&lt;b&gt;C9J49_RS04895&lt;/b&gt;&lt;br&gt;aspartate aminotransferase family protein&lt;br&gt;Location: 163022 - 164581&lt;br&gt;&lt;br&gt;&lt;b&gt;BlastP hit with MCIC6FC_019652&lt;/b&gt;&lt;br&gt;Percentage identity: 42&lt;br&gt;Percentage coverage: 71&lt;br&gt;BLAST bit score: 231&lt;br&gt;E-value: 2.2e-58" locus_tag="C9J49_RS04895" class="clusterblast-orf" id="dummy-1_h1_6_0"  />
</g>
<g id="a1_001"  >
<polygon points="143,90 219,90 224,85 219,80 143,80 143,90 " style="fill:#15d815; stroke-width:1; stroke:black; " description="&lt;b&gt;C9J49_RS04900&lt;/b&gt;&lt;br&gt;SidA/IucD/PvdA family monooxygenase&lt;br&gt;Location: 164600 - 165928&lt;br&gt;&lt;br&gt;&lt;b&gt;BlastP hit with MCIC6FC_019653&lt;/b&gt;&lt;br&gt;Percentage identity: 43&lt;br&gt;Percentage coverage: 30&lt;br&gt;BLAST bit score: 326&lt;br&gt;E-value: 1.5e-86" locus_tag="C9J49_RS04900" class="clusterblast-orf" id="dummy-1_h1_6_1"  />
</g>
<g id="a1_002"  >
<polygon points="224,90 291,90 296,85 291,80 224,80 224,90 " style="fill:white; stroke-width:1; stroke:black; " description="&lt;b&gt;C9J49_RS04905&lt;/b&gt;&lt;br&gt;MFS transporter&lt;br&gt;Location: 165925 - 167109" locus_tag="C9J49_RS04905" class="clusterblast-orf" id="dummy-1_h1_6_2"  />
</g>
<g id="a1_003"  >
<polygon points="296,90 443,90 448,85 443,80 296,80 296,90 " style="fill:white; stroke-width:1; stroke:black; " description="&lt;b&gt;C9J49_RS04910&lt;/b&gt;&lt;br&gt;GNAT family N-acetyltransferase&lt;br&gt;Location: 167113 - 169605" locus_tag="C9J49_RS04910" class="clusterblast-orf" id="dummy-1_h1_6_3"  />
</g>
<g id="a1_004"  >
<polygon points="457,90 484,90 489,85 484,80 457,80 457,90 " style="fill:white; stroke-width:1; stroke:black; " description="&lt;b&gt;C9J49_RS04915&lt;/b&gt;&lt;br&gt;sigma-70 family RNA polymerase sigma factor&lt;br&gt;Location: 169756 - 170292" locus_tag="C9J49_RS04915" class="clusterblast-orf" id="dummy-1_h1_6_4"  />
</g>
<g id="a1_005"  >
<polygon points="494,90 536,90 541,85 536,80 494,80 494,90 " style="fill:white; stroke-width:1; stroke:black; " description="&lt;b&gt;C9J49_RS04920&lt;/b&gt;&lt;br&gt;siderophore-iron reductase FhuF&lt;br&gt;Location: 170363 - 171139" locus_tag="C9J49_RS04920" class="clusterblast-orf" id="dummy-1_h1_6_5"  />
</g>
<g id="a1_006"  >
<polygon points="541,90 593,90 598,85 593,80 541,80 541,90 " style="fill:white; stroke-width:1; stroke:black; " description="&lt;b&gt;C9J49_RS04925&lt;/b&gt;&lt;br&gt;AraC family transcriptional regulator&lt;br&gt;Location: 171136 - 172074" locus_tag="C9J49_RS04925" class="clusterblast-orf" id="dummy-1_h1_6_6"  />
</g>
<g id="a1_007"  >
<polygon points="604,90 727,90 732,85 727,80 604,80 604,90 " style="fill:#1515d8; stroke-width:1; stroke:black; " description="&lt;b&gt;C9J49_RS04930&lt;/b&gt;&lt;br&gt;TonB-dependent siderophore receptor&lt;br&gt;Location: 172181 - 174277&lt;br&gt;&lt;br&gt;&lt;b&gt;BlastP hit with MCIC6FC_019654&lt;/b&gt;&lt;br&gt;Percentage identity: 31&lt;br&gt;Percentage coverage: 26&lt;br&gt;BLAST bit score: 57&lt;br&gt;E-value: 4e-06" locus_tag="C9J49_RS04930" class="clusterblast-orf" id="dummy-1_h1_6_7"  />
</g>
</svg>
