<svg xmlns="http://www.w3.org/2000/svg" xmlns:xlink="http://www.w3.org/1999/xlink" version="1.1" x="0" y="0" height="230" width="800" viewBox="0 0 800 230" preserveAspectRatio="none"  >
<g label="Query sequence" class="clusterblast-cluster"  >
<text x="5" y="20" class="clusterblast-acc"  >
Query sequence</text>
<line x1="10" y1="35" x2="778.0" y2="35" style="stroke-width:1; stroke:grey; "  />
<polygon points="0,35 5,30 254,30 254,40 5,40 0,35 " style="fill:white; stroke-width:1; stroke:black; " description="&lt;b&gt;MCIC6FC_008584&lt;/b&gt;&lt;br&gt;hypothetical protein&lt;br&gt;Location: 14314 - 23110" locus_tag="MCIC6FC_008584" class="clusterblast-orf" id="dummy-1_q0_0_all"  />
<polygon points="258,40 267,40 272,35 267,30 258,30 258,40 " style="fill:white; stroke-width:1; stroke:black; " description="&lt;b&gt;MCIC6FC_008585&lt;/b&gt;&lt;br&gt;hypothetical protein&lt;br&gt;Location: 23237 - 23720" locus_tag="MCIC6FC_008585" class="clusterblast-orf" id="dummy-1_q1_0_all"  />
<polygon points="276,35 281,30 320,30 320,40 281,40 276,35 " style="fill:#d81515; stroke-width:1; stroke:black; " description="&lt;b&gt;MCIC6FC_008586&lt;/b&gt;&lt;br&gt;hypothetical protein&lt;br&gt;Location: 23866 - 25385" locus_tag="MCIC6FC_008586" class="clusterblast-orf" id="dummy-1_q2_0_all"  />
<polygon points="322,35 327,30 441,30 441,40 327,40 322,35 " style="fill:#4dd815; stroke-width:1; stroke:black; " description="&lt;b&gt;MCIC6FC_008587&lt;/b&gt;&lt;br&gt;hypothetical protein&lt;br&gt;Location: 25430 - 29547" locus_tag="MCIC6FC_008587" class="clusterblast-orf" id="dummy-1_q3_0_all"  />
<polygon points="450,40 614,40 619,35 614,30 450,30 450,40 " style="fill:#1585d8; stroke-width:1; stroke:black; " description="&lt;b&gt;MCIC6FC_008588&lt;/b&gt;&lt;br&gt;hypothetical protein&lt;br&gt;Location: 29864 - 35700" locus_tag="MCIC6FC_008588" class="clusterblast-orf" id="dummy-1_q4_0_all"  />
<polygon points="622,40 673,40 678,35 673,30 622,30 622,40 " style="fill:#d815bc; stroke-width:1; stroke:black; " description="&lt;b&gt;MCIC6FC_008589&lt;/b&gt;&lt;br&gt;hypothetical protein&lt;br&gt;Location: 35816 - 37762" locus_tag="MCIC6FC_008589" class="clusterblast-orf" id="dummy-1_q5_0_all"  />
<polygon points="681,40 710,40 715,35 710,30 681,30 681,40 " style="fill:#d8bc15; stroke-width:1; stroke:black; " description="&lt;b&gt;MCIC6FC_008590&lt;/b&gt;&lt;br&gt;hypothetical protein&lt;br&gt;Location: 37849 - 39034" locus_tag="MCIC6FC_008590" class="clusterblast-orf" id="dummy-1_q6_0_all"  />
<polygon points="719,35 724,30 766,30 766,40 724,40 719,35 " style="fill:#15d885; stroke-width:1; stroke:black; " description="&lt;b&gt;MCIC6FC_008591&lt;/b&gt;&lt;br&gt;hypothetical protein&lt;br&gt;Location: 39169 - 40770" locus_tag="MCIC6FC_008591" class="clusterblast-orf" id="dummy-1_q7_0_all"  />
<polygon points="768,40 775,40 780,35 775,30 768,30 768,40 " style="fill:#4d15d8; stroke-width:1; stroke:black; " description="&lt;b&gt;MCIC6FC_008592&lt;/b&gt;&lt;br&gt;hypothetical protein&lt;br&gt;Location: 40849 - 41263" locus_tag="MCIC6FC_008592" class="clusterblast-orf" id="dummy-1_q8_0_all"  />
</g>
<g label="NZ_CP046103" description="NZ_CP046103 (5262360-5273206): Pseudomonas sp. IB20 chromosome (88% of genes show similarity), bacteriocin" class="clusterblast-cluster"  >
<text x="5" y="70" class="clusterblast-acc"  >
<a xlink:href="https://antismash-db.secondarymetabolites.org/area.html?record=NZ_CP046103&amp;start=5262360&amp;end=5273206" target="_blank">NZ_CP046103 (5262360-5273206)</a>: Pseudomonas sp. IB20 chromosome (88% of genes show similarity), bacteriocin</text>
<line x1="10" y1="85" x2="778.0" y2="85" style="stroke-width:1; stroke:grey; "  />
</g>
<g id="a1_000"  >
<polygon points="253,90 276,90 281,85 276,80 253,80 253,90 " style="fill:#1585d8; stroke-width:1; stroke:black; " description="&lt;b&gt;GJU48_RS24655&lt;/b&gt;&lt;br&gt;protease modulator HflC&lt;br&gt;Location: 5272544 - 5271555&lt;br&gt;&lt;br&gt;&lt;b&gt;BlastP hit with MCIC6FC_008588&lt;/b&gt;&lt;br&gt;Percentage identity: 98&lt;br&gt;Percentage coverage: 16&lt;br&gt;BLAST bit score: 455&lt;br&gt;E-value: 2.8e-125" locus_tag="GJU48_RS24655" class="clusterblast-orf" id="dummy-1_h1_10_0"  />
</g>
<g id="a1_001"  >
<polygon points="281,90 306,90 311,85 306,80 281,80 281,90 " style="fill:#1585d8; stroke-width:1; stroke:black; " description="&lt;b&gt;GJU48_RS24650&lt;/b&gt;&lt;br&gt;protease modulator HflK&lt;br&gt;Location: 5271558 - 5270524&lt;br&gt;&lt;br&gt;&lt;b&gt;BlastP hit with MCIC6FC_008588&lt;/b&gt;&lt;br&gt;Percentage identity: 98&lt;br&gt;Percentage coverage: 17&lt;br&gt;BLAST bit score: 487&lt;br&gt;E-value: 5.1e-135" locus_tag="GJU48_RS24650" class="clusterblast-orf" id="dummy-1_h1_10_1"  />
</g>
<g id="a1_002"  >
<polygon points="311,90 361,90 366,85 361,80 311,80 311,90 " style="fill:#1585d8; stroke-width:1; stroke:black; " description="&lt;b&gt;GJU48_RS24645&lt;/b&gt;&lt;br&gt;cadmium-translocating P-type ATPase&lt;br&gt;Location: 5270527 - 5268641&lt;br&gt;&lt;br&gt;&lt;b&gt;BlastP hit with MCIC6FC_008588&lt;/b&gt;&lt;br&gt;Percentage identity: 97&lt;br&gt;Percentage coverage: 33&lt;br&gt;BLAST bit score: 1044&lt;br&gt;E-value: 1.4e-302" locus_tag="GJU48_RS24645" class="clusterblast-orf" id="dummy-1_h1_10_2"  />
</g>
<g id="a1_003"  >
<polygon points="367,85 372,80 378,80 378,90 372,90 367,85 " style="fill:white; stroke-width:1; stroke:black; " description="&lt;b&gt;GJU48_RS24980&lt;/b&gt;&lt;br&gt;hypothetical protein&lt;br&gt;Location: 5268597 - 5268205" locus_tag="GJU48_RS24980" class="clusterblast-orf" id="dummy-1_h1_10_3"  />
</g>
<g id="a1_004"  >
<polygon points="378,90 398,90 403,85 398,80 378,80 378,90 " style="fill:#d815bc; stroke-width:1; stroke:black; " description="&lt;b&gt;GJU48_RS24635&lt;/b&gt;&lt;br&gt;DUF692 domain-containing protein&lt;br&gt;Location: 5268206 - 5267361&lt;br&gt;&lt;br&gt;&lt;b&gt;BlastP hit with MCIC6FC_008589&lt;/b&gt;&lt;br&gt;Percentage identity: 91&lt;br&gt;Percentage coverage: 44&lt;br&gt;BLAST bit score: 489&lt;br&gt;E-value: 5.5e-136" locus_tag="GJU48_RS24635" class="clusterblast-orf" id="dummy-1_h1_10_4"  />
</g>
<g id="a1_005"  >
<polygon points="403,90 420,90 425,85 420,80 403,80 403,90 " style="fill:#d815bc; stroke-width:1; stroke:black; " description="&lt;b&gt;GJU48_RS24630&lt;/b&gt;&lt;br&gt;putative DNA-binding domain-containing protein&lt;br&gt;Location: 5267370 - 5266582&lt;br&gt;&lt;br&gt;&lt;b&gt;BlastP hit with MCIC6FC_008589&lt;/b&gt;&lt;br&gt;Percentage identity: 88&lt;br&gt;Percentage coverage: 44&lt;br&gt;BLAST bit score: 465&lt;br&gt;E-value: 6.5e-129" locus_tag="GJU48_RS24630" class="clusterblast-orf" id="dummy-1_h1_10_5"  />
</g>
<g id="a1_006"  >
<polygon points="428,90 457,90 462,85 457,80 428,80 428,90 " style="fill:#d8bc15; stroke-width:1; stroke:black; " description="&lt;b&gt;GJU48_RS24625&lt;/b&gt;&lt;br&gt;class I SAM-dependent methyltransferase&lt;br&gt;Location: 5266495 - 5265311&lt;br&gt;&lt;br&gt;&lt;b&gt;BlastP hit with MCIC6FC_008590&lt;/b&gt;&lt;br&gt;Percentage identity: 97&lt;br&gt;Percentage coverage: 100&lt;br&gt;BLAST bit score: 788&lt;br&gt;E-value: 3.8e-226" locus_tag="GJU48_RS24625" class="clusterblast-orf" id="dummy-1_h1_10_6"  />
</g>
<g id="a1_007"  >
<polygon points="466,85 471,80 507,80 507,90 471,90 466,85 " style="fill:#15d885; stroke-width:1; stroke:black; " description="&lt;b&gt;GJU48_RS24620&lt;/b&gt;&lt;br&gt;cardiolipin synthase&lt;br&gt;Location: 5265192 - 5263753&lt;br&gt;&lt;br&gt;&lt;b&gt;BlastP hit with MCIC6FC_008591&lt;/b&gt;&lt;br&gt;Percentage identity: 96&lt;br&gt;Percentage coverage: 98&lt;br&gt;BLAST bit score: 864&lt;br&gt;E-value: 3.7e-249" locus_tag="GJU48_RS24620" class="clusterblast-orf" id="dummy-1_h1_10_7"  />
</g>
<g id="a1_008"  >
<polygon points="511,90 521,90 526,85 521,80 511,80 511,90 " style="fill:#4d15d8; stroke-width:1; stroke:black; " description="&lt;b&gt;GJU48_RS24615&lt;/b&gt;&lt;br&gt;DUF3617 domain-containing protein&lt;br&gt;Location: 5263622 - 5263101&lt;br&gt;&lt;br&gt;&lt;b&gt;BlastP hit with MCIC6FC_008592&lt;/b&gt;&lt;br&gt;Percentage identity: 98&lt;br&gt;Percentage coverage: 100&lt;br&gt;BLAST bit score: 276&lt;br&gt;E-value: 1.3e-72" locus_tag="GJU48_RS24615" class="clusterblast-orf" id="dummy-1_h1_10_8"  />
</g>
</svg>
