<svg xmlns="http://www.w3.org/2000/svg" xmlns:xlink="http://www.w3.org/1999/xlink" version="1.1" x="0" y="0" height="230" width="800" viewBox="0 0 800 230" preserveAspectRatio="none"  >
<g label="Query sequence" class="clusterblast-cluster"  >
<text x="5" y="20" class="clusterblast-acc"  >
Query sequence</text>
<line x1="10" y1="35" x2="778.0" y2="35" style="stroke-width:1; stroke:grey; "  />
<polygon points="51,40 64,40 69,35 64,30 51,30 51,40 " style="fill:#d81515; stroke-width:1; stroke:black; " description="&lt;b&gt;MCIC6FC_014020&lt;/b&gt;&lt;br&gt;hypothetical protein&lt;br&gt;Location: 52098 - 53356" locus_tag="MCIC6FC_014020" class="clusterblast-orf" id="dummy-1_q0_0_all"  />
<polygon points="71,35 76,30 108,30 108,40 76,40 71,35 " style="fill:#3cd815; stroke-width:1; stroke:black; " description="&lt;b&gt;MCIC6FC_014021&lt;/b&gt;&lt;br&gt;hypothetical protein&lt;br&gt;Location: 53450 - 56005" locus_tag="MCIC6FC_014021" class="clusterblast-orf" id="dummy-1_q1_0_all"  />
<polygon points="110,40 147,40 152,35 147,30 110,30 110,40 " style="fill:#1563d8; stroke-width:1; stroke:black; " description="&lt;b&gt;MCIC6FC_014022&lt;/b&gt;&lt;br&gt;hypothetical protein&lt;br&gt;Location: 56153 - 58945" locus_tag="MCIC6FC_014022" class="clusterblast-orf" id="dummy-1_q2_0_all"  />
<polygon points="154,35 159,30 170,30 170,40 159,40 154,35 " style="fill:#b115d8; stroke-width:1; stroke:black; " description="&lt;b&gt;MCIC6FC_014023&lt;/b&gt;&lt;br&gt;hypothetical protein&lt;br&gt;Location: 59080 - 60161" locus_tag="MCIC6FC_014023" class="clusterblast-orf" id="dummy-1_q3_0_all"  />
<polygon points="172,40 246,40 251,35 246,30 172,30 172,40 " style="fill:#d88a15; stroke-width:1; stroke:black; " description="&lt;b&gt;MCIC6FC_014024&lt;/b&gt;&lt;br&gt;hypothetical protein&lt;br&gt;Location: 60332 - 65690" locus_tag="MCIC6FC_014024" class="clusterblast-orf" id="dummy-1_q4_0_all"  />
<polygon points="252,40 267,40 272,35 267,30 252,30 252,40 " style="fill:#d88a15; stroke-width:1; stroke:black; " description="&lt;b&gt;MCIC6FC_014025&lt;/b&gt;&lt;br&gt;hypothetical protein&lt;br&gt;Location: 65750 - 67094" locus_tag="MCIC6FC_014025" class="clusterblast-orf" id="dummy-1_q5_0_all"  />
<polygon points="274,35 279,30 291,30 291,40 279,40 274,35 " style="fill:#15d863; stroke-width:1; stroke:black; " description="&lt;b&gt;MCIC6FC_014026&lt;/b&gt;&lt;br&gt;hypothetical protein&lt;br&gt;Location: 67206 - 68389" locus_tag="MCIC6FC_014026" class="clusterblast-orf" id="dummy-1_q6_0_all"  />
<polygon points="295,40 332,40 337,35 332,30 295,30 295,40 " style="fill:#3c15d8; stroke-width:1; stroke:black; " description="&lt;b&gt;MCIC6FC_014027&lt;/b&gt;&lt;br&gt;hypothetical protein&lt;br&gt;Location: 68607 - 71491" locus_tag="MCIC6FC_014027" class="clusterblast-orf" id="dummy-1_q7_0_all"  />
<polygon points="339,35 344,30 491,30 491,40 344,40 339,35 " style="fill:#d8158a; stroke-width:1; stroke:black; " description="&lt;b&gt;MCIC6FC_014028&lt;/b&gt;&lt;br&gt;hypothetical protein&lt;br&gt;Location: 71613 - 81880" locus_tag="MCIC6FC_014028" class="clusterblast-orf" id="dummy-1_q8_0_all"  />
<polygon points="497,40 563,40 568,35 563,30 497,30 497,40 " style="fill:#b1d815; stroke-width:1; stroke:black; " description="&lt;b&gt;MCIC6FC_014029&lt;/b&gt;&lt;br&gt;hypothetical protein&lt;br&gt;Location: 82282 - 87140" locus_tag="MCIC6FC_014029" class="clusterblast-orf" id="dummy-1_q9_0_all"  />
<polygon points="580,35 585,30 697,30 697,40 585,40 580,35 " style="fill:#15d8d8; stroke-width:1; stroke:black; " description="&lt;b&gt;MCIC6FC_014030&lt;/b&gt;&lt;br&gt;hypothetical protein&lt;br&gt;Location: 87945 - 95846" locus_tag="MCIC6FC_014030" class="clusterblast-orf" id="dummy-1_q10_0_all"  />
<polygon points="714,40 714,40 719,35 714,30 714,30 714,40 " style="fill:white; stroke-width:1; stroke:black; " description="&lt;b&gt;MCIC6FC_014031&lt;/b&gt;&lt;br&gt;hypothetical protein&lt;br&gt;Location: 96983 - 97328" locus_tag="MCIC6FC_014031" class="clusterblast-orf" id="dummy-1_q11_0_all"  />
<polygon points="719,35 724,30 729,30 729,40 724,40 719,35 " style="fill:white; stroke-width:1; stroke:black; " description="&lt;b&gt;MCIC6FC_014032&lt;/b&gt;&lt;br&gt;hypothetical protein&lt;br&gt;Location: 97335 - 97989" locus_tag="MCIC6FC_014032" class="clusterblast-orf" id="dummy-1_q12_0_all"  />
</g>
<g label="NZ_CP020872" description="NZ_CP020872 (3392584-3445361): Dickeya fangzhongdai strain PA1 chromosome, co... (15% of genes show similarity), NRPS" class="clusterblast-cluster"  >
<text x="5" y="70" class="clusterblast-acc"  >
<a xlink:href="https://antismash-db.secondarymetabolites.org/area.html?record=NZ_CP020872&amp;start=3392584&amp;end=3445361" target="_blank">NZ_CP020872 (3392584-3445361)</a>: Dickeya fangzhongdai strain PA1 chromosome, co... (15% of genes show similarity), NRPS</text>
<line x1="10" y1="85" x2="778.0" y2="85" style="stroke-width:1; stroke:grey; "  />
</g>
<g id="a1_000"  >
<polygon points="0,85 3,80 3,90 0,85 " style="fill:white; stroke-width:1; stroke:black; " description="&lt;b&gt;B6N31_RS14925&lt;/b&gt;&lt;br&gt;hypothetical protein&lt;br&gt;Location: 3392585 - 3392836" locus_tag="B6N31_RS14925" class="clusterblast-orf" id="dummy-1_h1_9_0"  />
</g>
<g id="a1_001"  >
<polygon points="3,85 6,80 6,90 3,85 " style="fill:white; stroke-width:1; stroke:black; " description="&lt;b&gt;B6N31_RS14930&lt;/b&gt;&lt;br&gt;hypothetical protein&lt;br&gt;Location: 3392829 - 3393020" locus_tag="B6N31_RS14930" class="clusterblast-orf" id="dummy-1_h1_9_1"  />
</g>
<g id="a1_002"  >
<polygon points="6,85 9,80 9,90 6,85 " style="fill:white; stroke-width:1; stroke:black; " description="&lt;b&gt;B6N31_RS14935&lt;/b&gt;&lt;br&gt;host cell division inhibitor Icd-like protein&lt;br&gt;Location: 3393013 - 3393210" locus_tag="B6N31_RS14935" class="clusterblast-orf" id="dummy-1_h1_9_2"  />
</g>
<g id="a1_003"  >
<polygon points="9,85 14,80 14,80 14,90 14,90 9,85 " style="fill:white; stroke-width:1; stroke:black; " description="&lt;b&gt;B6N31_RS14940&lt;/b&gt;&lt;br&gt;ash family protein&lt;br&gt;Location: 3393234 - 3393587" locus_tag="B6N31_RS14940" class="clusterblast-orf" id="dummy-1_h1_9_3"  />
</g>
<g id="a1_004"  >
<polygon points="15,85 20,80 23,80 23,90 20,90 15,85 " style="fill:white; stroke-width:1; stroke:black; " description="&lt;b&gt;B6N31_RS14945&lt;/b&gt;&lt;br&gt;capsid protein&lt;br&gt;Location: 3393658 - 3394167" locus_tag="B6N31_RS14945" class="clusterblast-orf" id="dummy-1_h1_9_4"  />
</g>
<g id="a1_005"  >
<polygon points="23,85 28,80 38,80 38,90 28,90 23,85 " style="fill:white; stroke-width:1; stroke:black; " description="&lt;b&gt;B6N31_RS14950&lt;/b&gt;&lt;br&gt;major capsid protein&lt;br&gt;Location: 3394175 - 3395170" locus_tag="B6N31_RS14950" class="clusterblast-orf" id="dummy-1_h1_9_5"  />
</g>
<g id="a1_006"  >
<polygon points="38,85 43,80 50,80 50,90 43,90 38,85 " style="fill:white; stroke-width:1; stroke:black; " description="&lt;b&gt;B6N31_RS14955&lt;/b&gt;&lt;br&gt;hypothetical protein&lt;br&gt;Location: 3395209 - 3396030" locus_tag="B6N31_RS14955" class="clusterblast-orf" id="dummy-1_h1_9_6"  />
</g>
<g id="a1_007"  >
<polygon points="51,85 54,80 54,90 51,85 " style="fill:white; stroke-width:1; stroke:black; " description="&lt;b&gt;B6N31_RS14960&lt;/b&gt;&lt;br&gt;AlpA family transcriptional regulator&lt;br&gt;Location: 3396063 - 3396269" locus_tag="B6N31_RS14960" class="clusterblast-orf" id="dummy-1_h1_9_7"  />
</g>
<g id="a1_008"  >
<polygon points="65,85 70,80 76,80 76,90 70,90 65,85 " style="fill:white; stroke-width:1; stroke:black; " description="&lt;b&gt;B6N31_RS14965&lt;/b&gt;&lt;br&gt;sugar-binding protein&lt;br&gt;Location: 3396985 - 3397776" locus_tag="B6N31_RS14965" class="clusterblast-orf" id="dummy-1_h1_9_8"  />
</g>
<g id="a1_009"  >
<polygon points="91,90 98,90 103,85 98,80 91,80 91,90 " style="fill:white; stroke-width:1; stroke:black; " description="&lt;b&gt;B6N31_RS14970&lt;/b&gt;&lt;br&gt;5'-nucleotidase, lipoprotein e(P4) family&lt;br&gt;Location: 3398806 - 3399615" locus_tag="B6N31_RS14970" class="clusterblast-orf" id="dummy-1_h1_9_9"  />
</g>
<g id="a1_0010"  >
<polygon points="105,85 110,80 133,80 133,90 110,90 105,85 " style="fill:white; stroke-width:1; stroke:black; " description="&lt;b&gt;B6N31_RS14975&lt;/b&gt;&lt;br&gt;avirulence protein&lt;br&gt;Location: 3399757 - 3401622" locus_tag="B6N31_RS14975" class="clusterblast-orf" id="dummy-1_h1_9_10"  />
</g>
<g id="a1_0011"  >
<polygon points="136,85 141,80 163,80 163,90 141,90 136,85 " style="fill:white; stroke-width:1; stroke:black; " description="&lt;b&gt;B6N31_RS14980&lt;/b&gt;&lt;br&gt;avirulence protein&lt;br&gt;Location: 3401793 - 3403652" locus_tag="B6N31_RS14980" class="clusterblast-orf" id="dummy-1_h1_9_11"  />
</g>
<g id="a1_0012"  >
<polygon points="169,90 180,90 185,85 180,80 169,80 169,90 " style="fill:#d88a15; stroke-width:1; stroke:black; " description="&lt;b&gt;B6N31_RS14985&lt;/b&gt;&lt;br&gt;Fe2+-enterobactin ABC transporter substrate-binding protein&lt;br&gt;Location: 3404072 - 3405136&lt;br&gt;&lt;br&gt;&lt;b&gt;BlastP hit with MCIC6FC_014025&lt;/b&gt;&lt;br&gt;Percentage identity: 63&lt;br&gt;Percentage coverage: 100&lt;br&gt;BLAST bit score: 338&lt;br&gt;E-value: 6.1e-91" locus_tag="B6N31_RS14985" class="clusterblast-orf" id="dummy-1_h1_9_12"  />
</g>
<g id="a1_0013"  >
<polygon points="186,85 191,80 204,80 204,90 191,90 186,85 " style="fill:#15d863; stroke-width:1; stroke:black; " description="&lt;b&gt;B6N31_RS14990&lt;/b&gt;&lt;br&gt;enterobactin transporter EntS&lt;br&gt;Location: 3405171 - 3406451&lt;br&gt;&lt;br&gt;&lt;b&gt;BlastP hit with MCIC6FC_014026&lt;/b&gt;&lt;br&gt;Percentage identity: 67&lt;br&gt;Percentage coverage: 109&lt;br&gt;BLAST bit score: 452&lt;br&gt;E-value: 4.6e-125" locus_tag="B6N31_RS14990" class="clusterblast-orf" id="dummy-1_h1_9_13"  />
</g>
<g id="a1_0014"  >
<polygon points="207,90 218,90 223,85 218,80 207,80 207,90 " style="fill:#3c15d8; stroke-width:1; stroke:black; " description="&lt;b&gt;B6N31_RS14995&lt;/b&gt;&lt;br&gt;Fe(3+)-siderophore ABC transporter permease&lt;br&gt;Location: 3406628 - 3407704&lt;br&gt;&lt;br&gt;&lt;b&gt;BlastP hit with MCIC6FC_014027&lt;/b&gt;&lt;br&gt;Percentage identity: 64&lt;br&gt;Percentage coverage: 39&lt;br&gt;BLAST bit score: 374&lt;br&gt;E-value: 3.8e-101" locus_tag="B6N31_RS14995" class="clusterblast-orf" id="dummy-1_h1_9_14"  />
</g>
<g id="a1_0015"  >
<polygon points="223,90 233,90 238,85 233,80 223,80 223,90 " style="fill:#3c15d8; stroke-width:1; stroke:black; " description="&lt;b&gt;B6N31_RS15000&lt;/b&gt;&lt;br&gt;iron-enterobactin ABC transporter permease&lt;br&gt;Location: 3407717 - 3408751&lt;br&gt;&lt;br&gt;&lt;b&gt;BlastP hit with MCIC6FC_014027&lt;/b&gt;&lt;br&gt;Percentage identity: 67&lt;br&gt;Percentage coverage: 35&lt;br&gt;BLAST bit score: 360&lt;br&gt;E-value: 5.7e-97" locus_tag="B6N31_RS15000" class="clusterblast-orf" id="dummy-1_h1_9_15"  />
</g>
<g id="a1_0016"  >
<polygon points="239,90 246,90 251,85 246,80 239,80 239,90 " style="fill:#3c15d8; stroke-width:1; stroke:black; " description="&lt;b&gt;B6N31_RS15005&lt;/b&gt;&lt;br&gt;ABC transporter ATP-binding protein&lt;br&gt;Location: 3408788 - 3409585&lt;br&gt;&lt;br&gt;&lt;b&gt;BlastP hit with MCIC6FC_014027&lt;/b&gt;&lt;br&gt;Percentage identity: 71&lt;br&gt;Percentage coverage: 30&lt;br&gt;BLAST bit score: 358&lt;br&gt;E-value: 1.7e-96" locus_tag="B6N31_RS15005" class="clusterblast-orf" id="dummy-1_h1_9_16"  />
</g>
<g id="a1_0017"  >
<polygon points="256,85 261,80 383,80 383,90 261,90 256,85 " style="fill:#d8158a; stroke-width:1; stroke:black; " description="&lt;b&gt;B6N31_RS15010&lt;/b&gt;&lt;br&gt;amino acid adenylation domain-containing protein&lt;br&gt;Location: 3409966 - 3418509&lt;br&gt;&lt;br&gt;&lt;b&gt;BlastP hit with MCIC6FC_014028&lt;/b&gt;&lt;br&gt;Percentage identity: 54&lt;br&gt;Percentage coverage: 102&lt;br&gt;BLAST bit score: 2604&lt;br&gt;E-value: 0.0" locus_tag="B6N31_RS15010" class="clusterblast-orf" id="dummy-1_h1_9_17"  />
</g>
<g id="a1_0018"  >
<polygon points="384,85 387,80 387,90 384,85 " style="fill:white; stroke-width:1; stroke:black; " description="&lt;b&gt;B6N31_RS15015&lt;/b&gt;&lt;br&gt;MbtH family protein&lt;br&gt;Location: 3418612 - 3418830" locus_tag="B6N31_RS15015" class="clusterblast-orf" id="dummy-1_h1_9_18"  />
</g>
<g id="a1_0019"  >
<polygon points="388,85 393,80 408,80 408,90 393,90 388,85 " style="fill:white; stroke-width:1; stroke:black; " description="&lt;b&gt;B6N31_RS15020&lt;/b&gt;&lt;br&gt;enterochelin esterase&lt;br&gt;Location: 3418890 - 3420197" locus_tag="B6N31_RS15020" class="clusterblast-orf" id="dummy-1_h1_9_19"  />
</g>
<g id="a1_0020"  >
<polygon points="412,90 440,90 445,85 440,80 412,80 412,90 " style="fill:#b1d815; stroke-width:1; stroke:black; " description="&lt;b&gt;B6N31_RS15025&lt;/b&gt;&lt;br&gt;TonB-dependent siderophore receptor&lt;br&gt;Location: 3420511 - 3422718&lt;br&gt;&lt;br&gt;&lt;b&gt;BlastP hit with MCIC6FC_014029&lt;/b&gt;&lt;br&gt;Percentage identity: 49&lt;br&gt;Percentage coverage: 51&lt;br&gt;BLAST bit score: 564&lt;br&gt;E-value: 4e-158" locus_tag="B6N31_RS15025" class="clusterblast-orf" id="dummy-1_h1_9_20"  />
</g>
<g id="a1_0021"  >
<polygon points="446,90 459,90 464,85 459,80 446,80 446,90 " style="fill:white; stroke-width:1; stroke:black; " description="&lt;b&gt;B6N31_RS15030&lt;/b&gt;&lt;br&gt;isochorismate synthase&lt;br&gt;Location: 3422802 - 3423989" locus_tag="B6N31_RS15030" class="clusterblast-orf" id="dummy-1_h1_9_21"  />
</g>
<g id="a1_0022"  >
<polygon points="464,90 483,90 488,85 483,80 464,80 464,90 " style="fill:white; stroke-width:1; stroke:black; " description="&lt;b&gt;B6N31_RS15035&lt;/b&gt;&lt;br&gt;(2,3-dihydroxybenzoyl)adenylate synthase&lt;br&gt;Location: 3423986 - 3425614" locus_tag="B6N31_RS15035" class="clusterblast-orf" id="dummy-1_h1_9_22"  />
</g>
<g id="a1_0023"  >
<polygon points="488,90 496,90 501,85 496,80 488,80 488,90 " style="fill:white; stroke-width:1; stroke:black; " description="&lt;b&gt;B6N31_RS15040&lt;/b&gt;&lt;br&gt;isochorismatase&lt;br&gt;Location: 3425618 - 3426493" locus_tag="B6N31_RS15040" class="clusterblast-orf" id="dummy-1_h1_9_23"  />
</g>
<g id="a1_0024"  >
<polygon points="501,90 507,90 512,85 507,80 501,80 501,90 " style="fill:white; stroke-width:1; stroke:black; " description="&lt;b&gt;B6N31_RS15045&lt;/b&gt;&lt;br&gt;2,3-dihydro-2,3-dihydroxybenzoate dehydrogenase&lt;br&gt;Location: 3426490 - 3427248" locus_tag="B6N31_RS15045" class="clusterblast-orf" id="dummy-1_h1_9_24"  />
</g>
<g id="a1_0025"  >
<polygon points="512,90 513,90 518,85 513,80 512,80 512,90 " style="fill:white; stroke-width:1; stroke:black; " description="&lt;b&gt;B6N31_RS15050&lt;/b&gt;&lt;br&gt;hotdog fold thioesterase&lt;br&gt;Location: 3427272 - 3427688" locus_tag="B6N31_RS15050" class="clusterblast-orf" id="dummy-1_h1_9_25"  />
</g>
<g id="a1_0026"  >
<polygon points="524,85 529,80 540,80 540,90 529,90 524,85 " style="fill:white; stroke-width:1; stroke:black; " description="&lt;b&gt;B6N31_RS15060&lt;/b&gt;&lt;br&gt;alkene reductase&lt;br&gt;Location: 3428065 - 3429123" locus_tag="B6N31_RS15060" class="clusterblast-orf" id="dummy-1_h1_9_26"  />
</g>
<g id="a1_0027"  >
<polygon points="544,85 549,80 553,80 553,90 549,90 544,85 " style="fill:white; stroke-width:1; stroke:black; " description="&lt;b&gt;B6N31_RS15065&lt;/b&gt;&lt;br&gt;alpha/beta hydrolase&lt;br&gt;Location: 3429439 - 3430011" locus_tag="B6N31_RS15065" class="clusterblast-orf" id="dummy-1_h1_9_27"  />
</g>
<g id="a1_0028"  >
<polygon points="557,85 562,80 565,80 565,90 562,90 557,85 " style="fill:white; stroke-width:1; stroke:black; " description="&lt;b&gt;B6N31_RS15070&lt;/b&gt;&lt;br&gt;YbaK/prolyl-tRNA synthetase associated domain-containing protein&lt;br&gt;Location: 3430331 - 3430825" locus_tag="B6N31_RS15070" class="clusterblast-orf" id="dummy-1_h1_9_28"  />
</g>
<g id="a1_0029"  >
<polygon points="569,90 570,85 569,80 569,90 " style="fill:white; stroke-width:1; stroke:black; " description="&lt;b&gt;B6N31_RS15075&lt;/b&gt;&lt;br&gt;membrane protein YpdK&lt;br&gt;Location: 3431096 - 3431170" locus_tag="B6N31_RS15075" class="clusterblast-orf" id="dummy-1_h1_9_29"  />
</g>
<g id="a1_0030"  >
<polygon points="572,85 577,80 585,80 585,90 577,90 572,85 " style="fill:white; stroke-width:1; stroke:black; " description="&lt;b&gt;B6N31_RS15080&lt;/b&gt;&lt;br&gt;prepilin peptidase&lt;br&gt;Location: 3431348 - 3432199" locus_tag="B6N31_RS15080" class="clusterblast-orf" id="dummy-1_h1_9_30"  />
</g>
<g id="a1_0031"  >
<polygon points="588,85 593,80 595,80 595,90 593,90 588,85 " style="fill:white; stroke-width:1; stroke:black; " description="&lt;b&gt;B6N31_RS15085&lt;/b&gt;&lt;br&gt;type II secretion system protein M&lt;br&gt;Location: 3432380 - 3432868" locus_tag="B6N31_RS15085" class="clusterblast-orf" id="dummy-1_h1_9_31"  />
</g>
<g id="a1_0032"  >
<polygon points="595,85 600,80 613,80 613,90 600,90 595,85 " style="fill:white; stroke-width:1; stroke:black; " description="&lt;b&gt;B6N31_RS15090&lt;/b&gt;&lt;br&gt;type II secretion system protein GspL&lt;br&gt;Location: 3432865 - 3434067" locus_tag="B6N31_RS15090" class="clusterblast-orf" id="dummy-1_h1_9_32"  />
</g>
<g id="a1_0033"  >
<polygon points="613,85 618,80 628,80 628,90 618,90 613,85 " style="fill:white; stroke-width:1; stroke:black; " description="&lt;b&gt;B6N31_RS15095&lt;/b&gt;&lt;br&gt;type II secretion system minor pseudopilin GspK&lt;br&gt;Location: 3434064 - 3435140" locus_tag="B6N31_RS15095" class="clusterblast-orf" id="dummy-1_h1_9_33"  />
</g>
<g id="a1_0034"  >
<polygon points="628,85 633,80 639,80 639,90 633,90 628,85 " style="fill:white; stroke-width:1; stroke:black; " description="&lt;b&gt;B6N31_RS15100&lt;/b&gt;&lt;br&gt;type II secretion system minor pseudopilin GspJ&lt;br&gt;Location: 3435137 - 3435877" locus_tag="B6N31_RS15100" class="clusterblast-orf" id="dummy-1_h1_9_34"  />
</g>
<g id="a1_0035"  >
<polygon points="639,85 644,80 645,80 645,90 644,90 639,85 " style="fill:white; stroke-width:1; stroke:black; " description="&lt;b&gt;B6N31_RS15105&lt;/b&gt;&lt;br&gt;type II secretion system minor pseudopilin GspI&lt;br&gt;Location: 3435874 - 3436251" locus_tag="B6N31_RS15105" class="clusterblast-orf" id="dummy-1_h1_9_35"  />
</g>
<g id="a1_0036"  >
<polygon points="645,85 650,80 653,80 653,90 650,90 645,85 " style="fill:white; stroke-width:1; stroke:black; " description="&lt;b&gt;B6N31_RS15110&lt;/b&gt;&lt;br&gt;type II secretion system minor pseudopilin GspH&lt;br&gt;Location: 3436255 - 3436794" locus_tag="B6N31_RS15110" class="clusterblast-orf" id="dummy-1_h1_9_36"  />
</g>
<g id="a1_0037"  >
<polygon points="653,85 658,80 660,80 660,90 658,90 653,85 " style="fill:white; stroke-width:1; stroke:black; " description="&lt;b&gt;B6N31_RS15115&lt;/b&gt;&lt;br&gt;type II secretion system major pseudopilin GspG&lt;br&gt;Location: 3436797 - 3437258" locus_tag="B6N31_RS15115" class="clusterblast-orf" id="dummy-1_h1_9_37"  />
</g>
<g id="a1_0038"  >
<polygon points="660,85 665,80 678,80 678,90 665,90 660,85 " style="fill:white; stroke-width:1; stroke:black; " description="&lt;b&gt;B6N31_RS15120&lt;/b&gt;&lt;br&gt;type II secretion system inner membrane protein GspF&lt;br&gt;Location: 3437293 - 3438519" locus_tag="B6N31_RS15120" class="clusterblast-orf" id="dummy-1_h1_9_38"  />
</g>
<g id="a1_0039"  >
<polygon points="678,85 683,80 701,80 701,90 683,90 678,85 " style="fill:white; stroke-width:1; stroke:black; " description="&lt;b&gt;B6N31_RS15125&lt;/b&gt;&lt;br&gt;type II secretion system ATPase GspE&lt;br&gt;Location: 3438521 - 3440017" locus_tag="B6N31_RS15125" class="clusterblast-orf" id="dummy-1_h1_9_39"  />
</g>
<g id="a1_0040"  >
<polygon points="700,85 705,80 732,80 732,90 705,90 700,85 " style="fill:white; stroke-width:1; stroke:black; " description="&lt;b&gt;B6N31_RS15130&lt;/b&gt;&lt;br&gt;type II secretion system secretin GspD&lt;br&gt;Location: 3440014 - 3442143" locus_tag="B6N31_RS15130" class="clusterblast-orf" id="dummy-1_h1_9_40"  />
</g>
<g id="a1_0041"  >
<polygon points="732,85 737,80 744,80 744,90 737,90 732,85 " style="fill:white; stroke-width:1; stroke:black; " description="&lt;b&gt;B6N31_RS15135&lt;/b&gt;&lt;br&gt;type II secretion system protein GspC&lt;br&gt;Location: 3442145 - 3442963" locus_tag="B6N31_RS15135" class="clusterblast-orf" id="dummy-1_h1_9_41"  />
</g>
<g id="a1_0042"  >
<polygon points="757,85 762,80 762,80 762,90 762,90 757,85 " style="fill:white; stroke-width:1; stroke:black; " description="&lt;b&gt;B6N31_RS15145&lt;/b&gt;&lt;br&gt;hypothetical protein&lt;br&gt;Location: 3443843 - 3444169" locus_tag="B6N31_RS15145" class="clusterblast-orf" id="dummy-1_h1_9_42"  />
</g>
<g id="a1_0043"  >
<polygon points="764,90 768,90 773,85 768,80 764,80 764,90 " style="fill:white; stroke-width:1; stroke:black; " description="&lt;b&gt;B6N31_RS15150&lt;/b&gt;&lt;br&gt;type II secretion system assembly factor GspB&lt;br&gt;Location: 3444305 - 3444925" locus_tag="B6N31_RS15150" class="clusterblast-orf" id="dummy-1_h1_9_43"  />
</g>
<g id="a1_0044"  >
<polygon points="774,85 779,80 780,80 780,90 779,90 774,85 " style="fill:white; stroke-width:1; stroke:black; " description="&lt;b&gt;B6N31_RS15155&lt;/b&gt;&lt;br&gt;GspS family T2SS pilot lipoprotein variant OutS&lt;br&gt;Location: 3444960 - 3445361" locus_tag="B6N31_RS15155" class="clusterblast-orf" id="dummy-1_h1_9_44"  />
</g>
</svg>
