<svg xmlns="http://www.w3.org/2000/svg" xmlns:xlink="http://www.w3.org/1999/xlink" version="1.1" x="0" y="0" height="230" width="800" viewBox="0 0 800 230" preserveAspectRatio="none"  >
<g label="Query sequence" class="clusterblast-cluster"  >
<text x="5" y="20" class="clusterblast-acc"  >
Query sequence</text>
<line x1="10" y1="35" x2="778.0" y2="35" style="stroke-width:1; stroke:grey; "  />
<polygon points="123,40 367,40 372,35 367,30 123,30 123,40 " style="fill:#d81515; stroke-width:1; stroke:black; " description="&lt;b&gt;MCIC6FC_020661&lt;/b&gt;&lt;br&gt;hypothetical protein&lt;br&gt;Location: 29 - 16470" locus_tag="MCIC6FC_020661" class="clusterblast-orf" id="dummy-1_q0_0_all"  />
<polygon points="372,35 377,30 422,30 422,40 377,40 372,35 " style="fill:#5cd815; stroke-width:1; stroke:black; " description="&lt;b&gt;MCIC6FC_020662&lt;/b&gt;&lt;br&gt;hypothetical protein&lt;br&gt;Location: 16511 - 19820" locus_tag="MCIC6FC_020662" class="clusterblast-orf" id="dummy-1_q1_0_all"  />
<polygon points="425,40 450,40 455,35 450,30 425,30 425,40 " style="fill:#15a3d8; stroke-width:1; stroke:black; " description="&lt;b&gt;MCIC6FC_020663&lt;/b&gt;&lt;br&gt;hypothetical protein&lt;br&gt;Location: 19984 - 21984" locus_tag="MCIC6FC_020663" class="clusterblast-orf" id="dummy-1_q2_0_all"  />
<polygon points="457,40 487,40 492,35 487,30 457,30 457,40 " style="fill:#c715d8; stroke-width:1; stroke:black; " description="&lt;b&gt;MCIC6FC_020664&lt;/b&gt;&lt;br&gt;hypothetical protein&lt;br&gt;Location: 22108 - 24458" locus_tag="MCIC6FC_020664" class="clusterblast-orf" id="dummy-1_q3_0_all"  />
<polygon points="493,40 497,35 493,30 493,40 " style="fill:#d88015; stroke-width:1; stroke:black; " description="&lt;b&gt;MCIC6FC_020665&lt;/b&gt;&lt;br&gt;hypothetical protein&lt;br&gt;Location: 24527 - 24765" locus_tag="MCIC6FC_020665" class="clusterblast-orf" id="dummy-1_q4_0_all"  />
<polygon points="498,35 503,30 534,30 534,40 503,40 498,35 " style="fill:#15d839; stroke-width:1; stroke:black; " description="&lt;b&gt;MCIC6FC_020666&lt;/b&gt;&lt;br&gt;hypothetical protein&lt;br&gt;Location: 24844 - 27235" locus_tag="MCIC6FC_020666" class="clusterblast-orf" id="dummy-1_q5_0_all"  />
<polygon points="537,35 542,30 557,30 557,40 542,40 537,35 " style="fill:#1539d8; stroke-width:1; stroke:black; " description="&lt;b&gt;MCIC6FC_020667&lt;/b&gt;&lt;br&gt;hypothetical protein&lt;br&gt;Location: 27428 - 28718" locus_tag="MCIC6FC_020667" class="clusterblast-orf" id="dummy-1_q6_0_all"  />
<polygon points="560,35 565,30 569,30 569,40 565,40 560,35 " style="fill:#d81580; stroke-width:1; stroke:black; " description="&lt;b&gt;MCIC6FC_020668&lt;/b&gt;&lt;br&gt;hypothetical protein&lt;br&gt;Location: 28904 - 29540" locus_tag="MCIC6FC_020668" class="clusterblast-orf" id="dummy-1_q7_0_all"  />
<polygon points="571,35 576,30 601,30 601,40 576,40 571,35 " style="fill:#c7d815; stroke-width:1; stroke:black; " description="&lt;b&gt;MCIC6FC_020669&lt;/b&gt;&lt;br&gt;hypothetical protein&lt;br&gt;Location: 29635 - 31644" locus_tag="MCIC6FC_020669" class="clusterblast-orf" id="dummy-1_q8_0_all"  />
<polygon points="603,40 630,40 635,35 630,30 603,30 603,40 " style="fill:#15d8a3; stroke-width:1; stroke:black; " description="&lt;b&gt;MCIC6FC_020670&lt;/b&gt;&lt;br&gt;hypothetical protein&lt;br&gt;Location: 31763 - 33859" locus_tag="MCIC6FC_020670" class="clusterblast-orf" id="dummy-1_q9_0_all"  />
<polygon points="644,35 649,30 656,30 656,40 649,40 644,35 " style="fill:#5c15d8; stroke-width:1; stroke:black; " description="&lt;b&gt;MCIC6FC_020671&lt;/b&gt;&lt;br&gt;hypothetical protein&lt;br&gt;Location: 34504 - 35290" locus_tag="MCIC6FC_020671" class="clusterblast-orf" id="dummy-1_q10_0_all"  />
</g>
<g label="NZ_CP015639" description="NZ_CP015639 (4113933-4166815): Pseudomonas lurida strain L228 chromosome, com... (45% of genes show similarity), NRPS" class="clusterblast-cluster"  >
<text x="5" y="70" class="clusterblast-acc"  >
<a xlink:href="https://antismash-db.secondarymetabolites.org/area.html?record=NZ_CP015639&amp;start=4113933&amp;end=4166815" target="_blank">NZ_CP015639 (4113933-4166815)</a>: Pseudomonas lurida strain L228 chromosome, com... (45% of genes show similarity), NRPS</text>
<line x1="10" y1="85" x2="778.0" y2="85" style="stroke-width:1; stroke:grey; "  />
</g>
<g id="a1_000"  >
<polygon points="0,90 2,90 7,85 2,80 0,80 0,90 " style="fill:white; stroke-width:1; stroke:black; " description="&lt;b&gt;A7318_RS18775&lt;/b&gt;&lt;br&gt;chemotaxis protein CheW&lt;br&gt;Location: 4166810 - 4166328" locus_tag="A7318_RS18775" class="clusterblast-orf" id="dummy-1_h1_6_0"  />
</g>
<g id="a1_001"  >
<polygon points="7,90 8,90 13,85 8,80 7,80 7,90 " style="fill:white; stroke-width:1; stroke:black; " description="&lt;b&gt;A7318_RS18770&lt;/b&gt;&lt;br&gt;DUF2802 domain-containing protein&lt;br&gt;Location: 4166327 - 4165935" locus_tag="A7318_RS18770" class="clusterblast-orf" id="dummy-1_h1_6_1"  />
</g>
<g id="a1_002"  >
<polygon points="23,90 32,90 37,85 32,80 23,80 23,90 " style="fill:white; stroke-width:1; stroke:black; " description="&lt;b&gt;A7318_RS18765&lt;/b&gt;&lt;br&gt;lipid kinase YegS&lt;br&gt;Location: 4165239 - 4164319" locus_tag="A7318_RS18765" class="clusterblast-orf" id="dummy-1_h1_6_2"  />
</g>
<g id="a1_003"  >
<polygon points="37,85 42,80 47,80 47,90 42,90 37,85 " style="fill:white; stroke-width:1; stroke:black; " description="&lt;b&gt;A7318_RS18760&lt;/b&gt;&lt;br&gt;response regulator transcription factor&lt;br&gt;Location: 4164360 - 4163701" locus_tag="A7318_RS18760" class="clusterblast-orf" id="dummy-1_h1_6_3"  />
</g>
<g id="a1_004"  >
<polygon points="46,85 51,80 60,80 60,90 51,90 46,85 " style="fill:white; stroke-width:1; stroke:black; " description="&lt;b&gt;A7318_RS18755&lt;/b&gt;&lt;br&gt;sensor histidine kinase&lt;br&gt;Location: 4163704 - 4162811" locus_tag="A7318_RS18755" class="clusterblast-orf" id="dummy-1_h1_6_4"  />
</g>
<g id="a1_005"  >
<polygon points="66,85 71,80 72,80 72,90 71,90 66,85 " style="fill:white; stroke-width:1; stroke:black; " description="&lt;b&gt;A7318_RS18750&lt;/b&gt;&lt;br&gt;hypothetical protein&lt;br&gt;Location: 4162440 - 4161991" locus_tag="A7318_RS18750" class="clusterblast-orf" id="dummy-1_h1_6_5"  />
</g>
<g id="a1_006"  >
<polygon points="81,90 90,90 95,85 90,80 81,80 81,90 " style="fill:white; stroke-width:1; stroke:black; " description="&lt;b&gt;A7318_RS18745&lt;/b&gt;&lt;br&gt;chemotaxis protein CheV&lt;br&gt;Location: 4161450 - 4160515" locus_tag="A7318_RS18745" class="clusterblast-orf" id="dummy-1_h1_6_6"  />
</g>
<g id="a1_007"  >
<polygon points="95,90 102,90 107,85 102,80 95,80 95,90 " style="fill:white; stroke-width:1; stroke:black; " description="&lt;b&gt;A7318_RS18740&lt;/b&gt;&lt;br&gt;MOSC domain-containing protein&lt;br&gt;Location: 4160475 - 4159669" locus_tag="A7318_RS18740" class="clusterblast-orf" id="dummy-1_h1_6_7"  />
</g>
<g id="a1_008"  >
<polygon points="108,85 113,80 113,80 113,90 113,90 108,85 " style="fill:white; stroke-width:1; stroke:black; " description="&lt;b&gt;A7318_RS18735&lt;/b&gt;&lt;br&gt;pyrimidine/purine nucleoside phosphorylase&lt;br&gt;Location: 4159602 - 4159318" locus_tag="A7318_RS18735" class="clusterblast-orf" id="dummy-1_h1_6_8"  />
</g>
<g id="a1_009"  >
<polygon points="115,85 120,80 123,80 123,90 120,90 115,85 " style="fill:white; stroke-width:1; stroke:black; " description="&lt;b&gt;A7318_RS18730&lt;/b&gt;&lt;br&gt;exonuclease&lt;br&gt;Location: 4159193 - 4158651" locus_tag="A7318_RS18730" class="clusterblast-orf" id="dummy-1_h1_6_9"  />
</g>
<g id="a1_0010"  >
<polygon points="124,85 129,80 152,80 152,90 129,90 124,85 " style="fill:white; stroke-width:1; stroke:black; " description="&lt;b&gt;A7318_RS18725&lt;/b&gt;&lt;br&gt;acetyl/propionyl/methylcrotonyl-CoA carboxylase subunit alpha&lt;br&gt;Location: 4158578 - 4156695" locus_tag="A7318_RS18725" class="clusterblast-orf" id="dummy-1_h1_6_10"  />
</g>
<g id="a1_0011"  >
<polygon points="155,85 160,80 167,80 167,90 160,90 155,85 " style="fill:white; stroke-width:1; stroke:black; " description="&lt;b&gt;A7318_RS18720&lt;/b&gt;&lt;br&gt;enoyl-CoA hydratase/isomerase family protein&lt;br&gt;Location: 4156510 - 4155749" locus_tag="A7318_RS18720" class="clusterblast-orf" id="dummy-1_h1_6_11"  />
</g>
<g id="a1_0012"  >
<polygon points="167,85 172,80 184,80 184,90 172,90 167,85 " style="fill:white; stroke-width:1; stroke:black; " description="&lt;b&gt;A7318_RS18715&lt;/b&gt;&lt;br&gt;acyl-CoA dehydrogenase family protein&lt;br&gt;Location: 4155752 - 4154595" locus_tag="A7318_RS18715" class="clusterblast-orf" id="dummy-1_h1_6_12"  />
</g>
<g id="a1_0013"  >
<polygon points="184,85 189,80 209,80 209,90 189,90 184,85 " style="fill:white; stroke-width:1; stroke:black; " description="&lt;b&gt;A7318_RS18710&lt;/b&gt;&lt;br&gt;acyl-CoA carboxylase subunit beta&lt;br&gt;Location: 4154578 - 4152962" locus_tag="A7318_RS18710" class="clusterblast-orf" id="dummy-1_h1_6_13"  />
</g>
<g id="a1_0014"  >
<polygon points="209,85 214,80 222,80 222,90 214,90 209,85 " style="fill:white; stroke-width:1; stroke:black; " description="&lt;b&gt;A7318_RS18705&lt;/b&gt;&lt;br&gt;SDR family oxidoreductase&lt;br&gt;Location: 4152958 - 4152086" locus_tag="A7318_RS18705" class="clusterblast-orf" id="dummy-1_h1_6_14"  />
</g>
<g id="a1_0015"  >
<polygon points="222,85 227,80 249,80 249,90 227,90 222,85 " style="fill:white; stroke-width:1; stroke:black; " description="&lt;b&gt;A7318_RS18700&lt;/b&gt;&lt;br&gt;DUF1446 domain-containing protein&lt;br&gt;Location: 4152072 - 4150294" locus_tag="A7318_RS18700" class="clusterblast-orf" id="dummy-1_h1_6_15"  />
</g>
<g id="a1_0016"  >
<polygon points="252,90 256,90 261,85 256,80 252,80 252,90 " style="fill:white; stroke-width:1; stroke:black; " description="&lt;b&gt;A7318_RS18695&lt;/b&gt;&lt;br&gt;TetR family transcriptional regulator&lt;br&gt;Location: 4150140 - 4149517" locus_tag="A7318_RS18695" class="clusterblast-orf" id="dummy-1_h1_6_16"  />
</g>
<g id="a1_0017"  >
<polygon points="262,90 269,90 274,85 269,80 262,80 262,90 " style="fill:white; stroke-width:1; stroke:black; " description="&lt;b&gt;A7318_RS18690&lt;/b&gt;&lt;br&gt;transporter substrate-binding domain-containing protein&lt;br&gt;Location: 4149422 - 4148634" locus_tag="A7318_RS18690" class="clusterblast-orf" id="dummy-1_h1_6_17"  />
</g>
<g id="a1_0018"  >
<polygon points="277,85 282,80 285,80 285,90 282,90 277,85 " style="fill:white; stroke-width:1; stroke:black; " description="&lt;b&gt;A7318_RS18685&lt;/b&gt;&lt;br&gt;RNA polymerase factor sigma-70&lt;br&gt;Location: 4148473 - 4147922" locus_tag="A7318_RS18685" class="clusterblast-orf" id="dummy-1_h1_6_18"  />
</g>
<g id="a1_0019"  >
<polygon points="290,90 296,90 301,85 296,80 290,80 290,90 " style="fill:white; stroke-width:1; stroke:black; " description="&lt;b&gt;A7318_RS18680&lt;/b&gt;&lt;br&gt;thioesterase&lt;br&gt;Location: 4147619 - 4146867" locus_tag="A7318_RS18680" class="clusterblast-orf" id="dummy-1_h1_6_19"  />
</g>
<g id="a1_0020"  >
<polygon points="302,90 492,90 497,85 492,80 302,80 302,90 " style="fill:#d81515; stroke-width:1; stroke:black; " description="&lt;b&gt;A7318_RS18675&lt;/b&gt;&lt;br&gt;non-ribosomal peptide synthetase&lt;br&gt;Location: 4146815 - 4133934&lt;br&gt;&lt;br&gt;&lt;b&gt;BlastP hit with MCIC6FC_020661&lt;/b&gt;&lt;br&gt;Percentage identity: 97&lt;br&gt;Percentage coverage: 63&lt;br&gt;BLAST bit score: 6377&lt;br&gt;E-value: 0.0" locus_tag="A7318_RS18675" class="clusterblast-orf" id="dummy-1_h1_6_20"  />
</g>
<g id="a1_0021"  >
<polygon points="499,85 504,80 510,80 510,90 504,90 499,85 " style="fill:#5cd815; stroke-width:1; stroke:black; " description="&lt;b&gt;A7318_RS18670&lt;/b&gt;&lt;br&gt;thiol:disulfide interchange protein DsbG&lt;br&gt;Location: 4133798 - 4133037&lt;br&gt;&lt;br&gt;&lt;b&gt;BlastP hit with MCIC6FC_020662&lt;/b&gt;&lt;br&gt;Percentage identity: 85&lt;br&gt;Percentage coverage: 25&lt;br&gt;BLAST bit score: 418&lt;br&gt;E-value: 1.6e-114" locus_tag="A7318_RS18670" class="clusterblast-orf" id="dummy-1_h1_6_21"  />
</g>
<g id="a1_0022"  >
<polygon points="510,85 515,80 523,80 523,90 515,90 510,85 " style="fill:#5cd815; stroke-width:1; stroke:black; " description="&lt;b&gt;A7318_RS18665&lt;/b&gt;&lt;br&gt;TlpA family protein disulfide reductase&lt;br&gt;Location: 4133061 - 4132216&lt;br&gt;&lt;br&gt;&lt;b&gt;BlastP hit with MCIC6FC_020662&lt;/b&gt;&lt;br&gt;Percentage identity: 98&lt;br&gt;Percentage coverage: 23&lt;br&gt;BLAST bit score: 457&lt;br&gt;E-value: 3.1e-126" locus_tag="A7318_RS18665" class="clusterblast-orf" id="dummy-1_h1_6_22"  />
</g>
<g id="a1_0023"  >
<polygon points="523,85 528,80 549,80 549,90 528,90 523,85 " style="fill:#5cd815; stroke-width:1; stroke:black; " description="&lt;b&gt;A7318_RS18660&lt;/b&gt;&lt;br&gt;protein-disulfide reductase DsbD&lt;br&gt;Location: 4132216 - 4130492&lt;br&gt;&lt;br&gt;&lt;b&gt;BlastP hit with MCIC6FC_020662&lt;/b&gt;&lt;br&gt;Percentage identity: 98&lt;br&gt;Percentage coverage: 53&lt;br&gt;BLAST bit score: 1022&lt;br&gt;E-value: 3.1e-296" locus_tag="A7318_RS18660" class="clusterblast-orf" id="dummy-1_h1_6_23"  />
</g>
<g id="a1_0024"  >
<polygon points="551,90 556,90 561,85 556,80 551,80 551,90 " style="fill:#15a3d8; stroke-width:1; stroke:black; " description="&lt;b&gt;A7318_RS18655&lt;/b&gt;&lt;br&gt;response regulator&lt;br&gt;Location: 4130327 - 4129647&lt;br&gt;&lt;br&gt;&lt;b&gt;BlastP hit with MCIC6FC_020663&lt;/b&gt;&lt;br&gt;Percentage identity: 93&lt;br&gt;Percentage coverage: 34&lt;br&gt;BLAST bit score: 378&lt;br&gt;E-value: 1.5e-102" locus_tag="A7318_RS18655" class="clusterblast-orf" id="dummy-1_h1_6_24"  />
</g>
<g id="a1_0025"  >
<polygon points="561,90 576,90 581,85 576,80 561,80 561,90 " style="fill:#15a3d8; stroke-width:1; stroke:black; " description="&lt;b&gt;A7318_RS18650&lt;/b&gt;&lt;br&gt;two-component sensor histidine kinase&lt;br&gt;Location: 4129650 - 4128328&lt;br&gt;&lt;br&gt;&lt;b&gt;BlastP hit with MCIC6FC_020663&lt;/b&gt;&lt;br&gt;Percentage identity: 97&lt;br&gt;Percentage coverage: 69&lt;br&gt;BLAST bit score: 807&lt;br&gt;E-value: 9.8e-232" locus_tag="A7318_RS18650" class="clusterblast-orf" id="dummy-1_h1_6_25"  />
</g>
<g id="a1_0026"  >
<polygon points="583,90 590,90 595,85 590,80 583,80 583,90 " style="fill:#c715d8; stroke-width:1; stroke:black; " description="&lt;b&gt;A7318_RS18645&lt;/b&gt;&lt;br&gt;N-acetylmuramoyl-L-alanine amidase&lt;br&gt;Location: 4128203 - 4127436&lt;br&gt;&lt;br&gt;&lt;b&gt;BlastP hit with MCIC6FC_020664&lt;/b&gt;&lt;br&gt;Percentage identity: 92&lt;br&gt;Percentage coverage: 34&lt;br&gt;BLAST bit score: 500&lt;br&gt;E-value: 4e-139" locus_tag="A7318_RS18645" class="clusterblast-orf" id="dummy-1_h1_6_26"  />
</g>
<g id="a1_0027"  >
<polygon points="598,90 614,90 619,85 614,80 598,80 598,90 " style="fill:#c715d8; stroke-width:1; stroke:black; " description="&lt;b&gt;A7318_RS18640&lt;/b&gt;&lt;br&gt;aspartate aminotransferase family protein&lt;br&gt;Location: 4127247 - 4125853&lt;br&gt;&lt;br&gt;&lt;b&gt;BlastP hit with MCIC6FC_020664&lt;/b&gt;&lt;br&gt;Percentage identity: 99&lt;br&gt;Percentage coverage: 62&lt;br&gt;BLAST bit score: 913&lt;br&gt;E-value: 2e-263" locus_tag="A7318_RS18640" class="clusterblast-orf" id="dummy-1_h1_6_27"  />
</g>
<g id="a1_0028"  >
<polygon points="620,90 623,85 620,80 620,90 " style="fill:#d88015; stroke-width:1; stroke:black; " description="&lt;b&gt;A7318_RS18635&lt;/b&gt;&lt;br&gt;MbtH family protein&lt;br&gt;Location: 4125770 - 4125546&lt;br&gt;&lt;br&gt;&lt;b&gt;BlastP hit with MCIC6FC_020665&lt;/b&gt;&lt;br&gt;Percentage identity: 97&lt;br&gt;Percentage coverage: 95&lt;br&gt;BLAST bit score: 131&lt;br&gt;E-value: 4.1e-29" locus_tag="A7318_RS18635" class="clusterblast-orf" id="dummy-1_h1_6_28"  />
</g>
<g id="a1_0029"  >
<polygon points="625,85 630,80 657,80 657,90 630,90 625,85 " style="fill:#15d839; stroke-width:1; stroke:black; " description="&lt;b&gt;A7318_RS18630&lt;/b&gt;&lt;br&gt;mechanosensitive ion channel family protein&lt;br&gt;Location: 4125466 - 4123298&lt;br&gt;&lt;br&gt;&lt;b&gt;BlastP hit with MCIC6FC_020666&lt;/b&gt;&lt;br&gt;Percentage identity: 94&lt;br&gt;Percentage coverage: 97&lt;br&gt;BLAST bit score: 1283&lt;br&gt;E-value: 0.0" locus_tag="A7318_RS18630" class="clusterblast-orf" id="dummy-1_h1_6_29"  />
</g>
<g id="a1_0030"  >
<polygon points="658,85 661,80 661,90 658,85 " style="fill:white; stroke-width:1; stroke:black; " description="&lt;b&gt;A7318_RS29830&lt;/b&gt;&lt;br&gt;hypothetical protein&lt;br&gt;Location: 4123245 - 4123069" locus_tag="A7318_RS29830" class="clusterblast-orf" id="dummy-1_h1_6_30"  />
</g>
<g id="a1_0031"  >
<polygon points="664,85 669,80 683,80 683,90 669,90 664,85 " style="fill:#1539d8; stroke-width:1; stroke:black; " description="&lt;b&gt;A7318_RS18625&lt;/b&gt;&lt;br&gt;M18 family aminopeptidase&lt;br&gt;Location: 4122883 - 4121594&lt;br&gt;&lt;br&gt;&lt;b&gt;BlastP hit with MCIC6FC_020667&lt;/b&gt;&lt;br&gt;Percentage identity: 100&lt;br&gt;Percentage coverage: 100&lt;br&gt;BLAST bit score: 879&lt;br&gt;E-value: 1.8e-253" locus_tag="A7318_RS18625" class="clusterblast-orf" id="dummy-1_h1_6_31"  />
</g>
<g id="a1_0032"  >
<polygon points="686,85 691,80 696,80 696,90 691,90 686,85 " style="fill:#d81580; stroke-width:1; stroke:black; " description="&lt;b&gt;A7318_RS18620&lt;/b&gt;&lt;br&gt;RluA family pseudouridine synthase&lt;br&gt;Location: 4121407 - 4120772&lt;br&gt;&lt;br&gt;&lt;b&gt;BlastP hit with MCIC6FC_020668&lt;/b&gt;&lt;br&gt;Percentage identity: 100&lt;br&gt;Percentage coverage: 100&lt;br&gt;BLAST bit score: 452&lt;br&gt;E-value: 2e-125" locus_tag="A7318_RS18620" class="clusterblast-orf" id="dummy-1_h1_6_32"  />
</g>
<g id="a1_0033"  >
<polygon points="697,85 701,80 701,90 697,85 " style="fill:#c7d815; stroke-width:1; stroke:black; " description="&lt;b&gt;A7318_RS18615&lt;/b&gt;&lt;br&gt;cell division topological specificity factor MinE&lt;br&gt;Location: 4120675 - 4120421&lt;br&gt;&lt;br&gt;&lt;b&gt;BlastP hit with MCIC6FC_020669&lt;/b&gt;&lt;br&gt;Percentage identity: 100&lt;br&gt;Percentage coverage: 12&lt;br&gt;BLAST bit score: 134&lt;br&gt;E-value: 3.1e-29" locus_tag="A7318_RS18615" class="clusterblast-orf" id="dummy-1_h1_6_33"  />
</g>
<g id="a1_0034"  >
<polygon points="701,85 706,80 713,80 713,90 706,90 701,85 " style="fill:#c7d815; stroke-width:1; stroke:black; " description="&lt;b&gt;A7318_RS18610&lt;/b&gt;&lt;br&gt;septum site-determining protein MinD&lt;br&gt;Location: 4120417 - 4119605&lt;br&gt;&lt;br&gt;&lt;b&gt;BlastP hit with MCIC6FC_020669&lt;/b&gt;&lt;br&gt;Percentage identity: 100&lt;br&gt;Percentage coverage: 49&lt;br&gt;BLAST bit score: 503&lt;br&gt;E-value: 3.3e-140" locus_tag="A7318_RS18610" class="clusterblast-orf" id="dummy-1_h1_6_34"  />
</g>
<g id="a1_0035"  >
<polygon points="716,85 721,80 727,80 727,90 721,90 716,85 " style="fill:#c7d815; stroke-width:1; stroke:black; " description="&lt;b&gt;A7318_RS18605&lt;/b&gt;&lt;br&gt;septum site-determining protein MinC&lt;br&gt;Location: 4119405 - 4118668&lt;br&gt;&lt;br&gt;&lt;b&gt;BlastP hit with MCIC6FC_020669&lt;/b&gt;&lt;br&gt;Percentage identity: 80&lt;br&gt;Percentage coverage: 45&lt;br&gt;BLAST bit score: 349&lt;br&gt;E-value: 8.1e-94" locus_tag="A7318_RS18605" class="clusterblast-orf" id="dummy-1_h1_6_35"  />
</g>
<g id="a1_0036"  >
<polygon points="729,90 738,90 743,85 738,80 729,80 729,90 " style="fill:#15d8a3; stroke-width:1; stroke:black; " description="&lt;b&gt;A7318_RS18600&lt;/b&gt;&lt;br&gt;lipid A biosynthesis lauroyl acyltransferase&lt;br&gt;Location: 4118548 - 4117616&lt;br&gt;&lt;br&gt;&lt;b&gt;BlastP hit with MCIC6FC_020670&lt;/b&gt;&lt;br&gt;Percentage identity: 99&lt;br&gt;Percentage coverage: 45&lt;br&gt;BLAST bit score: 610&lt;br&gt;E-value: 2.4e-172" locus_tag="A7318_RS18600" class="clusterblast-orf" id="dummy-1_h1_6_36"  />
</g>
<g id="a1_0037"  >
<polygon points="744,90 756,90 761,85 756,80 744,80 744,90 " style="fill:#15d8a3; stroke-width:1; stroke:black; " description="&lt;b&gt;A7318_RS18595&lt;/b&gt;&lt;br&gt;patatin-like phospholipase family protein&lt;br&gt;Location: 4117583 - 4116453&lt;br&gt;&lt;br&gt;&lt;b&gt;BlastP hit with MCIC6FC_020670&lt;/b&gt;&lt;br&gt;Percentage identity: 98&lt;br&gt;Percentage coverage: 55&lt;br&gt;BLAST bit score: 707&lt;br&gt;E-value: 1.1e-201" locus_tag="A7318_RS18595" class="clusterblast-orf" id="dummy-1_h1_6_37"  />
</g>
<g id="a1_0038"  >
<polygon points="762,85 767,80 774,80 774,90 767,90 762,85 " style="fill:#5c15d8; stroke-width:1; stroke:black; " description="&lt;b&gt;A7318_RS18590&lt;/b&gt;&lt;br&gt;membrane protein&lt;br&gt;Location: 4116404 - 4115619&lt;br&gt;&lt;br&gt;&lt;b&gt;BlastP hit with MCIC6FC_020671&lt;/b&gt;&lt;br&gt;Percentage identity: 100&lt;br&gt;Percentage coverage: 100&lt;br&gt;BLAST bit score: 566&lt;br&gt;E-value: 1.2e-159" locus_tag="A7318_RS18590" class="clusterblast-orf" id="dummy-1_h1_6_38"  />
</g>
<g id="a1_0039"  >
<polygon points="774,85 779,80 780,80 780,90 779,90 774,85 " style="fill:white; stroke-width:1; stroke:black; " description="&lt;b&gt;A7318_RS29575&lt;/b&gt;&lt;br&gt;hypothetical protein&lt;br&gt;Location: 4115595 - 4115227" locus_tag="A7318_RS29575" class="clusterblast-orf" id="dummy-1_h1_6_39"  />
</g>
</svg>
