<svg xmlns="http://www.w3.org/2000/svg" xmlns:xlink="http://www.w3.org/1999/xlink" version="1.1" x="0" y="0" height="230" width="800" viewBox="0 0 800 230" preserveAspectRatio="none"  >
<g label="Query sequence" class="clusterblast-cluster"  >
<text x="5" y="20" class="clusterblast-acc"  >
Query sequence</text>
<line x1="10" y1="35" x2="778.0" y2="35" style="stroke-width:1; stroke:grey; "  />
<polygon points="0,35 5,30 6,30 6,40 5,40 0,35 " style="fill:white; stroke-width:1; stroke:black; " description="&lt;b&gt;MCIC6FC_018480&lt;/b&gt;&lt;br&gt;hypothetical protein&lt;br&gt;Location: 40369 - 41275" locus_tag="MCIC6FC_018480" class="clusterblast-orf" id="dummy-1_q0_0_all"  />
<polygon points="9,40 19,40 24,35 19,30 9,30 9,40 " style="fill:white; stroke-width:1; stroke:black; " description="&lt;b&gt;MCIC6FC_018481&lt;/b&gt;&lt;br&gt;hypothetical protein&lt;br&gt;Location: 41686 - 43743" locus_tag="MCIC6FC_018481" class="clusterblast-orf" id="dummy-1_q1_0_all"  />
<polygon points="25,35 30,30 42,30 42,40 30,40 25,35 " style="fill:#d81515; stroke-width:1; stroke:black; " description="&lt;b&gt;MCIC6FC_018482&lt;/b&gt;&lt;br&gt;hypothetical protein&lt;br&gt;Location: 43880 - 46147" locus_tag="MCIC6FC_018482" class="clusterblast-orf" id="dummy-1_q2_0_all"  />
<polygon points="42,40 44,40 49,35 44,30 42,30 42,40 " style="fill:#54d815; stroke-width:1; stroke:black; " description="&lt;b&gt;MCIC6FC_018483&lt;/b&gt;&lt;br&gt;hypothetical protein&lt;br&gt;Location: 46260 - 47154" locus_tag="MCIC6FC_018483" class="clusterblast-orf" id="dummy-1_q3_0_all"  />
<polygon points="50,35 55,30 67,30 67,40 55,40 50,35 " style="fill:#15c1d8; stroke-width:1; stroke:black; " description="&lt;b&gt;MCIC6FC_018484&lt;/b&gt;&lt;br&gt;hypothetical protein&lt;br&gt;Location: 47233 - 49612" locus_tag="MCIC6FC_018484" class="clusterblast-orf" id="dummy-1_q4_0_all"  />
<polygon points="67,35 72,30 77,30 77,40 72,40 67,35 " style="fill:#8215d8; stroke-width:1; stroke:black; " description="&lt;b&gt;MCIC6FC_018485&lt;/b&gt;&lt;br&gt;hypothetical protein&lt;br&gt;Location: 49634 - 50993" locus_tag="MCIC6FC_018485" class="clusterblast-orf" id="dummy-1_q5_0_all"  />
<polygon points="78,40 79,40 84,35 79,30 78,30 78,40 " style="fill:#d84415; stroke-width:1; stroke:black; " description="&lt;b&gt;MCIC6FC_018486&lt;/b&gt;&lt;br&gt;hypothetical protein&lt;br&gt;Location: 51132 - 52029" locus_tag="MCIC6FC_018486" class="clusterblast-orf" id="dummy-1_q6_0_all"  />
<polygon points="85,40 96,40 101,35 96,30 85,30 85,40 " style="fill:#25d815; stroke-width:1; stroke:black; " description="&lt;b&gt;MCIC6FC_018487&lt;/b&gt;&lt;br&gt;hypothetical protein&lt;br&gt;Location: 52166 - 54331" locus_tag="MCIC6FC_018487" class="clusterblast-orf" id="dummy-1_q7_0_all"  />
<polygon points="102,35 107,30 109,30 109,40 107,40 102,35 " style="fill:#1592d8; stroke-width:1; stroke:black; " description="&lt;b&gt;MCIC6FC_018488&lt;/b&gt;&lt;br&gt;hypothetical protein&lt;br&gt;Location: 54373 - 55450" locus_tag="MCIC6FC_018488" class="clusterblast-orf" id="dummy-1_q8_0_all"  />
<polygon points="110,40 111,40 116,35 111,30 110,30 110,40 " style="fill:#b115d8; stroke-width:1; stroke:black; " description="&lt;b&gt;MCIC6FC_018489&lt;/b&gt;&lt;br&gt;hypothetical protein&lt;br&gt;Location: 55551 - 56322" locus_tag="MCIC6FC_018489" class="clusterblast-orf" id="dummy-1_q9_0_all"  />
<polygon points="116,35 121,30 123,30 123,40 121,40 116,35 " style="fill:#d87315; stroke-width:1; stroke:black; " description="&lt;b&gt;MCIC6FC_018490&lt;/b&gt;&lt;br&gt;hypothetical protein&lt;br&gt;Location: 56326 - 57332" locus_tag="MCIC6FC_018490" class="clusterblast-orf" id="dummy-1_q10_0_all"  />
<polygon points="124,40 134,40 139,35 134,30 124,30 124,40 " style="fill:#15d834; stroke-width:1; stroke:black; " description="&lt;b&gt;MCIC6FC_018491&lt;/b&gt;&lt;br&gt;hypothetical protein&lt;br&gt;Location: 57455 - 59520" locus_tag="MCIC6FC_018491" class="clusterblast-orf" id="dummy-1_q11_0_all"  />
<polygon points="140,35 145,30 162,30 162,40 145,40 140,35 " style="fill:#1563d8; stroke-width:1; stroke:black; " description="&lt;b&gt;MCIC6FC_018492&lt;/b&gt;&lt;br&gt;hypothetical protein&lt;br&gt;Location: 59589 - 62673" locus_tag="MCIC6FC_018492" class="clusterblast-orf" id="dummy-1_q12_0_all"  />
<polygon points="163,35 168,30 342,30 342,40 168,40 163,35 " style="fill:#d815d0; stroke-width:1; stroke:black; " description="&lt;b&gt;MCIC6FC_018493&lt;/b&gt;&lt;br&gt;hypothetical protein&lt;br&gt;Location: 62865 - 87322" locus_tag="MCIC6FC_018493" class="clusterblast-orf" id="dummy-1_q13_0_all"  />
<polygon points="343,35 348,30 355,30 355,40 348,40 343,35 " style="fill:#d8a215; stroke-width:1; stroke:black; " description="&lt;b&gt;MCIC6FC_018494&lt;/b&gt;&lt;br&gt;hypothetical protein&lt;br&gt;Location: 87575 - 89201" locus_tag="MCIC6FC_018494" class="clusterblast-orf" id="dummy-1_q14_0_all"  />
<polygon points="356,40 377,40 382,35 377,30 356,30 356,40 " style="fill:#15d863; stroke-width:1; stroke:black; " description="&lt;b&gt;MCIC6FC_018495&lt;/b&gt;&lt;br&gt;hypothetical protein&lt;br&gt;Location: 89338 - 92879" locus_tag="MCIC6FC_018495" class="clusterblast-orf" id="dummy-1_q15_0_all"  />
<polygon points="383,35 388,30 389,30 389,40 388,40 383,35 " style="fill:#1534d8; stroke-width:1; stroke:black; " description="&lt;b&gt;MCIC6FC_018496&lt;/b&gt;&lt;br&gt;hypothetical protein&lt;br&gt;Location: 93004 - 93837" locus_tag="MCIC6FC_018496" class="clusterblast-orf" id="dummy-1_q16_0_all"  />
<polygon points="390,40 397,40 402,35 397,30 390,30 390,40 " style="fill:#d815a2; stroke-width:1; stroke:black; " description="&lt;b&gt;MCIC6FC_018497&lt;/b&gt;&lt;br&gt;hypothetical protein&lt;br&gt;Location: 94038 - 95691" locus_tag="MCIC6FC_018497" class="clusterblast-orf" id="dummy-1_q17_0_all"  />
<polygon points="404,40 416,40 421,35 416,30 404,30 404,40 " style="fill:#d8d015; stroke-width:1; stroke:black; " description="&lt;b&gt;MCIC6FC_018498&lt;/b&gt;&lt;br&gt;hypothetical protein&lt;br&gt;Location: 95846 - 98231" locus_tag="MCIC6FC_018498" class="clusterblast-orf" id="dummy-1_q18_0_all"  />
<polygon points="422,35 427,30 554,30 554,40 427,40 422,35 " style="fill:#d815d0; stroke-width:1; stroke:black; " description="&lt;b&gt;MCIC6FC_018499&lt;/b&gt;&lt;br&gt;hypothetical protein&lt;br&gt;Location: 98383 - 116494" locus_tag="MCIC6FC_018499" class="clusterblast-orf" id="dummy-1_q19_0_all"  />
<polygon points="555,35 560,30 646,30 646,40 560,40 555,35 " style="fill:#d815d0; stroke-width:1; stroke:black; " description="&lt;b&gt;MCIC6FC_018500&lt;/b&gt;&lt;br&gt;hypothetical protein&lt;br&gt;Location: 116593 - 129094" locus_tag="MCIC6FC_018500" class="clusterblast-orf" id="dummy-1_q20_0_all"  />
<polygon points="646,35 651,30 664,30 664,40 651,40 646,35 " style="fill:#15d892; stroke-width:1; stroke:black; " description="&lt;b&gt;MCIC6FC_018501&lt;/b&gt;&lt;br&gt;hypothetical protein&lt;br&gt;Location: 129176 - 131553" locus_tag="MCIC6FC_018501" class="clusterblast-orf" id="dummy-1_q21_0_all"  />
<polygon points="664,35 669,30 674,30 674,40 669,40 664,35 " style="fill:#2515d8; stroke-width:1; stroke:black; " description="&lt;b&gt;MCIC6FC_018502&lt;/b&gt;&lt;br&gt;hypothetical protein&lt;br&gt;Location: 131556 - 132906" locus_tag="MCIC6FC_018502" class="clusterblast-orf" id="dummy-1_q22_0_all"  />
<polygon points="674,35 679,30 683,30 683,40 679,40 674,35 " style="fill:#d81573; stroke-width:1; stroke:black; " description="&lt;b&gt;MCIC6FC_018503&lt;/b&gt;&lt;br&gt;hypothetical protein&lt;br&gt;Location: 132965 - 134195" locus_tag="MCIC6FC_018503" class="clusterblast-orf" id="dummy-1_q23_0_all"  />
<polygon points="685,40 692,40 697,35 692,30 685,30 685,40 " style="fill:#b1d815; stroke-width:1; stroke:black; " description="&lt;b&gt;MCIC6FC_018504&lt;/b&gt;&lt;br&gt;hypothetical protein&lt;br&gt;Location: 134427 - 136068" locus_tag="MCIC6FC_018504" class="clusterblast-orf" id="dummy-1_q24_0_all"  />
<polygon points="697,35 702,30 702,30 702,40 702,40 697,35 " style="fill:#15d8c1; stroke-width:1; stroke:black; " description="&lt;b&gt;MCIC6FC_018505&lt;/b&gt;&lt;br&gt;hypothetical protein&lt;br&gt;Location: 136093 - 136805" locus_tag="MCIC6FC_018505" class="clusterblast-orf" id="dummy-1_q25_0_all"  />
<polygon points="703,40 708,40 713,35 708,30 703,30 703,40 " style="fill:#5415d8; stroke-width:1; stroke:black; " description="&lt;b&gt;MCIC6FC_018506&lt;/b&gt;&lt;br&gt;hypothetical protein&lt;br&gt;Location: 136909 - 138265" locus_tag="MCIC6FC_018506" class="clusterblast-orf" id="dummy-1_q26_0_all"  />
<polygon points="714,40 729,40 734,35 729,30 714,30 714,40 " style="fill:#d81544; stroke-width:1; stroke:black; " description="&lt;b&gt;MCIC6FC_018507&lt;/b&gt;&lt;br&gt;hypothetical protein&lt;br&gt;Location: 138444 - 141153" locus_tag="MCIC6FC_018507" class="clusterblast-orf" id="dummy-1_q27_0_all"  />
<polygon points="734,35 739,30 749,30 749,40 739,40 734,35 " style="fill:#d815a2; stroke-width:1; stroke:black; " description="&lt;b&gt;MCIC6FC_018508&lt;/b&gt;&lt;br&gt;hypothetical protein&lt;br&gt;Location: 141248 - 143227" locus_tag="MCIC6FC_018508" class="clusterblast-orf" id="dummy-1_q28_0_all"  />
<polygon points="749,35 754,30 780,30 780,40 754,40 749,35 " style="fill:#82d815; stroke-width:1; stroke:black; " description="&lt;b&gt;MCIC6FC_018509&lt;/b&gt;&lt;br&gt;hypothetical protein&lt;br&gt;Location: 143237 - 147464" locus_tag="MCIC6FC_018509" class="clusterblast-orf" id="dummy-1_q29_0_all"  />
</g>
<g label="NZ_CABVHH010000007" description="NZ_CABVHH010000007 (292566-396946): Pseudomonas fluorescens isolate PS683, wh... (87% of genes show similarity), NRPS" class="clusterblast-cluster"  >
<text x="5" y="70" class="clusterblast-acc"  >
<a xlink:href="https://antismash-db.secondarymetabolites.org/area.html?record=NZ_CABVHH010000007&amp;start=292566&amp;end=396946" target="_blank">NZ_CABVHH010000007 (292566-396946)</a>: Pseudomonas fluorescens isolate PS683, wh... (87% of genes show similarity), NRPS</text>
<line x1="10" y1="85" x2="778.0" y2="85" style="stroke-width:1; stroke:grey; "  />
</g>
<g id="a1_000"  >
<polygon points="12,85 15,80 15,90 12,85 " style="fill:#d81515; stroke-width:1; stroke:black; " description="&lt;b&gt;F8N27_RS17375&lt;/b&gt;&lt;br&gt;SRPBCC family protein&lt;br&gt;Location: 293201 - 293617&lt;br&gt;&lt;br&gt;&lt;b&gt;BlastP hit with MCIC6FC_018482&lt;/b&gt;&lt;br&gt;Percentage identity: 99&lt;br&gt;Percentage coverage: 19&lt;br&gt;BLAST bit score: 266&lt;br&gt;E-value: 9.1e-69" locus_tag="F8N27_RS17375" class="clusterblast-orf" id="dummy-1_h1_3_0"  />
</g>
<g id="a1_001"  >
<polygon points="16,85 21,80 22,80 22,90 21,90 16,85 " style="fill:#d81515; stroke-width:1; stroke:black; " description="&lt;b&gt;F8N27_RS17380&lt;/b&gt;&lt;br&gt;SDR family oxidoreductase&lt;br&gt;Location: 293647 - 294495&lt;br&gt;&lt;br&gt;&lt;b&gt;BlastP hit with MCIC6FC_018482&lt;/b&gt;&lt;br&gt;Percentage identity: 98&lt;br&gt;Percentage coverage: 36&lt;br&gt;BLAST bit score: 474&lt;br&gt;E-value: 1.7e-131" locus_tag="F8N27_RS17380" class="clusterblast-orf" id="dummy-1_h1_3_1"  />
</g>
<g id="a1_002"  >
<polygon points="22,85 27,80 29,80 29,90 27,90 22,85 " style="fill:#d81515; stroke-width:1; stroke:black; " description="&lt;b&gt;F8N27_RS17385&lt;/b&gt;&lt;br&gt;aldo/keto reductase&lt;br&gt;Location: 294462 - 295466&lt;br&gt;&lt;br&gt;&lt;b&gt;BlastP hit with MCIC6FC_018482&lt;/b&gt;&lt;br&gt;Percentage identity: 95&lt;br&gt;Percentage coverage: 47&lt;br&gt;BLAST bit score: 623&lt;br&gt;E-value: 3.8e-176" locus_tag="F8N27_RS17385" class="clusterblast-orf" id="dummy-1_h1_3_2"  />
</g>
<g id="a1_003"  >
<polygon points="30,90 31,90 36,85 31,80 30,80 30,90 " style="fill:#54d815; stroke-width:1; stroke:black; " description="&lt;b&gt;F8N27_RS17390&lt;/b&gt;&lt;br&gt;LysR family transcriptional regulator&lt;br&gt;Location: 295580 - 296474&lt;br&gt;&lt;br&gt;&lt;b&gt;BlastP hit with MCIC6FC_018483&lt;/b&gt;&lt;br&gt;Percentage identity: 99&lt;br&gt;Percentage coverage: 84&lt;br&gt;BLAST bit score: 483&lt;br&gt;E-value: 2e-134" locus_tag="F8N27_RS17390" class="clusterblast-orf" id="dummy-1_h1_3_3"  />
</g>
<g id="a1_004"  >
<polygon points="37,85 42,80 46,80 46,90 42,90 37,85 " style="fill:#15c1d8; stroke-width:1; stroke:black; " description="&lt;b&gt;F8N27_RS17395&lt;/b&gt;&lt;br&gt;FAD-dependent oxidoreductase&lt;br&gt;Location: 296548 - 297840&lt;br&gt;&lt;br&gt;&lt;b&gt;BlastP hit with MCIC6FC_018484&lt;/b&gt;&lt;br&gt;Percentage identity: 99&lt;br&gt;Percentage coverage: 55&lt;br&gt;BLAST bit score: 860&lt;br&gt;E-value: 1.2e-247" locus_tag="F8N27_RS17395" class="clusterblast-orf" id="dummy-1_h1_3_4"  />
</g>
<g id="a1_005"  >
<polygon points="46,85 51,80 54,80 54,90 51,90 46,85 " style="fill:#15c1d8; stroke-width:1; stroke:black; " description="&lt;b&gt;F8N27_RS17400&lt;/b&gt;&lt;br&gt;extracellular solute-binding protein&lt;br&gt;Location: 297837 - 298925&lt;br&gt;&lt;br&gt;&lt;b&gt;BlastP hit with MCIC6FC_018484&lt;/b&gt;&lt;br&gt;Percentage identity: 97&lt;br&gt;Percentage coverage: 46&lt;br&gt;BLAST bit score: 698&lt;br&gt;E-value: 7.9e-199" locus_tag="F8N27_RS17400" class="clusterblast-orf" id="dummy-1_h1_3_5"  />
</g>
<g id="a1_006"  >
<polygon points="54,85 59,80 64,80 64,90 59,90 54,85 " style="fill:#8215d8; stroke-width:1; stroke:black; " description="&lt;b&gt;F8N27_RS17405&lt;/b&gt;&lt;br&gt;glutamine synthetase&lt;br&gt;Location: 298949 - 300307&lt;br&gt;&lt;br&gt;&lt;b&gt;BlastP hit with MCIC6FC_018485&lt;/b&gt;&lt;br&gt;Percentage identity: 100&lt;br&gt;Percentage coverage: 100&lt;br&gt;BLAST bit score: 928&lt;br&gt;E-value: 3.6e-268" locus_tag="F8N27_RS17405" class="clusterblast-orf" id="dummy-1_h1_3_6"  />
</g>
<g id="a1_007"  >
<polygon points="65,90 67,90 72,85 67,80 65,80 65,90 " style="fill:#d84415; stroke-width:1; stroke:black; " description="&lt;b&gt;F8N27_RS17410&lt;/b&gt;&lt;br&gt;helix-turn-helix domain-containing protein&lt;br&gt;Location: 300447 - 301343&lt;br&gt;&lt;br&gt;&lt;b&gt;BlastP hit with MCIC6FC_018486&lt;/b&gt;&lt;br&gt;Percentage identity: 98&lt;br&gt;Percentage coverage: 99&lt;br&gt;BLAST bit score: 606&lt;br&gt;E-value: 2e-171" locus_tag="F8N27_RS17410" class="clusterblast-orf" id="dummy-1_h1_3_7"  />
</g>
<g id="a1_008"  >
<polygon points="73,90 84,90 89,85 84,80 73,80 73,90 " style="fill:#25d815; stroke-width:1; stroke:black; " description="&lt;b&gt;F8N27_RS17415&lt;/b&gt;&lt;br&gt;TonB-dependent siderophore receptor&lt;br&gt;Location: 301526 - 303688&lt;br&gt;&lt;br&gt;&lt;b&gt;BlastP hit with MCIC6FC_018487&lt;/b&gt;&lt;br&gt;Percentage identity: 95&lt;br&gt;Percentage coverage: 103&lt;br&gt;BLAST bit score: 1346&lt;br&gt;E-value: 0.0" locus_tag="F8N27_RS17415" class="clusterblast-orf" id="dummy-1_h1_3_8"  />
</g>
<g id="a1_009"  >
<polygon points="89,85 94,80 97,80 97,90 94,90 89,85 " style="fill:#1592d8; stroke-width:1; stroke:black; " description="&lt;b&gt;F8N27_RS17420&lt;/b&gt;&lt;br&gt;MFS transporter&lt;br&gt;Location: 303678 - 304808&lt;br&gt;&lt;br&gt;&lt;b&gt;BlastP hit with MCIC6FC_018488&lt;/b&gt;&lt;br&gt;Percentage identity: 94&lt;br&gt;Percentage coverage: 104&lt;br&gt;BLAST bit score: 586&lt;br&gt;E-value: 1.8e-165" locus_tag="F8N27_RS17420" class="clusterblast-orf" id="dummy-1_h1_3_9"  />
</g>
<g id="a1_0010"  >
<polygon points="98,90 98,90 103,85 98,80 98,80 98,90 " style="fill:#b115d8; stroke-width:1; stroke:black; " description="&lt;b&gt;F8N27_RS17425&lt;/b&gt;&lt;br&gt;helix-turn-helix transcriptional regulator&lt;br&gt;Location: 304910 - 305680&lt;br&gt;&lt;br&gt;&lt;b&gt;BlastP hit with MCIC6FC_018489&lt;/b&gt;&lt;br&gt;Percentage identity: 98&lt;br&gt;Percentage coverage: 100&lt;br&gt;BLAST bit score: 510&lt;br&gt;E-value: 7.7e-143" locus_tag="F8N27_RS17425" class="clusterblast-orf" id="dummy-1_h1_3_10"  />
</g>
<g id="a1_0011"  >
<polygon points="103,85 107,80 107,90 103,85 " style="fill:#d87315; stroke-width:1; stroke:black; " description="&lt;b&gt;F8N27_RS17430&lt;/b&gt;&lt;br&gt;carboxymuconolactone decarboxylase family protein&lt;br&gt;Location: 305685 - 306122&lt;br&gt;&lt;br&gt;&lt;b&gt;BlastP hit with MCIC6FC_018490&lt;/b&gt;&lt;br&gt;Percentage identity: 96&lt;br&gt;Percentage coverage: 47&lt;br&gt;BLAST bit score: 279&lt;br&gt;E-value: 4.5e-73" locus_tag="F8N27_RS17430" class="clusterblast-orf" id="dummy-1_h1_3_11"  />
</g>
<g id="a1_0012"  >
<polygon points="107,85 111,80 111,90 107,85 " style="fill:#d87315; stroke-width:1; stroke:black; " description="&lt;b&gt;F8N27_RS17435&lt;/b&gt;&lt;br&gt;Lrp/AsnC family transcriptional regulator&lt;br&gt;Location: 306220 - 306690&lt;br&gt;&lt;br&gt;&lt;b&gt;BlastP hit with MCIC6FC_018490&lt;/b&gt;&lt;br&gt;Percentage identity: 99&lt;br&gt;Percentage coverage: 50&lt;br&gt;BLAST bit score: 299&lt;br&gt;E-value: 5.5e-79" locus_tag="F8N27_RS17435" class="clusterblast-orf" id="dummy-1_h1_3_12"  />
</g>
<g id="a1_0013"  >
<polygon points="112,90 116,90 121,85 116,80 112,80 112,90 " style="fill:#15d834; stroke-width:1; stroke:black; " description="&lt;b&gt;F8N27_RS17440&lt;/b&gt;&lt;br&gt;methionine gamma-lyase&lt;br&gt;Location: 306814 - 308049&lt;br&gt;&lt;br&gt;&lt;b&gt;BlastP hit with MCIC6FC_018491&lt;/b&gt;&lt;br&gt;Percentage identity: 98&lt;br&gt;Percentage coverage: 63&lt;br&gt;BLAST bit score: 785&lt;br&gt;E-value: 3.1e-225" locus_tag="F8N27_RS17440" class="clusterblast-orf" id="dummy-1_h1_3_13"  />
</g>
<g id="a1_0014"  >
<polygon points="122,90 122,90 127,85 122,80 122,80 122,90 " style="fill:#15d834; stroke-width:1; stroke:black; " description="&lt;b&gt;F8N27_RS17445&lt;/b&gt;&lt;br&gt;helix-turn-helix transcriptional regulator&lt;br&gt;Location: 308196 - 308879&lt;br&gt;&lt;br&gt;&lt;b&gt;BlastP hit with MCIC6FC_018491&lt;/b&gt;&lt;br&gt;Percentage identity: 98&lt;br&gt;Percentage coverage: 35&lt;br&gt;BLAST bit score: 433&lt;br&gt;E-value: 3e-119" locus_tag="F8N27_RS17445" class="clusterblast-orf" id="dummy-1_h1_3_14"  />
</g>
<g id="a1_0015"  >
<polygon points="127,85 132,80 141,80 141,90 132,90 127,85 " style="fill:#1563d8; stroke-width:1; stroke:black; " description="&lt;b&gt;F8N27_RS17450&lt;/b&gt;&lt;br&gt;MacB family efflux pump subunit&lt;br&gt;Location: 308950 - 310908&lt;br&gt;&lt;br&gt;&lt;b&gt;BlastP hit with MCIC6FC_018492&lt;/b&gt;&lt;br&gt;Percentage identity: 99&lt;br&gt;Percentage coverage: 64&lt;br&gt;BLAST bit score: 1225&lt;br&gt;E-value: 0.0" locus_tag="F8N27_RS17450" class="clusterblast-orf" id="dummy-1_h1_3_15"  />
</g>
<g id="a1_0016"  >
<polygon points="141,85 146,80 150,80 150,90 146,90 141,85 " style="fill:#1563d8; stroke-width:1; stroke:black; " description="&lt;b&gt;F8N27_RS17455&lt;/b&gt;&lt;br&gt;macrolide transporter subunit MacA&lt;br&gt;Location: 310912 - 312063&lt;br&gt;&lt;br&gt;&lt;b&gt;BlastP hit with MCIC6FC_018492&lt;/b&gt;&lt;br&gt;Percentage identity: 99&lt;br&gt;Percentage coverage: 36&lt;br&gt;BLAST bit score: 688&lt;br&gt;E-value: 1.1e-195" locus_tag="F8N27_RS17455" class="clusterblast-orf" id="dummy-1_h1_3_16"  />
</g>
<g id="a1_0017"  >
<polygon points="152,90 153,85 152,80 152,90 " style="fill:white; stroke-width:1; stroke:black; " description="&lt;b&gt;F8N27_RS17460&lt;/b&gt;&lt;br&gt;hypothetical protein&lt;br&gt;Location: 312312 - 312499" locus_tag="F8N27_RS17460" class="clusterblast-orf" id="dummy-1_h1_3_17"  />
</g>
<g id="a1_0018"  >
<polygon points="153,85 158,80 236,80 236,90 158,90 153,85 " style="fill:#d815d0; stroke-width:1; stroke:black; " description="&lt;b&gt;F8N27_RS17465&lt;/b&gt;&lt;br&gt;amino acid adenylation domain-containing protein&lt;br&gt;Location: 312567 - 323861&lt;br&gt;&lt;br&gt;&lt;b&gt;BlastP hit with MCIC6FC_018493&lt;/b&gt;&lt;br&gt;Percentage identity: 96&lt;br&gt;Percentage coverage: 46&lt;br&gt;BLAST bit score: 7102&lt;br&gt;E-value: 0.0&lt;br&gt;&lt;br&gt;&lt;b&gt;BlastP hit with MCIC6FC_018499&lt;/b&gt;&lt;br&gt;Percentage identity: 37&lt;br&gt;Percentage coverage: 55&lt;br&gt;BLAST bit score: 1714&lt;br&gt;E-value: 0.0&lt;br&gt;&lt;br&gt;&lt;b&gt;BlastP hit with MCIC6FC_018500&lt;/b&gt;&lt;br&gt;Percentage identity: 39&lt;br&gt;Percentage coverage: 55&lt;br&gt;BLAST bit score: 1250&lt;br&gt;E-value: 0.0" locus_tag="F8N27_RS17465" class="clusterblast-orf" id="dummy-1_h1_3_18"  />
</g>
<g id="a1_0019"  >
<polygon points="236,85 241,80 329,80 329,90 241,90 236,85 " style="fill:#d815d0; stroke-width:1; stroke:black; " description="&lt;b&gt;F8N27_RS17470&lt;/b&gt;&lt;br&gt;amino acid adenylation domain-containing protein&lt;br&gt;Location: 323858 - 336685&lt;br&gt;&lt;br&gt;&lt;b&gt;BlastP hit with MCIC6FC_018493&lt;/b&gt;&lt;br&gt;Percentage identity: 96&lt;br&gt;Percentage coverage: 53&lt;br&gt;BLAST bit score: 8077&lt;br&gt;E-value: 0.0&lt;br&gt;&lt;br&gt;&lt;b&gt;BlastP hit with MCIC6FC_018499&lt;/b&gt;&lt;br&gt;Percentage identity: 35&lt;br&gt;Percentage coverage: 74&lt;br&gt;BLAST bit score: 1998&lt;br&gt;E-value: 0.0" locus_tag="F8N27_RS17470" class="clusterblast-orf" id="dummy-1_h1_3_19"  />
</g>
<g id="a1_0020"  >
<polygon points="331,85 336,80 343,80 343,90 336,90 331,85 " style="fill:#d8a215; stroke-width:1; stroke:black; " description="&lt;b&gt;F8N27_RS17475&lt;/b&gt;&lt;br&gt;PvdJ/PvdD/PvdP-like protein&lt;br&gt;Location: 336932 - 338557&lt;br&gt;&lt;br&gt;&lt;b&gt;BlastP hit with MCIC6FC_018494&lt;/b&gt;&lt;br&gt;Percentage identity: 99&lt;br&gt;Percentage coverage: 100&lt;br&gt;BLAST bit score: 1136&lt;br&gt;E-value: 0.0" locus_tag="F8N27_RS17475" class="clusterblast-orf" id="dummy-1_h1_3_20"  />
</g>
<g id="a1_0021"  >
<polygon points="344,90 349,90 354,85 349,80 344,80 344,90 " style="fill:#15d863; stroke-width:1; stroke:black; " description="&lt;b&gt;F8N27_RS17480&lt;/b&gt;&lt;br&gt;membrane dipeptidase&lt;br&gt;Location: 338700 - 340049&lt;br&gt;&lt;br&gt;&lt;b&gt;BlastP hit with MCIC6FC_018495&lt;/b&gt;&lt;br&gt;Percentage identity: 99&lt;br&gt;Percentage coverage: 38&lt;br&gt;BLAST bit score: 892&lt;br&gt;E-value: 4.2e-257" locus_tag="F8N27_RS17480" class="clusterblast-orf" id="dummy-1_h1_3_21"  />
</g>
<g id="a1_0022"  >
<polygon points="354,90 358,90 363,85 358,80 354,80 354,90 " style="fill:#15d863; stroke-width:1; stroke:black; " description="&lt;b&gt;F8N27_RS17485&lt;/b&gt;&lt;br&gt;aminotransferase class V-fold PLP-dependent enzyme&lt;br&gt;Location: 340068 - 341339&lt;br&gt;&lt;br&gt;&lt;b&gt;BlastP hit with MCIC6FC_018495&lt;/b&gt;&lt;br&gt;Percentage identity: 96&lt;br&gt;Percentage coverage: 37&lt;br&gt;BLAST bit score: 836&lt;br&gt;E-value: 3.6e-240" locus_tag="F8N27_RS17485" class="clusterblast-orf" id="dummy-1_h1_3_22"  />
</g>
<g id="a1_0023"  >
<polygon points="363,90 365,90 370,85 365,80 363,80 363,90 " style="fill:#15d863; stroke-width:1; stroke:black; " description="&lt;b&gt;F8N27_RS17490&lt;/b&gt;&lt;br&gt;SUMF1/EgtB/PvdO family nonheme iron enzyme&lt;br&gt;Location: 341374 - 342234&lt;br&gt;&lt;br&gt;&lt;b&gt;BlastP hit with MCIC6FC_018495&lt;/b&gt;&lt;br&gt;Percentage identity: 99&lt;br&gt;Percentage coverage: 25&lt;br&gt;BLAST bit score: 608&lt;br&gt;E-value: 1.2e-171" locus_tag="F8N27_RS17490" class="clusterblast-orf" id="dummy-1_h1_3_23"  />
</g>
<g id="a1_0024"  >
<polygon points="370,85 375,80 377,80 377,90 375,90 370,85 " style="fill:#1534d8; stroke-width:1; stroke:black; " description="&lt;b&gt;F8N27_RS17495&lt;/b&gt;&lt;br&gt;N(5)-hydroxyornithine transformylase PvdF&lt;br&gt;Location: 342360 - 343190&lt;br&gt;&lt;br&gt;&lt;b&gt;BlastP hit with MCIC6FC_018496&lt;/b&gt;&lt;br&gt;Percentage identity: 93&lt;br&gt;Percentage coverage: 108&lt;br&gt;BLAST bit score: 511&lt;br&gt;E-value: 5.9e-143" locus_tag="F8N27_RS17495" class="clusterblast-orf" id="dummy-1_h1_3_24"  />
</g>
<g id="a1_0025"  >
<polygon points="378,90 385,90 390,85 385,80 378,80 378,90 " style="fill:#d815a2; stroke-width:1; stroke:black; " description="&lt;b&gt;F8N27_RS17500&lt;/b&gt;&lt;br&gt;cyclic peptide export ABC transporter&lt;br&gt;Location: 343391 - 345043&lt;br&gt;&lt;br&gt;&lt;b&gt;BlastP hit with MCIC6FC_018497&lt;/b&gt;&lt;br&gt;Percentage identity: 98&lt;br&gt;Percentage coverage: 100&lt;br&gt;BLAST bit score: 1044&lt;br&gt;E-value: 5.4e-303" locus_tag="F8N27_RS17500" class="clusterblast-orf" id="dummy-1_h1_3_25"  />
</g>
<g id="a1_0026"  >
<polygon points="391,90 404,90 409,85 404,80 391,80 391,90 " style="fill:#d8d015; stroke-width:1; stroke:black; " description="&lt;b&gt;F8N27_RS17505&lt;/b&gt;&lt;br&gt;TonB-dependent siderophore receptor&lt;br&gt;Location: 345200 - 347581&lt;br&gt;&lt;br&gt;&lt;b&gt;BlastP hit with MCIC6FC_018498&lt;/b&gt;&lt;br&gt;Percentage identity: 96&lt;br&gt;Percentage coverage: 103&lt;br&gt;BLAST bit score: 1528&lt;br&gt;E-value: 0.0" locus_tag="F8N27_RS17505" class="clusterblast-orf" id="dummy-1_h1_3_26"  />
</g>
<g id="a1_0027"  >
<polygon points="410,85 415,80 485,80 485,90 415,90 410,85 " style="fill:#d815d0; stroke-width:1; stroke:black; " description="&lt;b&gt;F8N27_RS17510&lt;/b&gt;&lt;br&gt;amino acid adenylation domain-containing protein&lt;br&gt;Location: 347735 - 358087&lt;br&gt;&lt;br&gt;&lt;b&gt;BlastP hit with MCIC6FC_018493&lt;/b&gt;&lt;br&gt;Percentage identity: 39&lt;br&gt;Percentage coverage: 40&lt;br&gt;BLAST bit score: 1820&lt;br&gt;E-value: 0.0&lt;br&gt;&lt;br&gt;&lt;b&gt;BlastP hit with MCIC6FC_018499&lt;/b&gt;&lt;br&gt;Percentage identity: 95&lt;br&gt;Percentage coverage: 58&lt;br&gt;BLAST bit score: 6477&lt;br&gt;E-value: 0.0&lt;br&gt;&lt;br&gt;&lt;b&gt;BlastP hit with MCIC6FC_018500&lt;/b&gt;&lt;br&gt;Percentage identity: 64&lt;br&gt;Percentage coverage: 53&lt;br&gt;BLAST bit score: 2485&lt;br&gt;E-value: 0.0" locus_tag="F8N27_RS17510" class="clusterblast-orf" id="dummy-1_h1_3_27"  />
</g>
<g id="a1_0028"  >
<polygon points="486,85 491,80 542,80 542,90 491,90 486,85 " style="fill:#d815d0; stroke-width:1; stroke:black; " description="&lt;b&gt;F8N27_RS17515&lt;/b&gt;&lt;br&gt;amino acid adenylation domain-containing protein&lt;br&gt;Location: 358161 - 365942&lt;br&gt;&lt;br&gt;&lt;b&gt;BlastP hit with MCIC6FC_018493&lt;/b&gt;&lt;br&gt;Percentage identity: 36&lt;br&gt;Percentage coverage: 32&lt;br&gt;BLAST bit score: 1316&lt;br&gt;E-value: 0.0&lt;br&gt;&lt;br&gt;&lt;b&gt;BlastP hit with MCIC6FC_018499&lt;/b&gt;&lt;br&gt;Percentage identity: 95&lt;br&gt;Percentage coverage: 43&lt;br&gt;BLAST bit score: 4864&lt;br&gt;E-value: 0.0&lt;br&gt;&lt;br&gt;&lt;b&gt;BlastP hit with MCIC6FC_018500&lt;/b&gt;&lt;br&gt;Percentage identity: 54&lt;br&gt;Percentage coverage: 66&lt;br&gt;BLAST bit score: 2596&lt;br&gt;E-value: 0.0" locus_tag="F8N27_RS17515" class="clusterblast-orf" id="dummy-1_h1_3_28"  />
</g>
<g id="a1_0029"  >
<polygon points="542,85 547,80 622,80 622,90 547,90 542,85 " style="fill:#d815d0; stroke-width:1; stroke:black; " description="&lt;b&gt;F8N27_RS17520&lt;/b&gt;&lt;br&gt;amino acid adenylation domain-containing protein&lt;br&gt;Location: 365946 - 376946&lt;br&gt;&lt;br&gt;&lt;b&gt;BlastP hit with MCIC6FC_018493&lt;/b&gt;&lt;br&gt;Percentage identity: 35&lt;br&gt;Percentage coverage: 46&lt;br&gt;BLAST bit score: 1732&lt;br&gt;E-value: 0.0&lt;br&gt;&lt;br&gt;&lt;b&gt;BlastP hit with MCIC6FC_018499&lt;/b&gt;&lt;br&gt;Percentage identity: 54&lt;br&gt;Percentage coverage: 62&lt;br&gt;BLAST bit score: 3706&lt;br&gt;E-value: 0.0&lt;br&gt;&lt;br&gt;&lt;b&gt;BlastP hit with MCIC6FC_018500&lt;/b&gt;&lt;br&gt;Percentage identity: 95&lt;br&gt;Percentage coverage: 93&lt;br&gt;BLAST bit score: 6846&lt;br&gt;E-value: 0.0" locus_tag="F8N27_RS17520" class="clusterblast-orf" id="dummy-1_h1_3_29"  />
</g>
<g id="a1_0030"  >
<polygon points="624,90 624,85 624,80 624,90 " style="fill:white; stroke-width:1; stroke:black; " description="&lt;b&gt;F8N27_RS17525&lt;/b&gt;&lt;br&gt;type II toxin-antitoxin system HicA family toxin&lt;br&gt;Location: 377156 - 377224" locus_tag="F8N27_RS17525" class="clusterblast-orf" id="dummy-1_h1_3_30"  />
</g>
<g id="a1_0031"  >
<polygon points="625,85 630,80 633,80 633,90 630,90 625,85 " style="fill:white; stroke-width:1; stroke:black; " description="&lt;b&gt;F8N27_RS17530&lt;/b&gt;&lt;br&gt;MFS transporter&lt;br&gt;Location: 377281 - 378453" locus_tag="F8N27_RS17530" class="clusterblast-orf" id="dummy-1_h1_3_31"  />
</g>
<g id="a1_0032"  >
<polygon points="634,90 634,90 639,85 634,80 634,80 634,90 " style="fill:white; stroke-width:1; stroke:black; " description="&lt;b&gt;F8N27_RS17535&lt;/b&gt;&lt;br&gt;TetR family transcriptional regulator&lt;br&gt;Location: 378594 - 379181" locus_tag="F8N27_RS17535" class="clusterblast-orf" id="dummy-1_h1_3_32"  />
</g>
<g id="a1_0033"  >
<polygon points="639,85 644,80 648,80 648,90 644,90 639,85 " style="fill:#15d892; stroke-width:1; stroke:black; " description="&lt;b&gt;F8N27_RS17540&lt;/b&gt;&lt;br&gt;MATE family efflux transporter&lt;br&gt;Location: 379165 - 380520&lt;br&gt;&lt;br&gt;&lt;b&gt;BlastP hit with MCIC6FC_018501&lt;/b&gt;&lt;br&gt;Percentage identity: 99&lt;br&gt;Percentage coverage: 58&lt;br&gt;BLAST bit score: 824&lt;br&gt;E-value: 9.4e-237" locus_tag="F8N27_RS17540" class="clusterblast-orf" id="dummy-1_h1_3_33"  />
</g>
<g id="a1_0034"  >
<polygon points="649,85 654,80 656,80 656,90 654,90 649,85 " style="fill:#15d892; stroke-width:1; stroke:black; " description="&lt;b&gt;F8N27_RS17545&lt;/b&gt;&lt;br&gt;ATP-dependent Clp protease ATP-binding subunit&lt;br&gt;Location: 380558 - 381541&lt;br&gt;&lt;br&gt;&lt;b&gt;BlastP hit with MCIC6FC_018501&lt;/b&gt;&lt;br&gt;Percentage identity: 97&lt;br&gt;Percentage coverage: 41&lt;br&gt;BLAST bit score: 593&lt;br&gt;E-value: 3.5e-167" locus_tag="F8N27_RS17545" class="clusterblast-orf" id="dummy-1_h1_3_34"  />
</g>
<g id="a1_0035"  >
<polygon points="656,85 661,80 663,80 663,90 661,90 656,85 " style="fill:#2515d8; stroke-width:1; stroke:black; " description="&lt;b&gt;F8N27_RS17550&lt;/b&gt;&lt;br&gt;aliphatic amidase&lt;br&gt;Location: 381545 - 382588&lt;br&gt;&lt;br&gt;&lt;b&gt;BlastP hit with MCIC6FC_018502&lt;/b&gt;&lt;br&gt;Percentage identity: 99&lt;br&gt;Percentage coverage: 79&lt;br&gt;BLAST bit score: 728&lt;br&gt;E-value: 3.1e-208" locus_tag="F8N27_RS17550" class="clusterblast-orf" id="dummy-1_h1_3_35"  />
</g>
<g id="a1_0036"  >
<polygon points="664,85 666,80 666,90 664,85 " style="fill:#2515d8; stroke-width:1; stroke:black; " description="&lt;b&gt;F8N27_RS17555&lt;/b&gt;&lt;br&gt;zinc ribbon domain-containing protein&lt;br&gt;Location: 382604 - 382951&lt;br&gt;&lt;br&gt;&lt;b&gt;BlastP hit with MCIC6FC_018502&lt;/b&gt;&lt;br&gt;Percentage identity: 93&lt;br&gt;Percentage coverage: 22&lt;br&gt;BLAST bit score: 190&lt;br&gt;E-value: 3.9e-46" locus_tag="F8N27_RS17555" class="clusterblast-orf" id="dummy-1_h1_3_36"  />
</g>
<g id="a1_0037"  >
<polygon points="666,85 671,80 675,80 675,90 671,90 666,85 " style="fill:#d81573; stroke-width:1; stroke:black; " description="&lt;b&gt;F8N27_RS17560&lt;/b&gt;&lt;br&gt;acetamidase/formamidase family protein&lt;br&gt;Location: 382954 - 384183&lt;br&gt;&lt;br&gt;&lt;b&gt;BlastP hit with MCIC6FC_018503&lt;/b&gt;&lt;br&gt;Percentage identity: 100&lt;br&gt;Percentage coverage: 100&lt;br&gt;BLAST bit score: 862&lt;br&gt;E-value: 1.7e-248" locus_tag="F8N27_RS17560" class="clusterblast-orf" id="dummy-1_h1_3_37"  />
</g>
<g id="a1_0038"  >
<polygon points="677,90 684,90 689,85 684,80 677,80 677,90 " style="fill:#b1d815; stroke-width:1; stroke:black; " description="&lt;b&gt;F8N27_RS17565&lt;/b&gt;&lt;br&gt;methyl-accepting chemotaxis protein&lt;br&gt;Location: 384416 - 386056&lt;br&gt;&lt;br&gt;&lt;b&gt;BlastP hit with MCIC6FC_018504&lt;/b&gt;&lt;br&gt;Percentage identity: 97&lt;br&gt;Percentage coverage: 100&lt;br&gt;BLAST bit score: 812&lt;br&gt;E-value: 2.6e-233" locus_tag="F8N27_RS17565" class="clusterblast-orf" id="dummy-1_h1_3_38"  />
</g>
<g id="a1_0039"  >
<polygon points="690,85 695,80 698,80 698,90 695,90 690,85 " style="fill:#d815a2; stroke-width:1; stroke:black; " description="&lt;b&gt;F8N27_RS17570&lt;/b&gt;&lt;br&gt;hypothetical protein&lt;br&gt;Location: 386193 - 387299&lt;br&gt;&lt;br&gt;&lt;b&gt;BlastP hit with MCIC6FC_018508&lt;/b&gt;&lt;br&gt;Percentage identity: 97&lt;br&gt;Percentage coverage: 59&lt;br&gt;BLAST bit score: 625&lt;br&gt;E-value: 6e-177" locus_tag="F8N27_RS17570" class="clusterblast-orf" id="dummy-1_h1_3_39"  />
</g>
<g id="a1_0040"  >
<polygon points="699,85 704,80 704,80 704,90 704,90 699,85 " style="fill:#d815a2; stroke-width:1; stroke:black; " description="&lt;b&gt;F8N27_RS17575&lt;/b&gt;&lt;br&gt;urea ABC transporter ATP-binding subunit UrtE&lt;br&gt;Location: 387476 - 388165&lt;br&gt;&lt;br&gt;&lt;b&gt;BlastP hit with MCIC6FC_018508&lt;/b&gt;&lt;br&gt;Percentage identity: 100&lt;br&gt;Percentage coverage: 42&lt;br&gt;BLAST bit score: 446&lt;br&gt;E-value: 5e-123" locus_tag="F8N27_RS17575" class="clusterblast-orf" id="dummy-1_h1_3_40"  />
</g>
<g id="a1_0041"  >
<polygon points="704,85 709,80 710,80 710,90 709,90 704,85 " style="fill:#82d815; stroke-width:1; stroke:black; " description="&lt;b&gt;F8N27_RS17580&lt;/b&gt;&lt;br&gt;urea ABC transporter ATP-binding protein UrtD&lt;br&gt;Location: 388176 - 388934&lt;br&gt;&lt;br&gt;&lt;b&gt;BlastP hit with MCIC6FC_018509&lt;/b&gt;&lt;br&gt;Percentage identity: 100&lt;br&gt;Percentage coverage: 19&lt;br&gt;BLAST bit score: 496&lt;br&gt;E-value: 7.8e-138" locus_tag="F8N27_RS17580" class="clusterblast-orf" id="dummy-1_h1_3_41"  />
</g>
<g id="a1_0042"  >
<polygon points="710,85 715,80 718,80 718,90 715,90 710,85 " style="fill:#82d815; stroke-width:1; stroke:black; " description="&lt;b&gt;F8N27_RS17585&lt;/b&gt;&lt;br&gt;urea ABC transporter permease subunit UrtC&lt;br&gt;Location: 388931 - 390094&lt;br&gt;&lt;br&gt;&lt;b&gt;BlastP hit with MCIC6FC_018509&lt;/b&gt;&lt;br&gt;Percentage identity: 100&lt;br&gt;Percentage coverage: 23&lt;br&gt;BLAST bit score: 597&lt;br&gt;E-value: 2.5e-168" locus_tag="F8N27_RS17585" class="clusterblast-orf" id="dummy-1_h1_3_42"  />
</g>
<g id="a1_0043"  >
<polygon points="718,85 723,80 725,80 725,90 723,90 718,85 " style="fill:#82d815; stroke-width:1; stroke:black; " description="&lt;b&gt;F8N27_RS17590&lt;/b&gt;&lt;br&gt;urea ABC transporter permease subunit UrtB&lt;br&gt;Location: 390105 - 390986&lt;br&gt;&lt;br&gt;&lt;b&gt;BlastP hit with MCIC6FC_018509&lt;/b&gt;&lt;br&gt;Percentage identity: 99&lt;br&gt;Percentage coverage: 22&lt;br&gt;BLAST bit score: 546&lt;br&gt;E-value: 6.6e-153" locus_tag="F8N27_RS17590" class="clusterblast-orf" id="dummy-1_h1_3_43"  />
</g>
<g id="a1_0044"  >
<polygon points="726,85 731,80 735,80 735,90 731,90 726,85 " style="fill:#82d815; stroke-width:1; stroke:black; " description="&lt;b&gt;F8N27_RS17595&lt;/b&gt;&lt;br&gt;urea ABC transporter substrate-binding protein&lt;br&gt;Location: 391195 - 392403&lt;br&gt;&lt;br&gt;&lt;b&gt;BlastP hit with MCIC6FC_018509&lt;/b&gt;&lt;br&gt;Percentage identity: 100&lt;br&gt;Percentage coverage: 30&lt;br&gt;BLAST bit score: 787&lt;br&gt;E-value: 2.9e-225" locus_tag="F8N27_RS17595" class="clusterblast-orf" id="dummy-1_h1_3_44"  />
</g>
<g id="a1_0045"  >
<polygon points="737,90 757,90 762,85 757,80 737,80 737,90 " style="fill:white; stroke-width:1; stroke:black; " description="&lt;b&gt;F8N27_RS17600&lt;/b&gt;&lt;br&gt;response regulator&lt;br&gt;Location: 392718 - 396101" locus_tag="F8N27_RS17600" class="clusterblast-orf" id="dummy-1_h1_3_45"  />
</g>
<g id="a1_0046"  >
<polygon points="762,90 762,90 767,85 762,80 762,80 762,90 " style="fill:white; stroke-width:1; stroke:black; " description="&lt;b&gt;F8N27_RS17605&lt;/b&gt;&lt;br&gt;response regulator transcription factor&lt;br&gt;Location: 396076 - 396741" locus_tag="F8N27_RS17605" class="clusterblast-orf" id="dummy-1_h1_3_46"  />
</g>
</svg>
