<svg xmlns="http://www.w3.org/2000/svg" xmlns:xlink="http://www.w3.org/1999/xlink" version="1.1" x="0" y="0" height="230" width="800" viewBox="0 0 800 230" preserveAspectRatio="none"  >
<g label="Query sequence" class="clusterblast-cluster"  >
<text x="5" y="20" class="clusterblast-acc"  >
Query sequence</text>
<line x1="10" y1="35" x2="778.0" y2="35" style="stroke-width:1; stroke:grey; "  />
<polygon points="71,40 136,40 141,35 136,30 71,30 71,40 " style="fill:#d81515; stroke-width:1; stroke:black; " description="&lt;b&gt;MCIC6FC_019806&lt;/b&gt;&lt;br&gt;hypothetical protein&lt;br&gt;Location: 44058 - 45851" locus_tag="MCIC6FC_019806" class="clusterblast-orf" id="dummy-1_q0_0_all"  />
<polygon points="147,35 152,30 199,30 199,40 152,40 147,35 " style="fill:#3cd815; stroke-width:1; stroke:black; " description="&lt;b&gt;MCIC6FC_019807&lt;/b&gt;&lt;br&gt;hypothetical protein&lt;br&gt;Location: 45981 - 47312" locus_tag="MCIC6FC_019807" class="clusterblast-orf" id="dummy-1_q1_0_all"  />
<polygon points="201,40 286,40 291,35 286,30 201,30 201,40 " style="fill:#1563d8; stroke-width:1; stroke:black; " description="&lt;b&gt;MCIC6FC_019808&lt;/b&gt;&lt;br&gt;hypothetical protein&lt;br&gt;Location: 47362 - 49671" locus_tag="MCIC6FC_019808" class="clusterblast-orf" id="dummy-1_q2_0_all"  />
<polygon points="315,35 320,30 379,30 379,40 320,40 315,35 " style="fill:#b115d8; stroke-width:1; stroke:black; " description="&lt;b&gt;MCIC6FC_019809&lt;/b&gt;&lt;br&gt;hypothetical protein&lt;br&gt;Location: 50264 - 51899" locus_tag="MCIC6FC_019809" class="clusterblast-orf" id="dummy-1_q3_0_all"  />
<polygon points="385,40 425,40 430,35 425,30 385,30 385,40 " style="fill:#d88a15; stroke-width:1; stroke:black; " description="&lt;b&gt;MCIC6FC_019810&lt;/b&gt;&lt;br&gt;hypothetical protein&lt;br&gt;Location: 52046 - 53210" locus_tag="MCIC6FC_019810" class="clusterblast-orf" id="dummy-1_q4_0_all"  />
<polygon points="431,40 489,40 494,35 489,30 431,30 431,40 " style="fill:#15d863; stroke-width:1; stroke:black; " description="&lt;b&gt;MCIC6FC_019811&lt;/b&gt;&lt;br&gt;hypothetical protein&lt;br&gt;Location: 53221 - 54828" locus_tag="MCIC6FC_019811" class="clusterblast-orf" id="dummy-1_q5_0_all"  />
<polygon points="494,40 596,40 601,35 596,30 494,30 494,40 " style="fill:#3c15d8; stroke-width:1; stroke:black; " description="&lt;b&gt;MCIC6FC_019812&lt;/b&gt;&lt;br&gt;hypothetical protein&lt;br&gt;Location: 54843 - 57573" locus_tag="MCIC6FC_019812" class="clusterblast-orf" id="dummy-1_q6_0_all"  />
<polygon points="604,35 609,30 628,30 628,40 609,40 604,35 " style="fill:#d8158a; stroke-width:1; stroke:black; " description="&lt;b&gt;MCIC6FC_019813&lt;/b&gt;&lt;br&gt;hypothetical protein&lt;br&gt;Location: 57648 - 58261" locus_tag="MCIC6FC_019813" class="clusterblast-orf" id="dummy-1_q7_0_all"  />
<polygon points="631,40 640,40 645,35 640,30 631,30 631,40 " style="fill:#b1d815; stroke-width:1; stroke:black; " description="&lt;b&gt;MCIC6FC_019814&lt;/b&gt;&lt;br&gt;hypothetical protein&lt;br&gt;Location: 58334 - 58685" locus_tag="MCIC6FC_019814" class="clusterblast-orf" id="dummy-1_q8_0_all"  />
<polygon points="663,40 704,40 709,35 704,30 663,30 663,40 " style="fill:#15d8d8; stroke-width:1; stroke:black; " description="&lt;b&gt;MCIC6FC_019815&lt;/b&gt;&lt;br&gt;hypothetical protein&lt;br&gt;Location: 59151 - 60304" locus_tag="MCIC6FC_019815" class="clusterblast-orf" id="dummy-1_q9_0_all"  />
</g>
<g label="NZ_LT629708" description="NZ_LT629708 (1278515-1301594): Pseudomonas extremorientalis strain LMG 19695 ... (76% of genes show similarity), betalactone" class="clusterblast-cluster"  >
<text x="5" y="70" class="clusterblast-acc"  >
<a xlink:href="https://antismash-db.secondarymetabolites.org/area.html?record=NZ_LT629708&amp;start=1278515&amp;end=1301594" target="_blank">NZ_LT629708 (1278515-1301594)</a>: Pseudomonas extremorientalis strain LMG 19695 ... (76% of genes show similarity), betalactone</text>
<line x1="10" y1="85" x2="778.0" y2="85" style="stroke-width:1; stroke:grey; "  />
</g>
<g id="a1_000"  >
<polygon points="0,85 5,80 67,80 67,90 5,90 0,85 " style="fill:white; stroke-width:1; stroke:black; " description="&lt;b&gt;BLT33_RS05765&lt;/b&gt;&lt;br&gt;outer membrane protein assembly factor&lt;br&gt;Location: 1280684 - 1282411" locus_tag="BLT33_RS05765" class="clusterblast-orf" id="dummy-1_h1_8_0"  />
</g>
<g id="a1_001"  >
<polygon points="70,85 75,80 95,80 95,90 75,90 70,85 " style="fill:white; stroke-width:1; stroke:black; " description="&lt;b&gt;BLT33_RS05770&lt;/b&gt;&lt;br&gt;GNAT family N-acetyltransferase&lt;br&gt;Location: 1282476 - 1283126" locus_tag="BLT33_RS05770" class="clusterblast-orf" id="dummy-1_h1_8_1"  />
</g>
<g id="a1_002"  >
<polygon points="102,90 129,90 134,85 129,80 102,80 102,90 " style="fill:white; stroke-width:1; stroke:black; " description="&lt;b&gt;BLT33_RS05775&lt;/b&gt;&lt;br&gt;exodeoxyribonuclease III&lt;br&gt;Location: 1283296 - 1284108" locus_tag="BLT33_RS05775" class="clusterblast-orf" id="dummy-1_h1_8_2"  />
</g>
<g id="a1_003"  >
<polygon points="139,90 186,90 191,85 186,80 139,80 139,90 " style="fill:#d81515; stroke-width:1; stroke:black; " description="&lt;b&gt;BLT33_RS05780&lt;/b&gt;&lt;br&gt;phosphate ABC transporter substrate-binding/OmpA family protein&lt;br&gt;Location: 1284230 - 1285561&lt;br&gt;&lt;br&gt;&lt;b&gt;BlastP hit with MCIC6FC_019806&lt;/b&gt;&lt;br&gt;Percentage identity: 90&lt;br&gt;Percentage coverage: 94&lt;br&gt;BLAST bit score: 782&lt;br&gt;E-value: 1.9e-224" locus_tag="BLT33_RS05780" class="clusterblast-orf" id="dummy-1_h1_8_3"  />
</g>
<g id="a1_004"  >
<polygon points="195,85 200,80 244,80 244,90 200,90 195,85 " style="fill:#3cd815; stroke-width:1; stroke:black; " description="&lt;b&gt;BLT33_RS05785&lt;/b&gt;&lt;br&gt;acyl-CoA dehydrogenase&lt;br&gt;Location: 1285677 - 1286906&lt;br&gt;&lt;br&gt;&lt;b&gt;BlastP hit with MCIC6FC_019807&lt;/b&gt;&lt;br&gt;Percentage identity: 99&lt;br&gt;Percentage coverage: 98&lt;br&gt;BLAST bit score: 827&lt;br&gt;E-value: 4.6e-238" locus_tag="BLT33_RS05785" class="clusterblast-orf" id="dummy-1_h1_8_4"  />
</g>
<g id="a1_005"  >
<polygon points="250,90 281,90 286,85 281,80 250,80 250,90 " style="fill:#1563d8; stroke-width:1; stroke:black; " description="&lt;b&gt;BLT33_RS05790&lt;/b&gt;&lt;br&gt;LysR family transcriptional regulator&lt;br&gt;Location: 1287058 - 1287993&lt;br&gt;&lt;br&gt;&lt;b&gt;BlastP hit with MCIC6FC_019808&lt;/b&gt;&lt;br&gt;Percentage identity: 98&lt;br&gt;Percentage coverage: 43&lt;br&gt;BLAST bit score: 608&lt;br&gt;E-value: 9.9e-172" locus_tag="BLT33_RS05790" class="clusterblast-orf" id="dummy-1_h1_8_5"  />
</g>
<g id="a1_006"  >
<polygon points="291,90 301,90 306,85 301,80 291,80 291,90 " style="fill:#1563d8; stroke-width:1; stroke:black; " description="&lt;b&gt;BLT33_RS05795&lt;/b&gt;&lt;br&gt;MerR family DNA-binding transcriptional regulator&lt;br&gt;Location: 1288107 - 1288499&lt;br&gt;&lt;br&gt;&lt;b&gt;BlastP hit with MCIC6FC_019808&lt;/b&gt;&lt;br&gt;Percentage identity: 99&lt;br&gt;Percentage coverage: 13&lt;br&gt;BLAST bit score: 184&lt;br&gt;E-value: 3.5e-44" locus_tag="BLT33_RS05795" class="clusterblast-orf" id="dummy-1_h1_8_6"  />
</g>
<g id="a1_007"  >
<polygon points="307,90 337,90 342,85 337,80 307,80 307,90 " style="fill:#1563d8; stroke-width:1; stroke:black; " description="&lt;b&gt;BLT33_RS05800&lt;/b&gt;&lt;br&gt;hydroxymethylglutaryl-CoA lyase&lt;br&gt;Location: 1288516 - 1289415&lt;br&gt;&lt;br&gt;&lt;b&gt;BlastP hit with MCIC6FC_019808&lt;/b&gt;&lt;br&gt;Percentage identity: 96&lt;br&gt;Percentage coverage: 42&lt;br&gt;BLAST bit score: 565&lt;br&gt;E-value: 9.6e-159" locus_tag="BLT33_RS05800" class="clusterblast-orf" id="dummy-1_h1_8_7"  />
</g>
<g id="a1_008"  >
<polygon points="363,85 368,80 428,80 428,90 368,90 363,85 " style="fill:#b115d8; stroke-width:1; stroke:black; " description="&lt;b&gt;BLT33_RS05805&lt;/b&gt;&lt;br&gt;AMP-binding protein&lt;br&gt;Location: 1289957 - 1291594&lt;br&gt;&lt;br&gt;&lt;b&gt;BlastP hit with MCIC6FC_019809&lt;/b&gt;&lt;br&gt;Percentage identity: 93&lt;br&gt;Percentage coverage: 99&lt;br&gt;BLAST bit score: 1065&lt;br&gt;E-value: 1.3e-309" locus_tag="BLT33_RS05805" class="clusterblast-orf" id="dummy-1_h1_8_8"  />
</g>
<g id="a1_009"  >
<polygon points="434,90 474,90 479,85 474,80 434,80 434,90 " style="fill:#d88a15; stroke-width:1; stroke:black; " description="&lt;b&gt;BLT33_RS05810&lt;/b&gt;&lt;br&gt;isovaleryl-CoA dehydrogenase&lt;br&gt;Location: 1291745 - 1292908&lt;br&gt;&lt;br&gt;&lt;b&gt;BlastP hit with MCIC6FC_019810&lt;/b&gt;&lt;br&gt;Percentage identity: 98&lt;br&gt;Percentage coverage: 100&lt;br&gt;BLAST bit score: 767&lt;br&gt;E-value: 6.9e-220" locus_tag="BLT33_RS05810" class="clusterblast-orf" id="dummy-1_h1_8_9"  />
</g>
<g id="a1_0010"  >
<polygon points="480,90 538,90 543,85 538,80 480,80 480,90 " style="fill:#15d863; stroke-width:1; stroke:black; " description="&lt;b&gt;BLT33_RS05815&lt;/b&gt;&lt;br&gt;methylcrotonoyl-CoA carboxylase&lt;br&gt;Location: 1292920 - 1294527&lt;br&gt;&lt;br&gt;&lt;b&gt;BlastP hit with MCIC6FC_019811&lt;/b&gt;&lt;br&gt;Percentage identity: 96&lt;br&gt;Percentage coverage: 103&lt;br&gt;BLAST bit score: 1007&lt;br&gt;E-value: 4.1e-292" locus_tag="BLT33_RS05815" class="clusterblast-orf" id="dummy-1_h1_8_10"  />
</g>
<g id="a1_0011"  >
<polygon points="543,90 570,90 575,85 570,80 543,80 543,90 " style="fill:#3c15d8; stroke-width:1; stroke:black; " description="&lt;b&gt;BLT33_RS05820&lt;/b&gt;&lt;br&gt;gamma-carboxygeranoyl-CoA hydratase&lt;br&gt;Location: 1294543 - 1295349&lt;br&gt;&lt;br&gt;&lt;b&gt;BlastP hit with MCIC6FC_019812&lt;/b&gt;&lt;br&gt;Percentage identity: 86&lt;br&gt;Percentage coverage: 31&lt;br&gt;BLAST bit score: 438&lt;br&gt;E-value: 2.1e-120" locus_tag="BLT33_RS05820" class="clusterblast-orf" id="dummy-1_h1_8_11"  />
</g>
<g id="a1_0012"  >
<polygon points="575,90 645,90 650,85 645,80 575,80 575,90 " style="fill:#3c15d8; stroke-width:1; stroke:black; " description="&lt;b&gt;BLT33_RS05825&lt;/b&gt;&lt;br&gt;acetyl/propionyl/methylcrotonyl-CoA carboxylase subunit alpha&lt;br&gt;Location: 1295346 - 1297271&lt;br&gt;&lt;br&gt;&lt;b&gt;BlastP hit with MCIC6FC_019812&lt;/b&gt;&lt;br&gt;Percentage identity: 92&lt;br&gt;Percentage coverage: 72&lt;br&gt;BLAST bit score: 1117&lt;br&gt;E-value: 0.0" locus_tag="BLT33_RS05825" class="clusterblast-orf" id="dummy-1_h1_8_12"  />
</g>
<g id="a1_0013"  >
<polygon points="650,85 655,80 675,80 675,90 655,90 650,85 " style="fill:#d8158a; stroke-width:1; stroke:black; " description="&lt;b&gt;BLT33_RS05830&lt;/b&gt;&lt;br&gt;helix-turn-helix domain-containing protein&lt;br&gt;Location: 1297268 - 1297900&lt;br&gt;&lt;br&gt;&lt;b&gt;BlastP hit with MCIC6FC_019813&lt;/b&gt;&lt;br&gt;Percentage identity: 87&lt;br&gt;Percentage coverage: 70&lt;br&gt;BLAST bit score: 242&lt;br&gt;E-value: 4.9e-62" locus_tag="BLT33_RS05830" class="clusterblast-orf" id="dummy-1_h1_8_13"  />
</g>
<g id="a1_0014"  >
<polygon points="680,90 689,90 694,85 689,80 680,80 680,90 " style="fill:#b1d815; stroke-width:1; stroke:black; " description="&lt;b&gt;BLT33_RS05835&lt;/b&gt;&lt;br&gt;DUF3077 domain-containing protein&lt;br&gt;Location: 1298033 - 1298383&lt;br&gt;&lt;br&gt;&lt;b&gt;BlastP hit with MCIC6FC_019814&lt;/b&gt;&lt;br&gt;Percentage identity: 92&lt;br&gt;Percentage coverage: 100&lt;br&gt;BLAST bit score: 205&lt;br&gt;E-value: 4.1e-51" locus_tag="BLT33_RS05835" class="clusterblast-orf" id="dummy-1_h1_8_14"  />
</g>
<g id="a1_0015"  >
<polygon points="712,90 753,90 758,85 753,80 712,80 712,90 " style="fill:#15d8d8; stroke-width:1; stroke:black; " description="&lt;b&gt;BLT33_RS05840&lt;/b&gt;&lt;br&gt;carboxypeptidase family protein&lt;br&gt;Location: 1298850 - 1300001&lt;br&gt;&lt;br&gt;&lt;b&gt;BlastP hit with MCIC6FC_019815&lt;/b&gt;&lt;br&gt;Percentage identity: 89&lt;br&gt;Percentage coverage: 103&lt;br&gt;BLAST bit score: 706&lt;br&gt;E-value: 1.8e-201" locus_tag="BLT33_RS05840" class="clusterblast-orf" id="dummy-1_h1_8_15"  />
</g>
<g id="a1_0016"  >
<polygon points="758,85 763,80 780,80 780,90 763,90 758,85 " style="fill:white; stroke-width:1; stroke:black; " description="&lt;b&gt;BLT33_RS05845&lt;/b&gt;&lt;br&gt;cytochrome b&lt;br&gt;Location: 1300020 - 1300559" locus_tag="BLT33_RS05845" class="clusterblast-orf" id="dummy-1_h1_8_16"  />
</g>
</svg>
