<svg xmlns="http://www.w3.org/2000/svg" xmlns:xlink="http://www.w3.org/1999/xlink" version="1.1" x="0" y="0" height="230" width="800" viewBox="0 0 800 230" preserveAspectRatio="none"  >
<g label="Query sequence" class="clusterblast-cluster"  >
<text x="5" y="20" class="clusterblast-acc"  >
Query sequence</text>
<line x1="10" y1="35" x2="778.0" y2="35" style="stroke-width:1; stroke:grey; "  />
<polygon points="0,40 112,40 117,35 112,30 0,30 0,40 " style="fill:#d81515; stroke-width:1; stroke:black; " description="&lt;b&gt;MCIC6FC_019652&lt;/b&gt;&lt;br&gt;hypothetical protein&lt;br&gt;Location: 118749 - 120664" locus_tag="MCIC6FC_019652" class="clusterblast-orf" id="dummy-1_q0_0_all"  />
<polygon points="145,40 533,40 538,35 533,30 145,30 145,40 " style="fill:#15d815; stroke-width:1; stroke:black; " description="&lt;b&gt;MCIC6FC_019653&lt;/b&gt;&lt;br&gt;hypothetical protein&lt;br&gt;Location: 121128 - 127587" locus_tag="MCIC6FC_019653" class="clusterblast-orf" id="dummy-1_q1_0_all"  />
<polygon points="556,40 775,40 780,35 775,30 556,30 556,40 " style="fill:#1515d8; stroke-width:1; stroke:black; " description="&lt;b&gt;MCIC6FC_019654&lt;/b&gt;&lt;br&gt;hypothetical protein&lt;br&gt;Location: 127885 - 131565" locus_tag="MCIC6FC_019654" class="clusterblast-orf" id="dummy-1_q2_0_all"  />
</g>
<g label="NZ_FOAF01000001" description="NZ_FOAF01000001 (2392996-2406655): Olivibacter domesticus strain DSM 18733, w... (37% of genes show similarity), siderophore" class="clusterblast-cluster"  >
<text x="5" y="70" class="clusterblast-acc"  >
<a xlink:href="https://antismash-db.secondarymetabolites.org/area.html?record=NZ_FOAF01000001&amp;start=2392996&amp;end=2406655" target="_blank">NZ_FOAF01000001 (2392996-2406655)</a>: Olivibacter domesticus strain DSM 18733, w... (37% of genes show similarity), siderophore</text>
<line x1="10" y1="85" x2="778.0" y2="85" style="stroke-width:1; stroke:grey; "  />
</g>
<g id="a1_000"  >
<polygon points="33,85 38,80 126,80 126,90 38,90 33,85 " style="fill:#d81515; stroke-width:1; stroke:black; " description="&lt;b&gt;BMY50_RS10390&lt;/b&gt;&lt;br&gt;aspartate aminotransferase family protein&lt;br&gt;Location: 2394351 - 2395877&lt;br&gt;&lt;br&gt;&lt;b&gt;BlastP hit with MCIC6FC_019652&lt;/b&gt;&lt;br&gt;Percentage identity: 54&lt;br&gt;Percentage coverage: 71&lt;br&gt;BLAST bit score: 337&lt;br&gt;E-value: 2.9e-90" locus_tag="BMY50_RS10390" class="clusterblast-orf" id="dummy-1_h1_3_0"  />
</g>
<g id="a1_001"  >
<polygon points="127,85 132,80 166,80 166,90 132,90 127,85 " style="fill:white; stroke-width:1; stroke:black; " description="&lt;b&gt;BMY50_RS10395&lt;/b&gt;&lt;br&gt;hypothetical protein&lt;br&gt;Location: 2395893 - 2396528" locus_tag="BMY50_RS10395" class="clusterblast-orf" id="dummy-1_h1_3_1"  />
</g>
<g id="a1_002"  >
<polygon points="184,90 249,90 254,85 249,80 184,80 184,90 " style="fill:white; stroke-width:1; stroke:black; " description="&lt;b&gt;BMY50_RS10400&lt;/b&gt;&lt;br&gt;taurine catabolism dioxygenase TauD&lt;br&gt;Location: 2396837 - 2397988" locus_tag="BMY50_RS10400" class="clusterblast-orf" id="dummy-1_h1_3_2"  />
</g>
<g id="a1_003"  >
<polygon points="255,90 361,90 366,85 361,80 255,80 255,90 " style="fill:white; stroke-width:1; stroke:black; " description="&lt;b&gt;BMY50_RS10405&lt;/b&gt;&lt;br&gt;IucA/IucC family siderophore biosynthesis protein&lt;br&gt;Location: 2397997 - 2399817" locus_tag="BMY50_RS10405" class="clusterblast-orf" id="dummy-1_h1_3_3"  />
</g>
<g id="a1_004"  >
<polygon points="368,90 473,90 478,85 473,80 368,80 368,90 " style="fill:#15d815; stroke-width:1; stroke:black; " description="&lt;b&gt;BMY50_RS10410&lt;/b&gt;&lt;br&gt;IucA/IucC family siderophore biosynthesis protein&lt;br&gt;Location: 2399850 - 2401655&lt;br&gt;&lt;br&gt;&lt;b&gt;BlastP hit with MCIC6FC_019653&lt;/b&gt;&lt;br&gt;Percentage identity: 34&lt;br&gt;Percentage coverage: 32&lt;br&gt;BLAST bit score: 265&lt;br&gt;E-value: 2.4e-68" locus_tag="BMY50_RS10410" class="clusterblast-orf" id="dummy-1_h1_3_4"  />
</g>
<g id="a1_005"  >
<polygon points="480,90 620,90 625,85 620,80 480,80 480,90 " style="fill:#1515d8; stroke-width:1; stroke:black; " description="&lt;b&gt;BMY50_RS10415&lt;/b&gt;&lt;br&gt;TonB-dependent receptor&lt;br&gt;Location: 2401689 - 2404076&lt;br&gt;&lt;br&gt;&lt;b&gt;BlastP hit with MCIC6FC_019654&lt;/b&gt;&lt;br&gt;Percentage identity: 31&lt;br&gt;Percentage coverage: 62&lt;br&gt;BLAST bit score: 123&lt;br&gt;E-value: 4.6e-26" locus_tag="BMY50_RS10415" class="clusterblast-orf" id="dummy-1_h1_3_5"  />
</g>
<g id="a1_006"  >
<polygon points="629,90 695,90 700,85 695,80 629,80 629,90 " style="fill:white; stroke-width:1; stroke:black; " description="&lt;b&gt;BMY50_RS10420&lt;/b&gt;&lt;br&gt;DUF1624 domain-containing protein&lt;br&gt;Location: 2404144 - 2405316" locus_tag="BMY50_RS10420" class="clusterblast-orf" id="dummy-1_h1_3_6"  />
</g>
<g id="a1_007"  >
<polygon points="707,90 741,90 746,85 741,80 707,80 707,90 " style="fill:white; stroke-width:1; stroke:black; " description="&lt;b&gt;BMY50_RS10425&lt;/b&gt;&lt;br&gt;NTP transferase domain-containing protein&lt;br&gt;Location: 2405421 - 2406065" locus_tag="BMY50_RS10425" class="clusterblast-orf" id="dummy-1_h1_3_7"  />
</g>
</svg>
