<svg xmlns="http://www.w3.org/2000/svg" xmlns:xlink="http://www.w3.org/1999/xlink" version="1.1" x="0" y="0" height="230" width="800" viewBox="0 0 800 230" preserveAspectRatio="none"  >
<g label="Query sequence" class="clusterblast-cluster"  >
<text x="5" y="20" class="clusterblast-acc"  >
Query sequence</text>
<line x1="10" y1="35" x2="778.0" y2="35" style="stroke-width:1; stroke:grey; "  />
<polygon points="156,40 159,40 164,35 159,30 156,30 156,40 " style="fill:#d81515; stroke-width:1; stroke:black; " description="&lt;b&gt;MCIC6FC_020138&lt;/b&gt;&lt;br&gt;hypothetical protein&lt;br&gt;Location: 114 - 687" locus_tag="MCIC6FC_020138" class="clusterblast-orf" id="dummy-1_q0_0_all"  />
<polygon points="168,40 178,40 183,35 178,30 168,30 168,40 " style="fill:#4dd815; stroke-width:1; stroke:black; " description="&lt;b&gt;MCIC6FC_020139&lt;/b&gt;&lt;br&gt;hypothetical protein&lt;br&gt;Location: 960 - 1943" locus_tag="MCIC6FC_020139" class="clusterblast-orf" id="dummy-1_q1_0_all"  />
<polygon points="198,40 211,40 216,35 211,30 198,30 198,40 " style="fill:#1585d8; stroke-width:1; stroke:black; " description="&lt;b&gt;MCIC6FC_020140&lt;/b&gt;&lt;br&gt;hypothetical protein&lt;br&gt;Location: 2996 - 4226" locus_tag="MCIC6FC_020140" class="clusterblast-orf" id="dummy-1_q2_0_all"  />
<polygon points="221,40 236,40 241,35 236,30 221,30 221,40 " style="fill:#d815bc; stroke-width:1; stroke:black; " description="&lt;b&gt;MCIC6FC_020141&lt;/b&gt;&lt;br&gt;hypothetical protein&lt;br&gt;Location: 4568 - 5893" locus_tag="MCIC6FC_020141" class="clusterblast-orf" id="dummy-1_q3_0_all"  />
<polygon points="242,35 247,30 265,30 265,40 247,40 242,35 " style="fill:white; stroke-width:1; stroke:black; " description="&lt;b&gt;MCIC6FC_020142&lt;/b&gt;&lt;br&gt;hypothetical protein&lt;br&gt;Location: 5948 - 7562" locus_tag="MCIC6FC_020142" class="clusterblast-orf" id="dummy-1_q4_0_all"  />
<polygon points="285,35 290,30 405,30 405,40 290,40 285,35 " style="fill:#d8bc15; stroke-width:1; stroke:black; " description="&lt;b&gt;MCIC6FC_020143&lt;/b&gt;&lt;br&gt;hypothetical protein&lt;br&gt;Location: 8925 - 17130" locus_tag="MCIC6FC_020143" class="clusterblast-orf" id="dummy-1_q5_0_all"  />
<polygon points="407,35 412,30 420,30 420,40 412,40 407,35 " style="fill:#d8bc15; stroke-width:1; stroke:black; " description="&lt;b&gt;MCIC6FC_020144&lt;/b&gt;&lt;br&gt;hypothetical protein&lt;br&gt;Location: 17218 - 18097" locus_tag="MCIC6FC_020144" class="clusterblast-orf" id="dummy-1_q6_0_all"  />
<polygon points="421,35 426,30 431,30 431,40 426,40 421,35 " style="fill:#d8bc15; stroke-width:1; stroke:black; " description="&lt;b&gt;MCIC6FC_020145&lt;/b&gt;&lt;br&gt;hypothetical protein&lt;br&gt;Location: 18194 - 18878" locus_tag="MCIC6FC_020145" class="clusterblast-orf" id="dummy-1_q7_0_all"  />
<polygon points="456,35 461,30 485,30 485,40 461,40 456,35 " style="fill:#15d885; stroke-width:1; stroke:black; " description="&lt;b&gt;MCIC6FC_020146&lt;/b&gt;&lt;br&gt;hypothetical protein&lt;br&gt;Location: 20591 - 22534" locus_tag="MCIC6FC_020146" class="clusterblast-orf" id="dummy-1_q8_0_all"  />
<polygon points="488,35 493,30 503,30 503,40 493,40 488,35 " style="fill:white; stroke-width:1; stroke:black; " description="&lt;b&gt;MCIC6FC_020147&lt;/b&gt;&lt;br&gt;hypothetical protein&lt;br&gt;Location: 22743 - 23808" locus_tag="MCIC6FC_020147" class="clusterblast-orf" id="dummy-1_q9_0_all"  />
<polygon points="503,35 508,30 529,30 529,40 508,40 503,35 " style="fill:white; stroke-width:1; stroke:black; " description="&lt;b&gt;MCIC6FC_020148&lt;/b&gt;&lt;br&gt;hypothetical protein&lt;br&gt;Location: 23809 - 25562" locus_tag="MCIC6FC_020148" class="clusterblast-orf" id="dummy-1_q10_0_all"  />
<polygon points="530,35 535,30 575,30 575,40 535,40 530,35 " style="fill:#4d15d8; stroke-width:1; stroke:black; " description="&lt;b&gt;MCIC6FC_020149&lt;/b&gt;&lt;br&gt;hypothetical protein&lt;br&gt;Location: 25630 - 28698" locus_tag="MCIC6FC_020149" class="clusterblast-orf" id="dummy-1_q11_0_all"  />
<polygon points="576,35 581,30 623,30 623,40 581,40 576,35 " style="fill:white; stroke-width:1; stroke:black; " description="&lt;b&gt;MCIC6FC_020150&lt;/b&gt;&lt;br&gt;hypothetical protein&lt;br&gt;Location: 28737 - 31983" locus_tag="MCIC6FC_020150" class="clusterblast-orf" id="dummy-1_q12_0_all"  />
</g>
<g label="NZ_AYSJ01000014" description="NZ_AYSJ01000014 (294242-347435): Photorhabdus khanii NC19 PTE gnl UNH Scaf 14... (18% of genes show similarity), NRPS" class="clusterblast-cluster"  >
<text x="5" y="70" class="clusterblast-acc"  >
<a xlink:href="https://antismash-db.secondarymetabolites.org/area.html?record=NZ_AYSJ01000014&amp;start=294242&amp;end=347435" target="_blank">NZ_AYSJ01000014 (294242-347435)</a>: Photorhabdus khanii NC19 PTE gnl UNH Scaf 14... (18% of genes show similarity), NRPS</text>
<line x1="10" y1="85" x2="778.0" y2="85" style="stroke-width:1; stroke:grey; "  />
</g>
<g id="a1_000"  >
<polygon points="0,90 8,90 13,85 8,80 0,80 0,90 " style="fill:white; stroke-width:1; stroke:black; " description="&lt;b&gt;PTE_RS17030&lt;/b&gt;&lt;br&gt;DNA-binding transcriptional regulator DsdC&lt;br&gt;Location: 347435 - 346497" locus_tag="PTE_RS17030" class="clusterblast-orf" id="dummy-1_h1_4_0"  />
</g>
<g id="a1_001"  >
<polygon points="25,90 28,90 33,85 28,80 25,80 25,90 " style="fill:white; stroke-width:1; stroke:black; " description="&lt;b&gt;PTE_RS17025&lt;/b&gt;&lt;br&gt;outer membrane beta-barrel protein&lt;br&gt;Location: 345687 - 345157" locus_tag="PTE_RS17025" class="clusterblast-orf" id="dummy-1_h1_4_1"  />
</g>
<g id="a1_002"  >
<polygon points="34,90 37,85 34,80 34,90 " style="fill:white; stroke-width:1; stroke:black; " description="&lt;b&gt;PTE_RS25200&lt;/b&gt;&lt;br&gt;tail fiber assembly protein&lt;br&gt;Location: 345109 - 344876" locus_tag="PTE_RS25200" class="clusterblast-orf" id="dummy-1_h1_4_2"  />
</g>
<g id="a1_003"  >
<polygon points="44,90 60,90 65,85 60,80 44,80 44,90 " style="fill:white; stroke-width:1; stroke:black; " description="&lt;b&gt;PTE_RS17015&lt;/b&gt;&lt;br&gt;D-serine/D-alanine/glycine transporter&lt;br&gt;Location: 344392 - 342986" locus_tag="PTE_RS17015" class="clusterblast-orf" id="dummy-1_h1_4_3"  />
</g>
<g id="a1_004"  >
<polygon points="66,85 71,80 87,80 87,90 71,90 66,85 " style="fill:white; stroke-width:1; stroke:black; " description="&lt;b&gt;PTE_RS17010&lt;/b&gt;&lt;br&gt;sodium/proline symporter PutP&lt;br&gt;Location: 342926 - 341442" locus_tag="PTE_RS17010" class="clusterblast-orf" id="dummy-1_h1_4_4"  />
</g>
<g id="a1_005"  >
<polygon points="95,90 148,90 153,85 148,80 95,80 95,90 " style="fill:white; stroke-width:1; stroke:black; " description="&lt;b&gt;PTE_RS17005&lt;/b&gt;&lt;br&gt;trifunctional transcriptional regulator/proline dehydrogenase/L-glutamate gamma-semialdehyde dehydrogenase&lt;br&gt;Location: 340955 - 336975" locus_tag="PTE_RS17005" class="clusterblast-orf" id="dummy-1_h1_4_5"  />
</g>
<g id="a1_006"  >
<polygon points="154,85 159,80 162,80 162,90 159,90 154,85 " style="fill:white; stroke-width:1; stroke:black; " description="&lt;b&gt;PTE_RS17000&lt;/b&gt;&lt;br&gt;flagella biosynthesis regulatory protein FliZ&lt;br&gt;Location: 336894 - 336382" locus_tag="PTE_RS17000" class="clusterblast-orf" id="dummy-1_h1_4_6"  />
</g>
<g id="a1_007"  >
<polygon points="162,85 167,80 173,80 173,90 167,90 162,85 " style="fill:white; stroke-width:1; stroke:black; " description="&lt;b&gt;PTE_RS16995&lt;/b&gt;&lt;br&gt;RNA polymerase sigma factor FliA&lt;br&gt;Location: 336329 - 335607" locus_tag="PTE_RS16995" class="clusterblast-orf" id="dummy-1_h1_4_7"  />
</g>
<g id="a1_008"  >
<polygon points="177,85 182,80 192,80 192,90 182,90 177,85 " style="fill:white; stroke-width:1; stroke:black; " description="&lt;b&gt;PTE_RS16990&lt;/b&gt;&lt;br&gt;flagellin FliC&lt;br&gt;Location: 335360 - 334284" locus_tag="PTE_RS16990" class="clusterblast-orf" id="dummy-1_h1_4_8"  />
</g>
<g id="a1_009"  >
<polygon points="196,90 212,90 217,85 212,80 196,80 196,90 " style="fill:white; stroke-width:1; stroke:black; " description="&lt;b&gt;PTE_RS16985&lt;/b&gt;&lt;br&gt;flagellar filament capping protein FliD&lt;br&gt;Location: 334010 - 332577" locus_tag="PTE_RS16985" class="clusterblast-orf" id="dummy-1_h1_4_9"  />
</g>
<g id="a1_0010"  >
<polygon points="218,90 219,90 224,85 219,80 218,80 218,90 " style="fill:white; stroke-width:1; stroke:black; " description="&lt;b&gt;PTE_RS16980&lt;/b&gt;&lt;br&gt;flagellar export chaperone FliS&lt;br&gt;Location: 332564 - 332154" locus_tag="PTE_RS16980" class="clusterblast-orf" id="dummy-1_h1_4_10"  />
</g>
<g id="a1_0011"  >
<polygon points="224,90 224,90 229,85 224,80 224,80 224,90 " style="fill:white; stroke-width:1; stroke:black; " description="&lt;b&gt;PTE_RS16975&lt;/b&gt;&lt;br&gt;flagella biosynthesis regulatory protein FliT&lt;br&gt;Location: 332154 - 331780" locus_tag="PTE_RS16975" class="clusterblast-orf" id="dummy-1_h1_4_11"  />
</g>
<g id="a1_0012"  >
<polygon points="231,85 236,80 243,80 243,90 236,90 231,85 " style="fill:white; stroke-width:1; stroke:black; " description="&lt;b&gt;PTE_RS16970&lt;/b&gt;&lt;br&gt;DUF2829 domain-containing protein&lt;br&gt;Location: 331666 - 330860" locus_tag="PTE_RS16970" class="clusterblast-orf" id="dummy-1_h1_4_12"  />
</g>
<g id="a1_0013"  >
<polygon points="250,90 251,85 250,80 250,90 " style="fill:white; stroke-width:1; stroke:black; " description="&lt;b&gt;PTE_RS23960&lt;/b&gt;&lt;br&gt;peptidase&lt;br&gt;Location: 330367 - 330251" locus_tag="PTE_RS23960" class="clusterblast-orf" id="dummy-1_h1_4_13"  />
</g>
<g id="a1_0014"  >
<polygon points="254,90 259,90 264,85 259,80 254,80 254,90 " style="fill:white; stroke-width:1; stroke:black; " description="&lt;b&gt;PTE_RS16965&lt;/b&gt;&lt;br&gt;helix-turn-helix domain-containing protein&lt;br&gt;Location: 330113 - 329365" locus_tag="PTE_RS16965" class="clusterblast-orf" id="dummy-1_h1_4_14"  />
</g>
<g id="a1_0015"  >
<polygon points="270,85 275,80 369,80 369,90 275,90 270,85 " style="fill:#d8bc15; stroke-width:1; stroke:black; " description="&lt;b&gt;PTE_RS16955&lt;/b&gt;&lt;br&gt;amino acid adenylation domain-containing protein&lt;br&gt;Location: 328993 - 322268&lt;br&gt;&lt;br&gt;&lt;b&gt;BlastP hit with MCIC6FC_020144&lt;/b&gt;&lt;br&gt;Percentage identity: 32&lt;br&gt;Percentage coverage: 93&lt;br&gt;BLAST bit score: 84&lt;br&gt;E-value: 1.5e-14" locus_tag="PTE_RS16955" class="clusterblast-orf" id="dummy-1_h1_4_15"  />
</g>
<g id="a1_0016"  >
<polygon points="371,85 376,80 487,80 487,90 376,90 371,85 " style="fill:#d8bc15; stroke-width:1; stroke:black; " description="&lt;b&gt;PTE_RS16950&lt;/b&gt;&lt;br&gt;non-ribosomal peptide synthetase&lt;br&gt;Location: 322105 - 314183&lt;br&gt;&lt;br&gt;&lt;b&gt;BlastP hit with MCIC6FC_020144&lt;/b&gt;&lt;br&gt;Percentage identity: 31&lt;br&gt;Percentage coverage: 142&lt;br&gt;BLAST bit score: 91&lt;br&gt;E-value: 1.2e-16" locus_tag="PTE_RS16950" class="clusterblast-orf" id="dummy-1_h1_4_16"  />
</g>
<g id="a1_0017"  >
<polygon points="492,90 494,85 492,80 492,90 " style="fill:white; stroke-width:1; stroke:black; " description="&lt;b&gt;PTE_RS25195&lt;/b&gt;&lt;br&gt;IS630 family transposase&lt;br&gt;Location: 313861 - 313705" locus_tag="PTE_RS25195" class="clusterblast-orf" id="dummy-1_h1_4_17"  />
</g>
<g id="a1_0018"  >
<polygon points="519,85 524,80 535,80 535,90 524,90 519,85 " style="fill:white; stroke-width:1; stroke:black; " description="&lt;b&gt;PTE_RS16945&lt;/b&gt;&lt;br&gt;ISAs1 family transposase&lt;br&gt;Location: 312031 - 310934" locus_tag="PTE_RS16945" class="clusterblast-orf" id="dummy-1_h1_4_18"  />
</g>
<g id="a1_0019"  >
<polygon points="541,85 545,80 545,90 541,85 " style="fill:white; stroke-width:1; stroke:black; " description="&lt;b&gt;PTE_RS16940&lt;/b&gt;&lt;br&gt;flagellar hook-basal body complex protein FliE&lt;br&gt;Location: 310533 - 310222" locus_tag="PTE_RS16940" class="clusterblast-orf" id="dummy-1_h1_4_19"  />
</g>
<g id="a1_0020"  >
<polygon points="549,90 569,90 574,85 569,80 549,80 549,90 " style="fill:white; stroke-width:1; stroke:black; " description="&lt;b&gt;PTE_RS16935&lt;/b&gt;&lt;br&gt;flagellar M-ring protein FliF&lt;br&gt;Location: 309937 - 308234" locus_tag="PTE_RS16935" class="clusterblast-orf" id="dummy-1_h1_4_20"  />
</g>
<g id="a1_0021"  >
<polygon points="574,90 584,90 589,85 584,80 574,80 574,90 " style="fill:white; stroke-width:1; stroke:black; " description="&lt;b&gt;PTE_RS16930&lt;/b&gt;&lt;br&gt;flagellar motor switch protein FliG&lt;br&gt;Location: 308237 - 307245" locus_tag="PTE_RS16930" class="clusterblast-orf" id="dummy-1_h1_4_21"  />
</g>
<g id="a1_0022"  >
<polygon points="589,90 594,90 599,85 594,80 589,80 589,90 " style="fill:white; stroke-width:1; stroke:black; " description="&lt;b&gt;PTE_RS16925&lt;/b&gt;&lt;br&gt;flagellar assembly protein FliH&lt;br&gt;Location: 307252 - 306548" locus_tag="PTE_RS16925" class="clusterblast-orf" id="dummy-1_h1_4_22"  />
</g>
<g id="a1_0023"  >
<polygon points="599,90 614,90 619,85 614,80 599,80 599,90 " style="fill:#d81515; stroke-width:1; stroke:black; " description="&lt;b&gt;PTE_RS16920&lt;/b&gt;&lt;br&gt;flagellum-specific ATP synthase FliI&lt;br&gt;Location: 306548 - 305184&lt;br&gt;&lt;br&gt;&lt;b&gt;BlastP hit with MCIC6FC_020138&lt;/b&gt;&lt;br&gt;Percentage identity: 61&lt;br&gt;Percentage coverage: 137&lt;br&gt;BLAST bit score: 201&lt;br&gt;E-value: 7.1e-50" locus_tag="PTE_RS16920" class="clusterblast-orf" id="dummy-1_h1_4_23"  />
</g>
<g id="a1_0024"  >
<polygon points="620,90 621,90 626,85 621,80 620,80 620,90 " style="fill:#4dd815; stroke-width:1; stroke:black; " description="&lt;b&gt;PTE_RS16915&lt;/b&gt;&lt;br&gt;flagella biosynthesis chaperone FliJ&lt;br&gt;Location: 305139 - 304696&lt;br&gt;&lt;br&gt;&lt;b&gt;BlastP hit with MCIC6FC_020139&lt;/b&gt;&lt;br&gt;Percentage identity: 45&lt;br&gt;Percentage coverage: 50&lt;br&gt;BLAST bit score: 59&lt;br&gt;E-value: 2.6e-07" locus_tag="PTE_RS16915" class="clusterblast-orf" id="dummy-1_h1_4_24"  />
</g>
<g id="a1_0025"  >
<polygon points="626,90 640,90 645,85 640,80 626,80 626,90 " style="fill:white; stroke-width:1; stroke:black; " description="&lt;b&gt;PTE_RS16910&lt;/b&gt;&lt;br&gt;flagellar hook-length control protein FliK&lt;br&gt;Location: 304696 - 303392" locus_tag="PTE_RS16910" class="clusterblast-orf" id="dummy-1_h1_4_25"  />
</g>
<g id="a1_0026"  >
<polygon points="648,90 650,90 655,85 650,80 648,80 648,90 " style="fill:#1585d8; stroke-width:1; stroke:black; " description="&lt;b&gt;PTE_RS16905&lt;/b&gt;&lt;br&gt;flagellar basal body-associated protein FliL&lt;br&gt;Location: 303200 - 302724&lt;br&gt;&lt;br&gt;&lt;b&gt;BlastP hit with MCIC6FC_020140&lt;/b&gt;&lt;br&gt;Percentage identity: 55&lt;br&gt;Percentage coverage: 34&lt;br&gt;BLAST bit score: 105&lt;br&gt;E-value: 9.2e-21" locus_tag="PTE_RS16905" class="clusterblast-orf" id="dummy-1_h1_4_26"  />
</g>
<g id="a1_0027"  >
<polygon points="655,90 665,90 670,85 665,80 655,80 655,90 " style="fill:#1585d8; stroke-width:1; stroke:black; " description="&lt;b&gt;PTE_RS16900&lt;/b&gt;&lt;br&gt;flagellar motor switch protein FliM&lt;br&gt;Location: 302718 - 301714&lt;br&gt;&lt;br&gt;&lt;b&gt;BlastP hit with MCIC6FC_020140&lt;/b&gt;&lt;br&gt;Percentage identity: 53&lt;br&gt;Percentage coverage: 80&lt;br&gt;BLAST bit score: 244&lt;br&gt;E-value: 1.3e-62" locus_tag="PTE_RS16900" class="clusterblast-orf" id="dummy-1_h1_4_27"  />
</g>
<g id="a1_0028"  >
<polygon points="670,90 671,90 676,85 671,80 670,80 670,90 " style="fill:white; stroke-width:1; stroke:black; " description="&lt;b&gt;PTE_RS16895&lt;/b&gt;&lt;br&gt;flagellar motor switch protein FliN&lt;br&gt;Location: 301721 - 301302" locus_tag="PTE_RS16895" class="clusterblast-orf" id="dummy-1_h1_4_28"  />
</g>
<g id="a1_0029"  >
<polygon points="678,90 678,90 683,85 678,80 678,80 678,90 " style="fill:white; stroke-width:1; stroke:black; " description="&lt;b&gt;PTE_RS16890&lt;/b&gt;&lt;br&gt;flagellar biosynthetic protein FliO&lt;br&gt;Location: 301192 - 300848" locus_tag="PTE_RS16890" class="clusterblast-orf" id="dummy-1_h1_4_29"  />
</g>
<g id="a1_0030"  >
<polygon points="683,90 689,90 694,85 689,80 683,80 683,90 " style="fill:#d815bc; stroke-width:1; stroke:black; " description="&lt;b&gt;PTE_RS16885&lt;/b&gt;&lt;br&gt;flagellar type III secretion system pore protein FliP&lt;br&gt;Location: 300798 - 300082&lt;br&gt;&lt;br&gt;&lt;b&gt;BlastP hit with MCIC6FC_020141&lt;/b&gt;&lt;br&gt;Percentage identity: 61&lt;br&gt;Percentage coverage: 58&lt;br&gt;BLAST bit score: 196&lt;br&gt;E-value: 3.4e-48" locus_tag="PTE_RS16885" class="clusterblast-orf" id="dummy-1_h1_4_30"  />
</g>
<g id="a1_0031"  >
<polygon points="694,90 698,85 694,80 694,90 " style="fill:white; stroke-width:1; stroke:black; " description="&lt;b&gt;PTE_RS16880&lt;/b&gt;&lt;br&gt;flagellar biosynthesis protein FliQ&lt;br&gt;Location: 300061 - 299792" locus_tag="PTE_RS16880" class="clusterblast-orf" id="dummy-1_h1_4_31"  />
</g>
<g id="a1_0032"  >
<polygon points="698,90 705,90 710,85 705,80 698,80 698,90 " style="fill:white; stroke-width:1; stroke:black; " description="&lt;b&gt;PTE_RS16875&lt;/b&gt;&lt;br&gt;flagellar type III secretion system protein FliR&lt;br&gt;Location: 299789 - 299007" locus_tag="PTE_RS16875" class="clusterblast-orf" id="dummy-1_h1_4_32"  />
</g>
<g id="a1_0033"  >
<polygon points="711,90 712,90 717,85 712,80 711,80 711,90 " style="fill:white; stroke-width:1; stroke:black; " description="&lt;b&gt;PTE_RS16870&lt;/b&gt;&lt;br&gt;cytidine deaminase&lt;br&gt;Location: 298886 - 298479" locus_tag="PTE_RS16870" class="clusterblast-orf" id="dummy-1_h1_4_33"  />
</g>
<g id="a1_0034"  >
<polygon points="735,85 740,80 742,80 742,90 740,90 735,85 " style="fill:white; stroke-width:1; stroke:black; " description="&lt;b&gt;PTE_RS16865&lt;/b&gt;&lt;br&gt;hypothetical protein&lt;br&gt;Location: 297263 - 296826" locus_tag="PTE_RS16865" class="clusterblast-orf" id="dummy-1_h1_4_34"  />
</g>
<g id="a1_0035"  >
<polygon points="743,85 748,80 756,80 756,90 748,90 743,85 " style="fill:white; stroke-width:1; stroke:black; " description="&lt;b&gt;PTE_RS22940&lt;/b&gt;&lt;br&gt;hypothetical protein&lt;br&gt;Location: 296755 - 295835" locus_tag="PTE_RS22940" class="clusterblast-orf" id="dummy-1_h1_4_35"  />
</g>
<g id="a1_0036"  >
<polygon points="756,85 761,80 780,80 780,90 761,90 756,85 " style="fill:white; stroke-width:1; stroke:black; " description="&lt;b&gt;PTE_RS16855&lt;/b&gt;&lt;br&gt;hypothetical protein&lt;br&gt;Location: 295838 - 294243" locus_tag="PTE_RS16855" class="clusterblast-orf" id="dummy-1_h1_4_36"  />
</g>
</svg>
