<svg xmlns="http://www.w3.org/2000/svg" xmlns:xlink="http://www.w3.org/1999/xlink" version="1.1" x="0" y="0" height="230" width="800" viewBox="0 0 800 230" preserveAspectRatio="none"  >
<g label="Query sequence" class="clusterblast-cluster"  >
<text x="5" y="20" class="clusterblast-acc"  >
Query sequence</text>
<line x1="10" y1="35" x2="778.0" y2="35" style="stroke-width:1; stroke:grey; "  />
<polygon points="0,40 112,40 117,35 112,30 0,30 0,40 " style="fill:#d81515; stroke-width:1; stroke:black; " description="&lt;b&gt;MCIC6FC_019652&lt;/b&gt;&lt;br&gt;hypothetical protein&lt;br&gt;Location: 118749 - 120664" locus_tag="MCIC6FC_019652" class="clusterblast-orf" id="dummy-1_q0_0_all"  />
<polygon points="145,40 533,40 538,35 533,30 145,30 145,40 " style="fill:#15d815; stroke-width:1; stroke:black; " description="&lt;b&gt;MCIC6FC_019653&lt;/b&gt;&lt;br&gt;hypothetical protein&lt;br&gt;Location: 121128 - 127587" locus_tag="MCIC6FC_019653" class="clusterblast-orf" id="dummy-1_q1_0_all"  />
<polygon points="556,40 775,40 780,35 775,30 556,30 556,40 " style="fill:#1515d8; stroke-width:1; stroke:black; " description="&lt;b&gt;MCIC6FC_019654&lt;/b&gt;&lt;br&gt;hypothetical protein&lt;br&gt;Location: 127885 - 131565" locus_tag="MCIC6FC_019654" class="clusterblast-orf" id="dummy-1_q2_0_all"  />
</g>
<g label="NZ_CP045417" description="NZ_CP045417 (2461521-2473978): Halomonas sp. THAF5a chromosome, complete genome (37% of genes show similarity), siderophore" class="clusterblast-cluster"  >
<text x="5" y="70" class="clusterblast-acc"  >
<a xlink:href="https://antismash-db.secondarymetabolites.org/area.html?record=NZ_CP045417&amp;start=2461521&amp;end=2473978" target="_blank">NZ_CP045417 (2461521-2473978)</a>: Halomonas sp. THAF5a chromosome, complete genome (37% of genes show similarity), siderophore</text>
<line x1="10" y1="85" x2="778.0" y2="85" style="stroke-width:1; stroke:grey; "  />
</g>
<g id="a1_000"  >
<polygon points="53,90 138,90 143,85 138,80 53,80 53,90 " style="fill:#d81515; stroke-width:1; stroke:black; " description="&lt;b&gt;FIU83_RS11100&lt;/b&gt;&lt;br&gt;aspartate aminotransferase family protein&lt;br&gt;Location: 2462519 - 2464003&lt;br&gt;&lt;br&gt;&lt;b&gt;BlastP hit with MCIC6FC_019652&lt;/b&gt;&lt;br&gt;Percentage identity: 42&lt;br&gt;Percentage coverage: 71&lt;br&gt;BLAST bit score: 233&lt;br&gt;E-value: 5.8e-59" locus_tag="FIU83_RS11100" class="clusterblast-orf" id="dummy-1_h1_5_0"  />
</g>
<g id="a1_001"  >
<polygon points="144,90 220,90 225,85 220,80 144,80 144,90 " style="fill:#15d815; stroke-width:1; stroke:black; " description="&lt;b&gt;FIU83_RS11105&lt;/b&gt;&lt;br&gt;SidA/IucD/PvdA family monooxygenase&lt;br&gt;Location: 2464021 - 2465349&lt;br&gt;&lt;br&gt;&lt;b&gt;BlastP hit with MCIC6FC_019653&lt;/b&gt;&lt;br&gt;Percentage identity: 44&lt;br&gt;Percentage coverage: 30&lt;br&gt;BLAST bit score: 328&lt;br&gt;E-value: 3.9e-87" locus_tag="FIU83_RS11105" class="clusterblast-orf" id="dummy-1_h1_5_1"  />
</g>
<g id="a1_002"  >
<polygon points="225,90 291,90 296,85 291,80 225,80 225,90 " style="fill:white; stroke-width:1; stroke:black; " description="&lt;b&gt;FIU83_RS11110&lt;/b&gt;&lt;br&gt;MFS transporter&lt;br&gt;Location: 2465346 - 2466518" locus_tag="FIU83_RS11110" class="clusterblast-orf" id="dummy-1_h1_5_2"  />
</g>
<g id="a1_003"  >
<polygon points="296,90 441,90 446,85 441,80 296,80 296,90 " style="fill:white; stroke-width:1; stroke:black; " description="&lt;b&gt;FIU83_RS11115&lt;/b&gt;&lt;br&gt;GNAT family N-acetyltransferase&lt;br&gt;Location: 2466522 - 2468978" locus_tag="FIU83_RS11115" class="clusterblast-orf" id="dummy-1_h1_5_3"  />
</g>
<g id="a1_004"  >
<polygon points="453,90 479,90 484,85 479,80 453,80 453,90 " style="fill:white; stroke-width:1; stroke:black; " description="&lt;b&gt;FIU83_RS11120&lt;/b&gt;&lt;br&gt;sigma-70 family RNA polymerase sigma factor&lt;br&gt;Location: 2469091 - 2469597" locus_tag="FIU83_RS11120" class="clusterblast-orf" id="dummy-1_h1_5_4"  />
</g>
<g id="a1_005"  >
<polygon points="488,90 530,90 535,85 530,80 488,80 488,90 " style="fill:white; stroke-width:1; stroke:black; " description="&lt;b&gt;FIU83_RS11125&lt;/b&gt;&lt;br&gt;siderophore-iron reductase FhuF&lt;br&gt;Location: 2469670 - 2470437" locus_tag="FIU83_RS11125" class="clusterblast-orf" id="dummy-1_h1_5_5"  />
</g>
<g id="a1_006"  >
<polygon points="537,90 587,90 592,85 587,80 537,80 537,90 " style="fill:white; stroke-width:1; stroke:black; " description="&lt;b&gt;FIU83_RS11130&lt;/b&gt;&lt;br&gt;helix-turn-helix domain-containing protein&lt;br&gt;Location: 2470477 - 2471373" locus_tag="FIU83_RS11130" class="clusterblast-orf" id="dummy-1_h1_5_6"  />
</g>
<g id="a1_007"  >
<polygon points="598,90 721,90 726,85 721,80 598,80 598,90 " style="fill:#1515d8; stroke-width:1; stroke:black; " description="&lt;b&gt;FIU83_RS11135&lt;/b&gt;&lt;br&gt;TonB-dependent siderophore receptor&lt;br&gt;Location: 2471477 - 2473585&lt;br&gt;&lt;br&gt;&lt;b&gt;BlastP hit with MCIC6FC_019654&lt;/b&gt;&lt;br&gt;Percentage identity: 35&lt;br&gt;Percentage coverage: 26&lt;br&gt;BLAST bit score: 66&lt;br&gt;E-value: 8.7e-09" locus_tag="FIU83_RS11135" class="clusterblast-orf" id="dummy-1_h1_5_7"  />
</g>
</svg>
