<svg xmlns="http://www.w3.org/2000/svg" xmlns:xlink="http://www.w3.org/1999/xlink" version="1.1" x="0" y="0" height="230" width="800" viewBox="0 0 800 230" preserveAspectRatio="none"  >
<g label="Query sequence" class="clusterblast-cluster"  >
<text x="5" y="20" class="clusterblast-acc"  >
Query sequence</text>
<line x1="10" y1="35" x2="778.0" y2="35" style="stroke-width:1; stroke:grey; "  />
<polygon points="0,35 5,30 414,30 414,40 5,40 0,35 " style="fill:#d81515; stroke-width:1; stroke:black; " description="&lt;b&gt;MCIC6FC_018158&lt;/b&gt;&lt;br&gt;hypothetical protein&lt;br&gt;Location: 80 - 6182" locus_tag="MCIC6FC_018158" class="clusterblast-orf" id="dummy-1_q0_0_all"  />
<polygon points="418,40 485,40 490,35 485,30 418,30 418,40 " style="fill:#15d815; stroke-width:1; stroke:black; " description="&lt;b&gt;MCIC6FC_018159&lt;/b&gt;&lt;br&gt;hypothetical protein&lt;br&gt;Location: 6243 - 7316" locus_tag="MCIC6FC_018159" class="clusterblast-orf" id="dummy-1_q1_0_all"  />
<polygon points="491,35 496,30 736,30 736,40 496,40 491,35 " style="fill:#1515d8; stroke-width:1; stroke:black; " description="&lt;b&gt;MCIC6FC_018160&lt;/b&gt;&lt;br&gt;hypothetical protein&lt;br&gt;Location: 7322 - 10946" locus_tag="MCIC6FC_018160" class="clusterblast-orf" id="dummy-1_q2_0_all"  />
<polygon points="746,35 751,30 780,30 780,40 751,40 746,35 " style="fill:#1515d8; stroke-width:1; stroke:black; " description="&lt;b&gt;MCIC6FC_018161&lt;/b&gt;&lt;br&gt;hypothetical protein&lt;br&gt;Location: 11087 - 11594" locus_tag="MCIC6FC_018161" class="clusterblast-orf" id="dummy-1_q3_0_all"  />
</g>
<g label="NZ_CP039374" description="NZ_CP039374 (913671-920743): Halomonas titanicae strain ANRCS81 chromosome, c... (25% of genes show similarity), ectoine" class="clusterblast-cluster"  >
<text x="5" y="70" class="clusterblast-acc"  >
<a xlink:href="https://antismash-db.secondarymetabolites.org/area.html?record=NZ_CP039374&amp;start=913671&amp;end=920743" target="_blank">NZ_CP039374 (913671-920743)</a>: Halomonas titanicae strain ANRCS81 chromosome, c... (25% of genes show similarity), ectoine</text>
<line x1="10" y1="85" x2="778.0" y2="85" style="stroke-width:1; stroke:grey; "  />
</g>
<g id="a1_000"  >
<polygon points="150,90 209,90 214,85 209,80 150,80 150,90 " style="fill:white; stroke-width:1; stroke:black; " description="&lt;b&gt;E8A47_RS04180&lt;/b&gt;&lt;br&gt;DUF808 family protein&lt;br&gt;Location: 913672 - 914622" locus_tag="E8A47_RS04180" class="clusterblast-orf" id="dummy-1_h1_10_0"  />
</g>
<g id="a1_001"  >
<polygon points="228,85 233,80 285,80 285,90 233,90 228,85 " style="fill:white; stroke-width:1; stroke:black; " description="&lt;b&gt;E8A47_RS04185&lt;/b&gt;&lt;br&gt;EamA family transporter&lt;br&gt;Location: 914825 - 915664" locus_tag="E8A47_RS04185" class="clusterblast-orf" id="dummy-1_h1_10_1"  />
</g>
<g id="a1_002"  >
<polygon points="286,85 291,80 311,80 311,90 291,90 286,85 " style="fill:white; stroke-width:1; stroke:black; " description="&lt;b&gt;E8A47_RS04190&lt;/b&gt;&lt;br&gt;hypothetical protein&lt;br&gt;Location: 915676 - 916047" locus_tag="E8A47_RS04190" class="clusterblast-orf" id="dummy-1_h1_10_2"  />
</g>
<g id="a1_003"  >
<polygon points="311,85 316,80 344,80 344,90 316,90 311,85 " style="fill:white; stroke-width:1; stroke:black; " description="&lt;b&gt;E8A47_RS04195&lt;/b&gt;&lt;br&gt;diaminobutyrate acetyltransferase&lt;br&gt;Location: 916044 - 916538" locus_tag="E8A47_RS04195" class="clusterblast-orf" id="dummy-1_h1_10_3"  />
</g>
<g id="a1_004"  >
<polygon points="351,90 407,90 412,85 407,80 351,80 351,90 " style="fill:white; stroke-width:1; stroke:black; " description="&lt;b&gt;E8A47_RS04200&lt;/b&gt;&lt;br&gt;LysR family transcriptional regulator&lt;br&gt;Location: 916633 - 917541" locus_tag="E8A47_RS04200" class="clusterblast-orf" id="dummy-1_h1_10_4"  />
</g>
<g id="a1_005"  >
<polygon points="432,90 487,90 492,85 487,80 432,80 432,90 " style="fill:white; stroke-width:1; stroke:black; " description="&lt;b&gt;E8A47_RS04205&lt;/b&gt;&lt;br&gt;alpha/beta fold hydrolase&lt;br&gt;Location: 917835 - 918716" locus_tag="E8A47_RS04205" class="clusterblast-orf" id="dummy-1_h1_10_5"  />
</g>
<g id="a1_006"  >
<polygon points="497,85 502,80 559,80 559,90 502,90 497,85 " style="fill:#d81515; stroke-width:1; stroke:black; " description="&lt;b&gt;E8A47_RS04210&lt;/b&gt;&lt;br&gt;EamA family transporter&lt;br&gt;Location: 918794 - 919714&lt;br&gt;&lt;br&gt;&lt;b&gt;BlastP hit with MCIC6FC_018158&lt;/b&gt;&lt;br&gt;Percentage identity: 40&lt;br&gt;Percentage coverage: 16&lt;br&gt;BLAST bit score: 183&lt;br&gt;E-value: 2e-43" locus_tag="E8A47_RS04210" class="clusterblast-orf" id="dummy-1_h1_10_6"  />
</g>
<g id="a1_007"  >
<polygon points="566,90 624,90 629,85 624,80 566,80 566,90 " style="fill:#15d815; stroke-width:1; stroke:black; " description="&lt;b&gt;E8A47_RS04215&lt;/b&gt;&lt;br&gt;LysR family transcriptional regulator&lt;br&gt;Location: 919808 - 920743&lt;br&gt;&lt;br&gt;&lt;b&gt;BlastP hit with MCIC6FC_018159&lt;/b&gt;&lt;br&gt;Percentage identity: 42&lt;br&gt;Percentage coverage: 92&lt;br&gt;BLAST bit score: 204&lt;br&gt;E-value: 1.9e-50" locus_tag="E8A47_RS04215" class="clusterblast-orf" id="dummy-1_h1_10_7"  />
</g>
</svg>
