<svg xmlns="http://www.w3.org/2000/svg" xmlns:xlink="http://www.w3.org/1999/xlink" version="1.1" x="0" y="0" height="230" width="800" viewBox="0 0 800 230" preserveAspectRatio="none"  >
<g label="Query sequence" class="clusterblast-cluster"  >
<text x="5" y="20" class="clusterblast-acc"  >
Query sequence</text>
<line x1="10" y1="35" x2="778.0" y2="35" style="stroke-width:1; stroke:grey; "  />
<polygon points="0,35 5,30 18,30 18,40 5,40 0,35 " style="fill:white; stroke-width:1; stroke:black; " description="&lt;b&gt;MCIC6FC_007663&lt;/b&gt;&lt;br&gt;hypothetical protein&lt;br&gt;Location: 1093721 - 1096121" locus_tag="MCIC6FC_007663" class="clusterblast-orf" id="dummy-4_q0_0_all"  />
<polygon points="21,40 21,40 26,35 21,30 21,30 21,40 " style="fill:#d81515; stroke-width:1; stroke:black; " description="&lt;b&gt;MCIC6FC_007664&lt;/b&gt;&lt;br&gt;hypothetical protein&lt;br&gt;Location: 1096391 - 1097087" locus_tag="MCIC6FC_007664" class="clusterblast-orf" id="dummy-4_q1_0_all"  />
<polygon points="27,35 32,30 40,30 40,40 32,40 27,35 " style="fill:#63d815; stroke-width:1; stroke:black; " description="&lt;b&gt;MCIC6FC_007665&lt;/b&gt;&lt;br&gt;hypothetical protein&lt;br&gt;Location: 1097151 - 1098795" locus_tag="MCIC6FC_007665" class="clusterblast-orf" id="dummy-4_q2_0_all"  />
<polygon points="40,35 45,30 63,30 63,40 45,40 40,35 " style="fill:#15b1d8; stroke-width:1; stroke:black; " description="&lt;b&gt;MCIC6FC_007666&lt;/b&gt;&lt;br&gt;hypothetical protein&lt;br&gt;Location: 1098900 - 1101713" locus_tag="MCIC6FC_007666" class="clusterblast-orf" id="dummy-4_q3_0_all"  />
<polygon points="68,35 73,30 76,30 76,40 73,40 68,35 " style="fill:#b115d8; stroke-width:1; stroke:black; " description="&lt;b&gt;MCIC6FC_007667&lt;/b&gt;&lt;br&gt;hypothetical protein&lt;br&gt;Location: 1102460 - 1103483" locus_tag="MCIC6FC_007667" class="clusterblast-orf" id="dummy-4_q4_0_all"  />
<polygon points="78,40 98,40 103,35 98,30 78,30 78,40 " style="fill:#d86315; stroke-width:1; stroke:black; " description="&lt;b&gt;MCIC6FC_007668&lt;/b&gt;&lt;br&gt;hypothetical protein&lt;br&gt;Location: 1103667 - 1106912" locus_tag="MCIC6FC_007668" class="clusterblast-orf" id="dummy-4_q5_0_all"  />
<polygon points="104,35 109,30 116,30 116,40 109,40 104,35 " style="fill:white; stroke-width:1; stroke:black; " description="&lt;b&gt;MCIC6FC_007669&lt;/b&gt;&lt;br&gt;hypothetical protein&lt;br&gt;Location: 1106991 - 1108552" locus_tag="MCIC6FC_007669" class="clusterblast-orf" id="dummy-4_q6_0_all"  />
<polygon points="118,40 150,40 155,35 150,30 118,30 118,40 " style="fill:#15d815; stroke-width:1; stroke:black; " description="&lt;b&gt;MCIC6FC_007670&lt;/b&gt;&lt;br&gt;hypothetical protein&lt;br&gt;Location: 1108741 - 1113501" locus_tag="MCIC6FC_007670" class="clusterblast-orf" id="dummy-4_q7_0_all"  />
<polygon points="156,40 198,40 203,35 198,30 156,30 156,40 " style="fill:white; stroke-width:1; stroke:black; " description="&lt;b&gt;MCIC6FC_007671&lt;/b&gt;&lt;br&gt;hypothetical protein&lt;br&gt;Location: 1113526 - 1119611" locus_tag="MCIC6FC_007671" class="clusterblast-orf" id="dummy-4_q8_0_all"  />
<polygon points="205,35 210,30 257,30 257,40 210,40 205,35 " style="fill:white; stroke-width:1; stroke:black; " description="&lt;b&gt;MCIC6FC_007672&lt;/b&gt;&lt;br&gt;hypothetical protein&lt;br&gt;Location: 1119764 - 1126360" locus_tag="MCIC6FC_007672" class="clusterblast-orf" id="dummy-4_q9_0_all"  />
<polygon points="266,40 269,40 274,35 269,30 266,30 266,40 " style="fill:white; stroke-width:1; stroke:black; " description="&lt;b&gt;MCIC6FC_007673&lt;/b&gt;&lt;br&gt;hypothetical protein&lt;br&gt;Location: 1127567 - 1128578" locus_tag="MCIC6FC_007673" class="clusterblast-orf" id="dummy-4_q10_0_all"  />
<polygon points="274,40 312,40 317,35 312,30 274,30 274,40 " style="fill:white; stroke-width:1; stroke:black; " description="&lt;b&gt;MCIC6FC_007674&lt;/b&gt;&lt;br&gt;hypothetical protein&lt;br&gt;Location: 1128582 - 1134029" locus_tag="MCIC6FC_007674" class="clusterblast-orf" id="dummy-4_q11_0_all"  />
<polygon points="317,40 337,40 342,35 337,30 317,30 317,40 " style="fill:white; stroke-width:1; stroke:black; " description="&lt;b&gt;MCIC6FC_007675&lt;/b&gt;&lt;br&gt;hypothetical protein&lt;br&gt;Location: 1134052 - 1137201" locus_tag="MCIC6FC_007675" class="clusterblast-orf" id="dummy-4_q12_0_all"  />
<polygon points="346,40 350,40 355,35 350,30 346,30 346,40 " style="fill:#1563d8; stroke-width:1; stroke:black; " description="&lt;b&gt;MCIC6FC_007676&lt;/b&gt;&lt;br&gt;hypothetical protein&lt;br&gt;Location: 1137745 - 1138843" locus_tag="MCIC6FC_007676" class="clusterblast-orf" id="dummy-4_q13_0_all"  />
<polygon points="355,40 369,40 374,35 369,30 355,30 355,40 " style="fill:#d815b1; stroke-width:1; stroke:black; " description="&lt;b&gt;MCIC6FC_007677&lt;/b&gt;&lt;br&gt;hypothetical protein&lt;br&gt;Location: 1138918 - 1141240" locus_tag="MCIC6FC_007677" class="clusterblast-orf" id="dummy-4_q14_0_all"  />
<polygon points="374,40 416,40 421,35 416,30 374,30 374,40 " style="fill:#d8b115; stroke-width:1; stroke:black; " description="&lt;b&gt;MCIC6FC_007678&lt;/b&gt;&lt;br&gt;hypothetical protein&lt;br&gt;Location: 1141329 - 1147247" locus_tag="MCIC6FC_007678" class="clusterblast-orf" id="dummy-4_q15_0_all"  />
<polygon points="423,35 428,30 431,30 431,40 428,40 423,35 " style="fill:#15d863; stroke-width:1; stroke:black; " description="&lt;b&gt;MCIC6FC_007679&lt;/b&gt;&lt;br&gt;hypothetical protein&lt;br&gt;Location: 1147487 - 1148477" locus_tag="MCIC6FC_007679" class="clusterblast-orf" id="dummy-4_q16_0_all"  />
<polygon points="432,40 444,40 449,35 444,30 432,30 432,40 " style="fill:#1515d8; stroke-width:1; stroke:black; " description="&lt;b&gt;MCIC6FC_007680&lt;/b&gt;&lt;br&gt;hypothetical protein&lt;br&gt;Location: 1148651 - 1150764" locus_tag="MCIC6FC_007680" class="clusterblast-orf" id="dummy-4_q17_0_all"  />
<polygon points="449,35 454,30 466,30 466,40 454,40 449,35 " style="fill:#1515d8; stroke-width:1; stroke:black; " description="&lt;b&gt;MCIC6FC_007681&lt;/b&gt;&lt;br&gt;hypothetical protein&lt;br&gt;Location: 1150848 - 1152996" locus_tag="MCIC6FC_007681" class="clusterblast-orf" id="dummy-4_q18_0_all"  />
<polygon points="467,35 472,30 498,30 498,40 472,40 467,35 " style="fill:#d81563; stroke-width:1; stroke:black; " description="&lt;b&gt;MCIC6FC_007682&lt;/b&gt;&lt;br&gt;hypothetical protein&lt;br&gt;Location: 1153029 - 1156964" locus_tag="MCIC6FC_007682" class="clusterblast-orf" id="dummy-4_q19_0_all"  />
<polygon points="500,40 545,40 550,35 545,30 500,30 500,40 " style="fill:#15d815; stroke-width:1; stroke:black; " description="&lt;b&gt;MCIC6FC_007683&lt;/b&gt;&lt;br&gt;hypothetical protein&lt;br&gt;Location: 1157259 - 1163679" locus_tag="MCIC6FC_007683" class="clusterblast-orf" id="dummy-4_q20_0_all"  />
<polygon points="551,40 625,40 630,35 625,30 551,30 551,40 " style="fill:#15d815; stroke-width:1; stroke:black; " description="&lt;b&gt;MCIC6FC_007684&lt;/b&gt;&lt;br&gt;hypothetical protein&lt;br&gt;Location: 1163717 - 1173743" locus_tag="MCIC6FC_007684" class="clusterblast-orf" id="dummy-4_q21_0_all"  />
<polygon points="630,40 710,40 715,35 710,30 630,30 630,40 " style="fill:#15d815; stroke-width:1; stroke:black; " description="&lt;b&gt;MCIC6FC_007685&lt;/b&gt;&lt;br&gt;hypothetical protein&lt;br&gt;Location: 1173784 - 1184642" locus_tag="MCIC6FC_007685" class="clusterblast-orf" id="dummy-4_q22_0_all"  />
<polygon points="715,40 737,40 742,35 737,30 715,30 715,40 " style="fill:#b1d815; stroke-width:1; stroke:black; " description="&lt;b&gt;MCIC6FC_007686&lt;/b&gt;&lt;br&gt;hypothetical protein&lt;br&gt;Location: 1184649 - 1188017" locus_tag="MCIC6FC_007686" class="clusterblast-orf" id="dummy-4_q23_0_all"  />
<polygon points="743,40 762,40 767,35 762,30 743,30 743,40 " style="fill:#15d8b1; stroke-width:1; stroke:black; " description="&lt;b&gt;MCIC6FC_007687&lt;/b&gt;&lt;br&gt;hypothetical protein&lt;br&gt;Location: 1188087 - 1191138" locus_tag="MCIC6FC_007687" class="clusterblast-orf" id="dummy-4_q24_0_all"  />
<polygon points="767,35 772,30 780,30 780,40 772,40 767,35 " style="fill:#6315d8; stroke-width:1; stroke:black; " description="&lt;b&gt;MCIC6FC_007688&lt;/b&gt;&lt;br&gt;hypothetical protein&lt;br&gt;Location: 1191187 - 1192790" locus_tag="MCIC6FC_007688" class="clusterblast-orf" id="dummy-4_q25_0_all"  />
</g>
<g label="NZ_AYTD01000011" description="NZ_AYTD01000011 (107867-171673): Pseudomonas canadensis strain Feb-92 scaffol... (54% of genes show similarity), NRPS" class="clusterblast-cluster"  >
<text x="5" y="70" class="clusterblast-acc"  >
<a xlink:href="https://antismash-db.secondarymetabolites.org/area.html?record=NZ_AYTD01000011&amp;start=107867&amp;end=171673" target="_blank">NZ_AYTD01000011 (107867-171673)</a>: Pseudomonas canadensis strain Feb-92 scaffol... (54% of genes show similarity), NRPS</text>
<line x1="10" y1="85" x2="778.0" y2="85" style="stroke-width:1; stroke:grey; "  />
</g>
<g id="a4_000"  >
<polygon points="148,90 148,90 153,85 148,80 148,80 148,90 " style="fill:#d81515; stroke-width:1; stroke:black; " description="&lt;b&gt;U367_RS0105830&lt;/b&gt;&lt;br&gt;pirin family protein&lt;br&gt;Location: 170400 - 169705&lt;br&gt;&lt;br&gt;&lt;b&gt;BlastP hit with MCIC6FC_007664&lt;/b&gt;&lt;br&gt;Percentage identity: 95&lt;br&gt;Percentage coverage: 100&lt;br&gt;BLAST bit score: 458&lt;br&gt;E-value: 3.1e-127" locus_tag="U367_RS0105830" class="clusterblast-orf" id="dummy-4_h4_6_0"  />
</g>
<g id="a4_001"  >
<polygon points="154,85 159,80 167,80 167,90 159,90 154,85 " style="fill:#63d815; stroke-width:1; stroke:black; " description="&lt;b&gt;U367_RS0105825&lt;/b&gt;&lt;br&gt;alpha-D-glucose phosphate-specific phosphoglucomutase&lt;br&gt;Location: 169628 - 167985&lt;br&gt;&lt;br&gt;&lt;b&gt;BlastP hit with MCIC6FC_007665&lt;/b&gt;&lt;br&gt;Percentage identity: 99&lt;br&gt;Percentage coverage: 100&lt;br&gt;BLAST bit score: 1099&lt;br&gt;E-value: 0.0" locus_tag="U367_RS0105825" class="clusterblast-orf" id="dummy-4_h4_6_1"  />
</g>
<g id="a4_002"  >
<polygon points="168,85 173,80 179,80 179,90 173,90 168,85 " style="fill:#15b1d8; stroke-width:1; stroke:black; " description="&lt;b&gt;U367_RS01000000129900&lt;/b&gt;&lt;br&gt;PLP-dependent aminotransferase family protein&lt;br&gt;Location: 167878 - 166472&lt;br&gt;&lt;br&gt;&lt;b&gt;BlastP hit with MCIC6FC_007666&lt;/b&gt;&lt;br&gt;Percentage identity: 86&lt;br&gt;Percentage coverage: 15&lt;br&gt;BLAST bit score: 232&lt;br&gt;E-value: 1.9e-58" locus_tag="U367_RS01000000129900" class="clusterblast-orf" id="dummy-4_h4_6_2"  />
</g>
<g id="a4_003"  >
<polygon points="179,85 184,80 190,80 190,90 184,90 179,85 " style="fill:#15b1d8; stroke-width:1; stroke:black; " description="&lt;b&gt;U367_RS0105815&lt;/b&gt;&lt;br&gt;hypothetical protein&lt;br&gt;Location: 166475 - 165066&lt;br&gt;&lt;br&gt;&lt;b&gt;BlastP hit with MCIC6FC_007666&lt;/b&gt;&lt;br&gt;Percentage identity: 72&lt;br&gt;Percentage coverage: 49&lt;br&gt;BLAST bit score: 659&lt;br&gt;E-value: 4.8e-187" locus_tag="U367_RS0105815" class="clusterblast-orf" id="dummy-4_h4_6_3"  />
</g>
<g id="a4_004"  >
<polygon points="195,85 200,80 203,80 203,90 200,90 195,85 " style="fill:#b115d8; stroke-width:1; stroke:black; " description="&lt;b&gt;U367_RS0105810&lt;/b&gt;&lt;br&gt;zinc-dependent alcohol dehydrogenase family protein&lt;br&gt;Location: 164362 - 163340&lt;br&gt;&lt;br&gt;&lt;b&gt;BlastP hit with MCIC6FC_007667&lt;/b&gt;&lt;br&gt;Percentage identity: 98&lt;br&gt;Percentage coverage: 100&lt;br&gt;BLAST bit score: 675&lt;br&gt;E-value: 2.4e-192" locus_tag="U367_RS0105810" class="clusterblast-orf" id="dummy-4_h4_6_4"  />
</g>
<g id="a4_005"  >
<polygon points="205,90 208,90 213,85 208,80 205,80 205,90 " style="fill:white; stroke-width:1; stroke:black; " description="&lt;b&gt;U367_RS0105805&lt;/b&gt;&lt;br&gt;LysR family transcriptional regulator&lt;br&gt;Location: 163135 - 162178" locus_tag="U367_RS0105805" class="clusterblast-orf" id="dummy-4_h4_6_5"  />
</g>
<g id="a4_006"  >
<polygon points="213,85 218,80 221,80 221,90 218,90 213,85 " style="fill:#15d863; stroke-width:1; stroke:black; " description="&lt;b&gt;U367_RS01000000129895&lt;/b&gt;&lt;br&gt;helix-turn-helix transcriptional regulator&lt;br&gt;Location: 162101 - 161145&lt;br&gt;&lt;br&gt;&lt;b&gt;BlastP hit with MCIC6FC_007679&lt;/b&gt;&lt;br&gt;Percentage identity: 95&lt;br&gt;Percentage coverage: 96&lt;br&gt;BLAST bit score: 612&lt;br&gt;E-value: 2.4e-173" locus_tag="U367_RS01000000129895" class="clusterblast-orf" id="dummy-4_h4_6_6"  />
</g>
<g id="a4_007"  >
<polygon points="223,90 234,90 239,85 234,80 223,80 223,90 " style="fill:#1515d8; stroke-width:1; stroke:black; " description="&lt;b&gt;U367_RS0105795&lt;/b&gt;&lt;br&gt;TonB-dependent receptor&lt;br&gt;Location: 160879 - 158828&lt;br&gt;&lt;br&gt;&lt;b&gt;BlastP hit with MCIC6FC_007680&lt;/b&gt;&lt;br&gt;Percentage identity: 97&lt;br&gt;Percentage coverage: 98&lt;br&gt;BLAST bit score: 1307&lt;br&gt;E-value: 0.0&lt;br&gt;&lt;br&gt;&lt;b&gt;BlastP hit with MCIC6FC_007681&lt;/b&gt;&lt;br&gt;Percentage identity: 57&lt;br&gt;Percentage coverage: 94&lt;br&gt;BLAST bit score: 767&lt;br&gt;E-value: 9.7e-220" locus_tag="U367_RS0105795" class="clusterblast-orf" id="dummy-4_h4_6_7"  />
</g>
<g id="a4_008"  >
<polygon points="241,90 244,85 241,80 241,90 " style="fill:white; stroke-width:1; stroke:black; " description="&lt;b&gt;U367_RS0105790&lt;/b&gt;&lt;br&gt;transposase&lt;br&gt;Location: 158623 - 158165" locus_tag="U367_RS0105790" class="clusterblast-orf" id="dummy-4_h4_6_8"  />
</g>
<g id="a4_009"  >
<polygon points="245,85 250,80 262,80 262,90 250,90 245,85 " style="fill:#1515d8; stroke-width:1; stroke:black; " description="&lt;b&gt;U367_RS0105785&lt;/b&gt;&lt;br&gt;TonB-dependent receptor&lt;br&gt;Location: 158083 - 155936&lt;br&gt;&lt;br&gt;&lt;b&gt;BlastP hit with MCIC6FC_007680&lt;/b&gt;&lt;br&gt;Percentage identity: 57&lt;br&gt;Percentage coverage: 98&lt;br&gt;BLAST bit score: 768&lt;br&gt;E-value: 7.1e-220&lt;br&gt;&lt;br&gt;&lt;b&gt;BlastP hit with MCIC6FC_007681&lt;/b&gt;&lt;br&gt;Percentage identity: 99&lt;br&gt;Percentage coverage: 100&lt;br&gt;BLAST bit score: 1413&lt;br&gt;E-value: 0.0" locus_tag="U367_RS0105785" class="clusterblast-orf" id="dummy-4_h4_6_9"  />
</g>
<g id="a4_0010"  >
<polygon points="262,85 267,80 286,80 286,90 267,90 262,85 " style="fill:#d81563; stroke-width:1; stroke:black; " description="&lt;b&gt;U367_RS0105780&lt;/b&gt;&lt;br&gt;membrane protein&lt;br&gt;Location: 155902 - 152849&lt;br&gt;&lt;br&gt;&lt;b&gt;BlastP hit with MCIC6FC_007682&lt;/b&gt;&lt;br&gt;Percentage identity: 99&lt;br&gt;Percentage coverage: 79&lt;br&gt;BLAST bit score: 1923&lt;br&gt;E-value: 0.0" locus_tag="U367_RS0105780" class="clusterblast-orf" id="dummy-4_h4_6_10"  />
</g>
<g id="a4_0011"  >
<polygon points="286,85 291,80 293,80 293,90 291,90 286,85 " style="fill:#d81563; stroke-width:1; stroke:black; " description="&lt;b&gt;U367_RS0105775&lt;/b&gt;&lt;br&gt;ABC transporter ATP-binding protein&lt;br&gt;Location: 152852 - 151968&lt;br&gt;&lt;br&gt;&lt;b&gt;BlastP hit with MCIC6FC_007682&lt;/b&gt;&lt;br&gt;Percentage identity: 100&lt;br&gt;Percentage coverage: 21&lt;br&gt;BLAST bit score: 528&lt;br&gt;E-value: 2.3e-147" locus_tag="U367_RS0105775" class="clusterblast-orf" id="dummy-4_h4_6_11"  />
</g>
<g id="a4_0012"  >
<polygon points="295,90 341,90 346,85 341,80 295,80 295,90 " style="fill:#15d815; stroke-width:1; stroke:black; " description="&lt;b&gt;U367_RS0105770&lt;/b&gt;&lt;br&gt;non-ribosomal peptide synthetase&lt;br&gt;Location: 151673 - 145254&lt;br&gt;&lt;br&gt;&lt;b&gt;BlastP hit with MCIC6FC_007683&lt;/b&gt;&lt;br&gt;Percentage identity: 100&lt;br&gt;Percentage coverage: 100&lt;br&gt;BLAST bit score: 4272&lt;br&gt;E-value: 0.0&lt;br&gt;&lt;br&gt;&lt;b&gt;BlastP hit with MCIC6FC_007684&lt;/b&gt;&lt;br&gt;Percentage identity: 43&lt;br&gt;Percentage coverage: 28&lt;br&gt;BLAST bit score: 651&lt;br&gt;E-value: 3.6e-184" locus_tag="U367_RS0105770" class="clusterblast-orf" id="dummy-4_h4_6_12"  />
</g>
<g id="a4_0013"  >
<polygon points="346,90 384,90 389,85 384,80 346,80 346,90 " style="fill:#15d815; stroke-width:1; stroke:black; " description="&lt;b&gt;U367_RS0105765&lt;/b&gt;&lt;br&gt;amino acid adenylation domain-containing protein&lt;br&gt;Location: 145215 - 139759&lt;br&gt;&lt;br&gt;&lt;b&gt;BlastP hit with MCIC6FC_007683&lt;/b&gt;&lt;br&gt;Percentage identity: 43&lt;br&gt;Percentage coverage: 43&lt;br&gt;BLAST bit score: 666&lt;br&gt;E-value: 7e-189&lt;br&gt;&lt;br&gt;&lt;b&gt;BlastP hit with MCIC6FC_007684&lt;/b&gt;&lt;br&gt;Percentage identity: 99&lt;br&gt;Percentage coverage: 55&lt;br&gt;BLAST bit score: 3543&lt;br&gt;E-value: 0.0&lt;br&gt;&lt;br&gt;&lt;b&gt;BlastP hit with MCIC6FC_007685&lt;/b&gt;&lt;br&gt;Percentage identity: 35&lt;br&gt;Percentage coverage: 13&lt;br&gt;BLAST bit score: 206&lt;br&gt;E-value: 4e-50" locus_tag="U367_RS0105765" class="clusterblast-orf" id="dummy-4_h4_6_13"  />
</g>
<g id="a4_0014"  >
<polygon points="389,90 398,90 403,85 398,80 389,80 389,90 " style="fill:#15d815; stroke-width:1; stroke:black; " description="&lt;b&gt;U367_RS0105760&lt;/b&gt;&lt;br&gt;ABC transporter ATP-binding protein&lt;br&gt;Location: 139762 - 138029&lt;br&gt;&lt;br&gt;&lt;b&gt;BlastP hit with MCIC6FC_007684&lt;/b&gt;&lt;br&gt;Percentage identity: 99&lt;br&gt;Percentage coverage: 17&lt;br&gt;BLAST bit score: 1039&lt;br&gt;E-value: 6.1e-301" locus_tag="U367_RS0105760" class="clusterblast-orf" id="dummy-4_h4_6_14"  />
</g>
<g id="a4_0015"  >
<polygon points="403,90 411,90 416,85 411,80 403,80 403,90 " style="fill:#15d815; stroke-width:1; stroke:black; " description="&lt;b&gt;U367_RS0105755&lt;/b&gt;&lt;br&gt;ABC transporter ATP-binding protein&lt;br&gt;Location: 138032 - 136287&lt;br&gt;&lt;br&gt;&lt;b&gt;BlastP hit with MCIC6FC_007684&lt;/b&gt;&lt;br&gt;Percentage identity: 99&lt;br&gt;Percentage coverage: 17&lt;br&gt;BLAST bit score: 1053&lt;br&gt;E-value: 4.1e-305" locus_tag="U367_RS0105755" class="clusterblast-orf" id="dummy-4_h4_6_15"  />
</g>
<g id="a4_0016"  >
<polygon points="416,90 420,90 425,85 420,80 416,80 416,90 " style="fill:#15d815; stroke-width:1; stroke:black; " description="&lt;b&gt;U367_RS0105750&lt;/b&gt;&lt;br&gt;saccharopine dehydrogenase NADP-binding domain-containing protein&lt;br&gt;Location: 136293 - 135190&lt;br&gt;&lt;br&gt;&lt;b&gt;BlastP hit with MCIC6FC_007684&lt;/b&gt;&lt;br&gt;Percentage identity: 100&lt;br&gt;Percentage coverage: 11&lt;br&gt;BLAST bit score: 738&lt;br&gt;E-value: 2.2e-210" locus_tag="U367_RS0105750" class="clusterblast-orf" id="dummy-4_h4_6_16"  />
</g>
<g id="a4_0017"  >
<polygon points="425,90 428,90 433,85 428,80 425,80 425,90 " style="fill:white; stroke-width:1; stroke:black; " description="&lt;b&gt;U367_RS0105745&lt;/b&gt;&lt;br&gt;class I SAM-dependent methyltransferase&lt;br&gt;Location: 135193 - 134159" locus_tag="U367_RS0105745" class="clusterblast-orf" id="dummy-4_h4_6_17"  />
</g>
<g id="a4_0018"  >
<polygon points="433,90 441,90 446,85 441,80 433,80 433,90 " style="fill:#15d815; stroke-width:1; stroke:black; " description="&lt;b&gt;U367_RS0105740&lt;/b&gt;&lt;br&gt;class I SAM-dependent methyltransferase&lt;br&gt;Location: 134162 - 132492&lt;br&gt;&lt;br&gt;&lt;b&gt;BlastP hit with MCIC6FC_007685&lt;/b&gt;&lt;br&gt;Percentage identity: 99&lt;br&gt;Percentage coverage: 17&lt;br&gt;BLAST bit score: 1089&lt;br&gt;E-value: 0.0" locus_tag="U367_RS0105740" class="clusterblast-orf" id="dummy-4_h4_6_18"  />
</g>
<g id="a4_0019"  >
<polygon points="446,90 451,90 456,85 451,80 446,80 446,90 " style="fill:#15d815; stroke-width:1; stroke:black; " description="&lt;b&gt;U367_RS0105735&lt;/b&gt;&lt;br&gt;cytochrome P450&lt;br&gt;Location: 132495 - 131317&lt;br&gt;&lt;br&gt;&lt;b&gt;BlastP hit with MCIC6FC_007685&lt;/b&gt;&lt;br&gt;Percentage identity: 99&lt;br&gt;Percentage coverage: 11&lt;br&gt;BLAST bit score: 720&lt;br&gt;E-value: 6.4e-205" locus_tag="U367_RS0105735" class="clusterblast-orf" id="dummy-4_h4_6_19"  />
</g>
<g id="a4_0020"  >
<polygon points="456,90 460,90 465,85 460,80 456,80 456,90 " style="fill:#15d815; stroke-width:1; stroke:black; " description="&lt;b&gt;U367_RS0105730&lt;/b&gt;&lt;br&gt;Gfo/Idh/MocA family oxidoreductase&lt;br&gt;Location: 131320 - 130175&lt;br&gt;&lt;br&gt;&lt;b&gt;BlastP hit with MCIC6FC_007685&lt;/b&gt;&lt;br&gt;Percentage identity: 95&lt;br&gt;Percentage coverage: 11&lt;br&gt;BLAST bit score: 713&lt;br&gt;E-value: 7.8e-203" locus_tag="U367_RS0105730" class="clusterblast-orf" id="dummy-4_h4_6_20"  />
</g>
<g id="a4_0021"  >
<polygon points="465,90 465,90 470,85 465,80 465,80 465,90 " style="fill:white; stroke-width:1; stroke:black; " description="&lt;b&gt;U367_RS0105725&lt;/b&gt;&lt;br&gt;VOC family protein&lt;br&gt;Location: 130178 - 129459" locus_tag="U367_RS0105725" class="clusterblast-orf" id="dummy-4_h4_6_21"  />
</g>
<g id="a4_0022"  >
<polygon points="470,90 478,90 483,85 478,80 470,80 470,90 " style="fill:#15d815; stroke-width:1; stroke:black; " description="&lt;b&gt;U367_RS0105720&lt;/b&gt;&lt;br&gt;AMP-binding protein&lt;br&gt;Location: 129466 - 127868&lt;br&gt;&lt;br&gt;&lt;b&gt;BlastP hit with MCIC6FC_007670&lt;/b&gt;&lt;br&gt;Percentage identity: 38&lt;br&gt;Percentage coverage: 38&lt;br&gt;BLAST bit score: 312&lt;br&gt;E-value: 2.1e-82&lt;br&gt;&lt;br&gt;&lt;b&gt;BlastP hit with MCIC6FC_007685&lt;/b&gt;&lt;br&gt;Percentage identity: 95&lt;br&gt;Percentage coverage: 16&lt;br&gt;BLAST bit score: 1000&lt;br&gt;E-value: 4.2e-289" locus_tag="U367_RS0105720" class="clusterblast-orf" id="dummy-4_h4_6_22"  />
</g>
<g id="a4_0023"  >
<polygon points="483,90 484,90 489,85 484,80 483,80 483,90 " style="fill:white; stroke-width:1; stroke:black; " description="&lt;b&gt;U367_RS0105715&lt;/b&gt;&lt;br&gt;thioesterase&lt;br&gt;Location: 127871 - 127113" locus_tag="U367_RS0105715" class="clusterblast-orf" id="dummy-4_h4_6_23"  />
</g>
<g id="a4_0024"  >
<polygon points="489,90 491,85 489,80 489,90 " style="fill:white; stroke-width:1; stroke:black; " description="&lt;b&gt;U367_RS0105710&lt;/b&gt;&lt;br&gt;isochorismate lyase&lt;br&gt;Location: 127116 - 126808" locus_tag="U367_RS0105710" class="clusterblast-orf" id="dummy-4_h4_6_24"  />
</g>
<g id="a4_0025"  >
<polygon points="491,90 497,90 502,85 497,80 491,80 491,90 " style="fill:#15d815; stroke-width:1; stroke:black; " description="&lt;b&gt;U367_RS01000000129890&lt;/b&gt;&lt;br&gt;isochorismate synthase&lt;br&gt;Location: 126811 - 125426&lt;br&gt;&lt;br&gt;&lt;b&gt;BlastP hit with MCIC6FC_007685&lt;/b&gt;&lt;br&gt;Percentage identity: 86&lt;br&gt;Percentage coverage: 13&lt;br&gt;BLAST bit score: 779&lt;br&gt;E-value: 1.2e-222" locus_tag="U367_RS01000000129890" class="clusterblast-orf" id="dummy-4_h4_6_25"  />
</g>
<g id="a4_0026"  >
<polygon points="502,85 505,80 505,90 502,85 " style="fill:white; stroke-width:1; stroke:black; " description="&lt;b&gt;U367_RS0105700&lt;/b&gt;&lt;br&gt;RcnB family protein&lt;br&gt;Location: 125445 - 124999" locus_tag="U367_RS0105700" class="clusterblast-orf" id="dummy-4_h4_6_26"  />
</g>
<g id="a4_0027"  >
<polygon points="507,90 521,90 526,85 521,80 507,80 507,90 " style="fill:white; stroke-width:1; stroke:black; " description="&lt;b&gt;U367_RS0105695&lt;/b&gt;&lt;br&gt;TonB-dependent receptor&lt;br&gt;Location: 124757 - 122337" locus_tag="U367_RS0105695" class="clusterblast-orf" id="dummy-4_h4_6_27"  />
</g>
<g id="a4_0028"  >
<polygon points="527,90 534,90 539,85 534,80 527,80 527,90 " style="fill:white; stroke-width:1; stroke:black; " description="&lt;b&gt;U367_RS0105690&lt;/b&gt;&lt;br&gt;ABC transporter substrate-binding protein&lt;br&gt;Location: 122292 - 120682" locus_tag="U367_RS0105690" class="clusterblast-orf" id="dummy-4_h4_6_28"  />
</g>
<g id="a4_0029"  >
<polygon points="539,90 542,90 547,85 542,80 539,80 539,90 " style="fill:white; stroke-width:1; stroke:black; " description="&lt;b&gt;U367_RS0105685&lt;/b&gt;&lt;br&gt;ABC transporter permease&lt;br&gt;Location: 120685 - 119735" locus_tag="U367_RS0105685" class="clusterblast-orf" id="dummy-4_h4_6_29"  />
</g>
<g id="a4_0030"  >
<polygon points="547,90 549,90 554,85 549,80 547,80 547,90 " style="fill:white; stroke-width:1; stroke:black; " description="&lt;b&gt;U367_RS0105680&lt;/b&gt;&lt;br&gt;ABC transporter permease&lt;br&gt;Location: 119731 - 118832" locus_tag="U367_RS0105680" class="clusterblast-orf" id="dummy-4_h4_6_30"  />
</g>
<g id="a4_0031"  >
<polygon points="554,90 562,90 567,85 562,80 554,80 554,90 " style="fill:white; stroke-width:1; stroke:black; " description="&lt;b&gt;U367_RS0105675&lt;/b&gt;&lt;br&gt;ABC transporter ATP-binding protein&lt;br&gt;Location: 118835 - 117222" locus_tag="U367_RS0105675" class="clusterblast-orf" id="dummy-4_h4_6_31"  />
</g>
<g id="a4_0032"  >
<polygon points="568,90 573,90 578,85 573,80 568,80 568,90 " style="fill:white; stroke-width:1; stroke:black; " description="&lt;b&gt;U367_RS0105670&lt;/b&gt;&lt;br&gt;efflux RND transporter periplasmic adaptor subunit&lt;br&gt;Location: 116989 - 115748" locus_tag="U367_RS0105670" class="clusterblast-orf" id="dummy-4_h4_6_32"  />
</g>
<g id="a4_0033"  >
<polygon points="578,90 598,90 603,85 598,80 578,80 578,90 " style="fill:white; stroke-width:1; stroke:black; " description="&lt;b&gt;U367_RS0105665&lt;/b&gt;&lt;br&gt;efflux RND transporter permease subunit&lt;br&gt;Location: 115732 - 112553" locus_tag="U367_RS0105665" class="clusterblast-orf" id="dummy-4_h4_6_33"  />
</g>
<g id="a4_0034"  >
<polygon points="603,90 609,90 614,85 609,80 603,80 603,90 " style="fill:white; stroke-width:1; stroke:black; " description="&lt;b&gt;U367_RS0105660&lt;/b&gt;&lt;br&gt;TolC family protein&lt;br&gt;Location: 112556 - 111141" locus_tag="U367_RS0105660" class="clusterblast-orf" id="dummy-4_h4_6_34"  />
</g>
<g id="a4_0035"  >
<polygon points="615,85 620,80 623,80 623,90 620,90 615,85 " style="fill:white; stroke-width:1; stroke:black; " description="&lt;b&gt;U367_RS0105655&lt;/b&gt;&lt;br&gt;AraC family transcriptional regulator&lt;br&gt;Location: 111055 - 110039" locus_tag="U367_RS0105655" class="clusterblast-orf" id="dummy-4_h4_6_35"  />
</g>
<g id="a4_0036"  >
<polygon points="624,90 626,90 631,85 626,80 624,80 624,90 " style="fill:white; stroke-width:1; stroke:black; " description="&lt;b&gt;U367_RS0105650&lt;/b&gt;&lt;br&gt;FTR1 family protein&lt;br&gt;Location: 109869 - 109024" locus_tag="U367_RS0105650" class="clusterblast-orf" id="dummy-4_h4_6_36"  />
</g>
</svg>
