<svg xmlns="http://www.w3.org/2000/svg" xmlns:xlink="http://www.w3.org/1999/xlink" version="1.1" x="0" y="0" height="230" width="800" viewBox="0 0 800 230" preserveAspectRatio="none"  >
<g label="Query sequence" class="clusterblast-cluster"  >
<text x="5" y="20" class="clusterblast-acc"  >
Query sequence</text>
<line x1="10" y1="35" x2="778.0" y2="35" style="stroke-width:1; stroke:grey; "  />
<polygon points="0,35 5,30 189,30 189,40 5,40 0,35 " style="fill:white; stroke-width:1; stroke:black; " description="&lt;b&gt;MCIC6FC_003336&lt;/b&gt;&lt;br&gt;hypothetical protein&lt;br&gt;Location: 693054 - 696792" locus_tag="MCIC6FC_003336" class="clusterblast-orf" id="dummy-2_q0_0_all"  />
<polygon points="201,40 401,40 406,35 401,30 201,30 201,40 " style="fill:#d81515; stroke-width:1; stroke:black; " description="&lt;b&gt;MCIC6FC_003337&lt;/b&gt;&lt;br&gt;hypothetical protein&lt;br&gt;Location: 697036 - 701078" locus_tag="MCIC6FC_003337" class="clusterblast-orf" id="dummy-2_q1_0_all"  />
<polygon points="408,40 497,40 502,35 497,30 408,30 408,40 " style="fill:#15d815; stroke-width:1; stroke:black; " description="&lt;b&gt;MCIC6FC_003338&lt;/b&gt;&lt;br&gt;hypothetical protein&lt;br&gt;Location: 701110 - 702979" locus_tag="MCIC6FC_003338" class="clusterblast-orf" id="dummy-2_q2_0_all"  />
<polygon points="509,40 602,40 607,35 602,30 509,30 509,40 " style="fill:#1515d8; stroke-width:1; stroke:black; " description="&lt;b&gt;MCIC6FC_003339&lt;/b&gt;&lt;br&gt;hypothetical protein&lt;br&gt;Location: 703116 - 705053" locus_tag="MCIC6FC_003339" class="clusterblast-orf" id="dummy-2_q3_0_all"  />
<polygon points="611,40 666,40 671,35 666,30 611,30 611,40 " style="fill:#d815d8; stroke-width:1; stroke:black; " description="&lt;b&gt;MCIC6FC_003340&lt;/b&gt;&lt;br&gt;hypothetical protein&lt;br&gt;Location: 705138 - 706326" locus_tag="MCIC6FC_003340" class="clusterblast-orf" id="dummy-2_q4_0_all"  />
<polygon points="680,35 685,30 744,30 744,40 685,40 680,35 " style="fill:#d8d815; stroke-width:1; stroke:black; " description="&lt;b&gt;MCIC6FC_003341&lt;/b&gt;&lt;br&gt;hypothetical protein&lt;br&gt;Location: 706490 - 707769" locus_tag="MCIC6FC_003341" class="clusterblast-orf" id="dummy-2_q5_0_all"  />
<polygon points="760,40 775,40 780,35 775,30 760,30 760,40 " style="fill:#15d8d8; stroke-width:1; stroke:black; " description="&lt;b&gt;MCIC6FC_003342&lt;/b&gt;&lt;br&gt;hypothetical protein&lt;br&gt;Location: 708075 - 708471" locus_tag="MCIC6FC_003342" class="clusterblast-orf" id="dummy-2_q6_0_all"  />
</g>
<g label="NZ_CABVGU010000001" description="NZ_CABVGU010000001 (517632-528478): Pseudomonas fluorescens isolate PS664, wh... (88% of genes show similarity), bacteriocin" class="clusterblast-cluster"  >
<text x="5" y="70" class="clusterblast-acc"  >
<a xlink:href="https://antismash-db.secondarymetabolites.org/area.html?record=NZ_CABVGU010000001&amp;start=517632&amp;end=528478" target="_blank">NZ_CABVGU010000001 (517632-528478)</a>: Pseudomonas fluorescens isolate PS664, wh... (88% of genes show similarity), bacteriocin</text>
<line x1="10" y1="85" x2="778.0" y2="85" style="stroke-width:1; stroke:grey; "  />
</g>
<g id="a2_000"  >
<polygon points="151,90 196,90 201,85 196,80 151,80 151,90 " style="fill:#d81515; stroke-width:1; stroke:black; " description="&lt;b&gt;F8N47_RS02495&lt;/b&gt;&lt;br&gt;protease modulator HflC&lt;br&gt;Location: 527825 - 526827&lt;br&gt;&lt;br&gt;&lt;b&gt;BlastP hit with MCIC6FC_003337&lt;/b&gt;&lt;br&gt;Percentage identity: 92&lt;br&gt;Percentage coverage: 23&lt;br&gt;BLAST bit score: 435&lt;br&gt;E-value: 2e-119" locus_tag="F8N47_RS02495" class="clusterblast-orf" id="dummy-2_h2_9_0"  />
</g>
<g id="a2_001"  >
<polygon points="201,90 248,90 253,85 248,80 201,80 201,90 " style="fill:#d81515; stroke-width:1; stroke:black; " description="&lt;b&gt;F8N47_RS02490&lt;/b&gt;&lt;br&gt;protease modulator HflK&lt;br&gt;Location: 526830 - 525796&lt;br&gt;&lt;br&gt;&lt;b&gt;BlastP hit with MCIC6FC_003337&lt;/b&gt;&lt;br&gt;Percentage identity: 82&lt;br&gt;Percentage coverage: 27&lt;br&gt;BLAST bit score: 428&lt;br&gt;E-value: 1.9e-117" locus_tag="F8N47_RS02490" class="clusterblast-orf" id="dummy-2_h2_9_1"  />
</g>
<g id="a2_002"  >
<polygon points="253,90 344,90 349,85 344,80 253,80 253,90 " style="fill:#15d815; stroke-width:1; stroke:black; " description="&lt;b&gt;F8N47_RS02485&lt;/b&gt;&lt;br&gt;cadmium-translocating P-type ATPase&lt;br&gt;Location: 525799 - 523913&lt;br&gt;&lt;br&gt;&lt;b&gt;BlastP hit with MCIC6FC_003338&lt;/b&gt;&lt;br&gt;Percentage identity: 88&lt;br&gt;Percentage coverage: 100&lt;br&gt;BLAST bit score: 925&lt;br&gt;E-value: 4.1e-267" locus_tag="F8N47_RS02485" class="clusterblast-orf" id="dummy-2_h2_9_2"  />
</g>
<g id="a2_003"  >
<polygon points="355,90 362,90 367,85 362,80 355,80 355,90 " style="fill:white; stroke-width:1; stroke:black; " description="&lt;b&gt;F8N47_RS02480&lt;/b&gt;&lt;br&gt;hypothetical protein&lt;br&gt;Location: 523795 - 523544" locus_tag="F8N47_RS02480" class="clusterblast-orf" id="dummy-2_h2_9_3"  />
</g>
<g id="a2_004"  >
<polygon points="371,90 408,90 413,85 408,80 371,80 371,90 " style="fill:#1515d8; stroke-width:1; stroke:black; " description="&lt;b&gt;F8N47_RS02475&lt;/b&gt;&lt;br&gt;DUF692 domain-containing protein&lt;br&gt;Location: 523478 - 522633&lt;br&gt;&lt;br&gt;&lt;b&gt;BlastP hit with MCIC6FC_003339&lt;/b&gt;&lt;br&gt;Percentage identity: 83&lt;br&gt;Percentage coverage: 40&lt;br&gt;BLAST bit score: 442&lt;br&gt;E-value: 6e-122" locus_tag="F8N47_RS02475" class="clusterblast-orf" id="dummy-2_h2_9_4"  />
</g>
<g id="a2_005"  >
<polygon points="413,90 448,90 453,85 448,80 413,80 413,90 " style="fill:#1515d8; stroke-width:1; stroke:black; " description="&lt;b&gt;F8N47_RS02470&lt;/b&gt;&lt;br&gt;DUF2063 domain-containing protein&lt;br&gt;Location: 522642 - 521854&lt;br&gt;&lt;br&gt;&lt;b&gt;BlastP hit with MCIC6FC_003339&lt;/b&gt;&lt;br&gt;Percentage identity: 62&lt;br&gt;Percentage coverage: 43&lt;br&gt;BLAST bit score: 327&lt;br&gt;E-value: 3.7e-87" locus_tag="F8N47_RS02470" class="clusterblast-orf" id="dummy-2_h2_9_5"  />
</g>
<g id="a2_006"  >
<polygon points="457,90 512,90 517,85 512,80 457,80 457,90 " style="fill:#d815d8; stroke-width:1; stroke:black; " description="&lt;b&gt;F8N47_RS02465&lt;/b&gt;&lt;br&gt;class I SAM-dependent methyltransferase&lt;br&gt;Location: 521767 - 520583&lt;br&gt;&lt;br&gt;&lt;b&gt;BlastP hit with MCIC6FC_003340&lt;/b&gt;&lt;br&gt;Percentage identity: 90&lt;br&gt;Percentage coverage: 99&lt;br&gt;BLAST bit score: 744&lt;br&gt;E-value: 4.9e-213" locus_tag="F8N47_RS02465" class="clusterblast-orf" id="dummy-2_h2_9_6"  />
</g>
<g id="a2_007"  >
<polygon points="523,85 528,80 595,80 595,90 528,90 523,85 " style="fill:#d8d815; stroke-width:1; stroke:black; " description="&lt;b&gt;F8N47_RS02460&lt;/b&gt;&lt;br&gt;cardiolipin synthase&lt;br&gt;Location: 520474 - 519035&lt;br&gt;&lt;br&gt;&lt;b&gt;BlastP hit with MCIC6FC_003341&lt;/b&gt;&lt;br&gt;Percentage identity: 87&lt;br&gt;Percentage coverage: 100&lt;br&gt;BLAST bit score: 747&lt;br&gt;E-value: 1e-213" locus_tag="F8N47_RS02460" class="clusterblast-orf" id="dummy-2_h2_9_7"  />
</g>
<g id="a2_008"  >
<polygon points="602,90 623,90 628,85 623,80 602,80 602,90 " style="fill:#15d8d8; stroke-width:1; stroke:black; " description="&lt;b&gt;F8N47_RS02455&lt;/b&gt;&lt;br&gt;DUF3617 domain-containing protein&lt;br&gt;Location: 518904 - 518383&lt;br&gt;&lt;br&gt;&lt;b&gt;BlastP hit with MCIC6FC_003342&lt;/b&gt;&lt;br&gt;Percentage identity: 81&lt;br&gt;Percentage coverage: 99&lt;br&gt;BLAST bit score: 227&lt;br&gt;E-value: 1.1e-57" locus_tag="F8N47_RS02455" class="clusterblast-orf" id="dummy-2_h2_9_8"  />
</g>
</svg>
