<svg xmlns="http://www.w3.org/2000/svg" xmlns:xlink="http://www.w3.org/1999/xlink" version="1.1" x="0" y="0" height="230" width="800" viewBox="0 0 800 230" preserveAspectRatio="none"  >
<g label="Query sequence" class="clusterblast-cluster"  >
<text x="5" y="20" class="clusterblast-acc"  >
Query sequence</text>
<line x1="10" y1="35" x2="778.0" y2="35" style="stroke-width:1; stroke:grey; "  />
<polygon points="308,40 315,40 320,35 315,30 308,30 308,40 " style="fill:white; stroke-width:1; stroke:black; " description="&lt;b&gt;MCIC6FC_016543&lt;/b&gt;&lt;br&gt;hypothetical protein&lt;br&gt;Location: 57084 - 57922" locus_tag="MCIC6FC_016543" class="clusterblast-orf" id="dummy-1_q0_0_all"  />
<polygon points="320,35 325,30 355,30 355,40 325,40 320,35 " style="fill:#d81515; stroke-width:1; stroke:black; " description="&lt;b&gt;MCIC6FC_016544&lt;/b&gt;&lt;br&gt;hypothetical protein&lt;br&gt;Location: 57942 - 60485" locus_tag="MCIC6FC_016544" class="clusterblast-orf" id="dummy-1_q1_0_all"  />
<polygon points="360,40 367,40 372,35 367,30 360,30 360,40 " style="fill:#15d815; stroke-width:1; stroke:black; " description="&lt;b&gt;MCIC6FC_016545&lt;/b&gt;&lt;br&gt;hypothetical protein&lt;br&gt;Location: 60876 - 61749" locus_tag="MCIC6FC_016545" class="clusterblast-orf" id="dummy-1_q2_0_all"  />
<polygon points="376,40 466,40 471,35 466,30 376,30 376,40 " style="fill:#1515d8; stroke-width:1; stroke:black; " description="&lt;b&gt;MCIC6FC_016546&lt;/b&gt;&lt;br&gt;hypothetical protein&lt;br&gt;Location: 62021 - 68916" locus_tag="MCIC6FC_016546" class="clusterblast-orf" id="dummy-1_q3_0_all"  />
</g>
<g label="NC_014228" description="NC_014228 (2045492-2102743): Xenorhabdus nematophila ATCC 19061, complete genome (6% of genes show similarity), NRPS,T1PKS" class="clusterblast-cluster"  >
<text x="5" y="70" class="clusterblast-acc"  >
<a xlink:href="https://antismash-db.secondarymetabolites.org/area.html?record=NC_014228&amp;start=2045492&amp;end=2102743" target="_blank">NC_014228 (2045492-2102743)</a>: Xenorhabdus nematophila ATCC 19061, complete genome (6% of genes show similarity), NRPS,T1PKS</text>
<line x1="10" y1="85" x2="778.0" y2="85" style="stroke-width:1; stroke:grey; "  />
</g>
<g id="a1_000"  >
<polygon points="0,85 5,80 8,80 8,90 5,90 0,85 " style="fill:white; stroke-width:1; stroke:black; " description="&lt;b&gt;XNC1_RS09215&lt;/b&gt;&lt;br&gt;Slp family lipoprotein&lt;br&gt;Location: 2102743 - 2102159" locus_tag="XNC1_RS09215" class="clusterblast-orf" id="dummy-1_h1_3_0"  />
</g>
<g id="a1_001"  >
<polygon points="9,85 14,80 19,80 19,90 14,90 9,85 " style="fill:white; stroke-width:1; stroke:black; " description="&lt;b&gt;XNC1_RS09210&lt;/b&gt;&lt;br&gt;tRNA (adenosine(37)-N6)-threonylcarbamoyltransferase complex dimerization subunit type 1 TsaB&lt;br&gt;Location: 2102042 - 2101347" locus_tag="XNC1_RS09210" class="clusterblast-orf" id="dummy-1_h1_3_1"  />
</g>
<g id="a1_002"  >
<polygon points="20,85 25,80 46,80 46,90 25,90 20,85 " style="fill:white; stroke-width:1; stroke:black; " description="&lt;b&gt;XNC1_RS09205&lt;/b&gt;&lt;br&gt;ATP-dependent DNA helicase&lt;br&gt;Location: 2101273 - 2099366" locus_tag="XNC1_RS09205" class="clusterblast-orf" id="dummy-1_h1_3_2"  />
</g>
<g id="a1_003"  >
<polygon points="51,85 56,80 61,80 61,90 56,90 51,85 " style="fill:white; stroke-width:1; stroke:black; " description="&lt;b&gt;XNC1_RS09200&lt;/b&gt;&lt;br&gt;IS5 family transposase&lt;br&gt;Location: 2098998 - 2098237" locus_tag="XNC1_RS09200" class="clusterblast-orf" id="dummy-1_h1_3_3"  />
</g>
<g id="a1_004"  >
<polygon points="63,85 67,80 67,90 63,85 " style="fill:white; stroke-width:1; stroke:black; " description="&lt;b&gt;XNC1_RS09195&lt;/b&gt;&lt;br&gt;hypothetical protein&lt;br&gt;Location: 2098150 - 2097791" locus_tag="XNC1_RS09195" class="clusterblast-orf" id="dummy-1_h1_3_4"  />
</g>
<g id="a1_005"  >
<polygon points="74,85 76,80 76,90 74,85 " style="fill:white; stroke-width:1; stroke:black; " description="&lt;b&gt;XNC1_RS21335&lt;/b&gt;&lt;br&gt;transposase&lt;br&gt;Location: 2097331 - 2097185" locus_tag="XNC1_RS21335" class="clusterblast-orf" id="dummy-1_h1_3_5"  />
</g>
<g id="a1_006"  >
<polygon points="81,90 85,85 81,80 81,90 " style="fill:white; stroke-width:1; stroke:black; " description="&lt;b&gt;XNC1_RS09190&lt;/b&gt;&lt;br&gt;RidA family protein&lt;br&gt;Location: 2096836 - 2096492" locus_tag="XNC1_RS09190" class="clusterblast-orf" id="dummy-1_h1_3_6"  />
</g>
<g id="a1_007"  >
<polygon points="87,85 91,80 91,90 87,85 " style="fill:white; stroke-width:1; stroke:black; " description="&lt;b&gt;XNC1_RS09185&lt;/b&gt;&lt;br&gt;multidrug/spermidine efflux SMR transporter subunit MdtI&lt;br&gt;Location: 2096398 - 2096069" locus_tag="XNC1_RS09185" class="clusterblast-orf" id="dummy-1_h1_3_7"  />
</g>
<g id="a1_008"  >
<polygon points="91,85 96,80 96,80 96,90 96,90 91,85 " style="fill:white; stroke-width:1; stroke:black; " description="&lt;b&gt;XNC1_RS09180&lt;/b&gt;&lt;br&gt;multidrug/spermidine efflux SMR transporter subunit MdtJ&lt;br&gt;Location: 2096064 - 2095702" locus_tag="XNC1_RS09180" class="clusterblast-orf" id="dummy-1_h1_3_8"  />
</g>
<g id="a1_009"  >
<polygon points="103,85 108,80 124,80 124,90 108,90 103,85 " style="fill:#d81515; stroke-width:1; stroke:black; " description="&lt;b&gt;XNC1_RS09175&lt;/b&gt;&lt;br&gt;glucose-6-phosphate dehydrogenase&lt;br&gt;Location: 2095166 - 2093691&lt;br&gt;&lt;br&gt;&lt;b&gt;BlastP hit with MCIC6FC_016544&lt;/b&gt;&lt;br&gt;Percentage identity: 71&lt;br&gt;Percentage coverage: 74&lt;br&gt;BLAST bit score: 677&lt;br&gt;E-value: 1.6e-192" locus_tag="XNC1_RS09175" class="clusterblast-orf" id="dummy-1_h1_3_9"  />
</g>
<g id="a1_0010"  >
<polygon points="130,90 137,90 142,85 137,80 130,80 130,90 " style="fill:#15d815; stroke-width:1; stroke:black; " description="&lt;b&gt;XNC1_RS09170&lt;/b&gt;&lt;br&gt;MurR/RpiR family transcriptional regulator&lt;br&gt;Location: 2093227 - 2092379&lt;br&gt;&lt;br&gt;&lt;b&gt;BlastP hit with MCIC6FC_016545&lt;/b&gt;&lt;br&gt;Percentage identity: 70&lt;br&gt;Percentage coverage: 101&lt;br&gt;BLAST bit score: 353&lt;br&gt;E-value: 1.6e-95" locus_tag="XNC1_RS09170" class="clusterblast-orf" id="dummy-1_h1_3_10"  />
</g>
<g id="a1_0011"  >
<polygon points="146,90 161,90 166,85 161,80 146,80 146,90 " style="fill:#1515d8; stroke-width:1; stroke:black; " description="&lt;b&gt;XNC1_RS09165&lt;/b&gt;&lt;br&gt;pyruvate kinase&lt;br&gt;Location: 2092077 - 2090635&lt;br&gt;&lt;br&gt;&lt;b&gt;BlastP hit with MCIC6FC_016546&lt;/b&gt;&lt;br&gt;Percentage identity: 76&lt;br&gt;Percentage coverage: 24&lt;br&gt;BLAST bit score: 594&lt;br&gt;E-value: 3.7e-167" locus_tag="XNC1_RS09165" class="clusterblast-orf" id="dummy-1_h1_3_11"  />
</g>
<g id="a1_0012"  >
<polygon points="170,85 175,80 179,80 179,90 175,90 170,85 " style="fill:white; stroke-width:1; stroke:black; " description="&lt;b&gt;XNC1_RS09160&lt;/b&gt;&lt;br&gt;IS6 family transposase&lt;br&gt;Location: 2090337 - 2089642" locus_tag="XNC1_RS09160" class="clusterblast-orf" id="dummy-1_h1_3_12"  />
</g>
<g id="a1_0013"  >
<polygon points="181,85 183,80 183,90 181,85 " style="fill:white; stroke-width:1; stroke:black; " description="&lt;b&gt;XNC1_RS23250&lt;/b&gt;&lt;br&gt;hypothetical protein&lt;br&gt;Location: 2089512 - 2089360" locus_tag="XNC1_RS23250" class="clusterblast-orf" id="dummy-1_h1_3_13"  />
</g>
<g id="a1_0014"  >
<polygon points="188,85 193,80 202,80 202,90 193,90 188,85 " style="fill:white; stroke-width:1; stroke:black; " description="&lt;b&gt;XNC1_RS09150&lt;/b&gt;&lt;br&gt;lauroyl-Kdo(2)-lipid IV(A) myristoyltransferase&lt;br&gt;Location: 2088965 - 2087997" locus_tag="XNC1_RS09150" class="clusterblast-orf" id="dummy-1_h1_3_14"  />
</g>
<g id="a1_0015"  >
<polygon points="205,85 210,80 223,80 223,90 210,90 205,85 " style="fill:white; stroke-width:1; stroke:black; " description="&lt;b&gt;XNC1_RS09145&lt;/b&gt;&lt;br&gt;murein DD-endopeptidase MepM&lt;br&gt;Location: 2087763 - 2086444" locus_tag="XNC1_RS09145" class="clusterblast-orf" id="dummy-1_h1_3_15"  />
</g>
<g id="a1_0016"  >
<polygon points="223,85 228,80 236,80 236,90 228,90 223,85 " style="fill:white; stroke-width:1; stroke:black; " description="&lt;b&gt;XNC1_RS09140&lt;/b&gt;&lt;br&gt;zinc ABC transporter substrate-binding protein ZnuA&lt;br&gt;Location: 2086423 - 2085467" locus_tag="XNC1_RS09140" class="clusterblast-orf" id="dummy-1_h1_3_16"  />
</g>
<g id="a1_0017"  >
<polygon points="238,90 243,90 248,85 243,80 238,80 238,90 " style="fill:white; stroke-width:1; stroke:black; " description="&lt;b&gt;XNC1_RS09135&lt;/b&gt;&lt;br&gt;zinc ABC transporter ATP-binding protein ZnuC&lt;br&gt;Location: 2085390 - 2084632" locus_tag="XNC1_RS09135" class="clusterblast-orf" id="dummy-1_h1_3_17"  />
</g>
<g id="a1_0018"  >
<polygon points="248,90 254,90 259,85 254,80 248,80 248,90 " style="fill:white; stroke-width:1; stroke:black; " description="&lt;b&gt;XNC1_RS09130&lt;/b&gt;&lt;br&gt;zinc ABC transporter permease subunit ZnuB&lt;br&gt;Location: 2084635 - 2083850" locus_tag="XNC1_RS09130" class="clusterblast-orf" id="dummy-1_h1_3_18"  />
</g>
<g id="a1_0019"  >
<polygon points="261,85 266,80 271,80 271,90 266,90 261,85 " style="fill:white; stroke-width:1; stroke:black; " description="&lt;b&gt;XNC1_RS09125&lt;/b&gt;&lt;br&gt;thioesterase&lt;br&gt;Location: 2083709 - 2082966" locus_tag="XNC1_RS09125" class="clusterblast-orf" id="dummy-1_h1_3_19"  />
</g>
<g id="a1_0020"  >
<polygon points="272,85 277,80 317,80 317,90 277,90 272,85 " style="fill:white; stroke-width:1; stroke:black; " description="&lt;b&gt;XNC1_RS09120&lt;/b&gt;&lt;br&gt;AMP-binding protein&lt;br&gt;Location: 2082900 - 2079592" locus_tag="XNC1_RS09120" class="clusterblast-orf" id="dummy-1_h1_3_20"  />
</g>
<g id="a1_0021"  >
<polygon points="317,85 322,80 334,80 334,90 322,90 317,85 " style="fill:white; stroke-width:1; stroke:black; " description="&lt;b&gt;XNC1_RS09115&lt;/b&gt;&lt;br&gt;aromatic ring-hydroxylating dioxygenase subunit alpha&lt;br&gt;Location: 2079595 - 2078366" locus_tag="XNC1_RS09115" class="clusterblast-orf" id="dummy-1_h1_3_21"  />
</g>
<g id="a1_0022"  >
<polygon points="334,85 339,80 348,80 348,90 339,90 334,85 " style="fill:white; stroke-width:1; stroke:black; " description="&lt;b&gt;XNC1_RS09110&lt;/b&gt;&lt;br&gt;ketopantoate reductase family protein&lt;br&gt;Location: 2078366 - 2077362" locus_tag="XNC1_RS09110" class="clusterblast-orf" id="dummy-1_h1_3_22"  />
</g>
<g id="a1_0023"  >
<polygon points="348,85 353,80 365,80 365,90 353,90 348,85 " style="fill:white; stroke-width:1; stroke:black; " description="&lt;b&gt;XNC1_RS09105&lt;/b&gt;&lt;br&gt;MFS transporter&lt;br&gt;Location: 2077360 - 2076110" locus_tag="XNC1_RS09105" class="clusterblast-orf" id="dummy-1_h1_3_23"  />
</g>
<g id="a1_0024"  >
<polygon points="365,85 370,80 443,80 443,90 370,90 365,85 " style="fill:white; stroke-width:1; stroke:black; " description="&lt;b&gt;XNC1_RS09100&lt;/b&gt;&lt;br&gt;aminotransferase class III-fold pyridoxal phosphate-dependent enzyme&lt;br&gt;Location: 2076113 - 2070432" locus_tag="XNC1_RS09100" class="clusterblast-orf" id="dummy-1_h1_3_24"  />
</g>
<g id="a1_0025"  >
<polygon points="443,85 448,80 510,80 510,90 448,90 443,85 " style="fill:white; stroke-width:1; stroke:black; " description="&lt;b&gt;XNC1_RS09095&lt;/b&gt;&lt;br&gt;AMP-binding protein&lt;br&gt;Location: 2070427 - 2065493" locus_tag="XNC1_RS09095" class="clusterblast-orf" id="dummy-1_h1_3_25"  />
</g>
<g id="a1_0026"  >
<polygon points="511,85 516,80 524,80 524,90 516,90 511,85 " style="fill:white; stroke-width:1; stroke:black; " description="&lt;b&gt;XNC1_RS09090&lt;/b&gt;&lt;br&gt;TauD/TfdA family dioxygenase&lt;br&gt;Location: 2065449 - 2064487" locus_tag="XNC1_RS09090" class="clusterblast-orf" id="dummy-1_h1_3_26"  />
</g>
<g id="a1_0027"  >
<polygon points="525,85 530,80 541,80 541,90 530,90 525,85 " style="fill:white; stroke-width:1; stroke:black; " description="&lt;b&gt;XNC1_RS09085&lt;/b&gt;&lt;br&gt;pyridoxal phosphate-dependent aminotransferase&lt;br&gt;Location: 2064461 - 2063292" locus_tag="XNC1_RS09085" class="clusterblast-orf" id="dummy-1_h1_3_27"  />
</g>
<g id="a1_0028"  >
<polygon points="541,85 546,80 557,80 557,90 546,90 541,85 " style="fill:white; stroke-width:1; stroke:black; " description="&lt;b&gt;XNC1_RS09080&lt;/b&gt;&lt;br&gt;arginine 2,3-aminomutase&lt;br&gt;Location: 2063258 - 2062080" locus_tag="XNC1_RS09080" class="clusterblast-orf" id="dummy-1_h1_3_28"  />
</g>
<g id="a1_0029"  >
<polygon points="564,85 569,80 578,80 578,90 569,90 564,85 " style="fill:white; stroke-width:1; stroke:black; " description="&lt;b&gt;XNC1_RS09075&lt;/b&gt;&lt;br&gt;Holliday junction branch migration DNA helicase RuvB&lt;br&gt;Location: 2061572 - 2060565" locus_tag="XNC1_RS09075" class="clusterblast-orf" id="dummy-1_h1_3_29"  />
</g>
<g id="a1_0030"  >
<polygon points="578,85 583,80 587,80 587,90 583,90 578,85 " style="fill:white; stroke-width:1; stroke:black; " description="&lt;b&gt;XNC1_RS09070&lt;/b&gt;&lt;br&gt;Holliday junction branch migration protein RuvA&lt;br&gt;Location: 2060548 - 2059931" locus_tag="XNC1_RS09070" class="clusterblast-orf" id="dummy-1_h1_3_30"  />
</g>
<g id="a1_0031"  >
<polygon points="588,85 593,80 595,80 595,90 593,90 588,85 " style="fill:white; stroke-width:1; stroke:black; " description="&lt;b&gt;XNC1_RS09065&lt;/b&gt;&lt;br&gt;crossover junction endodeoxyribonuclease RuvC&lt;br&gt;Location: 2059850 - 2059329" locus_tag="XNC1_RS09065" class="clusterblast-orf" id="dummy-1_h1_3_31"  />
</g>
<g id="a1_0032"  >
<polygon points="596,85 601,80 607,80 607,90 601,90 596,85 " style="fill:white; stroke-width:1; stroke:black; " description="&lt;b&gt;XNC1_RS09060&lt;/b&gt;&lt;br&gt;YebC/PmpR family DNA-binding transcriptional regulator&lt;br&gt;Location: 2059223 - 2058480" locus_tag="XNC1_RS09060" class="clusterblast-orf" id="dummy-1_h1_3_32"  />
</g>
<g id="a1_0033"  >
<polygon points="607,85 612,80 613,80 613,90 612,90 607,85 " style="fill:white; stroke-width:1; stroke:black; " description="&lt;b&gt;XNC1_RS09055&lt;/b&gt;&lt;br&gt;dihydroneopterin triphosphate diphosphatase&lt;br&gt;Location: 2058449 - 2058015" locus_tag="XNC1_RS09055" class="clusterblast-orf" id="dummy-1_h1_3_33"  />
</g>
<g id="a1_0034"  >
<polygon points="613,85 618,80 637,80 637,90 618,90 613,85 " style="fill:white; stroke-width:1; stroke:black; " description="&lt;b&gt;XNC1_RS09050&lt;/b&gt;&lt;br&gt;aspartate--tRNA ligase&lt;br&gt;Location: 2058015 - 2056246" locus_tag="XNC1_RS09050" class="clusterblast-orf" id="dummy-1_h1_3_34"  />
</g>
<g id="a1_0035"  >
<polygon points="646,90 646,90 651,85 646,80 646,80 646,90 " style="fill:white; stroke-width:1; stroke:black; " description="&lt;b&gt;XNC1_RS09045&lt;/b&gt;&lt;br&gt;MAPEG family protein&lt;br&gt;Location: 2055628 - 2055230" locus_tag="XNC1_RS09045" class="clusterblast-orf" id="dummy-1_h1_3_35"  />
</g>
<g id="a1_0036"  >
<polygon points="653,90 659,90 664,85 659,80 653,80 653,90 " style="fill:white; stroke-width:1; stroke:black; " description="&lt;b&gt;XNC1_RS09040&lt;/b&gt;&lt;br&gt;carboxy-S-adenosyl-L-methionine synthase CmoA&lt;br&gt;Location: 2055091 - 2054303" locus_tag="XNC1_RS09040" class="clusterblast-orf" id="dummy-1_h1_3_36"  />
</g>
<g id="a1_0037"  >
<polygon points="664,90 672,90 677,85 672,80 664,80 664,90 " style="fill:white; stroke-width:1; stroke:black; " description="&lt;b&gt;XNC1_RS09035&lt;/b&gt;&lt;br&gt;tRNA 5-methoxyuridine(34)/uridine 5-oxyacetic acid(34) synthase CmoB&lt;br&gt;Location: 2054306 - 2053335" locus_tag="XNC1_RS09035" class="clusterblast-orf" id="dummy-1_h1_3_37"  />
</g>
<g id="a1_0038"  >
<polygon points="679,85 684,80 689,80 689,90 684,90 679,85 " style="fill:white; stroke-width:1; stroke:black; " description="&lt;b&gt;XNC1_RS09030&lt;/b&gt;&lt;br&gt;copper homeostasis protein CutC&lt;br&gt;Location: 2053235 - 2052483" locus_tag="XNC1_RS09030" class="clusterblast-orf" id="dummy-1_h1_3_38"  />
</g>
<g id="a1_0039"  >
<polygon points="693,85 698,80 700,80 700,90 698,90 693,85 " style="fill:white; stroke-width:1; stroke:black; " description="&lt;b&gt;XNC1_RS09025&lt;/b&gt;&lt;br&gt;VOC family protein&lt;br&gt;Location: 2052212 - 2051658" locus_tag="XNC1_RS09025" class="clusterblast-orf" id="dummy-1_h1_3_39"  />
</g>
<g id="a1_0040"  >
<polygon points="704,90 722,90 727,85 722,80 704,80 704,90 " style="fill:white; stroke-width:1; stroke:black; " description="&lt;b&gt;XNC1_RS09020&lt;/b&gt;&lt;br&gt;arginine--tRNA ligase&lt;br&gt;Location: 2051409 - 2049679" locus_tag="XNC1_RS09020" class="clusterblast-orf" id="dummy-1_h1_3_40"  />
</g>
<g id="a1_0041"  >
<polygon points="729,85 734,80 750,80 750,90 734,90 729,85 " style="fill:white; stroke-width:1; stroke:black; " description="&lt;b&gt;XNC1_RS09015&lt;/b&gt;&lt;br&gt;murein biosynthesis integral membrane protein MurJ&lt;br&gt;Location: 2049563 - 2048028" locus_tag="XNC1_RS09015" class="clusterblast-orf" id="dummy-1_h1_3_41"  />
</g>
<g id="a1_0042"  >
<polygon points="753,85 758,80 761,80 761,90 758,90 753,85 " style="fill:white; stroke-width:1; stroke:black; " description="&lt;b&gt;XNC1_RS09010&lt;/b&gt;&lt;br&gt;ribosomal protein S5-alanine N-acetyltransferase&lt;br&gt;Location: 2047846 - 2047259" locus_tag="XNC1_RS09010" class="clusterblast-orf" id="dummy-1_h1_3_42"  />
</g>
<g id="a1_0043"  >
<polygon points="763,90 775,90 780,85 775,80 763,80 763,90 " style="fill:white; stroke-width:1; stroke:black; " description="&lt;b&gt;XNC1_RS09005&lt;/b&gt;&lt;br&gt;multidrug efflux MFS transporter MdtH&lt;br&gt;Location: 2047085 - 2045880" locus_tag="XNC1_RS09005" class="clusterblast-orf" id="dummy-1_h1_3_43"  />
</g>
</svg>
