<svg xmlns="http://www.w3.org/2000/svg" xmlns:xlink="http://www.w3.org/1999/xlink" version="1.1" x="0" y="0" height="230" width="800" viewBox="0 0 800 230" preserveAspectRatio="none"  >
<g label="Query sequence" class="clusterblast-cluster"  >
<text x="5" y="20" class="clusterblast-acc"  >
Query sequence</text>
<line x1="10" y1="35" x2="778.0" y2="35" style="stroke-width:1; stroke:grey; "  />
<polygon points="222,40 242,40 247,35 242,30 222,30 222,40 " style="fill:#d81515; stroke-width:1; stroke:black; " description="&lt;b&gt;MCIC6FC_020538&lt;/b&gt;&lt;br&gt;hypothetical protein&lt;br&gt;Location: 15803 - 17157" locus_tag="MCIC6FC_020538" class="clusterblast-orf" id="dummy-1_q0_0_all"  />
<polygon points="250,40 337,40 342,35 337,30 250,30 250,40 " style="fill:#15d863; stroke-width:1; stroke:black; " description="&lt;b&gt;MCIC6FC_020539&lt;/b&gt;&lt;br&gt;hypothetical protein&lt;br&gt;Location: 17304 - 22222" locus_tag="MCIC6FC_020539" class="clusterblast-orf" id="dummy-1_q1_0_all"  />
<polygon points="348,40 360,40 365,35 360,30 348,30 348,40 " style="fill:#1563d8; stroke-width:1; stroke:black; " description="&lt;b&gt;MCIC6FC_020540&lt;/b&gt;&lt;br&gt;hypothetical protein&lt;br&gt;Location: 22522 - 23419" locus_tag="MCIC6FC_020540" class="clusterblast-orf" id="dummy-1_q2_0_all"  />
<polygon points="365,40 401,40 406,35 401,30 365,30 365,40 " style="fill:#b115d8; stroke-width:1; stroke:black; " description="&lt;b&gt;MCIC6FC_020541&lt;/b&gt;&lt;br&gt;hypothetical protein&lt;br&gt;Location: 23444 - 25593" locus_tag="MCIC6FC_020541" class="clusterblast-orf" id="dummy-1_q3_0_all"  />
<polygon points="412,35 417,30 436,30 436,40 417,40 412,35 " style="fill:white; stroke-width:1; stroke:black; " description="&lt;b&gt;MCIC6FC_020542&lt;/b&gt;&lt;br&gt;hypothetical protein&lt;br&gt;Location: 25940 - 27194" locus_tag="MCIC6FC_020542" class="clusterblast-orf" id="dummy-1_q4_0_all"  />
<polygon points="440,40 452,40 457,35 452,30 440,30 440,40 " style="fill:white; stroke-width:1; stroke:black; " description="&lt;b&gt;MCIC6FC_020543&lt;/b&gt;&lt;br&gt;hypothetical protein&lt;br&gt;Location: 27418 - 28319" locus_tag="MCIC6FC_020543" class="clusterblast-orf" id="dummy-1_q5_0_all"  />
<polygon points="458,35 463,30 494,30 494,40 463,40 458,35 " style="fill:#b1d815; stroke-width:1; stroke:black; " description="&lt;b&gt;MCIC6FC_020544&lt;/b&gt;&lt;br&gt;hypothetical protein&lt;br&gt;Location: 28409 - 30323" locus_tag="MCIC6FC_020544" class="clusterblast-orf" id="dummy-1_q6_0_all"  />
<polygon points="497,35 502,30 557,30 557,40 502,40 497,35 " style="fill:#b1d815; stroke-width:1; stroke:black; " description="&lt;b&gt;MCIC6FC_020545&lt;/b&gt;&lt;br&gt;hypothetical protein&lt;br&gt;Location: 30445 - 33685" locus_tag="MCIC6FC_020545" class="clusterblast-orf" id="dummy-1_q7_0_all"  />
</g>
<g label="NZ_CP005970" description="NZ_CP005970 (3160121-3201723): Pseudomonas syringae UMAF0158 chromosome, comp... (28% of genes show similarity), NRPS-like" class="clusterblast-cluster"  >
<text x="5" y="70" class="clusterblast-acc"  >
<a xlink:href="https://antismash-db.secondarymetabolites.org/area.html?record=NZ_CP005970&amp;start=3160121&amp;end=3201723" target="_blank">NZ_CP005970 (3160121-3201723)</a>: Pseudomonas syringae UMAF0158 chromosome, comp... (28% of genes show similarity), NRPS-like</text>
<line x1="10" y1="85" x2="778.0" y2="85" style="stroke-width:1; stroke:grey; "  />
</g>
<g id="a1_000"  >
<polygon points="0,90 24,90 29,85 24,80 0,80 0,90 " style="fill:white; stroke-width:1; stroke:black; " description="&lt;b&gt;PSYRMG_RS13760&lt;/b&gt;&lt;br&gt;SpoVR family protein&lt;br&gt;Location: 3160122 - 3161684" locus_tag="PSYRMG_RS13760" class="clusterblast-orf" id="dummy-1_h1_10_0"  />
</g>
<g id="a1_001"  >
<polygon points="31,90 49,90 54,85 49,80 31,80 31,90 " style="fill:white; stroke-width:1; stroke:black; " description="&lt;b&gt;PSYRMG_RS13765&lt;/b&gt;&lt;br&gt;multifunctional CCA addition/repair protein&lt;br&gt;Location: 3161782 - 3163011" locus_tag="PSYRMG_RS13765" class="clusterblast-orf" id="dummy-1_h1_10_1"  />
</g>
<g id="a1_002"  >
<polygon points="56,85 61,80 66,80 66,90 61,90 56,85 " style="fill:white; stroke-width:1; stroke:black; " description="&lt;b&gt;PSYRMG_RS13770&lt;/b&gt;&lt;br&gt;2-amino-4-hydroxy-6- hydroxymethyldihydropteridine diphosphokinase&lt;br&gt;Location: 3163130 - 3163654" locus_tag="PSYRMG_RS13770" class="clusterblast-orf" id="dummy-1_h1_10_2"  />
</g>
<g id="a1_003"  >
<polygon points="66,85 71,80 72,80 72,90 71,90 66,85 " style="fill:white; stroke-width:1; stroke:black; " description="&lt;b&gt;PSYRMG_RS13775&lt;/b&gt;&lt;br&gt;dihydroneopterin aldolase&lt;br&gt;Location: 3163645 - 3163998" locus_tag="PSYRMG_RS13775" class="clusterblast-orf" id="dummy-1_h1_10_3"  />
</g>
<g id="a1_004"  >
<polygon points="74,90 79,90 84,85 79,80 74,80 74,90 " style="fill:white; stroke-width:1; stroke:black; " description="&lt;b&gt;PSYRMG_RS13780&lt;/b&gt;&lt;br&gt;glycerol-3-phosphate 1-O-acyltransferase PlsY&lt;br&gt;Location: 3164073 - 3164642" locus_tag="PSYRMG_RS13780" class="clusterblast-orf" id="dummy-1_h1_10_4"  />
</g>
<g id="a1_005"  >
<polygon points="85,85 90,80 104,80 104,90 90,90 85,85 " style="fill:white; stroke-width:1; stroke:black; " description="&lt;b&gt;PSYRMG_RS13785&lt;/b&gt;&lt;br&gt;tRNA (adenosine(37)-N6)-threonylcarbamoyltransferase complex transferase subunit TsaD&lt;br&gt;Location: 3164666 - 3165691" locus_tag="PSYRMG_RS13785" class="clusterblast-orf" id="dummy-1_h1_10_5"  />
</g>
<g id="a1_006"  >
<polygon points="108,90 112,85 108,80 108,90 " style="fill:white; stroke-width:1; stroke:black; " description="&lt;b&gt;PSYRMG_RS13790&lt;/b&gt;&lt;br&gt;30S ribosomal protein S21&lt;br&gt;Location: 3165890 - 3166105" locus_tag="PSYRMG_RS13790" class="clusterblast-orf" id="dummy-1_h1_10_6"  />
</g>
<g id="a1_007"  >
<polygon points="121,90 152,90 157,85 152,80 121,80 121,90 " style="fill:white; stroke-width:1; stroke:black; " description="&lt;b&gt;PSYRMG_RS13795&lt;/b&gt;&lt;br&gt;DNA primase&lt;br&gt;Location: 3166586 - 3168541" locus_tag="PSYRMG_RS13795" class="clusterblast-orf" id="dummy-1_h1_10_7"  />
</g>
<g id="a1_008"  >
<polygon points="159,90 188,90 193,85 188,80 159,80 159,90 " style="fill:white; stroke-width:1; stroke:black; " description="&lt;b&gt;PSYRMG_RS13800&lt;/b&gt;&lt;br&gt;RNA polymerase sigma factor RpoD&lt;br&gt;Location: 3168609 - 3170459" locus_tag="PSYRMG_RS13800" class="clusterblast-orf" id="dummy-1_h1_10_8"  />
</g>
<g id="a1_009"  >
<polygon points="198,90 240,90 245,85 240,80 198,80 198,90 " style="fill:white; stroke-width:1; stroke:black; " description="&lt;b&gt;PSYRMG_RS13805&lt;/b&gt;&lt;br&gt;bifunctional diguanylate cyclase/phosphodiesterase&lt;br&gt;Location: 3170728 - 3173214" locus_tag="PSYRMG_RS13805" class="clusterblast-orf" id="dummy-1_h1_10_9"  />
</g>
<g id="a1_0010"  >
<polygon points="251,85 256,80 260,80 260,90 256,90 251,85 " style="fill:white; stroke-width:1; stroke:black; " description="&lt;b&gt;PSYRMG_RS13815&lt;/b&gt;&lt;br&gt;peptide-methionine (S)-S-oxide reductase MsrA&lt;br&gt;Location: 3173518 - 3174024" locus_tag="PSYRMG_RS13815" class="clusterblast-orf" id="dummy-1_h1_10_10"  />
</g>
<g id="a1_0011"  >
<polygon points="268,90 279,90 284,85 279,80 268,80 268,90 " style="fill:white; stroke-width:1; stroke:black; " description="&lt;b&gt;PSYRMG_RS13820&lt;/b&gt;&lt;br&gt;formate/nitrite transporter family protein&lt;br&gt;Location: 3174468 - 3175283" locus_tag="PSYRMG_RS13820" class="clusterblast-orf" id="dummy-1_h1_10_11"  />
</g>
<g id="a1_0012"  >
<polygon points="287,85 292,80 298,80 298,90 292,90 287,85 " style="fill:white; stroke-width:1; stroke:black; " description="&lt;b&gt;PSYRMG_RS13825&lt;/b&gt;&lt;br&gt;LysE family translocator&lt;br&gt;Location: 3175460 - 3176035" locus_tag="PSYRMG_RS13825" class="clusterblast-orf" id="dummy-1_h1_10_12"  />
</g>
<g id="a1_0013"  >
<polygon points="299,85 304,80 314,80 314,90 304,90 299,85 " style="fill:white; stroke-width:1; stroke:black; " description="&lt;b&gt;PSYRMG_RS13830&lt;/b&gt;&lt;br&gt;AraC family transcriptional regulator&lt;br&gt;Location: 3176085 - 3176921" locus_tag="PSYRMG_RS13830" class="clusterblast-orf" id="dummy-1_h1_10_13"  />
</g>
<g id="a1_0014"  >
<polygon points="320,90 326,90 331,85 326,80 320,80 320,90 " style="fill:white; stroke-width:1; stroke:black; " description="&lt;b&gt;PSYRMG_RS13835&lt;/b&gt;&lt;br&gt;hypothetical protein&lt;br&gt;Location: 3177221 - 3177814" locus_tag="PSYRMG_RS13835" class="clusterblast-orf" id="dummy-1_h1_10_14"  />
</g>
<g id="a1_0015"  >
<polygon points="338,90 342,90 347,85 342,80 338,80 338,90 " style="fill:white; stroke-width:1; stroke:black; " description="&lt;b&gt;PSYRMG_RS13840&lt;/b&gt;&lt;br&gt;putative addiction module antidote protein&lt;br&gt;Location: 3178184 - 3178675" locus_tag="PSYRMG_RS13840" class="clusterblast-orf" id="dummy-1_h1_10_15"  />
</g>
<g id="a1_0016"  >
<polygon points="349,85 354,80 361,80 361,90 354,90 349,85 " style="fill:white; stroke-width:1; stroke:black; " description="&lt;b&gt;PSYRMG_RS13845&lt;/b&gt;&lt;br&gt;4'-phosphopantetheinyl transferase superfamily protein&lt;br&gt;Location: 3178770 - 3179402" locus_tag="PSYRMG_RS13845" class="clusterblast-orf" id="dummy-1_h1_10_16"  />
</g>
<g id="a1_0017"  >
<polygon points="361,85 366,80 437,80 437,90 366,90 361,85 " style="fill:white; stroke-width:1; stroke:black; " description="&lt;b&gt;PSYRMG_RS13850&lt;/b&gt;&lt;br&gt;non-ribosomal peptide synthetase&lt;br&gt;Location: 3179399 - 3183439" locus_tag="PSYRMG_RS13850" class="clusterblast-orf" id="dummy-1_h1_10_17"  />
</g>
<g id="a1_0018"  >
<polygon points="441,85 446,80 451,80 451,90 446,90 441,85 " style="fill:white; stroke-width:1; stroke:black; " description="&lt;b&gt;PSYRMG_RS13855&lt;/b&gt;&lt;br&gt;GNAT family N-acetyltransferase&lt;br&gt;Location: 3183692 - 3184195" locus_tag="PSYRMG_RS13855" class="clusterblast-orf" id="dummy-1_h1_10_18"  />
</g>
<g id="a1_0019"  >
<polygon points="454,90 470,90 475,85 470,80 454,80 454,90 " style="fill:white; stroke-width:1; stroke:black; " description="&lt;b&gt;PSYRMG_RS13860&lt;/b&gt;&lt;br&gt;Fic family protein&lt;br&gt;Location: 3184336 - 3185466" locus_tag="PSYRMG_RS13860" class="clusterblast-orf" id="dummy-1_h1_10_19"  />
</g>
<g id="a1_0020"  >
<polygon points="475,85 479,80 479,90 475,85 " style="fill:white; stroke-width:1; stroke:black; " description="&lt;b&gt;PSYRMG_RS13865&lt;/b&gt;&lt;br&gt;hypothetical protein&lt;br&gt;Location: 3185491 - 3185703" locus_tag="PSYRMG_RS13865" class="clusterblast-orf" id="dummy-1_h1_10_20"  />
</g>
<g id="a1_0021"  >
<polygon points="484,90 499,90 504,85 499,80 484,80 484,90 " style="fill:white; stroke-width:1; stroke:black; " description="&lt;b&gt;PSYRMG_RS13870&lt;/b&gt;&lt;br&gt;FUSC family protein&lt;br&gt;Location: 3185958 - 3187043" locus_tag="PSYRMG_RS13870" class="clusterblast-orf" id="dummy-1_h1_10_21"  />
</g>
<g id="a1_0022"  >
<polygon points="504,90 508,90 513,85 508,80 504,80 504,90 " style="fill:#d81515; stroke-width:1; stroke:black; " description="&lt;b&gt;PSYRMG_RS13875&lt;/b&gt;&lt;br&gt;Lrp/AsnC family transcriptional regulator&lt;br&gt;Location: 3187054 - 3187515&lt;br&gt;&lt;br&gt;&lt;b&gt;BlastP hit with MCIC6FC_020538&lt;/b&gt;&lt;br&gt;Percentage identity: 93&lt;br&gt;Percentage coverage: 34&lt;br&gt;BLAST bit score: 259&lt;br&gt;E-value: 5.3e-67" locus_tag="PSYRMG_RS13875" class="clusterblast-orf" id="dummy-1_h1_10_22"  />
</g>
<g id="a1_0023"  >
<polygon points="516,90 542,90 547,85 542,80 516,80 516,90 " style="fill:#15d863; stroke-width:1; stroke:black; " description="&lt;b&gt;PSYRMG_RS13880&lt;/b&gt;&lt;br&gt;NAD(P)/FAD-dependent oxidoreductase&lt;br&gt;Location: 3187667 - 3189346&lt;br&gt;&lt;br&gt;&lt;b&gt;BlastP hit with MCIC6FC_020539&lt;/b&gt;&lt;br&gt;Percentage identity: 91&lt;br&gt;Percentage coverage: 33&lt;br&gt;BLAST bit score: 1012&lt;br&gt;E-value: 3.9e-293" locus_tag="PSYRMG_RS13880" class="clusterblast-orf" id="dummy-1_h1_10_23"  />
</g>
<g id="a1_0024"  >
<polygon points="548,90 558,90 563,85 558,80 548,80 548,90 " style="fill:#15d863; stroke-width:1; stroke:black; " description="&lt;b&gt;PSYRMG_RS13885&lt;/b&gt;&lt;br&gt;carbon-nitrogen hydrolase family protein&lt;br&gt;Location: 3189362 - 3190156&lt;br&gt;&lt;br&gt;&lt;b&gt;BlastP hit with MCIC6FC_020539&lt;/b&gt;&lt;br&gt;Percentage identity: 70&lt;br&gt;Percentage coverage: 16&lt;br&gt;BLAST bit score: 367&lt;br&gt;E-value: 6.5e-99" locus_tag="PSYRMG_RS13885" class="clusterblast-orf" id="dummy-1_h1_10_24"  />
</g>
<g id="a1_0025"  >
<polygon points="566,90 604,90 609,85 604,80 566,80 566,90 " style="fill:#15d863; stroke-width:1; stroke:black; " description="&lt;b&gt;PSYRMG_RS13890&lt;/b&gt;&lt;br&gt;pyrroloquinoline quinone biosynthesis protein PqqF&lt;br&gt;Location: 3190362 - 3192650&lt;br&gt;&lt;br&gt;&lt;b&gt;BlastP hit with MCIC6FC_020539&lt;/b&gt;&lt;br&gt;Percentage identity: 45&lt;br&gt;Percentage coverage: 50&lt;br&gt;BLAST bit score: 579&lt;br&gt;E-value: 1.4e-162" locus_tag="PSYRMG_RS13890" class="clusterblast-orf" id="dummy-1_h1_10_25"  />
</g>
<g id="a1_0026"  >
<polygon points="612,90 613,85 612,80 612,90 " style="fill:white; stroke-width:1; stroke:black; " description="&lt;b&gt;PSYRMG_RS26150&lt;/b&gt;&lt;br&gt;pyrroloquinoline quinone precursor peptide PqqA&lt;br&gt;Location: 3192786 - 3192860" locus_tag="PSYRMG_RS26150" class="clusterblast-orf" id="dummy-1_h1_10_26"  />
</g>
<g id="a1_0027"  >
<polygon points="615,90 627,90 632,85 627,80 615,80 615,90 " style="fill:#1563d8; stroke-width:1; stroke:black; " description="&lt;b&gt;PSYRMG_RS13895&lt;/b&gt;&lt;br&gt;pyrroloquinoline quinone biosynthesis protein PqqB&lt;br&gt;Location: 3192949 - 3193860&lt;br&gt;&lt;br&gt;&lt;b&gt;BlastP hit with MCIC6FC_020540&lt;/b&gt;&lt;br&gt;Percentage identity: 90&lt;br&gt;Percentage coverage: 95&lt;br&gt;BLAST bit score: 556&lt;br&gt;E-value: 1.4e-156" locus_tag="PSYRMG_RS13895" class="clusterblast-orf" id="dummy-1_h1_10_27"  />
</g>
<g id="a1_0028"  >
<polygon points="632,90 641,90 646,85 641,80 632,80 632,90 " style="fill:#b115d8; stroke-width:1; stroke:black; " description="&lt;b&gt;PSYRMG_RS13900&lt;/b&gt;&lt;br&gt;pyrroloquinoline-quinone synthase PqqC&lt;br&gt;Location: 3193869 - 3194624&lt;br&gt;&lt;br&gt;&lt;b&gt;BlastP hit with MCIC6FC_020541&lt;/b&gt;&lt;br&gt;Percentage identity: 94&lt;br&gt;Percentage coverage: 36&lt;br&gt;BLAST bit score: 475&lt;br&gt;E-value: 9.2e-132" locus_tag="PSYRMG_RS13900" class="clusterblast-orf" id="dummy-1_h1_10_28"  />
</g>
<g id="a1_0029"  >
<polygon points="646,90 647,90 652,85 647,80 646,80 646,90 " style="fill:#b115d8; stroke-width:1; stroke:black; " description="&lt;b&gt;PSYRMG_RS13905&lt;/b&gt;&lt;br&gt;pyrroloquinoline quinone biosynthesis peptide chaperone PqqD&lt;br&gt;Location: 3194621 - 3194905&lt;br&gt;&lt;br&gt;&lt;b&gt;BlastP hit with MCIC6FC_020541&lt;/b&gt;&lt;br&gt;Percentage identity: 69&lt;br&gt;Percentage coverage: 11&lt;br&gt;BLAST bit score: 108&lt;br&gt;E-value: 2.3e-21" locus_tag="PSYRMG_RS13905" class="clusterblast-orf" id="dummy-1_h1_10_29"  />
</g>
<g id="a1_0030"  >
<polygon points="652,90 668,90 673,85 668,80 652,80 652,90 " style="fill:#b115d8; stroke-width:1; stroke:black; " description="&lt;b&gt;PSYRMG_RS13910&lt;/b&gt;&lt;br&gt;pyrroloquinoline quinone biosynthesis protein PqqE&lt;br&gt;Location: 3194898 - 3196067&lt;br&gt;&lt;br&gt;&lt;b&gt;BlastP hit with MCIC6FC_020541&lt;/b&gt;&lt;br&gt;Percentage identity: 84&lt;br&gt;Percentage coverage: 56&lt;br&gt;BLAST bit score: 668&lt;br&gt;E-value: 5.7e-190" locus_tag="PSYRMG_RS13910" class="clusterblast-orf" id="dummy-1_h1_10_30"  />
</g>
<g id="a1_0031"  >
<polygon points="673,90 702,90 707,85 702,80 673,80 673,90 " style="fill:white; stroke-width:1; stroke:black; " description="&lt;b&gt;PSYRMG_RS13915&lt;/b&gt;&lt;br&gt;S9 family peptidase&lt;br&gt;Location: 3196030 - 3197856" locus_tag="PSYRMG_RS13915" class="clusterblast-orf" id="dummy-1_h1_10_31"  />
</g>
<g id="a1_0032"  >
<polygon points="708,85 711,80 711,90 708,85 " style="fill:white; stroke-width:1; stroke:black; " description="&lt;b&gt;PSYRMG_RS13920&lt;/b&gt;&lt;br&gt;YqaE/Pmp3 family membrane protein&lt;br&gt;Location: 3197912 - 3198073" locus_tag="PSYRMG_RS13920" class="clusterblast-orf" id="dummy-1_h1_10_32"  />
</g>
<g id="a1_0033"  >
<polygon points="719,85 724,80 752,80 752,90 724,90 719,85 " style="fill:#b1d815; stroke-width:1; stroke:black; " description="&lt;b&gt;PSYRMG_RS13925&lt;/b&gt;&lt;br&gt;acyl-CoA dehydrogenase&lt;br&gt;Location: 3198477 - 3200255&lt;br&gt;&lt;br&gt;&lt;b&gt;BlastP hit with MCIC6FC_020544&lt;/b&gt;&lt;br&gt;Percentage identity: 84&lt;br&gt;Percentage coverage: 93&lt;br&gt;BLAST bit score: 996&lt;br&gt;E-value: 1.5e-288&lt;br&gt;&lt;br&gt;&lt;b&gt;BlastP hit with MCIC6FC_020545&lt;/b&gt;&lt;br&gt;Percentage identity: 55&lt;br&gt;Percentage coverage: 59&lt;br&gt;BLAST bit score: 639&lt;br&gt;E-value: 4.3e-181" locus_tag="PSYRMG_RS13925" class="clusterblast-orf" id="dummy-1_h1_10_33"  />
</g>
<g id="a1_0034"  >
<polygon points="755,85 760,80 780,80 780,90 760,90 755,85 " style="fill:#b1d815; stroke-width:1; stroke:black; " description="&lt;b&gt;PSYRMG_RS13930&lt;/b&gt;&lt;br&gt;GGDEF domain-containing protein&lt;br&gt;Location: 3200425 - 3201723&lt;br&gt;&lt;br&gt;&lt;b&gt;BlastP hit with MCIC6FC_020545&lt;/b&gt;&lt;br&gt;Percentage identity: 77&lt;br&gt;Percentage coverage: 42&lt;br&gt;BLAST bit score: 641&lt;br&gt;E-value: 1.9e-181" locus_tag="PSYRMG_RS13930" class="clusterblast-orf" id="dummy-1_h1_10_34"  />
</g>
</svg>
