<svg xmlns="http://www.w3.org/2000/svg" xmlns:xlink="http://www.w3.org/1999/xlink" version="1.1" x="0" y="0" height="230" width="800" viewBox="0 0 800 230" preserveAspectRatio="none"  >
<g label="Query sequence" class="clusterblast-cluster"  >
<text x="5" y="20" class="clusterblast-acc"  >
Query sequence</text>
<line x1="10" y1="35" x2="778.0" y2="35" style="stroke-width:1; stroke:grey; "  />
<polygon points="5,40 55,40 60,35 55,30 5,30 5,40 " style="fill:#d81515; stroke-width:1; stroke:black; " description="&lt;b&gt;MCIC6FC_005835&lt;/b&gt;&lt;br&gt;hypothetical protein&lt;br&gt;Location: 2047281 - 2050906" locus_tag="MCIC6FC_005835" class="clusterblast-orf" id="dummy-4_q0_0_all"  />
<polygon points="60,40 80,40 85,35 80,30 60,30 60,40 " style="fill:#6ad815; stroke-width:1; stroke:black; " description="&lt;b&gt;MCIC6FC_005836&lt;/b&gt;&lt;br&gt;hypothetical protein&lt;br&gt;Location: 2050941 - 2052611" locus_tag="MCIC6FC_005836" class="clusterblast-orf" id="dummy-4_q1_0_all"  />
<polygon points="86,40 108,40 113,35 108,30 86,30 86,40 " style="fill:#15bfd8; stroke-width:1; stroke:black; " description="&lt;b&gt;MCIC6FC_005837&lt;/b&gt;&lt;br&gt;hypothetical protein&lt;br&gt;Location: 2052634 - 2054500" locus_tag="MCIC6FC_005837" class="clusterblast-orf" id="dummy-4_q2_0_all"  />
<polygon points="116,40 123,40 128,35 123,30 116,30 116,40 " style="fill:#9d15d8; stroke-width:1; stroke:black; " description="&lt;b&gt;MCIC6FC_005838&lt;/b&gt;&lt;br&gt;hypothetical protein&lt;br&gt;Location: 2054640 - 2055468" locus_tag="MCIC6FC_005838" class="clusterblast-orf" id="dummy-4_q3_0_all"  />
<polygon points="129,35 134,30 155,30 155,40 134,40 129,35 " style="fill:#d84815; stroke-width:1; stroke:black; " description="&lt;b&gt;MCIC6FC_005839&lt;/b&gt;&lt;br&gt;hypothetical protein&lt;br&gt;Location: 2055536 - 2057256" locus_tag="MCIC6FC_005839" class="clusterblast-orf" id="dummy-4_q4_0_all"  />
<polygon points="158,35 163,30 177,30 177,40 163,40 158,35 " style="fill:#37d815; stroke-width:1; stroke:black; " description="&lt;b&gt;MCIC6FC_005840&lt;/b&gt;&lt;br&gt;hypothetical protein&lt;br&gt;Location: 2057492 - 2058741" locus_tag="MCIC6FC_005840" class="clusterblast-orf" id="dummy-4_q5_0_all"  />
<polygon points="178,35 183,30 188,30 188,40 183,40 178,35 " style="fill:#158cd8; stroke-width:1; stroke:black; " description="&lt;b&gt;MCIC6FC_005841&lt;/b&gt;&lt;br&gt;hypothetical protein&lt;br&gt;Location: 2058819 - 2059497" locus_tag="MCIC6FC_005841" class="clusterblast-orf" id="dummy-4_q6_0_all"  />
<polygon points="191,40 219,40 224,35 219,30 191,30 191,40 " style="fill:#d015d8; stroke-width:1; stroke:black; " description="&lt;b&gt;MCIC6FC_005842&lt;/b&gt;&lt;br&gt;hypothetical protein&lt;br&gt;Location: 2059651 - 2061882" locus_tag="MCIC6FC_005842" class="clusterblast-orf" id="dummy-4_q7_0_all"  />
<polygon points="225,40 236,40 241,35 236,30 225,30 225,40 " style="fill:#d015d8; stroke-width:1; stroke:black; " description="&lt;b&gt;MCIC6FC_005843&lt;/b&gt;&lt;br&gt;hypothetical protein&lt;br&gt;Location: 2061923 - 2063008" locus_tag="MCIC6FC_005843" class="clusterblast-orf" id="dummy-4_q8_0_all"  />
<polygon points="241,35 246,30 256,30 256,40 246,40 241,35 " style="fill:#d87b15; stroke-width:1; stroke:black; " description="&lt;b&gt;MCIC6FC_005844&lt;/b&gt;&lt;br&gt;hypothetical protein&lt;br&gt;Location: 2063011 - 2064018" locus_tag="MCIC6FC_005844" class="clusterblast-orf" id="dummy-4_q9_0_all"  />
<polygon points="258,35 263,30 265,30 265,40 263,40 258,35 " style="fill:#15d826; stroke-width:1; stroke:black; " description="&lt;b&gt;MCIC6FC_005845&lt;/b&gt;&lt;br&gt;hypothetical protein&lt;br&gt;Location: 2064129 - 2064652" locus_tag="MCIC6FC_005845" class="clusterblast-orf" id="dummy-4_q10_0_all"  />
<polygon points="268,35 273,30 301,30 301,40 273,40 268,35 " style="fill:#1559d8; stroke-width:1; stroke:black; " description="&lt;b&gt;MCIC6FC_005846&lt;/b&gt;&lt;br&gt;hypothetical protein&lt;br&gt;Location: 2064850 - 2067013" locus_tag="MCIC6FC_005846" class="clusterblast-orf" id="dummy-4_q11_0_all"  />
<polygon points="303,35 308,30 498,30 498,40 308,40 303,35 " style="fill:#d815ae; stroke-width:1; stroke:black; " description="&lt;b&gt;MCIC6FC_005847&lt;/b&gt;&lt;br&gt;hypothetical protein&lt;br&gt;Location: 2067133 - 2080148" locus_tag="MCIC6FC_005847" class="clusterblast-orf" id="dummy-4_q12_0_all"  />
<polygon points="503,40 506,40 511,35 506,30 503,30 503,40 " style="fill:#d8ae15; stroke-width:1; stroke:black; " description="&lt;b&gt;MCIC6FC_005848&lt;/b&gt;&lt;br&gt;hypothetical protein&lt;br&gt;Location: 2080521 - 2081070" locus_tag="MCIC6FC_005848" class="clusterblast-orf" id="dummy-4_q13_0_all"  />
<polygon points="512,35 517,30 531,30 531,40 517,40 512,35 " style="fill:#15d859; stroke-width:1; stroke:black; " description="&lt;b&gt;MCIC6FC_005849&lt;/b&gt;&lt;br&gt;hypothetical protein&lt;br&gt;Location: 2081115 - 2082375" locus_tag="MCIC6FC_005849" class="clusterblast-orf" id="dummy-4_q14_0_all"  />
<polygon points="532,35 537,30 543,30 543,40 537,40 532,35 " style="fill:#1526d8; stroke-width:1; stroke:black; " description="&lt;b&gt;MCIC6FC_005850&lt;/b&gt;&lt;br&gt;hypothetical protein&lt;br&gt;Location: 2082459 - 2083207" locus_tag="MCIC6FC_005850" class="clusterblast-orf" id="dummy-4_q15_0_all"  />
<polygon points="544,40 603,40 608,35 603,30 544,30 544,40 " style="fill:#d8157b; stroke-width:1; stroke:black; " description="&lt;b&gt;MCIC6FC_005851&lt;/b&gt;&lt;br&gt;hypothetical protein&lt;br&gt;Location: 2083275 - 2087517" locus_tag="MCIC6FC_005851" class="clusterblast-orf" id="dummy-4_q16_0_all"  />
<polygon points="609,40 633,40 638,35 633,30 609,30 609,40 " style="fill:#d0d815; stroke-width:1; stroke:black; " description="&lt;b&gt;MCIC6FC_005852&lt;/b&gt;&lt;br&gt;hypothetical protein&lt;br&gt;Location: 2087610 - 2089562" locus_tag="MCIC6FC_005852" class="clusterblast-orf" id="dummy-4_q17_0_all"  />
<polygon points="639,40 663,40 668,35 663,30 639,30 639,40 " style="fill:#15d88c; stroke-width:1; stroke:black; " description="&lt;b&gt;MCIC6FC_005853&lt;/b&gt;&lt;br&gt;hypothetical protein&lt;br&gt;Location: 2089608 - 2091564" locus_tag="MCIC6FC_005853" class="clusterblast-orf" id="dummy-4_q18_0_all"  />
<polygon points="671,40 674,40 679,35 674,30 671,30 671,40 " style="fill:#3715d8; stroke-width:1; stroke:black; " description="&lt;b&gt;MCIC6FC_005854&lt;/b&gt;&lt;br&gt;hypothetical protein&lt;br&gt;Location: 2091767 - 2092241" locus_tag="MCIC6FC_005854" class="clusterblast-orf" id="dummy-4_q19_0_all"  />
<polygon points="680,40 684,35 680,30 680,40 " style="fill:#d81548; stroke-width:1; stroke:black; " description="&lt;b&gt;MCIC6FC_005855&lt;/b&gt;&lt;br&gt;hypothetical protein&lt;br&gt;Location: 2092315 - 2092600" locus_tag="MCIC6FC_005855" class="clusterblast-orf" id="dummy-4_q20_0_all"  />
<polygon points="685,35 690,30 712,30 712,40 690,40 685,35 " style="fill:#9dd815; stroke-width:1; stroke:black; " description="&lt;b&gt;MCIC6FC_005856&lt;/b&gt;&lt;br&gt;hypothetical protein&lt;br&gt;Location: 2092677 - 2094503" locus_tag="MCIC6FC_005856" class="clusterblast-orf" id="dummy-4_q21_0_all"  />
<polygon points="721,40 754,40 759,35 754,30 721,30 721,40 " style="fill:#15d8bf; stroke-width:1; stroke:black; " description="&lt;b&gt;MCIC6FC_005857&lt;/b&gt;&lt;br&gt;hypothetical protein&lt;br&gt;Location: 2095064 - 2097589" locus_tag="MCIC6FC_005857" class="clusterblast-orf" id="dummy-4_q22_0_all"  />
<polygon points="759,35 764,30 774,30 774,40 764,40 759,35 " style="fill:#6a15d8; stroke-width:1; stroke:black; " description="&lt;b&gt;MCIC6FC_005858&lt;/b&gt;&lt;br&gt;hypothetical protein&lt;br&gt;Location: 2097590 - 2098608" locus_tag="MCIC6FC_005858" class="clusterblast-orf" id="dummy-4_q23_0_all"  />
</g>
<g label="NZ_CP027714" description="NZ_CP027714 (4576116-4629145): Pseudomonas chlororaphis strain ATCC 17415 chr... (91% of genes show similarity), NRPS" class="clusterblast-cluster"  >
<text x="5" y="70" class="clusterblast-acc"  >
<a xlink:href="https://antismash-db.secondarymetabolites.org/area.html?record=NZ_CP027714&amp;start=4576116&amp;end=4629145" target="_blank">NZ_CP027714 (4576116-4629145)</a>: Pseudomonas chlororaphis strain ATCC 17415 chr... (91% of genes show similarity), NRPS</text>
<line x1="10" y1="85" x2="778.0" y2="85" style="stroke-width:1; stroke:grey; "  />
</g>
<g id="a4_000"  >
<polygon points="0,90 3,90 8,85 3,80 0,80 0,90 " style="fill:#d81515; stroke-width:1; stroke:black; " description="&lt;b&gt;C4K25_RS20310&lt;/b&gt;&lt;br&gt;hypothetical protein&lt;br&gt;Location: 4576179 - 4576751&lt;br&gt;&lt;br&gt;&lt;b&gt;BlastP hit with MCIC6FC_005835&lt;/b&gt;&lt;br&gt;Percentage identity: 77&lt;br&gt;Percentage coverage: 17&lt;br&gt;BLAST bit score: 287&lt;br&gt;E-value: 5.9e-75" locus_tag="C4K25_RS20310" class="clusterblast-orf" id="dummy-4_h4_4_0"  />
</g>
<g id="a4_001"  >
<polygon points="9,90 18,90 23,85 18,80 9,80 9,90 " style="fill:#6ad815; stroke-width:1; stroke:black; " description="&lt;b&gt;C4K25_RS20315&lt;/b&gt;&lt;br&gt;zinc ABC transporter substrate-binding protein&lt;br&gt;Location: 4576786 - 4577715&lt;br&gt;&lt;br&gt;&lt;b&gt;BlastP hit with MCIC6FC_005836&lt;/b&gt;&lt;br&gt;Percentage identity: 95&lt;br&gt;Percentage coverage: 55&lt;br&gt;BLAST bit score: 564&lt;br&gt;E-value: 1.6e-158" locus_tag="C4K25_RS20315" class="clusterblast-orf" id="dummy-4_h4_4_1"  />
</g>
<g id="a4_002"  >
<polygon points="22,90 29,90 34,85 29,80 22,80 22,90 " style="fill:#6ad815; stroke-width:1; stroke:black; " description="&lt;b&gt;C4K25_RS20320&lt;/b&gt;&lt;br&gt;metal ABC transporter ATP-binding protein&lt;br&gt;Location: 4577712 - 4578467&lt;br&gt;&lt;br&gt;&lt;b&gt;BlastP hit with MCIC6FC_005836&lt;/b&gt;&lt;br&gt;Percentage identity: 90&lt;br&gt;Percentage coverage: 44&lt;br&gt;BLAST bit score: 430&lt;br&gt;E-value: 2.8e-118" locus_tag="C4K25_RS20320" class="clusterblast-orf" id="dummy-4_h4_4_2"  />
</g>
<g id="a4_003"  >
<polygon points="34,90 42,90 47,85 42,80 34,80 34,90 " style="fill:#15bfd8; stroke-width:1; stroke:black; " description="&lt;b&gt;C4K25_RS20325&lt;/b&gt;&lt;br&gt;metal ABC transporter permease&lt;br&gt;Location: 4578467 - 4579366&lt;br&gt;&lt;br&gt;&lt;b&gt;BlastP hit with MCIC6FC_005837&lt;/b&gt;&lt;br&gt;Percentage identity: 97&lt;br&gt;Percentage coverage: 48&lt;br&gt;BLAST bit score: 441&lt;br&gt;E-value: 1.7e-121" locus_tag="C4K25_RS20325" class="clusterblast-orf" id="dummy-4_h4_4_3"  />
</g>
<g id="a4_004"  >
<polygon points="47,90 57,90 62,85 57,80 47,80 47,90 " style="fill:#15bfd8; stroke-width:1; stroke:black; " description="&lt;b&gt;C4K25_RS20330&lt;/b&gt;&lt;br&gt;zinc ABC transporter solute-binding protein&lt;br&gt;Location: 4579367 - 4580353&lt;br&gt;&lt;br&gt;&lt;b&gt;BlastP hit with MCIC6FC_005837&lt;/b&gt;&lt;br&gt;Percentage identity: 81&lt;br&gt;Percentage coverage: 54&lt;br&gt;BLAST bit score: 493&lt;br&gt;E-value: 3.8e-137" locus_tag="C4K25_RS20330" class="clusterblast-orf" id="dummy-4_h4_4_4"  />
</g>
<g id="a4_005"  >
<polygon points="65,90 72,90 77,85 72,80 65,80 65,90 " style="fill:#9d15d8; stroke-width:1; stroke:black; " description="&lt;b&gt;C4K25_RS20340&lt;/b&gt;&lt;br&gt;class I SAM-dependent methyltransferase&lt;br&gt;Location: 4580560 - 4581387&lt;br&gt;&lt;br&gt;&lt;b&gt;BlastP hit with MCIC6FC_005838&lt;/b&gt;&lt;br&gt;Percentage identity: 75&lt;br&gt;Percentage coverage: 99&lt;br&gt;BLAST bit score: 447&lt;br&gt;E-value: 1.1e-123" locus_tag="C4K25_RS20340" class="clusterblast-orf" id="dummy-4_h4_4_5"  />
</g>
<g id="a4_006"  >
<polygon points="82,85 85,80 85,90 82,85 " style="fill:#d84815; stroke-width:1; stroke:black; " description="&lt;b&gt;C4K25_RS20345&lt;/b&gt;&lt;br&gt;MbtH family protein&lt;br&gt;Location: 4581678 - 4581902&lt;br&gt;&lt;br&gt;&lt;b&gt;BlastP hit with MCIC6FC_005839&lt;/b&gt;&lt;br&gt;Percentage identity: 93&lt;br&gt;Percentage coverage: 14&lt;br&gt;BLAST bit score: 149&lt;br&gt;E-value: 1.2e-33" locus_tag="C4K25_RS20345" class="clusterblast-orf" id="dummy-4_h4_4_6"  />
</g>
<g id="a4_007"  >
<polygon points="86,85 91,80 108,80 108,90 91,90 86,85 " style="fill:#d84815; stroke-width:1; stroke:black; " description="&lt;b&gt;C4K25_RS20350&lt;/b&gt;&lt;br&gt;aspartate aminotransferase family protein&lt;br&gt;Location: 4581984 - 4583396&lt;br&gt;&lt;br&gt;&lt;b&gt;BlastP hit with MCIC6FC_005839&lt;/b&gt;&lt;br&gt;Percentage identity: 85&lt;br&gt;Percentage coverage: 88&lt;br&gt;BLAST bit score: 775&lt;br&gt;E-value: 3.4e-222" locus_tag="C4K25_RS20350" class="clusterblast-orf" id="dummy-4_h4_4_7"  />
</g>
<g id="a4_008"  >
<polygon points="112,85 117,80 131,80 131,90 117,90 112,85 " style="fill:#37d815; stroke-width:1; stroke:black; " description="&lt;b&gt;C4K25_RS20355&lt;/b&gt;&lt;br&gt;two-component sensor histidine kinase&lt;br&gt;Location: 4583670 - 4584992&lt;br&gt;&lt;br&gt;&lt;b&gt;BlastP hit with MCIC6FC_005840&lt;/b&gt;&lt;br&gt;Percentage identity: 81&lt;br&gt;Percentage coverage: 103&lt;br&gt;BLAST bit score: 651&lt;br&gt;E-value: 7.4e-185" locus_tag="C4K25_RS20355" class="clusterblast-orf" id="dummy-4_h4_4_8"  />
</g>
<g id="a4_009"  >
<polygon points="132,85 137,80 142,80 142,90 137,90 132,85 " style="fill:#158cd8; stroke-width:1; stroke:black; " description="&lt;b&gt;C4K25_RS20360&lt;/b&gt;&lt;br&gt;response regulator&lt;br&gt;Location: 4584996 - 4585673&lt;br&gt;&lt;br&gt;&lt;b&gt;BlastP hit with MCIC6FC_005841&lt;/b&gt;&lt;br&gt;Percentage identity: 96&lt;br&gt;Percentage coverage: 99&lt;br&gt;BLAST bit score: 415&lt;br&gt;E-value: 5e-114" locus_tag="C4K25_RS20360" class="clusterblast-orf" id="dummy-4_h4_4_9"  />
</g>
<g id="a4_0010"  >
<polygon points="144,90 165,90 170,85 165,80 144,80 144,90 " style="fill:#d015d8; stroke-width:1; stroke:black; " description="&lt;b&gt;C4K25_RS20365&lt;/b&gt;&lt;br&gt;protein-disulfide reductase DsbD&lt;br&gt;Location: 4585828 - 4587570&lt;br&gt;&lt;br&gt;&lt;b&gt;BlastP hit with MCIC6FC_005842&lt;/b&gt;&lt;br&gt;Percentage identity: 77&lt;br&gt;Percentage coverage: 77&lt;br&gt;BLAST bit score: 849&lt;br&gt;E-value: 3.3e-244" locus_tag="C4K25_RS20365" class="clusterblast-orf" id="dummy-4_h4_4_10"  />
</g>
<g id="a4_0011"  >
<polygon points="170,90 178,90 183,85 178,80 170,80 170,90 " style="fill:#d015d8; stroke-width:1; stroke:black; " description="&lt;b&gt;C4K25_RS20370&lt;/b&gt;&lt;br&gt;TlpA family protein disulfide reductase&lt;br&gt;Location: 4587570 - 4588442&lt;br&gt;&lt;br&gt;&lt;b&gt;BlastP hit with MCIC6FC_005842&lt;/b&gt;&lt;br&gt;Percentage identity: 86&lt;br&gt;Percentage coverage: 21&lt;br&gt;BLAST bit score: 271&lt;br&gt;E-value: 2.2e-70&lt;br&gt;&lt;br&gt;&lt;b&gt;BlastP hit with MCIC6FC_005843&lt;/b&gt;&lt;br&gt;Percentage identity: 86&lt;br&gt;Percentage coverage: 32&lt;br&gt;BLAST bit score: 183&lt;br&gt;E-value: 3.9e-44" locus_tag="C4K25_RS20370" class="clusterblast-orf" id="dummy-4_h4_4_11"  />
</g>
<g id="a4_0012"  >
<polygon points="183,90 189,90 194,85 189,80 183,80 183,90 " style="fill:#d015d8; stroke-width:1; stroke:black; " description="&lt;b&gt;C4K25_RS20375&lt;/b&gt;&lt;br&gt;thiol:disulfide interchange protein DsbG&lt;br&gt;Location: 4588418 - 4589185&lt;br&gt;&lt;br&gt;&lt;b&gt;BlastP hit with MCIC6FC_005843&lt;/b&gt;&lt;br&gt;Percentage identity: 81&lt;br&gt;Percentage coverage: 72&lt;br&gt;BLAST bit score: 418&lt;br&gt;E-value: 7.2e-115" locus_tag="C4K25_RS20375" class="clusterblast-orf" id="dummy-4_h4_4_12"  />
</g>
<g id="a4_0013"  >
<polygon points="196,90 241,90 246,85 241,80 196,80 196,90 " style="fill:white; stroke-width:1; stroke:black; " description="&lt;b&gt;C4K25_RS20380&lt;/b&gt;&lt;br&gt;ATP-binding protein&lt;br&gt;Location: 4589274 - 4592630" locus_tag="C4K25_RS20380" class="clusterblast-orf" id="dummy-4_h4_4_13"  />
</g>
<g id="a4_0014"  >
<polygon points="248,85 253,80 253,80 253,90 253,90 248,85 " style="fill:#15d826; stroke-width:1; stroke:black; " description="&lt;b&gt;C4K25_RS20385&lt;/b&gt;&lt;br&gt;DUF3077 domain-containing protein&lt;br&gt;Location: 4592761 - 4593135&lt;br&gt;&lt;br&gt;&lt;b&gt;BlastP hit with MCIC6FC_005845&lt;/b&gt;&lt;br&gt;Percentage identity: 68&lt;br&gt;Percentage coverage: 84&lt;br&gt;BLAST bit score: 153&lt;br&gt;E-value: 1.4e-35" locus_tag="C4K25_RS20385" class="clusterblast-orf" id="dummy-4_h4_4_14"  />
</g>
<g id="a4_0015"  >
<polygon points="264,85 269,80 280,80 280,90 269,90 264,85 " style="fill:#1559d8; stroke-width:1; stroke:black; " description="&lt;b&gt;C4K25_RS20390&lt;/b&gt;&lt;br&gt;hypothetical protein&lt;br&gt;Location: 4593830 - 4594882&lt;br&gt;&lt;br&gt;&lt;b&gt;BlastP hit with MCIC6FC_005846&lt;/b&gt;&lt;br&gt;Percentage identity: 82&lt;br&gt;Percentage coverage: 50&lt;br&gt;BLAST bit score: 614&lt;br&gt;E-value: 1e-173" locus_tag="C4K25_RS20390" class="clusterblast-orf" id="dummy-4_h4_4_15"  />
</g>
<g id="a4_0016"  >
<polygon points="283,85 288,80 295,80 295,90 288,90 283,85 " style="fill:#d87b15; stroke-width:1; stroke:black; " description="&lt;b&gt;C4K25_RS20395&lt;/b&gt;&lt;br&gt;alpha/beta fold hydrolase&lt;br&gt;Location: 4595101 - 4595919&lt;br&gt;&lt;br&gt;&lt;b&gt;BlastP hit with MCIC6FC_005844&lt;/b&gt;&lt;br&gt;Percentage identity: 84&lt;br&gt;Percentage coverage: 88&lt;br&gt;BLAST bit score: 474&lt;br&gt;E-value: 7.3e-132" locus_tag="C4K25_RS20395" class="clusterblast-orf" id="dummy-4_h4_4_16"  />
</g>
<g id="a4_0017"  >
<polygon points="298,85 303,80 493,80 493,90 303,90 298,85 " style="fill:#d815ae; stroke-width:1; stroke:black; " description="&lt;b&gt;C4K25_RS20400&lt;/b&gt;&lt;br&gt;non-ribosomal peptide synthetase&lt;br&gt;Location: 4596117 - 4609145&lt;br&gt;&lt;br&gt;&lt;b&gt;BlastP hit with MCIC6FC_005847&lt;/b&gt;&lt;br&gt;Percentage identity: 86&lt;br&gt;Percentage coverage: 101&lt;br&gt;BLAST bit score: 7522&lt;br&gt;E-value: 0.0" locus_tag="C4K25_RS20400" class="clusterblast-orf" id="dummy-4_h4_4_17"  />
</g>
<g id="a4_0018"  >
<polygon points="499,90 502,90 507,85 502,80 499,80 499,90 " style="fill:#d8ae15; stroke-width:1; stroke:black; " description="&lt;b&gt;C4K25_RS20405&lt;/b&gt;&lt;br&gt;RNA polymerase factor sigma-70&lt;br&gt;Location: 4609522 - 4610070&lt;br&gt;&lt;br&gt;&lt;b&gt;BlastP hit with MCIC6FC_005848&lt;/b&gt;&lt;br&gt;Percentage identity: 96&lt;br&gt;Percentage coverage: 98&lt;br&gt;BLAST bit score: 315&lt;br&gt;E-value: 3.1e-84" locus_tag="C4K25_RS20405" class="clusterblast-orf" id="dummy-4_h4_4_18"  />
</g>
<g id="a4_0019"  >
<polygon points="508,85 513,80 514,80 514,90 513,90 508,85 " style="fill:white; stroke-width:1; stroke:black; " description="&lt;b&gt;C4K25_RS20410&lt;/b&gt;&lt;br&gt;pyoverdine biosynthesis protein&lt;br&gt;Location: 4610127 - 4610564" locus_tag="C4K25_RS20410" class="clusterblast-orf" id="dummy-4_h4_4_19"  />
</g>
<g id="a4_0020"  >
<polygon points="516,85 521,80 527,80 527,90 521,90 516,85 " style="fill:#15d859; stroke-width:1; stroke:black; " description="&lt;b&gt;C4K25_RS20415&lt;/b&gt;&lt;br&gt;transporter substrate-binding domain-containing protein&lt;br&gt;Location: 4610648 - 4611439&lt;br&gt;&lt;br&gt;&lt;b&gt;BlastP hit with MCIC6FC_005849&lt;/b&gt;&lt;br&gt;Percentage identity: 68&lt;br&gt;Percentage coverage: 66&lt;br&gt;BLAST bit score: 321&lt;br&gt;E-value: 1e-85" locus_tag="C4K25_RS20415" class="clusterblast-orf" id="dummy-4_h4_4_20"  />
</g>
<g id="a4_0021"  >
<polygon points="529,85 534,80 538,80 538,90 534,90 529,85 " style="fill:#1526d8; stroke-width:1; stroke:black; " description="&lt;b&gt;C4K25_RS20420&lt;/b&gt;&lt;br&gt;TetR family transcriptional regulator&lt;br&gt;Location: 4611547 - 4612143&lt;br&gt;&lt;br&gt;&lt;b&gt;BlastP hit with MCIC6FC_005850&lt;/b&gt;&lt;br&gt;Percentage identity: 91&lt;br&gt;Percentage coverage: 88&lt;br&gt;BLAST bit score: 356&lt;br&gt;E-value: 1.6e-96" locus_tag="C4K25_RS20420" class="clusterblast-orf" id="dummy-4_h4_4_21"  />
</g>
<g id="a4_0022"  >
<polygon points="542,90 563,90 568,85 563,80 542,80 542,90 " style="fill:#d8157b; stroke-width:1; stroke:black; " description="&lt;b&gt;C4K25_RS20425&lt;/b&gt;&lt;br&gt;DUF1446 domain-containing protein&lt;br&gt;Location: 4612381 - 4614171&lt;br&gt;&lt;br&gt;&lt;b&gt;BlastP hit with MCIC6FC_005851&lt;/b&gt;&lt;br&gt;Percentage identity: 85&lt;br&gt;Percentage coverage: 45&lt;br&gt;BLAST bit score: 1020&lt;br&gt;E-value: 1.6e-295" locus_tag="C4K25_RS20425" class="clusterblast-orf" id="dummy-4_h4_4_22"  />
</g>
<g id="a4_0023"  >
<polygon points="569,90 577,90 582,85 577,80 569,80 569,90 " style="fill:#d8157b; stroke-width:1; stroke:black; " description="&lt;b&gt;C4K25_RS20430&lt;/b&gt;&lt;br&gt;SDR family oxidoreductase&lt;br&gt;Location: 4614184 - 4615068&lt;br&gt;&lt;br&gt;&lt;b&gt;BlastP hit with MCIC6FC_005851&lt;/b&gt;&lt;br&gt;Percentage identity: 86&lt;br&gt;Percentage coverage: 19&lt;br&gt;BLAST bit score: 425&lt;br&gt;E-value: 2.2e-116" locus_tag="C4K25_RS20430" class="clusterblast-orf" id="dummy-4_h4_4_23"  />
</g>
<g id="a4_0024"  >
<polygon points="582,90 601,90 606,85 601,80 582,80 582,90 " style="fill:#d8157b; stroke-width:1; stroke:black; " description="&lt;b&gt;C4K25_RS20435&lt;/b&gt;&lt;br&gt;acyl-CoA carboxylase subunit beta&lt;br&gt;Location: 4615072 - 4616688&lt;br&gt;&lt;br&gt;&lt;b&gt;BlastP hit with MCIC6FC_005851&lt;/b&gt;&lt;br&gt;Percentage identity: 91&lt;br&gt;Percentage coverage: 38&lt;br&gt;BLAST bit score: 922&lt;br&gt;E-value: 5.8e-266" locus_tag="C4K25_RS20435" class="clusterblast-orf" id="dummy-4_h4_4_24"  />
</g>
<g id="a4_0025"  >
<polygon points="609,90 622,90 627,85 622,80 609,80 609,90 " style="fill:#d0d815; stroke-width:1; stroke:black; " description="&lt;b&gt;C4K25_RS20440&lt;/b&gt;&lt;br&gt;acyl-CoA/acyl-ACP dehydrogenase&lt;br&gt;Location: 4616899 - 4618056&lt;br&gt;&lt;br&gt;&lt;b&gt;BlastP hit with MCIC6FC_005852&lt;/b&gt;&lt;br&gt;Percentage identity: 97&lt;br&gt;Percentage coverage: 58&lt;br&gt;BLAST bit score: 716&lt;br&gt;E-value: 2.9e-204" locus_tag="C4K25_RS20440" class="clusterblast-orf" id="dummy-4_h4_4_25"  />
</g>
<g id="a4_0026"  >
<polygon points="627,90 633,90 638,85 633,80 627,80 627,90 " style="fill:#d0d815; stroke-width:1; stroke:black; " description="&lt;b&gt;C4K25_RS20445&lt;/b&gt;&lt;br&gt;enoyl-CoA hydratase/isomerase family protein&lt;br&gt;Location: 4618053 - 4618850&lt;br&gt;&lt;br&gt;&lt;b&gt;BlastP hit with MCIC6FC_005852&lt;/b&gt;&lt;br&gt;Percentage identity: 79&lt;br&gt;Percentage coverage: 42&lt;br&gt;BLAST bit score: 391&lt;br&gt;E-value: 1.6e-106" locus_tag="C4K25_RS20445" class="clusterblast-orf" id="dummy-4_h4_4_26"  />
</g>
<g id="a4_0027"  >
<polygon points="640,90 665,90 670,85 665,80 640,80 640,90 " style="fill:#15d88c; stroke-width:1; stroke:black; " description="&lt;b&gt;C4K25_RS20450&lt;/b&gt;&lt;br&gt;acetyl/propionyl/methylcrotonyl-CoA carboxylase subunit alpha&lt;br&gt;Location: 4618966 - 4620924&lt;br&gt;&lt;br&gt;&lt;b&gt;BlastP hit with MCIC6FC_005853&lt;/b&gt;&lt;br&gt;Percentage identity: 80&lt;br&gt;Percentage coverage: 100&lt;br&gt;BLAST bit score: 1015&lt;br&gt;E-value: 3.2e-294" locus_tag="C4K25_RS20450" class="clusterblast-orf" id="dummy-4_h4_4_27"  />
</g>
<g id="a4_0028"  >
<polygon points="671,90 674,90 679,85 674,80 671,80 671,90 " style="fill:#3715d8; stroke-width:1; stroke:black; " description="&lt;b&gt;C4K25_RS20455&lt;/b&gt;&lt;br&gt;exonuclease&lt;br&gt;Location: 4620994 - 4621536&lt;br&gt;&lt;br&gt;&lt;b&gt;BlastP hit with MCIC6FC_005854&lt;/b&gt;&lt;br&gt;Percentage identity: 87&lt;br&gt;Percentage coverage: 100&lt;br&gt;BLAST bit score: 285&lt;br&gt;E-value: 3.2e-75" locus_tag="C4K25_RS20455" class="clusterblast-orf" id="dummy-4_h4_4_28"  />
</g>
<g id="a4_0029"  >
<polygon points="680,90 684,85 680,80 680,90 " style="fill:#d81548; stroke-width:1; stroke:black; " description="&lt;b&gt;C4K25_RS20460&lt;/b&gt;&lt;br&gt;pyrimidine/purine nucleoside phosphorylase&lt;br&gt;Location: 4621618 - 4621902&lt;br&gt;&lt;br&gt;&lt;b&gt;BlastP hit with MCIC6FC_005855&lt;/b&gt;&lt;br&gt;Percentage identity: 96&lt;br&gt;Percentage coverage: 100&lt;br&gt;BLAST bit score: 188&lt;br&gt;E-value: 2.5e-46" locus_tag="C4K25_RS20460" class="clusterblast-orf" id="dummy-4_h4_4_29"  />
</g>
<g id="a4_0030"  >
<polygon points="685,85 690,80 697,80 697,90 690,90 685,85 " style="fill:#9dd815; stroke-width:1; stroke:black; " description="&lt;b&gt;C4K25_RS20465&lt;/b&gt;&lt;br&gt;MOSC domain-containing protein&lt;br&gt;Location: 4621983 - 4622786&lt;br&gt;&lt;br&gt;&lt;b&gt;BlastP hit with MCIC6FC_005856&lt;/b&gt;&lt;br&gt;Percentage identity: 80&lt;br&gt;Percentage coverage: 48&lt;br&gt;BLAST bit score: 433&lt;br&gt;E-value: 4.5e-119" locus_tag="C4K25_RS20465" class="clusterblast-orf" id="dummy-4_h4_4_30"  />
</g>
<g id="a4_0031"  >
<polygon points="699,85 704,80 713,80 713,90 704,90 699,85 " style="fill:#9dd815; stroke-width:1; stroke:black; " description="&lt;b&gt;C4K25_RS20470&lt;/b&gt;&lt;br&gt;chemotaxis protein CheV&lt;br&gt;Location: 4622886 - 4623821&lt;br&gt;&lt;br&gt;&lt;b&gt;BlastP hit with MCIC6FC_005856&lt;/b&gt;&lt;br&gt;Percentage identity: 97&lt;br&gt;Percentage coverage: 55&lt;br&gt;BLAST bit score: 591&lt;br&gt;E-value: 9.8e-167" locus_tag="C4K25_RS20470" class="clusterblast-orf" id="dummy-4_h4_4_31"  />
</g>
<g id="a4_0032"  >
<polygon points="721,90 723,90 728,85 723,80 721,80 721,90 " style="fill:#15d8bf; stroke-width:1; stroke:black; " description="&lt;b&gt;C4K25_RS20475&lt;/b&gt;&lt;br&gt;hypothetical protein&lt;br&gt;Location: 4624361 - 4624828&lt;br&gt;&lt;br&gt;&lt;b&gt;BlastP hit with MCIC6FC_005857&lt;/b&gt;&lt;br&gt;Percentage identity: 54&lt;br&gt;Percentage coverage: 19&lt;br&gt;BLAST bit score: 128&lt;br&gt;E-value: 3.6e-27" locus_tag="C4K25_RS20475" class="clusterblast-orf" id="dummy-4_h4_4_32"  />
</g>
<g id="a4_0033"  >
<polygon points="736,90 744,90 749,85 744,80 736,80 736,90 " style="fill:#15d8bf; stroke-width:1; stroke:black; " description="&lt;b&gt;C4K25_RS20480&lt;/b&gt;&lt;br&gt;sensor histidine kinase&lt;br&gt;Location: 4625333 - 4626226&lt;br&gt;&lt;br&gt;&lt;b&gt;BlastP hit with MCIC6FC_005857&lt;/b&gt;&lt;br&gt;Percentage identity: 79&lt;br&gt;Percentage coverage: 40&lt;br&gt;BLAST bit score: 403&lt;br&gt;E-value: 5.8e-110" locus_tag="C4K25_RS20480" class="clusterblast-orf" id="dummy-4_h4_4_33"  />
</g>
<g id="a4_0034"  >
<polygon points="749,90 754,90 759,85 754,80 749,80 749,90 " style="fill:#15d8bf; stroke-width:1; stroke:black; " description="&lt;b&gt;C4K25_RS20485&lt;/b&gt;&lt;br&gt;response regulator transcription factor&lt;br&gt;Location: 4626223 - 4626882&lt;br&gt;&lt;br&gt;&lt;b&gt;BlastP hit with MCIC6FC_005857&lt;/b&gt;&lt;br&gt;Percentage identity: 84&lt;br&gt;Percentage coverage: 31&lt;br&gt;BLAST bit score: 331&lt;br&gt;E-value: 2.8e-88" locus_tag="C4K25_RS20485" class="clusterblast-orf" id="dummy-4_h4_4_34"  />
</g>
<g id="a4_0035"  >
<polygon points="759,85 764,80 772,80 772,90 764,90 759,85 " style="fill:#6a15d8; stroke-width:1; stroke:black; " description="&lt;b&gt;C4K25_RS20490&lt;/b&gt;&lt;br&gt;lipid kinase YegS&lt;br&gt;Location: 4626879 - 4627781&lt;br&gt;&lt;br&gt;&lt;b&gt;BlastP hit with MCIC6FC_005858&lt;/b&gt;&lt;br&gt;Percentage identity: 84&lt;br&gt;Percentage coverage: 95&lt;br&gt;BLAST bit score: 484&lt;br&gt;E-value: 7.1e-135" locus_tag="C4K25_RS20490" class="clusterblast-orf" id="dummy-4_h4_4_35"  />
</g>
<g id="a4_0036"  >
<polygon points="776,90 780,85 776,80 776,90 " style="fill:white; stroke-width:1; stroke:black; " description="&lt;b&gt;C4K25_RS20495&lt;/b&gt;&lt;br&gt;hypothetical protein&lt;br&gt;Location: 4628006 - 4628269" locus_tag="C4K25_RS20495" class="clusterblast-orf" id="dummy-4_h4_4_36"  />
</g>
</svg>
