<svg xmlns="http://www.w3.org/2000/svg" xmlns:xlink="http://www.w3.org/1999/xlink" version="1.1" x="0" y="0" height="230" width="800" viewBox="0 0 800 230" preserveAspectRatio="none"  >
<g label="Query sequence" class="clusterblast-cluster"  >
<text x="5" y="20" class="clusterblast-acc"  >
Query sequence</text>
<line x1="10" y1="35" x2="778.0" y2="35" style="stroke-width:1; stroke:grey; "  />
<polygon points="54,35 59,30 97,30 97,40 59,40 54,35 " style="fill:#d81515; stroke-width:1; stroke:black; " description="&lt;b&gt;MCIC6FC_011599&lt;/b&gt;&lt;br&gt;hypothetical protein&lt;br&gt;Location: 40 - 2361" locus_tag="MCIC6FC_011599" class="clusterblast-orf" id="dummy-1_q0_0_all"  />
<polygon points="99,35 104,30 127,30 127,40 104,40 99,35 " style="fill:#3cd815; stroke-width:1; stroke:black; " description="&lt;b&gt;MCIC6FC_011600&lt;/b&gt;&lt;br&gt;hypothetical protein&lt;br&gt;Location: 2465 - 3961" locus_tag="MCIC6FC_011600" class="clusterblast-orf" id="dummy-1_q1_0_all"  />
<polygon points="132,40 162,40 167,35 162,30 132,30 132,40 " style="fill:#1563d8; stroke-width:1; stroke:black; " description="&lt;b&gt;MCIC6FC_011601&lt;/b&gt;&lt;br&gt;hypothetical protein&lt;br&gt;Location: 4240 - 6121" locus_tag="MCIC6FC_011601" class="clusterblast-orf" id="dummy-1_q2_0_all"  />
<polygon points="168,35 173,30 177,30 177,40 173,40 168,35 " style="fill:#b115d8; stroke-width:1; stroke:black; " description="&lt;b&gt;MCIC6FC_011602&lt;/b&gt;&lt;br&gt;hypothetical protein&lt;br&gt;Location: 6159 - 6618" locus_tag="MCIC6FC_011602" class="clusterblast-orf" id="dummy-1_q3_0_all"  />
<polygon points="177,35 182,30 269,30 269,40 182,40 177,35 " style="fill:#d88a15; stroke-width:1; stroke:black; " description="&lt;b&gt;MCIC6FC_011603&lt;/b&gt;&lt;br&gt;hypothetical protein&lt;br&gt;Location: 6635 - 11586" locus_tag="MCIC6FC_011603" class="clusterblast-orf" id="dummy-1_q4_0_all"  />
<polygon points="278,35 283,30 289,30 289,40 283,40 278,35 " style="fill:#15d863; stroke-width:1; stroke:black; " description="&lt;b&gt;MCIC6FC_011604&lt;/b&gt;&lt;br&gt;hypothetical protein&lt;br&gt;Location: 12075 - 12653" locus_tag="MCIC6FC_011604" class="clusterblast-orf" id="dummy-1_q5_0_all"  />
<polygon points="297,40 304,40 309,35 304,30 297,30 297,40 " style="fill:#3c15d8; stroke-width:1; stroke:black; " description="&lt;b&gt;MCIC6FC_011605&lt;/b&gt;&lt;br&gt;hypothetical protein&lt;br&gt;Location: 13106 - 13730" locus_tag="MCIC6FC_011605" class="clusterblast-orf" id="dummy-1_q6_0_all"  />
<polygon points="309,40 340,40 345,35 340,30 309,30 309,40 " style="fill:#d8158a; stroke-width:1; stroke:black; " description="&lt;b&gt;MCIC6FC_011606&lt;/b&gt;&lt;br&gt;hypothetical protein&lt;br&gt;Location: 13744 - 15691" locus_tag="MCIC6FC_011606" class="clusterblast-orf" id="dummy-1_q7_0_all"  />
<polygon points="348,35 353,30 628,30 628,40 353,40 348,35 " style="fill:#b1d815; stroke-width:1; stroke:black; " description="&lt;b&gt;MCIC6FC_011607&lt;/b&gt;&lt;br&gt;hypothetical protein&lt;br&gt;Location: 15843 - 30887" locus_tag="MCIC6FC_011607" class="clusterblast-orf" id="dummy-1_q8_0_all"  />
<polygon points="634,40 720,40 725,35 720,30 634,30 634,40 " style="fill:#15d8d8; stroke-width:1; stroke:black; " description="&lt;b&gt;MCIC6FC_011608&lt;/b&gt;&lt;br&gt;hypothetical protein&lt;br&gt;Location: 31189 - 36100" locus_tag="MCIC6FC_011608" class="clusterblast-orf" id="dummy-1_q9_0_all"  />
</g>
<g label="NZ_CP046874" description="NZ_CP046874 (177590-219516): Pseudomonas mediterranea strain S58 chromosome, ... (46% of genes show similarity), NRPS-like" class="clusterblast-cluster"  >
<text x="5" y="70" class="clusterblast-acc"  >
<a xlink:href="https://antismash-db.secondarymetabolites.org/area.html?record=NZ_CP046874&amp;start=177590&amp;end=219516" target="_blank">NZ_CP046874 (177590-219516)</a>: Pseudomonas mediterranea strain S58 chromosome, ... (46% of genes show similarity), NRPS-like</text>
<line x1="10" y1="85" x2="778.0" y2="85" style="stroke-width:1; stroke:grey; "  />
</g>
<g id="a1_000"  >
<polygon points="0,90 10,90 15,85 10,80 0,80 0,90 " style="fill:white; stroke-width:1; stroke:black; " description="&lt;b&gt;E3Z27_RS00825&lt;/b&gt;&lt;br&gt;sulfate ABC transporter permease subunit CysT&lt;br&gt;Location: 177591 - 178409" locus_tag="E3Z27_RS00825" class="clusterblast-orf" id="dummy-1_h1_6_0"  />
</g>
<g id="a1_001"  >
<polygon points="15,90 26,90 31,85 26,80 15,80 15,90 " style="fill:white; stroke-width:1; stroke:black; " description="&lt;b&gt;E3Z27_RS00830&lt;/b&gt;&lt;br&gt;sulfate ABC transporter permease subunit CysW&lt;br&gt;Location: 178422 - 179291" locus_tag="E3Z27_RS00830" class="clusterblast-orf" id="dummy-1_h1_6_1"  />
</g>
<g id="a1_002"  >
<polygon points="31,90 45,90 50,85 45,80 31,80 31,90 " style="fill:white; stroke-width:1; stroke:black; " description="&lt;b&gt;E3Z27_RS00835&lt;/b&gt;&lt;br&gt;sulfate ABC transporter ATP-binding protein&lt;br&gt;Location: 179295 - 180284" locus_tag="E3Z27_RS00835" class="clusterblast-orf" id="dummy-1_h1_6_2"  />
</g>
<g id="a1_003"  >
<polygon points="55,90 75,90 80,85 75,80 55,80 55,90 " style="fill:white; stroke-width:1; stroke:black; " description="&lt;b&gt;E3Z27_RS00840&lt;/b&gt;&lt;br&gt;hypothetical protein&lt;br&gt;Location: 180549 - 181913" locus_tag="E3Z27_RS00840" class="clusterblast-orf" id="dummy-1_h1_6_3"  />
</g>
<g id="a1_004"  >
<polygon points="80,90 84,90 89,85 84,80 80,80 80,90 " style="fill:white; stroke-width:1; stroke:black; " description="&lt;b&gt;E3Z27_RS00845&lt;/b&gt;&lt;br&gt;sorbitol dehydrogenase&lt;br&gt;Location: 181910 - 182428" locus_tag="E3Z27_RS00845" class="clusterblast-orf" id="dummy-1_h1_6_4"  />
</g>
<g id="a1_005"  >
<polygon points="89,90 126,90 131,85 126,80 89,80 89,90 " style="fill:white; stroke-width:1; stroke:black; " description="&lt;b&gt;E3Z27_RS00850&lt;/b&gt;&lt;br&gt;GMC family oxidoreductase&lt;br&gt;Location: 182425 - 184641" locus_tag="E3Z27_RS00850" class="clusterblast-orf" id="dummy-1_h1_6_5"  />
</g>
<g id="a1_006"  >
<polygon points="133,85 138,80 143,80 143,90 138,90 133,85 " style="fill:white; stroke-width:1; stroke:black; " description="&lt;b&gt;E3Z27_RS00855&lt;/b&gt;&lt;br&gt;DUF962 domain-containing protein&lt;br&gt;Location: 184778 - 185302" locus_tag="E3Z27_RS00855" class="clusterblast-orf" id="dummy-1_h1_6_6"  />
</g>
<g id="a1_007"  >
<polygon points="145,90 152,90 157,85 152,80 145,80 145,90 " style="fill:white; stroke-width:1; stroke:black; " description="&lt;b&gt;E3Z27_RS00860&lt;/b&gt;&lt;br&gt;Crp/Fnr family transcriptional regulator&lt;br&gt;Location: 185388 - 186074" locus_tag="E3Z27_RS00860" class="clusterblast-orf" id="dummy-1_h1_6_7"  />
</g>
<g id="a1_008"  >
<polygon points="159,90 159,90 164,85 159,80 159,80 159,90 " style="fill:white; stroke-width:1; stroke:black; " description="&lt;b&gt;E3Z27_RS00865&lt;/b&gt;&lt;br&gt;helix-turn-helix domain-containing protein&lt;br&gt;Location: 186185 - 186433" locus_tag="E3Z27_RS00865" class="clusterblast-orf" id="dummy-1_h1_6_8"  />
</g>
<g id="a1_009"  >
<polygon points="164,90 182,90 187,85 182,80 164,80 164,90 " style="fill:white; stroke-width:1; stroke:black; " description="&lt;b&gt;E3Z27_RS00870&lt;/b&gt;&lt;br&gt;HipA domain-containing protein&lt;br&gt;Location: 186426 - 187664" locus_tag="E3Z27_RS00870" class="clusterblast-orf" id="dummy-1_h1_6_9"  />
</g>
<g id="a1_0010"  >
<polygon points="189,85 194,80 208,80 208,90 194,90 189,85 " style="fill:white; stroke-width:1; stroke:black; " description="&lt;b&gt;E3Z27_RS00875&lt;/b&gt;&lt;br&gt;AraC family transcriptional regulator&lt;br&gt;Location: 187779 - 188783" locus_tag="E3Z27_RS00875" class="clusterblast-orf" id="dummy-1_h1_6_10"  />
</g>
<g id="a1_0011"  >
<polygon points="210,90 225,90 230,85 225,80 210,80 210,90 " style="fill:white; stroke-width:1; stroke:black; " description="&lt;b&gt;E3Z27_RS00880&lt;/b&gt;&lt;br&gt;fatty acid desaturase&lt;br&gt;Location: 188884 - 189957" locus_tag="E3Z27_RS00880" class="clusterblast-orf" id="dummy-1_h1_6_11"  />
</g>
<g id="a1_0012"  >
<polygon points="231,85 236,80 277,80 277,90 236,90 231,85 " style="fill:#d81515; stroke-width:1; stroke:black; " description="&lt;b&gt;E3Z27_RS00885&lt;/b&gt;&lt;br&gt;TonB-dependent siderophore receptor&lt;br&gt;Location: 190021 - 192527&lt;br&gt;&lt;br&gt;&lt;b&gt;BlastP hit with MCIC6FC_011599&lt;/b&gt;&lt;br&gt;Percentage identity: 81&lt;br&gt;Percentage coverage: 84&lt;br&gt;BLAST bit score: 1064&lt;br&gt;E-value: 7.1e-309" locus_tag="E3Z27_RS00885" class="clusterblast-orf" id="dummy-1_h1_6_12"  />
</g>
<g id="a1_0013"  >
<polygon points="279,85 284,80 298,80 298,90 284,90 279,85 " style="fill:#3cd815; stroke-width:1; stroke:black; " description="&lt;b&gt;E3Z27_RS00890&lt;/b&gt;&lt;br&gt;FecR family protein&lt;br&gt;Location: 192612 - 193613&lt;br&gt;&lt;br&gt;&lt;b&gt;BlastP hit with MCIC6FC_011600&lt;/b&gt;&lt;br&gt;Percentage identity: 60&lt;br&gt;Percentage coverage: 65&lt;br&gt;BLAST bit score: 382&lt;br&gt;E-value: 5.9e-104" locus_tag="E3Z27_RS00890" class="clusterblast-orf" id="dummy-1_h1_6_13"  />
</g>
<g id="a1_0014"  >
<polygon points="297,85 302,80 307,80 307,90 302,90 297,85 " style="fill:#3cd815; stroke-width:1; stroke:black; " description="&lt;b&gt;E3Z27_RS00895&lt;/b&gt;&lt;br&gt;sigma-70 family RNA polymerase sigma factor&lt;br&gt;Location: 193603 - 194103&lt;br&gt;&lt;br&gt;&lt;b&gt;BlastP hit with MCIC6FC_011600&lt;/b&gt;&lt;br&gt;Percentage identity: 78&lt;br&gt;Percentage coverage: 33&lt;br&gt;BLAST bit score: 253&lt;br&gt;E-value: 3.2e-65" locus_tag="E3Z27_RS00895" class="clusterblast-orf" id="dummy-1_h1_6_14"  />
</g>
<g id="a1_0015"  >
<polygon points="311,90 341,90 346,85 341,80 311,80 311,90 " style="fill:#1563d8; stroke-width:1; stroke:black; " description="&lt;b&gt;E3Z27_RS00900&lt;/b&gt;&lt;br&gt;methyl-accepting chemotaxis protein&lt;br&gt;Location: 194356 - 196236&lt;br&gt;&lt;br&gt;&lt;b&gt;BlastP hit with MCIC6FC_011601&lt;/b&gt;&lt;br&gt;Percentage identity: 80&lt;br&gt;Percentage coverage: 100&lt;br&gt;BLAST bit score: 773&lt;br&gt;E-value: 1.6e-221" locus_tag="E3Z27_RS00900" class="clusterblast-orf" id="dummy-1_h1_6_15"  />
</g>
<g id="a1_0016"  >
<polygon points="353,85 358,80 361,80 361,90 358,90 353,85 " style="fill:#b115d8; stroke-width:1; stroke:black; " description="&lt;b&gt;E3Z27_RS00905&lt;/b&gt;&lt;br&gt;SRPBCC family protein&lt;br&gt;Location: 196566 - 197030&lt;br&gt;&lt;br&gt;&lt;b&gt;BlastP hit with MCIC6FC_011602&lt;/b&gt;&lt;br&gt;Percentage identity: 55&lt;br&gt;Percentage coverage: 101&lt;br&gt;BLAST bit score: 173&lt;br&gt;E-value: 2.3e-41" locus_tag="E3Z27_RS00905" class="clusterblast-orf" id="dummy-1_h1_6_16"  />
</g>
<g id="a1_0017"  >
<polygon points="362,85 367,80 427,80 427,90 367,90 362,85 " style="fill:#d88a15; stroke-width:1; stroke:black; " description="&lt;b&gt;E3Z27_RS00910&lt;/b&gt;&lt;br&gt;amino acid adenylation domain-containing protein&lt;br&gt;Location: 197062 - 200595&lt;br&gt;&lt;br&gt;&lt;b&gt;BlastP hit with MCIC6FC_011603&lt;/b&gt;&lt;br&gt;Percentage identity: 52&lt;br&gt;Percentage coverage: 72&lt;br&gt;BLAST bit score: 1151&lt;br&gt;E-value: 0.0" locus_tag="E3Z27_RS00910" class="clusterblast-orf" id="dummy-1_h1_6_17"  />
</g>
<g id="a1_0018"  >
<polygon points="428,85 433,80 445,80 445,90 433,90 428,85 " style="fill:#d88a15; stroke-width:1; stroke:black; " description="&lt;b&gt;E3Z27_RS00915&lt;/b&gt;&lt;br&gt;diiron oxygenase&lt;br&gt;Location: 200606 - 201538&lt;br&gt;&lt;br&gt;&lt;b&gt;BlastP hit with MCIC6FC_011603&lt;/b&gt;&lt;br&gt;Percentage identity: 65&lt;br&gt;Percentage coverage: 18&lt;br&gt;BLAST bit score: 403&lt;br&gt;E-value: 1.1e-109" locus_tag="E3Z27_RS00915" class="clusterblast-orf" id="dummy-1_h1_6_18"  />
</g>
<g id="a1_0019"  >
<polygon points="445,85 450,80 459,80 459,90 450,90 445,85 " style="fill:#d88a15; stroke-width:1; stroke:black; " description="&lt;b&gt;E3Z27_RS00920&lt;/b&gt;&lt;br&gt;DUF3050 domain-containing protein&lt;br&gt;Location: 201535 - 202311&lt;br&gt;&lt;br&gt;&lt;b&gt;BlastP hit with MCIC6FC_011603&lt;/b&gt;&lt;br&gt;Percentage identity: 62&lt;br&gt;Percentage coverage: 12&lt;br&gt;BLAST bit score: 249&lt;br&gt;E-value: 2.6e-63" locus_tag="E3Z27_RS00920" class="clusterblast-orf" id="dummy-1_h1_6_19"  />
</g>
<g id="a1_0020"  >
<polygon points="472,85 477,80 485,80 485,90 477,90 472,85 " style="fill:#15d863; stroke-width:1; stroke:black; " description="&lt;b&gt;E3Z27_RS00925&lt;/b&gt;&lt;br&gt;GntR family transcriptional regulator&lt;br&gt;Location: 202999 - 203688&lt;br&gt;&lt;br&gt;&lt;b&gt;BlastP hit with MCIC6FC_011604&lt;/b&gt;&lt;br&gt;Percentage identity: 63&lt;br&gt;Percentage coverage: 97&lt;br&gt;BLAST bit score: 205&lt;br&gt;E-value: 5e-51" locus_tag="E3Z27_RS00925" class="clusterblast-orf" id="dummy-1_h1_6_20"  />
</g>
<g id="a1_0021"  >
<polygon points="489,90 497,90 502,85 497,80 489,80 489,90 " style="fill:#3c15d8; stroke-width:1; stroke:black; " description="&lt;b&gt;E3Z27_RS00930&lt;/b&gt;&lt;br&gt;transglutaminase-like cysteine peptidase&lt;br&gt;Location: 203900 - 204592&lt;br&gt;&lt;br&gt;&lt;b&gt;BlastP hit with MCIC6FC_011605&lt;/b&gt;&lt;br&gt;Percentage identity: 85&lt;br&gt;Percentage coverage: 100&lt;br&gt;BLAST bit score: 369&lt;br&gt;E-value: 2.9e-100" locus_tag="E3Z27_RS00930" class="clusterblast-orf" id="dummy-1_h1_6_21"  />
</g>
<g id="a1_0022"  >
<polygon points="502,90 533,90 538,85 533,80 502,80 502,90 " style="fill:#d8158a; stroke-width:1; stroke:black; " description="&lt;b&gt;E3Z27_RS00935&lt;/b&gt;&lt;br&gt;EAL domain-containing protein&lt;br&gt;Location: 204607 - 206559&lt;br&gt;&lt;br&gt;&lt;b&gt;BlastP hit with MCIC6FC_011606&lt;/b&gt;&lt;br&gt;Percentage identity: 85&lt;br&gt;Percentage coverage: 100&lt;br&gt;BLAST bit score: 1036&lt;br&gt;E-value: 1e-300" locus_tag="E3Z27_RS00935" class="clusterblast-orf" id="dummy-1_h1_6_22"  />
</g>
<g id="a1_0023"  >
<polygon points="552,90 553,90 558,85 553,80 552,80 552,90 " style="fill:white; stroke-width:1; stroke:black; " description="&lt;b&gt;E3Z27_RS00940&lt;/b&gt;&lt;br&gt;hypothetical protein&lt;br&gt;Location: 207284 - 207616" locus_tag="E3Z27_RS00940" class="clusterblast-orf" id="dummy-1_h1_6_23"  />
</g>
<g id="a1_0024"  >
<polygon points="562,85 567,80 568,80 568,90 567,90 562,85 " style="fill:white; stroke-width:1; stroke:black; " description="&lt;b&gt;E3Z27_RS00945&lt;/b&gt;&lt;br&gt;hypothetical protein&lt;br&gt;Location: 207800 - 208138" locus_tag="E3Z27_RS00945" class="clusterblast-orf" id="dummy-1_h1_6_24"  />
</g>
<g id="a1_0025"  >
<polygon points="571,85 576,80 780,80 780,90 576,90 571,85 " style="fill:#b1d815; stroke-width:1; stroke:black; " description="&lt;b&gt;E3Z27_RS28400&lt;/b&gt;&lt;br&gt;retention module-containing protein&lt;br&gt;Location: 208322 - 219516&lt;br&gt;&lt;br&gt;&lt;b&gt;BlastP hit with MCIC6FC_011607&lt;/b&gt;&lt;br&gt;Percentage identity: 41&lt;br&gt;Percentage coverage: 71&lt;br&gt;BLAST bit score: 1856&lt;br&gt;E-value: 0.0" locus_tag="E3Z27_RS28400" class="clusterblast-orf" id="dummy-1_h1_6_25"  />
</g>
</svg>
