<svg xmlns="http://www.w3.org/2000/svg" xmlns:xlink="http://www.w3.org/1999/xlink" version="1.1" x="0" y="0" height="230" width="800" viewBox="0 0 800 230" preserveAspectRatio="none"  >
<g label="Query sequence" class="clusterblast-cluster"  >
<text x="5" y="20" class="clusterblast-acc"  >
Query sequence</text>
<line x1="10" y1="35" x2="778.0" y2="35" style="stroke-width:1; stroke:grey; "  />
<polygon points="0,40 14,40 19,35 14,30 0,30 0,40 " style="fill:#d81515; stroke-width:1; stroke:black; " description="&lt;b&gt;MCIC6FC_014910&lt;/b&gt;&lt;br&gt;hypothetical protein&lt;br&gt;Location: 239626 - 241411" locus_tag="MCIC6FC_014910" class="clusterblast-orf" id="dummy-2_q0_0_all"  />
<polygon points="19,40 27,40 32,35 27,30 19,30 19,40 " style="fill:#77d815; stroke-width:1; stroke:black; " description="&lt;b&gt;MCIC6FC_014911&lt;/b&gt;&lt;br&gt;hypothetical protein&lt;br&gt;Location: 241466 - 242660" locus_tag="MCIC6FC_014911" class="clusterblast-orf" id="dummy-2_q1_0_all"  />
<polygon points="32,35 37,30 45,30 45,40 37,40 32,35 " style="fill:white; stroke-width:1; stroke:black; " description="&lt;b&gt;MCIC6FC_014912&lt;/b&gt;&lt;br&gt;hypothetical protein&lt;br&gt;Location: 242676 - 243838" locus_tag="MCIC6FC_014912" class="clusterblast-orf" id="dummy-2_q2_0_all"  />
<polygon points="48,40 60,40 65,35 60,30 48,30 48,40 " style="fill:#15d8d8; stroke-width:1; stroke:black; " description="&lt;b&gt;MCIC6FC_014913&lt;/b&gt;&lt;br&gt;hypothetical protein&lt;br&gt;Location: 244161 - 245739" locus_tag="MCIC6FC_014913" class="clusterblast-orf" id="dummy-2_q3_0_all"  />
<polygon points="66,40 122,40 127,35 122,30 66,30 66,40 " style="fill:#7715d8; stroke-width:1; stroke:black; " description="&lt;b&gt;MCIC6FC_014914&lt;/b&gt;&lt;br&gt;hypothetical protein&lt;br&gt;Location: 245828 - 251581" locus_tag="MCIC6FC_014914" class="clusterblast-orf" id="dummy-2_q4_0_all"  />
<polygon points="129,40 158,40 163,35 158,30 129,30 129,40 " style="fill:#d8a715; stroke-width:1; stroke:black; " description="&lt;b&gt;MCIC6FC_014915&lt;/b&gt;&lt;br&gt;hypothetical protein&lt;br&gt;Location: 251711 - 254884" locus_tag="MCIC6FC_014915" class="clusterblast-orf" id="dummy-2_q5_0_all"  />
<polygon points="163,35 168,30 181,30 181,40 168,40 163,35 " style="fill:#15d846; stroke-width:1; stroke:black; " description="&lt;b&gt;MCIC6FC_014916&lt;/b&gt;&lt;br&gt;hypothetical protein&lt;br&gt;Location: 254942 - 256615" locus_tag="MCIC6FC_014916" class="clusterblast-orf" id="dummy-2_q6_0_all"  />
<polygon points="183,40 194,40 199,35 194,30 183,30 183,40 " style="fill:#1546d8; stroke-width:1; stroke:black; " description="&lt;b&gt;MCIC6FC_014917&lt;/b&gt;&lt;br&gt;hypothetical protein&lt;br&gt;Location: 256800 - 258257" locus_tag="MCIC6FC_014917" class="clusterblast-orf" id="dummy-2_q7_0_all"  />
<polygon points="199,40 206,40 211,35 206,30 199,30 199,40 " style="fill:#d815a7; stroke-width:1; stroke:black; " description="&lt;b&gt;MCIC6FC_014918&lt;/b&gt;&lt;br&gt;hypothetical protein&lt;br&gt;Location: 258293 - 259451" locus_tag="MCIC6FC_014918" class="clusterblast-orf" id="dummy-2_q8_0_all"  />
<polygon points="212,35 217,30 217,30 217,40 217,40 212,35 " style="fill:white; stroke-width:1; stroke:black; " description="&lt;b&gt;MCIC6FC_014919&lt;/b&gt;&lt;br&gt;hypothetical protein&lt;br&gt;Location: 259530 - 259948" locus_tag="MCIC6FC_014919" class="clusterblast-orf" id="dummy-2_q9_0_all"  />
<polygon points="218,40 234,40 239,35 234,30 218,30 218,40 " style="fill:white; stroke-width:1; stroke:black; " description="&lt;b&gt;MCIC6FC_014920&lt;/b&gt;&lt;br&gt;hypothetical protein&lt;br&gt;Location: 260049 - 262083" locus_tag="MCIC6FC_014920" class="clusterblast-orf" id="dummy-2_q10_0_all"  />
<polygon points="240,40 245,40 250,35 245,30 240,30 240,40 " style="fill:white; stroke-width:1; stroke:black; " description="&lt;b&gt;MCIC6FC_014921&lt;/b&gt;&lt;br&gt;hypothetical protein&lt;br&gt;Location: 262126 - 263035" locus_tag="MCIC6FC_014921" class="clusterblast-orf" id="dummy-2_q11_0_all"  />
<polygon points="250,35 254,30 254,40 250,35 " style="fill:white; stroke-width:1; stroke:black; " description="&lt;b&gt;MCIC6FC_014922&lt;/b&gt;&lt;br&gt;hypothetical protein&lt;br&gt;Location: 263073 - 263484" locus_tag="MCIC6FC_014922" class="clusterblast-orf" id="dummy-2_q12_0_all"  />
<polygon points="256,40 260,40 265,35 260,30 256,30 256,40 " style="fill:white; stroke-width:1; stroke:black; " description="&lt;b&gt;MCIC6FC_014923&lt;/b&gt;&lt;br&gt;hypothetical protein&lt;br&gt;Location: 263655 - 264463" locus_tag="MCIC6FC_014923" class="clusterblast-orf" id="dummy-2_q13_0_all"  />
<polygon points="265,35 270,30 273,30 273,40 270,40 265,35 " style="fill:white; stroke-width:1; stroke:black; " description="&lt;b&gt;MCIC6FC_014924&lt;/b&gt;&lt;br&gt;hypothetical protein&lt;br&gt;Location: 264470 - 265247" locus_tag="MCIC6FC_014924" class="clusterblast-orf" id="dummy-2_q14_0_all"  />
<polygon points="274,35 279,30 311,30 311,40 279,40 274,35 " style="fill:white; stroke-width:1; stroke:black; " description="&lt;b&gt;MCIC6FC_014925&lt;/b&gt;&lt;br&gt;hypothetical protein&lt;br&gt;Location: 265292 - 268782" locus_tag="MCIC6FC_014925" class="clusterblast-orf" id="dummy-2_q15_0_all"  />
<polygon points="312,40 320,40 325,35 320,30 312,30 312,40 " style="fill:white; stroke-width:1; stroke:black; " description="&lt;b&gt;MCIC6FC_014926&lt;/b&gt;&lt;br&gt;hypothetical protein&lt;br&gt;Location: 268871 - 270079" locus_tag="MCIC6FC_014926" class="clusterblast-orf" id="dummy-2_q16_0_all"  />
<polygon points="326,40 368,40 373,35 368,30 326,30 326,40 " style="fill:white; stroke-width:1; stroke:black; " description="&lt;b&gt;MCIC6FC_014927&lt;/b&gt;&lt;br&gt;hypothetical protein&lt;br&gt;Location: 270240 - 274554" locus_tag="MCIC6FC_014927" class="clusterblast-orf" id="dummy-2_q17_0_all"  />
<polygon points="373,35 378,30 396,30 396,40 378,40 373,35 " style="fill:white; stroke-width:1; stroke:black; " description="&lt;b&gt;MCIC6FC_014928&lt;/b&gt;&lt;br&gt;hypothetical protein&lt;br&gt;Location: 274605 - 276728" locus_tag="MCIC6FC_014928" class="clusterblast-orf" id="dummy-2_q18_0_all"  />
<polygon points="397,40 399,40 404,35 399,30 397,30 397,40 " style="fill:white; stroke-width:1; stroke:black; " description="&lt;b&gt;MCIC6FC_014929&lt;/b&gt;&lt;br&gt;hypothetical protein&lt;br&gt;Location: 276865 - 277536" locus_tag="MCIC6FC_014929" class="clusterblast-orf" id="dummy-2_q19_0_all"  />
<polygon points="405,35 409,30 409,40 405,35 " style="fill:white; stroke-width:1; stroke:black; " description="&lt;b&gt;MCIC6FC_014930&lt;/b&gt;&lt;br&gt;hypothetical protein&lt;br&gt;Location: 277593 - 277968" locus_tag="MCIC6FC_014930" class="clusterblast-orf" id="dummy-2_q20_0_all"  />
<polygon points="412,35 417,30 433,30 433,40 417,40 412,35 " style="fill:white; stroke-width:1; stroke:black; " description="&lt;b&gt;MCIC6FC_014931&lt;/b&gt;&lt;br&gt;hypothetical protein&lt;br&gt;Location: 278224 - 280190" locus_tag="MCIC6FC_014931" class="clusterblast-orf" id="dummy-2_q21_0_all"  />
<polygon points="437,40 568,40 573,35 568,30 437,30 437,40 " style="fill:white; stroke-width:1; stroke:black; " description="&lt;b&gt;MCIC6FC_014932&lt;/b&gt;&lt;br&gt;hypothetical protein&lt;br&gt;Location: 280562 - 293284" locus_tag="MCIC6FC_014932" class="clusterblast-orf" id="dummy-2_q22_0_all"  />
<polygon points="579,35 584,30 588,30 588,40 584,40 579,35 " style="fill:white; stroke-width:1; stroke:black; " description="&lt;b&gt;MCIC6FC_014934&lt;/b&gt;&lt;br&gt;hypothetical protein&lt;br&gt;Location: 293886 - 294771" locus_tag="MCIC6FC_014934" class="clusterblast-orf" id="dummy-2_q23_0_all"  />
<polygon points="592,35 597,30 599,30 599,40 597,40 592,35 " style="fill:white; stroke-width:1; stroke:black; " description="&lt;b&gt;MCIC6FC_014935&lt;/b&gt;&lt;br&gt;hypothetical protein&lt;br&gt;Location: 295097 - 295790" locus_tag="MCIC6FC_014935" class="clusterblast-orf" id="dummy-2_q24_0_all"  />
<polygon points="600,35 605,30 630,30 630,40 605,40 600,35 " style="fill:white; stroke-width:1; stroke:black; " description="&lt;b&gt;MCIC6FC_014936&lt;/b&gt;&lt;br&gt;hypothetical protein&lt;br&gt;Location: 295825 - 298683" locus_tag="MCIC6FC_014936" class="clusterblast-orf" id="dummy-2_q25_0_all"  />
<polygon points="632,40 634,40 639,35 634,30 632,30 632,40 " style="fill:white; stroke-width:1; stroke:black; " description="&lt;b&gt;MCIC6FC_014937&lt;/b&gt;&lt;br&gt;hypothetical protein&lt;br&gt;Location: 298814 - 299507" locus_tag="MCIC6FC_014937" class="clusterblast-orf" id="dummy-2_q26_0_all"  />
<polygon points="640,35 645,30 672,30 672,40 645,40 640,35 " style="fill:white; stroke-width:1; stroke:black; " description="&lt;b&gt;MCIC6FC_014938&lt;/b&gt;&lt;br&gt;hypothetical protein&lt;br&gt;Location: 299610 - 302608" locus_tag="MCIC6FC_014938" class="clusterblast-orf" id="dummy-2_q27_0_all"  />
<polygon points="673,35 678,30 698,30 698,40 678,40 673,35 " style="fill:white; stroke-width:1; stroke:black; " description="&lt;b&gt;MCIC6FC_014939&lt;/b&gt;&lt;br&gt;hypothetical protein&lt;br&gt;Location: 302667 - 305020" locus_tag="MCIC6FC_014939" class="clusterblast-orf" id="dummy-2_q28_0_all"  />
<polygon points="700,40 717,40 722,35 717,30 700,30 700,40 " style="fill:white; stroke-width:1; stroke:black; " description="&lt;b&gt;MCIC6FC_014940&lt;/b&gt;&lt;br&gt;hypothetical protein&lt;br&gt;Location: 305256 - 307289" locus_tag="MCIC6FC_014940" class="clusterblast-orf" id="dummy-2_q29_0_all"  />
<polygon points="722,35 727,30 731,30 731,40 727,40 722,35 " style="fill:white; stroke-width:1; stroke:black; " description="&lt;b&gt;MCIC6FC_014941&lt;/b&gt;&lt;br&gt;hypothetical protein&lt;br&gt;Location: 307312 - 308134" locus_tag="MCIC6FC_014941" class="clusterblast-orf" id="dummy-2_q30_0_all"  />
<polygon points="731,35 736,30 742,30 742,40 736,40 731,35 " style="fill:white; stroke-width:1; stroke:black; " description="&lt;b&gt;MCIC6FC_014942&lt;/b&gt;&lt;br&gt;hypothetical protein&lt;br&gt;Location: 308170 - 309112" locus_tag="MCIC6FC_014942" class="clusterblast-orf" id="dummy-2_q31_0_all"  />
<polygon points="742,40 746,35 742,30 742,40 " style="fill:white; stroke-width:1; stroke:black; " description="&lt;b&gt;MCIC6FC_014943&lt;/b&gt;&lt;br&gt;hypothetical protein&lt;br&gt;Location: 309165 - 309516" locus_tag="MCIC6FC_014943" class="clusterblast-orf" id="dummy-2_q32_0_all"  />
<polygon points="746,35 751,30 767,30 767,40 751,40 746,35 " style="fill:white; stroke-width:1; stroke:black; " description="&lt;b&gt;MCIC6FC_014944&lt;/b&gt;&lt;br&gt;hypothetical protein&lt;br&gt;Location: 309541 - 311537" locus_tag="MCIC6FC_014944" class="clusterblast-orf" id="dummy-2_q33_0_all"  />
<polygon points="769,40 775,40 780,35 775,30 769,30 769,40 " style="fill:white; stroke-width:1; stroke:black; " description="&lt;b&gt;MCIC6FC_014945&lt;/b&gt;&lt;br&gt;hypothetical protein&lt;br&gt;Location: 311662 - 312676" locus_tag="MCIC6FC_014945" class="clusterblast-orf" id="dummy-2_q34_0_all"  />
</g>
<g label="NZ_JACAPF010000018" description="NZ_JACAPF010000018 (285965-306715): Pseudomonas gingeri strain C4002 run0228 ... (66% of genes show similarity), CDPS" class="clusterblast-cluster"  >
<text x="5" y="70" class="clusterblast-acc"  >
<a xlink:href="https://antismash-db.secondarymetabolites.org/area.html?record=NZ_JACAPF010000018&amp;start=285965&amp;end=306715" target="_blank">NZ_JACAPF010000018 (285965-306715)</a>: Pseudomonas gingeri strain C4002 run0228 ... (66% of genes show similarity), CDPS</text>
<line x1="10" y1="85" x2="778.0" y2="85" style="stroke-width:1; stroke:grey; "  />
</g>
<g id="a2_000"  >
<polygon points="284,90 288,90 293,85 288,80 284,80 284,90 " style="fill:#d81515; stroke-width:1; stroke:black; " description="&lt;b&gt;HX782_RS21645&lt;/b&gt;&lt;br&gt;class II aldolase/adducin family protein&lt;br&gt;Location: 306524 - 305712&lt;br&gt;&lt;br&gt;&lt;b&gt;BlastP hit with MCIC6FC_014910&lt;/b&gt;&lt;br&gt;Percentage identity: 86&lt;br&gt;Percentage coverage: 44&lt;br&gt;BLAST bit score: 446&lt;br&gt;E-value: 3.1e-123" locus_tag="HX782_RS21645" class="clusterblast-orf" id="dummy-2_h2_3_0"  />
</g>
<g id="a2_001"  >
<polygon points="293,90 298,90 303,85 298,80 293,80 293,90 " style="fill:#d81515; stroke-width:1; stroke:black; " description="&lt;b&gt;HX782_RS21640&lt;/b&gt;&lt;br&gt;ABC transporter substrate-binding protein&lt;br&gt;Location: 305697 - 304741&lt;br&gt;&lt;br&gt;&lt;b&gt;BlastP hit with MCIC6FC_014910&lt;/b&gt;&lt;br&gt;Percentage identity: 88&lt;br&gt;Percentage coverage: 55&lt;br&gt;BLAST bit score: 563&lt;br&gt;E-value: 2.3e-158" locus_tag="HX782_RS21640" class="clusterblast-orf" id="dummy-2_h2_3_1"  />
</g>
<g id="a2_002"  >
<polygon points="305,90 312,90 317,85 312,80 305,80 305,90 " style="fill:#77d815; stroke-width:1; stroke:black; " description="&lt;b&gt;HX782_RS21635&lt;/b&gt;&lt;br&gt;membrane dipeptidase&lt;br&gt;Location: 304593 - 303409&lt;br&gt;&lt;br&gt;&lt;b&gt;BlastP hit with MCIC6FC_014911&lt;/b&gt;&lt;br&gt;Percentage identity: 83&lt;br&gt;Percentage coverage: 98&lt;br&gt;BLAST bit score: 645&lt;br&gt;E-value: 3.1e-183" locus_tag="HX782_RS21635" class="clusterblast-orf" id="dummy-2_h2_3_2"  />
</g>
<g id="a2_003"  >
<polygon points="319,90 331,90 336,85 331,80 319,80 319,90 " style="fill:#15d8d8; stroke-width:1; stroke:black; " description="&lt;b&gt;HX782_RS21630&lt;/b&gt;&lt;br&gt;FAD-dependent oxidoreductase&lt;br&gt;Location: 303223 - 301646&lt;br&gt;&lt;br&gt;&lt;b&gt;BlastP hit with MCIC6FC_014913&lt;/b&gt;&lt;br&gt;Percentage identity: 85&lt;br&gt;Percentage coverage: 100&lt;br&gt;BLAST bit score: 899&lt;br&gt;E-value: 1.2e-259" locus_tag="HX782_RS21630" class="clusterblast-orf" id="dummy-2_h2_3_3"  />
</g>
<g id="a2_004"  >
<polygon points="337,90 337,90 342,85 337,80 337,80 337,90 " style="fill:white; stroke-width:1; stroke:black; " description="&lt;b&gt;HX782_RS21625&lt;/b&gt;&lt;br&gt;hypothetical protein&lt;br&gt;Location: 301557 - 301060" locus_tag="HX782_RS21625" class="clusterblast-orf" id="dummy-2_h2_3_4"  />
</g>
<g id="a2_005"  >
<polygon points="343,90 364,90 369,85 364,80 343,80 343,90 " style="fill:#7715d8; stroke-width:1; stroke:black; " description="&lt;b&gt;HX782_RS21620&lt;/b&gt;&lt;br&gt;TonB-dependent receptor&lt;br&gt;Location: 301031 - 298569&lt;br&gt;&lt;br&gt;&lt;b&gt;BlastP hit with MCIC6FC_014914&lt;/b&gt;&lt;br&gt;Percentage identity: 88&lt;br&gt;Percentage coverage: 46&lt;br&gt;BLAST bit score: 1426&lt;br&gt;E-value: 0.0" locus_tag="HX782_RS21620" class="clusterblast-orf" id="dummy-2_h2_3_5"  />
</g>
<g id="a2_006"  >
<polygon points="369,90 375,90 380,85 375,80 369,80 369,90 " style="fill:#7715d8; stroke-width:1; stroke:black; " description="&lt;b&gt;HX782_RS21615&lt;/b&gt;&lt;br&gt;aliphatic sulfonate ABC transporter substrate-binding protein&lt;br&gt;Location: 298565 - 297507&lt;br&gt;&lt;br&gt;&lt;b&gt;BlastP hit with MCIC6FC_014914&lt;/b&gt;&lt;br&gt;Percentage identity: 82&lt;br&gt;Percentage coverage: 17&lt;br&gt;BLAST bit score: 462&lt;br&gt;E-value: 2.1e-127" locus_tag="HX782_RS21615" class="clusterblast-orf" id="dummy-2_h2_3_6"  />
</g>
<g id="a2_007"  >
<polygon points="380,90 384,90 389,85 384,80 380,80 380,90 " style="fill:#7715d8; stroke-width:1; stroke:black; " description="&lt;b&gt;HX782_RS21610&lt;/b&gt;&lt;br&gt;2OG-Fe(II) oxygenase&lt;br&gt;Location: 297496 - 296720&lt;br&gt;&lt;br&gt;&lt;b&gt;BlastP hit with MCIC6FC_014914&lt;/b&gt;&lt;br&gt;Percentage identity: 91&lt;br&gt;Percentage coverage: 14&lt;br&gt;BLAST bit score: 454&lt;br&gt;E-value: 4.4e-125" locus_tag="HX782_RS21610" class="clusterblast-orf" id="dummy-2_h2_3_7"  />
</g>
<g id="a2_008"  >
<polygon points="389,90 392,90 397,85 392,80 389,80 389,90 " style="fill:#7715d8; stroke-width:1; stroke:black; " description="&lt;b&gt;HX782_RS21605&lt;/b&gt;&lt;br&gt;tRNA-dependent cyclodipeptide synthase&lt;br&gt;Location: 296715 - 295966&lt;br&gt;&lt;br&gt;&lt;b&gt;BlastP hit with MCIC6FC_014914&lt;/b&gt;&lt;br&gt;Percentage identity: 84&lt;br&gt;Percentage coverage: 14&lt;br&gt;BLAST bit score: 423&lt;br&gt;E-value: 8.4e-116" locus_tag="HX782_RS21605" class="clusterblast-orf" id="dummy-2_h2_3_8"  />
</g>
<g id="a2_009"  >
<polygon points="400,90 410,90 415,85 410,80 400,80 400,90 " style="fill:#d8a715; stroke-width:1; stroke:black; " description="&lt;b&gt;HX782_RS21600&lt;/b&gt;&lt;br&gt;MFS transporter&lt;br&gt;Location: 295701 - 294289&lt;br&gt;&lt;br&gt;&lt;b&gt;BlastP hit with MCIC6FC_014915&lt;/b&gt;&lt;br&gt;Percentage identity: 77&lt;br&gt;Percentage coverage: 47&lt;br&gt;BLAST bit score: 640&lt;br&gt;E-value: 3.3e-181" locus_tag="HX782_RS21600" class="clusterblast-orf" id="dummy-2_h2_3_9"  />
</g>
<g id="a2_0010"  >
<polygon points="417,85 422,80 426,80 426,90 422,90 417,85 " style="fill:#15d846; stroke-width:1; stroke:black; " description="&lt;b&gt;HX782_RS21595&lt;/b&gt;&lt;br&gt;dihydrodipicolinate synthase family protein&lt;br&gt;Location: 294108 - 293215&lt;br&gt;&lt;br&gt;&lt;b&gt;BlastP hit with MCIC6FC_014916&lt;/b&gt;&lt;br&gt;Percentage identity: 67&lt;br&gt;Percentage coverage: 21&lt;br&gt;BLAST bit score: 141&lt;br&gt;E-value: 2.5e-31" locus_tag="HX782_RS21595" class="clusterblast-orf" id="dummy-2_h2_3_10"  />
</g>
<g id="a2_0011"  >
<polygon points="427,85 432,80 435,80 435,90 432,90 427,85 " style="fill:white; stroke-width:1; stroke:black; " description="&lt;b&gt;HX782_RS21590&lt;/b&gt;&lt;br&gt;aldolase&lt;br&gt;Location: 293172 - 292390" locus_tag="HX782_RS21590" class="clusterblast-orf" id="dummy-2_h2_3_11"  />
</g>
<g id="a2_0012"  >
<polygon points="437,90 437,90 442,85 437,80 437,80 437,90 " style="fill:white; stroke-width:1; stroke:black; " description="&lt;b&gt;HX782_RS21585&lt;/b&gt;&lt;br&gt;helix-turn-helix transcriptional regulator&lt;br&gt;Location: 292230 - 291688" locus_tag="HX782_RS21585" class="clusterblast-orf" id="dummy-2_h2_3_12"  />
</g>
<g id="a2_0013"  >
<polygon points="444,85 449,80 455,80 455,90 449,90 444,85 " style="fill:#15d846; stroke-width:1; stroke:black; " description="&lt;b&gt;HX782_RS21580&lt;/b&gt;&lt;br&gt;DUF4917 family protein&lt;br&gt;Location: 291517 - 290513&lt;br&gt;&lt;br&gt;&lt;b&gt;BlastP hit with MCIC6FC_014916&lt;/b&gt;&lt;br&gt;Percentage identity: 65&lt;br&gt;Percentage coverage: 64&lt;br&gt;BLAST bit score: 436&lt;br&gt;E-value: 4.9e-120" locus_tag="HX782_RS21580" class="clusterblast-orf" id="dummy-2_h2_3_13"  />
</g>
<g id="a2_0014"  >
<polygon points="457,90 464,90 469,85 464,80 457,80 457,90 " style="fill:#1546d8; stroke-width:1; stroke:black; " description="&lt;b&gt;HX782_RS21575&lt;/b&gt;&lt;br&gt;L-threonine dehydrogenase&lt;br&gt;Location: 290359 - 289211&lt;br&gt;&lt;br&gt;&lt;b&gt;BlastP hit with MCIC6FC_014917&lt;/b&gt;&lt;br&gt;Percentage identity: 88&lt;br&gt;Percentage coverage: 84&lt;br&gt;BLAST bit score: 642&lt;br&gt;E-value: 3.8e-182" locus_tag="HX782_RS21575" class="clusterblast-orf" id="dummy-2_h2_3_14"  />
</g>
<g id="a2_0015"  >
<polygon points="471,90 473,90 478,85 473,80 471,80 471,90 " style="fill:white; stroke-width:1; stroke:black; " description="&lt;b&gt;HX782_RS21570&lt;/b&gt;&lt;br&gt;TetR/AcrR family transcriptional regulator&lt;br&gt;Location: 288971 - 288399" locus_tag="HX782_RS21570" class="clusterblast-orf" id="dummy-2_h2_3_15"  />
</g>
<g id="a2_0016"  >
<polygon points="478,90 483,90 488,85 483,80 478,80 478,90 " style="fill:white; stroke-width:1; stroke:black; " description="&lt;b&gt;HX782_RS21565&lt;/b&gt;&lt;br&gt;SDR family NAD(P)-dependent oxidoreductase&lt;br&gt;Location: 288321 - 287458" locus_tag="HX782_RS21565" class="clusterblast-orf" id="dummy-2_h2_3_16"  />
</g>
<g id="a2_0017"  >
<polygon points="488,90 490,90 495,85 490,80 488,80 488,90 " style="fill:white; stroke-width:1; stroke:black; " description="&lt;b&gt;HX782_RS21560&lt;/b&gt;&lt;br&gt;NAD(P)H-binding protein&lt;br&gt;Location: 287447 - 286776" locus_tag="HX782_RS21560" class="clusterblast-orf" id="dummy-2_h2_3_17"  />
</g>
</svg>
