<svg xmlns="http://www.w3.org/2000/svg" xmlns:xlink="http://www.w3.org/1999/xlink" version="1.1" x="0" y="0" height="230" width="800" viewBox="0 0 800 230" preserveAspectRatio="none"  >
<g label="Query sequence" class="clusterblast-cluster"  >
<text x="5" y="20" class="clusterblast-acc"  >
Query sequence</text>
<line x1="10" y1="35" x2="778.0" y2="35" style="stroke-width:1; stroke:grey; "  />
<polygon points="29,35 34,30 60,30 60,40 34,40 29,35 " style="fill:#d81515; stroke-width:1; stroke:black; " description="&lt;b&gt;MCIC6FC_005696&lt;/b&gt;&lt;br&gt;hypothetical protein&lt;br&gt;Location: 1757129 - 1757963" locus_tag="MCIC6FC_005696" class="clusterblast-orf" id="dummy-2_q0_0_all"  />
<polygon points="71,40 118,40 123,35 118,30 71,30 71,40 " style="fill:#77d815; stroke-width:1; stroke:black; " description="&lt;b&gt;MCIC6FC_005697&lt;/b&gt;&lt;br&gt;hypothetical protein&lt;br&gt;Location: 1758257 - 1759641" locus_tag="MCIC6FC_005697" class="clusterblast-orf" id="dummy-2_q1_0_all"  />
<polygon points="125,35 130,30 175,30 175,40 130,40 125,35 " style="fill:#15d8d8; stroke-width:1; stroke:black; " description="&lt;b&gt;MCIC6FC_005698&lt;/b&gt;&lt;br&gt;hypothetical protein&lt;br&gt;Location: 1759686 - 1761017" locus_tag="MCIC6FC_005698" class="clusterblast-orf" id="dummy-2_q2_0_all"  />
<polygon points="178,40 208,40 213,35 208,30 178,30 178,40 " style="fill:#7715d8; stroke-width:1; stroke:black; " description="&lt;b&gt;MCIC6FC_005699&lt;/b&gt;&lt;br&gt;hypothetical protein&lt;br&gt;Location: 1761096 - 1762032" locus_tag="MCIC6FC_005699" class="clusterblast-orf" id="dummy-2_q3_0_all"  />
<polygon points="218,40 228,40 233,35 228,30 218,30 218,40 " style="fill:#d87715; stroke-width:1; stroke:black; " description="&lt;b&gt;MCIC6FC_005700&lt;/b&gt;&lt;br&gt;hypothetical protein&lt;br&gt;Location: 1762158 - 1762563" locus_tag="MCIC6FC_005700" class="clusterblast-orf" id="dummy-2_q4_0_all"  />
<polygon points="235,40 264,40 269,35 264,30 235,30 235,40 " style="fill:#15d815; stroke-width:1; stroke:black; " description="&lt;b&gt;MCIC6FC_005701&lt;/b&gt;&lt;br&gt;hypothetical protein&lt;br&gt;Location: 1762625 - 1763526" locus_tag="MCIC6FC_005701" class="clusterblast-orf" id="dummy-2_q5_0_all"  />
<polygon points="292,35 297,30 356,30 356,40 297,40 292,35 " style="fill:#1577d8; stroke-width:1; stroke:black; " description="&lt;b&gt;MCIC6FC_005702&lt;/b&gt;&lt;br&gt;hypothetical protein&lt;br&gt;Location: 1764136 - 1765840" locus_tag="MCIC6FC_005702" class="clusterblast-orf" id="dummy-2_q6_0_all"  />
<polygon points="364,40 467,40 472,35 467,30 364,30 364,40 " style="fill:#d815d8; stroke-width:1; stroke:black; " description="&lt;b&gt;MCIC6FC_005703&lt;/b&gt;&lt;br&gt;hypothetical protein&lt;br&gt;Location: 1766068 - 1768941" locus_tag="MCIC6FC_005703" class="clusterblast-orf" id="dummy-2_q7_0_all"  />
<polygon points="473,40 571,40 576,35 571,30 473,30 473,40 " style="fill:#d8d815; stroke-width:1; stroke:black; " description="&lt;b&gt;MCIC6FC_005704&lt;/b&gt;&lt;br&gt;hypothetical protein&lt;br&gt;Location: 1768958 - 1771718" locus_tag="MCIC6FC_005704" class="clusterblast-orf" id="dummy-2_q8_0_all"  />
<polygon points="577,35 582,30 603,30 603,40 582,40 577,35 " style="fill:#15d877; stroke-width:1; stroke:black; " description="&lt;b&gt;MCIC6FC_005705&lt;/b&gt;&lt;br&gt;hypothetical protein&lt;br&gt;Location: 1771740 - 1772436" locus_tag="MCIC6FC_005705" class="clusterblast-orf" id="dummy-2_q9_0_all"  />
<polygon points="608,40 677,40 682,35 677,30 608,30 608,40 " style="fill:#1515d8; stroke-width:1; stroke:black; " description="&lt;b&gt;MCIC6FC_005706&lt;/b&gt;&lt;br&gt;hypothetical protein&lt;br&gt;Location: 1772567 - 1774554" locus_tag="MCIC6FC_005706" class="clusterblast-orf" id="dummy-2_q10_0_all"  />
<polygon points="684,35 689,30 701,30 701,40 689,40 684,35 " style="fill:#d81577; stroke-width:1; stroke:black; " description="&lt;b&gt;MCIC6FC_005707&lt;/b&gt;&lt;br&gt;hypothetical protein&lt;br&gt;Location: 1774590 - 1775046" locus_tag="MCIC6FC_005707" class="clusterblast-orf" id="dummy-2_q11_0_all"  />
<polygon points="705,40 746,40 751,35 746,30 705,30 705,40 " style="fill:white; stroke-width:1; stroke:black; " description="&lt;b&gt;MCIC6FC_005708&lt;/b&gt;&lt;br&gt;hypothetical protein&lt;br&gt;Location: 1775150 - 1776370" locus_tag="MCIC6FC_005708" class="clusterblast-orf" id="dummy-2_q12_0_all"  />
</g>
<g label="NZ_RJUX01000001" description="NZ_RJUX01000001 (3708224-3731439): Pseudomonas protegens strain JUb28 Ga03047... (83% of genes show similarity), betalactone" class="clusterblast-cluster"  >
<text x="5" y="70" class="clusterblast-acc"  >
<a xlink:href="https://antismash-db.secondarymetabolites.org/area.html?record=NZ_RJUX01000001&amp;start=3708224&amp;end=3731439" target="_blank">NZ_RJUX01000001 (3708224-3731439)</a>: Pseudomonas protegens strain JUb28 Ga03047... (83% of genes show similarity), betalactone</text>
<line x1="10" y1="85" x2="778.0" y2="85" style="stroke-width:1; stroke:grey; "  />
</g>
<g id="a2_000"  >
<polygon points="0,85 5,80 64,80 64,90 5,90 0,85 " style="fill:white; stroke-width:1; stroke:black; " description="&lt;b&gt;EC837_RS17055&lt;/b&gt;&lt;br&gt;outer membrane protein assembly factor&lt;br&gt;Location: 3709755 - 3711482" locus_tag="EC837_RS17055" class="clusterblast-orf" id="dummy-2_h2_3_0"  />
</g>
<g id="a2_001"  >
<polygon points="67,85 72,80 91,80 91,90 72,90 67,85 " style="fill:white; stroke-width:1; stroke:black; " description="&lt;b&gt;EC837_RS17060&lt;/b&gt;&lt;br&gt;GNAT family N-acetyltransferase&lt;br&gt;Location: 3711548 - 3712198" locus_tag="EC837_RS17060" class="clusterblast-orf" id="dummy-2_h2_3_1"  />
</g>
<g id="a2_002"  >
<polygon points="98,90 123,90 128,85 123,80 98,80 98,90 " style="fill:white; stroke-width:1; stroke:black; " description="&lt;b&gt;EC837_RS17065&lt;/b&gt;&lt;br&gt;exodeoxyribonuclease III&lt;br&gt;Location: 3712375 - 3713187" locus_tag="EC837_RS17065" class="clusterblast-orf" id="dummy-2_h2_3_2"  />
</g>
<g id="a2_003"  >
<polygon points="130,85 135,80 142,80 142,90 135,90 130,85 " style="fill:#d81515; stroke-width:1; stroke:black; " description="&lt;b&gt;EC837_RS17070&lt;/b&gt;&lt;br&gt;YegP family protein&lt;br&gt;Location: 3713236 - 3713568&lt;br&gt;&lt;br&gt;&lt;b&gt;BlastP hit with MCIC6FC_005696&lt;/b&gt;&lt;br&gt;Percentage identity: 95&lt;br&gt;Percentage coverage: 44&lt;br&gt;BLAST bit score: 208&lt;br&gt;E-value: 7.7e-52" locus_tag="EC837_RS17070" class="clusterblast-orf" id="dummy-2_h2_3_3"  />
</g>
<g id="a2_004"  >
<polygon points="154,90 200,90 205,85 200,80 154,80 154,90 " style="fill:#77d815; stroke-width:1; stroke:black; " description="&lt;b&gt;EC837_RS17075&lt;/b&gt;&lt;br&gt;phosphate ABC transporter substrate-binding/OmpA family protein&lt;br&gt;Location: 3713863 - 3715245&lt;br&gt;&lt;br&gt;&lt;b&gt;BlastP hit with MCIC6FC_005697&lt;/b&gt;&lt;br&gt;Percentage identity: 91&lt;br&gt;Percentage coverage: 103&lt;br&gt;BLAST bit score: 814&lt;br&gt;E-value: 7.4e-234" locus_tag="EC837_RS17075" class="clusterblast-orf" id="dummy-2_h2_3_4"  />
</g>
<g id="a2_005"  >
<polygon points="207,85 212,80 253,80 253,90 212,90 207,85 " style="fill:#15d8d8; stroke-width:1; stroke:black; " description="&lt;b&gt;EC837_RS17080&lt;/b&gt;&lt;br&gt;acyl-CoA dehydrogenase&lt;br&gt;Location: 3715288 - 3716517&lt;br&gt;&lt;br&gt;&lt;b&gt;BlastP hit with MCIC6FC_005698&lt;/b&gt;&lt;br&gt;Percentage identity: 99&lt;br&gt;Percentage coverage: 95&lt;br&gt;BLAST bit score: 828&lt;br&gt;E-value: 2.8e-238" locus_tag="EC837_RS17080" class="clusterblast-orf" id="dummy-2_h2_3_5"  />
</g>
<g id="a2_006"  >
<polygon points="260,90 290,90 295,85 290,80 260,80 260,90 " style="fill:#7715d8; stroke-width:1; stroke:black; " description="&lt;b&gt;EC837_RS17085&lt;/b&gt;&lt;br&gt;LysR family transcriptional regulator&lt;br&gt;Location: 3716697 - 3717632&lt;br&gt;&lt;br&gt;&lt;b&gt;BlastP hit with MCIC6FC_005699&lt;/b&gt;&lt;br&gt;Percentage identity: 99&lt;br&gt;Percentage coverage: 100&lt;br&gt;BLAST bit score: 610&lt;br&gt;E-value: 1.1e-172" locus_tag="EC837_RS17085" class="clusterblast-orf" id="dummy-2_h2_3_6"  />
</g>
<g id="a2_007"  >
<polygon points="300,90 310,90 315,85 310,80 300,80 300,90 " style="fill:#d87715; stroke-width:1; stroke:black; " description="&lt;b&gt;EC837_RS17090&lt;/b&gt;&lt;br&gt;MerR family DNA-binding transcriptional regulator&lt;br&gt;Location: 3717758 - 3718162&lt;br&gt;&lt;br&gt;&lt;b&gt;BlastP hit with MCIC6FC_005700&lt;/b&gt;&lt;br&gt;Percentage identity: 97&lt;br&gt;Percentage coverage: 100&lt;br&gt;BLAST bit score: 244&lt;br&gt;E-value: 7e-63" locus_tag="EC837_RS17090" class="clusterblast-orf" id="dummy-2_h2_3_7"  />
</g>
<g id="a2_008"  >
<polygon points="317,90 346,90 351,85 346,80 317,80 317,90 " style="fill:#15d815; stroke-width:1; stroke:black; " description="&lt;b&gt;EC837_RS17095&lt;/b&gt;&lt;br&gt;hydroxymethylglutaryl-CoA lyase&lt;br&gt;Location: 3718225 - 3719124&lt;br&gt;&lt;br&gt;&lt;b&gt;BlastP hit with MCIC6FC_005701&lt;/b&gt;&lt;br&gt;Percentage identity: 95&lt;br&gt;Percentage coverage: 103&lt;br&gt;BLAST bit score: 559&lt;br&gt;E-value: 2.8e-157" locus_tag="EC837_RS17095" class="clusterblast-orf" id="dummy-2_h2_3_8"  />
</g>
<g id="a2_009"  >
<polygon points="374,85 379,80 438,80 438,90 379,90 374,85 " style="fill:#1577d8; stroke-width:1; stroke:black; " description="&lt;b&gt;EC837_RS17100&lt;/b&gt;&lt;br&gt;AMP-binding protein&lt;br&gt;Location: 3719736 - 3721439&lt;br&gt;&lt;br&gt;&lt;b&gt;BlastP hit with MCIC6FC_005702&lt;/b&gt;&lt;br&gt;Percentage identity: 96&lt;br&gt;Percentage coverage: 100&lt;br&gt;BLAST bit score: 1140&lt;br&gt;E-value: 0.0" locus_tag="EC837_RS17100" class="clusterblast-orf" id="dummy-2_h2_3_9"  />
</g>
<g id="a2_0010"  >
<polygon points="446,90 485,90 490,85 485,80 446,80 446,90 " style="fill:#d815d8; stroke-width:1; stroke:black; " description="&lt;b&gt;EC837_RS17105&lt;/b&gt;&lt;br&gt;isovaleryl-CoA dehydrogenase&lt;br&gt;Location: 3721668 - 3722831&lt;br&gt;&lt;br&gt;&lt;b&gt;BlastP hit with MCIC6FC_005703&lt;/b&gt;&lt;br&gt;Percentage identity: 98&lt;br&gt;Percentage coverage: 43&lt;br&gt;BLAST bit score: 769&lt;br&gt;E-value: 4.2e-220" locus_tag="EC837_RS17105" class="clusterblast-orf" id="dummy-2_h2_3_10"  />
</g>
<g id="a2_0011"  >
<polygon points="490,90 545,90 550,85 545,80 490,80 490,90 " style="fill:#d815d8; stroke-width:1; stroke:black; " description="&lt;b&gt;EC837_RS17110&lt;/b&gt;&lt;br&gt;carboxylase YngE&lt;br&gt;Location: 3722843 - 3724450&lt;br&gt;&lt;br&gt;&lt;b&gt;BlastP hit with MCIC6FC_005703&lt;/b&gt;&lt;br&gt;Percentage identity: 95&lt;br&gt;Percentage coverage: 58&lt;br&gt;BLAST bit score: 990&lt;br&gt;E-value: 1.2e-286" locus_tag="EC837_RS17110" class="clusterblast-orf" id="dummy-2_h2_3_11"  />
</g>
<g id="a2_0012"  >
<polygon points="551,90 577,90 582,85 577,80 551,80 551,90 " style="fill:#d8d815; stroke-width:1; stroke:black; " description="&lt;b&gt;EC837_RS17115&lt;/b&gt;&lt;br&gt;gamma-carboxygeranoyl-CoA hydratase&lt;br&gt;Location: 3724468 - 3725283&lt;br&gt;&lt;br&gt;&lt;b&gt;BlastP hit with MCIC6FC_005704&lt;/b&gt;&lt;br&gt;Percentage identity: 97&lt;br&gt;Percentage coverage: 25&lt;br&gt;BLAST bit score: 436&lt;br&gt;E-value: 5.1e-120" locus_tag="EC837_RS17115" class="clusterblast-orf" id="dummy-2_h2_3_12"  />
</g>
<g id="a2_0013"  >
<polygon points="582,90 650,90 655,85 650,80 582,80 582,90 " style="fill:#d8d815; stroke-width:1; stroke:black; " description="&lt;b&gt;EC837_RS17120&lt;/b&gt;&lt;br&gt;acetyl/propionyl/methylcrotonyl-CoA carboxylase subunit alpha&lt;br&gt;Location: 3725283 - 3727229&lt;br&gt;&lt;br&gt;&lt;b&gt;BlastP hit with MCIC6FC_005704&lt;/b&gt;&lt;br&gt;Percentage identity: 96&lt;br&gt;Percentage coverage: 70&lt;br&gt;BLAST bit score: 1213&lt;br&gt;E-value: 0.0" locus_tag="EC837_RS17120" class="clusterblast-orf" id="dummy-2_h2_3_13"  />
</g>
<g id="a2_0014"  >
<polygon points="657,85 662,80 682,80 682,90 662,90 657,85 " style="fill:#15d877; stroke-width:1; stroke:black; " description="&lt;b&gt;EC837_RS17125&lt;/b&gt;&lt;br&gt;LexA family transcriptional regulator&lt;br&gt;Location: 3727283 - 3727948&lt;br&gt;&lt;br&gt;&lt;b&gt;BlastP hit with MCIC6FC_005705&lt;/b&gt;&lt;br&gt;Percentage identity: 97&lt;br&gt;Percentage coverage: 98&lt;br&gt;BLAST bit score: 422&lt;br&gt;E-value: 3e-116" locus_tag="EC837_RS17125" class="clusterblast-orf" id="dummy-2_h2_3_14"  />
</g>
<g id="a2_0015"  >
<polygon points="686,90 694,90 699,85 694,80 686,80 686,90 " style="fill:#1515d8; stroke-width:1; stroke:black; " description="&lt;b&gt;EC837_RS17130&lt;/b&gt;&lt;br&gt;DUF3077 domain-containing protein&lt;br&gt;Location: 3728080 - 3728427&lt;br&gt;&lt;br&gt;&lt;b&gt;BlastP hit with MCIC6FC_005706&lt;/b&gt;&lt;br&gt;Percentage identity: 89&lt;br&gt;Percentage coverage: 23&lt;br&gt;BLAST bit score: 192&lt;br&gt;E-value: 1.2e-46" locus_tag="EC837_RS17130" class="clusterblast-orf" id="dummy-2_h2_3_15"  />
</g>
<g id="a2_0016"  >
<polygon points="718,90 756,90 761,85 756,80 718,80 718,90 " style="fill:#1515d8; stroke-width:1; stroke:black; " description="&lt;b&gt;EC837_RS17140&lt;/b&gt;&lt;br&gt;carboxypeptidase family protein&lt;br&gt;Location: 3728916 - 3730070&lt;br&gt;&lt;br&gt;&lt;b&gt;BlastP hit with MCIC6FC_005706&lt;/b&gt;&lt;br&gt;Percentage identity: 91&lt;br&gt;Percentage coverage: 78&lt;br&gt;BLAST bit score: 740&lt;br&gt;E-value: 1.5e-211" locus_tag="EC837_RS17140" class="clusterblast-orf" id="dummy-2_h2_3_16"  />
</g>
<g id="a2_0017"  >
<polygon points="762,85 767,80 780,80 780,90 767,90 762,85 " style="fill:#d81577; stroke-width:1; stroke:black; " description="&lt;b&gt;EC837_RS17145&lt;/b&gt;&lt;br&gt;helix-turn-helix transcriptional regulator&lt;br&gt;Location: 3730106 - 3730561&lt;br&gt;&lt;br&gt;&lt;b&gt;BlastP hit with MCIC6FC_005707&lt;/b&gt;&lt;br&gt;Percentage identity: 97&lt;br&gt;Percentage coverage: 99&lt;br&gt;BLAST bit score: 302&lt;br&gt;E-value: 3.2e-80" locus_tag="EC837_RS17145" class="clusterblast-orf" id="dummy-2_h2_3_17"  />
</g>
</svg>
