<svg xmlns="http://www.w3.org/2000/svg" xmlns:xlink="http://www.w3.org/1999/xlink" version="1.1" x="0" y="0" height="230" width="800" viewBox="0 0 800 230" preserveAspectRatio="none"  >
<g label="Query sequence" class="clusterblast-cluster"  >
<text x="5" y="20" class="clusterblast-acc"  >
Query sequence</text>
<line x1="10" y1="35" x2="778.0" y2="35" style="stroke-width:1; stroke:grey; "  />
<polygon points="0,35 5,30 6,30 6,40 5,40 0,35 " style="fill:white; stroke-width:1; stroke:black; " description="&lt;b&gt;MCIC6FC_015552&lt;/b&gt;&lt;br&gt;hypothetical protein&lt;br&gt;Location: 371442 - 372090" locus_tag="MCIC6FC_015552" class="clusterblast-orf" id="dummy-3_q0_0_all"  />
<polygon points="6,35 11,30 88,30 88,40 11,40 6,35 " style="fill:#d81515; stroke-width:1; stroke:black; " description="&lt;b&gt;MCIC6FC_015553&lt;/b&gt;&lt;br&gt;hypothetical protein&lt;br&gt;Location: 372113 - 380390" locus_tag="MCIC6FC_015553" class="clusterblast-orf" id="dummy-3_q1_0_all"  />
<polygon points="88,35 93,30 95,30 95,40 93,40 88,35 " style="fill:#63d815; stroke-width:1; stroke:black; " description="&lt;b&gt;MCIC6FC_015554&lt;/b&gt;&lt;br&gt;hypothetical protein&lt;br&gt;Location: 380413 - 381082" locus_tag="MCIC6FC_015554" class="clusterblast-orf" id="dummy-3_q2_0_all"  />
<polygon points="97,40 97,40 102,35 97,30 97,30 97,40 " style="fill:#15b1d8; stroke-width:1; stroke:black; " description="&lt;b&gt;MCIC6FC_015555&lt;/b&gt;&lt;br&gt;hypothetical protein&lt;br&gt;Location: 381269 - 381827" locus_tag="MCIC6FC_015555" class="clusterblast-orf" id="dummy-3_q3_0_all"  />
<polygon points="102,35 107,30 125,30 125,40 107,40 102,35 " style="fill:white; stroke-width:1; stroke:black; " description="&lt;b&gt;MCIC6FC_015556&lt;/b&gt;&lt;br&gt;hypothetical protein&lt;br&gt;Location: 381840 - 384127" locus_tag="MCIC6FC_015556" class="clusterblast-orf" id="dummy-3_q4_0_all"  />
<polygon points="127,40 132,40 137,35 132,30 127,30 127,40 " style="fill:white; stroke-width:1; stroke:black; " description="&lt;b&gt;MCIC6FC_015557&lt;/b&gt;&lt;br&gt;hypothetical protein&lt;br&gt;Location: 384363 - 385391" locus_tag="MCIC6FC_015557" class="clusterblast-orf" id="dummy-3_q5_0_all"  />
<polygon points="138,35 143,30 150,30 150,40 143,40 138,35 " style="fill:#b115d8; stroke-width:1; stroke:black; " description="&lt;b&gt;MCIC6FC_015558&lt;/b&gt;&lt;br&gt;hypothetical protein&lt;br&gt;Location: 385461 - 386667" locus_tag="MCIC6FC_015558" class="clusterblast-orf" id="dummy-3_q6_0_all"  />
<polygon points="153,35 158,30 163,30 163,40 158,40 153,35 " style="fill:#d86315; stroke-width:1; stroke:black; " description="&lt;b&gt;MCIC6FC_015559&lt;/b&gt;&lt;br&gt;hypothetical protein&lt;br&gt;Location: 386933 - 388010" locus_tag="MCIC6FC_015559" class="clusterblast-orf" id="dummy-3_q7_0_all"  />
<polygon points="165,40 166,40 171,35 166,30 165,30 165,40 " style="fill:#15d815; stroke-width:1; stroke:black; " description="&lt;b&gt;MCIC6FC_015560&lt;/b&gt;&lt;br&gt;hypothetical protein&lt;br&gt;Location: 388141 - 388819" locus_tag="MCIC6FC_015560" class="clusterblast-orf" id="dummy-3_q8_0_all"  />
<polygon points="172,40 179,40 184,35 179,30 172,30 172,40 " style="fill:#1563d8; stroke-width:1; stroke:black; " description="&lt;b&gt;MCIC6FC_015561&lt;/b&gt;&lt;br&gt;hypothetical protein&lt;br&gt;Location: 388845 - 390088" locus_tag="MCIC6FC_015561" class="clusterblast-orf" id="dummy-3_q9_0_all"  />
<polygon points="185,40 219,40 224,35 219,30 185,30 185,40 " style="fill:#d815b1; stroke-width:1; stroke:black; " description="&lt;b&gt;MCIC6FC_015562&lt;/b&gt;&lt;br&gt;hypothetical protein&lt;br&gt;Location: 390156 - 394193" locus_tag="MCIC6FC_015562" class="clusterblast-orf" id="dummy-3_q10_0_all"  />
<polygon points="225,35 230,30 247,30 247,40 230,40 225,35 " style="fill:#d8b115; stroke-width:1; stroke:black; " description="&lt;b&gt;MCIC6FC_015563&lt;/b&gt;&lt;br&gt;hypothetical protein&lt;br&gt;Location: 394235 - 396454" locus_tag="MCIC6FC_015563" class="clusterblast-orf" id="dummy-3_q11_0_all"  />
<polygon points="250,40 309,40 314,35 309,30 250,30 250,40 " style="fill:#15d863; stroke-width:1; stroke:black; " description="&lt;b&gt;MCIC6FC_015564&lt;/b&gt;&lt;br&gt;hypothetical protein&lt;br&gt;Location: 396796 - 403215" locus_tag="MCIC6FC_015564" class="clusterblast-orf" id="dummy-3_q12_0_all"  />
<polygon points="326,35 331,30 341,30 341,40 331,40 326,35 " style="fill:#1515d8; stroke-width:1; stroke:black; " description="&lt;b&gt;MCIC6FC_015565&lt;/b&gt;&lt;br&gt;hypothetical protein&lt;br&gt;Location: 404434 - 405952" locus_tag="MCIC6FC_015565" class="clusterblast-orf" id="dummy-3_q13_0_all"  />
<polygon points="341,35 346,30 357,30 357,40 346,40 341,35 " style="fill:#d81563; stroke-width:1; stroke:black; " description="&lt;b&gt;MCIC6FC_015566&lt;/b&gt;&lt;br&gt;hypothetical protein&lt;br&gt;Location: 405978 - 407634" locus_tag="MCIC6FC_015566" class="clusterblast-orf" id="dummy-3_q14_0_all"  />
<polygon points="359,35 364,30 366,30 366,40 364,40 359,35 " style="fill:#b1d815; stroke-width:1; stroke:black; " description="&lt;b&gt;MCIC6FC_015567&lt;/b&gt;&lt;br&gt;hypothetical protein&lt;br&gt;Location: 407821 - 408496" locus_tag="MCIC6FC_015567" class="clusterblast-orf" id="dummy-3_q15_0_all"  />
<polygon points="369,40 405,40 410,35 405,30 369,30 369,40 " style="fill:#15d815; stroke-width:1; stroke:black; " description="&lt;b&gt;MCIC6FC_015568&lt;/b&gt;&lt;br&gt;hypothetical protein&lt;br&gt;Location: 408773 - 412960" locus_tag="MCIC6FC_015568" class="clusterblast-orf" id="dummy-3_q16_0_all"  />
<polygon points="412,40 422,40 427,35 422,30 412,30 412,40 " style="fill:#15d8b1; stroke-width:1; stroke:black; " description="&lt;b&gt;MCIC6FC_015569&lt;/b&gt;&lt;br&gt;hypothetical protein&lt;br&gt;Location: 413124 - 414658" locus_tag="MCIC6FC_015569" class="clusterblast-orf" id="dummy-3_q17_0_all"  />
<polygon points="427,35 432,30 526,30 526,40 432,40 427,35 " style="fill:#6315d8; stroke-width:1; stroke:black; " description="&lt;b&gt;MCIC6FC_015570&lt;/b&gt;&lt;br&gt;hypothetical protein&lt;br&gt;Location: 414704 - 424715" locus_tag="MCIC6FC_015570" class="clusterblast-orf" id="dummy-3_q18_0_all"  />
<polygon points="529,35 534,30 536,30 536,40 534,40 529,35 " style="fill:white; stroke-width:1; stroke:black; " description="&lt;b&gt;MCIC6FC_015571&lt;/b&gt;&lt;br&gt;hypothetical protein&lt;br&gt;Location: 424954 - 425722" locus_tag="MCIC6FC_015571" class="clusterblast-orf" id="dummy-3_q19_0_all"  />
<polygon points="537,35 542,30 591,30 591,40 542,40 537,35 " style="fill:#15d815; stroke-width:1; stroke:black; " description="&lt;b&gt;MCIC6FC_015572&lt;/b&gt;&lt;br&gt;hypothetical protein&lt;br&gt;Location: 425831 - 431252" locus_tag="MCIC6FC_015572" class="clusterblast-orf" id="dummy-3_q20_0_all"  />
<polygon points="593,40 593,40 598,35 593,30 593,30 593,40 " style="fill:white; stroke-width:1; stroke:black; " description="&lt;b&gt;MCIC6FC_015573&lt;/b&gt;&lt;br&gt;hypothetical protein&lt;br&gt;Location: 431508 - 431991" locus_tag="MCIC6FC_015573" class="clusterblast-orf" id="dummy-3_q21_0_all"  />
<polygon points="599,40 640,40 645,35 640,30 599,30 599,40 " style="fill:white; stroke-width:1; stroke:black; " description="&lt;b&gt;MCIC6FC_015574&lt;/b&gt;&lt;br&gt;hypothetical protein&lt;br&gt;Location: 432110 - 436710" locus_tag="MCIC6FC_015574" class="clusterblast-orf" id="dummy-3_q22_0_all"  />
<polygon points="646,35 651,30 707,30 707,40 651,40 646,35 " style="fill:white; stroke-width:1; stroke:black; " description="&lt;b&gt;MCIC6FC_015575&lt;/b&gt;&lt;br&gt;hypothetical protein&lt;br&gt;Location: 436847 - 443044" locus_tag="MCIC6FC_015575" class="clusterblast-orf" id="dummy-3_q23_0_all"  />
<polygon points="709,40 709,40 714,35 709,30 709,30 709,40 " style="fill:white; stroke-width:1; stroke:black; " description="&lt;b&gt;MCIC6FC_015576&lt;/b&gt;&lt;br&gt;hypothetical protein&lt;br&gt;Location: 443239 - 443728" locus_tag="MCIC6FC_015576" class="clusterblast-orf" id="dummy-3_q24_0_all"  />
<polygon points="715,35 720,30 724,30 724,40 720,40 715,35 " style="fill:white; stroke-width:1; stroke:black; " description="&lt;b&gt;MCIC6FC_015577&lt;/b&gt;&lt;br&gt;hypothetical protein&lt;br&gt;Location: 443855 - 444719" locus_tag="MCIC6FC_015577" class="clusterblast-orf" id="dummy-3_q25_0_all"  />
<polygon points="725,40 744,40 749,35 744,30 725,30 725,40 " style="fill:white; stroke-width:1; stroke:black; " description="&lt;b&gt;MCIC6FC_015578&lt;/b&gt;&lt;br&gt;hypothetical protein&lt;br&gt;Location: 444816 - 447254" locus_tag="MCIC6FC_015578" class="clusterblast-orf" id="dummy-3_q26_0_all"  />
<polygon points="752,40 775,40 780,35 775,30 752,30 752,40 " style="fill:white; stroke-width:1; stroke:black; " description="&lt;b&gt;MCIC6FC_015579&lt;/b&gt;&lt;br&gt;hypothetical protein&lt;br&gt;Location: 447568 - 450357" locus_tag="MCIC6FC_015579" class="clusterblast-orf" id="dummy-3_q27_0_all"  />
</g>
<g label="NZ_CABVGW010000011" description="NZ_CABVGW010000011 (36223-82445): Pseudomonas fluorescens isolate PS682, whol... (67% of genes show similarity), NRPS" class="clusterblast-cluster"  >
<text x="5" y="70" class="clusterblast-acc"  >
<a xlink:href="https://antismash-db.secondarymetabolites.org/area.html?record=NZ_CABVGW010000011&amp;start=36223&amp;end=82445" target="_blank">NZ_CABVGW010000011 (36223-82445)</a>: Pseudomonas fluorescens isolate PS682, whol... (67% of genes show similarity), NRPS</text>
<line x1="10" y1="85" x2="778.0" y2="85" style="stroke-width:1; stroke:grey; "  />
</g>
<g id="a3_000"  >
<polygon points="174,85 179,80 185,80 185,90 179,90 174,85 " style="fill:#d81515; stroke-width:1; stroke:black; " description="&lt;b&gt;F8N22_RS18375&lt;/b&gt;&lt;br&gt;EAL domain-containing protein&lt;br&gt;Location: 80383 - 79190&lt;br&gt;&lt;br&gt;&lt;b&gt;BlastP hit with MCIC6FC_015553&lt;/b&gt;&lt;br&gt;Percentage identity: 96&lt;br&gt;Percentage coverage: 14&lt;br&gt;BLAST bit score: 711&lt;br&gt;E-value: 3.1e-202" locus_tag="F8N22_RS18375" class="clusterblast-orf" id="dummy-3_h3_9_0"  />
</g>
<g id="a3_001"  >
<polygon points="185,85 190,80 213,80 213,90 190,90 185,85 " style="fill:#d81515; stroke-width:1; stroke:black; " description="&lt;b&gt;F8N22_RS18370&lt;/b&gt;&lt;br&gt;response regulator&lt;br&gt;Location: 79203 - 76387&lt;br&gt;&lt;br&gt;&lt;b&gt;BlastP hit with MCIC6FC_015553&lt;/b&gt;&lt;br&gt;Percentage identity: 93&lt;br&gt;Percentage coverage: 34&lt;br&gt;BLAST bit score: 1689&lt;br&gt;E-value: 0.0" locus_tag="F8N22_RS18370" class="clusterblast-orf" id="dummy-3_h3_9_1"  />
</g>
<g id="a3_002"  >
<polygon points="214,85 219,80 223,80 223,90 219,90 214,85 " style="fill:#d81515; stroke-width:1; stroke:black; " description="&lt;b&gt;F8N22_RS18365&lt;/b&gt;&lt;br&gt;fimbrial protein&lt;br&gt;Location: 76329 - 75349&lt;br&gt;&lt;br&gt;&lt;b&gt;BlastP hit with MCIC6FC_015553&lt;/b&gt;&lt;br&gt;Percentage identity: 92&lt;br&gt;Percentage coverage: 12&lt;br&gt;BLAST bit score: 618&lt;br&gt;E-value: 4.7e-174" locus_tag="F8N22_RS18365" class="clusterblast-orf" id="dummy-3_h3_9_2"  />
</g>
<g id="a3_003"  >
<polygon points="224,85 229,80 230,80 230,90 229,90 224,85 " style="fill:#63d815; stroke-width:1; stroke:black; " description="&lt;b&gt;F8N22_RS18360&lt;/b&gt;&lt;br&gt;molecular chaperone&lt;br&gt;Location: 75325 - 74636&lt;br&gt;&lt;br&gt;&lt;b&gt;BlastP hit with MCIC6FC_015554&lt;/b&gt;&lt;br&gt;Percentage identity: 83&lt;br&gt;Percentage coverage: 100&lt;br&gt;BLAST bit score: 371&lt;br&gt;E-value: 8.2e-101" locus_tag="F8N22_RS18360" class="clusterblast-orf" id="dummy-3_h3_9_3"  />
</g>
<g id="a3_004"  >
<polygon points="232,90 233,90 238,85 233,80 232,80 232,90 " style="fill:#15b1d8; stroke-width:1; stroke:black; " description="&lt;b&gt;F8N22_RS18355&lt;/b&gt;&lt;br&gt;hypothetical protein&lt;br&gt;Location: 74448 - 73912&lt;br&gt;&lt;br&gt;&lt;b&gt;BlastP hit with MCIC6FC_015555&lt;/b&gt;&lt;br&gt;Percentage identity: 81&lt;br&gt;Percentage coverage: 98&lt;br&gt;BLAST bit score: 258&lt;br&gt;E-value: 4.5e-67" locus_tag="F8N22_RS18355" class="clusterblast-orf" id="dummy-3_h3_9_4"  />
</g>
<g id="a3_005"  >
<polygon points="238,85 243,80 250,80 250,90 243,90 238,85 " style="fill:#b115d8; stroke-width:1; stroke:black; " description="&lt;b&gt;F8N22_RS18350&lt;/b&gt;&lt;br&gt;DUF1835 domain-containing protein&lt;br&gt;Location: 73897 - 72704&lt;br&gt;&lt;br&gt;&lt;b&gt;BlastP hit with MCIC6FC_015558&lt;/b&gt;&lt;br&gt;Percentage identity: 82&lt;br&gt;Percentage coverage: 98&lt;br&gt;BLAST bit score: 673&lt;br&gt;E-value: 1.1e-191" locus_tag="F8N22_RS18350" class="clusterblast-orf" id="dummy-3_h3_9_5"  />
</g>
<g id="a3_006"  >
<polygon points="251,85 253,80 253,90 251,85 " style="fill:white; stroke-width:1; stroke:black; " description="&lt;b&gt;F8N22_RS18345&lt;/b&gt;&lt;br&gt;hypothetical protein&lt;br&gt;Location: 72553 - 72311" locus_tag="F8N22_RS18345" class="clusterblast-orf" id="dummy-3_h3_9_6"  />
</g>
<g id="a3_007"  >
<polygon points="254,85 259,80 265,80 265,90 259,90 254,85 " style="fill:#d86315; stroke-width:1; stroke:black; " description="&lt;b&gt;F8N22_RS18340&lt;/b&gt;&lt;br&gt;aldo/keto reductase&lt;br&gt;Location: 72229 - 71153&lt;br&gt;&lt;br&gt;&lt;b&gt;BlastP hit with MCIC6FC_015559&lt;/b&gt;&lt;br&gt;Percentage identity: 96&lt;br&gt;Percentage coverage: 100&lt;br&gt;BLAST bit score: 710&lt;br&gt;E-value: 1.2e-202" locus_tag="F8N22_RS18340" class="clusterblast-orf" id="dummy-3_h3_9_7"  />
</g>
<g id="a3_008"  >
<polygon points="266,90 268,90 273,85 268,80 266,80 266,90 " style="fill:#15d815; stroke-width:1; stroke:black; " description="&lt;b&gt;F8N22_RS18335&lt;/b&gt;&lt;br&gt;ATP-binding cassette domain-containing protein&lt;br&gt;Location: 71020 - 70343&lt;br&gt;&lt;br&gt;&lt;b&gt;BlastP hit with MCIC6FC_015560&lt;/b&gt;&lt;br&gt;Percentage identity: 85&lt;br&gt;Percentage coverage: 100&lt;br&gt;BLAST bit score: 380&lt;br&gt;E-value: 1.4e-103" locus_tag="F8N22_RS18335" class="clusterblast-orf" id="dummy-3_h3_9_8"  />
</g>
<g id="a3_009"  >
<polygon points="273,90 276,90 281,85 276,80 273,80 273,90 " style="fill:#1563d8; stroke-width:1; stroke:black; " description="&lt;b&gt;F8N22_RS18330&lt;/b&gt;&lt;br&gt;iron export ABC transporter permease subunit FetB&lt;br&gt;Location: 70346 - 69555&lt;br&gt;&lt;br&gt;&lt;b&gt;BlastP hit with MCIC6FC_015561&lt;/b&gt;&lt;br&gt;Percentage identity: 98&lt;br&gt;Percentage coverage: 63&lt;br&gt;BLAST bit score: 442&lt;br&gt;E-value: 5e-122" locus_tag="F8N22_RS18330" class="clusterblast-orf" id="dummy-3_h3_9_9"  />
</g>
<g id="a3_0010"  >
<polygon points="283,90 284,90 289,85 284,80 283,80 283,90 " style="fill:#d815b1; stroke-width:1; stroke:black; " description="&lt;b&gt;F8N22_RS18325&lt;/b&gt;&lt;br&gt;glutathione S-transferase&lt;br&gt;Location: 69314 - 68694&lt;br&gt;&lt;br&gt;&lt;b&gt;BlastP hit with MCIC6FC_015562&lt;/b&gt;&lt;br&gt;Percentage identity: 85&lt;br&gt;Percentage coverage: 16&lt;br&gt;BLAST bit score: 346&lt;br&gt;E-value: 1.2e-92" locus_tag="F8N22_RS18325" class="clusterblast-orf" id="dummy-3_h3_9_10"  />
</g>
<g id="a3_0011"  >
<polygon points="289,90 293,90 298,85 293,80 289,80 289,90 " style="fill:#d815b1; stroke-width:1; stroke:black; " description="&lt;b&gt;F8N22_RS18320&lt;/b&gt;&lt;br&gt;LysR family transcriptional regulator&lt;br&gt;Location: 68675 - 67755&lt;br&gt;&lt;br&gt;&lt;b&gt;BlastP hit with MCIC6FC_015562&lt;/b&gt;&lt;br&gt;Percentage identity: 90&lt;br&gt;Percentage coverage: 22&lt;br&gt;BLAST bit score: 478&lt;br&gt;E-value: 2.7e-132" locus_tag="F8N22_RS18320" class="clusterblast-orf" id="dummy-3_h3_9_11"  />
</g>
<g id="a3_0012"  >
<polygon points="298,90 302,90 307,85 302,80 298,80 298,90 " style="fill:#d815b1; stroke-width:1; stroke:black; " description="&lt;b&gt;F8N22_RS18315&lt;/b&gt;&lt;br&gt;LysR family transcriptional regulator&lt;br&gt;Location: 67755 - 66871&lt;br&gt;&lt;br&gt;&lt;b&gt;BlastP hit with MCIC6FC_015562&lt;/b&gt;&lt;br&gt;Percentage identity: 80&lt;br&gt;Percentage coverage: 24&lt;br&gt;BLAST bit score: 463&lt;br&gt;E-value: 6.8e-128" locus_tag="F8N22_RS18315" class="clusterblast-orf" id="dummy-3_h3_9_12"  />
</g>
<g id="a3_0013"  >
<polygon points="308,90 312,90 317,85 312,80 308,80 308,90 " style="fill:#d815b1; stroke-width:1; stroke:black; " description="&lt;b&gt;F8N22_RS18310&lt;/b&gt;&lt;br&gt;flavin-nucleotide-binding protein&lt;br&gt;Location: 66791 - 65859&lt;br&gt;&lt;br&gt;&lt;b&gt;BlastP hit with MCIC6FC_015562&lt;/b&gt;&lt;br&gt;Percentage identity: 83&lt;br&gt;Percentage coverage: 25&lt;br&gt;BLAST bit score: 529&lt;br&gt;E-value: 7.7e-148" locus_tag="F8N22_RS18310" class="clusterblast-orf" id="dummy-3_h3_9_13"  />
</g>
<g id="a3_0014"  >
<polygon points="320,90 324,85 320,80 320,90 " style="fill:white; stroke-width:1; stroke:black; " description="&lt;b&gt;F8N22_RS18305&lt;/b&gt;&lt;br&gt;RidA family protein&lt;br&gt;Location: 65581 - 65177" locus_tag="F8N22_RS18305" class="clusterblast-orf" id="dummy-3_h3_9_14"  />
</g>
<g id="a3_0015"  >
<polygon points="324,85 329,80 338,80 338,90 329,90 324,85 " style="fill:#d8b115; stroke-width:1; stroke:black; " description="&lt;b&gt;F8N22_RS18300&lt;/b&gt;&lt;br&gt;efflux transporter outer membrane subunit&lt;br&gt;Location: 65170 - 63728&lt;br&gt;&lt;br&gt;&lt;b&gt;BlastP hit with MCIC6FC_015563&lt;/b&gt;&lt;br&gt;Percentage identity: 87&lt;br&gt;Percentage coverage: 64&lt;br&gt;BLAST bit score: 753&lt;br&gt;E-value: 1.5e-215" locus_tag="F8N22_RS18300" class="clusterblast-orf" id="dummy-3_h3_9_15"  />
</g>
<g id="a3_0016"  >
<polygon points="338,85 343,80 346,80 346,90 343,90 338,85 " style="fill:#d8b115; stroke-width:1; stroke:black; " description="&lt;b&gt;F8N22_RS18295&lt;/b&gt;&lt;br&gt;helix-turn-helix transcriptional regulator&lt;br&gt;Location: 63728 - 62934&lt;br&gt;&lt;br&gt;&lt;b&gt;BlastP hit with MCIC6FC_015563&lt;/b&gt;&lt;br&gt;Percentage identity: 81&lt;br&gt;Percentage coverage: 37&lt;br&gt;BLAST bit score: 416&lt;br&gt;E-value: 7.2e-114" locus_tag="F8N22_RS18295" class="clusterblast-orf" id="dummy-3_h3_9_16"  />
</g>
<g id="a3_0017"  >
<polygon points="351,90 407,90 412,85 407,80 351,80 351,90 " style="fill:#15d863; stroke-width:1; stroke:black; " description="&lt;b&gt;F8N22_RS18290&lt;/b&gt;&lt;br&gt;amino acid adenylation domain-containing protein&lt;br&gt;Location: 62445 - 56224&lt;br&gt;&lt;br&gt;&lt;b&gt;BlastP hit with MCIC6FC_015564&lt;/b&gt;&lt;br&gt;Percentage identity: 83&lt;br&gt;Percentage coverage: 99&lt;br&gt;BLAST bit score: 3435&lt;br&gt;E-value: 0.0" locus_tag="F8N22_RS18290" class="clusterblast-orf" id="dummy-3_h3_9_17"  />
</g>
<g id="a3_0018"  >
<polygon points="416,90 420,90 425,85 420,80 416,80 416,90 " style="fill:white; stroke-width:1; stroke:black; " description="&lt;b&gt;F8N22_RS18285&lt;/b&gt;&lt;br&gt;sugar ABC transporter ATP-binding protein&lt;br&gt;Location: 55903 - 54977" locus_tag="F8N22_RS18285" class="clusterblast-orf" id="dummy-3_h3_9_18"  />
</g>
<g id="a3_0019"  >
<polygon points="425,85 430,80 441,80 441,90 430,90 425,85 " style="fill:#d81563; stroke-width:1; stroke:black; " description="&lt;b&gt;F8N22_RS18280&lt;/b&gt;&lt;br&gt;lipid IV(A) 4-amino-4-deoxy-L-arabinosyltransferase&lt;br&gt;Location: 54974 - 53319&lt;br&gt;&lt;br&gt;&lt;b&gt;BlastP hit with MCIC6FC_015566&lt;/b&gt;&lt;br&gt;Percentage identity: 81&lt;br&gt;Percentage coverage: 100&lt;br&gt;BLAST bit score: 914&lt;br&gt;E-value: 3.8e-264" locus_tag="F8N22_RS18280" class="clusterblast-orf" id="dummy-3_h3_9_19"  />
</g>
<g id="a3_0020"  >
<polygon points="443,85 448,80 450,80 450,90 448,90 443,85 " style="fill:#b1d815; stroke-width:1; stroke:black; " description="&lt;b&gt;F8N22_RS18275&lt;/b&gt;&lt;br&gt;histidine phosphatase family protein&lt;br&gt;Location: 53140 - 52460&lt;br&gt;&lt;br&gt;&lt;b&gt;BlastP hit with MCIC6FC_015567&lt;/b&gt;&lt;br&gt;Percentage identity: 76&lt;br&gt;Percentage coverage: 100&lt;br&gt;BLAST bit score: 358&lt;br&gt;E-value: 7.3e-97" locus_tag="F8N22_RS18275" class="clusterblast-orf" id="dummy-3_h3_9_20"  />
</g>
<g id="a3_0021"  >
<polygon points="452,90 454,90 459,85 454,80 452,80 452,90 " style="fill:#15d815; stroke-width:1; stroke:black; " description="&lt;b&gt;F8N22_RS18270&lt;/b&gt;&lt;br&gt;ABC transporter ATP-binding protein&lt;br&gt;Location: 52190 - 51522&lt;br&gt;&lt;br&gt;&lt;b&gt;BlastP hit with MCIC6FC_015560&lt;/b&gt;&lt;br&gt;Percentage identity: 33&lt;br&gt;Percentage coverage: 87&lt;br&gt;BLAST bit score: 72&lt;br&gt;E-value: 6.1e-11&lt;br&gt;&lt;br&gt;&lt;b&gt;BlastP hit with MCIC6FC_015568&lt;/b&gt;&lt;br&gt;Percentage identity: 95&lt;br&gt;Percentage coverage: 15&lt;br&gt;BLAST bit score: 387&lt;br&gt;E-value: 6.8e-105&lt;br&gt;&lt;br&gt;&lt;b&gt;BlastP hit with MCIC6FC_015572&lt;/b&gt;&lt;br&gt;Percentage identity: 39&lt;br&gt;Percentage coverage: 12&lt;br&gt;BLAST bit score: 134&lt;br&gt;E-value: 1e-28" locus_tag="F8N22_RS18270" class="clusterblast-orf" id="dummy-3_h3_9_21"  />
</g>
<g id="a3_0022"  >
<polygon points="459,90 478,90 483,85 478,80 459,80 459,90 " style="fill:#15d815; stroke-width:1; stroke:black; " description="&lt;b&gt;F8N22_RS18265&lt;/b&gt;&lt;br&gt;FtsX-like permease family protein&lt;br&gt;Location: 51520 - 49058&lt;br&gt;&lt;br&gt;&lt;b&gt;BlastP hit with MCIC6FC_015568&lt;/b&gt;&lt;br&gt;Percentage identity: 91&lt;br&gt;Percentage coverage: 59&lt;br&gt;BLAST bit score: 1421&lt;br&gt;E-value: 0.0" locus_tag="F8N22_RS18265" class="clusterblast-orf" id="dummy-3_h3_9_22"  />
</g>
<g id="a3_0023"  >
<polygon points="483,90 489,90 494,85 489,80 483,80 483,90 " style="fill:#15d815; stroke-width:1; stroke:black; " description="&lt;b&gt;F8N22_RS18260&lt;/b&gt;&lt;br&gt;iron ABC transporter permease&lt;br&gt;Location: 49068 - 48007&lt;br&gt;&lt;br&gt;&lt;b&gt;BlastP hit with MCIC6FC_015568&lt;/b&gt;&lt;br&gt;Percentage identity: 89&lt;br&gt;Percentage coverage: 25&lt;br&gt;BLAST bit score: 659&lt;br&gt;E-value: 7.1e-187" locus_tag="F8N22_RS18260" class="clusterblast-orf" id="dummy-3_h3_9_23"  />
</g>
<g id="a3_0024"  >
<polygon points="495,90 500,90 505,85 500,80 495,80 495,90 " style="fill:white; stroke-width:1; stroke:black; " description="&lt;b&gt;F8N22_RS18255&lt;/b&gt;&lt;br&gt;hypothetical protein&lt;br&gt;Location: 47868 - 46873" locus_tag="F8N22_RS18255" class="clusterblast-orf" id="dummy-3_h3_9_24"  />
</g>
<g id="a3_0025"  >
<polygon points="505,90 509,85 505,80 505,90 " style="fill:white; stroke-width:1; stroke:black; " description="&lt;b&gt;F8N22_RS18250&lt;/b&gt;&lt;br&gt;hypothetical protein&lt;br&gt;Location: 46870 - 46490" locus_tag="F8N22_RS18250" class="clusterblast-orf" id="dummy-3_h3_9_25"  />
</g>
<g id="a3_0026"  >
<polygon points="510,90 519,90 524,85 519,80 510,80 510,90 " style="fill:#15d8b1; stroke-width:1; stroke:black; " description="&lt;b&gt;F8N22_RS18245&lt;/b&gt;&lt;br&gt;hypothetical protein&lt;br&gt;Location: 46376 - 44934&lt;br&gt;&lt;br&gt;&lt;b&gt;BlastP hit with MCIC6FC_015569&lt;/b&gt;&lt;br&gt;Percentage identity: 79&lt;br&gt;Percentage coverage: 97&lt;br&gt;BLAST bit score: 777&lt;br&gt;E-value: 8.4e-223" locus_tag="F8N22_RS18245" class="clusterblast-orf" id="dummy-3_h3_9_26"  />
</g>
<g id="a3_0027"  >
<polygon points="525,85 530,80 535,80 535,90 530,90 525,85 " style="fill:#6315d8; stroke-width:1; stroke:black; " description="&lt;b&gt;F8N22_RS18240&lt;/b&gt;&lt;br&gt;SMP-30/gluconolactonase/LRE family protein&lt;br&gt;Location: 44883 - 43783&lt;br&gt;&lt;br&gt;&lt;b&gt;BlastP hit with MCIC6FC_015570&lt;/b&gt;&lt;br&gt;Percentage identity: 86&lt;br&gt;Percentage coverage: 12&lt;br&gt;BLAST bit score: 581&lt;br&gt;E-value: 5.5e-163" locus_tag="F8N22_RS18240" class="clusterblast-orf" id="dummy-3_h3_9_27"  />
</g>
<g id="a3_0028"  >
<polygon points="535,85 540,80 542,80 542,90 540,90 535,85 " style="fill:white; stroke-width:1; stroke:black; " description="&lt;b&gt;F8N22_RS18235&lt;/b&gt;&lt;br&gt;sterol desaturase family protein&lt;br&gt;Location: 43786 - 43109" locus_tag="F8N22_RS18235" class="clusterblast-orf" id="dummy-3_h3_9_28"  />
</g>
<g id="a3_0029"  >
<polygon points="545,90 549,90 554,85 549,80 545,80 545,90 " style="fill:white; stroke-width:1; stroke:black; " description="&lt;b&gt;F8N22_RS18230&lt;/b&gt;&lt;br&gt;substrate-binding domain-containing protein&lt;br&gt;Location: 42814 - 41891" locus_tag="F8N22_RS18230" class="clusterblast-orf" id="dummy-3_h3_9_29"  />
</g>
<g id="a3_0030"  >
<polygon points="555,90 565,90 570,85 565,80 555,80 555,90 " style="fill:white; stroke-width:1; stroke:black; " description="&lt;b&gt;F8N22_RS18225&lt;/b&gt;&lt;br&gt;sugar ABC transporter ATP-binding protein&lt;br&gt;Location: 41827 - 40319" locus_tag="F8N22_RS18225" class="clusterblast-orf" id="dummy-3_h3_9_30"  />
</g>
<g id="a3_0031"  >
<polygon points="569,90 574,90 579,85 574,80 569,80 569,90 " style="fill:white; stroke-width:1; stroke:black; " description="&lt;b&gt;F8N22_RS18220&lt;/b&gt;&lt;br&gt;ribose ABC transporter permease&lt;br&gt;Location: 40353 - 39361" locus_tag="F8N22_RS18220" class="clusterblast-orf" id="dummy-3_h3_9_31"  />
</g>
<g id="a3_0032"  >
<polygon points="579,90 585,90 590,85 585,80 579,80 579,90 " style="fill:white; stroke-width:1; stroke:black; " description="&lt;b&gt;F8N22_RS18215&lt;/b&gt;&lt;br&gt;alcohol dehydrogenase catalytic domain-containing protein&lt;br&gt;Location: 39338 - 38253" locus_tag="F8N22_RS18215" class="clusterblast-orf" id="dummy-3_h3_9_32"  />
</g>
<g id="a3_0033"  >
<polygon points="590,90 600,90 605,85 600,80 590,80 590,90 " style="fill:white; stroke-width:1; stroke:black; " description="&lt;b&gt;F8N22_RS18210&lt;/b&gt;&lt;br&gt;FGGY-family carbohydrate kinase&lt;br&gt;Location: 38244 - 36712" locus_tag="F8N22_RS18210" class="clusterblast-orf" id="dummy-3_h3_9_33"  />
</g>
</svg>
