<svg xmlns="http://www.w3.org/2000/svg" xmlns:xlink="http://www.w3.org/1999/xlink" version="1.1" x="0" y="0" height="230" width="800" viewBox="0 0 800 230" preserveAspectRatio="none"  >
<g label="Query sequence" class="clusterblast-cluster"  >
<text x="5" y="20" class="clusterblast-acc"  >
Query sequence</text>
<line x1="10" y1="35" x2="778.0" y2="35" style="stroke-width:1; stroke:grey; "  />
<polygon points="0,35 5,30 6,30 6,40 5,40 0,35 " style="fill:white; stroke-width:1; stroke:black; " description="&lt;b&gt;MCIC6FC_018480&lt;/b&gt;&lt;br&gt;hypothetical protein&lt;br&gt;Location: 40369 - 41275" locus_tag="MCIC6FC_018480" class="clusterblast-orf" id="dummy-1_q0_0_all"  />
<polygon points="9,40 19,40 24,35 19,30 9,30 9,40 " style="fill:white; stroke-width:1; stroke:black; " description="&lt;b&gt;MCIC6FC_018481&lt;/b&gt;&lt;br&gt;hypothetical protein&lt;br&gt;Location: 41686 - 43743" locus_tag="MCIC6FC_018481" class="clusterblast-orf" id="dummy-1_q1_0_all"  />
<polygon points="25,35 30,30 42,30 42,40 30,40 25,35 " style="fill:#d81515; stroke-width:1; stroke:black; " description="&lt;b&gt;MCIC6FC_018482&lt;/b&gt;&lt;br&gt;hypothetical protein&lt;br&gt;Location: 43880 - 46147" locus_tag="MCIC6FC_018482" class="clusterblast-orf" id="dummy-1_q2_0_all"  />
<polygon points="42,40 44,40 49,35 44,30 42,30 42,40 " style="fill:#54d815; stroke-width:1; stroke:black; " description="&lt;b&gt;MCIC6FC_018483&lt;/b&gt;&lt;br&gt;hypothetical protein&lt;br&gt;Location: 46260 - 47154" locus_tag="MCIC6FC_018483" class="clusterblast-orf" id="dummy-1_q3_0_all"  />
<polygon points="50,35 55,30 67,30 67,40 55,40 50,35 " style="fill:#15c1d8; stroke-width:1; stroke:black; " description="&lt;b&gt;MCIC6FC_018484&lt;/b&gt;&lt;br&gt;hypothetical protein&lt;br&gt;Location: 47233 - 49612" locus_tag="MCIC6FC_018484" class="clusterblast-orf" id="dummy-1_q4_0_all"  />
<polygon points="67,35 72,30 77,30 77,40 72,40 67,35 " style="fill:#8215d8; stroke-width:1; stroke:black; " description="&lt;b&gt;MCIC6FC_018485&lt;/b&gt;&lt;br&gt;hypothetical protein&lt;br&gt;Location: 49634 - 50993" locus_tag="MCIC6FC_018485" class="clusterblast-orf" id="dummy-1_q5_0_all"  />
<polygon points="78,40 79,40 84,35 79,30 78,30 78,40 " style="fill:#d84415; stroke-width:1; stroke:black; " description="&lt;b&gt;MCIC6FC_018486&lt;/b&gt;&lt;br&gt;hypothetical protein&lt;br&gt;Location: 51132 - 52029" locus_tag="MCIC6FC_018486" class="clusterblast-orf" id="dummy-1_q6_0_all"  />
<polygon points="85,40 96,40 101,35 96,30 85,30 85,40 " style="fill:#25d815; stroke-width:1; stroke:black; " description="&lt;b&gt;MCIC6FC_018487&lt;/b&gt;&lt;br&gt;hypothetical protein&lt;br&gt;Location: 52166 - 54331" locus_tag="MCIC6FC_018487" class="clusterblast-orf" id="dummy-1_q7_0_all"  />
<polygon points="102,35 107,30 109,30 109,40 107,40 102,35 " style="fill:#1592d8; stroke-width:1; stroke:black; " description="&lt;b&gt;MCIC6FC_018488&lt;/b&gt;&lt;br&gt;hypothetical protein&lt;br&gt;Location: 54373 - 55450" locus_tag="MCIC6FC_018488" class="clusterblast-orf" id="dummy-1_q8_0_all"  />
<polygon points="110,40 111,40 116,35 111,30 110,30 110,40 " style="fill:#b115d8; stroke-width:1; stroke:black; " description="&lt;b&gt;MCIC6FC_018489&lt;/b&gt;&lt;br&gt;hypothetical protein&lt;br&gt;Location: 55551 - 56322" locus_tag="MCIC6FC_018489" class="clusterblast-orf" id="dummy-1_q9_0_all"  />
<polygon points="116,35 121,30 123,30 123,40 121,40 116,35 " style="fill:#d87315; stroke-width:1; stroke:black; " description="&lt;b&gt;MCIC6FC_018490&lt;/b&gt;&lt;br&gt;hypothetical protein&lt;br&gt;Location: 56326 - 57332" locus_tag="MCIC6FC_018490" class="clusterblast-orf" id="dummy-1_q10_0_all"  />
<polygon points="124,40 134,40 139,35 134,30 124,30 124,40 " style="fill:#15d834; stroke-width:1; stroke:black; " description="&lt;b&gt;MCIC6FC_018491&lt;/b&gt;&lt;br&gt;hypothetical protein&lt;br&gt;Location: 57455 - 59520" locus_tag="MCIC6FC_018491" class="clusterblast-orf" id="dummy-1_q11_0_all"  />
<polygon points="140,35 145,30 162,30 162,40 145,40 140,35 " style="fill:#1563d8; stroke-width:1; stroke:black; " description="&lt;b&gt;MCIC6FC_018492&lt;/b&gt;&lt;br&gt;hypothetical protein&lt;br&gt;Location: 59589 - 62673" locus_tag="MCIC6FC_018492" class="clusterblast-orf" id="dummy-1_q12_0_all"  />
<polygon points="163,35 168,30 342,30 342,40 168,40 163,35 " style="fill:#d815d0; stroke-width:1; stroke:black; " description="&lt;b&gt;MCIC6FC_018493&lt;/b&gt;&lt;br&gt;hypothetical protein&lt;br&gt;Location: 62865 - 87322" locus_tag="MCIC6FC_018493" class="clusterblast-orf" id="dummy-1_q13_0_all"  />
<polygon points="343,35 348,30 355,30 355,40 348,40 343,35 " style="fill:#d8a215; stroke-width:1; stroke:black; " description="&lt;b&gt;MCIC6FC_018494&lt;/b&gt;&lt;br&gt;hypothetical protein&lt;br&gt;Location: 87575 - 89201" locus_tag="MCIC6FC_018494" class="clusterblast-orf" id="dummy-1_q14_0_all"  />
<polygon points="356,40 377,40 382,35 377,30 356,30 356,40 " style="fill:#15d863; stroke-width:1; stroke:black; " description="&lt;b&gt;MCIC6FC_018495&lt;/b&gt;&lt;br&gt;hypothetical protein&lt;br&gt;Location: 89338 - 92879" locus_tag="MCIC6FC_018495" class="clusterblast-orf" id="dummy-1_q15_0_all"  />
<polygon points="383,35 388,30 389,30 389,40 388,40 383,35 " style="fill:#1534d8; stroke-width:1; stroke:black; " description="&lt;b&gt;MCIC6FC_018496&lt;/b&gt;&lt;br&gt;hypothetical protein&lt;br&gt;Location: 93004 - 93837" locus_tag="MCIC6FC_018496" class="clusterblast-orf" id="dummy-1_q16_0_all"  />
<polygon points="390,40 397,40 402,35 397,30 390,30 390,40 " style="fill:#d815a2; stroke-width:1; stroke:black; " description="&lt;b&gt;MCIC6FC_018497&lt;/b&gt;&lt;br&gt;hypothetical protein&lt;br&gt;Location: 94038 - 95691" locus_tag="MCIC6FC_018497" class="clusterblast-orf" id="dummy-1_q17_0_all"  />
<polygon points="404,40 416,40 421,35 416,30 404,30 404,40 " style="fill:#d8d015; stroke-width:1; stroke:black; " description="&lt;b&gt;MCIC6FC_018498&lt;/b&gt;&lt;br&gt;hypothetical protein&lt;br&gt;Location: 95846 - 98231" locus_tag="MCIC6FC_018498" class="clusterblast-orf" id="dummy-1_q18_0_all"  />
<polygon points="422,35 427,30 554,30 554,40 427,40 422,35 " style="fill:#d815d0; stroke-width:1; stroke:black; " description="&lt;b&gt;MCIC6FC_018499&lt;/b&gt;&lt;br&gt;hypothetical protein&lt;br&gt;Location: 98383 - 116494" locus_tag="MCIC6FC_018499" class="clusterblast-orf" id="dummy-1_q19_0_all"  />
<polygon points="555,35 560,30 646,30 646,40 560,40 555,35 " style="fill:#d815d0; stroke-width:1; stroke:black; " description="&lt;b&gt;MCIC6FC_018500&lt;/b&gt;&lt;br&gt;hypothetical protein&lt;br&gt;Location: 116593 - 129094" locus_tag="MCIC6FC_018500" class="clusterblast-orf" id="dummy-1_q20_0_all"  />
<polygon points="646,35 651,30 664,30 664,40 651,40 646,35 " style="fill:#15d892; stroke-width:1; stroke:black; " description="&lt;b&gt;MCIC6FC_018501&lt;/b&gt;&lt;br&gt;hypothetical protein&lt;br&gt;Location: 129176 - 131553" locus_tag="MCIC6FC_018501" class="clusterblast-orf" id="dummy-1_q21_0_all"  />
<polygon points="664,35 669,30 674,30 674,40 669,40 664,35 " style="fill:#2515d8; stroke-width:1; stroke:black; " description="&lt;b&gt;MCIC6FC_018502&lt;/b&gt;&lt;br&gt;hypothetical protein&lt;br&gt;Location: 131556 - 132906" locus_tag="MCIC6FC_018502" class="clusterblast-orf" id="dummy-1_q22_0_all"  />
<polygon points="674,35 679,30 683,30 683,40 679,40 674,35 " style="fill:#d81573; stroke-width:1; stroke:black; " description="&lt;b&gt;MCIC6FC_018503&lt;/b&gt;&lt;br&gt;hypothetical protein&lt;br&gt;Location: 132965 - 134195" locus_tag="MCIC6FC_018503" class="clusterblast-orf" id="dummy-1_q23_0_all"  />
<polygon points="685,40 692,40 697,35 692,30 685,30 685,40 " style="fill:#b1d815; stroke-width:1; stroke:black; " description="&lt;b&gt;MCIC6FC_018504&lt;/b&gt;&lt;br&gt;hypothetical protein&lt;br&gt;Location: 134427 - 136068" locus_tag="MCIC6FC_018504" class="clusterblast-orf" id="dummy-1_q24_0_all"  />
<polygon points="697,35 702,30 702,30 702,40 702,40 697,35 " style="fill:#15d8c1; stroke-width:1; stroke:black; " description="&lt;b&gt;MCIC6FC_018505&lt;/b&gt;&lt;br&gt;hypothetical protein&lt;br&gt;Location: 136093 - 136805" locus_tag="MCIC6FC_018505" class="clusterblast-orf" id="dummy-1_q25_0_all"  />
<polygon points="703,40 708,40 713,35 708,30 703,30 703,40 " style="fill:#5415d8; stroke-width:1; stroke:black; " description="&lt;b&gt;MCIC6FC_018506&lt;/b&gt;&lt;br&gt;hypothetical protein&lt;br&gt;Location: 136909 - 138265" locus_tag="MCIC6FC_018506" class="clusterblast-orf" id="dummy-1_q26_0_all"  />
<polygon points="714,40 729,40 734,35 729,30 714,30 714,40 " style="fill:#d81544; stroke-width:1; stroke:black; " description="&lt;b&gt;MCIC6FC_018507&lt;/b&gt;&lt;br&gt;hypothetical protein&lt;br&gt;Location: 138444 - 141153" locus_tag="MCIC6FC_018507" class="clusterblast-orf" id="dummy-1_q27_0_all"  />
<polygon points="734,35 739,30 749,30 749,40 739,40 734,35 " style="fill:#d815a2; stroke-width:1; stroke:black; " description="&lt;b&gt;MCIC6FC_018508&lt;/b&gt;&lt;br&gt;hypothetical protein&lt;br&gt;Location: 141248 - 143227" locus_tag="MCIC6FC_018508" class="clusterblast-orf" id="dummy-1_q28_0_all"  />
<polygon points="749,35 754,30 780,30 780,40 754,40 749,35 " style="fill:#82d815; stroke-width:1; stroke:black; " description="&lt;b&gt;MCIC6FC_018509&lt;/b&gt;&lt;br&gt;hypothetical protein&lt;br&gt;Location: 143237 - 147464" locus_tag="MCIC6FC_018509" class="clusterblast-orf" id="dummy-1_q29_0_all"  />
</g>
<g label="NZ_CABVHV010000001" description="NZ_CABVHV010000001 (1487452-1546817): Pseudomonas fluorescens isolate PS706, ... (84% of genes show similarity), NRPS" class="clusterblast-cluster"  >
<text x="5" y="70" class="clusterblast-acc"  >
<a xlink:href="https://antismash-db.secondarymetabolites.org/area.html?record=NZ_CABVHV010000001&amp;start=1487452&amp;end=1546817" target="_blank">NZ_CABVHV010000001 (1487452-1546817)</a>: Pseudomonas fluorescens isolate PS706, ... (84% of genes show similarity), NRPS</text>
<line x1="10" y1="85" x2="778.0" y2="85" style="stroke-width:1; stroke:grey; "  />
</g>
<g id="a1_000"  >
<polygon points="179,90 188,90 193,85 188,80 179,80 179,90 " style="fill:white; stroke-width:1; stroke:black; " description="&lt;b&gt;F8N57_RS06870&lt;/b&gt;&lt;br&gt;GAF domain-containing protein&lt;br&gt;Location: 1488427 - 1490292" locus_tag="F8N57_RS06870" class="clusterblast-orf" id="dummy-1_h1_9_0"  />
</g>
<g id="a1_001"  >
<polygon points="193,85 198,80 199,80 199,90 198,90 193,85 " style="fill:white; stroke-width:1; stroke:black; " description="&lt;b&gt;F8N57_RS06875&lt;/b&gt;&lt;br&gt;acetoin reductase&lt;br&gt;Location: 1490342 - 1491121" locus_tag="F8N57_RS06875" class="clusterblast-orf" id="dummy-1_h1_9_1"  />
</g>
<g id="a1_002"  >
<polygon points="200,90 211,90 216,85 211,80 200,80 200,90 " style="fill:#25d815; stroke-width:1; stroke:black; " description="&lt;b&gt;F8N57_RS06880&lt;/b&gt;&lt;br&gt;TonB-dependent siderophore receptor&lt;br&gt;Location: 1491314 - 1493479&lt;br&gt;&lt;br&gt;&lt;b&gt;BlastP hit with MCIC6FC_018487&lt;/b&gt;&lt;br&gt;Percentage identity: 93&lt;br&gt;Percentage coverage: 103&lt;br&gt;BLAST bit score: 1322&lt;br&gt;E-value: 0.0" locus_tag="F8N57_RS06880" class="clusterblast-orf" id="dummy-1_h1_9_2"  />
</g>
<g id="a1_003"  >
<polygon points="216,85 219,80 219,90 216,85 " style="fill:#d87315; stroke-width:1; stroke:black; " description="&lt;b&gt;F8N57_RS06885&lt;/b&gt;&lt;br&gt;carboxymuconolactone decarboxylase family protein&lt;br&gt;Location: 1493483 - 1493920&lt;br&gt;&lt;br&gt;&lt;b&gt;BlastP hit with MCIC6FC_018490&lt;/b&gt;&lt;br&gt;Percentage identity: 95&lt;br&gt;Percentage coverage: 47&lt;br&gt;BLAST bit score: 275&lt;br&gt;E-value: 6.5e-72" locus_tag="F8N57_RS06885" class="clusterblast-orf" id="dummy-1_h1_9_3"  />
</g>
<g id="a1_004"  >
<polygon points="220,85 224,80 224,90 220,85 " style="fill:#d87315; stroke-width:1; stroke:black; " description="&lt;b&gt;F8N57_RS06890&lt;/b&gt;&lt;br&gt;Lrp/AsnC family transcriptional regulator&lt;br&gt;Location: 1494070 - 1494540&lt;br&gt;&lt;br&gt;&lt;b&gt;BlastP hit with MCIC6FC_018490&lt;/b&gt;&lt;br&gt;Percentage identity: 95&lt;br&gt;Percentage coverage: 50&lt;br&gt;BLAST bit score: 290&lt;br&gt;E-value: 1.5e-76" locus_tag="F8N57_RS06890" class="clusterblast-orf" id="dummy-1_h1_9_4"  />
</g>
<g id="a1_005"  >
<polygon points="225,90 229,90 234,85 229,80 225,80 225,90 " style="fill:#15d834; stroke-width:1; stroke:black; " description="&lt;b&gt;F8N57_RS06895&lt;/b&gt;&lt;br&gt;methionine gamma-lyase&lt;br&gt;Location: 1494664 - 1495899&lt;br&gt;&lt;br&gt;&lt;b&gt;BlastP hit with MCIC6FC_018491&lt;/b&gt;&lt;br&gt;Percentage identity: 95&lt;br&gt;Percentage coverage: 63&lt;br&gt;BLAST bit score: 770&lt;br&gt;E-value: 1e-220" locus_tag="F8N57_RS06895" class="clusterblast-orf" id="dummy-1_h1_9_5"  />
</g>
<g id="a1_006"  >
<polygon points="235,85 240,80 247,80 247,90 240,90 235,85 " style="fill:#d8a215; stroke-width:1; stroke:black; " description="&lt;b&gt;F8N57_RS06900&lt;/b&gt;&lt;br&gt;PvdJ/PvdD/PvdP-like protein&lt;br&gt;Location: 1496046 - 1497680&lt;br&gt;&lt;br&gt;&lt;b&gt;BlastP hit with MCIC6FC_018494&lt;/b&gt;&lt;br&gt;Percentage identity: 96&lt;br&gt;Percentage coverage: 99&lt;br&gt;BLAST bit score: 1109&lt;br&gt;E-value: 0.0" locus_tag="F8N57_RS06900" class="clusterblast-orf" id="dummy-1_h1_9_6"  />
</g>
<g id="a1_007"  >
<polygon points="248,90 253,90 258,85 253,80 248,80 248,90 " style="fill:#15d863; stroke-width:1; stroke:black; " description="&lt;b&gt;F8N57_RS06905&lt;/b&gt;&lt;br&gt;membrane dipeptidase&lt;br&gt;Location: 1497823 - 1499172&lt;br&gt;&lt;br&gt;&lt;b&gt;BlastP hit with MCIC6FC_018495&lt;/b&gt;&lt;br&gt;Percentage identity: 98&lt;br&gt;Percentage coverage: 38&lt;br&gt;BLAST bit score: 886&lt;br&gt;E-value: 3e-255" locus_tag="F8N57_RS06905" class="clusterblast-orf" id="dummy-1_h1_9_7"  />
</g>
<g id="a1_008"  >
<polygon points="258,90 262,90 267,85 262,80 258,80 258,90 " style="fill:#15d863; stroke-width:1; stroke:black; " description="&lt;b&gt;F8N57_RS06910&lt;/b&gt;&lt;br&gt;aminotransferase class V-fold PLP-dependent enzyme&lt;br&gt;Location: 1499191 - 1500462&lt;br&gt;&lt;br&gt;&lt;b&gt;BlastP hit with MCIC6FC_018495&lt;/b&gt;&lt;br&gt;Percentage identity: 94&lt;br&gt;Percentage coverage: 37&lt;br&gt;BLAST bit score: 811&lt;br&gt;E-value: 9.5e-233" locus_tag="F8N57_RS06910" class="clusterblast-orf" id="dummy-1_h1_9_8"  />
</g>
<g id="a1_009"  >
<polygon points="267,90 268,90 273,85 268,80 267,80 267,90 " style="fill:#15d863; stroke-width:1; stroke:black; " description="&lt;b&gt;F8N57_RS06915&lt;/b&gt;&lt;br&gt;formylglycine-generating enzyme family protein&lt;br&gt;Location: 1500497 - 1501357&lt;br&gt;&lt;br&gt;&lt;b&gt;BlastP hit with MCIC6FC_018495&lt;/b&gt;&lt;br&gt;Percentage identity: 96&lt;br&gt;Percentage coverage: 25&lt;br&gt;BLAST bit score: 594&lt;br&gt;E-value: 3.1e-167" locus_tag="F8N57_RS06915" class="clusterblast-orf" id="dummy-1_h1_9_9"  />
</g>
<g id="a1_0010"  >
<polygon points="279,85 284,80 285,80 285,90 284,90 279,85 " style="fill:#1534d8; stroke-width:1; stroke:black; " description="&lt;b&gt;F8N57_RS06920&lt;/b&gt;&lt;br&gt;N(5)-hydroxyornithine transformylase PvdF&lt;br&gt;Location: 1502079 - 1502909&lt;br&gt;&lt;br&gt;&lt;b&gt;BlastP hit with MCIC6FC_018496&lt;/b&gt;&lt;br&gt;Percentage identity: 92&lt;br&gt;Percentage coverage: 107&lt;br&gt;BLAST bit score: 505&lt;br&gt;E-value: 4.2e-141" locus_tag="F8N57_RS06920" class="clusterblast-orf" id="dummy-1_h1_9_10"  />
</g>
<g id="a1_0011"  >
<polygon points="286,90 293,90 298,85 293,80 286,80 286,90 " style="fill:#d815a2; stroke-width:1; stroke:black; " description="&lt;b&gt;F8N57_RS06925&lt;/b&gt;&lt;br&gt;cyclic peptide export ABC transporter&lt;br&gt;Location: 1503110 - 1504762&lt;br&gt;&lt;br&gt;&lt;b&gt;BlastP hit with MCIC6FC_018497&lt;/b&gt;&lt;br&gt;Percentage identity: 91&lt;br&gt;Percentage coverage: 100&lt;br&gt;BLAST bit score: 975&lt;br&gt;E-value: 2.4e-282" locus_tag="F8N57_RS06925" class="clusterblast-orf" id="dummy-1_h1_9_11"  />
</g>
<g id="a1_0012"  >
<polygon points="299,90 312,90 317,85 312,80 299,80 299,90 " style="fill:#d8d015; stroke-width:1; stroke:black; " description="&lt;b&gt;F8N57_RS06930&lt;/b&gt;&lt;br&gt;TonB-dependent siderophore receptor&lt;br&gt;Location: 1504873 - 1507308&lt;br&gt;&lt;br&gt;&lt;b&gt;BlastP hit with MCIC6FC_018498&lt;/b&gt;&lt;br&gt;Percentage identity: 59&lt;br&gt;Percentage coverage: 104&lt;br&gt;BLAST bit score: 928&lt;br&gt;E-value: 4.6e-268" locus_tag="F8N57_RS06930" class="clusterblast-orf" id="dummy-1_h1_9_12"  />
</g>
<g id="a1_0013"  >
<polygon points="318,85 323,80 459,80 459,90 323,90 318,85 " style="fill:#d815d0; stroke-width:1; stroke:black; " description="&lt;b&gt;F8N57_RS06935&lt;/b&gt;&lt;br&gt;amino acid adenylation domain-containing protein&lt;br&gt;Location: 1507453 - 1526817&lt;br&gt;&lt;br&gt;&lt;b&gt;BlastP hit with MCIC6FC_018493&lt;/b&gt;&lt;br&gt;Percentage identity: 31&lt;br&gt;Percentage coverage: 80&lt;br&gt;BLAST bit score: 2280&lt;br&gt;E-value: 0.0&lt;br&gt;&lt;br&gt;&lt;b&gt;BlastP hit with MCIC6FC_018499&lt;/b&gt;&lt;br&gt;Percentage identity: 55&lt;br&gt;Percentage coverage: 110&lt;br&gt;BLAST bit score: 6429&lt;br&gt;E-value: 0.0&lt;br&gt;&lt;br&gt;&lt;b&gt;BlastP hit with MCIC6FC_018500&lt;/b&gt;&lt;br&gt;Percentage identity: 59&lt;br&gt;Percentage coverage: 118&lt;br&gt;BLAST bit score: 4978&lt;br&gt;E-value: 0.0" locus_tag="F8N57_RS06935" class="clusterblast-orf" id="dummy-1_h1_9_13"  />
</g>
<g id="a1_0014"  >
<polygon points="461,90 462,85 461,80 461,90 " style="fill:white; stroke-width:1; stroke:black; " description="&lt;b&gt;F8N57_RS06940&lt;/b&gt;&lt;br&gt;toxin-antitoxin system HicB family antitoxin&lt;br&gt;Location: 1527069 - 1527280" locus_tag="F8N57_RS06940" class="clusterblast-orf" id="dummy-1_h1_9_14"  />
</g>
<g id="a1_0015"  >
<polygon points="463,85 468,80 471,80 471,90 468,90 463,85 " style="fill:white; stroke-width:1; stroke:black; " description="&lt;b&gt;F8N57_RS06945&lt;/b&gt;&lt;br&gt;MFS transporter&lt;br&gt;Location: 1527323 - 1528495" locus_tag="F8N57_RS06945" class="clusterblast-orf" id="dummy-1_h1_9_15"  />
</g>
<g id="a1_0016"  >
<polygon points="472,90 476,85 472,80 472,90 " style="fill:white; stroke-width:1; stroke:black; " description="&lt;b&gt;F8N57_RS06950&lt;/b&gt;&lt;br&gt;TetR/AcrR family transcriptional regulator&lt;br&gt;Location: 1528636 - 1529223" locus_tag="F8N57_RS06950" class="clusterblast-orf" id="dummy-1_h1_9_16"  />
</g>
<g id="a1_0017"  >
<polygon points="476,85 481,80 486,80 486,90 481,90 476,85 " style="fill:#15d892; stroke-width:1; stroke:black; " description="&lt;b&gt;F8N57_RS06955&lt;/b&gt;&lt;br&gt;MATE family efflux transporter&lt;br&gt;Location: 1529207 - 1530562&lt;br&gt;&lt;br&gt;&lt;b&gt;BlastP hit with MCIC6FC_018501&lt;/b&gt;&lt;br&gt;Percentage identity: 98&lt;br&gt;Percentage coverage: 58&lt;br&gt;BLAST bit score: 823&lt;br&gt;E-value: 1.6e-236" locus_tag="F8N57_RS06955" class="clusterblast-orf" id="dummy-1_h1_9_17"  />
</g>
<g id="a1_0018"  >
<polygon points="487,85 492,80 494,80 494,90 492,90 487,85 " style="fill:#15d892; stroke-width:1; stroke:black; " description="&lt;b&gt;F8N57_RS06960&lt;/b&gt;&lt;br&gt;ATP-dependent Clp protease ATP-binding subunit&lt;br&gt;Location: 1530619 - 1531584&lt;br&gt;&lt;br&gt;&lt;b&gt;BlastP hit with MCIC6FC_018501&lt;/b&gt;&lt;br&gt;Percentage identity: 92&lt;br&gt;Percentage coverage: 41&lt;br&gt;BLAST bit score: 567&lt;br&gt;E-value: 2.7e-159" locus_tag="F8N57_RS06960" class="clusterblast-orf" id="dummy-1_h1_9_18"  />
</g>
<g id="a1_0019"  >
<polygon points="494,85 499,80 501,80 501,90 499,90 494,85 " style="fill:#2515d8; stroke-width:1; stroke:black; " description="&lt;b&gt;F8N57_RS06965&lt;/b&gt;&lt;br&gt;aliphatic amidase&lt;br&gt;Location: 1531588 - 1532631&lt;br&gt;&lt;br&gt;&lt;b&gt;BlastP hit with MCIC6FC_018502&lt;/b&gt;&lt;br&gt;Percentage identity: 98&lt;br&gt;Percentage coverage: 79&lt;br&gt;BLAST bit score: 722&lt;br&gt;E-value: 2.2e-206" locus_tag="F8N57_RS06965" class="clusterblast-orf" id="dummy-1_h1_9_19"  />
</g>
<g id="a1_0020"  >
<polygon points="501,85 504,80 504,90 501,85 " style="fill:#2515d8; stroke-width:1; stroke:black; " description="&lt;b&gt;F8N57_RS06970&lt;/b&gt;&lt;br&gt;zinc ribbon domain-containing protein&lt;br&gt;Location: 1532647 - 1532994&lt;br&gt;&lt;br&gt;&lt;b&gt;BlastP hit with MCIC6FC_018502&lt;/b&gt;&lt;br&gt;Percentage identity: 87&lt;br&gt;Percentage coverage: 22&lt;br&gt;BLAST bit score: 177&lt;br&gt;E-value: 2.6e-42" locus_tag="F8N57_RS06970" class="clusterblast-orf" id="dummy-1_h1_9_20"  />
</g>
<g id="a1_0021"  >
<polygon points="504,85 509,80 513,80 513,90 509,90 504,85 " style="fill:#d81573; stroke-width:1; stroke:black; " description="&lt;b&gt;F8N57_RS06975&lt;/b&gt;&lt;br&gt;acetamidase/formamidase family protein&lt;br&gt;Location: 1532997 - 1534226&lt;br&gt;&lt;br&gt;&lt;b&gt;BlastP hit with MCIC6FC_018503&lt;/b&gt;&lt;br&gt;Percentage identity: 100&lt;br&gt;Percentage coverage: 100&lt;br&gt;BLAST bit score: 862&lt;br&gt;E-value: 2.2e-248" locus_tag="F8N57_RS06975" class="clusterblast-orf" id="dummy-1_h1_9_21"  />
</g>
<g id="a1_0022"  >
<polygon points="515,90 522,90 527,85 522,80 515,80 515,90 " style="fill:#b1d815; stroke-width:1; stroke:black; " description="&lt;b&gt;F8N57_RS06980&lt;/b&gt;&lt;br&gt;methyl-accepting chemotaxis protein&lt;br&gt;Location: 1534461 - 1536101&lt;br&gt;&lt;br&gt;&lt;b&gt;BlastP hit with MCIC6FC_018504&lt;/b&gt;&lt;br&gt;Percentage identity: 85&lt;br&gt;Percentage coverage: 100&lt;br&gt;BLAST bit score: 756&lt;br&gt;E-value: 1.7e-216" locus_tag="F8N57_RS06980" class="clusterblast-orf" id="dummy-1_h1_9_22"  />
</g>
<g id="a1_0023"  >
<polygon points="526,85 531,80 532,80 532,90 531,90 526,85 " style="fill:#15d8c1; stroke-width:1; stroke:black; " description="&lt;b&gt;F8N57_RS06985&lt;/b&gt;&lt;br&gt;GntR family transcriptional regulator&lt;br&gt;Location: 1536098 - 1536838&lt;br&gt;&lt;br&gt;&lt;b&gt;BlastP hit with MCIC6FC_018505&lt;/b&gt;&lt;br&gt;Percentage identity: 96&lt;br&gt;Percentage coverage: 98&lt;br&gt;BLAST bit score: 420&lt;br&gt;E-value: 9.3e-116" locus_tag="F8N57_RS06985" class="clusterblast-orf" id="dummy-1_h1_9_23"  />
</g>
<g id="a1_0024"  >
<polygon points="533,90 538,90 543,85 538,80 533,80 533,90 " style="fill:#5415d8; stroke-width:1; stroke:black; " description="&lt;b&gt;F8N57_RS06990&lt;/b&gt;&lt;br&gt;adenylosuccinate lyase family protein&lt;br&gt;Location: 1536942 - 1538297&lt;br&gt;&lt;br&gt;&lt;b&gt;BlastP hit with MCIC6FC_018506&lt;/b&gt;&lt;br&gt;Percentage identity: 98&lt;br&gt;Percentage coverage: 100&lt;br&gt;BLAST bit score: 860&lt;br&gt;E-value: 7e-248" locus_tag="F8N57_RS06990" class="clusterblast-orf" id="dummy-1_h1_9_24"  />
</g>
<g id="a1_0025"  >
<polygon points="544,90 548,90 553,85 548,80 544,80 544,90 " style="fill:#d81544; stroke-width:1; stroke:black; " description="&lt;b&gt;F8N57_RS06995&lt;/b&gt;&lt;br&gt;cation:dicarboxylase symporter family transporter&lt;br&gt;Location: 1538477 - 1539781&lt;br&gt;&lt;br&gt;&lt;b&gt;BlastP hit with MCIC6FC_018507&lt;/b&gt;&lt;br&gt;Percentage identity: 96&lt;br&gt;Percentage coverage: 48&lt;br&gt;BLAST bit score: 777&lt;br&gt;E-value: 1.5e-222" locus_tag="F8N57_RS06995" class="clusterblast-orf" id="dummy-1_h1_9_25"  />
</g>
<g id="a1_0026"  >
<polygon points="553,90 559,90 564,85 559,80 553,80 553,90 " style="fill:#d81544; stroke-width:1; stroke:black; " description="&lt;b&gt;F8N57_RS07000&lt;/b&gt;&lt;br&gt;class II fumarate hydratase&lt;br&gt;Location: 1539794 - 1541188&lt;br&gt;&lt;br&gt;&lt;b&gt;BlastP hit with MCIC6FC_018507&lt;/b&gt;&lt;br&gt;Percentage identity: 91&lt;br&gt;Percentage coverage: 52&lt;br&gt;BLAST bit score: 780&lt;br&gt;E-value: 1.8e-223" locus_tag="F8N57_RS07000" class="clusterblast-orf" id="dummy-1_h1_9_26"  />
</g>
<g id="a1_0027"  >
<polygon points="564,85 569,80 573,80 573,90 569,90 564,85 " style="fill:#d815a2; stroke-width:1; stroke:black; " description="&lt;b&gt;F8N57_RS07005&lt;/b&gt;&lt;br&gt;hypothetical protein&lt;br&gt;Location: 1541252 - 1542490&lt;br&gt;&lt;br&gt;&lt;b&gt;BlastP hit with MCIC6FC_018508&lt;/b&gt;&lt;br&gt;Percentage identity: 43&lt;br&gt;Percentage coverage: 35&lt;br&gt;BLAST bit score: 133&lt;br&gt;E-value: 9.3e-29" locus_tag="F8N57_RS07005" class="clusterblast-orf" id="dummy-1_h1_9_27"  />
</g>
<g id="a1_0028"  >
<polygon points="574,85 579,80 579,80 579,90 579,90 574,85 " style="fill:#d815a2; stroke-width:1; stroke:black; " description="&lt;b&gt;F8N57_RS07010&lt;/b&gt;&lt;br&gt;urea ABC transporter ATP-binding subunit UrtE&lt;br&gt;Location: 1542640 - 1543329&lt;br&gt;&lt;br&gt;&lt;b&gt;BlastP hit with MCIC6FC_018508&lt;/b&gt;&lt;br&gt;Percentage identity: 97&lt;br&gt;Percentage coverage: 42&lt;br&gt;BLAST bit score: 434&lt;br&gt;E-value: 2e-119" locus_tag="F8N57_RS07010" class="clusterblast-orf" id="dummy-1_h1_9_28"  />
</g>
<g id="a1_0029"  >
<polygon points="579,85 584,80 585,80 585,90 584,90 579,85 " style="fill:#82d815; stroke-width:1; stroke:black; " description="&lt;b&gt;F8N57_RS07015&lt;/b&gt;&lt;br&gt;urea ABC transporter ATP-binding protein UrtD&lt;br&gt;Location: 1543340 - 1544098&lt;br&gt;&lt;br&gt;&lt;b&gt;BlastP hit with MCIC6FC_018509&lt;/b&gt;&lt;br&gt;Percentage identity: 99&lt;br&gt;Percentage coverage: 19&lt;br&gt;BLAST bit score: 492&lt;br&gt;E-value: 1.5e-136" locus_tag="F8N57_RS07015" class="clusterblast-orf" id="dummy-1_h1_9_29"  />
</g>
<g id="a1_0030"  >
<polygon points="585,85 590,80 593,80 593,90 590,90 585,85 " style="fill:#82d815; stroke-width:1; stroke:black; " description="&lt;b&gt;F8N57_RS07020&lt;/b&gt;&lt;br&gt;urea ABC transporter permease subunit UrtC&lt;br&gt;Location: 1544095 - 1545258&lt;br&gt;&lt;br&gt;&lt;b&gt;BlastP hit with MCIC6FC_018509&lt;/b&gt;&lt;br&gt;Percentage identity: 99&lt;br&gt;Percentage coverage: 23&lt;br&gt;BLAST bit score: 594&lt;br&gt;E-value: 2.1e-167" locus_tag="F8N57_RS07020" class="clusterblast-orf" id="dummy-1_h1_9_30"  />
</g>
<g id="a1_0031"  >
<polygon points="593,85 598,80 600,80 600,90 598,90 593,85 " style="fill:#82d815; stroke-width:1; stroke:black; " description="&lt;b&gt;F8N57_RS07025&lt;/b&gt;&lt;br&gt;urea ABC transporter permease subunit UrtB&lt;br&gt;Location: 1545269 - 1546150&lt;br&gt;&lt;br&gt;&lt;b&gt;BlastP hit with MCIC6FC_018509&lt;/b&gt;&lt;br&gt;Percentage identity: 99&lt;br&gt;Percentage coverage: 22&lt;br&gt;BLAST bit score: 545&lt;br&gt;E-value: 1.9e-152" locus_tag="F8N57_RS07025" class="clusterblast-orf" id="dummy-1_h1_9_31"  />
</g>
</svg>
