<svg xmlns="http://www.w3.org/2000/svg" xmlns:xlink="http://www.w3.org/1999/xlink" version="1.1" x="0" y="0" height="230" width="800" viewBox="0 0 800 230" preserveAspectRatio="none"  >
<g label="Query sequence" class="clusterblast-cluster"  >
<text x="5" y="20" class="clusterblast-acc"  >
Query sequence</text>
<line x1="10" y1="35" x2="778.0" y2="35" style="stroke-width:1; stroke:grey; "  />
<polygon points="0,35 5,30 23,30 23,40 5,40 0,35 " style="fill:white; stroke-width:1; stroke:black; " description="&lt;b&gt;MCIC6FC_007469&lt;/b&gt;&lt;br&gt;hypothetical protein&lt;br&gt;Location: 672575 - 674644" locus_tag="MCIC6FC_007469" class="clusterblast-orf" id="dummy-2_q0_0_all"  />
<polygon points="24,40 30,40 35,35 30,30 24,30 24,40 " style="fill:white; stroke-width:1; stroke:black; " description="&lt;b&gt;MCIC6FC_007470&lt;/b&gt;&lt;br&gt;hypothetical protein&lt;br&gt;Location: 674727 - 675636" locus_tag="MCIC6FC_007470" class="clusterblast-orf" id="dummy-2_q1_0_all"  />
<polygon points="35,35 40,30 61,30 61,40 40,40 35,35 " style="fill:#d81515; stroke-width:1; stroke:black; " description="&lt;b&gt;MCIC6FC_007471&lt;/b&gt;&lt;br&gt;hypothetical protein&lt;br&gt;Location: 675666 - 677901" locus_tag="MCIC6FC_007471" class="clusterblast-orf" id="dummy-2_q2_0_all"  />
<polygon points="63,40 84,40 89,35 84,30 63,30 63,40 " style="fill:#6ad815; stroke-width:1; stroke:black; " description="&lt;b&gt;MCIC6FC_007472&lt;/b&gt;&lt;br&gt;hypothetical protein&lt;br&gt;Location: 678045 - 680361" locus_tag="MCIC6FC_007472" class="clusterblast-orf" id="dummy-2_q3_0_all"  />
<polygon points="92,35 97,30 123,30 123,40 97,40 92,35 " style="fill:#15bfd8; stroke-width:1; stroke:black; " description="&lt;b&gt;MCIC6FC_007473&lt;/b&gt;&lt;br&gt;hypothetical protein&lt;br&gt;Location: 680593 - 683317" locus_tag="MCIC6FC_007473" class="clusterblast-orf" id="dummy-2_q4_0_all"  />
<polygon points="125,40 137,40 142,35 137,30 125,30 125,40 " style="fill:#9d15d8; stroke-width:1; stroke:black; " description="&lt;b&gt;MCIC6FC_007474&lt;/b&gt;&lt;br&gt;hypothetical protein&lt;br&gt;Location: 683450 - 684953" locus_tag="MCIC6FC_007474" class="clusterblast-orf" id="dummy-2_q5_0_all"  />
<polygon points="142,35 147,30 151,30 151,40 147,40 142,35 " style="fill:#d84815; stroke-width:1; stroke:black; " description="&lt;b&gt;MCIC6FC_007475&lt;/b&gt;&lt;br&gt;hypothetical protein&lt;br&gt;Location: 684963 - 685723" locus_tag="MCIC6FC_007475" class="clusterblast-orf" id="dummy-2_q6_0_all"  />
<polygon points="152,40 157,40 162,35 157,30 152,30 152,40 " style="fill:#37d815; stroke-width:1; stroke:black; " description="&lt;b&gt;MCIC6FC_007476&lt;/b&gt;&lt;br&gt;hypothetical protein&lt;br&gt;Location: 685781 - 686674" locus_tag="MCIC6FC_007476" class="clusterblast-orf" id="dummy-2_q7_0_all"  />
<polygon points="162,35 167,30 172,30 172,40 167,40 162,35 " style="fill:#158cd8; stroke-width:1; stroke:black; " description="&lt;b&gt;MCIC6FC_007477&lt;/b&gt;&lt;br&gt;hypothetical protein&lt;br&gt;Location: 686682 - 687549" locus_tag="MCIC6FC_007477" class="clusterblast-orf" id="dummy-2_q8_0_all"  />
<polygon points="173,40 181,40 186,35 181,30 173,30 173,40 " style="fill:#d015d8; stroke-width:1; stroke:black; " description="&lt;b&gt;MCIC6FC_007478&lt;/b&gt;&lt;br&gt;hypothetical protein&lt;br&gt;Location: 687621 - 688727" locus_tag="MCIC6FC_007478" class="clusterblast-orf" id="dummy-2_q9_0_all"  />
<polygon points="186,35 191,30 192,30 192,40 191,40 186,35 " style="fill:#d87b15; stroke-width:1; stroke:black; " description="&lt;b&gt;MCIC6FC_007479&lt;/b&gt;&lt;br&gt;hypothetical protein&lt;br&gt;Location: 688781 - 689242" locus_tag="MCIC6FC_007479" class="clusterblast-orf" id="dummy-2_q10_0_all"  />
<polygon points="197,35 202,30 212,30 212,40 202,40 197,35 " style="fill:#15d826; stroke-width:1; stroke:black; " description="&lt;b&gt;MCIC6FC_007480&lt;/b&gt;&lt;br&gt;hypothetical protein&lt;br&gt;Location: 689670 - 690984" locus_tag="MCIC6FC_007480" class="clusterblast-orf" id="dummy-2_q11_0_all"  />
<polygon points="215,35 220,30 225,30 225,40 220,40 215,35 " style="fill:#1559d8; stroke-width:1; stroke:black; " description="&lt;b&gt;MCIC6FC_007481&lt;/b&gt;&lt;br&gt;hypothetical protein&lt;br&gt;Location: 691289 - 692105" locus_tag="MCIC6FC_007481" class="clusterblast-orf" id="dummy-2_q12_0_all"  />
<polygon points="225,35 230,30 232,30 232,40 230,40 225,35 " style="fill:#d015d8; stroke-width:1; stroke:black; " description="&lt;b&gt;MCIC6FC_007482&lt;/b&gt;&lt;br&gt;hypothetical protein&lt;br&gt;Location: 692133 - 692766" locus_tag="MCIC6FC_007482" class="clusterblast-orf" id="dummy-2_q13_0_all"  />
<polygon points="234,40 260,40 265,35 260,30 234,30 234,40 " style="fill:#d815ae; stroke-width:1; stroke:black; " description="&lt;b&gt;MCIC6FC_007483&lt;/b&gt;&lt;br&gt;hypothetical protein&lt;br&gt;Location: 692877 - 695575" locus_tag="MCIC6FC_007483" class="clusterblast-orf" id="dummy-2_q14_0_all"  />
<polygon points="265,35 270,30 272,30 272,40 270,40 265,35 " style="fill:#d8ae15; stroke-width:1; stroke:black; " description="&lt;b&gt;MCIC6FC_007484&lt;/b&gt;&lt;br&gt;hypothetical protein&lt;br&gt;Location: 695586 - 696207" locus_tag="MCIC6FC_007484" class="clusterblast-orf" id="dummy-2_q15_0_all"  />
<polygon points="275,40 340,40 345,35 340,30 275,30 275,40 " style="fill:#15d859; stroke-width:1; stroke:black; " description="&lt;b&gt;MCIC6FC_007485&lt;/b&gt;&lt;br&gt;hypothetical protein&lt;br&gt;Location: 696508 - 702544" locus_tag="MCIC6FC_007485" class="clusterblast-orf" id="dummy-2_q16_0_all"  />
<polygon points="346,35 351,30 376,30 376,40 351,40 346,35 " style="fill:#1526d8; stroke-width:1; stroke:black; " description="&lt;b&gt;MCIC6FC_007486&lt;/b&gt;&lt;br&gt;hypothetical protein&lt;br&gt;Location: 702671 - 705211" locus_tag="MCIC6FC_007486" class="clusterblast-orf" id="dummy-2_q17_0_all"  />
<polygon points="377,35 382,30 387,30 387,40 382,40 377,35 " style="fill:#d8157b; stroke-width:1; stroke:black; " description="&lt;b&gt;MCIC6FC_007487&lt;/b&gt;&lt;br&gt;hypothetical protein&lt;br&gt;Location: 705352 - 706216" locus_tag="MCIC6FC_007487" class="clusterblast-orf" id="dummy-2_q18_0_all"  />
<polygon points="391,35 396,30 416,30 416,40 396,40 391,35 " style="fill:#d0d815; stroke-width:1; stroke:black; " description="&lt;b&gt;MCIC6FC_007488&lt;/b&gt;&lt;br&gt;hypothetical protein&lt;br&gt;Location: 706499 - 708736" locus_tag="MCIC6FC_007488" class="clusterblast-orf" id="dummy-2_q19_0_all"  />
<polygon points="418,35 423,30 457,30 457,40 423,40 418,35 " style="fill:#15d88c; stroke-width:1; stroke:black; " description="&lt;b&gt;MCIC6FC_007489&lt;/b&gt;&lt;br&gt;hypothetical protein&lt;br&gt;Location: 708846 - 712262" locus_tag="MCIC6FC_007489" class="clusterblast-orf" id="dummy-2_q20_0_all"  />
<polygon points="458,40 462,40 467,35 462,30 458,30 458,40 " style="fill:#3715d8; stroke-width:1; stroke:black; " description="&lt;b&gt;MCIC6FC_007490&lt;/b&gt;&lt;br&gt;hypothetical protein&lt;br&gt;Location: 712372 - 713153" locus_tag="MCIC6FC_007490" class="clusterblast-orf" id="dummy-2_q21_0_all"  />
<polygon points="469,40 512,40 517,35 512,30 469,30 469,40 " style="fill:#d81548; stroke-width:1; stroke:black; " description="&lt;b&gt;MCIC6FC_007491&lt;/b&gt;&lt;br&gt;hypothetical protein&lt;br&gt;Location: 713274 - 717451" locus_tag="MCIC6FC_007491" class="clusterblast-orf" id="dummy-2_q22_0_all"  />
<polygon points="517,35 522,30 534,30 534,40 522,40 517,35 " style="fill:#15bfd8; stroke-width:1; stroke:black; " description="&lt;b&gt;MCIC6FC_007492&lt;/b&gt;&lt;br&gt;hypothetical protein&lt;br&gt;Location: 717453 - 718988" locus_tag="MCIC6FC_007492" class="clusterblast-orf" id="dummy-2_q23_0_all"  />
<polygon points="536,35 541,30 566,30 566,40 541,40 536,35 " style="fill:#9dd815; stroke-width:1; stroke:black; " description="&lt;b&gt;MCIC6FC_007493&lt;/b&gt;&lt;br&gt;hypothetical protein&lt;br&gt;Location: 719128 - 721732" locus_tag="MCIC6FC_007493" class="clusterblast-orf" id="dummy-2_q24_0_all"  />
<polygon points="568,35 573,30 592,30 592,40 573,40 568,35 " style="fill:#15d8bf; stroke-width:1; stroke:black; " description="&lt;b&gt;MCIC6FC_007494&lt;/b&gt;&lt;br&gt;hypothetical protein&lt;br&gt;Location: 721903 - 723972" locus_tag="MCIC6FC_007494" class="clusterblast-orf" id="dummy-2_q25_0_all"  />
<polygon points="592,35 597,30 751,30 751,40 597,40 592,35 " style="fill:#6a15d8; stroke-width:1; stroke:black; " description="&lt;b&gt;MCIC6FC_007495&lt;/b&gt;&lt;br&gt;hypothetical protein&lt;br&gt;Location: 724015 - 737775" locus_tag="MCIC6FC_007495" class="clusterblast-orf" id="dummy-2_q26_0_all"  />
<polygon points="757,35 762,30 768,30 768,40 762,40 757,35 " style="fill:white; stroke-width:1; stroke:black; " description="&lt;b&gt;MCIC6FC_007496&lt;/b&gt;&lt;br&gt;hypothetical protein&lt;br&gt;Location: 738268 - 739222" locus_tag="MCIC6FC_007496" class="clusterblast-orf" id="dummy-2_q27_0_all"  />
<polygon points="768,35 773,30 780,30 780,40 773,40 768,35 " style="fill:white; stroke-width:1; stroke:black; " description="&lt;b&gt;MCIC6FC_007497&lt;/b&gt;&lt;br&gt;hypothetical protein&lt;br&gt;Location: 739248 - 740262" locus_tag="MCIC6FC_007497" class="clusterblast-orf" id="dummy-2_q28_0_all"  />
</g>
<g label="NZ_CP025263" description="NZ_CP025263 (3758521-3789198): Pseudomonas sp. S09G 359 chromosome (53% of genes show similarity), thiopeptide" class="clusterblast-cluster"  >
<text x="5" y="70" class="clusterblast-acc"  >
<a xlink:href="https://antismash-db.secondarymetabolites.org/area.html?record=NZ_CP025263&amp;start=3758521&amp;end=3789198" target="_blank">NZ_CP025263 (3758521-3789198)</a>: Pseudomonas sp. S09G 359 chromosome (53% of genes show similarity), thiopeptide</text>
<line x1="10" y1="85" x2="778.0" y2="85" style="stroke-width:1; stroke:grey; "  />
</g>
<g id="a2_000"  >
<polygon points="223,85 228,80 229,80 229,90 228,90 223,85 " style="fill:#15bfd8; stroke-width:1; stroke:black; " description="&lt;b&gt;CXQ82_RS17155&lt;/b&gt;&lt;br&gt;winged helix-turn-helix transcriptional regulator&lt;br&gt;Location: 3788621 - 3788097&lt;br&gt;&lt;br&gt;&lt;b&gt;BlastP hit with MCIC6FC_007473&lt;/b&gt;&lt;br&gt;Percentage identity: 90&lt;br&gt;Percentage coverage: 17&lt;br&gt;BLAST bit score: 241&lt;br&gt;E-value: 3.5e-61" locus_tag="CXQ82_RS17155" class="clusterblast-orf" id="dummy-2_h2_6_0"  />
</g>
<g id="a2_001"  >
<polygon points="229,90 241,90 246,85 241,80 229,80 229,90 " style="fill:#9d15d8; stroke-width:1; stroke:black; " description="&lt;b&gt;CXQ82_RS17150&lt;/b&gt;&lt;br&gt;FAD-dependent oxidoreductase&lt;br&gt;Location: 3788074 - 3786584&lt;br&gt;&lt;br&gt;&lt;b&gt;BlastP hit with MCIC6FC_007474&lt;/b&gt;&lt;br&gt;Percentage identity: 74&lt;br&gt;Percentage coverage: 99&lt;br&gt;BLAST bit score: 757&lt;br&gt;E-value: 1.2e-216" locus_tag="CXQ82_RS17150" class="clusterblast-orf" id="dummy-2_h2_6_1"  />
</g>
<g id="a2_002"  >
<polygon points="246,85 251,80 253,80 253,90 251,90 246,85 " style="fill:#d84815; stroke-width:1; stroke:black; " description="&lt;b&gt;CXQ82_RS17145&lt;/b&gt;&lt;br&gt;Asp/Glu racemase&lt;br&gt;Location: 3786634 - 3785960&lt;br&gt;&lt;br&gt;&lt;b&gt;BlastP hit with MCIC6FC_007475&lt;/b&gt;&lt;br&gt;Percentage identity: 65&lt;br&gt;Percentage coverage: 98&lt;br&gt;BLAST bit score: 240&lt;br&gt;E-value: 1.6e-61" locus_tag="CXQ82_RS17145" class="clusterblast-orf" id="dummy-2_h2_6_2"  />
</g>
<g id="a2_003"  >
<polygon points="254,90 254,90 259,85 254,80 254,80 254,90 " style="fill:#37d815; stroke-width:1; stroke:black; " description="&lt;b&gt;CXQ82_RS17140&lt;/b&gt;&lt;br&gt;hypothetical protein&lt;br&gt;Location: 3785882 - 3785454&lt;br&gt;&lt;br&gt;&lt;b&gt;BlastP hit with MCIC6FC_007476&lt;/b&gt;&lt;br&gt;Percentage identity: 81&lt;br&gt;Percentage coverage: 49&lt;br&gt;BLAST bit score: 240&lt;br&gt;E-value: 2.8e-61" locus_tag="CXQ82_RS17140" class="clusterblast-orf" id="dummy-2_h2_6_3"  />
</g>
<g id="a2_004"  >
<polygon points="259,85 264,80 269,80 269,90 264,90 259,85 " style="fill:#158cd8; stroke-width:1; stroke:black; " description="&lt;b&gt;CXQ82_RS17135&lt;/b&gt;&lt;br&gt;aldo/keto reductase family oxidoreductase&lt;br&gt;Location: 3785449 - 3784583&lt;br&gt;&lt;br&gt;&lt;b&gt;BlastP hit with MCIC6FC_007477&lt;/b&gt;&lt;br&gt;Percentage identity: 87&lt;br&gt;Percentage coverage: 100&lt;br&gt;BLAST bit score: 500&lt;br&gt;E-value: 1.2e-139" locus_tag="CXQ82_RS17135" class="clusterblast-orf" id="dummy-2_h2_6_4"  />
</g>
<g id="a2_005"  >
<polygon points="270,90 272,90 277,85 272,80 270,80 270,90 " style="fill:#d015d8; stroke-width:1; stroke:black; " description="&lt;b&gt;CXQ82_RS17130&lt;/b&gt;&lt;br&gt;TetR/AcrR family transcriptional regulator&lt;br&gt;Location: 3784510 - 3783866&lt;br&gt;&lt;br&gt;&lt;b&gt;BlastP hit with MCIC6FC_007478&lt;/b&gt;&lt;br&gt;Percentage identity: 82&lt;br&gt;Percentage coverage: 58&lt;br&gt;BLAST bit score: 320&lt;br&gt;E-value: 2.7e-85&lt;br&gt;&lt;br&gt;&lt;b&gt;BlastP hit with MCIC6FC_007482&lt;/b&gt;&lt;br&gt;Percentage identity: 38&lt;br&gt;Percentage coverage: 54&lt;br&gt;BLAST bit score: 67&lt;br&gt;E-value: 2.4e-09" locus_tag="CXQ82_RS17130" class="clusterblast-orf" id="dummy-2_h2_6_5"  />
</g>
<g id="a2_006"  >
<polygon points="278,85 283,80 284,80 284,90 283,90 278,85 " style="fill:#d87b15; stroke-width:1; stroke:black; " description="&lt;b&gt;CXQ82_RS17125&lt;/b&gt;&lt;br&gt;cysteine hydrolase&lt;br&gt;Location: 3783847 - 3783287&lt;br&gt;&lt;br&gt;&lt;b&gt;BlastP hit with MCIC6FC_007479&lt;/b&gt;&lt;br&gt;Percentage identity: 81&lt;br&gt;Percentage coverage: 100&lt;br&gt;BLAST bit score: 210&lt;br&gt;E-value: 1e-52" locus_tag="CXQ82_RS17125" class="clusterblast-orf" id="dummy-2_h2_6_6"  />
</g>
<g id="a2_007"  >
<polygon points="285,90 296,90 301,85 296,80 285,80 285,90 " style="fill:white; stroke-width:1; stroke:black; " description="&lt;b&gt;CXQ82_RS17120&lt;/b&gt;&lt;br&gt;hypothetical protein&lt;br&gt;Location: 3783166 - 3781778" locus_tag="CXQ82_RS17120" class="clusterblast-orf" id="dummy-2_h2_6_7"  />
</g>
<g id="a2_008"  >
<polygon points="303,85 308,80 310,80 310,90 308,90 303,85 " style="fill:#d8ae15; stroke-width:1; stroke:black; " description="&lt;b&gt;CXQ82_RS17115&lt;/b&gt;&lt;br&gt;LysE family translocator&lt;br&gt;Location: 3781631 - 3781011&lt;br&gt;&lt;br&gt;&lt;b&gt;BlastP hit with MCIC6FC_007484&lt;/b&gt;&lt;br&gt;Percentage identity: 85&lt;br&gt;Percentage coverage: 105&lt;br&gt;BLAST bit score: 334&lt;br&gt;E-value: 7.5e-90" locus_tag="CXQ82_RS17115" class="clusterblast-orf" id="dummy-2_h2_6_8"  />
</g>
<g id="a2_009"  >
<polygon points="311,85 316,80 329,80 329,90 316,90 311,85 " style="fill:#15bfd8; stroke-width:1; stroke:black; " description="&lt;b&gt;CXQ82_RS17110&lt;/b&gt;&lt;br&gt;methyl-accepting chemotaxis protein&lt;br&gt;Location: 3780927 - 3779362&lt;br&gt;&lt;br&gt;&lt;b&gt;BlastP hit with MCIC6FC_007492&lt;/b&gt;&lt;br&gt;Percentage identity: 62&lt;br&gt;Percentage coverage: 14&lt;br&gt;BLAST bit score: 76&lt;br&gt;E-value: 7.2e-12" locus_tag="CXQ82_RS17110" class="clusterblast-orf" id="dummy-2_h2_6_9"  />
</g>
<g id="a2_0010"  >
<polygon points="331,90 352,90 357,85 352,80 331,80 331,90 " style="fill:#15d859; stroke-width:1; stroke:black; " description="&lt;b&gt;CXQ82_RS17105&lt;/b&gt;&lt;br&gt;OsmC domain/YcaO domain-containing protein&lt;br&gt;Location: 3779198 - 3777000&lt;br&gt;&lt;br&gt;&lt;b&gt;BlastP hit with MCIC6FC_007485&lt;/b&gt;&lt;br&gt;Percentage identity: 94&lt;br&gt;Percentage coverage: 38&lt;br&gt;BLAST bit score: 1408&lt;br&gt;E-value: 0.0" locus_tag="CXQ82_RS17105" class="clusterblast-orf" id="dummy-2_h2_6_10"  />
</g>
<g id="a2_0011"  >
<polygon points="366,85 371,80 379,80 379,90 371,90 366,85 " style="fill:#1526d8; stroke-width:1; stroke:black; " description="&lt;b&gt;CXQ82_RS17100&lt;/b&gt;&lt;br&gt;cystathionine gamma-synthase&lt;br&gt;Location: 3776204 - 3775038&lt;br&gt;&lt;br&gt;&lt;b&gt;BlastP hit with MCIC6FC_007486&lt;/b&gt;&lt;br&gt;Percentage identity: 96&lt;br&gt;Percentage coverage: 46&lt;br&gt;BLAST bit score: 743&lt;br&gt;E-value: 2.3e-212" locus_tag="CXQ82_RS17100" class="clusterblast-orf" id="dummy-2_h2_6_11"  />
</g>
<g id="a2_0012"  >
<polygon points="379,85 384,80 395,80 395,90 384,90 379,85 " style="fill:#1526d8; stroke-width:1; stroke:black; " description="&lt;b&gt;CXQ82_RS17095&lt;/b&gt;&lt;br&gt;cystathionine beta-synthase&lt;br&gt;Location: 3775041 - 3773665&lt;br&gt;&lt;br&gt;&lt;b&gt;BlastP hit with MCIC6FC_007486&lt;/b&gt;&lt;br&gt;Percentage identity: 95&lt;br&gt;Percentage coverage: 54&lt;br&gt;BLAST bit score: 853&lt;br&gt;E-value: 1.6e-245" locus_tag="CXQ82_RS17095" class="clusterblast-orf" id="dummy-2_h2_6_12"  />
</g>
<g id="a2_0013"  >
<polygon points="398,90 414,90 419,85 414,80 398,80 398,90 " style="fill:white; stroke-width:1; stroke:black; " description="&lt;b&gt;CXQ82_RS17090&lt;/b&gt;&lt;br&gt;allophanate hydrolase&lt;br&gt;Location: 3773416 - 3771620" locus_tag="CXQ82_RS17090" class="clusterblast-orf" id="dummy-2_h2_6_13"  />
</g>
<g id="a2_0014"  >
<polygon points="419,90 422,90 427,85 422,80 419,80 419,90 " style="fill:white; stroke-width:1; stroke:black; " description="&lt;b&gt;CXQ82_RS17085&lt;/b&gt;&lt;br&gt;GntR family transcriptional regulator&lt;br&gt;Location: 3771617 - 3770922" locus_tag="CXQ82_RS17085" class="clusterblast-orf" id="dummy-2_h2_6_14"  />
</g>
<g id="a2_0015"  >
<polygon points="430,85 435,80 440,80 440,90 435,90 430,85 " style="fill:#d8157b; stroke-width:1; stroke:black; " description="&lt;b&gt;CXQ82_RS17080&lt;/b&gt;&lt;br&gt;4-hydroxy-tetrahydrodipicolinate synthase&lt;br&gt;Location: 3770611 - 3769748&lt;br&gt;&lt;br&gt;&lt;b&gt;BlastP hit with MCIC6FC_007487&lt;/b&gt;&lt;br&gt;Percentage identity: 87&lt;br&gt;Percentage coverage: 99&lt;br&gt;BLAST bit score: 474&lt;br&gt;E-value: 8.9e-132" locus_tag="CXQ82_RS17080" class="clusterblast-orf" id="dummy-2_h2_6_15"  />
</g>
<g id="a2_0016"  >
<polygon points="443,85 448,80 449,80 449,90 448,90 443,85 " style="fill:#d0d815; stroke-width:1; stroke:black; " description="&lt;b&gt;CXQ82_RS17075&lt;/b&gt;&lt;br&gt;VOC family protein&lt;br&gt;Location: 3769464 - 3768973&lt;br&gt;&lt;br&gt;&lt;b&gt;BlastP hit with MCIC6FC_007488&lt;/b&gt;&lt;br&gt;Percentage identity: 89&lt;br&gt;Percentage coverage: 23&lt;br&gt;BLAST bit score: 300&lt;br&gt;E-value: 3.2e-79" locus_tag="CXQ82_RS17075" class="clusterblast-orf" id="dummy-2_h2_6_16"  />
</g>
<g id="a2_0017"  >
<polygon points="450,85 454,80 454,90 450,85 " style="fill:#15d88c; stroke-width:1; stroke:black; " description="&lt;b&gt;CXQ82_RS17070&lt;/b&gt;&lt;br&gt;ester cyclase&lt;br&gt;Location: 3768917 - 3768522&lt;br&gt;&lt;br&gt;&lt;b&gt;BlastP hit with MCIC6FC_007489&lt;/b&gt;&lt;br&gt;Percentage identity: 80&lt;br&gt;Percentage coverage: 11&lt;br&gt;BLAST bit score: 208&lt;br&gt;E-value: 2.6e-51" locus_tag="CXQ82_RS17070" class="clusterblast-orf" id="dummy-2_h2_6_17"  />
</g>
<g id="a2_0018"  >
<polygon points="454,85 459,80 462,80 462,90 459,90 454,85 " style="fill:#15d88c; stroke-width:1; stroke:black; " description="&lt;b&gt;CXQ82_RS17065&lt;/b&gt;&lt;br&gt;LysE family translocator&lt;br&gt;Location: 3768511 - 3767891&lt;br&gt;&lt;br&gt;&lt;b&gt;BlastP hit with MCIC6FC_007489&lt;/b&gt;&lt;br&gt;Percentage identity: 83&lt;br&gt;Percentage coverage: 19&lt;br&gt;BLAST bit score: 324&lt;br&gt;E-value: 4.3e-86" locus_tag="CXQ82_RS17065" class="clusterblast-orf" id="dummy-2_h2_6_18"  />
</g>
<g id="a2_0019"  >
<polygon points="465,90 471,90 476,85 471,80 465,80 465,90 " style="fill:white; stroke-width:1; stroke:black; " description="&lt;b&gt;CXQ82_RS17060&lt;/b&gt;&lt;br&gt;DUF1852 domain-containing protein&lt;br&gt;Location: 3767615 - 3766632" locus_tag="CXQ82_RS17060" class="clusterblast-orf" id="dummy-2_h2_6_19"  />
</g>
<g id="a2_0020"  >
<polygon points="476,90 483,90 488,85 483,80 476,80 476,90 " style="fill:white; stroke-width:1; stroke:black; " description="&lt;b&gt;CXQ82_RS17055&lt;/b&gt;&lt;br&gt;methionine synthase&lt;br&gt;Location: 3766604 - 3765570" locus_tag="CXQ82_RS17055" class="clusterblast-orf" id="dummy-2_h2_6_20"  />
</g>
<g id="a2_0021"  >
<polygon points="489,85 494,80 499,80 499,90 494,90 489,85 " style="fill:white; stroke-width:1; stroke:black; " description="&lt;b&gt;CXQ82_RS17050&lt;/b&gt;&lt;br&gt;LysR family transcriptional regulator&lt;br&gt;Location: 3765540 - 3764623" locus_tag="CXQ82_RS17050" class="clusterblast-orf" id="dummy-2_h2_6_21"  />
</g>
<g id="a2_0022"  >
<polygon points="501,90 505,85 501,80 501,90 " style="fill:white; stroke-width:1; stroke:black; " description="&lt;b&gt;CXQ82_RS17045&lt;/b&gt;&lt;br&gt;RidA family protein&lt;br&gt;Location: 3764507 - 3764103" locus_tag="CXQ82_RS17045" class="clusterblast-orf" id="dummy-2_h2_6_22"  />
</g>
<g id="a2_0023"  >
<polygon points="507,90 515,90 520,85 515,80 507,80 507,90 " style="fill:white; stroke-width:1; stroke:black; " description="&lt;b&gt;CXQ82_RS17040&lt;/b&gt;&lt;br&gt;saccharopine dehydrogenase NADP-binding domain-containing protein&lt;br&gt;Location: 3763981 - 3762854" locus_tag="CXQ82_RS17040" class="clusterblast-orf" id="dummy-2_h2_6_23"  />
</g>
<g id="a2_0024"  >
<polygon points="520,90 520,90 525,85 520,80 520,80 520,90 " style="fill:white; stroke-width:1; stroke:black; " description="&lt;b&gt;CXQ82_RS17035&lt;/b&gt;&lt;br&gt;DUF2269 domain-containing protein&lt;br&gt;Location: 3762850 - 3762353" locus_tag="CXQ82_RS17035" class="clusterblast-orf" id="dummy-2_h2_6_24"  />
</g>
<g id="a2_0025"  >
<polygon points="525,85 530,80 530,80 530,90 530,90 525,85 " style="fill:white; stroke-width:1; stroke:black; " description="&lt;b&gt;CXQ82_RS17030&lt;/b&gt;&lt;br&gt;DoxX-like family protein&lt;br&gt;Location: 3762348 - 3761980" locus_tag="CXQ82_RS17030" class="clusterblast-orf" id="dummy-2_h2_6_25"  />
</g>
<g id="a2_0026"  >
<polygon points="530,85 535,80 535,80 535,90 535,90 530,85 " style="fill:white; stroke-width:1; stroke:black; " description="&lt;b&gt;CXQ82_RS17025&lt;/b&gt;&lt;br&gt;thiol-disulfide oxidoreductase DCC family protein&lt;br&gt;Location: 3761983 - 3761531" locus_tag="CXQ82_RS17025" class="clusterblast-orf" id="dummy-2_h2_6_26"  />
</g>
<g id="a2_0027"  >
<polygon points="537,90 539,90 544,85 539,80 537,80 537,90 " style="fill:white; stroke-width:1; stroke:black; " description="&lt;b&gt;CXQ82_RS17020&lt;/b&gt;&lt;br&gt;hypothetical protein&lt;br&gt;Location: 3761350 - 3760700" locus_tag="CXQ82_RS17020" class="clusterblast-orf" id="dummy-2_h2_6_27"  />
</g>
<g id="a2_0028"  >
<polygon points="546,90 546,90 551,85 546,80 546,80 546,90 " style="fill:white; stroke-width:1; stroke:black; " description="&lt;b&gt;CXQ82_RS17015&lt;/b&gt;&lt;br&gt;DUF1203 domain-containing protein&lt;br&gt;Location: 3760578 - 3760111" locus_tag="CXQ82_RS17015" class="clusterblast-orf" id="dummy-2_h2_6_28"  />
</g>
<g id="a2_0029"  >
<polygon points="552,85 556,80 556,90 552,85 " style="fill:white; stroke-width:1; stroke:black; " description="&lt;b&gt;CXQ82_RS17010&lt;/b&gt;&lt;br&gt;VOC family protein&lt;br&gt;Location: 3760017 - 3759661" locus_tag="CXQ82_RS17010" class="clusterblast-orf" id="dummy-2_h2_6_29"  />
</g>
</svg>
