<svg xmlns="http://www.w3.org/2000/svg" xmlns:xlink="http://www.w3.org/1999/xlink" version="1.1" x="0" y="0" height="230" width="800" viewBox="0 0 800 230" preserveAspectRatio="none"  >
<g label="Query sequence" class="clusterblast-cluster"  >
<text x="5" y="20" class="clusterblast-acc"  >
Query sequence</text>
<line x1="10" y1="35" x2="778.0" y2="35" style="stroke-width:1; stroke:grey; "  />
<polygon points="196,40 291,40 296,35 291,30 196,30 196,40 " style="fill:#d81515; stroke-width:1; stroke:black; " description="&lt;b&gt;MCIC6FC_016886&lt;/b&gt;&lt;br&gt;hypothetical protein&lt;br&gt;Location: 31 - 6733" locus_tag="MCIC6FC_016886" class="clusterblast-orf" id="dummy-1_q0_0_all"  />
<polygon points="302,35 307,30 319,30 319,40 307,40 302,35 " style="fill:#15d815; stroke-width:1; stroke:black; " description="&lt;b&gt;MCIC6FC_016887&lt;/b&gt;&lt;br&gt;hypothetical protein&lt;br&gt;Location: 7172 - 8310" locus_tag="MCIC6FC_016887" class="clusterblast-orf" id="dummy-1_q1_0_all"  />
<polygon points="321,35 326,30 332,30 332,40 326,40 321,35 " style="fill:#15d815; stroke-width:1; stroke:black; " description="&lt;b&gt;MCIC6FC_016888&lt;/b&gt;&lt;br&gt;hypothetical protein&lt;br&gt;Location: 8475 - 9192" locus_tag="MCIC6FC_016888" class="clusterblast-orf" id="dummy-1_q2_0_all"  />
<polygon points="342,40 447,40 452,35 447,30 342,30 342,40 " style="fill:#1515d8; stroke-width:1; stroke:black; " description="&lt;b&gt;MCIC6FC_016889&lt;/b&gt;&lt;br&gt;hypothetical protein&lt;br&gt;Location: 9882 - 17276" locus_tag="MCIC6FC_016889" class="clusterblast-orf" id="dummy-1_q3_0_all"  />
<polygon points="453,40 456,40 461,35 456,30 453,30 453,40 " style="fill:white; stroke-width:1; stroke:black; " description="&lt;b&gt;MCIC6FC_016890&lt;/b&gt;&lt;br&gt;hypothetical protein&lt;br&gt;Location: 17354 - 17893" locus_tag="MCIC6FC_016890" class="clusterblast-orf" id="dummy-1_q4_0_all"  />
<polygon points="461,35 466,30 492,30 492,40 466,40 461,35 " style="fill:#d815d8; stroke-width:1; stroke:black; " description="&lt;b&gt;MCIC6FC_016891&lt;/b&gt;&lt;br&gt;hypothetical protein&lt;br&gt;Location: 17927 - 19999" locus_tag="MCIC6FC_016891" class="clusterblast-orf" id="dummy-1_q5_0_all"  />
<polygon points="497,40 504,40 509,35 504,30 497,30 497,40 " style="fill:#d8d815; stroke-width:1; stroke:black; " description="&lt;b&gt;MCIC6FC_016892&lt;/b&gt;&lt;br&gt;hypothetical protein&lt;br&gt;Location: 20291 - 21151" locus_tag="MCIC6FC_016892" class="clusterblast-orf" id="dummy-1_q6_0_all"  />
<polygon points="518,40 578,40 583,35 578,30 518,30 518,40 " style="fill:#15d8d8; stroke-width:1; stroke:black; " description="&lt;b&gt;MCIC6FC_016893&lt;/b&gt;&lt;br&gt;hypothetical protein&lt;br&gt;Location: 21717 - 26130" locus_tag="MCIC6FC_016893" class="clusterblast-orf" id="dummy-1_q7_0_all"  />
</g>
<g label="NZ_KK736233" description="NZ_KK736233 (317979-370590): Enterobacter cloacae BWH 43 aedZM-supercont1.1, ... (21% of genes show similarity), NRPS" class="clusterblast-cluster"  >
<text x="5" y="70" class="clusterblast-acc"  >
<a xlink:href="https://antismash-db.secondarymetabolites.org/area.html?record=NZ_KK736233&amp;start=317979&amp;end=370590" target="_blank">NZ_KK736233 (317979-370590)</a>: Enterobacter cloacae BWH 43 aedZM-supercont1.1, ... (21% of genes show similarity), NRPS</text>
<line x1="10" y1="85" x2="778.0" y2="85" style="stroke-width:1; stroke:grey; "  />
</g>
<g id="a1_000"  >
<polygon points="0,85 5,80 9,80 9,90 5,90 0,85 " style="fill:white; stroke-width:1; stroke:black; " description="&lt;b&gt;AE07_RS21460&lt;/b&gt;&lt;br&gt;hypothetical protein&lt;br&gt;Location: 317980 - 318627" locus_tag="AE07_RS21460" class="clusterblast-orf" id="dummy-1_h1_2_0"  />
</g>
<g id="a1_001"  >
<polygon points="9,85 14,80 17,80 17,90 14,90 9,85 " style="fill:white; stroke-width:1; stroke:black; " description="&lt;b&gt;AE07_RS21455&lt;/b&gt;&lt;br&gt;sigma-70 family RNA polymerase sigma factor&lt;br&gt;Location: 318624 - 319178" locus_tag="AE07_RS21455" class="clusterblast-orf" id="dummy-1_h1_2_1"  />
</g>
<g id="a1_002"  >
<polygon points="18,85 23,80 26,80 26,90 23,90 18,85 " style="fill:white; stroke-width:1; stroke:black; " description="&lt;b&gt;AE07_RS21450&lt;/b&gt;&lt;br&gt;fasciclin domain-containing protein&lt;br&gt;Location: 319222 - 319785" locus_tag="AE07_RS21450" class="clusterblast-orf" id="dummy-1_h1_2_2"  />
</g>
<g id="a1_003"  >
<polygon points="28,85 33,80 53,80 53,90 33,90 28,85 " style="fill:white; stroke-width:1; stroke:black; " description="&lt;b&gt;AE07_RS21445&lt;/b&gt;&lt;br&gt;choline dehydrogenase&lt;br&gt;Location: 319929 - 321593" locus_tag="AE07_RS21445" class="clusterblast-orf" id="dummy-1_h1_2_3"  />
</g>
<g id="a1_004"  >
<polygon points="53,85 58,80 75,80 75,90 58,90 53,85 " style="fill:white; stroke-width:1; stroke:black; " description="&lt;b&gt;AE07_RS21440&lt;/b&gt;&lt;br&gt;betaine-aldehyde dehydrogenase&lt;br&gt;Location: 321607 - 323079" locus_tag="AE07_RS21440" class="clusterblast-orf" id="dummy-1_h1_2_4"  />
</g>
<g id="a1_005"  >
<polygon points="75,85 80,80 84,80 84,90 80,90 75,85 " style="fill:white; stroke-width:1; stroke:black; " description="&lt;b&gt;AE07_RS21435&lt;/b&gt;&lt;br&gt;transcriptional regulator BetI&lt;br&gt;Location: 323093 - 323680" locus_tag="AE07_RS21435" class="clusterblast-orf" id="dummy-1_h1_2_5"  />
</g>
<g id="a1_006"  >
<polygon points="86,90 111,90 116,85 111,80 86,80 86,90 " style="fill:white; stroke-width:1; stroke:black; " description="&lt;b&gt;AE07_RS21430&lt;/b&gt;&lt;br&gt;choline BCCT transporter BetT&lt;br&gt;Location: 323809 - 325842" locus_tag="AE07_RS21430" class="clusterblast-orf" id="dummy-1_h1_2_6"  />
</g>
<g id="a1_007"  >
<polygon points="132,90 135,90 140,85 135,80 132,80 132,90 " style="fill:white; stroke-width:1; stroke:black; " description="&lt;b&gt;AE07_RS21420&lt;/b&gt;&lt;br&gt;hypothetical protein&lt;br&gt;Location: 326937 - 327482" locus_tag="AE07_RS21420" class="clusterblast-orf" id="dummy-1_h1_2_7"  />
</g>
<g id="a1_008"  >
<polygon points="142,90 145,90 150,85 145,80 142,80 142,90 " style="fill:white; stroke-width:1; stroke:black; " description="&lt;b&gt;AE07_RS21415&lt;/b&gt;&lt;br&gt;fimbrial protein&lt;br&gt;Location: 327598 - 328152" locus_tag="AE07_RS21415" class="clusterblast-orf" id="dummy-1_h1_2_8"  />
</g>
<g id="a1_009"  >
<polygon points="151,90 156,90 161,85 156,80 151,80 151,90 " style="fill:#1515d8; stroke-width:1; stroke:black; " description="&lt;b&gt;AE07_RS21410&lt;/b&gt;&lt;br&gt;molecular chaperone&lt;br&gt;Location: 328213 - 328890&lt;br&gt;&lt;br&gt;&lt;b&gt;BlastP hit with MCIC6FC_016889&lt;/b&gt;&lt;br&gt;Percentage identity: 34&lt;br&gt;Percentage coverage: 13&lt;br&gt;BLAST bit score: 128&lt;br&gt;E-value: 9.2e-27" locus_tag="AE07_RS21410" class="clusterblast-orf" id="dummy-1_h1_2_9"  />
</g>
<g id="a1_0010"  >
<polygon points="164,90 194,90 199,85 194,80 164,80 164,90 " style="fill:#1515d8; stroke-width:1; stroke:black; " description="&lt;b&gt;AE07_RS21405&lt;/b&gt;&lt;br&gt;fimbrial biogenesis outer membrane usher protein&lt;br&gt;Location: 329063 - 331426&lt;br&gt;&lt;br&gt;&lt;b&gt;BlastP hit with MCIC6FC_016889&lt;/b&gt;&lt;br&gt;Percentage identity: 35&lt;br&gt;Percentage coverage: 47&lt;br&gt;BLAST bit score: 413&lt;br&gt;E-value: 8.4e-113" locus_tag="AE07_RS21405" class="clusterblast-orf" id="dummy-1_h1_2_10"  />
</g>
<g id="a1_0011"  >
<polygon points="200,90 210,90 215,85 210,80 200,80 200,90 " style="fill:white; stroke-width:1; stroke:black; " description="&lt;b&gt;AE07_RS21400&lt;/b&gt;&lt;br&gt;fimbrial protein&lt;br&gt;Location: 331488 - 332483" locus_tag="AE07_RS21400" class="clusterblast-orf" id="dummy-1_h1_2_11"  />
</g>
<g id="a1_0012"  >
<polygon points="215,90 216,85 215,80 215,90 " style="fill:white; stroke-width:1; stroke:black; " description="&lt;b&gt;AE07_RS25365&lt;/b&gt;&lt;br&gt;metal ABC transporter permease&lt;br&gt;Location: 332508 - 332603" locus_tag="AE07_RS25365" class="clusterblast-orf" id="dummy-1_h1_2_12"  />
</g>
<g id="a1_0013"  >
<polygon points="217,85 222,80 227,80 227,90 222,90 217,85 " style="fill:white; stroke-width:1; stroke:black; " description="&lt;b&gt;AE07_RS21395&lt;/b&gt;&lt;br&gt;enterobactin synthase subunit EntD&lt;br&gt;Location: 332628 - 333293" locus_tag="AE07_RS21395" class="clusterblast-orf" id="dummy-1_h1_2_13"  />
</g>
<g id="a1_0014"  >
<polygon points="234,85 239,80 267,80 267,90 239,90 234,85 " style="fill:white; stroke-width:1; stroke:black; " description="&lt;b&gt;AE07_RS21390&lt;/b&gt;&lt;br&gt;TonB-dependent siderophore receptor&lt;br&gt;Location: 333774 - 336023" locus_tag="AE07_RS21390" class="clusterblast-orf" id="dummy-1_h1_2_14"  />
</g>
<g id="a1_0015"  >
<polygon points="269,90 282,90 287,85 282,80 269,80 269,90 " style="fill:white; stroke-width:1; stroke:black; " description="&lt;b&gt;AE07_RS21385&lt;/b&gt;&lt;br&gt;enterochelin esterase&lt;br&gt;Location: 336169 - 337365" locus_tag="AE07_RS21385" class="clusterblast-orf" id="dummy-1_h1_2_15"  />
</g>
<g id="a1_0016"  >
<polygon points="287,90 290,85 287,80 287,90 " style="fill:white; stroke-width:1; stroke:black; " description="&lt;b&gt;AE07_RS21380&lt;/b&gt;&lt;br&gt;MbtH family NRPS accessory protein&lt;br&gt;Location: 337376 - 337588" locus_tag="AE07_RS21380" class="clusterblast-orf" id="dummy-1_h1_2_16"  />
</g>
<g id="a1_0017"  >
<polygon points="290,90 342,90 347,85 342,80 290,80 290,90 " style="fill:#d81515; stroke-width:1; stroke:black; " description="&lt;b&gt;AE07_RS21375&lt;/b&gt;&lt;br&gt;enterobactin non-ribosomal peptide synthetase EntF&lt;br&gt;Location: 337585 - 341442&lt;br&gt;&lt;br&gt;&lt;b&gt;BlastP hit with MCIC6FC_016886&lt;/b&gt;&lt;br&gt;Percentage identity: 62&lt;br&gt;Percentage coverage: 77&lt;br&gt;BLAST bit score: 1455&lt;br&gt;E-value: 0.0" locus_tag="AE07_RS21375" class="clusterblast-orf" id="dummy-1_h1_2_17"  />
</g>
<g id="a1_0018"  >
<polygon points="349,85 354,80 366,80 366,90 354,90 349,85 " style="fill:#15d815; stroke-width:1; stroke:black; " description="&lt;b&gt;AE07_RS21370&lt;/b&gt;&lt;br&gt;IS481 family transposase&lt;br&gt;Location: 341529 - 342683&lt;br&gt;&lt;br&gt;&lt;b&gt;BlastP hit with MCIC6FC_016887&lt;/b&gt;&lt;br&gt;Percentage identity: 76&lt;br&gt;Percentage coverage: 80&lt;br&gt;BLAST bit score: 388&lt;br&gt;E-value: 5.2e-106" locus_tag="AE07_RS21370" class="clusterblast-orf" id="dummy-1_h1_2_18"  />
</g>
<g id="a1_0019"  >
<polygon points="368,85 373,80 380,80 380,90 373,90 368,85 " style="fill:white; stroke-width:1; stroke:black; " description="&lt;b&gt;AE07_RS21365&lt;/b&gt;&lt;br&gt;iron-enterobactin ABC transporter ATP-binding protein&lt;br&gt;Location: 342827 - 343627" locus_tag="AE07_RS21365" class="clusterblast-orf" id="dummy-1_h1_2_19"  />
</g>
<g id="a1_0020"  >
<polygon points="380,85 385,80 394,80 394,90 385,90 380,85 " style="fill:#d815d8; stroke-width:1; stroke:black; " description="&lt;b&gt;AE07_RS21360&lt;/b&gt;&lt;br&gt;iron-enterobactin ABC transporter permease&lt;br&gt;Location: 343624 - 344613&lt;br&gt;&lt;br&gt;&lt;b&gt;BlastP hit with MCIC6FC_016891&lt;/b&gt;&lt;br&gt;Percentage identity: 55&lt;br&gt;Percentage coverage: 55&lt;br&gt;BLAST bit score: 269&lt;br&gt;E-value: 6.2e-70" locus_tag="AE07_RS21360" class="clusterblast-orf" id="dummy-1_h1_2_20"  />
</g>
<g id="a1_0021"  >
<polygon points="394,85 399,80 409,80 409,90 399,90 394,85 " style="fill:#d815d8; stroke-width:1; stroke:black; " description="&lt;b&gt;AE07_RS21355&lt;/b&gt;&lt;br&gt;Fe(3+)-siderophore ABC transporter permease&lt;br&gt;Location: 344613 - 345617&lt;br&gt;&lt;br&gt;&lt;b&gt;BlastP hit with MCIC6FC_016891&lt;/b&gt;&lt;br&gt;Percentage identity: 61&lt;br&gt;Percentage coverage: 61&lt;br&gt;BLAST bit score: 319&lt;br&gt;E-value: 5.3e-85" locus_tag="AE07_RS21355" class="clusterblast-orf" id="dummy-1_h1_2_21"  />
</g>
<g id="a1_0022"  >
<polygon points="411,90 424,90 429,85 424,80 411,80 411,90 " style="fill:#d8d815; stroke-width:1; stroke:black; " description="&lt;b&gt;AE07_RS21350&lt;/b&gt;&lt;br&gt;enterobactin transporter EntS&lt;br&gt;Location: 345726 - 346961&lt;br&gt;&lt;br&gt;&lt;b&gt;BlastP hit with MCIC6FC_016892&lt;/b&gt;&lt;br&gt;Percentage identity: 48&lt;br&gt;Percentage coverage: 128&lt;br&gt;BLAST bit score: 150&lt;br&gt;E-value: 1.8e-34" locus_tag="AE07_RS21350" class="clusterblast-orf" id="dummy-1_h1_2_22"  />
</g>
<g id="a1_0023"  >
<polygon points="430,85 435,80 445,80 445,90 435,90 430,85 " style="fill:white; stroke-width:1; stroke:black; " description="&lt;b&gt;AE07_RS21345&lt;/b&gt;&lt;br&gt;Fe2+-enterobactin ABC transporter substrate-binding protein&lt;br&gt;Location: 347045 - 348004" locus_tag="AE07_RS21345" class="clusterblast-orf" id="dummy-1_h1_2_23"  />
</g>
<g id="a1_0024"  >
<polygon points="447,90 460,90 465,85 460,80 447,80 447,90 " style="fill:#15d8d8; stroke-width:1; stroke:black; " description="&lt;b&gt;AE07_RS21340&lt;/b&gt;&lt;br&gt;isochorismate synthase EntC&lt;br&gt;Location: 348191 - 349366&lt;br&gt;&lt;br&gt;&lt;b&gt;BlastP hit with MCIC6FC_016893&lt;/b&gt;&lt;br&gt;Percentage identity: 59&lt;br&gt;Percentage coverage: 31&lt;br&gt;BLAST bit score: 393&lt;br&gt;E-value: 1.1e-106" locus_tag="AE07_RS21340" class="clusterblast-orf" id="dummy-1_h1_2_24"  />
</g>
<g id="a1_0025"  >
<polygon points="465,90 484,90 489,85 484,80 465,80 465,90 " style="fill:#15d8d8; stroke-width:1; stroke:black; " description="&lt;b&gt;AE07_RS21335&lt;/b&gt;&lt;br&gt;(2,3-dihydroxybenzoyl)adenylate synthase&lt;br&gt;Location: 349376 - 350986&lt;br&gt;&lt;br&gt;&lt;b&gt;BlastP hit with MCIC6FC_016893&lt;/b&gt;&lt;br&gt;Percentage identity: 73&lt;br&gt;Percentage coverage: 45&lt;br&gt;BLAST bit score: 739&lt;br&gt;E-value: 6.2e-211" locus_tag="AE07_RS21335" class="clusterblast-orf" id="dummy-1_h1_2_25"  />
</g>
<g id="a1_0026"  >
<polygon points="489,90 497,90 502,85 497,80 489,80 489,90 " style="fill:#15d8d8; stroke-width:1; stroke:black; " description="&lt;b&gt;AE07_RS21330&lt;/b&gt;&lt;br&gt;isochorismatase&lt;br&gt;Location: 350997 - 351851&lt;br&gt;&lt;br&gt;&lt;b&gt;BlastP hit with MCIC6FC_016893&lt;/b&gt;&lt;br&gt;Percentage identity: 77&lt;br&gt;Percentage coverage: 20&lt;br&gt;BLAST bit score: 352&lt;br&gt;E-value: 2.1e-94" locus_tag="AE07_RS21330" class="clusterblast-orf" id="dummy-1_h1_2_26"  />
</g>
<g id="a1_0027"  >
<polygon points="502,90 508,90 513,85 508,80 502,80 502,90 " style="fill:white; stroke-width:1; stroke:black; " description="&lt;b&gt;AE07_RS21325&lt;/b&gt;&lt;br&gt;2,3-dihydro-2,3-dihydroxybenzoate dehydrogenase&lt;br&gt;Location: 351848 - 352603" locus_tag="AE07_RS21325" class="clusterblast-orf" id="dummy-1_h1_2_27"  />
</g>
<g id="a1_0028"  >
<polygon points="513,90 514,90 519,85 514,80 513,80 513,90 " style="fill:white; stroke-width:1; stroke:black; " description="&lt;b&gt;AE07_RS21320&lt;/b&gt;&lt;br&gt;proofreading thioesterase EntH&lt;br&gt;Location: 352604 - 353017" locus_tag="AE07_RS21320" class="clusterblast-orf" id="dummy-1_h1_2_28"  />
</g>
<g id="a1_0029"  >
<polygon points="520,85 525,80 537,80 537,90 525,90 520,85 " style="fill:white; stroke-width:1; stroke:black; " description="&lt;b&gt;AE07_RS21315&lt;/b&gt;&lt;br&gt;M20 family metallopeptidase&lt;br&gt;Location: 353108 - 354220" locus_tag="AE07_RS21315" class="clusterblast-orf" id="dummy-1_h1_2_29"  />
</g>
<g id="a1_0030"  >
<polygon points="537,85 542,80 544,80 544,90 542,90 537,85 " style="fill:white; stroke-width:1; stroke:black; " description="&lt;b&gt;AE07_RS21310&lt;/b&gt;&lt;br&gt;hypothetical protein&lt;br&gt;Location: 354234 - 354698" locus_tag="AE07_RS21310" class="clusterblast-orf" id="dummy-1_h1_2_30"  />
</g>
<g id="a1_0031"  >
<polygon points="544,85 549,80 554,80 554,90 549,90 544,85 " style="fill:white; stroke-width:1; stroke:black; " description="&lt;b&gt;AE07_RS21305&lt;/b&gt;&lt;br&gt;membrane protein&lt;br&gt;Location: 354695 - 355408" locus_tag="AE07_RS21305" class="clusterblast-orf" id="dummy-1_h1_2_31"  />
</g>
<g id="a1_0032"  >
<polygon points="559,90 585,90 590,85 585,80 559,80 559,90 " style="fill:white; stroke-width:1; stroke:black; " description="&lt;b&gt;AE07_RS21300&lt;/b&gt;&lt;br&gt;carbon starvation protein CstA&lt;br&gt;Location: 355688 - 357793" locus_tag="AE07_RS21300" class="clusterblast-orf" id="dummy-1_h1_2_32"  />
</g>
<g id="a1_0033"  >
<polygon points="592,90 594,85 592,80 592,90 " style="fill:white; stroke-width:1; stroke:black; " description="&lt;b&gt;AE07_RS21295&lt;/b&gt;&lt;br&gt;YbdD/YjiX family protein&lt;br&gt;Location: 357912 - 358109" locus_tag="AE07_RS21295" class="clusterblast-orf" id="dummy-1_h1_2_33"  />
</g>
<g id="a1_0034"  >
<polygon points="594,85 599,80 600,80 600,90 599,90 594,85 " style="fill:white; stroke-width:1; stroke:black; " description="&lt;b&gt;AE07_RS21290&lt;/b&gt;&lt;br&gt;helix-turn-helix transcriptional regulator&lt;br&gt;Location: 358106 - 358510" locus_tag="AE07_RS21290" class="clusterblast-orf" id="dummy-1_h1_2_34"  />
</g>
<g id="a1_0035"  >
<polygon points="600,85 605,80 605,80 605,90 605,90 600,85 " style="fill:white; stroke-width:1; stroke:black; " description="&lt;b&gt;AE07_RS21285&lt;/b&gt;&lt;br&gt;type II toxin-antitoxin system RelE/ParE family toxin&lt;br&gt;Location: 358482 - 358787" locus_tag="AE07_RS21285" class="clusterblast-orf" id="dummy-1_h1_2_35"  />
</g>
<g id="a1_0036"  >
<polygon points="607,85 612,80 618,80 618,90 612,90 607,85 " style="fill:white; stroke-width:1; stroke:black; " description="&lt;b&gt;AE07_RS21280&lt;/b&gt;&lt;br&gt;3-oxoacyl-ACP reductase FabG&lt;br&gt;Location: 358971 - 359714" locus_tag="AE07_RS21280" class="clusterblast-orf" id="dummy-1_h1_2_36"  />
</g>
<g id="a1_0037"  >
<polygon points="619,85 624,80 635,80 635,90 624,90 619,85 " style="fill:white; stroke-width:1; stroke:black; " description="&lt;b&gt;AE07_RS21275&lt;/b&gt;&lt;br&gt;oxidoreductase&lt;br&gt;Location: 359771 - 360859" locus_tag="AE07_RS21275" class="clusterblast-orf" id="dummy-1_h1_2_37"  />
</g>
<g id="a1_0038"  >
<polygon points="638,90 655,90 660,85 655,80 638,80 638,90 " style="fill:white; stroke-width:1; stroke:black; " description="&lt;b&gt;AE07_RS21270&lt;/b&gt;&lt;br&gt;sugar ABC transporter ATP-binding protein&lt;br&gt;Location: 361018 - 362520" locus_tag="AE07_RS21270" class="clusterblast-orf" id="dummy-1_h1_2_38"  />
</g>
<g id="a1_0039"  >
<polygon points="660,90 670,90 675,85 670,80 660,80 660,90 " style="fill:white; stroke-width:1; stroke:black; " description="&lt;b&gt;AE07_RS21265&lt;/b&gt;&lt;br&gt;ABC transporter permease&lt;br&gt;Location: 362517 - 363512" locus_tag="AE07_RS21265" class="clusterblast-orf" id="dummy-1_h1_2_39"  />
</g>
<g id="a1_0040"  >
<polygon points="675,90 686,90 691,85 686,80 675,80 675,90 " style="fill:white; stroke-width:1; stroke:black; " description="&lt;b&gt;AE07_RS21260&lt;/b&gt;&lt;br&gt;sugar ABC transporter substrate-binding protein&lt;br&gt;Location: 363533 - 364597" locus_tag="AE07_RS21260" class="clusterblast-orf" id="dummy-1_h1_2_40"  />
</g>
<g id="a1_0041"  >
<polygon points="692,90 705,90 710,85 705,80 692,80 692,90 " style="fill:white; stroke-width:1; stroke:black; " description="&lt;b&gt;AE07_RS21255&lt;/b&gt;&lt;br&gt;hypothetical protein&lt;br&gt;Location: 364681 - 365922" locus_tag="AE07_RS21255" class="clusterblast-orf" id="dummy-1_h1_2_41"  />
</g>
<g id="a1_0042"  >
<polygon points="711,85 716,80 729,80 729,90 716,90 711,85 " style="fill:white; stroke-width:1; stroke:black; " description="&lt;b&gt;AE07_RS21250&lt;/b&gt;&lt;br&gt;S-methyl-5-thioribose kinase&lt;br&gt;Location: 365985 - 367184" locus_tag="AE07_RS21250" class="clusterblast-orf" id="dummy-1_h1_2_42"  />
</g>
<g id="a1_0043"  >
<polygon points="731,90 741,90 746,85 741,80 731,80 731,90 " style="fill:white; stroke-width:1; stroke:black; " description="&lt;b&gt;AE07_RS21245&lt;/b&gt;&lt;br&gt;S-methyl-5-thioribose-1-phosphate isomerase&lt;br&gt;Location: 367289 - 368305" locus_tag="AE07_RS21245" class="clusterblast-orf" id="dummy-1_h1_2_43"  />
</g>
<g id="a1_0044"  >
<polygon points="746,90 748,90 753,85 748,80 746,80 746,90 " style="fill:white; stroke-width:1; stroke:black; " description="&lt;b&gt;AE07_RS21240&lt;/b&gt;&lt;br&gt;SRPBCC family protein&lt;br&gt;Location: 368348 - 368818" locus_tag="AE07_RS21240" class="clusterblast-orf" id="dummy-1_h1_2_44"  />
</g>
<g id="a1_0045"  >
<polygon points="757,90 765,90 770,85 765,80 757,80 757,90 " style="fill:white; stroke-width:1; stroke:black; " description="&lt;b&gt;AE07_RS21235&lt;/b&gt;&lt;br&gt;IS110 family transposase&lt;br&gt;Location: 369044 - 369979" locus_tag="AE07_RS21235" class="clusterblast-orf" id="dummy-1_h1_2_45"  />
</g>
<g id="a1_0046"  >
<polygon points="771,85 776,80 780,80 780,90 776,90 771,85 " style="fill:white; stroke-width:1; stroke:black; " description="&lt;b&gt;AE07_RS21230&lt;/b&gt;&lt;br&gt;acireductone dioxygenase&lt;br&gt;Location: 370048 - 370590" locus_tag="AE07_RS21230" class="clusterblast-orf" id="dummy-1_h1_2_46"  />
</g>
</svg>
