<svg xmlns="http://www.w3.org/2000/svg" xmlns:xlink="http://www.w3.org/1999/xlink" version="1.1" x="0" y="0" height="230" width="800" viewBox="0 0 800 230" preserveAspectRatio="none"  >
<g label="Query sequence" class="clusterblast-cluster"  >
<text x="5" y="20" class="clusterblast-acc"  >
Query sequence</text>
<line x1="10" y1="35" x2="778.0" y2="35" style="stroke-width:1; stroke:grey; "  />
<polygon points="0,35 5,30 50,30 50,40 5,40 0,35 " style="fill:#d81515; stroke-width:1; stroke:black; " description="&lt;b&gt;MCIC6FC_005518&lt;/b&gt;&lt;br&gt;hypothetical protein&lt;br&gt;Location: 1298529 - 1302286" locus_tag="MCIC6FC_005518" class="clusterblast-orf" id="dummy-1_q0_0_all"  />
<polygon points="51,35 56,30 82,30 82,40 56,40 51,35 " style="fill:#43d815; stroke-width:1; stroke:black; " description="&lt;b&gt;MCIC6FC_005519&lt;/b&gt;&lt;br&gt;hypothetical protein&lt;br&gt;Location: 1302344 - 1304702" locus_tag="MCIC6FC_005519" class="clusterblast-orf" id="dummy-1_q1_0_all"  />
<polygon points="83,35 88,30 104,30 104,40 88,40 83,35 " style="fill:#15b6d8; stroke-width:1; stroke:black; " description="&lt;b&gt;MCIC6FC_005520&lt;/b&gt;&lt;br&gt;hypothetical protein&lt;br&gt;Location: 1304784 - 1306371" locus_tag="MCIC6FC_005520" class="clusterblast-orf" id="dummy-1_q2_0_all"  />
<polygon points="106,40 113,40 118,35 113,30 106,30 106,40 " style="fill:#8815d8; stroke-width:1; stroke:black; " description="&lt;b&gt;MCIC6FC_005521&lt;/b&gt;&lt;br&gt;hypothetical protein&lt;br&gt;Location: 1306486 - 1307383" locus_tag="MCIC6FC_005521" class="clusterblast-orf" id="dummy-1_q3_0_all"  />
<polygon points="119,35 124,30 169,30 169,40 124,40 119,35 " style="fill:#43d815; stroke-width:1; stroke:black; " description="&lt;b&gt;MCIC6FC_005522&lt;/b&gt;&lt;br&gt;hypothetical protein&lt;br&gt;Location: 1307427 - 1311171" locus_tag="MCIC6FC_005522" class="clusterblast-orf" id="dummy-1_q4_0_all"  />
<polygon points="171,40 188,40 193,35 188,30 171,30 171,40 " style="fill:white; stroke-width:1; stroke:black; " description="&lt;b&gt;MCIC6FC_005523&lt;/b&gt;&lt;br&gt;hypothetical protein&lt;br&gt;Location: 1311357 - 1313024" locus_tag="MCIC6FC_005523" class="clusterblast-orf" id="dummy-1_q5_0_all"  />
<polygon points="193,35 198,30 204,30 204,40 198,40 193,35 " style="fill:#d85a15; stroke-width:1; stroke:black; " description="&lt;b&gt;MCIC6FC_005524&lt;/b&gt;&lt;br&gt;hypothetical protein&lt;br&gt;Location: 1313032 - 1313826" locus_tag="MCIC6FC_005524" class="clusterblast-orf" id="dummy-1_q6_0_all"  />
<polygon points="206,40 214,40 219,35 214,30 206,30 206,40 " style="fill:#15d82c; stroke-width:1; stroke:black; " description="&lt;b&gt;MCIC6FC_005525&lt;/b&gt;&lt;br&gt;hypothetical protein&lt;br&gt;Location: 1314007 - 1314949" locus_tag="MCIC6FC_005525" class="clusterblast-orf" id="dummy-1_q7_0_all"  />
<polygon points="220,35 225,30 252,30 252,40 225,40 220,35 " style="fill:#1571d8; stroke-width:1; stroke:black; " description="&lt;b&gt;MCIC6FC_005526&lt;/b&gt;&lt;br&gt;hypothetical protein&lt;br&gt;Location: 1315026 - 1317409" locus_tag="MCIC6FC_005526" class="clusterblast-orf" id="dummy-1_q8_0_all"  />
<polygon points="252,35 257,30 465,30 465,40 257,40 252,35 " style="fill:#cd15d8; stroke-width:1; stroke:black; " description="&lt;b&gt;MCIC6FC_005527&lt;/b&gt;&lt;br&gt;hypothetical protein&lt;br&gt;Location: 1317432 - 1333368" locus_tag="MCIC6FC_005527" class="clusterblast-orf" id="dummy-1_q9_0_all"  />
<polygon points="470,40 578,40 583,35 578,30 470,30 470,40 " style="fill:#d89f15; stroke-width:1; stroke:black; " description="&lt;b&gt;MCIC6FC_005528&lt;/b&gt;&lt;br&gt;hypothetical protein&lt;br&gt;Location: 1333744 - 1342183" locus_tag="MCIC6FC_005528" class="clusterblast-orf" id="dummy-1_q10_0_all"  />
<polygon points="584,35 589,30 611,30 611,40 589,40 584,35 " style="fill:#15d871; stroke-width:1; stroke:black; " description="&lt;b&gt;MCIC6FC_005529&lt;/b&gt;&lt;br&gt;hypothetical protein&lt;br&gt;Location: 1342244 - 1344267" locus_tag="MCIC6FC_005529" class="clusterblast-orf" id="dummy-1_q11_0_all"  />
<polygon points="611,35 616,30 663,30 663,40 616,40 611,35 " style="fill:#152cd8; stroke-width:1; stroke:black; " description="&lt;b&gt;MCIC6FC_005530&lt;/b&gt;&lt;br&gt;hypothetical protein&lt;br&gt;Location: 1344300 - 1348194" locus_tag="MCIC6FC_005530" class="clusterblast-orf" id="dummy-1_q12_0_all"  />
<polygon points="665,40 672,40 677,35 672,30 665,30 665,40 " style="fill:#d8159f; stroke-width:1; stroke:black; " description="&lt;b&gt;MCIC6FC_005531&lt;/b&gt;&lt;br&gt;hypothetical protein&lt;br&gt;Location: 1348300 - 1349215" locus_tag="MCIC6FC_005531" class="clusterblast-orf" id="dummy-1_q13_0_all"  />
<polygon points="684,40 713,40 718,35 713,30 684,30 684,40 " style="fill:#cdd815; stroke-width:1; stroke:black; " description="&lt;b&gt;MCIC6FC_005532&lt;/b&gt;&lt;br&gt;hypothetical protein&lt;br&gt;Location: 1349750 - 1352277" locus_tag="MCIC6FC_005532" class="clusterblast-orf" id="dummy-1_q14_0_all"  />
<polygon points="719,35 724,30 725,30 725,40 724,40 719,35 " style="fill:#15d8b6; stroke-width:1; stroke:black; " description="&lt;b&gt;MCIC6FC_005533&lt;/b&gt;&lt;br&gt;hypothetical protein&lt;br&gt;Location: 1352358 - 1352829" locus_tag="MCIC6FC_005533" class="clusterblast-orf" id="dummy-1_q15_0_all"  />
<polygon points="727,40 738,40 743,35 738,30 727,30 727,40 " style="fill:#4315d8; stroke-width:1; stroke:black; " description="&lt;b&gt;MCIC6FC_005534&lt;/b&gt;&lt;br&gt;hypothetical protein&lt;br&gt;Location: 1352953 - 1354174" locus_tag="MCIC6FC_005534" class="clusterblast-orf" id="dummy-1_q16_0_all"  />
<polygon points="745,40 757,40 762,35 757,30 745,30 745,40 " style="fill:#d8155a; stroke-width:1; stroke:black; " description="&lt;b&gt;MCIC6FC_005535&lt;/b&gt;&lt;br&gt;hypothetical protein&lt;br&gt;Location: 1354294 - 1355562" locus_tag="MCIC6FC_005535" class="clusterblast-orf" id="dummy-1_q17_0_all"  />
<polygon points="772,40 775,40 780,35 775,30 772,30 772,40 " style="fill:#88d815; stroke-width:1; stroke:black; " description="&lt;b&gt;MCIC6FC_005536&lt;/b&gt;&lt;br&gt;hypothetical protein&lt;br&gt;Location: 1356350 - 1356911" locus_tag="MCIC6FC_005536" class="clusterblast-orf" id="dummy-1_q18_0_all"  />
</g>
<g label="NZ_MOAT01000017" description="NZ_MOAT01000017 (871414-925463): Pseudomonas protegens strain 1C5 1C5 Joined ... (82% of genes show similarity), NRPS" class="clusterblast-cluster"  >
<text x="5" y="70" class="clusterblast-acc"  >
<a xlink:href="https://antismash-db.secondarymetabolites.org/area.html?record=NZ_MOAT01000017&amp;start=871414&amp;end=925463" target="_blank">NZ_MOAT01000017 (871414-925463)</a>: Pseudomonas protegens strain 1C5 1C5 Joined ... (82% of genes show similarity), NRPS</text>
<line x1="10" y1="85" x2="778.0" y2="85" style="stroke-width:1; stroke:grey; "  />
</g>
<g id="a1_000"  >
<polygon points="34,85 39,80 46,80 46,90 39,90 34,85 " style="fill:#43d815; stroke-width:1; stroke:black; " description="&lt;b&gt;BK643_RS30030&lt;/b&gt;&lt;br&gt;2-dehydropantoate 2-reductase&lt;br&gt;Location: 871815 - 872738&lt;br&gt;&lt;br&gt;&lt;b&gt;BlastP hit with MCIC6FC_005519&lt;/b&gt;&lt;br&gt;Percentage identity: 93&lt;br&gt;Percentage coverage: 40&lt;br&gt;BLAST bit score: 554&lt;br&gt;E-value: 1.8e-155" locus_tag="BK643_RS30030" class="clusterblast-orf" id="dummy-1_h1_8_0"  />
</g>
<g id="a1_001"  >
<polygon points="47,85 52,80 66,80 66,90 52,90 47,85 " style="fill:#43d815; stroke-width:1; stroke:black; " description="&lt;b&gt;BK643_RS30035&lt;/b&gt;&lt;br&gt;MFS transporter&lt;br&gt;Location: 872782 - 874173&lt;br&gt;&lt;br&gt;&lt;b&gt;BlastP hit with MCIC6FC_005519&lt;/b&gt;&lt;br&gt;Percentage identity: 95&lt;br&gt;Percentage coverage: 60&lt;br&gt;BLAST bit score: 837&lt;br&gt;E-value: 1.4e-240" locus_tag="BK643_RS30035" class="clusterblast-orf" id="dummy-1_h1_8_1"  />
</g>
<g id="a1_002"  >
<polygon points="67,85 72,80 88,80 88,90 72,90 67,85 " style="fill:#15b6d8; stroke-width:1; stroke:black; " description="&lt;b&gt;BK643_RS30040&lt;/b&gt;&lt;br&gt;benzoylformate decarboxylase&lt;br&gt;Location: 874255 - 875841&lt;br&gt;&lt;br&gt;&lt;b&gt;BlastP hit with MCIC6FC_005520&lt;/b&gt;&lt;br&gt;Percentage identity: 98&lt;br&gt;Percentage coverage: 100&lt;br&gt;BLAST bit score: 1044&lt;br&gt;E-value: 4e-303" locus_tag="BK643_RS30040" class="clusterblast-orf" id="dummy-1_h1_8_2"  />
</g>
<g id="a1_003"  >
<polygon points="89,90 96,90 101,85 96,80 89,80 89,90 " style="fill:#8815d8; stroke-width:1; stroke:black; " description="&lt;b&gt;BK643_RS30045&lt;/b&gt;&lt;br&gt;LysR family transcriptional regulator&lt;br&gt;Location: 875957 - 876853&lt;br&gt;&lt;br&gt;&lt;b&gt;BlastP hit with MCIC6FC_005521&lt;/b&gt;&lt;br&gt;Percentage identity: 97&lt;br&gt;Percentage coverage: 100&lt;br&gt;BLAST bit score: 569&lt;br&gt;E-value: 2.1e-160" locus_tag="BK643_RS30045" class="clusterblast-orf" id="dummy-1_h1_8_3"  />
</g>
<g id="a1_004"  >
<polygon points="103,90 106,90 111,85 106,80 103,80 103,90 " style="fill:white; stroke-width:1; stroke:black; " description="&lt;b&gt;BK643_RS30050&lt;/b&gt;&lt;br&gt;hypothetical protein&lt;br&gt;Location: 876963 - 877544" locus_tag="BK643_RS30050" class="clusterblast-orf" id="dummy-1_h1_8_4"  />
</g>
<g id="a1_005"  >
<polygon points="111,85 116,80 129,80 129,90 116,90 111,85 " style="fill:#43d815; stroke-width:1; stroke:black; " description="&lt;b&gt;BK643_RS30055&lt;/b&gt;&lt;br&gt;MFS transporter&lt;br&gt;Location: 877541 - 878887&lt;br&gt;&lt;br&gt;&lt;b&gt;BlastP hit with MCIC6FC_005519&lt;/b&gt;&lt;br&gt;Percentage identity: 32&lt;br&gt;Percentage coverage: 56&lt;br&gt;BLAST bit score: 176&lt;br&gt;E-value: 7.9e-42&lt;br&gt;&lt;br&gt;&lt;b&gt;BlastP hit with MCIC6FC_005522&lt;/b&gt;&lt;br&gt;Percentage identity: 81&lt;br&gt;Percentage coverage: 41&lt;br&gt;BLAST bit score: 633&lt;br&gt;E-value: 3.3e-179" locus_tag="BK643_RS30055" class="clusterblast-orf" id="dummy-1_h1_8_5"  />
</g>
<g id="a1_006"  >
<polygon points="135,85 140,80 148,80 148,90 140,90 135,85 " style="fill:#43d815; stroke-width:1; stroke:black; " description="&lt;b&gt;BK643_RS30060&lt;/b&gt;&lt;br&gt;NAD(P)-dependent alcohol dehydrogenase&lt;br&gt;Location: 879344 - 880351&lt;br&gt;&lt;br&gt;&lt;b&gt;BlastP hit with MCIC6FC_005522&lt;/b&gt;&lt;br&gt;Percentage identity: 97&lt;br&gt;Percentage coverage: 30&lt;br&gt;BLAST bit score: 631&lt;br&gt;E-value: 1.6e-178" locus_tag="BK643_RS30060" class="clusterblast-orf" id="dummy-1_h1_8_6"  />
</g>
<g id="a1_007"  >
<polygon points="151,85 156,80 164,80 164,90 156,90 151,85 " style="fill:#d85a15; stroke-width:1; stroke:black; " description="&lt;b&gt;BK643_RS30065&lt;/b&gt;&lt;br&gt;bifunctional helix-turn-helix transcriptional regulator/GNAT family N-acetyltransferase&lt;br&gt;Location: 880568 - 881539&lt;br&gt;&lt;br&gt;&lt;b&gt;BlastP hit with MCIC6FC_005524&lt;/b&gt;&lt;br&gt;Percentage identity: 52&lt;br&gt;Percentage coverage: 127&lt;br&gt;BLAST bit score: 294&lt;br&gt;E-value: 1.1e-77" locus_tag="BK643_RS30065" class="clusterblast-orf" id="dummy-1_h1_8_7"  />
</g>
<g id="a1_008"  >
<polygon points="166,90 168,90 173,85 168,80 166,80 166,90 " style="fill:white; stroke-width:1; stroke:black; " description="&lt;b&gt;BK643_RS30070&lt;/b&gt;&lt;br&gt;sigma-70 family RNA polymerase sigma factor&lt;br&gt;Location: 881721 - 882230" locus_tag="BK643_RS30070" class="clusterblast-orf" id="dummy-1_h1_8_8"  />
</g>
<g id="a1_009"  >
<polygon points="173,90 181,90 186,85 181,80 173,80 173,90 " style="fill:white; stroke-width:1; stroke:black; " description="&lt;b&gt;BK643_RS30075&lt;/b&gt;&lt;br&gt;DUF4880 domain-containing protein&lt;br&gt;Location: 882227 - 883210" locus_tag="BK643_RS30075" class="clusterblast-orf" id="dummy-1_h1_8_9"  />
</g>
<g id="a1_0010"  >
<polygon points="188,90 215,90 220,85 215,80 188,80 188,90 " style="fill:white; stroke-width:1; stroke:black; " description="&lt;b&gt;BK643_RS30080&lt;/b&gt;&lt;br&gt;TonB-dependent siderophore receptor&lt;br&gt;Location: 883327 - 885747" locus_tag="BK643_RS30080" class="clusterblast-orf" id="dummy-1_h1_8_10"  />
</g>
<g id="a1_0011"  >
<polygon points="223,90 230,90 235,85 230,80 223,80 223,90 " style="fill:#15d82c; stroke-width:1; stroke:black; " description="&lt;b&gt;BK643_RS30085&lt;/b&gt;&lt;br&gt;alpha/beta hydrolase&lt;br&gt;Location: 885918 - 886859&lt;br&gt;&lt;br&gt;&lt;b&gt;BlastP hit with MCIC6FC_005525&lt;/b&gt;&lt;br&gt;Percentage identity: 91&lt;br&gt;Percentage coverage: 100&lt;br&gt;BLAST bit score: 581&lt;br&gt;E-value: 5.7e-164" locus_tag="BK643_RS30085" class="clusterblast-orf" id="dummy-1_h1_8_11"  />
</g>
<g id="a1_0012"  >
<polygon points="236,85 241,80 242,80 242,90 241,90 236,85 " style="fill:#1571d8; stroke-width:1; stroke:black; " description="&lt;b&gt;BK643_RS30090&lt;/b&gt;&lt;br&gt;hypothetical protein&lt;br&gt;Location: 886936 - 887406&lt;br&gt;&lt;br&gt;&lt;b&gt;BlastP hit with MCIC6FC_005526&lt;/b&gt;&lt;br&gt;Percentage identity: 79&lt;br&gt;Percentage coverage: 21&lt;br&gt;BLAST bit score: 217&lt;br&gt;E-value: 5.2e-54" locus_tag="BK643_RS30090" class="clusterblast-orf" id="dummy-1_h1_8_12"  />
</g>
<g id="a1_0013"  >
<polygon points="247,85 252,80 266,80 266,90 252,90 247,85 " style="fill:#1571d8; stroke-width:1; stroke:black; " description="&lt;b&gt;BK643_RS30095&lt;/b&gt;&lt;br&gt;isochorismate synthase&lt;br&gt;Location: 887763 - 889187&lt;br&gt;&lt;br&gt;&lt;b&gt;BlastP hit with MCIC6FC_005526&lt;/b&gt;&lt;br&gt;Percentage identity: 96&lt;br&gt;Percentage coverage: 62&lt;br&gt;BLAST bit score: 904&lt;br&gt;E-value: 7e-261" locus_tag="BK643_RS30095" class="clusterblast-orf" id="dummy-1_h1_8_13"  />
</g>
<g id="a1_0014"  >
<polygon points="266,85 270,80 270,90 266,85 " style="fill:#1571d8; stroke-width:1; stroke:black; " description="&lt;b&gt;BK643_RS30100&lt;/b&gt;&lt;br&gt;isochorismate lyase&lt;br&gt;Location: 889180 - 889503&lt;br&gt;&lt;br&gt;&lt;b&gt;BlastP hit with MCIC6FC_005526&lt;/b&gt;&lt;br&gt;Percentage identity: 96&lt;br&gt;Percentage coverage: 12&lt;br&gt;BLAST bit score: 178&lt;br&gt;E-value: 3.5e-42" locus_tag="BK643_RS30100" class="clusterblast-orf" id="dummy-1_h1_8_14"  />
</g>
<g id="a1_0015"  >
<polygon points="271,85 276,80 281,80 281,90 276,90 271,85 " style="fill:white; stroke-width:1; stroke:black; " description="&lt;b&gt;BK643_RS30105&lt;/b&gt;&lt;br&gt;thioesterase&lt;br&gt;Location: 889527 - 890306" locus_tag="BK643_RS30105" class="clusterblast-orf" id="dummy-1_h1_8_15"  />
</g>
<g id="a1_0016"  >
<polygon points="281,85 286,80 296,80 296,90 286,90 281,85 " style="fill:white; stroke-width:1; stroke:black; " description="&lt;b&gt;BK643_RS30110&lt;/b&gt;&lt;br&gt;saccharopine dehydrogenase NADP-binding domain-containing protein&lt;br&gt;Location: 890303 - 891403" locus_tag="BK643_RS30110" class="clusterblast-orf" id="dummy-1_h1_8_16"  />
</g>
<g id="a1_0017"  >
<polygon points="296,85 301,80 368,80 368,90 301,90 296,85 " style="fill:#cd15d8; stroke-width:1; stroke:black; " description="&lt;b&gt;BK643_RS30115&lt;/b&gt;&lt;br&gt;amino acid adenylation domain-containing protein&lt;br&gt;Location: 891415 - 896838&lt;br&gt;&lt;br&gt;&lt;b&gt;BlastP hit with MCIC6FC_005527&lt;/b&gt;&lt;br&gt;Percentage identity: 91&lt;br&gt;Percentage coverage: 35&lt;br&gt;BLAST bit score: 3178&lt;br&gt;E-value: 0.0" locus_tag="BK643_RS30115" class="clusterblast-orf" id="dummy-1_h1_8_17"  />
</g>
<g id="a1_0018"  >
<polygon points="368,85 373,80 415,80 415,90 373,90 368,85 " style="fill:#cd15d8; stroke-width:1; stroke:black; " description="&lt;b&gt;BK643_RS30120&lt;/b&gt;&lt;br&gt;amino acid adenylation domain-containing protein&lt;br&gt;Location: 896835 - 900305&lt;br&gt;&lt;br&gt;&lt;b&gt;BlastP hit with MCIC6FC_005527&lt;/b&gt;&lt;br&gt;Percentage identity: 88&lt;br&gt;Percentage coverage: 23&lt;br&gt;BLAST bit score: 1977&lt;br&gt;E-value: 0.0" locus_tag="BK643_RS30120" class="clusterblast-orf" id="dummy-1_h1_8_18"  />
</g>
<g id="a1_0019"  >
<polygon points="415,85 420,80 438,80 438,90 420,90 415,85 " style="fill:#cd15d8; stroke-width:1; stroke:black; " description="&lt;b&gt;BK643_RS30125&lt;/b&gt;&lt;br&gt;ABC transporter ATP-binding protein&lt;br&gt;Location: 900295 - 902061&lt;br&gt;&lt;br&gt;&lt;b&gt;BlastP hit with MCIC6FC_005527&lt;/b&gt;&lt;br&gt;Percentage identity: 94&lt;br&gt;Percentage coverage: 11&lt;br&gt;BLAST bit score: 944&lt;br&gt;E-value: 4.1e-272" locus_tag="BK643_RS30125" class="clusterblast-orf" id="dummy-1_h1_8_19"  />
</g>
<g id="a1_0020"  >
<polygon points="438,85 443,80 461,80 461,90 443,90 438,85 " style="fill:#cd15d8; stroke-width:1; stroke:black; " description="&lt;b&gt;BK643_RS30130&lt;/b&gt;&lt;br&gt;ATP-binding cassette domain-containing protein&lt;br&gt;Location: 902058 - 903803&lt;br&gt;&lt;br&gt;&lt;b&gt;BlastP hit with MCIC6FC_005527&lt;/b&gt;&lt;br&gt;Percentage identity: 80&lt;br&gt;Percentage coverage: 11&lt;br&gt;BLAST bit score: 762&lt;br&gt;E-value: 3.8e-217" locus_tag="BK643_RS30130" class="clusterblast-orf" id="dummy-1_h1_8_20"  />
</g>
<g id="a1_0021"  >
<polygon points="461,85 466,80 484,80 484,90 466,90 461,85 " style="fill:#cd15d8; stroke-width:1; stroke:black; " description="&lt;b&gt;BK643_RS30135&lt;/b&gt;&lt;br&gt;AMP-binding protein&lt;br&gt;Location: 903796 - 905463&lt;br&gt;&lt;br&gt;&lt;b&gt;BlastP hit with MCIC6FC_005527&lt;/b&gt;&lt;br&gt;Percentage identity: 96&lt;br&gt;Percentage coverage: 11&lt;br&gt;BLAST bit score: 1078&lt;br&gt;E-value: 0.0" locus_tag="BK643_RS30135" class="clusterblast-orf" id="dummy-1_h1_8_21"  />
</g>
<g id="a1_0022"  >
<polygon points="489,90 496,90 501,85 496,80 489,80 489,90 " style="fill:#d89f15; stroke-width:1; stroke:black; " description="&lt;b&gt;BK643_RS30140&lt;/b&gt;&lt;br&gt;AraC family transcriptional regulator&lt;br&gt;Location: 905839 - 906741&lt;br&gt;&lt;br&gt;&lt;b&gt;BlastP hit with MCIC6FC_005528&lt;/b&gt;&lt;br&gt;Percentage identity: 95&lt;br&gt;Percentage coverage: 11&lt;br&gt;BLAST bit score: 561&lt;br&gt;E-value: 5.2e-157" locus_tag="BK643_RS30140" class="clusterblast-orf" id="dummy-1_h1_8_22"  />
</g>
<g id="a1_0023"  >
<polygon points="503,90 528,90 533,85 528,80 503,80 503,90 " style="fill:#d89f15; stroke-width:1; stroke:black; " description="&lt;b&gt;BK643_RS30145&lt;/b&gt;&lt;br&gt;TonB-dependent siderophore receptor&lt;br&gt;Location: 906919 - 909150&lt;br&gt;&lt;br&gt;&lt;b&gt;BlastP hit with MCIC6FC_005528&lt;/b&gt;&lt;br&gt;Percentage identity: 92&lt;br&gt;Percentage coverage: 28&lt;br&gt;BLAST bit score: 1393&lt;br&gt;E-value: 0.0" locus_tag="BK643_RS30145" class="clusterblast-orf" id="dummy-1_h1_8_23"  />
</g>
<g id="a1_0024"  >
<polygon points="533,90 540,90 545,85 540,80 533,80 533,90 " style="fill:#d89f15; stroke-width:1; stroke:black; " description="&lt;b&gt;BK643_RS30150&lt;/b&gt;&lt;br&gt;PepSY domain-containing protein&lt;br&gt;Location: 909158 - 910039&lt;br&gt;&lt;br&gt;&lt;b&gt;BlastP hit with MCIC6FC_005528&lt;/b&gt;&lt;br&gt;Percentage identity: 89&lt;br&gt;Percentage coverage: 10&lt;br&gt;BLAST bit score: 491&lt;br&gt;E-value: 5.1e-136" locus_tag="BK643_RS30150" class="clusterblast-orf" id="dummy-1_h1_8_24"  />
</g>
<g id="a1_0025"  >
<polygon points="545,90 555,90 560,85 555,80 545,80 545,90 " style="fill:#d89f15; stroke-width:1; stroke:black; " description="&lt;b&gt;BK643_RS30155&lt;/b&gt;&lt;br&gt;ABC transporter substrate-binding protein&lt;br&gt;Location: 910026 - 911159&lt;br&gt;&lt;br&gt;&lt;b&gt;BlastP hit with MCIC6FC_005528&lt;/b&gt;&lt;br&gt;Percentage identity: 94&lt;br&gt;Percentage coverage: 14&lt;br&gt;BLAST bit score: 708&lt;br&gt;E-value: 2.6e-201" locus_tag="BK643_RS30155" class="clusterblast-orf" id="dummy-1_h1_8_25"  />
</g>
<g id="a1_0026"  >
<polygon points="560,90 569,90 574,85 569,80 560,80 560,90 " style="fill:#d89f15; stroke-width:1; stroke:black; " description="&lt;b&gt;BK643_RS30160&lt;/b&gt;&lt;br&gt;iron ABC transporter permease&lt;br&gt;Location: 911156 - 912223&lt;br&gt;&lt;br&gt;&lt;b&gt;BlastP hit with MCIC6FC_005528&lt;/b&gt;&lt;br&gt;Percentage identity: 99&lt;br&gt;Percentage coverage: 13&lt;br&gt;BLAST bit score: 562&lt;br&gt;E-value: 3e-157" locus_tag="BK643_RS30160" class="clusterblast-orf" id="dummy-1_h1_8_26"  />
</g>
<g id="a1_0027"  >
<polygon points="575,90 580,90 585,85 580,80 575,80 575,90 " style="fill:white; stroke-width:1; stroke:black; " description="&lt;b&gt;BK643_RS30165&lt;/b&gt;&lt;br&gt;ATP-binding cassette domain-containing protein&lt;br&gt;Location: 912271 - 913050" locus_tag="BK643_RS30165" class="clusterblast-orf" id="dummy-1_h1_8_27"  />
</g>
<g id="a1_0028"  >
<polygon points="585,90 596,90 601,85 596,80 585,80 585,90 " style="fill:#d89f15; stroke-width:1; stroke:black; " description="&lt;b&gt;BK643_RS30170&lt;/b&gt;&lt;br&gt;MFS transporter&lt;br&gt;Location: 913054 - 914268&lt;br&gt;&lt;br&gt;&lt;b&gt;BlastP hit with MCIC6FC_005528&lt;/b&gt;&lt;br&gt;Percentage identity: 93&lt;br&gt;Percentage coverage: 15&lt;br&gt;BLAST bit score: 677&lt;br&gt;E-value: 6.5e-192" locus_tag="BK643_RS30170" class="clusterblast-orf" id="dummy-1_h1_8_28"  />
</g>
<g id="a1_0029"  >
<polygon points="604,85 609,80 620,80 620,90 609,90 604,85 " style="fill:#15d871; stroke-width:1; stroke:black; " description="&lt;b&gt;BK643_RS30175&lt;/b&gt;&lt;br&gt;sugar transporter&lt;br&gt;Location: 914457 - 915635&lt;br&gt;&lt;br&gt;&lt;b&gt;BlastP hit with MCIC6FC_005529&lt;/b&gt;&lt;br&gt;Percentage identity: 87&lt;br&gt;Percentage coverage: 64&lt;br&gt;BLAST bit score: 603&lt;br&gt;E-value: 2.7e-170" locus_tag="BK643_RS30175" class="clusterblast-orf" id="dummy-1_h1_8_29"  />
</g>
<g id="a1_0030"  >
<polygon points="621,85 626,80 629,80 629,90 626,90 621,85 " style="fill:#15d871; stroke-width:1; stroke:black; " description="&lt;b&gt;BK643_RS30180&lt;/b&gt;&lt;br&gt;TetR/AcrR family transcriptional regulator&lt;br&gt;Location: 915768 - 916367&lt;br&gt;&lt;br&gt;&lt;b&gt;BlastP hit with MCIC6FC_005529&lt;/b&gt;&lt;br&gt;Percentage identity: 93&lt;br&gt;Percentage coverage: 32&lt;br&gt;BLAST bit score: 348&lt;br&gt;E-value: 1.6e-93" locus_tag="BK643_RS30180" class="clusterblast-orf" id="dummy-1_h1_8_30"  />
</g>
<g id="a1_0031"  >
<polygon points="631,85 636,80 643,80 643,90 636,90 631,85 " style="fill:#152cd8; stroke-width:1; stroke:black; " description="&lt;b&gt;BK643_RS30185&lt;/b&gt;&lt;br&gt;alpha/beta hydrolase&lt;br&gt;Location: 916512 - 917399&lt;br&gt;&lt;br&gt;&lt;b&gt;BlastP hit with MCIC6FC_005530&lt;/b&gt;&lt;br&gt;Percentage identity: 97&lt;br&gt;Percentage coverage: 23&lt;br&gt;BLAST bit score: 575&lt;br&gt;E-value: 1.6e-161" locus_tag="BK643_RS30185" class="clusterblast-orf" id="dummy-1_h1_8_31"  />
</g>
<g id="a1_0032"  >
<polygon points="643,85 648,80 658,80 658,90 648,90 643,85 " style="fill:#152cd8; stroke-width:1; stroke:black; " description="&lt;b&gt;BK643_RS30190&lt;/b&gt;&lt;br&gt;sugar phosphate isomerase/epimerase&lt;br&gt;Location: 917422 - 918477&lt;br&gt;&lt;br&gt;&lt;b&gt;BlastP hit with MCIC6FC_005530&lt;/b&gt;&lt;br&gt;Percentage identity: 95&lt;br&gt;Percentage coverage: 27&lt;br&gt;BLAST bit score: 662&lt;br&gt;E-value: 9.9e-188" locus_tag="BK643_RS30190" class="clusterblast-orf" id="dummy-1_h1_8_32"  />
</g>
<g id="a1_0033"  >
<polygon points="660,85 665,80 683,80 683,90 665,90 660,85 " style="fill:#152cd8; stroke-width:1; stroke:black; " description="&lt;b&gt;BK643_RS30195&lt;/b&gt;&lt;br&gt;amidohydrolase&lt;br&gt;Location: 918678 - 920417&lt;br&gt;&lt;br&gt;&lt;b&gt;BlastP hit with MCIC6FC_005530&lt;/b&gt;&lt;br&gt;Percentage identity: 95&lt;br&gt;Percentage coverage: 47&lt;br&gt;BLAST bit score: 1084&lt;br&gt;E-value: 0.0" locus_tag="BK643_RS30195" class="clusterblast-orf" id="dummy-1_h1_8_33"  />
</g>
<g id="a1_0034"  >
<polygon points="685,90 692,90 697,85 692,80 685,80 685,90 " style="fill:#d8159f; stroke-width:1; stroke:black; " description="&lt;b&gt;BK643_RS30200&lt;/b&gt;&lt;br&gt;LysR family transcriptional regulator&lt;br&gt;Location: 920524 - 921438&lt;br&gt;&lt;br&gt;&lt;b&gt;BlastP hit with MCIC6FC_005531&lt;/b&gt;&lt;br&gt;Percentage identity: 95&lt;br&gt;Percentage coverage: 100&lt;br&gt;BLAST bit score: 584&lt;br&gt;E-value: 6.5e-165" locus_tag="BK643_RS30200" class="clusterblast-orf" id="dummy-1_h1_8_34"  />
</g>
<g id="a1_0035"  >
<polygon points="702,90 710,90 715,85 710,80 702,80 702,90 " style="fill:#cdd815; stroke-width:1; stroke:black; " description="&lt;b&gt;BK643_RS30205&lt;/b&gt;&lt;br&gt;DUF1852 domain-containing protein&lt;br&gt;Location: 921793 - 922776&lt;br&gt;&lt;br&gt;&lt;b&gt;BlastP hit with MCIC6FC_005532&lt;/b&gt;&lt;br&gt;Percentage identity: 89&lt;br&gt;Percentage coverage: 38&lt;br&gt;BLAST bit score: 511&lt;br&gt;E-value: 1.7e-142" locus_tag="BK643_RS30205" class="clusterblast-orf" id="dummy-1_h1_8_35"  />
</g>
<g id="a1_0036"  >
<polygon points="715,90 724,90 729,85 724,80 715,80 715,90 " style="fill:#cdd815; stroke-width:1; stroke:black; " description="&lt;b&gt;BK643_RS30210&lt;/b&gt;&lt;br&gt;methionine synthase&lt;br&gt;Location: 922804 - 923838&lt;br&gt;&lt;br&gt;&lt;b&gt;BlastP hit with MCIC6FC_005532&lt;/b&gt;&lt;br&gt;Percentage identity: 81&lt;br&gt;Percentage coverage: 43&lt;br&gt;BLAST bit score: 497&lt;br&gt;E-value: 1.9e-138" locus_tag="BK643_RS30210" class="clusterblast-orf" id="dummy-1_h1_8_36"  />
</g>
<g id="a1_0037"  >
<polygon points="731,90 732,90 737,85 732,80 731,80 731,90 " style="fill:#cdd815; stroke-width:1; stroke:black; " description="&lt;b&gt;BK643_RS30215&lt;/b&gt;&lt;br&gt;flavin reductase family protein&lt;br&gt;Location: 923945 - 924454&lt;br&gt;&lt;br&gt;&lt;b&gt;BlastP hit with MCIC6FC_005532&lt;/b&gt;&lt;br&gt;Percentage identity: 93&lt;br&gt;Percentage coverage: 23&lt;br&gt;BLAST bit score: 316&lt;br&gt;E-value: 7.9e-84" locus_tag="BK643_RS30215" class="clusterblast-orf" id="dummy-1_h1_8_37"  />
</g>
<g id="a1_0038"  >
<polygon points="739,85 744,80 745,80 745,90 744,90 739,85 " style="fill:#15d8b6; stroke-width:1; stroke:black; " description="&lt;b&gt;BK643_RS30220&lt;/b&gt;&lt;br&gt;Lrp/AsnC family transcriptional regulator&lt;br&gt;Location: 924542 - 925012&lt;br&gt;&lt;br&gt;&lt;b&gt;BlastP hit with MCIC6FC_005533&lt;/b&gt;&lt;br&gt;Percentage identity: 96&lt;br&gt;Percentage coverage: 100&lt;br&gt;BLAST bit score: 291&lt;br&gt;E-value: 4.5e-77" locus_tag="BK643_RS30220" class="clusterblast-orf" id="dummy-1_h1_8_38"  />
</g>
</svg>
