<svg xmlns="http://www.w3.org/2000/svg" xmlns:xlink="http://www.w3.org/1999/xlink" version="1.1" x="0" y="0" height="230" width="800" viewBox="0 0 800 230" preserveAspectRatio="none"  >
<g label="Query sequence" class="clusterblast-cluster"  >
<text x="5" y="20" class="clusterblast-acc"  >
Query sequence</text>
<line x1="10" y1="35" x2="778.0" y2="35" style="stroke-width:1; stroke:grey; "  />
<polygon points="37,35 42,30 47,30 47,40 42,40 37,35 " style="fill:#d81515; stroke-width:1; stroke:black; " description="&lt;b&gt;MCIC6FC_015424&lt;/b&gt;&lt;br&gt;hypothetical protein&lt;br&gt;Location: 116480 - 116759" locus_tag="MCIC6FC_015424" class="clusterblast-orf" id="dummy-2_q0_0_all"  />
<polygon points="62,40 126,40 131,35 126,30 62,30 62,40 " style="fill:#15d815; stroke-width:1; stroke:black; " description="&lt;b&gt;MCIC6FC_015425&lt;/b&gt;&lt;br&gt;hypothetical protein&lt;br&gt;Location: 117152 - 118979" locus_tag="MCIC6FC_015425" class="clusterblast-orf" id="dummy-2_q1_0_all"  />
<polygon points="137,40 182,40 187,35 182,30 137,30 137,40 " style="fill:#1515d8; stroke-width:1; stroke:black; " description="&lt;b&gt;MCIC6FC_015426&lt;/b&gt;&lt;br&gt;hypothetical protein&lt;br&gt;Location: 119111 - 120437" locus_tag="MCIC6FC_015426" class="clusterblast-orf" id="dummy-2_q2_0_all"  />
<polygon points="203,40 344,40 349,35 344,30 203,30 203,40 " style="fill:#d815d8; stroke-width:1; stroke:black; " description="&lt;b&gt;MCIC6FC_015427&lt;/b&gt;&lt;br&gt;hypothetical protein&lt;br&gt;Location: 120854 - 124718" locus_tag="MCIC6FC_015427" class="clusterblast-orf" id="dummy-2_q3_0_all"  />
<polygon points="350,35 355,30 548,30 548,40 355,40 350,35 " style="fill:#d8d815; stroke-width:1; stroke:black; " description="&lt;b&gt;MCIC6FC_015428&lt;/b&gt;&lt;br&gt;hypothetical protein&lt;br&gt;Location: 124725 - 129958" locus_tag="MCIC6FC_015428" class="clusterblast-orf" id="dummy-2_q4_0_all"  />
<polygon points="556,40 738,40 743,35 738,30 556,30 556,40 " style="fill:#15d8d8; stroke-width:1; stroke:black; " description="&lt;b&gt;MCIC6FC_015429&lt;/b&gt;&lt;br&gt;hypothetical protein&lt;br&gt;Location: 130173 - 135098" locus_tag="MCIC6FC_015429" class="clusterblast-orf" id="dummy-2_q5_0_all"  />
</g>
<g label="NZ_LT629699" description="NZ_LT629699 (6152594-6179435): Pseudomonas libanensis strain DSM 17149 chromo... (45% of genes show similarity), NAGGN,TfuA-related" class="clusterblast-cluster"  >
<text x="5" y="70" class="clusterblast-acc"  >
<a xlink:href="https://antismash-db.secondarymetabolites.org/area.html?record=NZ_LT629699&amp;start=6152594&amp;end=6179435" target="_blank">NZ_LT629699 (6152594-6179435)</a>: Pseudomonas libanensis strain DSM 17149 chromo... (45% of genes show similarity), NAGGN,TfuA-related</text>
<line x1="10" y1="85" x2="778.0" y2="85" style="stroke-width:1; stroke:grey; "  />
</g>
<g id="a2_000"  >
<polygon points="0,85 5,80 10,80 10,90 5,90 0,85 " style="fill:#d81515; stroke-width:1; stroke:black; " description="&lt;b&gt;BLQ22_RS28260&lt;/b&gt;&lt;br&gt;DUF3509 domain-containing protein&lt;br&gt;Location: 6153877 - 6154155&lt;br&gt;&lt;br&gt;&lt;b&gt;BlastP hit with MCIC6FC_015424&lt;/b&gt;&lt;br&gt;Percentage identity: 99&lt;br&gt;Percentage coverage: 100&lt;br&gt;BLAST bit score: 180&lt;br&gt;E-value: 6.5e-44" locus_tag="BLQ22_RS28260" class="clusterblast-orf" id="dummy-2_h2_1_0"  />
</g>
<g id="a2_001"  >
<polygon points="26,90 90,90 95,85 90,80 26,80 26,90 " style="fill:#15d815; stroke-width:1; stroke:black; " description="&lt;b&gt;BLQ22_RS28265&lt;/b&gt;&lt;br&gt;long-chain-acyl-CoA synthetase&lt;br&gt;Location: 6154563 - 6156389&lt;br&gt;&lt;br&gt;&lt;b&gt;BlastP hit with MCIC6FC_015425&lt;/b&gt;&lt;br&gt;Percentage identity: 88&lt;br&gt;Percentage coverage: 100&lt;br&gt;BLAST bit score: 1117&lt;br&gt;E-value: 0.0" locus_tag="BLQ22_RS28265" class="clusterblast-orf" id="dummy-2_h2_1_1"  />
</g>
<g id="a2_002"  >
<polygon points="99,90 113,90 118,85 113,80 99,80 99,90 " style="fill:#1515d8; stroke-width:1; stroke:black; " description="&lt;b&gt;BLQ22_RS28270&lt;/b&gt;&lt;br&gt;ankyrin repeat domain-containing protein&lt;br&gt;Location: 6156496 - 6157011&lt;br&gt;&lt;br&gt;&lt;b&gt;BlastP hit with MCIC6FC_015426&lt;/b&gt;&lt;br&gt;Percentage identity: 91&lt;br&gt;Percentage coverage: 13&lt;br&gt;BLAST bit score: 104&lt;br&gt;E-value: 2.1e-20" locus_tag="BLQ22_RS28270" class="clusterblast-orf" id="dummy-2_h2_1_2"  />
</g>
<g id="a2_003"  >
<polygon points="120,90 135,90 140,85 135,80 120,80 120,90 " style="fill:#1515d8; stroke-width:1; stroke:black; " description="&lt;b&gt;BLQ22_RS28275&lt;/b&gt;&lt;br&gt;hypothetical protein&lt;br&gt;Location: 6157052 - 6157582&lt;br&gt;&lt;br&gt;&lt;b&gt;BlastP hit with MCIC6FC_015426&lt;/b&gt;&lt;br&gt;Percentage identity: 94&lt;br&gt;Percentage coverage: 42&lt;br&gt;BLAST bit score: 326&lt;br&gt;E-value: 5.7e-87" locus_tag="BLQ22_RS28275" class="clusterblast-orf" id="dummy-2_h2_1_3"  />
</g>
<g id="a2_004"  >
<polygon points="143,90 145,90 150,85 145,80 143,80 143,90 " style="fill:#1515d8; stroke-width:1; stroke:black; " description="&lt;b&gt;BLQ22_RS28280&lt;/b&gt;&lt;br&gt;PLDc N-terminal domain-containing protein&lt;br&gt;Location: 6157651 - 6157842&lt;br&gt;&lt;br&gt;&lt;b&gt;BlastP hit with MCIC6FC_015426&lt;/b&gt;&lt;br&gt;Percentage identity: 100&lt;br&gt;Percentage coverage: 15&lt;br&gt;BLAST bit score: 122&lt;br&gt;E-value: 1.3e-25" locus_tag="BLQ22_RS28280" class="clusterblast-orf" id="dummy-2_h2_1_4"  />
</g>
<g id="a2_005"  >
<polygon points="153,85 158,80 196,80 196,90 158,90 153,85 " style="fill:white; stroke-width:1; stroke:black; " description="&lt;b&gt;BLQ22_RS28285&lt;/b&gt;&lt;br&gt;hypothetical protein&lt;br&gt;Location: 6157922 - 6159055" locus_tag="BLQ22_RS28285" class="clusterblast-orf" id="dummy-2_h2_1_5"  />
</g>
<g id="a2_006"  >
<polygon points="198,85 203,80 247,80 247,90 203,90 198,85 " style="fill:white; stroke-width:1; stroke:black; " description="&lt;b&gt;BLQ22_RS28290&lt;/b&gt;&lt;br&gt;MFS transporter&lt;br&gt;Location: 6159097 - 6160401" locus_tag="BLQ22_RS28290" class="clusterblast-orf" id="dummy-2_h2_1_6"  />
</g>
<g id="a2_007"  >
<polygon points="249,85 254,80 291,80 291,90 254,90 249,85 " style="fill:white; stroke-width:1; stroke:black; " description="&lt;b&gt;BLQ22_RS28295&lt;/b&gt;&lt;br&gt;HesA/MoeB/ThiF family protein&lt;br&gt;Location: 6160448 - 6161572" locus_tag="BLQ22_RS28295" class="clusterblast-orf" id="dummy-2_h2_1_7"  />
</g>
<g id="a2_008"  >
<polygon points="292,85 297,80 302,80 302,90 297,90 292,85 " style="fill:white; stroke-width:1; stroke:black; " description="&lt;b&gt;BLQ22_RS28300&lt;/b&gt;&lt;br&gt;MoaD/ThiS family protein&lt;br&gt;Location: 6161574 - 6161846" locus_tag="BLQ22_RS28300" class="clusterblast-orf" id="dummy-2_h2_1_8"  />
</g>
<g id="a2_009"  >
<polygon points="302,85 307,80 330,80 330,90 307,90 302,85 " style="fill:white; stroke-width:1; stroke:black; " description="&lt;b&gt;BLQ22_RS28305&lt;/b&gt;&lt;br&gt;hypothetical protein&lt;br&gt;Location: 6161850 - 6162584" locus_tag="BLQ22_RS28305" class="clusterblast-orf" id="dummy-2_h2_1_9"  />
</g>
<g id="a2_0010"  >
<polygon points="330,85 335,80 357,80 357,90 335,90 330,85 " style="fill:white; stroke-width:1; stroke:black; " description="&lt;b&gt;BLQ22_RS28310&lt;/b&gt;&lt;br&gt;hypothetical protein&lt;br&gt;Location: 6162595 - 6163296" locus_tag="BLQ22_RS28310" class="clusterblast-orf" id="dummy-2_h2_1_10"  />
</g>
<g id="a2_0011"  >
<polygon points="356,85 361,80 373,80 373,90 361,90 356,85 " style="fill:white; stroke-width:1; stroke:black; " description="&lt;b&gt;BLQ22_RS29035&lt;/b&gt;&lt;br&gt;YcaO-like family protein&lt;br&gt;Location: 6163277 - 6163723" locus_tag="BLQ22_RS29035" class="clusterblast-orf" id="dummy-2_h2_1_11"  />
</g>
<g id="a2_0012"  >
<polygon points="371,85 376,80 402,80 402,90 376,90 371,85 " style="fill:white; stroke-width:1; stroke:black; " description="&lt;b&gt;BLQ22_RS28315&lt;/b&gt;&lt;br&gt;YcaO-like family protein&lt;br&gt;Location: 6163678 - 6164493" locus_tag="BLQ22_RS28315" class="clusterblast-orf" id="dummy-2_h2_1_12"  />
</g>
<g id="a2_0013"  >
<polygon points="405,85 410,80 412,80 412,90 410,90 405,85 " style="fill:white; stroke-width:1; stroke:black; " description="&lt;b&gt;BLQ22_RS28925&lt;/b&gt;&lt;br&gt;hypothetical protein&lt;br&gt;Location: 6164571 - 6164747" locus_tag="BLQ22_RS28925" class="clusterblast-orf" id="dummy-2_h2_1_13"  />
</g>
<g id="a2_0014"  >
<polygon points="439,90 513,90 518,85 513,80 439,80 439,90 " style="fill:#d815d8; stroke-width:1; stroke:black; " description="&lt;b&gt;BLQ22_RS28320&lt;/b&gt;&lt;br&gt;LTA synthase family protein&lt;br&gt;Location: 6165466 - 6167553&lt;br&gt;&lt;br&gt;&lt;b&gt;BlastP hit with MCIC6FC_015427&lt;/b&gt;&lt;br&gt;Percentage identity: 97&lt;br&gt;Percentage coverage: 62&lt;br&gt;BLAST bit score: 1354&lt;br&gt;E-value: 0.0" locus_tag="BLQ22_RS28320" class="clusterblast-orf" id="dummy-2_h2_1_14"  />
</g>
<g id="a2_0015"  >
<polygon points="521,85 526,80 527,80 527,90 526,90 521,85 " style="fill:white; stroke-width:1; stroke:black; " description="&lt;b&gt;BLQ22_RS28325&lt;/b&gt;&lt;br&gt;DUF3309 domain-containing protein&lt;br&gt;Location: 6167624 - 6167776" locus_tag="BLQ22_RS28325" class="clusterblast-orf" id="dummy-2_h2_1_15"  />
</g>
<g id="a2_0016"  >
<polygon points="539,90 565,90 570,85 565,80 539,80 539,90 " style="fill:#d815d8; stroke-width:1; stroke:black; " description="&lt;b&gt;BLQ22_RS28330&lt;/b&gt;&lt;br&gt;SDR family oxidoreductase&lt;br&gt;Location: 6168104 - 6168919&lt;br&gt;&lt;br&gt;&lt;b&gt;BlastP hit with MCIC6FC_015427&lt;/b&gt;&lt;br&gt;Percentage identity: 92&lt;br&gt;Percentage coverage: 24&lt;br&gt;BLAST bit score: 488&lt;br&gt;E-value: 1.4e-135" locus_tag="BLQ22_RS28330" class="clusterblast-orf" id="dummy-2_h2_1_16"  />
</g>
<g id="a2_0017"  >
<polygon points="575,90 578,90 583,85 578,80 575,80 575,90 " style="fill:white; stroke-width:1; stroke:black; " description="&lt;b&gt;BLQ22_RS28335&lt;/b&gt;&lt;br&gt;carbon storage regulator CsrA&lt;br&gt;Location: 6169047 - 6169250" locus_tag="BLQ22_RS28335" class="clusterblast-orf" id="dummy-2_h2_1_17"  />
</g>
<g id="a2_0018"  >
<polygon points="583,85 588,80 592,80 592,90 588,90 583,85 " style="fill:white; stroke-width:1; stroke:black; " description="&lt;b&gt;BLQ22_RS28340&lt;/b&gt;&lt;br&gt;YheU family protein&lt;br&gt;Location: 6169261 - 6169488" locus_tag="BLQ22_RS28340" class="clusterblast-orf" id="dummy-2_h2_1_18"  />
</g>
<g id="a2_0019"  >
<polygon points="595,85 600,80 640,80 640,90 600,90 595,85 " style="fill:#d8d815; stroke-width:1; stroke:black; " description="&lt;b&gt;BLQ22_RS28345&lt;/b&gt;&lt;br&gt;osmoprotectant NAGGN system M42 family peptidase&lt;br&gt;Location: 6169564 - 6170748&lt;br&gt;&lt;br&gt;&lt;b&gt;BlastP hit with MCIC6FC_015428&lt;/b&gt;&lt;br&gt;Percentage identity: 99&lt;br&gt;Percentage coverage: 23&lt;br&gt;BLAST bit score: 770&lt;br&gt;E-value: 3.5e-220" locus_tag="BLQ22_RS28345" class="clusterblast-orf" id="dummy-2_h2_1_19"  />
</g>
<g id="a2_0020"  >
<polygon points="646,85 651,80 712,80 712,90 651,90 646,85 " style="fill:#d8d815; stroke-width:1; stroke:black; " description="&lt;b&gt;BLQ22_RS28350&lt;/b&gt;&lt;br&gt;N-acetylglutaminylglutamine synthetase&lt;br&gt;Location: 6170914 - 6172659&lt;br&gt;&lt;br&gt;&lt;b&gt;BlastP hit with MCIC6FC_015428&lt;/b&gt;&lt;br&gt;Percentage identity: 94&lt;br&gt;Percentage coverage: 34&lt;br&gt;BLAST bit score: 1086&lt;br&gt;E-value: 0.0" locus_tag="BLQ22_RS28350" class="clusterblast-orf" id="dummy-2_h2_1_20"  />
</g>
<g id="a2_0021"  >
<polygon points="712,85 717,80 780,80 780,90 717,90 712,85 " style="fill:#d8d815; stroke-width:1; stroke:black; " description="&lt;b&gt;BLQ22_RS28355&lt;/b&gt;&lt;br&gt;N-acetylglutaminylglutamine amidotransferase&lt;br&gt;Location: 6172663 - 6174435&lt;br&gt;&lt;br&gt;&lt;b&gt;BlastP hit with MCIC6FC_015428&lt;/b&gt;&lt;br&gt;Percentage identity: 97&lt;br&gt;Percentage coverage: 35&lt;br&gt;BLAST bit score: 1158&lt;br&gt;E-value: 0.0" locus_tag="BLQ22_RS28355" class="clusterblast-orf" id="dummy-2_h2_1_21"  />
</g>
</svg>
