<svg xmlns="http://www.w3.org/2000/svg" xmlns:xlink="http://www.w3.org/1999/xlink" version="1.1" x="0" y="0" height="230" width="800" viewBox="0 0 800 230" preserveAspectRatio="none"  >
<g label="Query sequence" class="clusterblast-cluster"  >
<text x="5" y="20" class="clusterblast-acc"  >
Query sequence</text>
<line x1="10" y1="35" x2="778.0" y2="35" style="stroke-width:1; stroke:grey; "  />
<polygon points="188,40 287,40 292,35 287,30 188,30 188,40 " style="fill:#d81515; stroke-width:1; stroke:black; " description="&lt;b&gt;MCIC6FC_016886&lt;/b&gt;&lt;br&gt;hypothetical protein&lt;br&gt;Location: 31 - 6733" locus_tag="MCIC6FC_016886" class="clusterblast-orf" id="dummy-1_q0_0_all"  />
<polygon points="298,35 303,30 316,30 316,40 303,40 298,35 " style="fill:#15d815; stroke-width:1; stroke:black; " description="&lt;b&gt;MCIC6FC_016887&lt;/b&gt;&lt;br&gt;hypothetical protein&lt;br&gt;Location: 7172 - 8310" locus_tag="MCIC6FC_016887" class="clusterblast-orf" id="dummy-1_q1_0_all"  />
<polygon points="319,35 324,30 330,30 330,40 324,40 319,35 " style="fill:#15d815; stroke-width:1; stroke:black; " description="&lt;b&gt;MCIC6FC_016888&lt;/b&gt;&lt;br&gt;hypothetical protein&lt;br&gt;Location: 8475 - 9192" locus_tag="MCIC6FC_016888" class="clusterblast-orf" id="dummy-1_q2_0_all"  />
<polygon points="340,40 449,40 454,35 449,30 340,30 340,40 " style="fill:#1515d8; stroke-width:1; stroke:black; " description="&lt;b&gt;MCIC6FC_016889&lt;/b&gt;&lt;br&gt;hypothetical protein&lt;br&gt;Location: 9882 - 17276" locus_tag="MCIC6FC_016889" class="clusterblast-orf" id="dummy-1_q3_0_all"  />
<polygon points="456,40 459,40 464,35 459,30 456,30 456,40 " style="fill:white; stroke-width:1; stroke:black; " description="&lt;b&gt;MCIC6FC_016890&lt;/b&gt;&lt;br&gt;hypothetical protein&lt;br&gt;Location: 17354 - 17893" locus_tag="MCIC6FC_016890" class="clusterblast-orf" id="dummy-1_q4_0_all"  />
<polygon points="464,35 469,30 496,30 496,40 469,40 464,35 " style="fill:#d815d8; stroke-width:1; stroke:black; " description="&lt;b&gt;MCIC6FC_016891&lt;/b&gt;&lt;br&gt;hypothetical protein&lt;br&gt;Location: 17927 - 19999" locus_tag="MCIC6FC_016891" class="clusterblast-orf" id="dummy-1_q5_0_all"  />
<polygon points="501,40 509,40 514,35 509,30 501,30 501,40 " style="fill:#d8d815; stroke-width:1; stroke:black; " description="&lt;b&gt;MCIC6FC_016892&lt;/b&gt;&lt;br&gt;hypothetical protein&lt;br&gt;Location: 20291 - 21151" locus_tag="MCIC6FC_016892" class="clusterblast-orf" id="dummy-1_q6_0_all"  />
<polygon points="523,40 586,40 591,35 586,30 523,30 523,40 " style="fill:#15d8d8; stroke-width:1; stroke:black; " description="&lt;b&gt;MCIC6FC_016893&lt;/b&gt;&lt;br&gt;hypothetical protein&lt;br&gt;Location: 21717 - 26130" locus_tag="MCIC6FC_016893" class="clusterblast-orf" id="dummy-1_q7_0_all"  />
</g>
<g label="NZ_CP022148" description="NZ_CP022148 (2294510-2346608): Enterobacter roggenkampii strain 704SK10 chrom... (19% of genes show similarity), NRPS" class="clusterblast-cluster"  >
<text x="5" y="70" class="clusterblast-acc"  >
<a xlink:href="https://antismash-db.secondarymetabolites.org/area.html?record=NZ_CP022148&amp;start=2294510&amp;end=2346608" target="_blank">NZ_CP022148 (2294510-2346608)</a>: Enterobacter roggenkampii strain 704SK10 chrom... (19% of genes show similarity), NRPS</text>
<line x1="10" y1="85" x2="778.0" y2="85" style="stroke-width:1; stroke:grey; "  />
</g>
<g id="a1_000"  >
<polygon points="0,85 5,80 9,80 9,90 5,90 0,85 " style="fill:white; stroke-width:1; stroke:black; " description="&lt;b&gt;CES92_RS11605&lt;/b&gt;&lt;br&gt;hypothetical protein&lt;br&gt;Location: 2345850 - 2345203" locus_tag="CES92_RS11605" class="clusterblast-orf" id="dummy-1_h1_8_0"  />
</g>
<g id="a1_001"  >
<polygon points="9,85 14,80 18,80 18,90 14,90 9,85 " style="fill:white; stroke-width:1; stroke:black; " description="&lt;b&gt;CES92_RS11600&lt;/b&gt;&lt;br&gt;sigma-70 family RNA polymerase sigma factor&lt;br&gt;Location: 2345206 - 2344652" locus_tag="CES92_RS11600" class="clusterblast-orf" id="dummy-1_h1_8_1"  />
</g>
<g id="a1_002"  >
<polygon points="19,85 24,80 27,80 27,90 24,90 19,85 " style="fill:white; stroke-width:1; stroke:black; " description="&lt;b&gt;CES92_RS11595&lt;/b&gt;&lt;br&gt;fasciclin domain-containing protein&lt;br&gt;Location: 2344608 - 2344045" locus_tag="CES92_RS11595" class="clusterblast-orf" id="dummy-1_h1_8_2"  />
</g>
<g id="a1_003"  >
<polygon points="30,85 35,80 55,80 55,90 35,90 30,85 " style="fill:white; stroke-width:1; stroke:black; " description="&lt;b&gt;CES92_RS11590&lt;/b&gt;&lt;br&gt;choline dehydrogenase&lt;br&gt;Location: 2343901 - 2342237" locus_tag="CES92_RS11590" class="clusterblast-orf" id="dummy-1_h1_8_3"  />
</g>
<g id="a1_004"  >
<polygon points="55,85 60,80 78,80 78,90 60,90 55,85 " style="fill:white; stroke-width:1; stroke:black; " description="&lt;b&gt;CES92_RS11585&lt;/b&gt;&lt;br&gt;betaine-aldehyde dehydrogenase&lt;br&gt;Location: 2342223 - 2340751" locus_tag="CES92_RS11585" class="clusterblast-orf" id="dummy-1_h1_8_4"  />
</g>
<g id="a1_005"  >
<polygon points="78,85 83,80 87,80 87,90 83,90 78,85 " style="fill:white; stroke-width:1; stroke:black; " description="&lt;b&gt;CES92_RS11580&lt;/b&gt;&lt;br&gt;transcriptional regulator BetI&lt;br&gt;Location: 2340737 - 2340150" locus_tag="CES92_RS11580" class="clusterblast-orf" id="dummy-1_h1_8_5"  />
</g>
<g id="a1_006"  >
<polygon points="89,90 116,90 121,85 116,80 89,80 89,90 " style="fill:white; stroke-width:1; stroke:black; " description="&lt;b&gt;CES92_RS11570&lt;/b&gt;&lt;br&gt;choline BCCT transporter BetT&lt;br&gt;Location: 2340021 - 2337988" locus_tag="CES92_RS11570" class="clusterblast-orf" id="dummy-1_h1_8_6"  />
</g>
<g id="a1_007"  >
<polygon points="131,90 132,90 137,85 132,80 131,80 131,90 " style="fill:white; stroke-width:1; stroke:black; " description="&lt;b&gt;CES92_RS11565&lt;/b&gt;&lt;br&gt;hypothetical protein&lt;br&gt;Location: 2337310 - 2336930" locus_tag="CES92_RS11565" class="clusterblast-orf" id="dummy-1_h1_8_7"  />
</g>
<g id="a1_008"  >
<polygon points="138,90 142,90 147,85 142,80 138,80 138,90 " style="fill:white; stroke-width:1; stroke:black; " description="&lt;b&gt;CES92_RS11560&lt;/b&gt;&lt;br&gt;hypothetical protein&lt;br&gt;Location: 2336860 - 2336300" locus_tag="CES92_RS11560" class="clusterblast-orf" id="dummy-1_h1_8_8"  />
</g>
<g id="a1_009"  >
<polygon points="148,90 152,90 157,85 152,80 148,80 148,90 " style="fill:white; stroke-width:1; stroke:black; " description="&lt;b&gt;CES92_RS11555&lt;/b&gt;&lt;br&gt;fimbrial protein&lt;br&gt;Location: 2336196 - 2335642" locus_tag="CES92_RS11555" class="clusterblast-orf" id="dummy-1_h1_8_9"  />
</g>
<g id="a1_0010"  >
<polygon points="158,90 163,90 168,85 163,80 158,80 158,90 " style="fill:#1515d8; stroke-width:1; stroke:black; " description="&lt;b&gt;CES92_RS11550&lt;/b&gt;&lt;br&gt;molecular chaperone&lt;br&gt;Location: 2335584 - 2334904&lt;br&gt;&lt;br&gt;&lt;b&gt;BlastP hit with MCIC6FC_016889&lt;/b&gt;&lt;br&gt;Percentage identity: 34&lt;br&gt;Percentage coverage: 13&lt;br&gt;BLAST bit score: 128&lt;br&gt;E-value: 5.4e-27" locus_tag="CES92_RS11550" class="clusterblast-orf" id="dummy-1_h1_8_10"  />
</g>
<g id="a1_0011"  >
<polygon points="171,90 203,90 208,85 203,80 171,80 171,90 " style="fill:#1515d8; stroke-width:1; stroke:black; " description="&lt;b&gt;CES92_RS11545&lt;/b&gt;&lt;br&gt;fimbrial biogenesis outer membrane usher protein&lt;br&gt;Location: 2334731 - 2332368&lt;br&gt;&lt;br&gt;&lt;b&gt;BlastP hit with MCIC6FC_016889&lt;/b&gt;&lt;br&gt;Percentage identity: 35&lt;br&gt;Percentage coverage: 47&lt;br&gt;BLAST bit score: 404&lt;br&gt;E-value: 3.9e-110" locus_tag="CES92_RS11545" class="clusterblast-orf" id="dummy-1_h1_8_11"  />
</g>
<g id="a1_0012"  >
<polygon points="209,90 219,90 224,85 219,80 209,80 209,90 " style="fill:white; stroke-width:1; stroke:black; " description="&lt;b&gt;CES92_RS11540&lt;/b&gt;&lt;br&gt;type 1 fimbrial protein&lt;br&gt;Location: 2332305 - 2331310" locus_tag="CES92_RS11540" class="clusterblast-orf" id="dummy-1_h1_8_12"  />
</g>
<g id="a1_0013"  >
<polygon points="224,90 226,85 224,80 224,90 " style="fill:white; stroke-width:1; stroke:black; " description="&lt;b&gt;CES92_RS25335&lt;/b&gt;&lt;br&gt;metal ABC transporter permease&lt;br&gt;Location: 2331285 - 2331167" locus_tag="CES92_RS25335" class="clusterblast-orf" id="dummy-1_h1_8_13"  />
</g>
<g id="a1_0014"  >
<polygon points="226,85 231,80 236,80 236,90 231,90 226,85 " style="fill:white; stroke-width:1; stroke:black; " description="&lt;b&gt;CES92_RS11535&lt;/b&gt;&lt;br&gt;enterobactin synthase subunit EntD&lt;br&gt;Location: 2331148 - 2330507" locus_tag="CES92_RS11535" class="clusterblast-orf" id="dummy-1_h1_8_14"  />
</g>
<g id="a1_0015"  >
<polygon points="238,85 243,80 272,80 272,90 243,90 238,85 " style="fill:white; stroke-width:1; stroke:black; " description="&lt;b&gt;CES92_RS11530&lt;/b&gt;&lt;br&gt;TonB-dependent siderophore receptor&lt;br&gt;Location: 2330421 - 2328172" locus_tag="CES92_RS11530" class="clusterblast-orf" id="dummy-1_h1_8_15"  />
</g>
<g id="a1_0016"  >
<polygon points="275,90 288,90 293,85 288,80 275,80 275,90 " style="fill:white; stroke-width:1; stroke:black; " description="&lt;b&gt;CES92_RS11525&lt;/b&gt;&lt;br&gt;enterochelin esterase&lt;br&gt;Location: 2328027 - 2326828" locus_tag="CES92_RS11525" class="clusterblast-orf" id="dummy-1_h1_8_16"  />
</g>
<g id="a1_0017"  >
<polygon points="293,90 296,85 293,80 293,90 " style="fill:white; stroke-width:1; stroke:black; " description="&lt;b&gt;CES92_RS11520&lt;/b&gt;&lt;br&gt;MbtH family NRPS accessory protein&lt;br&gt;Location: 2326817 - 2326605" locus_tag="CES92_RS11520" class="clusterblast-orf" id="dummy-1_h1_8_17"  />
</g>
<g id="a1_0018"  >
<polygon points="296,90 351,90 356,85 351,80 296,80 296,90 " style="fill:#d81515; stroke-width:1; stroke:black; " description="&lt;b&gt;CES92_RS11515&lt;/b&gt;&lt;br&gt;enterobactin non-ribosomal peptide synthetase EntF&lt;br&gt;Location: 2326608 - 2322751&lt;br&gt;&lt;br&gt;&lt;b&gt;BlastP hit with MCIC6FC_016886&lt;/b&gt;&lt;br&gt;Percentage identity: 63&lt;br&gt;Percentage coverage: 77&lt;br&gt;BLAST bit score: 1463&lt;br&gt;E-value: 0.0" locus_tag="CES92_RS11515" class="clusterblast-orf" id="dummy-1_h1_8_18"  />
</g>
<g id="a1_0019"  >
<polygon points="357,85 362,80 370,80 370,90 362,90 357,85 " style="fill:white; stroke-width:1; stroke:black; " description="&lt;b&gt;CES92_RS11510&lt;/b&gt;&lt;br&gt;iron-enterobactin ABC transporter ATP-binding protein&lt;br&gt;Location: 2322663 - 2321869" locus_tag="CES92_RS11510" class="clusterblast-orf" id="dummy-1_h1_8_19"  />
</g>
<g id="a1_0020"  >
<polygon points="370,85 375,80 385,80 385,90 375,90 370,85 " style="fill:#d815d8; stroke-width:1; stroke:black; " description="&lt;b&gt;CES92_RS11505&lt;/b&gt;&lt;br&gt;iron-enterobactin ABC transporter permease&lt;br&gt;Location: 2321872 - 2320880&lt;br&gt;&lt;br&gt;&lt;b&gt;BlastP hit with MCIC6FC_016891&lt;/b&gt;&lt;br&gt;Percentage identity: 53&lt;br&gt;Percentage coverage: 62&lt;br&gt;BLAST bit score: 274&lt;br&gt;E-value: 3.3e-71" locus_tag="CES92_RS11505" class="clusterblast-orf" id="dummy-1_h1_8_20"  />
</g>
<g id="a1_0021"  >
<polygon points="385,85 390,80 400,80 400,90 390,90 385,85 " style="fill:#d815d8; stroke-width:1; stroke:black; " description="&lt;b&gt;CES92_RS11500&lt;/b&gt;&lt;br&gt;Fe(3+)-siderophore ABC transporter permease&lt;br&gt;Location: 2320883 - 2319879&lt;br&gt;&lt;br&gt;&lt;b&gt;BlastP hit with MCIC6FC_016891&lt;/b&gt;&lt;br&gt;Percentage identity: 65&lt;br&gt;Percentage coverage: 55&lt;br&gt;BLAST bit score: 327&lt;br&gt;E-value: 3.3e-87" locus_tag="CES92_RS11500" class="clusterblast-orf" id="dummy-1_h1_8_21"  />
</g>
<g id="a1_0022"  >
<polygon points="402,90 416,90 421,85 416,80 402,80 402,90 " style="fill:#d8d815; stroke-width:1; stroke:black; " description="&lt;b&gt;CES92_RS11495&lt;/b&gt;&lt;br&gt;enterobactin transporter EntS&lt;br&gt;Location: 2319770 - 2318532&lt;br&gt;&lt;br&gt;&lt;b&gt;BlastP hit with MCIC6FC_016892&lt;/b&gt;&lt;br&gt;Percentage identity: 49&lt;br&gt;Percentage coverage: 128&lt;br&gt;BLAST bit score: 152&lt;br&gt;E-value: 3.7e-35" locus_tag="CES92_RS11495" class="clusterblast-orf" id="dummy-1_h1_8_22"  />
</g>
<g id="a1_0023"  >
<polygon points="422,85 427,80 437,80 437,90 427,90 422,85 " style="fill:white; stroke-width:1; stroke:black; " description="&lt;b&gt;CES92_RS11490&lt;/b&gt;&lt;br&gt;Fe2+-enterobactin ABC transporter substrate-binding protein&lt;br&gt;Location: 2318454 - 2317495" locus_tag="CES92_RS11490" class="clusterblast-orf" id="dummy-1_h1_8_23"  />
</g>
<g id="a1_0024"  >
<polygon points="440,90 453,90 458,85 453,80 440,80 440,90 " style="fill:#15d8d8; stroke-width:1; stroke:black; " description="&lt;b&gt;CES92_RS11485&lt;/b&gt;&lt;br&gt;isochorismate synthase EntC&lt;br&gt;Location: 2317306 - 2316131&lt;br&gt;&lt;br&gt;&lt;b&gt;BlastP hit with MCIC6FC_016893&lt;/b&gt;&lt;br&gt;Percentage identity: 61&lt;br&gt;Percentage coverage: 31&lt;br&gt;BLAST bit score: 399&lt;br&gt;E-value: 1.5e-108" locus_tag="CES92_RS11485" class="clusterblast-orf" id="dummy-1_h1_8_24"  />
</g>
<g id="a1_0025"  >
<polygon points="458,90 478,90 483,85 478,80 458,80 458,90 " style="fill:#15d8d8; stroke-width:1; stroke:black; " description="&lt;b&gt;CES92_RS11480&lt;/b&gt;&lt;br&gt;(2,3-dihydroxybenzoyl)adenylate synthase&lt;br&gt;Location: 2316121 - 2314511&lt;br&gt;&lt;br&gt;&lt;b&gt;BlastP hit with MCIC6FC_016893&lt;/b&gt;&lt;br&gt;Percentage identity: 73&lt;br&gt;Percentage coverage: 45&lt;br&gt;BLAST bit score: 738&lt;br&gt;E-value: 1.4e-210" locus_tag="CES92_RS11480" class="clusterblast-orf" id="dummy-1_h1_8_25"  />
</g>
<g id="a1_0026"  >
<polygon points="483,90 491,90 496,85 491,80 483,80 483,90 " style="fill:#15d8d8; stroke-width:1; stroke:black; " description="&lt;b&gt;CES92_RS11475&lt;/b&gt;&lt;br&gt;isochorismatase&lt;br&gt;Location: 2314500 - 2313646&lt;br&gt;&lt;br&gt;&lt;b&gt;BlastP hit with MCIC6FC_016893&lt;/b&gt;&lt;br&gt;Percentage identity: 78&lt;br&gt;Percentage coverage: 20&lt;br&gt;BLAST bit score: 357&lt;br&gt;E-value: 6.6e-96" locus_tag="CES92_RS11475" class="clusterblast-orf" id="dummy-1_h1_8_26"  />
</g>
<g id="a1_0027"  >
<polygon points="496,90 503,90 508,85 503,80 496,80 496,90 " style="fill:white; stroke-width:1; stroke:black; " description="&lt;b&gt;CES92_RS11470&lt;/b&gt;&lt;br&gt;2,3-dihydro-2,3-dihydroxybenzoate dehydrogenase&lt;br&gt;Location: 2313649 - 2312894" locus_tag="CES92_RS11470" class="clusterblast-orf" id="dummy-1_h1_8_27"  />
</g>
<g id="a1_0028"  >
<polygon points="508,90 509,90 514,85 509,80 508,80 508,90 " style="fill:white; stroke-width:1; stroke:black; " description="&lt;b&gt;CES92_RS11465&lt;/b&gt;&lt;br&gt;proofreading thioesterase EntH&lt;br&gt;Location: 2312893 - 2312480" locus_tag="CES92_RS11465" class="clusterblast-orf" id="dummy-1_h1_8_28"  />
</g>
<g id="a1_0029"  >
<polygon points="517,90 544,90 549,85 544,80 517,80 517,90 " style="fill:white; stroke-width:1; stroke:black; " description="&lt;b&gt;CES92_RS11460&lt;/b&gt;&lt;br&gt;carbon starvation protein CstA&lt;br&gt;Location: 2312334 - 2310229" locus_tag="CES92_RS11460" class="clusterblast-orf" id="dummy-1_h1_8_29"  />
</g>
<g id="a1_0030"  >
<polygon points="550,90 553,85 550,80 550,90 " style="fill:white; stroke-width:1; stroke:black; " description="&lt;b&gt;CES92_RS11455&lt;/b&gt;&lt;br&gt;YbdD/YjiX family protein&lt;br&gt;Location: 2310169 - 2309972" locus_tag="CES92_RS11455" class="clusterblast-orf" id="dummy-1_h1_8_30"  />
</g>
<g id="a1_0031"  >
<polygon points="553,85 558,80 559,80 559,90 558,90 553,85 " style="fill:white; stroke-width:1; stroke:black; " description="&lt;b&gt;CES92_RS11450&lt;/b&gt;&lt;br&gt;helix-turn-helix transcriptional regulator&lt;br&gt;Location: 2309975 - 2309571" locus_tag="CES92_RS11450" class="clusterblast-orf" id="dummy-1_h1_8_31"  />
</g>
<g id="a1_0032"  >
<polygon points="559,85 564,80 564,80 564,90 564,90 559,85 " style="fill:white; stroke-width:1; stroke:black; " description="&lt;b&gt;CES92_RS11445&lt;/b&gt;&lt;br&gt;type II toxin-antitoxin system RelE/ParE family toxin&lt;br&gt;Location: 2309590 - 2309294" locus_tag="CES92_RS11445" class="clusterblast-orf" id="dummy-1_h1_8_32"  />
</g>
<g id="a1_0033"  >
<polygon points="566,85 571,80 578,80 578,90 571,90 566,85 " style="fill:white; stroke-width:1; stroke:black; " description="&lt;b&gt;CES92_RS11440&lt;/b&gt;&lt;br&gt;3-oxoacyl-ACP reductase FabG&lt;br&gt;Location: 2309110 - 2308367" locus_tag="CES92_RS11440" class="clusterblast-orf" id="dummy-1_h1_8_33"  />
</g>
<g id="a1_0034"  >
<polygon points="579,85 584,80 596,80 596,90 584,90 579,85 " style="fill:white; stroke-width:1; stroke:black; " description="&lt;b&gt;CES92_RS11435&lt;/b&gt;&lt;br&gt;oxidoreductase&lt;br&gt;Location: 2308309 - 2307221" locus_tag="CES92_RS11435" class="clusterblast-orf" id="dummy-1_h1_8_34"  />
</g>
<g id="a1_0035"  >
<polygon points="598,90 616,90 621,85 616,80 598,80 598,90 " style="fill:white; stroke-width:1; stroke:black; " description="&lt;b&gt;CES92_RS11430&lt;/b&gt;&lt;br&gt;sugar ABC transporter ATP-binding protein&lt;br&gt;Location: 2307061 - 2305559" locus_tag="CES92_RS11430" class="clusterblast-orf" id="dummy-1_h1_8_35"  />
</g>
<g id="a1_0036"  >
<polygon points="621,90 632,90 637,85 632,80 621,80 621,90 " style="fill:white; stroke-width:1; stroke:black; " description="&lt;b&gt;CES92_RS11425&lt;/b&gt;&lt;br&gt;ABC transporter permease&lt;br&gt;Location: 2305562 - 2304567" locus_tag="CES92_RS11425" class="clusterblast-orf" id="dummy-1_h1_8_36"  />
</g>
<g id="a1_0037"  >
<polygon points="637,90 648,90 653,85 648,80 637,80 637,90 " style="fill:white; stroke-width:1; stroke:black; " description="&lt;b&gt;CES92_RS11420&lt;/b&gt;&lt;br&gt;sugar ABC transporter substrate-binding protein&lt;br&gt;Location: 2304547 - 2303483" locus_tag="CES92_RS11420" class="clusterblast-orf" id="dummy-1_h1_8_37"  />
</g>
<g id="a1_0038"  >
<polygon points="655,90 669,90 674,85 669,80 655,80 655,90 " style="fill:white; stroke-width:1; stroke:black; " description="&lt;b&gt;CES92_RS11415&lt;/b&gt;&lt;br&gt;hypothetical protein&lt;br&gt;Location: 2303399 - 2302158" locus_tag="CES92_RS11415" class="clusterblast-orf" id="dummy-1_h1_8_38"  />
</g>
<g id="a1_0039"  >
<polygon points="675,85 680,80 694,80 694,90 680,90 675,85 " style="fill:white; stroke-width:1; stroke:black; " description="&lt;b&gt;CES92_RS11410&lt;/b&gt;&lt;br&gt;S-methyl-5-thioribose kinase&lt;br&gt;Location: 2302068 - 2300869" locus_tag="CES92_RS11410" class="clusterblast-orf" id="dummy-1_h1_8_39"  />
</g>
<g id="a1_0040"  >
<polygon points="695,90 706,90 711,85 706,80 695,80 695,90 " style="fill:white; stroke-width:1; stroke:black; " description="&lt;b&gt;CES92_RS11405&lt;/b&gt;&lt;br&gt;S-methyl-5-thioribose-1-phosphate isomerase&lt;br&gt;Location: 2300764 - 2299748" locus_tag="CES92_RS11405" class="clusterblast-orf" id="dummy-1_h1_8_40"  />
</g>
<g id="a1_0041"  >
<polygon points="712,90 714,90 719,85 714,80 712,80 712,90 " style="fill:white; stroke-width:1; stroke:black; " description="&lt;b&gt;CES92_RS11400&lt;/b&gt;&lt;br&gt;SRPBCC family protein&lt;br&gt;Location: 2299705 - 2299235" locus_tag="CES92_RS11400" class="clusterblast-orf" id="dummy-1_h1_8_41"  />
</g>
<g id="a1_0042"  >
<polygon points="720,85 725,80 728,80 728,90 725,90 720,85 " style="fill:white; stroke-width:1; stroke:black; " description="&lt;b&gt;CES92_RS11395&lt;/b&gt;&lt;br&gt;acireductone dioxygenase&lt;br&gt;Location: 2299181 - 2298639" locus_tag="CES92_RS11395" class="clusterblast-orf" id="dummy-1_h1_8_42"  />
</g>
<g id="a1_0043"  >
<polygon points="728,85 733,80 739,80 739,90 733,90 728,85 " style="fill:white; stroke-width:1; stroke:black; " description="&lt;b&gt;CES92_RS11390&lt;/b&gt;&lt;br&gt;acireductone synthase&lt;br&gt;Location: 2298642 - 2297953" locus_tag="CES92_RS11390" class="clusterblast-orf" id="dummy-1_h1_8_43"  />
</g>
<g id="a1_0044"  >
<polygon points="739,85 744,80 748,80 748,90 744,90 739,85 " style="fill:white; stroke-width:1; stroke:black; " description="&lt;b&gt;CES92_RS11385&lt;/b&gt;&lt;br&gt;methylthioribulose 1-phosphate dehydratase&lt;br&gt;Location: 2297956 - 2297342" locus_tag="CES92_RS11385" class="clusterblast-orf" id="dummy-1_h1_8_44"  />
</g>
<g id="a1_0045"  >
<polygon points="752,90 765,90 770,85 765,80 752,80 752,90 " style="fill:white; stroke-width:1; stroke:black; " description="&lt;b&gt;CES92_RS11380&lt;/b&gt;&lt;br&gt;pyridoxal phosphate-dependent aminotransferase&lt;br&gt;Location: 2297093 - 2295933" locus_tag="CES92_RS11380" class="clusterblast-orf" id="dummy-1_h1_8_45"  />
</g>
<g id="a1_0046"  >
<polygon points="770,85 775,80 780,80 780,90 775,90 770,85 " style="fill:white; stroke-width:1; stroke:black; " description="&lt;b&gt;CES92_RS11375&lt;/b&gt;&lt;br&gt;ParB-like nuclease domain-containing protein&lt;br&gt;Location: 2295932 - 2295306" locus_tag="CES92_RS11375" class="clusterblast-orf" id="dummy-1_h1_8_46"  />
</g>
</svg>
