<svg xmlns="http://www.w3.org/2000/svg" xmlns:xlink="http://www.w3.org/1999/xlink" version="1.1" x="0" y="0" height="230" width="800" viewBox="0 0 800 230" preserveAspectRatio="none"  >
<g label="Query sequence" class="clusterblast-cluster"  >
<text x="5" y="20" class="clusterblast-acc"  >
Query sequence</text>
<line x1="10" y1="35" x2="778.0" y2="35" style="stroke-width:1; stroke:grey; "  />
<polygon points="149,35 154,30 165,30 165,40 154,40 149,35 " style="fill:#d81515; stroke-width:1; stroke:black; " description="&lt;b&gt;MCIC6FC_009770&lt;/b&gt;&lt;br&gt;hypothetical protein&lt;br&gt;Location: 290 - 699" locus_tag="MCIC6FC_009770" class="clusterblast-orf" id="dummy-1_q0_0_all"  />
<polygon points="198,35 203,30 328,30 328,40 203,40 198,35 " style="fill:#15d863; stroke-width:1; stroke:black; " description="&lt;b&gt;MCIC6FC_009771&lt;/b&gt;&lt;br&gt;hypothetical protein&lt;br&gt;Location: 1547 - 4931" locus_tag="MCIC6FC_009771" class="clusterblast-orf" id="dummy-1_q1_0_all"  />
<polygon points="364,35 369,30 428,30 428,40 369,40 364,35 " style="fill:#1563d8; stroke-width:1; stroke:black; " description="&lt;b&gt;MCIC6FC_009772&lt;/b&gt;&lt;br&gt;hypothetical protein&lt;br&gt;Location: 5866 - 7516" locus_tag="MCIC6FC_009772" class="clusterblast-orf" id="dummy-1_q2_0_all"  />
<polygon points="499,35 504,30 559,30 559,40 504,40 499,35 " style="fill:#b115d8; stroke-width:1; stroke:black; " description="&lt;b&gt;MCIC6FC_009773&lt;/b&gt;&lt;br&gt;hypothetical protein&lt;br&gt;Location: 9357 - 10920" locus_tag="MCIC6FC_009773" class="clusterblast-orf" id="dummy-1_q3_0_all"  />
<polygon points="561,40 625,40 630,35 625,30 561,30 561,40 " style="fill:#b1d815; stroke-width:1; stroke:black; " description="&lt;b&gt;MCIC6FC_009774&lt;/b&gt;&lt;br&gt;hypothetical protein&lt;br&gt;Location: 10967 - 12763" locus_tag="MCIC6FC_009774" class="clusterblast-orf" id="dummy-1_q4_0_all"  />
</g>
<g label="NZ_CP034148" description="NZ_CP034148 (539257-559480): Pantoea agglomerans strain L15 chromosome, compl... (30% of genes show similarity), hserlactone" class="clusterblast-cluster"  >
<text x="5" y="70" class="clusterblast-acc"  >
<a xlink:href="https://antismash-db.secondarymetabolites.org/area.html?record=NZ_CP034148&amp;start=539257&amp;end=559480" target="_blank">NZ_CP034148 (539257-559480)</a>: Pantoea agglomerans strain L15 chromosome, compl... (30% of genes show similarity), hserlactone</text>
<line x1="10" y1="85" x2="778.0" y2="85" style="stroke-width:1; stroke:grey; "  />
</g>
<g id="a1_000"  >
<polygon points="0,90 53,90 58,85 53,80 0,80 0,90 " style="fill:white; stroke-width:1; stroke:black; " description="&lt;b&gt;CBF16_RS02585&lt;/b&gt;&lt;br&gt;transcription antiterminator&lt;br&gt;Location: 559480 - 557966" locus_tag="CBF16_RS02585" class="clusterblast-orf" id="dummy-1_h1_10_0"  />
</g>
<g id="a1_001"  >
<polygon points="59,90 72,90 77,85 72,80 59,80 59,90 " style="fill:white; stroke-width:1; stroke:black; " description="&lt;b&gt;CBF16_RS02580&lt;/b&gt;&lt;br&gt;PTS sugar transporter subunit IIA&lt;br&gt;Location: 557947 - 557474" locus_tag="CBF16_RS02580" class="clusterblast-orf" id="dummy-1_h1_10_1"  />
</g>
<g id="a1_002"  >
<polygon points="81,90 131,90 136,85 131,80 81,80 81,90 " style="fill:white; stroke-width:1; stroke:black; " description="&lt;b&gt;CBF16_RS02575&lt;/b&gt;&lt;br&gt;PTS transporter subunit EIIC&lt;br&gt;Location: 557366 - 555942" locus_tag="CBF16_RS02575" class="clusterblast-orf" id="dummy-1_h1_10_2"  />
</g>
<g id="a1_003"  >
<polygon points="136,90 164,90 169,85 164,80 136,80 136,90 " style="fill:white; stroke-width:1; stroke:black; " description="&lt;b&gt;CBF16_RS02570&lt;/b&gt;&lt;br&gt;ketose-bisphosphate aldolase&lt;br&gt;Location: 555936 - 555076" locus_tag="CBF16_RS02570" class="clusterblast-orf" id="dummy-1_h1_10_3"  />
</g>
<g id="a1_004"  >
<polygon points="178,85 183,80 197,80 197,90 183,90 178,85 " style="fill:#d81515; stroke-width:1; stroke:black; " description="&lt;b&gt;CBF16_RS02565&lt;/b&gt;&lt;br&gt;Hcp family type VI secretion system effector&lt;br&gt;Location: 554844 - 554359&lt;br&gt;&lt;br&gt;&lt;b&gt;BlastP hit with MCIC6FC_009770&lt;/b&gt;&lt;br&gt;Percentage identity: 98&lt;br&gt;Percentage coverage: 93&lt;br&gt;BLAST bit score: 255&lt;br&gt;E-value: 2.4e-66" locus_tag="CBF16_RS02565" class="clusterblast-orf" id="dummy-1_h1_10_4"  />
</g>
<g id="a1_005"  >
<polygon points="197,85 202,80 217,80 217,90 202,90 197,85 " style="fill:white; stroke-width:1; stroke:black; " description="&lt;b&gt;CBF16_RS02560&lt;/b&gt;&lt;br&gt;hypothetical protein&lt;br&gt;Location: 554357 - 553836" locus_tag="CBF16_RS02560" class="clusterblast-orf" id="dummy-1_h1_10_5"  />
</g>
<g id="a1_006"  >
<polygon points="216,85 221,80 236,80 236,90 221,90 216,85 " style="fill:white; stroke-width:1; stroke:black; " description="&lt;b&gt;CBF16_RS02555&lt;/b&gt;&lt;br&gt;DUF2778 domain-containing protein&lt;br&gt;Location: 553855 - 553340" locus_tag="CBF16_RS02555" class="clusterblast-orf" id="dummy-1_h1_10_6"  />
</g>
<g id="a1_007"  >
<polygon points="246,90 251,90 256,85 251,80 246,80 246,90 " style="fill:white; stroke-width:1; stroke:black; " description="&lt;b&gt;CBF16_RS02550&lt;/b&gt;&lt;br&gt;ketose-bisphosphate aldolase&lt;br&gt;Location: 553101 - 552838" locus_tag="CBF16_RS02550" class="clusterblast-orf" id="dummy-1_h1_10_7"  />
</g>
<g id="a1_008"  >
<polygon points="261,85 266,80 272,80 272,90 266,90 261,85 " style="fill:white; stroke-width:1; stroke:black; " description="&lt;b&gt;CBF16_RS02545&lt;/b&gt;&lt;br&gt;type II toxin-antitoxin system RelE/ParE family toxin&lt;br&gt;Location: 552699 - 552424" locus_tag="CBF16_RS02545" class="clusterblast-orf" id="dummy-1_h1_10_8"  />
</g>
<g id="a1_009"  >
<polygon points="272,85 277,80 281,80 281,90 277,90 272,85 " style="fill:#15d863; stroke-width:1; stroke:black; " description="&lt;b&gt;CBF16_RS02540&lt;/b&gt;&lt;br&gt;ribbon-helix-helix protein, CopG family&lt;br&gt;Location: 552420 - 552172&lt;br&gt;&lt;br&gt;&lt;b&gt;BlastP hit with MCIC6FC_009771&lt;/b&gt;&lt;br&gt;Percentage identity: 85&lt;br&gt;Percentage coverage: 17&lt;br&gt;BLAST bit score: 119&lt;br&gt;E-value: 6.4e-25" locus_tag="CBF16_RS02540" class="clusterblast-orf" id="dummy-1_h1_10_9"  />
</g>
<g id="a1_0010"  >
<polygon points="293,85 298,80 323,80 323,90 298,90 293,85 " style="fill:#15d863; stroke-width:1; stroke:black; " description="&lt;b&gt;CBF16_RS02535&lt;/b&gt;&lt;br&gt;CDP-diacylglycerol diphosphatase&lt;br&gt;Location: 551866 - 551090&lt;br&gt;&lt;br&gt;&lt;b&gt;BlastP hit with MCIC6FC_009771&lt;/b&gt;&lt;br&gt;Percentage identity: 98&lt;br&gt;Percentage coverage: 56&lt;br&gt;BLAST bit score: 499&lt;br&gt;E-value: 3e-139" locus_tag="CBF16_RS02535" class="clusterblast-orf" id="dummy-1_h1_10_10"  />
</g>
<g id="a1_0011"  >
<polygon points="328,85 333,80 333,80 333,90 333,90 328,85 " style="fill:white; stroke-width:1; stroke:black; " description="&lt;b&gt;CBF16_RS02530&lt;/b&gt;&lt;br&gt;hypothetical protein&lt;br&gt;Location: 550974 - 550840" locus_tag="CBF16_RS02530" class="clusterblast-orf" id="dummy-1_h1_10_11"  />
</g>
<g id="a1_0012"  >
<polygon points="349,90 371,90 376,85 371,80 349,80 349,90 " style="fill:white; stroke-width:1; stroke:black; " description="&lt;b&gt;CBF16_RS02525&lt;/b&gt;&lt;br&gt;LuxR family transcriptional regulator&lt;br&gt;Location: 550423 - 549731" locus_tag="CBF16_RS02525" class="clusterblast-orf" id="dummy-1_h1_10_12"  />
</g>
<g id="a1_0013"  >
<polygon points="376,85 381,80 401,80 401,90 381,90 376,85 " style="fill:#1563d8; stroke-width:1; stroke:black; " description="&lt;b&gt;CBF16_RS02520&lt;/b&gt;&lt;br&gt;GNAT family N-acetyltransferase&lt;br&gt;Location: 549716 - 549078&lt;br&gt;&lt;br&gt;&lt;b&gt;BlastP hit with MCIC6FC_009772&lt;/b&gt;&lt;br&gt;Percentage identity: 95&lt;br&gt;Percentage coverage: 72&lt;br&gt;BLAST bit score: 365&lt;br&gt;E-value: 4e-99" locus_tag="CBF16_RS02520" class="clusterblast-orf" id="dummy-1_h1_10_13"  />
</g>
<g id="a1_0014"  >
<polygon points="459,85 464,80 480,80 480,90 464,90 459,85 " style="fill:white; stroke-width:1; stroke:black; " description="&lt;b&gt;CBF16_RS02515&lt;/b&gt;&lt;br&gt;DUF2778 domain-containing protein&lt;br&gt;Location: 547556 - 547029" locus_tag="CBF16_RS02515" class="clusterblast-orf" id="dummy-1_h1_10_14"  />
</g>
<g id="a1_0015"  >
<polygon points="508,85 513,80 521,80 521,90 513,90 508,85 " style="fill:#b115d8; stroke-width:1; stroke:black; " description="&lt;b&gt;CBF16_RS02510&lt;/b&gt;&lt;br&gt;endoribonuclease SymE&lt;br&gt;Location: 546297 - 545968&lt;br&gt;&lt;br&gt;&lt;b&gt;BlastP hit with MCIC6FC_009773&lt;/b&gt;&lt;br&gt;Percentage identity: 100&lt;br&gt;Percentage coverage: 38&lt;br&gt;BLAST bit score: 210&lt;br&gt;E-value: 1.8e-52" locus_tag="CBF16_RS02510" class="clusterblast-orf" id="dummy-1_h1_10_15"  />
</g>
<g id="a1_0016"  >
<polygon points="541,85 546,80 553,80 553,90 546,90 541,85 " style="fill:#b115d8; stroke-width:1; stroke:black; " description="&lt;b&gt;CBF16_RS02505&lt;/b&gt;&lt;br&gt;DNA-binding transcriptional regulator&lt;br&gt;Location: 545446 - 545129&lt;br&gt;&lt;br&gt;&lt;b&gt;BlastP hit with MCIC6FC_009773&lt;/b&gt;&lt;br&gt;Percentage identity: 76&lt;br&gt;Percentage coverage: 34&lt;br&gt;BLAST bit score: 139&lt;br&gt;E-value: 5.2e-31" locus_tag="CBF16_RS02505" class="clusterblast-orf" id="dummy-1_h1_10_16"  />
</g>
<g id="a1_0017"  >
<polygon points="549,90 553,90 558,85 553,80 549,80 549,90 " style="fill:white; stroke-width:1; stroke:black; " description="&lt;b&gt;CBF16_RS22945&lt;/b&gt;&lt;br&gt;hypothetical protein&lt;br&gt;Location: 545226 - 545002" locus_tag="CBF16_RS22945" class="clusterblast-orf" id="dummy-1_h1_10_17"  />
</g>
<g id="a1_0018"  >
<polygon points="567,85 572,80 703,80 703,90 572,90 567,85 " style="fill:white; stroke-width:1; stroke:black; " description="&lt;b&gt;CBF16_RS02500&lt;/b&gt;&lt;br&gt;DNA helicase&lt;br&gt;Location: 544769 - 541254" locus_tag="CBF16_RS02500" class="clusterblast-orf" id="dummy-1_h1_10_18"  />
</g>
<g id="a1_0019"  >
<polygon points="713,90 775,90 780,85 775,80 713,80 713,90 " style="fill:white; stroke-width:1; stroke:black; " description="&lt;b&gt;CBF16_RS02495&lt;/b&gt;&lt;br&gt;ATP-binding protein&lt;br&gt;Location: 540991 - 539258" locus_tag="CBF16_RS02495" class="clusterblast-orf" id="dummy-1_h1_10_19"  />
</g>
</svg>
