<svg xmlns="http://www.w3.org/2000/svg" xmlns:xlink="http://www.w3.org/1999/xlink" version="1.1" x="0" y="0" height="230" width="800" viewBox="0 0 800 230" preserveAspectRatio="none"  >
<g label="Query sequence" class="clusterblast-cluster"  >
<text x="5" y="20" class="clusterblast-acc"  >
Query sequence</text>
<line x1="10" y1="35" x2="778.0" y2="35" style="stroke-width:1; stroke:grey; "  />
<polygon points="191,40 288,40 293,35 288,30 191,30 191,40 " style="fill:#d81515; stroke-width:1; stroke:black; " description="&lt;b&gt;MCIC6FC_016886&lt;/b&gt;&lt;br&gt;hypothetical protein&lt;br&gt;Location: 31 - 6733" locus_tag="MCIC6FC_016886" class="clusterblast-orf" id="dummy-1_q0_0_all"  />
<polygon points="300,35 305,30 317,30 317,40 305,40 300,35 " style="fill:#15d815; stroke-width:1; stroke:black; " description="&lt;b&gt;MCIC6FC_016887&lt;/b&gt;&lt;br&gt;hypothetical protein&lt;br&gt;Location: 7172 - 8310" locus_tag="MCIC6FC_016887" class="clusterblast-orf" id="dummy-1_q1_0_all"  />
<polygon points="319,35 324,30 330,30 330,40 324,40 319,35 " style="fill:#15d815; stroke-width:1; stroke:black; " description="&lt;b&gt;MCIC6FC_016888&lt;/b&gt;&lt;br&gt;hypothetical protein&lt;br&gt;Location: 8475 - 9192" locus_tag="MCIC6FC_016888" class="clusterblast-orf" id="dummy-1_q2_0_all"  />
<polygon points="341,40 449,40 454,35 449,30 341,30 341,40 " style="fill:#1515d8; stroke-width:1; stroke:black; " description="&lt;b&gt;MCIC6FC_016889&lt;/b&gt;&lt;br&gt;hypothetical protein&lt;br&gt;Location: 9882 - 17276" locus_tag="MCIC6FC_016889" class="clusterblast-orf" id="dummy-1_q3_0_all"  />
<polygon points="455,40 458,40 463,35 458,30 455,30 455,40 " style="fill:white; stroke-width:1; stroke:black; " description="&lt;b&gt;MCIC6FC_016890&lt;/b&gt;&lt;br&gt;hypothetical protein&lt;br&gt;Location: 17354 - 17893" locus_tag="MCIC6FC_016890" class="clusterblast-orf" id="dummy-1_q4_0_all"  />
<polygon points="464,35 469,30 495,30 495,40 469,40 464,35 " style="fill:#d815d8; stroke-width:1; stroke:black; " description="&lt;b&gt;MCIC6FC_016891&lt;/b&gt;&lt;br&gt;hypothetical protein&lt;br&gt;Location: 17927 - 19999" locus_tag="MCIC6FC_016891" class="clusterblast-orf" id="dummy-1_q5_0_all"  />
<polygon points="500,40 508,40 513,35 508,30 500,30 500,40 " style="fill:#d8d815; stroke-width:1; stroke:black; " description="&lt;b&gt;MCIC6FC_016892&lt;/b&gt;&lt;br&gt;hypothetical protein&lt;br&gt;Location: 20291 - 21151" locus_tag="MCIC6FC_016892" class="clusterblast-orf" id="dummy-1_q6_0_all"  />
<polygon points="521,40 584,40 589,35 584,30 521,30 521,40 " style="fill:#15d8d8; stroke-width:1; stroke:black; " description="&lt;b&gt;MCIC6FC_016893&lt;/b&gt;&lt;br&gt;hypothetical protein&lt;br&gt;Location: 21717 - 26130" locus_tag="MCIC6FC_016893" class="clusterblast-orf" id="dummy-1_q7_0_all"  />
</g>
<g label="NZ_CP017184" description="NZ_CP017184 (1169117-1221218): Enterobacter roggenkampii strain DSM 16690 chr... (18% of genes show similarity), NRPS" class="clusterblast-cluster"  >
<text x="5" y="70" class="clusterblast-acc"  >
<a xlink:href="https://antismash-db.secondarymetabolites.org/area.html?record=NZ_CP017184&amp;start=1169117&amp;end=1221218" target="_blank">NZ_CP017184 (1169117-1221218)</a>: Enterobacter roggenkampii strain DSM 16690 chr... (18% of genes show similarity), NRPS</text>
<line x1="10" y1="85" x2="778.0" y2="85" style="stroke-width:1; stroke:grey; "  />
</g>
<g id="a1_000"  >
<polygon points="0,85 5,80 9,80 9,90 5,90 0,85 " style="fill:white; stroke-width:1; stroke:black; " description="&lt;b&gt;BFV67_RS05385&lt;/b&gt;&lt;br&gt;hypothetical protein&lt;br&gt;Location: 1169876 - 1170523" locus_tag="BFV67_RS05385" class="clusterblast-orf" id="dummy-1_h1_6_0"  />
</g>
<g id="a1_001"  >
<polygon points="9,85 14,80 18,80 18,90 14,90 9,85 " style="fill:white; stroke-width:1; stroke:black; " description="&lt;b&gt;BFV67_RS05390&lt;/b&gt;&lt;br&gt;sigma-70 family RNA polymerase sigma factor&lt;br&gt;Location: 1170520 - 1171074" locus_tag="BFV67_RS05390" class="clusterblast-orf" id="dummy-1_h1_6_1"  />
</g>
<g id="a1_002"  >
<polygon points="18,85 23,80 27,80 27,90 23,90 18,85 " style="fill:white; stroke-width:1; stroke:black; " description="&lt;b&gt;BFV67_RS05395&lt;/b&gt;&lt;br&gt;fasciclin domain-containing protein&lt;br&gt;Location: 1171118 - 1171681" locus_tag="BFV67_RS05395" class="clusterblast-orf" id="dummy-1_h1_6_2"  />
</g>
<g id="a1_003"  >
<polygon points="29,85 34,80 55,80 55,90 34,90 29,85 " style="fill:white; stroke-width:1; stroke:black; " description="&lt;b&gt;BFV67_RS05400&lt;/b&gt;&lt;br&gt;choline dehydrogenase&lt;br&gt;Location: 1171825 - 1173489" locus_tag="BFV67_RS05400" class="clusterblast-orf" id="dummy-1_h1_6_3"  />
</g>
<g id="a1_004"  >
<polygon points="55,85 60,80 77,80 77,90 60,90 55,85 " style="fill:white; stroke-width:1; stroke:black; " description="&lt;b&gt;BFV67_RS05405&lt;/b&gt;&lt;br&gt;betaine-aldehyde dehydrogenase&lt;br&gt;Location: 1173503 - 1174975" locus_tag="BFV67_RS05405" class="clusterblast-orf" id="dummy-1_h1_6_4"  />
</g>
<g id="a1_005"  >
<polygon points="77,85 82,80 86,80 86,90 82,90 77,85 " style="fill:white; stroke-width:1; stroke:black; " description="&lt;b&gt;BFV67_RS05410&lt;/b&gt;&lt;br&gt;transcriptional regulator BetI&lt;br&gt;Location: 1174989 - 1175576" locus_tag="BFV67_RS05410" class="clusterblast-orf" id="dummy-1_h1_6_5"  />
</g>
<g id="a1_006"  >
<polygon points="88,90 114,90 119,85 114,80 88,80 88,90 " style="fill:white; stroke-width:1; stroke:black; " description="&lt;b&gt;BFV67_RS05415&lt;/b&gt;&lt;br&gt;choline BCCT transporter BetT&lt;br&gt;Location: 1175705 - 1177738" locus_tag="BFV67_RS05415" class="clusterblast-orf" id="dummy-1_h1_6_6"  />
</g>
<g id="a1_007"  >
<polygon points="130,90 131,90 136,85 131,80 130,80 130,90 " style="fill:white; stroke-width:1; stroke:black; " description="&lt;b&gt;BFV67_RS05420&lt;/b&gt;&lt;br&gt;hypothetical protein&lt;br&gt;Location: 1178416 - 1178796" locus_tag="BFV67_RS05420" class="clusterblast-orf" id="dummy-1_h1_6_7"  />
</g>
<g id="a1_008"  >
<polygon points="137,90 140,90 145,85 140,80 137,80 137,90 " style="fill:white; stroke-width:1; stroke:black; " description="&lt;b&gt;BFV67_RS05425&lt;/b&gt;&lt;br&gt;hypothetical protein&lt;br&gt;Location: 1178866 - 1179426" locus_tag="BFV67_RS05425" class="clusterblast-orf" id="dummy-1_h1_6_8"  />
</g>
<g id="a1_009"  >
<polygon points="147,90 150,90 155,85 150,80 147,80 147,90 " style="fill:white; stroke-width:1; stroke:black; " description="&lt;b&gt;BFV67_RS05430&lt;/b&gt;&lt;br&gt;fimbrial protein&lt;br&gt;Location: 1179530 - 1180084" locus_tag="BFV67_RS05430" class="clusterblast-orf" id="dummy-1_h1_6_9"  />
</g>
<g id="a1_0010"  >
<polygon points="156,90 161,90 166,85 161,80 156,80 156,90 " style="fill:#1515d8; stroke-width:1; stroke:black; " description="&lt;b&gt;BFV67_RS05435&lt;/b&gt;&lt;br&gt;molecular chaperone&lt;br&gt;Location: 1180142 - 1180822&lt;br&gt;&lt;br&gt;&lt;b&gt;BlastP hit with MCIC6FC_016889&lt;/b&gt;&lt;br&gt;Percentage identity: 34&lt;br&gt;Percentage coverage: 13&lt;br&gt;BLAST bit score: 130&lt;br&gt;E-value: 1.4e-27" locus_tag="BFV67_RS05435" class="clusterblast-orf" id="dummy-1_h1_6_10"  />
</g>
<g id="a1_0011"  >
<polygon points="169,90 200,90 205,85 200,80 169,80 169,90 " style="fill:#1515d8; stroke-width:1; stroke:black; " description="&lt;b&gt;BFV67_RS05440&lt;/b&gt;&lt;br&gt;fimbrial biogenesis outer membrane usher protein&lt;br&gt;Location: 1180995 - 1183358&lt;br&gt;&lt;br&gt;&lt;b&gt;BlastP hit with MCIC6FC_016889&lt;/b&gt;&lt;br&gt;Percentage identity: 35&lt;br&gt;Percentage coverage: 47&lt;br&gt;BLAST bit score: 404&lt;br&gt;E-value: 3.9e-110" locus_tag="BFV67_RS05440" class="clusterblast-orf" id="dummy-1_h1_6_11"  />
</g>
<g id="a1_0012"  >
<polygon points="206,90 216,90 221,85 216,80 206,80 206,90 " style="fill:white; stroke-width:1; stroke:black; " description="&lt;b&gt;BFV67_RS05445&lt;/b&gt;&lt;br&gt;type 1 fimbrial protein&lt;br&gt;Location: 1183421 - 1184416" locus_tag="BFV67_RS05445" class="clusterblast-orf" id="dummy-1_h1_6_12"  />
</g>
<g id="a1_0013"  >
<polygon points="224,85 229,80 233,80 233,90 229,90 224,85 " style="fill:white; stroke-width:1; stroke:black; " description="&lt;b&gt;BFV67_RS05450&lt;/b&gt;&lt;br&gt;enterobactin synthase subunit EntD&lt;br&gt;Location: 1184578 - 1185219" locus_tag="BFV67_RS05450" class="clusterblast-orf" id="dummy-1_h1_6_13"  />
</g>
<g id="a1_0014"  >
<polygon points="235,85 240,80 269,80 269,90 240,90 235,85 " style="fill:white; stroke-width:1; stroke:black; " description="&lt;b&gt;BFV67_RS05455&lt;/b&gt;&lt;br&gt;TonB-dependent siderophore receptor&lt;br&gt;Location: 1185305 - 1187554" locus_tag="BFV67_RS05455" class="clusterblast-orf" id="dummy-1_h1_6_14"  />
</g>
<g id="a1_0015"  >
<polygon points="271,90 285,90 290,85 285,80 271,80 271,90 " style="fill:white; stroke-width:1; stroke:black; " description="&lt;b&gt;BFV67_RS05460&lt;/b&gt;&lt;br&gt;enterochelin esterase&lt;br&gt;Location: 1187699 - 1188898" locus_tag="BFV67_RS05460" class="clusterblast-orf" id="dummy-1_h1_6_15"  />
</g>
<g id="a1_0016"  >
<polygon points="290,90 293,85 290,80 290,90 " style="fill:white; stroke-width:1; stroke:black; " description="&lt;b&gt;BFV67_RS05465&lt;/b&gt;&lt;br&gt;MbtH family NRPS accessory protein&lt;br&gt;Location: 1188909 - 1189121" locus_tag="BFV67_RS05465" class="clusterblast-orf" id="dummy-1_h1_6_16"  />
</g>
<g id="a1_0017"  >
<polygon points="293,90 347,90 352,85 347,80 293,80 293,90 " style="fill:#d81515; stroke-width:1; stroke:black; " description="&lt;b&gt;BFV67_RS05470&lt;/b&gt;&lt;br&gt;enterobactin non-ribosomal peptide synthetase EntF&lt;br&gt;Location: 1189118 - 1192975&lt;br&gt;&lt;br&gt;&lt;b&gt;BlastP hit with MCIC6FC_016886&lt;/b&gt;&lt;br&gt;Percentage identity: 63&lt;br&gt;Percentage coverage: 77&lt;br&gt;BLAST bit score: 1475&lt;br&gt;E-value: 0.0" locus_tag="BFV67_RS05470" class="clusterblast-orf" id="dummy-1_h1_6_17"  />
</g>
<g id="a1_0018"  >
<polygon points="353,85 358,80 365,80 365,90 358,90 353,85 " style="fill:white; stroke-width:1; stroke:black; " description="&lt;b&gt;BFV67_RS05475&lt;/b&gt;&lt;br&gt;iron-enterobactin ABC transporter ATP-binding protein&lt;br&gt;Location: 1193063 - 1193857" locus_tag="BFV67_RS05475" class="clusterblast-orf" id="dummy-1_h1_6_18"  />
</g>
<g id="a1_0019"  >
<polygon points="365,85 370,80 380,80 380,90 370,90 365,85 " style="fill:#d815d8; stroke-width:1; stroke:black; " description="&lt;b&gt;BFV67_RS05480&lt;/b&gt;&lt;br&gt;iron-enterobactin ABC transporter permease&lt;br&gt;Location: 1193854 - 1194846&lt;br&gt;&lt;br&gt;&lt;b&gt;BlastP hit with MCIC6FC_016891&lt;/b&gt;&lt;br&gt;Percentage identity: 56&lt;br&gt;Percentage coverage: 55&lt;br&gt;BLAST bit score: 272&lt;br&gt;E-value: 9.6e-71" locus_tag="BFV67_RS05480" class="clusterblast-orf" id="dummy-1_h1_6_19"  />
</g>
<g id="a1_0020"  >
<polygon points="380,85 385,80 395,80 395,90 385,90 380,85 " style="fill:#d815d8; stroke-width:1; stroke:black; " description="&lt;b&gt;BFV67_RS05485&lt;/b&gt;&lt;br&gt;Fe(3+)-siderophore ABC transporter permease&lt;br&gt;Location: 1194843 - 1195847&lt;br&gt;&lt;br&gt;&lt;b&gt;BlastP hit with MCIC6FC_016891&lt;/b&gt;&lt;br&gt;Percentage identity: 65&lt;br&gt;Percentage coverage: 55&lt;br&gt;BLAST bit score: 325&lt;br&gt;E-value: 1.3e-86" locus_tag="BFV67_RS05485" class="clusterblast-orf" id="dummy-1_h1_6_20"  />
</g>
<g id="a1_0021"  >
<polygon points="397,90 411,90 416,85 411,80 397,80 397,90 " style="fill:#d8d815; stroke-width:1; stroke:black; " description="&lt;b&gt;BFV67_RS05490&lt;/b&gt;&lt;br&gt;enterobactin transporter EntS&lt;br&gt;Location: 1195956 - 1197191&lt;br&gt;&lt;br&gt;&lt;b&gt;BlastP hit with MCIC6FC_016892&lt;/b&gt;&lt;br&gt;Percentage identity: 48&lt;br&gt;Percentage coverage: 128&lt;br&gt;BLAST bit score: 150&lt;br&gt;E-value: 1.8e-34" locus_tag="BFV67_RS05490" class="clusterblast-orf" id="dummy-1_h1_6_21"  />
</g>
<g id="a1_0022"  >
<polygon points="417,85 422,80 432,80 432,90 422,90 417,85 " style="fill:white; stroke-width:1; stroke:black; " description="&lt;b&gt;BFV67_RS05495&lt;/b&gt;&lt;br&gt;Fe2+-enterobactin ABC transporter substrate-binding protein&lt;br&gt;Location: 1197275 - 1198234" locus_tag="BFV67_RS05495" class="clusterblast-orf" id="dummy-1_h1_6_22"  />
</g>
<g id="a1_0023"  >
<polygon points="435,90 448,90 453,85 448,80 435,80 435,90 " style="fill:#15d8d8; stroke-width:1; stroke:black; " description="&lt;b&gt;BFV67_RS05500&lt;/b&gt;&lt;br&gt;isochorismate synthase EntC&lt;br&gt;Location: 1198423 - 1199598&lt;br&gt;&lt;br&gt;&lt;b&gt;BlastP hit with MCIC6FC_016893&lt;/b&gt;&lt;br&gt;Percentage identity: 60&lt;br&gt;Percentage coverage: 31&lt;br&gt;BLAST bit score: 395&lt;br&gt;E-value: 2.2e-107" locus_tag="BFV67_RS05500" class="clusterblast-orf" id="dummy-1_h1_6_23"  />
</g>
<g id="a1_0024"  >
<polygon points="453,90 472,90 477,85 472,80 453,80 453,90 " style="fill:#15d8d8; stroke-width:1; stroke:black; " description="&lt;b&gt;BFV67_RS05505&lt;/b&gt;&lt;br&gt;(2,3-dihydroxybenzoyl)adenylate synthase&lt;br&gt;Location: 1199608 - 1201218&lt;br&gt;&lt;br&gt;&lt;b&gt;BlastP hit with MCIC6FC_016893&lt;/b&gt;&lt;br&gt;Percentage identity: 74&lt;br&gt;Percentage coverage: 45&lt;br&gt;BLAST bit score: 742&lt;br&gt;E-value: 7.3e-212" locus_tag="BFV67_RS05505" class="clusterblast-orf" id="dummy-1_h1_6_24"  />
</g>
<g id="a1_0025"  >
<polygon points="478,90 486,90 491,85 486,80 478,80 478,90 " style="fill:#15d8d8; stroke-width:1; stroke:black; " description="&lt;b&gt;BFV67_RS05510&lt;/b&gt;&lt;br&gt;isochorismatase&lt;br&gt;Location: 1201229 - 1202083&lt;br&gt;&lt;br&gt;&lt;b&gt;BlastP hit with MCIC6FC_016893&lt;/b&gt;&lt;br&gt;Percentage identity: 78&lt;br&gt;Percentage coverage: 20&lt;br&gt;BLAST bit score: 357&lt;br&gt;E-value: 5e-96" locus_tag="BFV67_RS05510" class="clusterblast-orf" id="dummy-1_h1_6_25"  />
</g>
<g id="a1_0026"  >
<polygon points="491,90 497,90 502,85 497,80 491,80 491,90 " style="fill:white; stroke-width:1; stroke:black; " description="&lt;b&gt;BFV67_RS05515&lt;/b&gt;&lt;br&gt;2,3-dihydro-2,3-dihydroxybenzoate dehydrogenase&lt;br&gt;Location: 1202080 - 1202835" locus_tag="BFV67_RS05515" class="clusterblast-orf" id="dummy-1_h1_6_26"  />
</g>
<g id="a1_0027"  >
<polygon points="502,90 503,90 508,85 503,80 502,80 502,90 " style="fill:white; stroke-width:1; stroke:black; " description="&lt;b&gt;BFV67_RS05520&lt;/b&gt;&lt;br&gt;proofreading thioesterase EntH&lt;br&gt;Location: 1202836 - 1203249" locus_tag="BFV67_RS05520" class="clusterblast-orf" id="dummy-1_h1_6_27"  />
</g>
<g id="a1_0028"  >
<polygon points="511,90 538,90 543,85 538,80 511,80 511,90 " style="fill:white; stroke-width:1; stroke:black; " description="&lt;b&gt;BFV67_RS05525&lt;/b&gt;&lt;br&gt;carbon starvation protein CstA&lt;br&gt;Location: 1203395 - 1205500" locus_tag="BFV67_RS05525" class="clusterblast-orf" id="dummy-1_h1_6_28"  />
</g>
<g id="a1_0029"  >
<polygon points="544,90 547,85 544,80 544,90 " style="fill:white; stroke-width:1; stroke:black; " description="&lt;b&gt;BFV67_RS05530&lt;/b&gt;&lt;br&gt;YbdD/YjiX family protein&lt;br&gt;Location: 1205561 - 1205758" locus_tag="BFV67_RS05530" class="clusterblast-orf" id="dummy-1_h1_6_29"  />
</g>
<g id="a1_0030"  >
<polygon points="547,85 552,80 553,80 553,90 552,90 547,85 " style="fill:white; stroke-width:1; stroke:black; " description="&lt;b&gt;BFV67_RS05535&lt;/b&gt;&lt;br&gt;helix-turn-helix transcriptional regulator&lt;br&gt;Location: 1205755 - 1206159" locus_tag="BFV67_RS05535" class="clusterblast-orf" id="dummy-1_h1_6_30"  />
</g>
<g id="a1_0031"  >
<polygon points="552,85 557,80 557,80 557,90 557,90 552,85 " style="fill:white; stroke-width:1; stroke:black; " description="&lt;b&gt;BFV67_RS05540&lt;/b&gt;&lt;br&gt;type II toxin-antitoxin system RelE/ParE family toxin&lt;br&gt;Location: 1206140 - 1206436" locus_tag="BFV67_RS05540" class="clusterblast-orf" id="dummy-1_h1_6_31"  />
</g>
<g id="a1_0032"  >
<polygon points="560,85 565,80 571,80 571,90 565,90 560,85 " style="fill:white; stroke-width:1; stroke:black; " description="&lt;b&gt;BFV67_RS05545&lt;/b&gt;&lt;br&gt;3-oxoacyl-ACP reductase FabG&lt;br&gt;Location: 1206620 - 1207363" locus_tag="BFV67_RS05545" class="clusterblast-orf" id="dummy-1_h1_6_32"  />
</g>
<g id="a1_0033"  >
<polygon points="572,85 577,80 589,80 589,90 577,90 572,85 " style="fill:white; stroke-width:1; stroke:black; " description="&lt;b&gt;BFV67_RS05550&lt;/b&gt;&lt;br&gt;oxidoreductase&lt;br&gt;Location: 1207421 - 1208509" locus_tag="BFV67_RS05550" class="clusterblast-orf" id="dummy-1_h1_6_33"  />
</g>
<g id="a1_0034"  >
<polygon points="591,90 609,90 614,85 609,80 591,80 591,90 " style="fill:white; stroke-width:1; stroke:black; " description="&lt;b&gt;BFV67_RS05555&lt;/b&gt;&lt;br&gt;sugar ABC transporter ATP-binding protein&lt;br&gt;Location: 1208668 - 1210170" locus_tag="BFV67_RS05555" class="clusterblast-orf" id="dummy-1_h1_6_34"  />
</g>
<g id="a1_0035"  >
<polygon points="614,90 624,90 629,85 624,80 614,80 614,90 " style="fill:white; stroke-width:1; stroke:black; " description="&lt;b&gt;BFV67_RS05560&lt;/b&gt;&lt;br&gt;ABC transporter permease&lt;br&gt;Location: 1210167 - 1211162" locus_tag="BFV67_RS05560" class="clusterblast-orf" id="dummy-1_h1_6_35"  />
</g>
<g id="a1_0036"  >
<polygon points="629,90 641,90 646,85 641,80 629,80 629,90 " style="fill:white; stroke-width:1; stroke:black; " description="&lt;b&gt;BFV67_RS05565&lt;/b&gt;&lt;br&gt;sugar ABC transporter substrate-binding protein&lt;br&gt;Location: 1211182 - 1212246" locus_tag="BFV67_RS05565" class="clusterblast-orf" id="dummy-1_h1_6_36"  />
</g>
<g id="a1_0037"  >
<polygon points="647,90 661,90 666,85 661,80 647,80 647,90 " style="fill:white; stroke-width:1; stroke:black; " description="&lt;b&gt;BFV67_RS05570&lt;/b&gt;&lt;br&gt;hypothetical protein&lt;br&gt;Location: 1212366 - 1213571" locus_tag="BFV67_RS05570" class="clusterblast-orf" id="dummy-1_h1_6_37"  />
</g>
<g id="a1_0038"  >
<polygon points="667,85 672,80 685,80 685,90 672,90 667,85 " style="fill:white; stroke-width:1; stroke:black; " description="&lt;b&gt;BFV67_RS05575&lt;/b&gt;&lt;br&gt;S-methyl-5-thioribose kinase&lt;br&gt;Location: 1213659 - 1214858" locus_tag="BFV67_RS05575" class="clusterblast-orf" id="dummy-1_h1_6_38"  />
</g>
<g id="a1_0039"  >
<polygon points="687,90 697,90 702,85 697,80 687,80 687,90 " style="fill:white; stroke-width:1; stroke:black; " description="&lt;b&gt;BFV67_RS05580&lt;/b&gt;&lt;br&gt;S-methyl-5-thioribose-1-phosphate isomerase&lt;br&gt;Location: 1214963 - 1215979" locus_tag="BFV67_RS05580" class="clusterblast-orf" id="dummy-1_h1_6_39"  />
</g>
<g id="a1_0040"  >
<polygon points="703,90 705,90 710,85 705,80 703,80 703,90 " style="fill:white; stroke-width:1; stroke:black; " description="&lt;b&gt;BFV67_RS05585&lt;/b&gt;&lt;br&gt;SRPBCC family protein&lt;br&gt;Location: 1216022 - 1216501" locus_tag="BFV67_RS05585" class="clusterblast-orf" id="dummy-1_h1_6_40"  />
</g>
<g id="a1_0041"  >
<polygon points="711,85 715,80 715,90 711,85 " style="fill:white; stroke-width:1; stroke:black; " description="&lt;b&gt;BFV67_RS23210&lt;/b&gt;&lt;br&gt;transcriptional regulator&lt;br&gt;Location: 1216538 - 1216810" locus_tag="BFV67_RS23210" class="clusterblast-orf" id="dummy-1_h1_6_41"  />
</g>
<g id="a1_0042"  >
<polygon points="717,90 720,85 717,80 717,90 " style="fill:white; stroke-width:1; stroke:black; " description="&lt;b&gt;BFV67_RS05590&lt;/b&gt;&lt;br&gt;helix-turn-helix transcriptional regulator&lt;br&gt;Location: 1216917 - 1217141" locus_tag="BFV67_RS05590" class="clusterblast-orf" id="dummy-1_h1_6_42"  />
</g>
<g id="a1_0043"  >
<polygon points="722,85 727,80 731,80 731,90 727,90 722,85 " style="fill:white; stroke-width:1; stroke:black; " description="&lt;b&gt;BFV67_RS05595&lt;/b&gt;&lt;br&gt;acireductone dioxygenase&lt;br&gt;Location: 1217282 - 1217824" locus_tag="BFV67_RS05595" class="clusterblast-orf" id="dummy-1_h1_6_43"  />
</g>
<g id="a1_0044"  >
<polygon points="731,85 736,80 741,80 741,90 736,90 731,85 " style="fill:white; stroke-width:1; stroke:black; " description="&lt;b&gt;BFV67_RS05600&lt;/b&gt;&lt;br&gt;acireductone synthase&lt;br&gt;Location: 1217821 - 1218510" locus_tag="BFV67_RS05600" class="clusterblast-orf" id="dummy-1_h1_6_44"  />
</g>
<g id="a1_0045"  >
<polygon points="741,85 746,80 750,80 750,90 746,90 741,85 " style="fill:white; stroke-width:1; stroke:black; " description="&lt;b&gt;BFV67_RS05605&lt;/b&gt;&lt;br&gt;methylthioribulose 1-phosphate dehydratase&lt;br&gt;Location: 1218507 - 1219121" locus_tag="BFV67_RS05605" class="clusterblast-orf" id="dummy-1_h1_6_45"  />
</g>
<g id="a1_0046"  >
<polygon points="752,90 765,90 770,85 765,80 752,80 752,90 " style="fill:white; stroke-width:1; stroke:black; " description="&lt;b&gt;BFV67_RS05610&lt;/b&gt;&lt;br&gt;pyridoxal phosphate-dependent aminotransferase&lt;br&gt;Location: 1219245 - 1220405" locus_tag="BFV67_RS05610" class="clusterblast-orf" id="dummy-1_h1_6_46"  />
</g>
<g id="a1_0047"  >
<polygon points="770,85 775,80 780,80 780,90 775,90 770,85 " style="fill:white; stroke-width:1; stroke:black; " description="&lt;b&gt;BFV67_RS05615&lt;/b&gt;&lt;br&gt;ParB-like nuclease domain-containing protein&lt;br&gt;Location: 1220406 - 1221032" locus_tag="BFV67_RS05615" class="clusterblast-orf" id="dummy-1_h1_6_47"  />
</g>
</svg>
