<svg xmlns="http://www.w3.org/2000/svg" xmlns:xlink="http://www.w3.org/1999/xlink" version="1.1" x="0" y="0" height="230" width="800" viewBox="0 0 800 230" preserveAspectRatio="none"  >
<g label="Query sequence" class="clusterblast-cluster"  >
<text x="5" y="20" class="clusterblast-acc"  >
Query sequence</text>
<line x1="10" y1="35" x2="778.0" y2="35" style="stroke-width:1; stroke:grey; "  />
<polygon points="0,40 7,40 12,35 7,30 0,30 0,40 " style="fill:#d81515; stroke-width:1; stroke:black; " description="&lt;b&gt;MCIC6FC_021116&lt;/b&gt;&lt;br&gt;hypothetical protein&lt;br&gt;Location: 19640 - 20363" locus_tag="MCIC6FC_021116" class="clusterblast-orf" id="dummy-1_q0_0_all"  />
<polygon points="22,35 27,30 80,30 80,40 27,40 22,35 " style="fill:white; stroke-width:1; stroke:black; " description="&lt;b&gt;MCIC6FC_021117&lt;/b&gt;&lt;br&gt;hypothetical protein&lt;br&gt;Location: 20977 - 24350" locus_tag="MCIC6FC_021117" class="clusterblast-orf" id="dummy-1_q1_0_all"  />
<polygon points="88,40 200,40 205,35 200,30 88,30 88,40 " style="fill:white; stroke-width:1; stroke:black; " description="&lt;b&gt;MCIC6FC_021118&lt;/b&gt;&lt;br&gt;hypothetical protein&lt;br&gt;Location: 24858 - 31752" locus_tag="MCIC6FC_021118" class="clusterblast-orf" id="dummy-1_q2_0_all"  />
<polygon points="219,35 224,30 279,30 279,40 224,40 219,35 " style="fill:white; stroke-width:1; stroke:black; " description="&lt;b&gt;MCIC6FC_021119&lt;/b&gt;&lt;br&gt;hypothetical protein&lt;br&gt;Location: 32597 - 36108" locus_tag="MCIC6FC_021119" class="clusterblast-orf" id="dummy-1_q3_0_all"  />
<polygon points="289,35 294,30 313,30 313,40 294,40 289,35 " style="fill:white; stroke-width:1; stroke:black; " description="&lt;b&gt;MCIC6FC_021120&lt;/b&gt;&lt;br&gt;hypothetical protein&lt;br&gt;Location: 36683 - 38100" locus_tag="MCIC6FC_021120" class="clusterblast-orf" id="dummy-1_q4_0_all"  />
<polygon points="326,40 332,40 337,35 332,30 326,30 326,40 " style="fill:white; stroke-width:1; stroke:black; " description="&lt;b&gt;MCIC6FC_021121&lt;/b&gt;&lt;br&gt;hypothetical protein&lt;br&gt;Location: 38889 - 39534" locus_tag="MCIC6FC_021121" class="clusterblast-orf" id="dummy-1_q5_0_all"  />
<polygon points="337,35 342,30 441,30 441,40 342,40 337,35 " style="fill:#15d863; stroke-width:1; stroke:black; " description="&lt;b&gt;MCIC6FC_021122&lt;/b&gt;&lt;br&gt;hypothetical protein&lt;br&gt;Location: 39551 - 45681" locus_tag="MCIC6FC_021122" class="clusterblast-orf" id="dummy-1_q6_0_all"  />
<polygon points="465,40 549,40 554,35 549,30 465,30 465,40 " style="fill:#1563d8; stroke-width:1; stroke:black; " description="&lt;b&gt;MCIC6FC_021123&lt;/b&gt;&lt;br&gt;hypothetical protein&lt;br&gt;Location: 47121 - 52324" locus_tag="MCIC6FC_021123" class="clusterblast-orf" id="dummy-1_q7_0_all"  />
<polygon points="554,40 590,40 595,35 590,30 554,30 554,40 " style="fill:#b115d8; stroke-width:1; stroke:black; " description="&lt;b&gt;MCIC6FC_021124&lt;/b&gt;&lt;br&gt;hypothetical protein&lt;br&gt;Location: 52348 - 54739" locus_tag="MCIC6FC_021124" class="clusterblast-orf" id="dummy-1_q8_0_all"  />
<polygon points="595,35 600,30 610,30 610,40 600,40 595,35 " style="fill:#b1d815; stroke-width:1; stroke:black; " description="&lt;b&gt;MCIC6FC_021125&lt;/b&gt;&lt;br&gt;hypothetical protein&lt;br&gt;Location: 54748 - 55637" locus_tag="MCIC6FC_021125" class="clusterblast-orf" id="dummy-1_q9_0_all"  />
<polygon points="655,40 756,40 761,35 756,30 655,30 655,40 " style="fill:#15d863; stroke-width:1; stroke:black; " description="&lt;b&gt;MCIC6FC_021126&lt;/b&gt;&lt;br&gt;hypothetical protein&lt;br&gt;Location: 58292 - 64540" locus_tag="MCIC6FC_021126" class="clusterblast-orf" id="dummy-1_q10_0_all"  />
<polygon points="764,40 775,40 780,35 775,30 764,30 764,40 " style="fill:white; stroke-width:1; stroke:black; " description="&lt;b&gt;MCIC6FC_021127&lt;/b&gt;&lt;br&gt;hypothetical protein&lt;br&gt;Location: 64712 - 65655" locus_tag="MCIC6FC_021127" class="clusterblast-orf" id="dummy-1_q11_0_all"  />
</g>
<g label="NZ_CP004090" description="NZ_CP004090 (953416-993993): Burkholderia thailandensis H0587 chromosome 2, c... (19% of genes show similarity), NRPS,hserlactone" class="clusterblast-cluster"  >
<text x="5" y="70" class="clusterblast-acc"  >
<a xlink:href="https://antismash-db.secondarymetabolites.org/area.html?record=NZ_CP004090&amp;start=953416&amp;end=993993" target="_blank">NZ_CP004090 (953416-993993)</a>: Burkholderia thailandensis H0587 chromosome 2, c... (19% of genes show similarity), NRPS,hserlactone</text>
<line x1="10" y1="85" x2="778.0" y2="85" style="stroke-width:1; stroke:grey; "  />
</g>
<g id="a1_000"  >
<polygon points="46,85 51,80 52,80 52,90 51,90 46,85 " style="fill:white; stroke-width:1; stroke:black; " description="&lt;b&gt;BTL_RS32100&lt;/b&gt;&lt;br&gt;hypothetical protein&lt;br&gt;Location: 993993 - 993607" locus_tag="BTL_RS32100" class="clusterblast-orf" id="dummy-1_h1_4_0"  />
</g>
<g id="a1_001"  >
<polygon points="65,90 69,90 74,85 69,80 65,80 65,90 " style="fill:white; stroke-width:1; stroke:black; " description="&lt;b&gt;BTL_RS21530&lt;/b&gt;&lt;br&gt;membrane protein&lt;br&gt;Location: 992847 - 992332" locus_tag="BTL_RS21530" class="clusterblast-orf" id="dummy-1_h1_4_1"  />
</g>
<g id="a1_002"  >
<polygon points="74,90 96,90 101,85 96,80 74,80 74,90 " style="fill:white; stroke-width:1; stroke:black; " description="&lt;b&gt;BTL_RS21525&lt;/b&gt;&lt;br&gt;GMC family oxidoreductase&lt;br&gt;Location: 992332 - 990719" locus_tag="BTL_RS21525" class="clusterblast-orf" id="dummy-1_h1_4_2"  />
</g>
<g id="a1_003"  >
<polygon points="101,90 119,90 124,85 119,80 101,80 101,90 " style="fill:white; stroke-width:1; stroke:black; " description="&lt;b&gt;BTL_RS21520&lt;/b&gt;&lt;br&gt;cytochrome c&lt;br&gt;Location: 990719 - 989376" locus_tag="BTL_RS21520" class="clusterblast-orf" id="dummy-1_h1_4_3"  />
</g>
<g id="a1_004"  >
<polygon points="127,90 129,90 134,85 129,80 127,80 127,90 " style="fill:white; stroke-width:1; stroke:black; " description="&lt;b&gt;BTL_RS21515&lt;/b&gt;&lt;br&gt;DoxX family protein&lt;br&gt;Location: 989182 - 988769" locus_tag="BTL_RS21515" class="clusterblast-orf" id="dummy-1_h1_4_4"  />
</g>
<g id="a1_005"  >
<polygon points="135,90 149,90 154,85 149,80 135,80 135,90 " style="fill:white; stroke-width:1; stroke:black; " description="&lt;b&gt;BTL_RS21510&lt;/b&gt;&lt;br&gt;porin&lt;br&gt;Location: 988716 - 987601" locus_tag="BTL_RS21510" class="clusterblast-orf" id="dummy-1_h1_4_5"  />
</g>
<g id="a1_006"  >
<polygon points="157,85 162,80 171,80 171,90 162,90 157,85 " style="fill:white; stroke-width:1; stroke:black; " description="&lt;b&gt;BTL_RS21505&lt;/b&gt;&lt;br&gt;DUF2837 family protein&lt;br&gt;Location: 987396 - 986593" locus_tag="BTL_RS21505" class="clusterblast-orf" id="dummy-1_h1_4_6"  />
</g>
<g id="a1_007"  >
<polygon points="179,90 186,90 191,85 186,80 179,80 179,90 " style="fill:white; stroke-width:1; stroke:black; " description="&lt;b&gt;BTL_RS21500&lt;/b&gt;&lt;br&gt;ABC transporter permease subunit&lt;br&gt;Location: 986132 - 985443" locus_tag="BTL_RS21500" class="clusterblast-orf" id="dummy-1_h1_4_7"  />
</g>
<g id="a1_008"  >
<polygon points="190,90 198,90 203,85 198,80 190,80 190,90 " style="fill:white; stroke-width:1; stroke:black; " description="&lt;b&gt;BTL_RS21495&lt;/b&gt;&lt;br&gt;ABC transporter permease&lt;br&gt;Location: 985446 - 984733" locus_tag="BTL_RS21495" class="clusterblast-orf" id="dummy-1_h1_4_8"  />
</g>
<g id="a1_009"  >
<polygon points="204,90 212,90 217,85 212,80 204,80 204,90 " style="fill:white; stroke-width:1; stroke:black; " description="&lt;b&gt;BTL_RS21490&lt;/b&gt;&lt;br&gt;ATP-binding cassette domain-containing protein&lt;br&gt;Location: 984668 - 983901" locus_tag="BTL_RS21490" class="clusterblast-orf" id="dummy-1_h1_4_9"  />
</g>
<g id="a1_0010"  >
<polygon points="218,85 223,80 240,80 240,90 223,90 218,85 " style="fill:white; stroke-width:1; stroke:black; " description="&lt;b&gt;BTL_RS21485&lt;/b&gt;&lt;br&gt;UDP-N-acetylglucosamine 1-carboxyvinyltransferase&lt;br&gt;Location: 983849 - 982548" locus_tag="BTL_RS21485" class="clusterblast-orf" id="dummy-1_h1_4_10"  />
</g>
<g id="a1_0011"  >
<polygon points="243,90 247,90 252,85 247,80 243,80 243,90 " style="fill:white; stroke-width:1; stroke:black; " description="&lt;b&gt;BTL_RS21480&lt;/b&gt;&lt;br&gt;GFA family protein&lt;br&gt;Location: 982318 - 981824" locus_tag="BTL_RS21480" class="clusterblast-orf" id="dummy-1_h1_4_11"  />
</g>
<g id="a1_0012"  >
<polygon points="253,90 256,85 253,80 253,90 " style="fill:white; stroke-width:1; stroke:black; " description="&lt;b&gt;BTL_RS21475&lt;/b&gt;&lt;br&gt;hypothetical protein&lt;br&gt;Location: 981765 - 981562" locus_tag="BTL_RS21475" class="clusterblast-orf" id="dummy-1_h1_4_12"  />
</g>
<g id="a1_0013"  >
<polygon points="258,85 263,80 264,80 264,90 263,90 258,85 " style="fill:white; stroke-width:1; stroke:black; " description="&lt;b&gt;BTL_RS21470&lt;/b&gt;&lt;br&gt;hypothetical protein&lt;br&gt;Location: 981450 - 981109" locus_tag="BTL_RS21470" class="clusterblast-orf" id="dummy-1_h1_4_13"  />
</g>
<g id="a1_0014"  >
<polygon points="264,85 266,80 266,90 264,85 " style="fill:white; stroke-width:1; stroke:black; " description="&lt;b&gt;BTL_RS32095&lt;/b&gt;&lt;br&gt;hypothetical protein&lt;br&gt;Location: 981112 - 981008" locus_tag="BTL_RS32095" class="clusterblast-orf" id="dummy-1_h1_4_14"  />
</g>
<g id="a1_0015"  >
<polygon points="282,90 298,90 303,85 298,80 282,80 282,90 " style="fill:white; stroke-width:1; stroke:black; " description="&lt;b&gt;BTL_RS21465&lt;/b&gt;&lt;br&gt;MFS transporter&lt;br&gt;Location: 980052 - 978835" locus_tag="BTL_RS21465" class="clusterblast-orf" id="dummy-1_h1_4_15"  />
</g>
<g id="a1_0016"  >
<polygon points="305,85 310,80 324,80 324,90 310,90 305,85 " style="fill:white; stroke-width:1; stroke:black; " description="&lt;b&gt;BTL_RS21460&lt;/b&gt;&lt;br&gt;IS3 family transposase&lt;br&gt;Location: 978693 - 977549" locus_tag="BTL_RS21460" class="clusterblast-orf" id="dummy-1_h1_4_16"  />
</g>
<g id="a1_0017"  >
<polygon points="333,85 338,80 346,80 346,90 338,90 333,85 " style="fill:white; stroke-width:1; stroke:black; " description="&lt;b&gt;BTL_RS21450&lt;/b&gt;&lt;br&gt;LuxR family transcriptional regulator&lt;br&gt;Location: 977009 - 976296" locus_tag="BTL_RS21450" class="clusterblast-orf" id="dummy-1_h1_4_17"  />
</g>
<g id="a1_0018"  >
<polygon points="353,90 359,90 364,85 359,80 353,80 353,90 " style="fill:white; stroke-width:1; stroke:black; " description="&lt;b&gt;BTL_RS32085&lt;/b&gt;&lt;br&gt;acyl-homoserine-lactone synthase&lt;br&gt;Location: 975836 - 975225" locus_tag="BTL_RS32085" class="clusterblast-orf" id="dummy-1_h1_4_18"  />
</g>
<g id="a1_0019"  >
<polygon points="366,90 414,90 419,85 414,80 366,80 366,90 " style="fill:#15d863; stroke-width:1; stroke:black; " description="&lt;b&gt;BTL_RS21445&lt;/b&gt;&lt;br&gt;amino acid adenylation domain-containing protein&lt;br&gt;Location: 975089 - 971937&lt;br&gt;&lt;br&gt;&lt;b&gt;BlastP hit with MCIC6FC_021122&lt;/b&gt;&lt;br&gt;Percentage identity: 33&lt;br&gt;Percentage coverage: 55&lt;br&gt;BLAST bit score: 506&lt;br&gt;E-value: 1.4e-140" locus_tag="BTL_RS21445" class="clusterblast-orf" id="dummy-1_h1_4_19"  />
</g>
<g id="a1_0020"  >
<polygon points="419,90 439,90 444,85 439,80 419,80 419,90 " style="fill:white; stroke-width:1; stroke:black; " description="&lt;b&gt;BTL_RS21440&lt;/b&gt;&lt;br&gt;amidase&lt;br&gt;Location: 971944 - 970505" locus_tag="BTL_RS21440" class="clusterblast-orf" id="dummy-1_h1_4_20"  />
</g>
<g id="a1_0021"  >
<polygon points="446,90 461,90 466,85 461,80 446,80 446,90 " style="fill:white; stroke-width:1; stroke:black; " description="&lt;b&gt;BTL_RS21435&lt;/b&gt;&lt;br&gt;multidrug effflux MFS transporter&lt;br&gt;Location: 970396 - 969191" locus_tag="BTL_RS21435" class="clusterblast-orf" id="dummy-1_h1_4_21"  />
</g>
<g id="a1_0022"  >
<polygon points="467,85 472,80 498,80 498,90 472,90 467,85 " style="fill:white; stroke-width:1; stroke:black; " description="&lt;b&gt;BTL_RS21430&lt;/b&gt;&lt;br&gt;aspartate--tRNA ligase&lt;br&gt;Location: 969152 - 967317" locus_tag="BTL_RS21430" class="clusterblast-orf" id="dummy-1_h1_4_22"  />
</g>
<g id="a1_0023"  >
<polygon points="503,90 518,90 523,85 518,80 503,80 503,90 " style="fill:#1563d8; stroke-width:1; stroke:black; " description="&lt;b&gt;BTL_RS21425&lt;/b&gt;&lt;br&gt;DegT/DnrJ/EryC1/StrS family aminotransferase&lt;br&gt;Location: 967030 - 965822&lt;br&gt;&lt;br&gt;&lt;b&gt;BlastP hit with MCIC6FC_021123&lt;/b&gt;&lt;br&gt;Percentage identity: 56&lt;br&gt;Percentage coverage: 27&lt;br&gt;BLAST bit score: 428&lt;br&gt;E-value: 2.2e-117" locus_tag="BTL_RS21425" class="clusterblast-orf" id="dummy-1_h1_4_23"  />
</g>
<g id="a1_0024"  >
<polygon points="524,90 540,90 545,85 540,80 524,80 524,90 " style="fill:#1563d8; stroke-width:1; stroke:black; " description="&lt;b&gt;BTL_RS21420&lt;/b&gt;&lt;br&gt;sedoheptulose 7-phosphate cyclase&lt;br&gt;Location: 965765 - 964551&lt;br&gt;&lt;br&gt;&lt;b&gt;BlastP hit with MCIC6FC_021123&lt;/b&gt;&lt;br&gt;Percentage identity: 43&lt;br&gt;Percentage coverage: 19&lt;br&gt;BLAST bit score: 218&lt;br&gt;E-value: 6e-54" locus_tag="BTL_RS21420" class="clusterblast-orf" id="dummy-1_h1_4_24"  />
</g>
<g id="a1_0025"  >
<polygon points="544,90 552,90 557,85 552,80 544,80 544,90 " style="fill:#1563d8; stroke-width:1; stroke:black; " description="&lt;b&gt;BTL_RS21415&lt;/b&gt;&lt;br&gt;TIM barrel protein&lt;br&gt;Location: 964585 - 963794&lt;br&gt;&lt;br&gt;&lt;b&gt;BlastP hit with MCIC6FC_021123&lt;/b&gt;&lt;br&gt;Percentage identity: 39&lt;br&gt;Percentage coverage: 15&lt;br&gt;BLAST bit score: 136&lt;br&gt;E-value: 1.8e-29" locus_tag="BTL_RS21415" class="clusterblast-orf" id="dummy-1_h1_4_25"  />
</g>
<g id="a1_0026"  >
<polygon points="558,90 567,90 572,85 567,80 558,80 558,90 " style="fill:#1563d8; stroke-width:1; stroke:black; " description="&lt;b&gt;BTL_RS21410&lt;/b&gt;&lt;br&gt;radical SAM protein&lt;br&gt;Location: 963748 - 962966&lt;br&gt;&lt;br&gt;&lt;b&gt;BlastP hit with MCIC6FC_021123&lt;/b&gt;&lt;br&gt;Percentage identity: 56&lt;br&gt;Percentage coverage: 12&lt;br&gt;BLAST bit score: 208&lt;br&gt;E-value: 6.2e-51" locus_tag="BTL_RS21410" class="clusterblast-orf" id="dummy-1_h1_4_26"  />
</g>
<g id="a1_0027"  >
<polygon points="572,90 612,90 617,85 612,80 572,80 572,90 " style="fill:white; stroke-width:1; stroke:black; " description="&lt;b&gt;BTL_RS21405&lt;/b&gt;&lt;br&gt;hypothetical protein&lt;br&gt;Location: 962944 - 960266" locus_tag="BTL_RS21405" class="clusterblast-orf" id="dummy-1_h1_4_27"  />
</g>
<g id="a1_0028"  >
<polygon points="617,90 643,90 648,85 643,80 617,80 617,90 " style="fill:#b115d8; stroke-width:1; stroke:black; " description="&lt;b&gt;BTL_RS21400&lt;/b&gt;&lt;br&gt;FAD/NAD(P)-binding protein&lt;br&gt;Location: 960269 - 958443&lt;br&gt;&lt;br&gt;&lt;b&gt;BlastP hit with MCIC6FC_021124&lt;/b&gt;&lt;br&gt;Percentage identity: 31&lt;br&gt;Percentage coverage: 75&lt;br&gt;BLAST bit score: 239&lt;br&gt;E-value: 9.7e-61" locus_tag="BTL_RS21400" class="clusterblast-orf" id="dummy-1_h1_4_28"  />
</g>
<g id="a1_0029"  >
<polygon points="649,90 656,90 661,85 656,80 649,80 649,90 " style="fill:#b115d8; stroke-width:1; stroke:black; " description="&lt;b&gt;BTL_RS32080&lt;/b&gt;&lt;br&gt;SDR family oxidoreductase&lt;br&gt;Location: 958408 - 957695&lt;br&gt;&lt;br&gt;&lt;b&gt;BlastP hit with MCIC6FC_021124&lt;/b&gt;&lt;br&gt;Percentage identity: 49&lt;br&gt;Percentage coverage: 32&lt;br&gt;BLAST bit score: 210&lt;br&gt;E-value: 4.8e-52" locus_tag="BTL_RS32080" class="clusterblast-orf" id="dummy-1_h1_4_29"  />
</g>
<g id="a1_0030"  >
<polygon points="663,85 668,80 684,80 684,90 668,90 663,85 " style="fill:white; stroke-width:1; stroke:black; " description="&lt;b&gt;BTL_RS21395&lt;/b&gt;&lt;br&gt;IS256 family transposase&lt;br&gt;Location: 957572 - 956304" locus_tag="BTL_RS21395" class="clusterblast-orf" id="dummy-1_h1_4_30"  />
</g>
<g id="a1_0031"  >
<polygon points="685,85 689,80 689,90 685,85 " style="fill:white; stroke-width:1; stroke:black; " description="&lt;b&gt;BTL_RS33665&lt;/b&gt;&lt;br&gt;hypothetical protein&lt;br&gt;Location: 956255 - 956034" locus_tag="BTL_RS33665" class="clusterblast-orf" id="dummy-1_h1_4_31"  />
</g>
<g id="a1_0032"  >
<polygon points="695,90 711,90 716,85 711,80 695,80 695,90 " style="fill:white; stroke-width:1; stroke:black; " description="&lt;b&gt;BTL_RS21385&lt;/b&gt;&lt;br&gt;IS3 family transposase&lt;br&gt;Location: 955703 - 954466" locus_tag="BTL_RS21385" class="clusterblast-orf" id="dummy-1_h1_4_32"  />
</g>
<g id="a1_0033"  >
<polygon points="715,85 720,80 720,80 720,90 720,90 715,85 " style="fill:white; stroke-width:1; stroke:black; " description="&lt;b&gt;BTL_RS32075&lt;/b&gt;&lt;br&gt;transposase&lt;br&gt;Location: 954474 - 954217" locus_tag="BTL_RS32075" class="clusterblast-orf" id="dummy-1_h1_4_33"  />
</g>
<g id="a1_0034"  >
<polygon points="721,90 723,90 728,85 723,80 721,80 721,90 " style="fill:white; stroke-width:1; stroke:black; " description="&lt;b&gt;BTL_RS32070&lt;/b&gt;&lt;br&gt;transposase&lt;br&gt;Location: 954126 - 953764" locus_tag="BTL_RS32070" class="clusterblast-orf" id="dummy-1_h1_4_34"  />
</g>
<g id="a1_0035"  >
<polygon points="728,90 728,90 733,85 728,80 728,80 728,90 " style="fill:white; stroke-width:1; stroke:black; " description="&lt;b&gt;BTL_RS21380&lt;/b&gt;&lt;br&gt;IS66 family insertion sequence element accessory protein TnpB&lt;br&gt;Location: 953764 - 953417" locus_tag="BTL_RS21380" class="clusterblast-orf" id="dummy-1_h1_4_35"  />
</g>
</svg>
