<svg xmlns="http://www.w3.org/2000/svg" xmlns:xlink="http://www.w3.org/1999/xlink" version="1.1" x="0" y="0" height="230" width="800" viewBox="0 0 800 230" preserveAspectRatio="none"  >
<g label="Query sequence" class="clusterblast-cluster"  >
<text x="5" y="20" class="clusterblast-acc"  >
Query sequence</text>
<line x1="10" y1="35" x2="778.0" y2="35" style="stroke-width:1; stroke:grey; "  />
<polygon points="115,35 120,30 144,30 144,40 120,40 115,35 " style="fill:#d81515; stroke-width:1; stroke:black; " description="&lt;b&gt;MCIC6FC_014177&lt;/b&gt;&lt;br&gt;hypothetical protein&lt;br&gt;Location: 51 - 931" locus_tag="MCIC6FC_014177" class="clusterblast-orf" id="dummy-1_q0_0_all"  />
<polygon points="152,40 482,40 487,35 482,30 152,30 152,40 " style="fill:#77d815; stroke-width:1; stroke:black; " description="&lt;b&gt;MCIC6FC_014178&lt;/b&gt;&lt;br&gt;hypothetical protein&lt;br&gt;Location: 1164 - 11121" locus_tag="MCIC6FC_014178" class="clusterblast-orf" id="dummy-1_q1_0_all"  />
<polygon points="527,40 563,40 568,35 563,30 527,30 527,40 " style="fill:#15d8d8; stroke-width:1; stroke:black; " description="&lt;b&gt;MCIC6FC_014179&lt;/b&gt;&lt;br&gt;hypothetical protein&lt;br&gt;Location: 12305 - 13530" locus_tag="MCIC6FC_014179" class="clusterblast-orf" id="dummy-1_q2_0_all"  />
<polygon points="568,35 573,30 665,30 665,40 573,40 568,35 " style="fill:#7715d8; stroke-width:1; stroke:black; " description="&lt;b&gt;MCIC6FC_014180&lt;/b&gt;&lt;br&gt;hypothetical protein&lt;br&gt;Location: 13539 - 16408" locus_tag="MCIC6FC_014180" class="clusterblast-orf" id="dummy-1_q3_0_all"  />
</g>
<g label="NZ_JAAVXI010000035" description="NZ_JAAVXI010000035 (122062-145629): Pantoea agglomerans strain KM1 plasmid pK... (45% of genes show similarity), terpene" class="clusterblast-cluster"  >
<text x="5" y="70" class="clusterblast-acc"  >
<a xlink:href="https://antismash-db.secondarymetabolites.org/area.html?record=NZ_JAAVXI010000035&amp;start=122062&amp;end=145629" target="_blank">NZ_JAAVXI010000035 (122062-145629)</a>: Pantoea agglomerans strain KM1 plasmid pK... (45% of genes show similarity), terpene</text>
<line x1="10" y1="85" x2="778.0" y2="85" style="stroke-width:1; stroke:grey; "  />
</g>
<g id="a1_000"  >
<polygon points="0,90 26,90 31,85 26,80 0,80 0,90 " style="fill:white; stroke-width:1; stroke:black; " description="&lt;b&gt;HBB05_RS19410&lt;/b&gt;&lt;br&gt;glutaminase B&lt;br&gt;Location: 145379 - 144453" locus_tag="HBB05_RS19410" class="clusterblast-orf" id="dummy-1_h1_4_0"  />
</g>
<g id="a1_001"  >
<polygon points="35,85 40,80 66,80 66,90 40,90 35,85 " style="fill:white; stroke-width:1; stroke:black; " description="&lt;b&gt;HBB05_RS19405&lt;/b&gt;&lt;br&gt;Rpn family recombination-promoting nuclease/putative transposase&lt;br&gt;Location: 144314 - 143397" locus_tag="HBB05_RS19405" class="clusterblast-orf" id="dummy-1_h1_4_1"  />
</g>
<g id="a1_002"  >
<polygon points="73,85 78,80 105,80 105,90 78,90 73,85 " style="fill:#d81515; stroke-width:1; stroke:black; " description="&lt;b&gt;HBB05_RS19400&lt;/b&gt;&lt;br&gt;D-2-hydroxyacid dehydrogenase&lt;br&gt;Location: 143182 - 142244&lt;br&gt;&lt;br&gt;&lt;b&gt;BlastP hit with MCIC6FC_014177&lt;/b&gt;&lt;br&gt;Percentage identity: 91&lt;br&gt;Percentage coverage: 99&lt;br&gt;BLAST bit score: 482&lt;br&gt;E-value: 4.2e-134" locus_tag="HBB05_RS19400" class="clusterblast-orf" id="dummy-1_h1_4_2"  />
</g>
<g id="a1_003"  >
<polygon points="112,90 121,90 126,85 121,80 112,80 112,90 " style="fill:white; stroke-width:1; stroke:black; " description="&lt;b&gt;HBB05_RS19395&lt;/b&gt;&lt;br&gt;DUF2946 domain-containing protein&lt;br&gt;Location: 142023 - 141604" locus_tag="HBB05_RS19395" class="clusterblast-orf" id="dummy-1_h1_4_3"  />
</g>
<g id="a1_004"  >
<polygon points="128,90 181,90 186,85 181,80 128,80 128,90 " style="fill:#77d815; stroke-width:1; stroke:black; " description="&lt;b&gt;HBB05_RS19390&lt;/b&gt;&lt;br&gt;DUF2534 family protein&lt;br&gt;Location: 141558 - 139828&lt;br&gt;&lt;br&gt;&lt;b&gt;BlastP hit with MCIC6FC_014178&lt;/b&gt;&lt;br&gt;Percentage identity: 93&lt;br&gt;Percentage coverage: 20&lt;br&gt;BLAST bit score: 958&lt;br&gt;E-value: 1.5e-276" locus_tag="HBB05_RS19390" class="clusterblast-orf" id="dummy-1_h1_4_4"  />
</g>
<g id="a1_005"  >
<polygon points="190,90 208,90 213,85 208,80 190,80 190,90 " style="fill:white; stroke-width:1; stroke:black; " description="&lt;b&gt;HBB05_RS19385&lt;/b&gt;&lt;br&gt;hypothetical protein&lt;br&gt;Location: 139701 - 139024" locus_tag="HBB05_RS19385" class="clusterblast-orf" id="dummy-1_h1_4_5"  />
</g>
<g id="a1_006"  >
<polygon points="215,85 220,80 222,80 222,90 220,90 215,85 " style="fill:white; stroke-width:1; stroke:black; " description="&lt;b&gt;HBB05_RS19380&lt;/b&gt;&lt;br&gt;hypothetical protein&lt;br&gt;Location: 138978 - 138751" locus_tag="HBB05_RS19380" class="clusterblast-orf" id="dummy-1_h1_4_6"  />
</g>
<g id="a1_007"  >
<polygon points="228,90 241,90 246,85 241,80 228,80 228,90 " style="fill:white; stroke-width:1; stroke:black; " description="&lt;b&gt;HBB05_RS19375&lt;/b&gt;&lt;br&gt;YtfJ family protein&lt;br&gt;Location: 138578 - 138048" locus_tag="HBB05_RS19375" class="clusterblast-orf" id="dummy-1_h1_4_7"  />
</g>
<g id="a1_008"  >
<polygon points="253,90 279,90 284,85 279,80 253,80 253,90 " style="fill:#77d815; stroke-width:1; stroke:black; " description="&lt;b&gt;HBB05_RS19370&lt;/b&gt;&lt;br&gt;polyprenyl synthetase family protein&lt;br&gt;Location: 137829 - 136921&lt;br&gt;&lt;br&gt;&lt;b&gt;BlastP hit with MCIC6FC_014178&lt;/b&gt;&lt;br&gt;Percentage identity: 98&lt;br&gt;Percentage coverage: 10&lt;br&gt;BLAST bit score: 524&lt;br&gt;E-value: 5.4e-146" locus_tag="HBB05_RS19370" class="clusterblast-orf" id="dummy-1_h1_4_8"  />
</g>
<g id="a1_009"  >
<polygon points="284,90 323,90 328,85 323,80 284,80 284,90 " style="fill:#77d815; stroke-width:1; stroke:black; " description="&lt;b&gt;HBB05_RS19365&lt;/b&gt;&lt;br&gt;glycosyltransferase family 1 protein&lt;br&gt;Location: 136911 - 135616&lt;br&gt;&lt;br&gt;&lt;b&gt;BlastP hit with MCIC6FC_014178&lt;/b&gt;&lt;br&gt;Percentage identity: 80&lt;br&gt;Percentage coverage: 15&lt;br&gt;BLAST bit score: 596&lt;br&gt;E-value: 1.1e-167" locus_tag="HBB05_RS19365" class="clusterblast-orf" id="dummy-1_h1_4_9"  />
</g>
<g id="a1_0010"  >
<polygon points="327,90 361,90 366,85 361,80 327,80 327,90 " style="fill:#77d815; stroke-width:1; stroke:black; " description="&lt;b&gt;HBB05_RS19360&lt;/b&gt;&lt;br&gt;lycopene beta-cyclase CrtY&lt;br&gt;Location: 135629 - 134469&lt;br&gt;&lt;br&gt;&lt;b&gt;BlastP hit with MCIC6FC_014178&lt;/b&gt;&lt;br&gt;Percentage identity: 99&lt;br&gt;Percentage coverage: 14&lt;br&gt;BLAST bit score: 761&lt;br&gt;E-value: 3.5e-217" locus_tag="HBB05_RS19360" class="clusterblast-orf" id="dummy-1_h1_4_10"  />
</g>
<g id="a1_0011"  >
<polygon points="367,90 411,90 416,85 411,80 367,80 367,90 " style="fill:#77d815; stroke-width:1; stroke:black; " description="&lt;b&gt;HBB05_RS19355&lt;/b&gt;&lt;br&gt;phytoene desaturase&lt;br&gt;Location: 134467 - 132989&lt;br&gt;&lt;br&gt;&lt;b&gt;BlastP hit with MCIC6FC_014178&lt;/b&gt;&lt;br&gt;Percentage identity: 95&lt;br&gt;Percentage coverage: 16&lt;br&gt;BLAST bit score: 832&lt;br&gt;E-value: 9.3e-239" locus_tag="HBB05_RS19355" class="clusterblast-orf" id="dummy-1_h1_4_11"  />
</g>
<g id="a1_0012"  >
<polygon points="416,90 442,90 447,85 442,80 416,80 416,90 " style="fill:#77d815; stroke-width:1; stroke:black; " description="&lt;b&gt;HBB05_RS19350&lt;/b&gt;&lt;br&gt;phytoene/squalene synthase family protein&lt;br&gt;Location: 132992 - 132063&lt;br&gt;&lt;br&gt;&lt;b&gt;BlastP hit with MCIC6FC_014178&lt;/b&gt;&lt;br&gt;Percentage identity: 98&lt;br&gt;Percentage coverage: 11&lt;br&gt;BLAST bit score: 569&lt;br&gt;E-value: 1.5e-159" locus_tag="HBB05_RS19350" class="clusterblast-orf" id="dummy-1_h1_4_12"  />
</g>
<g id="a1_0013"  >
<polygon points="445,85 450,80 463,80 463,90 450,90 445,85 " style="fill:white; stroke-width:1; stroke:black; " description="&lt;b&gt;HBB05_RS19345&lt;/b&gt;&lt;br&gt;beta-carotene hydroxylase&lt;br&gt;Location: 132124 - 131597" locus_tag="HBB05_RS19345" class="clusterblast-orf" id="dummy-1_h1_4_13"  />
</g>
<g id="a1_0014"  >
<polygon points="470,85 475,80 507,80 507,90 475,90 470,85 " style="fill:white; stroke-width:1; stroke:black; " description="&lt;b&gt;HBB05_RS19340&lt;/b&gt;&lt;br&gt;fimbrial protein&lt;br&gt;Location: 131388 - 130279" locus_tag="HBB05_RS19340" class="clusterblast-orf" id="dummy-1_h1_4_14"  />
</g>
<g id="a1_0015"  >
<polygon points="508,85 513,80 590,80 590,90 513,90 508,85 " style="fill:white; stroke-width:1; stroke:black; " description="&lt;b&gt;HBB05_RS19335&lt;/b&gt;&lt;br&gt;fimbria/pilus outer membrane usher protein&lt;br&gt;Location: 130262 - 127821" locus_tag="HBB05_RS19335" class="clusterblast-orf" id="dummy-1_h1_4_15"  />
</g>
<g id="a1_0016"  >
<polygon points="594,85 599,80 617,80 617,90 599,90 594,85 " style="fill:white; stroke-width:1; stroke:black; " description="&lt;b&gt;HBB05_RS19330&lt;/b&gt;&lt;br&gt;molecular chaperone&lt;br&gt;Location: 127694 - 127026" locus_tag="HBB05_RS19330" class="clusterblast-orf" id="dummy-1_h1_4_16"  />
</g>
<g id="a1_0017"  >
<polygon points="619,85 624,80 639,80 639,90 624,90 619,85 " style="fill:white; stroke-width:1; stroke:black; " description="&lt;b&gt;HBB05_RS19325&lt;/b&gt;&lt;br&gt;type 1 fimbrial protein&lt;br&gt;Location: 126970 - 126380" locus_tag="HBB05_RS19325" class="clusterblast-orf" id="dummy-1_h1_4_17"  />
</g>
<g id="a1_0018"  >
<polygon points="654,85 659,80 663,80 663,90 659,90 654,85 " style="fill:white; stroke-width:1; stroke:black; " description="&lt;b&gt;HBB05_RS19320&lt;/b&gt;&lt;br&gt;hypothetical protein&lt;br&gt;Location: 125932 - 125663" locus_tag="HBB05_RS19320" class="clusterblast-orf" id="dummy-1_h1_4_18"  />
</g>
<g id="a1_0019"  >
<polygon points="673,90 687,90 692,85 687,80 673,80 673,90 " style="fill:#15d8d8; stroke-width:1; stroke:black; " description="&lt;b&gt;HBB05_RS19315&lt;/b&gt;&lt;br&gt;thioredoxin domain-containing protein&lt;br&gt;Location: 125345 - 124803&lt;br&gt;&lt;br&gt;&lt;b&gt;BlastP hit with MCIC6FC_014179&lt;/b&gt;&lt;br&gt;Percentage identity: 88&lt;br&gt;Percentage coverage: 55&lt;br&gt;BLAST bit score: 292&lt;br&gt;E-value: 3.7e-77" locus_tag="HBB05_RS19315" class="clusterblast-orf" id="dummy-1_h1_4_19"  />
</g>
<g id="a1_0020"  >
<polygon points="700,90 709,90 714,85 709,80 700,80 700,90 " style="fill:#15d8d8; stroke-width:1; stroke:black; " description="&lt;b&gt;HBB05_RS19310&lt;/b&gt;&lt;br&gt;ASCH domain-containing protein&lt;br&gt;Location: 124550 - 124137&lt;br&gt;&lt;br&gt;&lt;b&gt;BlastP hit with MCIC6FC_014179&lt;/b&gt;&lt;br&gt;Percentage identity: 100&lt;br&gt;Percentage coverage: 47&lt;br&gt;BLAST bit score: 281&lt;br&gt;E-value: 1.1e-73" locus_tag="HBB05_RS19310" class="clusterblast-orf" id="dummy-1_h1_4_20"  />
</g>
<g id="a1_0021"  >
<polygon points="714,85 719,80 747,80 747,90 719,90 714,85 " style="fill:#7715d8; stroke-width:1; stroke:black; " description="&lt;b&gt;HBB05_RS19305&lt;/b&gt;&lt;br&gt;HesA/MoeB/ThiF family protein&lt;br&gt;Location: 124127 - 123159&lt;br&gt;&lt;br&gt;&lt;b&gt;BlastP hit with MCIC6FC_014180&lt;/b&gt;&lt;br&gt;Percentage identity: 78&lt;br&gt;Percentage coverage: 43&lt;br&gt;BLAST bit score: 462&lt;br&gt;E-value: 7e-128" locus_tag="HBB05_RS19305" class="clusterblast-orf" id="dummy-1_h1_4_21"  />
</g>
<g id="a1_0022"  >
<polygon points="747,85 752,80 773,80 773,90 752,90 747,85 " style="fill:#7715d8; stroke-width:1; stroke:black; " description="&lt;b&gt;HBB05_RS19300&lt;/b&gt;&lt;br&gt;thiazole synthase&lt;br&gt;Location: 123149 - 122391&lt;br&gt;&lt;br&gt;&lt;b&gt;BlastP hit with MCIC6FC_014180&lt;/b&gt;&lt;br&gt;Percentage identity: 75&lt;br&gt;Percentage coverage: 27&lt;br&gt;BLAST bit score: 265&lt;br&gt;E-value: 1.6e-68" locus_tag="HBB05_RS19300" class="clusterblast-orf" id="dummy-1_h1_4_22"  />
</g>
<g id="a1_0023"  >
<polygon points="773,85 778,80 780,80 780,90 778,90 773,85 " style="fill:white; stroke-width:1; stroke:black; " description="&lt;b&gt;HBB05_RS19295&lt;/b&gt;&lt;br&gt;sulfur carrier protein ThiS&lt;br&gt;Location: 122388 - 122191" locus_tag="HBB05_RS19295" class="clusterblast-orf" id="dummy-1_h1_4_23"  />
</g>
</svg>
