<svg xmlns="http://www.w3.org/2000/svg" xmlns:xlink="http://www.w3.org/1999/xlink" version="1.1" x="0" y="0" height="230" width="800" viewBox="0 0 800 230" preserveAspectRatio="none"  >
<g label="Query sequence" class="clusterblast-cluster"  >
<text x="5" y="20" class="clusterblast-acc"  >
Query sequence</text>
<line x1="10" y1="35" x2="778.0" y2="35" style="stroke-width:1; stroke:grey; "  />
<polygon points="109,35 114,30 151,30 151,40 114,40 109,35 " style="fill:#d81515; stroke-width:1; stroke:black; " description="&lt;b&gt;MCIC6FC_011658&lt;/b&gt;&lt;br&gt;hypothetical protein&lt;br&gt;Location: 100 - 2360" locus_tag="MCIC6FC_011658" class="clusterblast-orf" id="dummy-1_q0_0_all"  />
<polygon points="153,35 158,30 180,30 180,40 158,40 153,35 " style="fill:#5cd815; stroke-width:1; stroke:black; " description="&lt;b&gt;MCIC6FC_011659&lt;/b&gt;&lt;br&gt;hypothetical protein&lt;br&gt;Location: 2465 - 3959" locus_tag="MCIC6FC_011659" class="clusterblast-orf" id="dummy-1_q1_0_all"  />
<polygon points="185,40 214,40 219,35 214,30 185,30 185,40 " style="fill:#15a3d8; stroke-width:1; stroke:black; " description="&lt;b&gt;MCIC6FC_011660&lt;/b&gt;&lt;br&gt;hypothetical protein&lt;br&gt;Location: 4238 - 6118" locus_tag="MCIC6FC_011660" class="clusterblast-orf" id="dummy-1_q2_0_all"  />
<polygon points="220,35 225,30 319,30 319,40 225,40 220,35 " style="fill:#c715d8; stroke-width:1; stroke:black; " description="&lt;b&gt;MCIC6FC_011661&lt;/b&gt;&lt;br&gt;hypothetical protein&lt;br&gt;Location: 6149 - 11584" locus_tag="MCIC6FC_011661" class="clusterblast-orf" id="dummy-1_q3_0_all"  />
<polygon points="328,35 333,30 344,30 344,40 333,40 328,35 " style="fill:#d88015; stroke-width:1; stroke:black; " description="&lt;b&gt;MCIC6FC_011662&lt;/b&gt;&lt;br&gt;hypothetical protein&lt;br&gt;Location: 12070 - 12936" locus_tag="MCIC6FC_011662" class="clusterblast-orf" id="dummy-1_q4_0_all"  />
<polygon points="347,40 408,40 413,35 408,30 347,30 347,40 " style="fill:#15d839; stroke-width:1; stroke:black; " description="&lt;b&gt;MCIC6FC_011663&lt;/b&gt;&lt;br&gt;hypothetical protein&lt;br&gt;Location: 13099 - 16745" locus_tag="MCIC6FC_011663" class="clusterblast-orf" id="dummy-1_q5_0_all"  />
<polygon points="416,40 428,40 433,35 428,30 416,30 416,40 " style="fill:#1539d8; stroke-width:1; stroke:black; " description="&lt;b&gt;MCIC6FC_011664&lt;/b&gt;&lt;br&gt;hypothetical protein&lt;br&gt;Location: 16896 - 17817" locus_tag="MCIC6FC_011664" class="clusterblast-orf" id="dummy-1_q6_0_all"  />
<polygon points="437,40 506,40 511,35 506,30 437,30 437,40 " style="fill:#d81580; stroke-width:1; stroke:black; " description="&lt;b&gt;MCIC6FC_011665&lt;/b&gt;&lt;br&gt;hypothetical protein&lt;br&gt;Location: 18044 - 22102" locus_tag="MCIC6FC_011665" class="clusterblast-orf" id="dummy-1_q7_0_all"  />
<polygon points="513,35 518,30 566,30 566,40 518,40 513,35 " style="fill:#c7d815; stroke-width:1; stroke:black; " description="&lt;b&gt;MCIC6FC_011666&lt;/b&gt;&lt;br&gt;hypothetical protein&lt;br&gt;Location: 22217 - 25086" locus_tag="MCIC6FC_011666" class="clusterblast-orf" id="dummy-1_q8_0_all"  />
<polygon points="575,40 652,40 657,35 652,30 575,30 575,40 " style="fill:#15d8a3; stroke-width:1; stroke:black; " description="&lt;b&gt;MCIC6FC_011667&lt;/b&gt;&lt;br&gt;hypothetical protein&lt;br&gt;Location: 25569 - 30093" locus_tag="MCIC6FC_011667" class="clusterblast-orf" id="dummy-1_q9_0_all"  />
<polygon points="663,40 665,40 670,35 665,30 663,30 663,40 " style="fill:#5c15d8; stroke-width:1; stroke:black; " description="&lt;b&gt;MCIC6FC_011668&lt;/b&gt;&lt;br&gt;hypothetical protein&lt;br&gt;Location: 30394 - 30787" locus_tag="MCIC6FC_011668" class="clusterblast-orf" id="dummy-1_q10_0_all"  />
</g>
<g label="NZ_CP023272" description="NZ_CP023272 (111737-154444): Pseudomonas lurida strain MYb11 chromosome, comp... (75% of genes show similarity), NRPS-like" class="clusterblast-cluster"  >
<text x="5" y="70" class="clusterblast-acc"  >
<a xlink:href="https://antismash-db.secondarymetabolites.org/area.html?record=NZ_CP023272&amp;start=111737&amp;end=154444" target="_blank">NZ_CP023272 (111737-154444)</a>: Pseudomonas lurida strain MYb11 chromosome, comp... (75% of genes show similarity), NRPS-like</text>
<line x1="10" y1="85" x2="778.0" y2="85" style="stroke-width:1; stroke:grey; "  />
</g>
<g id="a1_000"  >
<polygon points="0,85 5,80 26,80 26,90 5,90 0,85 " style="fill:white; stroke-width:1; stroke:black; " description="&lt;b&gt;CLM75_RS00550&lt;/b&gt;&lt;br&gt;NAD(P)(+) transhydrogenase (Re/Si-specific) subunit beta&lt;br&gt;Location: 111738 - 113174" locus_tag="CLM75_RS00550" class="clusterblast-orf" id="dummy-1_h1_10_0"  />
</g>
<g id="a1_001"  >
<polygon points="26,85 31,80 32,80 32,90 31,90 26,85 " style="fill:white; stroke-width:1; stroke:black; " description="&lt;b&gt;CLM75_RS00555&lt;/b&gt;&lt;br&gt;NAD(P) transhydrogenase subunit alpha&lt;br&gt;Location: 113174 - 113494" locus_tag="CLM75_RS00555" class="clusterblast-orf" id="dummy-1_h1_10_1"  />
</g>
<g id="a1_002"  >
<polygon points="32,85 37,80 52,80 52,90 37,90 32,85 " style="fill:white; stroke-width:1; stroke:black; " description="&lt;b&gt;CLM75_RS00560&lt;/b&gt;&lt;br&gt;Re/Si-specific NAD(P)(+) transhydrogenase subunit alpha&lt;br&gt;Location: 113510 - 114631" locus_tag="CLM75_RS00560" class="clusterblast-orf" id="dummy-1_h1_10_2"  />
</g>
<g id="a1_003"  >
<polygon points="61,85 66,80 77,80 77,90 66,90 61,85 " style="fill:white; stroke-width:1; stroke:black; " description="&lt;b&gt;CLM75_RS00565&lt;/b&gt;&lt;br&gt;LysR family transcriptional regulator&lt;br&gt;Location: 115084 - 115983" locus_tag="CLM75_RS00565" class="clusterblast-orf" id="dummy-1_h1_10_3"  />
</g>
<g id="a1_004"  >
<polygon points="80,90 97,90 102,85 97,80 80,80 80,90 " style="fill:white; stroke-width:1; stroke:black; " description="&lt;b&gt;CLM75_RS00570&lt;/b&gt;&lt;br&gt;acyl-CoA dehydrogenase&lt;br&gt;Location: 116142 - 117323" locus_tag="CLM75_RS00570" class="clusterblast-orf" id="dummy-1_h1_10_4"  />
</g>
<g id="a1_005"  >
<polygon points="102,90 119,90 124,85 119,80 102,80 102,90 " style="fill:white; stroke-width:1; stroke:black; " description="&lt;b&gt;CLM75_RS00575&lt;/b&gt;&lt;br&gt;CoA transferase&lt;br&gt;Location: 117336 - 118556" locus_tag="CLM75_RS00575" class="clusterblast-orf" id="dummy-1_h1_10_5"  />
</g>
<g id="a1_006"  >
<polygon points="238,85 243,80 284,80 284,90 243,90 238,85 " style="fill:#d81515; stroke-width:1; stroke:black; " description="&lt;b&gt;CLM75_RS00615&lt;/b&gt;&lt;br&gt;TonB-dependent siderophore receptor&lt;br&gt;Location: 124815 - 127310&lt;br&gt;&lt;br&gt;&lt;b&gt;BlastP hit with MCIC6FC_011658&lt;/b&gt;&lt;br&gt;Percentage identity: 98&lt;br&gt;Percentage coverage: 100&lt;br&gt;BLAST bit score: 1468&lt;br&gt;E-value: 0.0" locus_tag="CLM75_RS00615" class="clusterblast-orf" id="dummy-1_h1_10_6"  />
</g>
<g id="a1_007"  >
<polygon points="286,85 291,80 304,80 304,90 291,90 286,85 " style="fill:#5cd815; stroke-width:1; stroke:black; " description="&lt;b&gt;CLM75_RS00620&lt;/b&gt;&lt;br&gt;FecR family protein&lt;br&gt;Location: 127417 - 128397&lt;br&gt;&lt;br&gt;&lt;b&gt;BlastP hit with MCIC6FC_011659&lt;/b&gt;&lt;br&gt;Percentage identity: 83&lt;br&gt;Percentage coverage: 71&lt;br&gt;BLAST bit score: 493&lt;br&gt;E-value: 1.7e-137" locus_tag="CLM75_RS00620" class="clusterblast-orf" id="dummy-1_h1_10_7"  />
</g>
<g id="a1_008"  >
<polygon points="304,85 309,80 313,80 313,90 309,90 304,85 " style="fill:#5cd815; stroke-width:1; stroke:black; " description="&lt;b&gt;CLM75_RS00625&lt;/b&gt;&lt;br&gt;sigma-70 family RNA polymerase sigma factor&lt;br&gt;Location: 128394 - 128909&lt;br&gt;&lt;br&gt;&lt;b&gt;BlastP hit with MCIC6FC_011659&lt;/b&gt;&lt;br&gt;Percentage identity: 97&lt;br&gt;Percentage coverage: 38&lt;br&gt;BLAST bit score: 321&lt;br&gt;E-value: 1.5e-85" locus_tag="CLM75_RS00625" class="clusterblast-orf" id="dummy-1_h1_10_8"  />
</g>
<g id="a1_009"  >
<polygon points="318,90 348,90 353,85 348,80 318,80 318,90 " style="fill:#15a3d8; stroke-width:1; stroke:black; " description="&lt;b&gt;CLM75_RS00630&lt;/b&gt;&lt;br&gt;methyl-accepting chemotaxis protein&lt;br&gt;Location: 129189 - 131069&lt;br&gt;&lt;br&gt;&lt;b&gt;BlastP hit with MCIC6FC_011660&lt;/b&gt;&lt;br&gt;Percentage identity: 97&lt;br&gt;Percentage coverage: 102&lt;br&gt;BLAST bit score: 938&lt;br&gt;E-value: 2.7e-271" locus_tag="CLM75_RS00630" class="clusterblast-orf" id="dummy-1_h1_10_9"  />
</g>
<g id="a1_0010"  >
<polygon points="353,85 358,80 362,80 362,90 358,90 353,85 " style="fill:white; stroke-width:1; stroke:black; " description="&lt;b&gt;CLM75_RS00635&lt;/b&gt;&lt;br&gt;SRPBCC family protein&lt;br&gt;Location: 131101 - 131562" locus_tag="CLM75_RS00635" class="clusterblast-orf" id="dummy-1_h1_10_10"  />
</g>
<g id="a1_0011"  >
<polygon points="362,85 367,80 424,80 424,90 367,90 362,85 " style="fill:#c715d8; stroke-width:1; stroke:black; " description="&lt;b&gt;CLM75_RS00640&lt;/b&gt;&lt;br&gt;non-ribosomal peptide synthetase&lt;br&gt;Location: 131582 - 134953&lt;br&gt;&lt;br&gt;&lt;b&gt;BlastP hit with MCIC6FC_011661&lt;/b&gt;&lt;br&gt;Percentage identity: 91&lt;br&gt;Percentage coverage: 63&lt;br&gt;BLAST bit score: 2001&lt;br&gt;E-value: 0.0" locus_tag="CLM75_RS00640" class="clusterblast-orf" id="dummy-1_h1_10_11"  />
</g>
<g id="a1_0012"  >
<polygon points="423,85 428,80 441,80 441,90 428,90 423,85 " style="fill:#c715d8; stroke-width:1; stroke:black; " description="&lt;b&gt;CLM75_RS00645&lt;/b&gt;&lt;br&gt;diiron oxygenase&lt;br&gt;Location: 134950 - 135897&lt;br&gt;&lt;br&gt;&lt;b&gt;BlastP hit with MCIC6FC_011661&lt;/b&gt;&lt;br&gt;Percentage identity: 94&lt;br&gt;Percentage coverage: 17&lt;br&gt;BLAST bit score: 571&lt;br&gt;E-value: 4.3e-160" locus_tag="CLM75_RS00645" class="clusterblast-orf" id="dummy-1_h1_10_12"  />
</g>
<g id="a1_0013"  >
<polygon points="441,85 446,80 455,80 455,90 446,90 441,85 " style="fill:#c715d8; stroke-width:1; stroke:black; " description="&lt;b&gt;CLM75_RS00650&lt;/b&gt;&lt;br&gt;DUF3050 domain-containing protein&lt;br&gt;Location: 135894 - 136652&lt;br&gt;&lt;br&gt;&lt;b&gt;BlastP hit with MCIC6FC_011661&lt;/b&gt;&lt;br&gt;Percentage identity: 93&lt;br&gt;Percentage coverage: 10&lt;br&gt;BLAST bit score: 341&lt;br&gt;E-value: 7.2e-91" locus_tag="CLM75_RS00650" class="clusterblast-orf" id="dummy-1_h1_10_13"  />
</g>
<g id="a1_0014"  >
<polygon points="461,85 466,80 474,80 474,90 466,90 461,85 " style="fill:#d88015; stroke-width:1; stroke:black; " description="&lt;b&gt;CLM75_RS00655&lt;/b&gt;&lt;br&gt;GntR family transcriptional regulator&lt;br&gt;Location: 137023 - 137721&lt;br&gt;&lt;br&gt;&lt;b&gt;BlastP hit with MCIC6FC_011662&lt;/b&gt;&lt;br&gt;Percentage identity: 97&lt;br&gt;Percentage coverage: 86&lt;br&gt;BLAST bit score: 436&lt;br&gt;E-value: 1.5e-120" locus_tag="CLM75_RS00655" class="clusterblast-orf" id="dummy-1_h1_10_14"  />
</g>
<g id="a1_0015"  >
<polygon points="480,90 491,90 496,85 491,80 480,80 480,90 " style="fill:#15d839; stroke-width:1; stroke:black; " description="&lt;b&gt;CLM75_RS00660&lt;/b&gt;&lt;br&gt;TauD/TfdA family dioxygenase&lt;br&gt;Location: 138052 - 138945&lt;br&gt;&lt;br&gt;&lt;b&gt;BlastP hit with MCIC6FC_011663&lt;/b&gt;&lt;br&gt;Percentage identity: 97&lt;br&gt;Percentage coverage: 24&lt;br&gt;BLAST bit score: 570&lt;br&gt;E-value: 4.9e-160" locus_tag="CLM75_RS00660" class="clusterblast-orf" id="dummy-1_h1_10_15"  />
</g>
<g id="a1_0016"  >
<polygon points="497,90 510,90 515,85 510,80 497,80 497,90 " style="fill:#15d839; stroke-width:1; stroke:black; " description="&lt;b&gt;CLM75_RS00665&lt;/b&gt;&lt;br&gt;ABC transporter substrate-binding protein&lt;br&gt;Location: 138959 - 139984&lt;br&gt;&lt;br&gt;&lt;b&gt;BlastP hit with MCIC6FC_011663&lt;/b&gt;&lt;br&gt;Percentage identity: 100&lt;br&gt;Percentage coverage: 29&lt;br&gt;BLAST bit score: 675&lt;br&gt;E-value: 1.4e-191" locus_tag="CLM75_RS00665" class="clusterblast-orf" id="dummy-1_h1_10_16"  />
</g>
<g id="a1_0017"  >
<polygon points="515,90 526,90 531,85 526,80 515,80 515,90 " style="fill:#15d839; stroke-width:1; stroke:black; " description="&lt;b&gt;CLM75_RS00670&lt;/b&gt;&lt;br&gt;ABC transporter ATP-binding protein&lt;br&gt;Location: 139986 - 140837&lt;br&gt;&lt;br&gt;&lt;b&gt;BlastP hit with MCIC6FC_011663&lt;/b&gt;&lt;br&gt;Percentage identity: 99&lt;br&gt;Percentage coverage: 24&lt;br&gt;BLAST bit score: 545&lt;br&gt;E-value: 9.9e-153" locus_tag="CLM75_RS00670" class="clusterblast-orf" id="dummy-1_h1_10_17"  />
</g>
<g id="a1_0018"  >
<polygon points="531,90 542,90 547,85 542,80 531,80 531,90 " style="fill:#15d839; stroke-width:1; stroke:black; " description="&lt;b&gt;CLM75_RS00675&lt;/b&gt;&lt;br&gt;ABC transporter permease&lt;br&gt;Location: 140849 - 141697&lt;br&gt;&lt;br&gt;&lt;b&gt;BlastP hit with MCIC6FC_011663&lt;/b&gt;&lt;br&gt;Percentage identity: 99&lt;br&gt;Percentage coverage: 24&lt;br&gt;BLAST bit score: 533&lt;br&gt;E-value: 5.1e-149" locus_tag="CLM75_RS00675" class="clusterblast-orf" id="dummy-1_h1_10_18"  />
</g>
<g id="a1_0019"  >
<polygon points="549,90 561,90 566,85 561,80 549,80 549,90 " style="fill:#1539d8; stroke-width:1; stroke:black; " description="&lt;b&gt;CLM75_RS00680&lt;/b&gt;&lt;br&gt;LysR family transcriptional regulator&lt;br&gt;Location: 141849 - 142769&lt;br&gt;&lt;br&gt;&lt;b&gt;BlastP hit with MCIC6FC_011664&lt;/b&gt;&lt;br&gt;Percentage identity: 100&lt;br&gt;Percentage coverage: 100&lt;br&gt;BLAST bit score: 606&lt;br&gt;E-value: 2.1e-171" locus_tag="CLM75_RS00680" class="clusterblast-orf" id="dummy-1_h1_10_19"  />
</g>
<g id="a1_0020"  >
<polygon points="570,90 593,90 598,85 593,80 570,80 570,90 " style="fill:#d81580; stroke-width:1; stroke:black; " description="&lt;b&gt;CLM75_RS00685&lt;/b&gt;&lt;br&gt;MFS transporter&lt;br&gt;Location: 142998 - 144533&lt;br&gt;&lt;br&gt;&lt;b&gt;BlastP hit with MCIC6FC_011665&lt;/b&gt;&lt;br&gt;Percentage identity: 99&lt;br&gt;Percentage coverage: 38&lt;br&gt;BLAST bit score: 981&lt;br&gt;E-value: 8e-284" locus_tag="CLM75_RS00685" class="clusterblast-orf" id="dummy-1_h1_10_20"  />
</g>
<g id="a1_0021"  >
<polygon points="599,90 613,90 618,85 613,80 599,80 599,90 " style="fill:#d81580; stroke-width:1; stroke:black; " description="&lt;b&gt;CLM75_RS00690&lt;/b&gt;&lt;br&gt;HlyD family secretion protein&lt;br&gt;Location: 144549 - 145607&lt;br&gt;&lt;br&gt;&lt;b&gt;BlastP hit with MCIC6FC_011665&lt;/b&gt;&lt;br&gt;Percentage identity: 100&lt;br&gt;Percentage coverage: 26&lt;br&gt;BLAST bit score: 639&lt;br&gt;E-value: 5.7e-181" locus_tag="CLM75_RS00690" class="clusterblast-orf" id="dummy-1_h1_10_21"  />
</g>
<g id="a1_0022"  >
<polygon points="618,90 639,90 644,85 639,80 618,80 618,90 " style="fill:#d81580; stroke-width:1; stroke:black; " description="&lt;b&gt;CLM75_RS00695&lt;/b&gt;&lt;br&gt;efflux transporter outer membrane subunit&lt;br&gt;Location: 145604 - 147049&lt;br&gt;&lt;br&gt;&lt;b&gt;BlastP hit with MCIC6FC_011665&lt;/b&gt;&lt;br&gt;Percentage identity: 98&lt;br&gt;Percentage coverage: 35&lt;br&gt;BLAST bit score: 896&lt;br&gt;E-value: 3.4e-258" locus_tag="CLM75_RS00695" class="clusterblast-orf" id="dummy-1_h1_10_22"  />
</g>
<g id="a1_0023"  >
<polygon points="646,90 650,90 655,85 650,80 646,80 646,90 " style="fill:#5cd815; stroke-width:1; stroke:black; " description="&lt;b&gt;CLM75_RS00700&lt;/b&gt;&lt;br&gt;sigma-70 family RNA polymerase sigma factor&lt;br&gt;Location: 147124 - 147633&lt;br&gt;&lt;br&gt;&lt;b&gt;BlastP hit with MCIC6FC_011659&lt;/b&gt;&lt;br&gt;Percentage identity: 54&lt;br&gt;Percentage coverage: 34&lt;br&gt;BLAST bit score: 160&lt;br&gt;E-value: 4.4e-37" locus_tag="CLM75_RS00700" class="clusterblast-orf" id="dummy-1_h1_10_23"  />
</g>
<g id="a1_0024"  >
<polygon points="655,90 667,90 672,85 667,80 655,80 655,90 " style="fill:#5cd815; stroke-width:1; stroke:black; " description="&lt;b&gt;CLM75_RS00705&lt;/b&gt;&lt;br&gt;FecR domain-containing protein&lt;br&gt;Location: 147630 - 148580&lt;br&gt;&lt;br&gt;&lt;b&gt;BlastP hit with MCIC6FC_011659&lt;/b&gt;&lt;br&gt;Percentage identity: 31&lt;br&gt;Percentage coverage: 70&lt;br&gt;BLAST bit score: 139&lt;br&gt;E-value: 1e-30" locus_tag="CLM75_RS00705" class="clusterblast-orf" id="dummy-1_h1_10_24"  />
</g>
<g id="a1_0025"  >
<polygon points="674,90 714,90 719,85 714,80 674,80 674,90 " style="fill:#d81515; stroke-width:1; stroke:black; " description="&lt;b&gt;CLM75_RS00710&lt;/b&gt;&lt;br&gt;TonB-dependent siderophore receptor&lt;br&gt;Location: 148673 - 151126&lt;br&gt;&lt;br&gt;&lt;b&gt;BlastP hit with MCIC6FC_011658&lt;/b&gt;&lt;br&gt;Percentage identity: 36&lt;br&gt;Percentage coverage: 98&lt;br&gt;BLAST bit score: 436&lt;br&gt;E-value: 4.1e-120" locus_tag="CLM75_RS00710" class="clusterblast-orf" id="dummy-1_h1_10_25"  />
</g>
<g id="a1_0026"  >
<polygon points="727,85 732,80 740,80 740,90 732,90 727,85 " style="fill:#c7d815; stroke-width:1; stroke:black; " description="&lt;b&gt;CLM75_RS00715&lt;/b&gt;&lt;br&gt;DUF3142 domain-containing protein&lt;br&gt;Location: 151575 - 152279&lt;br&gt;&lt;br&gt;&lt;b&gt;BlastP hit with MCIC6FC_011666&lt;/b&gt;&lt;br&gt;Percentage identity: 92&lt;br&gt;Percentage coverage: 25&lt;br&gt;BLAST bit score: 449&lt;br&gt;E-value: 9.9e-124" locus_tag="CLM75_RS00715" class="clusterblast-orf" id="dummy-1_h1_10_26"  />
</g>
<g id="a1_0027"  >
<polygon points="740,85 745,80 780,80 780,90 745,90 740,85 " style="fill:#c7d815; stroke-width:1; stroke:black; " description="&lt;b&gt;CLM75_RS00720&lt;/b&gt;&lt;br&gt;outer membrane assembly lipoprotein YfiO&lt;br&gt;Location: 152276 - 154444&lt;br&gt;&lt;br&gt;&lt;b&gt;BlastP hit with MCIC6FC_011666&lt;/b&gt;&lt;br&gt;Percentage identity: 94&lt;br&gt;Percentage coverage: 73&lt;br&gt;BLAST bit score: 1230&lt;br&gt;E-value: 0.0" locus_tag="CLM75_RS00720" class="clusterblast-orf" id="dummy-1_h1_10_27"  />
</g>
</svg>
