<svg xmlns="http://www.w3.org/2000/svg" xmlns:xlink="http://www.w3.org/1999/xlink" version="1.1" x="0" y="0" height="230" width="800" viewBox="0 0 800 230" preserveAspectRatio="none"  >
<g label="Query sequence" class="clusterblast-cluster"  >
<text x="5" y="20" class="clusterblast-acc"  >
Query sequence</text>
<line x1="10" y1="35" x2="778.0" y2="35" style="stroke-width:1; stroke:grey; "  />
<polygon points="251,35 256,30 300,30 300,40 256,40 251,35 " style="fill:white; stroke-width:1; stroke:black; " description="&lt;b&gt;MCIC6FC_014722&lt;/b&gt;&lt;br&gt;hypothetical protein&lt;br&gt;Location: 233376 - 236576" locus_tag="MCIC6FC_014722" class="clusterblast-orf" id="dummy-1_q0_0_all"  />
<polygon points="300,35 305,30 312,30 312,40 305,40 300,35 " style="fill:white; stroke-width:1; stroke:black; " description="&lt;b&gt;MCIC6FC_014723&lt;/b&gt;&lt;br&gt;hypothetical protein&lt;br&gt;Location: 236600 - 237359" locus_tag="MCIC6FC_014723" class="clusterblast-orf" id="dummy-1_q1_0_all"  />
<polygon points="322,35 327,30 369,30 369,40 327,40 322,35 " style="fill:#d81515; stroke-width:1; stroke:black; " description="&lt;b&gt;MCIC6FC_014724&lt;/b&gt;&lt;br&gt;hypothetical protein&lt;br&gt;Location: 238014 - 241095" locus_tag="MCIC6FC_014724" class="clusterblast-orf" id="dummy-1_q2_0_all"  />
<polygon points="369,35 374,30 399,30 399,40 374,40 369,35 " style="fill:#d81515; stroke-width:1; stroke:black; " description="&lt;b&gt;MCIC6FC_014725&lt;/b&gt;&lt;br&gt;hypothetical protein&lt;br&gt;Location: 241149 - 243066" locus_tag="MCIC6FC_014725" class="clusterblast-orf" id="dummy-1_q3_0_all"  />
<polygon points="399,35 404,30 515,30 515,40 404,40 399,35 " style="fill:#15d8d8; stroke-width:1; stroke:black; " description="&lt;b&gt;MCIC6FC_014726&lt;/b&gt;&lt;br&gt;hypothetical protein&lt;br&gt;Location: 243089 - 250669" locus_tag="MCIC6FC_014726" class="clusterblast-orf" id="dummy-1_q4_0_all"  />
<polygon points="518,35 523,30 528,30 528,40 523,40 518,35 " style="fill:white; stroke-width:1; stroke:black; " description="&lt;b&gt;MCIC6FC_014727&lt;/b&gt;&lt;br&gt;hypothetical protein&lt;br&gt;Location: 250848 - 251563" locus_tag="MCIC6FC_014727" class="clusterblast-orf" id="dummy-1_q5_0_all"  />
</g>
<g label="NZ_JH930445" description="NZ_JH930445 (659185-711774): Acinetobacter nosocomialis Ab22222 supercont1.3,... (12% of genes show similarity), NRPS" class="clusterblast-cluster"  >
<text x="5" y="70" class="clusterblast-acc"  >
<a xlink:href="https://antismash-db.secondarymetabolites.org/area.html?record=NZ_JH930445&amp;start=659185&amp;end=711774" target="_blank">NZ_JH930445 (659185-711774)</a>: Acinetobacter nosocomialis Ab22222 supercont1.3,... (12% of genes show similarity), NRPS</text>
<line x1="10" y1="85" x2="778.0" y2="85" style="stroke-width:1; stroke:grey; "  />
</g>
<g id="a1_000"  >
<polygon points="0,90 18,90 23,85 18,80 0,80 0,90 " style="fill:white; stroke-width:1; stroke:black; " description="&lt;b&gt;W9I_RS11295&lt;/b&gt;&lt;br&gt;phospholipase D family protein&lt;br&gt;Location: 660045 - 661604" locus_tag="W9I_RS11295" class="clusterblast-orf" id="dummy-1_h1_6_0"  />
</g>
<g id="a1_001"  >
<polygon points="23,85 28,80 32,80 32,90 28,90 23,85 " style="fill:white; stroke-width:1; stroke:black; " description="&lt;b&gt;W9I_RS11300&lt;/b&gt;&lt;br&gt;uracil-DNA glycosylase family protein&lt;br&gt;Location: 661614 - 662201" locus_tag="W9I_RS11300" class="clusterblast-orf" id="dummy-1_h1_6_1"  />
</g>
<g id="a1_002"  >
<polygon points="35,85 39,80 39,90 35,85 " style="fill:white; stroke-width:1; stroke:black; " description="&lt;b&gt;W9I_RS11305&lt;/b&gt;&lt;br&gt;hypothetical protein&lt;br&gt;Location: 662364 - 662600" locus_tag="W9I_RS11305" class="clusterblast-orf" id="dummy-1_h1_6_2"  />
</g>
<g id="a1_003"  >
<polygon points="42,85 45,80 45,90 42,85 " style="fill:white; stroke-width:1; stroke:black; " description="&lt;b&gt;W9I_RS11310&lt;/b&gt;&lt;br&gt;hypothetical protein&lt;br&gt;Location: 662853 - 663029" locus_tag="W9I_RS11310" class="clusterblast-orf" id="dummy-1_h1_6_3"  />
</g>
<g id="a1_004"  >
<polygon points="54,85 59,80 70,80 70,90 59,90 54,85 " style="fill:#15d8d8; stroke-width:1; stroke:black; " description="&lt;b&gt;W9I_RS11315&lt;/b&gt;&lt;br&gt;dipeptidase&lt;br&gt;Location: 663609 - 664661&lt;br&gt;&lt;br&gt;&lt;b&gt;BlastP hit with MCIC6FC_014726&lt;/b&gt;&lt;br&gt;Percentage identity: 36&lt;br&gt;Percentage coverage: 18&lt;br&gt;BLAST bit score: 174&lt;br&gt;E-value: 9.3e-41" locus_tag="W9I_RS11315" class="clusterblast-orf" id="dummy-1_h1_6_4"  />
</g>
<g id="a1_005"  >
<polygon points="70,85 75,80 88,80 88,90 75,90 70,85 " style="fill:#d81515; stroke-width:1; stroke:black; " description="&lt;b&gt;W9I_RS11320&lt;/b&gt;&lt;br&gt;pyrroloquinoline quinone biosynthesis protein PqqE&lt;br&gt;Location: 664678 - 665832&lt;br&gt;&lt;br&gt;&lt;b&gt;BlastP hit with MCIC6FC_014724&lt;/b&gt;&lt;br&gt;Percentage identity: 53&lt;br&gt;Percentage coverage: 25&lt;br&gt;BLAST bit score: 225&lt;br&gt;E-value: 2.8e-56&lt;br&gt;&lt;br&gt;&lt;b&gt;BlastP hit with MCIC6FC_014725&lt;/b&gt;&lt;br&gt;Percentage identity: 73&lt;br&gt;Percentage coverage: 19&lt;br&gt;BLAST bit score: 180&lt;br&gt;E-value: 4e-43" locus_tag="W9I_RS11320" class="clusterblast-orf" id="dummy-1_h1_6_5"  />
</g>
<g id="a1_006"  >
<polygon points="88,85 92,80 92,90 88,85 " style="fill:#d81515; stroke-width:1; stroke:black; " description="&lt;b&gt;W9I_RS11325&lt;/b&gt;&lt;br&gt;pyrroloquinoline quinone biosynthesis peptide chaperone PqqD&lt;br&gt;Location: 665829 - 666113&lt;br&gt;&lt;br&gt;&lt;b&gt;BlastP hit with MCIC6FC_014725&lt;/b&gt;&lt;br&gt;Percentage identity: 45&lt;br&gt;Percentage coverage: 11&lt;br&gt;BLAST bit score: 64&lt;br&gt;E-value: 5.5e-08" locus_tag="W9I_RS11325" class="clusterblast-orf" id="dummy-1_h1_6_6"  />
</g>
<g id="a1_007"  >
<polygon points="92,85 97,80 104,80 104,90 97,90 92,85 " style="fill:#d81515; stroke-width:1; stroke:black; " description="&lt;b&gt;W9I_RS11330&lt;/b&gt;&lt;br&gt;pyrroloquinoline-quinone synthase PqqC&lt;br&gt;Location: 666110 - 666868&lt;br&gt;&lt;br&gt;&lt;b&gt;BlastP hit with MCIC6FC_014725&lt;/b&gt;&lt;br&gt;Percentage identity: 64&lt;br&gt;Percentage coverage: 43&lt;br&gt;BLAST bit score: 324&lt;br&gt;E-value: 1.7e-86" locus_tag="W9I_RS11330" class="clusterblast-orf" id="dummy-1_h1_6_7"  />
</g>
<g id="a1_008"  >
<polygon points="104,85 109,80 118,80 118,90 109,90 104,85 " style="fill:#d81515; stroke-width:1; stroke:black; " description="&lt;b&gt;W9I_RS11335&lt;/b&gt;&lt;br&gt;pyrroloquinoline quinone biosynthesis protein PqqB&lt;br&gt;Location: 666877 - 667788&lt;br&gt;&lt;br&gt;&lt;b&gt;BlastP hit with MCIC6FC_014725&lt;/b&gt;&lt;br&gt;Percentage identity: 52&lt;br&gt;Percentage coverage: 21&lt;br&gt;BLAST bit score: 134&lt;br&gt;E-value: 4.3e-29" locus_tag="W9I_RS11335" class="clusterblast-orf" id="dummy-1_h1_6_8"  />
</g>
<g id="a1_009"  >
<polygon points="119,85 120,80 120,90 119,85 " style="fill:white; stroke-width:1; stroke:black; " description="&lt;b&gt;W9I_RS0104185&lt;/b&gt;&lt;br&gt;pyrroloquinoline quinone precursor peptide PqqA&lt;br&gt;Location: 667864 - 667938" locus_tag="W9I_RS0104185" class="clusterblast-orf" id="dummy-1_h1_6_9"  />
</g>
<g id="a1_0010"  >
<polygon points="123,85 128,80 155,80 155,90 128,90 123,85 " style="fill:white; stroke-width:1; stroke:black; " description="&lt;b&gt;W9I_RS11340&lt;/b&gt;&lt;br&gt;polyphosphate kinase 1&lt;br&gt;Location: 668162 - 670237" locus_tag="W9I_RS11340" class="clusterblast-orf" id="dummy-1_h1_6_10"  />
</g>
<g id="a1_0011"  >
<polygon points="160,90 182,90 187,85 182,80 160,80 160,90 " style="fill:white; stroke-width:1; stroke:black; " description="&lt;b&gt;W9I_RS11345&lt;/b&gt;&lt;br&gt;bifunctional metallophosphatase/5'-nucleotidase&lt;br&gt;Location: 670545 - 672326" locus_tag="W9I_RS11345" class="clusterblast-orf" id="dummy-1_h1_6_11"  />
</g>
<g id="a1_0012"  >
<polygon points="188,85 193,80 194,80 194,90 193,90 188,85 " style="fill:white; stroke-width:1; stroke:black; " description="&lt;b&gt;W9I_RS11350&lt;/b&gt;&lt;br&gt;transcriptional repressor&lt;br&gt;Location: 672399 - 672800" locus_tag="W9I_RS11350" class="clusterblast-orf" id="dummy-1_h1_6_12"  />
</g>
<g id="a1_0013"  >
<polygon points="196,85 201,80 226,80 226,90 201,90 196,85 " style="fill:white; stroke-width:1; stroke:black; " description="&lt;b&gt;W9I_RS11355&lt;/b&gt;&lt;br&gt;TonB-dependent receptor&lt;br&gt;Location: 672937 - 674898" locus_tag="W9I_RS11355" class="clusterblast-orf" id="dummy-1_h1_6_13"  />
</g>
<g id="a1_0014"  >
<polygon points="230,90 272,90 277,85 272,80 230,80 230,90 " style="fill:white; stroke-width:1; stroke:black; " description="&lt;b&gt;W9I_RS11360&lt;/b&gt;&lt;br&gt;multidrug efflux RND transporter permease subunit&lt;br&gt;Location: 675116 - 678250" locus_tag="W9I_RS11360" class="clusterblast-orf" id="dummy-1_h1_6_14"  />
</g>
<g id="a1_0015"  >
<polygon points="278,85 283,80 291,80 291,90 283,90 278,85 " style="fill:white; stroke-width:1; stroke:black; " description="&lt;b&gt;W9I_RS11365&lt;/b&gt;&lt;br&gt;isochorismatase&lt;br&gt;Location: 678296 - 679165" locus_tag="W9I_RS11365" class="clusterblast-orf" id="dummy-1_h1_6_15"  />
</g>
<g id="a1_0016"  >
<polygon points="292,85 297,80 317,80 317,90 297,90 292,85 " style="fill:white; stroke-width:1; stroke:black; " description="&lt;b&gt;W9I_RS11370&lt;/b&gt;&lt;br&gt;AMP-binding protein&lt;br&gt;Location: 679186 - 680850" locus_tag="W9I_RS11370" class="clusterblast-orf" id="dummy-1_h1_6_16"  />
</g>
<g id="a1_0017"  >
<polygon points="317,85 322,80 336,80 336,90 322,90 317,85 " style="fill:white; stroke-width:1; stroke:black; " description="&lt;b&gt;W9I_RS11375&lt;/b&gt;&lt;br&gt;isochorismate synthase&lt;br&gt;Location: 680862 - 682085" locus_tag="W9I_RS11375" class="clusterblast-orf" id="dummy-1_h1_6_17"  />
</g>
<g id="a1_0018"  >
<polygon points="337,85 342,80 348,80 348,90 342,90 337,85 " style="fill:white; stroke-width:1; stroke:black; " description="&lt;b&gt;W9I_RS11380&lt;/b&gt;&lt;br&gt;SDR family oxidoreductase&lt;br&gt;Location: 682130 - 682900" locus_tag="W9I_RS11380" class="clusterblast-orf" id="dummy-1_h1_6_18"  />
</g>
<g id="a1_0019"  >
<polygon points="352,90 366,90 371,85 366,80 352,80 352,90 " style="fill:white; stroke-width:1; stroke:black; " description="&lt;b&gt;W9I_RS11385&lt;/b&gt;&lt;br&gt;enterochelin esterase&lt;br&gt;Location: 683166 - 684365" locus_tag="W9I_RS11385" class="clusterblast-orf" id="dummy-1_h1_6_19"  />
</g>
<g id="a1_0020"  >
<polygon points="371,90 374,85 371,80 371,90 " style="fill:white; stroke-width:1; stroke:black; " description="&lt;b&gt;W9I_RS11390&lt;/b&gt;&lt;br&gt;MbtH family protein&lt;br&gt;Location: 684395 - 684610" locus_tag="W9I_RS11390" class="clusterblast-orf" id="dummy-1_h1_6_20"  />
</g>
<g id="a1_0021"  >
<polygon points="375,90 479,90 484,85 479,80 375,80 375,90 " style="fill:white; stroke-width:1; stroke:black; " description="&lt;b&gt;W9I_RS11395&lt;/b&gt;&lt;br&gt;non-ribosomal peptide synthetase&lt;br&gt;Location: 684623 - 691774" locus_tag="W9I_RS11395" class="clusterblast-orf" id="dummy-1_h1_6_21"  />
</g>
<g id="a1_0022"  >
<polygon points="484,90 498,90 503,85 498,80 484,80 484,90 " style="fill:white; stroke-width:1; stroke:black; " description="&lt;b&gt;W9I_RS11400&lt;/b&gt;&lt;br&gt;enterobactin transporter EntS&lt;br&gt;Location: 691771 - 693021" locus_tag="W9I_RS11400" class="clusterblast-orf" id="dummy-1_h1_6_22"  />
</g>
<g id="a1_0023"  >
<polygon points="504,85 509,80 515,80 515,90 509,90 504,85 " style="fill:white; stroke-width:1; stroke:black; " description="&lt;b&gt;W9I_RS11405&lt;/b&gt;&lt;br&gt;4'-phosphopantetheinyl transferase superfamily protein&lt;br&gt;Location: 693064 - 693795" locus_tag="W9I_RS11405" class="clusterblast-orf" id="dummy-1_h1_6_23"  />
</g>
<g id="a1_0024"  >
<polygon points="521,90 525,85 521,80 521,90 " style="fill:white; stroke-width:1; stroke:black; " description="&lt;b&gt;W9I_RS11410&lt;/b&gt;&lt;br&gt;hypothetical protein&lt;br&gt;Location: 694209 - 694499" locus_tag="W9I_RS11410" class="clusterblast-orf" id="dummy-1_h1_6_24"  />
</g>
<g id="a1_0025"  >
<polygon points="525,90 545,90 550,85 545,80 525,80 525,90 " style="fill:white; stroke-width:1; stroke:black; " description="&lt;b&gt;W9I_RS11415&lt;/b&gt;&lt;br&gt;PepSY domain-containing protein&lt;br&gt;Location: 694502 - 696106" locus_tag="W9I_RS11415" class="clusterblast-orf" id="dummy-1_h1_6_25"  />
</g>
<g id="a1_0026"  >
<polygon points="551,85 556,80 560,80 560,90 556,90 551,85 " style="fill:white; stroke-width:1; stroke:black; " description="&lt;b&gt;W9I_RS11420&lt;/b&gt;&lt;br&gt;ATP-binding cassette domain-containing protein&lt;br&gt;Location: 696153 - 696773" locus_tag="W9I_RS11420" class="clusterblast-orf" id="dummy-1_h1_6_26"  />
</g>
<g id="a1_0027"  >
<polygon points="560,85 565,80 571,80 571,90 565,90 560,85 " style="fill:white; stroke-width:1; stroke:black; " description="&lt;b&gt;W9I_RS11425&lt;/b&gt;&lt;br&gt;molybdate ABC transporter permease subunit&lt;br&gt;Location: 696778 - 697470" locus_tag="W9I_RS11425" class="clusterblast-orf" id="dummy-1_h1_6_27"  />
</g>
<g id="a1_0028"  >
<polygon points="571,85 576,80 583,80 583,90 576,90 571,85 " style="fill:white; stroke-width:1; stroke:black; " description="&lt;b&gt;W9I_RS11430&lt;/b&gt;&lt;br&gt;molybdate ABC transporter substrate-binding protein&lt;br&gt;Location: 697467 - 698252" locus_tag="W9I_RS11430" class="clusterblast-orf" id="dummy-1_h1_6_28"  />
</g>
<g id="a1_0029"  >
<polygon points="586,85 591,80 591,80 591,90 591,90 586,85 " style="fill:white; stroke-width:1; stroke:black; " description="&lt;b&gt;W9I_RS11435&lt;/b&gt;&lt;br&gt;LysR family transcriptional regulator&lt;br&gt;Location: 698435 - 698785" locus_tag="W9I_RS11435" class="clusterblast-orf" id="dummy-1_h1_6_29"  />
</g>
<g id="a1_0030"  >
<polygon points="594,90 611,90 616,85 611,80 594,80 594,90 " style="fill:white; stroke-width:1; stroke:black; " description="&lt;b&gt;W9I_RS11440&lt;/b&gt;&lt;br&gt;anthranilate 1,2-dioxygenase large subunit&lt;br&gt;Location: 699008 - 700423" locus_tag="W9I_RS11440" class="clusterblast-orf" id="dummy-1_h1_6_30"  />
</g>
<g id="a1_0031"  >
<polygon points="616,90 618,90 623,85 618,80 616,80 616,90 " style="fill:white; stroke-width:1; stroke:black; " description="&lt;b&gt;W9I_RS11445&lt;/b&gt;&lt;br&gt;anthranilate 1,2-dioxygenase small subunit&lt;br&gt;Location: 700426 - 700917" locus_tag="W9I_RS11445" class="clusterblast-orf" id="dummy-1_h1_6_31"  />
</g>
<g id="a1_0032"  >
<polygon points="623,90 634,90 639,85 634,80 623,80 623,90 " style="fill:white; stroke-width:1; stroke:black; " description="&lt;b&gt;W9I_RS11450&lt;/b&gt;&lt;br&gt;anthranilate 1,2-dioxygenase electron transfer component AntC&lt;br&gt;Location: 700923 - 701957" locus_tag="W9I_RS11450" class="clusterblast-orf" id="dummy-1_h1_6_32"  />
</g>
<g id="a1_0033"  >
<polygon points="646,90 657,90 662,85 657,80 646,80 646,90 " style="fill:white; stroke-width:1; stroke:black; " description="&lt;b&gt;W9I_RS11455&lt;/b&gt;&lt;br&gt;AraC family transcriptional regulator&lt;br&gt;Location: 702408 - 703466" locus_tag="W9I_RS11455" class="clusterblast-orf" id="dummy-1_h1_6_33"  />
</g>
<g id="a1_0034"  >
<polygon points="663,85 668,80 678,80 678,90 668,90 663,85 " style="fill:white; stroke-width:1; stroke:black; " description="&lt;b&gt;W9I_RS11460&lt;/b&gt;&lt;br&gt;transporter&lt;br&gt;Location: 703523 - 704470" locus_tag="W9I_RS11460" class="clusterblast-orf" id="dummy-1_h1_6_34"  />
</g>
<g id="a1_0035"  >
<polygon points="678,85 683,80 687,80 687,90 683,90 678,85 " style="fill:white; stroke-width:1; stroke:black; " description="&lt;b&gt;W9I_RS11465&lt;/b&gt;&lt;br&gt;flavin reductase family protein&lt;br&gt;Location: 704524 - 705054" locus_tag="W9I_RS11465" class="clusterblast-orf" id="dummy-1_h1_6_35"  />
</g>
<g id="a1_0036"  >
<polygon points="687,85 692,80 706,80 706,90 692,90 687,85 " style="fill:white; stroke-width:1; stroke:black; " description="&lt;b&gt;W9I_RS11470&lt;/b&gt;&lt;br&gt;alanine-phosphoribitol ligase&lt;br&gt;Location: 705083 - 706333" locus_tag="W9I_RS11470" class="clusterblast-orf" id="dummy-1_h1_6_36"  />
</g>
<g id="a1_0037"  >
<polygon points="707,85 712,80 719,80 719,90 712,90 707,85 " style="fill:white; stroke-width:1; stroke:black; " description="&lt;b&gt;W9I_RS11475&lt;/b&gt;&lt;br&gt;SDR family oxidoreductase&lt;br&gt;Location: 706365 - 707150" locus_tag="W9I_RS11475" class="clusterblast-orf" id="dummy-1_h1_6_37"  />
</g>
<g id="a1_0038"  >
<polygon points="719,85 724,80 738,80 738,90 724,90 719,85 " style="fill:white; stroke-width:1; stroke:black; " description="&lt;b&gt;W9I_RS11480&lt;/b&gt;&lt;br&gt;dienelactone hydrolase family protein&lt;br&gt;Location: 707163 - 708413" locus_tag="W9I_RS11480" class="clusterblast-orf" id="dummy-1_h1_6_38"  />
</g>
<g id="a1_0039"  >
<polygon points="743,90 758,90 763,85 758,80 743,80 743,90 " style="fill:white; stroke-width:1; stroke:black; " description="&lt;b&gt;W9I_RS11485&lt;/b&gt;&lt;br&gt;MFS transporter&lt;br&gt;Location: 708744 - 710087" locus_tag="W9I_RS11485" class="clusterblast-orf" id="dummy-1_h1_6_39"  />
</g>
<g id="a1_0040"  >
<polygon points="764,85 769,80 780,80 780,90 769,90 764,85 " style="fill:white; stroke-width:1; stroke:black; " description="&lt;b&gt;W9I_RS11490&lt;/b&gt;&lt;br&gt;AraC family transcriptional regulator&lt;br&gt;Location: 710158 - 711144" locus_tag="W9I_RS11490" class="clusterblast-orf" id="dummy-1_h1_6_40"  />
</g>
</svg>
