<svg xmlns="http://www.w3.org/2000/svg" xmlns:xlink="http://www.w3.org/1999/xlink" version="1.1" x="0" y="0" height="230" width="800" viewBox="0 0 800 230" preserveAspectRatio="none"  >
<g label="Query sequence" class="clusterblast-cluster"  >
<text x="5" y="20" class="clusterblast-acc"  >
Query sequence</text>
<line x1="10" y1="35" x2="778.0" y2="35" style="stroke-width:1; stroke:grey; "  />
<polygon points="0,35 5,30 5,30 5,40 5,40 0,35 " style="fill:white; stroke-width:1; stroke:black; " description="&lt;b&gt;MCIC6FC_006864&lt;/b&gt;&lt;br&gt;hypothetical protein&lt;br&gt;Location: 388330 - 388739" locus_tag="MCIC6FC_006864" class="clusterblast-orf" id="dummy-1_q0_0_all"  />
<polygon points="7,40 17,40 22,35 17,30 7,30 7,40 " style="fill:white; stroke-width:1; stroke:black; " description="&lt;b&gt;MCIC6FC_006865&lt;/b&gt;&lt;br&gt;hypothetical protein&lt;br&gt;Location: 388894 - 390042" locus_tag="MCIC6FC_006865" class="clusterblast-orf" id="dummy-1_q1_0_all"  />
<polygon points="36,35 41,30 61,30 61,40 41,40 36,35 " style="fill:#d81515; stroke-width:1; stroke:black; " description="&lt;b&gt;MCIC6FC_006866&lt;/b&gt;&lt;br&gt;hypothetical protein&lt;br&gt;Location: 391149 - 393087" locus_tag="MCIC6FC_006866" class="clusterblast-orf" id="dummy-1_q2_0_all"  />
<polygon points="63,35 68,30 121,30 121,40 68,40 63,35 " style="fill:white; stroke-width:1; stroke:black; " description="&lt;b&gt;MCIC6FC_006867&lt;/b&gt;&lt;br&gt;hypothetical protein&lt;br&gt;Location: 393236 - 397650" locus_tag="MCIC6FC_006867" class="clusterblast-orf" id="dummy-1_q3_0_all"  />
<polygon points="122,40 154,40 159,35 154,30 122,30 122,40 " style="fill:#33d815; stroke-width:1; stroke:black; " description="&lt;b&gt;MCIC6FC_006868&lt;/b&gt;&lt;br&gt;hypothetical protein&lt;br&gt;Location: 397737 - 400640" locus_tag="MCIC6FC_006868" class="clusterblast-orf" id="dummy-1_q4_0_all"  />
<polygon points="161,35 166,30 166,30 166,40 166,40 161,35 " style="fill:#15abd8; stroke-width:1; stroke:black; " description="&lt;b&gt;MCIC6FC_006869&lt;/b&gt;&lt;br&gt;hypothetical protein&lt;br&gt;Location: 400740 - 401154" locus_tag="MCIC6FC_006869" class="clusterblast-orf" id="dummy-1_q5_0_all"  />
<polygon points="168,40 184,40 189,35 184,30 168,30 168,40 " style="fill:#8d15d8; stroke-width:1; stroke:black; " description="&lt;b&gt;MCIC6FC_006870&lt;/b&gt;&lt;br&gt;hypothetical protein&lt;br&gt;Location: 401288 - 402896" locus_tag="MCIC6FC_006870" class="clusterblast-orf" id="dummy-1_q6_0_all"  />
<polygon points="189,35 194,30 197,30 197,40 194,40 189,35 " style="fill:#d86f15; stroke-width:1; stroke:black; " description="&lt;b&gt;MCIC6FC_006871&lt;/b&gt;&lt;br&gt;hypothetical protein&lt;br&gt;Location: 402949 - 403510" locus_tag="MCIC6FC_006871" class="clusterblast-orf" id="dummy-1_q7_0_all"  />
<polygon points="200,40 220,40 225,35 220,30 200,30 200,40 " style="fill:#15d851; stroke-width:1; stroke:black; " description="&lt;b&gt;MCIC6FC_006872&lt;/b&gt;&lt;br&gt;hypothetical protein&lt;br&gt;Location: 403758 - 405677" locus_tag="MCIC6FC_006872" class="clusterblast-orf" id="dummy-1_q8_0_all"  />
<polygon points="242,35 247,30 286,30 286,40 247,40 242,35 " style="fill:#d81515; stroke-width:1; stroke:black; " description="&lt;b&gt;MCIC6FC_006873&lt;/b&gt;&lt;br&gt;hypothetical protein&lt;br&gt;Location: 407045 - 410364" locus_tag="MCIC6FC_006873" class="clusterblast-orf" id="dummy-1_q9_0_all"  />
<polygon points="287,40 311,40 316,35 311,30 287,30 287,40 " style="fill:#1551d8; stroke-width:1; stroke:black; " description="&lt;b&gt;MCIC6FC_006874&lt;/b&gt;&lt;br&gt;hypothetical protein&lt;br&gt;Location: 410480 - 412722" locus_tag="MCIC6FC_006874" class="clusterblast-orf" id="dummy-1_q10_0_all"  />
<polygon points="318,35 323,30 351,30 351,40 323,40 318,35 " style="fill:#d815c9; stroke-width:1; stroke:black; " description="&lt;b&gt;MCIC6FC_006875&lt;/b&gt;&lt;br&gt;hypothetical protein&lt;br&gt;Location: 412842 - 415380" locus_tag="MCIC6FC_006875" class="clusterblast-orf" id="dummy-1_q11_0_all"  />
<polygon points="352,35 357,30 394,30 394,40 357,40 352,35 " style="fill:#d8c915; stroke-width:1; stroke:black; " description="&lt;b&gt;MCIC6FC_006876&lt;/b&gt;&lt;br&gt;hypothetical protein&lt;br&gt;Location: 415496 - 418718" locus_tag="MCIC6FC_006876" class="clusterblast-orf" id="dummy-1_q12_0_all"  />
<polygon points="405,35 410,30 431,30 431,40 410,40 405,35 " style="fill:#15d8ab; stroke-width:1; stroke:black; " description="&lt;b&gt;MCIC6FC_006877&lt;/b&gt;&lt;br&gt;hypothetical protein&lt;br&gt;Location: 419604 - 421601" locus_tag="MCIC6FC_006877" class="clusterblast-orf" id="dummy-1_q13_0_all"  />
<polygon points="432,35 437,30 445,30 445,40 437,40 432,35 " style="fill:#3315d8; stroke-width:1; stroke:black; " description="&lt;b&gt;MCIC6FC_006878&lt;/b&gt;&lt;br&gt;hypothetical protein&lt;br&gt;Location: 421635 - 422689" locus_tag="MCIC6FC_006878" class="clusterblast-orf" id="dummy-1_q14_0_all"  />
<polygon points="446,40 451,40 456,35 451,30 446,30 446,40 " style="fill:#d8156f; stroke-width:1; stroke:black; " description="&lt;b&gt;MCIC6FC_006879&lt;/b&gt;&lt;br&gt;hypothetical protein&lt;br&gt;Location: 422755 - 423470" locus_tag="MCIC6FC_006879" class="clusterblast-orf" id="dummy-1_q15_0_all"  />
<polygon points="457,35 462,30 520,30 520,40 462,40 457,35 " style="fill:#d81515; stroke-width:1; stroke:black; " description="&lt;b&gt;MCIC6FC_006880&lt;/b&gt;&lt;br&gt;hypothetical protein&lt;br&gt;Location: 423592 - 428431" locus_tag="MCIC6FC_006880" class="clusterblast-orf" id="dummy-1_q16_0_all"  />
<polygon points="522,35 527,30 599,30 599,40 527,40 522,35 " style="fill:#8dd815; stroke-width:1; stroke:black; " description="&lt;b&gt;MCIC6FC_006881&lt;/b&gt;&lt;br&gt;hypothetical protein&lt;br&gt;Location: 428595 - 434521" locus_tag="MCIC6FC_006881" class="clusterblast-orf" id="dummy-1_q17_0_all"  />
<polygon points="601,35 606,30 759,30 759,40 606,40 601,35 " style="fill:white; stroke-width:1; stroke:black; " description="&lt;b&gt;MCIC6FC_006882&lt;/b&gt;&lt;br&gt;hypothetical protein&lt;br&gt;Location: 434700 - 446857" locus_tag="MCIC6FC_006882" class="clusterblast-orf" id="dummy-1_q18_0_all"  />
<polygon points="759,35 764,30 780,30 780,40 764,40 759,35 " style="fill:white; stroke-width:1; stroke:black; " description="&lt;b&gt;MCIC6FC_006883&lt;/b&gt;&lt;br&gt;hypothetical protein&lt;br&gt;Location: 446877 - 448445" locus_tag="MCIC6FC_006883" class="clusterblast-orf" id="dummy-1_q19_0_all"  />
</g>
<g label="NZ_CP022960" description="NZ_CP022960 (5017988-5046020): Pseudomonas sp. NS1(2017) strain NS1 chromosome (41% of genes show similarity), thiopeptide" class="clusterblast-cluster"  >
<text x="5" y="70" class="clusterblast-acc"  >
<a xlink:href="https://antismash-db.secondarymetabolites.org/area.html?record=NZ_CP022960&amp;start=5017988&amp;end=5046020" target="_blank">NZ_CP022960 (5017988-5046020)</a>: Pseudomonas sp. NS1(2017) strain NS1 chromosome (41% of genes show similarity), thiopeptide</text>
<line x1="10" y1="85" x2="778.0" y2="85" style="stroke-width:1; stroke:grey; "  />
</g>
<g id="a1_000"  >
<polygon points="215,90 216,90 221,85 216,80 215,80 215,90 " style="fill:white; stroke-width:1; stroke:black; " description="&lt;b&gt;CI807_RS23530&lt;/b&gt;&lt;br&gt;hypothetical protein&lt;br&gt;Location: 5045410 - 5044967" locus_tag="CI807_RS23530" class="clusterblast-orf" id="dummy-1_h1_7_0"  />
</g>
<g id="a1_001"  >
<polygon points="221,90 222,90 227,85 222,80 221,80 221,90 " style="fill:white; stroke-width:1; stroke:black; " description="&lt;b&gt;CI807_RS23525&lt;/b&gt;&lt;br&gt;NUDIX domain-containing protein&lt;br&gt;Location: 5044950 - 5044489" locus_tag="CI807_RS23525" class="clusterblast-orf" id="dummy-1_h1_7_1"  />
</g>
<g id="a1_002"  >
<polygon points="227,85 232,80 235,80 235,90 232,90 227,85 " style="fill:#d86f15; stroke-width:1; stroke:black; " description="&lt;b&gt;CI807_RS23520&lt;/b&gt;&lt;br&gt;cysteine hydrolase&lt;br&gt;Location: 5044479 - 5043919&lt;br&gt;&lt;br&gt;&lt;b&gt;BlastP hit with MCIC6FC_006871&lt;/b&gt;&lt;br&gt;Percentage identity: 89&lt;br&gt;Percentage coverage: 99&lt;br&gt;BLAST bit score: 344&lt;br&gt;E-value: 5.3e-93" locus_tag="CI807_RS23520" class="clusterblast-orf" id="dummy-1_h1_7_2"  />
</g>
<g id="a1_003"  >
<polygon points="236,90 238,90 243,85 238,80 236,80 236,90 " style="fill:#15d851; stroke-width:1; stroke:black; " description="&lt;b&gt;CI807_RS23515&lt;/b&gt;&lt;br&gt;GNAT family N-acetyltransferase&lt;br&gt;Location: 5043816 - 5043271&lt;br&gt;&lt;br&gt;&lt;b&gt;BlastP hit with MCIC6FC_006872&lt;/b&gt;&lt;br&gt;Percentage identity: 79&lt;br&gt;Percentage coverage: 25&lt;br&gt;BLAST bit score: 220&lt;br&gt;E-value: 4.4e-55" locus_tag="CI807_RS23515" class="clusterblast-orf" id="dummy-1_h1_7_3"  />
</g>
<g id="a1_004"  >
<polygon points="249,90 252,90 257,85 252,80 249,80 249,90 " style="fill:white; stroke-width:1; stroke:black; " description="&lt;b&gt;CI807_RS31510&lt;/b&gt;&lt;br&gt;hypothetical protein&lt;br&gt;Location: 5042799 - 5042236" locus_tag="CI807_RS31510" class="clusterblast-orf" id="dummy-1_h1_7_4"  />
</g>
<g id="a1_005"  >
<polygon points="261,85 266,80 269,80 269,90 266,90 261,85 " style="fill:white; stroke-width:1; stroke:black; " description="&lt;b&gt;CI807_RS23505&lt;/b&gt;&lt;br&gt;TetR family transcriptional regulator&lt;br&gt;Location: 5041911 - 5041279" locus_tag="CI807_RS23505" class="clusterblast-orf" id="dummy-1_h1_7_5"  />
</g>
<g id="a1_006"  >
<polygon points="270,90 274,90 279,85 274,80 270,80 270,90 " style="fill:white; stroke-width:1; stroke:black; " description="&lt;b&gt;CI807_RS23500&lt;/b&gt;&lt;br&gt;class I SAM-dependent methyltransferase&lt;br&gt;Location: 5041167 - 5040511" locus_tag="CI807_RS23500" class="clusterblast-orf" id="dummy-1_h1_7_6"  />
</g>
<g id="a1_007"  >
<polygon points="279,90 285,90 290,85 285,80 279,80 279,90 " style="fill:white; stroke-width:1; stroke:black; " description="&lt;b&gt;CI807_RS23495&lt;/b&gt;&lt;br&gt;SDR family oxidoreductase&lt;br&gt;Location: 5040495 - 5039629" locus_tag="CI807_RS23495" class="clusterblast-orf" id="dummy-1_h1_7_7"  />
</g>
<g id="a1_008"  >
<polygon points="291,90 301,90 306,85 301,80 291,80 291,90 " style="fill:white; stroke-width:1; stroke:black; " description="&lt;b&gt;CI807_RS23490&lt;/b&gt;&lt;br&gt;arabinose transporter&lt;br&gt;Location: 5039617 - 5038439" locus_tag="CI807_RS23490" class="clusterblast-orf" id="dummy-1_h1_7_8"  />
</g>
<g id="a1_009"  >
<polygon points="306,85 311,80 314,80 314,90 311,90 306,85 " style="fill:white; stroke-width:1; stroke:black; " description="&lt;b&gt;CI807_RS23485&lt;/b&gt;&lt;br&gt;LysE family translocator&lt;br&gt;Location: 5038452 - 5037832" locus_tag="CI807_RS23485" class="clusterblast-orf" id="dummy-1_h1_7_9"  />
</g>
<g id="a1_0010"  >
<polygon points="315,85 320,80 335,80 335,90 320,90 315,85 " style="fill:#d81515; stroke-width:1; stroke:black; " description="&lt;b&gt;CI807_RS23480&lt;/b&gt;&lt;br&gt;methyl-accepting chemotaxis protein&lt;br&gt;Location: 5037748 - 5036183&lt;br&gt;&lt;br&gt;&lt;b&gt;BlastP hit with MCIC6FC_006866&lt;/b&gt;&lt;br&gt;Percentage identity: 40&lt;br&gt;Percentage coverage: 25&lt;br&gt;BLAST bit score: 90&lt;br&gt;E-value: 8.1e-16&lt;br&gt;&lt;br&gt;&lt;b&gt;BlastP hit with MCIC6FC_006873&lt;/b&gt;&lt;br&gt;Percentage identity: 83&lt;br&gt;Percentage coverage: 64&lt;br&gt;BLAST bit score: 681&lt;br&gt;E-value: 1e-193&lt;br&gt;&lt;br&gt;&lt;b&gt;BlastP hit with MCIC6FC_006880&lt;/b&gt;&lt;br&gt;Percentage identity: 44&lt;br&gt;Percentage coverage: 12&lt;br&gt;BLAST bit score: 90&lt;br&gt;E-value: 1.3e-15" locus_tag="CI807_RS23480" class="clusterblast-orf" id="dummy-1_h1_7_10"  />
</g>
<g id="a1_0011"  >
<polygon points="337,90 361,90 366,85 361,80 337,80 337,90 " style="fill:#1551d8; stroke-width:1; stroke:black; " description="&lt;b&gt;CI807_RS23475&lt;/b&gt;&lt;br&gt;OsmC domain/YcaO domain-containing protein&lt;br&gt;Location: 5036020 - 5033822&lt;br&gt;&lt;br&gt;&lt;b&gt;BlastP hit with MCIC6FC_006874&lt;/b&gt;&lt;br&gt;Percentage identity: 98&lt;br&gt;Percentage coverage: 99&lt;br&gt;BLAST bit score: 1446&lt;br&gt;E-value: 0.0" locus_tag="CI807_RS23475" class="clusterblast-orf" id="dummy-1_h1_7_11"  />
</g>
<g id="a1_0012"  >
<polygon points="367,85 372,80 382,80 382,90 372,90 367,85 " style="fill:#d815c9; stroke-width:1; stroke:black; " description="&lt;b&gt;CI807_RS23470&lt;/b&gt;&lt;br&gt;cystathionine gamma-synthase&lt;br&gt;Location: 5033706 - 5032540&lt;br&gt;&lt;br&gt;&lt;b&gt;BlastP hit with MCIC6FC_006875&lt;/b&gt;&lt;br&gt;Percentage identity: 97&lt;br&gt;Percentage coverage: 48&lt;br&gt;BLAST bit score: 755&lt;br&gt;E-value: 5.6e-216" locus_tag="CI807_RS23470" class="clusterblast-orf" id="dummy-1_h1_7_12"  />
</g>
<g id="a1_0013"  >
<polygon points="382,85 387,80 400,80 400,90 387,90 382,85 " style="fill:#d815c9; stroke-width:1; stroke:black; " description="&lt;b&gt;CI807_RS23465&lt;/b&gt;&lt;br&gt;cystathionine beta-synthase&lt;br&gt;Location: 5032543 - 5031167&lt;br&gt;&lt;br&gt;&lt;b&gt;BlastP hit with MCIC6FC_006875&lt;/b&gt;&lt;br&gt;Percentage identity: 90&lt;br&gt;Percentage coverage: 56&lt;br&gt;BLAST bit score: 774&lt;br&gt;E-value: 1.5e-221" locus_tag="CI807_RS23465" class="clusterblast-orf" id="dummy-1_h1_7_13"  />
</g>
<g id="a1_0014"  >
<polygon points="402,85 407,80 413,80 413,90 407,90 402,85 " style="fill:#d8c915; stroke-width:1; stroke:black; " description="&lt;b&gt;CI807_RS23460&lt;/b&gt;&lt;br&gt;4-hydroxy-tetrahydrodipicolinate synthase&lt;br&gt;Location: 5031050 - 5030187&lt;br&gt;&lt;br&gt;&lt;b&gt;BlastP hit with MCIC6FC_006876&lt;/b&gt;&lt;br&gt;Percentage identity: 81&lt;br&gt;Percentage coverage: 36&lt;br&gt;BLAST bit score: 297&lt;br&gt;E-value: 3.7e-78" locus_tag="CI807_RS23460" class="clusterblast-orf" id="dummy-1_h1_7_14"  />
</g>
<g id="a1_0015"  >
<polygon points="418,90 425,90 430,85 425,80 418,80 418,90 " style="fill:white; stroke-width:1; stroke:black; " description="&lt;b&gt;CI807_RS23455&lt;/b&gt;&lt;br&gt;SGNH/GDSL hydrolase family protein&lt;br&gt;Location: 5029790 - 5028894" locus_tag="CI807_RS23455" class="clusterblast-orf" id="dummy-1_h1_7_15"  />
</g>
<g id="a1_0016"  >
<polygon points="430,85 435,80 436,80 436,90 435,90 430,85 " style="fill:#15d8ab; stroke-width:1; stroke:black; " description="&lt;b&gt;CI807_RS23450&lt;/b&gt;&lt;br&gt;VOC family protein&lt;br&gt;Location: 5028897 - 5028415&lt;br&gt;&lt;br&gt;&lt;b&gt;BlastP hit with MCIC6FC_006877&lt;/b&gt;&lt;br&gt;Percentage identity: 88&lt;br&gt;Percentage coverage: 26&lt;br&gt;BLAST bit score: 292&lt;br&gt;E-value: 1e-76" locus_tag="CI807_RS23450" class="clusterblast-orf" id="dummy-1_h1_7_16"  />
</g>
<g id="a1_0017"  >
<polygon points="436,85 441,80 441,80 441,90 441,90 436,85 " style="fill:#3315d8; stroke-width:1; stroke:black; " description="&lt;b&gt;CI807_RS23445&lt;/b&gt;&lt;br&gt;ester cyclase&lt;br&gt;Location: 5028381 - 5027989&lt;br&gt;&lt;br&gt;&lt;b&gt;BlastP hit with MCIC6FC_006878&lt;/b&gt;&lt;br&gt;Percentage identity: 87&lt;br&gt;Percentage coverage: 39&lt;br&gt;BLAST bit score: 235&lt;br&gt;E-value: 8.1e-60" locus_tag="CI807_RS23445" class="clusterblast-orf" id="dummy-1_h1_7_17"  />
</g>
<g id="a1_0018"  >
<polygon points="442,85 447,80 450,80 450,90 447,90 442,85 " style="fill:#3315d8; stroke-width:1; stroke:black; " description="&lt;b&gt;CI807_RS23440&lt;/b&gt;&lt;br&gt;LysE family translocator&lt;br&gt;Location: 5027985 - 5027365&lt;br&gt;&lt;br&gt;&lt;b&gt;BlastP hit with MCIC6FC_006878&lt;/b&gt;&lt;br&gt;Percentage identity: 94&lt;br&gt;Percentage coverage: 56&lt;br&gt;BLAST bit score: 344&lt;br&gt;E-value: 9.4e-93" locus_tag="CI807_RS23440" class="clusterblast-orf" id="dummy-1_h1_7_18"  />
</g>
<g id="a1_0019"  >
<polygon points="450,85 455,80 458,80 458,90 455,90 450,85 " style="fill:white; stroke-width:1; stroke:black; " description="&lt;b&gt;CI807_RS23435&lt;/b&gt;&lt;br&gt;adenylate kinase&lt;br&gt;Location: 5027298 - 5026750" locus_tag="CI807_RS23435" class="clusterblast-orf" id="dummy-1_h1_7_19"  />
</g>
<g id="a1_0020"  >
<polygon points="458,85 463,80 467,80 467,90 463,90 458,85 " style="fill:white; stroke-width:1; stroke:black; " description="&lt;b&gt;CI807_RS23430&lt;/b&gt;&lt;br&gt;hypothetical protein&lt;br&gt;Location: 5026691 - 5026053" locus_tag="CI807_RS23430" class="clusterblast-orf" id="dummy-1_h1_7_20"  />
</g>
<g id="a1_0021"  >
<polygon points="467,85 472,80 472,80 472,90 472,90 467,85 " style="fill:white; stroke-width:1; stroke:black; " description="&lt;b&gt;CI807_RS23425&lt;/b&gt;&lt;br&gt;VOC family protein&lt;br&gt;Location: 5026008 - 5025652" locus_tag="CI807_RS23425" class="clusterblast-orf" id="dummy-1_h1_7_21"  />
</g>
<g id="a1_0022"  >
<polygon points="473,90 478,90 483,85 478,80 473,80 473,90 " style="fill:#d8156f; stroke-width:1; stroke:black; " description="&lt;b&gt;CI807_RS23420&lt;/b&gt;&lt;br&gt;NAD(P)-binding domain-containing protein&lt;br&gt;Location: 5025573 - 5024758&lt;br&gt;&lt;br&gt;&lt;b&gt;BlastP hit with MCIC6FC_006879&lt;/b&gt;&lt;br&gt;Percentage identity: 74&lt;br&gt;Percentage coverage: 107&lt;br&gt;BLAST bit score: 270&lt;br&gt;E-value: 1.6e-70" locus_tag="CI807_RS23420" class="clusterblast-orf" id="dummy-1_h1_7_22"  />
</g>
<g id="a1_0023"  >
<polygon points="484,85 489,80 492,80 492,90 489,90 484,85 " style="fill:white; stroke-width:1; stroke:black; " description="&lt;b&gt;CI807_RS23415&lt;/b&gt;&lt;br&gt;hydrolase&lt;br&gt;Location: 5024722 - 5024069" locus_tag="CI807_RS23415" class="clusterblast-orf" id="dummy-1_h1_7_23"  />
</g>
<g id="a1_0024"  >
<polygon points="494,90 501,90 506,85 501,80 494,80 494,90 " style="fill:white; stroke-width:1; stroke:black; " description="&lt;b&gt;CI807_RS23410&lt;/b&gt;&lt;br&gt;LysR family transcriptional regulator&lt;br&gt;Location: 5023916 - 5023020" locus_tag="CI807_RS23410" class="clusterblast-orf" id="dummy-1_h1_7_24"  />
</g>
<g id="a1_0025"  >
<polygon points="506,85 511,80 518,80 518,90 511,90 506,85 " style="fill:white; stroke-width:1; stroke:black; " description="&lt;b&gt;CI807_RS23405&lt;/b&gt;&lt;br&gt;LysR family transcriptional regulator&lt;br&gt;Location: 5022998 - 5022105" locus_tag="CI807_RS23405" class="clusterblast-orf" id="dummy-1_h1_7_25"  />
</g>
<g id="a1_0026"  >
<polygon points="519,90 529,90 534,85 529,80 519,80 519,90 " style="fill:white; stroke-width:1; stroke:black; " description="&lt;b&gt;CI807_RS23400&lt;/b&gt;&lt;br&gt;MFS transporter&lt;br&gt;Location: 5022010 - 5020844" locus_tag="CI807_RS23400" class="clusterblast-orf" id="dummy-1_h1_7_26"  />
</g>
<g id="a1_0027"  >
<polygon points="534,85 539,80 552,80 552,90 539,90 534,85 " style="fill:#d81515; stroke-width:1; stroke:black; " description="&lt;b&gt;CI807_RS23395&lt;/b&gt;&lt;br&gt;MFS transporter&lt;br&gt;Location: 5020826 - 5019489&lt;br&gt;&lt;br&gt;&lt;b&gt;BlastP hit with MCIC6FC_006880&lt;/b&gt;&lt;br&gt;Percentage identity: 94&lt;br&gt;Percentage coverage: 33&lt;br&gt;BLAST bit score: 772&lt;br&gt;E-value: 7.4e-221" locus_tag="CI807_RS23395" class="clusterblast-orf" id="dummy-1_h1_7_27"  />
</g>
<g id="a1_0028"  >
<polygon points="555,90 559,90 564,85 559,80 555,80 555,90 " style="fill:white; stroke-width:1; stroke:black; " description="&lt;b&gt;CI807_RS23390&lt;/b&gt;&lt;br&gt;hypothetical protein&lt;br&gt;Location: 5019243 - 5018578" locus_tag="CI807_RS23390" class="clusterblast-orf" id="dummy-1_h1_7_28"  />
</g>
</svg>
