<svg xmlns="http://www.w3.org/2000/svg" xmlns:xlink="http://www.w3.org/1999/xlink" version="1.1" x="0" y="0" height="230" width="800" viewBox="0 0 800 230" preserveAspectRatio="none"  >
<g label="Query sequence" class="clusterblast-cluster"  >
<text x="5" y="20" class="clusterblast-acc"  >
Query sequence</text>
<line x1="10" y1="35" x2="778.0" y2="35" style="stroke-width:1; stroke:grey; "  />
<polygon points="282,40 292,40 297,35 292,30 282,30 282,40 " style="fill:white; stroke-width:1; stroke:black; " description="&lt;b&gt;MCIC6FC_016543&lt;/b&gt;&lt;br&gt;hypothetical protein&lt;br&gt;Location: 57084 - 57922" locus_tag="MCIC6FC_016543" class="clusterblast-orf" id="dummy-1_q0_0_all"  />
<polygon points="298,35 303,30 344,30 344,40 303,40 298,35 " style="fill:#d81515; stroke-width:1; stroke:black; " description="&lt;b&gt;MCIC6FC_016544&lt;/b&gt;&lt;br&gt;hypothetical protein&lt;br&gt;Location: 57942 - 60485" locus_tag="MCIC6FC_016544" class="clusterblast-orf" id="dummy-1_q1_0_all"  />
<polygon points="351,40 362,40 367,35 362,30 351,30 351,40 " style="fill:#15d815; stroke-width:1; stroke:black; " description="&lt;b&gt;MCIC6FC_016545&lt;/b&gt;&lt;br&gt;hypothetical protein&lt;br&gt;Location: 60876 - 61749" locus_tag="MCIC6FC_016545" class="clusterblast-orf" id="dummy-1_q2_0_all"  />
<polygon points="372,40 492,40 497,35 492,30 372,30 372,40 " style="fill:#1515d8; stroke-width:1; stroke:black; " description="&lt;b&gt;MCIC6FC_016546&lt;/b&gt;&lt;br&gt;hypothetical protein&lt;br&gt;Location: 62021 - 68916" locus_tag="MCIC6FC_016546" class="clusterblast-orf" id="dummy-1_q3_0_all"  />
</g>
<g label="NZ_LMGG01000001" description="NZ_LMGG01000001 (1490545-1534433): Nocardioides sp. Root151 contig 1, whole g... (8% of genes show similarity), NRPS-like" class="clusterblast-cluster"  >
<text x="5" y="70" class="clusterblast-acc"  >
<a xlink:href="https://antismash-db.secondarymetabolites.org/area.html?record=NZ_LMGG01000001&amp;start=1490545&amp;end=1534433" target="_blank">NZ_LMGG01000001 (1490545-1534433)</a>: Nocardioides sp. Root151 contig 1, whole g... (8% of genes show similarity), NRPS-like</text>
<line x1="10" y1="85" x2="778.0" y2="85" style="stroke-width:1; stroke:grey; "  />
</g>
<g id="a1_000"  >
<polygon points="0,85 5,80 16,80 16,90 5,90 0,85 " style="fill:white; stroke-width:1; stroke:black; " description="&lt;b&gt;ASD66_RS07095&lt;/b&gt;&lt;br&gt;diacylglycerol kinase family lipid kinase&lt;br&gt;Location: 1490984 - 1491877" locus_tag="ASD66_RS07095" class="clusterblast-orf" id="dummy-1_h1_9_0"  />
</g>
<g id="a1_001"  >
<polygon points="16,85 21,80 44,80 44,90 21,90 16,85 " style="fill:white; stroke-width:1; stroke:black; " description="&lt;b&gt;ASD66_RS07100&lt;/b&gt;&lt;br&gt;FAD-binding oxidoreductase&lt;br&gt;Location: 1491874 - 1493424" locus_tag="ASD66_RS07100" class="clusterblast-orf" id="dummy-1_h1_9_1"  />
</g>
<g id="a1_002"  >
<polygon points="44,90 50,90 55,85 50,80 44,80 44,90 " style="fill:white; stroke-width:1; stroke:black; " description="&lt;b&gt;ASD66_RS07105&lt;/b&gt;&lt;br&gt;TetR/AcrR family transcriptional regulator&lt;br&gt;Location: 1493454 - 1494026" locus_tag="ASD66_RS07105" class="clusterblast-orf" id="dummy-1_h1_9_2"  />
</g>
<g id="a1_003"  >
<polygon points="55,90 78,90 83,85 78,80 55,80 55,90 " style="fill:white; stroke-width:1; stroke:black; " description="&lt;b&gt;ASD66_RS07110&lt;/b&gt;&lt;br&gt;glycerol-3-phosphate dehydrogenase/oxidase&lt;br&gt;Location: 1494023 - 1495549" locus_tag="ASD66_RS07110" class="clusterblast-orf" id="dummy-1_h1_9_3"  />
</g>
<g id="a1_004"  >
<polygon points="82,85 87,80 89,80 89,90 87,90 82,85 " style="fill:white; stroke-width:1; stroke:black; " description="&lt;b&gt;ASD66_RS07115&lt;/b&gt;&lt;br&gt;hypothetical protein&lt;br&gt;Location: 1495542 - 1495925" locus_tag="ASD66_RS07115" class="clusterblast-orf" id="dummy-1_h1_9_4"  />
</g>
<g id="a1_005"  >
<polygon points="91,90 105,90 110,85 105,80 91,80 91,90 " style="fill:white; stroke-width:1; stroke:black; " description="&lt;b&gt;ASD66_RS07120&lt;/b&gt;&lt;br&gt;sigma-70 family RNA polymerase sigma factor&lt;br&gt;Location: 1496017 - 1497069" locus_tag="ASD66_RS07120" class="clusterblast-orf" id="dummy-1_h1_9_5"  />
</g>
<g id="a1_006"  >
<polygon points="110,90 116,90 121,85 116,80 110,80 110,90 " style="fill:white; stroke-width:1; stroke:black; " description="&lt;b&gt;ASD66_RS07125&lt;/b&gt;&lt;br&gt;TIGR03086 family protein&lt;br&gt;Location: 1497077 - 1497685" locus_tag="ASD66_RS07125" class="clusterblast-orf" id="dummy-1_h1_9_6"  />
</g>
<g id="a1_007"  >
<polygon points="122,90 134,90 139,85 134,80 122,80 122,90 " style="fill:white; stroke-width:1; stroke:black; " description="&lt;b&gt;ASD66_RS07130&lt;/b&gt;&lt;br&gt;helix-turn-helix transcriptional regulator&lt;br&gt;Location: 1497739 - 1498680" locus_tag="ASD66_RS07130" class="clusterblast-orf" id="dummy-1_h1_9_7"  />
</g>
<g id="a1_008"  >
<polygon points="139,85 144,80 163,80 163,90 144,90 139,85 " style="fill:white; stroke-width:1; stroke:black; " description="&lt;b&gt;ASD66_RS07135&lt;/b&gt;&lt;br&gt;MFS transporter&lt;br&gt;Location: 1498673 - 1499953" locus_tag="ASD66_RS07135" class="clusterblast-orf" id="dummy-1_h1_9_8"  />
</g>
<g id="a1_009"  >
<polygon points="165,85 170,80 183,80 183,90 170,90 165,85 " style="fill:white; stroke-width:1; stroke:black; " description="&lt;b&gt;ASD66_RS07140&lt;/b&gt;&lt;br&gt;zinc-binding dehydrogenase&lt;br&gt;Location: 1500070 - 1501056" locus_tag="ASD66_RS07140" class="clusterblast-orf" id="dummy-1_h1_9_9"  />
</g>
<g id="a1_0010"  >
<polygon points="184,85 189,80 203,80 203,90 189,90 184,85 " style="fill:white; stroke-width:1; stroke:black; " description="&lt;b&gt;ASD66_RS07145&lt;/b&gt;&lt;br&gt;DUF2332 domain-containing protein&lt;br&gt;Location: 1501122 - 1502147" locus_tag="ASD66_RS07145" class="clusterblast-orf" id="dummy-1_h1_9_10"  />
</g>
<g id="a1_0011"  >
<polygon points="203,85 208,80 229,80 229,90 208,90 203,85 " style="fill:#d81515; stroke-width:1; stroke:black; " description="&lt;b&gt;ASD66_RS07150&lt;/b&gt;&lt;br&gt;glucose-6-phosphate dehydrogenase&lt;br&gt;Location: 1502161 - 1503600&lt;br&gt;&lt;br&gt;&lt;b&gt;BlastP hit with MCIC6FC_016544&lt;/b&gt;&lt;br&gt;Percentage identity: 33&lt;br&gt;Percentage coverage: 69&lt;br&gt;BLAST bit score: 229&lt;br&gt;E-value: 1.1e-57" locus_tag="ASD66_RS07150" class="clusterblast-orf" id="dummy-1_h1_9_11"  />
</g>
<g id="a1_0012"  >
<polygon points="230,85 235,80 255,80 255,90 235,90 230,85 " style="fill:white; stroke-width:1; stroke:black; " description="&lt;b&gt;ASD66_RS07155&lt;/b&gt;&lt;br&gt;NAD-dependent succinate-semialdehyde dehydrogenase&lt;br&gt;Location: 1503640 - 1505019" locus_tag="ASD66_RS07155" class="clusterblast-orf" id="dummy-1_h1_9_12"  />
</g>
<g id="a1_0013"  >
<polygon points="256,90 271,90 276,85 271,80 256,80 256,90 " style="fill:white; stroke-width:1; stroke:black; " description="&lt;b&gt;ASD66_RS07160&lt;/b&gt;&lt;br&gt;hypothetical protein&lt;br&gt;Location: 1505091 - 1506182" locus_tag="ASD66_RS07160" class="clusterblast-orf" id="dummy-1_h1_9_13"  />
</g>
<g id="a1_0014"  >
<polygon points="277,85 282,80 283,80 283,90 282,90 277,85 " style="fill:white; stroke-width:1; stroke:black; " description="&lt;b&gt;ASD66_RS07165&lt;/b&gt;&lt;br&gt;branched-chain amino acid transporter&lt;br&gt;Location: 1506260 - 1506580" locus_tag="ASD66_RS07165" class="clusterblast-orf" id="dummy-1_h1_9_14"  />
</g>
<g id="a1_0015"  >
<polygon points="283,85 288,80 296,80 296,90 288,90 283,85 " style="fill:white; stroke-width:1; stroke:black; " description="&lt;b&gt;ASD66_RS07170&lt;/b&gt;&lt;br&gt;branched-chain amino acid permease&lt;br&gt;Location: 1506577 - 1507266" locus_tag="ASD66_RS07170" class="clusterblast-orf" id="dummy-1_h1_9_15"  />
</g>
<g id="a1_0016"  >
<polygon points="303,85 308,80 321,80 321,90 308,90 303,85 " style="fill:white; stroke-width:1; stroke:black; " description="&lt;b&gt;ASD66_RS07175&lt;/b&gt;&lt;br&gt;SGNH/GDSL hydrolase family protein&lt;br&gt;Location: 1507653 - 1508663" locus_tag="ASD66_RS07175" class="clusterblast-orf" id="dummy-1_h1_9_16"  />
</g>
<g id="a1_0017"  >
<polygon points="322,90 327,90 332,85 327,80 322,80 322,90 " style="fill:white; stroke-width:1; stroke:black; " description="&lt;b&gt;ASD66_RS07180&lt;/b&gt;&lt;br&gt;4'-phosphopantetheinyl transferase superfamily protein&lt;br&gt;Location: 1508734 - 1509273" locus_tag="ASD66_RS07180" class="clusterblast-orf" id="dummy-1_h1_9_17"  />
</g>
<g id="a1_0018"  >
<polygon points="332,85 337,80 355,80 355,90 337,90 332,85 " style="fill:white; stroke-width:1; stroke:black; " description="&lt;b&gt;ASD66_RS07185&lt;/b&gt;&lt;br&gt;M1 family metallopeptidase&lt;br&gt;Location: 1509239 - 1510549" locus_tag="ASD66_RS07185" class="clusterblast-orf" id="dummy-1_h1_9_18"  />
</g>
<g id="a1_0019"  >
<polygon points="355,85 360,80 426,80 426,90 360,90 355,85 " style="fill:white; stroke-width:1; stroke:black; " description="&lt;b&gt;ASD66_RS07190&lt;/b&gt;&lt;br&gt;non-ribosomal peptide synthetase&lt;br&gt;Location: 1510546 - 1514433" locus_tag="ASD66_RS07190" class="clusterblast-orf" id="dummy-1_h1_9_19"  />
</g>
<g id="a1_0020"  >
<polygon points="427,85 432,80 439,80 439,90 432,90 427,85 " style="fill:white; stroke-width:1; stroke:black; " description="&lt;b&gt;ASD66_RS07195&lt;/b&gt;&lt;br&gt;SDR family oxidoreductase&lt;br&gt;Location: 1514474 - 1515130" locus_tag="ASD66_RS07195" class="clusterblast-orf" id="dummy-1_h1_9_20"  />
</g>
<g id="a1_0021"  >
<polygon points="440,90 447,90 452,85 447,80 440,80 440,90 " style="fill:white; stroke-width:1; stroke:black; " description="&lt;b&gt;ASD66_RS07200&lt;/b&gt;&lt;br&gt;TetR/AcrR family transcriptional regulator&lt;br&gt;Location: 1515215 - 1515862" locus_tag="ASD66_RS07200" class="clusterblast-orf" id="dummy-1_h1_9_21"  />
</g>
<g id="a1_0022"  >
<polygon points="452,90 477,90 482,85 477,80 452,80 452,90 " style="fill:white; stroke-width:1; stroke:black; " description="&lt;b&gt;ASD66_RS07205&lt;/b&gt;&lt;br&gt;FAD-binding dehydrogenase&lt;br&gt;Location: 1515859 - 1517535" locus_tag="ASD66_RS07205" class="clusterblast-orf" id="dummy-1_h1_9_22"  />
</g>
<g id="a1_0023"  >
<polygon points="482,90 492,90 497,85 492,80 482,80 482,90 " style="fill:white; stroke-width:1; stroke:black; " description="&lt;b&gt;ASD66_RS07210&lt;/b&gt;&lt;br&gt;SDR family oxidoreductase&lt;br&gt;Location: 1517535 - 1518335" locus_tag="ASD66_RS07210" class="clusterblast-orf" id="dummy-1_h1_9_23"  />
</g>
<g id="a1_0024"  >
<polygon points="500,85 505,80 532,80 532,90 505,90 500,85 " style="fill:white; stroke-width:1; stroke:black; " description="&lt;b&gt;ASD66_RS07215&lt;/b&gt;&lt;br&gt;DEAD/DEAH box helicase&lt;br&gt;Location: 1518487 - 1520268" locus_tag="ASD66_RS07215" class="clusterblast-orf" id="dummy-1_h1_9_24"  />
</g>
<g id="a1_0025"  >
<polygon points="532,85 537,80 548,80 548,90 537,90 532,85 " style="fill:white; stroke-width:1; stroke:black; " description="&lt;b&gt;ASD66_RS07220&lt;/b&gt;&lt;br&gt;alpha/beta fold hydrolase&lt;br&gt;Location: 1520279 - 1521142" locus_tag="ASD66_RS07220" class="clusterblast-orf" id="dummy-1_h1_9_25"  />
</g>
<g id="a1_0026"  >
<polygon points="554,90 571,90 576,85 571,80 554,80 554,90 " style="fill:#1515d8; stroke-width:1; stroke:black; " description="&lt;b&gt;ASD66_RS07225&lt;/b&gt;&lt;br&gt;aminotransferase class V-fold PLP-dependent enzyme&lt;br&gt;Location: 1521461 - 1522687&lt;br&gt;&lt;br&gt;&lt;b&gt;BlastP hit with MCIC6FC_016546&lt;/b&gt;&lt;br&gt;Percentage identity: 46&lt;br&gt;Percentage coverage: 23&lt;br&gt;BLAST bit score: 317&lt;br&gt;E-value: 8.7e-84" locus_tag="ASD66_RS07225" class="clusterblast-orf" id="dummy-1_h1_9_26"  />
</g>
<g id="a1_0027"  >
<polygon points="576,90 595,90 600,85 595,80 576,80 576,90 " style="fill:#1515d8; stroke-width:1; stroke:black; " description="&lt;b&gt;ASD66_RS07230&lt;/b&gt;&lt;br&gt;SidA/IucD/PvdA family monooxygenase&lt;br&gt;Location: 1522684 - 1523994&lt;br&gt;&lt;br&gt;&lt;b&gt;BlastP hit with MCIC6FC_016546&lt;/b&gt;&lt;br&gt;Percentage identity: 48&lt;br&gt;Percentage coverage: 24&lt;br&gt;BLAST bit score: 381&lt;br&gt;E-value: 4.9e-103" locus_tag="ASD66_RS07230" class="clusterblast-orf" id="dummy-1_h1_9_27"  />
</g>
<g id="a1_0028"  >
<polygon points="602,90 638,90 643,85 638,80 602,80 602,90 " style="fill:white; stroke-width:1; stroke:black; " description="&lt;b&gt;ASD66_RS07240&lt;/b&gt;&lt;br&gt;GNAT family N-acetyltransferase&lt;br&gt;Location: 1524081 - 1526367" locus_tag="ASD66_RS07240" class="clusterblast-orf" id="dummy-1_h1_9_28"  />
</g>
<g id="a1_0029"  >
<polygon points="644,90 676,90 681,85 676,80 644,80 644,90 " style="fill:white; stroke-width:1; stroke:black; " description="&lt;b&gt;ASD66_RS07245&lt;/b&gt;&lt;br&gt;penicillin acylase family protein&lt;br&gt;Location: 1526417 - 1528429" locus_tag="ASD66_RS07245" class="clusterblast-orf" id="dummy-1_h1_9_29"  />
</g>
<g id="a1_0030"  >
<polygon points="681,90 685,90 690,85 685,80 681,80 681,90 " style="fill:white; stroke-width:1; stroke:black; " description="&lt;b&gt;ASD66_RS07250&lt;/b&gt;&lt;br&gt;acetyltransferase&lt;br&gt;Location: 1528426 - 1528962" locus_tag="ASD66_RS07250" class="clusterblast-orf" id="dummy-1_h1_9_30"  />
</g>
<g id="a1_0031"  >
<polygon points="691,85 696,80 708,80 708,90 696,90 691,85 " style="fill:white; stroke-width:1; stroke:black; " description="&lt;b&gt;ASD66_RS07255&lt;/b&gt;&lt;br&gt;alpha/beta hydrolase&lt;br&gt;Location: 1528983 - 1529942" locus_tag="ASD66_RS07255" class="clusterblast-orf" id="dummy-1_h1_9_31"  />
</g>
<g id="a1_0032"  >
<polygon points="711,90 717,90 722,85 717,80 711,80 711,90 " style="fill:white; stroke-width:1; stroke:black; " description="&lt;b&gt;ASD66_RS07260&lt;/b&gt;&lt;br&gt;hypothetical protein&lt;br&gt;Location: 1530108 - 1530695" locus_tag="ASD66_RS07260" class="clusterblast-orf" id="dummy-1_h1_9_32"  />
</g>
<g id="a1_0033"  >
<polygon points="724,90 730,90 735,85 730,80 724,80 724,90 " style="fill:white; stroke-width:1; stroke:black; " description="&lt;b&gt;ASD66_RS07265&lt;/b&gt;&lt;br&gt;YceI family protein&lt;br&gt;Location: 1530803 - 1531408" locus_tag="ASD66_RS07265" class="clusterblast-orf" id="dummy-1_h1_9_33"  />
</g>
<g id="a1_0034"  >
<polygon points="738,90 749,90 754,85 749,80 738,80 738,90 " style="fill:white; stroke-width:1; stroke:black; " description="&lt;b&gt;ASD66_RS07270&lt;/b&gt;&lt;br&gt;GNAT family N-acetyltransferase&lt;br&gt;Location: 1531563 - 1532456" locus_tag="ASD66_RS07270" class="clusterblast-orf" id="dummy-1_h1_9_34"  />
</g>
<g id="a1_0035"  >
<polygon points="755,90 766,90 771,85 766,80 755,80 755,90 " style="fill:white; stroke-width:1; stroke:black; " description="&lt;b&gt;ASD66_RS07275&lt;/b&gt;&lt;br&gt;ABC-2 transporter permease&lt;br&gt;Location: 1532528 - 1533385" locus_tag="ASD66_RS07275" class="clusterblast-orf" id="dummy-1_h1_9_35"  />
</g>
<g id="a1_0036"  >
<polygon points="773,85 778,80 780,80 780,90 778,90 773,85 " style="fill:white; stroke-width:1; stroke:black; " description="&lt;b&gt;ASD66_RS07280&lt;/b&gt;&lt;br&gt;thioredoxin&lt;br&gt;Location: 1533515 - 1533862" locus_tag="ASD66_RS07280" class="clusterblast-orf" id="dummy-1_h1_9_36"  />
</g>
</svg>
