<svg xmlns="http://www.w3.org/2000/svg" xmlns:xlink="http://www.w3.org/1999/xlink" version="1.1" x="0" y="0" height="230" width="800" viewBox="0 0 800 230" preserveAspectRatio="none"  >
<g label="Query sequence" class="clusterblast-cluster"  >
<text x="5" y="20" class="clusterblast-acc"  >
Query sequence</text>
<line x1="10" y1="35" x2="778.0" y2="35" style="stroke-width:1; stroke:grey; "  />
<polygon points="54,35 59,30 64,30 64,40 59,40 54,35 " style="fill:#d81515; stroke-width:1; stroke:black; " description="&lt;b&gt;MCIC6FC_015424&lt;/b&gt;&lt;br&gt;hypothetical protein&lt;br&gt;Location: 116480 - 116759" locus_tag="MCIC6FC_015424" class="clusterblast-orf" id="dummy-2_q0_0_all"  />
<polygon points="78,40 139,40 144,35 139,30 78,30 78,40 " style="fill:#15d815; stroke-width:1; stroke:black; " description="&lt;b&gt;MCIC6FC_015425&lt;/b&gt;&lt;br&gt;hypothetical protein&lt;br&gt;Location: 117152 - 118979" locus_tag="MCIC6FC_015425" class="clusterblast-orf" id="dummy-2_q1_0_all"  />
<polygon points="149,40 192,40 197,35 192,30 149,30 149,40 " style="fill:#1515d8; stroke-width:1; stroke:black; " description="&lt;b&gt;MCIC6FC_015426&lt;/b&gt;&lt;br&gt;hypothetical protein&lt;br&gt;Location: 119111 - 120437" locus_tag="MCIC6FC_015426" class="clusterblast-orf" id="dummy-2_q2_0_all"  />
<polygon points="212,40 346,40 351,35 346,30 212,30 212,40 " style="fill:#d815d8; stroke-width:1; stroke:black; " description="&lt;b&gt;MCIC6FC_015427&lt;/b&gt;&lt;br&gt;hypothetical protein&lt;br&gt;Location: 120854 - 124718" locus_tag="MCIC6FC_015427" class="clusterblast-orf" id="dummy-2_q3_0_all"  />
<polygon points="351,35 356,30 540,30 540,40 356,40 351,35 " style="fill:#d8d815; stroke-width:1; stroke:black; " description="&lt;b&gt;MCIC6FC_015428&lt;/b&gt;&lt;br&gt;hypothetical protein&lt;br&gt;Location: 124725 - 129958" locus_tag="MCIC6FC_015428" class="clusterblast-orf" id="dummy-2_q4_0_all"  />
<polygon points="548,40 721,40 726,35 721,30 548,30 548,40 " style="fill:#15d8d8; stroke-width:1; stroke:black; " description="&lt;b&gt;MCIC6FC_015429&lt;/b&gt;&lt;br&gt;hypothetical protein&lt;br&gt;Location: 130173 - 135098" locus_tag="MCIC6FC_015429" class="clusterblast-orf" id="dummy-2_q5_0_all"  />
</g>
<g label="NZ_CP027756" description="NZ_CP027756 (4428693-4455527): Pseudomonas synxantha strain R6-28-08 chromoso... (43% of genes show similarity), NAGGN,TfuA-related" class="clusterblast-cluster"  >
<text x="5" y="70" class="clusterblast-acc"  >
<a xlink:href="https://antismash-db.secondarymetabolites.org/area.html?record=NZ_CP027756&amp;start=4428693&amp;end=4455527" target="_blank">NZ_CP027756 (4428693-4455527)</a>: Pseudomonas synxantha strain R6-28-08 chromoso... (43% of genes show similarity), NAGGN,TfuA-related</text>
<line x1="10" y1="85" x2="778.0" y2="85" style="stroke-width:1; stroke:grey; "  />
</g>
<g id="a2_000"  >
<polygon points="0,90 14,90 19,85 14,80 0,80 0,90 " style="fill:white; stroke-width:1; stroke:black; " description="&lt;b&gt;C4K01_RS20630&lt;/b&gt;&lt;br&gt;acireductone dioxygenase&lt;br&gt;Location: 4455313 - 4454783" locus_tag="C4K01_RS20630" class="clusterblast-orf" id="dummy-2_h2_3_0"  />
</g>
<g id="a2_001"  >
<polygon points="26,90 31,90 36,85 31,80 26,80 26,90 " style="fill:white; stroke-width:1; stroke:black; " description="&lt;b&gt;C4K01_RS20625&lt;/b&gt;&lt;br&gt;helix-turn-helix transcriptional regulator&lt;br&gt;Location: 4454571 - 4454302" locus_tag="C4K01_RS20625" class="clusterblast-orf" id="dummy-2_h2_3_1"  />
</g>
<g id="a2_002"  >
<polygon points="38,85 43,80 48,80 48,90 43,90 38,85 " style="fill:#d81515; stroke-width:1; stroke:black; " description="&lt;b&gt;C4K01_RS20620&lt;/b&gt;&lt;br&gt;DUF3509 domain-containing protein&lt;br&gt;Location: 4454243 - 4453965&lt;br&gt;&lt;br&gt;&lt;b&gt;BlastP hit with MCIC6FC_015424&lt;/b&gt;&lt;br&gt;Percentage identity: 99&lt;br&gt;Percentage coverage: 100&lt;br&gt;BLAST bit score: 180&lt;br&gt;E-value: 6.5e-44" locus_tag="C4K01_RS20620" class="clusterblast-orf" id="dummy-2_h2_3_2"  />
</g>
<g id="a2_003"  >
<polygon points="63,90 124,90 129,85 124,80 63,80 63,90 " style="fill:#15d815; stroke-width:1; stroke:black; " description="&lt;b&gt;C4K01_RS20615&lt;/b&gt;&lt;br&gt;long-chain-acyl-CoA synthetase&lt;br&gt;Location: 4453556 - 4451730&lt;br&gt;&lt;br&gt;&lt;b&gt;BlastP hit with MCIC6FC_015425&lt;/b&gt;&lt;br&gt;Percentage identity: 87&lt;br&gt;Percentage coverage: 100&lt;br&gt;BLAST bit score: 1106&lt;br&gt;E-value: 0.0" locus_tag="C4K01_RS20615" class="clusterblast-orf" id="dummy-2_h2_3_3"  />
</g>
<g id="a2_004"  >
<polygon points="133,90 146,90 151,85 146,80 133,80 133,90 " style="fill:#1515d8; stroke-width:1; stroke:black; " description="&lt;b&gt;C4K01_RS20610&lt;/b&gt;&lt;br&gt;ankyrin repeat domain-containing protein&lt;br&gt;Location: 4451623 - 4451108&lt;br&gt;&lt;br&gt;&lt;b&gt;BlastP hit with MCIC6FC_015426&lt;/b&gt;&lt;br&gt;Percentage identity: 91&lt;br&gt;Percentage coverage: 13&lt;br&gt;BLAST bit score: 104&lt;br&gt;E-value: 2.1e-20" locus_tag="C4K01_RS20610" class="clusterblast-orf" id="dummy-2_h2_3_4"  />
</g>
<g id="a2_005"  >
<polygon points="153,90 167,90 172,85 167,80 153,80 153,90 " style="fill:#1515d8; stroke-width:1; stroke:black; " description="&lt;b&gt;C4K01_RS20605&lt;/b&gt;&lt;br&gt;hypothetical protein&lt;br&gt;Location: 4451067 - 4450537&lt;br&gt;&lt;br&gt;&lt;b&gt;BlastP hit with MCIC6FC_015426&lt;/b&gt;&lt;br&gt;Percentage identity: 94&lt;br&gt;Percentage coverage: 42&lt;br&gt;BLAST bit score: 326&lt;br&gt;E-value: 4.4e-87" locus_tag="C4K01_RS20605" class="clusterblast-orf" id="dummy-2_h2_3_5"  />
</g>
<g id="a2_006"  >
<polygon points="174,90 176,90 181,85 176,80 174,80 174,90 " style="fill:#1515d8; stroke-width:1; stroke:black; " description="&lt;b&gt;C4K01_RS20600&lt;/b&gt;&lt;br&gt;hypothetical protein&lt;br&gt;Location: 4450468 - 4450277&lt;br&gt;&lt;br&gt;&lt;b&gt;BlastP hit with MCIC6FC_015426&lt;/b&gt;&lt;br&gt;Percentage identity: 100&lt;br&gt;Percentage coverage: 15&lt;br&gt;BLAST bit score: 122&lt;br&gt;E-value: 1.3e-25" locus_tag="C4K01_RS20600" class="clusterblast-orf" id="dummy-2_h2_3_6"  />
</g>
<g id="a2_007"  >
<polygon points="184,85 189,80 225,80 225,90 189,90 184,85 " style="fill:white; stroke-width:1; stroke:black; " description="&lt;b&gt;C4K01_RS20595&lt;/b&gt;&lt;br&gt;hypothetical protein&lt;br&gt;Location: 4450200 - 4449067" locus_tag="C4K01_RS20595" class="clusterblast-orf" id="dummy-2_h2_3_7"  />
</g>
<g id="a2_008"  >
<polygon points="226,85 231,80 273,80 273,90 231,90 226,85 " style="fill:white; stroke-width:1; stroke:black; " description="&lt;b&gt;C4K01_RS20590&lt;/b&gt;&lt;br&gt;MFS transporter&lt;br&gt;Location: 4449025 - 4447721" locus_tag="C4K01_RS20590" class="clusterblast-orf" id="dummy-2_h2_3_8"  />
</g>
<g id="a2_009"  >
<polygon points="275,85 280,80 316,80 316,90 280,90 275,85 " style="fill:white; stroke-width:1; stroke:black; " description="&lt;b&gt;C4K01_RS20585&lt;/b&gt;&lt;br&gt;molybdopterin-synthase adenylyltransferase MoeB&lt;br&gt;Location: 4447674 - 4446550" locus_tag="C4K01_RS20585" class="clusterblast-orf" id="dummy-2_h2_3_9"  />
</g>
<g id="a2_0010"  >
<polygon points="316,85 321,80 326,80 326,90 321,90 316,85 " style="fill:white; stroke-width:1; stroke:black; " description="&lt;b&gt;C4K01_RS20580&lt;/b&gt;&lt;br&gt;MoaD/ThiS family protein&lt;br&gt;Location: 4446548 - 4446276" locus_tag="C4K01_RS20580" class="clusterblast-orf" id="dummy-2_h2_3_10"  />
</g>
<g id="a2_0011"  >
<polygon points="326,85 331,80 353,80 353,90 331,90 326,85 " style="fill:white; stroke-width:1; stroke:black; " description="&lt;b&gt;C4K01_RS20575&lt;/b&gt;&lt;br&gt;hypothetical protein&lt;br&gt;Location: 4446272 - 4445502" locus_tag="C4K01_RS20575" class="clusterblast-orf" id="dummy-2_h2_3_11"  />
</g>
<g id="a2_0012"  >
<polygon points="353,85 358,80 378,80 378,90 358,90 353,85 " style="fill:white; stroke-width:1; stroke:black; " description="&lt;b&gt;C4K01_RS20570&lt;/b&gt;&lt;br&gt;hypothetical protein&lt;br&gt;Location: 4445527 - 4444826" locus_tag="C4K01_RS20570" class="clusterblast-orf" id="dummy-2_h2_3_12"  />
</g>
<g id="a2_0013"  >
<polygon points="377,85 382,80 421,80 421,90 382,90 377,85 " style="fill:white; stroke-width:1; stroke:black; " description="&lt;b&gt;C4K01_RS20565&lt;/b&gt;&lt;br&gt;hypothetical protein&lt;br&gt;Location: 4444845 - 4443628" locus_tag="C4K01_RS20565" class="clusterblast-orf" id="dummy-2_h2_3_13"  />
</g>
<g id="a2_0014"  >
<polygon points="424,85 429,80 430,80 430,90 429,90 424,85 " style="fill:white; stroke-width:1; stroke:black; " description="&lt;b&gt;C4K01_RS30525&lt;/b&gt;&lt;br&gt;hypothetical protein&lt;br&gt;Location: 4443550 - 4443374" locus_tag="C4K01_RS30525" class="clusterblast-orf" id="dummy-2_h2_3_14"  />
</g>
<g id="a2_0015"  >
<polygon points="456,90 527,90 532,85 527,80 456,80 456,90 " style="fill:#d815d8; stroke-width:1; stroke:black; " description="&lt;b&gt;C4K01_RS20560&lt;/b&gt;&lt;br&gt;LTA synthase family protein&lt;br&gt;Location: 4442653 - 4440566&lt;br&gt;&lt;br&gt;&lt;b&gt;BlastP hit with MCIC6FC_015427&lt;/b&gt;&lt;br&gt;Percentage identity: 97&lt;br&gt;Percentage coverage: 62&lt;br&gt;BLAST bit score: 1355&lt;br&gt;E-value: 0.0" locus_tag="C4K01_RS20560" class="clusterblast-orf" id="dummy-2_h2_3_15"  />
</g>
<g id="a2_0016"  >
<polygon points="534,85 539,80 540,80 540,90 539,90 534,85 " style="fill:white; stroke-width:1; stroke:black; " description="&lt;b&gt;C4K01_RS20555&lt;/b&gt;&lt;br&gt;DUF3309 domain-containing protein&lt;br&gt;Location: 4440494 - 4440342" locus_tag="C4K01_RS20555" class="clusterblast-orf" id="dummy-2_h2_3_16"  />
</g>
<g id="a2_0017"  >
<polygon points="551,90 576,90 581,85 576,80 551,80 551,90 " style="fill:#d815d8; stroke-width:1; stroke:black; " description="&lt;b&gt;C4K01_RS20550&lt;/b&gt;&lt;br&gt;SDR family oxidoreductase&lt;br&gt;Location: 4440014 - 4439199&lt;br&gt;&lt;br&gt;&lt;b&gt;BlastP hit with MCIC6FC_015427&lt;/b&gt;&lt;br&gt;Percentage identity: 92&lt;br&gt;Percentage coverage: 24&lt;br&gt;BLAST bit score: 485&lt;br&gt;E-value: 1.1e-134" locus_tag="C4K01_RS20550" class="clusterblast-orf" id="dummy-2_h2_3_17"  />
</g>
<g id="a2_0018"  >
<polygon points="586,90 588,90 593,85 588,80 586,80 586,90 " style="fill:white; stroke-width:1; stroke:black; " description="&lt;b&gt;C4K01_RS20545&lt;/b&gt;&lt;br&gt;carbon storage regulator CsrA&lt;br&gt;Location: 4439071 - 4438868" locus_tag="C4K01_RS20545" class="clusterblast-orf" id="dummy-2_h2_3_18"  />
</g>
<g id="a2_0019"  >
<polygon points="593,85 598,80 601,80 601,90 598,90 593,85 " style="fill:white; stroke-width:1; stroke:black; " description="&lt;b&gt;C4K01_RS20540&lt;/b&gt;&lt;br&gt;YheU family protein&lt;br&gt;Location: 4438857 - 4438630" locus_tag="C4K01_RS20540" class="clusterblast-orf" id="dummy-2_h2_3_19"  />
</g>
<g id="a2_0020"  >
<polygon points="604,85 609,80 647,80 647,90 609,90 604,85 " style="fill:#d8d815; stroke-width:1; stroke:black; " description="&lt;b&gt;C4K01_RS20535&lt;/b&gt;&lt;br&gt;osmoprotectant NAGGN system M42 family peptidase&lt;br&gt;Location: 4438554 - 4437370&lt;br&gt;&lt;br&gt;&lt;b&gt;BlastP hit with MCIC6FC_015428&lt;/b&gt;&lt;br&gt;Percentage identity: 99&lt;br&gt;Percentage coverage: 23&lt;br&gt;BLAST bit score: 770&lt;br&gt;E-value: 3.5e-220" locus_tag="C4K01_RS20535" class="clusterblast-orf" id="dummy-2_h2_3_20"  />
</g>
<g id="a2_0021"  >
<polygon points="652,85 657,80 715,80 715,90 657,90 652,85 " style="fill:#d8d815; stroke-width:1; stroke:black; " description="&lt;b&gt;C4K01_RS20530&lt;/b&gt;&lt;br&gt;N-acetylglutaminylglutamine synthetase&lt;br&gt;Location: 4437215 - 4435470&lt;br&gt;&lt;br&gt;&lt;b&gt;BlastP hit with MCIC6FC_015428&lt;/b&gt;&lt;br&gt;Percentage identity: 94&lt;br&gt;Percentage coverage: 34&lt;br&gt;BLAST bit score: 1087&lt;br&gt;E-value: 0.0" locus_tag="C4K01_RS20530" class="clusterblast-orf" id="dummy-2_h2_3_21"  />
</g>
<g id="a2_0022"  >
<polygon points="716,85 721,80 780,80 780,90 721,90 716,85 " style="fill:#d8d815; stroke-width:1; stroke:black; " description="&lt;b&gt;C4K01_RS20525&lt;/b&gt;&lt;br&gt;N-acetylglutaminylglutamine amidotransferase&lt;br&gt;Location: 4435466 - 4433694&lt;br&gt;&lt;br&gt;&lt;b&gt;BlastP hit with MCIC6FC_015428&lt;/b&gt;&lt;br&gt;Percentage identity: 97&lt;br&gt;Percentage coverage: 35&lt;br&gt;BLAST bit score: 1161&lt;br&gt;E-value: 0.0" locus_tag="C4K01_RS20525" class="clusterblast-orf" id="dummy-2_h2_3_22"  />
</g>
</svg>
