<svg xmlns="http://www.w3.org/2000/svg" xmlns:xlink="http://www.w3.org/1999/xlink" version="1.1" x="0" y="0" height="230" width="800" viewBox="0 0 800 230" preserveAspectRatio="none"  >
<g label="Query sequence" class="clusterblast-cluster"  >
<text x="5" y="20" class="clusterblast-acc"  >
Query sequence</text>
<line x1="10" y1="35" x2="778.0" y2="35" style="stroke-width:1; stroke:grey; "  />
<polygon points="5,35 9,30 9,40 5,35 " style="fill:#d81515; stroke-width:1; stroke:black; " description="&lt;b&gt;MCIC6FC_008714&lt;/b&gt;&lt;br&gt;hypothetical protein&lt;br&gt;Location: 43730 - 43999" locus_tag="MCIC6FC_008714" class="clusterblast-orf" id="dummy-1_q0_0_all"  />
<polygon points="11,35 16,30 32,30 32,40 16,40 11,35 " style="fill:#5cd815; stroke-width:1; stroke:black; " description="&lt;b&gt;MCIC6FC_008715&lt;/b&gt;&lt;br&gt;hypothetical protein&lt;br&gt;Location: 44130 - 45482" locus_tag="MCIC6FC_008715" class="clusterblast-orf" id="dummy-1_q1_0_all"  />
<polygon points="33,35 38,30 102,30 102,40 38,40 33,35 " style="fill:#15a3d8; stroke-width:1; stroke:black; " description="&lt;b&gt;MCIC6FC_008716&lt;/b&gt;&lt;br&gt;hypothetical protein&lt;br&gt;Location: 45547 - 50041" locus_tag="MCIC6FC_008716" class="clusterblast-orf" id="dummy-1_q2_0_all"  />
<polygon points="120,35 125,30 184,30 184,40 125,40 120,35 " style="fill:#9115d8; stroke-width:1; stroke:black; " description="&lt;b&gt;MCIC6FC_008719&lt;/b&gt;&lt;br&gt;hypothetical protein&lt;br&gt;Location: 51252 - 55428" locus_tag="MCIC6FC_008719" class="clusterblast-orf" id="dummy-1_q3_0_all"  />
<polygon points="186,35 191,30 195,30 195,40 191,40 186,35 " style="fill:#d84a15; stroke-width:1; stroke:black; " description="&lt;b&gt;MCIC6FC_008720&lt;/b&gt;&lt;br&gt;hypothetical protein&lt;br&gt;Location: 55541 - 56170" locus_tag="MCIC6FC_008720" class="clusterblast-orf" id="dummy-1_q4_0_all"  />
<polygon points="197,40 197,40 202,35 197,30 197,30 197,40 " style="fill:#27d815; stroke-width:1; stroke:black; " description="&lt;b&gt;MCIC6FC_008721&lt;/b&gt;&lt;br&gt;hypothetical protein&lt;br&gt;Location: 56297 - 56591" locus_tag="MCIC6FC_008721" class="clusterblast-orf" id="dummy-1_q5_0_all"  />
<polygon points="203,35 208,30 211,30 211,40 208,40 203,35 " style="fill:#156ed8; stroke-width:1; stroke:black; " description="&lt;b&gt;MCIC6FC_008722&lt;/b&gt;&lt;br&gt;hypothetical protein&lt;br&gt;Location: 56697 - 57174" locus_tag="MCIC6FC_008722" class="clusterblast-orf" id="dummy-1_q6_0_all"  />
<polygon points="215,40 232,40 237,35 232,30 215,30 215,40 " style="fill:#c715d8; stroke-width:1; stroke:black; " description="&lt;b&gt;MCIC6FC_008723&lt;/b&gt;&lt;br&gt;hypothetical protein&lt;br&gt;Location: 57465 - 58857" locus_tag="MCIC6FC_008723" class="clusterblast-orf" id="dummy-1_q7_0_all"  />
<polygon points="238,35 243,30 272,30 272,40 243,40 238,35 " style="fill:#d88015; stroke-width:1; stroke:black; " description="&lt;b&gt;MCIC6FC_008724&lt;/b&gt;&lt;br&gt;hypothetical protein&lt;br&gt;Location: 58921 - 61187" locus_tag="MCIC6FC_008724" class="clusterblast-orf" id="dummy-1_q8_0_all"  />
<polygon points="274,40 355,40 360,35 355,30 274,30 274,40 " style="fill:#15d839; stroke-width:1; stroke:black; " description="&lt;b&gt;MCIC6FC_008725&lt;/b&gt;&lt;br&gt;hypothetical protein&lt;br&gt;Location: 61334 - 66895" locus_tag="MCIC6FC_008725" class="clusterblast-orf" id="dummy-1_q9_0_all"  />
<polygon points="360,35 365,30 402,30 402,40 365,40 360,35 " style="fill:#1539d8; stroke-width:1; stroke:black; " description="&lt;b&gt;MCIC6FC_008726&lt;/b&gt;&lt;br&gt;hypothetical protein&lt;br&gt;Location: 66937 - 69693" locus_tag="MCIC6FC_008726" class="clusterblast-orf" id="dummy-1_q10_0_all"  />
<polygon points="405,40 419,40 424,35 419,30 405,30 405,40 " style="fill:#d815b5; stroke-width:1; stroke:black; " description="&lt;b&gt;MCIC6FC_008727&lt;/b&gt;&lt;br&gt;hypothetical protein&lt;br&gt;Location: 69840 - 71086" locus_tag="MCIC6FC_008727" class="clusterblast-orf" id="dummy-1_q11_0_all"  />
<polygon points="424,35 429,30 438,30 438,40 429,40 424,35 " style="fill:#d8b515; stroke-width:1; stroke:black; " description="&lt;b&gt;MCIC6FC_008728&lt;/b&gt;&lt;br&gt;hypothetical protein&lt;br&gt;Location: 71088 - 72053" locus_tag="MCIC6FC_008728" class="clusterblast-orf" id="dummy-1_q12_0_all"  />
<polygon points="441,40 511,40 516,35 511,30 441,30 441,40 " style="fill:#15d86e; stroke-width:1; stroke:black; " description="&lt;b&gt;MCIC6FC_008729&lt;/b&gt;&lt;br&gt;hypothetical protein&lt;br&gt;Location: 72229 - 77088" locus_tag="MCIC6FC_008729" class="clusterblast-orf" id="dummy-1_q13_0_all"  />
<polygon points="517,35 522,30 547,30 547,40 522,40 517,35 " style="fill:#2715d8; stroke-width:1; stroke:black; " description="&lt;b&gt;MCIC6FC_008730&lt;/b&gt;&lt;br&gt;hypothetical protein&lt;br&gt;Location: 77159 - 79159" locus_tag="MCIC6FC_008730" class="clusterblast-orf" id="dummy-1_q14_0_all"  />
<polygon points="552,40 561,40 566,35 561,30 552,30 552,40 " style="fill:#d81580; stroke-width:1; stroke:black; " description="&lt;b&gt;MCIC6FC_008731&lt;/b&gt;&lt;br&gt;hypothetical protein&lt;br&gt;Location: 79455 - 80388" locus_tag="MCIC6FC_008731" class="clusterblast-orf" id="dummy-1_q15_0_all"  />
<polygon points="569,40 569,40 574,35 569,30 569,30 569,40 " style="fill:#c7d815; stroke-width:1; stroke:black; " description="&lt;b&gt;MCIC6FC_008732&lt;/b&gt;&lt;br&gt;hypothetical protein&lt;br&gt;Location: 80562 - 80910" locus_tag="MCIC6FC_008732" class="clusterblast-orf" id="dummy-1_q16_0_all"  />
<polygon points="575,35 580,30 594,30 594,40 580,40 575,35 " style="fill:#15d8a3; stroke-width:1; stroke:black; " description="&lt;b&gt;MCIC6FC_008733&lt;/b&gt;&lt;br&gt;hypothetical protein&lt;br&gt;Location: 80983 - 82244" locus_tag="MCIC6FC_008733" class="clusterblast-orf" id="dummy-1_q17_0_all"  />
<polygon points="595,35 599,30 599,40 595,35 " style="fill:#5c15d8; stroke-width:1; stroke:black; " description="&lt;b&gt;MCIC6FC_008734&lt;/b&gt;&lt;br&gt;hypothetical protein&lt;br&gt;Location: 82311 - 82569" locus_tag="MCIC6FC_008734" class="clusterblast-orf" id="dummy-1_q18_0_all"  />
<polygon points="601,35 606,30 636,30 636,40 606,40 601,35 " style="fill:#d8154a; stroke-width:1; stroke:black; " description="&lt;b&gt;MCIC6FC_008735&lt;/b&gt;&lt;br&gt;hypothetical protein&lt;br&gt;Location: 82682 - 84971" locus_tag="MCIC6FC_008735" class="clusterblast-orf" id="dummy-1_q19_0_all"  />
<polygon points="636,35 641,30 649,30 649,40 641,40 636,35 " style="fill:#91d815; stroke-width:1; stroke:black; " description="&lt;b&gt;MCIC6FC_008736&lt;/b&gt;&lt;br&gt;hypothetical protein&lt;br&gt;Location: 84975 - 85791" locus_tag="MCIC6FC_008736" class="clusterblast-orf" id="dummy-1_q20_0_all"  />
<polygon points="650,40 769,40 774,35 769,30 650,30 650,40 " style="fill:#15d8d8; stroke-width:1; stroke:black; " description="&lt;b&gt;MCIC6FC_008737&lt;/b&gt;&lt;br&gt;hypothetical protein&lt;br&gt;Location: 85897 - 93996" locus_tag="MCIC6FC_008737" class="clusterblast-orf" id="dummy-1_q21_0_all"  />
</g>
<g label="NZ_JPKP01000001" description="NZ_JPKP01000001 (31537-83601): Pantoea vagans strain MP7 Contig1, whole genom... (75% of genes show similarity), NRPS" class="clusterblast-cluster"  >
<text x="5" y="70" class="clusterblast-acc"  >
<a xlink:href="https://antismash-db.secondarymetabolites.org/area.html?record=NZ_JPKP01000001&amp;start=31537&amp;end=83601" target="_blank">NZ_JPKP01000001 (31537-83601)</a>: Pantoea vagans strain MP7 Contig1, whole genom... (75% of genes show similarity), NRPS</text>
<line x1="10" y1="85" x2="778.0" y2="85" style="stroke-width:1; stroke:grey; "  />
</g>
<g id="a1_000"  >
<polygon points="0,85 4,80 4,90 0,85 " style="fill:#d81515; stroke-width:1; stroke:black; " description="&lt;b&gt;ID11_RS00400&lt;/b&gt;&lt;br&gt;30S ribosomal protein S15&lt;br&gt;Location: 82834 - 82565&lt;br&gt;&lt;br&gt;&lt;b&gt;BlastP hit with MCIC6FC_008714&lt;/b&gt;&lt;br&gt;Percentage identity: 84&lt;br&gt;Percentage coverage: 110&lt;br&gt;BLAST bit score: 135&lt;br&gt;E-value: 2.8e-30" locus_tag="ID11_RS00400" class="clusterblast-orf" id="dummy-1_h1_2_0"  />
</g>
<g id="a1_001"  >
<polygon points="6,85 11,80 20,80 20,90 11,90 6,85 " style="fill:#5cd815; stroke-width:1; stroke:black; " description="&lt;b&gt;ID11_RS00395&lt;/b&gt;&lt;br&gt;tRNA pseudouridine(55) synthase TruB&lt;br&gt;Location: 82433 - 81489&lt;br&gt;&lt;br&gt;&lt;b&gt;BlastP hit with MCIC6FC_008715&lt;/b&gt;&lt;br&gt;Percentage identity: 99&lt;br&gt;Percentage coverage: 71&lt;br&gt;BLAST bit score: 623&lt;br&gt;E-value: 2.4e-176" locus_tag="ID11_RS00395" class="clusterblast-orf" id="dummy-1_h1_2_1"  />
</g>
<g id="a1_002"  >
<polygon points="20,85 25,80 26,80 26,90 25,90 20,85 " style="fill:#5cd815; stroke-width:1; stroke:black; " description="&lt;b&gt;ID11_RS00390&lt;/b&gt;&lt;br&gt;30S ribosome-binding factor RbfA&lt;br&gt;Location: 81489 - 81082&lt;br&gt;&lt;br&gt;&lt;b&gt;BlastP hit with MCIC6FC_008715&lt;/b&gt;&lt;br&gt;Percentage identity: 100&lt;br&gt;Percentage coverage: 28&lt;br&gt;BLAST bit score: 240&lt;br&gt;E-value: 3.3e-61" locus_tag="ID11_RS00390" class="clusterblast-orf" id="dummy-1_h1_2_2"  />
</g>
<g id="a1_003"  >
<polygon points="27,85 32,80 69,80 69,90 32,90 27,85 " style="fill:#15a3d8; stroke-width:1; stroke:black; " description="&lt;b&gt;ID11_RS00385&lt;/b&gt;&lt;br&gt;translation initiation factor IF-2&lt;br&gt;Location: 81016 - 78323&lt;br&gt;&lt;br&gt;&lt;b&gt;BlastP hit with MCIC6FC_008716&lt;/b&gt;&lt;br&gt;Percentage identity: 95&lt;br&gt;Percentage coverage: 65&lt;br&gt;BLAST bit score: 1268&lt;br&gt;E-value: 0.0" locus_tag="ID11_RS00385" class="clusterblast-orf" id="dummy-1_h1_2_3"  />
</g>
<g id="a1_004"  >
<polygon points="69,85 74,80 92,80 92,90 74,90 69,85 " style="fill:#15a3d8; stroke-width:1; stroke:black; " description="&lt;b&gt;ID11_RS00380&lt;/b&gt;&lt;br&gt;transcription termination/antitermination protein NusA&lt;br&gt;Location: 78305 - 76818&lt;br&gt;&lt;br&gt;&lt;b&gt;BlastP hit with MCIC6FC_008716&lt;/b&gt;&lt;br&gt;Percentage identity: 88&lt;br&gt;Percentage coverage: 35&lt;br&gt;BLAST bit score: 757&lt;br&gt;E-value: 1.9e-216" locus_tag="ID11_RS00380" class="clusterblast-orf" id="dummy-1_h1_2_4"  />
</g>
<g id="a1_005"  >
<polygon points="92,85 97,80 99,80 99,90 97,90 92,85 " style="fill:white; stroke-width:1; stroke:black; " description="&lt;b&gt;ID11_RS00375&lt;/b&gt;&lt;br&gt;ribosome maturation factor RimP&lt;br&gt;Location: 76793 - 76341" locus_tag="ID11_RS00375" class="clusterblast-orf" id="dummy-1_h1_2_5"  />
</g>
<g id="a1_006"  >
<polygon points="106,85 111,80 111,80 111,90 111,90 106,85 " style="fill:white; stroke-width:1; stroke:black; " description="&lt;b&gt;ID11_RS00360&lt;/b&gt;&lt;br&gt;preprotein translocase subunit SecG&lt;br&gt;Location: 75863 - 75525" locus_tag="ID11_RS00360" class="clusterblast-orf" id="dummy-1_h1_2_6"  />
</g>
<g id="a1_007"  >
<polygon points="115,85 120,80 135,80 135,90 120,90 115,85 " style="fill:#9115d8; stroke-width:1; stroke:black; " description="&lt;b&gt;ID11_RS00355&lt;/b&gt;&lt;br&gt;phosphoglucosamine mutase&lt;br&gt;Location: 75307 - 73973&lt;br&gt;&lt;br&gt;&lt;b&gt;BlastP hit with MCIC6FC_008719&lt;/b&gt;&lt;br&gt;Percentage identity: 99&lt;br&gt;Percentage coverage: 32&lt;br&gt;BLAST bit score: 866&lt;br&gt;E-value: 3.8e-249" locus_tag="ID11_RS00355" class="clusterblast-orf" id="dummy-1_h1_2_7"  />
</g>
<g id="a1_008"  >
<polygon points="135,85 140,80 148,80 148,90 140,90 135,85 " style="fill:#9115d8; stroke-width:1; stroke:black; " description="&lt;b&gt;ID11_RS00350&lt;/b&gt;&lt;br&gt;dihydropteroate synthase&lt;br&gt;Location: 73976 - 73137&lt;br&gt;&lt;br&gt;&lt;b&gt;BlastP hit with MCIC6FC_008719&lt;/b&gt;&lt;br&gt;Percentage identity: 100&lt;br&gt;Percentage coverage: 20&lt;br&gt;BLAST bit score: 522&lt;br&gt;E-value: 1e-145" locus_tag="ID11_RS00350" class="clusterblast-orf" id="dummy-1_h1_2_8"  />
</g>
<g id="a1_009"  >
<polygon points="149,85 154,80 179,80 179,90 154,90 149,85 " style="fill:#9115d8; stroke-width:1; stroke:black; " description="&lt;b&gt;ID11_RS00345&lt;/b&gt;&lt;br&gt;ATP-dependent zinc metalloprotease FtsH&lt;br&gt;Location: 73057 - 71132&lt;br&gt;&lt;br&gt;&lt;b&gt;BlastP hit with MCIC6FC_008719&lt;/b&gt;&lt;br&gt;Percentage identity: 97&lt;br&gt;Percentage coverage: 45&lt;br&gt;BLAST bit score: 1144&lt;br&gt;E-value: 0.0" locus_tag="ID11_RS00345" class="clusterblast-orf" id="dummy-1_h1_2_9"  />
</g>
<g id="a1_0010"  >
<polygon points="180,85 185,80 190,80 190,90 185,90 180,85 " style="fill:#d84a15; stroke-width:1; stroke:black; " description="&lt;b&gt;ID11_RS00340&lt;/b&gt;&lt;br&gt;23S rRNA (uridine(2552)-2'-O)-methyltransferase RlmE&lt;br&gt;Location: 71018 - 70389&lt;br&gt;&lt;br&gt;&lt;b&gt;BlastP hit with MCIC6FC_008720&lt;/b&gt;&lt;br&gt;Percentage identity: 95&lt;br&gt;Percentage coverage: 104&lt;br&gt;BLAST bit score: 392&lt;br&gt;E-value: 3.1e-107" locus_tag="ID11_RS00340" class="clusterblast-orf" id="dummy-1_h1_2_10"  />
</g>
<g id="a1_0011"  >
<polygon points="192,90 196,85 192,80 192,90 " style="fill:#27d815; stroke-width:1; stroke:black; " description="&lt;b&gt;ID11_RS00335&lt;/b&gt;&lt;br&gt;ribosome assembly RNA-binding protein YhbY&lt;br&gt;Location: 70261 - 69968&lt;br&gt;&lt;br&gt;&lt;b&gt;BlastP hit with MCIC6FC_008721&lt;/b&gt;&lt;br&gt;Percentage identity: 100&lt;br&gt;Percentage coverage: 100&lt;br&gt;BLAST bit score: 186&lt;br&gt;E-value: 1.6e-45" locus_tag="ID11_RS00335" class="clusterblast-orf" id="dummy-1_h1_2_11"  />
</g>
<g id="a1_0012"  >
<polygon points="198,85 203,80 205,80 205,90 203,90 198,85 " style="fill:#156ed8; stroke-width:1; stroke:black; " description="&lt;b&gt;ID11_RS00330&lt;/b&gt;&lt;br&gt;transcription elongation factor GreA&lt;br&gt;Location: 69861 - 69385&lt;br&gt;&lt;br&gt;&lt;b&gt;BlastP hit with MCIC6FC_008722&lt;/b&gt;&lt;br&gt;Percentage identity: 96&lt;br&gt;Percentage coverage: 104&lt;br&gt;BLAST bit score: 289&lt;br&gt;E-value: 2.2e-76" locus_tag="ID11_RS00330" class="clusterblast-orf" id="dummy-1_h1_2_12"  />
</g>
<g id="a1_0013"  >
<polygon points="209,90 226,90 231,85 226,80 209,80 209,90 " style="fill:#c715d8; stroke-width:1; stroke:black; " description="&lt;b&gt;ID11_RS00325&lt;/b&gt;&lt;br&gt;serine-type D-Ala-D-Ala carboxypeptidase&lt;br&gt;Location: 69135 - 67702&lt;br&gt;&lt;br&gt;&lt;b&gt;BlastP hit with MCIC6FC_008723&lt;/b&gt;&lt;br&gt;Percentage identity: 100&lt;br&gt;Percentage coverage: 100&lt;br&gt;BLAST bit score: 878&lt;br&gt;E-value: 4.3e-253" locus_tag="ID11_RS00325" class="clusterblast-orf" id="dummy-1_h1_2_13"  />
</g>
<g id="a1_0014"  >
<polygon points="232,85 237,80 267,80 267,90 237,90 232,85 " style="fill:#d88015; stroke-width:1; stroke:black; " description="&lt;b&gt;ID11_RS00320&lt;/b&gt;&lt;br&gt;TonB-dependent siderophore receptor&lt;br&gt;Location: 67638 - 65374&lt;br&gt;&lt;br&gt;&lt;b&gt;BlastP hit with MCIC6FC_008724&lt;/b&gt;&lt;br&gt;Percentage identity: 96&lt;br&gt;Percentage coverage: 101&lt;br&gt;BLAST bit score: 1451&lt;br&gt;E-value: 0.0" locus_tag="ID11_RS00320" class="clusterblast-orf" id="dummy-1_h1_2_14"  />
</g>
<g id="a1_0015"  >
<polygon points="271,90 284,90 289,85 284,80 271,80 271,90 " style="fill:#15d839; stroke-width:1; stroke:black; " description="&lt;b&gt;ID11_RS00315&lt;/b&gt;&lt;br&gt;enterochelin esterase&lt;br&gt;Location: 65123 - 63912&lt;br&gt;&lt;br&gt;&lt;b&gt;BlastP hit with MCIC6FC_008725&lt;/b&gt;&lt;br&gt;Percentage identity: 98&lt;br&gt;Percentage coverage: 21&lt;br&gt;BLAST bit score: 735&lt;br&gt;E-value: 1.7e-209" locus_tag="ID11_RS00315" class="clusterblast-orf" id="dummy-1_h1_2_15"  />
</g>
<g id="a1_0016"  >
<polygon points="291,90 294,85 291,80 291,90 " style="fill:white; stroke-width:1; stroke:black; " description="&lt;b&gt;ID11_RS00310&lt;/b&gt;&lt;br&gt;MbtH family protein&lt;br&gt;Location: 63815 - 63594" locus_tag="ID11_RS00310" class="clusterblast-orf" id="dummy-1_h1_2_16"  />
</g>
<g id="a1_0017"  >
<polygon points="294,90 349,90 354,85 349,80 294,80 294,90 " style="fill:#15d839; stroke-width:1; stroke:black; " description="&lt;b&gt;ID11_RS00305&lt;/b&gt;&lt;br&gt;enterobactin synthase subunit F&lt;br&gt;Location: 63601 - 59672&lt;br&gt;&lt;br&gt;&lt;b&gt;BlastP hit with MCIC6FC_008725&lt;/b&gt;&lt;br&gt;Percentage identity: 95&lt;br&gt;Percentage coverage: 76&lt;br&gt;BLAST bit score: 2402&lt;br&gt;E-value: 0.0" locus_tag="ID11_RS00305" class="clusterblast-orf" id="dummy-1_h1_2_17"  />
</g>
<g id="a1_0018"  >
<polygon points="355,85 360,80 367,80 367,90 360,90 355,85 " style="fill:#1539d8; stroke-width:1; stroke:black; " description="&lt;b&gt;ID11_RS00300&lt;/b&gt;&lt;br&gt;ATP-binding cassette domain-containing protein&lt;br&gt;Location: 59629 - 58838&lt;br&gt;&lt;br&gt;&lt;b&gt;BlastP hit with MCIC6FC_008726&lt;/b&gt;&lt;br&gt;Percentage identity: 98&lt;br&gt;Percentage coverage: 29&lt;br&gt;BLAST bit score: 495&lt;br&gt;E-value: 1.5e-137" locus_tag="ID11_RS00300" class="clusterblast-orf" id="dummy-1_h1_2_18"  />
</g>
<g id="a1_0019"  >
<polygon points="367,85 372,80 382,80 382,90 372,90 367,85 " style="fill:#1539d8; stroke-width:1; stroke:black; " description="&lt;b&gt;ID11_RS00295&lt;/b&gt;&lt;br&gt;iron-enterobactin ABC transporter permease&lt;br&gt;Location: 58841 - 57861&lt;br&gt;&lt;br&gt;&lt;b&gt;BlastP hit with MCIC6FC_008726&lt;/b&gt;&lt;br&gt;Percentage identity: 93&lt;br&gt;Percentage coverage: 36&lt;br&gt;BLAST bit score: 522&lt;br&gt;E-value: 1.1e-145" locus_tag="ID11_RS00295" class="clusterblast-orf" id="dummy-1_h1_2_19"  />
</g>
<g id="a1_0020"  >
<polygon points="382,85 387,80 397,80 397,90 387,90 382,85 " style="fill:#1539d8; stroke-width:1; stroke:black; " description="&lt;b&gt;ID11_RS00290&lt;/b&gt;&lt;br&gt;Fe(3+)-siderophore ABC transporter permease&lt;br&gt;Location: 57864 - 56875&lt;br&gt;&lt;br&gt;&lt;b&gt;BlastP hit with MCIC6FC_008726&lt;/b&gt;&lt;br&gt;Percentage identity: 93&lt;br&gt;Percentage coverage: 36&lt;br&gt;BLAST bit score: 540&lt;br&gt;E-value: 3.1e-151" locus_tag="ID11_RS00290" class="clusterblast-orf" id="dummy-1_h1_2_20"  />
</g>
<g id="a1_0021"  >
<polygon points="399,90 413,90 418,85 413,80 399,80 399,90 " style="fill:#d815b5; stroke-width:1; stroke:black; " description="&lt;b&gt;ID11_RS00285&lt;/b&gt;&lt;br&gt;enterobactin transporter EntS&lt;br&gt;Location: 56727 - 55483&lt;br&gt;&lt;br&gt;&lt;b&gt;BlastP hit with MCIC6FC_008727&lt;/b&gt;&lt;br&gt;Percentage identity: 90&lt;br&gt;Percentage coverage: 109&lt;br&gt;BLAST bit score: 664&lt;br&gt;E-value: 6.1e-189" locus_tag="ID11_RS00285" class="clusterblast-orf" id="dummy-1_h1_2_21"  />
</g>
<g id="a1_0022"  >
<polygon points="418,85 423,80 433,80 433,90 423,90 418,85 " style="fill:#d8b515; stroke-width:1; stroke:black; " description="&lt;b&gt;ID11_RS00280&lt;/b&gt;&lt;br&gt;Fe2+-enterobactin ABC transporter substrate-binding protein&lt;br&gt;Location: 55488 - 54520&lt;br&gt;&lt;br&gt;&lt;b&gt;BlastP hit with MCIC6FC_008728&lt;/b&gt;&lt;br&gt;Percentage identity: 92&lt;br&gt;Percentage coverage: 106&lt;br&gt;BLAST bit score: 465&lt;br&gt;E-value: 4.9e-129" locus_tag="ID11_RS00280" class="clusterblast-orf" id="dummy-1_h1_2_22"  />
</g>
<g id="a1_0023"  >
<polygon points="435,90 448,90 453,85 448,80 435,80 435,90 " style="fill:#15d86e; stroke-width:1; stroke:black; " description="&lt;b&gt;ID11_RS00275&lt;/b&gt;&lt;br&gt;isochorismate synthase&lt;br&gt;Location: 54343 - 53165&lt;br&gt;&lt;br&gt;&lt;b&gt;BlastP hit with MCIC6FC_008729&lt;/b&gt;&lt;br&gt;Percentage identity: 90&lt;br&gt;Percentage coverage: 25&lt;br&gt;BLAST bit score: 666&lt;br&gt;E-value: 8.2e-189" locus_tag="ID11_RS00275" class="clusterblast-orf" id="dummy-1_h1_2_23"  />
</g>
<g id="a1_0024"  >
<polygon points="454,90 473,90 478,85 473,80 454,80 454,90 " style="fill:#15d86e; stroke-width:1; stroke:black; " description="&lt;b&gt;ID11_RS00270&lt;/b&gt;&lt;br&gt;(2,3-dihydroxybenzoyl)adenylate synthase&lt;br&gt;Location: 53154 - 51538&lt;br&gt;&lt;br&gt;&lt;b&gt;BlastP hit with MCIC6FC_008729&lt;/b&gt;&lt;br&gt;Percentage identity: 89&lt;br&gt;Percentage coverage: 36&lt;br&gt;BLAST bit score: 916&lt;br&gt;E-value: 4.5e-264" locus_tag="ID11_RS00270" class="clusterblast-orf" id="dummy-1_h1_2_24"  />
</g>
<g id="a1_0025"  >
<polygon points="479,90 487,90 492,85 487,80 479,80 479,90 " style="fill:#15d86e; stroke-width:1; stroke:black; " description="&lt;b&gt;ID11_RS00265&lt;/b&gt;&lt;br&gt;isochorismatase&lt;br&gt;Location: 51519 - 50665&lt;br&gt;&lt;br&gt;&lt;b&gt;BlastP hit with MCIC6FC_008729&lt;/b&gt;&lt;br&gt;Percentage identity: 97&lt;br&gt;Percentage coverage: 18&lt;br&gt;BLAST bit score: 548&lt;br&gt;E-value: 1.9e-153" locus_tag="ID11_RS00265" class="clusterblast-orf" id="dummy-1_h1_2_25"  />
</g>
<g id="a1_0026"  >
<polygon points="492,90 498,90 503,85 498,80 492,80 492,90 " style="fill:#15d86e; stroke-width:1; stroke:black; " description="&lt;b&gt;ID11_RS00260&lt;/b&gt;&lt;br&gt;2,3-dihydro-2,3-dihydroxybenzoate dehydrogenase&lt;br&gt;Location: 50668 - 49910&lt;br&gt;&lt;br&gt;&lt;b&gt;BlastP hit with MCIC6FC_008729&lt;/b&gt;&lt;br&gt;Percentage identity: 96&lt;br&gt;Percentage coverage: 17&lt;br&gt;BLAST bit score: 465&lt;br&gt;E-value: 2.8e-128" locus_tag="ID11_RS00260" class="clusterblast-orf" id="dummy-1_h1_2_26"  />
</g>
<g id="a1_0027"  >
<polygon points="503,90 505,90 510,85 505,80 503,80 503,90 " style="fill:white; stroke-width:1; stroke:black; " description="&lt;b&gt;ID11_RS00255&lt;/b&gt;&lt;br&gt;hotdog fold thioesterase&lt;br&gt;Location: 49910 - 49488" locus_tag="ID11_RS00255" class="clusterblast-orf" id="dummy-1_h1_2_27"  />
</g>
<g id="a1_0028"  >
<polygon points="511,85 516,80 529,80 529,90 516,90 511,85 " style="fill:#2715d8; stroke-width:1; stroke:black; " description="&lt;b&gt;ID11_RS00250&lt;/b&gt;&lt;br&gt;Obg family GTPase CgtA&lt;br&gt;Location: 49416 - 48244&lt;br&gt;&lt;br&gt;&lt;b&gt;BlastP hit with MCIC6FC_008730&lt;/b&gt;&lt;br&gt;Percentage identity: 93&lt;br&gt;Percentage coverage: 64&lt;br&gt;BLAST bit score: 640&lt;br&gt;E-value: 1.5e-181" locus_tag="ID11_RS00250" class="clusterblast-orf" id="dummy-1_h1_2_28"  />
</g>
<g id="a1_0029"  >
<polygon points="533,85 536,80 536,90 533,85 " style="fill:#2715d8; stroke-width:1; stroke:black; " description="&lt;b&gt;ID11_RS00245&lt;/b&gt;&lt;br&gt;50S ribosomal protein L27&lt;br&gt;Location: 48000 - 47743&lt;br&gt;&lt;br&gt;&lt;b&gt;BlastP hit with MCIC6FC_008730&lt;/b&gt;&lt;br&gt;Percentage identity: 96&lt;br&gt;Percentage coverage: 13&lt;br&gt;BLAST bit score: 159&lt;br&gt;E-value: 1.3e-36" locus_tag="ID11_RS00245" class="clusterblast-orf" id="dummy-1_h1_2_29"  />
</g>
<g id="a1_0030"  >
<polygon points="537,85 541,80 541,90 537,85 " style="fill:#2715d8; stroke-width:1; stroke:black; " description="&lt;b&gt;ID11_RS00240&lt;/b&gt;&lt;br&gt;50S ribosomal protein L21&lt;br&gt;Location: 47727 - 47416&lt;br&gt;&lt;br&gt;&lt;b&gt;BlastP hit with MCIC6FC_008730&lt;/b&gt;&lt;br&gt;Percentage identity: 99&lt;br&gt;Percentage coverage: 16&lt;br&gt;BLAST bit score: 188&lt;br&gt;E-value: 2.1e-45" locus_tag="ID11_RS00240" class="clusterblast-orf" id="dummy-1_h1_2_30"  />
</g>
<g id="a1_0031"  >
<polygon points="545,90 555,90 560,85 555,80 545,80 545,90 " style="fill:#d81580; stroke-width:1; stroke:black; " description="&lt;b&gt;ID11_RS00235&lt;/b&gt;&lt;br&gt;octaprenyl diphosphate synthase&lt;br&gt;Location: 47159 - 46188&lt;br&gt;&lt;br&gt;&lt;b&gt;BlastP hit with MCIC6FC_008731&lt;/b&gt;&lt;br&gt;Percentage identity: 100&lt;br&gt;Percentage coverage: 100&lt;br&gt;BLAST bit score: 596&lt;br&gt;E-value: 1.3e-168" locus_tag="ID11_RS00235" class="clusterblast-orf" id="dummy-1_h1_2_31"  />
</g>
<g id="a1_0032"  >
<polygon points="564,90 568,85 564,80 564,90 " style="fill:#c7d815; stroke-width:1; stroke:black; " description="&lt;b&gt;ID11_RS00230&lt;/b&gt;&lt;br&gt;transcriptional regulator&lt;br&gt;Location: 45950 - 45666&lt;br&gt;&lt;br&gt;&lt;b&gt;BlastP hit with MCIC6FC_008732&lt;/b&gt;&lt;br&gt;Percentage identity: 96&lt;br&gt;Percentage coverage: 98&lt;br&gt;BLAST bit score: 180&lt;br&gt;E-value: 1.1e-43" locus_tag="ID11_RS00230" class="clusterblast-orf" id="dummy-1_h1_2_32"  />
</g>
<g id="a1_0033"  >
<polygon points="569,85 574,80 589,80 589,90 574,90 569,85 " style="fill:#15d8a3; stroke-width:1; stroke:black; " description="&lt;b&gt;ID11_RS00225&lt;/b&gt;&lt;br&gt;UDP-N-acetylglucosamine 1-carboxyvinyltransferase&lt;br&gt;Location: 45593 - 44334&lt;br&gt;&lt;br&gt;&lt;b&gt;BlastP hit with MCIC6FC_008733&lt;/b&gt;&lt;br&gt;Percentage identity: 95&lt;br&gt;Percentage coverage: 103&lt;br&gt;BLAST bit score: 756&lt;br&gt;E-value: 1.3e-216" locus_tag="ID11_RS00225" class="clusterblast-orf" id="dummy-1_h1_2_33"  />
</g>
<g id="a1_0034"  >
<polygon points="590,85 594,80 594,90 590,85 " style="fill:#5c15d8; stroke-width:1; stroke:black; " description="&lt;b&gt;ID11_RS00220&lt;/b&gt;&lt;br&gt;BolA family iron metabolism protein IbaG&lt;br&gt;Location: 44266 - 44009&lt;br&gt;&lt;br&gt;&lt;b&gt;BlastP hit with MCIC6FC_008734&lt;/b&gt;&lt;br&gt;Percentage identity: 100&lt;br&gt;Percentage coverage: 100&lt;br&gt;BLAST bit score: 172&lt;br&gt;E-value: 1.6e-41" locus_tag="ID11_RS00220" class="clusterblast-orf" id="dummy-1_h1_2_34"  />
</g>
<g id="a1_0035"  >
<polygon points="595,85 600,80 600,80 600,90 600,90 595,85 " style="fill:#d8154a; stroke-width:1; stroke:black; " description="&lt;b&gt;ID11_RS00215&lt;/b&gt;&lt;br&gt;lipid asymmetry maintenance protein MlaB&lt;br&gt;Location: 43895 - 43590&lt;br&gt;&lt;br&gt;&lt;b&gt;BlastP hit with MCIC6FC_008735&lt;/b&gt;&lt;br&gt;Percentage identity: 98&lt;br&gt;Percentage coverage: 14&lt;br&gt;BLAST bit score: 171&lt;br&gt;E-value: 3.7e-40" locus_tag="ID11_RS00215" class="clusterblast-orf" id="dummy-1_h1_2_35"  />
</g>
<g id="a1_0036"  >
<polygon points="600,85 605,80 610,80 610,90 605,90 600,85 " style="fill:#d8154a; stroke-width:1; stroke:black; " description="&lt;b&gt;ID11_RS00210&lt;/b&gt;&lt;br&gt;phospholipid-binding protein MlaC&lt;br&gt;Location: 43590 - 42955&lt;br&gt;&lt;br&gt;&lt;b&gt;BlastP hit with MCIC6FC_008735&lt;/b&gt;&lt;br&gt;Percentage identity: 97&lt;br&gt;Percentage coverage: 30&lt;br&gt;BLAST bit score: 379&lt;br&gt;E-value: 5.3e-103" locus_tag="ID11_RS00210" class="clusterblast-orf" id="dummy-1_h1_2_36"  />
</g>
<g id="a1_0037"  >
<polygon points="610,85 615,80 618,80 618,90 615,90 610,85 " style="fill:#d8154a; stroke-width:1; stroke:black; " description="&lt;b&gt;ID11_RS00205&lt;/b&gt;&lt;br&gt;outer membrane lipid asymmetry maintenance protein MlaD&lt;br&gt;Location: 42939 - 42394&lt;br&gt;&lt;br&gt;&lt;b&gt;BlastP hit with MCIC6FC_008735&lt;/b&gt;&lt;br&gt;Percentage identity: 92&lt;br&gt;Percentage coverage: 22&lt;br&gt;BLAST bit score: 250&lt;br&gt;E-value: 6.3e-64" locus_tag="ID11_RS00205" class="clusterblast-orf" id="dummy-1_h1_2_37"  />
</g>
<g id="a1_0038"  >
<polygon points="618,85 623,80 630,80 630,90 623,90 618,85 " style="fill:#d8154a; stroke-width:1; stroke:black; " description="&lt;b&gt;ID11_RS00200&lt;/b&gt;&lt;br&gt;lipid asymmetry maintenance ABC transporter permease subunit MlaE&lt;br&gt;Location: 42389 - 41607&lt;br&gt;&lt;br&gt;&lt;b&gt;BlastP hit with MCIC6FC_008735&lt;/b&gt;&lt;br&gt;Percentage identity: 91&lt;br&gt;Percentage coverage: 39&lt;br&gt;BLAST bit score: 424&lt;br&gt;E-value: 2.4e-116" locus_tag="ID11_RS00200" class="clusterblast-orf" id="dummy-1_h1_2_38"  />
</g>
<g id="a1_0039"  >
<polygon points="630,85 635,80 643,80 643,90 635,90 630,85 " style="fill:#91d815; stroke-width:1; stroke:black; " description="&lt;b&gt;ID11_RS00195&lt;/b&gt;&lt;br&gt;phospholipid ABC transporter ATP-binding protein MlaF&lt;br&gt;Location: 41602 - 40787&lt;br&gt;&lt;br&gt;&lt;b&gt;BlastP hit with MCIC6FC_008736&lt;/b&gt;&lt;br&gt;Percentage identity: 99&lt;br&gt;Percentage coverage: 100&lt;br&gt;BLAST bit score: 530&lt;br&gt;E-value: 7.6e-149" locus_tag="ID11_RS00195" class="clusterblast-orf" id="dummy-1_h1_2_39"  />
</g>
<g id="a1_0040"  >
<polygon points="642,85 646,80 646,90 642,85 " style="fill:white; stroke-width:1; stroke:black; " description="&lt;b&gt;ID11_RS21410&lt;/b&gt;&lt;br&gt;hypothetical protein&lt;br&gt;Location: 40815 - 40558" locus_tag="ID11_RS21410" class="clusterblast-orf" id="dummy-1_h1_2_40"  />
</g>
<g id="a1_0041"  >
<polygon points="646,90 656,90 661,85 656,80 646,80 646,90 " style="fill:#15d8d8; stroke-width:1; stroke:black; " description="&lt;b&gt;ID11_RS00190&lt;/b&gt;&lt;br&gt;calcium/sodium antiporter&lt;br&gt;Location: 40559 - 39579&lt;br&gt;&lt;br&gt;&lt;b&gt;BlastP hit with MCIC6FC_008737&lt;/b&gt;&lt;br&gt;Percentage identity: 97&lt;br&gt;Percentage coverage: 14&lt;br&gt;BLAST bit score: 580&lt;br&gt;E-value: 9.7e-163" locus_tag="ID11_RS00190" class="clusterblast-orf" id="dummy-1_h1_2_41"  />
</g>
<g id="a1_0042"  >
<polygon points="662,90 672,90 677,85 672,80 662,80 662,90 " style="fill:#15d8d8; stroke-width:1; stroke:black; " description="&lt;b&gt;ID11_RS00185&lt;/b&gt;&lt;br&gt;arabinose-5-phosphate isomerase KdsD&lt;br&gt;Location: 39562 - 38579&lt;br&gt;&lt;br&gt;&lt;b&gt;BlastP hit with MCIC6FC_008737&lt;/b&gt;&lt;br&gt;Percentage identity: 100&lt;br&gt;Percentage coverage: 13&lt;br&gt;BLAST bit score: 621&lt;br&gt;E-value: 2.9e-175" locus_tag="ID11_RS00185" class="clusterblast-orf" id="dummy-1_h1_2_42"  />
</g>
<g id="a1_0043"  >
<polygon points="677,90 681,90 686,85 681,80 677,80 677,90 " style="fill:white; stroke-width:1; stroke:black; " description="&lt;b&gt;ID11_RS00180&lt;/b&gt;&lt;br&gt;3-deoxy-manno-octulosonate-8-phosphatase KdsC&lt;br&gt;Location: 38565 - 37999" locus_tag="ID11_RS00180" class="clusterblast-orf" id="dummy-1_h1_2_43"  />
</g>
<g id="a1_0044"  >
<polygon points="685,90 689,90 694,85 689,80 685,80 685,90 " style="fill:white; stroke-width:1; stroke:black; " description="&lt;b&gt;ID11_RS00175&lt;/b&gt;&lt;br&gt;LPS export ABC transporter periplasmic protein LptC&lt;br&gt;Location: 38002 - 37430" locus_tag="ID11_RS00175" class="clusterblast-orf" id="dummy-1_h1_2_44"  />
</g>
<g id="a1_0045"  >
<polygon points="694,90 697,90 702,85 697,80 694,80 694,90 " style="fill:white; stroke-width:1; stroke:black; " description="&lt;b&gt;ID11_RS00170&lt;/b&gt;&lt;br&gt;lipopolysaccharide ABC transporter substrate-binding protein LptA&lt;br&gt;Location: 37455 - 36904" locus_tag="ID11_RS00170" class="clusterblast-orf" id="dummy-1_h1_2_45"  />
</g>
<g id="a1_0046"  >
<polygon points="702,90 708,90 713,85 708,80 702,80 702,90 " style="fill:white; stroke-width:1; stroke:black; " description="&lt;b&gt;ID11_RS00165&lt;/b&gt;&lt;br&gt;LPS export ABC transporter ATP-binding protein&lt;br&gt;Location: 36898 - 36173" locus_tag="ID11_RS00165" class="clusterblast-orf" id="dummy-1_h1_2_46"  />
</g>
<g id="a1_0047"  >
<polygon points="714,90 731,90 736,85 731,80 714,80 714,90 " style="fill:#15d8d8; stroke-width:1; stroke:black; " description="&lt;b&gt;ID11_RS00160&lt;/b&gt;&lt;br&gt;RNA polymerase factor sigma-54&lt;br&gt;Location: 36124 - 34691&lt;br&gt;&lt;br&gt;&lt;b&gt;BlastP hit with MCIC6FC_008737&lt;/b&gt;&lt;br&gt;Percentage identity: 96&lt;br&gt;Percentage coverage: 16&lt;br&gt;BLAST bit score: 717&lt;br&gt;E-value: 6.6e-204" locus_tag="ID11_RS00160" class="clusterblast-orf" id="dummy-1_h1_2_47"  />
</g>
<g id="a1_0048"  >
<polygon points="736,90 736,90 741,85 736,80 736,80 736,90 " style="fill:white; stroke-width:1; stroke:black; " description="&lt;b&gt;ID11_RS00155&lt;/b&gt;&lt;br&gt;ribosome hibernation promoting factor&lt;br&gt;Location: 34669 - 34382" locus_tag="ID11_RS00155" class="clusterblast-orf" id="dummy-1_h1_2_48"  />
</g>
<g id="a1_0049"  >
<polygon points="743,90 746,90 751,85 746,80 743,80 743,90 " style="fill:white; stroke-width:1; stroke:black; " description="&lt;b&gt;ID11_RS00150&lt;/b&gt;&lt;br&gt;PTS IIA-like nitrogen regulatory protein PtsN&lt;br&gt;Location: 34231 - 33752" locus_tag="ID11_RS00150" class="clusterblast-orf" id="dummy-1_h1_2_49"  />
</g>
<g id="a1_0050"  >
<polygon points="751,90 759,90 764,85 759,80 751,80 751,90 " style="fill:#15d8d8; stroke-width:1; stroke:black; " description="&lt;b&gt;ID11_RS00145&lt;/b&gt;&lt;br&gt;RNase adapter RapZ&lt;br&gt;Location: 33704 - 32850&lt;br&gt;&lt;br&gt;&lt;b&gt;BlastP hit with MCIC6FC_008737&lt;/b&gt;&lt;br&gt;Percentage identity: 100&lt;br&gt;Percentage coverage: 11&lt;br&gt;BLAST bit score: 523&lt;br&gt;E-value: 1.4e-145" locus_tag="ID11_RS00145" class="clusterblast-orf" id="dummy-1_h1_2_50"  />
</g>
<g id="a1_0051"  >
<polygon points="764,90 768,85 764,80 764,90 " style="fill:white; stroke-width:1; stroke:black; " description="&lt;b&gt;ID11_RS00140&lt;/b&gt;&lt;br&gt;PTS phosphocarrier protein NPr&lt;br&gt;Location: 32853 - 32581" locus_tag="ID11_RS00140" class="clusterblast-orf" id="dummy-1_h1_2_51"  />
</g>
<g id="a1_0052"  >
<polygon points="768,85 773,80 780,80 780,90 773,90 768,85 " style="fill:white; stroke-width:1; stroke:black; " description="&lt;b&gt;ID11_RS00135&lt;/b&gt;&lt;br&gt;monofunctional biosynthetic peptidoglycan transglycosylase&lt;br&gt;Location: 32577 - 31858" locus_tag="ID11_RS00135" class="clusterblast-orf" id="dummy-1_h1_2_52"  />
</g>
</svg>
