<svg xmlns="http://www.w3.org/2000/svg" xmlns:xlink="http://www.w3.org/1999/xlink" version="1.1" x="0" y="0" height="230" width="800" viewBox="0 0 800 230" preserveAspectRatio="none"  >
<g label="Query sequence" class="clusterblast-cluster"  >
<text x="5" y="20" class="clusterblast-acc"  >
Query sequence</text>
<line x1="10" y1="35" x2="778.0" y2="35" style="stroke-width:1; stroke:grey; "  />
<polygon points="67,40 67,40 72,35 67,30 67,30 67,40 " style="fill:#d81515; stroke-width:1; stroke:black; " description="&lt;b&gt;MCIC6FC_022236&lt;/b&gt;&lt;br&gt;hypothetical protein&lt;br&gt;Location: 31694 - 32090" locus_tag="MCIC6FC_022236" class="clusterblast-orf" id="dummy-1_q0_0_all"  />
<polygon points="73,35 76,30 76,40 73,35 " style="fill:#6ad815; stroke-width:1; stroke:black; " description="&lt;b&gt;MCIC6FC_022237&lt;/b&gt;&lt;br&gt;hypothetical protein&lt;br&gt;Location: 32123 - 32348" locus_tag="MCIC6FC_022237" class="clusterblast-orf" id="dummy-1_q1_0_all"  />
<polygon points="82,40 152,40 157,35 152,30 82,30 82,40 " style="fill:#15bfd8; stroke-width:1; stroke:black; " description="&lt;b&gt;MCIC6FC_022238&lt;/b&gt;&lt;br&gt;hypothetical protein&lt;br&gt;Location: 32807 - 38607" locus_tag="MCIC6FC_022238" class="clusterblast-orf" id="dummy-1_q2_0_all"  />
<polygon points="158,35 163,30 183,30 183,40 163,40 158,35 " style="fill:#9d15d8; stroke-width:1; stroke:black; " description="&lt;b&gt;MCIC6FC_022239&lt;/b&gt;&lt;br&gt;hypothetical protein&lt;br&gt;Location: 38646 - 40566" locus_tag="MCIC6FC_022239" class="clusterblast-orf" id="dummy-1_q3_0_all"  />
<polygon points="188,35 193,30 205,30 205,40 193,40 188,35 " style="fill:#d84815; stroke-width:1; stroke:black; " description="&lt;b&gt;MCIC6FC_022240&lt;/b&gt;&lt;br&gt;hypothetical protein&lt;br&gt;Location: 40945 - 42244" locus_tag="MCIC6FC_022240" class="clusterblast-orf" id="dummy-1_q4_0_all"  />
<polygon points="208,40 229,40 234,35 229,30 208,30 208,40 " style="fill:#37d815; stroke-width:1; stroke:black; " description="&lt;b&gt;MCIC6FC_022241&lt;/b&gt;&lt;br&gt;hypothetical protein&lt;br&gt;Location: 42488 - 44434" locus_tag="MCIC6FC_022241" class="clusterblast-orf" id="dummy-1_q5_0_all"  />
<polygon points="234,40 262,40 267,35 262,30 234,30 234,40 " style="fill:#158cd8; stroke-width:1; stroke:black; " description="&lt;b&gt;MCIC6FC_022242&lt;/b&gt;&lt;br&gt;hypothetical protein&lt;br&gt;Location: 44506 - 46980" locus_tag="MCIC6FC_022242" class="clusterblast-orf" id="dummy-1_q6_0_all"  />
<polygon points="272,40 275,35 272,30 272,40 " style="fill:#d015d8; stroke-width:1; stroke:black; " description="&lt;b&gt;MCIC6FC_022243&lt;/b&gt;&lt;br&gt;hypothetical protein&lt;br&gt;Location: 47369 - 47636" locus_tag="MCIC6FC_022243" class="clusterblast-orf" id="dummy-1_q7_0_all"  />
<polygon points="278,40 329,40 334,35 329,30 278,30 278,40 " style="fill:#d87b15; stroke-width:1; stroke:black; " description="&lt;b&gt;MCIC6FC_022244&lt;/b&gt;&lt;br&gt;hypothetical protein&lt;br&gt;Location: 47865 - 52152" locus_tag="MCIC6FC_022244" class="clusterblast-orf" id="dummy-1_q8_0_all"  />
<polygon points="335,40 395,40 400,35 395,30 335,30 335,40 " style="fill:#15d826; stroke-width:1; stroke:black; " description="&lt;b&gt;MCIC6FC_022245&lt;/b&gt;&lt;br&gt;hypothetical protein&lt;br&gt;Location: 52203 - 57151" locus_tag="MCIC6FC_022245" class="clusterblast-orf" id="dummy-1_q9_0_all"  />
<polygon points="400,40 402,40 407,35 402,30 400,30 400,40 " style="fill:#1559d8; stroke-width:1; stroke:black; " description="&lt;b&gt;MCIC6FC_022246&lt;/b&gt;&lt;br&gt;hypothetical protein&lt;br&gt;Location: 57154 - 57728" locus_tag="MCIC6FC_022246" class="clusterblast-orf" id="dummy-1_q10_0_all"  />
<polygon points="407,40 417,40 422,35 417,30 407,30 407,40 " style="fill:#d815ae; stroke-width:1; stroke:black; " description="&lt;b&gt;MCIC6FC_022247&lt;/b&gt;&lt;br&gt;hypothetical protein&lt;br&gt;Location: 57748 - 58885" locus_tag="MCIC6FC_022247" class="clusterblast-orf" id="dummy-1_q11_0_all"  />
<polygon points="423,40 449,40 454,35 449,30 423,30 423,40 " style="fill:#d815ae; stroke-width:1; stroke:black; " description="&lt;b&gt;MCIC6FC_022248&lt;/b&gt;&lt;br&gt;hypothetical protein&lt;br&gt;Location: 58922 - 61311" locus_tag="MCIC6FC_022248" class="clusterblast-orf" id="dummy-1_q12_0_all"  />
<polygon points="459,35 464,30 475,30 475,40 464,40 459,35 " style="fill:#d8ae15; stroke-width:1; stroke:black; " description="&lt;b&gt;MCIC6FC_022249&lt;/b&gt;&lt;br&gt;hypothetical protein&lt;br&gt;Location: 61664 - 62953" locus_tag="MCIC6FC_022249" class="clusterblast-orf" id="dummy-1_q13_0_all"  />
<polygon points="477,40 491,40 496,35 491,30 477,30 477,40 " style="fill:#15d859; stroke-width:1; stroke:black; " description="&lt;b&gt;MCIC6FC_022250&lt;/b&gt;&lt;br&gt;hypothetical protein&lt;br&gt;Location: 63108 - 64568" locus_tag="MCIC6FC_022250" class="clusterblast-orf" id="dummy-1_q14_0_all"  />
<polygon points="501,35 506,30 511,30 511,40 506,40 501,35 " style="fill:#1526d8; stroke-width:1; stroke:black; " description="&lt;b&gt;MCIC6FC_022251&lt;/b&gt;&lt;br&gt;hypothetical protein&lt;br&gt;Location: 64918 - 65662" locus_tag="MCIC6FC_022251" class="clusterblast-orf" id="dummy-1_q15_0_all"  />
<polygon points="519,40 565,40 570,35 565,30 519,30 519,40 " style="fill:#d8157b; stroke-width:1; stroke:black; " description="&lt;b&gt;MCIC6FC_022252&lt;/b&gt;&lt;br&gt;hypothetical protein&lt;br&gt;Location: 66305 - 70227" locus_tag="MCIC6FC_022252" class="clusterblast-orf" id="dummy-1_q16_0_all"  />
<polygon points="575,35 580,30 580,30 580,40 580,40 575,35 " style="fill:#d0d815; stroke-width:1; stroke:black; " description="&lt;b&gt;MCIC6FC_022253&lt;/b&gt;&lt;br&gt;hypothetical protein&lt;br&gt;Location: 70588 - 70990" locus_tag="MCIC6FC_022253" class="clusterblast-orf" id="dummy-1_q17_0_all"  />
<polygon points="593,40 617,40 622,35 617,30 593,30 593,40 " style="fill:#15d88c; stroke-width:1; stroke:black; " description="&lt;b&gt;MCIC6FC_022254&lt;/b&gt;&lt;br&gt;hypothetical protein&lt;br&gt;Location: 71980 - 74154" locus_tag="MCIC6FC_022254" class="clusterblast-orf" id="dummy-1_q18_0_all"  />
<polygon points="622,35 627,30 636,30 636,40 627,40 622,35 " style="fill:#3715d8; stroke-width:1; stroke:black; " description="&lt;b&gt;MCIC6FC_022255&lt;/b&gt;&lt;br&gt;hypothetical protein&lt;br&gt;Location: 74193 - 75265" locus_tag="MCIC6FC_022255" class="clusterblast-orf" id="dummy-1_q19_0_all"  />
<polygon points="641,35 646,30 660,30 660,40 646,40 641,35 " style="fill:#d81548; stroke-width:1; stroke:black; " description="&lt;b&gt;MCIC6FC_022256&lt;/b&gt;&lt;br&gt;hypothetical protein&lt;br&gt;Location: 75641 - 77103" locus_tag="MCIC6FC_022256" class="clusterblast-orf" id="dummy-1_q20_0_all"  />
<polygon points="663,35 668,30 672,30 672,40 668,40 663,35 " style="fill:#9dd815; stroke-width:1; stroke:black; " description="&lt;b&gt;MCIC6FC_022257&lt;/b&gt;&lt;br&gt;hypothetical protein&lt;br&gt;Location: 77349 - 78013" locus_tag="MCIC6FC_022257" class="clusterblast-orf" id="dummy-1_q21_0_all"  />
<polygon points="673,35 678,30 703,30 703,40 678,40 673,35 " style="fill:#15d8bf; stroke-width:1; stroke:black; " description="&lt;b&gt;MCIC6FC_022258&lt;/b&gt;&lt;br&gt;hypothetical protein&lt;br&gt;Location: 78075 - 80367" locus_tag="MCIC6FC_022258" class="clusterblast-orf" id="dummy-1_q22_0_all"  />
<polygon points="705,35 710,30 712,30 712,40 710,40 705,35 " style="fill:#6a15d8; stroke-width:1; stroke:black; " description="&lt;b&gt;MCIC6FC_022259&lt;/b&gt;&lt;br&gt;hypothetical protein&lt;br&gt;Location: 80507 - 81083" locus_tag="MCIC6FC_022259" class="clusterblast-orf" id="dummy-1_q23_0_all"  />
</g>
<g label="NZ_JPOT02000001" description="NZ_JPOT02000001 (1586048-1645887): Pantoea agglomerans strain 4 scaffold00001... (68% of genes show similarity), arylpolyene,hserlactone" class="clusterblast-cluster"  >
<text x="5" y="70" class="clusterblast-acc"  >
<a xlink:href="https://antismash-db.secondarymetabolites.org/area.html?record=NZ_JPOT02000001&amp;start=1586048&amp;end=1645887" target="_blank">NZ_JPOT02000001 (1586048-1645887)</a>: Pantoea agglomerans strain 4 scaffold00001... (68% of genes show similarity), arylpolyene,hserlactone</text>
<line x1="10" y1="85" x2="778.0" y2="85" style="stroke-width:1; stroke:grey; "  />
</g>
<g id="a1_000"  >
<polygon points="0,85 5,80 6,80 6,90 5,90 0,85 " style="fill:white; stroke-width:1; stroke:black; " description="&lt;b&gt;IU46_RS07200&lt;/b&gt;&lt;br&gt;pyrimidine utilization flavin reductase protein F&lt;br&gt;Location: 1586093 - 1586608" locus_tag="IU46_RS07200" class="clusterblast-orf" id="dummy-1_h1_10_0"  />
</g>
<g id="a1_001"  >
<polygon points="6,85 11,80 17,80 17,90 11,90 6,85 " style="fill:white; stroke-width:1; stroke:black; " description="&lt;b&gt;IU46_RS07205&lt;/b&gt;&lt;br&gt;pyrimidine utilization protein D&lt;br&gt;Location: 1586628 - 1587437" locus_tag="IU46_RS07205" class="clusterblast-orf" id="dummy-1_h1_10_1"  />
</g>
<g id="a1_002"  >
<polygon points="17,85 22,80 22,80 22,90 22,90 17,85 " style="fill:white; stroke-width:1; stroke:black; " description="&lt;b&gt;IU46_RS07210&lt;/b&gt;&lt;br&gt;pyrimidine utilization protein C&lt;br&gt;Location: 1587437 - 1587832" locus_tag="IU46_RS07210" class="clusterblast-orf" id="dummy-1_h1_10_2"  />
</g>
<g id="a1_003"  >
<polygon points="22,85 27,80 32,80 32,90 27,90 22,85 " style="fill:white; stroke-width:1; stroke:black; " description="&lt;b&gt;IU46_RS07215&lt;/b&gt;&lt;br&gt;pyrimidine utilization protein B&lt;br&gt;Location: 1587853 - 1588566" locus_tag="IU46_RS07215" class="clusterblast-orf" id="dummy-1_h1_10_3"  />
</g>
<g id="a1_004"  >
<polygon points="32,85 37,80 46,80 46,90 37,90 32,85 " style="fill:white; stroke-width:1; stroke:black; " description="&lt;b&gt;IU46_RS07220&lt;/b&gt;&lt;br&gt;pyrimidine utilization protein A&lt;br&gt;Location: 1588566 - 1589657" locus_tag="IU46_RS07220" class="clusterblast-orf" id="dummy-1_h1_10_4"  />
</g>
<g id="a1_005"  >
<polygon points="50,90 53,90 58,85 53,80 50,80 50,90 " style="fill:white; stroke-width:1; stroke:black; " description="&lt;b&gt;IU46_RS07225&lt;/b&gt;&lt;br&gt;HTH-type transcriptional regulator RutR&lt;br&gt;Location: 1589964 - 1590599" locus_tag="IU46_RS07225" class="clusterblast-orf" id="dummy-1_h1_10_5"  />
</g>
<g id="a1_006"  >
<polygon points="59,90 67,90 72,85 67,80 59,80 59,90 " style="fill:white; stroke-width:1; stroke:black; " description="&lt;b&gt;IU46_RS07230&lt;/b&gt;&lt;br&gt;metal-dependent hydrolase&lt;br&gt;Location: 1590638 - 1591612" locus_tag="IU46_RS07230" class="clusterblast-orf" id="dummy-1_h1_10_6"  />
</g>
<g id="a1_007"  >
<polygon points="72,85 77,80 90,80 90,90 77,90 72,85 " style="fill:white; stroke-width:1; stroke:black; " description="&lt;b&gt;IU46_RS07235&lt;/b&gt;&lt;br&gt;D-serine/D-alanine/glycine transporter&lt;br&gt;Location: 1591659 - 1593053" locus_tag="IU46_RS07235" class="clusterblast-orf" id="dummy-1_h1_10_7"  />
</g>
<g id="a1_008"  >
<polygon points="94,90 98,90 103,85 98,80 94,80 94,90 " style="fill:white; stroke-width:1; stroke:black; " description="&lt;b&gt;IU46_RS07240&lt;/b&gt;&lt;br&gt;extensin family protein&lt;br&gt;Location: 1593340 - 1594035" locus_tag="IU46_RS07240" class="clusterblast-orf" id="dummy-1_h1_10_8"  />
</g>
<g id="a1_009"  >
<polygon points="118,90 123,90 128,85 123,80 118,80 118,90 " style="fill:white; stroke-width:1; stroke:black; " description="&lt;b&gt;IU46_RS07245&lt;/b&gt;&lt;br&gt;transcriptional regulator SdiA&lt;br&gt;Location: 1595204 - 1595926" locus_tag="IU46_RS07245" class="clusterblast-orf" id="dummy-1_h1_10_9"  />
</g>
<g id="a1_0010"  >
<polygon points="130,90 133,90 138,85 133,80 130,80 130,90 " style="fill:#d81515; stroke-width:1; stroke:black; " description="&lt;b&gt;IU46_RS07250&lt;/b&gt;&lt;br&gt;autoinducer synthase&lt;br&gt;Location: 1596049 - 1596660&lt;br&gt;&lt;br&gt;&lt;b&gt;BlastP hit with MCIC6FC_022236&lt;/b&gt;&lt;br&gt;Percentage identity: 98&lt;br&gt;Percentage coverage: 100&lt;br&gt;BLAST bit score: 265&lt;br&gt;E-value: 3.8e-69" locus_tag="IU46_RS07250" class="clusterblast-orf" id="dummy-1_h1_10_10"  />
</g>
<g id="a1_0011"  >
<polygon points="138,85 141,80 141,90 138,85 " style="fill:#6ad815; stroke-width:1; stroke:black; " description="&lt;b&gt;IU46_RS07255&lt;/b&gt;&lt;br&gt;DUF2594 family protein&lt;br&gt;Location: 1596696 - 1596920&lt;br&gt;&lt;br&gt;&lt;b&gt;BlastP hit with MCIC6FC_022237&lt;/b&gt;&lt;br&gt;Percentage identity: 88&lt;br&gt;Percentage coverage: 114&lt;br&gt;BLAST bit score: 117&lt;br&gt;E-value: 4.8e-25" locus_tag="IU46_RS07255" class="clusterblast-orf" id="dummy-1_h1_10_11"  />
</g>
<g id="a1_0012"  >
<polygon points="147,90 150,90 155,85 150,80 147,80 147,90 " style="fill:#15bfd8; stroke-width:1; stroke:black; " description="&lt;b&gt;IU46_RS07260&lt;/b&gt;&lt;br&gt;UvrY/SirA/GacA family response regulator transcription factor&lt;br&gt;Location: 1597353 - 1598012&lt;br&gt;&lt;br&gt;&lt;b&gt;BlastP hit with MCIC6FC_022238&lt;/b&gt;&lt;br&gt;Percentage identity: 90&lt;br&gt;Percentage coverage: 13&lt;br&gt;BLAST bit score: 331&lt;br&gt;E-value: 4.6e-88" locus_tag="IU46_RS07260" class="clusterblast-orf" id="dummy-1_h1_10_12"  />
</g>
<g id="a1_0013"  >
<polygon points="155,90 174,90 179,85 174,80 155,80 155,90 " style="fill:#15bfd8; stroke-width:1; stroke:black; " description="&lt;b&gt;IU46_RS07265&lt;/b&gt;&lt;br&gt;excinuclease ABC subunit UvrC&lt;br&gt;Location: 1598005 - 1599837&lt;br&gt;&lt;br&gt;&lt;b&gt;BlastP hit with MCIC6FC_022238&lt;/b&gt;&lt;br&gt;Percentage identity: 98&lt;br&gt;Percentage coverage: 43&lt;br&gt;BLAST bit score: 1182&lt;br&gt;E-value: 0.0" locus_tag="IU46_RS07265" class="clusterblast-orf" id="dummy-1_h1_10_13"  />
</g>
<g id="a1_0014"  >
<polygon points="180,90 182,90 187,85 182,80 180,80 180,90 " style="fill:#15bfd8; stroke-width:1; stroke:black; " description="&lt;b&gt;IU46_RS07270&lt;/b&gt;&lt;br&gt;CDP-diacylglycerol--glycerol-3-phosphate 3-phosphatidyltransferase&lt;br&gt;Location: 1599907 - 1600455&lt;br&gt;&lt;br&gt;&lt;b&gt;BlastP hit with MCIC6FC_022238&lt;/b&gt;&lt;br&gt;Percentage identity: 94&lt;br&gt;Percentage coverage: 11&lt;br&gt;BLAST bit score: 292&lt;br&gt;E-value: 1.8e-76" locus_tag="IU46_RS07270" class="clusterblast-orf" id="dummy-1_h1_10_14"  />
</g>
<g id="a1_0015"  >
<polygon points="195,85 198,80 198,90 195,85 " style="fill:white; stroke-width:1; stroke:black; " description="&lt;b&gt;IU46_RS07290&lt;/b&gt;&lt;br&gt;hypothetical protein&lt;br&gt;Location: 1601028 - 1601285" locus_tag="IU46_RS07290" class="clusterblast-orf" id="dummy-1_h1_10_15"  />
</g>
<g id="a1_0016"  >
<polygon points="204,90 210,90 215,85 210,80 204,80 204,90 " style="fill:#15bfd8; stroke-width:1; stroke:black; " description="&lt;b&gt;IU46_RS07295&lt;/b&gt;&lt;br&gt;substrate-binding domain-containing protein&lt;br&gt;Location: 1601750 - 1602601&lt;br&gt;&lt;br&gt;&lt;b&gt;BlastP hit with MCIC6FC_022238&lt;/b&gt;&lt;br&gt;Percentage identity: 75&lt;br&gt;Percentage coverage: 17&lt;br&gt;BLAST bit score: 344&lt;br&gt;E-value: 4e-92" locus_tag="IU46_RS07295" class="clusterblast-orf" id="dummy-1_h1_10_16"  />
</g>
<g id="a1_0017"  >
<polygon points="220,90 223,85 220,80 220,90 " style="fill:white; stroke-width:1; stroke:black; " description="&lt;b&gt;IU46_RS07300&lt;/b&gt;&lt;br&gt;hypothetical protein&lt;br&gt;Location: 1602994 - 1603194" locus_tag="IU46_RS07300" class="clusterblast-orf" id="dummy-1_h1_10_17"  />
</g>
<g id="a1_0018"  >
<polygon points="223,85 228,80 243,80 243,90 228,90 223,85 " style="fill:#9d15d8; stroke-width:1; stroke:black; " description="&lt;b&gt;IU46_RS07305&lt;/b&gt;&lt;br&gt;SulP family inorganic anion transporter&lt;br&gt;Location: 1603229 - 1604734&lt;br&gt;&lt;br&gt;&lt;b&gt;BlastP hit with MCIC6FC_022239&lt;/b&gt;&lt;br&gt;Percentage identity: 96&lt;br&gt;Percentage coverage: 87&lt;br&gt;BLAST bit score: 895&lt;br&gt;E-value: 3.3e-258" locus_tag="IU46_RS07305" class="clusterblast-orf" id="dummy-1_h1_10_18"  />
</g>
<g id="a1_0019"  >
<polygon points="245,85 248,80 248,90 245,85 " style="fill:#9d15d8; stroke-width:1; stroke:black; " description="&lt;b&gt;IU46_RS07310&lt;/b&gt;&lt;br&gt;hypothetical protein&lt;br&gt;Location: 1604874 - 1605134&lt;br&gt;&lt;br&gt;&lt;b&gt;BlastP hit with MCIC6FC_022239&lt;/b&gt;&lt;br&gt;Percentage identity: 96&lt;br&gt;Percentage coverage: 13&lt;br&gt;BLAST bit score: 143&lt;br&gt;E-value: 9.5e-32" locus_tag="IU46_RS07310" class="clusterblast-orf" id="dummy-1_h1_10_19"  />
</g>
<g id="a1_0020"  >
<polygon points="253,85 258,80 259,80 259,90 258,90 253,85 " style="fill:#d84815; stroke-width:1; stroke:black; " description="&lt;b&gt;IU46_RS07315&lt;/b&gt;&lt;br&gt;DUF2000 domain-containing protein&lt;br&gt;Location: 1605525 - 1605932&lt;br&gt;&lt;br&gt;&lt;b&gt;BlastP hit with MCIC6FC_022240&lt;/b&gt;&lt;br&gt;Percentage identity: 83&lt;br&gt;Percentage coverage: 25&lt;br&gt;BLAST bit score: 155&lt;br&gt;E-value: 1.5e-35" locus_tag="IU46_RS07315" class="clusterblast-orf" id="dummy-1_h1_10_20"  />
</g>
<g id="a1_0021"  >
<polygon points="259,85 264,80 270,80 270,90 264,90 259,85 " style="fill:#d84815; stroke-width:1; stroke:black; " description="&lt;b&gt;IU46_RS07320&lt;/b&gt;&lt;br&gt;AraC family transcriptional regulator&lt;br&gt;Location: 1605974 - 1606822&lt;br&gt;&lt;br&gt;&lt;b&gt;BlastP hit with MCIC6FC_022240&lt;/b&gt;&lt;br&gt;Percentage identity: 91&lt;br&gt;Percentage coverage: 73&lt;br&gt;BLAST bit score: 514&lt;br&gt;E-value: 1.3e-143" locus_tag="IU46_RS07320" class="clusterblast-orf" id="dummy-1_h1_10_21"  />
</g>
<g id="a1_0022"  >
<polygon points="272,90 273,90 278,85 273,80 272,80 272,90 " style="fill:#37d815; stroke-width:1; stroke:black; " description="&lt;b&gt;IU46_RS07325&lt;/b&gt;&lt;br&gt;MarR family transcriptional regulator&lt;br&gt;Location: 1606968 - 1607399&lt;br&gt;&lt;br&gt;&lt;b&gt;BlastP hit with MCIC6FC_022241&lt;/b&gt;&lt;br&gt;Percentage identity: 97&lt;br&gt;Percentage coverage: 16&lt;br&gt;BLAST bit score: 184&lt;br&gt;E-value: 3.1e-44" locus_tag="IU46_RS07325" class="clusterblast-orf" id="dummy-1_h1_10_22"  />
</g>
<g id="a1_0023"  >
<polygon points="278,90 295,90 300,85 295,80 278,80 278,90 " style="fill:#37d815; stroke-width:1; stroke:black; " description="&lt;b&gt;IU46_RS07330&lt;/b&gt;&lt;br&gt;MFS transporter&lt;br&gt;Location: 1607402 - 1609087&lt;br&gt;&lt;br&gt;&lt;b&gt;BlastP hit with MCIC6FC_022241&lt;/b&gt;&lt;br&gt;Percentage identity: 97&lt;br&gt;Percentage coverage: 81&lt;br&gt;BLAST bit score: 961&lt;br&gt;E-value: 4.1e-278" locus_tag="IU46_RS07330" class="clusterblast-orf" id="dummy-1_h1_10_23"  />
</g>
<g id="a1_0024"  >
<polygon points="300,90 309,90 314,85 309,80 300,80 300,90 " style="fill:#158cd8; stroke-width:1; stroke:black; " description="&lt;b&gt;IU46_RS07335&lt;/b&gt;&lt;br&gt;HlyD family secretion protein&lt;br&gt;Location: 1609084 - 1610178&lt;br&gt;&lt;br&gt;&lt;b&gt;BlastP hit with MCIC6FC_022242&lt;/b&gt;&lt;br&gt;Percentage identity: 93&lt;br&gt;Percentage coverage: 47&lt;br&gt;BLAST bit score: 604&lt;br&gt;E-value: 1.2e-170" locus_tag="IU46_RS07335" class="clusterblast-orf" id="dummy-1_h1_10_24"  />
</g>
<g id="a1_0025"  >
<polygon points="314,90 327,90 332,85 327,80 314,80 314,90 " style="fill:#158cd8; stroke-width:1; stroke:black; " description="&lt;b&gt;IU46_RS07340&lt;/b&gt;&lt;br&gt;efflux transporter outer membrane subunit&lt;br&gt;Location: 1610178 - 1611560&lt;br&gt;&lt;br&gt;&lt;b&gt;BlastP hit with MCIC6FC_022242&lt;/b&gt;&lt;br&gt;Percentage identity: 87&lt;br&gt;Percentage coverage: 59&lt;br&gt;BLAST bit score: 735&lt;br&gt;E-value: 4.5e-210" locus_tag="IU46_RS07340" class="clusterblast-orf" id="dummy-1_h1_10_25"  />
</g>
<g id="a1_0026"  >
<polygon points="336,90 336,90 341,85 336,80 336,80 336,90 " style="fill:#d015d8; stroke-width:1; stroke:black; " description="&lt;b&gt;IU46_RS07345&lt;/b&gt;&lt;br&gt;hypothetical protein&lt;br&gt;Location: 1611827 - 1612213&lt;br&gt;&lt;br&gt;&lt;b&gt;BlastP hit with MCIC6FC_022243&lt;/b&gt;&lt;br&gt;Percentage identity: 98&lt;br&gt;Percentage coverage: 100&lt;br&gt;BLAST bit score: 174&lt;br&gt;E-value: 5.9e-42" locus_tag="IU46_RS07345" class="clusterblast-orf" id="dummy-1_h1_10_26"  />
</g>
<g id="a1_0027"  >
<polygon points="344,90 348,90 353,85 348,80 344,80 344,90 " style="fill:#d87b15; stroke-width:1; stroke:black; " description="&lt;b&gt;IU46_RS07350&lt;/b&gt;&lt;br&gt;beta-ketoacyl synthase chain length factor&lt;br&gt;Location: 1612444 - 1613175&lt;br&gt;&lt;br&gt;&lt;b&gt;BlastP hit with MCIC6FC_022244&lt;/b&gt;&lt;br&gt;Percentage identity: 84&lt;br&gt;Percentage coverage: 18&lt;br&gt;BLAST bit score: 396&lt;br&gt;E-value: 1.4e-107" locus_tag="IU46_RS07350" class="clusterblast-orf" id="dummy-1_h1_10_27"  />
</g>
<g id="a1_0028"  >
<polygon points="353,90 359,90 364,85 359,80 353,80 353,90 " style="fill:#d87b15; stroke-width:1; stroke:black; " description="&lt;b&gt;IU46_RS07355&lt;/b&gt;&lt;br&gt;1-acyl-sn-glycerol-3-phosphate acyltransferase&lt;br&gt;Location: 1613168 - 1613968&lt;br&gt;&lt;br&gt;&lt;b&gt;BlastP hit with MCIC6FC_022244&lt;/b&gt;&lt;br&gt;Percentage identity: 97&lt;br&gt;Percentage coverage: 20&lt;br&gt;BLAST bit score: 522&lt;br&gt;E-value: 1.7e-145" locus_tag="IU46_RS07355" class="clusterblast-orf" id="dummy-1_h1_10_28"  />
</g>
<g id="a1_0029"  >
<polygon points="364,90 367,85 364,80 364,90 " style="fill:white; stroke-width:1; stroke:black; " description="&lt;b&gt;IU46_RS07360&lt;/b&gt;&lt;br&gt;acyl carrier protein&lt;br&gt;Location: 1613982 - 1614239" locus_tag="IU46_RS07360" class="clusterblast-orf" id="dummy-1_h1_10_29"  />
</g>
<g id="a1_0030"  >
<polygon points="367,90 371,85 367,80 367,90 " style="fill:white; stroke-width:1; stroke:black; " description="&lt;b&gt;IU46_RS07365&lt;/b&gt;&lt;br&gt;acyl carrier protein&lt;br&gt;Location: 1614256 - 1614510" locus_tag="IU46_RS07365" class="clusterblast-orf" id="dummy-1_h1_10_30"  />
</g>
<g id="a1_0031"  >
<polygon points="371,90 373,90 378,85 373,80 371,80 371,90 " style="fill:#d87b15; stroke-width:1; stroke:black; " description="&lt;b&gt;IU46_RS07370&lt;/b&gt;&lt;br&gt;DNA gyrase subunit B&lt;br&gt;Location: 1614518 - 1615081&lt;br&gt;&lt;br&gt;&lt;b&gt;BlastP hit with MCIC6FC_022244&lt;/b&gt;&lt;br&gt;Percentage identity: 83&lt;br&gt;Percentage coverage: 11&lt;br&gt;BLAST bit score: 237&lt;br&gt;E-value: 6.4e-60" locus_tag="IU46_RS07370" class="clusterblast-orf" id="dummy-1_h1_10_31"  />
</g>
<g id="a1_0032"  >
<polygon points="378,90 390,90 395,85 390,80 378,80 378,90 " style="fill:#d87b15; stroke-width:1; stroke:black; " description="&lt;b&gt;IU46_RS07375&lt;/b&gt;&lt;br&gt;acyl-CoA synthetase&lt;br&gt;Location: 1615078 - 1616397&lt;br&gt;&lt;br&gt;&lt;b&gt;BlastP hit with MCIC6FC_022244&lt;/b&gt;&lt;br&gt;Percentage identity: 87&lt;br&gt;Percentage coverage: 32&lt;br&gt;BLAST bit score: 750&lt;br&gt;E-value: 2.2e-214" locus_tag="IU46_RS07375" class="clusterblast-orf" id="dummy-1_h1_10_32"  />
</g>
<g id="a1_0033"  >
<polygon points="395,90 395,90 400,85 395,80 395,80 395,90 " style="fill:white; stroke-width:1; stroke:black; " description="&lt;b&gt;IU46_RS07380&lt;/b&gt;&lt;br&gt;hydroxymyristoyl-ACP dehydratase&lt;br&gt;Location: 1616384 - 1616731" locus_tag="IU46_RS07380" class="clusterblast-orf" id="dummy-1_h1_10_33"  />
</g>
<g id="a1_0034"  >
<polygon points="400,90 417,90 422,85 417,80 400,80 400,90 " style="fill:#15d826; stroke-width:1; stroke:black; " description="&lt;b&gt;IU46_RS07385&lt;/b&gt;&lt;br&gt;glycosyltransferase family 2 protein&lt;br&gt;Location: 1616725 - 1618434&lt;br&gt;&lt;br&gt;&lt;b&gt;BlastP hit with MCIC6FC_022245&lt;/b&gt;&lt;br&gt;Percentage identity: 96&lt;br&gt;Percentage coverage: 34&lt;br&gt;BLAST bit score: 1027&lt;br&gt;E-value: 1.5e-297" locus_tag="IU46_RS07385" class="clusterblast-orf" id="dummy-1_h1_10_34"  />
</g>
<g id="a1_0035"  >
<polygon points="422,90 422,90 427,85 422,80 422,80 422,90 " style="fill:white; stroke-width:1; stroke:black; " description="&lt;b&gt;IU46_RS07390&lt;/b&gt;&lt;br&gt;acyl-CoA thioesterase&lt;br&gt;Location: 1618427 - 1618840" locus_tag="IU46_RS07390" class="clusterblast-orf" id="dummy-1_h1_10_35"  />
</g>
<g id="a1_0036"  >
<polygon points="427,90 430,90 435,85 430,80 427,80 427,90 " style="fill:white; stroke-width:1; stroke:black; " description="&lt;b&gt;IU46_RS07395&lt;/b&gt;&lt;br&gt;outer membrane lipoprotein carrier protein LolA&lt;br&gt;Location: 1618834 - 1619442" locus_tag="IU46_RS07395" class="clusterblast-orf" id="dummy-1_h1_10_36"  />
</g>
<g id="a1_0037"  >
<polygon points="435,90 460,90 465,85 460,80 435,80 435,90 " style="fill:#15d826; stroke-width:1; stroke:black; " description="&lt;b&gt;IU46_RS07400&lt;/b&gt;&lt;br&gt;MMPL family transporter&lt;br&gt;Location: 1619429 - 1621735&lt;br&gt;&lt;br&gt;&lt;b&gt;BlastP hit with MCIC6FC_022245&lt;/b&gt;&lt;br&gt;Percentage identity: 96&lt;br&gt;Percentage coverage: 44&lt;br&gt;BLAST bit score: 1196&lt;br&gt;E-value: 0.0" locus_tag="IU46_RS07400" class="clusterblast-orf" id="dummy-1_h1_10_37"  />
</g>
<g id="a1_0038"  >
<polygon points="465,90 467,90 472,85 467,80 465,80 465,90 " style="fill:#1559d8; stroke-width:1; stroke:black; " description="&lt;b&gt;IU46_RS07405&lt;/b&gt;&lt;br&gt;DUF3261 domain-containing protein&lt;br&gt;Location: 1621732 - 1622304&lt;br&gt;&lt;br&gt;&lt;b&gt;BlastP hit with MCIC6FC_022246&lt;/b&gt;&lt;br&gt;Percentage identity: 87&lt;br&gt;Percentage coverage: 110&lt;br&gt;BLAST bit score: 310&lt;br&gt;E-value: 1e-82" locus_tag="IU46_RS07405" class="clusterblast-orf" id="dummy-1_h1_10_38"  />
</g>
<g id="a1_0039"  >
<polygon points="472,90 483,90 488,85 483,80 472,80 472,90 " style="fill:#d815ae; stroke-width:1; stroke:black; " description="&lt;b&gt;IU46_RS07410&lt;/b&gt;&lt;br&gt;beta-ketoacyl-[acyl-carrier-protein] synthase family protein&lt;br&gt;Location: 1622301 - 1623461&lt;br&gt;&lt;br&gt;&lt;b&gt;BlastP hit with MCIC6FC_022247&lt;/b&gt;&lt;br&gt;Percentage identity: 93&lt;br&gt;Percentage coverage: 99&lt;br&gt;BLAST bit score: 683&lt;br&gt;E-value: 1.7e-194" locus_tag="IU46_RS07410" class="clusterblast-orf" id="dummy-1_h1_10_39"  />
</g>
<g id="a1_0040"  >
<polygon points="487,90 489,90 494,85 489,80 487,80 487,90 " style="fill:#d815ae; stroke-width:1; stroke:black; " description="&lt;b&gt;IU46_RS07415&lt;/b&gt;&lt;br&gt;3-hydroxy-fatty acyl-ACP dehydratase&lt;br&gt;Location: 1623451 - 1623927&lt;br&gt;&lt;br&gt;&lt;b&gt;BlastP hit with MCIC6FC_022248&lt;/b&gt;&lt;br&gt;Percentage identity: 67&lt;br&gt;Percentage coverage: 19&lt;br&gt;BLAST bit score: 176&lt;br&gt;E-value: 9.6e-42" locus_tag="IU46_RS07415" class="clusterblast-orf" id="dummy-1_h1_10_40"  />
</g>
<g id="a1_0041"  >
<polygon points="494,90 498,90 503,85 498,80 494,80 494,90 " style="fill:#d815ae; stroke-width:1; stroke:black; " description="&lt;b&gt;IU46_RS07420&lt;/b&gt;&lt;br&gt;3-oxoacyl-ACP reductase FabG&lt;br&gt;Location: 1623924 - 1624655&lt;br&gt;&lt;br&gt;&lt;b&gt;BlastP hit with MCIC6FC_022248&lt;/b&gt;&lt;br&gt;Percentage identity: 96&lt;br&gt;Percentage coverage: 31&lt;br&gt;BLAST bit score: 417&lt;br&gt;E-value: 2.5e-114" locus_tag="IU46_RS07420" class="clusterblast-orf" id="dummy-1_h1_10_41"  />
</g>
<g id="a1_0042"  >
<polygon points="503,90 514,90 519,85 514,80 503,80 503,90 " style="fill:#d815ae; stroke-width:1; stroke:black; " description="&lt;b&gt;IU46_RS07425&lt;/b&gt;&lt;br&gt;beta-ketoacyl-ACP synthase&lt;br&gt;Location: 1624655 - 1625887&lt;br&gt;&lt;br&gt;&lt;b&gt;BlastP hit with MCIC6FC_022247&lt;/b&gt;&lt;br&gt;Percentage identity: 35&lt;br&gt;Percentage coverage: 69&lt;br&gt;BLAST bit score: 133&lt;br&gt;E-value: 6.4e-29&lt;br&gt;&lt;br&gt;&lt;b&gt;BlastP hit with MCIC6FC_022248&lt;/b&gt;&lt;br&gt;Percentage identity: 88&lt;br&gt;Percentage coverage: 58&lt;br&gt;BLAST bit score: 724&lt;br&gt;E-value: 1.2e-206" locus_tag="IU46_RS07425" class="clusterblast-orf" id="dummy-1_h1_10_42"  />
</g>
<g id="a1_0043"  >
<polygon points="525,85 530,80 541,80 541,90 530,90 525,85 " style="fill:#d8ae15; stroke-width:1; stroke:black; " description="&lt;b&gt;IU46_RS07430&lt;/b&gt;&lt;br&gt;beta-glucosidase&lt;br&gt;Location: 1626365 - 1627528&lt;br&gt;&lt;br&gt;&lt;b&gt;BlastP hit with MCIC6FC_022249&lt;/b&gt;&lt;br&gt;Percentage identity: 90&lt;br&gt;Percentage coverage: 96&lt;br&gt;BLAST bit score: 699&lt;br&gt;E-value: 1.8e-199" locus_tag="IU46_RS07430" class="clusterblast-orf" id="dummy-1_h1_10_43"  />
</g>
<g id="a1_0044"  >
<polygon points="543,90 557,90 562,85 557,80 543,80 543,90 " style="fill:#15d859; stroke-width:1; stroke:black; " description="&lt;b&gt;IU46_RS07435&lt;/b&gt;&lt;br&gt;phospholipase D family protein&lt;br&gt;Location: 1627684 - 1629144&lt;br&gt;&lt;br&gt;&lt;b&gt;BlastP hit with MCIC6FC_022250&lt;/b&gt;&lt;br&gt;Percentage identity: 94&lt;br&gt;Percentage coverage: 103&lt;br&gt;BLAST bit score: 912&lt;br&gt;E-value: 2.1e-263" locus_tag="IU46_RS07435" class="clusterblast-orf" id="dummy-1_h1_10_44"  />
</g>
<g id="a1_0045"  >
<polygon points="566,85 571,80 580,80 580,90 571,90 566,85 " style="fill:#1526d8; stroke-width:1; stroke:black; " description="&lt;b&gt;IU46_RS07440&lt;/b&gt;&lt;br&gt;glucans biosynthesis protein MdoC&lt;br&gt;Location: 1629441 - 1630574&lt;br&gt;&lt;br&gt;&lt;b&gt;BlastP hit with MCIC6FC_022251&lt;/b&gt;&lt;br&gt;Percentage identity: 93&lt;br&gt;Percentage coverage: 98&lt;br&gt;BLAST bit score: 477&lt;br&gt;E-value: 9.1e-133" locus_tag="IU46_RS07440" class="clusterblast-orf" id="dummy-1_h1_10_45"  />
</g>
<g id="a1_0046"  >
<polygon points="584,90 599,90 604,85 599,80 584,80 584,90 " style="fill:#d8157b; stroke-width:1; stroke:black; " description="&lt;b&gt;IU46_RS07445&lt;/b&gt;&lt;br&gt;glucan biosynthesis protein G&lt;br&gt;Location: 1630846 - 1632378&lt;br&gt;&lt;br&gt;&lt;b&gt;BlastP hit with MCIC6FC_022252&lt;/b&gt;&lt;br&gt;Percentage identity: 99&lt;br&gt;Percentage coverage: 35&lt;br&gt;BLAST bit score: 906&lt;br&gt;E-value: 4e-261" locus_tag="IU46_RS07445" class="clusterblast-orf" id="dummy-1_h1_10_46"  />
</g>
<g id="a1_0047"  >
<polygon points="604,90 632,90 637,85 632,80 604,80 604,90 " style="fill:#d8157b; stroke-width:1; stroke:black; " description="&lt;b&gt;IU46_RS07450&lt;/b&gt;&lt;br&gt;glucans biosynthesis glucosyltransferase MdoH&lt;br&gt;Location: 1632371 - 1634923&lt;br&gt;&lt;br&gt;&lt;b&gt;BlastP hit with MCIC6FC_022252&lt;/b&gt;&lt;br&gt;Percentage identity: 95&lt;br&gt;Percentage coverage: 67&lt;br&gt;BLAST bit score: 1581&lt;br&gt;E-value: 0.0" locus_tag="IU46_RS07450" class="clusterblast-orf" id="dummy-1_h1_10_47"  />
</g>
<g id="a1_0048"  >
<polygon points="639,90 642,85 639,80 639,90 " style="fill:white; stroke-width:1; stroke:black; " description="&lt;b&gt;IU46_RS07455&lt;/b&gt;&lt;br&gt;YceK/YidQ family lipoprotein&lt;br&gt;Location: 1635058 - 1635297" locus_tag="IU46_RS07455" class="clusterblast-orf" id="dummy-1_h1_10_48"  />
</g>
<g id="a1_0049"  >
<polygon points="642,85 647,80 647,80 647,90 647,90 642,85 " style="fill:#d0d815; stroke-width:1; stroke:black; " description="&lt;b&gt;IU46_RS07460&lt;/b&gt;&lt;br&gt;SecY/SecA suppressor protein&lt;br&gt;Location: 1635288 - 1635689&lt;br&gt;&lt;br&gt;&lt;b&gt;BlastP hit with MCIC6FC_022253&lt;/b&gt;&lt;br&gt;Percentage identity: 92&lt;br&gt;Percentage coverage: 100&lt;br&gt;BLAST bit score: 250&lt;br&gt;E-value: 1.3e-64" locus_tag="IU46_RS07460" class="clusterblast-orf" id="dummy-1_h1_10_49"  />
</g>
<g id="a1_0050"  >
<polygon points="659,85 664,80 671,80 671,90 664,90 659,85 " style="fill:white; stroke-width:1; stroke:black; " description="&lt;b&gt;IU46_RS07470&lt;/b&gt;&lt;br&gt;LpxL/LpxP family Kdo(2)-lipid IV(A) lauroyl/palmitoleoyl acyltransferasee&lt;br&gt;Location: 1636616 - 1637539" locus_tag="IU46_RS07470" class="clusterblast-orf" id="dummy-1_h1_10_50"  />
</g>
<g id="a1_0051"  >
<polygon points="675,90 683,90 688,85 683,80 675,80 675,90 " style="fill:#15d88c; stroke-width:1; stroke:black; " description="&lt;b&gt;IU46_RS07475&lt;/b&gt;&lt;br&gt;rhodanese-related sulfurtransferase&lt;br&gt;Location: 1637792 - 1638841&lt;br&gt;&lt;br&gt;&lt;b&gt;BlastP hit with MCIC6FC_022254&lt;/b&gt;&lt;br&gt;Percentage identity: 98&lt;br&gt;Percentage coverage: 72&lt;br&gt;BLAST bit score: 708&lt;br&gt;E-value: 6.2e-202" locus_tag="IU46_RS07475" class="clusterblast-orf" id="dummy-1_h1_10_51"  />
</g>
<g id="a1_0052"  >
<polygon points="689,85 694,80 696,80 696,90 694,90 689,85 " style="fill:#3715d8; stroke-width:1; stroke:black; " description="&lt;b&gt;IU46_RS07480&lt;/b&gt;&lt;br&gt;YceI family protein&lt;br&gt;Location: 1638881 - 1639456&lt;br&gt;&lt;br&gt;&lt;b&gt;BlastP hit with MCIC6FC_022255&lt;/b&gt;&lt;br&gt;Percentage identity: 96&lt;br&gt;Percentage coverage: 55&lt;br&gt;BLAST bit score: 371&lt;br&gt;E-value: 9.8e-101" locus_tag="IU46_RS07480" class="clusterblast-orf" id="dummy-1_h1_10_52"  />
</g>
<g id="a1_0053"  >
<polygon points="696,85 701,80 704,80 704,90 701,90 696,85 " style="fill:#3715d8; stroke-width:1; stroke:black; " description="&lt;b&gt;IU46_RS07485&lt;/b&gt;&lt;br&gt;cytochrome b&lt;br&gt;Location: 1639458 - 1640033&lt;br&gt;&lt;br&gt;&lt;b&gt;BlastP hit with MCIC6FC_022255&lt;/b&gt;&lt;br&gt;Percentage identity: 94&lt;br&gt;Percentage coverage: 44&lt;br&gt;BLAST bit score: 286&lt;br&gt;E-value: 3.2e-75" locus_tag="IU46_RS07485" class="clusterblast-orf" id="dummy-1_h1_10_53"  />
</g>
<g id="a1_0054"  >
<polygon points="708,85 713,80 722,80 722,90 713,90 708,85 " style="fill:#d81548; stroke-width:1; stroke:black; " description="&lt;b&gt;IU46_RS07490&lt;/b&gt;&lt;br&gt;N-methyl-L-tryptophan oxidase&lt;br&gt;Location: 1640329 - 1641441&lt;br&gt;&lt;br&gt;&lt;b&gt;BlastP hit with MCIC6FC_022256&lt;/b&gt;&lt;br&gt;Percentage identity: 96&lt;br&gt;Percentage coverage: 86&lt;br&gt;BLAST bit score: 750&lt;br&gt;E-value: 7.4e-215" locus_tag="IU46_RS07490" class="clusterblast-orf" id="dummy-1_h1_10_54"  />
</g>
<g id="a1_0055"  >
<polygon points="724,85 727,80 727,90 724,85 " style="fill:#d81548; stroke-width:1; stroke:black; " description="&lt;b&gt;IU46_RS07495&lt;/b&gt;&lt;br&gt;biofilm formation regulator BssS&lt;br&gt;Location: 1641536 - 1641790&lt;br&gt;&lt;br&gt;&lt;b&gt;BlastP hit with MCIC6FC_022256&lt;/b&gt;&lt;br&gt;Percentage identity: 91&lt;br&gt;Percentage coverage: 15&lt;br&gt;BLAST bit score: 124&lt;br&gt;E-value: 2e-26" locus_tag="IU46_RS07495" class="clusterblast-orf" id="dummy-1_h1_10_55"  />
</g>
<g id="a1_0056"  >
<polygon points="730,85 734,80 734,90 730,85 " style="fill:#9dd815; stroke-width:1; stroke:black; " description="&lt;b&gt;IU46_RS07500&lt;/b&gt;&lt;br&gt;hypothetical protein&lt;br&gt;Location: 1642037 - 1642309&lt;br&gt;&lt;br&gt;&lt;b&gt;BlastP hit with MCIC6FC_022257&lt;/b&gt;&lt;br&gt;Percentage identity: 98&lt;br&gt;Percentage coverage: 53&lt;br&gt;BLAST bit score: 176&lt;br&gt;E-value: 2.3e-42" locus_tag="IU46_RS07500" class="clusterblast-orf" id="dummy-1_h1_10_56"  />
</g>
<g id="a1_0057"  >
<polygon points="736,85 739,80 739,90 736,85 " style="fill:#9dd815; stroke-width:1; stroke:black; " description="&lt;b&gt;IU46_RS07505&lt;/b&gt;&lt;br&gt;DNA damage-inducible protein I&lt;br&gt;Location: 1642455 - 1642700&lt;br&gt;&lt;br&gt;&lt;b&gt;BlastP hit with MCIC6FC_022257&lt;/b&gt;&lt;br&gt;Percentage identity: 100&lt;br&gt;Percentage coverage: 45&lt;br&gt;BLAST bit score: 156&lt;br&gt;E-value: 3.2e-36" locus_tag="IU46_RS07505" class="clusterblast-orf" id="dummy-1_h1_10_57"  />
</g>
<g id="a1_0058"  >
<polygon points="740,85 745,80 753,80 753,90 745,90 740,85 " style="fill:#15d8bf; stroke-width:1; stroke:black; " description="&lt;b&gt;IU46_RS07510&lt;/b&gt;&lt;br&gt;dihydroorotase&lt;br&gt;Location: 1642763 - 1643806&lt;br&gt;&lt;br&gt;&lt;b&gt;BlastP hit with MCIC6FC_022258&lt;/b&gt;&lt;br&gt;Percentage identity: 96&lt;br&gt;Percentage coverage: 54&lt;br&gt;BLAST bit score: 624&lt;br&gt;E-value: 1.1e-176" locus_tag="IU46_RS07510" class="clusterblast-orf" id="dummy-1_h1_10_58"  />
</g>
<g id="a1_0059"  >
<polygon points="762,85 767,80 770,80 770,90 767,90 762,85 " style="fill:#15d8bf; stroke-width:1; stroke:black; " description="&lt;b&gt;IU46_RS07515&lt;/b&gt;&lt;br&gt;lipoprotein&lt;br&gt;Location: 1644491 - 1645054&lt;br&gt;&lt;br&gt;&lt;b&gt;BlastP hit with MCIC6FC_022258&lt;/b&gt;&lt;br&gt;Percentage identity: 79&lt;br&gt;Percentage coverage: 32&lt;br&gt;BLAST bit score: 273&lt;br&gt;E-value: 4.7e-71" locus_tag="IU46_RS07515" class="clusterblast-orf" id="dummy-1_h1_10_59"  />
</g>
<g id="a1_0060"  >
<polygon points="771,85 776,80 780,80 780,90 776,90 771,85 " style="fill:#6a15d8; stroke-width:1; stroke:black; " description="&lt;b&gt;IU46_RS07520&lt;/b&gt;&lt;br&gt;glutaredoxin 2&lt;br&gt;Location: 1645169 - 1645816&lt;br&gt;&lt;br&gt;&lt;b&gt;BlastP hit with MCIC6FC_022259&lt;/b&gt;&lt;br&gt;Percentage identity: 96&lt;br&gt;Percentage coverage: 99&lt;br&gt;BLAST bit score: 367&lt;br&gt;E-value: 1e-99" locus_tag="IU46_RS07520" class="clusterblast-orf" id="dummy-1_h1_10_60"  />
</g>
</svg>
