<svg xmlns="http://www.w3.org/2000/svg" xmlns:xlink="http://www.w3.org/1999/xlink" version="1.1" x="0" y="0" height="230" width="800" viewBox="0 0 800 230" preserveAspectRatio="none"  >
<g label="Query sequence" class="clusterblast-cluster"  >
<text x="5" y="20" class="clusterblast-acc"  >
Query sequence</text>
<line x1="10" y1="35" x2="778.0" y2="35" style="stroke-width:1; stroke:grey; "  />
<polygon points="0,35 5,30 51,30 51,40 5,40 0,35 " style="fill:#d81515; stroke-width:1; stroke:black; " description="&lt;b&gt;MCIC6FC_014867&lt;/b&gt;&lt;br&gt;hypothetical protein&lt;br&gt;Location: 155478 - 157092" locus_tag="MCIC6FC_014867" class="clusterblast-orf" id="dummy-1_q0_0_all"  />
<polygon points="55,35 60,30 76,30 76,40 60,40 55,35 " style="fill:#15d815; stroke-width:1; stroke:black; " description="&lt;b&gt;MCIC6FC_014868&lt;/b&gt;&lt;br&gt;hypothetical protein&lt;br&gt;Location: 157205 - 157883" locus_tag="MCIC6FC_014868" class="clusterblast-orf" id="dummy-1_q1_0_all"  />
<polygon points="80,35 85,30 99,30 99,40 85,40 80,35 " style="fill:#1515d8; stroke-width:1; stroke:black; " description="&lt;b&gt;MCIC6FC_014869&lt;/b&gt;&lt;br&gt;hypothetical protein&lt;br&gt;Location: 157994 - 158594" locus_tag="MCIC6FC_014869" class="clusterblast-orf" id="dummy-1_q2_0_all"  />
<polygon points="102,40 126,40 131,35 126,30 102,30 102,40 " style="fill:#d815d8; stroke-width:1; stroke:black; " description="&lt;b&gt;MCIC6FC_014870&lt;/b&gt;&lt;br&gt;hypothetical protein&lt;br&gt;Location: 158696 - 159606" locus_tag="MCIC6FC_014870" class="clusterblast-orf" id="dummy-1_q3_0_all"  />
<polygon points="133,35 138,30 215,30 215,40 138,40 133,35 " style="fill:#d8d815; stroke-width:1; stroke:black; " description="&lt;b&gt;MCIC6FC_014871&lt;/b&gt;&lt;br&gt;hypothetical protein&lt;br&gt;Location: 159656 - 162249" locus_tag="MCIC6FC_014871" class="clusterblast-orf" id="dummy-1_q4_0_all"  />
<polygon points="217,35 222,30 333,30 333,40 222,40 217,35 " style="fill:#15d8d8; stroke-width:1; stroke:black; " description="&lt;b&gt;MCIC6FC_014872&lt;/b&gt;&lt;br&gt;hypothetical protein&lt;br&gt;Location: 162308 - 165951" locus_tag="MCIC6FC_014872" class="clusterblast-orf" id="dummy-1_q5_0_all"  />
<polygon points="335,35 340,30 376,30 376,40 340,40 335,35 " style="fill:white; stroke-width:1; stroke:black; " description="&lt;b&gt;MCIC6FC_014873&lt;/b&gt;&lt;br&gt;hypothetical protein&lt;br&gt;Location: 165993 - 167309" locus_tag="MCIC6FC_014873" class="clusterblast-orf" id="dummy-1_q6_0_all"  />
<polygon points="379,40 392,40 397,35 392,30 379,30 379,40 " style="fill:white; stroke-width:1; stroke:black; " description="&lt;b&gt;MCIC6FC_014874&lt;/b&gt;&lt;br&gt;hypothetical protein&lt;br&gt;Location: 167398 - 167954" locus_tag="MCIC6FC_014874" class="clusterblast-orf" id="dummy-1_q7_0_all"  />
<polygon points="406,35 411,30 475,30 475,40 411,40 406,35 " style="fill:white; stroke-width:1; stroke:black; " description="&lt;b&gt;MCIC6FC_014875&lt;/b&gt;&lt;br&gt;hypothetical protein&lt;br&gt;Location: 168228 - 170412" locus_tag="MCIC6FC_014875" class="clusterblast-orf" id="dummy-1_q8_0_all"  />
<polygon points="482,40 494,40 499,35 494,30 482,30 482,40 " style="fill:white; stroke-width:1; stroke:black; " description="&lt;b&gt;MCIC6FC_014876&lt;/b&gt;&lt;br&gt;hypothetical protein&lt;br&gt;Location: 170613 - 171161" locus_tag="MCIC6FC_014876" class="clusterblast-orf" id="dummy-1_q9_0_all"  />
<polygon points="500,35 505,30 568,30 568,40 505,40 500,35 " style="fill:white; stroke-width:1; stroke:black; " description="&lt;b&gt;MCIC6FC_014877&lt;/b&gt;&lt;br&gt;hypothetical protein&lt;br&gt;Location: 171182 - 173331" locus_tag="MCIC6FC_014877" class="clusterblast-orf" id="dummy-1_q10_0_all"  />
<polygon points="585,40 633,40 638,35 633,30 585,30 585,40 " style="fill:white; stroke-width:1; stroke:black; " description="&lt;b&gt;MCIC6FC_014878&lt;/b&gt;&lt;br&gt;hypothetical protein&lt;br&gt;Location: 173853 - 175521" locus_tag="MCIC6FC_014878" class="clusterblast-orf" id="dummy-1_q11_0_all"  />
<polygon points="641,35 646,30 732,30 732,40 646,40 641,35 " style="fill:white; stroke-width:1; stroke:black; " description="&lt;b&gt;MCIC6FC_014879&lt;/b&gt;&lt;br&gt;hypothetical protein&lt;br&gt;Location: 175617 - 178467" locus_tag="MCIC6FC_014879" class="clusterblast-orf" id="dummy-1_q12_0_all"  />
<polygon points="739,40 745,40 750,35 745,30 739,30 739,40 " style="fill:white; stroke-width:1; stroke:black; " description="&lt;b&gt;MCIC6FC_014880&lt;/b&gt;&lt;br&gt;hypothetical protein&lt;br&gt;Location: 178685 - 179027" locus_tag="MCIC6FC_014880" class="clusterblast-orf" id="dummy-1_q13_0_all"  />
<polygon points="751,35 756,30 780,30 780,40 756,40 751,35 " style="fill:white; stroke-width:1; stroke:black; " description="&lt;b&gt;MCIC6FC_014881&lt;/b&gt;&lt;br&gt;hypothetical protein&lt;br&gt;Location: 179062 - 179977" locus_tag="MCIC6FC_014881" class="clusterblast-orf" id="dummy-1_q14_0_all"  />
</g>
<g label="NZ_VIWR01000008" description="NZ_VIWR01000008 (627764-638655): Pseudomonas protegens strain 3295 Ga0365449 ... (90% of genes show similarity), bacteriocin" class="clusterblast-cluster"  >
<text x="5" y="70" class="clusterblast-acc"  >
<a xlink:href="https://antismash-db.secondarymetabolites.org/area.html?record=NZ_VIWR01000008&amp;start=627764&amp;end=638655" target="_blank">NZ_VIWR01000008 (627764-638655)</a>: Pseudomonas protegens strain 3295 Ga0365449 ... (90% of genes show similarity), bacteriocin</text>
<line x1="10" y1="85" x2="778.0" y2="85" style="stroke-width:1; stroke:grey; "  />
</g>
<g id="a1_000"  >
<polygon points="249,85 254,80 270,80 270,90 254,90 249,85 " style="fill:#15d815; stroke-width:1; stroke:black; " description="&lt;b&gt;FHW56_RS13520&lt;/b&gt;&lt;br&gt;membrane protein&lt;br&gt;Location: 628931 - 629608&lt;br&gt;&lt;br&gt;&lt;b&gt;BlastP hit with MCIC6FC_014868&lt;/b&gt;&lt;br&gt;Percentage identity: 97&lt;br&gt;Percentage coverage: 100&lt;br&gt;BLAST bit score: 445&lt;br&gt;E-value: 4.5e-123" locus_tag="FHW56_RS13520" class="clusterblast-orf" id="dummy-1_h1_9_0"  />
</g>
<g id="a1_001"  >
<polygon points="276,85 281,80 296,80 296,90 281,90 276,85 " style="fill:#1515d8; stroke-width:1; stroke:black; " description="&lt;b&gt;FHW56_RS13525&lt;/b&gt;&lt;br&gt;short chain dehydrogenase&lt;br&gt;Location: 629804 - 630403&lt;br&gt;&lt;br&gt;&lt;b&gt;BlastP hit with MCIC6FC_014869&lt;/b&gt;&lt;br&gt;Percentage identity: 96&lt;br&gt;Percentage coverage: 100&lt;br&gt;BLAST bit score: 376&lt;br&gt;E-value: 2.3e-102" locus_tag="FHW56_RS13525" class="clusterblast-orf" id="dummy-1_h1_9_1"  />
</g>
<g id="a1_002"  >
<polygon points="299,90 323,90 328,85 323,80 299,80 299,90 " style="fill:#d815d8; stroke-width:1; stroke:black; " description="&lt;b&gt;FHW56_RS13530&lt;/b&gt;&lt;br&gt;LysR family transcriptional regulator&lt;br&gt;Location: 630507 - 631415&lt;br&gt;&lt;br&gt;&lt;b&gt;BlastP hit with MCIC6FC_014870&lt;/b&gt;&lt;br&gt;Percentage identity: 92&lt;br&gt;Percentage coverage: 103&lt;br&gt;BLAST bit score: 545&lt;br&gt;E-value: 3.2e-153" locus_tag="FHW56_RS13530" class="clusterblast-orf" id="dummy-1_h1_9_2"  />
</g>
<g id="a1_003"  >
<polygon points="330,85 335,80 346,80 346,90 335,90 330,85 " style="fill:#d8d815; stroke-width:1; stroke:black; " description="&lt;b&gt;FHW56_RS13535&lt;/b&gt;&lt;br&gt;DoxX family protein&lt;br&gt;Location: 631486 - 631995&lt;br&gt;&lt;br&gt;&lt;b&gt;BlastP hit with MCIC6FC_014871&lt;/b&gt;&lt;br&gt;Percentage identity: 93&lt;br&gt;Percentage coverage: 19&lt;br&gt;BLAST bit score: 280&lt;br&gt;E-value: 4e-73" locus_tag="FHW56_RS13535" class="clusterblast-orf" id="dummy-1_h1_9_3"  />
</g>
<g id="a1_004"  >
<polygon points="346,85 351,80 371,80 371,90 351,90 346,85 " style="fill:#d8d815; stroke-width:1; stroke:black; " description="&lt;b&gt;FHW56_RS13540&lt;/b&gt;&lt;br&gt;putative DNA-binding domain-containing protein&lt;br&gt;Location: 631998 - 632768&lt;br&gt;&lt;br&gt;&lt;b&gt;BlastP hit with MCIC6FC_014871&lt;/b&gt;&lt;br&gt;Percentage identity: 88&lt;br&gt;Percentage coverage: 32&lt;br&gt;BLAST bit score: 440&lt;br&gt;E-value: 3e-121" locus_tag="FHW56_RS13540" class="clusterblast-orf" id="dummy-1_h1_9_4"  />
</g>
<g id="a1_005"  >
<polygon points="371,85 376,80 399,80 399,90 376,90 371,85 " style="fill:#d8d815; stroke-width:1; stroke:black; " description="&lt;b&gt;FHW56_RS13545&lt;/b&gt;&lt;br&gt;DUF692 domain-containing protein&lt;br&gt;Location: 632765 - 633655&lt;br&gt;&lt;br&gt;&lt;b&gt;BlastP hit with MCIC6FC_014871&lt;/b&gt;&lt;br&gt;Percentage identity: 88&lt;br&gt;Percentage coverage: 35&lt;br&gt;BLAST bit score: 482&lt;br&gt;E-value: 6.9e-134" locus_tag="FHW56_RS13545" class="clusterblast-orf" id="dummy-1_h1_9_5"  />
</g>
<g id="a1_006"  >
<polygon points="400,85 405,80 410,80 410,90 405,90 400,85 " style="fill:white; stroke-width:1; stroke:black; " description="&lt;b&gt;FHW56_RS13550&lt;/b&gt;&lt;br&gt;DUF2282 domain-containing protein&lt;br&gt;Location: 633681 - 633986" locus_tag="FHW56_RS13550" class="clusterblast-orf" id="dummy-1_h1_9_6"  />
</g>
<g id="a1_007"  >
<polygon points="414,85 419,80 437,80 437,90 419,90 414,85 " style="fill:#15d8d8; stroke-width:1; stroke:black; " description="&lt;b&gt;FHW56_RS13555&lt;/b&gt;&lt;br&gt;ABC transporter ATP-binding protein&lt;br&gt;Location: 634135 - 634836&lt;br&gt;&lt;br&gt;&lt;b&gt;BlastP hit with MCIC6FC_014872&lt;/b&gt;&lt;br&gt;Percentage identity: 99&lt;br&gt;Percentage coverage: 20&lt;br&gt;BLAST bit score: 444&lt;br&gt;E-value: 3.1e-122" locus_tag="FHW56_RS13555" class="clusterblast-orf" id="dummy-1_h1_9_7"  />
</g>
<g id="a1_008"  >
<polygon points="437,85 442,80 461,80 461,90 442,90 437,85 " style="fill:#15d8d8; stroke-width:1; stroke:black; " description="&lt;b&gt;FHW56_RS13560&lt;/b&gt;&lt;br&gt;high-affinity branched-chain amino acid ABC transporter ATP-binding protein LivG&lt;br&gt;Location: 634837 - 635604&lt;br&gt;&lt;br&gt;&lt;b&gt;BlastP hit with MCIC6FC_014872&lt;/b&gt;&lt;br&gt;Percentage identity: 96&lt;br&gt;Percentage coverage: 22&lt;br&gt;BLAST bit score: 486&lt;br&gt;E-value: 7.1e-135" locus_tag="FHW56_RS13560" class="clusterblast-orf" id="dummy-1_h1_9_8"  />
</g>
<g id="a1_009"  >
<polygon points="461,85 466,80 501,80 501,90 466,90 461,85 " style="fill:#15d8d8; stroke-width:1; stroke:black; " description="&lt;b&gt;FHW56_RS13565&lt;/b&gt;&lt;br&gt;high-affinity branched-chain amino acid ABC transporter permease LivM&lt;br&gt;Location: 635601 - 636857&lt;br&gt;&lt;br&gt;&lt;b&gt;BlastP hit with MCIC6FC_014872&lt;/b&gt;&lt;br&gt;Percentage identity: 99&lt;br&gt;Percentage coverage: 34&lt;br&gt;BLAST bit score: 737&lt;br&gt;E-value: 3e-210" locus_tag="FHW56_RS13565" class="clusterblast-orf" id="dummy-1_h1_9_9"  />
</g>
<g id="a1_0010"  >
<polygon points="501,85 506,80 530,80 530,90 506,90 501,85 " style="fill:#15d8d8; stroke-width:1; stroke:black; " description="&lt;b&gt;FHW56_RS13570&lt;/b&gt;&lt;br&gt;high-affinity branched-chain amino acid ABC transporter permease LivH&lt;br&gt;Location: 636854 - 637777&lt;br&gt;&lt;br&gt;&lt;b&gt;BlastP hit with MCIC6FC_014872&lt;/b&gt;&lt;br&gt;Percentage identity: 100&lt;br&gt;Percentage coverage: 25&lt;br&gt;BLAST bit score: 538&lt;br&gt;E-value: 2e-150" locus_tag="FHW56_RS13570" class="clusterblast-orf" id="dummy-1_h1_9_10"  />
</g>
</svg>
