<svg xmlns="http://www.w3.org/2000/svg" xmlns:xlink="http://www.w3.org/1999/xlink" version="1.1" x="0" y="0" height="230" width="800" viewBox="0 0 800 230" preserveAspectRatio="none"  >
<g label="Query sequence" class="clusterblast-cluster"  >
<text x="5" y="20" class="clusterblast-acc"  >
Query sequence</text>
<line x1="10" y1="35" x2="778.0" y2="35" style="stroke-width:1; stroke:grey; "  />
<polygon points="0,35 5,30 189,30 189,40 5,40 0,35 " style="fill:white; stroke-width:1; stroke:black; " description="&lt;b&gt;MCIC6FC_003336&lt;/b&gt;&lt;br&gt;hypothetical protein&lt;br&gt;Location: 693054 - 696792" locus_tag="MCIC6FC_003336" class="clusterblast-orf" id="dummy-2_q0_0_all"  />
<polygon points="201,40 401,40 406,35 401,30 201,30 201,40 " style="fill:#d81515; stroke-width:1; stroke:black; " description="&lt;b&gt;MCIC6FC_003337&lt;/b&gt;&lt;br&gt;hypothetical protein&lt;br&gt;Location: 697036 - 701078" locus_tag="MCIC6FC_003337" class="clusterblast-orf" id="dummy-2_q1_0_all"  />
<polygon points="408,40 497,40 502,35 497,30 408,30 408,40 " style="fill:#15d815; stroke-width:1; stroke:black; " description="&lt;b&gt;MCIC6FC_003338&lt;/b&gt;&lt;br&gt;hypothetical protein&lt;br&gt;Location: 701110 - 702979" locus_tag="MCIC6FC_003338" class="clusterblast-orf" id="dummy-2_q2_0_all"  />
<polygon points="509,40 602,40 607,35 602,30 509,30 509,40 " style="fill:#1515d8; stroke-width:1; stroke:black; " description="&lt;b&gt;MCIC6FC_003339&lt;/b&gt;&lt;br&gt;hypothetical protein&lt;br&gt;Location: 703116 - 705053" locus_tag="MCIC6FC_003339" class="clusterblast-orf" id="dummy-2_q3_0_all"  />
<polygon points="611,40 666,40 671,35 666,30 611,30 611,40 " style="fill:#d815d8; stroke-width:1; stroke:black; " description="&lt;b&gt;MCIC6FC_003340&lt;/b&gt;&lt;br&gt;hypothetical protein&lt;br&gt;Location: 705138 - 706326" locus_tag="MCIC6FC_003340" class="clusterblast-orf" id="dummy-2_q4_0_all"  />
<polygon points="680,35 685,30 744,30 744,40 685,40 680,35 " style="fill:#d8d815; stroke-width:1; stroke:black; " description="&lt;b&gt;MCIC6FC_003341&lt;/b&gt;&lt;br&gt;hypothetical protein&lt;br&gt;Location: 706490 - 707769" locus_tag="MCIC6FC_003341" class="clusterblast-orf" id="dummy-2_q5_0_all"  />
<polygon points="760,40 775,40 780,35 775,30 760,30 760,40 " style="fill:#15d8d8; stroke-width:1; stroke:black; " description="&lt;b&gt;MCIC6FC_003342&lt;/b&gt;&lt;br&gt;hypothetical protein&lt;br&gt;Location: 708075 - 708471" locus_tag="MCIC6FC_003342" class="clusterblast-orf" id="dummy-2_q6_0_all"  />
</g>
<g label="NZ_CP052860" description="NZ_CP052860 (2322995-2332404): Pseudomonas sp. ADAK13 chromosome, complete ge... (88% of genes show similarity), bacteriocin" class="clusterblast-cluster"  >
<text x="5" y="70" class="clusterblast-acc"  >
<a xlink:href="https://antismash-db.secondarymetabolites.org/area.html?record=NZ_CP052860&amp;start=2322995&amp;end=2332404" target="_blank">NZ_CP052860 (2322995-2332404)</a>: Pseudomonas sp. ADAK13 chromosome, complete ge... (88% of genes show similarity), bacteriocin</text>
<line x1="10" y1="85" x2="778.0" y2="85" style="stroke-width:1; stroke:grey; "  />
</g>
<g id="a2_000"  >
<polygon points="151,90 197,90 202,85 197,80 151,80 151,90 " style="fill:#d81515; stroke-width:1; stroke:black; " description="&lt;b&gt;HKK54_RS10785&lt;/b&gt;&lt;br&gt;protease modulator HflC&lt;br&gt;Location: 2322996 - 2323994&lt;br&gt;&lt;br&gt;&lt;b&gt;BlastP hit with MCIC6FC_003337&lt;/b&gt;&lt;br&gt;Percentage identity: 95&lt;br&gt;Percentage coverage: 23&lt;br&gt;BLAST bit score: 445&lt;br&gt;E-value: 1.5e-122" locus_tag="HKK54_RS10785" class="clusterblast-orf" id="dummy-2_h2_10_0"  />
</g>
<g id="a2_001"  >
<polygon points="202,90 249,90 254,85 249,80 202,80 202,90 " style="fill:#d81515; stroke-width:1; stroke:black; " description="&lt;b&gt;HKK54_RS10790&lt;/b&gt;&lt;br&gt;protease modulator HflK&lt;br&gt;Location: 2323991 - 2325025&lt;br&gt;&lt;br&gt;&lt;b&gt;BlastP hit with MCIC6FC_003337&lt;/b&gt;&lt;br&gt;Percentage identity: 82&lt;br&gt;Percentage coverage: 27&lt;br&gt;BLAST bit score: 437&lt;br&gt;E-value: 5.4e-120" locus_tag="HKK54_RS10790" class="clusterblast-orf" id="dummy-2_h2_10_1"  />
</g>
<g id="a2_002"  >
<polygon points="254,90 345,90 350,85 345,80 254,80 254,90 " style="fill:#15d815; stroke-width:1; stroke:black; " description="&lt;b&gt;HKK54_RS10795&lt;/b&gt;&lt;br&gt;cadmium-translocating P-type ATPase&lt;br&gt;Location: 2325022 - 2326917&lt;br&gt;&lt;br&gt;&lt;b&gt;BlastP hit with MCIC6FC_003338&lt;/b&gt;&lt;br&gt;Percentage identity: 89&lt;br&gt;Percentage coverage: 100&lt;br&gt;BLAST bit score: 933&lt;br&gt;E-value: 1.5e-269" locus_tag="HKK54_RS10795" class="clusterblast-orf" id="dummy-2_h2_10_2"  />
</g>
<g id="a2_003"  >
<polygon points="356,90 363,90 368,85 363,80 356,80 356,90 " style="fill:white; stroke-width:1; stroke:black; " description="&lt;b&gt;HKK54_RS10800&lt;/b&gt;&lt;br&gt;membrane protein&lt;br&gt;Location: 2327034 - 2327285" locus_tag="HKK54_RS10800" class="clusterblast-orf" id="dummy-2_h2_10_3"  />
</g>
<g id="a2_004"  >
<polygon points="372,90 410,90 415,85 410,80 372,80 372,90 " style="fill:#1515d8; stroke-width:1; stroke:black; " description="&lt;b&gt;HKK54_RS10805&lt;/b&gt;&lt;br&gt;DUF692 family protein&lt;br&gt;Location: 2327356 - 2328201&lt;br&gt;&lt;br&gt;&lt;b&gt;BlastP hit with MCIC6FC_003339&lt;/b&gt;&lt;br&gt;Percentage identity: 83&lt;br&gt;Percentage coverage: 40&lt;br&gt;BLAST bit score: 443&lt;br&gt;E-value: 3.5e-122" locus_tag="HKK54_RS10805" class="clusterblast-orf" id="dummy-2_h2_10_4"  />
</g>
<g id="a2_005"  >
<polygon points="414,90 449,90 454,85 449,80 414,80 414,90 " style="fill:#1515d8; stroke-width:1; stroke:black; " description="&lt;b&gt;HKK54_RS10810&lt;/b&gt;&lt;br&gt;putative DNA-binding domain-containing protein&lt;br&gt;Location: 2328192 - 2328977&lt;br&gt;&lt;br&gt;&lt;b&gt;BlastP hit with MCIC6FC_003339&lt;/b&gt;&lt;br&gt;Percentage identity: 63&lt;br&gt;Percentage coverage: 43&lt;br&gt;BLAST bit score: 320&lt;br&gt;E-value: 4.5e-85" locus_tag="HKK54_RS10810" class="clusterblast-orf" id="dummy-2_h2_10_5"  />
</g>
<g id="a2_006"  >
<polygon points="458,90 513,90 518,85 513,80 458,80 458,90 " style="fill:#d815d8; stroke-width:1; stroke:black; " description="&lt;b&gt;HKK54_RS10815&lt;/b&gt;&lt;br&gt;class I SAM-dependent methyltransferase&lt;br&gt;Location: 2329064 - 2330248&lt;br&gt;&lt;br&gt;&lt;b&gt;BlastP hit with MCIC6FC_003340&lt;/b&gt;&lt;br&gt;Percentage identity: 87&lt;br&gt;Percentage coverage: 99&lt;br&gt;BLAST bit score: 722&lt;br&gt;E-value: 2.6e-206" locus_tag="HKK54_RS10815" class="clusterblast-orf" id="dummy-2_h2_10_6"  />
</g>
<g id="a2_007"  >
<polygon points="522,85 527,80 594,80 594,90 527,90 522,85 " style="fill:#d8d815; stroke-width:1; stroke:black; " description="&lt;b&gt;HKK54_RS10820&lt;/b&gt;&lt;br&gt;cardiolipin synthase&lt;br&gt;Location: 2330313 - 2331752&lt;br&gt;&lt;br&gt;&lt;b&gt;BlastP hit with MCIC6FC_003341&lt;/b&gt;&lt;br&gt;Percentage identity: 88&lt;br&gt;Percentage coverage: 100&lt;br&gt;BLAST bit score: 753&lt;br&gt;E-value: 1.1e-215" locus_tag="HKK54_RS10820" class="clusterblast-orf" id="dummy-2_h2_10_7"  />
</g>
<g id="a2_008"  >
<polygon points="601,90 622,90 627,85 622,80 601,80 601,90 " style="fill:#15d8d8; stroke-width:1; stroke:black; " description="&lt;b&gt;HKK54_RS10825&lt;/b&gt;&lt;br&gt;DUF3617 domain-containing protein&lt;br&gt;Location: 2331883 - 2332404&lt;br&gt;&lt;br&gt;&lt;b&gt;BlastP hit with MCIC6FC_003342&lt;/b&gt;&lt;br&gt;Percentage identity: 79&lt;br&gt;Percentage coverage: 99&lt;br&gt;BLAST bit score: 221&lt;br&gt;E-value: 6.2e-56" locus_tag="HKK54_RS10825" class="clusterblast-orf" id="dummy-2_h2_10_8"  />
</g>
</svg>
