<svg xmlns="http://www.w3.org/2000/svg" xmlns:xlink="http://www.w3.org/1999/xlink" version="1.1" x="0" y="0" height="230" width="800" viewBox="0 0 800 230" preserveAspectRatio="none"  >
<g label="Query sequence" class="clusterblast-cluster"  >
<text x="5" y="20" class="clusterblast-acc"  >
Query sequence</text>
<line x1="10" y1="35" x2="778.0" y2="35" style="stroke-width:1; stroke:grey; "  />
<polygon points="0,35 5,30 20,30 20,40 5,40 0,35 " style="fill:#d81515; stroke-width:1; stroke:black; " description="&lt;b&gt;MCIC6FC_005786&lt;/b&gt;&lt;br&gt;hypothetical protein&lt;br&gt;Location: 1910200 - 1912388" locus_tag="MCIC6FC_005786" class="clusterblast-orf" id="dummy-3_q0_0_all"  />
<polygon points="21,40 58,40 63,35 58,30 21,30 21,40 " style="fill:#77d815; stroke-width:1; stroke:black; " description="&lt;b&gt;MCIC6FC_005787&lt;/b&gt;&lt;br&gt;hypothetical protein&lt;br&gt;Location: 1912502 - 1917042" locus_tag="MCIC6FC_005787" class="clusterblast-orf" id="dummy-3_q1_0_all"  />
<polygon points="64,35 69,30 80,30 80,40 69,40 64,35 " style="fill:#15d8d8; stroke-width:1; stroke:black; " description="&lt;b&gt;MCIC6FC_005788&lt;/b&gt;&lt;br&gt;hypothetical protein&lt;br&gt;Location: 1917174 - 1918868" locus_tag="MCIC6FC_005788" class="clusterblast-orf" id="dummy-3_q2_0_all"  />
<polygon points="82,40 102,40 107,35 102,30 82,30 82,40 " style="fill:#7715d8; stroke-width:1; stroke:black; " description="&lt;b&gt;MCIC6FC_005789&lt;/b&gt;&lt;br&gt;hypothetical protein&lt;br&gt;Location: 1919075 - 1921770" locus_tag="MCIC6FC_005789" class="clusterblast-orf" id="dummy-3_q3_0_all"  />
<polygon points="108,40 111,40 116,35 111,30 108,30 108,40 " style="fill:#d84615; stroke-width:1; stroke:black; " description="&lt;b&gt;MCIC6FC_005790&lt;/b&gt;&lt;br&gt;hypothetical protein&lt;br&gt;Location: 1921817 - 1922711" locus_tag="MCIC6FC_005790" class="clusterblast-orf" id="dummy-3_q4_0_all"  />
<polygon points="116,35 121,30 125,30 125,40 121,40 116,35 " style="fill:#46d815; stroke-width:1; stroke:black; " description="&lt;b&gt;MCIC6FC_005791&lt;/b&gt;&lt;br&gt;hypothetical protein&lt;br&gt;Location: 1922765 - 1923740" locus_tag="MCIC6FC_005791" class="clusterblast-orf" id="dummy-3_q5_0_all"  />
<polygon points="126,40 163,40 168,35 163,30 126,30 126,40 " style="fill:#15a7d8; stroke-width:1; stroke:black; " description="&lt;b&gt;MCIC6FC_005792&lt;/b&gt;&lt;br&gt;hypothetical protein&lt;br&gt;Location: 1923829 - 1928328" locus_tag="MCIC6FC_005792" class="clusterblast-orf" id="dummy-3_q6_0_all"  />
<polygon points="169,35 174,30 457,30 457,40 174,40 169,35 " style="fill:#a715d8; stroke-width:1; stroke:black; " description="&lt;b&gt;MCIC6FC_005793&lt;/b&gt;&lt;br&gt;hypothetical protein&lt;br&gt;Location: 1928467 - 1959441" locus_tag="MCIC6FC_005793" class="clusterblast-orf" id="dummy-3_q7_0_all"  />
<polygon points="459,40 463,40 468,35 463,30 459,30 459,40 " style="fill:#d87715; stroke-width:1; stroke:black; " description="&lt;b&gt;MCIC6FC_005794&lt;/b&gt;&lt;br&gt;hypothetical protein&lt;br&gt;Location: 1959602 - 1960571" locus_tag="MCIC6FC_005794" class="clusterblast-orf" id="dummy-3_q8_0_all"  />
<polygon points="468,35 473,30 487,30 487,40 473,40 468,35 " style="fill:#15d815; stroke-width:1; stroke:black; " description="&lt;b&gt;MCIC6FC_005795&lt;/b&gt;&lt;br&gt;hypothetical protein&lt;br&gt;Location: 1960675 - 1962660" locus_tag="MCIC6FC_005795" class="clusterblast-orf" id="dummy-3_q9_0_all"  />
<polygon points="488,40 489,40 494,35 489,30 488,30 488,40 " style="fill:#1577d8; stroke-width:1; stroke:black; " description="&lt;b&gt;MCIC6FC_005796&lt;/b&gt;&lt;br&gt;hypothetical protein&lt;br&gt;Location: 1962795 - 1963383" locus_tag="MCIC6FC_005796" class="clusterblast-orf" id="dummy-3_q10_0_all"  />
<polygon points="495,40 497,40 502,35 497,30 495,30 495,40 " style="fill:#d815d8; stroke-width:1; stroke:black; " description="&lt;b&gt;MCIC6FC_005797&lt;/b&gt;&lt;br&gt;hypothetical protein&lt;br&gt;Location: 1963495 - 1964296" locus_tag="MCIC6FC_005797" class="clusterblast-orf" id="dummy-3_q11_0_all"  />
<polygon points="503,40 564,40 569,35 564,30 503,30 503,40 " style="fill:#d8a715; stroke-width:1; stroke:black; " description="&lt;b&gt;MCIC6FC_005798&lt;/b&gt;&lt;br&gt;hypothetical protein&lt;br&gt;Location: 1964348 - 1971527" locus_tag="MCIC6FC_005798" class="clusterblast-orf" id="dummy-3_q12_0_all"  />
<polygon points="569,35 574,30 578,30 578,40 574,40 569,35 " style="fill:#15d846; stroke-width:1; stroke:black; " description="&lt;b&gt;MCIC6FC_005799&lt;/b&gt;&lt;br&gt;hypothetical protein&lt;br&gt;Location: 1971536 - 1972520" locus_tag="MCIC6FC_005799" class="clusterblast-orf" id="dummy-3_q13_0_all"  />
<polygon points="579,40 581,40 586,35 581,30 579,30 579,40 " style="fill:#15d846; stroke-width:1; stroke:black; " description="&lt;b&gt;MCIC6FC_005800&lt;/b&gt;&lt;br&gt;hypothetical protein&lt;br&gt;Location: 1972612 - 1973299" locus_tag="MCIC6FC_005800" class="clusterblast-orf" id="dummy-3_q14_0_all"  />
<polygon points="586,35 589,30 589,40 586,35 " style="fill:#1546d8; stroke-width:1; stroke:black; " description="&lt;b&gt;MCIC6FC_005801&lt;/b&gt;&lt;br&gt;hypothetical protein&lt;br&gt;Location: 1973303 - 1973648" locus_tag="MCIC6FC_005801" class="clusterblast-orf" id="dummy-3_q15_0_all"  />
<polygon points="589,35 594,30 595,30 595,40 594,40 589,35 " style="fill:#d815a7; stroke-width:1; stroke:black; " description="&lt;b&gt;MCIC6FC_005802&lt;/b&gt;&lt;br&gt;hypothetical protein&lt;br&gt;Location: 1973672 - 1974304" locus_tag="MCIC6FC_005802" class="clusterblast-orf" id="dummy-3_q16_0_all"  />
<polygon points="596,40 603,40 608,35 603,30 596,30 596,40 " style="fill:#d8d815; stroke-width:1; stroke:black; " description="&lt;b&gt;MCIC6FC_005803&lt;/b&gt;&lt;br&gt;hypothetical protein&lt;br&gt;Location: 1974391 - 1975716" locus_tag="MCIC6FC_005803" class="clusterblast-orf" id="dummy-3_q17_0_all"  />
<polygon points="611,35 616,30 619,30 619,40 616,40 611,35 " style="fill:#15d877; stroke-width:1; stroke:black; " description="&lt;b&gt;MCIC6FC_005804&lt;/b&gt;&lt;br&gt;hypothetical protein&lt;br&gt;Location: 1976049 - 1976838" locus_tag="MCIC6FC_005804" class="clusterblast-orf" id="dummy-3_q18_0_all"  />
<polygon points="619,40 630,40 635,35 630,30 619,30 619,40 " style="fill:white; stroke-width:1; stroke:black; " description="&lt;b&gt;MCIC6FC_005805&lt;/b&gt;&lt;br&gt;hypothetical protein&lt;br&gt;Location: 1976898 - 1978654" locus_tag="MCIC6FC_005805" class="clusterblast-orf" id="dummy-3_q19_0_all"  />
<polygon points="636,35 640,30 640,40 636,35 " style="fill:#1515d8; stroke-width:1; stroke:black; " description="&lt;b&gt;MCIC6FC_005806&lt;/b&gt;&lt;br&gt;hypothetical protein&lt;br&gt;Location: 1978716 - 1979176" locus_tag="MCIC6FC_005806" class="clusterblast-orf" id="dummy-3_q20_0_all"  />
<polygon points="642,40 653,40 658,35 653,30 642,30 642,40 " style="fill:#d81577; stroke-width:1; stroke:black; " description="&lt;b&gt;MCIC6FC_005807&lt;/b&gt;&lt;br&gt;hypothetical protein&lt;br&gt;Location: 1979309 - 1981063" locus_tag="MCIC6FC_005807" class="clusterblast-orf" id="dummy-3_q21_0_all"  />
<polygon points="659,35 664,30 669,30 669,40 664,40 659,35 " style="fill:#a7d815; stroke-width:1; stroke:black; " description="&lt;b&gt;MCIC6FC_005808&lt;/b&gt;&lt;br&gt;hypothetical protein&lt;br&gt;Location: 1981136 - 1982256" locus_tag="MCIC6FC_005808" class="clusterblast-orf" id="dummy-3_q22_0_all"  />
<polygon points="669,35 674,30 701,30 701,40 674,40 669,35 " style="fill:#15d8a7; stroke-width:1; stroke:black; " description="&lt;b&gt;MCIC6FC_005809&lt;/b&gt;&lt;br&gt;hypothetical protein&lt;br&gt;Location: 1982279 - 1985697" locus_tag="MCIC6FC_005809" class="clusterblast-orf" id="dummy-3_q23_0_all"  />
<polygon points="705,40 715,40 720,35 715,30 705,30 705,40 " style="fill:#4615d8; stroke-width:1; stroke:black; " description="&lt;b&gt;MCIC6FC_005810&lt;/b&gt;&lt;br&gt;hypothetical protein&lt;br&gt;Location: 1986109 - 1987765" locus_tag="MCIC6FC_005810" class="clusterblast-orf" id="dummy-3_q24_0_all"  />
<polygon points="721,40 722,40 727,35 722,30 721,30 721,40 " style="fill:#d81546; stroke-width:1; stroke:black; " description="&lt;b&gt;MCIC6FC_005811&lt;/b&gt;&lt;br&gt;hypothetical protein&lt;br&gt;Location: 1987866 - 1988532" locus_tag="MCIC6FC_005811" class="clusterblast-orf" id="dummy-3_q25_0_all"  />
<polygon points="732,40 734,40 739,35 734,30 732,30 732,40 " style="fill:white; stroke-width:1; stroke:black; " description="&lt;b&gt;MCIC6FC_005812&lt;/b&gt;&lt;br&gt;hypothetical protein&lt;br&gt;Location: 1989036 - 1989803" locus_tag="MCIC6FC_005812" class="clusterblast-orf" id="dummy-3_q26_0_all"  />
<polygon points="739,35 744,30 780,30 780,40 744,40 739,35 " style="fill:white; stroke-width:1; stroke:black; " description="&lt;b&gt;MCIC6FC_005813&lt;/b&gt;&lt;br&gt;hypothetical protein&lt;br&gt;Location: 1989807 - 1994168" locus_tag="MCIC6FC_005813" class="clusterblast-orf" id="dummy-3_q27_0_all"  />
</g>
<g label="NZ_AP014627" description="NZ_AP014627 (4688867-4751597): Pseudomonas sp. Os17 (71% of genes show similarity), NRPS" class="clusterblast-cluster"  >
<text x="5" y="70" class="clusterblast-acc"  >
<a xlink:href="https://antismash-db.secondarymetabolites.org/area.html?record=NZ_AP014627&amp;start=4688867&amp;end=4751597" target="_blank">NZ_AP014627 (4688867-4751597)</a>: Pseudomonas sp. Os17 (71% of genes show similarity), NRPS</text>
<line x1="10" y1="85" x2="778.0" y2="85" style="stroke-width:1; stroke:grey; "  />
</g>
<g id="a3_000"  >
<polygon points="98,85 103,80 111,80 111,90 103,90 98,85 " style="fill:#d81515; stroke-width:1; stroke:black; " description="&lt;b&gt;POS17_RS20545&lt;/b&gt;&lt;br&gt;lysine N(6)-hydroxylase/L-ornithine N(5)-oxygenase family protein&lt;br&gt;Location: 4688868 - 4690205&lt;br&gt;&lt;br&gt;&lt;b&gt;BlastP hit with MCIC6FC_005786&lt;/b&gt;&lt;br&gt;Percentage identity: 90&lt;br&gt;Percentage coverage: 69&lt;br&gt;BLAST bit score: 810&lt;br&gt;E-value: 1.5e-232" locus_tag="POS17_RS20545" class="clusterblast-orf" id="dummy-3_h3_5_0"  />
</g>
<g id="a3_001"  >
<polygon points="112,85 116,80 116,90 112,85 " style="fill:#d81515; stroke-width:1; stroke:black; " description="&lt;b&gt;POS17_RS20550&lt;/b&gt;&lt;br&gt;sigma-70 family RNA polymerase sigma factor&lt;br&gt;Location: 4690355 - 4690834&lt;br&gt;&lt;br&gt;&lt;b&gt;BlastP hit with MCIC6FC_005786&lt;/b&gt;&lt;br&gt;Percentage identity: 98&lt;br&gt;Percentage coverage: 24&lt;br&gt;BLAST bit score: 302&lt;br&gt;E-value: 1e-79" locus_tag="POS17_RS20550" class="clusterblast-orf" id="dummy-3_h3_5_1"  />
</g>
<g id="a3_002"  >
<polygon points="119,90 125,90 130,85 125,80 119,80 119,90 " style="fill:#77d815; stroke-width:1; stroke:black; " description="&lt;b&gt;POS17_RS20555&lt;/b&gt;&lt;br&gt;efflux RND transporter periplasmic adaptor subunit&lt;br&gt;Location: 4691165 - 4692337&lt;br&gt;&lt;br&gt;&lt;b&gt;BlastP hit with MCIC6FC_005787&lt;/b&gt;&lt;br&gt;Percentage identity: 88&lt;br&gt;Percentage coverage: 26&lt;br&gt;BLAST bit score: 625&lt;br&gt;E-value: 1.6e-176" locus_tag="POS17_RS20555" class="clusterblast-orf" id="dummy-3_h3_5_2"  />
</g>
<g id="a3_003"  >
<polygon points="130,90 144,90 149,85 144,80 130,80 130,90 " style="fill:#77d815; stroke-width:1; stroke:black; " description="&lt;b&gt;POS17_RS20560&lt;/b&gt;&lt;br&gt;MacB family efflux pump subunit&lt;br&gt;Location: 4692338 - 4694311&lt;br&gt;&lt;br&gt;&lt;b&gt;BlastP hit with MCIC6FC_005787&lt;/b&gt;&lt;br&gt;Percentage identity: 91&lt;br&gt;Percentage coverage: 43&lt;br&gt;BLAST bit score: 1117&lt;br&gt;E-value: 0.0" locus_tag="POS17_RS20560" class="clusterblast-orf" id="dummy-3_h3_5_3"  />
</g>
<g id="a3_004"  >
<polygon points="149,90 157,90 162,85 157,80 149,80 149,90 " style="fill:#77d815; stroke-width:1; stroke:black; " description="&lt;b&gt;POS17_RS20565&lt;/b&gt;&lt;br&gt;efflux transporter outer membrane subunit&lt;br&gt;Location: 4694319 - 4695710&lt;br&gt;&lt;br&gt;&lt;b&gt;BlastP hit with MCIC6FC_005787&lt;/b&gt;&lt;br&gt;Percentage identity: 75&lt;br&gt;Percentage coverage: 31&lt;br&gt;BLAST bit score: 616&lt;br&gt;E-value: 5.8e-174" locus_tag="POS17_RS20565" class="clusterblast-orf" id="dummy-3_h3_5_4"  />
</g>
<g id="a3_005"  >
<polygon points="163,90 166,85 163,80 163,90 " style="fill:white; stroke-width:1; stroke:black; " description="&lt;b&gt;POS17_RS20570&lt;/b&gt;&lt;br&gt;DUF3349 domain-containing protein&lt;br&gt;Location: 4695827 - 4696126" locus_tag="POS17_RS20570" class="clusterblast-orf" id="dummy-3_h3_5_5"  />
</g>
<g id="a3_006"  >
<polygon points="166,90 170,85 166,80 166,90 " style="fill:white; stroke-width:1; stroke:black; " description="&lt;b&gt;POS17_RS20575&lt;/b&gt;&lt;br&gt;SMI1/KNR4 family protein&lt;br&gt;Location: 4696155 - 4696591" locus_tag="POS17_RS20575" class="clusterblast-orf" id="dummy-3_h3_5_6"  />
</g>
<g id="a3_007"  >
<polygon points="170,85 175,80 185,80 185,90 175,90 170,85 " style="fill:#15d8d8; stroke-width:1; stroke:black; " description="&lt;b&gt;POS17_RS20580&lt;/b&gt;&lt;br&gt;hypothetical protein&lt;br&gt;Location: 4696642 - 4698270&lt;br&gt;&lt;br&gt;&lt;b&gt;BlastP hit with MCIC6FC_005788&lt;/b&gt;&lt;br&gt;Percentage identity: 59&lt;br&gt;Percentage coverage: 100&lt;br&gt;BLAST bit score: 676&lt;br&gt;E-value: 2.3e-192" locus_tag="POS17_RS20580" class="clusterblast-orf" id="dummy-3_h3_5_7"  />
</g>
<g id="a3_008"  >
<polygon points="187,90 195,90 200,85 195,80 187,80 187,90 " style="fill:#7715d8; stroke-width:1; stroke:black; " description="&lt;b&gt;POS17_RS20585&lt;/b&gt;&lt;br&gt;pyoverdine-tailoring dipeptidase-like protein PvdM&lt;br&gt;Location: 4698444 - 4699793&lt;br&gt;&lt;br&gt;&lt;b&gt;BlastP hit with MCIC6FC_005789&lt;/b&gt;&lt;br&gt;Percentage identity: 71&lt;br&gt;Percentage coverage: 52&lt;br&gt;BLAST bit score: 666&lt;br&gt;E-value: 2.8e-189" locus_tag="POS17_RS20585" class="clusterblast-orf" id="dummy-3_h3_5_8"  />
</g>
<g id="a3_009"  >
<polygon points="200,90 207,90 212,85 207,80 200,80 200,90 " style="fill:#7715d8; stroke-width:1; stroke:black; " description="&lt;b&gt;POS17_RS20590&lt;/b&gt;&lt;br&gt;aminotransferase class V-fold PLP-dependent enzyme&lt;br&gt;Location: 4699826 - 4701112&lt;br&gt;&lt;br&gt;&lt;b&gt;BlastP hit with MCIC6FC_005789&lt;/b&gt;&lt;br&gt;Percentage identity: 65&lt;br&gt;Percentage coverage: 49&lt;br&gt;BLAST bit score: 577&lt;br&gt;E-value: 1.7e-162" locus_tag="POS17_RS20590" class="clusterblast-orf" id="dummy-3_h3_5_9"  />
</g>
<g id="a3_0010"  >
<polygon points="212,90 216,90 221,85 216,80 212,80 212,90 " style="fill:#d84615; stroke-width:1; stroke:black; " description="&lt;b&gt;POS17_RS20595&lt;/b&gt;&lt;br&gt;formylglycine-generating enzyme family protein&lt;br&gt;Location: 4701160 - 4702050&lt;br&gt;&lt;br&gt;&lt;b&gt;BlastP hit with MCIC6FC_005790&lt;/b&gt;&lt;br&gt;Percentage identity: 65&lt;br&gt;Percentage coverage: 97&lt;br&gt;BLAST bit score: 398&lt;br&gt;E-value: 4.9e-109" locus_tag="POS17_RS20595" class="clusterblast-orf" id="dummy-3_h3_5_10"  />
</g>
<g id="a3_0011"  >
<polygon points="221,90 225,90 230,85 225,80 221,80 221,90 " style="fill:white; stroke-width:1; stroke:black; " description="&lt;b&gt;POS17_RS20600&lt;/b&gt;&lt;br&gt;acetyltransferase&lt;br&gt;Location: 4702083 - 4703102" locus_tag="POS17_RS20600" class="clusterblast-orf" id="dummy-3_h3_5_11"  />
</g>
<g id="a3_0012"  >
<polygon points="233,90 244,90 249,85 244,80 233,80 233,90 " style="fill:#15a7d8; stroke-width:1; stroke:black; " description="&lt;b&gt;POS17_RS20605&lt;/b&gt;&lt;br&gt;cyclic peptide export ABC transporter&lt;br&gt;Location: 4703427 - 4705082&lt;br&gt;&lt;br&gt;&lt;b&gt;BlastP hit with MCIC6FC_005792&lt;/b&gt;&lt;br&gt;Percentage identity: 69&lt;br&gt;Percentage coverage: 39&lt;br&gt;BLAST bit score: 710&lt;br&gt;E-value: 4.7e-202" locus_tag="POS17_RS20605" class="clusterblast-orf" id="dummy-3_h3_5_12"  />
</g>
<g id="a3_0013"  >
<polygon points="250,90 268,90 273,85 268,80 250,80 250,90 " style="fill:#15a7d8; stroke-width:1; stroke:black; " description="&lt;b&gt;POS17_RS20610&lt;/b&gt;&lt;br&gt;TonB-dependent siderophore receptor&lt;br&gt;Location: 4705195 - 4707672&lt;br&gt;&lt;br&gt;&lt;b&gt;BlastP hit with MCIC6FC_005792&lt;/b&gt;&lt;br&gt;Percentage identity: 38&lt;br&gt;Percentage coverage: 60&lt;br&gt;BLAST bit score: 517&lt;br&gt;E-value: 3.4e-144" locus_tag="POS17_RS20610" class="clusterblast-orf" id="dummy-3_h3_5_13"  />
</g>
<g id="a3_0014"  >
<polygon points="279,85 284,80 377,80 377,90 284,90 279,85 " style="fill:#a715d8; stroke-width:1; stroke:black; " description="&lt;b&gt;POS17_RS20615&lt;/b&gt;&lt;br&gt;non-ribosomal peptide synthetase&lt;br&gt;Location: 4708337 - 4718905&lt;br&gt;&lt;br&gt;&lt;b&gt;BlastP hit with MCIC6FC_005793&lt;/b&gt;&lt;br&gt;Percentage identity: 52&lt;br&gt;Percentage coverage: 34&lt;br&gt;BLAST bit score: 3386&lt;br&gt;E-value: 0.0" locus_tag="POS17_RS20615" class="clusterblast-orf" id="dummy-3_h3_5_14"  />
</g>
<g id="a3_0015"  >
<polygon points="377,85 382,80 406,80 406,90 382,90 377,85 " style="fill:white; stroke-width:1; stroke:black; " description="&lt;b&gt;POS17_RS20620&lt;/b&gt;&lt;br&gt;non-ribosomal peptide synthetase&lt;br&gt;Location: 4718905 - 4721976" locus_tag="POS17_RS20620" class="clusterblast-orf" id="dummy-3_h3_5_15"  />
</g>
<g id="a3_0016"  >
<polygon points="406,85 411,80 416,80 416,90 411,90 406,85 " style="fill:white; stroke-width:1; stroke:black; " description="&lt;b&gt;POS17_RS20625&lt;/b&gt;&lt;br&gt;TauD/TfdA family dioxygenase&lt;br&gt;Location: 4721987 - 4723045" locus_tag="POS17_RS20625" class="clusterblast-orf" id="dummy-3_h3_5_16"  />
</g>
<g id="a3_0017"  >
<polygon points="416,85 421,80 503,80 503,90 421,90 416,85 " style="fill:#a715d8; stroke-width:1; stroke:black; " description="&lt;b&gt;POS17_RS20630&lt;/b&gt;&lt;br&gt;non-ribosomal peptide synthetase&lt;br&gt;Location: 4723114 - 4732410&lt;br&gt;&lt;br&gt;&lt;b&gt;BlastP hit with MCIC6FC_005793&lt;/b&gt;&lt;br&gt;Percentage identity: 47&lt;br&gt;Percentage coverage: 28&lt;br&gt;BLAST bit score: 2369&lt;br&gt;E-value: 0.0" locus_tag="POS17_RS20630" class="clusterblast-orf" id="dummy-3_h3_5_17"  />
</g>
<g id="a3_0018"  >
<polygon points="504,90 508,90 513,85 508,80 504,80 504,90 " style="fill:#d87715; stroke-width:1; stroke:black; " description="&lt;b&gt;POS17_RS20635&lt;/b&gt;&lt;br&gt;siderophore-interacting protein&lt;br&gt;Location: 4732586 - 4733554&lt;br&gt;&lt;br&gt;&lt;b&gt;BlastP hit with MCIC6FC_005794&lt;/b&gt;&lt;br&gt;Percentage identity: 83&lt;br&gt;Percentage coverage: 100&lt;br&gt;BLAST bit score: 548&lt;br&gt;E-value: 4.2e-154" locus_tag="POS17_RS20635" class="clusterblast-orf" id="dummy-3_h3_5_18"  />
</g>
<g id="a3_0019"  >
<polygon points="515,85 520,80 522,80 522,90 520,90 515,85 " style="fill:#15d815; stroke-width:1; stroke:black; " description="&lt;b&gt;POS17_RS20640&lt;/b&gt;&lt;br&gt;thioesterase&lt;br&gt;Location: 4733731 - 4734471&lt;br&gt;&lt;br&gt;&lt;b&gt;BlastP hit with MCIC6FC_005795&lt;/b&gt;&lt;br&gt;Percentage identity: 87&lt;br&gt;Percentage coverage: 40&lt;br&gt;BLAST bit score: 440&lt;br&gt;E-value: 2.3e-121" locus_tag="POS17_RS20640" class="clusterblast-orf" id="dummy-3_h3_5_19"  />
</g>
<g id="a3_0020"  >
<polygon points="522,85 527,80 533,80 533,90 527,90 522,85 " style="fill:#15d815; stroke-width:1; stroke:black; " description="&lt;b&gt;POS17_RS20645&lt;/b&gt;&lt;br&gt;MFS transporter&lt;br&gt;Location: 4734544 - 4735716&lt;br&gt;&lt;br&gt;&lt;b&gt;BlastP hit with MCIC6FC_005795&lt;/b&gt;&lt;br&gt;Percentage identity: 88&lt;br&gt;Percentage coverage: 62&lt;br&gt;BLAST bit score: 599&lt;br&gt;E-value: 3e-169" locus_tag="POS17_RS20645" class="clusterblast-orf" id="dummy-3_h3_5_20"  />
</g>
<g id="a3_0021"  >
<polygon points="535,90 535,90 540,85 535,80 535,80 535,90 " style="fill:#1577d8; stroke-width:1; stroke:black; " description="&lt;b&gt;POS17_RS20650&lt;/b&gt;&lt;br&gt;TetR/AcrR family transcriptional regulator&lt;br&gt;Location: 4735851 - 4736438&lt;br&gt;&lt;br&gt;&lt;b&gt;BlastP hit with MCIC6FC_005796&lt;/b&gt;&lt;br&gt;Percentage identity: 88&lt;br&gt;Percentage coverage: 98&lt;br&gt;BLAST bit score: 312&lt;br&gt;E-value: 3.1e-83" locus_tag="POS17_RS20650" class="clusterblast-orf" id="dummy-3_h3_5_21"  />
</g>
<g id="a3_0022"  >
<polygon points="541,90 545,85 541,80 541,90 " style="fill:white; stroke-width:1; stroke:black; " description="&lt;b&gt;POS17_RS20655&lt;/b&gt;&lt;br&gt;glyoxalase/bleomycin resistance/dioxygenase family protein&lt;br&gt;Location: 4736581 - 4736949" locus_tag="POS17_RS20655" class="clusterblast-orf" id="dummy-3_h3_5_22"  />
</g>
<g id="a3_0023"  >
<polygon points="545,90 545,90 550,85 545,80 545,80 545,90 " style="fill:white; stroke-width:1; stroke:black; " description="&lt;b&gt;POS17_RS20660&lt;/b&gt;&lt;br&gt;cysteine hydrolase family protein&lt;br&gt;Location: 4737007 - 4737468" locus_tag="POS17_RS20660" class="clusterblast-orf" id="dummy-3_h3_5_23"  />
</g>
<g id="a3_0024"  >
<polygon points="550,90 554,85 550,80 550,90 " style="fill:white; stroke-width:1; stroke:black; " description="&lt;b&gt;POS17_RS20665&lt;/b&gt;&lt;br&gt;hypothetical protein&lt;br&gt;Location: 4737552 - 4737938" locus_tag="POS17_RS20665" class="clusterblast-orf" id="dummy-3_h3_5_24"  />
</g>
<g id="a3_0025"  >
<polygon points="554,90 558,85 554,80 554,90 " style="fill:white; stroke-width:1; stroke:black; " description="&lt;b&gt;POS17_RS20670&lt;/b&gt;&lt;br&gt;hypothetical protein&lt;br&gt;Location: 4737972 - 4738424" locus_tag="POS17_RS20670" class="clusterblast-orf" id="dummy-3_h3_5_25"  />
</g>
<g id="a3_0026"  >
<polygon points="559,90 562,90 567,85 562,80 559,80 559,90 " style="fill:white; stroke-width:1; stroke:black; " description="&lt;b&gt;POS17_RS20675&lt;/b&gt;&lt;br&gt;alpha/beta hydrolase&lt;br&gt;Location: 4738482 - 4739387" locus_tag="POS17_RS20675" class="clusterblast-orf" id="dummy-3_h3_5_26"  />
</g>
<g id="a3_0027"  >
<polygon points="568,90 568,90 573,85 568,80 568,80 568,90 " style="fill:white; stroke-width:1; stroke:black; " description="&lt;b&gt;POS17_RS20680&lt;/b&gt;&lt;br&gt;hypothetical protein&lt;br&gt;Location: 4739465 - 4739938" locus_tag="POS17_RS20680" class="clusterblast-orf" id="dummy-3_h3_5_27"  />
</g>
<g id="a3_0028"  >
<polygon points="573,90 581,90 586,85 581,80 573,80 573,90 " style="fill:#d8a715; stroke-width:1; stroke:black; " description="&lt;b&gt;POS17_RS20685&lt;/b&gt;&lt;br&gt;TIGR01777 family protein&lt;br&gt;Location: 4739954 - 4741396&lt;br&gt;&lt;br&gt;&lt;b&gt;BlastP hit with MCIC6FC_005798&lt;/b&gt;&lt;br&gt;Percentage identity: 87&lt;br&gt;Percentage coverage: 21&lt;br&gt;BLAST bit score: 797&lt;br&gt;E-value: 2.8e-228" locus_tag="POS17_RS20685" class="clusterblast-orf" id="dummy-3_h3_5_28"  />
</g>
<g id="a3_0029"  >
<polygon points="586,90 604,90 609,85 604,80 586,80 586,90 " style="fill:#d8a715; stroke-width:1; stroke:black; " description="&lt;b&gt;POS17_RS20690&lt;/b&gt;&lt;br&gt;alpha/beta hydrolase&lt;br&gt;Location: 4741411 - 4743849&lt;br&gt;&lt;br&gt;&lt;b&gt;BlastP hit with MCIC6FC_005798&lt;/b&gt;&lt;br&gt;Percentage identity: 93&lt;br&gt;Percentage coverage: 36&lt;br&gt;BLAST bit score: 1565&lt;br&gt;E-value: 0.0" locus_tag="POS17_RS20690" class="clusterblast-orf" id="dummy-3_h3_5_29"  />
</g>
<g id="a3_0030"  >
<polygon points="609,85 614,80 618,80 618,90 614,90 609,85 " style="fill:#15d846; stroke-width:1; stroke:black; " description="&lt;b&gt;POS17_RS20695&lt;/b&gt;&lt;br&gt;GlxA family transcriptional regulator&lt;br&gt;Location: 4743866 - 4744849&lt;br&gt;&lt;br&gt;&lt;b&gt;BlastP hit with MCIC6FC_005799&lt;/b&gt;&lt;br&gt;Percentage identity: 90&lt;br&gt;Percentage coverage: 100&lt;br&gt;BLAST bit score: 581&lt;br&gt;E-value: 4.5e-164&lt;br&gt;&lt;br&gt;&lt;b&gt;BlastP hit with MCIC6FC_005800&lt;/b&gt;&lt;br&gt;Percentage identity: 35&lt;br&gt;Percentage coverage: 104&lt;br&gt;BLAST bit score: 96&lt;br&gt;E-value: 4e-18" locus_tag="POS17_RS20695" class="clusterblast-orf" id="dummy-3_h3_5_30"  />
</g>
<g id="a3_0031"  >
<polygon points="619,90 620,90 625,85 620,80 619,80 619,90 " style="fill:#15d846; stroke-width:1; stroke:black; " description="&lt;b&gt;POS17_RS20700&lt;/b&gt;&lt;br&gt;DJ-1/PfpI family protein&lt;br&gt;Location: 4744942 - 4745628&lt;br&gt;&lt;br&gt;&lt;b&gt;BlastP hit with MCIC6FC_005799&lt;/b&gt;&lt;br&gt;Percentage identity: 37&lt;br&gt;Percentage coverage: 57&lt;br&gt;BLAST bit score: 94&lt;br&gt;E-value: 1.7e-17&lt;br&gt;&lt;br&gt;&lt;b&gt;BlastP hit with MCIC6FC_005800&lt;/b&gt;&lt;br&gt;Percentage identity: 90&lt;br&gt;Percentage coverage: 100&lt;br&gt;BLAST bit score: 405&lt;br&gt;E-value: 3.1e-111" locus_tag="POS17_RS20700" class="clusterblast-orf" id="dummy-3_h3_5_31"  />
</g>
<g id="a3_0032"  >
<polygon points="626,85 629,80 629,90 626,85 " style="fill:#1546d8; stroke-width:1; stroke:black; " description="&lt;b&gt;POS17_RS20705&lt;/b&gt;&lt;br&gt;antibiotic biosynthesis monooxygenase&lt;br&gt;Location: 4745657 - 4746001&lt;br&gt;&lt;br&gt;&lt;b&gt;BlastP hit with MCIC6FC_005801&lt;/b&gt;&lt;br&gt;Percentage identity: 98&lt;br&gt;Percentage coverage: 100&lt;br&gt;BLAST bit score: 232&lt;br&gt;E-value: 2.3e-59" locus_tag="POS17_RS20705" class="clusterblast-orf" id="dummy-3_h3_5_32"  />
</g>
<g id="a3_0033"  >
<polygon points="629,85 634,80 635,80 635,90 634,90 629,85 " style="fill:#d815a7; stroke-width:1; stroke:black; " description="&lt;b&gt;POS17_RS20710&lt;/b&gt;&lt;br&gt;LysE family translocator&lt;br&gt;Location: 4746028 - 4746660&lt;br&gt;&lt;br&gt;&lt;b&gt;BlastP hit with MCIC6FC_005802&lt;/b&gt;&lt;br&gt;Percentage identity: 84&lt;br&gt;Percentage coverage: 107&lt;br&gt;BLAST bit score: 322&lt;br&gt;E-value: 3.9e-86" locus_tag="POS17_RS20710" class="clusterblast-orf" id="dummy-3_h3_5_33"  />
</g>
<g id="a3_0034"  >
<polygon points="636,90 643,90 648,85 643,80 636,80 636,90 " style="fill:#d8d815; stroke-width:1; stroke:black; " description="&lt;b&gt;POS17_RS20715&lt;/b&gt;&lt;br&gt;PLP-dependent aminotransferase family protein&lt;br&gt;Location: 4746750 - 4748075&lt;br&gt;&lt;br&gt;&lt;b&gt;BlastP hit with MCIC6FC_005803&lt;/b&gt;&lt;br&gt;Percentage identity: 89&lt;br&gt;Percentage coverage: 108&lt;br&gt;BLAST bit score: 741&lt;br&gt;E-value: 4.3e-212" locus_tag="POS17_RS20715" class="clusterblast-orf" id="dummy-3_h3_5_34"  />
</g>
<g id="a3_0035"  >
<polygon points="650,85 655,80 658,80 658,90 655,90 650,85 " style="fill:#15d877; stroke-width:1; stroke:black; " description="&lt;b&gt;POS17_RS20720&lt;/b&gt;&lt;br&gt;phosphotransferase&lt;br&gt;Location: 4748309 - 4749112&lt;br&gt;&lt;br&gt;&lt;b&gt;BlastP hit with MCIC6FC_005804&lt;/b&gt;&lt;br&gt;Percentage identity: 91&lt;br&gt;Percentage coverage: 100&lt;br&gt;BLAST bit score: 492&lt;br&gt;E-value: 2.2e-137" locus_tag="POS17_RS20720" class="clusterblast-orf" id="dummy-3_h3_5_35"  />
</g>
<g id="a3_0036"  >
<polygon points="659,85 663,80 663,90 659,85 " style="fill:#1515d8; stroke-width:1; stroke:black; " description="&lt;b&gt;POS17_RS20725&lt;/b&gt;&lt;br&gt;SRPBCC family protein&lt;br&gt;Location: 4749242 - 4749700&lt;br&gt;&lt;br&gt;&lt;b&gt;BlastP hit with MCIC6FC_005806&lt;/b&gt;&lt;br&gt;Percentage identity: 80&lt;br&gt;Percentage coverage: 104&lt;br&gt;BLAST bit score: 248&lt;br&gt;E-value: 3.1e-64" locus_tag="POS17_RS20725" class="clusterblast-orf" id="dummy-3_h3_5_36"  />
</g>
<g id="a3_0037"  >
<polygon points="664,90 672,90 677,85 672,80 664,80 664,90 " style="fill:#d81577; stroke-width:1; stroke:black; " description="&lt;b&gt;POS17_RS20730&lt;/b&gt;&lt;br&gt;ADP-ribosylglycohydrolase family protein&lt;br&gt;Location: 4749834 - 4751156&lt;br&gt;&lt;br&gt;&lt;b&gt;BlastP hit with MCIC6FC_005807&lt;/b&gt;&lt;br&gt;Percentage identity: 84&lt;br&gt;Percentage coverage: 78&lt;br&gt;BLAST bit score: 770&lt;br&gt;E-value: 1.5e-220" locus_tag="POS17_RS20730" class="clusterblast-orf" id="dummy-3_h3_5_37"  />
</g>
<g id="a3_0038"  >
<polygon points="677,90 681,85 677,80 677,90 " style="fill:#d81577; stroke-width:1; stroke:black; " description="&lt;b&gt;POS17_RS20735&lt;/b&gt;&lt;br&gt;DUF1311 domain-containing protein&lt;br&gt;Location: 4751196 - 4751597&lt;br&gt;&lt;br&gt;&lt;b&gt;BlastP hit with MCIC6FC_005807&lt;/b&gt;&lt;br&gt;Percentage identity: 86&lt;br&gt;Percentage coverage: 24&lt;br&gt;BLAST bit score: 240&lt;br&gt;E-value: 5.5e-61" locus_tag="POS17_RS20735" class="clusterblast-orf" id="dummy-3_h3_5_38"  />
</g>
</svg>
