<svg xmlns="http://www.w3.org/2000/svg" xmlns:xlink="http://www.w3.org/1999/xlink" version="1.1" x="0" y="0" height="230" width="800" viewBox="0 0 800 230" preserveAspectRatio="none"  >
<g label="Query sequence" class="clusterblast-cluster"  >
<text x="5" y="20" class="clusterblast-acc"  >
Query sequence</text>
<line x1="10" y1="35" x2="778.0" y2="35" style="stroke-width:1; stroke:grey; "  />
<polygon points="317,40 323,40 328,35 323,30 317,30 317,40 " style="fill:white; stroke-width:1; stroke:black; " description="&lt;b&gt;MCIC6FC_016543&lt;/b&gt;&lt;br&gt;hypothetical protein&lt;br&gt;Location: 57084 - 57922" locus_tag="MCIC6FC_016543" class="clusterblast-orf" id="dummy-1_q0_0_all"  />
<polygon points="328,35 333,30 359,30 359,40 333,40 328,35 " style="fill:#d81515; stroke-width:1; stroke:black; " description="&lt;b&gt;MCIC6FC_016544&lt;/b&gt;&lt;br&gt;hypothetical protein&lt;br&gt;Location: 57942 - 60485" locus_tag="MCIC6FC_016544" class="clusterblast-orf" id="dummy-1_q1_0_all"  />
<polygon points="364,40 369,40 374,35 369,30 364,30 364,40 " style="fill:#15d815; stroke-width:1; stroke:black; " description="&lt;b&gt;MCIC6FC_016545&lt;/b&gt;&lt;br&gt;hypothetical protein&lt;br&gt;Location: 60876 - 61749" locus_tag="MCIC6FC_016545" class="clusterblast-orf" id="dummy-1_q2_0_all"  />
<polygon points="378,40 457,40 462,35 457,30 378,30 378,40 " style="fill:#1515d8; stroke-width:1; stroke:black; " description="&lt;b&gt;MCIC6FC_016546&lt;/b&gt;&lt;br&gt;hypothetical protein&lt;br&gt;Location: 62021 - 68916" locus_tag="MCIC6FC_016546" class="clusterblast-orf" id="dummy-1_q3_0_all"  />
</g>
<g label="NZ_CP033055" description="NZ_CP033055 (1835630-1899573): Serratia sp. 3ACOL1 chromosome, complete genome (7% of genes show similarity), NRPS" class="clusterblast-cluster"  >
<text x="5" y="70" class="clusterblast-acc"  >
<a xlink:href="https://antismash-db.secondarymetabolites.org/area.html?record=NZ_CP033055&amp;start=1835630&amp;end=1899573" target="_blank">NZ_CP033055 (1835630-1899573)</a>: Serratia sp. 3ACOL1 chromosome, complete genome (7% of genes show similarity), NRPS</text>
<line x1="10" y1="85" x2="778.0" y2="85" style="stroke-width:1; stroke:grey; "  />
</g>
<g id="a1_000"  >
<polygon points="0,90 0,90 5,85 0,80 0,80 0,90 " style="fill:white; stroke-width:1; stroke:black; " description="&lt;b&gt;D9980_RS08440&lt;/b&gt;&lt;br&gt;hypothetical protein&lt;br&gt;Location: 1835631 - 1836113" locus_tag="D9980_RS08440" class="clusterblast-orf" id="dummy-1_h1_5_0"  />
</g>
<g id="a1_001"  >
<polygon points="9,90 11,90 16,85 11,80 9,80 9,90 " style="fill:white; stroke-width:1; stroke:black; " description="&lt;b&gt;D9980_RS08450&lt;/b&gt;&lt;br&gt;3'-5' exoribonuclease&lt;br&gt;Location: 1836409 - 1836969" locus_tag="D9980_RS08450" class="clusterblast-orf" id="dummy-1_h1_5_1"  />
</g>
<g id="a1_002"  >
<polygon points="17,90 27,90 32,85 27,80 17,80 17,90 " style="fill:white; stroke-width:1; stroke:black; " description="&lt;b&gt;D9980_RS08455&lt;/b&gt;&lt;br&gt;multidrug effflux MFS transporter&lt;br&gt;Location: 1837092 - 1838285" locus_tag="D9980_RS08455" class="clusterblast-orf" id="dummy-1_h1_5_2"  />
</g>
<g id="a1_003"  >
<polygon points="32,85 37,80 45,80 45,90 37,90 32,85 " style="fill:white; stroke-width:1; stroke:black; " description="&lt;b&gt;D9980_RS08460&lt;/b&gt;&lt;br&gt;catabolic alanine racemase DadX&lt;br&gt;Location: 1838288 - 1839363" locus_tag="D9980_RS08460" class="clusterblast-orf" id="dummy-1_h1_5_3"  />
</g>
<g id="a1_004"  >
<polygon points="45,85 50,80 61,80 61,90 50,90 45,85 " style="fill:white; stroke-width:1; stroke:black; " description="&lt;b&gt;D9980_RS08465&lt;/b&gt;&lt;br&gt;D-amino acid dehydrogenase&lt;br&gt;Location: 1839387 - 1840691" locus_tag="D9980_RS08465" class="clusterblast-orf" id="dummy-1_h1_5_4"  />
</g>
<g id="a1_005"  >
<polygon points="62,85 65,80 65,90 62,85 " style="fill:white; stroke-width:1; stroke:black; " description="&lt;b&gt;D9980_RS08470&lt;/b&gt;&lt;br&gt;hypothetical protein&lt;br&gt;Location: 1840762 - 1841016" locus_tag="D9980_RS08470" class="clusterblast-orf" id="dummy-1_h1_5_5"  />
</g>
<g id="a1_006"  >
<polygon points="68,90 81,90 86,85 81,80 68,80 68,90 " style="fill:white; stroke-width:1; stroke:black; " description="&lt;b&gt;D9980_RS08475&lt;/b&gt;&lt;br&gt;SpoVR family protein&lt;br&gt;Location: 1841218 - 1842753" locus_tag="D9980_RS08475" class="clusterblast-orf" id="dummy-1_h1_5_6"  />
</g>
<g id="a1_007"  >
<polygon points="87,85 92,80 96,80 96,90 92,90 87,85 " style="fill:white; stroke-width:1; stroke:black; " description="&lt;b&gt;D9980_RS08480&lt;/b&gt;&lt;br&gt;fatty acid metabolism transcriptional regulator FadR&lt;br&gt;Location: 1842821 - 1843540" locus_tag="D9980_RS08480" class="clusterblast-orf" id="dummy-1_h1_5_7"  />
</g>
<g id="a1_008"  >
<polygon points="99,90 113,90 118,85 113,80 99,80 99,90 " style="fill:white; stroke-width:1; stroke:black; " description="&lt;b&gt;D9980_RS08485&lt;/b&gt;&lt;br&gt;sodium/proton antiporter NhaB&lt;br&gt;Location: 1843784 - 1845358" locus_tag="D9980_RS08485" class="clusterblast-orf" id="dummy-1_h1_5_8"  />
</g>
<g id="a1_009"  >
<polygon points="120,90 121,90 126,85 121,80 120,80 120,90 " style="fill:white; stroke-width:1; stroke:black; " description="&lt;b&gt;D9980_RS08490&lt;/b&gt;&lt;br&gt;disulfide bond formation protein DsbB&lt;br&gt;Location: 1845481 - 1846011" locus_tag="D9980_RS08490" class="clusterblast-orf" id="dummy-1_h1_5_9"  />
</g>
<g id="a1_0010"  >
<polygon points="134,90 140,90 145,85 140,80 134,80 134,90 " style="fill:white; stroke-width:1; stroke:black; " description="&lt;b&gt;D9980_RS08495&lt;/b&gt;&lt;br&gt;3-deoxy-D-manno-oct-2-ulosonic acid (Kdo) hydroxylase&lt;br&gt;Location: 1846679 - 1847578" locus_tag="D9980_RS08495" class="clusterblast-orf" id="dummy-1_h1_5_10"  />
</g>
<g id="a1_0011"  >
<polygon points="147,90 147,90 152,85 147,80 147,80 147,90 " style="fill:white; stroke-width:1; stroke:black; " description="&lt;b&gt;D9980_RS08500&lt;/b&gt;&lt;br&gt;universal stress protein&lt;br&gt;Location: 1847719 - 1848156" locus_tag="D9980_RS08500" class="clusterblast-orf" id="dummy-1_h1_5_11"  />
</g>
<g id="a1_0012"  >
<polygon points="155,85 160,80 160,80 160,90 160,90 155,85 " style="fill:white; stroke-width:1; stroke:black; " description="&lt;b&gt;D9980_RS08505&lt;/b&gt;&lt;br&gt;YcgN family cysteine cluster protein&lt;br&gt;Location: 1848360 - 1848806" locus_tag="D9980_RS08505" class="clusterblast-orf" id="dummy-1_h1_5_12"  />
</g>
<g id="a1_0013"  >
<polygon points="163,85 168,80 171,80 171,90 168,90 163,85 " style="fill:white; stroke-width:1; stroke:black; " description="&lt;b&gt;D9980_RS08510&lt;/b&gt;&lt;br&gt;fumarylacetoacetate hydrolase family protein&lt;br&gt;Location: 1849019 - 1849675" locus_tag="D9980_RS08510" class="clusterblast-orf" id="dummy-1_h1_5_13"  />
</g>
<g id="a1_0014"  >
<polygon points="172,85 177,80 184,80 184,90 177,90 172,85 " style="fill:white; stroke-width:1; stroke:black; " description="&lt;b&gt;D9980_RS08515&lt;/b&gt;&lt;br&gt;lytic murein transglycosylase&lt;br&gt;Location: 1849766 - 1850794" locus_tag="D9980_RS08515" class="clusterblast-orf" id="dummy-1_h1_5_14"  />
</g>
<g id="a1_0015"  >
<polygon points="186,85 189,80 189,90 186,85 " style="fill:white; stroke-width:1; stroke:black; " description="&lt;b&gt;D9980_RS08520&lt;/b&gt;&lt;br&gt;hypothetical protein&lt;br&gt;Location: 1850882 - 1851154" locus_tag="D9980_RS08520" class="clusterblast-orf" id="dummy-1_h1_5_15"  />
</g>
<g id="a1_0016"  >
<polygon points="191,90 194,90 199,85 194,80 191,80 191,90 " style="fill:white; stroke-width:1; stroke:black; " description="&lt;b&gt;D9980_RS08525&lt;/b&gt;&lt;br&gt;septum site-determining protein MinC&lt;br&gt;Location: 1851290 - 1851982" locus_tag="D9980_RS08525" class="clusterblast-orf" id="dummy-1_h1_5_16"  />
</g>
<g id="a1_0017"  >
<polygon points="199,90 204,90 209,85 204,80 199,80 199,90 " style="fill:white; stroke-width:1; stroke:black; " description="&lt;b&gt;D9980_RS08530&lt;/b&gt;&lt;br&gt;septum site-determining protein MinD&lt;br&gt;Location: 1852008 - 1852820" locus_tag="D9980_RS08530" class="clusterblast-orf" id="dummy-1_h1_5_17"  />
</g>
<g id="a1_0018"  >
<polygon points="209,90 213,85 209,80 209,90 " style="fill:white; stroke-width:1; stroke:black; " description="&lt;b&gt;D9980_RS08535&lt;/b&gt;&lt;br&gt;cell division topological specificity factor MinE&lt;br&gt;Location: 1852824 - 1853093" locus_tag="D9980_RS08535" class="clusterblast-orf" id="dummy-1_h1_5_18"  />
</g>
<g id="a1_0019"  >
<polygon points="215,85 220,80 229,80 229,90 220,90 215,85 " style="fill:white; stroke-width:1; stroke:black; " description="&lt;b&gt;D9980_RS08540&lt;/b&gt;&lt;br&gt;ribonuclease D&lt;br&gt;Location: 1853328 - 1854449" locus_tag="D9980_RS08540" class="clusterblast-orf" id="dummy-1_h1_5_19"  />
</g>
<g id="a1_0020"  >
<polygon points="230,85 235,80 251,80 251,90 235,90 230,85 " style="fill:white; stroke-width:1; stroke:black; " description="&lt;b&gt;D9980_RS08545&lt;/b&gt;&lt;br&gt;long-chain-fatty-acid--CoA ligase FadD&lt;br&gt;Location: 1854539 - 1856227" locus_tag="D9980_RS08545" class="clusterblast-orf" id="dummy-1_h1_5_20"  />
</g>
<g id="a1_0021"  >
<polygon points="254,85 259,80 261,80 261,90 259,90 254,85 " style="fill:white; stroke-width:1; stroke:black; " description="&lt;b&gt;D9980_RS08550&lt;/b&gt;&lt;br&gt;Slp family lipoprotein&lt;br&gt;Location: 1856458 - 1857048" locus_tag="D9980_RS08550" class="clusterblast-orf" id="dummy-1_h1_5_21"  />
</g>
<g id="a1_0022"  >
<polygon points="262,85 267,80 271,80 271,90 267,90 262,85 " style="fill:white; stroke-width:1; stroke:black; " description="&lt;b&gt;D9980_RS08555&lt;/b&gt;&lt;br&gt;tRNA (adenosine(37)-N6)-threonylcarbamoyltransferase complex dimerization subunit type 1 TsaB&lt;br&gt;Location: 1857154 - 1857855" locus_tag="D9980_RS08555" class="clusterblast-orf" id="dummy-1_h1_5_22"  />
</g>
<g id="a1_0023"  >
<polygon points="271,85 276,80 295,80 295,90 276,90 271,85 " style="fill:white; stroke-width:1; stroke:black; " description="&lt;b&gt;D9980_RS08560&lt;/b&gt;&lt;br&gt;ATP-dependent DNA helicase&lt;br&gt;Location: 1857928 - 1859829" locus_tag="D9980_RS08560" class="clusterblast-orf" id="dummy-1_h1_5_23"  />
</g>
<g id="a1_0024"  >
<polygon points="296,90 296,90 301,85 296,80 296,80 296,90 " style="fill:white; stroke-width:1; stroke:black; " description="&lt;b&gt;D9980_RS08565&lt;/b&gt;&lt;br&gt;RidA family protein&lt;br&gt;Location: 1859963 - 1860307" locus_tag="D9980_RS08565" class="clusterblast-orf" id="dummy-1_h1_5_24"  />
</g>
<g id="a1_0025"  >
<polygon points="301,85 305,80 305,90 301,85 " style="fill:white; stroke-width:1; stroke:black; " description="&lt;b&gt;D9980_RS08570&lt;/b&gt;&lt;br&gt;multidrug/spermidine efflux SMR transporter subunit MdtI&lt;br&gt;Location: 1860371 - 1860700" locus_tag="D9980_RS08570" class="clusterblast-orf" id="dummy-1_h1_5_25"  />
</g>
<g id="a1_0026"  >
<polygon points="305,85 310,80 310,80 310,90 310,90 305,85 " style="fill:white; stroke-width:1; stroke:black; " description="&lt;b&gt;D9980_RS08575&lt;/b&gt;&lt;br&gt;multidrug/spermidine efflux SMR transporter subunit MdtJ&lt;br&gt;Location: 1860687 - 1861055" locus_tag="D9980_RS08575" class="clusterblast-orf" id="dummy-1_h1_5_26"  />
</g>
<g id="a1_0027"  >
<polygon points="316,85 321,80 325,80 325,90 321,90 316,85 " style="fill:white; stroke-width:1; stroke:black; " description="&lt;b&gt;D9980_RS08580&lt;/b&gt;&lt;br&gt;oxo-acid lyase&lt;br&gt;Location: 1861609 - 1862355" locus_tag="D9980_RS08580" class="clusterblast-orf" id="dummy-1_h1_5_27"  />
</g>
<g id="a1_0028"  >
<polygon points="325,85 330,80 339,80 339,90 330,90 325,85 " style="fill:white; stroke-width:1; stroke:black; " description="&lt;b&gt;D9980_RS08585&lt;/b&gt;&lt;br&gt;DgaE family pyridoxal phosphate-dependent ammonia lyase&lt;br&gt;Location: 1862342 - 1863466" locus_tag="D9980_RS08585" class="clusterblast-orf" id="dummy-1_h1_5_28"  />
</g>
<g id="a1_0029"  >
<polygon points="339,85 344,80 350,80 350,90 344,90 339,85 " style="fill:white; stroke-width:1; stroke:black; " description="&lt;b&gt;D9980_RS08590&lt;/b&gt;&lt;br&gt;PTS system mannose/fructose/sorbose family transporter subunit IID&lt;br&gt;Location: 1863477 - 1864337" locus_tag="D9980_RS08590" class="clusterblast-orf" id="dummy-1_h1_5_29"  />
</g>
<g id="a1_0030"  >
<polygon points="350,85 355,80 359,80 359,90 355,90 350,85 " style="fill:white; stroke-width:1; stroke:black; " description="&lt;b&gt;D9980_RS08595&lt;/b&gt;&lt;br&gt;PTS sugar transporter subunit IIC&lt;br&gt;Location: 1864337 - 1865083" locus_tag="D9980_RS08595" class="clusterblast-orf" id="dummy-1_h1_5_30"  />
</g>
<g id="a1_0031"  >
<polygon points="359,85 364,80 365,80 365,90 364,90 359,85 " style="fill:white; stroke-width:1; stroke:black; " description="&lt;b&gt;D9980_RS08600&lt;/b&gt;&lt;br&gt;PTS system mannose/fructose/N-acetylgalactosamine-transporter subunit IIB&lt;br&gt;Location: 1865116 - 1865601" locus_tag="D9980_RS08600" class="clusterblast-orf" id="dummy-1_h1_5_31"  />
</g>
<g id="a1_0032"  >
<polygon points="365,85 370,80 370,80 370,90 370,90 365,85 " style="fill:white; stroke-width:1; stroke:black; " description="&lt;b&gt;D9980_RS08605&lt;/b&gt;&lt;br&gt;PTS sugar transporter subunit IIA&lt;br&gt;Location: 1865607 - 1866005" locus_tag="D9980_RS08605" class="clusterblast-orf" id="dummy-1_h1_5_32"  />
</g>
<g id="a1_0033"  >
<polygon points="372,85 377,80 406,80 406,90 377,90 372,85 " style="fill:white; stroke-width:1; stroke:black; " description="&lt;b&gt;D9980_RS08610&lt;/b&gt;&lt;br&gt;sigma-54-dependent transcriptional regulator&lt;br&gt;Location: 1866160 - 1868970" locus_tag="D9980_RS08610" class="clusterblast-orf" id="dummy-1_h1_5_33"  />
</g>
<g id="a1_0034"  >
<polygon points="417,90 421,85 417,80 417,90 " style="fill:white; stroke-width:1; stroke:black; " description="&lt;b&gt;D9980_RS08615&lt;/b&gt;&lt;br&gt;hypothetical protein&lt;br&gt;Location: 1869843 - 1870163" locus_tag="D9980_RS08615" class="clusterblast-orf" id="dummy-1_h1_5_34"  />
</g>
<g id="a1_0035"  >
<polygon points="436,90 436,90 441,85 436,80 436,80 436,90 " style="fill:white; stroke-width:1; stroke:black; " description="&lt;b&gt;D9980_RS08620&lt;/b&gt;&lt;br&gt;toxin-activating lysine-acyltransferase&lt;br&gt;Location: 1871393 - 1871833" locus_tag="D9980_RS08620" class="clusterblast-orf" id="dummy-1_h1_5_35"  />
</g>
<g id="a1_0036"  >
<polygon points="441,90 483,90 488,85 483,80 441,80 441,90 " style="fill:white; stroke-width:1; stroke:black; " description="&lt;b&gt;D9980_RS08625&lt;/b&gt;&lt;br&gt;AMP-binding protein&lt;br&gt;Location: 1871860 - 1875684" locus_tag="D9980_RS08625" class="clusterblast-orf" id="dummy-1_h1_5_36"  />
</g>
<g id="a1_0037"  >
<polygon points="488,90 534,90 539,85 534,80 488,80 488,90 " style="fill:white; stroke-width:1; stroke:black; " description="&lt;b&gt;D9980_RS08630&lt;/b&gt;&lt;br&gt;amino acid adenylation domain-containing protein&lt;br&gt;Location: 1875681 - 1879823" locus_tag="D9980_RS08630" class="clusterblast-orf" id="dummy-1_h1_5_37"  />
</g>
<g id="a1_0038"  >
<polygon points="545,90 550,90 555,85 550,80 545,80 545,90 " style="fill:white; stroke-width:1; stroke:black; " description="&lt;b&gt;D9980_RS08635&lt;/b&gt;&lt;br&gt;hypothetical protein&lt;br&gt;Location: 1880324 - 1881184" locus_tag="D9980_RS08635" class="clusterblast-orf" id="dummy-1_h1_5_38"  />
</g>
<g id="a1_0039"  >
<polygon points="555,90 555,90 560,85 555,80 555,80 555,90 " style="fill:white; stroke-width:1; stroke:black; " description="&lt;b&gt;D9980_RS08640&lt;/b&gt;&lt;br&gt;hypothetical protein&lt;br&gt;Location: 1881130 - 1881564" locus_tag="D9980_RS08640" class="clusterblast-orf" id="dummy-1_h1_5_39"  />
</g>
<g id="a1_0040"  >
<polygon points="569,85 574,80 595,80 595,90 574,90 569,85 " style="fill:white; stroke-width:1; stroke:black; " description="&lt;b&gt;D9980_RS08645&lt;/b&gt;&lt;br&gt;peptidase domain-containing ABC transporter&lt;br&gt;Location: 1882342 - 1884441" locus_tag="D9980_RS08645" class="clusterblast-orf" id="dummy-1_h1_5_40"  />
</g>
<g id="a1_0041"  >
<polygon points="595,85 600,80 611,80 611,90 600,90 595,85 " style="fill:white; stroke-width:1; stroke:black; " description="&lt;b&gt;D9980_RS08650&lt;/b&gt;&lt;br&gt;HlyD family secretion protein&lt;br&gt;Location: 1884434 - 1885720" locus_tag="D9980_RS08650" class="clusterblast-orf" id="dummy-1_h1_5_41"  />
</g>
<g id="a1_0042"  >
<polygon points="614,85 619,80 622,80 622,90 619,90 614,85 " style="fill:#d81515; stroke-width:1; stroke:black; " description="&lt;b&gt;D9980_RS08655&lt;/b&gt;&lt;br&gt;bifunctional 4-hydroxy-2-oxoglutarate aldolase/2-dehydro-3-deoxy-phosphogluconate aldolase&lt;br&gt;Location: 1886044 - 1886685&lt;br&gt;&lt;br&gt;&lt;b&gt;BlastP hit with MCIC6FC_016544&lt;/b&gt;&lt;br&gt;Percentage identity: 76&lt;br&gt;Percentage coverage: 31&lt;br&gt;BLAST bit score: 307&lt;br&gt;E-value: 3.3e-81" locus_tag="D9980_RS08655" class="clusterblast-orf" id="dummy-1_h1_5_42"  />
</g>
<g id="a1_0043"  >
<polygon points="626,85 631,80 644,80 644,90 631,90 626,85 " style="fill:#d81515; stroke-width:1; stroke:black; " description="&lt;b&gt;D9980_RS08660&lt;/b&gt;&lt;br&gt;glucose-6-phosphate dehydrogenase&lt;br&gt;Location: 1887022 - 1888497&lt;br&gt;&lt;br&gt;&lt;b&gt;BlastP hit with MCIC6FC_016544&lt;/b&gt;&lt;br&gt;Percentage identity: 74&lt;br&gt;Percentage coverage: 74&lt;br&gt;BLAST bit score: 695&lt;br&gt;E-value: 4.3e-198" locus_tag="D9980_RS08660" class="clusterblast-orf" id="dummy-1_h1_5_43"  />
</g>
<g id="a1_0044"  >
<polygon points="649,90 655,90 660,85 655,80 649,80 649,90 " style="fill:#15d815; stroke-width:1; stroke:black; " description="&lt;b&gt;D9980_RS08665&lt;/b&gt;&lt;br&gt;MurR/RpiR family transcriptional regulator&lt;br&gt;Location: 1888890 - 1889756&lt;br&gt;&lt;br&gt;&lt;b&gt;BlastP hit with MCIC6FC_016545&lt;/b&gt;&lt;br&gt;Percentage identity: 72&lt;br&gt;Percentage coverage: 100&lt;br&gt;BLAST bit score: 352&lt;br&gt;E-value: 3.6e-95" locus_tag="D9980_RS08665" class="clusterblast-orf" id="dummy-1_h1_5_44"  />
</g>
<g id="a1_0045"  >
<polygon points="662,90 675,90 680,85 675,80 662,80 662,90 " style="fill:#1515d8; stroke-width:1; stroke:black; " description="&lt;b&gt;D9980_RS08670&lt;/b&gt;&lt;br&gt;pyruvate kinase&lt;br&gt;Location: 1889947 - 1891389&lt;br&gt;&lt;br&gt;&lt;b&gt;BlastP hit with MCIC6FC_016546&lt;/b&gt;&lt;br&gt;Percentage identity: 83&lt;br&gt;Percentage coverage: 24&lt;br&gt;BLAST bit score: 643&lt;br&gt;E-value: 9.1e-182" locus_tag="D9980_RS08670" class="clusterblast-orf" id="dummy-1_h1_5_45"  />
</g>
<g id="a1_0046"  >
<polygon points="683,90 688,90 693,85 688,80 683,80 683,90 " style="fill:white; stroke-width:1; stroke:black; " description="&lt;b&gt;D9980_RS08675&lt;/b&gt;&lt;br&gt;hypothetical protein&lt;br&gt;Location: 1891648 - 1892499" locus_tag="D9980_RS08675" class="clusterblast-orf" id="dummy-1_h1_5_46"  />
</g>
<g id="a1_0047"  >
<polygon points="699,90 715,90 720,85 715,80 699,80 699,90 " style="fill:white; stroke-width:1; stroke:black; " description="&lt;b&gt;D9980_RS08680&lt;/b&gt;&lt;br&gt;YadA C-terminal domain-containing protein&lt;br&gt;Location: 1892943 - 1894718" locus_tag="D9980_RS08680" class="clusterblast-orf" id="dummy-1_h1_5_47"  />
</g>
<g id="a1_0048"  >
<polygon points="722,90 728,90 733,85 728,80 722,80 722,90 " style="fill:white; stroke-width:1; stroke:black; " description="&lt;b&gt;D9980_RS08685&lt;/b&gt;&lt;br&gt;adenylate cyclase&lt;br&gt;Location: 1894846 - 1895727" locus_tag="D9980_RS08685" class="clusterblast-orf" id="dummy-1_h1_5_48"  />
</g>
<g id="a1_0049"  >
<polygon points="736,90 738,85 736,80 736,90 " style="fill:white; stroke-width:1; stroke:black; " description="&lt;b&gt;D9980_RS08690&lt;/b&gt;&lt;br&gt;type I toxin-antitoxin system Hok family toxin&lt;br&gt;Location: 1896020 - 1896172" locus_tag="D9980_RS08690" class="clusterblast-orf" id="dummy-1_h1_5_49"  />
</g>
<g id="a1_0050"  >
<polygon points="743,90 745,85 743,80 743,90 " style="fill:white; stroke-width:1; stroke:black; " description="&lt;b&gt;D9980_RS08695&lt;/b&gt;&lt;br&gt;type I toxin-antitoxin system Hok family toxin&lt;br&gt;Location: 1896593 - 1896745" locus_tag="D9980_RS08695" class="clusterblast-orf" id="dummy-1_h1_5_50"  />
</g>
<g id="a1_0051"  >
<polygon points="748,85 753,80 760,80 760,90 753,90 748,85 " style="fill:white; stroke-width:1; stroke:black; " description="&lt;b&gt;D9980_RS08700&lt;/b&gt;&lt;br&gt;lauroyl-Kdo(2)-lipid IV(A) myristoyltransferase&lt;br&gt;Location: 1896968 - 1897936" locus_tag="D9980_RS08700" class="clusterblast-orf" id="dummy-1_h1_5_51"  />
</g>
<g id="a1_0052"  >
<polygon points="763,85 768,80 780,80 780,90 768,90 763,85 " style="fill:white; stroke-width:1; stroke:black; " description="&lt;b&gt;D9980_RS08705&lt;/b&gt;&lt;br&gt;murein DD-endopeptidase MepM&lt;br&gt;Location: 1898251 - 1899573" locus_tag="D9980_RS08705" class="clusterblast-orf" id="dummy-1_h1_5_52"  />
</g>
</svg>
