<svg xmlns="http://www.w3.org/2000/svg" xmlns:xlink="http://www.w3.org/1999/xlink" version="1.1" x="0" y="0" height="230" width="800" viewBox="0 0 800 230" preserveAspectRatio="none"  >
<g label="Query sequence" class="clusterblast-cluster"  >
<text x="5" y="20" class="clusterblast-acc"  >
Query sequence</text>
<line x1="10" y1="35" x2="778.0" y2="35" style="stroke-width:1; stroke:grey; "  />
<polygon points="0,35 5,30 86,30 86,40 5,40 0,35 " style="fill:white; stroke-width:1; stroke:black; " description="&lt;b&gt;MCIC6FC_007605&lt;/b&gt;&lt;br&gt;hypothetical protein&lt;br&gt;Location: 971776 - 975355" locus_tag="MCIC6FC_007605" class="clusterblast-orf" id="dummy-3_q0_0_all"  />
<polygon points="86,35 91,30 112,30 112,40 91,40 86,35 " style="fill:white; stroke-width:1; stroke:black; " description="&lt;b&gt;MCIC6FC_007606&lt;/b&gt;&lt;br&gt;hypothetical protein&lt;br&gt;Location: 975381 - 976467" locus_tag="MCIC6FC_007606" class="clusterblast-orf" id="dummy-3_q1_0_all"  />
<polygon points="119,40 135,40 140,35 135,30 119,30 119,40 " style="fill:white; stroke-width:1; stroke:black; " description="&lt;b&gt;MCIC6FC_007607&lt;/b&gt;&lt;br&gt;hypothetical protein&lt;br&gt;Location: 976754 - 977637" locus_tag="MCIC6FC_007607" class="clusterblast-orf" id="dummy-3_q2_0_all"  />
<polygon points="146,35 151,30 165,30 165,40 151,40 146,35 " style="fill:white; stroke-width:1; stroke:black; " description="&lt;b&gt;MCIC6FC_007608&lt;/b&gt;&lt;br&gt;hypothetical protein&lt;br&gt;Location: 977867 - 978682" locus_tag="MCIC6FC_007608" class="clusterblast-orf" id="dummy-3_q3_0_all"  />
<polygon points="169,40 189,40 194,35 189,30 169,30 169,40 " style="fill:#d81515; stroke-width:1; stroke:black; " description="&lt;b&gt;MCIC6FC_007609&lt;/b&gt;&lt;br&gt;hypothetical protein&lt;br&gt;Location: 978819 - 979881" locus_tag="MCIC6FC_007609" class="clusterblast-orf" id="dummy-3_q4_0_all"  />
<polygon points="195,35 200,30 244,30 244,40 200,40 195,35 " style="fill:#77d815; stroke-width:1; stroke:black; " description="&lt;b&gt;MCIC6FC_007610&lt;/b&gt;&lt;br&gt;hypothetical protein&lt;br&gt;Location: 979916 - 981955" locus_tag="MCIC6FC_007610" class="clusterblast-orf" id="dummy-3_q5_0_all"  />
<polygon points="248,40 265,40 270,35 265,30 248,30 248,40 " style="fill:white; stroke-width:1; stroke:black; " description="&lt;b&gt;MCIC6FC_007611&lt;/b&gt;&lt;br&gt;hypothetical protein&lt;br&gt;Location: 982143 - 983026" locus_tag="MCIC6FC_007611" class="clusterblast-orf" id="dummy-3_q6_0_all"  />
<polygon points="277,35 282,30 305,30 305,40 282,40 277,35 " style="fill:#15d8d8; stroke-width:1; stroke:black; " description="&lt;b&gt;MCIC6FC_007612&lt;/b&gt;&lt;br&gt;hypothetical protein&lt;br&gt;Location: 983333 - 984520" locus_tag="MCIC6FC_007612" class="clusterblast-orf" id="dummy-3_q7_0_all"  />
<polygon points="311,40 317,40 322,35 317,30 311,30 311,40 " style="fill:#7715d8; stroke-width:1; stroke:black; " description="&lt;b&gt;MCIC6FC_007613&lt;/b&gt;&lt;br&gt;hypothetical protein&lt;br&gt;Location: 984737 - 985190" locus_tag="MCIC6FC_007613" class="clusterblast-orf" id="dummy-3_q8_0_all"  />
<polygon points="324,35 329,30 389,30 389,40 329,40 324,35 " style="fill:#d87715; stroke-width:1; stroke:black; " description="&lt;b&gt;MCIC6FC_007614&lt;/b&gt;&lt;br&gt;hypothetical protein&lt;br&gt;Location: 985312 - 987989" locus_tag="MCIC6FC_007614" class="clusterblast-orf" id="dummy-3_q9_0_all"  />
<polygon points="390,35 395,30 458,30 458,40 395,40 390,35 " style="fill:#15d815; stroke-width:1; stroke:black; " description="&lt;b&gt;MCIC6FC_007615&lt;/b&gt;&lt;br&gt;hypothetical protein&lt;br&gt;Location: 988056 - 990895" locus_tag="MCIC6FC_007615" class="clusterblast-orf" id="dummy-3_q10_0_all"  />
<polygon points="465,40 474,40 479,35 474,30 465,30 465,40 " style="fill:#1577d8; stroke-width:1; stroke:black; " description="&lt;b&gt;MCIC6FC_007616&lt;/b&gt;&lt;br&gt;hypothetical protein&lt;br&gt;Location: 991184 - 991775" locus_tag="MCIC6FC_007616" class="clusterblast-orf" id="dummy-3_q11_0_all"  />
<polygon points="481,35 486,30 497,30 497,40 486,40 481,35 " style="fill:#d815d8; stroke-width:1; stroke:black; " description="&lt;b&gt;MCIC6FC_007617&lt;/b&gt;&lt;br&gt;hypothetical protein&lt;br&gt;Location: 991824 - 992490" locus_tag="MCIC6FC_007617" class="clusterblast-orf" id="dummy-3_q12_0_all"  />
<polygon points="508,40 572,40 577,35 572,30 508,30 508,40 " style="fill:#d8d815; stroke-width:1; stroke:black; " description="&lt;b&gt;MCIC6FC_007618&lt;/b&gt;&lt;br&gt;hypothetical protein&lt;br&gt;Location: 992981 - 995855" locus_tag="MCIC6FC_007618" class="clusterblast-orf" id="dummy-3_q13_0_all"  />
<polygon points="578,40 654,40 659,35 654,30 578,30 578,40 " style="fill:#15d877; stroke-width:1; stroke:black; " description="&lt;b&gt;MCIC6FC_007619&lt;/b&gt;&lt;br&gt;hypothetical protein&lt;br&gt;Location: 995875 - 999269" locus_tag="MCIC6FC_007619" class="clusterblast-orf" id="dummy-3_q14_0_all"  />
<polygon points="659,35 664,30 737,30 737,40 664,40 659,35 " style="fill:#1515d8; stroke-width:1; stroke:black; " description="&lt;b&gt;MCIC6FC_007620&lt;/b&gt;&lt;br&gt;hypothetical protein&lt;br&gt;Location: 999279 - 1002494" locus_tag="MCIC6FC_007620" class="clusterblast-orf" id="dummy-3_q15_0_all"  />
<polygon points="738,35 743,30 769,30 769,40 743,40 738,35 " style="fill:#d81577; stroke-width:1; stroke:black; " description="&lt;b&gt;MCIC6FC_007621&lt;/b&gt;&lt;br&gt;hypothetical protein&lt;br&gt;Location: 1002561 - 1003827" locus_tag="MCIC6FC_007621" class="clusterblast-orf" id="dummy-3_q16_0_all"  />
<polygon points="770,35 775,30 780,30 780,40 775,40 770,35 " style="fill:white; stroke-width:1; stroke:black; " description="&lt;b&gt;MCIC6FC_007622&lt;/b&gt;&lt;br&gt;hypothetical protein&lt;br&gt;Location: 1003881 - 1004292" locus_tag="MCIC6FC_007622" class="clusterblast-orf" id="dummy-3_q17_0_all"  />
</g>
<g label="NZ_LT629782" description="NZ_LT629782 (917139-939909): Pseudomonas orientalis strain LMG 23660 chromoso... (45% of genes show similarity), hserlactone,phenazine" class="clusterblast-cluster"  >
<text x="5" y="70" class="clusterblast-acc"  >
<a xlink:href="https://antismash-db.secondarymetabolites.org/area.html?record=NZ_LT629782&amp;start=917139&amp;end=939909" target="_blank">NZ_LT629782 (917139-939909)</a>: Pseudomonas orientalis strain LMG 23660 chromoso... (45% of genes show similarity), hserlactone,phenazine</text>
<line x1="10" y1="85" x2="778.0" y2="85" style="stroke-width:1; stroke:grey; "  />
</g>
<g id="a3_000"  >
<polygon points="123,85 128,80 132,80 132,90 128,90 123,85 " style="fill:white; stroke-width:1; stroke:black; " description="&lt;b&gt;BLU00_RS03975&lt;/b&gt;&lt;br&gt;VOC family protein&lt;br&gt;Location: 917617 - 918000" locus_tag="BLU00_RS03975" class="clusterblast-orf" id="dummy-3_h3_7_0"  />
</g>
<g id="a3_001"  >
<polygon points="132,85 137,80 155,80 155,90 137,90 132,85 " style="fill:white; stroke-width:1; stroke:black; " description="&lt;b&gt;BLU00_RS03980&lt;/b&gt;&lt;br&gt;hydroxymethylglutaryl-CoA lyase&lt;br&gt;Location: 917997 - 918960" locus_tag="BLU00_RS03980" class="clusterblast-orf" id="dummy-3_h3_7_1"  />
</g>
<g id="a3_002"  >
<polygon points="155,85 160,80 184,80 184,90 160,90 155,85 " style="fill:white; stroke-width:1; stroke:black; " description="&lt;b&gt;BLU00_RS03985&lt;/b&gt;&lt;br&gt;CoA transferase&lt;br&gt;Location: 918977 - 920167" locus_tag="BLU00_RS03985" class="clusterblast-orf" id="dummy-3_h3_7_2"  />
</g>
<g id="a3_003"  >
<polygon points="187,90 203,90 208,85 203,80 187,80 187,90 " style="fill:white; stroke-width:1; stroke:black; " description="&lt;b&gt;BLU00_RS03990&lt;/b&gt;&lt;br&gt;LysR family transcriptional regulator&lt;br&gt;Location: 920280 - 921179" locus_tag="BLU00_RS03990" class="clusterblast-orf" id="dummy-3_h3_7_3"  />
</g>
<g id="a3_004"  >
<polygon points="211,85 216,80 242,80 242,90 216,90 211,85 " style="fill:white; stroke-width:1; stroke:black; " description="&lt;b&gt;BLU00_RS03995&lt;/b&gt;&lt;br&gt;beta-ketoacyl-ACP synthase II&lt;br&gt;Location: 921308 - 922594" locus_tag="BLU00_RS03995" class="clusterblast-orf" id="dummy-3_h3_7_4"  />
</g>
<g id="a3_005"  >
<polygon points="243,85 248,80 248,80 248,90 248,90 243,85 " style="fill:white; stroke-width:1; stroke:black; " description="&lt;b&gt;BLU00_RS04000&lt;/b&gt;&lt;br&gt;efflux RND transporter permease subunit&lt;br&gt;Location: 922605 - 922844" locus_tag="BLU00_RS04000" class="clusterblast-orf" id="dummy-3_h3_7_5"  />
</g>
<g id="a3_006"  >
<polygon points="254,85 259,80 269,80 269,90 259,90 254,85 " style="fill:white; stroke-width:1; stroke:black; " description="&lt;b&gt;BLU00_RS04005&lt;/b&gt;&lt;br&gt;TetR/AcrR family transcriptional regulator&lt;br&gt;Location: 923074 - 923694" locus_tag="BLU00_RS04005" class="clusterblast-orf" id="dummy-3_h3_7_6"  />
</g>
<g id="a3_007"  >
<polygon points="273,90 293,90 298,85 293,80 273,80 273,90 " style="fill:#d81515; stroke-width:1; stroke:black; " description="&lt;b&gt;BLU00_RS04010&lt;/b&gt;&lt;br&gt;SDR family oxidoreductase&lt;br&gt;Location: 923859 - 924920&lt;br&gt;&lt;br&gt;&lt;b&gt;BlastP hit with MCIC6FC_007609&lt;/b&gt;&lt;br&gt;Percentage identity: 92&lt;br&gt;Percentage coverage: 100&lt;br&gt;BLAST bit score: 665&lt;br&gt;E-value: 2.6e-189" locus_tag="BLU00_RS04010" class="clusterblast-orf" id="dummy-3_h3_7_7"  />
</g>
<g id="a3_008"  >
<polygon points="299,85 304,80 321,80 321,90 304,90 299,85 " style="fill:white; stroke-width:1; stroke:black; " description="&lt;b&gt;BLU00_RS04015&lt;/b&gt;&lt;br&gt;alpha/beta hydrolase&lt;br&gt;Location: 924948 - 925886" locus_tag="BLU00_RS04015" class="clusterblast-orf" id="dummy-3_h3_7_8"  />
</g>
<g id="a3_009"  >
<polygon points="324,90 332,90 337,85 332,80 324,80 324,90 " style="fill:white; stroke-width:1; stroke:black; " description="&lt;b&gt;BLU00_RS04020&lt;/b&gt;&lt;br&gt;ABATE domain-containing protein&lt;br&gt;Location: 925983 - 926564" locus_tag="BLU00_RS04020" class="clusterblast-orf" id="dummy-3_h3_7_9"  />
</g>
<g id="a3_0010"  >
<polygon points="339,85 344,80 346,80 346,90 344,90 339,85 " style="fill:white; stroke-width:1; stroke:black; " description="&lt;b&gt;BLU00_RS04025&lt;/b&gt;&lt;br&gt;hypothetical protein&lt;br&gt;Location: 926634 - 926933" locus_tag="BLU00_RS04025" class="clusterblast-orf" id="dummy-3_h3_7_10"  />
</g>
<g id="a3_0011"  >
<polygon points="351,90 360,90 365,85 360,80 351,80 351,90 " style="fill:#1577d8; stroke-width:1; stroke:black; " description="&lt;b&gt;BLU00_RS04030&lt;/b&gt;&lt;br&gt;GNAT family N-acetyltransferase&lt;br&gt;Location: 927140 - 927730&lt;br&gt;&lt;br&gt;&lt;b&gt;BlastP hit with MCIC6FC_007616&lt;/b&gt;&lt;br&gt;Percentage identity: 85&lt;br&gt;Percentage coverage: 100&lt;br&gt;BLAST bit score: 346&lt;br&gt;E-value: 2.5e-93" locus_tag="BLU00_RS04030" class="clusterblast-orf" id="dummy-3_h3_7_11"  />
</g>
<g id="a3_0012"  >
<polygon points="367,85 372,80 384,80 384,90 372,90 367,85 " style="fill:#d815d8; stroke-width:1; stroke:black; " description="&lt;b&gt;BLU00_RS04035&lt;/b&gt;&lt;br&gt;autoinducer binding domain-containing protein&lt;br&gt;Location: 927777 - 928502&lt;br&gt;&lt;br&gt;&lt;b&gt;BlastP hit with MCIC6FC_007617&lt;/b&gt;&lt;br&gt;Percentage identity: 89&lt;br&gt;Percentage coverage: 100&lt;br&gt;BLAST bit score: 405&lt;br&gt;E-value: 3.9e-111" locus_tag="BLU00_RS04035" class="clusterblast-orf" id="dummy-3_h3_7_12"  />
</g>
<g id="a3_0013"  >
<polygon points="394,90 400,90 405,85 400,80 394,80 394,90 " style="fill:#d8d815; stroke-width:1; stroke:black; " description="&lt;b&gt;BLU00_RS04040&lt;/b&gt;&lt;br&gt;phenazine biosynthesis protein&lt;br&gt;Location: 928904 - 929395&lt;br&gt;&lt;br&gt;&lt;b&gt;BlastP hit with MCIC6FC_007618&lt;/b&gt;&lt;br&gt;Percentage identity: 90&lt;br&gt;Percentage coverage: 18&lt;br&gt;BLAST bit score: 310&lt;br&gt;E-value: 5.3e-82" locus_tag="BLU00_RS04040" class="clusterblast-orf" id="dummy-3_h3_7_13"  />
</g>
<g id="a3_0014"  >
<polygon points="406,90 413,90 418,85 413,80 406,80 406,90 " style="fill:#d8d815; stroke-width:1; stroke:black; " description="&lt;b&gt;BLU00_RS04045&lt;/b&gt;&lt;br&gt;phenazine biosynthesis protein&lt;br&gt;Location: 929421 - 929909&lt;br&gt;&lt;br&gt;&lt;b&gt;BlastP hit with MCIC6FC_007618&lt;/b&gt;&lt;br&gt;Percentage identity: 93&lt;br&gt;Percentage coverage: 16&lt;br&gt;BLAST bit score: 298&lt;br&gt;E-value: 2.1e-78" locus_tag="BLU00_RS04045" class="clusterblast-orf" id="dummy-3_h3_7_14"  />
</g>
<g id="a3_0015"  >
<polygon points="418,90 442,90 447,85 442,80 418,80 418,90 " style="fill:#d8d815; stroke-width:1; stroke:black; " description="&lt;b&gt;BLU00_RS04050&lt;/b&gt;&lt;br&gt;3-deoxy-7-phosphoheptulonate synthase&lt;br&gt;Location: 929933 - 931135&lt;br&gt;&lt;br&gt;&lt;b&gt;BlastP hit with MCIC6FC_007618&lt;/b&gt;&lt;br&gt;Percentage identity: 89&lt;br&gt;Percentage coverage: 43&lt;br&gt;BLAST bit score: 696&lt;br&gt;E-value: 4.5e-198" locus_tag="BLU00_RS04050" class="clusterblast-orf" id="dummy-3_h3_7_15"  />
</g>
<g id="a3_0016"  >
<polygon points="448,90 457,90 462,85 457,80 448,80 448,90 " style="fill:#d8d815; stroke-width:1; stroke:black; " description="&lt;b&gt;BLU00_RS04055&lt;/b&gt;&lt;br&gt;isochorismatase family protein&lt;br&gt;Location: 931151 - 931774&lt;br&gt;&lt;br&gt;&lt;b&gt;BlastP hit with MCIC6FC_007618&lt;/b&gt;&lt;br&gt;Percentage identity: 87&lt;br&gt;Percentage coverage: 23&lt;br&gt;BLAST bit score: 389&lt;br&gt;E-value: 9e-106" locus_tag="BLU00_RS04055" class="clusterblast-orf" id="dummy-3_h3_7_16"  />
</g>
<g id="a3_0017"  >
<polygon points="462,90 503,90 508,85 503,80 462,80 462,90 " style="fill:#15d877; stroke-width:1; stroke:black; " description="&lt;b&gt;BLU00_RS04060&lt;/b&gt;&lt;br&gt;chorismate-binding protein&lt;br&gt;Location: 931771 - 933684&lt;br&gt;&lt;br&gt;&lt;b&gt;BlastP hit with MCIC6FC_007619&lt;/b&gt;&lt;br&gt;Percentage identity: 96&lt;br&gt;Percentage coverage: 56&lt;br&gt;BLAST bit score: 1165&lt;br&gt;E-value: 0.0" locus_tag="BLU00_RS04060" class="clusterblast-orf" id="dummy-3_h3_7_17"  />
</g>
<g id="a3_0018"  >
<polygon points="508,90 523,90 528,85 523,80 508,80 508,90 " style="fill:#15d877; stroke-width:1; stroke:black; " description="&lt;b&gt;BLU00_RS04065&lt;/b&gt;&lt;br&gt;PhzF family phenazine biosynthesis protein&lt;br&gt;Location: 933688 - 934524&lt;br&gt;&lt;br&gt;&lt;b&gt;BlastP hit with MCIC6FC_007619&lt;/b&gt;&lt;br&gt;Percentage identity: 94&lt;br&gt;Percentage coverage: 25&lt;br&gt;BLAST bit score: 530&lt;br&gt;E-value: 3.1e-148" locus_tag="BLU00_RS04065" class="clusterblast-orf" id="dummy-3_h3_7_18"  />
</g>
<g id="a3_0019"  >
<polygon points="528,90 539,90 544,85 539,80 528,80 528,90 " style="fill:#15d877; stroke-width:1; stroke:black; " description="&lt;b&gt;BLU00_RS04070&lt;/b&gt;&lt;br&gt;pyridoxal 5'-phosphate synthase&lt;br&gt;Location: 934521 - 935189&lt;br&gt;&lt;br&gt;&lt;b&gt;BlastP hit with MCIC6FC_007619&lt;/b&gt;&lt;br&gt;Percentage identity: 92&lt;br&gt;Percentage coverage: 19&lt;br&gt;BLAST bit score: 402&lt;br&gt;E-value: 1.7e-109" locus_tag="BLU00_RS04070" class="clusterblast-orf" id="dummy-3_h3_7_19"  />
</g>
<g id="a3_0020"  >
<polygon points="545,85 550,80 560,80 560,90 550,90 545,85 " style="fill:#1515d8; stroke-width:1; stroke:black; " description="&lt;b&gt;BLU00_RS04075&lt;/b&gt;&lt;br&gt;thymidylate kinase&lt;br&gt;Location: 935224 - 935841&lt;br&gt;&lt;br&gt;&lt;b&gt;BlastP hit with MCIC6FC_007620&lt;/b&gt;&lt;br&gt;Percentage identity: 78&lt;br&gt;Percentage coverage: 20&lt;br&gt;BLAST bit score: 317&lt;br&gt;E-value: 3.8e-84" locus_tag="BLU00_RS04075" class="clusterblast-orf" id="dummy-3_h3_7_20"  />
</g>
<g id="a3_0021"  >
<polygon points="561,85 566,80 603,80 603,90 566,90 561,85 " style="fill:white; stroke-width:1; stroke:black; " description="&lt;b&gt;BLU00_RS04080&lt;/b&gt;&lt;br&gt;formyl transferase&lt;br&gt;Location: 935893 - 937632" locus_tag="BLU00_RS04080" class="clusterblast-orf" id="dummy-3_h3_7_21"  />
</g>
<g id="a3_0022"  >
<polygon points="606,85 611,80 631,80 631,90 611,90 606,85 " style="fill:white; stroke-width:1; stroke:black; " description="&lt;b&gt;BLU00_RS04085&lt;/b&gt;&lt;br&gt;NAD(P)-dependent alcohol dehydrogenase&lt;br&gt;Location: 937771 - 938781" locus_tag="BLU00_RS04085" class="clusterblast-orf" id="dummy-3_h3_7_22"  />
</g>
<g id="a3_0023"  >
<polygon points="635,90 651,90 656,85 651,80 635,80 635,90 " style="fill:white; stroke-width:1; stroke:black; " description="&lt;b&gt;BLU00_RS04090&lt;/b&gt;&lt;br&gt;LysR family transcriptional regulator&lt;br&gt;Location: 938950 - 939849" locus_tag="BLU00_RS04090" class="clusterblast-orf" id="dummy-3_h3_7_23"  />
</g>
</svg>
