<svg xmlns="http://www.w3.org/2000/svg" xmlns:xlink="http://www.w3.org/1999/xlink" version="1.1" x="0" y="0" height="230" width="800" viewBox="0 0 800 230" preserveAspectRatio="none"  >
<g label="Query sequence" class="clusterblast-cluster"  >
<text x="5" y="20" class="clusterblast-acc"  >
Query sequence</text>
<line x1="10" y1="35" x2="778.0" y2="35" style="stroke-width:1; stroke:grey; "  />
<polygon points="0,35 5,30 10,30 10,40 5,40 0,35 " style="fill:#d81515; stroke-width:1; stroke:black; " description="&lt;b&gt;MCIC6FC_004335&lt;/b&gt;&lt;br&gt;hypothetical protein&lt;br&gt;Location: 75504 - 75789" locus_tag="MCIC6FC_004335" class="clusterblast-orf" id="dummy-1_q0_0_all"  />
<polygon points="13,35 18,30 74,30 74,40 18,40 13,35 " style="fill:#15d815; stroke-width:1; stroke:black; " description="&lt;b&gt;MCIC6FC_004336&lt;/b&gt;&lt;br&gt;hypothetical protein&lt;br&gt;Location: 75871 - 77545" locus_tag="MCIC6FC_004336" class="clusterblast-orf" id="dummy-1_q1_0_all"  />
<polygon points="78,35 83,30 103,30 103,40 83,40 78,35 " style="fill:#1597d8; stroke-width:1; stroke:black; " description="&lt;b&gt;MCIC6FC_004337&lt;/b&gt;&lt;br&gt;hypothetical protein&lt;br&gt;Location: 77653 - 78341" locus_tag="MCIC6FC_004337" class="clusterblast-orf" id="dummy-1_q2_0_all"  />
<polygon points="114,35 119,30 158,30 158,40 119,40 114,35 " style="fill:#9715d8; stroke-width:1; stroke:black; " description="&lt;b&gt;MCIC6FC_004338&lt;/b&gt;&lt;br&gt;hypothetical protein&lt;br&gt;Location: 78631 - 79827" locus_tag="MCIC6FC_004338" class="clusterblast-orf" id="dummy-1_q3_0_all"  />
<polygon points="160,35 165,30 199,30 199,40 165,40 160,35 " style="fill:#d89715; stroke-width:1; stroke:black; " description="&lt;b&gt;MCIC6FC_004339&lt;/b&gt;&lt;br&gt;hypothetical protein&lt;br&gt;Location: 79909 - 80961" locus_tag="MCIC6FC_004339" class="clusterblast-orf" id="dummy-1_q4_0_all"  />
<polygon points="209,40 402,40 407,35 402,30 209,30 209,40 " style="fill:#15d897; stroke-width:1; stroke:black; " description="&lt;b&gt;MCIC6FC_004340&lt;/b&gt;&lt;br&gt;hypothetical protein&lt;br&gt;Location: 81238 - 86681" locus_tag="MCIC6FC_004340" class="clusterblast-orf" id="dummy-1_q5_0_all"  />
<polygon points="413,40 435,40 440,35 435,30 413,30 413,40 " style="fill:#1515d8; stroke-width:1; stroke:black; " description="&lt;b&gt;MCIC6FC_004341&lt;/b&gt;&lt;br&gt;hypothetical protein&lt;br&gt;Location: 86843 - 87584" locus_tag="MCIC6FC_004341" class="clusterblast-orf" id="dummy-1_q6_0_all"  />
<polygon points="442,35 447,30 482,30 482,40 447,40 442,35 " style="fill:#d81597; stroke-width:1; stroke:black; " description="&lt;b&gt;MCIC6FC_004342&lt;/b&gt;&lt;br&gt;hypothetical protein&lt;br&gt;Location: 87637 - 88737" locus_tag="MCIC6FC_004342" class="clusterblast-orf" id="dummy-1_q7_0_all"  />
<polygon points="496,35 501,30 780,30 780,40 501,40 496,35 " style="fill:#97d815; stroke-width:1; stroke:black; " description="&lt;b&gt;MCIC6FC_004343&lt;/b&gt;&lt;br&gt;hypothetical protein&lt;br&gt;Location: 89114 - 96894" locus_tag="MCIC6FC_004343" class="clusterblast-orf" id="dummy-1_q8_0_all"  />
</g>
<g label="NZ_CP007215" description="NZ_CP007215 (3137406-3163699): Kosakonia sacchari SP1 chromosome, complete ge... (75% of genes show similarity), thiopeptide" class="clusterblast-cluster"  >
<text x="5" y="70" class="clusterblast-acc"  >
<a xlink:href="https://antismash-db.secondarymetabolites.org/area.html?record=NZ_CP007215&amp;start=3137406&amp;end=3163699" target="_blank">NZ_CP007215 (3137406-3163699)</a>: Kosakonia sacchari SP1 chromosome, complete ge... (75% of genes show similarity), thiopeptide</text>
<line x1="10" y1="85" x2="778.0" y2="85" style="stroke-width:1; stroke:grey; "  />
</g>
<g id="a1_000"  >
<polygon points="1,85 6,80 83,80 83,90 6,90 1,85 " style="fill:white; stroke-width:1; stroke:black; " description="&lt;b&gt;C813_RS37810&lt;/b&gt;&lt;br&gt;ComEC family protein&lt;br&gt;Location: 3138388 - 3140652" locus_tag="C813_RS37810" class="clusterblast-orf" id="dummy-1_h1_4_0"  />
</g>
<g id="a1_001"  >
<polygon points="91,85 96,80 101,80 101,90 96,90 91,85 " style="fill:#d81515; stroke-width:1; stroke:black; " description="&lt;b&gt;C813_RS37815&lt;/b&gt;&lt;br&gt;integration host factor subunit beta&lt;br&gt;Location: 3140869 - 3141153&lt;br&gt;&lt;br&gt;&lt;b&gt;BlastP hit with MCIC6FC_004335&lt;/b&gt;&lt;br&gt;Percentage identity: 95&lt;br&gt;Percentage coverage: 99&lt;br&gt;BLAST bit score: 183&lt;br&gt;E-value: 1.3e-44" locus_tag="C813_RS37815" class="clusterblast-orf" id="dummy-1_h1_4_1"  />
</g>
<g id="a1_002"  >
<polygon points="108,85 113,80 169,80 169,90 113,90 108,85 " style="fill:#15d815; stroke-width:1; stroke:black; " description="&lt;b&gt;C813_RS37820&lt;/b&gt;&lt;br&gt;30S ribosomal protein S1&lt;br&gt;Location: 3141337 - 3143010&lt;br&gt;&lt;br&gt;&lt;b&gt;BlastP hit with MCIC6FC_004336&lt;/b&gt;&lt;br&gt;Percentage identity: 96&lt;br&gt;Percentage coverage: 100&lt;br&gt;BLAST bit score: 1049&lt;br&gt;E-value: 1.7e-304" locus_tag="C813_RS37820" class="clusterblast-orf" id="dummy-1_h1_4_2"  />
</g>
<g id="a1_003"  >
<polygon points="173,85 178,80 198,80 198,90 178,90 173,85 " style="fill:#1597d8; stroke-width:1; stroke:black; " description="&lt;b&gt;C813_RS37825&lt;/b&gt;&lt;br&gt;(d)CMP kinase&lt;br&gt;Location: 3143124 - 3143807&lt;br&gt;&lt;br&gt;&lt;b&gt;BlastP hit with MCIC6FC_004337&lt;/b&gt;&lt;br&gt;Percentage identity: 76&lt;br&gt;Percentage coverage: 108&lt;br&gt;BLAST bit score: 329&lt;br&gt;E-value: 2.6e-88" locus_tag="C813_RS37825" class="clusterblast-orf" id="dummy-1_h1_4_3"  />
</g>
<g id="a1_004"  >
<polygon points="204,85 209,80 251,80 251,90 209,90 204,85 " style="fill:#9715d8; stroke-width:1; stroke:black; " description="&lt;b&gt;C813_RS37830&lt;/b&gt;&lt;br&gt;3-phosphoshikimate 1-carboxyvinyltransferase&lt;br&gt;Location: 3143974 - 3145257&lt;br&gt;&lt;br&gt;&lt;b&gt;BlastP hit with MCIC6FC_004338&lt;/b&gt;&lt;br&gt;Percentage identity: 78&lt;br&gt;Percentage coverage: 102&lt;br&gt;BLAST bit score: 601&lt;br&gt;E-value: 6.4e-170" locus_tag="C813_RS37830" class="clusterblast-orf" id="dummy-1_h1_4_4"  />
</g>
<g id="a1_005"  >
<polygon points="254,85 259,80 293,80 293,90 259,90 254,85 " style="fill:#d89715; stroke-width:1; stroke:black; " description="&lt;b&gt;C813_RS37835&lt;/b&gt;&lt;br&gt;3-phosphoserine/phosphohydroxythreonine transaminase&lt;br&gt;Location: 3145329 - 3146414&lt;br&gt;&lt;br&gt;&lt;b&gt;BlastP hit with MCIC6FC_004339&lt;/b&gt;&lt;br&gt;Percentage identity: 75&lt;br&gt;Percentage coverage: 104&lt;br&gt;BLAST bit score: 547&lt;br&gt;E-value: 7.4e-154" locus_tag="C813_RS37835" class="clusterblast-orf" id="dummy-1_h1_4_5"  />
</g>
<g id="a1_006"  >
<polygon points="299,85 304,80 324,80 324,90 304,90 299,85 " style="fill:white; stroke-width:1; stroke:black; " description="&lt;b&gt;C813_RS37840&lt;/b&gt;&lt;br&gt;DUF421 domain-containing protein&lt;br&gt;Location: 3146577 - 3147269" locus_tag="C813_RS37840" class="clusterblast-orf" id="dummy-1_h1_4_6"  />
</g>
<g id="a1_007"  >
<polygon points="329,90 389,90 394,85 389,80 329,80 329,90 " style="fill:#15d897; stroke-width:1; stroke:black; " description="&lt;b&gt;C813_RS37845&lt;/b&gt;&lt;br&gt;30S ribosomal protein S12 methylthiotransferase accessory factor YcaO&lt;br&gt;Location: 3147407 - 3149167&lt;br&gt;&lt;br&gt;&lt;b&gt;BlastP hit with MCIC6FC_004340&lt;/b&gt;&lt;br&gt;Percentage identity: 77&lt;br&gt;Percentage coverage: 39&lt;br&gt;BLAST bit score: 895&lt;br&gt;E-value: 6.4e-258" locus_tag="C813_RS37845" class="clusterblast-orf" id="dummy-1_h1_4_7"  />
</g>
<g id="a1_008"  >
<polygon points="408,90 435,90 440,85 435,80 408,80 408,90 " style="fill:#15d897; stroke-width:1; stroke:black; " description="&lt;b&gt;C813_RS37850&lt;/b&gt;&lt;br&gt;formate transporter FocA&lt;br&gt;Location: 3149573 - 3150430&lt;br&gt;&lt;br&gt;&lt;b&gt;BlastP hit with MCIC6FC_004340&lt;/b&gt;&lt;br&gt;Percentage identity: 76&lt;br&gt;Percentage coverage: 14&lt;br&gt;BLAST bit score: 323&lt;br&gt;E-value: 1.3e-85" locus_tag="C813_RS37850" class="clusterblast-orf" id="dummy-1_h1_4_8"  />
</g>
<g id="a1_009"  >
<polygon points="442,90 520,90 525,85 520,80 442,80 442,90 " style="fill:#15d897; stroke-width:1; stroke:black; " description="&lt;b&gt;C813_RS37855&lt;/b&gt;&lt;br&gt;formate C-acetyltransferase&lt;br&gt;Location: 3150482 - 3152764&lt;br&gt;&lt;br&gt;&lt;b&gt;BlastP hit with MCIC6FC_004340&lt;/b&gt;&lt;br&gt;Percentage identity: 87&lt;br&gt;Percentage coverage: 51&lt;br&gt;BLAST bit score: 1334&lt;br&gt;E-value: 0.0" locus_tag="C813_RS37855" class="clusterblast-orf" id="dummy-1_h1_4_9"  />
</g>
<g id="a1_0010"  >
<polygon points="532,90 554,90 559,85 554,80 532,80 532,90 " style="fill:#1515d8; stroke-width:1; stroke:black; " description="&lt;b&gt;C813_RS37860&lt;/b&gt;&lt;br&gt;pyruvate formate lyase 1-activating protein&lt;br&gt;Location: 3152959 - 3153699&lt;br&gt;&lt;br&gt;&lt;b&gt;BlastP hit with MCIC6FC_004341&lt;/b&gt;&lt;br&gt;Percentage identity: 86&lt;br&gt;Percentage coverage: 100&lt;br&gt;BLAST bit score: 462&lt;br&gt;E-value: 3.9e-128" locus_tag="C813_RS37860" class="clusterblast-orf" id="dummy-1_h1_4_10"  />
</g>
<g id="a1_0011"  >
<polygon points="561,85 566,80 603,80 603,90 566,90 561,85 " style="fill:#d81597; stroke-width:1; stroke:black; " description="&lt;b&gt;C813_RS37865&lt;/b&gt;&lt;br&gt;MFS transporter&lt;br&gt;Location: 3153766 - 3154914&lt;br&gt;&lt;br&gt;&lt;b&gt;BlastP hit with MCIC6FC_004342&lt;/b&gt;&lt;br&gt;Percentage identity: 49&lt;br&gt;Percentage coverage: 151&lt;br&gt;BLAST bit score: 311&lt;br&gt;E-value: 6.4e-83" locus_tag="C813_RS37865" class="clusterblast-orf" id="dummy-1_h1_4_11"  />
</g>
<g id="a1_0012"  >
<polygon points="620,85 625,80 667,80 667,90 625,90 620,85 " style="fill:#97d815; stroke-width:1; stroke:black; " description="&lt;b&gt;C813_RS37870&lt;/b&gt;&lt;br&gt;serine--tRNA ligase&lt;br&gt;Location: 3155366 - 3156658&lt;br&gt;&lt;br&gt;&lt;b&gt;BlastP hit with MCIC6FC_004343&lt;/b&gt;&lt;br&gt;Percentage identity: 82&lt;br&gt;Percentage coverage: 18&lt;br&gt;BLAST bit score: 719&lt;br&gt;E-value: 1e-204" locus_tag="C813_RS37870" class="clusterblast-orf" id="dummy-1_h1_4_12"  />
</g>
<g id="a1_0013"  >
<polygon points="670,85 675,80 719,80 719,90 675,90 670,85 " style="fill:#97d815; stroke-width:1; stroke:black; " description="&lt;b&gt;C813_RS37875&lt;/b&gt;&lt;br&gt;replication-associated recombination protein RarA&lt;br&gt;Location: 3156750 - 3158093&lt;br&gt;&lt;br&gt;&lt;b&gt;BlastP hit with MCIC6FC_004343&lt;/b&gt;&lt;br&gt;Percentage identity: 86&lt;br&gt;Percentage coverage: 17&lt;br&gt;BLAST bit score: 681&lt;br&gt;E-value: 4e-193" locus_tag="C813_RS37875" class="clusterblast-orf" id="dummy-1_h1_4_13"  />
</g>
<g id="a1_0014"  >
<polygon points="719,85 724,80 742,80 742,90 724,90 719,85 " style="fill:white; stroke-width:1; stroke:black; " description="&lt;b&gt;C813_RS37880&lt;/b&gt;&lt;br&gt;outer membrane lipoprotein chaperone LolA&lt;br&gt;Location: 3158103 - 3158714" locus_tag="C813_RS37880" class="clusterblast-orf" id="dummy-1_h1_4_14"  />
</g>
<g id="a1_0015"  >
<polygon points="754,90 773,90 778,85 773,80 754,80 754,90 " style="fill:white; stroke-width:1; stroke:black; " description="&lt;b&gt;C813_RS37885&lt;/b&gt;&lt;br&gt;hypothetical protein&lt;br&gt;Location: 3159042 - 3159719" locus_tag="C813_RS37885" class="clusterblast-orf" id="dummy-1_h1_4_15"  />
</g>
</svg>
