<svg xmlns="http://www.w3.org/2000/svg" xmlns:xlink="http://www.w3.org/1999/xlink" version="1.1" x="0" y="0" height="230" width="800" viewBox="0 0 800 230" preserveAspectRatio="none"  >
<g label="Query sequence" class="clusterblast-cluster"  >
<text x="5" y="20" class="clusterblast-acc"  >
Query sequence</text>
<line x1="10" y1="35" x2="778.0" y2="35" style="stroke-width:1; stroke:grey; "  />
<polygon points="0,35 5,30 18,30 18,40 5,40 0,35 " style="fill:white; stroke-width:1; stroke:black; " description="&lt;b&gt;MCIC6FC_007663&lt;/b&gt;&lt;br&gt;hypothetical protein&lt;br&gt;Location: 1093721 - 1096121" locus_tag="MCIC6FC_007663" class="clusterblast-orf" id="dummy-4_q0_0_all"  />
<polygon points="21,40 21,40 26,35 21,30 21,30 21,40 " style="fill:#d81515; stroke-width:1; stroke:black; " description="&lt;b&gt;MCIC6FC_007664&lt;/b&gt;&lt;br&gt;hypothetical protein&lt;br&gt;Location: 1096391 - 1097087" locus_tag="MCIC6FC_007664" class="clusterblast-orf" id="dummy-4_q1_0_all"  />
<polygon points="27,35 32,30 40,30 40,40 32,40 27,35 " style="fill:#63d815; stroke-width:1; stroke:black; " description="&lt;b&gt;MCIC6FC_007665&lt;/b&gt;&lt;br&gt;hypothetical protein&lt;br&gt;Location: 1097151 - 1098795" locus_tag="MCIC6FC_007665" class="clusterblast-orf" id="dummy-4_q2_0_all"  />
<polygon points="40,35 45,30 63,30 63,40 45,40 40,35 " style="fill:#15b1d8; stroke-width:1; stroke:black; " description="&lt;b&gt;MCIC6FC_007666&lt;/b&gt;&lt;br&gt;hypothetical protein&lt;br&gt;Location: 1098900 - 1101713" locus_tag="MCIC6FC_007666" class="clusterblast-orf" id="dummy-4_q3_0_all"  />
<polygon points="68,35 73,30 76,30 76,40 73,40 68,35 " style="fill:#b115d8; stroke-width:1; stroke:black; " description="&lt;b&gt;MCIC6FC_007667&lt;/b&gt;&lt;br&gt;hypothetical protein&lt;br&gt;Location: 1102460 - 1103483" locus_tag="MCIC6FC_007667" class="clusterblast-orf" id="dummy-4_q4_0_all"  />
<polygon points="78,40 98,40 103,35 98,30 78,30 78,40 " style="fill:#d86315; stroke-width:1; stroke:black; " description="&lt;b&gt;MCIC6FC_007668&lt;/b&gt;&lt;br&gt;hypothetical protein&lt;br&gt;Location: 1103667 - 1106912" locus_tag="MCIC6FC_007668" class="clusterblast-orf" id="dummy-4_q5_0_all"  />
<polygon points="104,35 109,30 116,30 116,40 109,40 104,35 " style="fill:white; stroke-width:1; stroke:black; " description="&lt;b&gt;MCIC6FC_007669&lt;/b&gt;&lt;br&gt;hypothetical protein&lt;br&gt;Location: 1106991 - 1108552" locus_tag="MCIC6FC_007669" class="clusterblast-orf" id="dummy-4_q6_0_all"  />
<polygon points="118,40 150,40 155,35 150,30 118,30 118,40 " style="fill:#15d815; stroke-width:1; stroke:black; " description="&lt;b&gt;MCIC6FC_007670&lt;/b&gt;&lt;br&gt;hypothetical protein&lt;br&gt;Location: 1108741 - 1113501" locus_tag="MCIC6FC_007670" class="clusterblast-orf" id="dummy-4_q7_0_all"  />
<polygon points="156,40 198,40 203,35 198,30 156,30 156,40 " style="fill:white; stroke-width:1; stroke:black; " description="&lt;b&gt;MCIC6FC_007671&lt;/b&gt;&lt;br&gt;hypothetical protein&lt;br&gt;Location: 1113526 - 1119611" locus_tag="MCIC6FC_007671" class="clusterblast-orf" id="dummy-4_q8_0_all"  />
<polygon points="205,35 210,30 257,30 257,40 210,40 205,35 " style="fill:white; stroke-width:1; stroke:black; " description="&lt;b&gt;MCIC6FC_007672&lt;/b&gt;&lt;br&gt;hypothetical protein&lt;br&gt;Location: 1119764 - 1126360" locus_tag="MCIC6FC_007672" class="clusterblast-orf" id="dummy-4_q9_0_all"  />
<polygon points="266,40 269,40 274,35 269,30 266,30 266,40 " style="fill:white; stroke-width:1; stroke:black; " description="&lt;b&gt;MCIC6FC_007673&lt;/b&gt;&lt;br&gt;hypothetical protein&lt;br&gt;Location: 1127567 - 1128578" locus_tag="MCIC6FC_007673" class="clusterblast-orf" id="dummy-4_q10_0_all"  />
<polygon points="274,40 312,40 317,35 312,30 274,30 274,40 " style="fill:white; stroke-width:1; stroke:black; " description="&lt;b&gt;MCIC6FC_007674&lt;/b&gt;&lt;br&gt;hypothetical protein&lt;br&gt;Location: 1128582 - 1134029" locus_tag="MCIC6FC_007674" class="clusterblast-orf" id="dummy-4_q11_0_all"  />
<polygon points="317,40 337,40 342,35 337,30 317,30 317,40 " style="fill:white; stroke-width:1; stroke:black; " description="&lt;b&gt;MCIC6FC_007675&lt;/b&gt;&lt;br&gt;hypothetical protein&lt;br&gt;Location: 1134052 - 1137201" locus_tag="MCIC6FC_007675" class="clusterblast-orf" id="dummy-4_q12_0_all"  />
<polygon points="346,40 350,40 355,35 350,30 346,30 346,40 " style="fill:#1563d8; stroke-width:1; stroke:black; " description="&lt;b&gt;MCIC6FC_007676&lt;/b&gt;&lt;br&gt;hypothetical protein&lt;br&gt;Location: 1137745 - 1138843" locus_tag="MCIC6FC_007676" class="clusterblast-orf" id="dummy-4_q13_0_all"  />
<polygon points="355,40 369,40 374,35 369,30 355,30 355,40 " style="fill:#d815b1; stroke-width:1; stroke:black; " description="&lt;b&gt;MCIC6FC_007677&lt;/b&gt;&lt;br&gt;hypothetical protein&lt;br&gt;Location: 1138918 - 1141240" locus_tag="MCIC6FC_007677" class="clusterblast-orf" id="dummy-4_q14_0_all"  />
<polygon points="374,40 416,40 421,35 416,30 374,30 374,40 " style="fill:#d8b115; stroke-width:1; stroke:black; " description="&lt;b&gt;MCIC6FC_007678&lt;/b&gt;&lt;br&gt;hypothetical protein&lt;br&gt;Location: 1141329 - 1147247" locus_tag="MCIC6FC_007678" class="clusterblast-orf" id="dummy-4_q15_0_all"  />
<polygon points="423,35 428,30 431,30 431,40 428,40 423,35 " style="fill:#15d863; stroke-width:1; stroke:black; " description="&lt;b&gt;MCIC6FC_007679&lt;/b&gt;&lt;br&gt;hypothetical protein&lt;br&gt;Location: 1147487 - 1148477" locus_tag="MCIC6FC_007679" class="clusterblast-orf" id="dummy-4_q16_0_all"  />
<polygon points="432,40 444,40 449,35 444,30 432,30 432,40 " style="fill:#1515d8; stroke-width:1; stroke:black; " description="&lt;b&gt;MCIC6FC_007680&lt;/b&gt;&lt;br&gt;hypothetical protein&lt;br&gt;Location: 1148651 - 1150764" locus_tag="MCIC6FC_007680" class="clusterblast-orf" id="dummy-4_q17_0_all"  />
<polygon points="449,35 454,30 466,30 466,40 454,40 449,35 " style="fill:#1515d8; stroke-width:1; stroke:black; " description="&lt;b&gt;MCIC6FC_007681&lt;/b&gt;&lt;br&gt;hypothetical protein&lt;br&gt;Location: 1150848 - 1152996" locus_tag="MCIC6FC_007681" class="clusterblast-orf" id="dummy-4_q18_0_all"  />
<polygon points="467,35 472,30 498,30 498,40 472,40 467,35 " style="fill:#d81563; stroke-width:1; stroke:black; " description="&lt;b&gt;MCIC6FC_007682&lt;/b&gt;&lt;br&gt;hypothetical protein&lt;br&gt;Location: 1153029 - 1156964" locus_tag="MCIC6FC_007682" class="clusterblast-orf" id="dummy-4_q19_0_all"  />
<polygon points="500,40 545,40 550,35 545,30 500,30 500,40 " style="fill:#15d815; stroke-width:1; stroke:black; " description="&lt;b&gt;MCIC6FC_007683&lt;/b&gt;&lt;br&gt;hypothetical protein&lt;br&gt;Location: 1157259 - 1163679" locus_tag="MCIC6FC_007683" class="clusterblast-orf" id="dummy-4_q20_0_all"  />
<polygon points="551,40 625,40 630,35 625,30 551,30 551,40 " style="fill:#15d815; stroke-width:1; stroke:black; " description="&lt;b&gt;MCIC6FC_007684&lt;/b&gt;&lt;br&gt;hypothetical protein&lt;br&gt;Location: 1163717 - 1173743" locus_tag="MCIC6FC_007684" class="clusterblast-orf" id="dummy-4_q21_0_all"  />
<polygon points="630,40 710,40 715,35 710,30 630,30 630,40 " style="fill:#15d815; stroke-width:1; stroke:black; " description="&lt;b&gt;MCIC6FC_007685&lt;/b&gt;&lt;br&gt;hypothetical protein&lt;br&gt;Location: 1173784 - 1184642" locus_tag="MCIC6FC_007685" class="clusterblast-orf" id="dummy-4_q22_0_all"  />
<polygon points="715,40 737,40 742,35 737,30 715,30 715,40 " style="fill:#b1d815; stroke-width:1; stroke:black; " description="&lt;b&gt;MCIC6FC_007686&lt;/b&gt;&lt;br&gt;hypothetical protein&lt;br&gt;Location: 1184649 - 1188017" locus_tag="MCIC6FC_007686" class="clusterblast-orf" id="dummy-4_q23_0_all"  />
<polygon points="743,40 762,40 767,35 762,30 743,30 743,40 " style="fill:#15d8b1; stroke-width:1; stroke:black; " description="&lt;b&gt;MCIC6FC_007687&lt;/b&gt;&lt;br&gt;hypothetical protein&lt;br&gt;Location: 1188087 - 1191138" locus_tag="MCIC6FC_007687" class="clusterblast-orf" id="dummy-4_q24_0_all"  />
<polygon points="767,35 772,30 780,30 780,40 772,40 767,35 " style="fill:#6315d8; stroke-width:1; stroke:black; " description="&lt;b&gt;MCIC6FC_007688&lt;/b&gt;&lt;br&gt;hypothetical protein&lt;br&gt;Location: 1191187 - 1192790" locus_tag="MCIC6FC_007688" class="clusterblast-orf" id="dummy-4_q25_0_all"  />
</g>
<g label="NZ_CP007637" description="NZ_CP007637 (2870018-2932486): Pseudomonas simiae strain WCS417 genome (35% of genes show similarity), NRPS" class="clusterblast-cluster"  >
<text x="5" y="70" class="clusterblast-acc"  >
<a xlink:href="https://antismash-db.secondarymetabolites.org/area.html?record=NZ_CP007637&amp;start=2870018&amp;end=2932486" target="_blank">NZ_CP007637 (2870018-2932486)</a>: Pseudomonas simiae strain WCS417 genome (35% of genes show similarity), NRPS</text>
<line x1="10" y1="85" x2="778.0" y2="85" style="stroke-width:1; stroke:grey; "  />
</g>
<g id="a4_000"  >
<polygon points="144,85 149,80 151,80 151,90 149,90 144,85 " style="fill:white; stroke-width:1; stroke:black; " description="&lt;b&gt;PS417_RS14715&lt;/b&gt;&lt;br&gt;aldo/keto reductase&lt;br&gt;Location: 2932486 - 2931500" locus_tag="PS417_RS14715" class="clusterblast-orf" id="dummy-4_h4_10_0"  />
</g>
<g id="a4_001"  >
<polygon points="154,90 162,90 167,85 162,80 154,80 154,90 " style="fill:white; stroke-width:1; stroke:black; " description="&lt;b&gt;PS417_RS14720&lt;/b&gt;&lt;br&gt;GH3 auxin-responsive promoter family protein&lt;br&gt;Location: 2931185 - 2929530" locus_tag="PS417_RS14720" class="clusterblast-orf" id="dummy-4_h4_10_1"  />
</g>
<g id="a4_002"  >
<polygon points="167,90 169,90 174,85 169,80 167,80 167,90 " style="fill:white; stroke-width:1; stroke:black; " description="&lt;b&gt;PS417_RS14725&lt;/b&gt;&lt;br&gt;alpha/beta fold hydrolase&lt;br&gt;Location: 2929514 - 2928636" locus_tag="PS417_RS14725" class="clusterblast-orf" id="dummy-4_h4_10_2"  />
</g>
<g id="a4_003"  >
<polygon points="174,90 178,90 183,85 178,80 174,80 174,90 " style="fill:white; stroke-width:1; stroke:black; " description="&lt;b&gt;PS417_RS14730&lt;/b&gt;&lt;br&gt;L-alanine-DL-glutamate epimerase&lt;br&gt;Location: 2928649 - 2927456" locus_tag="PS417_RS14730" class="clusterblast-orf" id="dummy-4_h4_10_3"  />
</g>
<g id="a4_004"  >
<polygon points="183,90 192,90 197,85 192,80 183,80 183,90 " style="fill:white; stroke-width:1; stroke:black; " description="&lt;b&gt;PS417_RS14735&lt;/b&gt;&lt;br&gt;thiamine pyrophosphate-binding protein&lt;br&gt;Location: 2927459 - 2925738" locus_tag="PS417_RS14735" class="clusterblast-orf" id="dummy-4_h4_10_4"  />
</g>
<g id="a4_005"  >
<polygon points="197,90 199,90 204,85 199,80 197,80 197,90 " style="fill:white; stroke-width:1; stroke:black; " description="&lt;b&gt;PS417_RS14740&lt;/b&gt;&lt;br&gt;sugar transporter&lt;br&gt;Location: 2925728 - 2924856" locus_tag="PS417_RS14740" class="clusterblast-orf" id="dummy-4_h4_10_5"  />
</g>
<g id="a4_006"  >
<polygon points="204,90 206,85 204,80 204,90 " style="fill:white; stroke-width:1; stroke:black; " description="&lt;b&gt;PS417_RS14745&lt;/b&gt;&lt;br&gt;Dabb family protein&lt;br&gt;Location: 2924863 - 2924543" locus_tag="PS417_RS14745" class="clusterblast-orf" id="dummy-4_h4_10_6"  />
</g>
<g id="a4_007"  >
<polygon points="206,90 207,90 212,85 207,80 206,80 206,90 " style="fill:white; stroke-width:1; stroke:black; " description="&lt;b&gt;PS417_RS14750&lt;/b&gt;&lt;br&gt;SDR family oxidoreductase&lt;br&gt;Location: 2924556 - 2923846" locus_tag="PS417_RS14750" class="clusterblast-orf" id="dummy-4_h4_10_7"  />
</g>
<g id="a4_008"  >
<polygon points="212,90 212,90 217,85 212,80 212,80 212,90 " style="fill:white; stroke-width:1; stroke:black; " description="&lt;b&gt;PS417_RS14755&lt;/b&gt;&lt;br&gt;TetR/AcrR family transcriptional regulator&lt;br&gt;Location: 2923737 - 2923165" locus_tag="PS417_RS14755" class="clusterblast-orf" id="dummy-4_h4_10_8"  />
</g>
<g id="a4_009"  >
<polygon points="218,85 223,80 226,80 226,90 223,90 218,85 " style="fill:#15d863; stroke-width:1; stroke:black; " description="&lt;b&gt;PS417_RS14760&lt;/b&gt;&lt;br&gt;helix-turn-helix transcriptional regulator&lt;br&gt;Location: 2923037 - 2922081&lt;br&gt;&lt;br&gt;&lt;b&gt;BlastP hit with MCIC6FC_007679&lt;/b&gt;&lt;br&gt;Percentage identity: 94&lt;br&gt;Percentage coverage: 96&lt;br&gt;BLAST bit score: 606&lt;br&gt;E-value: 1.3e-171" locus_tag="PS417_RS14760" class="clusterblast-orf" id="dummy-4_h4_10_9"  />
</g>
<g id="a4_0010"  >
<polygon points="228,90 239,90 244,85 239,80 228,80 228,90 " style="fill:#1515d8; stroke-width:1; stroke:black; " description="&lt;b&gt;PS417_RS14765&lt;/b&gt;&lt;br&gt;TonB-dependent receptor&lt;br&gt;Location: 2921810 - 2919762&lt;br&gt;&lt;br&gt;&lt;b&gt;BlastP hit with MCIC6FC_007680&lt;/b&gt;&lt;br&gt;Percentage identity: 96&lt;br&gt;Percentage coverage: 98&lt;br&gt;BLAST bit score: 1306&lt;br&gt;E-value: 0.0&lt;br&gt;&lt;br&gt;&lt;b&gt;BlastP hit with MCIC6FC_007681&lt;/b&gt;&lt;br&gt;Percentage identity: 57&lt;br&gt;Percentage coverage: 94&lt;br&gt;BLAST bit score: 762&lt;br&gt;E-value: 5.3e-218" locus_tag="PS417_RS14765" class="clusterblast-orf" id="dummy-4_h4_10_10"  />
</g>
<g id="a4_0011"  >
<polygon points="245,85 250,80 262,80 262,90 250,90 245,85 " style="fill:#1515d8; stroke-width:1; stroke:black; " description="&lt;b&gt;PS417_RS14770&lt;/b&gt;&lt;br&gt;TonB-dependent receptor&lt;br&gt;Location: 2919636 - 2917489&lt;br&gt;&lt;br&gt;&lt;b&gt;BlastP hit with MCIC6FC_007680&lt;/b&gt;&lt;br&gt;Percentage identity: 58&lt;br&gt;Percentage coverage: 98&lt;br&gt;BLAST bit score: 772&lt;br&gt;E-value: 3.8e-221&lt;br&gt;&lt;br&gt;&lt;b&gt;BlastP hit with MCIC6FC_007681&lt;/b&gt;&lt;br&gt;Percentage identity: 98&lt;br&gt;Percentage coverage: 100&lt;br&gt;BLAST bit score: 1398&lt;br&gt;E-value: 0.0" locus_tag="PS417_RS14770" class="clusterblast-orf" id="dummy-4_h4_10_11"  />
</g>
<g id="a4_0012"  >
<polygon points="262,85 267,80 286,80 286,90 267,90 262,85 " style="fill:#d81563; stroke-width:1; stroke:black; " description="&lt;b&gt;PS417_RS14775&lt;/b&gt;&lt;br&gt;membrane protein&lt;br&gt;Location: 2917455 - 2914402&lt;br&gt;&lt;br&gt;&lt;b&gt;BlastP hit with MCIC6FC_007682&lt;/b&gt;&lt;br&gt;Percentage identity: 91&lt;br&gt;Percentage coverage: 79&lt;br&gt;BLAST bit score: 1800&lt;br&gt;E-value: 0.0" locus_tag="PS417_RS14775" class="clusterblast-orf" id="dummy-4_h4_10_12"  />
</g>
<g id="a4_0013"  >
<polygon points="286,85 291,80 293,80 293,90 291,90 286,85 " style="fill:#d81563; stroke-width:1; stroke:black; " description="&lt;b&gt;PS417_RS14780&lt;/b&gt;&lt;br&gt;ABC transporter ATP-binding protein&lt;br&gt;Location: 2914405 - 2913521&lt;br&gt;&lt;br&gt;&lt;b&gt;BlastP hit with MCIC6FC_007682&lt;/b&gt;&lt;br&gt;Percentage identity: 97&lt;br&gt;Percentage coverage: 21&lt;br&gt;BLAST bit score: 517&lt;br&gt;E-value: 4.1e-144" locus_tag="PS417_RS14780" class="clusterblast-orf" id="dummy-4_h4_10_13"  />
</g>
<g id="a4_0014"  >
<polygon points="295,90 341,90 346,85 341,80 295,80 295,90 " style="fill:#15d815; stroke-width:1; stroke:black; " description="&lt;b&gt;PS417_RS14785&lt;/b&gt;&lt;br&gt;non-ribosomal peptide synthetase&lt;br&gt;Location: 2913225 - 2906806&lt;br&gt;&lt;br&gt;&lt;b&gt;BlastP hit with MCIC6FC_007683&lt;/b&gt;&lt;br&gt;Percentage identity: 93&lt;br&gt;Percentage coverage: 100&lt;br&gt;BLAST bit score: 4001&lt;br&gt;E-value: 0.0&lt;br&gt;&lt;br&gt;&lt;b&gt;BlastP hit with MCIC6FC_007684&lt;/b&gt;&lt;br&gt;Percentage identity: 43&lt;br&gt;Percentage coverage: 28&lt;br&gt;BLAST bit score: 650&lt;br&gt;E-value: 7.9e-184" locus_tag="PS417_RS14785" class="clusterblast-orf" id="dummy-4_h4_10_14"  />
</g>
<g id="a4_0015"  >
<polygon points="346,90 384,90 389,85 384,80 346,80 346,90 " style="fill:#15d815; stroke-width:1; stroke:black; " description="&lt;b&gt;PS417_RS14790&lt;/b&gt;&lt;br&gt;non-ribosomal peptide synthetase&lt;br&gt;Location: 2906767 - 2901311&lt;br&gt;&lt;br&gt;&lt;b&gt;BlastP hit with MCIC6FC_007683&lt;/b&gt;&lt;br&gt;Percentage identity: 43&lt;br&gt;Percentage coverage: 43&lt;br&gt;BLAST bit score: 656&lt;br&gt;E-value: 7.2e-186&lt;br&gt;&lt;br&gt;&lt;b&gt;BlastP hit with MCIC6FC_007684&lt;/b&gt;&lt;br&gt;Percentage identity: 96&lt;br&gt;Percentage coverage: 55&lt;br&gt;BLAST bit score: 3427&lt;br&gt;E-value: 0.0&lt;br&gt;&lt;br&gt;&lt;b&gt;BlastP hit with MCIC6FC_007685&lt;/b&gt;&lt;br&gt;Percentage identity: 34&lt;br&gt;Percentage coverage: 13&lt;br&gt;BLAST bit score: 202&lt;br&gt;E-value: 5.8e-49" locus_tag="PS417_RS14790" class="clusterblast-orf" id="dummy-4_h4_10_15"  />
</g>
<g id="a4_0016"  >
<polygon points="389,90 398,90 403,85 398,80 389,80 389,90 " style="fill:#15d815; stroke-width:1; stroke:black; " description="&lt;b&gt;PS417_RS14795&lt;/b&gt;&lt;br&gt;ABC transporter ATP-binding protein&lt;br&gt;Location: 2901314 - 2899581&lt;br&gt;&lt;br&gt;&lt;b&gt;BlastP hit with MCIC6FC_007684&lt;/b&gt;&lt;br&gt;Percentage identity: 98&lt;br&gt;Percentage coverage: 17&lt;br&gt;BLAST bit score: 1026&lt;br&gt;E-value: 5.3e-297" locus_tag="PS417_RS14795" class="clusterblast-orf" id="dummy-4_h4_10_16"  />
</g>
<g id="a4_0017"  >
<polygon points="403,90 411,90 416,85 411,80 403,80 403,90 " style="fill:#15d815; stroke-width:1; stroke:black; " description="&lt;b&gt;PS417_RS14800&lt;/b&gt;&lt;br&gt;ABC transporter ATP-binding protein&lt;br&gt;Location: 2899584 - 2897839&lt;br&gt;&lt;br&gt;&lt;b&gt;BlastP hit with MCIC6FC_007684&lt;/b&gt;&lt;br&gt;Percentage identity: 96&lt;br&gt;Percentage coverage: 17&lt;br&gt;BLAST bit score: 1012&lt;br&gt;E-value: 1.4e-292" locus_tag="PS417_RS14800" class="clusterblast-orf" id="dummy-4_h4_10_17"  />
</g>
<g id="a4_0018"  >
<polygon points="416,90 420,90 425,85 420,80 416,80 416,90 " style="fill:#15d815; stroke-width:1; stroke:black; " description="&lt;b&gt;PS417_RS14805&lt;/b&gt;&lt;br&gt;saccharopine dehydrogenase&lt;br&gt;Location: 2897845 - 2896742&lt;br&gt;&lt;br&gt;&lt;b&gt;BlastP hit with MCIC6FC_007684&lt;/b&gt;&lt;br&gt;Percentage identity: 90&lt;br&gt;Percentage coverage: 11&lt;br&gt;BLAST bit score: 669&lt;br&gt;E-value: 2.2e-189" locus_tag="PS417_RS14805" class="clusterblast-orf" id="dummy-4_h4_10_18"  />
</g>
<g id="a4_0019"  >
<polygon points="425,90 428,90 433,85 428,80 425,80 425,90 " style="fill:white; stroke-width:1; stroke:black; " description="&lt;b&gt;PS417_RS14810&lt;/b&gt;&lt;br&gt;class I SAM-dependent methyltransferase&lt;br&gt;Location: 2896745 - 2895711" locus_tag="PS417_RS14810" class="clusterblast-orf" id="dummy-4_h4_10_19"  />
</g>
<g id="a4_0020"  >
<polygon points="433,90 441,90 446,85 441,80 433,80 433,90 " style="fill:#15d815; stroke-width:1; stroke:black; " description="&lt;b&gt;PS417_RS14815&lt;/b&gt;&lt;br&gt;class I SAM-dependent methyltransferase&lt;br&gt;Location: 2895714 - 2894044&lt;br&gt;&lt;br&gt;&lt;b&gt;BlastP hit with MCIC6FC_007685&lt;/b&gt;&lt;br&gt;Percentage identity: 92&lt;br&gt;Percentage coverage: 17&lt;br&gt;BLAST bit score: 1012&lt;br&gt;E-value: 1.4e-292" locus_tag="PS417_RS14815" class="clusterblast-orf" id="dummy-4_h4_10_20"  />
</g>
<g id="a4_0021"  >
<polygon points="446,90 451,90 456,85 451,80 446,80 446,90 " style="fill:#15d815; stroke-width:1; stroke:black; " description="&lt;b&gt;PS417_RS14820&lt;/b&gt;&lt;br&gt;cytochrome P450&lt;br&gt;Location: 2894047 - 2892869&lt;br&gt;&lt;br&gt;&lt;b&gt;BlastP hit with MCIC6FC_007685&lt;/b&gt;&lt;br&gt;Percentage identity: 97&lt;br&gt;Percentage coverage: 11&lt;br&gt;BLAST bit score: 704&lt;br&gt;E-value: 6.2e-200" locus_tag="PS417_RS14820" class="clusterblast-orf" id="dummy-4_h4_10_21"  />
</g>
<g id="a4_0022"  >
<polygon points="455,90 459,90 464,85 459,80 455,80 455,90 " style="fill:#15d815; stroke-width:1; stroke:black; " description="&lt;b&gt;PS417_RS14825&lt;/b&gt;&lt;br&gt;thiazolinyl imide reductase&lt;br&gt;Location: 2892872 - 2891727&lt;br&gt;&lt;br&gt;&lt;b&gt;BlastP hit with MCIC6FC_007685&lt;/b&gt;&lt;br&gt;Percentage identity: 89&lt;br&gt;Percentage coverage: 11&lt;br&gt;BLAST bit score: 679&lt;br&gt;E-value: 2.1e-192" locus_tag="PS417_RS14825" class="clusterblast-orf" id="dummy-4_h4_10_22"  />
</g>
<g id="a4_0023"  >
<polygon points="464,90 465,90 470,85 465,80 464,80 464,90 " style="fill:white; stroke-width:1; stroke:black; " description="&lt;b&gt;PS417_RS14830&lt;/b&gt;&lt;br&gt;VOC family protein&lt;br&gt;Location: 2891730 - 2891011" locus_tag="PS417_RS14830" class="clusterblast-orf" id="dummy-4_h4_10_23"  />
</g>
<g id="a4_0024"  >
<polygon points="470,90 478,90 483,85 478,80 470,80 470,90 " style="fill:#15d815; stroke-width:1; stroke:black; " description="&lt;b&gt;PS417_RS14835&lt;/b&gt;&lt;br&gt;AMP-binding protein&lt;br&gt;Location: 2891018 - 2889420&lt;br&gt;&lt;br&gt;&lt;b&gt;BlastP hit with MCIC6FC_007670&lt;/b&gt;&lt;br&gt;Percentage identity: 37&lt;br&gt;Percentage coverage: 38&lt;br&gt;BLAST bit score: 307&lt;br&gt;E-value: 5.2e-81&lt;br&gt;&lt;br&gt;&lt;b&gt;BlastP hit with MCIC6FC_007685&lt;/b&gt;&lt;br&gt;Percentage identity: 91&lt;br&gt;Percentage coverage: 16&lt;br&gt;BLAST bit score: 960&lt;br&gt;E-value: 4.8e-277" locus_tag="PS417_RS14835" class="clusterblast-orf" id="dummy-4_h4_10_24"  />
</g>
<g id="a4_0025"  >
<polygon points="483,90 484,90 489,85 484,80 483,80 483,90 " style="fill:white; stroke-width:1; stroke:black; " description="&lt;b&gt;PS417_RS14840&lt;/b&gt;&lt;br&gt;thioesterase&lt;br&gt;Location: 2889423 - 2888665" locus_tag="PS417_RS14840" class="clusterblast-orf" id="dummy-4_h4_10_25"  />
</g>
<g id="a4_0026"  >
<polygon points="489,90 491,85 489,80 489,90 " style="fill:white; stroke-width:1; stroke:black; " description="&lt;b&gt;PS417_RS14845&lt;/b&gt;&lt;br&gt;isochorismate lyase&lt;br&gt;Location: 2888668 - 2888360" locus_tag="PS417_RS14845" class="clusterblast-orf" id="dummy-4_h4_10_26"  />
</g>
<g id="a4_0027"  >
<polygon points="491,90 497,90 502,85 497,80 491,80 491,90 " style="fill:#15d815; stroke-width:1; stroke:black; " description="&lt;b&gt;PS417_RS14850&lt;/b&gt;&lt;br&gt;isochorismate synthase&lt;br&gt;Location: 2888363 - 2886996&lt;br&gt;&lt;br&gt;&lt;b&gt;BlastP hit with MCIC6FC_007685&lt;/b&gt;&lt;br&gt;Percentage identity: 85&lt;br&gt;Percentage coverage: 13&lt;br&gt;BLAST bit score: 767&lt;br&gt;E-value: 4.5e-219" locus_tag="PS417_RS14850" class="clusterblast-orf" id="dummy-4_h4_10_27"  />
</g>
<g id="a4_0028"  >
<polygon points="505,90 510,90 515,85 510,80 505,80 505,90 " style="fill:white; stroke-width:1; stroke:black; " description="&lt;b&gt;PS417_RS14855&lt;/b&gt;&lt;br&gt;efflux RND transporter periplasmic adaptor subunit&lt;br&gt;Location: 2886545 - 2885304" locus_tag="PS417_RS14855" class="clusterblast-orf" id="dummy-4_h4_10_28"  />
</g>
<g id="a4_0029"  >
<polygon points="515,90 535,90 540,85 535,80 515,80 515,90 " style="fill:white; stroke-width:1; stroke:black; " description="&lt;b&gt;PS417_RS14860&lt;/b&gt;&lt;br&gt;efflux RND transporter permease subunit&lt;br&gt;Location: 2885288 - 2882109" locus_tag="PS417_RS14860" class="clusterblast-orf" id="dummy-4_h4_10_29"  />
</g>
<g id="a4_0030"  >
<polygon points="540,90 546,90 551,85 546,80 540,80 540,90 " style="fill:white; stroke-width:1; stroke:black; " description="&lt;b&gt;PS417_RS14865&lt;/b&gt;&lt;br&gt;TolC family protein&lt;br&gt;Location: 2882112 - 2880697" locus_tag="PS417_RS14865" class="clusterblast-orf" id="dummy-4_h4_10_30"  />
</g>
<g id="a4_0031"  >
<polygon points="552,85 557,80 560,80 560,90 557,90 552,85 " style="fill:white; stroke-width:1; stroke:black; " description="&lt;b&gt;PS417_RS14870&lt;/b&gt;&lt;br&gt;AraC family transcriptional regulator&lt;br&gt;Location: 2880587 - 2879562" locus_tag="PS417_RS14870" class="clusterblast-orf" id="dummy-4_h4_10_31"  />
</g>
<g id="a4_0032"  >
<polygon points="562,90 563,90 568,85 563,80 562,80 562,90 " style="fill:white; stroke-width:1; stroke:black; " description="&lt;b&gt;PS417_RS14875&lt;/b&gt;&lt;br&gt;iron transporter&lt;br&gt;Location: 2879394 - 2878561" locus_tag="PS417_RS14875" class="clusterblast-orf" id="dummy-4_h4_10_32"  />
</g>
<g id="a4_0033"  >
<polygon points="568,90 573,90 578,85 573,80 568,80 568,90 " style="fill:white; stroke-width:1; stroke:black; " description="&lt;b&gt;PS417_RS14880&lt;/b&gt;&lt;br&gt;iron uptake system protein EfeO&lt;br&gt;Location: 2878550 - 2877348" locus_tag="PS417_RS14880" class="clusterblast-orf" id="dummy-4_h4_10_33"  />
</g>
<g id="a4_0034"  >
<polygon points="578,90 583,90 588,85 583,80 578,80 578,90 " style="fill:white; stroke-width:1; stroke:black; " description="&lt;b&gt;PS417_RS14885&lt;/b&gt;&lt;br&gt;deferrochelatase/peroxidase EfeB&lt;br&gt;Location: 2877333 - 2876029" locus_tag="PS417_RS14885" class="clusterblast-orf" id="dummy-4_h4_10_34"  />
</g>
<g id="a4_0035"  >
<polygon points="588,90 590,90 595,85 590,80 588,80 588,90 " style="fill:white; stroke-width:1; stroke:black; " description="&lt;b&gt;PS417_RS14890&lt;/b&gt;&lt;br&gt;iron uptake system protein EfeO&lt;br&gt;Location: 2876001 - 2875183" locus_tag="PS417_RS14890" class="clusterblast-orf" id="dummy-4_h4_10_35"  />
</g>
<g id="a4_0036"  >
<polygon points="595,85 600,80 606,80 606,90 600,90 595,85 " style="fill:white; stroke-width:1; stroke:black; " description="&lt;b&gt;PS417_RS14895&lt;/b&gt;&lt;br&gt;CDP-diacylglycerol--serine O-phosphatidyltransferase&lt;br&gt;Location: 2875119 - 2873776" locus_tag="PS417_RS14895" class="clusterblast-orf" id="dummy-4_h4_10_36"  />
</g>
<g id="a4_0037"  >
<polygon points="607,90 611,85 607,80 607,90 " style="fill:white; stroke-width:1; stroke:black; " description="&lt;b&gt;PS417_RS14900&lt;/b&gt;&lt;br&gt;TetR/AcrR family transcriptional regulator&lt;br&gt;Location: 2873650 - 2873087" locus_tag="PS417_RS14900" class="clusterblast-orf" id="dummy-4_h4_10_37"  />
</g>
<g id="a4_0038"  >
<polygon points="612,90 615,85 612,80 612,90 " style="fill:white; stroke-width:1; stroke:black; " description="&lt;b&gt;PS417_RS14905&lt;/b&gt;&lt;br&gt;nuclear transport factor 2 family protein&lt;br&gt;Location: 2873033 - 2872554" locus_tag="PS417_RS14905" class="clusterblast-orf" id="dummy-4_h4_10_38"  />
</g>
<g id="a4_0039"  >
<polygon points="616,85 621,80 625,80 625,90 621,90 616,85 " style="fill:white; stroke-width:1; stroke:black; " description="&lt;b&gt;PS417_RS14910&lt;/b&gt;&lt;br&gt;PQQ-dependent sugar dehydrogenase&lt;br&gt;Location: 2872521 - 2871364" locus_tag="PS417_RS14910" class="clusterblast-orf" id="dummy-4_h4_10_39"  />
</g>
<g id="a4_0040"  >
<polygon points="625,85 627,80 627,90 625,85 " style="fill:white; stroke-width:1; stroke:black; " description="&lt;b&gt;PS417_RS14915&lt;/b&gt;&lt;br&gt;hypothetical protein&lt;br&gt;Location: 2871351 - 2871037" locus_tag="PS417_RS14915" class="clusterblast-orf" id="dummy-4_h4_10_40"  />
</g>
<g id="a4_0041"  >
<polygon points="629,90 630,90 635,85 630,80 629,80 629,90 " style="fill:white; stroke-width:1; stroke:black; " description="&lt;b&gt;PS417_RS14920&lt;/b&gt;&lt;br&gt;Ku protein&lt;br&gt;Location: 2870852 - 2870019" locus_tag="PS417_RS14920" class="clusterblast-orf" id="dummy-4_h4_10_41"  />
</g>
</svg>
