<svg xmlns="http://www.w3.org/2000/svg" xmlns:xlink="http://www.w3.org/1999/xlink" version="1.1" x="0" y="0" height="230" width="800" viewBox="0 0 800 230" preserveAspectRatio="none"  >
<g label="Query sequence" class="clusterblast-cluster"  >
<text x="5" y="20" class="clusterblast-acc"  >
Query sequence</text>
<line x1="10" y1="35" x2="778.0" y2="35" style="stroke-width:1; stroke:grey; "  />
<polygon points="184,35 189,30 219,30 219,40 189,40 184,35 " style="fill:#d81515; stroke-width:1; stroke:black; " description="&lt;b&gt;MCIC6FC_014517&lt;/b&gt;&lt;br&gt;hypothetical protein&lt;br&gt;Location: 5259 - 7449" locus_tag="MCIC6FC_014517" class="clusterblast-orf" id="dummy-1_q0_0_all"  />
<polygon points="237,40 246,40 251,35 246,30 237,30 237,40 " style="fill:#77d815; stroke-width:1; stroke:black; " description="&lt;b&gt;MCIC6FC_014518&lt;/b&gt;&lt;br&gt;hypothetical protein&lt;br&gt;Location: 8607 - 9502" locus_tag="MCIC6FC_014518" class="clusterblast-orf" id="dummy-1_q1_0_all"  />
<polygon points="252,40 522,40 527,35 522,30 252,30 252,40 " style="fill:#15d8d8; stroke-width:1; stroke:black; " description="&lt;b&gt;MCIC6FC_014519&lt;/b&gt;&lt;br&gt;hypothetical protein&lt;br&gt;Location: 9550 - 26794" locus_tag="MCIC6FC_014519" class="clusterblast-orf" id="dummy-1_q2_0_all"  />
<polygon points="528,40 536,40 541,35 536,30 528,30 528,40 " style="fill:white; stroke-width:1; stroke:black; " description="&lt;b&gt;MCIC6FC_014520&lt;/b&gt;&lt;br&gt;hypothetical protein&lt;br&gt;Location: 26814 - 27659" locus_tag="MCIC6FC_014520" class="clusterblast-orf" id="dummy-1_q3_0_all"  />
<polygon points="543,35 548,30 596,30 596,40 548,40 543,35 " style="fill:#7715d8; stroke-width:1; stroke:black; " description="&lt;b&gt;MCIC6FC_014521&lt;/b&gt;&lt;br&gt;hypothetical protein&lt;br&gt;Location: 27774 - 31064" locus_tag="MCIC6FC_014521" class="clusterblast-orf" id="dummy-1_q4_0_all"  />
</g>
<g label="NZ_WSSZ01000018" description="NZ_WSSZ01000018 (273356-322544): Pantoea agglomerans strain T6 plasmid LPP 4,... (15% of genes show similarity), NRPS,siderophore" class="clusterblast-cluster"  >
<text x="5" y="70" class="clusterblast-acc"  >
<a xlink:href="https://antismash-db.secondarymetabolites.org/area.html?record=NZ_WSSZ01000018&amp;start=273356&amp;end=322544" target="_blank">NZ_WSSZ01000018 (273356-322544)</a>: Pantoea agglomerans strain T6 plasmid LPP 4,... (15% of genes show similarity), NRPS,siderophore</text>
<line x1="10" y1="85" x2="778.0" y2="85" style="stroke-width:1; stroke:grey; "  />
</g>
<g id="a1_000"  >
<polygon points="0,90 1,90 6,85 1,80 0,80 0,90 " style="fill:white; stroke-width:1; stroke:black; " description="&lt;b&gt;GQQ23_RS20935&lt;/b&gt;&lt;br&gt;DUF1090 domain-containing protein&lt;br&gt;Location: 273658 - 274047" locus_tag="GQQ23_RS20935" class="clusterblast-orf" id="dummy-1_h1_1_0"  />
</g>
<g id="a1_001"  >
<polygon points="13,90 28,90 33,85 28,80 13,80 13,90 " style="fill:white; stroke-width:1; stroke:black; " description="&lt;b&gt;GQQ23_RS20940&lt;/b&gt;&lt;br&gt;Glu/Leu/Phe/Val dehydrogenase&lt;br&gt;Location: 274512 - 275786" locus_tag="GQQ23_RS20940" class="clusterblast-orf" id="dummy-1_h1_1_1"  />
</g>
<g id="a1_002"  >
<polygon points="34,85 39,80 53,80 53,90 39,90 34,85 " style="fill:white; stroke-width:1; stroke:black; " description="&lt;b&gt;GQQ23_RS20945&lt;/b&gt;&lt;br&gt;ROK family transcriptional regulator&lt;br&gt;Location: 275828 - 276997" locus_tag="GQQ23_RS20945" class="clusterblast-orf" id="dummy-1_h1_1_2"  />
</g>
<g id="a1_003"  >
<polygon points="58,90 72,90 77,85 72,80 58,80 58,90 " style="fill:white; stroke-width:1; stroke:black; " description="&lt;b&gt;GQQ23_RS20950&lt;/b&gt;&lt;br&gt;extracellular solute-binding protein&lt;br&gt;Location: 277295 - 278542" locus_tag="GQQ23_RS20950" class="clusterblast-orf" id="dummy-1_h1_1_3"  />
</g>
<g id="a1_004"  >
<polygon points="78,90 87,90 92,85 87,80 78,80 78,90 " style="fill:white; stroke-width:1; stroke:black; " description="&lt;b&gt;GQQ23_RS20955&lt;/b&gt;&lt;br&gt;sugar ABC transporter permease&lt;br&gt;Location: 278552 - 279460" locus_tag="GQQ23_RS20955" class="clusterblast-orf" id="dummy-1_h1_1_4"  />
</g>
<g id="a1_005"  >
<polygon points="92,90 100,90 105,85 100,80 92,80 92,90 " style="fill:white; stroke-width:1; stroke:black; " description="&lt;b&gt;GQQ23_RS20960&lt;/b&gt;&lt;br&gt;carbohydrate ABC transporter permease&lt;br&gt;Location: 279450 - 280289" locus_tag="GQQ23_RS20960" class="clusterblast-orf" id="dummy-1_h1_1_5"  />
</g>
<g id="a1_006"  >
<polygon points="105,90 115,90 120,85 115,80 105,80 105,90 " style="fill:white; stroke-width:1; stroke:black; " description="&lt;b&gt;GQQ23_RS20965&lt;/b&gt;&lt;br&gt;carbohydrate kinase family protein&lt;br&gt;Location: 280292 - 281239" locus_tag="GQQ23_RS20965" class="clusterblast-orf" id="dummy-1_h1_1_6"  />
</g>
<g id="a1_007"  >
<polygon points="121,90 133,90 138,85 133,80 121,80 121,90 " style="fill:white; stroke-width:1; stroke:black; " description="&lt;b&gt;GQQ23_RS20970&lt;/b&gt;&lt;br&gt;sn-glycerol-3-phosphate ABC transporter ATP-binding protein UgpC&lt;br&gt;Location: 281242 - 282324" locus_tag="GQQ23_RS20970" class="clusterblast-orf" id="dummy-1_h1_1_7"  />
</g>
<g id="a1_008"  >
<polygon points="140,85 145,80 171,80 171,90 145,90 140,85 " style="fill:white; stroke-width:1; stroke:black; " description="&lt;b&gt;GQQ23_RS20975&lt;/b&gt;&lt;br&gt;methyl-accepting chemotaxis protein&lt;br&gt;Location: 282487 - 284427" locus_tag="GQQ23_RS20975" class="clusterblast-orf" id="dummy-1_h1_1_8"  />
</g>
<g id="a1_009"  >
<polygon points="180,90 193,90 198,85 193,80 180,80 180,90 " style="fill:white; stroke-width:1; stroke:black; " description="&lt;b&gt;GQQ23_RS20980&lt;/b&gt;&lt;br&gt;Fic family protein&lt;br&gt;Location: 284950 - 286077" locus_tag="GQQ23_RS20980" class="clusterblast-orf" id="dummy-1_h1_1_9"  />
</g>
<g id="a1_0010"  >
<polygon points="199,85 204,80 221,80 221,90 204,90 199,85 " style="fill:white; stroke-width:1; stroke:black; " description="&lt;b&gt;GQQ23_RS20985&lt;/b&gt;&lt;br&gt;6-phospho-beta-glucosidase&lt;br&gt;Location: 286146 - 287540" locus_tag="GQQ23_RS20985" class="clusterblast-orf" id="dummy-1_h1_1_10"  />
</g>
<g id="a1_0011"  >
<polygon points="221,85 226,80 251,80 251,90 226,90 221,85 " style="fill:white; stroke-width:1; stroke:black; " description="&lt;b&gt;GQQ23_RS20990&lt;/b&gt;&lt;br&gt;PTS beta-glucoside transporter subunit IIABC&lt;br&gt;Location: 287553 - 289412" locus_tag="GQQ23_RS20990" class="clusterblast-orf" id="dummy-1_h1_1_11"  />
</g>
<g id="a1_0012"  >
<polygon points="253,85 258,80 266,80 266,90 258,90 253,85 " style="fill:white; stroke-width:1; stroke:black; " description="&lt;b&gt;GQQ23_RS20995&lt;/b&gt;&lt;br&gt;transcriptional antiterminator BglG&lt;br&gt;Location: 289549 - 290382" locus_tag="GQQ23_RS20995" class="clusterblast-orf" id="dummy-1_h1_1_12"  />
</g>
<g id="a1_0013"  >
<polygon points="276,85 281,80 282,80 282,90 281,90 276,85 " style="fill:white; stroke-width:1; stroke:black; " description="&lt;b&gt;GQQ23_RS21000&lt;/b&gt;&lt;br&gt;YebG family protein&lt;br&gt;Location: 290999 - 291340" locus_tag="GQQ23_RS21000" class="clusterblast-orf" id="dummy-1_h1_1_13"  />
</g>
<g id="a1_0014"  >
<polygon points="284,85 289,80 297,80 297,90 289,90 284,85 " style="fill:white; stroke-width:1; stroke:black; " description="&lt;b&gt;GQQ23_RS21005&lt;/b&gt;&lt;br&gt;hypothetical protein&lt;br&gt;Location: 291499 - 292293" locus_tag="GQQ23_RS21005" class="clusterblast-orf" id="dummy-1_h1_1_14"  />
</g>
<g id="a1_0015"  >
<polygon points="297,85 302,80 306,80 306,90 302,90 297,85 " style="fill:white; stroke-width:1; stroke:black; " description="&lt;b&gt;GQQ23_RS21010&lt;/b&gt;&lt;br&gt;hypothetical protein&lt;br&gt;Location: 292290 - 292850" locus_tag="GQQ23_RS21010" class="clusterblast-orf" id="dummy-1_h1_1_15"  />
</g>
<g id="a1_0016"  >
<polygon points="314,90 405,90 410,85 405,80 314,80 314,90 " style="fill:white; stroke-width:1; stroke:black; " description="&lt;b&gt;GQQ23_RS21015&lt;/b&gt;&lt;br&gt;amino acid adenylation domain-containing protein&lt;br&gt;Location: 293357 - 299395" locus_tag="GQQ23_RS21015" class="clusterblast-orf" id="dummy-1_h1_1_16"  />
</g>
<g id="a1_0017"  >
<polygon points="412,85 417,80 426,80 426,90 417,90 412,85 " style="fill:white; stroke-width:1; stroke:black; " description="&lt;b&gt;GQQ23_RS21020&lt;/b&gt;&lt;br&gt;ABC transporter substrate-binding protein&lt;br&gt;Location: 299483 - 300382" locus_tag="GQQ23_RS21020" class="clusterblast-orf" id="dummy-1_h1_1_17"  />
</g>
<g id="a1_0018"  >
<polygon points="426,85 431,80 439,80 439,90 431,90 426,85 " style="fill:white; stroke-width:1; stroke:black; " description="&lt;b&gt;GQQ23_RS21025&lt;/b&gt;&lt;br&gt;amino acid ABC transporter ATP-binding protein&lt;br&gt;Location: 300379 - 301173" locus_tag="GQQ23_RS21025" class="clusterblast-orf" id="dummy-1_h1_1_18"  />
</g>
<g id="a1_0019"  >
<polygon points="438,85 443,80 453,80 453,90 443,90 438,85 " style="fill:white; stroke-width:1; stroke:black; " description="&lt;b&gt;GQQ23_RS21030&lt;/b&gt;&lt;br&gt;amino acid ABC transporter permease&lt;br&gt;Location: 301157 - 302083" locus_tag="GQQ23_RS21030" class="clusterblast-orf" id="dummy-1_h1_1_19"  />
</g>
<g id="a1_0020"  >
<polygon points="453,85 458,80 462,80 462,90 458,90 453,85 " style="fill:white; stroke-width:1; stroke:black; " description="&lt;b&gt;GQQ23_RS21035&lt;/b&gt;&lt;br&gt;GNAT family N-acetyltransferase&lt;br&gt;Location: 302093 - 302611" locus_tag="GQQ23_RS21035" class="clusterblast-orf" id="dummy-1_h1_1_20"  />
</g>
<g id="a1_0021"  >
<polygon points="462,85 467,80 477,80 477,90 467,90 462,85 " style="fill:white; stroke-width:1; stroke:black; " description="&lt;b&gt;GQQ23_RS21040&lt;/b&gt;&lt;br&gt;ABC transporter substrate-binding protein&lt;br&gt;Location: 302622 - 303563" locus_tag="GQQ23_RS21040" class="clusterblast-orf" id="dummy-1_h1_1_21"  />
</g>
<g id="a1_0022"  >
<polygon points="477,85 482,80 498,80 498,90 482,90 477,85 " style="fill:white; stroke-width:1; stroke:black; " description="&lt;b&gt;GQQ23_RS21045&lt;/b&gt;&lt;br&gt;LLM class flavin-dependent oxidoreductase&lt;br&gt;Location: 303575 - 304888" locus_tag="GQQ23_RS21045" class="clusterblast-orf" id="dummy-1_h1_1_22"  />
</g>
<g id="a1_0023"  >
<polygon points="499,85 504,80 518,80 518,90 504,90 499,85 " style="fill:#d81515; stroke-width:1; stroke:black; " description="&lt;b&gt;GQQ23_RS21050&lt;/b&gt;&lt;br&gt;amidohydrolase&lt;br&gt;Location: 304969 - 306120&lt;br&gt;&lt;br&gt;&lt;b&gt;BlastP hit with MCIC6FC_014517&lt;/b&gt;&lt;br&gt;Percentage identity: 96&lt;br&gt;Percentage coverage: 56&lt;br&gt;BLAST bit score: 728&lt;br&gt;E-value: 8.2e-208" locus_tag="GQQ23_RS21050" class="clusterblast-orf" id="dummy-1_h1_1_23"  />
</g>
<g id="a1_0024"  >
<polygon points="518,85 523,80 534,80 534,90 523,90 518,85 " style="fill:#d81515; stroke-width:1; stroke:black; " description="&lt;b&gt;GQQ23_RS21055&lt;/b&gt;&lt;br&gt;MsnO8 family LLM class oxidoreductase&lt;br&gt;Location: 306144 - 307142&lt;br&gt;&lt;br&gt;&lt;b&gt;BlastP hit with MCIC6FC_014517&lt;/b&gt;&lt;br&gt;Percentage identity: 89&lt;br&gt;Percentage coverage: 46&lt;br&gt;BLAST bit score: 547&lt;br&gt;E-value: 2.6e-153" locus_tag="GQQ23_RS21055" class="clusterblast-orf" id="dummy-1_h1_1_24"  />
</g>
<g id="a1_0025"  >
<polygon points="543,85 548,80 554,80 554,90 548,90 543,85 " style="fill:white; stroke-width:1; stroke:black; " description="&lt;b&gt;GQQ23_RS21060&lt;/b&gt;&lt;br&gt;GntR family transcriptional regulator&lt;br&gt;Location: 307690 - 308424" locus_tag="GQQ23_RS21060" class="clusterblast-orf" id="dummy-1_h1_1_25"  />
</g>
<g id="a1_0026"  >
<polygon points="562,90 564,90 569,85 564,80 562,80 562,90 " style="fill:#77d815; stroke-width:1; stroke:black; " description="&lt;b&gt;GQQ23_RS21065&lt;/b&gt;&lt;br&gt;PTS sugar transporter subunit IIA&lt;br&gt;Location: 308871 - 309320&lt;br&gt;&lt;br&gt;&lt;b&gt;BlastP hit with MCIC6FC_014518&lt;/b&gt;&lt;br&gt;Percentage identity: 87&lt;br&gt;Percentage coverage: 74&lt;br&gt;BLAST bit score: 255&lt;br&gt;E-value: 4.4e-66" locus_tag="GQQ23_RS21065" class="clusterblast-orf" id="dummy-1_h1_1_26"  />
</g>
<g id="a1_0027"  >
<polygon points="569,90 569,90 574,85 569,80 569,80 569,90 " style="fill:white; stroke-width:1; stroke:black; " description="&lt;b&gt;GQQ23_RS21070&lt;/b&gt;&lt;br&gt;PTS sugar transporter subunit IIB&lt;br&gt;Location: 309369 - 309641" locus_tag="GQQ23_RS21070" class="clusterblast-orf" id="dummy-1_h1_1_27"  />
</g>
<g id="a1_0028"  >
<polygon points="574,90 591,90 596,85 591,80 574,80 574,90 " style="fill:white; stroke-width:1; stroke:black; " description="&lt;b&gt;GQQ23_RS21075&lt;/b&gt;&lt;br&gt;PTS ascorbate transporter subunit IIC&lt;br&gt;Location: 309681 - 311054" locus_tag="GQQ23_RS21075" class="clusterblast-orf" id="dummy-1_h1_1_28"  />
</g>
<g id="a1_0029"  >
<polygon points="598,85 603,80 605,80 605,90 603,90 598,85 " style="fill:#7715d8; stroke-width:1; stroke:black; " description="&lt;b&gt;GQQ23_RS21080&lt;/b&gt;&lt;br&gt;helix-turn-helix domain-containing protein&lt;br&gt;Location: 311170 - 311583&lt;br&gt;&lt;br&gt;&lt;b&gt;BlastP hit with MCIC6FC_014521&lt;/b&gt;&lt;br&gt;Percentage identity: 50&lt;br&gt;Percentage coverage: 13&lt;br&gt;BLAST bit score: 129&lt;br&gt;E-value: 1.8e-27" locus_tag="GQQ23_RS21080" class="clusterblast-orf" id="dummy-1_h1_1_29"  />
</g>
<g id="a1_0030"  >
<polygon points="605,85 610,80 610,80 610,90 610,90 605,85 " style="fill:#7715d8; stroke-width:1; stroke:black; " description="&lt;b&gt;GQQ23_RS21085&lt;/b&gt;&lt;br&gt;hypothetical protein&lt;br&gt;Location: 311580 - 311891&lt;br&gt;&lt;br&gt;&lt;b&gt;BlastP hit with MCIC6FC_014521&lt;/b&gt;&lt;br&gt;Percentage identity: 67&lt;br&gt;Percentage coverage: 11&lt;br&gt;BLAST bit score: 145&lt;br&gt;E-value: 2.4e-32" locus_tag="GQQ23_RS21085" class="clusterblast-orf" id="dummy-1_h1_1_30"  />
</g>
<g id="a1_0031"  >
<polygon points="617,90 637,90 642,85 637,80 617,80 617,90 " style="fill:white; stroke-width:1; stroke:black; " description="&lt;b&gt;GQQ23_RS21090&lt;/b&gt;&lt;br&gt;aspartate aminotransferase family protein&lt;br&gt;Location: 312332 - 313885" locus_tag="GQQ23_RS21090" class="clusterblast-orf" id="dummy-1_h1_1_31"  />
</g>
<g id="a1_0032"  >
<polygon points="642,90 657,90 662,85 657,80 642,80 642,90 " style="fill:white; stroke-width:1; stroke:black; " description="&lt;b&gt;GQQ23_RS21095&lt;/b&gt;&lt;br&gt;lysine N(6)-hydroxylase/L-ornithine N(5)-oxygenase family protein&lt;br&gt;Location: 313896 - 315188" locus_tag="GQQ23_RS21095" class="clusterblast-orf" id="dummy-1_h1_1_32"  />
</g>
<g id="a1_0033"  >
<polygon points="662,90 695,90 700,85 695,80 662,80 662,90 " style="fill:#15d8d8; stroke-width:1; stroke:black; " description="&lt;b&gt;GQQ23_RS21100&lt;/b&gt;&lt;br&gt;GNAT family N-acetyltransferase&lt;br&gt;Location: 315190 - 317544&lt;br&gt;&lt;br&gt;&lt;b&gt;BlastP hit with MCIC6FC_014519&lt;/b&gt;&lt;br&gt;Percentage identity: 93&lt;br&gt;Percentage coverage: 15&lt;br&gt;BLAST bit score: 1449&lt;br&gt;E-value: 0.0" locus_tag="GQQ23_RS21100" class="clusterblast-orf" id="dummy-1_h1_1_33"  />
</g>
<g id="a1_0034"  >
<polygon points="701,90 716,90 721,85 716,80 701,80 701,90 " style="fill:white; stroke-width:1; stroke:black; " description="&lt;b&gt;GQQ23_RS21105&lt;/b&gt;&lt;br&gt;MFS transporter&lt;br&gt;Location: 317622 - 318848" locus_tag="GQQ23_RS21105" class="clusterblast-orf" id="dummy-1_h1_1_34"  />
</g>
<g id="a1_0035"  >
<polygon points="726,90 728,90 733,85 728,80 726,80 726,90 " style="fill:white; stroke-width:1; stroke:black; " description="&lt;b&gt;GQQ23_RS21110&lt;/b&gt;&lt;br&gt;nucleoside triphosphatase NudI&lt;br&gt;Location: 319167 - 319592" locus_tag="GQQ23_RS21110" class="clusterblast-orf" id="dummy-1_h1_1_35"  />
</g>
<g id="a1_0036"  >
<polygon points="738,90 759,90 764,85 759,80 738,80 738,90 " style="fill:white; stroke-width:1; stroke:black; " description="&lt;b&gt;GQQ23_RS21115&lt;/b&gt;&lt;br&gt;TIGR04028 family ABC transporter substrate-binding protein&lt;br&gt;Location: 319940 - 321574" locus_tag="GQQ23_RS21115" class="clusterblast-orf" id="dummy-1_h1_1_36"  />
</g>
<g id="a1_0037"  >
<polygon points="764,90 775,90 780,85 775,80 764,80 764,90 " style="fill:white; stroke-width:1; stroke:black; " description="&lt;b&gt;GQQ23_RS21120&lt;/b&gt;&lt;br&gt;ABC transporter permease&lt;br&gt;Location: 321587 - 322528" locus_tag="GQQ23_RS21120" class="clusterblast-orf" id="dummy-1_h1_1_37"  />
</g>
</svg>
