<svg xmlns="http://www.w3.org/2000/svg" xmlns:xlink="http://www.w3.org/1999/xlink" version="1.1" x="0" y="0" height="230" width="800" viewBox="0 0 800 230" preserveAspectRatio="none"  >
<g label="Query sequence" class="clusterblast-cluster"  >
<text x="5" y="20" class="clusterblast-acc"  >
Query sequence</text>
<line x1="10" y1="35" x2="778.0" y2="35" style="stroke-width:1; stroke:grey; "  />
<polygon points="27,35 32,30 50,30 50,40 32,40 27,35 " style="fill:#d81515; stroke-width:1; stroke:black; " description="&lt;b&gt;MCIC6FC_002123&lt;/b&gt;&lt;br&gt;hypothetical protein&lt;br&gt;Location: 121 - 848" locus_tag="MCIC6FC_002123" class="clusterblast-orf" id="dummy-1_q0_0_all"  />
<polygon points="56,40 74,40 79,35 74,30 56,30 56,40 " style="fill:white; stroke-width:1; stroke:black; " description="&lt;b&gt;MCIC6FC_002124&lt;/b&gt;&lt;br&gt;hypothetical protein&lt;br&gt;Location: 1018 - 1774" locus_tag="MCIC6FC_002124" class="clusterblast-orf" id="dummy-1_q1_0_all"  />
<polygon points="88,35 93,30 140,30 140,40 93,40 88,35 " style="fill:white; stroke-width:1; stroke:black; " description="&lt;b&gt;MCIC6FC_002125&lt;/b&gt;&lt;br&gt;hypothetical protein&lt;br&gt;Location: 2041 - 3727" locus_tag="MCIC6FC_002125" class="clusterblast-orf" id="dummy-1_q2_0_all"  />
<polygon points="150,35 155,30 175,30 175,40 155,40 150,35 " style="fill:#77d815; stroke-width:1; stroke:black; " description="&lt;b&gt;MCIC6FC_002126&lt;/b&gt;&lt;br&gt;hypothetical protein&lt;br&gt;Location: 4035 - 4825" locus_tag="MCIC6FC_002126" class="clusterblast-orf" id="dummy-1_q3_0_all"  />
<polygon points="182,40 508,40 513,35 508,30 182,30 182,40 " style="fill:#15d8d8; stroke-width:1; stroke:black; " description="&lt;b&gt;MCIC6FC_002127&lt;/b&gt;&lt;br&gt;hypothetical protein&lt;br&gt;Location: 5057 - 15635" locus_tag="MCIC6FC_002127" class="clusterblast-orf" id="dummy-1_q4_0_all"  />
<polygon points="516,35 521,30 543,30 543,40 521,40 516,35 " style="fill:#7715d8; stroke-width:1; stroke:black; " description="&lt;b&gt;MCIC6FC_002128&lt;/b&gt;&lt;br&gt;hypothetical protein&lt;br&gt;Location: 15728 - 16598" locus_tag="MCIC6FC_002128" class="clusterblast-orf" id="dummy-1_q5_0_all"  />
<polygon points="546,40 584,40 589,35 584,30 546,30 546,40 " style="fill:#d8a715; stroke-width:1; stroke:black; " description="&lt;b&gt;MCIC6FC_002129&lt;/b&gt;&lt;br&gt;hypothetical protein&lt;br&gt;Location: 16700 - 18073" locus_tag="MCIC6FC_002129" class="clusterblast-orf" id="dummy-1_q6_0_all"  />
<polygon points="609,40 642,40 647,35 642,30 609,30 609,40 " style="fill:white; stroke-width:1; stroke:black; " description="&lt;b&gt;MCIC6FC_002130&lt;/b&gt;&lt;br&gt;hypothetical protein&lt;br&gt;Location: 18704 - 19908" locus_tag="MCIC6FC_002130" class="clusterblast-orf" id="dummy-1_q7_0_all"  />
<polygon points="649,35 654,30 696,30 696,40 654,40 649,35 " style="fill:#15d846; stroke-width:1; stroke:black; " description="&lt;b&gt;MCIC6FC_002131&lt;/b&gt;&lt;br&gt;hypothetical protein&lt;br&gt;Location: 19975 - 21492" locus_tag="MCIC6FC_002131" class="clusterblast-orf" id="dummy-1_q8_0_all"  />
<polygon points="700,40 736,40 741,35 736,30 700,30 700,40 " style="fill:#1546d8; stroke-width:1; stroke:black; " description="&lt;b&gt;MCIC6FC_002132&lt;/b&gt;&lt;br&gt;hypothetical protein&lt;br&gt;Location: 21620 - 22910" locus_tag="MCIC6FC_002132" class="clusterblast-orf" id="dummy-1_q9_0_all"  />
<polygon points="742,40 747,40 752,35 747,30 742,30 742,40 " style="fill:#d815a7; stroke-width:1; stroke:black; " description="&lt;b&gt;MCIC6FC_002133&lt;/b&gt;&lt;br&gt;hypothetical protein&lt;br&gt;Location: 22934 - 23272" locus_tag="MCIC6FC_002133" class="clusterblast-orf" id="dummy-1_q10_0_all"  />
</g>
<g label="NZ_SNVV01000010" description="NZ_SNVV01000010 (83696-110175): Azoarcus indigens strain DSM 12121 Ga0215687 ... (8% of genes show similarity), thiopeptide" class="clusterblast-cluster"  >
<text x="5" y="70" class="clusterblast-acc"  >
<a xlink:href="https://antismash-db.secondarymetabolites.org/area.html?record=NZ_SNVV01000010&amp;start=83696&amp;end=110175" target="_blank">NZ_SNVV01000010 (83696-110175)</a>: Azoarcus indigens strain DSM 12121 Ga0215687 ... (8% of genes show similarity), thiopeptide</text>
<line x1="10" y1="85" x2="778.0" y2="85" style="stroke-width:1; stroke:grey; "  />
</g>
<g id="a1_000"  >
<polygon points="0,85 5,80 22,80 22,90 5,90 0,85 " style="fill:white; stroke-width:1; stroke:black; " description="&lt;b&gt;C7389_RS12850&lt;/b&gt;&lt;br&gt;LrgB family protein&lt;br&gt;Location: 84602 - 85336" locus_tag="C7389_RS12850" class="clusterblast-orf" id="dummy-1_h1_7_0"  />
</g>
<g id="a1_001"  >
<polygon points="22,85 27,80 34,80 34,90 27,90 22,85 " style="fill:white; stroke-width:1; stroke:black; " description="&lt;b&gt;C7389_RS12855&lt;/b&gt;&lt;br&gt;CidA/LrgA family protein&lt;br&gt;Location: 85333 - 85704" locus_tag="C7389_RS12855" class="clusterblast-orf" id="dummy-1_h1_7_1"  />
</g>
<g id="a1_002"  >
<polygon points="40,85 45,80 69,80 69,90 45,90 40,85 " style="fill:white; stroke-width:1; stroke:black; " description="&lt;b&gt;C7389_RS12860&lt;/b&gt;&lt;br&gt;nucleoside recognition family protein&lt;br&gt;Location: 85900 - 86838" locus_tag="C7389_RS12860" class="clusterblast-orf" id="dummy-1_h1_7_2"  />
</g>
<g id="a1_003"  >
<polygon points="73,85 78,80 80,80 80,90 78,90 73,85 " style="fill:white; stroke-width:1; stroke:black; " description="&lt;b&gt;C7389_RS12865&lt;/b&gt;&lt;br&gt;hypothetical protein&lt;br&gt;Location: 86963 - 87163" locus_tag="C7389_RS12865" class="clusterblast-orf" id="dummy-1_h1_7_3"  />
</g>
<g id="a1_004"  >
<polygon points="94,90 137,90 142,85 137,80 94,80 94,90 " style="fill:white; stroke-width:1; stroke:black; " description="&lt;b&gt;C7389_RS12870&lt;/b&gt;&lt;br&gt;hypothetical protein&lt;br&gt;Location: 87609 - 89168" locus_tag="C7389_RS12870" class="clusterblast-orf" id="dummy-1_h1_7_4"  />
</g>
<g id="a1_005"  >
<polygon points="146,85 151,80 156,80 156,90 151,90 146,85 " style="fill:white; stroke-width:1; stroke:black; " description="&lt;b&gt;C7389_RS12875&lt;/b&gt;&lt;br&gt;hypothetical protein&lt;br&gt;Location: 89289 - 89609" locus_tag="C7389_RS12875" class="clusterblast-orf" id="dummy-1_h1_7_5"  />
</g>
<g id="a1_006"  >
<polygon points="166,85 171,80 216,80 216,90 171,90 166,85 " style="fill:white; stroke-width:1; stroke:black; " description="&lt;b&gt;C7389_RS12880&lt;/b&gt;&lt;br&gt;malate synthase A&lt;br&gt;Location: 89914 - 91518" locus_tag="C7389_RS12880" class="clusterblast-orf" id="dummy-1_h1_7_6"  />
</g>
<g id="a1_007"  >
<polygon points="219,85 224,80 241,80 241,90 224,90 219,85 " style="fill:white; stroke-width:1; stroke:black; " description="&lt;b&gt;C7389_RS12885&lt;/b&gt;&lt;br&gt;haloacid dehalogenase type II&lt;br&gt;Location: 91609 - 92304" locus_tag="C7389_RS12885" class="clusterblast-orf" id="dummy-1_h1_7_7"  />
</g>
<g id="a1_008"  >
<polygon points="247,90 270,90 275,85 270,80 247,80 247,90 " style="fill:#7715d8; stroke-width:1; stroke:black; " description="&lt;b&gt;C7389_RS12890&lt;/b&gt;&lt;br&gt;LysR family transcriptional regulator&lt;br&gt;Location: 92516 - 93418&lt;br&gt;&lt;br&gt;&lt;b&gt;BlastP hit with MCIC6FC_002128&lt;/b&gt;&lt;br&gt;Percentage identity: 32&lt;br&gt;Percentage coverage: 87&lt;br&gt;BLAST bit score: 124&lt;br&gt;E-value: 2.2e-26" locus_tag="C7389_RS12890" class="clusterblast-orf" id="dummy-1_h1_7_8"  />
</g>
<g id="a1_009"  >
<polygon points="284,85 289,80 353,80 353,90 289,90 284,85 " style="fill:white; stroke-width:1; stroke:black; " description="&lt;b&gt;C7389_RS12895&lt;/b&gt;&lt;br&gt;OsmC domain/YcaO domain-containing protein&lt;br&gt;Location: 93697 - 95901" locus_tag="C7389_RS12895" class="clusterblast-orf" id="dummy-1_h1_7_9"  />
</g>
<g id="a1_0010"  >
<polygon points="372,90 375,85 372,80 372,90 " style="fill:white; stroke-width:1; stroke:black; " description="&lt;b&gt;C7389_RS12900&lt;/b&gt;&lt;br&gt;pyrroloquinoline quinone precursor peptide PqqA&lt;br&gt;Location: 96512 - 96586" locus_tag="C7389_RS12900" class="clusterblast-orf" id="dummy-1_h1_7_10"  />
</g>
<g id="a1_0011"  >
<polygon points="376,90 400,90 405,85 400,80 376,80 376,90 " style="fill:white; stroke-width:1; stroke:black; " description="&lt;b&gt;C7389_RS12905&lt;/b&gt;&lt;br&gt;pyrroloquinoline quinone biosynthesis protein PqqB&lt;br&gt;Location: 96643 - 97554" locus_tag="C7389_RS12905" class="clusterblast-orf" id="dummy-1_h1_7_11"  />
</g>
<g id="a1_0012"  >
<polygon points="407,90 426,90 431,85 426,80 407,80 407,90 " style="fill:white; stroke-width:1; stroke:black; " description="&lt;b&gt;C7389_RS12910&lt;/b&gt;&lt;br&gt;pyrroloquinoline-quinone synthase PqqC&lt;br&gt;Location: 97610 - 98374" locus_tag="C7389_RS12910" class="clusterblast-orf" id="dummy-1_h1_7_12"  />
</g>
<g id="a1_0013"  >
<polygon points="435,90 440,90 445,85 440,80 435,80 435,90 " style="fill:white; stroke-width:1; stroke:black; " description="&lt;b&gt;C7389_RS12915&lt;/b&gt;&lt;br&gt;pyrroloquinoline quinone biosynthesis peptide chaperone PqqD&lt;br&gt;Location: 98509 - 98829" locus_tag="C7389_RS12915" class="clusterblast-orf" id="dummy-1_h1_7_13"  />
</g>
<g id="a1_0014"  >
<polygon points="450,90 482,90 487,85 482,80 450,80 450,90 " style="fill:#15d8d8; stroke-width:1; stroke:black; " description="&lt;b&gt;C7389_RS12920&lt;/b&gt;&lt;br&gt;pyrroloquinoline quinone biosynthesis protein PqqE&lt;br&gt;Location: 98988 - 100175&lt;br&gt;&lt;br&gt;&lt;b&gt;BlastP hit with MCIC6FC_002127&lt;/b&gt;&lt;br&gt;Percentage identity: 49&lt;br&gt;Percentage coverage: 12&lt;br&gt;BLAST bit score: 304&lt;br&gt;E-value: 9.2e-80" locus_tag="C7389_RS12920" class="clusterblast-orf" id="dummy-1_h1_7_14"  />
</g>
<g id="a1_0015"  >
<polygon points="497,85 502,80 502,80 502,90 502,90 497,85 " style="fill:white; stroke-width:1; stroke:black; " description="&lt;b&gt;C7389_RS24875&lt;/b&gt;&lt;br&gt;hypothetical protein&lt;br&gt;Location: 100480 - 100644" locus_tag="C7389_RS24875" class="clusterblast-orf" id="dummy-1_h1_7_15"  />
</g>
<g id="a1_0016"  >
<polygon points="505,85 510,80 536,80 536,90 510,90 505,85 " style="fill:white; stroke-width:1; stroke:black; " description="&lt;b&gt;C7389_RS12930&lt;/b&gt;&lt;br&gt;oxidoreductase&lt;br&gt;Location: 100766 - 101746" locus_tag="C7389_RS12930" class="clusterblast-orf" id="dummy-1_h1_7_16"  />
</g>
<g id="a1_0017"  >
<polygon points="539,85 544,80 571,80 571,90 544,90 539,85 " style="fill:white; stroke-width:1; stroke:black; " description="&lt;b&gt;C7389_RS12935&lt;/b&gt;&lt;br&gt;aromatic ring-hydroxylating dioxygenase subunit alpha&lt;br&gt;Location: 101832 - 102854" locus_tag="C7389_RS12935" class="clusterblast-orf" id="dummy-1_h1_7_17"  />
</g>
<g id="a1_0018"  >
<polygon points="576,85 581,80 613,80 613,90 581,90 576,85 " style="fill:white; stroke-width:1; stroke:black; " description="&lt;b&gt;C7389_RS12940&lt;/b&gt;&lt;br&gt;ABC transporter substrate-binding protein&lt;br&gt;Location: 103033 - 104187" locus_tag="C7389_RS12940" class="clusterblast-orf" id="dummy-1_h1_7_18"  />
</g>
<g id="a1_0019"  >
<polygon points="616,90 639,90 644,85 639,80 616,80 616,90 " style="fill:white; stroke-width:1; stroke:black; " description="&lt;b&gt;C7389_RS12945&lt;/b&gt;&lt;br&gt;LysR family transcriptional regulator&lt;br&gt;Location: 104289 - 105206" locus_tag="C7389_RS12945" class="clusterblast-orf" id="dummy-1_h1_7_19"  />
</g>
<g id="a1_0020"  >
<polygon points="646,85 651,80 689,80 689,90 651,90 646,85 " style="fill:white; stroke-width:1; stroke:black; " description="&lt;b&gt;C7389_RS12950&lt;/b&gt;&lt;br&gt;MFS transporter&lt;br&gt;Location: 105265 - 106635" locus_tag="C7389_RS12950" class="clusterblast-orf" id="dummy-1_h1_7_20"  />
</g>
<g id="a1_0021"  >
<polygon points="701,90 711,90 716,85 711,80 701,80 701,90 " style="fill:white; stroke-width:1; stroke:black; " description="&lt;b&gt;C7389_RS12955&lt;/b&gt;&lt;br&gt;hemerythrin domain-containing protein&lt;br&gt;Location: 107008 - 107475" locus_tag="C7389_RS12955" class="clusterblast-orf" id="dummy-1_h1_7_21"  />
</g>
<g id="a1_0022"  >
<polygon points="718,85 723,80 723,80 723,90 723,90 718,85 " style="fill:white; stroke-width:1; stroke:black; " description="&lt;b&gt;C7389_RS24880&lt;/b&gt;&lt;br&gt;hypothetical protein&lt;br&gt;Location: 107553 - 107723" locus_tag="C7389_RS24880" class="clusterblast-orf" id="dummy-1_h1_7_22"  />
</g>
<g id="a1_0023"  >
<polygon points="729,85 734,80 780,80 780,90 734,90 729,85 " style="fill:white; stroke-width:1; stroke:black; " description="&lt;b&gt;C7389_RS12960&lt;/b&gt;&lt;br&gt;HAMP domain-containing protein&lt;br&gt;Location: 107897 - 109519" locus_tag="C7389_RS12960" class="clusterblast-orf" id="dummy-1_h1_7_23"  />
</g>
</svg>
