<svg xmlns="http://www.w3.org/2000/svg" xmlns:xlink="http://www.w3.org/1999/xlink" version="1.1" x="0" y="0" height="230" width="800" viewBox="0 0 800 230" preserveAspectRatio="none"  >
<g label="Query sequence" class="clusterblast-cluster"  >
<text x="5" y="20" class="clusterblast-acc"  >
Query sequence</text>
<line x1="10" y1="35" x2="778.0" y2="35" style="stroke-width:1; stroke:grey; "  />
<polygon points="0,35 5,30 14,30 14,40 5,40 0,35 " style="fill:white; stroke-width:1; stroke:black; " description="&lt;b&gt;MCIC6FC_003068&lt;/b&gt;&lt;br&gt;hypothetical protein&lt;br&gt;Location: 97676 - 98603" locus_tag="MCIC6FC_003068" class="clusterblast-orf" id="dummy-1_q0_0_all"  />
<polygon points="17,40 94,40 99,35 94,30 17,30 17,40 " style="fill:#d81515; stroke-width:1; stroke:black; " description="&lt;b&gt;MCIC6FC_003069&lt;/b&gt;&lt;br&gt;hypothetical protein&lt;br&gt;Location: 98780 - 104141" locus_tag="MCIC6FC_003069" class="clusterblast-orf" id="dummy-1_q1_0_all"  />
<polygon points="100,40 146,40 151,35 146,30 100,30 100,40 " style="fill:#43d815; stroke-width:1; stroke:black; " description="&lt;b&gt;MCIC6FC_003070&lt;/b&gt;&lt;br&gt;hypothetical protein&lt;br&gt;Location: 104203 - 107557" locus_tag="MCIC6FC_003070" class="clusterblast-orf" id="dummy-1_q2_0_all"  />
<polygon points="151,40 169,40 174,35 169,30 151,30 151,40 " style="fill:#15b6d8; stroke-width:1; stroke:black; " description="&lt;b&gt;MCIC6FC_003071&lt;/b&gt;&lt;br&gt;hypothetical protein&lt;br&gt;Location: 107576 - 109070" locus_tag="MCIC6FC_003071" class="clusterblast-orf" id="dummy-1_q3_0_all"  />
<polygon points="178,40 179,40 184,35 179,30 178,30 178,40 " style="fill:#8815d8; stroke-width:1; stroke:black; " description="&lt;b&gt;MCIC6FC_003072&lt;/b&gt;&lt;br&gt;hypothetical protein&lt;br&gt;Location: 109299 - 109734" locus_tag="MCIC6FC_003072" class="clusterblast-orf" id="dummy-1_q4_0_all"  />
<polygon points="185,35 190,30 198,30 198,40 190,40 185,35 " style="fill:#d85a15; stroke-width:1; stroke:black; " description="&lt;b&gt;MCIC6FC_003073&lt;/b&gt;&lt;br&gt;hypothetical protein&lt;br&gt;Location: 109784 - 110609" locus_tag="MCIC6FC_003073" class="clusterblast-orf" id="dummy-1_q5_0_all"  />
<polygon points="201,40 220,40 225,35 220,30 201,30 201,40 " style="fill:#15d82c; stroke-width:1; stroke:black; " description="&lt;b&gt;MCIC6FC_003074&lt;/b&gt;&lt;br&gt;hypothetical protein&lt;br&gt;Location: 110844 - 112404" locus_tag="MCIC6FC_003074" class="clusterblast-orf" id="dummy-1_q6_0_all"  />
<polygon points="226,40 328,40 333,35 328,30 226,30 226,40 " style="fill:#1571d8; stroke-width:1; stroke:black; " description="&lt;b&gt;MCIC6FC_003075&lt;/b&gt;&lt;br&gt;hypothetical protein&lt;br&gt;Location: 112466 - 119468" locus_tag="MCIC6FC_003075" class="clusterblast-orf" id="dummy-1_q7_0_all"  />
<polygon points="335,40 475,40 480,35 475,30 335,30 335,40 " style="fill:#cd15d8; stroke-width:1; stroke:black; " description="&lt;b&gt;MCIC6FC_003076&lt;/b&gt;&lt;br&gt;hypothetical protein&lt;br&gt;Location: 119565 - 129066" locus_tag="MCIC6FC_003076" class="clusterblast-orf" id="dummy-1_q8_0_all"  />
<polygon points="480,40 482,40 487,35 482,30 480,30 480,40 " style="fill:#d89f15; stroke-width:1; stroke:black; " description="&lt;b&gt;MCIC6FC_003077&lt;/b&gt;&lt;br&gt;hypothetical protein&lt;br&gt;Location: 129091 - 129541" locus_tag="MCIC6FC_003077" class="clusterblast-orf" id="dummy-1_q9_0_all"  />
<polygon points="488,40 490,40 495,35 490,30 488,30 488,40 " style="fill:#d89f15; stroke-width:1; stroke:black; " description="&lt;b&gt;MCIC6FC_003078&lt;/b&gt;&lt;br&gt;hypothetical protein&lt;br&gt;Location: 129592 - 130051" locus_tag="MCIC6FC_003078" class="clusterblast-orf" id="dummy-1_q10_0_all"  />
<polygon points="500,40 503,35 500,30 500,40 " style="fill:#d89f15; stroke-width:1; stroke:black; " description="&lt;b&gt;MCIC6FC_003079&lt;/b&gt;&lt;br&gt;hypothetical protein&lt;br&gt;Location: 130373 - 130554" locus_tag="MCIC6FC_003079" class="clusterblast-orf" id="dummy-1_q11_0_all"  />
<polygon points="503,35 508,30 517,30 517,40 508,40 503,35 " style="fill:#15d871; stroke-width:1; stroke:black; " description="&lt;b&gt;MCIC6FC_003080&lt;/b&gt;&lt;br&gt;hypothetical protein&lt;br&gt;Location: 130586 - 131486" locus_tag="MCIC6FC_003080" class="clusterblast-orf" id="dummy-1_q12_0_all"  />
<polygon points="518,40 533,40 538,35 533,30 518,30 518,40 " style="fill:#152cd8; stroke-width:1; stroke:black; " description="&lt;b&gt;MCIC6FC_003081&lt;/b&gt;&lt;br&gt;hypothetical protein&lt;br&gt;Location: 131559 - 132880" locus_tag="MCIC6FC_003081" class="clusterblast-orf" id="dummy-1_q13_0_all"  />
<polygon points="543,35 548,30 559,30 559,40 548,40 543,35 " style="fill:#d8159f; stroke-width:1; stroke:black; " description="&lt;b&gt;MCIC6FC_003082&lt;/b&gt;&lt;br&gt;hypothetical protein&lt;br&gt;Location: 133154 - 134222" locus_tag="MCIC6FC_003082" class="clusterblast-orf" id="dummy-1_q14_0_all"  />
<polygon points="562,35 567,30 584,30 584,40 567,40 562,35 " style="fill:#cdd815; stroke-width:1; stroke:black; " description="&lt;b&gt;MCIC6FC_003083&lt;/b&gt;&lt;br&gt;hypothetical protein&lt;br&gt;Location: 134451 - 135870" locus_tag="MCIC6FC_003083" class="clusterblast-orf" id="dummy-1_q15_0_all"  />
<polygon points="586,35 591,30 684,30 684,40 591,40 586,35 " style="fill:#15d8b6; stroke-width:1; stroke:black; " description="&lt;b&gt;MCIC6FC_003084&lt;/b&gt;&lt;br&gt;hypothetical protein&lt;br&gt;Location: 135991 - 142369" locus_tag="MCIC6FC_003084" class="clusterblast-orf" id="dummy-1_q16_0_all"  />
<polygon points="684,35 689,30 703,30 703,40 689,40 684,35 " style="fill:#4315d8; stroke-width:1; stroke:black; " description="&lt;b&gt;MCIC6FC_003085&lt;/b&gt;&lt;br&gt;hypothetical protein&lt;br&gt;Location: 142379 - 143611" locus_tag="MCIC6FC_003085" class="clusterblast-orf" id="dummy-1_q17_0_all"  />
<polygon points="703,35 708,30 737,30 737,40 708,40 703,35 " style="fill:#d8155a; stroke-width:1; stroke:black; " description="&lt;b&gt;MCIC6FC_003086&lt;/b&gt;&lt;br&gt;hypothetical protein&lt;br&gt;Location: 143624 - 145863" locus_tag="MCIC6FC_003086" class="clusterblast-orf" id="dummy-1_q18_0_all"  />
<polygon points="738,35 743,30 780,30 780,40 743,40 738,35 " style="fill:#88d815; stroke-width:1; stroke:black; " description="&lt;b&gt;MCIC6FC_003087&lt;/b&gt;&lt;br&gt;hypothetical protein&lt;br&gt;Location: 145916 - 148652" locus_tag="MCIC6FC_003087" class="clusterblast-orf" id="dummy-1_q19_0_all"  />
</g>
<g label="NZ_MOBX01000005" description="NZ_MOBX01000005 (3388-46993): Pseudomonas fluorescens strain 28B5 28B5 contig... (75% of genes show similarity), arylpolyene" class="clusterblast-cluster"  >
<text x="5" y="70" class="clusterblast-acc"  >
<a xlink:href="https://antismash-db.secondarymetabolites.org/area.html?record=NZ_MOBX01000005&amp;start=3388&amp;end=46993" target="_blank">NZ_MOBX01000005 (3388-46993)</a>: Pseudomonas fluorescens strain 28B5 28B5 contig... (75% of genes show similarity), arylpolyene</text>
<line x1="10" y1="85" x2="778.0" y2="85" style="stroke-width:1; stroke:grey; "  />
</g>
<g id="a1_000"  >
<polygon points="80,90 97,90 102,85 97,80 80,80 80,90 " style="fill:#15b6d8; stroke-width:1; stroke:black; " description="&lt;b&gt;BK670_RS07870&lt;/b&gt;&lt;br&gt;YdiU family protein&lt;br&gt;Location: 5524 - 6987&lt;br&gt;&lt;br&gt;&lt;b&gt;BlastP hit with MCIC6FC_003071&lt;/b&gt;&lt;br&gt;Percentage identity: 87&lt;br&gt;Percentage coverage: 98&lt;br&gt;BLAST bit score: 881&lt;br&gt;E-value: 3.2e-254" locus_tag="BK670_RS07870" class="clusterblast-orf" id="dummy-1_h1_2_0"  />
</g>
<g id="a1_001"  >
<polygon points="104,90 105,90 110,85 105,80 104,80 104,90 " style="fill:#8815d8; stroke-width:1; stroke:black; " description="&lt;b&gt;BK670_RS07875&lt;/b&gt;&lt;br&gt;thioredoxin TrxC&lt;br&gt;Location: 7067 - 7501&lt;br&gt;&lt;br&gt;&lt;b&gt;BlastP hit with MCIC6FC_003072&lt;/b&gt;&lt;br&gt;Percentage identity: 88&lt;br&gt;Percentage coverage: 100&lt;br&gt;BLAST bit score: 275&lt;br&gt;E-value: 2.3e-72" locus_tag="BK670_RS07875" class="clusterblast-orf" id="dummy-1_h1_2_1"  />
</g>
<g id="a1_002"  >
<polygon points="112,85 117,80 124,80 124,90 117,90 112,85 " style="fill:#d85a15; stroke-width:1; stroke:black; " description="&lt;b&gt;BK670_RS07885&lt;/b&gt;&lt;br&gt;ParA family protein&lt;br&gt;Location: 7632 - 8402&lt;br&gt;&lt;br&gt;&lt;b&gt;BlastP hit with MCIC6FC_003073&lt;/b&gt;&lt;br&gt;Percentage identity: 95&lt;br&gt;Percentage coverage: 97&lt;br&gt;BLAST bit score: 486&lt;br&gt;E-value: 1.6e-135" locus_tag="BK670_RS07885" class="clusterblast-orf" id="dummy-1_h1_2_2"  />
</g>
<g id="a1_003"  >
<polygon points="130,90 136,90 141,85 136,80 130,80 130,90 " style="fill:#15d82c; stroke-width:1; stroke:black; " description="&lt;b&gt;BK670_RS07890&lt;/b&gt;&lt;br&gt;beta-ketoacyl synthase chain length factor&lt;br&gt;Location: 8760 - 9485&lt;br&gt;&lt;br&gt;&lt;b&gt;BlastP hit with MCIC6FC_003074&lt;/b&gt;&lt;br&gt;Percentage identity: 83&lt;br&gt;Percentage coverage: 37&lt;br&gt;BLAST bit score: 308&lt;br&gt;E-value: 1.5e-81" locus_tag="BK670_RS07890" class="clusterblast-orf" id="dummy-1_h1_2_3"  />
</g>
<g id="a1_004"  >
<polygon points="140,90 148,90 153,85 148,80 140,80 140,90 " style="fill:#15d82c; stroke-width:1; stroke:black; " description="&lt;b&gt;BK670_RS07895&lt;/b&gt;&lt;br&gt;1-acyl-sn-glycerol-3-phosphate acyltransferase&lt;br&gt;Location: 9461 - 10273&lt;br&gt;&lt;br&gt;&lt;b&gt;BlastP hit with MCIC6FC_003074&lt;/b&gt;&lt;br&gt;Percentage identity: 81&lt;br&gt;Percentage coverage: 54&lt;br&gt;BLAST bit score: 462&lt;br&gt;E-value: 4.6e-128" locus_tag="BK670_RS07895" class="clusterblast-orf" id="dummy-1_h1_2_4"  />
</g>
<g id="a1_005"  >
<polygon points="152,90 152,90 157,85 152,80 152,80 152,90 " style="fill:white; stroke-width:1; stroke:black; " description="&lt;b&gt;BK670_RS07900&lt;/b&gt;&lt;br&gt;acyl carrier protein&lt;br&gt;Location: 10251 - 10526" locus_tag="BK670_RS07900" class="clusterblast-orf" id="dummy-1_h1_2_5"  />
</g>
<g id="a1_006"  >
<polygon points="157,90 161,85 157,80 157,90 " style="fill:white; stroke-width:1; stroke:black; " description="&lt;b&gt;BK670_RS07905&lt;/b&gt;&lt;br&gt;acyl carrier protein&lt;br&gt;Location: 10536 - 10790" locus_tag="BK670_RS07905" class="clusterblast-orf" id="dummy-1_h1_2_6"  />
</g>
<g id="a1_007"  >
<polygon points="161,90 164,90 169,85 164,80 161,80 161,90 " style="fill:white; stroke-width:1; stroke:black; " description="&lt;b&gt;BK670_RS07910&lt;/b&gt;&lt;br&gt;hypothetical protein&lt;br&gt;Location: 10787 - 11332" locus_tag="BK670_RS07910" class="clusterblast-orf" id="dummy-1_h1_2_7"  />
</g>
<g id="a1_008"  >
<polygon points="169,90 190,90 195,85 190,80 169,80 169,90 " style="fill:#1571d8; stroke-width:1; stroke:black; " description="&lt;b&gt;BK670_RS07915&lt;/b&gt;&lt;br&gt;AMP-binding protein&lt;br&gt;Location: 11329 - 13008&lt;br&gt;&lt;br&gt;&lt;b&gt;BlastP hit with MCIC6FC_003075&lt;/b&gt;&lt;br&gt;Percentage identity: 81&lt;br&gt;Percentage coverage: 25&lt;br&gt;BLAST bit score: 877&lt;br&gt;E-value: 3.5e-252" locus_tag="BK670_RS07915" class="clusterblast-orf" id="dummy-1_h1_2_8"  />
</g>
<g id="a1_009"  >
<polygon points="197,90 203,90 208,85 203,80 197,80 197,90 " style="fill:#1571d8; stroke-width:1; stroke:black; " description="&lt;b&gt;BK670_RS07920&lt;/b&gt;&lt;br&gt;glycosyltransferase family 2 protein&lt;br&gt;Location: 13137 - 13871&lt;br&gt;&lt;br&gt;&lt;b&gt;BlastP hit with MCIC6FC_003075&lt;/b&gt;&lt;br&gt;Percentage identity: 76&lt;br&gt;Percentage coverage: 10&lt;br&gt;BLAST bit score: 373&lt;br&gt;E-value: 2.1e-100" locus_tag="BK670_RS07920" class="clusterblast-orf" id="dummy-1_h1_2_9"  />
</g>
<g id="a1_0010"  >
<polygon points="208,90 217,90 222,85 217,80 208,80 208,90 " style="fill:#1571d8; stroke-width:1; stroke:black; " description="&lt;b&gt;BK670_RS07925&lt;/b&gt;&lt;br&gt;glycosyl transferase&lt;br&gt;Location: 13868 - 14815&lt;br&gt;&lt;br&gt;&lt;b&gt;BlastP hit with MCIC6FC_003075&lt;/b&gt;&lt;br&gt;Percentage identity: 79&lt;br&gt;Percentage coverage: 13&lt;br&gt;BLAST bit score: 476&lt;br&gt;E-value: 1.8e-131" locus_tag="BK670_RS07925" class="clusterblast-orf" id="dummy-1_h1_2_10"  />
</g>
<g id="a1_0011"  >
<polygon points="222,90 241,90 246,85 241,80 222,80 222,90 " style="fill:#1571d8; stroke-width:1; stroke:black; " description="&lt;b&gt;BK670_RS07930&lt;/b&gt;&lt;br&gt;aromatic amino acid lyase&lt;br&gt;Location: 14796 - 16340&lt;br&gt;&lt;br&gt;&lt;b&gt;BlastP hit with MCIC6FC_003075&lt;/b&gt;&lt;br&gt;Percentage identity: 90&lt;br&gt;Percentage coverage: 22&lt;br&gt;BLAST bit score: 861&lt;br&gt;E-value: 2.6e-247" locus_tag="BK670_RS07930" class="clusterblast-orf" id="dummy-1_h1_2_11"  />
</g>
<g id="a1_0012"  >
<polygon points="245,90 247,90 252,85 247,80 245,80 245,90 " style="fill:white; stroke-width:1; stroke:black; " description="&lt;b&gt;BK670_RS07935&lt;/b&gt;&lt;br&gt;acyl-CoA thioesterase&lt;br&gt;Location: 16333 - 16758" locus_tag="BK670_RS07935" class="clusterblast-orf" id="dummy-1_h1_2_12"  />
</g>
<g id="a1_0013"  >
<polygon points="252,90 256,90 261,85 256,80 252,80 252,90 " style="fill:white; stroke-width:1; stroke:black; " description="&lt;b&gt;BK670_RS07940&lt;/b&gt;&lt;br&gt;outer membrane lipoprotein carrier protein LolA&lt;br&gt;Location: 16755 - 17357" locus_tag="BK670_RS07940" class="clusterblast-orf" id="dummy-1_h1_2_13"  />
</g>
<g id="a1_0014"  >
<polygon points="261,90 292,90 297,85 292,80 261,80 261,90 " style="fill:#cd15d8; stroke-width:1; stroke:black; " description="&lt;b&gt;BK670_RS07945&lt;/b&gt;&lt;br&gt;MMPL family transporter&lt;br&gt;Location: 17341 - 19680&lt;br&gt;&lt;br&gt;&lt;b&gt;BlastP hit with MCIC6FC_003076&lt;/b&gt;&lt;br&gt;Percentage identity: 81&lt;br&gt;Percentage coverage: 23&lt;br&gt;BLAST bit score: 1091&lt;br&gt;E-value: 0.0" locus_tag="BK670_RS07945" class="clusterblast-orf" id="dummy-1_h1_2_14"  />
</g>
<g id="a1_0015"  >
<polygon points="297,90 309,90 314,85 309,80 297,80 297,90 " style="fill:#cd15d8; stroke-width:1; stroke:black; " description="&lt;b&gt;BK670_RS07950&lt;/b&gt;&lt;br&gt;sodium:proton antiporter&lt;br&gt;Location: 19677 - 20840&lt;br&gt;&lt;br&gt;&lt;b&gt;BlastP hit with MCIC6FC_003076&lt;/b&gt;&lt;br&gt;Percentage identity: 82&lt;br&gt;Percentage coverage: 12&lt;br&gt;BLAST bit score: 587&lt;br&gt;E-value: 5.9e-165" locus_tag="BK670_RS07950" class="clusterblast-orf" id="dummy-1_h1_2_15"  />
</g>
<g id="a1_0016"  >
<polygon points="314,90 328,90 333,85 328,80 314,80 314,90 " style="fill:#cd15d8; stroke-width:1; stroke:black; " description="&lt;b&gt;BK670_RS07955&lt;/b&gt;&lt;br&gt;tryptophan 7-halogenase&lt;br&gt;Location: 20827 - 22074&lt;br&gt;&lt;br&gt;&lt;b&gt;BlastP hit with MCIC6FC_003076&lt;/b&gt;&lt;br&gt;Percentage identity: 83&lt;br&gt;Percentage coverage: 13&lt;br&gt;BLAST bit score: 695&lt;br&gt;E-value: 2e-197" locus_tag="BK670_RS07955" class="clusterblast-orf" id="dummy-1_h1_2_16"  />
</g>
<g id="a1_0017"  >
<polygon points="333,90 339,90 344,85 339,80 333,80 333,90 " style="fill:white; stroke-width:1; stroke:black; " description="&lt;b&gt;BK670_RS07960&lt;/b&gt;&lt;br&gt;class I SAM-dependent methyltransferase&lt;br&gt;Location: 22071 - 22796" locus_tag="BK670_RS07960" class="clusterblast-orf" id="dummy-1_h1_2_17"  />
</g>
<g id="a1_0018"  >
<polygon points="346,90 349,90 354,85 349,80 346,80 346,90 " style="fill:white; stroke-width:1; stroke:black; " description="&lt;b&gt;BK670_RS07965&lt;/b&gt;&lt;br&gt;hypothetical protein&lt;br&gt;Location: 22910 - 23392" locus_tag="BK670_RS07965" class="clusterblast-orf" id="dummy-1_h1_2_18"  />
</g>
<g id="a1_0019"  >
<polygon points="353,90 367,90 372,85 367,80 353,80 353,90 " style="fill:#cd15d8; stroke-width:1; stroke:black; " description="&lt;b&gt;BK670_RS07970&lt;/b&gt;&lt;br&gt;beta-ketoacyl-[acyl-carrier-protein] synthase family protein&lt;br&gt;Location: 23389 - 24585&lt;br&gt;&lt;br&gt;&lt;b&gt;BlastP hit with MCIC6FC_003076&lt;/b&gt;&lt;br&gt;Percentage identity: 77&lt;br&gt;Percentage coverage: 13&lt;br&gt;BLAST bit score: 606&lt;br&gt;E-value: 1.6e-170" locus_tag="BK670_RS07970" class="clusterblast-orf" id="dummy-1_h1_2_19"  />
</g>
<g id="a1_0020"  >
<polygon points="372,90 374,90 379,85 374,80 372,80 372,90 " style="fill:white; stroke-width:1; stroke:black; " description="&lt;b&gt;BK670_RS07975&lt;/b&gt;&lt;br&gt;hotdog family protein&lt;br&gt;Location: 24582 - 25046" locus_tag="BK670_RS07975" class="clusterblast-orf" id="dummy-1_h1_2_20"  />
</g>
<g id="a1_0021"  >
<polygon points="379,90 385,90 390,85 385,80 379,80 379,90 " style="fill:white; stroke-width:1; stroke:black; " description="&lt;b&gt;BK670_RS07980&lt;/b&gt;&lt;br&gt;3-oxoacyl-ACP reductase FabG&lt;br&gt;Location: 25039 - 25767" locus_tag="BK670_RS07980" class="clusterblast-orf" id="dummy-1_h1_2_21"  />
</g>
<g id="a1_0022"  >
<polygon points="390,90 404,90 409,85 404,80 390,80 390,90 " style="fill:#cd15d8; stroke-width:1; stroke:black; " description="&lt;b&gt;BK670_RS07985&lt;/b&gt;&lt;br&gt;beta-ketoacyl-ACP synthase&lt;br&gt;Location: 25767 - 26993&lt;br&gt;&lt;br&gt;&lt;b&gt;BlastP hit with MCIC6FC_003076&lt;/b&gt;&lt;br&gt;Percentage identity: 92&lt;br&gt;Percentage coverage: 13&lt;br&gt;BLAST bit score: 755&lt;br&gt;E-value: 2.1e-215" locus_tag="BK670_RS07985" class="clusterblast-orf" id="dummy-1_h1_2_22"  />
</g>
<g id="a1_0023"  >
<polygon points="409,90 416,90 421,85 416,80 409,80 409,90 " style="fill:#d89f15; stroke-width:1; stroke:black; " description="&lt;b&gt;BK670_RS07990&lt;/b&gt;&lt;br&gt;hypothetical protein&lt;br&gt;Location: 27019 - 27822&lt;br&gt;&lt;br&gt;&lt;b&gt;BlastP hit with MCIC6FC_003077&lt;/b&gt;&lt;br&gt;Percentage identity: 42&lt;br&gt;Percentage coverage: 82&lt;br&gt;BLAST bit score: 92&lt;br&gt;E-value: 5e-17&lt;br&gt;&lt;br&gt;&lt;b&gt;BlastP hit with MCIC6FC_003078&lt;/b&gt;&lt;br&gt;Percentage identity: 48&lt;br&gt;Percentage coverage: 84&lt;br&gt;BLAST bit score: 106&lt;br&gt;E-value: 3.4e-21" locus_tag="BK670_RS07990" class="clusterblast-orf" id="dummy-1_h1_2_23"  />
</g>
<g id="a1_0024"  >
<polygon points="424,90 425,90 430,85 425,80 424,80 424,90 " style="fill:#d89f15; stroke-width:1; stroke:black; " description="&lt;b&gt;BK670_RS07995&lt;/b&gt;&lt;br&gt;excinuclease&lt;br&gt;Location: 27974 - 28411&lt;br&gt;&lt;br&gt;&lt;b&gt;BlastP hit with MCIC6FC_003078&lt;/b&gt;&lt;br&gt;Percentage identity: 49&lt;br&gt;Percentage coverage: 95&lt;br&gt;BLAST bit score: 138&lt;br&gt;E-value: 8e-31&lt;br&gt;&lt;br&gt;&lt;b&gt;BlastP hit with MCIC6FC_003079&lt;/b&gt;&lt;br&gt;Percentage identity: 67&lt;br&gt;Percentage coverage: 87&lt;br&gt;BLAST bit score: 57&lt;br&gt;E-value: 6.2e-07" locus_tag="BK670_RS07995" class="clusterblast-orf" id="dummy-1_h1_2_24"  />
</g>
<g id="a1_0025"  >
<polygon points="432,85 437,80 446,80 446,90 437,90 432,85 " style="fill:#15d871; stroke-width:1; stroke:black; " description="&lt;b&gt;BK670_RS08000&lt;/b&gt;&lt;br&gt;LysR family transcriptional regulator&lt;br&gt;Location: 28516 - 29418&lt;br&gt;&lt;br&gt;&lt;b&gt;BlastP hit with MCIC6FC_003080&lt;/b&gt;&lt;br&gt;Percentage identity: 93&lt;br&gt;Percentage coverage: 98&lt;br&gt;BLAST bit score: 518&lt;br&gt;E-value: 4.3e-145" locus_tag="BK670_RS08000" class="clusterblast-orf" id="dummy-1_h1_2_25"  />
</g>
<g id="a1_0026"  >
<polygon points="448,90 462,90 467,85 462,80 448,80 448,90 " style="fill:#152cd8; stroke-width:1; stroke:black; " description="&lt;b&gt;BK670_RS08005&lt;/b&gt;&lt;br&gt;MFS transporter&lt;br&gt;Location: 29537 - 30811&lt;br&gt;&lt;br&gt;&lt;b&gt;BlastP hit with MCIC6FC_003081&lt;/b&gt;&lt;br&gt;Percentage identity: 77&lt;br&gt;Percentage coverage: 99&lt;br&gt;BLAST bit score: 600&lt;br&gt;E-value: 1.2e-169" locus_tag="BK670_RS08005" class="clusterblast-orf" id="dummy-1_h1_2_26"  />
</g>
<g id="a1_0027"  >
<polygon points="469,85 474,80 485,80 485,90 474,90 469,85 " style="fill:#d8159f; stroke-width:1; stroke:black; " description="&lt;b&gt;BK670_RS08010&lt;/b&gt;&lt;br&gt;uroporphyrinogen decarboxylase&lt;br&gt;Location: 30946 - 32013&lt;br&gt;&lt;br&gt;&lt;b&gt;BlastP hit with MCIC6FC_003082&lt;/b&gt;&lt;br&gt;Percentage identity: 94&lt;br&gt;Percentage coverage: 100&lt;br&gt;BLAST bit score: 685&lt;br&gt;E-value: 3.2e-195" locus_tag="BK670_RS08010" class="clusterblast-orf" id="dummy-1_h1_2_27"  />
</g>
<g id="a1_0028"  >
<polygon points="489,85 494,80 511,80 511,90 494,90 489,85 " style="fill:#cdd815; stroke-width:1; stroke:black; " description="&lt;b&gt;BK670_RS08020&lt;/b&gt;&lt;br&gt;FAD-dependent oxidoreductase&lt;br&gt;Location: 32267 - 33685&lt;br&gt;&lt;br&gt;&lt;b&gt;BlastP hit with MCIC6FC_003083&lt;/b&gt;&lt;br&gt;Percentage identity: 99&lt;br&gt;Percentage coverage: 100&lt;br&gt;BLAST bit score: 961&lt;br&gt;E-value: 2.3e-278" locus_tag="BK670_RS08020" class="clusterblast-orf" id="dummy-1_h1_2_28"  />
</g>
<g id="a1_0029"  >
<polygon points="512,85 517,80 580,80 580,90 517,90 512,85 " style="fill:#15d8b6; stroke-width:1; stroke:black; " description="&lt;b&gt;BK670_RS08025&lt;/b&gt;&lt;br&gt;glutamate synthase large subunit&lt;br&gt;Location: 33719 - 38164&lt;br&gt;&lt;br&gt;&lt;b&gt;BlastP hit with MCIC6FC_003084&lt;/b&gt;&lt;br&gt;Percentage identity: 96&lt;br&gt;Percentage coverage: 75&lt;br&gt;BLAST bit score: 2745&lt;br&gt;E-value: 0.0" locus_tag="BK670_RS08025" class="clusterblast-orf" id="dummy-1_h1_2_29"  />
</g>
<g id="a1_0030"  >
<polygon points="589,85 594,80 613,80 613,90 594,90 589,85 " style="fill:#15d8b6; stroke-width:1; stroke:black; " description="&lt;b&gt;BK670_RS08035&lt;/b&gt;&lt;br&gt;ExeA family protein&lt;br&gt;Location: 38779 - 40371&lt;br&gt;&lt;br&gt;&lt;b&gt;BlastP hit with MCIC6FC_003084&lt;/b&gt;&lt;br&gt;Percentage identity: 81&lt;br&gt;Percentage coverage: 26&lt;br&gt;BLAST bit score: 646&lt;br&gt;E-value: 6.9e-183" locus_tag="BK670_RS08035" class="clusterblast-orf" id="dummy-1_h1_2_30"  />
</g>
<g id="a1_0031"  >
<polygon points="613,85 618,80 630,80 630,90 618,90 613,85 " style="fill:#4315d8; stroke-width:1; stroke:black; " description="&lt;b&gt;BK670_RS08040&lt;/b&gt;&lt;br&gt;3-dehydroquinate synthase&lt;br&gt;Location: 40382 - 41482&lt;br&gt;&lt;br&gt;&lt;b&gt;BlastP hit with MCIC6FC_003085&lt;/b&gt;&lt;br&gt;Percentage identity: 93&lt;br&gt;Percentage coverage: 93&lt;br&gt;BLAST bit score: 688&lt;br&gt;E-value: 4.1e-196" locus_tag="BK670_RS08040" class="clusterblast-orf" id="dummy-1_h1_2_31"  />
</g>
<g id="a1_0032"  >
<polygon points="633,85 638,80 641,80 641,90 638,90 633,85 " style="fill:#d8155a; stroke-width:1; stroke:black; " description="&lt;b&gt;BK670_RS08045&lt;/b&gt;&lt;br&gt;shikimate kinase AroK&lt;br&gt;Location: 41635 - 42153&lt;br&gt;&lt;br&gt;&lt;b&gt;BlastP hit with MCIC6FC_003086&lt;/b&gt;&lt;br&gt;Percentage identity: 89&lt;br&gt;Percentage coverage: 21&lt;br&gt;BLAST bit score: 273&lt;br&gt;E-value: 7.6e-71" locus_tag="BK670_RS08045" class="clusterblast-orf" id="dummy-1_h1_2_32"  />
</g>
<g id="a1_0033"  >
<polygon points="641,85 646,80 672,80 672,90 646,90 641,85 " style="fill:#d8155a; stroke-width:1; stroke:black; " description="&lt;b&gt;BK670_RS08050&lt;/b&gt;&lt;br&gt;type IV pilus secretin PilQ family protein&lt;br&gt;Location: 42158 - 44239&lt;br&gt;&lt;br&gt;&lt;b&gt;BlastP hit with MCIC6FC_003086&lt;/b&gt;&lt;br&gt;Percentage identity: 84&lt;br&gt;Percentage coverage: 75&lt;br&gt;BLAST bit score: 856&lt;br&gt;E-value: 2.1e-246" locus_tag="BK670_RS08050" class="clusterblast-orf" id="dummy-1_h1_2_33"  />
</g>
<g id="a1_0034"  >
<polygon points="673,85 678,80 681,80 681,90 678,90 673,85 " style="fill:#88d815; stroke-width:1; stroke:black; " description="&lt;b&gt;BK670_RS08055&lt;/b&gt;&lt;br&gt;pilus assembly protein PilP&lt;br&gt;Location: 44253 - 44780&lt;br&gt;&lt;br&gt;&lt;b&gt;BlastP hit with MCIC6FC_003087&lt;/b&gt;&lt;br&gt;Percentage identity: 68&lt;br&gt;Percentage coverage: 18&lt;br&gt;BLAST bit score: 230&lt;br&gt;E-value: 8.8e-58" locus_tag="BK670_RS08055" class="clusterblast-orf" id="dummy-1_h1_2_34"  />
</g>
<g id="a1_0035"  >
<polygon points="681,85 686,80 690,80 690,90 686,90 681,85 " style="fill:#88d815; stroke-width:1; stroke:black; " description="&lt;b&gt;BK670_RS08060&lt;/b&gt;&lt;br&gt;type 4a pilus biogenesis protein PilO&lt;br&gt;Location: 44777 - 45400&lt;br&gt;&lt;br&gt;&lt;b&gt;BlastP hit with MCIC6FC_003087&lt;/b&gt;&lt;br&gt;Percentage identity: 64&lt;br&gt;Percentage coverage: 22&lt;br&gt;BLAST bit score: 237&lt;br&gt;E-value: 7.2e-60" locus_tag="BK670_RS08060" class="clusterblast-orf" id="dummy-1_h1_2_35"  />
</g>
<g id="a1_0036"  >
<polygon points="690,85 695,80 699,80 699,90 695,90 690,85 " style="fill:#88d815; stroke-width:1; stroke:black; " description="&lt;b&gt;BK670_RS08065&lt;/b&gt;&lt;br&gt;PilN domain-containing protein&lt;br&gt;Location: 45397 - 45963&lt;br&gt;&lt;br&gt;&lt;b&gt;BlastP hit with MCIC6FC_003087&lt;/b&gt;&lt;br&gt;Percentage identity: 57&lt;br&gt;Percentage coverage: 21&lt;br&gt;BLAST bit score: 197&lt;br&gt;E-value: 6.3e-48" locus_tag="BK670_RS08065" class="clusterblast-orf" id="dummy-1_h1_2_36"  />
</g>
</svg>
