<svg xmlns="http://www.w3.org/2000/svg" xmlns:xlink="http://www.w3.org/1999/xlink" version="1.1" x="0" y="0" height="230" width="800" viewBox="0 0 800 230" preserveAspectRatio="none"  >
<g label="Query sequence" class="clusterblast-cluster"  >
<text x="5" y="20" class="clusterblast-acc"  >
Query sequence</text>
<line x1="10" y1="35" x2="778.0" y2="35" style="stroke-width:1; stroke:grey; "  />
<polygon points="0,35 5,30 254,30 254,40 5,40 0,35 " style="fill:white; stroke-width:1; stroke:black; " description="&lt;b&gt;MCIC6FC_008584&lt;/b&gt;&lt;br&gt;hypothetical protein&lt;br&gt;Location: 14314 - 23110" locus_tag="MCIC6FC_008584" class="clusterblast-orf" id="dummy-1_q0_0_all"  />
<polygon points="258,40 267,40 272,35 267,30 258,30 258,40 " style="fill:white; stroke-width:1; stroke:black; " description="&lt;b&gt;MCIC6FC_008585&lt;/b&gt;&lt;br&gt;hypothetical protein&lt;br&gt;Location: 23237 - 23720" locus_tag="MCIC6FC_008585" class="clusterblast-orf" id="dummy-1_q1_0_all"  />
<polygon points="276,35 281,30 320,30 320,40 281,40 276,35 " style="fill:#d81515; stroke-width:1; stroke:black; " description="&lt;b&gt;MCIC6FC_008586&lt;/b&gt;&lt;br&gt;hypothetical protein&lt;br&gt;Location: 23866 - 25385" locus_tag="MCIC6FC_008586" class="clusterblast-orf" id="dummy-1_q2_0_all"  />
<polygon points="322,35 327,30 441,30 441,40 327,40 322,35 " style="fill:#4dd815; stroke-width:1; stroke:black; " description="&lt;b&gt;MCIC6FC_008587&lt;/b&gt;&lt;br&gt;hypothetical protein&lt;br&gt;Location: 25430 - 29547" locus_tag="MCIC6FC_008587" class="clusterblast-orf" id="dummy-1_q3_0_all"  />
<polygon points="450,40 614,40 619,35 614,30 450,30 450,40 " style="fill:#1585d8; stroke-width:1; stroke:black; " description="&lt;b&gt;MCIC6FC_008588&lt;/b&gt;&lt;br&gt;hypothetical protein&lt;br&gt;Location: 29864 - 35700" locus_tag="MCIC6FC_008588" class="clusterblast-orf" id="dummy-1_q4_0_all"  />
<polygon points="622,40 673,40 678,35 673,30 622,30 622,40 " style="fill:#d815bc; stroke-width:1; stroke:black; " description="&lt;b&gt;MCIC6FC_008589&lt;/b&gt;&lt;br&gt;hypothetical protein&lt;br&gt;Location: 35816 - 37762" locus_tag="MCIC6FC_008589" class="clusterblast-orf" id="dummy-1_q5_0_all"  />
<polygon points="681,40 710,40 715,35 710,30 681,30 681,40 " style="fill:#d8bc15; stroke-width:1; stroke:black; " description="&lt;b&gt;MCIC6FC_008590&lt;/b&gt;&lt;br&gt;hypothetical protein&lt;br&gt;Location: 37849 - 39034" locus_tag="MCIC6FC_008590" class="clusterblast-orf" id="dummy-1_q6_0_all"  />
<polygon points="719,35 724,30 766,30 766,40 724,40 719,35 " style="fill:#15d885; stroke-width:1; stroke:black; " description="&lt;b&gt;MCIC6FC_008591&lt;/b&gt;&lt;br&gt;hypothetical protein&lt;br&gt;Location: 39169 - 40770" locus_tag="MCIC6FC_008591" class="clusterblast-orf" id="dummy-1_q7_0_all"  />
<polygon points="768,40 775,40 780,35 775,30 768,30 768,40 " style="fill:#4d15d8; stroke-width:1; stroke:black; " description="&lt;b&gt;MCIC6FC_008592&lt;/b&gt;&lt;br&gt;hypothetical protein&lt;br&gt;Location: 40849 - 41263" locus_tag="MCIC6FC_008592" class="clusterblast-orf" id="dummy-1_q8_0_all"  />
</g>
<g label="NZ_LT629800" description="NZ_LT629800 (4818339-4829185): Pseudomonas brenneri strain DSM 15294 chromoso... (90% of genes show similarity), bacteriocin" class="clusterblast-cluster"  >
<text x="5" y="70" class="clusterblast-acc"  >
<a xlink:href="https://antismash-db.secondarymetabolites.org/area.html?record=NZ_LT629800&amp;start=4818339&amp;end=4829185" target="_blank">NZ_LT629800 (4818339-4829185)</a>: Pseudomonas brenneri strain DSM 15294 chromoso... (90% of genes show similarity), bacteriocin</text>
<line x1="10" y1="85" x2="778.0" y2="85" style="stroke-width:1; stroke:grey; "  />
</g>
<g id="a1_000"  >
<polygon points="249,85 254,80 262,80 262,90 254,90 249,85 " style="fill:#4dd815; stroke-width:1; stroke:black; " description="&lt;b&gt;BLU43_RS22340&lt;/b&gt;&lt;br&gt;hypothetical protein&lt;br&gt;Location: 4828841 - 4828398&lt;br&gt;&lt;br&gt;&lt;b&gt;BlastP hit with MCIC6FC_008587&lt;/b&gt;&lt;br&gt;Percentage identity: 86&lt;br&gt;Percentage coverage: 11&lt;br&gt;BLAST bit score: 240&lt;br&gt;E-value: 1.3e-60" locus_tag="BLU43_RS22340" class="clusterblast-orf" id="dummy-1_h1_2_0"  />
</g>
<g id="a1_001"  >
<polygon points="262,85 267,80 299,80 299,90 267,90 262,85 " style="fill:#4dd815; stroke-width:1; stroke:black; " description="&lt;b&gt;BLU43_RS22335&lt;/b&gt;&lt;br&gt;phosphatase PAP2/dual specificity phosphatase family protein&lt;br&gt;Location: 4828408 - 4827110&lt;br&gt;&lt;br&gt;&lt;b&gt;BlastP hit with MCIC6FC_008587&lt;/b&gt;&lt;br&gt;Percentage identity: 86&lt;br&gt;Percentage coverage: 31&lt;br&gt;BLAST bit score: 748&lt;br&gt;E-value: 1.5e-213" locus_tag="BLU43_RS22335" class="clusterblast-orf" id="dummy-1_h1_2_1"  />
</g>
<g id="a1_002"  >
<polygon points="299,85 304,80 350,80 350,90 304,90 299,85 " style="fill:#4dd815; stroke-width:1; stroke:black; " description="&lt;b&gt;BLU43_RS22330&lt;/b&gt;&lt;br&gt;bifunctional alpha/beta hydrolase/class I SAM-dependent methyltransferase&lt;br&gt;Location: 4827107 - 4825353&lt;br&gt;&lt;br&gt;&lt;b&gt;BlastP hit with MCIC6FC_008587&lt;/b&gt;&lt;br&gt;Percentage identity: 95&lt;br&gt;Percentage coverage: 43&lt;br&gt;BLAST bit score: 1081&lt;br&gt;E-value: 0.0" locus_tag="BLU43_RS22330" class="clusterblast-orf" id="dummy-1_h1_2_2"  />
</g>
<g id="a1_003"  >
<polygon points="350,85 355,80 368,80 368,90 355,90 350,85 " style="fill:#4dd815; stroke-width:1; stroke:black; " description="&lt;b&gt;BLU43_RS22325&lt;/b&gt;&lt;br&gt;CDP-alcohol phosphatidyltransferase family protein&lt;br&gt;Location: 4825342 - 4824719&lt;br&gt;&lt;br&gt;&lt;b&gt;BlastP hit with MCIC6FC_008587&lt;/b&gt;&lt;br&gt;Percentage identity: 93&lt;br&gt;Percentage coverage: 15&lt;br&gt;BLAST bit score: 356&lt;br&gt;E-value: 1.3e-95" locus_tag="BLU43_RS22325" class="clusterblast-orf" id="dummy-1_h1_2_3"  />
</g>
<g id="a1_004"  >
<polygon points="375,90 377,90 382,85 377,80 375,80 375,90 " style="fill:white; stroke-width:1; stroke:black; " description="&lt;b&gt;BLU43_RS22320&lt;/b&gt;&lt;br&gt;membrane protein&lt;br&gt;Location: 4824502 - 4824248" locus_tag="BLU43_RS22320" class="clusterblast-orf" id="dummy-1_h1_2_4"  />
</g>
<g id="a1_005"  >
<polygon points="384,90 403,90 408,85 403,80 384,80 384,90 " style="fill:#d815bc; stroke-width:1; stroke:black; " description="&lt;b&gt;BLU43_RS22315&lt;/b&gt;&lt;br&gt;DUF692 domain-containing protein&lt;br&gt;Location: 4824185 - 4823340&lt;br&gt;&lt;br&gt;&lt;b&gt;BlastP hit with MCIC6FC_008589&lt;/b&gt;&lt;br&gt;Percentage identity: 79&lt;br&gt;Percentage coverage: 46&lt;br&gt;BLAST bit score: 451&lt;br&gt;E-value: 1.6e-124" locus_tag="BLU43_RS22315" class="clusterblast-orf" id="dummy-1_h1_2_5"  />
</g>
<g id="a1_006"  >
<polygon points="408,90 426,90 431,85 426,80 408,80 408,90 " style="fill:#d815bc; stroke-width:1; stroke:black; " description="&lt;b&gt;BLU43_RS22310&lt;/b&gt;&lt;br&gt;putative DNA-binding domain-containing protein&lt;br&gt;Location: 4823349 - 4822567&lt;br&gt;&lt;br&gt;&lt;b&gt;BlastP hit with MCIC6FC_008589&lt;/b&gt;&lt;br&gt;Percentage identity: 69&lt;br&gt;Percentage coverage: 44&lt;br&gt;BLAST bit score: 367&lt;br&gt;E-value: 3.1e-99" locus_tag="BLU43_RS22310" class="clusterblast-orf" id="dummy-1_h1_2_6"  />
</g>
<g id="a1_007"  >
<polygon points="433,90 462,90 467,85 462,80 433,80 433,90 " style="fill:#d8bc15; stroke-width:1; stroke:black; " description="&lt;b&gt;BLU43_RS22305&lt;/b&gt;&lt;br&gt;class I SAM-dependent methyltransferase&lt;br&gt;Location: 4822480 - 4821296&lt;br&gt;&lt;br&gt;&lt;b&gt;BlastP hit with MCIC6FC_008590&lt;/b&gt;&lt;br&gt;Percentage identity: 92&lt;br&gt;Percentage coverage: 100&lt;br&gt;BLAST bit score: 763&lt;br&gt;E-value: 1e-218" locus_tag="BLU43_RS22305" class="clusterblast-orf" id="dummy-1_h1_2_7"  />
</g>
<g id="a1_008"  >
<polygon points="469,85 474,80 511,80 511,90 474,90 469,85 " style="fill:#15d885; stroke-width:1; stroke:black; " description="&lt;b&gt;BLU43_RS22300&lt;/b&gt;&lt;br&gt;cardiolipin synthase&lt;br&gt;Location: 4821224 - 4819785&lt;br&gt;&lt;br&gt;&lt;b&gt;BlastP hit with MCIC6FC_008591&lt;/b&gt;&lt;br&gt;Percentage identity: 91&lt;br&gt;Percentage coverage: 98&lt;br&gt;BLAST bit score: 836&lt;br&gt;E-value: 1.9e-240" locus_tag="BLU43_RS22300" class="clusterblast-orf" id="dummy-1_h1_2_8"  />
</g>
<g id="a1_009"  >
<polygon points="515,90 525,90 530,85 525,80 515,80 515,90 " style="fill:#4d15d8; stroke-width:1; stroke:black; " description="&lt;b&gt;BLU43_RS22295&lt;/b&gt;&lt;br&gt;DUF3617 domain-containing protein&lt;br&gt;Location: 4819654 - 4819133&lt;br&gt;&lt;br&gt;&lt;b&gt;BlastP hit with MCIC6FC_008592&lt;/b&gt;&lt;br&gt;Percentage identity: 93&lt;br&gt;Percentage coverage: 99&lt;br&gt;BLAST bit score: 260&lt;br&gt;E-value: 7.4e-68" locus_tag="BLU43_RS22295" class="clusterblast-orf" id="dummy-1_h1_2_9"  />
</g>
</svg>
