<svg xmlns="http://www.w3.org/2000/svg" xmlns:xlink="http://www.w3.org/1999/xlink" version="1.1" x="0" y="0" height="230" width="800" viewBox="0 0 800 230" preserveAspectRatio="none"  >
<g label="Query sequence" class="clusterblast-cluster"  >
<text x="5" y="20" class="clusterblast-acc"  >
Query sequence</text>
<line x1="10" y1="35" x2="778.0" y2="35" style="stroke-width:1; stroke:grey; "  />
<polygon points="0,35 5,30 47,30 47,40 5,40 0,35 " style="fill:#d81515; stroke-width:1; stroke:black; " description="&lt;b&gt;MCIC6FC_008038&lt;/b&gt;&lt;br&gt;hypothetical protein&lt;br&gt;Location: 163889 - 165503" locus_tag="MCIC6FC_008038" class="clusterblast-orf" id="dummy-1_q0_0_all"  />
<polygon points="51,35 56,30 70,30 70,40 56,40 51,35 " style="fill:#15d815; stroke-width:1; stroke:black; " description="&lt;b&gt;MCIC6FC_008039&lt;/b&gt;&lt;br&gt;hypothetical protein&lt;br&gt;Location: 165609 - 166281" locus_tag="MCIC6FC_008039" class="clusterblast-orf" id="dummy-1_q1_0_all"  />
<polygon points="73,35 78,30 91,30 91,40 78,40 73,35 " style="fill:#1515d8; stroke-width:1; stroke:black; " description="&lt;b&gt;MCIC6FC_008040&lt;/b&gt;&lt;br&gt;hypothetical protein&lt;br&gt;Location: 166378 - 166978" locus_tag="MCIC6FC_008040" class="clusterblast-orf" id="dummy-1_q2_0_all"  />
<polygon points="94,40 116,40 121,35 116,30 94,30 94,40 " style="fill:#d815d8; stroke-width:1; stroke:black; " description="&lt;b&gt;MCIC6FC_008041&lt;/b&gt;&lt;br&gt;hypothetical protein&lt;br&gt;Location: 167081 - 167996" locus_tag="MCIC6FC_008041" class="clusterblast-orf" id="dummy-1_q3_0_all"  />
<polygon points="121,35 126,30 184,30 184,40 126,40 121,35 " style="fill:#d8d815; stroke-width:1; stroke:black; " description="&lt;b&gt;MCIC6FC_008042&lt;/b&gt;&lt;br&gt;hypothetical protein&lt;br&gt;Location: 168006 - 170121" locus_tag="MCIC6FC_008042" class="clusterblast-orf" id="dummy-1_q4_0_all"  />
<polygon points="185,35 190,30 349,30 349,40 190,40 185,35 " style="fill:#15d8d8; stroke-width:1; stroke:black; " description="&lt;b&gt;MCIC6FC_008043&lt;/b&gt;&lt;br&gt;hypothetical protein&lt;br&gt;Location: 170144 - 175701" locus_tag="MCIC6FC_008043" class="clusterblast-orf" id="dummy-1_q5_0_all"  />
<polygon points="359,40 363,40 368,35 363,30 359,30 359,40 " style="fill:white; stroke-width:1; stroke:black; " description="&lt;b&gt;MCIC6FC_008044&lt;/b&gt;&lt;br&gt;hypothetical protein&lt;br&gt;Location: 176041 - 176344" locus_tag="MCIC6FC_008044" class="clusterblast-orf" id="dummy-1_q6_0_all"  />
<polygon points="377,35 382,30 463,30 463,40 382,40 377,35 " style="fill:white; stroke-width:1; stroke:black; " description="&lt;b&gt;MCIC6FC_008045&lt;/b&gt;&lt;br&gt;hypothetical protein&lt;br&gt;Location: 176636 - 179560" locus_tag="MCIC6FC_008045" class="clusterblast-orf" id="dummy-1_q7_0_all"  />
<polygon points="470,40 505,40 510,35 505,30 470,30 470,40 " style="fill:white; stroke-width:1; stroke:black; " description="&lt;b&gt;MCIC6FC_008046&lt;/b&gt;&lt;br&gt;hypothetical protein&lt;br&gt;Location: 179802 - 181149" locus_tag="MCIC6FC_008046" class="clusterblast-orf" id="dummy-1_q8_0_all"  />
<polygon points="515,35 520,30 599,30 599,40 520,40 515,35 " style="fill:white; stroke-width:1; stroke:black; " description="&lt;b&gt;MCIC6FC_008047&lt;/b&gt;&lt;br&gt;hypothetical protein&lt;br&gt;Location: 181305 - 184152" locus_tag="MCIC6FC_008047" class="clusterblast-orf" id="dummy-1_q9_0_all"  />
<polygon points="605,40 609,40 614,35 609,30 605,30 605,40 " style="fill:white; stroke-width:1; stroke:black; " description="&lt;b&gt;MCIC6FC_008048&lt;/b&gt;&lt;br&gt;hypothetical protein&lt;br&gt;Location: 184371 - 184666" locus_tag="MCIC6FC_008048" class="clusterblast-orf" id="dummy-1_q10_0_all"  />
<polygon points="615,35 620,30 705,30 705,40 620,40 615,35 " style="fill:white; stroke-width:1; stroke:black; " description="&lt;b&gt;MCIC6FC_008049&lt;/b&gt;&lt;br&gt;hypothetical protein&lt;br&gt;Location: 184709 - 187762" locus_tag="MCIC6FC_008049" class="clusterblast-orf" id="dummy-1_q11_0_all"  />
<polygon points="736,35 741,30 780,30 780,40 741,40 736,35 " style="fill:white; stroke-width:1; stroke:black; " description="&lt;b&gt;MCIC6FC_008050&lt;/b&gt;&lt;br&gt;hypothetical protein&lt;br&gt;Location: 188804 - 190280" locus_tag="MCIC6FC_008050" class="clusterblast-orf" id="dummy-1_q12_0_all"  />
</g>
<g label="NZ_JSYZ01000002" description="NZ_JSYZ01000002 (15806-26691): Pseudomonas fuscovaginae strain IRRI 6609 Pf I... (90% of genes show similarity), bacteriocin" class="clusterblast-cluster"  >
<text x="5" y="70" class="clusterblast-acc"  >
<a xlink:href="https://antismash-db.secondarymetabolites.org/area.html?record=NZ_JSYZ01000002&amp;start=15806&amp;end=26691" target="_blank">NZ_JSYZ01000002 (15806-26691)</a>: Pseudomonas fuscovaginae strain IRRI 6609 Pf I... (90% of genes show similarity), bacteriocin</text>
<line x1="10" y1="85" x2="778.0" y2="85" style="stroke-width:1; stroke:grey; "  />
</g>
<g id="a1_000"  >
<polygon points="244,85 249,80 292,80 292,90 249,90 244,85 " style="fill:#d81515; stroke-width:1; stroke:black; " description="&lt;b&gt;PF66_RS02115&lt;/b&gt;&lt;br&gt;NAD(P)/FAD-dependent oxidoreductase&lt;br&gt;Location: 26536 - 24923&lt;br&gt;&lt;br&gt;&lt;b&gt;BlastP hit with MCIC6FC_008038&lt;/b&gt;&lt;br&gt;Percentage identity: 90&lt;br&gt;Percentage coverage: 100&lt;br&gt;BLAST bit score: 978&lt;br&gt;E-value: 2.1e-283" locus_tag="PF66_RS02115" class="clusterblast-orf" id="dummy-1_h1_5_0"  />
</g>
<g id="a1_001"  >
<polygon points="295,85 300,80 315,80 315,90 300,90 295,85 " style="fill:#15d815; stroke-width:1; stroke:black; " description="&lt;b&gt;PF66_RS02110&lt;/b&gt;&lt;br&gt;hypothetical protein&lt;br&gt;Location: 24814 - 24140&lt;br&gt;&lt;br&gt;&lt;b&gt;BlastP hit with MCIC6FC_008039&lt;/b&gt;&lt;br&gt;Percentage identity: 61&lt;br&gt;Percentage coverage: 100&lt;br&gt;BLAST bit score: 284&lt;br&gt;E-value: 7.8e-75" locus_tag="PF66_RS02110" class="clusterblast-orf" id="dummy-1_h1_5_1"  />
</g>
<g id="a1_002"  >
<polygon points="317,85 322,80 335,80 335,90 322,90 317,85 " style="fill:#1515d8; stroke-width:1; stroke:black; " description="&lt;b&gt;PF66_RS02105&lt;/b&gt;&lt;br&gt;short chain dehydrogenase&lt;br&gt;Location: 24070 - 23471&lt;br&gt;&lt;br&gt;&lt;b&gt;BlastP hit with MCIC6FC_008040&lt;/b&gt;&lt;br&gt;Percentage identity: 77&lt;br&gt;Percentage coverage: 100&lt;br&gt;BLAST bit score: 310&lt;br&gt;E-value: 1.2e-82" locus_tag="PF66_RS02105" class="clusterblast-orf" id="dummy-1_h1_5_2"  />
</g>
<g id="a1_003"  >
<polygon points="338,90 360,90 365,85 360,80 338,80 338,90 " style="fill:#d815d8; stroke-width:1; stroke:black; " description="&lt;b&gt;PF66_RS02100&lt;/b&gt;&lt;br&gt;LysR family transcriptional regulator&lt;br&gt;Location: 23364 - 22450&lt;br&gt;&lt;br&gt;&lt;b&gt;BlastP hit with MCIC6FC_008041&lt;/b&gt;&lt;br&gt;Percentage identity: 80&lt;br&gt;Percentage coverage: 103&lt;br&gt;BLAST bit score: 483&lt;br&gt;E-value: 1.5e-134" locus_tag="PF66_RS02100" class="clusterblast-orf" id="dummy-1_h1_5_3"  />
</g>
<g id="a1_004"  >
<polygon points="365,85 370,80 387,80 387,90 370,90 365,85 " style="fill:#d8d815; stroke-width:1; stroke:black; " description="&lt;b&gt;PF66_RS02095&lt;/b&gt;&lt;br&gt;DUF2063 domain-containing protein&lt;br&gt;Location: 22449 - 21688&lt;br&gt;&lt;br&gt;&lt;b&gt;BlastP hit with MCIC6FC_008042&lt;/b&gt;&lt;br&gt;Percentage identity: 52&lt;br&gt;Percentage coverage: 35&lt;br&gt;BLAST bit score: 210&lt;br&gt;E-value: 5.4e-52" locus_tag="PF66_RS02095" class="clusterblast-orf" id="dummy-1_h1_5_4"  />
</g>
<g id="a1_005"  >
<polygon points="387,85 392,80 413,80 413,90 392,90 387,85 " style="fill:#d8d815; stroke-width:1; stroke:black; " description="&lt;b&gt;PF66_RS02090&lt;/b&gt;&lt;br&gt;DUF692 domain-containing protein&lt;br&gt;Location: 21691 - 20807&lt;br&gt;&lt;br&gt;&lt;b&gt;BlastP hit with MCIC6FC_008042&lt;/b&gt;&lt;br&gt;Percentage identity: 77&lt;br&gt;Percentage coverage: 44&lt;br&gt;BLAST bit score: 453&lt;br&gt;E-value: 4.8e-125" locus_tag="PF66_RS02090" class="clusterblast-orf" id="dummy-1_h1_5_5"  />
</g>
<g id="a1_006"  >
<polygon points="414,85 419,80 423,80 423,90 419,90 414,85 " style="fill:white; stroke-width:1; stroke:black; " description="&lt;b&gt;PF66_RS02085&lt;/b&gt;&lt;br&gt;DUF2282 domain-containing protein&lt;br&gt;Location: 20798 - 20493" locus_tag="PF66_RS02085" class="clusterblast-orf" id="dummy-1_h1_5_6"  />
</g>
<g id="a1_007"  >
<polygon points="427,85 432,80 448,80 448,90 432,90 427,85 " style="fill:#15d8d8; stroke-width:1; stroke:black; " description="&lt;b&gt;PF66_RS02080&lt;/b&gt;&lt;br&gt;ABC transporter ATP-binding protein&lt;br&gt;Location: 20326 - 19625&lt;br&gt;&lt;br&gt;&lt;b&gt;BlastP hit with MCIC6FC_008043&lt;/b&gt;&lt;br&gt;Percentage identity: 96&lt;br&gt;Percentage coverage: 13&lt;br&gt;BLAST bit score: 396&lt;br&gt;E-value: 1.3e-107" locus_tag="PF66_RS02080" class="clusterblast-orf" id="dummy-1_h1_5_7"  />
</g>
<g id="a1_008"  >
<polygon points="448,85 453,80 471,80 471,90 453,90 448,85 " style="fill:#15d8d8; stroke-width:1; stroke:black; " description="&lt;b&gt;PF66_RS02075&lt;/b&gt;&lt;br&gt;ABC transporter ATP-binding protein&lt;br&gt;Location: 19624 - 18857&lt;br&gt;&lt;br&gt;&lt;b&gt;BlastP hit with MCIC6FC_008043&lt;/b&gt;&lt;br&gt;Percentage identity: 95&lt;br&gt;Percentage coverage: 15&lt;br&gt;BLAST bit score: 470&lt;br&gt;E-value: 5.6e-130" locus_tag="PF66_RS02075" class="clusterblast-orf" id="dummy-1_h1_5_8"  />
</g>
<g id="a1_009"  >
<polygon points="471,85 476,80 508,80 508,90 476,90 471,85 " style="fill:#15d8d8; stroke-width:1; stroke:black; " description="&lt;b&gt;PF66_RS02070&lt;/b&gt;&lt;br&gt;high-affinity branched-chain amino acid ABC transporter permease LivM&lt;br&gt;Location: 18860 - 17607&lt;br&gt;&lt;br&gt;&lt;b&gt;BlastP hit with MCIC6FC_008043&lt;/b&gt;&lt;br&gt;Percentage identity: 87&lt;br&gt;Percentage coverage: 25&lt;br&gt;BLAST bit score: 659&lt;br&gt;E-value: 8.5e-187" locus_tag="PF66_RS02070" class="clusterblast-orf" id="dummy-1_h1_5_9"  />
</g>
<g id="a1_0010"  >
<polygon points="508,85 513,80 535,80 535,90 513,90 508,85 " style="fill:#15d8d8; stroke-width:1; stroke:black; " description="&lt;b&gt;PF66_RS02065&lt;/b&gt;&lt;br&gt;high-affinity branched-chain amino acid ABC transporter permease LivH&lt;br&gt;Location: 17610 - 16687&lt;br&gt;&lt;br&gt;&lt;b&gt;BlastP hit with MCIC6FC_008043&lt;/b&gt;&lt;br&gt;Percentage identity: 97&lt;br&gt;Percentage coverage: 18&lt;br&gt;BLAST bit score: 520&lt;br&gt;E-value: 4.7e-145" locus_tag="PF66_RS02065" class="clusterblast-orf" id="dummy-1_h1_5_10"  />
</g>
</svg>
