<svg xmlns="http://www.w3.org/2000/svg" xmlns:xlink="http://www.w3.org/1999/xlink" version="1.1" x="0" y="0" height="230" width="800" viewBox="0 0 800 230" preserveAspectRatio="none"  >
<g label="Query sequence" class="clusterblast-cluster"  >
<text x="5" y="20" class="clusterblast-acc"  >
Query sequence</text>
<line x1="10" y1="35" x2="778.0" y2="35" style="stroke-width:1; stroke:grey; "  />
<polygon points="189,35 194,30 239,30 239,40 194,40 189,35 " style="fill:white; stroke-width:1; stroke:black; " description="&lt;b&gt;MCIC6FC_015726&lt;/b&gt;&lt;br&gt;hypothetical protein&lt;br&gt;Location: 219963 - 224935" locus_tag="MCIC6FC_015726" class="clusterblast-orf" id="dummy-1_q0_0_all"  />
<polygon points="241,40 304,40 309,35 304,30 241,30 241,40 " style="fill:white; stroke-width:1; stroke:black; " description="&lt;b&gt;MCIC6FC_015727&lt;/b&gt;&lt;br&gt;hypothetical protein&lt;br&gt;Location: 225227 - 232016" locus_tag="MCIC6FC_015727" class="clusterblast-orf" id="dummy-1_q1_0_all"  />
<polygon points="310,40 310,40 315,35 310,30 310,30 310,40 " style="fill:white; stroke-width:1; stroke:black; " description="&lt;b&gt;MCIC6FC_015728&lt;/b&gt;&lt;br&gt;hypothetical protein&lt;br&gt;Location: 232179 - 232641" locus_tag="MCIC6FC_015728" class="clusterblast-orf" id="dummy-1_q2_0_all"  />
<polygon points="316,35 321,30 327,30 327,40 321,40 316,35 " style="fill:white; stroke-width:1; stroke:black; " description="&lt;b&gt;MCIC6FC_015729&lt;/b&gt;&lt;br&gt;hypothetical protein&lt;br&gt;Location: 232802 - 233845" locus_tag="MCIC6FC_015729" class="clusterblast-orf" id="dummy-1_q3_0_all"  />
<polygon points="327,35 332,30 367,30 367,40 332,40 327,35 " style="fill:white; stroke-width:1; stroke:black; " description="&lt;b&gt;MCIC6FC_015730&lt;/b&gt;&lt;br&gt;hypothetical protein&lt;br&gt;Location: 233870 - 237951" locus_tag="MCIC6FC_015730" class="clusterblast-orf" id="dummy-1_q4_0_all"  />
<polygon points="369,40 383,40 388,35 383,30 369,30 369,40 " style="fill:#d81515; stroke-width:1; stroke:black; " description="&lt;b&gt;MCIC6FC_015731&lt;/b&gt;&lt;br&gt;hypothetical protein&lt;br&gt;Location: 238143 - 240051" locus_tag="MCIC6FC_015731" class="clusterblast-orf" id="dummy-1_q5_0_all"  />
<polygon points="392,40 394,40 399,35 394,30 392,30 392,40 " style="fill:#15d815; stroke-width:1; stroke:black; " description="&lt;b&gt;MCIC6FC_015732&lt;/b&gt;&lt;br&gt;hypothetical protein&lt;br&gt;Location: 240415 - 241110" locus_tag="MCIC6FC_015732" class="clusterblast-orf" id="dummy-1_q6_0_all"  />
<polygon points="399,40 408,40 413,35 408,30 399,30 399,40 " style="fill:#15d815; stroke-width:1; stroke:black; " description="&lt;b&gt;MCIC6FC_015733&lt;/b&gt;&lt;br&gt;hypothetical protein&lt;br&gt;Location: 241181 - 242573" locus_tag="MCIC6FC_015733" class="clusterblast-orf" id="dummy-1_q7_0_all"  />
<polygon points="414,35 419,30 443,30 443,40 419,40 414,35 " style="fill:#1515d8; stroke-width:1; stroke:black; " description="&lt;b&gt;MCIC6FC_015734&lt;/b&gt;&lt;br&gt;hypothetical protein&lt;br&gt;Location: 242686 - 245622" locus_tag="MCIC6FC_015734" class="clusterblast-orf" id="dummy-1_q8_0_all"  />
<polygon points="444,40 447,35 444,30 444,40 " style="fill:white; stroke-width:1; stroke:black; " description="&lt;b&gt;MCIC6FC_015735&lt;/b&gt;&lt;br&gt;hypothetical protein&lt;br&gt;Location: 245715 - 246014" locus_tag="MCIC6FC_015735" class="clusterblast-orf" id="dummy-1_q9_0_all"  />
<polygon points="449,35 454,30 464,30 464,40 454,40 449,35 " style="fill:white; stroke-width:1; stroke:black; " description="&lt;b&gt;MCIC6FC_015736&lt;/b&gt;&lt;br&gt;hypothetical protein&lt;br&gt;Location: 246155 - 247676" locus_tag="MCIC6FC_015736" class="clusterblast-orf" id="dummy-1_q10_0_all"  />
<polygon points="469,40 472,40 477,35 472,30 469,30 469,40 " style="fill:white; stroke-width:1; stroke:black; " description="&lt;b&gt;MCIC6FC_015737&lt;/b&gt;&lt;br&gt;hypothetical protein&lt;br&gt;Location: 248191 - 248986" locus_tag="MCIC6FC_015737" class="clusterblast-orf" id="dummy-1_q11_0_all"  />
<polygon points="477,35 482,30 490,30 490,40 482,40 477,35 " style="fill:white; stroke-width:1; stroke:black; " description="&lt;b&gt;MCIC6FC_015738&lt;/b&gt;&lt;br&gt;hypothetical protein&lt;br&gt;Location: 249038 - 250333" locus_tag="MCIC6FC_015738" class="clusterblast-orf" id="dummy-1_q12_0_all"  />
<polygon points="491,35 496,30 501,30 501,40 496,40 491,35 " style="fill:white; stroke-width:1; stroke:black; " description="&lt;b&gt;MCIC6FC_015739&lt;/b&gt;&lt;br&gt;hypothetical protein&lt;br&gt;Location: 250378 - 251386" locus_tag="MCIC6FC_015739" class="clusterblast-orf" id="dummy-1_q13_0_all"  />
<polygon points="501,40 504,40 509,35 504,30 501,30 501,40 " style="fill:white; stroke-width:1; stroke:black; " description="&lt;b&gt;MCIC6FC_015740&lt;/b&gt;&lt;br&gt;hypothetical protein&lt;br&gt;Location: 251445 - 252194" locus_tag="MCIC6FC_015740" class="clusterblast-orf" id="dummy-1_q14_0_all"  />
<polygon points="509,35 514,30 543,30 543,40 514,40 509,35 " style="fill:white; stroke-width:1; stroke:black; " description="&lt;b&gt;MCIC6FC_015741&lt;/b&gt;&lt;br&gt;hypothetical protein&lt;br&gt;Location: 252222 - 255671" locus_tag="MCIC6FC_015741" class="clusterblast-orf" id="dummy-1_q15_0_all"  />
<polygon points="543,35 548,30 562,30 562,40 548,40 543,35 " style="fill:white; stroke-width:1; stroke:black; " description="&lt;b&gt;MCIC6FC_015742&lt;/b&gt;&lt;br&gt;hypothetical protein&lt;br&gt;Location: 255717 - 257591" locus_tag="MCIC6FC_015742" class="clusterblast-orf" id="dummy-1_q16_0_all"  />
<polygon points="563,40 585,40 590,35 585,30 563,30 563,40 " style="fill:white; stroke-width:1; stroke:black; " description="&lt;b&gt;MCIC6FC_015743&lt;/b&gt;&lt;br&gt;hypothetical protein&lt;br&gt;Location: 257671 - 260408" locus_tag="MCIC6FC_015743" class="clusterblast-orf" id="dummy-1_q17_0_all"  />
</g>
<g label="NZ_CP015876" description="NZ_CP015876 (1815021-1895570): Pseudomonas putida SJTE-1 chromosome, complete... (12% of genes show similarity), NRPS" class="clusterblast-cluster"  >
<text x="5" y="70" class="clusterblast-acc"  >
<a xlink:href="https://antismash-db.secondarymetabolites.org/area.html?record=NZ_CP015876&amp;start=1815021&amp;end=1895570" target="_blank">NZ_CP015876 (1815021-1895570)</a>: Pseudomonas putida SJTE-1 chromosome, complete... (12% of genes show similarity), NRPS</text>
<line x1="10" y1="85" x2="778.0" y2="85" style="stroke-width:1; stroke:grey; "  />
</g>
<g id="a1_000"  >
<polygon points="0,90 3,90 8,85 3,80 0,80 0,90 " style="fill:white; stroke-width:1; stroke:black; " description="&lt;b&gt;A210_RS08490&lt;/b&gt;&lt;br&gt;ABC transporter substrate-binding protein&lt;br&gt;Location: 1894525 - 1893635" locus_tag="A210_RS08490" class="clusterblast-orf" id="dummy-1_h1_6_0"  />
</g>
<g id="a1_001"  >
<polygon points="8,90 22,90 27,85 22,80 8,80 8,90 " style="fill:#d81515; stroke-width:1; stroke:black; " description="&lt;b&gt;A210_RS08485&lt;/b&gt;&lt;br&gt;response regulator&lt;br&gt;Location: 1893638 - 1891707&lt;br&gt;&lt;br&gt;&lt;b&gt;BlastP hit with MCIC6FC_015731&lt;/b&gt;&lt;br&gt;Percentage identity: 54&lt;br&gt;Percentage coverage: 116&lt;br&gt;BLAST bit score: 548&lt;br&gt;E-value: 9.2e-154" locus_tag="A210_RS08485" class="clusterblast-orf" id="dummy-1_h1_6_1"  />
</g>
<g id="a1_002"  >
<polygon points="29,90 30,90 35,85 30,80 29,80 29,90 " style="fill:#15d815; stroke-width:1; stroke:black; " description="&lt;b&gt;A210_RS08480&lt;/b&gt;&lt;br&gt;3-hydroxyacyl-[acyl-carrier-protein] dehydratase FabA&lt;br&gt;Location: 1891499 - 1890984&lt;br&gt;&lt;br&gt;&lt;b&gt;BlastP hit with MCIC6FC_015732&lt;/b&gt;&lt;br&gt;Percentage identity: 91&lt;br&gt;Percentage coverage: 58&lt;br&gt;BLAST bit score: 234&lt;br&gt;E-value: 8.8e-60" locus_tag="A210_RS08480" class="clusterblast-orf" id="dummy-1_h1_6_2"  />
</g>
<g id="a1_003"  >
<polygon points="35,90 42,90 47,85 42,80 35,80 35,90 " style="fill:#15d815; stroke-width:1; stroke:black; " description="&lt;b&gt;A210_RS08475&lt;/b&gt;&lt;br&gt;beta-ketoacyl-ACP synthase I&lt;br&gt;Location: 1890972 - 1889752&lt;br&gt;&lt;br&gt;&lt;b&gt;BlastP hit with MCIC6FC_015732&lt;/b&gt;&lt;br&gt;Percentage identity: 93&lt;br&gt;Percentage coverage: 41&lt;br&gt;BLAST bit score: 160&lt;br&gt;E-value: 1.6e-37&lt;br&gt;&lt;br&gt;&lt;b&gt;BlastP hit with MCIC6FC_015733&lt;/b&gt;&lt;br&gt;Percentage identity: 80&lt;br&gt;Percentage coverage: 64&lt;br&gt;BLAST bit score: 403&lt;br&gt;E-value: 2.8e-110" locus_tag="A210_RS08475" class="clusterblast-orf" id="dummy-1_h1_6_3"  />
</g>
<g id="a1_004"  >
<polygon points="48,85 53,80 58,80 58,90 53,90 48,85 " style="fill:white; stroke-width:1; stroke:black; " description="&lt;b&gt;A210_RS08470&lt;/b&gt;&lt;br&gt;amidohydrolase family protein&lt;br&gt;Location: 1889594 - 1888587" locus_tag="A210_RS08470" class="clusterblast-orf" id="dummy-1_h1_6_4"  />
</g>
<g id="a1_005"  >
<polygon points="59,90 63,90 68,85 63,80 59,80 59,90 " style="fill:white; stroke-width:1; stroke:black; " description="&lt;b&gt;A210_RS08465&lt;/b&gt;&lt;br&gt;pirin family protein&lt;br&gt;Location: 1888469 - 1887606" locus_tag="A210_RS08465" class="clusterblast-orf" id="dummy-1_h1_6_5"  />
</g>
<g id="a1_006"  >
<polygon points="69,85 74,80 77,80 77,90 74,90 69,85 " style="fill:#1515d8; stroke-width:1; stroke:black; " description="&lt;b&gt;A210_RS08460&lt;/b&gt;&lt;br&gt;dienelactone hydrolase family protein&lt;br&gt;Location: 1887466 - 1886741&lt;br&gt;&lt;br&gt;&lt;b&gt;BlastP hit with MCIC6FC_015734&lt;/b&gt;&lt;br&gt;Percentage identity: 38&lt;br&gt;Percentage coverage: 27&lt;br&gt;BLAST bit score: 115&lt;br&gt;E-value: 2.3e-23" locus_tag="A210_RS08460" class="clusterblast-orf" id="dummy-1_h1_6_6"  />
</g>
<g id="a1_007"  >
<polygon points="77,85 82,80 96,80 96,90 82,90 77,85 " style="fill:#1515d8; stroke-width:1; stroke:black; " description="&lt;b&gt;A210_RS08455&lt;/b&gt;&lt;br&gt;molecular chaperone HtpG&lt;br&gt;Location: 1886677 - 1884773&lt;br&gt;&lt;br&gt;&lt;b&gt;BlastP hit with MCIC6FC_015734&lt;/b&gt;&lt;br&gt;Percentage identity: 73&lt;br&gt;Percentage coverage: 76&lt;br&gt;BLAST bit score: 844&lt;br&gt;E-value: 9.5e-243" locus_tag="A210_RS08455" class="clusterblast-orf" id="dummy-1_h1_6_7"  />
</g>
<g id="a1_008"  >
<polygon points="97,85 102,80 102,80 102,90 102,90 97,85 " style="fill:white; stroke-width:1; stroke:black; " description="&lt;b&gt;A210_RS08450&lt;/b&gt;&lt;br&gt;PaaI family thioesterase&lt;br&gt;Location: 1884703 - 1884221" locus_tag="A210_RS08450" class="clusterblast-orf" id="dummy-1_h1_6_8"  />
</g>
<g id="a1_009"  >
<polygon points="102,85 106,80 106,90 102,85 " style="fill:white; stroke-width:1; stroke:black; " description="&lt;b&gt;A210_RS08445&lt;/b&gt;&lt;br&gt;PaaI family thioesterase&lt;br&gt;Location: 1884224 - 1883748" locus_tag="A210_RS08445" class="clusterblast-orf" id="dummy-1_h1_6_9"  />
</g>
<g id="a1_0010"  >
<polygon points="108,90 110,85 108,80 108,90 " style="fill:white; stroke-width:1; stroke:black; " description="&lt;b&gt;A210_RS08440&lt;/b&gt;&lt;br&gt;hypothetical protein&lt;br&gt;Location: 1883593 - 1883321" locus_tag="A210_RS08440" class="clusterblast-orf" id="dummy-1_h1_6_10"  />
</g>
<g id="a1_0011"  >
<polygon points="112,90 119,90 124,85 119,80 112,80 112,90 " style="fill:white; stroke-width:1; stroke:black; " description="&lt;b&gt;A210_RS08435&lt;/b&gt;&lt;br&gt;efflux RND transporter periplasmic adaptor subunit&lt;br&gt;Location: 1883115 - 1881952" locus_tag="A210_RS08435" class="clusterblast-orf" id="dummy-1_h1_6_11"  />
</g>
<g id="a1_0012"  >
<polygon points="124,90 139,90 144,85 139,80 124,80 124,90 " style="fill:white; stroke-width:1; stroke:black; " description="&lt;b&gt;A210_RS08430&lt;/b&gt;&lt;br&gt;MacB family efflux pump subunit&lt;br&gt;Location: 1881951 - 1879981" locus_tag="A210_RS08430" class="clusterblast-orf" id="dummy-1_h1_6_12"  />
</g>
<g id="a1_0013"  >
<polygon points="143,90 153,90 158,85 153,80 143,80 143,90 " style="fill:white; stroke-width:1; stroke:black; " description="&lt;b&gt;A210_RS08425&lt;/b&gt;&lt;br&gt;efflux transporter outer membrane subunit&lt;br&gt;Location: 1879984 - 1878545" locus_tag="A210_RS08425" class="clusterblast-orf" id="dummy-1_h1_6_13"  />
</g>
<g id="a1_0014"  >
<polygon points="159,90 164,90 169,85 164,80 159,80 159,90 " style="fill:white; stroke-width:1; stroke:black; " description="&lt;b&gt;A210_RS08420&lt;/b&gt;&lt;br&gt;acetyltransferase&lt;br&gt;Location: 1878468 - 1877449" locus_tag="A210_RS08420" class="clusterblast-orf" id="dummy-1_h1_6_14"  />
</g>
<g id="a1_0015"  >
<polygon points="169,90 180,90 185,85 180,80 169,80 169,90 " style="fill:white; stroke-width:1; stroke:black; " description="&lt;b&gt;A210_RS08415&lt;/b&gt;&lt;br&gt;cyclic peptide export ABC transporter&lt;br&gt;Location: 1877426 - 1875777" locus_tag="A210_RS08415" class="clusterblast-orf" id="dummy-1_h1_6_15"  />
</g>
<g id="a1_0016"  >
<polygon points="187,90 224,90 229,85 224,80 187,80 187,90 " style="fill:white; stroke-width:1; stroke:black; " description="&lt;b&gt;A210_RS08410&lt;/b&gt;&lt;br&gt;non-ribosomal peptide synthetase&lt;br&gt;Location: 1875570 - 1871362" locus_tag="A210_RS08410" class="clusterblast-orf" id="dummy-1_h1_6_16"  />
</g>
<g id="a1_0017"  >
<polygon points="229,90 233,90 238,85 233,80 229,80 229,90 " style="fill:white; stroke-width:1; stroke:black; " description="&lt;b&gt;A210_RS08405&lt;/b&gt;&lt;br&gt;formylglycine-generating enzyme family protein&lt;br&gt;Location: 1871324 - 1870446" locus_tag="A210_RS08405" class="clusterblast-orf" id="dummy-1_h1_6_17"  />
</g>
<g id="a1_0018"  >
<polygon points="239,85 244,80 263,80 263,90 244,90 239,85 " style="fill:white; stroke-width:1; stroke:black; " description="&lt;b&gt;A210_RS08400&lt;/b&gt;&lt;br&gt;TonB-dependent siderophore receptor&lt;br&gt;Location: 1870388 - 1867896" locus_tag="A210_RS08400" class="clusterblast-orf" id="dummy-1_h1_6_18"  />
</g>
<g id="a1_0019"  >
<polygon points="266,85 271,80 298,80 298,90 271,90 266,85 " style="fill:white; stroke-width:1; stroke:black; " description="&lt;b&gt;A210_RS08395&lt;/b&gt;&lt;br&gt;non-ribosomal peptide synthetase&lt;br&gt;Location: 1867587 - 1864411" locus_tag="A210_RS08395" class="clusterblast-orf" id="dummy-1_h1_6_19"  />
</g>
<g id="a1_0020"  >
<polygon points="298,85 303,80 400,80 400,90 303,90 298,85 " style="fill:white; stroke-width:1; stroke:black; " description="&lt;b&gt;A210_RS08390&lt;/b&gt;&lt;br&gt;non-ribosomal peptide synthetase&lt;br&gt;Location: 1864414 - 1854116" locus_tag="A210_RS08390" class="clusterblast-orf" id="dummy-1_h1_6_20"  />
</g>
<g id="a1_0021"  >
<polygon points="400,85 405,80 433,80 433,90 405,90 400,85 " style="fill:white; stroke-width:1; stroke:black; " description="&lt;b&gt;A210_RS08385&lt;/b&gt;&lt;br&gt;non-ribosomal peptide synthetase&lt;br&gt;Location: 1854103 - 1850714" locus_tag="A210_RS08385" class="clusterblast-orf" id="dummy-1_h1_6_21"  />
</g>
<g id="a1_0022"  >
<polygon points="433,85 438,80 589,80 589,90 438,90 433,85 " style="fill:white; stroke-width:1; stroke:black; " description="&lt;b&gt;A210_RS08380&lt;/b&gt;&lt;br&gt;non-ribosomal peptide synthetase&lt;br&gt;Location: 1850714 - 1835022" locus_tag="A210_RS08380" class="clusterblast-orf" id="dummy-1_h1_6_22"  />
</g>
<g id="a1_0023"  >
<polygon points="591,90 598,90 603,85 598,80 591,80 591,90 " style="fill:white; stroke-width:1; stroke:black; " description="&lt;b&gt;A210_RS08375&lt;/b&gt;&lt;br&gt;PepSY domain-containing protein&lt;br&gt;Location: 1834772 - 1833576" locus_tag="A210_RS08375" class="clusterblast-orf" id="dummy-1_h1_6_23"  />
</g>
<g id="a1_0024"  >
<polygon points="603,90 603,90 608,85 603,80 603,80 603,90 " style="fill:white; stroke-width:1; stroke:black; " description="&lt;b&gt;A210_RS08370&lt;/b&gt;&lt;br&gt;hypothetical protein&lt;br&gt;Location: 1833579 - 1833037" locus_tag="A210_RS08370" class="clusterblast-orf" id="dummy-1_h1_6_24"  />
</g>
<g id="a1_0025"  >
<polygon points="609,85 614,80 616,80 616,90 614,90 609,85 " style="fill:white; stroke-width:1; stroke:black; " description="&lt;b&gt;A210_RS08365&lt;/b&gt;&lt;br&gt;DUF599 family protein&lt;br&gt;Location: 1833009 - 1832260" locus_tag="A210_RS08365" class="clusterblast-orf" id="dummy-1_h1_6_25"  />
</g>
<g id="a1_0026"  >
<polygon points="618,85 623,80 631,80 631,90 623,90 618,85 " style="fill:white; stroke-width:1; stroke:black; " description="&lt;b&gt;A210_RS08360&lt;/b&gt;&lt;br&gt;branched-chain amino acid transport system II carrier protein&lt;br&gt;Location: 1832024 - 1830711" locus_tag="A210_RS08360" class="clusterblast-orf" id="dummy-1_h1_6_26"  />
</g>
<g id="a1_0027"  >
<polygon points="635,85 640,80 644,80 644,90 640,90 635,85 " style="fill:white; stroke-width:1; stroke:black; " description="&lt;b&gt;A210_RS08355&lt;/b&gt;&lt;br&gt;succinate--CoA ligase subunit alpha&lt;br&gt;Location: 1830307 - 1829423" locus_tag="A210_RS08355" class="clusterblast-orf" id="dummy-1_h1_6_27"  />
</g>
<g id="a1_0028"  >
<polygon points="644,85 649,80 656,80 656,90 649,90 644,85 " style="fill:white; stroke-width:1; stroke:black; " description="&lt;b&gt;A210_RS08350&lt;/b&gt;&lt;br&gt;ADP-forming succinate--CoA ligase subunit beta&lt;br&gt;Location: 1829423 - 1828257" locus_tag="A210_RS08350" class="clusterblast-orf" id="dummy-1_h1_6_28"  />
</g>
<g id="a1_0029"  >
<polygon points="657,85 662,80 672,80 672,90 662,90 657,85 " style="fill:white; stroke-width:1; stroke:black; " description="&lt;b&gt;A210_RS08345&lt;/b&gt;&lt;br&gt;dihydrolipoyl dehydrogenase&lt;br&gt;Location: 1828085 - 1826649" locus_tag="A210_RS08345" class="clusterblast-orf" id="dummy-1_h1_6_29"  />
</g>
<g id="a1_0030"  >
<polygon points="673,85 678,80 685,80 685,90 678,90 673,85 " style="fill:white; stroke-width:1; stroke:black; " description="&lt;b&gt;A210_RS08340&lt;/b&gt;&lt;br&gt;2-oxoglutarate dehydrogenase complex dihydrolipoyllysine-residue succinyltransferase&lt;br&gt;Location: 1826555 - 1825332" locus_tag="A210_RS08340" class="clusterblast-orf" id="dummy-1_h1_6_30"  />
</g>
<g id="a1_0031"  >
<polygon points="685,85 690,80 713,80 713,90 690,90 685,85 " style="fill:white; stroke-width:1; stroke:black; " description="&lt;b&gt;A210_RS08335&lt;/b&gt;&lt;br&gt;2-oxoglutarate dehydrogenase E1 component&lt;br&gt;Location: 1825289 - 1822458" locus_tag="A210_RS08335" class="clusterblast-orf" id="dummy-1_h1_6_31"  />
</g>
<g id="a1_0032"  >
<polygon points="716,85 721,80 723,80 723,90 721,90 716,85 " style="fill:white; stroke-width:1; stroke:black; " description="&lt;b&gt;A210_RS08330&lt;/b&gt;&lt;br&gt;succinate dehydrogenase iron-sulfur subunit&lt;br&gt;Location: 1822211 - 1821507" locus_tag="A210_RS08330" class="clusterblast-orf" id="dummy-1_h1_6_32"  />
</g>
<g id="a1_0033"  >
<polygon points="723,85 728,80 740,80 740,90 728,90 723,85 " style="fill:white; stroke-width:1; stroke:black; " description="&lt;b&gt;A210_RS08325&lt;/b&gt;&lt;br&gt;succinate dehydrogenase flavoprotein subunit&lt;br&gt;Location: 1821495 - 1819723" locus_tag="A210_RS08325" class="clusterblast-orf" id="dummy-1_h1_6_33"  />
</g>
<g id="a1_0034"  >
<polygon points="740,85 744,80 744,90 740,85 " style="fill:white; stroke-width:1; stroke:black; " description="&lt;b&gt;A210_RS08320&lt;/b&gt;&lt;br&gt;succinate dehydrogenase, hydrophobic membrane anchor protein&lt;br&gt;Location: 1819719 - 1819351" locus_tag="A210_RS08320" class="clusterblast-orf" id="dummy-1_h1_6_34"  />
</g>
<g id="a1_0035"  >
<polygon points="744,85 748,80 748,90 744,85 " style="fill:white; stroke-width:1; stroke:black; " description="&lt;b&gt;A210_RS08315&lt;/b&gt;&lt;br&gt;succinate dehydrogenase, cytochrome b556 subunit&lt;br&gt;Location: 1819357 - 1818983" locus_tag="A210_RS08315" class="clusterblast-orf" id="dummy-1_h1_6_35"  />
</g>
<g id="a1_0036"  >
<polygon points="751,90 759,90 764,85 759,80 751,80 751,90 " style="fill:white; stroke-width:1; stroke:black; " description="&lt;b&gt;A210_RS08310&lt;/b&gt;&lt;br&gt;citrate (Si)-synthase&lt;br&gt;Location: 1818618 - 1817329" locus_tag="A210_RS08310" class="clusterblast-orf" id="dummy-1_h1_6_36"  />
</g>
<g id="a1_0037"  >
<polygon points="765,85 770,80 771,80 771,90 770,90 765,85 " style="fill:white; stroke-width:1; stroke:black; " description="&lt;b&gt;A210_RS08305&lt;/b&gt;&lt;br&gt;START domain-containing protein&lt;br&gt;Location: 1817215 - 1816610" locus_tag="A210_RS08305" class="clusterblast-orf" id="dummy-1_h1_6_37"  />
</g>
<g id="a1_0038"  >
<polygon points="771,85 774,80 774,90 771,85 " style="fill:white; stroke-width:1; stroke:black; " description="&lt;b&gt;A210_RS08300&lt;/b&gt;&lt;br&gt;hypothetical protein&lt;br&gt;Location: 1816576 - 1816322" locus_tag="A210_RS08300" class="clusterblast-orf" id="dummy-1_h1_6_38"  />
</g>
<g id="a1_0039"  >
<polygon points="775,85 780,80 780,80 780,90 780,90 775,85 " style="fill:white; stroke-width:1; stroke:black; " description="&lt;b&gt;A210_RS08295&lt;/b&gt;&lt;br&gt;hypothetical protein&lt;br&gt;Location: 1816192 - 1815758" locus_tag="A210_RS08295" class="clusterblast-orf" id="dummy-1_h1_6_39"  />
</g>
</svg>
