<svg xmlns="http://www.w3.org/2000/svg" xmlns:xlink="http://www.w3.org/1999/xlink" version="1.1" x="0" y="0" height="230" width="800" viewBox="0 0 800 230" preserveAspectRatio="none"  >
<g label="Query sequence" class="clusterblast-cluster"  >
<text x="5" y="20" class="clusterblast-acc"  >
Query sequence</text>
<line x1="10" y1="35" x2="778.0" y2="35" style="stroke-width:1; stroke:grey; "  />
<polygon points="0,35 5,30 6,30 6,40 5,40 0,35 " style="fill:white; stroke-width:1; stroke:black; " description="&lt;b&gt;MCIC6FC_018480&lt;/b&gt;&lt;br&gt;hypothetical protein&lt;br&gt;Location: 40369 - 41275" locus_tag="MCIC6FC_018480" class="clusterblast-orf" id="dummy-1_q0_0_all"  />
<polygon points="9,40 19,40 24,35 19,30 9,30 9,40 " style="fill:white; stroke-width:1; stroke:black; " description="&lt;b&gt;MCIC6FC_018481&lt;/b&gt;&lt;br&gt;hypothetical protein&lt;br&gt;Location: 41686 - 43743" locus_tag="MCIC6FC_018481" class="clusterblast-orf" id="dummy-1_q1_0_all"  />
<polygon points="25,35 30,30 42,30 42,40 30,40 25,35 " style="fill:#d81515; stroke-width:1; stroke:black; " description="&lt;b&gt;MCIC6FC_018482&lt;/b&gt;&lt;br&gt;hypothetical protein&lt;br&gt;Location: 43880 - 46147" locus_tag="MCIC6FC_018482" class="clusterblast-orf" id="dummy-1_q2_0_all"  />
<polygon points="42,40 44,40 49,35 44,30 42,30 42,40 " style="fill:#54d815; stroke-width:1; stroke:black; " description="&lt;b&gt;MCIC6FC_018483&lt;/b&gt;&lt;br&gt;hypothetical protein&lt;br&gt;Location: 46260 - 47154" locus_tag="MCIC6FC_018483" class="clusterblast-orf" id="dummy-1_q3_0_all"  />
<polygon points="50,35 55,30 67,30 67,40 55,40 50,35 " style="fill:#15c1d8; stroke-width:1; stroke:black; " description="&lt;b&gt;MCIC6FC_018484&lt;/b&gt;&lt;br&gt;hypothetical protein&lt;br&gt;Location: 47233 - 49612" locus_tag="MCIC6FC_018484" class="clusterblast-orf" id="dummy-1_q4_0_all"  />
<polygon points="67,35 72,30 77,30 77,40 72,40 67,35 " style="fill:#8215d8; stroke-width:1; stroke:black; " description="&lt;b&gt;MCIC6FC_018485&lt;/b&gt;&lt;br&gt;hypothetical protein&lt;br&gt;Location: 49634 - 50993" locus_tag="MCIC6FC_018485" class="clusterblast-orf" id="dummy-1_q5_0_all"  />
<polygon points="78,40 79,40 84,35 79,30 78,30 78,40 " style="fill:#d84415; stroke-width:1; stroke:black; " description="&lt;b&gt;MCIC6FC_018486&lt;/b&gt;&lt;br&gt;hypothetical protein&lt;br&gt;Location: 51132 - 52029" locus_tag="MCIC6FC_018486" class="clusterblast-orf" id="dummy-1_q6_0_all"  />
<polygon points="85,40 96,40 101,35 96,30 85,30 85,40 " style="fill:#25d815; stroke-width:1; stroke:black; " description="&lt;b&gt;MCIC6FC_018487&lt;/b&gt;&lt;br&gt;hypothetical protein&lt;br&gt;Location: 52166 - 54331" locus_tag="MCIC6FC_018487" class="clusterblast-orf" id="dummy-1_q7_0_all"  />
<polygon points="102,35 107,30 109,30 109,40 107,40 102,35 " style="fill:#1592d8; stroke-width:1; stroke:black; " description="&lt;b&gt;MCIC6FC_018488&lt;/b&gt;&lt;br&gt;hypothetical protein&lt;br&gt;Location: 54373 - 55450" locus_tag="MCIC6FC_018488" class="clusterblast-orf" id="dummy-1_q8_0_all"  />
<polygon points="110,40 111,40 116,35 111,30 110,30 110,40 " style="fill:#b115d8; stroke-width:1; stroke:black; " description="&lt;b&gt;MCIC6FC_018489&lt;/b&gt;&lt;br&gt;hypothetical protein&lt;br&gt;Location: 55551 - 56322" locus_tag="MCIC6FC_018489" class="clusterblast-orf" id="dummy-1_q9_0_all"  />
<polygon points="116,35 121,30 123,30 123,40 121,40 116,35 " style="fill:#d87315; stroke-width:1; stroke:black; " description="&lt;b&gt;MCIC6FC_018490&lt;/b&gt;&lt;br&gt;hypothetical protein&lt;br&gt;Location: 56326 - 57332" locus_tag="MCIC6FC_018490" class="clusterblast-orf" id="dummy-1_q10_0_all"  />
<polygon points="124,40 134,40 139,35 134,30 124,30 124,40 " style="fill:#15d834; stroke-width:1; stroke:black; " description="&lt;b&gt;MCIC6FC_018491&lt;/b&gt;&lt;br&gt;hypothetical protein&lt;br&gt;Location: 57455 - 59520" locus_tag="MCIC6FC_018491" class="clusterblast-orf" id="dummy-1_q11_0_all"  />
<polygon points="140,35 145,30 162,30 162,40 145,40 140,35 " style="fill:#1563d8; stroke-width:1; stroke:black; " description="&lt;b&gt;MCIC6FC_018492&lt;/b&gt;&lt;br&gt;hypothetical protein&lt;br&gt;Location: 59589 - 62673" locus_tag="MCIC6FC_018492" class="clusterblast-orf" id="dummy-1_q12_0_all"  />
<polygon points="163,35 168,30 342,30 342,40 168,40 163,35 " style="fill:#d815d0; stroke-width:1; stroke:black; " description="&lt;b&gt;MCIC6FC_018493&lt;/b&gt;&lt;br&gt;hypothetical protein&lt;br&gt;Location: 62865 - 87322" locus_tag="MCIC6FC_018493" class="clusterblast-orf" id="dummy-1_q13_0_all"  />
<polygon points="343,35 348,30 355,30 355,40 348,40 343,35 " style="fill:#d8a215; stroke-width:1; stroke:black; " description="&lt;b&gt;MCIC6FC_018494&lt;/b&gt;&lt;br&gt;hypothetical protein&lt;br&gt;Location: 87575 - 89201" locus_tag="MCIC6FC_018494" class="clusterblast-orf" id="dummy-1_q14_0_all"  />
<polygon points="356,40 377,40 382,35 377,30 356,30 356,40 " style="fill:#15d863; stroke-width:1; stroke:black; " description="&lt;b&gt;MCIC6FC_018495&lt;/b&gt;&lt;br&gt;hypothetical protein&lt;br&gt;Location: 89338 - 92879" locus_tag="MCIC6FC_018495" class="clusterblast-orf" id="dummy-1_q15_0_all"  />
<polygon points="383,35 388,30 389,30 389,40 388,40 383,35 " style="fill:#1534d8; stroke-width:1; stroke:black; " description="&lt;b&gt;MCIC6FC_018496&lt;/b&gt;&lt;br&gt;hypothetical protein&lt;br&gt;Location: 93004 - 93837" locus_tag="MCIC6FC_018496" class="clusterblast-orf" id="dummy-1_q16_0_all"  />
<polygon points="390,40 397,40 402,35 397,30 390,30 390,40 " style="fill:#d815a2; stroke-width:1; stroke:black; " description="&lt;b&gt;MCIC6FC_018497&lt;/b&gt;&lt;br&gt;hypothetical protein&lt;br&gt;Location: 94038 - 95691" locus_tag="MCIC6FC_018497" class="clusterblast-orf" id="dummy-1_q17_0_all"  />
<polygon points="404,40 416,40 421,35 416,30 404,30 404,40 " style="fill:#d8d015; stroke-width:1; stroke:black; " description="&lt;b&gt;MCIC6FC_018498&lt;/b&gt;&lt;br&gt;hypothetical protein&lt;br&gt;Location: 95846 - 98231" locus_tag="MCIC6FC_018498" class="clusterblast-orf" id="dummy-1_q18_0_all"  />
<polygon points="422,35 427,30 554,30 554,40 427,40 422,35 " style="fill:#d815d0; stroke-width:1; stroke:black; " description="&lt;b&gt;MCIC6FC_018499&lt;/b&gt;&lt;br&gt;hypothetical protein&lt;br&gt;Location: 98383 - 116494" locus_tag="MCIC6FC_018499" class="clusterblast-orf" id="dummy-1_q19_0_all"  />
<polygon points="555,35 560,30 646,30 646,40 560,40 555,35 " style="fill:#d815d0; stroke-width:1; stroke:black; " description="&lt;b&gt;MCIC6FC_018500&lt;/b&gt;&lt;br&gt;hypothetical protein&lt;br&gt;Location: 116593 - 129094" locus_tag="MCIC6FC_018500" class="clusterblast-orf" id="dummy-1_q20_0_all"  />
<polygon points="646,35 651,30 664,30 664,40 651,40 646,35 " style="fill:#15d892; stroke-width:1; stroke:black; " description="&lt;b&gt;MCIC6FC_018501&lt;/b&gt;&lt;br&gt;hypothetical protein&lt;br&gt;Location: 129176 - 131553" locus_tag="MCIC6FC_018501" class="clusterblast-orf" id="dummy-1_q21_0_all"  />
<polygon points="664,35 669,30 674,30 674,40 669,40 664,35 " style="fill:#2515d8; stroke-width:1; stroke:black; " description="&lt;b&gt;MCIC6FC_018502&lt;/b&gt;&lt;br&gt;hypothetical protein&lt;br&gt;Location: 131556 - 132906" locus_tag="MCIC6FC_018502" class="clusterblast-orf" id="dummy-1_q22_0_all"  />
<polygon points="674,35 679,30 683,30 683,40 679,40 674,35 " style="fill:#d81573; stroke-width:1; stroke:black; " description="&lt;b&gt;MCIC6FC_018503&lt;/b&gt;&lt;br&gt;hypothetical protein&lt;br&gt;Location: 132965 - 134195" locus_tag="MCIC6FC_018503" class="clusterblast-orf" id="dummy-1_q23_0_all"  />
<polygon points="685,40 692,40 697,35 692,30 685,30 685,40 " style="fill:#b1d815; stroke-width:1; stroke:black; " description="&lt;b&gt;MCIC6FC_018504&lt;/b&gt;&lt;br&gt;hypothetical protein&lt;br&gt;Location: 134427 - 136068" locus_tag="MCIC6FC_018504" class="clusterblast-orf" id="dummy-1_q24_0_all"  />
<polygon points="697,35 702,30 702,30 702,40 702,40 697,35 " style="fill:#15d8c1; stroke-width:1; stroke:black; " description="&lt;b&gt;MCIC6FC_018505&lt;/b&gt;&lt;br&gt;hypothetical protein&lt;br&gt;Location: 136093 - 136805" locus_tag="MCIC6FC_018505" class="clusterblast-orf" id="dummy-1_q25_0_all"  />
<polygon points="703,40 708,40 713,35 708,30 703,30 703,40 " style="fill:#5415d8; stroke-width:1; stroke:black; " description="&lt;b&gt;MCIC6FC_018506&lt;/b&gt;&lt;br&gt;hypothetical protein&lt;br&gt;Location: 136909 - 138265" locus_tag="MCIC6FC_018506" class="clusterblast-orf" id="dummy-1_q26_0_all"  />
<polygon points="714,40 729,40 734,35 729,30 714,30 714,40 " style="fill:#d81544; stroke-width:1; stroke:black; " description="&lt;b&gt;MCIC6FC_018507&lt;/b&gt;&lt;br&gt;hypothetical protein&lt;br&gt;Location: 138444 - 141153" locus_tag="MCIC6FC_018507" class="clusterblast-orf" id="dummy-1_q27_0_all"  />
<polygon points="734,35 739,30 749,30 749,40 739,40 734,35 " style="fill:#d815a2; stroke-width:1; stroke:black; " description="&lt;b&gt;MCIC6FC_018508&lt;/b&gt;&lt;br&gt;hypothetical protein&lt;br&gt;Location: 141248 - 143227" locus_tag="MCIC6FC_018508" class="clusterblast-orf" id="dummy-1_q28_0_all"  />
<polygon points="749,35 754,30 780,30 780,40 754,40 749,35 " style="fill:#82d815; stroke-width:1; stroke:black; " description="&lt;b&gt;MCIC6FC_018509&lt;/b&gt;&lt;br&gt;hypothetical protein&lt;br&gt;Location: 143237 - 147464" locus_tag="MCIC6FC_018509" class="clusterblast-orf" id="dummy-1_q29_0_all"  />
</g>
<g label="NC_012660" description="NC_012660 (2735554-2836556): Pseudomonas fluorescens SBW25, complete genome (70% of genes show similarity), NRPS" class="clusterblast-cluster"  >
<text x="5" y="70" class="clusterblast-acc"  >
<a xlink:href="https://antismash-db.secondarymetabolites.org/area.html?record=NC_012660&amp;start=2735554&amp;end=2836556" target="_blank">NC_012660 (2735554-2836556)</a>: Pseudomonas fluorescens SBW25, complete genome (70% of genes show similarity), NRPS</text>
<line x1="10" y1="85" x2="778.0" y2="85" style="stroke-width:1; stroke:grey; "  />
</g>
<g id="a1_000"  >
<polygon points="22,85 25,80 25,90 22,85 " style="fill:#d81515; stroke-width:1; stroke:black; " description="&lt;b&gt;PFLU_RS12560&lt;/b&gt;&lt;br&gt;SRPBCC family protein&lt;br&gt;Location: 2836556 - 2836140&lt;br&gt;&lt;br&gt;&lt;b&gt;BlastP hit with MCIC6FC_018482&lt;/b&gt;&lt;br&gt;Percentage identity: 91&lt;br&gt;Percentage coverage: 19&lt;br&gt;BLAST bit score: 251&lt;br&gt;E-value: 3e-64" locus_tag="PFLU_RS12560" class="clusterblast-orf" id="dummy-1_h1_6_0"  />
</g>
<g id="a1_001"  >
<polygon points="25,85 30,80 31,80 31,90 30,90 25,85 " style="fill:#d81515; stroke-width:1; stroke:black; " description="&lt;b&gt;PFLU_RS12555&lt;/b&gt;&lt;br&gt;SDR family oxidoreductase&lt;br&gt;Location: 2836110 - 2835313&lt;br&gt;&lt;br&gt;&lt;b&gt;BlastP hit with MCIC6FC_018482&lt;/b&gt;&lt;br&gt;Percentage identity: 94&lt;br&gt;Percentage coverage: 36&lt;br&gt;BLAST bit score: 451&lt;br&gt;E-value: 1.5e-124" locus_tag="PFLU_RS12555" class="clusterblast-orf" id="dummy-1_h1_6_1"  />
</g>
<g id="a1_002"  >
<polygon points="31,85 36,80 38,80 38,90 36,90 31,85 " style="fill:#d81515; stroke-width:1; stroke:black; " description="&lt;b&gt;PFLU_RS12550&lt;/b&gt;&lt;br&gt;aldo/keto reductase&lt;br&gt;Location: 2835295 - 2834291&lt;br&gt;&lt;br&gt;&lt;b&gt;BlastP hit with MCIC6FC_018482&lt;/b&gt;&lt;br&gt;Percentage identity: 90&lt;br&gt;Percentage coverage: 47&lt;br&gt;BLAST bit score: 594&lt;br&gt;E-value: 1.1e-167" locus_tag="PFLU_RS12550" class="clusterblast-orf" id="dummy-1_h1_6_2"  />
</g>
<g id="a1_003"  >
<polygon points="39,90 41,90 46,85 41,80 39,80 39,90 " style="fill:#54d815; stroke-width:1; stroke:black; " description="&lt;b&gt;PFLU_RS12545&lt;/b&gt;&lt;br&gt;LysR family transcriptional regulator&lt;br&gt;Location: 2834163 - 2833270&lt;br&gt;&lt;br&gt;&lt;b&gt;BlastP hit with MCIC6FC_018483&lt;/b&gt;&lt;br&gt;Percentage identity: 94&lt;br&gt;Percentage coverage: 100&lt;br&gt;BLAST bit score: 562&lt;br&gt;E-value: 3.4e-158" locus_tag="PFLU_RS12545" class="clusterblast-orf" id="dummy-1_h1_6_3"  />
</g>
<g id="a1_004"  >
<polygon points="47,90 51,90 56,85 51,80 47,80 47,90 " style="fill:white; stroke-width:1; stroke:black; " description="&lt;b&gt;PFLU_RS30755&lt;/b&gt;&lt;br&gt;hypothetical protein&lt;br&gt;Location: 2833143 - 2831887" locus_tag="PFLU_RS30755" class="clusterblast-orf" id="dummy-1_h1_6_4"  />
</g>
<g id="a1_005"  >
<polygon points="59,85 64,80 68,80 68,90 64,90 59,85 " style="fill:#15c1d8; stroke-width:1; stroke:black; " description="&lt;b&gt;PFLU_RS12540&lt;/b&gt;&lt;br&gt;FAD-binding oxidoreductase&lt;br&gt;Location: 2831449 - 2830154&lt;br&gt;&lt;br&gt;&lt;b&gt;BlastP hit with MCIC6FC_018484&lt;/b&gt;&lt;br&gt;Percentage identity: 94&lt;br&gt;Percentage coverage: 55&lt;br&gt;BLAST bit score: 825&lt;br&gt;E-value: 4.3e-237" locus_tag="PFLU_RS12540" class="clusterblast-orf" id="dummy-1_h1_6_5"  />
</g>
<g id="a1_006"  >
<polygon points="68,85 73,80 76,80 76,90 73,90 68,85 " style="fill:#15c1d8; stroke-width:1; stroke:black; " description="&lt;b&gt;PFLU_RS12535&lt;/b&gt;&lt;br&gt;polyamine ABC transporter substrate-binding protein&lt;br&gt;Location: 2830157 - 2829069&lt;br&gt;&lt;br&gt;&lt;b&gt;BlastP hit with MCIC6FC_018484&lt;/b&gt;&lt;br&gt;Percentage identity: 95&lt;br&gt;Percentage coverage: 46&lt;br&gt;BLAST bit score: 686&lt;br&gt;E-value: 2.4e-195" locus_tag="PFLU_RS12535" class="clusterblast-orf" id="dummy-1_h1_6_6"  />
</g>
<g id="a1_007"  >
<polygon points="78,90 79,90 84,85 79,80 78,80 78,90 " style="fill:#d84415; stroke-width:1; stroke:black; " description="&lt;b&gt;PFLU_RS12530&lt;/b&gt;&lt;br&gt;helix-turn-helix domain-containing protein&lt;br&gt;Location: 2828859 - 2827972&lt;br&gt;&lt;br&gt;&lt;b&gt;BlastP hit with MCIC6FC_018486&lt;/b&gt;&lt;br&gt;Percentage identity: 91&lt;br&gt;Percentage coverage: 100&lt;br&gt;BLAST bit score: 549&lt;br&gt;E-value: 3e-154" locus_tag="PFLU_RS12530" class="clusterblast-orf" id="dummy-1_h1_6_7"  />
</g>
<g id="a1_008"  >
<polygon points="85,90 96,90 101,85 96,80 85,80 85,90 " style="fill:#25d815; stroke-width:1; stroke:black; " description="&lt;b&gt;PFLU_RS12525&lt;/b&gt;&lt;br&gt;TonB-dependent siderophore receptor&lt;br&gt;Location: 2827884 - 2825722&lt;br&gt;&lt;br&gt;&lt;b&gt;BlastP hit with MCIC6FC_018487&lt;/b&gt;&lt;br&gt;Percentage identity: 92&lt;br&gt;Percentage coverage: 103&lt;br&gt;BLAST bit score: 1307&lt;br&gt;E-value: 0.0" locus_tag="PFLU_RS12525" class="clusterblast-orf" id="dummy-1_h1_6_8"  />
</g>
<g id="a1_009"  >
<polygon points="101,85 104,80 104,90 101,85 " style="fill:#d87315; stroke-width:1; stroke:black; " description="&lt;b&gt;PFLU_RS12520&lt;/b&gt;&lt;br&gt;carboxymuconolactone decarboxylase family protein&lt;br&gt;Location: 2825718 - 2825281&lt;br&gt;&lt;br&gt;&lt;b&gt;BlastP hit with MCIC6FC_018490&lt;/b&gt;&lt;br&gt;Percentage identity: 95&lt;br&gt;Percentage coverage: 47&lt;br&gt;BLAST bit score: 272&lt;br&gt;E-value: 4.2e-71" locus_tag="PFLU_RS12520" class="clusterblast-orf" id="dummy-1_h1_6_9"  />
</g>
<g id="a1_0010"  >
<polygon points="107,85 110,80 110,90 107,85 " style="fill:#d87315; stroke-width:1; stroke:black; " description="&lt;b&gt;PFLU_RS12515&lt;/b&gt;&lt;br&gt;Lrp/AsnC family transcriptional regulator&lt;br&gt;Location: 2824846 - 2824376&lt;br&gt;&lt;br&gt;&lt;b&gt;BlastP hit with MCIC6FC_018490&lt;/b&gt;&lt;br&gt;Percentage identity: 96&lt;br&gt;Percentage coverage: 50&lt;br&gt;BLAST bit score: 291&lt;br&gt;E-value: 8.8e-77" locus_tag="PFLU_RS12515" class="clusterblast-orf" id="dummy-1_h1_6_10"  />
</g>
<g id="a1_0011"  >
<polygon points="111,90 115,90 120,85 115,80 111,80 111,90 " style="fill:#15d834; stroke-width:1; stroke:black; " description="&lt;b&gt;PFLU_RS12510&lt;/b&gt;&lt;br&gt;methionine gamma-lyase&lt;br&gt;Location: 2824252 - 2823017&lt;br&gt;&lt;br&gt;&lt;b&gt;BlastP hit with MCIC6FC_018491&lt;/b&gt;&lt;br&gt;Percentage identity: 94&lt;br&gt;Percentage coverage: 63&lt;br&gt;BLAST bit score: 768&lt;br&gt;E-value: 5.2e-220" locus_tag="PFLU_RS12510" class="clusterblast-orf" id="dummy-1_h1_6_11"  />
</g>
<g id="a1_0012"  >
<polygon points="121,90 121,90 126,85 121,80 121,80 121,90 " style="fill:#15d834; stroke-width:1; stroke:black; " description="&lt;b&gt;PFLU_RS12505&lt;/b&gt;&lt;br&gt;helix-turn-helix transcriptional regulator&lt;br&gt;Location: 2822861 - 2822190&lt;br&gt;&lt;br&gt;&lt;b&gt;BlastP hit with MCIC6FC_018491&lt;/b&gt;&lt;br&gt;Percentage identity: 92&lt;br&gt;Percentage coverage: 34&lt;br&gt;BLAST bit score: 399&lt;br&gt;E-value: 6.3e-109" locus_tag="PFLU_RS12505" class="clusterblast-orf" id="dummy-1_h1_6_12"  />
</g>
<g id="a1_0013"  >
<polygon points="127,85 132,80 141,80 141,90 132,90 127,85 " style="fill:#1563d8; stroke-width:1; stroke:black; " description="&lt;b&gt;PFLU_RS12500&lt;/b&gt;&lt;br&gt;MacB family efflux pump subunit&lt;br&gt;Location: 2822119 - 2820161&lt;br&gt;&lt;br&gt;&lt;b&gt;BlastP hit with MCIC6FC_018492&lt;/b&gt;&lt;br&gt;Percentage identity: 99&lt;br&gt;Percentage coverage: 64&lt;br&gt;BLAST bit score: 1221&lt;br&gt;E-value: 0.0" locus_tag="PFLU_RS12500" class="clusterblast-orf" id="dummy-1_h1_6_13"  />
</g>
<g id="a1_0014"  >
<polygon points="141,85 146,80 150,80 150,90 146,90 141,85 " style="fill:#1563d8; stroke-width:1; stroke:black; " description="&lt;b&gt;PFLU_RS12495&lt;/b&gt;&lt;br&gt;macrolide transporter subunit MacA&lt;br&gt;Location: 2820157 - 2819006&lt;br&gt;&lt;br&gt;&lt;b&gt;BlastP hit with MCIC6FC_018492&lt;/b&gt;&lt;br&gt;Percentage identity: 97&lt;br&gt;Percentage coverage: 36&lt;br&gt;BLAST bit score: 678&lt;br&gt;E-value: 1.4e-192" locus_tag="PFLU_RS12495" class="clusterblast-orf" id="dummy-1_h1_6_14"  />
</g>
<g id="a1_0015"  >
<polygon points="157,85 162,80 240,80 240,90 162,90 157,85 " style="fill:#d815d0; stroke-width:1; stroke:black; " description="&lt;b&gt;PFLU_RS12485&lt;/b&gt;&lt;br&gt;amino acid adenylation domain-containing protein&lt;br&gt;Location: 2817948 - 2806627&lt;br&gt;&lt;br&gt;&lt;b&gt;BlastP hit with MCIC6FC_018493&lt;/b&gt;&lt;br&gt;Percentage identity: 90&lt;br&gt;Percentage coverage: 46&lt;br&gt;BLAST bit score: 6624&lt;br&gt;E-value: 0.0&lt;br&gt;&lt;br&gt;&lt;b&gt;BlastP hit with MCIC6FC_018499&lt;/b&gt;&lt;br&gt;Percentage identity: 37&lt;br&gt;Percentage coverage: 55&lt;br&gt;BLAST bit score: 1708&lt;br&gt;E-value: 0.0&lt;br&gt;&lt;br&gt;&lt;b&gt;BlastP hit with MCIC6FC_018500&lt;/b&gt;&lt;br&gt;Percentage identity: 39&lt;br&gt;Percentage coverage: 55&lt;br&gt;BLAST bit score: 1264&lt;br&gt;E-value: 0.0" locus_tag="PFLU_RS12485" class="clusterblast-orf" id="dummy-1_h1_6_15"  />
</g>
<g id="a1_0016"  >
<polygon points="240,85 245,80 333,80 333,90 245,90 240,85 " style="fill:#d815d0; stroke-width:1; stroke:black; " description="&lt;b&gt;PFLU_RS12480&lt;/b&gt;&lt;br&gt;non-ribosomal peptide synthetase&lt;br&gt;Location: 2806630 - 2793770&lt;br&gt;&lt;br&gt;&lt;b&gt;BlastP hit with MCIC6FC_018493&lt;/b&gt;&lt;br&gt;Percentage identity: 89&lt;br&gt;Percentage coverage: 53&lt;br&gt;BLAST bit score: 7473&lt;br&gt;E-value: 0.0&lt;br&gt;&lt;br&gt;&lt;b&gt;BlastP hit with MCIC6FC_018499&lt;/b&gt;&lt;br&gt;Percentage identity: 35&lt;br&gt;Percentage coverage: 74&lt;br&gt;BLAST bit score: 1990&lt;br&gt;E-value: 0.0" locus_tag="PFLU_RS12480" class="clusterblast-orf" id="dummy-1_h1_6_16"  />
</g>
<g id="a1_0017"  >
<polygon points="337,85 342,80 348,80 348,90 342,90 337,85 " style="fill:#d8a215; stroke-width:1; stroke:black; " description="&lt;b&gt;PFLU_RS12475&lt;/b&gt;&lt;br&gt;hypothetical protein&lt;br&gt;Location: 2793315 - 2791690&lt;br&gt;&lt;br&gt;&lt;b&gt;BlastP hit with MCIC6FC_018494&lt;/b&gt;&lt;br&gt;Percentage identity: 97&lt;br&gt;Percentage coverage: 100&lt;br&gt;BLAST bit score: 1124&lt;br&gt;E-value: 0.0" locus_tag="PFLU_RS12475" class="clusterblast-orf" id="dummy-1_h1_6_17"  />
</g>
<g id="a1_0018"  >
<polygon points="350,90 354,90 359,85 354,80 350,80 350,90 " style="fill:#15d863; stroke-width:1; stroke:black; " description="&lt;b&gt;PFLU_RS12470&lt;/b&gt;&lt;br&gt;pyoverdine-tailoring dipeptidase-like protein PvdM&lt;br&gt;Location: 2791547 - 2790198&lt;br&gt;&lt;br&gt;&lt;b&gt;BlastP hit with MCIC6FC_018495&lt;/b&gt;&lt;br&gt;Percentage identity: 97&lt;br&gt;Percentage coverage: 38&lt;br&gt;BLAST bit score: 877&lt;br&gt;E-value: 1.4e-252" locus_tag="PFLU_RS12470" class="clusterblast-orf" id="dummy-1_h1_6_18"  />
</g>
<g id="a1_0019"  >
<polygon points="359,90 364,90 369,85 364,80 359,80 359,90 " style="fill:#15d863; stroke-width:1; stroke:black; " description="&lt;b&gt;PFLU_RS12465&lt;/b&gt;&lt;br&gt;aminotransferase class V-fold PLP-dependent enzyme&lt;br&gt;Location: 2790179 - 2788908&lt;br&gt;&lt;br&gt;&lt;b&gt;BlastP hit with MCIC6FC_018495&lt;/b&gt;&lt;br&gt;Percentage identity: 93&lt;br&gt;Percentage coverage: 37&lt;br&gt;BLAST bit score: 805&lt;br&gt;E-value: 8.9e-231" locus_tag="PFLU_RS12465" class="clusterblast-orf" id="dummy-1_h1_6_19"  />
</g>
<g id="a1_0020"  >
<polygon points="369,90 370,90 375,85 370,80 369,80 369,90 " style="fill:#15d863; stroke-width:1; stroke:black; " description="&lt;b&gt;PFLU_RS12460&lt;/b&gt;&lt;br&gt;formylglycine-generating enzyme family protein&lt;br&gt;Location: 2788873 - 2788013&lt;br&gt;&lt;br&gt;&lt;b&gt;BlastP hit with MCIC6FC_018495&lt;/b&gt;&lt;br&gt;Percentage identity: 98&lt;br&gt;Percentage coverage: 25&lt;br&gt;BLAST bit score: 602&lt;br&gt;E-value: 6.7e-170" locus_tag="PFLU_RS12460" class="clusterblast-orf" id="dummy-1_h1_6_20"  />
</g>
<g id="a1_0021"  >
<polygon points="385,85 390,80 391,80 391,90 390,90 385,85 " style="fill:#1534d8; stroke-width:1; stroke:black; " description="&lt;b&gt;PFLU_RS12455&lt;/b&gt;&lt;br&gt;N(5)-hydroxyornithine transformylase PvdF&lt;br&gt;Location: 2786706 - 2785876&lt;br&gt;&lt;br&gt;&lt;b&gt;BlastP hit with MCIC6FC_018496&lt;/b&gt;&lt;br&gt;Percentage identity: 92&lt;br&gt;Percentage coverage: 107&lt;br&gt;BLAST bit score: 505&lt;br&gt;E-value: 2.5e-141" locus_tag="PFLU_RS12455" class="clusterblast-orf" id="dummy-1_h1_6_21"  />
</g>
<g id="a1_0022"  >
<polygon points="392,90 399,90 404,85 399,80 392,80 392,90 " style="fill:#d815a2; stroke-width:1; stroke:black; " description="&lt;b&gt;PFLU_RS12450&lt;/b&gt;&lt;br&gt;cyclic peptide export ABC transporter&lt;br&gt;Location: 2785675 - 2784023&lt;br&gt;&lt;br&gt;&lt;b&gt;BlastP hit with MCIC6FC_018497&lt;/b&gt;&lt;br&gt;Percentage identity: 90&lt;br&gt;Percentage coverage: 100&lt;br&gt;BLAST bit score: 974&lt;br&gt;E-value: 4e-282" locus_tag="PFLU_RS12450" class="clusterblast-orf" id="dummy-1_h1_6_22"  />
</g>
<g id="a1_0023"  >
<polygon points="405,90 418,90 423,85 418,80 405,80 405,90 " style="fill:#d8d015; stroke-width:1; stroke:black; " description="&lt;b&gt;PFLU_RS12445&lt;/b&gt;&lt;br&gt;TonB-dependent siderophore receptor&lt;br&gt;Location: 2783912 - 2781477&lt;br&gt;&lt;br&gt;&lt;b&gt;BlastP hit with MCIC6FC_018498&lt;/b&gt;&lt;br&gt;Percentage identity: 60&lt;br&gt;Percentage coverage: 104&lt;br&gt;BLAST bit score: 932&lt;br&gt;E-value: 2.4e-269" locus_tag="PFLU_RS12445" class="clusterblast-orf" id="dummy-1_h1_6_23"  />
</g>
<g id="a1_0024"  >
<polygon points="424,85 429,80 510,80 510,90 429,90 424,85 " style="fill:#d815d0; stroke-width:1; stroke:black; " description="&lt;b&gt;PFLU_RS12440&lt;/b&gt;&lt;br&gt;non-ribosomal peptide synthetase&lt;br&gt;Location: 2781318 - 2769469&lt;br&gt;&lt;br&gt;&lt;b&gt;BlastP hit with MCIC6FC_018493&lt;/b&gt;&lt;br&gt;Percentage identity: 33&lt;br&gt;Percentage coverage: 46&lt;br&gt;BLAST bit score: 1553&lt;br&gt;E-value: 0.0&lt;br&gt;&lt;br&gt;&lt;b&gt;BlastP hit with MCIC6FC_018499&lt;/b&gt;&lt;br&gt;Percentage identity: 60&lt;br&gt;Percentage coverage: 66&lt;br&gt;BLAST bit score: 4306&lt;br&gt;E-value: 0.0&lt;br&gt;&lt;br&gt;&lt;b&gt;BlastP hit with MCIC6FC_018500&lt;/b&gt;&lt;br&gt;Percentage identity: 61&lt;br&gt;Percentage coverage: 54&lt;br&gt;BLAST bit score: 2414&lt;br&gt;E-value: 0.0" locus_tag="PFLU_RS12440" class="clusterblast-orf" id="dummy-1_h1_6_24"  />
</g>
<g id="a1_0025"  >
<polygon points="510,85 515,80 613,80 613,90 515,90 510,85 " style="fill:#d815d0; stroke-width:1; stroke:black; " description="&lt;b&gt;PFLU_RS12435&lt;/b&gt;&lt;br&gt;non-ribosomal peptide synthetase&lt;br&gt;Location: 2769465 - 2755426&lt;br&gt;&lt;br&gt;&lt;b&gt;BlastP hit with MCIC6FC_018493&lt;/b&gt;&lt;br&gt;Percentage identity: 34&lt;br&gt;Percentage coverage: 59&lt;br&gt;BLAST bit score: 2101&lt;br&gt;E-value: 0.0&lt;br&gt;&lt;br&gt;&lt;b&gt;BlastP hit with MCIC6FC_018499&lt;/b&gt;&lt;br&gt;Percentage identity: 60&lt;br&gt;Percentage coverage: 79&lt;br&gt;BLAST bit score: 5318&lt;br&gt;E-value: 0.0&lt;br&gt;&lt;br&gt;&lt;b&gt;BlastP hit with MCIC6FC_018500&lt;/b&gt;&lt;br&gt;Percentage identity: 60&lt;br&gt;Percentage coverage: 119&lt;br&gt;BLAST bit score: 5114&lt;br&gt;E-value: 0.0" locus_tag="PFLU_RS12435" class="clusterblast-orf" id="dummy-1_h1_6_25"  />
</g>
<g id="a1_0026"  >
<polygon points="614,90 616,85 614,80 614,90 " style="fill:white; stroke-width:1; stroke:black; " description="&lt;b&gt;PFLU_RS12430&lt;/b&gt;&lt;br&gt;type II toxin-antitoxin system HicA family toxin&lt;br&gt;Location: 2755216 - 2754965" locus_tag="PFLU_RS12430" class="clusterblast-orf" id="dummy-1_h1_6_26"  />
</g>
<g id="a1_0027"  >
<polygon points="616,90 619,85 616,80 616,90 " style="fill:white; stroke-width:1; stroke:black; " description="&lt;b&gt;PFLU_RS12425&lt;/b&gt;&lt;br&gt;type II toxin-antitoxin system HicB family antitoxin&lt;br&gt;Location: 2754968 - 2754603" locus_tag="PFLU_RS12425" class="clusterblast-orf" id="dummy-1_h1_6_27"  />
</g>
<g id="a1_0028"  >
<polygon points="619,85 624,80 627,80 627,90 624,90 619,85 " style="fill:white; stroke-width:1; stroke:black; " description="&lt;b&gt;PFLU_RS12420&lt;/b&gt;&lt;br&gt;MFS transporter&lt;br&gt;Location: 2754602 - 2753430" locus_tag="PFLU_RS12420" class="clusterblast-orf" id="dummy-1_h1_6_28"  />
</g>
<g id="a1_0029"  >
<polygon points="628,90 632,85 628,80 628,90 " style="fill:white; stroke-width:1; stroke:black; " description="&lt;b&gt;PFLU_RS12415&lt;/b&gt;&lt;br&gt;TetR/AcrR family transcriptional regulator&lt;br&gt;Location: 2753289 - 2752702" locus_tag="PFLU_RS12415" class="clusterblast-orf" id="dummy-1_h1_6_29"  />
</g>
<g id="a1_0030"  >
<polygon points="632,85 637,80 642,80 642,90 637,90 632,85 " style="fill:#15d892; stroke-width:1; stroke:black; " description="&lt;b&gt;PFLU_RS12410&lt;/b&gt;&lt;br&gt;MATE family efflux transporter&lt;br&gt;Location: 2752718 - 2751363&lt;br&gt;&lt;br&gt;&lt;b&gt;BlastP hit with MCIC6FC_018501&lt;/b&gt;&lt;br&gt;Percentage identity: 99&lt;br&gt;Percentage coverage: 58&lt;br&gt;BLAST bit score: 824&lt;br&gt;E-value: 7.2e-237" locus_tag="PFLU_RS12410" class="clusterblast-orf" id="dummy-1_h1_6_30"  />
</g>
<g id="a1_0031"  >
<polygon points="643,85 648,80 650,80 650,90 648,90 643,85 " style="fill:#15d892; stroke-width:1; stroke:black; " description="&lt;b&gt;PFLU_RS12405&lt;/b&gt;&lt;br&gt;ATP-dependent Clp protease ATP-binding subunit&lt;br&gt;Location: 2751307 - 2750342&lt;br&gt;&lt;br&gt;&lt;b&gt;BlastP hit with MCIC6FC_018501&lt;/b&gt;&lt;br&gt;Percentage identity: 93&lt;br&gt;Percentage coverage: 41&lt;br&gt;BLAST bit score: 569&lt;br&gt;E-value: 7.2e-160" locus_tag="PFLU_RS12405" class="clusterblast-orf" id="dummy-1_h1_6_31"  />
</g>
<g id="a1_0032"  >
<polygon points="650,85 655,80 657,80 657,90 655,90 650,85 " style="fill:#2515d8; stroke-width:1; stroke:black; " description="&lt;b&gt;PFLU_RS12400&lt;/b&gt;&lt;br&gt;aliphatic amidase&lt;br&gt;Location: 2750338 - 2749295&lt;br&gt;&lt;br&gt;&lt;b&gt;BlastP hit with MCIC6FC_018502&lt;/b&gt;&lt;br&gt;Percentage identity: 98&lt;br&gt;Percentage coverage: 79&lt;br&gt;BLAST bit score: 719&lt;br&gt;E-value: 1.9e-205" locus_tag="PFLU_RS12400" class="clusterblast-orf" id="dummy-1_h1_6_32"  />
</g>
<g id="a1_0033"  >
<polygon points="657,85 660,80 660,90 657,85 " style="fill:#2515d8; stroke-width:1; stroke:black; " description="&lt;b&gt;PFLU_RS12395&lt;/b&gt;&lt;br&gt;zinc ribbon domain-containing protein&lt;br&gt;Location: 2749279 - 2748932&lt;br&gt;&lt;br&gt;&lt;b&gt;BlastP hit with MCIC6FC_018502&lt;/b&gt;&lt;br&gt;Percentage identity: 84&lt;br&gt;Percentage coverage: 22&lt;br&gt;BLAST bit score: 175&lt;br&gt;E-value: 1.7e-41" locus_tag="PFLU_RS12395" class="clusterblast-orf" id="dummy-1_h1_6_33"  />
</g>
<g id="a1_0034"  >
<polygon points="660,85 665,80 669,80 669,90 665,90 660,85 " style="fill:#d81573; stroke-width:1; stroke:black; " description="&lt;b&gt;PFLU_RS12390&lt;/b&gt;&lt;br&gt;acetamidase/formamidase family protein&lt;br&gt;Location: 2748929 - 2747700&lt;br&gt;&lt;br&gt;&lt;b&gt;BlastP hit with MCIC6FC_018503&lt;/b&gt;&lt;br&gt;Percentage identity: 100&lt;br&gt;Percentage coverage: 100&lt;br&gt;BLAST bit score: 862&lt;br&gt;E-value: 2.2e-248" locus_tag="PFLU_RS12390" class="clusterblast-orf" id="dummy-1_h1_6_34"  />
</g>
<g id="a1_0035"  >
<polygon points="671,90 678,90 683,85 678,80 671,80 671,90 " style="fill:#b1d815; stroke-width:1; stroke:black; " description="&lt;b&gt;PFLU_RS12385&lt;/b&gt;&lt;br&gt;methyl-accepting chemotaxis protein&lt;br&gt;Location: 2747465 - 2745825&lt;br&gt;&lt;br&gt;&lt;b&gt;BlastP hit with MCIC6FC_018504&lt;/b&gt;&lt;br&gt;Percentage identity: 85&lt;br&gt;Percentage coverage: 100&lt;br&gt;BLAST bit score: 767&lt;br&gt;E-value: 9.7e-220" locus_tag="PFLU_RS12385" class="clusterblast-orf" id="dummy-1_h1_6_35"  />
</g>
<g id="a1_0036"  >
<polygon points="682,85 687,80 688,80 688,90 687,90 682,85 " style="fill:#15d8c1; stroke-width:1; stroke:black; " description="&lt;b&gt;PFLU_RS12380&lt;/b&gt;&lt;br&gt;GntR family transcriptional regulator&lt;br&gt;Location: 2745828 - 2745097&lt;br&gt;&lt;br&gt;&lt;b&gt;BlastP hit with MCIC6FC_018505&lt;/b&gt;&lt;br&gt;Percentage identity: 96&lt;br&gt;Percentage coverage: 97&lt;br&gt;BLAST bit score: 412&lt;br&gt;E-value: 2.5e-113" locus_tag="PFLU_RS12380" class="clusterblast-orf" id="dummy-1_h1_6_36"  />
</g>
<g id="a1_0037"  >
<polygon points="689,90 692,85 689,80 689,90 " style="fill:#5415d8; stroke-width:1; stroke:black; " description="&lt;b&gt;PFLU_RS12375&lt;/b&gt;&lt;br&gt;hypothetical protein&lt;br&gt;Location: 2744983 - 2744579&lt;br&gt;&lt;br&gt;&lt;b&gt;BlastP hit with MCIC6FC_018506&lt;/b&gt;&lt;br&gt;Percentage identity: 90&lt;br&gt;Percentage coverage: 21&lt;br&gt;BLAST bit score: 153&lt;br&gt;E-value: 4.2e-35" locus_tag="PFLU_RS12375" class="clusterblast-orf" id="dummy-1_h1_6_37"  />
</g>
<g id="a1_0038"  >
<polygon points="691,90 691,90 696,85 691,80 691,80 691,90 " style="fill:white; stroke-width:1; stroke:black; " description="&lt;b&gt;PFLU_RS12370&lt;/b&gt;&lt;br&gt;response regulator&lt;br&gt;Location: 2744604 - 2743939" locus_tag="PFLU_RS12370" class="clusterblast-orf" id="dummy-1_h1_6_38"  />
</g>
<g id="a1_0039"  >
<polygon points="697,85 702,80 703,80 703,90 702,90 697,85 " style="fill:white; stroke-width:1; stroke:black; " description="&lt;b&gt;PFLU_RS12365&lt;/b&gt;&lt;br&gt;IclR family transcriptional regulator&lt;br&gt;Location: 2743884 - 2743054" locus_tag="PFLU_RS12365" class="clusterblast-orf" id="dummy-1_h1_6_39"  />
</g>
<g id="a1_0040"  >
<polygon points="704,90 707,90 712,85 707,80 704,80 704,90 " style="fill:#d815a2; stroke-width:1; stroke:black; " description="&lt;b&gt;PFLU_RS12360&lt;/b&gt;&lt;br&gt;ABC transporter ATP-binding protein&lt;br&gt;Location: 2742810 - 2741782&lt;br&gt;&lt;br&gt;&lt;b&gt;BlastP hit with MCIC6FC_018497&lt;/b&gt;&lt;br&gt;Percentage identity: 31&lt;br&gt;Percentage coverage: 36&lt;br&gt;BLAST bit score: 85&lt;br&gt;E-value: 1.7e-14&lt;br&gt;&lt;br&gt;&lt;b&gt;BlastP hit with MCIC6FC_018508&lt;/b&gt;&lt;br&gt;Percentage identity: 31&lt;br&gt;Percentage coverage: 44&lt;br&gt;BLAST bit score: 104&lt;br&gt;E-value: 3.5e-20" locus_tag="PFLU_RS12360" class="clusterblast-orf" id="dummy-1_h1_6_40"  />
</g>
<g id="a1_0041"  >
<polygon points="712,90 713,90 718,85 713,80 712,80 712,90 " style="fill:white; stroke-width:1; stroke:black; " description="&lt;b&gt;PFLU_RS12355&lt;/b&gt;&lt;br&gt;ABC transporter permease&lt;br&gt;Location: 2741785 - 2740940" locus_tag="PFLU_RS12355" class="clusterblast-orf" id="dummy-1_h1_6_41"  />
</g>
<g id="a1_0042"  >
<polygon points="718,90 719,90 724,85 719,80 718,80 718,90 " style="fill:white; stroke-width:1; stroke:black; " description="&lt;b&gt;PFLU_RS12350&lt;/b&gt;&lt;br&gt;ABC transporter permease&lt;br&gt;Location: 2740935 - 2740141" locus_tag="PFLU_RS12350" class="clusterblast-orf" id="dummy-1_h1_6_42"  />
</g>
<g id="a1_0043"  >
<polygon points="724,90 726,85 724,80 724,90 " style="fill:white; stroke-width:1; stroke:black; " description="&lt;b&gt;PFLU_RS12345&lt;/b&gt;&lt;br&gt;(2Fe-2S)-binding protein&lt;br&gt;Location: 2740141 - 2739851" locus_tag="PFLU_RS12345" class="clusterblast-orf" id="dummy-1_h1_6_43"  />
</g>
<g id="a1_0044"  >
<polygon points="726,90 731,90 736,85 731,80 726,80 726,90 " style="fill:white; stroke-width:1; stroke:black; " description="&lt;b&gt;PFLU_RS12340&lt;/b&gt;&lt;br&gt;FAD-dependent oxidoreductase&lt;br&gt;Location: 2739854 - 2738511" locus_tag="PFLU_RS12340" class="clusterblast-orf" id="dummy-1_h1_6_44"  />
</g>
<g id="a1_0045"  >
<polygon points="736,90 739,90 744,85 739,80 736,80 736,90 " style="fill:white; stroke-width:1; stroke:black; " description="&lt;b&gt;PFLU_RS12335&lt;/b&gt;&lt;br&gt;FAD-binding oxidoreductase&lt;br&gt;Location: 2738514 - 2737417" locus_tag="PFLU_RS12335" class="clusterblast-orf" id="dummy-1_h1_6_45"  />
</g>
<g id="a1_0046"  >
<polygon points="744,90 746,90 751,85 746,80 744,80 744,90 " style="fill:white; stroke-width:1; stroke:black; " description="&lt;b&gt;PFLU_RS12330&lt;/b&gt;&lt;br&gt;ABC transporter substrate-binding protein&lt;br&gt;Location: 2737402 - 2736371" locus_tag="PFLU_RS12330" class="clusterblast-orf" id="dummy-1_h1_6_46"  />
</g>
<g id="a1_0047"  >
<polygon points="751,85 756,80 757,80 757,90 756,90 751,85 " style="fill:white; stroke-width:1; stroke:black; " description="&lt;b&gt;PFLU_RS12325&lt;/b&gt;&lt;br&gt;ammonia-dependent NAD(+) synthetase&lt;br&gt;Location: 2736364 - 2735555" locus_tag="PFLU_RS12325" class="clusterblast-orf" id="dummy-1_h1_6_47"  />
</g>
</svg>
