<svg xmlns="http://www.w3.org/2000/svg" xmlns:xlink="http://www.w3.org/1999/xlink" version="1.1" x="0" y="0" height="230" width="800" viewBox="0 0 800 230" preserveAspectRatio="none"  >
<g label="Query sequence" class="clusterblast-cluster"  >
<text x="5" y="20" class="clusterblast-acc"  >
Query sequence</text>
<line x1="10" y1="35" x2="778.0" y2="35" style="stroke-width:1; stroke:grey; "  />
<polygon points="96,35 101,30 125,30 125,40 101,40 96,35 " style="fill:white; stroke-width:1; stroke:black; " description="&lt;b&gt;MCIC6FC_019729&lt;/b&gt;&lt;br&gt;hypothetical protein&lt;br&gt;Location: 48 - 1635" locus_tag="MCIC6FC_019729" class="clusterblast-orf" id="dummy-1_q0_0_all"  />
<polygon points="171,40 307,40 312,35 307,30 171,30 171,40 " style="fill:#d81515; stroke-width:1; stroke:black; " description="&lt;b&gt;MCIC6FC_019730&lt;/b&gt;&lt;br&gt;hypothetical protein&lt;br&gt;Location: 4097 - 11627" locus_tag="MCIC6FC_019730" class="clusterblast-orf" id="dummy-1_q1_0_all"  />
<polygon points="313,35 318,30 320,30 320,40 318,40 313,35 " style="fill:#15d815; stroke-width:1; stroke:black; " description="&lt;b&gt;MCIC6FC_019731&lt;/b&gt;&lt;br&gt;hypothetical protein&lt;br&gt;Location: 11643 - 12033" locus_tag="MCIC6FC_019731" class="clusterblast-orf" id="dummy-1_q2_0_all"  />
<polygon points="326,35 331,30 391,30 391,40 331,40 326,35 " style="fill:#1597d8; stroke-width:1; stroke:black; " description="&lt;b&gt;MCIC6FC_019732&lt;/b&gt;&lt;br&gt;hypothetical protein&lt;br&gt;Location: 12371 - 15823" locus_tag="MCIC6FC_019732" class="clusterblast-orf" id="dummy-1_q3_0_all"  />
<polygon points="391,35 396,30 404,30 404,40 396,40 391,35 " style="fill:#9715d8; stroke-width:1; stroke:black; " description="&lt;b&gt;MCIC6FC_019733&lt;/b&gt;&lt;br&gt;hypothetical protein&lt;br&gt;Location: 15848 - 16554" locus_tag="MCIC6FC_019733" class="clusterblast-orf" id="dummy-1_q4_0_all"  />
<polygon points="405,35 410,30 477,30 477,40 410,40 405,35 " style="fill:#9715d8; stroke-width:1; stroke:black; " description="&lt;b&gt;MCIC6FC_019734&lt;/b&gt;&lt;br&gt;hypothetical protein&lt;br&gt;Location: 16577 - 20450" locus_tag="MCIC6FC_019734" class="clusterblast-orf" id="dummy-1_q5_0_all"  />
<polygon points="479,35 484,30 494,30 494,40 484,40 479,35 " style="fill:#9715d8; stroke-width:1; stroke:black; " description="&lt;b&gt;MCIC6FC_019735&lt;/b&gt;&lt;br&gt;hypothetical protein&lt;br&gt;Location: 20551 - 21340" locus_tag="MCIC6FC_019735" class="clusterblast-orf" id="dummy-1_q6_0_all"  />
<polygon points="495,35 500,30 509,30 509,40 500,40 495,35 " style="fill:#d89715; stroke-width:1; stroke:black; " description="&lt;b&gt;MCIC6FC_019736&lt;/b&gt;&lt;br&gt;hypothetical protein&lt;br&gt;Location: 21424 - 22154" locus_tag="MCIC6FC_019736" class="clusterblast-orf" id="dummy-1_q7_0_all"  />
<polygon points="510,35 515,30 521,30 521,40 515,40 510,35 " style="fill:#d89715; stroke-width:1; stroke:black; " description="&lt;b&gt;MCIC6FC_019737&lt;/b&gt;&lt;br&gt;hypothetical protein&lt;br&gt;Location: 22198 - 22796" locus_tag="MCIC6FC_019737" class="clusterblast-orf" id="dummy-1_q8_0_all"  />
<polygon points="524,35 529,30 598,30 598,40 529,40 524,35 " style="fill:#15d897; stroke-width:1; stroke:black; " description="&lt;b&gt;MCIC6FC_019738&lt;/b&gt;&lt;br&gt;hypothetical protein&lt;br&gt;Location: 22971 - 26914" locus_tag="MCIC6FC_019738" class="clusterblast-orf" id="dummy-1_q9_0_all"  />
<polygon points="598,35 603,30 629,30 629,40 603,40 598,35 " style="fill:#1515d8; stroke-width:1; stroke:black; " description="&lt;b&gt;MCIC6FC_019739&lt;/b&gt;&lt;br&gt;hypothetical protein&lt;br&gt;Location: 26943 - 28602" locus_tag="MCIC6FC_019739" class="clusterblast-orf" id="dummy-1_q10_0_all"  />
<polygon points="633,35 638,30 644,30 644,40 638,40 633,35 " style="fill:#d81597; stroke-width:1; stroke:black; " description="&lt;b&gt;MCIC6FC_019740&lt;/b&gt;&lt;br&gt;hypothetical protein&lt;br&gt;Location: 28808 - 29406" locus_tag="MCIC6FC_019740" class="clusterblast-orf" id="dummy-1_q11_0_all"  />
<polygon points="647,40 679,40 684,35 679,30 647,30 647,40 " style="fill:#97d815; stroke-width:1; stroke:black; " description="&lt;b&gt;MCIC6FC_019741&lt;/b&gt;&lt;br&gt;hypothetical protein&lt;br&gt;Location: 29521 - 31499" locus_tag="MCIC6FC_019741" class="clusterblast-orf" id="dummy-1_q12_0_all"  />
</g>
<g label="NZ_CP018785" description="NZ_CP018785 (3272059-3315653): Enterobacter ludwigii strain AA4 chromosome, c... (52% of genes show similarity), arylpolyene" class="clusterblast-cluster"  >
<text x="5" y="70" class="clusterblast-acc"  >
<a xlink:href="https://antismash-db.secondarymetabolites.org/area.html?record=NZ_CP018785&amp;start=3272059&amp;end=3315653" target="_blank">NZ_CP018785 (3272059-3315653)</a>: Enterobacter ludwigii strain AA4 chromosome, c... (52% of genes show similarity), arylpolyene</text>
<line x1="10" y1="85" x2="778.0" y2="85" style="stroke-width:1; stroke:grey; "  />
</g>
<g id="a1_000"  >
<polygon points="0,90 17,90 22,85 17,80 0,80 0,90 " style="fill:white; stroke-width:1; stroke:black; " description="&lt;b&gt;BUE86_RS15665&lt;/b&gt;&lt;br&gt;NAD(P)/FAD-dependent oxidoreductase&lt;br&gt;Location: 3272828 - 3274024" locus_tag="BUE86_RS15665" class="clusterblast-orf" id="dummy-1_h1_1_0"  />
</g>
<g id="a1_001"  >
<polygon points="22,85 27,80 40,80 40,90 27,90 22,85 " style="fill:white; stroke-width:1; stroke:black; " description="&lt;b&gt;BUE86_RS15670&lt;/b&gt;&lt;br&gt;3-phosphoglycerate dehydrogenase&lt;br&gt;Location: 3274057 - 3274995" locus_tag="BUE86_RS15670" class="clusterblast-orf" id="dummy-1_h1_1_1"  />
</g>
<g id="a1_002"  >
<polygon points="40,85 45,80 53,80 53,90 45,90 40,85 " style="fill:white; stroke-width:1; stroke:black; " description="&lt;b&gt;BUE86_RS15675&lt;/b&gt;&lt;br&gt;diguanylate cyclase&lt;br&gt;Location: 3274995 - 3275687" locus_tag="BUE86_RS15675" class="clusterblast-orf" id="dummy-1_h1_1_2"  />
</g>
<g id="a1_003"  >
<polygon points="56,90 65,90 70,85 65,80 56,80 56,90 " style="fill:white; stroke-width:1; stroke:black; " description="&lt;b&gt;BUE86_RS15680&lt;/b&gt;&lt;br&gt;IclR family transcriptional regulator&lt;br&gt;Location: 3275857 - 3276594" locus_tag="BUE86_RS15680" class="clusterblast-orf" id="dummy-1_h1_1_3"  />
</g>
<g id="a1_004"  >
<polygon points="71,85 76,80 96,80 96,90 76,90 71,85 " style="fill:white; stroke-width:1; stroke:black; " description="&lt;b&gt;BUE86_RS15685&lt;/b&gt;&lt;br&gt;MFS transporter&lt;br&gt;Location: 3276632 - 3277966" locus_tag="BUE86_RS15685" class="clusterblast-orf" id="dummy-1_h1_1_4"  />
</g>
<g id="a1_005"  >
<polygon points="102,90 104,90 109,85 104,80 102,80 102,90 " style="fill:white; stroke-width:1; stroke:black; " description="&lt;b&gt;BUE86_RS15690&lt;/b&gt;&lt;br&gt;two pore domain potassium channel family protein&lt;br&gt;Location: 3278301 - 3278699" locus_tag="BUE86_RS15690" class="clusterblast-orf" id="dummy-1_h1_1_5"  />
</g>
<g id="a1_006"  >
<polygon points="112,90 127,90 132,85 127,80 112,80 112,90 " style="fill:white; stroke-width:1; stroke:black; " description="&lt;b&gt;BUE86_RS15695&lt;/b&gt;&lt;br&gt;TerC/Alx family metal homeostasis membrane protein&lt;br&gt;Location: 3278865 - 3279893" locus_tag="BUE86_RS15695" class="clusterblast-orf" id="dummy-1_h1_1_6"  />
</g>
<g id="a1_007"  >
<polygon points="132,85 137,80 145,80 145,90 137,90 132,85 " style="fill:white; stroke-width:1; stroke:black; " description="&lt;b&gt;BUE86_RS15700&lt;/b&gt;&lt;br&gt;HAD family hydrolase&lt;br&gt;Location: 3279939 - 3280601" locus_tag="BUE86_RS15700" class="clusterblast-orf" id="dummy-1_h1_1_7"  />
</g>
<g id="a1_008"  >
<polygon points="149,90 154,90 159,85 154,80 149,80 149,90 " style="fill:white; stroke-width:1; stroke:black; " description="&lt;b&gt;BUE86_RS15705&lt;/b&gt;&lt;br&gt;glycoside hydrolase&lt;br&gt;Location: 3280842 - 3281369" locus_tag="BUE86_RS15705" class="clusterblast-orf" id="dummy-1_h1_1_8"  />
</g>
<g id="a1_009"  >
<polygon points="159,85 164,80 174,80 174,90 164,90 159,85 " style="fill:white; stroke-width:1; stroke:black; " description="&lt;b&gt;BUE86_RS15710&lt;/b&gt;&lt;br&gt;SDR family NAD(P)-dependent oxidoreductase&lt;br&gt;Location: 3281374 - 3282168" locus_tag="BUE86_RS15710" class="clusterblast-orf" id="dummy-1_h1_1_9"  />
</g>
<g id="a1_0010"  >
<polygon points="175,85 180,80 191,80 191,90 180,90 175,85 " style="fill:white; stroke-width:1; stroke:black; " description="&lt;b&gt;BUE86_RS15715&lt;/b&gt;&lt;br&gt;LysR family transcriptional regulator&lt;br&gt;Location: 3282202 - 3283083" locus_tag="BUE86_RS15715" class="clusterblast-orf" id="dummy-1_h1_1_10"  />
</g>
<g id="a1_0011"  >
<polygon points="193,90 197,90 202,85 197,80 193,80 193,90 " style="fill:white; stroke-width:1; stroke:black; " description="&lt;b&gt;BUE86_RS15720&lt;/b&gt;&lt;br&gt;phenolic acid decarboxylase&lt;br&gt;Location: 3283183 - 3283689" locus_tag="BUE86_RS15720" class="clusterblast-orf" id="dummy-1_h1_1_11"  />
</g>
<g id="a1_0012"  >
<polygon points="210,90 227,90 232,85 227,80 210,80 210,90 " style="fill:#d81515; stroke-width:1; stroke:black; " description="&lt;b&gt;BUE86_RS15725&lt;/b&gt;&lt;br&gt;UDP-4-amino-4-deoxy-L-arabinose aminotransferase&lt;br&gt;Location: 3284117 - 3285256&lt;br&gt;&lt;br&gt;&lt;b&gt;BlastP hit with MCIC6FC_019730&lt;/b&gt;&lt;br&gt;Percentage identity: 79&lt;br&gt;Percentage coverage: 15&lt;br&gt;BLAST bit score: 514&lt;br&gt;E-value: 7.7e-143" locus_tag="BUE86_RS15725" class="clusterblast-orf" id="dummy-1_h1_1_12"  />
</g>
<g id="a1_0013"  >
<polygon points="232,90 245,90 250,85 245,80 232,80 232,90 " style="fill:#d81515; stroke-width:1; stroke:black; " description="&lt;b&gt;BUE86_RS15730&lt;/b&gt;&lt;br&gt;undecaprenyl-phosphate 4-deoxy-4-formamido-L-arabinose transferase&lt;br&gt;Location: 3285258 - 3286241&lt;br&gt;&lt;br&gt;&lt;b&gt;BlastP hit with MCIC6FC_019730&lt;/b&gt;&lt;br&gt;Percentage identity: 79&lt;br&gt;Percentage coverage: 14&lt;br&gt;BLAST bit score: 481&lt;br&gt;E-value: 5.5e-133" locus_tag="BUE86_RS15730" class="clusterblast-orf" id="dummy-1_h1_1_13"  />
</g>
<g id="a1_0014"  >
<polygon points="250,90 282,90 287,85 282,80 250,80 250,90 " style="fill:#d81515; stroke-width:1; stroke:black; " description="&lt;b&gt;BUE86_RS15735&lt;/b&gt;&lt;br&gt;bifunctional UDP-4-amino-4-deoxy-L-arabinose formyltransferase/UDP-glucuronic acid oxidase ArnA&lt;br&gt;Location: 3286238 - 3288220&lt;br&gt;&lt;br&gt;&lt;b&gt;BlastP hit with MCIC6FC_019730&lt;/b&gt;&lt;br&gt;Percentage identity: 73&lt;br&gt;Percentage coverage: 30&lt;br&gt;BLAST bit score: 956&lt;br&gt;E-value: 3.4e-276" locus_tag="BUE86_RS15735" class="clusterblast-orf" id="dummy-1_h1_1_14"  />
</g>
<g id="a1_0015"  >
<polygon points="287,90 299,90 304,85 299,80 287,80 287,90 " style="fill:#d81515; stroke-width:1; stroke:black; " description="&lt;b&gt;BUE86_RS15740&lt;/b&gt;&lt;br&gt;4-deoxy-4-formamido-L-arabinose- phosphoundecaprenol deformylase&lt;br&gt;Location: 3288217 - 3289119&lt;br&gt;&lt;br&gt;&lt;b&gt;BlastP hit with MCIC6FC_019730&lt;/b&gt;&lt;br&gt;Percentage identity: 52&lt;br&gt;Percentage coverage: 11&lt;br&gt;BLAST bit score: 233&lt;br&gt;E-value: 1.5e-58" locus_tag="BUE86_RS15740" class="clusterblast-orf" id="dummy-1_h1_1_15"  />
</g>
<g id="a1_0016"  >
<polygon points="304,90 330,90 335,85 330,80 304,80 304,90 " style="fill:#d81515; stroke-width:1; stroke:black; " description="&lt;b&gt;BUE86_RS15745&lt;/b&gt;&lt;br&gt;lipid IV(A) 4-amino-4-deoxy-L-arabinosyltransferase&lt;br&gt;Location: 3289116 - 3290771&lt;br&gt;&lt;br&gt;&lt;b&gt;BlastP hit with MCIC6FC_019730&lt;/b&gt;&lt;br&gt;Percentage identity: 40&lt;br&gt;Percentage coverage: 26&lt;br&gt;BLAST bit score: 323&lt;br&gt;E-value: 1.9e-85" locus_tag="BUE86_RS15745" class="clusterblast-orf" id="dummy-1_h1_1_16"  />
</g>
<g id="a1_0017"  >
<polygon points="335,90 336,90 341,85 336,80 335,80 335,90 " style="fill:white; stroke-width:1; stroke:black; " description="&lt;b&gt;BUE86_RS15750&lt;/b&gt;&lt;br&gt;4-amino-4-deoxy-L-arabinose-phosphoundecaprenol flippase subunit ArnE&lt;br&gt;Location: 3290768 - 3291106" locus_tag="BUE86_RS15750" class="clusterblast-orf" id="dummy-1_h1_1_17"  />
</g>
<g id="a1_0018"  >
<polygon points="341,90 344,90 349,85 344,80 341,80 341,90 " style="fill:white; stroke-width:1; stroke:black; " description="&lt;b&gt;BUE86_RS15755&lt;/b&gt;&lt;br&gt;4-amino-4-deoxy-L-arabinose-phospho-UDP flippase&lt;br&gt;Location: 3291103 - 3291507" locus_tag="BUE86_RS15755" class="clusterblast-orf" id="dummy-1_h1_1_18"  />
</g>
<g id="a1_0019"  >
<polygon points="348,85 353,80 359,80 359,90 353,90 348,85 " style="fill:#15d815; stroke-width:1; stroke:black; " description="&lt;b&gt;BUE86_RS15760&lt;/b&gt;&lt;br&gt;4'-phosphopantetheinyl transferase AcpT&lt;br&gt;Location: 3291464 - 3292057&lt;br&gt;&lt;br&gt;&lt;b&gt;BlastP hit with MCIC6FC_019731&lt;/b&gt;&lt;br&gt;Percentage identity: 64&lt;br&gt;Percentage coverage: 92&lt;br&gt;BLAST bit score: 144&lt;br&gt;E-value: 9.5e-33" locus_tag="BUE86_RS15760" class="clusterblast-orf" id="dummy-1_h1_1_19"  />
</g>
<g id="a1_0020"  >
<polygon points="359,85 364,80 382,80 382,90 364,90 359,85 " style="fill:#1597d8; stroke-width:1; stroke:black; " description="&lt;b&gt;BUE86_RS15765&lt;/b&gt;&lt;br&gt;beta-ketoacyl-ACP synthase&lt;br&gt;Location: 3292060 - 3293289&lt;br&gt;&lt;br&gt;&lt;b&gt;BlastP hit with MCIC6FC_019732&lt;/b&gt;&lt;br&gt;Percentage identity: 68&lt;br&gt;Percentage coverage: 36&lt;br&gt;BLAST bit score: 445&lt;br&gt;E-value: 1.2e-122" locus_tag="BUE86_RS15765" class="clusterblast-orf" id="dummy-1_h1_1_20"  />
</g>
<g id="a1_0021"  >
<polygon points="382,85 387,80 395,80 395,90 387,90 382,85 " style="fill:#1597d8; stroke-width:1; stroke:black; " description="&lt;b&gt;BUE86_RS15770&lt;/b&gt;&lt;br&gt;3-oxoacyl-ACP reductase FabG&lt;br&gt;Location: 3293286 - 3294017&lt;br&gt;&lt;br&gt;&lt;b&gt;BlastP hit with MCIC6FC_019732&lt;/b&gt;&lt;br&gt;Percentage identity: 72&lt;br&gt;Percentage coverage: 24&lt;br&gt;BLAST bit score: 322&lt;br&gt;E-value: 1.5e-85" locus_tag="BUE86_RS15770" class="clusterblast-orf" id="dummy-1_h1_1_21"  />
</g>
<g id="a1_0022"  >
<polygon points="395,85 400,80 404,80 404,90 400,90 395,85 " style="fill:white; stroke-width:1; stroke:black; " description="&lt;b&gt;BUE86_RS15775&lt;/b&gt;&lt;br&gt;hypothetical protein&lt;br&gt;Location: 3294014 - 3294487" locus_tag="BUE86_RS15775" class="clusterblast-orf" id="dummy-1_h1_1_22"  />
</g>
<g id="a1_0023"  >
<polygon points="404,85 409,80 426,80 426,90 409,90 404,85 " style="fill:#1597d8; stroke-width:1; stroke:black; " description="&lt;b&gt;BUE86_RS15780&lt;/b&gt;&lt;br&gt;beta-ketoacyl-[acyl-carrier-protein] synthase family protein&lt;br&gt;Location: 3294484 - 3295653&lt;br&gt;&lt;br&gt;&lt;b&gt;BlastP hit with MCIC6FC_019732&lt;/b&gt;&lt;br&gt;Percentage identity: 64&lt;br&gt;Percentage coverage: 38&lt;br&gt;BLAST bit score: 445&lt;br&gt;E-value: 1.6e-122" locus_tag="BUE86_RS15780" class="clusterblast-orf" id="dummy-1_h1_1_23"  />
</g>
<g id="a1_0024"  >
<polygon points="426,85 431,80 437,80 437,90 431,90 426,85 " style="fill:#9715d8; stroke-width:1; stroke:black; " description="&lt;b&gt;BUE86_RS15785&lt;/b&gt;&lt;br&gt;DUF3261 domain-containing protein&lt;br&gt;Location: 3295655 - 3296233&lt;br&gt;&lt;br&gt;&lt;b&gt;BlastP hit with MCIC6FC_019733&lt;/b&gt;&lt;br&gt;Percentage identity: 65&lt;br&gt;Percentage coverage: 86&lt;br&gt;BLAST bit score: 245&lt;br&gt;E-value: 5.2e-63" locus_tag="BUE86_RS15785" class="clusterblast-orf" id="dummy-1_h1_1_24"  />
</g>
<g id="a1_0025"  >
<polygon points="437,85 442,80 480,80 480,90 442,90 437,85 " style="fill:#9715d8; stroke-width:1; stroke:black; " description="&lt;b&gt;BUE86_RS15790&lt;/b&gt;&lt;br&gt;MMPL family transporter&lt;br&gt;Location: 3296230 - 3298554&lt;br&gt;&lt;br&gt;&lt;b&gt;BlastP hit with MCIC6FC_019733&lt;/b&gt;&lt;br&gt;Percentage identity: 83&lt;br&gt;Percentage coverage: 18&lt;br&gt;BLAST bit score: 64&lt;br&gt;E-value: 1.3e-08&lt;br&gt;&lt;br&gt;&lt;b&gt;BlastP hit with MCIC6FC_019734&lt;/b&gt;&lt;br&gt;Percentage identity: 72&lt;br&gt;Percentage coverage: 59&lt;br&gt;BLAST bit score: 907&lt;br&gt;E-value: 1.3e-261" locus_tag="BUE86_RS15790" class="clusterblast-orf" id="dummy-1_h1_1_25"  />
</g>
<g id="a1_0026"  >
<polygon points="480,85 485,80 491,80 491,90 485,90 480,85 " style="fill:#9715d8; stroke-width:1; stroke:black; " description="&lt;b&gt;BUE86_RS15795&lt;/b&gt;&lt;br&gt;outer membrane lipoprotein carrier protein LolA&lt;br&gt;Location: 3298523 - 3299128&lt;br&gt;&lt;br&gt;&lt;b&gt;BlastP hit with MCIC6FC_019734&lt;/b&gt;&lt;br&gt;Percentage identity: 78&lt;br&gt;Percentage coverage: 13&lt;br&gt;BLAST bit score: 251&lt;br&gt;E-value: 3.8e-64" locus_tag="BUE86_RS15795" class="clusterblast-orf" id="dummy-1_h1_1_26"  />
</g>
<g id="a1_0027"  >
<polygon points="491,85 496,80 499,80 499,90 496,90 491,85 " style="fill:white; stroke-width:1; stroke:black; " description="&lt;b&gt;BUE86_RS15800&lt;/b&gt;&lt;br&gt;acyl-CoA thioesterase&lt;br&gt;Location: 3299125 - 3299547" locus_tag="BUE86_RS15800" class="clusterblast-orf" id="dummy-1_h1_1_27"  />
</g>
<g id="a1_0028"  >
<polygon points="499,85 504,80 530,80 530,90 504,90 499,85 " style="fill:#9715d8; stroke-width:1; stroke:black; " description="&lt;b&gt;BUE86_RS15805&lt;/b&gt;&lt;br&gt;glycosyltransferase family 2 protein&lt;br&gt;Location: 3299551 - 3301242&lt;br&gt;&lt;br&gt;&lt;b&gt;BlastP hit with MCIC6FC_019734&lt;/b&gt;&lt;br&gt;Percentage identity: 67&lt;br&gt;Percentage coverage: 19&lt;br&gt;BLAST bit score: 291&lt;br&gt;E-value: 4.3e-76&lt;br&gt;&lt;br&gt;&lt;b&gt;BlastP hit with MCIC6FC_019735&lt;/b&gt;&lt;br&gt;Percentage identity: 50&lt;br&gt;Percentage coverage: 105&lt;br&gt;BLAST bit score: 206&lt;br&gt;E-value: 2.9e-51" locus_tag="BUE86_RS15805" class="clusterblast-orf" id="dummy-1_h1_1_28"  />
</g>
<g id="a1_0029"  >
<polygon points="530,85 535,80 537,80 537,90 535,90 530,85 " style="fill:#d89715; stroke-width:1; stroke:black; " description="&lt;b&gt;BUE86_RS15810&lt;/b&gt;&lt;br&gt;beta-hydroxyacyl-ACP dehydratase&lt;br&gt;Location: 3301233 - 3301586&lt;br&gt;&lt;br&gt;&lt;b&gt;BlastP hit with MCIC6FC_019736&lt;/b&gt;&lt;br&gt;Percentage identity: 80&lt;br&gt;Percentage coverage: 47&lt;br&gt;BLAST bit score: 152&lt;br&gt;E-value: 3.9e-35" locus_tag="BUE86_RS15810" class="clusterblast-orf" id="dummy-1_h1_1_29"  />
</g>
<g id="a1_0030"  >
<polygon points="537,85 542,80 562,80 562,90 542,90 537,85 " style="fill:#d89715; stroke-width:1; stroke:black; " description="&lt;b&gt;BUE86_RS15815&lt;/b&gt;&lt;br&gt;acyl-CoA synthetase&lt;br&gt;Location: 3301573 - 3302934&lt;br&gt;&lt;br&gt;&lt;b&gt;BlastP hit with MCIC6FC_019736&lt;/b&gt;&lt;br&gt;Percentage identity: 59&lt;br&gt;Percentage coverage: 53&lt;br&gt;BLAST bit score: 121&lt;br&gt;E-value: 9.6e-26&lt;br&gt;&lt;br&gt;&lt;b&gt;BlastP hit with MCIC6FC_019737&lt;/b&gt;&lt;br&gt;Percentage identity: 38&lt;br&gt;Percentage coverage: 100&lt;br&gt;BLAST bit score: 74&lt;br&gt;E-value: 9.7e-12" locus_tag="BUE86_RS15815" class="clusterblast-orf" id="dummy-1_h1_1_30"  />
</g>
<g id="a1_0031"  >
<polygon points="562,85 567,80 573,80 573,90 567,90 562,85 " style="fill:#15d897; stroke-width:1; stroke:black; " description="&lt;b&gt;BUE86_RS15820&lt;/b&gt;&lt;br&gt;hypothetical protein&lt;br&gt;Location: 3302927 - 3303514&lt;br&gt;&lt;br&gt;&lt;b&gt;BlastP hit with MCIC6FC_019738&lt;/b&gt;&lt;br&gt;Percentage identity: 60&lt;br&gt;Percentage coverage: 18&lt;br&gt;BLAST bit score: 167&lt;br&gt;E-value: 5.1e-39" locus_tag="BUE86_RS15820" class="clusterblast-orf" id="dummy-1_h1_1_31"  />
</g>
<g id="a1_0032"  >
<polygon points="573,85 578,80 578,80 578,90 578,90 573,85 " style="fill:white; stroke-width:1; stroke:black; " description="&lt;b&gt;BUE86_RS15825&lt;/b&gt;&lt;br&gt;acyl carrier protein&lt;br&gt;Location: 3303521 - 3303772" locus_tag="BUE86_RS15825" class="clusterblast-orf" id="dummy-1_h1_1_32"  />
</g>
<g id="a1_0033"  >
<polygon points="578,85 583,80 583,80 583,90 583,90 578,85 " style="fill:white; stroke-width:1; stroke:black; " description="&lt;b&gt;BUE86_RS15830&lt;/b&gt;&lt;br&gt;hypothetical protein&lt;br&gt;Location: 3303786 - 3304043" locus_tag="BUE86_RS15830" class="clusterblast-orf" id="dummy-1_h1_1_33"  />
</g>
<g id="a1_0034"  >
<polygon points="582,85 587,80 598,80 598,90 587,90 582,85 " style="fill:#15d897; stroke-width:1; stroke:black; " description="&lt;b&gt;BUE86_RS15835&lt;/b&gt;&lt;br&gt;1-acyl-sn-glycerol-3-phosphate acyltransferase&lt;br&gt;Location: 3304024 - 3304839&lt;br&gt;&lt;br&gt;&lt;b&gt;BlastP hit with MCIC6FC_019738&lt;/b&gt;&lt;br&gt;Percentage identity: 44&lt;br&gt;Percentage coverage: 18&lt;br&gt;BLAST bit score: 106&lt;br&gt;E-value: 1.4e-20" locus_tag="BUE86_RS15835" class="clusterblast-orf" id="dummy-1_h1_1_34"  />
</g>
<g id="a1_0035"  >
<polygon points="598,85 603,80 611,80 611,90 603,90 598,85 " style="fill:#15d897; stroke-width:1; stroke:black; " description="&lt;b&gt;BUE86_RS15840&lt;/b&gt;&lt;br&gt;beta-ketoacyl synthase chain length factor&lt;br&gt;Location: 3304836 - 3305558&lt;br&gt;&lt;br&gt;&lt;b&gt;BlastP hit with MCIC6FC_019738&lt;/b&gt;&lt;br&gt;Percentage identity: 62&lt;br&gt;Percentage coverage: 26&lt;br&gt;BLAST bit score: 250&lt;br&gt;E-value: 6e-64" locus_tag="BUE86_RS15840" class="clusterblast-orf" id="dummy-1_h1_1_35"  />
</g>
<g id="a1_0036"  >
<polygon points="612,85 617,80 632,80 632,90 617,90 612,85 " style="fill:white; stroke-width:1; stroke:black; " description="&lt;b&gt;BUE86_RS15845&lt;/b&gt;&lt;br&gt;class I SAM-dependent methyltransferase&lt;br&gt;Location: 3305623 - 3306687" locus_tag="BUE86_RS15845" class="clusterblast-orf" id="dummy-1_h1_1_36"  />
</g>
<g id="a1_0037"  >
<polygon points="633,85 638,80 641,80 641,90 638,90 633,85 " style="fill:#15d897; stroke-width:1; stroke:black; " description="&lt;b&gt;BUE86_RS15850&lt;/b&gt;&lt;br&gt;hypothetical protein&lt;br&gt;Location: 3306755 - 3307144&lt;br&gt;&lt;br&gt;&lt;b&gt;BlastP hit with MCIC6FC_019738&lt;/b&gt;&lt;br&gt;Percentage identity: 57&lt;br&gt;Percentage coverage: 11&lt;br&gt;BLAST bit score: 96&lt;br&gt;E-value: 1.1e-17" locus_tag="BUE86_RS15850" class="clusterblast-orf" id="dummy-1_h1_1_37"  />
</g>
<g id="a1_0038"  >
<polygon points="647,85 652,80 666,80 666,90 652,90 647,85 " style="fill:#1515d8; stroke-width:1; stroke:black; " description="&lt;b&gt;BUE86_RS15855&lt;/b&gt;&lt;br&gt;AI-2E family transporter&lt;br&gt;Location: 3307468 - 3308517&lt;br&gt;&lt;br&gt;&lt;b&gt;BlastP hit with MCIC6FC_019739&lt;/b&gt;&lt;br&gt;Percentage identity: 81&lt;br&gt;Percentage coverage: 61&lt;br&gt;BLAST bit score: 365&lt;br&gt;E-value: 5.9e-99" locus_tag="BUE86_RS15855" class="clusterblast-orf" id="dummy-1_h1_1_38"  />
</g>
<g id="a1_0039"  >
<polygon points="669,90 687,90 692,85 687,80 669,80 669,90 " style="fill:white; stroke-width:1; stroke:black; " description="&lt;b&gt;BUE86_RS15860&lt;/b&gt;&lt;br&gt;MFS transporter&lt;br&gt;Location: 3308662 - 3309879" locus_tag="BUE86_RS15860" class="clusterblast-orf" id="dummy-1_h1_1_39"  />
</g>
<g id="a1_0040"  >
<polygon points="692,85 697,80 702,80 702,90 697,90 692,85 " style="fill:#1515d8; stroke-width:1; stroke:black; " description="&lt;b&gt;BUE86_RS15865&lt;/b&gt;&lt;br&gt;DcrB family lipoprotein&lt;br&gt;Location: 3309884 - 3310441&lt;br&gt;&lt;br&gt;&lt;b&gt;BlastP hit with MCIC6FC_019739&lt;/b&gt;&lt;br&gt;Percentage identity: 62&lt;br&gt;Percentage coverage: 49&lt;br&gt;BLAST bit score: 185&lt;br&gt;E-value: 1.4e-44" locus_tag="BUE86_RS15865" class="clusterblast-orf" id="dummy-1_h1_1_40"  />
</g>
<g id="a1_0041"  >
<polygon points="704,85 709,80 716,80 716,90 709,90 704,85 " style="fill:#d81597; stroke-width:1; stroke:black; " description="&lt;b&gt;BUE86_RS15870&lt;/b&gt;&lt;br&gt;7-cyano-7-deazaguanine/7-aminomethyl-7- deazaguanine transporter&lt;br&gt;Location: 3310514 - 3311179&lt;br&gt;&lt;br&gt;&lt;b&gt;BlastP hit with MCIC6FC_019740&lt;/b&gt;&lt;br&gt;Percentage identity: 87&lt;br&gt;Percentage coverage: 98&lt;br&gt;BLAST bit score: 262&lt;br&gt;E-value: 2.1e-68" locus_tag="BUE86_RS15870" class="clusterblast-orf" id="dummy-1_h1_1_41"  />
</g>
<g id="a1_0042"  >
<polygon points="719,90 719,90 724,85 719,80 719,80 719,90 " style="fill:white; stroke-width:1; stroke:black; " description="&lt;b&gt;BUE86_RS15875&lt;/b&gt;&lt;br&gt;sulfurtransferase TusA&lt;br&gt;Location: 3311346 - 3311588" locus_tag="BUE86_RS15875" class="clusterblast-orf" id="dummy-1_h1_1_42"  />
</g>
<g id="a1_0043"  >
<polygon points="727,90 741,90 746,85 741,80 727,80 727,90 " style="fill:#97d815; stroke-width:1; stroke:black; " description="&lt;b&gt;BUE86_RS15880&lt;/b&gt;&lt;br&gt;TRAP transporter substrate-binding protein&lt;br&gt;Location: 3311780 - 3312751&lt;br&gt;&lt;br&gt;&lt;b&gt;BlastP hit with MCIC6FC_019741&lt;/b&gt;&lt;br&gt;Percentage identity: 66&lt;br&gt;Percentage coverage: 41&lt;br&gt;BLAST bit score: 143&lt;br&gt;E-value: 3.6e-32" locus_tag="BUE86_RS15880" class="clusterblast-orf" id="dummy-1_h1_1_43"  />
</g>
<g id="a1_0044"  >
<polygon points="746,90 750,90 755,85 750,80 746,80 746,90 " style="fill:#97d815; stroke-width:1; stroke:black; " description="&lt;b&gt;BUE86_RS15885&lt;/b&gt;&lt;br&gt;TRAP transporter small permease&lt;br&gt;Location: 3312763 - 3313272&lt;br&gt;&lt;br&gt;&lt;b&gt;BlastP hit with MCIC6FC_019741&lt;/b&gt;&lt;br&gt;Percentage identity: 46&lt;br&gt;Percentage coverage: 48&lt;br&gt;BLAST bit score: 95&lt;br&gt;E-value: 1.1e-17" locus_tag="BUE86_RS15885" class="clusterblast-orf" id="dummy-1_h1_1_44"  />
</g>
<g id="a1_0045"  >
<polygon points="755,90 775,90 780,85 775,80 755,80 755,90 " style="fill:white; stroke-width:1; stroke:black; " description="&lt;b&gt;BUE86_RS15890&lt;/b&gt;&lt;br&gt;TRAP transporter large permease&lt;br&gt;Location: 3313283 - 3314569" locus_tag="BUE86_RS15890" class="clusterblast-orf" id="dummy-1_h1_1_45"  />
</g>
</svg>
