<svg xmlns="http://www.w3.org/2000/svg" xmlns:xlink="http://www.w3.org/1999/xlink" version="1.1" x="0" y="0" height="230" width="800" viewBox="0 0 800 230" preserveAspectRatio="none"  >
<g label="Query sequence" class="clusterblast-cluster"  >
<text x="5" y="20" class="clusterblast-acc"  >
Query sequence</text>
<line x1="10" y1="35" x2="778.0" y2="35" style="stroke-width:1; stroke:grey; "  />
<polygon points="8,35 13,30 334,30 334,40 13,40 8,35 " style="fill:#d81515; stroke-width:1; stroke:black; " description="&lt;b&gt;MCIC6FC_022474&lt;/b&gt;&lt;br&gt;hypothetical protein&lt;br&gt;Location: 2882 - 7006" locus_tag="MCIC6FC_022474" class="clusterblast-orf" id="dummy-1_q0_0_all"  />
<polygon points="361,40 510,40 515,35 510,30 361,30 361,40 " style="fill:#15d863; stroke-width:1; stroke:black; " description="&lt;b&gt;MCIC6FC_022475&lt;/b&gt;&lt;br&gt;hypothetical protein&lt;br&gt;Location: 7354 - 9298" locus_tag="MCIC6FC_022475" class="clusterblast-orf" id="dummy-1_q1_0_all"  />
<polygon points="522,40 611,40 616,35 611,30 522,30 522,40 " style="fill:#1563d8; stroke-width:1; stroke:black; " description="&lt;b&gt;MCIC6FC_022476&lt;/b&gt;&lt;br&gt;hypothetical protein&lt;br&gt;Location: 9385 - 10570" locus_tag="MCIC6FC_022476" class="clusterblast-orf" id="dummy-1_q2_0_all"  />
<polygon points="626,35 631,30 740,30 740,40 631,40 626,35 " style="fill:#b115d8; stroke-width:1; stroke:black; " description="&lt;b&gt;MCIC6FC_022477&lt;/b&gt;&lt;br&gt;hypothetical protein&lt;br&gt;Location: 10703 - 12143" locus_tag="MCIC6FC_022477" class="clusterblast-orf" id="dummy-1_q3_0_all"  />
<polygon points="753,40 768,40 773,35 768,30 753,30 753,40 " style="fill:#b1d815; stroke-width:1; stroke:black; " description="&lt;b&gt;MCIC6FC_022478&lt;/b&gt;&lt;br&gt;hypothetical protein&lt;br&gt;Location: 12300 - 12555" locus_tag="MCIC6FC_022478" class="clusterblast-orf" id="dummy-1_q4_0_all"  />
</g>
<g label="NZ_QJRM01000001" description="NZ_QJRM01000001 (156369-167215): Pseudomonas protegens strain MB-090714 NODE ... (80% of genes show similarity), bacteriocin" class="clusterblast-cluster"  >
<text x="5" y="70" class="clusterblast-acc"  >
<a xlink:href="https://antismash-db.secondarymetabolites.org/area.html?record=NZ_QJRM01000001&amp;start=156369&amp;end=167215" target="_blank">NZ_QJRM01000001 (156369-167215)</a>: Pseudomonas protegens strain MB-090714 NODE ... (80% of genes show similarity), bacteriocin</text>
<line x1="10" y1="85" x2="778.0" y2="85" style="stroke-width:1; stroke:grey; "  />
</g>
<g id="a1_000"  >
<polygon points="0,85 5,80 106,80 106,90 5,90 0,85 " style="fill:#d81515; stroke-width:1; stroke:black; " description="&lt;b&gt;DMX09_RS00785&lt;/b&gt;&lt;br&gt;phosphatase PAP2/dual specificity phosphatase family protein&lt;br&gt;Location: 156539 - 157885&lt;br&gt;&lt;br&gt;&lt;b&gt;BlastP hit with MCIC6FC_022474&lt;/b&gt;&lt;br&gt;Percentage identity: 74&lt;br&gt;Percentage coverage: 33&lt;br&gt;BLAST bit score: 673&lt;br&gt;E-value: 4.5e-191" locus_tag="DMX09_RS00785" class="clusterblast-orf" id="dummy-1_h1_10_0"  />
</g>
<g id="a1_001"  >
<polygon points="106,85 111,80 245,80 245,90 111,90 106,85 " style="fill:#d81515; stroke-width:1; stroke:black; " description="&lt;b&gt;DMX09_RS00790&lt;/b&gt;&lt;br&gt;bifunctional alpha/beta hydrolase/class I SAM-dependent methyltransferase&lt;br&gt;Location: 157885 - 159642&lt;br&gt;&lt;br&gt;&lt;b&gt;BlastP hit with MCIC6FC_022474&lt;/b&gt;&lt;br&gt;Percentage identity: 80&lt;br&gt;Percentage coverage: 43&lt;br&gt;BLAST bit score: 883&lt;br&gt;E-value: 3.8e-254" locus_tag="DMX09_RS00790" class="clusterblast-orf" id="dummy-1_h1_10_1"  />
</g>
<g id="a1_002"  >
<polygon points="246,85 251,80 295,80 295,90 251,90 246,85 " style="fill:#d81515; stroke-width:1; stroke:black; " description="&lt;b&gt;DMX09_RS00795&lt;/b&gt;&lt;br&gt;CDP-alcohol phosphatidyltransferase family protein&lt;br&gt;Location: 159653 - 160276&lt;br&gt;&lt;br&gt;&lt;b&gt;BlastP hit with MCIC6FC_022474&lt;/b&gt;&lt;br&gt;Percentage identity: 85&lt;br&gt;Percentage coverage: 15&lt;br&gt;BLAST bit score: 321&lt;br&gt;E-value: 4.4e-85" locus_tag="DMX09_RS00795" class="clusterblast-orf" id="dummy-1_h1_10_2"  />
</g>
<g id="a1_003"  >
<polygon points="332,90 340,90 345,85 340,80 332,80 332,90 " style="fill:white; stroke-width:1; stroke:black; " description="&lt;b&gt;DMX09_RS30400&lt;/b&gt;&lt;br&gt;hypothetical protein&lt;br&gt;Location: 160747 - 160905" locus_tag="DMX09_RS30400" class="clusterblast-orf" id="dummy-1_h1_10_3"  />
</g>
<g id="a1_004"  >
<polygon points="357,90 371,90 376,85 371,80 357,80 357,90 " style="fill:white; stroke-width:1; stroke:black; " description="&lt;b&gt;DMX09_RS00800&lt;/b&gt;&lt;br&gt;hypothetical protein&lt;br&gt;Location: 161053 - 161304" locus_tag="DMX09_RS00800" class="clusterblast-orf" id="dummy-1_h1_10_4"  />
</g>
<g id="a1_005"  >
<polygon points="382,90 444,90 449,85 444,80 382,80 382,90 " style="fill:#15d863; stroke-width:1; stroke:black; " description="&lt;b&gt;DMX09_RS00805&lt;/b&gt;&lt;br&gt;DUF692 domain-containing protein&lt;br&gt;Location: 161370 - 162215&lt;br&gt;&lt;br&gt;&lt;b&gt;BlastP hit with MCIC6FC_022475&lt;/b&gt;&lt;br&gt;Percentage identity: 81&lt;br&gt;Percentage coverage: 39&lt;br&gt;BLAST bit score: 433&lt;br&gt;E-value: 4.9e-119" locus_tag="DMX09_RS00805" class="clusterblast-orf" id="dummy-1_h1_10_5"  />
</g>
<g id="a1_006"  >
<polygon points="448,90 508,90 513,85 508,80 448,80 448,90 " style="fill:#15d863; stroke-width:1; stroke:black; " description="&lt;b&gt;DMX09_RS00810&lt;/b&gt;&lt;br&gt;putative DNA-binding domain-containing protein&lt;br&gt;Location: 162206 - 163024&lt;br&gt;&lt;br&gt;&lt;b&gt;BlastP hit with MCIC6FC_022475&lt;/b&gt;&lt;br&gt;Percentage identity: 61&lt;br&gt;Percentage coverage: 42&lt;br&gt;BLAST bit score: 319&lt;br&gt;E-value: 6e-85" locus_tag="DMX09_RS00810" class="clusterblast-orf" id="dummy-1_h1_10_6"  />
</g>
<g id="a1_007"  >
<polygon points="517,90 606,90 611,85 606,80 517,80 517,90 " style="fill:#1563d8; stroke-width:1; stroke:black; " description="&lt;b&gt;DMX09_RS00815&lt;/b&gt;&lt;br&gt;class I SAM-dependent methyltransferase&lt;br&gt;Location: 163079 - 164266&lt;br&gt;&lt;br&gt;&lt;b&gt;BlastP hit with MCIC6FC_022476&lt;/b&gt;&lt;br&gt;Percentage identity: 87&lt;br&gt;Percentage coverage: 100&lt;br&gt;BLAST bit score: 726&lt;br&gt;E-value: 1.4e-207" locus_tag="DMX09_RS00815" class="clusterblast-orf" id="dummy-1_h1_10_7"  />
</g>
<g id="a1_008"  >
<polygon points="614,85 619,80 728,80 728,90 619,90 614,85 " style="fill:#b115d8; stroke-width:1; stroke:black; " description="&lt;b&gt;DMX09_RS00820&lt;/b&gt;&lt;br&gt;cardiolipin synthase&lt;br&gt;Location: 164303 - 165742&lt;br&gt;&lt;br&gt;&lt;b&gt;BlastP hit with MCIC6FC_022477&lt;/b&gt;&lt;br&gt;Percentage identity: 86&lt;br&gt;Percentage coverage: 100&lt;br&gt;BLAST bit score: 836&lt;br&gt;E-value: 1.5e-240" locus_tag="DMX09_RS00820" class="clusterblast-orf" id="dummy-1_h1_10_8"  />
</g>
<g id="a1_009"  >
<polygon points="738,90 775,90 780,85 775,80 738,80 738,90 " style="fill:#b1d815; stroke-width:1; stroke:black; " description="&lt;b&gt;DMX09_RS00825&lt;/b&gt;&lt;br&gt;DUF3617 domain-containing protein&lt;br&gt;Location: 165875 - 166399&lt;br&gt;&lt;br&gt;&lt;b&gt;BlastP hit with MCIC6FC_022478&lt;/b&gt;&lt;br&gt;Percentage identity: 82&lt;br&gt;Percentage coverage: 100&lt;br&gt;BLAST bit score: 141&lt;br&gt;E-value: 5.2e-32" locus_tag="DMX09_RS00825" class="clusterblast-orf" id="dummy-1_h1_10_9"  />
</g>
</svg>
