<svg xmlns="http://www.w3.org/2000/svg" xmlns:xlink="http://www.w3.org/1999/xlink" version="1.1" x="0" y="0" height="230" width="800" viewBox="0 0 800 230" preserveAspectRatio="none"  >
<g label="Query sequence" class="clusterblast-cluster"  >
<text x="5" y="20" class="clusterblast-acc"  >
Query sequence</text>
<line x1="10" y1="35" x2="778.0" y2="35" style="stroke-width:1; stroke:grey; "  />
<polygon points="109,40 313,40 318,35 313,30 109,30 109,40 " style="fill:#d81515; stroke-width:1; stroke:black; " description="&lt;b&gt;MCIC6FC_022620&lt;/b&gt;&lt;br&gt;hypothetical protein&lt;br&gt;Location: 222 - 2660" locus_tag="MCIC6FC_022620" class="clusterblast-orf" id="dummy-1_q0_0_all"  />
<polygon points="319,35 324,30 398,30 398,40 324,40 319,35 " style="fill:#77d815; stroke-width:1; stroke:black; " description="&lt;b&gt;MCIC6FC_022621&lt;/b&gt;&lt;br&gt;hypothetical protein&lt;br&gt;Location: 2670 - 3585" locus_tag="MCIC6FC_022621" class="clusterblast-orf" id="dummy-1_q1_0_all"  />
<polygon points="407,40 519,40 524,35 519,30 407,30 407,40 " style="fill:#15d8d8; stroke-width:1; stroke:black; " description="&lt;b&gt;MCIC6FC_022622&lt;/b&gt;&lt;br&gt;hypothetical protein&lt;br&gt;Location: 3688 - 5057" locus_tag="MCIC6FC_022622" class="clusterblast-orf" id="dummy-1_q2_0_all"  />
<polygon points="533,40 667,40 672,35 667,30 533,30 533,40 " style="fill:#7715d8; stroke-width:1; stroke:black; " description="&lt;b&gt;MCIC6FC_022623&lt;/b&gt;&lt;br&gt;hypothetical protein&lt;br&gt;Location: 5163 - 6777" locus_tag="MCIC6FC_022623" class="clusterblast-orf" id="dummy-1_q3_0_all"  />
</g>
<g label="NZ_CP011567" description="NZ_CP011567 (5090507-5099599): Pseudomonas sp. GR 6-02 chromosome, complete g... (50% of genes show similarity), bacteriocin" class="clusterblast-cluster"  >
<text x="5" y="70" class="clusterblast-acc"  >
<a xlink:href="https://antismash-db.secondarymetabolites.org/area.html?record=NZ_CP011567&amp;start=5090507&amp;end=5099599" target="_blank">NZ_CP011567 (5090507-5099599)</a>: Pseudomonas sp. GR 6-02 chromosome, complete g... (50% of genes show similarity), bacteriocin</text>
<line x1="10" y1="85" x2="778.0" y2="85" style="stroke-width:1; stroke:grey; "  />
</g>
<g id="a1_000"  >
<polygon points="0,90 102,90 107,85 102,80 0,80 0,90 " style="fill:white; stroke-width:1; stroke:black; " description="&lt;b&gt;PGR6_RS22355&lt;/b&gt;&lt;br&gt;high-affinity branched-chain amino acid ABC transporter permease LivM&lt;br&gt;Location: 5090508 - 5091764" locus_tag="PGR6_RS22355" class="clusterblast-orf" id="dummy-1_h1_5_0"  />
</g>
<g id="a1_001"  >
<polygon points="107,90 168,90 173,85 168,80 107,80 107,90 " style="fill:white; stroke-width:1; stroke:black; " description="&lt;b&gt;PGR6_RS22360&lt;/b&gt;&lt;br&gt;high-affinity branched-chain amino acid ABC transporter ATP-binding protein LivG&lt;br&gt;Location: 5091761 - 5092528" locus_tag="PGR6_RS22360" class="clusterblast-orf" id="dummy-1_h1_5_1"  />
</g>
<g id="a1_002"  >
<polygon points="173,90 228,90 233,85 228,80 173,80 173,90 " style="fill:white; stroke-width:1; stroke:black; " description="&lt;b&gt;PGR6_RS22365&lt;/b&gt;&lt;br&gt;ABC transporter ATP-binding protein&lt;br&gt;Location: 5092529 - 5093230" locus_tag="PGR6_RS22365" class="clusterblast-orf" id="dummy-1_h1_5_2"  />
</g>
<g id="a1_003"  >
<polygon points="251,90 281,90 286,85 281,80 251,80 251,90 " style="fill:white; stroke-width:1; stroke:black; " description="&lt;b&gt;PGR6_RS22370&lt;/b&gt;&lt;br&gt;hypothetical protein&lt;br&gt;Location: 5093445 - 5093849" locus_tag="PGR6_RS22370" class="clusterblast-orf" id="dummy-1_h1_5_3"  />
</g>
<g id="a1_004"  >
<polygon points="286,90 340,90 345,85 340,80 286,80 286,90 " style="fill:white; stroke-width:1; stroke:black; " description="&lt;b&gt;PGR6_RS22375&lt;/b&gt;&lt;br&gt;RES family NAD+ phosphorylase&lt;br&gt;Location: 5093843 - 5094535" locus_tag="PGR6_RS22375" class="clusterblast-orf" id="dummy-1_h1_5_4"  />
</g>
<g id="a1_005"  >
<polygon points="364,90 385,90 390,85 385,80 364,80 364,90 " style="fill:white; stroke-width:1; stroke:black; " description="&lt;b&gt;PGR6_RS22380&lt;/b&gt;&lt;br&gt;DUF2282 domain-containing protein&lt;br&gt;Location: 5094752 - 5095057" locus_tag="PGR6_RS22380" class="clusterblast-orf" id="dummy-1_h1_5_5"  />
</g>
<g id="a1_006"  >
<polygon points="392,90 460,90 465,85 460,80 392,80 392,90 " style="fill:#d81515; stroke-width:1; stroke:black; " description="&lt;b&gt;PGR6_RS22385&lt;/b&gt;&lt;br&gt;DUF692 domain-containing protein&lt;br&gt;Location: 5095084 - 5095938&lt;br&gt;&lt;br&gt;&lt;b&gt;BlastP hit with MCIC6FC_022620&lt;/b&gt;&lt;br&gt;Percentage identity: 86&lt;br&gt;Percentage coverage: 38&lt;br&gt;BLAST bit score: 498&lt;br&gt;E-value: 1.1e-138" locus_tag="PGR6_RS22385" class="clusterblast-orf" id="dummy-1_h1_5_6"  />
</g>
<g id="a1_007"  >
<polygon points="465,90 525,90 530,85 525,80 465,80 465,90 " style="fill:#d81515; stroke-width:1; stroke:black; " description="&lt;b&gt;PGR6_RS22390&lt;/b&gt;&lt;br&gt;putative DNA-binding domain-containing protein&lt;br&gt;Location: 5095935 - 5096696&lt;br&gt;&lt;br&gt;&lt;b&gt;BlastP hit with MCIC6FC_022620&lt;/b&gt;&lt;br&gt;Percentage identity: 62&lt;br&gt;Percentage coverage: 33&lt;br&gt;BLAST bit score: 275&lt;br&gt;E-value: 2e-71" locus_tag="PGR6_RS22390" class="clusterblast-orf" id="dummy-1_h1_5_7"  />
</g>
<g id="a1_008"  >
<polygon points="530,90 567,90 572,85 567,80 530,80 530,90 " style="fill:#d81515; stroke-width:1; stroke:black; " description="&lt;b&gt;PGR6_RS22395&lt;/b&gt;&lt;br&gt;DoxX family protein&lt;br&gt;Location: 5096693 - 5097178&lt;br&gt;&lt;br&gt;&lt;b&gt;BlastP hit with MCIC6FC_022620&lt;/b&gt;&lt;br&gt;Percentage identity: 78&lt;br&gt;Percentage coverage: 20&lt;br&gt;BLAST bit score: 224&lt;br&gt;E-value: 4.1e-56" locus_tag="PGR6_RS22395" class="clusterblast-orf" id="dummy-1_h1_5_8"  />
</g>
<g id="a1_009"  >
<polygon points="575,85 580,80 654,80 654,90 580,90 575,85 " style="fill:#77d815; stroke-width:1; stroke:black; " description="&lt;b&gt;PGR6_RS22400&lt;/b&gt;&lt;br&gt;LysR family transcriptional regulator&lt;br&gt;Location: 5097220 - 5098134&lt;br&gt;&lt;br&gt;&lt;b&gt;BlastP hit with MCIC6FC_022621&lt;/b&gt;&lt;br&gt;Percentage identity: 88&lt;br&gt;Percentage coverage: 100&lt;br&gt;BLAST bit score: 533&lt;br&gt;E-value: 1.7e-149" locus_tag="PGR6_RS22400" class="clusterblast-orf" id="dummy-1_h1_5_9"  />
</g>
<g id="a1_0010"  >
<polygon points="663,90 709,90 714,85 709,80 663,80 663,90 " style="fill:#15d8d8; stroke-width:1; stroke:black; " description="&lt;b&gt;PGR6_RS22405&lt;/b&gt;&lt;br&gt;short chain dehydrogenase&lt;br&gt;Location: 5098241 - 5098840&lt;br&gt;&lt;br&gt;&lt;b&gt;BlastP hit with MCIC6FC_022622&lt;/b&gt;&lt;br&gt;Percentage identity: 85&lt;br&gt;Percentage coverage: 46&lt;br&gt;BLAST bit score: 328&lt;br&gt;E-value: 1.2e-87" locus_tag="PGR6_RS22405" class="clusterblast-orf" id="dummy-1_h1_5_10"  />
</g>
<g id="a1_0011"  >
<polygon points="722,90 775,90 780,85 775,80 722,80 722,90 " style="fill:#15d8d8; stroke-width:1; stroke:black; " description="&lt;b&gt;PGR6_RS22410&lt;/b&gt;&lt;br&gt;hypothetical protein&lt;br&gt;Location: 5098934 - 5099599&lt;br&gt;&lt;br&gt;&lt;b&gt;BlastP hit with MCIC6FC_022622&lt;/b&gt;&lt;br&gt;Percentage identity: 66&lt;br&gt;Percentage coverage: 52&lt;br&gt;BLAST bit score: 303&lt;br&gt;E-value: 4e-80" locus_tag="PGR6_RS22410" class="clusterblast-orf" id="dummy-1_h1_5_11"  />
</g>
</svg>
