<svg xmlns="http://www.w3.org/2000/svg" xmlns:xlink="http://www.w3.org/1999/xlink" version="1.1" x="0" y="0" height="230" width="800" viewBox="0 0 800 230" preserveAspectRatio="none"  >
<g label="Query sequence" class="clusterblast-cluster"  >
<text x="5" y="20" class="clusterblast-acc"  >
Query sequence</text>
<line x1="10" y1="35" x2="778.0" y2="35" style="stroke-width:1; stroke:grey; "  />
<polygon points="0,35 5,30 189,30 189,40 5,40 0,35 " style="fill:white; stroke-width:1; stroke:black; " description="&lt;b&gt;MCIC6FC_003336&lt;/b&gt;&lt;br&gt;hypothetical protein&lt;br&gt;Location: 693054 - 696792" locus_tag="MCIC6FC_003336" class="clusterblast-orf" id="dummy-2_q0_0_all"  />
<polygon points="201,40 401,40 406,35 401,30 201,30 201,40 " style="fill:#d81515; stroke-width:1; stroke:black; " description="&lt;b&gt;MCIC6FC_003337&lt;/b&gt;&lt;br&gt;hypothetical protein&lt;br&gt;Location: 697036 - 701078" locus_tag="MCIC6FC_003337" class="clusterblast-orf" id="dummy-2_q1_0_all"  />
<polygon points="408,40 497,40 502,35 497,30 408,30 408,40 " style="fill:#15d815; stroke-width:1; stroke:black; " description="&lt;b&gt;MCIC6FC_003338&lt;/b&gt;&lt;br&gt;hypothetical protein&lt;br&gt;Location: 701110 - 702979" locus_tag="MCIC6FC_003338" class="clusterblast-orf" id="dummy-2_q2_0_all"  />
<polygon points="509,40 602,40 607,35 602,30 509,30 509,40 " style="fill:#1515d8; stroke-width:1; stroke:black; " description="&lt;b&gt;MCIC6FC_003339&lt;/b&gt;&lt;br&gt;hypothetical protein&lt;br&gt;Location: 703116 - 705053" locus_tag="MCIC6FC_003339" class="clusterblast-orf" id="dummy-2_q3_0_all"  />
<polygon points="611,40 666,40 671,35 666,30 611,30 611,40 " style="fill:#d815d8; stroke-width:1; stroke:black; " description="&lt;b&gt;MCIC6FC_003340&lt;/b&gt;&lt;br&gt;hypothetical protein&lt;br&gt;Location: 705138 - 706326" locus_tag="MCIC6FC_003340" class="clusterblast-orf" id="dummy-2_q4_0_all"  />
<polygon points="680,35 685,30 744,30 744,40 685,40 680,35 " style="fill:#d8d815; stroke-width:1; stroke:black; " description="&lt;b&gt;MCIC6FC_003341&lt;/b&gt;&lt;br&gt;hypothetical protein&lt;br&gt;Location: 706490 - 707769" locus_tag="MCIC6FC_003341" class="clusterblast-orf" id="dummy-2_q5_0_all"  />
<polygon points="760,40 775,40 780,35 775,30 760,30 760,40 " style="fill:#15d8d8; stroke-width:1; stroke:black; " description="&lt;b&gt;MCIC6FC_003342&lt;/b&gt;&lt;br&gt;hypothetical protein&lt;br&gt;Location: 708075 - 708471" locus_tag="MCIC6FC_003342" class="clusterblast-orf" id="dummy-2_q6_0_all"  />
</g>
<g label="NZ_VIUN01000002" description="NZ_VIUN01000002 (582911-593757): Pseudomonas sp. SJZ103 Ga0314254 102, whole ... (88% of genes show similarity), bacteriocin" class="clusterblast-cluster"  >
<text x="5" y="70" class="clusterblast-acc"  >
<a xlink:href="https://antismash-db.secondarymetabolites.org/area.html?record=NZ_VIUN01000002&amp;start=582911&amp;end=593757" target="_blank">NZ_VIUN01000002 (582911-593757)</a>: Pseudomonas sp. SJZ103 Ga0314254 102, whole ... (88% of genes show similarity), bacteriocin</text>
<line x1="10" y1="85" x2="778.0" y2="85" style="stroke-width:1; stroke:grey; "  />
</g>
<g id="a2_000"  >
<polygon points="150,90 195,90 200,85 195,80 150,80 150,90 " style="fill:#d81515; stroke-width:1; stroke:black; " description="&lt;b&gt;FBY10_RS08010&lt;/b&gt;&lt;br&gt;protease modulator HflC&lt;br&gt;Location: 593095 - 592106&lt;br&gt;&lt;br&gt;&lt;b&gt;BlastP hit with MCIC6FC_003337&lt;/b&gt;&lt;br&gt;Percentage identity: 93&lt;br&gt;Percentage coverage: 23&lt;br&gt;BLAST bit score: 438&lt;br&gt;E-value: 2.4e-120" locus_tag="FBY10_RS08010" class="clusterblast-orf" id="dummy-2_h2_8_0"  />
</g>
<g id="a2_001"  >
<polygon points="200,90 247,90 252,85 247,80 200,80 200,90 " style="fill:#d81515; stroke-width:1; stroke:black; " description="&lt;b&gt;FBY10_RS08005&lt;/b&gt;&lt;br&gt;protease modulator HflK&lt;br&gt;Location: 592109 - 591075&lt;br&gt;&lt;br&gt;&lt;b&gt;BlastP hit with MCIC6FC_003337&lt;/b&gt;&lt;br&gt;Percentage identity: 85&lt;br&gt;Percentage coverage: 27&lt;br&gt;BLAST bit score: 436&lt;br&gt;E-value: 1.2e-119" locus_tag="FBY10_RS08005" class="clusterblast-orf" id="dummy-2_h2_8_1"  />
</g>
<g id="a2_002"  >
<polygon points="252,90 343,90 348,85 343,80 252,80 252,90 " style="fill:#15d815; stroke-width:1; stroke:black; " description="&lt;b&gt;FBY10_RS08000&lt;/b&gt;&lt;br&gt;cadmium-translocating P-type ATPase&lt;br&gt;Location: 591078 - 589192&lt;br&gt;&lt;br&gt;&lt;b&gt;BlastP hit with MCIC6FC_003338&lt;/b&gt;&lt;br&gt;Percentage identity: 89&lt;br&gt;Percentage coverage: 100&lt;br&gt;BLAST bit score: 933&lt;br&gt;E-value: 1.5e-269" locus_tag="FBY10_RS08000" class="clusterblast-orf" id="dummy-2_h2_8_2"  />
</g>
<g id="a2_003"  >
<polygon points="353,90 361,90 366,85 361,80 353,80 353,90 " style="fill:white; stroke-width:1; stroke:black; " description="&lt;b&gt;FBY10_RS07995&lt;/b&gt;&lt;br&gt;hypothetical protein&lt;br&gt;Location: 589075 - 588824" locus_tag="FBY10_RS07995" class="clusterblast-orf" id="dummy-2_h2_8_3"  />
</g>
<g id="a2_004"  >
<polygon points="370,90 407,90 412,85 407,80 370,80 370,90 " style="fill:#1515d8; stroke-width:1; stroke:black; " description="&lt;b&gt;FBY10_RS07990&lt;/b&gt;&lt;br&gt;DUF692 family protein&lt;br&gt;Location: 588757 - 587912&lt;br&gt;&lt;br&gt;&lt;b&gt;BlastP hit with MCIC6FC_003339&lt;/b&gt;&lt;br&gt;Percentage identity: 75&lt;br&gt;Percentage coverage: 47&lt;br&gt;BLAST bit score: 437&lt;br&gt;E-value: 1.9e-120" locus_tag="FBY10_RS07990" class="clusterblast-orf" id="dummy-2_h2_8_4"  />
</g>
<g id="a2_005"  >
<polygon points="412,90 447,90 452,85 447,80 412,80 412,90 " style="fill:#1515d8; stroke-width:1; stroke:black; " description="&lt;b&gt;FBY10_RS07985&lt;/b&gt;&lt;br&gt;putative DNA-binding domain-containing protein&lt;br&gt;Location: 587921 - 587133&lt;br&gt;&lt;br&gt;&lt;b&gt;BlastP hit with MCIC6FC_003339&lt;/b&gt;&lt;br&gt;Percentage identity: 62&lt;br&gt;Percentage coverage: 43&lt;br&gt;BLAST bit score: 330&lt;br&gt;E-value: 4.4e-88" locus_tag="FBY10_RS07985" class="clusterblast-orf" id="dummy-2_h2_8_5"  />
</g>
<g id="a2_006"  >
<polygon points="456,90 511,90 516,85 511,80 456,80 456,90 " style="fill:#d815d8; stroke-width:1; stroke:black; " description="&lt;b&gt;FBY10_RS07980&lt;/b&gt;&lt;br&gt;class I SAM-dependent methyltransferase&lt;br&gt;Location: 587044 - 585860&lt;br&gt;&lt;br&gt;&lt;b&gt;BlastP hit with MCIC6FC_003340&lt;/b&gt;&lt;br&gt;Percentage identity: 87&lt;br&gt;Percentage coverage: 99&lt;br&gt;BLAST bit score: 732&lt;br&gt;E-value: 2.5e-209" locus_tag="FBY10_RS07980" class="clusterblast-orf" id="dummy-2_h2_8_6"  />
</g>
<g id="a2_007"  >
<polygon points="523,85 528,80 596,80 596,90 528,90 523,85 " style="fill:#d8d815; stroke-width:1; stroke:black; " description="&lt;b&gt;FBY10_RS07975&lt;/b&gt;&lt;br&gt;cardiolipin synthase&lt;br&gt;Location: 585722 - 584283&lt;br&gt;&lt;br&gt;&lt;b&gt;BlastP hit with MCIC6FC_003341&lt;/b&gt;&lt;br&gt;Percentage identity: 87&lt;br&gt;Percentage coverage: 100&lt;br&gt;BLAST bit score: 745&lt;br&gt;E-value: 3e-213" locus_tag="FBY10_RS07975" class="clusterblast-orf" id="dummy-2_h2_8_7"  />
</g>
<g id="a2_008"  >
<polygon points="603,90 624,90 629,85 624,80 603,80 603,90 " style="fill:#15d8d8; stroke-width:1; stroke:black; " description="&lt;b&gt;FBY10_RS07970&lt;/b&gt;&lt;br&gt;DUF3617 domain-containing protein&lt;br&gt;Location: 584152 - 583631&lt;br&gt;&lt;br&gt;&lt;b&gt;BlastP hit with MCIC6FC_003342&lt;/b&gt;&lt;br&gt;Percentage identity: 81&lt;br&gt;Percentage coverage: 99&lt;br&gt;BLAST bit score: 226&lt;br&gt;E-value: 1.9e-57" locus_tag="FBY10_RS07970" class="clusterblast-orf" id="dummy-2_h2_8_8"  />
</g>
</svg>
