<svg xmlns="http://www.w3.org/2000/svg" xmlns:xlink="http://www.w3.org/1999/xlink" version="1.1" x="0" y="0" height="230" width="800" viewBox="0 0 800 230" preserveAspectRatio="none"  >
<g label="Query sequence" class="clusterblast-cluster"  >
<text x="5" y="20" class="clusterblast-acc"  >
Query sequence</text>
<line x1="10" y1="35" x2="778.0" y2="35" style="stroke-width:1; stroke:grey; "  />
<polygon points="96,35 101,30 125,30 125,40 101,40 96,35 " style="fill:white; stroke-width:1; stroke:black; " description="&lt;b&gt;MCIC6FC_019729&lt;/b&gt;&lt;br&gt;hypothetical protein&lt;br&gt;Location: 48 - 1635" locus_tag="MCIC6FC_019729" class="clusterblast-orf" id="dummy-1_q0_0_all"  />
<polygon points="171,40 307,40 312,35 307,30 171,30 171,40 " style="fill:#d81515; stroke-width:1; stroke:black; " description="&lt;b&gt;MCIC6FC_019730&lt;/b&gt;&lt;br&gt;hypothetical protein&lt;br&gt;Location: 4097 - 11627" locus_tag="MCIC6FC_019730" class="clusterblast-orf" id="dummy-1_q1_0_all"  />
<polygon points="313,35 318,30 320,30 320,40 318,40 313,35 " style="fill:#15d815; stroke-width:1; stroke:black; " description="&lt;b&gt;MCIC6FC_019731&lt;/b&gt;&lt;br&gt;hypothetical protein&lt;br&gt;Location: 11643 - 12033" locus_tag="MCIC6FC_019731" class="clusterblast-orf" id="dummy-1_q2_0_all"  />
<polygon points="326,35 331,30 391,30 391,40 331,40 326,35 " style="fill:#1597d8; stroke-width:1; stroke:black; " description="&lt;b&gt;MCIC6FC_019732&lt;/b&gt;&lt;br&gt;hypothetical protein&lt;br&gt;Location: 12371 - 15823" locus_tag="MCIC6FC_019732" class="clusterblast-orf" id="dummy-1_q3_0_all"  />
<polygon points="391,35 396,30 404,30 404,40 396,40 391,35 " style="fill:#9715d8; stroke-width:1; stroke:black; " description="&lt;b&gt;MCIC6FC_019733&lt;/b&gt;&lt;br&gt;hypothetical protein&lt;br&gt;Location: 15848 - 16554" locus_tag="MCIC6FC_019733" class="clusterblast-orf" id="dummy-1_q4_0_all"  />
<polygon points="405,35 410,30 477,30 477,40 410,40 405,35 " style="fill:#9715d8; stroke-width:1; stroke:black; " description="&lt;b&gt;MCIC6FC_019734&lt;/b&gt;&lt;br&gt;hypothetical protein&lt;br&gt;Location: 16577 - 20450" locus_tag="MCIC6FC_019734" class="clusterblast-orf" id="dummy-1_q5_0_all"  />
<polygon points="479,35 484,30 494,30 494,40 484,40 479,35 " style="fill:#9715d8; stroke-width:1; stroke:black; " description="&lt;b&gt;MCIC6FC_019735&lt;/b&gt;&lt;br&gt;hypothetical protein&lt;br&gt;Location: 20551 - 21340" locus_tag="MCIC6FC_019735" class="clusterblast-orf" id="dummy-1_q6_0_all"  />
<polygon points="495,35 500,30 509,30 509,40 500,40 495,35 " style="fill:#d89715; stroke-width:1; stroke:black; " description="&lt;b&gt;MCIC6FC_019736&lt;/b&gt;&lt;br&gt;hypothetical protein&lt;br&gt;Location: 21424 - 22154" locus_tag="MCIC6FC_019736" class="clusterblast-orf" id="dummy-1_q7_0_all"  />
<polygon points="510,35 515,30 521,30 521,40 515,40 510,35 " style="fill:#d89715; stroke-width:1; stroke:black; " description="&lt;b&gt;MCIC6FC_019737&lt;/b&gt;&lt;br&gt;hypothetical protein&lt;br&gt;Location: 22198 - 22796" locus_tag="MCIC6FC_019737" class="clusterblast-orf" id="dummy-1_q8_0_all"  />
<polygon points="524,35 529,30 598,30 598,40 529,40 524,35 " style="fill:#15d897; stroke-width:1; stroke:black; " description="&lt;b&gt;MCIC6FC_019738&lt;/b&gt;&lt;br&gt;hypothetical protein&lt;br&gt;Location: 22971 - 26914" locus_tag="MCIC6FC_019738" class="clusterblast-orf" id="dummy-1_q9_0_all"  />
<polygon points="598,35 603,30 629,30 629,40 603,40 598,35 " style="fill:#1515d8; stroke-width:1; stroke:black; " description="&lt;b&gt;MCIC6FC_019739&lt;/b&gt;&lt;br&gt;hypothetical protein&lt;br&gt;Location: 26943 - 28602" locus_tag="MCIC6FC_019739" class="clusterblast-orf" id="dummy-1_q10_0_all"  />
<polygon points="633,35 638,30 644,30 644,40 638,40 633,35 " style="fill:#d81597; stroke-width:1; stroke:black; " description="&lt;b&gt;MCIC6FC_019740&lt;/b&gt;&lt;br&gt;hypothetical protein&lt;br&gt;Location: 28808 - 29406" locus_tag="MCIC6FC_019740" class="clusterblast-orf" id="dummy-1_q11_0_all"  />
<polygon points="647,40 679,40 684,35 679,30 647,30 647,40 " style="fill:#97d815; stroke-width:1; stroke:black; " description="&lt;b&gt;MCIC6FC_019741&lt;/b&gt;&lt;br&gt;hypothetical protein&lt;br&gt;Location: 29521 - 31499" locus_tag="MCIC6FC_019741" class="clusterblast-orf" id="dummy-1_q12_0_all"  />
</g>
<g label="NC_016514" description="NC_016514 (4400849-4444443): Enterobacter ludwigii, complete sequence (52% of genes show similarity), arylpolyene" class="clusterblast-cluster"  >
<text x="5" y="70" class="clusterblast-acc"  >
<a xlink:href="https://antismash-db.secondarymetabolites.org/area.html?record=NC_016514&amp;start=4400849&amp;end=4444443" target="_blank">NC_016514 (4400849-4444443)</a>: Enterobacter ludwigii, complete sequence (52% of genes show similarity), arylpolyene</text>
<line x1="10" y1="85" x2="778.0" y2="85" style="stroke-width:1; stroke:grey; "  />
</g>
<g id="a1_000"  >
<polygon points="0,90 17,90 22,85 17,80 0,80 0,90 " style="fill:white; stroke-width:1; stroke:black; " description="&lt;b&gt;ECWSU1_RS21305&lt;/b&gt;&lt;br&gt;NAD(P)/FAD-dependent oxidoreductase&lt;br&gt;Location: 4443675 - 4442479" locus_tag="ECWSU1_RS21305" class="clusterblast-orf" id="dummy-1_h1_6_0"  />
</g>
<g id="a1_001"  >
<polygon points="22,85 27,80 40,80 40,90 27,90 22,85 " style="fill:white; stroke-width:1; stroke:black; " description="&lt;b&gt;ECWSU1_RS21300&lt;/b&gt;&lt;br&gt;hypothetical protein&lt;br&gt;Location: 4442446 - 4441508" locus_tag="ECWSU1_RS21300" class="clusterblast-orf" id="dummy-1_h1_6_1"  />
</g>
<g id="a1_002"  >
<polygon points="40,85 45,80 53,80 53,90 45,90 40,85 " style="fill:white; stroke-width:1; stroke:black; " description="&lt;b&gt;ECWSU1_RS21295&lt;/b&gt;&lt;br&gt;diguanylate cyclase&lt;br&gt;Location: 4441508 - 4440816" locus_tag="ECWSU1_RS21295" class="clusterblast-orf" id="dummy-1_h1_6_2"  />
</g>
<g id="a1_003"  >
<polygon points="56,90 65,90 70,85 65,80 56,80 56,90 " style="fill:white; stroke-width:1; stroke:black; " description="&lt;b&gt;ECWSU1_RS21290&lt;/b&gt;&lt;br&gt;IclR family transcriptional regulator&lt;br&gt;Location: 4440646 - 4439909" locus_tag="ECWSU1_RS21290" class="clusterblast-orf" id="dummy-1_h1_6_3"  />
</g>
<g id="a1_004"  >
<polygon points="71,85 76,80 96,80 96,90 76,90 71,85 " style="fill:white; stroke-width:1; stroke:black; " description="&lt;b&gt;ECWSU1_RS21285&lt;/b&gt;&lt;br&gt;MFS transporter&lt;br&gt;Location: 4439871 - 4438537" locus_tag="ECWSU1_RS21285" class="clusterblast-orf" id="dummy-1_h1_6_4"  />
</g>
<g id="a1_005"  >
<polygon points="102,90 104,90 109,85 104,80 102,80 102,90 " style="fill:white; stroke-width:1; stroke:black; " description="&lt;b&gt;ECWSU1_RS21280&lt;/b&gt;&lt;br&gt;two pore domain potassium channel family protein&lt;br&gt;Location: 4438202 - 4437804" locus_tag="ECWSU1_RS21280" class="clusterblast-orf" id="dummy-1_h1_6_5"  />
</g>
<g id="a1_006"  >
<polygon points="112,90 127,90 132,85 127,80 112,80 112,90 " style="fill:white; stroke-width:1; stroke:black; " description="&lt;b&gt;ECWSU1_RS21275&lt;/b&gt;&lt;br&gt;TerC/Alx family metal homeostasis membrane protein&lt;br&gt;Location: 4437638 - 4436610" locus_tag="ECWSU1_RS21275" class="clusterblast-orf" id="dummy-1_h1_6_6"  />
</g>
<g id="a1_007"  >
<polygon points="132,85 137,80 145,80 145,90 137,90 132,85 " style="fill:white; stroke-width:1; stroke:black; " description="&lt;b&gt;ECWSU1_RS21270&lt;/b&gt;&lt;br&gt;HAD family hydrolase&lt;br&gt;Location: 4436564 - 4435902" locus_tag="ECWSU1_RS21270" class="clusterblast-orf" id="dummy-1_h1_6_7"  />
</g>
<g id="a1_008"  >
<polygon points="149,90 154,90 159,85 154,80 149,80 149,90 " style="fill:white; stroke-width:1; stroke:black; " description="&lt;b&gt;ECWSU1_RS21265&lt;/b&gt;&lt;br&gt;C40 family peptidase&lt;br&gt;Location: 4435661 - 4435134" locus_tag="ECWSU1_RS21265" class="clusterblast-orf" id="dummy-1_h1_6_8"  />
</g>
<g id="a1_009"  >
<polygon points="159,85 164,80 174,80 174,90 164,90 159,85 " style="fill:white; stroke-width:1; stroke:black; " description="&lt;b&gt;ECWSU1_RS21260&lt;/b&gt;&lt;br&gt;SDR family NAD(P)-dependent oxidoreductase&lt;br&gt;Location: 4435129 - 4434335" locus_tag="ECWSU1_RS21260" class="clusterblast-orf" id="dummy-1_h1_6_9"  />
</g>
<g id="a1_0010"  >
<polygon points="175,85 180,80 191,80 191,90 180,90 175,85 " style="fill:white; stroke-width:1; stroke:black; " description="&lt;b&gt;ECWSU1_RS21255&lt;/b&gt;&lt;br&gt;LysR family transcriptional regulator&lt;br&gt;Location: 4434301 - 4433420" locus_tag="ECWSU1_RS21255" class="clusterblast-orf" id="dummy-1_h1_6_10"  />
</g>
<g id="a1_0011"  >
<polygon points="193,90 197,90 202,85 197,80 193,80 193,90 " style="fill:white; stroke-width:1; stroke:black; " description="&lt;b&gt;ECWSU1_RS21250&lt;/b&gt;&lt;br&gt;phenolic acid decarboxylase&lt;br&gt;Location: 4433320 - 4432814" locus_tag="ECWSU1_RS21250" class="clusterblast-orf" id="dummy-1_h1_6_11"  />
</g>
<g id="a1_0012"  >
<polygon points="210,90 227,90 232,85 227,80 210,80 210,90 " style="fill:#d81515; stroke-width:1; stroke:black; " description="&lt;b&gt;ECWSU1_RS21245&lt;/b&gt;&lt;br&gt;UDP-4-amino-4-deoxy-L-arabinose aminotransferase&lt;br&gt;Location: 4432386 - 4431247&lt;br&gt;&lt;br&gt;&lt;b&gt;BlastP hit with MCIC6FC_019730&lt;/b&gt;&lt;br&gt;Percentage identity: 80&lt;br&gt;Percentage coverage: 15&lt;br&gt;BLAST bit score: 514&lt;br&gt;E-value: 4.5e-143" locus_tag="ECWSU1_RS21245" class="clusterblast-orf" id="dummy-1_h1_6_12"  />
</g>
<g id="a1_0013"  >
<polygon points="232,90 245,90 250,85 245,80 232,80 232,90 " style="fill:#d81515; stroke-width:1; stroke:black; " description="&lt;b&gt;ECWSU1_RS21240&lt;/b&gt;&lt;br&gt;undecaprenyl-phosphate 4-deoxy-4-formamido-L-arabinose transferase&lt;br&gt;Location: 4431245 - 4430262&lt;br&gt;&lt;br&gt;&lt;b&gt;BlastP hit with MCIC6FC_019730&lt;/b&gt;&lt;br&gt;Percentage identity: 79&lt;br&gt;Percentage coverage: 14&lt;br&gt;BLAST bit score: 481&lt;br&gt;E-value: 5.5e-133" locus_tag="ECWSU1_RS21240" class="clusterblast-orf" id="dummy-1_h1_6_13"  />
</g>
<g id="a1_0014"  >
<polygon points="250,90 282,90 287,85 282,80 250,80 250,90 " style="fill:#d81515; stroke-width:1; stroke:black; " description="&lt;b&gt;ECWSU1_RS21235&lt;/b&gt;&lt;br&gt;bifunctional UDP-4-amino-4-deoxy-L-arabinose formyltransferase/UDP-glucuronic acid oxidase ArnA&lt;br&gt;Location: 4430265 - 4428283&lt;br&gt;&lt;br&gt;&lt;b&gt;BlastP hit with MCIC6FC_019730&lt;/b&gt;&lt;br&gt;Percentage identity: 73&lt;br&gt;Percentage coverage: 30&lt;br&gt;BLAST bit score: 956&lt;br&gt;E-value: 4.5e-276" locus_tag="ECWSU1_RS21235" class="clusterblast-orf" id="dummy-1_h1_6_14"  />
</g>
<g id="a1_0015"  >
<polygon points="287,90 299,90 304,85 299,80 287,80 287,90 " style="fill:#d81515; stroke-width:1; stroke:black; " description="&lt;b&gt;ECWSU1_RS21230&lt;/b&gt;&lt;br&gt;4-deoxy-4-formamido-L-arabinose- phosphoundecaprenol deformylase&lt;br&gt;Location: 4428286 - 4427384&lt;br&gt;&lt;br&gt;&lt;b&gt;BlastP hit with MCIC6FC_019730&lt;/b&gt;&lt;br&gt;Percentage identity: 52&lt;br&gt;Percentage coverage: 11&lt;br&gt;BLAST bit score: 230&lt;br&gt;E-value: 1.7e-57" locus_tag="ECWSU1_RS21230" class="clusterblast-orf" id="dummy-1_h1_6_15"  />
</g>
<g id="a1_0016"  >
<polygon points="304,90 330,90 335,85 330,80 304,80 304,90 " style="fill:#d81515; stroke-width:1; stroke:black; " description="&lt;b&gt;ECWSU1_RS21225&lt;/b&gt;&lt;br&gt;lipid IV(A) 4-amino-4-deoxy-L-arabinosyltransferase&lt;br&gt;Location: 4427387 - 4425732&lt;br&gt;&lt;br&gt;&lt;b&gt;BlastP hit with MCIC6FC_019730&lt;/b&gt;&lt;br&gt;Percentage identity: 40&lt;br&gt;Percentage coverage: 26&lt;br&gt;BLAST bit score: 324&lt;br&gt;E-value: 8.6e-86" locus_tag="ECWSU1_RS21225" class="clusterblast-orf" id="dummy-1_h1_6_16"  />
</g>
<g id="a1_0017"  >
<polygon points="335,90 336,90 341,85 336,80 335,80 335,90 " style="fill:white; stroke-width:1; stroke:black; " description="&lt;b&gt;ECWSU1_RS21220&lt;/b&gt;&lt;br&gt;4-amino-4-deoxy-L-arabinose-phosphoundecaprenol flippase subunit ArnE&lt;br&gt;Location: 4425735 - 4425397" locus_tag="ECWSU1_RS21220" class="clusterblast-orf" id="dummy-1_h1_6_17"  />
</g>
<g id="a1_0018"  >
<polygon points="341,90 344,90 349,85 344,80 341,80 341,90 " style="fill:white; stroke-width:1; stroke:black; " description="&lt;b&gt;ECWSU1_RS21215&lt;/b&gt;&lt;br&gt;4-amino-4-deoxy-L-arabinose-phospho-UDP flippase&lt;br&gt;Location: 4425400 - 4424996" locus_tag="ECWSU1_RS21215" class="clusterblast-orf" id="dummy-1_h1_6_18"  />
</g>
<g id="a1_0019"  >
<polygon points="348,85 353,80 359,80 359,90 353,90 348,85 " style="fill:#15d815; stroke-width:1; stroke:black; " description="&lt;b&gt;ECWSU1_RS21210&lt;/b&gt;&lt;br&gt;4'-phosphopantetheinyl transferase AcpT&lt;br&gt;Location: 4425039 - 4424446&lt;br&gt;&lt;br&gt;&lt;b&gt;BlastP hit with MCIC6FC_019731&lt;/b&gt;&lt;br&gt;Percentage identity: 64&lt;br&gt;Percentage coverage: 92&lt;br&gt;BLAST bit score: 144&lt;br&gt;E-value: 9.5e-33" locus_tag="ECWSU1_RS21210" class="clusterblast-orf" id="dummy-1_h1_6_19"  />
</g>
<g id="a1_0020"  >
<polygon points="359,85 364,80 382,80 382,90 364,90 359,85 " style="fill:#1597d8; stroke-width:1; stroke:black; " description="&lt;b&gt;ECWSU1_RS21205&lt;/b&gt;&lt;br&gt;beta-ketoacyl-ACP synthase&lt;br&gt;Location: 4424443 - 4423214&lt;br&gt;&lt;br&gt;&lt;b&gt;BlastP hit with MCIC6FC_019732&lt;/b&gt;&lt;br&gt;Percentage identity: 68&lt;br&gt;Percentage coverage: 36&lt;br&gt;BLAST bit score: 445&lt;br&gt;E-value: 1.2e-122" locus_tag="ECWSU1_RS21205" class="clusterblast-orf" id="dummy-1_h1_6_20"  />
</g>
<g id="a1_0021"  >
<polygon points="382,85 387,80 395,80 395,90 387,90 382,85 " style="fill:#1597d8; stroke-width:1; stroke:black; " description="&lt;b&gt;ECWSU1_RS21200&lt;/b&gt;&lt;br&gt;3-oxoacyl-ACP reductase FabG&lt;br&gt;Location: 4423217 - 4422486&lt;br&gt;&lt;br&gt;&lt;b&gt;BlastP hit with MCIC6FC_019732&lt;/b&gt;&lt;br&gt;Percentage identity: 73&lt;br&gt;Percentage coverage: 24&lt;br&gt;BLAST bit score: 324&lt;br&gt;E-value: 4e-86" locus_tag="ECWSU1_RS21200" class="clusterblast-orf" id="dummy-1_h1_6_21"  />
</g>
<g id="a1_0022"  >
<polygon points="395,85 400,80 404,80 404,90 400,90 395,85 " style="fill:white; stroke-width:1; stroke:black; " description="&lt;b&gt;ECWSU1_RS21195&lt;/b&gt;&lt;br&gt;3-hydroxy-fatty acyl-ACP dehydratase&lt;br&gt;Location: 4422489 - 4422016" locus_tag="ECWSU1_RS21195" class="clusterblast-orf" id="dummy-1_h1_6_22"  />
</g>
<g id="a1_0023"  >
<polygon points="404,85 409,80 426,80 426,90 409,90 404,85 " style="fill:#1597d8; stroke-width:1; stroke:black; " description="&lt;b&gt;ECWSU1_RS21190&lt;/b&gt;&lt;br&gt;beta-ketoacyl-[acyl-carrier-protein] synthase family protein&lt;br&gt;Location: 4422019 - 4420850&lt;br&gt;&lt;br&gt;&lt;b&gt;BlastP hit with MCIC6FC_019732&lt;/b&gt;&lt;br&gt;Percentage identity: 64&lt;br&gt;Percentage coverage: 38&lt;br&gt;BLAST bit score: 443&lt;br&gt;E-value: 4.5e-122" locus_tag="ECWSU1_RS21190" class="clusterblast-orf" id="dummy-1_h1_6_23"  />
</g>
<g id="a1_0024"  >
<polygon points="426,85 431,80 437,80 437,90 431,90 426,85 " style="fill:#9715d8; stroke-width:1; stroke:black; " description="&lt;b&gt;ECWSU1_RS21185&lt;/b&gt;&lt;br&gt;DUF3261 domain-containing protein&lt;br&gt;Location: 4420848 - 4420270&lt;br&gt;&lt;br&gt;&lt;b&gt;BlastP hit with MCIC6FC_019733&lt;/b&gt;&lt;br&gt;Percentage identity: 65&lt;br&gt;Percentage coverage: 86&lt;br&gt;BLAST bit score: 245&lt;br&gt;E-value: 5.2e-63" locus_tag="ECWSU1_RS21185" class="clusterblast-orf" id="dummy-1_h1_6_24"  />
</g>
<g id="a1_0025"  >
<polygon points="437,85 442,80 480,80 480,90 442,90 437,85 " style="fill:#9715d8; stroke-width:1; stroke:black; " description="&lt;b&gt;ECWSU1_RS21180&lt;/b&gt;&lt;br&gt;MMPL family transporter&lt;br&gt;Location: 4420273 - 4417949&lt;br&gt;&lt;br&gt;&lt;b&gt;BlastP hit with MCIC6FC_019733&lt;/b&gt;&lt;br&gt;Percentage identity: 83&lt;br&gt;Percentage coverage: 18&lt;br&gt;BLAST bit score: 64&lt;br&gt;E-value: 1.3e-08&lt;br&gt;&lt;br&gt;&lt;b&gt;BlastP hit with MCIC6FC_019734&lt;/b&gt;&lt;br&gt;Percentage identity: 72&lt;br&gt;Percentage coverage: 59&lt;br&gt;BLAST bit score: 902&lt;br&gt;E-value: 4.1e-260" locus_tag="ECWSU1_RS21180" class="clusterblast-orf" id="dummy-1_h1_6_25"  />
</g>
<g id="a1_0026"  >
<polygon points="480,85 485,80 491,80 491,90 485,90 480,85 " style="fill:#9715d8; stroke-width:1; stroke:black; " description="&lt;b&gt;ECWSU1_RS21175&lt;/b&gt;&lt;br&gt;outer membrane lipoprotein carrier protein LolA&lt;br&gt;Location: 4417980 - 4417375&lt;br&gt;&lt;br&gt;&lt;b&gt;BlastP hit with MCIC6FC_019734&lt;/b&gt;&lt;br&gt;Percentage identity: 79&lt;br&gt;Percentage coverage: 13&lt;br&gt;BLAST bit score: 253&lt;br&gt;E-value: 1.3e-64" locus_tag="ECWSU1_RS21175" class="clusterblast-orf" id="dummy-1_h1_6_26"  />
</g>
<g id="a1_0027"  >
<polygon points="491,85 496,80 499,80 499,90 496,90 491,85 " style="fill:white; stroke-width:1; stroke:black; " description="&lt;b&gt;ECWSU1_RS21170&lt;/b&gt;&lt;br&gt;acyl-CoA thioesterase&lt;br&gt;Location: 4417378 - 4416956" locus_tag="ECWSU1_RS21170" class="clusterblast-orf" id="dummy-1_h1_6_27"  />
</g>
<g id="a1_0028"  >
<polygon points="499,85 504,80 530,80 530,90 504,90 499,85 " style="fill:#9715d8; stroke-width:1; stroke:black; " description="&lt;b&gt;ECWSU1_RS21165&lt;/b&gt;&lt;br&gt;glycosyltransferase family 2 protein&lt;br&gt;Location: 4416952 - 4415261&lt;br&gt;&lt;br&gt;&lt;b&gt;BlastP hit with MCIC6FC_019734&lt;/b&gt;&lt;br&gt;Percentage identity: 67&lt;br&gt;Percentage coverage: 19&lt;br&gt;BLAST bit score: 291&lt;br&gt;E-value: 4.3e-76&lt;br&gt;&lt;br&gt;&lt;b&gt;BlastP hit with MCIC6FC_019735&lt;/b&gt;&lt;br&gt;Percentage identity: 50&lt;br&gt;Percentage coverage: 105&lt;br&gt;BLAST bit score: 207&lt;br&gt;E-value: 2.2e-51" locus_tag="ECWSU1_RS21165" class="clusterblast-orf" id="dummy-1_h1_6_28"  />
</g>
<g id="a1_0029"  >
<polygon points="530,85 535,80 537,80 537,90 535,90 530,85 " style="fill:#d89715; stroke-width:1; stroke:black; " description="&lt;b&gt;ECWSU1_RS21160&lt;/b&gt;&lt;br&gt;beta-hydroxyacyl-ACP dehydratase&lt;br&gt;Location: 4415270 - 4414917&lt;br&gt;&lt;br&gt;&lt;b&gt;BlastP hit with MCIC6FC_019736&lt;/b&gt;&lt;br&gt;Percentage identity: 80&lt;br&gt;Percentage coverage: 47&lt;br&gt;BLAST bit score: 152&lt;br&gt;E-value: 3.9e-35" locus_tag="ECWSU1_RS21160" class="clusterblast-orf" id="dummy-1_h1_6_29"  />
</g>
<g id="a1_0030"  >
<polygon points="537,85 542,80 562,80 562,90 542,90 537,85 " style="fill:#d89715; stroke-width:1; stroke:black; " description="&lt;b&gt;ECWSU1_RS21155&lt;/b&gt;&lt;br&gt;acyl-CoA synthetase&lt;br&gt;Location: 4414930 - 4413569&lt;br&gt;&lt;br&gt;&lt;b&gt;BlastP hit with MCIC6FC_019736&lt;/b&gt;&lt;br&gt;Percentage identity: 59&lt;br&gt;Percentage coverage: 53&lt;br&gt;BLAST bit score: 121&lt;br&gt;E-value: 9.6e-26&lt;br&gt;&lt;br&gt;&lt;b&gt;BlastP hit with MCIC6FC_019737&lt;/b&gt;&lt;br&gt;Percentage identity: 38&lt;br&gt;Percentage coverage: 100&lt;br&gt;BLAST bit score: 74&lt;br&gt;E-value: 9.7e-12" locus_tag="ECWSU1_RS21155" class="clusterblast-orf" id="dummy-1_h1_6_30"  />
</g>
<g id="a1_0031"  >
<polygon points="562,85 567,80 573,80 573,90 567,90 562,85 " style="fill:#15d897; stroke-width:1; stroke:black; " description="&lt;b&gt;ECWSU1_RS21150&lt;/b&gt;&lt;br&gt;hypothetical protein&lt;br&gt;Location: 4413576 - 4412989&lt;br&gt;&lt;br&gt;&lt;b&gt;BlastP hit with MCIC6FC_019738&lt;/b&gt;&lt;br&gt;Percentage identity: 60&lt;br&gt;Percentage coverage: 18&lt;br&gt;BLAST bit score: 167&lt;br&gt;E-value: 5.1e-39" locus_tag="ECWSU1_RS21150" class="clusterblast-orf" id="dummy-1_h1_6_31"  />
</g>
<g id="a1_0032"  >
<polygon points="573,85 578,80 578,80 578,90 578,90 573,85 " style="fill:white; stroke-width:1; stroke:black; " description="&lt;b&gt;ECWSU1_RS21145&lt;/b&gt;&lt;br&gt;acyl carrier protein&lt;br&gt;Location: 4412982 - 4412731" locus_tag="ECWSU1_RS21145" class="clusterblast-orf" id="dummy-1_h1_6_32"  />
</g>
<g id="a1_0033"  >
<polygon points="578,85 583,80 583,80 583,90 583,90 578,85 " style="fill:white; stroke-width:1; stroke:black; " description="&lt;b&gt;ECWSU1_RS21140&lt;/b&gt;&lt;br&gt;hypothetical protein&lt;br&gt;Location: 4412717 - 4412460" locus_tag="ECWSU1_RS21140" class="clusterblast-orf" id="dummy-1_h1_6_33"  />
</g>
<g id="a1_0034"  >
<polygon points="582,85 587,80 598,80 598,90 587,90 582,85 " style="fill:#15d897; stroke-width:1; stroke:black; " description="&lt;b&gt;ECWSU1_RS21135&lt;/b&gt;&lt;br&gt;1-acyl-sn-glycerol-3-phosphate acyltransferase&lt;br&gt;Location: 4412479 - 4411664&lt;br&gt;&lt;br&gt;&lt;b&gt;BlastP hit with MCIC6FC_019738&lt;/b&gt;&lt;br&gt;Percentage identity: 44&lt;br&gt;Percentage coverage: 18&lt;br&gt;BLAST bit score: 106&lt;br&gt;E-value: 1.4e-20" locus_tag="ECWSU1_RS21135" class="clusterblast-orf" id="dummy-1_h1_6_34"  />
</g>
<g id="a1_0035"  >
<polygon points="598,85 603,80 611,80 611,90 603,90 598,85 " style="fill:#15d897; stroke-width:1; stroke:black; " description="&lt;b&gt;ECWSU1_RS21130&lt;/b&gt;&lt;br&gt;beta-ketoacyl synthase chain length factor&lt;br&gt;Location: 4411667 - 4410945&lt;br&gt;&lt;br&gt;&lt;b&gt;BlastP hit with MCIC6FC_019738&lt;/b&gt;&lt;br&gt;Percentage identity: 62&lt;br&gt;Percentage coverage: 26&lt;br&gt;BLAST bit score: 249&lt;br&gt;E-value: 1.3e-63" locus_tag="ECWSU1_RS21130" class="clusterblast-orf" id="dummy-1_h1_6_35"  />
</g>
<g id="a1_0036"  >
<polygon points="612,85 617,80 632,80 632,90 617,90 612,85 " style="fill:white; stroke-width:1; stroke:black; " description="&lt;b&gt;ECWSU1_RS21125&lt;/b&gt;&lt;br&gt;class I SAM-dependent methyltransferase&lt;br&gt;Location: 4410880 - 4409816" locus_tag="ECWSU1_RS21125" class="clusterblast-orf" id="dummy-1_h1_6_36"  />
</g>
<g id="a1_0037"  >
<polygon points="633,85 638,80 641,80 641,90 638,90 633,85 " style="fill:#15d897; stroke-width:1; stroke:black; " description="&lt;b&gt;ECWSU1_RS21120&lt;/b&gt;&lt;br&gt;hypothetical protein&lt;br&gt;Location: 4409748 - 4409359&lt;br&gt;&lt;br&gt;&lt;b&gt;BlastP hit with MCIC6FC_019738&lt;/b&gt;&lt;br&gt;Percentage identity: 57&lt;br&gt;Percentage coverage: 11&lt;br&gt;BLAST bit score: 96&lt;br&gt;E-value: 1.1e-17" locus_tag="ECWSU1_RS21120" class="clusterblast-orf" id="dummy-1_h1_6_37"  />
</g>
<g id="a1_0038"  >
<polygon points="647,85 652,80 666,80 666,90 652,90 647,85 " style="fill:#1515d8; stroke-width:1; stroke:black; " description="&lt;b&gt;ECWSU1_RS21115&lt;/b&gt;&lt;br&gt;AI-2E family transporter&lt;br&gt;Location: 4409035 - 4407986&lt;br&gt;&lt;br&gt;&lt;b&gt;BlastP hit with MCIC6FC_019739&lt;/b&gt;&lt;br&gt;Percentage identity: 81&lt;br&gt;Percentage coverage: 61&lt;br&gt;BLAST bit score: 365&lt;br&gt;E-value: 5.9e-99" locus_tag="ECWSU1_RS21115" class="clusterblast-orf" id="dummy-1_h1_6_38"  />
</g>
<g id="a1_0039"  >
<polygon points="669,90 687,90 692,85 687,80 669,80 669,90 " style="fill:white; stroke-width:1; stroke:black; " description="&lt;b&gt;ECWSU1_RS21110&lt;/b&gt;&lt;br&gt;MFS transporter&lt;br&gt;Location: 4407841 - 4406624" locus_tag="ECWSU1_RS21110" class="clusterblast-orf" id="dummy-1_h1_6_39"  />
</g>
<g id="a1_0040"  >
<polygon points="692,85 697,80 702,80 702,90 697,90 692,85 " style="fill:#1515d8; stroke-width:1; stroke:black; " description="&lt;b&gt;ECWSU1_RS21105&lt;/b&gt;&lt;br&gt;DcrB family lipoprotein&lt;br&gt;Location: 4406619 - 4406062&lt;br&gt;&lt;br&gt;&lt;b&gt;BlastP hit with MCIC6FC_019739&lt;/b&gt;&lt;br&gt;Percentage identity: 62&lt;br&gt;Percentage coverage: 49&lt;br&gt;BLAST bit score: 185&lt;br&gt;E-value: 1.4e-44" locus_tag="ECWSU1_RS21105" class="clusterblast-orf" id="dummy-1_h1_6_40"  />
</g>
<g id="a1_0041"  >
<polygon points="704,85 709,80 716,80 716,90 709,90 704,85 " style="fill:#d81597; stroke-width:1; stroke:black; " description="&lt;b&gt;ECWSU1_RS21100&lt;/b&gt;&lt;br&gt;7-cyano-7-deazaguanine/7-aminomethyl-7- deazaguanine transporter&lt;br&gt;Location: 4405989 - 4405324&lt;br&gt;&lt;br&gt;&lt;b&gt;BlastP hit with MCIC6FC_019740&lt;/b&gt;&lt;br&gt;Percentage identity: 87&lt;br&gt;Percentage coverage: 98&lt;br&gt;BLAST bit score: 262&lt;br&gt;E-value: 2.1e-68" locus_tag="ECWSU1_RS21100" class="clusterblast-orf" id="dummy-1_h1_6_41"  />
</g>
<g id="a1_0042"  >
<polygon points="719,90 719,90 724,85 719,80 719,80 719,90 " style="fill:white; stroke-width:1; stroke:black; " description="&lt;b&gt;ECWSU1_RS21095&lt;/b&gt;&lt;br&gt;sulfurtransferase TusA&lt;br&gt;Location: 4405157 - 4404915" locus_tag="ECWSU1_RS21095" class="clusterblast-orf" id="dummy-1_h1_6_42"  />
</g>
<g id="a1_0043"  >
<polygon points="727,90 741,90 746,85 741,80 727,80 727,90 " style="fill:#97d815; stroke-width:1; stroke:black; " description="&lt;b&gt;ECWSU1_RS21090&lt;/b&gt;&lt;br&gt;TRAP transporter substrate-binding protein&lt;br&gt;Location: 4404723 - 4403752&lt;br&gt;&lt;br&gt;&lt;b&gt;BlastP hit with MCIC6FC_019741&lt;/b&gt;&lt;br&gt;Percentage identity: 66&lt;br&gt;Percentage coverage: 41&lt;br&gt;BLAST bit score: 143&lt;br&gt;E-value: 3.6e-32" locus_tag="ECWSU1_RS21090" class="clusterblast-orf" id="dummy-1_h1_6_43"  />
</g>
<g id="a1_0044"  >
<polygon points="746,90 750,90 755,85 750,80 746,80 746,90 " style="fill:#97d815; stroke-width:1; stroke:black; " description="&lt;b&gt;ECWSU1_RS21085&lt;/b&gt;&lt;br&gt;TRAP transporter small permease&lt;br&gt;Location: 4403740 - 4403231&lt;br&gt;&lt;br&gt;&lt;b&gt;BlastP hit with MCIC6FC_019741&lt;/b&gt;&lt;br&gt;Percentage identity: 46&lt;br&gt;Percentage coverage: 48&lt;br&gt;BLAST bit score: 95&lt;br&gt;E-value: 1.1e-17" locus_tag="ECWSU1_RS21085" class="clusterblast-orf" id="dummy-1_h1_6_44"  />
</g>
<g id="a1_0045"  >
<polygon points="755,90 775,90 780,85 775,80 755,80 755,90 " style="fill:white; stroke-width:1; stroke:black; " description="&lt;b&gt;ECWSU1_RS21080&lt;/b&gt;&lt;br&gt;TRAP transporter large permease&lt;br&gt;Location: 4403220 - 4401934" locus_tag="ECWSU1_RS21080" class="clusterblast-orf" id="dummy-1_h1_6_45"  />
</g>
</svg>
