<svg xmlns="http://www.w3.org/2000/svg" xmlns:xlink="http://www.w3.org/1999/xlink" version="1.1" x="0" y="0" height="230" width="800" viewBox="0 0 800 230" preserveAspectRatio="none"  >
<g label="Query sequence" class="clusterblast-cluster"  >
<text x="5" y="20" class="clusterblast-acc"  >
Query sequence</text>
<line x1="10" y1="35" x2="778.0" y2="35" style="stroke-width:1; stroke:grey; "  />
<polygon points="0,35 5,30 14,30 14,40 5,40 0,35 " style="fill:white; stroke-width:1; stroke:black; " description="&lt;b&gt;MCIC6FC_003068&lt;/b&gt;&lt;br&gt;hypothetical protein&lt;br&gt;Location: 97676 - 98603" locus_tag="MCIC6FC_003068" class="clusterblast-orf" id="dummy-1_q0_0_all"  />
<polygon points="17,40 94,40 99,35 94,30 17,30 17,40 " style="fill:#d81515; stroke-width:1; stroke:black; " description="&lt;b&gt;MCIC6FC_003069&lt;/b&gt;&lt;br&gt;hypothetical protein&lt;br&gt;Location: 98780 - 104141" locus_tag="MCIC6FC_003069" class="clusterblast-orf" id="dummy-1_q1_0_all"  />
<polygon points="100,40 146,40 151,35 146,30 100,30 100,40 " style="fill:#43d815; stroke-width:1; stroke:black; " description="&lt;b&gt;MCIC6FC_003070&lt;/b&gt;&lt;br&gt;hypothetical protein&lt;br&gt;Location: 104203 - 107557" locus_tag="MCIC6FC_003070" class="clusterblast-orf" id="dummy-1_q2_0_all"  />
<polygon points="151,40 169,40 174,35 169,30 151,30 151,40 " style="fill:#15b6d8; stroke-width:1; stroke:black; " description="&lt;b&gt;MCIC6FC_003071&lt;/b&gt;&lt;br&gt;hypothetical protein&lt;br&gt;Location: 107576 - 109070" locus_tag="MCIC6FC_003071" class="clusterblast-orf" id="dummy-1_q3_0_all"  />
<polygon points="178,40 179,40 184,35 179,30 178,30 178,40 " style="fill:#8815d8; stroke-width:1; stroke:black; " description="&lt;b&gt;MCIC6FC_003072&lt;/b&gt;&lt;br&gt;hypothetical protein&lt;br&gt;Location: 109299 - 109734" locus_tag="MCIC6FC_003072" class="clusterblast-orf" id="dummy-1_q4_0_all"  />
<polygon points="185,35 190,30 198,30 198,40 190,40 185,35 " style="fill:#d85a15; stroke-width:1; stroke:black; " description="&lt;b&gt;MCIC6FC_003073&lt;/b&gt;&lt;br&gt;hypothetical protein&lt;br&gt;Location: 109784 - 110609" locus_tag="MCIC6FC_003073" class="clusterblast-orf" id="dummy-1_q5_0_all"  />
<polygon points="201,40 220,40 225,35 220,30 201,30 201,40 " style="fill:#15d82c; stroke-width:1; stroke:black; " description="&lt;b&gt;MCIC6FC_003074&lt;/b&gt;&lt;br&gt;hypothetical protein&lt;br&gt;Location: 110844 - 112404" locus_tag="MCIC6FC_003074" class="clusterblast-orf" id="dummy-1_q6_0_all"  />
<polygon points="226,40 328,40 333,35 328,30 226,30 226,40 " style="fill:#1571d8; stroke-width:1; stroke:black; " description="&lt;b&gt;MCIC6FC_003075&lt;/b&gt;&lt;br&gt;hypothetical protein&lt;br&gt;Location: 112466 - 119468" locus_tag="MCIC6FC_003075" class="clusterblast-orf" id="dummy-1_q7_0_all"  />
<polygon points="335,40 475,40 480,35 475,30 335,30 335,40 " style="fill:#cd15d8; stroke-width:1; stroke:black; " description="&lt;b&gt;MCIC6FC_003076&lt;/b&gt;&lt;br&gt;hypothetical protein&lt;br&gt;Location: 119565 - 129066" locus_tag="MCIC6FC_003076" class="clusterblast-orf" id="dummy-1_q8_0_all"  />
<polygon points="480,40 482,40 487,35 482,30 480,30 480,40 " style="fill:#d89f15; stroke-width:1; stroke:black; " description="&lt;b&gt;MCIC6FC_003077&lt;/b&gt;&lt;br&gt;hypothetical protein&lt;br&gt;Location: 129091 - 129541" locus_tag="MCIC6FC_003077" class="clusterblast-orf" id="dummy-1_q9_0_all"  />
<polygon points="488,40 490,40 495,35 490,30 488,30 488,40 " style="fill:#d89f15; stroke-width:1; stroke:black; " description="&lt;b&gt;MCIC6FC_003078&lt;/b&gt;&lt;br&gt;hypothetical protein&lt;br&gt;Location: 129592 - 130051" locus_tag="MCIC6FC_003078" class="clusterblast-orf" id="dummy-1_q10_0_all"  />
<polygon points="500,40 503,35 500,30 500,40 " style="fill:#d89f15; stroke-width:1; stroke:black; " description="&lt;b&gt;MCIC6FC_003079&lt;/b&gt;&lt;br&gt;hypothetical protein&lt;br&gt;Location: 130373 - 130554" locus_tag="MCIC6FC_003079" class="clusterblast-orf" id="dummy-1_q11_0_all"  />
<polygon points="503,35 508,30 517,30 517,40 508,40 503,35 " style="fill:#15d871; stroke-width:1; stroke:black; " description="&lt;b&gt;MCIC6FC_003080&lt;/b&gt;&lt;br&gt;hypothetical protein&lt;br&gt;Location: 130586 - 131486" locus_tag="MCIC6FC_003080" class="clusterblast-orf" id="dummy-1_q12_0_all"  />
<polygon points="518,40 533,40 538,35 533,30 518,30 518,40 " style="fill:#152cd8; stroke-width:1; stroke:black; " description="&lt;b&gt;MCIC6FC_003081&lt;/b&gt;&lt;br&gt;hypothetical protein&lt;br&gt;Location: 131559 - 132880" locus_tag="MCIC6FC_003081" class="clusterblast-orf" id="dummy-1_q13_0_all"  />
<polygon points="543,35 548,30 559,30 559,40 548,40 543,35 " style="fill:#d8159f; stroke-width:1; stroke:black; " description="&lt;b&gt;MCIC6FC_003082&lt;/b&gt;&lt;br&gt;hypothetical protein&lt;br&gt;Location: 133154 - 134222" locus_tag="MCIC6FC_003082" class="clusterblast-orf" id="dummy-1_q14_0_all"  />
<polygon points="562,35 567,30 584,30 584,40 567,40 562,35 " style="fill:#cdd815; stroke-width:1; stroke:black; " description="&lt;b&gt;MCIC6FC_003083&lt;/b&gt;&lt;br&gt;hypothetical protein&lt;br&gt;Location: 134451 - 135870" locus_tag="MCIC6FC_003083" class="clusterblast-orf" id="dummy-1_q15_0_all"  />
<polygon points="586,35 591,30 684,30 684,40 591,40 586,35 " style="fill:#15d8b6; stroke-width:1; stroke:black; " description="&lt;b&gt;MCIC6FC_003084&lt;/b&gt;&lt;br&gt;hypothetical protein&lt;br&gt;Location: 135991 - 142369" locus_tag="MCIC6FC_003084" class="clusterblast-orf" id="dummy-1_q16_0_all"  />
<polygon points="684,35 689,30 703,30 703,40 689,40 684,35 " style="fill:#4315d8; stroke-width:1; stroke:black; " description="&lt;b&gt;MCIC6FC_003085&lt;/b&gt;&lt;br&gt;hypothetical protein&lt;br&gt;Location: 142379 - 143611" locus_tag="MCIC6FC_003085" class="clusterblast-orf" id="dummy-1_q17_0_all"  />
<polygon points="703,35 708,30 737,30 737,40 708,40 703,35 " style="fill:#d8155a; stroke-width:1; stroke:black; " description="&lt;b&gt;MCIC6FC_003086&lt;/b&gt;&lt;br&gt;hypothetical protein&lt;br&gt;Location: 143624 - 145863" locus_tag="MCIC6FC_003086" class="clusterblast-orf" id="dummy-1_q18_0_all"  />
<polygon points="738,35 743,30 780,30 780,40 743,40 738,35 " style="fill:#88d815; stroke-width:1; stroke:black; " description="&lt;b&gt;MCIC6FC_003087&lt;/b&gt;&lt;br&gt;hypothetical protein&lt;br&gt;Location: 145916 - 148652" locus_tag="MCIC6FC_003087" class="clusterblast-orf" id="dummy-1_q19_0_all"  />
</g>
<g label="NZ_FYDZ01000007" description="NZ_FYDZ01000007 (130478-174083): Pseudomonas sp. Irchel s3f10 isolate Pseudom... (73% of genes show similarity), arylpolyene" class="clusterblast-cluster"  >
<text x="5" y="70" class="clusterblast-acc"  >
<a xlink:href="https://antismash-db.secondarymetabolites.org/area.html?record=NZ_FYDZ01000007&amp;start=130478&amp;end=174083" target="_blank">NZ_FYDZ01000007 (130478-174083)</a>: Pseudomonas sp. Irchel s3f10 isolate Pseudom... (73% of genes show similarity), arylpolyene</text>
<line x1="10" y1="85" x2="778.0" y2="85" style="stroke-width:1; stroke:grey; "  />
</g>
<g id="a1_000"  >
<polygon points="77,90 94,90 99,85 94,80 77,80 77,90 " style="fill:#15b6d8; stroke-width:1; stroke:black; " description="&lt;b&gt;CKW17_RS16845&lt;/b&gt;&lt;br&gt;YdiU family protein&lt;br&gt;Location: 132701 - 134164&lt;br&gt;&lt;br&gt;&lt;b&gt;BlastP hit with MCIC6FC_003071&lt;/b&gt;&lt;br&gt;Percentage identity: 88&lt;br&gt;Percentage coverage: 98&lt;br&gt;BLAST bit score: 891&lt;br&gt;E-value: 3.1e-257" locus_tag="CKW17_RS16845" class="clusterblast-orf" id="dummy-1_h1_10_0"  />
</g>
<g id="a1_001"  >
<polygon points="100,90 102,90 107,85 102,80 100,80 100,90 " style="fill:#8815d8; stroke-width:1; stroke:black; " description="&lt;b&gt;CKW17_RS16850&lt;/b&gt;&lt;br&gt;thioredoxin TrxC&lt;br&gt;Location: 134245 - 134679&lt;br&gt;&lt;br&gt;&lt;b&gt;BlastP hit with MCIC6FC_003072&lt;/b&gt;&lt;br&gt;Percentage identity: 88&lt;br&gt;Percentage coverage: 100&lt;br&gt;BLAST bit score: 274&lt;br&gt;E-value: 8.9e-72" locus_tag="CKW17_RS16850" class="clusterblast-orf" id="dummy-1_h1_10_1"  />
</g>
<g id="a1_002"  >
<polygon points="109,85 114,80 121,80 121,90 114,90 109,85 " style="fill:#d85a15; stroke-width:1; stroke:black; " description="&lt;b&gt;CKW17_RS16855&lt;/b&gt;&lt;br&gt;ParA family protein&lt;br&gt;Location: 134807 - 135577&lt;br&gt;&lt;br&gt;&lt;b&gt;BlastP hit with MCIC6FC_003073&lt;/b&gt;&lt;br&gt;Percentage identity: 95&lt;br&gt;Percentage coverage: 97&lt;br&gt;BLAST bit score: 484&lt;br&gt;E-value: 7.9e-135" locus_tag="CKW17_RS16855" class="clusterblast-orf" id="dummy-1_h1_10_2"  />
</g>
<g id="a1_003"  >
<polygon points="126,90 132,90 137,85 132,80 126,80 126,90 " style="fill:#15d82c; stroke-width:1; stroke:black; " description="&lt;b&gt;CKW17_RS16860&lt;/b&gt;&lt;br&gt;beta-ketoacyl synthase chain length factor&lt;br&gt;Location: 135934 - 136659&lt;br&gt;&lt;br&gt;&lt;b&gt;BlastP hit with MCIC6FC_003074&lt;/b&gt;&lt;br&gt;Percentage identity: 84&lt;br&gt;Percentage coverage: 37&lt;br&gt;BLAST bit score: 310&lt;br&gt;E-value: 2.9e-82" locus_tag="CKW17_RS16860" class="clusterblast-orf" id="dummy-1_h1_10_3"  />
</g>
<g id="a1_004"  >
<polygon points="137,90 144,90 149,85 144,80 137,80 137,90 " style="fill:#15d82c; stroke-width:1; stroke:black; " description="&lt;b&gt;CKW17_RS16865&lt;/b&gt;&lt;br&gt;1-acyl-sn-glycerol-3-phosphate acyltransferase&lt;br&gt;Location: 136635 - 137444&lt;br&gt;&lt;br&gt;&lt;b&gt;BlastP hit with MCIC6FC_003074&lt;/b&gt;&lt;br&gt;Percentage identity: 82&lt;br&gt;Percentage coverage: 54&lt;br&gt;BLAST bit score: 468&lt;br&gt;E-value: 1.1e-129" locus_tag="CKW17_RS16865" class="clusterblast-orf" id="dummy-1_h1_10_4"  />
</g>
<g id="a1_005"  >
<polygon points="149,90 153,85 149,80 149,90 " style="fill:white; stroke-width:1; stroke:black; " description="&lt;b&gt;CKW17_RS16870&lt;/b&gt;&lt;br&gt;acyl carrier protein&lt;br&gt;Location: 137425 - 137685" locus_tag="CKW17_RS16870" class="clusterblast-orf" id="dummy-1_h1_10_5"  />
</g>
<g id="a1_006"  >
<polygon points="153,90 157,85 153,80 153,90 " style="fill:white; stroke-width:1; stroke:black; " description="&lt;b&gt;CKW17_RS16875&lt;/b&gt;&lt;br&gt;acyl carrier protein&lt;br&gt;Location: 137695 - 137949" locus_tag="CKW17_RS16875" class="clusterblast-orf" id="dummy-1_h1_10_6"  />
</g>
<g id="a1_007"  >
<polygon points="157,90 160,90 165,85 160,80 157,80 157,90 " style="fill:white; stroke-width:1; stroke:black; " description="&lt;b&gt;CKW17_RS16880&lt;/b&gt;&lt;br&gt;hypothetical protein&lt;br&gt;Location: 137946 - 138491" locus_tag="CKW17_RS16880" class="clusterblast-orf" id="dummy-1_h1_10_7"  />
</g>
<g id="a1_008"  >
<polygon points="165,90 186,90 191,85 186,80 165,80 165,90 " style="fill:#1571d8; stroke-width:1; stroke:black; " description="&lt;b&gt;CKW17_RS16885&lt;/b&gt;&lt;br&gt;AMP-binding protein&lt;br&gt;Location: 138488 - 140167&lt;br&gt;&lt;br&gt;&lt;b&gt;BlastP hit with MCIC6FC_003075&lt;/b&gt;&lt;br&gt;Percentage identity: 79&lt;br&gt;Percentage coverage: 25&lt;br&gt;BLAST bit score: 861&lt;br&gt;E-value: 2e-247" locus_tag="CKW17_RS16885" class="clusterblast-orf" id="dummy-1_h1_10_8"  />
</g>
<g id="a1_009"  >
<polygon points="192,90 198,90 203,85 198,80 192,80 192,90 " style="fill:#1571d8; stroke-width:1; stroke:black; " description="&lt;b&gt;CKW17_RS16890&lt;/b&gt;&lt;br&gt;glycosyltransferase family 2 protein&lt;br&gt;Location: 140227 - 140961&lt;br&gt;&lt;br&gt;&lt;b&gt;BlastP hit with MCIC6FC_003075&lt;/b&gt;&lt;br&gt;Percentage identity: 76&lt;br&gt;Percentage coverage: 10&lt;br&gt;BLAST bit score: 370&lt;br&gt;E-value: 1.4e-99" locus_tag="CKW17_RS16890" class="clusterblast-orf" id="dummy-1_h1_10_9"  />
</g>
<g id="a1_0010"  >
<polygon points="203,90 213,90 218,85 213,80 203,80 203,90 " style="fill:#1571d8; stroke-width:1; stroke:black; " description="&lt;b&gt;CKW17_RS16895&lt;/b&gt;&lt;br&gt;glycosyl transferase&lt;br&gt;Location: 140958 - 141905&lt;br&gt;&lt;br&gt;&lt;b&gt;BlastP hit with MCIC6FC_003075&lt;/b&gt;&lt;br&gt;Percentage identity: 79&lt;br&gt;Percentage coverage: 13&lt;br&gt;BLAST bit score: 478&lt;br&gt;E-value: 4.7e-132" locus_tag="CKW17_RS16895" class="clusterblast-orf" id="dummy-1_h1_10_10"  />
</g>
<g id="a1_0011"  >
<polygon points="217,90 236,90 241,85 236,80 217,80 217,90 " style="fill:#1571d8; stroke-width:1; stroke:black; " description="&lt;b&gt;CKW17_RS16900&lt;/b&gt;&lt;br&gt;aromatic amino acid lyase&lt;br&gt;Location: 141886 - 143430&lt;br&gt;&lt;br&gt;&lt;b&gt;BlastP hit with MCIC6FC_003075&lt;/b&gt;&lt;br&gt;Percentage identity: 91&lt;br&gt;Percentage coverage: 22&lt;br&gt;BLAST bit score: 866&lt;br&gt;E-value: 4.7e-249" locus_tag="CKW17_RS16900" class="clusterblast-orf" id="dummy-1_h1_10_11"  />
</g>
<g id="a1_0012"  >
<polygon points="241,90 242,90 247,85 242,80 241,80 241,90 " style="fill:white; stroke-width:1; stroke:black; " description="&lt;b&gt;CKW17_RS16905&lt;/b&gt;&lt;br&gt;acyl-CoA thioesterase&lt;br&gt;Location: 143423 - 143848" locus_tag="CKW17_RS16905" class="clusterblast-orf" id="dummy-1_h1_10_12"  />
</g>
<g id="a1_0013"  >
<polygon points="247,90 251,90 256,85 251,80 247,80 247,90 " style="fill:white; stroke-width:1; stroke:black; " description="&lt;b&gt;CKW17_RS16910&lt;/b&gt;&lt;br&gt;outer membrane lipoprotein carrier protein LolA&lt;br&gt;Location: 143845 - 144447" locus_tag="CKW17_RS16910" class="clusterblast-orf" id="dummy-1_h1_10_13"  />
</g>
<g id="a1_0014"  >
<polygon points="256,90 287,90 292,85 287,80 256,80 256,90 " style="fill:#cd15d8; stroke-width:1; stroke:black; " description="&lt;b&gt;CKW17_RS16915&lt;/b&gt;&lt;br&gt;MMPL family transporter&lt;br&gt;Location: 144431 - 146770&lt;br&gt;&lt;br&gt;&lt;b&gt;BlastP hit with MCIC6FC_003076&lt;/b&gt;&lt;br&gt;Percentage identity: 81&lt;br&gt;Percentage coverage: 23&lt;br&gt;BLAST bit score: 1099&lt;br&gt;E-value: 0.0" locus_tag="CKW17_RS16915" class="clusterblast-orf" id="dummy-1_h1_10_14"  />
</g>
<g id="a1_0015"  >
<polygon points="292,90 305,90 310,85 305,80 292,80 292,90 " style="fill:#cd15d8; stroke-width:1; stroke:black; " description="&lt;b&gt;CKW17_RS16920&lt;/b&gt;&lt;br&gt;sodium:proton antiporter&lt;br&gt;Location: 146767 - 147930&lt;br&gt;&lt;br&gt;&lt;b&gt;BlastP hit with MCIC6FC_003076&lt;/b&gt;&lt;br&gt;Percentage identity: 79&lt;br&gt;Percentage coverage: 13&lt;br&gt;BLAST bit score: 586&lt;br&gt;E-value: 1.7e-164" locus_tag="CKW17_RS16920" class="clusterblast-orf" id="dummy-1_h1_10_15"  />
</g>
<g id="a1_0016"  >
<polygon points="310,90 324,90 329,85 324,80 310,80 310,90 " style="fill:#cd15d8; stroke-width:1; stroke:black; " description="&lt;b&gt;CKW17_RS16925&lt;/b&gt;&lt;br&gt;tryptophan 7-halogenase&lt;br&gt;Location: 147917 - 149164&lt;br&gt;&lt;br&gt;&lt;b&gt;BlastP hit with MCIC6FC_003076&lt;/b&gt;&lt;br&gt;Percentage identity: 83&lt;br&gt;Percentage coverage: 13&lt;br&gt;BLAST bit score: 695&lt;br&gt;E-value: 3.4e-197" locus_tag="CKW17_RS16925" class="clusterblast-orf" id="dummy-1_h1_10_16"  />
</g>
<g id="a1_0017"  >
<polygon points="329,90 335,90 340,85 335,80 329,80 329,90 " style="fill:white; stroke-width:1; stroke:black; " description="&lt;b&gt;CKW17_RS16930&lt;/b&gt;&lt;br&gt;methyltransferase domain-containing protein&lt;br&gt;Location: 149161 - 149886" locus_tag="CKW17_RS16930" class="clusterblast-orf" id="dummy-1_h1_10_17"  />
</g>
<g id="a1_0018"  >
<polygon points="341,90 344,90 349,85 344,80 341,80 341,90 " style="fill:white; stroke-width:1; stroke:black; " description="&lt;b&gt;CKW17_RS16935&lt;/b&gt;&lt;br&gt;hypothetical protein&lt;br&gt;Location: 150000 - 150482" locus_tag="CKW17_RS16935" class="clusterblast-orf" id="dummy-1_h1_10_18"  />
</g>
<g id="a1_0019"  >
<polygon points="349,90 362,90 367,85 362,80 349,80 349,90 " style="fill:#cd15d8; stroke-width:1; stroke:black; " description="&lt;b&gt;CKW17_RS16940&lt;/b&gt;&lt;br&gt;beta-ketoacyl-[acyl-carrier-protein] synthase family protein&lt;br&gt;Location: 150479 - 151675&lt;br&gt;&lt;br&gt;&lt;b&gt;BlastP hit with MCIC6FC_003076&lt;/b&gt;&lt;br&gt;Percentage identity: 77&lt;br&gt;Percentage coverage: 13&lt;br&gt;BLAST bit score: 607&lt;br&gt;E-value: 5.5e-171" locus_tag="CKW17_RS16940" class="clusterblast-orf" id="dummy-1_h1_10_19"  />
</g>
<g id="a1_0020"  >
<polygon points="367,90 369,90 374,85 369,80 367,80 367,90 " style="fill:white; stroke-width:1; stroke:black; " description="&lt;b&gt;CKW17_RS16945&lt;/b&gt;&lt;br&gt;hotdog family protein&lt;br&gt;Location: 151672 - 152136" locus_tag="CKW17_RS16945" class="clusterblast-orf" id="dummy-1_h1_10_20"  />
</g>
<g id="a1_0021"  >
<polygon points="374,90 380,90 385,85 380,80 374,80 374,90 " style="fill:white; stroke-width:1; stroke:black; " description="&lt;b&gt;CKW17_RS16950&lt;/b&gt;&lt;br&gt;3-oxoacyl-ACP reductase FabG&lt;br&gt;Location: 152129 - 152857" locus_tag="CKW17_RS16950" class="clusterblast-orf" id="dummy-1_h1_10_21"  />
</g>
<g id="a1_0022"  >
<polygon points="385,90 399,90 404,85 399,80 385,80 385,90 " style="fill:#cd15d8; stroke-width:1; stroke:black; " description="&lt;b&gt;CKW17_RS16955&lt;/b&gt;&lt;br&gt;beta-ketoacyl-ACP synthase&lt;br&gt;Location: 152857 - 154083&lt;br&gt;&lt;br&gt;&lt;b&gt;BlastP hit with MCIC6FC_003076&lt;/b&gt;&lt;br&gt;Percentage identity: 92&lt;br&gt;Percentage coverage: 13&lt;br&gt;BLAST bit score: 749&lt;br&gt;E-value: 1.2e-213" locus_tag="CKW17_RS16955" class="clusterblast-orf" id="dummy-1_h1_10_22"  />
</g>
<g id="a1_0023"  >
<polygon points="404,90 412,90 417,85 412,80 404,80 404,90 " style="fill:#d89f15; stroke-width:1; stroke:black; " description="&lt;b&gt;CKW17_RS16960&lt;/b&gt;&lt;br&gt;hypothetical protein&lt;br&gt;Location: 154109 - 154912&lt;br&gt;&lt;br&gt;&lt;b&gt;BlastP hit with MCIC6FC_003077&lt;/b&gt;&lt;br&gt;Percentage identity: 38&lt;br&gt;Percentage coverage: 86&lt;br&gt;BLAST bit score: 91&lt;br&gt;E-value: 8.4e-17&lt;br&gt;&lt;br&gt;&lt;b&gt;BlastP hit with MCIC6FC_003078&lt;/b&gt;&lt;br&gt;Percentage identity: 48&lt;br&gt;Percentage coverage: 84&lt;br&gt;BLAST bit score: 105&lt;br&gt;E-value: 4.4e-21" locus_tag="CKW17_RS16960" class="clusterblast-orf" id="dummy-1_h1_10_23"  />
</g>
<g id="a1_0024"  >
<polygon points="420,85 425,80 426,80 426,90 425,90 420,85 " style="fill:white; stroke-width:1; stroke:black; " description="&lt;b&gt;CKW17_RS16965&lt;/b&gt;&lt;br&gt;type II toxin-antitoxin system PemK/MazF family toxin&lt;br&gt;Location: 155126 - 155509" locus_tag="CKW17_RS16965" class="clusterblast-orf" id="dummy-1_h1_10_24"  />
</g>
<g id="a1_0025"  >
<polygon points="429,90 431,90 436,85 431,80 429,80 429,90 " style="fill:#d89f15; stroke-width:1; stroke:black; " description="&lt;b&gt;CKW17_RS16970&lt;/b&gt;&lt;br&gt;excinuclease&lt;br&gt;Location: 155726 - 156163&lt;br&gt;&lt;br&gt;&lt;b&gt;BlastP hit with MCIC6FC_003078&lt;/b&gt;&lt;br&gt;Percentage identity: 50&lt;br&gt;Percentage coverage: 97&lt;br&gt;BLAST bit score: 140&lt;br&gt;E-value: 1.2e-31&lt;br&gt;&lt;br&gt;&lt;b&gt;BlastP hit with MCIC6FC_003079&lt;/b&gt;&lt;br&gt;Percentage identity: 69&lt;br&gt;Percentage coverage: 87&lt;br&gt;BLAST bit score: 58&lt;br&gt;E-value: 2.8e-07" locus_tag="CKW17_RS16970" class="clusterblast-orf" id="dummy-1_h1_10_25"  />
</g>
<g id="a1_0026"  >
<polygon points="437,85 442,80 451,80 451,90 442,90 437,85 " style="fill:#15d871; stroke-width:1; stroke:black; " description="&lt;b&gt;CKW17_RS16975&lt;/b&gt;&lt;br&gt;LysR family transcriptional regulator&lt;br&gt;Location: 156268 - 157170&lt;br&gt;&lt;br&gt;&lt;b&gt;BlastP hit with MCIC6FC_003080&lt;/b&gt;&lt;br&gt;Percentage identity: 92&lt;br&gt;Percentage coverage: 98&lt;br&gt;BLAST bit score: 516&lt;br&gt;E-value: 2.1e-144" locus_tag="CKW17_RS16975" class="clusterblast-orf" id="dummy-1_h1_10_26"  />
</g>
<g id="a1_0027"  >
<polygon points="453,90 467,90 472,85 467,80 453,80 453,90 " style="fill:#152cd8; stroke-width:1; stroke:black; " description="&lt;b&gt;CKW17_RS16980&lt;/b&gt;&lt;br&gt;MFS transporter&lt;br&gt;Location: 157289 - 158563&lt;br&gt;&lt;br&gt;&lt;b&gt;BlastP hit with MCIC6FC_003081&lt;/b&gt;&lt;br&gt;Percentage identity: 77&lt;br&gt;Percentage coverage: 99&lt;br&gt;BLAST bit score: 602&lt;br&gt;E-value: 4.1e-170" locus_tag="CKW17_RS16980" class="clusterblast-orf" id="dummy-1_h1_10_27"  />
</g>
<g id="a1_0028"  >
<polygon points="475,85 480,80 492,80 492,90 480,90 475,85 " style="fill:#d8159f; stroke-width:1; stroke:black; " description="&lt;b&gt;CKW17_RS16985&lt;/b&gt;&lt;br&gt;uroporphyrinogen decarboxylase&lt;br&gt;Location: 158742 - 159809&lt;br&gt;&lt;br&gt;&lt;b&gt;BlastP hit with MCIC6FC_003082&lt;/b&gt;&lt;br&gt;Percentage identity: 94&lt;br&gt;Percentage coverage: 100&lt;br&gt;BLAST bit score: 683&lt;br&gt;E-value: 9.2e-195" locus_tag="CKW17_RS16985" class="clusterblast-orf" id="dummy-1_h1_10_28"  />
</g>
<g id="a1_0029"  >
<polygon points="495,85 500,80 517,80 517,90 500,90 495,85 " style="fill:#cdd815; stroke-width:1; stroke:black; " description="&lt;b&gt;CKW17_RS16990&lt;/b&gt;&lt;br&gt;FAD-dependent oxidoreductase&lt;br&gt;Location: 160062 - 161480&lt;br&gt;&lt;br&gt;&lt;b&gt;BlastP hit with MCIC6FC_003083&lt;/b&gt;&lt;br&gt;Percentage identity: 99&lt;br&gt;Percentage coverage: 100&lt;br&gt;BLAST bit score: 960&lt;br&gt;E-value: 8.8e-278" locus_tag="CKW17_RS16990" class="clusterblast-orf" id="dummy-1_h1_10_29"  />
</g>
<g id="a1_0030"  >
<polygon points="519,85 524,80 587,80 587,90 524,90 519,85 " style="fill:#15d8b6; stroke-width:1; stroke:black; " description="&lt;b&gt;CKW17_RS16995&lt;/b&gt;&lt;br&gt;glutamate synthase large subunit&lt;br&gt;Location: 161607 - 166052&lt;br&gt;&lt;br&gt;&lt;b&gt;BlastP hit with MCIC6FC_003084&lt;/b&gt;&lt;br&gt;Percentage identity: 96&lt;br&gt;Percentage coverage: 75&lt;br&gt;BLAST bit score: 2742&lt;br&gt;E-value: 0.0" locus_tag="CKW17_RS16995" class="clusterblast-orf" id="dummy-1_h1_10_30"  />
</g>
<g id="a1_0031"  >
<polygon points="592,85 597,80 617,80 617,90 597,90 592,85 " style="fill:#15d8b6; stroke-width:1; stroke:black; " description="&lt;b&gt;CKW17_RS17005&lt;/b&gt;&lt;br&gt;ExeA family protein&lt;br&gt;Location: 166402 - 167994&lt;br&gt;&lt;br&gt;&lt;b&gt;BlastP hit with MCIC6FC_003084&lt;/b&gt;&lt;br&gt;Percentage identity: 81&lt;br&gt;Percentage coverage: 26&lt;br&gt;BLAST bit score: 648&lt;br&gt;E-value: 1.8e-183" locus_tag="CKW17_RS17005" class="clusterblast-orf" id="dummy-1_h1_10_31"  />
</g>
<g id="a1_0032"  >
<polygon points="617,85 622,80 634,80 634,90 622,90 617,85 " style="fill:#4315d8; stroke-width:1; stroke:black; " description="&lt;b&gt;CKW17_RS17010&lt;/b&gt;&lt;br&gt;3-dehydroquinate synthase&lt;br&gt;Location: 168005 - 169105&lt;br&gt;&lt;br&gt;&lt;b&gt;BlastP hit with MCIC6FC_003085&lt;/b&gt;&lt;br&gt;Percentage identity: 95&lt;br&gt;Percentage coverage: 93&lt;br&gt;BLAST bit score: 695&lt;br&gt;E-value: 2.6e-198" locus_tag="CKW17_RS17010" class="clusterblast-orf" id="dummy-1_h1_10_32"  />
</g>
<g id="a1_0033"  >
<polygon points="636,85 641,80 644,80 644,90 641,90 636,85 " style="fill:#d8155a; stroke-width:1; stroke:black; " description="&lt;b&gt;CKW17_RS17015&lt;/b&gt;&lt;br&gt;shikimate kinase AroK&lt;br&gt;Location: 169258 - 169776&lt;br&gt;&lt;br&gt;&lt;b&gt;BlastP hit with MCIC6FC_003086&lt;/b&gt;&lt;br&gt;Percentage identity: 89&lt;br&gt;Percentage coverage: 21&lt;br&gt;BLAST bit score: 273&lt;br&gt;E-value: 7.6e-71" locus_tag="CKW17_RS17015" class="clusterblast-orf" id="dummy-1_h1_10_33"  />
</g>
<g id="a1_0034"  >
<polygon points="644,85 649,80 676,80 676,90 649,90 644,85 " style="fill:#d8155a; stroke-width:1; stroke:black; " description="&lt;b&gt;CKW17_RS17020&lt;/b&gt;&lt;br&gt;type IV pilus secretin PilQ&lt;br&gt;Location: 169781 - 171859&lt;br&gt;&lt;br&gt;&lt;b&gt;BlastP hit with MCIC6FC_003086&lt;/b&gt;&lt;br&gt;Percentage identity: 84&lt;br&gt;Percentage coverage: 75&lt;br&gt;BLAST bit score: 852&lt;br&gt;E-value: 3e-245" locus_tag="CKW17_RS17020" class="clusterblast-orf" id="dummy-1_h1_10_34"  />
</g>
<g id="a1_0035"  >
<polygon points="676,85 681,80 684,80 684,90 681,90 676,85 " style="fill:#88d815; stroke-width:1; stroke:black; " description="&lt;b&gt;CKW17_RS17025&lt;/b&gt;&lt;br&gt;pilus assembly protein PilP&lt;br&gt;Location: 171873 - 172400&lt;br&gt;&lt;br&gt;&lt;b&gt;BlastP hit with MCIC6FC_003087&lt;/b&gt;&lt;br&gt;Percentage identity: 67&lt;br&gt;Percentage coverage: 18&lt;br&gt;BLAST bit score: 225&lt;br&gt;E-value: 2.8e-56" locus_tag="CKW17_RS17025" class="clusterblast-orf" id="dummy-1_h1_10_35"  />
</g>
<g id="a1_0036"  >
<polygon points="684,85 689,80 694,80 694,90 689,90 684,85 " style="fill:#88d815; stroke-width:1; stroke:black; " description="&lt;b&gt;CKW17_RS17030&lt;/b&gt;&lt;br&gt;type 4a pilus biogenesis protein PilO&lt;br&gt;Location: 172397 - 173020&lt;br&gt;&lt;br&gt;&lt;b&gt;BlastP hit with MCIC6FC_003087&lt;/b&gt;&lt;br&gt;Percentage identity: 63&lt;br&gt;Percentage coverage: 22&lt;br&gt;BLAST bit score: 234&lt;br&gt;E-value: 3.6e-59" locus_tag="CKW17_RS17030" class="clusterblast-orf" id="dummy-1_h1_10_36"  />
</g>
<g id="a1_0037"  >
<polygon points="694,85 699,80 702,80 702,90 699,90 694,85 " style="fill:#88d815; stroke-width:1; stroke:black; " description="&lt;b&gt;CKW17_RS17035&lt;/b&gt;&lt;br&gt;PilN domain-containing protein&lt;br&gt;Location: 173017 - 173583&lt;br&gt;&lt;br&gt;&lt;b&gt;BlastP hit with MCIC6FC_003087&lt;/b&gt;&lt;br&gt;Percentage identity: 58&lt;br&gt;Percentage coverage: 21&lt;br&gt;BLAST bit score: 197&lt;br&gt;E-value: 6.3e-48" locus_tag="CKW17_RS17035" class="clusterblast-orf" id="dummy-1_h1_10_37"  />
</g>
</svg>
