<svg xmlns="http://www.w3.org/2000/svg" xmlns:xlink="http://www.w3.org/1999/xlink" version="1.1" x="0" y="0" height="230" width="800" viewBox="0 0 800 230" preserveAspectRatio="none"  >
<g label="Query sequence" class="clusterblast-cluster"  >
<text x="5" y="20" class="clusterblast-acc"  >
Query sequence</text>
<line x1="10" y1="35" x2="778.0" y2="35" style="stroke-width:1; stroke:grey; "  />
<polygon points="66,40 66,40 71,35 66,30 66,30 66,40 " style="fill:#d81515; stroke-width:1; stroke:black; " description="&lt;b&gt;MCIC6FC_022236&lt;/b&gt;&lt;br&gt;hypothetical protein&lt;br&gt;Location: 31694 - 32090" locus_tag="MCIC6FC_022236" class="clusterblast-orf" id="dummy-1_q0_0_all"  />
<polygon points="72,35 75,30 75,40 72,35 " style="fill:#6ad815; stroke-width:1; stroke:black; " description="&lt;b&gt;MCIC6FC_022237&lt;/b&gt;&lt;br&gt;hypothetical protein&lt;br&gt;Location: 32123 - 32348" locus_tag="MCIC6FC_022237" class="clusterblast-orf" id="dummy-1_q1_0_all"  />
<polygon points="81,40 152,40 157,35 152,30 81,30 81,40 " style="fill:#15bfd8; stroke-width:1; stroke:black; " description="&lt;b&gt;MCIC6FC_022238&lt;/b&gt;&lt;br&gt;hypothetical protein&lt;br&gt;Location: 32807 - 38607" locus_tag="MCIC6FC_022238" class="clusterblast-orf" id="dummy-1_q2_0_all"  />
<polygon points="157,35 162,30 182,30 182,40 162,40 157,35 " style="fill:#9d15d8; stroke-width:1; stroke:black; " description="&lt;b&gt;MCIC6FC_022239&lt;/b&gt;&lt;br&gt;hypothetical protein&lt;br&gt;Location: 38646 - 40566" locus_tag="MCIC6FC_022239" class="clusterblast-orf" id="dummy-1_q3_0_all"  />
<polygon points="187,35 192,30 204,30 204,40 192,40 187,35 " style="fill:#d84815; stroke-width:1; stroke:black; " description="&lt;b&gt;MCIC6FC_022240&lt;/b&gt;&lt;br&gt;hypothetical protein&lt;br&gt;Location: 40945 - 42244" locus_tag="MCIC6FC_022240" class="clusterblast-orf" id="dummy-1_q4_0_all"  />
<polygon points="207,40 228,40 233,35 228,30 207,30 207,40 " style="fill:#37d815; stroke-width:1; stroke:black; " description="&lt;b&gt;MCIC6FC_022241&lt;/b&gt;&lt;br&gt;hypothetical protein&lt;br&gt;Location: 42488 - 44434" locus_tag="MCIC6FC_022241" class="clusterblast-orf" id="dummy-1_q5_0_all"  />
<polygon points="234,40 261,40 266,35 261,30 234,30 234,40 " style="fill:#158cd8; stroke-width:1; stroke:black; " description="&lt;b&gt;MCIC6FC_022242&lt;/b&gt;&lt;br&gt;hypothetical protein&lt;br&gt;Location: 44506 - 46980" locus_tag="MCIC6FC_022242" class="clusterblast-orf" id="dummy-1_q6_0_all"  />
<polygon points="271,40 275,35 271,30 271,40 " style="fill:#d015d8; stroke-width:1; stroke:black; " description="&lt;b&gt;MCIC6FC_022243&lt;/b&gt;&lt;br&gt;hypothetical protein&lt;br&gt;Location: 47369 - 47636" locus_tag="MCIC6FC_022243" class="clusterblast-orf" id="dummy-1_q7_0_all"  />
<polygon points="278,40 329,40 334,35 329,30 278,30 278,40 " style="fill:#d87b15; stroke-width:1; stroke:black; " description="&lt;b&gt;MCIC6FC_022244&lt;/b&gt;&lt;br&gt;hypothetical protein&lt;br&gt;Location: 47865 - 52152" locus_tag="MCIC6FC_022244" class="clusterblast-orf" id="dummy-1_q8_0_all"  />
<polygon points="335,40 395,40 400,35 395,30 335,30 335,40 " style="fill:#15d826; stroke-width:1; stroke:black; " description="&lt;b&gt;MCIC6FC_022245&lt;/b&gt;&lt;br&gt;hypothetical protein&lt;br&gt;Location: 52203 - 57151" locus_tag="MCIC6FC_022245" class="clusterblast-orf" id="dummy-1_q9_0_all"  />
<polygon points="400,40 402,40 407,35 402,30 400,30 400,40 " style="fill:#1559d8; stroke-width:1; stroke:black; " description="&lt;b&gt;MCIC6FC_022246&lt;/b&gt;&lt;br&gt;hypothetical protein&lt;br&gt;Location: 57154 - 57728" locus_tag="MCIC6FC_022246" class="clusterblast-orf" id="dummy-1_q10_0_all"  />
<polygon points="407,40 417,40 422,35 417,30 407,30 407,40 " style="fill:#d815ae; stroke-width:1; stroke:black; " description="&lt;b&gt;MCIC6FC_022247&lt;/b&gt;&lt;br&gt;hypothetical protein&lt;br&gt;Location: 57748 - 58885" locus_tag="MCIC6FC_022247" class="clusterblast-orf" id="dummy-1_q11_0_all"  />
<polygon points="423,40 449,40 454,35 449,30 423,30 423,40 " style="fill:#d815ae; stroke-width:1; stroke:black; " description="&lt;b&gt;MCIC6FC_022248&lt;/b&gt;&lt;br&gt;hypothetical protein&lt;br&gt;Location: 58922 - 61311" locus_tag="MCIC6FC_022248" class="clusterblast-orf" id="dummy-1_q12_0_all"  />
<polygon points="459,35 464,30 476,30 476,40 464,40 459,35 " style="fill:#d8ae15; stroke-width:1; stroke:black; " description="&lt;b&gt;MCIC6FC_022249&lt;/b&gt;&lt;br&gt;hypothetical protein&lt;br&gt;Location: 61664 - 62953" locus_tag="MCIC6FC_022249" class="clusterblast-orf" id="dummy-1_q13_0_all"  />
<polygon points="478,40 492,40 497,35 492,30 478,30 478,40 " style="fill:#15d859; stroke-width:1; stroke:black; " description="&lt;b&gt;MCIC6FC_022250&lt;/b&gt;&lt;br&gt;hypothetical protein&lt;br&gt;Location: 63108 - 64568" locus_tag="MCIC6FC_022250" class="clusterblast-orf" id="dummy-1_q14_0_all"  />
<polygon points="501,35 506,30 511,30 511,40 506,40 501,35 " style="fill:#1526d8; stroke-width:1; stroke:black; " description="&lt;b&gt;MCIC6FC_022251&lt;/b&gt;&lt;br&gt;hypothetical protein&lt;br&gt;Location: 64918 - 65662" locus_tag="MCIC6FC_022251" class="clusterblast-orf" id="dummy-1_q15_0_all"  />
<polygon points="520,40 566,40 571,35 566,30 520,30 520,40 " style="fill:#d8157b; stroke-width:1; stroke:black; " description="&lt;b&gt;MCIC6FC_022252&lt;/b&gt;&lt;br&gt;hypothetical protein&lt;br&gt;Location: 66305 - 70227" locus_tag="MCIC6FC_022252" class="clusterblast-orf" id="dummy-1_q16_0_all"  />
<polygon points="576,35 581,30 581,30 581,40 581,40 576,35 " style="fill:#d0d815; stroke-width:1; stroke:black; " description="&lt;b&gt;MCIC6FC_022253&lt;/b&gt;&lt;br&gt;hypothetical protein&lt;br&gt;Location: 70588 - 70990" locus_tag="MCIC6FC_022253" class="clusterblast-orf" id="dummy-1_q17_0_all"  />
<polygon points="594,40 617,40 622,35 617,30 594,30 594,40 " style="fill:#15d88c; stroke-width:1; stroke:black; " description="&lt;b&gt;MCIC6FC_022254&lt;/b&gt;&lt;br&gt;hypothetical protein&lt;br&gt;Location: 71980 - 74154" locus_tag="MCIC6FC_022254" class="clusterblast-orf" id="dummy-1_q18_0_all"  />
<polygon points="623,35 628,30 637,30 637,40 628,40 623,35 " style="fill:#3715d8; stroke-width:1; stroke:black; " description="&lt;b&gt;MCIC6FC_022255&lt;/b&gt;&lt;br&gt;hypothetical protein&lt;br&gt;Location: 74193 - 75265" locus_tag="MCIC6FC_022255" class="clusterblast-orf" id="dummy-1_q19_0_all"  />
<polygon points="642,35 647,30 661,30 661,40 647,40 642,35 " style="fill:#d81548; stroke-width:1; stroke:black; " description="&lt;b&gt;MCIC6FC_022256&lt;/b&gt;&lt;br&gt;hypothetical protein&lt;br&gt;Location: 75641 - 77103" locus_tag="MCIC6FC_022256" class="clusterblast-orf" id="dummy-1_q20_0_all"  />
<polygon points="664,35 669,30 673,30 673,40 669,40 664,35 " style="fill:#9dd815; stroke-width:1; stroke:black; " description="&lt;b&gt;MCIC6FC_022257&lt;/b&gt;&lt;br&gt;hypothetical protein&lt;br&gt;Location: 77349 - 78013" locus_tag="MCIC6FC_022257" class="clusterblast-orf" id="dummy-1_q21_0_all"  />
<polygon points="674,35 679,30 704,30 704,40 679,40 674,35 " style="fill:#15d8bf; stroke-width:1; stroke:black; " description="&lt;b&gt;MCIC6FC_022258&lt;/b&gt;&lt;br&gt;hypothetical protein&lt;br&gt;Location: 78075 - 80367" locus_tag="MCIC6FC_022258" class="clusterblast-orf" id="dummy-1_q22_0_all"  />
<polygon points="706,35 711,30 713,30 713,40 711,40 706,35 " style="fill:#6a15d8; stroke-width:1; stroke:black; " description="&lt;b&gt;MCIC6FC_022259&lt;/b&gt;&lt;br&gt;hypothetical protein&lt;br&gt;Location: 80507 - 81083" locus_tag="MCIC6FC_022259" class="clusterblast-orf" id="dummy-1_q23_0_all"  />
</g>
<g label="NZ_KK403338" description="NZ_KK403338 (302472-362312): Pantoea agglomerans Eh318 scaffold339, whole gen... (64% of genes show similarity), arylpolyene,hserlactone" class="clusterblast-cluster"  >
<text x="5" y="70" class="clusterblast-acc"  >
<a xlink:href="https://antismash-db.secondarymetabolites.org/area.html?record=NZ_KK403338&amp;start=302472&amp;end=362312" target="_blank">NZ_KK403338 (302472-362312)</a>: Pantoea agglomerans Eh318 scaffold339, whole gen... (64% of genes show similarity), arylpolyene,hserlactone</text>
<line x1="10" y1="85" x2="778.0" y2="85" style="stroke-width:1; stroke:grey; "  />
</g>
<g id="a1_000"  >
<polygon points="0,85 5,80 6,80 6,90 5,90 0,85 " style="fill:white; stroke-width:1; stroke:black; " description="&lt;b&gt;T296_RS03820&lt;/b&gt;&lt;br&gt;pyrimidine utilization flavin reductase protein F&lt;br&gt;Location: 302515 - 303030" locus_tag="T296_RS03820" class="clusterblast-orf" id="dummy-1_h1_5_0"  />
</g>
<g id="a1_001"  >
<polygon points="7,85 12,80 17,80 17,90 12,90 7,85 " style="fill:white; stroke-width:1; stroke:black; " description="&lt;b&gt;T296_RS03825&lt;/b&gt;&lt;br&gt;pyrimidine utilization protein D&lt;br&gt;Location: 303050 - 303859" locus_tag="T296_RS03825" class="clusterblast-orf" id="dummy-1_h1_5_1"  />
</g>
<g id="a1_002"  >
<polygon points="17,85 22,80 22,80 22,90 22,90 17,85 " style="fill:white; stroke-width:1; stroke:black; " description="&lt;b&gt;T296_RS03830&lt;/b&gt;&lt;br&gt;pyrimidine utilization protein C&lt;br&gt;Location: 303859 - 304254" locus_tag="T296_RS03830" class="clusterblast-orf" id="dummy-1_h1_5_2"  />
</g>
<g id="a1_003"  >
<polygon points="23,85 28,80 32,80 32,90 28,90 23,85 " style="fill:white; stroke-width:1; stroke:black; " description="&lt;b&gt;T296_RS03835&lt;/b&gt;&lt;br&gt;pyrimidine utilization protein B&lt;br&gt;Location: 304275 - 304988" locus_tag="T296_RS03835" class="clusterblast-orf" id="dummy-1_h1_5_3"  />
</g>
<g id="a1_004"  >
<polygon points="32,85 37,80 46,80 46,90 37,90 32,85 " style="fill:white; stroke-width:1; stroke:black; " description="&lt;b&gt;T296_RS03840&lt;/b&gt;&lt;br&gt;pyrimidine utilization protein A&lt;br&gt;Location: 304988 - 306079" locus_tag="T296_RS03840" class="clusterblast-orf" id="dummy-1_h1_5_4"  />
</g>
<g id="a1_005"  >
<polygon points="50,90 54,90 59,85 54,80 50,80 50,90 " style="fill:white; stroke-width:1; stroke:black; " description="&lt;b&gt;T296_RS03845&lt;/b&gt;&lt;br&gt;HTH-type transcriptional regulator RutR&lt;br&gt;Location: 306386 - 307021" locus_tag="T296_RS03845" class="clusterblast-orf" id="dummy-1_h1_5_5"  />
</g>
<g id="a1_006"  >
<polygon points="59,90 67,90 72,85 67,80 59,80 59,90 " style="fill:white; stroke-width:1; stroke:black; " description="&lt;b&gt;T296_RS03850&lt;/b&gt;&lt;br&gt;metal-dependent hydrolase&lt;br&gt;Location: 307060 - 308034" locus_tag="T296_RS03850" class="clusterblast-orf" id="dummy-1_h1_5_6"  />
</g>
<g id="a1_007"  >
<polygon points="72,85 77,80 91,80 91,90 77,90 72,85 " style="fill:white; stroke-width:1; stroke:black; " description="&lt;b&gt;T296_RS03855&lt;/b&gt;&lt;br&gt;D-serine/D-alanine/glycine transporter&lt;br&gt;Location: 308081 - 309475" locus_tag="T296_RS03855" class="clusterblast-orf" id="dummy-1_h1_5_7"  />
</g>
<g id="a1_008"  >
<polygon points="94,90 99,90 104,85 99,80 94,80 94,90 " style="fill:white; stroke-width:1; stroke:black; " description="&lt;b&gt;T296_RS03860&lt;/b&gt;&lt;br&gt;extensin family protein&lt;br&gt;Location: 309762 - 310457" locus_tag="T296_RS03860" class="clusterblast-orf" id="dummy-1_h1_5_8"  />
</g>
<g id="a1_009"  >
<polygon points="119,90 123,90 128,85 123,80 119,80 119,90 " style="fill:white; stroke-width:1; stroke:black; " description="&lt;b&gt;T296_RS03865&lt;/b&gt;&lt;br&gt;transcriptional regulator SdiA&lt;br&gt;Location: 311628 - 312350" locus_tag="T296_RS03865" class="clusterblast-orf" id="dummy-1_h1_5_9"  />
</g>
<g id="a1_0010"  >
<polygon points="130,90 133,90 138,85 133,80 130,80 130,90 " style="fill:#d81515; stroke-width:1; stroke:black; " description="&lt;b&gt;T296_RS03870&lt;/b&gt;&lt;br&gt;autoinducer synthase&lt;br&gt;Location: 312473 - 313084&lt;br&gt;&lt;br&gt;&lt;b&gt;BlastP hit with MCIC6FC_022236&lt;/b&gt;&lt;br&gt;Percentage identity: 98&lt;br&gt;Percentage coverage: 100&lt;br&gt;BLAST bit score: 265&lt;br&gt;E-value: 3.8e-69" locus_tag="T296_RS03870" class="clusterblast-orf" id="dummy-1_h1_5_10"  />
</g>
<g id="a1_0011"  >
<polygon points="138,85 141,80 141,90 138,85 " style="fill:#6ad815; stroke-width:1; stroke:black; " description="&lt;b&gt;T296_RS03875&lt;/b&gt;&lt;br&gt;DUF2594 family protein&lt;br&gt;Location: 313120 - 313344&lt;br&gt;&lt;br&gt;&lt;b&gt;BlastP hit with MCIC6FC_022237&lt;/b&gt;&lt;br&gt;Percentage identity: 88&lt;br&gt;Percentage coverage: 114&lt;br&gt;BLAST bit score: 117&lt;br&gt;E-value: 4.8e-25" locus_tag="T296_RS03875" class="clusterblast-orf" id="dummy-1_h1_5_11"  />
</g>
<g id="a1_0012"  >
<polygon points="147,90 151,90 156,85 151,80 147,80 147,90 " style="fill:#15bfd8; stroke-width:1; stroke:black; " description="&lt;b&gt;T296_RS03880&lt;/b&gt;&lt;br&gt;UvrY/SirA/GacA family response regulator transcription factor&lt;br&gt;Location: 313777 - 314436&lt;br&gt;&lt;br&gt;&lt;b&gt;BlastP hit with MCIC6FC_022238&lt;/b&gt;&lt;br&gt;Percentage identity: 90&lt;br&gt;Percentage coverage: 13&lt;br&gt;BLAST bit score: 331&lt;br&gt;E-value: 4.6e-88" locus_tag="T296_RS03880" class="clusterblast-orf" id="dummy-1_h1_5_12"  />
</g>
<g id="a1_0013"  >
<polygon points="156,90 175,90 180,85 175,80 156,80 156,90 " style="fill:#15bfd8; stroke-width:1; stroke:black; " description="&lt;b&gt;T296_RS03885&lt;/b&gt;&lt;br&gt;excinuclease ABC subunit UvrC&lt;br&gt;Location: 314429 - 316261&lt;br&gt;&lt;br&gt;&lt;b&gt;BlastP hit with MCIC6FC_022238&lt;/b&gt;&lt;br&gt;Percentage identity: 97&lt;br&gt;Percentage coverage: 43&lt;br&gt;BLAST bit score: 1182&lt;br&gt;E-value: 0.0" locus_tag="T296_RS03885" class="clusterblast-orf" id="dummy-1_h1_5_13"  />
</g>
<g id="a1_0014"  >
<polygon points="181,90 183,90 188,85 183,80 181,80 181,90 " style="fill:#15bfd8; stroke-width:1; stroke:black; " description="&lt;b&gt;T296_RS03890&lt;/b&gt;&lt;br&gt;CDP-diacylglycerol--glycerol-3-phosphate 3-phosphatidyltransferase&lt;br&gt;Location: 316331 - 316879&lt;br&gt;&lt;br&gt;&lt;b&gt;BlastP hit with MCIC6FC_022238&lt;/b&gt;&lt;br&gt;Percentage identity: 94&lt;br&gt;Percentage coverage: 11&lt;br&gt;BLAST bit score: 292&lt;br&gt;E-value: 1.8e-76" locus_tag="T296_RS03890" class="clusterblast-orf" id="dummy-1_h1_5_14"  />
</g>
<g id="a1_0015"  >
<polygon points="195,85 199,80 199,90 195,85 " style="fill:white; stroke-width:1; stroke:black; " description="&lt;b&gt;T296_RS03910&lt;/b&gt;&lt;br&gt;hypothetical protein&lt;br&gt;Location: 317452 - 317709" locus_tag="T296_RS03910" class="clusterblast-orf" id="dummy-1_h1_5_15"  />
</g>
<g id="a1_0016"  >
<polygon points="205,90 211,90 216,85 211,80 205,80 205,90 " style="fill:#15bfd8; stroke-width:1; stroke:black; " description="&lt;b&gt;T296_RS03915&lt;/b&gt;&lt;br&gt;substrate-binding domain-containing protein&lt;br&gt;Location: 318176 - 319027&lt;br&gt;&lt;br&gt;&lt;b&gt;BlastP hit with MCIC6FC_022238&lt;/b&gt;&lt;br&gt;Percentage identity: 75&lt;br&gt;Percentage coverage: 17&lt;br&gt;BLAST bit score: 346&lt;br&gt;E-value: 1.1e-92" locus_tag="T296_RS03915" class="clusterblast-orf" id="dummy-1_h1_5_16"  />
</g>
<g id="a1_0017"  >
<polygon points="216,85 219,80 219,90 216,85 " style="fill:white; stroke-width:1; stroke:black; " description="&lt;b&gt;T296_RS24840&lt;/b&gt;&lt;br&gt;hypothetical protein&lt;br&gt;Location: 319059 - 319226" locus_tag="T296_RS24840" class="clusterblast-orf" id="dummy-1_h1_5_17"  />
</g>
<g id="a1_0018"  >
<polygon points="221,90 224,85 221,80 221,90 " style="fill:white; stroke-width:1; stroke:black; " description="&lt;b&gt;T296_RS03920&lt;/b&gt;&lt;br&gt;hypothetical protein&lt;br&gt;Location: 319420 - 319620" locus_tag="T296_RS03920" class="clusterblast-orf" id="dummy-1_h1_5_18"  />
</g>
<g id="a1_0019"  >
<polygon points="224,85 229,80 244,80 244,90 229,90 224,85 " style="fill:#9d15d8; stroke-width:1; stroke:black; " description="&lt;b&gt;T296_RS03925&lt;/b&gt;&lt;br&gt;SulP family inorganic anion transporter&lt;br&gt;Location: 319655 - 321160&lt;br&gt;&lt;br&gt;&lt;b&gt;BlastP hit with MCIC6FC_022239&lt;/b&gt;&lt;br&gt;Percentage identity: 96&lt;br&gt;Percentage coverage: 87&lt;br&gt;BLAST bit score: 892&lt;br&gt;E-value: 2.1e-257" locus_tag="T296_RS03925" class="clusterblast-orf" id="dummy-1_h1_5_19"  />
</g>
<g id="a1_0020"  >
<polygon points="246,85 249,80 249,90 246,85 " style="fill:#9d15d8; stroke-width:1; stroke:black; " description="&lt;b&gt;T296_RS03930&lt;/b&gt;&lt;br&gt;hypothetical protein&lt;br&gt;Location: 321300 - 321560&lt;br&gt;&lt;br&gt;&lt;b&gt;BlastP hit with MCIC6FC_022239&lt;/b&gt;&lt;br&gt;Percentage identity: 96&lt;br&gt;Percentage coverage: 13&lt;br&gt;BLAST bit score: 143&lt;br&gt;E-value: 9.5e-32" locus_tag="T296_RS03930" class="clusterblast-orf" id="dummy-1_h1_5_20"  />
</g>
<g id="a1_0021"  >
<polygon points="254,85 259,80 260,80 260,90 259,90 254,85 " style="fill:#d84815; stroke-width:1; stroke:black; " description="&lt;b&gt;T296_RS03935&lt;/b&gt;&lt;br&gt;DUF2000 domain-containing protein&lt;br&gt;Location: 321950 - 322357&lt;br&gt;&lt;br&gt;&lt;b&gt;BlastP hit with MCIC6FC_022240&lt;/b&gt;&lt;br&gt;Percentage identity: 84&lt;br&gt;Percentage coverage: 25&lt;br&gt;BLAST bit score: 155&lt;br&gt;E-value: 1.2e-35" locus_tag="T296_RS03935" class="clusterblast-orf" id="dummy-1_h1_5_21"  />
</g>
<g id="a1_0022"  >
<polygon points="260,85 265,80 271,80 271,90 265,90 260,85 " style="fill:#d84815; stroke-width:1; stroke:black; " description="&lt;b&gt;T296_RS03940&lt;/b&gt;&lt;br&gt;AraC family transcriptional regulator&lt;br&gt;Location: 322399 - 323247&lt;br&gt;&lt;br&gt;&lt;b&gt;BlastP hit with MCIC6FC_022240&lt;/b&gt;&lt;br&gt;Percentage identity: 91&lt;br&gt;Percentage coverage: 73&lt;br&gt;BLAST bit score: 517&lt;br&gt;E-value: 1.5e-144" locus_tag="T296_RS03940" class="clusterblast-orf" id="dummy-1_h1_5_22"  />
</g>
<g id="a1_0023"  >
<polygon points="273,90 274,90 279,85 274,80 273,80 273,90 " style="fill:#37d815; stroke-width:1; stroke:black; " description="&lt;b&gt;T296_RS03945&lt;/b&gt;&lt;br&gt;MarR family transcriptional regulator&lt;br&gt;Location: 323393 - 323824&lt;br&gt;&lt;br&gt;&lt;b&gt;BlastP hit with MCIC6FC_022241&lt;/b&gt;&lt;br&gt;Percentage identity: 97&lt;br&gt;Percentage coverage: 16&lt;br&gt;BLAST bit score: 184&lt;br&gt;E-value: 3.1e-44" locus_tag="T296_RS03945" class="clusterblast-orf" id="dummy-1_h1_5_23"  />
</g>
<g id="a1_0024"  >
<polygon points="279,90 296,90 301,85 296,80 279,80 279,90 " style="fill:#37d815; stroke-width:1; stroke:black; " description="&lt;b&gt;T296_RS03950&lt;/b&gt;&lt;br&gt;MFS transporter&lt;br&gt;Location: 323827 - 325512&lt;br&gt;&lt;br&gt;&lt;b&gt;BlastP hit with MCIC6FC_022241&lt;/b&gt;&lt;br&gt;Percentage identity: 97&lt;br&gt;Percentage coverage: 81&lt;br&gt;BLAST bit score: 961&lt;br&gt;E-value: 4.1e-278" locus_tag="T296_RS03950" class="clusterblast-orf" id="dummy-1_h1_5_24"  />
</g>
<g id="a1_0025"  >
<polygon points="301,90 310,90 315,85 310,80 301,80 301,90 " style="fill:#158cd8; stroke-width:1; stroke:black; " description="&lt;b&gt;T296_RS03955&lt;/b&gt;&lt;br&gt;HlyD family secretion protein&lt;br&gt;Location: 325509 - 326603&lt;br&gt;&lt;br&gt;&lt;b&gt;BlastP hit with MCIC6FC_022242&lt;/b&gt;&lt;br&gt;Percentage identity: 93&lt;br&gt;Percentage coverage: 47&lt;br&gt;BLAST bit score: 607&lt;br&gt;E-value: 1.4e-171" locus_tag="T296_RS03955" class="clusterblast-orf" id="dummy-1_h1_5_25"  />
</g>
<g id="a1_0026"  >
<polygon points="315,90 328,90 333,85 328,80 315,80 315,90 " style="fill:#158cd8; stroke-width:1; stroke:black; " description="&lt;b&gt;T296_RS03960&lt;/b&gt;&lt;br&gt;efflux transporter outer membrane subunit&lt;br&gt;Location: 326603 - 327985&lt;br&gt;&lt;br&gt;&lt;b&gt;BlastP hit with MCIC6FC_022242&lt;/b&gt;&lt;br&gt;Percentage identity: 90&lt;br&gt;Percentage coverage: 56&lt;br&gt;BLAST bit score: 736&lt;br&gt;E-value: 3.4e-210" locus_tag="T296_RS03960" class="clusterblast-orf" id="dummy-1_h1_5_26"  />
</g>
<g id="a1_0027"  >
<polygon points="337,90 337,90 342,85 337,80 337,80 337,90 " style="fill:#d015d8; stroke-width:1; stroke:black; " description="&lt;b&gt;T296_RS03965&lt;/b&gt;&lt;br&gt;hypothetical protein&lt;br&gt;Location: 328252 - 328638&lt;br&gt;&lt;br&gt;&lt;b&gt;BlastP hit with MCIC6FC_022243&lt;/b&gt;&lt;br&gt;Percentage identity: 98&lt;br&gt;Percentage coverage: 100&lt;br&gt;BLAST bit score: 174&lt;br&gt;E-value: 5.9e-42" locus_tag="T296_RS03965" class="clusterblast-orf" id="dummy-1_h1_5_27"  />
</g>
<g id="a1_0028"  >
<polygon points="345,90 349,90 354,85 349,80 345,80 345,90 " style="fill:#d87b15; stroke-width:1; stroke:black; " description="&lt;b&gt;T296_RS03970&lt;/b&gt;&lt;br&gt;beta-ketoacyl synthase chain length factor&lt;br&gt;Location: 328869 - 329600&lt;br&gt;&lt;br&gt;&lt;b&gt;BlastP hit with MCIC6FC_022244&lt;/b&gt;&lt;br&gt;Percentage identity: 84&lt;br&gt;Percentage coverage: 18&lt;br&gt;BLAST bit score: 396&lt;br&gt;E-value: 1.4e-107" locus_tag="T296_RS03970" class="clusterblast-orf" id="dummy-1_h1_5_28"  />
</g>
<g id="a1_0029"  >
<polygon points="354,90 360,90 365,85 360,80 354,80 354,90 " style="fill:#d87b15; stroke-width:1; stroke:black; " description="&lt;b&gt;T296_RS03975&lt;/b&gt;&lt;br&gt;1-acyl-sn-glycerol-3-phosphate acyltransferase&lt;br&gt;Location: 329593 - 330393&lt;br&gt;&lt;br&gt;&lt;b&gt;BlastP hit with MCIC6FC_022244&lt;/b&gt;&lt;br&gt;Percentage identity: 97&lt;br&gt;Percentage coverage: 20&lt;br&gt;BLAST bit score: 522&lt;br&gt;E-value: 1.7e-145" locus_tag="T296_RS03975" class="clusterblast-orf" id="dummy-1_h1_5_29"  />
</g>
<g id="a1_0030"  >
<polygon points="365,90 368,85 365,80 365,90 " style="fill:white; stroke-width:1; stroke:black; " description="&lt;b&gt;T296_RS03980&lt;/b&gt;&lt;br&gt;acyl carrier protein&lt;br&gt;Location: 330407 - 330664" locus_tag="T296_RS03980" class="clusterblast-orf" id="dummy-1_h1_5_30"  />
</g>
<g id="a1_0031"  >
<polygon points="369,90 372,85 369,80 369,90 " style="fill:white; stroke-width:1; stroke:black; " description="&lt;b&gt;T296_RS03985&lt;/b&gt;&lt;br&gt;acyl carrier protein&lt;br&gt;Location: 330681 - 330935" locus_tag="T296_RS03985" class="clusterblast-orf" id="dummy-1_h1_5_31"  />
</g>
<g id="a1_0032"  >
<polygon points="372,90 374,90 379,85 374,80 372,80 372,90 " style="fill:#d87b15; stroke-width:1; stroke:black; " description="&lt;b&gt;T296_RS03990&lt;/b&gt;&lt;br&gt;hypothetical protein&lt;br&gt;Location: 330943 - 331506&lt;br&gt;&lt;br&gt;&lt;b&gt;BlastP hit with MCIC6FC_022244&lt;/b&gt;&lt;br&gt;Percentage identity: 83&lt;br&gt;Percentage coverage: 11&lt;br&gt;BLAST bit score: 239&lt;br&gt;E-value: 2.2e-60" locus_tag="T296_RS03990" class="clusterblast-orf" id="dummy-1_h1_5_32"  />
</g>
<g id="a1_0033"  >
<polygon points="379,90 392,90 397,85 392,80 379,80 379,90 " style="fill:#d87b15; stroke-width:1; stroke:black; " description="&lt;b&gt;T296_RS03995&lt;/b&gt;&lt;br&gt;acyl-CoA synthetase&lt;br&gt;Location: 331503 - 332822&lt;br&gt;&lt;br&gt;&lt;b&gt;BlastP hit with MCIC6FC_022244&lt;/b&gt;&lt;br&gt;Percentage identity: 88&lt;br&gt;Percentage coverage: 32&lt;br&gt;BLAST bit score: 748&lt;br&gt;E-value: 1.5e-213" locus_tag="T296_RS03995" class="clusterblast-orf" id="dummy-1_h1_5_33"  />
</g>
<g id="a1_0034"  >
<polygon points="397,90 401,85 397,80 397,90 " style="fill:white; stroke-width:1; stroke:black; " description="&lt;b&gt;T296_RS04000&lt;/b&gt;&lt;br&gt;hydroxymyristoyl-ACP dehydratase&lt;br&gt;Location: 332809 - 333156" locus_tag="T296_RS04000" class="clusterblast-orf" id="dummy-1_h1_5_34"  />
</g>
<g id="a1_0035"  >
<polygon points="401,90 418,90 423,85 418,80 401,80 401,90 " style="fill:#15d826; stroke-width:1; stroke:black; " description="&lt;b&gt;T296_RS04005&lt;/b&gt;&lt;br&gt;glycosyltransferase family 2 protein&lt;br&gt;Location: 333150 - 334859&lt;br&gt;&lt;br&gt;&lt;b&gt;BlastP hit with MCIC6FC_022245&lt;/b&gt;&lt;br&gt;Percentage identity: 96&lt;br&gt;Percentage coverage: 34&lt;br&gt;BLAST bit score: 1027&lt;br&gt;E-value: 1.5e-297" locus_tag="T296_RS04005" class="clusterblast-orf" id="dummy-1_h1_5_35"  />
</g>
<g id="a1_0036"  >
<polygon points="423,90 424,90 429,85 424,80 423,80 423,90 " style="fill:white; stroke-width:1; stroke:black; " description="&lt;b&gt;T296_RS04010&lt;/b&gt;&lt;br&gt;acyl-CoA thioesterase&lt;br&gt;Location: 334852 - 335265" locus_tag="T296_RS04010" class="clusterblast-orf" id="dummy-1_h1_5_36"  />
</g>
<g id="a1_0037"  >
<polygon points="429,90 432,90 437,85 432,80 429,80 429,90 " style="fill:white; stroke-width:1; stroke:black; " description="&lt;b&gt;T296_RS04015&lt;/b&gt;&lt;br&gt;outer membrane lipoprotein carrier protein LolA&lt;br&gt;Location: 335259 - 335867" locus_tag="T296_RS04015" class="clusterblast-orf" id="dummy-1_h1_5_37"  />
</g>
<g id="a1_0038"  >
<polygon points="436,90 462,90 467,85 462,80 436,80 436,90 " style="fill:#15d826; stroke-width:1; stroke:black; " description="&lt;b&gt;T296_RS04020&lt;/b&gt;&lt;br&gt;MMPL family transporter&lt;br&gt;Location: 335854 - 338160&lt;br&gt;&lt;br&gt;&lt;b&gt;BlastP hit with MCIC6FC_022245&lt;/b&gt;&lt;br&gt;Percentage identity: 96&lt;br&gt;Percentage coverage: 44&lt;br&gt;BLAST bit score: 1195&lt;br&gt;E-value: 0.0" locus_tag="T296_RS04020" class="clusterblast-orf" id="dummy-1_h1_5_38"  />
</g>
<g id="a1_0039"  >
<polygon points="467,90 469,90 474,85 469,80 467,80 467,90 " style="fill:#1559d8; stroke-width:1; stroke:black; " description="&lt;b&gt;T296_RS04025&lt;/b&gt;&lt;br&gt;DUF3261 domain-containing protein&lt;br&gt;Location: 338157 - 338729&lt;br&gt;&lt;br&gt;&lt;b&gt;BlastP hit with MCIC6FC_022246&lt;/b&gt;&lt;br&gt;Percentage identity: 87&lt;br&gt;Percentage coverage: 110&lt;br&gt;BLAST bit score: 308&lt;br&gt;E-value: 3.9e-82" locus_tag="T296_RS04025" class="clusterblast-orf" id="dummy-1_h1_5_39"  />
</g>
<g id="a1_0040"  >
<polygon points="474,90 484,90 489,85 484,80 474,80 474,90 " style="fill:#d815ae; stroke-width:1; stroke:black; " description="&lt;b&gt;T296_RS04030&lt;/b&gt;&lt;br&gt;beta-ketoacyl-[acyl-carrier-protein] synthase family protein&lt;br&gt;Location: 338726 - 339886&lt;br&gt;&lt;br&gt;&lt;b&gt;BlastP hit with MCIC6FC_022247&lt;/b&gt;&lt;br&gt;Percentage identity: 92&lt;br&gt;Percentage coverage: 99&lt;br&gt;BLAST bit score: 680&lt;br&gt;E-value: 1.1e-193" locus_tag="T296_RS04030" class="clusterblast-orf" id="dummy-1_h1_5_40"  />
</g>
<g id="a1_0041"  >
<polygon points="489,90 490,90 495,85 490,80 489,80 489,90 " style="fill:#d815ae; stroke-width:1; stroke:black; " description="&lt;b&gt;T296_RS04035&lt;/b&gt;&lt;br&gt;3-hydroxy-fatty acyl-ACP dehydratase&lt;br&gt;Location: 339876 - 340352&lt;br&gt;&lt;br&gt;&lt;b&gt;BlastP hit with MCIC6FC_022248&lt;/b&gt;&lt;br&gt;Percentage identity: 67&lt;br&gt;Percentage coverage: 19&lt;br&gt;BLAST bit score: 178&lt;br&gt;E-value: 3.3e-42" locus_tag="T296_RS04035" class="clusterblast-orf" id="dummy-1_h1_5_41"  />
</g>
<g id="a1_0042"  >
<polygon points="495,90 500,90 505,85 500,80 495,80 495,90 " style="fill:#d815ae; stroke-width:1; stroke:black; " description="&lt;b&gt;T296_RS04040&lt;/b&gt;&lt;br&gt;3-oxoacyl-ACP reductase FabG&lt;br&gt;Location: 340349 - 341080&lt;br&gt;&lt;br&gt;&lt;b&gt;BlastP hit with MCIC6FC_022248&lt;/b&gt;&lt;br&gt;Percentage identity: 95&lt;br&gt;Percentage coverage: 31&lt;br&gt;BLAST bit score: 413&lt;br&gt;E-value: 4.7e-113" locus_tag="T296_RS04040" class="clusterblast-orf" id="dummy-1_h1_5_42"  />
</g>
<g id="a1_0043"  >
<polygon points="505,90 516,90 521,85 516,80 505,80 505,90 " style="fill:#d815ae; stroke-width:1; stroke:black; " description="&lt;b&gt;T296_RS04045&lt;/b&gt;&lt;br&gt;beta-ketoacyl-ACP synthase&lt;br&gt;Location: 341077 - 342312&lt;br&gt;&lt;br&gt;&lt;b&gt;BlastP hit with MCIC6FC_022247&lt;/b&gt;&lt;br&gt;Percentage identity: 35&lt;br&gt;Percentage coverage: 69&lt;br&gt;BLAST bit score: 131&lt;br&gt;E-value: 1.9e-28&lt;br&gt;&lt;br&gt;&lt;b&gt;BlastP hit with MCIC6FC_022248&lt;/b&gt;&lt;br&gt;Percentage identity: 88&lt;br&gt;Percentage coverage: 58&lt;br&gt;BLAST bit score: 727&lt;br&gt;E-value: 1.9e-207" locus_tag="T296_RS04045" class="clusterblast-orf" id="dummy-1_h1_5_43"  />
</g>
<g id="a1_0044"  >
<polygon points="523,90 525,85 523,80 523,90 " style="fill:white; stroke-width:1; stroke:black; " description="&lt;b&gt;T296_RS24845&lt;/b&gt;&lt;br&gt;hypothetical protein&lt;br&gt;Location: 342445 - 342588" locus_tag="T296_RS24845" class="clusterblast-orf" id="dummy-1_h1_5_44"  />
</g>
<g id="a1_0045"  >
<polygon points="525,90 528,85 525,80 525,90 " style="fill:white; stroke-width:1; stroke:black; " description="&lt;b&gt;T296_RS24850&lt;/b&gt;&lt;br&gt;hypothetical protein&lt;br&gt;Location: 342628 - 342801" locus_tag="T296_RS24850" class="clusterblast-orf" id="dummy-1_h1_5_45"  />
</g>
<g id="a1_0046"  >
<polygon points="527,85 532,80 543,80 543,90 532,90 527,85 " style="fill:#d8ae15; stroke-width:1; stroke:black; " description="&lt;b&gt;T296_RS04050&lt;/b&gt;&lt;br&gt;beta-glucosidase&lt;br&gt;Location: 342789 - 343952&lt;br&gt;&lt;br&gt;&lt;b&gt;BlastP hit with MCIC6FC_022249&lt;/b&gt;&lt;br&gt;Percentage identity: 90&lt;br&gt;Percentage coverage: 96&lt;br&gt;BLAST bit score: 700&lt;br&gt;E-value: 8.1e-200" locus_tag="T296_RS04050" class="clusterblast-orf" id="dummy-1_h1_5_46"  />
</g>
<g id="a1_0047"  >
<polygon points="545,90 559,90 564,85 559,80 545,80 545,90 " style="fill:#15d859; stroke-width:1; stroke:black; " description="&lt;b&gt;T296_RS04055&lt;/b&gt;&lt;br&gt;phospholipase D family protein&lt;br&gt;Location: 344108 - 345568&lt;br&gt;&lt;br&gt;&lt;b&gt;BlastP hit with MCIC6FC_022250&lt;/b&gt;&lt;br&gt;Percentage identity: 94&lt;br&gt;Percentage coverage: 103&lt;br&gt;BLAST bit score: 914&lt;br&gt;E-value: 3.3e-264" locus_tag="T296_RS04055" class="clusterblast-orf" id="dummy-1_h1_5_47"  />
</g>
<g id="a1_0048"  >
<polygon points="568,85 573,80 583,80 583,90 573,90 568,85 " style="fill:#1526d8; stroke-width:1; stroke:black; " description="&lt;b&gt;T296_RS04060&lt;/b&gt;&lt;br&gt;glucans biosynthesis protein MdoC&lt;br&gt;Location: 345865 - 346998&lt;br&gt;&lt;br&gt;&lt;b&gt;BlastP hit with MCIC6FC_022251&lt;/b&gt;&lt;br&gt;Percentage identity: 93&lt;br&gt;Percentage coverage: 98&lt;br&gt;BLAST bit score: 477&lt;br&gt;E-value: 6.9e-133" locus_tag="T296_RS04060" class="clusterblast-orf" id="dummy-1_h1_5_48"  />
</g>
<g id="a1_0049"  >
<polygon points="586,90 601,90 606,85 601,80 586,80 586,90 " style="fill:#d8157b; stroke-width:1; stroke:black; " description="&lt;b&gt;T296_RS04065&lt;/b&gt;&lt;br&gt;glucan biosynthesis protein&lt;br&gt;Location: 347267 - 348802&lt;br&gt;&lt;br&gt;&lt;b&gt;BlastP hit with MCIC6FC_022252&lt;/b&gt;&lt;br&gt;Percentage identity: 99&lt;br&gt;Percentage coverage: 35&lt;br&gt;BLAST bit score: 906&lt;br&gt;E-value: 4e-261" locus_tag="T296_RS04065" class="clusterblast-orf" id="dummy-1_h1_5_49"  />
</g>
<g id="a1_0050"  >
<polygon points="606,90 635,90 640,85 635,80 606,80 606,90 " style="fill:#d8157b; stroke-width:1; stroke:black; " description="&lt;b&gt;T296_RS04070&lt;/b&gt;&lt;br&gt;glucans biosynthesis glucosyltransferase MdoH&lt;br&gt;Location: 348795 - 351347&lt;br&gt;&lt;br&gt;&lt;b&gt;BlastP hit with MCIC6FC_022252&lt;/b&gt;&lt;br&gt;Percentage identity: 95&lt;br&gt;Percentage coverage: 67&lt;br&gt;BLAST bit score: 1582&lt;br&gt;E-value: 0.0" locus_tag="T296_RS04070" class="clusterblast-orf" id="dummy-1_h1_5_50"  />
</g>
<g id="a1_0051"  >
<polygon points="641,90 644,85 641,80 641,90 " style="fill:white; stroke-width:1; stroke:black; " description="&lt;b&gt;T296_RS04075&lt;/b&gt;&lt;br&gt;YceK/YidQ family lipoprotein&lt;br&gt;Location: 351482 - 351721" locus_tag="T296_RS04075" class="clusterblast-orf" id="dummy-1_h1_5_51"  />
</g>
<g id="a1_0052"  >
<polygon points="644,85 649,80 650,80 650,90 649,90 644,85 " style="fill:#d0d815; stroke-width:1; stroke:black; " description="&lt;b&gt;T296_RS04080&lt;/b&gt;&lt;br&gt;SecY/SecA suppressor protein&lt;br&gt;Location: 351712 - 352113&lt;br&gt;&lt;br&gt;&lt;b&gt;BlastP hit with MCIC6FC_022253&lt;/b&gt;&lt;br&gt;Percentage identity: 92&lt;br&gt;Percentage coverage: 100&lt;br&gt;BLAST bit score: 250&lt;br&gt;E-value: 1.3e-64" locus_tag="T296_RS04080" class="clusterblast-orf" id="dummy-1_h1_5_52"  />
</g>
<g id="a1_0053"  >
<polygon points="651,85 655,80 655,90 651,85 " style="fill:white; stroke-width:1; stroke:black; " description="&lt;b&gt;T296_RS04085&lt;/b&gt;&lt;br&gt;hypothetical protein&lt;br&gt;Location: 352244 - 352510" locus_tag="T296_RS04085" class="clusterblast-orf" id="dummy-1_h1_5_53"  />
</g>
<g id="a1_0054"  >
<polygon points="662,85 667,80 674,80 674,90 667,90 662,85 " style="fill:white; stroke-width:1; stroke:black; " description="&lt;b&gt;T296_RS04090&lt;/b&gt;&lt;br&gt;LpxL/LpxP family Kdo(2)-lipid IV(A) lauroyl/palmitoleoyl acyltransferasee&lt;br&gt;Location: 353040 - 353963" locus_tag="T296_RS04090" class="clusterblast-orf" id="dummy-1_h1_5_54"  />
</g>
<g id="a1_0055"  >
<polygon points="677,90 686,90 691,85 686,80 677,80 677,90 " style="fill:#15d88c; stroke-width:1; stroke:black; " description="&lt;b&gt;T296_RS04095&lt;/b&gt;&lt;br&gt;rhodanese-related sulfurtransferase&lt;br&gt;Location: 354216 - 355265&lt;br&gt;&lt;br&gt;&lt;b&gt;BlastP hit with MCIC6FC_022254&lt;/b&gt;&lt;br&gt;Percentage identity: 98&lt;br&gt;Percentage coverage: 72&lt;br&gt;BLAST bit score: 708&lt;br&gt;E-value: 6.2e-202" locus_tag="T296_RS04095" class="clusterblast-orf" id="dummy-1_h1_5_55"  />
</g>
<g id="a1_0056"  >
<polygon points="691,85 696,80 699,80 699,90 696,90 691,85 " style="fill:#3715d8; stroke-width:1; stroke:black; " description="&lt;b&gt;T296_RS04100&lt;/b&gt;&lt;br&gt;YceI family protein&lt;br&gt;Location: 355305 - 355880&lt;br&gt;&lt;br&gt;&lt;b&gt;BlastP hit with MCIC6FC_022255&lt;/b&gt;&lt;br&gt;Percentage identity: 95&lt;br&gt;Percentage coverage: 55&lt;br&gt;BLAST bit score: 369&lt;br&gt;E-value: 2.8e-100" locus_tag="T296_RS04100" class="clusterblast-orf" id="dummy-1_h1_5_56"  />
</g>
<g id="a1_0057"  >
<polygon points="699,85 704,80 707,80 707,90 704,90 699,85 " style="fill:#3715d8; stroke-width:1; stroke:black; " description="&lt;b&gt;T296_RS04105&lt;/b&gt;&lt;br&gt;cytochrome b&lt;br&gt;Location: 355882 - 356457&lt;br&gt;&lt;br&gt;&lt;b&gt;BlastP hit with MCIC6FC_022255&lt;/b&gt;&lt;br&gt;Percentage identity: 95&lt;br&gt;Percentage coverage: 44&lt;br&gt;BLAST bit score: 287&lt;br&gt;E-value: 2.4e-75" locus_tag="T296_RS04105" class="clusterblast-orf" id="dummy-1_h1_5_57"  />
</g>
<g id="a1_0058"  >
<polygon points="710,85 715,80 725,80 725,90 715,90 710,85 " style="fill:#d81548; stroke-width:1; stroke:black; " description="&lt;b&gt;T296_RS04110&lt;/b&gt;&lt;br&gt;N-methyl-L-tryptophan oxidase&lt;br&gt;Location: 356752 - 357864&lt;br&gt;&lt;br&gt;&lt;b&gt;BlastP hit with MCIC6FC_022256&lt;/b&gt;&lt;br&gt;Percentage identity: 97&lt;br&gt;Percentage coverage: 86&lt;br&gt;BLAST bit score: 753&lt;br&gt;E-value: 8.8e-216" locus_tag="T296_RS04110" class="clusterblast-orf" id="dummy-1_h1_5_58"  />
</g>
<g id="a1_0059"  >
<polygon points="726,85 730,80 730,90 726,85 " style="fill:#d81548; stroke-width:1; stroke:black; " description="&lt;b&gt;T296_RS04115&lt;/b&gt;&lt;br&gt;biofilm formation regulator BssS&lt;br&gt;Location: 357959 - 358213&lt;br&gt;&lt;br&gt;&lt;b&gt;BlastP hit with MCIC6FC_022256&lt;/b&gt;&lt;br&gt;Percentage identity: 91&lt;br&gt;Percentage coverage: 15&lt;br&gt;BLAST bit score: 124&lt;br&gt;E-value: 2e-26" locus_tag="T296_RS04115" class="clusterblast-orf" id="dummy-1_h1_5_59"  />
</g>
<g id="a1_0060"  >
<polygon points="733,85 736,80 736,90 733,85 " style="fill:#9dd815; stroke-width:1; stroke:black; " description="&lt;b&gt;T296_RS04120&lt;/b&gt;&lt;br&gt;hypothetical protein&lt;br&gt;Location: 358460 - 358732&lt;br&gt;&lt;br&gt;&lt;b&gt;BlastP hit with MCIC6FC_022257&lt;/b&gt;&lt;br&gt;Percentage identity: 98&lt;br&gt;Percentage coverage: 53&lt;br&gt;BLAST bit score: 176&lt;br&gt;E-value: 2.3e-42" locus_tag="T296_RS04120" class="clusterblast-orf" id="dummy-1_h1_5_60"  />
</g>
<g id="a1_0061"  >
<polygon points="738,85 741,80 741,90 738,85 " style="fill:#9dd815; stroke-width:1; stroke:black; " description="&lt;b&gt;T296_RS04125&lt;/b&gt;&lt;br&gt;DNA damage-inducible protein I&lt;br&gt;Location: 358878 - 359123&lt;br&gt;&lt;br&gt;&lt;b&gt;BlastP hit with MCIC6FC_022257&lt;/b&gt;&lt;br&gt;Percentage identity: 100&lt;br&gt;Percentage coverage: 45&lt;br&gt;BLAST bit score: 156&lt;br&gt;E-value: 3.2e-36" locus_tag="T296_RS04125" class="clusterblast-orf" id="dummy-1_h1_5_61"  />
</g>
<g id="a1_0062"  >
<polygon points="742,85 747,80 756,80 756,90 747,90 742,85 " style="fill:#15d8bf; stroke-width:1; stroke:black; " description="&lt;b&gt;T296_RS04130&lt;/b&gt;&lt;br&gt;dihydroorotase&lt;br&gt;Location: 359186 - 360229&lt;br&gt;&lt;br&gt;&lt;b&gt;BlastP hit with MCIC6FC_022258&lt;/b&gt;&lt;br&gt;Percentage identity: 96&lt;br&gt;Percentage coverage: 54&lt;br&gt;BLAST bit score: 624&lt;br&gt;E-value: 1.1e-176" locus_tag="T296_RS04130" class="clusterblast-orf" id="dummy-1_h1_5_62"  />
</g>
<g id="a1_0063"  >
<polygon points="762,85 767,80 770,80 770,90 767,90 762,85 " style="fill:#15d8bf; stroke-width:1; stroke:black; " description="&lt;b&gt;T296_RS04140&lt;/b&gt;&lt;br&gt;lipoprotein&lt;br&gt;Location: 360701 - 361264&lt;br&gt;&lt;br&gt;&lt;b&gt;BlastP hit with MCIC6FC_022258&lt;/b&gt;&lt;br&gt;Percentage identity: 79&lt;br&gt;Percentage coverage: 32&lt;br&gt;BLAST bit score: 273&lt;br&gt;E-value: 4.7e-71" locus_tag="T296_RS04140" class="clusterblast-orf" id="dummy-1_h1_5_63"  />
</g>
<g id="a1_0064"  >
<polygon points="771,85 776,80 780,80 780,90 776,90 771,85 " style="fill:#6a15d8; stroke-width:1; stroke:black; " description="&lt;b&gt;T296_RS04145&lt;/b&gt;&lt;br&gt;glutaredoxin 2&lt;br&gt;Location: 361379 - 362026&lt;br&gt;&lt;br&gt;&lt;b&gt;BlastP hit with MCIC6FC_022259&lt;/b&gt;&lt;br&gt;Percentage identity: 96&lt;br&gt;Percentage coverage: 99&lt;br&gt;BLAST bit score: 368&lt;br&gt;E-value: 3.5e-100" locus_tag="T296_RS04145" class="clusterblast-orf" id="dummy-1_h1_5_64"  />
</g>
</svg>
