<svg xmlns="http://www.w3.org/2000/svg" xmlns:xlink="http://www.w3.org/1999/xlink" version="1.1" x="0" y="0" height="230" width="800" viewBox="0 0 800 230" preserveAspectRatio="none"  >
<g label="Query sequence" class="clusterblast-cluster"  >
<text x="5" y="20" class="clusterblast-acc"  >
Query sequence</text>
<line x1="10" y1="35" x2="778.0" y2="35" style="stroke-width:1; stroke:grey; "  />
<polygon points="40,35 45,30 49,30 49,40 45,40 40,35 " style="fill:#d81515; stroke-width:1; stroke:black; " description="&lt;b&gt;MCIC6FC_004335&lt;/b&gt;&lt;br&gt;hypothetical protein&lt;br&gt;Location: 75504 - 75789" locus_tag="MCIC6FC_004335" class="clusterblast-orf" id="dummy-1_q0_0_all"  />
<polygon points="52,35 57,30 106,30 106,40 57,40 52,35 " style="fill:#15d815; stroke-width:1; stroke:black; " description="&lt;b&gt;MCIC6FC_004336&lt;/b&gt;&lt;br&gt;hypothetical protein&lt;br&gt;Location: 75871 - 77545" locus_tag="MCIC6FC_004336" class="clusterblast-orf" id="dummy-1_q1_0_all"  />
<polygon points="110,35 115,30 133,30 133,40 115,40 110,35 " style="fill:#1597d8; stroke-width:1; stroke:black; " description="&lt;b&gt;MCIC6FC_004337&lt;/b&gt;&lt;br&gt;hypothetical protein&lt;br&gt;Location: 77653 - 78341" locus_tag="MCIC6FC_004337" class="clusterblast-orf" id="dummy-1_q2_0_all"  />
<polygon points="142,35 147,30 181,30 181,40 147,40 142,35 " style="fill:#9715d8; stroke-width:1; stroke:black; " description="&lt;b&gt;MCIC6FC_004338&lt;/b&gt;&lt;br&gt;hypothetical protein&lt;br&gt;Location: 78631 - 79827" locus_tag="MCIC6FC_004338" class="clusterblast-orf" id="dummy-1_q3_0_all"  />
<polygon points="184,35 189,30 218,30 218,40 189,40 184,35 " style="fill:#d89715; stroke-width:1; stroke:black; " description="&lt;b&gt;MCIC6FC_004339&lt;/b&gt;&lt;br&gt;hypothetical protein&lt;br&gt;Location: 79909 - 80961" locus_tag="MCIC6FC_004339" class="clusterblast-orf" id="dummy-1_q4_0_all"  />
<polygon points="227,40 401,40 406,35 401,30 227,30 227,40 " style="fill:#15d897; stroke-width:1; stroke:black; " description="&lt;b&gt;MCIC6FC_004340&lt;/b&gt;&lt;br&gt;hypothetical protein&lt;br&gt;Location: 81238 - 86681" locus_tag="MCIC6FC_004340" class="clusterblast-orf" id="dummy-1_q5_0_all"  />
<polygon points="411,40 430,40 435,35 430,30 411,30 411,40 " style="fill:#1515d8; stroke-width:1; stroke:black; " description="&lt;b&gt;MCIC6FC_004341&lt;/b&gt;&lt;br&gt;hypothetical protein&lt;br&gt;Location: 86843 - 87584" locus_tag="MCIC6FC_004341" class="clusterblast-orf" id="dummy-1_q6_0_all"  />
<polygon points="437,35 442,30 473,30 473,40 442,40 437,35 " style="fill:#d81597; stroke-width:1; stroke:black; " description="&lt;b&gt;MCIC6FC_004342&lt;/b&gt;&lt;br&gt;hypothetical protein&lt;br&gt;Location: 87637 - 88737" locus_tag="MCIC6FC_004342" class="clusterblast-orf" id="dummy-1_q7_0_all"  />
<polygon points="485,35 490,30 740,30 740,40 490,40 485,35 " style="fill:#97d815; stroke-width:1; stroke:black; " description="&lt;b&gt;MCIC6FC_004343&lt;/b&gt;&lt;br&gt;hypothetical protein&lt;br&gt;Location: 89114 - 96894" locus_tag="MCIC6FC_004343" class="clusterblast-orf" id="dummy-1_q8_0_all"  />
</g>
<g label="NZ_JPKP01000002" description="NZ_JPKP01000002 (33164-59419): Pantoea vagans strain MP7 Contig2, whole genom... (81% of genes show similarity), thiopeptide" class="clusterblast-cluster"  >
<text x="5" y="70" class="clusterblast-acc"  >
<a xlink:href="https://antismash-db.secondarymetabolites.org/area.html?record=NZ_JPKP01000002&amp;start=33164&amp;end=59419" target="_blank">NZ_JPKP01000002 (33164-59419)</a>: Pantoea vagans strain MP7 Contig2, whole genom... (81% of genes show similarity), thiopeptide</text>
<line x1="10" y1="85" x2="778.0" y2="85" style="stroke-width:1; stroke:grey; "  />
</g>
<g id="a1_000"  >
<polygon points="0,85 5,80 74,80 74,90 5,90 0,85 " style="fill:white; stroke-width:1; stroke:black; " description="&lt;b&gt;ID11_RS04325&lt;/b&gt;&lt;br&gt;DNA internalization-related competence protein ComEC/Rec2&lt;br&gt;Location: 57689 - 55422" locus_tag="ID11_RS04325" class="clusterblast-orf" id="dummy-1_h1_8_0"  />
</g>
<g id="a1_001"  >
<polygon points="80,85 85,80 89,80 89,90 85,90 80,85 " style="fill:#d81515; stroke-width:1; stroke:black; " description="&lt;b&gt;ID11_RS04320&lt;/b&gt;&lt;br&gt;integration host factor subunit beta&lt;br&gt;Location: 55235 - 54951&lt;br&gt;&lt;br&gt;&lt;b&gt;BlastP hit with MCIC6FC_004335&lt;/b&gt;&lt;br&gt;Percentage identity: 100&lt;br&gt;Percentage coverage: 100&lt;br&gt;BLAST bit score: 195&lt;br&gt;E-value: 2.6e-48" locus_tag="ID11_RS04320" class="clusterblast-orf" id="dummy-1_h1_8_1"  />
</g>
<g id="a1_002"  >
<polygon points="92,85 97,80 147,80 147,90 97,90 92,85 " style="fill:#15d815; stroke-width:1; stroke:black; " description="&lt;b&gt;ID11_RS04315&lt;/b&gt;&lt;br&gt;30S ribosomal protein S1&lt;br&gt;Location: 54868 - 53195&lt;br&gt;&lt;br&gt;&lt;b&gt;BlastP hit with MCIC6FC_004336&lt;/b&gt;&lt;br&gt;Percentage identity: 100&lt;br&gt;Percentage coverage: 100&lt;br&gt;BLAST bit score: 1077&lt;br&gt;E-value: 0.0" locus_tag="ID11_RS04315" class="clusterblast-orf" id="dummy-1_h1_8_2"  />
</g>
<g id="a1_003"  >
<polygon points="150,85 155,80 173,80 173,90 155,90 150,85 " style="fill:#1597d8; stroke-width:1; stroke:black; " description="&lt;b&gt;ID11_RS04310&lt;/b&gt;&lt;br&gt;(d)CMP kinase&lt;br&gt;Location: 53086 - 52400&lt;br&gt;&lt;br&gt;&lt;b&gt;BlastP hit with MCIC6FC_004337&lt;/b&gt;&lt;br&gt;Percentage identity: 91&lt;br&gt;Percentage coverage: 109&lt;br&gt;BLAST bit score: 389&lt;br&gt;E-value: 2.8e-106" locus_tag="ID11_RS04310" class="clusterblast-orf" id="dummy-1_h1_8_3"  />
</g>
<g id="a1_004"  >
<polygon points="179,85 184,80 221,80 221,90 184,90 179,85 " style="fill:#9715d8; stroke-width:1; stroke:black; " description="&lt;b&gt;ID11_RS04305&lt;/b&gt;&lt;br&gt;3-phosphoshikimate 1-carboxyvinyltransferase&lt;br&gt;Location: 52200 - 50914&lt;br&gt;&lt;br&gt;&lt;b&gt;BlastP hit with MCIC6FC_004338&lt;/b&gt;&lt;br&gt;Percentage identity: 91&lt;br&gt;Percentage coverage: 103&lt;br&gt;BLAST bit score: 699&lt;br&gt;E-value: 2.3e-199" locus_tag="ID11_RS04305" class="clusterblast-orf" id="dummy-1_h1_8_4"  />
</g>
<g id="a1_005"  >
<polygon points="224,85 229,80 260,80 260,90 229,90 224,85 " style="fill:#d89715; stroke-width:1; stroke:black; " description="&lt;b&gt;ID11_RS04300&lt;/b&gt;&lt;br&gt;3-phosphoserine/phosphohydroxythreonine transaminase&lt;br&gt;Location: 50831 - 49746&lt;br&gt;&lt;br&gt;&lt;b&gt;BlastP hit with MCIC6FC_004339&lt;/b&gt;&lt;br&gt;Percentage identity: 95&lt;br&gt;Percentage coverage: 104&lt;br&gt;BLAST bit score: 668&lt;br&gt;E-value: 2.9e-190" locus_tag="ID11_RS04300" class="clusterblast-orf" id="dummy-1_h1_8_5"  />
</g>
<g id="a1_006"  >
<polygon points="270,90 323,90 328,85 323,80 270,80 270,90 " style="fill:#15d897; stroke-width:1; stroke:black; " description="&lt;b&gt;ID11_RS04295&lt;/b&gt;&lt;br&gt;30S ribosomal protein S12 methylthiotransferase accessory factor YcaO&lt;br&gt;Location: 49419 - 47656&lt;br&gt;&lt;br&gt;&lt;b&gt;BlastP hit with MCIC6FC_004340&lt;/b&gt;&lt;br&gt;Percentage identity: 89&lt;br&gt;Percentage coverage: 39&lt;br&gt;BLAST bit score: 1029&lt;br&gt;E-value: 4.8e-298" locus_tag="ID11_RS04295" class="clusterblast-orf" id="dummy-1_h1_8_6"  />
</g>
<g id="a1_007"  >
<polygon points="340,90 363,90 368,85 363,80 340,80 340,90 " style="fill:#15d897; stroke-width:1; stroke:black; " description="&lt;b&gt;ID11_RS04290&lt;/b&gt;&lt;br&gt;formate transporter FocA&lt;br&gt;Location: 47282 - 46422&lt;br&gt;&lt;br&gt;&lt;b&gt;BlastP hit with MCIC6FC_004340&lt;/b&gt;&lt;br&gt;Percentage identity: 98&lt;br&gt;Percentage coverage: 14&lt;br&gt;BLAST bit score: 393&lt;br&gt;E-value: 7.9e-107" locus_tag="ID11_RS04290" class="clusterblast-orf" id="dummy-1_h1_8_7"  />
</g>
<g id="a1_008"  >
<polygon points="371,90 440,90 445,85 440,80 371,80 371,90 " style="fill:#15d897; stroke-width:1; stroke:black; " description="&lt;b&gt;ID11_RS04285&lt;/b&gt;&lt;br&gt;formate C-acetyltransferase&lt;br&gt;Location: 46350 - 44068&lt;br&gt;&lt;br&gt;&lt;b&gt;BlastP hit with MCIC6FC_004340&lt;/b&gt;&lt;br&gt;Percentage identity: 96&lt;br&gt;Percentage coverage: 51&lt;br&gt;BLAST bit score: 1433&lt;br&gt;E-value: 0.0" locus_tag="ID11_RS04285" class="clusterblast-orf" id="dummy-1_h1_8_8"  />
</g>
<g id="a1_009"  >
<polygon points="451,90 470,90 475,85 470,80 451,80 451,90 " style="fill:#1515d8; stroke-width:1; stroke:black; " description="&lt;b&gt;ID11_RS04280&lt;/b&gt;&lt;br&gt;pyruvate formate lyase 1-activating protein&lt;br&gt;Location: 43905 - 43165&lt;br&gt;&lt;br&gt;&lt;b&gt;BlastP hit with MCIC6FC_004341&lt;/b&gt;&lt;br&gt;Percentage identity: 99&lt;br&gt;Percentage coverage: 100&lt;br&gt;BLAST bit score: 517&lt;br&gt;E-value: 1e-144" locus_tag="ID11_RS04280" class="clusterblast-orf" id="dummy-1_h1_8_9"  />
</g>
<g id="a1_0010"  >
<polygon points="477,85 482,80 514,80 514,90 482,90 477,85 " style="fill:#d81597; stroke-width:1; stroke:black; " description="&lt;b&gt;ID11_RS04275&lt;/b&gt;&lt;br&gt;MFS transporter&lt;br&gt;Location: 43112 - 41961&lt;br&gt;&lt;br&gt;&lt;b&gt;BlastP hit with MCIC6FC_004342&lt;/b&gt;&lt;br&gt;Percentage identity: 98&lt;br&gt;Percentage coverage: 85&lt;br&gt;BLAST bit score: 381&lt;br&gt;E-value: 8.6e-104" locus_tag="ID11_RS04275" class="clusterblast-orf" id="dummy-1_h1_8_10"  />
</g>
<g id="a1_0011"  >
<polygon points="525,85 530,80 567,80 567,90 530,90 525,85 " style="fill:#97d815; stroke-width:1; stroke:black; " description="&lt;b&gt;ID11_RS04270&lt;/b&gt;&lt;br&gt;serine--tRNA ligase&lt;br&gt;Location: 41642 - 40350&lt;br&gt;&lt;br&gt;&lt;b&gt;BlastP hit with MCIC6FC_004343&lt;/b&gt;&lt;br&gt;Percentage identity: 100&lt;br&gt;Percentage coverage: 18&lt;br&gt;BLAST bit score: 850&lt;br&gt;E-value: 4.9e-244" locus_tag="ID11_RS04270" class="clusterblast-orf" id="dummy-1_h1_8_11"  />
</g>
<g id="a1_0012"  >
<polygon points="570,85 575,80 614,80 614,90 575,90 570,85 " style="fill:#97d815; stroke-width:1; stroke:black; " description="&lt;b&gt;ID11_RS04265&lt;/b&gt;&lt;br&gt;replication-associated recombination protein A&lt;br&gt;Location: 40257 - 38914&lt;br&gt;&lt;br&gt;&lt;b&gt;BlastP hit with MCIC6FC_004343&lt;/b&gt;&lt;br&gt;Percentage identity: 96&lt;br&gt;Percentage coverage: 17&lt;br&gt;BLAST bit score: 762&lt;br&gt;E-value: 1.4e-217" locus_tag="ID11_RS04265" class="clusterblast-orf" id="dummy-1_h1_8_12"  />
</g>
<g id="a1_0013"  >
<polygon points="614,85 619,80 634,80 634,90 619,90 614,85 " style="fill:white; stroke-width:1; stroke:black; " description="&lt;b&gt;ID11_RS04260&lt;/b&gt;&lt;br&gt;outer membrane lipoprotein chaperone LolA&lt;br&gt;Location: 38906 - 38295" locus_tag="ID11_RS04260" class="clusterblast-orf" id="dummy-1_h1_8_13"  />
</g>
<g id="a1_0014"  >
<polygon points="640,85 645,80 759,80 759,90 645,90 640,85 " style="fill:#97d815; stroke-width:1; stroke:black; " description="&lt;b&gt;ID11_RS04255&lt;/b&gt;&lt;br&gt;hypothetical protein&lt;br&gt;Location: 38117 - 34479&lt;br&gt;&lt;br&gt;&lt;b&gt;BlastP hit with MCIC6FC_004343&lt;/b&gt;&lt;br&gt;Percentage identity: 87&lt;br&gt;Percentage coverage: 51&lt;br&gt;BLAST bit score: 1654&lt;br&gt;E-value: 0.0" locus_tag="ID11_RS04255" class="clusterblast-orf" id="dummy-1_h1_8_14"  />
</g>
<g id="a1_0015"  >
<polygon points="763,85 768,80 780,80 780,90 768,90 763,85 " style="fill:white; stroke-width:1; stroke:black; " description="&lt;b&gt;ID11_RS04250&lt;/b&gt;&lt;br&gt;leucine-responsive transcriptional regulator Lrp&lt;br&gt;Location: 34360 - 33866" locus_tag="ID11_RS04250" class="clusterblast-orf" id="dummy-1_h1_8_15"  />
</g>
</svg>
