<svg xmlns="http://www.w3.org/2000/svg" xmlns:xlink="http://www.w3.org/1999/xlink" version="1.1" x="0" y="0" height="230" width="800" viewBox="0 0 800 230" preserveAspectRatio="none"  >
<g label="Query sequence" class="clusterblast-cluster"  >
<text x="5" y="20" class="clusterblast-acc"  >
Query sequence</text>
<line x1="10" y1="35" x2="778.0" y2="35" style="stroke-width:1; stroke:grey; "  />
<polygon points="0,35 5,30 254,30 254,40 5,40 0,35 " style="fill:white; stroke-width:1; stroke:black; " description="&lt;b&gt;MCIC6FC_008584&lt;/b&gt;&lt;br&gt;hypothetical protein&lt;br&gt;Location: 14314 - 23110" locus_tag="MCIC6FC_008584" class="clusterblast-orf" id="dummy-1_q0_0_all"  />
<polygon points="258,40 267,40 272,35 267,30 258,30 258,40 " style="fill:white; stroke-width:1; stroke:black; " description="&lt;b&gt;MCIC6FC_008585&lt;/b&gt;&lt;br&gt;hypothetical protein&lt;br&gt;Location: 23237 - 23720" locus_tag="MCIC6FC_008585" class="clusterblast-orf" id="dummy-1_q1_0_all"  />
<polygon points="276,35 281,30 320,30 320,40 281,40 276,35 " style="fill:#d81515; stroke-width:1; stroke:black; " description="&lt;b&gt;MCIC6FC_008586&lt;/b&gt;&lt;br&gt;hypothetical protein&lt;br&gt;Location: 23866 - 25385" locus_tag="MCIC6FC_008586" class="clusterblast-orf" id="dummy-1_q2_0_all"  />
<polygon points="322,35 327,30 441,30 441,40 327,40 322,35 " style="fill:#4dd815; stroke-width:1; stroke:black; " description="&lt;b&gt;MCIC6FC_008587&lt;/b&gt;&lt;br&gt;hypothetical protein&lt;br&gt;Location: 25430 - 29547" locus_tag="MCIC6FC_008587" class="clusterblast-orf" id="dummy-1_q3_0_all"  />
<polygon points="450,40 614,40 619,35 614,30 450,30 450,40 " style="fill:#1585d8; stroke-width:1; stroke:black; " description="&lt;b&gt;MCIC6FC_008588&lt;/b&gt;&lt;br&gt;hypothetical protein&lt;br&gt;Location: 29864 - 35700" locus_tag="MCIC6FC_008588" class="clusterblast-orf" id="dummy-1_q4_0_all"  />
<polygon points="622,40 673,40 678,35 673,30 622,30 622,40 " style="fill:#d815bc; stroke-width:1; stroke:black; " description="&lt;b&gt;MCIC6FC_008589&lt;/b&gt;&lt;br&gt;hypothetical protein&lt;br&gt;Location: 35816 - 37762" locus_tag="MCIC6FC_008589" class="clusterblast-orf" id="dummy-1_q5_0_all"  />
<polygon points="681,40 710,40 715,35 710,30 681,30 681,40 " style="fill:#d8bc15; stroke-width:1; stroke:black; " description="&lt;b&gt;MCIC6FC_008590&lt;/b&gt;&lt;br&gt;hypothetical protein&lt;br&gt;Location: 37849 - 39034" locus_tag="MCIC6FC_008590" class="clusterblast-orf" id="dummy-1_q6_0_all"  />
<polygon points="719,35 724,30 766,30 766,40 724,40 719,35 " style="fill:#15d885; stroke-width:1; stroke:black; " description="&lt;b&gt;MCIC6FC_008591&lt;/b&gt;&lt;br&gt;hypothetical protein&lt;br&gt;Location: 39169 - 40770" locus_tag="MCIC6FC_008591" class="clusterblast-orf" id="dummy-1_q7_0_all"  />
<polygon points="768,40 775,40 780,35 775,30 768,30 768,40 " style="fill:#4d15d8; stroke-width:1; stroke:black; " description="&lt;b&gt;MCIC6FC_008592&lt;/b&gt;&lt;br&gt;hypothetical protein&lt;br&gt;Location: 40849 - 41263" locus_tag="MCIC6FC_008592" class="clusterblast-orf" id="dummy-1_q8_0_all"  />
</g>
<g label="NZ_CP026881" description="NZ_CP026881 (2632639-2642400): Pseudomonas sp. LG1D9 chromosome, complete genome (90% of genes show similarity), bacteriocin" class="clusterblast-cluster"  >
<text x="5" y="70" class="clusterblast-acc"  >
<a xlink:href="https://antismash-db.secondarymetabolites.org/area.html?record=NZ_CP026881&amp;start=2632639&amp;end=2642400" target="_blank">NZ_CP026881 (2632639-2642400)</a>: Pseudomonas sp. LG1D9 chromosome, complete genome (90% of genes show similarity), bacteriocin</text>
<line x1="10" y1="85" x2="778.0" y2="85" style="stroke-width:1; stroke:grey; "  />
</g>
<g id="a1_000"  >
<polygon points="248,85 253,80 261,80 261,90 253,90 248,85 " style="fill:#4dd815; stroke-width:1; stroke:black; " description="&lt;b&gt;C5F71_RS12750&lt;/b&gt;&lt;br&gt;hypothetical protein&lt;br&gt;Location: 2642400 - 2641957&lt;br&gt;&lt;br&gt;&lt;b&gt;BlastP hit with MCIC6FC_008587&lt;/b&gt;&lt;br&gt;Percentage identity: 88&lt;br&gt;Percentage coverage: 11&lt;br&gt;BLAST bit score: 243&lt;br&gt;E-value: 1.2e-61" locus_tag="C5F71_RS12750" class="clusterblast-orf" id="dummy-1_h1_5_0"  />
</g>
<g id="a1_001"  >
<polygon points="261,85 266,80 298,80 298,90 266,90 261,85 " style="fill:#4dd815; stroke-width:1; stroke:black; " description="&lt;b&gt;C5F71_RS12745&lt;/b&gt;&lt;br&gt;phosphatase PAP2/dual specificity phosphatase family protein&lt;br&gt;Location: 2641967 - 2640669&lt;br&gt;&lt;br&gt;&lt;b&gt;BlastP hit with MCIC6FC_008587&lt;/b&gt;&lt;br&gt;Percentage identity: 85&lt;br&gt;Percentage coverage: 31&lt;br&gt;BLAST bit score: 741&lt;br&gt;E-value: 1.8e-211" locus_tag="C5F71_RS12745" class="clusterblast-orf" id="dummy-1_h1_5_1"  />
</g>
<g id="a1_002"  >
<polygon points="298,85 303,80 349,80 349,90 303,90 298,85 " style="fill:#4dd815; stroke-width:1; stroke:black; " description="&lt;b&gt;C5F71_RS12740&lt;/b&gt;&lt;br&gt;bifunctional alpha/beta hydrolase/class I SAM-dependent methyltransferase&lt;br&gt;Location: 2640666 - 2638912&lt;br&gt;&lt;br&gt;&lt;b&gt;BlastP hit with MCIC6FC_008587&lt;/b&gt;&lt;br&gt;Percentage identity: 94&lt;br&gt;Percentage coverage: 43&lt;br&gt;BLAST bit score: 1075&lt;br&gt;E-value: 8.6e-312" locus_tag="C5F71_RS12740" class="clusterblast-orf" id="dummy-1_h1_5_2"  />
</g>
<g id="a1_003"  >
<polygon points="350,85 355,80 368,80 368,90 355,90 350,85 " style="fill:#4dd815; stroke-width:1; stroke:black; " description="&lt;b&gt;C5F71_RS12735&lt;/b&gt;&lt;br&gt;CDP-alcohol phosphatidyltransferase family protein&lt;br&gt;Location: 2638901 - 2638278&lt;br&gt;&lt;br&gt;&lt;b&gt;BlastP hit with MCIC6FC_008587&lt;/b&gt;&lt;br&gt;Percentage identity: 93&lt;br&gt;Percentage coverage: 15&lt;br&gt;BLAST bit score: 356&lt;br&gt;E-value: 1.3e-95" locus_tag="C5F71_RS12735" class="clusterblast-orf" id="dummy-1_h1_5_3"  />
</g>
<g id="a1_004"  >
<polygon points="373,90 376,90 381,85 376,80 373,80 373,90 " style="fill:white; stroke-width:1; stroke:black; " description="&lt;b&gt;C5F71_RS12730&lt;/b&gt;&lt;br&gt;hypothetical protein&lt;br&gt;Location: 2638074 - 2637820" locus_tag="C5F71_RS12730" class="clusterblast-orf" id="dummy-1_h1_5_4"  />
</g>
<g id="a1_005"  >
<polygon points="383,90 402,90 407,85 402,80 383,80 383,90 " style="fill:#d815bc; stroke-width:1; stroke:black; " description="&lt;b&gt;C5F71_RS12725&lt;/b&gt;&lt;br&gt;DUF692 domain-containing protein&lt;br&gt;Location: 2637757 - 2636912&lt;br&gt;&lt;br&gt;&lt;b&gt;BlastP hit with MCIC6FC_008589&lt;/b&gt;&lt;br&gt;Percentage identity: 79&lt;br&gt;Percentage coverage: 46&lt;br&gt;BLAST bit score: 457&lt;br&gt;E-value: 2.3e-126" locus_tag="C5F71_RS12725" class="clusterblast-orf" id="dummy-1_h1_5_5"  />
</g>
<g id="a1_006"  >
<polygon points="407,90 424,90 429,85 424,80 407,80 407,90 " style="fill:#d815bc; stroke-width:1; stroke:black; " description="&lt;b&gt;C5F71_RS12720&lt;/b&gt;&lt;br&gt;putative DNA-binding domain-containing protein&lt;br&gt;Location: 2636921 - 2636139&lt;br&gt;&lt;br&gt;&lt;b&gt;BlastP hit with MCIC6FC_008589&lt;/b&gt;&lt;br&gt;Percentage identity: 68&lt;br&gt;Percentage coverage: 44&lt;br&gt;BLAST bit score: 358&lt;br&gt;E-value: 1.1e-96" locus_tag="C5F71_RS12720" class="clusterblast-orf" id="dummy-1_h1_5_6"  />
</g>
<g id="a1_007"  >
<polygon points="432,90 461,90 466,85 461,80 432,80 432,90 " style="fill:#d8bc15; stroke-width:1; stroke:black; " description="&lt;b&gt;C5F71_RS12715&lt;/b&gt;&lt;br&gt;class I SAM-dependent methyltransferase&lt;br&gt;Location: 2636052 - 2634868&lt;br&gt;&lt;br&gt;&lt;b&gt;BlastP hit with MCIC6FC_008590&lt;/b&gt;&lt;br&gt;Percentage identity: 93&lt;br&gt;Percentage coverage: 100&lt;br&gt;BLAST bit score: 765&lt;br&gt;E-value: 3.5e-219" locus_tag="C5F71_RS12715" class="clusterblast-orf" id="dummy-1_h1_5_7"  />
</g>
<g id="a1_008"  >
<polygon points="470,85 475,80 512,80 512,90 475,90 470,85 " style="fill:#15d885; stroke-width:1; stroke:black; " description="&lt;b&gt;C5F71_RS12705&lt;/b&gt;&lt;br&gt;cardiolipin synthase&lt;br&gt;Location: 2634731 - 2633292&lt;br&gt;&lt;br&gt;&lt;b&gt;BlastP hit with MCIC6FC_008591&lt;/b&gt;&lt;br&gt;Percentage identity: 91&lt;br&gt;Percentage coverage: 98&lt;br&gt;BLAST bit score: 831&lt;br&gt;E-value: 6e-239" locus_tag="C5F71_RS12705" class="clusterblast-orf" id="dummy-1_h1_5_8"  />
</g>
<g id="a1_009"  >
<polygon points="516,90 526,90 531,85 526,80 516,80 516,90 " style="fill:#4d15d8; stroke-width:1; stroke:black; " description="&lt;b&gt;C5F71_RS12700&lt;/b&gt;&lt;br&gt;DUF3617 domain-containing protein&lt;br&gt;Location: 2633161 - 2632640&lt;br&gt;&lt;br&gt;&lt;b&gt;BlastP hit with MCIC6FC_008592&lt;/b&gt;&lt;br&gt;Percentage identity: 92&lt;br&gt;Percentage coverage: 100&lt;br&gt;BLAST bit score: 261&lt;br&gt;E-value: 5.7e-68" locus_tag="C5F71_RS12700" class="clusterblast-orf" id="dummy-1_h1_5_9"  />
</g>
</svg>
