<svg xmlns="http://www.w3.org/2000/svg" xmlns:xlink="http://www.w3.org/1999/xlink" version="1.1" x="0" y="0" height="230" width="800" viewBox="0 0 800 230" preserveAspectRatio="none"  >
<g label="Query sequence" class="clusterblast-cluster"  >
<text x="5" y="20" class="clusterblast-acc"  >
Query sequence</text>
<line x1="10" y1="35" x2="778.0" y2="35" style="stroke-width:1; stroke:grey; "  />
<polygon points="14,40 40,40 45,35 40,30 14,30 14,40 " style="fill:#d81515; stroke-width:1; stroke:black; " description="&lt;b&gt;MCIC6FC_014458&lt;/b&gt;&lt;br&gt;hypothetical protein&lt;br&gt;Location: 58503 - 59449" locus_tag="MCIC6FC_014458" class="clusterblast-orf" id="dummy-1_q0_0_all"  />
<polygon points="46,35 51,30 85,30 85,40 51,40 46,35 " style="fill:#4dd815; stroke-width:1; stroke:black; " description="&lt;b&gt;MCIC6FC_014459&lt;/b&gt;&lt;br&gt;hypothetical protein&lt;br&gt;Location: 59458 - 60638" locus_tag="MCIC6FC_014459" class="clusterblast-orf" id="dummy-1_q1_0_all"  />
<polygon points="98,40 246,40 251,35 246,30 98,30 98,40 " style="fill:#1585d8; stroke-width:1; stroke:black; " description="&lt;b&gt;MCIC6FC_014460&lt;/b&gt;&lt;br&gt;hypothetical protein&lt;br&gt;Location: 61014 - 65580" locus_tag="MCIC6FC_014460" class="clusterblast-orf" id="dummy-1_q2_0_all"  />
<polygon points="252,40 282,40 287,35 282,30 252,30 252,40 " style="fill:#d815bc; stroke-width:1; stroke:black; " description="&lt;b&gt;MCIC6FC_014461&lt;/b&gt;&lt;br&gt;hypothetical protein&lt;br&gt;Location: 65596 - 66626" locus_tag="MCIC6FC_014461" class="clusterblast-orf" id="dummy-1_q3_0_all"  />
<polygon points="302,35 307,30 505,30 505,40 307,40 302,35 " style="fill:#d8bc15; stroke-width:1; stroke:black; " description="&lt;b&gt;MCIC6FC_014462&lt;/b&gt;&lt;br&gt;hypothetical protein&lt;br&gt;Location: 67094 - 73132" locus_tag="MCIC6FC_014462" class="clusterblast-orf" id="dummy-1_q4_0_all"  />
<polygon points="513,35 518,30 642,30 642,40 518,40 513,35 " style="fill:#15d885; stroke-width:1; stroke:black; " description="&lt;b&gt;MCIC6FC_014463&lt;/b&gt;&lt;br&gt;hypothetical protein&lt;br&gt;Location: 73348 - 77189" locus_tag="MCIC6FC_014463" class="clusterblast-orf" id="dummy-1_q5_0_all"  />
<polygon points="729,35 734,30 766,30 766,40 734,40 729,35 " style="fill:#4d15d8; stroke-width:1; stroke:black; " description="&lt;b&gt;MCIC6FC_014464&lt;/b&gt;&lt;br&gt;hypothetical protein&lt;br&gt;Location: 79782 - 80891" locus_tag="MCIC6FC_014464" class="clusterblast-orf" id="dummy-1_q6_0_all"  />
</g>
<g label="NZ_VWUO01000016" description="NZ_VWUO01000016 (21585-45147): Pantoea sp. F 5 Scaffold 16, whole genome shot... (62% of genes show similarity), terpene" class="clusterblast-cluster"  >
<text x="5" y="70" class="clusterblast-acc"  >
<a xlink:href="https://antismash-db.secondarymetabolites.org/area.html?record=NZ_VWUO01000016&amp;start=21585&amp;end=45147" target="_blank">NZ_VWUO01000016 (21585-45147)</a>: Pantoea sp. F 5 Scaffold 16, whole genome shot... (62% of genes show similarity), terpene</text>
<line x1="10" y1="85" x2="778.0" y2="85" style="stroke-width:1; stroke:grey; "  />
</g>
<g id="a1_000"  >
<polygon points="0,90 1,90 6,85 1,80 0,80 0,90 " style="fill:white; stroke-width:1; stroke:black; " description="&lt;b&gt;F3I44_RS18510&lt;/b&gt;&lt;br&gt;sulfur carrier protein ThiS&lt;br&gt;Location: 44984 - 44787" locus_tag="F3I44_RS18510" class="clusterblast-orf" id="dummy-1_h1_5_0"  />
</g>
<g id="a1_001"  >
<polygon points="6,90 27,90 32,85 27,80 6,80 6,90 " style="fill:white; stroke-width:1; stroke:black; " description="&lt;b&gt;F3I44_RS18505&lt;/b&gt;&lt;br&gt;thiazole synthase&lt;br&gt;Location: 44784 - 44026" locus_tag="F3I44_RS18505" class="clusterblast-orf" id="dummy-1_h1_5_1"  />
</g>
<g id="a1_002"  >
<polygon points="32,90 60,90 65,85 60,80 32,80 32,90 " style="fill:#d81515; stroke-width:1; stroke:black; " description="&lt;b&gt;F3I44_RS18500&lt;/b&gt;&lt;br&gt;HesA/MoeB/ThiF family protein&lt;br&gt;Location: 44016 - 43048&lt;br&gt;&lt;br&gt;&lt;b&gt;BlastP hit with MCIC6FC_014458&lt;/b&gt;&lt;br&gt;Percentage identity: 92&lt;br&gt;Percentage coverage: 103&lt;br&gt;BLAST bit score: 563&lt;br&gt;E-value: 1.6e-158" locus_tag="F3I44_RS18500" class="clusterblast-orf" id="dummy-1_h1_5_2"  />
</g>
<g id="a1_003"  >
<polygon points="65,85 70,80 79,80 79,90 70,90 65,85 " style="fill:#4dd815; stroke-width:1; stroke:black; " description="&lt;b&gt;F3I44_RS18495&lt;/b&gt;&lt;br&gt;ASCH domain-containing protein&lt;br&gt;Location: 43038 - 42625&lt;br&gt;&lt;br&gt;&lt;b&gt;BlastP hit with MCIC6FC_014459&lt;/b&gt;&lt;br&gt;Percentage identity: 92&lt;br&gt;Percentage coverage: 40&lt;br&gt;BLAST bit score: 262&lt;br&gt;E-value: 8.3e-68" locus_tag="F3I44_RS18495" class="clusterblast-orf" id="dummy-1_h1_5_3"  />
</g>
<g id="a1_004"  >
<polygon points="86,85 91,80 105,80 105,90 91,90 86,85 " style="fill:#4dd815; stroke-width:1; stroke:black; " description="&lt;b&gt;F3I44_RS18490&lt;/b&gt;&lt;br&gt;thioredoxin domain-containing protein&lt;br&gt;Location: 42401 - 41859&lt;br&gt;&lt;br&gt;&lt;b&gt;BlastP hit with MCIC6FC_014459&lt;/b&gt;&lt;br&gt;Percentage identity: 97&lt;br&gt;Percentage coverage: 52&lt;br&gt;BLAST bit score: 374&lt;br&gt;E-value: 1.5e-101" locus_tag="F3I44_RS18490" class="clusterblast-orf" id="dummy-1_h1_5_4"  />
</g>
<g id="a1_005"  >
<polygon points="115,90 119,90 124,85 119,80 115,80 115,90 " style="fill:white; stroke-width:1; stroke:black; " description="&lt;b&gt;F3I44_RS18485&lt;/b&gt;&lt;br&gt;hypothetical protein&lt;br&gt;Location: 41541 - 41272" locus_tag="F3I44_RS18485" class="clusterblast-orf" id="dummy-1_h1_5_5"  />
</g>
<g id="a1_006"  >
<polygon points="139,90 154,90 159,85 154,80 139,80 139,90 " style="fill:white; stroke-width:1; stroke:black; " description="&lt;b&gt;F3I44_RS18480&lt;/b&gt;&lt;br&gt;fimbrial protein&lt;br&gt;Location: 40831 - 40241" locus_tag="F3I44_RS18480" class="clusterblast-orf" id="dummy-1_h1_5_6"  />
</g>
<g id="a1_007"  >
<polygon points="161,90 178,90 183,85 178,80 161,80 161,90 " style="fill:#1585d8; stroke-width:1; stroke:black; " description="&lt;b&gt;F3I44_RS18475&lt;/b&gt;&lt;br&gt;fimbria/pilus periplasmic chaperone&lt;br&gt;Location: 40186 - 39518&lt;br&gt;&lt;br&gt;&lt;b&gt;BlastP hit with MCIC6FC_014460&lt;/b&gt;&lt;br&gt;Percentage identity: 59&lt;br&gt;Percentage coverage: 19&lt;br&gt;BLAST bit score: 220&lt;br&gt;E-value: 8.5e-55" locus_tag="F3I44_RS18475" class="clusterblast-orf" id="dummy-1_h1_5_7"  />
</g>
<g id="a1_008"  >
<polygon points="187,90 265,90 270,85 265,80 187,80 187,90 " style="fill:#1585d8; stroke-width:1; stroke:black; " description="&lt;b&gt;F3I44_RS18470&lt;/b&gt;&lt;br&gt;fimbria/pilus outer membrane usher protein&lt;br&gt;Location: 39391 - 36950&lt;br&gt;&lt;br&gt;&lt;b&gt;BlastP hit with MCIC6FC_014460&lt;/b&gt;&lt;br&gt;Percentage identity: 93&lt;br&gt;Percentage coverage: 78&lt;br&gt;BLAST bit score: 1476&lt;br&gt;E-value: 0.0" locus_tag="F3I44_RS18470" class="clusterblast-orf" id="dummy-1_h1_5_8"  />
</g>
<g id="a1_009"  >
<polygon points="270,90 302,90 307,85 302,80 270,80 270,90 " style="fill:#d815bc; stroke-width:1; stroke:black; " description="&lt;b&gt;F3I44_RS18465&lt;/b&gt;&lt;br&gt;fimbrial protein&lt;br&gt;Location: 36933 - 35824&lt;br&gt;&lt;br&gt;&lt;b&gt;BlastP hit with MCIC6FC_014461&lt;/b&gt;&lt;br&gt;Percentage identity: 86&lt;br&gt;Percentage coverage: 107&lt;br&gt;BLAST bit score: 553&lt;br&gt;E-value: 1.6e-155" locus_tag="F3I44_RS18465" class="clusterblast-orf" id="dummy-1_h1_5_9"  />
</g>
<g id="a1_0010"  >
<polygon points="314,90 327,90 332,85 327,80 314,80 314,90 " style="fill:white; stroke-width:1; stroke:black; " description="&lt;b&gt;F3I44_RS18460&lt;/b&gt;&lt;br&gt;beta-carotene hydroxylase&lt;br&gt;Location: 35613 - 35086" locus_tag="F3I44_RS18460" class="clusterblast-orf" id="dummy-1_h1_5_10"  />
</g>
<g id="a1_0011"  >
<polygon points="330,85 335,80 361,80 361,90 335,90 330,85 " style="fill:#d8bc15; stroke-width:1; stroke:black; " description="&lt;b&gt;F3I44_RS18455&lt;/b&gt;&lt;br&gt;squalene/phytoene synthase family protein&lt;br&gt;Location: 35147 - 34218&lt;br&gt;&lt;br&gt;&lt;b&gt;BlastP hit with MCIC6FC_014462&lt;/b&gt;&lt;br&gt;Percentage identity: 97&lt;br&gt;Percentage coverage: 16&lt;br&gt;BLAST bit score: 598&lt;br&gt;E-value: 2.7e-168" locus_tag="F3I44_RS18455" class="clusterblast-orf" id="dummy-1_h1_5_11"  />
</g>
<g id="a1_0012"  >
<polygon points="361,85 366,80 411,80 411,90 366,90 361,85 " style="fill:#d8bc15; stroke-width:1; stroke:black; " description="&lt;b&gt;F3I44_RS18450&lt;/b&gt;&lt;br&gt;phytoene desaturase&lt;br&gt;Location: 34221 - 32743&lt;br&gt;&lt;br&gt;&lt;b&gt;BlastP hit with MCIC6FC_014462&lt;/b&gt;&lt;br&gt;Percentage identity: 93&lt;br&gt;Percentage coverage: 25&lt;br&gt;BLAST bit score: 895&lt;br&gt;E-value: 8.1e-258" locus_tag="F3I44_RS18450" class="clusterblast-orf" id="dummy-1_h1_5_12"  />
</g>
<g id="a1_0013"  >
<polygon points="411,85 416,80 450,80 450,90 416,90 411,85 " style="fill:#d8bc15; stroke-width:1; stroke:black; " description="&lt;b&gt;F3I44_RS18445&lt;/b&gt;&lt;br&gt;lycopene beta-cyclase CrtY&lt;br&gt;Location: 32746 - 31586&lt;br&gt;&lt;br&gt;&lt;b&gt;BlastP hit with MCIC6FC_014462&lt;/b&gt;&lt;br&gt;Percentage identity: 95&lt;br&gt;Percentage coverage: 19&lt;br&gt;BLAST bit score: 696&lt;br&gt;E-value: 5.5e-198" locus_tag="F3I44_RS18445" class="clusterblast-orf" id="dummy-1_h1_5_13"  />
</g>
<g id="a1_0014"  >
<polygon points="449,85 454,80 493,80 493,90 454,90 449,85 " style="fill:#d8bc15; stroke-width:1; stroke:black; " description="&lt;b&gt;F3I44_RS18440&lt;/b&gt;&lt;br&gt;glycosyltransferase family 1 protein&lt;br&gt;Location: 31599 - 30304&lt;br&gt;&lt;br&gt;&lt;b&gt;BlastP hit with MCIC6FC_014462&lt;/b&gt;&lt;br&gt;Percentage identity: 90&lt;br&gt;Percentage coverage: 20&lt;br&gt;BLAST bit score: 660&lt;br&gt;E-value: 5.7e-187" locus_tag="F3I44_RS18440" class="clusterblast-orf" id="dummy-1_h1_5_14"  />
</g>
<g id="a1_0015"  >
<polygon points="493,85 498,80 524,80 524,90 498,90 493,85 " style="fill:#d8bc15; stroke-width:1; stroke:black; " description="&lt;b&gt;F3I44_RS18435&lt;/b&gt;&lt;br&gt;polyprenyl synthetase family protein&lt;br&gt;Location: 30294 - 29386&lt;br&gt;&lt;br&gt;&lt;b&gt;BlastP hit with MCIC6FC_014462&lt;/b&gt;&lt;br&gt;Percentage identity: 99&lt;br&gt;Percentage coverage: 16&lt;br&gt;BLAST bit score: 579&lt;br&gt;E-value: 9.9e-163" locus_tag="F3I44_RS18435" class="clusterblast-orf" id="dummy-1_h1_5_15"  />
</g>
<g id="a1_0016"  >
<polygon points="531,85 536,80 549,80 549,90 536,90 531,85 " style="fill:#15d885; stroke-width:1; stroke:black; " description="&lt;b&gt;F3I44_RS18430&lt;/b&gt;&lt;br&gt;YtfJ family protein&lt;br&gt;Location: 29166 - 28636&lt;br&gt;&lt;br&gt;&lt;b&gt;BlastP hit with MCIC6FC_014463&lt;/b&gt;&lt;br&gt;Percentage identity: 93&lt;br&gt;Percentage coverage: 18&lt;br&gt;BLAST bit score: 318&lt;br&gt;E-value: 2.2e-84" locus_tag="F3I44_RS18430" class="clusterblast-orf" id="dummy-1_h1_5_16"  />
</g>
<g id="a1_0017"  >
<polygon points="555,90 557,90 562,85 557,80 555,80 555,90 " style="fill:white; stroke-width:1; stroke:black; " description="&lt;b&gt;F3I44_RS18425&lt;/b&gt;&lt;br&gt;hypothetical protein&lt;br&gt;Location: 28464 - 28237" locus_tag="F3I44_RS18425" class="clusterblast-orf" id="dummy-1_h1_5_17"  />
</g>
<g id="a1_0018"  >
<polygon points="564,85 569,80 587,80 587,90 569,90 564,85 " style="fill:#15d885; stroke-width:1; stroke:black; " description="&lt;b&gt;F3I44_RS18420&lt;/b&gt;&lt;br&gt;hypothetical protein&lt;br&gt;Location: 28194 - 27517&lt;br&gt;&lt;br&gt;&lt;b&gt;BlastP hit with MCIC6FC_014463&lt;/b&gt;&lt;br&gt;Percentage identity: 93&lt;br&gt;Percentage coverage: 19&lt;br&gt;BLAST bit score: 351&lt;br&gt;E-value: 2.3e-94" locus_tag="F3I44_RS18420" class="clusterblast-orf" id="dummy-1_h1_5_18"  />
</g>
<g id="a1_0019"  >
<polygon points="591,85 596,80 649,80 649,90 596,90 591,85 " style="fill:#15d885; stroke-width:1; stroke:black; " description="&lt;b&gt;F3I44_RS18415&lt;/b&gt;&lt;br&gt;DUF2534 family protein&lt;br&gt;Location: 27390 - 25660&lt;br&gt;&lt;br&gt;&lt;b&gt;BlastP hit with MCIC6FC_014463&lt;/b&gt;&lt;br&gt;Percentage identity: 87&lt;br&gt;Percentage coverage: 53&lt;br&gt;BLAST bit score: 854&lt;br&gt;E-value: 8.4e-246" locus_tag="F3I44_RS18415" class="clusterblast-orf" id="dummy-1_h1_5_19"  />
</g>
<g id="a1_0020"  >
<polygon points="650,85 655,80 665,80 665,90 655,90 650,85 " style="fill:white; stroke-width:1; stroke:black; " description="&lt;b&gt;F3I44_RS18410&lt;/b&gt;&lt;br&gt;DUF2946 family protein&lt;br&gt;Location: 25614 - 25192" locus_tag="F3I44_RS18410" class="clusterblast-orf" id="dummy-1_h1_5_20"  />
</g>
<g id="a1_0021"  >
<polygon points="672,90 699,90 704,85 699,80 672,80 672,90 " style="fill:white; stroke-width:1; stroke:black; " description="&lt;b&gt;F3I44_RS18405&lt;/b&gt;&lt;br&gt;D-2-hydroxyacid dehydrogenase&lt;br&gt;Location: 24974 - 24036" locus_tag="F3I44_RS18405" class="clusterblast-orf" id="dummy-1_h1_5_21"  />
</g>
<g id="a1_0022"  >
<polygon points="711,90 737,90 742,85 737,80 711,80 711,90 " style="fill:white; stroke-width:1; stroke:black; " description="&lt;b&gt;F3I44_RS18400&lt;/b&gt;&lt;br&gt;Rpn family recombination-promoting nuclease/putative transposase&lt;br&gt;Location: 23820 - 22879" locus_tag="F3I44_RS18400" class="clusterblast-orf" id="dummy-1_h1_5_22"  />
</g>
<g id="a1_0023"  >
<polygon points="747,85 752,80 780,80 780,90 752,90 747,85 " style="fill:#4d15d8; stroke-width:1; stroke:black; " description="&lt;b&gt;F3I44_RS18395&lt;/b&gt;&lt;br&gt;glutaminase B&lt;br&gt;Location: 22743 - 21775&lt;br&gt;&lt;br&gt;&lt;b&gt;BlastP hit with MCIC6FC_014464&lt;/b&gt;&lt;br&gt;Percentage identity: 72&lt;br&gt;Percentage coverage: 121&lt;br&gt;BLAST bit score: 403&lt;br&gt;E-value: 1.4e-110" locus_tag="F3I44_RS18395" class="clusterblast-orf" id="dummy-1_h1_5_23"  />
</g>
</svg>
