<svg xmlns="http://www.w3.org/2000/svg" xmlns:xlink="http://www.w3.org/1999/xlink" version="1.1" x="0" y="0" height="230" width="800" viewBox="0 0 800 230" preserveAspectRatio="none"  >
<g label="Query sequence" class="clusterblast-cluster"  >
<text x="5" y="20" class="clusterblast-acc"  >
Query sequence</text>
<line x1="10" y1="35" x2="778.0" y2="35" style="stroke-width:1; stroke:grey; "  />
<polygon points="0,40 61,40 66,35 61,30 0,30 0,40 " style="fill:white; stroke-width:1; stroke:black; " description="&lt;b&gt;MCIC6FC_012175&lt;/b&gt;&lt;br&gt;hypothetical protein&lt;br&gt;Location: 85985 - 90560" locus_tag="MCIC6FC_012175" class="clusterblast-orf" id="dummy-1_q0_0_all"  />
<polygon points="66,40 138,40 143,35 138,30 66,30 66,40 " style="fill:#d81515; stroke-width:1; stroke:black; " description="&lt;b&gt;MCIC6FC_012176&lt;/b&gt;&lt;br&gt;hypothetical protein&lt;br&gt;Location: 90573 - 95850" locus_tag="MCIC6FC_012176" class="clusterblast-orf" id="dummy-1_q1_0_all"  />
<polygon points="145,35 150,30 166,30 166,40 150,40 145,35 " style="fill:#3cd815; stroke-width:1; stroke:black; " description="&lt;b&gt;MCIC6FC_012177&lt;/b&gt;&lt;br&gt;hypothetical protein&lt;br&gt;Location: 96034 - 97476" locus_tag="MCIC6FC_012177" class="clusterblast-orf" id="dummy-1_q2_0_all"  />
<polygon points="172,35 177,30 233,30 233,40 177,40 172,35 " style="fill:#1563d8; stroke-width:1; stroke:black; " description="&lt;b&gt;MCIC6FC_012178&lt;/b&gt;&lt;br&gt;hypothetical protein&lt;br&gt;Location: 97863 - 102059" locus_tag="MCIC6FC_012178" class="clusterblast-orf" id="dummy-1_q3_0_all"  />
<polygon points="236,40 268,40 273,35 268,30 236,30 236,40 " style="fill:#b115d8; stroke-width:1; stroke:black; " description="&lt;b&gt;MCIC6FC_012179&lt;/b&gt;&lt;br&gt;hypothetical protein&lt;br&gt;Location: 102315 - 104830" locus_tag="MCIC6FC_012179" class="clusterblast-orf" id="dummy-1_q4_0_all"  />
<polygon points="273,35 278,30 286,30 286,40 278,40 273,35 " style="fill:#d88a15; stroke-width:1; stroke:black; " description="&lt;b&gt;MCIC6FC_012180&lt;/b&gt;&lt;br&gt;hypothetical protein&lt;br&gt;Location: 104832 - 105751" locus_tag="MCIC6FC_012180" class="clusterblast-orf" id="dummy-1_q5_0_all"  />
<polygon points="290,35 295,30 381,30 381,40 295,40 290,35 " style="fill:#15d863; stroke-width:1; stroke:black; " description="&lt;b&gt;MCIC6FC_012181&lt;/b&gt;&lt;br&gt;hypothetical protein&lt;br&gt;Location: 105975 - 112248" locus_tag="MCIC6FC_012181" class="clusterblast-orf" id="dummy-1_q6_0_all"  />
<polygon points="387,40 393,40 398,35 393,30 387,30 387,40 " style="fill:#3c15d8; stroke-width:1; stroke:black; " description="&lt;b&gt;MCIC6FC_012182&lt;/b&gt;&lt;br&gt;hypothetical protein&lt;br&gt;Location: 112684 - 113485" locus_tag="MCIC6FC_012182" class="clusterblast-orf" id="dummy-1_q7_0_all"  />
<polygon points="399,40 423,40 428,35 423,30 399,30 399,40 " style="fill:#d8158a; stroke-width:1; stroke:black; " description="&lt;b&gt;MCIC6FC_012183&lt;/b&gt;&lt;br&gt;hypothetical protein&lt;br&gt;Location: 113517 - 115525" locus_tag="MCIC6FC_012183" class="clusterblast-orf" id="dummy-1_q8_0_all"  />
<polygon points="433,35 438,30 454,30 454,40 438,40 433,35 " style="fill:#b1d815; stroke-width:1; stroke:black; " description="&lt;b&gt;MCIC6FC_012184&lt;/b&gt;&lt;br&gt;hypothetical protein&lt;br&gt;Location: 115877 - 117343" locus_tag="MCIC6FC_012184" class="clusterblast-orf" id="dummy-1_q9_0_all"  />
<polygon points="456,40 468,40 473,35 468,30 456,30 456,40 " style="fill:#15d8d8; stroke-width:1; stroke:black; " description="&lt;b&gt;MCIC6FC_012185&lt;/b&gt;&lt;br&gt;hypothetical protein&lt;br&gt;Location: 117475 - 118598" locus_tag="MCIC6FC_012185" class="clusterblast-orf" id="dummy-1_q10_0_all"  />
<polygon points="473,35 478,30 483,30 483,40 478,40 473,35 " style="fill:white; stroke-width:1; stroke:black; " description="&lt;b&gt;MCIC6FC_012186&lt;/b&gt;&lt;br&gt;hypothetical protein&lt;br&gt;Location: 118611 - 119329" locus_tag="MCIC6FC_012186" class="clusterblast-orf" id="dummy-1_q11_0_all"  />
<polygon points="485,35 490,30 493,30 493,40 490,40 485,35 " style="fill:white; stroke-width:1; stroke:black; " description="&lt;b&gt;MCIC6FC_012187&lt;/b&gt;&lt;br&gt;hypothetical protein&lt;br&gt;Location: 119420 - 119974" locus_tag="MCIC6FC_012187" class="clusterblast-orf" id="dummy-1_q12_0_all"  />
<polygon points="494,40 524,40 529,35 524,30 494,30 494,40 " style="fill:white; stroke-width:1; stroke:black; " description="&lt;b&gt;MCIC6FC_012188&lt;/b&gt;&lt;br&gt;hypothetical protein&lt;br&gt;Location: 120084 - 122513" locus_tag="MCIC6FC_012188" class="clusterblast-orf" id="dummy-1_q13_0_all"  />
<polygon points="544,35 549,30 636,30 636,40 549,40 544,35 " style="fill:white; stroke-width:1; stroke:black; " description="&lt;b&gt;MCIC6FC_012189&lt;/b&gt;&lt;br&gt;hypothetical protein&lt;br&gt;Location: 123493 - 129834" locus_tag="MCIC6FC_012189" class="clusterblast-orf" id="dummy-1_q14_0_all"  />
<polygon points="636,35 641,30 742,30 742,40 641,40 636,35 " style="fill:white; stroke-width:1; stroke:black; " description="&lt;b&gt;MCIC6FC_012190&lt;/b&gt;&lt;br&gt;hypothetical protein&lt;br&gt;Location: 129871 - 137203" locus_tag="MCIC6FC_012190" class="clusterblast-orf" id="dummy-1_q15_0_all"  />
<polygon points="745,35 750,30 780,30 780,40 750,40 745,35 " style="fill:white; stroke-width:1; stroke:black; " description="&lt;b&gt;MCIC6FC_012191&lt;/b&gt;&lt;br&gt;hypothetical protein&lt;br&gt;Location: 137366 - 139772" locus_tag="MCIC6FC_012191" class="clusterblast-orf" id="dummy-1_q16_0_all"  />
</g>
<g label="NZ_LT629708" description="NZ_LT629708 (1430770-1476074): Pseudomonas extremorientalis strain LMG 19695 ... (40% of genes show similarity), NRPS" class="clusterblast-cluster"  >
<text x="5" y="70" class="clusterblast-acc"  >
<a xlink:href="https://antismash-db.secondarymetabolites.org/area.html?record=NZ_LT629708&amp;start=1430770&amp;end=1476074" target="_blank">NZ_LT629708 (1430770-1476074)</a>: Pseudomonas extremorientalis strain LMG 19695 ... (40% of genes show similarity), NRPS</text>
<line x1="10" y1="85" x2="778.0" y2="85" style="stroke-width:1; stroke:grey; "  />
</g>
<g id="a1_000"  >
<polygon points="61,85 66,80 75,80 75,90 66,90 61,85 " style="fill:white; stroke-width:1; stroke:black; " description="&lt;b&gt;BLT33_RS06460&lt;/b&gt;&lt;br&gt;ribose ABC transporter permease&lt;br&gt;Location: 1430771 - 1431763" locus_tag="BLT33_RS06460" class="clusterblast-orf" id="dummy-1_h1_8_0"  />
</g>
<g id="a1_001"  >
<polygon points="75,85 80,80 97,80 97,90 80,90 75,85 " style="fill:#d88a15; stroke-width:1; stroke:black; " description="&lt;b&gt;BLT33_RS06465&lt;/b&gt;&lt;br&gt;sugar ABC transporter ATP-binding protein&lt;br&gt;Location: 1431729 - 1433237&lt;br&gt;&lt;br&gt;&lt;b&gt;BlastP hit with MCIC6FC_012180&lt;/b&gt;&lt;br&gt;Percentage identity: 33&lt;br&gt;Percentage coverage: 76&lt;br&gt;BLAST bit score: 104&lt;br&gt;E-value: 2.4e-20" locus_tag="BLT33_RS06465" class="clusterblast-orf" id="dummy-1_h1_8_1"  />
</g>
<g id="a1_002"  >
<polygon points="98,85 103,80 111,80 111,90 103,90 98,85 " style="fill:white; stroke-width:1; stroke:black; " description="&lt;b&gt;BLT33_RS06470&lt;/b&gt;&lt;br&gt;substrate-binding domain-containing protein&lt;br&gt;Location: 1433301 - 1434224" locus_tag="BLT33_RS06470" class="clusterblast-orf" id="dummy-1_h1_8_2"  />
</g>
<g id="a1_003"  >
<polygon points="115,90 120,90 125,85 120,80 115,80 115,90 " style="fill:#d81515; stroke-width:1; stroke:black; " description="&lt;b&gt;BLT33_RS06475&lt;/b&gt;&lt;br&gt;sterol desaturase family protein&lt;br&gt;Location: 1434519 - 1435196&lt;br&gt;&lt;br&gt;&lt;b&gt;BlastP hit with MCIC6FC_012176&lt;/b&gt;&lt;br&gt;Percentage identity: 90&lt;br&gt;Percentage coverage: 15&lt;br&gt;BLAST bit score: 448&lt;br&gt;E-value: 3.5e-123" locus_tag="BLT33_RS06475" class="clusterblast-orf" id="dummy-1_h1_8_3"  />
</g>
<g id="a1_004"  >
<polygon points="125,90 136,90 141,85 136,80 125,80 125,90 " style="fill:white; stroke-width:1; stroke:black; " description="&lt;b&gt;BLT33_RS06480&lt;/b&gt;&lt;br&gt;SMP-30/gluconolactonase/LRE family protein&lt;br&gt;Location: 1435193 - 1436290" locus_tag="BLT33_RS06480" class="clusterblast-orf" id="dummy-1_h1_8_4"  />
</g>
<g id="a1_005"  >
<polygon points="142,85 147,80 164,80 164,90 147,90 142,85 " style="fill:#3cd815; stroke-width:1; stroke:black; " description="&lt;b&gt;BLT33_RS06485&lt;/b&gt;&lt;br&gt;hypothetical protein&lt;br&gt;Location: 1436351 - 1437862&lt;br&gt;&lt;br&gt;&lt;b&gt;BlastP hit with MCIC6FC_012177&lt;/b&gt;&lt;br&gt;Percentage identity: 50&lt;br&gt;Percentage coverage: 106&lt;br&gt;BLAST bit score: 446&lt;br&gt;E-value: 4.3e-123" locus_tag="BLT33_RS06485" class="clusterblast-orf" id="dummy-1_h1_8_5"  />
</g>
<g id="a1_006"  >
<polygon points="166,85 171,80 171,80 171,90 171,90 166,85 " style="fill:white; stroke-width:1; stroke:black; " description="&lt;b&gt;BLT33_RS06490&lt;/b&gt;&lt;br&gt;hypothetical protein&lt;br&gt;Location: 1437977 - 1438357" locus_tag="BLT33_RS06490" class="clusterblast-orf" id="dummy-1_h1_8_6"  />
</g>
<g id="a1_007"  >
<polygon points="171,85 176,80 185,80 185,90 176,90 171,85 " style="fill:white; stroke-width:1; stroke:black; " description="&lt;b&gt;BLT33_RS06495&lt;/b&gt;&lt;br&gt;hypothetical protein&lt;br&gt;Location: 1438360 - 1439355" locus_tag="BLT33_RS06495" class="clusterblast-orf" id="dummy-1_h1_8_7"  />
</g>
<g id="a1_008"  >
<polygon points="187,85 192,80 203,80 203,90 192,90 187,85 " style="fill:#1563d8; stroke-width:1; stroke:black; " description="&lt;b&gt;BLT33_RS06500&lt;/b&gt;&lt;br&gt;iron ABC transporter permease&lt;br&gt;Location: 1439493 - 1440554&lt;br&gt;&lt;br&gt;&lt;b&gt;BlastP hit with MCIC6FC_012178&lt;/b&gt;&lt;br&gt;Percentage identity: 90&lt;br&gt;Percentage coverage: 26&lt;br&gt;BLAST bit score: 674&lt;br&gt;E-value: 2.2e-191" locus_tag="BLT33_RS06500" class="clusterblast-orf" id="dummy-1_h1_8_8"  />
</g>
<g id="a1_009"  >
<polygon points="203,85 208,80 238,80 238,90 208,90 203,85 " style="fill:#1563d8; stroke-width:1; stroke:black; " description="&lt;b&gt;BLT33_RS06505&lt;/b&gt;&lt;br&gt;FtsX-like permease family protein&lt;br&gt;Location: 1440544 - 1443006&lt;br&gt;&lt;br&gt;&lt;b&gt;BlastP hit with MCIC6FC_012178&lt;/b&gt;&lt;br&gt;Percentage identity: 92&lt;br&gt;Percentage coverage: 59&lt;br&gt;BLAST bit score: 1448&lt;br&gt;E-value: 0.0" locus_tag="BLT33_RS06505" class="clusterblast-orf" id="dummy-1_h1_8_9"  />
</g>
<g id="a1_0010"  >
<polygon points="238,85 243,80 248,80 248,90 243,90 238,85 " style="fill:#1563d8; stroke-width:1; stroke:black; " description="&lt;b&gt;BLT33_RS06510&lt;/b&gt;&lt;br&gt;ABC transporter ATP-binding protein&lt;br&gt;Location: 1443008 - 1443676&lt;br&gt;&lt;br&gt;&lt;b&gt;BlastP hit with MCIC6FC_012178&lt;/b&gt;&lt;br&gt;Percentage identity: 93&lt;br&gt;Percentage coverage: 15&lt;br&gt;BLAST bit score: 377&lt;br&gt;E-value: 7.1e-102" locus_tag="BLT33_RS06510" class="clusterblast-orf" id="dummy-1_h1_8_10"  />
</g>
<g id="a1_0011"  >
<polygon points="252,90 257,90 262,85 257,80 252,80 252,90 " style="fill:#b115d8; stroke-width:1; stroke:black; " description="&lt;b&gt;BLT33_RS06515&lt;/b&gt;&lt;br&gt;histidine phosphatase family protein&lt;br&gt;Location: 1443952 - 1444629&lt;br&gt;&lt;br&gt;&lt;b&gt;BlastP hit with MCIC6FC_012179&lt;/b&gt;&lt;br&gt;Percentage identity: 82&lt;br&gt;Percentage coverage: 28&lt;br&gt;BLAST bit score: 359&lt;br&gt;E-value: 1.1e-96" locus_tag="BLT33_RS06515" class="clusterblast-orf" id="dummy-1_h1_8_11"  />
</g>
<g id="a1_0012"  >
<polygon points="265,90 284,90 289,85 284,80 265,80 265,90 " style="fill:#b115d8; stroke-width:1; stroke:black; " description="&lt;b&gt;BLT33_RS06520&lt;/b&gt;&lt;br&gt;lipid IV(A) 4-amino-4-deoxy-L-arabinosyltransferase&lt;br&gt;Location: 1444804 - 1446459&lt;br&gt;&lt;br&gt;&lt;b&gt;BlastP hit with MCIC6FC_012179&lt;/b&gt;&lt;br&gt;Percentage identity: 90&lt;br&gt;Percentage coverage: 72&lt;br&gt;BLAST bit score: 998&lt;br&gt;E-value: 4.7e-289" locus_tag="BLT33_RS06520" class="clusterblast-orf" id="dummy-1_h1_8_12"  />
</g>
<g id="a1_0013"  >
<polygon points="289,90 306,90 311,85 306,80 289,80 289,90 " style="fill:white; stroke-width:1; stroke:black; " description="&lt;b&gt;BLT33_RS06525&lt;/b&gt;&lt;br&gt;glycosyltransferase family 39 protein&lt;br&gt;Location: 1446459 - 1447979" locus_tag="BLT33_RS06525" class="clusterblast-orf" id="dummy-1_h1_8_13"  />
</g>
<g id="a1_0014"  >
<polygon points="311,85 316,80 321,80 321,90 316,90 311,85 " style="fill:white; stroke-width:1; stroke:black; " description="&lt;b&gt;BLT33_RS06530&lt;/b&gt;&lt;br&gt;AAA family ATPase&lt;br&gt;Location: 1447988 - 1448701" locus_tag="BLT33_RS06530" class="clusterblast-orf" id="dummy-1_h1_8_14"  />
</g>
<g id="a1_0015"  >
<polygon points="321,85 326,80 332,80 332,90 326,90 321,85 " style="fill:white; stroke-width:1; stroke:black; " description="&lt;b&gt;BLT33_RS06535&lt;/b&gt;&lt;br&gt;ABC transporter permease&lt;br&gt;Location: 1448701 - 1449444" locus_tag="BLT33_RS06535" class="clusterblast-orf" id="dummy-1_h1_8_15"  />
</g>
<g id="a1_0016"  >
<polygon points="343,85 348,80 433,80 433,90 348,90 343,85 " style="fill:#15d863; stroke-width:1; stroke:black; " description="&lt;b&gt;BLT33_RS06540&lt;/b&gt;&lt;br&gt;non-ribosomal peptide synthetase&lt;br&gt;Location: 1450201 - 1456410&lt;br&gt;&lt;br&gt;&lt;b&gt;BlastP hit with MCIC6FC_012181&lt;/b&gt;&lt;br&gt;Percentage identity: 88&lt;br&gt;Percentage coverage: 101&lt;br&gt;BLAST bit score: 3604&lt;br&gt;E-value: 0.0" locus_tag="BLT33_RS06540" class="clusterblast-orf" id="dummy-1_h1_8_16"  />
</g>
<g id="a1_0017"  >
<polygon points="440,90 446,90 451,85 446,80 440,80 440,90 " style="fill:#3c15d8; stroke-width:1; stroke:black; " description="&lt;b&gt;BLT33_RS06545&lt;/b&gt;&lt;br&gt;helix-turn-helix transcriptional regulator&lt;br&gt;Location: 1456898 - 1457689&lt;br&gt;&lt;br&gt;&lt;b&gt;BlastP hit with MCIC6FC_012182&lt;/b&gt;&lt;br&gt;Percentage identity: 90&lt;br&gt;Percentage coverage: 99&lt;br&gt;BLAST bit score: 472&lt;br&gt;E-value: 2.4e-131" locus_tag="BLT33_RS06545" class="clusterblast-orf" id="dummy-1_h1_8_17"  />
</g>
<g id="a1_0018"  >
<polygon points="451,90 467,90 472,85 467,80 451,80 451,90 " style="fill:#d8158a; stroke-width:1; stroke:black; " description="&lt;b&gt;BLT33_RS06550&lt;/b&gt;&lt;br&gt;efflux transporter outer membrane subunit&lt;br&gt;Location: 1457689 - 1459128&lt;br&gt;&lt;br&gt;&lt;b&gt;BlastP hit with MCIC6FC_012183&lt;/b&gt;&lt;br&gt;Percentage identity: 92&lt;br&gt;Percentage coverage: 75&lt;br&gt;BLAST bit score: 794&lt;br&gt;E-value: 8.3e-228" locus_tag="BLT33_RS06550" class="clusterblast-orf" id="dummy-1_h1_8_18"  />
</g>
<g id="a1_0019"  >
<polygon points="473,85 478,80 479,80 479,90 478,90 473,85 " style="fill:white; stroke-width:1; stroke:black; " description="&lt;b&gt;BLT33_RS06555&lt;/b&gt;&lt;br&gt;hypothetical protein&lt;br&gt;Location: 1459157 - 1459561" locus_tag="BLT33_RS06555" class="clusterblast-orf" id="dummy-1_h1_8_19"  />
</g>
<g id="a1_0020"  >
<polygon points="480,85 485,80 494,80 494,90 485,90 480,85 " style="fill:white; stroke-width:1; stroke:black; " description="&lt;b&gt;BLT33_RS06560&lt;/b&gt;&lt;br&gt;pyridoxamine 5'-phosphate oxidase family protein&lt;br&gt;Location: 1459667 - 1460599" locus_tag="BLT33_RS06560" class="clusterblast-orf" id="dummy-1_h1_8_20"  />
</g>
<g id="a1_0021"  >
<polygon points="495,85 500,80 508,80 508,90 500,90 495,85 " style="fill:white; stroke-width:1; stroke:black; " description="&lt;b&gt;BLT33_RS06565&lt;/b&gt;&lt;br&gt;LysR family transcriptional regulator&lt;br&gt;Location: 1460679 - 1461563" locus_tag="BLT33_RS06565" class="clusterblast-orf" id="dummy-1_h1_8_21"  />
</g>
<g id="a1_0022"  >
<polygon points="508,85 513,80 521,80 521,90 513,90 508,85 " style="fill:white; stroke-width:1; stroke:black; " description="&lt;b&gt;BLT33_RS06570&lt;/b&gt;&lt;br&gt;LysR family transcriptional regulator&lt;br&gt;Location: 1461563 - 1462483" locus_tag="BLT33_RS06570" class="clusterblast-orf" id="dummy-1_h1_8_22"  />
</g>
<g id="a1_0023"  >
<polygon points="522,85 527,80 531,80 531,90 527,90 522,85 " style="fill:white; stroke-width:1; stroke:black; " description="&lt;b&gt;BLT33_RS06575&lt;/b&gt;&lt;br&gt;glutathione S-transferase&lt;br&gt;Location: 1462575 - 1463195" locus_tag="BLT33_RS06575" class="clusterblast-orf" id="dummy-1_h1_8_23"  />
</g>
<g id="a1_0024"  >
<polygon points="533,85 538,80 544,80 544,90 538,90 533,85 " style="fill:#b1d815; stroke-width:1; stroke:black; " description="&lt;b&gt;BLT33_RS06580&lt;/b&gt;&lt;br&gt;iron export ABC transporter permease subunit FetB&lt;br&gt;Location: 1463309 - 1464100&lt;br&gt;&lt;br&gt;&lt;b&gt;BlastP hit with MCIC6FC_012184&lt;/b&gt;&lt;br&gt;Percentage identity: 98&lt;br&gt;Percentage coverage: 54&lt;br&gt;BLAST bit score: 481&lt;br&gt;E-value: 1.2e-133" locus_tag="BLT33_RS06580" class="clusterblast-orf" id="dummy-1_h1_8_24"  />
</g>
<g id="a1_0025"  >
<polygon points="544,85 549,80 554,80 554,90 549,90 544,85 " style="fill:#b1d815; stroke-width:1; stroke:black; " description="&lt;b&gt;BLT33_RS06585&lt;/b&gt;&lt;br&gt;ATP-binding cassette domain-containing protein&lt;br&gt;Location: 1464097 - 1464774&lt;br&gt;&lt;br&gt;&lt;b&gt;BlastP hit with MCIC6FC_012184&lt;/b&gt;&lt;br&gt;Percentage identity: 91&lt;br&gt;Percentage coverage: 46&lt;br&gt;BLAST bit score: 396&lt;br&gt;E-value: 5.2e-108" locus_tag="BLT33_RS06585" class="clusterblast-orf" id="dummy-1_h1_8_25"  />
</g>
<g id="a1_0026"  >
<polygon points="556,90 567,90 572,85 567,80 556,80 556,90 " style="fill:#15d8d8; stroke-width:1; stroke:black; " description="&lt;b&gt;BLT33_RS06590&lt;/b&gt;&lt;br&gt;aldo/keto reductase&lt;br&gt;Location: 1464906 - 1465982&lt;br&gt;&lt;br&gt;&lt;b&gt;BlastP hit with MCIC6FC_012185&lt;/b&gt;&lt;br&gt;Percentage identity: 98&lt;br&gt;Percentage coverage: 99&lt;br&gt;BLAST bit score: 722&lt;br&gt;E-value: 3.1e-206" locus_tag="BLT33_RS06590" class="clusterblast-orf" id="dummy-1_h1_8_26"  />
</g>
<g id="a1_0027"  >
<polygon points="572,90 576,85 572,80 572,90 " style="fill:white; stroke-width:1; stroke:black; " description="&lt;b&gt;BLT33_RS06595&lt;/b&gt;&lt;br&gt;hypothetical protein&lt;br&gt;Location: 1466035 - 1466277" locus_tag="BLT33_RS06595" class="clusterblast-orf" id="dummy-1_h1_8_27"  />
</g>
<g id="a1_0028"  >
<polygon points="578,90 590,90 595,85 590,80 578,80 578,90 " style="fill:white; stroke-width:1; stroke:black; " description="&lt;b&gt;BLT33_RS06600&lt;/b&gt;&lt;br&gt;DUF1835 domain-containing protein&lt;br&gt;Location: 1466428 - 1467624" locus_tag="BLT33_RS06600" class="clusterblast-orf" id="dummy-1_h1_8_28"  />
</g>
<g id="a1_0029"  >
<polygon points="596,90 603,90 608,85 603,80 596,80 596,90 " style="fill:white; stroke-width:1; stroke:black; " description="&lt;b&gt;BLT33_RS06605&lt;/b&gt;&lt;br&gt;acid phosphatase&lt;br&gt;Location: 1467671 - 1468495" locus_tag="BLT33_RS06605" class="clusterblast-orf" id="dummy-1_h1_8_29"  />
</g>
<g id="a1_0030"  >
<polygon points="609,90 610,90 615,85 610,80 609,80 609,90 " style="fill:white; stroke-width:1; stroke:black; " description="&lt;b&gt;BLT33_RS06610&lt;/b&gt;&lt;br&gt;cytochrome c&lt;br&gt;Location: 1468562 - 1468945" locus_tag="BLT33_RS06610" class="clusterblast-orf" id="dummy-1_h1_8_30"  />
</g>
<g id="a1_0031"  >
<polygon points="615,85 620,80 621,80 621,90 620,90 615,85 " style="fill:white; stroke-width:1; stroke:black; " description="&lt;b&gt;BLT33_RS06615&lt;/b&gt;&lt;br&gt;RidA family protein&lt;br&gt;Location: 1468949 - 1469383" locus_tag="BLT33_RS06615" class="clusterblast-orf" id="dummy-1_h1_8_31"  />
</g>
<g id="a1_0032"  >
<polygon points="621,85 626,80 644,80 644,90 626,90 621,85 " style="fill:white; stroke-width:1; stroke:black; " description="&lt;b&gt;BLT33_RS06620&lt;/b&gt;&lt;br&gt;FAD-dependent oxidoreductase&lt;br&gt;Location: 1469395 - 1470978" locus_tag="BLT33_RS06620" class="clusterblast-orf" id="dummy-1_h1_8_32"  />
</g>
<g id="a1_0033"  >
<polygon points="644,85 649,80 658,80 658,90 649,90 644,85 " style="fill:white; stroke-width:1; stroke:black; " description="&lt;b&gt;BLT33_RS06625&lt;/b&gt;&lt;br&gt;ABC transporter substrate-binding protein&lt;br&gt;Location: 1470991 - 1471914" locus_tag="BLT33_RS06625" class="clusterblast-orf" id="dummy-1_h1_8_33"  />
</g>
<g id="a1_0034"  >
<polygon points="658,85 663,80 669,80 669,90 663,90 658,85 " style="fill:#1563d8; stroke-width:1; stroke:black; " description="&lt;b&gt;BLT33_RS06630&lt;/b&gt;&lt;br&gt;amino acid ABC transporter ATP-binding protein&lt;br&gt;Location: 1471933 - 1472706&lt;br&gt;&lt;br&gt;&lt;b&gt;BlastP hit with MCIC6FC_012178&lt;/b&gt;&lt;br&gt;Percentage identity: 40&lt;br&gt;Percentage coverage: 16&lt;br&gt;BLAST bit score: 118&lt;br&gt;E-value: 7.8e-24" locus_tag="BLT33_RS06630" class="clusterblast-orf" id="dummy-1_h1_8_34"  />
</g>
<g id="a1_0035"  >
<polygon points="669,85 674,80 683,80 683,90 674,90 669,85 " style="fill:white; stroke-width:1; stroke:black; " description="&lt;b&gt;BLT33_RS06635&lt;/b&gt;&lt;br&gt;amino acid ABC transporter permease&lt;br&gt;Location: 1472699 - 1473664" locus_tag="BLT33_RS06635" class="clusterblast-orf" id="dummy-1_h1_8_35"  />
</g>
<g id="a1_0036"  >
<polygon points="683,85 688,80 718,80 718,90 688,90 683,85 " style="fill:white; stroke-width:1; stroke:black; " description="&lt;b&gt;BLT33_RS06640&lt;/b&gt;&lt;br&gt;TonB-dependent receptor&lt;br&gt;Location: 1473681 - 1476074" locus_tag="BLT33_RS06640" class="clusterblast-orf" id="dummy-1_h1_8_36"  />
</g>
</svg>
