<svg xmlns="http://www.w3.org/2000/svg" xmlns:xlink="http://www.w3.org/1999/xlink" version="1.1" x="0" y="0" height="230" width="800" viewBox="0 0 800 230" preserveAspectRatio="none"  >
<g label="Query sequence" class="clusterblast-cluster"  >
<text x="5" y="20" class="clusterblast-acc"  >
Query sequence</text>
<line x1="10" y1="35" x2="778.0" y2="35" style="stroke-width:1; stroke:grey; "  />
<polygon points="128,40 367,40 372,35 367,30 128,30 128,40 " style="fill:#d81515; stroke-width:1; stroke:black; " description="&lt;b&gt;MCIC6FC_020661&lt;/b&gt;&lt;br&gt;hypothetical protein&lt;br&gt;Location: 29 - 16470" locus_tag="MCIC6FC_020661" class="clusterblast-orf" id="dummy-1_q0_0_all"  />
<polygon points="373,35 378,30 422,30 422,40 378,40 373,35 " style="fill:#5cd815; stroke-width:1; stroke:black; " description="&lt;b&gt;MCIC6FC_020662&lt;/b&gt;&lt;br&gt;hypothetical protein&lt;br&gt;Location: 16511 - 19820" locus_tag="MCIC6FC_020662" class="clusterblast-orf" id="dummy-1_q1_0_all"  />
<polygon points="424,40 449,40 454,35 449,30 424,30 424,40 " style="fill:#15a3d8; stroke-width:1; stroke:black; " description="&lt;b&gt;MCIC6FC_020663&lt;/b&gt;&lt;br&gt;hypothetical protein&lt;br&gt;Location: 19984 - 21984" locus_tag="MCIC6FC_020663" class="clusterblast-orf" id="dummy-1_q2_0_all"  />
<polygon points="456,40 485,40 490,35 485,30 456,30 456,40 " style="fill:#c715d8; stroke-width:1; stroke:black; " description="&lt;b&gt;MCIC6FC_020664&lt;/b&gt;&lt;br&gt;hypothetical protein&lt;br&gt;Location: 22108 - 24458" locus_tag="MCIC6FC_020664" class="clusterblast-orf" id="dummy-1_q3_0_all"  />
<polygon points="491,40 495,35 491,30 491,40 " style="fill:#d88015; stroke-width:1; stroke:black; " description="&lt;b&gt;MCIC6FC_020665&lt;/b&gt;&lt;br&gt;hypothetical protein&lt;br&gt;Location: 24527 - 24765" locus_tag="MCIC6FC_020665" class="clusterblast-orf" id="dummy-1_q4_0_all"  />
<polygon points="496,35 501,30 532,30 532,40 501,40 496,35 " style="fill:#15d839; stroke-width:1; stroke:black; " description="&lt;b&gt;MCIC6FC_020666&lt;/b&gt;&lt;br&gt;hypothetical protein&lt;br&gt;Location: 24844 - 27235" locus_tag="MCIC6FC_020666" class="clusterblast-orf" id="dummy-1_q5_0_all"  />
<polygon points="534,35 539,30 554,30 554,40 539,40 534,35 " style="fill:#1539d8; stroke-width:1; stroke:black; " description="&lt;b&gt;MCIC6FC_020667&lt;/b&gt;&lt;br&gt;hypothetical protein&lt;br&gt;Location: 27428 - 28718" locus_tag="MCIC6FC_020667" class="clusterblast-orf" id="dummy-1_q6_0_all"  />
<polygon points="556,35 561,30 566,30 566,40 561,40 556,35 " style="fill:#d81580; stroke-width:1; stroke:black; " description="&lt;b&gt;MCIC6FC_020668&lt;/b&gt;&lt;br&gt;hypothetical protein&lt;br&gt;Location: 28904 - 29540" locus_tag="MCIC6FC_020668" class="clusterblast-orf" id="dummy-1_q7_0_all"  />
<polygon points="567,35 572,30 597,30 597,40 572,40 567,35 " style="fill:#c7d815; stroke-width:1; stroke:black; " description="&lt;b&gt;MCIC6FC_020669&lt;/b&gt;&lt;br&gt;hypothetical protein&lt;br&gt;Location: 29635 - 31644" locus_tag="MCIC6FC_020669" class="clusterblast-orf" id="dummy-1_q8_0_all"  />
<polygon points="599,40 625,40 630,35 625,30 599,30 599,40 " style="fill:#15d8a3; stroke-width:1; stroke:black; " description="&lt;b&gt;MCIC6FC_020670&lt;/b&gt;&lt;br&gt;hypothetical protein&lt;br&gt;Location: 31763 - 33859" locus_tag="MCIC6FC_020670" class="clusterblast-orf" id="dummy-1_q9_0_all"  />
<polygon points="639,35 644,30 651,30 651,40 644,40 639,35 " style="fill:#5c15d8; stroke-width:1; stroke:black; " description="&lt;b&gt;MCIC6FC_020671&lt;/b&gt;&lt;br&gt;hypothetical protein&lt;br&gt;Location: 34504 - 35290" locus_tag="MCIC6FC_020671" class="clusterblast-orf" id="dummy-1_q10_0_all"  />
</g>
<g label="NZ_CP019856" description="NZ_CP019856 (4628715-4681597): Pseudomonas azotoformans strain F77 chromosome... (45% of genes show similarity), NRPS" class="clusterblast-cluster"  >
<text x="5" y="70" class="clusterblast-acc"  >
<a xlink:href="https://antismash-db.secondarymetabolites.org/area.html?record=NZ_CP019856&amp;start=4628715&amp;end=4681597" target="_blank">NZ_CP019856 (4628715-4681597)</a>: Pseudomonas azotoformans strain F77 chromosome... (45% of genes show similarity), NRPS</text>
<line x1="10" y1="85" x2="778.0" y2="85" style="stroke-width:1; stroke:grey; "  />
</g>
<g id="a1_000"  >
<polygon points="0,90 0,90 5,85 0,80 0,80 0,90 " style="fill:white; stroke-width:1; stroke:black; " description="&lt;b&gt;B1R45_RS21355&lt;/b&gt;&lt;br&gt;DUF2802 domain-containing protein&lt;br&gt;Location: 4681540 - 4681148" locus_tag="B1R45_RS21355" class="clusterblast-orf" id="dummy-1_h1_7_0"  />
</g>
<g id="a1_001"  >
<polygon points="8,90 9,85 8,80 8,90 " style="fill:white; stroke-width:1; stroke:black; " description="&lt;b&gt;B1R45_RS21350&lt;/b&gt;&lt;br&gt;helix-turn-helix domain-containing protein&lt;br&gt;Location: 4680993 - 4680898" locus_tag="B1R45_RS21350" class="clusterblast-orf" id="dummy-1_h1_7_1"  />
</g>
<g id="a1_002"  >
<polygon points="18,90 27,90 32,85 27,80 18,80 18,90 " style="fill:white; stroke-width:1; stroke:black; " description="&lt;b&gt;B1R45_RS21345&lt;/b&gt;&lt;br&gt;lipid kinase YegS&lt;br&gt;Location: 4680278 - 4679358" locus_tag="B1R45_RS21345" class="clusterblast-orf" id="dummy-1_h1_7_2"  />
</g>
<g id="a1_003"  >
<polygon points="31,85 36,80 41,80 41,90 36,90 31,85 " style="fill:white; stroke-width:1; stroke:black; " description="&lt;b&gt;B1R45_RS21340&lt;/b&gt;&lt;br&gt;response regulator transcription factor&lt;br&gt;Location: 4679399 - 4678740" locus_tag="B1R45_RS21340" class="clusterblast-orf" id="dummy-1_h1_7_3"  />
</g>
<g id="a1_004"  >
<polygon points="41,85 46,80 54,80 54,90 46,90 41,85 " style="fill:white; stroke-width:1; stroke:black; " description="&lt;b&gt;B1R45_RS21335&lt;/b&gt;&lt;br&gt;sensor histidine kinase&lt;br&gt;Location: 4678743 - 4677850" locus_tag="B1R45_RS21335" class="clusterblast-orf" id="dummy-1_h1_7_4"  />
</g>
<g id="a1_005"  >
<polygon points="60,85 65,80 66,80 66,90 65,90 60,85 " style="fill:white; stroke-width:1; stroke:black; " description="&lt;b&gt;B1R45_RS21330&lt;/b&gt;&lt;br&gt;hypothetical protein&lt;br&gt;Location: 4677479 - 4677033" locus_tag="B1R45_RS21330" class="clusterblast-orf" id="dummy-1_h1_7_5"  />
</g>
<g id="a1_006"  >
<polygon points="74,90 83,90 88,85 83,80 74,80 74,90 " style="fill:white; stroke-width:1; stroke:black; " description="&lt;b&gt;B1R45_RS21325&lt;/b&gt;&lt;br&gt;chemotaxis protein CheV&lt;br&gt;Location: 4676489 - 4675554" locus_tag="B1R45_RS21325" class="clusterblast-orf" id="dummy-1_h1_7_6"  />
</g>
<g id="a1_007"  >
<polygon points="89,90 96,90 101,85 96,80 89,80 89,90 " style="fill:white; stroke-width:1; stroke:black; " description="&lt;b&gt;B1R45_RS21320&lt;/b&gt;&lt;br&gt;MOSC domain-containing protein&lt;br&gt;Location: 4675514 - 4674708" locus_tag="B1R45_RS21320" class="clusterblast-orf" id="dummy-1_h1_7_7"  />
</g>
<g id="a1_008"  >
<polygon points="102,85 106,80 106,90 102,85 " style="fill:white; stroke-width:1; stroke:black; " description="&lt;b&gt;B1R45_RS21315&lt;/b&gt;&lt;br&gt;pyrimidine/purine nucleoside phosphorylase&lt;br&gt;Location: 4674642 - 4674358" locus_tag="B1R45_RS21315" class="clusterblast-orf" id="dummy-1_h1_7_8"  />
</g>
<g id="a1_009"  >
<polygon points="109,85 114,80 117,80 117,90 114,90 109,85 " style="fill:white; stroke-width:1; stroke:black; " description="&lt;b&gt;B1R45_RS21310&lt;/b&gt;&lt;br&gt;exonuclease&lt;br&gt;Location: 4674177 - 4673635" locus_tag="B1R45_RS21310" class="clusterblast-orf" id="dummy-1_h1_7_9"  />
</g>
<g id="a1_0010"  >
<polygon points="118,85 123,80 146,80 146,90 123,90 118,85 " style="fill:white; stroke-width:1; stroke:black; " description="&lt;b&gt;B1R45_RS21305&lt;/b&gt;&lt;br&gt;acetyl/propionyl/methylcrotonyl-CoA carboxylase subunit alpha&lt;br&gt;Location: 4673561 - 4671678" locus_tag="B1R45_RS21305" class="clusterblast-orf" id="dummy-1_h1_7_10"  />
</g>
<g id="a1_0011"  >
<polygon points="148,90 149,85 148,80 148,90 " style="fill:white; stroke-width:1; stroke:black; " description="&lt;b&gt;B1R45_RS30860&lt;/b&gt;&lt;br&gt;helix-turn-helix domain-containing protein&lt;br&gt;Location: 4671516 - 4671421" locus_tag="B1R45_RS30860" class="clusterblast-orf" id="dummy-1_h1_7_11"  />
</g>
<g id="a1_0012"  >
<polygon points="151,85 156,80 162,80 162,90 156,90 151,85 " style="fill:white; stroke-width:1; stroke:black; " description="&lt;b&gt;B1R45_RS21295&lt;/b&gt;&lt;br&gt;enoyl-CoA hydratase&lt;br&gt;Location: 4671310 - 4670549" locus_tag="B1R45_RS21295" class="clusterblast-orf" id="dummy-1_h1_7_12"  />
</g>
<g id="a1_0013"  >
<polygon points="162,85 167,80 179,80 179,90 167,90 162,85 " style="fill:white; stroke-width:1; stroke:black; " description="&lt;b&gt;B1R45_RS21290&lt;/b&gt;&lt;br&gt;acyl-CoA dehydrogenase&lt;br&gt;Location: 4670552 - 4669395" locus_tag="B1R45_RS21290" class="clusterblast-orf" id="dummy-1_h1_7_13"  />
</g>
<g id="a1_0014"  >
<polygon points="180,85 185,80 204,80 204,90 185,90 180,85 " style="fill:white; stroke-width:1; stroke:black; " description="&lt;b&gt;B1R45_RS21285&lt;/b&gt;&lt;br&gt;acyl-CoA carboxylase subunit beta&lt;br&gt;Location: 4669349 - 4667733" locus_tag="B1R45_RS21285" class="clusterblast-orf" id="dummy-1_h1_7_14"  />
</g>
<g id="a1_0015"  >
<polygon points="204,85 209,80 217,80 217,90 209,90 204,85 " style="fill:white; stroke-width:1; stroke:black; " description="&lt;b&gt;B1R45_RS21280&lt;/b&gt;&lt;br&gt;SDR family oxidoreductase&lt;br&gt;Location: 4667729 - 4666857" locus_tag="B1R45_RS21280" class="clusterblast-orf" id="dummy-1_h1_7_15"  />
</g>
<g id="a1_0016"  >
<polygon points="217,85 222,80 244,80 244,90 222,90 217,85 " style="fill:white; stroke-width:1; stroke:black; " description="&lt;b&gt;B1R45_RS21275&lt;/b&gt;&lt;br&gt;DUF1446 domain-containing protein&lt;br&gt;Location: 4666843 - 4665068" locus_tag="B1R45_RS21275" class="clusterblast-orf" id="dummy-1_h1_7_16"  />
</g>
<g id="a1_0017"  >
<polygon points="246,90 250,90 255,85 250,80 246,80 246,90 " style="fill:white; stroke-width:1; stroke:black; " description="&lt;b&gt;B1R45_RS21270&lt;/b&gt;&lt;br&gt;TetR/AcrR family transcriptional regulator&lt;br&gt;Location: 4664914 - 4664291" locus_tag="B1R45_RS21270" class="clusterblast-orf" id="dummy-1_h1_7_17"  />
</g>
<g id="a1_0018"  >
<polygon points="256,90 263,90 268,85 263,80 256,80 256,90 " style="fill:white; stroke-width:1; stroke:black; " description="&lt;b&gt;B1R45_RS21265&lt;/b&gt;&lt;br&gt;transporter substrate-binding domain-containing protein&lt;br&gt;Location: 4664196 - 4663408" locus_tag="B1R45_RS21265" class="clusterblast-orf" id="dummy-1_h1_7_18"  />
</g>
<g id="a1_0019"  >
<polygon points="270,85 275,80 279,80 279,90 275,90 270,85 " style="fill:white; stroke-width:1; stroke:black; " description="&lt;b&gt;B1R45_RS21260&lt;/b&gt;&lt;br&gt;RNA polymerase factor sigma-70&lt;br&gt;Location: 4663255 - 4662704" locus_tag="B1R45_RS21260" class="clusterblast-orf" id="dummy-1_h1_7_19"  />
</g>
<g id="a1_0020"  >
<polygon points="283,90 289,90 294,85 289,80 283,80 283,90 " style="fill:white; stroke-width:1; stroke:black; " description="&lt;b&gt;B1R45_RS21255&lt;/b&gt;&lt;br&gt;thioesterase&lt;br&gt;Location: 4662401 - 4661649" locus_tag="B1R45_RS21255" class="clusterblast-orf" id="dummy-1_h1_7_20"  />
</g>
<g id="a1_0021"  >
<polygon points="295,90 481,90 486,85 481,80 295,80 295,90 " style="fill:#d81515; stroke-width:1; stroke:black; " description="&lt;b&gt;B1R45_RS21250&lt;/b&gt;&lt;br&gt;non-ribosomal peptide synthetase&lt;br&gt;Location: 4661597 - 4648716&lt;br&gt;&lt;br&gt;&lt;b&gt;BlastP hit with MCIC6FC_020661&lt;/b&gt;&lt;br&gt;Percentage identity: 95&lt;br&gt;Percentage coverage: 63&lt;br&gt;BLAST bit score: 6229&lt;br&gt;E-value: 0.0" locus_tag="B1R45_RS21250" class="clusterblast-orf" id="dummy-1_h1_7_21"  />
</g>
<g id="a1_0022"  >
<polygon points="488,85 493,80 499,80 499,90 493,90 488,85 " style="fill:#5cd815; stroke-width:1; stroke:black; " description="&lt;b&gt;B1R45_RS21245&lt;/b&gt;&lt;br&gt;thiol:disulfide interchange protein DsbG&lt;br&gt;Location: 4648606 - 4647845&lt;br&gt;&lt;br&gt;&lt;b&gt;BlastP hit with MCIC6FC_020662&lt;/b&gt;&lt;br&gt;Percentage identity: 84&lt;br&gt;Percentage coverage: 25&lt;br&gt;BLAST bit score: 410&lt;br&gt;E-value: 7.3e-112" locus_tag="B1R45_RS21245" class="clusterblast-orf" id="dummy-1_h1_7_22"  />
</g>
<g id="a1_0023"  >
<polygon points="498,85 503,80 511,80 511,90 503,90 498,85 " style="fill:#5cd815; stroke-width:1; stroke:black; " description="&lt;b&gt;B1R45_RS21240&lt;/b&gt;&lt;br&gt;TlpA family protein disulfide reductase&lt;br&gt;Location: 4647869 - 4647018&lt;br&gt;&lt;br&gt;&lt;b&gt;BlastP hit with MCIC6FC_020662&lt;/b&gt;&lt;br&gt;Percentage identity: 97&lt;br&gt;Percentage coverage: 23&lt;br&gt;BLAST bit score: 454&lt;br&gt;E-value: 3.4e-125" locus_tag="B1R45_RS21240" class="clusterblast-orf" id="dummy-1_h1_7_23"  />
</g>
<g id="a1_0024"  >
<polygon points="511,85 516,80 537,80 537,90 516,90 511,85 " style="fill:#5cd815; stroke-width:1; stroke:black; " description="&lt;b&gt;B1R45_RS21235&lt;/b&gt;&lt;br&gt;protein-disulfide reductase DsbD&lt;br&gt;Location: 4647018 - 4645291&lt;br&gt;&lt;br&gt;&lt;b&gt;BlastP hit with MCIC6FC_020662&lt;/b&gt;&lt;br&gt;Percentage identity: 95&lt;br&gt;Percentage coverage: 53&lt;br&gt;BLAST bit score: 1006&lt;br&gt;E-value: 2.3e-291" locus_tag="B1R45_RS21235" class="clusterblast-orf" id="dummy-1_h1_7_24"  />
</g>
<g id="a1_0025"  >
<polygon points="539,90 544,90 549,85 544,80 539,80 539,90 " style="fill:#15a3d8; stroke-width:1; stroke:black; " description="&lt;b&gt;B1R45_RS21230&lt;/b&gt;&lt;br&gt;response regulator&lt;br&gt;Location: 4645126 - 4644446&lt;br&gt;&lt;br&gt;&lt;b&gt;BlastP hit with MCIC6FC_020663&lt;/b&gt;&lt;br&gt;Percentage identity: 93&lt;br&gt;Percentage coverage: 34&lt;br&gt;BLAST bit score: 378&lt;br&gt;E-value: 1.5e-102" locus_tag="B1R45_RS21230" class="clusterblast-orf" id="dummy-1_h1_7_25"  />
</g>
<g id="a1_0026"  >
<polygon points="549,90 564,90 569,85 564,80 549,80 549,90 " style="fill:#15a3d8; stroke-width:1; stroke:black; " description="&lt;b&gt;B1R45_RS21225&lt;/b&gt;&lt;br&gt;two-component sensor histidine kinase&lt;br&gt;Location: 4644449 - 4643127&lt;br&gt;&lt;br&gt;&lt;b&gt;BlastP hit with MCIC6FC_020663&lt;/b&gt;&lt;br&gt;Percentage identity: 96&lt;br&gt;Percentage coverage: 69&lt;br&gt;BLAST bit score: 799&lt;br&gt;E-value: 2.7e-229" locus_tag="B1R45_RS21225" class="clusterblast-orf" id="dummy-1_h1_7_26"  />
</g>
<g id="a1_0027"  >
<polygon points="571,90 577,90 582,85 577,80 571,80 571,90 " style="fill:#c715d8; stroke-width:1; stroke:black; " description="&lt;b&gt;B1R45_RS21220&lt;/b&gt;&lt;br&gt;N-acetylmuramoyl-L-alanine amidase&lt;br&gt;Location: 4643002 - 4642235&lt;br&gt;&lt;br&gt;&lt;b&gt;BlastP hit with MCIC6FC_020664&lt;/b&gt;&lt;br&gt;Percentage identity: 93&lt;br&gt;Percentage coverage: 34&lt;br&gt;BLAST bit score: 507&lt;br&gt;E-value: 3.2e-141" locus_tag="B1R45_RS21220" class="clusterblast-orf" id="dummy-1_h1_7_27"  />
</g>
<g id="a1_0028"  >
<polygon points="586,90 601,90 606,85 601,80 586,80 586,90 " style="fill:#c715d8; stroke-width:1; stroke:black; " description="&lt;b&gt;B1R45_RS21215&lt;/b&gt;&lt;br&gt;aspartate aminotransferase family protein&lt;br&gt;Location: 4641971 - 4640577&lt;br&gt;&lt;br&gt;&lt;b&gt;BlastP hit with MCIC6FC_020664&lt;/b&gt;&lt;br&gt;Percentage identity: 98&lt;br&gt;Percentage coverage: 62&lt;br&gt;BLAST bit score: 911&lt;br&gt;E-value: 5.7e-263" locus_tag="B1R45_RS21215" class="clusterblast-orf" id="dummy-1_h1_7_28"  />
</g>
<g id="a1_0029"  >
<polygon points="608,90 611,85 608,80 608,90 " style="fill:#d88015; stroke-width:1; stroke:black; " description="&lt;b&gt;B1R45_RS21210&lt;/b&gt;&lt;br&gt;MbtH family protein&lt;br&gt;Location: 4640494 - 4640273&lt;br&gt;&lt;br&gt;&lt;b&gt;BlastP hit with MCIC6FC_020665&lt;/b&gt;&lt;br&gt;Percentage identity: 95&lt;br&gt;Percentage coverage: 94&lt;br&gt;BLAST bit score: 126&lt;br&gt;E-value: 7.7e-28" locus_tag="B1R45_RS21210" class="clusterblast-orf" id="dummy-1_h1_7_29"  />
</g>
<g id="a1_0030"  >
<polygon points="613,85 618,80 633,80 633,90 618,90 613,85 " style="fill:white; stroke-width:1; stroke:black; " description="&lt;b&gt;B1R45_RS21205&lt;/b&gt;&lt;br&gt;amidohydrolase&lt;br&gt;Location: 4640159 - 4638813" locus_tag="B1R45_RS21205" class="clusterblast-orf" id="dummy-1_h1_7_30"  />
</g>
<g id="a1_0031"  >
<polygon points="633,85 638,80 665,80 665,90 638,90 633,85 " style="fill:#15d839; stroke-width:1; stroke:black; " description="&lt;b&gt;B1R45_RS21200&lt;/b&gt;&lt;br&gt;mechanosensitive ion channel family protein&lt;br&gt;Location: 4638795 - 4636630&lt;br&gt;&lt;br&gt;&lt;b&gt;BlastP hit with MCIC6FC_020666&lt;/b&gt;&lt;br&gt;Percentage identity: 93&lt;br&gt;Percentage coverage: 96&lt;br&gt;BLAST bit score: 1247&lt;br&gt;E-value: 0.0" locus_tag="B1R45_RS21200" class="clusterblast-orf" id="dummy-1_h1_7_31"  />
</g>
<g id="a1_0032"  >
<polygon points="671,85 676,80 691,80 691,90 676,90 671,85 " style="fill:#1539d8; stroke-width:1; stroke:black; " description="&lt;b&gt;B1R45_RS21195&lt;/b&gt;&lt;br&gt;M18 family aminopeptidase&lt;br&gt;Location: 4636193 - 4634904&lt;br&gt;&lt;br&gt;&lt;b&gt;BlastP hit with MCIC6FC_020667&lt;/b&gt;&lt;br&gt;Percentage identity: 100&lt;br&gt;Percentage coverage: 100&lt;br&gt;BLAST bit score: 874&lt;br&gt;E-value: 4.4e-252" locus_tag="B1R45_RS21195" class="clusterblast-orf" id="dummy-1_h1_7_32"  />
</g>
<g id="a1_0033"  >
<polygon points="693,85 698,80 703,80 703,90 698,90 693,85 " style="fill:#d81580; stroke-width:1; stroke:black; " description="&lt;b&gt;B1R45_RS21190&lt;/b&gt;&lt;br&gt;RluA family pseudouridine synthase&lt;br&gt;Location: 4634706 - 4634071&lt;br&gt;&lt;br&gt;&lt;b&gt;BlastP hit with MCIC6FC_020668&lt;/b&gt;&lt;br&gt;Percentage identity: 99&lt;br&gt;Percentage coverage: 100&lt;br&gt;BLAST bit score: 448&lt;br&gt;E-value: 3e-124" locus_tag="B1R45_RS21190" class="clusterblast-orf" id="dummy-1_h1_7_33"  />
</g>
<g id="a1_0034"  >
<polygon points="704,85 708,80 708,90 704,85 " style="fill:#c7d815; stroke-width:1; stroke:black; " description="&lt;b&gt;B1R45_RS21185&lt;/b&gt;&lt;br&gt;cell division topological specificity factor MinE&lt;br&gt;Location: 4633975 - 4633721&lt;br&gt;&lt;br&gt;&lt;b&gt;BlastP hit with MCIC6FC_020669&lt;/b&gt;&lt;br&gt;Percentage identity: 100&lt;br&gt;Percentage coverage: 12&lt;br&gt;BLAST bit score: 134&lt;br&gt;E-value: 3.1e-29" locus_tag="B1R45_RS21185" class="clusterblast-orf" id="dummy-1_h1_7_34"  />
</g>
<g id="a1_0035"  >
<polygon points="708,85 713,80 720,80 720,90 713,90 708,85 " style="fill:#c7d815; stroke-width:1; stroke:black; " description="&lt;b&gt;B1R45_RS21180&lt;/b&gt;&lt;br&gt;septum site-determining protein MinD&lt;br&gt;Location: 4633717 - 4632905&lt;br&gt;&lt;br&gt;&lt;b&gt;BlastP hit with MCIC6FC_020669&lt;/b&gt;&lt;br&gt;Percentage identity: 100&lt;br&gt;Percentage coverage: 49&lt;br&gt;BLAST bit score: 503&lt;br&gt;E-value: 3.3e-140" locus_tag="B1R45_RS21180" class="clusterblast-orf" id="dummy-1_h1_7_35"  />
</g>
<g id="a1_0036"  >
<polygon points="723,85 728,80 734,80 734,90 728,90 723,85 " style="fill:#c7d815; stroke-width:1; stroke:black; " description="&lt;b&gt;B1R45_RS21175&lt;/b&gt;&lt;br&gt;septum site-determining protein MinC&lt;br&gt;Location: 4632704 - 4631967&lt;br&gt;&lt;br&gt;&lt;b&gt;BlastP hit with MCIC6FC_020669&lt;/b&gt;&lt;br&gt;Percentage identity: 80&lt;br&gt;Percentage coverage: 45&lt;br&gt;BLAST bit score: 347&lt;br&gt;E-value: 2.3e-93" locus_tag="B1R45_RS21175" class="clusterblast-orf" id="dummy-1_h1_7_36"  />
</g>
<g id="a1_0037"  >
<polygon points="736,90 745,90 750,85 745,80 736,80 736,90 " style="fill:#15d8a3; stroke-width:1; stroke:black; " description="&lt;b&gt;B1R45_RS21170&lt;/b&gt;&lt;br&gt;lipid A biosynthesis lauroyl acyltransferase&lt;br&gt;Location: 4631847 - 4630915&lt;br&gt;&lt;br&gt;&lt;b&gt;BlastP hit with MCIC6FC_020670&lt;/b&gt;&lt;br&gt;Percentage identity: 99&lt;br&gt;Percentage coverage: 45&lt;br&gt;BLAST bit score: 609&lt;br&gt;E-value: 5.4e-172" locus_tag="B1R45_RS21170" class="clusterblast-orf" id="dummy-1_h1_7_37"  />
</g>
<g id="a1_0038"  >
<polygon points="750,90 762,90 767,85 762,80 750,80 750,90 " style="fill:#15d8a3; stroke-width:1; stroke:black; " description="&lt;b&gt;B1R45_RS21165&lt;/b&gt;&lt;br&gt;patatin-like phospholipase family protein&lt;br&gt;Location: 4630872 - 4629739&lt;br&gt;&lt;br&gt;&lt;b&gt;BlastP hit with MCIC6FC_020670&lt;/b&gt;&lt;br&gt;Percentage identity: 96&lt;br&gt;Percentage coverage: 55&lt;br&gt;BLAST bit score: 693&lt;br&gt;E-value: 1.7e-197" locus_tag="B1R45_RS21165" class="clusterblast-orf" id="dummy-1_h1_7_38"  />
</g>
<g id="a1_0039"  >
<polygon points="768,85 773,80 780,80 780,90 773,90 768,85 " style="fill:#5c15d8; stroke-width:1; stroke:black; " description="&lt;b&gt;B1R45_RS21160&lt;/b&gt;&lt;br&gt;hypothetical protein&lt;br&gt;Location: 4629685 - 4628900&lt;br&gt;&lt;br&gt;&lt;b&gt;BlastP hit with MCIC6FC_020671&lt;/b&gt;&lt;br&gt;Percentage identity: 99&lt;br&gt;Percentage coverage: 100&lt;br&gt;BLAST bit score: 562&lt;br&gt;E-value: 2.3e-158" locus_tag="B1R45_RS21160" class="clusterblast-orf" id="dummy-1_h1_7_39"  />
</g>
</svg>
