<svg xmlns="http://www.w3.org/2000/svg" xmlns:xlink="http://www.w3.org/1999/xlink" version="1.1" x="0" y="0" height="230" width="800" viewBox="0 0 800 230" preserveAspectRatio="none"  >
<g label="Query sequence" class="clusterblast-cluster"  >
<text x="5" y="20" class="clusterblast-acc"  >
Query sequence</text>
<line x1="10" y1="35" x2="778.0" y2="35" style="stroke-width:1; stroke:grey; "  />
<polygon points="315,40 317,35 315,30 315,40 " style="fill:#d81515; stroke-width:1; stroke:black; " description="&lt;b&gt;MCIC6FC_021116&lt;/b&gt;&lt;br&gt;hypothetical protein&lt;br&gt;Location: 19640 - 20363" locus_tag="MCIC6FC_021116" class="clusterblast-orf" id="dummy-1_q0_0_all"  />
<polygon points="319,35 324,30 330,30 330,40 324,40 319,35 " style="fill:white; stroke-width:1; stroke:black; " description="&lt;b&gt;MCIC6FC_021117&lt;/b&gt;&lt;br&gt;hypothetical protein&lt;br&gt;Location: 20977 - 24350" locus_tag="MCIC6FC_021117" class="clusterblast-orf" id="dummy-1_q1_0_all"  />
<polygon points="332,40 349,40 354,35 349,30 332,30 332,40 " style="fill:white; stroke-width:1; stroke:black; " description="&lt;b&gt;MCIC6FC_021118&lt;/b&gt;&lt;br&gt;hypothetical protein&lt;br&gt;Location: 24858 - 31752" locus_tag="MCIC6FC_021118" class="clusterblast-orf" id="dummy-1_q2_0_all"  />
<polygon points="357,35 362,30 368,30 368,40 362,40 357,35 " style="fill:white; stroke-width:1; stroke:black; " description="&lt;b&gt;MCIC6FC_021119&lt;/b&gt;&lt;br&gt;hypothetical protein&lt;br&gt;Location: 32597 - 36108" locus_tag="MCIC6FC_021119" class="clusterblast-orf" id="dummy-1_q3_0_all"  />
<polygon points="370,35 375,30 375,30 375,40 375,40 370,35 " style="fill:white; stroke-width:1; stroke:black; " description="&lt;b&gt;MCIC6FC_021120&lt;/b&gt;&lt;br&gt;hypothetical protein&lt;br&gt;Location: 36683 - 38100" locus_tag="MCIC6FC_021120" class="clusterblast-orf" id="dummy-1_q4_0_all"  />
<polygon points="377,40 379,35 377,30 377,40 " style="fill:white; stroke-width:1; stroke:black; " description="&lt;b&gt;MCIC6FC_021121&lt;/b&gt;&lt;br&gt;hypothetical protein&lt;br&gt;Location: 38889 - 39534" locus_tag="MCIC6FC_021121" class="clusterblast-orf" id="dummy-1_q5_0_all"  />
<polygon points="379,35 384,30 399,30 399,40 384,40 379,35 " style="fill:#15d863; stroke-width:1; stroke:black; " description="&lt;b&gt;MCIC6FC_021122&lt;/b&gt;&lt;br&gt;hypothetical protein&lt;br&gt;Location: 39551 - 45681" locus_tag="MCIC6FC_021122" class="clusterblast-orf" id="dummy-1_q6_0_all"  />
<polygon points="404,40 416,40 421,35 416,30 404,30 404,40 " style="fill:#1563d8; stroke-width:1; stroke:black; " description="&lt;b&gt;MCIC6FC_021123&lt;/b&gt;&lt;br&gt;hypothetical protein&lt;br&gt;Location: 47121 - 52324" locus_tag="MCIC6FC_021123" class="clusterblast-orf" id="dummy-1_q7_0_all"  />
<polygon points="421,40 424,40 429,35 424,30 421,30 421,40 " style="fill:#b115d8; stroke-width:1; stroke:black; " description="&lt;b&gt;MCIC6FC_021124&lt;/b&gt;&lt;br&gt;hypothetical protein&lt;br&gt;Location: 52348 - 54739" locus_tag="MCIC6FC_021124" class="clusterblast-orf" id="dummy-1_q8_0_all"  />
<polygon points="429,35 432,30 432,40 429,35 " style="fill:#b1d815; stroke-width:1; stroke:black; " description="&lt;b&gt;MCIC6FC_021125&lt;/b&gt;&lt;br&gt;hypothetical protein&lt;br&gt;Location: 54748 - 55637" locus_tag="MCIC6FC_021125" class="clusterblast-orf" id="dummy-1_q9_0_all"  />
<polygon points="440,40 455,40 460,35 455,30 440,30 440,40 " style="fill:#15d863; stroke-width:1; stroke:black; " description="&lt;b&gt;MCIC6FC_021126&lt;/b&gt;&lt;br&gt;hypothetical protein&lt;br&gt;Location: 58292 - 64540" locus_tag="MCIC6FC_021126" class="clusterblast-orf" id="dummy-1_q10_0_all"  />
<polygon points="461,40 464,35 461,30 461,40 " style="fill:white; stroke-width:1; stroke:black; " description="&lt;b&gt;MCIC6FC_021127&lt;/b&gt;&lt;br&gt;hypothetical protein&lt;br&gt;Location: 64712 - 65655" locus_tag="MCIC6FC_021127" class="clusterblast-orf" id="dummy-1_q11_0_all"  />
</g>
<g label="NZ_CP019636" description="NZ_CP019636 (2268097-2508763): Nostocales cyanobacterium HT-58-2, complete ge... (2% of genes show similarity), LAP,NRPS,NRPS-like,T1PKS,bacteriocin" class="clusterblast-cluster"  >
<text x="5" y="70" class="clusterblast-acc"  >
<a xlink:href="https://antismash-db.secondarymetabolites.org/area.html?record=NZ_CP019636&amp;start=2268097&amp;end=2508763" target="_blank">NZ_CP019636 (2268097-2508763)</a>: Nostocales cyanobacterium HT-58-2, complete ge... (2% of genes show similarity), LAP,NRPS,NRPS-like,T1PKS,bacteriocin</text>
<line x1="10" y1="85" x2="778.0" y2="85" style="stroke-width:1; stroke:grey; "  />
</g>
<g id="a1_000"  >
<polygon points="0,90 0,90 5,85 0,80 0,80 0,90 " style="fill:white; stroke-width:1; stroke:black; " description="&lt;b&gt;BZZ01_RS09295&lt;/b&gt;&lt;br&gt;protein kinase&lt;br&gt;Location: 2268134 - 2269714" locus_tag="BZZ01_RS09295" class="clusterblast-orf" id="dummy-1_h1_7_0"  />
</g>
<g id="a1_001"  >
<polygon points="6,90 9,85 6,80 6,90 " style="fill:white; stroke-width:1; stroke:black; " description="&lt;b&gt;BZZ01_RS33180&lt;/b&gt;&lt;br&gt;hypothetical protein&lt;br&gt;Location: 2270192 - 2271028" locus_tag="BZZ01_RS33180" class="clusterblast-orf" id="dummy-1_h1_7_1"  />
</g>
<g id="a1_002"  >
<polygon points="9,90 10,85 9,80 9,90 " style="fill:white; stroke-width:1; stroke:black; " description="&lt;b&gt;BZZ01_RS09310&lt;/b&gt;&lt;br&gt;hypothetical protein&lt;br&gt;Location: 2271127 - 2271435" locus_tag="BZZ01_RS09310" class="clusterblast-orf" id="dummy-1_h1_7_2"  />
</g>
<g id="a1_003"  >
<polygon points="12,90 13,90 18,85 13,80 12,80 12,90 " style="fill:white; stroke-width:1; stroke:black; " description="&lt;b&gt;BZZ01_RS09315&lt;/b&gt;&lt;br&gt;protein kinase&lt;br&gt;Location: 2271940 - 2273709" locus_tag="BZZ01_RS09315" class="clusterblast-orf" id="dummy-1_h1_7_3"  />
</g>
<g id="a1_004"  >
<polygon points="20,90 27,90 32,85 27,80 20,80 20,90 " style="fill:white; stroke-width:1; stroke:black; " description="&lt;b&gt;BZZ01_RS09320&lt;/b&gt;&lt;br&gt;hypothetical protein&lt;br&gt;Location: 2274444 - 2278031" locus_tag="BZZ01_RS09320" class="clusterblast-orf" id="dummy-1_h1_7_4"  />
</g>
<g id="a1_005"  >
<polygon points="32,90 34,90 39,85 34,80 32,80 32,90 " style="fill:white; stroke-width:1; stroke:black; " description="&lt;b&gt;BZZ01_RS09325&lt;/b&gt;&lt;br&gt;TOMM precursor leader peptide-binding protein&lt;br&gt;Location: 2278098 - 2280365" locus_tag="BZZ01_RS09325" class="clusterblast-orf" id="dummy-1_h1_7_5"  />
</g>
<g id="a1_006"  >
<polygon points="40,90 44,85 40,80 40,90 " style="fill:white; stroke-width:1; stroke:black; " description="&lt;b&gt;BZZ01_RS09330&lt;/b&gt;&lt;br&gt;SagB/ThcOx family dehydrogenase&lt;br&gt;Location: 2280499 - 2281911" locus_tag="BZZ01_RS09330" class="clusterblast-orf" id="dummy-1_h1_7_6"  />
</g>
<g id="a1_007"  >
<polygon points="44,85 45,80 45,90 44,85 " style="fill:white; stroke-width:1; stroke:black; " description="&lt;b&gt;BZZ01_RS09335&lt;/b&gt;&lt;br&gt;Nif11-like leader peptide family natural product precursor&lt;br&gt;Location: 2281969 - 2282289" locus_tag="BZZ01_RS09335" class="clusterblast-orf" id="dummy-1_h1_7_7"  />
</g>
<g id="a1_008"  >
<polygon points="46,85 47,80 47,90 46,85 " style="fill:white; stroke-width:1; stroke:black; " description="&lt;b&gt;BZZ01_RS09340&lt;/b&gt;&lt;br&gt;Nif11-like leader peptide family natural product precursor&lt;br&gt;Location: 2282405 - 2282731" locus_tag="BZZ01_RS09340" class="clusterblast-orf" id="dummy-1_h1_7_8"  />
</g>
<g id="a1_009"  >
<polygon points="48,90 54,90 59,85 54,80 48,80 48,90 " style="fill:white; stroke-width:1; stroke:black; " description="&lt;b&gt;BZZ01_RS09345&lt;/b&gt;&lt;br&gt;type 2 lantipeptide synthetase LanM&lt;br&gt;Location: 2283123 - 2286371" locus_tag="BZZ01_RS09345" class="clusterblast-orf" id="dummy-1_h1_7_9"  />
</g>
<g id="a1_0010"  >
<polygon points="60,90 60,90 65,85 60,80 60,80 60,90 " style="fill:white; stroke-width:1; stroke:black; " description="&lt;b&gt;BZZ01_RS09350&lt;/b&gt;&lt;br&gt;hypothetical protein&lt;br&gt;Location: 2286880 - 2288343" locus_tag="BZZ01_RS09350" class="clusterblast-orf" id="dummy-1_h1_7_10"  />
</g>
<g id="a1_0011"  >
<polygon points="67,90 71,85 67,80 67,90 " style="fill:white; stroke-width:1; stroke:black; " description="&lt;b&gt;BZZ01_RS09355&lt;/b&gt;&lt;br&gt;PrsW family intramembrane metalloprotease&lt;br&gt;Location: 2288886 - 2290178" locus_tag="BZZ01_RS09355" class="clusterblast-orf" id="dummy-1_h1_7_11"  />
</g>
<g id="a1_0012"  >
<polygon points="72,90 74,85 72,80 72,90 " style="fill:white; stroke-width:1; stroke:black; " description="&lt;b&gt;BZZ01_RS09360&lt;/b&gt;&lt;br&gt;2OG-Fe(II) oxygenase&lt;br&gt;Location: 2290381 - 2290992" locus_tag="BZZ01_RS09360" class="clusterblast-orf" id="dummy-1_h1_7_12"  />
</g>
<g id="a1_0013"  >
<polygon points="74,90 78,85 74,80 74,90 " style="fill:white; stroke-width:1; stroke:black; " description="&lt;b&gt;BZZ01_RS09365&lt;/b&gt;&lt;br&gt;hypothetical protein&lt;br&gt;Location: 2291083 - 2292219" locus_tag="BZZ01_RS09365" class="clusterblast-orf" id="dummy-1_h1_7_13"  />
</g>
<g id="a1_0014"  >
<polygon points="78,90 78,90 83,85 78,80 78,80 78,90 " style="fill:white; stroke-width:1; stroke:black; " description="&lt;b&gt;BZZ01_RS09370&lt;/b&gt;&lt;br&gt;hypothetical protein&lt;br&gt;Location: 2292206 - 2294014" locus_tag="BZZ01_RS09370" class="clusterblast-orf" id="dummy-1_h1_7_14"  />
</g>
<g id="a1_0015"  >
<polygon points="84,90 84,90 89,85 84,80 84,80 84,90 " style="fill:white; stroke-width:1; stroke:black; " description="&lt;b&gt;BZZ01_RS09375&lt;/b&gt;&lt;br&gt;MBL fold metallo-hydrolase&lt;br&gt;Location: 2294200 - 2295657" locus_tag="BZZ01_RS09375" class="clusterblast-orf" id="dummy-1_h1_7_15"  />
</g>
<g id="a1_0016"  >
<polygon points="89,90 93,85 89,80 89,90 " style="fill:white; stroke-width:1; stroke:black; " description="&lt;b&gt;BZZ01_RS09380&lt;/b&gt;&lt;br&gt;hypothetical protein&lt;br&gt;Location: 2295712 - 2296875" locus_tag="BZZ01_RS09380" class="clusterblast-orf" id="dummy-1_h1_7_16"  />
</g>
<g id="a1_0017"  >
<polygon points="93,85 94,80 94,90 93,85 " style="fill:white; stroke-width:1; stroke:black; " description="&lt;b&gt;BZZ01_RS09385&lt;/b&gt;&lt;br&gt;hypothetical protein&lt;br&gt;Location: 2296921 - 2297133" locus_tag="BZZ01_RS09385" class="clusterblast-orf" id="dummy-1_h1_7_17"  />
</g>
<g id="a1_0018"  >
<polygon points="94,90 97,85 94,80 94,90 " style="fill:white; stroke-width:1; stroke:black; " description="&lt;b&gt;BZZ01_RS09390&lt;/b&gt;&lt;br&gt;IS630 family transposase&lt;br&gt;Location: 2297312 - 2298189" locus_tag="BZZ01_RS09390" class="clusterblast-orf" id="dummy-1_h1_7_18"  />
</g>
<g id="a1_0019"  >
<polygon points="98,90 101,85 98,80 98,90 " style="fill:white; stroke-width:1; stroke:black; " description="&lt;b&gt;BZZ01_RS09395&lt;/b&gt;&lt;br&gt;undecaprenyl-diphosphate phosphatase&lt;br&gt;Location: 2298482 - 2299381" locus_tag="BZZ01_RS09395" class="clusterblast-orf" id="dummy-1_h1_7_19"  />
</g>
<g id="a1_0020"  >
<polygon points="102,90 110,90 115,85 110,80 102,80 102,90 " style="fill:white; stroke-width:1; stroke:black; " description="&lt;b&gt;BZZ01_RS09400&lt;/b&gt;&lt;br&gt;non-ribosomal peptide synthetase&lt;br&gt;Location: 2299681 - 2303673" locus_tag="BZZ01_RS09400" class="clusterblast-orf" id="dummy-1_h1_7_20"  />
</g>
<g id="a1_0021"  >
<polygon points="116,90 118,85 116,80 116,90 " style="fill:white; stroke-width:1; stroke:black; " description="&lt;b&gt;BZZ01_RS09410&lt;/b&gt;&lt;br&gt;amino acid amidase&lt;br&gt;Location: 2303930 - 2304727" locus_tag="BZZ01_RS09410" class="clusterblast-orf" id="dummy-1_h1_7_21"  />
</g>
<g id="a1_0022"  >
<polygon points="119,85 124,80 129,80 129,90 124,90 119,85 " style="fill:white; stroke-width:1; stroke:black; " description="&lt;b&gt;BZZ01_RS09420&lt;/b&gt;&lt;br&gt;efflux RND transporter permease subunit&lt;br&gt;Location: 2305006 - 2308230" locus_tag="BZZ01_RS09420" class="clusterblast-orf" id="dummy-1_h1_7_22"  />
</g>
<g id="a1_0023"  >
<polygon points="130,85 135,80 135,80 135,90 135,90 130,85 " style="fill:white; stroke-width:1; stroke:black; " description="&lt;b&gt;BZZ01_RS09425&lt;/b&gt;&lt;br&gt;efflux RND transporter periplasmic adaptor subunit&lt;br&gt;Location: 2308295 - 2309830" locus_tag="BZZ01_RS09425" class="clusterblast-orf" id="dummy-1_h1_7_23"  />
</g>
<g id="a1_0024"  >
<polygon points="135,85 136,80 136,90 135,85 " style="fill:white; stroke-width:1; stroke:black; " description="&lt;b&gt;BZZ01_RS33185&lt;/b&gt;&lt;br&gt;hypothetical protein&lt;br&gt;Location: 2309906 - 2310370" locus_tag="BZZ01_RS33185" class="clusterblast-orf" id="dummy-1_h1_7_24"  />
</g>
<g id="a1_0025"  >
<polygon points="137,90 140,85 137,80 137,90 " style="fill:white; stroke-width:1; stroke:black; " description="&lt;b&gt;BZZ01_RS09435&lt;/b&gt;&lt;br&gt;metal-dependent phosphohydrolase&lt;br&gt;Location: 2310702 - 2311577" locus_tag="BZZ01_RS09435" class="clusterblast-orf" id="dummy-1_h1_7_25"  />
</g>
<g id="a1_0026"  >
<polygon points="141,90 144,85 141,80 141,90 " style="fill:white; stroke-width:1; stroke:black; " description="&lt;b&gt;BZZ01_RS09440&lt;/b&gt;&lt;br&gt;ABC transporter permease&lt;br&gt;Location: 2311661 - 2312779" locus_tag="BZZ01_RS09440" class="clusterblast-orf" id="dummy-1_h1_7_26"  />
</g>
<g id="a1_0027"  >
<polygon points="145,85 150,80 152,80 152,90 150,90 145,85 " style="fill:white; stroke-width:1; stroke:black; " description="&lt;b&gt;BZZ01_RS09445&lt;/b&gt;&lt;br&gt;hypothetical protein&lt;br&gt;Location: 2312880 - 2315333" locus_tag="BZZ01_RS09445" class="clusterblast-orf" id="dummy-1_h1_7_27"  />
</g>
<g id="a1_0028"  >
<polygon points="153,85 155,80 155,90 153,85 " style="fill:white; stroke-width:1; stroke:black; " description="&lt;b&gt;BZZ01_RS09450&lt;/b&gt;&lt;br&gt;ATP-binding protein&lt;br&gt;Location: 2315408 - 2316115" locus_tag="BZZ01_RS09450" class="clusterblast-orf" id="dummy-1_h1_7_28"  />
</g>
<g id="a1_0029"  >
<polygon points="155,90 156,85 155,80 155,90 " style="fill:white; stroke-width:1; stroke:black; " description="&lt;b&gt;BZZ01_RS09455&lt;/b&gt;&lt;br&gt;response regulator&lt;br&gt;Location: 2316245 - 2316364" locus_tag="BZZ01_RS09455" class="clusterblast-orf" id="dummy-1_h1_7_29"  />
</g>
<g id="a1_0030"  >
<polygon points="156,90 158,85 156,80 156,90 " style="fill:white; stroke-width:1; stroke:black; " description="&lt;b&gt;BZZ01_RS09460&lt;/b&gt;&lt;br&gt;hypothetical protein&lt;br&gt;Location: 2316517 - 2317032" locus_tag="BZZ01_RS09460" class="clusterblast-orf" id="dummy-1_h1_7_30"  />
</g>
<g id="a1_0031"  >
<polygon points="159,90 162,85 159,80 159,90 " style="fill:white; stroke-width:1; stroke:black; " description="&lt;b&gt;BZZ01_RS09465&lt;/b&gt;&lt;br&gt;IS982 family transposase&lt;br&gt;Location: 2317297 - 2318208" locus_tag="BZZ01_RS09465" class="clusterblast-orf" id="dummy-1_h1_7_31"  />
</g>
<g id="a1_0032"  >
<polygon points="162,90 164,85 162,80 162,90 " style="fill:white; stroke-width:1; stroke:black; " description="&lt;b&gt;BZZ01_RS09470&lt;/b&gt;&lt;br&gt;IS630 family transposase&lt;br&gt;Location: 2318224 - 2318907" locus_tag="BZZ01_RS09470" class="clusterblast-orf" id="dummy-1_h1_7_32"  />
</g>
<g id="a1_0033"  >
<polygon points="165,85 169,80 169,90 165,85 " style="fill:white; stroke-width:1; stroke:black; " description="&lt;b&gt;BZZ01_RS09475&lt;/b&gt;&lt;br&gt;MFS transporter&lt;br&gt;Location: 2319070 - 2320395" locus_tag="BZZ01_RS09475" class="clusterblast-orf" id="dummy-1_h1_7_33"  />
</g>
<g id="a1_0034"  >
<polygon points="171,90 173,85 171,80 171,90 " style="fill:white; stroke-width:1; stroke:black; " description="&lt;b&gt;BZZ01_RS09480&lt;/b&gt;&lt;br&gt;IS1 family transposase&lt;br&gt;Location: 2321103 - 2321790" locus_tag="BZZ01_RS09480" class="clusterblast-orf" id="dummy-1_h1_7_34"  />
</g>
<g id="a1_0035"  >
<polygon points="176,90 197,90 202,85 197,80 176,80 176,90 " style="fill:white; stroke-width:1; stroke:black; " description="&lt;b&gt;BZZ01_RS09485&lt;/b&gt;&lt;br&gt;type I polyketide synthase&lt;br&gt;Location: 2322450 - 2330483" locus_tag="BZZ01_RS09485" class="clusterblast-orf" id="dummy-1_h1_7_35"  />
</g>
<g id="a1_0036"  >
<polygon points="202,90 213,90 218,85 213,80 202,80 202,90 " style="fill:white; stroke-width:1; stroke:black; " description="&lt;b&gt;BZZ01_RS09490&lt;/b&gt;&lt;br&gt;type I polyketide synthase&lt;br&gt;Location: 2330476 - 2335407" locus_tag="BZZ01_RS09490" class="clusterblast-orf" id="dummy-1_h1_7_36"  />
</g>
<g id="a1_0037"  >
<polygon points="218,90 253,90 258,85 253,80 218,80 218,90 " style="fill:white; stroke-width:1; stroke:black; " description="&lt;b&gt;BZZ01_RS09495&lt;/b&gt;&lt;br&gt;non-ribosomal peptide synthetase&lt;br&gt;Location: 2335404 - 2347859" locus_tag="BZZ01_RS09495" class="clusterblast-orf" id="dummy-1_h1_7_37"  />
</g>
<g id="a1_0038"  >
<polygon points="258,90 272,90 277,85 272,80 258,80 258,90 " style="fill:white; stroke-width:1; stroke:black; " description="&lt;b&gt;BZZ01_RS09500&lt;/b&gt;&lt;br&gt;amino acid adenylation domain-containing protein&lt;br&gt;Location: 2347947 - 2353621" locus_tag="BZZ01_RS09500" class="clusterblast-orf" id="dummy-1_h1_7_38"  />
</g>
<g id="a1_0039"  >
<polygon points="277,90 288,90 293,85 288,80 277,80 277,90 " style="fill:white; stroke-width:1; stroke:black; " description="&lt;b&gt;BZZ01_RS09505&lt;/b&gt;&lt;br&gt;non-ribosomal peptide synthetase&lt;br&gt;Location: 2353750 - 2358663" locus_tag="BZZ01_RS09505" class="clusterblast-orf" id="dummy-1_h1_7_39"  />
</g>
<g id="a1_0040"  >
<polygon points="294,85 295,80 295,90 294,85 " style="fill:white; stroke-width:1; stroke:black; " description="&lt;b&gt;BZZ01_RS33190&lt;/b&gt;&lt;br&gt;hypothetical protein&lt;br&gt;Location: 2358984 - 2359214" locus_tag="BZZ01_RS33190" class="clusterblast-orf" id="dummy-1_h1_7_40"  />
</g>
<g id="a1_0041"  >
<polygon points="295,90 296,85 295,80 295,90 " style="fill:white; stroke-width:1; stroke:black; " description="&lt;b&gt;BZZ01_RS09515&lt;/b&gt;&lt;br&gt;hypothetical protein&lt;br&gt;Location: 2359233 - 2359718" locus_tag="BZZ01_RS09515" class="clusterblast-orf" id="dummy-1_h1_7_41"  />
</g>
<g id="a1_0042"  >
<polygon points="296,90 297,85 296,80 296,90 " style="fill:white; stroke-width:1; stroke:black; " description="&lt;b&gt;BZZ01_RS09520&lt;/b&gt;&lt;br&gt;IS701 family transposase&lt;br&gt;Location: 2359727 - 2359879" locus_tag="BZZ01_RS09520" class="clusterblast-orf" id="dummy-1_h1_7_42"  />
</g>
<g id="a1_0043"  >
<polygon points="298,85 299,80 299,90 298,85 " style="fill:white; stroke-width:1; stroke:black; " description="&lt;b&gt;BZZ01_RS09525&lt;/b&gt;&lt;br&gt;acyl carrier protein&lt;br&gt;Location: 2360210 - 2360491" locus_tag="BZZ01_RS09525" class="clusterblast-orf" id="dummy-1_h1_7_43"  />
</g>
<g id="a1_0044"  >
<polygon points="300,85 302,80 302,90 300,85 " style="fill:white; stroke-width:1; stroke:black; " description="&lt;b&gt;BZZ01_RS09530&lt;/b&gt;&lt;br&gt;thioesterase&lt;br&gt;Location: 2360776 - 2361543" locus_tag="BZZ01_RS09530" class="clusterblast-orf" id="dummy-1_h1_7_44"  />
</g>
<g id="a1_0045"  >
<polygon points="304,85 305,80 305,90 304,85 " style="fill:white; stroke-width:1; stroke:black; " description="&lt;b&gt;BZZ01_RS09535&lt;/b&gt;&lt;br&gt;MbtH family protein&lt;br&gt;Location: 2362187 - 2362414" locus_tag="BZZ01_RS09535" class="clusterblast-orf" id="dummy-1_h1_7_45"  />
</g>
<g id="a1_0046"  >
<polygon points="307,85 312,80 312,80 312,90 312,90 307,85 " style="fill:white; stroke-width:1; stroke:black; " description="&lt;b&gt;BZZ01_RS09540&lt;/b&gt;&lt;br&gt;hypothetical protein&lt;br&gt;Location: 2363009 - 2364454" locus_tag="BZZ01_RS09540" class="clusterblast-orf" id="dummy-1_h1_7_46"  />
</g>
<g id="a1_0047"  >
<polygon points="312,85 314,80 314,90 312,85 " style="fill:white; stroke-width:1; stroke:black; " description="&lt;b&gt;BZZ01_RS09545&lt;/b&gt;&lt;br&gt;aspartyl/asparaginyl beta-hydroxylase domain-containing protein&lt;br&gt;Location: 2364549 - 2365298" locus_tag="BZZ01_RS09545" class="clusterblast-orf" id="dummy-1_h1_7_47"  />
</g>
<g id="a1_0048"  >
<polygon points="315,85 320,80 321,80 321,90 320,90 315,85 " style="fill:white; stroke-width:1; stroke:black; " description="&lt;b&gt;BZZ01_RS09550&lt;/b&gt;&lt;br&gt;cyclic peptide export ABC transporter&lt;br&gt;Location: 2365594 - 2367222" locus_tag="BZZ01_RS09550" class="clusterblast-orf" id="dummy-1_h1_7_48"  />
</g>
<g id="a1_0049"  >
<polygon points="322,85 327,80 327,80 327,90 327,90 322,85 " style="fill:white; stroke-width:1; stroke:black; " description="&lt;b&gt;BZZ01_RS09555&lt;/b&gt;&lt;br&gt;hypothetical protein&lt;br&gt;Location: 2367578 - 2369047" locus_tag="BZZ01_RS09555" class="clusterblast-orf" id="dummy-1_h1_7_49"  />
</g>
<g id="a1_0050"  >
<polygon points="327,85 328,80 328,90 327,85 " style="fill:white; stroke-width:1; stroke:black; " description="&lt;b&gt;BZZ01_RS09560&lt;/b&gt;&lt;br&gt;MbtH domain protein&lt;br&gt;Location: 2369240 - 2369572" locus_tag="BZZ01_RS09560" class="clusterblast-orf" id="dummy-1_h1_7_50"  />
</g>
<g id="a1_0051"  >
<polygon points="328,85 330,80 330,90 328,85 " style="fill:white; stroke-width:1; stroke:black; " description="&lt;b&gt;BZZ01_RS09565&lt;/b&gt;&lt;br&gt;hypothetical protein&lt;br&gt;Location: 2369618 - 2369953" locus_tag="BZZ01_RS09565" class="clusterblast-orf" id="dummy-1_h1_7_51"  />
</g>
<g id="a1_0052"  >
<polygon points="330,85 335,80 343,80 343,90 335,90 330,85 " style="fill:white; stroke-width:1; stroke:black; " description="&lt;b&gt;BZZ01_RS09570&lt;/b&gt;&lt;br&gt;non-ribosomal peptide synthetase&lt;br&gt;Location: 2370028 - 2374164" locus_tag="BZZ01_RS09570" class="clusterblast-orf" id="dummy-1_h1_7_52"  />
</g>
<g id="a1_0053"  >
<polygon points="344,85 349,80 385,80 385,90 349,90 344,85 " style="fill:white; stroke-width:1; stroke:black; " description="&lt;b&gt;BZZ01_RS09575&lt;/b&gt;&lt;br&gt;non-ribosomal peptide synthetase&lt;br&gt;Location: 2374269 - 2387144" locus_tag="BZZ01_RS09575" class="clusterblast-orf" id="dummy-1_h1_7_53"  />
</g>
<g id="a1_0054"  >
<polygon points="385,85 389,80 389,90 385,85 " style="fill:#15d863; stroke-width:1; stroke:black; " description="&lt;b&gt;BZZ01_RS09580&lt;/b&gt;&lt;br&gt;TauD/TfdA family dioxygenase&lt;br&gt;Location: 2387162 - 2388226&lt;br&gt;&lt;br&gt;&lt;b&gt;BlastP hit with MCIC6FC_021126&lt;/b&gt;&lt;br&gt;Percentage identity: 34&lt;br&gt;Percentage coverage: 17&lt;br&gt;BLAST bit score: 178&lt;br&gt;E-value: 6e-42" locus_tag="BZZ01_RS09580" class="clusterblast-orf" id="dummy-1_h1_7_54"  />
</g>
<g id="a1_0055"  >
<polygon points="390,85 395,80 405,80 405,90 395,90 390,85 " style="fill:white; stroke-width:1; stroke:black; " description="&lt;b&gt;BZZ01_RS09585&lt;/b&gt;&lt;br&gt;non-ribosomal peptide synthetase&lt;br&gt;Location: 2388680 - 2393353" locus_tag="BZZ01_RS09585" class="clusterblast-orf" id="dummy-1_h1_7_55"  />
</g>
<g id="a1_0056"  >
<polygon points="405,85 410,80 421,80 421,90 410,90 405,85 " style="fill:white; stroke-width:1; stroke:black; " description="&lt;b&gt;BZZ01_RS09590&lt;/b&gt;&lt;br&gt;type I polyketide synthase&lt;br&gt;Location: 2393368 - 2398026" locus_tag="BZZ01_RS09590" class="clusterblast-orf" id="dummy-1_h1_7_56"  />
</g>
<g id="a1_0057"  >
<polygon points="421,85 426,80 431,80 431,90 426,90 421,85 " style="fill:#15d863; stroke-width:1; stroke:black; " description="&lt;b&gt;BZZ01_RS09595&lt;/b&gt;&lt;br&gt;non-ribosomal peptide synthetase&lt;br&gt;Location: 2398028 - 2401279&lt;br&gt;&lt;br&gt;&lt;b&gt;BlastP hit with MCIC6FC_021122&lt;/b&gt;&lt;br&gt;Percentage identity: 33&lt;br&gt;Percentage coverage: 32&lt;br&gt;BLAST bit score: 275&lt;br&gt;E-value: 4e-71" locus_tag="BZZ01_RS09595" class="clusterblast-orf" id="dummy-1_h1_7_57"  />
</g>
<g id="a1_0058"  >
<polygon points="432,85 437,80 447,80 447,90 437,90 432,85 " style="fill:white; stroke-width:1; stroke:black; " description="&lt;b&gt;BZZ01_RS09600&lt;/b&gt;&lt;br&gt;non-ribosomal peptide synthetase&lt;br&gt;Location: 2401426 - 2406150" locus_tag="BZZ01_RS09600" class="clusterblast-orf" id="dummy-1_h1_7_58"  />
</g>
<g id="a1_0059"  >
<polygon points="447,85 452,80 462,80 462,90 452,90 447,85 " style="fill:white; stroke-width:1; stroke:black; " description="&lt;b&gt;BZZ01_RS09605&lt;/b&gt;&lt;br&gt;type I polyketide synthase&lt;br&gt;Location: 2406255 - 2410859" locus_tag="BZZ01_RS09605" class="clusterblast-orf" id="dummy-1_h1_7_59"  />
</g>
<g id="a1_0060"  >
<polygon points="462,85 467,80 487,80 487,90 467,90 462,85 " style="fill:#15d863; stroke-width:1; stroke:black; " description="&lt;b&gt;BZZ01_RS09610&lt;/b&gt;&lt;br&gt;amino acid adenylation domain-containing protein&lt;br&gt;Location: 2410899 - 2418596&lt;br&gt;&lt;br&gt;&lt;b&gt;BlastP hit with MCIC6FC_021122&lt;/b&gt;&lt;br&gt;Percentage identity: 31&lt;br&gt;Percentage coverage: 33&lt;br&gt;BLAST bit score: 277&lt;br&gt;E-value: 1e-71" locus_tag="BZZ01_RS09610" class="clusterblast-orf" id="dummy-1_h1_7_60"  />
</g>
<g id="a1_0061"  >
<polygon points="487,85 492,80 494,80 494,90 492,90 487,85 " style="fill:white; stroke-width:1; stroke:black; " description="&lt;b&gt;BZZ01_RS09615&lt;/b&gt;&lt;br&gt;AMP-binding protein&lt;br&gt;Location: 2418526 - 2420622" locus_tag="BZZ01_RS09615" class="clusterblast-orf" id="dummy-1_h1_7_61"  />
</g>
<g id="a1_0062"  >
<polygon points="494,85 499,80 501,80 501,90 499,90 494,85 " style="fill:white; stroke-width:1; stroke:black; " description="&lt;b&gt;BZZ01_RS09620&lt;/b&gt;&lt;br&gt;AMP-binding protein&lt;br&gt;Location: 2420619 - 2422937" locus_tag="BZZ01_RS09620" class="clusterblast-orf" id="dummy-1_h1_7_62"  />
</g>
<g id="a1_0063"  >
<polygon points="502,85 507,80 507,80 507,90 507,90 502,85 " style="fill:white; stroke-width:1; stroke:black; " description="&lt;b&gt;BZZ01_RS09625&lt;/b&gt;&lt;br&gt;hypothetical protein&lt;br&gt;Location: 2423136 - 2424602" locus_tag="BZZ01_RS09625" class="clusterblast-orf" id="dummy-1_h1_7_63"  />
</g>
<g id="a1_0064"  >
<polygon points="508,85 513,80 513,80 513,90 513,90 508,85 " style="fill:white; stroke-width:1; stroke:black; " description="&lt;b&gt;BZZ01_RS09630&lt;/b&gt;&lt;br&gt;MBL fold metallo-hydrolase&lt;br&gt;Location: 2424988 - 2426577" locus_tag="BZZ01_RS09630" class="clusterblast-orf" id="dummy-1_h1_7_64"  />
</g>
<g id="a1_0065"  >
<polygon points="518,90 521,85 518,80 518,90 " style="fill:white; stroke-width:1; stroke:black; " description="&lt;b&gt;BZZ01_RS33195&lt;/b&gt;&lt;br&gt;IS630 family transposase&lt;br&gt;Location: 2428041 - 2429074" locus_tag="BZZ01_RS33195" class="clusterblast-orf" id="dummy-1_h1_7_65"  />
</g>
<g id="a1_0066"  >
<polygon points="522,85 522,80 522,90 522,85 " style="fill:white; stroke-width:1; stroke:black; " description="&lt;b&gt;BZZ01_RS09645&lt;/b&gt;&lt;br&gt;hypothetical protein&lt;br&gt;Location: 2429201 - 2429421" locus_tag="BZZ01_RS09645" class="clusterblast-orf" id="dummy-1_h1_7_66"  />
</g>
<g id="a1_0067"  >
<polygon points="525,85 529,80 529,90 525,85 " style="fill:white; stroke-width:1; stroke:black; " description="&lt;b&gt;BZZ01_RS09655&lt;/b&gt;&lt;br&gt;hypothetical protein&lt;br&gt;Location: 2430345 - 2431388" locus_tag="BZZ01_RS09655" class="clusterblast-orf" id="dummy-1_h1_7_67"  />
</g>
<g id="a1_0068"  >
<polygon points="530,85 533,80 533,90 530,85 " style="fill:white; stroke-width:1; stroke:black; " description="&lt;b&gt;BZZ01_RS09660&lt;/b&gt;&lt;br&gt;capreomycidine synthase&lt;br&gt;Location: 2431660 - 2432796" locus_tag="BZZ01_RS09660" class="clusterblast-orf" id="dummy-1_h1_7_68"  />
</g>
<g id="a1_0069"  >
<polygon points="534,85 537,80 537,90 534,85 " style="fill:white; stroke-width:1; stroke:black; " description="&lt;b&gt;BZZ01_RS09665&lt;/b&gt;&lt;br&gt;DUF3102 domain-containing protein&lt;br&gt;Location: 2433068 - 2433988" locus_tag="BZZ01_RS09665" class="clusterblast-orf" id="dummy-1_h1_7_69"  />
</g>
<g id="a1_0070"  >
<polygon points="539,90 543,85 539,80 539,90 " style="fill:white; stroke-width:1; stroke:black; " description="&lt;b&gt;BZZ01_RS09670&lt;/b&gt;&lt;br&gt;S41 family peptidase&lt;br&gt;Location: 2434595 - 2435830" locus_tag="BZZ01_RS09670" class="clusterblast-orf" id="dummy-1_h1_7_70"  />
</g>
<g id="a1_0071"  >
<polygon points="545,85 550,80 572,80 572,90 550,90 545,85 " style="fill:white; stroke-width:1; stroke:black; " description="&lt;b&gt;BZZ01_RS09675&lt;/b&gt;&lt;br&gt;SDR family NAD(P)-dependent oxidoreductase&lt;br&gt;Location: 2436305 - 2444698" locus_tag="BZZ01_RS09675" class="clusterblast-orf" id="dummy-1_h1_7_71"  />
</g>
<g id="a1_0072"  >
<polygon points="574,90 578,85 574,80 574,90 " style="fill:white; stroke-width:1; stroke:black; " description="&lt;b&gt;BZZ01_RS09680&lt;/b&gt;&lt;br&gt;hypothetical protein&lt;br&gt;Location: 2445461 - 2446624" locus_tag="BZZ01_RS09680" class="clusterblast-orf" id="dummy-1_h1_7_72"  />
</g>
<g id="a1_0073"  >
<polygon points="579,85 583,80 583,90 579,85 " style="fill:white; stroke-width:1; stroke:black; " description="&lt;b&gt;BZZ01_RS09685&lt;/b&gt;&lt;br&gt;3-deoxy-7-phosphoheptulonate synthase&lt;br&gt;Location: 2447009 - 2448112" locus_tag="BZZ01_RS09685" class="clusterblast-orf" id="dummy-1_h1_7_73"  />
</g>
<g id="a1_0074"  >
<polygon points="583,85 587,80 587,90 583,85 " style="fill:white; stroke-width:1; stroke:black; " description="&lt;b&gt;BZZ01_RS33200&lt;/b&gt;&lt;br&gt;IS630 family transposase&lt;br&gt;Location: 2448199 - 2449280" locus_tag="BZZ01_RS33200" class="clusterblast-orf" id="dummy-1_h1_7_74"  />
</g>
<g id="a1_0075"  >
<polygon points="589,85 592,80 592,90 589,85 " style="fill:white; stroke-width:1; stroke:black; " description="&lt;b&gt;BZZ01_RS09700&lt;/b&gt;&lt;br&gt;hypothetical protein&lt;br&gt;Location: 2449939 - 2450955" locus_tag="BZZ01_RS09700" class="clusterblast-orf" id="dummy-1_h1_7_75"  />
</g>
<g id="a1_0076"  >
<polygon points="592,85 595,80 595,90 592,85 " style="fill:white; stroke-width:1; stroke:black; " description="&lt;b&gt;BZZ01_RS09705&lt;/b&gt;&lt;br&gt;SDR family oxidoreductase&lt;br&gt;Location: 2450981 - 2451772" locus_tag="BZZ01_RS09705" class="clusterblast-orf" id="dummy-1_h1_7_76"  />
</g>
<g id="a1_0077"  >
<polygon points="595,85 597,80 597,90 595,85 " style="fill:white; stroke-width:1; stroke:black; " description="&lt;b&gt;BZZ01_RS09710&lt;/b&gt;&lt;br&gt;hypothetical protein&lt;br&gt;Location: 2451835 - 2452446" locus_tag="BZZ01_RS09710" class="clusterblast-orf" id="dummy-1_h1_7_77"  />
</g>
<g id="a1_0078"  >
<polygon points="597,85 598,80 598,90 597,85 " style="fill:white; stroke-width:1; stroke:black; " description="&lt;b&gt;BZZ01_RS09715&lt;/b&gt;&lt;br&gt;chorismate mutase family protein&lt;br&gt;Location: 2452443 - 2452769" locus_tag="BZZ01_RS09715" class="clusterblast-orf" id="dummy-1_h1_7_78"  />
</g>
<g id="a1_0079"  >
<polygon points="598,85 601,80 601,90 598,85 " style="fill:white; stroke-width:1; stroke:black; " description="&lt;b&gt;BZZ01_RS09720&lt;/b&gt;&lt;br&gt;hypothetical protein&lt;br&gt;Location: 2452784 - 2453740" locus_tag="BZZ01_RS09720" class="clusterblast-orf" id="dummy-1_h1_7_79"  />
</g>
<g id="a1_0080"  >
<polygon points="601,85 606,80 606,80 606,90 606,90 601,85 " style="fill:white; stroke-width:1; stroke:black; " description="&lt;b&gt;BZZ01_RS09725&lt;/b&gt;&lt;br&gt;GNAT family N-acetyltransferase&lt;br&gt;Location: 2453818 - 2455245" locus_tag="BZZ01_RS09725" class="clusterblast-orf" id="dummy-1_h1_7_80"  />
</g>
<g id="a1_0081"  >
<polygon points="606,85 611,80 613,80 613,90 611,90 606,85 " style="fill:white; stroke-width:1; stroke:black; " description="&lt;b&gt;BZZ01_RS09730&lt;/b&gt;&lt;br&gt;aminodeoxychorismate synthase component I&lt;br&gt;Location: 2455230 - 2457386" locus_tag="BZZ01_RS09730" class="clusterblast-orf" id="dummy-1_h1_7_81"  />
</g>
<g id="a1_0082"  >
<polygon points="614,85 616,80 616,90 614,85 " style="fill:white; stroke-width:1; stroke:black; " description="&lt;b&gt;BZZ01_RS09735&lt;/b&gt;&lt;br&gt;ABC transporter ATP-binding protein&lt;br&gt;Location: 2457687 - 2458457" locus_tag="BZZ01_RS09735" class="clusterblast-orf" id="dummy-1_h1_7_82"  />
</g>
<g id="a1_0083"  >
<polygon points="616,85 620,80 620,90 616,85 " style="fill:white; stroke-width:1; stroke:black; " description="&lt;b&gt;BZZ01_RS09740&lt;/b&gt;&lt;br&gt;FtsX-like permease family protein&lt;br&gt;Location: 2458459 - 2459676" locus_tag="BZZ01_RS09740" class="clusterblast-orf" id="dummy-1_h1_7_83"  />
</g>
<g id="a1_0084"  >
<polygon points="620,85 625,80 625,80 625,90 625,90 620,85 " style="fill:white; stroke-width:1; stroke:black; " description="&lt;b&gt;BZZ01_RS09745&lt;/b&gt;&lt;br&gt;efflux RND transporter periplasmic adaptor subunit&lt;br&gt;Location: 2459685 - 2461142" locus_tag="BZZ01_RS09745" class="clusterblast-orf" id="dummy-1_h1_7_84"  />
</g>
<g id="a1_0085"  >
<polygon points="627,90 627,85 627,80 627,90 " style="fill:white; stroke-width:1; stroke:black; " description="&lt;b&gt;BZZ01_RS33205&lt;/b&gt;&lt;br&gt;hypothetical protein&lt;br&gt;Location: 2461757 - 2461864" locus_tag="BZZ01_RS33205" class="clusterblast-orf" id="dummy-1_h1_7_85"  />
</g>
<g id="a1_0086"  >
<polygon points="628,85 632,80 632,90 628,85 " style="fill:white; stroke-width:1; stroke:black; " description="&lt;b&gt;BZZ01_RS09750&lt;/b&gt;&lt;br&gt;MFS transporter&lt;br&gt;Location: 2462032 - 2463312" locus_tag="BZZ01_RS09750" class="clusterblast-orf" id="dummy-1_h1_7_86"  />
</g>
<g id="a1_0087"  >
<polygon points="633,85 638,80 638,80 638,90 638,90 633,85 " style="fill:white; stroke-width:1; stroke:black; " description="&lt;b&gt;BZZ01_RS09755&lt;/b&gt;&lt;br&gt;NAD(P)/FAD-dependent oxidoreductase&lt;br&gt;Location: 2463649 - 2465055" locus_tag="BZZ01_RS09755" class="clusterblast-orf" id="dummy-1_h1_7_87"  />
</g>
<g id="a1_0088"  >
<polygon points="641,85 644,80 644,90 641,85 " style="fill:white; stroke-width:1; stroke:black; " description="&lt;b&gt;BZZ01_RS09760&lt;/b&gt;&lt;br&gt;SGNH/GDSL hydrolase family protein&lt;br&gt;Location: 2465900 - 2466859" locus_tag="BZZ01_RS09760" class="clusterblast-orf" id="dummy-1_h1_7_88"  />
</g>
<g id="a1_0089"  >
<polygon points="648,90 650,90 655,85 650,80 648,80 648,90 " style="fill:white; stroke-width:1; stroke:black; " description="&lt;b&gt;BZZ01_RS09765&lt;/b&gt;&lt;br&gt;AMP-binding protein&lt;br&gt;Location: 2468186 - 2470315" locus_tag="BZZ01_RS09765" class="clusterblast-orf" id="dummy-1_h1_7_89"  />
</g>
<g id="a1_0090"  >
<polygon points="655,90 665,90 670,85 665,80 655,80 655,90 " style="fill:white; stroke-width:1; stroke:black; " description="&lt;b&gt;BZZ01_RS09770&lt;/b&gt;&lt;br&gt;non-ribosomal peptide synthetase&lt;br&gt;Location: 2470485 - 2475077" locus_tag="BZZ01_RS09770" class="clusterblast-orf" id="dummy-1_h1_7_90"  />
</g>
<g id="a1_0091"  >
<polygon points="670,90 676,90 681,85 676,80 670,80 670,90 " style="fill:white; stroke-width:1; stroke:black; " description="&lt;b&gt;BZZ01_RS09775&lt;/b&gt;&lt;br&gt;non-ribosomal peptide synthetase&lt;br&gt;Location: 2475096 - 2478392" locus_tag="BZZ01_RS09775" class="clusterblast-orf" id="dummy-1_h1_7_91"  />
</g>
<g id="a1_0092"  >
<polygon points="681,90 681,90 686,85 681,80 681,80 681,90 " style="fill:white; stroke-width:1; stroke:black; " description="&lt;b&gt;BZZ01_RS09780&lt;/b&gt;&lt;br&gt;hypothetical protein&lt;br&gt;Location: 2478394 - 2479875" locus_tag="BZZ01_RS09780" class="clusterblast-orf" id="dummy-1_h1_7_92"  />
</g>
<g id="a1_0093"  >
<polygon points="686,90 698,90 703,85 698,80 686,80 686,90 " style="fill:white; stroke-width:1; stroke:black; " description="&lt;b&gt;BZZ01_RS09785&lt;/b&gt;&lt;br&gt;non-ribosomal peptide synthetase&lt;br&gt;Location: 2480055 - 2485094" locus_tag="BZZ01_RS09785" class="clusterblast-orf" id="dummy-1_h1_7_93"  />
</g>
<g id="a1_0094"  >
<polygon points="703,90 711,90 716,85 711,80 703,80 703,90 " style="fill:white; stroke-width:1; stroke:black; " description="&lt;b&gt;BZZ01_RS09790&lt;/b&gt;&lt;br&gt;type I polyketide synthase&lt;br&gt;Location: 2485223 - 2489107" locus_tag="BZZ01_RS09790" class="clusterblast-orf" id="dummy-1_h1_7_94"  />
</g>
<g id="a1_0095"  >
<polygon points="716,85 717,80 717,90 716,85 " style="fill:white; stroke-width:1; stroke:black; " description="&lt;b&gt;BZZ01_RS09795&lt;/b&gt;&lt;br&gt;IS1634 family transposase&lt;br&gt;Location: 2489152 - 2489508" locus_tag="BZZ01_RS09795" class="clusterblast-orf" id="dummy-1_h1_7_95"  />
</g>
<g id="a1_0096"  >
<polygon points="717,85 720,80 720,90 717,85 " style="fill:white; stroke-width:1; stroke:black; " description="&lt;b&gt;BZZ01_RS09800&lt;/b&gt;&lt;br&gt;IS630 family transposase&lt;br&gt;Location: 2489516 - 2490291" locus_tag="BZZ01_RS09800" class="clusterblast-orf" id="dummy-1_h1_7_96"  />
</g>
<g id="a1_0097"  >
<polygon points="722,85 724,80 724,90 722,85 " style="fill:white; stroke-width:1; stroke:black; " description="&lt;b&gt;BZZ01_RS09810&lt;/b&gt;&lt;br&gt;Uma2 family endonuclease&lt;br&gt;Location: 2490956 - 2491525" locus_tag="BZZ01_RS09810" class="clusterblast-orf" id="dummy-1_h1_7_97"  />
</g>
<g id="a1_0098"  >
<polygon points="724,90 726,85 724,80 724,90 " style="fill:white; stroke-width:1; stroke:black; " description="&lt;b&gt;BZZ01_RS09815&lt;/b&gt;&lt;br&gt;restriction endonuclease subunit R&lt;br&gt;Location: 2491629 - 2492264" locus_tag="BZZ01_RS09815" class="clusterblast-orf" id="dummy-1_h1_7_98"  />
</g>
<g id="a1_0099"  >
<polygon points="726,85 730,80 730,90 726,85 " style="fill:white; stroke-width:1; stroke:black; " description="&lt;b&gt;BZZ01_RS09820&lt;/b&gt;&lt;br&gt;ABC transporter permease&lt;br&gt;Location: 2492346 - 2493371" locus_tag="BZZ01_RS09820" class="clusterblast-orf" id="dummy-1_h1_7_99"  />
</g>
<g id="a1_00100"  >
<polygon points="730,85 735,80 735,80 735,90 735,90 730,85 " style="fill:white; stroke-width:1; stroke:black; " description="&lt;b&gt;BZZ01_RS09825&lt;/b&gt;&lt;br&gt;peptide ABC transporter substrate-binding protein&lt;br&gt;Location: 2493478 - 2495124" locus_tag="BZZ01_RS09825" class="clusterblast-orf" id="dummy-1_h1_7_100"  />
</g>
<g id="a1_00101"  >
<polygon points="737,90 738,85 737,80 737,90 " style="fill:white; stroke-width:1; stroke:black; " description="&lt;b&gt;BZZ01_RS09830&lt;/b&gt;&lt;br&gt;hypothetical protein&lt;br&gt;Location: 2495565 - 2495897" locus_tag="BZZ01_RS09830" class="clusterblast-orf" id="dummy-1_h1_7_101"  />
</g>
<g id="a1_00102"  >
<polygon points="739,90 739,90 744,85 739,80 739,80 739,90 " style="fill:white; stroke-width:1; stroke:black; " description="&lt;b&gt;BZZ01_RS09835&lt;/b&gt;&lt;br&gt;photosystem II chlorophyll-binding protein CP47&lt;br&gt;Location: 2496349 - 2497878" locus_tag="BZZ01_RS09835" class="clusterblast-orf" id="dummy-1_h1_7_102"  />
</g>
<g id="a1_00103"  >
<polygon points="745,90 745,85 745,80 745,90 " style="fill:white; stroke-width:1; stroke:black; " description="&lt;b&gt;BZZ01_RS09840&lt;/b&gt;&lt;br&gt;photosystem II reaction center protein T&lt;br&gt;Location: 2498051 - 2498158" locus_tag="BZZ01_RS09840" class="clusterblast-orf" id="dummy-1_h1_7_103"  />
</g>
<g id="a1_00104"  >
<polygon points="746,90 750,85 746,80 746,90 " style="fill:white; stroke-width:1; stroke:black; " description="&lt;b&gt;BZZ01_RS09845&lt;/b&gt;&lt;br&gt;30S ribosomal protein S1&lt;br&gt;Location: 2498464 - 2499531" locus_tag="BZZ01_RS09845" class="clusterblast-orf" id="dummy-1_h1_7_104"  />
</g>
<g id="a1_00105"  >
<polygon points="750,85 752,80 752,90 750,85 " style="fill:white; stroke-width:1; stroke:black; " description="&lt;b&gt;BZZ01_RS09850&lt;/b&gt;&lt;br&gt;nitroreductase family protein&lt;br&gt;Location: 2499619 - 2500230" locus_tag="BZZ01_RS09850" class="clusterblast-orf" id="dummy-1_h1_7_105"  />
</g>
<g id="a1_00106"  >
<polygon points="753,90 757,85 753,80 753,90 " style="fill:white; stroke-width:1; stroke:black; " description="&lt;b&gt;BZZ01_RS09855&lt;/b&gt;&lt;br&gt;site-2 protease family protein&lt;br&gt;Location: 2500575 - 2501699" locus_tag="BZZ01_RS09855" class="clusterblast-orf" id="dummy-1_h1_7_106"  />
</g>
<g id="a1_00107"  >
<polygon points="757,90 759,85 757,80 757,90 " style="fill:white; stroke-width:1; stroke:black; " description="&lt;b&gt;BZZ01_RS09860&lt;/b&gt;&lt;br&gt;VWA domain-containing protein&lt;br&gt;Location: 2501898 - 2502503" locus_tag="BZZ01_RS09860" class="clusterblast-orf" id="dummy-1_h1_7_107"  />
</g>
<g id="a1_00108"  >
<polygon points="759,90 761,85 759,80 759,90 " style="fill:white; stroke-width:1; stroke:black; " description="&lt;b&gt;BZZ01_RS09865&lt;/b&gt;&lt;br&gt;VWA domain-containing protein&lt;br&gt;Location: 2502551 - 2503156" locus_tag="BZZ01_RS09865" class="clusterblast-orf" id="dummy-1_h1_7_108"  />
</g>
<g id="a1_00109"  >
<polygon points="762,90 763,85 762,80 762,90 " style="fill:white; stroke-width:1; stroke:black; " description="&lt;b&gt;BZZ01_RS09870&lt;/b&gt;&lt;br&gt;hypothetical protein&lt;br&gt;Location: 2503226 - 2503600" locus_tag="BZZ01_RS09870" class="clusterblast-orf" id="dummy-1_h1_7_109"  />
</g>
<g id="a1_00110"  >
<polygon points="763,85 764,80 764,90 763,85 " style="fill:white; stroke-width:1; stroke:black; " description="&lt;b&gt;BZZ01_RS09875&lt;/b&gt;&lt;br&gt;helix-turn-helix transcriptional regulator&lt;br&gt;Location: 2503707 - 2504051" locus_tag="BZZ01_RS09875" class="clusterblast-orf" id="dummy-1_h1_7_110"  />
</g>
<g id="a1_00111"  >
<polygon points="765,90 767,85 765,80 765,90 " style="fill:white; stroke-width:1; stroke:black; " description="&lt;b&gt;BZZ01_RS09880&lt;/b&gt;&lt;br&gt;FMN-dependent NADH-azoreductase&lt;br&gt;Location: 2504240 - 2504863" locus_tag="BZZ01_RS09880" class="clusterblast-orf" id="dummy-1_h1_7_111"  />
</g>
<g id="a1_00112"  >
<polygon points="767,85 771,80 771,90 767,85 " style="fill:white; stroke-width:1; stroke:black; " description="&lt;b&gt;BZZ01_RS09885&lt;/b&gt;&lt;br&gt;hypothetical protein&lt;br&gt;Location: 2504990 - 2506228" locus_tag="BZZ01_RS09885" class="clusterblast-orf" id="dummy-1_h1_7_112"  />
</g>
<g id="a1_00113"  >
<polygon points="772,85 777,80 780,80 780,90 777,90 772,85 " style="fill:white; stroke-width:1; stroke:black; " description="&lt;b&gt;BZZ01_RS09890&lt;/b&gt;&lt;br&gt;TonB-dependent receptor&lt;br&gt;Location: 2506403 - 2508763" locus_tag="BZZ01_RS09890" class="clusterblast-orf" id="dummy-1_h1_7_113"  />
</g>
</svg>
