<svg xmlns="http://www.w3.org/2000/svg" xmlns:xlink="http://www.w3.org/1999/xlink" version="1.1" x="0" y="0" height="230" width="800" viewBox="0 0 800 230" preserveAspectRatio="none"  >
<g label="Query sequence" class="clusterblast-cluster"  >
<text x="5" y="20" class="clusterblast-acc"  >
Query sequence</text>
<line x1="10" y1="35" x2="778.0" y2="35" style="stroke-width:1; stroke:grey; "  />
<polygon points="47,40 145,40 150,35 145,30 47,30 47,40 " style="fill:#d81515; stroke-width:1; stroke:black; " description="&lt;b&gt;MCIC6FC_019652&lt;/b&gt;&lt;br&gt;hypothetical protein&lt;br&gt;Location: 118749 - 120664" locus_tag="MCIC6FC_019652" class="clusterblast-orf" id="dummy-1_q0_0_all"  />
<polygon points="175,40 515,40 520,35 515,30 175,30 175,40 " style="fill:#15d815; stroke-width:1; stroke:black; " description="&lt;b&gt;MCIC6FC_019653&lt;/b&gt;&lt;br&gt;hypothetical protein&lt;br&gt;Location: 121128 - 127587" locus_tag="MCIC6FC_019653" class="clusterblast-orf" id="dummy-1_q1_0_all"  />
<polygon points="536,40 728,40 733,35 728,30 536,30 536,40 " style="fill:#1515d8; stroke-width:1; stroke:black; " description="&lt;b&gt;MCIC6FC_019654&lt;/b&gt;&lt;br&gt;hypothetical protein&lt;br&gt;Location: 127885 - 131565" locus_tag="MCIC6FC_019654" class="clusterblast-orf" id="dummy-1_q2_0_all"  />
</g>
<g label="NZ_FRBX01000001" description="NZ_FRBX01000001 (1096445-1111247): Flavobacterium pectinovorum strain DSM 636... (41% of genes show similarity), siderophore" class="clusterblast-cluster"  >
<text x="5" y="70" class="clusterblast-acc"  >
<a xlink:href="https://antismash-db.secondarymetabolites.org/area.html?record=NZ_FRBX01000001&amp;start=1096445&amp;end=1111247" target="_blank">NZ_FRBX01000001 (1096445-1111247)</a>: Flavobacterium pectinovorum strain DSM 636... (41% of genes show similarity), siderophore</text>
<line x1="10" y1="85" x2="778.0" y2="85" style="stroke-width:1; stroke:grey; "  />
</g>
<g id="a1_000"  >
<polygon points="0,90 28,90 33,85 28,80 0,80 0,90 " style="fill:white; stroke-width:1; stroke:black; " description="&lt;b&gt;BUE22_RS04660&lt;/b&gt;&lt;br&gt;response regulator transcription factor&lt;br&gt;Location: 1096472 - 1097095" locus_tag="BUE22_RS04660" class="clusterblast-orf" id="dummy-1_h1_9_0"  />
</g>
<g id="a1_001"  >
<polygon points="42,90 119,90 124,85 119,80 42,80 42,90 " style="fill:#d81515; stroke-width:1; stroke:black; " description="&lt;b&gt;BUE22_RS04665&lt;/b&gt;&lt;br&gt;aspartate aminotransferase family protein&lt;br&gt;Location: 1097268 - 1098803&lt;br&gt;&lt;br&gt;&lt;b&gt;BlastP hit with MCIC6FC_019652&lt;/b&gt;&lt;br&gt;Percentage identity: 36&lt;br&gt;Percentage coverage: 85&lt;br&gt;BLAST bit score: 238&lt;br&gt;E-value: 1.4e-60" locus_tag="BUE22_RS04665" class="clusterblast-orf" id="dummy-1_h1_9_1"  />
</g>
<g id="a1_002"  >
<polygon points="125,90 191,90 196,85 191,80 125,80 125,90 " style="fill:#15d815; stroke-width:1; stroke:black; " description="&lt;b&gt;BUE22_RS04670&lt;/b&gt;&lt;br&gt;lysine N(6)-hydroxylase/L-ornithine N(5)-oxygenase family protein&lt;br&gt;Location: 1098811 - 1100142&lt;br&gt;&lt;br&gt;&lt;b&gt;BlastP hit with MCIC6FC_019653&lt;/b&gt;&lt;br&gt;Percentage identity: 45&lt;br&gt;Percentage coverage: 29&lt;br&gt;BLAST bit score: 354&lt;br&gt;E-value: 3.9e-95" locus_tag="BUE22_RS04670" class="clusterblast-orf" id="dummy-1_h1_9_2"  />
</g>
<g id="a1_003"  >
<polygon points="196,90 250,90 255,85 250,80 196,80 196,90 " style="fill:white; stroke-width:1; stroke:black; " description="&lt;b&gt;BUE22_RS04675&lt;/b&gt;&lt;br&gt;DUF1624 domain-containing protein&lt;br&gt;Location: 1100145 - 1101254" locus_tag="BUE22_RS04675" class="clusterblast-orf" id="dummy-1_h1_9_3"  />
</g>
<g id="a1_004"  >
<polygon points="266,90 389,90 394,85 389,80 266,80 266,90 " style="fill:#15d815; stroke-width:1; stroke:black; " description="&lt;b&gt;BUE22_RS04680&lt;/b&gt;&lt;br&gt;GNAT family N-acetyltransferase&lt;br&gt;Location: 1101446 - 1103845&lt;br&gt;&lt;br&gt;&lt;b&gt;BlastP hit with MCIC6FC_019653&lt;/b&gt;&lt;br&gt;Percentage identity: 34&lt;br&gt;Percentage coverage: 30&lt;br&gt;BLAST bit score: 263&lt;br&gt;E-value: 1.5e-67" locus_tag="BUE22_RS04680" class="clusterblast-orf" id="dummy-1_h1_9_4"  />
</g>
<g id="a1_005"  >
<polygon points="394,90 421,90 426,85 421,80 394,80 394,90 " style="fill:#15d815; stroke-width:1; stroke:black; " description="&lt;b&gt;BUE22_RS04685&lt;/b&gt;&lt;br&gt;acetyltransferase&lt;br&gt;Location: 1103857 - 1104453&lt;br&gt;&lt;br&gt;&lt;b&gt;BlastP hit with MCIC6FC_019653&lt;/b&gt;&lt;br&gt;Percentage identity: 31&lt;br&gt;Percentage coverage: 13&lt;br&gt;BLAST bit score: 77&lt;br&gt;E-value: 9.1e-12" locus_tag="BUE22_RS04685" class="clusterblast-orf" id="dummy-1_h1_9_5"  />
</g>
<g id="a1_006"  >
<polygon points="427,90 517,90 522,85 517,80 427,80 427,90 " style="fill:#15d815; stroke-width:1; stroke:black; " description="&lt;b&gt;BUE22_RS04690&lt;/b&gt;&lt;br&gt;IucA/IucC family siderophore biosynthesis protein&lt;br&gt;Location: 1104457 - 1106247&lt;br&gt;&lt;br&gt;&lt;b&gt;BlastP hit with MCIC6FC_019653&lt;/b&gt;&lt;br&gt;Percentage identity: 36&lt;br&gt;Percentage coverage: 30&lt;br&gt;BLAST bit score: 286&lt;br&gt;E-value: 1.3e-74" locus_tag="BUE22_RS04690" class="clusterblast-orf" id="dummy-1_h1_9_6"  />
</g>
<g id="a1_007"  >
<polygon points="538,85 543,80 559,80 559,90 543,90 538,85 " style="fill:white; stroke-width:1; stroke:black; " description="&lt;b&gt;BUE22_RS04695&lt;/b&gt;&lt;br&gt;RidA family protein&lt;br&gt;Location: 1106543 - 1106932" locus_tag="BUE22_RS04695" class="clusterblast-orf" id="dummy-1_h1_9_7"  />
</g>
<g id="a1_008"  >
<polygon points="579,85 584,80 609,80 609,90 584,90 579,85 " style="fill:white; stroke-width:1; stroke:black; " description="&lt;b&gt;BUE22_RS04700&lt;/b&gt;&lt;br&gt;Crp/Fnr family transcriptional regulator&lt;br&gt;Location: 1107299 - 1107862" locus_tag="BUE22_RS04700" class="clusterblast-orf" id="dummy-1_h1_9_8"  />
</g>
<g id="a1_009"  >
<polygon points="610,85 615,80 640,80 640,90 615,90 610,85 " style="fill:white; stroke-width:1; stroke:black; " description="&lt;b&gt;BUE22_RS04705&lt;/b&gt;&lt;br&gt;hypothetical protein&lt;br&gt;Location: 1107892 - 1108455" locus_tag="BUE22_RS04705" class="clusterblast-orf" id="dummy-1_h1_9_9"  />
</g>
<g id="a1_0010"  >
<polygon points="643,85 648,80 694,80 694,90 648,90 643,85 " style="fill:white; stroke-width:1; stroke:black; " description="&lt;b&gt;BUE22_RS04710&lt;/b&gt;&lt;br&gt;hypothetical protein&lt;br&gt;Location: 1108501 - 1109454" locus_tag="BUE22_RS04710" class="clusterblast-orf" id="dummy-1_h1_9_10"  />
</g>
<g id="a1_0011"  >
<polygon points="706,85 711,80 780,80 780,90 711,90 706,85 " style="fill:white; stroke-width:1; stroke:black; " description="&lt;b&gt;BUE22_RS04715&lt;/b&gt;&lt;br&gt;hypothetical protein&lt;br&gt;Location: 1109677 - 1111056" locus_tag="BUE22_RS04715" class="clusterblast-orf" id="dummy-1_h1_9_11"  />
</g>
</svg>
