<svg xmlns="http://www.w3.org/2000/svg" xmlns:xlink="http://www.w3.org/1999/xlink" version="1.1" x="0" y="0" height="230" width="800" viewBox="0 0 800 230" preserveAspectRatio="none"  >
<g label="Query sequence" class="clusterblast-cluster"  >
<text x="5" y="20" class="clusterblast-acc"  >
Query sequence</text>
<line x1="10" y1="35" x2="778.0" y2="35" style="stroke-width:1; stroke:grey; "  />
<polygon points="0,40 64,40 69,35 64,30 0,30 0,40 " style="fill:white; stroke-width:1; stroke:black; " description="&lt;b&gt;MCIC6FC_011802&lt;/b&gt;&lt;br&gt;hypothetical protein&lt;br&gt;Location: 133246 - 139428" locus_tag="MCIC6FC_011802" class="clusterblast-orf" id="dummy-1_q0_0_all"  />
<polygon points="72,35 77,30 106,30 106,40 77,40 72,35 " style="fill:#d81515; stroke-width:1; stroke:black; " description="&lt;b&gt;MCIC6FC_011803&lt;/b&gt;&lt;br&gt;hypothetical protein&lt;br&gt;Location: 139677 - 142680" locus_tag="MCIC6FC_011803" class="clusterblast-orf" id="dummy-1_q1_0_all"  />
<polygon points="111,40 115,40 120,35 115,30 111,30 111,40 " style="fill:#3cd815; stroke-width:1; stroke:black; " description="&lt;b&gt;MCIC6FC_011804&lt;/b&gt;&lt;br&gt;hypothetical protein&lt;br&gt;Location: 143112 - 143937" locus_tag="MCIC6FC_011804" class="clusterblast-orf" id="dummy-1_q2_0_all"  />
<polygon points="122,35 127,30 134,30 134,40 127,40 122,35 " style="fill:#1563d8; stroke-width:1; stroke:black; " description="&lt;b&gt;MCIC6FC_011805&lt;/b&gt;&lt;br&gt;hypothetical protein&lt;br&gt;Location: 144065 - 145139" locus_tag="MCIC6FC_011805" class="clusterblast-orf" id="dummy-1_q3_0_all"  />
<polygon points="135,35 140,30 140,30 140,40 140,40 135,35 " style="fill:#b115d8; stroke-width:1; stroke:black; " description="&lt;b&gt;MCIC6FC_011806&lt;/b&gt;&lt;br&gt;hypothetical protein&lt;br&gt;Location: 145253 - 145665" locus_tag="MCIC6FC_011806" class="clusterblast-orf" id="dummy-1_q4_0_all"  />
<polygon points="140,35 145,30 155,30 155,40 145,40 140,35 " style="fill:#b115d8; stroke-width:1; stroke:black; " description="&lt;b&gt;MCIC6FC_011807&lt;/b&gt;&lt;br&gt;hypothetical protein&lt;br&gt;Location: 145694 - 146994" locus_tag="MCIC6FC_011807" class="clusterblast-orf" id="dummy-1_q5_0_all"  />
<polygon points="155,35 160,30 169,30 169,40 160,40 155,35 " style="fill:#d88a15; stroke-width:1; stroke:black; " description="&lt;b&gt;MCIC6FC_011808&lt;/b&gt;&lt;br&gt;hypothetical protein&lt;br&gt;Location: 146996 - 148251" locus_tag="MCIC6FC_011808" class="clusterblast-orf" id="dummy-1_q6_0_all"  />
<polygon points="170,40 174,40 179,35 174,30 170,30 170,40 " style="fill:#15d863; stroke-width:1; stroke:black; " description="&lt;b&gt;MCIC6FC_011809&lt;/b&gt;&lt;br&gt;hypothetical protein&lt;br&gt;Location: 148358 - 149126" locus_tag="MCIC6FC_011809" class="clusterblast-orf" id="dummy-1_q7_0_all"  />
<polygon points="179,35 184,30 209,30 209,40 184,40 179,35 " style="fill:#3c15d8; stroke-width:1; stroke:black; " description="&lt;b&gt;MCIC6FC_011810&lt;/b&gt;&lt;br&gt;hypothetical protein&lt;br&gt;Location: 149145 - 151822" locus_tag="MCIC6FC_011810" class="clusterblast-orf" id="dummy-1_q8_0_all"  />
<polygon points="210,35 215,30 363,30 363,40 215,40 210,35 " style="fill:#3c15d8; stroke-width:1; stroke:black; " description="&lt;b&gt;MCIC6FC_011811&lt;/b&gt;&lt;br&gt;hypothetical protein&lt;br&gt;Location: 151855 - 165422" locus_tag="MCIC6FC_011811" class="clusterblast-orf" id="dummy-1_q9_0_all"  />
<polygon points="364,40 389,40 394,35 389,30 364,30 364,40 " style="fill:white; stroke-width:1; stroke:black; " description="&lt;b&gt;MCIC6FC_011812&lt;/b&gt;&lt;br&gt;hypothetical protein&lt;br&gt;Location: 165515 - 168223" locus_tag="MCIC6FC_011812" class="clusterblast-orf" id="dummy-1_q10_0_all"  />
<polygon points="396,35 401,30 421,30 421,40 401,40 396,35 " style="fill:#3c15d8; stroke-width:1; stroke:black; " description="&lt;b&gt;MCIC6FC_011813&lt;/b&gt;&lt;br&gt;hypothetical protein&lt;br&gt;Location: 168359 - 170602" locus_tag="MCIC6FC_011813" class="clusterblast-orf" id="dummy-1_q11_0_all"  />
<polygon points="422,35 427,30 478,30 478,40 427,40 422,35 " style="fill:#3c15d8; stroke-width:1; stroke:black; " description="&lt;b&gt;MCIC6FC_011814&lt;/b&gt;&lt;br&gt;hypothetical protein&lt;br&gt;Location: 170643 - 175636" locus_tag="MCIC6FC_011814" class="clusterblast-orf" id="dummy-1_q12_0_all"  />
<polygon points="479,35 484,30 562,30 562,40 484,40 479,35 " style="fill:#3c15d8; stroke-width:1; stroke:black; " description="&lt;b&gt;MCIC6FC_011815&lt;/b&gt;&lt;br&gt;hypothetical protein&lt;br&gt;Location: 175678 - 183109" locus_tag="MCIC6FC_011815" class="clusterblast-orf" id="dummy-1_q13_0_all"  />
<polygon points="563,35 568,30 597,30 597,40 568,40 563,35 " style="fill:#3c15d8; stroke-width:1; stroke:black; " description="&lt;b&gt;MCIC6FC_011816&lt;/b&gt;&lt;br&gt;hypothetical protein&lt;br&gt;Location: 183132 - 186177" locus_tag="MCIC6FC_011816" class="clusterblast-orf" id="dummy-1_q14_0_all"  />
<polygon points="598,35 603,30 606,30 606,40 603,40 598,35 " style="fill:#3c15d8; stroke-width:1; stroke:black; " description="&lt;b&gt;MCIC6FC_011817&lt;/b&gt;&lt;br&gt;hypothetical protein&lt;br&gt;Location: 186242 - 186981" locus_tag="MCIC6FC_011817" class="clusterblast-orf" id="dummy-1_q15_0_all"  />
<polygon points="607,40 634,40 639,35 634,30 607,30 607,40 " style="fill:#d8158a; stroke-width:1; stroke:black; " description="&lt;b&gt;MCIC6FC_011818&lt;/b&gt;&lt;br&gt;hypothetical protein&lt;br&gt;Location: 187094 - 189883" locus_tag="MCIC6FC_011818" class="clusterblast-orf" id="dummy-1_q16_0_all"  />
<polygon points="640,40 650,40 655,35 650,30 640,30 640,40 " style="fill:#d8158a; stroke-width:1; stroke:black; " description="&lt;b&gt;MCIC6FC_011819&lt;/b&gt;&lt;br&gt;hypothetical protein&lt;br&gt;Location: 189964 - 191316" locus_tag="MCIC6FC_011819" class="clusterblast-orf" id="dummy-1_q17_0_all"  />
<polygon points="656,40 689,40 694,35 689,30 656,30 656,40 " style="fill:#b1d815; stroke-width:1; stroke:black; " description="&lt;b&gt;MCIC6FC_011820&lt;/b&gt;&lt;br&gt;hypothetical protein&lt;br&gt;Location: 191385 - 194715" locus_tag="MCIC6FC_011820" class="clusterblast-orf" id="dummy-1_q18_0_all"  />
<polygon points="695,35 700,30 712,30 712,40 700,40 695,35 " style="fill:#15d8d8; stroke-width:1; stroke:black; " description="&lt;b&gt;MCIC6FC_011821&lt;/b&gt;&lt;br&gt;hypothetical protein&lt;br&gt;Location: 194854 - 196352" locus_tag="MCIC6FC_011821" class="clusterblast-orf" id="dummy-1_q19_0_all"  />
<polygon points="715,40 734,40 739,35 734,30 715,30 715,40 " style="fill:white; stroke-width:1; stroke:black; " description="&lt;b&gt;MCIC6FC_011822&lt;/b&gt;&lt;br&gt;hypothetical protein&lt;br&gt;Location: 196619 - 198724" locus_tag="MCIC6FC_011822" class="clusterblast-orf" id="dummy-1_q20_0_all"  />
<polygon points="740,35 745,30 758,30 758,40 745,40 740,35 " style="fill:white; stroke-width:1; stroke:black; " description="&lt;b&gt;MCIC6FC_011823&lt;/b&gt;&lt;br&gt;hypothetical protein&lt;br&gt;Location: 198797 - 200457" locus_tag="MCIC6FC_011823" class="clusterblast-orf" id="dummy-1_q21_0_all"  />
<polygon points="760,35 765,30 773,30 773,40 765,40 760,35 " style="fill:white; stroke-width:1; stroke:black; " description="&lt;b&gt;MCIC6FC_011824&lt;/b&gt;&lt;br&gt;hypothetical protein&lt;br&gt;Location: 200648 - 201730" locus_tag="MCIC6FC_011824" class="clusterblast-orf" id="dummy-1_q22_0_all"  />
<polygon points="775,40 775,40 780,35 775,30 775,30 775,40 " style="fill:white; stroke-width:1; stroke:black; " description="&lt;b&gt;MCIC6FC_011825&lt;/b&gt;&lt;br&gt;hypothetical protein&lt;br&gt;Location: 201938 - 202342" locus_tag="MCIC6FC_011825" class="clusterblast-orf" id="dummy-1_q23_0_all"  />
</g>
<g label="NZ_CP021645" description="NZ_CP021645 (791296-856609): Pseudomonas psychrotolerans strain CS51 chromoso... (31% of genes show similarity), NRPS" class="clusterblast-cluster"  >
<text x="5" y="70" class="clusterblast-acc"  >
<a xlink:href="https://antismash-db.secondarymetabolites.org/area.html?record=NZ_CP021645&amp;start=791296&amp;end=856609" target="_blank">NZ_CP021645 (791296-856609)</a>: Pseudomonas psychrotolerans strain CS51 chromoso... (31% of genes show similarity), NRPS</text>
<line x1="10" y1="85" x2="778.0" y2="85" style="stroke-width:1; stroke:grey; "  />
</g>
<g id="a1_000"  >
<polygon points="21,85 26,80 26,80 26,90 26,90 21,85 " style="fill:white; stroke-width:1; stroke:black; " description="&lt;b&gt;CCZ28_RS03745&lt;/b&gt;&lt;br&gt;winged helix-turn-helix transcriptional regulator&lt;br&gt;Location: 856609 - 856157" locus_tag="CCZ28_RS03745" class="clusterblast-orf" id="dummy-1_h1_5_0"  />
</g>
<g id="a1_001"  >
<polygon points="27,90 29,90 34,85 29,80 27,80 27,90 " style="fill:white; stroke-width:1; stroke:black; " description="&lt;b&gt;CCZ28_RS03740&lt;/b&gt;&lt;br&gt;LysE family transporter&lt;br&gt;Location: 856054 - 855443" locus_tag="CCZ28_RS03740" class="clusterblast-orf" id="dummy-1_h1_5_1"  />
</g>
<g id="a1_002"  >
<polygon points="35,90 45,90 50,85 45,80 35,80 35,90 " style="fill:white; stroke-width:1; stroke:black; " description="&lt;b&gt;CCZ28_RS03735&lt;/b&gt;&lt;br&gt;tetratricopeptide repeat protein&lt;br&gt;Location: 855380 - 854028" locus_tag="CCZ28_RS03735" class="clusterblast-orf" id="dummy-1_h1_5_2"  />
</g>
<g id="a1_003"  >
<polygon points="51,90 51,90 56,85 51,80 51,80 51,90 " style="fill:white; stroke-width:1; stroke:black; " description="&lt;b&gt;CCZ28_RS03730&lt;/b&gt;&lt;br&gt;hypothetical protein&lt;br&gt;Location: 853931 - 853527" locus_tag="CCZ28_RS03730" class="clusterblast-orf" id="dummy-1_h1_5_3"  />
</g>
<g id="a1_004"  >
<polygon points="56,90 58,90 63,85 58,80 56,80 56,90 " style="fill:white; stroke-width:1; stroke:black; " description="&lt;b&gt;CCZ28_RS03725&lt;/b&gt;&lt;br&gt;RES domain-containing protein&lt;br&gt;Location: 853533 - 852835" locus_tag="CCZ28_RS03725" class="clusterblast-orf" id="dummy-1_h1_5_4"  />
</g>
<g id="a1_005"  >
<polygon points="64,85 69,80 79,80 79,90 69,90 64,85 " style="fill:white; stroke-width:1; stroke:black; " description="&lt;b&gt;CCZ28_RS03720&lt;/b&gt;&lt;br&gt;glutamine synthetase&lt;br&gt;Location: 852786 - 851419" locus_tag="CCZ28_RS03720" class="clusterblast-orf" id="dummy-1_h1_5_5"  />
</g>
<g id="a1_006"  >
<polygon points="80,85 85,80 95,80 95,90 85,90 80,85 " style="fill:white; stroke-width:1; stroke:black; " description="&lt;b&gt;CCZ28_RS03715&lt;/b&gt;&lt;br&gt;aminotransferase class III-fold pyridoxal phosphate-dependent enzyme&lt;br&gt;Location: 851403 - 850009" locus_tag="CCZ28_RS03715" class="clusterblast-orf" id="dummy-1_h1_5_6"  />
</g>
<g id="a1_007"  >
<polygon points="96,85 101,80 104,80 104,90 101,90 96,85 " style="fill:white; stroke-width:1; stroke:black; " description="&lt;b&gt;CCZ28_RS03710&lt;/b&gt;&lt;br&gt;SDR family oxidoreductase&lt;br&gt;Location: 849972 - 849217" locus_tag="CCZ28_RS03710" class="clusterblast-orf" id="dummy-1_h1_5_7"  />
</g>
<g id="a1_008"  >
<polygon points="104,85 109,80 113,80 113,90 109,90 104,85 " style="fill:white; stroke-width:1; stroke:black; " description="&lt;b&gt;CCZ28_RS03705&lt;/b&gt;&lt;br&gt;SDR family oxidoreductase&lt;br&gt;Location: 849215 - 848439" locus_tag="CCZ28_RS03705" class="clusterblast-orf" id="dummy-1_h1_5_8"  />
</g>
<g id="a1_009"  >
<polygon points="114,90 119,90 124,85 119,80 114,80 114,90 " style="fill:white; stroke-width:1; stroke:black; " description="&lt;b&gt;CCZ28_RS03700&lt;/b&gt;&lt;br&gt;LysR family transcriptional regulator&lt;br&gt;Location: 848349 - 847453" locus_tag="CCZ28_RS03700" class="clusterblast-orf" id="dummy-1_h1_5_9"  />
</g>
<g id="a1_0010"  >
<polygon points="125,90 129,90 134,85 129,80 125,80 125,90 " style="fill:#15d863; stroke-width:1; stroke:black; " description="&lt;b&gt;CCZ28_RS03695&lt;/b&gt;&lt;br&gt;ATP-binding cassette domain-containing protein&lt;br&gt;Location: 847346 - 846579&lt;br&gt;&lt;br&gt;&lt;b&gt;BlastP hit with MCIC6FC_011809&lt;/b&gt;&lt;br&gt;Percentage identity: 61&lt;br&gt;Percentage coverage: 106&lt;br&gt;BLAST bit score: 315&lt;br&gt;E-value: 5.8e-84" locus_tag="CCZ28_RS03695" class="clusterblast-orf" id="dummy-1_h1_5_10"  />
</g>
<g id="a1_0011"  >
<polygon points="134,85 139,80 143,80 143,90 139,90 134,85 " style="fill:#3c15d8; stroke-width:1; stroke:black; " description="&lt;b&gt;CCZ28_RS03690&lt;/b&gt;&lt;br&gt;siderophore-iron reductase FhuF&lt;br&gt;Location: 846568 - 845822&lt;br&gt;&lt;br&gt;&lt;b&gt;BlastP hit with MCIC6FC_011810&lt;/b&gt;&lt;br&gt;Percentage identity: 42&lt;br&gt;Percentage coverage: 33&lt;br&gt;BLAST bit score: 161&lt;br&gt;E-value: 2.6e-37" locus_tag="CCZ28_RS03690" class="clusterblast-orf" id="dummy-1_h1_5_11"  />
</g>
<g id="a1_0012"  >
<polygon points="144,85 149,80 155,80 155,90 149,90 144,85 " style="fill:#d8158a; stroke-width:1; stroke:black; " description="&lt;b&gt;CCZ28_RS03685&lt;/b&gt;&lt;br&gt;GNAT family N-acetyltransferase&lt;br&gt;Location: 845728 - 844730&lt;br&gt;&lt;br&gt;&lt;b&gt;BlastP hit with MCIC6FC_011819&lt;/b&gt;&lt;br&gt;Percentage identity: 45&lt;br&gt;Percentage coverage: 69&lt;br&gt;BLAST bit score: 217&lt;br&gt;E-value: 3.3e-54" locus_tag="CCZ28_RS03685" class="clusterblast-orf" id="dummy-1_h1_5_12"  />
</g>
<g id="a1_0013"  >
<polygon points="155,85 160,80 166,80 166,90 160,90 155,85 " style="fill:#3c15d8; stroke-width:1; stroke:black; " description="&lt;b&gt;CCZ28_RS03680&lt;/b&gt;&lt;br&gt;TauD/TfdA family dioxygenase&lt;br&gt;Location: 844733 - 843741&lt;br&gt;&lt;br&gt;&lt;b&gt;BlastP hit with MCIC6FC_011816&lt;/b&gt;&lt;br&gt;Percentage identity: 53&lt;br&gt;Percentage coverage: 33&lt;br&gt;BLAST bit score: 318&lt;br&gt;E-value: 2.5e-84" locus_tag="CCZ28_RS03680" class="clusterblast-orf" id="dummy-1_h1_5_13"  />
</g>
<g id="a1_0014"  >
<polygon points="166,85 169,80 169,90 166,85 " style="fill:white; stroke-width:1; stroke:black; " description="&lt;b&gt;CCZ28_RS03675&lt;/b&gt;&lt;br&gt;MbtH family NRPS accessory protein&lt;br&gt;Location: 843726 - 843523" locus_tag="CCZ28_RS03675" class="clusterblast-orf" id="dummy-1_h1_5_14"  />
</g>
<g id="a1_0015"  >
<polygon points="169,85 174,80 180,80 180,90 174,90 169,85 " style="fill:white; stroke-width:1; stroke:black; " description="&lt;b&gt;CCZ28_RS03670&lt;/b&gt;&lt;br&gt;ABC transporter substrate-binding protein&lt;br&gt;Location: 843442 - 842516" locus_tag="CCZ28_RS03670" class="clusterblast-orf" id="dummy-1_h1_5_15"  />
</g>
<g id="a1_0016"  >
<polygon points="180,85 185,80 202,80 202,90 185,90 180,85 " style="fill:#d8158a; stroke-width:1; stroke:black; " description="&lt;b&gt;CCZ28_RS03665&lt;/b&gt;&lt;br&gt;iron chelate uptake ABC transporter family permease subunit&lt;br&gt;Location: 842519 - 840567&lt;br&gt;&lt;br&gt;&lt;b&gt;BlastP hit with MCIC6FC_011818&lt;/b&gt;&lt;br&gt;Percentage identity: 40&lt;br&gt;Percentage coverage: 30&lt;br&gt;BLAST bit score: 147&lt;br&gt;E-value: 5.9e-33" locus_tag="CCZ28_RS03665" class="clusterblast-orf" id="dummy-1_h1_5_16"  />
</g>
<g id="a1_0017"  >
<polygon points="204,85 209,80 228,80 228,90 209,90 204,85 " style="fill:#b1d815; stroke-width:1; stroke:black; " description="&lt;b&gt;CCZ28_RS03660&lt;/b&gt;&lt;br&gt;TonB-dependent siderophore receptor&lt;br&gt;Location: 840401 - 838239&lt;br&gt;&lt;br&gt;&lt;b&gt;BlastP hit with MCIC6FC_011820&lt;/b&gt;&lt;br&gt;Percentage identity: 35&lt;br&gt;Percentage coverage: 74&lt;br&gt;BLAST bit score: 372&lt;br&gt;E-value: 1.6e-100" locus_tag="CCZ28_RS03660" class="clusterblast-orf" id="dummy-1_h1_5_17"  />
</g>
<g id="a1_0018"  >
<polygon points="230,85 235,80 246,80 246,90 235,90 230,85 " style="fill:white; stroke-width:1; stroke:black; " description="&lt;b&gt;CCZ28_RS03655&lt;/b&gt;&lt;br&gt;diaminobutyrate--2-oxoglutarate transaminase&lt;br&gt;Location: 838078 - 836693" locus_tag="CCZ28_RS03655" class="clusterblast-orf" id="dummy-1_h1_5_18"  />
</g>
<g id="a1_0019"  >
<polygon points="246,85 251,80 426,80 426,90 251,90 246,85 " style="fill:#3c15d8; stroke-width:1; stroke:black; " description="&lt;b&gt;CCZ28_RS03650&lt;/b&gt;&lt;br&gt;non-ribosomal peptide synthase/polyketide synthase&lt;br&gt;Location: 836703 - 820705&lt;br&gt;&lt;br&gt;&lt;b&gt;BlastP hit with MCIC6FC_011811&lt;/b&gt;&lt;br&gt;Percentage identity: 37&lt;br&gt;Percentage coverage: 73&lt;br&gt;BLAST bit score: 1373&lt;br&gt;E-value: 0.0&lt;br&gt;&lt;br&gt;&lt;b&gt;BlastP hit with MCIC6FC_011813&lt;/b&gt;&lt;br&gt;Percentage identity: 34&lt;br&gt;Percentage coverage: 93&lt;br&gt;BLAST bit score: 213&lt;br&gt;E-value: 5.1e-53&lt;br&gt;&lt;br&gt;&lt;b&gt;BlastP hit with MCIC6FC_011814&lt;/b&gt;&lt;br&gt;Percentage identity: 32&lt;br&gt;Percentage coverage: 116&lt;br&gt;BLAST bit score: 468&lt;br&gt;E-value: 3.2e-129" locus_tag="CCZ28_RS03650" class="clusterblast-orf" id="dummy-1_h1_5_19"  />
</g>
<g id="a1_0020"  >
<polygon points="426,85 431,80 534,80 534,90 431,90 426,85 " style="fill:#3c15d8; stroke-width:1; stroke:black; " description="&lt;b&gt;CCZ28_RS03645&lt;/b&gt;&lt;br&gt;amino acid adenylation domain-containing protein&lt;br&gt;Location: 820705 - 811166&lt;br&gt;&lt;br&gt;&lt;b&gt;BlastP hit with MCIC6FC_011811&lt;/b&gt;&lt;br&gt;Percentage identity: 34&lt;br&gt;Percentage coverage: 54&lt;br&gt;BLAST bit score: 891&lt;br&gt;E-value: 2.5e-256&lt;br&gt;&lt;br&gt;&lt;b&gt;BlastP hit with MCIC6FC_011815&lt;/b&gt;&lt;br&gt;Percentage identity: 41&lt;br&gt;Percentage coverage: 46&lt;br&gt;BLAST bit score: 682&lt;br&gt;E-value: 1.3e-193" locus_tag="CCZ28_RS03645" class="clusterblast-orf" id="dummy-1_h1_5_20"  />
</g>
<g id="a1_0021"  >
<polygon points="535,85 540,80 549,80 549,90 540,90 535,85 " style="fill:#3c15d8; stroke-width:1; stroke:black; " description="&lt;b&gt;CCZ28_RS03640&lt;/b&gt;&lt;br&gt;SidA/IucD/PvdA family monooxygenase&lt;br&gt;Location: 811093 - 809807&lt;br&gt;&lt;br&gt;&lt;b&gt;BlastP hit with MCIC6FC_011810&lt;/b&gt;&lt;br&gt;Percentage identity: 46&lt;br&gt;Percentage coverage: 50&lt;br&gt;BLAST bit score: 300&lt;br&gt;E-value: 3.6e-79" locus_tag="CCZ28_RS03640" class="clusterblast-orf" id="dummy-1_h1_5_21"  />
</g>
<g id="a1_0022"  >
<polygon points="551,85 556,80 570,80 570,90 556,90 551,85 " style="fill:#3c15d8; stroke-width:1; stroke:black; " description="&lt;b&gt;CCZ28_RS03635&lt;/b&gt;&lt;br&gt;multidrug ABC transporter permease/ATP-binding protein&lt;br&gt;Location: 809659 - 807995&lt;br&gt;&lt;br&gt;&lt;b&gt;BlastP hit with MCIC6FC_011816&lt;/b&gt;&lt;br&gt;Percentage identity: 43&lt;br&gt;Percentage coverage: 32&lt;br&gt;BLAST bit score: 211&lt;br&gt;E-value: 3.3e-52" locus_tag="CCZ28_RS03635" class="clusterblast-orf" id="dummy-1_h1_5_22"  />
</g>
<g id="a1_0023"  >
<polygon points="570,85 575,80 575,80 575,90 575,90 570,85 " style="fill:#b1d815; stroke-width:1; stroke:black; " description="&lt;b&gt;CCZ28_RS03630&lt;/b&gt;&lt;br&gt;sigma-70 family RNA polymerase sigma factor&lt;br&gt;Location: 807998 - 807486&lt;br&gt;&lt;br&gt;&lt;b&gt;BlastP hit with MCIC6FC_011820&lt;/b&gt;&lt;br&gt;Percentage identity: 39&lt;br&gt;Percentage coverage: 15&lt;br&gt;BLAST bit score: 121&lt;br&gt;E-value: 6.5e-25" locus_tag="CCZ28_RS03630" class="clusterblast-orf" id="dummy-1_h1_5_23"  />
</g>
<g id="a1_0024"  >
<polygon points="578,85 583,80 589,80 589,90 583,90 578,85 " style="fill:white; stroke-width:1; stroke:black; " description="&lt;b&gt;CCZ28_RS03625&lt;/b&gt;&lt;br&gt;LysR family transcriptional regulator&lt;br&gt;Location: 807225 - 806284" locus_tag="CCZ28_RS03625" class="clusterblast-orf" id="dummy-1_h1_5_24"  />
</g>
<g id="a1_0025"  >
<polygon points="593,90 605,90 610,85 605,80 593,80 593,90 " style="fill:#d81515; stroke-width:1; stroke:black; " description="&lt;b&gt;CCZ28_RS03620&lt;/b&gt;&lt;br&gt;ABC transporter permease subunit&lt;br&gt;Location: 805904 - 804384&lt;br&gt;&lt;br&gt;&lt;b&gt;BlastP hit with MCIC6FC_011803&lt;/b&gt;&lt;br&gt;Percentage identity: 35&lt;br&gt;Percentage coverage: 49&lt;br&gt;BLAST bit score: 193&lt;br&gt;E-value: 1.2e-46" locus_tag="CCZ28_RS03620" class="clusterblast-orf" id="dummy-1_h1_5_25"  />
</g>
<g id="a1_0026"  >
<polygon points="611,90 616,90 621,85 616,80 611,80 611,90 " style="fill:white; stroke-width:1; stroke:black; " description="&lt;b&gt;CCZ28_RS03615&lt;/b&gt;&lt;br&gt;phytanoyl-CoA dioxygenase family protein&lt;br&gt;Location: 804353 - 803481" locus_tag="CCZ28_RS03615" class="clusterblast-orf" id="dummy-1_h1_5_26"  />
</g>
<g id="a1_0027"  >
<polygon points="621,90 625,90 630,85 625,80 621,80 621,90 " style="fill:white; stroke-width:1; stroke:black; " description="&lt;b&gt;CCZ28_RS03610&lt;/b&gt;&lt;br&gt;transporter substrate-binding domain-containing protein&lt;br&gt;Location: 803451 - 802612" locus_tag="CCZ28_RS03610" class="clusterblast-orf" id="dummy-1_h1_5_27"  />
</g>
<g id="a1_0028"  >
<polygon points="631,90 634,90 639,85 634,80 631,80 631,90 " style="fill:white; stroke-width:1; stroke:black; " description="&lt;b&gt;CCZ28_RS03605&lt;/b&gt;&lt;br&gt;hypothetical protein&lt;br&gt;Location: 802560 - 801829" locus_tag="CCZ28_RS03605" class="clusterblast-orf" id="dummy-1_h1_5_28"  />
</g>
<g id="a1_0029"  >
<polygon points="642,90 651,90 656,85 651,80 642,80 642,90 " style="fill:white; stroke-width:1; stroke:black; " description="&lt;b&gt;CCZ28_RS03600&lt;/b&gt;&lt;br&gt;NAD(P)-binding domain-containing protein&lt;br&gt;Location: 801606 - 800311" locus_tag="CCZ28_RS03600" class="clusterblast-orf" id="dummy-1_h1_5_29"  />
</g>
<g id="a1_0030"  >
<polygon points="658,90 662,85 658,80 658,90 " style="fill:white; stroke-width:1; stroke:black; " description="&lt;b&gt;CCZ28_RS03595&lt;/b&gt;&lt;br&gt;RidA family protein&lt;br&gt;Location: 800210 - 799794" locus_tag="CCZ28_RS03595" class="clusterblast-orf" id="dummy-1_h1_5_30"  />
</g>
<g id="a1_0031"  >
<polygon points="662,90 665,90 670,85 665,80 662,80 662,90 " style="fill:white; stroke-width:1; stroke:black; " description="&lt;b&gt;CCZ28_RS03590&lt;/b&gt;&lt;br&gt;DUF1028 domain-containing protein&lt;br&gt;Location: 799785 - 799108" locus_tag="CCZ28_RS03590" class="clusterblast-orf" id="dummy-1_h1_5_31"  />
</g>
<g id="a1_0032"  >
<polygon points="670,90 678,90 683,85 678,80 670,80 670,90 " style="fill:white; stroke-width:1; stroke:black; " description="&lt;b&gt;CCZ28_RS03585&lt;/b&gt;&lt;br&gt;acetylornithine deacetylase&lt;br&gt;Location: 799111 - 797960" locus_tag="CCZ28_RS03585" class="clusterblast-orf" id="dummy-1_h1_5_32"  />
</g>
<g id="a1_0033"  >
<polygon points="683,85 688,80 697,80 697,90 688,90 683,85 " style="fill:white; stroke-width:1; stroke:black; " description="&lt;b&gt;CCZ28_RS03580&lt;/b&gt;&lt;br&gt;aminoacetone oxidase family FAD-binding enzyme&lt;br&gt;Location: 797942 - 796755" locus_tag="CCZ28_RS03580" class="clusterblast-orf" id="dummy-1_h1_5_33"  />
</g>
<g id="a1_0034"  >
<polygon points="699,90 719,90 724,85 719,80 699,80 699,90 " style="fill:white; stroke-width:1; stroke:black; " description="&lt;b&gt;CCZ28_RS03575&lt;/b&gt;&lt;br&gt;OsmC domain/YcaO domain-containing protein&lt;br&gt;Location: 796556 - 794283" locus_tag="CCZ28_RS03575" class="clusterblast-orf" id="dummy-1_h1_5_34"  />
</g>
<g id="a1_0035"  >
<polygon points="727,90 735,90 740,85 735,80 727,80 727,90 " style="fill:white; stroke-width:1; stroke:black; " description="&lt;b&gt;CCZ28_RS03570&lt;/b&gt;&lt;br&gt;diguanylate cyclase&lt;br&gt;Location: 794082 - 792937" locus_tag="CCZ28_RS03570" class="clusterblast-orf" id="dummy-1_h1_5_35"  />
</g>
<g id="a1_0036"  >
<polygon points="740,85 744,80 744,90 740,85 " style="fill:white; stroke-width:1; stroke:black; " description="&lt;b&gt;CCZ28_RS03565&lt;/b&gt;&lt;br&gt;hypothetical protein&lt;br&gt;Location: 792940 - 792533" locus_tag="CCZ28_RS03565" class="clusterblast-orf" id="dummy-1_h1_5_36"  />
</g>
<g id="a1_0037"  >
<polygon points="745,85 750,80 758,80 758,90 750,90 745,85 " style="fill:white; stroke-width:1; stroke:black; " description="&lt;b&gt;CCZ28_RS03560&lt;/b&gt;&lt;br&gt;glycerate kinase&lt;br&gt;Location: 792433 - 791297" locus_tag="CCZ28_RS03560" class="clusterblast-orf" id="dummy-1_h1_5_37"  />
</g>
</svg>
