<svg xmlns="http://www.w3.org/2000/svg" xmlns:xlink="http://www.w3.org/1999/xlink" version="1.1" x="0" y="0" height="230" width="800" viewBox="0 0 800 230" preserveAspectRatio="none"  >
<g label="Query sequence" class="clusterblast-cluster"  >
<text x="5" y="20" class="clusterblast-acc"  >
Query sequence</text>
<line x1="10" y1="35" x2="778.0" y2="35" style="stroke-width:1; stroke:grey; "  />
<polygon points="105,40 129,40 134,35 129,30 105,30 105,40 " style="fill:#d81515; stroke-width:1; stroke:black; " description="&lt;b&gt;MCIC6FC_019439&lt;/b&gt;&lt;br&gt;hypothetical protein&lt;br&gt;Location: 217 - 556" locus_tag="MCIC6FC_019439" class="clusterblast-orf" id="dummy-1_q0_0_all"  />
<polygon points="136,40 314,40 319,35 314,30 136,30 136,40 " style="fill:#15d863; stroke-width:1; stroke:black; " description="&lt;b&gt;MCIC6FC_019440&lt;/b&gt;&lt;br&gt;hypothetical protein&lt;br&gt;Location: 579 - 2695" locus_tag="MCIC6FC_019440" class="clusterblast-orf" id="dummy-1_q1_0_all"  />
<polygon points="321,35 326,30 399,30 399,40 326,40 321,35 " style="fill:#1563d8; stroke-width:1; stroke:black; " description="&lt;b&gt;MCIC6FC_019441&lt;/b&gt;&lt;br&gt;hypothetical protein&lt;br&gt;Location: 2711 - 3611" locus_tag="MCIC6FC_019441" class="clusterblast-orf" id="dummy-1_q2_0_all"  />
<polygon points="408,40 522,40 527,35 522,30 408,30 408,40 " style="fill:#b115d8; stroke-width:1; stroke:black; " description="&lt;b&gt;MCIC6FC_019442&lt;/b&gt;&lt;br&gt;hypothetical protein&lt;br&gt;Location: 3723 - 5091" locus_tag="MCIC6FC_019442" class="clusterblast-orf" id="dummy-1_q3_0_all"  />
<polygon points="536,40 671,40 676,35 671,30 536,30 536,40 " style="fill:#b1d815; stroke-width:1; stroke:black; " description="&lt;b&gt;MCIC6FC_019443&lt;/b&gt;&lt;br&gt;hypothetical protein&lt;br&gt;Location: 5197 - 6811" locus_tag="MCIC6FC_019443" class="clusterblast-orf" id="dummy-1_q4_0_all"  />
</g>
<g label="NZ_KN639173" description="NZ_KN639173 (1211885-1222740): Pseudomonas fluorescens strain PA3G8 Scaffold1... (63% of genes show similarity), bacteriocin" class="clusterblast-cluster"  >
<text x="5" y="70" class="clusterblast-acc"  >
<a xlink:href="https://antismash-db.secondarymetabolites.org/area.html?record=NZ_KN639173&amp;start=1211885&amp;end=1222740" target="_blank">NZ_KN639173 (1211885-1222740)</a>: Pseudomonas fluorescens strain PA3G8 Scaffold1... (63% of genes show similarity), bacteriocin</text>
<line x1="10" y1="85" x2="778.0" y2="85" style="stroke-width:1; stroke:grey; "  />
</g>
<g id="a1_000"  >
<polygon points="0,90 74,90 79,85 74,80 0,80 0,90 " style="fill:white; stroke-width:1; stroke:black; " description="&lt;b&gt;AW34_RS05740&lt;/b&gt;&lt;br&gt;high-affinity branched-chain amino acid ABC transporter permease LivH&lt;br&gt;Location: 1222011 - 1221088" locus_tag="AW34_RS05740" class="clusterblast-orf" id="dummy-1_h1_10_0"  />
</g>
<g id="a1_001"  >
<polygon points="79,90 183,90 188,85 183,80 79,80 79,90 " style="fill:white; stroke-width:1; stroke:black; " description="&lt;b&gt;AW34_RS05735&lt;/b&gt;&lt;br&gt;high-affinity branched-chain amino acid ABC transporter permease LivM&lt;br&gt;Location: 1221091 - 1219835" locus_tag="AW34_RS05735" class="clusterblast-orf" id="dummy-1_h1_10_1"  />
</g>
<g id="a1_002"  >
<polygon points="188,90 249,90 254,85 249,80 188,80 188,90 " style="fill:white; stroke-width:1; stroke:black; " description="&lt;b&gt;AW34_RS05730&lt;/b&gt;&lt;br&gt;ABC transporter ATP-binding protein&lt;br&gt;Location: 1219838 - 1219071" locus_tag="AW34_RS05730" class="clusterblast-orf" id="dummy-1_h1_10_2"  />
</g>
<g id="a1_003"  >
<polygon points="254,90 310,90 315,85 310,80 254,80 254,90 " style="fill:white; stroke-width:1; stroke:black; " description="&lt;b&gt;AW34_RS05725&lt;/b&gt;&lt;br&gt;ABC transporter ATP-binding protein&lt;br&gt;Location: 1219070 - 1218369" locus_tag="AW34_RS05725" class="clusterblast-orf" id="dummy-1_h1_10_3"  />
</g>
<g id="a1_004"  >
<polygon points="341,90 362,90 367,85 362,80 341,80 341,90 " style="fill:#d81515; stroke-width:1; stroke:black; " description="&lt;b&gt;AW34_RS05720&lt;/b&gt;&lt;br&gt;DUF2282 domain-containing protein&lt;br&gt;Location: 1218071 - 1217766&lt;br&gt;&lt;br&gt;&lt;b&gt;BlastP hit with MCIC6FC_019439&lt;/b&gt;&lt;br&gt;Percentage identity: 73&lt;br&gt;Percentage coverage: 90&lt;br&gt;BLAST bit score: 126&lt;br&gt;E-value: 1.4e-27" locus_tag="AW34_RS05720" class="clusterblast-orf" id="dummy-1_h1_10_4"  />
</g>
<g id="a1_005"  >
<polygon points="370,90 439,90 444,85 439,80 370,80 370,90 " style="fill:#15d863; stroke-width:1; stroke:black; " description="&lt;b&gt;AW34_RS05715&lt;/b&gt;&lt;br&gt;DUF692 domain-containing protein&lt;br&gt;Location: 1217740 - 1216886&lt;br&gt;&lt;br&gt;&lt;b&gt;BlastP hit with MCIC6FC_019440&lt;/b&gt;&lt;br&gt;Percentage identity: 76&lt;br&gt;Percentage coverage: 43&lt;br&gt;BLAST bit score: 404&lt;br&gt;E-value: 1.5e-110" locus_tag="AW34_RS05715" class="clusterblast-orf" id="dummy-1_h1_10_5"  />
</g>
<g id="a1_006"  >
<polygon points="443,90 504,90 509,85 504,80 443,80 443,90 " style="fill:#15d863; stroke-width:1; stroke:black; " description="&lt;b&gt;AW34_RS05710&lt;/b&gt;&lt;br&gt;DUF2063 domain-containing protein&lt;br&gt;Location: 1216889 - 1216131&lt;br&gt;&lt;br&gt;&lt;b&gt;BlastP hit with MCIC6FC_019440&lt;/b&gt;&lt;br&gt;Percentage identity: 60&lt;br&gt;Percentage coverage: 38&lt;br&gt;BLAST bit score: 272&lt;br&gt;E-value: 8.6e-71" locus_tag="AW34_RS05710" class="clusterblast-orf" id="dummy-1_h1_10_6"  />
</g>
<g id="a1_007"  >
<polygon points="509,90 546,90 551,85 546,80 509,80 509,90 " style="fill:#15d863; stroke-width:1; stroke:black; " description="&lt;b&gt;AW34_RS05705&lt;/b&gt;&lt;br&gt;DoxX family protein&lt;br&gt;Location: 1216134 - 1215649&lt;br&gt;&lt;br&gt;&lt;b&gt;BlastP hit with MCIC6FC_019440&lt;/b&gt;&lt;br&gt;Percentage identity: 79&lt;br&gt;Percentage coverage: 17&lt;br&gt;BLAST bit score: 171&lt;br&gt;E-value: 3.5e-40" locus_tag="AW34_RS05705" class="clusterblast-orf" id="dummy-1_h1_10_7"  />
</g>
<g id="a1_008"  >
<polygon points="567,85 572,80 646,80 646,90 572,90 567,85 " style="fill:#1563d8; stroke-width:1; stroke:black; " description="&lt;b&gt;AW34_RS05700&lt;/b&gt;&lt;br&gt;LysR family transcriptional regulator&lt;br&gt;Location: 1215458 - 1214544&lt;br&gt;&lt;br&gt;&lt;b&gt;BlastP hit with MCIC6FC_019441&lt;/b&gt;&lt;br&gt;Percentage identity: 88&lt;br&gt;Percentage coverage: 100&lt;br&gt;BLAST bit score: 528&lt;br&gt;E-value: 4.2e-148" locus_tag="AW34_RS05700" class="clusterblast-orf" id="dummy-1_h1_10_8"  />
</g>
<g id="a1_009"  >
<polygon points="656,90 703,90 708,85 703,80 656,80 656,90 " style="fill:#b115d8; stroke-width:1; stroke:black; " description="&lt;b&gt;AW34_RS05695&lt;/b&gt;&lt;br&gt;short chain dehydrogenase&lt;br&gt;Location: 1214437 - 1213838&lt;br&gt;&lt;br&gt;&lt;b&gt;BlastP hit with MCIC6FC_019442&lt;/b&gt;&lt;br&gt;Percentage identity: 81&lt;br&gt;Percentage coverage: 45&lt;br&gt;BLAST bit score: 320&lt;br&gt;E-value: 3.2e-85" locus_tag="AW34_RS05695" class="clusterblast-orf" id="dummy-1_h1_10_9"  />
</g>
<g id="a1_0010"  >
<polygon points="722,90 775,90 780,85 775,80 722,80 722,90 " style="fill:#b115d8; stroke-width:1; stroke:black; " description="&lt;b&gt;AW34_RS05690&lt;/b&gt;&lt;br&gt;membrane protein&lt;br&gt;Location: 1213674 - 1213009&lt;br&gt;&lt;br&gt;&lt;b&gt;BlastP hit with MCIC6FC_019442&lt;/b&gt;&lt;br&gt;Percentage identity: 69&lt;br&gt;Percentage coverage: 52&lt;br&gt;BLAST bit score: 318&lt;br&gt;E-value: 1.2e-84" locus_tag="AW34_RS05690" class="clusterblast-orf" id="dummy-1_h1_10_10"  />
</g>
</svg>
