<svg xmlns="http://www.w3.org/2000/svg" xmlns:xlink="http://www.w3.org/1999/xlink" version="1.1" x="0" y="0" height="230" width="800" viewBox="0 0 800 230" preserveAspectRatio="none"  >
<g label="Query sequence" class="clusterblast-cluster"  >
<text x="5" y="20" class="clusterblast-acc"  >
Query sequence</text>
<line x1="10" y1="35" x2="778.0" y2="35" style="stroke-width:1; stroke:grey; "  />
<polygon points="105,40 312,40 317,35 312,30 105,30 105,40 " style="fill:#d81515; stroke-width:1; stroke:black; " description="&lt;b&gt;MCIC6FC_022620&lt;/b&gt;&lt;br&gt;hypothetical protein&lt;br&gt;Location: 222 - 2660" locus_tag="MCIC6FC_022620" class="clusterblast-orf" id="dummy-1_q0_0_all"  />
<polygon points="318,35 323,30 398,30 398,40 323,40 318,35 " style="fill:#77d815; stroke-width:1; stroke:black; " description="&lt;b&gt;MCIC6FC_022621&lt;/b&gt;&lt;br&gt;hypothetical protein&lt;br&gt;Location: 2670 - 3585" locus_tag="MCIC6FC_022621" class="clusterblast-orf" id="dummy-1_q1_0_all"  />
<polygon points="407,40 521,40 526,35 521,30 407,30 407,40 " style="fill:#15d8d8; stroke-width:1; stroke:black; " description="&lt;b&gt;MCIC6FC_022622&lt;/b&gt;&lt;br&gt;hypothetical protein&lt;br&gt;Location: 3688 - 5057" locus_tag="MCIC6FC_022622" class="clusterblast-orf" id="dummy-1_q2_0_all"  />
<polygon points="535,40 670,40 675,35 670,30 535,30 535,40 " style="fill:#7715d8; stroke-width:1; stroke:black; " description="&lt;b&gt;MCIC6FC_022623&lt;/b&gt;&lt;br&gt;hypothetical protein&lt;br&gt;Location: 5163 - 6777" locus_tag="MCIC6FC_022623" class="clusterblast-orf" id="dummy-1_q3_0_all"  />
</g>
<g label="NZ_LT629760" description="NZ_LT629760 (2852873-2863752): Pseudomonas trivialis strain LMG 21464 chromos... (63% of genes show similarity), bacteriocin" class="clusterblast-cluster"  >
<text x="5" y="70" class="clusterblast-acc"  >
<a xlink:href="https://antismash-db.secondarymetabolites.org/area.html?record=NZ_LT629760&amp;start=2852873&amp;end=2863752" target="_blank">NZ_LT629760 (2852873-2863752)</a>: Pseudomonas trivialis strain LMG 21464 chromos... (63% of genes show similarity), bacteriocin</text>
<line x1="10" y1="85" x2="778.0" y2="85" style="stroke-width:1; stroke:grey; "  />
</g>
<g id="a1_000"  >
<polygon points="0,90 75,90 80,85 75,80 0,80 0,90 " style="fill:white; stroke-width:1; stroke:black; " description="&lt;b&gt;BLU21_RS13145&lt;/b&gt;&lt;br&gt;high-affinity branched-chain amino acid ABC transporter permease LivH&lt;br&gt;Location: 2862879 - 2861956" locus_tag="BLU21_RS13145" class="clusterblast-orf" id="dummy-1_h1_4_0"  />
</g>
<g id="a1_001"  >
<polygon points="79,90 183,90 188,85 183,80 79,80 79,90 " style="fill:white; stroke-width:1; stroke:black; " description="&lt;b&gt;BLU21_RS13140&lt;/b&gt;&lt;br&gt;high-affinity branched-chain amino acid ABC transporter permease LivM&lt;br&gt;Location: 2861959 - 2860706" locus_tag="BLU21_RS13140" class="clusterblast-orf" id="dummy-1_h1_4_1"  />
</g>
<g id="a1_002"  >
<polygon points="188,90 250,90 255,85 250,80 188,80 188,90 " style="fill:white; stroke-width:1; stroke:black; " description="&lt;b&gt;BLU21_RS13135&lt;/b&gt;&lt;br&gt;high-affinity branched-chain amino acid ABC transporter ATP-binding protein LivG&lt;br&gt;Location: 2860709 - 2859942" locus_tag="BLU21_RS13135" class="clusterblast-orf" id="dummy-1_h1_4_2"  />
</g>
<g id="a1_003"  >
<polygon points="255,90 311,90 316,85 311,80 255,80 255,90 " style="fill:white; stroke-width:1; stroke:black; " description="&lt;b&gt;BLU21_RS13130&lt;/b&gt;&lt;br&gt;ABC transporter ATP-binding protein&lt;br&gt;Location: 2859940 - 2859239" locus_tag="BLU21_RS13130" class="clusterblast-orf" id="dummy-1_h1_4_3"  />
</g>
<g id="a1_004"  >
<polygon points="332,90 351,90 356,85 351,80 332,80 332,90 " style="fill:#d81515; stroke-width:1; stroke:black; " description="&lt;b&gt;BLU21_RS13125&lt;/b&gt;&lt;br&gt;DUF2282 domain-containing protein&lt;br&gt;Location: 2859058 - 2858774&lt;br&gt;&lt;br&gt;&lt;b&gt;BlastP hit with MCIC6FC_022620&lt;/b&gt;&lt;br&gt;Percentage identity: 74&lt;br&gt;Percentage coverage: 10&lt;br&gt;BLAST bit score: 94&lt;br&gt;E-value: 6.3e-17" locus_tag="BLU21_RS13125" class="clusterblast-orf" id="dummy-1_h1_4_4"  />
</g>
<g id="a1_005"  >
<polygon points="358,90 430,90 435,85 430,80 358,80 358,90 " style="fill:#d81515; stroke-width:1; stroke:black; " description="&lt;b&gt;BLU21_RS13120&lt;/b&gt;&lt;br&gt;DUF692 domain-containing protein&lt;br&gt;Location: 2858752 - 2857874&lt;br&gt;&lt;br&gt;&lt;b&gt;BlastP hit with MCIC6FC_022620&lt;/b&gt;&lt;br&gt;Percentage identity: 89&lt;br&gt;Percentage coverage: 37&lt;br&gt;BLAST bit score: 504&lt;br&gt;E-value: 1.6e-140" locus_tag="BLU21_RS13120" class="clusterblast-orf" id="dummy-1_h1_4_5"  />
</g>
<g id="a1_006"  >
<polygon points="434,90 495,90 500,85 495,80 434,80 434,90 " style="fill:#d81515; stroke-width:1; stroke:black; " description="&lt;b&gt;BLU21_RS13115&lt;/b&gt;&lt;br&gt;putative DNA-binding domain-containing protein&lt;br&gt;Location: 2857877 - 2857122&lt;br&gt;&lt;br&gt;&lt;b&gt;BlastP hit with MCIC6FC_022620&lt;/b&gt;&lt;br&gt;Percentage identity: 72&lt;br&gt;Percentage coverage: 33&lt;br&gt;BLAST bit score: 335&lt;br&gt;E-value: 1.6e-89" locus_tag="BLU21_RS13115" class="clusterblast-orf" id="dummy-1_h1_4_6"  />
</g>
<g id="a1_007"  >
<polygon points="500,90 537,90 542,85 537,80 500,80 500,90 " style="fill:#d81515; stroke-width:1; stroke:black; " description="&lt;b&gt;BLU21_RS13110&lt;/b&gt;&lt;br&gt;DoxX family protein&lt;br&gt;Location: 2857125 - 2856640&lt;br&gt;&lt;br&gt;&lt;b&gt;BlastP hit with MCIC6FC_022620&lt;/b&gt;&lt;br&gt;Percentage identity: 85&lt;br&gt;Percentage coverage: 19&lt;br&gt;BLAST bit score: 231&lt;br&gt;E-value: 3.3e-58" locus_tag="BLU21_RS13110" class="clusterblast-orf" id="dummy-1_h1_4_7"  />
</g>
<g id="a1_008"  >
<polygon points="542,85 547,80 556,80 556,90 547,90 542,85 " style="fill:#77d815; stroke-width:1; stroke:black; " description="&lt;b&gt;BLU21_RS13105&lt;/b&gt;&lt;br&gt;LysR family transcriptional regulator&lt;br&gt;Location: 2856643 - 2856473&lt;br&gt;&lt;br&gt;&lt;b&gt;BlastP hit with MCIC6FC_022621&lt;/b&gt;&lt;br&gt;Percentage identity: 91&lt;br&gt;Percentage coverage: 18&lt;br&gt;BLAST bit score: 114&lt;br&gt;E-value: 1.5e-23" locus_tag="BLU21_RS13105" class="clusterblast-orf" id="dummy-1_h1_4_8"  />
</g>
<g id="a1_009"  >
<polygon points="572,90 625,90 630,85 625,80 572,80 572,90 " style="fill:#15d8d8; stroke-width:1; stroke:black; " description="&lt;b&gt;BLU21_RS13100&lt;/b&gt;&lt;br&gt;hypothetical protein&lt;br&gt;Location: 2856296 - 2855625&lt;br&gt;&lt;br&gt;&lt;b&gt;BlastP hit with MCIC6FC_022622&lt;/b&gt;&lt;br&gt;Percentage identity: 92&lt;br&gt;Percentage coverage: 51&lt;br&gt;BLAST bit score: 406&lt;br&gt;E-value: 2.6e-111" locus_tag="BLU21_RS13100" class="clusterblast-orf" id="dummy-1_h1_4_9"  />
</g>
<g id="a1_0010"  >
<polygon points="639,90 775,90 780,85 775,80 639,80 639,90 " style="fill:#7715d8; stroke-width:1; stroke:black; " description="&lt;b&gt;BLU21_RS13095&lt;/b&gt;&lt;br&gt;NAD(P)/FAD-dependent oxidoreductase&lt;br&gt;Location: 2855518 - 2853905&lt;br&gt;&lt;br&gt;&lt;b&gt;BlastP hit with MCIC6FC_022623&lt;/b&gt;&lt;br&gt;Percentage identity: 97&lt;br&gt;Percentage coverage: 100&lt;br&gt;BLAST bit score: 1045&lt;br&gt;E-value: 1.4e-303" locus_tag="BLU21_RS13095" class="clusterblast-orf" id="dummy-1_h1_4_10"  />
</g>
</svg>
