<svg xmlns="http://www.w3.org/2000/svg" xmlns:xlink="http://www.w3.org/1999/xlink" version="1.1" x="0" y="0" height="230" width="800" viewBox="0 0 800 230" preserveAspectRatio="none"  >
<g label="Query sequence" class="clusterblast-cluster"  >
<text x="5" y="20" class="clusterblast-acc"  >
Query sequence</text>
<line x1="10" y1="35" x2="778.0" y2="35" style="stroke-width:1; stroke:grey; "  />
<polygon points="0,35 5,30 51,30 51,40 5,40 0,35 " style="fill:#d81515; stroke-width:1; stroke:black; " description="&lt;b&gt;MCIC6FC_014867&lt;/b&gt;&lt;br&gt;hypothetical protein&lt;br&gt;Location: 155478 - 157092" locus_tag="MCIC6FC_014867" class="clusterblast-orf" id="dummy-1_q0_0_all"  />
<polygon points="55,35 60,30 76,30 76,40 60,40 55,35 " style="fill:#15d815; stroke-width:1; stroke:black; " description="&lt;b&gt;MCIC6FC_014868&lt;/b&gt;&lt;br&gt;hypothetical protein&lt;br&gt;Location: 157205 - 157883" locus_tag="MCIC6FC_014868" class="clusterblast-orf" id="dummy-1_q1_0_all"  />
<polygon points="80,35 85,30 99,30 99,40 85,40 80,35 " style="fill:#1515d8; stroke-width:1; stroke:black; " description="&lt;b&gt;MCIC6FC_014869&lt;/b&gt;&lt;br&gt;hypothetical protein&lt;br&gt;Location: 157994 - 158594" locus_tag="MCIC6FC_014869" class="clusterblast-orf" id="dummy-1_q2_0_all"  />
<polygon points="102,40 126,40 131,35 126,30 102,30 102,40 " style="fill:#d815d8; stroke-width:1; stroke:black; " description="&lt;b&gt;MCIC6FC_014870&lt;/b&gt;&lt;br&gt;hypothetical protein&lt;br&gt;Location: 158696 - 159606" locus_tag="MCIC6FC_014870" class="clusterblast-orf" id="dummy-1_q3_0_all"  />
<polygon points="133,35 138,30 215,30 215,40 138,40 133,35 " style="fill:#d8d815; stroke-width:1; stroke:black; " description="&lt;b&gt;MCIC6FC_014871&lt;/b&gt;&lt;br&gt;hypothetical protein&lt;br&gt;Location: 159656 - 162249" locus_tag="MCIC6FC_014871" class="clusterblast-orf" id="dummy-1_q4_0_all"  />
<polygon points="217,35 222,30 333,30 333,40 222,40 217,35 " style="fill:#15d8d8; stroke-width:1; stroke:black; " description="&lt;b&gt;MCIC6FC_014872&lt;/b&gt;&lt;br&gt;hypothetical protein&lt;br&gt;Location: 162308 - 165951" locus_tag="MCIC6FC_014872" class="clusterblast-orf" id="dummy-1_q5_0_all"  />
<polygon points="335,35 340,30 376,30 376,40 340,40 335,35 " style="fill:white; stroke-width:1; stroke:black; " description="&lt;b&gt;MCIC6FC_014873&lt;/b&gt;&lt;br&gt;hypothetical protein&lt;br&gt;Location: 165993 - 167309" locus_tag="MCIC6FC_014873" class="clusterblast-orf" id="dummy-1_q6_0_all"  />
<polygon points="379,40 392,40 397,35 392,30 379,30 379,40 " style="fill:white; stroke-width:1; stroke:black; " description="&lt;b&gt;MCIC6FC_014874&lt;/b&gt;&lt;br&gt;hypothetical protein&lt;br&gt;Location: 167398 - 167954" locus_tag="MCIC6FC_014874" class="clusterblast-orf" id="dummy-1_q7_0_all"  />
<polygon points="406,35 411,30 475,30 475,40 411,40 406,35 " style="fill:white; stroke-width:1; stroke:black; " description="&lt;b&gt;MCIC6FC_014875&lt;/b&gt;&lt;br&gt;hypothetical protein&lt;br&gt;Location: 168228 - 170412" locus_tag="MCIC6FC_014875" class="clusterblast-orf" id="dummy-1_q8_0_all"  />
<polygon points="482,40 494,40 499,35 494,30 482,30 482,40 " style="fill:white; stroke-width:1; stroke:black; " description="&lt;b&gt;MCIC6FC_014876&lt;/b&gt;&lt;br&gt;hypothetical protein&lt;br&gt;Location: 170613 - 171161" locus_tag="MCIC6FC_014876" class="clusterblast-orf" id="dummy-1_q9_0_all"  />
<polygon points="500,35 505,30 568,30 568,40 505,40 500,35 " style="fill:white; stroke-width:1; stroke:black; " description="&lt;b&gt;MCIC6FC_014877&lt;/b&gt;&lt;br&gt;hypothetical protein&lt;br&gt;Location: 171182 - 173331" locus_tag="MCIC6FC_014877" class="clusterblast-orf" id="dummy-1_q10_0_all"  />
<polygon points="585,40 633,40 638,35 633,30 585,30 585,40 " style="fill:white; stroke-width:1; stroke:black; " description="&lt;b&gt;MCIC6FC_014878&lt;/b&gt;&lt;br&gt;hypothetical protein&lt;br&gt;Location: 173853 - 175521" locus_tag="MCIC6FC_014878" class="clusterblast-orf" id="dummy-1_q11_0_all"  />
<polygon points="641,35 646,30 732,30 732,40 646,40 641,35 " style="fill:white; stroke-width:1; stroke:black; " description="&lt;b&gt;MCIC6FC_014879&lt;/b&gt;&lt;br&gt;hypothetical protein&lt;br&gt;Location: 175617 - 178467" locus_tag="MCIC6FC_014879" class="clusterblast-orf" id="dummy-1_q12_0_all"  />
<polygon points="739,40 745,40 750,35 745,30 739,30 739,40 " style="fill:white; stroke-width:1; stroke:black; " description="&lt;b&gt;MCIC6FC_014880&lt;/b&gt;&lt;br&gt;hypothetical protein&lt;br&gt;Location: 178685 - 179027" locus_tag="MCIC6FC_014880" class="clusterblast-orf" id="dummy-1_q13_0_all"  />
<polygon points="751,35 756,30 780,30 780,40 756,40 751,35 " style="fill:white; stroke-width:1; stroke:black; " description="&lt;b&gt;MCIC6FC_014881&lt;/b&gt;&lt;br&gt;hypothetical protein&lt;br&gt;Location: 179062 - 179977" locus_tag="MCIC6FC_014881" class="clusterblast-orf" id="dummy-1_q14_0_all"  />
</g>
<g label="NZ_LT629777" description="NZ_LT629777 (81225-92119): Pseudomonas asplenii strain ATCC 23835 chromosome I (90% of genes show similarity), bacteriocin" class="clusterblast-cluster"  >
<text x="5" y="70" class="clusterblast-acc"  >
<a xlink:href="https://antismash-db.secondarymetabolites.org/area.html?record=NZ_LT629777&amp;start=81225&amp;end=92119" target="_blank">NZ_LT629777 (81225-92119)</a>: Pseudomonas asplenii strain ATCC 23835 chromosome I (90% of genes show similarity), bacteriocin</text>
<line x1="10" y1="85" x2="778.0" y2="85" style="stroke-width:1; stroke:grey; "  />
</g>
<g id="a1_000"  >
<polygon points="231,85 236,80 282,80 282,90 236,90 231,85 " style="fill:#d81515; stroke-width:1; stroke:black; " description="&lt;b&gt;BLU37_RS00445&lt;/b&gt;&lt;br&gt;NAD(P)/FAD-dependent oxidoreductase&lt;br&gt;Location: 92073 - 90460&lt;br&gt;&lt;br&gt;&lt;b&gt;BlastP hit with MCIC6FC_014867&lt;/b&gt;&lt;br&gt;Percentage identity: 91&lt;br&gt;Percentage coverage: 100&lt;br&gt;BLAST bit score: 982&lt;br&gt;E-value: 1.4e-284" locus_tag="BLU37_RS00445" class="clusterblast-orf" id="dummy-1_h1_5_0"  />
</g>
<g id="a1_001"  >
<polygon points="286,85 291,80 307,80 307,90 291,90 286,85 " style="fill:#15d815; stroke-width:1; stroke:black; " description="&lt;b&gt;BLU37_RS00440&lt;/b&gt;&lt;br&gt;hypothetical protein&lt;br&gt;Location: 90350 - 89679&lt;br&gt;&lt;br&gt;&lt;b&gt;BlastP hit with MCIC6FC_014868&lt;/b&gt;&lt;br&gt;Percentage identity: 62&lt;br&gt;Percentage coverage: 101&lt;br&gt;BLAST bit score: 279&lt;br&gt;E-value: 4.3e-73" locus_tag="BLU37_RS00440" class="clusterblast-orf" id="dummy-1_h1_5_1"  />
</g>
<g id="a1_002"  >
<polygon points="313,85 318,80 332,80 332,90 318,90 313,85 " style="fill:#1515d8; stroke-width:1; stroke:black; " description="&lt;b&gt;BLU37_RS00435&lt;/b&gt;&lt;br&gt;short chain dehydrogenase&lt;br&gt;Location: 89498 - 88899&lt;br&gt;&lt;br&gt;&lt;b&gt;BlastP hit with MCIC6FC_014869&lt;/b&gt;&lt;br&gt;Percentage identity: 78&lt;br&gt;Percentage coverage: 100&lt;br&gt;BLAST bit score: 314&lt;br&gt;E-value: 6.3e-84" locus_tag="BLU37_RS00435" class="clusterblast-orf" id="dummy-1_h1_5_2"  />
</g>
<g id="a1_003"  >
<polygon points="335,90 359,90 364,85 359,80 335,80 335,90 " style="fill:#d815d8; stroke-width:1; stroke:black; " description="&lt;b&gt;BLU37_RS00430&lt;/b&gt;&lt;br&gt;LysR family transcriptional regulator&lt;br&gt;Location: 88792 - 87878&lt;br&gt;&lt;br&gt;&lt;b&gt;BlastP hit with MCIC6FC_014870&lt;/b&gt;&lt;br&gt;Percentage identity: 81&lt;br&gt;Percentage coverage: 103&lt;br&gt;BLAST bit score: 483&lt;br&gt;E-value: 1.5e-134" locus_tag="BLU37_RS00430" class="clusterblast-orf" id="dummy-1_h1_5_3"  />
</g>
<g id="a1_004"  >
<polygon points="364,85 369,80 389,80 389,90 369,90 364,85 " style="fill:#d8d815; stroke-width:1; stroke:black; " description="&lt;b&gt;BLU37_RS00425&lt;/b&gt;&lt;br&gt;putative DNA-binding domain-containing protein&lt;br&gt;Location: 87877 - 87116&lt;br&gt;&lt;br&gt;&lt;b&gt;BlastP hit with MCIC6FC_014871&lt;/b&gt;&lt;br&gt;Percentage identity: 51&lt;br&gt;Percentage coverage: 31&lt;br&gt;BLAST bit score: 228&lt;br&gt;E-value: 1.8e-57" locus_tag="BLU37_RS00425" class="clusterblast-orf" id="dummy-1_h1_5_4"  />
</g>
<g id="a1_005"  >
<polygon points="389,85 394,80 417,80 417,90 394,90 389,85 " style="fill:#d8d815; stroke-width:1; stroke:black; " description="&lt;b&gt;BLU37_RS00420&lt;/b&gt;&lt;br&gt;DUF692 domain-containing protein&lt;br&gt;Location: 87119 - 86226&lt;br&gt;&lt;br&gt;&lt;b&gt;BlastP hit with MCIC6FC_014871&lt;/b&gt;&lt;br&gt;Percentage identity: 70&lt;br&gt;Percentage coverage: 37&lt;br&gt;BLAST bit score: 410&lt;br&gt;E-value: 5.7e-112" locus_tag="BLU37_RS00420" class="clusterblast-orf" id="dummy-1_h1_5_5"  />
</g>
<g id="a1_006"  >
<polygon points="418,85 423,80 428,80 428,90 423,90 418,85 " style="fill:white; stroke-width:1; stroke:black; " description="&lt;b&gt;BLU37_RS00415&lt;/b&gt;&lt;br&gt;DUF2282 domain-containing protein&lt;br&gt;Location: 86199 - 85894" locus_tag="BLU37_RS00415" class="clusterblast-orf" id="dummy-1_h1_5_6"  />
</g>
<g id="a1_007"  >
<polygon points="432,85 437,80 455,80 455,90 437,90 432,85 " style="fill:#15d8d8; stroke-width:1; stroke:black; " description="&lt;b&gt;BLU37_RS00410&lt;/b&gt;&lt;br&gt;ABC transporter ATP-binding protein&lt;br&gt;Location: 85745 - 85044&lt;br&gt;&lt;br&gt;&lt;b&gt;BlastP hit with MCIC6FC_014872&lt;/b&gt;&lt;br&gt;Percentage identity: 94&lt;br&gt;Percentage coverage: 20&lt;br&gt;BLAST bit score: 431&lt;br&gt;E-value: 2.1e-118" locus_tag="BLU37_RS00410" class="clusterblast-orf" id="dummy-1_h1_5_7"  />
</g>
<g id="a1_008"  >
<polygon points="455,85 460,80 479,80 479,90 460,90 455,85 " style="fill:#15d8d8; stroke-width:1; stroke:black; " description="&lt;b&gt;BLU37_RS00405&lt;/b&gt;&lt;br&gt;high-affinity branched-chain amino acid ABC transporter ATP-binding protein LivG&lt;br&gt;Location: 85043 - 84276&lt;br&gt;&lt;br&gt;&lt;b&gt;BlastP hit with MCIC6FC_014872&lt;/b&gt;&lt;br&gt;Percentage identity: 91&lt;br&gt;Percentage coverage: 22&lt;br&gt;BLAST bit score: 461&lt;br&gt;E-value: 3.2e-127" locus_tag="BLU37_RS00405" class="clusterblast-orf" id="dummy-1_h1_5_8"  />
</g>
<g id="a1_009"  >
<polygon points="479,85 484,80 519,80 519,90 484,90 479,85 " style="fill:#15d8d8; stroke-width:1; stroke:black; " description="&lt;b&gt;BLU37_RS00400&lt;/b&gt;&lt;br&gt;high-affinity branched-chain amino acid ABC transporter permease LivM&lt;br&gt;Location: 84279 - 83026&lt;br&gt;&lt;br&gt;&lt;b&gt;BlastP hit with MCIC6FC_014872&lt;/b&gt;&lt;br&gt;Percentage identity: 86&lt;br&gt;Percentage coverage: 34&lt;br&gt;BLAST bit score: 638&lt;br&gt;E-value: 1.1e-180" locus_tag="BLU37_RS00400" class="clusterblast-orf" id="dummy-1_h1_5_9"  />
</g>
<g id="a1_0010"  >
<polygon points="519,85 524,80 548,80 548,90 524,90 519,85 " style="fill:#15d8d8; stroke-width:1; stroke:black; " description="&lt;b&gt;BLU37_RS00395&lt;/b&gt;&lt;br&gt;high-affinity branched-chain amino acid ABC transporter permease LivH&lt;br&gt;Location: 83029 - 82106&lt;br&gt;&lt;br&gt;&lt;b&gt;BlastP hit with MCIC6FC_014872&lt;/b&gt;&lt;br&gt;Percentage identity: 93&lt;br&gt;Percentage coverage: 25&lt;br&gt;BLAST bit score: 513&lt;br&gt;E-value: 7.1e-143" locus_tag="BLU37_RS00395" class="clusterblast-orf" id="dummy-1_h1_5_10"  />
</g>
</svg>
