<svg xmlns="http://www.w3.org/2000/svg" xmlns:xlink="http://www.w3.org/1999/xlink" version="1.1" x="0" y="0" height="230" width="800" viewBox="0 0 800 230" preserveAspectRatio="none"  >
<g label="Query sequence" class="clusterblast-cluster"  >
<text x="5" y="20" class="clusterblast-acc"  >
Query sequence</text>
<line x1="10" y1="35" x2="778.0" y2="35" style="stroke-width:1; stroke:grey; "  />
<polygon points="0,35 5,30 18,30 18,40 5,40 0,35 " style="fill:white; stroke-width:1; stroke:black; " description="&lt;b&gt;MCIC6FC_007663&lt;/b&gt;&lt;br&gt;hypothetical protein&lt;br&gt;Location: 1093721 - 1096121" locus_tag="MCIC6FC_007663" class="clusterblast-orf" id="dummy-4_q0_0_all"  />
<polygon points="21,40 21,40 26,35 21,30 21,30 21,40 " style="fill:#d81515; stroke-width:1; stroke:black; " description="&lt;b&gt;MCIC6FC_007664&lt;/b&gt;&lt;br&gt;hypothetical protein&lt;br&gt;Location: 1096391 - 1097087" locus_tag="MCIC6FC_007664" class="clusterblast-orf" id="dummy-4_q1_0_all"  />
<polygon points="27,35 32,30 40,30 40,40 32,40 27,35 " style="fill:#63d815; stroke-width:1; stroke:black; " description="&lt;b&gt;MCIC6FC_007665&lt;/b&gt;&lt;br&gt;hypothetical protein&lt;br&gt;Location: 1097151 - 1098795" locus_tag="MCIC6FC_007665" class="clusterblast-orf" id="dummy-4_q2_0_all"  />
<polygon points="40,35 45,30 63,30 63,40 45,40 40,35 " style="fill:#15b1d8; stroke-width:1; stroke:black; " description="&lt;b&gt;MCIC6FC_007666&lt;/b&gt;&lt;br&gt;hypothetical protein&lt;br&gt;Location: 1098900 - 1101713" locus_tag="MCIC6FC_007666" class="clusterblast-orf" id="dummy-4_q3_0_all"  />
<polygon points="68,35 73,30 76,30 76,40 73,40 68,35 " style="fill:#b115d8; stroke-width:1; stroke:black; " description="&lt;b&gt;MCIC6FC_007667&lt;/b&gt;&lt;br&gt;hypothetical protein&lt;br&gt;Location: 1102460 - 1103483" locus_tag="MCIC6FC_007667" class="clusterblast-orf" id="dummy-4_q4_0_all"  />
<polygon points="78,40 98,40 103,35 98,30 78,30 78,40 " style="fill:#d86315; stroke-width:1; stroke:black; " description="&lt;b&gt;MCIC6FC_007668&lt;/b&gt;&lt;br&gt;hypothetical protein&lt;br&gt;Location: 1103667 - 1106912" locus_tag="MCIC6FC_007668" class="clusterblast-orf" id="dummy-4_q5_0_all"  />
<polygon points="104,35 109,30 116,30 116,40 109,40 104,35 " style="fill:white; stroke-width:1; stroke:black; " description="&lt;b&gt;MCIC6FC_007669&lt;/b&gt;&lt;br&gt;hypothetical protein&lt;br&gt;Location: 1106991 - 1108552" locus_tag="MCIC6FC_007669" class="clusterblast-orf" id="dummy-4_q6_0_all"  />
<polygon points="118,40 150,40 155,35 150,30 118,30 118,40 " style="fill:#15d815; stroke-width:1; stroke:black; " description="&lt;b&gt;MCIC6FC_007670&lt;/b&gt;&lt;br&gt;hypothetical protein&lt;br&gt;Location: 1108741 - 1113501" locus_tag="MCIC6FC_007670" class="clusterblast-orf" id="dummy-4_q7_0_all"  />
<polygon points="156,40 198,40 203,35 198,30 156,30 156,40 " style="fill:white; stroke-width:1; stroke:black; " description="&lt;b&gt;MCIC6FC_007671&lt;/b&gt;&lt;br&gt;hypothetical protein&lt;br&gt;Location: 1113526 - 1119611" locus_tag="MCIC6FC_007671" class="clusterblast-orf" id="dummy-4_q8_0_all"  />
<polygon points="205,35 210,30 257,30 257,40 210,40 205,35 " style="fill:white; stroke-width:1; stroke:black; " description="&lt;b&gt;MCIC6FC_007672&lt;/b&gt;&lt;br&gt;hypothetical protein&lt;br&gt;Location: 1119764 - 1126360" locus_tag="MCIC6FC_007672" class="clusterblast-orf" id="dummy-4_q9_0_all"  />
<polygon points="266,40 269,40 274,35 269,30 266,30 266,40 " style="fill:white; stroke-width:1; stroke:black; " description="&lt;b&gt;MCIC6FC_007673&lt;/b&gt;&lt;br&gt;hypothetical protein&lt;br&gt;Location: 1127567 - 1128578" locus_tag="MCIC6FC_007673" class="clusterblast-orf" id="dummy-4_q10_0_all"  />
<polygon points="274,40 312,40 317,35 312,30 274,30 274,40 " style="fill:white; stroke-width:1; stroke:black; " description="&lt;b&gt;MCIC6FC_007674&lt;/b&gt;&lt;br&gt;hypothetical protein&lt;br&gt;Location: 1128582 - 1134029" locus_tag="MCIC6FC_007674" class="clusterblast-orf" id="dummy-4_q11_0_all"  />
<polygon points="317,40 337,40 342,35 337,30 317,30 317,40 " style="fill:white; stroke-width:1; stroke:black; " description="&lt;b&gt;MCIC6FC_007675&lt;/b&gt;&lt;br&gt;hypothetical protein&lt;br&gt;Location: 1134052 - 1137201" locus_tag="MCIC6FC_007675" class="clusterblast-orf" id="dummy-4_q12_0_all"  />
<polygon points="346,40 350,40 355,35 350,30 346,30 346,40 " style="fill:#1563d8; stroke-width:1; stroke:black; " description="&lt;b&gt;MCIC6FC_007676&lt;/b&gt;&lt;br&gt;hypothetical protein&lt;br&gt;Location: 1137745 - 1138843" locus_tag="MCIC6FC_007676" class="clusterblast-orf" id="dummy-4_q13_0_all"  />
<polygon points="355,40 369,40 374,35 369,30 355,30 355,40 " style="fill:#d815b1; stroke-width:1; stroke:black; " description="&lt;b&gt;MCIC6FC_007677&lt;/b&gt;&lt;br&gt;hypothetical protein&lt;br&gt;Location: 1138918 - 1141240" locus_tag="MCIC6FC_007677" class="clusterblast-orf" id="dummy-4_q14_0_all"  />
<polygon points="374,40 416,40 421,35 416,30 374,30 374,40 " style="fill:#d8b115; stroke-width:1; stroke:black; " description="&lt;b&gt;MCIC6FC_007678&lt;/b&gt;&lt;br&gt;hypothetical protein&lt;br&gt;Location: 1141329 - 1147247" locus_tag="MCIC6FC_007678" class="clusterblast-orf" id="dummy-4_q15_0_all"  />
<polygon points="423,35 428,30 431,30 431,40 428,40 423,35 " style="fill:#15d863; stroke-width:1; stroke:black; " description="&lt;b&gt;MCIC6FC_007679&lt;/b&gt;&lt;br&gt;hypothetical protein&lt;br&gt;Location: 1147487 - 1148477" locus_tag="MCIC6FC_007679" class="clusterblast-orf" id="dummy-4_q16_0_all"  />
<polygon points="432,40 444,40 449,35 444,30 432,30 432,40 " style="fill:#1515d8; stroke-width:1; stroke:black; " description="&lt;b&gt;MCIC6FC_007680&lt;/b&gt;&lt;br&gt;hypothetical protein&lt;br&gt;Location: 1148651 - 1150764" locus_tag="MCIC6FC_007680" class="clusterblast-orf" id="dummy-4_q17_0_all"  />
<polygon points="449,35 454,30 466,30 466,40 454,40 449,35 " style="fill:#1515d8; stroke-width:1; stroke:black; " description="&lt;b&gt;MCIC6FC_007681&lt;/b&gt;&lt;br&gt;hypothetical protein&lt;br&gt;Location: 1150848 - 1152996" locus_tag="MCIC6FC_007681" class="clusterblast-orf" id="dummy-4_q18_0_all"  />
<polygon points="467,35 472,30 498,30 498,40 472,40 467,35 " style="fill:#d81563; stroke-width:1; stroke:black; " description="&lt;b&gt;MCIC6FC_007682&lt;/b&gt;&lt;br&gt;hypothetical protein&lt;br&gt;Location: 1153029 - 1156964" locus_tag="MCIC6FC_007682" class="clusterblast-orf" id="dummy-4_q19_0_all"  />
<polygon points="500,40 545,40 550,35 545,30 500,30 500,40 " style="fill:#15d815; stroke-width:1; stroke:black; " description="&lt;b&gt;MCIC6FC_007683&lt;/b&gt;&lt;br&gt;hypothetical protein&lt;br&gt;Location: 1157259 - 1163679" locus_tag="MCIC6FC_007683" class="clusterblast-orf" id="dummy-4_q20_0_all"  />
<polygon points="551,40 625,40 630,35 625,30 551,30 551,40 " style="fill:#15d815; stroke-width:1; stroke:black; " description="&lt;b&gt;MCIC6FC_007684&lt;/b&gt;&lt;br&gt;hypothetical protein&lt;br&gt;Location: 1163717 - 1173743" locus_tag="MCIC6FC_007684" class="clusterblast-orf" id="dummy-4_q21_0_all"  />
<polygon points="630,40 710,40 715,35 710,30 630,30 630,40 " style="fill:#15d815; stroke-width:1; stroke:black; " description="&lt;b&gt;MCIC6FC_007685&lt;/b&gt;&lt;br&gt;hypothetical protein&lt;br&gt;Location: 1173784 - 1184642" locus_tag="MCIC6FC_007685" class="clusterblast-orf" id="dummy-4_q22_0_all"  />
<polygon points="715,40 737,40 742,35 737,30 715,30 715,40 " style="fill:#b1d815; stroke-width:1; stroke:black; " description="&lt;b&gt;MCIC6FC_007686&lt;/b&gt;&lt;br&gt;hypothetical protein&lt;br&gt;Location: 1184649 - 1188017" locus_tag="MCIC6FC_007686" class="clusterblast-orf" id="dummy-4_q23_0_all"  />
<polygon points="743,40 762,40 767,35 762,30 743,30 743,40 " style="fill:#15d8b1; stroke-width:1; stroke:black; " description="&lt;b&gt;MCIC6FC_007687&lt;/b&gt;&lt;br&gt;hypothetical protein&lt;br&gt;Location: 1188087 - 1191138" locus_tag="MCIC6FC_007687" class="clusterblast-orf" id="dummy-4_q24_0_all"  />
<polygon points="767,35 772,30 780,30 780,40 772,40 767,35 " style="fill:#6315d8; stroke-width:1; stroke:black; " description="&lt;b&gt;MCIC6FC_007688&lt;/b&gt;&lt;br&gt;hypothetical protein&lt;br&gt;Location: 1191187 - 1192790" locus_tag="MCIC6FC_007688" class="clusterblast-orf" id="dummy-4_q25_0_all"  />
</g>
<g label="NZ_MOAZ01000017" description="NZ_MOAZ01000017 (216366-280172): Pseudomonas canadensis strain 36C8 36C8 Join... (34% of genes show similarity), NRPS" class="clusterblast-cluster"  >
<text x="5" y="70" class="clusterblast-acc"  >
<a xlink:href="https://antismash-db.secondarymetabolites.org/area.html?record=NZ_MOAZ01000017&amp;start=216366&amp;end=280172" target="_blank">NZ_MOAZ01000017 (216366-280172)</a>: Pseudomonas canadensis strain 36C8 36C8 Join... (34% of genes show similarity), NRPS</text>
<line x1="10" y1="85" x2="778.0" y2="85" style="stroke-width:1; stroke:grey; "  />
</g>
<g id="a4_000"  >
<polygon points="142,85 144,80 144,90 142,85 " style="fill:white; stroke-width:1; stroke:black; " description="&lt;b&gt;BK649_RS21295&lt;/b&gt;&lt;br&gt;hypothetical protein&lt;br&gt;Location: 279940 - 279686" locus_tag="BK649_RS21295" class="clusterblast-orf" id="dummy-4_h4_8_0"  />
</g>
<g id="a4_001"  >
<polygon points="145,85 147,80 147,90 145,85 " style="fill:white; stroke-width:1; stroke:black; " description="&lt;b&gt;BK649_RS21290&lt;/b&gt;&lt;br&gt;hypothetical protein&lt;br&gt;Location: 279634 - 279344" locus_tag="BK649_RS21290" class="clusterblast-orf" id="dummy-4_h4_8_1"  />
</g>
<g id="a4_002"  >
<polygon points="147,85 152,80 152,80 152,90 152,90 147,85 " style="fill:white; stroke-width:1; stroke:black; " description="&lt;b&gt;BK649_RS21285&lt;/b&gt;&lt;br&gt;hypothetical protein&lt;br&gt;Location: 279290 - 278688" locus_tag="BK649_RS21285" class="clusterblast-orf" id="dummy-4_h4_8_2"  />
</g>
<g id="a4_003"  >
<polygon points="154,85 159,80 161,80 161,90 159,90 154,85 " style="fill:white; stroke-width:1; stroke:black; " description="&lt;b&gt;BK649_RS21280&lt;/b&gt;&lt;br&gt;SMP-30/gluconolactonase/LRE family protein&lt;br&gt;Location: 278450 - 277590" locus_tag="BK649_RS21280" class="clusterblast-orf" id="dummy-4_h4_8_3"  />
</g>
<g id="a4_004"  >
<polygon points="161,85 165,80 165,90 161,85 " style="fill:white; stroke-width:1; stroke:black; " description="&lt;b&gt;BK649_RS21275&lt;/b&gt;&lt;br&gt;DMT family transporter&lt;br&gt;Location: 277550 - 277077" locus_tag="BK649_RS21275" class="clusterblast-orf" id="dummy-4_h4_8_4"  />
</g>
<g id="a4_005"  >
<polygon points="165,85 170,80 176,80 176,90 170,90 165,85 " style="fill:white; stroke-width:1; stroke:black; " description="&lt;b&gt;BK649_RS21270&lt;/b&gt;&lt;br&gt;amidohydrolase family protein&lt;br&gt;Location: 277065 - 275668" locus_tag="BK649_RS21270" class="clusterblast-orf" id="dummy-4_h4_8_5"  />
</g>
<g id="a4_006"  >
<polygon points="177,90 179,90 184,85 179,80 177,80 177,90 " style="fill:white; stroke-width:1; stroke:black; " description="&lt;b&gt;BK649_RS21265&lt;/b&gt;&lt;br&gt;LysR family transcriptional regulator&lt;br&gt;Location: 275522 - 274611" locus_tag="BK649_RS21265" class="clusterblast-orf" id="dummy-4_h4_8_6"  />
</g>
<g id="a4_007"  >
<polygon points="184,85 189,80 193,80 193,90 189,90 184,85 " style="fill:white; stroke-width:1; stroke:black; " description="&lt;b&gt;BK649_RS21260&lt;/b&gt;&lt;br&gt;MFS transporter&lt;br&gt;Location: 274617 - 273451" locus_tag="BK649_RS21260" class="clusterblast-orf" id="dummy-4_h4_8_7"  />
</g>
<g id="a4_008"  >
<polygon points="194,90 195,90 200,85 195,80 194,80 194,90 " style="fill:white; stroke-width:1; stroke:black; " description="&lt;b&gt;BK649_RS21255&lt;/b&gt;&lt;br&gt;helix-turn-helix transcriptional regulator&lt;br&gt;Location: 273362 - 272568" locus_tag="BK649_RS21255" class="clusterblast-orf" id="dummy-4_h4_8_8"  />
</g>
<g id="a4_009"  >
<polygon points="202,90 204,85 202,80 202,90 " style="fill:white; stroke-width:1; stroke:black; " description="&lt;b&gt;BK649_RS21250&lt;/b&gt;&lt;br&gt;hypothetical protein&lt;br&gt;Location: 272368 - 272153" locus_tag="BK649_RS21250" class="clusterblast-orf" id="dummy-4_h4_8_9"  />
</g>
<g id="a4_0010"  >
<polygon points="205,90 207,85 205,80 205,90 " style="fill:white; stroke-width:1; stroke:black; " description="&lt;b&gt;BK649_RS21245&lt;/b&gt;&lt;br&gt;type II toxin-antitoxin system ParD family antitoxin&lt;br&gt;Location: 271951 - 271661" locus_tag="BK649_RS21245" class="clusterblast-orf" id="dummy-4_h4_8_10"  />
</g>
<g id="a4_0011"  >
<polygon points="207,90 210,85 207,80 207,90 " style="fill:white; stroke-width:1; stroke:black; " description="&lt;b&gt;BK649_RS21240&lt;/b&gt;&lt;br&gt;type II toxin-antitoxin system RelE/ParE family toxin&lt;br&gt;Location: 271658 - 271302" locus_tag="BK649_RS21240" class="clusterblast-orf" id="dummy-4_h4_8_11"  />
</g>
<g id="a4_0012"  >
<polygon points="215,85 220,80 222,80 222,90 220,90 215,85 " style="fill:#15d863; stroke-width:1; stroke:black; " description="&lt;b&gt;BK649_RS21230&lt;/b&gt;&lt;br&gt;helix-turn-helix transcriptional regulator&lt;br&gt;Location: 270725 - 269769&lt;br&gt;&lt;br&gt;&lt;b&gt;BlastP hit with MCIC6FC_007679&lt;/b&gt;&lt;br&gt;Percentage identity: 95&lt;br&gt;Percentage coverage: 96&lt;br&gt;BLAST bit score: 612&lt;br&gt;E-value: 2.4e-173" locus_tag="BK649_RS21230" class="clusterblast-orf" id="dummy-4_h4_8_12"  />
</g>
<g id="a4_0013"  >
<polygon points="224,90 236,90 241,85 236,80 224,80 224,90 " style="fill:#1515d8; stroke-width:1; stroke:black; " description="&lt;b&gt;BK649_RS21225&lt;/b&gt;&lt;br&gt;TonB-dependent receptor&lt;br&gt;Location: 269503 - 267452&lt;br&gt;&lt;br&gt;&lt;b&gt;BlastP hit with MCIC6FC_007680&lt;/b&gt;&lt;br&gt;Percentage identity: 98&lt;br&gt;Percentage coverage: 98&lt;br&gt;BLAST bit score: 1319&lt;br&gt;E-value: 0.0&lt;br&gt;&lt;br&gt;&lt;b&gt;BlastP hit with MCIC6FC_007681&lt;/b&gt;&lt;br&gt;Percentage identity: 57&lt;br&gt;Percentage coverage: 94&lt;br&gt;BLAST bit score: 775&lt;br&gt;E-value: 6.1e-222" locus_tag="BK649_RS21225" class="clusterblast-orf" id="dummy-4_h4_8_13"  />
</g>
<g id="a4_0014"  >
<polygon points="242,90 246,85 242,80 242,90 " style="fill:white; stroke-width:1; stroke:black; " description="&lt;b&gt;BK649_RS21220&lt;/b&gt;&lt;br&gt;transposase&lt;br&gt;Location: 267247 - 266789" locus_tag="BK649_RS21220" class="clusterblast-orf" id="dummy-4_h4_8_14"  />
</g>
<g id="a4_0015"  >
<polygon points="247,85 252,80 264,80 264,90 252,90 247,85 " style="fill:#1515d8; stroke-width:1; stroke:black; " description="&lt;b&gt;BK649_RS21215&lt;/b&gt;&lt;br&gt;TonB-dependent receptor&lt;br&gt;Location: 266582 - 264435&lt;br&gt;&lt;br&gt;&lt;b&gt;BlastP hit with MCIC6FC_007680&lt;/b&gt;&lt;br&gt;Percentage identity: 58&lt;br&gt;Percentage coverage: 98&lt;br&gt;BLAST bit score: 770&lt;br&gt;E-value: 1.9e-220&lt;br&gt;&lt;br&gt;&lt;b&gt;BlastP hit with MCIC6FC_007681&lt;/b&gt;&lt;br&gt;Percentage identity: 99&lt;br&gt;Percentage coverage: 100&lt;br&gt;BLAST bit score: 1411&lt;br&gt;E-value: 0.0" locus_tag="BK649_RS21215" class="clusterblast-orf" id="dummy-4_h4_8_15"  />
</g>
<g id="a4_0016"  >
<polygon points="265,85 270,80 289,80 289,90 270,90 265,85 " style="fill:#d81563; stroke-width:1; stroke:black; " description="&lt;b&gt;BK649_RS21210&lt;/b&gt;&lt;br&gt;hypothetical protein&lt;br&gt;Location: 264401 - 261348&lt;br&gt;&lt;br&gt;&lt;b&gt;BlastP hit with MCIC6FC_007682&lt;/b&gt;&lt;br&gt;Percentage identity: 98&lt;br&gt;Percentage coverage: 79&lt;br&gt;BLAST bit score: 1910&lt;br&gt;E-value: 0.0" locus_tag="BK649_RS21210" class="clusterblast-orf" id="dummy-4_h4_8_16"  />
</g>
<g id="a4_0017"  >
<polygon points="289,85 294,80 296,80 296,90 294,90 289,85 " style="fill:#d81563; stroke-width:1; stroke:black; " description="&lt;b&gt;BK649_RS21205&lt;/b&gt;&lt;br&gt;ABC transporter ATP-binding protein&lt;br&gt;Location: 261351 - 260467&lt;br&gt;&lt;br&gt;&lt;b&gt;BlastP hit with MCIC6FC_007682&lt;/b&gt;&lt;br&gt;Percentage identity: 100&lt;br&gt;Percentage coverage: 21&lt;br&gt;BLAST bit score: 529&lt;br&gt;E-value: 1.4e-147" locus_tag="BK649_RS21205" class="clusterblast-orf" id="dummy-4_h4_8_17"  />
</g>
<g id="a4_0018"  >
<polygon points="298,90 343,90 348,85 343,80 298,80 298,90 " style="fill:#15d815; stroke-width:1; stroke:black; " description="&lt;b&gt;BK649_RS21200&lt;/b&gt;&lt;br&gt;amino acid adenylation domain-containing protein&lt;br&gt;Location: 260172 - 253753&lt;br&gt;&lt;br&gt;&lt;b&gt;BlastP hit with MCIC6FC_007683&lt;/b&gt;&lt;br&gt;Percentage identity: 98&lt;br&gt;Percentage coverage: 100&lt;br&gt;BLAST bit score: 4202&lt;br&gt;E-value: 0.0&lt;br&gt;&lt;br&gt;&lt;b&gt;BlastP hit with MCIC6FC_007684&lt;/b&gt;&lt;br&gt;Percentage identity: 43&lt;br&gt;Percentage coverage: 28&lt;br&gt;BLAST bit score: 657&lt;br&gt;E-value: 6.5e-186" locus_tag="BK649_RS21200" class="clusterblast-orf" id="dummy-4_h4_8_18"  />
</g>
<g id="a4_0019"  >
<polygon points="349,90 387,90 392,85 387,80 349,80 349,90 " style="fill:#15d815; stroke-width:1; stroke:black; " description="&lt;b&gt;BK649_RS21195&lt;/b&gt;&lt;br&gt;amino acid adenylation domain-containing protein&lt;br&gt;Location: 253714 - 248258&lt;br&gt;&lt;br&gt;&lt;b&gt;BlastP hit with MCIC6FC_007683&lt;/b&gt;&lt;br&gt;Percentage identity: 43&lt;br&gt;Percentage coverage: 43&lt;br&gt;BLAST bit score: 660&lt;br&gt;E-value: 6.5e-187&lt;br&gt;&lt;br&gt;&lt;b&gt;BlastP hit with MCIC6FC_007684&lt;/b&gt;&lt;br&gt;Percentage identity: 98&lt;br&gt;Percentage coverage: 55&lt;br&gt;BLAST bit score: 3513&lt;br&gt;E-value: 0.0&lt;br&gt;&lt;br&gt;&lt;b&gt;BlastP hit with MCIC6FC_007685&lt;/b&gt;&lt;br&gt;Percentage identity: 35&lt;br&gt;Percentage coverage: 13&lt;br&gt;BLAST bit score: 210&lt;br&gt;E-value: 3.6e-51" locus_tag="BK649_RS21195" class="clusterblast-orf" id="dummy-4_h4_8_19"  />
</g>
<g id="a4_0020"  >
<polygon points="392,90 400,90 405,85 400,80 392,80 392,90 " style="fill:#15d815; stroke-width:1; stroke:black; " description="&lt;b&gt;BK649_RS21190&lt;/b&gt;&lt;br&gt;ABC transporter ATP-binding protein&lt;br&gt;Location: 248261 - 246528&lt;br&gt;&lt;br&gt;&lt;b&gt;BlastP hit with MCIC6FC_007684&lt;/b&gt;&lt;br&gt;Percentage identity: 99&lt;br&gt;Percentage coverage: 17&lt;br&gt;BLAST bit score: 1044&lt;br&gt;E-value: 2.5e-302" locus_tag="BK649_RS21190" class="clusterblast-orf" id="dummy-4_h4_8_20"  />
</g>
<g id="a4_0021"  >
<polygon points="405,90 414,90 419,85 414,80 405,80 405,90 " style="fill:#15d815; stroke-width:1; stroke:black; " description="&lt;b&gt;BK649_RS21185&lt;/b&gt;&lt;br&gt;ABC transporter ATP-binding protein&lt;br&gt;Location: 246531 - 244786&lt;br&gt;&lt;br&gt;&lt;b&gt;BlastP hit with MCIC6FC_007684&lt;/b&gt;&lt;br&gt;Percentage identity: 100&lt;br&gt;Percentage coverage: 17&lt;br&gt;BLAST bit score: 1059&lt;br&gt;E-value: 9.7e-307" locus_tag="BK649_RS21185" class="clusterblast-orf" id="dummy-4_h4_8_21"  />
</g>
<g id="a4_0022"  >
<polygon points="419,90 423,90 428,85 423,80 419,80 419,90 " style="fill:#15d815; stroke-width:1; stroke:black; " description="&lt;b&gt;BK649_RS21180&lt;/b&gt;&lt;br&gt;saccharopine dehydrogenase NADP-binding domain-containing protein&lt;br&gt;Location: 244792 - 243689&lt;br&gt;&lt;br&gt;&lt;b&gt;BlastP hit with MCIC6FC_007684&lt;/b&gt;&lt;br&gt;Percentage identity: 97&lt;br&gt;Percentage coverage: 11&lt;br&gt;BLAST bit score: 725&lt;br&gt;E-value: 1.9e-206" locus_tag="BK649_RS21180" class="clusterblast-orf" id="dummy-4_h4_8_22"  />
</g>
<g id="a4_0023"  >
<polygon points="428,90 431,90 436,85 431,80 428,80 428,90 " style="fill:white; stroke-width:1; stroke:black; " description="&lt;b&gt;BK649_RS21175&lt;/b&gt;&lt;br&gt;class I SAM-dependent methyltransferase&lt;br&gt;Location: 243692 - 242658" locus_tag="BK649_RS21175" class="clusterblast-orf" id="dummy-4_h4_8_23"  />
</g>
<g id="a4_0024"  >
<polygon points="436,90 444,90 449,85 444,80 436,80 436,90 " style="fill:#15d815; stroke-width:1; stroke:black; " description="&lt;b&gt;BK649_RS21170&lt;/b&gt;&lt;br&gt;class I SAM-dependent methyltransferase&lt;br&gt;Location: 242661 - 240991&lt;br&gt;&lt;br&gt;&lt;b&gt;BlastP hit with MCIC6FC_007685&lt;/b&gt;&lt;br&gt;Percentage identity: 98&lt;br&gt;Percentage coverage: 17&lt;br&gt;BLAST bit score: 1074&lt;br&gt;E-value: 2.1e-311" locus_tag="BK649_RS21170" class="clusterblast-orf" id="dummy-4_h4_8_24"  />
</g>
<g id="a4_0025"  >
<polygon points="449,90 453,90 458,85 453,80 449,80 449,90 " style="fill:#15d815; stroke-width:1; stroke:black; " description="&lt;b&gt;BK649_RS21165&lt;/b&gt;&lt;br&gt;cytochrome P450&lt;br&gt;Location: 240994 - 239816&lt;br&gt;&lt;br&gt;&lt;b&gt;BlastP hit with MCIC6FC_007685&lt;/b&gt;&lt;br&gt;Percentage identity: 100&lt;br&gt;Percentage coverage: 11&lt;br&gt;BLAST bit score: 723&lt;br&gt;E-value: 7.5e-206" locus_tag="BK649_RS21165" class="clusterblast-orf" id="dummy-4_h4_8_25"  />
</g>
<g id="a4_0026"  >
<polygon points="458,90 462,90 467,85 462,80 458,80 458,90 " style="fill:#15d815; stroke-width:1; stroke:black; " description="&lt;b&gt;BK649_RS21160&lt;/b&gt;&lt;br&gt;Gfo/Idh/MocA family oxidoreductase&lt;br&gt;Location: 239819 - 238674&lt;br&gt;&lt;br&gt;&lt;b&gt;BlastP hit with MCIC6FC_007685&lt;/b&gt;&lt;br&gt;Percentage identity: 94&lt;br&gt;Percentage coverage: 11&lt;br&gt;BLAST bit score: 709&lt;br&gt;E-value: 1.5e-201" locus_tag="BK649_RS21160" class="clusterblast-orf" id="dummy-4_h4_8_26"  />
</g>
<g id="a4_0027"  >
<polygon points="467,90 468,90 473,85 468,80 467,80 467,90 " style="fill:white; stroke-width:1; stroke:black; " description="&lt;b&gt;BK649_RS21155&lt;/b&gt;&lt;br&gt;VOC family protein&lt;br&gt;Location: 238677 - 237958" locus_tag="BK649_RS21155" class="clusterblast-orf" id="dummy-4_h4_8_27"  />
</g>
<g id="a4_0028"  >
<polygon points="473,90 480,90 485,85 480,80 473,80 473,90 " style="fill:#15d815; stroke-width:1; stroke:black; " description="&lt;b&gt;BK649_RS21150&lt;/b&gt;&lt;br&gt;AMP-binding protein&lt;br&gt;Location: 237965 - 236367&lt;br&gt;&lt;br&gt;&lt;b&gt;BlastP hit with MCIC6FC_007670&lt;/b&gt;&lt;br&gt;Percentage identity: 38&lt;br&gt;Percentage coverage: 38&lt;br&gt;BLAST bit score: 313&lt;br&gt;E-value: 9.5e-83&lt;br&gt;&lt;br&gt;&lt;b&gt;BlastP hit with MCIC6FC_007685&lt;/b&gt;&lt;br&gt;Percentage identity: 94&lt;br&gt;Percentage coverage: 16&lt;br&gt;BLAST bit score: 992&lt;br&gt;E-value: 8.7e-287" locus_tag="BK649_RS21150" class="clusterblast-orf" id="dummy-4_h4_8_28"  />
</g>
<g id="a4_0029"  >
<polygon points="485,90 486,90 491,85 486,80 485,80 485,90 " style="fill:white; stroke-width:1; stroke:black; " description="&lt;b&gt;BK649_RS21145&lt;/b&gt;&lt;br&gt;thioesterase&lt;br&gt;Location: 236370 - 235612" locus_tag="BK649_RS21145" class="clusterblast-orf" id="dummy-4_h4_8_29"  />
</g>
<g id="a4_0030"  >
<polygon points="491,90 494,85 491,80 491,90 " style="fill:white; stroke-width:1; stroke:black; " description="&lt;b&gt;BK649_RS21140&lt;/b&gt;&lt;br&gt;isochorismate lyase&lt;br&gt;Location: 235615 - 235307" locus_tag="BK649_RS21140" class="clusterblast-orf" id="dummy-4_h4_8_30"  />
</g>
<g id="a4_0031"  >
<polygon points="494,90 500,90 505,85 500,80 494,80 494,90 " style="fill:#15d815; stroke-width:1; stroke:black; " description="&lt;b&gt;BK649_RS21135&lt;/b&gt;&lt;br&gt;isochorismate synthase&lt;br&gt;Location: 235310 - 233925&lt;br&gt;&lt;br&gt;&lt;b&gt;BlastP hit with MCIC6FC_007685&lt;/b&gt;&lt;br&gt;Percentage identity: 86&lt;br&gt;Percentage coverage: 13&lt;br&gt;BLAST bit score: 783&lt;br&gt;E-value: 8e-224" locus_tag="BK649_RS21135" class="clusterblast-orf" id="dummy-4_h4_8_31"  />
</g>
<g id="a4_0032"  >
<polygon points="504,85 508,80 508,90 504,85 " style="fill:white; stroke-width:1; stroke:black; " description="&lt;b&gt;BK649_RS21130&lt;/b&gt;&lt;br&gt;RcnB family protein&lt;br&gt;Location: 233944 - 233498" locus_tag="BK649_RS21130" class="clusterblast-orf" id="dummy-4_h4_8_32"  />
</g>
<g id="a4_0033"  >
<polygon points="510,90 524,90 529,85 524,80 510,80 510,90 " style="fill:white; stroke-width:1; stroke:black; " description="&lt;b&gt;BK649_RS21125&lt;/b&gt;&lt;br&gt;TonB-dependent receptor&lt;br&gt;Location: 233258 - 230838" locus_tag="BK649_RS21125" class="clusterblast-orf" id="dummy-4_h4_8_33"  />
</g>
<g id="a4_0034"  >
<polygon points="529,90 537,90 542,85 537,80 529,80 529,90 " style="fill:white; stroke-width:1; stroke:black; " description="&lt;b&gt;BK649_RS21120&lt;/b&gt;&lt;br&gt;ABC transporter substrate-binding protein&lt;br&gt;Location: 230793 - 229183" locus_tag="BK649_RS21120" class="clusterblast-orf" id="dummy-4_h4_8_34"  />
</g>
<g id="a4_0035"  >
<polygon points="542,90 544,90 549,85 544,80 542,80 542,90 " style="fill:white; stroke-width:1; stroke:black; " description="&lt;b&gt;BK649_RS21115&lt;/b&gt;&lt;br&gt;ABC transporter permease&lt;br&gt;Location: 229186 - 228236" locus_tag="BK649_RS21115" class="clusterblast-orf" id="dummy-4_h4_8_35"  />
</g>
<g id="a4_0036"  >
<polygon points="549,90 551,90 556,85 551,80 549,80 549,90 " style="fill:white; stroke-width:1; stroke:black; " description="&lt;b&gt;BK649_RS21110&lt;/b&gt;&lt;br&gt;ABC transporter permease&lt;br&gt;Location: 228232 - 227333" locus_tag="BK649_RS21110" class="clusterblast-orf" id="dummy-4_h4_8_36"  />
</g>
<g id="a4_0037"  >
<polygon points="556,90 564,90 569,85 564,80 556,80 556,90 " style="fill:white; stroke-width:1; stroke:black; " description="&lt;b&gt;BK649_RS21105&lt;/b&gt;&lt;br&gt;ABC transporter ATP-binding protein&lt;br&gt;Location: 227336 - 225714" locus_tag="BK649_RS21105" class="clusterblast-orf" id="dummy-4_h4_8_37"  />
</g>
<g id="a4_0038"  >
<polygon points="569,85 574,80 578,80 578,90 574,90 569,85 " style="fill:white; stroke-width:1; stroke:black; " description="&lt;b&gt;BK649_RS21100&lt;/b&gt;&lt;br&gt;hypothetical protein&lt;br&gt;Location: 225733 - 224540" locus_tag="BK649_RS21100" class="clusterblast-orf" id="dummy-4_h4_8_38"  />
</g>
<g id="a4_0039"  >
<polygon points="582,90 587,90 592,85 587,80 582,80 582,90 " style="fill:white; stroke-width:1; stroke:black; " description="&lt;b&gt;BK649_RS21095&lt;/b&gt;&lt;br&gt;efflux RND transporter periplasmic adaptor subunit&lt;br&gt;Location: 224084 - 222843" locus_tag="BK649_RS21095" class="clusterblast-orf" id="dummy-4_h4_8_39"  />
</g>
<g id="a4_0040"  >
<polygon points="592,90 612,90 617,85 612,80 592,80 592,90 " style="fill:white; stroke-width:1; stroke:black; " description="&lt;b&gt;BK649_RS21090&lt;/b&gt;&lt;br&gt;efflux RND transporter permease subunit&lt;br&gt;Location: 222827 - 219648" locus_tag="BK649_RS21090" class="clusterblast-orf" id="dummy-4_h4_8_40"  />
</g>
<g id="a4_0041"  >
<polygon points="617,90 623,90 628,85 623,80 617,80 617,90 " style="fill:white; stroke-width:1; stroke:black; " description="&lt;b&gt;BK649_RS21085&lt;/b&gt;&lt;br&gt;TolC family protein&lt;br&gt;Location: 219651 - 218236" locus_tag="BK649_RS21085" class="clusterblast-orf" id="dummy-4_h4_8_41"  />
</g>
<g id="a4_0042"  >
<polygon points="629,85 634,80 637,80 637,90 634,90 629,85 " style="fill:white; stroke-width:1; stroke:black; " description="&lt;b&gt;BK649_RS21080&lt;/b&gt;&lt;br&gt;AraC family transcriptional regulator&lt;br&gt;Location: 218150 - 217134" locus_tag="BK649_RS21080" class="clusterblast-orf" id="dummy-4_h4_8_42"  />
</g>
</svg>
