<svg xmlns="http://www.w3.org/2000/svg" xmlns:xlink="http://www.w3.org/1999/xlink" version="1.1" x="0" y="0" height="230" width="800" viewBox="0 0 800 230" preserveAspectRatio="none"  >
<g label="Query sequence" class="clusterblast-cluster"  >
<text x="5" y="20" class="clusterblast-acc"  >
Query sequence</text>
<line x1="10" y1="35" x2="778.0" y2="35" style="stroke-width:1; stroke:grey; "  />
<polygon points="11,35 16,30 26,30 26,40 16,40 11,35 " style="fill:#d81515; stroke-width:1; stroke:black; " description="&lt;b&gt;MCIC6FC_007887&lt;/b&gt;&lt;br&gt;hypothetical protein&lt;br&gt;Location: 1618687 - 1619925" locus_tag="MCIC6FC_007887" class="clusterblast-orf" id="dummy-6_q0_0_all"  />
<polygon points="27,35 32,30 49,30 49,40 32,40 27,35 " style="fill:#4dd815; stroke-width:1; stroke:black; " description="&lt;b&gt;MCIC6FC_007888&lt;/b&gt;&lt;br&gt;hypothetical protein&lt;br&gt;Location: 1619941 - 1621734" locus_tag="MCIC6FC_007888" class="clusterblast-orf" id="dummy-6_q1_0_all"  />
<polygon points="50,35 55,30 63,30 63,40 55,40 50,35 " style="fill:#15bcd8; stroke-width:1; stroke:black; " description="&lt;b&gt;MCIC6FC_007889&lt;/b&gt;&lt;br&gt;hypothetical protein&lt;br&gt;Location: 1621784 - 1622873" locus_tag="MCIC6FC_007889" class="clusterblast-orf" id="dummy-6_q2_0_all"  />
<polygon points="63,35 68,30 80,30 80,40 68,40 63,35 " style="fill:#8515d8; stroke-width:1; stroke:black; " description="&lt;b&gt;MCIC6FC_007890&lt;/b&gt;&lt;br&gt;hypothetical protein&lt;br&gt;Location: 1622896 - 1624255" locus_tag="MCIC6FC_007890" class="clusterblast-orf" id="dummy-6_q3_0_all"  />
<polygon points="82,40 88,40 93,35 88,30 82,30 82,40 " style="fill:#d84d15; stroke-width:1; stroke:black; " description="&lt;b&gt;MCIC6FC_007891&lt;/b&gt;&lt;br&gt;hypothetical protein&lt;br&gt;Location: 1624394 - 1625291" locus_tag="MCIC6FC_007891" class="clusterblast-orf" id="dummy-6_q4_0_all"  />
<polygon points="94,40 116,40 121,35 116,30 94,30 94,40 " style="fill:#15d815; stroke-width:1; stroke:black; " description="&lt;b&gt;MCIC6FC_007892&lt;/b&gt;&lt;br&gt;hypothetical protein&lt;br&gt;Location: 1625391 - 1627551" locus_tag="MCIC6FC_007892" class="clusterblast-orf" id="dummy-6_q5_0_all"  />
<polygon points="122,35 127,30 135,30 135,40 127,40 122,35 " style="fill:#1585d8; stroke-width:1; stroke:black; " description="&lt;b&gt;MCIC6FC_007893&lt;/b&gt;&lt;br&gt;hypothetical protein&lt;br&gt;Location: 1627593 - 1628671" locus_tag="MCIC6FC_007893" class="clusterblast-orf" id="dummy-6_q6_0_all"  />
<polygon points="137,40 141,40 146,35 141,30 137,30 137,40 " style="fill:#bc15d8; stroke-width:1; stroke:black; " description="&lt;b&gt;MCIC6FC_007894&lt;/b&gt;&lt;br&gt;hypothetical protein&lt;br&gt;Location: 1628768 - 1629501" locus_tag="MCIC6FC_007894" class="clusterblast-orf" id="dummy-6_q7_0_all"  />
<polygon points="146,35 151,30 152,30 152,40 151,40 146,35 " style="fill:#d88515; stroke-width:1; stroke:black; " description="&lt;b&gt;MCIC6FC_007895&lt;/b&gt;&lt;br&gt;hypothetical protein&lt;br&gt;Location: 1629543 - 1629981" locus_tag="MCIC6FC_007895" class="clusterblast-orf" id="dummy-6_q8_0_all"  />
<polygon points="153,35 158,30 159,30 159,40 158,40 153,35 " style="fill:#15d84d; stroke-width:1; stroke:black; " description="&lt;b&gt;MCIC6FC_007896&lt;/b&gt;&lt;br&gt;hypothetical protein&lt;br&gt;Location: 1630103 - 1630574" locus_tag="MCIC6FC_007896" class="clusterblast-orf" id="dummy-6_q9_0_all"  />
<polygon points="161,40 171,40 176,35 171,30 161,30 161,40 " style="fill:#154dd8; stroke-width:1; stroke:black; " description="&lt;b&gt;MCIC6FC_007897&lt;/b&gt;&lt;br&gt;hypothetical protein&lt;br&gt;Location: 1630697 - 1631945" locus_tag="MCIC6FC_007897" class="clusterblast-orf" id="dummy-6_q10_0_all"  />
<polygon points="179,40 183,40 188,35 183,30 179,30 179,40 " style="fill:#d815bc; stroke-width:1; stroke:black; " description="&lt;b&gt;MCIC6FC_007898&lt;/b&gt;&lt;br&gt;hypothetical protein&lt;br&gt;Location: 1632165 - 1632855" locus_tag="MCIC6FC_007898" class="clusterblast-orf" id="dummy-6_q11_0_all"  />
<polygon points="188,35 193,30 227,30 227,40 193,40 188,35 " style="fill:#d8bc15; stroke-width:1; stroke:black; " description="&lt;b&gt;MCIC6FC_007899&lt;/b&gt;&lt;br&gt;hypothetical protein&lt;br&gt;Location: 1632911 - 1635995" locus_tag="MCIC6FC_007899" class="clusterblast-orf" id="dummy-6_q12_0_all"  />
<polygon points="234,35 239,30 535,30 535,40 239,40 234,35 " style="fill:#15d885; stroke-width:1; stroke:black; " description="&lt;b&gt;MCIC6FC_007900&lt;/b&gt;&lt;br&gt;hypothetical protein&lt;br&gt;Location: 1636549 - 1660777" locus_tag="MCIC6FC_007900" class="clusterblast-orf" id="dummy-6_q13_0_all"  />
<polygon points="538,35 543,30 559,30 559,40 543,40 538,35 " style="fill:#1515d8; stroke-width:1; stroke:black; " description="&lt;b&gt;MCIC6FC_007901&lt;/b&gt;&lt;br&gt;hypothetical protein&lt;br&gt;Location: 1660996 - 1662651" locus_tag="MCIC6FC_007901" class="clusterblast-orf" id="dummy-6_q14_0_all"  />
<polygon points="562,35 567,30 622,30 622,40 567,40 562,35 " style="fill:#1515d8; stroke-width:1; stroke:black; " description="&lt;b&gt;MCIC6FC_007902&lt;/b&gt;&lt;br&gt;hypothetical protein&lt;br&gt;Location: 1662893 - 1667726" locus_tag="MCIC6FC_007902" class="clusterblast-orf" id="dummy-6_q15_0_all"  />
<polygon points="641,40 652,40 657,35 652,30 641,30 641,40 " style="fill:#d81585; stroke-width:1; stroke:black; " description="&lt;b&gt;MCIC6FC_007903&lt;/b&gt;&lt;br&gt;hypothetical protein&lt;br&gt;Location: 1669225 - 1670522" locus_tag="MCIC6FC_007903" class="clusterblast-orf" id="dummy-6_q16_0_all"  />
<polygon points="658,40 662,40 667,35 662,30 658,30 658,40 " style="fill:#bcd815; stroke-width:1; stroke:black; " description="&lt;b&gt;MCIC6FC_007904&lt;/b&gt;&lt;br&gt;hypothetical protein&lt;br&gt;Location: 1670591 - 1671338" locus_tag="MCIC6FC_007904" class="clusterblast-orf" id="dummy-6_q17_0_all"  />
<polygon points="670,35 675,30 677,30 677,40 675,40 670,35 " style="fill:#15d8bc; stroke-width:1; stroke:black; " description="&lt;b&gt;MCIC6FC_007905&lt;/b&gt;&lt;br&gt;hypothetical protein&lt;br&gt;Location: 1671548 - 1672133" locus_tag="MCIC6FC_007905" class="clusterblast-orf" id="dummy-6_q18_0_all"  />
<polygon points="678,35 683,30 690,30 690,40 683,40 678,35 " style="fill:#4d15d8; stroke-width:1; stroke:black; " description="&lt;b&gt;MCIC6FC_007906&lt;/b&gt;&lt;br&gt;hypothetical protein&lt;br&gt;Location: 1672192 - 1673215" locus_tag="MCIC6FC_007906" class="clusterblast-orf" id="dummy-6_q19_0_all"  />
<polygon points="691,35 696,30 720,30 720,40 696,40 691,35 " style="fill:#d8154d; stroke-width:1; stroke:black; " description="&lt;b&gt;MCIC6FC_007907&lt;/b&gt;&lt;br&gt;hypothetical protein&lt;br&gt;Location: 1673279 - 1675586" locus_tag="MCIC6FC_007907" class="clusterblast-orf" id="dummy-6_q20_0_all"  />
<polygon points="722,40 763,40 768,35 763,30 722,30 722,40 " style="fill:#85d815; stroke-width:1; stroke:black; " description="&lt;b&gt;MCIC6FC_007908&lt;/b&gt;&lt;br&gt;hypothetical protein&lt;br&gt;Location: 1675751 - 1679462" locus_tag="MCIC6FC_007908" class="clusterblast-orf" id="dummy-6_q21_0_all"  />
</g>
<g label="NZ_CP052856" description="NZ_CP052856 (457315-519910): Pseudomonas sp. ADAK22 chromosome, complete genome (96% of genes show similarity), NRPS" class="clusterblast-cluster"  >
<text x="5" y="70" class="clusterblast-acc"  >
<a xlink:href="https://antismash-db.secondarymetabolites.org/area.html?record=NZ_CP052856&amp;start=457315&amp;end=519910" target="_blank">NZ_CP052856 (457315-519910)</a>: Pseudomonas sp. ADAK22 chromosome, complete genome (96% of genes show similarity), NRPS</text>
<line x1="10" y1="85" x2="778.0" y2="85" style="stroke-width:1; stroke:grey; "  />
</g>
<g id="a6_000"  >
<polygon points="0,85 5,80 5,80 5,90 5,90 0,85 " style="fill:#d81515; stroke-width:1; stroke:black; " description="&lt;b&gt;HKK58_RS02275&lt;/b&gt;&lt;br&gt;SRPBCC family protein&lt;br&gt;Location: 519910 - 519494&lt;br&gt;&lt;br&gt;&lt;b&gt;BlastP hit with MCIC6FC_007887&lt;/b&gt;&lt;br&gt;Percentage identity: 99&lt;br&gt;Percentage coverage: 34&lt;br&gt;BLAST bit score: 260&lt;br&gt;E-value: 3.6e-67" locus_tag="HKK58_RS02275" class="clusterblast-orf" id="dummy-6_h6_2_0"  />
</g>
<g id="a6_001"  >
<polygon points="5,85 10,80 15,80 15,90 10,90 5,85 " style="fill:#d81515; stroke-width:1; stroke:black; " description="&lt;b&gt;HKK58_RS02270&lt;/b&gt;&lt;br&gt;SDR family oxidoreductase&lt;br&gt;Location: 519464 - 518667&lt;br&gt;&lt;br&gt;&lt;b&gt;BlastP hit with MCIC6FC_007887&lt;/b&gt;&lt;br&gt;Percentage identity: 97&lt;br&gt;Percentage coverage: 66&lt;br&gt;BLAST bit score: 473&lt;br&gt;E-value: 2.7e-131" locus_tag="HKK58_RS02270" class="clusterblast-orf" id="dummy-6_h6_2_1"  />
</g>
<g id="a6_002"  >
<polygon points="15,85 20,80 28,80 28,90 20,90 15,85 " style="fill:#4dd815; stroke-width:1; stroke:black; " description="&lt;b&gt;HKK58_RS02265&lt;/b&gt;&lt;br&gt;aldo/keto reductase&lt;br&gt;Location: 518651 - 517647&lt;br&gt;&lt;br&gt;&lt;b&gt;BlastP hit with MCIC6FC_007888&lt;/b&gt;&lt;br&gt;Percentage identity: 56&lt;br&gt;Percentage coverage: 33&lt;br&gt;BLAST bit score: 148&lt;br&gt;E-value: 2e-33" locus_tag="HKK58_RS02265" class="clusterblast-orf" id="dummy-6_h6_2_2"  />
</g>
<g id="a6_003"  >
<polygon points="29,90 35,90 40,85 35,80 29,80 29,90 " style="fill:white; stroke-width:1; stroke:black; " description="&lt;b&gt;HKK58_RS02260&lt;/b&gt;&lt;br&gt;LysR family transcriptional regulator&lt;br&gt;Location: 517533 - 516640" locus_tag="HKK58_RS02260" class="clusterblast-orf" id="dummy-6_h6_2_3"  />
</g>
<g id="a6_004"  >
<polygon points="42,85 47,80 58,80 58,90 47,90 42,85 " style="fill:#4dd815; stroke-width:1; stroke:black; " description="&lt;b&gt;HKK58_RS02255&lt;/b&gt;&lt;br&gt;FAD-dependent oxidoreductase&lt;br&gt;Location: 516533 - 515238&lt;br&gt;&lt;br&gt;&lt;b&gt;BlastP hit with MCIC6FC_007888&lt;/b&gt;&lt;br&gt;Percentage identity: 97&lt;br&gt;Percentage coverage: 79&lt;br&gt;BLAST bit score: 814&lt;br&gt;E-value: 5.1e-234" locus_tag="HKK58_RS02255" class="clusterblast-orf" id="dummy-6_h6_2_4"  />
</g>
<g id="a6_005"  >
<polygon points="58,85 63,80 71,80 71,90 63,90 58,85 " style="fill:#15bcd8; stroke-width:1; stroke:black; " description="&lt;b&gt;HKK58_RS02250&lt;/b&gt;&lt;br&gt;polyamine ABC transporter substrate-binding protein&lt;br&gt;Location: 515241 - 514153&lt;br&gt;&lt;br&gt;&lt;b&gt;BlastP hit with MCIC6FC_007889&lt;/b&gt;&lt;br&gt;Percentage identity: 100&lt;br&gt;Percentage coverage: 100&lt;br&gt;BLAST bit score: 728&lt;br&gt;E-value: 2.5e-208" locus_tag="HKK58_RS02250" class="clusterblast-orf" id="dummy-6_h6_2_5"  />
</g>
<g id="a6_006"  >
<polygon points="72,85 77,80 88,80 88,90 77,90 72,85 " style="fill:#8515d8; stroke-width:1; stroke:black; " description="&lt;b&gt;HKK58_RS02245&lt;/b&gt;&lt;br&gt;glutamine synthetase&lt;br&gt;Location: 514129 - 512771&lt;br&gt;&lt;br&gt;&lt;b&gt;BlastP hit with MCIC6FC_007890&lt;/b&gt;&lt;br&gt;Percentage identity: 99&lt;br&gt;Percentage coverage: 100&lt;br&gt;BLAST bit score: 926&lt;br&gt;E-value: 1.4e-267" locus_tag="HKK58_RS02245" class="clusterblast-orf" id="dummy-6_h6_2_6"  />
</g>
<g id="a6_007"  >
<polygon points="90,90 96,90 101,85 96,80 90,80 90,90 " style="fill:#d84d15; stroke-width:1; stroke:black; " description="&lt;b&gt;HKK58_RS02240&lt;/b&gt;&lt;br&gt;helix-turn-helix domain-containing protein&lt;br&gt;Location: 512631 - 511735&lt;br&gt;&lt;br&gt;&lt;b&gt;BlastP hit with MCIC6FC_007891&lt;/b&gt;&lt;br&gt;Percentage identity: 97&lt;br&gt;Percentage coverage: 100&lt;br&gt;BLAST bit score: 593&lt;br&gt;E-value: 1.4e-167" locus_tag="HKK58_RS02240" class="clusterblast-orf" id="dummy-6_h6_2_7"  />
</g>
<g id="a6_008"  >
<polygon points="103,90 124,90 129,85 124,80 103,80 103,90 " style="fill:#15d815; stroke-width:1; stroke:black; " description="&lt;b&gt;HKK58_RS02235&lt;/b&gt;&lt;br&gt;TonB-dependent siderophore receptor&lt;br&gt;Location: 511637 - 509478&lt;br&gt;&lt;br&gt;&lt;b&gt;BlastP hit with MCIC6FC_007892&lt;/b&gt;&lt;br&gt;Percentage identity: 96&lt;br&gt;Percentage coverage: 100&lt;br&gt;BLAST bit score: 1397&lt;br&gt;E-value: 0.0" locus_tag="HKK58_RS02235" class="clusterblast-orf" id="dummy-6_h6_2_8"  />
</g>
<g id="a6_009"  >
<polygon points="129,85 134,80 143,80 143,90 134,90 129,85 " style="fill:#1585d8; stroke-width:1; stroke:black; " description="&lt;b&gt;HKK58_RS02230&lt;/b&gt;&lt;br&gt;MFS transporter&lt;br&gt;Location: 509488 - 508358&lt;br&gt;&lt;br&gt;&lt;b&gt;BlastP hit with MCIC6FC_007893&lt;/b&gt;&lt;br&gt;Percentage identity: 97&lt;br&gt;Percentage coverage: 99&lt;br&gt;BLAST bit score: 619&lt;br&gt;E-value: 1.6e-175" locus_tag="HKK58_RS02230" class="clusterblast-orf" id="dummy-6_h6_2_9"  />
</g>
<g id="a6_0010"  >
<polygon points="145,90 149,90 154,85 149,80 145,80 145,90 " style="fill:#bc15d8; stroke-width:1; stroke:black; " description="&lt;b&gt;HKK58_RS02225&lt;/b&gt;&lt;br&gt;helix-turn-helix transcriptional regulator&lt;br&gt;Location: 508260 - 507490&lt;br&gt;&lt;br&gt;&lt;b&gt;BlastP hit with MCIC6FC_007894&lt;/b&gt;&lt;br&gt;Percentage identity: 98&lt;br&gt;Percentage coverage: 100&lt;br&gt;BLAST bit score: 453&lt;br&gt;E-value: 9.9e-126" locus_tag="HKK58_RS02225" class="clusterblast-orf" id="dummy-6_h6_2_10"  />
</g>
<g id="a6_0011"  >
<polygon points="154,85 159,80 160,80 160,90 159,90 154,85 " style="fill:#d88515; stroke-width:1; stroke:black; " description="&lt;b&gt;HKK58_RS02220&lt;/b&gt;&lt;br&gt;carboxymuconolactone decarboxylase family protein&lt;br&gt;Location: 507485 - 507048&lt;br&gt;&lt;br&gt;&lt;b&gt;BlastP hit with MCIC6FC_007895&lt;/b&gt;&lt;br&gt;Percentage identity: 97&lt;br&gt;Percentage coverage: 100&lt;br&gt;BLAST bit score: 279&lt;br&gt;E-value: 1.6e-73" locus_tag="HKK58_RS02220" class="clusterblast-orf" id="dummy-6_h6_2_11"  />
</g>
<g id="a6_0012"  >
<polygon points="161,85 166,80 167,80 167,90 166,90 161,85 " style="fill:#15d84d; stroke-width:1; stroke:black; " description="&lt;b&gt;HKK58_RS02215&lt;/b&gt;&lt;br&gt;Lrp/AsnC family transcriptional regulator&lt;br&gt;Location: 506926 - 506456&lt;br&gt;&lt;br&gt;&lt;b&gt;BlastP hit with MCIC6FC_007896&lt;/b&gt;&lt;br&gt;Percentage identity: 99&lt;br&gt;Percentage coverage: 100&lt;br&gt;BLAST bit score: 305&lt;br&gt;E-value: 2.3e-81" locus_tag="HKK58_RS02215" class="clusterblast-orf" id="dummy-6_h6_2_12"  />
</g>
<g id="a6_0013"  >
<polygon points="169,90 179,90 184,85 179,80 169,80 169,90 " style="fill:#154dd8; stroke-width:1; stroke:black; " description="&lt;b&gt;HKK58_RS02210&lt;/b&gt;&lt;br&gt;methionine gamma-lyase&lt;br&gt;Location: 506332 - 505085&lt;br&gt;&lt;br&gt;&lt;b&gt;BlastP hit with MCIC6FC_007897&lt;/b&gt;&lt;br&gt;Percentage identity: 98&lt;br&gt;Percentage coverage: 100&lt;br&gt;BLAST bit score: 806&lt;br&gt;E-value: 1.1e-231" locus_tag="HKK58_RS02210" class="clusterblast-orf" id="dummy-6_h6_2_13"  />
</g>
<g id="a6_0014"  >
<polygon points="187,90 191,90 196,85 191,80 187,80 187,90 " style="fill:#d815bc; stroke-width:1; stroke:black; " description="&lt;b&gt;HKK58_RS02205&lt;/b&gt;&lt;br&gt;helix-turn-helix transcriptional regulator&lt;br&gt;Location: 504852 - 504175&lt;br&gt;&lt;br&gt;&lt;b&gt;BlastP hit with MCIC6FC_007898&lt;/b&gt;&lt;br&gt;Percentage identity: 100&lt;br&gt;Percentage coverage: 98&lt;br&gt;BLAST bit score: 438&lt;br&gt;E-value: 4.3e-121" locus_tag="HKK58_RS02205" class="clusterblast-orf" id="dummy-6_h6_2_14"  />
</g>
<g id="a6_0015"  >
<polygon points="196,85 201,80 221,80 221,90 201,90 196,85 " style="fill:#d8bc15; stroke-width:1; stroke:black; " description="&lt;b&gt;HKK58_RS02200&lt;/b&gt;&lt;br&gt;MacB family efflux pump subunit&lt;br&gt;Location: 504118 - 502160&lt;br&gt;&lt;br&gt;&lt;b&gt;BlastP hit with MCIC6FC_007899&lt;/b&gt;&lt;br&gt;Percentage identity: 100&lt;br&gt;Percentage coverage: 64&lt;br&gt;BLAST bit score: 1235&lt;br&gt;E-value: 0.0" locus_tag="HKK58_RS02200" class="clusterblast-orf" id="dummy-6_h6_2_15"  />
</g>
<g id="a6_0016"  >
<polygon points="221,85 226,80 235,80 235,90 226,90 221,85 " style="fill:#d8bc15; stroke-width:1; stroke:black; " description="&lt;b&gt;HKK58_RS02195&lt;/b&gt;&lt;br&gt;macrolide transporter subunit MacA&lt;br&gt;Location: 502156 - 501005&lt;br&gt;&lt;br&gt;&lt;b&gt;BlastP hit with MCIC6FC_007899&lt;/b&gt;&lt;br&gt;Percentage identity: 99&lt;br&gt;Percentage coverage: 36&lt;br&gt;BLAST bit score: 682&lt;br&gt;E-value: 5.9e-194" locus_tag="HKK58_RS02195" class="clusterblast-orf" id="dummy-6_h6_2_16"  />
</g>
<g id="a6_0017"  >
<polygon points="242,85 247,80 383,80 383,90 247,90 242,85 " style="fill:#15d885; stroke-width:1; stroke:black; " description="&lt;b&gt;HKK58_RS02190&lt;/b&gt;&lt;br&gt;amino acid adenylation domain-containing protein&lt;br&gt;Location: 500480 - 489156&lt;br&gt;&lt;br&gt;&lt;b&gt;BlastP hit with MCIC6FC_007900&lt;/b&gt;&lt;br&gt;Percentage identity: 98&lt;br&gt;Percentage coverage: 47&lt;br&gt;BLAST bit score: 7306&lt;br&gt;E-value: 0.0" locus_tag="HKK58_RS02190" class="clusterblast-orf" id="dummy-6_h6_2_17"  />
</g>
<g id="a6_0018"  >
<polygon points="383,85 388,80 544,80 544,90 388,90 383,85 " style="fill:#15d885; stroke-width:1; stroke:black; " description="&lt;b&gt;HKK58_RS02185&lt;/b&gt;&lt;br&gt;amino acid adenylation domain-containing protein&lt;br&gt;Location: 489159 - 476254&lt;br&gt;&lt;br&gt;&lt;b&gt;BlastP hit with MCIC6FC_007900&lt;/b&gt;&lt;br&gt;Percentage identity: 98&lt;br&gt;Percentage coverage: 54&lt;br&gt;BLAST bit score: 8251&lt;br&gt;E-value: 0.0" locus_tag="HKK58_RS02185" class="clusterblast-orf" id="dummy-6_h6_2_18"  />
</g>
<g id="a6_0019"  >
<polygon points="546,85 551,80 555,80 555,90 551,90 546,85 " style="fill:#1515d8; stroke-width:1; stroke:black; " description="&lt;b&gt;HKK58_RS02180&lt;/b&gt;&lt;br&gt;VWA domain-containing protein&lt;br&gt;Location: 476039 - 475308&lt;br&gt;&lt;br&gt;&lt;b&gt;BlastP hit with MCIC6FC_007901&lt;/b&gt;&lt;br&gt;Percentage identity: 97&lt;br&gt;Percentage coverage: 35&lt;br&gt;BLAST bit score: 363&lt;br&gt;E-value: 3.1e-98" locus_tag="HKK58_RS02180" class="clusterblast-orf" id="dummy-6_h6_2_19"  />
</g>
<g id="a6_0020"  >
<polygon points="554,85 559,80 567,80 567,90 559,90 554,85 " style="fill:#1515d8; stroke-width:1; stroke:black; " description="&lt;b&gt;HKK58_RS02175&lt;/b&gt;&lt;br&gt;AAA family ATPase&lt;br&gt;Location: 475383 - 474385&lt;br&gt;&lt;br&gt;&lt;b&gt;BlastP hit with MCIC6FC_007901&lt;/b&gt;&lt;br&gt;Percentage identity: 99&lt;br&gt;Percentage coverage: 61&lt;br&gt;BLAST bit score: 631&lt;br&gt;E-value: 1e-178" locus_tag="HKK58_RS02175" class="clusterblast-orf" id="dummy-6_h6_2_20"  />
</g>
<g id="a6_0021"  >
<polygon points="570,85 575,80 617,80 617,90 575,90 570,85 " style="fill:#1515d8; stroke-width:1; stroke:black; " description="&lt;b&gt;HKK58_RS02170&lt;/b&gt;&lt;br&gt;cobaltochelatase subunit CobN&lt;br&gt;Location: 474094 - 470333&lt;br&gt;&lt;br&gt;&lt;b&gt;BlastP hit with MCIC6FC_007902&lt;/b&gt;&lt;br&gt;Percentage identity: 99&lt;br&gt;Percentage coverage: 78&lt;br&gt;BLAST bit score: 2511&lt;br&gt;E-value: 0.0" locus_tag="HKK58_RS02170" class="clusterblast-orf" id="dummy-6_h6_2_21"  />
</g>
<g id="a6_0022"  >
<polygon points="617,85 622,80 631,80 631,90 622,90 617,85 " style="fill:#1515d8; stroke-width:1; stroke:black; " description="&lt;b&gt;HKK58_RS02165&lt;/b&gt;&lt;br&gt;cobalamin biosynthesis protein CobW&lt;br&gt;Location: 470329 - 469268&lt;br&gt;&lt;br&gt;&lt;b&gt;BlastP hit with MCIC6FC_007902&lt;/b&gt;&lt;br&gt;Percentage identity: 99&lt;br&gt;Percentage coverage: 22&lt;br&gt;BLAST bit score: 636&lt;br&gt;E-value: 5.8e-180" locus_tag="HKK58_RS02165" class="clusterblast-orf" id="dummy-6_h6_2_22"  />
</g>
<g id="a6_0023"  >
<polygon points="652,90 654,85 652,80 652,90 " style="fill:#d81585; stroke-width:1; stroke:black; " description="&lt;b&gt;HKK58_RS02160&lt;/b&gt;&lt;br&gt;CbtB-domain containing protein&lt;br&gt;Location: 467553 - 467365&lt;br&gt;&lt;br&gt;&lt;b&gt;BlastP hit with MCIC6FC_007903&lt;/b&gt;&lt;br&gt;Percentage identity: 100&lt;br&gt;Percentage coverage: 11&lt;br&gt;BLAST bit score: 81&lt;br&gt;E-value: 3.1e-13" locus_tag="HKK58_RS02160" class="clusterblast-orf" id="dummy-6_h6_2_23"  />
</g>
<g id="a6_0024"  >
<polygon points="654,90 658,90 663,85 658,80 654,80 654,90 " style="fill:#d81585; stroke-width:1; stroke:black; " description="&lt;b&gt;HKK58_RS02155&lt;/b&gt;&lt;br&gt;CbtA family protein&lt;br&gt;Location: 467353 - 466646&lt;br&gt;&lt;br&gt;&lt;b&gt;BlastP hit with MCIC6FC_007903&lt;/b&gt;&lt;br&gt;Percentage identity: 97&lt;br&gt;Percentage coverage: 51&lt;br&gt;BLAST bit score: 396&lt;br&gt;E-value: 3.4e-108" locus_tag="HKK58_RS02155" class="clusterblast-orf" id="dummy-6_h6_2_24"  />
</g>
<g id="a6_0025"  >
<polygon points="663,90 663,90 668,85 663,80 663,80 663,90 " style="fill:#d81585; stroke-width:1; stroke:black; " description="&lt;b&gt;HKK58_RS02150&lt;/b&gt;&lt;br&gt;cobalamin biosynthesis protein&lt;br&gt;Location: 466649 - 466257&lt;br&gt;&lt;br&gt;&lt;b&gt;BlastP hit with MCIC6FC_007903&lt;/b&gt;&lt;br&gt;Percentage identity: 96&lt;br&gt;Percentage coverage: 31&lt;br&gt;BLAST bit score: 237&lt;br&gt;E-value: 2e-60" locus_tag="HKK58_RS02150" class="clusterblast-orf" id="dummy-6_h6_2_25"  />
</g>
<g id="a6_0026"  >
<polygon points="669,90 673,90 678,85 673,80 669,80 669,90 " style="fill:#bcd815; stroke-width:1; stroke:black; " description="&lt;b&gt;HKK58_RS02145&lt;/b&gt;&lt;br&gt;precorrin-4 C(11)-methyltransferase&lt;br&gt;Location: 466187 - 465441&lt;br&gt;&lt;br&gt;&lt;b&gt;BlastP hit with MCIC6FC_007904&lt;/b&gt;&lt;br&gt;Percentage identity: 96&lt;br&gt;Percentage coverage: 100&lt;br&gt;BLAST bit score: 477&lt;br&gt;E-value: 7e-133" locus_tag="HKK58_RS02145" class="clusterblast-orf" id="dummy-6_h6_2_26"  />
</g>
<g id="a6_0027"  >
<polygon points="681,85 686,80 688,80 688,90 686,90 681,85 " style="fill:#15d8bc; stroke-width:1; stroke:black; " description="&lt;b&gt;HKK58_RS02140&lt;/b&gt;&lt;br&gt;Fe-S biogenesis protein NfuA&lt;br&gt;Location: 465229 - 464645&lt;br&gt;&lt;br&gt;&lt;b&gt;BlastP hit with MCIC6FC_007905&lt;/b&gt;&lt;br&gt;Percentage identity: 100&lt;br&gt;Percentage coverage: 100&lt;br&gt;BLAST bit score: 398&lt;br&gt;E-value: 3.2e-109" locus_tag="HKK58_RS02140" class="clusterblast-orf" id="dummy-6_h6_2_27"  />
</g>
<g id="a6_0028"  >
<polygon points="689,85 694,80 702,80 702,90 694,90 689,85 " style="fill:#4d15d8; stroke-width:1; stroke:black; " description="&lt;b&gt;HKK58_RS02135&lt;/b&gt;&lt;br&gt;acyltransferase&lt;br&gt;Location: 464585 - 463563&lt;br&gt;&lt;br&gt;&lt;b&gt;BlastP hit with MCIC6FC_007906&lt;/b&gt;&lt;br&gt;Percentage identity: 99&lt;br&gt;Percentage coverage: 100&lt;br&gt;BLAST bit score: 670&lt;br&gt;E-value: 7.7e-191" locus_tag="HKK58_RS02135" class="clusterblast-orf" id="dummy-6_h6_2_28"  />
</g>
<g id="a6_0029"  >
<polygon points="702,85 707,80 731,80 731,90 707,90 702,85 " style="fill:#d8154d; stroke-width:1; stroke:black; " description="&lt;b&gt;HKK58_RS02130&lt;/b&gt;&lt;br&gt;fatty acid cis/trans isomerase&lt;br&gt;Location: 463498 - 461192&lt;br&gt;&lt;br&gt;&lt;b&gt;BlastP hit with MCIC6FC_007907&lt;/b&gt;&lt;br&gt;Percentage identity: 97&lt;br&gt;Percentage coverage: 100&lt;br&gt;BLAST bit score: 1549&lt;br&gt;E-value: 0.0" locus_tag="HKK58_RS02130" class="clusterblast-orf" id="dummy-6_h6_2_29"  />
</g>
<g id="a6_0030"  >
<polygon points="733,90 775,90 780,85 775,80 733,80 733,90 " style="fill:#85d815; stroke-width:1; stroke:black; " description="&lt;b&gt;HKK58_RS02125&lt;/b&gt;&lt;br&gt;methionine synthase&lt;br&gt;Location: 461026 - 457316&lt;br&gt;&lt;br&gt;&lt;b&gt;BlastP hit with MCIC6FC_007908&lt;/b&gt;&lt;br&gt;Percentage identity: 99&lt;br&gt;Percentage coverage: 100&lt;br&gt;BLAST bit score: 2458&lt;br&gt;E-value: 0.0" locus_tag="HKK58_RS02125" class="clusterblast-orf" id="dummy-6_h6_2_30"  />
</g>
</svg>
