<svg xmlns="http://www.w3.org/2000/svg" xmlns:xlink="http://www.w3.org/1999/xlink" version="1.1" x="0" y="0" height="230" width="800" viewBox="0 0 800 230" preserveAspectRatio="none"  >
<g label="Query sequence" class="clusterblast-cluster"  >
<text x="5" y="20" class="clusterblast-acc"  >
Query sequence</text>
<line x1="10" y1="35" x2="778.0" y2="35" style="stroke-width:1; stroke:grey; "  />
<polygon points="169,40 172,40 177,35 172,30 169,30 169,40 " style="fill:#d81515; stroke-width:1; stroke:black; " description="&lt;b&gt;MCIC6FC_020138&lt;/b&gt;&lt;br&gt;hypothetical protein&lt;br&gt;Location: 114 - 687" locus_tag="MCIC6FC_020138" class="clusterblast-orf" id="dummy-1_q0_0_all"  />
<polygon points="180,40 189,40 194,35 189,30 180,30 180,40 " style="fill:#4dd815; stroke-width:1; stroke:black; " description="&lt;b&gt;MCIC6FC_020139&lt;/b&gt;&lt;br&gt;hypothetical protein&lt;br&gt;Location: 960 - 1943" locus_tag="MCIC6FC_020139" class="clusterblast-orf" id="dummy-1_q1_0_all"  />
<polygon points="209,40 221,40 226,35 221,30 209,30 209,40 " style="fill:#1585d8; stroke-width:1; stroke:black; " description="&lt;b&gt;MCIC6FC_020140&lt;/b&gt;&lt;br&gt;hypothetical protein&lt;br&gt;Location: 2996 - 4226" locus_tag="MCIC6FC_020140" class="clusterblast-orf" id="dummy-1_q2_0_all"  />
<polygon points="230,40 244,40 249,35 244,30 230,30 230,40 " style="fill:#d815bc; stroke-width:1; stroke:black; " description="&lt;b&gt;MCIC6FC_020141&lt;/b&gt;&lt;br&gt;hypothetical protein&lt;br&gt;Location: 4568 - 5893" locus_tag="MCIC6FC_020141" class="clusterblast-orf" id="dummy-1_q3_0_all"  />
<polygon points="250,35 255,30 272,30 272,40 255,40 250,35 " style="fill:white; stroke-width:1; stroke:black; " description="&lt;b&gt;MCIC6FC_020142&lt;/b&gt;&lt;br&gt;hypothetical protein&lt;br&gt;Location: 5948 - 7562" locus_tag="MCIC6FC_020142" class="clusterblast-orf" id="dummy-1_q4_0_all"  />
<polygon points="291,35 296,30 405,30 405,40 296,40 291,35 " style="fill:#d8bc15; stroke-width:1; stroke:black; " description="&lt;b&gt;MCIC6FC_020143&lt;/b&gt;&lt;br&gt;hypothetical protein&lt;br&gt;Location: 8925 - 17130" locus_tag="MCIC6FC_020143" class="clusterblast-orf" id="dummy-1_q5_0_all"  />
<polygon points="406,35 411,30 418,30 418,40 411,40 406,35 " style="fill:#d8bc15; stroke-width:1; stroke:black; " description="&lt;b&gt;MCIC6FC_020144&lt;/b&gt;&lt;br&gt;hypothetical protein&lt;br&gt;Location: 17218 - 18097" locus_tag="MCIC6FC_020144" class="clusterblast-orf" id="dummy-1_q6_0_all"  />
<polygon points="419,35 424,30 429,30 429,40 424,40 419,35 " style="fill:#d8bc15; stroke-width:1; stroke:black; " description="&lt;b&gt;MCIC6FC_020145&lt;/b&gt;&lt;br&gt;hypothetical protein&lt;br&gt;Location: 18194 - 18878" locus_tag="MCIC6FC_020145" class="clusterblast-orf" id="dummy-1_q7_0_all"  />
<polygon points="453,35 458,30 480,30 480,40 458,40 453,35 " style="fill:#15d885; stroke-width:1; stroke:black; " description="&lt;b&gt;MCIC6FC_020146&lt;/b&gt;&lt;br&gt;hypothetical protein&lt;br&gt;Location: 20591 - 22534" locus_tag="MCIC6FC_020146" class="clusterblast-orf" id="dummy-1_q8_0_all"  />
<polygon points="482,35 487,30 497,30 497,40 487,40 482,35 " style="fill:white; stroke-width:1; stroke:black; " description="&lt;b&gt;MCIC6FC_020147&lt;/b&gt;&lt;br&gt;hypothetical protein&lt;br&gt;Location: 22743 - 23808" locus_tag="MCIC6FC_020147" class="clusterblast-orf" id="dummy-1_q9_0_all"  />
<polygon points="497,35 502,30 522,30 522,40 502,40 497,35 " style="fill:white; stroke-width:1; stroke:black; " description="&lt;b&gt;MCIC6FC_020148&lt;/b&gt;&lt;br&gt;hypothetical protein&lt;br&gt;Location: 23809 - 25562" locus_tag="MCIC6FC_020148" class="clusterblast-orf" id="dummy-1_q10_0_all"  />
<polygon points="522,35 527,30 565,30 565,40 527,40 522,35 " style="fill:#4d15d8; stroke-width:1; stroke:black; " description="&lt;b&gt;MCIC6FC_020149&lt;/b&gt;&lt;br&gt;hypothetical protein&lt;br&gt;Location: 25630 - 28698" locus_tag="MCIC6FC_020149" class="clusterblast-orf" id="dummy-1_q11_0_all"  />
<polygon points="566,35 571,30 611,30 611,40 571,40 566,35 " style="fill:white; stroke-width:1; stroke:black; " description="&lt;b&gt;MCIC6FC_020150&lt;/b&gt;&lt;br&gt;hypothetical protein&lt;br&gt;Location: 28737 - 31983" locus_tag="MCIC6FC_020150" class="clusterblast-orf" id="dummy-1_q12_0_all"  />
</g>
<g label="NZ_QRAP01000006" description="NZ_QRAP01000006 (212899-270689): Enterobacillus tribolii strain DSM 103736 Ga... (3% of genes show similarity), NRPS" class="clusterblast-cluster"  >
<text x="5" y="70" class="clusterblast-acc"  >
<a xlink:href="https://antismash-db.secondarymetabolites.org/area.html?record=NZ_QRAP01000006&amp;start=212899&amp;end=270689" target="_blank">NZ_QRAP01000006 (212899-270689)</a>: Enterobacillus tribolii strain DSM 103736 Ga... (3% of genes show similarity), NRPS</text>
<line x1="10" y1="85" x2="778.0" y2="85" style="stroke-width:1; stroke:grey; "  />
</g>
<g id="a1_000"  >
<polygon points="0,90 4,90 9,85 4,80 0,80 0,90 " style="fill:white; stroke-width:1; stroke:black; " description="&lt;b&gt;C8D90_RS14470&lt;/b&gt;&lt;br&gt;NUDIX hydrolase&lt;br&gt;Location: 270385 - 269666" locus_tag="C8D90_RS14470" class="clusterblast-orf" id="dummy-1_h1_5_0"  />
</g>
<g id="a1_001"  >
<polygon points="10,85 15,80 43,80 43,90 15,90 10,85 " style="fill:white; stroke-width:1; stroke:black; " description="&lt;b&gt;C8D90_RS14465&lt;/b&gt;&lt;br&gt;ABC transporter permease&lt;br&gt;Location: 269629 - 267212" locus_tag="C8D90_RS14465" class="clusterblast-orf" id="dummy-1_h1_5_1"  />
</g>
<g id="a1_002"  >
<polygon points="43,85 48,80 53,80 53,90 48,90 43,85 " style="fill:#4d15d8; stroke-width:1; stroke:black; " description="&lt;b&gt;C8D90_RS21990&lt;/b&gt;&lt;br&gt;ABC transporter ATP-binding protein&lt;br&gt;Location: 267215 - 266529&lt;br&gt;&lt;br&gt;&lt;b&gt;BlastP hit with MCIC6FC_020149&lt;/b&gt;&lt;br&gt;Percentage identity: 32&lt;br&gt;Percentage coverage: 19&lt;br&gt;BLAST bit score: 71&lt;br&gt;E-value: 4.2e-10" locus_tag="C8D90_RS21990" class="clusterblast-orf" id="dummy-1_h1_5_2"  />
</g>
<g id="a1_003"  >
<polygon points="53,90 56,90 61,85 56,80 53,80 53,90 " style="fill:white; stroke-width:1; stroke:black; " description="&lt;b&gt;C8D90_RS21985&lt;/b&gt;&lt;br&gt;multifunctional acyl-CoA thioesterase I/protease I/lysophospholipase L1&lt;br&gt;Location: 266561 - 265917" locus_tag="C8D90_RS21985" class="clusterblast-orf" id="dummy-1_h1_5_3"  />
</g>
<g id="a1_004"  >
<polygon points="64,90 69,90 74,85 69,80 64,80 64,90 " style="fill:white; stroke-width:1; stroke:black; " description="&lt;b&gt;C8D90_RS14450&lt;/b&gt;&lt;br&gt;SDR family oxidoreductase&lt;br&gt;Location: 265749 - 264976" locus_tag="C8D90_RS14450" class="clusterblast-orf" id="dummy-1_h1_5_4"  />
</g>
<g id="a1_005"  >
<polygon points="77,90 84,90 89,85 84,80 77,80 77,90 " style="fill:white; stroke-width:1; stroke:black; " description="&lt;b&gt;C8D90_RS14445&lt;/b&gt;&lt;br&gt;co-chaperone YbbN&lt;br&gt;Location: 264811 - 263951" locus_tag="C8D90_RS14445" class="clusterblast-orf" id="dummy-1_h1_5_5"  />
</g>
<g id="a1_006"  >
<polygon points="91,90 95,90 100,85 95,80 91,80 91,90 " style="fill:white; stroke-width:1; stroke:black; " description="&lt;b&gt;C8D90_RS14440&lt;/b&gt;&lt;br&gt;peptidoglycan DD-metalloendopeptidase family protein&lt;br&gt;Location: 263781 - 263122" locus_tag="C8D90_RS14440" class="clusterblast-orf" id="dummy-1_h1_5_6"  />
</g>
<g id="a1_007"  >
<polygon points="105,90 115,90 120,85 115,80 105,80 105,90 " style="fill:white; stroke-width:1; stroke:black; " description="&lt;b&gt;C8D90_RS14435&lt;/b&gt;&lt;br&gt;M20 family metallopeptidase&lt;br&gt;Location: 262798 - 261686" locus_tag="C8D90_RS14435" class="clusterblast-orf" id="dummy-1_h1_5_7"  />
</g>
<g id="a1_008"  >
<polygon points="120,85 125,80 137,80 137,90 125,90 120,85 " style="fill:white; stroke-width:1; stroke:black; " description="&lt;b&gt;C8D90_RS14430&lt;/b&gt;&lt;br&gt;MFS transporter&lt;br&gt;Location: 261702 - 260449" locus_tag="C8D90_RS14430" class="clusterblast-orf" id="dummy-1_h1_5_8"  />
</g>
<g id="a1_009"  >
<polygon points="138,85 143,80 155,80 155,90 143,90 138,85 " style="fill:white; stroke-width:1; stroke:black; " description="&lt;b&gt;C8D90_RS14425&lt;/b&gt;&lt;br&gt;ATP-grasp domain-containing protein&lt;br&gt;Location: 260388 - 259132" locus_tag="C8D90_RS14425" class="clusterblast-orf" id="dummy-1_h1_5_9"  />
</g>
<g id="a1_0010"  >
<polygon points="156,85 161,80 166,80 166,90 161,90 156,85 " style="fill:white; stroke-width:1; stroke:black; " description="&lt;b&gt;C8D90_RS14420&lt;/b&gt;&lt;br&gt;SDR family oxidoreductase&lt;br&gt;Location: 259102 - 258362" locus_tag="C8D90_RS14420" class="clusterblast-orf" id="dummy-1_h1_5_10"  />
</g>
<g id="a1_0011"  >
<polygon points="166,85 171,80 176,80 176,90 171,90 166,85 " style="fill:white; stroke-width:1; stroke:black; " description="&lt;b&gt;C8D90_RS14415&lt;/b&gt;&lt;br&gt;2OG-Fe dioxygenase family protein&lt;br&gt;Location: 258365 - 257631" locus_tag="C8D90_RS14415" class="clusterblast-orf" id="dummy-1_h1_5_11"  />
</g>
<g id="a1_0012"  >
<polygon points="178,85 183,80 190,80 190,90 183,90 178,85 " style="fill:white; stroke-width:1; stroke:black; " description="&lt;b&gt;C8D90_RS14410&lt;/b&gt;&lt;br&gt;hypothetical protein&lt;br&gt;Location: 257527 - 256640" locus_tag="C8D90_RS14410" class="clusterblast-orf" id="dummy-1_h1_5_12"  />
</g>
<g id="a1_0013"  >
<polygon points="191,85 196,80 204,80 204,90 196,90 191,85 " style="fill:white; stroke-width:1; stroke:black; " description="&lt;b&gt;C8D90_RS14405&lt;/b&gt;&lt;br&gt;transporter substrate-binding domain-containing protein&lt;br&gt;Location: 256606 - 255635" locus_tag="C8D90_RS14405" class="clusterblast-orf" id="dummy-1_h1_5_13"  />
</g>
<g id="a1_0014"  >
<polygon points="206,90 213,90 218,85 213,80 206,80 206,90 " style="fill:white; stroke-width:1; stroke:black; " description="&lt;b&gt;C8D90_RS14400&lt;/b&gt;&lt;br&gt;LysR family transcriptional regulator&lt;br&gt;Location: 255519 - 254602" locus_tag="C8D90_RS14400" class="clusterblast-orf" id="dummy-1_h1_5_14"  />
</g>
<g id="a1_0015"  >
<polygon points="220,90 223,85 220,80 220,90 " style="fill:white; stroke-width:1; stroke:black; " description="&lt;b&gt;C8D90_RS14395&lt;/b&gt;&lt;br&gt;DUF465 domain-containing protein&lt;br&gt;Location: 254483 - 254256" locus_tag="C8D90_RS14395" class="clusterblast-orf" id="dummy-1_h1_5_15"  />
</g>
<g id="a1_0016"  >
<polygon points="225,85 230,80 243,80 243,90 230,90 225,85 " style="fill:white; stroke-width:1; stroke:black; " description="&lt;b&gt;C8D90_RS14390&lt;/b&gt;&lt;br&gt;phosphopyruvate hydratase&lt;br&gt;Location: 254151 - 252853" locus_tag="C8D90_RS14390" class="clusterblast-orf" id="dummy-1_h1_5_16"  />
</g>
<g id="a1_0017"  >
<polygon points="244,85 249,80 266,80 266,90 249,90 244,85 " style="fill:white; stroke-width:1; stroke:black; " description="&lt;b&gt;C8D90_RS14385&lt;/b&gt;&lt;br&gt;CTP synthase (glutamine hydrolyzing)&lt;br&gt;Location: 252775 - 251138" locus_tag="C8D90_RS14385" class="clusterblast-orf" id="dummy-1_h1_5_17"  />
</g>
<g id="a1_0018"  >
<polygon points="273,85 278,80 311,80 311,90 278,90 273,85 " style="fill:#d8bc15; stroke-width:1; stroke:black; " description="&lt;b&gt;C8D90_RS14380&lt;/b&gt;&lt;br&gt;AMP-binding protein&lt;br&gt;Location: 250689 - 247924&lt;br&gt;&lt;br&gt;&lt;b&gt;BlastP hit with MCIC6FC_020143&lt;/b&gt;&lt;br&gt;Percentage identity: 36&lt;br&gt;Percentage coverage: 38&lt;br&gt;BLAST bit score: 436&lt;br&gt;E-value: 1.5e-119" locus_tag="C8D90_RS14380" class="clusterblast-orf" id="dummy-1_h1_5_18"  />
</g>
<g id="a1_0019"  >
<polygon points="320,85 325,80 331,80 331,90 325,90 320,85 " style="fill:white; stroke-width:1; stroke:black; " description="&lt;b&gt;C8D90_RS14375&lt;/b&gt;&lt;br&gt;nucleoside triphosphate pyrophosphohydrolase&lt;br&gt;Location: 247236 - 246445" locus_tag="C8D90_RS14375" class="clusterblast-orf" id="dummy-1_h1_5_19"  />
</g>
<g id="a1_0020"  >
<polygon points="336,90 344,90 349,85 344,80 336,80 336,90 " style="fill:white; stroke-width:1; stroke:black; " description="&lt;b&gt;C8D90_RS14370&lt;/b&gt;&lt;br&gt;hypothetical protein&lt;br&gt;Location: 246085 - 245138" locus_tag="C8D90_RS14370" class="clusterblast-orf" id="dummy-1_h1_5_20"  />
</g>
<g id="a1_0021"  >
<polygon points="351,85 356,80 379,80 379,90 356,90 351,85 " style="fill:white; stroke-width:1; stroke:black; " description="&lt;b&gt;C8D90_RS14365&lt;/b&gt;&lt;br&gt;phenylacetic acid degradation bifunctional protein PaaZ&lt;br&gt;Location: 245054 - 242994" locus_tag="C8D90_RS14365" class="clusterblast-orf" id="dummy-1_h1_5_21"  />
</g>
<g id="a1_0022"  >
<polygon points="384,90 392,90 397,85 392,80 384,80 384,90 " style="fill:white; stroke-width:1; stroke:black; " description="&lt;b&gt;C8D90_RS14360&lt;/b&gt;&lt;br&gt;1,2-phenylacetyl-CoA epoxidase subunit A&lt;br&gt;Location: 242671 - 241736" locus_tag="C8D90_RS14360" class="clusterblast-orf" id="dummy-1_h1_5_22"  />
</g>
<g id="a1_0023"  >
<polygon points="397,90 401,85 397,80 397,90 " style="fill:white; stroke-width:1; stroke:black; " description="&lt;b&gt;C8D90_RS14355&lt;/b&gt;&lt;br&gt;1,2-phenylacetyl-CoA epoxidase subunit B&lt;br&gt;Location: 241711 - 241424" locus_tag="C8D90_RS14355" class="clusterblast-orf" id="dummy-1_h1_5_23"  />
</g>
<g id="a1_0024"  >
<polygon points="401,90 407,90 412,85 407,80 401,80 401,90 " style="fill:white; stroke-width:1; stroke:black; " description="&lt;b&gt;C8D90_RS14350&lt;/b&gt;&lt;br&gt;phenylacetate-CoA oxygenase subunit PaaC&lt;br&gt;Location: 241414 - 240653" locus_tag="C8D90_RS14350" class="clusterblast-orf" id="dummy-1_h1_5_24"  />
</g>
<g id="a1_0025"  >
<polygon points="412,90 414,90 419,85 414,80 412,80 412,90 " style="fill:white; stroke-width:1; stroke:black; " description="&lt;b&gt;C8D90_RS14345&lt;/b&gt;&lt;br&gt;phenylacetate-CoA oxygenase subunit PaaJ&lt;br&gt;Location: 240625 - 240116" locus_tag="C8D90_RS14345" class="clusterblast-orf" id="dummy-1_h1_5_25"  />
</g>
<g id="a1_0026"  >
<polygon points="419,90 429,90 434,85 429,80 419,80 419,90 " style="fill:white; stroke-width:1; stroke:black; " description="&lt;b&gt;C8D90_RS14340&lt;/b&gt;&lt;br&gt;phenylacetate-CoA oxygenase/reductase subunit PaaK&lt;br&gt;Location: 240098 - 239043" locus_tag="C8D90_RS14340" class="clusterblast-orf" id="dummy-1_h1_5_26"  />
</g>
<g id="a1_0027"  >
<polygon points="434,90 440,90 445,85 440,80 434,80 434,90 " style="fill:white; stroke-width:1; stroke:black; " description="&lt;b&gt;C8D90_RS14335&lt;/b&gt;&lt;br&gt;2,3-dehydroadipyl-CoA hydratase&lt;br&gt;Location: 239033 - 238260" locus_tag="C8D90_RS14335" class="clusterblast-orf" id="dummy-1_h1_5_27"  />
</g>
<g id="a1_0028"  >
<polygon points="445,90 451,90 456,85 451,80 445,80 445,90 " style="fill:white; stroke-width:1; stroke:black; " description="&lt;b&gt;C8D90_RS14330&lt;/b&gt;&lt;br&gt;2-(1,2-epoxy-1,2-dihydrophenyl)acetyl-CoA isomerase&lt;br&gt;Location: 238255 - 237464" locus_tag="C8D90_RS14330" class="clusterblast-orf" id="dummy-1_h1_5_28"  />
</g>
<g id="a1_0029"  >
<polygon points="456,90 472,90 477,85 472,80 456,80 456,90 " style="fill:white; stroke-width:1; stroke:black; " description="&lt;b&gt;C8D90_RS14325&lt;/b&gt;&lt;br&gt;3-hydroxyacyl-CoA dehydrogenase&lt;br&gt;Location: 237461 - 235914" locus_tag="C8D90_RS14325" class="clusterblast-orf" id="dummy-1_h1_5_29"  />
</g>
<g id="a1_0030"  >
<polygon points="477,90 478,90 483,85 478,80 477,80 477,90 " style="fill:white; stroke-width:1; stroke:black; " description="&lt;b&gt;C8D90_RS14320&lt;/b&gt;&lt;br&gt;hydroxyphenylacetyl-CoA thioesterase PaaI&lt;br&gt;Location: 235917 - 235477" locus_tag="C8D90_RS14320" class="clusterblast-orf" id="dummy-1_h1_5_30"  />
</g>
<g id="a1_0031"  >
<polygon points="483,90 495,90 500,85 495,80 483,80 483,90 " style="fill:white; stroke-width:1; stroke:black; " description="&lt;b&gt;C8D90_RS14315&lt;/b&gt;&lt;br&gt;3-oxoadipyl-CoA thiolase&lt;br&gt;Location: 235480 - 234275" locus_tag="C8D90_RS14315" class="clusterblast-orf" id="dummy-1_h1_5_31"  />
</g>
<g id="a1_0032"  >
<polygon points="501,90 514,90 519,85 514,80 501,80 501,90 " style="fill:white; stroke-width:1; stroke:black; " description="&lt;b&gt;C8D90_RS14310&lt;/b&gt;&lt;br&gt;phenylacetate--CoA ligase&lt;br&gt;Location: 234210 - 232900" locus_tag="C8D90_RS14310" class="clusterblast-orf" id="dummy-1_h1_5_32"  />
</g>
<g id="a1_0033"  >
<polygon points="521,90 530,90 535,85 530,80 521,80 521,90 " style="fill:white; stroke-width:1; stroke:black; " description="&lt;b&gt;C8D90_RS14305&lt;/b&gt;&lt;br&gt;phenylacetic acid degradation operon negative regulatory protein PaaX&lt;br&gt;Location: 232729 - 231788" locus_tag="C8D90_RS14305" class="clusterblast-orf" id="dummy-1_h1_5_33"  />
</g>
<g id="a1_0034"  >
<polygon points="535,90 538,90 543,85 538,80 535,80 535,90 " style="fill:white; stroke-width:1; stroke:black; " description="&lt;b&gt;C8D90_RS14300&lt;/b&gt;&lt;br&gt;phenylacetic acid degradation protein PaaY&lt;br&gt;Location: 231775 - 231173" locus_tag="C8D90_RS14300" class="clusterblast-orf" id="dummy-1_h1_5_34"  />
</g>
<g id="a1_0035"  >
<polygon points="544,85 549,80 549,80 549,90 549,90 544,85 " style="fill:white; stroke-width:1; stroke:black; " description="&lt;b&gt;C8D90_RS14295&lt;/b&gt;&lt;br&gt;holo-ACP synthase&lt;br&gt;Location: 231116 - 230736" locus_tag="C8D90_RS14295" class="clusterblast-orf" id="dummy-1_h1_5_35"  />
</g>
<g id="a1_0036"  >
<polygon points="549,85 554,80 559,80 559,90 554,90 549,85 " style="fill:white; stroke-width:1; stroke:black; " description="&lt;b&gt;C8D90_RS14290&lt;/b&gt;&lt;br&gt;pyridoxine 5'-phosphate synthase&lt;br&gt;Location: 230736 - 230005" locus_tag="C8D90_RS14290" class="clusterblast-orf" id="dummy-1_h1_5_36"  />
</g>
<g id="a1_0037"  >
<polygon points="561,85 566,80 571,80 571,90 566,90 561,85 " style="fill:white; stroke-width:1; stroke:black; " description="&lt;b&gt;C8D90_RS14285&lt;/b&gt;&lt;br&gt;DNA repair protein RecO&lt;br&gt;Location: 229910 - 229188" locus_tag="C8D90_RS14285" class="clusterblast-orf" id="dummy-1_h1_5_37"  />
</g>
<g id="a1_0038"  >
<polygon points="571,85 576,80 583,80 583,90 576,90 571,85 " style="fill:white; stroke-width:1; stroke:black; " description="&lt;b&gt;C8D90_RS14280&lt;/b&gt;&lt;br&gt;GTPase Era&lt;br&gt;Location: 229176 - 228271" locus_tag="C8D90_RS14280" class="clusterblast-orf" id="dummy-1_h1_5_38"  />
</g>
<g id="a1_0039"  >
<polygon points="583,85 588,80 593,80 593,90 588,90 583,85 " style="fill:white; stroke-width:1; stroke:black; " description="&lt;b&gt;C8D90_RS14275&lt;/b&gt;&lt;br&gt;ribonuclease III&lt;br&gt;Location: 228274 - 227594" locus_tag="C8D90_RS14275" class="clusterblast-orf" id="dummy-1_h1_5_39"  />
</g>
<g id="a1_0040"  >
<polygon points="596,85 601,80 610,80 610,90 601,90 596,85 " style="fill:white; stroke-width:1; stroke:black; " description="&lt;b&gt;C8D90_RS14270&lt;/b&gt;&lt;br&gt;signal peptidase I&lt;br&gt;Location: 227332 - 226361" locus_tag="C8D90_RS14270" class="clusterblast-orf" id="dummy-1_h1_5_40"  />
</g>
<g id="a1_0041"  >
<polygon points="610,85 615,80 635,80 635,90 615,90 610,85 " style="fill:white; stroke-width:1; stroke:black; " description="&lt;b&gt;C8D90_RS14265&lt;/b&gt;&lt;br&gt;elongation factor 4&lt;br&gt;Location: 226342 - 224543" locus_tag="C8D90_RS14265" class="clusterblast-orf" id="dummy-1_h1_5_41"  />
</g>
<g id="a1_0042"  >
<polygon points="637,85 642,80 644,80 644,90 642,90 637,85 " style="fill:white; stroke-width:1; stroke:black; " description="&lt;b&gt;C8D90_RS14260&lt;/b&gt;&lt;br&gt;SoxR-reducing system protein RseC&lt;br&gt;Location: 224378 - 223908" locus_tag="C8D90_RS14260" class="clusterblast-orf" id="dummy-1_h1_5_42"  />
</g>
<g id="a1_0043"  >
<polygon points="644,85 649,80 658,80 658,90 649,90 644,85 " style="fill:white; stroke-width:1; stroke:black; " description="&lt;b&gt;C8D90_RS14255&lt;/b&gt;&lt;br&gt;sigma-E factor regulatory protein RseB&lt;br&gt;Location: 223897 - 222896" locus_tag="C8D90_RS14255" class="clusterblast-orf" id="dummy-1_h1_5_43"  />
</g>
<g id="a1_0044"  >
<polygon points="658,85 663,80 667,80 667,90 663,90 658,85 " style="fill:white; stroke-width:1; stroke:black; " description="&lt;b&gt;C8D90_RS14250&lt;/b&gt;&lt;br&gt;anti-sigma-E factor RseA&lt;br&gt;Location: 222896 - 222252" locus_tag="C8D90_RS14250" class="clusterblast-orf" id="dummy-1_h1_5_44"  />
</g>
<g id="a1_0045"  >
<polygon points="667,85 672,80 675,80 675,90 672,90 667,85 " style="fill:white; stroke-width:1; stroke:black; " description="&lt;b&gt;C8D90_RS14245&lt;/b&gt;&lt;br&gt;RNA polymerase sigma factor RpoE&lt;br&gt;Location: 222222 - 221647" locus_tag="C8D90_RS14245" class="clusterblast-orf" id="dummy-1_h1_5_45"  />
</g>
<g id="a1_0046"  >
<polygon points="678,90 695,90 700,85 695,80 678,80 678,90 " style="fill:white; stroke-width:1; stroke:black; " description="&lt;b&gt;C8D90_RS14240&lt;/b&gt;&lt;br&gt;L-aspartate oxidase&lt;br&gt;Location: 221433 - 219832" locus_tag="C8D90_RS14240" class="clusterblast-orf" id="dummy-1_h1_5_46"  />
</g>
<g id="a1_0047"  >
<polygon points="700,85 705,80 711,80 711,90 705,90 700,85 " style="fill:white; stroke-width:1; stroke:black; " description="&lt;b&gt;C8D90_RS14235&lt;/b&gt;&lt;br&gt;tRNA1(Val) (adenine(37)-N6)-methyltransferase&lt;br&gt;Location: 219829 - 219083" locus_tag="C8D90_RS14235" class="clusterblast-orf" id="dummy-1_h1_5_47"  />
</g>
<g id="a1_0048"  >
<polygon points="713,90 726,90 731,85 726,80 713,80 713,90 " style="fill:white; stroke-width:1; stroke:black; " description="&lt;b&gt;C8D90_RS14230&lt;/b&gt;&lt;br&gt;ATP-dependent RNA helicase SrmB&lt;br&gt;Location: 218947 - 217616" locus_tag="C8D90_RS14230" class="clusterblast-orf" id="dummy-1_h1_5_48"  />
</g>
<g id="a1_0049"  >
<polygon points="736,85 741,80 742,80 742,90 741,90 736,85 " style="fill:white; stroke-width:1; stroke:black; " description="&lt;b&gt;C8D90_RS14225&lt;/b&gt;&lt;br&gt;autonomous glycyl radical cofactor GrcA&lt;br&gt;Location: 217241 - 216858" locus_tag="C8D90_RS14225" class="clusterblast-orf" id="dummy-1_h1_5_49"  />
</g>
<g id="a1_0050"  >
<polygon points="747,90 751,90 756,85 751,80 747,80 747,90 " style="fill:white; stroke-width:1; stroke:black; " description="&lt;b&gt;C8D90_RS14220&lt;/b&gt;&lt;br&gt;uracil-DNA glycosylase&lt;br&gt;Location: 216474 - 215779" locus_tag="C8D90_RS14220" class="clusterblast-orf" id="dummy-1_h1_5_50"  />
</g>
<g id="a1_0051"  >
<polygon points="757,85 762,80 766,80 766,90 762,90 757,85 " style="fill:white; stroke-width:1; stroke:black; " description="&lt;b&gt;C8D90_RS14215&lt;/b&gt;&lt;br&gt;nucleotide exchange factor GrpE&lt;br&gt;Location: 215705 - 215118" locus_tag="C8D90_RS14215" class="clusterblast-orf" id="dummy-1_h1_5_51"  />
</g>
<g id="a1_0052"  >
<polygon points="767,90 775,90 780,85 775,80 767,80 767,90 " style="fill:white; stroke-width:1; stroke:black; " description="&lt;b&gt;C8D90_RS14210&lt;/b&gt;&lt;br&gt;NAD(+) kinase&lt;br&gt;Location: 214995 - 214117" locus_tag="C8D90_RS14210" class="clusterblast-orf" id="dummy-1_h1_5_52"  />
</g>
</svg>
