<svg xmlns="http://www.w3.org/2000/svg" xmlns:xlink="http://www.w3.org/1999/xlink" version="1.1" x="0" y="0" height="230" width="800" viewBox="0 0 800 230" preserveAspectRatio="none"  >
<g label="Query sequence" class="clusterblast-cluster"  >
<text x="5" y="20" class="clusterblast-acc"  >
Query sequence</text>
<line x1="10" y1="35" x2="778.0" y2="35" style="stroke-width:1; stroke:grey; "  />
<polygon points="38,35 43,30 68,30 68,40 43,40 38,35 " style="fill:#d81515; stroke-width:1; stroke:black; " description="&lt;b&gt;MCIC6FC_005696&lt;/b&gt;&lt;br&gt;hypothetical protein&lt;br&gt;Location: 1757129 - 1757963" locus_tag="MCIC6FC_005696" class="clusterblast-orf" id="dummy-2_q0_0_all"  />
<polygon points="79,40 125,40 130,35 125,30 79,30 79,40 " style="fill:#77d815; stroke-width:1; stroke:black; " description="&lt;b&gt;MCIC6FC_005697&lt;/b&gt;&lt;br&gt;hypothetical protein&lt;br&gt;Location: 1758257 - 1759641" locus_tag="MCIC6FC_005697" class="clusterblast-orf" id="dummy-2_q1_0_all"  />
<polygon points="131,35 136,30 180,30 180,40 136,40 131,35 " style="fill:#15d8d8; stroke-width:1; stroke:black; " description="&lt;b&gt;MCIC6FC_005698&lt;/b&gt;&lt;br&gt;hypothetical protein&lt;br&gt;Location: 1759686 - 1761017" locus_tag="MCIC6FC_005698" class="clusterblast-orf" id="dummy-2_q2_0_all"  />
<polygon points="183,40 212,40 217,35 212,30 183,30 183,40 " style="fill:#7715d8; stroke-width:1; stroke:black; " description="&lt;b&gt;MCIC6FC_005699&lt;/b&gt;&lt;br&gt;hypothetical protein&lt;br&gt;Location: 1761096 - 1762032" locus_tag="MCIC6FC_005699" class="clusterblast-orf" id="dummy-2_q3_0_all"  />
<polygon points="222,40 232,40 237,35 232,30 222,30 222,40 " style="fill:#d87715; stroke-width:1; stroke:black; " description="&lt;b&gt;MCIC6FC_005700&lt;/b&gt;&lt;br&gt;hypothetical protein&lt;br&gt;Location: 1762158 - 1762563" locus_tag="MCIC6FC_005700" class="clusterblast-orf" id="dummy-2_q4_0_all"  />
<polygon points="239,40 267,40 272,35 267,30 239,30 239,40 " style="fill:#15d815; stroke-width:1; stroke:black; " description="&lt;b&gt;MCIC6FC_005701&lt;/b&gt;&lt;br&gt;hypothetical protein&lt;br&gt;Location: 1762625 - 1763526" locus_tag="MCIC6FC_005701" class="clusterblast-orf" id="dummy-2_q5_0_all"  />
<polygon points="294,35 299,30 357,30 357,40 299,40 294,35 " style="fill:#1577d8; stroke-width:1; stroke:black; " description="&lt;b&gt;MCIC6FC_005702&lt;/b&gt;&lt;br&gt;hypothetical protein&lt;br&gt;Location: 1764136 - 1765840" locus_tag="MCIC6FC_005702" class="clusterblast-orf" id="dummy-2_q6_0_all"  />
<polygon points="365,40 465,40 470,35 465,30 365,30 365,40 " style="fill:#d815d8; stroke-width:1; stroke:black; " description="&lt;b&gt;MCIC6FC_005703&lt;/b&gt;&lt;br&gt;hypothetical protein&lt;br&gt;Location: 1766068 - 1768941" locus_tag="MCIC6FC_005703" class="clusterblast-orf" id="dummy-2_q7_0_all"  />
<polygon points="471,40 567,40 572,35 567,30 471,30 471,40 " style="fill:#d8d815; stroke-width:1; stroke:black; " description="&lt;b&gt;MCIC6FC_005704&lt;/b&gt;&lt;br&gt;hypothetical protein&lt;br&gt;Location: 1768958 - 1771718" locus_tag="MCIC6FC_005704" class="clusterblast-orf" id="dummy-2_q8_0_all"  />
<polygon points="573,35 578,30 598,30 598,40 578,40 573,35 " style="fill:#15d877; stroke-width:1; stroke:black; " description="&lt;b&gt;MCIC6FC_005705&lt;/b&gt;&lt;br&gt;hypothetical protein&lt;br&gt;Location: 1771740 - 1772436" locus_tag="MCIC6FC_005705" class="clusterblast-orf" id="dummy-2_q9_0_all"  />
<polygon points="603,40 671,40 676,35 671,30 603,30 603,40 " style="fill:#1515d8; stroke-width:1; stroke:black; " description="&lt;b&gt;MCIC6FC_005706&lt;/b&gt;&lt;br&gt;hypothetical protein&lt;br&gt;Location: 1772567 - 1774554" locus_tag="MCIC6FC_005706" class="clusterblast-orf" id="dummy-2_q10_0_all"  />
<polygon points="677,35 682,30 694,30 694,40 682,40 677,35 " style="fill:#d81577; stroke-width:1; stroke:black; " description="&lt;b&gt;MCIC6FC_005707&lt;/b&gt;&lt;br&gt;hypothetical protein&lt;br&gt;Location: 1774590 - 1775046" locus_tag="MCIC6FC_005707" class="clusterblast-orf" id="dummy-2_q11_0_all"  />
<polygon points="698,40 737,40 742,35 737,30 698,30 698,40 " style="fill:white; stroke-width:1; stroke:black; " description="&lt;b&gt;MCIC6FC_005708&lt;/b&gt;&lt;br&gt;hypothetical protein&lt;br&gt;Location: 1775150 - 1776370" locus_tag="MCIC6FC_005708" class="clusterblast-orf" id="dummy-2_q12_0_all"  />
</g>
<g label="NZ_MOBW01000060" description="NZ_MOBW01000060 (74469-97735): Pseudomonas chlororaphis strain 48G9 48G9 NODE... (73% of genes show similarity), betalactone" class="clusterblast-cluster"  >
<text x="5" y="70" class="clusterblast-acc"  >
<a xlink:href="https://antismash-db.secondarymetabolites.org/area.html?record=NZ_MOBW01000060&amp;start=74469&amp;end=97735" target="_blank">NZ_MOBW01000060 (74469-97735)</a>: Pseudomonas chlororaphis strain 48G9 48G9 NODE... (73% of genes show similarity), betalactone</text>
<line x1="10" y1="85" x2="778.0" y2="85" style="stroke-width:1; stroke:grey; "  />
</g>
<g id="a2_000"  >
<polygon points="0,85 5,80 63,80 63,90 5,90 0,85 " style="fill:white; stroke-width:1; stroke:black; " description="&lt;b&gt;BK635_RS15965&lt;/b&gt;&lt;br&gt;outer membrane protein assembly factor&lt;br&gt;Location: 96367 - 94640" locus_tag="BK635_RS15965" class="clusterblast-orf" id="dummy-2_h2_1_0"  />
</g>
<g id="a2_001"  >
<polygon points="65,85 70,80 89,80 89,90 70,90 65,85 " style="fill:white; stroke-width:1; stroke:black; " description="&lt;b&gt;BK635_RS15960&lt;/b&gt;&lt;br&gt;GNAT family N-acetyltransferase&lt;br&gt;Location: 94576 - 93926" locus_tag="BK635_RS15960" class="clusterblast-orf" id="dummy-2_h2_1_1"  />
</g>
<g id="a2_002"  >
<polygon points="96,90 121,90 126,85 121,80 96,80 96,90 " style="fill:white; stroke-width:1; stroke:black; " description="&lt;b&gt;BK635_RS15955&lt;/b&gt;&lt;br&gt;exodeoxyribonuclease III&lt;br&gt;Location: 93723 - 92911" locus_tag="BK635_RS15955" class="clusterblast-orf" id="dummy-2_h2_1_2"  />
</g>
<g id="a2_003"  >
<polygon points="128,85 133,80 140,80 140,90 133,90 128,85 " style="fill:#d81515; stroke-width:1; stroke:black; " description="&lt;b&gt;BK635_RS15950&lt;/b&gt;&lt;br&gt;YegP family protein&lt;br&gt;Location: 92855 - 92529&lt;br&gt;&lt;br&gt;&lt;b&gt;BlastP hit with MCIC6FC_005696&lt;/b&gt;&lt;br&gt;Percentage identity: 73&lt;br&gt;Percentage coverage: 44&lt;br&gt;BLAST bit score: 160&lt;br&gt;E-value: 2.4e-37" locus_tag="BK635_RS15950" class="clusterblast-orf" id="dummy-2_h2_1_3"  />
</g>
<g id="a2_004"  >
<polygon points="149,90 195,90 200,85 195,80 149,80 149,90 " style="fill:#77d815; stroke-width:1; stroke:black; " description="&lt;b&gt;BK635_RS15945&lt;/b&gt;&lt;br&gt;phosphate ABC transporter substrate-binding/OmpA family protein&lt;br&gt;Location: 92278 - 90896&lt;br&gt;&lt;br&gt;&lt;b&gt;BlastP hit with MCIC6FC_005697&lt;/b&gt;&lt;br&gt;Percentage identity: 78&lt;br&gt;Percentage coverage: 103&lt;br&gt;BLAST bit score: 704&lt;br&gt;E-value: 8.3e-201" locus_tag="BK635_RS15945" class="clusterblast-orf" id="dummy-2_h2_1_4"  />
</g>
<g id="a2_005"  >
<polygon points="203,85 208,80 248,80 248,90 208,90 203,85 " style="fill:#15d8d8; stroke-width:1; stroke:black; " description="&lt;b&gt;BK635_RS15940&lt;/b&gt;&lt;br&gt;acyl-CoA dehydrogenase&lt;br&gt;Location: 90798 - 89569&lt;br&gt;&lt;br&gt;&lt;b&gt;BlastP hit with MCIC6FC_005698&lt;/b&gt;&lt;br&gt;Percentage identity: 96&lt;br&gt;Percentage coverage: 95&lt;br&gt;BLAST bit score: 813&lt;br&gt;E-value: 9.3e-234" locus_tag="BK635_RS15940" class="clusterblast-orf" id="dummy-2_h2_1_5"  />
</g>
<g id="a2_006"  >
<polygon points="255,90 284,90 289,85 284,80 255,80 255,90 " style="fill:#7715d8; stroke-width:1; stroke:black; " description="&lt;b&gt;BK635_RS15935&lt;/b&gt;&lt;br&gt;LysR family transcriptional regulator&lt;br&gt;Location: 89391 - 88465&lt;br&gt;&lt;br&gt;&lt;b&gt;BlastP hit with MCIC6FC_005699&lt;/b&gt;&lt;br&gt;Percentage identity: 96&lt;br&gt;Percentage coverage: 99&lt;br&gt;BLAST bit score: 585&lt;br&gt;E-value: 3.9e-165" locus_tag="BK635_RS15935" class="clusterblast-orf" id="dummy-2_h2_1_6"  />
</g>
<g id="a2_007"  >
<polygon points="295,90 305,90 310,85 305,80 295,80 295,90 " style="fill:#d87715; stroke-width:1; stroke:black; " description="&lt;b&gt;BK635_RS15930&lt;/b&gt;&lt;br&gt;MerR family DNA-binding transcriptional regulator&lt;br&gt;Location: 88296 - 87892&lt;br&gt;&lt;br&gt;&lt;b&gt;BlastP hit with MCIC6FC_005700&lt;/b&gt;&lt;br&gt;Percentage identity: 98&lt;br&gt;Percentage coverage: 100&lt;br&gt;BLAST bit score: 247&lt;br&gt;E-value: 1.1e-63" locus_tag="BK635_RS15930" class="clusterblast-orf" id="dummy-2_h2_1_7"  />
</g>
<g id="a2_008"  >
<polygon points="316,90 344,90 349,85 344,80 316,80 316,90 " style="fill:#15d815; stroke-width:1; stroke:black; " description="&lt;b&gt;BK635_RS15925&lt;/b&gt;&lt;br&gt;hydroxymethylglutaryl-CoA lyase&lt;br&gt;Location: 87735 - 86836&lt;br&gt;&lt;br&gt;&lt;b&gt;BlastP hit with MCIC6FC_005701&lt;/b&gt;&lt;br&gt;Percentage identity: 89&lt;br&gt;Percentage coverage: 102&lt;br&gt;BLAST bit score: 528&lt;br&gt;E-value: 5.3e-148" locus_tag="BK635_RS15925" class="clusterblast-orf" id="dummy-2_h2_1_8"  />
</g>
<g id="a2_009"  >
<polygon points="373,85 378,80 435,80 435,90 378,90 373,85 " style="fill:#1577d8; stroke-width:1; stroke:black; " description="&lt;b&gt;BK635_RS15915&lt;/b&gt;&lt;br&gt;AMP-binding protein&lt;br&gt;Location: 86164 - 84470&lt;br&gt;&lt;br&gt;&lt;b&gt;BlastP hit with MCIC6FC_005702&lt;/b&gt;&lt;br&gt;Percentage identity: 90&lt;br&gt;Percentage coverage: 99&lt;br&gt;BLAST bit score: 1052&lt;br&gt;E-value: 1.6e-305" locus_tag="BK635_RS15915" class="clusterblast-orf" id="dummy-2_h2_1_9"  />
</g>
<g id="a2_0010"  >
<polygon points="443,90 481,90 486,85 481,80 443,80 443,90 " style="fill:#d815d8; stroke-width:1; stroke:black; " description="&lt;b&gt;BK635_RS15910&lt;/b&gt;&lt;br&gt;isovaleryl-CoA dehydrogenase&lt;br&gt;Location: 84244 - 83081&lt;br&gt;&lt;br&gt;&lt;b&gt;BlastP hit with MCIC6FC_005703&lt;/b&gt;&lt;br&gt;Percentage identity: 97&lt;br&gt;Percentage coverage: 43&lt;br&gt;BLAST bit score: 759&lt;br&gt;E-value: 4.4e-217" locus_tag="BK635_RS15910" class="clusterblast-orf" id="dummy-2_h2_1_10"  />
</g>
<g id="a2_0011"  >
<polygon points="486,90 491,90 496,85 491,80 486,80 486,90 " style="fill:white; stroke-width:1; stroke:black; " description="&lt;b&gt;BK635_RS15905&lt;/b&gt;&lt;br&gt;hypothetical protein&lt;br&gt;Location: 83071 - 82808" locus_tag="BK635_RS15905" class="clusterblast-orf" id="dummy-2_h2_1_11"  />
</g>
<g id="a2_0012"  >
<polygon points="496,90 550,90 555,85 550,80 496,80 496,90 " style="fill:#d815d8; stroke-width:1; stroke:black; " description="&lt;b&gt;BK635_RS15900&lt;/b&gt;&lt;br&gt;methylcrotonoyl-CoA carboxylase&lt;br&gt;Location: 82807 - 81200&lt;br&gt;&lt;br&gt;&lt;b&gt;BlastP hit with MCIC6FC_005703&lt;/b&gt;&lt;br&gt;Percentage identity: 92&lt;br&gt;Percentage coverage: 58&lt;br&gt;BLAST bit score: 965&lt;br&gt;E-value: 5.3e-279" locus_tag="BK635_RS15900" class="clusterblast-orf" id="dummy-2_h2_1_12"  />
</g>
<g id="a2_0013"  >
<polygon points="556,90 580,90 585,85 580,80 556,80 556,90 " style="fill:#d8d815; stroke-width:1; stroke:black; " description="&lt;b&gt;BK635_RS15895&lt;/b&gt;&lt;br&gt;gamma-carboxygeranoyl-CoA hydratase&lt;br&gt;Location: 81182 - 80367&lt;br&gt;&lt;br&gt;&lt;b&gt;BlastP hit with MCIC6FC_005704&lt;/b&gt;&lt;br&gt;Percentage identity: 93&lt;br&gt;Percentage coverage: 25&lt;br&gt;BLAST bit score: 417&lt;br&gt;E-value: 4.1e-114" locus_tag="BK635_RS15895" class="clusterblast-orf" id="dummy-2_h2_1_13"  />
</g>
<g id="a2_0014"  >
<polygon points="585,90 652,90 657,85 652,80 585,80 585,90 " style="fill:#d8d815; stroke-width:1; stroke:black; " description="&lt;b&gt;BK635_RS15890&lt;/b&gt;&lt;br&gt;acetyl/propionyl/methylcrotonyl-CoA carboxylase subunit alpha&lt;br&gt;Location: 80367 - 78421&lt;br&gt;&lt;br&gt;&lt;b&gt;BlastP hit with MCIC6FC_005704&lt;/b&gt;&lt;br&gt;Percentage identity: 87&lt;br&gt;Percentage coverage: 70&lt;br&gt;BLAST bit score: 1094&lt;br&gt;E-value: 0.0" locus_tag="BK635_RS15890" class="clusterblast-orf" id="dummy-2_h2_1_14"  />
</g>
<g id="a2_0015"  >
<polygon points="659,85 664,80 683,80 683,90 664,90 659,85 " style="fill:#15d877; stroke-width:1; stroke:black; " description="&lt;b&gt;BK635_RS15885&lt;/b&gt;&lt;br&gt;LexA family transcriptional regulator&lt;br&gt;Location: 78364 - 77699&lt;br&gt;&lt;br&gt;&lt;b&gt;BlastP hit with MCIC6FC_005705&lt;/b&gt;&lt;br&gt;Percentage identity: 83&lt;br&gt;Percentage coverage: 98&lt;br&gt;BLAST bit score: 366&lt;br&gt;E-value: 2e-99" locus_tag="BK635_RS15885" class="clusterblast-orf" id="dummy-2_h2_1_15"  />
</g>
<g id="a2_0016"  >
<polygon points="688,90 696,90 701,85 696,80 688,80 688,90 " style="fill:white; stroke-width:1; stroke:black; " description="&lt;b&gt;BK635_RS15880&lt;/b&gt;&lt;br&gt;DUF3077 domain-containing protein&lt;br&gt;Location: 77567 - 77215" locus_tag="BK635_RS15880" class="clusterblast-orf" id="dummy-2_h2_1_16"  />
</g>
<g id="a2_0017"  >
<polygon points="720,90 757,90 762,85 757,80 720,80 720,90 " style="fill:#1515d8; stroke-width:1; stroke:black; " description="&lt;b&gt;BK635_RS15875&lt;/b&gt;&lt;br&gt;carboxypeptidase family protein&lt;br&gt;Location: 76706 - 75555&lt;br&gt;&lt;br&gt;&lt;b&gt;BlastP hit with MCIC6FC_005706&lt;/b&gt;&lt;br&gt;Percentage identity: 84&lt;br&gt;Percentage coverage: 78&lt;br&gt;BLAST bit score: 684&lt;br&gt;E-value: 7.5e-195" locus_tag="BK635_RS15875" class="clusterblast-orf" id="dummy-2_h2_1_17"  />
</g>
<g id="a2_0018"  >
<polygon points="763,85 768,80 780,80 780,90 768,90 763,85 " style="fill:#d81577; stroke-width:1; stroke:black; " description="&lt;b&gt;BK635_RS15870&lt;/b&gt;&lt;br&gt;helix-turn-helix transcriptional regulator&lt;br&gt;Location: 75515 - 75069&lt;br&gt;&lt;br&gt;&lt;b&gt;BlastP hit with MCIC6FC_005707&lt;/b&gt;&lt;br&gt;Percentage identity: 87&lt;br&gt;Percentage coverage: 97&lt;br&gt;BLAST bit score: 273&lt;br&gt;E-value: 1.2e-71" locus_tag="BK635_RS15870" class="clusterblast-orf" id="dummy-2_h2_1_18"  />
</g>
</svg>
