<svg xmlns="http://www.w3.org/2000/svg" xmlns:xlink="http://www.w3.org/1999/xlink" version="1.1" x="0" y="0" height="230" width="800" viewBox="0 0 800 230" preserveAspectRatio="none"  >
<g label="Query sequence" class="clusterblast-cluster"  >
<text x="5" y="20" class="clusterblast-acc"  >
Query sequence</text>
<line x1="10" y1="35" x2="778.0" y2="35" style="stroke-width:1; stroke:grey; "  />
<polygon points="4,35 9,30 333,30 333,40 9,40 4,35 " style="fill:#d81515; stroke-width:1; stroke:black; " description="&lt;b&gt;MCIC6FC_022474&lt;/b&gt;&lt;br&gt;hypothetical protein&lt;br&gt;Location: 2882 - 7006" locus_tag="MCIC6FC_022474" class="clusterblast-orf" id="dummy-1_q0_0_all"  />
<polygon points="361,40 511,40 516,35 511,30 361,30 361,40 " style="fill:#15d863; stroke-width:1; stroke:black; " description="&lt;b&gt;MCIC6FC_022475&lt;/b&gt;&lt;br&gt;hypothetical protein&lt;br&gt;Location: 7354 - 9298" locus_tag="MCIC6FC_022475" class="clusterblast-orf" id="dummy-1_q1_0_all"  />
<polygon points="523,40 613,40 618,35 613,30 523,30 523,40 " style="fill:#1563d8; stroke-width:1; stroke:black; " description="&lt;b&gt;MCIC6FC_022476&lt;/b&gt;&lt;br&gt;hypothetical protein&lt;br&gt;Location: 9385 - 10570" locus_tag="MCIC6FC_022476" class="clusterblast-orf" id="dummy-1_q2_0_all"  />
<polygon points="629,35 634,30 743,30 743,40 634,40 629,35 " style="fill:#b115d8; stroke-width:1; stroke:black; " description="&lt;b&gt;MCIC6FC_022477&lt;/b&gt;&lt;br&gt;hypothetical protein&lt;br&gt;Location: 10703 - 12143" locus_tag="MCIC6FC_022477" class="clusterblast-orf" id="dummy-1_q3_0_all"  />
<polygon points="756,40 771,40 776,35 771,30 756,30 756,40 " style="fill:#b1d815; stroke-width:1; stroke:black; " description="&lt;b&gt;MCIC6FC_022478&lt;/b&gt;&lt;br&gt;hypothetical protein&lt;br&gt;Location: 12300 - 12555" locus_tag="MCIC6FC_022478" class="clusterblast-orf" id="dummy-1_q4_0_all"  />
</g>
<g label="NZ_CP052858" description="NZ_CP052858 (5380744-5391590): Pseudomonas sp. ADAK20 chromosome, complete ge... (90% of genes show similarity), bacteriocin" class="clusterblast-cluster"  >
<text x="5" y="70" class="clusterblast-acc"  >
<a xlink:href="https://antismash-db.secondarymetabolites.org/area.html?record=NZ_CP052858&amp;start=5380744&amp;end=5391590" target="_blank">NZ_CP052858 (5380744-5391590)</a>: Pseudomonas sp. ADAK20 chromosome, complete ge... (90% of genes show similarity), bacteriocin</text>
<line x1="10" y1="85" x2="778.0" y2="85" style="stroke-width:1; stroke:grey; "  />
</g>
<g id="a1_000"  >
<polygon points="0,85 5,80 35,80 35,90 5,90 0,85 " style="fill:#d81515; stroke-width:1; stroke:black; " description="&lt;b&gt;HKK56_RS23915&lt;/b&gt;&lt;br&gt;hypothetical protein&lt;br&gt;Location: 5381102 - 5381545&lt;br&gt;&lt;br&gt;&lt;b&gt;BlastP hit with MCIC6FC_022474&lt;/b&gt;&lt;br&gt;Percentage identity: 88&lt;br&gt;Percentage coverage: 11&lt;br&gt;BLAST bit score: 228&lt;br&gt;E-value: 5e-57" locus_tag="HKK56_RS23915" class="clusterblast-orf" id="dummy-1_h1_7_0"  />
</g>
<g id="a1_001"  >
<polygon points="34,85 39,80 138,80 138,90 39,90 34,85 " style="fill:#d81515; stroke-width:1; stroke:black; " description="&lt;b&gt;HKK56_RS23920&lt;/b&gt;&lt;br&gt;dual specificity protein phosphatase family protein&lt;br&gt;Location: 5381535 - 5382833&lt;br&gt;&lt;br&gt;&lt;b&gt;BlastP hit with MCIC6FC_022474&lt;/b&gt;&lt;br&gt;Percentage identity: 81&lt;br&gt;Percentage coverage: 32&lt;br&gt;BLAST bit score: 730&lt;br&gt;E-value: 3.1e-208" locus_tag="HKK56_RS23920" class="clusterblast-orf" id="dummy-1_h1_7_1"  />
</g>
<g id="a1_002"  >
<polygon points="138,85 143,80 278,80 278,90 143,90 138,85 " style="fill:#d81515; stroke-width:1; stroke:black; " description="&lt;b&gt;HKK56_RS23925&lt;/b&gt;&lt;br&gt;alpha/beta fold hydrolase&lt;br&gt;Location: 5382836 - 5384590&lt;br&gt;&lt;br&gt;&lt;b&gt;BlastP hit with MCIC6FC_022474&lt;/b&gt;&lt;br&gt;Percentage identity: 88&lt;br&gt;Percentage coverage: 43&lt;br&gt;BLAST bit score: 975&lt;br&gt;E-value: 7.3e-282" locus_tag="HKK56_RS23925" class="clusterblast-orf" id="dummy-1_h1_7_2"  />
</g>
<g id="a1_003"  >
<polygon points="279,85 284,80 329,80 329,90 284,90 279,85 " style="fill:#d81515; stroke-width:1; stroke:black; " description="&lt;b&gt;HKK56_RS23930&lt;/b&gt;&lt;br&gt;CDP-alcohol phosphatidyltransferase family protein&lt;br&gt;Location: 5384601 - 5385224&lt;br&gt;&lt;br&gt;&lt;b&gt;BlastP hit with MCIC6FC_022474&lt;/b&gt;&lt;br&gt;Percentage identity: 92&lt;br&gt;Percentage coverage: 15&lt;br&gt;BLAST bit score: 346&lt;br&gt;E-value: 9.7e-93" locus_tag="HKK56_RS23930" class="clusterblast-orf" id="dummy-1_h1_7_3"  />
</g>
<g id="a1_004"  >
<polygon points="345,90 360,90 365,85 360,80 345,80 345,90 " style="fill:white; stroke-width:1; stroke:black; " description="&lt;b&gt;HKK56_RS23935&lt;/b&gt;&lt;br&gt;membrane protein&lt;br&gt;Location: 5385428 - 5385682" locus_tag="HKK56_RS23935" class="clusterblast-orf" id="dummy-1_h1_7_4"  />
</g>
<g id="a1_005"  >
<polygon points="370,90 433,90 438,85 433,80 370,80 370,90 " style="fill:#15d863; stroke-width:1; stroke:black; " description="&lt;b&gt;HKK56_RS23940&lt;/b&gt;&lt;br&gt;DUF692 family protein&lt;br&gt;Location: 5385745 - 5386590&lt;br&gt;&lt;br&gt;&lt;b&gt;BlastP hit with MCIC6FC_022475&lt;/b&gt;&lt;br&gt;Percentage identity: 90&lt;br&gt;Percentage coverage: 39&lt;br&gt;BLAST bit score: 477&lt;br&gt;E-value: 1.7e-132" locus_tag="HKK56_RS23940" class="clusterblast-orf" id="dummy-1_h1_7_5"  />
</g>
<g id="a1_006"  >
<polygon points="437,90 494,90 499,85 494,80 437,80 437,90 " style="fill:#15d863; stroke-width:1; stroke:black; " description="&lt;b&gt;HKK56_RS23945&lt;/b&gt;&lt;br&gt;putative DNA-binding domain-containing protein&lt;br&gt;Location: 5386581 - 5387363&lt;br&gt;&lt;br&gt;&lt;b&gt;BlastP hit with MCIC6FC_022475&lt;/b&gt;&lt;br&gt;Percentage identity: 69&lt;br&gt;Percentage coverage: 42&lt;br&gt;BLAST bit score: 377&lt;br&gt;E-value: 2.4e-102" locus_tag="HKK56_RS23945" class="clusterblast-orf" id="dummy-1_h1_7_6"  />
</g>
<g id="a1_007"  >
<polygon points="506,90 596,90 601,85 596,80 506,80 506,90 " style="fill:#1563d8; stroke-width:1; stroke:black; " description="&lt;b&gt;HKK56_RS23950&lt;/b&gt;&lt;br&gt;class I SAM-dependent methyltransferase&lt;br&gt;Location: 5387450 - 5388634&lt;br&gt;&lt;br&gt;&lt;b&gt;BlastP hit with MCIC6FC_022476&lt;/b&gt;&lt;br&gt;Percentage identity: 93&lt;br&gt;Percentage coverage: 100&lt;br&gt;BLAST bit score: 764&lt;br&gt;E-value: 4.5e-219" locus_tag="HKK56_RS23950" class="clusterblast-orf" id="dummy-1_h1_7_7"  />
</g>
<g id="a1_008"  >
<polygon points="613,85 618,80 727,80 727,90 618,90 613,85 " style="fill:#b115d8; stroke-width:1; stroke:black; " description="&lt;b&gt;HKK56_RS23955&lt;/b&gt;&lt;br&gt;cardiolipin synthase&lt;br&gt;Location: 5388782 - 5390221&lt;br&gt;&lt;br&gt;&lt;b&gt;BlastP hit with MCIC6FC_022477&lt;/b&gt;&lt;br&gt;Percentage identity: 91&lt;br&gt;Percentage coverage: 100&lt;br&gt;BLAST bit score: 883&lt;br&gt;E-value: 8.1e-255" locus_tag="HKK56_RS23955" class="clusterblast-orf" id="dummy-1_h1_7_8"  />
</g>
<g id="a1_009"  >
<polygon points="738,90 775,90 780,85 775,80 738,80 738,90 " style="fill:#b1d815; stroke-width:1; stroke:black; " description="&lt;b&gt;HKK56_RS23960&lt;/b&gt;&lt;br&gt;DUF3617 domain-containing protein&lt;br&gt;Location: 5390352 - 5390873&lt;br&gt;&lt;br&gt;&lt;b&gt;BlastP hit with MCIC6FC_022478&lt;/b&gt;&lt;br&gt;Percentage identity: 94&lt;br&gt;Percentage coverage: 100&lt;br&gt;BLAST bit score: 156&lt;br&gt;E-value: 1.6e-36" locus_tag="HKK56_RS23960" class="clusterblast-orf" id="dummy-1_h1_7_9"  />
</g>
</svg>
