<svg xmlns="http://www.w3.org/2000/svg" xmlns:xlink="http://www.w3.org/1999/xlink" version="1.1" x="0" y="0" height="230" width="800" viewBox="0 0 800 230" preserveAspectRatio="none"  >
<g label="Query sequence" class="clusterblast-cluster"  >
<text x="5" y="20" class="clusterblast-acc"  >
Query sequence</text>
<line x1="10" y1="35" x2="778.0" y2="35" style="stroke-width:1; stroke:grey; "  />
<polygon points="0,35 5,30 18,30 18,40 5,40 0,35 " style="fill:white; stroke-width:1; stroke:black; " description="&lt;b&gt;MCIC6FC_007663&lt;/b&gt;&lt;br&gt;hypothetical protein&lt;br&gt;Location: 1093721 - 1096121" locus_tag="MCIC6FC_007663" class="clusterblast-orf" id="dummy-4_q0_0_all"  />
<polygon points="21,40 21,40 26,35 21,30 21,30 21,40 " style="fill:#d81515; stroke-width:1; stroke:black; " description="&lt;b&gt;MCIC6FC_007664&lt;/b&gt;&lt;br&gt;hypothetical protein&lt;br&gt;Location: 1096391 - 1097087" locus_tag="MCIC6FC_007664" class="clusterblast-orf" id="dummy-4_q1_0_all"  />
<polygon points="27,35 32,30 40,30 40,40 32,40 27,35 " style="fill:#63d815; stroke-width:1; stroke:black; " description="&lt;b&gt;MCIC6FC_007665&lt;/b&gt;&lt;br&gt;hypothetical protein&lt;br&gt;Location: 1097151 - 1098795" locus_tag="MCIC6FC_007665" class="clusterblast-orf" id="dummy-4_q2_0_all"  />
<polygon points="40,35 45,30 63,30 63,40 45,40 40,35 " style="fill:#15b1d8; stroke-width:1; stroke:black; " description="&lt;b&gt;MCIC6FC_007666&lt;/b&gt;&lt;br&gt;hypothetical protein&lt;br&gt;Location: 1098900 - 1101713" locus_tag="MCIC6FC_007666" class="clusterblast-orf" id="dummy-4_q3_0_all"  />
<polygon points="68,35 73,30 76,30 76,40 73,40 68,35 " style="fill:#b115d8; stroke-width:1; stroke:black; " description="&lt;b&gt;MCIC6FC_007667&lt;/b&gt;&lt;br&gt;hypothetical protein&lt;br&gt;Location: 1102460 - 1103483" locus_tag="MCIC6FC_007667" class="clusterblast-orf" id="dummy-4_q4_0_all"  />
<polygon points="78,40 98,40 103,35 98,30 78,30 78,40 " style="fill:#d86315; stroke-width:1; stroke:black; " description="&lt;b&gt;MCIC6FC_007668&lt;/b&gt;&lt;br&gt;hypothetical protein&lt;br&gt;Location: 1103667 - 1106912" locus_tag="MCIC6FC_007668" class="clusterblast-orf" id="dummy-4_q5_0_all"  />
<polygon points="104,35 109,30 116,30 116,40 109,40 104,35 " style="fill:white; stroke-width:1; stroke:black; " description="&lt;b&gt;MCIC6FC_007669&lt;/b&gt;&lt;br&gt;hypothetical protein&lt;br&gt;Location: 1106991 - 1108552" locus_tag="MCIC6FC_007669" class="clusterblast-orf" id="dummy-4_q6_0_all"  />
<polygon points="118,40 150,40 155,35 150,30 118,30 118,40 " style="fill:#15d815; stroke-width:1; stroke:black; " description="&lt;b&gt;MCIC6FC_007670&lt;/b&gt;&lt;br&gt;hypothetical protein&lt;br&gt;Location: 1108741 - 1113501" locus_tag="MCIC6FC_007670" class="clusterblast-orf" id="dummy-4_q7_0_all"  />
<polygon points="156,40 198,40 203,35 198,30 156,30 156,40 " style="fill:white; stroke-width:1; stroke:black; " description="&lt;b&gt;MCIC6FC_007671&lt;/b&gt;&lt;br&gt;hypothetical protein&lt;br&gt;Location: 1113526 - 1119611" locus_tag="MCIC6FC_007671" class="clusterblast-orf" id="dummy-4_q8_0_all"  />
<polygon points="205,35 210,30 257,30 257,40 210,40 205,35 " style="fill:white; stroke-width:1; stroke:black; " description="&lt;b&gt;MCIC6FC_007672&lt;/b&gt;&lt;br&gt;hypothetical protein&lt;br&gt;Location: 1119764 - 1126360" locus_tag="MCIC6FC_007672" class="clusterblast-orf" id="dummy-4_q9_0_all"  />
<polygon points="266,40 269,40 274,35 269,30 266,30 266,40 " style="fill:white; stroke-width:1; stroke:black; " description="&lt;b&gt;MCIC6FC_007673&lt;/b&gt;&lt;br&gt;hypothetical protein&lt;br&gt;Location: 1127567 - 1128578" locus_tag="MCIC6FC_007673" class="clusterblast-orf" id="dummy-4_q10_0_all"  />
<polygon points="274,40 312,40 317,35 312,30 274,30 274,40 " style="fill:white; stroke-width:1; stroke:black; " description="&lt;b&gt;MCIC6FC_007674&lt;/b&gt;&lt;br&gt;hypothetical protein&lt;br&gt;Location: 1128582 - 1134029" locus_tag="MCIC6FC_007674" class="clusterblast-orf" id="dummy-4_q11_0_all"  />
<polygon points="317,40 337,40 342,35 337,30 317,30 317,40 " style="fill:white; stroke-width:1; stroke:black; " description="&lt;b&gt;MCIC6FC_007675&lt;/b&gt;&lt;br&gt;hypothetical protein&lt;br&gt;Location: 1134052 - 1137201" locus_tag="MCIC6FC_007675" class="clusterblast-orf" id="dummy-4_q12_0_all"  />
<polygon points="346,40 350,40 355,35 350,30 346,30 346,40 " style="fill:#1563d8; stroke-width:1; stroke:black; " description="&lt;b&gt;MCIC6FC_007676&lt;/b&gt;&lt;br&gt;hypothetical protein&lt;br&gt;Location: 1137745 - 1138843" locus_tag="MCIC6FC_007676" class="clusterblast-orf" id="dummy-4_q13_0_all"  />
<polygon points="355,40 369,40 374,35 369,30 355,30 355,40 " style="fill:#d815b1; stroke-width:1; stroke:black; " description="&lt;b&gt;MCIC6FC_007677&lt;/b&gt;&lt;br&gt;hypothetical protein&lt;br&gt;Location: 1138918 - 1141240" locus_tag="MCIC6FC_007677" class="clusterblast-orf" id="dummy-4_q14_0_all"  />
<polygon points="374,40 416,40 421,35 416,30 374,30 374,40 " style="fill:#d8b115; stroke-width:1; stroke:black; " description="&lt;b&gt;MCIC6FC_007678&lt;/b&gt;&lt;br&gt;hypothetical protein&lt;br&gt;Location: 1141329 - 1147247" locus_tag="MCIC6FC_007678" class="clusterblast-orf" id="dummy-4_q15_0_all"  />
<polygon points="423,35 428,30 431,30 431,40 428,40 423,35 " style="fill:#15d863; stroke-width:1; stroke:black; " description="&lt;b&gt;MCIC6FC_007679&lt;/b&gt;&lt;br&gt;hypothetical protein&lt;br&gt;Location: 1147487 - 1148477" locus_tag="MCIC6FC_007679" class="clusterblast-orf" id="dummy-4_q16_0_all"  />
<polygon points="432,40 444,40 449,35 444,30 432,30 432,40 " style="fill:#1515d8; stroke-width:1; stroke:black; " description="&lt;b&gt;MCIC6FC_007680&lt;/b&gt;&lt;br&gt;hypothetical protein&lt;br&gt;Location: 1148651 - 1150764" locus_tag="MCIC6FC_007680" class="clusterblast-orf" id="dummy-4_q17_0_all"  />
<polygon points="449,35 454,30 466,30 466,40 454,40 449,35 " style="fill:#1515d8; stroke-width:1; stroke:black; " description="&lt;b&gt;MCIC6FC_007681&lt;/b&gt;&lt;br&gt;hypothetical protein&lt;br&gt;Location: 1150848 - 1152996" locus_tag="MCIC6FC_007681" class="clusterblast-orf" id="dummy-4_q18_0_all"  />
<polygon points="467,35 472,30 498,30 498,40 472,40 467,35 " style="fill:#d81563; stroke-width:1; stroke:black; " description="&lt;b&gt;MCIC6FC_007682&lt;/b&gt;&lt;br&gt;hypothetical protein&lt;br&gt;Location: 1153029 - 1156964" locus_tag="MCIC6FC_007682" class="clusterblast-orf" id="dummy-4_q19_0_all"  />
<polygon points="500,40 545,40 550,35 545,30 500,30 500,40 " style="fill:#15d815; stroke-width:1; stroke:black; " description="&lt;b&gt;MCIC6FC_007683&lt;/b&gt;&lt;br&gt;hypothetical protein&lt;br&gt;Location: 1157259 - 1163679" locus_tag="MCIC6FC_007683" class="clusterblast-orf" id="dummy-4_q20_0_all"  />
<polygon points="551,40 625,40 630,35 625,30 551,30 551,40 " style="fill:#15d815; stroke-width:1; stroke:black; " description="&lt;b&gt;MCIC6FC_007684&lt;/b&gt;&lt;br&gt;hypothetical protein&lt;br&gt;Location: 1163717 - 1173743" locus_tag="MCIC6FC_007684" class="clusterblast-orf" id="dummy-4_q21_0_all"  />
<polygon points="630,40 710,40 715,35 710,30 630,30 630,40 " style="fill:#15d815; stroke-width:1; stroke:black; " description="&lt;b&gt;MCIC6FC_007685&lt;/b&gt;&lt;br&gt;hypothetical protein&lt;br&gt;Location: 1173784 - 1184642" locus_tag="MCIC6FC_007685" class="clusterblast-orf" id="dummy-4_q22_0_all"  />
<polygon points="715,40 737,40 742,35 737,30 715,30 715,40 " style="fill:#b1d815; stroke-width:1; stroke:black; " description="&lt;b&gt;MCIC6FC_007686&lt;/b&gt;&lt;br&gt;hypothetical protein&lt;br&gt;Location: 1184649 - 1188017" locus_tag="MCIC6FC_007686" class="clusterblast-orf" id="dummy-4_q23_0_all"  />
<polygon points="743,40 762,40 767,35 762,30 743,30 743,40 " style="fill:#15d8b1; stroke-width:1; stroke:black; " description="&lt;b&gt;MCIC6FC_007687&lt;/b&gt;&lt;br&gt;hypothetical protein&lt;br&gt;Location: 1188087 - 1191138" locus_tag="MCIC6FC_007687" class="clusterblast-orf" id="dummy-4_q24_0_all"  />
<polygon points="767,35 772,30 780,30 780,40 772,40 767,35 " style="fill:#6315d8; stroke-width:1; stroke:black; " description="&lt;b&gt;MCIC6FC_007688&lt;/b&gt;&lt;br&gt;hypothetical protein&lt;br&gt;Location: 1191187 - 1192790" locus_tag="MCIC6FC_007688" class="clusterblast-orf" id="dummy-4_q25_0_all"  />
</g>
<g label="NZ_JACAQO010000025" description="NZ_JACAQO010000025 (66196-130002): Pseudomonas reactans strain IPO3750 IPO 37... (54% of genes show similarity), NRPS" class="clusterblast-cluster"  >
<text x="5" y="70" class="clusterblast-acc"  >
<a xlink:href="https://antismash-db.secondarymetabolites.org/area.html?record=NZ_JACAQO010000025&amp;start=66196&amp;end=130002" target="_blank">NZ_JACAQO010000025 (66196-130002)</a>: Pseudomonas reactans strain IPO3750 IPO 37... (54% of genes show similarity), NRPS</text>
<line x1="10" y1="85" x2="778.0" y2="85" style="stroke-width:1; stroke:grey; "  />
</g>
<g id="a4_000"  >
<polygon points="143,90 144,90 149,85 144,80 143,80 143,90 " style="fill:#d81515; stroke-width:1; stroke:black; " description="&lt;b&gt;HX796_RS21870&lt;/b&gt;&lt;br&gt;pirin family protein&lt;br&gt;Location: 67376 - 68071&lt;br&gt;&lt;br&gt;&lt;b&gt;BlastP hit with MCIC6FC_007664&lt;/b&gt;&lt;br&gt;Percentage identity: 96&lt;br&gt;Percentage coverage: 100&lt;br&gt;BLAST bit score: 463&lt;br&gt;E-value: 1.7e-128" locus_tag="HX796_RS21870" class="clusterblast-orf" id="dummy-4_h4_4_0"  />
</g>
<g id="a4_001"  >
<polygon points="149,85 154,80 162,80 162,90 154,90 149,85 " style="fill:#63d815; stroke-width:1; stroke:black; " description="&lt;b&gt;HX796_RS21875&lt;/b&gt;&lt;br&gt;alpha-D-glucose phosphate-specific phosphoglucomutase&lt;br&gt;Location: 68110 - 69753&lt;br&gt;&lt;br&gt;&lt;b&gt;BlastP hit with MCIC6FC_007665&lt;/b&gt;&lt;br&gt;Percentage identity: 98&lt;br&gt;Percentage coverage: 100&lt;br&gt;BLAST bit score: 1092&lt;br&gt;E-value: 0.0" locus_tag="HX796_RS21875" class="clusterblast-orf" id="dummy-4_h4_4_1"  />
</g>
<g id="a4_002"  >
<polygon points="163,85 168,80 174,80 174,90 168,90 163,85 " style="fill:#15b1d8; stroke-width:1; stroke:black; " description="&lt;b&gt;HX796_RS21880&lt;/b&gt;&lt;br&gt;PLP-dependent aminotransferase family protein&lt;br&gt;Location: 69860 - 71266&lt;br&gt;&lt;br&gt;&lt;b&gt;BlastP hit with MCIC6FC_007666&lt;/b&gt;&lt;br&gt;Percentage identity: 78&lt;br&gt;Percentage coverage: 51&lt;br&gt;BLAST bit score: 725&lt;br&gt;E-value: 5.5e-207" locus_tag="HX796_RS21880" class="clusterblast-orf" id="dummy-4_h4_4_2"  />
</g>
<g id="a4_003"  >
<polygon points="174,85 179,80 185,80 185,90 179,90 174,85 " style="fill:#15b1d8; stroke-width:1; stroke:black; " description="&lt;b&gt;HX796_RS21885&lt;/b&gt;&lt;br&gt;hypothetical protein&lt;br&gt;Location: 71263 - 72672&lt;br&gt;&lt;br&gt;&lt;b&gt;BlastP hit with MCIC6FC_007666&lt;/b&gt;&lt;br&gt;Percentage identity: 73&lt;br&gt;Percentage coverage: 49&lt;br&gt;BLAST bit score: 659&lt;br&gt;E-value: 3.7e-187" locus_tag="HX796_RS21885" class="clusterblast-orf" id="dummy-4_h4_4_3"  />
</g>
<g id="a4_004"  >
<polygon points="191,85 196,80 199,80 199,90 196,90 191,85 " style="fill:#b115d8; stroke-width:1; stroke:black; " description="&lt;b&gt;HX796_RS21890&lt;/b&gt;&lt;br&gt;zinc-dependent alcohol dehydrogenase family protein&lt;br&gt;Location: 73380 - 74402&lt;br&gt;&lt;br&gt;&lt;b&gt;BlastP hit with MCIC6FC_007667&lt;/b&gt;&lt;br&gt;Percentage identity: 98&lt;br&gt;Percentage coverage: 100&lt;br&gt;BLAST bit score: 676&lt;br&gt;E-value: 1.8e-192" locus_tag="HX796_RS21890" class="clusterblast-orf" id="dummy-4_h4_4_4"  />
</g>
<g id="a4_005"  >
<polygon points="200,90 203,90 208,85 203,80 200,80 200,90 " style="fill:white; stroke-width:1; stroke:black; " description="&lt;b&gt;HX796_RS21895&lt;/b&gt;&lt;br&gt;LysR family transcriptional regulator&lt;br&gt;Location: 74607 - 75564" locus_tag="HX796_RS21895" class="clusterblast-orf" id="dummy-4_h4_4_5"  />
</g>
<g id="a4_006"  >
<polygon points="208,85 213,80 216,80 216,90 213,90 208,85 " style="fill:#15d863; stroke-width:1; stroke:black; " description="&lt;b&gt;HX796_RS21900&lt;/b&gt;&lt;br&gt;helix-turn-helix transcriptional regulator&lt;br&gt;Location: 75641 - 76597&lt;br&gt;&lt;br&gt;&lt;b&gt;BlastP hit with MCIC6FC_007679&lt;/b&gt;&lt;br&gt;Percentage identity: 93&lt;br&gt;Percentage coverage: 96&lt;br&gt;BLAST bit score: 601&lt;br&gt;E-value: 7.2e-170" locus_tag="HX796_RS21900" class="clusterblast-orf" id="dummy-4_h4_4_6"  />
</g>
<g id="a4_007"  >
<polygon points="218,90 229,90 234,85 229,80 218,80 218,90 " style="fill:#1515d8; stroke-width:1; stroke:black; " description="&lt;b&gt;HX796_RS21905&lt;/b&gt;&lt;br&gt;TonB-dependent receptor&lt;br&gt;Location: 76863 - 78917&lt;br&gt;&lt;br&gt;&lt;b&gt;BlastP hit with MCIC6FC_007680&lt;/b&gt;&lt;br&gt;Percentage identity: 97&lt;br&gt;Percentage coverage: 98&lt;br&gt;BLAST bit score: 1313&lt;br&gt;E-value: 0.0&lt;br&gt;&lt;br&gt;&lt;b&gt;BlastP hit with MCIC6FC_007681&lt;/b&gt;&lt;br&gt;Percentage identity: 57&lt;br&gt;Percentage coverage: 94&lt;br&gt;BLAST bit score: 767&lt;br&gt;E-value: 9.7e-220" locus_tag="HX796_RS21905" class="clusterblast-orf" id="dummy-4_h4_4_7"  />
</g>
<g id="a4_008"  >
<polygon points="236,90 239,85 236,80 236,90 " style="fill:white; stroke-width:1; stroke:black; " description="&lt;b&gt;HX796_RS21910&lt;/b&gt;&lt;br&gt;transposase&lt;br&gt;Location: 79122 - 79580" locus_tag="HX796_RS21910" class="clusterblast-orf" id="dummy-4_h4_4_8"  />
</g>
<g id="a4_009"  >
<polygon points="241,85 246,80 258,80 258,90 246,90 241,85 " style="fill:#1515d8; stroke-width:1; stroke:black; " description="&lt;b&gt;HX796_RS21915&lt;/b&gt;&lt;br&gt;TonB-dependent receptor&lt;br&gt;Location: 79785 - 81932&lt;br&gt;&lt;br&gt;&lt;b&gt;BlastP hit with MCIC6FC_007680&lt;/b&gt;&lt;br&gt;Percentage identity: 58&lt;br&gt;Percentage coverage: 98&lt;br&gt;BLAST bit score: 771&lt;br&gt;E-value: 6.4e-221&lt;br&gt;&lt;br&gt;&lt;b&gt;BlastP hit with MCIC6FC_007681&lt;/b&gt;&lt;br&gt;Percentage identity: 99&lt;br&gt;Percentage coverage: 100&lt;br&gt;BLAST bit score: 1412&lt;br&gt;E-value: 0.0" locus_tag="HX796_RS21915" class="clusterblast-orf" id="dummy-4_h4_4_9"  />
</g>
<g id="a4_0010"  >
<polygon points="258,85 263,80 282,80 282,90 263,90 258,85 " style="fill:#d81563; stroke-width:1; stroke:black; " description="&lt;b&gt;HX796_RS21920&lt;/b&gt;&lt;br&gt;hypothetical protein&lt;br&gt;Location: 81966 - 85019&lt;br&gt;&lt;br&gt;&lt;b&gt;BlastP hit with MCIC6FC_007682&lt;/b&gt;&lt;br&gt;Percentage identity: 96&lt;br&gt;Percentage coverage: 79&lt;br&gt;BLAST bit score: 1904&lt;br&gt;E-value: 0.0" locus_tag="HX796_RS21920" class="clusterblast-orf" id="dummy-4_h4_4_10"  />
</g>
<g id="a4_0011"  >
<polygon points="282,85 287,80 289,80 289,90 287,90 282,85 " style="fill:#d81563; stroke-width:1; stroke:black; " description="&lt;b&gt;HX796_RS21925&lt;/b&gt;&lt;br&gt;ABC transporter ATP-binding protein&lt;br&gt;Location: 85016 - 85900&lt;br&gt;&lt;br&gt;&lt;b&gt;BlastP hit with MCIC6FC_007682&lt;/b&gt;&lt;br&gt;Percentage identity: 98&lt;br&gt;Percentage coverage: 21&lt;br&gt;BLAST bit score: 524&lt;br&gt;E-value: 4.4e-146" locus_tag="HX796_RS21925" class="clusterblast-orf" id="dummy-4_h4_4_11"  />
</g>
<g id="a4_0012"  >
<polygon points="291,90 337,90 342,85 337,80 291,80 291,90 " style="fill:#15d815; stroke-width:1; stroke:black; " description="&lt;b&gt;HX796_RS21930&lt;/b&gt;&lt;br&gt;amino acid adenylation domain-containing protein&lt;br&gt;Location: 86197 - 92616&lt;br&gt;&lt;br&gt;&lt;b&gt;BlastP hit with MCIC6FC_007683&lt;/b&gt;&lt;br&gt;Percentage identity: 96&lt;br&gt;Percentage coverage: 100&lt;br&gt;BLAST bit score: 4148&lt;br&gt;E-value: 0.0&lt;br&gt;&lt;br&gt;&lt;b&gt;BlastP hit with MCIC6FC_007684&lt;/b&gt;&lt;br&gt;Percentage identity: 43&lt;br&gt;Percentage coverage: 28&lt;br&gt;BLAST bit score: 655&lt;br&gt;E-value: 2.5e-185" locus_tag="HX796_RS21930" class="clusterblast-orf" id="dummy-4_h4_4_12"  />
</g>
<g id="a4_0013"  >
<polygon points="342,90 380,90 385,85 380,80 342,80 342,90 " style="fill:#15d815; stroke-width:1; stroke:black; " description="&lt;b&gt;HX796_RS21935&lt;/b&gt;&lt;br&gt;amino acid adenylation domain-containing protein&lt;br&gt;Location: 92655 - 98111&lt;br&gt;&lt;br&gt;&lt;b&gt;BlastP hit with MCIC6FC_007683&lt;/b&gt;&lt;br&gt;Percentage identity: 44&lt;br&gt;Percentage coverage: 42&lt;br&gt;BLAST bit score: 668&lt;br&gt;E-value: 1.8e-189&lt;br&gt;&lt;br&gt;&lt;b&gt;BlastP hit with MCIC6FC_007684&lt;/b&gt;&lt;br&gt;Percentage identity: 98&lt;br&gt;Percentage coverage: 55&lt;br&gt;BLAST bit score: 3485&lt;br&gt;E-value: 0.0&lt;br&gt;&lt;br&gt;&lt;b&gt;BlastP hit with MCIC6FC_007685&lt;/b&gt;&lt;br&gt;Percentage identity: 35&lt;br&gt;Percentage coverage: 13&lt;br&gt;BLAST bit score: 205&lt;br&gt;E-value: 9e-50" locus_tag="HX796_RS21935" class="clusterblast-orf" id="dummy-4_h4_4_13"  />
</g>
<g id="a4_0014"  >
<polygon points="385,90 394,90 399,85 394,80 385,80 385,90 " style="fill:#15d815; stroke-width:1; stroke:black; " description="&lt;b&gt;HX796_RS21940&lt;/b&gt;&lt;br&gt;ABC transporter ATP-binding protein&lt;br&gt;Location: 98108 - 99841&lt;br&gt;&lt;br&gt;&lt;b&gt;BlastP hit with MCIC6FC_007684&lt;/b&gt;&lt;br&gt;Percentage identity: 99&lt;br&gt;Percentage coverage: 17&lt;br&gt;BLAST bit score: 1040&lt;br&gt;E-value: 4.6e-301" locus_tag="HX796_RS21940" class="clusterblast-orf" id="dummy-4_h4_4_14"  />
</g>
<g id="a4_0015"  >
<polygon points="399,90 408,90 413,85 408,80 399,80 399,90 " style="fill:#15d815; stroke-width:1; stroke:black; " description="&lt;b&gt;HX796_RS21945&lt;/b&gt;&lt;br&gt;ABC transporter ATP-binding protein&lt;br&gt;Location: 99838 - 101583&lt;br&gt;&lt;br&gt;&lt;b&gt;BlastP hit with MCIC6FC_007684&lt;/b&gt;&lt;br&gt;Percentage identity: 99&lt;br&gt;Percentage coverage: 17&lt;br&gt;BLAST bit score: 1052&lt;br&gt;E-value: 6.9e-305" locus_tag="HX796_RS21945" class="clusterblast-orf" id="dummy-4_h4_4_15"  />
</g>
<g id="a4_0016"  >
<polygon points="413,90 416,90 421,85 416,80 413,80 413,90 " style="fill:#15d815; stroke-width:1; stroke:black; " description="&lt;b&gt;HX796_RS21950&lt;/b&gt;&lt;br&gt;saccharopine dehydrogenase NADP-binding domain-containing protein&lt;br&gt;Location: 101577 - 102680&lt;br&gt;&lt;br&gt;&lt;b&gt;BlastP hit with MCIC6FC_007684&lt;/b&gt;&lt;br&gt;Percentage identity: 95&lt;br&gt;Percentage coverage: 11&lt;br&gt;BLAST bit score: 700&lt;br&gt;E-value: 6.7e-199" locus_tag="HX796_RS21950" class="clusterblast-orf" id="dummy-4_h4_4_16"  />
</g>
<g id="a4_0017"  >
<polygon points="421,90 424,90 429,85 424,80 421,80 421,90 " style="fill:white; stroke-width:1; stroke:black; " description="&lt;b&gt;HX796_RS21955&lt;/b&gt;&lt;br&gt;class I SAM-dependent methyltransferase&lt;br&gt;Location: 102677 - 103711" locus_tag="HX796_RS21955" class="clusterblast-orf" id="dummy-4_h4_4_17"  />
</g>
<g id="a4_0018"  >
<polygon points="429,90 437,90 442,85 437,80 429,80 429,90 " style="fill:#15d815; stroke-width:1; stroke:black; " description="&lt;b&gt;HX796_RS21960&lt;/b&gt;&lt;br&gt;class I SAM-dependent methyltransferase&lt;br&gt;Location: 103708 - 105378&lt;br&gt;&lt;br&gt;&lt;b&gt;BlastP hit with MCIC6FC_007685&lt;/b&gt;&lt;br&gt;Percentage identity: 96&lt;br&gt;Percentage coverage: 17&lt;br&gt;BLAST bit score: 1053&lt;br&gt;E-value: 4.1e-305" locus_tag="HX796_RS21960" class="clusterblast-orf" id="dummy-4_h4_4_18"  />
</g>
<g id="a4_0019"  >
<polygon points="442,90 447,90 452,85 447,80 442,80 442,90 " style="fill:#15d815; stroke-width:1; stroke:black; " description="&lt;b&gt;HX796_RS21965&lt;/b&gt;&lt;br&gt;cytochrome P450&lt;br&gt;Location: 105375 - 106553&lt;br&gt;&lt;br&gt;&lt;b&gt;BlastP hit with MCIC6FC_007685&lt;/b&gt;&lt;br&gt;Percentage identity: 99&lt;br&gt;Percentage coverage: 11&lt;br&gt;BLAST bit score: 718&lt;br&gt;E-value: 2.4e-204" locus_tag="HX796_RS21965" class="clusterblast-orf" id="dummy-4_h4_4_19"  />
</g>
<g id="a4_0020"  >
<polygon points="452,90 456,90 461,85 456,80 452,80 452,90 " style="fill:#15d815; stroke-width:1; stroke:black; " description="&lt;b&gt;HX796_RS21970&lt;/b&gt;&lt;br&gt;Gfo/Idh/MocA family oxidoreductase&lt;br&gt;Location: 106550 - 107695&lt;br&gt;&lt;br&gt;&lt;b&gt;BlastP hit with MCIC6FC_007685&lt;/b&gt;&lt;br&gt;Percentage identity: 92&lt;br&gt;Percentage coverage: 11&lt;br&gt;BLAST bit score: 693&lt;br&gt;E-value: 1.1e-196" locus_tag="HX796_RS21970" class="clusterblast-orf" id="dummy-4_h4_4_20"  />
</g>
<g id="a4_0021"  >
<polygon points="461,90 461,90 466,85 461,80 461,80 461,90 " style="fill:white; stroke-width:1; stroke:black; " description="&lt;b&gt;HX796_RS21975&lt;/b&gt;&lt;br&gt;VOC family protein&lt;br&gt;Location: 107692 - 108411" locus_tag="HX796_RS21975" class="clusterblast-orf" id="dummy-4_h4_4_21"  />
</g>
<g id="a4_0022"  >
<polygon points="466,90 474,90 479,85 474,80 466,80 466,90 " style="fill:#15d815; stroke-width:1; stroke:black; " description="&lt;b&gt;HX796_RS21980&lt;/b&gt;&lt;br&gt;AMP-binding protein&lt;br&gt;Location: 108404 - 110002&lt;br&gt;&lt;br&gt;&lt;b&gt;BlastP hit with MCIC6FC_007670&lt;/b&gt;&lt;br&gt;Percentage identity: 38&lt;br&gt;Percentage coverage: 38&lt;br&gt;BLAST bit score: 313&lt;br&gt;E-value: 9.5e-83&lt;br&gt;&lt;br&gt;&lt;b&gt;BlastP hit with MCIC6FC_007685&lt;/b&gt;&lt;br&gt;Percentage identity: 94&lt;br&gt;Percentage coverage: 16&lt;br&gt;BLAST bit score: 993&lt;br&gt;E-value: 6.6e-287" locus_tag="HX796_RS21980" class="clusterblast-orf" id="dummy-4_h4_4_22"  />
</g>
<g id="a4_0023"  >
<polygon points="479,90 480,90 485,85 480,80 479,80 479,90 " style="fill:white; stroke-width:1; stroke:black; " description="&lt;b&gt;HX796_RS21985&lt;/b&gt;&lt;br&gt;thioesterase&lt;br&gt;Location: 109999 - 110757" locus_tag="HX796_RS21985" class="clusterblast-orf" id="dummy-4_h4_4_23"  />
</g>
<g id="a4_0024"  >
<polygon points="485,90 487,85 485,80 485,90 " style="fill:white; stroke-width:1; stroke:black; " description="&lt;b&gt;HX796_RS21990&lt;/b&gt;&lt;br&gt;isochorismate lyase&lt;br&gt;Location: 110754 - 111062" locus_tag="HX796_RS21990" class="clusterblast-orf" id="dummy-4_h4_4_24"  />
</g>
<g id="a4_0025"  >
<polygon points="487,90 493,90 498,85 493,80 487,80 487,90 " style="fill:#15d815; stroke-width:1; stroke:black; " description="&lt;b&gt;HX796_RS21995&lt;/b&gt;&lt;br&gt;isochorismate synthase&lt;br&gt;Location: 111059 - 112435&lt;br&gt;&lt;br&gt;&lt;b&gt;BlastP hit with MCIC6FC_007685&lt;/b&gt;&lt;br&gt;Percentage identity: 86&lt;br&gt;Percentage coverage: 13&lt;br&gt;BLAST bit score: 780&lt;br&gt;E-value: 5.2e-223" locus_tag="HX796_RS21995" class="clusterblast-orf" id="dummy-4_h4_4_25"  />
</g>
<g id="a4_0026"  >
<polygon points="498,85 503,80 507,80 507,90 503,90 498,85 " style="fill:white; stroke-width:1; stroke:black; " description="&lt;b&gt;HX796_RS22000&lt;/b&gt;&lt;br&gt;gluconolaconase&lt;br&gt;Location: 112449 - 113549" locus_tag="HX796_RS22000" class="clusterblast-orf" id="dummy-4_h4_4_26"  />
</g>
<g id="a4_0027"  >
<polygon points="512,90 526,90 531,85 526,80 512,80 512,90 " style="fill:white; stroke-width:1; stroke:black; " description="&lt;b&gt;HX796_RS22005&lt;/b&gt;&lt;br&gt;TonB-dependent receptor&lt;br&gt;Location: 114187 - 116607" locus_tag="HX796_RS22005" class="clusterblast-orf" id="dummy-4_h4_4_27"  />
</g>
<g id="a4_0028"  >
<polygon points="531,90 539,90 544,85 539,80 531,80 531,90 " style="fill:white; stroke-width:1; stroke:black; " description="&lt;b&gt;HX796_RS22010&lt;/b&gt;&lt;br&gt;ABC transporter substrate-binding protein&lt;br&gt;Location: 116652 - 118262" locus_tag="HX796_RS22010" class="clusterblast-orf" id="dummy-4_h4_4_28"  />
</g>
<g id="a4_0029"  >
<polygon points="544,90 546,90 551,85 546,80 544,80 544,90 " style="fill:white; stroke-width:1; stroke:black; " description="&lt;b&gt;HX796_RS22015&lt;/b&gt;&lt;br&gt;ABC transporter permease&lt;br&gt;Location: 118259 - 119209" locus_tag="HX796_RS22015" class="clusterblast-orf" id="dummy-4_h4_4_29"  />
</g>
<g id="a4_0030"  >
<polygon points="551,90 554,90 559,85 554,80 551,80 551,90 " style="fill:white; stroke-width:1; stroke:black; " description="&lt;b&gt;HX796_RS22020&lt;/b&gt;&lt;br&gt;ABC transporter permease&lt;br&gt;Location: 119213 - 120112" locus_tag="HX796_RS22020" class="clusterblast-orf" id="dummy-4_h4_4_30"  />
</g>
<g id="a4_0031"  >
<polygon points="558,90 566,90 571,85 566,80 558,80 558,90 " style="fill:white; stroke-width:1; stroke:black; " description="&lt;b&gt;HX796_RS22025&lt;/b&gt;&lt;br&gt;ABC transporter ATP-binding protein&lt;br&gt;Location: 120109 - 121722" locus_tag="HX796_RS22025" class="clusterblast-orf" id="dummy-4_h4_4_31"  />
</g>
<g id="a4_0032"  >
<polygon points="573,90 578,90 583,85 578,80 573,80 573,90 " style="fill:white; stroke-width:1; stroke:black; " description="&lt;b&gt;HX796_RS22030&lt;/b&gt;&lt;br&gt;efflux RND transporter periplasmic adaptor subunit&lt;br&gt;Location: 121954 - 123195" locus_tag="HX796_RS22030" class="clusterblast-orf" id="dummy-4_h4_4_32"  />
</g>
<g id="a4_0033"  >
<polygon points="583,90 603,90 608,85 603,80 583,80 583,90 " style="fill:white; stroke-width:1; stroke:black; " description="&lt;b&gt;HX796_RS22035&lt;/b&gt;&lt;br&gt;efflux RND transporter permease subunit&lt;br&gt;Location: 123211 - 126390" locus_tag="HX796_RS22035" class="clusterblast-orf" id="dummy-4_h4_4_33"  />
</g>
<g id="a4_0034"  >
<polygon points="608,90 614,90 619,85 614,80 608,80 608,90 " style="fill:white; stroke-width:1; stroke:black; " description="&lt;b&gt;HX796_RS22040&lt;/b&gt;&lt;br&gt;TolC family protein&lt;br&gt;Location: 126387 - 127802" locus_tag="HX796_RS22040" class="clusterblast-orf" id="dummy-4_h4_4_34"  />
</g>
<g id="a4_0035"  >
<polygon points="620,85 625,80 628,80 628,90 625,90 620,85 " style="fill:white; stroke-width:1; stroke:black; " description="&lt;b&gt;HX796_RS22045&lt;/b&gt;&lt;br&gt;AraC family transcriptional regulator&lt;br&gt;Location: 127888 - 128904" locus_tag="HX796_RS22045" class="clusterblast-orf" id="dummy-4_h4_4_35"  />
</g>
<g id="a4_0036"  >
<polygon points="629,90 631,90 636,85 631,80 629,80 629,90 " style="fill:white; stroke-width:1; stroke:black; " description="&lt;b&gt;HX796_RS22050&lt;/b&gt;&lt;br&gt;FTR1 family protein&lt;br&gt;Location: 129072 - 129917" locus_tag="HX796_RS22050" class="clusterblast-orf" id="dummy-4_h4_4_36"  />
</g>
</svg>
