<svg xmlns="http://www.w3.org/2000/svg" xmlns:xlink="http://www.w3.org/1999/xlink" version="1.1" x="0" y="0" height="230" width="800" viewBox="0 0 800 230" preserveAspectRatio="none"  >
<g label="Query sequence" class="clusterblast-cluster"  >
<text x="5" y="20" class="clusterblast-acc"  >
Query sequence</text>
<line x1="10" y1="35" x2="778.0" y2="35" style="stroke-width:1; stroke:grey; "  />
<polygon points="95,35 100,30 125,30 125,40 100,40 95,35 " style="fill:white; stroke-width:1; stroke:black; " description="&lt;b&gt;MCIC6FC_019729&lt;/b&gt;&lt;br&gt;hypothetical protein&lt;br&gt;Location: 48 - 1635" locus_tag="MCIC6FC_019729" class="clusterblast-orf" id="dummy-1_q0_0_all"  />
<polygon points="171,40 307,40 312,35 307,30 171,30 171,40 " style="fill:#d81515; stroke-width:1; stroke:black; " description="&lt;b&gt;MCIC6FC_019730&lt;/b&gt;&lt;br&gt;hypothetical protein&lt;br&gt;Location: 4097 - 11627" locus_tag="MCIC6FC_019730" class="clusterblast-orf" id="dummy-1_q1_0_all"  />
<polygon points="312,35 317,30 320,30 320,40 317,40 312,35 " style="fill:#15d815; stroke-width:1; stroke:black; " description="&lt;b&gt;MCIC6FC_019731&lt;/b&gt;&lt;br&gt;hypothetical protein&lt;br&gt;Location: 11643 - 12033" locus_tag="MCIC6FC_019731" class="clusterblast-orf" id="dummy-1_q2_0_all"  />
<polygon points="326,35 331,30 391,30 391,40 331,40 326,35 " style="fill:#1597d8; stroke-width:1; stroke:black; " description="&lt;b&gt;MCIC6FC_019732&lt;/b&gt;&lt;br&gt;hypothetical protein&lt;br&gt;Location: 12371 - 15823" locus_tag="MCIC6FC_019732" class="clusterblast-orf" id="dummy-1_q3_0_all"  />
<polygon points="391,35 396,30 404,30 404,40 396,40 391,35 " style="fill:#9715d8; stroke-width:1; stroke:black; " description="&lt;b&gt;MCIC6FC_019733&lt;/b&gt;&lt;br&gt;hypothetical protein&lt;br&gt;Location: 15848 - 16554" locus_tag="MCIC6FC_019733" class="clusterblast-orf" id="dummy-1_q4_0_all"  />
<polygon points="405,35 410,30 477,30 477,40 410,40 405,35 " style="fill:#9715d8; stroke-width:1; stroke:black; " description="&lt;b&gt;MCIC6FC_019734&lt;/b&gt;&lt;br&gt;hypothetical protein&lt;br&gt;Location: 16577 - 20450" locus_tag="MCIC6FC_019734" class="clusterblast-orf" id="dummy-1_q5_0_all"  />
<polygon points="479,35 484,30 494,30 494,40 484,40 479,35 " style="fill:#9715d8; stroke-width:1; stroke:black; " description="&lt;b&gt;MCIC6FC_019735&lt;/b&gt;&lt;br&gt;hypothetical protein&lt;br&gt;Location: 20551 - 21340" locus_tag="MCIC6FC_019735" class="clusterblast-orf" id="dummy-1_q6_0_all"  />
<polygon points="496,35 501,30 509,30 509,40 501,40 496,35 " style="fill:#d89715; stroke-width:1; stroke:black; " description="&lt;b&gt;MCIC6FC_019736&lt;/b&gt;&lt;br&gt;hypothetical protein&lt;br&gt;Location: 21424 - 22154" locus_tag="MCIC6FC_019736" class="clusterblast-orf" id="dummy-1_q7_0_all"  />
<polygon points="510,35 515,30 521,30 521,40 515,40 510,35 " style="fill:#d89715; stroke-width:1; stroke:black; " description="&lt;b&gt;MCIC6FC_019737&lt;/b&gt;&lt;br&gt;hypothetical protein&lt;br&gt;Location: 22198 - 22796" locus_tag="MCIC6FC_019737" class="clusterblast-orf" id="dummy-1_q8_0_all"  />
<polygon points="525,35 530,30 598,30 598,40 530,40 525,35 " style="fill:#15d897; stroke-width:1; stroke:black; " description="&lt;b&gt;MCIC6FC_019738&lt;/b&gt;&lt;br&gt;hypothetical protein&lt;br&gt;Location: 22971 - 26914" locus_tag="MCIC6FC_019738" class="clusterblast-orf" id="dummy-1_q9_0_all"  />
<polygon points="599,35 604,30 630,30 630,40 604,40 599,35 " style="fill:#1515d8; stroke-width:1; stroke:black; " description="&lt;b&gt;MCIC6FC_019739&lt;/b&gt;&lt;br&gt;hypothetical protein&lt;br&gt;Location: 26943 - 28602" locus_tag="MCIC6FC_019739" class="clusterblast-orf" id="dummy-1_q10_0_all"  />
<polygon points="634,35 639,30 645,30 645,40 639,40 634,35 " style="fill:#d81597; stroke-width:1; stroke:black; " description="&lt;b&gt;MCIC6FC_019740&lt;/b&gt;&lt;br&gt;hypothetical protein&lt;br&gt;Location: 28808 - 29406" locus_tag="MCIC6FC_019740" class="clusterblast-orf" id="dummy-1_q11_0_all"  />
<polygon points="647,40 679,40 684,35 679,30 647,30 647,40 " style="fill:#97d815; stroke-width:1; stroke:black; " description="&lt;b&gt;MCIC6FC_019741&lt;/b&gt;&lt;br&gt;hypothetical protein&lt;br&gt;Location: 29521 - 31499" locus_tag="MCIC6FC_019741" class="clusterblast-orf" id="dummy-1_q12_0_all"  />
</g>
<g label="NZ_PTJH01000008" description="NZ_PTJH01000008 (122162-165756): Enterobacter ludwigii strain NFPP41 Ga005902... (52% of genes show similarity), arylpolyene" class="clusterblast-cluster"  >
<text x="5" y="70" class="clusterblast-acc"  >
<a xlink:href="https://antismash-db.secondarymetabolites.org/area.html?record=NZ_PTJH01000008&amp;start=122162&amp;end=165756" target="_blank">NZ_PTJH01000008 (122162-165756)</a>: Enterobacter ludwigii strain NFPP41 Ga005902... (52% of genes show similarity), arylpolyene</text>
<line x1="10" y1="85" x2="778.0" y2="85" style="stroke-width:1; stroke:grey; "  />
</g>
<g id="a1_000"  >
<polygon points="0,90 17,90 22,85 17,80 0,80 0,90 " style="fill:white; stroke-width:1; stroke:black; " description="&lt;b&gt;NV80_RS22165&lt;/b&gt;&lt;br&gt;NAD(P)/FAD-dependent oxidoreductase&lt;br&gt;Location: 164883 - 163687" locus_tag="NV80_RS22165" class="clusterblast-orf" id="dummy-1_h1_8_0"  />
</g>
<g id="a1_001"  >
<polygon points="23,85 28,80 40,80 40,90 28,90 23,85 " style="fill:white; stroke-width:1; stroke:black; " description="&lt;b&gt;NV80_RS22160&lt;/b&gt;&lt;br&gt;3-phosphoglycerate dehydrogenase&lt;br&gt;Location: 163654 - 162716" locus_tag="NV80_RS22160" class="clusterblast-orf" id="dummy-1_h1_8_1"  />
</g>
<g id="a1_002"  >
<polygon points="40,85 45,80 53,80 53,90 45,90 40,85 " style="fill:white; stroke-width:1; stroke:black; " description="&lt;b&gt;NV80_RS22155&lt;/b&gt;&lt;br&gt;diguanylate cyclase&lt;br&gt;Location: 162716 - 162024" locus_tag="NV80_RS22155" class="clusterblast-orf" id="dummy-1_h1_8_2"  />
</g>
<g id="a1_003"  >
<polygon points="56,90 65,90 70,85 65,80 56,80 56,90 " style="fill:white; stroke-width:1; stroke:black; " description="&lt;b&gt;NV80_RS22150&lt;/b&gt;&lt;br&gt;IclR family transcriptional regulator&lt;br&gt;Location: 161854 - 161117" locus_tag="NV80_RS22150" class="clusterblast-orf" id="dummy-1_h1_8_3"  />
</g>
<g id="a1_004"  >
<polygon points="71,85 76,80 96,80 96,90 76,90 71,85 " style="fill:white; stroke-width:1; stroke:black; " description="&lt;b&gt;NV80_RS22145&lt;/b&gt;&lt;br&gt;MFS transporter&lt;br&gt;Location: 161079 - 159745" locus_tag="NV80_RS22145" class="clusterblast-orf" id="dummy-1_h1_8_4"  />
</g>
<g id="a1_005"  >
<polygon points="102,90 104,90 109,85 104,80 102,80 102,90 " style="fill:white; stroke-width:1; stroke:black; " description="&lt;b&gt;NV80_RS22140&lt;/b&gt;&lt;br&gt;two pore domain potassium channel family protein&lt;br&gt;Location: 159410 - 159012" locus_tag="NV80_RS22140" class="clusterblast-orf" id="dummy-1_h1_8_5"  />
</g>
<g id="a1_006"  >
<polygon points="113,90 127,90 132,85 127,80 113,80 113,90 " style="fill:white; stroke-width:1; stroke:black; " description="&lt;b&gt;NV80_RS22135&lt;/b&gt;&lt;br&gt;TerC/Alx family metal homeostasis membrane protein&lt;br&gt;Location: 158846 - 157818" locus_tag="NV80_RS22135" class="clusterblast-orf" id="dummy-1_h1_8_6"  />
</g>
<g id="a1_007"  >
<polygon points="133,85 138,80 145,80 145,90 138,90 133,85 " style="fill:white; stroke-width:1; stroke:black; " description="&lt;b&gt;NV80_RS22130&lt;/b&gt;&lt;br&gt;HAD-IB family hydrolase&lt;br&gt;Location: 157772 - 157119" locus_tag="NV80_RS22130" class="clusterblast-orf" id="dummy-1_h1_8_7"  />
</g>
<g id="a1_008"  >
<polygon points="150,90 155,90 160,85 155,80 150,80 150,90 " style="fill:white; stroke-width:1; stroke:black; " description="&lt;b&gt;NV80_RS22125&lt;/b&gt;&lt;br&gt;glycoside hydrolase&lt;br&gt;Location: 156869 - 156342" locus_tag="NV80_RS22125" class="clusterblast-orf" id="dummy-1_h1_8_8"  />
</g>
<g id="a1_009"  >
<polygon points="160,85 165,80 174,80 174,90 165,90 160,85 " style="fill:white; stroke-width:1; stroke:black; " description="&lt;b&gt;NV80_RS22120&lt;/b&gt;&lt;br&gt;SDR family NAD(P)-dependent oxidoreductase&lt;br&gt;Location: 156337 - 155543" locus_tag="NV80_RS22120" class="clusterblast-orf" id="dummy-1_h1_8_9"  />
</g>
<g id="a1_0010"  >
<polygon points="175,85 180,80 192,80 192,90 180,90 175,85 " style="fill:white; stroke-width:1; stroke:black; " description="&lt;b&gt;NV80_RS22115&lt;/b&gt;&lt;br&gt;LysR family transcriptional regulator&lt;br&gt;Location: 155509 - 154628" locus_tag="NV80_RS22115" class="clusterblast-orf" id="dummy-1_h1_8_10"  />
</g>
<g id="a1_0011"  >
<polygon points="193,90 198,90 203,85 198,80 193,80 193,90 " style="fill:white; stroke-width:1; stroke:black; " description="&lt;b&gt;NV80_RS22110&lt;/b&gt;&lt;br&gt;phenolic acid decarboxylase&lt;br&gt;Location: 154528 - 154022" locus_tag="NV80_RS22110" class="clusterblast-orf" id="dummy-1_h1_8_11"  />
</g>
<g id="a1_0012"  >
<polygon points="209,90 225,90 230,85 225,80 209,80 209,90 " style="fill:#d81515; stroke-width:1; stroke:black; " description="&lt;b&gt;NV80_RS22105&lt;/b&gt;&lt;br&gt;UDP-4-amino-4-deoxy-L-arabinose aminotransferase&lt;br&gt;Location: 153699 - 152560&lt;br&gt;&lt;br&gt;&lt;b&gt;BlastP hit with MCIC6FC_019730&lt;/b&gt;&lt;br&gt;Percentage identity: 79&lt;br&gt;Percentage coverage: 15&lt;br&gt;BLAST bit score: 511&lt;br&gt;E-value: 5e-142" locus_tag="NV80_RS22105" class="clusterblast-orf" id="dummy-1_h1_8_12"  />
</g>
<g id="a1_0013"  >
<polygon points="230,90 244,90 249,85 244,80 230,80 230,90 " style="fill:#d81515; stroke-width:1; stroke:black; " description="&lt;b&gt;NV80_RS22100&lt;/b&gt;&lt;br&gt;undecaprenyl-phosphate 4-deoxy-4-formamido-L-arabinose transferase&lt;br&gt;Location: 152558 - 151575&lt;br&gt;&lt;br&gt;&lt;b&gt;BlastP hit with MCIC6FC_019730&lt;/b&gt;&lt;br&gt;Percentage identity: 79&lt;br&gt;Percentage coverage: 14&lt;br&gt;BLAST bit score: 481&lt;br&gt;E-value: 5.5e-133" locus_tag="NV80_RS22100" class="clusterblast-orf" id="dummy-1_h1_8_13"  />
</g>
<g id="a1_0014"  >
<polygon points="249,90 281,90 286,85 281,80 249,80 249,90 " style="fill:#d81515; stroke-width:1; stroke:black; " description="&lt;b&gt;NV80_RS22095&lt;/b&gt;&lt;br&gt;bifunctional UDP-4-amino-4-deoxy-L-arabinose formyltransferase/UDP-glucuronic acid oxidase ArnA&lt;br&gt;Location: 151578 - 149596&lt;br&gt;&lt;br&gt;&lt;b&gt;BlastP hit with MCIC6FC_019730&lt;/b&gt;&lt;br&gt;Percentage identity: 73&lt;br&gt;Percentage coverage: 30&lt;br&gt;BLAST bit score: 956&lt;br&gt;E-value: 4.5e-276" locus_tag="NV80_RS22095" class="clusterblast-orf" id="dummy-1_h1_8_14"  />
</g>
<g id="a1_0015"  >
<polygon points="286,90 298,90 303,85 298,80 286,80 286,90 " style="fill:#d81515; stroke-width:1; stroke:black; " description="&lt;b&gt;NV80_RS22090&lt;/b&gt;&lt;br&gt;4-deoxy-4-formamido-L-arabinose- phosphoundecaprenol deformylase&lt;br&gt;Location: 149599 - 148697&lt;br&gt;&lt;br&gt;&lt;b&gt;BlastP hit with MCIC6FC_019730&lt;/b&gt;&lt;br&gt;Percentage identity: 52&lt;br&gt;Percentage coverage: 11&lt;br&gt;BLAST bit score: 233&lt;br&gt;E-value: 1.5e-58" locus_tag="NV80_RS22090" class="clusterblast-orf" id="dummy-1_h1_8_15"  />
</g>
<g id="a1_0016"  >
<polygon points="303,90 329,90 334,85 329,80 303,80 303,90 " style="fill:#d81515; stroke-width:1; stroke:black; " description="&lt;b&gt;NV80_RS22085&lt;/b&gt;&lt;br&gt;lipid IV(A) 4-amino-4-deoxy-L-arabinosyltransferase&lt;br&gt;Location: 148700 - 147045&lt;br&gt;&lt;br&gt;&lt;b&gt;BlastP hit with MCIC6FC_019730&lt;/b&gt;&lt;br&gt;Percentage identity: 40&lt;br&gt;Percentage coverage: 26&lt;br&gt;BLAST bit score: 324&lt;br&gt;E-value: 1.1e-85" locus_tag="NV80_RS22085" class="clusterblast-orf" id="dummy-1_h1_8_16"  />
</g>
<g id="a1_0017"  >
<polygon points="334,90 335,90 340,85 335,80 334,80 334,90 " style="fill:white; stroke-width:1; stroke:black; " description="&lt;b&gt;NV80_RS22080&lt;/b&gt;&lt;br&gt;4-amino-4-deoxy-L-arabinose-phosphoundecaprenol flippase subunit ArnE&lt;br&gt;Location: 147048 - 146710" locus_tag="NV80_RS22080" class="clusterblast-orf" id="dummy-1_h1_8_17"  />
</g>
<g id="a1_0018"  >
<polygon points="340,90 342,90 347,85 342,80 340,80 340,90 " style="fill:white; stroke-width:1; stroke:black; " description="&lt;b&gt;NV80_RS22075&lt;/b&gt;&lt;br&gt;4-amino-4-deoxy-L-arabinose-phospho-UDP flippase&lt;br&gt;Location: 146713 - 146309" locus_tag="NV80_RS22075" class="clusterblast-orf" id="dummy-1_h1_8_18"  />
</g>
<g id="a1_0019"  >
<polygon points="347,85 352,80 358,80 358,90 352,90 347,85 " style="fill:#15d815; stroke-width:1; stroke:black; " description="&lt;b&gt;NV80_RS22070&lt;/b&gt;&lt;br&gt;4'-phosphopantetheinyl transferase AcpT&lt;br&gt;Location: 146352 - 145759&lt;br&gt;&lt;br&gt;&lt;b&gt;BlastP hit with MCIC6FC_019731&lt;/b&gt;&lt;br&gt;Percentage identity: 64&lt;br&gt;Percentage coverage: 92&lt;br&gt;BLAST bit score: 144&lt;br&gt;E-value: 9.5e-33" locus_tag="NV80_RS22070" class="clusterblast-orf" id="dummy-1_h1_8_19"  />
</g>
<g id="a1_0020"  >
<polygon points="358,85 363,80 381,80 381,90 363,90 358,85 " style="fill:#1597d8; stroke-width:1; stroke:black; " description="&lt;b&gt;NV80_RS22065&lt;/b&gt;&lt;br&gt;beta-ketoacyl-ACP synthase&lt;br&gt;Location: 145756 - 144527&lt;br&gt;&lt;br&gt;&lt;b&gt;BlastP hit with MCIC6FC_019732&lt;/b&gt;&lt;br&gt;Percentage identity: 68&lt;br&gt;Percentage coverage: 36&lt;br&gt;BLAST bit score: 445&lt;br&gt;E-value: 1.2e-122" locus_tag="NV80_RS22065" class="clusterblast-orf" id="dummy-1_h1_8_20"  />
</g>
<g id="a1_0021"  >
<polygon points="381,85 386,80 394,80 394,90 386,90 381,85 " style="fill:#1597d8; stroke-width:1; stroke:black; " description="&lt;b&gt;NV80_RS22060&lt;/b&gt;&lt;br&gt;3-oxoacyl-ACP reductase FabG&lt;br&gt;Location: 144530 - 143799&lt;br&gt;&lt;br&gt;&lt;b&gt;BlastP hit with MCIC6FC_019732&lt;/b&gt;&lt;br&gt;Percentage identity: 72&lt;br&gt;Percentage coverage: 24&lt;br&gt;BLAST bit score: 322&lt;br&gt;E-value: 1.5e-85" locus_tag="NV80_RS22060" class="clusterblast-orf" id="dummy-1_h1_8_21"  />
</g>
<g id="a1_0022"  >
<polygon points="394,85 399,80 403,80 403,90 399,90 394,85 " style="fill:white; stroke-width:1; stroke:black; " description="&lt;b&gt;NV80_RS22055&lt;/b&gt;&lt;br&gt;3-hydroxy-fatty acyl-ACP dehydratase&lt;br&gt;Location: 143802 - 143329" locus_tag="NV80_RS22055" class="clusterblast-orf" id="dummy-1_h1_8_22"  />
</g>
<g id="a1_0023"  >
<polygon points="403,85 408,80 425,80 425,90 408,90 403,85 " style="fill:#1597d8; stroke-width:1; stroke:black; " description="&lt;b&gt;NV80_RS22050&lt;/b&gt;&lt;br&gt;beta-ketoacyl-[acyl-carrier-protein] synthase family protein&lt;br&gt;Location: 143332 - 142163&lt;br&gt;&lt;br&gt;&lt;b&gt;BlastP hit with MCIC6FC_019732&lt;/b&gt;&lt;br&gt;Percentage identity: 64&lt;br&gt;Percentage coverage: 38&lt;br&gt;BLAST bit score: 443&lt;br&gt;E-value: 4.5e-122" locus_tag="NV80_RS22050" class="clusterblast-orf" id="dummy-1_h1_8_23"  />
</g>
<g id="a1_0024"  >
<polygon points="425,85 430,80 436,80 436,90 430,90 425,85 " style="fill:#9715d8; stroke-width:1; stroke:black; " description="&lt;b&gt;NV80_RS22045&lt;/b&gt;&lt;br&gt;DUF3261 domain-containing protein&lt;br&gt;Location: 142161 - 141583&lt;br&gt;&lt;br&gt;&lt;b&gt;BlastP hit with MCIC6FC_019733&lt;/b&gt;&lt;br&gt;Percentage identity: 65&lt;br&gt;Percentage coverage: 86&lt;br&gt;BLAST bit score: 245&lt;br&gt;E-value: 5.2e-63" locus_tag="NV80_RS22045" class="clusterblast-orf" id="dummy-1_h1_8_24"  />
</g>
<g id="a1_0025"  >
<polygon points="436,85 441,80 479,80 479,90 441,90 436,85 " style="fill:#9715d8; stroke-width:1; stroke:black; " description="&lt;b&gt;NV80_RS22040&lt;/b&gt;&lt;br&gt;MMPL family transporter&lt;br&gt;Location: 141586 - 139262&lt;br&gt;&lt;br&gt;&lt;b&gt;BlastP hit with MCIC6FC_019733&lt;/b&gt;&lt;br&gt;Percentage identity: 83&lt;br&gt;Percentage coverage: 18&lt;br&gt;BLAST bit score: 64&lt;br&gt;E-value: 1.3e-08&lt;br&gt;&lt;br&gt;&lt;b&gt;BlastP hit with MCIC6FC_019734&lt;/b&gt;&lt;br&gt;Percentage identity: 72&lt;br&gt;Percentage coverage: 59&lt;br&gt;BLAST bit score: 904&lt;br&gt;E-value: 8.3e-261" locus_tag="NV80_RS22040" class="clusterblast-orf" id="dummy-1_h1_8_25"  />
</g>
<g id="a1_0026"  >
<polygon points="479,85 484,80 490,80 490,90 484,90 479,85 " style="fill:#9715d8; stroke-width:1; stroke:black; " description="&lt;b&gt;NV80_RS22035&lt;/b&gt;&lt;br&gt;outer membrane lipoprotein carrier protein LolA&lt;br&gt;Location: 139293 - 138688&lt;br&gt;&lt;br&gt;&lt;b&gt;BlastP hit with MCIC6FC_019734&lt;/b&gt;&lt;br&gt;Percentage identity: 79&lt;br&gt;Percentage coverage: 13&lt;br&gt;BLAST bit score: 253&lt;br&gt;E-value: 1.3e-64" locus_tag="NV80_RS22035" class="clusterblast-orf" id="dummy-1_h1_8_26"  />
</g>
<g id="a1_0027"  >
<polygon points="490,85 495,80 498,80 498,90 495,90 490,85 " style="fill:white; stroke-width:1; stroke:black; " description="&lt;b&gt;NV80_RS22030&lt;/b&gt;&lt;br&gt;acyl-CoA thioesterase&lt;br&gt;Location: 138691 - 138269" locus_tag="NV80_RS22030" class="clusterblast-orf" id="dummy-1_h1_8_27"  />
</g>
<g id="a1_0028"  >
<polygon points="498,85 503,80 530,80 530,90 503,90 498,85 " style="fill:#9715d8; stroke-width:1; stroke:black; " description="&lt;b&gt;NV80_RS22025&lt;/b&gt;&lt;br&gt;glycosyltransferase family 2 protein&lt;br&gt;Location: 138265 - 136574&lt;br&gt;&lt;br&gt;&lt;b&gt;BlastP hit with MCIC6FC_019734&lt;/b&gt;&lt;br&gt;Percentage identity: 67&lt;br&gt;Percentage coverage: 19&lt;br&gt;BLAST bit score: 291&lt;br&gt;E-value: 4.3e-76&lt;br&gt;&lt;br&gt;&lt;b&gt;BlastP hit with MCIC6FC_019735&lt;/b&gt;&lt;br&gt;Percentage identity: 50&lt;br&gt;Percentage coverage: 105&lt;br&gt;BLAST bit score: 208&lt;br&gt;E-value: 1e-51" locus_tag="NV80_RS22025" class="clusterblast-orf" id="dummy-1_h1_8_28"  />
</g>
<g id="a1_0029"  >
<polygon points="530,85 535,80 536,80 536,90 535,90 530,85 " style="fill:#d89715; stroke-width:1; stroke:black; " description="&lt;b&gt;NV80_RS22020&lt;/b&gt;&lt;br&gt;beta-hydroxyacyl-ACP dehydratase&lt;br&gt;Location: 136583 - 136230&lt;br&gt;&lt;br&gt;&lt;b&gt;BlastP hit with MCIC6FC_019736&lt;/b&gt;&lt;br&gt;Percentage identity: 80&lt;br&gt;Percentage coverage: 47&lt;br&gt;BLAST bit score: 152&lt;br&gt;E-value: 3.9e-35" locus_tag="NV80_RS22020" class="clusterblast-orf" id="dummy-1_h1_8_29"  />
</g>
<g id="a1_0030"  >
<polygon points="536,85 541,80 562,80 562,90 541,90 536,85 " style="fill:#d89715; stroke-width:1; stroke:black; " description="&lt;b&gt;NV80_RS22015&lt;/b&gt;&lt;br&gt;acyl-CoA synthetase&lt;br&gt;Location: 136243 - 134882&lt;br&gt;&lt;br&gt;&lt;b&gt;BlastP hit with MCIC6FC_019736&lt;/b&gt;&lt;br&gt;Percentage identity: 58&lt;br&gt;Percentage coverage: 53&lt;br&gt;BLAST bit score: 119&lt;br&gt;E-value: 4.8e-25&lt;br&gt;&lt;br&gt;&lt;b&gt;BlastP hit with MCIC6FC_019737&lt;/b&gt;&lt;br&gt;Percentage identity: 38&lt;br&gt;Percentage coverage: 100&lt;br&gt;BLAST bit score: 74&lt;br&gt;E-value: 1.3e-11" locus_tag="NV80_RS22015" class="clusterblast-orf" id="dummy-1_h1_8_30"  />
</g>
<g id="a1_0031"  >
<polygon points="561,85 566,80 572,80 572,90 566,90 561,85 " style="fill:#15d897; stroke-width:1; stroke:black; " description="&lt;b&gt;NV80_RS22010&lt;/b&gt;&lt;br&gt;hypothetical protein&lt;br&gt;Location: 134889 - 134302&lt;br&gt;&lt;br&gt;&lt;b&gt;BlastP hit with MCIC6FC_019738&lt;/b&gt;&lt;br&gt;Percentage identity: 60&lt;br&gt;Percentage coverage: 18&lt;br&gt;BLAST bit score: 167&lt;br&gt;E-value: 5.1e-39" locus_tag="NV80_RS22010" class="clusterblast-orf" id="dummy-1_h1_8_31"  />
</g>
<g id="a1_0032"  >
<polygon points="573,85 577,80 577,90 573,85 " style="fill:white; stroke-width:1; stroke:black; " description="&lt;b&gt;NV80_RS22005&lt;/b&gt;&lt;br&gt;acyl carrier protein&lt;br&gt;Location: 134295 - 134044" locus_tag="NV80_RS22005" class="clusterblast-orf" id="dummy-1_h1_8_32"  />
</g>
<g id="a1_0033"  >
<polygon points="578,85 582,80 582,90 578,85 " style="fill:white; stroke-width:1; stroke:black; " description="&lt;b&gt;NV80_RS22000&lt;/b&gt;&lt;br&gt;hypothetical protein&lt;br&gt;Location: 134030 - 133773" locus_tag="NV80_RS22000" class="clusterblast-orf" id="dummy-1_h1_8_33"  />
</g>
<g id="a1_0034"  >
<polygon points="582,85 587,80 597,80 597,90 587,90 582,85 " style="fill:#15d897; stroke-width:1; stroke:black; " description="&lt;b&gt;NV80_RS21995&lt;/b&gt;&lt;br&gt;1-acyl-sn-glycerol-3-phosphate acyltransferase&lt;br&gt;Location: 133792 - 132977&lt;br&gt;&lt;br&gt;&lt;b&gt;BlastP hit with MCIC6FC_019738&lt;/b&gt;&lt;br&gt;Percentage identity: 44&lt;br&gt;Percentage coverage: 18&lt;br&gt;BLAST bit score: 106&lt;br&gt;E-value: 1.4e-20" locus_tag="NV80_RS21995" class="clusterblast-orf" id="dummy-1_h1_8_34"  />
</g>
<g id="a1_0035"  >
<polygon points="597,85 602,80 611,80 611,90 602,90 597,85 " style="fill:#15d897; stroke-width:1; stroke:black; " description="&lt;b&gt;NV80_RS21990&lt;/b&gt;&lt;br&gt;beta-ketoacyl synthase chain length factor&lt;br&gt;Location: 132980 - 132258&lt;br&gt;&lt;br&gt;&lt;b&gt;BlastP hit with MCIC6FC_019738&lt;/b&gt;&lt;br&gt;Percentage identity: 62&lt;br&gt;Percentage coverage: 26&lt;br&gt;BLAST bit score: 249&lt;br&gt;E-value: 1.3e-63" locus_tag="NV80_RS21990" class="clusterblast-orf" id="dummy-1_h1_8_35"  />
</g>
<g id="a1_0036"  >
<polygon points="612,85 617,80 632,80 632,90 617,90 612,85 " style="fill:white; stroke-width:1; stroke:black; " description="&lt;b&gt;NV80_RS21985&lt;/b&gt;&lt;br&gt;methyltransferase domain-containing protein&lt;br&gt;Location: 132193 - 131129" locus_tag="NV80_RS21985" class="clusterblast-orf" id="dummy-1_h1_8_36"  />
</g>
<g id="a1_0037"  >
<polygon points="633,85 638,80 640,80 640,90 638,90 633,85 " style="fill:#15d897; stroke-width:1; stroke:black; " description="&lt;b&gt;NV80_RS21980&lt;/b&gt;&lt;br&gt;hypothetical protein&lt;br&gt;Location: 131061 - 130672&lt;br&gt;&lt;br&gt;&lt;b&gt;BlastP hit with MCIC6FC_019738&lt;/b&gt;&lt;br&gt;Percentage identity: 56&lt;br&gt;Percentage coverage: 11&lt;br&gt;BLAST bit score: 95&lt;br&gt;E-value: 2.5e-17" locus_tag="NV80_RS21980" class="clusterblast-orf" id="dummy-1_h1_8_37"  />
</g>
<g id="a1_0038"  >
<polygon points="646,85 651,80 666,80 666,90 651,90 646,85 " style="fill:#1515d8; stroke-width:1; stroke:black; " description="&lt;b&gt;NV80_RS21975&lt;/b&gt;&lt;br&gt;AI-2E family transporter&lt;br&gt;Location: 130349 - 129300&lt;br&gt;&lt;br&gt;&lt;b&gt;BlastP hit with MCIC6FC_019739&lt;/b&gt;&lt;br&gt;Percentage identity: 81&lt;br&gt;Percentage coverage: 61&lt;br&gt;BLAST bit score: 365&lt;br&gt;E-value: 5.9e-99" locus_tag="NV80_RS21975" class="clusterblast-orf" id="dummy-1_h1_8_38"  />
</g>
<g id="a1_0039"  >
<polygon points="669,90 687,90 692,85 687,80 669,80 669,90 " style="fill:white; stroke-width:1; stroke:black; " description="&lt;b&gt;NV80_RS21970&lt;/b&gt;&lt;br&gt;MFS transporter&lt;br&gt;Location: 129155 - 127938" locus_tag="NV80_RS21970" class="clusterblast-orf" id="dummy-1_h1_8_39"  />
</g>
<g id="a1_0040"  >
<polygon points="692,85 697,80 702,80 702,90 697,90 692,85 " style="fill:#1515d8; stroke-width:1; stroke:black; " description="&lt;b&gt;NV80_RS21965&lt;/b&gt;&lt;br&gt;DcrB family lipoprotein&lt;br&gt;Location: 127933 - 127376&lt;br&gt;&lt;br&gt;&lt;b&gt;BlastP hit with MCIC6FC_019739&lt;/b&gt;&lt;br&gt;Percentage identity: 62&lt;br&gt;Percentage coverage: 49&lt;br&gt;BLAST bit score: 185&lt;br&gt;E-value: 1.4e-44" locus_tag="NV80_RS21965" class="clusterblast-orf" id="dummy-1_h1_8_40"  />
</g>
<g id="a1_0041"  >
<polygon points="704,85 709,80 716,80 716,90 709,90 704,85 " style="fill:#d81597; stroke-width:1; stroke:black; " description="&lt;b&gt;NV80_RS21960&lt;/b&gt;&lt;br&gt;7-cyano-7-deazaguanine/7-aminomethyl-7- deazaguanine transporter&lt;br&gt;Location: 127303 - 126638&lt;br&gt;&lt;br&gt;&lt;b&gt;BlastP hit with MCIC6FC_019740&lt;/b&gt;&lt;br&gt;Percentage identity: 87&lt;br&gt;Percentage coverage: 98&lt;br&gt;BLAST bit score: 262&lt;br&gt;E-value: 2.1e-68" locus_tag="NV80_RS21960" class="clusterblast-orf" id="dummy-1_h1_8_41"  />
</g>
<g id="a1_0042"  >
<polygon points="719,90 719,90 724,85 719,80 719,80 719,90 " style="fill:white; stroke-width:1; stroke:black; " description="&lt;b&gt;NV80_RS21955&lt;/b&gt;&lt;br&gt;sulfurtransferase TusA&lt;br&gt;Location: 126471 - 126229" locus_tag="NV80_RS21955" class="clusterblast-orf" id="dummy-1_h1_8_42"  />
</g>
<g id="a1_0043"  >
<polygon points="727,90 740,90 745,85 740,80 727,80 727,90 " style="fill:#97d815; stroke-width:1; stroke:black; " description="&lt;b&gt;NV80_RS21950&lt;/b&gt;&lt;br&gt;TRAP transporter substrate-binding protein&lt;br&gt;Location: 126037 - 125066&lt;br&gt;&lt;br&gt;&lt;b&gt;BlastP hit with MCIC6FC_019741&lt;/b&gt;&lt;br&gt;Percentage identity: 66&lt;br&gt;Percentage coverage: 41&lt;br&gt;BLAST bit score: 143&lt;br&gt;E-value: 3.6e-32" locus_tag="NV80_RS21950" class="clusterblast-orf" id="dummy-1_h1_8_43"  />
</g>
<g id="a1_0044"  >
<polygon points="746,90 750,90 755,85 750,80 746,80 746,90 " style="fill:#97d815; stroke-width:1; stroke:black; " description="&lt;b&gt;NV80_RS21945&lt;/b&gt;&lt;br&gt;TRAP transporter small permease&lt;br&gt;Location: 125054 - 124545&lt;br&gt;&lt;br&gt;&lt;b&gt;BlastP hit with MCIC6FC_019741&lt;/b&gt;&lt;br&gt;Percentage identity: 46&lt;br&gt;Percentage coverage: 48&lt;br&gt;BLAST bit score: 95&lt;br&gt;E-value: 1.1e-17" locus_tag="NV80_RS21945" class="clusterblast-orf" id="dummy-1_h1_8_44"  />
</g>
<g id="a1_0045"  >
<polygon points="755,90 775,90 780,85 775,80 755,80 755,90 " style="fill:white; stroke-width:1; stroke:black; " description="&lt;b&gt;NV80_RS21940&lt;/b&gt;&lt;br&gt;TRAP transporter large permease&lt;br&gt;Location: 124534 - 123248" locus_tag="NV80_RS21940" class="clusterblast-orf" id="dummy-1_h1_8_45"  />
</g>
</svg>
