<svg xmlns="http://www.w3.org/2000/svg" xmlns:xlink="http://www.w3.org/1999/xlink" version="1.1" x="0" y="0" height="230" width="800" viewBox="0 0 800 230" preserveAspectRatio="none"  >
<g label="Query sequence" class="clusterblast-cluster"  >
<text x="5" y="20" class="clusterblast-acc"  >
Query sequence</text>
<line x1="10" y1="35" x2="778.0" y2="35" style="stroke-width:1; stroke:grey; "  />
<polygon points="0,35 5,30 6,30 6,40 5,40 0,35 " style="fill:white; stroke-width:1; stroke:black; " description="&lt;b&gt;MCIC6FC_018480&lt;/b&gt;&lt;br&gt;hypothetical protein&lt;br&gt;Location: 40369 - 41275" locus_tag="MCIC6FC_018480" class="clusterblast-orf" id="dummy-1_q0_0_all"  />
<polygon points="9,40 19,40 24,35 19,30 9,30 9,40 " style="fill:white; stroke-width:1; stroke:black; " description="&lt;b&gt;MCIC6FC_018481&lt;/b&gt;&lt;br&gt;hypothetical protein&lt;br&gt;Location: 41686 - 43743" locus_tag="MCIC6FC_018481" class="clusterblast-orf" id="dummy-1_q1_0_all"  />
<polygon points="25,35 30,30 42,30 42,40 30,40 25,35 " style="fill:#d81515; stroke-width:1; stroke:black; " description="&lt;b&gt;MCIC6FC_018482&lt;/b&gt;&lt;br&gt;hypothetical protein&lt;br&gt;Location: 43880 - 46147" locus_tag="MCIC6FC_018482" class="clusterblast-orf" id="dummy-1_q2_0_all"  />
<polygon points="42,40 44,40 49,35 44,30 42,30 42,40 " style="fill:#54d815; stroke-width:1; stroke:black; " description="&lt;b&gt;MCIC6FC_018483&lt;/b&gt;&lt;br&gt;hypothetical protein&lt;br&gt;Location: 46260 - 47154" locus_tag="MCIC6FC_018483" class="clusterblast-orf" id="dummy-1_q3_0_all"  />
<polygon points="50,35 55,30 67,30 67,40 55,40 50,35 " style="fill:#15c1d8; stroke-width:1; stroke:black; " description="&lt;b&gt;MCIC6FC_018484&lt;/b&gt;&lt;br&gt;hypothetical protein&lt;br&gt;Location: 47233 - 49612" locus_tag="MCIC6FC_018484" class="clusterblast-orf" id="dummy-1_q4_0_all"  />
<polygon points="67,35 72,30 77,30 77,40 72,40 67,35 " style="fill:#8215d8; stroke-width:1; stroke:black; " description="&lt;b&gt;MCIC6FC_018485&lt;/b&gt;&lt;br&gt;hypothetical protein&lt;br&gt;Location: 49634 - 50993" locus_tag="MCIC6FC_018485" class="clusterblast-orf" id="dummy-1_q5_0_all"  />
<polygon points="78,40 79,40 84,35 79,30 78,30 78,40 " style="fill:#d84415; stroke-width:1; stroke:black; " description="&lt;b&gt;MCIC6FC_018486&lt;/b&gt;&lt;br&gt;hypothetical protein&lt;br&gt;Location: 51132 - 52029" locus_tag="MCIC6FC_018486" class="clusterblast-orf" id="dummy-1_q6_0_all"  />
<polygon points="85,40 96,40 101,35 96,30 85,30 85,40 " style="fill:#25d815; stroke-width:1; stroke:black; " description="&lt;b&gt;MCIC6FC_018487&lt;/b&gt;&lt;br&gt;hypothetical protein&lt;br&gt;Location: 52166 - 54331" locus_tag="MCIC6FC_018487" class="clusterblast-orf" id="dummy-1_q7_0_all"  />
<polygon points="102,35 107,30 109,30 109,40 107,40 102,35 " style="fill:#1592d8; stroke-width:1; stroke:black; " description="&lt;b&gt;MCIC6FC_018488&lt;/b&gt;&lt;br&gt;hypothetical protein&lt;br&gt;Location: 54373 - 55450" locus_tag="MCIC6FC_018488" class="clusterblast-orf" id="dummy-1_q8_0_all"  />
<polygon points="110,40 111,40 116,35 111,30 110,30 110,40 " style="fill:#b115d8; stroke-width:1; stroke:black; " description="&lt;b&gt;MCIC6FC_018489&lt;/b&gt;&lt;br&gt;hypothetical protein&lt;br&gt;Location: 55551 - 56322" locus_tag="MCIC6FC_018489" class="clusterblast-orf" id="dummy-1_q9_0_all"  />
<polygon points="116,35 121,30 123,30 123,40 121,40 116,35 " style="fill:#d87315; stroke-width:1; stroke:black; " description="&lt;b&gt;MCIC6FC_018490&lt;/b&gt;&lt;br&gt;hypothetical protein&lt;br&gt;Location: 56326 - 57332" locus_tag="MCIC6FC_018490" class="clusterblast-orf" id="dummy-1_q10_0_all"  />
<polygon points="124,40 134,40 139,35 134,30 124,30 124,40 " style="fill:#15d834; stroke-width:1; stroke:black; " description="&lt;b&gt;MCIC6FC_018491&lt;/b&gt;&lt;br&gt;hypothetical protein&lt;br&gt;Location: 57455 - 59520" locus_tag="MCIC6FC_018491" class="clusterblast-orf" id="dummy-1_q11_0_all"  />
<polygon points="140,35 145,30 162,30 162,40 145,40 140,35 " style="fill:#1563d8; stroke-width:1; stroke:black; " description="&lt;b&gt;MCIC6FC_018492&lt;/b&gt;&lt;br&gt;hypothetical protein&lt;br&gt;Location: 59589 - 62673" locus_tag="MCIC6FC_018492" class="clusterblast-orf" id="dummy-1_q12_0_all"  />
<polygon points="163,35 168,30 342,30 342,40 168,40 163,35 " style="fill:#d815d0; stroke-width:1; stroke:black; " description="&lt;b&gt;MCIC6FC_018493&lt;/b&gt;&lt;br&gt;hypothetical protein&lt;br&gt;Location: 62865 - 87322" locus_tag="MCIC6FC_018493" class="clusterblast-orf" id="dummy-1_q13_0_all"  />
<polygon points="343,35 348,30 355,30 355,40 348,40 343,35 " style="fill:#d8a215; stroke-width:1; stroke:black; " description="&lt;b&gt;MCIC6FC_018494&lt;/b&gt;&lt;br&gt;hypothetical protein&lt;br&gt;Location: 87575 - 89201" locus_tag="MCIC6FC_018494" class="clusterblast-orf" id="dummy-1_q14_0_all"  />
<polygon points="356,40 377,40 382,35 377,30 356,30 356,40 " style="fill:#15d863; stroke-width:1; stroke:black; " description="&lt;b&gt;MCIC6FC_018495&lt;/b&gt;&lt;br&gt;hypothetical protein&lt;br&gt;Location: 89338 - 92879" locus_tag="MCIC6FC_018495" class="clusterblast-orf" id="dummy-1_q15_0_all"  />
<polygon points="383,35 388,30 389,30 389,40 388,40 383,35 " style="fill:#1534d8; stroke-width:1; stroke:black; " description="&lt;b&gt;MCIC6FC_018496&lt;/b&gt;&lt;br&gt;hypothetical protein&lt;br&gt;Location: 93004 - 93837" locus_tag="MCIC6FC_018496" class="clusterblast-orf" id="dummy-1_q16_0_all"  />
<polygon points="390,40 397,40 402,35 397,30 390,30 390,40 " style="fill:#d815a2; stroke-width:1; stroke:black; " description="&lt;b&gt;MCIC6FC_018497&lt;/b&gt;&lt;br&gt;hypothetical protein&lt;br&gt;Location: 94038 - 95691" locus_tag="MCIC6FC_018497" class="clusterblast-orf" id="dummy-1_q17_0_all"  />
<polygon points="404,40 416,40 421,35 416,30 404,30 404,40 " style="fill:#d8d015; stroke-width:1; stroke:black; " description="&lt;b&gt;MCIC6FC_018498&lt;/b&gt;&lt;br&gt;hypothetical protein&lt;br&gt;Location: 95846 - 98231" locus_tag="MCIC6FC_018498" class="clusterblast-orf" id="dummy-1_q18_0_all"  />
<polygon points="422,35 427,30 554,30 554,40 427,40 422,35 " style="fill:#d815d0; stroke-width:1; stroke:black; " description="&lt;b&gt;MCIC6FC_018499&lt;/b&gt;&lt;br&gt;hypothetical protein&lt;br&gt;Location: 98383 - 116494" locus_tag="MCIC6FC_018499" class="clusterblast-orf" id="dummy-1_q19_0_all"  />
<polygon points="555,35 560,30 646,30 646,40 560,40 555,35 " style="fill:#d815d0; stroke-width:1; stroke:black; " description="&lt;b&gt;MCIC6FC_018500&lt;/b&gt;&lt;br&gt;hypothetical protein&lt;br&gt;Location: 116593 - 129094" locus_tag="MCIC6FC_018500" class="clusterblast-orf" id="dummy-1_q20_0_all"  />
<polygon points="646,35 651,30 664,30 664,40 651,40 646,35 " style="fill:#15d892; stroke-width:1; stroke:black; " description="&lt;b&gt;MCIC6FC_018501&lt;/b&gt;&lt;br&gt;hypothetical protein&lt;br&gt;Location: 129176 - 131553" locus_tag="MCIC6FC_018501" class="clusterblast-orf" id="dummy-1_q21_0_all"  />
<polygon points="664,35 669,30 674,30 674,40 669,40 664,35 " style="fill:#2515d8; stroke-width:1; stroke:black; " description="&lt;b&gt;MCIC6FC_018502&lt;/b&gt;&lt;br&gt;hypothetical protein&lt;br&gt;Location: 131556 - 132906" locus_tag="MCIC6FC_018502" class="clusterblast-orf" id="dummy-1_q22_0_all"  />
<polygon points="674,35 679,30 683,30 683,40 679,40 674,35 " style="fill:#d81573; stroke-width:1; stroke:black; " description="&lt;b&gt;MCIC6FC_018503&lt;/b&gt;&lt;br&gt;hypothetical protein&lt;br&gt;Location: 132965 - 134195" locus_tag="MCIC6FC_018503" class="clusterblast-orf" id="dummy-1_q23_0_all"  />
<polygon points="685,40 692,40 697,35 692,30 685,30 685,40 " style="fill:#b1d815; stroke-width:1; stroke:black; " description="&lt;b&gt;MCIC6FC_018504&lt;/b&gt;&lt;br&gt;hypothetical protein&lt;br&gt;Location: 134427 - 136068" locus_tag="MCIC6FC_018504" class="clusterblast-orf" id="dummy-1_q24_0_all"  />
<polygon points="697,35 702,30 702,30 702,40 702,40 697,35 " style="fill:#15d8c1; stroke-width:1; stroke:black; " description="&lt;b&gt;MCIC6FC_018505&lt;/b&gt;&lt;br&gt;hypothetical protein&lt;br&gt;Location: 136093 - 136805" locus_tag="MCIC6FC_018505" class="clusterblast-orf" id="dummy-1_q25_0_all"  />
<polygon points="703,40 708,40 713,35 708,30 703,30 703,40 " style="fill:#5415d8; stroke-width:1; stroke:black; " description="&lt;b&gt;MCIC6FC_018506&lt;/b&gt;&lt;br&gt;hypothetical protein&lt;br&gt;Location: 136909 - 138265" locus_tag="MCIC6FC_018506" class="clusterblast-orf" id="dummy-1_q26_0_all"  />
<polygon points="714,40 729,40 734,35 729,30 714,30 714,40 " style="fill:#d81544; stroke-width:1; stroke:black; " description="&lt;b&gt;MCIC6FC_018507&lt;/b&gt;&lt;br&gt;hypothetical protein&lt;br&gt;Location: 138444 - 141153" locus_tag="MCIC6FC_018507" class="clusterblast-orf" id="dummy-1_q27_0_all"  />
<polygon points="734,35 739,30 749,30 749,40 739,40 734,35 " style="fill:#d815a2; stroke-width:1; stroke:black; " description="&lt;b&gt;MCIC6FC_018508&lt;/b&gt;&lt;br&gt;hypothetical protein&lt;br&gt;Location: 141248 - 143227" locus_tag="MCIC6FC_018508" class="clusterblast-orf" id="dummy-1_q28_0_all"  />
<polygon points="749,35 754,30 780,30 780,40 754,40 749,35 " style="fill:#82d815; stroke-width:1; stroke:black; " description="&lt;b&gt;MCIC6FC_018509&lt;/b&gt;&lt;br&gt;hypothetical protein&lt;br&gt;Location: 143237 - 147464" locus_tag="MCIC6FC_018509" class="clusterblast-orf" id="dummy-1_q29_0_all"  />
</g>
<g label="NZ_CABVGW010000014" description="NZ_CABVGW010000014 (41734-146114): Pseudomonas fluorescens isolate PS682, who... (89% of genes show similarity), NRPS" class="clusterblast-cluster"  >
<text x="5" y="70" class="clusterblast-acc"  >
<a xlink:href="https://antismash-db.secondarymetabolites.org/area.html?record=NZ_CABVGW010000014&amp;start=41734&amp;end=146114" target="_blank">NZ_CABVGW010000014 (41734-146114)</a>: Pseudomonas fluorescens isolate PS682, who... (89% of genes show similarity), NRPS</text>
<line x1="10" y1="85" x2="778.0" y2="85" style="stroke-width:1; stroke:grey; "  />
</g>
<g id="a1_000"  >
<polygon points="15,85 18,80 18,90 15,85 " style="fill:#d81515; stroke-width:1; stroke:black; " description="&lt;b&gt;F8N22_RS21230&lt;/b&gt;&lt;br&gt;SRPBCC family protein&lt;br&gt;Location: 42413 - 42829&lt;br&gt;&lt;br&gt;&lt;b&gt;BlastP hit with MCIC6FC_018482&lt;/b&gt;&lt;br&gt;Percentage identity: 99&lt;br&gt;Percentage coverage: 19&lt;br&gt;BLAST bit score: 266&lt;br&gt;E-value: 9.1e-69" locus_tag="F8N22_RS21230" class="clusterblast-orf" id="dummy-1_h1_2_0"  />
</g>
<g id="a1_001"  >
<polygon points="18,85 23,80 24,80 24,90 23,90 18,85 " style="fill:#d81515; stroke-width:1; stroke:black; " description="&lt;b&gt;F8N22_RS21235&lt;/b&gt;&lt;br&gt;SDR family oxidoreductase&lt;br&gt;Location: 42859 - 43707&lt;br&gt;&lt;br&gt;&lt;b&gt;BlastP hit with MCIC6FC_018482&lt;/b&gt;&lt;br&gt;Percentage identity: 98&lt;br&gt;Percentage coverage: 36&lt;br&gt;BLAST bit score: 474&lt;br&gt;E-value: 1.7e-131" locus_tag="F8N22_RS21235" class="clusterblast-orf" id="dummy-1_h1_2_1"  />
</g>
<g id="a1_002"  >
<polygon points="24,85 29,80 32,80 32,90 29,90 24,85 " style="fill:#d81515; stroke-width:1; stroke:black; " description="&lt;b&gt;F8N22_RS21240&lt;/b&gt;&lt;br&gt;aldo/keto reductase&lt;br&gt;Location: 43674 - 44678&lt;br&gt;&lt;br&gt;&lt;b&gt;BlastP hit with MCIC6FC_018482&lt;/b&gt;&lt;br&gt;Percentage identity: 95&lt;br&gt;Percentage coverage: 47&lt;br&gt;BLAST bit score: 623&lt;br&gt;E-value: 2.3e-176" locus_tag="F8N22_RS21240" class="clusterblast-orf" id="dummy-1_h1_2_2"  />
</g>
<g id="a1_003"  >
<polygon points="32,90 34,90 39,85 34,80 32,80 32,90 " style="fill:#54d815; stroke-width:1; stroke:black; " description="&lt;b&gt;F8N22_RS21245&lt;/b&gt;&lt;br&gt;LysR family transcriptional regulator&lt;br&gt;Location: 44792 - 45685&lt;br&gt;&lt;br&gt;&lt;b&gt;BlastP hit with MCIC6FC_018483&lt;/b&gt;&lt;br&gt;Percentage identity: 99&lt;br&gt;Percentage coverage: 100&lt;br&gt;BLAST bit score: 588&lt;br&gt;E-value: 3.4e-166" locus_tag="F8N22_RS21245" class="clusterblast-orf" id="dummy-1_h1_2_3"  />
</g>
<g id="a1_004"  >
<polygon points="39,85 44,80 49,80 49,90 44,90 39,85 " style="fill:#15c1d8; stroke-width:1; stroke:black; " description="&lt;b&gt;F8N22_RS21250&lt;/b&gt;&lt;br&gt;FAD-binding oxidoreductase&lt;br&gt;Location: 45759 - 47051&lt;br&gt;&lt;br&gt;&lt;b&gt;BlastP hit with MCIC6FC_018484&lt;/b&gt;&lt;br&gt;Percentage identity: 99&lt;br&gt;Percentage coverage: 55&lt;br&gt;BLAST bit score: 862&lt;br&gt;E-value: 3.1e-248" locus_tag="F8N22_RS21250" class="clusterblast-orf" id="dummy-1_h1_2_4"  />
</g>
<g id="a1_005"  >
<polygon points="49,85 54,80 57,80 57,90 54,90 49,85 " style="fill:#15c1d8; stroke-width:1; stroke:black; " description="&lt;b&gt;F8N22_RS21255&lt;/b&gt;&lt;br&gt;extracellular solute-binding protein&lt;br&gt;Location: 47048 - 48136&lt;br&gt;&lt;br&gt;&lt;b&gt;BlastP hit with MCIC6FC_018484&lt;/b&gt;&lt;br&gt;Percentage identity: 97&lt;br&gt;Percentage coverage: 46&lt;br&gt;BLAST bit score: 698&lt;br&gt;E-value: 6e-199" locus_tag="F8N22_RS21255" class="clusterblast-orf" id="dummy-1_h1_2_5"  />
</g>
<g id="a1_006"  >
<polygon points="57,85 62,80 67,80 67,90 62,90 57,85 " style="fill:#8215d8; stroke-width:1; stroke:black; " description="&lt;b&gt;F8N22_RS21260&lt;/b&gt;&lt;br&gt;glutamine synthetase&lt;br&gt;Location: 48160 - 49518&lt;br&gt;&lt;br&gt;&lt;b&gt;BlastP hit with MCIC6FC_018485&lt;/b&gt;&lt;br&gt;Percentage identity: 100&lt;br&gt;Percentage coverage: 100&lt;br&gt;BLAST bit score: 928&lt;br&gt;E-value: 3.6e-268" locus_tag="F8N22_RS21260" class="clusterblast-orf" id="dummy-1_h1_2_6"  />
</g>
<g id="a1_007"  >
<polygon points="68,90 69,90 74,85 69,80 68,80 68,90 " style="fill:#d84415; stroke-width:1; stroke:black; " description="&lt;b&gt;F8N22_RS21265&lt;/b&gt;&lt;br&gt;helix-turn-helix domain-containing protein&lt;br&gt;Location: 49658 - 50554&lt;br&gt;&lt;br&gt;&lt;b&gt;BlastP hit with MCIC6FC_018486&lt;/b&gt;&lt;br&gt;Percentage identity: 99&lt;br&gt;Percentage coverage: 100&lt;br&gt;BLAST bit score: 611&lt;br&gt;E-value: 3.7e-173" locus_tag="F8N22_RS21265" class="clusterblast-orf" id="dummy-1_h1_2_7"  />
</g>
<g id="a1_008"  >
<polygon points="75,90 86,90 91,85 86,80 75,80 75,90 " style="fill:#25d815; stroke-width:1; stroke:black; " description="&lt;b&gt;F8N22_RS21270&lt;/b&gt;&lt;br&gt;TonB-dependent siderophore receptor&lt;br&gt;Location: 50694 - 52856&lt;br&gt;&lt;br&gt;&lt;b&gt;BlastP hit with MCIC6FC_018487&lt;/b&gt;&lt;br&gt;Percentage identity: 95&lt;br&gt;Percentage coverage: 103&lt;br&gt;BLAST bit score: 1341&lt;br&gt;E-value: 0.0" locus_tag="F8N22_RS21270" class="clusterblast-orf" id="dummy-1_h1_2_8"  />
</g>
<g id="a1_009"  >
<polygon points="91,85 96,80 99,80 99,90 96,90 91,85 " style="fill:#1592d8; stroke-width:1; stroke:black; " description="&lt;b&gt;F8N22_RS21275&lt;/b&gt;&lt;br&gt;MFS transporter&lt;br&gt;Location: 52846 - 53976&lt;br&gt;&lt;br&gt;&lt;b&gt;BlastP hit with MCIC6FC_018488&lt;/b&gt;&lt;br&gt;Percentage identity: 94&lt;br&gt;Percentage coverage: 104&lt;br&gt;BLAST bit score: 585&lt;br&gt;E-value: 3.1e-165" locus_tag="F8N22_RS21275" class="clusterblast-orf" id="dummy-1_h1_2_9"  />
</g>
<g id="a1_0010"  >
<polygon points="100,90 101,90 106,85 101,80 100,80 100,90 " style="fill:#b115d8; stroke-width:1; stroke:black; " description="&lt;b&gt;F8N22_RS21280&lt;/b&gt;&lt;br&gt;helix-turn-helix transcriptional regulator&lt;br&gt;Location: 54078 - 54848&lt;br&gt;&lt;br&gt;&lt;b&gt;BlastP hit with MCIC6FC_018489&lt;/b&gt;&lt;br&gt;Percentage identity: 98&lt;br&gt;Percentage coverage: 100&lt;br&gt;BLAST bit score: 508&lt;br&gt;E-value: 5e-142" locus_tag="F8N22_RS21280" class="clusterblast-orf" id="dummy-1_h1_2_10"  />
</g>
<g id="a1_0011"  >
<polygon points="106,85 109,80 109,90 106,85 " style="fill:#d87315; stroke-width:1; stroke:black; " description="&lt;b&gt;F8N22_RS21285&lt;/b&gt;&lt;br&gt;carboxymuconolactone decarboxylase family protein&lt;br&gt;Location: 54853 - 55290&lt;br&gt;&lt;br&gt;&lt;b&gt;BlastP hit with MCIC6FC_018490&lt;/b&gt;&lt;br&gt;Percentage identity: 96&lt;br&gt;Percentage coverage: 47&lt;br&gt;BLAST bit score: 279&lt;br&gt;E-value: 4.5e-73" locus_tag="F8N22_RS21285" class="clusterblast-orf" id="dummy-1_h1_2_11"  />
</g>
<g id="a1_0012"  >
<polygon points="110,85 113,80 113,90 110,85 " style="fill:#d87315; stroke-width:1; stroke:black; " description="&lt;b&gt;F8N22_RS21290&lt;/b&gt;&lt;br&gt;Lrp/AsnC family transcriptional regulator&lt;br&gt;Location: 55388 - 55858&lt;br&gt;&lt;br&gt;&lt;b&gt;BlastP hit with MCIC6FC_018490&lt;/b&gt;&lt;br&gt;Percentage identity: 99&lt;br&gt;Percentage coverage: 50&lt;br&gt;BLAST bit score: 299&lt;br&gt;E-value: 5.5e-79" locus_tag="F8N22_RS21290" class="clusterblast-orf" id="dummy-1_h1_2_12"  />
</g>
<g id="a1_0013"  >
<polygon points="114,90 118,90 123,85 118,80 114,80 114,90 " style="fill:#15d834; stroke-width:1; stroke:black; " description="&lt;b&gt;F8N22_RS21295&lt;/b&gt;&lt;br&gt;methionine gamma-lyase&lt;br&gt;Location: 55982 - 57217&lt;br&gt;&lt;br&gt;&lt;b&gt;BlastP hit with MCIC6FC_018491&lt;/b&gt;&lt;br&gt;Percentage identity: 98&lt;br&gt;Percentage coverage: 63&lt;br&gt;BLAST bit score: 794&lt;br&gt;E-value: 8.8e-228" locus_tag="F8N22_RS21295" class="clusterblast-orf" id="dummy-1_h1_2_13"  />
</g>
<g id="a1_0014"  >
<polygon points="124,90 124,90 129,85 124,80 124,80 124,90 " style="fill:#15d834; stroke-width:1; stroke:black; " description="&lt;b&gt;F8N22_RS21300&lt;/b&gt;&lt;br&gt;helix-turn-helix transcriptional regulator&lt;br&gt;Location: 57364 - 58047&lt;br&gt;&lt;br&gt;&lt;b&gt;BlastP hit with MCIC6FC_018491&lt;/b&gt;&lt;br&gt;Percentage identity: 98&lt;br&gt;Percentage coverage: 35&lt;br&gt;BLAST bit score: 433&lt;br&gt;E-value: 3e-119" locus_tag="F8N22_RS21300" class="clusterblast-orf" id="dummy-1_h1_2_14"  />
</g>
<g id="a1_0015"  >
<polygon points="129,85 134,80 144,80 144,90 134,90 129,85 " style="fill:#1563d8; stroke-width:1; stroke:black; " description="&lt;b&gt;F8N22_RS21305&lt;/b&gt;&lt;br&gt;MacB family efflux pump subunit&lt;br&gt;Location: 58118 - 60076&lt;br&gt;&lt;br&gt;&lt;b&gt;BlastP hit with MCIC6FC_018492&lt;/b&gt;&lt;br&gt;Percentage identity: 99&lt;br&gt;Percentage coverage: 64&lt;br&gt;BLAST bit score: 1224&lt;br&gt;E-value: 0.0" locus_tag="F8N22_RS21305" class="clusterblast-orf" id="dummy-1_h1_2_15"  />
</g>
<g id="a1_0016"  >
<polygon points="144,85 149,80 152,80 152,90 149,90 144,85 " style="fill:#1563d8; stroke-width:1; stroke:black; " description="&lt;b&gt;F8N22_RS21310&lt;/b&gt;&lt;br&gt;macrolide transporter subunit MacA&lt;br&gt;Location: 60080 - 61231&lt;br&gt;&lt;br&gt;&lt;b&gt;BlastP hit with MCIC6FC_018492&lt;/b&gt;&lt;br&gt;Percentage identity: 99&lt;br&gt;Percentage coverage: 36&lt;br&gt;BLAST bit score: 690&lt;br&gt;E-value: 3.7e-196" locus_tag="F8N22_RS21310" class="clusterblast-orf" id="dummy-1_h1_2_16"  />
</g>
<g id="a1_0017"  >
<polygon points="154,90 155,85 154,80 154,90 " style="fill:white; stroke-width:1; stroke:black; " description="&lt;b&gt;F8N22_RS21315&lt;/b&gt;&lt;br&gt;hypothetical protein&lt;br&gt;Location: 61480 - 61667" locus_tag="F8N22_RS21315" class="clusterblast-orf" id="dummy-1_h1_2_17"  />
</g>
<g id="a1_0018"  >
<polygon points="156,85 161,80 238,80 238,90 161,90 156,85 " style="fill:#d815d0; stroke-width:1; stroke:black; " description="&lt;b&gt;F8N22_RS21320&lt;/b&gt;&lt;br&gt;amino acid adenylation domain-containing protein&lt;br&gt;Location: 61735 - 73029&lt;br&gt;&lt;br&gt;&lt;b&gt;BlastP hit with MCIC6FC_018493&lt;/b&gt;&lt;br&gt;Percentage identity: 96&lt;br&gt;Percentage coverage: 46&lt;br&gt;BLAST bit score: 7097&lt;br&gt;E-value: 0.0&lt;br&gt;&lt;br&gt;&lt;b&gt;BlastP hit with MCIC6FC_018499&lt;/b&gt;&lt;br&gt;Percentage identity: 37&lt;br&gt;Percentage coverage: 55&lt;br&gt;BLAST bit score: 1715&lt;br&gt;E-value: 0.0&lt;br&gt;&lt;br&gt;&lt;b&gt;BlastP hit with MCIC6FC_018500&lt;/b&gt;&lt;br&gt;Percentage identity: 39&lt;br&gt;Percentage coverage: 55&lt;br&gt;BLAST bit score: 1254&lt;br&gt;E-value: 0.0" locus_tag="F8N22_RS21320" class="clusterblast-orf" id="dummy-1_h1_2_18"  />
</g>
<g id="a1_0019"  >
<polygon points="238,85 243,80 331,80 331,90 243,90 238,85 " style="fill:#d815d0; stroke-width:1; stroke:black; " description="&lt;b&gt;F8N22_RS21325&lt;/b&gt;&lt;br&gt;amino acid adenylation domain-containing protein&lt;br&gt;Location: 73026 - 85853&lt;br&gt;&lt;br&gt;&lt;b&gt;BlastP hit with MCIC6FC_018493&lt;/b&gt;&lt;br&gt;Percentage identity: 96&lt;br&gt;Percentage coverage: 53&lt;br&gt;BLAST bit score: 8078&lt;br&gt;E-value: 0.0&lt;br&gt;&lt;br&gt;&lt;b&gt;BlastP hit with MCIC6FC_018499&lt;/b&gt;&lt;br&gt;Percentage identity: 35&lt;br&gt;Percentage coverage: 74&lt;br&gt;BLAST bit score: 1998&lt;br&gt;E-value: 0.0" locus_tag="F8N22_RS21325" class="clusterblast-orf" id="dummy-1_h1_2_19"  />
</g>
<g id="a1_0020"  >
<polygon points="333,85 338,80 345,80 345,90 338,90 333,85 " style="fill:#d8a215; stroke-width:1; stroke:black; " description="&lt;b&gt;F8N22_RS21330&lt;/b&gt;&lt;br&gt;PvdJ/PvdD/PvdP-like protein&lt;br&gt;Location: 86100 - 87725&lt;br&gt;&lt;br&gt;&lt;b&gt;BlastP hit with MCIC6FC_018494&lt;/b&gt;&lt;br&gt;Percentage identity: 99&lt;br&gt;Percentage coverage: 100&lt;br&gt;BLAST bit score: 1138&lt;br&gt;E-value: 0.0" locus_tag="F8N22_RS21330" class="clusterblast-orf" id="dummy-1_h1_2_20"  />
</g>
<g id="a1_0021"  >
<polygon points="346,90 351,90 356,85 351,80 346,80 346,90 " style="fill:#15d863; stroke-width:1; stroke:black; " description="&lt;b&gt;F8N22_RS21335&lt;/b&gt;&lt;br&gt;membrane dipeptidase&lt;br&gt;Location: 87868 - 89217&lt;br&gt;&lt;br&gt;&lt;b&gt;BlastP hit with MCIC6FC_018495&lt;/b&gt;&lt;br&gt;Percentage identity: 99&lt;br&gt;Percentage coverage: 38&lt;br&gt;BLAST bit score: 890&lt;br&gt;E-value: 1.6e-256" locus_tag="F8N22_RS21335" class="clusterblast-orf" id="dummy-1_h1_2_21"  />
</g>
<g id="a1_0022"  >
<polygon points="356,90 360,90 365,85 360,80 356,80 356,90 " style="fill:#15d863; stroke-width:1; stroke:black; " description="&lt;b&gt;F8N22_RS21340&lt;/b&gt;&lt;br&gt;aminotransferase class V-fold PLP-dependent enzyme&lt;br&gt;Location: 89236 - 90507&lt;br&gt;&lt;br&gt;&lt;b&gt;BlastP hit with MCIC6FC_018495&lt;/b&gt;&lt;br&gt;Percentage identity: 97&lt;br&gt;Percentage coverage: 37&lt;br&gt;BLAST bit score: 845&lt;br&gt;E-value: 5.9e-243" locus_tag="F8N22_RS21340" class="clusterblast-orf" id="dummy-1_h1_2_22"  />
</g>
<g id="a1_0023"  >
<polygon points="366,90 367,90 372,85 367,80 366,80 366,90 " style="fill:#15d863; stroke-width:1; stroke:black; " description="&lt;b&gt;F8N22_RS21345&lt;/b&gt;&lt;br&gt;formylglycine-generating enzyme family protein&lt;br&gt;Location: 90542 - 91402&lt;br&gt;&lt;br&gt;&lt;b&gt;BlastP hit with MCIC6FC_018495&lt;/b&gt;&lt;br&gt;Percentage identity: 99&lt;br&gt;Percentage coverage: 25&lt;br&gt;BLAST bit score: 610&lt;br&gt;E-value: 4.2e-172" locus_tag="F8N22_RS21345" class="clusterblast-orf" id="dummy-1_h1_2_23"  />
</g>
<g id="a1_0024"  >
<polygon points="373,85 378,80 379,80 379,90 378,90 373,85 " style="fill:#1534d8; stroke-width:1; stroke:black; " description="&lt;b&gt;F8N22_RS21350&lt;/b&gt;&lt;br&gt;N(5)-hydroxyornithine transformylase PvdF&lt;br&gt;Location: 91528 - 92358&lt;br&gt;&lt;br&gt;&lt;b&gt;BlastP hit with MCIC6FC_018496&lt;/b&gt;&lt;br&gt;Percentage identity: 93&lt;br&gt;Percentage coverage: 108&lt;br&gt;BLAST bit score: 511&lt;br&gt;E-value: 5.9e-143" locus_tag="F8N22_RS21350" class="clusterblast-orf" id="dummy-1_h1_2_24"  />
</g>
<g id="a1_0025"  >
<polygon points="380,90 387,90 392,85 387,80 380,80 380,90 " style="fill:#d815a2; stroke-width:1; stroke:black; " description="&lt;b&gt;F8N22_RS21355&lt;/b&gt;&lt;br&gt;cyclic peptide export ABC transporter&lt;br&gt;Location: 92559 - 94211&lt;br&gt;&lt;br&gt;&lt;b&gt;BlastP hit with MCIC6FC_018497&lt;/b&gt;&lt;br&gt;Percentage identity: 98&lt;br&gt;Percentage coverage: 100&lt;br&gt;BLAST bit score: 1044&lt;br&gt;E-value: 5.4e-303" locus_tag="F8N22_RS21355" class="clusterblast-orf" id="dummy-1_h1_2_25"  />
</g>
<g id="a1_0026"  >
<polygon points="393,90 406,90 411,85 406,80 393,80 393,90 " style="fill:#d8d015; stroke-width:1; stroke:black; " description="&lt;b&gt;F8N22_RS21360&lt;/b&gt;&lt;br&gt;TonB-dependent siderophore receptor&lt;br&gt;Location: 94368 - 96749&lt;br&gt;&lt;br&gt;&lt;b&gt;BlastP hit with MCIC6FC_018498&lt;/b&gt;&lt;br&gt;Percentage identity: 96&lt;br&gt;Percentage coverage: 103&lt;br&gt;BLAST bit score: 1528&lt;br&gt;E-value: 0.0" locus_tag="F8N22_RS21360" class="clusterblast-orf" id="dummy-1_h1_2_26"  />
</g>
<g id="a1_0027"  >
<polygon points="412,85 417,80 487,80 487,90 417,90 412,85 " style="fill:#d815d0; stroke-width:1; stroke:black; " description="&lt;b&gt;F8N22_RS21365&lt;/b&gt;&lt;br&gt;amino acid adenylation domain-containing protein&lt;br&gt;Location: 96903 - 107255&lt;br&gt;&lt;br&gt;&lt;b&gt;BlastP hit with MCIC6FC_018493&lt;/b&gt;&lt;br&gt;Percentage identity: 39&lt;br&gt;Percentage coverage: 40&lt;br&gt;BLAST bit score: 1836&lt;br&gt;E-value: 0.0&lt;br&gt;&lt;br&gt;&lt;b&gt;BlastP hit with MCIC6FC_018499&lt;/b&gt;&lt;br&gt;Percentage identity: 95&lt;br&gt;Percentage coverage: 58&lt;br&gt;BLAST bit score: 6484&lt;br&gt;E-value: 0.0&lt;br&gt;&lt;br&gt;&lt;b&gt;BlastP hit with MCIC6FC_018500&lt;/b&gt;&lt;br&gt;Percentage identity: 64&lt;br&gt;Percentage coverage: 53&lt;br&gt;BLAST bit score: 2486&lt;br&gt;E-value: 0.0" locus_tag="F8N22_RS21365" class="clusterblast-orf" id="dummy-1_h1_2_27"  />
</g>
<g id="a1_0028"  >
<polygon points="488,85 493,80 545,80 545,90 493,90 488,85 " style="fill:#d815d0; stroke-width:1; stroke:black; " description="&lt;b&gt;F8N22_RS21370&lt;/b&gt;&lt;br&gt;amino acid adenylation domain-containing protein&lt;br&gt;Location: 107329 - 115110&lt;br&gt;&lt;br&gt;&lt;b&gt;BlastP hit with MCIC6FC_018493&lt;/b&gt;&lt;br&gt;Percentage identity: 36&lt;br&gt;Percentage coverage: 32&lt;br&gt;BLAST bit score: 1314&lt;br&gt;E-value: 0.0&lt;br&gt;&lt;br&gt;&lt;b&gt;BlastP hit with MCIC6FC_018499&lt;/b&gt;&lt;br&gt;Percentage identity: 95&lt;br&gt;Percentage coverage: 43&lt;br&gt;BLAST bit score: 4868&lt;br&gt;E-value: 0.0&lt;br&gt;&lt;br&gt;&lt;b&gt;BlastP hit with MCIC6FC_018500&lt;/b&gt;&lt;br&gt;Percentage identity: 54&lt;br&gt;Percentage coverage: 66&lt;br&gt;BLAST bit score: 2591&lt;br&gt;E-value: 0.0" locus_tag="F8N22_RS21370" class="clusterblast-orf" id="dummy-1_h1_2_28"  />
</g>
<g id="a1_0029"  >
<polygon points="545,85 550,80 625,80 625,90 550,90 545,85 " style="fill:#d815d0; stroke-width:1; stroke:black; " description="&lt;b&gt;F8N22_RS21375&lt;/b&gt;&lt;br&gt;amino acid adenylation domain-containing protein&lt;br&gt;Location: 115114 - 126114&lt;br&gt;&lt;br&gt;&lt;b&gt;BlastP hit with MCIC6FC_018493&lt;/b&gt;&lt;br&gt;Percentage identity: 35&lt;br&gt;Percentage coverage: 46&lt;br&gt;BLAST bit score: 1738&lt;br&gt;E-value: 0.0&lt;br&gt;&lt;br&gt;&lt;b&gt;BlastP hit with MCIC6FC_018499&lt;/b&gt;&lt;br&gt;Percentage identity: 55&lt;br&gt;Percentage coverage: 62&lt;br&gt;BLAST bit score: 3730&lt;br&gt;E-value: 0.0&lt;br&gt;&lt;br&gt;&lt;b&gt;BlastP hit with MCIC6FC_018500&lt;/b&gt;&lt;br&gt;Percentage identity: 95&lt;br&gt;Percentage coverage: 93&lt;br&gt;BLAST bit score: 6880&lt;br&gt;E-value: 0.0" locus_tag="F8N22_RS21375" class="clusterblast-orf" id="dummy-1_h1_2_29"  />
</g>
<g id="a1_0030"  >
<polygon points="626,90 627,85 626,80 626,90 " style="fill:white; stroke-width:1; stroke:black; " description="&lt;b&gt;F8N22_RS21380&lt;/b&gt;&lt;br&gt;type II toxin-antitoxin system HicA family toxin&lt;br&gt;Location: 126324 - 126392" locus_tag="F8N22_RS21380" class="clusterblast-orf" id="dummy-1_h1_2_30"  />
</g>
<g id="a1_0031"  >
<polygon points="627,85 632,80 636,80 636,90 632,90 627,85 " style="fill:white; stroke-width:1; stroke:black; " description="&lt;b&gt;F8N22_RS21385&lt;/b&gt;&lt;br&gt;MFS transporter&lt;br&gt;Location: 126449 - 127621" locus_tag="F8N22_RS21385" class="clusterblast-orf" id="dummy-1_h1_2_31"  />
</g>
<g id="a1_0032"  >
<polygon points="636,85 641,80 646,80 646,90 641,90 636,85 " style="fill:#15d892; stroke-width:1; stroke:black; " description="&lt;b&gt;F8N22_RS21390&lt;/b&gt;&lt;br&gt;MATE family efflux transporter&lt;br&gt;Location: 127662 - 129017&lt;br&gt;&lt;br&gt;&lt;b&gt;BlastP hit with MCIC6FC_018501&lt;/b&gt;&lt;br&gt;Percentage identity: 100&lt;br&gt;Percentage coverage: 58&lt;br&gt;BLAST bit score: 829&lt;br&gt;E-value: 2.2e-238" locus_tag="F8N22_RS21390" class="clusterblast-orf" id="dummy-1_h1_2_32"  />
</g>
<g id="a1_0033"  >
<polygon points="646,85 651,80 653,80 653,90 651,90 646,85 " style="fill:#15d892; stroke-width:1; stroke:black; " description="&lt;b&gt;F8N22_RS21395&lt;/b&gt;&lt;br&gt;ATP-dependent Clp protease ATP-binding subunit&lt;br&gt;Location: 129055 - 130038&lt;br&gt;&lt;br&gt;&lt;b&gt;BlastP hit with MCIC6FC_018501&lt;/b&gt;&lt;br&gt;Percentage identity: 98&lt;br&gt;Percentage coverage: 41&lt;br&gt;BLAST bit score: 600&lt;br&gt;E-value: 2.2e-169" locus_tag="F8N22_RS21395" class="clusterblast-orf" id="dummy-1_h1_2_33"  />
</g>
<g id="a1_0034"  >
<polygon points="653,85 658,80 661,80 661,90 658,90 653,85 " style="fill:#2515d8; stroke-width:1; stroke:black; " description="&lt;b&gt;F8N22_RS21400&lt;/b&gt;&lt;br&gt;aliphatic amidase&lt;br&gt;Location: 130042 - 131085&lt;br&gt;&lt;br&gt;&lt;b&gt;BlastP hit with MCIC6FC_018502&lt;/b&gt;&lt;br&gt;Percentage identity: 99&lt;br&gt;Percentage coverage: 79&lt;br&gt;BLAST bit score: 728&lt;br&gt;E-value: 3.1e-208" locus_tag="F8N22_RS21400" class="clusterblast-orf" id="dummy-1_h1_2_34"  />
</g>
<g id="a1_0035"  >
<polygon points="661,85 664,80 664,90 661,85 " style="fill:#2515d8; stroke-width:1; stroke:black; " description="&lt;b&gt;F8N22_RS21405&lt;/b&gt;&lt;br&gt;zinc ribbon domain-containing protein&lt;br&gt;Location: 131101 - 131448&lt;br&gt;&lt;br&gt;&lt;b&gt;BlastP hit with MCIC6FC_018502&lt;/b&gt;&lt;br&gt;Percentage identity: 92&lt;br&gt;Percentage coverage: 22&lt;br&gt;BLAST bit score: 188&lt;br&gt;E-value: 1.5e-45" locus_tag="F8N22_RS21405" class="clusterblast-orf" id="dummy-1_h1_2_35"  />
</g>
<g id="a1_0036"  >
<polygon points="664,85 669,80 672,80 672,90 669,90 664,85 " style="fill:#d81573; stroke-width:1; stroke:black; " description="&lt;b&gt;F8N22_RS21410&lt;/b&gt;&lt;br&gt;acetamidase/formamidase family protein&lt;br&gt;Location: 131451 - 132680&lt;br&gt;&lt;br&gt;&lt;b&gt;BlastP hit with MCIC6FC_018503&lt;/b&gt;&lt;br&gt;Percentage identity: 100&lt;br&gt;Percentage coverage: 100&lt;br&gt;BLAST bit score: 865&lt;br&gt;E-value: 2e-249" locus_tag="F8N22_RS21410" class="clusterblast-orf" id="dummy-1_h1_2_36"  />
</g>
<g id="a1_0037"  >
<polygon points="674,90 681,90 686,85 681,80 674,80 674,90 " style="fill:#b1d815; stroke-width:1; stroke:black; " description="&lt;b&gt;F8N22_RS21415&lt;/b&gt;&lt;br&gt;methyl-accepting chemotaxis protein&lt;br&gt;Location: 132913 - 134553&lt;br&gt;&lt;br&gt;&lt;b&gt;BlastP hit with MCIC6FC_018504&lt;/b&gt;&lt;br&gt;Percentage identity: 98&lt;br&gt;Percentage coverage: 100&lt;br&gt;BLAST bit score: 819&lt;br&gt;E-value: 2.2e-235" locus_tag="F8N22_RS21415" class="clusterblast-orf" id="dummy-1_h1_2_37"  />
</g>
<g id="a1_0038"  >
<polygon points="687,85 692,80 695,80 695,90 692,90 687,85 " style="fill:#d815a2; stroke-width:1; stroke:black; " description="&lt;b&gt;F8N22_RS21420&lt;/b&gt;&lt;br&gt;hypothetical protein&lt;br&gt;Location: 134690 - 135796&lt;br&gt;&lt;br&gt;&lt;b&gt;BlastP hit with MCIC6FC_018508&lt;/b&gt;&lt;br&gt;Percentage identity: 94&lt;br&gt;Percentage coverage: 59&lt;br&gt;BLAST bit score: 607&lt;br&gt;E-value: 1.3e-171" locus_tag="F8N22_RS21420" class="clusterblast-orf" id="dummy-1_h1_2_38"  />
</g>
<g id="a1_0039"  >
<polygon points="696,85 701,80 701,80 701,90 701,90 696,85 " style="fill:#d815a2; stroke-width:1; stroke:black; " description="&lt;b&gt;F8N22_RS21425&lt;/b&gt;&lt;br&gt;urea ABC transporter ATP-binding subunit UrtE&lt;br&gt;Location: 135973 - 136662&lt;br&gt;&lt;br&gt;&lt;b&gt;BlastP hit with MCIC6FC_018508&lt;/b&gt;&lt;br&gt;Percentage identity: 99&lt;br&gt;Percentage coverage: 42&lt;br&gt;BLAST bit score: 443&lt;br&gt;E-value: 2.5e-122" locus_tag="F8N22_RS21425" class="clusterblast-orf" id="dummy-1_h1_2_39"  />
</g>
<g id="a1_0040"  >
<polygon points="702,85 707,80 707,80 707,90 707,90 702,85 " style="fill:#82d815; stroke-width:1; stroke:black; " description="&lt;b&gt;F8N22_RS21430&lt;/b&gt;&lt;br&gt;urea ABC transporter ATP-binding protein UrtD&lt;br&gt;Location: 136673 - 137431&lt;br&gt;&lt;br&gt;&lt;b&gt;BlastP hit with MCIC6FC_018509&lt;/b&gt;&lt;br&gt;Percentage identity: 100&lt;br&gt;Percentage coverage: 19&lt;br&gt;BLAST bit score: 496&lt;br&gt;E-value: 7.8e-138" locus_tag="F8N22_RS21430" class="clusterblast-orf" id="dummy-1_h1_2_40"  />
</g>
<g id="a1_0041"  >
<polygon points="707,85 712,80 716,80 716,90 712,90 707,85 " style="fill:#82d815; stroke-width:1; stroke:black; " description="&lt;b&gt;F8N22_RS21435&lt;/b&gt;&lt;br&gt;urea ABC transporter permease subunit UrtC&lt;br&gt;Location: 137428 - 138591&lt;br&gt;&lt;br&gt;&lt;b&gt;BlastP hit with MCIC6FC_018509&lt;/b&gt;&lt;br&gt;Percentage identity: 100&lt;br&gt;Percentage coverage: 23&lt;br&gt;BLAST bit score: 597&lt;br&gt;E-value: 2.5e-168" locus_tag="F8N22_RS21435" class="clusterblast-orf" id="dummy-1_h1_2_41"  />
</g>
<g id="a1_0042"  >
<polygon points="716,85 721,80 722,80 722,90 721,90 716,85 " style="fill:#82d815; stroke-width:1; stroke:black; " description="&lt;b&gt;F8N22_RS21440&lt;/b&gt;&lt;br&gt;urea ABC transporter permease subunit UrtB&lt;br&gt;Location: 138602 - 139483&lt;br&gt;&lt;br&gt;&lt;b&gt;BlastP hit with MCIC6FC_018509&lt;/b&gt;&lt;br&gt;Percentage identity: 99&lt;br&gt;Percentage coverage: 22&lt;br&gt;BLAST bit score: 546&lt;br&gt;E-value: 6.6e-153" locus_tag="F8N22_RS21440" class="clusterblast-orf" id="dummy-1_h1_2_42"  />
</g>
<g id="a1_0043"  >
<polygon points="724,85 729,80 732,80 732,90 729,90 724,85 " style="fill:#82d815; stroke-width:1; stroke:black; " description="&lt;b&gt;F8N22_RS21445&lt;/b&gt;&lt;br&gt;urea ABC transporter substrate-binding protein&lt;br&gt;Location: 139692 - 140900&lt;br&gt;&lt;br&gt;&lt;b&gt;BlastP hit with MCIC6FC_018509&lt;/b&gt;&lt;br&gt;Percentage identity: 100&lt;br&gt;Percentage coverage: 30&lt;br&gt;BLAST bit score: 787&lt;br&gt;E-value: 2.9e-225" locus_tag="F8N22_RS21445" class="clusterblast-orf" id="dummy-1_h1_2_43"  />
</g>
<g id="a1_0044"  >
<polygon points="735,90 754,90 759,85 754,80 735,80 735,90 " style="fill:white; stroke-width:1; stroke:black; " description="&lt;b&gt;F8N22_RS21450&lt;/b&gt;&lt;br&gt;response regulator&lt;br&gt;Location: 141215 - 144598" locus_tag="F8N22_RS21450" class="clusterblast-orf" id="dummy-1_h1_2_44"  />
</g>
<g id="a1_0045"  >
<polygon points="759,90 759,90 764,85 759,80 759,80 759,90 " style="fill:white; stroke-width:1; stroke:black; " description="&lt;b&gt;F8N22_RS21455&lt;/b&gt;&lt;br&gt;response regulator transcription factor&lt;br&gt;Location: 144573 - 145238" locus_tag="F8N22_RS21455" class="clusterblast-orf" id="dummy-1_h1_2_45"  />
</g>
</svg>
