<svg xmlns="http://www.w3.org/2000/svg" xmlns:xlink="http://www.w3.org/1999/xlink" version="1.1" x="0" y="0" height="230" width="800" viewBox="0 0 800 230" preserveAspectRatio="none"  >
<g label="Query sequence" class="clusterblast-cluster"  >
<text x="5" y="20" class="clusterblast-acc"  >
Query sequence</text>
<line x1="10" y1="35" x2="778.0" y2="35" style="stroke-width:1; stroke:grey; "  />
<polygon points="0,35 5,30 6,30 6,40 5,40 0,35 " style="fill:white; stroke-width:1; stroke:black; " description="&lt;b&gt;MCIC6FC_015552&lt;/b&gt;&lt;br&gt;hypothetical protein&lt;br&gt;Location: 371442 - 372090" locus_tag="MCIC6FC_015552" class="clusterblast-orf" id="dummy-3_q0_0_all"  />
<polygon points="6,35 11,30 88,30 88,40 11,40 6,35 " style="fill:#d81515; stroke-width:1; stroke:black; " description="&lt;b&gt;MCIC6FC_015553&lt;/b&gt;&lt;br&gt;hypothetical protein&lt;br&gt;Location: 372113 - 380390" locus_tag="MCIC6FC_015553" class="clusterblast-orf" id="dummy-3_q1_0_all"  />
<polygon points="88,35 93,30 95,30 95,40 93,40 88,35 " style="fill:#63d815; stroke-width:1; stroke:black; " description="&lt;b&gt;MCIC6FC_015554&lt;/b&gt;&lt;br&gt;hypothetical protein&lt;br&gt;Location: 380413 - 381082" locus_tag="MCIC6FC_015554" class="clusterblast-orf" id="dummy-3_q2_0_all"  />
<polygon points="97,40 97,40 102,35 97,30 97,30 97,40 " style="fill:#15b1d8; stroke-width:1; stroke:black; " description="&lt;b&gt;MCIC6FC_015555&lt;/b&gt;&lt;br&gt;hypothetical protein&lt;br&gt;Location: 381269 - 381827" locus_tag="MCIC6FC_015555" class="clusterblast-orf" id="dummy-3_q3_0_all"  />
<polygon points="102,35 107,30 125,30 125,40 107,40 102,35 " style="fill:white; stroke-width:1; stroke:black; " description="&lt;b&gt;MCIC6FC_015556&lt;/b&gt;&lt;br&gt;hypothetical protein&lt;br&gt;Location: 381840 - 384127" locus_tag="MCIC6FC_015556" class="clusterblast-orf" id="dummy-3_q4_0_all"  />
<polygon points="127,40 132,40 137,35 132,30 127,30 127,40 " style="fill:white; stroke-width:1; stroke:black; " description="&lt;b&gt;MCIC6FC_015557&lt;/b&gt;&lt;br&gt;hypothetical protein&lt;br&gt;Location: 384363 - 385391" locus_tag="MCIC6FC_015557" class="clusterblast-orf" id="dummy-3_q5_0_all"  />
<polygon points="138,35 143,30 150,30 150,40 143,40 138,35 " style="fill:#b115d8; stroke-width:1; stroke:black; " description="&lt;b&gt;MCIC6FC_015558&lt;/b&gt;&lt;br&gt;hypothetical protein&lt;br&gt;Location: 385461 - 386667" locus_tag="MCIC6FC_015558" class="clusterblast-orf" id="dummy-3_q6_0_all"  />
<polygon points="153,35 158,30 163,30 163,40 158,40 153,35 " style="fill:#d86315; stroke-width:1; stroke:black; " description="&lt;b&gt;MCIC6FC_015559&lt;/b&gt;&lt;br&gt;hypothetical protein&lt;br&gt;Location: 386933 - 388010" locus_tag="MCIC6FC_015559" class="clusterblast-orf" id="dummy-3_q7_0_all"  />
<polygon points="165,40 166,40 171,35 166,30 165,30 165,40 " style="fill:#15d815; stroke-width:1; stroke:black; " description="&lt;b&gt;MCIC6FC_015560&lt;/b&gt;&lt;br&gt;hypothetical protein&lt;br&gt;Location: 388141 - 388819" locus_tag="MCIC6FC_015560" class="clusterblast-orf" id="dummy-3_q8_0_all"  />
<polygon points="172,40 179,40 184,35 179,30 172,30 172,40 " style="fill:#1563d8; stroke-width:1; stroke:black; " description="&lt;b&gt;MCIC6FC_015561&lt;/b&gt;&lt;br&gt;hypothetical protein&lt;br&gt;Location: 388845 - 390088" locus_tag="MCIC6FC_015561" class="clusterblast-orf" id="dummy-3_q9_0_all"  />
<polygon points="185,40 219,40 224,35 219,30 185,30 185,40 " style="fill:#d815b1; stroke-width:1; stroke:black; " description="&lt;b&gt;MCIC6FC_015562&lt;/b&gt;&lt;br&gt;hypothetical protein&lt;br&gt;Location: 390156 - 394193" locus_tag="MCIC6FC_015562" class="clusterblast-orf" id="dummy-3_q10_0_all"  />
<polygon points="225,35 230,30 247,30 247,40 230,40 225,35 " style="fill:#d8b115; stroke-width:1; stroke:black; " description="&lt;b&gt;MCIC6FC_015563&lt;/b&gt;&lt;br&gt;hypothetical protein&lt;br&gt;Location: 394235 - 396454" locus_tag="MCIC6FC_015563" class="clusterblast-orf" id="dummy-3_q11_0_all"  />
<polygon points="250,40 309,40 314,35 309,30 250,30 250,40 " style="fill:#15d863; stroke-width:1; stroke:black; " description="&lt;b&gt;MCIC6FC_015564&lt;/b&gt;&lt;br&gt;hypothetical protein&lt;br&gt;Location: 396796 - 403215" locus_tag="MCIC6FC_015564" class="clusterblast-orf" id="dummy-3_q12_0_all"  />
<polygon points="326,35 331,30 341,30 341,40 331,40 326,35 " style="fill:#1515d8; stroke-width:1; stroke:black; " description="&lt;b&gt;MCIC6FC_015565&lt;/b&gt;&lt;br&gt;hypothetical protein&lt;br&gt;Location: 404434 - 405952" locus_tag="MCIC6FC_015565" class="clusterblast-orf" id="dummy-3_q13_0_all"  />
<polygon points="341,35 346,30 357,30 357,40 346,40 341,35 " style="fill:#d81563; stroke-width:1; stroke:black; " description="&lt;b&gt;MCIC6FC_015566&lt;/b&gt;&lt;br&gt;hypothetical protein&lt;br&gt;Location: 405978 - 407634" locus_tag="MCIC6FC_015566" class="clusterblast-orf" id="dummy-3_q14_0_all"  />
<polygon points="359,35 364,30 366,30 366,40 364,40 359,35 " style="fill:#b1d815; stroke-width:1; stroke:black; " description="&lt;b&gt;MCIC6FC_015567&lt;/b&gt;&lt;br&gt;hypothetical protein&lt;br&gt;Location: 407821 - 408496" locus_tag="MCIC6FC_015567" class="clusterblast-orf" id="dummy-3_q15_0_all"  />
<polygon points="369,40 405,40 410,35 405,30 369,30 369,40 " style="fill:#15d815; stroke-width:1; stroke:black; " description="&lt;b&gt;MCIC6FC_015568&lt;/b&gt;&lt;br&gt;hypothetical protein&lt;br&gt;Location: 408773 - 412960" locus_tag="MCIC6FC_015568" class="clusterblast-orf" id="dummy-3_q16_0_all"  />
<polygon points="412,40 422,40 427,35 422,30 412,30 412,40 " style="fill:#15d8b1; stroke-width:1; stroke:black; " description="&lt;b&gt;MCIC6FC_015569&lt;/b&gt;&lt;br&gt;hypothetical protein&lt;br&gt;Location: 413124 - 414658" locus_tag="MCIC6FC_015569" class="clusterblast-orf" id="dummy-3_q17_0_all"  />
<polygon points="427,35 432,30 526,30 526,40 432,40 427,35 " style="fill:#6315d8; stroke-width:1; stroke:black; " description="&lt;b&gt;MCIC6FC_015570&lt;/b&gt;&lt;br&gt;hypothetical protein&lt;br&gt;Location: 414704 - 424715" locus_tag="MCIC6FC_015570" class="clusterblast-orf" id="dummy-3_q18_0_all"  />
<polygon points="529,35 534,30 536,30 536,40 534,40 529,35 " style="fill:white; stroke-width:1; stroke:black; " description="&lt;b&gt;MCIC6FC_015571&lt;/b&gt;&lt;br&gt;hypothetical protein&lt;br&gt;Location: 424954 - 425722" locus_tag="MCIC6FC_015571" class="clusterblast-orf" id="dummy-3_q19_0_all"  />
<polygon points="537,35 542,30 591,30 591,40 542,40 537,35 " style="fill:#15d815; stroke-width:1; stroke:black; " description="&lt;b&gt;MCIC6FC_015572&lt;/b&gt;&lt;br&gt;hypothetical protein&lt;br&gt;Location: 425831 - 431252" locus_tag="MCIC6FC_015572" class="clusterblast-orf" id="dummy-3_q20_0_all"  />
<polygon points="593,40 593,40 598,35 593,30 593,30 593,40 " style="fill:white; stroke-width:1; stroke:black; " description="&lt;b&gt;MCIC6FC_015573&lt;/b&gt;&lt;br&gt;hypothetical protein&lt;br&gt;Location: 431508 - 431991" locus_tag="MCIC6FC_015573" class="clusterblast-orf" id="dummy-3_q21_0_all"  />
<polygon points="599,40 640,40 645,35 640,30 599,30 599,40 " style="fill:white; stroke-width:1; stroke:black; " description="&lt;b&gt;MCIC6FC_015574&lt;/b&gt;&lt;br&gt;hypothetical protein&lt;br&gt;Location: 432110 - 436710" locus_tag="MCIC6FC_015574" class="clusterblast-orf" id="dummy-3_q22_0_all"  />
<polygon points="646,35 651,30 707,30 707,40 651,40 646,35 " style="fill:white; stroke-width:1; stroke:black; " description="&lt;b&gt;MCIC6FC_015575&lt;/b&gt;&lt;br&gt;hypothetical protein&lt;br&gt;Location: 436847 - 443044" locus_tag="MCIC6FC_015575" class="clusterblast-orf" id="dummy-3_q23_0_all"  />
<polygon points="709,40 709,40 714,35 709,30 709,30 709,40 " style="fill:white; stroke-width:1; stroke:black; " description="&lt;b&gt;MCIC6FC_015576&lt;/b&gt;&lt;br&gt;hypothetical protein&lt;br&gt;Location: 443239 - 443728" locus_tag="MCIC6FC_015576" class="clusterblast-orf" id="dummy-3_q24_0_all"  />
<polygon points="715,35 720,30 724,30 724,40 720,40 715,35 " style="fill:white; stroke-width:1; stroke:black; " description="&lt;b&gt;MCIC6FC_015577&lt;/b&gt;&lt;br&gt;hypothetical protein&lt;br&gt;Location: 443855 - 444719" locus_tag="MCIC6FC_015577" class="clusterblast-orf" id="dummy-3_q25_0_all"  />
<polygon points="725,40 744,40 749,35 744,30 725,30 725,40 " style="fill:white; stroke-width:1; stroke:black; " description="&lt;b&gt;MCIC6FC_015578&lt;/b&gt;&lt;br&gt;hypothetical protein&lt;br&gt;Location: 444816 - 447254" locus_tag="MCIC6FC_015578" class="clusterblast-orf" id="dummy-3_q26_0_all"  />
<polygon points="752,40 775,40 780,35 775,30 752,30 752,40 " style="fill:white; stroke-width:1; stroke:black; " description="&lt;b&gt;MCIC6FC_015579&lt;/b&gt;&lt;br&gt;hypothetical protein&lt;br&gt;Location: 447568 - 450357" locus_tag="MCIC6FC_015579" class="clusterblast-orf" id="dummy-3_q27_0_all"  />
</g>
<g label="NZ_JACAQL010000011" description="NZ_JACAQL010000011 (103557-147770): Pseudomonas sp. IPO3747 IPO 3747 S30 L002... (68% of genes show similarity), NRPS" class="clusterblast-cluster"  >
<text x="5" y="70" class="clusterblast-acc"  >
<a xlink:href="https://antismash-db.secondarymetabolites.org/area.html?record=NZ_JACAQL010000011&amp;start=103557&amp;end=147770" target="_blank">NZ_JACAQL010000011 (103557-147770)</a>: Pseudomonas sp. IPO3747 IPO 3747 S30 L002... (68% of genes show similarity), NRPS</text>
<line x1="10" y1="85" x2="778.0" y2="85" style="stroke-width:1; stroke:grey; "  />
</g>
<g id="a3_000"  >
<polygon points="171,85 176,80 183,80 183,90 176,90 171,85 " style="fill:#d81515; stroke-width:1; stroke:black; " description="&lt;b&gt;HX790_RS18095&lt;/b&gt;&lt;br&gt;EAL domain-containing protein&lt;br&gt;Location: 103558 - 104751&lt;br&gt;&lt;br&gt;&lt;b&gt;BlastP hit with MCIC6FC_015553&lt;/b&gt;&lt;br&gt;Percentage identity: 95&lt;br&gt;Percentage coverage: 14&lt;br&gt;BLAST bit score: 705&lt;br&gt;E-value: 1.7e-200" locus_tag="HX790_RS18095" class="clusterblast-orf" id="dummy-3_h3_7_0"  />
</g>
<g id="a3_001"  >
<polygon points="183,85 188,80 210,80 210,90 188,90 183,85 " style="fill:#d81515; stroke-width:1; stroke:black; " description="&lt;b&gt;HX790_RS18100&lt;/b&gt;&lt;br&gt;response regulator&lt;br&gt;Location: 104738 - 107536&lt;br&gt;&lt;br&gt;&lt;b&gt;BlastP hit with MCIC6FC_015553&lt;/b&gt;&lt;br&gt;Percentage identity: 94&lt;br&gt;Percentage coverage: 34&lt;br&gt;BLAST bit score: 1714&lt;br&gt;E-value: 0.0" locus_tag="HX790_RS18100" class="clusterblast-orf" id="dummy-3_h3_7_1"  />
</g>
<g id="a3_002"  >
<polygon points="211,85 216,80 221,80 221,90 216,90 211,85 " style="fill:#d81515; stroke-width:1; stroke:black; " description="&lt;b&gt;HX790_RS18105&lt;/b&gt;&lt;br&gt;fimbrial protein&lt;br&gt;Location: 107596 - 108579&lt;br&gt;&lt;br&gt;&lt;b&gt;BlastP hit with MCIC6FC_015553&lt;/b&gt;&lt;br&gt;Percentage identity: 79&lt;br&gt;Percentage coverage: 12&lt;br&gt;BLAST bit score: 537&lt;br&gt;E-value: 6.1e-150" locus_tag="HX790_RS18105" class="clusterblast-orf" id="dummy-3_h3_7_2"  />
</g>
<g id="a3_003"  >
<polygon points="221,85 226,80 228,80 228,90 226,90 221,85 " style="fill:#63d815; stroke-width:1; stroke:black; " description="&lt;b&gt;HX790_RS18110&lt;/b&gt;&lt;br&gt;molecular chaperone&lt;br&gt;Location: 108603 - 109292&lt;br&gt;&lt;br&gt;&lt;b&gt;BlastP hit with MCIC6FC_015554&lt;/b&gt;&lt;br&gt;Percentage identity: 75&lt;br&gt;Percentage coverage: 91&lt;br&gt;BLAST bit score: 312&lt;br&gt;E-value: 2.7e-83" locus_tag="HX790_RS18110" class="clusterblast-orf" id="dummy-3_h3_7_3"  />
</g>
<g id="a3_004"  >
<polygon points="230,90 230,90 235,85 230,80 230,80 230,90 " style="fill:#15b1d8; stroke-width:1; stroke:black; " description="&lt;b&gt;HX790_RS18115&lt;/b&gt;&lt;br&gt;hypothetical protein&lt;br&gt;Location: 109481 - 110002&lt;br&gt;&lt;br&gt;&lt;b&gt;BlastP hit with MCIC6FC_015555&lt;/b&gt;&lt;br&gt;Percentage identity: 88&lt;br&gt;Percentage coverage: 95&lt;br&gt;BLAST bit score: 283&lt;br&gt;E-value: 1.3e-74" locus_tag="HX790_RS18115" class="clusterblast-orf" id="dummy-3_h3_7_4"  />
</g>
<g id="a3_005"  >
<polygon points="235,85 240,80 247,80 247,90 240,90 235,85 " style="fill:#b115d8; stroke-width:1; stroke:black; " description="&lt;b&gt;HX790_RS18120&lt;/b&gt;&lt;br&gt;DUF1835 domain-containing protein&lt;br&gt;Location: 110010 - 111215&lt;br&gt;&lt;br&gt;&lt;b&gt;BlastP hit with MCIC6FC_015558&lt;/b&gt;&lt;br&gt;Percentage identity: 83&lt;br&gt;Percentage coverage: 100&lt;br&gt;BLAST bit score: 693&lt;br&gt;E-value: 1e-197" locus_tag="HX790_RS18120" class="clusterblast-orf" id="dummy-3_h3_7_5"  />
</g>
<g id="a3_006"  >
<polygon points="248,90 250,90 255,85 250,80 248,80 248,90 " style="fill:#15d815; stroke-width:1; stroke:black; " description="&lt;b&gt;HX790_RS18125&lt;/b&gt;&lt;br&gt;ATP-binding cassette domain-containing protein&lt;br&gt;Location: 111390 - 112073&lt;br&gt;&lt;br&gt;&lt;b&gt;BlastP hit with MCIC6FC_015560&lt;/b&gt;&lt;br&gt;Percentage identity: 86&lt;br&gt;Percentage coverage: 100&lt;br&gt;BLAST bit score: 380&lt;br&gt;E-value: 1.4e-103" locus_tag="HX790_RS18125" class="clusterblast-orf" id="dummy-3_h3_7_6"  />
</g>
<g id="a3_007"  >
<polygon points="255,90 258,90 263,85 258,80 255,80 255,90 " style="fill:#1563d8; stroke-width:1; stroke:black; " description="&lt;b&gt;HX790_RS18130&lt;/b&gt;&lt;br&gt;iron export ABC transporter permease subunit FetB&lt;br&gt;Location: 112070 - 112864&lt;br&gt;&lt;br&gt;&lt;b&gt;BlastP hit with MCIC6FC_015561&lt;/b&gt;&lt;br&gt;Percentage identity: 100&lt;br&gt;Percentage coverage: 63&lt;br&gt;BLAST bit score: 447&lt;br&gt;E-value: 1.5e-123" locus_tag="HX790_RS18130" class="clusterblast-orf" id="dummy-3_h3_7_7"  />
</g>
<g id="a3_008"  >
<polygon points="265,85 270,80 275,80 275,90 270,90 265,85 " style="fill:white; stroke-width:1; stroke:black; " description="&lt;b&gt;HX790_RS18135&lt;/b&gt;&lt;br&gt;alcohol dehydrogenase catalytic domain-containing protein&lt;br&gt;Location: 113068 - 114114" locus_tag="HX790_RS18135" class="clusterblast-orf" id="dummy-3_h3_7_8"  />
</g>
<g id="a3_009"  >
<polygon points="275,85 280,80 283,80 283,90 280,90 275,85 " style="fill:white; stroke-width:1; stroke:black; " description="&lt;b&gt;HX790_RS18140&lt;/b&gt;&lt;br&gt;glucose 1-dehydrogenase&lt;br&gt;Location: 114128 - 114901" locus_tag="HX790_RS18140" class="clusterblast-orf" id="dummy-3_h3_7_9"  />
</g>
<g id="a3_0010"  >
<polygon points="286,90 290,90 295,85 290,80 286,80 286,90 " style="fill:#1563d8; stroke-width:1; stroke:black; " description="&lt;b&gt;HX790_RS18145&lt;/b&gt;&lt;br&gt;LysR family transcriptional regulator&lt;br&gt;Location: 115194 - 116066&lt;br&gt;&lt;br&gt;&lt;b&gt;BlastP hit with MCIC6FC_015561&lt;/b&gt;&lt;br&gt;Percentage identity: 82&lt;br&gt;Percentage coverage: 20&lt;br&gt;BLAST bit score: 124&lt;br&gt;E-value: 3e-26" locus_tag="HX790_RS18145" class="clusterblast-orf" id="dummy-3_h3_7_10"  />
</g>
<g id="a3_0011"  >
<polygon points="296,90 297,90 302,85 297,80 296,80 296,90 " style="fill:#d815b1; stroke-width:1; stroke:black; " description="&lt;b&gt;HX790_RS18150&lt;/b&gt;&lt;br&gt;glutathione S-transferase&lt;br&gt;Location: 116172 - 116804&lt;br&gt;&lt;br&gt;&lt;b&gt;BlastP hit with MCIC6FC_015562&lt;/b&gt;&lt;br&gt;Percentage identity: 91&lt;br&gt;Percentage coverage: 17&lt;br&gt;BLAST bit score: 379&lt;br&gt;E-value: 1.7e-102" locus_tag="HX790_RS18150" class="clusterblast-orf" id="dummy-3_h3_7_11"  />
</g>
<g id="a3_0012"  >
<polygon points="304,90 308,90 313,85 308,80 304,80 304,90 " style="fill:#d815b1; stroke-width:1; stroke:black; " description="&lt;b&gt;HX790_RS18155&lt;/b&gt;&lt;br&gt;LysR family transcriptional regulator&lt;br&gt;Location: 116983 - 117903&lt;br&gt;&lt;br&gt;&lt;b&gt;BlastP hit with MCIC6FC_015562&lt;/b&gt;&lt;br&gt;Percentage identity: 92&lt;br&gt;Percentage coverage: 22&lt;br&gt;BLAST bit score: 488&lt;br&gt;E-value: 2e-135" locus_tag="HX790_RS18155" class="clusterblast-orf" id="dummy-3_h3_7_12"  />
</g>
<g id="a3_0013"  >
<polygon points="313,90 317,90 322,85 317,80 313,80 313,90 " style="fill:#d815b1; stroke-width:1; stroke:black; " description="&lt;b&gt;HX790_RS18160&lt;/b&gt;&lt;br&gt;LysR family transcriptional regulator&lt;br&gt;Location: 117903 - 118790&lt;br&gt;&lt;br&gt;&lt;b&gt;BlastP hit with MCIC6FC_015562&lt;/b&gt;&lt;br&gt;Percentage identity: 84&lt;br&gt;Percentage coverage: 24&lt;br&gt;BLAST bit score: 482&lt;br&gt;E-value: 1.1e-133" locus_tag="HX790_RS18160" class="clusterblast-orf" id="dummy-3_h3_7_13"  />
</g>
<g id="a3_0014"  >
<polygon points="322,90 326,90 331,85 326,80 322,80 322,90 " style="fill:#d815b1; stroke-width:1; stroke:black; " description="&lt;b&gt;HX790_RS18165&lt;/b&gt;&lt;br&gt;pyridoxamine 5'-phosphate oxidase family protein&lt;br&gt;Location: 118867 - 119760&lt;br&gt;&lt;br&gt;&lt;b&gt;BlastP hit with MCIC6FC_015562&lt;/b&gt;&lt;br&gt;Percentage identity: 84&lt;br&gt;Percentage coverage: 24&lt;br&gt;BLAST bit score: 516&lt;br&gt;E-value: 8.9e-144" locus_tag="HX790_RS18165" class="clusterblast-orf" id="dummy-3_h3_7_14"  />
</g>
<g id="a3_0015"  >
<polygon points="333,85 338,80 346,80 346,90 338,90 333,85 " style="fill:#d8b115; stroke-width:1; stroke:black; " description="&lt;b&gt;HX790_RS18170&lt;/b&gt;&lt;br&gt;AdeC/AdeK/OprM family multidrug efflux complex outer membrane factor&lt;br&gt;Location: 119916 - 121310&lt;br&gt;&lt;br&gt;&lt;b&gt;BlastP hit with MCIC6FC_015563&lt;/b&gt;&lt;br&gt;Percentage identity: 92&lt;br&gt;Percentage coverage: 64&lt;br&gt;BLAST bit score: 808&lt;br&gt;E-value: 5e-232" locus_tag="HX790_RS18170" class="clusterblast-orf" id="dummy-3_h3_7_15"  />
</g>
<g id="a3_0016"  >
<polygon points="346,85 351,80 354,80 354,90 351,90 346,85 " style="fill:#d8b115; stroke-width:1; stroke:black; " description="&lt;b&gt;HX790_RS18175&lt;/b&gt;&lt;br&gt;helix-turn-helix transcriptional regulator&lt;br&gt;Location: 121310 - 122104&lt;br&gt;&lt;br&gt;&lt;b&gt;BlastP hit with MCIC6FC_015563&lt;/b&gt;&lt;br&gt;Percentage identity: 85&lt;br&gt;Percentage coverage: 37&lt;br&gt;BLAST bit score: 441&lt;br&gt;E-value: 2.1e-121" locus_tag="HX790_RS18175" class="clusterblast-orf" id="dummy-3_h3_7_16"  />
</g>
<g id="a3_0017"  >
<polygon points="359,90 416,90 421,85 416,80 359,80 359,90 " style="fill:#15d863; stroke-width:1; stroke:black; " description="&lt;b&gt;HX790_RS18180&lt;/b&gt;&lt;br&gt;amino acid adenylation domain-containing protein&lt;br&gt;Location: 122609 - 128866&lt;br&gt;&lt;br&gt;&lt;b&gt;BlastP hit with MCIC6FC_015564&lt;/b&gt;&lt;br&gt;Percentage identity: 87&lt;br&gt;Percentage coverage: 99&lt;br&gt;BLAST bit score: 3575&lt;br&gt;E-value: 0.0" locus_tag="HX790_RS18180" class="clusterblast-orf" id="dummy-3_h3_7_17"  />
</g>
<g id="a3_0018"  >
<polygon points="425,85 428,80 428,90 425,85 " style="fill:white; stroke-width:1; stroke:black; " description="&lt;b&gt;HX790_RS18185&lt;/b&gt;&lt;br&gt;hypothetical protein&lt;br&gt;Location: 129219 - 129521" locus_tag="HX790_RS18185" class="clusterblast-orf" id="dummy-3_h3_7_18"  />
</g>
<g id="a3_0019"  >
<polygon points="434,90 437,90 442,85 437,80 434,80 434,90 " style="fill:white; stroke-width:1; stroke:black; " description="&lt;b&gt;HX790_RS18190&lt;/b&gt;&lt;br&gt;hypothetical protein&lt;br&gt;Location: 130162 - 131004" locus_tag="HX790_RS18190" class="clusterblast-orf" id="dummy-3_h3_7_19"  />
</g>
<g id="a3_0020"  >
<polygon points="447,90 448,85 447,80 447,90 " style="fill:white; stroke-width:1; stroke:black; " description="&lt;b&gt;HX790_RS18195&lt;/b&gt;&lt;br&gt;hypothetical protein&lt;br&gt;Location: 131491 - 131628" locus_tag="HX790_RS18195" class="clusterblast-orf" id="dummy-3_h3_7_20"  />
</g>
<g id="a3_0021"  >
<polygon points="448,90 451,90 456,85 451,80 448,80 448,90 " style="fill:white; stroke-width:1; stroke:black; " description="&lt;b&gt;HX790_RS18200&lt;/b&gt;&lt;br&gt;ABC transporter permease&lt;br&gt;Location: 131632 - 132375" locus_tag="HX790_RS18200" class="clusterblast-orf" id="dummy-3_h3_7_21"  />
</g>
<g id="a3_0022"  >
<polygon points="456,90 458,90 463,85 458,80 456,80 456,90 " style="fill:white; stroke-width:1; stroke:black; " description="&lt;b&gt;HX790_RS18205&lt;/b&gt;&lt;br&gt;AAA family ATPase&lt;br&gt;Location: 132375 - 133088" locus_tag="HX790_RS18205" class="clusterblast-orf" id="dummy-3_h3_7_22"  />
</g>
<g id="a3_0023"  >
<polygon points="463,85 468,80 478,80 478,90 468,90 463,85 " style="fill:#1515d8; stroke-width:1; stroke:black; " description="&lt;b&gt;HX790_RS18210&lt;/b&gt;&lt;br&gt;glycosyltransferase family 39 protein&lt;br&gt;Location: 133110 - 134627&lt;br&gt;&lt;br&gt;&lt;b&gt;BlastP hit with MCIC6FC_015565&lt;/b&gt;&lt;br&gt;Percentage identity: 93&lt;br&gt;Percentage coverage: 100&lt;br&gt;BLAST bit score: 985&lt;br&gt;E-value: 1.6e-285" locus_tag="HX790_RS18210" class="clusterblast-orf" id="dummy-3_h3_7_23"  />
</g>
<g id="a3_0024"  >
<polygon points="478,85 483,80 495,80 495,90 483,90 478,85 " style="fill:#d81563; stroke-width:1; stroke:black; " description="&lt;b&gt;HX790_RS18215&lt;/b&gt;&lt;br&gt;lipid IV(A) 4-amino-4-deoxy-L-arabinosyltransferase&lt;br&gt;Location: 134654 - 136312&lt;br&gt;&lt;br&gt;&lt;b&gt;BlastP hit with MCIC6FC_015566&lt;/b&gt;&lt;br&gt;Percentage identity: 88&lt;br&gt;Percentage coverage: 100&lt;br&gt;BLAST bit score: 994&lt;br&gt;E-value: 4.9e-288" locus_tag="HX790_RS18215" class="clusterblast-orf" id="dummy-3_h3_7_24"  />
</g>
<g id="a3_0025"  >
<polygon points="497,85 502,80 503,80 503,90 502,90 497,85 " style="fill:#b1d815; stroke-width:1; stroke:black; " description="&lt;b&gt;HX790_RS18220&lt;/b&gt;&lt;br&gt;histidine phosphatase family protein&lt;br&gt;Location: 136500 - 137174&lt;br&gt;&lt;br&gt;&lt;b&gt;BlastP hit with MCIC6FC_015567&lt;/b&gt;&lt;br&gt;Percentage identity: 81&lt;br&gt;Percentage coverage: 100&lt;br&gt;BLAST bit score: 382&lt;br&gt;E-value: 2.8e-104" locus_tag="HX790_RS18220" class="clusterblast-orf" id="dummy-3_h3_7_25"  />
</g>
<g id="a3_0026"  >
<polygon points="506,90 507,90 512,85 507,80 506,80 506,90 " style="fill:#15d815; stroke-width:1; stroke:black; " description="&lt;b&gt;HX790_RS18225&lt;/b&gt;&lt;br&gt;ABC transporter ATP-binding protein&lt;br&gt;Location: 137450 - 138106&lt;br&gt;&lt;br&gt;&lt;b&gt;BlastP hit with MCIC6FC_015568&lt;/b&gt;&lt;br&gt;Percentage identity: 93&lt;br&gt;Percentage coverage: 15&lt;br&gt;BLAST bit score: 382&lt;br&gt;E-value: 2.2e-103&lt;br&gt;&lt;br&gt;&lt;b&gt;BlastP hit with MCIC6FC_015572&lt;/b&gt;&lt;br&gt;Percentage identity: 38&lt;br&gt;Percentage coverage: 12&lt;br&gt;BLAST bit score: 129&lt;br&gt;E-value: 4.3e-27" locus_tag="HX790_RS18225" class="clusterblast-orf" id="dummy-3_h3_7_26"  />
</g>
<g id="a3_0027"  >
<polygon points="512,90 532,90 537,85 532,80 512,80 512,90 " style="fill:#15d815; stroke-width:1; stroke:black; " description="&lt;b&gt;HX790_RS18230&lt;/b&gt;&lt;br&gt;FtsX-like permease family protein&lt;br&gt;Location: 138108 - 140570&lt;br&gt;&lt;br&gt;&lt;b&gt;BlastP hit with MCIC6FC_015568&lt;/b&gt;&lt;br&gt;Percentage identity: 92&lt;br&gt;Percentage coverage: 59&lt;br&gt;BLAST bit score: 1427&lt;br&gt;E-value: 0.0" locus_tag="HX790_RS18230" class="clusterblast-orf" id="dummy-3_h3_7_27"  />
</g>
<g id="a3_0028"  >
<polygon points="537,90 542,90 547,85 542,80 537,80 537,90 " style="fill:#15d815; stroke-width:1; stroke:black; " description="&lt;b&gt;HX790_RS18235&lt;/b&gt;&lt;br&gt;iron ABC transporter permease&lt;br&gt;Location: 140560 - 141624&lt;br&gt;&lt;br&gt;&lt;b&gt;BlastP hit with MCIC6FC_015568&lt;/b&gt;&lt;br&gt;Percentage identity: 89&lt;br&gt;Percentage coverage: 26&lt;br&gt;BLAST bit score: 671&lt;br&gt;E-value: 1.4e-190" locus_tag="HX790_RS18235" class="clusterblast-orf" id="dummy-3_h3_7_28"  />
</g>
<g id="a3_0029"  >
<polygon points="549,90 553,90 558,85 553,80 549,80 549,90 " style="fill:white; stroke-width:1; stroke:black; " description="&lt;b&gt;HX790_RS18240&lt;/b&gt;&lt;br&gt;hypothetical protein&lt;br&gt;Location: 141764 - 142753" locus_tag="HX790_RS18240" class="clusterblast-orf" id="dummy-3_h3_7_29"  />
</g>
<g id="a3_0030"  >
<polygon points="558,90 562,85 558,80 558,90 " style="fill:white; stroke-width:1; stroke:black; " description="&lt;b&gt;HX790_RS18245&lt;/b&gt;&lt;br&gt;hypothetical protein&lt;br&gt;Location: 142756 - 143133" locus_tag="HX790_RS18245" class="clusterblast-orf" id="dummy-3_h3_7_30"  />
</g>
<g id="a3_0031"  >
<polygon points="563,90 573,90 578,85 573,80 563,80 563,90 " style="fill:#15d8b1; stroke-width:1; stroke:black; " description="&lt;b&gt;HX790_RS18250&lt;/b&gt;&lt;br&gt;hypothetical protein&lt;br&gt;Location: 143257 - 144699&lt;br&gt;&lt;br&gt;&lt;b&gt;BlastP hit with MCIC6FC_015569&lt;/b&gt;&lt;br&gt;Percentage identity: 84&lt;br&gt;Percentage coverage: 98&lt;br&gt;BLAST bit score: 821&lt;br&gt;E-value: 5.1e-236" locus_tag="HX790_RS18250" class="clusterblast-orf" id="dummy-3_h3_7_31"  />
</g>
<g id="a3_0032"  >
<polygon points="578,85 583,80 589,80 589,90 583,90 578,85 " style="fill:#6315d8; stroke-width:1; stroke:black; " description="&lt;b&gt;HX790_RS18255&lt;/b&gt;&lt;br&gt;SMP-30/gluconolactonase/LRE family protein&lt;br&gt;Location: 144750 - 145850&lt;br&gt;&lt;br&gt;&lt;b&gt;BlastP hit with MCIC6FC_015570&lt;/b&gt;&lt;br&gt;Percentage identity: 89&lt;br&gt;Percentage coverage: 12&lt;br&gt;BLAST bit score: 601&lt;br&gt;E-value: 3.9e-169" locus_tag="HX790_RS18255" class="clusterblast-orf" id="dummy-3_h3_7_32"  />
</g>
<g id="a3_0033"  >
<polygon points="589,85 594,80 596,80 596,90 594,90 589,85 " style="fill:white; stroke-width:1; stroke:black; " description="&lt;b&gt;HX790_RS18260&lt;/b&gt;&lt;br&gt;sterol desaturase family protein&lt;br&gt;Location: 145853 - 146524" locus_tag="HX790_RS18260" class="clusterblast-orf" id="dummy-3_h3_7_33"  />
</g>
<g id="a3_0034"  >
<polygon points="599,90 603,90 608,85 603,80 599,80 599,90 " style="fill:white; stroke-width:1; stroke:black; " description="&lt;b&gt;HX790_RS18265&lt;/b&gt;&lt;br&gt;substrate-binding domain-containing protein&lt;br&gt;Location: 146847 - 147770" locus_tag="HX790_RS18265" class="clusterblast-orf" id="dummy-3_h3_7_34"  />
</g>
</svg>
