<svg xmlns="http://www.w3.org/2000/svg" xmlns:xlink="http://www.w3.org/1999/xlink" version="1.1" x="0" y="0" height="230" width="800" viewBox="0 0 800 230" preserveAspectRatio="none"  >
<g label="Query sequence" class="clusterblast-cluster"  >
<text x="5" y="20" class="clusterblast-acc"  >
Query sequence</text>
<line x1="10" y1="35" x2="778.0" y2="35" style="stroke-width:1; stroke:grey; "  />
<polygon points="0,35 5,30 12,30 12,40 5,40 0,35 " style="fill:#d81515; stroke-width:1; stroke:black; " description="&lt;b&gt;MCIC6FC_015424&lt;/b&gt;&lt;br&gt;hypothetical protein&lt;br&gt;Location: 116480 - 116759" locus_tag="MCIC6FC_015424" class="clusterblast-orf" id="dummy-2_q0_0_all"  />
<polygon points="28,40 100,40 105,35 100,30 28,30 28,40 " style="fill:#15d815; stroke-width:1; stroke:black; " description="&lt;b&gt;MCIC6FC_015425&lt;/b&gt;&lt;br&gt;hypothetical protein&lt;br&gt;Location: 117152 - 118979" locus_tag="MCIC6FC_015425" class="clusterblast-orf" id="dummy-2_q1_0_all"  />
<polygon points="110,40 161,40 166,35 161,30 110,30 110,40 " style="fill:#1515d8; stroke-width:1; stroke:black; " description="&lt;b&gt;MCIC6FC_015426&lt;/b&gt;&lt;br&gt;hypothetical protein&lt;br&gt;Location: 119111 - 120437" locus_tag="MCIC6FC_015426" class="clusterblast-orf" id="dummy-2_q2_0_all"  />
<polygon points="183,40 340,40 345,35 340,30 183,30 183,40 " style="fill:#d815d8; stroke-width:1; stroke:black; " description="&lt;b&gt;MCIC6FC_015427&lt;/b&gt;&lt;br&gt;hypothetical protein&lt;br&gt;Location: 120854 - 124718" locus_tag="MCIC6FC_015427" class="clusterblast-orf" id="dummy-2_q3_0_all"  />
<polygon points="345,35 350,30 565,30 565,40 350,40 345,35 " style="fill:#d8d815; stroke-width:1; stroke:black; " description="&lt;b&gt;MCIC6FC_015428&lt;/b&gt;&lt;br&gt;hypothetical protein&lt;br&gt;Location: 124725 - 129958" locus_tag="MCIC6FC_015428" class="clusterblast-orf" id="dummy-2_q4_0_all"  />
<polygon points="574,40 775,40 780,35 775,30 574,30 574,40 " style="fill:#15d8d8; stroke-width:1; stroke:black; " description="&lt;b&gt;MCIC6FC_015429&lt;/b&gt;&lt;br&gt;hypothetical protein&lt;br&gt;Location: 130173 - 135098" locus_tag="MCIC6FC_015429" class="clusterblast-orf" id="dummy-2_q5_0_all"  />
</g>
<g label="NZ_CP014546" description="NZ_CP014546 (6159479-6174198): Pseudomonas azotoformans strain S4 chromosome,... (70% of genes show similarity), NAGGN" class="clusterblast-cluster"  >
<text x="5" y="70" class="clusterblast-acc"  >
<a xlink:href="https://antismash-db.secondarymetabolites.org/area.html?record=NZ_CP014546&amp;start=6159479&amp;end=6174198" target="_blank">NZ_CP014546 (6159479-6174198)</a>: Pseudomonas azotoformans strain S4 chromosome,... (70% of genes show similarity), NAGGN</text>
<line x1="10" y1="85" x2="778.0" y2="85" style="stroke-width:1; stroke:grey; "  />
</g>
<g id="a2_000"  >
<polygon points="93,90 96,90 101,85 96,80 93,80 93,90 " style="fill:#1515d8; stroke-width:1; stroke:black; " description="&lt;b&gt;AYR47_RS28355&lt;/b&gt;&lt;br&gt;PLDc N-terminal domain-containing protein&lt;br&gt;Location: 6173773 - 6173582&lt;br&gt;&lt;br&gt;&lt;b&gt;BlastP hit with MCIC6FC_015426&lt;/b&gt;&lt;br&gt;Percentage identity: 100&lt;br&gt;Percentage coverage: 15&lt;br&gt;BLAST bit score: 122&lt;br&gt;E-value: 1.3e-25" locus_tag="AYR47_RS28355" class="clusterblast-orf" id="dummy-2_h2_6_0"  />
</g>
<g id="a2_001"  >
<polygon points="114,90 196,90 201,85 196,80 114,80 114,90 " style="fill:#d815d8; stroke-width:1; stroke:black; " description="&lt;b&gt;AYR47_RS28350&lt;/b&gt;&lt;br&gt;LTA synthase family protein&lt;br&gt;Location: 6173263 - 6171176&lt;br&gt;&lt;br&gt;&lt;b&gt;BlastP hit with MCIC6FC_015427&lt;/b&gt;&lt;br&gt;Percentage identity: 96&lt;br&gt;Percentage coverage: 62&lt;br&gt;BLAST bit score: 1343&lt;br&gt;E-value: 0.0" locus_tag="AYR47_RS28350" class="clusterblast-orf" id="dummy-2_h2_6_1"  />
</g>
<g id="a2_002"  >
<polygon points="204,85 209,80 210,80 210,90 209,90 204,85 " style="fill:white; stroke-width:1; stroke:black; " description="&lt;b&gt;AYR47_RS32380&lt;/b&gt;&lt;br&gt;DUF3309 domain-containing protein&lt;br&gt;Location: 6171123 - 6170971" locus_tag="AYR47_RS32380" class="clusterblast-orf" id="dummy-2_h2_6_2"  />
</g>
<g id="a2_003"  >
<polygon points="224,90 253,90 258,85 253,80 224,80 224,90 " style="fill:#d815d8; stroke-width:1; stroke:black; " description="&lt;b&gt;AYR47_RS28345&lt;/b&gt;&lt;br&gt;SDR family oxidoreductase&lt;br&gt;Location: 6170642 - 6169827&lt;br&gt;&lt;br&gt;&lt;b&gt;BlastP hit with MCIC6FC_015427&lt;/b&gt;&lt;br&gt;Percentage identity: 94&lt;br&gt;Percentage coverage: 24&lt;br&gt;BLAST bit score: 501&lt;br&gt;E-value: 2e-139" locus_tag="AYR47_RS28345" class="clusterblast-orf" id="dummy-2_h2_6_3"  />
</g>
<g id="a2_004"  >
<polygon points="263,90 267,90 272,85 267,80 263,80 263,90 " style="fill:white; stroke-width:1; stroke:black; " description="&lt;b&gt;AYR47_RS28340&lt;/b&gt;&lt;br&gt;carbon storage regulator CsrA&lt;br&gt;Location: 6169697 - 6169494" locus_tag="AYR47_RS28340" class="clusterblast-orf" id="dummy-2_h2_6_4"  />
</g>
<g id="a2_005"  >
<polygon points="272,85 277,80 282,80 282,90 277,90 272,85 " style="fill:white; stroke-width:1; stroke:black; " description="&lt;b&gt;AYR47_RS28335&lt;/b&gt;&lt;br&gt;YheU family protein&lt;br&gt;Location: 6169485 - 6169258" locus_tag="AYR47_RS28335" class="clusterblast-orf" id="dummy-2_h2_6_5"  />
</g>
<g id="a2_006"  >
<polygon points="284,85 289,80 334,80 334,90 289,90 284,85 " style="fill:#d8d815; stroke-width:1; stroke:black; " description="&lt;b&gt;AYR47_RS28330&lt;/b&gt;&lt;br&gt;osmoprotectant NAGGN system M42 family peptidase&lt;br&gt;Location: 6169198 - 6168014&lt;br&gt;&lt;br&gt;&lt;b&gt;BlastP hit with MCIC6FC_015428&lt;/b&gt;&lt;br&gt;Percentage identity: 98&lt;br&gt;Percentage coverage: 23&lt;br&gt;BLAST bit score: 770&lt;br&gt;E-value: 2.7e-220" locus_tag="AYR47_RS28330" class="clusterblast-orf" id="dummy-2_h2_6_6"  />
</g>
<g id="a2_007"  >
<polygon points="335,85 340,80 408,80 408,90 340,90 335,85 " style="fill:#d8d815; stroke-width:1; stroke:black; " description="&lt;b&gt;AYR47_RS28325&lt;/b&gt;&lt;br&gt;N-acetylglutaminylglutamine synthetase&lt;br&gt;Location: 6167989 - 6166256&lt;br&gt;&lt;br&gt;&lt;b&gt;BlastP hit with MCIC6FC_015428&lt;/b&gt;&lt;br&gt;Percentage identity: 96&lt;br&gt;Percentage coverage: 34&lt;br&gt;BLAST bit score: 1104&lt;br&gt;E-value: 0.0" locus_tag="AYR47_RS28325" class="clusterblast-orf" id="dummy-2_h2_6_7"  />
</g>
<g id="a2_008"  >
<polygon points="408,85 413,80 482,80 482,90 413,90 408,85 " style="fill:#d8d815; stroke-width:1; stroke:black; " description="&lt;b&gt;AYR47_RS28320&lt;/b&gt;&lt;br&gt;N-acetylglutaminylglutamine amidotransferase&lt;br&gt;Location: 6166252 - 6164480&lt;br&gt;&lt;br&gt;&lt;b&gt;BlastP hit with MCIC6FC_015428&lt;/b&gt;&lt;br&gt;Percentage identity: 96&lt;br&gt;Percentage coverage: 35&lt;br&gt;BLAST bit score: 1151&lt;br&gt;E-value: 0.0" locus_tag="AYR47_RS28320" class="clusterblast-orf" id="dummy-2_h2_6_8"  />
</g>
<g id="a2_009"  >
<polygon points="495,90 681,90 686,85 681,80 495,80 495,90 " style="fill:#15d8d8; stroke-width:1; stroke:black; " description="&lt;b&gt;AYR47_RS28315&lt;/b&gt;&lt;br&gt;hypothetical protein&lt;br&gt;Location: 6164170 - 6159602&lt;br&gt;&lt;br&gt;&lt;b&gt;BlastP hit with MCIC6FC_015429&lt;/b&gt;&lt;br&gt;Percentage identity: 49&lt;br&gt;Percentage coverage: 91&lt;br&gt;BLAST bit score: 1345&lt;br&gt;E-value: 0.0" locus_tag="AYR47_RS28315" class="clusterblast-orf" id="dummy-2_h2_6_9"  />
</g>
</svg>
