<svg xmlns="http://www.w3.org/2000/svg" xmlns:xlink="http://www.w3.org/1999/xlink" version="1.1" x="0" y="0" height="230" width="800" viewBox="0 0 800 230" preserveAspectRatio="none"  >
<g label="Query sequence" class="clusterblast-cluster"  >
<text x="5" y="20" class="clusterblast-acc"  >
Query sequence</text>
<line x1="10" y1="35" x2="778.0" y2="35" style="stroke-width:1; stroke:grey; "  />
<polygon points="0,35 5,30 14,30 14,40 5,40 0,35 " style="fill:white; stroke-width:1; stroke:black; " description="&lt;b&gt;MCIC6FC_003068&lt;/b&gt;&lt;br&gt;hypothetical protein&lt;br&gt;Location: 97676 - 98603" locus_tag="MCIC6FC_003068" class="clusterblast-orf" id="dummy-1_q0_0_all"  />
<polygon points="17,40 94,40 99,35 94,30 17,30 17,40 " style="fill:#d81515; stroke-width:1; stroke:black; " description="&lt;b&gt;MCIC6FC_003069&lt;/b&gt;&lt;br&gt;hypothetical protein&lt;br&gt;Location: 98780 - 104141" locus_tag="MCIC6FC_003069" class="clusterblast-orf" id="dummy-1_q1_0_all"  />
<polygon points="100,40 146,40 151,35 146,30 100,30 100,40 " style="fill:#43d815; stroke-width:1; stroke:black; " description="&lt;b&gt;MCIC6FC_003070&lt;/b&gt;&lt;br&gt;hypothetical protein&lt;br&gt;Location: 104203 - 107557" locus_tag="MCIC6FC_003070" class="clusterblast-orf" id="dummy-1_q2_0_all"  />
<polygon points="151,40 169,40 174,35 169,30 151,30 151,40 " style="fill:#15b6d8; stroke-width:1; stroke:black; " description="&lt;b&gt;MCIC6FC_003071&lt;/b&gt;&lt;br&gt;hypothetical protein&lt;br&gt;Location: 107576 - 109070" locus_tag="MCIC6FC_003071" class="clusterblast-orf" id="dummy-1_q3_0_all"  />
<polygon points="178,40 179,40 184,35 179,30 178,30 178,40 " style="fill:#8815d8; stroke-width:1; stroke:black; " description="&lt;b&gt;MCIC6FC_003072&lt;/b&gt;&lt;br&gt;hypothetical protein&lt;br&gt;Location: 109299 - 109734" locus_tag="MCIC6FC_003072" class="clusterblast-orf" id="dummy-1_q4_0_all"  />
<polygon points="185,35 190,30 198,30 198,40 190,40 185,35 " style="fill:#d85a15; stroke-width:1; stroke:black; " description="&lt;b&gt;MCIC6FC_003073&lt;/b&gt;&lt;br&gt;hypothetical protein&lt;br&gt;Location: 109784 - 110609" locus_tag="MCIC6FC_003073" class="clusterblast-orf" id="dummy-1_q5_0_all"  />
<polygon points="201,40 220,40 225,35 220,30 201,30 201,40 " style="fill:#15d82c; stroke-width:1; stroke:black; " description="&lt;b&gt;MCIC6FC_003074&lt;/b&gt;&lt;br&gt;hypothetical protein&lt;br&gt;Location: 110844 - 112404" locus_tag="MCIC6FC_003074" class="clusterblast-orf" id="dummy-1_q6_0_all"  />
<polygon points="226,40 328,40 333,35 328,30 226,30 226,40 " style="fill:#1571d8; stroke-width:1; stroke:black; " description="&lt;b&gt;MCIC6FC_003075&lt;/b&gt;&lt;br&gt;hypothetical protein&lt;br&gt;Location: 112466 - 119468" locus_tag="MCIC6FC_003075" class="clusterblast-orf" id="dummy-1_q7_0_all"  />
<polygon points="335,40 475,40 480,35 475,30 335,30 335,40 " style="fill:#cd15d8; stroke-width:1; stroke:black; " description="&lt;b&gt;MCIC6FC_003076&lt;/b&gt;&lt;br&gt;hypothetical protein&lt;br&gt;Location: 119565 - 129066" locus_tag="MCIC6FC_003076" class="clusterblast-orf" id="dummy-1_q8_0_all"  />
<polygon points="480,40 482,40 487,35 482,30 480,30 480,40 " style="fill:#d89f15; stroke-width:1; stroke:black; " description="&lt;b&gt;MCIC6FC_003077&lt;/b&gt;&lt;br&gt;hypothetical protein&lt;br&gt;Location: 129091 - 129541" locus_tag="MCIC6FC_003077" class="clusterblast-orf" id="dummy-1_q9_0_all"  />
<polygon points="488,40 490,40 495,35 490,30 488,30 488,40 " style="fill:#d89f15; stroke-width:1; stroke:black; " description="&lt;b&gt;MCIC6FC_003078&lt;/b&gt;&lt;br&gt;hypothetical protein&lt;br&gt;Location: 129592 - 130051" locus_tag="MCIC6FC_003078" class="clusterblast-orf" id="dummy-1_q10_0_all"  />
<polygon points="500,40 503,35 500,30 500,40 " style="fill:#d89f15; stroke-width:1; stroke:black; " description="&lt;b&gt;MCIC6FC_003079&lt;/b&gt;&lt;br&gt;hypothetical protein&lt;br&gt;Location: 130373 - 130554" locus_tag="MCIC6FC_003079" class="clusterblast-orf" id="dummy-1_q11_0_all"  />
<polygon points="503,35 508,30 517,30 517,40 508,40 503,35 " style="fill:#15d871; stroke-width:1; stroke:black; " description="&lt;b&gt;MCIC6FC_003080&lt;/b&gt;&lt;br&gt;hypothetical protein&lt;br&gt;Location: 130586 - 131486" locus_tag="MCIC6FC_003080" class="clusterblast-orf" id="dummy-1_q12_0_all"  />
<polygon points="518,40 533,40 538,35 533,30 518,30 518,40 " style="fill:#152cd8; stroke-width:1; stroke:black; " description="&lt;b&gt;MCIC6FC_003081&lt;/b&gt;&lt;br&gt;hypothetical protein&lt;br&gt;Location: 131559 - 132880" locus_tag="MCIC6FC_003081" class="clusterblast-orf" id="dummy-1_q13_0_all"  />
<polygon points="543,35 548,30 559,30 559,40 548,40 543,35 " style="fill:#d8159f; stroke-width:1; stroke:black; " description="&lt;b&gt;MCIC6FC_003082&lt;/b&gt;&lt;br&gt;hypothetical protein&lt;br&gt;Location: 133154 - 134222" locus_tag="MCIC6FC_003082" class="clusterblast-orf" id="dummy-1_q14_0_all"  />
<polygon points="562,35 567,30 584,30 584,40 567,40 562,35 " style="fill:#cdd815; stroke-width:1; stroke:black; " description="&lt;b&gt;MCIC6FC_003083&lt;/b&gt;&lt;br&gt;hypothetical protein&lt;br&gt;Location: 134451 - 135870" locus_tag="MCIC6FC_003083" class="clusterblast-orf" id="dummy-1_q15_0_all"  />
<polygon points="586,35 591,30 684,30 684,40 591,40 586,35 " style="fill:#15d8b6; stroke-width:1; stroke:black; " description="&lt;b&gt;MCIC6FC_003084&lt;/b&gt;&lt;br&gt;hypothetical protein&lt;br&gt;Location: 135991 - 142369" locus_tag="MCIC6FC_003084" class="clusterblast-orf" id="dummy-1_q16_0_all"  />
<polygon points="684,35 689,30 703,30 703,40 689,40 684,35 " style="fill:#4315d8; stroke-width:1; stroke:black; " description="&lt;b&gt;MCIC6FC_003085&lt;/b&gt;&lt;br&gt;hypothetical protein&lt;br&gt;Location: 142379 - 143611" locus_tag="MCIC6FC_003085" class="clusterblast-orf" id="dummy-1_q17_0_all"  />
<polygon points="703,35 708,30 737,30 737,40 708,40 703,35 " style="fill:#d8155a; stroke-width:1; stroke:black; " description="&lt;b&gt;MCIC6FC_003086&lt;/b&gt;&lt;br&gt;hypothetical protein&lt;br&gt;Location: 143624 - 145863" locus_tag="MCIC6FC_003086" class="clusterblast-orf" id="dummy-1_q18_0_all"  />
<polygon points="738,35 743,30 780,30 780,40 743,40 738,35 " style="fill:#88d815; stroke-width:1; stroke:black; " description="&lt;b&gt;MCIC6FC_003087&lt;/b&gt;&lt;br&gt;hypothetical protein&lt;br&gt;Location: 145916 - 148652" locus_tag="MCIC6FC_003087" class="clusterblast-orf" id="dummy-1_q19_0_all"  />
</g>
<g label="NZ_CP019426" description="NZ_CP019426 (499286-542891): Pseudomonas sp. R84 chromosome, complete genome (72% of genes show similarity), arylpolyene" class="clusterblast-cluster"  >
<text x="5" y="70" class="clusterblast-acc"  >
<a xlink:href="https://antismash-db.secondarymetabolites.org/area.html?record=NZ_CP019426&amp;start=499286&amp;end=542891" target="_blank">NZ_CP019426 (499286-542891)</a>: Pseudomonas sp. R84 chromosome, complete genome (72% of genes show similarity), arylpolyene</text>
<line x1="10" y1="85" x2="778.0" y2="85" style="stroke-width:1; stroke:grey; "  />
</g>
<g id="a1_000"  >
<polygon points="67,90 85,90 90,85 85,80 67,80 67,90 " style="fill:#15b6d8; stroke-width:1; stroke:black; " description="&lt;b&gt;PspR84_RS02485&lt;/b&gt;&lt;br&gt;YdiU family protein&lt;br&gt;Location: 541513 - 540050&lt;br&gt;&lt;br&gt;&lt;b&gt;BlastP hit with MCIC6FC_003071&lt;/b&gt;&lt;br&gt;Percentage identity: 87&lt;br&gt;Percentage coverage: 98&lt;br&gt;BLAST bit score: 877&lt;br&gt;E-value: 7.9e-253" locus_tag="PspR84_RS02485" class="clusterblast-orf" id="dummy-1_h1_5_0"  />
</g>
<g id="a1_001"  >
<polygon points="90,85 95,80 96,80 96,90 95,90 90,85 " style="fill:white; stroke-width:1; stroke:black; " description="&lt;b&gt;PspR84_RS02480&lt;/b&gt;&lt;br&gt;transcriptional regulator&lt;br&gt;Location: 540042 - 539641" locus_tag="PspR84_RS02480" class="clusterblast-orf" id="dummy-1_h1_5_1"  />
</g>
<g id="a1_002"  >
<polygon points="96,85 100,80 100,90 96,85 " style="fill:white; stroke-width:1; stroke:black; " description="&lt;b&gt;PspR84_RS02475&lt;/b&gt;&lt;br&gt;type II toxin-antitoxin system HigB family toxin&lt;br&gt;Location: 539644 - 539348" locus_tag="PspR84_RS02475" class="clusterblast-orf" id="dummy-1_h1_5_2"  />
</g>
<g id="a1_003"  >
<polygon points="103,90 105,90 110,85 105,80 103,80 103,90 " style="fill:#8815d8; stroke-width:1; stroke:black; " description="&lt;b&gt;PspR84_RS02470&lt;/b&gt;&lt;br&gt;thioredoxin TrxC&lt;br&gt;Location: 539152 - 538718&lt;br&gt;&lt;br&gt;&lt;b&gt;BlastP hit with MCIC6FC_003072&lt;/b&gt;&lt;br&gt;Percentage identity: 87&lt;br&gt;Percentage coverage: 100&lt;br&gt;BLAST bit score: 271&lt;br&gt;E-value: 4.4e-71" locus_tag="PspR84_RS02470" class="clusterblast-orf" id="dummy-1_h1_5_3"  />
</g>
<g id="a1_004"  >
<polygon points="112,85 117,80 124,80 124,90 117,90 112,85 " style="fill:#d85a15; stroke-width:1; stroke:black; " description="&lt;b&gt;PspR84_RS02465&lt;/b&gt;&lt;br&gt;ParA family protein&lt;br&gt;Location: 538590 - 537820&lt;br&gt;&lt;br&gt;&lt;b&gt;BlastP hit with MCIC6FC_003073&lt;/b&gt;&lt;br&gt;Percentage identity: 95&lt;br&gt;Percentage coverage: 97&lt;br&gt;BLAST bit score: 483&lt;br&gt;E-value: 1e-134" locus_tag="PspR84_RS02465" class="clusterblast-orf" id="dummy-1_h1_5_4"  />
</g>
<g id="a1_005"  >
<polygon points="129,90 135,90 140,85 135,80 129,80 129,90 " style="fill:#15d82c; stroke-width:1; stroke:black; " description="&lt;b&gt;PspR84_RS02460&lt;/b&gt;&lt;br&gt;beta-ketoacyl synthase chain length factor&lt;br&gt;Location: 537463 - 536738&lt;br&gt;&lt;br&gt;&lt;b&gt;BlastP hit with MCIC6FC_003074&lt;/b&gt;&lt;br&gt;Percentage identity: 84&lt;br&gt;Percentage coverage: 37&lt;br&gt;BLAST bit score: 310&lt;br&gt;E-value: 2.9e-82" locus_tag="PspR84_RS02460" class="clusterblast-orf" id="dummy-1_h1_5_5"  />
</g>
<g id="a1_006"  >
<polygon points="140,90 147,90 152,85 147,80 140,80 140,90 " style="fill:#15d82c; stroke-width:1; stroke:black; " description="&lt;b&gt;PspR84_RS02455&lt;/b&gt;&lt;br&gt;1-acyl-sn-glycerol-3-phosphate acyltransferase&lt;br&gt;Location: 536762 - 535953&lt;br&gt;&lt;br&gt;&lt;b&gt;BlastP hit with MCIC6FC_003074&lt;/b&gt;&lt;br&gt;Percentage identity: 81&lt;br&gt;Percentage coverage: 54&lt;br&gt;BLAST bit score: 466&lt;br&gt;E-value: 4.2e-129" locus_tag="PspR84_RS02455" class="clusterblast-orf" id="dummy-1_h1_5_6"  />
</g>
<g id="a1_007"  >
<polygon points="152,90 156,85 152,80 152,90 " style="fill:white; stroke-width:1; stroke:black; " description="&lt;b&gt;PspR84_RS02450&lt;/b&gt;&lt;br&gt;acyl carrier protein&lt;br&gt;Location: 535972 - 535712" locus_tag="PspR84_RS02450" class="clusterblast-orf" id="dummy-1_h1_5_7"  />
</g>
<g id="a1_008"  >
<polygon points="156,90 160,85 156,80 156,90 " style="fill:white; stroke-width:1; stroke:black; " description="&lt;b&gt;PspR84_RS02445&lt;/b&gt;&lt;br&gt;acyl carrier protein&lt;br&gt;Location: 535702 - 535448" locus_tag="PspR84_RS02445" class="clusterblast-orf" id="dummy-1_h1_5_8"  />
</g>
<g id="a1_009"  >
<polygon points="160,90 163,90 168,85 163,80 160,80 160,90 " style="fill:white; stroke-width:1; stroke:black; " description="&lt;b&gt;PspR84_RS02440&lt;/b&gt;&lt;br&gt;hypothetical protein&lt;br&gt;Location: 535451 - 534906" locus_tag="PspR84_RS02440" class="clusterblast-orf" id="dummy-1_h1_5_9"  />
</g>
<g id="a1_0010"  >
<polygon points="168,90 189,90 194,85 189,80 168,80 168,90 " style="fill:#1571d8; stroke-width:1; stroke:black; " description="&lt;b&gt;PspR84_RS02435&lt;/b&gt;&lt;br&gt;AMP-binding protein&lt;br&gt;Location: 534909 - 533230&lt;br&gt;&lt;br&gt;&lt;b&gt;BlastP hit with MCIC6FC_003075&lt;/b&gt;&lt;br&gt;Percentage identity: 80&lt;br&gt;Percentage coverage: 25&lt;br&gt;BLAST bit score: 866&lt;br&gt;E-value: 8.1e-249" locus_tag="PspR84_RS02435" class="clusterblast-orf" id="dummy-1_h1_5_10"  />
</g>
<g id="a1_0011"  >
<polygon points="195,90 202,90 207,85 202,80 195,80 195,90 " style="fill:#1571d8; stroke-width:1; stroke:black; " description="&lt;b&gt;PspR84_RS02430&lt;/b&gt;&lt;br&gt;glycosyltransferase&lt;br&gt;Location: 533152 - 532418&lt;br&gt;&lt;br&gt;&lt;b&gt;BlastP hit with MCIC6FC_003075&lt;/b&gt;&lt;br&gt;Percentage identity: 77&lt;br&gt;Percentage coverage: 10&lt;br&gt;BLAST bit score: 376&lt;br&gt;E-value: 1.5e-101" locus_tag="PspR84_RS02430" class="clusterblast-orf" id="dummy-1_h1_5_11"  />
</g>
<g id="a1_0012"  >
<polygon points="206,90 216,90 221,85 216,80 206,80 206,90 " style="fill:#1571d8; stroke-width:1; stroke:black; " description="&lt;b&gt;PspR84_RS02425&lt;/b&gt;&lt;br&gt;glycosyl transferase&lt;br&gt;Location: 532421 - 531474&lt;br&gt;&lt;br&gt;&lt;b&gt;BlastP hit with MCIC6FC_003075&lt;/b&gt;&lt;br&gt;Percentage identity: 80&lt;br&gt;Percentage coverage: 13&lt;br&gt;BLAST bit score: 483&lt;br&gt;E-value: 1.5e-133" locus_tag="PspR84_RS02425" class="clusterblast-orf" id="dummy-1_h1_5_12"  />
</g>
<g id="a1_0013"  >
<polygon points="221,90 239,90 244,85 239,80 221,80 221,90 " style="fill:#1571d8; stroke-width:1; stroke:black; " description="&lt;b&gt;PspR84_RS02420&lt;/b&gt;&lt;br&gt;aromatic amino acid lyase&lt;br&gt;Location: 531493 - 529949&lt;br&gt;&lt;br&gt;&lt;b&gt;BlastP hit with MCIC6FC_003075&lt;/b&gt;&lt;br&gt;Percentage identity: 91&lt;br&gt;Percentage coverage: 22&lt;br&gt;BLAST bit score: 867&lt;br&gt;E-value: 3.6e-249" locus_tag="PspR84_RS02420" class="clusterblast-orf" id="dummy-1_h1_5_13"  />
</g>
<g id="a1_0014"  >
<polygon points="244,90 246,90 251,85 246,80 244,80 244,90 " style="fill:white; stroke-width:1; stroke:black; " description="&lt;b&gt;PspR84_RS02415&lt;/b&gt;&lt;br&gt;thioesterase family protein&lt;br&gt;Location: 529956 - 529531" locus_tag="PspR84_RS02415" class="clusterblast-orf" id="dummy-1_h1_5_14"  />
</g>
<g id="a1_0015"  >
<polygon points="251,90 255,90 260,85 255,80 251,80 251,90 " style="fill:white; stroke-width:1; stroke:black; " description="&lt;b&gt;PspR84_RS02410&lt;/b&gt;&lt;br&gt;outer-membrane lipoprotein carrier protein LolA&lt;br&gt;Location: 529534 - 528923" locus_tag="PspR84_RS02410" class="clusterblast-orf" id="dummy-1_h1_5_15"  />
</g>
<g id="a1_0016"  >
<polygon points="260,90 291,90 296,85 291,80 260,80 260,90 " style="fill:#cd15d8; stroke-width:1; stroke:black; " description="&lt;b&gt;PspR84_RS02405&lt;/b&gt;&lt;br&gt;MMPL family transporter&lt;br&gt;Location: 528939 - 526600&lt;br&gt;&lt;br&gt;&lt;b&gt;BlastP hit with MCIC6FC_003076&lt;/b&gt;&lt;br&gt;Percentage identity: 81&lt;br&gt;Percentage coverage: 23&lt;br&gt;BLAST bit score: 1097&lt;br&gt;E-value: 0.0" locus_tag="PspR84_RS02405" class="clusterblast-orf" id="dummy-1_h1_5_16"  />
</g>
<g id="a1_0017"  >
<polygon points="296,90 308,90 313,85 308,80 296,80 296,90 " style="fill:#cd15d8; stroke-width:1; stroke:black; " description="&lt;b&gt;PspR84_RS02400&lt;/b&gt;&lt;br&gt;sodium:proton antiporter&lt;br&gt;Location: 526603 - 525440&lt;br&gt;&lt;br&gt;&lt;b&gt;BlastP hit with MCIC6FC_003076&lt;/b&gt;&lt;br&gt;Percentage identity: 80&lt;br&gt;Percentage coverage: 12&lt;br&gt;BLAST bit score: 582&lt;br&gt;E-value: 2.5e-163" locus_tag="PspR84_RS02400" class="clusterblast-orf" id="dummy-1_h1_5_17"  />
</g>
<g id="a1_0018"  >
<polygon points="313,90 327,90 332,85 327,80 313,80 313,90 " style="fill:#cd15d8; stroke-width:1; stroke:black; " description="&lt;b&gt;PspR84_RS02395&lt;/b&gt;&lt;br&gt;tryptophan 7-halogenase&lt;br&gt;Location: 525453 - 524206&lt;br&gt;&lt;br&gt;&lt;b&gt;BlastP hit with MCIC6FC_003076&lt;/b&gt;&lt;br&gt;Percentage identity: 84&lt;br&gt;Percentage coverage: 13&lt;br&gt;BLAST bit score: 695&lt;br&gt;E-value: 2e-197" locus_tag="PspR84_RS02395" class="clusterblast-orf" id="dummy-1_h1_5_18"  />
</g>
<g id="a1_0019"  >
<polygon points="332,90 338,90 343,85 338,80 332,80 332,90 " style="fill:white; stroke-width:1; stroke:black; " description="&lt;b&gt;PspR84_RS02390&lt;/b&gt;&lt;br&gt;methyltransferase domain-containing protein&lt;br&gt;Location: 524209 - 523484" locus_tag="PspR84_RS02390" class="clusterblast-orf" id="dummy-1_h1_5_19"  />
</g>
<g id="a1_0020"  >
<polygon points="345,90 347,90 352,85 347,80 345,80 345,90 " style="fill:white; stroke-width:1; stroke:black; " description="&lt;b&gt;PspR84_RS02385&lt;/b&gt;&lt;br&gt;hypothetical protein&lt;br&gt;Location: 523370 - 522888" locus_tag="PspR84_RS02385" class="clusterblast-orf" id="dummy-1_h1_5_20"  />
</g>
<g id="a1_0021"  >
<polygon points="352,90 366,90 371,85 366,80 352,80 352,90 " style="fill:#cd15d8; stroke-width:1; stroke:black; " description="&lt;b&gt;PspR84_RS02380&lt;/b&gt;&lt;br&gt;beta-ketoacyl-ACP synthase&lt;br&gt;Location: 522891 - 521695&lt;br&gt;&lt;br&gt;&lt;b&gt;BlastP hit with MCIC6FC_003076&lt;/b&gt;&lt;br&gt;Percentage identity: 76&lt;br&gt;Percentage coverage: 13&lt;br&gt;BLAST bit score: 597&lt;br&gt;E-value: 9.7e-168" locus_tag="PspR84_RS02380" class="clusterblast-orf" id="dummy-1_h1_5_21"  />
</g>
<g id="a1_0022"  >
<polygon points="371,90 373,90 378,85 373,80 371,80 371,90 " style="fill:white; stroke-width:1; stroke:black; " description="&lt;b&gt;PspR84_RS02375&lt;/b&gt;&lt;br&gt;3-hydroxylacyl-ACP dehydratase&lt;br&gt;Location: 521698 - 521234" locus_tag="PspR84_RS02375" class="clusterblast-orf" id="dummy-1_h1_5_22"  />
</g>
<g id="a1_0023"  >
<polygon points="378,90 384,90 389,85 384,80 378,80 378,90 " style="fill:white; stroke-width:1; stroke:black; " description="&lt;b&gt;PspR84_RS02370&lt;/b&gt;&lt;br&gt;3-oxoacyl-ACP reductase FabG&lt;br&gt;Location: 521241 - 520513" locus_tag="PspR84_RS02370" class="clusterblast-orf" id="dummy-1_h1_5_23"  />
</g>
<g id="a1_0024"  >
<polygon points="389,90 402,90 407,85 402,80 389,80 389,90 " style="fill:#cd15d8; stroke-width:1; stroke:black; " description="&lt;b&gt;PspR84_RS02365&lt;/b&gt;&lt;br&gt;beta-ketoacyl-ACP synthase&lt;br&gt;Location: 520513 - 519287&lt;br&gt;&lt;br&gt;&lt;b&gt;BlastP hit with MCIC6FC_003076&lt;/b&gt;&lt;br&gt;Percentage identity: 92&lt;br&gt;Percentage coverage: 13&lt;br&gt;BLAST bit score: 753&lt;br&gt;E-value: 8.1e-215" locus_tag="PspR84_RS02365" class="clusterblast-orf" id="dummy-1_h1_5_24"  />
</g>
<g id="a1_0025"  >
<polygon points="408,90 415,90 420,85 415,80 408,80 408,90 " style="fill:#d89f15; stroke-width:1; stroke:black; " description="&lt;b&gt;PspR84_RS02360&lt;/b&gt;&lt;br&gt;hypothetical protein&lt;br&gt;Location: 519261 - 518458&lt;br&gt;&lt;br&gt;&lt;b&gt;BlastP hit with MCIC6FC_003077&lt;/b&gt;&lt;br&gt;Percentage identity: 38&lt;br&gt;Percentage coverage: 86&lt;br&gt;BLAST bit score: 91&lt;br&gt;E-value: 8.4e-17&lt;br&gt;&lt;br&gt;&lt;b&gt;BlastP hit with MCIC6FC_003078&lt;/b&gt;&lt;br&gt;Percentage identity: 47&lt;br&gt;Percentage coverage: 84&lt;br&gt;BLAST bit score: 104&lt;br&gt;E-value: 1.3e-20" locus_tag="PspR84_RS02360" class="clusterblast-orf" id="dummy-1_h1_5_25"  />
</g>
<g id="a1_0026"  >
<polygon points="422,90 424,90 429,85 424,80 422,80 422,90 " style="fill:#d89f15; stroke-width:1; stroke:black; " description="&lt;b&gt;PspR84_RS02355&lt;/b&gt;&lt;br&gt;excinuclease&lt;br&gt;Location: 518306 - 517869&lt;br&gt;&lt;br&gt;&lt;b&gt;BlastP hit with MCIC6FC_003078&lt;/b&gt;&lt;br&gt;Percentage identity: 50&lt;br&gt;Percentage coverage: 97&lt;br&gt;BLAST bit score: 141&lt;br&gt;E-value: 9.5e-32&lt;br&gt;&lt;br&gt;&lt;b&gt;BlastP hit with MCIC6FC_003079&lt;/b&gt;&lt;br&gt;Percentage identity: 69&lt;br&gt;Percentage coverage: 87&lt;br&gt;BLAST bit score: 58&lt;br&gt;E-value: 2.8e-07" locus_tag="PspR84_RS02355" class="clusterblast-orf" id="dummy-1_h1_5_26"  />
</g>
<g id="a1_0027"  >
<polygon points="430,85 435,80 444,80 444,90 435,90 430,85 " style="fill:#15d871; stroke-width:1; stroke:black; " description="&lt;b&gt;PspR84_RS02350&lt;/b&gt;&lt;br&gt;LysR family transcriptional regulator&lt;br&gt;Location: 517782 - 516886&lt;br&gt;&lt;br&gt;&lt;b&gt;BlastP hit with MCIC6FC_003080&lt;/b&gt;&lt;br&gt;Percentage identity: 93&lt;br&gt;Percentage coverage: 98&lt;br&gt;BLAST bit score: 518&lt;br&gt;E-value: 4.3e-145" locus_tag="PspR84_RS02350" class="clusterblast-orf" id="dummy-1_h1_5_27"  />
</g>
<g id="a1_0028"  >
<polygon points="446,90 461,90 466,85 461,80 446,80 446,90 " style="fill:#152cd8; stroke-width:1; stroke:black; " description="&lt;b&gt;PspR84_RS02345&lt;/b&gt;&lt;br&gt;MFS transporter&lt;br&gt;Location: 516767 - 515493&lt;br&gt;&lt;br&gt;&lt;b&gt;BlastP hit with MCIC6FC_003081&lt;/b&gt;&lt;br&gt;Percentage identity: 77&lt;br&gt;Percentage coverage: 99&lt;br&gt;BLAST bit score: 601&lt;br&gt;E-value: 5.4e-170" locus_tag="PspR84_RS02345" class="clusterblast-orf" id="dummy-1_h1_5_28"  />
</g>
<g id="a1_0029"  >
<polygon points="468,85 473,80 485,80 485,90 473,90 468,85 " style="fill:#d8159f; stroke-width:1; stroke:black; " description="&lt;b&gt;PspR84_RS02340&lt;/b&gt;&lt;br&gt;uroporphyrinogen decarboxylase&lt;br&gt;Location: 515315 - 514248&lt;br&gt;&lt;br&gt;&lt;b&gt;BlastP hit with MCIC6FC_003082&lt;/b&gt;&lt;br&gt;Percentage identity: 94&lt;br&gt;Percentage coverage: 100&lt;br&gt;BLAST bit score: 682&lt;br&gt;E-value: 2e-194" locus_tag="PspR84_RS02340" class="clusterblast-orf" id="dummy-1_h1_5_29"  />
</g>
<g id="a1_0030"  >
<polygon points="488,85 493,80 510,80 510,90 493,90 488,85 " style="fill:#cdd815; stroke-width:1; stroke:black; " description="&lt;b&gt;PspR84_RS02335&lt;/b&gt;&lt;br&gt;FAD-dependent oxidoreductase&lt;br&gt;Location: 513995 - 512577&lt;br&gt;&lt;br&gt;&lt;b&gt;BlastP hit with MCIC6FC_003083&lt;/b&gt;&lt;br&gt;Percentage identity: 99&lt;br&gt;Percentage coverage: 100&lt;br&gt;BLAST bit score: 960&lt;br&gt;E-value: 8.8e-278" locus_tag="PspR84_RS02335" class="clusterblast-orf" id="dummy-1_h1_5_30"  />
</g>
<g id="a1_0031"  >
<polygon points="512,85 517,80 580,80 580,90 517,90 512,85 " style="fill:#15d8b6; stroke-width:1; stroke:black; " description="&lt;b&gt;PspR84_RS02330&lt;/b&gt;&lt;br&gt;glutamate synthase large subunit&lt;br&gt;Location: 512450 - 508005&lt;br&gt;&lt;br&gt;&lt;b&gt;BlastP hit with MCIC6FC_003084&lt;/b&gt;&lt;br&gt;Percentage identity: 96&lt;br&gt;Percentage coverage: 75&lt;br&gt;BLAST bit score: 2742&lt;br&gt;E-value: 0.0" locus_tag="PspR84_RS02330" class="clusterblast-orf" id="dummy-1_h1_5_31"  />
</g>
<g id="a1_0032"  >
<polygon points="585,85 590,80 610,80 610,90 590,90 585,85 " style="fill:#15d8b6; stroke-width:1; stroke:black; " description="&lt;b&gt;PspR84_RS02325&lt;/b&gt;&lt;br&gt;SPOR domain-containing protein&lt;br&gt;Location: 507655 - 506063&lt;br&gt;&lt;br&gt;&lt;b&gt;BlastP hit with MCIC6FC_003084&lt;/b&gt;&lt;br&gt;Percentage identity: 82&lt;br&gt;Percentage coverage: 26&lt;br&gt;BLAST bit score: 652&lt;br&gt;E-value: 1.3e-184" locus_tag="PspR84_RS02325" class="clusterblast-orf" id="dummy-1_h1_5_32"  />
</g>
<g id="a1_0033"  >
<polygon points="610,85 615,80 627,80 627,90 615,90 610,85 " style="fill:#4315d8; stroke-width:1; stroke:black; " description="&lt;b&gt;PspR84_RS02320&lt;/b&gt;&lt;br&gt;3-dehydroquinate synthase&lt;br&gt;Location: 506052 - 504952&lt;br&gt;&lt;br&gt;&lt;b&gt;BlastP hit with MCIC6FC_003085&lt;/b&gt;&lt;br&gt;Percentage identity: 94&lt;br&gt;Percentage coverage: 93&lt;br&gt;BLAST bit score: 691&lt;br&gt;E-value: 3.7e-197" locus_tag="PspR84_RS02320" class="clusterblast-orf" id="dummy-1_h1_5_33"  />
</g>
<g id="a1_0034"  >
<polygon points="629,85 634,80 637,80 637,90 634,90 629,85 " style="fill:#d8155a; stroke-width:1; stroke:black; " description="&lt;b&gt;PspR84_RS02315&lt;/b&gt;&lt;br&gt;shikimate kinase AroK&lt;br&gt;Location: 504799 - 504281&lt;br&gt;&lt;br&gt;&lt;b&gt;BlastP hit with MCIC6FC_003086&lt;/b&gt;&lt;br&gt;Percentage identity: 89&lt;br&gt;Percentage coverage: 21&lt;br&gt;BLAST bit score: 273&lt;br&gt;E-value: 7.6e-71" locus_tag="PspR84_RS02315" class="clusterblast-orf" id="dummy-1_h1_5_34"  />
</g>
<g id="a1_0035"  >
<polygon points="637,85 642,80 669,80 669,90 642,90 637,85 " style="fill:#d8155a; stroke-width:1; stroke:black; " description="&lt;b&gt;PspR84_RS02310&lt;/b&gt;&lt;br&gt;type IV pilus secretin PilQ&lt;br&gt;Location: 504276 - 502195&lt;br&gt;&lt;br&gt;&lt;b&gt;BlastP hit with MCIC6FC_003086&lt;/b&gt;&lt;br&gt;Percentage identity: 81&lt;br&gt;Percentage coverage: 79&lt;br&gt;BLAST bit score: 859&lt;br&gt;E-value: 3.2e-247" locus_tag="PspR84_RS02310" class="clusterblast-orf" id="dummy-1_h1_5_35"  />
</g>
<g id="a1_0036"  >
<polygon points="669,85 674,80 677,80 677,90 674,90 669,85 " style="fill:#88d815; stroke-width:1; stroke:black; " description="&lt;b&gt;PspR84_RS02305&lt;/b&gt;&lt;br&gt;pilus assembly protein PilP&lt;br&gt;Location: 502181 - 501654&lt;br&gt;&lt;br&gt;&lt;b&gt;BlastP hit with MCIC6FC_003087&lt;/b&gt;&lt;br&gt;Percentage identity: 67&lt;br&gt;Percentage coverage: 18&lt;br&gt;BLAST bit score: 225&lt;br&gt;E-value: 1.7e-56" locus_tag="PspR84_RS02305" class="clusterblast-orf" id="dummy-1_h1_5_36"  />
</g>
<g id="a1_0037"  >
<polygon points="677,85 682,80 687,80 687,90 682,90 677,85 " style="fill:#88d815; stroke-width:1; stroke:black; " description="&lt;b&gt;PspR84_RS02300&lt;/b&gt;&lt;br&gt;type 4a pilus biogenesis protein PilO&lt;br&gt;Location: 501657 - 501034&lt;br&gt;&lt;br&gt;&lt;b&gt;BlastP hit with MCIC6FC_003087&lt;/b&gt;&lt;br&gt;Percentage identity: 64&lt;br&gt;Percentage coverage: 22&lt;br&gt;BLAST bit score: 236&lt;br&gt;E-value: 9.4e-60" locus_tag="PspR84_RS02300" class="clusterblast-orf" id="dummy-1_h1_5_37"  />
</g>
<g id="a1_0038"  >
<polygon points="687,85 692,80 695,80 695,90 692,90 687,85 " style="fill:#88d815; stroke-width:1; stroke:black; " description="&lt;b&gt;PspR84_RS02295&lt;/b&gt;&lt;br&gt;PilN domain-containing protein&lt;br&gt;Location: 501037 - 500471&lt;br&gt;&lt;br&gt;&lt;b&gt;BlastP hit with MCIC6FC_003087&lt;/b&gt;&lt;br&gt;Percentage identity: 58&lt;br&gt;Percentage coverage: 21&lt;br&gt;BLAST bit score: 195&lt;br&gt;E-value: 3.1e-47" locus_tag="PspR84_RS02295" class="clusterblast-orf" id="dummy-1_h1_5_38"  />
</g>
<g id="a1_0039"  >
<polygon points="695,85 700,80 712,80 712,90 700,90 695,85 " style="fill:#88d815; stroke-width:1; stroke:black; " description="&lt;b&gt;PspR84_RS02290&lt;/b&gt;&lt;br&gt;type IV pilus assembly protein PilM&lt;br&gt;Location: 500471 - 499407&lt;br&gt;&lt;br&gt;&lt;b&gt;BlastP hit with MCIC6FC_003087&lt;/b&gt;&lt;br&gt;Percentage identity: 53&lt;br&gt;Percentage coverage: 38&lt;br&gt;BLAST bit score: 311&lt;br&gt;E-value: 2.3e-82" locus_tag="PspR84_RS02290" class="clusterblast-orf" id="dummy-1_h1_5_39"  />
</g>
</svg>
