<svg xmlns="http://www.w3.org/2000/svg" xmlns:xlink="http://www.w3.org/1999/xlink" version="1.1" x="0" y="0" height="230" width="800" viewBox="0 0 800 230" preserveAspectRatio="none"  >
<g label="Query sequence" class="clusterblast-cluster"  >
<text x="5" y="20" class="clusterblast-acc"  >
Query sequence</text>
<line x1="10" y1="35" x2="778.0" y2="35" style="stroke-width:1; stroke:grey; "  />
<polygon points="251,35 256,30 300,30 300,40 256,40 251,35 " style="fill:white; stroke-width:1; stroke:black; " description="&lt;b&gt;MCIC6FC_014722&lt;/b&gt;&lt;br&gt;hypothetical protein&lt;br&gt;Location: 233376 - 236576" locus_tag="MCIC6FC_014722" class="clusterblast-orf" id="dummy-1_q0_0_all"  />
<polygon points="300,35 305,30 312,30 312,40 305,40 300,35 " style="fill:white; stroke-width:1; stroke:black; " description="&lt;b&gt;MCIC6FC_014723&lt;/b&gt;&lt;br&gt;hypothetical protein&lt;br&gt;Location: 236600 - 237359" locus_tag="MCIC6FC_014723" class="clusterblast-orf" id="dummy-1_q1_0_all"  />
<polygon points="322,35 327,30 369,30 369,40 327,40 322,35 " style="fill:#d81515; stroke-width:1; stroke:black; " description="&lt;b&gt;MCIC6FC_014724&lt;/b&gt;&lt;br&gt;hypothetical protein&lt;br&gt;Location: 238014 - 241095" locus_tag="MCIC6FC_014724" class="clusterblast-orf" id="dummy-1_q2_0_all"  />
<polygon points="369,35 374,30 399,30 399,40 374,40 369,35 " style="fill:#d81515; stroke-width:1; stroke:black; " description="&lt;b&gt;MCIC6FC_014725&lt;/b&gt;&lt;br&gt;hypothetical protein&lt;br&gt;Location: 241149 - 243066" locus_tag="MCIC6FC_014725" class="clusterblast-orf" id="dummy-1_q3_0_all"  />
<polygon points="399,35 404,30 515,30 515,40 404,40 399,35 " style="fill:#15d8d8; stroke-width:1; stroke:black; " description="&lt;b&gt;MCIC6FC_014726&lt;/b&gt;&lt;br&gt;hypothetical protein&lt;br&gt;Location: 243089 - 250669" locus_tag="MCIC6FC_014726" class="clusterblast-orf" id="dummy-1_q4_0_all"  />
<polygon points="518,35 523,30 528,30 528,40 523,40 518,35 " style="fill:white; stroke-width:1; stroke:black; " description="&lt;b&gt;MCIC6FC_014727&lt;/b&gt;&lt;br&gt;hypothetical protein&lt;br&gt;Location: 250848 - 251563" locus_tag="MCIC6FC_014727" class="clusterblast-orf" id="dummy-1_q5_0_all"  />
</g>
<g label="NZ_CP020588" description="NZ_CP020588 (1584832-1635928): Acinetobacter nosocomialis strain SSA3 chromos... (12% of genes show similarity), NRPS" class="clusterblast-cluster"  >
<text x="5" y="70" class="clusterblast-acc"  >
<a xlink:href="https://antismash-db.secondarymetabolites.org/area.html?record=NZ_CP020588&amp;start=1584832&amp;end=1635928" target="_blank">NZ_CP020588 (1584832-1635928)</a>: Acinetobacter nosocomialis strain SSA3 chromos... (12% of genes show similarity), NRPS</text>
<line x1="10" y1="85" x2="778.0" y2="85" style="stroke-width:1; stroke:grey; "  />
</g>
<g id="a1_000"  >
<polygon points="0,90 18,90 23,85 18,80 0,80 0,90 " style="fill:white; stroke-width:1; stroke:black; " description="&lt;b&gt;B7L44_RS08175&lt;/b&gt;&lt;br&gt;phospholipase D family protein&lt;br&gt;Location: 1635928 - 1634369" locus_tag="B7L44_RS08175" class="clusterblast-orf" id="dummy-1_h1_10_0"  />
</g>
<g id="a1_001"  >
<polygon points="23,85 28,80 32,80 32,90 28,90 23,85 " style="fill:white; stroke-width:1; stroke:black; " description="&lt;b&gt;B7L44_RS08170&lt;/b&gt;&lt;br&gt;uracil-DNA glycosylase family protein&lt;br&gt;Location: 1634359 - 1633772" locus_tag="B7L44_RS08170" class="clusterblast-orf" id="dummy-1_h1_10_1"  />
</g>
<g id="a1_002"  >
<polygon points="35,85 39,80 39,90 35,85 " style="fill:white; stroke-width:1; stroke:black; " description="&lt;b&gt;B7L44_RS08165&lt;/b&gt;&lt;br&gt;hypothetical protein&lt;br&gt;Location: 1633608 - 1633372" locus_tag="B7L44_RS08165" class="clusterblast-orf" id="dummy-1_h1_10_2"  />
</g>
<g id="a1_003"  >
<polygon points="42,85 45,80 45,90 42,85 " style="fill:white; stroke-width:1; stroke:black; " description="&lt;b&gt;B7L44_RS08160&lt;/b&gt;&lt;br&gt;hypothetical protein&lt;br&gt;Location: 1633119 - 1632943" locus_tag="B7L44_RS08160" class="clusterblast-orf" id="dummy-1_h1_10_3"  />
</g>
<g id="a1_004"  >
<polygon points="54,85 59,80 70,80 70,90 59,90 54,85 " style="fill:#15d8d8; stroke-width:1; stroke:black; " description="&lt;b&gt;B7L44_RS08155&lt;/b&gt;&lt;br&gt;dipeptidase&lt;br&gt;Location: 1632363 - 1631311&lt;br&gt;&lt;br&gt;&lt;b&gt;BlastP hit with MCIC6FC_014726&lt;/b&gt;&lt;br&gt;Percentage identity: 35&lt;br&gt;Percentage coverage: 18&lt;br&gt;BLAST bit score: 173&lt;br&gt;E-value: 2.1e-40" locus_tag="B7L44_RS08155" class="clusterblast-orf" id="dummy-1_h1_10_4"  />
</g>
<g id="a1_005"  >
<polygon points="70,85 75,80 88,80 88,90 75,90 70,85 " style="fill:#d81515; stroke-width:1; stroke:black; " description="&lt;b&gt;B7L44_RS08150&lt;/b&gt;&lt;br&gt;pyrroloquinoline quinone biosynthesis protein PqqE&lt;br&gt;Location: 1631294 - 1630140&lt;br&gt;&lt;br&gt;&lt;b&gt;BlastP hit with MCIC6FC_014724&lt;/b&gt;&lt;br&gt;Percentage identity: 52&lt;br&gt;Percentage coverage: 25&lt;br&gt;BLAST bit score: 222&lt;br&gt;E-value: 1.8e-55&lt;br&gt;&lt;br&gt;&lt;b&gt;BlastP hit with MCIC6FC_014725&lt;/b&gt;&lt;br&gt;Percentage identity: 73&lt;br&gt;Percentage coverage: 19&lt;br&gt;BLAST bit score: 180&lt;br&gt;E-value: 4e-43" locus_tag="B7L44_RS08150" class="clusterblast-orf" id="dummy-1_h1_10_5"  />
</g>
<g id="a1_006"  >
<polygon points="88,85 92,80 92,90 88,85 " style="fill:#d81515; stroke-width:1; stroke:black; " description="&lt;b&gt;B7L44_RS08145&lt;/b&gt;&lt;br&gt;pyrroloquinoline quinone biosynthesis peptide chaperone PqqD&lt;br&gt;Location: 1630143 - 1629859&lt;br&gt;&lt;br&gt;&lt;b&gt;BlastP hit with MCIC6FC_014725&lt;/b&gt;&lt;br&gt;Percentage identity: 45&lt;br&gt;Percentage coverage: 11&lt;br&gt;BLAST bit score: 64&lt;br&gt;E-value: 4.2e-08" locus_tag="B7L44_RS08145" class="clusterblast-orf" id="dummy-1_h1_10_6"  />
</g>
<g id="a1_007"  >
<polygon points="92,85 97,80 104,80 104,90 97,90 92,85 " style="fill:#d81515; stroke-width:1; stroke:black; " description="&lt;b&gt;B7L44_RS08140&lt;/b&gt;&lt;br&gt;pyrroloquinoline-quinone synthase PqqC&lt;br&gt;Location: 1629862 - 1629104&lt;br&gt;&lt;br&gt;&lt;b&gt;BlastP hit with MCIC6FC_014725&lt;/b&gt;&lt;br&gt;Percentage identity: 64&lt;br&gt;Percentage coverage: 43&lt;br&gt;BLAST bit score: 324&lt;br&gt;E-value: 2.9e-86" locus_tag="B7L44_RS08140" class="clusterblast-orf" id="dummy-1_h1_10_7"  />
</g>
<g id="a1_008"  >
<polygon points="104,85 109,80 118,80 118,90 109,90 104,85 " style="fill:#d81515; stroke-width:1; stroke:black; " description="&lt;b&gt;B7L44_RS08135&lt;/b&gt;&lt;br&gt;pyrroloquinoline quinone biosynthesis protein PqqB&lt;br&gt;Location: 1629095 - 1628184&lt;br&gt;&lt;br&gt;&lt;b&gt;BlastP hit with MCIC6FC_014725&lt;/b&gt;&lt;br&gt;Percentage identity: 52&lt;br&gt;Percentage coverage: 21&lt;br&gt;BLAST bit score: 134&lt;br&gt;E-value: 4.3e-29" locus_tag="B7L44_RS08135" class="clusterblast-orf" id="dummy-1_h1_10_8"  />
</g>
<g id="a1_009"  >
<polygon points="119,85 120,80 120,90 119,85 " style="fill:white; stroke-width:1; stroke:black; " description="&lt;b&gt;B7L44_RS08130&lt;/b&gt;&lt;br&gt;pyrroloquinoline quinone precursor peptide PqqA&lt;br&gt;Location: 1628108 - 1628034" locus_tag="B7L44_RS08130" class="clusterblast-orf" id="dummy-1_h1_10_9"  />
</g>
<g id="a1_0010"  >
<polygon points="123,85 128,80 155,80 155,90 128,90 123,85 " style="fill:white; stroke-width:1; stroke:black; " description="&lt;b&gt;B7L44_RS08125&lt;/b&gt;&lt;br&gt;polyphosphate kinase 1&lt;br&gt;Location: 1627810 - 1625735" locus_tag="B7L44_RS08125" class="clusterblast-orf" id="dummy-1_h1_10_10"  />
</g>
<g id="a1_0011"  >
<polygon points="160,90 182,90 187,85 182,80 160,80 160,90 " style="fill:white; stroke-width:1; stroke:black; " description="&lt;b&gt;B7L44_RS08120&lt;/b&gt;&lt;br&gt;bifunctional metallophosphatase/5'-nucleotidase&lt;br&gt;Location: 1625427 - 1623646" locus_tag="B7L44_RS08120" class="clusterblast-orf" id="dummy-1_h1_10_11"  />
</g>
<g id="a1_0012"  >
<polygon points="188,85 193,80 194,80 194,90 193,90 188,85 " style="fill:white; stroke-width:1; stroke:black; " description="&lt;b&gt;B7L44_RS08115&lt;/b&gt;&lt;br&gt;transcriptional repressor&lt;br&gt;Location: 1623573 - 1623172" locus_tag="B7L44_RS08115" class="clusterblast-orf" id="dummy-1_h1_10_12"  />
</g>
<g id="a1_0013"  >
<polygon points="196,85 201,80 226,80 226,90 201,90 196,85 " style="fill:white; stroke-width:1; stroke:black; " description="&lt;b&gt;B7L44_RS08110&lt;/b&gt;&lt;br&gt;TonB-dependent receptor&lt;br&gt;Location: 1623035 - 1621074" locus_tag="B7L44_RS08110" class="clusterblast-orf" id="dummy-1_h1_10_13"  />
</g>
<g id="a1_0014"  >
<polygon points="230,90 272,90 277,85 272,80 230,80 230,90 " style="fill:white; stroke-width:1; stroke:black; " description="&lt;b&gt;B7L44_RS08105&lt;/b&gt;&lt;br&gt;multidrug efflux RND transporter permease subunit&lt;br&gt;Location: 1620856 - 1617722" locus_tag="B7L44_RS08105" class="clusterblast-orf" id="dummy-1_h1_10_14"  />
</g>
<g id="a1_0015"  >
<polygon points="278,85 283,80 291,80 291,90 283,90 278,85 " style="fill:white; stroke-width:1; stroke:black; " description="&lt;b&gt;B7L44_RS08100&lt;/b&gt;&lt;br&gt;isochorismatase&lt;br&gt;Location: 1617676 - 1616807" locus_tag="B7L44_RS08100" class="clusterblast-orf" id="dummy-1_h1_10_15"  />
</g>
<g id="a1_0016"  >
<polygon points="292,85 297,80 317,80 317,90 297,90 292,85 " style="fill:white; stroke-width:1; stroke:black; " description="&lt;b&gt;B7L44_RS08095&lt;/b&gt;&lt;br&gt;AMP-binding protein&lt;br&gt;Location: 1616786 - 1615122" locus_tag="B7L44_RS08095" class="clusterblast-orf" id="dummy-1_h1_10_16"  />
</g>
<g id="a1_0017"  >
<polygon points="317,85 322,80 336,80 336,90 322,90 317,85 " style="fill:white; stroke-width:1; stroke:black; " description="&lt;b&gt;B7L44_RS08090&lt;/b&gt;&lt;br&gt;isochorismate synthase&lt;br&gt;Location: 1615110 - 1613887" locus_tag="B7L44_RS08090" class="clusterblast-orf" id="dummy-1_h1_10_17"  />
</g>
<g id="a1_0018"  >
<polygon points="337,85 342,80 348,80 348,90 342,90 337,85 " style="fill:white; stroke-width:1; stroke:black; " description="&lt;b&gt;B7L44_RS08085&lt;/b&gt;&lt;br&gt;SDR family oxidoreductase&lt;br&gt;Location: 1613842 - 1613072" locus_tag="B7L44_RS08085" class="clusterblast-orf" id="dummy-1_h1_10_18"  />
</g>
<g id="a1_0019"  >
<polygon points="352,90 366,90 371,85 366,80 352,80 352,90 " style="fill:white; stroke-width:1; stroke:black; " description="&lt;b&gt;B7L44_RS08080&lt;/b&gt;&lt;br&gt;enterochelin esterase&lt;br&gt;Location: 1612806 - 1611607" locus_tag="B7L44_RS08080" class="clusterblast-orf" id="dummy-1_h1_10_19"  />
</g>
<g id="a1_0020"  >
<polygon points="371,90 375,85 371,80 371,90 " style="fill:white; stroke-width:1; stroke:black; " description="&lt;b&gt;B7L44_RS08075&lt;/b&gt;&lt;br&gt;MbtH family protein&lt;br&gt;Location: 1611577 - 1611362" locus_tag="B7L44_RS08075" class="clusterblast-orf" id="dummy-1_h1_10_20"  />
</g>
<g id="a1_0021"  >
<polygon points="375,90 479,90 484,85 479,80 375,80 375,90 " style="fill:white; stroke-width:1; stroke:black; " description="&lt;b&gt;B7L44_RS08070&lt;/b&gt;&lt;br&gt;non-ribosomal peptide synthetase&lt;br&gt;Location: 1611349 - 1604198" locus_tag="B7L44_RS08070" class="clusterblast-orf" id="dummy-1_h1_10_21"  />
</g>
<g id="a1_0022"  >
<polygon points="484,90 498,90 503,85 498,80 484,80 484,90 " style="fill:white; stroke-width:1; stroke:black; " description="&lt;b&gt;B7L44_RS08065&lt;/b&gt;&lt;br&gt;enterobactin transporter EntS&lt;br&gt;Location: 1604201 - 1602951" locus_tag="B7L44_RS08065" class="clusterblast-orf" id="dummy-1_h1_10_22"  />
</g>
<g id="a1_0023"  >
<polygon points="504,85 509,80 515,80 515,90 509,90 504,85 " style="fill:white; stroke-width:1; stroke:black; " description="&lt;b&gt;B7L44_RS08060&lt;/b&gt;&lt;br&gt;4'-phosphopantetheinyl transferase superfamily protein&lt;br&gt;Location: 1602908 - 1602177" locus_tag="B7L44_RS08060" class="clusterblast-orf" id="dummy-1_h1_10_23"  />
</g>
<g id="a1_0024"  >
<polygon points="521,90 525,85 521,80 521,90 " style="fill:white; stroke-width:1; stroke:black; " description="&lt;b&gt;B7L44_RS08050&lt;/b&gt;&lt;br&gt;hypothetical protein&lt;br&gt;Location: 1601763 - 1601473" locus_tag="B7L44_RS08050" class="clusterblast-orf" id="dummy-1_h1_10_24"  />
</g>
<g id="a1_0025"  >
<polygon points="526,90 545,90 550,85 545,80 526,80 526,90 " style="fill:white; stroke-width:1; stroke:black; " description="&lt;b&gt;B7L44_RS08045&lt;/b&gt;&lt;br&gt;PepSY domain-containing protein&lt;br&gt;Location: 1601470 - 1599866" locus_tag="B7L44_RS08045" class="clusterblast-orf" id="dummy-1_h1_10_25"  />
</g>
<g id="a1_0026"  >
<polygon points="551,85 556,80 560,80 560,90 556,90 551,85 " style="fill:white; stroke-width:1; stroke:black; " description="&lt;b&gt;B7L44_RS08040&lt;/b&gt;&lt;br&gt;ATP-binding cassette domain-containing protein&lt;br&gt;Location: 1599822 - 1599202" locus_tag="B7L44_RS08040" class="clusterblast-orf" id="dummy-1_h1_10_26"  />
</g>
<g id="a1_0027"  >
<polygon points="560,85 565,80 571,80 571,90 565,90 560,85 " style="fill:white; stroke-width:1; stroke:black; " description="&lt;b&gt;B7L44_RS08035&lt;/b&gt;&lt;br&gt;molybdate ABC transporter permease subunit&lt;br&gt;Location: 1599197 - 1598505" locus_tag="B7L44_RS08035" class="clusterblast-orf" id="dummy-1_h1_10_27"  />
</g>
<g id="a1_0028"  >
<polygon points="571,85 576,80 583,80 583,90 576,90 571,85 " style="fill:white; stroke-width:1; stroke:black; " description="&lt;b&gt;B7L44_RS08030&lt;/b&gt;&lt;br&gt;molybdate ABC transporter substrate-binding protein&lt;br&gt;Location: 1598508 - 1597723" locus_tag="B7L44_RS08030" class="clusterblast-orf" id="dummy-1_h1_10_28"  />
</g>
<g id="a1_0029"  >
<polygon points="585,85 590,80 591,80 591,90 590,90 585,85 " style="fill:white; stroke-width:1; stroke:black; " description="&lt;b&gt;B7L44_RS08025&lt;/b&gt;&lt;br&gt;LysR family transcriptional regulator&lt;br&gt;Location: 1597542 - 1597192" locus_tag="B7L44_RS08025" class="clusterblast-orf" id="dummy-1_h1_10_29"  />
</g>
<g id="a1_0030"  >
<polygon points="594,90 611,90 616,85 611,80 594,80 594,90 " style="fill:white; stroke-width:1; stroke:black; " description="&lt;b&gt;B7L44_RS08020&lt;/b&gt;&lt;br&gt;anthranilate 1,2-dioxygenase large subunit&lt;br&gt;Location: 1596969 - 1595554" locus_tag="B7L44_RS08020" class="clusterblast-orf" id="dummy-1_h1_10_30"  />
</g>
<g id="a1_0031"  >
<polygon points="616,90 618,90 623,85 618,80 616,80 616,90 " style="fill:white; stroke-width:1; stroke:black; " description="&lt;b&gt;B7L44_RS08015&lt;/b&gt;&lt;br&gt;anthranilate 1,2-dioxygenase small subunit&lt;br&gt;Location: 1595551 - 1595060" locus_tag="B7L44_RS08015" class="clusterblast-orf" id="dummy-1_h1_10_31"  />
</g>
<g id="a1_0032"  >
<polygon points="623,90 634,90 639,85 634,80 623,80 623,90 " style="fill:white; stroke-width:1; stroke:black; " description="&lt;b&gt;B7L44_RS08010&lt;/b&gt;&lt;br&gt;anthranilate 1,2-dioxygenase electron transfer component AntC&lt;br&gt;Location: 1595054 - 1594020" locus_tag="B7L44_RS08010" class="clusterblast-orf" id="dummy-1_h1_10_32"  />
</g>
<g id="a1_0033"  >
<polygon points="646,90 657,90 662,85 657,80 646,80 646,90 " style="fill:white; stroke-width:1; stroke:black; " description="&lt;b&gt;B7L44_RS08005&lt;/b&gt;&lt;br&gt;AraC family transcriptional regulator&lt;br&gt;Location: 1593570 - 1592512" locus_tag="B7L44_RS08005" class="clusterblast-orf" id="dummy-1_h1_10_33"  />
</g>
<g id="a1_0034"  >
<polygon points="663,85 668,80 678,80 678,90 668,90 663,85 " style="fill:white; stroke-width:1; stroke:black; " description="&lt;b&gt;B7L44_RS08000&lt;/b&gt;&lt;br&gt;transporter&lt;br&gt;Location: 1592453 - 1591503" locus_tag="B7L44_RS08000" class="clusterblast-orf" id="dummy-1_h1_10_34"  />
</g>
<g id="a1_0035"  >
<polygon points="679,85 684,80 687,80 687,90 684,90 679,85 " style="fill:white; stroke-width:1; stroke:black; " description="&lt;b&gt;B7L44_RS07995&lt;/b&gt;&lt;br&gt;flavin reductase family protein&lt;br&gt;Location: 1591449 - 1590919" locus_tag="B7L44_RS07995" class="clusterblast-orf" id="dummy-1_h1_10_35"  />
</g>
<g id="a1_0036"  >
<polygon points="687,85 692,80 706,80 706,90 692,90 687,85 " style="fill:white; stroke-width:1; stroke:black; " description="&lt;b&gt;B7L44_RS07990&lt;/b&gt;&lt;br&gt;alanine-phosphoribitol ligase&lt;br&gt;Location: 1590890 - 1589640" locus_tag="B7L44_RS07990" class="clusterblast-orf" id="dummy-1_h1_10_36"  />
</g>
<g id="a1_0037"  >
<polygon points="707,85 712,80 719,80 719,90 712,90 707,85 " style="fill:white; stroke-width:1; stroke:black; " description="&lt;b&gt;B7L44_RS07985&lt;/b&gt;&lt;br&gt;SDR family oxidoreductase&lt;br&gt;Location: 1589608 - 1588823" locus_tag="B7L44_RS07985" class="clusterblast-orf" id="dummy-1_h1_10_37"  />
</g>
<g id="a1_0038"  >
<polygon points="719,85 724,80 738,80 738,90 724,90 719,85 " style="fill:white; stroke-width:1; stroke:black; " description="&lt;b&gt;B7L44_RS07980&lt;/b&gt;&lt;br&gt;dienelactone hydrolase family protein&lt;br&gt;Location: 1588810 - 1587560" locus_tag="B7L44_RS07980" class="clusterblast-orf" id="dummy-1_h1_10_38"  />
</g>
<g id="a1_0039"  >
<polygon points="743,90 758,90 763,85 758,80 743,80 743,90 " style="fill:white; stroke-width:1; stroke:black; " description="&lt;b&gt;B7L44_RS07975&lt;/b&gt;&lt;br&gt;MFS transporter&lt;br&gt;Location: 1587230 - 1585887" locus_tag="B7L44_RS07975" class="clusterblast-orf" id="dummy-1_h1_10_39"  />
</g>
<g id="a1_0040"  >
<polygon points="764,85 769,80 780,80 780,90 769,90 764,85 " style="fill:white; stroke-width:1; stroke:black; " description="&lt;b&gt;B7L44_RS07970&lt;/b&gt;&lt;br&gt;AraC family transcriptional regulator&lt;br&gt;Location: 1585819 - 1584833" locus_tag="B7L44_RS07970" class="clusterblast-orf" id="dummy-1_h1_10_40"  />
</g>
</svg>
