<svg xmlns="http://www.w3.org/2000/svg" xmlns:xlink="http://www.w3.org/1999/xlink" version="1.1" x="0" y="0" height="230" width="800" viewBox="0 0 800 230" preserveAspectRatio="none"  >
<g label="Query sequence" class="clusterblast-cluster"  >
<text x="5" y="20" class="clusterblast-acc"  >
Query sequence</text>
<line x1="10" y1="35" x2="778.0" y2="35" style="stroke-width:1; stroke:grey; "  />
<polygon points="0,35 5,30 66,30 66,40 5,40 0,35 " style="fill:#d81515; stroke-width:1; stroke:black; " description="&lt;b&gt;MCIC6FC_014517&lt;/b&gt;&lt;br&gt;hypothetical protein&lt;br&gt;Location: 5259 - 7449" locus_tag="MCIC6FC_014517" class="clusterblast-orf" id="dummy-1_q0_0_all"  />
<polygon points="101,40 123,40 128,35 123,30 101,30 101,40 " style="fill:#77d815; stroke-width:1; stroke:black; " description="&lt;b&gt;MCIC6FC_014518&lt;/b&gt;&lt;br&gt;hypothetical protein&lt;br&gt;Location: 8607 - 9502" locus_tag="MCIC6FC_014518" class="clusterblast-orf" id="dummy-1_q1_0_all"  />
<polygon points="130,40 646,40 651,35 646,30 130,30 130,40 " style="fill:#15d8d8; stroke-width:1; stroke:black; " description="&lt;b&gt;MCIC6FC_014519&lt;/b&gt;&lt;br&gt;hypothetical protein&lt;br&gt;Location: 9550 - 26794" locus_tag="MCIC6FC_014519" class="clusterblast-orf" id="dummy-1_q2_0_all"  />
<polygon points="651,40 672,40 677,35 672,30 651,30 651,40 " style="fill:white; stroke-width:1; stroke:black; " description="&lt;b&gt;MCIC6FC_014520&lt;/b&gt;&lt;br&gt;hypothetical protein&lt;br&gt;Location: 26814 - 27659" locus_tag="MCIC6FC_014520" class="clusterblast-orf" id="dummy-1_q3_0_all"  />
<polygon points="680,35 685,30 780,30 780,40 685,40 680,35 " style="fill:#7715d8; stroke-width:1; stroke:black; " description="&lt;b&gt;MCIC6FC_014521&lt;/b&gt;&lt;br&gt;hypothetical protein&lt;br&gt;Location: 27774 - 31064" locus_tag="MCIC6FC_014521" class="clusterblast-orf" id="dummy-1_q4_0_all"  />
</g>
<g label="NC_005126" description="NC_005126 (5380533-5405194): Photorhabdus laumondii subsp. laumondii TTO1, co... (15% of genes show similarity), siderophore" class="clusterblast-cluster"  >
<text x="5" y="70" class="clusterblast-acc"  >
<a xlink:href="https://antismash-db.secondarymetabolites.org/area.html?record=NC_005126&amp;start=5380533&amp;end=5405194" target="_blank">NC_005126 (5380533-5405194)</a>: Photorhabdus laumondii subsp. laumondii TTO1, co... (15% of genes show similarity), siderophore</text>
<line x1="10" y1="85" x2="778.0" y2="85" style="stroke-width:1; stroke:grey; "  />
</g>
<g id="a1_000"  >
<polygon points="37,85 42,80 51,80 51,90 42,90 37,85 " style="fill:white; stroke-width:1; stroke:black; " description="&lt;b&gt;PLU_RS22815&lt;/b&gt;&lt;br&gt;IS200/IS605-like element ISPlu5 family transposase&lt;br&gt;Location: 5380767 - 5381222" locus_tag="PLU_RS22815" class="clusterblast-orf" id="dummy-1_h1_4_0"  />
</g>
<g id="a1_001"  >
<polygon points="57,85 62,80 81,80 81,90 62,90 57,85 " style="fill:white; stroke-width:1; stroke:black; " description="&lt;b&gt;PLU_RS22820&lt;/b&gt;&lt;br&gt;sugar/pyridoxal phosphate phosphatase YigL&lt;br&gt;Location: 5381423 - 5382223" locus_tag="PLU_RS22820" class="clusterblast-orf" id="dummy-1_h1_4_1"  />
</g>
<g id="a1_002"  >
<polygon points="82,85 87,80 112,80 112,90 87,90 82,85 " style="fill:white; stroke-width:1; stroke:black; " description="&lt;b&gt;PLU_RS22825&lt;/b&gt;&lt;br&gt;lysophospholipase L2&lt;br&gt;Location: 5382246 - 5383244" locus_tag="PLU_RS22825" class="clusterblast-orf" id="dummy-1_h1_4_2"  />
</g>
<g id="a1_003"  >
<polygon points="113,85 118,80 168,80 168,90 118,90 113,85 " style="fill:white; stroke-width:1; stroke:black; " description="&lt;b&gt;PLU_RS22830&lt;/b&gt;&lt;br&gt;ATP-dependent DNA helicase RecQ&lt;br&gt;Location: 5383259 - 5385085" locus_tag="PLU_RS22830" class="clusterblast-orf" id="dummy-1_h1_4_3"  />
</g>
<g id="a1_004"  >
<polygon points="181,90 232,90 237,85 232,80 181,80 181,90 " style="fill:#15d8d8; stroke-width:1; stroke:black; " description="&lt;b&gt;PLU_RS22835&lt;/b&gt;&lt;br&gt;IucA/IucC family siderophore biosynthesis protein&lt;br&gt;Location: 5385534 - 5387357&lt;br&gt;&lt;br&gt;&lt;b&gt;BlastP hit with MCIC6FC_014519&lt;/b&gt;&lt;br&gt;Percentage identity: 54&lt;br&gt;Percentage coverage: 11&lt;br&gt;BLAST bit score: 639&lt;br&gt;E-value: 2.2e-180" locus_tag="PLU_RS22835" class="clusterblast-orf" id="dummy-1_h1_4_4"  />
</g>
<g id="a1_005"  >
<polygon points="241,90 301,90 306,85 301,80 241,80 241,90 " style="fill:#7715d8; stroke-width:1; stroke:black; " description="&lt;b&gt;PLU_RS22840&lt;/b&gt;&lt;br&gt;TonB-dependent siderophore receptor&lt;br&gt;Location: 5387498 - 5389651&lt;br&gt;&lt;br&gt;&lt;b&gt;BlastP hit with MCIC6FC_014521&lt;/b&gt;&lt;br&gt;Percentage identity: 39&lt;br&gt;Percentage coverage: 70&lt;br&gt;BLAST bit score: 460&lt;br&gt;E-value: 3.4e-127" locus_tag="PLU_RS22840" class="clusterblast-orf" id="dummy-1_h1_4_5"  />
</g>
<g id="a1_006"  >
<polygon points="308,90 334,90 339,85 334,80 308,80 308,90 " style="fill:white; stroke-width:1; stroke:black; " description="&lt;b&gt;PLU_RS22845&lt;/b&gt;&lt;br&gt;iron-siderophore ABC transporter substrate-binding protein&lt;br&gt;Location: 5389720 - 5390736" locus_tag="PLU_RS22845" class="clusterblast-orf" id="dummy-1_h1_4_6"  />
</g>
<g id="a1_007"  >
<polygon points="339,90 364,90 369,85 364,80 339,80 339,90 " style="fill:white; stroke-width:1; stroke:black; " description="&lt;b&gt;PLU_RS22850&lt;/b&gt;&lt;br&gt;iron ABC transporter permease&lt;br&gt;Location: 5390733 - 5391746" locus_tag="PLU_RS22850" class="clusterblast-orf" id="dummy-1_h1_4_7"  />
</g>
<g id="a1_008"  >
<polygon points="369,90 396,90 401,85 396,80 369,80 369,90 " style="fill:white; stroke-width:1; stroke:black; " description="&lt;b&gt;PLU_RS22855&lt;/b&gt;&lt;br&gt;iron chelate uptake ABC transporter family permease subunit&lt;br&gt;Location: 5391733 - 5392791" locus_tag="PLU_RS22855" class="clusterblast-orf" id="dummy-1_h1_4_8"  />
</g>
<g id="a1_009"  >
<polygon points="400,90 420,90 425,85 420,80 400,80 400,90 " style="fill:white; stroke-width:1; stroke:black; " description="&lt;b&gt;PLU_RS22860&lt;/b&gt;&lt;br&gt;ABC transporter ATP-binding protein&lt;br&gt;Location: 5392776 - 5393588" locus_tag="PLU_RS22860" class="clusterblast-orf" id="dummy-1_h1_4_9"  />
</g>
<g id="a1_0010"  >
<polygon points="430,90 449,90 454,85 449,80 430,80 430,90 " style="fill:white; stroke-width:1; stroke:black; " description="&lt;b&gt;PLU_RS22865&lt;/b&gt;&lt;br&gt;siderophore-iron reductase FhuF&lt;br&gt;Location: 5393766 - 5394542" locus_tag="PLU_RS22865" class="clusterblast-orf" id="dummy-1_h1_4_10"  />
</g>
<g id="a1_0011"  >
<polygon points="465,90 506,90 511,85 506,80 465,80 465,90 " style="fill:white; stroke-width:1; stroke:black; " description="&lt;b&gt;PLU_RS22870&lt;/b&gt;&lt;br&gt;decarboxylase&lt;br&gt;Location: 5394901 - 5396445" locus_tag="PLU_RS22870" class="clusterblast-orf" id="dummy-1_h1_4_11"  />
</g>
<g id="a1_0012"  >
<polygon points="512,90 547,90 552,85 547,80 512,80 512,90 " style="fill:white; stroke-width:1; stroke:black; " description="&lt;b&gt;PLU_RS22875&lt;/b&gt;&lt;br&gt;lysine N(6)-hydroxylase/L-ornithine N(5)-oxygenase family protein&lt;br&gt;Location: 5396476 - 5397777" locus_tag="PLU_RS22875" class="clusterblast-orf" id="dummy-1_h1_4_12"  />
</g>
<g id="a1_0013"  >
<polygon points="552,90 620,90 625,85 620,80 552,80 552,90 " style="fill:#15d8d8; stroke-width:1; stroke:black; " description="&lt;b&gt;PLU_RS22880&lt;/b&gt;&lt;br&gt;GNAT family N-acetyltransferase&lt;br&gt;Location: 5397777 - 5400194&lt;br&gt;&lt;br&gt;&lt;b&gt;BlastP hit with MCIC6FC_014519&lt;/b&gt;&lt;br&gt;Percentage identity: 55&lt;br&gt;Percentage coverage: 15&lt;br&gt;BLAST bit score: 872&lt;br&gt;E-value: 2.6e-250" locus_tag="PLU_RS22880" class="clusterblast-orf" id="dummy-1_h1_4_13"  />
</g>
<g id="a1_0014"  >
<polygon points="634,90 643,90 648,85 643,80 634,80 634,90 " style="fill:white; stroke-width:1; stroke:black; " description="&lt;b&gt;PLU_RS22885&lt;/b&gt;&lt;br&gt;thioesterase family protein&lt;br&gt;Location: 5400490 - 5400960" locus_tag="PLU_RS22885" class="clusterblast-orf" id="dummy-1_h1_4_14"  />
</g>
<g id="a1_0015"  >
<polygon points="651,90 673,90 678,85 673,80 651,80 651,90 " style="fill:white; stroke-width:1; stroke:black; " description="&lt;b&gt;PLU_RS22890&lt;/b&gt;&lt;br&gt;EamA family transporter RarD&lt;br&gt;Location: 5401072 - 5401962" locus_tag="PLU_RS22890" class="clusterblast-orf" id="dummy-1_h1_4_15"  />
</g>
<g id="a1_0016"  >
<polygon points="678,90 685,90 690,85 685,80 678,80 678,90 " style="fill:white; stroke-width:1; stroke:black; " description="&lt;b&gt;PLU_RS22895&lt;/b&gt;&lt;br&gt;GNAT family N-acetyltransferase&lt;br&gt;Location: 5401970 - 5402350" locus_tag="PLU_RS22895" class="clusterblast-orf" id="dummy-1_h1_4_16"  />
</g>
<g id="a1_0017"  >
<polygon points="691,90 691,90 696,85 691,80 691,80 691,90 " style="fill:white; stroke-width:1; stroke:black; " description="&lt;b&gt;PLU_RS27025&lt;/b&gt;&lt;br&gt;hypothetical protein&lt;br&gt;Location: 5402401 - 5402550" locus_tag="PLU_RS27025" class="clusterblast-orf" id="dummy-1_h1_4_17"  />
</g>
<g id="a1_0018"  >
<polygon points="713,85 718,80 742,80 742,90 718,90 713,85 " style="fill:white; stroke-width:1; stroke:black; " description="&lt;b&gt;PLU_RS22900&lt;/b&gt;&lt;br&gt;magnesium/cobalt transporter CorA&lt;br&gt;Location: 5403116 - 5404066" locus_tag="PLU_RS22900" class="clusterblast-orf" id="dummy-1_h1_4_18"  />
</g>
</svg>
