<svg xmlns="http://www.w3.org/2000/svg" xmlns:xlink="http://www.w3.org/1999/xlink" version="1.1" x="0" y="0" height="230" width="800" viewBox="0 0 800 230" preserveAspectRatio="none"  >
<g label="Query sequence" class="clusterblast-cluster"  >
<text x="5" y="20" class="clusterblast-acc"  >
Query sequence</text>
<line x1="10" y1="35" x2="778.0" y2="35" style="stroke-width:1; stroke:grey; "  />
<polygon points="115,35 120,30 144,30 144,40 120,40 115,35 " style="fill:#d81515; stroke-width:1; stroke:black; " description="&lt;b&gt;MCIC6FC_014177&lt;/b&gt;&lt;br&gt;hypothetical protein&lt;br&gt;Location: 51 - 931" locus_tag="MCIC6FC_014177" class="clusterblast-orf" id="dummy-1_q0_0_all"  />
<polygon points="152,40 482,40 487,35 482,30 152,30 152,40 " style="fill:#77d815; stroke-width:1; stroke:black; " description="&lt;b&gt;MCIC6FC_014178&lt;/b&gt;&lt;br&gt;hypothetical protein&lt;br&gt;Location: 1164 - 11121" locus_tag="MCIC6FC_014178" class="clusterblast-orf" id="dummy-1_q1_0_all"  />
<polygon points="527,40 563,40 568,35 563,30 527,30 527,40 " style="fill:#15d8d8; stroke-width:1; stroke:black; " description="&lt;b&gt;MCIC6FC_014179&lt;/b&gt;&lt;br&gt;hypothetical protein&lt;br&gt;Location: 12305 - 13530" locus_tag="MCIC6FC_014179" class="clusterblast-orf" id="dummy-1_q2_0_all"  />
<polygon points="568,35 573,30 665,30 665,40 573,40 568,35 " style="fill:#7715d8; stroke-width:1; stroke:black; " description="&lt;b&gt;MCIC6FC_014180&lt;/b&gt;&lt;br&gt;hypothetical protein&lt;br&gt;Location: 13539 - 16408" locus_tag="MCIC6FC_014180" class="clusterblast-orf" id="dummy-1_q3_0_all"  />
</g>
<g label="NZ_CP038854" description="NZ_CP038854 (360311-383873): Pantoea vagans strain LMG 24199 plasmid unnamed1... (45% of genes show similarity), terpene" class="clusterblast-cluster"  >
<text x="5" y="70" class="clusterblast-acc"  >
<a xlink:href="https://antismash-db.secondarymetabolites.org/area.html?record=NZ_CP038854&amp;start=360311&amp;end=383873" target="_blank">NZ_CP038854 (360311-383873)</a>: Pantoea vagans strain LMG 24199 plasmid unnamed1... (45% of genes show similarity), terpene</text>
<line x1="10" y1="85" x2="778.0" y2="85" style="stroke-width:1; stroke:grey; "  />
</g>
<g id="a1_000"  >
<polygon points="0,90 25,90 30,85 25,80 0,80 0,90 " style="fill:white; stroke-width:1; stroke:black; " description="&lt;b&gt;EGO56_RS20540&lt;/b&gt;&lt;br&gt;glutaminase B&lt;br&gt;Location: 360534 - 361454" locus_tag="EGO56_RS20540" class="clusterblast-orf" id="dummy-1_h1_10_0"  />
</g>
<g id="a1_001"  >
<polygon points="35,85 40,80 67,80 67,90 40,90 35,85 " style="fill:white; stroke-width:1; stroke:black; " description="&lt;b&gt;EGO56_RS20545&lt;/b&gt;&lt;br&gt;Rpn family recombination-promoting nuclease/putative transposase&lt;br&gt;Location: 361592 - 362545" locus_tag="EGO56_RS20545" class="clusterblast-orf" id="dummy-1_h1_10_1"  />
</g>
<g id="a1_002"  >
<polygon points="74,85 79,80 106,80 106,90 79,90 74,85 " style="fill:#d81515; stroke-width:1; stroke:black; " description="&lt;b&gt;EGO56_RS20550&lt;/b&gt;&lt;br&gt;D-2-hydroxyacid dehydrogenase&lt;br&gt;Location: 362761 - 363699&lt;br&gt;&lt;br&gt;&lt;b&gt;BlastP hit with MCIC6FC_014177&lt;/b&gt;&lt;br&gt;Percentage identity: 85&lt;br&gt;Percentage coverage: 99&lt;br&gt;BLAST bit score: 447&lt;br&gt;E-value: 8.7e-124" locus_tag="EGO56_RS20550" class="clusterblast-orf" id="dummy-1_h1_10_2"  />
</g>
<g id="a1_003"  >
<polygon points="113,90 123,90 128,85 123,80 113,80 113,90 " style="fill:white; stroke-width:1; stroke:black; " description="&lt;b&gt;EGO56_RS20555&lt;/b&gt;&lt;br&gt;DUF2946 domain-containing protein&lt;br&gt;Location: 363918 - 364340" locus_tag="EGO56_RS20555" class="clusterblast-orf" id="dummy-1_h1_10_3"  />
</g>
<g id="a1_004"  >
<polygon points="129,90 182,90 187,85 182,80 129,80 129,90 " style="fill:#77d815; stroke-width:1; stroke:black; " description="&lt;b&gt;EGO56_RS20560&lt;/b&gt;&lt;br&gt;DUF2534 family protein&lt;br&gt;Location: 364386 - 366116&lt;br&gt;&lt;br&gt;&lt;b&gt;BlastP hit with MCIC6FC_014178&lt;/b&gt;&lt;br&gt;Percentage identity: 90&lt;br&gt;Percentage coverage: 20&lt;br&gt;BLAST bit score: 934&lt;br&gt;E-value: 2.3e-269" locus_tag="EGO56_RS20560" class="clusterblast-orf" id="dummy-1_h1_10_4"  />
</g>
<g id="a1_005"  >
<polygon points="192,90 209,90 214,85 209,80 192,80 192,90 " style="fill:white; stroke-width:1; stroke:black; " description="&lt;b&gt;EGO56_RS20565&lt;/b&gt;&lt;br&gt;pirin family protein&lt;br&gt;Location: 366243 - 366920" locus_tag="EGO56_RS20565" class="clusterblast-orf" id="dummy-1_h1_10_5"  />
</g>
<g id="a1_006"  >
<polygon points="216,85 221,80 223,80 223,90 221,90 216,85 " style="fill:white; stroke-width:1; stroke:black; " description="&lt;b&gt;EGO56_RS20570&lt;/b&gt;&lt;br&gt;hypothetical protein&lt;br&gt;Location: 366963 - 367190" locus_tag="EGO56_RS20570" class="clusterblast-orf" id="dummy-1_h1_10_6"  />
</g>
<g id="a1_007"  >
<polygon points="229,90 242,90 247,85 242,80 229,80 229,90 " style="fill:white; stroke-width:1; stroke:black; " description="&lt;b&gt;EGO56_RS20575&lt;/b&gt;&lt;br&gt;YtfJ family protein&lt;br&gt;Location: 367362 - 367892" locus_tag="EGO56_RS20575" class="clusterblast-orf" id="dummy-1_h1_10_7"  />
</g>
<g id="a1_008"  >
<polygon points="254,90 280,90 285,85 280,80 254,80 254,90 " style="fill:#77d815; stroke-width:1; stroke:black; " description="&lt;b&gt;EGO56_RS20580&lt;/b&gt;&lt;br&gt;polyprenyl synthetase family protein&lt;br&gt;Location: 368112 - 369020&lt;br&gt;&lt;br&gt;&lt;b&gt;BlastP hit with MCIC6FC_014178&lt;/b&gt;&lt;br&gt;Percentage identity: 96&lt;br&gt;Percentage coverage: 10&lt;br&gt;BLAST bit score: 512&lt;br&gt;E-value: 2.1e-142" locus_tag="EGO56_RS20580" class="clusterblast-orf" id="dummy-1_h1_10_8"  />
</g>
<g id="a1_009"  >
<polygon points="285,90 324,90 329,85 324,80 285,80 285,90 " style="fill:#77d815; stroke-width:1; stroke:black; " description="&lt;b&gt;EGO56_RS20585&lt;/b&gt;&lt;br&gt;glycosyltransferase family 1 protein&lt;br&gt;Location: 369030 - 370325&lt;br&gt;&lt;br&gt;&lt;b&gt;BlastP hit with MCIC6FC_014178&lt;/b&gt;&lt;br&gt;Percentage identity: 77&lt;br&gt;Percentage coverage: 15&lt;br&gt;BLAST bit score: 574&lt;br&gt;E-value: 7.8e-161" locus_tag="EGO56_RS20585" class="clusterblast-orf" id="dummy-1_h1_10_9"  />
</g>
<g id="a1_0010"  >
<polygon points="328,90 362,90 367,85 362,80 328,80 328,90 " style="fill:#77d815; stroke-width:1; stroke:black; " description="&lt;b&gt;EGO56_RS20590&lt;/b&gt;&lt;br&gt;lycopene beta-cyclase CrtY&lt;br&gt;Location: 370312 - 371472&lt;br&gt;&lt;br&gt;&lt;b&gt;BlastP hit with MCIC6FC_014178&lt;/b&gt;&lt;br&gt;Percentage identity: 93&lt;br&gt;Percentage coverage: 14&lt;br&gt;BLAST bit score: 723&lt;br&gt;E-value: 8e-206" locus_tag="EGO56_RS20590" class="clusterblast-orf" id="dummy-1_h1_10_10"  />
</g>
<g id="a1_0011"  >
<polygon points="367,90 412,90 417,85 412,80 367,80 367,90 " style="fill:#77d815; stroke-width:1; stroke:black; " description="&lt;b&gt;EGO56_RS20595&lt;/b&gt;&lt;br&gt;phytoene desaturase&lt;br&gt;Location: 371469 - 372947&lt;br&gt;&lt;br&gt;&lt;b&gt;BlastP hit with MCIC6FC_014178&lt;/b&gt;&lt;br&gt;Percentage identity: 92&lt;br&gt;Percentage coverage: 16&lt;br&gt;BLAST bit score: 817&lt;br&gt;E-value: 5.3e-234" locus_tag="EGO56_RS20595" class="clusterblast-orf" id="dummy-1_h1_10_11"  />
</g>
<g id="a1_0012"  >
<polygon points="417,90 443,90 448,85 443,80 417,80 417,90 " style="fill:#77d815; stroke-width:1; stroke:black; " description="&lt;b&gt;EGO56_RS20600&lt;/b&gt;&lt;br&gt;phytoene/squalene synthase family protein&lt;br&gt;Location: 372944 - 373873&lt;br&gt;&lt;br&gt;&lt;b&gt;BlastP hit with MCIC6FC_014178&lt;/b&gt;&lt;br&gt;Percentage identity: 93&lt;br&gt;Percentage coverage: 11&lt;br&gt;BLAST bit score: 545&lt;br&gt;E-value: 3.9e-152" locus_tag="EGO56_RS20600" class="clusterblast-orf" id="dummy-1_h1_10_12"  />
</g>
<g id="a1_0013"  >
<polygon points="446,85 451,80 464,80 464,90 451,90 446,85 " style="fill:white; stroke-width:1; stroke:black; " description="&lt;b&gt;EGO56_RS20605&lt;/b&gt;&lt;br&gt;sterol desaturase family protein&lt;br&gt;Location: 373812 - 374339" locus_tag="EGO56_RS20605" class="clusterblast-orf" id="dummy-1_h1_10_13"  />
</g>
<g id="a1_0014"  >
<polygon points="471,85 476,80 508,80 508,90 476,90 471,85 " style="fill:white; stroke-width:1; stroke:black; " description="&lt;b&gt;EGO56_RS20610&lt;/b&gt;&lt;br&gt;fimbrial protein&lt;br&gt;Location: 374537 - 375646" locus_tag="EGO56_RS20610" class="clusterblast-orf" id="dummy-1_h1_10_14"  />
</g>
<g id="a1_0015"  >
<polygon points="508,85 513,80 591,80 591,90 513,90 508,85 " style="fill:white; stroke-width:1; stroke:black; " description="&lt;b&gt;EGO56_RS20615&lt;/b&gt;&lt;br&gt;fimbrial biogenesis outer membrane usher protein&lt;br&gt;Location: 375663 - 378104" locus_tag="EGO56_RS20615" class="clusterblast-orf" id="dummy-1_h1_10_15"  />
</g>
<g id="a1_0016"  >
<polygon points="595,85 600,80 618,80 618,90 600,90 595,85 " style="fill:white; stroke-width:1; stroke:black; " description="&lt;b&gt;EGO56_RS20620&lt;/b&gt;&lt;br&gt;molecular chaperone&lt;br&gt;Location: 378237 - 378905" locus_tag="EGO56_RS20620" class="clusterblast-orf" id="dummy-1_h1_10_16"  />
</g>
<g id="a1_0017"  >
<polygon points="619,85 624,80 639,80 639,90 624,90 619,85 " style="fill:white; stroke-width:1; stroke:black; " description="&lt;b&gt;EGO56_RS20625&lt;/b&gt;&lt;br&gt;type 1 fimbrial protein&lt;br&gt;Location: 378960 - 379547" locus_tag="EGO56_RS20625" class="clusterblast-orf" id="dummy-1_h1_10_17"  />
</g>
<g id="a1_0018"  >
<polygon points="655,85 660,80 664,80 664,90 660,90 655,85 " style="fill:white; stroke-width:1; stroke:black; " description="&lt;b&gt;EGO56_RS20630&lt;/b&gt;&lt;br&gt;hypothetical protein&lt;br&gt;Location: 380012 - 380281" locus_tag="EGO56_RS20630" class="clusterblast-orf" id="dummy-1_h1_10_18"  />
</g>
<g id="a1_0019"  >
<polygon points="674,90 688,90 693,85 688,80 674,80 674,90 " style="fill:#15d8d8; stroke-width:1; stroke:black; " description="&lt;b&gt;EGO56_RS20635&lt;/b&gt;&lt;br&gt;thioredoxin domain-containing protein&lt;br&gt;Location: 380598 - 381140&lt;br&gt;&lt;br&gt;&lt;b&gt;BlastP hit with MCIC6FC_014179&lt;/b&gt;&lt;br&gt;Percentage identity: 85&lt;br&gt;Percentage coverage: 55&lt;br&gt;BLAST bit score: 287&lt;br&gt;E-value: 2e-75" locus_tag="EGO56_RS20635" class="clusterblast-orf" id="dummy-1_h1_10_19"  />
</g>
<g id="a1_0020"  >
<polygon points="700,90 709,90 714,85 709,80 700,80 700,90 " style="fill:#15d8d8; stroke-width:1; stroke:black; " description="&lt;b&gt;EGO56_RS20640&lt;/b&gt;&lt;br&gt;ASCH domain-containing protein&lt;br&gt;Location: 381364 - 381777&lt;br&gt;&lt;br&gt;&lt;b&gt;BlastP hit with MCIC6FC_014179&lt;/b&gt;&lt;br&gt;Percentage identity: 96&lt;br&gt;Percentage coverage: 47&lt;br&gt;BLAST bit score: 274&lt;br&gt;E-value: 1.8e-71" locus_tag="EGO56_RS20640" class="clusterblast-orf" id="dummy-1_h1_10_20"  />
</g>
<g id="a1_0021"  >
<polygon points="714,85 719,80 747,80 747,90 719,90 714,85 " style="fill:#7715d8; stroke-width:1; stroke:black; " description="&lt;b&gt;EGO56_RS20645&lt;/b&gt;&lt;br&gt;HesA/MoeB/ThiF family protein&lt;br&gt;Location: 381787 - 382755&lt;br&gt;&lt;br&gt;&lt;b&gt;BlastP hit with MCIC6FC_014180&lt;/b&gt;&lt;br&gt;Percentage identity: 75&lt;br&gt;Percentage coverage: 43&lt;br&gt;BLAST bit score: 438&lt;br&gt;E-value: 1.4e-120" locus_tag="EGO56_RS20645" class="clusterblast-orf" id="dummy-1_h1_10_21"  />
</g>
<g id="a1_0022"  >
<polygon points="747,85 752,80 773,80 773,90 752,90 747,85 " style="fill:#7715d8; stroke-width:1; stroke:black; " description="&lt;b&gt;EGO56_RS20650&lt;/b&gt;&lt;br&gt;thiazole synthase&lt;br&gt;Location: 382765 - 383520&lt;br&gt;&lt;br&gt;&lt;b&gt;BlastP hit with MCIC6FC_014180&lt;/b&gt;&lt;br&gt;Percentage identity: 75&lt;br&gt;Percentage coverage: 27&lt;br&gt;BLAST bit score: 264&lt;br&gt;E-value: 2.8e-68" locus_tag="EGO56_RS20650" class="clusterblast-orf" id="dummy-1_h1_10_22"  />
</g>
<g id="a1_0023"  >
<polygon points="773,85 778,80 780,80 780,90 778,90 773,85 " style="fill:white; stroke-width:1; stroke:black; " description="&lt;b&gt;EGO56_RS20655&lt;/b&gt;&lt;br&gt;sulfur carrier protein ThiS&lt;br&gt;Location: 383523 - 383720" locus_tag="EGO56_RS20655" class="clusterblast-orf" id="dummy-1_h1_10_23"  />
</g>
</svg>
