<svg xmlns="http://www.w3.org/2000/svg" xmlns:xlink="http://www.w3.org/1999/xlink" version="1.1" x="0" y="0" height="230" width="800" viewBox="0 0 800 230" preserveAspectRatio="none"  >
<g label="Query sequence" class="clusterblast-cluster"  >
<text x="5" y="20" class="clusterblast-acc"  >
Query sequence</text>
<line x1="10" y1="35" x2="778.0" y2="35" style="stroke-width:1; stroke:grey; "  />
<polygon points="0,40 92,40 97,35 92,30 0,30 0,40 " style="fill:#d81515; stroke-width:1; stroke:black; " description="&lt;b&gt;MCIC6FC_013810&lt;/b&gt;&lt;br&gt;hypothetical protein&lt;br&gt;Location: 66172 - 72940" locus_tag="MCIC6FC_013810" class="clusterblast-orf" id="dummy-1_q0_0_all"  />
<polygon points="97,40 184,40 189,35 184,30 97,30 97,40 " style="fill:#77d815; stroke-width:1; stroke:black; " description="&lt;b&gt;MCIC6FC_013811&lt;/b&gt;&lt;br&gt;hypothetical protein&lt;br&gt;Location: 72950 - 79319" locus_tag="MCIC6FC_013811" class="clusterblast-orf" id="dummy-1_q1_0_all"  />
<polygon points="189,40 204,40 209,35 204,30 189,30 189,40 " style="fill:#15d8d8; stroke-width:1; stroke:black; " description="&lt;b&gt;MCIC6FC_013812&lt;/b&gt;&lt;br&gt;hypothetical protein&lt;br&gt;Location: 79351 - 80770" locus_tag="MCIC6FC_013812" class="clusterblast-orf" id="dummy-1_q2_0_all"  />
<polygon points="213,40 223,40 228,35 223,30 213,30 213,40 " style="fill:#7715d8; stroke-width:1; stroke:black; " description="&lt;b&gt;MCIC6FC_013813&lt;/b&gt;&lt;br&gt;hypothetical protein&lt;br&gt;Location: 81010 - 82078" locus_tag="MCIC6FC_013813" class="clusterblast-orf" id="dummy-1_q3_0_all"  />
<polygon points="229,35 234,30 246,30 246,40 234,40 229,35 " style="fill:#d87715; stroke-width:1; stroke:black; " description="&lt;b&gt;MCIC6FC_013814&lt;/b&gt;&lt;br&gt;hypothetical protein&lt;br&gt;Location: 82133 - 83306" locus_tag="MCIC6FC_013814" class="clusterblast-orf" id="dummy-1_q4_0_all"  />
<polygon points="249,40 257,40 262,35 257,30 249,30 249,40 " style="fill:#15d815; stroke-width:1; stroke:black; " description="&lt;b&gt;MCIC6FC_013815&lt;/b&gt;&lt;br&gt;hypothetical protein&lt;br&gt;Location: 83532 - 84426" locus_tag="MCIC6FC_013815" class="clusterblast-orf" id="dummy-1_q5_0_all"  />
<polygon points="267,35 272,30 276,30 276,40 272,40 267,35 " style="fill:#1577d8; stroke-width:1; stroke:black; " description="&lt;b&gt;MCIC6FC_013816&lt;/b&gt;&lt;br&gt;hypothetical protein&lt;br&gt;Location: 84769 - 85384" locus_tag="MCIC6FC_013816" class="clusterblast-orf" id="dummy-1_q6_0_all"  />
<polygon points="276,35 281,30 293,30 293,40 281,40 276,35 " style="fill:#d815d8; stroke-width:1; stroke:black; " description="&lt;b&gt;MCIC6FC_013817&lt;/b&gt;&lt;br&gt;hypothetical protein&lt;br&gt;Location: 85411 - 86614" locus_tag="MCIC6FC_013817" class="clusterblast-orf" id="dummy-1_q7_0_all"  />
<polygon points="294,35 299,30 363,30 363,40 299,40 294,35 " style="fill:#d815d8; stroke-width:1; stroke:black; " description="&lt;b&gt;MCIC6FC_013818&lt;/b&gt;&lt;br&gt;hypothetical protein&lt;br&gt;Location: 86637 - 91441" locus_tag="MCIC6FC_013818" class="clusterblast-orf" id="dummy-1_q8_0_all"  />
<polygon points="364,35 369,30 524,30 524,40 369,40 364,35 " style="fill:#d8d815; stroke-width:1; stroke:black; " description="&lt;b&gt;MCIC6FC_013819&lt;/b&gt;&lt;br&gt;hypothetical protein&lt;br&gt;Location: 91489 - 102637" locus_tag="MCIC6FC_013819" class="clusterblast-orf" id="dummy-1_q9_0_all"  />
<polygon points="528,40 534,40 539,35 534,30 528,30 528,40 " style="fill:#15d877; stroke-width:1; stroke:black; " description="&lt;b&gt;MCIC6FC_013820&lt;/b&gt;&lt;br&gt;hypothetical protein&lt;br&gt;Location: 102898 - 103669" locus_tag="MCIC6FC_013820" class="clusterblast-orf" id="dummy-1_q10_0_all"  />
<polygon points="545,40 549,35 545,30 545,40 " style="fill:#1515d8; stroke-width:1; stroke:black; " description="&lt;b&gt;MCIC6FC_013821&lt;/b&gt;&lt;br&gt;hypothetical protein&lt;br&gt;Location: 104138 - 104360" locus_tag="MCIC6FC_013821" class="clusterblast-orf" id="dummy-1_q11_0_all"  />
<polygon points="550,35 555,30 682,30 682,40 555,40 550,35 " style="fill:#d81577; stroke-width:1; stroke:black; " description="&lt;b&gt;MCIC6FC_013822&lt;/b&gt;&lt;br&gt;hypothetical protein&lt;br&gt;Location: 104485 - 113641" locus_tag="MCIC6FC_013822" class="clusterblast-orf" id="dummy-1_q12_0_all"  />
<polygon points="686,40 688,40 693,35 688,30 686,30 686,40 " style="fill:white; stroke-width:1; stroke:black; " description="&lt;b&gt;MCIC6FC_013823&lt;/b&gt;&lt;br&gt;hypothetical protein&lt;br&gt;Location: 113933 - 114428" locus_tag="MCIC6FC_013823" class="clusterblast-orf" id="dummy-1_q13_0_all"  />
<polygon points="694,35 699,30 720,30 720,40 699,40 694,35 " style="fill:white; stroke-width:1; stroke:black; " description="&lt;b&gt;MCIC6FC_013824&lt;/b&gt;&lt;br&gt;hypothetical protein&lt;br&gt;Location: 114450 - 116253" locus_tag="MCIC6FC_013824" class="clusterblast-orf" id="dummy-1_q14_0_all"  />
<polygon points="723,35 728,30 780,30 780,40 728,40 723,35 " style="fill:white; stroke-width:1; stroke:black; " description="&lt;b&gt;MCIC6FC_013825&lt;/b&gt;&lt;br&gt;hypothetical protein&lt;br&gt;Location: 116480 - 120434" locus_tag="MCIC6FC_013825" class="clusterblast-orf" id="dummy-1_q15_0_all"  />
</g>
<g label="NZ_CP027726" description="NZ_CP027726 (468131-511707): Pseudomonas orientalis strain R4-35-08 chromosom... (58% of genes show similarity), arylpolyene" class="clusterblast-cluster"  >
<text x="5" y="70" class="clusterblast-acc"  >
<a xlink:href="https://antismash-db.secondarymetabolites.org/area.html?record=NZ_CP027726&amp;start=468131&amp;end=511707" target="_blank">NZ_CP027726 (468131-511707)</a>: Pseudomonas orientalis strain R4-35-08 chromosom... (58% of genes show similarity), arylpolyene</text>
<line x1="10" y1="85" x2="778.0" y2="85" style="stroke-width:1; stroke:grey; "  />
</g>
<g id="a1_000"  >
<polygon points="104,90 109,90 114,85 109,80 104,80 104,90 " style="fill:white; stroke-width:1; stroke:black; " description="&lt;b&gt;C4J95_RS02000&lt;/b&gt;&lt;br&gt;type IV pilus assembly protein PilM&lt;br&gt;Location: 470720 - 471376" locus_tag="C4J95_RS02000" class="clusterblast-orf" id="dummy-1_h1_7_0"  />
</g>
<g id="a1_001"  >
<polygon points="114,90 117,90 122,85 117,80 114,80 114,90 " style="fill:white; stroke-width:1; stroke:black; " description="&lt;b&gt;C4J95_RS02005&lt;/b&gt;&lt;br&gt;fimbriae biosynthesis protein&lt;br&gt;Location: 471373 - 471924" locus_tag="C4J95_RS02005" class="clusterblast-orf" id="dummy-1_h1_7_1"  />
</g>
<g id="a1_002"  >
<polygon points="121,90 130,90 135,85 130,80 121,80 121,90 " style="fill:#d81515; stroke-width:1; stroke:black; " description="&lt;b&gt;C4J95_RS02010&lt;/b&gt;&lt;br&gt;type 4a pilus biogenesis protein PilO&lt;br&gt;Location: 471921 - 472892&lt;br&gt;&lt;br&gt;&lt;b&gt;BlastP hit with MCIC6FC_013810&lt;/b&gt;&lt;br&gt;Percentage identity: 37&lt;br&gt;Percentage coverage: 17&lt;br&gt;BLAST bit score: 199&lt;br&gt;E-value: 3e-48" locus_tag="C4J95_RS02010" class="clusterblast-orf" id="dummy-1_h1_7_2"  />
</g>
<g id="a1_003"  >
<polygon points="136,90 151,90 156,85 151,80 136,80 136,90 " style="fill:#d81515; stroke-width:1; stroke:black; " description="&lt;b&gt;C4J95_RS02015&lt;/b&gt;&lt;br&gt;type IV pilus secretin PilQ family protein&lt;br&gt;Location: 472962 - 474287&lt;br&gt;&lt;br&gt;&lt;b&gt;BlastP hit with MCIC6FC_013810&lt;/b&gt;&lt;br&gt;Percentage identity: 88&lt;br&gt;Percentage coverage: 21&lt;br&gt;BLAST bit score: 727&lt;br&gt;E-value: 3.1e-207" locus_tag="C4J95_RS02015" class="clusterblast-orf" id="dummy-1_h1_7_3"  />
</g>
<g id="a1_004"  >
<polygon points="156,90 158,90 163,85 158,80 156,80 156,90 " style="fill:white; stroke-width:1; stroke:black; " description="&lt;b&gt;C4J95_RS02020&lt;/b&gt;&lt;br&gt;shikimate kinase AroK&lt;br&gt;Location: 474292 - 474810" locus_tag="C4J95_RS02020" class="clusterblast-orf" id="dummy-1_h1_7_4"  />
</g>
<g id="a1_005"  >
<polygon points="165,90 176,90 181,85 176,80 165,80 165,90 " style="fill:#d81515; stroke-width:1; stroke:black; " description="&lt;b&gt;C4J95_RS02025&lt;/b&gt;&lt;br&gt;3-dehydroquinate synthase&lt;br&gt;Location: 474936 - 476036&lt;br&gt;&lt;br&gt;&lt;b&gt;BlastP hit with MCIC6FC_013810&lt;/b&gt;&lt;br&gt;Percentage identity: 98&lt;br&gt;Percentage coverage: 18&lt;br&gt;BLAST bit score: 695&lt;br&gt;E-value: 2.3e-197" locus_tag="C4J95_RS02025" class="clusterblast-orf" id="dummy-1_h1_7_5"  />
</g>
<g id="a1_006"  >
<polygon points="181,90 198,90 203,85 198,80 181,80 181,90 " style="fill:#77d815; stroke-width:1; stroke:black; " description="&lt;b&gt;C4J95_RS02030&lt;/b&gt;&lt;br&gt;AAA family ATPase&lt;br&gt;Location: 476047 - 477621&lt;br&gt;&lt;br&gt;&lt;b&gt;BlastP hit with MCIC6FC_013811&lt;/b&gt;&lt;br&gt;Percentage identity: 96&lt;br&gt;Percentage coverage: 25&lt;br&gt;BLAST bit score: 793&lt;br&gt;E-value: 6.1e-227" locus_tag="C4J95_RS02030" class="clusterblast-orf" id="dummy-1_h1_7_6"  />
</g>
<g id="a1_007"  >
<polygon points="208,90 267,90 272,85 267,80 208,80 208,90 " style="fill:#77d815; stroke-width:1; stroke:black; " description="&lt;b&gt;C4J95_RS02040&lt;/b&gt;&lt;br&gt;glutamate synthase large subunit&lt;br&gt;Location: 477973 - 482418&lt;br&gt;&lt;br&gt;&lt;b&gt;BlastP hit with MCIC6FC_013811&lt;/b&gt;&lt;br&gt;Percentage identity: 98&lt;br&gt;Percentage coverage: 73&lt;br&gt;BLAST bit score: 2797&lt;br&gt;E-value: 0.0" locus_tag="C4J95_RS02040" class="clusterblast-orf" id="dummy-1_h1_7_7"  />
</g>
<g id="a1_008"  >
<polygon points="273,90 288,90 293,85 288,80 273,80 273,90 " style="fill:#15d8d8; stroke-width:1; stroke:black; " description="&lt;b&gt;C4J95_RS02045&lt;/b&gt;&lt;br&gt;FAD-dependent oxidoreductase&lt;br&gt;Location: 482451 - 483869&lt;br&gt;&lt;br&gt;&lt;b&gt;BlastP hit with MCIC6FC_013812&lt;/b&gt;&lt;br&gt;Percentage identity: 100&lt;br&gt;Percentage coverage: 100&lt;br&gt;BLAST bit score: 969&lt;br&gt;E-value: 1.1e-280" locus_tag="C4J95_RS02045" class="clusterblast-orf" id="dummy-1_h1_7_8"  />
</g>
<g id="a1_009"  >
<polygon points="297,90 307,90 312,85 307,80 297,80 297,90 " style="fill:#7715d8; stroke-width:1; stroke:black; " description="&lt;b&gt;C4J95_RS02050&lt;/b&gt;&lt;br&gt;uroporphyrinogen decarboxylase&lt;br&gt;Location: 484112 - 485179&lt;br&gt;&lt;br&gt;&lt;b&gt;BlastP hit with MCIC6FC_013813&lt;/b&gt;&lt;br&gt;Percentage identity: 98&lt;br&gt;Percentage coverage: 100&lt;br&gt;BLAST bit score: 716&lt;br&gt;E-value: 1.3e-204" locus_tag="C4J95_RS02050" class="clusterblast-orf" id="dummy-1_h1_7_9"  />
</g>
<g id="a1_0010"  >
<polygon points="314,85 319,80 332,80 332,90 319,90 314,85 " style="fill:#d87715; stroke-width:1; stroke:black; " description="&lt;b&gt;C4J95_RS02055&lt;/b&gt;&lt;br&gt;MFS transporter&lt;br&gt;Location: 485301 - 486575&lt;br&gt;&lt;br&gt;&lt;b&gt;BlastP hit with MCIC6FC_013814&lt;/b&gt;&lt;br&gt;Percentage identity: 96&lt;br&gt;Percentage coverage: 100&lt;br&gt;BLAST bit score: 712&lt;br&gt;E-value: 2e-203" locus_tag="C4J95_RS02055" class="clusterblast-orf" id="dummy-1_h1_7_10"  />
</g>
<g id="a1_0011"  >
<polygon points="334,90 342,90 347,85 342,80 334,80 334,90 " style="fill:#15d815; stroke-width:1; stroke:black; " description="&lt;b&gt;C4J95_RS02060&lt;/b&gt;&lt;br&gt;LysR family transcriptional regulator&lt;br&gt;Location: 486694 - 487596&lt;br&gt;&lt;br&gt;&lt;b&gt;BlastP hit with MCIC6FC_013815&lt;/b&gt;&lt;br&gt;Percentage identity: 93&lt;br&gt;Percentage coverage: 99&lt;br&gt;BLAST bit score: 525&lt;br&gt;E-value: 4.6e-147" locus_tag="C4J95_RS02060" class="clusterblast-orf" id="dummy-1_h1_7_11"  />
</g>
<g id="a1_0012"  >
<polygon points="348,85 353,80 354,80 354,90 353,90 348,85 " style="fill:#1577d8; stroke-width:1; stroke:black; " description="&lt;b&gt;C4J95_RS02065&lt;/b&gt;&lt;br&gt;hypothetical protein&lt;br&gt;Location: 487710 - 488105&lt;br&gt;&lt;br&gt;&lt;b&gt;BlastP hit with MCIC6FC_013816&lt;/b&gt;&lt;br&gt;Percentage identity: 90&lt;br&gt;Percentage coverage: 67&lt;br&gt;BLAST bit score: 226&lt;br&gt;E-value: 2.8e-57" locus_tag="C4J95_RS02065" class="clusterblast-orf" id="dummy-1_h1_7_12"  />
</g>
<g id="a1_0013"  >
<polygon points="355,85 360,80 372,80 372,90 360,90 355,85 " style="fill:#d815d8; stroke-width:1; stroke:black; " description="&lt;b&gt;C4J95_RS02070&lt;/b&gt;&lt;br&gt;beta-ketoacyl-ACP synthase&lt;br&gt;Location: 488132 - 489358&lt;br&gt;&lt;br&gt;&lt;b&gt;BlastP hit with MCIC6FC_013817&lt;/b&gt;&lt;br&gt;Percentage identity: 98&lt;br&gt;Percentage coverage: 100&lt;br&gt;BLAST bit score: 795&lt;br&gt;E-value: 1.9e-228" locus_tag="C4J95_RS02070" class="clusterblast-orf" id="dummy-1_h1_7_13"  />
</g>
<g id="a1_0014"  >
<polygon points="372,85 377,80 383,80 383,90 377,90 372,85 " style="fill:#d815d8; stroke-width:1; stroke:black; " description="&lt;b&gt;C4J95_RS02075&lt;/b&gt;&lt;br&gt;3-oxoacyl-ACP reductase FabG&lt;br&gt;Location: 489358 - 490086&lt;br&gt;&lt;br&gt;&lt;b&gt;BlastP hit with MCIC6FC_013818&lt;/b&gt;&lt;br&gt;Percentage identity: 98&lt;br&gt;Percentage coverage: 16&lt;br&gt;BLAST bit score: 463&lt;br&gt;E-value: 8.4e-128" locus_tag="C4J95_RS02075" class="clusterblast-orf" id="dummy-1_h1_7_14"  />
</g>
<g id="a1_0015"  >
<polygon points="383,85 388,80 389,80 389,90 388,90 383,85 " style="fill:white; stroke-width:1; stroke:black; " description="&lt;b&gt;C4J95_RS02080&lt;/b&gt;&lt;br&gt;hotdog family protein&lt;br&gt;Location: 490083 - 490544" locus_tag="C4J95_RS02080" class="clusterblast-orf" id="dummy-1_h1_7_15"  />
</g>
<g id="a1_0016"  >
<polygon points="389,85 394,80 406,80 406,90 394,90 389,85 " style="fill:#d815d8; stroke-width:1; stroke:black; " description="&lt;b&gt;C4J95_RS02085&lt;/b&gt;&lt;br&gt;beta-ketoacyl-[acyl-carrier-protein] synthase family protein&lt;br&gt;Location: 490541 - 491707&lt;br&gt;&lt;br&gt;&lt;b&gt;BlastP hit with MCIC6FC_013817&lt;/b&gt;&lt;br&gt;Percentage identity: 32&lt;br&gt;Percentage coverage: 92&lt;br&gt;BLAST bit score: 133&lt;br&gt;E-value: 5.2e-29&lt;br&gt;&lt;br&gt;&lt;b&gt;BlastP hit with MCIC6FC_013818&lt;/b&gt;&lt;br&gt;Percentage identity: 89&lt;br&gt;Percentage coverage: 25&lt;br&gt;BLAST bit score: 671&lt;br&gt;E-value: 2.7e-190" locus_tag="C4J95_RS02085" class="clusterblast-orf" id="dummy-1_h1_7_16"  />
</g>
<g id="a1_0017"  >
<polygon points="406,85 411,80 413,80 413,90 411,90 406,85 " style="fill:#d815d8; stroke-width:1; stroke:black; " description="&lt;b&gt;C4J95_RS02090&lt;/b&gt;&lt;br&gt;hypothetical protein&lt;br&gt;Location: 491704 - 492186&lt;br&gt;&lt;br&gt;&lt;b&gt;BlastP hit with MCIC6FC_013818&lt;/b&gt;&lt;br&gt;Percentage identity: 77&lt;br&gt;Percentage coverage: 10&lt;br&gt;BLAST bit score: 241&lt;br&gt;E-value: 5.2e-61" locus_tag="C4J95_RS02090" class="clusterblast-orf" id="dummy-1_h1_7_17"  />
</g>
<g id="a1_0018"  >
<polygon points="413,85 418,80 424,80 424,90 418,90 413,85 " style="fill:#d815d8; stroke-width:1; stroke:black; " description="&lt;b&gt;C4J95_RS02095&lt;/b&gt;&lt;br&gt;class I SAM-dependent methyltransferase&lt;br&gt;Location: 492183 - 492932&lt;br&gt;&lt;br&gt;&lt;b&gt;BlastP hit with MCIC6FC_013818&lt;/b&gt;&lt;br&gt;Percentage identity: 90&lt;br&gt;Percentage coverage: 16&lt;br&gt;BLAST bit score: 455&lt;br&gt;E-value: 2.3e-125" locus_tag="C4J95_RS02095" class="clusterblast-orf" id="dummy-1_h1_7_18"  />
</g>
<g id="a1_0019"  >
<polygon points="423,85 428,80 441,80 441,90 428,90 423,85 " style="fill:#d815d8; stroke-width:1; stroke:black; " description="&lt;b&gt;C4J95_RS02100&lt;/b&gt;&lt;br&gt;NAD(P)/FAD-dependent oxidoreductase&lt;br&gt;Location: 492929 - 494176&lt;br&gt;&lt;br&gt;&lt;b&gt;BlastP hit with MCIC6FC_013818&lt;/b&gt;&lt;br&gt;Percentage identity: 92&lt;br&gt;Percentage coverage: 26&lt;br&gt;BLAST bit score: 775&lt;br&gt;E-value: 1e-221" locus_tag="C4J95_RS02100" class="clusterblast-orf" id="dummy-1_h1_7_19"  />
</g>
<g id="a1_0020"  >
<polygon points="442,85 447,80 475,80 475,90 447,90 442,85 " style="fill:#d8d815; stroke-width:1; stroke:black; " description="&lt;b&gt;C4J95_RS02105&lt;/b&gt;&lt;br&gt;MMPL family transporter&lt;br&gt;Location: 494210 - 496540&lt;br&gt;&lt;br&gt;&lt;b&gt;BlastP hit with MCIC6FC_013819&lt;/b&gt;&lt;br&gt;Percentage identity: 94&lt;br&gt;Percentage coverage: 22&lt;br&gt;BLAST bit score: 1386&lt;br&gt;E-value: 0.0" locus_tag="C4J95_RS02105" class="clusterblast-orf" id="dummy-1_h1_7_20"  />
</g>
<g id="a1_0021"  >
<polygon points="475,85 480,80 484,80 484,90 480,90 475,85 " style="fill:white; stroke-width:1; stroke:black; " description="&lt;b&gt;C4J95_RS02110&lt;/b&gt;&lt;br&gt;outer membrane lipoprotein carrier protein LolA&lt;br&gt;Location: 496512 - 497162" locus_tag="C4J95_RS02110" class="clusterblast-orf" id="dummy-1_h1_7_21"  />
</g>
<g id="a1_0022"  >
<polygon points="485,85 490,80 491,80 491,90 490,90 485,85 " style="fill:white; stroke-width:1; stroke:black; " description="&lt;b&gt;C4J95_RS02115&lt;/b&gt;&lt;br&gt;acyl-CoA thioesterase&lt;br&gt;Location: 497192 - 497617" locus_tag="C4J95_RS02115" class="clusterblast-orf" id="dummy-1_h1_7_22"  />
</g>
<g id="a1_0023"  >
<polygon points="491,85 496,80 513,80 513,90 496,90 491,85 " style="fill:#d8d815; stroke-width:1; stroke:black; " description="&lt;b&gt;C4J95_RS02120&lt;/b&gt;&lt;br&gt;aromatic amino acid lyase&lt;br&gt;Location: 497610 - 499151&lt;br&gt;&lt;br&gt;&lt;b&gt;BlastP hit with MCIC6FC_013819&lt;/b&gt;&lt;br&gt;Percentage identity: 95&lt;br&gt;Percentage coverage: 15&lt;br&gt;BLAST bit score: 970&lt;br&gt;E-value: 4.8e-280" locus_tag="C4J95_RS02120" class="clusterblast-orf" id="dummy-1_h1_7_23"  />
</g>
<g id="a1_0024"  >
<polygon points="513,85 518,80 526,80 526,90 518,90 513,85 " style="fill:white; stroke-width:1; stroke:black; " description="&lt;b&gt;C4J95_RS02125&lt;/b&gt;&lt;br&gt;glycosyl transferase&lt;br&gt;Location: 499135 - 500070" locus_tag="C4J95_RS02125" class="clusterblast-orf" id="dummy-1_h1_7_24"  />
</g>
<g id="a1_0025"  >
<polygon points="526,85 531,80 537,80 537,90 531,90 526,85 " style="fill:white; stroke-width:1; stroke:black; " description="&lt;b&gt;C4J95_RS02130&lt;/b&gt;&lt;br&gt;glycosyltransferase family 2 protein&lt;br&gt;Location: 500067 - 500801" locus_tag="C4J95_RS02130" class="clusterblast-orf" id="dummy-1_h1_7_25"  />
</g>
<g id="a1_0026"  >
<polygon points="537,85 542,80 561,80 561,90 542,90 537,85 " style="fill:#d8d815; stroke-width:1; stroke:black; " description="&lt;b&gt;C4J95_RS02135&lt;/b&gt;&lt;br&gt;AMP-binding protein&lt;br&gt;Location: 500794 - 502464&lt;br&gt;&lt;br&gt;&lt;b&gt;BlastP hit with MCIC6FC_013819&lt;/b&gt;&lt;br&gt;Percentage identity: 90&lt;br&gt;Percentage coverage: 16&lt;br&gt;BLAST bit score: 990&lt;br&gt;E-value: 4.5e-286" locus_tag="C4J95_RS02135" class="clusterblast-orf" id="dummy-1_h1_7_26"  />
</g>
<g id="a1_0027"  >
<polygon points="561,85 566,80 568,80 568,90 566,90 561,85 " style="fill:white; stroke-width:1; stroke:black; " description="&lt;b&gt;C4J95_RS02140&lt;/b&gt;&lt;br&gt;hypothetical protein&lt;br&gt;Location: 502461 - 503006" locus_tag="C4J95_RS02140" class="clusterblast-orf" id="dummy-1_h1_7_27"  />
</g>
<g id="a1_0028"  >
<polygon points="568,85 572,80 572,90 568,85 " style="fill:white; stroke-width:1; stroke:black; " description="&lt;b&gt;C4J95_RS02145&lt;/b&gt;&lt;br&gt;acyl carrier protein&lt;br&gt;Location: 503003 - 503257" locus_tag="C4J95_RS02145" class="clusterblast-orf" id="dummy-1_h1_7_28"  />
</g>
<g id="a1_0029"  >
<polygon points="572,85 576,80 576,90 572,85 " style="fill:white; stroke-width:1; stroke:black; " description="&lt;b&gt;C4J95_RS02150&lt;/b&gt;&lt;br&gt;acyl carrier protein&lt;br&gt;Location: 503267 - 503536" locus_tag="C4J95_RS02150" class="clusterblast-orf" id="dummy-1_h1_7_29"  />
</g>
<g id="a1_0030"  >
<polygon points="576,85 581,80 587,80 587,90 581,90 576,85 " style="fill:white; stroke-width:1; stroke:black; " description="&lt;b&gt;C4J95_RS02155&lt;/b&gt;&lt;br&gt;1-acyl-sn-glycerol-3-phosphate acyltransferase&lt;br&gt;Location: 503514 - 504326" locus_tag="C4J95_RS02155" class="clusterblast-orf" id="dummy-1_h1_7_30"  />
</g>
<g id="a1_0031"  >
<polygon points="587,85 592,80 597,80 597,90 592,90 587,85 " style="fill:white; stroke-width:1; stroke:black; " description="&lt;b&gt;C4J95_RS02160&lt;/b&gt;&lt;br&gt;beta-ketoacyl synthase chain length factor&lt;br&gt;Location: 504302 - 505021" locus_tag="C4J95_RS02160" class="clusterblast-orf" id="dummy-1_h1_7_31"  />
</g>
<g id="a1_0032"  >
<polygon points="602,90 608,90 613,85 608,80 602,80 602,90 " style="fill:#15d877; stroke-width:1; stroke:black; " description="&lt;b&gt;C4J95_RS02165&lt;/b&gt;&lt;br&gt;ParA family protein&lt;br&gt;Location: 505338 - 506108&lt;br&gt;&lt;br&gt;&lt;b&gt;BlastP hit with MCIC6FC_013820&lt;/b&gt;&lt;br&gt;Percentage identity: 97&lt;br&gt;Percentage coverage: 100&lt;br&gt;BLAST bit score: 490&lt;br&gt;E-value: 8.2e-137" locus_tag="C4J95_RS02165" class="clusterblast-orf" id="dummy-1_h1_7_32"  />
</g>
<g id="a1_0033"  >
<polygon points="620,90 623,85 620,80 620,90 " style="fill:#1515d8; stroke-width:1; stroke:black; " description="&lt;b&gt;C4J95_RS02170&lt;/b&gt;&lt;br&gt;hypothetical protein&lt;br&gt;Location: 506574 - 506792&lt;br&gt;&lt;br&gt;&lt;b&gt;BlastP hit with MCIC6FC_013821&lt;/b&gt;&lt;br&gt;Percentage identity: 78&lt;br&gt;Percentage coverage: 97&lt;br&gt;BLAST bit score: 113&lt;br&gt;E-value: 1e-23" locus_tag="C4J95_RS02170" class="clusterblast-orf" id="dummy-1_h1_7_33"  />
</g>
<g id="a1_0034"  >
<polygon points="629,90 632,85 629,80 629,90 " style="fill:#1515d8; stroke-width:1; stroke:black; " description="&lt;b&gt;C4J95_RS02180&lt;/b&gt;&lt;br&gt;hypothetical protein&lt;br&gt;Location: 507242 - 507462&lt;br&gt;&lt;br&gt;&lt;b&gt;BlastP hit with MCIC6FC_013821&lt;/b&gt;&lt;br&gt;Percentage identity: 89&lt;br&gt;Percentage coverage: 75&lt;br&gt;BLAST bit score: 97&lt;br&gt;E-value: 4.4e-19" locus_tag="C4J95_RS02180" class="clusterblast-orf" id="dummy-1_h1_7_34"  />
</g>
<g id="a1_0035"  >
<polygon points="634,85 639,80 640,80 640,90 639,90 634,85 " style="fill:white; stroke-width:1; stroke:black; " description="&lt;b&gt;C4J95_RS02185&lt;/b&gt;&lt;br&gt;thioredoxin TrxC&lt;br&gt;Location: 507592 - 508026" locus_tag="C4J95_RS02185" class="clusterblast-orf" id="dummy-1_h1_7_35"  />
</g>
<g id="a1_0036"  >
<polygon points="644,90 648,85 644,80 644,90 " style="fill:white; stroke-width:1; stroke:black; " description="&lt;b&gt;C4J95_RS02190&lt;/b&gt;&lt;br&gt;type II toxin-antitoxin system HigB family toxin&lt;br&gt;Location: 508248 - 508544" locus_tag="C4J95_RS02190" class="clusterblast-orf" id="dummy-1_h1_7_36"  />
</g>
<g id="a1_0037"  >
<polygon points="648,90 649,90 654,85 649,80 648,80 648,90 " style="fill:white; stroke-width:1; stroke:black; " description="&lt;b&gt;C4J95_RS02195&lt;/b&gt;&lt;br&gt;transcriptional regulator&lt;br&gt;Location: 508541 - 508942" locus_tag="C4J95_RS02195" class="clusterblast-orf" id="dummy-1_h1_7_37"  />
</g>
<g id="a1_0038"  >
<polygon points="654,85 659,80 675,80 675,90 659,90 654,85 " style="fill:#d81577; stroke-width:1; stroke:black; " description="&lt;b&gt;C4J95_RS02200&lt;/b&gt;&lt;br&gt;YdiU family protein&lt;br&gt;Location: 508947 - 510410&lt;br&gt;&lt;br&gt;&lt;b&gt;BlastP hit with MCIC6FC_013822&lt;/b&gt;&lt;br&gt;Percentage identity: 96&lt;br&gt;Percentage coverage: 16&lt;br&gt;BLAST bit score: 903&lt;br&gt;E-value: 4.5e-260" locus_tag="C4J95_RS02200" class="clusterblast-orf" id="dummy-1_h1_7_38"  />
</g>
</svg>
