<svg xmlns="http://www.w3.org/2000/svg" xmlns:xlink="http://www.w3.org/1999/xlink" version="1.1" x="0" y="0" height="230" width="800" viewBox="0 0 800 230" preserveAspectRatio="none"  >
<g label="Query sequence" class="clusterblast-cluster"  >
<text x="5" y="20" class="clusterblast-acc"  >
Query sequence</text>
<line x1="10" y1="35" x2="778.0" y2="35" style="stroke-width:1; stroke:grey; "  />
<polygon points="0,35 5,30 86,30 86,40 5,40 0,35 " style="fill:white; stroke-width:1; stroke:black; " description="&lt;b&gt;MCIC6FC_007605&lt;/b&gt;&lt;br&gt;hypothetical protein&lt;br&gt;Location: 971776 - 975355" locus_tag="MCIC6FC_007605" class="clusterblast-orf" id="dummy-3_q0_0_all"  />
<polygon points="86,35 91,30 112,30 112,40 91,40 86,35 " style="fill:white; stroke-width:1; stroke:black; " description="&lt;b&gt;MCIC6FC_007606&lt;/b&gt;&lt;br&gt;hypothetical protein&lt;br&gt;Location: 975381 - 976467" locus_tag="MCIC6FC_007606" class="clusterblast-orf" id="dummy-3_q1_0_all"  />
<polygon points="119,40 135,40 140,35 135,30 119,30 119,40 " style="fill:white; stroke-width:1; stroke:black; " description="&lt;b&gt;MCIC6FC_007607&lt;/b&gt;&lt;br&gt;hypothetical protein&lt;br&gt;Location: 976754 - 977637" locus_tag="MCIC6FC_007607" class="clusterblast-orf" id="dummy-3_q2_0_all"  />
<polygon points="146,35 151,30 165,30 165,40 151,40 146,35 " style="fill:white; stroke-width:1; stroke:black; " description="&lt;b&gt;MCIC6FC_007608&lt;/b&gt;&lt;br&gt;hypothetical protein&lt;br&gt;Location: 977867 - 978682" locus_tag="MCIC6FC_007608" class="clusterblast-orf" id="dummy-3_q3_0_all"  />
<polygon points="169,40 189,40 194,35 189,30 169,30 169,40 " style="fill:#d81515; stroke-width:1; stroke:black; " description="&lt;b&gt;MCIC6FC_007609&lt;/b&gt;&lt;br&gt;hypothetical protein&lt;br&gt;Location: 978819 - 979881" locus_tag="MCIC6FC_007609" class="clusterblast-orf" id="dummy-3_q4_0_all"  />
<polygon points="195,35 200,30 244,30 244,40 200,40 195,35 " style="fill:#77d815; stroke-width:1; stroke:black; " description="&lt;b&gt;MCIC6FC_007610&lt;/b&gt;&lt;br&gt;hypothetical protein&lt;br&gt;Location: 979916 - 981955" locus_tag="MCIC6FC_007610" class="clusterblast-orf" id="dummy-3_q5_0_all"  />
<polygon points="248,40 265,40 270,35 265,30 248,30 248,40 " style="fill:white; stroke-width:1; stroke:black; " description="&lt;b&gt;MCIC6FC_007611&lt;/b&gt;&lt;br&gt;hypothetical protein&lt;br&gt;Location: 982143 - 983026" locus_tag="MCIC6FC_007611" class="clusterblast-orf" id="dummy-3_q6_0_all"  />
<polygon points="277,35 282,30 305,30 305,40 282,40 277,35 " style="fill:#15d8d8; stroke-width:1; stroke:black; " description="&lt;b&gt;MCIC6FC_007612&lt;/b&gt;&lt;br&gt;hypothetical protein&lt;br&gt;Location: 983333 - 984520" locus_tag="MCIC6FC_007612" class="clusterblast-orf" id="dummy-3_q7_0_all"  />
<polygon points="311,40 317,40 322,35 317,30 311,30 311,40 " style="fill:#7715d8; stroke-width:1; stroke:black; " description="&lt;b&gt;MCIC6FC_007613&lt;/b&gt;&lt;br&gt;hypothetical protein&lt;br&gt;Location: 984737 - 985190" locus_tag="MCIC6FC_007613" class="clusterblast-orf" id="dummy-3_q8_0_all"  />
<polygon points="324,35 329,30 389,30 389,40 329,40 324,35 " style="fill:#d87715; stroke-width:1; stroke:black; " description="&lt;b&gt;MCIC6FC_007614&lt;/b&gt;&lt;br&gt;hypothetical protein&lt;br&gt;Location: 985312 - 987989" locus_tag="MCIC6FC_007614" class="clusterblast-orf" id="dummy-3_q9_0_all"  />
<polygon points="390,35 395,30 458,30 458,40 395,40 390,35 " style="fill:#15d815; stroke-width:1; stroke:black; " description="&lt;b&gt;MCIC6FC_007615&lt;/b&gt;&lt;br&gt;hypothetical protein&lt;br&gt;Location: 988056 - 990895" locus_tag="MCIC6FC_007615" class="clusterblast-orf" id="dummy-3_q10_0_all"  />
<polygon points="465,40 474,40 479,35 474,30 465,30 465,40 " style="fill:#1577d8; stroke-width:1; stroke:black; " description="&lt;b&gt;MCIC6FC_007616&lt;/b&gt;&lt;br&gt;hypothetical protein&lt;br&gt;Location: 991184 - 991775" locus_tag="MCIC6FC_007616" class="clusterblast-orf" id="dummy-3_q11_0_all"  />
<polygon points="481,35 486,30 497,30 497,40 486,40 481,35 " style="fill:#d815d8; stroke-width:1; stroke:black; " description="&lt;b&gt;MCIC6FC_007617&lt;/b&gt;&lt;br&gt;hypothetical protein&lt;br&gt;Location: 991824 - 992490" locus_tag="MCIC6FC_007617" class="clusterblast-orf" id="dummy-3_q12_0_all"  />
<polygon points="508,40 572,40 577,35 572,30 508,30 508,40 " style="fill:#d8d815; stroke-width:1; stroke:black; " description="&lt;b&gt;MCIC6FC_007618&lt;/b&gt;&lt;br&gt;hypothetical protein&lt;br&gt;Location: 992981 - 995855" locus_tag="MCIC6FC_007618" class="clusterblast-orf" id="dummy-3_q13_0_all"  />
<polygon points="578,40 654,40 659,35 654,30 578,30 578,40 " style="fill:#15d877; stroke-width:1; stroke:black; " description="&lt;b&gt;MCIC6FC_007619&lt;/b&gt;&lt;br&gt;hypothetical protein&lt;br&gt;Location: 995875 - 999269" locus_tag="MCIC6FC_007619" class="clusterblast-orf" id="dummy-3_q14_0_all"  />
<polygon points="659,35 664,30 737,30 737,40 664,40 659,35 " style="fill:#1515d8; stroke-width:1; stroke:black; " description="&lt;b&gt;MCIC6FC_007620&lt;/b&gt;&lt;br&gt;hypothetical protein&lt;br&gt;Location: 999279 - 1002494" locus_tag="MCIC6FC_007620" class="clusterblast-orf" id="dummy-3_q15_0_all"  />
<polygon points="738,35 743,30 769,30 769,40 743,40 738,35 " style="fill:#d81577; stroke-width:1; stroke:black; " description="&lt;b&gt;MCIC6FC_007621&lt;/b&gt;&lt;br&gt;hypothetical protein&lt;br&gt;Location: 1002561 - 1003827" locus_tag="MCIC6FC_007621" class="clusterblast-orf" id="dummy-3_q16_0_all"  />
<polygon points="770,35 775,30 780,30 780,40 775,40 770,35 " style="fill:white; stroke-width:1; stroke:black; " description="&lt;b&gt;MCIC6FC_007622&lt;/b&gt;&lt;br&gt;hypothetical protein&lt;br&gt;Location: 1003881 - 1004292" locus_tag="MCIC6FC_007622" class="clusterblast-orf" id="dummy-3_q17_0_all"  />
</g>
<g label="NZ_CP052856" description="NZ_CP052856 (1007055-1029861): Pseudomonas sp. ADAK22 chromosome, complete ge... (86% of genes show similarity), hserlactone,phenazine" class="clusterblast-cluster"  >
<text x="5" y="70" class="clusterblast-acc"  >
<a xlink:href="https://antismash-db.secondarymetabolites.org/area.html?record=NZ_CP052856&amp;start=1007055&amp;end=1029861" target="_blank">NZ_CP052856 (1007055-1029861)</a>: Pseudomonas sp. ADAK22 chromosome, complete ge... (86% of genes show similarity), hserlactone,phenazine</text>
<line x1="10" y1="85" x2="778.0" y2="85" style="stroke-width:1; stroke:grey; "  />
</g>
<g id="a3_000"  >
<polygon points="119,90 125,90 130,85 125,80 119,80 119,90 " style="fill:white; stroke-width:1; stroke:black; " description="&lt;b&gt;HKK58_RS04440&lt;/b&gt;&lt;br&gt;DUF393 domain-containing protein&lt;br&gt;Location: 1029697 - 1029233" locus_tag="HKK58_RS04440" class="clusterblast-orf" id="dummy-3_h3_3_0"  />
</g>
<g id="a3_001"  >
<polygon points="134,90 143,90 148,85 143,80 134,80 134,90 " style="fill:white; stroke-width:1; stroke:black; " description="&lt;b&gt;HKK58_RS04435&lt;/b&gt;&lt;br&gt;GTP cyclohydrolase I FolE&lt;br&gt;Location: 1029079 - 1028510" locus_tag="HKK58_RS04435" class="clusterblast-orf" id="dummy-3_h3_3_1"  />
</g>
<g id="a3_002"  >
<polygon points="148,90 160,90 165,85 160,80 148,80 148,90 " style="fill:white; stroke-width:1; stroke:black; " description="&lt;b&gt;HKK58_RS04430&lt;/b&gt;&lt;br&gt;SDR family oxidoreductase&lt;br&gt;Location: 1028473 - 1027763" locus_tag="HKK58_RS04430" class="clusterblast-orf" id="dummy-3_h3_3_2"  />
</g>
<g id="a3_003"  >
<polygon points="166,85 171,80 180,80 180,90 171,90 166,85 " style="fill:#15d8d8; stroke-width:1; stroke:black; " description="&lt;b&gt;HKK58_RS04425&lt;/b&gt;&lt;br&gt;VTT domain-containing protein&lt;br&gt;Location: 1027739 - 1027158&lt;br&gt;&lt;br&gt;&lt;b&gt;BlastP hit with MCIC6FC_007612&lt;/b&gt;&lt;br&gt;Percentage identity: 98&lt;br&gt;Percentage coverage: 71&lt;br&gt;BLAST bit score: 382&lt;br&gt;E-value: 4.4e-104" locus_tag="HKK58_RS04425" class="clusterblast-orf" id="dummy-3_h3_3_3"  />
</g>
<g id="a3_004"  >
<polygon points="188,85 193,80 194,80 194,90 193,90 188,85 " style="fill:#15d8d8; stroke-width:1; stroke:black; " description="&lt;b&gt;HKK58_RS04420&lt;/b&gt;&lt;br&gt;CsbD family protein&lt;br&gt;Location: 1026825 - 1026577&lt;br&gt;&lt;br&gt;&lt;b&gt;BlastP hit with MCIC6FC_007612&lt;/b&gt;&lt;br&gt;Percentage identity: 94&lt;br&gt;Percentage coverage: 29&lt;br&gt;BLAST bit score: 138&lt;br&gt;E-value: 1.4e-30" locus_tag="HKK58_RS04420" class="clusterblast-orf" id="dummy-3_h3_3_4"  />
</g>
<g id="a3_005"  >
<polygon points="201,90 207,90 212,85 207,80 201,80 201,90 " style="fill:#7715d8; stroke-width:1; stroke:black; " description="&lt;b&gt;HKK58_RS04415&lt;/b&gt;&lt;br&gt;PAS domain-containing protein&lt;br&gt;Location: 1026276 - 1025809&lt;br&gt;&lt;br&gt;&lt;b&gt;BlastP hit with MCIC6FC_007613&lt;/b&gt;&lt;br&gt;Percentage identity: 89&lt;br&gt;Percentage coverage: 99&lt;br&gt;BLAST bit score: 263&lt;br&gt;E-value: 1.6e-68" locus_tag="HKK58_RS04415" class="clusterblast-orf" id="dummy-3_h3_3_5"  />
</g>
<g id="a3_006"  >
<polygon points="214,85 219,80 238,80 238,90 219,90 214,85 " style="fill:#d87715; stroke-width:1; stroke:black; " description="&lt;b&gt;HKK58_RS04410&lt;/b&gt;&lt;br&gt;XdhC family protein&lt;br&gt;Location: 1025732 - 1024761&lt;br&gt;&lt;br&gt;&lt;b&gt;BlastP hit with MCIC6FC_007614&lt;/b&gt;&lt;br&gt;Percentage identity: 95&lt;br&gt;Percentage coverage: 37&lt;br&gt;BLAST bit score: 591&lt;br&gt;E-value: 1.2e-166" locus_tag="HKK58_RS04410" class="clusterblast-orf" id="dummy-3_h3_3_6"  />
</g>
<g id="a3_007"  >
<polygon points="238,85 243,80 267,80 267,90 243,90 238,85 " style="fill:#d87715; stroke-width:1; stroke:black; " description="&lt;b&gt;HKK58_RS04405&lt;/b&gt;&lt;br&gt;c-type cytochrome&lt;br&gt;Location: 1024759 - 1023524&lt;br&gt;&lt;br&gt;&lt;b&gt;BlastP hit with MCIC6FC_007614&lt;/b&gt;&lt;br&gt;Percentage identity: 96&lt;br&gt;Percentage coverage: 46&lt;br&gt;BLAST bit score: 788&lt;br&gt;E-value: 6.4e-226" locus_tag="HKK58_RS04405" class="clusterblast-orf" id="dummy-3_h3_3_7"  />
</g>
<g id="a3_008"  >
<polygon points="267,85 272,80 280,80 280,90 272,90 267,85 " style="fill:#d87715; stroke-width:1; stroke:black; " description="&lt;b&gt;HKK58_RS04400&lt;/b&gt;&lt;br&gt;2Fe-2S iron-sulfur cluster binding domain-containing protein&lt;br&gt;Location: 1023521 - 1022982&lt;br&gt;&lt;br&gt;&lt;b&gt;BlastP hit with MCIC6FC_007614&lt;/b&gt;&lt;br&gt;Percentage identity: 97&lt;br&gt;Percentage coverage: 17&lt;br&gt;BLAST bit score: 311&lt;br&gt;E-value: 2.3e-82" locus_tag="HKK58_RS04400" class="clusterblast-orf" id="dummy-3_h3_3_8"  />
</g>
<g id="a3_009"  >
<polygon points="280,85 285,80 348,80 348,90 285,90 280,85 " style="fill:#15d815; stroke-width:1; stroke:black; " description="&lt;b&gt;HKK58_RS04395&lt;/b&gt;&lt;br&gt;molybdopterin-dependent oxidoreductase&lt;br&gt;Location: 1022989 - 1020158&lt;br&gt;&lt;br&gt;&lt;b&gt;BlastP hit with MCIC6FC_007615&lt;/b&gt;&lt;br&gt;Percentage identity: 98&lt;br&gt;Percentage coverage: 100&lt;br&gt;BLAST bit score: 1876&lt;br&gt;E-value: 0.0" locus_tag="HKK58_RS04395" class="clusterblast-orf" id="dummy-3_h3_3_9"  />
</g>
<g id="a3_0010"  >
<polygon points="355,90 364,90 369,85 364,80 355,80 355,90 " style="fill:#1577d8; stroke-width:1; stroke:black; " description="&lt;b&gt;HKK58_RS04390&lt;/b&gt;&lt;br&gt;GNAT family N-acetyltransferase&lt;br&gt;Location: 1019861 - 1019271&lt;br&gt;&lt;br&gt;&lt;b&gt;BlastP hit with MCIC6FC_007616&lt;/b&gt;&lt;br&gt;Percentage identity: 94&lt;br&gt;Percentage coverage: 100&lt;br&gt;BLAST bit score: 391&lt;br&gt;E-value: 5.2e-107" locus_tag="HKK58_RS04390" class="clusterblast-orf" id="dummy-3_h3_3_10"  />
</g>
<g id="a3_0011"  >
<polygon points="370,85 375,80 386,80 386,90 375,90 370,85 " style="fill:#d815d8; stroke-width:1; stroke:black; " description="&lt;b&gt;HKK58_RS04385&lt;/b&gt;&lt;br&gt;autoinducer binding domain-containing protein&lt;br&gt;Location: 1019221 - 1018586&lt;br&gt;&lt;br&gt;&lt;b&gt;BlastP hit with MCIC6FC_007617&lt;/b&gt;&lt;br&gt;Percentage identity: 96&lt;br&gt;Percentage coverage: 95&lt;br&gt;BLAST bit score: 418&lt;br&gt;E-value: 3.4e-115" locus_tag="HKK58_RS04385" class="clusterblast-orf" id="dummy-3_h3_3_11"  />
</g>
<g id="a3_0012"  >
<polygon points="398,90 405,90 410,85 405,80 398,80 398,90 " style="fill:#d8d815; stroke-width:1; stroke:black; " description="&lt;b&gt;HKK58_RS04380&lt;/b&gt;&lt;br&gt;PhzA/PhzB family protein&lt;br&gt;Location: 1018064 - 1017573&lt;br&gt;&lt;br&gt;&lt;b&gt;BlastP hit with MCIC6FC_007618&lt;/b&gt;&lt;br&gt;Percentage identity: 98&lt;br&gt;Percentage coverage: 18&lt;br&gt;BLAST bit score: 336&lt;br&gt;E-value: 1.2e-89" locus_tag="HKK58_RS04380" class="clusterblast-orf" id="dummy-3_h3_3_12"  />
</g>
<g id="a3_0013"  >
<polygon points="411,90 417,90 422,85 417,80 411,80 411,90 " style="fill:#d8d815; stroke-width:1; stroke:black; " description="&lt;b&gt;HKK58_RS04375&lt;/b&gt;&lt;br&gt;PhzA/PhzB family protein&lt;br&gt;Location: 1017547 - 1017056&lt;br&gt;&lt;br&gt;&lt;b&gt;BlastP hit with MCIC6FC_007618&lt;/b&gt;&lt;br&gt;Percentage identity: 97&lt;br&gt;Percentage coverage: 17&lt;br&gt;BLAST bit score: 319&lt;br&gt;E-value: 1.5e-84" locus_tag="HKK58_RS04375" class="clusterblast-orf" id="dummy-3_h3_3_13"  />
</g>
<g id="a3_0014"  >
<polygon points="423,90 447,90 452,85 447,80 423,80 423,90 " style="fill:#d8d815; stroke-width:1; stroke:black; " description="&lt;b&gt;HKK58_RS04370&lt;/b&gt;&lt;br&gt;3-deoxy-7-phosphoheptulonate synthase&lt;br&gt;Location: 1017032 - 1015830&lt;br&gt;&lt;br&gt;&lt;b&gt;BlastP hit with MCIC6FC_007618&lt;/b&gt;&lt;br&gt;Percentage identity: 98&lt;br&gt;Percentage coverage: 43&lt;br&gt;BLAST bit score: 753&lt;br&gt;E-value: 1.8e-215" locus_tag="HKK58_RS04370" class="clusterblast-orf" id="dummy-3_h3_3_14"  />
</g>
<g id="a3_0015"  >
<polygon points="452,90 462,90 467,85 462,80 452,80 452,90 " style="fill:#d8d815; stroke-width:1; stroke:black; " description="&lt;b&gt;HKK58_RS04365&lt;/b&gt;&lt;br&gt;isochorismatase family protein&lt;br&gt;Location: 1015814 - 1015191&lt;br&gt;&lt;br&gt;&lt;b&gt;BlastP hit with MCIC6FC_007618&lt;/b&gt;&lt;br&gt;Percentage identity: 100&lt;br&gt;Percentage coverage: 23&lt;br&gt;BLAST bit score: 426&lt;br&gt;E-value: 5.1e-117" locus_tag="HKK58_RS04365" class="clusterblast-orf" id="dummy-3_h3_3_15"  />
</g>
<g id="a3_0016"  >
<polygon points="467,90 508,90 513,85 508,80 467,80 467,90 " style="fill:#15d877; stroke-width:1; stroke:black; " description="&lt;b&gt;HKK58_RS04360&lt;/b&gt;&lt;br&gt;chorismate-binding protein&lt;br&gt;Location: 1015194 - 1013281&lt;br&gt;&lt;br&gt;&lt;b&gt;BlastP hit with MCIC6FC_007619&lt;/b&gt;&lt;br&gt;Percentage identity: 99&lt;br&gt;Percentage coverage: 56&lt;br&gt;BLAST bit score: 1206&lt;br&gt;E-value: 0.0" locus_tag="HKK58_RS04360" class="clusterblast-orf" id="dummy-3_h3_3_16"  />
</g>
<g id="a3_0017"  >
<polygon points="513,90 528,90 533,85 528,80 513,80 513,90 " style="fill:#15d877; stroke-width:1; stroke:black; " description="&lt;b&gt;HKK58_RS04355&lt;/b&gt;&lt;br&gt;PhzF family phenazine biosynthesis protein&lt;br&gt;Location: 1013278 - 1012442&lt;br&gt;&lt;br&gt;&lt;b&gt;BlastP hit with MCIC6FC_007619&lt;/b&gt;&lt;br&gt;Percentage identity: 98&lt;br&gt;Percentage coverage: 25&lt;br&gt;BLAST bit score: 553&lt;br&gt;E-value: 4.5e-155" locus_tag="HKK58_RS04355" class="clusterblast-orf" id="dummy-3_h3_3_17"  />
</g>
<g id="a3_0018"  >
<polygon points="533,90 544,90 549,85 544,80 533,80 533,90 " style="fill:#15d877; stroke-width:1; stroke:black; " description="&lt;b&gt;HKK58_RS04350&lt;/b&gt;&lt;br&gt;phenazine biosynthesis FMN-dependent oxidase PhzG&lt;br&gt;Location: 1012445 - 1011777&lt;br&gt;&lt;br&gt;&lt;b&gt;BlastP hit with MCIC6FC_007619&lt;/b&gt;&lt;br&gt;Percentage identity: 98&lt;br&gt;Percentage coverage: 19&lt;br&gt;BLAST bit score: 428&lt;br&gt;E-value: 1.7e-117" locus_tag="HKK58_RS04350" class="clusterblast-orf" id="dummy-3_h3_3_18"  />
</g>
<g id="a3_0019"  >
<polygon points="549,85 554,80 564,80 564,90 554,90 549,85 " style="fill:#1515d8; stroke-width:1; stroke:black; " description="&lt;b&gt;HKK58_RS04345&lt;/b&gt;&lt;br&gt;thymidylate kinase&lt;br&gt;Location: 1011766 - 1011149&lt;br&gt;&lt;br&gt;&lt;b&gt;BlastP hit with MCIC6FC_007620&lt;/b&gt;&lt;br&gt;Percentage identity: 97&lt;br&gt;Percentage coverage: 20&lt;br&gt;BLAST bit score: 399&lt;br&gt;E-value: 7.5e-109" locus_tag="HKK58_RS04345" class="clusterblast-orf" id="dummy-3_h3_3_19"  />
</g>
<g id="a3_0020"  >
<polygon points="568,85 573,80 598,80 598,90 573,90 568,85 " style="fill:#1515d8; stroke-width:1; stroke:black; " description="&lt;b&gt;HKK58_RS04340&lt;/b&gt;&lt;br&gt;phosphopentomutase&lt;br&gt;Location: 1010963 - 1009734&lt;br&gt;&lt;br&gt;&lt;b&gt;BlastP hit with MCIC6FC_007620&lt;/b&gt;&lt;br&gt;Percentage identity: 95&lt;br&gt;Percentage coverage: 40&lt;br&gt;BLAST bit score: 784&lt;br&gt;E-value: 1.9e-224" locus_tag="HKK58_RS04340" class="clusterblast-orf" id="dummy-3_h3_3_20"  />
</g>
<g id="a3_0021"  >
<polygon points="598,85 603,80 629,80 629,90 603,90 598,85 " style="fill:#1515d8; stroke-width:1; stroke:black; " description="&lt;b&gt;HKK58_RS04335&lt;/b&gt;&lt;br&gt;thymidine phosphorylase&lt;br&gt;Location: 1009737 - 1008430&lt;br&gt;&lt;br&gt;&lt;b&gt;BlastP hit with MCIC6FC_007620&lt;/b&gt;&lt;br&gt;Percentage identity: 98&lt;br&gt;Percentage coverage: 40&lt;br&gt;BLAST bit score: 771&lt;br&gt;E-value: 1.2e-220" locus_tag="HKK58_RS04335" class="clusterblast-orf" id="dummy-3_h3_3_21"  />
</g>
<g id="a3_0022"  >
<polygon points="630,85 635,80 660,80 660,90 635,90 630,85 " style="fill:#d81577; stroke-width:1; stroke:black; " description="&lt;b&gt;HKK58_RS04330&lt;/b&gt;&lt;br&gt;NupC/NupG family nucleoside CNT transporter&lt;br&gt;Location: 1008419 - 1007154&lt;br&gt;&lt;br&gt;&lt;b&gt;BlastP hit with MCIC6FC_007621&lt;/b&gt;&lt;br&gt;Percentage identity: 99&lt;br&gt;Percentage coverage: 100&lt;br&gt;BLAST bit score: 765&lt;br&gt;E-value: 2.8e-219" locus_tag="HKK58_RS04330" class="clusterblast-orf" id="dummy-3_h3_3_22"  />
</g>
</svg>
