<svg xmlns="http://www.w3.org/2000/svg" xmlns:xlink="http://www.w3.org/1999/xlink" version="1.1" x="0" y="0" height="230" width="800" viewBox="0 0 800 230" preserveAspectRatio="none"  >
<g label="Query sequence" class="clusterblast-cluster"  >
<text x="5" y="20" class="clusterblast-acc"  >
Query sequence</text>
<line x1="10" y1="35" x2="778.0" y2="35" style="stroke-width:1; stroke:grey; "  />
<polygon points="144,40 194,40 199,35 194,30 144,30 144,40 " style="fill:#d81515; stroke-width:1; stroke:black; " description="&lt;b&gt;MCIC6FC_019806&lt;/b&gt;&lt;br&gt;hypothetical protein&lt;br&gt;Location: 44058 - 45851" locus_tag="MCIC6FC_019806" class="clusterblast-orf" id="dummy-1_q0_0_all"  />
<polygon points="202,35 207,30 243,30 243,40 207,40 202,35 " style="fill:#3cd815; stroke-width:1; stroke:black; " description="&lt;b&gt;MCIC6FC_019807&lt;/b&gt;&lt;br&gt;hypothetical protein&lt;br&gt;Location: 45981 - 47312" locus_tag="MCIC6FC_019807" class="clusterblast-orf" id="dummy-1_q1_0_all"  />
<polygon points="244,40 309,40 314,35 309,30 244,30 244,40 " style="fill:#1563d8; stroke-width:1; stroke:black; " description="&lt;b&gt;MCIC6FC_019808&lt;/b&gt;&lt;br&gt;hypothetical protein&lt;br&gt;Location: 47362 - 49671" locus_tag="MCIC6FC_019808" class="clusterblast-orf" id="dummy-1_q2_0_all"  />
<polygon points="332,35 337,30 381,30 381,40 337,40 332,35 " style="fill:#b115d8; stroke-width:1; stroke:black; " description="&lt;b&gt;MCIC6FC_019809&lt;/b&gt;&lt;br&gt;hypothetical protein&lt;br&gt;Location: 50264 - 51899" locus_tag="MCIC6FC_019809" class="clusterblast-orf" id="dummy-1_q3_0_all"  />
<polygon points="386,40 416,40 421,35 416,30 386,30 386,40 " style="fill:#d88a15; stroke-width:1; stroke:black; " description="&lt;b&gt;MCIC6FC_019810&lt;/b&gt;&lt;br&gt;hypothetical protein&lt;br&gt;Location: 52046 - 53210" locus_tag="MCIC6FC_019810" class="clusterblast-orf" id="dummy-1_q4_0_all"  />
<polygon points="421,40 465,40 470,35 465,30 421,30 421,40 " style="fill:#15d863; stroke-width:1; stroke:black; " description="&lt;b&gt;MCIC6FC_019811&lt;/b&gt;&lt;br&gt;hypothetical protein&lt;br&gt;Location: 53221 - 54828" locus_tag="MCIC6FC_019811" class="clusterblast-orf" id="dummy-1_q5_0_all"  />
<polygon points="470,40 548,40 553,35 548,30 470,30 470,40 " style="fill:#3c15d8; stroke-width:1; stroke:black; " description="&lt;b&gt;MCIC6FC_019812&lt;/b&gt;&lt;br&gt;hypothetical protein&lt;br&gt;Location: 54843 - 57573" locus_tag="MCIC6FC_019812" class="clusterblast-orf" id="dummy-1_q6_0_all"  />
<polygon points="555,35 560,30 573,30 573,40 560,40 555,35 " style="fill:#d8158a; stroke-width:1; stroke:black; " description="&lt;b&gt;MCIC6FC_019813&lt;/b&gt;&lt;br&gt;hypothetical protein&lt;br&gt;Location: 57648 - 58261" locus_tag="MCIC6FC_019813" class="clusterblast-orf" id="dummy-1_q7_0_all"  />
<polygon points="576,40 581,40 586,35 581,30 576,30 576,40 " style="fill:#b1d815; stroke-width:1; stroke:black; " description="&lt;b&gt;MCIC6FC_019814&lt;/b&gt;&lt;br&gt;hypothetical protein&lt;br&gt;Location: 58334 - 58685" locus_tag="MCIC6FC_019814" class="clusterblast-orf" id="dummy-1_q8_0_all"  />
<polygon points="600,40 630,40 635,35 630,30 600,30 600,40 " style="fill:#15d8d8; stroke-width:1; stroke:black; " description="&lt;b&gt;MCIC6FC_019815&lt;/b&gt;&lt;br&gt;hypothetical protein&lt;br&gt;Location: 59151 - 60304" locus_tag="MCIC6FC_019815" class="clusterblast-orf" id="dummy-1_q9_0_all"  />
</g>
<g label="NZ_CP019856" description="NZ_CP019856 (4157722-4186036): Pseudomonas azotoformans strain F77 chromosome... (72% of genes show similarity), betalactone" class="clusterblast-cluster"  >
<text x="5" y="70" class="clusterblast-acc"  >
<a xlink:href="https://antismash-db.secondarymetabolites.org/area.html?record=NZ_CP019856&amp;start=4157722&amp;end=4186036" target="_blank">NZ_CP019856 (4157722-4186036)</a>: Pseudomonas azotoformans strain F77 chromosome... (72% of genes show similarity), betalactone</text>
<line x1="10" y1="85" x2="778.0" y2="85" style="stroke-width:1; stroke:grey; "  />
</g>
<g id="a1_000"  >
<polygon points="0,85 5,80 52,80 52,90 5,90 0,85 " style="fill:white; stroke-width:1; stroke:black; " description="&lt;b&gt;B1R45_RS18955&lt;/b&gt;&lt;br&gt;outer membrane protein assembly factor&lt;br&gt;Location: 4159251 - 4160978" locus_tag="B1R45_RS18955" class="clusterblast-orf" id="dummy-1_h1_6_0"  />
</g>
<g id="a1_001"  >
<polygon points="54,85 59,80 73,80 73,90 59,90 54,85 " style="fill:white; stroke-width:1; stroke:black; " description="&lt;b&gt;B1R45_RS18960&lt;/b&gt;&lt;br&gt;GNAT family N-acetyltransferase&lt;br&gt;Location: 4161043 - 4161693" locus_tag="B1R45_RS18960" class="clusterblast-orf" id="dummy-1_h1_6_1"  />
</g>
<g id="a1_002"  >
<polygon points="78,90 98,90 103,85 98,80 78,80 78,90 " style="fill:white; stroke-width:1; stroke:black; " description="&lt;b&gt;B1R45_RS18965&lt;/b&gt;&lt;br&gt;exodeoxyribonuclease III&lt;br&gt;Location: 4161863 - 4162675" locus_tag="B1R45_RS18965" class="clusterblast-orf" id="dummy-1_h1_6_2"  />
</g>
<g id="a1_003"  >
<polygon points="123,90 159,90 164,85 159,80 123,80 123,90 " style="fill:#d81515; stroke-width:1; stroke:black; " description="&lt;b&gt;B1R45_RS18970&lt;/b&gt;&lt;br&gt;OmpA family protein&lt;br&gt;Location: 4163355 - 4164686&lt;br&gt;&lt;br&gt;&lt;b&gt;BlastP hit with MCIC6FC_019806&lt;/b&gt;&lt;br&gt;Percentage identity: 93&lt;br&gt;Percentage coverage: 94&lt;br&gt;BLAST bit score: 802&lt;br&gt;E-value: 1.8e-230" locus_tag="B1R45_RS18970" class="clusterblast-orf" id="dummy-1_h1_6_3"  />
</g>
<g id="a1_004"  >
<polygon points="168,85 173,80 205,80 205,90 173,90 168,85 " style="fill:#3cd815; stroke-width:1; stroke:black; " description="&lt;b&gt;B1R45_RS18975&lt;/b&gt;&lt;br&gt;acyl-CoA dehydrogenase&lt;br&gt;Location: 4164818 - 4166047&lt;br&gt;&lt;br&gt;&lt;b&gt;BlastP hit with MCIC6FC_019807&lt;/b&gt;&lt;br&gt;Percentage identity: 99&lt;br&gt;Percentage coverage: 98&lt;br&gt;BLAST bit score: 828&lt;br&gt;E-value: 2.7e-238" locus_tag="B1R45_RS18975" class="clusterblast-orf" id="dummy-1_h1_6_4"  />
</g>
<g id="a1_005"  >
<polygon points="209,90 233,90 238,85 233,80 209,80 209,90 " style="fill:#1563d8; stroke-width:1; stroke:black; " description="&lt;b&gt;B1R45_RS18980&lt;/b&gt;&lt;br&gt;LysR family transcriptional regulator&lt;br&gt;Location: 4166199 - 4167134&lt;br&gt;&lt;br&gt;&lt;b&gt;BlastP hit with MCIC6FC_019808&lt;/b&gt;&lt;br&gt;Percentage identity: 99&lt;br&gt;Percentage coverage: 43&lt;br&gt;BLAST bit score: 606&lt;br&gt;E-value: 2.9e-171" locus_tag="B1R45_RS18980" class="clusterblast-orf" id="dummy-1_h1_6_5"  />
</g>
<g id="a1_006"  >
<polygon points="243,90 250,90 255,85 250,80 243,80 243,90 " style="fill:#1563d8; stroke-width:1; stroke:black; " description="&lt;b&gt;B1R45_RS18985&lt;/b&gt;&lt;br&gt;MerR family DNA-binding transcriptional regulator&lt;br&gt;Location: 4167313 - 4167705&lt;br&gt;&lt;br&gt;&lt;b&gt;BlastP hit with MCIC6FC_019808&lt;/b&gt;&lt;br&gt;Percentage identity: 98&lt;br&gt;Percentage coverage: 13&lt;br&gt;BLAST bit score: 183&lt;br&gt;E-value: 1e-43" locus_tag="B1R45_RS18985" class="clusterblast-orf" id="dummy-1_h1_6_6"  />
</g>
<g id="a1_007"  >
<polygon points="255,90 278,90 283,85 278,80 255,80 255,90 " style="fill:#1563d8; stroke-width:1; stroke:black; " description="&lt;b&gt;B1R45_RS18990&lt;/b&gt;&lt;br&gt;hydroxymethylglutaryl-CoA lyase&lt;br&gt;Location: 4167723 - 4168622&lt;br&gt;&lt;br&gt;&lt;b&gt;BlastP hit with MCIC6FC_019808&lt;/b&gt;&lt;br&gt;Percentage identity: 95&lt;br&gt;Percentage coverage: 42&lt;br&gt;BLAST bit score: 561&lt;br&gt;E-value: 1.1e-157" locus_tag="B1R45_RS18990" class="clusterblast-orf" id="dummy-1_h1_6_7"  />
</g>
<g id="a1_008"  >
<polygon points="299,85 304,80 455,80 455,90 304,90 299,85 " style="fill:white; stroke-width:1; stroke:black; " description="&lt;b&gt;B1R45_RS18995&lt;/b&gt;&lt;br&gt;hypothetical protein&lt;br&gt;Location: 4169170 - 4174326" locus_tag="B1R45_RS18995" class="clusterblast-orf" id="dummy-1_h1_6_8"  />
</g>
<g id="a1_009"  >
<polygon points="457,85 462,80 507,80 507,90 462,90 457,85 " style="fill:#b115d8; stroke-width:1; stroke:black; " description="&lt;b&gt;B1R45_RS19000&lt;/b&gt;&lt;br&gt;AMP-binding protein&lt;br&gt;Location: 4174402 - 4176036&lt;br&gt;&lt;br&gt;&lt;b&gt;BlastP hit with MCIC6FC_019809&lt;/b&gt;&lt;br&gt;Percentage identity: 95&lt;br&gt;Percentage coverage: 99&lt;br&gt;BLAST bit score: 1081&lt;br&gt;E-value: 0.0" locus_tag="B1R45_RS19000" class="clusterblast-orf" id="dummy-1_h1_6_9"  />
</g>
<g id="a1_0010"  >
<polygon points="511,90 541,90 546,85 541,80 511,80 511,90 " style="fill:#d88a15; stroke-width:1; stroke:black; " description="&lt;b&gt;B1R45_RS19005&lt;/b&gt;&lt;br&gt;isovaleryl-CoA dehydrogenase&lt;br&gt;Location: 4176185 - 4177348&lt;br&gt;&lt;br&gt;&lt;b&gt;BlastP hit with MCIC6FC_019810&lt;/b&gt;&lt;br&gt;Percentage identity: 99&lt;br&gt;Percentage coverage: 100&lt;br&gt;BLAST bit score: 771&lt;br&gt;E-value: 3.6e-221" locus_tag="B1R45_RS19005" class="clusterblast-orf" id="dummy-1_h1_6_10"  />
</g>
<g id="a1_0011"  >
<polygon points="547,90 590,90 595,85 590,80 547,80 547,90 " style="fill:#15d863; stroke-width:1; stroke:black; " description="&lt;b&gt;B1R45_RS19010&lt;/b&gt;&lt;br&gt;methylcrotonoyl-CoA carboxylase&lt;br&gt;Location: 4177360 - 4178967&lt;br&gt;&lt;br&gt;&lt;b&gt;BlastP hit with MCIC6FC_019811&lt;/b&gt;&lt;br&gt;Percentage identity: 96&lt;br&gt;Percentage coverage: 103&lt;br&gt;BLAST bit score: 1019&lt;br&gt;E-value: 1.3e-295" locus_tag="B1R45_RS19010" class="clusterblast-orf" id="dummy-1_h1_6_11"  />
</g>
<g id="a1_0012"  >
<polygon points="596,90 615,90 620,85 615,80 596,80 596,90 " style="fill:#3c15d8; stroke-width:1; stroke:black; " description="&lt;b&gt;B1R45_RS19015&lt;/b&gt;&lt;br&gt;gamma-carboxygeranoyl-CoA hydratase&lt;br&gt;Location: 4178983 - 4179789&lt;br&gt;&lt;br&gt;&lt;b&gt;BlastP hit with MCIC6FC_019812&lt;/b&gt;&lt;br&gt;Percentage identity: 87&lt;br&gt;Percentage coverage: 31&lt;br&gt;BLAST bit score: 435&lt;br&gt;E-value: 1e-119" locus_tag="B1R45_RS19015" class="clusterblast-orf" id="dummy-1_h1_6_12"  />
</g>
<g id="a1_0013"  >
<polygon points="620,90 673,90 678,85 673,80 620,80 620,90 " style="fill:#3c15d8; stroke-width:1; stroke:black; " description="&lt;b&gt;B1R45_RS19020&lt;/b&gt;&lt;br&gt;acetyl/propionyl/methylcrotonyl-CoA carboxylase subunit alpha&lt;br&gt;Location: 4179786 - 4181711&lt;br&gt;&lt;br&gt;&lt;b&gt;BlastP hit with MCIC6FC_019812&lt;/b&gt;&lt;br&gt;Percentage identity: 94&lt;br&gt;Percentage coverage: 72&lt;br&gt;BLAST bit score: 1133&lt;br&gt;E-value: 0.0" locus_tag="B1R45_RS19020" class="clusterblast-orf" id="dummy-1_h1_6_13"  />
</g>
<g id="a1_0014"  >
<polygon points="678,85 683,80 697,80 697,90 683,90 678,85 " style="fill:#d8158a; stroke-width:1; stroke:black; " description="&lt;b&gt;B1R45_RS19025&lt;/b&gt;&lt;br&gt;helix-turn-helix domain-containing protein&lt;br&gt;Location: 4181708 - 4182340&lt;br&gt;&lt;br&gt;&lt;b&gt;BlastP hit with MCIC6FC_019813&lt;/b&gt;&lt;br&gt;Percentage identity: 89&lt;br&gt;Percentage coverage: 70&lt;br&gt;BLAST bit score: 249&lt;br&gt;E-value: 2.3e-64" locus_tag="B1R45_RS19025" class="clusterblast-orf" id="dummy-1_h1_6_14"  />
</g>
<g id="a1_0015"  >
<polygon points="701,90 707,90 712,85 707,80 701,80 701,90 " style="fill:#b1d815; stroke-width:1; stroke:black; " description="&lt;b&gt;B1R45_RS19030&lt;/b&gt;&lt;br&gt;DUF3077 domain-containing protein&lt;br&gt;Location: 4182472 - 4182822&lt;br&gt;&lt;br&gt;&lt;b&gt;BlastP hit with MCIC6FC_019814&lt;/b&gt;&lt;br&gt;Percentage identity: 92&lt;br&gt;Percentage coverage: 100&lt;br&gt;BLAST bit score: 204&lt;br&gt;E-value: 5.3e-51" locus_tag="B1R45_RS19030" class="clusterblast-orf" id="dummy-1_h1_6_15"  />
</g>
<g id="a1_0016"  >
<polygon points="726,90 755,90 760,85 755,80 726,80 726,90 " style="fill:#15d8d8; stroke-width:1; stroke:black; " description="&lt;b&gt;B1R45_RS19035&lt;/b&gt;&lt;br&gt;carboxypeptidase family protein&lt;br&gt;Location: 4183290 - 4184441&lt;br&gt;&lt;br&gt;&lt;b&gt;BlastP hit with MCIC6FC_019815&lt;/b&gt;&lt;br&gt;Percentage identity: 90&lt;br&gt;Percentage coverage: 103&lt;br&gt;BLAST bit score: 689&lt;br&gt;E-value: 1.8e-196" locus_tag="B1R45_RS19035" class="clusterblast-orf" id="dummy-1_h1_6_16"  />
</g>
<g id="a1_0017"  >
<polygon points="763,85 768,80 780,80 780,90 768,90 763,85 " style="fill:white; stroke-width:1; stroke:black; " description="&lt;b&gt;B1R45_RS19040&lt;/b&gt;&lt;br&gt;cytochrome b&lt;br&gt;Location: 4184533 - 4185072" locus_tag="B1R45_RS19040" class="clusterblast-orf" id="dummy-1_h1_6_17"  />
</g>
</svg>
