<svg xmlns="http://www.w3.org/2000/svg" xmlns:xlink="http://www.w3.org/1999/xlink" version="1.1" x="0" y="0" height="230" width="800" viewBox="0 0 800 230" preserveAspectRatio="none"  >
<g label="Query sequence" class="clusterblast-cluster"  >
<text x="5" y="20" class="clusterblast-acc"  >
Query sequence</text>
<line x1="10" y1="35" x2="778.0" y2="35" style="stroke-width:1; stroke:grey; "  />
<polygon points="0,35 5,30 50,30 50,40 5,40 0,35 " style="fill:#d81515; stroke-width:1; stroke:black; " description="&lt;b&gt;MCIC6FC_011599&lt;/b&gt;&lt;br&gt;hypothetical protein&lt;br&gt;Location: 40 - 2361" locus_tag="MCIC6FC_011599" class="clusterblast-orf" id="dummy-1_q0_0_all"  />
<polygon points="52,35 57,30 85,30 85,40 57,40 52,35 " style="fill:#3cd815; stroke-width:1; stroke:black; " description="&lt;b&gt;MCIC6FC_011600&lt;/b&gt;&lt;br&gt;hypothetical protein&lt;br&gt;Location: 2465 - 3961" locus_tag="MCIC6FC_011600" class="clusterblast-orf" id="dummy-1_q1_0_all"  />
<polygon points="91,40 126,40 131,35 126,30 91,30 91,40 " style="fill:#1563d8; stroke-width:1; stroke:black; " description="&lt;b&gt;MCIC6FC_011601&lt;/b&gt;&lt;br&gt;hypothetical protein&lt;br&gt;Location: 4240 - 6121" locus_tag="MCIC6FC_011601" class="clusterblast-orf" id="dummy-1_q2_0_all"  />
<polygon points="132,35 137,30 142,30 142,40 137,40 132,35 " style="fill:#b115d8; stroke-width:1; stroke:black; " description="&lt;b&gt;MCIC6FC_011602&lt;/b&gt;&lt;br&gt;hypothetical protein&lt;br&gt;Location: 6159 - 6618" locus_tag="MCIC6FC_011602" class="clusterblast-orf" id="dummy-1_q3_0_all"  />
<polygon points="142,35 147,30 249,30 249,40 147,40 142,35 " style="fill:#d88a15; stroke-width:1; stroke:black; " description="&lt;b&gt;MCIC6FC_011603&lt;/b&gt;&lt;br&gt;hypothetical protein&lt;br&gt;Location: 6635 - 11586" locus_tag="MCIC6FC_011603" class="clusterblast-orf" id="dummy-1_q4_0_all"  />
<polygon points="260,35 265,30 273,30 273,40 265,40 260,35 " style="fill:#15d863; stroke-width:1; stroke:black; " description="&lt;b&gt;MCIC6FC_011604&lt;/b&gt;&lt;br&gt;hypothetical protein&lt;br&gt;Location: 12075 - 12653" locus_tag="MCIC6FC_011604" class="clusterblast-orf" id="dummy-1_q5_0_all"  />
<polygon points="282,40 291,40 296,35 291,30 282,30 282,40 " style="fill:#3c15d8; stroke-width:1; stroke:black; " description="&lt;b&gt;MCIC6FC_011605&lt;/b&gt;&lt;br&gt;hypothetical protein&lt;br&gt;Location: 13106 - 13730" locus_tag="MCIC6FC_011605" class="clusterblast-orf" id="dummy-1_q6_0_all"  />
<polygon points="296,40 333,40 338,35 333,30 296,30 296,40 " style="fill:#d8158a; stroke-width:1; stroke:black; " description="&lt;b&gt;MCIC6FC_011606&lt;/b&gt;&lt;br&gt;hypothetical protein&lt;br&gt;Location: 13744 - 15691" locus_tag="MCIC6FC_011606" class="clusterblast-orf" id="dummy-1_q7_0_all"  />
<polygon points="342,35 347,30 667,30 667,40 347,40 342,35 " style="fill:#b1d815; stroke-width:1; stroke:black; " description="&lt;b&gt;MCIC6FC_011607&lt;/b&gt;&lt;br&gt;hypothetical protein&lt;br&gt;Location: 15843 - 30887" locus_tag="MCIC6FC_011607" class="clusterblast-orf" id="dummy-1_q8_0_all"  />
<polygon points="673,40 775,40 780,35 775,30 673,30 673,40 " style="fill:#15d8d8; stroke-width:1; stroke:black; " description="&lt;b&gt;MCIC6FC_011608&lt;/b&gt;&lt;br&gt;hypothetical protein&lt;br&gt;Location: 31189 - 36100" locus_tag="MCIC6FC_011608" class="clusterblast-orf" id="dummy-1_q9_0_all"  />
</g>
<g label="NZ_CP027762" description="NZ_CP027762 (112330-141721): Pseudomonas sp. LBUM920 chromosome, complete genome (61% of genes show similarity), NRPS-like" class="clusterblast-cluster"  >
<text x="5" y="70" class="clusterblast-acc"  >
<a xlink:href="https://antismash-db.secondarymetabolites.org/area.html?record=NZ_CP027762&amp;start=112330&amp;end=141721" target="_blank">NZ_CP027762 (112330-141721)</a>: Pseudomonas sp. LBUM920 chromosome, complete genome (61% of genes show similarity), NRPS-like</text>
<line x1="10" y1="85" x2="778.0" y2="85" style="stroke-width:1; stroke:grey; "  />
</g>
<g id="a1_000"  >
<polygon points="72,85 77,80 103,80 103,90 77,90 72,85 " style="fill:white; stroke-width:1; stroke:black; " description="&lt;b&gt;C4J83_RS00560&lt;/b&gt;&lt;br&gt;NAD(P)(+) transhydrogenase (Re/Si-specific) subunit beta&lt;br&gt;Location: 112331 - 113767" locus_tag="C4J83_RS00560" class="clusterblast-orf" id="dummy-1_h1_7_0"  />
</g>
<g id="a1_001"  >
<polygon points="103,85 108,80 110,80 110,90 108,90 103,85 " style="fill:white; stroke-width:1; stroke:black; " description="&lt;b&gt;C4J83_RS00565&lt;/b&gt;&lt;br&gt;NAD(P) transhydrogenase subunit alpha&lt;br&gt;Location: 113767 - 114087" locus_tag="C4J83_RS00565" class="clusterblast-orf" id="dummy-1_h1_7_1"  />
</g>
<g id="a1_002"  >
<polygon points="110,85 115,80 134,80 134,90 115,90 110,85 " style="fill:white; stroke-width:1; stroke:black; " description="&lt;b&gt;C4J83_RS00570&lt;/b&gt;&lt;br&gt;Re/Si-specific NAD(P)(+) transhydrogenase subunit alpha&lt;br&gt;Location: 114103 - 115224" locus_tag="C4J83_RS00570" class="clusterblast-orf" id="dummy-1_h1_7_2"  />
</g>
<g id="a1_003"  >
<polygon points="144,85 149,80 163,80 163,90 149,90 144,85 " style="fill:white; stroke-width:1; stroke:black; " description="&lt;b&gt;C4J83_RS00575&lt;/b&gt;&lt;br&gt;LysR family transcriptional regulator&lt;br&gt;Location: 115677 - 116576" locus_tag="C4J83_RS00575" class="clusterblast-orf" id="dummy-1_h1_7_3"  />
</g>
<g id="a1_004"  >
<polygon points="167,90 187,90 192,85 187,80 167,80 167,90 " style="fill:white; stroke-width:1; stroke:black; " description="&lt;b&gt;C4J83_RS00580&lt;/b&gt;&lt;br&gt;acyl-CoA dehydrogenase&lt;br&gt;Location: 116734 - 117915" locus_tag="C4J83_RS00580" class="clusterblast-orf" id="dummy-1_h1_7_4"  />
</g>
<g id="a1_005"  >
<polygon points="193,90 214,90 219,85 214,80 193,80 193,90 " style="fill:white; stroke-width:1; stroke:black; " description="&lt;b&gt;C4J83_RS00585&lt;/b&gt;&lt;br&gt;CoA transferase&lt;br&gt;Location: 117928 - 119148" locus_tag="C4J83_RS00585" class="clusterblast-orf" id="dummy-1_h1_7_5"  />
</g>
<g id="a1_006"  >
<polygon points="354,85 359,80 408,80 408,90 359,90 354,85 " style="fill:#d81515; stroke-width:1; stroke:black; " description="&lt;b&gt;C4J83_RS00625&lt;/b&gt;&lt;br&gt;TonB-dependent siderophore receptor&lt;br&gt;Location: 125405 - 127900&lt;br&gt;&lt;br&gt;&lt;b&gt;BlastP hit with MCIC6FC_011599&lt;/b&gt;&lt;br&gt;Percentage identity: 98&lt;br&gt;Percentage coverage: 100&lt;br&gt;BLAST bit score: 1526&lt;br&gt;E-value: 0.0" locus_tag="C4J83_RS00625" class="clusterblast-orf" id="dummy-1_h1_7_6"  />
</g>
<g id="a1_007"  >
<polygon points="411,85 416,80 432,80 432,90 416,90 411,85 " style="fill:#3cd815; stroke-width:1; stroke:black; " description="&lt;b&gt;C4J83_RS00630&lt;/b&gt;&lt;br&gt;FecR family protein&lt;br&gt;Location: 128005 - 128979&lt;br&gt;&lt;br&gt;&lt;b&gt;BlastP hit with MCIC6FC_011600&lt;/b&gt;&lt;br&gt;Percentage identity: 96&lt;br&gt;Percentage coverage: 65&lt;br&gt;BLAST bit score: 591&lt;br&gt;E-value: 6.4e-167" locus_tag="C4J83_RS00630" class="clusterblast-orf" id="dummy-1_h1_7_7"  />
</g>
<g id="a1_008"  >
<polygon points="432,85 437,80 443,80 443,90 437,90 432,85 " style="fill:#3cd815; stroke-width:1; stroke:black; " description="&lt;b&gt;C4J83_RS00635&lt;/b&gt;&lt;br&gt;sigma-70 family RNA polymerase sigma factor&lt;br&gt;Location: 128985 - 129500&lt;br&gt;&lt;br&gt;&lt;b&gt;BlastP hit with MCIC6FC_011600&lt;/b&gt;&lt;br&gt;Percentage identity: 95&lt;br&gt;Percentage coverage: 35&lt;br&gt;BLAST bit score: 319&lt;br&gt;E-value: 6.1e-85" locus_tag="C4J83_RS00635" class="clusterblast-orf" id="dummy-1_h1_7_8"  />
</g>
<g id="a1_009"  >
<polygon points="449,90 485,90 490,85 485,80 449,80 449,90 " style="fill:#1563d8; stroke-width:1; stroke:black; " description="&lt;b&gt;C4J83_RS00640&lt;/b&gt;&lt;br&gt;methyl-accepting chemotaxis protein&lt;br&gt;Location: 129780 - 131660&lt;br&gt;&lt;br&gt;&lt;b&gt;BlastP hit with MCIC6FC_011601&lt;/b&gt;&lt;br&gt;Percentage identity: 100&lt;br&gt;Percentage coverage: 100&lt;br&gt;BLAST bit score: 973&lt;br&gt;E-value: 1.3e-281" locus_tag="C4J83_RS00640" class="clusterblast-orf" id="dummy-1_h1_7_9"  />
</g>
<g id="a1_0010"  >
<polygon points="491,85 496,80 501,80 501,90 496,90 491,85 " style="fill:#b115d8; stroke-width:1; stroke:black; " description="&lt;b&gt;C4J83_RS00645&lt;/b&gt;&lt;br&gt;SRPBCC family protein&lt;br&gt;Location: 131700 - 132158&lt;br&gt;&lt;br&gt;&lt;b&gt;BlastP hit with MCIC6FC_011602&lt;/b&gt;&lt;br&gt;Percentage identity: 97&lt;br&gt;Percentage coverage: 100&lt;br&gt;BLAST bit score: 306&lt;br&gt;E-value: 1.7e-81" locus_tag="C4J83_RS00645" class="clusterblast-orf" id="dummy-1_h1_7_10"  />
</g>
<g id="a1_0011"  >
<polygon points="501,85 506,80 574,80 574,90 506,90 501,85 " style="fill:#d88a15; stroke-width:1; stroke:black; " description="&lt;b&gt;C4J83_RS00650&lt;/b&gt;&lt;br&gt;non-ribosomal peptide synthetase&lt;br&gt;Location: 132176 - 135553&lt;br&gt;&lt;br&gt;&lt;b&gt;BlastP hit with MCIC6FC_011603&lt;/b&gt;&lt;br&gt;Percentage identity: 96&lt;br&gt;Percentage coverage: 69&lt;br&gt;BLAST bit score: 2174&lt;br&gt;E-value: 0.0" locus_tag="C4J83_RS00650" class="clusterblast-orf" id="dummy-1_h1_7_11"  />
</g>
<g id="a1_0012"  >
<polygon points="574,85 579,80 594,80 594,90 579,90 574,85 " style="fill:#d88a15; stroke-width:1; stroke:black; " description="&lt;b&gt;C4J83_RS00655&lt;/b&gt;&lt;br&gt;diiron oxygenase&lt;br&gt;Location: 135550 - 136497&lt;br&gt;&lt;br&gt;&lt;b&gt;BlastP hit with MCIC6FC_011603&lt;/b&gt;&lt;br&gt;Percentage identity: 98&lt;br&gt;Percentage coverage: 19&lt;br&gt;BLAST bit score: 595&lt;br&gt;E-value: 1.5e-167" locus_tag="C4J83_RS00655" class="clusterblast-orf" id="dummy-1_h1_7_12"  />
</g>
<g id="a1_0013"  >
<polygon points="594,85 599,80 611,80 611,90 599,90 594,85 " style="fill:#d88a15; stroke-width:1; stroke:black; " description="&lt;b&gt;C4J83_RS00660&lt;/b&gt;&lt;br&gt;DUF3050 domain-containing protein&lt;br&gt;Location: 136494 - 137252&lt;br&gt;&lt;br&gt;&lt;b&gt;BlastP hit with MCIC6FC_011603&lt;/b&gt;&lt;br&gt;Percentage identity: 97&lt;br&gt;Percentage coverage: 12&lt;br&gt;BLAST bit score: 394&lt;br&gt;E-value: 6.7e-107" locus_tag="C4J83_RS00660" class="clusterblast-orf" id="dummy-1_h1_7_13"  />
</g>
<g id="a1_0014"  >
<polygon points="619,85 624,80 634,80 634,90 624,90 619,85 " style="fill:#15d863; stroke-width:1; stroke:black; " description="&lt;b&gt;C4J83_RS00665&lt;/b&gt;&lt;br&gt;GntR family transcriptional regulator&lt;br&gt;Location: 137614 - 138324&lt;br&gt;&lt;br&gt;&lt;b&gt;BlastP hit with MCIC6FC_011604&lt;/b&gt;&lt;br&gt;Percentage identity: 88&lt;br&gt;Percentage coverage: 104&lt;br&gt;BLAST bit score: 304&lt;br&gt;E-value: 6e-81" locus_tag="C4J83_RS00665" class="clusterblast-orf" id="dummy-1_h1_7_14"  />
</g>
<g id="a1_0015"  >
<polygon points="639,90 649,90 654,85 649,80 639,80 639,90 " style="fill:#3c15d8; stroke-width:1; stroke:black; " description="&lt;b&gt;C4J83_RS00670&lt;/b&gt;&lt;br&gt;transglutaminase-like cysteine peptidase&lt;br&gt;Location: 138577 - 139269&lt;br&gt;&lt;br&gt;&lt;b&gt;BlastP hit with MCIC6FC_011605&lt;/b&gt;&lt;br&gt;Percentage identity: 100&lt;br&gt;Percentage coverage: 100&lt;br&gt;BLAST bit score: 428&lt;br&gt;E-value: 5.3e-118" locus_tag="C4J83_RS00670" class="clusterblast-orf" id="dummy-1_h1_7_15"  />
</g>
<g id="a1_0016"  >
<polygon points="655,90 692,90 697,85 692,80 655,80 655,90 " style="fill:#d8158a; stroke-width:1; stroke:black; " description="&lt;b&gt;C4J83_RS00675&lt;/b&gt;&lt;br&gt;EAL domain-containing protein&lt;br&gt;Location: 139284 - 141230&lt;br&gt;&lt;br&gt;&lt;b&gt;BlastP hit with MCIC6FC_011606&lt;/b&gt;&lt;br&gt;Percentage identity: 99&lt;br&gt;Percentage coverage: 100&lt;br&gt;BLAST bit score: 1149&lt;br&gt;E-value: 0.0" locus_tag="C4J83_RS00675" class="clusterblast-orf" id="dummy-1_h1_7_16"  />
</g>
<g id="a1_0017"  >
<polygon points="700,85 705,80 707,80 707,90 705,90 700,85 " style="fill:white; stroke-width:1; stroke:black; " description="&lt;b&gt;C4J83_RS00680&lt;/b&gt;&lt;br&gt;hypothetical protein&lt;br&gt;Location: 141383 - 141721" locus_tag="C4J83_RS00680" class="clusterblast-orf" id="dummy-1_h1_7_17"  />
</g>
</svg>
