<svg xmlns="http://www.w3.org/2000/svg" xmlns:xlink="http://www.w3.org/1999/xlink" version="1.1" x="0" y="0" height="230" width="800" viewBox="0 0 800 230" preserveAspectRatio="none"  >
<g label="Query sequence" class="clusterblast-cluster"  >
<text x="5" y="20" class="clusterblast-acc"  >
Query sequence</text>
<line x1="10" y1="35" x2="778.0" y2="35" style="stroke-width:1; stroke:grey; "  />
<polygon points="135,40 230,40 235,35 230,30 135,30 135,40 " style="fill:#d81515; stroke-width:1; stroke:black; " description="&lt;b&gt;MCIC6FC_011003&lt;/b&gt;&lt;br&gt;hypothetical protein&lt;br&gt;Location: 370924 - 376344" locus_tag="MCIC6FC_011003" class="clusterblast-orf" id="dummy-1_q0_0_all"  />
<polygon points="239,35 244,30 255,30 255,40 244,40 239,35 " style="fill:white; stroke-width:1; stroke:black; " description="&lt;b&gt;MCIC6FC_011004&lt;/b&gt;&lt;br&gt;hypothetical protein&lt;br&gt;Location: 376570 - 377470" locus_tag="MCIC6FC_011004" class="clusterblast-orf" id="dummy-1_q1_0_all"  />
<polygon points="257,40 277,40 282,35 277,30 257,30 257,40 " style="fill:white; stroke-width:1; stroke:black; " description="&lt;b&gt;MCIC6FC_011005&lt;/b&gt;&lt;br&gt;hypothetical protein&lt;br&gt;Location: 377572 - 378942" locus_tag="MCIC6FC_011005" class="clusterblast-orf" id="dummy-1_q2_0_all"  />
<polygon points="289,35 294,30 312,30 312,40 294,40 289,35 " style="fill:#15d815; stroke-width:1; stroke:black; " description="&lt;b&gt;MCIC6FC_011006&lt;/b&gt;&lt;br&gt;hypothetical protein&lt;br&gt;Location: 379287 - 380587" locus_tag="MCIC6FC_011006" class="clusterblast-orf" id="dummy-1_q3_0_all"  />
<polygon points="314,35 319,30 394,30 394,40 319,40 314,35 " style="fill:#1597d8; stroke-width:1; stroke:black; " description="&lt;b&gt;MCIC6FC_011007&lt;/b&gt;&lt;br&gt;hypothetical protein&lt;br&gt;Location: 380682 - 385065" locus_tag="MCIC6FC_011007" class="clusterblast-orf" id="dummy-1_q4_0_all"  />
<polygon points="395,35 400,30 441,30 441,40 400,40 395,35 " style="fill:#9715d8; stroke-width:1; stroke:black; " description="&lt;b&gt;MCIC6FC_011008&lt;/b&gt;&lt;br&gt;hypothetical protein&lt;br&gt;Location: 385094 - 387603" locus_tag="MCIC6FC_011008" class="clusterblast-orf" id="dummy-1_q5_0_all"  />
<polygon points="443,35 448,30 450,30 450,40 448,40 443,35 " style="fill:#d89715; stroke-width:1; stroke:black; " description="&lt;b&gt;MCIC6FC_011009&lt;/b&gt;&lt;br&gt;hypothetical protein&lt;br&gt;Location: 387749 - 388124" locus_tag="MCIC6FC_011009" class="clusterblast-orf" id="dummy-1_q6_0_all"  />
<polygon points="453,35 458,30 536,30 536,40 458,40 453,35 " style="fill:#15d897; stroke-width:1; stroke:black; " description="&lt;b&gt;MCIC6FC_011010&lt;/b&gt;&lt;br&gt;hypothetical protein&lt;br&gt;Location: 388275 - 392786" locus_tag="MCIC6FC_011010" class="clusterblast-orf" id="dummy-1_q7_0_all"  />
<polygon points="538,35 543,30 572,30 572,40 543,40 538,35 " style="fill:#1515d8; stroke-width:1; stroke:black; " description="&lt;b&gt;MCIC6FC_011011&lt;/b&gt;&lt;br&gt;hypothetical protein&lt;br&gt;Location: 392922 - 394773" locus_tag="MCIC6FC_011011" class="clusterblast-orf" id="dummy-1_q8_0_all"  />
<polygon points="573,35 578,30 621,30 621,40 578,40 573,35 " style="fill:#d81597; stroke-width:1; stroke:black; " description="&lt;b&gt;MCIC6FC_011012&lt;/b&gt;&lt;br&gt;hypothetical protein&lt;br&gt;Location: 394840 - 397470" locus_tag="MCIC6FC_011012" class="clusterblast-orf" id="dummy-1_q9_0_all"  />
<polygon points="623,40 639,40 644,35 639,30 623,30 623,40 " style="fill:#97d815; stroke-width:1; stroke:black; " description="&lt;b&gt;MCIC6FC_011013&lt;/b&gt;&lt;br&gt;hypothetical protein&lt;br&gt;Location: 397557 - 398699" locus_tag="MCIC6FC_011013" class="clusterblast-orf" id="dummy-1_q10_0_all"  />
</g>
<g label="NZ_LT222319" description="NZ_LT222319 (521801-564397): Pseudomonas cerasi isolate Sour cherry (Prunus c... (32% of genes show similarity), NRPS-like" class="clusterblast-cluster"  >
<text x="5" y="70" class="clusterblast-acc"  >
<a xlink:href="https://antismash-db.secondarymetabolites.org/area.html?record=NZ_LT222319&amp;start=521801&amp;end=564397" target="_blank">NZ_LT222319 (521801-564397)</a>: Pseudomonas cerasi isolate Sour cherry (Prunus c... (32% of genes show similarity), NRPS-like</text>
<line x1="10" y1="85" x2="778.0" y2="85" style="stroke-width:1; stroke:grey; "  />
</g>
<g id="a1_000"  >
<polygon points="0,90 28,90 33,85 28,80 0,80 0,90 " style="fill:#d81515; stroke-width:1; stroke:black; " description="&lt;b&gt;PCPL58_RS04825&lt;/b&gt;&lt;br&gt;acyl-CoA dehydrogenase&lt;br&gt;Location: 521802 - 523607&lt;br&gt;&lt;br&gt;&lt;b&gt;BlastP hit with MCIC6FC_011003&lt;/b&gt;&lt;br&gt;Percentage identity: 66&lt;br&gt;Percentage coverage: 37&lt;br&gt;BLAST bit score: 798&lt;br&gt;E-value: 1.2e-228" locus_tag="PCPL58_RS04825" class="clusterblast-orf" id="dummy-1_h1_8_0"  />
</g>
<g id="a1_001"  >
<polygon points="39,90 58,90 63,85 58,80 39,80 39,90 " style="fill:#d81515; stroke-width:1; stroke:black; " description="&lt;b&gt;PCPL58_RS04830&lt;/b&gt;&lt;br&gt;GGDEF domain-containing protein&lt;br&gt;Location: 523985 - 525283&lt;br&gt;&lt;br&gt;&lt;b&gt;BlastP hit with MCIC6FC_011003&lt;/b&gt;&lt;br&gt;Percentage identity: 78&lt;br&gt;Percentage coverage: 26&lt;br&gt;BLAST bit score: 656&lt;br&gt;E-value: 5.6e-186" locus_tag="PCPL58_RS04830" class="clusterblast-orf" id="dummy-1_h1_8_1"  />
</g>
<g id="a1_002"  >
<polygon points="66,90 94,90 99,85 94,80 66,80 66,90 " style="fill:#d81515; stroke-width:1; stroke:black; " description="&lt;b&gt;PCPL58_RS04835&lt;/b&gt;&lt;br&gt;acyl-CoA dehydrogenase&lt;br&gt;Location: 525453 - 527231&lt;br&gt;&lt;br&gt;&lt;b&gt;BlastP hit with MCIC6FC_011003&lt;/b&gt;&lt;br&gt;Percentage identity: 85&lt;br&gt;Percentage coverage: 36&lt;br&gt;BLAST bit score: 1013&lt;br&gt;E-value: 3.1e-293" locus_tag="PCPL58_RS04835" class="clusterblast-orf" id="dummy-1_h1_8_2"  />
</g>
<g id="a1_003"  >
<polygon points="106,90 109,85 106,80 106,90 " style="fill:white; stroke-width:1; stroke:black; " description="&lt;b&gt;PCPL58_RS04840&lt;/b&gt;&lt;br&gt;YqaE/Pmp3 family membrane protein&lt;br&gt;Location: 527635 - 527796" locus_tag="PCPL58_RS04840" class="clusterblast-orf" id="dummy-1_h1_8_3"  />
</g>
<g id="a1_004"  >
<polygon points="110,85 115,80 144,80 144,90 115,90 110,85 " style="fill:white; stroke-width:1; stroke:black; " description="&lt;b&gt;PCPL58_RS04845&lt;/b&gt;&lt;br&gt;S9 family peptidase&lt;br&gt;Location: 527852 - 529678" locus_tag="PCPL58_RS04845" class="clusterblast-orf" id="dummy-1_h1_8_4"  />
</g>
<g id="a1_005"  >
<polygon points="143,85 148,80 164,80 164,90 148,90 143,85 " style="fill:#15d815; stroke-width:1; stroke:black; " description="&lt;b&gt;PCPL58_RS04850&lt;/b&gt;&lt;br&gt;pyrroloquinoline quinone biosynthesis protein PqqE&lt;br&gt;Location: 529641 - 530810&lt;br&gt;&lt;br&gt;&lt;b&gt;BlastP hit with MCIC6FC_011006&lt;/b&gt;&lt;br&gt;Percentage identity: 90&lt;br&gt;Percentage coverage: 89&lt;br&gt;BLAST bit score: 715&lt;br&gt;E-value: 2.6e-204" locus_tag="PCPL58_RS04850" class="clusterblast-orf" id="dummy-1_h1_8_5"  />
</g>
<g id="a1_006"  >
<polygon points="164,85 169,80 170,80 170,90 169,90 164,85 " style="fill:#15d815; stroke-width:1; stroke:black; " description="&lt;b&gt;PCPL58_RS04855&lt;/b&gt;&lt;br&gt;pyrroloquinoline quinone biosynthesis peptide chaperone PqqD&lt;br&gt;Location: 530803 - 531087&lt;br&gt;&lt;br&gt;&lt;b&gt;BlastP hit with MCIC6FC_011006&lt;/b&gt;&lt;br&gt;Percentage identity: 75&lt;br&gt;Percentage coverage: 11&lt;br&gt;BLAST bit score: 76&lt;br&gt;E-value: 7.9e-12" locus_tag="PCPL58_RS04855" class="clusterblast-orf" id="dummy-1_h1_8_6"  />
</g>
<g id="a1_007"  >
<polygon points="169,85 174,80 183,80 183,90 174,90 169,85 " style="fill:#1597d8; stroke-width:1; stroke:black; " description="&lt;b&gt;PCPL58_RS04860&lt;/b&gt;&lt;br&gt;pyrroloquinoline-quinone synthase PqqC&lt;br&gt;Location: 531084 - 531839&lt;br&gt;&lt;br&gt;&lt;b&gt;BlastP hit with MCIC6FC_011007&lt;/b&gt;&lt;br&gt;Percentage identity: 96&lt;br&gt;Percentage coverage: 19&lt;br&gt;BLAST bit score: 505&lt;br&gt;E-value: 2.2e-140" locus_tag="PCPL58_RS04860" class="clusterblast-orf" id="dummy-1_h1_8_7"  />
</g>
<g id="a1_008"  >
<polygon points="183,85 188,80 200,80 200,90 188,90 183,85 " style="fill:#1597d8; stroke-width:1; stroke:black; " description="&lt;b&gt;PCPL58_RS04865&lt;/b&gt;&lt;br&gt;pyrroloquinoline quinone biosynthesis protein PqqB&lt;br&gt;Location: 531848 - 532759&lt;br&gt;&lt;br&gt;&lt;b&gt;BlastP hit with MCIC6FC_011007&lt;/b&gt;&lt;br&gt;Percentage identity: 92&lt;br&gt;Percentage coverage: 22&lt;br&gt;BLAST bit score: 560&lt;br&gt;E-value: 4.4e-157" locus_tag="PCPL58_RS04865" class="clusterblast-orf" id="dummy-1_h1_8_8"  />
</g>
<g id="a1_009"  >
<polygon points="202,85 203,80 203,90 202,85 " style="fill:white; stroke-width:1; stroke:black; " description="&lt;b&gt;PCPL58_RS29095&lt;/b&gt;&lt;br&gt;pyrroloquinoline quinone precursor peptide PqqA&lt;br&gt;Location: 532848 - 532922" locus_tag="PCPL58_RS29095" class="clusterblast-orf" id="dummy-1_h1_8_9"  />
</g>
<g id="a1_0010"  >
<polygon points="206,85 211,80 248,80 248,90 211,90 206,85 " style="fill:#1597d8; stroke-width:1; stroke:black; " description="&lt;b&gt;PCPL58_RS04870&lt;/b&gt;&lt;br&gt;pyrroloquinoline quinone biosynthesis protein PqqF&lt;br&gt;Location: 533058 - 535346&lt;br&gt;&lt;br&gt;&lt;b&gt;BlastP hit with MCIC6FC_011007&lt;/b&gt;&lt;br&gt;Percentage identity: 45&lt;br&gt;Percentage coverage: 61&lt;br&gt;BLAST bit score: 591&lt;br&gt;E-value: 3e-166" locus_tag="PCPL58_RS04870" class="clusterblast-orf" id="dummy-1_h1_8_10"  />
</g>
<g id="a1_0011"  >
<polygon points="251,85 256,80 266,80 266,90 256,90 251,85 " style="fill:#9715d8; stroke-width:1; stroke:black; " description="&lt;b&gt;PCPL58_RS04875&lt;/b&gt;&lt;br&gt;carbon-nitrogen hydrolase family protein&lt;br&gt;Location: 535552 - 536346&lt;br&gt;&lt;br&gt;&lt;b&gt;BlastP hit with MCIC6FC_011008&lt;/b&gt;&lt;br&gt;Percentage identity: 69&lt;br&gt;Percentage coverage: 32&lt;br&gt;BLAST bit score: 379&lt;br&gt;E-value: 1.1e-102" locus_tag="PCPL58_RS04875" class="clusterblast-orf" id="dummy-1_h1_8_11"  />
</g>
<g id="a1_0012"  >
<polygon points="266,85 271,80 297,80 297,90 271,90 266,85 " style="fill:#9715d8; stroke-width:1; stroke:black; " description="&lt;b&gt;PCPL58_RS04880&lt;/b&gt;&lt;br&gt;NAD(P)/FAD-dependent oxidoreductase&lt;br&gt;Location: 536362 - 538041&lt;br&gt;&lt;br&gt;&lt;b&gt;BlastP hit with MCIC6FC_011008&lt;/b&gt;&lt;br&gt;Percentage identity: 91&lt;br&gt;Percentage coverage: 67&lt;br&gt;BLAST bit score: 1055&lt;br&gt;E-value: 2.7e-306" locus_tag="PCPL58_RS04880" class="clusterblast-orf" id="dummy-1_h1_8_12"  />
</g>
<g id="a1_0013"  >
<polygon points="300,85 305,80 308,80 308,90 305,90 300,85 " style="fill:#d89715; stroke-width:1; stroke:black; " description="&lt;b&gt;PCPL58_RS04885&lt;/b&gt;&lt;br&gt;Lrp/AsnC family transcriptional regulator&lt;br&gt;Location: 538193 - 538654&lt;br&gt;&lt;br&gt;&lt;b&gt;BlastP hit with MCIC6FC_011009&lt;/b&gt;&lt;br&gt;Percentage identity: 94&lt;br&gt;Percentage coverage: 100&lt;br&gt;BLAST bit score: 223&lt;br&gt;E-value: 1.5e-56" locus_tag="PCPL58_RS04885" class="clusterblast-orf" id="dummy-1_h1_8_13"  />
</g>
<g id="a1_0014"  >
<polygon points="308,85 313,80 328,80 328,90 313,90 308,85 " style="fill:white; stroke-width:1; stroke:black; " description="&lt;b&gt;PCPL58_RS04890&lt;/b&gt;&lt;br&gt;FUSC family protein&lt;br&gt;Location: 538665 - 539741" locus_tag="PCPL58_RS04890" class="clusterblast-orf" id="dummy-1_h1_8_14"  />
</g>
<g id="a1_0015"  >
<polygon points="333,90 337,85 333,80 333,90 " style="fill:white; stroke-width:1; stroke:black; " description="&lt;b&gt;PCPL58_RS04895&lt;/b&gt;&lt;br&gt;hypothetical protein&lt;br&gt;Location: 539997 - 540209" locus_tag="PCPL58_RS04895" class="clusterblast-orf" id="dummy-1_h1_8_15"  />
</g>
<g id="a1_0016"  >
<polygon points="337,85 340,80 340,90 337,85 " style="fill:white; stroke-width:1; stroke:black; " description="&lt;b&gt;PCPL58_RS30690&lt;/b&gt;&lt;br&gt;DUF4172 domain-containing protein&lt;br&gt;Location: 540234 - 540380" locus_tag="PCPL58_RS30690" class="clusterblast-orf" id="dummy-1_h1_8_16"  />
</g>
<g id="a1_0017"  >
<polygon points="341,90 346,90 351,85 346,80 341,80 341,90 " style="fill:white; stroke-width:1; stroke:black; " description="&lt;b&gt;PCPL58_RS04900&lt;/b&gt;&lt;br&gt;GNAT family N-acetyltransferase&lt;br&gt;Location: 540478 - 540981" locus_tag="PCPL58_RS04900" class="clusterblast-orf" id="dummy-1_h1_8_17"  />
</g>
<g id="a1_0018"  >
<polygon points="355,90 424,90 429,85 424,80 355,80 355,90 " style="fill:white; stroke-width:1; stroke:black; " description="&lt;b&gt;PCPL58_RS04905&lt;/b&gt;&lt;br&gt;non-ribosomal peptide synthetase&lt;br&gt;Location: 541233 - 545273" locus_tag="PCPL58_RS04905" class="clusterblast-orf" id="dummy-1_h1_8_18"  />
</g>
<g id="a1_0019"  >
<polygon points="429,90 436,90 441,85 436,80 429,80 429,90 " style="fill:white; stroke-width:1; stroke:black; " description="&lt;b&gt;PCPL58_RS04910&lt;/b&gt;&lt;br&gt;4'-phosphopantetheinyl transferase superfamily protein&lt;br&gt;Location: 545270 - 545902" locus_tag="PCPL58_RS04910" class="clusterblast-orf" id="dummy-1_h1_8_19"  />
</g>
<g id="a1_0020"  >
<polygon points="443,90 453,90 458,85 453,80 443,80 443,90 " style="fill:white; stroke-width:1; stroke:black; " description="&lt;b&gt;PCPL58_RS04915&lt;/b&gt;&lt;br&gt;AraC family transcriptional regulator&lt;br&gt;Location: 546003 - 546839" locus_tag="PCPL58_RS04915" class="clusterblast-orf" id="dummy-1_h1_8_20"  />
</g>
<g id="a1_0021"  >
<polygon points="459,90 464,90 469,85 464,80 459,80 459,90 " style="fill:white; stroke-width:1; stroke:black; " description="&lt;b&gt;PCPL58_RS04920&lt;/b&gt;&lt;br&gt;LysE family translocator&lt;br&gt;Location: 546888 - 547463" locus_tag="PCPL58_RS04920" class="clusterblast-orf" id="dummy-1_h1_8_21"  />
</g>
<g id="a1_0022"  >
<polygon points="473,85 478,80 488,80 488,90 478,90 473,85 " style="fill:white; stroke-width:1; stroke:black; " description="&lt;b&gt;PCPL58_RS04925&lt;/b&gt;&lt;br&gt;formate/nitrite transporter family protein&lt;br&gt;Location: 547640 - 548455" locus_tag="PCPL58_RS04925" class="clusterblast-orf" id="dummy-1_h1_8_22"  />
</g>
<g id="a1_0023"  >
<polygon points="496,90 500,90 505,85 500,80 496,80 496,90 " style="fill:white; stroke-width:1; stroke:black; " description="&lt;b&gt;PCPL58_RS04930&lt;/b&gt;&lt;br&gt;peptide-methionine (S)-S-oxide reductase MsrA&lt;br&gt;Location: 548897 - 549403" locus_tag="PCPL58_RS04930" class="clusterblast-orf" id="dummy-1_h1_8_23"  />
</g>
<g id="a1_0024"  >
<polygon points="514,85 519,80 529,80 529,90 519,90 514,85 " style="fill:white; stroke-width:1; stroke:black; " description="&lt;b&gt;PCPL58_RS29105&lt;/b&gt;&lt;br&gt;IS5 family transposase&lt;br&gt;Location: 549885 - 550737" locus_tag="PCPL58_RS29105" class="clusterblast-orf" id="dummy-1_h1_8_24"  />
</g>
<g id="a1_0025"  >
<polygon points="535,85 540,80 555,80 555,90 540,90 535,85 " style="fill:white; stroke-width:1; stroke:black; " description="&lt;b&gt;PCPL58_RS04940&lt;/b&gt;&lt;br&gt;hypothetical protein&lt;br&gt;Location: 551020 - 552147" locus_tag="PCPL58_RS04940" class="clusterblast-orf" id="dummy-1_h1_8_25"  />
</g>
<g id="a1_0026"  >
<polygon points="555,85 560,80 567,80 567,90 560,90 555,85 " style="fill:white; stroke-width:1; stroke:black; " description="&lt;b&gt;PCPL58_RS04945&lt;/b&gt;&lt;br&gt;hypothetical protein&lt;br&gt;Location: 552131 - 552775" locus_tag="PCPL58_RS04945" class="clusterblast-orf" id="dummy-1_h1_8_26"  />
</g>
<g id="a1_0027"  >
<polygon points="572,85 577,80 577,80 577,90 577,90 572,85 " style="fill:white; stroke-width:1; stroke:black; " description="&lt;b&gt;PCPL58_RS04950&lt;/b&gt;&lt;br&gt;hypothetical protein&lt;br&gt;Location: 553084 - 553338" locus_tag="PCPL58_RS04950" class="clusterblast-orf" id="dummy-1_h1_8_27"  />
</g>
<g id="a1_0028"  >
<polygon points="591,90 601,90 606,85 601,80 591,80 591,90 " style="fill:white; stroke-width:1; stroke:black; " description="&lt;b&gt;PCPL58_RS04955&lt;/b&gt;&lt;br&gt;hypothetical protein&lt;br&gt;Location: 554110 - 554931" locus_tag="PCPL58_RS04955" class="clusterblast-orf" id="dummy-1_h1_8_28"  />
</g>
<g id="a1_0029"  >
<polygon points="609,90 623,90 628,85 623,80 609,80 609,90 " style="fill:white; stroke-width:1; stroke:black; " description="&lt;b&gt;PCPL58_RS04960&lt;/b&gt;&lt;br&gt;IS21-like element ISPsy4 family transposase&lt;br&gt;Location: 555100 - 556122" locus_tag="PCPL58_RS04960" class="clusterblast-orf" id="dummy-1_h1_8_29"  />
</g>
<g id="a1_0030"  >
<polygon points="628,90 638,90 643,85 638,80 628,80 628,90 " style="fill:white; stroke-width:1; stroke:black; " description="&lt;b&gt;PCPL58_RS04965&lt;/b&gt;&lt;br&gt;AAA family ATPase&lt;br&gt;Location: 556119 - 556928" locus_tag="PCPL58_RS04965" class="clusterblast-orf" id="dummy-1_h1_8_30"  />
</g>
<g id="a1_0031"  >
<polygon points="654,85 659,80 670,80 670,90 659,90 654,85 " style="fill:white; stroke-width:1; stroke:black; " description="&lt;b&gt;PCPL58_RS04970&lt;/b&gt;&lt;br&gt;hypothetical protein&lt;br&gt;Location: 557547 - 558404" locus_tag="PCPL58_RS04970" class="clusterblast-orf" id="dummy-1_h1_8_31"  />
</g>
<g id="a1_0032"  >
<polygon points="671,85 674,80 674,90 671,85 " style="fill:white; stroke-width:1; stroke:black; " description="&lt;b&gt;PCPL58_RS04975&lt;/b&gt;&lt;br&gt;OprD family porin&lt;br&gt;Location: 558478 - 558657" locus_tag="PCPL58_RS04975" class="clusterblast-orf" id="dummy-1_h1_8_32"  />
</g>
<g id="a1_0033"  >
<polygon points="675,90 698,90 703,85 698,80 675,80 675,90 " style="fill:white; stroke-width:1; stroke:black; " description="&lt;b&gt;PCPL58_RS04980&lt;/b&gt;&lt;br&gt;IS21-like element ISPsy20 family transposase&lt;br&gt;Location: 558703 - 560202" locus_tag="PCPL58_RS04980" class="clusterblast-orf" id="dummy-1_h1_8_33"  />
</g>
<g id="a1_0034"  >
<polygon points="703,90 712,90 717,85 712,80 703,80 703,90 " style="fill:white; stroke-width:1; stroke:black; " description="&lt;b&gt;PCPL58_RS04985&lt;/b&gt;&lt;br&gt;ATP-binding protein&lt;br&gt;Location: 560195 - 560998" locus_tag="PCPL58_RS04985" class="clusterblast-orf" id="dummy-1_h1_8_34"  />
</g>
<g id="a1_0035"  >
<polygon points="717,90 721,85 717,80 717,90 " style="fill:white; stroke-width:1; stroke:black; " description="&lt;b&gt;PCPL58_RS30695&lt;/b&gt;&lt;br&gt;hypothetical protein&lt;br&gt;Location: 560995 - 561183" locus_tag="PCPL58_RS30695" class="clusterblast-orf" id="dummy-1_h1_8_35"  />
</g>
<g id="a1_0036"  >
<polygon points="734,85 739,80 780,80 780,90 739,90 734,85 " style="fill:#15d897; stroke-width:1; stroke:black; " description="&lt;b&gt;PCPL58_RS04990&lt;/b&gt;&lt;br&gt;bifunctional diguanylate cyclase/phosphodiesterase&lt;br&gt;Location: 561911 - 564397&lt;br&gt;&lt;br&gt;&lt;b&gt;BlastP hit with MCIC6FC_011010&lt;/b&gt;&lt;br&gt;Percentage identity: 73&lt;br&gt;Percentage coverage: 55&lt;br&gt;BLAST bit score: 1190&lt;br&gt;E-value: 0.0" locus_tag="PCPL58_RS04990" class="clusterblast-orf" id="dummy-1_h1_8_36"  />
</g>
</svg>
