<svg xmlns="http://www.w3.org/2000/svg" xmlns:xlink="http://www.w3.org/1999/xlink" version="1.1" x="0" y="0" height="230" width="800" viewBox="0 0 800 230" preserveAspectRatio="none"  >
<g label="Query sequence" class="clusterblast-cluster"  >
<text x="5" y="20" class="clusterblast-acc"  >
Query sequence</text>
<line x1="10" y1="35" x2="778.0" y2="35" style="stroke-width:1; stroke:grey; "  />
<polygon points="58,40 71,40 76,35 71,30 58,30 58,40 " style="fill:#d81515; stroke-width:1; stroke:black; " description="&lt;b&gt;MCIC6FC_014020&lt;/b&gt;&lt;br&gt;hypothetical protein&lt;br&gt;Location: 52098 - 53356" locus_tag="MCIC6FC_014020" class="clusterblast-orf" id="dummy-1_q0_0_all"  />
<polygon points="78,35 83,30 115,30 115,40 83,40 78,35 " style="fill:#3cd815; stroke-width:1; stroke:black; " description="&lt;b&gt;MCIC6FC_014021&lt;/b&gt;&lt;br&gt;hypothetical protein&lt;br&gt;Location: 53450 - 56005" locus_tag="MCIC6FC_014021" class="clusterblast-orf" id="dummy-1_q1_0_all"  />
<polygon points="117,40 152,40 157,35 152,30 117,30 117,40 " style="fill:#1563d8; stroke-width:1; stroke:black; " description="&lt;b&gt;MCIC6FC_014022&lt;/b&gt;&lt;br&gt;hypothetical protein&lt;br&gt;Location: 56153 - 58945" locus_tag="MCIC6FC_014022" class="clusterblast-orf" id="dummy-1_q2_0_all"  />
<polygon points="159,35 164,30 175,30 175,40 164,40 159,35 " style="fill:#b115d8; stroke-width:1; stroke:black; " description="&lt;b&gt;MCIC6FC_014023&lt;/b&gt;&lt;br&gt;hypothetical protein&lt;br&gt;Location: 59080 - 60161" locus_tag="MCIC6FC_014023" class="clusterblast-orf" id="dummy-1_q3_0_all"  />
<polygon points="177,40 250,40 255,35 250,30 177,30 177,40 " style="fill:#d88a15; stroke-width:1; stroke:black; " description="&lt;b&gt;MCIC6FC_014024&lt;/b&gt;&lt;br&gt;hypothetical protein&lt;br&gt;Location: 60332 - 65690" locus_tag="MCIC6FC_014024" class="clusterblast-orf" id="dummy-1_q4_0_all"  />
<polygon points="255,40 270,40 275,35 270,30 255,30 255,40 " style="fill:#d88a15; stroke-width:1; stroke:black; " description="&lt;b&gt;MCIC6FC_014025&lt;/b&gt;&lt;br&gt;hypothetical protein&lt;br&gt;Location: 65750 - 67094" locus_tag="MCIC6FC_014025" class="clusterblast-orf" id="dummy-1_q5_0_all"  />
<polygon points="276,35 281,30 294,30 294,40 281,40 276,35 " style="fill:#15d863; stroke-width:1; stroke:black; " description="&lt;b&gt;MCIC6FC_014026&lt;/b&gt;&lt;br&gt;hypothetical protein&lt;br&gt;Location: 67206 - 68389" locus_tag="MCIC6FC_014026" class="clusterblast-orf" id="dummy-1_q6_0_all"  />
<polygon points="297,40 333,40 338,35 333,30 297,30 297,40 " style="fill:#3c15d8; stroke-width:1; stroke:black; " description="&lt;b&gt;MCIC6FC_014027&lt;/b&gt;&lt;br&gt;hypothetical protein&lt;br&gt;Location: 68607 - 71491" locus_tag="MCIC6FC_014027" class="clusterblast-orf" id="dummy-1_q7_0_all"  />
<polygon points="340,35 345,30 488,30 488,40 345,40 340,35 " style="fill:#d8158a; stroke-width:1; stroke:black; " description="&lt;b&gt;MCIC6FC_014028&lt;/b&gt;&lt;br&gt;hypothetical protein&lt;br&gt;Location: 71613 - 81880" locus_tag="MCIC6FC_014028" class="clusterblast-orf" id="dummy-1_q8_0_all"  />
<polygon points="494,40 559,40 564,35 559,30 494,30 494,40 " style="fill:#b1d815; stroke-width:1; stroke:black; " description="&lt;b&gt;MCIC6FC_014029&lt;/b&gt;&lt;br&gt;hypothetical protein&lt;br&gt;Location: 82282 - 87140" locus_tag="MCIC6FC_014029" class="clusterblast-orf" id="dummy-1_q9_0_all"  />
<polygon points="576,35 581,30 690,30 690,40 581,40 576,35 " style="fill:#15d8d8; stroke-width:1; stroke:black; " description="&lt;b&gt;MCIC6FC_014030&lt;/b&gt;&lt;br&gt;hypothetical protein&lt;br&gt;Location: 87945 - 95846" locus_tag="MCIC6FC_014030" class="clusterblast-orf" id="dummy-1_q10_0_all"  />
<polygon points="706,40 706,40 711,35 706,30 706,30 706,40 " style="fill:white; stroke-width:1; stroke:black; " description="&lt;b&gt;MCIC6FC_014031&lt;/b&gt;&lt;br&gt;hypothetical protein&lt;br&gt;Location: 96983 - 97328" locus_tag="MCIC6FC_014031" class="clusterblast-orf" id="dummy-1_q11_0_all"  />
<polygon points="712,35 717,30 721,30 721,40 717,40 712,35 " style="fill:white; stroke-width:1; stroke:black; " description="&lt;b&gt;MCIC6FC_014032&lt;/b&gt;&lt;br&gt;hypothetical protein&lt;br&gt;Location: 97335 - 97989" locus_tag="MCIC6FC_014032" class="clusterblast-orf" id="dummy-1_q12_0_all"  />
</g>
<g label="NZ_CM001984" description="NZ_CM001984 (3330992-3386662): Dickeya sp. MK7 chromosome, whole genome shotg... (15% of genes show similarity), NRPS" class="clusterblast-cluster"  >
<text x="5" y="70" class="clusterblast-acc"  >
<a xlink:href="https://antismash-db.secondarymetabolites.org/area.html?record=NZ_CM001984&amp;start=3330992&amp;end=3386662" target="_blank">NZ_CM001984 (3330992-3386662)</a>: Dickeya sp. MK7 chromosome, whole genome shotg... (15% of genes show similarity), NRPS</text>
<line x1="10" y1="85" x2="778.0" y2="85" style="stroke-width:1; stroke:grey; "  />
</g>
<g id="a1_000"  >
<polygon points="0,85 4,80 4,90 0,85 " style="fill:white; stroke-width:1; stroke:black; " description="&lt;b&gt;DXXMK7_RS14355&lt;/b&gt;&lt;br&gt;YfcZ/YiiS family protein&lt;br&gt;Location: 3332390 - 3332686" locus_tag="DXXMK7_RS14355" class="clusterblast-orf" id="dummy-1_h1_10_0"  />
</g>
<g id="a1_001"  >
<polygon points="6,85 7,80 7,90 6,85 " style="fill:white; stroke-width:1; stroke:black; " description="&lt;b&gt;DXXMK7_RS21995&lt;/b&gt;&lt;br&gt;hypothetical protein&lt;br&gt;Location: 3332862 - 3332942" locus_tag="DXXMK7_RS21995" class="clusterblast-orf" id="dummy-1_h1_10_1"  />
</g>
<g id="a1_002"  >
<polygon points="9,90 23,90 28,85 23,80 9,80 9,90 " style="fill:white; stroke-width:1; stroke:black; " description="&lt;b&gt;DXXMK7_RS14360&lt;/b&gt;&lt;br&gt;long-chain fatty acid transporter FadL&lt;br&gt;Location: 3333068 - 3334333" locus_tag="DXXMK7_RS14360" class="clusterblast-orf" id="dummy-1_h1_10_2"  />
</g>
<g id="a1_003"  >
<polygon points="29,85 34,80 51,80 51,90 34,90 29,85 " style="fill:white; stroke-width:1; stroke:black; " description="&lt;b&gt;DXXMK7_RS14365&lt;/b&gt;&lt;br&gt;malate dehydrogenase (quinone)&lt;br&gt;Location: 3334415 - 3335986" locus_tag="DXXMK7_RS14365" class="clusterblast-orf" id="dummy-1_h1_10_3"  />
</g>
<g id="a1_004"  >
<polygon points="57,85 62,80 68,80 68,90 62,90 57,85 " style="fill:white; stroke-width:1; stroke:black; " description="&lt;b&gt;DXXMK7_RS14370&lt;/b&gt;&lt;br&gt;phospholipid-binding lipoprotein MlaA&lt;br&gt;Location: 3336403 - 3337164" locus_tag="DXXMK7_RS14370" class="clusterblast-orf" id="dummy-1_h1_10_4"  />
</g>
<g id="a1_005"  >
<polygon points="81,85 86,80 92,80 92,90 86,90 81,85 " style="fill:white; stroke-width:1; stroke:black; " description="&lt;b&gt;DXXMK7_RS14380&lt;/b&gt;&lt;br&gt;sugar-binding protein&lt;br&gt;Location: 3338015 - 3338806" locus_tag="DXXMK7_RS14380" class="clusterblast-orf" id="dummy-1_h1_10_5"  />
</g>
<g id="a1_006"  >
<polygon points="107,90 114,90 119,85 114,80 107,80 107,90 " style="fill:white; stroke-width:1; stroke:black; " description="&lt;b&gt;DXXMK7_RS14385&lt;/b&gt;&lt;br&gt;5'-nucleotidase, lipoprotein e(P4) family&lt;br&gt;Location: 3339836 - 3340645" locus_tag="DXXMK7_RS14385" class="clusterblast-orf" id="dummy-1_h1_10_6"  />
</g>
<g id="a1_007"  >
<polygon points="121,85 126,80 148,80 148,90 126,90 121,85 " style="fill:white; stroke-width:1; stroke:black; " description="&lt;b&gt;DXXMK7_RS14390&lt;/b&gt;&lt;br&gt;avirulence protein&lt;br&gt;Location: 3340787 - 3342676" locus_tag="DXXMK7_RS14390" class="clusterblast-orf" id="dummy-1_h1_10_7"  />
</g>
<g id="a1_008"  >
<polygon points="150,85 155,80 177,80 177,90 155,90 150,85 " style="fill:white; stroke-width:1; stroke:black; " description="&lt;b&gt;DXXMK7_RS14395&lt;/b&gt;&lt;br&gt;avirulence protein&lt;br&gt;Location: 3342820 - 3344679" locus_tag="DXXMK7_RS14395" class="clusterblast-orf" id="dummy-1_h1_10_8"  />
</g>
<g id="a1_009"  >
<polygon points="183,90 193,90 198,85 193,80 183,80 183,90 " style="fill:#d88a15; stroke-width:1; stroke:black; " description="&lt;b&gt;DXXMK7_RS14400&lt;/b&gt;&lt;br&gt;Fe2+-enterobactin ABC transporter substrate-binding protein&lt;br&gt;Location: 3345099 - 3346163&lt;br&gt;&lt;br&gt;&lt;b&gt;BlastP hit with MCIC6FC_014025&lt;/b&gt;&lt;br&gt;Percentage identity: 62&lt;br&gt;Percentage coverage: 100&lt;br&gt;BLAST bit score: 336&lt;br&gt;E-value: 2.3e-90" locus_tag="DXXMK7_RS14400" class="clusterblast-orf" id="dummy-1_h1_10_9"  />
</g>
<g id="a1_0010"  >
<polygon points="199,85 204,80 217,80 217,90 204,90 199,85 " style="fill:#15d863; stroke-width:1; stroke:black; " description="&lt;b&gt;DXXMK7_RS14405&lt;/b&gt;&lt;br&gt;enterobactin transporter EntS&lt;br&gt;Location: 3346198 - 3347478&lt;br&gt;&lt;br&gt;&lt;b&gt;BlastP hit with MCIC6FC_014026&lt;/b&gt;&lt;br&gt;Percentage identity: 67&lt;br&gt;Percentage coverage: 109&lt;br&gt;BLAST bit score: 452&lt;br&gt;E-value: 4.6e-125" locus_tag="DXXMK7_RS14405" class="clusterblast-orf" id="dummy-1_h1_10_10"  />
</g>
<g id="a1_0011"  >
<polygon points="220,90 230,90 235,85 230,80 220,80 220,90 " style="fill:#3c15d8; stroke-width:1; stroke:black; " description="&lt;b&gt;DXXMK7_RS14410&lt;/b&gt;&lt;br&gt;Fe(3+)-siderophore ABC transporter permease&lt;br&gt;Location: 3347655 - 3348731&lt;br&gt;&lt;br&gt;&lt;b&gt;BlastP hit with MCIC6FC_014027&lt;/b&gt;&lt;br&gt;Percentage identity: 64&lt;br&gt;Percentage coverage: 39&lt;br&gt;BLAST bit score: 372&lt;br&gt;E-value: 1.5e-100" locus_tag="DXXMK7_RS14410" class="clusterblast-orf" id="dummy-1_h1_10_11"  />
</g>
<g id="a1_0012"  >
<polygon points="236,90 246,90 251,85 246,80 236,80 236,90 " style="fill:#3c15d8; stroke-width:1; stroke:black; " description="&lt;b&gt;DXXMK7_RS14415&lt;/b&gt;&lt;br&gt;iron-enterobactin ABC transporter permease&lt;br&gt;Location: 3348744 - 3349778&lt;br&gt;&lt;br&gt;&lt;b&gt;BlastP hit with MCIC6FC_014027&lt;/b&gt;&lt;br&gt;Percentage identity: 67&lt;br&gt;Percentage coverage: 35&lt;br&gt;BLAST bit score: 360&lt;br&gt;E-value: 5.7e-97" locus_tag="DXXMK7_RS14415" class="clusterblast-orf" id="dummy-1_h1_10_12"  />
</g>
<g id="a1_0013"  >
<polygon points="251,90 258,90 263,85 258,80 251,80 251,90 " style="fill:#3c15d8; stroke-width:1; stroke:black; " description="&lt;b&gt;DXXMK7_RS14420&lt;/b&gt;&lt;br&gt;ABC transporter ATP-binding protein&lt;br&gt;Location: 3349815 - 3350612&lt;br&gt;&lt;br&gt;&lt;b&gt;BlastP hit with MCIC6FC_014027&lt;/b&gt;&lt;br&gt;Percentage identity: 71&lt;br&gt;Percentage coverage: 30&lt;br&gt;BLAST bit score: 359&lt;br&gt;E-value: 9.8e-97" locus_tag="DXXMK7_RS14420" class="clusterblast-orf" id="dummy-1_h1_10_13"  />
</g>
<g id="a1_0014"  >
<polygon points="268,85 273,80 392,80 392,90 273,90 268,85 " style="fill:#d8158a; stroke-width:1; stroke:black; " description="&lt;b&gt;DXXMK7_RS14425&lt;/b&gt;&lt;br&gt;non-ribosomal peptide synthetase&lt;br&gt;Location: 3350993 - 3359557&lt;br&gt;&lt;br&gt;&lt;b&gt;BlastP hit with MCIC6FC_014028&lt;/b&gt;&lt;br&gt;Percentage identity: 54&lt;br&gt;Percentage coverage: 102&lt;br&gt;BLAST bit score: 2602&lt;br&gt;E-value: 0.0" locus_tag="DXXMK7_RS14425" class="clusterblast-orf" id="dummy-1_h1_10_14"  />
</g>
<g id="a1_0015"  >
<polygon points="393,85 396,80 396,90 393,85 " style="fill:white; stroke-width:1; stroke:black; " description="&lt;b&gt;DXXMK7_RS14430&lt;/b&gt;&lt;br&gt;MbtH family protein&lt;br&gt;Location: 3359660 - 3359878" locus_tag="DXXMK7_RS14430" class="clusterblast-orf" id="dummy-1_h1_10_15"  />
</g>
<g id="a1_0016"  >
<polygon points="397,85 402,80 416,80 416,90 402,90 397,85 " style="fill:white; stroke-width:1; stroke:black; " description="&lt;b&gt;DXXMK7_RS14435&lt;/b&gt;&lt;br&gt;enterochelin esterase&lt;br&gt;Location: 3359938 - 3361245" locus_tag="DXXMK7_RS14435" class="clusterblast-orf" id="dummy-1_h1_10_16"  />
</g>
<g id="a1_0017"  >
<polygon points="421,90 448,90 453,85 448,80 421,80 421,90 " style="fill:#b1d815; stroke-width:1; stroke:black; " description="&lt;b&gt;DXXMK7_RS14440&lt;/b&gt;&lt;br&gt;TonB-dependent siderophore receptor&lt;br&gt;Location: 3361559 - 3363766&lt;br&gt;&lt;br&gt;&lt;b&gt;BlastP hit with MCIC6FC_014029&lt;/b&gt;&lt;br&gt;Percentage identity: 49&lt;br&gt;Percentage coverage: 51&lt;br&gt;BLAST bit score: 565&lt;br&gt;E-value: 1.4e-158" locus_tag="DXXMK7_RS14440" class="clusterblast-orf" id="dummy-1_h1_10_17"  />
</g>
<g id="a1_0018"  >
<polygon points="454,90 466,90 471,85 466,80 454,80 454,90 " style="fill:white; stroke-width:1; stroke:black; " description="&lt;b&gt;DXXMK7_RS14445&lt;/b&gt;&lt;br&gt;isochorismate synthase&lt;br&gt;Location: 3363850 - 3365037" locus_tag="DXXMK7_RS14445" class="clusterblast-orf" id="dummy-1_h1_10_18"  />
</g>
<g id="a1_0019"  >
<polygon points="471,90 489,90 494,85 489,80 471,80 471,90 " style="fill:white; stroke-width:1; stroke:black; " description="&lt;b&gt;DXXMK7_RS14450&lt;/b&gt;&lt;br&gt;(2,3-dihydroxybenzoyl)adenylate synthase&lt;br&gt;Location: 3365034 - 3366662" locus_tag="DXXMK7_RS14450" class="clusterblast-orf" id="dummy-1_h1_10_19"  />
</g>
<g id="a1_0020"  >
<polygon points="494,90 502,90 507,85 502,80 494,80 494,90 " style="fill:white; stroke-width:1; stroke:black; " description="&lt;b&gt;DXXMK7_RS14455&lt;/b&gt;&lt;br&gt;isochorismatase&lt;br&gt;Location: 3366666 - 3367541" locus_tag="DXXMK7_RS14455" class="clusterblast-orf" id="dummy-1_h1_10_20"  />
</g>
<g id="a1_0021"  >
<polygon points="507,90 513,90 518,85 513,80 507,80 507,90 " style="fill:white; stroke-width:1; stroke:black; " description="&lt;b&gt;DXXMK7_RS14460&lt;/b&gt;&lt;br&gt;2,3-dihydro-2,3-dihydroxybenzoate dehydrogenase&lt;br&gt;Location: 3367538 - 3368296" locus_tag="DXXMK7_RS14460" class="clusterblast-orf" id="dummy-1_h1_10_21"  />
</g>
<g id="a1_0022"  >
<polygon points="518,90 519,90 524,85 519,80 518,80 518,90 " style="fill:white; stroke-width:1; stroke:black; " description="&lt;b&gt;DXXMK7_RS14465&lt;/b&gt;&lt;br&gt;hotdog fold thioesterase&lt;br&gt;Location: 3368320 - 3368736" locus_tag="DXXMK7_RS14465" class="clusterblast-orf" id="dummy-1_h1_10_22"  />
</g>
<g id="a1_0023"  >
<polygon points="526,90 529,85 526,80 526,90 " style="fill:white; stroke-width:1; stroke:black; " description="&lt;b&gt;DXXMK7_RS22340&lt;/b&gt;&lt;br&gt;hypothetical protein&lt;br&gt;Location: 3368833 - 3369084" locus_tag="DXXMK7_RS22340" class="clusterblast-orf" id="dummy-1_h1_10_23"  />
</g>
<g id="a1_0024"  >
<polygon points="530,85 535,80 545,80 545,90 535,90 530,85 " style="fill:white; stroke-width:1; stroke:black; " description="&lt;b&gt;DXXMK7_RS14470&lt;/b&gt;&lt;br&gt;alkene reductase&lt;br&gt;Location: 3369112 - 3370170" locus_tag="DXXMK7_RS14470" class="clusterblast-orf" id="dummy-1_h1_10_24"  />
</g>
<g id="a1_0025"  >
<polygon points="550,85 555,80 558,80 558,90 555,90 550,85 " style="fill:white; stroke-width:1; stroke:black; " description="&lt;b&gt;DXXMK7_RS14475&lt;/b&gt;&lt;br&gt;alpha/beta hydrolase&lt;br&gt;Location: 3370486 - 3371058" locus_tag="DXXMK7_RS14475" class="clusterblast-orf" id="dummy-1_h1_10_25"  />
</g>
<g id="a1_0026"  >
<polygon points="562,85 567,80 570,80 570,90 567,90 562,85 " style="fill:white; stroke-width:1; stroke:black; " description="&lt;b&gt;DXXMK7_RS14480&lt;/b&gt;&lt;br&gt;YbaK/prolyl-tRNA synthetase associated domain-containing protein&lt;br&gt;Location: 3371377 - 3371871" locus_tag="DXXMK7_RS14480" class="clusterblast-orf" id="dummy-1_h1_10_26"  />
</g>
<g id="a1_0027"  >
<polygon points="574,90 575,85 574,80 574,90 " style="fill:white; stroke-width:1; stroke:black; " description="&lt;b&gt;DXXMK7_RS22690&lt;/b&gt;&lt;br&gt;membrane protein YpdK&lt;br&gt;Location: 3372142 - 3372216" locus_tag="DXXMK7_RS22690" class="clusterblast-orf" id="dummy-1_h1_10_27"  />
</g>
<g id="a1_0028"  >
<polygon points="577,85 582,80 589,80 589,90 582,90 577,85 " style="fill:white; stroke-width:1; stroke:black; " description="&lt;b&gt;DXXMK7_RS14485&lt;/b&gt;&lt;br&gt;prepilin peptidase&lt;br&gt;Location: 3372393 - 3373244" locus_tag="DXXMK7_RS14485" class="clusterblast-orf" id="dummy-1_h1_10_28"  />
</g>
<g id="a1_0029"  >
<polygon points="592,85 597,80 599,80 599,90 597,90 592,85 " style="fill:white; stroke-width:1; stroke:black; " description="&lt;b&gt;DXXMK7_RS14490&lt;/b&gt;&lt;br&gt;type II secretion system protein M&lt;br&gt;Location: 3373425 - 3373913" locus_tag="DXXMK7_RS14490" class="clusterblast-orf" id="dummy-1_h1_10_29"  />
</g>
<g id="a1_0030"  >
<polygon points="599,85 604,80 616,80 616,90 604,90 599,85 " style="fill:white; stroke-width:1; stroke:black; " description="&lt;b&gt;DXXMK7_RS14495&lt;/b&gt;&lt;br&gt;type II secretion system protein GspL&lt;br&gt;Location: 3373910 - 3375112" locus_tag="DXXMK7_RS14495" class="clusterblast-orf" id="dummy-1_h1_10_30"  />
</g>
<g id="a1_0031"  >
<polygon points="616,85 621,80 632,80 632,90 621,90 616,85 " style="fill:white; stroke-width:1; stroke:black; " description="&lt;b&gt;DXXMK7_RS14500&lt;/b&gt;&lt;br&gt;type II secretion system minor pseudopilin GspK&lt;br&gt;Location: 3375109 - 3376185" locus_tag="DXXMK7_RS14500" class="clusterblast-orf" id="dummy-1_h1_10_31"  />
</g>
<g id="a1_0032"  >
<polygon points="632,85 637,80 643,80 643,90 637,90 632,85 " style="fill:white; stroke-width:1; stroke:black; " description="&lt;b&gt;DXXMK7_RS14505&lt;/b&gt;&lt;br&gt;type II secretion system minor pseudopilin GspJ&lt;br&gt;Location: 3376182 - 3376922" locus_tag="DXXMK7_RS14505" class="clusterblast-orf" id="dummy-1_h1_10_32"  />
</g>
<g id="a1_0033"  >
<polygon points="643,85 648,80 648,80 648,90 648,90 643,85 " style="fill:white; stroke-width:1; stroke:black; " description="&lt;b&gt;DXXMK7_RS14510&lt;/b&gt;&lt;br&gt;type II secretion system minor pseudopilin GspI&lt;br&gt;Location: 3376919 - 3377296" locus_tag="DXXMK7_RS14510" class="clusterblast-orf" id="dummy-1_h1_10_33"  />
</g>
<g id="a1_0034"  >
<polygon points="648,85 653,80 656,80 656,90 653,90 648,85 " style="fill:white; stroke-width:1; stroke:black; " description="&lt;b&gt;DXXMK7_RS14515&lt;/b&gt;&lt;br&gt;type II secretion system minor pseudopilin GspH&lt;br&gt;Location: 3377300 - 3377839" locus_tag="DXXMK7_RS14515" class="clusterblast-orf" id="dummy-1_h1_10_34"  />
</g>
<g id="a1_0035"  >
<polygon points="656,85 661,80 662,80 662,90 661,90 656,85 " style="fill:white; stroke-width:1; stroke:black; " description="&lt;b&gt;DXXMK7_RS14520&lt;/b&gt;&lt;br&gt;type II secretion system major pseudopilin GspG&lt;br&gt;Location: 3377842 - 3378303" locus_tag="DXXMK7_RS14520" class="clusterblast-orf" id="dummy-1_h1_10_35"  />
</g>
<g id="a1_0036"  >
<polygon points="663,85 668,80 681,80 681,90 668,90 663,85 " style="fill:white; stroke-width:1; stroke:black; " description="&lt;b&gt;DXXMK7_RS14525&lt;/b&gt;&lt;br&gt;type II secretion system inner membrane protein GspF&lt;br&gt;Location: 3378338 - 3379564" locus_tag="DXXMK7_RS14525" class="clusterblast-orf" id="dummy-1_h1_10_36"  />
</g>
<g id="a1_0037"  >
<polygon points="681,85 686,80 702,80 702,90 686,90 681,85 " style="fill:white; stroke-width:1; stroke:black; " description="&lt;b&gt;DXXMK7_RS14530&lt;/b&gt;&lt;br&gt;type II secretion system ATPase GspE&lt;br&gt;Location: 3379566 - 3381062" locus_tag="DXXMK7_RS14530" class="clusterblast-orf" id="dummy-1_h1_10_37"  />
</g>
<g id="a1_0038"  >
<polygon points="702,85 707,80 733,80 733,90 707,90 702,85 " style="fill:white; stroke-width:1; stroke:black; " description="&lt;b&gt;DXXMK7_RS14535&lt;/b&gt;&lt;br&gt;type II secretion system secretin GspD&lt;br&gt;Location: 3381059 - 3383188" locus_tag="DXXMK7_RS14535" class="clusterblast-orf" id="dummy-1_h1_10_38"  />
</g>
<g id="a1_0039"  >
<polygon points="733,85 738,80 745,80 745,90 738,90 733,85 " style="fill:white; stroke-width:1; stroke:black; " description="&lt;b&gt;DXXMK7_RS14540&lt;/b&gt;&lt;br&gt;type II secretion system protein GspC&lt;br&gt;Location: 3383190 - 3384008" locus_tag="DXXMK7_RS14540" class="clusterblast-orf" id="dummy-1_h1_10_39"  />
</g>
<g id="a1_0040"  >
<polygon points="754,85 755,80 755,90 754,85 " style="fill:white; stroke-width:1; stroke:black; " description="&lt;b&gt;DXXMK7_RS22695&lt;/b&gt;&lt;br&gt;N-acetyltransferase&lt;br&gt;Location: 3384658 - 3384735" locus_tag="DXXMK7_RS22695" class="clusterblast-orf" id="dummy-1_h1_10_40"  />
</g>
<g id="a1_0041"  >
<polygon points="758,85 762,80 762,90 758,85 " style="fill:white; stroke-width:1; stroke:black; " description="&lt;b&gt;DXXMK7_RS14545&lt;/b&gt;&lt;br&gt;hypothetical protein&lt;br&gt;Location: 3384888 - 3385214" locus_tag="DXXMK7_RS14545" class="clusterblast-orf" id="dummy-1_h1_10_41"  />
</g>
<g id="a1_0042"  >
<polygon points="764,90 768,90 773,85 768,80 764,80 764,90 " style="fill:white; stroke-width:1; stroke:black; " description="&lt;b&gt;DXXMK7_RS14550&lt;/b&gt;&lt;br&gt;type II secretion system assembly factor GspB&lt;br&gt;Location: 3385350 - 3385970" locus_tag="DXXMK7_RS14550" class="clusterblast-orf" id="dummy-1_h1_10_42"  />
</g>
<g id="a1_0043"  >
<polygon points="774,85 779,80 780,80 780,90 779,90 774,85 " style="fill:white; stroke-width:1; stroke:black; " description="&lt;b&gt;DXXMK7_RS14555&lt;/b&gt;&lt;br&gt;GspS family T2SS pilot lipoprotein variant OutS&lt;br&gt;Location: 3386005 - 3386406" locus_tag="DXXMK7_RS14555" class="clusterblast-orf" id="dummy-1_h1_10_43"  />
</g>
</svg>
