<svg xmlns="http://www.w3.org/2000/svg" xmlns:xlink="http://www.w3.org/1999/xlink" version="1.1" x="0" y="0" height="230" width="800" viewBox="0 0 800 230" preserveAspectRatio="none"  >
<g label="Query sequence" class="clusterblast-cluster"  >
<text x="5" y="20" class="clusterblast-acc"  >
Query sequence</text>
<line x1="10" y1="35" x2="778.0" y2="35" style="stroke-width:1; stroke:grey; "  />
<polygon points="22,40 25,40 30,35 25,30 22,30 22,40 " style="fill:#d81515; stroke-width:1; stroke:black; " description="&lt;b&gt;MCIC6FC_021937&lt;/b&gt;&lt;br&gt;hypothetical protein&lt;br&gt;Location: 55403 - 55824" locus_tag="MCIC6FC_021937" class="clusterblast-orf" id="dummy-1_q0_0_all"  />
<polygon points="31,40 100,40 105,35 100,30 31,30 31,40 " style="fill:#77d815; stroke-width:1; stroke:black; " description="&lt;b&gt;MCIC6FC_021938&lt;/b&gt;&lt;br&gt;hypothetical protein&lt;br&gt;Location: 55847 - 59617" locus_tag="MCIC6FC_021938" class="clusterblast-orf" id="dummy-1_q1_0_all"  />
<polygon points="106,35 111,30 161,30 161,40 111,40 106,35 " style="fill:#15d8d8; stroke-width:1; stroke:black; " description="&lt;b&gt;MCIC6FC_021939&lt;/b&gt;&lt;br&gt;hypothetical protein&lt;br&gt;Location: 59691 - 62473" locus_tag="MCIC6FC_021939" class="clusterblast-orf" id="dummy-1_q2_0_all"  />
<polygon points="166,35 171,30 205,30 205,40 171,40 166,35 " style="fill:#7715d8; stroke-width:1; stroke:black; " description="&lt;b&gt;MCIC6FC_021940&lt;/b&gt;&lt;br&gt;hypothetical protein&lt;br&gt;Location: 62725 - 64695" locus_tag="MCIC6FC_021940" class="clusterblast-orf" id="dummy-1_q3_0_all"  />
<polygon points="215,40 224,40 229,35 224,30 215,30 215,40 " style="fill:#d8a715; stroke-width:1; stroke:black; " description="&lt;b&gt;MCIC6FC_021941&lt;/b&gt;&lt;br&gt;hypothetical protein&lt;br&gt;Location: 65215 - 65932" locus_tag="MCIC6FC_021941" class="clusterblast-orf" id="dummy-1_q4_0_all"  />
<polygon points="232,40 258,40 263,35 258,30 232,30 232,40 " style="fill:#15d846; stroke-width:1; stroke:black; " description="&lt;b&gt;MCIC6FC_021942&lt;/b&gt;&lt;br&gt;hypothetical protein&lt;br&gt;Location: 66050 - 67624" locus_tag="MCIC6FC_021942" class="clusterblast-orf" id="dummy-1_q5_0_all"  />
<polygon points="265,35 270,30 310,30 310,40 270,40 265,35 " style="fill:white; stroke-width:1; stroke:black; " description="&lt;b&gt;MCIC6FC_021943&lt;/b&gt;&lt;br&gt;hypothetical protein&lt;br&gt;Location: 67770 - 70040" locus_tag="MCIC6FC_021943" class="clusterblast-orf" id="dummy-1_q6_0_all"  />
<polygon points="363,35 368,30 388,30 388,40 368,40 363,35 " style="fill:white; stroke-width:1; stroke:black; " description="&lt;b&gt;MCIC6FC_021944&lt;/b&gt;&lt;br&gt;hypothetical protein&lt;br&gt;Location: 72711 - 73984" locus_tag="MCIC6FC_021944" class="clusterblast-orf" id="dummy-1_q7_0_all"  />
<polygon points="393,35 398,30 408,30 408,40 398,40 393,35 " style="fill:#1546d8; stroke-width:1; stroke:black; " description="&lt;b&gt;MCIC6FC_021945&lt;/b&gt;&lt;br&gt;hypothetical protein&lt;br&gt;Location: 74227 - 75000" locus_tag="MCIC6FC_021945" class="clusterblast-orf" id="dummy-1_q8_0_all"  />
<polygon points="409,35 414,30 450,30 450,40 414,40 409,35 " style="fill:#d815a7; stroke-width:1; stroke:black; " description="&lt;b&gt;MCIC6FC_021946&lt;/b&gt;&lt;br&gt;hypothetical protein&lt;br&gt;Location: 75073 - 77123" locus_tag="MCIC6FC_021946" class="clusterblast-orf" id="dummy-1_q9_0_all"  />
<polygon points="450,35 455,30 582,30 582,40 455,40 450,35 " style="fill:#d815a7; stroke-width:1; stroke:black; " description="&lt;b&gt;MCIC6FC_021947&lt;/b&gt;&lt;br&gt;hypothetical protein&lt;br&gt;Location: 77158 - 83829" locus_tag="MCIC6FC_021947" class="clusterblast-orf" id="dummy-1_q10_0_all"  />
<polygon points="595,40 607,40 612,35 607,30 595,30 595,40 " style="fill:white; stroke-width:1; stroke:black; " description="&lt;b&gt;MCIC6FC_021948&lt;/b&gt;&lt;br&gt;hypothetical protein&lt;br&gt;Location: 84520 - 85380" locus_tag="MCIC6FC_021948" class="clusterblast-orf" id="dummy-1_q11_0_all"  />
<polygon points="613,35 618,30 643,30 643,40 618,40 613,35 " style="fill:white; stroke-width:1; stroke:black; " description="&lt;b&gt;MCIC6FC_021949&lt;/b&gt;&lt;br&gt;hypothetical protein&lt;br&gt;Location: 85440 - 86954" locus_tag="MCIC6FC_021949" class="clusterblast-orf" id="dummy-1_q12_0_all"  />
<polygon points="643,40 646,40 651,35 646,30 643,30 643,40 " style="fill:white; stroke-width:1; stroke:black; " description="&lt;b&gt;MCIC6FC_021950&lt;/b&gt;&lt;br&gt;hypothetical protein&lt;br&gt;Location: 86955 - 87358" locus_tag="MCIC6FC_021950" class="clusterblast-orf" id="dummy-1_q13_0_all"  />
<polygon points="657,35 662,30 674,30 674,40 662,40 657,35 " style="fill:white; stroke-width:1; stroke:black; " description="&lt;b&gt;MCIC6FC_021951&lt;/b&gt;&lt;br&gt;hypothetical protein&lt;br&gt;Location: 87647 - 88546" locus_tag="MCIC6FC_021951" class="clusterblast-orf" id="dummy-1_q14_0_all"  />
<polygon points="676,35 681,30 757,30 757,40 681,40 676,35 " style="fill:white; stroke-width:1; stroke:black; " description="&lt;b&gt;MCIC6FC_021952&lt;/b&gt;&lt;br&gt;hypothetical protein&lt;br&gt;Location: 88626 - 92757" locus_tag="MCIC6FC_021952" class="clusterblast-orf" id="dummy-1_q15_0_all"  />
</g>
<g label="NZ_CP050447" description="NZ_CP050447 (3715507-3758492): Serratia marcescens strain SER00094 chromosome... (22% of genes show similarity), NRPS-like" class="clusterblast-cluster"  >
<text x="5" y="70" class="clusterblast-acc"  >
<a xlink:href="https://antismash-db.secondarymetabolites.org/area.html?record=NZ_CP050447&amp;start=3715507&amp;end=3758492" target="_blank">NZ_CP050447 (3715507-3758492)</a>: Serratia marcescens strain SER00094 chromosome... (22% of genes show similarity), NRPS-like</text>
<line x1="10" y1="85" x2="778.0" y2="85" style="stroke-width:1; stroke:grey; "  />
</g>
<g id="a1_000"  >
<polygon points="0,85 5,80 11,80 11,90 5,90 0,85 " style="fill:white; stroke-width:1; stroke:black; " description="&lt;b&gt;HCG50_RS17460&lt;/b&gt;&lt;br&gt;phosphonate C-P lyase system protein PhnH&lt;br&gt;Location: 3716418 - 3716999" locus_tag="HCG50_RS17460" class="clusterblast-orf" id="dummy-1_h1_4_0"  />
</g>
<g id="a1_001"  >
<polygon points="11,85 16,80 20,80 20,90 16,90 11,85 " style="fill:white; stroke-width:1; stroke:black; " description="&lt;b&gt;HCG50_RS17465&lt;/b&gt;&lt;br&gt;phosphonate C-P lyase system protein PhnG&lt;br&gt;Location: 3717003 - 3717446" locus_tag="HCG50_RS17465" class="clusterblast-orf" id="dummy-1_h1_4_1"  />
</g>
<g id="a1_002"  >
<polygon points="20,85 25,80 34,80 34,90 25,90 20,85 " style="fill:white; stroke-width:1; stroke:black; " description="&lt;b&gt;HCG50_RS17470&lt;/b&gt;&lt;br&gt;phosphonate metabolism transcriptional regulator PhnF&lt;br&gt;Location: 3717447 - 3718175" locus_tag="HCG50_RS17470" class="clusterblast-orf" id="dummy-1_h1_4_2"  />
</g>
<g id="a1_003"  >
<polygon points="39,90 54,90 59,85 54,80 39,80 39,90 " style="fill:white; stroke-width:1; stroke:black; " description="&lt;b&gt;HCG50_RS17475&lt;/b&gt;&lt;br&gt;permease&lt;br&gt;Location: 3718403 - 3719461" locus_tag="HCG50_RS17475" class="clusterblast-orf" id="dummy-1_h1_4_3"  />
</g>
<g id="a1_004"  >
<polygon points="64,90 67,90 72,85 67,80 64,80 64,90 " style="fill:white; stroke-width:1; stroke:black; " description="&lt;b&gt;HCG50_RS17480&lt;/b&gt;&lt;br&gt;acetyltransferase&lt;br&gt;Location: 3719683 - 3720126" locus_tag="HCG50_RS17480" class="clusterblast-orf" id="dummy-1_h1_4_4"  />
</g>
<g id="a1_005"  >
<polygon points="73,85 78,80 84,80 84,90 78,90 73,85 " style="fill:white; stroke-width:1; stroke:black; " description="&lt;b&gt;HCG50_RS17485&lt;/b&gt;&lt;br&gt;helix-turn-helix domain-containing protein&lt;br&gt;Location: 3720146 - 3720730" locus_tag="HCG50_RS17485" class="clusterblast-orf" id="dummy-1_h1_4_5"  />
</g>
<g id="a1_006"  >
<polygon points="89,85 94,80 98,80 98,90 94,90 89,85 " style="fill:white; stroke-width:1; stroke:black; " description="&lt;b&gt;HCG50_RS17490&lt;/b&gt;&lt;br&gt;anaerobic ribonucleoside-triphosphate reductase-activating protein&lt;br&gt;Location: 3720983 - 3721447" locus_tag="HCG50_RS17490" class="clusterblast-orf" id="dummy-1_h1_4_6"  />
</g>
<g id="a1_007"  >
<polygon points="102,85 107,80 144,80 144,90 107,90 102,85 " style="fill:white; stroke-width:1; stroke:black; " description="&lt;b&gt;HCG50_RS17495&lt;/b&gt;&lt;br&gt;anaerobic ribonucleoside-triphosphate reductase&lt;br&gt;Location: 3721616 - 3723754" locus_tag="HCG50_RS17495" class="clusterblast-orf" id="dummy-1_h1_4_7"  />
</g>
<g id="a1_008"  >
<polygon points="149,85 154,80 167,80 167,90 154,90 149,85 " style="fill:white; stroke-width:1; stroke:black; " description="&lt;b&gt;HCG50_RS17500&lt;/b&gt;&lt;br&gt;LysR family transcriptional regulator&lt;br&gt;Location: 3723999 - 3724913" locus_tag="HCG50_RS17500" class="clusterblast-orf" id="dummy-1_h1_4_8"  />
</g>
<g id="a1_009"  >
<polygon points="169,90 174,90 179,85 174,80 169,80 169,90 " style="fill:white; stroke-width:1; stroke:black; " description="&lt;b&gt;HCG50_RS17505&lt;/b&gt;&lt;br&gt;oxidoreductase&lt;br&gt;Location: 3725019 - 3725543" locus_tag="HCG50_RS17505" class="clusterblast-orf" id="dummy-1_h1_4_9"  />
</g>
<g id="a1_0010"  >
<polygon points="180,85 185,80 212,80 212,90 185,90 180,85 " style="fill:white; stroke-width:1; stroke:black; " description="&lt;b&gt;HCG50_RS17510&lt;/b&gt;&lt;br&gt;alpha,alpha-phosphotrehalase&lt;br&gt;Location: 3725572 - 3727236" locus_tag="HCG50_RS17510" class="clusterblast-orf" id="dummy-1_h1_4_10"  />
</g>
<g id="a1_0011"  >
<polygon points="214,85 219,80 242,80 242,90 219,90 214,85 " style="fill:white; stroke-width:1; stroke:black; " description="&lt;b&gt;HCG50_RS17515&lt;/b&gt;&lt;br&gt;PTS trehalose transporter subunit IIBC&lt;br&gt;Location: 3727304 - 3728719" locus_tag="HCG50_RS17515" class="clusterblast-orf" id="dummy-1_h1_4_11"  />
</g>
<g id="a1_0012"  >
<polygon points="244,85 249,80 263,80 263,90 249,90 244,85 " style="fill:white; stroke-width:1; stroke:black; " description="&lt;b&gt;HCG50_RS17520&lt;/b&gt;&lt;br&gt;HTH-type transcriptional regulator TreR&lt;br&gt;Location: 3728857 - 3729804" locus_tag="HCG50_RS17520" class="clusterblast-orf" id="dummy-1_h1_4_12"  />
</g>
<g id="a1_0013"  >
<polygon points="271,90 320,90 325,85 320,80 271,80 271,90 " style="fill:white; stroke-width:1; stroke:black; " description="&lt;b&gt;HCG50_RS17525&lt;/b&gt;&lt;br&gt;magnesium-translocating P-type ATPase&lt;br&gt;Location: 3730229 - 3732937" locus_tag="HCG50_RS17525" class="clusterblast-orf" id="dummy-1_h1_4_13"  />
</g>
<g id="a1_0014"  >
<polygon points="327,90 370,90 375,85 370,80 327,80 327,90 " style="fill:white; stroke-width:1; stroke:black; " description="&lt;b&gt;HCG50_RS17530&lt;/b&gt;&lt;br&gt;family 20 glycosylhydrolase&lt;br&gt;Location: 3733081 - 3735471" locus_tag="HCG50_RS17530" class="clusterblast-orf" id="dummy-1_h1_4_14"  />
</g>
<g id="a1_0015"  >
<polygon points="375,85 380,80 434,80 434,90 380,90 375,85 " style="fill:white; stroke-width:1; stroke:black; " description="&lt;b&gt;HCG50_RS17535&lt;/b&gt;&lt;br&gt;amino acid adenylation domain-containing protein&lt;br&gt;Location: 3735508 - 3738492" locus_tag="HCG50_RS17535" class="clusterblast-orf" id="dummy-1_h1_4_15"  />
</g>
<g id="a1_0016"  >
<polygon points="438,85 443,80 446,80 446,90 443,90 438,85 " style="fill:white; stroke-width:1; stroke:black; " description="&lt;b&gt;HCG50_RS17540&lt;/b&gt;&lt;br&gt;2-iminobutanoate/2-iminopropanoate deaminase&lt;br&gt;Location: 3738697 - 3739083" locus_tag="HCG50_RS17540" class="clusterblast-orf" id="dummy-1_h1_4_16"  />
</g>
<g id="a1_0017"  >
<polygon points="449,85 454,80 458,80 458,90 454,90 449,85 " style="fill:white; stroke-width:1; stroke:black; " description="&lt;b&gt;HCG50_RS17545&lt;/b&gt;&lt;br&gt;aspartate carbamoyltransferase regulatory subunit&lt;br&gt;Location: 3739243 - 3739707" locus_tag="HCG50_RS17545" class="clusterblast-orf" id="dummy-1_h1_4_17"  />
</g>
<g id="a1_0018"  >
<polygon points="458,85 463,80 477,80 477,90 463,90 458,85 " style="fill:white; stroke-width:1; stroke:black; " description="&lt;b&gt;HCG50_RS17550&lt;/b&gt;&lt;br&gt;aspartate carbamoyltransferase&lt;br&gt;Location: 3739720 - 3740655" locus_tag="HCG50_RS17550" class="clusterblast-orf" id="dummy-1_h1_4_18"  />
</g>
<g id="a1_0019"  >
<polygon points="482,85 487,80 513,80 513,90 487,90 482,85 " style="fill:white; stroke-width:1; stroke:black; " description="&lt;b&gt;HCG50_RS17555&lt;/b&gt;&lt;br&gt;ABC transporter substrate-binding protein&lt;br&gt;Location: 3740945 - 3742513" locus_tag="HCG50_RS17555" class="clusterblast-orf" id="dummy-1_h1_4_19"  />
</g>
<g id="a1_0020"  >
<polygon points="517,85 522,80 537,80 537,90 522,90 517,85 " style="fill:white; stroke-width:1; stroke:black; " description="&lt;b&gt;HCG50_RS17560&lt;/b&gt;&lt;br&gt;ornithine carbamoyltransferase&lt;br&gt;Location: 3742708 - 3743727" locus_tag="HCG50_RS17560" class="clusterblast-orf" id="dummy-1_h1_4_20"  />
</g>
<g id="a1_0021"  >
<polygon points="540,90 544,90 549,85 544,80 540,80 540,90 " style="fill:#d81515; stroke-width:1; stroke:black; " description="&lt;b&gt;HCG50_RS17565&lt;/b&gt;&lt;br&gt;ribonuclease E inhibitor RraB&lt;br&gt;Location: 3743890 - 3744315&lt;br&gt;&lt;br&gt;&lt;b&gt;BlastP hit with MCIC6FC_021937&lt;/b&gt;&lt;br&gt;Percentage identity: 60&lt;br&gt;Percentage coverage: 113&lt;br&gt;BLAST bit score: 145&lt;br&gt;E-value: 3.2e-33" locus_tag="HCG50_RS17565" class="clusterblast-orf" id="dummy-1_h1_4_21"  />
</g>
<g id="a1_0022"  >
<polygon points="552,90 562,90 567,85 562,80 552,80 552,90 " style="fill:#77d815; stroke-width:1; stroke:black; " description="&lt;b&gt;HCG50_RS17570&lt;/b&gt;&lt;br&gt;tRNA-(ms[2]io[6]A)-hydroxylase&lt;br&gt;Location: 3744494 - 3745258&lt;br&gt;&lt;br&gt;&lt;b&gt;BlastP hit with MCIC6FC_021938&lt;/b&gt;&lt;br&gt;Percentage identity: 69&lt;br&gt;Percentage coverage: 19&lt;br&gt;BLAST bit score: 247&lt;br&gt;E-value: 7.7e-63" locus_tag="HCG50_RS17570" class="clusterblast-orf" id="dummy-1_h1_4_22"  />
</g>
<g id="a1_0023"  >
<polygon points="567,85 572,80 599,80 599,90 572,90 567,85 " style="fill:white; stroke-width:1; stroke:black; " description="&lt;b&gt;HCG50_RS17575&lt;/b&gt;&lt;br&gt;glucose-methanol-choline oxidoreductase&lt;br&gt;Location: 3745274 - 3746881" locus_tag="HCG50_RS17575" class="clusterblast-orf" id="dummy-1_h1_4_23"  />
</g>
<g id="a1_0024"  >
<polygon points="604,85 609,80 613,80 613,90 609,90 604,85 " style="fill:white; stroke-width:1; stroke:black; " description="&lt;b&gt;HCG50_RS17580&lt;/b&gt;&lt;br&gt;GNAT family N-acetyltransferase&lt;br&gt;Location: 3747108 - 3747611" locus_tag="HCG50_RS17580" class="clusterblast-orf" id="dummy-1_h1_4_24"  />
</g>
<g id="a1_0025"  >
<polygon points="617,85 622,80 674,80 674,90 622,90 617,85 " style="fill:#15d8d8; stroke-width:1; stroke:black; " description="&lt;b&gt;HCG50_RS17585&lt;/b&gt;&lt;br&gt;valine--tRNA ligase&lt;br&gt;Location: 3747812 - 3750688&lt;br&gt;&lt;br&gt;&lt;b&gt;BlastP hit with MCIC6FC_021939&lt;/b&gt;&lt;br&gt;Percentage identity: 79&lt;br&gt;Percentage coverage: 111&lt;br&gt;BLAST bit score: 1411&lt;br&gt;E-value: 0.0" locus_tag="HCG50_RS17585" class="clusterblast-orf" id="dummy-1_h1_4_25"  />
</g>
<g id="a1_0026"  >
<polygon points="674,85 679,80 683,80 683,90 679,90 674,85 " style="fill:#7715d8; stroke-width:1; stroke:black; " description="&lt;b&gt;HCG50_RS17590&lt;/b&gt;&lt;br&gt;DNA polymerase III subunit chi&lt;br&gt;Location: 3750701 - 3751150&lt;br&gt;&lt;br&gt;&lt;b&gt;BlastP hit with MCIC6FC_021940&lt;/b&gt;&lt;br&gt;Percentage identity: 57&lt;br&gt;Percentage coverage: 12&lt;br&gt;BLAST bit score: 59&lt;br&gt;E-value: 1.6e-06" locus_tag="HCG50_RS17590" class="clusterblast-orf" id="dummy-1_h1_4_26"  />
</g>
<g id="a1_0027"  >
<polygon points="685,85 690,80 715,80 715,90 690,90 685,85 " style="fill:#7715d8; stroke-width:1; stroke:black; " description="&lt;b&gt;HCG50_RS17595&lt;/b&gt;&lt;br&gt;leucyl aminopeptidase&lt;br&gt;Location: 3751235 - 3752746&lt;br&gt;&lt;br&gt;&lt;b&gt;BlastP hit with MCIC6FC_021940&lt;/b&gt;&lt;br&gt;Percentage identity: 83&lt;br&gt;Percentage coverage: 96&lt;br&gt;BLAST bit score: 810&lt;br&gt;E-value: 9.6e-233" locus_tag="HCG50_RS17595" class="clusterblast-orf" id="dummy-1_h1_4_27"  />
</g>
<g id="a1_0028"  >
<polygon points="720,90 737,90 742,85 737,80 720,80 720,90 " style="fill:#d8a715; stroke-width:1; stroke:black; " description="&lt;b&gt;HCG50_RS17600&lt;/b&gt;&lt;br&gt;LPS export ABC transporter permease LptF&lt;br&gt;Location: 3753029 - 3754123&lt;br&gt;&lt;br&gt;&lt;b&gt;BlastP hit with MCIC6FC_021941&lt;/b&gt;&lt;br&gt;Percentage identity: 61&lt;br&gt;Percentage coverage: 115&lt;br&gt;BLAST bit score: 265&lt;br&gt;E-value: 3.5e-69" locus_tag="HCG50_RS17600" class="clusterblast-orf" id="dummy-1_h1_4_28"  />
</g>
<g id="a1_0029"  >
<polygon points="742,90 758,90 763,85 758,80 742,80 742,90 " style="fill:#15d846; stroke-width:1; stroke:black; " description="&lt;b&gt;HCG50_RS17605&lt;/b&gt;&lt;br&gt;LPS export ABC transporter permease LptG&lt;br&gt;Location: 3754123 - 3755193&lt;br&gt;&lt;br&gt;&lt;b&gt;BlastP hit with MCIC6FC_021942&lt;/b&gt;&lt;br&gt;Percentage identity: 65&lt;br&gt;Percentage coverage: 73&lt;br&gt;BLAST bit score: 379&lt;br&gt;E-value: 3.7e-103" locus_tag="HCG50_RS17605" class="clusterblast-orf" id="dummy-1_h1_4_29"  />
</g>
<g id="a1_0030"  >
<polygon points="765,90 775,90 780,85 775,80 765,80 765,90 " style="fill:white; stroke-width:1; stroke:black; " description="&lt;b&gt;HCG50_RS17610&lt;/b&gt;&lt;br&gt;LuxR family transcriptional regulator&lt;br&gt;Location: 3755329 - 3756045" locus_tag="HCG50_RS17610" class="clusterblast-orf" id="dummy-1_h1_4_30"  />
</g>
</svg>
