<svg xmlns="http://www.w3.org/2000/svg" xmlns:xlink="http://www.w3.org/1999/xlink" version="1.1" x="0" y="0" height="230" width="800" viewBox="0 0 800 230" preserveAspectRatio="none"  >
<g label="Query sequence" class="clusterblast-cluster"  >
<text x="5" y="20" class="clusterblast-acc"  >
Query sequence</text>
<line x1="10" y1="35" x2="778.0" y2="35" style="stroke-width:1; stroke:grey; "  />
<polygon points="84,40 147,40 152,35 147,30 84,30 84,40 " style="fill:#d81515; stroke-width:1; stroke:black; " description="&lt;b&gt;MCIC6FC_019806&lt;/b&gt;&lt;br&gt;hypothetical protein&lt;br&gt;Location: 44058 - 45851" locus_tag="MCIC6FC_019806" class="clusterblast-orf" id="dummy-1_q0_0_all"  />
<polygon points="157,35 162,30 207,30 207,40 162,40 157,35 " style="fill:#3cd815; stroke-width:1; stroke:black; " description="&lt;b&gt;MCIC6FC_019807&lt;/b&gt;&lt;br&gt;hypothetical protein&lt;br&gt;Location: 45981 - 47312" locus_tag="MCIC6FC_019807" class="clusterblast-orf" id="dummy-1_q1_0_all"  />
<polygon points="209,40 290,40 295,35 290,30 209,30 209,40 " style="fill:#1563d8; stroke-width:1; stroke:black; " description="&lt;b&gt;MCIC6FC_019808&lt;/b&gt;&lt;br&gt;hypothetical protein&lt;br&gt;Location: 47362 - 49671" locus_tag="MCIC6FC_019808" class="clusterblast-orf" id="dummy-1_q2_0_all"  />
<polygon points="318,35 323,30 379,30 379,40 323,40 318,35 " style="fill:#b115d8; stroke-width:1; stroke:black; " description="&lt;b&gt;MCIC6FC_019809&lt;/b&gt;&lt;br&gt;hypothetical protein&lt;br&gt;Location: 50264 - 51899" locus_tag="MCIC6FC_019809" class="clusterblast-orf" id="dummy-1_q3_0_all"  />
<polygon points="385,40 424,40 429,35 424,30 385,30 385,40 " style="fill:#d88a15; stroke-width:1; stroke:black; " description="&lt;b&gt;MCIC6FC_019810&lt;/b&gt;&lt;br&gt;hypothetical protein&lt;br&gt;Location: 52046 - 53210" locus_tag="MCIC6FC_019810" class="clusterblast-orf" id="dummy-1_q4_0_all"  />
<polygon points="429,40 484,40 489,35 484,30 429,30 429,40 " style="fill:#15d863; stroke-width:1; stroke:black; " description="&lt;b&gt;MCIC6FC_019811&lt;/b&gt;&lt;br&gt;hypothetical protein&lt;br&gt;Location: 53221 - 54828" locus_tag="MCIC6FC_019811" class="clusterblast-orf" id="dummy-1_q5_0_all"  />
<polygon points="490,40 588,40 593,35 588,30 490,30 490,40 " style="fill:#3c15d8; stroke-width:1; stroke:black; " description="&lt;b&gt;MCIC6FC_019812&lt;/b&gt;&lt;br&gt;hypothetical protein&lt;br&gt;Location: 54843 - 57573" locus_tag="MCIC6FC_019812" class="clusterblast-orf" id="dummy-1_q6_0_all"  />
<polygon points="595,35 600,30 618,30 618,40 600,40 595,35 " style="fill:#d8158a; stroke-width:1; stroke:black; " description="&lt;b&gt;MCIC6FC_019813&lt;/b&gt;&lt;br&gt;hypothetical protein&lt;br&gt;Location: 57648 - 58261" locus_tag="MCIC6FC_019813" class="clusterblast-orf" id="dummy-1_q7_0_all"  />
<polygon points="621,40 629,40 634,35 629,30 621,30 621,40 " style="fill:#b1d815; stroke-width:1; stroke:black; " description="&lt;b&gt;MCIC6FC_019814&lt;/b&gt;&lt;br&gt;hypothetical protein&lt;br&gt;Location: 58334 - 58685" locus_tag="MCIC6FC_019814" class="clusterblast-orf" id="dummy-1_q8_0_all"  />
<polygon points="652,40 690,40 695,35 690,30 652,30 652,40 " style="fill:#15d8d8; stroke-width:1; stroke:black; " description="&lt;b&gt;MCIC6FC_019815&lt;/b&gt;&lt;br&gt;hypothetical protein&lt;br&gt;Location: 59151 - 60304" locus_tag="MCIC6FC_019815" class="clusterblast-orf" id="dummy-1_q9_0_all"  />
</g>
<g label="NZ_CABVHH010000008" description="NZ_CABVHH010000008 (39877-63033): Pseudomonas fluorescens isolate PS683, whol... (72% of genes show similarity), betalactone" class="clusterblast-cluster"  >
<text x="5" y="70" class="clusterblast-acc"  >
<a xlink:href="https://antismash-db.secondarymetabolites.org/area.html?record=NZ_CABVHH010000008&amp;start=39877&amp;end=63033" target="_blank">NZ_CABVHH010000008 (39877-63033)</a>: Pseudomonas fluorescens isolate PS683, whol... (72% of genes show similarity), betalactone</text>
<line x1="10" y1="85" x2="778.0" y2="85" style="stroke-width:1; stroke:grey; "  />
</g>
<g id="a1_000"  >
<polygon points="0,85 5,80 64,80 64,90 5,90 0,85 " style="fill:white; stroke-width:1; stroke:black; " description="&lt;b&gt;F8N27_RS18145&lt;/b&gt;&lt;br&gt;outer membrane protein assembly factor&lt;br&gt;Location: 61593 - 59866" locus_tag="F8N27_RS18145" class="clusterblast-orf" id="dummy-1_h1_3_0"  />
</g>
<g id="a1_001"  >
<polygon points="67,85 72,80 91,80 91,90 72,90 67,85 " style="fill:white; stroke-width:1; stroke:black; " description="&lt;b&gt;F8N27_RS18140&lt;/b&gt;&lt;br&gt;GNAT family N-acetyltransferase&lt;br&gt;Location: 59801 - 59151" locus_tag="F8N27_RS18140" class="clusterblast-orf" id="dummy-1_h1_3_1"  />
</g>
<g id="a1_002"  >
<polygon points="98,90 123,90 128,85 123,80 98,80 98,90 " style="fill:white; stroke-width:1; stroke:black; " description="&lt;b&gt;F8N27_RS18135&lt;/b&gt;&lt;br&gt;exodeoxyribonuclease III&lt;br&gt;Location: 58982 - 58170" locus_tag="F8N27_RS18135" class="clusterblast-orf" id="dummy-1_h1_3_2"  />
</g>
<g id="a1_003"  >
<polygon points="129,90 135,90 140,85 135,80 129,80 129,90 " style="fill:white; stroke-width:1; stroke:black; " description="&lt;b&gt;F8N27_RS18130&lt;/b&gt;&lt;br&gt;hypothetical protein&lt;br&gt;Location: 58147 - 57844" locus_tag="F8N27_RS18130" class="clusterblast-orf" id="dummy-1_h1_3_3"  />
</g>
<g id="a1_004"  >
<polygon points="162,90 207,90 212,85 207,80 162,80 162,90 " style="fill:#d81515; stroke-width:1; stroke:black; " description="&lt;b&gt;F8N27_RS18125&lt;/b&gt;&lt;br&gt;OmpA family protein&lt;br&gt;Location: 57281 - 55950&lt;br&gt;&lt;br&gt;&lt;b&gt;BlastP hit with MCIC6FC_019806&lt;/b&gt;&lt;br&gt;Percentage identity: 98&lt;br&gt;Percentage coverage: 94&lt;br&gt;BLAST bit score: 837&lt;br&gt;E-value: 8.6e-241" locus_tag="F8N27_RS18125" class="clusterblast-orf" id="dummy-1_h1_3_4"  />
</g>
<g id="a1_005"  >
<polygon points="216,85 221,80 263,80 263,90 221,90 216,85 " style="fill:#3cd815; stroke-width:1; stroke:black; " description="&lt;b&gt;F8N27_RS18120&lt;/b&gt;&lt;br&gt;acyl-CoA dehydrogenase&lt;br&gt;Location: 55823 - 54594&lt;br&gt;&lt;br&gt;&lt;b&gt;BlastP hit with MCIC6FC_019807&lt;/b&gt;&lt;br&gt;Percentage identity: 100&lt;br&gt;Percentage coverage: 98&lt;br&gt;BLAST bit score: 830&lt;br&gt;E-value: 7.1e-239" locus_tag="F8N27_RS18120" class="clusterblast-orf" id="dummy-1_h1_3_5"  />
</g>
<g id="a1_006"  >
<polygon points="268,90 298,90 303,85 298,80 268,80 268,90 " style="fill:#1563d8; stroke-width:1; stroke:black; " description="&lt;b&gt;F8N27_RS18115&lt;/b&gt;&lt;br&gt;LysR family transcriptional regulator&lt;br&gt;Location: 54442 - 53510&lt;br&gt;&lt;br&gt;&lt;b&gt;BlastP hit with MCIC6FC_019808&lt;/b&gt;&lt;br&gt;Percentage identity: 100&lt;br&gt;Percentage coverage: 43&lt;br&gt;BLAST bit score: 612&lt;br&gt;E-value: 5.3e-173" locus_tag="F8N27_RS18115" class="clusterblast-orf" id="dummy-1_h1_3_6"  />
</g>
<g id="a1_007"  >
<polygon points="306,90 316,90 321,85 316,80 306,80 306,90 " style="fill:#1563d8; stroke-width:1; stroke:black; " description="&lt;b&gt;F8N27_RS18110&lt;/b&gt;&lt;br&gt;MerR family DNA-binding transcriptional regulator&lt;br&gt;Location: 53442 - 53050&lt;br&gt;&lt;br&gt;&lt;b&gt;BlastP hit with MCIC6FC_019808&lt;/b&gt;&lt;br&gt;Percentage identity: 100&lt;br&gt;Percentage coverage: 13&lt;br&gt;BLAST bit score: 185&lt;br&gt;E-value: 1.6e-44" locus_tag="F8N27_RS18110" class="clusterblast-orf" id="dummy-1_h1_3_7"  />
</g>
<g id="a1_008"  >
<polygon points="321,90 350,90 355,85 350,80 321,80 321,90 " style="fill:#1563d8; stroke-width:1; stroke:black; " description="&lt;b&gt;F8N27_RS18105&lt;/b&gt;&lt;br&gt;hydroxymethylglutaryl-CoA lyase&lt;br&gt;Location: 53033 - 52134&lt;br&gt;&lt;br&gt;&lt;b&gt;BlastP hit with MCIC6FC_019808&lt;/b&gt;&lt;br&gt;Percentage identity: 96&lt;br&gt;Percentage coverage: 42&lt;br&gt;BLAST bit score: 570&lt;br&gt;E-value: 2.3e-160" locus_tag="F8N27_RS18105" class="clusterblast-orf" id="dummy-1_h1_3_8"  />
</g>
<g id="a1_009"  >
<polygon points="379,85 384,80 440,80 440,90 384,90 379,85 " style="fill:#b115d8; stroke-width:1; stroke:black; " description="&lt;b&gt;F8N27_RS18100&lt;/b&gt;&lt;br&gt;AMP-binding protein&lt;br&gt;Location: 51512 - 49878&lt;br&gt;&lt;br&gt;&lt;b&gt;BlastP hit with MCIC6FC_019809&lt;/b&gt;&lt;br&gt;Percentage identity: 99&lt;br&gt;Percentage coverage: 100&lt;br&gt;BLAST bit score: 1124&lt;br&gt;E-value: 0.0" locus_tag="F8N27_RS18100" class="clusterblast-orf" id="dummy-1_h1_3_9"  />
</g>
<g id="a1_0010"  >
<polygon points="446,90 484,90 489,85 484,80 446,80 446,90 " style="fill:#d88a15; stroke-width:1; stroke:black; " description="&lt;b&gt;F8N27_RS18095&lt;/b&gt;&lt;br&gt;isovaleryl-CoA dehydrogenase&lt;br&gt;Location: 49729 - 48566&lt;br&gt;&lt;br&gt;&lt;b&gt;BlastP hit with MCIC6FC_019810&lt;/b&gt;&lt;br&gt;Percentage identity: 99&lt;br&gt;Percentage coverage: 100&lt;br&gt;BLAST bit score: 774&lt;br&gt;E-value: 4.3e-222" locus_tag="F8N27_RS18095" class="clusterblast-orf" id="dummy-1_h1_3_10"  />
</g>
<g id="a1_0011"  >
<polygon points="490,90 545,90 550,85 545,80 490,80 490,90 " style="fill:#15d863; stroke-width:1; stroke:black; " description="&lt;b&gt;F8N27_RS18090&lt;/b&gt;&lt;br&gt;methylcrotonoyl-CoA carboxylase&lt;br&gt;Location: 48554 - 46947&lt;br&gt;&lt;br&gt;&lt;b&gt;BlastP hit with MCIC6FC_019811&lt;/b&gt;&lt;br&gt;Percentage identity: 97&lt;br&gt;Percentage coverage: 103&lt;br&gt;BLAST bit score: 1026&lt;br&gt;E-value: 1.1e-297" locus_tag="F8N27_RS18090" class="clusterblast-orf" id="dummy-1_h1_3_11"  />
</g>
<g id="a1_0012"  >
<polygon points="551,90 576,90 581,85 576,80 551,80 551,90 " style="fill:#3c15d8; stroke-width:1; stroke:black; " description="&lt;b&gt;F8N27_RS18085&lt;/b&gt;&lt;br&gt;gamma-carboxygeranoyl-CoA hydratase&lt;br&gt;Location: 46931 - 46125&lt;br&gt;&lt;br&gt;&lt;b&gt;BlastP hit with MCIC6FC_019812&lt;/b&gt;&lt;br&gt;Percentage identity: 88&lt;br&gt;Percentage coverage: 31&lt;br&gt;BLAST bit score: 445&lt;br&gt;E-value: 1.3e-122" locus_tag="F8N27_RS18085" class="clusterblast-orf" id="dummy-1_h1_3_12"  />
</g>
<g id="a1_0013"  >
<polygon points="581,90 648,90 653,85 648,80 581,80 581,90 " style="fill:#3c15d8; stroke-width:1; stroke:black; " description="&lt;b&gt;F8N27_RS18080&lt;/b&gt;&lt;br&gt;ATP-grasp domain-containing protein&lt;br&gt;Location: 46128 - 44203&lt;br&gt;&lt;br&gt;&lt;b&gt;BlastP hit with MCIC6FC_019812&lt;/b&gt;&lt;br&gt;Percentage identity: 98&lt;br&gt;Percentage coverage: 72&lt;br&gt;BLAST bit score: 1184&lt;br&gt;E-value: 0.0" locus_tag="F8N27_RS18080" class="clusterblast-orf" id="dummy-1_h1_3_13"  />
</g>
<g id="a1_0014"  >
<polygon points="653,85 658,80 677,80 677,90 658,90 653,85 " style="fill:#d8158a; stroke-width:1; stroke:black; " description="&lt;b&gt;F8N27_RS18075&lt;/b&gt;&lt;br&gt;helix-turn-helix domain-containing protein&lt;br&gt;Location: 44206 - 43574&lt;br&gt;&lt;br&gt;&lt;b&gt;BlastP hit with MCIC6FC_019813&lt;/b&gt;&lt;br&gt;Percentage identity: 92&lt;br&gt;Percentage coverage: 70&lt;br&gt;BLAST bit score: 255&lt;br&gt;E-value: 5.6e-66" locus_tag="F8N27_RS18075" class="clusterblast-orf" id="dummy-1_h1_3_14"  />
</g>
<g id="a1_0015"  >
<polygon points="682,90 690,90 695,85 690,80 682,80 682,90 " style="fill:#b1d815; stroke-width:1; stroke:black; " description="&lt;b&gt;F8N27_RS18070&lt;/b&gt;&lt;br&gt;DUF3077 domain-containing protein&lt;br&gt;Location: 43442 - 43092&lt;br&gt;&lt;br&gt;&lt;b&gt;BlastP hit with MCIC6FC_019814&lt;/b&gt;&lt;br&gt;Percentage identity: 96&lt;br&gt;Percentage coverage: 100&lt;br&gt;BLAST bit score: 213&lt;br&gt;E-value: 1.1e-53" locus_tag="F8N27_RS18070" class="clusterblast-orf" id="dummy-1_h1_3_15"  />
</g>
<g id="a1_0016"  >
<polygon points="713,90 751,90 756,85 751,80 713,80 713,90 " style="fill:#15d8d8; stroke-width:1; stroke:black; " description="&lt;b&gt;F8N27_RS18065&lt;/b&gt;&lt;br&gt;carboxypeptidase family protein&lt;br&gt;Location: 42624 - 41473&lt;br&gt;&lt;br&gt;&lt;b&gt;BlastP hit with MCIC6FC_019815&lt;/b&gt;&lt;br&gt;Percentage identity: 94&lt;br&gt;Percentage coverage: 103&lt;br&gt;BLAST bit score: 715&lt;br&gt;E-value: 3e-204" locus_tag="F8N27_RS18065" class="clusterblast-orf" id="dummy-1_h1_3_16"  />
</g>
<g id="a1_0017"  >
<polygon points="759,85 764,80 780,80 780,90 764,90 759,85 " style="fill:white; stroke-width:1; stroke:black; " description="&lt;b&gt;F8N27_RS18060&lt;/b&gt;&lt;br&gt;cytochrome b&lt;br&gt;Location: 41390 - 40848" locus_tag="F8N27_RS18060" class="clusterblast-orf" id="dummy-1_h1_3_17"  />
</g>
</svg>
