<svg xmlns="http://www.w3.org/2000/svg" xmlns:xlink="http://www.w3.org/1999/xlink" version="1.1" x="0" y="0" height="230" width="800" viewBox="0 0 800 230" preserveAspectRatio="none"  >
<g label="Query sequence" class="clusterblast-cluster"  >
<text x="5" y="20" class="clusterblast-acc"  >
Query sequence</text>
<line x1="10" y1="35" x2="778.0" y2="35" style="stroke-width:1; stroke:grey; "  />
<polygon points="0,35 5,30 6,30 6,40 5,40 0,35 " style="fill:white; stroke-width:1; stroke:black; " description="&lt;b&gt;MCIC6FC_015552&lt;/b&gt;&lt;br&gt;hypothetical protein&lt;br&gt;Location: 371442 - 372090" locus_tag="MCIC6FC_015552" class="clusterblast-orf" id="dummy-3_q0_0_all"  />
<polygon points="6,35 11,30 88,30 88,40 11,40 6,35 " style="fill:#d81515; stroke-width:1; stroke:black; " description="&lt;b&gt;MCIC6FC_015553&lt;/b&gt;&lt;br&gt;hypothetical protein&lt;br&gt;Location: 372113 - 380390" locus_tag="MCIC6FC_015553" class="clusterblast-orf" id="dummy-3_q1_0_all"  />
<polygon points="88,35 93,30 95,30 95,40 93,40 88,35 " style="fill:#63d815; stroke-width:1; stroke:black; " description="&lt;b&gt;MCIC6FC_015554&lt;/b&gt;&lt;br&gt;hypothetical protein&lt;br&gt;Location: 380413 - 381082" locus_tag="MCIC6FC_015554" class="clusterblast-orf" id="dummy-3_q2_0_all"  />
<polygon points="97,40 97,40 102,35 97,30 97,30 97,40 " style="fill:#15b1d8; stroke-width:1; stroke:black; " description="&lt;b&gt;MCIC6FC_015555&lt;/b&gt;&lt;br&gt;hypothetical protein&lt;br&gt;Location: 381269 - 381827" locus_tag="MCIC6FC_015555" class="clusterblast-orf" id="dummy-3_q3_0_all"  />
<polygon points="102,35 107,30 125,30 125,40 107,40 102,35 " style="fill:white; stroke-width:1; stroke:black; " description="&lt;b&gt;MCIC6FC_015556&lt;/b&gt;&lt;br&gt;hypothetical protein&lt;br&gt;Location: 381840 - 384127" locus_tag="MCIC6FC_015556" class="clusterblast-orf" id="dummy-3_q4_0_all"  />
<polygon points="127,40 132,40 137,35 132,30 127,30 127,40 " style="fill:white; stroke-width:1; stroke:black; " description="&lt;b&gt;MCIC6FC_015557&lt;/b&gt;&lt;br&gt;hypothetical protein&lt;br&gt;Location: 384363 - 385391" locus_tag="MCIC6FC_015557" class="clusterblast-orf" id="dummy-3_q5_0_all"  />
<polygon points="138,35 143,30 150,30 150,40 143,40 138,35 " style="fill:#b115d8; stroke-width:1; stroke:black; " description="&lt;b&gt;MCIC6FC_015558&lt;/b&gt;&lt;br&gt;hypothetical protein&lt;br&gt;Location: 385461 - 386667" locus_tag="MCIC6FC_015558" class="clusterblast-orf" id="dummy-3_q6_0_all"  />
<polygon points="153,35 158,30 163,30 163,40 158,40 153,35 " style="fill:#d86315; stroke-width:1; stroke:black; " description="&lt;b&gt;MCIC6FC_015559&lt;/b&gt;&lt;br&gt;hypothetical protein&lt;br&gt;Location: 386933 - 388010" locus_tag="MCIC6FC_015559" class="clusterblast-orf" id="dummy-3_q7_0_all"  />
<polygon points="165,40 166,40 171,35 166,30 165,30 165,40 " style="fill:#15d815; stroke-width:1; stroke:black; " description="&lt;b&gt;MCIC6FC_015560&lt;/b&gt;&lt;br&gt;hypothetical protein&lt;br&gt;Location: 388141 - 388819" locus_tag="MCIC6FC_015560" class="clusterblast-orf" id="dummy-3_q8_0_all"  />
<polygon points="172,40 179,40 184,35 179,30 172,30 172,40 " style="fill:#1563d8; stroke-width:1; stroke:black; " description="&lt;b&gt;MCIC6FC_015561&lt;/b&gt;&lt;br&gt;hypothetical protein&lt;br&gt;Location: 388845 - 390088" locus_tag="MCIC6FC_015561" class="clusterblast-orf" id="dummy-3_q9_0_all"  />
<polygon points="185,40 219,40 224,35 219,30 185,30 185,40 " style="fill:#d815b1; stroke-width:1; stroke:black; " description="&lt;b&gt;MCIC6FC_015562&lt;/b&gt;&lt;br&gt;hypothetical protein&lt;br&gt;Location: 390156 - 394193" locus_tag="MCIC6FC_015562" class="clusterblast-orf" id="dummy-3_q10_0_all"  />
<polygon points="225,35 230,30 247,30 247,40 230,40 225,35 " style="fill:#d8b115; stroke-width:1; stroke:black; " description="&lt;b&gt;MCIC6FC_015563&lt;/b&gt;&lt;br&gt;hypothetical protein&lt;br&gt;Location: 394235 - 396454" locus_tag="MCIC6FC_015563" class="clusterblast-orf" id="dummy-3_q11_0_all"  />
<polygon points="250,40 309,40 314,35 309,30 250,30 250,40 " style="fill:#15d863; stroke-width:1; stroke:black; " description="&lt;b&gt;MCIC6FC_015564&lt;/b&gt;&lt;br&gt;hypothetical protein&lt;br&gt;Location: 396796 - 403215" locus_tag="MCIC6FC_015564" class="clusterblast-orf" id="dummy-3_q12_0_all"  />
<polygon points="326,35 331,30 341,30 341,40 331,40 326,35 " style="fill:#1515d8; stroke-width:1; stroke:black; " description="&lt;b&gt;MCIC6FC_015565&lt;/b&gt;&lt;br&gt;hypothetical protein&lt;br&gt;Location: 404434 - 405952" locus_tag="MCIC6FC_015565" class="clusterblast-orf" id="dummy-3_q13_0_all"  />
<polygon points="341,35 346,30 357,30 357,40 346,40 341,35 " style="fill:#d81563; stroke-width:1; stroke:black; " description="&lt;b&gt;MCIC6FC_015566&lt;/b&gt;&lt;br&gt;hypothetical protein&lt;br&gt;Location: 405978 - 407634" locus_tag="MCIC6FC_015566" class="clusterblast-orf" id="dummy-3_q14_0_all"  />
<polygon points="359,35 364,30 366,30 366,40 364,40 359,35 " style="fill:#b1d815; stroke-width:1; stroke:black; " description="&lt;b&gt;MCIC6FC_015567&lt;/b&gt;&lt;br&gt;hypothetical protein&lt;br&gt;Location: 407821 - 408496" locus_tag="MCIC6FC_015567" class="clusterblast-orf" id="dummy-3_q15_0_all"  />
<polygon points="369,40 405,40 410,35 405,30 369,30 369,40 " style="fill:#15d815; stroke-width:1; stroke:black; " description="&lt;b&gt;MCIC6FC_015568&lt;/b&gt;&lt;br&gt;hypothetical protein&lt;br&gt;Location: 408773 - 412960" locus_tag="MCIC6FC_015568" class="clusterblast-orf" id="dummy-3_q16_0_all"  />
<polygon points="412,40 422,40 427,35 422,30 412,30 412,40 " style="fill:#15d8b1; stroke-width:1; stroke:black; " description="&lt;b&gt;MCIC6FC_015569&lt;/b&gt;&lt;br&gt;hypothetical protein&lt;br&gt;Location: 413124 - 414658" locus_tag="MCIC6FC_015569" class="clusterblast-orf" id="dummy-3_q17_0_all"  />
<polygon points="427,35 432,30 526,30 526,40 432,40 427,35 " style="fill:#6315d8; stroke-width:1; stroke:black; " description="&lt;b&gt;MCIC6FC_015570&lt;/b&gt;&lt;br&gt;hypothetical protein&lt;br&gt;Location: 414704 - 424715" locus_tag="MCIC6FC_015570" class="clusterblast-orf" id="dummy-3_q18_0_all"  />
<polygon points="529,35 534,30 536,30 536,40 534,40 529,35 " style="fill:white; stroke-width:1; stroke:black; " description="&lt;b&gt;MCIC6FC_015571&lt;/b&gt;&lt;br&gt;hypothetical protein&lt;br&gt;Location: 424954 - 425722" locus_tag="MCIC6FC_015571" class="clusterblast-orf" id="dummy-3_q19_0_all"  />
<polygon points="537,35 542,30 591,30 591,40 542,40 537,35 " style="fill:#15d815; stroke-width:1; stroke:black; " description="&lt;b&gt;MCIC6FC_015572&lt;/b&gt;&lt;br&gt;hypothetical protein&lt;br&gt;Location: 425831 - 431252" locus_tag="MCIC6FC_015572" class="clusterblast-orf" id="dummy-3_q20_0_all"  />
<polygon points="593,40 593,40 598,35 593,30 593,30 593,40 " style="fill:white; stroke-width:1; stroke:black; " description="&lt;b&gt;MCIC6FC_015573&lt;/b&gt;&lt;br&gt;hypothetical protein&lt;br&gt;Location: 431508 - 431991" locus_tag="MCIC6FC_015573" class="clusterblast-orf" id="dummy-3_q21_0_all"  />
<polygon points="599,40 640,40 645,35 640,30 599,30 599,40 " style="fill:white; stroke-width:1; stroke:black; " description="&lt;b&gt;MCIC6FC_015574&lt;/b&gt;&lt;br&gt;hypothetical protein&lt;br&gt;Location: 432110 - 436710" locus_tag="MCIC6FC_015574" class="clusterblast-orf" id="dummy-3_q22_0_all"  />
<polygon points="646,35 651,30 707,30 707,40 651,40 646,35 " style="fill:white; stroke-width:1; stroke:black; " description="&lt;b&gt;MCIC6FC_015575&lt;/b&gt;&lt;br&gt;hypothetical protein&lt;br&gt;Location: 436847 - 443044" locus_tag="MCIC6FC_015575" class="clusterblast-orf" id="dummy-3_q23_0_all"  />
<polygon points="709,40 709,40 714,35 709,30 709,30 709,40 " style="fill:white; stroke-width:1; stroke:black; " description="&lt;b&gt;MCIC6FC_015576&lt;/b&gt;&lt;br&gt;hypothetical protein&lt;br&gt;Location: 443239 - 443728" locus_tag="MCIC6FC_015576" class="clusterblast-orf" id="dummy-3_q24_0_all"  />
<polygon points="715,35 720,30 724,30 724,40 720,40 715,35 " style="fill:white; stroke-width:1; stroke:black; " description="&lt;b&gt;MCIC6FC_015577&lt;/b&gt;&lt;br&gt;hypothetical protein&lt;br&gt;Location: 443855 - 444719" locus_tag="MCIC6FC_015577" class="clusterblast-orf" id="dummy-3_q25_0_all"  />
<polygon points="725,40 744,40 749,35 744,30 725,30 725,40 " style="fill:white; stroke-width:1; stroke:black; " description="&lt;b&gt;MCIC6FC_015578&lt;/b&gt;&lt;br&gt;hypothetical protein&lt;br&gt;Location: 444816 - 447254" locus_tag="MCIC6FC_015578" class="clusterblast-orf" id="dummy-3_q26_0_all"  />
<polygon points="752,40 775,40 780,35 775,30 752,30 752,40 " style="fill:white; stroke-width:1; stroke:black; " description="&lt;b&gt;MCIC6FC_015579&lt;/b&gt;&lt;br&gt;hypothetical protein&lt;br&gt;Location: 447568 - 450357" locus_tag="MCIC6FC_015579" class="clusterblast-orf" id="dummy-3_q27_0_all"  />
</g>
<g label="NZ_CP019428" description="NZ_CP019428 (4364528-4407587): Pseudomonas sp. R76 chromosome, complete genome (67% of genes show similarity), NRPS" class="clusterblast-cluster"  >
<text x="5" y="70" class="clusterblast-acc"  >
<a xlink:href="https://antismash-db.secondarymetabolites.org/area.html?record=NZ_CP019428&amp;start=4364528&amp;end=4407587" target="_blank">NZ_CP019428 (4364528-4407587)</a>: Pseudomonas sp. R76 chromosome, complete genome (67% of genes show similarity), NRPS</text>
<line x1="10" y1="85" x2="778.0" y2="85" style="stroke-width:1; stroke:grey; "  />
</g>
<g id="a3_000"  >
<polygon points="177,85 182,80 186,80 186,90 182,90 177,85 " style="fill:#d81515; stroke-width:1; stroke:black; " description="&lt;b&gt;PspR76_RS19640&lt;/b&gt;&lt;br&gt;fimbrial protein&lt;br&gt;Location: 4407587 - 4406607&lt;br&gt;&lt;br&gt;&lt;b&gt;BlastP hit with MCIC6FC_015553&lt;/b&gt;&lt;br&gt;Percentage identity: 92&lt;br&gt;Percentage coverage: 12&lt;br&gt;BLAST bit score: 619&lt;br&gt;E-value: 2.1e-174" locus_tag="PspR76_RS19640" class="clusterblast-orf" id="dummy-3_h3_3_0"  />
</g>
<g id="a3_001"  >
<polygon points="187,85 192,80 193,80 193,90 192,90 187,85 " style="fill:#63d815; stroke-width:1; stroke:black; " description="&lt;b&gt;PspR76_RS19635&lt;/b&gt;&lt;br&gt;fimbria/pilus periplasmic chaperone&lt;br&gt;Location: 4406583 - 4405891&lt;br&gt;&lt;br&gt;&lt;b&gt;BlastP hit with MCIC6FC_015554&lt;/b&gt;&lt;br&gt;Percentage identity: 88&lt;br&gt;Percentage coverage: 100&lt;br&gt;BLAST bit score: 398&lt;br&gt;E-value: 3.7e-109" locus_tag="PspR76_RS19635" class="clusterblast-orf" id="dummy-3_h3_3_1"  />
</g>
<g id="a3_002"  >
<polygon points="195,90 196,90 201,85 196,80 195,80 195,90 " style="fill:#15b1d8; stroke-width:1; stroke:black; " description="&lt;b&gt;PspR76_RS19630&lt;/b&gt;&lt;br&gt;chemotaxis protein CheY&lt;br&gt;Location: 4405690 - 4405169&lt;br&gt;&lt;br&gt;&lt;b&gt;BlastP hit with MCIC6FC_015555&lt;/b&gt;&lt;br&gt;Percentage identity: 90&lt;br&gt;Percentage coverage: 95&lt;br&gt;BLAST bit score: 285&lt;br&gt;E-value: 3.5e-75" locus_tag="PspR76_RS19630" class="clusterblast-orf" id="dummy-3_h3_3_2"  />
</g>
<g id="a3_003"  >
<polygon points="201,85 206,80 213,80 213,90 206,90 201,85 " style="fill:#b115d8; stroke-width:1; stroke:black; " description="&lt;b&gt;PspR76_RS19625&lt;/b&gt;&lt;br&gt;DUF1835 domain-containing protein&lt;br&gt;Location: 4405165 - 4403960&lt;br&gt;&lt;br&gt;&lt;b&gt;BlastP hit with MCIC6FC_015558&lt;/b&gt;&lt;br&gt;Percentage identity: 85&lt;br&gt;Percentage coverage: 100&lt;br&gt;BLAST bit score: 706&lt;br&gt;E-value: 1.1e-201" locus_tag="PspR76_RS19625" class="clusterblast-orf" id="dummy-3_h3_3_3"  />
</g>
<g id="a3_004"  >
<polygon points="219,85 224,80 230,80 230,90 224,90 219,85 " style="fill:#d86315; stroke-width:1; stroke:black; " description="&lt;b&gt;PspR76_RS19620&lt;/b&gt;&lt;br&gt;aldo/keto reductase&lt;br&gt;Location: 4403268 - 4402192&lt;br&gt;&lt;br&gt;&lt;b&gt;BlastP hit with MCIC6FC_015559&lt;/b&gt;&lt;br&gt;Percentage identity: 98&lt;br&gt;Percentage coverage: 100&lt;br&gt;BLAST bit score: 717&lt;br&gt;E-value: 7.5e-205" locus_tag="PspR76_RS19620" class="clusterblast-orf" id="dummy-3_h3_3_4"  />
</g>
<g id="a3_005"  >
<polygon points="231,90 233,90 238,85 233,80 231,80 231,90 " style="fill:#15d815; stroke-width:1; stroke:black; " description="&lt;b&gt;PspR76_RS19615&lt;/b&gt;&lt;br&gt;ATP-binding cassette domain-containing protein&lt;br&gt;Location: 4402061 - 4401384&lt;br&gt;&lt;br&gt;&lt;b&gt;BlastP hit with MCIC6FC_015560&lt;/b&gt;&lt;br&gt;Percentage identity: 89&lt;br&gt;Percentage coverage: 100&lt;br&gt;BLAST bit score: 399&lt;br&gt;E-value: 2.9e-109" locus_tag="PspR76_RS19615" class="clusterblast-orf" id="dummy-3_h3_3_5"  />
</g>
<g id="a3_006"  >
<polygon points="238,90 241,90 246,85 241,80 238,80 238,90 " style="fill:#1563d8; stroke-width:1; stroke:black; " description="&lt;b&gt;PspR76_RS19610&lt;/b&gt;&lt;br&gt;iron export ABC transporter permease subunit FetB&lt;br&gt;Location: 4401387 - 4400593&lt;br&gt;&lt;br&gt;&lt;b&gt;BlastP hit with MCIC6FC_015561&lt;/b&gt;&lt;br&gt;Percentage identity: 98&lt;br&gt;Percentage coverage: 64&lt;br&gt;BLAST bit score: 446&lt;br&gt;E-value: 3.4e-123" locus_tag="PspR76_RS19610" class="clusterblast-orf" id="dummy-3_h3_3_6"  />
</g>
<g id="a3_007"  >
<polygon points="246,85 247,80 247,90 246,85 " style="fill:white; stroke-width:1; stroke:black; " description="&lt;b&gt;PspR76_RS19605&lt;/b&gt;&lt;br&gt;DUF2599 domain-containing protein&lt;br&gt;Location: 4400589 - 4400476" locus_tag="PspR76_RS19605" class="clusterblast-orf" id="dummy-3_h3_3_7"  />
</g>
<g id="a3_008"  >
<polygon points="249,85 254,80 259,80 259,90 254,90 249,85 " style="fill:white; stroke-width:1; stroke:black; " description="&lt;b&gt;PspR76_RS19600&lt;/b&gt;&lt;br&gt;alcohol dehydrogenase catalytic domain-containing protein&lt;br&gt;Location: 4400321 - 4399269" locus_tag="PspR76_RS19600" class="clusterblast-orf" id="dummy-3_h3_3_8"  />
</g>
<g id="a3_009"  >
<polygon points="259,85 264,80 267,80 267,90 264,90 259,85 " style="fill:white; stroke-width:1; stroke:black; " description="&lt;b&gt;PspR76_RS19595&lt;/b&gt;&lt;br&gt;glucose 1-dehydrogenase&lt;br&gt;Location: 4399254 - 4398481" locus_tag="PspR76_RS19595" class="clusterblast-orf" id="dummy-3_h3_3_9"  />
</g>
<g id="a3_0010"  >
<polygon points="267,85 272,80 280,80 280,90 272,90 267,85 " style="fill:white; stroke-width:1; stroke:black; " description="&lt;b&gt;PspR76_RS19590&lt;/b&gt;&lt;br&gt;permease DsdX&lt;br&gt;Location: 4398460 - 4397108" locus_tag="PspR76_RS19590" class="clusterblast-orf" id="dummy-3_h3_3_10"  />
</g>
<g id="a3_0011"  >
<polygon points="282,90 285,90 290,85 285,80 282,80 282,90 " style="fill:#1563d8; stroke-width:1; stroke:black; " description="&lt;b&gt;PspR76_RS19585&lt;/b&gt;&lt;br&gt;LysR family transcriptional regulator&lt;br&gt;Location: 4396965 - 4396093&lt;br&gt;&lt;br&gt;&lt;b&gt;BlastP hit with MCIC6FC_015561&lt;/b&gt;&lt;br&gt;Percentage identity: 91&lt;br&gt;Percentage coverage: 20&lt;br&gt;BLAST bit score: 134&lt;br&gt;E-value: 1.7e-29" locus_tag="PspR76_RS19585" class="clusterblast-orf" id="dummy-3_h3_3_11"  />
</g>
<g id="a3_0012"  >
<polygon points="291,90 293,90 298,85 293,80 291,80 291,90 " style="fill:#d815b1; stroke-width:1; stroke:black; " description="&lt;b&gt;PspR76_RS19580&lt;/b&gt;&lt;br&gt;glutathione S-transferase N-terminal domain-containing protein&lt;br&gt;Location: 4395987 - 4395355&lt;br&gt;&lt;br&gt;&lt;b&gt;BlastP hit with MCIC6FC_015562&lt;/b&gt;&lt;br&gt;Percentage identity: 92&lt;br&gt;Percentage coverage: 17&lt;br&gt;BLAST bit score: 379&lt;br&gt;E-value: 1.3e-102" locus_tag="PspR76_RS19580" class="clusterblast-orf" id="dummy-3_h3_3_12"  />
</g>
<g id="a3_0013"  >
<polygon points="298,90 302,90 307,85 302,80 298,80 298,90 " style="fill:#d815b1; stroke-width:1; stroke:black; " description="&lt;b&gt;PspR76_RS19575&lt;/b&gt;&lt;br&gt;LysR family transcriptional regulator&lt;br&gt;Location: 4395338 - 4394418&lt;br&gt;&lt;br&gt;&lt;b&gt;BlastP hit with MCIC6FC_015562&lt;/b&gt;&lt;br&gt;Percentage identity: 92&lt;br&gt;Percentage coverage: 22&lt;br&gt;BLAST bit score: 498&lt;br&gt;E-value: 1.9e-138" locus_tag="PspR76_RS19575" class="clusterblast-orf" id="dummy-3_h3_3_13"  />
</g>
<g id="a3_0014"  >
<polygon points="307,90 311,90 316,85 311,80 307,80 307,90 " style="fill:#d815b1; stroke-width:1; stroke:black; " description="&lt;b&gt;PspR76_RS19570&lt;/b&gt;&lt;br&gt;LysR family transcriptional regulator&lt;br&gt;Location: 4394418 - 4393534&lt;br&gt;&lt;br&gt;&lt;b&gt;BlastP hit with MCIC6FC_015562&lt;/b&gt;&lt;br&gt;Percentage identity: 83&lt;br&gt;Percentage coverage: 24&lt;br&gt;BLAST bit score: 475&lt;br&gt;E-value: 1.3e-131" locus_tag="PspR76_RS19570" class="clusterblast-orf" id="dummy-3_h3_3_14"  />
</g>
<g id="a3_0015"  >
<polygon points="316,90 321,90 326,85 321,80 316,80 316,90 " style="fill:#d815b1; stroke-width:1; stroke:black; " description="&lt;b&gt;PspR76_RS19565&lt;/b&gt;&lt;br&gt;pyridoxamine 5'-phosphate oxidase family protein&lt;br&gt;Location: 4393454 - 4392519&lt;br&gt;&lt;br&gt;&lt;b&gt;BlastP hit with MCIC6FC_015562&lt;/b&gt;&lt;br&gt;Percentage identity: 88&lt;br&gt;Percentage coverage: 25&lt;br&gt;BLAST bit score: 558&lt;br&gt;E-value: 1.6e-156" locus_tag="PspR76_RS19565" class="clusterblast-orf" id="dummy-3_h3_3_15"  />
</g>
<g id="a3_0016"  >
<polygon points="327,85 332,80 341,80 341,90 332,90 327,85 " style="fill:#d8b115; stroke-width:1; stroke:black; " description="&lt;b&gt;PspR76_RS19560&lt;/b&gt;&lt;br&gt;AdeC/AdeK/OprM family multidrug efflux complex outer membrane factor&lt;br&gt;Location: 4392417 - 4390996&lt;br&gt;&lt;br&gt;&lt;b&gt;BlastP hit with MCIC6FC_015563&lt;/b&gt;&lt;br&gt;Percentage identity: 93&lt;br&gt;Percentage coverage: 65&lt;br&gt;BLAST bit score: 822&lt;br&gt;E-value: 3.3e-236" locus_tag="PspR76_RS19560" class="clusterblast-orf" id="dummy-3_h3_3_16"  />
</g>
<g id="a3_0017"  >
<polygon points="341,85 346,80 349,80 349,90 346,90 341,85 " style="fill:#d8b115; stroke-width:1; stroke:black; " description="&lt;b&gt;PspR76_RS19555&lt;/b&gt;&lt;br&gt;helix-turn-helix transcriptional regulator&lt;br&gt;Location: 4390996 - 4390202&lt;br&gt;&lt;br&gt;&lt;b&gt;BlastP hit with MCIC6FC_015563&lt;/b&gt;&lt;br&gt;Percentage identity: 89&lt;br&gt;Percentage coverage: 37&lt;br&gt;BLAST bit score: 467&lt;br&gt;E-value: 3.6e-129" locus_tag="PspR76_RS19555" class="clusterblast-orf" id="dummy-3_h3_3_17"  />
</g>
<g id="a3_0018"  >
<polygon points="353,90 410,90 415,85 410,80 353,80 353,90 " style="fill:#15d863; stroke-width:1; stroke:black; " description="&lt;b&gt;PspR76_RS19550&lt;/b&gt;&lt;br&gt;amino acid adenylation domain-containing protein&lt;br&gt;Location: 4389711 - 4383442&lt;br&gt;&lt;br&gt;&lt;b&gt;BlastP hit with MCIC6FC_015564&lt;/b&gt;&lt;br&gt;Percentage identity: 89&lt;br&gt;Percentage coverage: 99&lt;br&gt;BLAST bit score: 3673&lt;br&gt;E-value: 0.0" locus_tag="PspR76_RS19550" class="clusterblast-orf" id="dummy-3_h3_3_18"  />
</g>
<g id="a3_0019"  >
<polygon points="417,85 420,80 420,90 417,85 " style="fill:white; stroke-width:1; stroke:black; " description="&lt;b&gt;PspR76_RS19545&lt;/b&gt;&lt;br&gt;hypothetical protein&lt;br&gt;Location: 4383247 - 4382939" locus_tag="PspR76_RS19545" class="clusterblast-orf" id="dummy-3_h3_3_19"  />
</g>
<g id="a3_0020"  >
<polygon points="425,90 430,90 435,85 430,80 425,80 425,90 " style="fill:white; stroke-width:1; stroke:black; " description="&lt;b&gt;PspR76_RS19540&lt;/b&gt;&lt;br&gt;hypothetical protein&lt;br&gt;Location: 4382445 - 4381498" locus_tag="PspR76_RS19540" class="clusterblast-orf" id="dummy-3_h3_3_20"  />
</g>
<g id="a3_0021"  >
<polygon points="436,85 441,80 451,80 451,90 441,90 436,85 " style="fill:#1515d8; stroke-width:1; stroke:black; " description="&lt;b&gt;PspR76_RS19535&lt;/b&gt;&lt;br&gt;glycosyltransferase family 39 protein&lt;br&gt;Location: 4381340 - 4379823&lt;br&gt;&lt;br&gt;&lt;b&gt;BlastP hit with MCIC6FC_015565&lt;/b&gt;&lt;br&gt;Percentage identity: 91&lt;br&gt;Percentage coverage: 99&lt;br&gt;BLAST bit score: 967&lt;br&gt;E-value: 5.9e-280" locus_tag="PspR76_RS19535" class="clusterblast-orf" id="dummy-3_h3_3_21"  />
</g>
<g id="a3_0022"  >
<polygon points="451,85 456,80 468,80 468,90 456,90 451,85 " style="fill:#d81563; stroke-width:1; stroke:black; " description="&lt;b&gt;PspR76_RS19530&lt;/b&gt;&lt;br&gt;lipid IV(A) 4-amino-4-deoxy-L-arabinosyltransferase&lt;br&gt;Location: 4379796 - 4378141&lt;br&gt;&lt;br&gt;&lt;b&gt;BlastP hit with MCIC6FC_015566&lt;/b&gt;&lt;br&gt;Percentage identity: 90&lt;br&gt;Percentage coverage: 100&lt;br&gt;BLAST bit score: 1018&lt;br&gt;E-value: 3.2e-295" locus_tag="PspR76_RS19530" class="clusterblast-orf" id="dummy-3_h3_3_22"  />
</g>
<g id="a3_0023"  >
<polygon points="470,85 475,80 476,80 476,90 475,90 470,85 " style="fill:#b1d815; stroke-width:1; stroke:black; " description="&lt;b&gt;PspR76_RS19525&lt;/b&gt;&lt;br&gt;histidine phosphatase family protein&lt;br&gt;Location: 4377954 - 4377280&lt;br&gt;&lt;br&gt;&lt;b&gt;BlastP hit with MCIC6FC_015567&lt;/b&gt;&lt;br&gt;Percentage identity: 86&lt;br&gt;Percentage coverage: 100&lt;br&gt;BLAST bit score: 403&lt;br&gt;E-value: 1.5e-110" locus_tag="PspR76_RS19525" class="clusterblast-orf" id="dummy-3_h3_3_23"  />
</g>
<g id="a3_0024"  >
<polygon points="479,90 481,90 486,85 481,80 479,80 479,90 " style="fill:#15d815; stroke-width:1; stroke:black; " description="&lt;b&gt;PspR76_RS19520&lt;/b&gt;&lt;br&gt;ATP-binding cassette domain-containing protein&lt;br&gt;Location: 4377002 - 4376334&lt;br&gt;&lt;br&gt;&lt;b&gt;BlastP hit with MCIC6FC_015568&lt;/b&gt;&lt;br&gt;Percentage identity: 95&lt;br&gt;Percentage coverage: 15&lt;br&gt;BLAST bit score: 386&lt;br&gt;E-value: 1.2e-104&lt;br&gt;&lt;br&gt;&lt;b&gt;BlastP hit with MCIC6FC_015572&lt;/b&gt;&lt;br&gt;Percentage identity: 38&lt;br&gt;Percentage coverage: 13&lt;br&gt;BLAST bit score: 132&lt;br&gt;E-value: 3.9e-28" locus_tag="PspR76_RS19520" class="clusterblast-orf" id="dummy-3_h3_3_24"  />
</g>
<g id="a3_0025"  >
<polygon points="486,90 505,90 510,85 505,80 486,80 486,90 " style="fill:#15d815; stroke-width:1; stroke:black; " description="&lt;b&gt;PspR76_RS19515&lt;/b&gt;&lt;br&gt;FtsX-like permease family protein&lt;br&gt;Location: 4376332 - 4373870&lt;br&gt;&lt;br&gt;&lt;b&gt;BlastP hit with MCIC6FC_015568&lt;/b&gt;&lt;br&gt;Percentage identity: 95&lt;br&gt;Percentage coverage: 59&lt;br&gt;BLAST bit score: 1475&lt;br&gt;E-value: 0.0" locus_tag="PspR76_RS19515" class="clusterblast-orf" id="dummy-3_h3_3_25"  />
</g>
<g id="a3_0026"  >
<polygon points="510,90 515,90 520,85 515,80 510,80 510,90 " style="fill:#15d815; stroke-width:1; stroke:black; " description="&lt;b&gt;PspR76_RS19510&lt;/b&gt;&lt;br&gt;iron ABC transporter permease&lt;br&gt;Location: 4373880 - 4372816&lt;br&gt;&lt;br&gt;&lt;b&gt;BlastP hit with MCIC6FC_015568&lt;/b&gt;&lt;br&gt;Percentage identity: 94&lt;br&gt;Percentage coverage: 26&lt;br&gt;BLAST bit score: 700&lt;br&gt;E-value: 3.6e-199" locus_tag="PspR76_RS19510" class="clusterblast-orf" id="dummy-3_h3_3_26"  />
</g>
<g id="a3_0027"  >
<polygon points="522,90 531,90 536,85 531,80 522,80 522,90 " style="fill:#15d8b1; stroke-width:1; stroke:black; " description="&lt;b&gt;PspR76_RS19505&lt;/b&gt;&lt;br&gt;hypothetical protein&lt;br&gt;Location: 4372651 - 4371209&lt;br&gt;&lt;br&gt;&lt;b&gt;BlastP hit with MCIC6FC_015569&lt;/b&gt;&lt;br&gt;Percentage identity: 90&lt;br&gt;Percentage coverage: 97&lt;br&gt;BLAST bit score: 890&lt;br&gt;E-value: 6.8e-257" locus_tag="PspR76_RS19505" class="clusterblast-orf" id="dummy-3_h3_3_27"  />
</g>
<g id="a3_0028"  >
<polygon points="537,85 542,80 548,80 548,90 542,90 537,85 " style="fill:#6315d8; stroke-width:1; stroke:black; " description="&lt;b&gt;PspR76_RS19500&lt;/b&gt;&lt;br&gt;SMP-30/gluconolactonase/LRE family protein&lt;br&gt;Location: 4371147 - 4370047&lt;br&gt;&lt;br&gt;&lt;b&gt;BlastP hit with MCIC6FC_015570&lt;/b&gt;&lt;br&gt;Percentage identity: 92&lt;br&gt;Percentage coverage: 12&lt;br&gt;BLAST bit score: 625&lt;br&gt;E-value: 3.3e-176" locus_tag="PspR76_RS19500" class="clusterblast-orf" id="dummy-3_h3_3_28"  />
</g>
<g id="a3_0029"  >
<polygon points="548,85 553,80 554,80 554,90 553,90 548,85 " style="fill:white; stroke-width:1; stroke:black; " description="&lt;b&gt;PspR76_RS19495&lt;/b&gt;&lt;br&gt;sterol desaturase family protein&lt;br&gt;Location: 4370044 - 4369373" locus_tag="PspR76_RS19495" class="clusterblast-orf" id="dummy-3_h3_3_29"  />
</g>
<g id="a3_0030"  >
<polygon points="557,90 561,90 566,85 561,80 557,80 557,90 " style="fill:white; stroke-width:1; stroke:black; " description="&lt;b&gt;PspR76_RS19490&lt;/b&gt;&lt;br&gt;substrate-binding domain-containing protein&lt;br&gt;Location: 4369088 - 4368165" locus_tag="PspR76_RS19490" class="clusterblast-orf" id="dummy-3_h3_3_30"  />
</g>
<g id="a3_0031"  >
<polygon points="567,90 577,90 582,85 577,80 567,80 567,90 " style="fill:white; stroke-width:1; stroke:black; " description="&lt;b&gt;PspR76_RS19485&lt;/b&gt;&lt;br&gt;ATP-binding cassette domain-containing protein&lt;br&gt;Location: 4368101 - 4366593" locus_tag="PspR76_RS19485" class="clusterblast-orf" id="dummy-3_h3_3_31"  />
</g>
<g id="a3_0032"  >
<polygon points="582,90 586,90 591,85 586,80 582,80 582,90 " style="fill:white; stroke-width:1; stroke:black; " description="&lt;b&gt;PspR76_RS19480&lt;/b&gt;&lt;br&gt;ribose ABC transporter permease&lt;br&gt;Location: 4366627 - 4365635" locus_tag="PspR76_RS19480" class="clusterblast-orf" id="dummy-3_h3_3_32"  />
</g>
<g id="a3_0033"  >
<polygon points="592,90 597,90 602,85 597,80 592,80 592,90 " style="fill:white; stroke-width:1; stroke:black; " description="&lt;b&gt;PspR76_RS19475&lt;/b&gt;&lt;br&gt;alcohol dehydrogenase catalytic domain-containing protein&lt;br&gt;Location: 4365608 - 4364529" locus_tag="PspR76_RS19475" class="clusterblast-orf" id="dummy-3_h3_3_33"  />
</g>
</svg>
