<svg xmlns="http://www.w3.org/2000/svg" xmlns:xlink="http://www.w3.org/1999/xlink" version="1.1" x="0" y="0" height="230" width="800" viewBox="0 0 800 230" preserveAspectRatio="none"  >
<g label="Query sequence" class="clusterblast-cluster"  >
<text x="5" y="20" class="clusterblast-acc"  >
Query sequence</text>
<line x1="10" y1="35" x2="778.0" y2="35" style="stroke-width:1; stroke:grey; "  />
<polygon points="226,40 246,40 251,35 246,30 226,30 226,40 " style="fill:#d81515; stroke-width:1; stroke:black; " description="&lt;b&gt;MCIC6FC_020538&lt;/b&gt;&lt;br&gt;hypothetical protein&lt;br&gt;Location: 15803 - 17157" locus_tag="MCIC6FC_020538" class="clusterblast-orf" id="dummy-1_q0_0_all"  />
<polygon points="253,40 338,40 343,35 338,30 253,30 253,40 " style="fill:#15d863; stroke-width:1; stroke:black; " description="&lt;b&gt;MCIC6FC_020539&lt;/b&gt;&lt;br&gt;hypothetical protein&lt;br&gt;Location: 17304 - 22222" locus_tag="MCIC6FC_020539" class="clusterblast-orf" id="dummy-1_q1_0_all"  />
<polygon points="349,40 360,40 365,35 360,30 349,30 349,40 " style="fill:#1563d8; stroke-width:1; stroke:black; " description="&lt;b&gt;MCIC6FC_020540&lt;/b&gt;&lt;br&gt;hypothetical protein&lt;br&gt;Location: 22522 - 23419" locus_tag="MCIC6FC_020540" class="clusterblast-orf" id="dummy-1_q2_0_all"  />
<polygon points="366,40 400,40 405,35 400,30 366,30 366,40 " style="fill:#b115d8; stroke-width:1; stroke:black; " description="&lt;b&gt;MCIC6FC_020541&lt;/b&gt;&lt;br&gt;hypothetical protein&lt;br&gt;Location: 23444 - 25593" locus_tag="MCIC6FC_020541" class="clusterblast-orf" id="dummy-1_q3_0_all"  />
<polygon points="412,35 417,30 435,30 435,40 417,40 412,35 " style="fill:white; stroke-width:1; stroke:black; " description="&lt;b&gt;MCIC6FC_020542&lt;/b&gt;&lt;br&gt;hypothetical protein&lt;br&gt;Location: 25940 - 27194" locus_tag="MCIC6FC_020542" class="clusterblast-orf" id="dummy-1_q4_0_all"  />
<polygon points="439,40 450,40 455,35 450,30 439,30 439,40 " style="fill:white; stroke-width:1; stroke:black; " description="&lt;b&gt;MCIC6FC_020543&lt;/b&gt;&lt;br&gt;hypothetical protein&lt;br&gt;Location: 27418 - 28319" locus_tag="MCIC6FC_020543" class="clusterblast-orf" id="dummy-1_q5_0_all"  />
<polygon points="457,35 462,30 492,30 492,40 462,40 457,35 " style="fill:#b1d815; stroke-width:1; stroke:black; " description="&lt;b&gt;MCIC6FC_020544&lt;/b&gt;&lt;br&gt;hypothetical protein&lt;br&gt;Location: 28409 - 30323" locus_tag="MCIC6FC_020544" class="clusterblast-orf" id="dummy-1_q6_0_all"  />
<polygon points="494,35 499,30 553,30 553,40 499,40 494,35 " style="fill:#b1d815; stroke-width:1; stroke:black; " description="&lt;b&gt;MCIC6FC_020545&lt;/b&gt;&lt;br&gt;hypothetical protein&lt;br&gt;Location: 30445 - 33685" locus_tag="MCIC6FC_020545" class="clusterblast-orf" id="dummy-1_q7_0_all"  />
</g>
<g label="NZ_LT222319" description="NZ_LT222319 (521801-564397): Pseudomonas cerasi isolate Sour cherry (Prunus c... (29% of genes show similarity), NRPS-like" class="clusterblast-cluster"  >
<text x="5" y="70" class="clusterblast-acc"  >
<a xlink:href="https://antismash-db.secondarymetabolites.org/area.html?record=NZ_LT222319&amp;start=521801&amp;end=564397" target="_blank">NZ_LT222319 (521801-564397)</a>: Pseudomonas cerasi isolate Sour cherry (Prunus c... (29% of genes show similarity), NRPS-like</text>
<line x1="10" y1="85" x2="778.0" y2="85" style="stroke-width:1; stroke:grey; "  />
</g>
<g id="a1_000"  >
<polygon points="0,90 40,90 45,85 40,80 0,80 0,90 " style="fill:white; stroke-width:1; stroke:black; " description="&lt;b&gt;PCPL58_RS04990&lt;/b&gt;&lt;br&gt;bifunctional diguanylate cyclase/phosphodiesterase&lt;br&gt;Location: 564397 - 561911" locus_tag="PCPL58_RS04990" class="clusterblast-orf" id="dummy-1_h1_1_0"  />
</g>
<g id="a1_001"  >
<polygon points="58,85 62,80 62,90 58,85 " style="fill:white; stroke-width:1; stroke:black; " description="&lt;b&gt;PCPL58_RS30695&lt;/b&gt;&lt;br&gt;hypothetical protein&lt;br&gt;Location: 561183 - 560995" locus_tag="PCPL58_RS30695" class="clusterblast-orf" id="dummy-1_h1_1_1"  />
</g>
<g id="a1_002"  >
<polygon points="62,85 67,80 76,80 76,90 67,90 62,85 " style="fill:white; stroke-width:1; stroke:black; " description="&lt;b&gt;PCPL58_RS04985&lt;/b&gt;&lt;br&gt;ATP-binding protein&lt;br&gt;Location: 560998 - 560195" locus_tag="PCPL58_RS04985" class="clusterblast-orf" id="dummy-1_h1_1_2"  />
</g>
<g id="a1_003"  >
<polygon points="76,85 81,80 104,80 104,90 81,90 76,85 " style="fill:white; stroke-width:1; stroke:black; " description="&lt;b&gt;PCPL58_RS04980&lt;/b&gt;&lt;br&gt;IS21-like element ISPsy20 family transposase&lt;br&gt;Location: 560202 - 558703" locus_tag="PCPL58_RS04980" class="clusterblast-orf" id="dummy-1_h1_1_3"  />
</g>
<g id="a1_004"  >
<polygon points="105,90 108,85 105,80 105,90 " style="fill:white; stroke-width:1; stroke:black; " description="&lt;b&gt;PCPL58_RS04975&lt;/b&gt;&lt;br&gt;OprD family porin&lt;br&gt;Location: 558657 - 558478" locus_tag="PCPL58_RS04975" class="clusterblast-orf" id="dummy-1_h1_1_4"  />
</g>
<g id="a1_005"  >
<polygon points="109,90 120,90 125,85 120,80 109,80 109,90 " style="fill:white; stroke-width:1; stroke:black; " description="&lt;b&gt;PCPL58_RS04970&lt;/b&gt;&lt;br&gt;hypothetical protein&lt;br&gt;Location: 558404 - 557547" locus_tag="PCPL58_RS04970" class="clusterblast-orf" id="dummy-1_h1_1_5"  />
</g>
<g id="a1_006"  >
<polygon points="136,85 141,80 151,80 151,90 141,90 136,85 " style="fill:white; stroke-width:1; stroke:black; " description="&lt;b&gt;PCPL58_RS04965&lt;/b&gt;&lt;br&gt;AAA family ATPase&lt;br&gt;Location: 556928 - 556119" locus_tag="PCPL58_RS04965" class="clusterblast-orf" id="dummy-1_h1_1_6"  />
</g>
<g id="a1_007"  >
<polygon points="151,85 156,80 170,80 170,90 156,90 151,85 " style="fill:white; stroke-width:1; stroke:black; " description="&lt;b&gt;PCPL58_RS04960&lt;/b&gt;&lt;br&gt;IS21-like element ISPsy4 family transposase&lt;br&gt;Location: 556122 - 555100" locus_tag="PCPL58_RS04960" class="clusterblast-orf" id="dummy-1_h1_1_7"  />
</g>
<g id="a1_008"  >
<polygon points="173,85 178,80 188,80 188,90 178,90 173,85 " style="fill:white; stroke-width:1; stroke:black; " description="&lt;b&gt;PCPL58_RS04955&lt;/b&gt;&lt;br&gt;hypothetical protein&lt;br&gt;Location: 554931 - 554110" locus_tag="PCPL58_RS04955" class="clusterblast-orf" id="dummy-1_h1_1_8"  />
</g>
<g id="a1_009"  >
<polygon points="202,90 202,90 207,85 202,80 202,80 202,90 " style="fill:white; stroke-width:1; stroke:black; " description="&lt;b&gt;PCPL58_RS04950&lt;/b&gt;&lt;br&gt;hypothetical protein&lt;br&gt;Location: 553338 - 553084" locus_tag="PCPL58_RS04950" class="clusterblast-orf" id="dummy-1_h1_1_9"  />
</g>
<g id="a1_0010"  >
<polygon points="212,90 219,90 224,85 219,80 212,80 212,90 " style="fill:white; stroke-width:1; stroke:black; " description="&lt;b&gt;PCPL58_RS04945&lt;/b&gt;&lt;br&gt;hypothetical protein&lt;br&gt;Location: 552775 - 552131" locus_tag="PCPL58_RS04945" class="clusterblast-orf" id="dummy-1_h1_1_10"  />
</g>
<g id="a1_0011"  >
<polygon points="224,90 239,90 244,85 239,80 224,80 224,90 " style="fill:white; stroke-width:1; stroke:black; " description="&lt;b&gt;PCPL58_RS04940&lt;/b&gt;&lt;br&gt;hypothetical protein&lt;br&gt;Location: 552147 - 551020" locus_tag="PCPL58_RS04940" class="clusterblast-orf" id="dummy-1_h1_1_11"  />
</g>
<g id="a1_0012"  >
<polygon points="250,90 260,90 265,85 260,80 250,80 250,90 " style="fill:white; stroke-width:1; stroke:black; " description="&lt;b&gt;PCPL58_RS29105&lt;/b&gt;&lt;br&gt;IS5 family transposase&lt;br&gt;Location: 550737 - 549885" locus_tag="PCPL58_RS29105" class="clusterblast-orf" id="dummy-1_h1_1_12"  />
</g>
<g id="a1_0013"  >
<polygon points="274,85 279,80 283,80 283,90 279,90 274,85 " style="fill:white; stroke-width:1; stroke:black; " description="&lt;b&gt;PCPL58_RS04930&lt;/b&gt;&lt;br&gt;peptide-methionine (S)-S-oxide reductase MsrA&lt;br&gt;Location: 549403 - 548897" locus_tag="PCPL58_RS04930" class="clusterblast-orf" id="dummy-1_h1_1_13"  />
</g>
<g id="a1_0014"  >
<polygon points="291,90 301,90 306,85 301,80 291,80 291,90 " style="fill:white; stroke-width:1; stroke:black; " description="&lt;b&gt;PCPL58_RS04925&lt;/b&gt;&lt;br&gt;formate/nitrite transporter family protein&lt;br&gt;Location: 548455 - 547640" locus_tag="PCPL58_RS04925" class="clusterblast-orf" id="dummy-1_h1_1_14"  />
</g>
<g id="a1_0015"  >
<polygon points="310,85 315,80 320,80 320,90 315,90 310,85 " style="fill:white; stroke-width:1; stroke:black; " description="&lt;b&gt;PCPL58_RS04920&lt;/b&gt;&lt;br&gt;LysE family translocator&lt;br&gt;Location: 547463 - 546888" locus_tag="PCPL58_RS04920" class="clusterblast-orf" id="dummy-1_h1_1_15"  />
</g>
<g id="a1_0016"  >
<polygon points="321,85 326,80 336,80 336,90 326,90 321,85 " style="fill:white; stroke-width:1; stroke:black; " description="&lt;b&gt;PCPL58_RS04915&lt;/b&gt;&lt;br&gt;AraC family transcriptional regulator&lt;br&gt;Location: 546839 - 546003" locus_tag="PCPL58_RS04915" class="clusterblast-orf" id="dummy-1_h1_1_16"  />
</g>
<g id="a1_0017"  >
<polygon points="338,85 343,80 350,80 350,90 343,90 338,85 " style="fill:white; stroke-width:1; stroke:black; " description="&lt;b&gt;PCPL58_RS04910&lt;/b&gt;&lt;br&gt;4'-phosphopantetheinyl transferase superfamily protein&lt;br&gt;Location: 545902 - 545270" locus_tag="PCPL58_RS04910" class="clusterblast-orf" id="dummy-1_h1_1_17"  />
</g>
<g id="a1_0018"  >
<polygon points="350,85 355,80 424,80 424,90 355,90 350,85 " style="fill:white; stroke-width:1; stroke:black; " description="&lt;b&gt;PCPL58_RS04905&lt;/b&gt;&lt;br&gt;non-ribosomal peptide synthetase&lt;br&gt;Location: 545273 - 541233" locus_tag="PCPL58_RS04905" class="clusterblast-orf" id="dummy-1_h1_1_18"  />
</g>
<g id="a1_0019"  >
<polygon points="428,85 433,80 438,80 438,90 433,90 428,85 " style="fill:white; stroke-width:1; stroke:black; " description="&lt;b&gt;PCPL58_RS04900&lt;/b&gt;&lt;br&gt;GNAT family N-acetyltransferase&lt;br&gt;Location: 540981 - 540478" locus_tag="PCPL58_RS04900" class="clusterblast-orf" id="dummy-1_h1_1_19"  />
</g>
<g id="a1_0020"  >
<polygon points="439,90 442,85 439,80 439,90 " style="fill:white; stroke-width:1; stroke:black; " description="&lt;b&gt;PCPL58_RS30690&lt;/b&gt;&lt;br&gt;DUF4172 domain-containing protein&lt;br&gt;Location: 540380 - 540234" locus_tag="PCPL58_RS30690" class="clusterblast-orf" id="dummy-1_h1_1_20"  />
</g>
<g id="a1_0021"  >
<polygon points="442,85 446,80 446,90 442,85 " style="fill:white; stroke-width:1; stroke:black; " description="&lt;b&gt;PCPL58_RS04895&lt;/b&gt;&lt;br&gt;hypothetical protein&lt;br&gt;Location: 540209 - 539997" locus_tag="PCPL58_RS04895" class="clusterblast-orf" id="dummy-1_h1_1_21"  />
</g>
<g id="a1_0022"  >
<polygon points="451,90 466,90 471,85 466,80 451,80 451,90 " style="fill:white; stroke-width:1; stroke:black; " description="&lt;b&gt;PCPL58_RS04890&lt;/b&gt;&lt;br&gt;FUSC family protein&lt;br&gt;Location: 539741 - 538665" locus_tag="PCPL58_RS04890" class="clusterblast-orf" id="dummy-1_h1_1_22"  />
</g>
<g id="a1_0023"  >
<polygon points="471,90 474,90 479,85 474,80 471,80 471,90 " style="fill:#d81515; stroke-width:1; stroke:black; " description="&lt;b&gt;PCPL58_RS04885&lt;/b&gt;&lt;br&gt;Lrp/AsnC family transcriptional regulator&lt;br&gt;Location: 538654 - 538193&lt;br&gt;&lt;br&gt;&lt;b&gt;BlastP hit with MCIC6FC_020538&lt;/b&gt;&lt;br&gt;Percentage identity: 93&lt;br&gt;Percentage coverage: 34&lt;br&gt;BLAST bit score: 259&lt;br&gt;E-value: 5.3e-67" locus_tag="PCPL58_RS04885" class="clusterblast-orf" id="dummy-1_h1_1_23"  />
</g>
<g id="a1_0024"  >
<polygon points="482,90 508,90 513,85 508,80 482,80 482,90 " style="fill:#15d863; stroke-width:1; stroke:black; " description="&lt;b&gt;PCPL58_RS04880&lt;/b&gt;&lt;br&gt;NAD(P)/FAD-dependent oxidoreductase&lt;br&gt;Location: 538041 - 536362&lt;br&gt;&lt;br&gt;&lt;b&gt;BlastP hit with MCIC6FC_020539&lt;/b&gt;&lt;br&gt;Percentage identity: 91&lt;br&gt;Percentage coverage: 33&lt;br&gt;BLAST bit score: 1009&lt;br&gt;E-value: 3.3e-292" locus_tag="PCPL58_RS04880" class="clusterblast-orf" id="dummy-1_h1_1_24"  />
</g>
<g id="a1_0025"  >
<polygon points="513,90 523,90 528,85 523,80 513,80 513,90 " style="fill:#15d863; stroke-width:1; stroke:black; " description="&lt;b&gt;PCPL58_RS04875&lt;/b&gt;&lt;br&gt;carbon-nitrogen hydrolase family protein&lt;br&gt;Location: 536346 - 535552&lt;br&gt;&lt;br&gt;&lt;b&gt;BlastP hit with MCIC6FC_020539&lt;/b&gt;&lt;br&gt;Percentage identity: 71&lt;br&gt;Percentage coverage: 16&lt;br&gt;BLAST bit score: 371&lt;br&gt;E-value: 5.9e-100" locus_tag="PCPL58_RS04875" class="clusterblast-orf" id="dummy-1_h1_1_25"  />
</g>
<g id="a1_0026"  >
<polygon points="531,90 568,90 573,85 568,80 531,80 531,90 " style="fill:#15d863; stroke-width:1; stroke:black; " description="&lt;b&gt;PCPL58_RS04870&lt;/b&gt;&lt;br&gt;pyrroloquinoline quinone biosynthesis protein PqqF&lt;br&gt;Location: 535346 - 533058&lt;br&gt;&lt;br&gt;&lt;b&gt;BlastP hit with MCIC6FC_020539&lt;/b&gt;&lt;br&gt;Percentage identity: 45&lt;br&gt;Percentage coverage: 50&lt;br&gt;BLAST bit score: 569&lt;br&gt;E-value: 8.7e-160" locus_tag="PCPL58_RS04870" class="clusterblast-orf" id="dummy-1_h1_1_26"  />
</g>
<g id="a1_0027"  >
<polygon points="576,90 577,85 576,80 576,90 " style="fill:white; stroke-width:1; stroke:black; " description="&lt;b&gt;PCPL58_RS29095&lt;/b&gt;&lt;br&gt;pyrroloquinoline quinone precursor peptide PqqA&lt;br&gt;Location: 532922 - 532848" locus_tag="PCPL58_RS29095" class="clusterblast-orf" id="dummy-1_h1_1_27"  />
</g>
<g id="a1_0028"  >
<polygon points="579,90 591,90 596,85 591,80 579,80 579,90 " style="fill:#1563d8; stroke-width:1; stroke:black; " description="&lt;b&gt;PCPL58_RS04865&lt;/b&gt;&lt;br&gt;pyrroloquinoline quinone biosynthesis protein PqqB&lt;br&gt;Location: 532759 - 531848&lt;br&gt;&lt;br&gt;&lt;b&gt;BlastP hit with MCIC6FC_020540&lt;/b&gt;&lt;br&gt;Percentage identity: 90&lt;br&gt;Percentage coverage: 95&lt;br&gt;BLAST bit score: 556&lt;br&gt;E-value: 1.4e-156" locus_tag="PCPL58_RS04865" class="clusterblast-orf" id="dummy-1_h1_1_28"  />
</g>
<g id="a1_0029"  >
<polygon points="596,90 605,90 610,85 605,80 596,80 596,90 " style="fill:#b115d8; stroke-width:1; stroke:black; " description="&lt;b&gt;PCPL58_RS04860&lt;/b&gt;&lt;br&gt;pyrroloquinoline-quinone synthase PqqC&lt;br&gt;Location: 531839 - 531084&lt;br&gt;&lt;br&gt;&lt;b&gt;BlastP hit with MCIC6FC_020541&lt;/b&gt;&lt;br&gt;Percentage identity: 94&lt;br&gt;Percentage coverage: 36&lt;br&gt;BLAST bit score: 473&lt;br&gt;E-value: 2.7e-131" locus_tag="PCPL58_RS04860" class="clusterblast-orf" id="dummy-1_h1_1_29"  />
</g>
<g id="a1_0030"  >
<polygon points="609,90 610,90 615,85 610,80 609,80 609,90 " style="fill:#b115d8; stroke-width:1; stroke:black; " description="&lt;b&gt;PCPL58_RS04855&lt;/b&gt;&lt;br&gt;pyrroloquinoline quinone biosynthesis peptide chaperone PqqD&lt;br&gt;Location: 531087 - 530803&lt;br&gt;&lt;br&gt;&lt;b&gt;BlastP hit with MCIC6FC_020541&lt;/b&gt;&lt;br&gt;Percentage identity: 69&lt;br&gt;Percentage coverage: 11&lt;br&gt;BLAST bit score: 108&lt;br&gt;E-value: 2.3e-21" locus_tag="PCPL58_RS04855" class="clusterblast-orf" id="dummy-1_h1_1_30"  />
</g>
<g id="a1_0031"  >
<polygon points="615,90 631,90 636,85 631,80 615,80 615,90 " style="fill:#b115d8; stroke-width:1; stroke:black; " description="&lt;b&gt;PCPL58_RS04850&lt;/b&gt;&lt;br&gt;pyrroloquinoline quinone biosynthesis protein PqqE&lt;br&gt;Location: 530810 - 529641&lt;br&gt;&lt;br&gt;&lt;b&gt;BlastP hit with MCIC6FC_020541&lt;/b&gt;&lt;br&gt;Percentage identity: 84&lt;br&gt;Percentage coverage: 56&lt;br&gt;BLAST bit score: 670&lt;br&gt;E-value: 1.9e-190" locus_tag="PCPL58_RS04850" class="clusterblast-orf" id="dummy-1_h1_1_31"  />
</g>
<g id="a1_0032"  >
<polygon points="635,90 664,90 669,85 664,80 635,80 635,90 " style="fill:white; stroke-width:1; stroke:black; " description="&lt;b&gt;PCPL58_RS04845&lt;/b&gt;&lt;br&gt;S9 family peptidase&lt;br&gt;Location: 529678 - 527852" locus_tag="PCPL58_RS04845" class="clusterblast-orf" id="dummy-1_h1_1_32"  />
</g>
<g id="a1_0033"  >
<polygon points="670,85 673,80 673,90 670,85 " style="fill:white; stroke-width:1; stroke:black; " description="&lt;b&gt;PCPL58_RS04840&lt;/b&gt;&lt;br&gt;YqaE/Pmp3 family membrane protein&lt;br&gt;Location: 527796 - 527635" locus_tag="PCPL58_RS04840" class="clusterblast-orf" id="dummy-1_h1_1_33"  />
</g>
<g id="a1_0034"  >
<polygon points="680,85 685,80 713,80 713,90 685,90 680,85 " style="fill:#b1d815; stroke-width:1; stroke:black; " description="&lt;b&gt;PCPL58_RS04835&lt;/b&gt;&lt;br&gt;acyl-CoA dehydrogenase&lt;br&gt;Location: 527231 - 525453&lt;br&gt;&lt;br&gt;&lt;b&gt;BlastP hit with MCIC6FC_020544&lt;/b&gt;&lt;br&gt;Percentage identity: 84&lt;br&gt;Percentage coverage: 93&lt;br&gt;BLAST bit score: 993&lt;br&gt;E-value: 7.3e-288&lt;br&gt;&lt;br&gt;&lt;b&gt;BlastP hit with MCIC6FC_020545&lt;/b&gt;&lt;br&gt;Percentage identity: 55&lt;br&gt;Percentage coverage: 59&lt;br&gt;BLAST bit score: 639&lt;br&gt;E-value: 5.7e-181" locus_tag="PCPL58_RS04835" class="clusterblast-orf" id="dummy-1_h1_1_34"  />
</g>
<g id="a1_0035"  >
<polygon points="716,85 721,80 740,80 740,90 721,90 716,85 " style="fill:#b1d815; stroke-width:1; stroke:black; " description="&lt;b&gt;PCPL58_RS04830&lt;/b&gt;&lt;br&gt;GGDEF domain-containing protein&lt;br&gt;Location: 525283 - 523985&lt;br&gt;&lt;br&gt;&lt;b&gt;BlastP hit with MCIC6FC_020545&lt;/b&gt;&lt;br&gt;Percentage identity: 77&lt;br&gt;Percentage coverage: 42&lt;br&gt;BLAST bit score: 641&lt;br&gt;E-value: 1.9e-181" locus_tag="PCPL58_RS04830" class="clusterblast-orf" id="dummy-1_h1_1_35"  />
</g>
<g id="a1_0036"  >
<polygon points="746,85 751,80 780,80 780,90 751,90 746,85 " style="fill:#b1d815; stroke-width:1; stroke:black; " description="&lt;b&gt;PCPL58_RS04825&lt;/b&gt;&lt;br&gt;acyl-CoA dehydrogenase&lt;br&gt;Location: 523607 - 521802&lt;br&gt;&lt;br&gt;&lt;b&gt;BlastP hit with MCIC6FC_020544&lt;/b&gt;&lt;br&gt;Percentage identity: 51&lt;br&gt;Percentage coverage: 95&lt;br&gt;BLAST bit score: 607&lt;br&gt;E-value: 1.1e-171&lt;br&gt;&lt;br&gt;&lt;b&gt;BlastP hit with MCIC6FC_020545&lt;/b&gt;&lt;br&gt;Percentage identity: 65&lt;br&gt;Percentage coverage: 59&lt;br&gt;BLAST bit score: 804&lt;br&gt;E-value: 1.7e-230" locus_tag="PCPL58_RS04825" class="clusterblast-orf" id="dummy-1_h1_1_36"  />
</g>
</svg>
