<svg xmlns="http://www.w3.org/2000/svg" xmlns:xlink="http://www.w3.org/1999/xlink" version="1.1" x="0" y="0" height="230" width="800" viewBox="0 0 800 230" preserveAspectRatio="none"  >
<g label="Query sequence" class="clusterblast-cluster"  >
<text x="5" y="20" class="clusterblast-acc"  >
Query sequence</text>
<line x1="10" y1="35" x2="778.0" y2="35" style="stroke-width:1; stroke:grey; "  />
<polygon points="0,40 8,40 13,35 8,30 0,30 0,40 " style="fill:#d81515; stroke-width:1; stroke:black; " description="&lt;b&gt;MCIC6FC_007376&lt;/b&gt;&lt;br&gt;hypothetical protein&lt;br&gt;Location: 474120 - 475205" locus_tag="MCIC6FC_007376" class="clusterblast-orf" id="dummy-1_q0_0_all"  />
<polygon points="17,35 22,30 69,30 69,40 22,40 17,35 " style="fill:#67d815; stroke-width:1; stroke:black; " description="&lt;b&gt;MCIC6FC_007377&lt;/b&gt;&lt;br&gt;hypothetical protein&lt;br&gt;Location: 475594 - 479870" locus_tag="MCIC6FC_007377" class="clusterblast-orf" id="dummy-1_q1_0_all"  />
<polygon points="70,40 125,40 130,35 125,30 70,30 70,40 " style="fill:#15b9d8; stroke-width:1; stroke:black; " description="&lt;b&gt;MCIC6FC_007378&lt;/b&gt;&lt;br&gt;hypothetical protein&lt;br&gt;Location: 479964 - 484887" locus_tag="MCIC6FC_007378" class="clusterblast-orf" id="dummy-1_q2_0_all"  />
<polygon points="133,40 143,40 148,35 143,30 133,30 133,40 " style="fill:#a515d8; stroke-width:1; stroke:black; " description="&lt;b&gt;MCIC6FC_007379&lt;/b&gt;&lt;br&gt;hypothetical protein&lt;br&gt;Location: 485105 - 486335" locus_tag="MCIC6FC_007379" class="clusterblast-orf" id="dummy-1_q3_0_all"  />
<polygon points="148,40 171,40 176,35 171,30 148,30 148,40 " style="fill:#d85315; stroke-width:1; stroke:black; " description="&lt;b&gt;MCIC6FC_007380&lt;/b&gt;&lt;br&gt;hypothetical protein&lt;br&gt;Location: 486382 - 488704" locus_tag="MCIC6FC_007380" class="clusterblast-orf" id="dummy-1_q4_0_all"  />
<polygon points="177,40 179,40 184,35 179,30 177,30 177,40 " style="fill:#2ad815; stroke-width:1; stroke:black; " description="&lt;b&gt;MCIC6FC_007381&lt;/b&gt;&lt;br&gt;hypothetical protein&lt;br&gt;Location: 488771 - 489344" locus_tag="MCIC6FC_007381" class="clusterblast-orf" id="dummy-1_q5_0_all"  />
<polygon points="184,40 196,40 201,35 196,30 184,30 184,40 " style="fill:#157cd8; stroke-width:1; stroke:black; " description="&lt;b&gt;MCIC6FC_007382&lt;/b&gt;&lt;br&gt;hypothetical protein&lt;br&gt;Location: 489369 - 490725" locus_tag="MCIC6FC_007382" class="clusterblast-orf" id="dummy-1_q6_0_all"  />
<polygon points="201,35 206,30 208,30 208,40 206,40 201,35 " style="fill:#d815ce; stroke-width:1; stroke:black; " description="&lt;b&gt;MCIC6FC_007383&lt;/b&gt;&lt;br&gt;hypothetical protein&lt;br&gt;Location: 490732 - 491308" locus_tag="MCIC6FC_007383" class="clusterblast-orf" id="dummy-1_q7_0_all"  />
<polygon points="210,40 214,35 210,30 210,40 " style="fill:#d89015; stroke-width:1; stroke:black; " description="&lt;b&gt;MCIC6FC_007384&lt;/b&gt;&lt;br&gt;hypothetical protein&lt;br&gt;Location: 491449 - 491764" locus_tag="MCIC6FC_007384" class="clusterblast-orf" id="dummy-1_q8_0_all"  />
<polygon points="214,40 219,40 224,35 219,30 214,30 214,40 " style="fill:#d89015; stroke-width:1; stroke:black; " description="&lt;b&gt;MCIC6FC_007385&lt;/b&gt;&lt;br&gt;hypothetical protein&lt;br&gt;Location: 491806 - 492622" locus_tag="MCIC6FC_007385" class="clusterblast-orf" id="dummy-1_q9_0_all"  />
<polygon points="224,40 543,40 548,35 543,30 224,30 224,40 " style="fill:#15d83e; stroke-width:1; stroke:black; " description="&lt;b&gt;MCIC6FC_007386&lt;/b&gt;&lt;br&gt;hypothetical protein&lt;br&gt;Location: 492655 - 519348" locus_tag="MCIC6FC_007386" class="clusterblast-orf" id="dummy-1_q10_0_all"  />
<polygon points="551,35 556,30 580,30 580,40 556,40 551,35 " style="fill:#153ed8; stroke-width:1; stroke:black; " description="&lt;b&gt;MCIC6FC_007387&lt;/b&gt;&lt;br&gt;hypothetical protein&lt;br&gt;Location: 519638 - 522035" locus_tag="MCIC6FC_007387" class="clusterblast-orf" id="dummy-1_q11_0_all"  />
<polygon points="582,35 587,30 602,30 602,40 587,40 582,35 " style="fill:#d81590; stroke-width:1; stroke:black; " description="&lt;b&gt;MCIC6FC_007388&lt;/b&gt;&lt;br&gt;hypothetical protein&lt;br&gt;Location: 522189 - 523842" locus_tag="MCIC6FC_007388" class="clusterblast-orf" id="dummy-1_q12_0_all"  />
<polygon points="605,40 610,40 615,35 610,30 605,30 605,40 " style="fill:#d8ce15; stroke-width:1; stroke:black; " description="&lt;b&gt;MCIC6FC_007389&lt;/b&gt;&lt;br&gt;hypothetical protein&lt;br&gt;Location: 524041 - 524869" locus_tag="MCIC6FC_007389" class="clusterblast-orf" id="dummy-1_q13_0_all"  />
<polygon points="623,35 628,30 666,30 666,40 628,40 623,35 " style="fill:#15d87c; stroke-width:1; stroke:black; " description="&lt;b&gt;MCIC6FC_007390&lt;/b&gt;&lt;br&gt;hypothetical protein&lt;br&gt;Location: 525562 - 529119" locus_tag="MCIC6FC_007390" class="clusterblast-orf" id="dummy-1_q14_0_all"  />
<polygon points="668,40 683,40 688,35 683,30 668,30 668,40 " style="fill:#2a15d8; stroke-width:1; stroke:black; " description="&lt;b&gt;MCIC6FC_007391&lt;/b&gt;&lt;br&gt;hypothetical protein&lt;br&gt;Location: 529255 - 530864" locus_tag="MCIC6FC_007391" class="clusterblast-orf" id="dummy-1_q15_0_all"  />
<polygon points="688,35 693,30 699,30 699,40 693,40 688,35 " style="fill:#d81553; stroke-width:1; stroke:black; " description="&lt;b&gt;MCIC6FC_007392&lt;/b&gt;&lt;br&gt;hypothetical protein&lt;br&gt;Location: 530867 - 531816" locus_tag="MCIC6FC_007392" class="clusterblast-orf" id="dummy-1_q16_0_all"  />
<polygon points="701,40 729,40 734,35 729,30 701,30 701,40 " style="fill:#a5d815; stroke-width:1; stroke:black; " description="&lt;b&gt;MCIC6FC_007393&lt;/b&gt;&lt;br&gt;hypothetical protein&lt;br&gt;Location: 531961 - 534689" locus_tag="MCIC6FC_007393" class="clusterblast-orf" id="dummy-1_q17_0_all"  />
<polygon points="734,40 742,40 747,35 742,30 734,30 734,40 " style="fill:#15d8b9; stroke-width:1; stroke:black; " description="&lt;b&gt;MCIC6FC_007394&lt;/b&gt;&lt;br&gt;hypothetical protein&lt;br&gt;Location: 534721 - 535791" locus_tag="MCIC6FC_007394" class="clusterblast-orf" id="dummy-1_q18_0_all"  />
<polygon points="748,40 775,40 780,35 775,30 748,30 748,40 " style="fill:#6715d8; stroke-width:1; stroke:black; " description="&lt;b&gt;MCIC6FC_007395&lt;/b&gt;&lt;br&gt;hypothetical protein&lt;br&gt;Location: 535825 - 538463" locus_tag="MCIC6FC_007395" class="clusterblast-orf" id="dummy-1_q19_0_all"  />
</g>
<g label="NZ_LT629704" description="NZ_LT629704 (4387367-4453269): Pseudomonas antarctica strain LMG 22709 chromo... (50% of genes show similarity), NRPS,terpene" class="clusterblast-cluster"  >
<text x="5" y="70" class="clusterblast-acc"  >
<a xlink:href="https://antismash-db.secondarymetabolites.org/area.html?record=NZ_LT629704&amp;start=4387367&amp;end=4453269" target="_blank">NZ_LT629704 (4387367-4453269)</a>: Pseudomonas antarctica strain LMG 22709 chromo... (50% of genes show similarity), NRPS,terpene</text>
<line x1="10" y1="85" x2="778.0" y2="85" style="stroke-width:1; stroke:grey; "  />
</g>
<g id="a1_000"  >
<polygon points="3,90 6,85 3,80 3,90 " style="fill:white; stroke-width:1; stroke:black; " description="&lt;b&gt;BLQ27_RS20010&lt;/b&gt;&lt;br&gt;NAD synthetase&lt;br&gt;Location: 4452804 - 4452493" locus_tag="BLQ27_RS20010" class="clusterblast-orf" id="dummy-1_h1_7_0"  />
</g>
<g id="a1_001"  >
<polygon points="7,90 11,85 7,80 7,90 " style="fill:white; stroke-width:1; stroke:black; " description="&lt;b&gt;BLQ27_RS29670&lt;/b&gt;&lt;br&gt;hypothetical protein&lt;br&gt;Location: 4452479 - 4452147" locus_tag="BLQ27_RS29670" class="clusterblast-orf" id="dummy-1_h1_7_1"  />
</g>
<g id="a1_002"  >
<polygon points="11,85 16,80 24,80 24,90 16,90 11,85 " style="fill:white; stroke-width:1; stroke:black; " description="&lt;b&gt;BLQ27_RS20000&lt;/b&gt;&lt;br&gt;ABC transporter substrate-binding protein&lt;br&gt;Location: 4452098 - 4451067" locus_tag="BLQ27_RS20000" class="clusterblast-orf" id="dummy-1_h1_7_2"  />
</g>
<g id="a1_003"  >
<polygon points="24,85 29,80 37,80 37,90 29,90 24,85 " style="fill:white; stroke-width:1; stroke:black; " description="&lt;b&gt;BLQ27_RS19995&lt;/b&gt;&lt;br&gt;FAD-binding oxidoreductase&lt;br&gt;Location: 4451052 - 4449955" locus_tag="BLQ27_RS19995" class="clusterblast-orf" id="dummy-1_h1_7_3"  />
</g>
<g id="a1_004"  >
<polygon points="37,85 42,80 53,80 53,90 42,90 37,85 " style="fill:white; stroke-width:1; stroke:black; " description="&lt;b&gt;BLQ27_RS19990&lt;/b&gt;&lt;br&gt;FAD-dependent oxidoreductase&lt;br&gt;Location: 4449958 - 4448615" locus_tag="BLQ27_RS19990" class="clusterblast-orf" id="dummy-1_h1_7_4"  />
</g>
<g id="a1_005"  >
<polygon points="53,85 57,80 57,90 53,85 " style="fill:white; stroke-width:1; stroke:black; " description="&lt;b&gt;BLQ27_RS19985&lt;/b&gt;&lt;br&gt;(2Fe-2S)-binding protein&lt;br&gt;Location: 4448618 - 4448328" locus_tag="BLQ27_RS19985" class="clusterblast-orf" id="dummy-1_h1_7_5"  />
</g>
<g id="a1_006"  >
<polygon points="57,85 62,80 67,80 67,90 62,90 57,85 " style="fill:white; stroke-width:1; stroke:black; " description="&lt;b&gt;BLQ27_RS19980&lt;/b&gt;&lt;br&gt;ABC transporter permease&lt;br&gt;Location: 4448328 - 4447534" locus_tag="BLQ27_RS19980" class="clusterblast-orf" id="dummy-1_h1_7_6"  />
</g>
<g id="a1_007"  >
<polygon points="67,85 72,80 77,80 77,90 72,90 67,85 " style="fill:white; stroke-width:1; stroke:black; " description="&lt;b&gt;BLQ27_RS19975&lt;/b&gt;&lt;br&gt;ABC transporter permease&lt;br&gt;Location: 4447529 - 4446684" locus_tag="BLQ27_RS19975" class="clusterblast-orf" id="dummy-1_h1_7_7"  />
</g>
<g id="a1_008"  >
<polygon points="77,85 82,80 89,80 89,90 82,90 77,85 " style="fill:#15b9d8; stroke-width:1; stroke:black; " description="&lt;b&gt;BLQ27_RS19970&lt;/b&gt;&lt;br&gt;ABC transporter ATP-binding protein&lt;br&gt;Location: 4446687 - 4445659&lt;br&gt;&lt;br&gt;&lt;b&gt;BlastP hit with MCIC6FC_007378&lt;/b&gt;&lt;br&gt;Percentage identity: 33&lt;br&gt;Percentage coverage: 15&lt;br&gt;BLAST bit score: 106&lt;br&gt;E-value: 3.4e-20" locus_tag="BLQ27_RS19970" class="clusterblast-orf" id="dummy-1_h1_7_8"  />
</g>
<g id="a1_009"  >
<polygon points="92,90 97,90 102,85 97,80 92,80 92,90 " style="fill:#d81515; stroke-width:1; stroke:black; " description="&lt;b&gt;BLQ27_RS19965&lt;/b&gt;&lt;br&gt;IclR family transcriptional regulator&lt;br&gt;Location: 4445416 - 4444586&lt;br&gt;&lt;br&gt;&lt;b&gt;BlastP hit with MCIC6FC_007376&lt;/b&gt;&lt;br&gt;Percentage identity: 96&lt;br&gt;Percentage coverage: 87&lt;br&gt;BLAST bit score: 511&lt;br&gt;E-value: 7.2e-143" locus_tag="BLQ27_RS19965" class="clusterblast-orf" id="dummy-1_h1_7_9"  />
</g>
<g id="a1_0010"  >
<polygon points="103,85 105,80 105,90 103,85 " style="fill:white; stroke-width:1; stroke:black; " description="&lt;b&gt;BLQ27_RS30080&lt;/b&gt;&lt;br&gt;DNA-binding response regulator&lt;br&gt;Location: 4444529 - 4444386" locus_tag="BLQ27_RS30080" class="clusterblast-orf" id="dummy-1_h1_7_10"  />
</g>
<g id="a1_0011"  >
<polygon points="105,85 107,80 107,90 105,85 " style="fill:white; stroke-width:1; stroke:black; " description="&lt;b&gt;BLQ27_RS30075&lt;/b&gt;&lt;br&gt;transposase&lt;br&gt;Location: 4444385 - 4444155" locus_tag="BLQ27_RS30075" class="clusterblast-orf" id="dummy-1_h1_7_11"  />
</g>
<g id="a1_0012"  >
<polygon points="112,90 133,90 138,85 133,80 112,80 112,90 " style="fill:white; stroke-width:1; stroke:black; " description="&lt;b&gt;BLQ27_RS19955&lt;/b&gt;&lt;br&gt;hypothetical protein&lt;br&gt;Location: 4443783 - 4441597" locus_tag="BLQ27_RS19955" class="clusterblast-orf" id="dummy-1_h1_7_12"  />
</g>
<g id="a1_0013"  >
<polygon points="140,85 144,80 144,90 140,85 " style="fill:white; stroke-width:1; stroke:black; " description="&lt;b&gt;BLQ27_RS19950&lt;/b&gt;&lt;br&gt;FUSC family protein&lt;br&gt;Location: 4441496 - 4441107" locus_tag="BLQ27_RS19950" class="clusterblast-orf" id="dummy-1_h1_7_13"  />
</g>
<g id="a1_0014"  >
<polygon points="147,90 149,90 154,85 149,80 147,80 147,90 " style="fill:#2ad815; stroke-width:1; stroke:black; " description="&lt;b&gt;BLQ27_RS19945&lt;/b&gt;&lt;br&gt;DUF2239 family protein&lt;br&gt;Location: 4440877 - 4440305&lt;br&gt;&lt;br&gt;&lt;b&gt;BlastP hit with MCIC6FC_007381&lt;/b&gt;&lt;br&gt;Percentage identity: 83&lt;br&gt;Percentage coverage: 100&lt;br&gt;BLAST bit score: 318&lt;br&gt;E-value: 4.1e-85" locus_tag="BLQ27_RS19945" class="clusterblast-orf" id="dummy-1_h1_7_14"  />
</g>
<g id="a1_0015"  >
<polygon points="154,90 166,90 171,85 166,80 154,80 154,90 " style="fill:#157cd8; stroke-width:1; stroke:black; " description="&lt;b&gt;BLQ27_RS19940&lt;/b&gt;&lt;br&gt;MATE family efflux transporter&lt;br&gt;Location: 4440279 - 4438924&lt;br&gt;&lt;br&gt;&lt;b&gt;BlastP hit with MCIC6FC_007382&lt;/b&gt;&lt;br&gt;Percentage identity: 97&lt;br&gt;Percentage coverage: 100&lt;br&gt;BLAST bit score: 814&lt;br&gt;E-value: 5.7e-234" locus_tag="BLQ27_RS19940" class="clusterblast-orf" id="dummy-1_h1_7_15"  />
</g>
<g id="a1_0016"  >
<polygon points="171,85 176,80 178,80 178,90 176,90 171,85 " style="fill:#d815ce; stroke-width:1; stroke:black; " description="&lt;b&gt;BLQ27_RS19935&lt;/b&gt;&lt;br&gt;TetR/AcrR family transcriptional regulator&lt;br&gt;Location: 4438917 - 4438342&lt;br&gt;&lt;br&gt;&lt;b&gt;BlastP hit with MCIC6FC_007383&lt;/b&gt;&lt;br&gt;Percentage identity: 94&lt;br&gt;Percentage coverage: 100&lt;br&gt;BLAST bit score: 356&lt;br&gt;E-value: 1.8e-96" locus_tag="BLQ27_RS19935" class="clusterblast-orf" id="dummy-1_h1_7_16"  />
</g>
<g id="a1_0017"  >
<polygon points="180,90 189,90 194,85 189,80 180,80 180,90 " style="fill:#d89015; stroke-width:1; stroke:black; " description="&lt;b&gt;BLQ27_RS19930&lt;/b&gt;&lt;br&gt;MFS transporter&lt;br&gt;Location: 4438200 - 4437028&lt;br&gt;&lt;br&gt;&lt;b&gt;BlastP hit with MCIC6FC_007384&lt;/b&gt;&lt;br&gt;Percentage identity: 90&lt;br&gt;Percentage coverage: 100&lt;br&gt;BLAST bit score: 166&lt;br&gt;E-value: 1.9e-39&lt;br&gt;&lt;br&gt;&lt;b&gt;BlastP hit with MCIC6FC_007385&lt;/b&gt;&lt;br&gt;Percentage identity: 96&lt;br&gt;Percentage coverage: 100&lt;br&gt;BLAST bit score: 488&lt;br&gt;E-value: 3.3e-136" locus_tag="BLQ27_RS19930" class="clusterblast-orf" id="dummy-1_h1_7_17"  />
</g>
<g id="a1_0018"  >
<polygon points="194,85 199,80 206,80 206,90 199,90 194,85 " style="fill:white; stroke-width:1; stroke:black; " description="&lt;b&gt;BLQ27_RS19925&lt;/b&gt;&lt;br&gt;hypothetical protein&lt;br&gt;Location: 4437024 - 4436035" locus_tag="BLQ27_RS19925" class="clusterblast-orf" id="dummy-1_h1_7_18"  />
</g>
<g id="a1_0019"  >
<polygon points="207,85 212,80 219,80 219,90 212,90 207,85 " style="fill:white; stroke-width:1; stroke:black; " description="&lt;b&gt;BLQ27_RS19920&lt;/b&gt;&lt;br&gt;4-hydroxy-3-methylbut-2-enyl diphosphate reductase&lt;br&gt;Location: 4435923 - 4434994" locus_tag="BLQ27_RS19920" class="clusterblast-orf" id="dummy-1_h1_7_19"  />
</g>
<g id="a1_0020"  >
<polygon points="219,85 224,80 225,80 225,90 224,90 219,85 " style="fill:white; stroke-width:1; stroke:black; " description="&lt;b&gt;BLQ27_RS19915&lt;/b&gt;&lt;br&gt;hypothetical protein&lt;br&gt;Location: 4434991 - 4434443" locus_tag="BLQ27_RS19915" class="clusterblast-orf" id="dummy-1_h1_7_20"  />
</g>
<g id="a1_0021"  >
<polygon points="229,85 234,80 234,80 234,90 234,90 229,85 " style="fill:white; stroke-width:1; stroke:black; " description="&lt;b&gt;BLQ27_RS19910&lt;/b&gt;&lt;br&gt;type II toxin-antitoxin system HicB family antitoxin&lt;br&gt;Location: 4434092 - 4433727" locus_tag="BLQ27_RS19910" class="clusterblast-orf" id="dummy-1_h1_7_21"  />
</g>
<g id="a1_0022"  >
<polygon points="234,85 237,80 237,90 234,85 " style="fill:white; stroke-width:1; stroke:black; " description="&lt;b&gt;BLQ27_RS19905&lt;/b&gt;&lt;br&gt;type II toxin-antitoxin system HicA family toxin&lt;br&gt;Location: 4433730 - 4433479" locus_tag="BLQ27_RS19905" class="clusterblast-orf" id="dummy-1_h1_7_22"  />
</g>
<g id="a1_0023"  >
<polygon points="239,90 405,90 410,85 405,80 239,80 239,90 " style="fill:#15d83e; stroke-width:1; stroke:black; " description="&lt;b&gt;BLQ27_RS19900&lt;/b&gt;&lt;br&gt;non-ribosomal peptide synthetase&lt;br&gt;Location: 4433269 - 4419224&lt;br&gt;&lt;br&gt;&lt;b&gt;BlastP hit with MCIC6FC_007386&lt;/b&gt;&lt;br&gt;Percentage identity: 91&lt;br&gt;Percentage coverage: 54&lt;br&gt;BLAST bit score: 8411&lt;br&gt;E-value: 0.0" locus_tag="BLQ27_RS19900" class="clusterblast-orf" id="dummy-1_h1_7_23"  />
</g>
<g id="a1_0024"  >
<polygon points="410,90 548,90 553,85 548,80 410,80 410,90 " style="fill:#15d83e; stroke-width:1; stroke:black; " description="&lt;b&gt;BLQ27_RS19895&lt;/b&gt;&lt;br&gt;non-ribosomal peptide synthetase&lt;br&gt;Location: 4419220 - 4407368&lt;br&gt;&lt;br&gt;&lt;b&gt;BlastP hit with MCIC6FC_007386&lt;/b&gt;&lt;br&gt;Percentage identity: 92&lt;br&gt;Percentage coverage: 45&lt;br&gt;BLAST bit score: 7183&lt;br&gt;E-value: 0.0" locus_tag="BLQ27_RS19895" class="clusterblast-orf" id="dummy-1_h1_7_24"  />
</g>
<g id="a1_0025"  >
<polygon points="555,85 560,80 585,80 585,90 560,90 555,85 " style="fill:#153ed8; stroke-width:1; stroke:black; " description="&lt;b&gt;BLQ27_RS19890&lt;/b&gt;&lt;br&gt;TonB-dependent siderophore receptor&lt;br&gt;Location: 4407224 - 4404783&lt;br&gt;&lt;br&gt;&lt;b&gt;BlastP hit with MCIC6FC_007387&lt;/b&gt;&lt;br&gt;Percentage identity: 97&lt;br&gt;Percentage coverage: 100&lt;br&gt;BLAST bit score: 1582&lt;br&gt;E-value: 0.0" locus_tag="BLQ27_RS19890" class="clusterblast-orf" id="dummy-1_h1_7_25"  />
</g>
<g id="a1_0026"  >
<polygon points="586,85 591,80 606,80 606,90 591,90 586,85 " style="fill:#d81590; stroke-width:1; stroke:black; " description="&lt;b&gt;BLQ27_RS19885&lt;/b&gt;&lt;br&gt;cyclic peptide export ABC transporter&lt;br&gt;Location: 4404673 - 4403021&lt;br&gt;&lt;br&gt;&lt;b&gt;BlastP hit with MCIC6FC_007388&lt;/b&gt;&lt;br&gt;Percentage identity: 98&lt;br&gt;Percentage coverage: 100&lt;br&gt;BLAST bit score: 1048&lt;br&gt;E-value: 2.9e-304" locus_tag="BLQ27_RS19885" class="clusterblast-orf" id="dummy-1_h1_7_26"  />
</g>
<g id="a1_0027"  >
<polygon points="609,90 614,90 619,85 614,80 609,80 609,90 " style="fill:#d8ce15; stroke-width:1; stroke:black; " description="&lt;b&gt;BLQ27_RS19880&lt;/b&gt;&lt;br&gt;N(5)-hydroxyornithine transformylase PvdF&lt;br&gt;Location: 4402821 - 4401994&lt;br&gt;&lt;br&gt;&lt;b&gt;BlastP hit with MCIC6FC_007389&lt;/b&gt;&lt;br&gt;Percentage identity: 99&lt;br&gt;Percentage coverage: 100&lt;br&gt;BLAST bit score: 563&lt;br&gt;E-value: 1.4e-158" locus_tag="BLQ27_RS19880" class="clusterblast-orf" id="dummy-1_h1_7_27"  />
</g>
<g id="a1_0028"  >
<polygon points="628,85 633,80 639,80 639,90 633,90 628,85 " style="fill:#15d87c; stroke-width:1; stroke:black; " description="&lt;b&gt;BLQ27_RS19870&lt;/b&gt;&lt;br&gt;formylglycine-generating enzyme family protein&lt;br&gt;Location: 4401201 - 4400329&lt;br&gt;&lt;br&gt;&lt;b&gt;BlastP hit with MCIC6FC_007390&lt;/b&gt;&lt;br&gt;Percentage identity: 97&lt;br&gt;Percentage coverage: 25&lt;br&gt;BLAST bit score: 604&lt;br&gt;E-value: 1.7e-170" locus_tag="BLQ27_RS19870" class="clusterblast-orf" id="dummy-1_h1_7_28"  />
</g>
<g id="a1_0029"  >
<polygon points="639,85 644,80 655,80 655,90 644,90 639,85 " style="fill:#15d87c; stroke-width:1; stroke:black; " description="&lt;b&gt;BLQ27_RS19865&lt;/b&gt;&lt;br&gt;aminotransferase class V-fold PLP-dependent enzyme&lt;br&gt;Location: 4400297 - 4399017&lt;br&gt;&lt;br&gt;&lt;b&gt;BlastP hit with MCIC6FC_007390&lt;/b&gt;&lt;br&gt;Percentage identity: 91&lt;br&gt;Percentage coverage: 36&lt;br&gt;BLAST bit score: 775&lt;br&gt;E-value: 5.7e-222" locus_tag="BLQ27_RS19865" class="clusterblast-orf" id="dummy-1_h1_7_29"  />
</g>
<g id="a1_0030"  >
<polygon points="655,85 660,80 671,80 671,90 660,90 655,85 " style="fill:#15d87c; stroke-width:1; stroke:black; " description="&lt;b&gt;BLQ27_RS19860&lt;/b&gt;&lt;br&gt;pyoverdine-tailoring dipeptidase-like protein PvdM&lt;br&gt;Location: 4398998 - 4397649&lt;br&gt;&lt;br&gt;&lt;b&gt;BlastP hit with MCIC6FC_007390&lt;/b&gt;&lt;br&gt;Percentage identity: 98&lt;br&gt;Percentage coverage: 38&lt;br&gt;BLAST bit score: 883&lt;br&gt;E-value: 3.3e-254" locus_tag="BLQ27_RS19860" class="clusterblast-orf" id="dummy-1_h1_7_30"  />
</g>
<g id="a1_0031"  >
<polygon points="673,90 688,90 693,85 688,80 673,80 673,90 " style="fill:#2a15d8; stroke-width:1; stroke:black; " description="&lt;b&gt;BLQ27_RS19855&lt;/b&gt;&lt;br&gt;PvdJ/PvdD/PvdP-like protein&lt;br&gt;Location: 4397506 - 4395887&lt;br&gt;&lt;br&gt;&lt;b&gt;BlastP hit with MCIC6FC_007391&lt;/b&gt;&lt;br&gt;Percentage identity: 97&lt;br&gt;Percentage coverage: 99&lt;br&gt;BLAST bit score: 1064&lt;br&gt;E-value: 4.7e-309" locus_tag="BLQ27_RS19855" class="clusterblast-orf" id="dummy-1_h1_7_31"  />
</g>
<g id="a1_0032"  >
<polygon points="693,85 698,80 704,80 704,90 698,90 693,85 " style="fill:#d81553; stroke-width:1; stroke:black; " description="&lt;b&gt;BLQ27_RS19850&lt;/b&gt;&lt;br&gt;DUF1853 family protein&lt;br&gt;Location: 4395894 - 4394947&lt;br&gt;&lt;br&gt;&lt;b&gt;BlastP hit with MCIC6FC_007392&lt;/b&gt;&lt;br&gt;Percentage identity: 90&lt;br&gt;Percentage coverage: 103&lt;br&gt;BLAST bit score: 602&lt;br&gt;E-value: 2.3e-170" locus_tag="BLQ27_RS19850" class="clusterblast-orf" id="dummy-1_h1_7_32"  />
</g>
<g id="a1_0033"  >
<polygon points="706,90 712,90 717,85 712,80 706,80 706,90 " style="fill:#a5d815; stroke-width:1; stroke:black; " description="&lt;b&gt;BLQ27_RS19845&lt;/b&gt;&lt;br&gt;NAD(+) kinase&lt;br&gt;Location: 4394802 - 4393876&lt;br&gt;&lt;br&gt;&lt;b&gt;BlastP hit with MCIC6FC_007393&lt;/b&gt;&lt;br&gt;Percentage identity: 100&lt;br&gt;Percentage coverage: 31&lt;br&gt;BLAST bit score: 562&lt;br&gt;E-value: 1e-157" locus_tag="BLQ27_RS19845" class="clusterblast-orf" id="dummy-1_h1_7_33"  />
</g>
<g id="a1_0034"  >
<polygon points="717,90 723,90 728,85 723,80 717,80 717,90 " style="fill:#a5d815; stroke-width:1; stroke:black; " description="&lt;b&gt;BLQ27_RS19840&lt;/b&gt;&lt;br&gt;metallophosphoesterase&lt;br&gt;Location: 4393913 - 4392942&lt;br&gt;&lt;br&gt;&lt;b&gt;BlastP hit with MCIC6FC_007393&lt;/b&gt;&lt;br&gt;Percentage identity: 98&lt;br&gt;Percentage coverage: 35&lt;br&gt;BLAST bit score: 667&lt;br&gt;E-value: 2.2e-189" locus_tag="BLQ27_RS19840" class="clusterblast-orf" id="dummy-1_h1_7_34"  />
</g>
<g id="a1_0035"  >
<polygon points="729,90 740,90 745,85 740,80 729,80 729,90 " style="fill:white; stroke-width:1; stroke:black; " description="&lt;b&gt;BLQ27_RS19835&lt;/b&gt;&lt;br&gt;ATP-binding protein&lt;br&gt;Location: 4392903 - 4391554" locus_tag="BLQ27_RS19835" class="clusterblast-orf" id="dummy-1_h1_7_35"  />
</g>
<g id="a1_0036"  >
<polygon points="745,90 746,90 751,85 746,80 745,80 745,90 " style="fill:white; stroke-width:1; stroke:black; " description="&lt;b&gt;BLQ27_RS19830&lt;/b&gt;&lt;br&gt;hypothetical protein&lt;br&gt;Location: 4391554 - 4391069" locus_tag="BLQ27_RS19830" class="clusterblast-orf" id="dummy-1_h1_7_36"  />
</g>
<g id="a1_0037"  >
<polygon points="751,90 757,90 762,85 757,80 751,80 751,90 " style="fill:white; stroke-width:1; stroke:black; " description="&lt;b&gt;BLQ27_RS19825&lt;/b&gt;&lt;br&gt;tetratricopeptide repeat protein&lt;br&gt;Location: 4391069 - 4390146" locus_tag="BLQ27_RS19825" class="clusterblast-orf" id="dummy-1_h1_7_37"  />
</g>
<g id="a1_0038"  >
<polygon points="763,90 766,85 763,80 763,90 " style="fill:#15d8b9; stroke-width:1; stroke:black; " description="&lt;b&gt;BLQ27_RS19820&lt;/b&gt;&lt;br&gt;DUF1315 family protein&lt;br&gt;Location: 4390066 - 4389806&lt;br&gt;&lt;br&gt;&lt;b&gt;BlastP hit with MCIC6FC_007394&lt;/b&gt;&lt;br&gt;Percentage identity: 100&lt;br&gt;Percentage coverage: 22&lt;br&gt;BLAST bit score: 153&lt;br&gt;E-value: 4.1e-35" locus_tag="BLQ27_RS19820" class="clusterblast-orf" id="dummy-1_h1_7_38"  />
</g>
<g id="a1_0039"  >
<polygon points="766,90 771,90 776,85 771,80 766,80 766,90 " style="fill:#15d8b9; stroke-width:1; stroke:black; " description="&lt;b&gt;BLQ27_RS19815&lt;/b&gt;&lt;br&gt;DUF2797 domain-containing protein&lt;br&gt;Location: 4389809 - 4388979&lt;br&gt;&lt;br&gt;&lt;b&gt;BlastP hit with MCIC6FC_007394&lt;/b&gt;&lt;br&gt;Percentage identity: 96&lt;br&gt;Percentage coverage: 78&lt;br&gt;BLAST bit score: 536&lt;br&gt;E-value: 2.3e-150" locus_tag="BLQ27_RS19815" class="clusterblast-orf" id="dummy-1_h1_7_39"  />
</g>
</svg>
