<svg xmlns="http://www.w3.org/2000/svg" xmlns:xlink="http://www.w3.org/1999/xlink" version="1.1" x="0" y="0" height="230" width="800" viewBox="0 0 800 230" preserveAspectRatio="none"  >
<g label="Query sequence" class="clusterblast-cluster"  >
<text x="5" y="20" class="clusterblast-acc"  >
Query sequence</text>
<line x1="10" y1="35" x2="778.0" y2="35" style="stroke-width:1; stroke:grey; "  />
<polygon points="0,35 5,30 23,30 23,40 5,40 0,35 " style="fill:white; stroke-width:1; stroke:black; " description="&lt;b&gt;MCIC6FC_007469&lt;/b&gt;&lt;br&gt;hypothetical protein&lt;br&gt;Location: 672575 - 674644" locus_tag="MCIC6FC_007469" class="clusterblast-orf" id="dummy-2_q0_0_all"  />
<polygon points="24,40 30,40 35,35 30,30 24,30 24,40 " style="fill:white; stroke-width:1; stroke:black; " description="&lt;b&gt;MCIC6FC_007470&lt;/b&gt;&lt;br&gt;hypothetical protein&lt;br&gt;Location: 674727 - 675636" locus_tag="MCIC6FC_007470" class="clusterblast-orf" id="dummy-2_q1_0_all"  />
<polygon points="35,35 40,30 61,30 61,40 40,40 35,35 " style="fill:#d81515; stroke-width:1; stroke:black; " description="&lt;b&gt;MCIC6FC_007471&lt;/b&gt;&lt;br&gt;hypothetical protein&lt;br&gt;Location: 675666 - 677901" locus_tag="MCIC6FC_007471" class="clusterblast-orf" id="dummy-2_q2_0_all"  />
<polygon points="63,40 84,40 89,35 84,30 63,30 63,40 " style="fill:#6ad815; stroke-width:1; stroke:black; " description="&lt;b&gt;MCIC6FC_007472&lt;/b&gt;&lt;br&gt;hypothetical protein&lt;br&gt;Location: 678045 - 680361" locus_tag="MCIC6FC_007472" class="clusterblast-orf" id="dummy-2_q3_0_all"  />
<polygon points="92,35 97,30 123,30 123,40 97,40 92,35 " style="fill:#15bfd8; stroke-width:1; stroke:black; " description="&lt;b&gt;MCIC6FC_007473&lt;/b&gt;&lt;br&gt;hypothetical protein&lt;br&gt;Location: 680593 - 683317" locus_tag="MCIC6FC_007473" class="clusterblast-orf" id="dummy-2_q4_0_all"  />
<polygon points="125,40 137,40 142,35 137,30 125,30 125,40 " style="fill:#9d15d8; stroke-width:1; stroke:black; " description="&lt;b&gt;MCIC6FC_007474&lt;/b&gt;&lt;br&gt;hypothetical protein&lt;br&gt;Location: 683450 - 684953" locus_tag="MCIC6FC_007474" class="clusterblast-orf" id="dummy-2_q5_0_all"  />
<polygon points="142,35 147,30 151,30 151,40 147,40 142,35 " style="fill:#d84815; stroke-width:1; stroke:black; " description="&lt;b&gt;MCIC6FC_007475&lt;/b&gt;&lt;br&gt;hypothetical protein&lt;br&gt;Location: 684963 - 685723" locus_tag="MCIC6FC_007475" class="clusterblast-orf" id="dummy-2_q6_0_all"  />
<polygon points="152,40 157,40 162,35 157,30 152,30 152,40 " style="fill:#37d815; stroke-width:1; stroke:black; " description="&lt;b&gt;MCIC6FC_007476&lt;/b&gt;&lt;br&gt;hypothetical protein&lt;br&gt;Location: 685781 - 686674" locus_tag="MCIC6FC_007476" class="clusterblast-orf" id="dummy-2_q7_0_all"  />
<polygon points="162,35 167,30 172,30 172,40 167,40 162,35 " style="fill:#158cd8; stroke-width:1; stroke:black; " description="&lt;b&gt;MCIC6FC_007477&lt;/b&gt;&lt;br&gt;hypothetical protein&lt;br&gt;Location: 686682 - 687549" locus_tag="MCIC6FC_007477" class="clusterblast-orf" id="dummy-2_q8_0_all"  />
<polygon points="173,40 181,40 186,35 181,30 173,30 173,40 " style="fill:#d015d8; stroke-width:1; stroke:black; " description="&lt;b&gt;MCIC6FC_007478&lt;/b&gt;&lt;br&gt;hypothetical protein&lt;br&gt;Location: 687621 - 688727" locus_tag="MCIC6FC_007478" class="clusterblast-orf" id="dummy-2_q9_0_all"  />
<polygon points="186,35 191,30 192,30 192,40 191,40 186,35 " style="fill:#d87b15; stroke-width:1; stroke:black; " description="&lt;b&gt;MCIC6FC_007479&lt;/b&gt;&lt;br&gt;hypothetical protein&lt;br&gt;Location: 688781 - 689242" locus_tag="MCIC6FC_007479" class="clusterblast-orf" id="dummy-2_q10_0_all"  />
<polygon points="197,35 202,30 212,30 212,40 202,40 197,35 " style="fill:#15d826; stroke-width:1; stroke:black; " description="&lt;b&gt;MCIC6FC_007480&lt;/b&gt;&lt;br&gt;hypothetical protein&lt;br&gt;Location: 689670 - 690984" locus_tag="MCIC6FC_007480" class="clusterblast-orf" id="dummy-2_q11_0_all"  />
<polygon points="215,35 220,30 225,30 225,40 220,40 215,35 " style="fill:#1559d8; stroke-width:1; stroke:black; " description="&lt;b&gt;MCIC6FC_007481&lt;/b&gt;&lt;br&gt;hypothetical protein&lt;br&gt;Location: 691289 - 692105" locus_tag="MCIC6FC_007481" class="clusterblast-orf" id="dummy-2_q12_0_all"  />
<polygon points="225,35 230,30 232,30 232,40 230,40 225,35 " style="fill:#d015d8; stroke-width:1; stroke:black; " description="&lt;b&gt;MCIC6FC_007482&lt;/b&gt;&lt;br&gt;hypothetical protein&lt;br&gt;Location: 692133 - 692766" locus_tag="MCIC6FC_007482" class="clusterblast-orf" id="dummy-2_q13_0_all"  />
<polygon points="234,40 260,40 265,35 260,30 234,30 234,40 " style="fill:#d815ae; stroke-width:1; stroke:black; " description="&lt;b&gt;MCIC6FC_007483&lt;/b&gt;&lt;br&gt;hypothetical protein&lt;br&gt;Location: 692877 - 695575" locus_tag="MCIC6FC_007483" class="clusterblast-orf" id="dummy-2_q14_0_all"  />
<polygon points="265,35 270,30 272,30 272,40 270,40 265,35 " style="fill:#d8ae15; stroke-width:1; stroke:black; " description="&lt;b&gt;MCIC6FC_007484&lt;/b&gt;&lt;br&gt;hypothetical protein&lt;br&gt;Location: 695586 - 696207" locus_tag="MCIC6FC_007484" class="clusterblast-orf" id="dummy-2_q15_0_all"  />
<polygon points="275,40 340,40 345,35 340,30 275,30 275,40 " style="fill:#15d859; stroke-width:1; stroke:black; " description="&lt;b&gt;MCIC6FC_007485&lt;/b&gt;&lt;br&gt;hypothetical protein&lt;br&gt;Location: 696508 - 702544" locus_tag="MCIC6FC_007485" class="clusterblast-orf" id="dummy-2_q16_0_all"  />
<polygon points="346,35 351,30 376,30 376,40 351,40 346,35 " style="fill:#1526d8; stroke-width:1; stroke:black; " description="&lt;b&gt;MCIC6FC_007486&lt;/b&gt;&lt;br&gt;hypothetical protein&lt;br&gt;Location: 702671 - 705211" locus_tag="MCIC6FC_007486" class="clusterblast-orf" id="dummy-2_q17_0_all"  />
<polygon points="377,35 382,30 387,30 387,40 382,40 377,35 " style="fill:#d8157b; stroke-width:1; stroke:black; " description="&lt;b&gt;MCIC6FC_007487&lt;/b&gt;&lt;br&gt;hypothetical protein&lt;br&gt;Location: 705352 - 706216" locus_tag="MCIC6FC_007487" class="clusterblast-orf" id="dummy-2_q18_0_all"  />
<polygon points="391,35 396,30 416,30 416,40 396,40 391,35 " style="fill:#d0d815; stroke-width:1; stroke:black; " description="&lt;b&gt;MCIC6FC_007488&lt;/b&gt;&lt;br&gt;hypothetical protein&lt;br&gt;Location: 706499 - 708736" locus_tag="MCIC6FC_007488" class="clusterblast-orf" id="dummy-2_q19_0_all"  />
<polygon points="418,35 423,30 457,30 457,40 423,40 418,35 " style="fill:#15d88c; stroke-width:1; stroke:black; " description="&lt;b&gt;MCIC6FC_007489&lt;/b&gt;&lt;br&gt;hypothetical protein&lt;br&gt;Location: 708846 - 712262" locus_tag="MCIC6FC_007489" class="clusterblast-orf" id="dummy-2_q20_0_all"  />
<polygon points="458,40 462,40 467,35 462,30 458,30 458,40 " style="fill:#3715d8; stroke-width:1; stroke:black; " description="&lt;b&gt;MCIC6FC_007490&lt;/b&gt;&lt;br&gt;hypothetical protein&lt;br&gt;Location: 712372 - 713153" locus_tag="MCIC6FC_007490" class="clusterblast-orf" id="dummy-2_q21_0_all"  />
<polygon points="469,40 512,40 517,35 512,30 469,30 469,40 " style="fill:#d81548; stroke-width:1; stroke:black; " description="&lt;b&gt;MCIC6FC_007491&lt;/b&gt;&lt;br&gt;hypothetical protein&lt;br&gt;Location: 713274 - 717451" locus_tag="MCIC6FC_007491" class="clusterblast-orf" id="dummy-2_q22_0_all"  />
<polygon points="517,35 522,30 534,30 534,40 522,40 517,35 " style="fill:#15bfd8; stroke-width:1; stroke:black; " description="&lt;b&gt;MCIC6FC_007492&lt;/b&gt;&lt;br&gt;hypothetical protein&lt;br&gt;Location: 717453 - 718988" locus_tag="MCIC6FC_007492" class="clusterblast-orf" id="dummy-2_q23_0_all"  />
<polygon points="536,35 541,30 566,30 566,40 541,40 536,35 " style="fill:#9dd815; stroke-width:1; stroke:black; " description="&lt;b&gt;MCIC6FC_007493&lt;/b&gt;&lt;br&gt;hypothetical protein&lt;br&gt;Location: 719128 - 721732" locus_tag="MCIC6FC_007493" class="clusterblast-orf" id="dummy-2_q24_0_all"  />
<polygon points="568,35 573,30 592,30 592,40 573,40 568,35 " style="fill:#15d8bf; stroke-width:1; stroke:black; " description="&lt;b&gt;MCIC6FC_007494&lt;/b&gt;&lt;br&gt;hypothetical protein&lt;br&gt;Location: 721903 - 723972" locus_tag="MCIC6FC_007494" class="clusterblast-orf" id="dummy-2_q25_0_all"  />
<polygon points="592,35 597,30 751,30 751,40 597,40 592,35 " style="fill:#6a15d8; stroke-width:1; stroke:black; " description="&lt;b&gt;MCIC6FC_007495&lt;/b&gt;&lt;br&gt;hypothetical protein&lt;br&gt;Location: 724015 - 737775" locus_tag="MCIC6FC_007495" class="clusterblast-orf" id="dummy-2_q26_0_all"  />
<polygon points="757,35 762,30 768,30 768,40 762,40 757,35 " style="fill:white; stroke-width:1; stroke:black; " description="&lt;b&gt;MCIC6FC_007496&lt;/b&gt;&lt;br&gt;hypothetical protein&lt;br&gt;Location: 738268 - 739222" locus_tag="MCIC6FC_007496" class="clusterblast-orf" id="dummy-2_q27_0_all"  />
<polygon points="768,35 773,30 780,30 780,40 773,40 768,35 " style="fill:white; stroke-width:1; stroke:black; " description="&lt;b&gt;MCIC6FC_007497&lt;/b&gt;&lt;br&gt;hypothetical protein&lt;br&gt;Location: 739248 - 740262" locus_tag="MCIC6FC_007497" class="clusterblast-orf" id="dummy-2_q28_0_all"  />
</g>
<g label="NZ_FNOX01000014" description="NZ_FNOX01000014 (172176-199620): Pseudomonas salomonii strain ICMP 14252, who... (77% of genes show similarity), thiopeptide" class="clusterblast-cluster"  >
<text x="5" y="70" class="clusterblast-acc"  >
<a xlink:href="https://antismash-db.secondarymetabolites.org/area.html?record=NZ_FNOX01000014&amp;start=172176&amp;end=199620" target="_blank">NZ_FNOX01000014 (172176-199620)</a>: Pseudomonas salomonii strain ICMP 14252, who... (77% of genes show similarity), thiopeptide</text>
<line x1="10" y1="85" x2="778.0" y2="85" style="stroke-width:1; stroke:grey; "  />
</g>
<g id="a2_000"  >
<polygon points="238,85 243,80 253,80 253,90 243,90 238,85 " style="fill:#d81515; stroke-width:1; stroke:black; " description="&lt;b&gt;BLV67_RS27760&lt;/b&gt;&lt;br&gt;sorbosone dehydrogenase family protein&lt;br&gt;Location: 198604 - 197312&lt;br&gt;&lt;br&gt;&lt;b&gt;BlastP hit with MCIC6FC_007471&lt;/b&gt;&lt;br&gt;Percentage identity: 94&lt;br&gt;Percentage coverage: 62&lt;br&gt;BLAST bit score: 816&lt;br&gt;E-value: 2.9e-234" locus_tag="BLV67_RS27760" class="clusterblast-orf" id="dummy-2_h2_8_0"  />
</g>
<g id="a2_001"  >
<polygon points="253,85 257,80 257,90 253,85 " style="fill:#d81515; stroke-width:1; stroke:black; " description="&lt;b&gt;BLV67_RS27755&lt;/b&gt;&lt;br&gt;hypothetical protein&lt;br&gt;Location: 197315 - 196890&lt;br&gt;&lt;br&gt;&lt;b&gt;BlastP hit with MCIC6FC_007471&lt;/b&gt;&lt;br&gt;Percentage identity: 91&lt;br&gt;Percentage coverage: 19&lt;br&gt;BLAST bit score: 224&lt;br&gt;E-value: 3.8e-56" locus_tag="BLV67_RS27755" class="clusterblast-orf" id="dummy-2_h2_8_1"  />
</g>
<g id="a2_002"  >
<polygon points="259,85 260,80 260,90 259,85 " style="fill:white; stroke-width:1; stroke:black; " description="&lt;b&gt;BLV67_RS27750&lt;/b&gt;&lt;br&gt;GNAT family N-acetyltransferase&lt;br&gt;Location: 196763 - 196632" locus_tag="BLV67_RS27750" class="clusterblast-orf" id="dummy-2_h2_8_2"  />
</g>
<g id="a2_003"  >
<polygon points="261,90 261,90 266,85 261,80 261,80 261,90 " style="fill:#6ad815; stroke-width:1; stroke:black; " description="&lt;b&gt;BLV67_RS27745&lt;/b&gt;&lt;br&gt;ATP-binding protein&lt;br&gt;Location: 196582 - 196103&lt;br&gt;&lt;br&gt;&lt;b&gt;BlastP hit with MCIC6FC_007472&lt;/b&gt;&lt;br&gt;Percentage identity: 82&lt;br&gt;Percentage coverage: 21&lt;br&gt;BLAST bit score: 265&lt;br&gt;E-value: 1.6e-68" locus_tag="BLV67_RS27745" class="clusterblast-orf" id="dummy-2_h2_8_3"  />
</g>
<g id="a2_004"  >
<polygon points="266,90 270,90 275,85 270,80 266,80 266,90 " style="fill:#6ad815; stroke-width:1; stroke:black; " description="&lt;b&gt;BLV67_RS27740&lt;/b&gt;&lt;br&gt;DNA polymerase III subunit beta&lt;br&gt;Location: 196106 - 195345&lt;br&gt;&lt;br&gt;&lt;b&gt;BlastP hit with MCIC6FC_007472&lt;/b&gt;&lt;br&gt;Percentage identity: 71&lt;br&gt;Percentage coverage: 34&lt;br&gt;BLAST bit score: 361&lt;br&gt;E-value: 1.7e-97" locus_tag="BLV67_RS27740" class="clusterblast-orf" id="dummy-2_h2_8_4"  />
</g>
<g id="a2_005"  >
<polygon points="276,85 281,80 298,80 298,90 281,90 276,85 " style="fill:#15bfd8; stroke-width:1; stroke:black; " description="&lt;b&gt;BLV67_RS27735&lt;/b&gt;&lt;br&gt;methyl-accepting chemotaxis protein&lt;br&gt;Location: 195286 - 193346&lt;br&gt;&lt;br&gt;&lt;b&gt;BlastP hit with MCIC6FC_007473&lt;/b&gt;&lt;br&gt;Percentage identity: 97&lt;br&gt;Percentage coverage: 81&lt;br&gt;BLAST bit score: 1171&lt;br&gt;E-value: 0.0&lt;br&gt;&lt;br&gt;&lt;b&gt;BlastP hit with MCIC6FC_007492&lt;/b&gt;&lt;br&gt;Percentage identity: 37&lt;br&gt;Percentage coverage: 31&lt;br&gt;BLAST bit score: 78&lt;br&gt;E-value: 2.5e-12" locus_tag="BLV67_RS27735" class="clusterblast-orf" id="dummy-2_h2_8_5"  />
</g>
<g id="a2_006"  >
<polygon points="301,90 303,85 301,80 301,90 " style="fill:#37d815; stroke-width:1; stroke:black; " description="&lt;b&gt;BLV67_RS27730&lt;/b&gt;&lt;br&gt;hypothetical protein&lt;br&gt;Location: 193130 - 192899&lt;br&gt;&lt;br&gt;&lt;b&gt;BlastP hit with MCIC6FC_007476&lt;/b&gt;&lt;br&gt;Percentage identity: 78&lt;br&gt;Percentage coverage: 13&lt;br&gt;BLAST bit score: 58&lt;br&gt;E-value: 1.2e-06" locus_tag="BLV67_RS27730" class="clusterblast-orf" id="dummy-2_h2_8_6"  />
</g>
<g id="a2_007"  >
<polygon points="304,90 304,90 309,85 304,80 304,80 304,90 " style="fill:#37d815; stroke-width:1; stroke:black; " description="&lt;b&gt;BLV67_RS27725&lt;/b&gt;&lt;br&gt;VOC family protein&lt;br&gt;Location: 192830 - 192399&lt;br&gt;&lt;br&gt;&lt;b&gt;BlastP hit with MCIC6FC_007476&lt;/b&gt;&lt;br&gt;Percentage identity: 83&lt;br&gt;Percentage coverage: 49&lt;br&gt;BLAST bit score: 235&lt;br&gt;E-value: 6.9e-60" locus_tag="BLV67_RS27725" class="clusterblast-orf" id="dummy-2_h2_8_7"  />
</g>
<g id="a2_008"  >
<polygon points="309,90 309,90 314,85 309,80 309,80 309,90 " style="fill:#d015d8; stroke-width:1; stroke:black; " description="&lt;b&gt;BLV67_RS27720&lt;/b&gt;&lt;br&gt;NUDIX domain-containing protein&lt;br&gt;Location: 192406 - 191957&lt;br&gt;&lt;br&gt;&lt;b&gt;BlastP hit with MCIC6FC_007478&lt;/b&gt;&lt;br&gt;Percentage identity: 77&lt;br&gt;Percentage coverage: 41&lt;br&gt;BLAST bit score: 234&lt;br&gt;E-value: 1.5e-59" locus_tag="BLV67_RS27720" class="clusterblast-orf" id="dummy-2_h2_8_8"  />
</g>
<g id="a2_009"  >
<polygon points="314,85 319,80 321,80 321,90 319,90 314,85 " style="fill:#d87b15; stroke-width:1; stroke:black; " description="&lt;b&gt;BLV67_RS27715&lt;/b&gt;&lt;br&gt;cysteine hydrolase&lt;br&gt;Location: 191960 - 191400&lt;br&gt;&lt;br&gt;&lt;b&gt;BlastP hit with MCIC6FC_007479&lt;/b&gt;&lt;br&gt;Percentage identity: 83&lt;br&gt;Percentage coverage: 99&lt;br&gt;BLAST bit score: 213&lt;br&gt;E-value: 9.3e-54" locus_tag="BLV67_RS27715" class="clusterblast-orf" id="dummy-2_h2_8_9"  />
</g>
<g id="a2_0010"  >
<polygon points="324,85 329,80 331,80 331,90 329,90 324,85 " style="fill:#d015d8; stroke-width:1; stroke:black; " description="&lt;b&gt;BLV67_RS27710&lt;/b&gt;&lt;br&gt;TetR/AcrR family transcriptional regulator&lt;br&gt;Location: 191133 - 190501&lt;br&gt;&lt;br&gt;&lt;b&gt;BlastP hit with MCIC6FC_007478&lt;/b&gt;&lt;br&gt;Percentage identity: 54&lt;br&gt;Percentage coverage: 17&lt;br&gt;BLAST bit score: 62&lt;br&gt;E-value: 7.7e-08&lt;br&gt;&lt;br&gt;&lt;b&gt;BlastP hit with MCIC6FC_007482&lt;/b&gt;&lt;br&gt;Percentage identity: 88&lt;br&gt;Percentage coverage: 100&lt;br&gt;BLAST bit score: 342&lt;br&gt;E-value: 3e-92" locus_tag="BLV67_RS27710" class="clusterblast-orf" id="dummy-2_h2_8_10"  />
</g>
<g id="a2_0011"  >
<polygon points="332,90 335,90 340,85 335,80 332,80 332,90 " style="fill:#d815ae; stroke-width:1; stroke:black; " description="&lt;b&gt;BLV67_RS27705&lt;/b&gt;&lt;br&gt;methyltransferase&lt;br&gt;Location: 190380 - 189724&lt;br&gt;&lt;br&gt;&lt;b&gt;BlastP hit with MCIC6FC_007483&lt;/b&gt;&lt;br&gt;Percentage identity: 88&lt;br&gt;Percentage coverage: 24&lt;br&gt;BLAST bit score: 358&lt;br&gt;E-value: 2.1e-96" locus_tag="BLV67_RS27705" class="clusterblast-orf" id="dummy-2_h2_8_11"  />
</g>
<g id="a2_0012"  >
<polygon points="341,90 362,90 367,85 362,80 341,80 341,90 " style="fill:#15d859; stroke-width:1; stroke:black; " description="&lt;b&gt;BLV67_RS27700&lt;/b&gt;&lt;br&gt;OsmC domain/YcaO domain-containing protein&lt;br&gt;Location: 189620 - 187422&lt;br&gt;&lt;br&gt;&lt;b&gt;BlastP hit with MCIC6FC_007485&lt;/b&gt;&lt;br&gt;Percentage identity: 94&lt;br&gt;Percentage coverage: 38&lt;br&gt;BLAST bit score: 1414&lt;br&gt;E-value: 0.0" locus_tag="BLV67_RS27700" class="clusterblast-orf" id="dummy-2_h2_8_12"  />
</g>
<g id="a2_0013"  >
<polygon points="371,85 376,80 384,80 384,90 376,90 371,85 " style="fill:#1526d8; stroke-width:1; stroke:black; " description="&lt;b&gt;BLV67_RS27695&lt;/b&gt;&lt;br&gt;cystathionine gamma-synthase&lt;br&gt;Location: 187073 - 185907&lt;br&gt;&lt;br&gt;&lt;b&gt;BlastP hit with MCIC6FC_007486&lt;/b&gt;&lt;br&gt;Percentage identity: 98&lt;br&gt;Percentage coverage: 46&lt;br&gt;BLAST bit score: 757&lt;br&gt;E-value: 1.5e-216" locus_tag="BLV67_RS27695" class="clusterblast-orf" id="dummy-2_h2_8_13"  />
</g>
<g id="a2_0014"  >
<polygon points="384,85 389,80 400,80 400,90 389,90 384,85 " style="fill:#1526d8; stroke-width:1; stroke:black; " description="&lt;b&gt;BLV67_RS27690&lt;/b&gt;&lt;br&gt;pyridoxal-phosphate dependent enzyme&lt;br&gt;Location: 185910 - 184534&lt;br&gt;&lt;br&gt;&lt;b&gt;BlastP hit with MCIC6FC_007486&lt;/b&gt;&lt;br&gt;Percentage identity: 93&lt;br&gt;Percentage coverage: 54&lt;br&gt;BLAST bit score: 843&lt;br&gt;E-value: 2.1e-242" locus_tag="BLV67_RS27690" class="clusterblast-orf" id="dummy-2_h2_8_14"  />
</g>
<g id="a2_0015"  >
<polygon points="401,85 406,80 411,80 411,90 406,90 401,85 " style="fill:#d8157b; stroke-width:1; stroke:black; " description="&lt;b&gt;BLV67_RS27685&lt;/b&gt;&lt;br&gt;4-hydroxy-tetrahydrodipicolinate synthase&lt;br&gt;Location: 184394 - 183543&lt;br&gt;&lt;br&gt;&lt;b&gt;BlastP hit with MCIC6FC_007487&lt;/b&gt;&lt;br&gt;Percentage identity: 88&lt;br&gt;Percentage coverage: 99&lt;br&gt;BLAST bit score: 476&lt;br&gt;E-value: 2.3e-132" locus_tag="BLV67_RS27685" class="clusterblast-orf" id="dummy-2_h2_8_15"  />
</g>
<g id="a2_0016"  >
<polygon points="416,85 421,80 422,80 422,90 421,90 416,85 " style="fill:#d0d815; stroke-width:1; stroke:black; " description="&lt;b&gt;BLV67_RS27680&lt;/b&gt;&lt;br&gt;VOC family protein&lt;br&gt;Location: 183108 - 182629&lt;br&gt;&lt;br&gt;&lt;b&gt;BlastP hit with MCIC6FC_007488&lt;/b&gt;&lt;br&gt;Percentage identity: 88&lt;br&gt;Percentage coverage: 22&lt;br&gt;BLAST bit score: 294&lt;br&gt;E-value: 2.3e-77" locus_tag="BLV67_RS27680" class="clusterblast-orf" id="dummy-2_h2_8_16"  />
</g>
<g id="a2_0017"  >
<polygon points="422,85 427,80 427,80 427,90 427,90 422,85 " style="fill:#15d88c; stroke-width:1; stroke:black; " description="&lt;b&gt;BLV67_RS27675&lt;/b&gt;&lt;br&gt;SnoaL-like domain-containing protein&lt;br&gt;Location: 182578 - 182177&lt;br&gt;&lt;br&gt;&lt;b&gt;BlastP hit with MCIC6FC_007489&lt;/b&gt;&lt;br&gt;Percentage identity: 86&lt;br&gt;Percentage coverage: 11&lt;br&gt;BLAST bit score: 218&lt;br&gt;E-value: 3.3e-54" locus_tag="BLV67_RS27675" class="clusterblast-orf" id="dummy-2_h2_8_17"  />
</g>
<g id="a2_0018"  >
<polygon points="428,85 433,80 435,80 435,90 433,90 428,85 " style="fill:#15d88c; stroke-width:1; stroke:black; " description="&lt;b&gt;BLV67_RS27670&lt;/b&gt;&lt;br&gt;LysE family translocator&lt;br&gt;Location: 182122 - 181502&lt;br&gt;&lt;br&gt;&lt;b&gt;BlastP hit with MCIC6FC_007489&lt;/b&gt;&lt;br&gt;Percentage identity: 88&lt;br&gt;Percentage coverage: 19&lt;br&gt;BLAST bit score: 331&lt;br&gt;E-value: 3.5e-88" locus_tag="BLV67_RS27670" class="clusterblast-orf" id="dummy-2_h2_8_18"  />
</g>
<g id="a2_0019"  >
<polygon points="437,90 445,90 450,85 445,80 437,80 437,90 " style="fill:white; stroke-width:1; stroke:black; " description="&lt;b&gt;BLV67_RS27665&lt;/b&gt;&lt;br&gt;methyltransferase domain-containing protein&lt;br&gt;Location: 181312 - 180137" locus_tag="BLV67_RS27665" class="clusterblast-orf" id="dummy-2_h2_8_19"  />
</g>
<g id="a2_0020"  >
<polygon points="451,90 454,85 451,80 451,90 " style="fill:white; stroke-width:1; stroke:black; " description="&lt;b&gt;BLV67_RS27660&lt;/b&gt;&lt;br&gt;hypothetical protein&lt;br&gt;Location: 180089 - 179832" locus_tag="BLV67_RS27660" class="clusterblast-orf" id="dummy-2_h2_8_20"  />
</g>
<g id="a2_0021"  >
<polygon points="454,90 461,90 466,85 461,80 454,80 454,90 " style="fill:white; stroke-width:1; stroke:black; " description="&lt;b&gt;BLV67_RS27655&lt;/b&gt;&lt;br&gt;GNAT family N-acetyltransferase&lt;br&gt;Location: 179817 - 178750" locus_tag="BLV67_RS27655" class="clusterblast-orf" id="dummy-2_h2_8_21"  />
</g>
<g id="a2_0022"  >
<polygon points="468,90 469,90 474,85 469,80 468,80 468,90 " style="fill:#d81548; stroke-width:1; stroke:black; " description="&lt;b&gt;BLV67_RS27650&lt;/b&gt;&lt;br&gt;DUF2867 domain-containing protein&lt;br&gt;Location: 178589 - 178098&lt;br&gt;&lt;br&gt;&lt;b&gt;BlastP hit with MCIC6FC_007491&lt;/b&gt;&lt;br&gt;Percentage identity: 69&lt;br&gt;Percentage coverage: 15&lt;br&gt;BLAST bit score: 220&lt;br&gt;E-value: 1.1e-54" locus_tag="BLV67_RS27650" class="clusterblast-orf" id="dummy-2_h2_8_22"  />
</g>
<g id="a2_0023"  >
<polygon points="478,85 483,80 490,80 490,90 483,90 478,85 " style="fill:white; stroke-width:1; stroke:black; " description="&lt;b&gt;BLV67_RS27645&lt;/b&gt;&lt;br&gt;DUF2971 domain-containing protein&lt;br&gt;Location: 177781 - 176675" locus_tag="BLV67_RS27645" class="clusterblast-orf" id="dummy-2_h2_8_23"  />
</g>
<g id="a2_0024"  >
<polygon points="491,85 494,80 494,90 491,85 " style="fill:white; stroke-width:1; stroke:black; " description="&lt;b&gt;BLV67_RS27640&lt;/b&gt;&lt;br&gt;hypothetical protein&lt;br&gt;Location: 176596 - 176327" locus_tag="BLV67_RS27640" class="clusterblast-orf" id="dummy-2_h2_8_24"  />
</g>
<g id="a2_0025"  >
<polygon points="497,85 502,80 514,80 514,90 502,90 497,85 " style="fill:#15bfd8; stroke-width:1; stroke:black; " description="&lt;b&gt;BLV67_RS27635&lt;/b&gt;&lt;br&gt;methyl-accepting chemotaxis protein&lt;br&gt;Location: 176090 - 174597&lt;br&gt;&lt;br&gt;&lt;b&gt;BlastP hit with MCIC6FC_007473&lt;/b&gt;&lt;br&gt;Percentage identity: 40&lt;br&gt;Percentage coverage: 19&lt;br&gt;BLAST bit score: 82&lt;br&gt;E-value: 2.1e-13&lt;br&gt;&lt;br&gt;&lt;b&gt;BlastP hit with MCIC6FC_007492&lt;/b&gt;&lt;br&gt;Percentage identity: 92&lt;br&gt;Percentage coverage: 98&lt;br&gt;BLAST bit score: 719&lt;br&gt;E-value: 2.1e-205" locus_tag="BLV67_RS27635" class="clusterblast-orf" id="dummy-2_h2_8_25"  />
</g>
<g id="a2_0026"  >
<polygon points="516,85 521,80 541,80 541,90 521,90 516,85 " style="fill:#9dd815; stroke-width:1; stroke:black; " description="&lt;b&gt;BLV67_RS27630&lt;/b&gt;&lt;br&gt;TonB-dependent siderophore receptor&lt;br&gt;Location: 174411 - 172249&lt;br&gt;&lt;br&gt;&lt;b&gt;BlastP hit with MCIC6FC_007493&lt;/b&gt;&lt;br&gt;Percentage identity: 87&lt;br&gt;Percentage coverage: 95&lt;br&gt;BLAST bit score: 1295&lt;br&gt;E-value: 0.0" locus_tag="BLV67_RS27630" class="clusterblast-orf" id="dummy-2_h2_8_26"  />
</g>
</svg>
