<svg xmlns="http://www.w3.org/2000/svg" xmlns:xlink="http://www.w3.org/1999/xlink" version="1.1" x="0" y="0" height="230" width="800" viewBox="0 0 800 230" preserveAspectRatio="none"  >
<g label="Query sequence" class="clusterblast-cluster"  >
<text x="5" y="20" class="clusterblast-acc"  >
Query sequence</text>
<line x1="10" y1="35" x2="778.0" y2="35" style="stroke-width:1; stroke:grey; "  />
<polygon points="121,40 366,40 371,35 366,30 121,30 121,40 " style="fill:#d81515; stroke-width:1; stroke:black; " description="&lt;b&gt;MCIC6FC_020661&lt;/b&gt;&lt;br&gt;hypothetical protein&lt;br&gt;Location: 29 - 16470" locus_tag="MCIC6FC_020661" class="clusterblast-orf" id="dummy-1_q0_0_all"  />
<polygon points="372,35 377,30 423,30 423,40 377,40 372,35 " style="fill:#5cd815; stroke-width:1; stroke:black; " description="&lt;b&gt;MCIC6FC_020662&lt;/b&gt;&lt;br&gt;hypothetical protein&lt;br&gt;Location: 16511 - 19820" locus_tag="MCIC6FC_020662" class="clusterblast-orf" id="dummy-1_q1_0_all"  />
<polygon points="425,40 451,40 456,35 451,30 425,30 425,40 " style="fill:#15a3d8; stroke-width:1; stroke:black; " description="&lt;b&gt;MCIC6FC_020663&lt;/b&gt;&lt;br&gt;hypothetical protein&lt;br&gt;Location: 19984 - 21984" locus_tag="MCIC6FC_020663" class="clusterblast-orf" id="dummy-1_q2_0_all"  />
<polygon points="458,40 488,40 493,35 488,30 458,30 458,40 " style="fill:#c715d8; stroke-width:1; stroke:black; " description="&lt;b&gt;MCIC6FC_020664&lt;/b&gt;&lt;br&gt;hypothetical protein&lt;br&gt;Location: 22108 - 24458" locus_tag="MCIC6FC_020664" class="clusterblast-orf" id="dummy-1_q3_0_all"  />
<polygon points="494,40 498,35 494,30 494,40 " style="fill:#d88015; stroke-width:1; stroke:black; " description="&lt;b&gt;MCIC6FC_020665&lt;/b&gt;&lt;br&gt;hypothetical protein&lt;br&gt;Location: 24527 - 24765" locus_tag="MCIC6FC_020665" class="clusterblast-orf" id="dummy-1_q4_0_all"  />
<polygon points="499,35 504,30 536,30 536,40 504,40 499,35 " style="fill:#15d839; stroke-width:1; stroke:black; " description="&lt;b&gt;MCIC6FC_020666&lt;/b&gt;&lt;br&gt;hypothetical protein&lt;br&gt;Location: 24844 - 27235" locus_tag="MCIC6FC_020666" class="clusterblast-orf" id="dummy-1_q5_0_all"  />
<polygon points="539,35 544,30 558,30 558,40 544,40 539,35 " style="fill:#1539d8; stroke-width:1; stroke:black; " description="&lt;b&gt;MCIC6FC_020667&lt;/b&gt;&lt;br&gt;hypothetical protein&lt;br&gt;Location: 27428 - 28718" locus_tag="MCIC6FC_020667" class="clusterblast-orf" id="dummy-1_q6_0_all"  />
<polygon points="561,35 566,30 571,30 571,40 566,40 561,35 " style="fill:#d81580; stroke-width:1; stroke:black; " description="&lt;b&gt;MCIC6FC_020668&lt;/b&gt;&lt;br&gt;hypothetical protein&lt;br&gt;Location: 28904 - 29540" locus_tag="MCIC6FC_020668" class="clusterblast-orf" id="dummy-1_q7_0_all"  />
<polygon points="572,35 577,30 603,30 603,40 577,40 572,35 " style="fill:#c7d815; stroke-width:1; stroke:black; " description="&lt;b&gt;MCIC6FC_020669&lt;/b&gt;&lt;br&gt;hypothetical protein&lt;br&gt;Location: 29635 - 31644" locus_tag="MCIC6FC_020669" class="clusterblast-orf" id="dummy-1_q8_0_all"  />
<polygon points="605,40 632,40 637,35 632,30 605,30 605,40 " style="fill:#15d8a3; stroke-width:1; stroke:black; " description="&lt;b&gt;MCIC6FC_020670&lt;/b&gt;&lt;br&gt;hypothetical protein&lt;br&gt;Location: 31763 - 33859" locus_tag="MCIC6FC_020670" class="clusterblast-orf" id="dummy-1_q9_0_all"  />
<polygon points="647,35 652,30 659,30 659,40 652,40 647,35 " style="fill:#5c15d8; stroke-width:1; stroke:black; " description="&lt;b&gt;MCIC6FC_020671&lt;/b&gt;&lt;br&gt;hypothetical protein&lt;br&gt;Location: 34504 - 35290" locus_tag="MCIC6FC_020671" class="clusterblast-orf" id="dummy-1_q10_0_all"  />
</g>
<g label="NZ_CABVGW010000012" description="NZ_CABVGW010000012 (129721-182603): Pseudomonas fluorescens isolate PS682, wh... (47% of genes show similarity), NRPS" class="clusterblast-cluster"  >
<text x="5" y="70" class="clusterblast-acc"  >
<a xlink:href="https://antismash-db.secondarymetabolites.org/area.html?record=NZ_CABVGW010000012&amp;start=129721&amp;end=182603" target="_blank">NZ_CABVGW010000012 (129721-182603)</a>: Pseudomonas fluorescens isolate PS682, wh... (47% of genes show similarity), NRPS</text>
<line x1="10" y1="85" x2="778.0" y2="85" style="stroke-width:1; stroke:grey; "  />
</g>
<g id="a1_000"  >
<polygon points="0,90 0,90 5,85 0,80 0,80 0,90 " style="fill:white; stroke-width:1; stroke:black; " description="&lt;b&gt;F8N22_RS19870&lt;/b&gt;&lt;br&gt;DUF2802 domain-containing protein&lt;br&gt;Location: 182187 - 181795" locus_tag="F8N22_RS19870" class="clusterblast-orf" id="dummy-1_h1_4_0"  />
</g>
<g id="a1_001"  >
<polygon points="17,90 26,90 31,85 26,80 17,80 17,90 " style="fill:white; stroke-width:1; stroke:black; " description="&lt;b&gt;F8N22_RS19865&lt;/b&gt;&lt;br&gt;lipid kinase YegS&lt;br&gt;Location: 181034 - 180114" locus_tag="F8N22_RS19865" class="clusterblast-orf" id="dummy-1_h1_4_1"  />
</g>
<g id="a1_002"  >
<polygon points="31,85 36,80 41,80 41,90 36,90 31,85 " style="fill:white; stroke-width:1; stroke:black; " description="&lt;b&gt;F8N22_RS19860&lt;/b&gt;&lt;br&gt;response regulator transcription factor&lt;br&gt;Location: 180155 - 179496" locus_tag="F8N22_RS19860" class="clusterblast-orf" id="dummy-1_h1_4_2"  />
</g>
<g id="a1_003"  >
<polygon points="41,85 46,80 54,80 54,90 46,90 41,85 " style="fill:white; stroke-width:1; stroke:black; " description="&lt;b&gt;F8N22_RS19855&lt;/b&gt;&lt;br&gt;sensor histidine kinase&lt;br&gt;Location: 179499 - 178606" locus_tag="F8N22_RS19855" class="clusterblast-orf" id="dummy-1_h1_4_3"  />
</g>
<g id="a1_004"  >
<polygon points="60,85 65,80 67,80 67,90 65,90 60,85 " style="fill:white; stroke-width:1; stroke:black; " description="&lt;b&gt;F8N22_RS19850&lt;/b&gt;&lt;br&gt;hypothetical protein&lt;br&gt;Location: 178235 - 177789" locus_tag="F8N22_RS19850" class="clusterblast-orf" id="dummy-1_h1_4_4"  />
</g>
<g id="a1_005"  >
<polygon points="75,90 84,90 89,85 84,80 75,80 75,90 " style="fill:white; stroke-width:1; stroke:black; " description="&lt;b&gt;F8N22_RS19845&lt;/b&gt;&lt;br&gt;chemotaxis protein CheV&lt;br&gt;Location: 177245 - 176310" locus_tag="F8N22_RS19845" class="clusterblast-orf" id="dummy-1_h1_4_5"  />
</g>
<g id="a1_006"  >
<polygon points="90,90 97,90 102,85 97,80 90,80 90,90 " style="fill:white; stroke-width:1; stroke:black; " description="&lt;b&gt;F8N22_RS19840&lt;/b&gt;&lt;br&gt;MOSC domain-containing protein&lt;br&gt;Location: 176270 - 175464" locus_tag="F8N22_RS19840" class="clusterblast-orf" id="dummy-1_h1_4_6"  />
</g>
<g id="a1_007"  >
<polygon points="103,85 107,80 107,90 103,85 " style="fill:white; stroke-width:1; stroke:black; " description="&lt;b&gt;F8N22_RS19835&lt;/b&gt;&lt;br&gt;pyrimidine/purine nucleoside phosphorylase&lt;br&gt;Location: 175397 - 175113" locus_tag="F8N22_RS19835" class="clusterblast-orf" id="dummy-1_h1_4_7"  />
</g>
<g id="a1_008"  >
<polygon points="109,85 114,80 118,80 118,90 114,90 109,85 " style="fill:white; stroke-width:1; stroke:black; " description="&lt;b&gt;F8N22_RS19830&lt;/b&gt;&lt;br&gt;exonuclease&lt;br&gt;Location: 174981 - 174439" locus_tag="F8N22_RS19830" class="clusterblast-orf" id="dummy-1_h1_4_8"  />
</g>
<g id="a1_009"  >
<polygon points="119,85 124,80 148,80 148,90 124,90 119,85 " style="fill:white; stroke-width:1; stroke:black; " description="&lt;b&gt;F8N22_RS19825&lt;/b&gt;&lt;br&gt;acetyl/propionyl/methylcrotonyl-CoA carboxylase subunit alpha&lt;br&gt;Location: 174366 - 172483" locus_tag="F8N22_RS19825" class="clusterblast-orf" id="dummy-1_h1_4_9"  />
</g>
<g id="a1_0010"  >
<polygon points="150,85 155,80 162,80 162,90 155,90 150,85 " style="fill:white; stroke-width:1; stroke:black; " description="&lt;b&gt;F8N22_RS19820&lt;/b&gt;&lt;br&gt;hypothetical protein&lt;br&gt;Location: 172298 - 171537" locus_tag="F8N22_RS19820" class="clusterblast-orf" id="dummy-1_h1_4_10"  />
</g>
<g id="a1_0011"  >
<polygon points="162,85 167,80 180,80 180,90 167,90 162,85 " style="fill:white; stroke-width:1; stroke:black; " description="&lt;b&gt;F8N22_RS19815&lt;/b&gt;&lt;br&gt;acyl-CoA dehydrogenase&lt;br&gt;Location: 171540 - 170383" locus_tag="F8N22_RS19815" class="clusterblast-orf" id="dummy-1_h1_4_11"  />
</g>
<g id="a1_0012"  >
<polygon points="180,85 185,80 205,80 205,90 185,90 180,85 " style="fill:white; stroke-width:1; stroke:black; " description="&lt;b&gt;F8N22_RS19810&lt;/b&gt;&lt;br&gt;acyl-CoA carboxylase subunit beta&lt;br&gt;Location: 170366 - 168750" locus_tag="F8N22_RS19810" class="clusterblast-orf" id="dummy-1_h1_4_12"  />
</g>
<g id="a1_0013"  >
<polygon points="205,85 210,80 218,80 218,90 210,90 205,85 " style="fill:white; stroke-width:1; stroke:black; " description="&lt;b&gt;F8N22_RS19805&lt;/b&gt;&lt;br&gt;SDR family oxidoreductase&lt;br&gt;Location: 168746 - 167874" locus_tag="F8N22_RS19805" class="clusterblast-orf" id="dummy-1_h1_4_13"  />
</g>
<g id="a1_0014"  >
<polygon points="218,85 223,80 245,80 245,90 223,90 218,85 " style="fill:white; stroke-width:1; stroke:black; " description="&lt;b&gt;F8N22_RS19800&lt;/b&gt;&lt;br&gt;DUF1446 domain-containing protein&lt;br&gt;Location: 167860 - 166082" locus_tag="F8N22_RS19800" class="clusterblast-orf" id="dummy-1_h1_4_14"  />
</g>
<g id="a1_0015"  >
<polygon points="248,90 252,90 257,85 252,80 248,80 248,90 " style="fill:white; stroke-width:1; stroke:black; " description="&lt;b&gt;F8N22_RS19795&lt;/b&gt;&lt;br&gt;TetR/AcrR family transcriptional regulator&lt;br&gt;Location: 165928 - 165305" locus_tag="F8N22_RS19795" class="clusterblast-orf" id="dummy-1_h1_4_15"  />
</g>
<g id="a1_0016"  >
<polygon points="259,90 266,90 271,85 266,80 259,80 259,90 " style="fill:white; stroke-width:1; stroke:black; " description="&lt;b&gt;F8N22_RS19790&lt;/b&gt;&lt;br&gt;transporter substrate-binding domain-containing protein&lt;br&gt;Location: 165210 - 164422" locus_tag="F8N22_RS19790" class="clusterblast-orf" id="dummy-1_h1_4_16"  />
</g>
<g id="a1_0017"  >
<polygon points="273,85 278,80 281,80 281,90 278,90 273,85 " style="fill:white; stroke-width:1; stroke:black; " description="&lt;b&gt;F8N22_RS19785&lt;/b&gt;&lt;br&gt;RNA polymerase factor sigma-70&lt;br&gt;Location: 164261 - 163710" locus_tag="F8N22_RS19785" class="clusterblast-orf" id="dummy-1_h1_4_17"  />
</g>
<g id="a1_0018"  >
<polygon points="286,90 293,90 298,85 293,80 286,80 286,90 " style="fill:white; stroke-width:1; stroke:black; " description="&lt;b&gt;F8N22_RS19780&lt;/b&gt;&lt;br&gt;thioesterase&lt;br&gt;Location: 163407 - 162655" locus_tag="F8N22_RS19780" class="clusterblast-orf" id="dummy-1_h1_4_18"  />
</g>
<g id="a1_0019"  >
<polygon points="298,90 490,90 495,85 490,80 298,80 298,90 " style="fill:#d81515; stroke-width:1; stroke:black; " description="&lt;b&gt;F8N22_RS19775&lt;/b&gt;&lt;br&gt;amino acid adenylation domain-containing protein&lt;br&gt;Location: 162603 - 149722&lt;br&gt;&lt;br&gt;&lt;b&gt;BlastP hit with MCIC6FC_020661&lt;/b&gt;&lt;br&gt;Percentage identity: 97&lt;br&gt;Percentage coverage: 63&lt;br&gt;BLAST bit score: 6371&lt;br&gt;E-value: 0.0" locus_tag="F8N22_RS19775" class="clusterblast-orf" id="dummy-1_h1_4_19"  />
</g>
<g id="a1_0020"  >
<polygon points="497,85 502,80 509,80 509,90 502,90 497,85 " style="fill:#5cd815; stroke-width:1; stroke:black; " description="&lt;b&gt;F8N22_RS19770&lt;/b&gt;&lt;br&gt;thiol:disulfide interchange protein DsbG&lt;br&gt;Location: 149586 - 148825&lt;br&gt;&lt;br&gt;&lt;b&gt;BlastP hit with MCIC6FC_020662&lt;/b&gt;&lt;br&gt;Percentage identity: 85&lt;br&gt;Percentage coverage: 25&lt;br&gt;BLAST bit score: 418&lt;br&gt;E-value: 1.6e-114" locus_tag="F8N22_RS19770" class="clusterblast-orf" id="dummy-1_h1_4_20"  />
</g>
<g id="a1_0021"  >
<polygon points="508,85 513,80 521,80 521,90 513,90 508,85 " style="fill:#5cd815; stroke-width:1; stroke:black; " description="&lt;b&gt;F8N22_RS19765&lt;/b&gt;&lt;br&gt;TlpA family protein disulfide reductase&lt;br&gt;Location: 148849 - 148004&lt;br&gt;&lt;br&gt;&lt;b&gt;BlastP hit with MCIC6FC_020662&lt;/b&gt;&lt;br&gt;Percentage identity: 98&lt;br&gt;Percentage coverage: 23&lt;br&gt;BLAST bit score: 459&lt;br&gt;E-value: 8.1e-127" locus_tag="F8N22_RS19765" class="clusterblast-orf" id="dummy-1_h1_4_21"  />
</g>
<g id="a1_0022"  >
<polygon points="521,85 526,80 547,80 547,90 526,90 521,85 " style="fill:#5cd815; stroke-width:1; stroke:black; " description="&lt;b&gt;F8N22_RS19760&lt;/b&gt;&lt;br&gt;protein-disulfide reductase DsbD&lt;br&gt;Location: 148004 - 146280&lt;br&gt;&lt;br&gt;&lt;b&gt;BlastP hit with MCIC6FC_020662&lt;/b&gt;&lt;br&gt;Percentage identity: 98&lt;br&gt;Percentage coverage: 53&lt;br&gt;BLAST bit score: 1022&lt;br&gt;E-value: 3.1e-296" locus_tag="F8N22_RS19760" class="clusterblast-orf" id="dummy-1_h1_4_22"  />
</g>
<g id="a1_0023"  >
<polygon points="550,90 555,90 560,85 555,80 550,80 550,90 " style="fill:#15a3d8; stroke-width:1; stroke:black; " description="&lt;b&gt;F8N22_RS19755&lt;/b&gt;&lt;br&gt;response regulator&lt;br&gt;Location: 146115 - 145435&lt;br&gt;&lt;br&gt;&lt;b&gt;BlastP hit with MCIC6FC_020663&lt;/b&gt;&lt;br&gt;Percentage identity: 93&lt;br&gt;Percentage coverage: 34&lt;br&gt;BLAST bit score: 378&lt;br&gt;E-value: 1.5e-102" locus_tag="F8N22_RS19755" class="clusterblast-orf" id="dummy-1_h1_4_23"  />
</g>
<g id="a1_0024"  >
<polygon points="560,90 575,90 580,85 575,80 560,80 560,90 " style="fill:#15a3d8; stroke-width:1; stroke:black; " description="&lt;b&gt;F8N22_RS19750&lt;/b&gt;&lt;br&gt;two-component sensor histidine kinase&lt;br&gt;Location: 145438 - 144116&lt;br&gt;&lt;br&gt;&lt;b&gt;BlastP hit with MCIC6FC_020663&lt;/b&gt;&lt;br&gt;Percentage identity: 96&lt;br&gt;Percentage coverage: 69&lt;br&gt;BLAST bit score: 804&lt;br&gt;E-value: 8.3e-231" locus_tag="F8N22_RS19750" class="clusterblast-orf" id="dummy-1_h1_4_24"  />
</g>
<g id="a1_0025"  >
<polygon points="582,90 589,90 594,85 589,80 582,80 582,90 " style="fill:#c715d8; stroke-width:1; stroke:black; " description="&lt;b&gt;F8N22_RS19745&lt;/b&gt;&lt;br&gt;N-acetylmuramoyl-L-alanine amidase&lt;br&gt;Location: 143991 - 143224&lt;br&gt;&lt;br&gt;&lt;b&gt;BlastP hit with MCIC6FC_020664&lt;/b&gt;&lt;br&gt;Percentage identity: 92&lt;br&gt;Percentage coverage: 34&lt;br&gt;BLAST bit score: 499&lt;br&gt;E-value: 5.2e-139" locus_tag="F8N22_RS19745" class="clusterblast-orf" id="dummy-1_h1_4_25"  />
</g>
<g id="a1_0026"  >
<polygon points="597,90 613,90 618,85 613,80 597,80 597,90 " style="fill:#c715d8; stroke-width:1; stroke:black; " description="&lt;b&gt;F8N22_RS19740&lt;/b&gt;&lt;br&gt;aspartate aminotransferase family protein&lt;br&gt;Location: 143035 - 141641&lt;br&gt;&lt;br&gt;&lt;b&gt;BlastP hit with MCIC6FC_020664&lt;/b&gt;&lt;br&gt;Percentage identity: 99&lt;br&gt;Percentage coverage: 62&lt;br&gt;BLAST bit score: 911&lt;br&gt;E-value: 4.4e-263" locus_tag="F8N22_RS19740" class="clusterblast-orf" id="dummy-1_h1_4_26"  />
</g>
<g id="a1_0027"  >
<polygon points="620,90 623,85 620,80 620,90 " style="fill:#d88015; stroke-width:1; stroke:black; " description="&lt;b&gt;F8N22_RS19735&lt;/b&gt;&lt;br&gt;MbtH family protein&lt;br&gt;Location: 141558 - 141334&lt;br&gt;&lt;br&gt;&lt;b&gt;BlastP hit with MCIC6FC_020665&lt;/b&gt;&lt;br&gt;Percentage identity: 97&lt;br&gt;Percentage coverage: 95&lt;br&gt;BLAST bit score: 131&lt;br&gt;E-value: 4.1e-29" locus_tag="F8N22_RS19735" class="clusterblast-orf" id="dummy-1_h1_4_27"  />
</g>
<g id="a1_0028"  >
<polygon points="624,85 629,80 657,80 657,90 629,90 624,85 " style="fill:#15d839; stroke-width:1; stroke:black; " description="&lt;b&gt;F8N22_RS19730&lt;/b&gt;&lt;br&gt;mechanosensitive ion channel family protein&lt;br&gt;Location: 141254 - 139086&lt;br&gt;&lt;br&gt;&lt;b&gt;BlastP hit with MCIC6FC_020666&lt;/b&gt;&lt;br&gt;Percentage identity: 94&lt;br&gt;Percentage coverage: 97&lt;br&gt;BLAST bit score: 1283&lt;br&gt;E-value: 0.0" locus_tag="F8N22_RS19730" class="clusterblast-orf" id="dummy-1_h1_4_28"  />
</g>
<g id="a1_0029"  >
<polygon points="664,85 669,80 683,80 683,90 669,90 664,85 " style="fill:#1539d8; stroke-width:1; stroke:black; " description="&lt;b&gt;F8N22_RS19725&lt;/b&gt;&lt;br&gt;M18 family aminopeptidase&lt;br&gt;Location: 138670 - 137381&lt;br&gt;&lt;br&gt;&lt;b&gt;BlastP hit with MCIC6FC_020667&lt;/b&gt;&lt;br&gt;Percentage identity: 100&lt;br&gt;Percentage coverage: 100&lt;br&gt;BLAST bit score: 879&lt;br&gt;E-value: 1.8e-253" locus_tag="F8N22_RS19725" class="clusterblast-orf" id="dummy-1_h1_4_29"  />
</g>
<g id="a1_0030"  >
<polygon points="685,85 690,80 695,80 695,90 690,90 685,85 " style="fill:#d81580; stroke-width:1; stroke:black; " description="&lt;b&gt;F8N22_RS19720&lt;/b&gt;&lt;br&gt;RluA family pseudouridine synthase&lt;br&gt;Location: 137256 - 136621&lt;br&gt;&lt;br&gt;&lt;b&gt;BlastP hit with MCIC6FC_020668&lt;/b&gt;&lt;br&gt;Percentage identity: 100&lt;br&gt;Percentage coverage: 100&lt;br&gt;BLAST bit score: 452&lt;br&gt;E-value: 2e-125" locus_tag="F8N22_RS19720" class="clusterblast-orf" id="dummy-1_h1_4_30"  />
</g>
<g id="a1_0031"  >
<polygon points="696,85 700,80 700,90 696,85 " style="fill:#c7d815; stroke-width:1; stroke:black; " description="&lt;b&gt;F8N22_RS19715&lt;/b&gt;&lt;br&gt;cell division topological specificity factor MinE&lt;br&gt;Location: 136524 - 136270&lt;br&gt;&lt;br&gt;&lt;b&gt;BlastP hit with MCIC6FC_020669&lt;/b&gt;&lt;br&gt;Percentage identity: 100&lt;br&gt;Percentage coverage: 12&lt;br&gt;BLAST bit score: 134&lt;br&gt;E-value: 3.1e-29" locus_tag="F8N22_RS19715" class="clusterblast-orf" id="dummy-1_h1_4_31"  />
</g>
<g id="a1_0032"  >
<polygon points="700,85 705,80 713,80 713,90 705,90 700,85 " style="fill:#c7d815; stroke-width:1; stroke:black; " description="&lt;b&gt;F8N22_RS19710&lt;/b&gt;&lt;br&gt;septum site-determining protein MinD&lt;br&gt;Location: 136266 - 135454&lt;br&gt;&lt;br&gt;&lt;b&gt;BlastP hit with MCIC6FC_020669&lt;/b&gt;&lt;br&gt;Percentage identity: 100&lt;br&gt;Percentage coverage: 49&lt;br&gt;BLAST bit score: 503&lt;br&gt;E-value: 3.3e-140" locus_tag="F8N22_RS19710" class="clusterblast-orf" id="dummy-1_h1_4_32"  />
</g>
<g id="a1_0033"  >
<polygon points="716,85 721,80 727,80 727,90 721,90 716,85 " style="fill:#c7d815; stroke-width:1; stroke:black; " description="&lt;b&gt;F8N22_RS19705&lt;/b&gt;&lt;br&gt;septum site-determining protein MinC&lt;br&gt;Location: 135254 - 134517&lt;br&gt;&lt;br&gt;&lt;b&gt;BlastP hit with MCIC6FC_020669&lt;/b&gt;&lt;br&gt;Percentage identity: 80&lt;br&gt;Percentage coverage: 45&lt;br&gt;BLAST bit score: 349&lt;br&gt;E-value: 8.1e-94" locus_tag="F8N22_RS19705" class="clusterblast-orf" id="dummy-1_h1_4_33"  />
</g>
<g id="a1_0034"  >
<polygon points="729,90 738,90 743,85 738,80 729,80 729,90 " style="fill:#15d8a3; stroke-width:1; stroke:black; " description="&lt;b&gt;F8N22_RS19700&lt;/b&gt;&lt;br&gt;lipid A biosynthesis lauroyl acyltransferase&lt;br&gt;Location: 134397 - 133465&lt;br&gt;&lt;br&gt;&lt;b&gt;BlastP hit with MCIC6FC_020670&lt;/b&gt;&lt;br&gt;Percentage identity: 99&lt;br&gt;Percentage coverage: 45&lt;br&gt;BLAST bit score: 610&lt;br&gt;E-value: 2.4e-172" locus_tag="F8N22_RS19700" class="clusterblast-orf" id="dummy-1_h1_4_34"  />
</g>
<g id="a1_0035"  >
<polygon points="744,90 756,90 761,85 756,80 744,80 744,90 " style="fill:#15d8a3; stroke-width:1; stroke:black; " description="&lt;b&gt;F8N22_RS19695&lt;/b&gt;&lt;br&gt;patatin-like phospholipase family protein&lt;br&gt;Location: 133432 - 132302&lt;br&gt;&lt;br&gt;&lt;b&gt;BlastP hit with MCIC6FC_020670&lt;/b&gt;&lt;br&gt;Percentage identity: 98&lt;br&gt;Percentage coverage: 55&lt;br&gt;BLAST bit score: 707&lt;br&gt;E-value: 1.1e-201" locus_tag="F8N22_RS19695" class="clusterblast-orf" id="dummy-1_h1_4_35"  />
</g>
<g id="a1_0036"  >
<polygon points="762,85 767,80 774,80 774,90 767,90 762,85 " style="fill:#5c15d8; stroke-width:1; stroke:black; " description="&lt;b&gt;F8N22_RS19690&lt;/b&gt;&lt;br&gt;hypothetical protein&lt;br&gt;Location: 132253 - 131468&lt;br&gt;&lt;br&gt;&lt;b&gt;BlastP hit with MCIC6FC_020671&lt;/b&gt;&lt;br&gt;Percentage identity: 100&lt;br&gt;Percentage coverage: 100&lt;br&gt;BLAST bit score: 566&lt;br&gt;E-value: 1.6e-159" locus_tag="F8N22_RS19690" class="clusterblast-orf" id="dummy-1_h1_4_36"  />
</g>
<g id="a1_0037"  >
<polygon points="774,85 779,80 780,80 780,90 779,90 774,85 " style="fill:white; stroke-width:1; stroke:black; " description="&lt;b&gt;F8N22_RS19685&lt;/b&gt;&lt;br&gt;hypothetical protein&lt;br&gt;Location: 131444 - 131076" locus_tag="F8N22_RS19685" class="clusterblast-orf" id="dummy-1_h1_4_37"  />
</g>
</svg>
