<svg xmlns="http://www.w3.org/2000/svg" xmlns:xlink="http://www.w3.org/1999/xlink" version="1.1" x="0" y="0" height="230" width="800" viewBox="0 0 800 230" preserveAspectRatio="none"  >
<g label="Query sequence" class="clusterblast-cluster"  >
<text x="5" y="20" class="clusterblast-acc"  >
Query sequence</text>
<line x1="10" y1="35" x2="778.0" y2="35" style="stroke-width:1; stroke:grey; "  />
<polygon points="100,35 105,30 129,30 129,40 105,40 100,35 " style="fill:white; stroke-width:1; stroke:black; " description="&lt;b&gt;MCIC6FC_019729&lt;/b&gt;&lt;br&gt;hypothetical protein&lt;br&gt;Location: 48 - 1635" locus_tag="MCIC6FC_019729" class="clusterblast-orf" id="dummy-1_q0_0_all"  />
<polygon points="175,40 308,40 313,35 308,30 175,30 175,40 " style="fill:#d81515; stroke-width:1; stroke:black; " description="&lt;b&gt;MCIC6FC_019730&lt;/b&gt;&lt;br&gt;hypothetical protein&lt;br&gt;Location: 4097 - 11627" locus_tag="MCIC6FC_019730" class="clusterblast-orf" id="dummy-1_q1_0_all"  />
<polygon points="314,35 319,30 321,30 321,40 319,40 314,35 " style="fill:#15d815; stroke-width:1; stroke:black; " description="&lt;b&gt;MCIC6FC_019731&lt;/b&gt;&lt;br&gt;hypothetical protein&lt;br&gt;Location: 11643 - 12033" locus_tag="MCIC6FC_019731" class="clusterblast-orf" id="dummy-1_q2_0_all"  />
<polygon points="327,35 332,30 391,30 391,40 332,40 327,35 " style="fill:#1597d8; stroke-width:1; stroke:black; " description="&lt;b&gt;MCIC6FC_019732&lt;/b&gt;&lt;br&gt;hypothetical protein&lt;br&gt;Location: 12371 - 15823" locus_tag="MCIC6FC_019732" class="clusterblast-orf" id="dummy-1_q3_0_all"  />
<polygon points="391,35 396,30 404,30 404,40 396,40 391,35 " style="fill:#9715d8; stroke-width:1; stroke:black; " description="&lt;b&gt;MCIC6FC_019733&lt;/b&gt;&lt;br&gt;hypothetical protein&lt;br&gt;Location: 15848 - 16554" locus_tag="MCIC6FC_019733" class="clusterblast-orf" id="dummy-1_q4_0_all"  />
<polygon points="404,35 409,30 476,30 476,40 409,40 404,35 " style="fill:#9715d8; stroke-width:1; stroke:black; " description="&lt;b&gt;MCIC6FC_019734&lt;/b&gt;&lt;br&gt;hypothetical protein&lt;br&gt;Location: 16577 - 20450" locus_tag="MCIC6FC_019734" class="clusterblast-orf" id="dummy-1_q5_0_all"  />
<polygon points="478,35 483,30 492,30 492,40 483,40 478,35 " style="fill:#9715d8; stroke-width:1; stroke:black; " description="&lt;b&gt;MCIC6FC_019735&lt;/b&gt;&lt;br&gt;hypothetical protein&lt;br&gt;Location: 20551 - 21340" locus_tag="MCIC6FC_019735" class="clusterblast-orf" id="dummy-1_q6_0_all"  />
<polygon points="494,35 499,30 507,30 507,40 499,40 494,35 " style="fill:#d89715; stroke-width:1; stroke:black; " description="&lt;b&gt;MCIC6FC_019736&lt;/b&gt;&lt;br&gt;hypothetical protein&lt;br&gt;Location: 21424 - 22154" locus_tag="MCIC6FC_019736" class="clusterblast-orf" id="dummy-1_q7_0_all"  />
<polygon points="508,35 513,30 519,30 519,40 513,40 508,35 " style="fill:#d89715; stroke-width:1; stroke:black; " description="&lt;b&gt;MCIC6FC_019737&lt;/b&gt;&lt;br&gt;hypothetical protein&lt;br&gt;Location: 22198 - 22796" locus_tag="MCIC6FC_019737" class="clusterblast-orf" id="dummy-1_q8_0_all"  />
<polygon points="522,35 527,30 595,30 595,40 527,40 522,35 " style="fill:#15d897; stroke-width:1; stroke:black; " description="&lt;b&gt;MCIC6FC_019738&lt;/b&gt;&lt;br&gt;hypothetical protein&lt;br&gt;Location: 22971 - 26914" locus_tag="MCIC6FC_019738" class="clusterblast-orf" id="dummy-1_q9_0_all"  />
<polygon points="595,35 600,30 626,30 626,40 600,40 595,35 " style="fill:#1515d8; stroke-width:1; stroke:black; " description="&lt;b&gt;MCIC6FC_019739&lt;/b&gt;&lt;br&gt;hypothetical protein&lt;br&gt;Location: 26943 - 28602" locus_tag="MCIC6FC_019739" class="clusterblast-orf" id="dummy-1_q10_0_all"  />
<polygon points="630,35 635,30 641,30 641,40 635,40 630,35 " style="fill:#d81597; stroke-width:1; stroke:black; " description="&lt;b&gt;MCIC6FC_019740&lt;/b&gt;&lt;br&gt;hypothetical protein&lt;br&gt;Location: 28808 - 29406" locus_tag="MCIC6FC_019740" class="clusterblast-orf" id="dummy-1_q11_0_all"  />
<polygon points="643,40 674,40 679,35 674,30 643,30 643,40 " style="fill:#97d815; stroke-width:1; stroke:black; " description="&lt;b&gt;MCIC6FC_019741&lt;/b&gt;&lt;br&gt;hypothetical protein&lt;br&gt;Location: 29521 - 31499" locus_tag="MCIC6FC_019741" class="clusterblast-orf" id="dummy-1_q12_0_all"  />
</g>
<g label="NZ_CP056393" description="NZ_CP056393 (4559942-4603536): Enterobacter sp. RHBSTW-00593 chromosome, comp... (51% of genes show similarity), arylpolyene" class="clusterblast-cluster"  >
<text x="5" y="70" class="clusterblast-acc"  >
<a xlink:href="https://antismash-db.secondarymetabolites.org/area.html?record=NZ_CP056393&amp;start=4559942&amp;end=4603536" target="_blank">NZ_CP056393 (4559942-4603536)</a>: Enterobacter sp. RHBSTW-00593 chromosome, comp... (51% of genes show similarity), arylpolyene</text>
<line x1="10" y1="85" x2="778.0" y2="85" style="stroke-width:1; stroke:grey; "  />
</g>
<g id="a1_000"  >
<polygon points="0,85 5,80 20,80 20,90 5,90 0,85 " style="fill:white; stroke-width:1; stroke:black; " description="&lt;b&gt;HV242_RS22185&lt;/b&gt;&lt;br&gt;nickel/cobalt efflux protein RcnA&lt;br&gt;Location: 4603406 - 4602291" locus_tag="HV242_RS22185" class="clusterblast-orf" id="dummy-1_h1_9_0"  />
</g>
<g id="a1_001"  >
<polygon points="22,90 22,90 27,85 22,80 22,80 22,90 " style="fill:white; stroke-width:1; stroke:black; " description="&lt;b&gt;HV242_RS22180&lt;/b&gt;&lt;br&gt;Ni(II)/Co(II)-binding transcriptional repressor RcnR&lt;br&gt;Location: 4602168 - 4601896" locus_tag="HV242_RS22180" class="clusterblast-orf" id="dummy-1_h1_9_1"  />
</g>
<g id="a1_002"  >
<polygon points="36,85 41,80 53,80 53,90 41,90 36,85 " style="fill:white; stroke-width:1; stroke:black; " description="&lt;b&gt;HV242_RS22175&lt;/b&gt;&lt;br&gt;hypothetical protein&lt;br&gt;Location: 4601434 - 4600496" locus_tag="HV242_RS22175" class="clusterblast-orf" id="dummy-1_h1_9_2"  />
</g>
<g id="a1_003"  >
<polygon points="53,85 58,80 66,80 66,90 58,90 53,85 " style="fill:white; stroke-width:1; stroke:black; " description="&lt;b&gt;HV242_RS22170&lt;/b&gt;&lt;br&gt;diguanylate cyclase&lt;br&gt;Location: 4600496 - 4599804" locus_tag="HV242_RS22170" class="clusterblast-orf" id="dummy-1_h1_9_3"  />
</g>
<g id="a1_004"  >
<polygon points="69,90 77,90 82,85 77,80 69,80 69,90 " style="fill:white; stroke-width:1; stroke:black; " description="&lt;b&gt;HV242_RS22165&lt;/b&gt;&lt;br&gt;IclR family transcriptional regulator&lt;br&gt;Location: 4599634 - 4598897" locus_tag="HV242_RS22165" class="clusterblast-orf" id="dummy-1_h1_9_4"  />
</g>
<g id="a1_005"  >
<polygon points="83,85 88,80 108,80 108,90 88,90 83,85 " style="fill:white; stroke-width:1; stroke:black; " description="&lt;b&gt;HV242_RS22160&lt;/b&gt;&lt;br&gt;MFS transporter&lt;br&gt;Location: 4598859 - 4597525" locus_tag="HV242_RS22160" class="clusterblast-orf" id="dummy-1_h1_9_5"  />
</g>
<g id="a1_006"  >
<polygon points="114,90 116,90 121,85 116,80 114,80 114,90 " style="fill:white; stroke-width:1; stroke:black; " description="&lt;b&gt;HV242_RS22155&lt;/b&gt;&lt;br&gt;two pore domain potassium channel family protein&lt;br&gt;Location: 4597190 - 4596792" locus_tag="HV242_RS22155" class="clusterblast-orf" id="dummy-1_h1_9_6"  />
</g>
<g id="a1_007"  >
<polygon points="124,90 138,90 143,85 138,80 124,80 124,90 " style="fill:white; stroke-width:1; stroke:black; " description="&lt;b&gt;HV242_RS22150&lt;/b&gt;&lt;br&gt;TerC/Alx family metal homeostasis membrane protein&lt;br&gt;Location: 4596626 - 4595598" locus_tag="HV242_RS22150" class="clusterblast-orf" id="dummy-1_h1_9_7"  />
</g>
<g id="a1_008"  >
<polygon points="144,85 149,80 156,80 156,90 149,90 144,85 " style="fill:white; stroke-width:1; stroke:black; " description="&lt;b&gt;HV242_RS22145&lt;/b&gt;&lt;br&gt;HAD family hydrolase&lt;br&gt;Location: 4595552 - 4594890" locus_tag="HV242_RS22145" class="clusterblast-orf" id="dummy-1_h1_9_8"  />
</g>
<g id="a1_009"  >
<polygon points="161,90 165,90 170,85 165,80 161,80 161,90 " style="fill:white; stroke-width:1; stroke:black; " description="&lt;b&gt;HV242_RS22140&lt;/b&gt;&lt;br&gt;C40 family peptidase&lt;br&gt;Location: 4594649 - 4594122" locus_tag="HV242_RS22140" class="clusterblast-orf" id="dummy-1_h1_9_9"  />
</g>
<g id="a1_0010"  >
<polygon points="170,85 175,80 185,80 185,90 175,90 170,85 " style="fill:white; stroke-width:1; stroke:black; " description="&lt;b&gt;HV242_RS22135&lt;/b&gt;&lt;br&gt;SDR family NAD(P)-dependent oxidoreductase&lt;br&gt;Location: 4594117 - 4593323" locus_tag="HV242_RS22135" class="clusterblast-orf" id="dummy-1_h1_9_10"  />
</g>
<g id="a1_0011"  >
<polygon points="186,85 191,80 202,80 202,90 191,90 186,85 " style="fill:white; stroke-width:1; stroke:black; " description="&lt;b&gt;HV242_RS22130&lt;/b&gt;&lt;br&gt;LysR family transcriptional regulator&lt;br&gt;Location: 4593289 - 4592408" locus_tag="HV242_RS22130" class="clusterblast-orf" id="dummy-1_h1_9_11"  />
</g>
<g id="a1_0012"  >
<polygon points="204,90 208,90 213,85 208,80 204,80 204,90 " style="fill:white; stroke-width:1; stroke:black; " description="&lt;b&gt;HV242_RS22125&lt;/b&gt;&lt;br&gt;phenolic acid decarboxylase&lt;br&gt;Location: 4592308 - 4591802" locus_tag="HV242_RS22125" class="clusterblast-orf" id="dummy-1_h1_9_12"  />
</g>
<g id="a1_0013"  >
<polygon points="219,90 235,90 240,85 235,80 219,80 219,90 " style="fill:#d81515; stroke-width:1; stroke:black; " description="&lt;b&gt;HV242_RS22120&lt;/b&gt;&lt;br&gt;UDP-4-amino-4-deoxy-L-arabinose aminotransferase&lt;br&gt;Location: 4591479 - 4590340&lt;br&gt;&lt;br&gt;&lt;b&gt;BlastP hit with MCIC6FC_019730&lt;/b&gt;&lt;br&gt;Percentage identity: 79&lt;br&gt;Percentage coverage: 15&lt;br&gt;BLAST bit score: 511&lt;br&gt;E-value: 5e-142" locus_tag="HV242_RS22120" class="clusterblast-orf" id="dummy-1_h1_9_13"  />
</g>
<g id="a1_0014"  >
<polygon points="240,90 253,90 258,85 253,80 240,80 240,90 " style="fill:#d81515; stroke-width:1; stroke:black; " description="&lt;b&gt;HV242_RS22115&lt;/b&gt;&lt;br&gt;undecaprenyl-phosphate 4-deoxy-4-formamido-L-arabinose transferase&lt;br&gt;Location: 4590338 - 4589355&lt;br&gt;&lt;br&gt;&lt;b&gt;BlastP hit with MCIC6FC_019730&lt;/b&gt;&lt;br&gt;Percentage identity: 79&lt;br&gt;Percentage coverage: 14&lt;br&gt;BLAST bit score: 481&lt;br&gt;E-value: 5.5e-133" locus_tag="HV242_RS22115" class="clusterblast-orf" id="dummy-1_h1_9_14"  />
</g>
<g id="a1_0015"  >
<polygon points="258,90 290,90 295,85 290,80 258,80 258,90 " style="fill:#d81515; stroke-width:1; stroke:black; " description="&lt;b&gt;HV242_RS22110&lt;/b&gt;&lt;br&gt;bifunctional UDP-4-amino-4-deoxy-L-arabinose formyltransferase/UDP-glucuronic acid oxidase ArnA&lt;br&gt;Location: 4589358 - 4587376&lt;br&gt;&lt;br&gt;&lt;b&gt;BlastP hit with MCIC6FC_019730&lt;/b&gt;&lt;br&gt;Percentage identity: 73&lt;br&gt;Percentage coverage: 30&lt;br&gt;BLAST bit score: 956&lt;br&gt;E-value: 4.5e-276" locus_tag="HV242_RS22110" class="clusterblast-orf" id="dummy-1_h1_9_15"  />
</g>
<g id="a1_0016"  >
<polygon points="294,90 306,90 311,85 306,80 294,80 294,90 " style="fill:#d81515; stroke-width:1; stroke:black; " description="&lt;b&gt;HV242_RS22105&lt;/b&gt;&lt;br&gt;4-deoxy-4-formamido-L-arabinose- phosphoundecaprenol deformylase&lt;br&gt;Location: 4587379 - 4586477&lt;br&gt;&lt;br&gt;&lt;b&gt;BlastP hit with MCIC6FC_019730&lt;/b&gt;&lt;br&gt;Percentage identity: 52&lt;br&gt;Percentage coverage: 11&lt;br&gt;BLAST bit score: 230&lt;br&gt;E-value: 1.3e-57" locus_tag="HV242_RS22105" class="clusterblast-orf" id="dummy-1_h1_9_16"  />
</g>
<g id="a1_0017"  >
<polygon points="311,90 336,90 341,85 336,80 311,80 311,90 " style="fill:#d81515; stroke-width:1; stroke:black; " description="&lt;b&gt;HV242_RS22100&lt;/b&gt;&lt;br&gt;lipid IV(A) 4-amino-4-deoxy-L-arabinosyltransferase&lt;br&gt;Location: 4586480 - 4584825&lt;br&gt;&lt;br&gt;&lt;b&gt;BlastP hit with MCIC6FC_019730&lt;/b&gt;&lt;br&gt;Percentage identity: 40&lt;br&gt;Percentage coverage: 26&lt;br&gt;BLAST bit score: 323&lt;br&gt;E-value: 1.5e-85" locus_tag="HV242_RS22100" class="clusterblast-orf" id="dummy-1_h1_9_17"  />
</g>
<g id="a1_0018"  >
<polygon points="341,90 343,90 348,85 343,80 341,80 341,90 " style="fill:white; stroke-width:1; stroke:black; " description="&lt;b&gt;HV242_RS22095&lt;/b&gt;&lt;br&gt;4-amino-4-deoxy-L-arabinose-phosphoundecaprenol flippase subunit ArnE&lt;br&gt;Location: 4584828 - 4584490" locus_tag="HV242_RS22095" class="clusterblast-orf" id="dummy-1_h1_9_18"  />
</g>
<g id="a1_0019"  >
<polygon points="348,90 350,90 355,85 350,80 348,80 348,90 " style="fill:white; stroke-width:1; stroke:black; " description="&lt;b&gt;HV242_RS22090&lt;/b&gt;&lt;br&gt;4-amino-4-deoxy-L-arabinose-phospho-UDP flippase&lt;br&gt;Location: 4584493 - 4584089" locus_tag="HV242_RS22090" class="clusterblast-orf" id="dummy-1_h1_9_19"  />
</g>
<g id="a1_0020"  >
<polygon points="354,85 359,80 365,80 365,90 359,90 354,85 " style="fill:#15d815; stroke-width:1; stroke:black; " description="&lt;b&gt;HV242_RS22085&lt;/b&gt;&lt;br&gt;4'-phosphopantetheinyl transferase AcpT&lt;br&gt;Location: 4584132 - 4583539&lt;br&gt;&lt;br&gt;&lt;b&gt;BlastP hit with MCIC6FC_019731&lt;/b&gt;&lt;br&gt;Percentage identity: 64&lt;br&gt;Percentage coverage: 92&lt;br&gt;BLAST bit score: 144&lt;br&gt;E-value: 9.5e-33" locus_tag="HV242_RS22085" class="clusterblast-orf" id="dummy-1_h1_9_20"  />
</g>
<g id="a1_0021"  >
<polygon points="365,85 370,80 388,80 388,90 370,90 365,85 " style="fill:#1597d8; stroke-width:1; stroke:black; " description="&lt;b&gt;HV242_RS22080&lt;/b&gt;&lt;br&gt;beta-ketoacyl-ACP synthase&lt;br&gt;Location: 4583536 - 4582307&lt;br&gt;&lt;br&gt;&lt;b&gt;BlastP hit with MCIC6FC_019732&lt;/b&gt;&lt;br&gt;Percentage identity: 68&lt;br&gt;Percentage coverage: 36&lt;br&gt;BLAST bit score: 445&lt;br&gt;E-value: 1.2e-122" locus_tag="HV242_RS22080" class="clusterblast-orf" id="dummy-1_h1_9_21"  />
</g>
<g id="a1_0022"  >
<polygon points="388,85 393,80 401,80 401,90 393,90 388,85 " style="fill:#1597d8; stroke-width:1; stroke:black; " description="&lt;b&gt;HV242_RS22075&lt;/b&gt;&lt;br&gt;3-oxoacyl-ACP reductase FabG&lt;br&gt;Location: 4582310 - 4581579&lt;br&gt;&lt;br&gt;&lt;b&gt;BlastP hit with MCIC6FC_019732&lt;/b&gt;&lt;br&gt;Percentage identity: 72&lt;br&gt;Percentage coverage: 24&lt;br&gt;BLAST bit score: 322&lt;br&gt;E-value: 1.5e-85" locus_tag="HV242_RS22075" class="clusterblast-orf" id="dummy-1_h1_9_22"  />
</g>
<g id="a1_0023"  >
<polygon points="401,85 406,80 410,80 410,90 406,90 401,85 " style="fill:white; stroke-width:1; stroke:black; " description="&lt;b&gt;HV242_RS22070&lt;/b&gt;&lt;br&gt;hypothetical protein&lt;br&gt;Location: 4581582 - 4581109" locus_tag="HV242_RS22070" class="clusterblast-orf" id="dummy-1_h1_9_23"  />
</g>
<g id="a1_0024"  >
<polygon points="410,85 415,80 431,80 431,90 415,90 410,85 " style="fill:#1597d8; stroke-width:1; stroke:black; " description="&lt;b&gt;HV242_RS22065&lt;/b&gt;&lt;br&gt;beta-ketoacyl-[acyl-carrier-protein] synthase family protein&lt;br&gt;Location: 4581112 - 4579943&lt;br&gt;&lt;br&gt;&lt;b&gt;BlastP hit with MCIC6FC_019732&lt;/b&gt;&lt;br&gt;Percentage identity: 64&lt;br&gt;Percentage coverage: 38&lt;br&gt;BLAST bit score: 445&lt;br&gt;E-value: 1.6e-122" locus_tag="HV242_RS22065" class="clusterblast-orf" id="dummy-1_h1_9_24"  />
</g>
<g id="a1_0025"  >
<polygon points="431,85 436,80 442,80 442,90 436,90 431,85 " style="fill:#9715d8; stroke-width:1; stroke:black; " description="&lt;b&gt;HV242_RS22060&lt;/b&gt;&lt;br&gt;DUF3261 domain-containing protein&lt;br&gt;Location: 4579941 - 4579363&lt;br&gt;&lt;br&gt;&lt;b&gt;BlastP hit with MCIC6FC_019733&lt;/b&gt;&lt;br&gt;Percentage identity: 65&lt;br&gt;Percentage coverage: 86&lt;br&gt;BLAST bit score: 245&lt;br&gt;E-value: 5.2e-63" locus_tag="HV242_RS22060" class="clusterblast-orf" id="dummy-1_h1_9_25"  />
</g>
<g id="a1_0026"  >
<polygon points="442,85 447,80 485,80 485,90 447,90 442,85 " style="fill:#9715d8; stroke-width:1; stroke:black; " description="&lt;b&gt;HV242_RS22055&lt;/b&gt;&lt;br&gt;MMPL family transporter&lt;br&gt;Location: 4579366 - 4577042&lt;br&gt;&lt;br&gt;&lt;b&gt;BlastP hit with MCIC6FC_019733&lt;/b&gt;&lt;br&gt;Percentage identity: 83&lt;br&gt;Percentage coverage: 18&lt;br&gt;BLAST bit score: 64&lt;br&gt;E-value: 1.3e-08&lt;br&gt;&lt;br&gt;&lt;b&gt;BlastP hit with MCIC6FC_019734&lt;/b&gt;&lt;br&gt;Percentage identity: 72&lt;br&gt;Percentage coverage: 59&lt;br&gt;BLAST bit score: 904&lt;br&gt;E-value: 1.1e-260" locus_tag="HV242_RS22055" class="clusterblast-orf" id="dummy-1_h1_9_26"  />
</g>
<g id="a1_0027"  >
<polygon points="484,85 489,80 495,80 495,90 489,90 484,85 " style="fill:#9715d8; stroke-width:1; stroke:black; " description="&lt;b&gt;HV242_RS22050&lt;/b&gt;&lt;br&gt;outer membrane lipoprotein carrier protein LolA&lt;br&gt;Location: 4577073 - 4576468&lt;br&gt;&lt;br&gt;&lt;b&gt;BlastP hit with MCIC6FC_019734&lt;/b&gt;&lt;br&gt;Percentage identity: 79&lt;br&gt;Percentage coverage: 13&lt;br&gt;BLAST bit score: 253&lt;br&gt;E-value: 1.3e-64" locus_tag="HV242_RS22050" class="clusterblast-orf" id="dummy-1_h1_9_27"  />
</g>
<g id="a1_0028"  >
<polygon points="495,85 500,80 503,80 503,90 500,90 495,85 " style="fill:white; stroke-width:1; stroke:black; " description="&lt;b&gt;HV242_RS22045&lt;/b&gt;&lt;br&gt;acyl-CoA thioesterase&lt;br&gt;Location: 4576471 - 4576049" locus_tag="HV242_RS22045" class="clusterblast-orf" id="dummy-1_h1_9_28"  />
</g>
<g id="a1_0029"  >
<polygon points="503,85 508,80 534,80 534,90 508,90 503,85 " style="fill:#9715d8; stroke-width:1; stroke:black; " description="&lt;b&gt;HV242_RS22040&lt;/b&gt;&lt;br&gt;glycosyltransferase family 2 protein&lt;br&gt;Location: 4576045 - 4574354&lt;br&gt;&lt;br&gt;&lt;b&gt;BlastP hit with MCIC6FC_019734&lt;/b&gt;&lt;br&gt;Percentage identity: 67&lt;br&gt;Percentage coverage: 19&lt;br&gt;BLAST bit score: 291&lt;br&gt;E-value: 4.3e-76&lt;br&gt;&lt;br&gt;&lt;b&gt;BlastP hit with MCIC6FC_019735&lt;/b&gt;&lt;br&gt;Percentage identity: 50&lt;br&gt;Percentage coverage: 105&lt;br&gt;BLAST bit score: 208&lt;br&gt;E-value: 1e-51" locus_tag="HV242_RS22040" class="clusterblast-orf" id="dummy-1_h1_9_29"  />
</g>
<g id="a1_0030"  >
<polygon points="534,85 539,80 541,80 541,90 539,90 534,85 " style="fill:#d89715; stroke-width:1; stroke:black; " description="&lt;b&gt;HV242_RS22035&lt;/b&gt;&lt;br&gt;beta-hydroxyacyl-ACP dehydratase&lt;br&gt;Location: 4574363 - 4574010&lt;br&gt;&lt;br&gt;&lt;b&gt;BlastP hit with MCIC6FC_019736&lt;/b&gt;&lt;br&gt;Percentage identity: 80&lt;br&gt;Percentage coverage: 47&lt;br&gt;BLAST bit score: 152&lt;br&gt;E-value: 3.9e-35" locus_tag="HV242_RS22035" class="clusterblast-orf" id="dummy-1_h1_9_30"  />
</g>
<g id="a1_0031"  >
<polygon points="540,85 545,80 565,80 565,90 545,90 540,85 " style="fill:#d89715; stroke-width:1; stroke:black; " description="&lt;b&gt;HV242_RS22030&lt;/b&gt;&lt;br&gt;acyl-CoA synthetase&lt;br&gt;Location: 4574023 - 4572662&lt;br&gt;&lt;br&gt;&lt;b&gt;BlastP hit with MCIC6FC_019736&lt;/b&gt;&lt;br&gt;Percentage identity: 58&lt;br&gt;Percentage coverage: 53&lt;br&gt;BLAST bit score: 119&lt;br&gt;E-value: 4.8e-25&lt;br&gt;&lt;br&gt;&lt;b&gt;BlastP hit with MCIC6FC_019737&lt;/b&gt;&lt;br&gt;Percentage identity: 38&lt;br&gt;Percentage coverage: 100&lt;br&gt;BLAST bit score: 74&lt;br&gt;E-value: 1.3e-11" locus_tag="HV242_RS22030" class="clusterblast-orf" id="dummy-1_h1_9_31"  />
</g>
<g id="a1_0032"  >
<polygon points="565,85 570,80 576,80 576,90 570,90 565,85 " style="fill:#15d897; stroke-width:1; stroke:black; " description="&lt;b&gt;HV242_RS22025&lt;/b&gt;&lt;br&gt;hypothetical protein&lt;br&gt;Location: 4572669 - 4572082&lt;br&gt;&lt;br&gt;&lt;b&gt;BlastP hit with MCIC6FC_019738&lt;/b&gt;&lt;br&gt;Percentage identity: 60&lt;br&gt;Percentage coverage: 18&lt;br&gt;BLAST bit score: 167&lt;br&gt;E-value: 5.1e-39" locus_tag="HV242_RS22025" class="clusterblast-orf" id="dummy-1_h1_9_32"  />
</g>
<g id="a1_0033"  >
<polygon points="576,85 581,80 581,80 581,90 581,90 576,85 " style="fill:white; stroke-width:1; stroke:black; " description="&lt;b&gt;HV242_RS22020&lt;/b&gt;&lt;br&gt;acyl carrier protein&lt;br&gt;Location: 4572075 - 4571824" locus_tag="HV242_RS22020" class="clusterblast-orf" id="dummy-1_h1_9_33"  />
</g>
<g id="a1_0034"  >
<polygon points="581,85 586,80 586,80 586,90 586,90 581,85 " style="fill:white; stroke-width:1; stroke:black; " description="&lt;b&gt;HV242_RS22015&lt;/b&gt;&lt;br&gt;hypothetical protein&lt;br&gt;Location: 4571810 - 4571553" locus_tag="HV242_RS22015" class="clusterblast-orf" id="dummy-1_h1_9_34"  />
</g>
<g id="a1_0035"  >
<polygon points="585,85 590,80 600,80 600,90 590,90 585,85 " style="fill:#15d897; stroke-width:1; stroke:black; " description="&lt;b&gt;HV242_RS22010&lt;/b&gt;&lt;br&gt;1-acyl-sn-glycerol-3-phosphate acyltransferase&lt;br&gt;Location: 4571572 - 4570757&lt;br&gt;&lt;br&gt;&lt;b&gt;BlastP hit with MCIC6FC_019738&lt;/b&gt;&lt;br&gt;Percentage identity: 44&lt;br&gt;Percentage coverage: 18&lt;br&gt;BLAST bit score: 106&lt;br&gt;E-value: 1.4e-20" locus_tag="HV242_RS22010" class="clusterblast-orf" id="dummy-1_h1_9_35"  />
</g>
<g id="a1_0036"  >
<polygon points="600,85 605,80 614,80 614,90 605,90 600,85 " style="fill:#15d897; stroke-width:1; stroke:black; " description="&lt;b&gt;HV242_RS22005&lt;/b&gt;&lt;br&gt;beta-ketoacyl synthase chain length factor&lt;br&gt;Location: 4570760 - 4570038&lt;br&gt;&lt;br&gt;&lt;b&gt;BlastP hit with MCIC6FC_019738&lt;/b&gt;&lt;br&gt;Percentage identity: 62&lt;br&gt;Percentage coverage: 26&lt;br&gt;BLAST bit score: 249&lt;br&gt;E-value: 1.3e-63" locus_tag="HV242_RS22005" class="clusterblast-orf" id="dummy-1_h1_9_36"  />
</g>
<g id="a1_0037"  >
<polygon points="615,85 620,80 634,80 634,90 620,90 615,85 " style="fill:white; stroke-width:1; stroke:black; " description="&lt;b&gt;HV242_RS22000&lt;/b&gt;&lt;br&gt;methyltransferase domain-containing protein&lt;br&gt;Location: 4569973 - 4568909" locus_tag="HV242_RS22000" class="clusterblast-orf" id="dummy-1_h1_9_37"  />
</g>
<g id="a1_0038"  >
<polygon points="636,85 641,80 643,80 643,90 641,90 636,85 " style="fill:#15d897; stroke-width:1; stroke:black; " description="&lt;b&gt;HV242_RS21995&lt;/b&gt;&lt;br&gt;hypothetical protein&lt;br&gt;Location: 4568841 - 4568452&lt;br&gt;&lt;br&gt;&lt;b&gt;BlastP hit with MCIC6FC_019738&lt;/b&gt;&lt;br&gt;Percentage identity: 56&lt;br&gt;Percentage coverage: 11&lt;br&gt;BLAST bit score: 95&lt;br&gt;E-value: 2.5e-17" locus_tag="HV242_RS21995" class="clusterblast-orf" id="dummy-1_h1_9_38"  />
</g>
<g id="a1_0039"  >
<polygon points="649,85 654,80 668,80 668,90 654,90 649,85 " style="fill:#1515d8; stroke-width:1; stroke:black; " description="&lt;b&gt;HV242_RS21990&lt;/b&gt;&lt;br&gt;AI-2E family transporter&lt;br&gt;Location: 4568129 - 4567080&lt;br&gt;&lt;br&gt;&lt;b&gt;BlastP hit with MCIC6FC_019739&lt;/b&gt;&lt;br&gt;Percentage identity: 81&lt;br&gt;Percentage coverage: 61&lt;br&gt;BLAST bit score: 365&lt;br&gt;E-value: 5.9e-99" locus_tag="HV242_RS21990" class="clusterblast-orf" id="dummy-1_h1_9_39"  />
</g>
<g id="a1_0040"  >
<polygon points="671,90 688,90 693,85 688,80 671,80 671,90 " style="fill:white; stroke-width:1; stroke:black; " description="&lt;b&gt;HV242_RS21985&lt;/b&gt;&lt;br&gt;MFS transporter&lt;br&gt;Location: 4566935 - 4565718" locus_tag="HV242_RS21985" class="clusterblast-orf" id="dummy-1_h1_9_40"  />
</g>
<g id="a1_0041"  >
<polygon points="693,85 698,80 704,80 704,90 698,90 693,85 " style="fill:#1515d8; stroke-width:1; stroke:black; " description="&lt;b&gt;HV242_RS21980&lt;/b&gt;&lt;br&gt;DcrB family lipoprotein&lt;br&gt;Location: 4565713 - 4565156&lt;br&gt;&lt;br&gt;&lt;b&gt;BlastP hit with MCIC6FC_019739&lt;/b&gt;&lt;br&gt;Percentage identity: 62&lt;br&gt;Percentage coverage: 49&lt;br&gt;BLAST bit score: 185&lt;br&gt;E-value: 1.4e-44" locus_tag="HV242_RS21980" class="clusterblast-orf" id="dummy-1_h1_9_41"  />
</g>
<g id="a1_0042"  >
<polygon points="705,85 710,80 717,80 717,90 710,90 705,85 " style="fill:#d81597; stroke-width:1; stroke:black; " description="&lt;b&gt;HV242_RS21975&lt;/b&gt;&lt;br&gt;7-cyano-7-deazaguanine/7-aminomethyl-7- deazaguanine transporter&lt;br&gt;Location: 4565083 - 4564418&lt;br&gt;&lt;br&gt;&lt;b&gt;BlastP hit with MCIC6FC_019740&lt;/b&gt;&lt;br&gt;Percentage identity: 87&lt;br&gt;Percentage coverage: 98&lt;br&gt;BLAST bit score: 262&lt;br&gt;E-value: 2.1e-68" locus_tag="HV242_RS21975" class="clusterblast-orf" id="dummy-1_h1_9_42"  />
</g>
<g id="a1_0043"  >
<polygon points="720,90 720,90 725,85 720,80 720,80 720,90 " style="fill:white; stroke-width:1; stroke:black; " description="&lt;b&gt;HV242_RS21970&lt;/b&gt;&lt;br&gt;sulfurtransferase TusA&lt;br&gt;Location: 4564251 - 4564009" locus_tag="HV242_RS21970" class="clusterblast-orf" id="dummy-1_h1_9_43"  />
</g>
<g id="a1_0044"  >
<polygon points="728,90 741,90 746,85 741,80 728,80 728,90 " style="fill:#97d815; stroke-width:1; stroke:black; " description="&lt;b&gt;HV242_RS21965&lt;/b&gt;&lt;br&gt;TRAP transporter substrate-binding protein&lt;br&gt;Location: 4563817 - 4562846&lt;br&gt;&lt;br&gt;&lt;b&gt;BlastP hit with MCIC6FC_019741&lt;/b&gt;&lt;br&gt;Percentage identity: 66&lt;br&gt;Percentage coverage: 41&lt;br&gt;BLAST bit score: 143&lt;br&gt;E-value: 3.6e-32" locus_tag="HV242_RS21965" class="clusterblast-orf" id="dummy-1_h1_9_44"  />
</g>
<g id="a1_0045"  >
<polygon points="746,90 751,90 756,85 751,80 746,80 746,90 " style="fill:#97d815; stroke-width:1; stroke:black; " description="&lt;b&gt;HV242_RS21960&lt;/b&gt;&lt;br&gt;TRAP transporter small permease&lt;br&gt;Location: 4562834 - 4562325&lt;br&gt;&lt;br&gt;&lt;b&gt;BlastP hit with MCIC6FC_019741&lt;/b&gt;&lt;br&gt;Percentage identity: 46&lt;br&gt;Percentage coverage: 48&lt;br&gt;BLAST bit score: 95&lt;br&gt;E-value: 1.1e-17" locus_tag="HV242_RS21960" class="clusterblast-orf" id="dummy-1_h1_9_45"  />
</g>
<g id="a1_0046"  >
<polygon points="756,90 775,90 780,85 775,80 756,80 756,90 " style="fill:white; stroke-width:1; stroke:black; " description="&lt;b&gt;HV242_RS21955&lt;/b&gt;&lt;br&gt;TRAP transporter large permease&lt;br&gt;Location: 4562314 - 4561028" locus_tag="HV242_RS21955" class="clusterblast-orf" id="dummy-1_h1_9_46"  />
</g>
</svg>
