<svg xmlns="http://www.w3.org/2000/svg" xmlns:xlink="http://www.w3.org/1999/xlink" version="1.1" x="0" y="0" height="230" width="800" viewBox="0 0 800 230" preserveAspectRatio="none"  >
<g label="Query sequence" class="clusterblast-cluster"  >
<text x="5" y="20" class="clusterblast-acc"  >
Query sequence</text>
<line x1="10" y1="35" x2="778.0" y2="35" style="stroke-width:1; stroke:grey; "  />
<polygon points="43,35 48,30 53,30 53,40 48,40 43,35 " style="fill:#d81515; stroke-width:1; stroke:black; " description="&lt;b&gt;MCIC6FC_004335&lt;/b&gt;&lt;br&gt;hypothetical protein&lt;br&gt;Location: 75504 - 75789" locus_tag="MCIC6FC_004335" class="clusterblast-orf" id="dummy-1_q0_0_all"  />
<polygon points="55,35 60,30 109,30 109,40 60,40 55,35 " style="fill:#15d815; stroke-width:1; stroke:black; " description="&lt;b&gt;MCIC6FC_004336&lt;/b&gt;&lt;br&gt;hypothetical protein&lt;br&gt;Location: 75871 - 77545" locus_tag="MCIC6FC_004336" class="clusterblast-orf" id="dummy-1_q1_0_all"  />
<polygon points="113,35 118,30 135,30 135,40 118,40 113,35 " style="fill:#1597d8; stroke-width:1; stroke:black; " description="&lt;b&gt;MCIC6FC_004337&lt;/b&gt;&lt;br&gt;hypothetical protein&lt;br&gt;Location: 77653 - 78341" locus_tag="MCIC6FC_004337" class="clusterblast-orf" id="dummy-1_q2_0_all"  />
<polygon points="145,35 150,30 183,30 183,40 150,40 145,35 " style="fill:#9715d8; stroke-width:1; stroke:black; " description="&lt;b&gt;MCIC6FC_004338&lt;/b&gt;&lt;br&gt;hypothetical protein&lt;br&gt;Location: 78631 - 79827" locus_tag="MCIC6FC_004338" class="clusterblast-orf" id="dummy-1_q3_0_all"  />
<polygon points="186,35 191,30 220,30 220,40 191,40 186,35 " style="fill:#d89715; stroke-width:1; stroke:black; " description="&lt;b&gt;MCIC6FC_004339&lt;/b&gt;&lt;br&gt;hypothetical protein&lt;br&gt;Location: 79909 - 80961" locus_tag="MCIC6FC_004339" class="clusterblast-orf" id="dummy-1_q4_0_all"  />
<polygon points="229,40 400,40 405,35 400,30 229,30 229,40 " style="fill:#15d897; stroke-width:1; stroke:black; " description="&lt;b&gt;MCIC6FC_004340&lt;/b&gt;&lt;br&gt;hypothetical protein&lt;br&gt;Location: 81238 - 86681" locus_tag="MCIC6FC_004340" class="clusterblast-orf" id="dummy-1_q5_0_all"  />
<polygon points="411,40 430,40 435,35 430,30 411,30 411,40 " style="fill:#1515d8; stroke-width:1; stroke:black; " description="&lt;b&gt;MCIC6FC_004341&lt;/b&gt;&lt;br&gt;hypothetical protein&lt;br&gt;Location: 86843 - 87584" locus_tag="MCIC6FC_004341" class="clusterblast-orf" id="dummy-1_q6_0_all"  />
<polygon points="436,35 441,30 472,30 472,40 441,40 436,35 " style="fill:#d81597; stroke-width:1; stroke:black; " description="&lt;b&gt;MCIC6FC_004342&lt;/b&gt;&lt;br&gt;hypothetical protein&lt;br&gt;Location: 87637 - 88737" locus_tag="MCIC6FC_004342" class="clusterblast-orf" id="dummy-1_q7_0_all"  />
<polygon points="484,35 489,30 736,30 736,40 489,40 484,35 " style="fill:#97d815; stroke-width:1; stroke:black; " description="&lt;b&gt;MCIC6FC_004343&lt;/b&gt;&lt;br&gt;hypothetical protein&lt;br&gt;Location: 89114 - 96894" locus_tag="MCIC6FC_004343" class="clusterblast-orf" id="dummy-1_q8_0_all"  />
</g>
<g label="NZ_CP026377" description="NZ_CP026377 (1630727-1656972): Mixta gaviniae strain DSM 22758 chromosome, co... (81% of genes show similarity), thiopeptide" class="clusterblast-cluster"  >
<text x="5" y="70" class="clusterblast-acc"  >
<a xlink:href="https://antismash-db.secondarymetabolites.org/area.html?record=NZ_CP026377&amp;start=1630727&amp;end=1656972" target="_blank">NZ_CP026377 (1630727-1656972)</a>: Mixta gaviniae strain DSM 22758 chromosome, co... (81% of genes show similarity), thiopeptide</text>
<line x1="10" y1="85" x2="778.0" y2="85" style="stroke-width:1; stroke:grey; "  />
</g>
<g id="a1_000"  >
<polygon points="0,85 5,80 72,80 72,90 5,90 0,85 " style="fill:white; stroke-width:1; stroke:black; " description="&lt;b&gt;C2E15_RS07650&lt;/b&gt;&lt;br&gt;ComEC family protein&lt;br&gt;Location: 1655242 - 1652996" locus_tag="C2E15_RS07650" class="clusterblast-orf" id="dummy-1_h1_2_0"  />
</g>
<g id="a1_001"  >
<polygon points="79,85 84,80 88,80 88,90 84,90 79,85 " style="fill:#d81515; stroke-width:1; stroke:black; " description="&lt;b&gt;C2E15_RS07645&lt;/b&gt;&lt;br&gt;integration host factor subunit beta&lt;br&gt;Location: 1652790 - 1652506&lt;br&gt;&lt;br&gt;&lt;b&gt;BlastP hit with MCIC6FC_004335&lt;/b&gt;&lt;br&gt;Percentage identity: 95&lt;br&gt;Percentage coverage: 100&lt;br&gt;BLAST bit score: 185&lt;br&gt;E-value: 3.5e-45" locus_tag="C2E15_RS07645" class="clusterblast-orf" id="dummy-1_h1_2_1"  />
</g>
<g id="a1_002"  >
<polygon points="91,85 96,80 145,80 145,90 96,90 91,85 " style="fill:#15d815; stroke-width:1; stroke:black; " description="&lt;b&gt;C2E15_RS07640&lt;/b&gt;&lt;br&gt;30S ribosomal protein S1&lt;br&gt;Location: 1652419 - 1650746&lt;br&gt;&lt;br&gt;&lt;b&gt;BlastP hit with MCIC6FC_004336&lt;/b&gt;&lt;br&gt;Percentage identity: 96&lt;br&gt;Percentage coverage: 100&lt;br&gt;BLAST bit score: 1043&lt;br&gt;E-value: 7.2e-303" locus_tag="C2E15_RS07640" class="clusterblast-orf" id="dummy-1_h1_2_2"  />
</g>
<g id="a1_003"  >
<polygon points="149,85 154,80 171,80 171,90 154,90 149,85 " style="fill:#1597d8; stroke-width:1; stroke:black; " description="&lt;b&gt;C2E15_RS07635&lt;/b&gt;&lt;br&gt;(d)CMP kinase&lt;br&gt;Location: 1650628 - 1649945&lt;br&gt;&lt;br&gt;&lt;b&gt;BlastP hit with MCIC6FC_004337&lt;/b&gt;&lt;br&gt;Percentage identity: 81&lt;br&gt;Percentage coverage: 108&lt;br&gt;BLAST bit score: 343&lt;br&gt;E-value: 1.7e-92" locus_tag="C2E15_RS07635" class="clusterblast-orf" id="dummy-1_h1_2_3"  />
</g>
<g id="a1_004"  >
<polygon points="178,85 183,80 220,80 220,90 183,90 178,85 " style="fill:#9715d8; stroke-width:1; stroke:black; " description="&lt;b&gt;C2E15_RS07630&lt;/b&gt;&lt;br&gt;3-phosphoshikimate 1-carboxyvinyltransferase&lt;br&gt;Location: 1649736 - 1648450&lt;br&gt;&lt;br&gt;&lt;b&gt;BlastP hit with MCIC6FC_004338&lt;/b&gt;&lt;br&gt;Percentage identity: 81&lt;br&gt;Percentage coverage: 103&lt;br&gt;BLAST bit score: 611&lt;br&gt;E-value: 8.1e-173" locus_tag="C2E15_RS07630" class="clusterblast-orf" id="dummy-1_h1_2_4"  />
</g>
<g id="a1_005"  >
<polygon points="222,85 227,80 257,80 257,90 227,90 222,85 " style="fill:#d89715; stroke-width:1; stroke:black; " description="&lt;b&gt;C2E15_RS07625&lt;/b&gt;&lt;br&gt;3-phosphoserine/phosphohydroxythreonine transaminase&lt;br&gt;Location: 1648366 - 1647281&lt;br&gt;&lt;br&gt;&lt;b&gt;BlastP hit with MCIC6FC_004339&lt;/b&gt;&lt;br&gt;Percentage identity: 80&lt;br&gt;Percentage coverage: 104&lt;br&gt;BLAST bit score: 583&lt;br&gt;E-value: 1.2e-164" locus_tag="C2E15_RS07625" class="clusterblast-orf" id="dummy-1_h1_2_5"  />
</g>
<g id="a1_006"  >
<polygon points="267,90 319,90 324,85 319,80 267,80 267,90 " style="fill:#15d897; stroke-width:1; stroke:black; " description="&lt;b&gt;C2E15_RS07620&lt;/b&gt;&lt;br&gt;YcaO-like family protein&lt;br&gt;Location: 1646972 - 1645215&lt;br&gt;&lt;br&gt;&lt;b&gt;BlastP hit with MCIC6FC_004340&lt;/b&gt;&lt;br&gt;Percentage identity: 79&lt;br&gt;Percentage coverage: 39&lt;br&gt;BLAST bit score: 919&lt;br&gt;E-value: 5.4e-265" locus_tag="C2E15_RS07620" class="clusterblast-orf" id="dummy-1_h1_2_6"  />
</g>
<g id="a1_007"  >
<polygon points="336,90 358,90 363,85 358,80 336,80 336,90 " style="fill:#15d897; stroke-width:1; stroke:black; " description="&lt;b&gt;C2E15_RS07615&lt;/b&gt;&lt;br&gt;formate transporter FocA&lt;br&gt;Location: 1644865 - 1644008&lt;br&gt;&lt;br&gt;&lt;b&gt;BlastP hit with MCIC6FC_004340&lt;/b&gt;&lt;br&gt;Percentage identity: 80&lt;br&gt;Percentage coverage: 14&lt;br&gt;BLAST bit score: 340&lt;br&gt;E-value: 1e-90" locus_tag="C2E15_RS07615" class="clusterblast-orf" id="dummy-1_h1_2_7"  />
</g>
<g id="a1_008"  >
<polygon points="366,90 435,90 440,85 435,80 366,80 366,90 " style="fill:#15d897; stroke-width:1; stroke:black; " description="&lt;b&gt;C2E15_RS07610&lt;/b&gt;&lt;br&gt;formate C-acetyltransferase&lt;br&gt;Location: 1643922 - 1641634&lt;br&gt;&lt;br&gt;&lt;b&gt;BlastP hit with MCIC6FC_004340&lt;/b&gt;&lt;br&gt;Percentage identity: 89&lt;br&gt;Percentage coverage: 51&lt;br&gt;BLAST bit score: 1347&lt;br&gt;E-value: 0.0" locus_tag="C2E15_RS07610" class="clusterblast-orf" id="dummy-1_h1_2_8"  />
</g>
<g id="a1_009"  >
<polygon points="446,90 465,90 470,85 465,80 446,80 446,90 " style="fill:#1515d8; stroke-width:1; stroke:black; " description="&lt;b&gt;C2E15_RS07605&lt;/b&gt;&lt;br&gt;pyruvate formate lyase 1-activating protein&lt;br&gt;Location: 1641468 - 1640728&lt;br&gt;&lt;br&gt;&lt;b&gt;BlastP hit with MCIC6FC_004341&lt;/b&gt;&lt;br&gt;Percentage identity: 89&lt;br&gt;Percentage coverage: 100&lt;br&gt;BLAST bit score: 474&lt;br&gt;E-value: 5.9e-132" locus_tag="C2E15_RS07605" class="clusterblast-orf" id="dummy-1_h1_2_9"  />
</g>
<g id="a1_0010"  >
<polygon points="472,85 477,80 509,80 509,90 477,90 472,85 " style="fill:#d81597; stroke-width:1; stroke:black; " description="&lt;b&gt;C2E15_RS07600&lt;/b&gt;&lt;br&gt;MFS transporter&lt;br&gt;Location: 1640663 - 1639512&lt;br&gt;&lt;br&gt;&lt;b&gt;BlastP hit with MCIC6FC_004342&lt;/b&gt;&lt;br&gt;Percentage identity: 56&lt;br&gt;Percentage coverage: 152&lt;br&gt;BLAST bit score: 346&lt;br&gt;E-value: 2.4e-93" locus_tag="C2E15_RS07600" class="clusterblast-orf" id="dummy-1_h1_2_10"  />
</g>
<g id="a1_0011"  >
<polygon points="523,85 528,80 565,80 565,90 528,90 523,85 " style="fill:#97d815; stroke-width:1; stroke:black; " description="&lt;b&gt;C2E15_RS07595&lt;/b&gt;&lt;br&gt;serine--tRNA ligase&lt;br&gt;Location: 1639094 - 1637802&lt;br&gt;&lt;br&gt;&lt;b&gt;BlastP hit with MCIC6FC_004343&lt;/b&gt;&lt;br&gt;Percentage identity: 91&lt;br&gt;Percentage coverage: 18&lt;br&gt;BLAST bit score: 784&lt;br&gt;E-value: 4.3e-224" locus_tag="C2E15_RS07595" class="clusterblast-orf" id="dummy-1_h1_2_11"  />
</g>
<g id="a1_0012"  >
<polygon points="568,85 573,80 611,80 611,90 573,90 568,85 " style="fill:#97d815; stroke-width:1; stroke:black; " description="&lt;b&gt;C2E15_RS07590&lt;/b&gt;&lt;br&gt;replication-associated recombination protein A&lt;br&gt;Location: 1637701 - 1636358&lt;br&gt;&lt;br&gt;&lt;b&gt;BlastP hit with MCIC6FC_004343&lt;/b&gt;&lt;br&gt;Percentage identity: 85&lt;br&gt;Percentage coverage: 17&lt;br&gt;BLAST bit score: 669&lt;br&gt;E-value: 1.2e-189" locus_tag="C2E15_RS07590" class="clusterblast-orf" id="dummy-1_h1_2_12"  />
</g>
<g id="a1_0013"  >
<polygon points="612,85 617,80 631,80 631,90 617,90 612,85 " style="fill:white; stroke-width:1; stroke:black; " description="&lt;b&gt;C2E15_RS07585&lt;/b&gt;&lt;br&gt;outer membrane lipoprotein chaperone LolA&lt;br&gt;Location: 1636350 - 1635739" locus_tag="C2E15_RS07585" class="clusterblast-orf" id="dummy-1_h1_2_13"  />
</g>
<g id="a1_0014"  >
<polygon points="638,85 643,80 760,80 760,90 643,90 638,85 " style="fill:#97d815; stroke-width:1; stroke:black; " description="&lt;b&gt;C2E15_RS07580&lt;/b&gt;&lt;br&gt;DNA translocase FtsK 4TM domain-containing protein&lt;br&gt;Location: 1635545 - 1631779&lt;br&gt;&lt;br&gt;&lt;b&gt;BlastP hit with MCIC6FC_004343&lt;/b&gt;&lt;br&gt;Percentage identity: 55&lt;br&gt;Percentage coverage: 37&lt;br&gt;BLAST bit score: 492&lt;br&gt;E-value: 3.4e-136" locus_tag="C2E15_RS07580" class="clusterblast-orf" id="dummy-1_h1_2_14"  />
</g>
<g id="a1_0015"  >
<polygon points="763,85 768,80 780,80 780,90 768,90 763,85 " style="fill:white; stroke-width:1; stroke:black; " description="&lt;b&gt;C2E15_RS07575&lt;/b&gt;&lt;br&gt;leucine-responsive transcriptional regulator Lrp&lt;br&gt;Location: 1631660 - 1631166" locus_tag="C2E15_RS07575" class="clusterblast-orf" id="dummy-1_h1_2_15"  />
</g>
</svg>
