<svg xmlns="http://www.w3.org/2000/svg" xmlns:xlink="http://www.w3.org/1999/xlink" version="1.1" x="0" y="0" height="230" width="800" viewBox="0 0 800 230" preserveAspectRatio="none"  >
<g label="Query sequence" class="clusterblast-cluster"  >
<text x="5" y="20" class="clusterblast-acc"  >
Query sequence</text>
<line x1="10" y1="35" x2="778.0" y2="35" style="stroke-width:1; stroke:grey; "  />
<polygon points="4,40 12,40 17,35 12,30 4,30 4,40 " style="fill:#d81515; stroke-width:1; stroke:black; " description="&lt;b&gt;MCIC6FC_015386&lt;/b&gt;&lt;br&gt;hypothetical protein&lt;br&gt;Location: 35482 - 36303" locus_tag="MCIC6FC_015386" class="clusterblast-orf" id="dummy-1_q0_0_all"  />
<polygon points="18,35 23,30 61,30 61,40 23,40 18,35 " style="fill:#56d815; stroke-width:1; stroke:black; " description="&lt;b&gt;MCIC6FC_015387&lt;/b&gt;&lt;br&gt;hypothetical protein&lt;br&gt;Location: 36361 - 39224" locus_tag="MCIC6FC_015387" class="clusterblast-orf" id="dummy-1_q1_0_all"  />
<polygon points="62,40 88,40 93,35 88,30 62,30 62,40 " style="fill:#1597d8; stroke-width:1; stroke:black; " description="&lt;b&gt;MCIC6FC_015388&lt;/b&gt;&lt;br&gt;hypothetical protein&lt;br&gt;Location: 39319 - 41380" locus_tag="MCIC6FC_015388" class="clusterblast-orf" id="dummy-1_q2_0_all"  />
<polygon points="94,35 99,30 151,30 151,40 99,40 94,35 " style="fill:#9715d8; stroke-width:1; stroke:black; " description="&lt;b&gt;MCIC6FC_015389&lt;/b&gt;&lt;br&gt;hypothetical protein&lt;br&gt;Location: 41444 - 45243" locus_tag="MCIC6FC_015389" class="clusterblast-orf" id="dummy-1_q3_0_all"  />
<polygon points="153,35 158,30 195,30 195,40 158,40 153,35 " style="fill:#d85615; stroke-width:1; stroke:black; " description="&lt;b&gt;MCIC6FC_015390&lt;/b&gt;&lt;br&gt;hypothetical protein&lt;br&gt;Location: 45314 - 48104" locus_tag="MCIC6FC_015390" class="clusterblast-orf" id="dummy-1_q4_0_all"  />
<polygon points="195,35 200,30 235,30 235,40 200,40 195,35 " style="fill:#15d815; stroke-width:1; stroke:black; " description="&lt;b&gt;MCIC6FC_015391&lt;/b&gt;&lt;br&gt;hypothetical protein&lt;br&gt;Location: 48107 - 50772" locus_tag="MCIC6FC_015391" class="clusterblast-orf" id="dummy-1_q5_0_all"  />
<polygon points="237,40 241,40 246,35 241,30 237,30 237,40 " style="fill:#1556d8; stroke-width:1; stroke:black; " description="&lt;b&gt;MCIC6FC_015392&lt;/b&gt;&lt;br&gt;hypothetical protein&lt;br&gt;Location: 50925 - 51549" locus_tag="MCIC6FC_015392" class="clusterblast-orf" id="dummy-1_q6_0_all"  />
<polygon points="249,40 255,40 260,35 255,30 249,30 249,40 " style="fill:#d815d8; stroke-width:1; stroke:black; " description="&lt;b&gt;MCIC6FC_015393&lt;/b&gt;&lt;br&gt;hypothetical protein&lt;br&gt;Location: 51705 - 52431" locus_tag="MCIC6FC_015393" class="clusterblast-orf" id="dummy-1_q7_0_all"  />
<polygon points="263,35 268,30 271,30 271,40 268,40 263,35 " style="fill:#d89715; stroke-width:1; stroke:black; " description="&lt;b&gt;MCIC6FC_015394&lt;/b&gt;&lt;br&gt;hypothetical protein&lt;br&gt;Location: 52619 - 53210" locus_tag="MCIC6FC_015394" class="clusterblast-orf" id="dummy-1_q8_0_all"  />
<polygon points="276,40 282,40 287,35 282,30 276,30 276,40 " style="fill:#15d856; stroke-width:1; stroke:black; " description="&lt;b&gt;MCIC6FC_015395&lt;/b&gt;&lt;br&gt;hypothetical protein&lt;br&gt;Location: 53508 - 54261" locus_tag="MCIC6FC_015395" class="clusterblast-orf" id="dummy-1_q9_0_all"  />
<polygon points="288,40 477,40 482,35 477,30 288,30 288,40 " style="fill:#1515d8; stroke-width:1; stroke:black; " description="&lt;b&gt;MCIC6FC_015396&lt;/b&gt;&lt;br&gt;hypothetical protein&lt;br&gt;Location: 54312 - 67209" locus_tag="MCIC6FC_015396" class="clusterblast-orf" id="dummy-1_q10_0_all"  />
<polygon points="486,40 507,40 512,35 507,30 486,30 486,40 " style="fill:white; stroke-width:1; stroke:black; " description="&lt;b&gt;MCIC6FC_015397&lt;/b&gt;&lt;br&gt;hypothetical protein&lt;br&gt;Location: 67444 - 69197" locus_tag="MCIC6FC_015397" class="clusterblast-orf" id="dummy-1_q11_0_all"  />
<polygon points="515,35 520,30 565,30 565,40 520,40 515,35 " style="fill:#d81597; stroke-width:1; stroke:black; " description="&lt;b&gt;MCIC6FC_015398&lt;/b&gt;&lt;br&gt;hypothetical protein&lt;br&gt;Location: 69397 - 72707" locus_tag="MCIC6FC_015398" class="clusterblast-orf" id="dummy-1_q12_0_all"  />
<polygon points="568,40 639,40 644,35 639,30 568,30 568,40 " style="fill:#d8d815; stroke-width:1; stroke:black; " description="&lt;b&gt;MCIC6FC_015399&lt;/b&gt;&lt;br&gt;hypothetical protein&lt;br&gt;Location: 72884 - 77959" locus_tag="MCIC6FC_015399" class="clusterblast-orf" id="dummy-1_q13_0_all"  />
<polygon points="646,40 649,35 646,30 646,40 " style="fill:#15d897; stroke-width:1; stroke:black; " description="&lt;b&gt;MCIC6FC_015400&lt;/b&gt;&lt;br&gt;hypothetical protein&lt;br&gt;Location: 78042 - 78267" locus_tag="MCIC6FC_015400" class="clusterblast-orf" id="dummy-1_q14_0_all"  />
<polygon points="651,35 656,30 708,30 708,40 656,40 651,35 " style="fill:#5615d8; stroke-width:1; stroke:black; " description="&lt;b&gt;MCIC6FC_015401&lt;/b&gt;&lt;br&gt;hypothetical protein&lt;br&gt;Location: 78379 - 82156" locus_tag="MCIC6FC_015401" class="clusterblast-orf" id="dummy-1_q15_0_all"  />
<polygon points="711,35 716,30 731,30 731,40 716,40 711,35 " style="fill:#d81556; stroke-width:1; stroke:black; " description="&lt;b&gt;MCIC6FC_015402&lt;/b&gt;&lt;br&gt;hypothetical protein&lt;br&gt;Location: 82401 - 83691" locus_tag="MCIC6FC_015402" class="clusterblast-orf" id="dummy-1_q16_0_all"  />
<polygon points="734,35 739,30 743,30 743,40 739,40 734,35 " style="fill:#97d815; stroke-width:1; stroke:black; " description="&lt;b&gt;MCIC6FC_015403&lt;/b&gt;&lt;br&gt;hypothetical protein&lt;br&gt;Location: 83886 - 84522" locus_tag="MCIC6FC_015403" class="clusterblast-orf" id="dummy-1_q17_0_all"  />
<polygon points="745,35 750,30 775,30 775,40 750,40 745,35 " style="fill:#15d8d8; stroke-width:1; stroke:black; " description="&lt;b&gt;MCIC6FC_015404&lt;/b&gt;&lt;br&gt;hypothetical protein&lt;br&gt;Location: 84618 - 86626" locus_tag="MCIC6FC_015404" class="clusterblast-orf" id="dummy-1_q18_0_all"  />
</g>
<g label="NZ_JXWQ02000001" description="NZ_JXWQ02000001 (2019091-2070871): Pseudomonas veronii strain R4 scaffold0000... (82% of genes show similarity), NRPS" class="clusterblast-cluster"  >
<text x="5" y="70" class="clusterblast-acc"  >
<a xlink:href="https://antismash-db.secondarymetabolites.org/area.html?record=NZ_JXWQ02000001&amp;start=2019091&amp;end=2070871" target="_blank">NZ_JXWQ02000001 (2019091-2070871)</a>: Pseudomonas veronii strain R4 scaffold0000... (82% of genes show similarity), NRPS</text>
<line x1="10" y1="85" x2="778.0" y2="85" style="stroke-width:1; stroke:grey; "  />
</g>
<g id="a1_000"  >
<polygon points="0,90 7,90 12,85 7,80 0,80 0,90 " style="fill:white; stroke-width:1; stroke:black; " description="&lt;b&gt;SU91_RS09340&lt;/b&gt;&lt;br&gt;CheW domain-containing protein&lt;br&gt;Location: 2019092 - 2019904" locus_tag="SU91_RS09340" class="clusterblast-orf" id="dummy-1_h1_1_0"  />
</g>
<g id="a1_001"  >
<polygon points="13,90 15,90 20,85 15,80 13,80 13,90 " style="fill:white; stroke-width:1; stroke:black; " description="&lt;b&gt;SU91_RS09345&lt;/b&gt;&lt;br&gt;chemotaxis protein CheW&lt;br&gt;Location: 2019985 - 2020467" locus_tag="SU91_RS09345" class="clusterblast-orf" id="dummy-1_h1_1_1"  />
</g>
<g id="a1_002"  >
<polygon points="20,90 21,90 26,85 21,80 20,80 20,90 " style="fill:white; stroke-width:1; stroke:black; " description="&lt;b&gt;SU91_RS09350&lt;/b&gt;&lt;br&gt;DUF2802 domain-containing protein&lt;br&gt;Location: 2020468 - 2020860" locus_tag="SU91_RS09350" class="clusterblast-orf" id="dummy-1_h1_1_2"  />
</g>
<g id="a1_003"  >
<polygon points="29,90 38,90 43,85 38,80 29,80 29,90 " style="fill:#d81515; stroke-width:1; stroke:black; " description="&lt;b&gt;SU91_RS09355&lt;/b&gt;&lt;br&gt;lipid kinase YegS&lt;br&gt;Location: 2021034 - 2021954&lt;br&gt;&lt;br&gt;&lt;b&gt;BlastP hit with MCIC6FC_015386&lt;/b&gt;&lt;br&gt;Percentage identity: 90&lt;br&gt;Percentage coverage: 100&lt;br&gt;BLAST bit score: 467&lt;br&gt;E-value: 1.3e-129" locus_tag="SU91_RS09355" class="clusterblast-orf" id="dummy-1_h1_1_3"  />
</g>
<g id="a1_004"  >
<polygon points="42,85 47,80 52,80 52,90 47,90 42,85 " style="fill:#56d815; stroke-width:1; stroke:black; " description="&lt;b&gt;SU91_RS09360&lt;/b&gt;&lt;br&gt;response regulator transcription factor&lt;br&gt;Location: 2021913 - 2022572&lt;br&gt;&lt;br&gt;&lt;b&gt;BlastP hit with MCIC6FC_015387&lt;/b&gt;&lt;br&gt;Percentage identity: 80&lt;br&gt;Percentage coverage: 29&lt;br&gt;BLAST bit score: 290&lt;br&gt;E-value: 3.3e-76" locus_tag="SU91_RS09360" class="clusterblast-orf" id="dummy-1_h1_1_4"  />
</g>
<g id="a1_005"  >
<polygon points="52,85 57,80 65,80 65,90 57,90 52,85 " style="fill:#56d815; stroke-width:1; stroke:black; " description="&lt;b&gt;SU91_RS09365&lt;/b&gt;&lt;br&gt;sensor histidine kinase&lt;br&gt;Location: 2022569 - 2023462&lt;br&gt;&lt;br&gt;&lt;b&gt;BlastP hit with MCIC6FC_015387&lt;/b&gt;&lt;br&gt;Percentage identity: 79&lt;br&gt;Percentage coverage: 44&lt;br&gt;BLAST bit score: 434&lt;br&gt;E-value: 2.4e-119" locus_tag="SU91_RS09365" class="clusterblast-orf" id="dummy-1_h1_1_5"  />
</g>
<g id="a1_006"  >
<polygon points="70,85 75,80 76,80 76,90 75,90 70,85 " style="fill:#56d815; stroke-width:1; stroke:black; " description="&lt;b&gt;SU91_RS09370&lt;/b&gt;&lt;br&gt;hypothetical protein&lt;br&gt;Location: 2023742 - 2024188&lt;br&gt;&lt;br&gt;&lt;b&gt;BlastP hit with MCIC6FC_015387&lt;/b&gt;&lt;br&gt;Percentage identity: 84&lt;br&gt;Percentage coverage: 20&lt;br&gt;BLAST bit score: 226&lt;br&gt;E-value: 7.5e-57" locus_tag="SU91_RS09370" class="clusterblast-orf" id="dummy-1_h1_1_6"  />
</g>
<g id="a1_007"  >
<polygon points="85,90 94,90 99,85 94,80 85,80 85,90 " style="fill:#1597d8; stroke-width:1; stroke:black; " description="&lt;b&gt;SU91_RS09375&lt;/b&gt;&lt;br&gt;chemotaxis protein CheV&lt;br&gt;Location: 2024743 - 2025678&lt;br&gt;&lt;br&gt;&lt;b&gt;BlastP hit with MCIC6FC_015388&lt;/b&gt;&lt;br&gt;Percentage identity: 98&lt;br&gt;Percentage coverage: 50&lt;br&gt;BLAST bit score: 594&lt;br&gt;E-value: 9.7e-168" locus_tag="SU91_RS09375" class="clusterblast-orf" id="dummy-1_h1_1_7"  />
</g>
<g id="a1_008"  >
<polygon points="99,90 106,90 111,85 106,80 99,80 99,90 " style="fill:#1597d8; stroke-width:1; stroke:black; " description="&lt;b&gt;SU91_RS09380&lt;/b&gt;&lt;br&gt;MOSC domain-containing protein&lt;br&gt;Location: 2025718 - 2026524&lt;br&gt;&lt;br&gt;&lt;b&gt;BlastP hit with MCIC6FC_015388&lt;/b&gt;&lt;br&gt;Percentage identity: 87&lt;br&gt;Percentage coverage: 44&lt;br&gt;BLAST bit score: 482&lt;br&gt;E-value: 5.4e-134" locus_tag="SU91_RS09380" class="clusterblast-orf" id="dummy-1_h1_1_8"  />
</g>
<g id="a1_009"  >
<polygon points="112,85 117,80 117,80 117,90 117,90 112,85 " style="fill:white; stroke-width:1; stroke:black; " description="&lt;b&gt;SU91_RS09385&lt;/b&gt;&lt;br&gt;pyrimidine/purine nucleoside phosphorylase&lt;br&gt;Location: 2026587 - 2026871" locus_tag="SU91_RS09385" class="clusterblast-orf" id="dummy-1_h1_1_9"  />
</g>
<g id="a1_0010"  >
<polygon points="118,85 123,80 126,80 126,90 123,90 118,85 " style="fill:#9715d8; stroke-width:1; stroke:black; " description="&lt;b&gt;SU91_RS09390&lt;/b&gt;&lt;br&gt;exonuclease&lt;br&gt;Location: 2026936 - 2027478&lt;br&gt;&lt;br&gt;&lt;b&gt;BlastP hit with MCIC6FC_015389&lt;/b&gt;&lt;br&gt;Percentage identity: 91&lt;br&gt;Percentage coverage: 16&lt;br&gt;BLAST bit score: 347&lt;br&gt;E-value: 3.8e-93" locus_tag="SU91_RS09390" class="clusterblast-orf" id="dummy-1_h1_1_10"  />
</g>
<g id="a1_0011"  >
<polygon points="127,85 132,80 156,80 156,90 132,90 127,85 " style="fill:#9715d8; stroke-width:1; stroke:black; " description="&lt;b&gt;SU91_RS09395&lt;/b&gt;&lt;br&gt;acetyl-CoA carboxylase biotin carboxylase subunit&lt;br&gt;Location: 2027552 - 2029474&lt;br&gt;&lt;br&gt;&lt;b&gt;BlastP hit with MCIC6FC_015389&lt;/b&gt;&lt;br&gt;Percentage identity: 78&lt;br&gt;Percentage coverage: 53&lt;br&gt;BLAST bit score: 925&lt;br&gt;E-value: 5.8e-267" locus_tag="SU91_RS09395" class="clusterblast-orf" id="dummy-1_h1_1_11"  />
</g>
<g id="a1_0012"  >
<polygon points="156,85 161,80 167,80 167,90 161,90 156,85 " style="fill:#9715d8; stroke-width:1; stroke:black; " description="&lt;b&gt;SU91_RS09400&lt;/b&gt;&lt;br&gt;enoyl-CoA hydratase&lt;br&gt;Location: 2029462 - 2030229&lt;br&gt;&lt;br&gt;&lt;b&gt;BlastP hit with MCIC6FC_015389&lt;/b&gt;&lt;br&gt;Percentage identity: 85&lt;br&gt;Percentage coverage: 20&lt;br&gt;BLAST bit score: 368&lt;br&gt;E-value: 3.6e-99" locus_tag="SU91_RS09400" class="clusterblast-orf" id="dummy-1_h1_1_12"  />
</g>
<g id="a1_0013"  >
<polygon points="167,85 172,80 185,80 185,90 172,90 167,85 " style="fill:#d85615; stroke-width:1; stroke:black; " description="&lt;b&gt;SU91_RS09405&lt;/b&gt;&lt;br&gt;acyl-CoA dehydrogenase&lt;br&gt;Location: 2030226 - 2031383&lt;br&gt;&lt;br&gt;&lt;b&gt;BlastP hit with MCIC6FC_015390&lt;/b&gt;&lt;br&gt;Percentage identity: 96&lt;br&gt;Percentage coverage: 41&lt;br&gt;BLAST bit score: 742&lt;br&gt;E-value: 7.3e-212" locus_tag="SU91_RS09405" class="clusterblast-orf" id="dummy-1_h1_1_13"  />
</g>
<g id="a1_0014"  >
<polygon points="192,85 197,80 217,80 217,90 197,90 192,85 " style="fill:#d85615; stroke-width:1; stroke:black; " description="&lt;b&gt;SU91_RS09410&lt;/b&gt;&lt;br&gt;acyl-CoA carboxylase subunit beta&lt;br&gt;Location: 2031885 - 2033501&lt;br&gt;&lt;br&gt;&lt;b&gt;BlastP hit with MCIC6FC_015390&lt;/b&gt;&lt;br&gt;Percentage identity: 93&lt;br&gt;Percentage coverage: 58&lt;br&gt;BLAST bit score: 985&lt;br&gt;E-value: 5e-285" locus_tag="SU91_RS09410" class="clusterblast-orf" id="dummy-1_h1_1_14"  />
</g>
<g id="a1_0015"  >
<polygon points="218,85 223,80 244,80 244,90 223,90 218,85 " style="fill:#15d815; stroke-width:1; stroke:black; " description="&lt;b&gt;SU91_RS09415&lt;/b&gt;&lt;br&gt;DUF1446 domain-containing protein&lt;br&gt;Location: 2033577 - 2035355&lt;br&gt;&lt;br&gt;&lt;b&gt;BlastP hit with MCIC6FC_015391&lt;/b&gt;&lt;br&gt;Percentage identity: 92&lt;br&gt;Percentage coverage: 67&lt;br&gt;BLAST bit score: 1084&lt;br&gt;E-value: 0.0" locus_tag="SU91_RS09415" class="clusterblast-orf" id="dummy-1_h1_1_15"  />
</g>
<g id="a1_0016"  >
<polygon points="247,90 251,90 256,85 251,80 247,80 247,90 " style="fill:#1556d8; stroke-width:1; stroke:black; " description="&lt;b&gt;SU91_RS09420&lt;/b&gt;&lt;br&gt;TetR/AcrR family transcriptional regulator&lt;br&gt;Location: 2035510 - 2036133&lt;br&gt;&lt;br&gt;&lt;b&gt;BlastP hit with MCIC6FC_015392&lt;/b&gt;&lt;br&gt;Percentage identity: 93&lt;br&gt;Percentage coverage: 100&lt;br&gt;BLAST bit score: 376&lt;br&gt;E-value: 1.8e-102" locus_tag="SU91_RS09420" class="clusterblast-orf" id="dummy-1_h1_1_16"  />
</g>
<g id="a1_0017"  >
<polygon points="258,90 264,90 269,85 264,80 258,80 258,90 " style="fill:#d815d8; stroke-width:1; stroke:black; " description="&lt;b&gt;SU91_RS09425&lt;/b&gt;&lt;br&gt;transporter substrate-binding domain-containing protein&lt;br&gt;Location: 2036226 - 2037014&lt;br&gt;&lt;br&gt;&lt;b&gt;BlastP hit with MCIC6FC_015393&lt;/b&gt;&lt;br&gt;Percentage identity: 90&lt;br&gt;Percentage coverage: 100&lt;br&gt;BLAST bit score: 450&lt;br&gt;E-value: 1.2e-124" locus_tag="SU91_RS09425" class="clusterblast-orf" id="dummy-1_h1_1_17"  />
</g>
<g id="a1_0018"  >
<polygon points="270,85 275,80 278,80 278,90 275,90 270,85 " style="fill:#d89715; stroke-width:1; stroke:black; " description="&lt;b&gt;SU91_RS09430&lt;/b&gt;&lt;br&gt;RNA polymerase factor sigma-70&lt;br&gt;Location: 2037051 - 2037602&lt;br&gt;&lt;br&gt;&lt;b&gt;BlastP hit with MCIC6FC_015394&lt;/b&gt;&lt;br&gt;Percentage identity: 98&lt;br&gt;Percentage coverage: 93&lt;br&gt;BLAST bit score: 358&lt;br&gt;E-value: 6.4e-97" locus_tag="SU91_RS09430" class="clusterblast-orf" id="dummy-1_h1_1_18"  />
</g>
<g id="a1_0019"  >
<polygon points="283,90 289,90 294,85 289,80 283,80 283,90 " style="fill:#15d856; stroke-width:1; stroke:black; " description="&lt;b&gt;SU91_RS09435&lt;/b&gt;&lt;br&gt;thioesterase&lt;br&gt;Location: 2037906 - 2038658&lt;br&gt;&lt;br&gt;&lt;b&gt;BlastP hit with MCIC6FC_015395&lt;/b&gt;&lt;br&gt;Percentage identity: 89&lt;br&gt;Percentage coverage: 100&lt;br&gt;BLAST bit score: 450&lt;br&gt;E-value: 9.2e-125" locus_tag="SU91_RS09435" class="clusterblast-orf" id="dummy-1_h1_1_19"  />
</g>
<g id="a1_0020"  >
<polygon points="295,90 484,90 489,85 484,80 295,80 295,90 " style="fill:#1515d8; stroke-width:1; stroke:black; " description="&lt;b&gt;SU91_RS09440&lt;/b&gt;&lt;br&gt;non-ribosomal peptide synthetase&lt;br&gt;Location: 2038704 - 2051600&lt;br&gt;&lt;br&gt;&lt;b&gt;BlastP hit with MCIC6FC_015396&lt;/b&gt;&lt;br&gt;Percentage identity: 90&lt;br&gt;Percentage coverage: 100&lt;br&gt;BLAST bit score: 7818&lt;br&gt;E-value: 0.0" locus_tag="SU91_RS09440" class="clusterblast-orf" id="dummy-1_h1_1_20"  />
</g>
<g id="a1_0021"  >
<polygon points="491,90 527,90 532,85 527,80 491,80 491,90 " style="fill:white; stroke-width:1; stroke:black; " description="&lt;b&gt;SU91_RS09445&lt;/b&gt;&lt;br&gt;hypothetical protein&lt;br&gt;Location: 2051749 - 2054454" locus_tag="SU91_RS09445" class="clusterblast-orf" id="dummy-1_h1_1_21"  />
</g>
<g id="a1_0022"  >
<polygon points="537,90 572,90 577,85 572,80 537,80 537,90 " style="fill:white; stroke-width:1; stroke:black; " description="&lt;b&gt;SU91_RS09450&lt;/b&gt;&lt;br&gt;hypothetical protein&lt;br&gt;Location: 2054747 - 2057443" locus_tag="SU91_RS09450" class="clusterblast-orf" id="dummy-1_h1_1_22"  />
</g>
<g id="a1_0023"  >
<polygon points="578,85 583,80 590,80 590,90 583,90 578,85 " style="fill:#d81597; stroke-width:1; stroke:black; " description="&lt;b&gt;SU91_RS09455&lt;/b&gt;&lt;br&gt;thiol:disulfide interchange protein DsbG&lt;br&gt;Location: 2057517 - 2058278&lt;br&gt;&lt;br&gt;&lt;b&gt;BlastP hit with MCIC6FC_015398&lt;/b&gt;&lt;br&gt;Percentage identity: 92&lt;br&gt;Percentage coverage: 24&lt;br&gt;BLAST bit score: 416&lt;br&gt;E-value: 8.1e-114" locus_tag="SU91_RS09455" class="clusterblast-orf" id="dummy-1_h1_1_23"  />
</g>
<g id="a1_0024"  >
<polygon points="589,85 594,80 602,80 602,90 594,90 589,85 " style="fill:#d81597; stroke-width:1; stroke:black; " description="&lt;b&gt;SU91_RS09460&lt;/b&gt;&lt;br&gt;TlpA family protein disulfide reductase&lt;br&gt;Location: 2058254 - 2059114&lt;br&gt;&lt;br&gt;&lt;b&gt;BlastP hit with MCIC6FC_015398&lt;/b&gt;&lt;br&gt;Percentage identity: 93&lt;br&gt;Percentage coverage: 24&lt;br&gt;BLAST bit score: 480&lt;br&gt;E-value: 5.9e-133" locus_tag="SU91_RS09460" class="clusterblast-orf" id="dummy-1_h1_1_24"  />
</g>
<g id="a1_0025"  >
<polygon points="602,85 607,80 628,80 628,90 607,90 602,85 " style="fill:#d81597; stroke-width:1; stroke:black; " description="&lt;b&gt;SU91_RS09465&lt;/b&gt;&lt;br&gt;protein-disulfide reductase DsbD&lt;br&gt;Location: 2059114 - 2060841&lt;br&gt;&lt;br&gt;&lt;b&gt;BlastP hit with MCIC6FC_015398&lt;/b&gt;&lt;br&gt;Percentage identity: 89&lt;br&gt;Percentage coverage: 51&lt;br&gt;BLAST bit score: 946&lt;br&gt;E-value: 2.2e-273" locus_tag="SU91_RS09465" class="clusterblast-orf" id="dummy-1_h1_1_25"  />
</g>
<g id="a1_0026"  >
<polygon points="631,90 636,90 641,85 636,80 631,80 631,90 " style="fill:#d8d815; stroke-width:1; stroke:black; " description="&lt;b&gt;SU91_RS09470&lt;/b&gt;&lt;br&gt;response regulator&lt;br&gt;Location: 2061019 - 2061699&lt;br&gt;&lt;br&gt;&lt;b&gt;BlastP hit with MCIC6FC_015399&lt;/b&gt;&lt;br&gt;Percentage identity: 96&lt;br&gt;Percentage coverage: 16&lt;br&gt;BLAST bit score: 415&lt;br&gt;E-value: 1.9e-113" locus_tag="SU91_RS09470" class="clusterblast-orf" id="dummy-1_h1_1_26"  />
</g>
<g id="a1_0027"  >
<polygon points="641,90 656,90 661,85 656,80 641,80 641,90 " style="fill:#d8d815; stroke-width:1; stroke:black; " description="&lt;b&gt;SU91_RS09475&lt;/b&gt;&lt;br&gt;two-component sensor histidine kinase&lt;br&gt;Location: 2061699 - 2063018&lt;br&gt;&lt;br&gt;&lt;b&gt;BlastP hit with MCIC6FC_015399&lt;/b&gt;&lt;br&gt;Percentage identity: 88&lt;br&gt;Percentage coverage: 30&lt;br&gt;BLAST bit score: 720&lt;br&gt;E-value: 3.6e-205" locus_tag="SU91_RS09475" class="clusterblast-orf" id="dummy-1_h1_1_27"  />
</g>
<g id="a1_0028"  >
<polygon points="663,90 670,90 675,85 670,80 663,80 663,90 " style="fill:#d8d815; stroke-width:1; stroke:black; " description="&lt;b&gt;SU91_RS09480&lt;/b&gt;&lt;br&gt;N-acetylmuramoyl-L-alanine amidase&lt;br&gt;Location: 2063143 - 2063910&lt;br&gt;&lt;br&gt;&lt;b&gt;BlastP hit with MCIC6FC_015399&lt;/b&gt;&lt;br&gt;Percentage identity: 79&lt;br&gt;Percentage coverage: 16&lt;br&gt;BLAST bit score: 389&lt;br&gt;E-value: 1.1e-105" locus_tag="SU91_RS09480" class="clusterblast-orf" id="dummy-1_h1_1_28"  />
</g>
<g id="a1_0029"  >
<polygon points="677,90 694,90 699,85 694,80 677,80 677,90 " style="fill:#d8d815; stroke-width:1; stroke:black; " description="&lt;b&gt;SU91_RS09485&lt;/b&gt;&lt;br&gt;aspartate aminotransferase family protein&lt;br&gt;Location: 2064039 - 2065496&lt;br&gt;&lt;br&gt;&lt;b&gt;BlastP hit with MCIC6FC_015399&lt;/b&gt;&lt;br&gt;Percentage identity: 94&lt;br&gt;Percentage coverage: 33&lt;br&gt;BLAST bit score: 886&lt;br&gt;E-value: 3.8e-255" locus_tag="SU91_RS09485" class="clusterblast-orf" id="dummy-1_h1_1_29"  />
</g>
<g id="a1_0030"  >
<polygon points="700,90 703,85 700,80 700,90 " style="fill:#15d897; stroke-width:1; stroke:black; " description="&lt;b&gt;SU91_RS09490&lt;/b&gt;&lt;br&gt;MbtH family protein&lt;br&gt;Location: 2065579 - 2065800&lt;br&gt;&lt;br&gt;&lt;b&gt;BlastP hit with MCIC6FC_015400&lt;/b&gt;&lt;br&gt;Percentage identity: 97&lt;br&gt;Percentage coverage: 99&lt;br&gt;BLAST bit score: 155&lt;br&gt;E-value: 3.1e-36" locus_tag="SU91_RS09490" class="clusterblast-orf" id="dummy-1_h1_1_30"  />
</g>
<g id="a1_0031"  >
<polygon points="704,85 709,80 737,80 737,90 709,90 704,85 " style="fill:#5615d8; stroke-width:1; stroke:black; " description="&lt;b&gt;SU91_RS09495&lt;/b&gt;&lt;br&gt;mechanosensitive ion channel family protein&lt;br&gt;Location: 2065873 - 2068041&lt;br&gt;&lt;br&gt;&lt;b&gt;BlastP hit with MCIC6FC_015401&lt;/b&gt;&lt;br&gt;Percentage identity: 94&lt;br&gt;Percentage coverage: 57&lt;br&gt;BLAST bit score: 1246&lt;br&gt;E-value: 0.0" locus_tag="SU91_RS09495" class="clusterblast-orf" id="dummy-1_h1_1_31"  />
</g>
<g id="a1_0032"  >
<polygon points="743,85 748,80 762,80 762,90 748,90 743,85 " style="fill:#d81556; stroke-width:1; stroke:black; " description="&lt;b&gt;SU91_RS09500&lt;/b&gt;&lt;br&gt;M18 family aminopeptidase&lt;br&gt;Location: 2068434 - 2069723&lt;br&gt;&lt;br&gt;&lt;b&gt;BlastP hit with MCIC6FC_015402&lt;/b&gt;&lt;br&gt;Percentage identity: 99&lt;br&gt;Percentage coverage: 100&lt;br&gt;BLAST bit score: 875&lt;br&gt;E-value: 2.6e-252" locus_tag="SU91_RS09500" class="clusterblast-orf" id="dummy-1_h1_1_32"  />
</g>
<g id="a1_0033"  >
<polygon points="765,85 770,80 774,80 774,90 770,90 765,85 " style="fill:#97d815; stroke-width:1; stroke:black; " description="&lt;b&gt;SU91_RS09505&lt;/b&gt;&lt;br&gt;RluA family pseudouridine synthase&lt;br&gt;Location: 2069885 - 2070520&lt;br&gt;&lt;br&gt;&lt;b&gt;BlastP hit with MCIC6FC_015403&lt;/b&gt;&lt;br&gt;Percentage identity: 98&lt;br&gt;Percentage coverage: 100&lt;br&gt;BLAST bit score: 443&lt;br&gt;E-value: 9.5e-123" locus_tag="SU91_RS09505" class="clusterblast-orf" id="dummy-1_h1_1_33"  />
</g>
<g id="a1_0034"  >
<polygon points="776,85 780,80 780,90 776,85 " style="fill:#15d8d8; stroke-width:1; stroke:black; " description="&lt;b&gt;SU91_RS09510&lt;/b&gt;&lt;br&gt;cell division topological specificity factor MinE&lt;br&gt;Location: 2070617 - 2070871&lt;br&gt;&lt;br&gt;&lt;b&gt;BlastP hit with MCIC6FC_015404&lt;/b&gt;&lt;br&gt;Percentage identity: 100&lt;br&gt;Percentage coverage: 11&lt;br&gt;BLAST bit score: 134&lt;br&gt;E-value: 3.5e-29" locus_tag="SU91_RS09510" class="clusterblast-orf" id="dummy-1_h1_1_34"  />
</g>
</svg>
