<svg xmlns="http://www.w3.org/2000/svg" xmlns:xlink="http://www.w3.org/1999/xlink" version="1.1" x="0" y="0" height="230" width="800" viewBox="0 0 800 230" preserveAspectRatio="none"  >
<g label="Query sequence" class="clusterblast-cluster"  >
<text x="5" y="20" class="clusterblast-acc"  >
Query sequence</text>
<line x1="10" y1="35" x2="778.0" y2="35" style="stroke-width:1; stroke:grey; "  />
<polygon points="137,40 141,40 146,35 141,30 137,30 137,40 " style="fill:#d81515; stroke-width:1; stroke:black; " description="&lt;b&gt;MCIC6FC_020138&lt;/b&gt;&lt;br&gt;hypothetical protein&lt;br&gt;Location: 114 - 687" locus_tag="MCIC6FC_020138" class="clusterblast-orf" id="dummy-1_q0_0_all"  />
<polygon points="150,40 161,40 166,35 161,30 150,30 150,40 " style="fill:#4dd815; stroke-width:1; stroke:black; " description="&lt;b&gt;MCIC6FC_020139&lt;/b&gt;&lt;br&gt;hypothetical protein&lt;br&gt;Location: 960 - 1943" locus_tag="MCIC6FC_020139" class="clusterblast-orf" id="dummy-1_q1_0_all"  />
<polygon points="183,40 197,40 202,35 197,30 183,30 183,40 " style="fill:#1585d8; stroke-width:1; stroke:black; " description="&lt;b&gt;MCIC6FC_020140&lt;/b&gt;&lt;br&gt;hypothetical protein&lt;br&gt;Location: 2996 - 4226" locus_tag="MCIC6FC_020140" class="clusterblast-orf" id="dummy-1_q2_0_all"  />
<polygon points="208,40 224,40 229,35 224,30 208,30 208,40 " style="fill:#d815bc; stroke-width:1; stroke:black; " description="&lt;b&gt;MCIC6FC_020141&lt;/b&gt;&lt;br&gt;hypothetical protein&lt;br&gt;Location: 4568 - 5893" locus_tag="MCIC6FC_020141" class="clusterblast-orf" id="dummy-1_q3_0_all"  />
<polygon points="229,35 234,30 255,30 255,40 234,40 229,35 " style="fill:white; stroke-width:1; stroke:black; " description="&lt;b&gt;MCIC6FC_020142&lt;/b&gt;&lt;br&gt;hypothetical protein&lt;br&gt;Location: 5948 - 7562" locus_tag="MCIC6FC_020142" class="clusterblast-orf" id="dummy-1_q4_0_all"  />
<polygon points="277,35 282,30 407,30 407,40 282,40 277,35 " style="fill:#d8bc15; stroke-width:1; stroke:black; " description="&lt;b&gt;MCIC6FC_020143&lt;/b&gt;&lt;br&gt;hypothetical protein&lt;br&gt;Location: 8925 - 17130" locus_tag="MCIC6FC_020143" class="clusterblast-orf" id="dummy-1_q5_0_all"  />
<polygon points="408,35 413,30 422,30 422,40 413,40 408,35 " style="fill:#d8bc15; stroke-width:1; stroke:black; " description="&lt;b&gt;MCIC6FC_020144&lt;/b&gt;&lt;br&gt;hypothetical protein&lt;br&gt;Location: 17218 - 18097" locus_tag="MCIC6FC_020144" class="clusterblast-orf" id="dummy-1_q6_0_all"  />
<polygon points="424,35 429,30 435,30 435,40 429,40 424,35 " style="fill:#d8bc15; stroke-width:1; stroke:black; " description="&lt;b&gt;MCIC6FC_020145&lt;/b&gt;&lt;br&gt;hypothetical protein&lt;br&gt;Location: 18194 - 18878" locus_tag="MCIC6FC_020145" class="clusterblast-orf" id="dummy-1_q7_0_all"  />
<polygon points="462,35 467,30 493,30 493,40 467,40 462,35 " style="fill:#15d885; stroke-width:1; stroke:black; " description="&lt;b&gt;MCIC6FC_020146&lt;/b&gt;&lt;br&gt;hypothetical protein&lt;br&gt;Location: 20591 - 22534" locus_tag="MCIC6FC_020146" class="clusterblast-orf" id="dummy-1_q8_0_all"  />
<polygon points="496,35 501,30 513,30 513,40 501,40 496,35 " style="fill:white; stroke-width:1; stroke:black; " description="&lt;b&gt;MCIC6FC_020147&lt;/b&gt;&lt;br&gt;hypothetical protein&lt;br&gt;Location: 22743 - 23808" locus_tag="MCIC6FC_020147" class="clusterblast-orf" id="dummy-1_q9_0_all"  />
<polygon points="513,35 518,30 541,30 541,40 518,40 513,35 " style="fill:white; stroke-width:1; stroke:black; " description="&lt;b&gt;MCIC6FC_020148&lt;/b&gt;&lt;br&gt;hypothetical protein&lt;br&gt;Location: 23809 - 25562" locus_tag="MCIC6FC_020148" class="clusterblast-orf" id="dummy-1_q10_0_all"  />
<polygon points="542,35 547,30 590,30 590,40 547,40 542,35 " style="fill:#4d15d8; stroke-width:1; stroke:black; " description="&lt;b&gt;MCIC6FC_020149&lt;/b&gt;&lt;br&gt;hypothetical protein&lt;br&gt;Location: 25630 - 28698" locus_tag="MCIC6FC_020149" class="clusterblast-orf" id="dummy-1_q11_0_all"  />
<polygon points="591,35 596,30 642,30 642,40 596,40 591,35 " style="fill:white; stroke-width:1; stroke:black; " description="&lt;b&gt;MCIC6FC_020150&lt;/b&gt;&lt;br&gt;hypothetical protein&lt;br&gt;Location: 28737 - 31983" locus_tag="MCIC6FC_020150" class="clusterblast-orf" id="dummy-1_q12_0_all"  />
</g>
<g label="NC_010694" description="NC_010694 (3223032-3273088): Erwinia tasmaniensis Et1/99, complete genome (4% of genes show similarity), NRPS" class="clusterblast-cluster"  >
<text x="5" y="70" class="clusterblast-acc"  >
<a xlink:href="https://antismash-db.secondarymetabolites.org/area.html?record=NC_010694&amp;start=3223032&amp;end=3273088" target="_blank">NC_010694 (3223032-3273088)</a>: Erwinia tasmaniensis Et1/99, complete genome (4% of genes show similarity), NRPS</text>
<line x1="10" y1="85" x2="778.0" y2="85" style="stroke-width:1; stroke:grey; "  />
</g>
<g id="a1_000"  >
<polygon points="0,85 5,80 17,80 17,90 5,90 0,85 " style="fill:white; stroke-width:1; stroke:black; " description="&lt;b&gt;ETA_RS15675&lt;/b&gt;&lt;br&gt;23S rRNA (guanine(1835)-N(2))-methyltransferase RlmG&lt;br&gt;Location: 3223199 - 3224326" locus_tag="ETA_RS15675" class="clusterblast-orf" id="dummy-1_h1_2_0"  />
</g>
<g id="a1_001"  >
<polygon points="19,90 22,90 27,85 22,80 19,80 19,90 " style="fill:white; stroke-width:1; stroke:black; " description="&lt;b&gt;ETA_RS15680&lt;/b&gt;&lt;br&gt;M48 family metallopeptidase&lt;br&gt;Location: 3224409 - 3224912" locus_tag="ETA_RS15680" class="clusterblast-orf" id="dummy-1_h1_2_1"  />
</g>
<g id="a1_002"  >
<polygon points="28,85 33,80 46,80 46,90 33,90 28,85 " style="fill:white; stroke-width:1; stroke:black; " description="&lt;b&gt;ETA_RS15685&lt;/b&gt;&lt;br&gt;MFS transporter&lt;br&gt;Location: 3224967 - 3226121" locus_tag="ETA_RS15685" class="clusterblast-orf" id="dummy-1_h1_2_2"  />
</g>
<g id="a1_003"  >
<polygon points="47,85 52,80 57,80 57,90 52,90 47,85 " style="fill:white; stroke-width:1; stroke:black; " description="&lt;b&gt;ETA_RS15690&lt;/b&gt;&lt;br&gt;HAD family phosphatase&lt;br&gt;Location: 3226168 - 3226794" locus_tag="ETA_RS15690" class="clusterblast-orf" id="dummy-1_h1_2_3"  />
</g>
<g id="a1_004"  >
<polygon points="57,85 62,80 74,80 74,90 62,90 57,85 " style="fill:white; stroke-width:1; stroke:black; " description="&lt;b&gt;ETA_RS15695&lt;/b&gt;&lt;br&gt;alcohol dehydrogenase catalytic domain-containing protein&lt;br&gt;Location: 3226805 - 3227866" locus_tag="ETA_RS15695" class="clusterblast-orf" id="dummy-1_h1_2_4"  />
</g>
<g id="a1_005"  >
<polygon points="74,85 79,80 93,80 93,90 79,90 74,85 " style="fill:#15d885; stroke-width:1; stroke:black; " description="&lt;b&gt;ETA_RS15700&lt;/b&gt;&lt;br&gt;aspartate aminotransferase family protein&lt;br&gt;Location: 3227866 - 3229110&lt;br&gt;&lt;br&gt;&lt;b&gt;BlastP hit with MCIC6FC_020146&lt;/b&gt;&lt;br&gt;Percentage identity: 45&lt;br&gt;Percentage coverage: 19&lt;br&gt;BLAST bit score: 76&lt;br&gt;E-value: 8.5e-12" locus_tag="ETA_RS15700" class="clusterblast-orf" id="dummy-1_h1_2_5"  />
</g>
<g id="a1_006"  >
<polygon points="109,85 114,80 136,80 136,90 114,90 109,85 " style="fill:white; stroke-width:1; stroke:black; " description="&lt;b&gt;ETA_RS15705&lt;/b&gt;&lt;br&gt;hypothetical protein&lt;br&gt;Location: 3230108 - 3231799" locus_tag="ETA_RS15705" class="clusterblast-orf" id="dummy-1_h1_2_6"  />
</g>
<g id="a1_007"  >
<polygon points="142,90 153,90 158,85 153,80 142,80 142,90 " style="fill:white; stroke-width:1; stroke:black; " description="&lt;b&gt;ETA_RS15710&lt;/b&gt;&lt;br&gt;TerC family protein&lt;br&gt;Location: 3232211 - 3233191" locus_tag="ETA_RS15710" class="clusterblast-orf" id="dummy-1_h1_2_7"  />
</g>
<g id="a1_008"  >
<polygon points="162,90 176,90 181,85 176,80 162,80 162,90 " style="fill:white; stroke-width:1; stroke:black; " description="&lt;b&gt;ETA_RS15715&lt;/b&gt;&lt;br&gt;serine/threonine transporter SstT&lt;br&gt;Location: 3233435 - 3234667" locus_tag="ETA_RS15715" class="clusterblast-orf" id="dummy-1_h1_2_8"  />
</g>
<g id="a1_009"  >
<polygon points="191,90 196,90 201,85 196,80 191,80 191,90 " style="fill:white; stroke-width:1; stroke:black; " description="&lt;b&gt;ETA_RS15720&lt;/b&gt;&lt;br&gt;DedA family protein&lt;br&gt;Location: 3235249 - 3235923" locus_tag="ETA_RS15720" class="clusterblast-orf" id="dummy-1_h1_2_9"  />
</g>
<g id="a1_0010"  >
<polygon points="201,90 203,90 208,85 203,80 201,80 201,90 " style="fill:white; stroke-width:1; stroke:black; " description="&lt;b&gt;ETA_RS15725&lt;/b&gt;&lt;br&gt;EnvZ/OmpR regulon moderator MzrA&lt;br&gt;Location: 3235920 - 3236312" locus_tag="ETA_RS15725" class="clusterblast-orf" id="dummy-1_h1_2_10"  />
</g>
<g id="a1_0011"  >
<polygon points="210,90 211,90 216,85 211,80 210,80 210,90 " style="fill:white; stroke-width:1; stroke:black; " description="&lt;b&gt;ETA_RS15730&lt;/b&gt;&lt;br&gt;DUF1090 domain-containing protein&lt;br&gt;Location: 3236479 - 3236853" locus_tag="ETA_RS15730" class="clusterblast-orf" id="dummy-1_h1_2_11"  />
</g>
<g id="a1_0012"  >
<polygon points="217,90 217,90 222,85 217,80 217,80 217,90 " style="fill:white; stroke-width:1; stroke:black; " description="&lt;b&gt;ETA_RS15735&lt;/b&gt;&lt;br&gt;DUF883 domain-containing protein&lt;br&gt;Location: 3236899 - 3237204" locus_tag="ETA_RS15735" class="clusterblast-orf" id="dummy-1_h1_2_12"  />
</g>
<g id="a1_0013"  >
<polygon points="222,90 223,90 228,85 223,80 222,80 222,90 " style="fill:white; stroke-width:1; stroke:black; " description="&lt;b&gt;ETA_RS15740&lt;/b&gt;&lt;br&gt;membrane protein&lt;br&gt;Location: 3237206 - 3237598" locus_tag="ETA_RS15740" class="clusterblast-orf" id="dummy-1_h1_2_13"  />
</g>
<g id="a1_0014"  >
<polygon points="228,90 232,85 228,80 228,90 " style="fill:white; stroke-width:1; stroke:black; " description="&lt;b&gt;ETA_RS15745&lt;/b&gt;&lt;br&gt;membrane protein&lt;br&gt;Location: 3237598 - 3237879" locus_tag="ETA_RS15745" class="clusterblast-orf" id="dummy-1_h1_2_14"  />
</g>
<g id="a1_0015"  >
<polygon points="236,90 237,90 242,85 237,80 236,80 236,90 " style="fill:white; stroke-width:1; stroke:black; " description="&lt;b&gt;ETA_RS15750&lt;/b&gt;&lt;br&gt;DoxX family protein&lt;br&gt;Location: 3238089 - 3238481" locus_tag="ETA_RS15750" class="clusterblast-orf" id="dummy-1_h1_2_15"  />
</g>
<g id="a1_0016"  >
<polygon points="245,90 256,90 261,85 256,80 245,80 245,90 " style="fill:white; stroke-width:1; stroke:black; " description="&lt;b&gt;ETA_RS15755&lt;/b&gt;&lt;br&gt;glutathione S-transferase family protein&lt;br&gt;Location: 3238674 - 3239678" locus_tag="ETA_RS15755" class="clusterblast-orf" id="dummy-1_h1_2_16"  />
</g>
<g id="a1_0017"  >
<polygon points="263,90 266,85 263,80 263,90 " style="fill:white; stroke-width:1; stroke:black; " description="&lt;b&gt;ETA_RS20195&lt;/b&gt;&lt;br&gt;hypothetical protein&lt;br&gt;Location: 3239831 - 3239974" locus_tag="ETA_RS20195" class="clusterblast-orf" id="dummy-1_h1_2_17"  />
</g>
<g id="a1_0018"  >
<polygon points="266,85 271,80 280,80 280,90 271,90 266,85 " style="fill:white; stroke-width:1; stroke:black; " description="&lt;b&gt;ETA_RS15760&lt;/b&gt;&lt;br&gt;LysR family transcriptional regulator&lt;br&gt;Location: 3239993 - 3240895" locus_tag="ETA_RS15760" class="clusterblast-orf" id="dummy-1_h1_2_18"  />
</g>
<g id="a1_0019"  >
<polygon points="282,90 288,90 293,85 288,80 282,80 282,90 " style="fill:white; stroke-width:1; stroke:black; " description="&lt;b&gt;ETA_RS15765&lt;/b&gt;&lt;br&gt;pirin family protein&lt;br&gt;Location: 3241019 - 3241723" locus_tag="ETA_RS15765" class="clusterblast-orf" id="dummy-1_h1_2_19"  />
</g>
<g id="a1_0020"  >
<polygon points="304,90 308,85 304,80 304,90 " style="fill:white; stroke-width:1; stroke:black; " description="&lt;b&gt;ETA_RS20070&lt;/b&gt;&lt;br&gt;hypothetical protein&lt;br&gt;Location: 3242420 - 3242662" locus_tag="ETA_RS20070" class="clusterblast-orf" id="dummy-1_h1_2_20"  />
</g>
<g id="a1_0021"  >
<polygon points="314,90 469,90 474,85 469,80 314,80 314,90 " style="fill:#d8bc15; stroke-width:1; stroke:black; " description="&lt;b&gt;ETA_RS15770&lt;/b&gt;&lt;br&gt;non-ribosomal peptide synthetase&lt;br&gt;Location: 3243033 - 3253088&lt;br&gt;&lt;br&gt;&lt;b&gt;BlastP hit with MCIC6FC_020143&lt;/b&gt;&lt;br&gt;Percentage identity: 45&lt;br&gt;Percentage coverage: 108&lt;br&gt;BLAST bit score: 1676&lt;br&gt;E-value: 0.0&lt;br&gt;&lt;br&gt;&lt;b&gt;BlastP hit with MCIC6FC_020144&lt;/b&gt;&lt;br&gt;Percentage identity: 42&lt;br&gt;Percentage coverage: 128&lt;br&gt;BLAST bit score: 187&lt;br&gt;E-value: 1.3e-45&lt;br&gt;&lt;br&gt;&lt;b&gt;BlastP hit with MCIC6FC_020145&lt;/b&gt;&lt;br&gt;Percentage identity: 43&lt;br&gt;Percentage coverage: 119&lt;br&gt;BLAST bit score: 132&lt;br&gt;E-value: 5.3e-29" locus_tag="ETA_RS15770" class="clusterblast-orf" id="dummy-1_h1_2_21"  />
</g>
<g id="a1_0022"  >
<polygon points="475,90 481,90 486,85 481,80 475,80 475,90 " style="fill:white; stroke-width:1; stroke:black; " description="&lt;b&gt;ETA_RS15775&lt;/b&gt;&lt;br&gt;4'-phosphopantetheinyl transferase superfamily protein&lt;br&gt;Location: 3253153 - 3253839" locus_tag="ETA_RS15775" class="clusterblast-orf" id="dummy-1_h1_2_22"  />
</g>
<g id="a1_0023"  >
<polygon points="495,85 500,80 508,80 508,90 500,90 495,85 " style="fill:white; stroke-width:1; stroke:black; " description="&lt;b&gt;ETA_RS15780&lt;/b&gt;&lt;br&gt;16S rRNA (cytidine(1402)-2'-O)-methyltransferase&lt;br&gt;Location: 3254405 - 3255268" locus_tag="ETA_RS15780" class="clusterblast-orf" id="dummy-1_h1_2_23"  />
</g>
<g id="a1_0024"  >
<polygon points="509,90 536,90 541,85 536,80 509,80 509,90 " style="fill:white; stroke-width:1; stroke:black; " description="&lt;b&gt;ETA_RS15785&lt;/b&gt;&lt;br&gt;penicillin-binding protein activator&lt;br&gt;Location: 3255331 - 3257343" locus_tag="ETA_RS15785" class="clusterblast-orf" id="dummy-1_h1_2_24"  />
</g>
<g id="a1_0025"  >
<polygon points="540,90 542,90 547,85 542,80 540,80 540,90 " style="fill:white; stroke-width:1; stroke:black; " description="&lt;b&gt;ETA_RS15790&lt;/b&gt;&lt;br&gt;YraN family protein&lt;br&gt;Location: 3257301 - 3257693" locus_tag="ETA_RS15790" class="clusterblast-orf" id="dummy-1_h1_2_25"  />
</g>
<g id="a1_0026"  >
<polygon points="547,90 552,90 557,85 552,80 547,80 547,90 " style="fill:white; stroke-width:1; stroke:black; " description="&lt;b&gt;ETA_RS15795&lt;/b&gt;&lt;br&gt;DnaA initiator-associating protein DiaA&lt;br&gt;Location: 3257724 - 3258314" locus_tag="ETA_RS15795" class="clusterblast-orf" id="dummy-1_h1_2_26"  />
</g>
<g id="a1_0027"  >
<polygon points="557,90 561,90 566,85 561,80 557,80 557,90 " style="fill:white; stroke-width:1; stroke:black; " description="&lt;b&gt;ETA_RS15800&lt;/b&gt;&lt;br&gt;divisome-associated lipoprotein YraP&lt;br&gt;Location: 3258326 - 3258898" locus_tag="ETA_RS15800" class="clusterblast-orf" id="dummy-1_h1_2_27"  />
</g>
<g id="a1_0028"  >
<polygon points="566,85 571,80 597,80 597,90 571,90 566,85 " style="fill:white; stroke-width:1; stroke:black; " description="&lt;b&gt;ETA_RS15805&lt;/b&gt;&lt;br&gt;BglG family transcription antiterminator&lt;br&gt;Location: 3258937 - 3260871" locus_tag="ETA_RS15805" class="clusterblast-orf" id="dummy-1_h1_2_28"  />
</g>
<g id="a1_0029"  >
<polygon points="599,85 604,80 611,80 611,90 604,90 599,85 " style="fill:white; stroke-width:1; stroke:black; " description="&lt;b&gt;ETA_RS15810&lt;/b&gt;&lt;br&gt;KDGP aldolase family protein&lt;br&gt;Location: 3260980 - 3261720" locus_tag="ETA_RS15810" class="clusterblast-orf" id="dummy-1_h1_2_29"  />
</g>
<g id="a1_0030"  >
<polygon points="611,85 616,80 628,80 628,90 616,90 611,85 " style="fill:white; stroke-width:1; stroke:black; " description="&lt;b&gt;ETA_RS15815&lt;/b&gt;&lt;br&gt;DgaE family pyridoxal phosphate-dependent ammonia lyase&lt;br&gt;Location: 3261717 - 3262838" locus_tag="ETA_RS15815" class="clusterblast-orf" id="dummy-1_h1_2_30"  />
</g>
<g id="a1_0031"  >
<polygon points="628,85 633,80 646,80 646,90 633,90 628,85 " style="fill:white; stroke-width:1; stroke:black; " description="&lt;b&gt;ETA_RS15820&lt;/b&gt;&lt;br&gt;amidohydrolase/deacetylase family metallohydrolase&lt;br&gt;Location: 3262822 - 3263955" locus_tag="ETA_RS15820" class="clusterblast-orf" id="dummy-1_h1_2_31"  />
</g>
<g id="a1_0032"  >
<polygon points="647,85 652,80 657,80 657,90 652,90 647,85 " style="fill:white; stroke-width:1; stroke:black; " description="&lt;b&gt;ETA_RS15825&lt;/b&gt;&lt;br&gt;DUF4310 family protein&lt;br&gt;Location: 3264001 - 3264645" locus_tag="ETA_RS15825" class="clusterblast-orf" id="dummy-1_h1_2_32"  />
</g>
<g id="a1_0033"  >
<polygon points="657,85 662,80 670,80 670,90 662,90 657,85 " style="fill:white; stroke-width:1; stroke:black; " description="&lt;b&gt;ETA_RS15830&lt;/b&gt;&lt;br&gt;DUF4311 domain-containing protein&lt;br&gt;Location: 3264659 - 3265436" locus_tag="ETA_RS15830" class="clusterblast-orf" id="dummy-1_h1_2_33"  />
</g>
<g id="a1_0034"  >
<polygon points="670,85 675,80 675,80 675,90 675,90 670,85 " style="fill:white; stroke-width:1; stroke:black; " description="&lt;b&gt;ETA_RS15835&lt;/b&gt;&lt;br&gt;DUF4312 family protein&lt;br&gt;Location: 3265469 - 3265768" locus_tag="ETA_RS15835" class="clusterblast-orf" id="dummy-1_h1_2_34"  />
</g>
<g id="a1_0035"  >
<polygon points="675,85 680,80 680,80 680,90 680,90 675,85 " style="fill:white; stroke-width:1; stroke:black; " description="&lt;b&gt;ETA_RS20105&lt;/b&gt;&lt;br&gt;hypothetical protein&lt;br&gt;Location: 3265765 - 3266127" locus_tag="ETA_RS20105" class="clusterblast-orf" id="dummy-1_h1_2_35"  />
</g>
<g id="a1_0036"  >
<polygon points="681,85 686,80 686,80 686,90 686,90 681,85 " style="fill:white; stroke-width:1; stroke:black; " description="&lt;b&gt;ETA_RS20110&lt;/b&gt;&lt;br&gt;glycine dehydrogenase&lt;br&gt;Location: 3266143 - 3266487" locus_tag="ETA_RS20110" class="clusterblast-orf" id="dummy-1_h1_2_36"  />
</g>
<g id="a1_0037"  >
<polygon points="692,90 699,90 704,85 699,80 692,80 692,90 " style="fill:white; stroke-width:1; stroke:black; " description="&lt;b&gt;ETA_RS15845&lt;/b&gt;&lt;br&gt;hypothetical protein&lt;br&gt;Location: 3266876 - 3267601" locus_tag="ETA_RS15845" class="clusterblast-orf" id="dummy-1_h1_2_37"  />
</g>
<g id="a1_0038"  >
<polygon points="705,85 710,80 727,80 727,90 710,90 705,85 " style="fill:white; stroke-width:1; stroke:black; " description="&lt;b&gt;ETA_RS15850&lt;/b&gt;&lt;br&gt;metalloprotease PmbA&lt;br&gt;Location: 3267701 - 3269041" locus_tag="ETA_RS15850" class="clusterblast-orf" id="dummy-1_h1_2_38"  />
</g>
<g id="a1_0039"  >
<polygon points="729,90 733,90 738,85 733,80 729,80 729,90 " style="fill:white; stroke-width:1; stroke:black; " description="&lt;b&gt;ETA_RS15855&lt;/b&gt;&lt;br&gt;ribosome-associated protein&lt;br&gt;Location: 3269205 - 3269744" locus_tag="ETA_RS15855" class="clusterblast-orf" id="dummy-1_h1_2_39"  />
</g>
<g id="a1_0040"  >
<polygon points="739,85 744,80 761,80 761,90 744,90 739,85 " style="fill:white; stroke-width:1; stroke:black; " description="&lt;b&gt;ETA_RS15860&lt;/b&gt;&lt;br&gt;UDP-N-acetylmuramate:L-alanyl-gamma-D-glutamyl- meso-diaminopimelate ligase&lt;br&gt;Location: 3269846 - 3271198" locus_tag="ETA_RS15860" class="clusterblast-orf" id="dummy-1_h1_2_40"  />
</g>
<g id="a1_0041"  >
<polygon points="764,90 775,90 780,85 775,80 764,80 764,90 " style="fill:white; stroke-width:1; stroke:black; " description="&lt;b&gt;ETA_RS15865&lt;/b&gt;&lt;br&gt;class 1 fructose-bisphosphatase&lt;br&gt;Location: 3271371 - 3272369" locus_tag="ETA_RS15865" class="clusterblast-orf" id="dummy-1_h1_2_41"  />
</g>
</svg>
