<svg xmlns="http://www.w3.org/2000/svg" xmlns:xlink="http://www.w3.org/1999/xlink" version="1.1" x="0" y="0" height="230" width="800" viewBox="0 0 800 230" preserveAspectRatio="none"  >
<g label="Query sequence" class="clusterblast-cluster"  >
<text x="5" y="20" class="clusterblast-acc"  >
Query sequence</text>
<line x1="10" y1="35" x2="778.0" y2="35" style="stroke-width:1; stroke:grey; "  />
<polygon points="119,40 366,40 371,35 366,30 119,30 119,40 " style="fill:#d81515; stroke-width:1; stroke:black; " description="&lt;b&gt;MCIC6FC_020661&lt;/b&gt;&lt;br&gt;hypothetical protein&lt;br&gt;Location: 29 - 16470" locus_tag="MCIC6FC_020661" class="clusterblast-orf" id="dummy-1_q0_0_all"  />
<polygon points="372,35 377,30 423,30 423,40 377,40 372,35 " style="fill:#5cd815; stroke-width:1; stroke:black; " description="&lt;b&gt;MCIC6FC_020662&lt;/b&gt;&lt;br&gt;hypothetical protein&lt;br&gt;Location: 16511 - 19820" locus_tag="MCIC6FC_020662" class="clusterblast-orf" id="dummy-1_q1_0_all"  />
<polygon points="425,40 451,40 456,35 451,30 425,30 425,40 " style="fill:#15a3d8; stroke-width:1; stroke:black; " description="&lt;b&gt;MCIC6FC_020663&lt;/b&gt;&lt;br&gt;hypothetical protein&lt;br&gt;Location: 19984 - 21984" locus_tag="MCIC6FC_020663" class="clusterblast-orf" id="dummy-1_q2_0_all"  />
<polygon points="458,40 489,40 494,35 489,30 458,30 458,40 " style="fill:#c715d8; stroke-width:1; stroke:black; " description="&lt;b&gt;MCIC6FC_020664&lt;/b&gt;&lt;br&gt;hypothetical protein&lt;br&gt;Location: 22108 - 24458" locus_tag="MCIC6FC_020664" class="clusterblast-orf" id="dummy-1_q3_0_all"  />
<polygon points="495,40 499,35 495,30 495,40 " style="fill:#d88015; stroke-width:1; stroke:black; " description="&lt;b&gt;MCIC6FC_020665&lt;/b&gt;&lt;br&gt;hypothetical protein&lt;br&gt;Location: 24527 - 24765" locus_tag="MCIC6FC_020665" class="clusterblast-orf" id="dummy-1_q4_0_all"  />
<polygon points="500,35 505,30 537,30 537,40 505,40 500,35 " style="fill:#15d839; stroke-width:1; stroke:black; " description="&lt;b&gt;MCIC6FC_020666&lt;/b&gt;&lt;br&gt;hypothetical protein&lt;br&gt;Location: 24844 - 27235" locus_tag="MCIC6FC_020666" class="clusterblast-orf" id="dummy-1_q5_0_all"  />
<polygon points="540,35 545,30 560,30 560,40 545,40 540,35 " style="fill:#1539d8; stroke-width:1; stroke:black; " description="&lt;b&gt;MCIC6FC_020667&lt;/b&gt;&lt;br&gt;hypothetical protein&lt;br&gt;Location: 27428 - 28718" locus_tag="MCIC6FC_020667" class="clusterblast-orf" id="dummy-1_q6_0_all"  />
<polygon points="562,35 567,30 572,30 572,40 567,40 562,35 " style="fill:#d81580; stroke-width:1; stroke:black; " description="&lt;b&gt;MCIC6FC_020668&lt;/b&gt;&lt;br&gt;hypothetical protein&lt;br&gt;Location: 28904 - 29540" locus_tag="MCIC6FC_020668" class="clusterblast-orf" id="dummy-1_q7_0_all"  />
<polygon points="574,35 579,30 604,30 604,40 579,40 574,35 " style="fill:#c7d815; stroke-width:1; stroke:black; " description="&lt;b&gt;MCIC6FC_020669&lt;/b&gt;&lt;br&gt;hypothetical protein&lt;br&gt;Location: 29635 - 31644" locus_tag="MCIC6FC_020669" class="clusterblast-orf" id="dummy-1_q8_0_all"  />
<polygon points="606,40 633,40 638,35 633,30 606,30 606,40 " style="fill:#15d8a3; stroke-width:1; stroke:black; " description="&lt;b&gt;MCIC6FC_020670&lt;/b&gt;&lt;br&gt;hypothetical protein&lt;br&gt;Location: 31763 - 33859" locus_tag="MCIC6FC_020670" class="clusterblast-orf" id="dummy-1_q9_0_all"  />
<polygon points="648,35 653,30 660,30 660,40 653,40 648,35 " style="fill:#5c15d8; stroke-width:1; stroke:black; " description="&lt;b&gt;MCIC6FC_020671&lt;/b&gt;&lt;br&gt;hypothetical protein&lt;br&gt;Location: 34504 - 35290" locus_tag="MCIC6FC_020671" class="clusterblast-orf" id="dummy-1_q10_0_all"  />
</g>
<g label="NZ_CP023272" description="NZ_CP023272 (4196619-4249501): Pseudomonas lurida strain MYb11 chromosome, co... (48% of genes show similarity), NRPS" class="clusterblast-cluster"  >
<text x="5" y="70" class="clusterblast-acc"  >
<a xlink:href="https://antismash-db.secondarymetabolites.org/area.html?record=NZ_CP023272&amp;start=4196619&amp;end=4249501" target="_blank">NZ_CP023272 (4196619-4249501)</a>: Pseudomonas lurida strain MYb11 chromosome, co... (48% of genes show similarity), NRPS</text>
<line x1="10" y1="85" x2="778.0" y2="85" style="stroke-width:1; stroke:grey; "  />
</g>
<g id="a1_000"  >
<polygon points="0,90 1,90 6,85 1,80 0,80 0,90 " style="fill:white; stroke-width:1; stroke:black; " description="&lt;b&gt;CLM75_RS19305&lt;/b&gt;&lt;br&gt;DUF2802 domain-containing protein&lt;br&gt;Location: 4249088 - 4248696" locus_tag="CLM75_RS19305" class="clusterblast-orf" id="dummy-1_h1_3_0"  />
</g>
<g id="a1_001"  >
<polygon points="17,90 27,90 32,85 27,80 17,80 17,90 " style="fill:white; stroke-width:1; stroke:black; " description="&lt;b&gt;CLM75_RS19295&lt;/b&gt;&lt;br&gt;lipid kinase YegS&lt;br&gt;Location: 4247924 - 4247004" locus_tag="CLM75_RS19295" class="clusterblast-orf" id="dummy-1_h1_3_1"  />
</g>
<g id="a1_002"  >
<polygon points="31,85 36,80 41,80 41,90 36,90 31,85 " style="fill:white; stroke-width:1; stroke:black; " description="&lt;b&gt;CLM75_RS19290&lt;/b&gt;&lt;br&gt;response regulator transcription factor&lt;br&gt;Location: 4247045 - 4246386" locus_tag="CLM75_RS19290" class="clusterblast-orf" id="dummy-1_h1_3_2"  />
</g>
<g id="a1_003"  >
<polygon points="41,85 46,80 55,80 55,90 46,90 41,85 " style="fill:white; stroke-width:1; stroke:black; " description="&lt;b&gt;CLM75_RS19285&lt;/b&gt;&lt;br&gt;sensor histidine kinase&lt;br&gt;Location: 4246389 - 4245496" locus_tag="CLM75_RS19285" class="clusterblast-orf" id="dummy-1_h1_3_3"  />
</g>
<g id="a1_004"  >
<polygon points="60,85 65,80 67,80 67,90 65,90 60,85 " style="fill:white; stroke-width:1; stroke:black; " description="&lt;b&gt;CLM75_RS19280&lt;/b&gt;&lt;br&gt;hypothetical protein&lt;br&gt;Location: 4245125 - 4244679" locus_tag="CLM75_RS19280" class="clusterblast-orf" id="dummy-1_h1_3_4"  />
</g>
<g id="a1_005"  >
<polygon points="76,90 85,90 90,85 85,80 76,80 76,90 " style="fill:white; stroke-width:1; stroke:black; " description="&lt;b&gt;CLM75_RS19275&lt;/b&gt;&lt;br&gt;chemotaxis protein CheV&lt;br&gt;Location: 4244135 - 4243200" locus_tag="CLM75_RS19275" class="clusterblast-orf" id="dummy-1_h1_3_5"  />
</g>
<g id="a1_006"  >
<polygon points="91,90 98,90 103,85 98,80 91,80 91,90 " style="fill:white; stroke-width:1; stroke:black; " description="&lt;b&gt;CLM75_RS19270&lt;/b&gt;&lt;br&gt;MOSC domain-containing protein&lt;br&gt;Location: 4243160 - 4242354" locus_tag="CLM75_RS19270" class="clusterblast-orf" id="dummy-1_h1_3_6"  />
</g>
<g id="a1_007"  >
<polygon points="104,85 108,80 108,90 104,85 " style="fill:white; stroke-width:1; stroke:black; " description="&lt;b&gt;CLM75_RS19265&lt;/b&gt;&lt;br&gt;pyrimidine/purine nucleoside phosphorylase&lt;br&gt;Location: 4242287 - 4242003" locus_tag="CLM75_RS19265" class="clusterblast-orf" id="dummy-1_h1_3_7"  />
</g>
<g id="a1_008"  >
<polygon points="110,85 115,80 119,80 119,90 115,90 110,85 " style="fill:white; stroke-width:1; stroke:black; " description="&lt;b&gt;CLM75_RS19260&lt;/b&gt;&lt;br&gt;exonuclease&lt;br&gt;Location: 4241878 - 4241336" locus_tag="CLM75_RS19260" class="clusterblast-orf" id="dummy-1_h1_3_8"  />
</g>
<g id="a1_009"  >
<polygon points="120,85 125,80 149,80 149,90 125,90 120,85 " style="fill:white; stroke-width:1; stroke:black; " description="&lt;b&gt;CLM75_RS19255&lt;/b&gt;&lt;br&gt;acetyl/propionyl/methylcrotonyl-CoA carboxylase subunit alpha&lt;br&gt;Location: 4241263 - 4239380" locus_tag="CLM75_RS19255" class="clusterblast-orf" id="dummy-1_h1_3_9"  />
</g>
<g id="a1_0010"  >
<polygon points="151,85 156,80 163,80 163,90 156,90 151,85 " style="fill:white; stroke-width:1; stroke:black; " description="&lt;b&gt;CLM75_RS19250&lt;/b&gt;&lt;br&gt;enoyl-CoA hydratase/isomerase family protein&lt;br&gt;Location: 4239196 - 4238435" locus_tag="CLM75_RS19250" class="clusterblast-orf" id="dummy-1_h1_3_10"  />
</g>
<g id="a1_0011"  >
<polygon points="163,85 168,80 181,80 181,90 168,90 163,85 " style="fill:white; stroke-width:1; stroke:black; " description="&lt;b&gt;CLM75_RS19245&lt;/b&gt;&lt;br&gt;acyl-CoA dehydrogenase family protein&lt;br&gt;Location: 4238438 - 4237281" locus_tag="CLM75_RS19245" class="clusterblast-orf" id="dummy-1_h1_3_11"  />
</g>
<g id="a1_0012"  >
<polygon points="181,85 186,80 206,80 206,90 186,90 181,85 " style="fill:white; stroke-width:1; stroke:black; " description="&lt;b&gt;CLM75_RS19240&lt;/b&gt;&lt;br&gt;acyl-CoA carboxylase subunit beta&lt;br&gt;Location: 4237264 - 4235648" locus_tag="CLM75_RS19240" class="clusterblast-orf" id="dummy-1_h1_3_12"  />
</g>
<g id="a1_0013"  >
<polygon points="206,85 211,80 219,80 219,90 211,90 206,85 " style="fill:white; stroke-width:1; stroke:black; " description="&lt;b&gt;CLM75_RS19235&lt;/b&gt;&lt;br&gt;SDR family oxidoreductase&lt;br&gt;Location: 4235644 - 4234772" locus_tag="CLM75_RS19235" class="clusterblast-orf" id="dummy-1_h1_3_13"  />
</g>
<g id="a1_0014"  >
<polygon points="220,85 225,80 247,80 247,90 225,90 220,85 " style="fill:white; stroke-width:1; stroke:black; " description="&lt;b&gt;CLM75_RS19230&lt;/b&gt;&lt;br&gt;DUF1446 domain-containing protein&lt;br&gt;Location: 4234758 - 4232980" locus_tag="CLM75_RS19230" class="clusterblast-orf" id="dummy-1_h1_3_14"  />
</g>
<g id="a1_0015"  >
<polygon points="249,90 254,90 259,85 254,80 249,80 249,90 " style="fill:white; stroke-width:1; stroke:black; " description="&lt;b&gt;CLM75_RS19225&lt;/b&gt;&lt;br&gt;TetR family transcriptional regulator&lt;br&gt;Location: 4232826 - 4232203" locus_tag="CLM75_RS19225" class="clusterblast-orf" id="dummy-1_h1_3_15"  />
</g>
<g id="a1_0016"  >
<polygon points="260,90 267,90 272,85 267,80 260,80 260,90 " style="fill:white; stroke-width:1; stroke:black; " description="&lt;b&gt;CLM75_RS19220&lt;/b&gt;&lt;br&gt;transporter substrate-binding domain-containing protein&lt;br&gt;Location: 4232108 - 4231320" locus_tag="CLM75_RS19220" class="clusterblast-orf" id="dummy-1_h1_3_16"  />
</g>
<g id="a1_0017"  >
<polygon points="275,85 280,80 283,80 283,90 280,90 275,85 " style="fill:white; stroke-width:1; stroke:black; " description="&lt;b&gt;CLM75_RS19215&lt;/b&gt;&lt;br&gt;RNA polymerase factor sigma-70&lt;br&gt;Location: 4231159 - 4230608" locus_tag="CLM75_RS19215" class="clusterblast-orf" id="dummy-1_h1_3_17"  />
</g>
<g id="a1_0018"  >
<polygon points="288,90 295,90 300,85 295,80 288,80 288,90 " style="fill:white; stroke-width:1; stroke:black; " description="&lt;b&gt;CLM75_RS19210&lt;/b&gt;&lt;br&gt;thioesterase&lt;br&gt;Location: 4230305 - 4229553" locus_tag="CLM75_RS19210" class="clusterblast-orf" id="dummy-1_h1_3_18"  />
</g>
<g id="a1_0019"  >
<polygon points="300,90 493,90 498,85 493,80 300,80 300,90 " style="fill:#d81515; stroke-width:1; stroke:black; " description="&lt;b&gt;CLM75_RS19205&lt;/b&gt;&lt;br&gt;non-ribosomal peptide synthetase&lt;br&gt;Location: 4229501 - 4216620&lt;br&gt;&lt;br&gt;&lt;b&gt;BlastP hit with MCIC6FC_020661&lt;/b&gt;&lt;br&gt;Percentage identity: 97&lt;br&gt;Percentage coverage: 63&lt;br&gt;BLAST bit score: 6374&lt;br&gt;E-value: 0.0" locus_tag="CLM75_RS19205" class="clusterblast-orf" id="dummy-1_h1_3_19"  />
</g>
<g id="a1_0020"  >
<polygon points="500,85 505,80 512,80 512,90 505,90 500,85 " style="fill:#5cd815; stroke-width:1; stroke:black; " description="&lt;b&gt;CLM75_RS19200&lt;/b&gt;&lt;br&gt;thiol:disulfide interchange protein DsbG&lt;br&gt;Location: 4216484 - 4215723&lt;br&gt;&lt;br&gt;&lt;b&gt;BlastP hit with MCIC6FC_020662&lt;/b&gt;&lt;br&gt;Percentage identity: 85&lt;br&gt;Percentage coverage: 25&lt;br&gt;BLAST bit score: 418&lt;br&gt;E-value: 1.6e-114" locus_tag="CLM75_RS19200" class="clusterblast-orf" id="dummy-1_h1_3_20"  />
</g>
<g id="a1_0021"  >
<polygon points="512,85 517,80 525,80 525,90 517,90 512,85 " style="fill:#5cd815; stroke-width:1; stroke:black; " description="&lt;b&gt;CLM75_RS19195&lt;/b&gt;&lt;br&gt;TlpA family protein disulfide reductase&lt;br&gt;Location: 4215747 - 4214902&lt;br&gt;&lt;br&gt;&lt;b&gt;BlastP hit with MCIC6FC_020662&lt;/b&gt;&lt;br&gt;Percentage identity: 98&lt;br&gt;Percentage coverage: 23&lt;br&gt;BLAST bit score: 459&lt;br&gt;E-value: 8.1e-127" locus_tag="CLM75_RS19195" class="clusterblast-orf" id="dummy-1_h1_3_21"  />
</g>
<g id="a1_0022"  >
<polygon points="525,85 530,80 551,80 551,90 530,90 525,85 " style="fill:#5cd815; stroke-width:1; stroke:black; " description="&lt;b&gt;CLM75_RS19190&lt;/b&gt;&lt;br&gt;protein-disulfide reductase DsbD&lt;br&gt;Location: 4214902 - 4213178&lt;br&gt;&lt;br&gt;&lt;b&gt;BlastP hit with MCIC6FC_020662&lt;/b&gt;&lt;br&gt;Percentage identity: 98&lt;br&gt;Percentage coverage: 53&lt;br&gt;BLAST bit score: 1019&lt;br&gt;E-value: 2e-295" locus_tag="CLM75_RS19190" class="clusterblast-orf" id="dummy-1_h1_3_22"  />
</g>
<g id="a1_0023"  >
<polygon points="554,90 559,90 564,85 559,80 554,80 554,90 " style="fill:#15a3d8; stroke-width:1; stroke:black; " description="&lt;b&gt;CLM75_RS19185&lt;/b&gt;&lt;br&gt;response regulator&lt;br&gt;Location: 4213013 - 4212333&lt;br&gt;&lt;br&gt;&lt;b&gt;BlastP hit with MCIC6FC_020663&lt;/b&gt;&lt;br&gt;Percentage identity: 93&lt;br&gt;Percentage coverage: 34&lt;br&gt;BLAST bit score: 378&lt;br&gt;E-value: 1.5e-102" locus_tag="CLM75_RS19185" class="clusterblast-orf" id="dummy-1_h1_3_23"  />
</g>
<g id="a1_0024"  >
<polygon points="564,90 579,90 584,85 579,80 564,80 564,90 " style="fill:#15a3d8; stroke-width:1; stroke:black; " description="&lt;b&gt;CLM75_RS19180&lt;/b&gt;&lt;br&gt;two-component sensor histidine kinase&lt;br&gt;Location: 4212336 - 4211014&lt;br&gt;&lt;br&gt;&lt;b&gt;BlastP hit with MCIC6FC_020663&lt;/b&gt;&lt;br&gt;Percentage identity: 97&lt;br&gt;Percentage coverage: 69&lt;br&gt;BLAST bit score: 807&lt;br&gt;E-value: 9.8e-232" locus_tag="CLM75_RS19180" class="clusterblast-orf" id="dummy-1_h1_3_24"  />
</g>
<g id="a1_0025"  >
<polygon points="586,90 593,90 598,85 593,80 586,80 586,90 " style="fill:#c715d8; stroke-width:1; stroke:black; " description="&lt;b&gt;CLM75_RS19175&lt;/b&gt;&lt;br&gt;N-acetylmuramoyl-L-alanine amidase&lt;br&gt;Location: 4210889 - 4210122&lt;br&gt;&lt;br&gt;&lt;b&gt;BlastP hit with MCIC6FC_020664&lt;/b&gt;&lt;br&gt;Percentage identity: 92&lt;br&gt;Percentage coverage: 34&lt;br&gt;BLAST bit score: 499&lt;br&gt;E-value: 5.2e-139" locus_tag="CLM75_RS19175" class="clusterblast-orf" id="dummy-1_h1_3_25"  />
</g>
<g id="a1_0026"  >
<polygon points="601,90 617,90 622,85 617,80 601,80 601,90 " style="fill:#c715d8; stroke-width:1; stroke:black; " description="&lt;b&gt;CLM75_RS19170&lt;/b&gt;&lt;br&gt;aspartate aminotransferase family protein&lt;br&gt;Location: 4209933 - 4208539&lt;br&gt;&lt;br&gt;&lt;b&gt;BlastP hit with MCIC6FC_020664&lt;/b&gt;&lt;br&gt;Percentage identity: 99&lt;br&gt;Percentage coverage: 62&lt;br&gt;BLAST bit score: 913&lt;br&gt;E-value: 1.5e-263" locus_tag="CLM75_RS19170" class="clusterblast-orf" id="dummy-1_h1_3_26"  />
</g>
<g id="a1_0027"  >
<polygon points="624,90 627,85 624,80 624,90 " style="fill:#d88015; stroke-width:1; stroke:black; " description="&lt;b&gt;CLM75_RS19165&lt;/b&gt;&lt;br&gt;MbtH family protein&lt;br&gt;Location: 4208456 - 4208232&lt;br&gt;&lt;br&gt;&lt;b&gt;BlastP hit with MCIC6FC_020665&lt;/b&gt;&lt;br&gt;Percentage identity: 97&lt;br&gt;Percentage coverage: 95&lt;br&gt;BLAST bit score: 131&lt;br&gt;E-value: 4.1e-29" locus_tag="CLM75_RS19165" class="clusterblast-orf" id="dummy-1_h1_3_27"  />
</g>
<g id="a1_0028"  >
<polygon points="628,85 633,80 662,80 662,90 633,90 628,85 " style="fill:#15d839; stroke-width:1; stroke:black; " description="&lt;b&gt;CLM75_RS19160&lt;/b&gt;&lt;br&gt;mechanosensitive ion channel family protein&lt;br&gt;Location: 4208152 - 4205984&lt;br&gt;&lt;br&gt;&lt;b&gt;BlastP hit with MCIC6FC_020666&lt;/b&gt;&lt;br&gt;Percentage identity: 95&lt;br&gt;Percentage coverage: 97&lt;br&gt;BLAST bit score: 1284&lt;br&gt;E-value: 0.0" locus_tag="CLM75_RS19160" class="clusterblast-orf" id="dummy-1_h1_3_28"  />
</g>
<g id="a1_0029"  >
<polygon points="668,85 673,80 688,80 688,90 673,90 668,85 " style="fill:#1539d8; stroke-width:1; stroke:black; " description="&lt;b&gt;CLM75_RS19155&lt;/b&gt;&lt;br&gt;M18 family aminopeptidase&lt;br&gt;Location: 4205569 - 4204280&lt;br&gt;&lt;br&gt;&lt;b&gt;BlastP hit with MCIC6FC_020667&lt;/b&gt;&lt;br&gt;Percentage identity: 100&lt;br&gt;Percentage coverage: 100&lt;br&gt;BLAST bit score: 879&lt;br&gt;E-value: 1.8e-253" locus_tag="CLM75_RS19155" class="clusterblast-orf" id="dummy-1_h1_3_29"  />
</g>
<g id="a1_0030"  >
<polygon points="691,85 696,80 700,80 700,90 696,90 691,85 " style="fill:#d81580; stroke-width:1; stroke:black; " description="&lt;b&gt;CLM75_RS19145&lt;/b&gt;&lt;br&gt;RluA family pseudouridine synthase&lt;br&gt;Location: 4204093 - 4203458&lt;br&gt;&lt;br&gt;&lt;b&gt;BlastP hit with MCIC6FC_020668&lt;/b&gt;&lt;br&gt;Percentage identity: 100&lt;br&gt;Percentage coverage: 100&lt;br&gt;BLAST bit score: 452&lt;br&gt;E-value: 2e-125" locus_tag="CLM75_RS19145" class="clusterblast-orf" id="dummy-1_h1_3_30"  />
</g>
<g id="a1_0031"  >
<polygon points="702,85 706,80 706,90 702,85 " style="fill:#c7d815; stroke-width:1; stroke:black; " description="&lt;b&gt;CLM75_RS19140&lt;/b&gt;&lt;br&gt;cell division topological specificity factor MinE&lt;br&gt;Location: 4203361 - 4203107&lt;br&gt;&lt;br&gt;&lt;b&gt;BlastP hit with MCIC6FC_020669&lt;/b&gt;&lt;br&gt;Percentage identity: 100&lt;br&gt;Percentage coverage: 12&lt;br&gt;BLAST bit score: 134&lt;br&gt;E-value: 3.1e-29" locus_tag="CLM75_RS19140" class="clusterblast-orf" id="dummy-1_h1_3_31"  />
</g>
<g id="a1_0032"  >
<polygon points="706,85 711,80 718,80 718,90 711,90 706,85 " style="fill:#c7d815; stroke-width:1; stroke:black; " description="&lt;b&gt;CLM75_RS19135&lt;/b&gt;&lt;br&gt;septum site-determining protein MinD&lt;br&gt;Location: 4203103 - 4202291&lt;br&gt;&lt;br&gt;&lt;b&gt;BlastP hit with MCIC6FC_020669&lt;/b&gt;&lt;br&gt;Percentage identity: 100&lt;br&gt;Percentage coverage: 49&lt;br&gt;BLAST bit score: 503&lt;br&gt;E-value: 3.3e-140" locus_tag="CLM75_RS19135" class="clusterblast-orf" id="dummy-1_h1_3_32"  />
</g>
<g id="a1_0033"  >
<polygon points="721,85 726,80 733,80 733,90 726,90 721,85 " style="fill:#c7d815; stroke-width:1; stroke:black; " description="&lt;b&gt;CLM75_RS19130&lt;/b&gt;&lt;br&gt;septum site-determining protein MinC&lt;br&gt;Location: 4202091 - 4201354&lt;br&gt;&lt;br&gt;&lt;b&gt;BlastP hit with MCIC6FC_020669&lt;/b&gt;&lt;br&gt;Percentage identity: 80&lt;br&gt;Percentage coverage: 45&lt;br&gt;BLAST bit score: 346&lt;br&gt;E-value: 6.8e-93" locus_tag="CLM75_RS19130" class="clusterblast-orf" id="dummy-1_h1_3_33"  />
</g>
<g id="a1_0034"  >
<polygon points="735,90 744,90 749,85 744,80 735,80 735,90 " style="fill:#15d8a3; stroke-width:1; stroke:black; " description="&lt;b&gt;CLM75_RS19125&lt;/b&gt;&lt;br&gt;lipid A biosynthesis lauroyl acyltransferase&lt;br&gt;Location: 4201234 - 4200302&lt;br&gt;&lt;br&gt;&lt;b&gt;BlastP hit with MCIC6FC_020670&lt;/b&gt;&lt;br&gt;Percentage identity: 99&lt;br&gt;Percentage coverage: 45&lt;br&gt;BLAST bit score: 610&lt;br&gt;E-value: 2.4e-172" locus_tag="CLM75_RS19125" class="clusterblast-orf" id="dummy-1_h1_3_34"  />
</g>
<g id="a1_0035"  >
<polygon points="749,90 762,90 767,85 762,80 749,80 749,90 " style="fill:#15d8a3; stroke-width:1; stroke:black; " description="&lt;b&gt;CLM75_RS19120&lt;/b&gt;&lt;br&gt;patatin-like phospholipase family protein&lt;br&gt;Location: 4200269 - 4199139&lt;br&gt;&lt;br&gt;&lt;b&gt;BlastP hit with MCIC6FC_020670&lt;/b&gt;&lt;br&gt;Percentage identity: 98&lt;br&gt;Percentage coverage: 55&lt;br&gt;BLAST bit score: 707&lt;br&gt;E-value: 1.1e-201" locus_tag="CLM75_RS19120" class="clusterblast-orf" id="dummy-1_h1_3_35"  />
</g>
<g id="a1_0036"  >
<polygon points="767,85 772,80 780,80 780,90 772,90 767,85 " style="fill:#5c15d8; stroke-width:1; stroke:black; " description="&lt;b&gt;CLM75_RS19115&lt;/b&gt;&lt;br&gt;membrane protein&lt;br&gt;Location: 4199090 - 4198305&lt;br&gt;&lt;br&gt;&lt;b&gt;BlastP hit with MCIC6FC_020671&lt;/b&gt;&lt;br&gt;Percentage identity: 100&lt;br&gt;Percentage coverage: 100&lt;br&gt;BLAST bit score: 566&lt;br&gt;E-value: 1.2e-159" locus_tag="CLM75_RS19115" class="clusterblast-orf" id="dummy-1_h1_3_36"  />
</g>
</svg>
