<svg xmlns="http://www.w3.org/2000/svg" xmlns:xlink="http://www.w3.org/1999/xlink" version="1.1" x="0" y="0" height="230" width="800" viewBox="0 0 800 230" preserveAspectRatio="none"  >
<g label="Query sequence" class="clusterblast-cluster"  >
<text x="5" y="20" class="clusterblast-acc"  >
Query sequence</text>
<line x1="10" y1="35" x2="778.0" y2="35" style="stroke-width:1; stroke:grey; "  />
<polygon points="316,40 357,40 362,35 357,30 316,30 316,40 " style="fill:#d81515; stroke-width:1; stroke:black; " description="&lt;b&gt;MCIC6FC_010447&lt;/b&gt;&lt;br&gt;hypothetical protein&lt;br&gt;Location: 151343 - 154644" locus_tag="MCIC6FC_010447" class="clusterblast-orf" id="dummy-1_q0_0_all"  />
<polygon points="373,40 379,40 384,35 379,30 373,30 373,40 " style="fill:#77d815; stroke-width:1; stroke:black; " description="&lt;b&gt;MCIC6FC_010448&lt;/b&gt;&lt;br&gt;hypothetical protein&lt;br&gt;Location: 155471 - 156215" locus_tag="MCIC6FC_010448" class="clusterblast-orf" id="dummy-1_q1_0_all"  />
<polygon points="384,40 402,40 407,35 402,30 384,30 384,40 " style="fill:#15d8d8; stroke-width:1; stroke:black; " description="&lt;b&gt;MCIC6FC_010449&lt;/b&gt;&lt;br&gt;hypothetical protein&lt;br&gt;Location: 156240 - 157904" locus_tag="MCIC6FC_010449" class="clusterblast-orf" id="dummy-1_q2_0_all"  />
<polygon points="409,40 458,40 463,35 458,30 409,30 409,40 " style="fill:#7715d8; stroke-width:1; stroke:black; " description="&lt;b&gt;MCIC6FC_010450&lt;/b&gt;&lt;br&gt;hypothetical protein&lt;br&gt;Location: 158056 - 161937" locus_tag="MCIC6FC_010450" class="clusterblast-orf" id="dummy-1_q3_0_all"  />
</g>
<g label="NZ_CP012747" description="NZ_CP012747 (1431872-1489543): Paraburkholderia caribensis MBA4 chromosome 2,... (4% of genes show similarity), T3PKS,hserlactone" class="clusterblast-cluster"  >
<text x="5" y="70" class="clusterblast-acc"  >
<a xlink:href="https://antismash-db.secondarymetabolites.org/area.html?record=NZ_CP012747&amp;start=1431872&amp;end=1489543" target="_blank">NZ_CP012747 (1431872-1489543)</a>: Paraburkholderia caribensis MBA4 chromosome 2,... (4% of genes show similarity), T3PKS,hserlactone</text>
<line x1="10" y1="85" x2="778.0" y2="85" style="stroke-width:1; stroke:grey; "  />
</g>
<g id="a1_000"  >
<polygon points="0,90 8,90 13,85 8,80 0,80 0,90 " style="fill:white; stroke-width:1; stroke:black; " description="&lt;b&gt;K788_RS22370&lt;/b&gt;&lt;br&gt;SDR family oxidoreductase&lt;br&gt;Location: 1488904 - 1487915" locus_tag="K788_RS22370" class="clusterblast-orf" id="dummy-1_h1_7_0"  />
</g>
<g id="a1_001"  >
<polygon points="15,90 18,85 15,80 15,90 " style="fill:white; stroke-width:1; stroke:black; " description="&lt;b&gt;K788_RS22365&lt;/b&gt;&lt;br&gt;hypothetical protein&lt;br&gt;Location: 1487820 - 1487563" locus_tag="K788_RS22365" class="clusterblast-orf" id="dummy-1_h1_7_1"  />
</g>
<g id="a1_002"  >
<polygon points="26,90 34,90 39,85 34,80 26,80 26,90 " style="fill:white; stroke-width:1; stroke:black; " description="&lt;b&gt;K788_RS22360&lt;/b&gt;&lt;br&gt;LysR family transcriptional regulator&lt;br&gt;Location: 1487022 - 1486066" locus_tag="K788_RS22360" class="clusterblast-orf" id="dummy-1_h1_7_2"  />
</g>
<g id="a1_003"  >
<polygon points="44,90 51,90 56,85 51,80 44,80 44,90 " style="fill:white; stroke-width:1; stroke:black; " description="&lt;b&gt;K788_RS22355&lt;/b&gt;&lt;br&gt;LysR family transcriptional regulator&lt;br&gt;Location: 1485720 - 1484800" locus_tag="K788_RS22355" class="clusterblast-orf" id="dummy-1_h1_7_3"  />
</g>
<g id="a1_004"  >
<polygon points="65,90 73,90 78,85 73,80 65,80 65,90 " style="fill:white; stroke-width:1; stroke:black; " description="&lt;b&gt;K788_RS22350&lt;/b&gt;&lt;br&gt;TauD/TfdA family dioxygenase&lt;br&gt;Location: 1484139 - 1483213" locus_tag="K788_RS22350" class="clusterblast-orf" id="dummy-1_h1_7_4"  />
</g>
<g id="a1_005"  >
<polygon points="78,90 94,90 99,85 94,80 78,80 78,90 " style="fill:white; stroke-width:1; stroke:black; " description="&lt;b&gt;K788_RS22345&lt;/b&gt;&lt;br&gt;AMP-binding protein&lt;br&gt;Location: 1483216 - 1481738" locus_tag="K788_RS22345" class="clusterblast-orf" id="dummy-1_h1_7_5"  />
</g>
<g id="a1_006"  >
<polygon points="99,90 103,90 108,85 103,80 99,80 99,90 " style="fill:white; stroke-width:1; stroke:black; " description="&lt;b&gt;K788_RS22340&lt;/b&gt;&lt;br&gt;hypothetical protein&lt;br&gt;Location: 1481723 - 1481097" locus_tag="K788_RS22340" class="clusterblast-orf" id="dummy-1_h1_7_6"  />
</g>
<g id="a1_007"  >
<polygon points="108,90 120,90 125,85 120,80 108,80 108,90 " style="fill:white; stroke-width:1; stroke:black; " description="&lt;b&gt;K788_RS22335&lt;/b&gt;&lt;br&gt;multidrug effflux MFS transporter&lt;br&gt;Location: 1481038 - 1479848" locus_tag="K788_RS22335" class="clusterblast-orf" id="dummy-1_h1_7_7"  />
</g>
<g id="a1_008"  >
<polygon points="130,90 134,90 139,85 134,80 130,80 130,90 " style="fill:white; stroke-width:1; stroke:black; " description="&lt;b&gt;K788_RS22325&lt;/b&gt;&lt;br&gt;hypothetical protein&lt;br&gt;Location: 1479484 - 1478834" locus_tag="K788_RS22325" class="clusterblast-orf" id="dummy-1_h1_7_8"  />
</g>
<g id="a1_009"  >
<polygon points="143,90 155,90 160,85 155,80 143,80 143,90 " style="fill:white; stroke-width:1; stroke:black; " description="&lt;b&gt;K788_RS22320&lt;/b&gt;&lt;br&gt;Bcr/CflA family efflux MFS transporter&lt;br&gt;Location: 1478543 - 1477326" locus_tag="K788_RS22320" class="clusterblast-orf" id="dummy-1_h1_7_9"  />
</g>
<g id="a1_0010"  >
<polygon points="171,90 175,90 180,85 175,80 171,80 171,90 " style="fill:white; stroke-width:1; stroke:black; " description="&lt;b&gt;K788_RS22310&lt;/b&gt;&lt;br&gt;DsbA family protein&lt;br&gt;Location: 1476501 - 1475854" locus_tag="K788_RS22310" class="clusterblast-orf" id="dummy-1_h1_7_10"  />
</g>
<g id="a1_0011"  >
<polygon points="181,90 192,90 197,85 192,80 181,80 181,90 " style="fill:white; stroke-width:1; stroke:black; " description="&lt;b&gt;K788_RS22305&lt;/b&gt;&lt;br&gt;efflux RND transporter periplasmic adaptor subunit&lt;br&gt;Location: 1475782 - 1474658" locus_tag="K788_RS22305" class="clusterblast-orf" id="dummy-1_h1_7_11"  />
</g>
<g id="a1_0012"  >
<polygon points="197,90 235,90 240,85 235,80 197,80 197,90 " style="fill:white; stroke-width:1; stroke:black; " description="&lt;b&gt;K788_RS22300&lt;/b&gt;&lt;br&gt;MexW/MexI family multidrug efflux RND transporter permease subunit&lt;br&gt;Location: 1474630 - 1471544" locus_tag="K788_RS22300" class="clusterblast-orf" id="dummy-1_h1_7_12"  />
</g>
<g id="a1_0013"  >
<polygon points="241,90 257,90 262,85 257,80 241,80 241,90 " style="fill:white; stroke-width:1; stroke:black; " description="&lt;b&gt;K788_RS22295&lt;/b&gt;&lt;br&gt;efflux transporter outer membrane subunit&lt;br&gt;Location: 1471481 - 1469943" locus_tag="K788_RS22295" class="clusterblast-orf" id="dummy-1_h1_7_13"  />
</g>
<g id="a1_0014"  >
<polygon points="268,90 279,90 284,85 279,80 268,80 268,90 " style="fill:white; stroke-width:1; stroke:black; " description="&lt;b&gt;K788_RS22290&lt;/b&gt;&lt;br&gt;hydroxymethylglutaryl-CoA synthase&lt;br&gt;Location: 1469543 - 1468356" locus_tag="K788_RS22290" class="clusterblast-orf" id="dummy-1_h1_7_14"  />
</g>
<g id="a1_0015"  >
<polygon points="286,90 308,90 313,85 308,80 286,80 286,90 " style="fill:white; stroke-width:1; stroke:black; " description="&lt;b&gt;K788_RS22285&lt;/b&gt;&lt;br&gt;asparagine synthase (glutamine-hydrolyzing)&lt;br&gt;Location: 1468220 - 1466277" locus_tag="K788_RS22285" class="clusterblast-orf" id="dummy-1_h1_7_15"  />
</g>
<g id="a1_0016"  >
<polygon points="313,90 323,90 328,85 323,80 313,80 313,90 " style="fill:white; stroke-width:1; stroke:black; " description="&lt;b&gt;K788_RS22280&lt;/b&gt;&lt;br&gt;FAD-dependent monooxygenase&lt;br&gt;Location: 1466280 - 1465144" locus_tag="K788_RS22280" class="clusterblast-orf" id="dummy-1_h1_7_16"  />
</g>
<g id="a1_0017"  >
<polygon points="328,90 338,90 343,85 338,80 328,80 328,90 " style="fill:white; stroke-width:1; stroke:black; " description="&lt;b&gt;K788_RS22275&lt;/b&gt;&lt;br&gt;acyl-CoA dehydrogenase&lt;br&gt;Location: 1465147 - 1464080" locus_tag="K788_RS22275" class="clusterblast-orf" id="dummy-1_h1_7_17"  />
</g>
<g id="a1_0018"  >
<polygon points="345,90 346,90 351,85 346,80 345,80 345,90 " style="fill:white; stroke-width:1; stroke:black; " description="&lt;b&gt;K788_RS22270&lt;/b&gt;&lt;br&gt;PaaI family thioesterase&lt;br&gt;Location: 1463953 - 1463516" locus_tag="K788_RS22270" class="clusterblast-orf" id="dummy-1_h1_7_18"  />
</g>
<g id="a1_0019"  >
<polygon points="354,85 357,80 357,90 354,85 " style="fill:white; stroke-width:1; stroke:black; " description="&lt;b&gt;K788_RS41920&lt;/b&gt;&lt;br&gt;GTP-binding protein&lt;br&gt;Location: 1463328 - 1463083" locus_tag="K788_RS41920" class="clusterblast-orf" id="dummy-1_h1_7_19"  />
</g>
<g id="a1_0020"  >
<polygon points="363,90 370,90 375,85 370,80 363,80 363,90 " style="fill:white; stroke-width:1; stroke:black; " description="&lt;b&gt;K788_RS22260&lt;/b&gt;&lt;br&gt;LysR family transcriptional regulator&lt;br&gt;Location: 1462668 - 1461754" locus_tag="K788_RS22260" class="clusterblast-orf" id="dummy-1_h1_7_20"  />
</g>
<g id="a1_0021"  >
<polygon points="378,90 391,90 396,85 391,80 378,80 378,90 " style="fill:white; stroke-width:1; stroke:black; " description="&lt;b&gt;K788_RS22255&lt;/b&gt;&lt;br&gt;dicarboxylate/amino acid:cation symporter&lt;br&gt;Location: 1461572 - 1460292" locus_tag="K788_RS22255" class="clusterblast-orf" id="dummy-1_h1_7_21"  />
</g>
<g id="a1_0022"  >
<polygon points="396,90 411,90 416,85 411,80 396,80 396,90 " style="fill:white; stroke-width:1; stroke:black; " description="&lt;b&gt;K788_RS22250&lt;/b&gt;&lt;br&gt;aspartate/glutamate racemase family protein&lt;br&gt;Location: 1460295 - 1458814" locus_tag="K788_RS22250" class="clusterblast-orf" id="dummy-1_h1_7_22"  />
</g>
<g id="a1_0023"  >
<polygon points="417,90 432,90 437,85 432,80 417,80 417,90 " style="fill:white; stroke-width:1; stroke:black; " description="&lt;b&gt;K788_RS22245&lt;/b&gt;&lt;br&gt;aspartate ammonia-lyase&lt;br&gt;Location: 1458727 - 1457282" locus_tag="K788_RS22245" class="clusterblast-orf" id="dummy-1_h1_7_23"  />
</g>
<g id="a1_0024"  >
<polygon points="441,90 454,90 459,85 454,80 441,80 441,90 " style="fill:white; stroke-width:1; stroke:black; " description="&lt;b&gt;K788_RS22240&lt;/b&gt;&lt;br&gt;dicarboxylate/amino acid:cation symporter&lt;br&gt;Location: 1457040 - 1455733" locus_tag="K788_RS22240" class="clusterblast-orf" id="dummy-1_h1_7_24"  />
</g>
<g id="a1_0025"  >
<polygon points="459,90 467,90 472,85 467,80 459,80 459,90 " style="fill:white; stroke-width:1; stroke:black; " description="&lt;b&gt;K788_RS22235&lt;/b&gt;&lt;br&gt;amino acid ABC transporter substrate-binding protein&lt;br&gt;Location: 1455719 - 1454772" locus_tag="K788_RS22235" class="clusterblast-orf" id="dummy-1_h1_7_25"  />
</g>
<g id="a1_0026"  >
<polygon points="472,85 477,80 477,80 477,90 477,90 472,85 " style="fill:white; stroke-width:1; stroke:black; " description="&lt;b&gt;K788_RS22230&lt;/b&gt;&lt;br&gt;hypothetical protein&lt;br&gt;Location: 1454751 - 1454422" locus_tag="K788_RS22230" class="clusterblast-orf" id="dummy-1_h1_7_26"  />
</g>
<g id="a1_0027"  >
<polygon points="480,85 485,80 492,80 492,90 485,90 480,85 " style="fill:white; stroke-width:1; stroke:black; " description="&lt;b&gt;K788_RS22225&lt;/b&gt;&lt;br&gt;transcriptional activator NhaR&lt;br&gt;Location: 1454218 - 1453322" locus_tag="K788_RS22225" class="clusterblast-orf" id="dummy-1_h1_7_27"  />
</g>
<g id="a1_0028"  >
<polygon points="494,90 496,90 501,85 496,80 494,80 494,90 " style="fill:white; stroke-width:1; stroke:black; " description="&lt;b&gt;K788_RS22220&lt;/b&gt;&lt;br&gt;CBS domain-containing protein&lt;br&gt;Location: 1453174 - 1452692" locus_tag="K788_RS22220" class="clusterblast-orf" id="dummy-1_h1_7_28"  />
</g>
<g id="a1_0029"  >
<polygon points="502,90 510,90 515,85 510,80 502,80 502,90 " style="fill:white; stroke-width:1; stroke:black; " description="&lt;b&gt;K788_RS22215&lt;/b&gt;&lt;br&gt;Tim44 domain-containing protein&lt;br&gt;Location: 1452598 - 1451633" locus_tag="K788_RS22215" class="clusterblast-orf" id="dummy-1_h1_7_29"  />
</g>
<g id="a1_0030"  >
<polygon points="517,90 520,85 517,80 517,90 " style="fill:white; stroke-width:1; stroke:black; " description="&lt;b&gt;K788_RS22210&lt;/b&gt;&lt;br&gt;hypothetical protein&lt;br&gt;Location: 1451498 - 1451301" locus_tag="K788_RS22210" class="clusterblast-orf" id="dummy-1_h1_7_30"  />
</g>
<g id="a1_0031"  >
<polygon points="520,85 525,80 526,80 526,90 525,90 520,85 " style="fill:white; stroke-width:1; stroke:black; " description="&lt;b&gt;K788_RS22205&lt;/b&gt;&lt;br&gt;Cd(II)/Pb(II)-responsive transcriptional regulator&lt;br&gt;Location: 1451296 - 1450868" locus_tag="K788_RS22205" class="clusterblast-orf" id="dummy-1_h1_7_31"  />
</g>
<g id="a1_0032"  >
<polygon points="527,90 554,90 559,85 554,80 527,80 527,90 " style="fill:#d81515; stroke-width:1; stroke:black; " description="&lt;b&gt;K788_RS22200&lt;/b&gt;&lt;br&gt;heavy metal translocating P-type ATPase&lt;br&gt;Location: 1450789 - 1448480&lt;br&gt;&lt;br&gt;&lt;b&gt;BlastP hit with MCIC6FC_010447&lt;/b&gt;&lt;br&gt;Percentage identity: 67&lt;br&gt;Percentage coverage: 66&lt;br&gt;BLAST bit score: 889&lt;br&gt;E-value: 2.6e-256" locus_tag="K788_RS22200" class="clusterblast-orf" id="dummy-1_h1_7_32"  />
</g>
<g id="a1_0033"  >
<polygon points="560,90 564,85 560,80 560,90 " style="fill:white; stroke-width:1; stroke:black; " description="&lt;b&gt;K788_RS41915&lt;/b&gt;&lt;br&gt;adenylate cyclase&lt;br&gt;Location: 1448437 - 1448123" locus_tag="K788_RS41915" class="clusterblast-orf" id="dummy-1_h1_7_33"  />
</g>
<g id="a1_0034"  >
<polygon points="565,85 570,80 583,80 583,90 570,90 565,85 " style="fill:white; stroke-width:1; stroke:black; " description="&lt;b&gt;K788_RS22195&lt;/b&gt;&lt;br&gt;ergothioneine biosynthesis protein EgtB&lt;br&gt;Location: 1448019 - 1446721" locus_tag="K788_RS22195" class="clusterblast-orf" id="dummy-1_h1_7_34"  />
</g>
<g id="a1_0035"  >
<polygon points="586,85 591,80 597,80 597,90 591,90 586,85 " style="fill:white; stroke-width:1; stroke:black; " description="&lt;b&gt;K788_RS22190&lt;/b&gt;&lt;br&gt;fumarate/nitrate reduction transcriptional regulator Fnr&lt;br&gt;Location: 1446543 - 1445752" locus_tag="K788_RS22190" class="clusterblast-orf" id="dummy-1_h1_7_35"  />
</g>
<g id="a1_0036"  >
<polygon points="599,85 604,80 605,80 605,90 604,90 599,85 " style="fill:white; stroke-width:1; stroke:black; " description="&lt;b&gt;K788_RS22185&lt;/b&gt;&lt;br&gt;universal stress protein&lt;br&gt;Location: 1445621 - 1445145" locus_tag="K788_RS22185" class="clusterblast-orf" id="dummy-1_h1_7_36"  />
</g>
<g id="a1_0037"  >
<polygon points="607,90 609,85 607,80 607,90 " style="fill:white; stroke-width:1; stroke:black; " description="&lt;b&gt;K788_RS43445&lt;/b&gt;&lt;br&gt;hypothetical protein&lt;br&gt;Location: 1445042 - 1444887" locus_tag="K788_RS43445" class="clusterblast-orf" id="dummy-1_h1_7_37"  />
</g>
<g id="a1_0038"  >
<polygon points="610,90 614,90 619,85 614,80 610,80 610,90 " style="fill:white; stroke-width:1; stroke:black; " description="&lt;b&gt;K788_RS22180&lt;/b&gt;&lt;br&gt;FadR family transcriptional regulator&lt;br&gt;Location: 1444831 - 1444142" locus_tag="K788_RS22180" class="clusterblast-orf" id="dummy-1_h1_7_38"  />
</g>
<g id="a1_0039"  >
<polygon points="621,90 637,90 642,85 637,80 621,80 621,90 " style="fill:white; stroke-width:1; stroke:black; " description="&lt;b&gt;K788_RS22175&lt;/b&gt;&lt;br&gt;MFS transporter&lt;br&gt;Location: 1443994 - 1442486" locus_tag="K788_RS22175" class="clusterblast-orf" id="dummy-1_h1_7_39"  />
</g>
<g id="a1_0040"  >
<polygon points="642,85 647,80 651,80 651,90 647,90 642,85 " style="fill:white; stroke-width:1; stroke:black; " description="&lt;b&gt;K788_RS22170&lt;/b&gt;&lt;br&gt;GNAT family N-acetyltransferase&lt;br&gt;Location: 1442460 - 1441873" locus_tag="K788_RS22170" class="clusterblast-orf" id="dummy-1_h1_7_40"  />
</g>
<g id="a1_0041"  >
<polygon points="653,90 657,85 653,80 653,90 " style="fill:white; stroke-width:1; stroke:black; " description="&lt;b&gt;K788_RS22165&lt;/b&gt;&lt;br&gt;helix-turn-helix transcriptional regulator&lt;br&gt;Location: 1441730 - 1441398" locus_tag="K788_RS22165" class="clusterblast-orf" id="dummy-1_h1_7_41"  />
</g>
<g id="a1_0042"  >
<polygon points="657,85 662,80 667,80 667,90 662,90 657,85 " style="fill:white; stroke-width:1; stroke:black; " description="&lt;b&gt;K788_RS22160&lt;/b&gt;&lt;br&gt;LuxR family transcriptional regulator&lt;br&gt;Location: 1441414 - 1440686" locus_tag="K788_RS22160" class="clusterblast-orf" id="dummy-1_h1_7_42"  />
</g>
<g id="a1_0043"  >
<polygon points="677,90 680,85 677,80 677,90 " style="fill:white; stroke-width:1; stroke:black; " description="&lt;b&gt;K788_RS22155&lt;/b&gt;&lt;br&gt;hypothetical protein&lt;br&gt;Location: 1439972 - 1439745" locus_tag="K788_RS22155" class="clusterblast-orf" id="dummy-1_h1_7_43"  />
</g>
<g id="a1_0044"  >
<polygon points="681,90 698,90 703,85 698,80 681,80 681,90 " style="fill:white; stroke-width:1; stroke:black; " description="&lt;b&gt;K788_RS22150&lt;/b&gt;&lt;br&gt;aldehyde dehydrogenase (NADP(+))&lt;br&gt;Location: 1439669 - 1438089" locus_tag="K788_RS22150" class="clusterblast-orf" id="dummy-1_h1_7_44"  />
</g>
<g id="a1_0045"  >
<polygon points="705,90 713,90 718,85 713,80 705,80 705,90 " style="fill:white; stroke-width:1; stroke:black; " description="&lt;b&gt;K788_RS22145&lt;/b&gt;&lt;br&gt;SMP-30/gluconolactonase/LRE family protein&lt;br&gt;Location: 1437970 - 1437020" locus_tag="K788_RS22145" class="clusterblast-orf" id="dummy-1_h1_7_45"  />
</g>
<g id="a1_0046"  >
<polygon points="721,90 733,90 738,85 733,80 721,80 721,90 " style="fill:white; stroke-width:1; stroke:black; " description="&lt;b&gt;K788_RS22140&lt;/b&gt;&lt;br&gt;extracellular solute-binding protein&lt;br&gt;Location: 1436769 - 1435579" locus_tag="K788_RS22140" class="clusterblast-orf" id="dummy-1_h1_7_46"  />
</g>
<g id="a1_0047"  >
<polygon points="740,90 750,90 755,85 750,80 740,80 740,90 " style="fill:#7715d8; stroke-width:1; stroke:black; " description="&lt;b&gt;K788_RS22135&lt;/b&gt;&lt;br&gt;ABC transporter ATP-binding protein&lt;br&gt;Location: 1435426 - 1434347&lt;br&gt;&lt;br&gt;&lt;b&gt;BlastP hit with MCIC6FC_010450&lt;/b&gt;&lt;br&gt;Percentage identity: 45&lt;br&gt;Percentage coverage: 19&lt;br&gt;BLAST bit score: 198&lt;br&gt;E-value: 3.1e-48" locus_tag="K788_RS22135" class="clusterblast-orf" id="dummy-1_h1_7_47"  />
</g>
<g id="a1_0048"  >
<polygon points="755,90 762,90 767,85 762,80 755,80 755,90 " style="fill:white; stroke-width:1; stroke:black; " description="&lt;b&gt;K788_RS22130&lt;/b&gt;&lt;br&gt;sugar ABC transporter permease&lt;br&gt;Location: 1434350 - 1433463" locus_tag="K788_RS22130" class="clusterblast-orf" id="dummy-1_h1_7_48"  />
</g>
<g id="a1_0049"  >
<polygon points="767,90 775,90 780,85 775,80 767,80 767,90 " style="fill:white; stroke-width:1; stroke:black; " description="&lt;b&gt;K788_RS22125&lt;/b&gt;&lt;br&gt;ABC transporter permease&lt;br&gt;Location: 1433463 - 1432558" locus_tag="K788_RS22125" class="clusterblast-orf" id="dummy-1_h1_7_49"  />
</g>
</svg>
