<svg xmlns="http://www.w3.org/2000/svg" xmlns:xlink="http://www.w3.org/1999/xlink" version="1.1" x="0" y="0" height="230" width="800" viewBox="0 0 800 230" preserveAspectRatio="none"  >
<g label="Query sequence" class="clusterblast-cluster"  >
<text x="5" y="20" class="clusterblast-acc"  >
Query sequence</text>
<line x1="10" y1="35" x2="778.0" y2="35" style="stroke-width:1; stroke:grey; "  />
<polygon points="7,40 15,40 20,35 15,30 7,30 7,40 " style="fill:#d81515; stroke-width:1; stroke:black; " description="&lt;b&gt;MCIC6FC_007376&lt;/b&gt;&lt;br&gt;hypothetical protein&lt;br&gt;Location: 474120 - 475205" locus_tag="MCIC6FC_007376" class="clusterblast-orf" id="dummy-1_q0_0_all"  />
<polygon points="25,35 30,30 76,30 76,40 30,40 25,35 " style="fill:#67d815; stroke-width:1; stroke:black; " description="&lt;b&gt;MCIC6FC_007377&lt;/b&gt;&lt;br&gt;hypothetical protein&lt;br&gt;Location: 475594 - 479870" locus_tag="MCIC6FC_007377" class="clusterblast-orf" id="dummy-1_q1_0_all"  />
<polygon points="77,40 130,40 135,35 130,30 77,30 77,40 " style="fill:#15b9d8; stroke-width:1; stroke:black; " description="&lt;b&gt;MCIC6FC_007378&lt;/b&gt;&lt;br&gt;hypothetical protein&lt;br&gt;Location: 479964 - 484887" locus_tag="MCIC6FC_007378" class="clusterblast-orf" id="dummy-1_q2_0_all"  />
<polygon points="138,40 147,40 152,35 147,30 138,30 138,40 " style="fill:#a515d8; stroke-width:1; stroke:black; " description="&lt;b&gt;MCIC6FC_007379&lt;/b&gt;&lt;br&gt;hypothetical protein&lt;br&gt;Location: 485105 - 486335" locus_tag="MCIC6FC_007379" class="clusterblast-orf" id="dummy-1_q3_0_all"  />
<polygon points="153,40 176,40 181,35 176,30 153,30 153,40 " style="fill:#d85315; stroke-width:1; stroke:black; " description="&lt;b&gt;MCIC6FC_007380&lt;/b&gt;&lt;br&gt;hypothetical protein&lt;br&gt;Location: 486382 - 488704" locus_tag="MCIC6FC_007380" class="clusterblast-orf" id="dummy-1_q4_0_all"  />
<polygon points="181,40 183,40 188,35 183,30 181,30 181,40 " style="fill:#2ad815; stroke-width:1; stroke:black; " description="&lt;b&gt;MCIC6FC_007381&lt;/b&gt;&lt;br&gt;hypothetical protein&lt;br&gt;Location: 488771 - 489344" locus_tag="MCIC6FC_007381" class="clusterblast-orf" id="dummy-1_q5_0_all"  />
<polygon points="189,40 200,40 205,35 200,30 189,30 189,40 " style="fill:#157cd8; stroke-width:1; stroke:black; " description="&lt;b&gt;MCIC6FC_007382&lt;/b&gt;&lt;br&gt;hypothetical protein&lt;br&gt;Location: 489369 - 490725" locus_tag="MCIC6FC_007382" class="clusterblast-orf" id="dummy-1_q6_0_all"  />
<polygon points="205,35 210,30 212,30 212,40 210,40 205,35 " style="fill:#d815ce; stroke-width:1; stroke:black; " description="&lt;b&gt;MCIC6FC_007383&lt;/b&gt;&lt;br&gt;hypothetical protein&lt;br&gt;Location: 490732 - 491308" locus_tag="MCIC6FC_007383" class="clusterblast-orf" id="dummy-1_q7_0_all"  />
<polygon points="213,40 217,35 213,30 213,40 " style="fill:#d89015; stroke-width:1; stroke:black; " description="&lt;b&gt;MCIC6FC_007384&lt;/b&gt;&lt;br&gt;hypothetical protein&lt;br&gt;Location: 491449 - 491764" locus_tag="MCIC6FC_007384" class="clusterblast-orf" id="dummy-1_q8_0_all"  />
<polygon points="217,40 222,40 227,35 222,30 217,30 217,40 " style="fill:#d89015; stroke-width:1; stroke:black; " description="&lt;b&gt;MCIC6FC_007385&lt;/b&gt;&lt;br&gt;hypothetical protein&lt;br&gt;Location: 491806 - 492622" locus_tag="MCIC6FC_007385" class="clusterblast-orf" id="dummy-1_q9_0_all"  />
<polygon points="228,40 540,40 545,35 540,30 228,30 228,40 " style="fill:#15d83e; stroke-width:1; stroke:black; " description="&lt;b&gt;MCIC6FC_007386&lt;/b&gt;&lt;br&gt;hypothetical protein&lt;br&gt;Location: 492655 - 519348" locus_tag="MCIC6FC_007386" class="clusterblast-orf" id="dummy-1_q10_0_all"  />
<polygon points="548,35 553,30 577,30 577,40 553,40 548,35 " style="fill:#153ed8; stroke-width:1; stroke:black; " description="&lt;b&gt;MCIC6FC_007387&lt;/b&gt;&lt;br&gt;hypothetical protein&lt;br&gt;Location: 519638 - 522035" locus_tag="MCIC6FC_007387" class="clusterblast-orf" id="dummy-1_q11_0_all"  />
<polygon points="579,35 584,30 598,30 598,40 584,40 579,35 " style="fill:#d81590; stroke-width:1; stroke:black; " description="&lt;b&gt;MCIC6FC_007388&lt;/b&gt;&lt;br&gt;hypothetical protein&lt;br&gt;Location: 522189 - 523842" locus_tag="MCIC6FC_007388" class="clusterblast-orf" id="dummy-1_q12_0_all"  />
<polygon points="601,40 605,40 610,35 605,30 601,30 601,40 " style="fill:#d8ce15; stroke-width:1; stroke:black; " description="&lt;b&gt;MCIC6FC_007389&lt;/b&gt;&lt;br&gt;hypothetical protein&lt;br&gt;Location: 524041 - 524869" locus_tag="MCIC6FC_007389" class="clusterblast-orf" id="dummy-1_q13_0_all"  />
<polygon points="619,35 624,30 661,30 661,40 624,40 619,35 " style="fill:#15d87c; stroke-width:1; stroke:black; " description="&lt;b&gt;MCIC6FC_007390&lt;/b&gt;&lt;br&gt;hypothetical protein&lt;br&gt;Location: 525562 - 529119" locus_tag="MCIC6FC_007390" class="clusterblast-orf" id="dummy-1_q14_0_all"  />
<polygon points="663,40 677,40 682,35 677,30 663,30 663,40 " style="fill:#2a15d8; stroke-width:1; stroke:black; " description="&lt;b&gt;MCIC6FC_007391&lt;/b&gt;&lt;br&gt;hypothetical protein&lt;br&gt;Location: 529255 - 530864" locus_tag="MCIC6FC_007391" class="clusterblast-orf" id="dummy-1_q15_0_all"  />
<polygon points="682,35 687,30 693,30 693,40 687,40 682,35 " style="fill:#d81553; stroke-width:1; stroke:black; " description="&lt;b&gt;MCIC6FC_007392&lt;/b&gt;&lt;br&gt;hypothetical protein&lt;br&gt;Location: 530867 - 531816" locus_tag="MCIC6FC_007392" class="clusterblast-orf" id="dummy-1_q16_0_all"  />
<polygon points="695,40 722,40 727,35 722,30 695,30 695,40 " style="fill:#a5d815; stroke-width:1; stroke:black; " description="&lt;b&gt;MCIC6FC_007393&lt;/b&gt;&lt;br&gt;hypothetical protein&lt;br&gt;Location: 531961 - 534689" locus_tag="MCIC6FC_007393" class="clusterblast-orf" id="dummy-1_q17_0_all"  />
<polygon points="727,40 735,40 740,35 735,30 727,30 727,40 " style="fill:#15d8b9; stroke-width:1; stroke:black; " description="&lt;b&gt;MCIC6FC_007394&lt;/b&gt;&lt;br&gt;hypothetical protein&lt;br&gt;Location: 534721 - 535791" locus_tag="MCIC6FC_007394" class="clusterblast-orf" id="dummy-1_q18_0_all"  />
<polygon points="741,40 767,40 772,35 767,30 741,30 741,40 " style="fill:#6715d8; stroke-width:1; stroke:black; " description="&lt;b&gt;MCIC6FC_007395&lt;/b&gt;&lt;br&gt;hypothetical protein&lt;br&gt;Location: 535825 - 538463" locus_tag="MCIC6FC_007395" class="clusterblast-orf" id="dummy-1_q19_0_all"  />
</g>
<g label="NZ_LT907842" description="NZ_LT907842 (5913901-5979533): Pseudomonas fluorescens strain ATCC 13525 chro... (89% of genes show similarity), NRPS" class="clusterblast-cluster"  >
<text x="5" y="70" class="clusterblast-acc"  >
<a xlink:href="https://antismash-db.secondarymetabolites.org/area.html?record=NZ_LT907842&amp;start=5913901&amp;end=5979533" target="_blank">NZ_LT907842 (5913901-5979533)</a>: Pseudomonas fluorescens strain ATCC 13525 chro... (89% of genes show similarity), NRPS</text>
<line x1="10" y1="85" x2="778.0" y2="85" style="stroke-width:1; stroke:grey; "  />
</g>
<g id="a1_000"  >
<polygon points="0,85 5,80 12,80 12,90 5,90 0,85 " style="fill:#15b9d8; stroke-width:1; stroke:black; " description="&lt;b&gt;CPH89_RS27415&lt;/b&gt;&lt;br&gt;ABC transporter ATP-binding protein&lt;br&gt;Location: 5979533 - 5978505&lt;br&gt;&lt;br&gt;&lt;b&gt;BlastP hit with MCIC6FC_007378&lt;/b&gt;&lt;br&gt;Percentage identity: 31&lt;br&gt;Percentage coverage: 15&lt;br&gt;BLAST bit score: 103&lt;br&gt;E-value: 2.2e-19" locus_tag="CPH89_RS27415" class="clusterblast-orf" id="dummy-1_h1_5_0"  />
</g>
<g id="a1_001"  >
<polygon points="15,90 19,90 24,85 19,80 15,80 15,90 " style="fill:#d81515; stroke-width:1; stroke:black; " description="&lt;b&gt;CPH89_RS27410&lt;/b&gt;&lt;br&gt;IclR family transcriptional regulator&lt;br&gt;Location: 5978262 - 5977432&lt;br&gt;&lt;br&gt;&lt;b&gt;BlastP hit with MCIC6FC_007376&lt;/b&gt;&lt;br&gt;Percentage identity: 95&lt;br&gt;Percentage coverage: 87&lt;br&gt;BLAST bit score: 507&lt;br&gt;E-value: 1.4e-141" locus_tag="CPH89_RS27410" class="clusterblast-orf" id="dummy-1_h1_5_1"  />
</g>
<g id="a1_002"  >
<polygon points="26,85 31,80 34,80 34,90 31,90 26,85 " style="fill:#67d815; stroke-width:1; stroke:black; " description="&lt;b&gt;CPH89_RS27405&lt;/b&gt;&lt;br&gt;response regulator&lt;br&gt;Location: 5977311 - 5976646&lt;br&gt;&lt;br&gt;&lt;b&gt;BlastP hit with MCIC6FC_007377&lt;/b&gt;&lt;br&gt;Percentage identity: 100&lt;br&gt;Percentage coverage: 16&lt;br&gt;BLAST bit score: 426&lt;br&gt;E-value: 7.9e-117" locus_tag="CPH89_RS27405" class="clusterblast-orf" id="dummy-1_h1_5_2"  />
</g>
<g id="a1_003"  >
<polygon points="34,85 39,80 74,80 74,90 39,90 34,85 " style="fill:#67d815; stroke-width:1; stroke:black; " description="&lt;b&gt;CPH89_RS27400&lt;/b&gt;&lt;br&gt;response regulator&lt;br&gt;Location: 5976671 - 5973288&lt;br&gt;&lt;br&gt;&lt;b&gt;BlastP hit with MCIC6FC_007377&lt;/b&gt;&lt;br&gt;Percentage identity: 96&lt;br&gt;Percentage coverage: 80&lt;br&gt;BLAST bit score: 2067&lt;br&gt;E-value: 0.0" locus_tag="CPH89_RS27400" class="clusterblast-orf" id="dummy-1_h1_5_3"  />
</g>
<g id="a1_004"  >
<polygon points="77,90 87,90 92,85 87,80 77,80 77,90 " style="fill:#15b9d8; stroke-width:1; stroke:black; " description="&lt;b&gt;CPH89_RS27395&lt;/b&gt;&lt;br&gt;urea ABC transporter substrate-binding protein&lt;br&gt;Location: 5972985 - 5971777&lt;br&gt;&lt;br&gt;&lt;b&gt;BlastP hit with MCIC6FC_007378&lt;/b&gt;&lt;br&gt;Percentage identity: 99&lt;br&gt;Percentage coverage: 26&lt;br&gt;BLAST bit score: 780&lt;br&gt;E-value: 4.1e-223" locus_tag="CPH89_RS27395" class="clusterblast-orf" id="dummy-1_h1_5_4"  />
</g>
<g id="a1_005"  >
<polygon points="93,90 99,90 104,85 99,80 93,80 93,90 " style="fill:#15b9d8; stroke-width:1; stroke:black; " description="&lt;b&gt;CPH89_RS27390&lt;/b&gt;&lt;br&gt;urea ABC transporter permease subunit UrtB&lt;br&gt;Location: 5971640 - 5970723&lt;br&gt;&lt;br&gt;&lt;b&gt;BlastP hit with MCIC6FC_007378&lt;/b&gt;&lt;br&gt;Percentage identity: 99&lt;br&gt;Percentage coverage: 19&lt;br&gt;BLAST bit score: 558&lt;br&gt;E-value: 2.5e-156" locus_tag="CPH89_RS27390" class="clusterblast-orf" id="dummy-1_h1_5_5"  />
</g>
<g id="a1_006"  >
<polygon points="104,90 113,90 118,85 113,80 104,80 104,90 " style="fill:#15b9d8; stroke-width:1; stroke:black; " description="&lt;b&gt;CPH89_RS27385&lt;/b&gt;&lt;br&gt;urea ABC transporter permease subunit UrtC&lt;br&gt;Location: 5970712 - 5969552&lt;br&gt;&lt;br&gt;&lt;b&gt;BlastP hit with MCIC6FC_007378&lt;/b&gt;&lt;br&gt;Percentage identity: 99&lt;br&gt;Percentage coverage: 24&lt;br&gt;BLAST bit score: 697&lt;br&gt;E-value: 3.5e-198" locus_tag="CPH89_RS27385" class="clusterblast-orf" id="dummy-1_h1_5_6"  />
</g>
<g id="a1_007"  >
<polygon points="118,90 122,90 127,85 122,80 118,80 118,90 " style="fill:#15b9d8; stroke-width:1; stroke:black; " description="&lt;b&gt;CPH89_RS27380&lt;/b&gt;&lt;br&gt;urea ABC transporter ATP-binding protein UrtD&lt;br&gt;Location: 5969555 - 5968797&lt;br&gt;&lt;br&gt;&lt;b&gt;BlastP hit with MCIC6FC_007378&lt;/b&gt;&lt;br&gt;Percentage identity: 98&lt;br&gt;Percentage coverage: 15&lt;br&gt;BLAST bit score: 460&lt;br&gt;E-value: 5.5e-127" locus_tag="CPH89_RS27380" class="clusterblast-orf" id="dummy-1_h1_5_7"  />
</g>
<g id="a1_008"  >
<polygon points="127,90 130,90 135,85 130,80 127,80 127,90 " style="fill:#15b9d8; stroke-width:1; stroke:black; " description="&lt;b&gt;CPH89_RS27375&lt;/b&gt;&lt;br&gt;urea ABC transporter ATP-binding subunit UrtE&lt;br&gt;Location: 5968786 - 5968097&lt;br&gt;&lt;br&gt;&lt;b&gt;BlastP hit with MCIC6FC_007378&lt;/b&gt;&lt;br&gt;Percentage identity: 97&lt;br&gt;Percentage coverage: 15&lt;br&gt;BLAST bit score: 434&lt;br&gt;E-value: 4.2e-119" locus_tag="CPH89_RS27375" class="clusterblast-orf" id="dummy-1_h1_5_8"  />
</g>
<g id="a1_009"  >
<polygon points="138,90 148,90 153,85 148,80 138,80 138,90 " style="fill:#a515d8; stroke-width:1; stroke:black; " description="&lt;b&gt;CPH89_RS27370&lt;/b&gt;&lt;br&gt;acetamidase/formamidase family protein&lt;br&gt;Location: 5967878 - 5966649&lt;br&gt;&lt;br&gt;&lt;b&gt;BlastP hit with MCIC6FC_007379&lt;/b&gt;&lt;br&gt;Percentage identity: 98&lt;br&gt;Percentage coverage: 100&lt;br&gt;BLAST bit score: 855&lt;br&gt;E-value: 2.7e-246" locus_tag="CPH89_RS27370" class="clusterblast-orf" id="dummy-1_h1_5_9"  />
</g>
<g id="a1_0010"  >
<polygon points="153,90 157,85 153,80 153,90 " style="fill:#d85315; stroke-width:1; stroke:black; " description="&lt;b&gt;CPH89_RS27365&lt;/b&gt;&lt;br&gt;zinc ribbon domain-containing protein&lt;br&gt;Location: 5966646 - 5966299&lt;br&gt;&lt;br&gt;&lt;b&gt;BlastP hit with MCIC6FC_007380&lt;/b&gt;&lt;br&gt;Percentage identity: 89&lt;br&gt;Percentage coverage: 10&lt;br&gt;BLAST bit score: 146&lt;br&gt;E-value: 1.4e-32" locus_tag="CPH89_RS27365" class="clusterblast-orf" id="dummy-1_h1_5_10"  />
</g>
<g id="a1_0011"  >
<polygon points="157,90 164,90 169,85 164,80 157,80 157,90 " style="fill:#d85315; stroke-width:1; stroke:black; " description="&lt;b&gt;CPH89_RS27360&lt;/b&gt;&lt;br&gt;aliphatic amidase&lt;br&gt;Location: 5966283 - 5965240&lt;br&gt;&lt;br&gt;&lt;b&gt;BlastP hit with MCIC6FC_007380&lt;/b&gt;&lt;br&gt;Percentage identity: 98&lt;br&gt;Percentage coverage: 48&lt;br&gt;BLAST bit score: 716&lt;br&gt;E-value: 2.6e-204" locus_tag="CPH89_RS27360" class="clusterblast-orf" id="dummy-1_h1_5_11"  />
</g>
<g id="a1_0012"  >
<polygon points="169,90 176,90 181,85 176,80 169,80 169,90 " style="fill:#d85315; stroke-width:1; stroke:black; " description="&lt;b&gt;CPH89_RS27355&lt;/b&gt;&lt;br&gt;ATP-dependent Clp protease ATP-binding subunit&lt;br&gt;Location: 5965236 - 5964253&lt;br&gt;&lt;br&gt;&lt;b&gt;BlastP hit with MCIC6FC_007380&lt;/b&gt;&lt;br&gt;Percentage identity: 88&lt;br&gt;Percentage coverage: 43&lt;br&gt;BLAST bit score: 530&lt;br&gt;E-value: 2.6e-148" locus_tag="CPH89_RS27355" class="clusterblast-orf" id="dummy-1_h1_5_12"  />
</g>
<g id="a1_0013"  >
<polygon points="182,90 183,90 188,85 183,80 182,80 182,90 " style="fill:#2ad815; stroke-width:1; stroke:black; " description="&lt;b&gt;CPH89_RS27350&lt;/b&gt;&lt;br&gt;DUF2239 family protein&lt;br&gt;Location: 5964212 - 5963640&lt;br&gt;&lt;br&gt;&lt;b&gt;BlastP hit with MCIC6FC_007381&lt;/b&gt;&lt;br&gt;Percentage identity: 80&lt;br&gt;Percentage coverage: 100&lt;br&gt;BLAST bit score: 308&lt;br&gt;E-value: 4.3e-82" locus_tag="CPH89_RS27350" class="clusterblast-orf" id="dummy-1_h1_5_13"  />
</g>
<g id="a1_0014"  >
<polygon points="189,90 200,90 205,85 200,80 189,80 189,90 " style="fill:#157cd8; stroke-width:1; stroke:black; " description="&lt;b&gt;CPH89_RS27345&lt;/b&gt;&lt;br&gt;MATE family efflux transporter&lt;br&gt;Location: 5963614 - 5962259&lt;br&gt;&lt;br&gt;&lt;b&gt;BlastP hit with MCIC6FC_007382&lt;/b&gt;&lt;br&gt;Percentage identity: 96&lt;br&gt;Percentage coverage: 100&lt;br&gt;BLAST bit score: 804&lt;br&gt;E-value: 5.9e-231" locus_tag="CPH89_RS27345" class="clusterblast-orf" id="dummy-1_h1_5_14"  />
</g>
<g id="a1_0015"  >
<polygon points="205,85 210,80 212,80 212,90 210,90 205,85 " style="fill:#d815ce; stroke-width:1; stroke:black; " description="&lt;b&gt;CPH89_RS27340&lt;/b&gt;&lt;br&gt;TetR/AcrR family transcriptional regulator&lt;br&gt;Location: 5962275 - 5961682&lt;br&gt;&lt;br&gt;&lt;b&gt;BlastP hit with MCIC6FC_007383&lt;/b&gt;&lt;br&gt;Percentage identity: 87&lt;br&gt;Percentage coverage: 100&lt;br&gt;BLAST bit score: 329&lt;br&gt;E-value: 2.4e-88" locus_tag="CPH89_RS27340" class="clusterblast-orf" id="dummy-1_h1_5_15"  />
</g>
<g id="a1_0016"  >
<polygon points="213,90 222,90 227,85 222,80 213,80 213,90 " style="fill:#d89015; stroke-width:1; stroke:black; " description="&lt;b&gt;CPH89_RS27335&lt;/b&gt;&lt;br&gt;MFS transporter&lt;br&gt;Location: 5961539 - 5960349&lt;br&gt;&lt;br&gt;&lt;b&gt;BlastP hit with MCIC6FC_007384&lt;/b&gt;&lt;br&gt;Percentage identity: 89&lt;br&gt;Percentage coverage: 100&lt;br&gt;BLAST bit score: 165&lt;br&gt;E-value: 4.2e-39&lt;br&gt;&lt;br&gt;&lt;b&gt;BlastP hit with MCIC6FC_007385&lt;/b&gt;&lt;br&gt;Percentage identity: 93&lt;br&gt;Percentage coverage: 100&lt;br&gt;BLAST bit score: 473&lt;br&gt;E-value: 1.1e-131" locus_tag="CPH89_RS27335" class="clusterblast-orf" id="dummy-1_h1_5_16"  />
</g>
<g id="a1_0017"  >
<polygon points="227,85 232,80 232,80 232,90 232,90 227,85 " style="fill:white; stroke-width:1; stroke:black; " description="&lt;b&gt;CPH89_RS27330&lt;/b&gt;&lt;br&gt;type II toxin-antitoxin system HicB family antitoxin&lt;br&gt;Location: 5960366 - 5960001" locus_tag="CPH89_RS27330" class="clusterblast-orf" id="dummy-1_h1_5_17"  />
</g>
<g id="a1_0018"  >
<polygon points="232,85 235,80 235,90 232,85 " style="fill:white; stroke-width:1; stroke:black; " description="&lt;b&gt;CPH89_RS27325&lt;/b&gt;&lt;br&gt;type II toxin-antitoxin system HicA family toxin&lt;br&gt;Location: 5960004 - 5959753" locus_tag="CPH89_RS27325" class="clusterblast-orf" id="dummy-1_h1_5_18"  />
</g>
<g id="a1_0019"  >
<polygon points="237,90 399,90 404,85 399,80 237,80 237,90 " style="fill:#15d83e; stroke-width:1; stroke:black; " description="&lt;b&gt;CPH89_RS27320&lt;/b&gt;&lt;br&gt;non-ribosomal peptide synthetase&lt;br&gt;Location: 5959542 - 5945488&lt;br&gt;&lt;br&gt;&lt;b&gt;BlastP hit with MCIC6FC_007386&lt;/b&gt;&lt;br&gt;Percentage identity: 89&lt;br&gt;Percentage coverage: 54&lt;br&gt;BLAST bit score: 8314&lt;br&gt;E-value: 0.0" locus_tag="CPH89_RS27320" class="clusterblast-orf" id="dummy-1_h1_5_19"  />
</g>
<g id="a1_0020"  >
<polygon points="404,90 540,90 545,85 540,80 404,80 404,90 " style="fill:#15d83e; stroke-width:1; stroke:black; " description="&lt;b&gt;CPH89_RS27315&lt;/b&gt;&lt;br&gt;non-ribosomal peptide synthetase&lt;br&gt;Location: 5945484 - 5933632&lt;br&gt;&lt;br&gt;&lt;b&gt;BlastP hit with MCIC6FC_007386&lt;/b&gt;&lt;br&gt;Percentage identity: 91&lt;br&gt;Percentage coverage: 45&lt;br&gt;BLAST bit score: 7106&lt;br&gt;E-value: 0.0" locus_tag="CPH89_RS27315" class="clusterblast-orf" id="dummy-1_h1_5_20"  />
</g>
<g id="a1_0021"  >
<polygon points="547,85 552,80 576,80 576,90 552,90 547,85 " style="fill:#153ed8; stroke-width:1; stroke:black; " description="&lt;b&gt;CPH89_RS27310&lt;/b&gt;&lt;br&gt;TonB-dependent siderophore receptor&lt;br&gt;Location: 5933486 - 5931045&lt;br&gt;&lt;br&gt;&lt;b&gt;BlastP hit with MCIC6FC_007387&lt;/b&gt;&lt;br&gt;Percentage identity: 93&lt;br&gt;Percentage coverage: 100&lt;br&gt;BLAST bit score: 1518&lt;br&gt;E-value: 0.0" locus_tag="CPH89_RS27310" class="clusterblast-orf" id="dummy-1_h1_5_21"  />
</g>
<g id="a1_0022"  >
<polygon points="577,85 582,80 597,80 597,90 582,90 577,85 " style="fill:#d81590; stroke-width:1; stroke:black; " description="&lt;b&gt;CPH89_RS27305&lt;/b&gt;&lt;br&gt;cyclic peptide export ABC transporter&lt;br&gt;Location: 5930935 - 5929283&lt;br&gt;&lt;br&gt;&lt;b&gt;BlastP hit with MCIC6FC_007388&lt;/b&gt;&lt;br&gt;Percentage identity: 97&lt;br&gt;Percentage coverage: 100&lt;br&gt;BLAST bit score: 1039&lt;br&gt;E-value: 1.7e-301" locus_tag="CPH89_RS27305" class="clusterblast-orf" id="dummy-1_h1_5_22"  />
</g>
<g id="a1_0023"  >
<polygon points="599,90 604,90 609,85 604,80 599,80 599,90 " style="fill:#d8ce15; stroke-width:1; stroke:black; " description="&lt;b&gt;CPH89_RS27300&lt;/b&gt;&lt;br&gt;N(5)-hydroxyornithine transformylase PvdF&lt;br&gt;Location: 5929084 - 5928257&lt;br&gt;&lt;br&gt;&lt;b&gt;BlastP hit with MCIC6FC_007389&lt;/b&gt;&lt;br&gt;Percentage identity: 97&lt;br&gt;Percentage coverage: 100&lt;br&gt;BLAST bit score: 553&lt;br&gt;E-value: 1.1e-155" locus_tag="CPH89_RS27300" class="clusterblast-orf" id="dummy-1_h1_5_23"  />
</g>
<g id="a1_0024"  >
<polygon points="611,85 616,80 621,80 621,90 616,90 611,85 " style="fill:#15d87c; stroke-width:1; stroke:black; " description="&lt;b&gt;CPH89_RS27295&lt;/b&gt;&lt;br&gt;formylglycine-generating enzyme family protein&lt;br&gt;Location: 5928113 - 5927241&lt;br&gt;&lt;br&gt;&lt;b&gt;BlastP hit with MCIC6FC_007390&lt;/b&gt;&lt;br&gt;Percentage identity: 95&lt;br&gt;Percentage coverage: 25&lt;br&gt;BLAST bit score: 590&lt;br&gt;E-value: 3.4e-166" locus_tag="CPH89_RS27295" class="clusterblast-orf" id="dummy-1_h1_5_24"  />
</g>
<g id="a1_0025"  >
<polygon points="621,85 626,80 637,80 637,90 626,90 621,85 " style="fill:#15d87c; stroke-width:1; stroke:black; " description="&lt;b&gt;CPH89_RS27290&lt;/b&gt;&lt;br&gt;aminotransferase class V-fold PLP-dependent enzyme&lt;br&gt;Location: 5927207 - 5925927&lt;br&gt;&lt;br&gt;&lt;b&gt;BlastP hit with MCIC6FC_007390&lt;/b&gt;&lt;br&gt;Percentage identity: 87&lt;br&gt;Percentage coverage: 36&lt;br&gt;BLAST bit score: 748&lt;br&gt;E-value: 9.8e-214" locus_tag="CPH89_RS27290" class="clusterblast-orf" id="dummy-1_h1_5_25"  />
</g>
<g id="a1_0026"  >
<polygon points="637,85 642,80 653,80 653,90 642,90 637,85 " style="fill:#15d87c; stroke-width:1; stroke:black; " description="&lt;b&gt;CPH89_RS27285&lt;/b&gt;&lt;br&gt;pyoverdine-tailoring dipeptidase-like protein PvdM&lt;br&gt;Location: 5925907 - 5924558&lt;br&gt;&lt;br&gt;&lt;b&gt;BlastP hit with MCIC6FC_007390&lt;/b&gt;&lt;br&gt;Percentage identity: 96&lt;br&gt;Percentage coverage: 38&lt;br&gt;BLAST bit score: 870&lt;br&gt;E-value: 1.7e-250" locus_tag="CPH89_RS27285" class="clusterblast-orf" id="dummy-1_h1_5_26"  />
</g>
<g id="a1_0027"  >
<polygon points="655,90 669,90 674,85 669,80 655,80 655,90 " style="fill:#2a15d8; stroke-width:1; stroke:black; " description="&lt;b&gt;CPH89_RS27280&lt;/b&gt;&lt;br&gt;hypothetical protein&lt;br&gt;Location: 5924415 - 5922796&lt;br&gt;&lt;br&gt;&lt;b&gt;BlastP hit with MCIC6FC_007391&lt;/b&gt;&lt;br&gt;Percentage identity: 94&lt;br&gt;Percentage coverage: 99&lt;br&gt;BLAST bit score: 1033&lt;br&gt;E-value: 9e-300" locus_tag="CPH89_RS27280" class="clusterblast-orf" id="dummy-1_h1_5_27"  />
</g>
<g id="a1_0028"  >
<polygon points="674,85 679,80 685,80 685,90 679,90 674,85 " style="fill:#d81553; stroke-width:1; stroke:black; " description="&lt;b&gt;CPH89_RS27275&lt;/b&gt;&lt;br&gt;DUF1853 family protein&lt;br&gt;Location: 5922803 - 5921856&lt;br&gt;&lt;br&gt;&lt;b&gt;BlastP hit with MCIC6FC_007392&lt;/b&gt;&lt;br&gt;Percentage identity: 88&lt;br&gt;Percentage coverage: 103&lt;br&gt;BLAST bit score: 589&lt;br&gt;E-value: 2.7e-166" locus_tag="CPH89_RS27275" class="clusterblast-orf" id="dummy-1_h1_5_28"  />
</g>
<g id="a1_0029"  >
<polygon points="687,90 692,90 697,85 692,80 687,80 687,90 " style="fill:#a5d815; stroke-width:1; stroke:black; " description="&lt;b&gt;CPH89_RS27270&lt;/b&gt;&lt;br&gt;NAD(+) kinase&lt;br&gt;Location: 5921712 - 5920822&lt;br&gt;&lt;br&gt;&lt;b&gt;BlastP hit with MCIC6FC_007393&lt;/b&gt;&lt;br&gt;Percentage identity: 100&lt;br&gt;Percentage coverage: 31&lt;br&gt;BLAST bit score: 564&lt;br&gt;E-value: 1.6e-158" locus_tag="CPH89_RS27270" class="clusterblast-orf" id="dummy-1_h1_5_29"  />
</g>
<g id="a1_0030"  >
<polygon points="697,90 704,90 709,85 704,80 697,80 697,90 " style="fill:#a5d815; stroke-width:1; stroke:black; " description="&lt;b&gt;CPH89_RS27265&lt;/b&gt;&lt;br&gt;serine/threonine protein phosphatase&lt;br&gt;Location: 5920825 - 5919851&lt;br&gt;&lt;br&gt;&lt;b&gt;BlastP hit with MCIC6FC_007393&lt;/b&gt;&lt;br&gt;Percentage identity: 97&lt;br&gt;Percentage coverage: 35&lt;br&gt;BLAST bit score: 670&lt;br&gt;E-value: 2e-190" locus_tag="CPH89_RS27265" class="clusterblast-orf" id="dummy-1_h1_5_30"  />
</g>
<g id="a1_0031"  >
<polygon points="709,90 714,90 719,85 714,80 709,80 709,90 " style="fill:#a5d815; stroke-width:1; stroke:black; " description="&lt;b&gt;CPH89_RS27260&lt;/b&gt;&lt;br&gt;rhomboid family intramembrane serine protease&lt;br&gt;Location: 5919854 - 5918985&lt;br&gt;&lt;br&gt;&lt;b&gt;BlastP hit with MCIC6FC_007393&lt;/b&gt;&lt;br&gt;Percentage identity: 93&lt;br&gt;Percentage coverage: 33&lt;br&gt;BLAST bit score: 544&lt;br&gt;E-value: 2.8e-152" locus_tag="CPH89_RS27260" class="clusterblast-orf" id="dummy-1_h1_5_31"  />
</g>
<g id="a1_0032"  >
<polygon points="719,90 722,85 719,80 719,90 " style="fill:#15d8b9; stroke-width:1; stroke:black; " description="&lt;b&gt;CPH89_RS27255&lt;/b&gt;&lt;br&gt;DUF1315 family protein&lt;br&gt;Location: 5918970 - 5918710&lt;br&gt;&lt;br&gt;&lt;b&gt;BlastP hit with MCIC6FC_007394&lt;/b&gt;&lt;br&gt;Percentage identity: 100&lt;br&gt;Percentage coverage: 22&lt;br&gt;BLAST bit score: 153&lt;br&gt;E-value: 4.1e-35" locus_tag="CPH89_RS27255" class="clusterblast-orf" id="dummy-1_h1_5_32"  />
</g>
<g id="a1_0033"  >
<polygon points="723,90 727,90 732,85 727,80 723,80 723,90 " style="fill:#15d8b9; stroke-width:1; stroke:black; " description="&lt;b&gt;CPH89_RS27250&lt;/b&gt;&lt;br&gt;DUF2797 domain-containing protein&lt;br&gt;Location: 5918680 - 5917883&lt;br&gt;&lt;br&gt;&lt;b&gt;BlastP hit with MCIC6FC_007394&lt;/b&gt;&lt;br&gt;Percentage identity: 96&lt;br&gt;Percentage coverage: 78&lt;br&gt;BLAST bit score: 533&lt;br&gt;E-value: 1.5e-149" locus_tag="CPH89_RS27250" class="clusterblast-orf" id="dummy-1_h1_5_33"  />
</g>
<g id="a1_0034"  >
<polygon points="732,90 759,90 764,85 759,80 732,80 732,90 " style="fill:#6715d8; stroke-width:1; stroke:black; " description="&lt;b&gt;CPH89_RS27245&lt;/b&gt;&lt;br&gt;aminopeptidase N&lt;br&gt;Location: 5917869 - 5915212&lt;br&gt;&lt;br&gt;&lt;b&gt;BlastP hit with MCIC6FC_007395&lt;/b&gt;&lt;br&gt;Percentage identity: 94&lt;br&gt;Percentage coverage: 103&lt;br&gt;BLAST bit score: 1630&lt;br&gt;E-value: 0.0" locus_tag="CPH89_RS27245" class="clusterblast-orf" id="dummy-1_h1_5_34"  />
</g>
<g id="a1_0035"  >
<polygon points="766,90 770,90 775,85 770,80 766,80 766,90 " style="fill:white; stroke-width:1; stroke:black; " description="&lt;b&gt;CPH89_RS27240&lt;/b&gt;&lt;br&gt;YafY family transcriptional regulator&lt;br&gt;Location: 5915006 - 5914290" locus_tag="CPH89_RS27240" class="clusterblast-orf" id="dummy-1_h1_5_35"  />
</g>
<g id="a1_0036"  >
<polygon points="776,90 780,85 776,80 776,90 " style="fill:white; stroke-width:1; stroke:black; " description="&lt;b&gt;CPH89_RS27235&lt;/b&gt;&lt;br&gt;nuclear transport factor 2 family protein&lt;br&gt;Location: 5914237 - 5913902" locus_tag="CPH89_RS27235" class="clusterblast-orf" id="dummy-1_h1_5_36"  />
</g>
</svg>
