<svg xmlns="http://www.w3.org/2000/svg" xmlns:xlink="http://www.w3.org/1999/xlink" version="1.1" x="0" y="0" height="230" width="800" viewBox="0 0 800 230" preserveAspectRatio="none"  >
<g label="Query sequence" class="clusterblast-cluster"  >
<text x="5" y="20" class="clusterblast-acc"  >
Query sequence</text>
<line x1="10" y1="35" x2="778.0" y2="35" style="stroke-width:1; stroke:grey; "  />
<polygon points="0,35 5,30 12,30 12,40 5,40 0,35 " style="fill:#d81515; stroke-width:1; stroke:black; " description="&lt;b&gt;MCIC6FC_015424&lt;/b&gt;&lt;br&gt;hypothetical protein&lt;br&gt;Location: 116480 - 116759" locus_tag="MCIC6FC_015424" class="clusterblast-orf" id="dummy-2_q0_0_all"  />
<polygon points="28,40 100,40 105,35 100,30 28,30 28,40 " style="fill:#15d815; stroke-width:1; stroke:black; " description="&lt;b&gt;MCIC6FC_015425&lt;/b&gt;&lt;br&gt;hypothetical protein&lt;br&gt;Location: 117152 - 118979" locus_tag="MCIC6FC_015425" class="clusterblast-orf" id="dummy-2_q1_0_all"  />
<polygon points="110,40 161,40 166,35 161,30 110,30 110,40 " style="fill:#1515d8; stroke-width:1; stroke:black; " description="&lt;b&gt;MCIC6FC_015426&lt;/b&gt;&lt;br&gt;hypothetical protein&lt;br&gt;Location: 119111 - 120437" locus_tag="MCIC6FC_015426" class="clusterblast-orf" id="dummy-2_q2_0_all"  />
<polygon points="183,40 340,40 345,35 340,30 183,30 183,40 " style="fill:#d815d8; stroke-width:1; stroke:black; " description="&lt;b&gt;MCIC6FC_015427&lt;/b&gt;&lt;br&gt;hypothetical protein&lt;br&gt;Location: 120854 - 124718" locus_tag="MCIC6FC_015427" class="clusterblast-orf" id="dummy-2_q3_0_all"  />
<polygon points="345,35 350,30 565,30 565,40 350,40 345,35 " style="fill:#d8d815; stroke-width:1; stroke:black; " description="&lt;b&gt;MCIC6FC_015428&lt;/b&gt;&lt;br&gt;hypothetical protein&lt;br&gt;Location: 124725 - 129958" locus_tag="MCIC6FC_015428" class="clusterblast-orf" id="dummy-2_q4_0_all"  />
<polygon points="574,40 775,40 780,35 775,30 574,30 574,40 " style="fill:#15d8d8; stroke-width:1; stroke:black; " description="&lt;b&gt;MCIC6FC_015429&lt;/b&gt;&lt;br&gt;hypothetical protein&lt;br&gt;Location: 130173 - 135098" locus_tag="MCIC6FC_015429" class="clusterblast-orf" id="dummy-2_q5_0_all"  />
</g>
<g label="NZ_CP027762" description="NZ_CP027762 (4563442-4578504): Pseudomonas sp. LBUM920 chromosome, complete g... (66% of genes show similarity), NAGGN" class="clusterblast-cluster"  >
<text x="5" y="70" class="clusterblast-acc"  >
<a xlink:href="https://antismash-db.secondarymetabolites.org/area.html?record=NZ_CP027762&amp;start=4563442&amp;end=4578504" target="_blank">NZ_CP027762 (4563442-4578504)</a>: Pseudomonas sp. LBUM920 chromosome, complete g... (66% of genes show similarity), NAGGN</text>
<line x1="10" y1="85" x2="778.0" y2="85" style="stroke-width:1; stroke:grey; "  />
</g>
<g id="a2_000"  >
<polygon points="183,90 186,90 191,85 186,80 183,80 183,90 " style="fill:#1515d8; stroke-width:1; stroke:black; " description="&lt;b&gt;C4J83_RS21160&lt;/b&gt;&lt;br&gt;PLDc N-terminal domain-containing protein&lt;br&gt;Location: 4578282 - 4578091&lt;br&gt;&lt;br&gt;&lt;b&gt;BlastP hit with MCIC6FC_015426&lt;/b&gt;&lt;br&gt;Percentage identity: 100&lt;br&gt;Percentage coverage: 15&lt;br&gt;BLAST bit score: 122&lt;br&gt;E-value: 1.3e-25" locus_tag="C4J83_RS21160" class="clusterblast-orf" id="dummy-2_h2_10_0"  />
</g>
<g id="a2_001"  >
<polygon points="209,90 291,90 296,85 291,80 209,80 209,90 " style="fill:#d815d8; stroke-width:1; stroke:black; " description="&lt;b&gt;C4J83_RS21155&lt;/b&gt;&lt;br&gt;LTA synthase family protein&lt;br&gt;Location: 4577673 - 4575586&lt;br&gt;&lt;br&gt;&lt;b&gt;BlastP hit with MCIC6FC_015427&lt;/b&gt;&lt;br&gt;Percentage identity: 100&lt;br&gt;Percentage coverage: 62&lt;br&gt;BLAST bit score: 1383&lt;br&gt;E-value: 0.0" locus_tag="C4J83_RS21155" class="clusterblast-orf" id="dummy-2_h2_10_1"  />
</g>
<g id="a2_002"  >
<polygon points="299,85 304,80 305,80 305,90 304,90 299,85 " style="fill:white; stroke-width:1; stroke:black; " description="&lt;b&gt;C4J83_RS21150&lt;/b&gt;&lt;br&gt;DUF3309 domain-containing protein&lt;br&gt;Location: 4575531 - 4575379" locus_tag="C4J83_RS21150" class="clusterblast-orf" id="dummy-2_h2_10_2"  />
</g>
<g id="a2_003"  >
<polygon points="319,90 348,90 353,85 348,80 319,80 319,90 " style="fill:#d815d8; stroke-width:1; stroke:black; " description="&lt;b&gt;C4J83_RS21145&lt;/b&gt;&lt;br&gt;SDR family oxidoreductase&lt;br&gt;Location: 4575048 - 4574233&lt;br&gt;&lt;br&gt;&lt;b&gt;BlastP hit with MCIC6FC_015427&lt;/b&gt;&lt;br&gt;Percentage identity: 96&lt;br&gt;Percentage coverage: 24&lt;br&gt;BLAST bit score: 507&lt;br&gt;E-value: 2.8e-141" locus_tag="C4J83_RS21145" class="clusterblast-orf" id="dummy-2_h2_10_3"  />
</g>
<g id="a2_004"  >
<polygon points="363,90 366,90 371,85 366,80 363,80 363,90 " style="fill:white; stroke-width:1; stroke:black; " description="&lt;b&gt;C4J83_RS21140&lt;/b&gt;&lt;br&gt;carbon storage regulator CsrA&lt;br&gt;Location: 4574004 - 4573813" locus_tag="C4J83_RS21140" class="clusterblast-orf" id="dummy-2_h2_10_4"  />
</g>
<g id="a2_005"  >
<polygon points="371,85 376,80 380,80 380,90 376,90 371,85 " style="fill:white; stroke-width:1; stroke:black; " description="&lt;b&gt;C4J83_RS21135&lt;/b&gt;&lt;br&gt;YheU family protein&lt;br&gt;Location: 4573805 - 4573578" locus_tag="C4J83_RS21135" class="clusterblast-orf" id="dummy-2_h2_10_5"  />
</g>
<g id="a2_006"  >
<polygon points="384,85 389,80 433,80 433,90 389,90 384,85 " style="fill:#d8d815; stroke-width:1; stroke:black; " description="&lt;b&gt;C4J83_RS21130&lt;/b&gt;&lt;br&gt;osmoprotectant NAGGN system M42 family peptidase&lt;br&gt;Location: 4573504 - 4572320&lt;br&gt;&lt;br&gt;&lt;b&gt;BlastP hit with MCIC6FC_015428&lt;/b&gt;&lt;br&gt;Percentage identity: 100&lt;br&gt;Percentage coverage: 23&lt;br&gt;BLAST bit score: 776&lt;br&gt;E-value: 4.9e-222" locus_tag="C4J83_RS21130" class="clusterblast-orf" id="dummy-2_h2_10_6"  />
</g>
<g id="a2_007"  >
<polygon points="448,85 453,80 521,80 521,90 453,90 448,85 " style="fill:#d8d815; stroke-width:1; stroke:black; " description="&lt;b&gt;C4J83_RS21120&lt;/b&gt;&lt;br&gt;N-acetylglutaminylglutamine synthetase&lt;br&gt;Location: 4571967 - 4570219&lt;br&gt;&lt;br&gt;&lt;b&gt;BlastP hit with MCIC6FC_015428&lt;/b&gt;&lt;br&gt;Percentage identity: 99&lt;br&gt;Percentage coverage: 34&lt;br&gt;BLAST bit score: 1143&lt;br&gt;E-value: 0.0" locus_tag="C4J83_RS21120" class="clusterblast-orf" id="dummy-2_h2_10_7"  />
</g>
<g id="a2_008"  >
<polygon points="521,85 526,80 596,80 596,90 526,90 521,85 " style="fill:#d8d815; stroke-width:1; stroke:black; " description="&lt;b&gt;C4J83_RS21115&lt;/b&gt;&lt;br&gt;N-acetylglutaminylglutamine amidotransferase&lt;br&gt;Location: 4570215 - 4568443&lt;br&gt;&lt;br&gt;&lt;b&gt;BlastP hit with MCIC6FC_015428&lt;/b&gt;&lt;br&gt;Percentage identity: 98&lt;br&gt;Percentage coverage: 35&lt;br&gt;BLAST bit score: 1165&lt;br&gt;E-value: 0.0" locus_tag="C4J83_RS21115" class="clusterblast-orf" id="dummy-2_h2_10_8"  />
</g>
</svg>
