<svg xmlns="http://www.w3.org/2000/svg" xmlns:xlink="http://www.w3.org/1999/xlink" version="1.1" x="0" y="0" height="230" width="800" viewBox="0 0 800 230" preserveAspectRatio="none"  >
<g label="Query sequence" class="clusterblast-cluster"  >
<text x="5" y="20" class="clusterblast-acc"  >
Query sequence</text>
<line x1="10" y1="35" x2="778.0" y2="35" style="stroke-width:1; stroke:grey; "  />
<polygon points="0,35 5,30 117,30 117,40 5,40 0,35 " style="fill:white; stroke-width:1; stroke:black; " description="&lt;b&gt;MCIC6FC_018664&lt;/b&gt;&lt;br&gt;hypothetical protein&lt;br&gt;Location: 22705 - 26530" locus_tag="MCIC6FC_018664" class="clusterblast-orf" id="dummy-1_q0_0_all"  />
<polygon points="124,40 157,40 162,35 157,30 124,30 124,40 " style="fill:white; stroke-width:1; stroke:black; " description="&lt;b&gt;MCIC6FC_018665&lt;/b&gt;&lt;br&gt;hypothetical protein&lt;br&gt;Location: 26767 - 28015" locus_tag="MCIC6FC_018665" class="clusterblast-orf" id="dummy-1_q1_0_all"  />
<polygon points="170,35 175,30 292,30 292,40 175,40 170,35 " style="fill:#d81515; stroke-width:1; stroke:black; " description="&lt;b&gt;MCIC6FC_018667&lt;/b&gt;&lt;br&gt;hypothetical protein&lt;br&gt;Location: 28265 - 32269" locus_tag="MCIC6FC_018667" class="clusterblast-orf" id="dummy-1_q2_0_all"  />
<polygon points="294,40 379,40 384,35 379,30 294,30 294,40 " style="fill:white; stroke-width:1; stroke:black; " description="&lt;b&gt;MCIC6FC_018668&lt;/b&gt;&lt;br&gt;hypothetical protein&lt;br&gt;Location: 32335 - 35275" locus_tag="MCIC6FC_018668" class="clusterblast-orf" id="dummy-1_q3_0_all"  />
<polygon points="392,40 411,40 416,35 411,30 392,30 392,40 " style="fill:white; stroke-width:1; stroke:black; " description="&lt;b&gt;MCIC6FC_018669&lt;/b&gt;&lt;br&gt;hypothetical protein&lt;br&gt;Location: 35531 - 36315" locus_tag="MCIC6FC_018669" class="clusterblast-orf" id="dummy-1_q4_0_all"  />
<polygon points="418,40 575,40 580,35 575,30 418,30 418,40 " style="fill:#4dd815; stroke-width:1; stroke:black; " description="&lt;b&gt;MCIC6FC_018670&lt;/b&gt;&lt;br&gt;hypothetical protein&lt;br&gt;Location: 36382 - 41667" locus_tag="MCIC6FC_018670" class="clusterblast-orf" id="dummy-1_q5_0_all"  />
<polygon points="581,40 628,40 633,35 628,30 581,30 581,40 " style="fill:#1585d8; stroke-width:1; stroke:black; " description="&lt;b&gt;MCIC6FC_018671&lt;/b&gt;&lt;br&gt;hypothetical protein&lt;br&gt;Location: 41706 - 43412" locus_tag="MCIC6FC_018671" class="clusterblast-orf" id="dummy-1_q6_0_all"  />
<polygon points="637,40 678,40 683,35 678,30 637,30 637,40 " style="fill:#d815bc; stroke-width:1; stroke:black; " description="&lt;b&gt;MCIC6FC_018672&lt;/b&gt;&lt;br&gt;hypothetical protein&lt;br&gt;Location: 43518 - 45049" locus_tag="MCIC6FC_018672" class="clusterblast-orf" id="dummy-1_q7_0_all"  />
<polygon points="683,35 688,30 708,30 708,40 688,40 683,35 " style="fill:#d8bc15; stroke-width:1; stroke:black; " description="&lt;b&gt;MCIC6FC_018673&lt;/b&gt;&lt;br&gt;hypothetical protein&lt;br&gt;Location: 45052 - 45859" locus_tag="MCIC6FC_018673" class="clusterblast-orf" id="dummy-1_q8_0_all"  />
<polygon points="712,40 712,40 717,35 712,30 712,30 712,40 " style="fill:#15d885; stroke-width:1; stroke:black; " description="&lt;b&gt;MCIC6FC_018674&lt;/b&gt;&lt;br&gt;hypothetical protein&lt;br&gt;Location: 45981 - 46134" locus_tag="MCIC6FC_018674" class="clusterblast-orf" id="dummy-1_q9_0_all"  />
<polygon points="720,35 725,30 780,30 780,40 725,40 720,35 " style="fill:#4d15d8; stroke-width:1; stroke:black; " description="&lt;b&gt;MCIC6FC_018675&lt;/b&gt;&lt;br&gt;hypothetical protein&lt;br&gt;Location: 46233 - 48202" locus_tag="MCIC6FC_018675" class="clusterblast-orf" id="dummy-1_q10_0_all"  />
</g>
<g label="NZ_AP014637" description="NZ_AP014637 (56935-71758): Pseudomonas sp. StFLB209 (50% of genes show similarity), NAGGN" class="clusterblast-cluster"  >
<text x="5" y="70" class="clusterblast-acc"  >
<a xlink:href="https://antismash-db.secondarymetabolites.org/area.html?record=NZ_AP014637&amp;start=56935&amp;end=71758" target="_blank">NZ_AP014637 (56935-71758)</a>: Pseudomonas sp. StFLB209 (50% of genes show similarity), NAGGN</text>
<line x1="10" y1="85" x2="778.0" y2="85" style="stroke-width:1; stroke:grey; "  />
</g>
<g id="a1_000"  >
<polygon points="174,90 189,90 194,85 189,80 174,80 174,90 " style="fill:white; stroke-width:1; stroke:black; " description="&lt;b&gt;PSCI_RS28115&lt;/b&gt;&lt;br&gt;tail fiber protein&lt;br&gt;Location: 57393 - 58061" locus_tag="PSCI_RS28115" class="clusterblast-orf" id="dummy-1_h1_3_0"  />
</g>
<g id="a1_001"  >
<polygon points="197,90 212,90 217,85 212,80 197,80 197,90 " style="fill:white; stroke-width:1; stroke:black; " description="&lt;b&gt;PSCI_RS00200&lt;/b&gt;&lt;br&gt;tail fiber protein&lt;br&gt;Location: 58153 - 58794" locus_tag="PSCI_RS00200" class="clusterblast-orf" id="dummy-1_h1_3_1"  />
</g>
<g id="a1_002"  >
<polygon points="220,90 235,90 240,85 235,80 220,80 220,90 " style="fill:white; stroke-width:1; stroke:black; " description="&lt;b&gt;PSCI_RS28120&lt;/b&gt;&lt;br&gt;tail fiber protein&lt;br&gt;Location: 58902 - 59543" locus_tag="PSCI_RS28120" class="clusterblast-orf" id="dummy-1_h1_3_2"  />
</g>
<g id="a1_003"  >
<polygon points="241,90 251,90 256,85 251,80 241,80 241,90 " style="fill:white; stroke-width:1; stroke:black; " description="&lt;b&gt;PSCI_RS00210&lt;/b&gt;&lt;br&gt;GNAT family N-acetyltransferase&lt;br&gt;Location: 59603 - 60079" locus_tag="PSCI_RS00210" class="clusterblast-orf" id="dummy-1_h1_3_3"  />
</g>
<g id="a1_004"  >
<polygon points="256,90 273,90 278,85 273,80 256,80 256,90 " style="fill:white; stroke-width:1; stroke:black; " description="&lt;b&gt;PSCI_RS00215&lt;/b&gt;&lt;br&gt;aspartyl/asparaginyl beta-hydroxylase domain-containing protein&lt;br&gt;Location: 60080 - 60814" locus_tag="PSCI_RS00215" class="clusterblast-orf" id="dummy-1_h1_3_4"  />
</g>
<g id="a1_005"  >
<polygon points="278,90 304,90 309,85 304,80 278,80 278,90 " style="fill:white; stroke-width:1; stroke:black; " description="&lt;b&gt;PSCI_RS28125&lt;/b&gt;&lt;br&gt;sulfotransferase family protein&lt;br&gt;Location: 60792 - 61802" locus_tag="PSCI_RS28125" class="clusterblast-orf" id="dummy-1_h1_3_5"  />
</g>
<g id="a1_006"  >
<polygon points="313,90 362,90 367,85 362,80 313,80 313,90 " style="fill:#4dd815; stroke-width:1; stroke:black; " description="&lt;b&gt;PSCI_RS00225&lt;/b&gt;&lt;br&gt;N-acetylglutaminylglutamine amidotransferase&lt;br&gt;Location: 61936 - 63708&lt;br&gt;&lt;br&gt;&lt;b&gt;BlastP hit with MCIC6FC_018670&lt;/b&gt;&lt;br&gt;Percentage identity: 79&lt;br&gt;Percentage coverage: 38&lt;br&gt;BLAST bit score: 943&lt;br&gt;E-value: 3.7e-272" locus_tag="PSCI_RS00225" class="clusterblast-orf" id="dummy-1_h1_3_6"  />
</g>
<g id="a1_007"  >
<polygon points="367,90 416,90 421,85 416,80 367,80 367,90 " style="fill:#1585d8; stroke-width:1; stroke:black; " description="&lt;b&gt;PSCI_RS00230&lt;/b&gt;&lt;br&gt;N-acetylglutaminylglutamine synthetase&lt;br&gt;Location: 63712 - 65460&lt;br&gt;&lt;br&gt;&lt;b&gt;BlastP hit with MCIC6FC_018671&lt;/b&gt;&lt;br&gt;Percentage identity: 78&lt;br&gt;Percentage coverage: 103&lt;br&gt;BLAST bit score: 884&lt;br&gt;E-value: 4.2e-255" locus_tag="PSCI_RS00230" class="clusterblast-orf" id="dummy-1_h1_3_7"  />
</g>
<g id="a1_008"  >
<polygon points="424,90 455,90 460,85 455,80 424,80 424,90 " style="fill:#d815bc; stroke-width:1; stroke:black; " description="&lt;b&gt;PSCI_RS00235&lt;/b&gt;&lt;br&gt;osmoprotectant NAGGN system M42 family peptidase&lt;br&gt;Location: 65562 - 66758&lt;br&gt;&lt;br&gt;&lt;b&gt;BlastP hit with MCIC6FC_018672&lt;/b&gt;&lt;br&gt;Percentage identity: 85&lt;br&gt;Percentage coverage: 85&lt;br&gt;BLAST bit score: 676&lt;br&gt;E-value: 2.4e-192" locus_tag="PSCI_RS00235" class="clusterblast-orf" id="dummy-1_h1_3_8"  />
</g>
<g id="a1_009"  >
<polygon points="463,90 465,90 470,85 465,80 463,80 463,90 " style="fill:#d815bc; stroke-width:1; stroke:black; " description="&lt;b&gt;PSCI_RS00240&lt;/b&gt;&lt;br&gt;YheU family protein&lt;br&gt;Location: 66850 - 67077&lt;br&gt;&lt;br&gt;&lt;b&gt;BlastP hit with MCIC6FC_018672&lt;/b&gt;&lt;br&gt;Percentage identity: 65&lt;br&gt;Percentage coverage: 17&lt;br&gt;BLAST bit score: 96&lt;br&gt;E-value: 8e-18" locus_tag="PSCI_RS00240" class="clusterblast-orf" id="dummy-1_h1_3_9"  />
</g>
<g id="a1_0010"  >
<polygon points="471,85 476,80 477,80 477,90 476,90 471,85 " style="fill:#d8bc15; stroke-width:1; stroke:black; " description="&lt;b&gt;PSCI_RS00245&lt;/b&gt;&lt;br&gt;carbon storage regulator CsrA&lt;br&gt;Location: 67103 - 67312&lt;br&gt;&lt;br&gt;&lt;b&gt;BlastP hit with MCIC6FC_018673&lt;/b&gt;&lt;br&gt;Percentage identity: 65&lt;br&gt;Percentage coverage: 26&lt;br&gt;BLAST bit score: 71&lt;br&gt;E-value: 1.6e-10" locus_tag="PSCI_RS00245" class="clusterblast-orf" id="dummy-1_h1_3_10"  />
</g>
<g id="a1_0011"  >
<polygon points="482,85 487,80 493,80 493,90 487,90 482,85 " style="fill:white; stroke-width:1; stroke:black; " description="&lt;b&gt;PSCI_RS00250&lt;/b&gt;&lt;br&gt;DUF2784 domain-containing protein&lt;br&gt;Location: 67473 - 67838" locus_tag="PSCI_RS00250" class="clusterblast-orf" id="dummy-1_h1_3_11"  />
</g>
<g id="a1_0012"  >
<polygon points="502,90 502,90 507,85 502,80 502,80 502,90 " style="fill:#15d885; stroke-width:1; stroke:black; " description="&lt;b&gt;PSCI_RS28355&lt;/b&gt;&lt;br&gt;DUF3309 domain-containing protein&lt;br&gt;Location: 68124 - 68282&lt;br&gt;&lt;br&gt;&lt;b&gt;BlastP hit with MCIC6FC_018674&lt;/b&gt;&lt;br&gt;Percentage identity: 74&lt;br&gt;Percentage coverage: 68&lt;br&gt;BLAST bit score: 55&lt;br&gt;E-value: 1.7e-06" locus_tag="PSCI_RS28355" class="clusterblast-orf" id="dummy-1_h1_3_12"  />
</g>
<g id="a1_0013"  >
<polygon points="510,85 515,80 561,80 561,90 515,90 510,85 " style="fill:#4d15d8; stroke-width:1; stroke:black; " description="&lt;b&gt;PSCI_RS00260&lt;/b&gt;&lt;br&gt;cation acetate symporter&lt;br&gt;Location: 68389 - 70047&lt;br&gt;&lt;br&gt;&lt;b&gt;BlastP hit with MCIC6FC_018675&lt;/b&gt;&lt;br&gt;Percentage identity: 89&lt;br&gt;Percentage coverage: 85&lt;br&gt;BLAST bit score: 909&lt;br&gt;E-value: 1.4e-262" locus_tag="PSCI_RS00260" class="clusterblast-orf" id="dummy-1_h1_3_13"  />
</g>
<g id="a1_0014"  >
<polygon points="561,85 566,80 570,80 570,90 566,90 561,85 " style="fill:#4d15d8; stroke-width:1; stroke:black; " description="&lt;b&gt;PSCI_RS00265&lt;/b&gt;&lt;br&gt;DUF485 domain-containing protein&lt;br&gt;Location: 70044 - 70355&lt;br&gt;&lt;br&gt;&lt;b&gt;BlastP hit with MCIC6FC_018675&lt;/b&gt;&lt;br&gt;Percentage identity: 76&lt;br&gt;Percentage coverage: 15&lt;br&gt;BLAST bit score: 160&lt;br&gt;E-value: 8.4e-37" locus_tag="PSCI_RS00265" class="clusterblast-orf" id="dummy-1_h1_3_14"  />
</g>
<g id="a1_0015"  >
<polygon points="579,85 584,80 605,80 605,90 584,90 579,85 " style="fill:white; stroke-width:1; stroke:black; " description="&lt;b&gt;PSCI_RS00270&lt;/b&gt;&lt;br&gt;glycine betaine ABC transporter substrate-binding protein&lt;br&gt;Location: 70643 - 71497" locus_tag="PSCI_RS00270" class="clusterblast-orf" id="dummy-1_h1_3_15"  />
</g>
</svg>
