<svg xmlns="http://www.w3.org/2000/svg" xmlns:xlink="http://www.w3.org/1999/xlink" version="1.1" x="0" y="0" height="230" width="800" viewBox="0 0 800 230" preserveAspectRatio="none"  >
<g label="Query sequence" class="clusterblast-cluster"  >
<text x="5" y="20" class="clusterblast-acc"  >
Query sequence</text>
<line x1="10" y1="35" x2="778.0" y2="35" style="stroke-width:1; stroke:grey; "  />
<polygon points="192,40 197,40 202,35 197,30 192,30 192,40 " style="fill:#d81515; stroke-width:1; stroke:black; " description="&lt;b&gt;MCIC6FC_014020&lt;/b&gt;&lt;br&gt;hypothetical protein&lt;br&gt;Location: 52098 - 53356" locus_tag="MCIC6FC_014020" class="clusterblast-orf" id="dummy-1_q0_0_all"  />
<polygon points="203,35 208,30 225,30 225,40 208,40 203,35 " style="fill:#3cd815; stroke-width:1; stroke:black; " description="&lt;b&gt;MCIC6FC_014021&lt;/b&gt;&lt;br&gt;hypothetical protein&lt;br&gt;Location: 53450 - 56005" locus_tag="MCIC6FC_014021" class="clusterblast-orf" id="dummy-1_q1_0_all"  />
<polygon points="227,40 246,40 251,35 246,30 227,30 227,40 " style="fill:#1563d8; stroke-width:1; stroke:black; " description="&lt;b&gt;MCIC6FC_014022&lt;/b&gt;&lt;br&gt;hypothetical protein&lt;br&gt;Location: 56153 - 58945" locus_tag="MCIC6FC_014022" class="clusterblast-orf" id="dummy-1_q2_0_all"  />
<polygon points="252,35 257,30 261,30 261,40 257,40 252,35 " style="fill:#b115d8; stroke-width:1; stroke:black; " description="&lt;b&gt;MCIC6FC_014023&lt;/b&gt;&lt;br&gt;hypothetical protein&lt;br&gt;Location: 59080 - 60161" locus_tag="MCIC6FC_014023" class="clusterblast-orf" id="dummy-1_q3_0_all"  />
<polygon points="263,40 304,40 309,35 304,30 263,30 263,40 " style="fill:#d88a15; stroke-width:1; stroke:black; " description="&lt;b&gt;MCIC6FC_014024&lt;/b&gt;&lt;br&gt;hypothetical protein&lt;br&gt;Location: 60332 - 65690" locus_tag="MCIC6FC_014024" class="clusterblast-orf" id="dummy-1_q4_0_all"  />
<polygon points="309,40 316,40 321,35 316,30 309,30 309,40 " style="fill:#d88a15; stroke-width:1; stroke:black; " description="&lt;b&gt;MCIC6FC_014025&lt;/b&gt;&lt;br&gt;hypothetical protein&lt;br&gt;Location: 65750 - 67094" locus_tag="MCIC6FC_014025" class="clusterblast-orf" id="dummy-1_q5_0_all"  />
<polygon points="322,35 327,30 332,30 332,40 327,40 322,35 " style="fill:#15d863; stroke-width:1; stroke:black; " description="&lt;b&gt;MCIC6FC_014026&lt;/b&gt;&lt;br&gt;hypothetical protein&lt;br&gt;Location: 67206 - 68389" locus_tag="MCIC6FC_014026" class="clusterblast-orf" id="dummy-1_q6_0_all"  />
<polygon points="334,40 354,40 359,35 354,30 334,30 334,40 " style="fill:#3c15d8; stroke-width:1; stroke:black; " description="&lt;b&gt;MCIC6FC_014027&lt;/b&gt;&lt;br&gt;hypothetical protein&lt;br&gt;Location: 68607 - 71491" locus_tag="MCIC6FC_014027" class="clusterblast-orf" id="dummy-1_q7_0_all"  />
<polygon points="360,35 365,30 449,30 449,40 365,40 360,35 " style="fill:#d8158a; stroke-width:1; stroke:black; " description="&lt;b&gt;MCIC6FC_014028&lt;/b&gt;&lt;br&gt;hypothetical protein&lt;br&gt;Location: 71613 - 81880" locus_tag="MCIC6FC_014028" class="clusterblast-orf" id="dummy-1_q8_0_all"  />
<polygon points="452,40 489,40 494,35 489,30 452,30 452,40 " style="fill:#b1d815; stroke-width:1; stroke:black; " description="&lt;b&gt;MCIC6FC_014029&lt;/b&gt;&lt;br&gt;hypothetical protein&lt;br&gt;Location: 82282 - 87140" locus_tag="MCIC6FC_014029" class="clusterblast-orf" id="dummy-1_q9_0_all"  />
<polygon points="501,35 506,30 569,30 569,40 506,40 501,35 " style="fill:#15d8d8; stroke-width:1; stroke:black; " description="&lt;b&gt;MCIC6FC_014030&lt;/b&gt;&lt;br&gt;hypothetical protein&lt;br&gt;Location: 87945 - 95846" locus_tag="MCIC6FC_014030" class="clusterblast-orf" id="dummy-1_q10_0_all"  />
<polygon points="579,40 582,35 579,30 579,40 " style="fill:white; stroke-width:1; stroke:black; " description="&lt;b&gt;MCIC6FC_014031&lt;/b&gt;&lt;br&gt;hypothetical protein&lt;br&gt;Location: 96983 - 97328" locus_tag="MCIC6FC_014031" class="clusterblast-orf" id="dummy-1_q11_0_all"  />
<polygon points="582,35 587,30 588,30 588,40 587,40 582,35 " style="fill:white; stroke-width:1; stroke:black; " description="&lt;b&gt;MCIC6FC_014032&lt;/b&gt;&lt;br&gt;hypothetical protein&lt;br&gt;Location: 97335 - 97989" locus_tag="MCIC6FC_014032" class="clusterblast-orf" id="dummy-1_q12_0_all"  />
</g>
<g label="NZ_CP034036" description="NZ_CP034036 (4169934-4261339): Brenneria nigrifluens DSM 30175 = ATCC 13028 c... (9% of genes show similarity), NRPS,T1PKS" class="clusterblast-cluster"  >
<text x="5" y="70" class="clusterblast-acc"  >
<a xlink:href="https://antismash-db.secondarymetabolites.org/area.html?record=NZ_CP034036&amp;start=4169934&amp;end=4261339" target="_blank">NZ_CP034036 (4169934-4261339)</a>: Brenneria nigrifluens DSM 30175 = ATCC 13028 c... (9% of genes show similarity), NRPS,T1PKS</text>
<line x1="10" y1="85" x2="778.0" y2="85" style="stroke-width:1; stroke:grey; "  />
</g>
<g id="a1_000"  >
<polygon points="0,85 5,80 9,80 9,90 5,90 0,85 " style="fill:white; stroke-width:1; stroke:black; " description="&lt;b&gt;EH206_RS20005&lt;/b&gt;&lt;br&gt;isochorismate synthase&lt;br&gt;Location: 4260382 - 4259255" locus_tag="EH206_RS20005" class="clusterblast-orf" id="dummy-1_h1_3_0"  />
</g>
<g id="a1_001"  >
<polygon points="10,85 13,80 13,90 10,85 " style="fill:white; stroke-width:1; stroke:black; " description="&lt;b&gt;EH206_RS20000&lt;/b&gt;&lt;br&gt;isochorismate lyase&lt;br&gt;Location: 4259125 - 4258823" locus_tag="EH206_RS20000" class="clusterblast-orf" id="dummy-1_h1_3_1"  />
</g>
<g id="a1_002"  >
<polygon points="16,90 20,90 25,85 20,80 16,80 16,90 " style="fill:white; stroke-width:1; stroke:black; " description="&lt;b&gt;EH206_RS19995&lt;/b&gt;&lt;br&gt;NADP-dependent oxidoreductase&lt;br&gt;Location: 4258439 - 4257402" locus_tag="EH206_RS19995" class="clusterblast-orf" id="dummy-1_h1_3_2"  />
</g>
<g id="a1_003"  >
<polygon points="26,85 31,80 37,80 37,90 31,90 26,85 " style="fill:white; stroke-width:1; stroke:black; " description="&lt;b&gt;EH206_RS19990&lt;/b&gt;&lt;br&gt;FAD-dependent 2-octaprenylphenol hydroxylase&lt;br&gt;Location: 4257271 - 4256060" locus_tag="EH206_RS19990" class="clusterblast-orf" id="dummy-1_h1_3_3"  />
</g>
<g id="a1_004"  >
<polygon points="37,85 42,80 47,80 47,90 42,90 37,85 " style="fill:white; stroke-width:1; stroke:black; " description="&lt;b&gt;EH206_RS19985&lt;/b&gt;&lt;br&gt;2-octaprenyl-6-methoxyphenyl hydroxylase&lt;br&gt;Location: 4256035 - 4254857" locus_tag="EH206_RS19985" class="clusterblast-orf" id="dummy-1_h1_3_4"  />
</g>
<g id="a1_005"  >
<polygon points="48,85 53,80 59,80 59,90 53,90 48,85 " style="fill:white; stroke-width:1; stroke:black; " description="&lt;b&gt;EH206_RS19980&lt;/b&gt;&lt;br&gt;Xaa-Pro aminopeptidase&lt;br&gt;Location: 4254799 - 4253483" locus_tag="EH206_RS19980" class="clusterblast-orf" id="dummy-1_h1_3_5"  />
</g>
<g id="a1_006"  >
<polygon points="60,85 65,80 65,80 65,90 65,90 60,85 " style="fill:white; stroke-width:1; stroke:black; " description="&lt;b&gt;EH206_RS19975&lt;/b&gt;&lt;br&gt;YecA family protein&lt;br&gt;Location: 4253415 - 4252831" locus_tag="EH206_RS19975" class="clusterblast-orf" id="dummy-1_h1_3_6"  />
</g>
<g id="a1_007"  >
<polygon points="66,90 69,85 66,80 66,90 " style="fill:white; stroke-width:1; stroke:black; " description="&lt;b&gt;EH206_RS19970&lt;/b&gt;&lt;br&gt;cell division protein ZapA&lt;br&gt;Location: 4252645 - 4252316" locus_tag="EH206_RS19970" class="clusterblast-orf" id="dummy-1_h1_3_7"  />
</g>
<g id="a1_008"  >
<polygon points="72,90 72,90 77,85 72,80 72,80 72,90 " style="fill:white; stroke-width:1; stroke:black; " description="&lt;b&gt;EH206_RS19960&lt;/b&gt;&lt;br&gt;5-formyltetrahydrofolate cyclo-ligase&lt;br&gt;Location: 4252013 - 4251399" locus_tag="EH206_RS19960" class="clusterblast-orf" id="dummy-1_h1_3_8"  />
</g>
<g id="a1_009"  >
<polygon points="77,85 82,80 88,80 88,90 82,90 77,85 " style="fill:white; stroke-width:1; stroke:black; " description="&lt;b&gt;EH206_RS19955&lt;/b&gt;&lt;br&gt;multifunctional transcriptional regulator/nicotinamide-nucleotide adenylyltransferase/ribosylnicotinamide kinase NadR&lt;br&gt;Location: 4251427 - 4250171" locus_tag="EH206_RS19955" class="clusterblast-orf" id="dummy-1_h1_3_9"  />
</g>
<g id="a1_0010"  >
<polygon points="88,85 93,80 100,80 100,90 93,90 88,85 " style="fill:white; stroke-width:1; stroke:black; " description="&lt;b&gt;EH206_RS19950&lt;/b&gt;&lt;br&gt;DNA repair protein RadA&lt;br&gt;Location: 4250106 - 4248721" locus_tag="EH206_RS19950" class="clusterblast-orf" id="dummy-1_h1_3_10"  />
</g>
<g id="a1_0011"  >
<polygon points="100,85 105,80 109,80 109,90 105,90 100,85 " style="fill:white; stroke-width:1; stroke:black; " description="&lt;b&gt;EH206_RS19945&lt;/b&gt;&lt;br&gt;phosphoserine phosphatase&lt;br&gt;Location: 4248703 - 4247726" locus_tag="EH206_RS19945" class="clusterblast-orf" id="dummy-1_h1_3_11"  />
</g>
<g id="a1_0012"  >
<polygon points="110,90 111,90 116,85 111,80 110,80 110,90 " style="fill:white; stroke-width:1; stroke:black; " description="&lt;b&gt;EH206_RS19940&lt;/b&gt;&lt;br&gt;YtjB family periplasmic protein&lt;br&gt;Location: 4247560 - 4246880" locus_tag="EH206_RS19940" class="clusterblast-orf" id="dummy-1_h1_3_12"  />
</g>
<g id="a1_0013"  >
<polygon points="116,90 120,90 125,85 120,80 116,80 116,90 " style="fill:#d88a15; stroke-width:1; stroke:black; " description="&lt;b&gt;EH206_RS19935&lt;/b&gt;&lt;br&gt;Fe2+-enterobactin ABC transporter substrate-binding protein&lt;br&gt;Location: 4246821 - 4245814&lt;br&gt;&lt;br&gt;&lt;b&gt;BlastP hit with MCIC6FC_014025&lt;/b&gt;&lt;br&gt;Percentage identity: 64&lt;br&gt;Percentage coverage: 97&lt;br&gt;BLAST bit score: 334&lt;br&gt;E-value: 8.8e-90" locus_tag="EH206_RS19935" class="clusterblast-orf" id="dummy-1_h1_3_13"  />
</g>
<g id="a1_0014"  >
<polygon points="126,85 131,80 137,80 137,90 131,90 126,85 " style="fill:#15d863; stroke-width:1; stroke:black; " description="&lt;b&gt;EH206_RS19930&lt;/b&gt;&lt;br&gt;enterobactin transporter EntS&lt;br&gt;Location: 4245752 - 4244457&lt;br&gt;&lt;br&gt;&lt;b&gt;BlastP hit with MCIC6FC_014026&lt;/b&gt;&lt;br&gt;Percentage identity: 69&lt;br&gt;Percentage coverage: 105&lt;br&gt;BLAST bit score: 471&lt;br&gt;E-value: 9.6e-131" locus_tag="EH206_RS19930" class="clusterblast-orf" id="dummy-1_h1_3_14"  />
</g>
<g id="a1_0015"  >
<polygon points="138,90 142,90 147,85 142,80 138,80 138,90 " style="fill:#3c15d8; stroke-width:1; stroke:black; " description="&lt;b&gt;EH206_RS19925&lt;/b&gt;&lt;br&gt;Fe(3+)-siderophore ABC transporter permease&lt;br&gt;Location: 4244274 - 4243231&lt;br&gt;&lt;br&gt;&lt;b&gt;BlastP hit with MCIC6FC_014027&lt;/b&gt;&lt;br&gt;Percentage identity: 64&lt;br&gt;Percentage coverage: 39&lt;br&gt;BLAST bit score: 384&lt;br&gt;E-value: 2.2e-104" locus_tag="EH206_RS19925" class="clusterblast-orf" id="dummy-1_h1_3_15"  />
</g>
<g id="a1_0016"  >
<polygon points="148,90 151,90 156,85 151,80 148,80 148,90 " style="fill:#3c15d8; stroke-width:1; stroke:black; " description="&lt;b&gt;EH206_RS19920&lt;/b&gt;&lt;br&gt;iron-enterobactin ABC transporter permease&lt;br&gt;Location: 4243223 - 4242189&lt;br&gt;&lt;br&gt;&lt;b&gt;BlastP hit with MCIC6FC_014027&lt;/b&gt;&lt;br&gt;Percentage identity: 64&lt;br&gt;Percentage coverage: 36&lt;br&gt;BLAST bit score: 372&lt;br&gt;E-value: 1.5e-100" locus_tag="EH206_RS19920" class="clusterblast-orf" id="dummy-1_h1_3_16"  />
</g>
<g id="a1_0017"  >
<polygon points="157,90 159,90 164,85 159,80 157,80 157,90 " style="fill:#3c15d8; stroke-width:1; stroke:black; " description="&lt;b&gt;EH206_RS19915&lt;/b&gt;&lt;br&gt;ABC transporter ATP-binding protein&lt;br&gt;Location: 4242166 - 4241369&lt;br&gt;&lt;br&gt;&lt;b&gt;BlastP hit with MCIC6FC_014027&lt;/b&gt;&lt;br&gt;Percentage identity: 71&lt;br&gt;Percentage coverage: 30&lt;br&gt;BLAST bit score: 361&lt;br&gt;E-value: 2e-97" locus_tag="EH206_RS19915" class="clusterblast-orf" id="dummy-1_h1_3_17"  />
</g>
<g id="a1_0018"  >
<polygon points="164,85 169,80 238,80 238,90 169,90 164,85 " style="fill:#d8158a; stroke-width:1; stroke:black; " description="&lt;b&gt;EH206_RS19910&lt;/b&gt;&lt;br&gt;non-ribosomal peptide synthetase&lt;br&gt;Location: 4241339 - 4232787&lt;br&gt;&lt;br&gt;&lt;b&gt;BlastP hit with MCIC6FC_014028&lt;/b&gt;&lt;br&gt;Percentage identity: 54&lt;br&gt;Percentage coverage: 102&lt;br&gt;BLAST bit score: 2663&lt;br&gt;E-value: 0.0" locus_tag="EH206_RS19910" class="clusterblast-orf" id="dummy-1_h1_3_18"  />
</g>
<g id="a1_0019"  >
<polygon points="238,85 240,80 240,90 238,85 " style="fill:white; stroke-width:1; stroke:black; " description="&lt;b&gt;EH206_RS19905&lt;/b&gt;&lt;br&gt;MbtH family protein&lt;br&gt;Location: 4232720 - 4232505" locus_tag="EH206_RS19905" class="clusterblast-orf" id="dummy-1_h1_3_19"  />
</g>
<g id="a1_0020"  >
<polygon points="240,85 245,80 251,80 251,90 245,90 240,85 " style="fill:white; stroke-width:1; stroke:black; " description="&lt;b&gt;EH206_RS19900&lt;/b&gt;&lt;br&gt;enterochelin esterase&lt;br&gt;Location: 4232533 - 4231175" locus_tag="EH206_RS19900" class="clusterblast-orf" id="dummy-1_h1_3_20"  />
</g>
<g id="a1_0021"  >
<polygon points="254,90 268,90 273,85 268,80 254,80 254,90 " style="fill:#b1d815; stroke-width:1; stroke:black; " description="&lt;b&gt;EH206_RS19895&lt;/b&gt;&lt;br&gt;TonB-dependent siderophore receptor&lt;br&gt;Location: 4230847 - 4228631&lt;br&gt;&lt;br&gt;&lt;b&gt;BlastP hit with MCIC6FC_014029&lt;/b&gt;&lt;br&gt;Percentage identity: 50&lt;br&gt;Percentage coverage: 51&lt;br&gt;BLAST bit score: 576&lt;br&gt;E-value: 1e-161" locus_tag="EH206_RS19895" class="clusterblast-orf" id="dummy-1_h1_3_21"  />
</g>
<g id="a1_0022"  >
<polygon points="275,90 280,90 285,85 280,80 275,80 275,90 " style="fill:white; stroke-width:1; stroke:black; " description="&lt;b&gt;EH206_RS19890&lt;/b&gt;&lt;br&gt;isochorismate synthase&lt;br&gt;Location: 4228482 - 4227295" locus_tag="EH206_RS19890" class="clusterblast-orf" id="dummy-1_h1_3_22"  />
</g>
<g id="a1_0023"  >
<polygon points="285,90 294,90 299,85 294,80 285,80 285,90 " style="fill:white; stroke-width:1; stroke:black; " description="&lt;b&gt;EH206_RS19885&lt;/b&gt;&lt;br&gt;(2,3-dihydroxybenzoyl)adenylate synthase&lt;br&gt;Location: 4227298 - 4225673" locus_tag="EH206_RS19885" class="clusterblast-orf" id="dummy-1_h1_3_23"  />
</g>
<g id="a1_0024"  >
<polygon points="299,90 301,90 306,85 301,80 299,80 299,90 " style="fill:white; stroke-width:1; stroke:black; " description="&lt;b&gt;EH206_RS19880&lt;/b&gt;&lt;br&gt;isochorismatase&lt;br&gt;Location: 4225676 - 4224798" locus_tag="EH206_RS19880" class="clusterblast-orf" id="dummy-1_h1_3_24"  />
</g>
<g id="a1_0025"  >
<polygon points="306,90 308,90 313,85 308,80 306,80 306,90 " style="fill:white; stroke-width:1; stroke:black; " description="&lt;b&gt;EH206_RS19875&lt;/b&gt;&lt;br&gt;2,3-dihydro-2,3-dihydroxybenzoate dehydrogenase&lt;br&gt;Location: 4224801 - 4224043" locus_tag="EH206_RS19875" class="clusterblast-orf" id="dummy-1_h1_3_25"  />
</g>
<g id="a1_0026"  >
<polygon points="315,90 324,90 329,85 324,80 315,80 315,90 " style="fill:white; stroke-width:1; stroke:black; " description="&lt;b&gt;EH206_RS19870&lt;/b&gt;&lt;br&gt;peptide chain release factor 3&lt;br&gt;Location: 4223786 - 4222197" locus_tag="EH206_RS19870" class="clusterblast-orf" id="dummy-1_h1_3_26"  />
</g>
<g id="a1_0027"  >
<polygon points="333,90 333,90 338,85 333,80 333,80 333,90 " style="fill:white; stroke-width:1; stroke:black; " description="&lt;b&gt;EH206_RS19865&lt;/b&gt;&lt;br&gt;molecular chaperone OsmY&lt;br&gt;Location: 4221717 - 4221103" locus_tag="EH206_RS19865" class="clusterblast-orf" id="dummy-1_h1_3_27"  />
</g>
<g id="a1_0028"  >
<polygon points="340,90 341,85 340,80 340,90 " style="fill:white; stroke-width:1; stroke:black; " description="&lt;b&gt;EH206_RS19860&lt;/b&gt;&lt;br&gt;DUF1328 domain-containing protein&lt;br&gt;Location: 4220958 - 4220797" locus_tag="EH206_RS19860" class="clusterblast-orf" id="dummy-1_h1_3_28"  />
</g>
<g id="a1_0029"  >
<polygon points="342,90 344,85 342,80 342,90 " style="fill:white; stroke-width:1; stroke:black; " description="&lt;b&gt;EH206_RS19855&lt;/b&gt;&lt;br&gt;stress response protein&lt;br&gt;Location: 4220645 - 4220457" locus_tag="EH206_RS19855" class="clusterblast-orf" id="dummy-1_h1_3_29"  />
</g>
<g id="a1_0030"  >
<polygon points="345,90 347,90 352,85 347,80 345,80 345,90 " style="fill:white; stroke-width:1; stroke:black; " description="&lt;b&gt;EH206_RS19850&lt;/b&gt;&lt;br&gt;TatD family hydrolase&lt;br&gt;Location: 4220348 - 4219539" locus_tag="EH206_RS19850" class="clusterblast-orf" id="dummy-1_h1_3_30"  />
</g>
<g id="a1_0031"  >
<polygon points="355,90 361,90 366,85 361,80 355,80 355,90 " style="fill:white; stroke-width:1; stroke:black; " description="&lt;b&gt;EH206_RS19845&lt;/b&gt;&lt;br&gt;NupC/NupG family nucleoside CNT transporter&lt;br&gt;Location: 4219223 - 4217946" locus_tag="EH206_RS19845" class="clusterblast-orf" id="dummy-1_h1_3_31"  />
</g>
<g id="a1_0032"  >
<polygon points="366,90 368,90 373,85 368,80 366,80 366,90 " style="fill:white; stroke-width:1; stroke:black; " description="&lt;b&gt;EH206_RS19840&lt;/b&gt;&lt;br&gt;4'-phosphopantetheinyl transferase superfamily protein&lt;br&gt;Location: 4217842 - 4217126" locus_tag="EH206_RS19840" class="clusterblast-orf" id="dummy-1_h1_3_32"  />
</g>
<g id="a1_0033"  >
<polygon points="373,85 378,80 379,80 379,90 378,90 373,85 " style="fill:white; stroke-width:1; stroke:black; " description="&lt;b&gt;EH206_RS19835&lt;/b&gt;&lt;br&gt;helix-turn-helix transcriptional regulator&lt;br&gt;Location: 4217051 - 4216353" locus_tag="EH206_RS19835" class="clusterblast-orf" id="dummy-1_h1_3_33"  />
</g>
<g id="a1_0034"  >
<polygon points="382,90 383,90 388,85 383,80 382,80 382,90 " style="fill:white; stroke-width:1; stroke:black; " description="&lt;b&gt;EH206_RS19830&lt;/b&gt;&lt;br&gt;antitermination protein&lt;br&gt;Location: 4216069 - 4215371" locus_tag="EH206_RS19830" class="clusterblast-orf" id="dummy-1_h1_3_34"  />
</g>
<g id="a1_0035"  >
<polygon points="390,90 393,85 390,80 390,90 " style="fill:white; stroke-width:1; stroke:black; " description="&lt;b&gt;EH206_RS19825&lt;/b&gt;&lt;br&gt;phage holin, lambda family&lt;br&gt;Location: 4215133 - 4214789" locus_tag="EH206_RS19825" class="clusterblast-orf" id="dummy-1_h1_3_35"  />
</g>
<g id="a1_0036"  >
<polygon points="395,90 402,90 407,85 402,80 395,80 395,90 " style="fill:white; stroke-width:1; stroke:black; " description="&lt;b&gt;EH206_RS19820&lt;/b&gt;&lt;br&gt;glycoside hydrolase family 68 protein&lt;br&gt;Location: 4214507 - 4213194" locus_tag="EH206_RS19820" class="clusterblast-orf" id="dummy-1_h1_3_36"  />
</g>
<g id="a1_0037"  >
<polygon points="407,85 409,80 409,90 407,85 " style="fill:white; stroke-width:1; stroke:black; " description="&lt;b&gt;EH206_RS19815&lt;/b&gt;&lt;br&gt;hypothetical protein&lt;br&gt;Location: 4213112 - 4212963" locus_tag="EH206_RS19815" class="clusterblast-orf" id="dummy-1_h1_3_37"  />
</g>
<g id="a1_0038"  >
<polygon points="410,90 419,90 424,85 419,80 410,80 410,90 " style="fill:white; stroke-width:1; stroke:black; " description="&lt;b&gt;EH206_RS19810&lt;/b&gt;&lt;br&gt;glutathionylspermidine synthase family protein&lt;br&gt;Location: 4212795 - 4211216" locus_tag="EH206_RS19810" class="clusterblast-orf" id="dummy-1_h1_3_38"  />
</g>
<g id="a1_0039"  >
<polygon points="425,90 427,85 425,80 425,90 " style="fill:white; stroke-width:1; stroke:black; " description="&lt;b&gt;EH206_RS19805&lt;/b&gt;&lt;br&gt;hypothetical protein&lt;br&gt;Location: 4211078 - 4210821" locus_tag="EH206_RS19805" class="clusterblast-orf" id="dummy-1_h1_3_39"  />
</g>
<g id="a1_0040"  >
<polygon points="430,90 430,90 435,85 430,80 430,80 430,90 " style="fill:white; stroke-width:1; stroke:black; " description="&lt;b&gt;EH206_RS19800&lt;/b&gt;&lt;br&gt;YdcF family protein&lt;br&gt;Location: 4210453 - 4209905" locus_tag="EH206_RS19800" class="clusterblast-orf" id="dummy-1_h1_3_40"  />
</g>
<g id="a1_0041"  >
<polygon points="436,90 438,85 436,80 436,90 " style="fill:white; stroke-width:1; stroke:black; " description="&lt;b&gt;EH206_RS19795&lt;/b&gt;&lt;br&gt;formaldehyde-responsive transcriptional repressor FrmR&lt;br&gt;Location: 4209787 - 4209512" locus_tag="EH206_RS19795" class="clusterblast-orf" id="dummy-1_h1_3_41"  />
</g>
<g id="a1_0042"  >
<polygon points="439,90 443,90 448,85 443,80 439,80 439,90 " style="fill:white; stroke-width:1; stroke:black; " description="&lt;b&gt;EH206_RS19790&lt;/b&gt;&lt;br&gt;S-(hydroxymethyl)glutathione dehydrogenase&lt;br&gt;Location: 4209477 - 4208368" locus_tag="EH206_RS19790" class="clusterblast-orf" id="dummy-1_h1_3_42"  />
</g>
<g id="a1_0043"  >
<polygon points="449,90 452,85 449,80 449,90 " style="fill:white; stroke-width:1; stroke:black; " description="&lt;b&gt;EH206_RS19785&lt;/b&gt;&lt;br&gt;VOC family protein&lt;br&gt;Location: 4208323 - 4207925" locus_tag="EH206_RS19785" class="clusterblast-orf" id="dummy-1_h1_3_43"  />
</g>
<g id="a1_0044"  >
<polygon points="453,90 454,85 453,80 453,90 " style="fill:white; stroke-width:1; stroke:black; " description="&lt;b&gt;EH206_RS19780&lt;/b&gt;&lt;br&gt;S-formylglutathione hydrolase&lt;br&gt;Location: 4207860 - 4207660" locus_tag="EH206_RS19780" class="clusterblast-orf" id="dummy-1_h1_3_44"  />
</g>
<g id="a1_0045"  >
<polygon points="454,90 456,85 454,80 454,90 " style="fill:white; stroke-width:1; stroke:black; " description="&lt;b&gt;EH206_RS19775&lt;/b&gt;&lt;br&gt;antibiotic biosynthesis protein CarD&lt;br&gt;Location: 4207655 - 4207458" locus_tag="EH206_RS19775" class="clusterblast-orf" id="dummy-1_h1_3_45"  />
</g>
<g id="a1_0046"  >
<polygon points="456,85 460,80 460,90 456,85 " style="fill:white; stroke-width:1; stroke:black; " description="&lt;b&gt;EH206_RS19770&lt;/b&gt;&lt;br&gt;transposase family protein&lt;br&gt;Location: 4207458 - 4207024" locus_tag="EH206_RS19770" class="clusterblast-orf" id="dummy-1_h1_3_46"  />
</g>
<g id="a1_0047"  >
<polygon points="461,85 463,80 463,90 461,85 " style="fill:white; stroke-width:1; stroke:black; " description="&lt;b&gt;EH206_RS19765&lt;/b&gt;&lt;br&gt;transposase&lt;br&gt;Location: 4206933 - 4206670" locus_tag="EH206_RS19765" class="clusterblast-orf" id="dummy-1_h1_3_47"  />
</g>
<g id="a1_0048"  >
<polygon points="463,85 464,80 464,90 463,85 " style="fill:white; stroke-width:1; stroke:black; " description="&lt;b&gt;EH206_RS19755&lt;/b&gt;&lt;br&gt;hypothetical protein&lt;br&gt;Location: 4206598 - 4206527" locus_tag="EH206_RS19755" class="clusterblast-orf" id="dummy-1_h1_3_48"  />
</g>
<g id="a1_0049"  >
<polygon points="466,85 471,80 476,80 476,90 471,90 466,85 " style="fill:white; stroke-width:1; stroke:black; " description="&lt;b&gt;EH206_RS19750&lt;/b&gt;&lt;br&gt;crotonyl-CoA carboxylase/reductase&lt;br&gt;Location: 4206345 - 4205098" locus_tag="EH206_RS19750" class="clusterblast-orf" id="dummy-1_h1_3_49"  />
</g>
<g id="a1_0050"  >
<polygon points="478,85 481,80 481,90 478,85 " style="fill:white; stroke-width:1; stroke:black; " description="&lt;b&gt;EH206_RS19745&lt;/b&gt;&lt;br&gt;PaaI family thioesterase&lt;br&gt;Location: 4204947 - 4204516" locus_tag="EH206_RS19745" class="clusterblast-orf" id="dummy-1_h1_3_50"  />
</g>
<g id="a1_0051"  >
<polygon points="482,85 487,80 537,80 537,90 487,90 482,85 " style="fill:white; stroke-width:1; stroke:black; " description="&lt;b&gt;EH206_RS19740&lt;/b&gt;&lt;br&gt;type I polyketide synthase&lt;br&gt;Location: 4204438 - 4198067" locus_tag="EH206_RS19740" class="clusterblast-orf" id="dummy-1_h1_3_51"  />
</g>
<g id="a1_0052"  >
<polygon points="537,85 542,80 607,80 607,90 542,90 537,85 " style="fill:white; stroke-width:1; stroke:black; " description="&lt;b&gt;EH206_RS19735&lt;/b&gt;&lt;br&gt;type I polyketide synthase&lt;br&gt;Location: 4198070 - 4189935" locus_tag="EH206_RS19735" class="clusterblast-orf" id="dummy-1_h1_3_52"  />
</g>
<g id="a1_0053"  >
<polygon points="607,85 612,80 620,80 620,90 612,90 607,85 " style="fill:white; stroke-width:1; stroke:black; " description="&lt;b&gt;EH206_RS19730&lt;/b&gt;&lt;br&gt;AMP-binding protein&lt;br&gt;Location: 4189922 - 4188480" locus_tag="EH206_RS19730" class="clusterblast-orf" id="dummy-1_h1_3_53"  />
</g>
<g id="a1_0054"  >
<polygon points="620,85 624,80 624,90 620,85 " style="fill:white; stroke-width:1; stroke:black; " description="&lt;b&gt;EH206_RS19725&lt;/b&gt;&lt;br&gt;hypothetical protein&lt;br&gt;Location: 4188483 - 4187950" locus_tag="EH206_RS19725" class="clusterblast-orf" id="dummy-1_h1_3_54"  />
</g>
<g id="a1_0055"  >
<polygon points="624,85 629,80 634,80 634,90 629,90 624,85 " style="fill:white; stroke-width:1; stroke:black; " description="&lt;b&gt;EH206_RS19720&lt;/b&gt;&lt;br&gt;beta-ketoacyl-[acyl-carrier-protein] synthase family protein&lt;br&gt;Location: 4187953 - 4186808" locus_tag="EH206_RS19720" class="clusterblast-orf" id="dummy-1_h1_3_55"  />
</g>
<g id="a1_0056"  >
<polygon points="634,85 638,80 638,90 634,85 " style="fill:white; stroke-width:1; stroke:black; " description="&lt;b&gt;EH206_RS19715&lt;/b&gt;&lt;br&gt;coronafacic acid dehydratase&lt;br&gt;Location: 4186814 - 4186317" locus_tag="EH206_RS19715" class="clusterblast-orf" id="dummy-1_h1_3_56"  />
</g>
<g id="a1_0057"  >
<polygon points="638,85 641,80 641,90 638,85 " style="fill:white; stroke-width:1; stroke:black; " description="&lt;b&gt;EH206_RS19710&lt;/b&gt;&lt;br&gt;coronafacic acid synthetase&lt;br&gt;Location: 4186320 - 4186045" locus_tag="EH206_RS19710" class="clusterblast-orf" id="dummy-1_h1_3_57"  />
</g>
<g id="a1_0058"  >
<polygon points="641,85 646,80 655,80 655,90 646,90 641,85 " style="fill:white; stroke-width:1; stroke:black; " description="&lt;b&gt;EH206_RS19705&lt;/b&gt;&lt;br&gt;acyl--CoA ligase&lt;br&gt;Location: 4185990 - 4184407" locus_tag="EH206_RS19705" class="clusterblast-orf" id="dummy-1_h1_3_58"  />
</g>
<g id="a1_0059"  >
<polygon points="660,90 664,90 669,85 664,80 660,80 660,90 " style="fill:white; stroke-width:1; stroke:black; " description="&lt;b&gt;EH206_RS19700&lt;/b&gt;&lt;br&gt;LysR family transcriptional regulator&lt;br&gt;Location: 4183780 - 4182803" locus_tag="EH206_RS19700" class="clusterblast-orf" id="dummy-1_h1_3_59"  />
</g>
<g id="a1_0060"  >
<polygon points="671,90 677,90 682,85 677,80 671,80 671,90 " style="fill:white; stroke-width:1; stroke:black; " description="&lt;b&gt;EH206_RS19695&lt;/b&gt;&lt;br&gt;IS3 family transposase&lt;br&gt;Location: 4182508 - 4181305" locus_tag="EH206_RS19695" class="clusterblast-orf" id="dummy-1_h1_3_60"  />
</g>
<g id="a1_0061"  >
<polygon points="684,85 687,80 687,90 684,85 " style="fill:white; stroke-width:1; stroke:black; " description="&lt;b&gt;EH206_RS19685&lt;/b&gt;&lt;br&gt;helix-turn-helix transcriptional regulator&lt;br&gt;Location: 4180987 - 4180727" locus_tag="EH206_RS19685" class="clusterblast-orf" id="dummy-1_h1_3_61"  />
</g>
<g id="a1_0062"  >
<polygon points="688,90 690,85 688,80 688,90 " style="fill:white; stroke-width:1; stroke:black; " description="&lt;b&gt;EH206_RS19680&lt;/b&gt;&lt;br&gt;transcriptional regulator&lt;br&gt;Location: 4180609 - 4180387" locus_tag="EH206_RS19680" class="clusterblast-orf" id="dummy-1_h1_3_62"  />
</g>
<g id="a1_0063"  >
<polygon points="697,90 699,85 697,80 697,90 " style="fill:white; stroke-width:1; stroke:black; " description="&lt;b&gt;EH206_RS19665&lt;/b&gt;&lt;br&gt;hypothetical protein&lt;br&gt;Location: 4179516 - 4179328" locus_tag="EH206_RS19665" class="clusterblast-orf" id="dummy-1_h1_3_63"  />
</g>
<g id="a1_0064"  >
<polygon points="699,85 704,80 710,80 710,90 704,90 699,85 " style="fill:white; stroke-width:1; stroke:black; " description="&lt;b&gt;EH206_RS19660&lt;/b&gt;&lt;br&gt;tyrosine-type recombinase/integrase&lt;br&gt;Location: 4179248 - 4177991" locus_tag="EH206_RS19660" class="clusterblast-orf" id="dummy-1_h1_3_64"  />
</g>
<g id="a1_0065"  >
<polygon points="714,90 716,85 714,80 714,90 " style="fill:white; stroke-width:1; stroke:black; " description="&lt;b&gt;EH206_RS19655&lt;/b&gt;&lt;br&gt;DUF1778 domain-containing protein&lt;br&gt;Location: 4177569 - 4177345" locus_tag="EH206_RS19655" class="clusterblast-orf" id="dummy-1_h1_3_65"  />
</g>
<g id="a1_0066"  >
<polygon points="717,90 722,90 727,85 722,80 717,80 717,90 " style="fill:white; stroke-width:1; stroke:black; " description="&lt;b&gt;EH206_RS19650&lt;/b&gt;&lt;br&gt;site-specific integrase&lt;br&gt;Location: 4177227 - 4176100" locus_tag="EH206_RS19650" class="clusterblast-orf" id="dummy-1_h1_3_66"  />
</g>
<g id="a1_0067"  >
<polygon points="731,90 743,90 748,85 743,80 731,80 731,90 " style="fill:white; stroke-width:1; stroke:black; " description="&lt;b&gt;EH206_RS19645&lt;/b&gt;&lt;br&gt;site-specific DNA-methyltransferase&lt;br&gt;Location: 4175582 - 4173607" locus_tag="EH206_RS19645" class="clusterblast-orf" id="dummy-1_h1_3_67"  />
</g>
<g id="a1_0068"  >
<polygon points="748,90 769,90 774,85 769,80 748,80 748,90 " style="fill:white; stroke-width:1; stroke:black; " description="&lt;b&gt;EH206_RS19640&lt;/b&gt;&lt;br&gt;DEAD/DEAH box helicase family protein&lt;br&gt;Location: 4173607 - 4170623" locus_tag="EH206_RS19640" class="clusterblast-orf" id="dummy-1_h1_3_68"  />
</g>
<g id="a1_0069"  >
<polygon points="775,85 776,80 776,90 775,85 " style="fill:white; stroke-width:1; stroke:black; " description="&lt;b&gt;EH206_RS19635&lt;/b&gt;&lt;br&gt;hypothetical protein&lt;br&gt;Location: 4170520 - 4170404" locus_tag="EH206_RS19635" class="clusterblast-orf" id="dummy-1_h1_3_69"  />
</g>
<g id="a1_0070"  >
<polygon points="777,90 779,85 777,80 777,90 " style="fill:white; stroke-width:1; stroke:black; " description="&lt;b&gt;EH206_RS23130&lt;/b&gt;&lt;br&gt;hypothetical protein&lt;br&gt;Location: 4170227 - 4169964" locus_tag="EH206_RS23130" class="clusterblast-orf" id="dummy-1_h1_3_70"  />
</g>
</svg>
