<svg xmlns="http://www.w3.org/2000/svg" xmlns:xlink="http://www.w3.org/1999/xlink" version="1.1" x="0" y="0" height="230" width="800" viewBox="0 0 800 230" preserveAspectRatio="none"  >
<g label="Query sequence" class="clusterblast-cluster"  >
<text x="5" y="20" class="clusterblast-acc"  >
Query sequence</text>
<line x1="10" y1="35" x2="778.0" y2="35" style="stroke-width:1; stroke:grey; "  />
<polygon points="173,40 303,40 308,35 303,30 173,30 173,40 " style="fill:#d81515; stroke-width:1; stroke:black; " description="&lt;b&gt;MCIC6FC_010447&lt;/b&gt;&lt;br&gt;hypothetical protein&lt;br&gt;Location: 151343 - 154644" locus_tag="MCIC6FC_010447" class="clusterblast-orf" id="dummy-1_q0_0_all"  />
<polygon points="342,40 368,40 373,35 368,30 342,30 342,40 " style="fill:#77d815; stroke-width:1; stroke:black; " description="&lt;b&gt;MCIC6FC_010448&lt;/b&gt;&lt;br&gt;hypothetical protein&lt;br&gt;Location: 155471 - 156215" locus_tag="MCIC6FC_010448" class="clusterblast-orf" id="dummy-1_q1_0_all"  />
<polygon points="374,40 437,40 442,35 437,30 374,30 374,40 " style="fill:#15d8d8; stroke-width:1; stroke:black; " description="&lt;b&gt;MCIC6FC_010449&lt;/b&gt;&lt;br&gt;hypothetical protein&lt;br&gt;Location: 156240 - 157904" locus_tag="MCIC6FC_010449" class="clusterblast-orf" id="dummy-1_q2_0_all"  />
<polygon points="448,40 601,40 606,35 601,30 448,30 448,40 " style="fill:#7715d8; stroke-width:1; stroke:black; " description="&lt;b&gt;MCIC6FC_010450&lt;/b&gt;&lt;br&gt;hypothetical protein&lt;br&gt;Location: 158056 - 161937" locus_tag="MCIC6FC_010450" class="clusterblast-orf" id="dummy-1_q3_0_all"  />
</g>
<g label="NZ_CP013103" description="NZ_CP013103 (986749-1007337): Paraburkholderia caribensis strain MWAP64 chrom... (10% of genes show similarity), hserlactone" class="clusterblast-cluster"  >
<text x="5" y="70" class="clusterblast-acc"  >
<a xlink:href="https://antismash-db.secondarymetabolites.org/area.html?record=NZ_CP013103&amp;start=986749&amp;end=1007337" target="_blank">NZ_CP013103 (986749-1007337)</a>: Paraburkholderia caribensis strain MWAP64 chrom... (10% of genes show similarity), hserlactone</text>
<line x1="10" y1="85" x2="778.0" y2="85" style="stroke-width:1; stroke:grey; "  />
</g>
<g id="a1_000"  >
<polygon points="0,90 8,90 13,85 8,80 0,80 0,90 " style="fill:white; stroke-width:1; stroke:black; " description="&lt;b&gt;AN416_RS41335&lt;/b&gt;&lt;br&gt;hypothetical protein&lt;br&gt;Location: 1006530 - 1006195" locus_tag="AN416_RS41335" class="clusterblast-orf" id="dummy-1_h1_8_0"  />
</g>
<g id="a1_001"  >
<polygon points="12,85 17,80 29,80 29,90 17,90 12,85 " style="fill:white; stroke-width:1; stroke:black; " description="&lt;b&gt;AN416_RS20645&lt;/b&gt;&lt;br&gt;Cd(II)/Pb(II)-responsive transcriptional regulator&lt;br&gt;Location: 1006226 - 1005798" locus_tag="AN416_RS20645" class="clusterblast-orf" id="dummy-1_h1_8_1"  />
</g>
<g id="a1_002"  >
<polygon points="33,90 121,90 126,85 121,80 33,80 33,90 " style="fill:#d81515; stroke-width:1; stroke:black; " description="&lt;b&gt;AN416_RS20640&lt;/b&gt;&lt;br&gt;heavy metal translocating P-type ATPase&lt;br&gt;Location: 1005719 - 1003422&lt;br&gt;&lt;br&gt;&lt;b&gt;BlastP hit with MCIC6FC_010447&lt;/b&gt;&lt;br&gt;Percentage identity: 65&lt;br&gt;Percentage coverage: 66&lt;br&gt;BLAST bit score: 860&lt;br&gt;E-value: 2.2e-247" locus_tag="AN416_RS20640" class="clusterblast-orf" id="dummy-1_h1_8_2"  />
</g>
<g id="a1_003"  >
<polygon points="128,90 137,90 142,85 137,80 128,80 128,90 " style="fill:white; stroke-width:1; stroke:black; " description="&lt;b&gt;AN416_RS39910&lt;/b&gt;&lt;br&gt;adenylate cyclase&lt;br&gt;Location: 1003379 - 1003053" locus_tag="AN416_RS39910" class="clusterblast-orf" id="dummy-1_h1_8_3"  />
</g>
<g id="a1_004"  >
<polygon points="147,85 152,80 200,80 200,90 152,90 147,85 " style="fill:white; stroke-width:1; stroke:black; " description="&lt;b&gt;AN416_RS20635&lt;/b&gt;&lt;br&gt;ergothioneine biosynthesis protein EgtB&lt;br&gt;Location: 1002913 - 1001612" locus_tag="AN416_RS20635" class="clusterblast-orf" id="dummy-1_h1_8_4"  />
</g>
<g id="a1_005"  >
<polygon points="208,85 213,80 240,80 240,90 213,90 208,85 " style="fill:white; stroke-width:1; stroke:black; " description="&lt;b&gt;AN416_RS20630&lt;/b&gt;&lt;br&gt;fumarate/nitrate reduction transcriptional regulator Fnr&lt;br&gt;Location: 1001434 - 1000643" locus_tag="AN416_RS20630" class="clusterblast-orf" id="dummy-1_h1_8_5"  />
</g>
<g id="a1_006"  >
<polygon points="246,85 251,80 265,80 265,90 251,90 246,85 " style="fill:white; stroke-width:1; stroke:black; " description="&lt;b&gt;AN416_RS20625&lt;/b&gt;&lt;br&gt;universal stress protein&lt;br&gt;Location: 1000499 - 1000020" locus_tag="AN416_RS20625" class="clusterblast-orf" id="dummy-1_h1_8_6"  />
</g>
<g id="a1_007"  >
<polygon points="278,90 301,90 306,85 301,80 278,80 278,90 " style="fill:white; stroke-width:1; stroke:black; " description="&lt;b&gt;AN416_RS20620&lt;/b&gt;&lt;br&gt;FadR family transcriptional regulator&lt;br&gt;Location: 999708 - 999019" locus_tag="AN416_RS20620" class="clusterblast-orf" id="dummy-1_h1_8_7"  />
</g>
<g id="a1_008"  >
<polygon points="312,90 369,90 374,85 369,80 312,80 312,90 " style="fill:white; stroke-width:1; stroke:black; " description="&lt;b&gt;AN416_RS20615&lt;/b&gt;&lt;br&gt;MFS transporter&lt;br&gt;Location: 998871 - 997363" locus_tag="AN416_RS20615" class="clusterblast-orf" id="dummy-1_h1_8_8"  />
</g>
<g id="a1_009"  >
<polygon points="375,85 380,80 399,80 399,90 380,90 375,85 " style="fill:white; stroke-width:1; stroke:black; " description="&lt;b&gt;AN416_RS20610&lt;/b&gt;&lt;br&gt;GNAT family N-acetyltransferase&lt;br&gt;Location: 997337 - 996750" locus_tag="AN416_RS20610" class="clusterblast-orf" id="dummy-1_h1_8_9"  />
</g>
<g id="a1_0010"  >
<polygon points="405,90 414,90 419,85 414,80 405,80 405,90 " style="fill:white; stroke-width:1; stroke:black; " description="&lt;b&gt;AN416_RS20605&lt;/b&gt;&lt;br&gt;helix-turn-helix transcriptional regulator&lt;br&gt;Location: 996607 - 996275" locus_tag="AN416_RS20605" class="clusterblast-orf" id="dummy-1_h1_8_10"  />
</g>
<g id="a1_0011"  >
<polygon points="418,85 423,80 447,80 447,90 423,90 418,85 " style="fill:white; stroke-width:1; stroke:black; " description="&lt;b&gt;AN416_RS20600&lt;/b&gt;&lt;br&gt;LuxR family transcriptional regulator&lt;br&gt;Location: 996291 - 995587" locus_tag="AN416_RS20600" class="clusterblast-orf" id="dummy-1_h1_8_11"  />
</g>
<g id="a1_0012"  >
<polygon points="476,90 481,90 486,85 481,80 476,80 476,90 " style="fill:white; stroke-width:1; stroke:black; " description="&lt;b&gt;AN416_RS20595&lt;/b&gt;&lt;br&gt;hypothetical protein&lt;br&gt;Location: 994856 - 994632" locus_tag="AN416_RS20595" class="clusterblast-orf" id="dummy-1_h1_8_12"  />
</g>
<g id="a1_0013"  >
<polygon points="489,90 548,90 553,85 548,80 489,80 489,90 " style="fill:white; stroke-width:1; stroke:black; " description="&lt;b&gt;AN416_RS20590&lt;/b&gt;&lt;br&gt;aldehyde dehydrogenase (NADP(+))&lt;br&gt;Location: 994556 - 992976" locus_tag="AN416_RS20590" class="clusterblast-orf" id="dummy-1_h1_8_13"  />
</g>
<g id="a1_0014"  >
<polygon points="558,90 592,90 597,85 592,80 558,80 558,90 " style="fill:white; stroke-width:1; stroke:black; " description="&lt;b&gt;AN416_RS20585&lt;/b&gt;&lt;br&gt;SMP-30/gluconolactonase/LRE family protein&lt;br&gt;Location: 992865 - 991915" locus_tag="AN416_RS20585" class="clusterblast-orf" id="dummy-1_h1_8_14"  />
</g>
<g id="a1_0015"  >
<polygon points="607,90 651,90 656,85 651,80 607,80 607,90 " style="fill:white; stroke-width:1; stroke:black; " description="&lt;b&gt;AN416_RS20580&lt;/b&gt;&lt;br&gt;extracellular solute-binding protein&lt;br&gt;Location: 991664 - 990474" locus_tag="AN416_RS20580" class="clusterblast-orf" id="dummy-1_h1_8_15"  />
</g>
<g id="a1_0016"  >
<polygon points="662,90 701,90 706,85 701,80 662,80 662,90 " style="fill:#7715d8; stroke-width:1; stroke:black; " description="&lt;b&gt;AN416_RS20575&lt;/b&gt;&lt;br&gt;ABC transporter ATP-binding protein&lt;br&gt;Location: 990308 - 989229&lt;br&gt;&lt;br&gt;&lt;b&gt;BlastP hit with MCIC6FC_010450&lt;/b&gt;&lt;br&gt;Percentage identity: 45&lt;br&gt;Percentage coverage: 19&lt;br&gt;BLAST bit score: 198&lt;br&gt;E-value: 3.1e-48" locus_tag="AN416_RS20575" class="clusterblast-orf" id="dummy-1_h1_8_16"  />
</g>
<g id="a1_0017"  >
<polygon points="706,90 738,90 743,85 738,80 706,80 706,90 " style="fill:white; stroke-width:1; stroke:black; " description="&lt;b&gt;AN416_RS20570&lt;/b&gt;&lt;br&gt;sugar ABC transporter permease&lt;br&gt;Location: 989232 - 988345" locus_tag="AN416_RS20570" class="clusterblast-orf" id="dummy-1_h1_8_17"  />
</g>
<g id="a1_0018"  >
<polygon points="743,90 775,90 780,85 775,80 743,80 743,90 " style="fill:white; stroke-width:1; stroke:black; " description="&lt;b&gt;AN416_RS20565&lt;/b&gt;&lt;br&gt;ABC transporter permease&lt;br&gt;Location: 988345 - 987440" locus_tag="AN416_RS20565" class="clusterblast-orf" id="dummy-1_h1_8_18"  />
</g>
</svg>
