<svg xmlns="http://www.w3.org/2000/svg" xmlns:xlink="http://www.w3.org/1999/xlink" version="1.1" x="0" y="0" height="230" width="800" viewBox="0 0 800 230" preserveAspectRatio="none"  >
<g label="Query sequence" class="clusterblast-cluster"  >
<text x="5" y="20" class="clusterblast-acc"  >
Query sequence</text>
<line x1="10" y1="35" x2="778.0" y2="35" style="stroke-width:1; stroke:grey; "  />
<polygon points="115,35 120,30 144,30 144,40 120,40 115,35 " style="fill:#d81515; stroke-width:1; stroke:black; " description="&lt;b&gt;MCIC6FC_014177&lt;/b&gt;&lt;br&gt;hypothetical protein&lt;br&gt;Location: 51 - 931" locus_tag="MCIC6FC_014177" class="clusterblast-orf" id="dummy-1_q0_0_all"  />
<polygon points="152,40 482,40 487,35 482,30 152,30 152,40 " style="fill:#77d815; stroke-width:1; stroke:black; " description="&lt;b&gt;MCIC6FC_014178&lt;/b&gt;&lt;br&gt;hypothetical protein&lt;br&gt;Location: 1164 - 11121" locus_tag="MCIC6FC_014178" class="clusterblast-orf" id="dummy-1_q1_0_all"  />
<polygon points="527,40 563,40 568,35 563,30 527,30 527,40 " style="fill:#15d8d8; stroke-width:1; stroke:black; " description="&lt;b&gt;MCIC6FC_014179&lt;/b&gt;&lt;br&gt;hypothetical protein&lt;br&gt;Location: 12305 - 13530" locus_tag="MCIC6FC_014179" class="clusterblast-orf" id="dummy-1_q2_0_all"  />
<polygon points="568,35 573,30 665,30 665,40 573,40 568,35 " style="fill:#7715d8; stroke-width:1; stroke:black; " description="&lt;b&gt;MCIC6FC_014180&lt;/b&gt;&lt;br&gt;hypothetical protein&lt;br&gt;Location: 13539 - 16408" locus_tag="MCIC6FC_014180" class="clusterblast-orf" id="dummy-1_q3_0_all"  />
</g>
<g label="NZ_CP048034" description="NZ_CP048034 (407270-430832): Pantoea agglomerans strain UAEU18 plasmid unnamed1 (45% of genes show similarity), terpene" class="clusterblast-cluster"  >
<text x="5" y="70" class="clusterblast-acc"  >
<a xlink:href="https://antismash-db.secondarymetabolites.org/area.html?record=NZ_CP048034&amp;start=407270&amp;end=430832" target="_blank">NZ_CP048034 (407270-430832)</a>: Pantoea agglomerans strain UAEU18 plasmid unnamed1 (45% of genes show similarity), terpene</text>
<line x1="10" y1="85" x2="778.0" y2="85" style="stroke-width:1; stroke:grey; "  />
</g>
<g id="a1_000"  >
<polygon points="0,90 26,90 31,85 26,80 0,80 0,90 " style="fill:white; stroke-width:1; stroke:black; " description="&lt;b&gt;GW574_RS20585&lt;/b&gt;&lt;br&gt;glutaminase B&lt;br&gt;Location: 407519 - 408445" locus_tag="GW574_RS20585" class="clusterblast-orf" id="dummy-1_h1_8_0"  />
</g>
<g id="a1_001"  >
<polygon points="35,85 40,80 66,80 66,90 40,90 35,85 " style="fill:white; stroke-width:1; stroke:black; " description="&lt;b&gt;GW574_RS20590&lt;/b&gt;&lt;br&gt;Rpn family recombination-promoting nuclease/putative transposase&lt;br&gt;Location: 408584 - 409501" locus_tag="GW574_RS20590" class="clusterblast-orf" id="dummy-1_h1_8_1"  />
</g>
<g id="a1_002"  >
<polygon points="73,85 78,80 105,80 105,90 78,90 73,85 " style="fill:#d81515; stroke-width:1; stroke:black; " description="&lt;b&gt;GW574_RS20595&lt;/b&gt;&lt;br&gt;D-2-hydroxyacid dehydrogenase&lt;br&gt;Location: 409716 - 410654&lt;br&gt;&lt;br&gt;&lt;b&gt;BlastP hit with MCIC6FC_014177&lt;/b&gt;&lt;br&gt;Percentage identity: 90&lt;br&gt;Percentage coverage: 99&lt;br&gt;BLAST bit score: 474&lt;br&gt;E-value: 6.7e-132" locus_tag="GW574_RS20595" class="clusterblast-orf" id="dummy-1_h1_8_2"  />
</g>
<g id="a1_003"  >
<polygon points="112,90 122,90 127,85 122,80 112,80 112,90 " style="fill:white; stroke-width:1; stroke:black; " description="&lt;b&gt;GW574_RS20600&lt;/b&gt;&lt;br&gt;DUF2946 domain-containing protein&lt;br&gt;Location: 410875 - 411294" locus_tag="GW574_RS20600" class="clusterblast-orf" id="dummy-1_h1_8_3"  />
</g>
<g id="a1_004"  >
<polygon points="128,90 181,90 186,85 181,80 128,80 128,90 " style="fill:#77d815; stroke-width:1; stroke:black; " description="&lt;b&gt;GW574_RS20605&lt;/b&gt;&lt;br&gt;DUF2534 family protein&lt;br&gt;Location: 411340 - 413070&lt;br&gt;&lt;br&gt;&lt;b&gt;BlastP hit with MCIC6FC_014178&lt;/b&gt;&lt;br&gt;Percentage identity: 93&lt;br&gt;Percentage coverage: 20&lt;br&gt;BLAST bit score: 953&lt;br&gt;E-value: 3.6e-275" locus_tag="GW574_RS20605" class="clusterblast-orf" id="dummy-1_h1_8_4"  />
</g>
<g id="a1_005"  >
<polygon points="191,90 208,90 213,85 208,80 191,80 191,90 " style="fill:white; stroke-width:1; stroke:black; " description="&lt;b&gt;GW574_RS20610&lt;/b&gt;&lt;br&gt;hypothetical protein&lt;br&gt;Location: 413197 - 413874" locus_tag="GW574_RS20610" class="clusterblast-orf" id="dummy-1_h1_8_5"  />
</g>
<g id="a1_006"  >
<polygon points="215,85 220,80 222,80 222,90 220,90 215,85 " style="fill:white; stroke-width:1; stroke:black; " description="&lt;b&gt;GW574_RS20615&lt;/b&gt;&lt;br&gt;hypothetical protein&lt;br&gt;Location: 413920 - 414147" locus_tag="GW574_RS20615" class="clusterblast-orf" id="dummy-1_h1_8_6"  />
</g>
<g id="a1_007"  >
<polygon points="228,90 241,90 246,85 241,80 228,80 228,90 " style="fill:white; stroke-width:1; stroke:black; " description="&lt;b&gt;GW574_RS20620&lt;/b&gt;&lt;br&gt;YtfJ family protein&lt;br&gt;Location: 414320 - 414850" locus_tag="GW574_RS20620" class="clusterblast-orf" id="dummy-1_h1_8_7"  />
</g>
<g id="a1_008"  >
<polygon points="254,90 279,90 284,85 279,80 254,80 254,90 " style="fill:#77d815; stroke-width:1; stroke:black; " description="&lt;b&gt;GW574_RS20625&lt;/b&gt;&lt;br&gt;polyprenyl synthetase family protein&lt;br&gt;Location: 415071 - 415979&lt;br&gt;&lt;br&gt;&lt;b&gt;BlastP hit with MCIC6FC_014178&lt;/b&gt;&lt;br&gt;Percentage identity: 98&lt;br&gt;Percentage coverage: 10&lt;br&gt;BLAST bit score: 525&lt;br&gt;E-value: 4.2e-146" locus_tag="GW574_RS20625" class="clusterblast-orf" id="dummy-1_h1_8_8"  />
</g>
<g id="a1_009"  >
<polygon points="284,90 323,90 328,85 323,80 284,80 284,90 " style="fill:#77d815; stroke-width:1; stroke:black; " description="&lt;b&gt;GW574_RS20630&lt;/b&gt;&lt;br&gt;glycosyltransferase family 1 protein&lt;br&gt;Location: 415989 - 417284&lt;br&gt;&lt;br&gt;&lt;b&gt;BlastP hit with MCIC6FC_014178&lt;/b&gt;&lt;br&gt;Percentage identity: 80&lt;br&gt;Percentage coverage: 15&lt;br&gt;BLAST bit score: 594&lt;br&gt;E-value: 4.3e-167" locus_tag="GW574_RS20630" class="clusterblast-orf" id="dummy-1_h1_8_9"  />
</g>
<g id="a1_0010"  >
<polygon points="328,90 362,90 367,85 362,80 328,80 328,90 " style="fill:#77d815; stroke-width:1; stroke:black; " description="&lt;b&gt;GW574_RS20635&lt;/b&gt;&lt;br&gt;lycopene beta-cyclase CrtY&lt;br&gt;Location: 417271 - 418431&lt;br&gt;&lt;br&gt;&lt;b&gt;BlastP hit with MCIC6FC_014178&lt;/b&gt;&lt;br&gt;Percentage identity: 99&lt;br&gt;Percentage coverage: 14&lt;br&gt;BLAST bit score: 761&lt;br&gt;E-value: 3.5e-217" locus_tag="GW574_RS20635" class="clusterblast-orf" id="dummy-1_h1_8_10"  />
</g>
<g id="a1_0011"  >
<polygon points="367,90 411,90 416,85 411,80 367,80 367,90 " style="fill:#77d815; stroke-width:1; stroke:black; " description="&lt;b&gt;GW574_RS20640&lt;/b&gt;&lt;br&gt;phytoene desaturase&lt;br&gt;Location: 418428 - 419906&lt;br&gt;&lt;br&gt;&lt;b&gt;BlastP hit with MCIC6FC_014178&lt;/b&gt;&lt;br&gt;Percentage identity: 94&lt;br&gt;Percentage coverage: 16&lt;br&gt;BLAST bit score: 831&lt;br&gt;E-value: 3.6e-238" locus_tag="GW574_RS20640" class="clusterblast-orf" id="dummy-1_h1_8_11"  />
</g>
<g id="a1_0012"  >
<polygon points="416,90 442,90 447,85 442,80 416,80 416,90 " style="fill:#77d815; stroke-width:1; stroke:black; " description="&lt;b&gt;GW574_RS20645&lt;/b&gt;&lt;br&gt;phytoene/squalene synthase family protein&lt;br&gt;Location: 419903 - 420832&lt;br&gt;&lt;br&gt;&lt;b&gt;BlastP hit with MCIC6FC_014178&lt;/b&gt;&lt;br&gt;Percentage identity: 98&lt;br&gt;Percentage coverage: 11&lt;br&gt;BLAST bit score: 569&lt;br&gt;E-value: 1.5e-159" locus_tag="GW574_RS20645" class="clusterblast-orf" id="dummy-1_h1_8_12"  />
</g>
<g id="a1_0013"  >
<polygon points="445,85 450,80 463,80 463,90 450,90 445,85 " style="fill:white; stroke-width:1; stroke:black; " description="&lt;b&gt;GW574_RS20650&lt;/b&gt;&lt;br&gt;beta-carotene hydroxylase&lt;br&gt;Location: 420771 - 421298" locus_tag="GW574_RS20650" class="clusterblast-orf" id="dummy-1_h1_8_13"  />
</g>
<g id="a1_0014"  >
<polygon points="470,85 475,80 507,80 507,90 475,90 470,85 " style="fill:white; stroke-width:1; stroke:black; " description="&lt;b&gt;GW574_RS20655&lt;/b&gt;&lt;br&gt;fimbrial protein&lt;br&gt;Location: 421507 - 422616" locus_tag="GW574_RS20655" class="clusterblast-orf" id="dummy-1_h1_8_14"  />
</g>
<g id="a1_0015"  >
<polygon points="508,85 513,80 590,80 590,90 513,90 508,85 " style="fill:white; stroke-width:1; stroke:black; " description="&lt;b&gt;GW574_RS20660&lt;/b&gt;&lt;br&gt;fimbrial biogenesis outer membrane usher protein&lt;br&gt;Location: 422633 - 425074" locus_tag="GW574_RS20660" class="clusterblast-orf" id="dummy-1_h1_8_15"  />
</g>
<g id="a1_0016"  >
<polygon points="594,85 599,80 615,80 615,90 599,90 594,85 " style="fill:white; stroke-width:1; stroke:black; " description="&lt;b&gt;GW574_RS20665&lt;/b&gt;&lt;br&gt;molecular chaperone&lt;br&gt;Location: 425201 - 425827" locus_tag="GW574_RS20665" class="clusterblast-orf" id="dummy-1_h1_8_16"  />
</g>
<g id="a1_0017"  >
<polygon points="619,85 624,80 639,80 639,90 624,90 619,85 " style="fill:white; stroke-width:1; stroke:black; " description="&lt;b&gt;GW574_RS20670&lt;/b&gt;&lt;br&gt;type 1 fimbrial protein&lt;br&gt;Location: 425925 - 426515" locus_tag="GW574_RS20670" class="clusterblast-orf" id="dummy-1_h1_8_17"  />
</g>
<g id="a1_0018"  >
<polygon points="654,85 659,80 663,80 663,90 659,90 654,85 " style="fill:white; stroke-width:1; stroke:black; " description="&lt;b&gt;GW574_RS20675&lt;/b&gt;&lt;br&gt;hypothetical protein&lt;br&gt;Location: 426962 - 427231" locus_tag="GW574_RS20675" class="clusterblast-orf" id="dummy-1_h1_8_18"  />
</g>
<g id="a1_0019"  >
<polygon points="673,90 687,90 692,85 687,80 673,80 673,90 " style="fill:#15d8d8; stroke-width:1; stroke:black; " description="&lt;b&gt;GW574_RS20680&lt;/b&gt;&lt;br&gt;thioredoxin domain-containing protein&lt;br&gt;Location: 427549 - 428091&lt;br&gt;&lt;br&gt;&lt;b&gt;BlastP hit with MCIC6FC_014179&lt;/b&gt;&lt;br&gt;Percentage identity: 88&lt;br&gt;Percentage coverage: 55&lt;br&gt;BLAST bit score: 293&lt;br&gt;E-value: 2.8e-77" locus_tag="GW574_RS20680" class="clusterblast-orf" id="dummy-1_h1_8_19"  />
</g>
<g id="a1_0020"  >
<polygon points="700,90 709,90 714,85 709,80 700,80 700,90 " style="fill:#15d8d8; stroke-width:1; stroke:black; " description="&lt;b&gt;GW574_RS20685&lt;/b&gt;&lt;br&gt;ASCH domain-containing protein&lt;br&gt;Location: 428344 - 428757&lt;br&gt;&lt;br&gt;&lt;b&gt;BlastP hit with MCIC6FC_014179&lt;/b&gt;&lt;br&gt;Percentage identity: 100&lt;br&gt;Percentage coverage: 47&lt;br&gt;BLAST bit score: 281&lt;br&gt;E-value: 1.1e-73" locus_tag="GW574_RS20685" class="clusterblast-orf" id="dummy-1_h1_8_20"  />
</g>
<g id="a1_0021"  >
<polygon points="714,85 719,80 747,80 747,90 719,90 714,85 " style="fill:#7715d8; stroke-width:1; stroke:black; " description="&lt;b&gt;GW574_RS20690&lt;/b&gt;&lt;br&gt;HesA/MoeB/ThiF family protein&lt;br&gt;Location: 428767 - 429735&lt;br&gt;&lt;br&gt;&lt;b&gt;BlastP hit with MCIC6FC_014180&lt;/b&gt;&lt;br&gt;Percentage identity: 78&lt;br&gt;Percentage coverage: 43&lt;br&gt;BLAST bit score: 458&lt;br&gt;E-value: 1.3e-126" locus_tag="GW574_RS20690" class="clusterblast-orf" id="dummy-1_h1_8_21"  />
</g>
<g id="a1_0022"  >
<polygon points="747,85 752,80 773,80 773,90 752,90 747,85 " style="fill:#7715d8; stroke-width:1; stroke:black; " description="&lt;b&gt;GW574_RS20695&lt;/b&gt;&lt;br&gt;thiazole synthase&lt;br&gt;Location: 429745 - 430503&lt;br&gt;&lt;br&gt;&lt;b&gt;BlastP hit with MCIC6FC_014180&lt;/b&gt;&lt;br&gt;Percentage identity: 75&lt;br&gt;Percentage coverage: 27&lt;br&gt;BLAST bit score: 265&lt;br&gt;E-value: 1.6e-68" locus_tag="GW574_RS20695" class="clusterblast-orf" id="dummy-1_h1_8_22"  />
</g>
<g id="a1_0023"  >
<polygon points="773,85 778,80 780,80 780,90 778,90 773,85 " style="fill:white; stroke-width:1; stroke:black; " description="&lt;b&gt;GW574_RS20700&lt;/b&gt;&lt;br&gt;sulfur carrier protein ThiS&lt;br&gt;Location: 430506 - 430703" locus_tag="GW574_RS20700" class="clusterblast-orf" id="dummy-1_h1_8_23"  />
</g>
</svg>
