<svg xmlns="http://www.w3.org/2000/svg" xmlns:xlink="http://www.w3.org/1999/xlink" version="1.1" x="0" y="0" height="230" width="800" viewBox="0 0 800 230" preserveAspectRatio="none"  >
<g label="Query sequence" class="clusterblast-cluster"  >
<text x="5" y="20" class="clusterblast-acc"  >
Query sequence</text>
<line x1="10" y1="35" x2="778.0" y2="35" style="stroke-width:1; stroke:grey; "  />
<polygon points="0,35 5,30 50,30 50,40 5,40 0,35 " style="fill:#d81515; stroke-width:1; stroke:black; " description="&lt;b&gt;MCIC6FC_005518&lt;/b&gt;&lt;br&gt;hypothetical protein&lt;br&gt;Location: 1298529 - 1302286" locus_tag="MCIC6FC_005518" class="clusterblast-orf" id="dummy-1_q0_0_all"  />
<polygon points="51,35 56,30 82,30 82,40 56,40 51,35 " style="fill:#43d815; stroke-width:1; stroke:black; " description="&lt;b&gt;MCIC6FC_005519&lt;/b&gt;&lt;br&gt;hypothetical protein&lt;br&gt;Location: 1302344 - 1304702" locus_tag="MCIC6FC_005519" class="clusterblast-orf" id="dummy-1_q1_0_all"  />
<polygon points="83,35 88,30 104,30 104,40 88,40 83,35 " style="fill:#15b6d8; stroke-width:1; stroke:black; " description="&lt;b&gt;MCIC6FC_005520&lt;/b&gt;&lt;br&gt;hypothetical protein&lt;br&gt;Location: 1304784 - 1306371" locus_tag="MCIC6FC_005520" class="clusterblast-orf" id="dummy-1_q2_0_all"  />
<polygon points="106,40 113,40 118,35 113,30 106,30 106,40 " style="fill:#8815d8; stroke-width:1; stroke:black; " description="&lt;b&gt;MCIC6FC_005521&lt;/b&gt;&lt;br&gt;hypothetical protein&lt;br&gt;Location: 1306486 - 1307383" locus_tag="MCIC6FC_005521" class="clusterblast-orf" id="dummy-1_q3_0_all"  />
<polygon points="119,35 124,30 169,30 169,40 124,40 119,35 " style="fill:#43d815; stroke-width:1; stroke:black; " description="&lt;b&gt;MCIC6FC_005522&lt;/b&gt;&lt;br&gt;hypothetical protein&lt;br&gt;Location: 1307427 - 1311171" locus_tag="MCIC6FC_005522" class="clusterblast-orf" id="dummy-1_q4_0_all"  />
<polygon points="171,40 188,40 193,35 188,30 171,30 171,40 " style="fill:white; stroke-width:1; stroke:black; " description="&lt;b&gt;MCIC6FC_005523&lt;/b&gt;&lt;br&gt;hypothetical protein&lt;br&gt;Location: 1311357 - 1313024" locus_tag="MCIC6FC_005523" class="clusterblast-orf" id="dummy-1_q5_0_all"  />
<polygon points="193,35 198,30 204,30 204,40 198,40 193,35 " style="fill:#d85a15; stroke-width:1; stroke:black; " description="&lt;b&gt;MCIC6FC_005524&lt;/b&gt;&lt;br&gt;hypothetical protein&lt;br&gt;Location: 1313032 - 1313826" locus_tag="MCIC6FC_005524" class="clusterblast-orf" id="dummy-1_q6_0_all"  />
<polygon points="206,40 214,40 219,35 214,30 206,30 206,40 " style="fill:#15d82c; stroke-width:1; stroke:black; " description="&lt;b&gt;MCIC6FC_005525&lt;/b&gt;&lt;br&gt;hypothetical protein&lt;br&gt;Location: 1314007 - 1314949" locus_tag="MCIC6FC_005525" class="clusterblast-orf" id="dummy-1_q7_0_all"  />
<polygon points="220,35 225,30 252,30 252,40 225,40 220,35 " style="fill:#1571d8; stroke-width:1; stroke:black; " description="&lt;b&gt;MCIC6FC_005526&lt;/b&gt;&lt;br&gt;hypothetical protein&lt;br&gt;Location: 1315026 - 1317409" locus_tag="MCIC6FC_005526" class="clusterblast-orf" id="dummy-1_q8_0_all"  />
<polygon points="252,35 257,30 465,30 465,40 257,40 252,35 " style="fill:#cd15d8; stroke-width:1; stroke:black; " description="&lt;b&gt;MCIC6FC_005527&lt;/b&gt;&lt;br&gt;hypothetical protein&lt;br&gt;Location: 1317432 - 1333368" locus_tag="MCIC6FC_005527" class="clusterblast-orf" id="dummy-1_q9_0_all"  />
<polygon points="470,40 578,40 583,35 578,30 470,30 470,40 " style="fill:#d89f15; stroke-width:1; stroke:black; " description="&lt;b&gt;MCIC6FC_005528&lt;/b&gt;&lt;br&gt;hypothetical protein&lt;br&gt;Location: 1333744 - 1342183" locus_tag="MCIC6FC_005528" class="clusterblast-orf" id="dummy-1_q10_0_all"  />
<polygon points="584,35 589,30 611,30 611,40 589,40 584,35 " style="fill:#15d871; stroke-width:1; stroke:black; " description="&lt;b&gt;MCIC6FC_005529&lt;/b&gt;&lt;br&gt;hypothetical protein&lt;br&gt;Location: 1342244 - 1344267" locus_tag="MCIC6FC_005529" class="clusterblast-orf" id="dummy-1_q11_0_all"  />
<polygon points="611,35 616,30 663,30 663,40 616,40 611,35 " style="fill:#152cd8; stroke-width:1; stroke:black; " description="&lt;b&gt;MCIC6FC_005530&lt;/b&gt;&lt;br&gt;hypothetical protein&lt;br&gt;Location: 1344300 - 1348194" locus_tag="MCIC6FC_005530" class="clusterblast-orf" id="dummy-1_q12_0_all"  />
<polygon points="665,40 672,40 677,35 672,30 665,30 665,40 " style="fill:#d8159f; stroke-width:1; stroke:black; " description="&lt;b&gt;MCIC6FC_005531&lt;/b&gt;&lt;br&gt;hypothetical protein&lt;br&gt;Location: 1348300 - 1349215" locus_tag="MCIC6FC_005531" class="clusterblast-orf" id="dummy-1_q13_0_all"  />
<polygon points="684,40 713,40 718,35 713,30 684,30 684,40 " style="fill:#cdd815; stroke-width:1; stroke:black; " description="&lt;b&gt;MCIC6FC_005532&lt;/b&gt;&lt;br&gt;hypothetical protein&lt;br&gt;Location: 1349750 - 1352277" locus_tag="MCIC6FC_005532" class="clusterblast-orf" id="dummy-1_q14_0_all"  />
<polygon points="719,35 724,30 725,30 725,40 724,40 719,35 " style="fill:#15d8b6; stroke-width:1; stroke:black; " description="&lt;b&gt;MCIC6FC_005533&lt;/b&gt;&lt;br&gt;hypothetical protein&lt;br&gt;Location: 1352358 - 1352829" locus_tag="MCIC6FC_005533" class="clusterblast-orf" id="dummy-1_q15_0_all"  />
<polygon points="727,40 738,40 743,35 738,30 727,30 727,40 " style="fill:#4315d8; stroke-width:1; stroke:black; " description="&lt;b&gt;MCIC6FC_005534&lt;/b&gt;&lt;br&gt;hypothetical protein&lt;br&gt;Location: 1352953 - 1354174" locus_tag="MCIC6FC_005534" class="clusterblast-orf" id="dummy-1_q16_0_all"  />
<polygon points="745,40 757,40 762,35 757,30 745,30 745,40 " style="fill:#d8155a; stroke-width:1; stroke:black; " description="&lt;b&gt;MCIC6FC_005535&lt;/b&gt;&lt;br&gt;hypothetical protein&lt;br&gt;Location: 1354294 - 1355562" locus_tag="MCIC6FC_005535" class="clusterblast-orf" id="dummy-1_q17_0_all"  />
<polygon points="772,40 775,40 780,35 775,30 772,30 772,40 " style="fill:#88d815; stroke-width:1; stroke:black; " description="&lt;b&gt;MCIC6FC_005536&lt;/b&gt;&lt;br&gt;hypothetical protein&lt;br&gt;Location: 1356350 - 1356911" locus_tag="MCIC6FC_005536" class="clusterblast-orf" id="dummy-1_q18_0_all"  />
</g>
<g label="NZ_FOEY01000001" description="NZ_FOEY01000001 (922578-976627): Pseudomonas sp. NFPP19, whole genome shotgun... (82% of genes show similarity), NRPS" class="clusterblast-cluster"  >
<text x="5" y="70" class="clusterblast-acc"  >
<a xlink:href="https://antismash-db.secondarymetabolites.org/area.html?record=NZ_FOEY01000001&amp;start=922578&amp;end=976627" target="_blank">NZ_FOEY01000001 (922578-976627)</a>: Pseudomonas sp. NFPP19, whole genome shotgun... (82% of genes show similarity), NRPS</text>
<line x1="10" y1="85" x2="778.0" y2="85" style="stroke-width:1; stroke:grey; "  />
</g>
<g id="a1_000"  >
<polygon points="34,85 39,80 46,80 46,90 39,90 34,85 " style="fill:#43d815; stroke-width:1; stroke:black; " description="&lt;b&gt;BMW80_RS03975&lt;/b&gt;&lt;br&gt;2-dehydropantoate 2-reductase&lt;br&gt;Location: 922983 - 923906&lt;br&gt;&lt;br&gt;&lt;b&gt;BlastP hit with MCIC6FC_005519&lt;/b&gt;&lt;br&gt;Percentage identity: 93&lt;br&gt;Percentage coverage: 40&lt;br&gt;BLAST bit score: 550&lt;br&gt;E-value: 2.6e-154" locus_tag="BMW80_RS03975" class="clusterblast-orf" id="dummy-1_h1_10_0"  />
</g>
<g id="a1_001"  >
<polygon points="47,85 52,80 66,80 66,90 52,90 47,85 " style="fill:#43d815; stroke-width:1; stroke:black; " description="&lt;b&gt;BMW80_RS03980&lt;/b&gt;&lt;br&gt;MFS transporter&lt;br&gt;Location: 923950 - 925341&lt;br&gt;&lt;br&gt;&lt;b&gt;BlastP hit with MCIC6FC_005519&lt;/b&gt;&lt;br&gt;Percentage identity: 95&lt;br&gt;Percentage coverage: 60&lt;br&gt;BLAST bit score: 837&lt;br&gt;E-value: 1.4e-240" locus_tag="BMW80_RS03980" class="clusterblast-orf" id="dummy-1_h1_10_1"  />
</g>
<g id="a1_002"  >
<polygon points="67,85 72,80 88,80 88,90 72,90 67,85 " style="fill:#15b6d8; stroke-width:1; stroke:black; " description="&lt;b&gt;BMW80_RS03985&lt;/b&gt;&lt;br&gt;benzoylformate decarboxylase&lt;br&gt;Location: 925423 - 927009&lt;br&gt;&lt;br&gt;&lt;b&gt;BlastP hit with MCIC6FC_005520&lt;/b&gt;&lt;br&gt;Percentage identity: 98&lt;br&gt;Percentage coverage: 100&lt;br&gt;BLAST bit score: 1045&lt;br&gt;E-value: 1.4e-303" locus_tag="BMW80_RS03985" class="clusterblast-orf" id="dummy-1_h1_10_2"  />
</g>
<g id="a1_003"  >
<polygon points="89,90 96,90 101,85 96,80 89,80 89,90 " style="fill:#8815d8; stroke-width:1; stroke:black; " description="&lt;b&gt;BMW80_RS03990&lt;/b&gt;&lt;br&gt;LysR family transcriptional regulator&lt;br&gt;Location: 927125 - 928021&lt;br&gt;&lt;br&gt;&lt;b&gt;BlastP hit with MCIC6FC_005521&lt;/b&gt;&lt;br&gt;Percentage identity: 97&lt;br&gt;Percentage coverage: 100&lt;br&gt;BLAST bit score: 569&lt;br&gt;E-value: 2.1e-160" locus_tag="BMW80_RS03990" class="clusterblast-orf" id="dummy-1_h1_10_3"  />
</g>
<g id="a1_004"  >
<polygon points="103,90 106,90 111,85 106,80 103,80 103,90 " style="fill:white; stroke-width:1; stroke:black; " description="&lt;b&gt;BMW80_RS03995&lt;/b&gt;&lt;br&gt;hypothetical protein&lt;br&gt;Location: 928131 - 928712" locus_tag="BMW80_RS03995" class="clusterblast-orf" id="dummy-1_h1_10_4"  />
</g>
<g id="a1_005"  >
<polygon points="111,85 116,80 129,80 129,90 116,90 111,85 " style="fill:#43d815; stroke-width:1; stroke:black; " description="&lt;b&gt;BMW80_RS04000&lt;/b&gt;&lt;br&gt;MFS transporter&lt;br&gt;Location: 928709 - 930055&lt;br&gt;&lt;br&gt;&lt;b&gt;BlastP hit with MCIC6FC_005519&lt;/b&gt;&lt;br&gt;Percentage identity: 32&lt;br&gt;Percentage coverage: 56&lt;br&gt;BLAST bit score: 176&lt;br&gt;E-value: 7.9e-42&lt;br&gt;&lt;br&gt;&lt;b&gt;BlastP hit with MCIC6FC_005522&lt;/b&gt;&lt;br&gt;Percentage identity: 81&lt;br&gt;Percentage coverage: 41&lt;br&gt;BLAST bit score: 633&lt;br&gt;E-value: 3.3e-179" locus_tag="BMW80_RS04000" class="clusterblast-orf" id="dummy-1_h1_10_5"  />
</g>
<g id="a1_006"  >
<polygon points="135,85 140,80 148,80 148,90 140,90 135,85 " style="fill:#43d815; stroke-width:1; stroke:black; " description="&lt;b&gt;BMW80_RS04005&lt;/b&gt;&lt;br&gt;NAD(P)-dependent alcohol dehydrogenase&lt;br&gt;Location: 930512 - 931519&lt;br&gt;&lt;br&gt;&lt;b&gt;BlastP hit with MCIC6FC_005522&lt;/b&gt;&lt;br&gt;Percentage identity: 97&lt;br&gt;Percentage coverage: 30&lt;br&gt;BLAST bit score: 630&lt;br&gt;E-value: 2.8e-178" locus_tag="BMW80_RS04005" class="clusterblast-orf" id="dummy-1_h1_10_6"  />
</g>
<g id="a1_007"  >
<polygon points="151,85 156,80 164,80 164,90 156,90 151,85 " style="fill:#d85a15; stroke-width:1; stroke:black; " description="&lt;b&gt;BMW80_RS04010&lt;/b&gt;&lt;br&gt;bifunctional helix-turn-helix transcriptional regulator/GNAT family N-acetyltransferase&lt;br&gt;Location: 931736 - 932707&lt;br&gt;&lt;br&gt;&lt;b&gt;BlastP hit with MCIC6FC_005524&lt;/b&gt;&lt;br&gt;Percentage identity: 52&lt;br&gt;Percentage coverage: 127&lt;br&gt;BLAST bit score: 295&lt;br&gt;E-value: 4.9e-78" locus_tag="BMW80_RS04010" class="clusterblast-orf" id="dummy-1_h1_10_7"  />
</g>
<g id="a1_008"  >
<polygon points="167,90 168,90 173,85 168,80 167,80 167,90 " style="fill:white; stroke-width:1; stroke:black; " description="&lt;b&gt;BMW80_RS04015&lt;/b&gt;&lt;br&gt;sigma-70 family RNA polymerase sigma factor&lt;br&gt;Location: 932889 - 933398" locus_tag="BMW80_RS04015" class="clusterblast-orf" id="dummy-1_h1_10_8"  />
</g>
<g id="a1_009"  >
<polygon points="173,90 181,90 186,85 181,80 173,80 173,90 " style="fill:white; stroke-width:1; stroke:black; " description="&lt;b&gt;BMW80_RS04020&lt;/b&gt;&lt;br&gt;DUF4880 domain-containing protein&lt;br&gt;Location: 933395 - 934378" locus_tag="BMW80_RS04020" class="clusterblast-orf" id="dummy-1_h1_10_9"  />
</g>
<g id="a1_0010"  >
<polygon points="188,90 215,90 220,85 215,80 188,80 188,90 " style="fill:white; stroke-width:1; stroke:black; " description="&lt;b&gt;BMW80_RS04025&lt;/b&gt;&lt;br&gt;TonB-dependent siderophore receptor&lt;br&gt;Location: 934495 - 936915" locus_tag="BMW80_RS04025" class="clusterblast-orf" id="dummy-1_h1_10_10"  />
</g>
<g id="a1_0011"  >
<polygon points="223,90 230,90 235,85 230,80 223,80 223,90 " style="fill:#15d82c; stroke-width:1; stroke:black; " description="&lt;b&gt;BMW80_RS04030&lt;/b&gt;&lt;br&gt;alpha/beta hydrolase&lt;br&gt;Location: 937082 - 938023&lt;br&gt;&lt;br&gt;&lt;b&gt;BlastP hit with MCIC6FC_005525&lt;/b&gt;&lt;br&gt;Percentage identity: 91&lt;br&gt;Percentage coverage: 100&lt;br&gt;BLAST bit score: 575&lt;br&gt;E-value: 3.1e-162" locus_tag="BMW80_RS04030" class="clusterblast-orf" id="dummy-1_h1_10_11"  />
</g>
<g id="a1_0012"  >
<polygon points="236,85 241,80 242,80 242,90 241,90 236,85 " style="fill:#1571d8; stroke-width:1; stroke:black; " description="&lt;b&gt;BMW80_RS04035&lt;/b&gt;&lt;br&gt;hypothetical protein&lt;br&gt;Location: 938100 - 938570&lt;br&gt;&lt;br&gt;&lt;b&gt;BlastP hit with MCIC6FC_005526&lt;/b&gt;&lt;br&gt;Percentage identity: 79&lt;br&gt;Percentage coverage: 21&lt;br&gt;BLAST bit score: 217&lt;br&gt;E-value: 5.2e-54" locus_tag="BMW80_RS04035" class="clusterblast-orf" id="dummy-1_h1_10_12"  />
</g>
<g id="a1_0013"  >
<polygon points="247,85 252,80 266,80 266,90 252,90 247,85 " style="fill:#1571d8; stroke-width:1; stroke:black; " description="&lt;b&gt;BMW80_RS04040&lt;/b&gt;&lt;br&gt;isochorismate synthase&lt;br&gt;Location: 938927 - 940351&lt;br&gt;&lt;br&gt;&lt;b&gt;BlastP hit with MCIC6FC_005526&lt;/b&gt;&lt;br&gt;Percentage identity: 96&lt;br&gt;Percentage coverage: 62&lt;br&gt;BLAST bit score: 901&lt;br&gt;E-value: 5.9e-260" locus_tag="BMW80_RS04040" class="clusterblast-orf" id="dummy-1_h1_10_13"  />
</g>
<g id="a1_0014"  >
<polygon points="266,85 270,80 270,90 266,85 " style="fill:#1571d8; stroke-width:1; stroke:black; " description="&lt;b&gt;BMW80_RS04045&lt;/b&gt;&lt;br&gt;isochorismate lyase&lt;br&gt;Location: 940344 - 940667&lt;br&gt;&lt;br&gt;&lt;b&gt;BlastP hit with MCIC6FC_005526&lt;/b&gt;&lt;br&gt;Percentage identity: 96&lt;br&gt;Percentage coverage: 12&lt;br&gt;BLAST bit score: 178&lt;br&gt;E-value: 3.5e-42" locus_tag="BMW80_RS04045" class="clusterblast-orf" id="dummy-1_h1_10_14"  />
</g>
<g id="a1_0015"  >
<polygon points="271,85 276,80 281,80 281,90 276,90 271,85 " style="fill:white; stroke-width:1; stroke:black; " description="&lt;b&gt;BMW80_RS04050&lt;/b&gt;&lt;br&gt;thioesterase&lt;br&gt;Location: 940691 - 941470" locus_tag="BMW80_RS04050" class="clusterblast-orf" id="dummy-1_h1_10_15"  />
</g>
<g id="a1_0016"  >
<polygon points="281,85 286,80 296,80 296,90 286,90 281,85 " style="fill:white; stroke-width:1; stroke:black; " description="&lt;b&gt;BMW80_RS04055&lt;/b&gt;&lt;br&gt;saccharopine dehydrogenase NADP-binding domain-containing protein&lt;br&gt;Location: 941467 - 942567" locus_tag="BMW80_RS04055" class="clusterblast-orf" id="dummy-1_h1_10_16"  />
</g>
<g id="a1_0017"  >
<polygon points="296,85 301,80 368,80 368,90 301,90 296,85 " style="fill:#cd15d8; stroke-width:1; stroke:black; " description="&lt;b&gt;BMW80_RS04060&lt;/b&gt;&lt;br&gt;amino acid adenylation domain-containing protein&lt;br&gt;Location: 942579 - 948002&lt;br&gt;&lt;br&gt;&lt;b&gt;BlastP hit with MCIC6FC_005527&lt;/b&gt;&lt;br&gt;Percentage identity: 91&lt;br&gt;Percentage coverage: 35&lt;br&gt;BLAST bit score: 3179&lt;br&gt;E-value: 0.0" locus_tag="BMW80_RS04060" class="clusterblast-orf" id="dummy-1_h1_10_17"  />
</g>
<g id="a1_0018"  >
<polygon points="368,85 373,80 415,80 415,90 373,90 368,85 " style="fill:#cd15d8; stroke-width:1; stroke:black; " description="&lt;b&gt;BMW80_RS04065&lt;/b&gt;&lt;br&gt;non-ribosomal peptide synthetase&lt;br&gt;Location: 947999 - 951469&lt;br&gt;&lt;br&gt;&lt;b&gt;BlastP hit with MCIC6FC_005527&lt;/b&gt;&lt;br&gt;Percentage identity: 88&lt;br&gt;Percentage coverage: 23&lt;br&gt;BLAST bit score: 1975&lt;br&gt;E-value: 0.0" locus_tag="BMW80_RS04065" class="clusterblast-orf" id="dummy-1_h1_10_18"  />
</g>
<g id="a1_0019"  >
<polygon points="415,85 420,80 438,80 438,90 420,90 415,85 " style="fill:#cd15d8; stroke-width:1; stroke:black; " description="&lt;b&gt;BMW80_RS04070&lt;/b&gt;&lt;br&gt;ABC transporter ATP-binding protein&lt;br&gt;Location: 951459 - 953225&lt;br&gt;&lt;br&gt;&lt;b&gt;BlastP hit with MCIC6FC_005527&lt;/b&gt;&lt;br&gt;Percentage identity: 94&lt;br&gt;Percentage coverage: 11&lt;br&gt;BLAST bit score: 946&lt;br&gt;E-value: 1.4e-272" locus_tag="BMW80_RS04070" class="clusterblast-orf" id="dummy-1_h1_10_19"  />
</g>
<g id="a1_0020"  >
<polygon points="438,85 443,80 461,80 461,90 443,90 438,85 " style="fill:#cd15d8; stroke-width:1; stroke:black; " description="&lt;b&gt;BMW80_RS04075&lt;/b&gt;&lt;br&gt;ABC transporter ATP-binding protein&lt;br&gt;Location: 953222 - 954967&lt;br&gt;&lt;br&gt;&lt;b&gt;BlastP hit with MCIC6FC_005527&lt;/b&gt;&lt;br&gt;Percentage identity: 80&lt;br&gt;Percentage coverage: 11&lt;br&gt;BLAST bit score: 765&lt;br&gt;E-value: 2.6e-218" locus_tag="BMW80_RS04075" class="clusterblast-orf" id="dummy-1_h1_10_20"  />
</g>
<g id="a1_0021"  >
<polygon points="461,85 466,80 484,80 484,90 466,90 461,85 " style="fill:#cd15d8; stroke-width:1; stroke:black; " description="&lt;b&gt;BMW80_RS04080&lt;/b&gt;&lt;br&gt;AMP-binding protein&lt;br&gt;Location: 954960 - 956627&lt;br&gt;&lt;br&gt;&lt;b&gt;BlastP hit with MCIC6FC_005527&lt;/b&gt;&lt;br&gt;Percentage identity: 96&lt;br&gt;Percentage coverage: 11&lt;br&gt;BLAST bit score: 1078&lt;br&gt;E-value: 0.0" locus_tag="BMW80_RS04080" class="clusterblast-orf" id="dummy-1_h1_10_21"  />
</g>
<g id="a1_0022"  >
<polygon points="489,90 496,90 501,85 496,80 489,80 489,90 " style="fill:#d89f15; stroke-width:1; stroke:black; " description="&lt;b&gt;BMW80_RS04085&lt;/b&gt;&lt;br&gt;AraC family transcriptional regulator&lt;br&gt;Location: 957003 - 957905&lt;br&gt;&lt;br&gt;&lt;b&gt;BlastP hit with MCIC6FC_005528&lt;/b&gt;&lt;br&gt;Percentage identity: 95&lt;br&gt;Percentage coverage: 11&lt;br&gt;BLAST bit score: 562&lt;br&gt;E-value: 1.8e-157" locus_tag="BMW80_RS04085" class="clusterblast-orf" id="dummy-1_h1_10_22"  />
</g>
<g id="a1_0023"  >
<polygon points="503,90 528,90 533,85 528,80 503,80 503,90 " style="fill:#d89f15; stroke-width:1; stroke:black; " description="&lt;b&gt;BMW80_RS04090&lt;/b&gt;&lt;br&gt;TonB-dependent siderophore receptor&lt;br&gt;Location: 958083 - 960314&lt;br&gt;&lt;br&gt;&lt;b&gt;BlastP hit with MCIC6FC_005528&lt;/b&gt;&lt;br&gt;Percentage identity: 92&lt;br&gt;Percentage coverage: 28&lt;br&gt;BLAST bit score: 1392&lt;br&gt;E-value: 0.0" locus_tag="BMW80_RS04090" class="clusterblast-orf" id="dummy-1_h1_10_23"  />
</g>
<g id="a1_0024"  >
<polygon points="533,90 540,90 545,85 540,80 533,80 533,90 " style="fill:#d89f15; stroke-width:1; stroke:black; " description="&lt;b&gt;BMW80_RS04095&lt;/b&gt;&lt;br&gt;PepSY domain-containing protein&lt;br&gt;Location: 960322 - 961203&lt;br&gt;&lt;br&gt;&lt;b&gt;BlastP hit with MCIC6FC_005528&lt;/b&gt;&lt;br&gt;Percentage identity: 89&lt;br&gt;Percentage coverage: 10&lt;br&gt;BLAST bit score: 491&lt;br&gt;E-value: 5.1e-136" locus_tag="BMW80_RS04095" class="clusterblast-orf" id="dummy-1_h1_10_24"  />
</g>
<g id="a1_0025"  >
<polygon points="545,90 555,90 560,85 555,80 545,80 545,90 " style="fill:#d89f15; stroke-width:1; stroke:black; " description="&lt;b&gt;BMW80_RS04100&lt;/b&gt;&lt;br&gt;ABC transporter substrate-binding protein&lt;br&gt;Location: 961190 - 962323&lt;br&gt;&lt;br&gt;&lt;b&gt;BlastP hit with MCIC6FC_005528&lt;/b&gt;&lt;br&gt;Percentage identity: 94&lt;br&gt;Percentage coverage: 14&lt;br&gt;BLAST bit score: 705&lt;br&gt;E-value: 2.2e-200" locus_tag="BMW80_RS04100" class="clusterblast-orf" id="dummy-1_h1_10_25"  />
</g>
<g id="a1_0026"  >
<polygon points="560,90 569,90 574,85 569,80 560,80 560,90 " style="fill:#d89f15; stroke-width:1; stroke:black; " description="&lt;b&gt;BMW80_RS04105&lt;/b&gt;&lt;br&gt;iron ABC transporter permease&lt;br&gt;Location: 962320 - 963387&lt;br&gt;&lt;br&gt;&lt;b&gt;BlastP hit with MCIC6FC_005528&lt;/b&gt;&lt;br&gt;Percentage identity: 99&lt;br&gt;Percentage coverage: 13&lt;br&gt;BLAST bit score: 562&lt;br&gt;E-value: 3e-157" locus_tag="BMW80_RS04105" class="clusterblast-orf" id="dummy-1_h1_10_26"  />
</g>
<g id="a1_0027"  >
<polygon points="575,90 580,90 585,85 580,80 575,80 575,90 " style="fill:white; stroke-width:1; stroke:black; " description="&lt;b&gt;BMW80_RS04110&lt;/b&gt;&lt;br&gt;ATP-binding cassette domain-containing protein&lt;br&gt;Location: 963435 - 964214" locus_tag="BMW80_RS04110" class="clusterblast-orf" id="dummy-1_h1_10_27"  />
</g>
<g id="a1_0028"  >
<polygon points="585,90 596,90 601,85 596,80 585,80 585,90 " style="fill:#d89f15; stroke-width:1; stroke:black; " description="&lt;b&gt;BMW80_RS04115&lt;/b&gt;&lt;br&gt;MFS transporter&lt;br&gt;Location: 964218 - 965432&lt;br&gt;&lt;br&gt;&lt;b&gt;BlastP hit with MCIC6FC_005528&lt;/b&gt;&lt;br&gt;Percentage identity: 93&lt;br&gt;Percentage coverage: 15&lt;br&gt;BLAST bit score: 675&lt;br&gt;E-value: 1.9e-191" locus_tag="BMW80_RS04115" class="clusterblast-orf" id="dummy-1_h1_10_28"  />
</g>
<g id="a1_0029"  >
<polygon points="604,85 609,80 620,80 620,90 609,90 604,85 " style="fill:#15d871; stroke-width:1; stroke:black; " description="&lt;b&gt;BMW80_RS04120&lt;/b&gt;&lt;br&gt;sugar transporter&lt;br&gt;Location: 965621 - 966799&lt;br&gt;&lt;br&gt;&lt;b&gt;BlastP hit with MCIC6FC_005529&lt;/b&gt;&lt;br&gt;Percentage identity: 87&lt;br&gt;Percentage coverage: 64&lt;br&gt;BLAST bit score: 601&lt;br&gt;E-value: 1.4e-169" locus_tag="BMW80_RS04120" class="clusterblast-orf" id="dummy-1_h1_10_29"  />
</g>
<g id="a1_0030"  >
<polygon points="621,85 626,80 629,80 629,90 626,90 621,85 " style="fill:#15d871; stroke-width:1; stroke:black; " description="&lt;b&gt;BMW80_RS04125&lt;/b&gt;&lt;br&gt;TetR/AcrR family transcriptional regulator&lt;br&gt;Location: 966932 - 967531&lt;br&gt;&lt;br&gt;&lt;b&gt;BlastP hit with MCIC6FC_005529&lt;/b&gt;&lt;br&gt;Percentage identity: 93&lt;br&gt;Percentage coverage: 32&lt;br&gt;BLAST bit score: 348&lt;br&gt;E-value: 1.6e-93" locus_tag="BMW80_RS04125" class="clusterblast-orf" id="dummy-1_h1_10_30"  />
</g>
<g id="a1_0031"  >
<polygon points="631,85 636,80 643,80 643,90 636,90 631,85 " style="fill:#152cd8; stroke-width:1; stroke:black; " description="&lt;b&gt;BMW80_RS04130&lt;/b&gt;&lt;br&gt;alpha/beta hydrolase&lt;br&gt;Location: 967676 - 968563&lt;br&gt;&lt;br&gt;&lt;b&gt;BlastP hit with MCIC6FC_005530&lt;/b&gt;&lt;br&gt;Percentage identity: 96&lt;br&gt;Percentage coverage: 23&lt;br&gt;BLAST bit score: 574&lt;br&gt;E-value: 2.7e-161" locus_tag="BMW80_RS04130" class="clusterblast-orf" id="dummy-1_h1_10_31"  />
</g>
<g id="a1_0032"  >
<polygon points="643,85 648,80 658,80 658,90 648,90 643,85 " style="fill:#152cd8; stroke-width:1; stroke:black; " description="&lt;b&gt;BMW80_RS04135&lt;/b&gt;&lt;br&gt;sugar phosphate isomerase/epimerase&lt;br&gt;Location: 968586 - 969641&lt;br&gt;&lt;br&gt;&lt;b&gt;BlastP hit with MCIC6FC_005530&lt;/b&gt;&lt;br&gt;Percentage identity: 96&lt;br&gt;Percentage coverage: 27&lt;br&gt;BLAST bit score: 664&lt;br&gt;E-value: 2.6e-188" locus_tag="BMW80_RS04135" class="clusterblast-orf" id="dummy-1_h1_10_32"  />
</g>
<g id="a1_0033"  >
<polygon points="660,85 665,80 683,80 683,90 665,90 660,85 " style="fill:#152cd8; stroke-width:1; stroke:black; " description="&lt;b&gt;BMW80_RS04140&lt;/b&gt;&lt;br&gt;amidohydrolase&lt;br&gt;Location: 969843 - 971582&lt;br&gt;&lt;br&gt;&lt;b&gt;BlastP hit with MCIC6FC_005530&lt;/b&gt;&lt;br&gt;Percentage identity: 95&lt;br&gt;Percentage coverage: 47&lt;br&gt;BLAST bit score: 1083&lt;br&gt;E-value: 0.0" locus_tag="BMW80_RS04140" class="clusterblast-orf" id="dummy-1_h1_10_33"  />
</g>
<g id="a1_0034"  >
<polygon points="685,90 692,90 697,85 692,80 685,80 685,90 " style="fill:#d8159f; stroke-width:1; stroke:black; " description="&lt;b&gt;BMW80_RS04145&lt;/b&gt;&lt;br&gt;LysR family transcriptional regulator&lt;br&gt;Location: 971689 - 972603&lt;br&gt;&lt;br&gt;&lt;b&gt;BlastP hit with MCIC6FC_005531&lt;/b&gt;&lt;br&gt;Percentage identity: 95&lt;br&gt;Percentage coverage: 100&lt;br&gt;BLAST bit score: 584&lt;br&gt;E-value: 6.5e-165" locus_tag="BMW80_RS04145" class="clusterblast-orf" id="dummy-1_h1_10_34"  />
</g>
<g id="a1_0035"  >
<polygon points="702,90 710,90 715,85 710,80 702,80 702,90 " style="fill:#cdd815; stroke-width:1; stroke:black; " description="&lt;b&gt;BMW80_RS04150&lt;/b&gt;&lt;br&gt;DUF1852 domain-containing protein&lt;br&gt;Location: 972958 - 973941&lt;br&gt;&lt;br&gt;&lt;b&gt;BlastP hit with MCIC6FC_005532&lt;/b&gt;&lt;br&gt;Percentage identity: 90&lt;br&gt;Percentage coverage: 38&lt;br&gt;BLAST bit score: 514&lt;br&gt;E-value: 1.5e-143" locus_tag="BMW80_RS04150" class="clusterblast-orf" id="dummy-1_h1_10_35"  />
</g>
<g id="a1_0036"  >
<polygon points="715,90 724,90 729,85 724,80 715,80 715,90 " style="fill:#cdd815; stroke-width:1; stroke:black; " description="&lt;b&gt;BMW80_RS04155&lt;/b&gt;&lt;br&gt;methionine synthase&lt;br&gt;Location: 973969 - 975003&lt;br&gt;&lt;br&gt;&lt;b&gt;BlastP hit with MCIC6FC_005532&lt;/b&gt;&lt;br&gt;Percentage identity: 81&lt;br&gt;Percentage coverage: 43&lt;br&gt;BLAST bit score: 497&lt;br&gt;E-value: 1.9e-138" locus_tag="BMW80_RS04155" class="clusterblast-orf" id="dummy-1_h1_10_36"  />
</g>
<g id="a1_0037"  >
<polygon points="731,90 732,90 737,85 732,80 731,80 731,90 " style="fill:#cdd815; stroke-width:1; stroke:black; " description="&lt;b&gt;BMW80_RS04160&lt;/b&gt;&lt;br&gt;flavin reductase family protein&lt;br&gt;Location: 975110 - 975619&lt;br&gt;&lt;br&gt;&lt;b&gt;BlastP hit with MCIC6FC_005532&lt;/b&gt;&lt;br&gt;Percentage identity: 93&lt;br&gt;Percentage coverage: 23&lt;br&gt;BLAST bit score: 316&lt;br&gt;E-value: 7.9e-84" locus_tag="BMW80_RS04160" class="clusterblast-orf" id="dummy-1_h1_10_37"  />
</g>
<g id="a1_0038"  >
<polygon points="739,85 744,80 745,80 745,90 744,90 739,85 " style="fill:#15d8b6; stroke-width:1; stroke:black; " description="&lt;b&gt;BMW80_RS04165&lt;/b&gt;&lt;br&gt;Lrp/AsnC family transcriptional regulator&lt;br&gt;Location: 975707 - 976177&lt;br&gt;&lt;br&gt;&lt;b&gt;BlastP hit with MCIC6FC_005533&lt;/b&gt;&lt;br&gt;Percentage identity: 96&lt;br&gt;Percentage coverage: 100&lt;br&gt;BLAST bit score: 291&lt;br&gt;E-value: 4.5e-77" locus_tag="BMW80_RS04165" class="clusterblast-orf" id="dummy-1_h1_10_38"  />
</g>
</svg>
