<svg xmlns="http://www.w3.org/2000/svg" xmlns:xlink="http://www.w3.org/1999/xlink" version="1.1" x="0" y="0" height="230" width="800" viewBox="0 0 800 230" preserveAspectRatio="none"  >
<g label="Query sequence" class="clusterblast-cluster"  >
<text x="5" y="20" class="clusterblast-acc"  >
Query sequence</text>
<line x1="10" y1="35" x2="778.0" y2="35" style="stroke-width:1; stroke:grey; "  />
<polygon points="0,35 5,30 23,30 23,40 5,40 0,35 " style="fill:white; stroke-width:1; stroke:black; " description="&lt;b&gt;MCIC6FC_007469&lt;/b&gt;&lt;br&gt;hypothetical protein&lt;br&gt;Location: 672575 - 674644" locus_tag="MCIC6FC_007469" class="clusterblast-orf" id="dummy-2_q0_0_all"  />
<polygon points="24,40 30,40 35,35 30,30 24,30 24,40 " style="fill:white; stroke-width:1; stroke:black; " description="&lt;b&gt;MCIC6FC_007470&lt;/b&gt;&lt;br&gt;hypothetical protein&lt;br&gt;Location: 674727 - 675636" locus_tag="MCIC6FC_007470" class="clusterblast-orf" id="dummy-2_q1_0_all"  />
<polygon points="35,35 40,30 61,30 61,40 40,40 35,35 " style="fill:#d81515; stroke-width:1; stroke:black; " description="&lt;b&gt;MCIC6FC_007471&lt;/b&gt;&lt;br&gt;hypothetical protein&lt;br&gt;Location: 675666 - 677901" locus_tag="MCIC6FC_007471" class="clusterblast-orf" id="dummy-2_q2_0_all"  />
<polygon points="63,40 84,40 89,35 84,30 63,30 63,40 " style="fill:#6ad815; stroke-width:1; stroke:black; " description="&lt;b&gt;MCIC6FC_007472&lt;/b&gt;&lt;br&gt;hypothetical protein&lt;br&gt;Location: 678045 - 680361" locus_tag="MCIC6FC_007472" class="clusterblast-orf" id="dummy-2_q3_0_all"  />
<polygon points="92,35 97,30 123,30 123,40 97,40 92,35 " style="fill:#15bfd8; stroke-width:1; stroke:black; " description="&lt;b&gt;MCIC6FC_007473&lt;/b&gt;&lt;br&gt;hypothetical protein&lt;br&gt;Location: 680593 - 683317" locus_tag="MCIC6FC_007473" class="clusterblast-orf" id="dummy-2_q4_0_all"  />
<polygon points="125,40 137,40 142,35 137,30 125,30 125,40 " style="fill:#9d15d8; stroke-width:1; stroke:black; " description="&lt;b&gt;MCIC6FC_007474&lt;/b&gt;&lt;br&gt;hypothetical protein&lt;br&gt;Location: 683450 - 684953" locus_tag="MCIC6FC_007474" class="clusterblast-orf" id="dummy-2_q5_0_all"  />
<polygon points="142,35 147,30 151,30 151,40 147,40 142,35 " style="fill:#d84815; stroke-width:1; stroke:black; " description="&lt;b&gt;MCIC6FC_007475&lt;/b&gt;&lt;br&gt;hypothetical protein&lt;br&gt;Location: 684963 - 685723" locus_tag="MCIC6FC_007475" class="clusterblast-orf" id="dummy-2_q6_0_all"  />
<polygon points="152,40 157,40 162,35 157,30 152,30 152,40 " style="fill:#37d815; stroke-width:1; stroke:black; " description="&lt;b&gt;MCIC6FC_007476&lt;/b&gt;&lt;br&gt;hypothetical protein&lt;br&gt;Location: 685781 - 686674" locus_tag="MCIC6FC_007476" class="clusterblast-orf" id="dummy-2_q7_0_all"  />
<polygon points="162,35 167,30 172,30 172,40 167,40 162,35 " style="fill:#158cd8; stroke-width:1; stroke:black; " description="&lt;b&gt;MCIC6FC_007477&lt;/b&gt;&lt;br&gt;hypothetical protein&lt;br&gt;Location: 686682 - 687549" locus_tag="MCIC6FC_007477" class="clusterblast-orf" id="dummy-2_q8_0_all"  />
<polygon points="173,40 181,40 186,35 181,30 173,30 173,40 " style="fill:#d015d8; stroke-width:1; stroke:black; " description="&lt;b&gt;MCIC6FC_007478&lt;/b&gt;&lt;br&gt;hypothetical protein&lt;br&gt;Location: 687621 - 688727" locus_tag="MCIC6FC_007478" class="clusterblast-orf" id="dummy-2_q9_0_all"  />
<polygon points="186,35 191,30 192,30 192,40 191,40 186,35 " style="fill:#d87b15; stroke-width:1; stroke:black; " description="&lt;b&gt;MCIC6FC_007479&lt;/b&gt;&lt;br&gt;hypothetical protein&lt;br&gt;Location: 688781 - 689242" locus_tag="MCIC6FC_007479" class="clusterblast-orf" id="dummy-2_q10_0_all"  />
<polygon points="197,35 202,30 212,30 212,40 202,40 197,35 " style="fill:#15d826; stroke-width:1; stroke:black; " description="&lt;b&gt;MCIC6FC_007480&lt;/b&gt;&lt;br&gt;hypothetical protein&lt;br&gt;Location: 689670 - 690984" locus_tag="MCIC6FC_007480" class="clusterblast-orf" id="dummy-2_q11_0_all"  />
<polygon points="215,35 220,30 225,30 225,40 220,40 215,35 " style="fill:#1559d8; stroke-width:1; stroke:black; " description="&lt;b&gt;MCIC6FC_007481&lt;/b&gt;&lt;br&gt;hypothetical protein&lt;br&gt;Location: 691289 - 692105" locus_tag="MCIC6FC_007481" class="clusterblast-orf" id="dummy-2_q12_0_all"  />
<polygon points="225,35 230,30 232,30 232,40 230,40 225,35 " style="fill:#d015d8; stroke-width:1; stroke:black; " description="&lt;b&gt;MCIC6FC_007482&lt;/b&gt;&lt;br&gt;hypothetical protein&lt;br&gt;Location: 692133 - 692766" locus_tag="MCIC6FC_007482" class="clusterblast-orf" id="dummy-2_q13_0_all"  />
<polygon points="234,40 260,40 265,35 260,30 234,30 234,40 " style="fill:#d815ae; stroke-width:1; stroke:black; " description="&lt;b&gt;MCIC6FC_007483&lt;/b&gt;&lt;br&gt;hypothetical protein&lt;br&gt;Location: 692877 - 695575" locus_tag="MCIC6FC_007483" class="clusterblast-orf" id="dummy-2_q14_0_all"  />
<polygon points="265,35 270,30 272,30 272,40 270,40 265,35 " style="fill:#d8ae15; stroke-width:1; stroke:black; " description="&lt;b&gt;MCIC6FC_007484&lt;/b&gt;&lt;br&gt;hypothetical protein&lt;br&gt;Location: 695586 - 696207" locus_tag="MCIC6FC_007484" class="clusterblast-orf" id="dummy-2_q15_0_all"  />
<polygon points="275,40 340,40 345,35 340,30 275,30 275,40 " style="fill:#15d859; stroke-width:1; stroke:black; " description="&lt;b&gt;MCIC6FC_007485&lt;/b&gt;&lt;br&gt;hypothetical protein&lt;br&gt;Location: 696508 - 702544" locus_tag="MCIC6FC_007485" class="clusterblast-orf" id="dummy-2_q16_0_all"  />
<polygon points="346,35 351,30 376,30 376,40 351,40 346,35 " style="fill:#1526d8; stroke-width:1; stroke:black; " description="&lt;b&gt;MCIC6FC_007486&lt;/b&gt;&lt;br&gt;hypothetical protein&lt;br&gt;Location: 702671 - 705211" locus_tag="MCIC6FC_007486" class="clusterblast-orf" id="dummy-2_q17_0_all"  />
<polygon points="377,35 382,30 387,30 387,40 382,40 377,35 " style="fill:#d8157b; stroke-width:1; stroke:black; " description="&lt;b&gt;MCIC6FC_007487&lt;/b&gt;&lt;br&gt;hypothetical protein&lt;br&gt;Location: 705352 - 706216" locus_tag="MCIC6FC_007487" class="clusterblast-orf" id="dummy-2_q18_0_all"  />
<polygon points="391,35 396,30 416,30 416,40 396,40 391,35 " style="fill:#d0d815; stroke-width:1; stroke:black; " description="&lt;b&gt;MCIC6FC_007488&lt;/b&gt;&lt;br&gt;hypothetical protein&lt;br&gt;Location: 706499 - 708736" locus_tag="MCIC6FC_007488" class="clusterblast-orf" id="dummy-2_q19_0_all"  />
<polygon points="418,35 423,30 457,30 457,40 423,40 418,35 " style="fill:#15d88c; stroke-width:1; stroke:black; " description="&lt;b&gt;MCIC6FC_007489&lt;/b&gt;&lt;br&gt;hypothetical protein&lt;br&gt;Location: 708846 - 712262" locus_tag="MCIC6FC_007489" class="clusterblast-orf" id="dummy-2_q20_0_all"  />
<polygon points="458,40 462,40 467,35 462,30 458,30 458,40 " style="fill:#3715d8; stroke-width:1; stroke:black; " description="&lt;b&gt;MCIC6FC_007490&lt;/b&gt;&lt;br&gt;hypothetical protein&lt;br&gt;Location: 712372 - 713153" locus_tag="MCIC6FC_007490" class="clusterblast-orf" id="dummy-2_q21_0_all"  />
<polygon points="469,40 512,40 517,35 512,30 469,30 469,40 " style="fill:#d81548; stroke-width:1; stroke:black; " description="&lt;b&gt;MCIC6FC_007491&lt;/b&gt;&lt;br&gt;hypothetical protein&lt;br&gt;Location: 713274 - 717451" locus_tag="MCIC6FC_007491" class="clusterblast-orf" id="dummy-2_q22_0_all"  />
<polygon points="517,35 522,30 534,30 534,40 522,40 517,35 " style="fill:#15bfd8; stroke-width:1; stroke:black; " description="&lt;b&gt;MCIC6FC_007492&lt;/b&gt;&lt;br&gt;hypothetical protein&lt;br&gt;Location: 717453 - 718988" locus_tag="MCIC6FC_007492" class="clusterblast-orf" id="dummy-2_q23_0_all"  />
<polygon points="536,35 541,30 566,30 566,40 541,40 536,35 " style="fill:#9dd815; stroke-width:1; stroke:black; " description="&lt;b&gt;MCIC6FC_007493&lt;/b&gt;&lt;br&gt;hypothetical protein&lt;br&gt;Location: 719128 - 721732" locus_tag="MCIC6FC_007493" class="clusterblast-orf" id="dummy-2_q24_0_all"  />
<polygon points="568,35 573,30 592,30 592,40 573,40 568,35 " style="fill:#15d8bf; stroke-width:1; stroke:black; " description="&lt;b&gt;MCIC6FC_007494&lt;/b&gt;&lt;br&gt;hypothetical protein&lt;br&gt;Location: 721903 - 723972" locus_tag="MCIC6FC_007494" class="clusterblast-orf" id="dummy-2_q25_0_all"  />
<polygon points="592,35 597,30 751,30 751,40 597,40 592,35 " style="fill:#6a15d8; stroke-width:1; stroke:black; " description="&lt;b&gt;MCIC6FC_007495&lt;/b&gt;&lt;br&gt;hypothetical protein&lt;br&gt;Location: 724015 - 737775" locus_tag="MCIC6FC_007495" class="clusterblast-orf" id="dummy-2_q26_0_all"  />
<polygon points="757,35 762,30 768,30 768,40 762,40 757,35 " style="fill:white; stroke-width:1; stroke:black; " description="&lt;b&gt;MCIC6FC_007496&lt;/b&gt;&lt;br&gt;hypothetical protein&lt;br&gt;Location: 738268 - 739222" locus_tag="MCIC6FC_007496" class="clusterblast-orf" id="dummy-2_q27_0_all"  />
<polygon points="768,35 773,30 780,30 780,40 773,40 768,35 " style="fill:white; stroke-width:1; stroke:black; " description="&lt;b&gt;MCIC6FC_007497&lt;/b&gt;&lt;br&gt;hypothetical protein&lt;br&gt;Location: 739248 - 740262" locus_tag="MCIC6FC_007497" class="clusterblast-orf" id="dummy-2_q28_0_all"  />
</g>
<g label="NZ_CP046103" description="NZ_CP046103 (2754535-2781745): Pseudomonas sp. IB20 chromosome (80% of genes show similarity), thiopeptide" class="clusterblast-cluster"  >
<text x="5" y="70" class="clusterblast-acc"  >
<a xlink:href="https://antismash-db.secondarymetabolites.org/area.html?record=NZ_CP046103&amp;start=2754535&amp;end=2781745" target="_blank">NZ_CP046103 (2754535-2781745)</a>: Pseudomonas sp. IB20 chromosome (80% of genes show similarity), thiopeptide</text>
<line x1="10" y1="85" x2="778.0" y2="85" style="stroke-width:1; stroke:grey; "  />
</g>
<g id="a2_000"  >
<polygon points="253,85 258,80 258,80 258,90 258,90 253,85 " style="fill:#d81515; stroke-width:1; stroke:black; " description="&lt;b&gt;GJU48_RS12810&lt;/b&gt;&lt;br&gt;hypothetical protein&lt;br&gt;Location: 2780693 - 2780268&lt;br&gt;&lt;br&gt;&lt;b&gt;BlastP hit with MCIC6FC_007471&lt;/b&gt;&lt;br&gt;Percentage identity: 95&lt;br&gt;Percentage coverage: 19&lt;br&gt;BLAST bit score: 234&lt;br&gt;E-value: 2.8e-59" locus_tag="GJU48_RS12810" class="clusterblast-orf" id="dummy-2_h2_3_0"  />
</g>
<g id="a2_001"  >
<polygon points="260,90 260,90 265,85 260,80 260,80 260,90 " style="fill:#6ad815; stroke-width:1; stroke:black; " description="&lt;b&gt;GJU48_RS12805&lt;/b&gt;&lt;br&gt;ATP-binding protein&lt;br&gt;Location: 2780057 - 2779578&lt;br&gt;&lt;br&gt;&lt;b&gt;BlastP hit with MCIC6FC_007472&lt;/b&gt;&lt;br&gt;Percentage identity: 87&lt;br&gt;Percentage coverage: 21&lt;br&gt;BLAST bit score: 278&lt;br&gt;E-value: 1.9e-72" locus_tag="GJU48_RS12805" class="clusterblast-orf" id="dummy-2_h2_3_1"  />
</g>
<g id="a2_002"  >
<polygon points="265,90 269,90 274,85 269,80 265,80 265,90 " style="fill:#6ad815; stroke-width:1; stroke:black; " description="&lt;b&gt;GJU48_RS12800&lt;/b&gt;&lt;br&gt;nucleotidyltransferase domain-containing protein&lt;br&gt;Location: 2779581 - 2778811&lt;br&gt;&lt;br&gt;&lt;b&gt;BlastP hit with MCIC6FC_007472&lt;/b&gt;&lt;br&gt;Percentage identity: 87&lt;br&gt;Percentage coverage: 34&lt;br&gt;BLAST bit score: 456&lt;br&gt;E-value: 5e-126" locus_tag="GJU48_RS12800" class="clusterblast-orf" id="dummy-2_h2_3_2"  />
</g>
<g id="a2_003"  >
<polygon points="275,85 277,80 277,90 275,85 " style="fill:white; stroke-width:1; stroke:black; " description="&lt;b&gt;GJU48_RS12795&lt;/b&gt;&lt;br&gt;hypothetical protein&lt;br&gt;Location: 2778717 - 2778541" locus_tag="GJU48_RS12795" class="clusterblast-orf" id="dummy-2_h2_3_3"  />
</g>
<g id="a2_004"  >
<polygon points="279,90 279,90 284,85 279,80 279,80 279,90 " style="fill:#37d815; stroke-width:1; stroke:black; " description="&lt;b&gt;GJU48_RS12790&lt;/b&gt;&lt;br&gt;hypothetical protein&lt;br&gt;Location: 2778382 - 2777951&lt;br&gt;&lt;br&gt;&lt;b&gt;BlastP hit with MCIC6FC_007476&lt;/b&gt;&lt;br&gt;Percentage identity: 86&lt;br&gt;Percentage coverage: 49&lt;br&gt;BLAST bit score: 253&lt;br&gt;E-value: 2.4e-65" locus_tag="GJU48_RS12790" class="clusterblast-orf" id="dummy-2_h2_3_4"  />
</g>
<g id="a2_005"  >
<polygon points="284,90 285,90 290,85 285,80 284,80 284,90 " style="fill:#37d815; stroke-width:1; stroke:black; " description="&lt;b&gt;GJU48_RS12785&lt;/b&gt;&lt;br&gt;VOC family protein&lt;br&gt;Location: 2777930 - 2777475&lt;br&gt;&lt;br&gt;&lt;b&gt;BlastP hit with MCIC6FC_007476&lt;/b&gt;&lt;br&gt;Percentage identity: 82&lt;br&gt;Percentage coverage: 48&lt;br&gt;BLAST bit score: 233&lt;br&gt;E-value: 3.4e-59" locus_tag="GJU48_RS12785" class="clusterblast-orf" id="dummy-2_h2_3_5"  />
</g>
<g id="a2_006"  >
<polygon points="290,90 290,90 295,85 290,80 290,80 290,90 " style="fill:#d015d8; stroke-width:1; stroke:black; " description="&lt;b&gt;GJU48_RS12780&lt;/b&gt;&lt;br&gt;NUDIX domain-containing protein&lt;br&gt;Location: 2777482 - 2777045&lt;br&gt;&lt;br&gt;&lt;b&gt;BlastP hit with MCIC6FC_007478&lt;/b&gt;&lt;br&gt;Percentage identity: 77&lt;br&gt;Percentage coverage: 39&lt;br&gt;BLAST bit score: 225&lt;br&gt;E-value: 9e-57" locus_tag="GJU48_RS12780" class="clusterblast-orf" id="dummy-2_h2_3_6"  />
</g>
<g id="a2_007"  >
<polygon points="295,85 300,80 302,80 302,90 300,90 295,85 " style="fill:#d87b15; stroke-width:1; stroke:black; " description="&lt;b&gt;GJU48_RS12775&lt;/b&gt;&lt;br&gt;cysteine hydrolase&lt;br&gt;Location: 2776987 - 2776424&lt;br&gt;&lt;br&gt;&lt;b&gt;BlastP hit with MCIC6FC_007479&lt;/b&gt;&lt;br&gt;Percentage identity: 85&lt;br&gt;Percentage coverage: 100&lt;br&gt;BLAST bit score: 223&lt;br&gt;E-value: 1.2e-56" locus_tag="GJU48_RS12775" class="clusterblast-orf" id="dummy-2_h2_3_7"  />
</g>
<g id="a2_008"  >
<polygon points="303,85 308,80 318,80 318,90 308,90 303,85 " style="fill:#15d826; stroke-width:1; stroke:black; " description="&lt;b&gt;GJU48_RS12770&lt;/b&gt;&lt;br&gt;FAD-binding oxidoreductase&lt;br&gt;Location: 2776363 - 2775050&lt;br&gt;&lt;br&gt;&lt;b&gt;BlastP hit with MCIC6FC_007480&lt;/b&gt;&lt;br&gt;Percentage identity: 93&lt;br&gt;Percentage coverage: 100&lt;br&gt;BLAST bit score: 837&lt;br&gt;E-value: 6.1e-241" locus_tag="GJU48_RS12770" class="clusterblast-orf" id="dummy-2_h2_3_8"  />
</g>
<g id="a2_009"  >
<polygon points="321,85 326,80 330,80 330,90 326,90 321,85 " style="fill:#1559d8; stroke-width:1; stroke:black; " description="&lt;b&gt;GJU48_RS12765&lt;/b&gt;&lt;br&gt;suppressor of fused domain protein&lt;br&gt;Location: 2774743 - 2773937&lt;br&gt;&lt;br&gt;&lt;b&gt;BlastP hit with MCIC6FC_007481&lt;/b&gt;&lt;br&gt;Percentage identity: 84&lt;br&gt;Percentage coverage: 100&lt;br&gt;BLAST bit score: 461&lt;br&gt;E-value: 7.4e-128" locus_tag="GJU48_RS12765" class="clusterblast-orf" id="dummy-2_h2_3_9"  />
</g>
<g id="a2_0010"  >
<polygon points="331,85 336,80 338,80 338,90 336,90 331,85 " style="fill:#d015d8; stroke-width:1; stroke:black; " description="&lt;b&gt;GJU48_RS12760&lt;/b&gt;&lt;br&gt;TetR family transcriptional regulator&lt;br&gt;Location: 2773908 - 2773276&lt;br&gt;&lt;br&gt;&lt;b&gt;BlastP hit with MCIC6FC_007478&lt;/b&gt;&lt;br&gt;Percentage identity: 53&lt;br&gt;Percentage coverage: 18&lt;br&gt;BLAST bit score: 64&lt;br&gt;E-value: 2e-08&lt;br&gt;&lt;br&gt;&lt;b&gt;BlastP hit with MCIC6FC_007482&lt;/b&gt;&lt;br&gt;Percentage identity: 93&lt;br&gt;Percentage coverage: 100&lt;br&gt;BLAST bit score: 369&lt;br&gt;E-value: 2.3e-100" locus_tag="GJU48_RS12760" class="clusterblast-orf" id="dummy-2_h2_3_10"  />
</g>
<g id="a2_0011"  >
<polygon points="340,90 342,90 347,85 342,80 340,80 340,90 " style="fill:#d815ae; stroke-width:1; stroke:black; " description="&lt;b&gt;GJU48_RS12755&lt;/b&gt;&lt;br&gt;class I SAM-dependent methyltransferase&lt;br&gt;Location: 2773149 - 2772493&lt;br&gt;&lt;br&gt;&lt;b&gt;BlastP hit with MCIC6FC_007483&lt;/b&gt;&lt;br&gt;Percentage identity: 88&lt;br&gt;Percentage coverage: 24&lt;br&gt;BLAST bit score: 357&lt;br&gt;E-value: 3.6e-96" locus_tag="GJU48_RS12755" class="clusterblast-orf" id="dummy-2_h2_3_11"  />
</g>
<g id="a2_0012"  >
<polygon points="347,85 352,80 354,80 354,90 352,90 347,85 " style="fill:#d8ae15; stroke-width:1; stroke:black; " description="&lt;b&gt;GJU48_RS12750&lt;/b&gt;&lt;br&gt;LysE family translocator&lt;br&gt;Location: 2772489 - 2771869&lt;br&gt;&lt;br&gt;&lt;b&gt;BlastP hit with MCIC6FC_007484&lt;/b&gt;&lt;br&gt;Percentage identity: 86&lt;br&gt;Percentage coverage: 105&lt;br&gt;BLAST bit score: 344&lt;br&gt;E-value: 9.5e-93" locus_tag="GJU48_RS12750" class="clusterblast-orf" id="dummy-2_h2_3_12"  />
</g>
<g id="a2_0013"  >
<polygon points="356,90 376,90 381,85 376,80 356,80 356,90 " style="fill:#15d859; stroke-width:1; stroke:black; " description="&lt;b&gt;GJU48_RS12745&lt;/b&gt;&lt;br&gt;OsmC domain/YcaO domain-containing protein&lt;br&gt;Location: 2771745 - 2769547&lt;br&gt;&lt;br&gt;&lt;b&gt;BlastP hit with MCIC6FC_007485&lt;/b&gt;&lt;br&gt;Percentage identity: 97&lt;br&gt;Percentage coverage: 38&lt;br&gt;BLAST bit score: 1443&lt;br&gt;E-value: 0.0" locus_tag="GJU48_RS12745" class="clusterblast-orf" id="dummy-2_h2_3_13"  />
</g>
<g id="a2_0014"  >
<polygon points="387,85 392,80 400,80 400,90 392,90 387,85 " style="fill:#1526d8; stroke-width:1; stroke:black; " description="&lt;b&gt;GJU48_RS12735&lt;/b&gt;&lt;br&gt;cystathionine gamma-synthase&lt;br&gt;Location: 2769065 - 2767899&lt;br&gt;&lt;br&gt;&lt;b&gt;BlastP hit with MCIC6FC_007486&lt;/b&gt;&lt;br&gt;Percentage identity: 99&lt;br&gt;Percentage coverage: 46&lt;br&gt;BLAST bit score: 765&lt;br&gt;E-value: 7.4e-219" locus_tag="GJU48_RS12735" class="clusterblast-orf" id="dummy-2_h2_3_14"  />
</g>
<g id="a2_0015"  >
<polygon points="400,85 405,80 416,80 416,90 405,90 400,85 " style="fill:#1526d8; stroke-width:1; stroke:black; " description="&lt;b&gt;GJU48_RS12730&lt;/b&gt;&lt;br&gt;cystathionine beta-synthase&lt;br&gt;Location: 2767902 - 2766526&lt;br&gt;&lt;br&gt;&lt;b&gt;BlastP hit with MCIC6FC_007486&lt;/b&gt;&lt;br&gt;Percentage identity: 95&lt;br&gt;Percentage coverage: 54&lt;br&gt;BLAST bit score: 860&lt;br&gt;E-value: 1.7e-247" locus_tag="GJU48_RS12730" class="clusterblast-orf" id="dummy-2_h2_3_15"  />
</g>
<g id="a2_0016"  >
<polygon points="418,85 423,80 427,80 427,90 423,90 418,85 " style="fill:#d8157b; stroke-width:1; stroke:black; " description="&lt;b&gt;GJU48_RS12725&lt;/b&gt;&lt;br&gt;4-hydroxy-tetrahydrodipicolinate synthase&lt;br&gt;Location: 2766383 - 2765520&lt;br&gt;&lt;br&gt;&lt;b&gt;BlastP hit with MCIC6FC_007487&lt;/b&gt;&lt;br&gt;Percentage identity: 92&lt;br&gt;Percentage coverage: 100&lt;br&gt;BLAST bit score: 507&lt;br&gt;E-value: 1.2e-141" locus_tag="GJU48_RS12725" class="clusterblast-orf" id="dummy-2_h2_3_16"  />
</g>
<g id="a2_0017"  >
<polygon points="435,85 439,80 439,90 435,85 " style="fill:#15d88c; stroke-width:1; stroke:black; " description="&lt;b&gt;GJU48_RS12720&lt;/b&gt;&lt;br&gt;ester cyclase&lt;br&gt;Location: 2764904 - 2764536&lt;br&gt;&lt;br&gt;&lt;b&gt;BlastP hit with MCIC6FC_007489&lt;/b&gt;&lt;br&gt;Percentage identity: 84&lt;br&gt;Percentage coverage: 10&lt;br&gt;BLAST bit score: 208&lt;br&gt;E-value: 3.4e-51" locus_tag="GJU48_RS12720" class="clusterblast-orf" id="dummy-2_h2_3_17"  />
</g>
<g id="a2_0018"  >
<polygon points="439,85 444,80 446,80 446,90 444,90 439,85 " style="fill:#15d88c; stroke-width:1; stroke:black; " description="&lt;b&gt;GJU48_RS12715&lt;/b&gt;&lt;br&gt;LysE family translocator&lt;br&gt;Location: 2764495 - 2763875&lt;br&gt;&lt;br&gt;&lt;b&gt;BlastP hit with MCIC6FC_007489&lt;/b&gt;&lt;br&gt;Percentage identity: 88&lt;br&gt;Percentage coverage: 19&lt;br&gt;BLAST bit score: 336&lt;br&gt;E-value: 1.1e-89" locus_tag="GJU48_RS12715" class="clusterblast-orf" id="dummy-2_h2_3_18"  />
</g>
<g id="a2_0019"  >
<polygon points="451,85 456,80 460,80 460,90 456,90 451,85 " style="fill:#15d8bf; stroke-width:1; stroke:black; " description="&lt;b&gt;GJU48_RS12710&lt;/b&gt;&lt;br&gt;PIG-L family deacetylase&lt;br&gt;Location: 2763448 - 2762687&lt;br&gt;&lt;br&gt;&lt;b&gt;BlastP hit with MCIC6FC_007494&lt;/b&gt;&lt;br&gt;Percentage identity: 91&lt;br&gt;Percentage coverage: 38&lt;br&gt;BLAST bit score: 467&lt;br&gt;E-value: 3.2e-129" locus_tag="GJU48_RS12710" class="clusterblast-orf" id="dummy-2_h2_3_19"  />
</g>
<g id="a2_0020"  >
<polygon points="462,85 467,80 470,80 470,90 467,90 462,85 " style="fill:white; stroke-width:1; stroke:black; " description="&lt;b&gt;GJU48_RS12705&lt;/b&gt;&lt;br&gt;glycosyltransferase family 2 protein&lt;br&gt;Location: 2762510 - 2761851" locus_tag="GJU48_RS12705" class="clusterblast-orf" id="dummy-2_h2_3_20"  />
</g>
<g id="a2_0021"  >
<polygon points="470,85 475,80 477,80 477,90 475,90 470,85 " style="fill:white; stroke-width:1; stroke:black; " description="&lt;b&gt;GJU48_RS12700&lt;/b&gt;&lt;br&gt;methyltransferase domain-containing protein&lt;br&gt;Location: 2761854 - 2761255" locus_tag="GJU48_RS12700" class="clusterblast-orf" id="dummy-2_h2_3_21"  />
</g>
<g id="a2_0022"  >
<polygon points="477,85 482,80 485,80 485,90 482,90 477,85 " style="fill:#15d8bf; stroke-width:1; stroke:black; " description="&lt;b&gt;GJU48_RS12695&lt;/b&gt;&lt;br&gt;PIG-L family deacetylase&lt;br&gt;Location: 2761258 - 2760500&lt;br&gt;&lt;br&gt;&lt;b&gt;BlastP hit with MCIC6FC_007494&lt;/b&gt;&lt;br&gt;Percentage identity: 59&lt;br&gt;Percentage coverage: 37&lt;br&gt;BLAST bit score: 301&lt;br&gt;E-value: 1.8e-79" locus_tag="GJU48_RS12695" class="clusterblast-orf" id="dummy-2_h2_3_22"  />
</g>
<g id="a2_0023"  >
<polygon points="485,85 490,80 497,80 497,90 490,90 485,85 " style="fill:white; stroke-width:1; stroke:black; " description="&lt;b&gt;GJU48_RS12690&lt;/b&gt;&lt;br&gt;acyl-CoA dehydrogenase family protein&lt;br&gt;Location: 2760503 - 2759505" locus_tag="GJU48_RS12690" class="clusterblast-orf" id="dummy-2_h2_3_23"  />
</g>
<g id="a2_0024"  >
<polygon points="497,85 502,80 522,80 522,90 502,90 497,85 " style="fill:#6a15d8; stroke-width:1; stroke:black; " description="&lt;b&gt;GJU48_RS12685&lt;/b&gt;&lt;br&gt;glycogen debranching protein GlgX&lt;br&gt;Location: 2759503 - 2757347&lt;br&gt;&lt;br&gt;&lt;b&gt;BlastP hit with MCIC6FC_007495&lt;/b&gt;&lt;br&gt;Percentage identity: 93&lt;br&gt;Percentage coverage: 16&lt;br&gt;BLAST bit score: 1406&lt;br&gt;E-value: 0.0" locus_tag="GJU48_RS12685" class="clusterblast-orf" id="dummy-2_h2_3_24"  />
</g>
<g id="a2_0025"  >
<polygon points="523,85 526,80 526,90 523,85 " style="fill:white; stroke-width:1; stroke:black; " description="&lt;b&gt;GJU48_RS12680&lt;/b&gt;&lt;br&gt;DUF2934 domain-containing protein&lt;br&gt;Location: 2757215 - 2756937" locus_tag="GJU48_RS12680" class="clusterblast-orf" id="dummy-2_h2_3_25"  />
</g>
</svg>
