<svg xmlns="http://www.w3.org/2000/svg" xmlns:xlink="http://www.w3.org/1999/xlink" version="1.1" x="0" y="0" height="230" width="800" viewBox="0 0 800 230" preserveAspectRatio="none"  >
<g label="Query sequence" class="clusterblast-cluster"  >
<text x="5" y="20" class="clusterblast-acc"  >
Query sequence</text>
<line x1="10" y1="35" x2="778.0" y2="35" style="stroke-width:1; stroke:grey; "  />
<polygon points="290,40 293,35 290,30 290,40 " style="fill:#d81515; stroke-width:1; stroke:black; " description="&lt;b&gt;MCIC6FC_021116&lt;/b&gt;&lt;br&gt;hypothetical protein&lt;br&gt;Location: 19640 - 20363" locus_tag="MCIC6FC_021116" class="clusterblast-orf" id="dummy-1_q0_0_all"  />
<polygon points="296,35 301,30 311,30 311,40 301,40 296,35 " style="fill:white; stroke-width:1; stroke:black; " description="&lt;b&gt;MCIC6FC_021117&lt;/b&gt;&lt;br&gt;hypothetical protein&lt;br&gt;Location: 20977 - 24350" locus_tag="MCIC6FC_021117" class="clusterblast-orf" id="dummy-1_q1_0_all"  />
<polygon points="313,40 338,40 343,35 338,30 313,30 313,40 " style="fill:white; stroke-width:1; stroke:black; " description="&lt;b&gt;MCIC6FC_021118&lt;/b&gt;&lt;br&gt;hypothetical protein&lt;br&gt;Location: 24858 - 31752" locus_tag="MCIC6FC_021118" class="clusterblast-orf" id="dummy-1_q2_0_all"  />
<polygon points="346,35 351,30 361,30 361,40 351,40 346,35 " style="fill:white; stroke-width:1; stroke:black; " description="&lt;b&gt;MCIC6FC_021119&lt;/b&gt;&lt;br&gt;hypothetical protein&lt;br&gt;Location: 32597 - 36108" locus_tag="MCIC6FC_021119" class="clusterblast-orf" id="dummy-1_q3_0_all"  />
<polygon points="364,35 369,30 370,30 370,40 369,40 364,35 " style="fill:white; stroke-width:1; stroke:black; " description="&lt;b&gt;MCIC6FC_021120&lt;/b&gt;&lt;br&gt;hypothetical protein&lt;br&gt;Location: 36683 - 38100" locus_tag="MCIC6FC_021120" class="clusterblast-orf" id="dummy-1_q4_0_all"  />
<polygon points="373,40 376,35 373,30 373,40 " style="fill:white; stroke-width:1; stroke:black; " description="&lt;b&gt;MCIC6FC_021121&lt;/b&gt;&lt;br&gt;hypothetical protein&lt;br&gt;Location: 38889 - 39534" locus_tag="MCIC6FC_021121" class="clusterblast-orf" id="dummy-1_q5_0_all"  />
<polygon points="376,35 381,30 403,30 403,40 381,40 376,35 " style="fill:#15d863; stroke-width:1; stroke:black; " description="&lt;b&gt;MCIC6FC_021122&lt;/b&gt;&lt;br&gt;hypothetical protein&lt;br&gt;Location: 39551 - 45681" locus_tag="MCIC6FC_021122" class="clusterblast-orf" id="dummy-1_q6_0_all"  />
<polygon points="409,40 426,40 431,35 426,30 409,30 409,40 " style="fill:#1563d8; stroke-width:1; stroke:black; " description="&lt;b&gt;MCIC6FC_021123&lt;/b&gt;&lt;br&gt;hypothetical protein&lt;br&gt;Location: 47121 - 52324" locus_tag="MCIC6FC_021123" class="clusterblast-orf" id="dummy-1_q7_0_all"  />
<polygon points="431,40 437,40 442,35 437,30 431,30 431,40 " style="fill:#b115d8; stroke-width:1; stroke:black; " description="&lt;b&gt;MCIC6FC_021124&lt;/b&gt;&lt;br&gt;hypothetical protein&lt;br&gt;Location: 52348 - 54739" locus_tag="MCIC6FC_021124" class="clusterblast-orf" id="dummy-1_q8_0_all"  />
<polygon points="442,35 446,30 446,40 442,35 " style="fill:#b1d815; stroke-width:1; stroke:black; " description="&lt;b&gt;MCIC6FC_021125&lt;/b&gt;&lt;br&gt;hypothetical protein&lt;br&gt;Location: 54748 - 55637" locus_tag="MCIC6FC_021125" class="clusterblast-orf" id="dummy-1_q9_0_all"  />
<polygon points="457,40 479,40 484,35 479,30 457,30 457,40 " style="fill:#15d863; stroke-width:1; stroke:black; " description="&lt;b&gt;MCIC6FC_021126&lt;/b&gt;&lt;br&gt;hypothetical protein&lt;br&gt;Location: 58292 - 64540" locus_tag="MCIC6FC_021126" class="clusterblast-orf" id="dummy-1_q10_0_all"  />
<polygon points="485,40 489,35 485,30 485,40 " style="fill:white; stroke-width:1; stroke:black; " description="&lt;b&gt;MCIC6FC_021127&lt;/b&gt;&lt;br&gt;hypothetical protein&lt;br&gt;Location: 64712 - 65655" locus_tag="MCIC6FC_021127" class="clusterblast-orf" id="dummy-1_q11_0_all"  />
</g>
<g label="NZ_CP009287" description="NZ_CP009287 (1769928-1950637): Paenibacillus graminis strain DSM 15220 chromo... (3% of genes show similarity), NRPS,T1PKS,transAT-PKS" class="clusterblast-cluster"  >
<text x="5" y="70" class="clusterblast-acc"  >
<a xlink:href="https://antismash-db.secondarymetabolites.org/area.html?record=NZ_CP009287&amp;start=1769928&amp;end=1950637" target="_blank">NZ_CP009287 (1769928-1950637)</a>: Paenibacillus graminis strain DSM 15220 chromo... (3% of genes show similarity), NRPS,T1PKS,transAT-PKS</text>
<line x1="10" y1="85" x2="778.0" y2="85" style="stroke-width:1; stroke:grey; "  />
</g>
<g id="a1_000"  >
<polygon points="0,90 2,90 7,85 2,80 0,80 0,90 " style="fill:white; stroke-width:1; stroke:black; " description="&lt;b&gt;PGRAT_RS07610&lt;/b&gt;&lt;br&gt;sensor histidine kinase&lt;br&gt;Location: 1769929 - 1771680" locus_tag="PGRAT_RS07610" class="clusterblast-orf" id="dummy-1_h1_2_0"  />
</g>
<g id="a1_001"  >
<polygon points="7,90 9,90 14,85 9,80 7,80 7,90 " style="fill:white; stroke-width:1; stroke:black; " description="&lt;b&gt;PGRAT_RS31135&lt;/b&gt;&lt;br&gt;response regulator&lt;br&gt;Location: 1771684 - 1773310" locus_tag="PGRAT_RS31135" class="clusterblast-orf" id="dummy-1_h1_2_1"  />
</g>
<g id="a1_002"  >
<polygon points="14,90 14,90 19,85 14,80 14,80 14,90 " style="fill:white; stroke-width:1; stroke:black; " description="&lt;b&gt;PGRAT_RS07620&lt;/b&gt;&lt;br&gt;sugar ABC transporter permease&lt;br&gt;Location: 1773386 - 1774348" locus_tag="PGRAT_RS07620" class="clusterblast-orf" id="dummy-1_h1_2_2"  />
</g>
<g id="a1_003"  >
<polygon points="19,90 22,85 19,80 19,90 " style="fill:white; stroke-width:1; stroke:black; " description="&lt;b&gt;PGRAT_RS07625&lt;/b&gt;&lt;br&gt;carbohydrate ABC transporter permease&lt;br&gt;Location: 1774361 - 1775239" locus_tag="PGRAT_RS07625" class="clusterblast-orf" id="dummy-1_h1_2_3"  />
</g>
<g id="a1_004"  >
<polygon points="23,90 25,90 30,85 25,80 23,80 23,90 " style="fill:white; stroke-width:1; stroke:black; " description="&lt;b&gt;PGRAT_RS07630&lt;/b&gt;&lt;br&gt;ABC transporter substrate-binding protein&lt;br&gt;Location: 1775322 - 1776881" locus_tag="PGRAT_RS07630" class="clusterblast-orf" id="dummy-1_h1_2_4"  />
</g>
<g id="a1_005"  >
<polygon points="30,90 32,90 37,85 32,80 30,80 30,90 " style="fill:white; stroke-width:1; stroke:black; " description="&lt;b&gt;PGRAT_RS07635&lt;/b&gt;&lt;br&gt;hypothetical protein&lt;br&gt;Location: 1776943 - 1778661" locus_tag="PGRAT_RS07635" class="clusterblast-orf" id="dummy-1_h1_2_5"  />
</g>
<g id="a1_006"  >
<polygon points="37,90 39,90 44,85 39,80 37,80 37,90 " style="fill:white; stroke-width:1; stroke:black; " description="&lt;b&gt;PGRAT_RS07640&lt;/b&gt;&lt;br&gt;alpha-glucosidase&lt;br&gt;Location: 1778680 - 1780311" locus_tag="PGRAT_RS07640" class="clusterblast-orf" id="dummy-1_h1_2_6"  />
</g>
<g id="a1_007"  >
<polygon points="45,90 48,85 45,80 45,90 " style="fill:white; stroke-width:1; stroke:black; " description="&lt;b&gt;PGRAT_RS07645&lt;/b&gt;&lt;br&gt;membrane protein&lt;br&gt;Location: 1780501 - 1781145" locus_tag="PGRAT_RS07645" class="clusterblast-orf" id="dummy-1_h1_2_7"  />
</g>
<g id="a1_008"  >
<polygon points="48,85 53,80 53,80 53,90 53,90 48,85 " style="fill:white; stroke-width:1; stroke:black; " description="&lt;b&gt;PGRAT_RS07650&lt;/b&gt;&lt;br&gt;HAMP domain-containing protein&lt;br&gt;Location: 1781188 - 1782222" locus_tag="PGRAT_RS07650" class="clusterblast-orf" id="dummy-1_h1_2_8"  />
</g>
<g id="a1_009"  >
<polygon points="53,85 56,80 56,90 53,85 " style="fill:white; stroke-width:1; stroke:black; " description="&lt;b&gt;PGRAT_RS07655&lt;/b&gt;&lt;br&gt;response regulator transcription factor&lt;br&gt;Location: 1782278 - 1782958" locus_tag="PGRAT_RS07655" class="clusterblast-orf" id="dummy-1_h1_2_9"  />
</g>
<g id="a1_0010"  >
<polygon points="56,85 57,80 57,90 56,85 " style="fill:white; stroke-width:1; stroke:black; " description="&lt;b&gt;PGRAT_RS07660&lt;/b&gt;&lt;br&gt;hypothetical protein&lt;br&gt;Location: 1782978 - 1783310" locus_tag="PGRAT_RS07660" class="clusterblast-orf" id="dummy-1_h1_2_10"  />
</g>
<g id="a1_0011"  >
<polygon points="57,85 60,80 60,90 57,85 " style="fill:white; stroke-width:1; stroke:black; " description="&lt;b&gt;PGRAT_RS07665&lt;/b&gt;&lt;br&gt;DedA family protein&lt;br&gt;Location: 1783340 - 1783843" locus_tag="PGRAT_RS07665" class="clusterblast-orf" id="dummy-1_h1_2_11"  />
</g>
<g id="a1_0012"  >
<polygon points="61,90 62,90 67,85 62,80 61,80 61,90 " style="fill:white; stroke-width:1; stroke:black; " description="&lt;b&gt;PGRAT_RS07670&lt;/b&gt;&lt;br&gt;dienelactone hydrolase&lt;br&gt;Location: 1784084 - 1785607" locus_tag="PGRAT_RS07670" class="clusterblast-orf" id="dummy-1_h1_2_12"  />
</g>
<g id="a1_0013"  >
<polygon points="67,85 72,80 73,80 73,90 72,90 67,85 " style="fill:white; stroke-width:1; stroke:black; " description="&lt;b&gt;PGRAT_RS07675&lt;/b&gt;&lt;br&gt;glycoside hydrolase family 27 protein&lt;br&gt;Location: 1785673 - 1786953" locus_tag="PGRAT_RS07675" class="clusterblast-orf" id="dummy-1_h1_2_13"  />
</g>
<g id="a1_0014"  >
<polygon points="74,90 78,85 74,80 74,90 " style="fill:white; stroke-width:1; stroke:black; " description="&lt;b&gt;PGRAT_RS07680&lt;/b&gt;&lt;br&gt;SGNH/GDSL hydrolase family protein&lt;br&gt;Location: 1787150 - 1788220" locus_tag="PGRAT_RS07680" class="clusterblast-orf" id="dummy-1_h1_2_14"  />
</g>
<g id="a1_0015"  >
<polygon points="82,90 96,90 101,85 96,80 82,80 82,90 " style="fill:white; stroke-width:1; stroke:black; " description="&lt;b&gt;PGRAT_RS07685&lt;/b&gt;&lt;br&gt;non-ribosomal peptide synthetase&lt;br&gt;Location: 1789003 - 1793511" locus_tag="PGRAT_RS07685" class="clusterblast-orf" id="dummy-1_h1_2_15"  />
</g>
<g id="a1_0016"  >
<polygon points="101,90 110,90 115,85 110,80 101,80 101,90 " style="fill:white; stroke-width:1; stroke:black; " description="&lt;b&gt;PGRAT_RS07690&lt;/b&gt;&lt;br&gt;cyclic peptide export ABC transporter&lt;br&gt;Location: 1793542 - 1796652" locus_tag="PGRAT_RS07690" class="clusterblast-orf" id="dummy-1_h1_2_16"  />
</g>
<g id="a1_0017"  >
<polygon points="115,90 119,85 115,80 115,90 " style="fill:white; stroke-width:1; stroke:black; " description="&lt;b&gt;PGRAT_RS07695&lt;/b&gt;&lt;br&gt;NAD(P)-binding domain-containing protein&lt;br&gt;Location: 1796774 - 1797655" locus_tag="PGRAT_RS07695" class="clusterblast-orf" id="dummy-1_h1_2_17"  />
</g>
<g id="a1_0018"  >
<polygon points="119,90 119,90 124,85 119,80 119,80 119,90 " style="fill:white; stroke-width:1; stroke:black; " description="&lt;b&gt;PGRAT_RS07700&lt;/b&gt;&lt;br&gt;HAD-IIIC family phosphatase&lt;br&gt;Location: 1797692 - 1798726" locus_tag="PGRAT_RS07700" class="clusterblast-orf" id="dummy-1_h1_2_18"  />
</g>
<g id="a1_0019"  >
<polygon points="124,90 125,85 124,80 124,90 " style="fill:white; stroke-width:1; stroke:black; " description="&lt;b&gt;PGRAT_RS07705&lt;/b&gt;&lt;br&gt;acyl carrier protein&lt;br&gt;Location: 1798766 - 1799017" locus_tag="PGRAT_RS07705" class="clusterblast-orf" id="dummy-1_h1_2_19"  />
</g>
<g id="a1_0020"  >
<polygon points="125,90 128,85 125,80 125,90 " style="fill:white; stroke-width:1; stroke:black; " description="&lt;b&gt;PGRAT_RS07710&lt;/b&gt;&lt;br&gt;class I SAM-dependent methyltransferase&lt;br&gt;Location: 1799081 - 1799722" locus_tag="PGRAT_RS07710" class="clusterblast-orf" id="dummy-1_h1_2_20"  />
</g>
<g id="a1_0021"  >
<polygon points="128,90 128,90 133,85 128,80 128,80 128,90 " style="fill:white; stroke-width:1; stroke:black; " description="&lt;b&gt;PGRAT_RS07715&lt;/b&gt;&lt;br&gt;acyl-CoA dehydrogenase family protein&lt;br&gt;Location: 1799773 - 1800939" locus_tag="PGRAT_RS07715" class="clusterblast-orf" id="dummy-1_h1_2_21"  />
</g>
<g id="a1_0022"  >
<polygon points="133,90 182,90 187,85 182,80 133,80 133,90 " style="fill:white; stroke-width:1; stroke:black; " description="&lt;b&gt;PGRAT_RS07720&lt;/b&gt;&lt;br&gt;hybrid non-ribosomal peptide synthetase/type I polyketide synthase&lt;br&gt;Location: 1800936 - 1813475" locus_tag="PGRAT_RS07720" class="clusterblast-orf" id="dummy-1_h1_2_22"  />
</g>
<g id="a1_0023"  >
<polygon points="187,90 203,90 208,85 203,80 187,80 187,90 " style="fill:white; stroke-width:1; stroke:black; " description="&lt;b&gt;PGRAT_RS07725&lt;/b&gt;&lt;br&gt;type I polyketide synthase&lt;br&gt;Location: 1813468 - 1818138" locus_tag="PGRAT_RS07725" class="clusterblast-orf" id="dummy-1_h1_2_23"  />
</g>
<g id="a1_0024"  >
<polygon points="208,90 211,85 208,80 208,90 " style="fill:white; stroke-width:1; stroke:black; " description="&lt;b&gt;PGRAT_RS07730&lt;/b&gt;&lt;br&gt;histidine phosphatase family protein&lt;br&gt;Location: 1818153 - 1818863" locus_tag="PGRAT_RS07730" class="clusterblast-orf" id="dummy-1_h1_2_24"  />
</g>
<g id="a1_0025"  >
<polygon points="211,90 213,90 218,85 213,80 211,80 211,90 " style="fill:white; stroke-width:1; stroke:black; " description="&lt;b&gt;PGRAT_RS07735&lt;/b&gt;&lt;br&gt;hypothetical protein&lt;br&gt;Location: 1818894 - 1820480" locus_tag="PGRAT_RS07735" class="clusterblast-orf" id="dummy-1_h1_2_25"  />
</g>
<g id="a1_0026"  >
<polygon points="218,90 241,90 246,85 241,80 218,80 218,90 " style="fill:white; stroke-width:1; stroke:black; " description="&lt;b&gt;PGRAT_RS07740&lt;/b&gt;&lt;br&gt;SDR family NAD(P)-dependent oxidoreductase&lt;br&gt;Location: 1820538 - 1827089" locus_tag="PGRAT_RS07740" class="clusterblast-orf" id="dummy-1_h1_2_26"  />
</g>
<g id="a1_0027"  >
<polygon points="246,90 253,90 258,85 253,80 246,80 246,90 " style="fill:white; stroke-width:1; stroke:black; " description="&lt;b&gt;PGRAT_RS07745&lt;/b&gt;&lt;br&gt;non-ribosomal peptide synthetase&lt;br&gt;Location: 1827122 - 1829773" locus_tag="PGRAT_RS07745" class="clusterblast-orf" id="dummy-1_h1_2_27"  />
</g>
<g id="a1_0028"  >
<polygon points="258,90 298,90 303,85 298,80 258,80 258,90 " style="fill:white; stroke-width:1; stroke:black; " description="&lt;b&gt;PGRAT_RS07750&lt;/b&gt;&lt;br&gt;non-ribosomal peptide synthetase&lt;br&gt;Location: 1829784 - 1840295" locus_tag="PGRAT_RS07750" class="clusterblast-orf" id="dummy-1_h1_2_28"  />
</g>
<g id="a1_0029"  >
<polygon points="303,90 307,85 303,80 303,90 " style="fill:white; stroke-width:1; stroke:black; " description="&lt;b&gt;PGRAT_RS07755&lt;/b&gt;&lt;br&gt;transglutaminase domain-containing protein&lt;br&gt;Location: 1840288 - 1841100" locus_tag="PGRAT_RS07755" class="clusterblast-orf" id="dummy-1_h1_2_29"  />
</g>
<g id="a1_0030"  >
<polygon points="307,90 335,90 340,85 335,80 307,80 307,90 " style="fill:white; stroke-width:1; stroke:black; " description="&lt;b&gt;PGRAT_RS07760&lt;/b&gt;&lt;br&gt;SDR family NAD(P)-dependent oxidoreductase&lt;br&gt;Location: 1841138 - 1848799" locus_tag="PGRAT_RS07760" class="clusterblast-orf" id="dummy-1_h1_2_30"  />
</g>
<g id="a1_0031"  >
<polygon points="340,90 365,90 370,85 365,80 340,80 340,90 " style="fill:white; stroke-width:1; stroke:black; " description="&lt;b&gt;PGRAT_RS07765&lt;/b&gt;&lt;br&gt;non-ribosomal peptide synthetase&lt;br&gt;Location: 1848792 - 1855766" locus_tag="PGRAT_RS07765" class="clusterblast-orf" id="dummy-1_h1_2_31"  />
</g>
<g id="a1_0032"  >
<polygon points="370,90 383,90 388,85 383,80 370,80 370,90 " style="fill:white; stroke-width:1; stroke:black; " description="&lt;b&gt;PGRAT_RS07770&lt;/b&gt;&lt;br&gt;6-deoxyerythronolide-B synthase&lt;br&gt;Location: 1855789 - 1860042" locus_tag="PGRAT_RS07770" class="clusterblast-orf" id="dummy-1_h1_2_32"  />
</g>
<g id="a1_0033"  >
<polygon points="388,90 390,85 388,80 388,90 " style="fill:white; stroke-width:1; stroke:black; " description="&lt;b&gt;PGRAT_RS07775&lt;/b&gt;&lt;br&gt;3-dehydroquinate dehydratase&lt;br&gt;Location: 1860039 - 1860488" locus_tag="PGRAT_RS07775" class="clusterblast-orf" id="dummy-1_h1_2_33"  />
</g>
<g id="a1_0034"  >
<polygon points="390,90 396,90 401,85 396,80 390,80 390,90 " style="fill:white; stroke-width:1; stroke:black; " description="&lt;b&gt;PGRAT_RS07780&lt;/b&gt;&lt;br&gt;excinuclease ABC subunit A&lt;br&gt;Location: 1860506 - 1862923" locus_tag="PGRAT_RS07780" class="clusterblast-orf" id="dummy-1_h1_2_34"  />
</g>
<g id="a1_0035"  >
<polygon points="401,90 401,90 406,85 401,80 401,80 401,90 " style="fill:white; stroke-width:1; stroke:black; " description="&lt;b&gt;PGRAT_RS07785&lt;/b&gt;&lt;br&gt;hypothetical protein&lt;br&gt;Location: 1862970 - 1863998" locus_tag="PGRAT_RS07785" class="clusterblast-orf" id="dummy-1_h1_2_35"  />
</g>
<g id="a1_0036"  >
<polygon points="406,90 407,85 406,80 406,90 " style="fill:white; stroke-width:1; stroke:black; " description="&lt;b&gt;PGRAT_RS07790&lt;/b&gt;&lt;br&gt;acyl carrier protein&lt;br&gt;Location: 1864065 - 1864355" locus_tag="PGRAT_RS07790" class="clusterblast-orf" id="dummy-1_h1_2_36"  />
</g>
<g id="a1_0037"  >
<polygon points="409,90 412,85 409,80 409,90 " style="fill:white; stroke-width:1; stroke:black; " description="&lt;b&gt;PGRAT_RS07795&lt;/b&gt;&lt;br&gt;thioesterase&lt;br&gt;Location: 1864770 - 1865492" locus_tag="PGRAT_RS07795" class="clusterblast-orf" id="dummy-1_h1_2_37"  />
</g>
<g id="a1_0038"  >
<polygon points="413,90 444,90 449,85 444,80 413,80 413,90 " style="fill:white; stroke-width:1; stroke:black; " description="&lt;b&gt;PGRAT_RS07800&lt;/b&gt;&lt;br&gt;SDR family NAD(P)-dependent oxidoreductase&lt;br&gt;Location: 1865680 - 1874085" locus_tag="PGRAT_RS07800" class="clusterblast-orf" id="dummy-1_h1_2_38"  />
</g>
<g id="a1_0039"  >
<polygon points="449,90 452,85 449,80 449,90 " style="fill:white; stroke-width:1; stroke:black; " description="&lt;b&gt;PGRAT_RS07805&lt;/b&gt;&lt;br&gt;HAD family hydrolase&lt;br&gt;Location: 1874078 - 1874734" locus_tag="PGRAT_RS07805" class="clusterblast-orf" id="dummy-1_h1_2_39"  />
</g>
<g id="a1_0040"  >
<polygon points="452,90 466,90 471,85 466,80 452,80 452,90 " style="fill:white; stroke-width:1; stroke:black; " description="&lt;b&gt;PGRAT_RS31510&lt;/b&gt;&lt;br&gt;SDR family NAD(P)-dependent oxidoreductase&lt;br&gt;Location: 1874771 - 1879051" locus_tag="PGRAT_RS31510" class="clusterblast-orf" id="dummy-1_h1_2_40"  />
</g>
<g id="a1_0041"  >
<polygon points="470,90 501,90 506,85 501,80 470,80 470,90 " style="fill:white; stroke-width:1; stroke:black; " description="&lt;b&gt;PGRAT_RS07815&lt;/b&gt;&lt;br&gt;hybrid non-ribosomal peptide synthetase/type I polyketide synthase&lt;br&gt;Location: 1879044 - 1887299" locus_tag="PGRAT_RS07815" class="clusterblast-orf" id="dummy-1_h1_2_41"  />
</g>
<g id="a1_0042"  >
<polygon points="506,90 507,90 512,85 507,80 506,80 506,90 " style="fill:white; stroke-width:1; stroke:black; " description="&lt;b&gt;PGRAT_RS07820&lt;/b&gt;&lt;br&gt;ACP S-malonyltransferase&lt;br&gt;Location: 1887372 - 1888649" locus_tag="PGRAT_RS07820" class="clusterblast-orf" id="dummy-1_h1_2_42"  />
</g>
<g id="a1_0043"  >
<polygon points="512,90 527,90 532,85 527,80 512,80 512,90 " style="fill:white; stroke-width:1; stroke:black; " description="&lt;b&gt;PGRAT_RS31515&lt;/b&gt;&lt;br&gt;SDR family NAD(P)-dependent oxidoreductase&lt;br&gt;Location: 1888639 - 1893384" locus_tag="PGRAT_RS31515" class="clusterblast-orf" id="dummy-1_h1_2_43"  />
</g>
<g id="a1_0044"  >
<polygon points="532,90 548,90 553,85 548,80 532,80 532,90 " style="fill:white; stroke-width:1; stroke:black; " description="&lt;b&gt;PGRAT_RS07830&lt;/b&gt;&lt;br&gt;SDR family oxidoreductase&lt;br&gt;Location: 1893381 - 1898174" locus_tag="PGRAT_RS07830" class="clusterblast-orf" id="dummy-1_h1_2_44"  />
</g>
<g id="a1_0045"  >
<polygon points="553,90 582,90 587,85 582,80 553,80 553,90 " style="fill:white; stroke-width:1; stroke:black; " description="&lt;b&gt;PGRAT_RS07835&lt;/b&gt;&lt;br&gt;non-ribosomal peptide synthetase&lt;br&gt;Location: 1898167 - 1906131" locus_tag="PGRAT_RS07835" class="clusterblast-orf" id="dummy-1_h1_2_45"  />
</g>
<g id="a1_0046"  >
<polygon points="587,90 603,90 608,85 603,80 587,80 587,90 " style="fill:white; stroke-width:1; stroke:black; " description="&lt;b&gt;PGRAT_RS07840&lt;/b&gt;&lt;br&gt;KR domain-containing protein&lt;br&gt;Location: 1906136 - 1910809" locus_tag="PGRAT_RS07840" class="clusterblast-orf" id="dummy-1_h1_2_46"  />
</g>
<g id="a1_0047"  >
<polygon points="608,90 623,90 628,85 623,80 608,80 608,90 " style="fill:white; stroke-width:1; stroke:black; " description="&lt;b&gt;PGRAT_RS07845&lt;/b&gt;&lt;br&gt;KR domain-containing protein&lt;br&gt;Location: 1910806 - 1915512" locus_tag="PGRAT_RS07845" class="clusterblast-orf" id="dummy-1_h1_2_47"  />
</g>
<g id="a1_0048"  >
<polygon points="628,90 628,90 633,85 628,80 628,80 628,90 " style="fill:white; stroke-width:1; stroke:black; " description="&lt;b&gt;PGRAT_RS07850&lt;/b&gt;&lt;br&gt;hypothetical protein&lt;br&gt;Location: 1915547 - 1916638" locus_tag="PGRAT_RS07850" class="clusterblast-orf" id="dummy-1_h1_2_48"  />
</g>
<g id="a1_0049"  >
<polygon points="633,90 633,90 638,85 633,80 633,80 633,90 " style="fill:white; stroke-width:1; stroke:black; " description="&lt;b&gt;PGRAT_RS07855&lt;/b&gt;&lt;br&gt;Gfo/Idh/MocA family oxidoreductase&lt;br&gt;Location: 1916692 - 1917774" locus_tag="PGRAT_RS07855" class="clusterblast-orf" id="dummy-1_h1_2_49"  />
</g>
<g id="a1_0050"  >
<polygon points="638,90 642,85 638,80 638,90 " style="fill:white; stroke-width:1; stroke:black; " description="&lt;b&gt;PGRAT_RS31520&lt;/b&gt;&lt;br&gt;ROK family protein&lt;br&gt;Location: 1917771 - 1918719" locus_tag="PGRAT_RS31520" class="clusterblast-orf" id="dummy-1_h1_2_50"  />
</g>
<g id="a1_0051"  >
<polygon points="642,90 642,90 647,85 642,80 642,80 642,90 " style="fill:#1563d8; stroke-width:1; stroke:black; " description="&lt;b&gt;PGRAT_RS07865&lt;/b&gt;&lt;br&gt;DegT/DnrJ/EryC1/StrS family aminotransferase&lt;br&gt;Location: 1918712 - 1919893&lt;br&gt;&lt;br&gt;&lt;b&gt;BlastP hit with MCIC6FC_021123&lt;/b&gt;&lt;br&gt;Percentage identity: 31&lt;br&gt;Percentage coverage: 26&lt;br&gt;BLAST bit score: 161&lt;br&gt;E-value: 5.1e-37" locus_tag="PGRAT_RS07865" class="clusterblast-orf" id="dummy-1_h1_2_51"  />
</g>
<g id="a1_0052"  >
<polygon points="647,90 660,90 665,85 660,80 647,80 647,90 " style="fill:#15d863; stroke-width:1; stroke:black; " description="&lt;b&gt;PGRAT_RS07870&lt;/b&gt;&lt;br&gt;non-ribosomal peptide synthetase&lt;br&gt;Location: 1919919 - 1924214&lt;br&gt;&lt;br&gt;&lt;b&gt;BlastP hit with MCIC6FC_021122&lt;/b&gt;&lt;br&gt;Percentage identity: 32&lt;br&gt;Percentage coverage: 31&lt;br&gt;BLAST bit score: 255&lt;br&gt;E-value: 4.3e-65" locus_tag="PGRAT_RS07870" class="clusterblast-orf" id="dummy-1_h1_2_52"  />
</g>
<g id="a1_0053"  >
<polygon points="666,90 697,90 702,85 697,80 666,80 666,90 " style="fill:white; stroke-width:1; stroke:black; " description="&lt;b&gt;PGRAT_RS07875&lt;/b&gt;&lt;br&gt;non-ribosomal peptide synthetase&lt;br&gt;Location: 1924258 - 1932696" locus_tag="PGRAT_RS07875" class="clusterblast-orf" id="dummy-1_h1_2_53"  />
</g>
<g id="a1_0054"  >
<polygon points="702,90 705,85 702,80 702,90 " style="fill:white; stroke-width:1; stroke:black; " description="&lt;b&gt;PGRAT_RS07880&lt;/b&gt;&lt;br&gt;GNAT family N-acetyltransferase&lt;br&gt;Location: 1932710 - 1933288" locus_tag="PGRAT_RS07880" class="clusterblast-orf" id="dummy-1_h1_2_54"  />
</g>
<g id="a1_0055"  >
<polygon points="705,85 707,80 707,90 705,85 " style="fill:white; stroke-width:1; stroke:black; " description="&lt;b&gt;PGRAT_RS07885&lt;/b&gt;&lt;br&gt;4'-phosphopantetheinyl transferase superfamily protein&lt;br&gt;Location: 1933344 - 1933907" locus_tag="PGRAT_RS07885" class="clusterblast-orf" id="dummy-1_h1_2_55"  />
</g>
<g id="a1_0056"  >
<polygon points="708,85 711,80 711,90 708,85 " style="fill:white; stroke-width:1; stroke:black; " description="&lt;b&gt;PGRAT_RS07890&lt;/b&gt;&lt;br&gt;antiterminator LoaP&lt;br&gt;Location: 1934146 - 1934754" locus_tag="PGRAT_RS07890" class="clusterblast-orf" id="dummy-1_h1_2_56"  />
</g>
<g id="a1_0057"  >
<polygon points="712,90 712,90 717,85 712,80 712,80 712,90 " style="fill:white; stroke-width:1; stroke:black; " description="&lt;b&gt;PGRAT_RS07895&lt;/b&gt;&lt;br&gt;hypothetical protein&lt;br&gt;Location: 1935042 - 1936070" locus_tag="PGRAT_RS07895" class="clusterblast-orf" id="dummy-1_h1_2_57"  />
</g>
<g id="a1_0058"  >
<polygon points="717,85 722,80 733,80 733,90 722,90 717,85 " style="fill:white; stroke-width:1; stroke:black; " description="&lt;b&gt;PGRAT_RS31140&lt;/b&gt;&lt;br&gt;S-layer homology domain-containing protein&lt;br&gt;Location: 1936175 - 1939762" locus_tag="PGRAT_RS31140" class="clusterblast-orf" id="dummy-1_h1_2_58"  />
</g>
<g id="a1_0059"  >
<polygon points="734,85 738,80 738,90 734,85 " style="fill:white; stroke-width:1; stroke:black; " description="&lt;b&gt;PGRAT_RS07905&lt;/b&gt;&lt;br&gt;AraC family transcriptional regulator&lt;br&gt;Location: 1940123 - 1941019" locus_tag="PGRAT_RS07905" class="clusterblast-orf" id="dummy-1_h1_2_59"  />
</g>
<g id="a1_0060"  >
<polygon points="739,90 743,90 748,85 743,80 739,80 739,90 " style="fill:white; stroke-width:1; stroke:black; " description="&lt;b&gt;PGRAT_RS07910&lt;/b&gt;&lt;br&gt;alpha-galactosidase&lt;br&gt;Location: 1941223 - 1943406" locus_tag="PGRAT_RS07910" class="clusterblast-orf" id="dummy-1_h1_2_60"  />
</g>
<g id="a1_0061"  >
<polygon points="749,90 751,90 756,85 751,80 749,80 749,90 " style="fill:white; stroke-width:1; stroke:black; " description="&lt;b&gt;PGRAT_RS07915&lt;/b&gt;&lt;br&gt;sensor histidine kinase&lt;br&gt;Location: 1943523 - 1945307" locus_tag="PGRAT_RS07915" class="clusterblast-orf" id="dummy-1_h1_2_61"  />
</g>
<g id="a1_0062"  >
<polygon points="756,90 758,90 763,85 758,80 756,80 756,90 " style="fill:white; stroke-width:1; stroke:black; " description="&lt;b&gt;PGRAT_RS07920&lt;/b&gt;&lt;br&gt;response regulator transcription factor&lt;br&gt;Location: 1945300 - 1946850" locus_tag="PGRAT_RS07920" class="clusterblast-orf" id="dummy-1_h1_2_62"  />
</g>
<g id="a1_0063"  >
<polygon points="764,90 768,85 764,80 764,90 " style="fill:white; stroke-width:1; stroke:black; " description="&lt;b&gt;PGRAT_RS07925&lt;/b&gt;&lt;br&gt;sugar ABC transporter permease&lt;br&gt;Location: 1946936 - 1947892" locus_tag="PGRAT_RS07925" class="clusterblast-orf" id="dummy-1_h1_2_63"  />
</g>
<g id="a1_0064"  >
<polygon points="768,90 772,85 768,80 768,90 " style="fill:white; stroke-width:1; stroke:black; " description="&lt;b&gt;PGRAT_RS07930&lt;/b&gt;&lt;br&gt;carbohydrate ABC transporter permease&lt;br&gt;Location: 1947907 - 1948845" locus_tag="PGRAT_RS07930" class="clusterblast-orf" id="dummy-1_h1_2_64"  />
</g>
<g id="a1_0065"  >
<polygon points="772,90 775,90 780,85 775,80 772,80 772,90 " style="fill:white; stroke-width:1; stroke:black; " description="&lt;b&gt;PGRAT_RS07935&lt;/b&gt;&lt;br&gt;extracellular solute-binding protein&lt;br&gt;Location: 1948931 - 1950637" locus_tag="PGRAT_RS07935" class="clusterblast-orf" id="dummy-1_h1_2_65"  />
</g>
</svg>
