<svg xmlns="http://www.w3.org/2000/svg" xmlns:xlink="http://www.w3.org/1999/xlink" version="1.1" x="0" y="0" height="230" width="800" viewBox="0 0 800 230" preserveAspectRatio="none"  >
<g label="Query sequence" class="clusterblast-cluster"  >
<text x="5" y="20" class="clusterblast-acc"  >
Query sequence</text>
<line x1="10" y1="35" x2="778.0" y2="35" style="stroke-width:1; stroke:grey; "  />
<polygon points="4,35 9,30 333,30 333,40 9,40 4,35 " style="fill:#d81515; stroke-width:1; stroke:black; " description="&lt;b&gt;MCIC6FC_022474&lt;/b&gt;&lt;br&gt;hypothetical protein&lt;br&gt;Location: 2882 - 7006" locus_tag="MCIC6FC_022474" class="clusterblast-orf" id="dummy-1_q0_0_all"  />
<polygon points="361,40 511,40 516,35 511,30 361,30 361,40 " style="fill:#15d863; stroke-width:1; stroke:black; " description="&lt;b&gt;MCIC6FC_022475&lt;/b&gt;&lt;br&gt;hypothetical protein&lt;br&gt;Location: 7354 - 9298" locus_tag="MCIC6FC_022475" class="clusterblast-orf" id="dummy-1_q1_0_all"  />
<polygon points="523,40 613,40 618,35 613,30 523,30 523,40 " style="fill:#1563d8; stroke-width:1; stroke:black; " description="&lt;b&gt;MCIC6FC_022476&lt;/b&gt;&lt;br&gt;hypothetical protein&lt;br&gt;Location: 9385 - 10570" locus_tag="MCIC6FC_022476" class="clusterblast-orf" id="dummy-1_q2_0_all"  />
<polygon points="629,35 634,30 744,30 744,40 634,40 629,35 " style="fill:#b115d8; stroke-width:1; stroke:black; " description="&lt;b&gt;MCIC6FC_022477&lt;/b&gt;&lt;br&gt;hypothetical protein&lt;br&gt;Location: 10703 - 12143" locus_tag="MCIC6FC_022477" class="clusterblast-orf" id="dummy-1_q3_0_all"  />
<polygon points="756,40 772,40 777,35 772,30 756,30 756,40 " style="fill:#b1d815; stroke-width:1; stroke:black; " description="&lt;b&gt;MCIC6FC_022478&lt;/b&gt;&lt;br&gt;hypothetical protein&lt;br&gt;Location: 12300 - 12555" locus_tag="MCIC6FC_022478" class="clusterblast-orf" id="dummy-1_q4_0_all"  />
</g>
<g label="NZ_CP008896" description="NZ_CP008896 (3787911-3797672): Pseudomonas fluorescens strain UK4 chromosome,... (90% of genes show similarity), bacteriocin" class="clusterblast-cluster"  >
<text x="5" y="70" class="clusterblast-acc"  >
<a xlink:href="https://antismash-db.secondarymetabolites.org/area.html?record=NZ_CP008896&amp;start=3787911&amp;end=3797672" target="_blank">NZ_CP008896 (3787911-3797672)</a>: Pseudomonas fluorescens strain UK4 chromosome,... (90% of genes show similarity), bacteriocin</text>
<line x1="10" y1="85" x2="778.0" y2="85" style="stroke-width:1; stroke:grey; "  />
</g>
<g id="a1_000"  >
<polygon points="0,85 5,80 35,80 35,90 5,90 0,85 " style="fill:#d81515; stroke-width:1; stroke:black; " description="&lt;b&gt;HZ99_RS17070&lt;/b&gt;&lt;br&gt;hypothetical protein&lt;br&gt;Location: 3797672 - 3797229&lt;br&gt;&lt;br&gt;&lt;b&gt;BlastP hit with MCIC6FC_022474&lt;/b&gt;&lt;br&gt;Percentage identity: 86&lt;br&gt;Percentage coverage: 11&lt;br&gt;BLAST bit score: 225&lt;br&gt;E-value: 2.5e-56" locus_tag="HZ99_RS17070" class="clusterblast-orf" id="dummy-1_h1_5_0"  />
</g>
<g id="a1_001"  >
<polygon points="34,85 39,80 138,80 138,90 39,90 34,85 " style="fill:#d81515; stroke-width:1; stroke:black; " description="&lt;b&gt;HZ99_RS17065&lt;/b&gt;&lt;br&gt;phosphatase PAP2/dual specificity phosphatase family protein&lt;br&gt;Location: 3797239 - 3795941&lt;br&gt;&lt;br&gt;&lt;b&gt;BlastP hit with MCIC6FC_022474&lt;/b&gt;&lt;br&gt;Percentage identity: 83&lt;br&gt;Percentage coverage: 32&lt;br&gt;BLAST bit score: 762&lt;br&gt;E-value: 5.7e-218" locus_tag="HZ99_RS17065" class="clusterblast-orf" id="dummy-1_h1_5_1"  />
</g>
<g id="a1_002"  >
<polygon points="138,85 143,80 278,80 278,90 143,90 138,85 " style="fill:#d81515; stroke-width:1; stroke:black; " description="&lt;b&gt;HZ99_RS17060&lt;/b&gt;&lt;br&gt;bifunctional alpha/beta hydrolase/class I SAM-dependent methyltransferase&lt;br&gt;Location: 3795938 - 3794184&lt;br&gt;&lt;br&gt;&lt;b&gt;BlastP hit with MCIC6FC_022474&lt;/b&gt;&lt;br&gt;Percentage identity: 87&lt;br&gt;Percentage coverage: 43&lt;br&gt;BLAST bit score: 962&lt;br&gt;E-value: 4.9e-278" locus_tag="HZ99_RS17060" class="clusterblast-orf" id="dummy-1_h1_5_2"  />
</g>
<g id="a1_003"  >
<polygon points="279,85 284,80 329,80 329,90 284,90 279,85 " style="fill:#d81515; stroke-width:1; stroke:black; " description="&lt;b&gt;HZ99_RS17055&lt;/b&gt;&lt;br&gt;CDP-alcohol phosphatidyltransferase family protein&lt;br&gt;Location: 3794173 - 3793550&lt;br&gt;&lt;br&gt;&lt;b&gt;BlastP hit with MCIC6FC_022474&lt;/b&gt;&lt;br&gt;Percentage identity: 96&lt;br&gt;Percentage coverage: 15&lt;br&gt;BLAST bit score: 354&lt;br&gt;E-value: 3.6e-95" locus_tag="HZ99_RS17055" class="clusterblast-orf" id="dummy-1_h1_5_3"  />
</g>
<g id="a1_004"  >
<polygon points="351,90 366,90 371,85 366,80 351,80 351,90 " style="fill:white; stroke-width:1; stroke:black; " description="&lt;b&gt;HZ99_RS17050&lt;/b&gt;&lt;br&gt;membrane protein&lt;br&gt;Location: 3793276 - 3793022" locus_tag="HZ99_RS17050" class="clusterblast-orf" id="dummy-1_h1_5_4"  />
</g>
<g id="a1_005"  >
<polygon points="376,90 439,90 444,85 439,80 376,80 376,90 " style="fill:#15d863; stroke-width:1; stroke:black; " description="&lt;b&gt;HZ99_RS17045&lt;/b&gt;&lt;br&gt;DUF692 domain-containing protein&lt;br&gt;Location: 3792959 - 3792114&lt;br&gt;&lt;br&gt;&lt;b&gt;BlastP hit with MCIC6FC_022475&lt;/b&gt;&lt;br&gt;Percentage identity: 89&lt;br&gt;Percentage coverage: 39&lt;br&gt;BLAST bit score: 463&lt;br&gt;E-value: 3.4e-128" locus_tag="HZ99_RS17045" class="clusterblast-orf" id="dummy-1_h1_5_5"  />
</g>
<g id="a1_006"  >
<polygon points="443,90 500,90 505,85 500,80 443,80 443,90 " style="fill:#15d863; stroke-width:1; stroke:black; " description="&lt;b&gt;HZ99_RS17040&lt;/b&gt;&lt;br&gt;DUF2063 domain-containing protein&lt;br&gt;Location: 3792123 - 3791341&lt;br&gt;&lt;br&gt;&lt;b&gt;BlastP hit with MCIC6FC_022475&lt;/b&gt;&lt;br&gt;Percentage identity: 70&lt;br&gt;Percentage coverage: 42&lt;br&gt;BLAST bit score: 382&lt;br&gt;E-value: 9.9e-104" locus_tag="HZ99_RS17040" class="clusterblast-orf" id="dummy-1_h1_5_6"  />
</g>
<g id="a1_007"  >
<polygon points="512,90 602,90 607,85 602,80 512,80 512,90 " style="fill:#1563d8; stroke-width:1; stroke:black; " description="&lt;b&gt;HZ99_RS17035&lt;/b&gt;&lt;br&gt;methyltransferase domain-containing protein&lt;br&gt;Location: 3791255 - 3790071&lt;br&gt;&lt;br&gt;&lt;b&gt;BlastP hit with MCIC6FC_022476&lt;/b&gt;&lt;br&gt;Percentage identity: 93&lt;br&gt;Percentage coverage: 100&lt;br&gt;BLAST bit score: 766&lt;br&gt;E-value: 1.6e-219" locus_tag="HZ99_RS17035" class="clusterblast-orf" id="dummy-1_h1_5_7"  />
</g>
<g id="a1_008"  >
<polygon points="612,85 617,80 727,80 727,90 617,90 612,85 " style="fill:#b115d8; stroke-width:1; stroke:black; " description="&lt;b&gt;HZ99_RS17030&lt;/b&gt;&lt;br&gt;cardiolipin synthase&lt;br&gt;Location: 3790003 - 3788564&lt;br&gt;&lt;br&gt;&lt;b&gt;BlastP hit with MCIC6FC_022477&lt;/b&gt;&lt;br&gt;Percentage identity: 91&lt;br&gt;Percentage coverage: 100&lt;br&gt;BLAST bit score: 884&lt;br&gt;E-value: 3.7e-255" locus_tag="HZ99_RS17030" class="clusterblast-orf" id="dummy-1_h1_5_8"  />
</g>
<g id="a1_009"  >
<polygon points="738,90 775,90 780,85 775,80 738,80 738,90 " style="fill:#b1d815; stroke-width:1; stroke:black; " description="&lt;b&gt;HZ99_RS17025&lt;/b&gt;&lt;br&gt;DUF3617 domain-containing protein&lt;br&gt;Location: 3788433 - 3787912&lt;br&gt;&lt;br&gt;&lt;b&gt;BlastP hit with MCIC6FC_022478&lt;/b&gt;&lt;br&gt;Percentage identity: 94&lt;br&gt;Percentage coverage: 100&lt;br&gt;BLAST bit score: 155&lt;br&gt;E-value: 2.1e-36" locus_tag="HZ99_RS17025" class="clusterblast-orf" id="dummy-1_h1_5_9"  />
</g>
</svg>
