<svg xmlns="http://www.w3.org/2000/svg" xmlns:xlink="http://www.w3.org/1999/xlink" version="1.1" x="0" y="0" height="230" width="800" viewBox="0 0 800 230" preserveAspectRatio="none"  >
<g label="Query sequence" class="clusterblast-cluster"  >
<text x="5" y="20" class="clusterblast-acc"  >
Query sequence</text>
<line x1="10" y1="35" x2="778.0" y2="35" style="stroke-width:1; stroke:grey; "  />
<polygon points="109,40 313,40 318,35 313,30 109,30 109,40 " style="fill:#d81515; stroke-width:1; stroke:black; " description="&lt;b&gt;MCIC6FC_022620&lt;/b&gt;&lt;br&gt;hypothetical protein&lt;br&gt;Location: 222 - 2660" locus_tag="MCIC6FC_022620" class="clusterblast-orf" id="dummy-1_q0_0_all"  />
<polygon points="319,35 324,30 398,30 398,40 324,40 319,35 " style="fill:#77d815; stroke-width:1; stroke:black; " description="&lt;b&gt;MCIC6FC_022621&lt;/b&gt;&lt;br&gt;hypothetical protein&lt;br&gt;Location: 2670 - 3585" locus_tag="MCIC6FC_022621" class="clusterblast-orf" id="dummy-1_q1_0_all"  />
<polygon points="407,40 519,40 524,35 519,30 407,30 407,40 " style="fill:#15d8d8; stroke-width:1; stroke:black; " description="&lt;b&gt;MCIC6FC_022622&lt;/b&gt;&lt;br&gt;hypothetical protein&lt;br&gt;Location: 3688 - 5057" locus_tag="MCIC6FC_022622" class="clusterblast-orf" id="dummy-1_q2_0_all"  />
<polygon points="533,40 667,40 672,35 667,30 533,30 533,40 " style="fill:#7715d8; stroke-width:1; stroke:black; " description="&lt;b&gt;MCIC6FC_022623&lt;/b&gt;&lt;br&gt;hypothetical protein&lt;br&gt;Location: 5163 - 6777" locus_tag="MCIC6FC_022623" class="clusterblast-orf" id="dummy-1_q3_0_all"  />
</g>
<g label="NZ_QKYZ01000019" description="NZ_QKYZ01000019 (40139-49225): Pseudomonas sp. URMO17WK12:I6 F475DRAFT scaffo... (50% of genes show similarity), bacteriocin" class="clusterblast-cluster"  >
<text x="5" y="70" class="clusterblast-acc"  >
<a xlink:href="https://antismash-db.secondarymetabolites.org/area.html?record=NZ_QKYZ01000019&amp;start=40139&amp;end=49225" target="_blank">NZ_QKYZ01000019 (40139-49225)</a>: Pseudomonas sp. URMO17WK12:I6 F475DRAFT scaffo... (50% of genes show similarity), bacteriocin</text>
<line x1="10" y1="85" x2="778.0" y2="85" style="stroke-width:1; stroke:grey; "  />
</g>
<g id="a1_000"  >
<polygon points="0,90 102,90 107,85 102,80 0,80 0,90 " style="fill:white; stroke-width:1; stroke:black; " description="&lt;b&gt;F475_RS25885&lt;/b&gt;&lt;br&gt;high-affinity branched-chain amino acid ABC transporter permease LivM&lt;br&gt;Location: 49225 - 47969" locus_tag="F475_RS25885" class="clusterblast-orf" id="dummy-1_h1_6_0"  />
</g>
<g id="a1_001"  >
<polygon points="107,90 168,90 173,85 168,80 107,80 107,90 " style="fill:white; stroke-width:1; stroke:black; " description="&lt;b&gt;F475_RS25880&lt;/b&gt;&lt;br&gt;high-affinity branched-chain amino acid ABC transporter ATP-binding protein LivG&lt;br&gt;Location: 47972 - 47205" locus_tag="F475_RS25880" class="clusterblast-orf" id="dummy-1_h1_6_1"  />
</g>
<g id="a1_002"  >
<polygon points="173,90 228,90 233,85 228,80 173,80 173,90 " style="fill:white; stroke-width:1; stroke:black; " description="&lt;b&gt;F475_RS25875&lt;/b&gt;&lt;br&gt;ABC transporter ATP-binding protein&lt;br&gt;Location: 47204 - 46503" locus_tag="F475_RS25875" class="clusterblast-orf" id="dummy-1_h1_6_2"  />
</g>
<g id="a1_003"  >
<polygon points="252,90 281,90 286,85 281,80 252,80 252,90 " style="fill:white; stroke-width:1; stroke:black; " description="&lt;b&gt;F475_RS25870&lt;/b&gt;&lt;br&gt;hypothetical protein&lt;br&gt;Location: 46288 - 45884" locus_tag="F475_RS25870" class="clusterblast-orf" id="dummy-1_h1_6_3"  />
</g>
<g id="a1_004"  >
<polygon points="286,90 340,90 345,85 340,80 286,80 286,90 " style="fill:white; stroke-width:1; stroke:black; " description="&lt;b&gt;F475_RS25865&lt;/b&gt;&lt;br&gt;RES family NAD+ phosphorylase&lt;br&gt;Location: 45890 - 45198" locus_tag="F475_RS25865" class="clusterblast-orf" id="dummy-1_h1_6_4"  />
</g>
<g id="a1_005"  >
<polygon points="364,90 385,90 390,85 385,80 364,80 364,90 " style="fill:white; stroke-width:1; stroke:black; " description="&lt;b&gt;F475_RS25860&lt;/b&gt;&lt;br&gt;DUF2282 domain-containing protein&lt;br&gt;Location: 44981 - 44676" locus_tag="F475_RS25860" class="clusterblast-orf" id="dummy-1_h1_6_5"  />
</g>
<g id="a1_006"  >
<polygon points="392,90 461,90 466,85 461,80 392,80 392,90 " style="fill:#d81515; stroke-width:1; stroke:black; " description="&lt;b&gt;F475_RS25855&lt;/b&gt;&lt;br&gt;DUF692 domain-containing protein&lt;br&gt;Location: 44649 - 43795&lt;br&gt;&lt;br&gt;&lt;b&gt;BlastP hit with MCIC6FC_022620&lt;/b&gt;&lt;br&gt;Percentage identity: 86&lt;br&gt;Percentage coverage: 38&lt;br&gt;BLAST bit score: 498&lt;br&gt;E-value: 1.1e-138" locus_tag="F475_RS25855" class="clusterblast-orf" id="dummy-1_h1_6_6"  />
</g>
<g id="a1_007"  >
<polygon points="465,90 526,90 531,85 526,80 465,80 465,90 " style="fill:#d81515; stroke-width:1; stroke:black; " description="&lt;b&gt;F475_RS25850&lt;/b&gt;&lt;br&gt;putative DNA-binding domain-containing protein&lt;br&gt;Location: 43798 - 43037&lt;br&gt;&lt;br&gt;&lt;b&gt;BlastP hit with MCIC6FC_022620&lt;/b&gt;&lt;br&gt;Percentage identity: 62&lt;br&gt;Percentage coverage: 33&lt;br&gt;BLAST bit score: 274&lt;br&gt;E-value: 4.5e-71" locus_tag="F475_RS25850" class="clusterblast-orf" id="dummy-1_h1_6_7"  />
</g>
<g id="a1_008"  >
<polygon points="531,90 567,90 572,85 567,80 531,80 531,90 " style="fill:#d81515; stroke-width:1; stroke:black; " description="&lt;b&gt;F475_RS25845&lt;/b&gt;&lt;br&gt;DoxX family protein&lt;br&gt;Location: 43040 - 42561&lt;br&gt;&lt;br&gt;&lt;b&gt;BlastP hit with MCIC6FC_022620&lt;/b&gt;&lt;br&gt;Percentage identity: 78&lt;br&gt;Percentage coverage: 20&lt;br&gt;BLAST bit score: 225&lt;br&gt;E-value: 2.4e-56" locus_tag="F475_RS25845" class="clusterblast-orf" id="dummy-1_h1_6_8"  />
</g>
<g id="a1_009"  >
<polygon points="575,85 580,80 654,80 654,90 580,90 575,85 " style="fill:#77d815; stroke-width:1; stroke:black; " description="&lt;b&gt;F475_RS25840&lt;/b&gt;&lt;br&gt;LysR family transcriptional regulator&lt;br&gt;Location: 42519 - 41605&lt;br&gt;&lt;br&gt;&lt;b&gt;BlastP hit with MCIC6FC_022621&lt;/b&gt;&lt;br&gt;Percentage identity: 88&lt;br&gt;Percentage coverage: 100&lt;br&gt;BLAST bit score: 533&lt;br&gt;E-value: 1.7e-149" locus_tag="F475_RS25840" class="clusterblast-orf" id="dummy-1_h1_6_9"  />
</g>
<g id="a1_0010"  >
<polygon points="663,90 709,90 714,85 709,80 663,80 663,90 " style="fill:#15d8d8; stroke-width:1; stroke:black; " description="&lt;b&gt;F475_RS25835&lt;/b&gt;&lt;br&gt;short chain dehydrogenase&lt;br&gt;Location: 41498 - 40899&lt;br&gt;&lt;br&gt;&lt;b&gt;BlastP hit with MCIC6FC_022622&lt;/b&gt;&lt;br&gt;Percentage identity: 84&lt;br&gt;Percentage coverage: 46&lt;br&gt;BLAST bit score: 325&lt;br&gt;E-value: 7.5e-87" locus_tag="F475_RS25835" class="clusterblast-orf" id="dummy-1_h1_6_10"  />
</g>
<g id="a1_0011"  >
<polygon points="722,90 775,90 780,85 775,80 722,80 722,90 " style="fill:#15d8d8; stroke-width:1; stroke:black; " description="&lt;b&gt;F475_RS25830&lt;/b&gt;&lt;br&gt;hypothetical protein&lt;br&gt;Location: 40805 - 40140&lt;br&gt;&lt;br&gt;&lt;b&gt;BlastP hit with MCIC6FC_022622&lt;/b&gt;&lt;br&gt;Percentage identity: 66&lt;br&gt;Percentage coverage: 52&lt;br&gt;BLAST bit score: 305&lt;br&gt;E-value: 1.1e-80" locus_tag="F475_RS25830" class="clusterblast-orf" id="dummy-1_h1_6_11"  />
</g>
</svg>
