<svg xmlns="http://www.w3.org/2000/svg" xmlns:xlink="http://www.w3.org/1999/xlink" version="1.1" x="0" y="0" height="230" width="800" viewBox="0 0 800 230" preserveAspectRatio="none"  >
<g label="Query sequence" class="clusterblast-cluster"  >
<text x="5" y="20" class="clusterblast-acc"  >
Query sequence</text>
<line x1="10" y1="35" x2="778.0" y2="35" style="stroke-width:1; stroke:grey; "  />
<polygon points="167,35 172,30 176,30 176,40 172,40 167,35 " style="fill:#d81515; stroke-width:1; stroke:black; " description="&lt;b&gt;MCIC6FC_007887&lt;/b&gt;&lt;br&gt;hypothetical protein&lt;br&gt;Location: 1618687 - 1619925" locus_tag="MCIC6FC_007887" class="clusterblast-orf" id="dummy-6_q0_0_all"  />
<polygon points="176,35 181,30 190,30 190,40 181,40 176,35 " style="fill:#4dd815; stroke-width:1; stroke:black; " description="&lt;b&gt;MCIC6FC_007888&lt;/b&gt;&lt;br&gt;hypothetical protein&lt;br&gt;Location: 1619941 - 1621734" locus_tag="MCIC6FC_007888" class="clusterblast-orf" id="dummy-6_q1_0_all"  />
<polygon points="190,35 195,30 198,30 198,40 195,40 190,35 " style="fill:#15bcd8; stroke-width:1; stroke:black; " description="&lt;b&gt;MCIC6FC_007889&lt;/b&gt;&lt;br&gt;hypothetical protein&lt;br&gt;Location: 1621784 - 1622873" locus_tag="MCIC6FC_007889" class="clusterblast-orf" id="dummy-6_q2_0_all"  />
<polygon points="198,35 203,30 208,30 208,40 203,40 198,35 " style="fill:#8515d8; stroke-width:1; stroke:black; " description="&lt;b&gt;MCIC6FC_007890&lt;/b&gt;&lt;br&gt;hypothetical protein&lt;br&gt;Location: 1622896 - 1624255" locus_tag="MCIC6FC_007890" class="clusterblast-orf" id="dummy-6_q3_0_all"  />
<polygon points="209,40 211,40 216,35 211,30 209,30 209,40 " style="fill:#d84d15; stroke-width:1; stroke:black; " description="&lt;b&gt;MCIC6FC_007891&lt;/b&gt;&lt;br&gt;hypothetical protein&lt;br&gt;Location: 1624394 - 1625291" locus_tag="MCIC6FC_007891" class="clusterblast-orf" id="dummy-6_q4_0_all"  />
<polygon points="216,40 227,40 232,35 227,30 216,30 216,40 " style="fill:#15d815; stroke-width:1; stroke:black; " description="&lt;b&gt;MCIC6FC_007892&lt;/b&gt;&lt;br&gt;hypothetical protein&lt;br&gt;Location: 1625391 - 1627551" locus_tag="MCIC6FC_007892" class="clusterblast-orf" id="dummy-6_q5_0_all"  />
<polygon points="232,35 237,30 240,30 240,40 237,40 232,35 " style="fill:#1585d8; stroke-width:1; stroke:black; " description="&lt;b&gt;MCIC6FC_007893&lt;/b&gt;&lt;br&gt;hypothetical protein&lt;br&gt;Location: 1627593 - 1628671" locus_tag="MCIC6FC_007893" class="clusterblast-orf" id="dummy-6_q6_0_all"  />
<polygon points="241,40 241,40 246,35 241,30 241,30 241,40 " style="fill:#bc15d8; stroke-width:1; stroke:black; " description="&lt;b&gt;MCIC6FC_007894&lt;/b&gt;&lt;br&gt;hypothetical protein&lt;br&gt;Location: 1628768 - 1629501" locus_tag="MCIC6FC_007894" class="clusterblast-orf" id="dummy-6_q7_0_all"  />
<polygon points="247,35 250,30 250,40 247,35 " style="fill:#d88515; stroke-width:1; stroke:black; " description="&lt;b&gt;MCIC6FC_007895&lt;/b&gt;&lt;br&gt;hypothetical protein&lt;br&gt;Location: 1629543 - 1629981" locus_tag="MCIC6FC_007895" class="clusterblast-orf" id="dummy-6_q8_0_all"  />
<polygon points="251,35 254,30 254,40 251,35 " style="fill:#15d84d; stroke-width:1; stroke:black; " description="&lt;b&gt;MCIC6FC_007896&lt;/b&gt;&lt;br&gt;hypothetical protein&lt;br&gt;Location: 1630103 - 1630574" locus_tag="MCIC6FC_007896" class="clusterblast-orf" id="dummy-6_q9_0_all"  />
<polygon points="255,40 259,40 264,35 259,30 255,30 255,40 " style="fill:#154dd8; stroke-width:1; stroke:black; " description="&lt;b&gt;MCIC6FC_007897&lt;/b&gt;&lt;br&gt;hypothetical protein&lt;br&gt;Location: 1630697 - 1631945" locus_tag="MCIC6FC_007897" class="clusterblast-orf" id="dummy-6_q10_0_all"  />
<polygon points="266,40 266,40 271,35 266,30 266,30 266,40 " style="fill:#d815bc; stroke-width:1; stroke:black; " description="&lt;b&gt;MCIC6FC_007898&lt;/b&gt;&lt;br&gt;hypothetical protein&lt;br&gt;Location: 1632165 - 1632855" locus_tag="MCIC6FC_007898" class="clusterblast-orf" id="dummy-6_q11_0_all"  />
<polygon points="271,35 276,30 294,30 294,40 276,40 271,35 " style="fill:#d8bc15; stroke-width:1; stroke:black; " description="&lt;b&gt;MCIC6FC_007899&lt;/b&gt;&lt;br&gt;hypothetical protein&lt;br&gt;Location: 1632911 - 1635995" locus_tag="MCIC6FC_007899" class="clusterblast-orf" id="dummy-6_q12_0_all"  />
<polygon points="298,35 303,30 475,30 475,40 303,40 298,35 " style="fill:#15d885; stroke-width:1; stroke:black; " description="&lt;b&gt;MCIC6FC_007900&lt;/b&gt;&lt;br&gt;hypothetical protein&lt;br&gt;Location: 1636549 - 1660777" locus_tag="MCIC6FC_007900" class="clusterblast-orf" id="dummy-6_q13_0_all"  />
<polygon points="477,35 482,30 489,30 489,40 482,40 477,35 " style="fill:#1515d8; stroke-width:1; stroke:black; " description="&lt;b&gt;MCIC6FC_007901&lt;/b&gt;&lt;br&gt;hypothetical protein&lt;br&gt;Location: 1660996 - 1662651" locus_tag="MCIC6FC_007901" class="clusterblast-orf" id="dummy-6_q14_0_all"  />
<polygon points="491,35 496,30 526,30 526,40 496,40 491,35 " style="fill:#1515d8; stroke-width:1; stroke:black; " description="&lt;b&gt;MCIC6FC_007902&lt;/b&gt;&lt;br&gt;hypothetical protein&lt;br&gt;Location: 1662893 - 1667726" locus_tag="MCIC6FC_007902" class="clusterblast-orf" id="dummy-6_q15_0_all"  />
<polygon points="537,40 541,40 546,35 541,30 537,30 537,40 " style="fill:#d81585; stroke-width:1; stroke:black; " description="&lt;b&gt;MCIC6FC_007903&lt;/b&gt;&lt;br&gt;hypothetical protein&lt;br&gt;Location: 1669225 - 1670522" locus_tag="MCIC6FC_007903" class="clusterblast-orf" id="dummy-6_q16_0_all"  />
<polygon points="547,40 547,40 552,35 547,30 547,30 547,40 " style="fill:#bcd815; stroke-width:1; stroke:black; " description="&lt;b&gt;MCIC6FC_007904&lt;/b&gt;&lt;br&gt;hypothetical protein&lt;br&gt;Location: 1670591 - 1671338" locus_tag="MCIC6FC_007904" class="clusterblast-orf" id="dummy-6_q17_0_all"  />
<polygon points="554,35 558,30 558,40 554,35 " style="fill:#15d8bc; stroke-width:1; stroke:black; " description="&lt;b&gt;MCIC6FC_007905&lt;/b&gt;&lt;br&gt;hypothetical protein&lt;br&gt;Location: 1671548 - 1672133" locus_tag="MCIC6FC_007905" class="clusterblast-orf" id="dummy-6_q18_0_all"  />
<polygon points="559,35 564,30 566,30 566,40 564,40 559,35 " style="fill:#4d15d8; stroke-width:1; stroke:black; " description="&lt;b&gt;MCIC6FC_007906&lt;/b&gt;&lt;br&gt;hypothetical protein&lt;br&gt;Location: 1672192 - 1673215" locus_tag="MCIC6FC_007906" class="clusterblast-orf" id="dummy-6_q19_0_all"  />
<polygon points="567,35 572,30 583,30 583,40 572,40 567,35 " style="fill:#d8154d; stroke-width:1; stroke:black; " description="&lt;b&gt;MCIC6FC_007907&lt;/b&gt;&lt;br&gt;hypothetical protein&lt;br&gt;Location: 1673279 - 1675586" locus_tag="MCIC6FC_007907" class="clusterblast-orf" id="dummy-6_q20_0_all"  />
<polygon points="585,40 607,40 612,35 607,30 585,30 585,40 " style="fill:#85d815; stroke-width:1; stroke:black; " description="&lt;b&gt;MCIC6FC_007908&lt;/b&gt;&lt;br&gt;hypothetical protein&lt;br&gt;Location: 1675751 - 1679462" locus_tag="MCIC6FC_007908" class="clusterblast-orf" id="dummy-6_q21_0_all"  />
</g>
<g label="NZ_CP023272" description="NZ_CP023272 (2351708-2458342): Pseudomonas lurida strain MYb11 chromosome, co... (45% of genes show similarity), NRPS" class="clusterblast-cluster"  >
<text x="5" y="70" class="clusterblast-acc"  >
<a xlink:href="https://antismash-db.secondarymetabolites.org/area.html?record=NZ_CP023272&amp;start=2351708&amp;end=2458342" target="_blank">NZ_CP023272 (2351708-2458342)</a>: Pseudomonas lurida strain MYb11 chromosome, co... (45% of genes show similarity), NRPS</text>
<line x1="10" y1="85" x2="778.0" y2="85" style="stroke-width:1; stroke:grey; "  />
</g>
<g id="a6_000"  >
<polygon points="0,85 3,80 3,90 0,85 " style="fill:#d81515; stroke-width:1; stroke:black; " description="&lt;b&gt;CLM75_RS11105&lt;/b&gt;&lt;br&gt;SRPBCC family protein&lt;br&gt;Location: 2458342 - 2457926&lt;br&gt;&lt;br&gt;&lt;b&gt;BlastP hit with MCIC6FC_007887&lt;/b&gt;&lt;br&gt;Percentage identity: 91&lt;br&gt;Percentage coverage: 34&lt;br&gt;BLAST bit score: 244&lt;br&gt;E-value: 1.6e-62" locus_tag="CLM75_RS11105" class="clusterblast-orf" id="dummy-6_h6_8_0"  />
</g>
<g id="a6_001"  >
<polygon points="3,85 8,80 9,80 9,90 8,90 3,85 " style="fill:#d81515; stroke-width:1; stroke:black; " description="&lt;b&gt;CLM75_RS11100&lt;/b&gt;&lt;br&gt;SDR family oxidoreductase&lt;br&gt;Location: 2457896 - 2457048&lt;br&gt;&lt;br&gt;&lt;b&gt;BlastP hit with MCIC6FC_007887&lt;/b&gt;&lt;br&gt;Percentage identity: 97&lt;br&gt;Percentage coverage: 66&lt;br&gt;BLAST bit score: 473&lt;br&gt;E-value: 2.1e-131" locus_tag="CLM75_RS11100" class="clusterblast-orf" id="dummy-6_h6_8_1"  />
</g>
<g id="a6_002"  >
<polygon points="9,85 14,80 16,80 16,90 14,90 9,85 " style="fill:#4dd815; stroke-width:1; stroke:black; " description="&lt;b&gt;CLM75_RS11095&lt;/b&gt;&lt;br&gt;aldo/keto reductase&lt;br&gt;Location: 2457081 - 2456077&lt;br&gt;&lt;br&gt;&lt;b&gt;BlastP hit with MCIC6FC_007888&lt;/b&gt;&lt;br&gt;Percentage identity: 53&lt;br&gt;Percentage coverage: 33&lt;br&gt;BLAST bit score: 141&lt;br&gt;E-value: 1.9e-31" locus_tag="CLM75_RS11095" class="clusterblast-orf" id="dummy-6_h6_8_2"  />
</g>
<g id="a6_003"  >
<polygon points="17,90 18,90 23,85 18,80 17,80 17,90 " style="fill:white; stroke-width:1; stroke:black; " description="&lt;b&gt;CLM75_RS11090&lt;/b&gt;&lt;br&gt;LysR family transcriptional regulator&lt;br&gt;Location: 2455963 - 2455070" locus_tag="CLM75_RS11090" class="clusterblast-orf" id="dummy-6_h6_8_3"  />
</g>
<g id="a6_004"  >
<polygon points="24,85 29,80 33,80 33,90 29,90 24,85 " style="fill:#4dd815; stroke-width:1; stroke:black; " description="&lt;b&gt;CLM75_RS11085&lt;/b&gt;&lt;br&gt;FAD-binding oxidoreductase&lt;br&gt;Location: 2454996 - 2453704&lt;br&gt;&lt;br&gt;&lt;b&gt;BlastP hit with MCIC6FC_007888&lt;/b&gt;&lt;br&gt;Percentage identity: 91&lt;br&gt;Percentage coverage: 78&lt;br&gt;BLAST bit score: 770&lt;br&gt;E-value: 1.4e-220" locus_tag="CLM75_RS11085" class="clusterblast-orf" id="dummy-6_h6_8_4"  />
</g>
<g id="a6_005"  >
<polygon points="33,85 38,80 41,80 41,90 38,90 33,85 " style="fill:#15bcd8; stroke-width:1; stroke:black; " description="&lt;b&gt;CLM75_RS11080&lt;/b&gt;&lt;br&gt;polyamine ABC transporter substrate-binding protein&lt;br&gt;Location: 2453707 - 2452619&lt;br&gt;&lt;br&gt;&lt;b&gt;BlastP hit with MCIC6FC_007889&lt;/b&gt;&lt;br&gt;Percentage identity: 96&lt;br&gt;Percentage coverage: 100&lt;br&gt;BLAST bit score: 709&lt;br&gt;E-value: 1.6e-202" locus_tag="CLM75_RS11080" class="clusterblast-orf" id="dummy-6_h6_8_5"  />
</g>
<g id="a6_006"  >
<polygon points="42,85 47,80 51,80 51,90 47,90 42,85 " style="fill:#8515d8; stroke-width:1; stroke:black; " description="&lt;b&gt;CLM75_RS11075&lt;/b&gt;&lt;br&gt;glutamine synthetase&lt;br&gt;Location: 2452595 - 2451237&lt;br&gt;&lt;br&gt;&lt;b&gt;BlastP hit with MCIC6FC_007890&lt;/b&gt;&lt;br&gt;Percentage identity: 97&lt;br&gt;Percentage coverage: 100&lt;br&gt;BLAST bit score: 908&lt;br&gt;E-value: 2.2e-262" locus_tag="CLM75_RS11075" class="clusterblast-orf" id="dummy-6_h6_8_6"  />
</g>
<g id="a6_007"  >
<polygon points="52,90 54,90 59,85 54,80 52,80 52,90 " style="fill:#d84d15; stroke-width:1; stroke:black; " description="&lt;b&gt;CLM75_RS11070&lt;/b&gt;&lt;br&gt;helix-turn-helix domain-containing protein&lt;br&gt;Location: 2451097 - 2450201&lt;br&gt;&lt;br&gt;&lt;b&gt;BlastP hit with MCIC6FC_007891&lt;/b&gt;&lt;br&gt;Percentage identity: 93&lt;br&gt;Percentage coverage: 99&lt;br&gt;BLAST bit score: 566&lt;br&gt;E-value: 2.3e-159" locus_tag="CLM75_RS11070" class="clusterblast-orf" id="dummy-6_h6_8_7"  />
</g>
<g id="a6_008"  >
<polygon points="60,90 71,90 76,85 71,80 60,80 60,90 " style="fill:#15d815; stroke-width:1; stroke:black; " description="&lt;b&gt;CLM75_RS11065&lt;/b&gt;&lt;br&gt;TonB-dependent siderophore receptor&lt;br&gt;Location: 2450061 - 2447899&lt;br&gt;&lt;br&gt;&lt;b&gt;BlastP hit with MCIC6FC_007892&lt;/b&gt;&lt;br&gt;Percentage identity: 92&lt;br&gt;Percentage coverage: 100&lt;br&gt;BLAST bit score: 1334&lt;br&gt;E-value: 0.0" locus_tag="CLM75_RS11065" class="clusterblast-orf" id="dummy-6_h6_8_8"  />
</g>
<g id="a6_009"  >
<polygon points="76,85 81,80 84,80 84,90 81,90 76,85 " style="fill:#1585d8; stroke-width:1; stroke:black; " description="&lt;b&gt;CLM75_RS11060&lt;/b&gt;&lt;br&gt;MFS transporter&lt;br&gt;Location: 2447909 - 2446779&lt;br&gt;&lt;br&gt;&lt;b&gt;BlastP hit with MCIC6FC_007893&lt;/b&gt;&lt;br&gt;Percentage identity: 86&lt;br&gt;Percentage coverage: 99&lt;br&gt;BLAST bit score: 551&lt;br&gt;E-value: 5.3e-155" locus_tag="CLM75_RS11060" class="clusterblast-orf" id="dummy-6_h6_8_9"  />
</g>
<g id="a6_0010"  >
<polygon points="85,90 85,90 90,85 85,80 85,80 85,90 " style="fill:#bc15d8; stroke-width:1; stroke:black; " description="&lt;b&gt;CLM75_RS11055&lt;/b&gt;&lt;br&gt;helix-turn-helix transcriptional regulator&lt;br&gt;Location: 2446677 - 2445907&lt;br&gt;&lt;br&gt;&lt;b&gt;BlastP hit with MCIC6FC_007894&lt;/b&gt;&lt;br&gt;Percentage identity: 87&lt;br&gt;Percentage coverage: 100&lt;br&gt;BLAST bit score: 401&lt;br&gt;E-value: 5.8e-110" locus_tag="CLM75_RS11055" class="clusterblast-orf" id="dummy-6_h6_8_10"  />
</g>
<g id="a6_0011"  >
<polygon points="90,85 94,80 94,90 90,85 " style="fill:#d88515; stroke-width:1; stroke:black; " description="&lt;b&gt;CLM75_RS11050&lt;/b&gt;&lt;br&gt;carboxymuconolactone decarboxylase family protein&lt;br&gt;Location: 2445902 - 2445465&lt;br&gt;&lt;br&gt;&lt;b&gt;BlastP hit with MCIC6FC_007895&lt;/b&gt;&lt;br&gt;Percentage identity: 95&lt;br&gt;Percentage coverage: 100&lt;br&gt;BLAST bit score: 272&lt;br&gt;E-value: 2.6e-71" locus_tag="CLM75_RS11050" class="clusterblast-orf" id="dummy-6_h6_8_11"  />
</g>
<g id="a6_0012"  >
<polygon points="94,85 98,80 98,90 94,85 " style="fill:#15d84d; stroke-width:1; stroke:black; " description="&lt;b&gt;CLM75_RS11045&lt;/b&gt;&lt;br&gt;Lrp/AsnC family transcriptional regulator&lt;br&gt;Location: 2445367 - 2444897&lt;br&gt;&lt;br&gt;&lt;b&gt;BlastP hit with MCIC6FC_007896&lt;/b&gt;&lt;br&gt;Percentage identity: 96&lt;br&gt;Percentage coverage: 100&lt;br&gt;BLAST bit score: 298&lt;br&gt;E-value: 4.8e-79" locus_tag="CLM75_RS11045" class="clusterblast-orf" id="dummy-6_h6_8_12"  />
</g>
<g id="a6_0013"  >
<polygon points="99,90 103,90 108,85 103,80 99,80 99,90 " style="fill:#154dd8; stroke-width:1; stroke:black; " description="&lt;b&gt;CLM75_RS11040&lt;/b&gt;&lt;br&gt;methionine gamma-lyase&lt;br&gt;Location: 2444773 - 2443538&lt;br&gt;&lt;br&gt;&lt;b&gt;BlastP hit with MCIC6FC_007897&lt;/b&gt;&lt;br&gt;Percentage identity: 94&lt;br&gt;Percentage coverage: 97&lt;br&gt;BLAST bit score: 755&lt;br&gt;E-value: 3.8e-216" locus_tag="CLM75_RS11040" class="clusterblast-orf" id="dummy-6_h6_8_13"  />
</g>
<g id="a6_0014"  >
<polygon points="109,90 109,90 114,85 109,80 109,80 109,90 " style="fill:#d815bc; stroke-width:1; stroke:black; " description="&lt;b&gt;CLM75_RS11035&lt;/b&gt;&lt;br&gt;helix-turn-helix transcriptional regulator&lt;br&gt;Location: 2443391 - 2442708&lt;br&gt;&lt;br&gt;&lt;b&gt;BlastP hit with MCIC6FC_007898&lt;/b&gt;&lt;br&gt;Percentage identity: 93&lt;br&gt;Percentage coverage: 98&lt;br&gt;BLAST bit score: 410&lt;br&gt;E-value: 9.7e-113" locus_tag="CLM75_RS11035" class="clusterblast-orf" id="dummy-6_h6_8_14"  />
</g>
<g id="a6_0015"  >
<polygon points="114,85 119,80 129,80 129,90 119,90 114,85 " style="fill:#d8bc15; stroke-width:1; stroke:black; " description="&lt;b&gt;CLM75_RS11030&lt;/b&gt;&lt;br&gt;MacB family efflux pump subunit&lt;br&gt;Location: 2442637 - 2440679&lt;br&gt;&lt;br&gt;&lt;b&gt;BlastP hit with MCIC6FC_007899&lt;/b&gt;&lt;br&gt;Percentage identity: 97&lt;br&gt;Percentage coverage: 64&lt;br&gt;BLAST bit score: 1208&lt;br&gt;E-value: 0.0" locus_tag="CLM75_RS11030" class="clusterblast-orf" id="dummy-6_h6_8_15"  />
</g>
<g id="a6_0016"  >
<polygon points="129,85 134,80 137,80 137,90 134,90 129,85 " style="fill:#d8bc15; stroke-width:1; stroke:black; " description="&lt;b&gt;CLM75_RS11025&lt;/b&gt;&lt;br&gt;macrolide transporter subunit MacA&lt;br&gt;Location: 2440675 - 2439524&lt;br&gt;&lt;br&gt;&lt;b&gt;BlastP hit with MCIC6FC_007899&lt;/b&gt;&lt;br&gt;Percentage identity: 96&lt;br&gt;Percentage coverage: 36&lt;br&gt;BLAST bit score: 661&lt;br&gt;E-value: 1.1e-187" locus_tag="CLM75_RS11025" class="clusterblast-orf" id="dummy-6_h6_8_16"  />
</g>
<g id="a6_0017"  >
<polygon points="141,85 146,80 223,80 223,90 146,90 141,85 " style="fill:#15d885; stroke-width:1; stroke:black; " description="&lt;b&gt;CLM75_RS11015&lt;/b&gt;&lt;br&gt;amino acid adenylation domain-containing protein&lt;br&gt;Location: 2439020 - 2427726&lt;br&gt;&lt;br&gt;&lt;b&gt;BlastP hit with MCIC6FC_007900&lt;/b&gt;&lt;br&gt;Percentage identity: 87&lt;br&gt;Percentage coverage: 47&lt;br&gt;BLAST bit score: 6486&lt;br&gt;E-value: 0.0" locus_tag="CLM75_RS11015" class="clusterblast-orf" id="dummy-6_h6_8_17"  />
</g>
<g id="a6_0018"  >
<polygon points="223,85 228,80 317,80 317,90 228,90 223,85 " style="fill:#15d885; stroke-width:1; stroke:black; " description="&lt;b&gt;CLM75_RS11010&lt;/b&gt;&lt;br&gt;non-ribosomal peptide synthetase&lt;br&gt;Location: 2427729 - 2414902&lt;br&gt;&lt;br&gt;&lt;b&gt;BlastP hit with MCIC6FC_007900&lt;/b&gt;&lt;br&gt;Percentage identity: 86&lt;br&gt;Percentage coverage: 54&lt;br&gt;BLAST bit score: 7271&lt;br&gt;E-value: 0.0" locus_tag="CLM75_RS11010" class="clusterblast-orf" id="dummy-6_h6_8_18"  />
</g>
<g id="a6_0019"  >
<polygon points="319,85 324,80 331,80 331,90 324,90 319,85 " style="fill:white; stroke-width:1; stroke:black; " description="&lt;b&gt;CLM75_RS11005&lt;/b&gt;&lt;br&gt;PvdJ/PvdD/PvdP-like protein&lt;br&gt;Location: 2414655 - 2413030" locus_tag="CLM75_RS11005" class="clusterblast-orf" id="dummy-6_h6_8_19"  />
</g>
<g id="a6_0020"  >
<polygon points="332,90 337,90 342,85 337,80 332,80 332,90 " style="fill:white; stroke-width:1; stroke:black; " description="&lt;b&gt;CLM75_RS11000&lt;/b&gt;&lt;br&gt;pyoverdine-tailoring dipeptidase-like protein PvdM&lt;br&gt;Location: 2412887 - 2411538" locus_tag="CLM75_RS11000" class="clusterblast-orf" id="dummy-6_h6_8_20"  />
</g>
<g id="a6_0021"  >
<polygon points="342,90 346,90 351,85 346,80 342,80 342,90 " style="fill:white; stroke-width:1; stroke:black; " description="&lt;b&gt;CLM75_RS10995&lt;/b&gt;&lt;br&gt;aminotransferase class V-fold PLP-dependent enzyme&lt;br&gt;Location: 2411519 - 2410248" locus_tag="CLM75_RS10995" class="clusterblast-orf" id="dummy-6_h6_8_21"  />
</g>
<g id="a6_0022"  >
<polygon points="352,90 353,90 358,85 353,80 352,80 352,90 " style="fill:white; stroke-width:1; stroke:black; " description="&lt;b&gt;CLM75_RS10990&lt;/b&gt;&lt;br&gt;formylglycine-generating enzyme family protein&lt;br&gt;Location: 2410213 - 2409353" locus_tag="CLM75_RS10990" class="clusterblast-orf" id="dummy-6_h6_8_22"  />
</g>
<g id="a6_0023"  >
<polygon points="359,85 364,80 365,80 365,90 364,90 359,85 " style="fill:white; stroke-width:1; stroke:black; " description="&lt;b&gt;CLM75_RS10985&lt;/b&gt;&lt;br&gt;N(5)-hydroxyornithine transformylase PvdF&lt;br&gt;Location: 2409227 - 2408397" locus_tag="CLM75_RS10985" class="clusterblast-orf" id="dummy-6_h6_8_23"  />
</g>
<g id="a6_0024"  >
<polygon points="366,90 373,90 378,85 373,80 366,80 366,90 " style="fill:white; stroke-width:1; stroke:black; " description="&lt;b&gt;CLM75_RS10980&lt;/b&gt;&lt;br&gt;cyclic peptide export ABC transporter&lt;br&gt;Location: 2408196 - 2406544" locus_tag="CLM75_RS10980" class="clusterblast-orf" id="dummy-6_h6_8_24"  />
</g>
<g id="a6_0025"  >
<polygon points="380,90 392,90 397,85 392,80 380,80 380,90 " style="fill:white; stroke-width:1; stroke:black; " description="&lt;b&gt;CLM75_RS10975&lt;/b&gt;&lt;br&gt;TonB-dependent siderophore receptor&lt;br&gt;Location: 2406387 - 2404015" locus_tag="CLM75_RS10975" class="clusterblast-orf" id="dummy-6_h6_8_25"  />
</g>
<g id="a6_0026"  >
<polygon points="398,85 403,80 497,80 497,90 403,90 398,85 " style="fill:#15d885; stroke-width:1; stroke:black; " description="&lt;b&gt;CLM75_RS10970&lt;/b&gt;&lt;br&gt;non-ribosomal peptide synthetase&lt;br&gt;Location: 2403796 - 2390297&lt;br&gt;&lt;br&gt;&lt;b&gt;BlastP hit with MCIC6FC_007900&lt;/b&gt;&lt;br&gt;Percentage identity: 36&lt;br&gt;Percentage coverage: 54&lt;br&gt;BLAST bit score: 2213&lt;br&gt;E-value: 0.0" locus_tag="CLM75_RS10970" class="clusterblast-orf" id="dummy-6_h6_8_26"  />
</g>
<g id="a6_0027"  >
<polygon points="498,85 503,80 555,80 555,90 503,90 498,85 " style="fill:#15d885; stroke-width:1; stroke:black; " description="&lt;b&gt;CLM75_RS10965&lt;/b&gt;&lt;br&gt;non-ribosomal peptide synthetase&lt;br&gt;Location: 2390223 - 2382442&lt;br&gt;&lt;br&gt;&lt;b&gt;BlastP hit with MCIC6FC_007900&lt;/b&gt;&lt;br&gt;Percentage identity: 36&lt;br&gt;Percentage coverage: 32&lt;br&gt;BLAST bit score: 1307&lt;br&gt;E-value: 0.0" locus_tag="CLM75_RS10965" class="clusterblast-orf" id="dummy-6_h6_8_27"  />
</g>
<g id="a6_0028"  >
<polygon points="555,85 560,80 635,80 635,90 560,90 555,85 " style="fill:#15d885; stroke-width:1; stroke:black; " description="&lt;b&gt;CLM75_RS10960&lt;/b&gt;&lt;br&gt;non-ribosomal peptide synthetase&lt;br&gt;Location: 2382438 - 2371504&lt;br&gt;&lt;br&gt;&lt;b&gt;BlastP hit with MCIC6FC_007900&lt;/b&gt;&lt;br&gt;Percentage identity: 35&lt;br&gt;Percentage coverage: 45&lt;br&gt;BLAST bit score: 1741&lt;br&gt;E-value: 0.0" locus_tag="CLM75_RS10960" class="clusterblast-orf" id="dummy-6_h6_8_28"  />
</g>
<g id="a6_0029"  >
<polygon points="636,90 637,85 636,80 636,90 " style="fill:white; stroke-width:1; stroke:black; " description="&lt;b&gt;CLM75_RS10955&lt;/b&gt;&lt;br&gt;type II toxin-antitoxin system HicA family toxin&lt;br&gt;Location: 2371294 - 2371226" locus_tag="CLM75_RS10955" class="clusterblast-orf" id="dummy-6_h6_8_29"  />
</g>
<g id="a6_0030"  >
<polygon points="637,85 642,80 646,80 646,90 642,90 637,85 " style="fill:white; stroke-width:1; stroke:black; " description="&lt;b&gt;CLM75_RS10950&lt;/b&gt;&lt;br&gt;MFS transporter&lt;br&gt;Location: 2371169 - 2369997" locus_tag="CLM75_RS10950" class="clusterblast-orf" id="dummy-6_h6_8_30"  />
</g>
<g id="a6_0031"  >
<polygon points="647,90 651,85 647,80 647,90 " style="fill:white; stroke-width:1; stroke:black; " description="&lt;b&gt;CLM75_RS10945&lt;/b&gt;&lt;br&gt;TetR/AcrR family transcriptional regulator&lt;br&gt;Location: 2369856 - 2369269" locus_tag="CLM75_RS10945" class="clusterblast-orf" id="dummy-6_h6_8_31"  />
</g>
<g id="a6_0032"  >
<polygon points="651,85 656,80 661,80 661,90 656,90 651,85 " style="fill:white; stroke-width:1; stroke:black; " description="&lt;b&gt;CLM75_RS10940&lt;/b&gt;&lt;br&gt;MATE family efflux transporter&lt;br&gt;Location: 2369285 - 2367930" locus_tag="CLM75_RS10940" class="clusterblast-orf" id="dummy-6_h6_8_32"  />
</g>
<g id="a6_0033"  >
<polygon points="661,85 666,80 668,80 668,90 666,90 661,85 " style="fill:white; stroke-width:1; stroke:black; " description="&lt;b&gt;CLM75_RS10935&lt;/b&gt;&lt;br&gt;ATP-dependent Clp protease ATP-binding subunit&lt;br&gt;Location: 2367892 - 2366909" locus_tag="CLM75_RS10935" class="clusterblast-orf" id="dummy-6_h6_8_33"  />
</g>
<g id="a6_0034"  >
<polygon points="668,85 673,80 676,80 676,90 673,90 668,85 " style="fill:white; stroke-width:1; stroke:black; " description="&lt;b&gt;CLM75_RS10930&lt;/b&gt;&lt;br&gt;aliphatic amidase&lt;br&gt;Location: 2366905 - 2365862" locus_tag="CLM75_RS10930" class="clusterblast-orf" id="dummy-6_h6_8_34"  />
</g>
<g id="a6_0035"  >
<polygon points="676,85 679,80 679,90 676,85 " style="fill:white; stroke-width:1; stroke:black; " description="&lt;b&gt;CLM75_RS10925&lt;/b&gt;&lt;br&gt;zinc ribbon domain-containing protein&lt;br&gt;Location: 2365846 - 2365499" locus_tag="CLM75_RS10925" class="clusterblast-orf" id="dummy-6_h6_8_35"  />
</g>
<g id="a6_0036"  >
<polygon points="679,85 684,80 688,80 688,90 684,90 679,85 " style="fill:white; stroke-width:1; stroke:black; " description="&lt;b&gt;CLM75_RS10920&lt;/b&gt;&lt;br&gt;acetamidase/formamidase family protein&lt;br&gt;Location: 2365496 - 2364267" locus_tag="CLM75_RS10920" class="clusterblast-orf" id="dummy-6_h6_8_36"  />
</g>
<g id="a6_0037"  >
<polygon points="689,90 696,90 701,85 696,80 689,80 689,90 " style="fill:white; stroke-width:1; stroke:black; " description="&lt;b&gt;CLM75_RS10915&lt;/b&gt;&lt;br&gt;methyl-accepting chemotaxis protein&lt;br&gt;Location: 2364034 - 2362394" locus_tag="CLM75_RS10915" class="clusterblast-orf" id="dummy-6_h6_8_37"  />
</g>
<g id="a6_0038"  >
<polygon points="702,85 707,80 710,80 710,90 707,90 702,85 " style="fill:white; stroke-width:1; stroke:black; " description="&lt;b&gt;CLM75_RS10910&lt;/b&gt;&lt;br&gt;hypothetical protein&lt;br&gt;Location: 2362257 - 2361151" locus_tag="CLM75_RS10910" class="clusterblast-orf" id="dummy-6_h6_8_38"  />
</g>
<g id="a6_0039"  >
<polygon points="712,85 717,80 717,80 717,90 717,90 712,85 " style="fill:white; stroke-width:1; stroke:black; " description="&lt;b&gt;CLM75_RS10905&lt;/b&gt;&lt;br&gt;urea ABC transporter ATP-binding subunit UrtE&lt;br&gt;Location: 2360974 - 2360285" locus_tag="CLM75_RS10905" class="clusterblast-orf" id="dummy-6_h6_8_39"  />
</g>
<g id="a6_0040"  >
<polygon points="717,85 722,80 722,80 722,90 722,90 717,85 " style="fill:white; stroke-width:1; stroke:black; " description="&lt;b&gt;CLM75_RS10900&lt;/b&gt;&lt;br&gt;urea ABC transporter ATP-binding protein UrtD&lt;br&gt;Location: 2360274 - 2359516" locus_tag="CLM75_RS10900" class="clusterblast-orf" id="dummy-6_h6_8_40"  />
</g>
<g id="a6_0041"  >
<polygon points="722,85 727,80 731,80 731,90 727,90 722,85 " style="fill:white; stroke-width:1; stroke:black; " description="&lt;b&gt;CLM75_RS10895&lt;/b&gt;&lt;br&gt;urea ABC transporter permease subunit UrtC&lt;br&gt;Location: 2359519 - 2358356" locus_tag="CLM75_RS10895" class="clusterblast-orf" id="dummy-6_h6_8_41"  />
</g>
<g id="a6_0042"  >
<polygon points="731,85 736,80 737,80 737,90 736,90 731,85 " style="fill:white; stroke-width:1; stroke:black; " description="&lt;b&gt;CLM75_RS10890&lt;/b&gt;&lt;br&gt;urea ABC transporter permease subunit UrtB&lt;br&gt;Location: 2358345 - 2357464" locus_tag="CLM75_RS10890" class="clusterblast-orf" id="dummy-6_h6_8_42"  />
</g>
<g id="a6_0043"  >
<polygon points="739,85 744,80 748,80 748,90 744,90 739,85 " style="fill:white; stroke-width:1; stroke:black; " description="&lt;b&gt;CLM75_RS10885&lt;/b&gt;&lt;br&gt;urea ABC transporter substrate-binding protein&lt;br&gt;Location: 2357255 - 2356047" locus_tag="CLM75_RS10885" class="clusterblast-orf" id="dummy-6_h6_8_43"  />
</g>
<g id="a6_0044"  >
<polygon points="750,90 770,90 775,85 770,80 750,80 750,90 " style="fill:white; stroke-width:1; stroke:black; " description="&lt;b&gt;CLM75_RS10880&lt;/b&gt;&lt;br&gt;response regulator&lt;br&gt;Location: 2355732 - 2352349" locus_tag="CLM75_RS10880" class="clusterblast-orf" id="dummy-6_h6_8_44"  />
</g>
<g id="a6_0045"  >
<polygon points="775,90 775,90 780,85 775,80 775,80 775,90 " style="fill:white; stroke-width:1; stroke:black; " description="&lt;b&gt;CLM75_RS10875&lt;/b&gt;&lt;br&gt;response regulator&lt;br&gt;Location: 2352374 - 2351709" locus_tag="CLM75_RS10875" class="clusterblast-orf" id="dummy-6_h6_8_45"  />
</g>
</svg>
