<svg xmlns="http://www.w3.org/2000/svg" xmlns:xlink="http://www.w3.org/1999/xlink" version="1.1" x="0" y="0" height="230" width="800" viewBox="0 0 800 230" preserveAspectRatio="none"  >
<g label="Query sequence" class="clusterblast-cluster"  >
<text x="5" y="20" class="clusterblast-acc"  >
Query sequence</text>
<line x1="10" y1="35" x2="778.0" y2="35" style="stroke-width:1; stroke:grey; "  />
<polygon points="4,40 53,40 58,35 53,30 4,30 4,40 " style="fill:#d81515; stroke-width:1; stroke:black; " description="&lt;b&gt;MCIC6FC_005835&lt;/b&gt;&lt;br&gt;hypothetical protein&lt;br&gt;Location: 2047281 - 2050906" locus_tag="MCIC6FC_005835" class="clusterblast-orf" id="dummy-4_q0_0_all"  />
<polygon points="59,40 79,40 84,35 79,30 59,30 59,40 " style="fill:#6ad815; stroke-width:1; stroke:black; " description="&lt;b&gt;MCIC6FC_005836&lt;/b&gt;&lt;br&gt;hypothetical protein&lt;br&gt;Location: 2050941 - 2052611" locus_tag="MCIC6FC_005836" class="clusterblast-orf" id="dummy-4_q1_0_all"  />
<polygon points="84,40 107,40 112,35 107,30 84,30 84,40 " style="fill:#15bfd8; stroke-width:1; stroke:black; " description="&lt;b&gt;MCIC6FC_005837&lt;/b&gt;&lt;br&gt;hypothetical protein&lt;br&gt;Location: 2052634 - 2054500" locus_tag="MCIC6FC_005837" class="clusterblast-orf" id="dummy-4_q2_0_all"  />
<polygon points="114,40 122,40 127,35 122,30 114,30 114,40 " style="fill:#9d15d8; stroke-width:1; stroke:black; " description="&lt;b&gt;MCIC6FC_005838&lt;/b&gt;&lt;br&gt;hypothetical protein&lt;br&gt;Location: 2054640 - 2055468" locus_tag="MCIC6FC_005838" class="clusterblast-orf" id="dummy-4_q3_0_all"  />
<polygon points="128,35 133,30 154,30 154,40 133,40 128,35 " style="fill:#d84815; stroke-width:1; stroke:black; " description="&lt;b&gt;MCIC6FC_005839&lt;/b&gt;&lt;br&gt;hypothetical protein&lt;br&gt;Location: 2055536 - 2057256" locus_tag="MCIC6FC_005839" class="clusterblast-orf" id="dummy-4_q4_0_all"  />
<polygon points="157,35 162,30 176,30 176,40 162,40 157,35 " style="fill:#37d815; stroke-width:1; stroke:black; " description="&lt;b&gt;MCIC6FC_005840&lt;/b&gt;&lt;br&gt;hypothetical protein&lt;br&gt;Location: 2057492 - 2058741" locus_tag="MCIC6FC_005840" class="clusterblast-orf" id="dummy-4_q5_0_all"  />
<polygon points="177,35 182,30 187,30 187,40 182,40 177,35 " style="fill:#158cd8; stroke-width:1; stroke:black; " description="&lt;b&gt;MCIC6FC_005841&lt;/b&gt;&lt;br&gt;hypothetical protein&lt;br&gt;Location: 2058819 - 2059497" locus_tag="MCIC6FC_005841" class="clusterblast-orf" id="dummy-4_q6_0_all"  />
<polygon points="190,40 218,40 223,35 218,30 190,30 190,40 " style="fill:#d015d8; stroke-width:1; stroke:black; " description="&lt;b&gt;MCIC6FC_005842&lt;/b&gt;&lt;br&gt;hypothetical protein&lt;br&gt;Location: 2059651 - 2061882" locus_tag="MCIC6FC_005842" class="clusterblast-orf" id="dummy-4_q7_0_all"  />
<polygon points="224,40 235,40 240,35 235,30 224,30 224,40 " style="fill:#d015d8; stroke-width:1; stroke:black; " description="&lt;b&gt;MCIC6FC_005843&lt;/b&gt;&lt;br&gt;hypothetical protein&lt;br&gt;Location: 2061923 - 2063008" locus_tag="MCIC6FC_005843" class="clusterblast-orf" id="dummy-4_q8_0_all"  />
<polygon points="240,35 245,30 255,30 255,40 245,40 240,35 " style="fill:#d87b15; stroke-width:1; stroke:black; " description="&lt;b&gt;MCIC6FC_005844&lt;/b&gt;&lt;br&gt;hypothetical protein&lt;br&gt;Location: 2063011 - 2064018" locus_tag="MCIC6FC_005844" class="clusterblast-orf" id="dummy-4_q9_0_all"  />
<polygon points="257,35 262,30 265,30 265,40 262,40 257,35 " style="fill:#15d826; stroke-width:1; stroke:black; " description="&lt;b&gt;MCIC6FC_005845&lt;/b&gt;&lt;br&gt;hypothetical protein&lt;br&gt;Location: 2064129 - 2064652" locus_tag="MCIC6FC_005845" class="clusterblast-orf" id="dummy-4_q10_0_all"  />
<polygon points="268,35 273,30 300,30 300,40 273,40 268,35 " style="fill:#1559d8; stroke-width:1; stroke:black; " description="&lt;b&gt;MCIC6FC_005846&lt;/b&gt;&lt;br&gt;hypothetical protein&lt;br&gt;Location: 2064850 - 2067013" locus_tag="MCIC6FC_005846" class="clusterblast-orf" id="dummy-4_q11_0_all"  />
<polygon points="302,35 307,30 498,30 498,40 307,40 302,35 " style="fill:#d815ae; stroke-width:1; stroke:black; " description="&lt;b&gt;MCIC6FC_005847&lt;/b&gt;&lt;br&gt;hypothetical protein&lt;br&gt;Location: 2067133 - 2080148" locus_tag="MCIC6FC_005847" class="clusterblast-orf" id="dummy-4_q12_0_all"  />
<polygon points="504,40 507,40 512,35 507,30 504,30 504,40 " style="fill:#d8ae15; stroke-width:1; stroke:black; " description="&lt;b&gt;MCIC6FC_005848&lt;/b&gt;&lt;br&gt;hypothetical protein&lt;br&gt;Location: 2080521 - 2081070" locus_tag="MCIC6FC_005848" class="clusterblast-orf" id="dummy-4_q13_0_all"  />
<polygon points="513,35 518,30 532,30 532,40 518,40 513,35 " style="fill:#15d859; stroke-width:1; stroke:black; " description="&lt;b&gt;MCIC6FC_005849&lt;/b&gt;&lt;br&gt;hypothetical protein&lt;br&gt;Location: 2081115 - 2082375" locus_tag="MCIC6FC_005849" class="clusterblast-orf" id="dummy-4_q14_0_all"  />
<polygon points="533,35 538,30 544,30 544,40 538,40 533,35 " style="fill:#1526d8; stroke-width:1; stroke:black; " description="&lt;b&gt;MCIC6FC_005850&lt;/b&gt;&lt;br&gt;hypothetical protein&lt;br&gt;Location: 2082459 - 2083207" locus_tag="MCIC6FC_005850" class="clusterblast-orf" id="dummy-4_q15_0_all"  />
<polygon points="545,40 604,40 609,35 604,30 545,30 545,40 " style="fill:#d8157b; stroke-width:1; stroke:black; " description="&lt;b&gt;MCIC6FC_005851&lt;/b&gt;&lt;br&gt;hypothetical protein&lt;br&gt;Location: 2083275 - 2087517" locus_tag="MCIC6FC_005851" class="clusterblast-orf" id="dummy-4_q16_0_all"  />
<polygon points="610,40 635,40 640,35 635,30 610,30 610,40 " style="fill:#d0d815; stroke-width:1; stroke:black; " description="&lt;b&gt;MCIC6FC_005852&lt;/b&gt;&lt;br&gt;hypothetical protein&lt;br&gt;Location: 2087610 - 2089562" locus_tag="MCIC6FC_005852" class="clusterblast-orf" id="dummy-4_q17_0_all"  />
<polygon points="640,40 665,40 670,35 665,30 640,30 640,40 " style="fill:#15d88c; stroke-width:1; stroke:black; " description="&lt;b&gt;MCIC6FC_005853&lt;/b&gt;&lt;br&gt;hypothetical protein&lt;br&gt;Location: 2089608 - 2091564" locus_tag="MCIC6FC_005853" class="clusterblast-orf" id="dummy-4_q18_0_all"  />
<polygon points="673,40 675,40 680,35 675,30 673,30 673,40 " style="fill:#3715d8; stroke-width:1; stroke:black; " description="&lt;b&gt;MCIC6FC_005854&lt;/b&gt;&lt;br&gt;hypothetical protein&lt;br&gt;Location: 2091767 - 2092241" locus_tag="MCIC6FC_005854" class="clusterblast-orf" id="dummy-4_q19_0_all"  />
<polygon points="681,40 685,35 681,30 681,40 " style="fill:#d81548; stroke-width:1; stroke:black; " description="&lt;b&gt;MCIC6FC_005855&lt;/b&gt;&lt;br&gt;hypothetical protein&lt;br&gt;Location: 2092315 - 2092600" locus_tag="MCIC6FC_005855" class="clusterblast-orf" id="dummy-4_q20_0_all"  />
<polygon points="687,35 692,30 714,30 714,40 692,40 687,35 " style="fill:#9dd815; stroke-width:1; stroke:black; " description="&lt;b&gt;MCIC6FC_005856&lt;/b&gt;&lt;br&gt;hypothetical protein&lt;br&gt;Location: 2092677 - 2094503" locus_tag="MCIC6FC_005856" class="clusterblast-orf" id="dummy-4_q21_0_all"  />
<polygon points="722,40 755,40 760,35 755,30 722,30 722,40 " style="fill:#15d8bf; stroke-width:1; stroke:black; " description="&lt;b&gt;MCIC6FC_005857&lt;/b&gt;&lt;br&gt;hypothetical protein&lt;br&gt;Location: 2095064 - 2097589" locus_tag="MCIC6FC_005857" class="clusterblast-orf" id="dummy-4_q22_0_all"  />
<polygon points="760,35 765,30 776,30 776,40 765,40 760,35 " style="fill:#6a15d8; stroke-width:1; stroke:black; " description="&lt;b&gt;MCIC6FC_005858&lt;/b&gt;&lt;br&gt;hypothetical protein&lt;br&gt;Location: 2097590 - 2098608" locus_tag="MCIC6FC_005858" class="clusterblast-orf" id="dummy-4_q23_0_all"  />
</g>
<g label="NZ_FOAE01000002" description="NZ_FOAE01000002 (962600-1015629): Pseudomonas sp. NFACC41-3, whole genome sho... (91% of genes show similarity), NRPS" class="clusterblast-cluster"  >
<text x="5" y="70" class="clusterblast-acc"  >
<a xlink:href="https://antismash-db.secondarymetabolites.org/area.html?record=NZ_FOAE01000002&amp;start=962600&amp;end=1015629" target="_blank">NZ_FOAE01000002 (962600-1015629)</a>: Pseudomonas sp. NFACC41-3, whole genome sho... (91% of genes show similarity), NRPS</text>
<line x1="10" y1="85" x2="778.0" y2="85" style="stroke-width:1; stroke:grey; "  />
</g>
<g id="a4_000"  >
<polygon points="0,90 3,90 8,85 3,80 0,80 0,90 " style="fill:#d81515; stroke-width:1; stroke:black; " description="&lt;b&gt;BMY68_RS14090&lt;/b&gt;&lt;br&gt;hypothetical protein&lt;br&gt;Location: 1015371 - 1014799&lt;br&gt;&lt;br&gt;&lt;b&gt;BlastP hit with MCIC6FC_005835&lt;/b&gt;&lt;br&gt;Percentage identity: 77&lt;br&gt;Percentage coverage: 17&lt;br&gt;BLAST bit score: 285&lt;br&gt;E-value: 2.2e-74" locus_tag="BMY68_RS14090" class="clusterblast-orf" id="dummy-4_h4_5_0"  />
</g>
<g id="a4_001"  >
<polygon points="9,90 18,90 23,85 18,80 9,80 9,90 " style="fill:#6ad815; stroke-width:1; stroke:black; " description="&lt;b&gt;BMY68_RS14085&lt;/b&gt;&lt;br&gt;zinc ABC transporter substrate-binding protein&lt;br&gt;Location: 1014764 - 1013835&lt;br&gt;&lt;br&gt;&lt;b&gt;BlastP hit with MCIC6FC_005836&lt;/b&gt;&lt;br&gt;Percentage identity: 96&lt;br&gt;Percentage coverage: 55&lt;br&gt;BLAST bit score: 565&lt;br&gt;E-value: 7.3e-159" locus_tag="BMY68_RS14085" class="clusterblast-orf" id="dummy-4_h4_5_1"  />
</g>
<g id="a4_002"  >
<polygon points="23,90 29,90 34,85 29,80 23,80 23,90 " style="fill:#6ad815; stroke-width:1; stroke:black; " description="&lt;b&gt;BMY68_RS14080&lt;/b&gt;&lt;br&gt;metal ABC transporter ATP-binding protein&lt;br&gt;Location: 1013838 - 1013083&lt;br&gt;&lt;br&gt;&lt;b&gt;BlastP hit with MCIC6FC_005836&lt;/b&gt;&lt;br&gt;Percentage identity: 90&lt;br&gt;Percentage coverage: 44&lt;br&gt;BLAST bit score: 432&lt;br&gt;E-value: 7.3e-119" locus_tag="BMY68_RS14080" class="clusterblast-orf" id="dummy-4_h4_5_2"  />
</g>
<g id="a4_003"  >
<polygon points="34,90 42,90 47,85 42,80 34,80 34,90 " style="fill:#15bfd8; stroke-width:1; stroke:black; " description="&lt;b&gt;BMY68_RS14075&lt;/b&gt;&lt;br&gt;metal ABC transporter permease&lt;br&gt;Location: 1013083 - 1012184&lt;br&gt;&lt;br&gt;&lt;b&gt;BlastP hit with MCIC6FC_005837&lt;/b&gt;&lt;br&gt;Percentage identity: 97&lt;br&gt;Percentage coverage: 48&lt;br&gt;BLAST bit score: 441&lt;br&gt;E-value: 1.7e-121" locus_tag="BMY68_RS14075" class="clusterblast-orf" id="dummy-4_h4_5_3"  />
</g>
<g id="a4_004"  >
<polygon points="47,90 57,90 62,85 57,80 47,80 47,90 " style="fill:#15bfd8; stroke-width:1; stroke:black; " description="&lt;b&gt;BMY68_RS14070&lt;/b&gt;&lt;br&gt;zinc ABC transporter substrate-binding protein&lt;br&gt;Location: 1012183 - 1011197&lt;br&gt;&lt;br&gt;&lt;b&gt;BlastP hit with MCIC6FC_005837&lt;/b&gt;&lt;br&gt;Percentage identity: 82&lt;br&gt;Percentage coverage: 53&lt;br&gt;BLAST bit score: 489&lt;br&gt;E-value: 4.2e-136" locus_tag="BMY68_RS14070" class="clusterblast-orf" id="dummy-4_h4_5_4"  />
</g>
<g id="a4_005"  >
<polygon points="65,90 73,90 78,85 73,80 65,80 65,90 " style="fill:#9d15d8; stroke-width:1; stroke:black; " description="&lt;b&gt;BMY68_RS14065&lt;/b&gt;&lt;br&gt;class I SAM-dependent methyltransferase&lt;br&gt;Location: 1010990 - 1010163&lt;br&gt;&lt;br&gt;&lt;b&gt;BlastP hit with MCIC6FC_005838&lt;/b&gt;&lt;br&gt;Percentage identity: 74&lt;br&gt;Percentage coverage: 99&lt;br&gt;BLAST bit score: 444&lt;br&gt;E-value: 9.5e-123" locus_tag="BMY68_RS14065" class="clusterblast-orf" id="dummy-4_h4_5_5"  />
</g>
<g id="a4_006"  >
<polygon points="82,85 86,80 86,90 82,85 " style="fill:#d84815; stroke-width:1; stroke:black; " description="&lt;b&gt;BMY68_RS14060&lt;/b&gt;&lt;br&gt;MbtH family protein&lt;br&gt;Location: 1009872 - 1009648&lt;br&gt;&lt;br&gt;&lt;b&gt;BlastP hit with MCIC6FC_005839&lt;/b&gt;&lt;br&gt;Percentage identity: 96&lt;br&gt;Percentage coverage: 14&lt;br&gt;BLAST bit score: 152&lt;br&gt;E-value: 1.4e-34" locus_tag="BMY68_RS14060" class="clusterblast-orf" id="dummy-4_h4_5_6"  />
</g>
<g id="a4_007"  >
<polygon points="87,85 92,80 108,80 108,90 92,90 87,85 " style="fill:#d84815; stroke-width:1; stroke:black; " description="&lt;b&gt;BMY68_RS14055&lt;/b&gt;&lt;br&gt;aspartate aminotransferase family protein&lt;br&gt;Location: 1009566 - 1008154&lt;br&gt;&lt;br&gt;&lt;b&gt;BlastP hit with MCIC6FC_005839&lt;/b&gt;&lt;br&gt;Percentage identity: 85&lt;br&gt;Percentage coverage: 88&lt;br&gt;BLAST bit score: 776&lt;br&gt;E-value: 2e-222" locus_tag="BMY68_RS14055" class="clusterblast-orf" id="dummy-4_h4_5_7"  />
</g>
<g id="a4_008"  >
<polygon points="112,85 117,80 132,80 132,90 117,90 112,85 " style="fill:#37d815; stroke-width:1; stroke:black; " description="&lt;b&gt;BMY68_RS14050&lt;/b&gt;&lt;br&gt;sensor histidine kinase N-terminal domain-containing protein&lt;br&gt;Location: 1007880 - 1006555&lt;br&gt;&lt;br&gt;&lt;b&gt;BlastP hit with MCIC6FC_005840&lt;/b&gt;&lt;br&gt;Percentage identity: 81&lt;br&gt;Percentage coverage: 103&lt;br&gt;BLAST bit score: 651&lt;br&gt;E-value: 7.4e-185" locus_tag="BMY68_RS14050" class="clusterblast-orf" id="dummy-4_h4_5_8"  />
</g>
<g id="a4_009"  >
<polygon points="132,85 137,80 142,80 142,90 137,90 132,85 " style="fill:#158cd8; stroke-width:1; stroke:black; " description="&lt;b&gt;BMY68_RS14045&lt;/b&gt;&lt;br&gt;response regulator&lt;br&gt;Location: 1006554 - 1005877&lt;br&gt;&lt;br&gt;&lt;b&gt;BlastP hit with MCIC6FC_005841&lt;/b&gt;&lt;br&gt;Percentage identity: 96&lt;br&gt;Percentage coverage: 99&lt;br&gt;BLAST bit score: 415&lt;br&gt;E-value: 5e-114" locus_tag="BMY68_RS14045" class="clusterblast-orf" id="dummy-4_h4_5_9"  />
</g>
<g id="a4_0010"  >
<polygon points="145,90 166,90 171,85 166,80 145,80 145,90 " style="fill:#d015d8; stroke-width:1; stroke:black; " description="&lt;b&gt;BMY68_RS14040&lt;/b&gt;&lt;br&gt;protein-disulfide reductase DsbD&lt;br&gt;Location: 1005722 - 1003983&lt;br&gt;&lt;br&gt;&lt;b&gt;BlastP hit with MCIC6FC_005842&lt;/b&gt;&lt;br&gt;Percentage identity: 77&lt;br&gt;Percentage coverage: 77&lt;br&gt;BLAST bit score: 849&lt;br&gt;E-value: 2e-244" locus_tag="BMY68_RS14040" class="clusterblast-orf" id="dummy-4_h4_5_10"  />
</g>
<g id="a4_0011"  >
<polygon points="171,90 179,90 184,85 179,80 171,80 171,90 " style="fill:#d015d8; stroke-width:1; stroke:black; " description="&lt;b&gt;BMY68_RS14035&lt;/b&gt;&lt;br&gt;TlpA family protein disulfide reductase&lt;br&gt;Location: 1003983 - 1003111&lt;br&gt;&lt;br&gt;&lt;b&gt;BlastP hit with MCIC6FC_005842&lt;/b&gt;&lt;br&gt;Percentage identity: 86&lt;br&gt;Percentage coverage: 21&lt;br&gt;BLAST bit score: 271&lt;br&gt;E-value: 2.9e-70&lt;br&gt;&lt;br&gt;&lt;b&gt;BlastP hit with MCIC6FC_005843&lt;/b&gt;&lt;br&gt;Percentage identity: 86&lt;br&gt;Percentage coverage: 32&lt;br&gt;BLAST bit score: 183&lt;br&gt;E-value: 3.9e-44" locus_tag="BMY68_RS14035" class="clusterblast-orf" id="dummy-4_h4_5_11"  />
</g>
<g id="a4_0012"  >
<polygon points="184,90 190,90 195,85 190,80 184,80 184,90 " style="fill:#d015d8; stroke-width:1; stroke:black; " description="&lt;b&gt;BMY68_RS14030&lt;/b&gt;&lt;br&gt;thiol:disulfide interchange protein DsbG&lt;br&gt;Location: 1003135 - 1002368&lt;br&gt;&lt;br&gt;&lt;b&gt;BlastP hit with MCIC6FC_005843&lt;/b&gt;&lt;br&gt;Percentage identity: 81&lt;br&gt;Percentage coverage: 72&lt;br&gt;BLAST bit score: 418&lt;br&gt;E-value: 7.2e-115" locus_tag="BMY68_RS14030" class="clusterblast-orf" id="dummy-4_h4_5_12"  />
</g>
<g id="a4_0013"  >
<polygon points="196,90 242,90 247,85 242,80 196,80 196,90 " style="fill:white; stroke-width:1; stroke:black; " description="&lt;b&gt;BMY68_RS14025&lt;/b&gt;&lt;br&gt;ATP-binding protein&lt;br&gt;Location: 1002279 - 998923" locus_tag="BMY68_RS14025" class="clusterblast-orf" id="dummy-4_h4_5_13"  />
</g>
<g id="a4_0014"  >
<polygon points="249,85 254,80 255,80 255,90 254,90 249,85 " style="fill:#15d826; stroke-width:1; stroke:black; " description="&lt;b&gt;BMY68_RS14020&lt;/b&gt;&lt;br&gt;DUF3077 domain-containing protein&lt;br&gt;Location: 998792 - 998421&lt;br&gt;&lt;br&gt;&lt;b&gt;BlastP hit with MCIC6FC_005845&lt;/b&gt;&lt;br&gt;Percentage identity: 70&lt;br&gt;Percentage coverage: 84&lt;br&gt;BLAST bit score: 158&lt;br&gt;E-value: 7.2e-37" locus_tag="BMY68_RS14020" class="clusterblast-orf" id="dummy-4_h4_5_14"  />
</g>
<g id="a4_0015"  >
<polygon points="262,85 267,80 278,80 278,90 267,90 262,85 " style="fill:#1559d8; stroke-width:1; stroke:black; " description="&lt;b&gt;BMY68_RS14015&lt;/b&gt;&lt;br&gt;hypothetical protein&lt;br&gt;Location: 997916 - 996864&lt;br&gt;&lt;br&gt;&lt;b&gt;BlastP hit with MCIC6FC_005846&lt;/b&gt;&lt;br&gt;Percentage identity: 82&lt;br&gt;Percentage coverage: 50&lt;br&gt;BLAST bit score: 612&lt;br&gt;E-value: 5.1e-173" locus_tag="BMY68_RS14015" class="clusterblast-orf" id="dummy-4_h4_5_15"  />
</g>
<g id="a4_0016"  >
<polygon points="281,85 286,80 294,80 294,90 286,90 281,85 " style="fill:#d87b15; stroke-width:1; stroke:black; " description="&lt;b&gt;BMY68_RS14010&lt;/b&gt;&lt;br&gt;alpha/beta fold hydrolase&lt;br&gt;Location: 996645 - 995827&lt;br&gt;&lt;br&gt;&lt;b&gt;BlastP hit with MCIC6FC_005844&lt;/b&gt;&lt;br&gt;Percentage identity: 83&lt;br&gt;Percentage coverage: 88&lt;br&gt;BLAST bit score: 470&lt;br&gt;E-value: 1.8e-130" locus_tag="BMY68_RS14010" class="clusterblast-orf" id="dummy-4_h4_5_16"  />
</g>
<g id="a4_0017"  >
<polygon points="297,85 302,80 493,80 493,90 302,90 297,85 " style="fill:#d815ae; stroke-width:1; stroke:black; " description="&lt;b&gt;BMY68_RS14005&lt;/b&gt;&lt;br&gt;non-ribosomal peptide synthetase&lt;br&gt;Location: 995629 - 982601&lt;br&gt;&lt;br&gt;&lt;b&gt;BlastP hit with MCIC6FC_005847&lt;/b&gt;&lt;br&gt;Percentage identity: 87&lt;br&gt;Percentage coverage: 101&lt;br&gt;BLAST bit score: 7527&lt;br&gt;E-value: 0.0" locus_tag="BMY68_RS14005" class="clusterblast-orf" id="dummy-4_h4_5_17"  />
</g>
<g id="a4_0018"  >
<polygon points="498,90 501,90 506,85 501,80 498,80 498,90 " style="fill:#d8ae15; stroke-width:1; stroke:black; " description="&lt;b&gt;BMY68_RS14000&lt;/b&gt;&lt;br&gt;RNA polymerase factor sigma-70&lt;br&gt;Location: 982225 - 981677&lt;br&gt;&lt;br&gt;&lt;b&gt;BlastP hit with MCIC6FC_005848&lt;/b&gt;&lt;br&gt;Percentage identity: 96&lt;br&gt;Percentage coverage: 98&lt;br&gt;BLAST bit score: 315&lt;br&gt;E-value: 3.1e-84" locus_tag="BMY68_RS14000" class="clusterblast-orf" id="dummy-4_h4_5_18"  />
</g>
<g id="a4_0019"  >
<polygon points="507,85 512,80 514,80 514,90 512,90 507,85 " style="fill:white; stroke-width:1; stroke:black; " description="&lt;b&gt;BMY68_RS13995&lt;/b&gt;&lt;br&gt;pyoverdine biosynthesis protein&lt;br&gt;Location: 981620 - 981183" locus_tag="BMY68_RS13995" class="clusterblast-orf" id="dummy-4_h4_5_19"  />
</g>
<g id="a4_0020"  >
<polygon points="515,85 520,80 527,80 527,90 520,90 515,85 " style="fill:#15d859; stroke-width:1; stroke:black; " description="&lt;b&gt;BMY68_RS13990&lt;/b&gt;&lt;br&gt;transporter substrate-binding domain-containing protein&lt;br&gt;Location: 981099 - 980308&lt;br&gt;&lt;br&gt;&lt;b&gt;BlastP hit with MCIC6FC_005849&lt;/b&gt;&lt;br&gt;Percentage identity: 68&lt;br&gt;Percentage coverage: 66&lt;br&gt;BLAST bit score: 321&lt;br&gt;E-value: 1e-85" locus_tag="BMY68_RS13990" class="clusterblast-orf" id="dummy-4_h4_5_20"  />
</g>
<g id="a4_0021"  >
<polygon points="529,85 534,80 538,80 538,90 534,90 529,85 " style="fill:#1526d8; stroke-width:1; stroke:black; " description="&lt;b&gt;BMY68_RS13985&lt;/b&gt;&lt;br&gt;TetR family transcriptional regulator&lt;br&gt;Location: 980201 - 979605&lt;br&gt;&lt;br&gt;&lt;b&gt;BlastP hit with MCIC6FC_005850&lt;/b&gt;&lt;br&gt;Percentage identity: 91&lt;br&gt;Percentage coverage: 88&lt;br&gt;BLAST bit score: 356&lt;br&gt;E-value: 1.6e-96" locus_tag="BMY68_RS13985" class="clusterblast-orf" id="dummy-4_h4_5_21"  />
</g>
<g id="a4_0022"  >
<polygon points="541,90 563,90 568,85 563,80 541,80 541,90 " style="fill:#d8157b; stroke-width:1; stroke:black; " description="&lt;b&gt;BMY68_RS13980&lt;/b&gt;&lt;br&gt;DUF1446 domain-containing protein&lt;br&gt;Location: 979367 - 977577&lt;br&gt;&lt;br&gt;&lt;b&gt;BlastP hit with MCIC6FC_005851&lt;/b&gt;&lt;br&gt;Percentage identity: 84&lt;br&gt;Percentage coverage: 45&lt;br&gt;BLAST bit score: 1017&lt;br&gt;E-value: 1e-294" locus_tag="BMY68_RS13980" class="clusterblast-orf" id="dummy-4_h4_5_22"  />
</g>
<g id="a4_0023"  >
<polygon points="568,90 577,90 582,85 577,80 568,80 568,90 " style="fill:#d8157b; stroke-width:1; stroke:black; " description="&lt;b&gt;BMY68_RS13975&lt;/b&gt;&lt;br&gt;SDR family oxidoreductase&lt;br&gt;Location: 977564 - 976680&lt;br&gt;&lt;br&gt;&lt;b&gt;BlastP hit with MCIC6FC_005851&lt;/b&gt;&lt;br&gt;Percentage identity: 86&lt;br&gt;Percentage coverage: 19&lt;br&gt;BLAST bit score: 426&lt;br&gt;E-value: 7.6e-117" locus_tag="BMY68_RS13975" class="clusterblast-orf" id="dummy-4_h4_5_23"  />
</g>
<g id="a4_0024"  >
<polygon points="582,90 601,90 606,85 601,80 582,80 582,90 " style="fill:#d8157b; stroke-width:1; stroke:black; " description="&lt;b&gt;BMY68_RS13970&lt;/b&gt;&lt;br&gt;acyl-CoA carboxylase subunit beta&lt;br&gt;Location: 976676 - 975060&lt;br&gt;&lt;br&gt;&lt;b&gt;BlastP hit with MCIC6FC_005851&lt;/b&gt;&lt;br&gt;Percentage identity: 92&lt;br&gt;Percentage coverage: 38&lt;br&gt;BLAST bit score: 931&lt;br&gt;E-value: 1.2e-268" locus_tag="BMY68_RS13970" class="clusterblast-orf" id="dummy-4_h4_5_24"  />
</g>
<g id="a4_0025"  >
<polygon points="608,90 621,90 626,85 621,80 608,80 608,90 " style="fill:#d0d815; stroke-width:1; stroke:black; " description="&lt;b&gt;BMY68_RS13965&lt;/b&gt;&lt;br&gt;acyl-CoA/acyl-ACP dehydrogenase&lt;br&gt;Location: 974904 - 973747&lt;br&gt;&lt;br&gt;&lt;b&gt;BlastP hit with MCIC6FC_005852&lt;/b&gt;&lt;br&gt;Percentage identity: 97&lt;br&gt;Percentage coverage: 58&lt;br&gt;BLAST bit score: 717&lt;br&gt;E-value: 1e-204" locus_tag="BMY68_RS13965" class="clusterblast-orf" id="dummy-4_h4_5_25"  />
</g>
<g id="a4_0026"  >
<polygon points="626,90 633,90 638,85 633,80 626,80 626,90 " style="fill:#d0d815; stroke-width:1; stroke:black; " description="&lt;b&gt;BMY68_RS13960&lt;/b&gt;&lt;br&gt;enoyl-CoA hydratase/isomerase family protein&lt;br&gt;Location: 973750 - 972953&lt;br&gt;&lt;br&gt;&lt;b&gt;BlastP hit with MCIC6FC_005852&lt;/b&gt;&lt;br&gt;Percentage identity: 79&lt;br&gt;Percentage coverage: 42&lt;br&gt;BLAST bit score: 391&lt;br&gt;E-value: 2.2e-106" locus_tag="BMY68_RS13960" class="clusterblast-orf" id="dummy-4_h4_5_26"  />
</g>
<g id="a4_0027"  >
<polygon points="639,90 664,90 669,85 664,80 639,80 639,90 " style="fill:#15d88c; stroke-width:1; stroke:black; " description="&lt;b&gt;BMY68_RS13955&lt;/b&gt;&lt;br&gt;acetyl/propionyl/methylcrotonyl-CoA carboxylase subunit alpha&lt;br&gt;Location: 972837 - 970879&lt;br&gt;&lt;br&gt;&lt;b&gt;BlastP hit with MCIC6FC_005853&lt;/b&gt;&lt;br&gt;Percentage identity: 80&lt;br&gt;Percentage coverage: 100&lt;br&gt;BLAST bit score: 1008&lt;br&gt;E-value: 3.9e-292" locus_tag="BMY68_RS13955" class="clusterblast-orf" id="dummy-4_h4_5_27"  />
</g>
<g id="a4_0028"  >
<polygon points="670,90 673,90 678,85 673,80 670,80 670,90 " style="fill:#3715d8; stroke-width:1; stroke:black; " description="&lt;b&gt;BMY68_RS13950&lt;/b&gt;&lt;br&gt;3'-5' exoribonuclease&lt;br&gt;Location: 970809 - 970267&lt;br&gt;&lt;br&gt;&lt;b&gt;BlastP hit with MCIC6FC_005854&lt;/b&gt;&lt;br&gt;Percentage identity: 87&lt;br&gt;Percentage coverage: 100&lt;br&gt;BLAST bit score: 285&lt;br&gt;E-value: 3.2e-75" locus_tag="BMY68_RS13950" class="clusterblast-orf" id="dummy-4_h4_5_28"  />
</g>
<g id="a4_0029"  >
<polygon points="679,90 679,90 684,85 679,80 679,80 679,90 " style="fill:#d81548; stroke-width:1; stroke:black; " description="&lt;b&gt;BMY68_RS13945&lt;/b&gt;&lt;br&gt;pyrimidine/purine nucleoside phosphorylase&lt;br&gt;Location: 970184 - 969900&lt;br&gt;&lt;br&gt;&lt;b&gt;BlastP hit with MCIC6FC_005855&lt;/b&gt;&lt;br&gt;Percentage identity: 96&lt;br&gt;Percentage coverage: 100&lt;br&gt;BLAST bit score: 188&lt;br&gt;E-value: 2.5e-46" locus_tag="BMY68_RS13945" class="clusterblast-orf" id="dummy-4_h4_5_29"  />
</g>
<g id="a4_0030"  >
<polygon points="685,85 690,80 697,80 697,90 690,90 685,85 " style="fill:#9dd815; stroke-width:1; stroke:black; " description="&lt;b&gt;BMY68_RS13940&lt;/b&gt;&lt;br&gt;MOSC domain-containing protein&lt;br&gt;Location: 969815 - 969012&lt;br&gt;&lt;br&gt;&lt;b&gt;BlastP hit with MCIC6FC_005856&lt;/b&gt;&lt;br&gt;Percentage identity: 80&lt;br&gt;Percentage coverage: 48&lt;br&gt;BLAST bit score: 434&lt;br&gt;E-value: 2e-119" locus_tag="BMY68_RS13940" class="clusterblast-orf" id="dummy-4_h4_5_30"  />
</g>
<g id="a4_0031"  >
<polygon points="699,85 704,80 713,80 713,90 704,90 699,85 " style="fill:#9dd815; stroke-width:1; stroke:black; " description="&lt;b&gt;BMY68_RS13935&lt;/b&gt;&lt;br&gt;chemotaxis protein CheV&lt;br&gt;Location: 968912 - 967977&lt;br&gt;&lt;br&gt;&lt;b&gt;BlastP hit with MCIC6FC_005856&lt;/b&gt;&lt;br&gt;Percentage identity: 97&lt;br&gt;Percentage coverage: 55&lt;br&gt;BLAST bit score: 591&lt;br&gt;E-value: 9.8e-167" locus_tag="BMY68_RS13935" class="clusterblast-orf" id="dummy-4_h4_5_31"  />
</g>
<g id="a4_0032"  >
<polygon points="721,90 723,90 728,85 723,80 721,80 721,90 " style="fill:#15d8bf; stroke-width:1; stroke:black; " description="&lt;b&gt;BMY68_RS13930&lt;/b&gt;&lt;br&gt;hypothetical protein&lt;br&gt;Location: 967437 - 966970&lt;br&gt;&lt;br&gt;&lt;b&gt;BlastP hit with MCIC6FC_005857&lt;/b&gt;&lt;br&gt;Percentage identity: 54&lt;br&gt;Percentage coverage: 19&lt;br&gt;BLAST bit score: 128&lt;br&gt;E-value: 3.6e-27" locus_tag="BMY68_RS13930" class="clusterblast-orf" id="dummy-4_h4_5_32"  />
</g>
<g id="a4_0033"  >
<polygon points="735,90 744,90 749,85 744,80 735,80 735,90 " style="fill:#15d8bf; stroke-width:1; stroke:black; " description="&lt;b&gt;BMY68_RS13925&lt;/b&gt;&lt;br&gt;sensor histidine kinase&lt;br&gt;Location: 966465 - 965572&lt;br&gt;&lt;br&gt;&lt;b&gt;BlastP hit with MCIC6FC_005857&lt;/b&gt;&lt;br&gt;Percentage identity: 78&lt;br&gt;Percentage coverage: 40&lt;br&gt;BLAST bit score: 401&lt;br&gt;E-value: 1.7e-109" locus_tag="BMY68_RS13925" class="clusterblast-orf" id="dummy-4_h4_5_33"  />
</g>
<g id="a4_0034"  >
<polygon points="749,90 754,90 759,85 754,80 749,80 749,90 " style="fill:#15d8bf; stroke-width:1; stroke:black; " description="&lt;b&gt;BMY68_RS13920&lt;/b&gt;&lt;br&gt;response regulator transcription factor&lt;br&gt;Location: 965575 - 964916&lt;br&gt;&lt;br&gt;&lt;b&gt;BlastP hit with MCIC6FC_005857&lt;/b&gt;&lt;br&gt;Percentage identity: 84&lt;br&gt;Percentage coverage: 31&lt;br&gt;BLAST bit score: 331&lt;br&gt;E-value: 2.8e-88" locus_tag="BMY68_RS13920" class="clusterblast-orf" id="dummy-4_h4_5_34"  />
</g>
<g id="a4_0035"  >
<polygon points="759,85 764,80 772,80 772,90 764,90 759,85 " style="fill:#6a15d8; stroke-width:1; stroke:black; " description="&lt;b&gt;BMY68_RS13915&lt;/b&gt;&lt;br&gt;lipid kinase YegS&lt;br&gt;Location: 964919 - 964017&lt;br&gt;&lt;br&gt;&lt;b&gt;BlastP hit with MCIC6FC_005858&lt;/b&gt;&lt;br&gt;Percentage identity: 84&lt;br&gt;Percentage coverage: 95&lt;br&gt;BLAST bit score: 479&lt;br&gt;E-value: 2.3e-133" locus_tag="BMY68_RS13915" class="clusterblast-orf" id="dummy-4_h4_5_35"  />
</g>
<g id="a4_0036"  >
<polygon points="776,90 780,85 776,80 776,90 " style="fill:white; stroke-width:1; stroke:black; " description="&lt;b&gt;BMY68_RS13910&lt;/b&gt;&lt;br&gt;hypothetical protein&lt;br&gt;Location: 963792 - 963529" locus_tag="BMY68_RS13910" class="clusterblast-orf" id="dummy-4_h4_5_36"  />
</g>
</svg>
