<svg xmlns="http://www.w3.org/2000/svg" xmlns:xlink="http://www.w3.org/1999/xlink" version="1.1" x="0" y="0" height="230" width="800" viewBox="0 0 800 230" preserveAspectRatio="none"  >
<g label="Query sequence" class="clusterblast-cluster"  >
<text x="5" y="20" class="clusterblast-acc"  >
Query sequence</text>
<line x1="10" y1="35" x2="778.0" y2="35" style="stroke-width:1; stroke:grey; "  />
<polygon points="0,40 2,40 7,35 2,30 0,30 0,40 " style="fill:white; stroke-width:1; stroke:black; " description="&lt;b&gt;MCIC6FC_007710&lt;/b&gt;&lt;br&gt;hypothetical protein&lt;br&gt;Location: 1251208 - 1251795" locus_tag="MCIC6FC_007710" class="clusterblast-orf" id="dummy-5_q0_0_all"  />
<polygon points="13,35 18,30 22,30 22,40 18,40 13,35 " style="fill:white; stroke-width:1; stroke:black; " description="&lt;b&gt;MCIC6FC_007711&lt;/b&gt;&lt;br&gt;hypothetical protein&lt;br&gt;Location: 1252265 - 1252994" locus_tag="MCIC6FC_007711" class="clusterblast-orf" id="dummy-5_q1_0_all"  />
<polygon points="23,35 28,30 36,30 36,40 28,40 23,35 " style="fill:white; stroke-width:1; stroke:black; " description="&lt;b&gt;MCIC6FC_007712&lt;/b&gt;&lt;br&gt;hypothetical protein&lt;br&gt;Location: 1253061 - 1254061" locus_tag="MCIC6FC_007712" class="clusterblast-orf" id="dummy-5_q2_0_all"  />
<polygon points="36,35 41,30 84,30 84,40 41,40 36,35 " style="fill:white; stroke-width:1; stroke:black; " description="&lt;b&gt;MCIC6FC_007713&lt;/b&gt;&lt;br&gt;hypothetical protein&lt;br&gt;Location: 1254097 - 1257816" locus_tag="MCIC6FC_007713" class="clusterblast-orf" id="dummy-5_q3_0_all"  />
<polygon points="84,35 89,30 123,30 123,40 89,40 84,35 " style="fill:white; stroke-width:1; stroke:black; " description="&lt;b&gt;MCIC6FC_007714&lt;/b&gt;&lt;br&gt;hypothetical protein&lt;br&gt;Location: 1257838 - 1260920" locus_tag="MCIC6FC_007714" class="clusterblast-orf" id="dummy-5_q4_0_all"  />
<polygon points="126,40 133,40 138,35 133,30 126,30 126,40 " style="fill:white; stroke-width:1; stroke:black; " description="&lt;b&gt;MCIC6FC_007715&lt;/b&gt;&lt;br&gt;hypothetical protein&lt;br&gt;Location: 1261154 - 1262081" locus_tag="MCIC6FC_007715" class="clusterblast-orf" id="dummy-5_q5_0_all"  />
<polygon points="140,40 151,40 156,35 151,30 140,30 140,40 " style="fill:white; stroke-width:1; stroke:black; " description="&lt;b&gt;MCIC6FC_007716&lt;/b&gt;&lt;br&gt;hypothetical protein&lt;br&gt;Location: 1262205 - 1263495" locus_tag="MCIC6FC_007716" class="clusterblast-orf" id="dummy-5_q6_0_all"  />
<polygon points="157,40 179,40 184,35 179,30 157,30 157,40 " style="fill:white; stroke-width:1; stroke:black; " description="&lt;b&gt;MCIC6FC_007717&lt;/b&gt;&lt;br&gt;hypothetical protein&lt;br&gt;Location: 1263560 - 1265662" locus_tag="MCIC6FC_007717" class="clusterblast-orf" id="dummy-5_q7_0_all"  />
<polygon points="184,40 184,40 189,35 184,30 184,30 184,40 " style="fill:white; stroke-width:1; stroke:black; " description="&lt;b&gt;MCIC6FC_007718&lt;/b&gt;&lt;br&gt;hypothetical protein&lt;br&gt;Location: 1265670 - 1266063" locus_tag="MCIC6FC_007718" class="clusterblast-orf" id="dummy-5_q8_0_all"  />
<polygon points="190,35 195,30 229,30 229,40 195,40 190,35 " style="fill:#d81515; stroke-width:1; stroke:black; " description="&lt;b&gt;MCIC6FC_007719&lt;/b&gt;&lt;br&gt;hypothetical protein&lt;br&gt;Location: 1266108 - 1269198" locus_tag="MCIC6FC_007719" class="clusterblast-orf" id="dummy-5_q9_0_all"  />
<polygon points="234,40 240,40 245,35 240,30 234,30 234,40 " style="fill:white; stroke-width:1; stroke:black; " description="&lt;b&gt;MCIC6FC_007720&lt;/b&gt;&lt;br&gt;hypothetical protein&lt;br&gt;Location: 1269625 - 1270453" locus_tag="MCIC6FC_007720" class="clusterblast-orf" id="dummy-5_q10_0_all"  />
<polygon points="245,35 250,30 577,30 577,40 250,40 245,35 " style="fill:#77d815; stroke-width:1; stroke:black; " description="&lt;b&gt;MCIC6FC_007721&lt;/b&gt;&lt;br&gt;hypothetical protein&lt;br&gt;Location: 1270497 - 1296529" locus_tag="MCIC6FC_007721" class="clusterblast-orf" id="dummy-5_q11_0_all"  />
<polygon points="580,40 606,40 611,35 606,30 580,30 580,40 " style="fill:#15d8d8; stroke-width:1; stroke:black; " description="&lt;b&gt;MCIC6FC_007722&lt;/b&gt;&lt;br&gt;hypothetical protein&lt;br&gt;Location: 1296753 - 1299161" locus_tag="MCIC6FC_007722" class="clusterblast-orf" id="dummy-5_q12_0_all"  />
<polygon points="612,40 627,40 632,35 627,30 612,30 612,40 " style="fill:#7715d8; stroke-width:1; stroke:black; " description="&lt;b&gt;MCIC6FC_007723&lt;/b&gt;&lt;br&gt;hypothetical protein&lt;br&gt;Location: 1299241 - 1300860" locus_tag="MCIC6FC_007723" class="clusterblast-orf" id="dummy-5_q13_0_all"  />
<polygon points="633,40 713,40 718,35 713,30 633,30 633,40 " style="fill:#d8a715; stroke-width:1; stroke:black; " description="&lt;b&gt;MCIC6FC_007724&lt;/b&gt;&lt;br&gt;hypothetical protein&lt;br&gt;Location: 1300944 - 1307573" locus_tag="MCIC6FC_007724" class="clusterblast-orf" id="dummy-5_q14_0_all"  />
<polygon points="719,40 724,40 729,35 724,30 719,30 719,40 " style="fill:#15d846; stroke-width:1; stroke:black; " description="&lt;b&gt;MCIC6FC_007725&lt;/b&gt;&lt;br&gt;hypothetical protein&lt;br&gt;Location: 1307635 - 1308442" locus_tag="MCIC6FC_007725" class="clusterblast-orf" id="dummy-5_q15_0_all"  />
<polygon points="730,40 738,40 743,35 738,30 730,30 730,40 " style="fill:#1546d8; stroke-width:1; stroke:black; " description="&lt;b&gt;MCIC6FC_007726&lt;/b&gt;&lt;br&gt;hypothetical protein&lt;br&gt;Location: 1308493 - 1309537" locus_tag="MCIC6FC_007726" class="clusterblast-orf" id="dummy-5_q16_0_all"  />
<polygon points="743,40 775,40 780,35 775,30 743,30 743,40 " style="fill:#d815a7; stroke-width:1; stroke:black; " description="&lt;b&gt;MCIC6FC_007727&lt;/b&gt;&lt;br&gt;hypothetical protein&lt;br&gt;Location: 1309578 - 1312417" locus_tag="MCIC6FC_007727" class="clusterblast-orf" id="dummy-5_q17_0_all"  />
</g>
<g label="NZ_JACHKW010000004" description="NZ_JACHKW010000004 (222651-275168): Pseudomonas rhodesiae strain S00114 Ga043... (42% of genes show similarity), NRPS" class="clusterblast-cluster"  >
<text x="5" y="70" class="clusterblast-acc"  >
<a xlink:href="https://antismash-db.secondarymetabolites.org/area.html?record=NZ_JACHKW010000004&amp;start=222651&amp;end=275168" target="_blank">NZ_JACHKW010000004 (222651-275168)</a>: Pseudomonas rhodesiae strain S00114 Ga043... (42% of genes show similarity), NRPS</text>
<line x1="10" y1="85" x2="778.0" y2="85" style="stroke-width:1; stroke:grey; "  />
</g>
<g id="a5_000"  >
<polygon points="64,85 69,80 77,80 77,90 69,90 64,85 " style="fill:white; stroke-width:1; stroke:black; " description="&lt;b&gt;HNP03_RS13470&lt;/b&gt;&lt;br&gt;undecaprenyl-phosphate 4-deoxy-4-formamido-L-arabinose transferase&lt;br&gt;Location: 273822 - 272791" locus_tag="HNP03_RS13470" class="clusterblast-orf" id="dummy-5_h5_9_0"  />
</g>
<g id="a5_001"  >
<polygon points="82,90 87,90 92,85 87,80 82,80 82,90 " style="fill:white; stroke-width:1; stroke:black; " description="&lt;b&gt;HNP03_RS13465&lt;/b&gt;&lt;br&gt;hypothetical protein&lt;br&gt;Location: 272387 - 271575" locus_tag="HNP03_RS13465" class="clusterblast-orf" id="dummy-5_h5_9_1"  />
</g>
<g id="a5_002"  >
<polygon points="94,90 100,90 105,85 100,80 94,80 94,90 " style="fill:white; stroke-width:1; stroke:black; " description="&lt;b&gt;HNP03_RS13460&lt;/b&gt;&lt;br&gt;tyrosine-type recombinase/integrase&lt;br&gt;Location: 271466 - 270552" locus_tag="HNP03_RS13460" class="clusterblast-orf" id="dummy-5_h5_9_2"  />
</g>
<g id="a5_003"  >
<polygon points="105,85 110,80 116,80 116,90 110,90 105,85 " style="fill:white; stroke-width:1; stroke:black; " description="&lt;b&gt;HNP03_RS13455&lt;/b&gt;&lt;br&gt;SDR family oxidoreductase&lt;br&gt;Location: 270546 - 269689" locus_tag="HNP03_RS13455" class="clusterblast-orf" id="dummy-5_h5_9_3"  />
</g>
<g id="a5_004"  >
<polygon points="118,85 123,80 133,80 133,90 123,90 118,85 " style="fill:white; stroke-width:1; stroke:black; " description="&lt;b&gt;HNP03_RS13450&lt;/b&gt;&lt;br&gt;multidrug effflux MFS transporter&lt;br&gt;Location: 269588 - 268380" locus_tag="HNP03_RS13450" class="clusterblast-orf" id="dummy-5_h5_9_4"  />
</g>
<g id="a5_005"  >
<polygon points="135,90 151,90 156,85 151,80 135,80 135,90 " style="fill:white; stroke-width:1; stroke:black; " description="&lt;b&gt;HNP03_RS13445&lt;/b&gt;&lt;br&gt;methyl-accepting chemotaxis protein&lt;br&gt;Location: 268221 - 266608" locus_tag="HNP03_RS13445" class="clusterblast-orf" id="dummy-5_h5_9_5"  />
</g>
<g id="a5_006"  >
<polygon points="156,85 161,80 161,80 161,90 161,90 156,85 " style="fill:white; stroke-width:1; stroke:black; " description="&lt;b&gt;HNP03_RS13440&lt;/b&gt;&lt;br&gt;helix-turn-helix transcriptional regulator&lt;br&gt;Location: 266540 - 266181" locus_tag="HNP03_RS13440" class="clusterblast-orf" id="dummy-5_h5_9_6"  />
</g>
<g id="a5_007"  >
<polygon points="162,90 167,90 172,85 167,80 162,80 162,90 " style="fill:white; stroke-width:1; stroke:black; " description="&lt;b&gt;HNP03_RS13435&lt;/b&gt;&lt;br&gt;glucose 1-dehydrogenase&lt;br&gt;Location: 266082 - 265333" locus_tag="HNP03_RS13435" class="clusterblast-orf" id="dummy-5_h5_9_7"  />
</g>
<g id="a5_008"  >
<polygon points="178,85 183,80 194,80 194,90 183,90 178,85 " style="fill:white; stroke-width:1; stroke:black; " description="&lt;b&gt;HNP03_RS13430&lt;/b&gt;&lt;br&gt;RhtX/FptX family siderophore transporter&lt;br&gt;Location: 264852 - 263626" locus_tag="HNP03_RS13430" class="clusterblast-orf" id="dummy-5_h5_9_8"  />
</g>
<g id="a5_009"  >
<polygon points="194,85 199,80 213,80 213,90 199,90 194,85 " style="fill:white; stroke-width:1; stroke:black; " description="&lt;b&gt;HNP03_RS13425&lt;/b&gt;&lt;br&gt;PepSY domain-containing protein&lt;br&gt;Location: 263612 - 262131" locus_tag="HNP03_RS13425" class="clusterblast-orf" id="dummy-5_h5_9_9"  />
</g>
<g id="a5_0010"  >
<polygon points="213,85 216,80 216,90 213,85 " style="fill:white; stroke-width:1; stroke:black; " description="&lt;b&gt;HNP03_RS13420&lt;/b&gt;&lt;br&gt;hypothetical protein&lt;br&gt;Location: 262125 - 261844" locus_tag="HNP03_RS13420" class="clusterblast-orf" id="dummy-5_h5_9_10"  />
</g>
<g id="a5_0011"  >
<polygon points="216,85 221,80 243,80 243,90 221,90 216,85 " style="fill:white; stroke-width:1; stroke:black; " description="&lt;b&gt;HNP03_RS13415&lt;/b&gt;&lt;br&gt;TonB-dependent siderophore receptor&lt;br&gt;Location: 261844 - 259772" locus_tag="HNP03_RS13415" class="clusterblast-orf" id="dummy-5_h5_9_11"  />
</g>
<g id="a5_0012"  >
<polygon points="244,85 249,80 266,80 266,90 249,90 244,85 " style="fill:white; stroke-width:1; stroke:black; " description="&lt;b&gt;HNP03_RS13410&lt;/b&gt;&lt;br&gt;ABC transporter ATP-binding protein&lt;br&gt;Location: 259629 - 257935" locus_tag="HNP03_RS13410" class="clusterblast-orf" id="dummy-5_h5_9_12"  />
</g>
<g id="a5_0013"  >
<polygon points="266,85 271,80 288,80 288,90 271,90 266,85 " style="fill:white; stroke-width:1; stroke:black; " description="&lt;b&gt;HNP03_RS13405&lt;/b&gt;&lt;br&gt;ABC transporter ATP-binding protein&lt;br&gt;Location: 257938 - 256211" locus_tag="HNP03_RS13405" class="clusterblast-orf" id="dummy-5_h5_9_13"  />
</g>
<g id="a5_0014"  >
<polygon points="288,85 293,80 301,80 301,90 293,90 288,85 " style="fill:white; stroke-width:1; stroke:black; " description="&lt;b&gt;HNP03_RS13400&lt;/b&gt;&lt;br&gt;Gfo/Idh/MocA family oxidoreductase&lt;br&gt;Location: 256214 - 255165" locus_tag="HNP03_RS13400" class="clusterblast-orf" id="dummy-5_h5_9_14"  />
</g>
<g id="a5_0015"  >
<polygon points="301,85 306,80 369,80 369,90 306,90 301,85 " style="fill:#77d815; stroke-width:1; stroke:black; " description="&lt;b&gt;HNP03_RS13395&lt;/b&gt;&lt;br&gt;amino acid adenylation domain-containing protein&lt;br&gt;Location: 255168 - 249847&lt;br&gt;&lt;br&gt;&lt;b&gt;BlastP hit with MCIC6FC_007721&lt;/b&gt;&lt;br&gt;Percentage identity: 88&lt;br&gt;Percentage coverage: 21&lt;br&gt;BLAST bit score: 3030&lt;br&gt;E-value: 0.0" locus_tag="HNP03_RS13395" class="clusterblast-orf" id="dummy-5_h5_9_15"  />
</g>
<g id="a5_0016"  >
<polygon points="369,85 374,80 423,80 423,90 374,90 369,85 " style="fill:#77d815; stroke-width:1; stroke:black; " description="&lt;b&gt;HNP03_RS13390&lt;/b&gt;&lt;br&gt;amino acid adenylation domain-containing protein&lt;br&gt;Location: 249850 - 245579&lt;br&gt;&lt;br&gt;&lt;b&gt;BlastP hit with MCIC6FC_007721&lt;/b&gt;&lt;br&gt;Percentage identity: 84&lt;br&gt;Percentage coverage: 17&lt;br&gt;BLAST bit score: 2353&lt;br&gt;E-value: 0.0" locus_tag="HNP03_RS13390" class="clusterblast-orf" id="dummy-5_h5_9_16"  />
</g>
<g id="a5_0017"  >
<polygon points="425,85 430,80 437,80 437,90 430,90 425,85 " style="fill:white; stroke-width:1; stroke:black; " description="&lt;b&gt;HNP03_RS13385&lt;/b&gt;&lt;br&gt;helix-turn-helix domain-containing protein&lt;br&gt;Location: 245423 - 244530" locus_tag="HNP03_RS13385" class="clusterblast-orf" id="dummy-5_h5_9_17"  />
</g>
<g id="a5_0018"  >
<polygon points="440,90 456,90 461,85 456,80 440,80 440,90 " style="fill:#15d8d8; stroke-width:1; stroke:black; " description="&lt;b&gt;HNP03_RS13380&lt;/b&gt;&lt;br&gt;AMP-binding protein&lt;br&gt;Location: 244307 - 242652&lt;br&gt;&lt;br&gt;&lt;b&gt;BlastP hit with MCIC6FC_007722&lt;/b&gt;&lt;br&gt;Percentage identity: 90&lt;br&gt;Percentage coverage: 71&lt;br&gt;BLAST bit score: 1010&lt;br&gt;E-value: 1.2e-292" locus_tag="HNP03_RS13380" class="clusterblast-orf" id="dummy-5_h5_9_18"  />
</g>
<g id="a5_0019"  >
<polygon points="461,90 466,90 471,85 466,80 461,80 461,90 " style="fill:#15d8d8; stroke-width:1; stroke:black; " description="&lt;b&gt;HNP03_RS13375&lt;/b&gt;&lt;br&gt;thioesterase&lt;br&gt;Location: 242607 - 241885&lt;br&gt;&lt;br&gt;&lt;b&gt;BlastP hit with MCIC6FC_007722&lt;/b&gt;&lt;br&gt;Percentage identity: 88&lt;br&gt;Percentage coverage: 29&lt;br&gt;BLAST bit score: 413&lt;br&gt;E-value: 5e-113" locus_tag="HNP03_RS13375" class="clusterblast-orf" id="dummy-5_h5_9_19"  />
</g>
<g id="a5_0020"  >
<polygon points="471,90 474,85 471,80 471,90 " style="fill:#7715d8; stroke-width:1; stroke:black; " description="&lt;b&gt;HNP03_RS13370&lt;/b&gt;&lt;br&gt;isochorismate lyase&lt;br&gt;Location: 241888 - 241583&lt;br&gt;&lt;br&gt;&lt;b&gt;BlastP hit with MCIC6FC_007723&lt;/b&gt;&lt;br&gt;Percentage identity: 97&lt;br&gt;Percentage coverage: 11&lt;br&gt;BLAST bit score: 112&lt;br&gt;E-value: 1.7e-22" locus_tag="HNP03_RS13370" class="clusterblast-orf" id="dummy-5_h5_9_20"  />
</g>
<g id="a5_0021"  >
<polygon points="474,90 487,90 492,85 487,80 474,80 474,90 " style="fill:#7715d8; stroke-width:1; stroke:black; " description="&lt;b&gt;HNP03_RS13365&lt;/b&gt;&lt;br&gt;isochorismate synthase&lt;br&gt;Location: 241586 - 240189&lt;br&gt;&lt;br&gt;&lt;b&gt;BlastP hit with MCIC6FC_007723&lt;/b&gt;&lt;br&gt;Percentage identity: 84&lt;br&gt;Percentage coverage: 87&lt;br&gt;BLAST bit score: 815&lt;br&gt;E-value: 4e-234" locus_tag="HNP03_RS13365" class="clusterblast-orf" id="dummy-5_h5_9_21"  />
</g>
<g id="a5_0022"  >
<polygon points="493,90 498,90 503,85 498,80 493,80 493,90 " style="fill:#d8a715; stroke-width:1; stroke:black; " description="&lt;b&gt;HNP03_RS13360&lt;/b&gt;&lt;br&gt;helix-turn-helix transcriptional regulator&lt;br&gt;Location: 240104 - 239376&lt;br&gt;&lt;br&gt;&lt;b&gt;BlastP hit with MCIC6FC_007724&lt;/b&gt;&lt;br&gt;Percentage identity: 91&lt;br&gt;Percentage coverage: 12&lt;br&gt;BLAST bit score: 435&lt;br&gt;E-value: 3.3e-119" locus_tag="HNP03_RS13360" class="clusterblast-orf" id="dummy-5_h5_9_22"  />
</g>
<g id="a5_0023"  >
<polygon points="505,90 513,90 518,85 513,80 505,80 505,90 " style="fill:#d8a715; stroke-width:1; stroke:black; " description="&lt;b&gt;HNP03_RS13355&lt;/b&gt;&lt;br&gt;SDR family oxidoreductase&lt;br&gt;Location: 239192 - 238128&lt;br&gt;&lt;br&gt;&lt;b&gt;BlastP hit with MCIC6FC_007724&lt;/b&gt;&lt;br&gt;Percentage identity: 90&lt;br&gt;Percentage coverage: 16&lt;br&gt;BLAST bit score: 611&lt;br&gt;E-value: 4.4e-172" locus_tag="HNP03_RS13355" class="clusterblast-orf" id="dummy-5_h5_9_23"  />
</g>
<g id="a5_0024"  >
<polygon points="518,90 529,90 534,85 529,80 518,80 518,90 " style="fill:#d8a715; stroke-width:1; stroke:black; " description="&lt;b&gt;HNP03_RS13350&lt;/b&gt;&lt;br&gt;aspartate aminotransferase family protein&lt;br&gt;Location: 238131 - 236872&lt;br&gt;&lt;br&gt;&lt;b&gt;BlastP hit with MCIC6FC_007724&lt;/b&gt;&lt;br&gt;Percentage identity: 93&lt;br&gt;Percentage coverage: 20&lt;br&gt;BLAST bit score: 754&lt;br&gt;E-value: 3.2e-215" locus_tag="HNP03_RS13350" class="clusterblast-orf" id="dummy-5_h5_9_24"  />
</g>
<g id="a5_0025"  >
<polygon points="535,90 535,90 540,85 535,80 535,80 535,90 " style="fill:white; stroke-width:1; stroke:black; " description="&lt;b&gt;HNP03_RS13345&lt;/b&gt;&lt;br&gt;SRPBCC family protein&lt;br&gt;Location: 236857 - 236414" locus_tag="HNP03_RS13345" class="clusterblast-orf" id="dummy-5_h5_9_25"  />
</g>
<g id="a5_0026"  >
<polygon points="540,90 550,90 555,85 550,80 540,80 540,90 " style="fill:#d8a715; stroke-width:1; stroke:black; " description="&lt;b&gt;HNP03_RS13340&lt;/b&gt;&lt;br&gt;acyl-CoA/acyl-ACP dehydrogenase&lt;br&gt;Location: 236410 - 235268&lt;br&gt;&lt;br&gt;&lt;b&gt;BlastP hit with MCIC6FC_007724&lt;/b&gt;&lt;br&gt;Percentage identity: 94&lt;br&gt;Percentage coverage: 16&lt;br&gt;BLAST bit score: 603&lt;br&gt;E-value: 7e-170" locus_tag="HNP03_RS13340" class="clusterblast-orf" id="dummy-5_h5_9_26"  />
</g>
<g id="a5_0027"  >
<polygon points="555,90 560,90 565,85 560,80 555,80 555,90 " style="fill:#d8a715; stroke-width:1; stroke:black; " description="&lt;b&gt;HNP03_RS13335&lt;/b&gt;&lt;br&gt;SDR family NAD(P)-dependent oxidoreductase&lt;br&gt;Location: 235271 - 234444&lt;br&gt;&lt;br&gt;&lt;b&gt;BlastP hit with MCIC6FC_007724&lt;/b&gt;&lt;br&gt;Percentage identity: 92&lt;br&gt;Percentage coverage: 13&lt;br&gt;BLAST bit score: 489&lt;br&gt;E-value: 1.5e-135" locus_tag="HNP03_RS13335" class="clusterblast-orf" id="dummy-5_h5_9_27"  />
</g>
<g id="a5_0028"  >
<polygon points="566,90 573,90 578,85 573,80 566,80 566,90 " style="fill:#d8a715; stroke-width:1; stroke:black; " description="&lt;b&gt;HNP03_RS13330&lt;/b&gt;&lt;br&gt;fatty acid desaturase&lt;br&gt;Location: 234433 - 233477&lt;br&gt;&lt;br&gt;&lt;b&gt;BlastP hit with MCIC6FC_007724&lt;/b&gt;&lt;br&gt;Percentage identity: 82&lt;br&gt;Percentage coverage: 15&lt;br&gt;BLAST bit score: 530&lt;br&gt;E-value: 7.6e-148" locus_tag="HNP03_RS13330" class="clusterblast-orf" id="dummy-5_h5_9_28"  />
</g>
<g id="a5_0029"  >
<polygon points="578,90 584,90 589,85 584,80 578,80 578,90 " style="fill:#15d846; stroke-width:1; stroke:black; " description="&lt;b&gt;HNP03_RS13325&lt;/b&gt;&lt;br&gt;DUF3050 domain-containing protein&lt;br&gt;Location: 233419 - 232619&lt;br&gt;&lt;br&gt;&lt;b&gt;BlastP hit with MCIC6FC_007725&lt;/b&gt;&lt;br&gt;Percentage identity: 95&lt;br&gt;Percentage coverage: 97&lt;br&gt;BLAST bit score: 506&lt;br&gt;E-value: 1.5e-141" locus_tag="HNP03_RS13325" class="clusterblast-orf" id="dummy-5_h5_9_29"  />
</g>
<g id="a5_0030"  >
<polygon points="589,90 597,90 602,85 597,80 589,80 589,90 " style="fill:#1546d8; stroke-width:1; stroke:black; " description="&lt;b&gt;HNP03_RS13320&lt;/b&gt;&lt;br&gt;HlyD family secretion protein&lt;br&gt;Location: 232602 - 231535&lt;br&gt;&lt;br&gt;&lt;b&gt;BlastP hit with MCIC6FC_007726&lt;/b&gt;&lt;br&gt;Percentage identity: 90&lt;br&gt;Percentage coverage: 100&lt;br&gt;BLAST bit score: 587&lt;br&gt;E-value: 1.1e-165" locus_tag="HNP03_RS13320" class="clusterblast-orf" id="dummy-5_h5_9_30"  />
</g>
<g id="a5_0031"  >
<polygon points="602,90 617,90 622,85 617,80 602,80 602,90 " style="fill:#d815a7; stroke-width:1; stroke:black; " description="&lt;b&gt;HNP03_RS13315&lt;/b&gt;&lt;br&gt;DHA2 family efflux MFS transporter permease subunit&lt;br&gt;Location: 231538 - 230021&lt;br&gt;&lt;br&gt;&lt;b&gt;BlastP hit with MCIC6FC_007727&lt;/b&gt;&lt;br&gt;Percentage identity: 97&lt;br&gt;Percentage coverage: 52&lt;br&gt;BLAST bit score: 931&lt;br&gt;E-value: 6.6e-269" locus_tag="HNP03_RS13315" class="clusterblast-orf" id="dummy-5_h5_9_31"  />
</g>
<g id="a5_0032"  >
<polygon points="622,90 634,90 639,85 634,80 622,80 622,90 " style="fill:#d815a7; stroke-width:1; stroke:black; " description="&lt;b&gt;HNP03_RS13310&lt;/b&gt;&lt;br&gt;TolC family outer membrane protein&lt;br&gt;Location: 229997 - 228654&lt;br&gt;&lt;br&gt;&lt;b&gt;BlastP hit with MCIC6FC_007727&lt;/b&gt;&lt;br&gt;Percentage identity: 93&lt;br&gt;Percentage coverage: 48&lt;br&gt;BLAST bit score: 785&lt;br&gt;E-value: 7.7e-225" locus_tag="HNP03_RS13310" class="clusterblast-orf" id="dummy-5_h5_9_32"  />
</g>
<g id="a5_0033"  >
<polygon points="646,90 652,90 657,85 652,80 646,80 646,90 " style="fill:white; stroke-width:1; stroke:black; " description="&lt;b&gt;HNP03_RS13305&lt;/b&gt;&lt;br&gt;oxaloacetate decarboxylase&lt;br&gt;Location: 228110 - 227241" locus_tag="HNP03_RS13305" class="clusterblast-orf" id="dummy-5_h5_9_33"  />
</g>
<g id="a5_0034"  >
<polygon points="658,85 663,80 675,80 675,90 663,90 658,85 " style="fill:white; stroke-width:1; stroke:black; " description="&lt;b&gt;HNP03_RS13300&lt;/b&gt;&lt;br&gt;PAS domain S-box protein&lt;br&gt;Location: 227184 - 225829" locus_tag="HNP03_RS13300" class="clusterblast-orf" id="dummy-5_h5_9_34"  />
</g>
<g id="a5_0035"  >
<polygon points="678,90 682,85 678,80 678,90 " style="fill:white; stroke-width:1; stroke:black; " description="&lt;b&gt;HNP03_RS13295&lt;/b&gt;&lt;br&gt;RidA family protein&lt;br&gt;Location: 225640 - 225260" locus_tag="HNP03_RS13295" class="clusterblast-orf" id="dummy-5_h5_9_35"  />
</g>
<g id="a5_0036"  >
<polygon points="683,90 704,90 709,85 704,80 683,80 683,90 " style="fill:white; stroke-width:1; stroke:black; " description="&lt;b&gt;HNP03_RS13290&lt;/b&gt;&lt;br&gt;DUF3656 domain-containing protein&lt;br&gt;Location: 225189 - 223210" locus_tag="HNP03_RS13290" class="clusterblast-orf" id="dummy-5_h5_9_36"  />
</g>
<g id="a5_0037"  >
<polygon points="712,90 715,85 712,80 712,90 " style="fill:white; stroke-width:1; stroke:black; " description="&lt;b&gt;HNP03_RS13285&lt;/b&gt;&lt;br&gt;thiol reductase thioredoxin&lt;br&gt;Location: 222932 - 222672" locus_tag="HNP03_RS13285" class="clusterblast-orf" id="dummy-5_h5_9_37"  />
</g>
</svg>
