<svg xmlns="http://www.w3.org/2000/svg" xmlns:xlink="http://www.w3.org/1999/xlink" version="1.1" x="0" y="0" height="230" width="800" viewBox="0 0 800 230" preserveAspectRatio="none"  >
<g label="Query sequence" class="clusterblast-cluster"  >
<text x="5" y="20" class="clusterblast-acc"  >
Query sequence</text>
<line x1="10" y1="35" x2="778.0" y2="35" style="stroke-width:1; stroke:grey; "  />
<polygon points="0,40 2,40 7,35 2,30 0,30 0,40 " style="fill:white; stroke-width:1; stroke:black; " description="&lt;b&gt;MCIC6FC_007710&lt;/b&gt;&lt;br&gt;hypothetical protein&lt;br&gt;Location: 1251208 - 1251795" locus_tag="MCIC6FC_007710" class="clusterblast-orf" id="dummy-5_q0_0_all"  />
<polygon points="13,35 18,30 22,30 22,40 18,40 13,35 " style="fill:white; stroke-width:1; stroke:black; " description="&lt;b&gt;MCIC6FC_007711&lt;/b&gt;&lt;br&gt;hypothetical protein&lt;br&gt;Location: 1252265 - 1252994" locus_tag="MCIC6FC_007711" class="clusterblast-orf" id="dummy-5_q1_0_all"  />
<polygon points="23,35 28,30 36,30 36,40 28,40 23,35 " style="fill:white; stroke-width:1; stroke:black; " description="&lt;b&gt;MCIC6FC_007712&lt;/b&gt;&lt;br&gt;hypothetical protein&lt;br&gt;Location: 1253061 - 1254061" locus_tag="MCIC6FC_007712" class="clusterblast-orf" id="dummy-5_q2_0_all"  />
<polygon points="36,35 41,30 84,30 84,40 41,40 36,35 " style="fill:white; stroke-width:1; stroke:black; " description="&lt;b&gt;MCIC6FC_007713&lt;/b&gt;&lt;br&gt;hypothetical protein&lt;br&gt;Location: 1254097 - 1257816" locus_tag="MCIC6FC_007713" class="clusterblast-orf" id="dummy-5_q3_0_all"  />
<polygon points="84,35 89,30 123,30 123,40 89,40 84,35 " style="fill:white; stroke-width:1; stroke:black; " description="&lt;b&gt;MCIC6FC_007714&lt;/b&gt;&lt;br&gt;hypothetical protein&lt;br&gt;Location: 1257838 - 1260920" locus_tag="MCIC6FC_007714" class="clusterblast-orf" id="dummy-5_q4_0_all"  />
<polygon points="126,40 133,40 138,35 133,30 126,30 126,40 " style="fill:white; stroke-width:1; stroke:black; " description="&lt;b&gt;MCIC6FC_007715&lt;/b&gt;&lt;br&gt;hypothetical protein&lt;br&gt;Location: 1261154 - 1262081" locus_tag="MCIC6FC_007715" class="clusterblast-orf" id="dummy-5_q5_0_all"  />
<polygon points="140,40 151,40 156,35 151,30 140,30 140,40 " style="fill:white; stroke-width:1; stroke:black; " description="&lt;b&gt;MCIC6FC_007716&lt;/b&gt;&lt;br&gt;hypothetical protein&lt;br&gt;Location: 1262205 - 1263495" locus_tag="MCIC6FC_007716" class="clusterblast-orf" id="dummy-5_q6_0_all"  />
<polygon points="157,40 179,40 184,35 179,30 157,30 157,40 " style="fill:white; stroke-width:1; stroke:black; " description="&lt;b&gt;MCIC6FC_007717&lt;/b&gt;&lt;br&gt;hypothetical protein&lt;br&gt;Location: 1263560 - 1265662" locus_tag="MCIC6FC_007717" class="clusterblast-orf" id="dummy-5_q7_0_all"  />
<polygon points="184,40 184,40 189,35 184,30 184,30 184,40 " style="fill:white; stroke-width:1; stroke:black; " description="&lt;b&gt;MCIC6FC_007718&lt;/b&gt;&lt;br&gt;hypothetical protein&lt;br&gt;Location: 1265670 - 1266063" locus_tag="MCIC6FC_007718" class="clusterblast-orf" id="dummy-5_q8_0_all"  />
<polygon points="190,35 195,30 229,30 229,40 195,40 190,35 " style="fill:#d81515; stroke-width:1; stroke:black; " description="&lt;b&gt;MCIC6FC_007719&lt;/b&gt;&lt;br&gt;hypothetical protein&lt;br&gt;Location: 1266108 - 1269198" locus_tag="MCIC6FC_007719" class="clusterblast-orf" id="dummy-5_q9_0_all"  />
<polygon points="234,40 240,40 245,35 240,30 234,30 234,40 " style="fill:white; stroke-width:1; stroke:black; " description="&lt;b&gt;MCIC6FC_007720&lt;/b&gt;&lt;br&gt;hypothetical protein&lt;br&gt;Location: 1269625 - 1270453" locus_tag="MCIC6FC_007720" class="clusterblast-orf" id="dummy-5_q10_0_all"  />
<polygon points="245,35 250,30 577,30 577,40 250,40 245,35 " style="fill:#77d815; stroke-width:1; stroke:black; " description="&lt;b&gt;MCIC6FC_007721&lt;/b&gt;&lt;br&gt;hypothetical protein&lt;br&gt;Location: 1270497 - 1296529" locus_tag="MCIC6FC_007721" class="clusterblast-orf" id="dummy-5_q11_0_all"  />
<polygon points="580,40 606,40 611,35 606,30 580,30 580,40 " style="fill:#15d8d8; stroke-width:1; stroke:black; " description="&lt;b&gt;MCIC6FC_007722&lt;/b&gt;&lt;br&gt;hypothetical protein&lt;br&gt;Location: 1296753 - 1299161" locus_tag="MCIC6FC_007722" class="clusterblast-orf" id="dummy-5_q12_0_all"  />
<polygon points="612,40 627,40 632,35 627,30 612,30 612,40 " style="fill:#7715d8; stroke-width:1; stroke:black; " description="&lt;b&gt;MCIC6FC_007723&lt;/b&gt;&lt;br&gt;hypothetical protein&lt;br&gt;Location: 1299241 - 1300860" locus_tag="MCIC6FC_007723" class="clusterblast-orf" id="dummy-5_q13_0_all"  />
<polygon points="633,40 713,40 718,35 713,30 633,30 633,40 " style="fill:#d8a715; stroke-width:1; stroke:black; " description="&lt;b&gt;MCIC6FC_007724&lt;/b&gt;&lt;br&gt;hypothetical protein&lt;br&gt;Location: 1300944 - 1307573" locus_tag="MCIC6FC_007724" class="clusterblast-orf" id="dummy-5_q14_0_all"  />
<polygon points="719,40 724,40 729,35 724,30 719,30 719,40 " style="fill:#15d846; stroke-width:1; stroke:black; " description="&lt;b&gt;MCIC6FC_007725&lt;/b&gt;&lt;br&gt;hypothetical protein&lt;br&gt;Location: 1307635 - 1308442" locus_tag="MCIC6FC_007725" class="clusterblast-orf" id="dummy-5_q15_0_all"  />
<polygon points="730,40 738,40 743,35 738,30 730,30 730,40 " style="fill:#1546d8; stroke-width:1; stroke:black; " description="&lt;b&gt;MCIC6FC_007726&lt;/b&gt;&lt;br&gt;hypothetical protein&lt;br&gt;Location: 1308493 - 1309537" locus_tag="MCIC6FC_007726" class="clusterblast-orf" id="dummy-5_q16_0_all"  />
<polygon points="743,40 775,40 780,35 775,30 743,30 743,40 " style="fill:#d815a7; stroke-width:1; stroke:black; " description="&lt;b&gt;MCIC6FC_007727&lt;/b&gt;&lt;br&gt;hypothetical protein&lt;br&gt;Location: 1309578 - 1312417" locus_tag="MCIC6FC_007727" class="clusterblast-orf" id="dummy-5_q17_0_all"  />
</g>
<g label="NZ_ML137223" description="NZ_ML137223 (350823-403340): Pseudomonas veronii strain RZ scaffold1, whole g... (44% of genes show similarity), NRPS" class="clusterblast-cluster"  >
<text x="5" y="70" class="clusterblast-acc"  >
<a xlink:href="https://antismash-db.secondarymetabolites.org/area.html?record=NZ_ML137223&amp;start=350823&amp;end=403340" target="_blank">NZ_ML137223 (350823-403340)</a>: Pseudomonas veronii strain RZ scaffold1, whole g... (44% of genes show similarity), NRPS</text>
<line x1="10" y1="85" x2="778.0" y2="85" style="stroke-width:1; stroke:grey; "  />
</g>
<g id="a5_000"  >
<polygon points="59,85 64,80 80,80 80,90 64,90 59,85 " style="fill:white; stroke-width:1; stroke:black; " description="&lt;b&gt;DJ028_RS01525&lt;/b&gt;&lt;br&gt;type VI secretion system baseplate subunit TssF&lt;br&gt;Location: 351386 - 353101" locus_tag="DJ028_RS01525" class="clusterblast-orf" id="dummy-5_h5_3_0"  />
</g>
<g id="a5_001"  >
<polygon points="80,85 85,80 86,80 86,90 85,90 80,85 " style="fill:white; stroke-width:1; stroke:black; " description="&lt;b&gt;DJ028_RS01530&lt;/b&gt;&lt;br&gt;type VI secretion system baseplate subunit TssE&lt;br&gt;Location: 353105 - 353509" locus_tag="DJ028_RS01530" class="clusterblast-orf" id="dummy-5_h5_3_1"  />
</g>
<g id="a5_002"  >
<polygon points="87,85 92,80 93,80 93,90 92,90 87,85 " style="fill:white; stroke-width:1; stroke:black; " description="&lt;b&gt;DJ028_RS01535&lt;/b&gt;&lt;br&gt;Hcp family type VI secretion system effector&lt;br&gt;Location: 353595 - 354083" locus_tag="DJ028_RS01535" class="clusterblast-orf" id="dummy-5_h5_3_2"  />
</g>
<g id="a5_003"  >
<polygon points="95,85 100,80 114,80 114,90 100,90 95,85 " style="fill:white; stroke-width:1; stroke:black; " description="&lt;b&gt;DJ028_RS01540&lt;/b&gt;&lt;br&gt;type VI secretion system contractile sheath large subunit&lt;br&gt;Location: 354243 - 355727" locus_tag="DJ028_RS01540" class="clusterblast-orf" id="dummy-5_h5_3_3"  />
</g>
<g id="a5_004"  >
<polygon points="114,85 119,80 120,80 120,90 119,90 114,85 " style="fill:white; stroke-width:1; stroke:black; " description="&lt;b&gt;DJ028_RS01545&lt;/b&gt;&lt;br&gt;type VI secretion system contractile sheath small subunit&lt;br&gt;Location: 355731 - 356228" locus_tag="DJ028_RS01545" class="clusterblast-orf" id="dummy-5_h5_3_4"  />
</g>
<g id="a5_005"  >
<polygon points="122,85 127,80 141,80 141,90 127,90 122,85 " style="fill:white; stroke-width:1; stroke:black; " description="&lt;b&gt;DJ028_RS01550&lt;/b&gt;&lt;br&gt;type VI secretion system protein TssA&lt;br&gt;Location: 356327 - 357877" locus_tag="DJ028_RS01550" class="clusterblast-orf" id="dummy-5_h5_3_5"  />
</g>
<g id="a5_006"  >
<polygon points="149,90 158,90 163,85 158,80 149,80 149,90 " style="fill:white; stroke-width:1; stroke:black; " description="&lt;b&gt;DJ028_RS01555&lt;/b&gt;&lt;br&gt;helix-turn-helix domain-containing protein&lt;br&gt;Location: 358517 - 359572" locus_tag="DJ028_RS01555" class="clusterblast-orf" id="dummy-5_h5_3_6"  />
</g>
<g id="a5_007"  >
<polygon points="163,85 168,80 179,80 179,90 168,90 163,85 " style="fill:#d81515; stroke-width:1; stroke:black; " description="&lt;b&gt;DJ028_RS01560&lt;/b&gt;&lt;br&gt;MFS transporter&lt;br&gt;Location: 359566 - 360843&lt;br&gt;&lt;br&gt;&lt;b&gt;BlastP hit with MCIC6FC_007719&lt;/b&gt;&lt;br&gt;Percentage identity: 32&lt;br&gt;Percentage coverage: 42&lt;br&gt;BLAST bit score: 191&lt;br&gt;E-value: 5.2e-46" locus_tag="DJ028_RS01560" class="clusterblast-orf" id="dummy-5_h5_3_7"  />
</g>
<g id="a5_008"  >
<polygon points="183,85 188,80 198,80 198,90 188,90 183,85 " style="fill:white; stroke-width:1; stroke:black; " description="&lt;b&gt;DJ028_RS01565&lt;/b&gt;&lt;br&gt;RhtX/FptX family siderophore transporter&lt;br&gt;Location: 361140 - 362366" locus_tag="DJ028_RS01565" class="clusterblast-orf" id="dummy-5_h5_3_8"  />
</g>
<g id="a5_009"  >
<polygon points="199,85 204,80 218,80 218,90 204,90 199,85 " style="fill:white; stroke-width:1; stroke:black; " description="&lt;b&gt;DJ028_RS01570&lt;/b&gt;&lt;br&gt;PepSY domain-containing protein&lt;br&gt;Location: 362380 - 363861" locus_tag="DJ028_RS01570" class="clusterblast-orf" id="dummy-5_h5_3_9"  />
</g>
<g id="a5_0010"  >
<polygon points="218,85 221,80 221,90 218,85 " style="fill:white; stroke-width:1; stroke:black; " description="&lt;b&gt;DJ028_RS01575&lt;/b&gt;&lt;br&gt;hypothetical protein&lt;br&gt;Location: 363867 - 364148" locus_tag="DJ028_RS01575" class="clusterblast-orf" id="dummy-5_h5_3_10"  />
</g>
<g id="a5_0011"  >
<polygon points="221,85 226,80 248,80 248,90 226,90 221,85 " style="fill:white; stroke-width:1; stroke:black; " description="&lt;b&gt;DJ028_RS01580&lt;/b&gt;&lt;br&gt;TonB-dependent siderophore receptor&lt;br&gt;Location: 364148 - 366220" locus_tag="DJ028_RS01580" class="clusterblast-orf" id="dummy-5_h5_3_11"  />
</g>
<g id="a5_0012"  >
<polygon points="249,85 254,80 271,80 271,90 254,90 249,85 " style="fill:white; stroke-width:1; stroke:black; " description="&lt;b&gt;DJ028_RS01585&lt;/b&gt;&lt;br&gt;ABC transporter ATP-binding protein&lt;br&gt;Location: 366363 - 368057" locus_tag="DJ028_RS01585" class="clusterblast-orf" id="dummy-5_h5_3_12"  />
</g>
<g id="a5_0013"  >
<polygon points="271,85 276,80 293,80 293,90 276,90 271,85 " style="fill:white; stroke-width:1; stroke:black; " description="&lt;b&gt;DJ028_RS01590&lt;/b&gt;&lt;br&gt;ABC transporter ATP-binding protein&lt;br&gt;Location: 368054 - 369781" locus_tag="DJ028_RS01590" class="clusterblast-orf" id="dummy-5_h5_3_13"  />
</g>
<g id="a5_0014"  >
<polygon points="293,85 298,80 306,80 306,90 298,90 293,85 " style="fill:white; stroke-width:1; stroke:black; " description="&lt;b&gt;DJ028_RS01595&lt;/b&gt;&lt;br&gt;Gfo/Idh/MocA family oxidoreductase&lt;br&gt;Location: 369778 - 370827" locus_tag="DJ028_RS01595" class="clusterblast-orf" id="dummy-5_h5_3_14"  />
</g>
<g id="a5_0015"  >
<polygon points="306,85 311,80 374,80 374,90 311,90 306,85 " style="fill:#77d815; stroke-width:1; stroke:black; " description="&lt;b&gt;DJ028_RS01600&lt;/b&gt;&lt;br&gt;amino acid adenylation domain-containing protein&lt;br&gt;Location: 370824 - 376145&lt;br&gt;&lt;br&gt;&lt;b&gt;BlastP hit with MCIC6FC_007721&lt;/b&gt;&lt;br&gt;Percentage identity: 88&lt;br&gt;Percentage coverage: 21&lt;br&gt;BLAST bit score: 3049&lt;br&gt;E-value: 0.0" locus_tag="DJ028_RS01600" class="clusterblast-orf" id="dummy-5_h5_3_15"  />
</g>
<g id="a5_0016"  >
<polygon points="374,85 379,80 428,80 428,90 379,90 374,85 " style="fill:#77d815; stroke-width:1; stroke:black; " description="&lt;b&gt;DJ028_RS01605&lt;/b&gt;&lt;br&gt;amino acid adenylation domain-containing protein&lt;br&gt;Location: 376142 - 380413&lt;br&gt;&lt;br&gt;&lt;b&gt;BlastP hit with MCIC6FC_007721&lt;/b&gt;&lt;br&gt;Percentage identity: 84&lt;br&gt;Percentage coverage: 17&lt;br&gt;BLAST bit score: 2353&lt;br&gt;E-value: 0.0" locus_tag="DJ028_RS01605" class="clusterblast-orf" id="dummy-5_h5_3_16"  />
</g>
<g id="a5_0017"  >
<polygon points="430,85 435,80 442,80 442,90 435,90 430,85 " style="fill:white; stroke-width:1; stroke:black; " description="&lt;b&gt;DJ028_RS01610&lt;/b&gt;&lt;br&gt;helix-turn-helix domain-containing protein&lt;br&gt;Location: 380569 - 381462" locus_tag="DJ028_RS01610" class="clusterblast-orf" id="dummy-5_h5_3_17"  />
</g>
<g id="a5_0018"  >
<polygon points="445,90 461,90 466,85 461,80 445,80 445,90 " style="fill:#15d8d8; stroke-width:1; stroke:black; " description="&lt;b&gt;DJ028_RS01615&lt;/b&gt;&lt;br&gt;AMP-binding protein&lt;br&gt;Location: 381685 - 383340&lt;br&gt;&lt;br&gt;&lt;b&gt;BlastP hit with MCIC6FC_007722&lt;/b&gt;&lt;br&gt;Percentage identity: 91&lt;br&gt;Percentage coverage: 71&lt;br&gt;BLAST bit score: 1013&lt;br&gt;E-value: 1.4e-293" locus_tag="DJ028_RS01615" class="clusterblast-orf" id="dummy-5_h5_3_18"  />
</g>
<g id="a5_0019"  >
<polygon points="466,90 471,90 476,85 471,80 466,80 466,90 " style="fill:#15d8d8; stroke-width:1; stroke:black; " description="&lt;b&gt;DJ028_RS01620&lt;/b&gt;&lt;br&gt;thioesterase&lt;br&gt;Location: 383385 - 384107&lt;br&gt;&lt;br&gt;&lt;b&gt;BlastP hit with MCIC6FC_007722&lt;/b&gt;&lt;br&gt;Percentage identity: 89&lt;br&gt;Percentage coverage: 29&lt;br&gt;BLAST bit score: 415&lt;br&gt;E-value: 1.7e-113" locus_tag="DJ028_RS01620" class="clusterblast-orf" id="dummy-5_h5_3_19"  />
</g>
<g id="a5_0020"  >
<polygon points="475,90 479,85 475,80 475,90 " style="fill:#7715d8; stroke-width:1; stroke:black; " description="&lt;b&gt;DJ028_RS01625&lt;/b&gt;&lt;br&gt;isochorismate lyase&lt;br&gt;Location: 384104 - 384409&lt;br&gt;&lt;br&gt;&lt;b&gt;BlastP hit with MCIC6FC_007723&lt;/b&gt;&lt;br&gt;Percentage identity: 97&lt;br&gt;Percentage coverage: 11&lt;br&gt;BLAST bit score: 112&lt;br&gt;E-value: 1.7e-22" locus_tag="DJ028_RS01625" class="clusterblast-orf" id="dummy-5_h5_3_20"  />
</g>
<g id="a5_0021"  >
<polygon points="479,90 492,90 497,85 492,80 479,80 479,90 " style="fill:#7715d8; stroke-width:1; stroke:black; " description="&lt;b&gt;DJ028_RS01630&lt;/b&gt;&lt;br&gt;isochorismate synthase&lt;br&gt;Location: 384406 - 385803&lt;br&gt;&lt;br&gt;&lt;b&gt;BlastP hit with MCIC6FC_007723&lt;/b&gt;&lt;br&gt;Percentage identity: 84&lt;br&gt;Percentage coverage: 87&lt;br&gt;BLAST bit score: 810&lt;br&gt;E-value: 7.5e-233" locus_tag="DJ028_RS01630" class="clusterblast-orf" id="dummy-5_h5_3_21"  />
</g>
<g id="a5_0022"  >
<polygon points="498,90 503,90 508,85 503,80 498,80 498,90 " style="fill:#d8a715; stroke-width:1; stroke:black; " description="&lt;b&gt;DJ028_RS01635&lt;/b&gt;&lt;br&gt;helix-turn-helix transcriptional regulator&lt;br&gt;Location: 385888 - 386616&lt;br&gt;&lt;br&gt;&lt;b&gt;BlastP hit with MCIC6FC_007724&lt;/b&gt;&lt;br&gt;Percentage identity: 92&lt;br&gt;Percentage coverage: 12&lt;br&gt;BLAST bit score: 436&lt;br&gt;E-value: 1.1e-119" locus_tag="DJ028_RS01635" class="clusterblast-orf" id="dummy-5_h5_3_22"  />
</g>
<g id="a5_0023"  >
<polygon points="510,90 518,90 523,85 518,80 510,80 510,90 " style="fill:#d8a715; stroke-width:1; stroke:black; " description="&lt;b&gt;DJ028_RS01640&lt;/b&gt;&lt;br&gt;NAD-dependent epimerase/dehydratase family protein&lt;br&gt;Location: 386800 - 387864&lt;br&gt;&lt;br&gt;&lt;b&gt;BlastP hit with MCIC6FC_007724&lt;/b&gt;&lt;br&gt;Percentage identity: 90&lt;br&gt;Percentage coverage: 16&lt;br&gt;BLAST bit score: 614&lt;br&gt;E-value: 3.1e-173" locus_tag="DJ028_RS01640" class="clusterblast-orf" id="dummy-5_h5_3_23"  />
</g>
<g id="a5_0024"  >
<polygon points="523,90 534,90 539,85 534,80 523,80 523,90 " style="fill:#d8a715; stroke-width:1; stroke:black; " description="&lt;b&gt;DJ028_RS01645&lt;/b&gt;&lt;br&gt;aspartate aminotransferase family protein&lt;br&gt;Location: 387861 - 389120&lt;br&gt;&lt;br&gt;&lt;b&gt;BlastP hit with MCIC6FC_007724&lt;/b&gt;&lt;br&gt;Percentage identity: 93&lt;br&gt;Percentage coverage: 20&lt;br&gt;BLAST bit score: 754&lt;br&gt;E-value: 3.2e-215" locus_tag="DJ028_RS01645" class="clusterblast-orf" id="dummy-5_h5_3_24"  />
</g>
<g id="a5_0025"  >
<polygon points="540,90 540,90 545,85 540,80 540,80 540,90 " style="fill:white; stroke-width:1; stroke:black; " description="&lt;b&gt;DJ028_RS01650&lt;/b&gt;&lt;br&gt;polyketide cyclase&lt;br&gt;Location: 389135 - 389578" locus_tag="DJ028_RS01650" class="clusterblast-orf" id="dummy-5_h5_3_25"  />
</g>
<g id="a5_0026"  >
<polygon points="545,90 555,90 560,85 555,80 545,80 545,90 " style="fill:#d8a715; stroke-width:1; stroke:black; " description="&lt;b&gt;DJ028_RS01655&lt;/b&gt;&lt;br&gt;acyl-CoA/acyl-ACP dehydrogenase&lt;br&gt;Location: 389582 - 390724&lt;br&gt;&lt;br&gt;&lt;b&gt;BlastP hit with MCIC6FC_007724&lt;/b&gt;&lt;br&gt;Percentage identity: 94&lt;br&gt;Percentage coverage: 16&lt;br&gt;BLAST bit score: 605&lt;br&gt;E-value: 2.4e-170" locus_tag="DJ028_RS01655" class="clusterblast-orf" id="dummy-5_h5_3_26"  />
</g>
<g id="a5_0027"  >
<polygon points="560,90 565,90 570,85 565,80 560,80 560,90 " style="fill:#d8a715; stroke-width:1; stroke:black; " description="&lt;b&gt;DJ028_RS01660&lt;/b&gt;&lt;br&gt;SDR family NAD(P)-dependent oxidoreductase&lt;br&gt;Location: 390721 - 391548&lt;br&gt;&lt;br&gt;&lt;b&gt;BlastP hit with MCIC6FC_007724&lt;/b&gt;&lt;br&gt;Percentage identity: 93&lt;br&gt;Percentage coverage: 13&lt;br&gt;BLAST bit score: 493&lt;br&gt;E-value: 1e-136" locus_tag="DJ028_RS01660" class="clusterblast-orf" id="dummy-5_h5_3_27"  />
</g>
<g id="a5_0028"  >
<polygon points="570,90 578,90 583,85 578,80 570,80 570,90 " style="fill:#d8a715; stroke-width:1; stroke:black; " description="&lt;b&gt;DJ028_RS01665&lt;/b&gt;&lt;br&gt;fatty acid desaturase&lt;br&gt;Location: 391559 - 392515&lt;br&gt;&lt;br&gt;&lt;b&gt;BlastP hit with MCIC6FC_007724&lt;/b&gt;&lt;br&gt;Percentage identity: 81&lt;br&gt;Percentage coverage: 15&lt;br&gt;BLAST bit score: 526&lt;br&gt;E-value: 1.1e-146" locus_tag="DJ028_RS01665" class="clusterblast-orf" id="dummy-5_h5_3_28"  />
</g>
<g id="a5_0029"  >
<polygon points="583,90 589,90 594,85 589,80 583,80 583,90 " style="fill:#15d846; stroke-width:1; stroke:black; " description="&lt;b&gt;DJ028_RS01670&lt;/b&gt;&lt;br&gt;DUF3050 domain-containing protein&lt;br&gt;Location: 392575 - 393375&lt;br&gt;&lt;br&gt;&lt;b&gt;BlastP hit with MCIC6FC_007725&lt;/b&gt;&lt;br&gt;Percentage identity: 95&lt;br&gt;Percentage coverage: 97&lt;br&gt;BLAST bit score: 508&lt;br&gt;E-value: 5.2e-142" locus_tag="DJ028_RS01670" class="clusterblast-orf" id="dummy-5_h5_3_29"  />
</g>
<g id="a5_0030"  >
<polygon points="594,90 602,90 607,85 602,80 594,80 594,90 " style="fill:#1546d8; stroke-width:1; stroke:black; " description="&lt;b&gt;DJ028_RS01675&lt;/b&gt;&lt;br&gt;HlyD family secretion protein&lt;br&gt;Location: 393392 - 394459&lt;br&gt;&lt;br&gt;&lt;b&gt;BlastP hit with MCIC6FC_007726&lt;/b&gt;&lt;br&gt;Percentage identity: 90&lt;br&gt;Percentage coverage: 100&lt;br&gt;BLAST bit score: 586&lt;br&gt;E-value: 1.5e-165" locus_tag="DJ028_RS01675" class="clusterblast-orf" id="dummy-5_h5_3_30"  />
</g>
<g id="a5_0031"  >
<polygon points="607,90 622,90 627,85 622,80 607,80 607,90 " style="fill:#d815a7; stroke-width:1; stroke:black; " description="&lt;b&gt;DJ028_RS01680&lt;/b&gt;&lt;br&gt;DHA2 family efflux MFS transporter permease subunit&lt;br&gt;Location: 394456 - 395973&lt;br&gt;&lt;br&gt;&lt;b&gt;BlastP hit with MCIC6FC_007727&lt;/b&gt;&lt;br&gt;Percentage identity: 98&lt;br&gt;Percentage coverage: 52&lt;br&gt;BLAST bit score: 935&lt;br&gt;E-value: 4.6e-270" locus_tag="DJ028_RS01680" class="clusterblast-orf" id="dummy-5_h5_3_31"  />
</g>
<g id="a5_0032"  >
<polygon points="627,90 639,90 644,85 639,80 627,80 627,90 " style="fill:#d815a7; stroke-width:1; stroke:black; " description="&lt;b&gt;DJ028_RS01685&lt;/b&gt;&lt;br&gt;TolC family outer membrane protein&lt;br&gt;Location: 395997 - 397340&lt;br&gt;&lt;br&gt;&lt;b&gt;BlastP hit with MCIC6FC_007727&lt;/b&gt;&lt;br&gt;Percentage identity: 94&lt;br&gt;Percentage coverage: 48&lt;br&gt;BLAST bit score: 793&lt;br&gt;E-value: 2.8e-227" locus_tag="DJ028_RS01685" class="clusterblast-orf" id="dummy-5_h5_3_32"  />
</g>
<g id="a5_0033"  >
<polygon points="646,90 662,90 667,85 662,80 646,80 646,90 " style="fill:white; stroke-width:1; stroke:black; " description="&lt;b&gt;DJ028_RS01690&lt;/b&gt;&lt;br&gt;methyl-accepting chemotaxis protein&lt;br&gt;Location: 397491 - 399116" locus_tag="DJ028_RS01690" class="clusterblast-orf" id="dummy-5_h5_3_33"  />
</g>
<g id="a5_0034"  >
<polygon points="667,85 672,80 679,80 679,90 672,90 667,85 " style="fill:white; stroke-width:1; stroke:black; " description="&lt;b&gt;DJ028_RS01695&lt;/b&gt;&lt;br&gt;LysR family transcriptional regulator&lt;br&gt;Location: 399131 - 400048" locus_tag="DJ028_RS01695" class="clusterblast-orf" id="dummy-5_h5_3_34"  />
</g>
<g id="a5_0035"  >
<polygon points="680,90 691,90 696,85 691,80 680,80 680,90 " style="fill:white; stroke-width:1; stroke:black; " description="&lt;b&gt;DJ028_RS01700&lt;/b&gt;&lt;br&gt;NAD(P)-binding protein&lt;br&gt;Location: 400184 - 401404" locus_tag="DJ028_RS01700" class="clusterblast-orf" id="dummy-5_h5_3_35"  />
</g>
<g id="a5_0036"  >
<polygon points="712,90 714,85 712,80 712,90 " style="fill:white; stroke-width:1; stroke:black; " description="&lt;b&gt;DJ028_RS30140&lt;/b&gt;&lt;br&gt;hypothetical protein&lt;br&gt;Location: 402654 - 402824" locus_tag="DJ028_RS30140" class="clusterblast-orf" id="dummy-5_h5_3_36"  />
</g>
<g id="a5_0037"  >
<polygon points="715,85 720,80 720,80 720,90 720,90 715,85 " style="fill:white; stroke-width:1; stroke:black; " description="&lt;b&gt;DJ028_RS01715&lt;/b&gt;&lt;br&gt;hypothetical protein&lt;br&gt;Location: 402921 - 403325" locus_tag="DJ028_RS01715" class="clusterblast-orf" id="dummy-5_h5_3_37"  />
</g>
</svg>
