<svg xmlns="http://www.w3.org/2000/svg" xmlns:xlink="http://www.w3.org/1999/xlink" version="1.1" x="0" y="0" height="230" width="800" viewBox="0 0 800 230" preserveAspectRatio="none"  >
<g label="Query sequence" class="clusterblast-cluster"  >
<text x="5" y="20" class="clusterblast-acc"  >
Query sequence</text>
<line x1="10" y1="35" x2="778.0" y2="35" style="stroke-width:1; stroke:grey; "  />
<polygon points="55,35 60,30 98,30 98,40 60,40 55,35 " style="fill:#d81515; stroke-width:1; stroke:black; " description="&lt;b&gt;MCIC6FC_005518&lt;/b&gt;&lt;br&gt;hypothetical protein&lt;br&gt;Location: 1298529 - 1302286" locus_tag="MCIC6FC_005518" class="clusterblast-orf" id="dummy-1_q0_0_all"  />
<polygon points="99,35 104,30 126,30 126,40 104,40 99,35 " style="fill:#43d815; stroke-width:1; stroke:black; " description="&lt;b&gt;MCIC6FC_005519&lt;/b&gt;&lt;br&gt;hypothetical protein&lt;br&gt;Location: 1302344 - 1304702" locus_tag="MCIC6FC_005519" class="clusterblast-orf" id="dummy-1_q1_0_all"  />
<polygon points="127,35 132,30 145,30 145,40 132,40 127,35 " style="fill:#15b6d8; stroke-width:1; stroke:black; " description="&lt;b&gt;MCIC6FC_005520&lt;/b&gt;&lt;br&gt;hypothetical protein&lt;br&gt;Location: 1304784 - 1306371" locus_tag="MCIC6FC_005520" class="clusterblast-orf" id="dummy-1_q2_0_all"  />
<polygon points="146,40 152,40 157,35 152,30 146,30 146,40 " style="fill:#8815d8; stroke-width:1; stroke:black; " description="&lt;b&gt;MCIC6FC_005521&lt;/b&gt;&lt;br&gt;hypothetical protein&lt;br&gt;Location: 1306486 - 1307383" locus_tag="MCIC6FC_005521" class="clusterblast-orf" id="dummy-1_q3_0_all"  />
<polygon points="157,35 162,30 200,30 200,40 162,40 157,35 " style="fill:#43d815; stroke-width:1; stroke:black; " description="&lt;b&gt;MCIC6FC_005522&lt;/b&gt;&lt;br&gt;hypothetical protein&lt;br&gt;Location: 1307427 - 1311171" locus_tag="MCIC6FC_005522" class="clusterblast-orf" id="dummy-1_q4_0_all"  />
<polygon points="202,40 216,40 221,35 216,30 202,30 202,40 " style="fill:white; stroke-width:1; stroke:black; " description="&lt;b&gt;MCIC6FC_005523&lt;/b&gt;&lt;br&gt;hypothetical protein&lt;br&gt;Location: 1311357 - 1313024" locus_tag="MCIC6FC_005523" class="clusterblast-orf" id="dummy-1_q5_0_all"  />
<polygon points="221,35 226,30 230,30 230,40 226,40 221,35 " style="fill:#d85a15; stroke-width:1; stroke:black; " description="&lt;b&gt;MCIC6FC_005524&lt;/b&gt;&lt;br&gt;hypothetical protein&lt;br&gt;Location: 1313032 - 1313826" locus_tag="MCIC6FC_005524" class="clusterblast-orf" id="dummy-1_q6_0_all"  />
<polygon points="233,40 238,40 243,35 238,30 233,30 233,40 " style="fill:#15d82c; stroke-width:1; stroke:black; " description="&lt;b&gt;MCIC6FC_005525&lt;/b&gt;&lt;br&gt;hypothetical protein&lt;br&gt;Location: 1314007 - 1314949" locus_tag="MCIC6FC_005525" class="clusterblast-orf" id="dummy-1_q7_0_all"  />
<polygon points="244,35 249,30 271,30 271,40 249,40 244,35 " style="fill:#1571d8; stroke-width:1; stroke:black; " description="&lt;b&gt;MCIC6FC_005526&lt;/b&gt;&lt;br&gt;hypothetical protein&lt;br&gt;Location: 1315026 - 1317409" locus_tag="MCIC6FC_005526" class="clusterblast-orf" id="dummy-1_q8_0_all"  />
<polygon points="272,35 277,30 454,30 454,40 277,40 272,35 " style="fill:#cd15d8; stroke-width:1; stroke:black; " description="&lt;b&gt;MCIC6FC_005527&lt;/b&gt;&lt;br&gt;hypothetical protein&lt;br&gt;Location: 1317432 - 1333368" locus_tag="MCIC6FC_005527" class="clusterblast-orf" id="dummy-1_q9_0_all"  />
<polygon points="459,40 550,40 555,35 550,30 459,30 459,40 " style="fill:#d89f15; stroke-width:1; stroke:black; " description="&lt;b&gt;MCIC6FC_005528&lt;/b&gt;&lt;br&gt;hypothetical protein&lt;br&gt;Location: 1333744 - 1342183" locus_tag="MCIC6FC_005528" class="clusterblast-orf" id="dummy-1_q10_0_all"  />
<polygon points="556,35 561,30 579,30 579,40 561,40 556,35 " style="fill:#15d871; stroke-width:1; stroke:black; " description="&lt;b&gt;MCIC6FC_005529&lt;/b&gt;&lt;br&gt;hypothetical protein&lt;br&gt;Location: 1342244 - 1344267" locus_tag="MCIC6FC_005529" class="clusterblast-orf" id="dummy-1_q11_0_all"  />
<polygon points="580,35 585,30 624,30 624,40 585,40 580,35 " style="fill:#152cd8; stroke-width:1; stroke:black; " description="&lt;b&gt;MCIC6FC_005530&lt;/b&gt;&lt;br&gt;hypothetical protein&lt;br&gt;Location: 1344300 - 1348194" locus_tag="MCIC6FC_005530" class="clusterblast-orf" id="dummy-1_q12_0_all"  />
<polygon points="625,40 631,40 636,35 631,30 625,30 625,40 " style="fill:#d8159f; stroke-width:1; stroke:black; " description="&lt;b&gt;MCIC6FC_005531&lt;/b&gt;&lt;br&gt;hypothetical protein&lt;br&gt;Location: 1348300 - 1349215" locus_tag="MCIC6FC_005531" class="clusterblast-orf" id="dummy-1_q13_0_all"  />
<polygon points="642,40 666,40 671,35 666,30 642,30 642,40 " style="fill:#cdd815; stroke-width:1; stroke:black; " description="&lt;b&gt;MCIC6FC_005532&lt;/b&gt;&lt;br&gt;hypothetical protein&lt;br&gt;Location: 1349750 - 1352277" locus_tag="MCIC6FC_005532" class="clusterblast-orf" id="dummy-1_q14_0_all"  />
<polygon points="672,35 677,30 677,30 677,40 677,40 672,35 " style="fill:#15d8b6; stroke-width:1; stroke:black; " description="&lt;b&gt;MCIC6FC_005533&lt;/b&gt;&lt;br&gt;hypothetical protein&lt;br&gt;Location: 1352358 - 1352829" locus_tag="MCIC6FC_005533" class="clusterblast-orf" id="dummy-1_q15_0_all"  />
<polygon points="679,40 688,40 693,35 688,30 679,30 679,40 " style="fill:#4315d8; stroke-width:1; stroke:black; " description="&lt;b&gt;MCIC6FC_005534&lt;/b&gt;&lt;br&gt;hypothetical protein&lt;br&gt;Location: 1352953 - 1354174" locus_tag="MCIC6FC_005534" class="clusterblast-orf" id="dummy-1_q16_0_all"  />
<polygon points="694,40 704,40 709,35 704,30 694,30 694,40 " style="fill:#d8155a; stroke-width:1; stroke:black; " description="&lt;b&gt;MCIC6FC_005535&lt;/b&gt;&lt;br&gt;hypothetical protein&lt;br&gt;Location: 1354294 - 1355562" locus_tag="MCIC6FC_005535" class="clusterblast-orf" id="dummy-1_q17_0_all"  />
<polygon points="718,40 719,40 724,35 719,30 718,30 718,40 " style="fill:#88d815; stroke-width:1; stroke:black; " description="&lt;b&gt;MCIC6FC_005536&lt;/b&gt;&lt;br&gt;hypothetical protein&lt;br&gt;Location: 1356350 - 1356911" locus_tag="MCIC6FC_005536" class="clusterblast-orf" id="dummy-1_q18_0_all"  />
</g>
<g label="NZ_CP060201" description="NZ_CP060201 (6050771-6118854): Pseudomonas protegens strain H1F5C chromosome,... (71% of genes show similarity), NRPS" class="clusterblast-cluster"  >
<text x="5" y="70" class="clusterblast-acc"  >
<a xlink:href="https://antismash-db.secondarymetabolites.org/area.html?record=NZ_CP060201&amp;start=6050771&amp;end=6118854" target="_blank">NZ_CP060201 (6050771-6118854)</a>: Pseudomonas protegens strain H1F5C chromosome,... (71% of genes show similarity), NRPS</text>
<line x1="10" y1="85" x2="778.0" y2="85" style="stroke-width:1; stroke:grey; "  />
</g>
<g id="a1_000"  >
<polygon points="0,85 5,80 14,80 14,90 5,90 0,85 " style="fill:white; stroke-width:1; stroke:black; " description="&lt;b&gt;GGI48_RS28205&lt;/b&gt;&lt;br&gt;pyruvate carboxyltransferase&lt;br&gt;Location: 6118854 - 6117607" locus_tag="GGI48_RS28205" class="clusterblast-orf" id="dummy-1_h1_4_0"  />
</g>
<g id="a1_001"  >
<polygon points="18,90 26,90 31,85 26,80 18,80 18,90 " style="fill:white; stroke-width:1; stroke:black; " description="&lt;b&gt;GGI48_RS28200&lt;/b&gt;&lt;br&gt;putative C-S lyase&lt;br&gt;Location: 6117244 - 6116096" locus_tag="GGI48_RS28200" class="clusterblast-orf" id="dummy-1_h1_4_1"  />
</g>
<g id="a1_002"  >
<polygon points="35,90 42,90 47,85 42,80 35,80 35,90 " style="fill:white; stroke-width:1; stroke:black; " description="&lt;b&gt;GGI48_RS28195&lt;/b&gt;&lt;br&gt;Rieske 2Fe-2S domain-containing protein&lt;br&gt;Location: 6115798 - 6114740" locus_tag="GGI48_RS28195" class="clusterblast-orf" id="dummy-1_h1_4_2"  />
</g>
<g id="a1_003"  >
<polygon points="47,90 53,90 58,85 53,80 47,80 47,90 " style="fill:white; stroke-width:1; stroke:black; " description="&lt;b&gt;GGI48_RS28190&lt;/b&gt;&lt;br&gt;2Fe-2S iron-sulfur cluster binding domain-containing protein&lt;br&gt;Location: 6114680 - 6113730" locus_tag="GGI48_RS28190" class="clusterblast-orf" id="dummy-1_h1_4_3"  />
</g>
<g id="a1_004"  >
<polygon points="58,85 63,80 66,80 66,90 63,90 58,85 " style="fill:#d81515; stroke-width:1; stroke:black; " description="&lt;b&gt;GGI48_RS28185&lt;/b&gt;&lt;br&gt;GntR family transcriptional regulator&lt;br&gt;Location: 6113725 - 6113012&lt;br&gt;&lt;br&gt;&lt;b&gt;BlastP hit with MCIC6FC_005518&lt;/b&gt;&lt;br&gt;Percentage identity: 97&lt;br&gt;Percentage coverage: 20&lt;br&gt;BLAST bit score: 442&lt;br&gt;E-value: 1.2e-121" locus_tag="GGI48_RS28185" class="clusterblast-orf" id="dummy-1_h1_4_4"  />
</g>
<g id="a1_005"  >
<polygon points="69,85 74,80 83,80 83,90 74,90 69,85 " style="fill:#d81515; stroke-width:1; stroke:black; " description="&lt;b&gt;GGI48_RS28180&lt;/b&gt;&lt;br&gt;outer membrane porin, OprD family&lt;br&gt;Location: 6112820 - 6111564&lt;br&gt;&lt;br&gt;&lt;b&gt;BlastP hit with MCIC6FC_005518&lt;/b&gt;&lt;br&gt;Percentage identity: 91&lt;br&gt;Percentage coverage: 35&lt;br&gt;BLAST bit score: 789&lt;br&gt;E-value: 4e-226" locus_tag="GGI48_RS28180" class="clusterblast-orf" id="dummy-1_h1_4_5"  />
</g>
<g id="a1_006"  >
<polygon points="84,85 89,80 101,80 101,90 89,90 84,85 " style="fill:#d81515; stroke-width:1; stroke:black; " description="&lt;b&gt;GGI48_RS28175&lt;/b&gt;&lt;br&gt;aldehyde dehydrogenase family protein&lt;br&gt;Location: 6111443 - 6109968&lt;br&gt;&lt;br&gt;&lt;b&gt;BlastP hit with MCIC6FC_005518&lt;/b&gt;&lt;br&gt;Percentage identity: 96&lt;br&gt;Percentage coverage: 40&lt;br&gt;BLAST bit score: 933&lt;br&gt;E-value: 1.7e-269" locus_tag="GGI48_RS28175" class="clusterblast-orf" id="dummy-1_h1_4_6"  />
</g>
<g id="a1_007"  >
<polygon points="103,85 108,80 114,80 114,90 108,90 103,85 " style="fill:#43d815; stroke-width:1; stroke:black; " description="&lt;b&gt;GGI48_RS28170&lt;/b&gt;&lt;br&gt;2-dehydropantoate 2-reductase&lt;br&gt;Location: 6109797 - 6108874&lt;br&gt;&lt;br&gt;&lt;b&gt;BlastP hit with MCIC6FC_005519&lt;/b&gt;&lt;br&gt;Percentage identity: 90&lt;br&gt;Percentage coverage: 40&lt;br&gt;BLAST bit score: 541&lt;br&gt;E-value: 1.2e-151" locus_tag="GGI48_RS28170" class="clusterblast-orf" id="dummy-1_h1_4_7"  />
</g>
<g id="a1_008"  >
<polygon points="114,85 119,80 130,80 130,90 119,90 114,85 " style="fill:#43d815; stroke-width:1; stroke:black; " description="&lt;b&gt;GGI48_RS28165&lt;/b&gt;&lt;br&gt;MFS transporter&lt;br&gt;Location: 6108835 - 6107444&lt;br&gt;&lt;br&gt;&lt;b&gt;BlastP hit with MCIC6FC_005519&lt;/b&gt;&lt;br&gt;Percentage identity: 92&lt;br&gt;Percentage coverage: 60&lt;br&gt;BLAST bit score: 811&lt;br&gt;E-value: 6.3e-233" locus_tag="GGI48_RS28165" class="clusterblast-orf" id="dummy-1_h1_4_8"  />
</g>
<g id="a1_009"  >
<polygon points="131,85 136,80 149,80 149,90 136,90 131,85 " style="fill:#15b6d8; stroke-width:1; stroke:black; " description="&lt;b&gt;GGI48_RS28160&lt;/b&gt;&lt;br&gt;benzoylformate decarboxylase&lt;br&gt;Location: 6107361 - 6105775&lt;br&gt;&lt;br&gt;&lt;b&gt;BlastP hit with MCIC6FC_005520&lt;/b&gt;&lt;br&gt;Percentage identity: 94&lt;br&gt;Percentage coverage: 100&lt;br&gt;BLAST bit score: 1015&lt;br&gt;E-value: 1.5e-294" locus_tag="GGI48_RS28160" class="clusterblast-orf" id="dummy-1_h1_4_9"  />
</g>
<g id="a1_0010"  >
<polygon points="151,90 156,90 161,85 156,80 151,80 151,90 " style="fill:#8815d8; stroke-width:1; stroke:black; " description="&lt;b&gt;GGI48_RS28155&lt;/b&gt;&lt;br&gt;LysR family transcriptional regulator&lt;br&gt;Location: 6105659 - 6104763&lt;br&gt;&lt;br&gt;&lt;b&gt;BlastP hit with MCIC6FC_005521&lt;/b&gt;&lt;br&gt;Percentage identity: 94&lt;br&gt;Percentage coverage: 100&lt;br&gt;BLAST bit score: 549&lt;br&gt;E-value: 1.7e-154" locus_tag="GGI48_RS28155" class="clusterblast-orf" id="dummy-1_h1_4_10"  />
</g>
<g id="a1_0011"  >
<polygon points="161,85 166,80 177,80 177,90 166,90 161,85 " style="fill:#43d815; stroke-width:1; stroke:black; " description="&lt;b&gt;GGI48_RS28150&lt;/b&gt;&lt;br&gt;MFS transporter&lt;br&gt;Location: 6104728 - 6103403&lt;br&gt;&lt;br&gt;&lt;b&gt;BlastP hit with MCIC6FC_005519&lt;/b&gt;&lt;br&gt;Percentage identity: 32&lt;br&gt;Percentage coverage: 57&lt;br&gt;BLAST bit score: 165&lt;br&gt;E-value: 1.8e-38&lt;br&gt;&lt;br&gt;&lt;b&gt;BlastP hit with MCIC6FC_005522&lt;/b&gt;&lt;br&gt;Percentage identity: 79&lt;br&gt;Percentage coverage: 41&lt;br&gt;BLAST bit score: 609&lt;br&gt;E-value: 6.6e-172" locus_tag="GGI48_RS28150" class="clusterblast-orf" id="dummy-1_h1_4_11"  />
</g>
<g id="a1_0012"  >
<polygon points="176,85 180,80 180,90 176,85 " style="fill:white; stroke-width:1; stroke:black; " description="&lt;b&gt;GGI48_RS28145&lt;/b&gt;&lt;br&gt;hypothetical protein&lt;br&gt;Location: 6103406 - 6103128" locus_tag="GGI48_RS28145" class="clusterblast-orf" id="dummy-1_h1_4_12"  />
</g>
<g id="a1_0013"  >
<polygon points="183,85 188,80 203,80 203,90 188,90 183,85 " style="fill:white; stroke-width:1; stroke:black; " description="&lt;b&gt;GGI48_RS28140&lt;/b&gt;&lt;br&gt;acyl-CoA dehydrogenase family protein&lt;br&gt;Location: 6102831 - 6101077" locus_tag="GGI48_RS28140" class="clusterblast-orf" id="dummy-1_h1_4_13"  />
</g>
<g id="a1_0014"  >
<polygon points="204,85 209,80 218,80 218,90 209,90 204,85 " style="fill:white; stroke-width:1; stroke:black; " description="&lt;b&gt;GGI48_RS28135&lt;/b&gt;&lt;br&gt;acetyl-CoA C-acyltransferase&lt;br&gt;Location: 6101017 - 6099776" locus_tag="GGI48_RS28135" class="clusterblast-orf" id="dummy-1_h1_4_14"  />
</g>
<g id="a1_0015"  >
<polygon points="218,85 223,80 240,80 240,90 223,90 218,85 " style="fill:white; stroke-width:1; stroke:black; " description="&lt;b&gt;GGI48_RS28130&lt;/b&gt;&lt;br&gt;AMP-binding protein&lt;br&gt;Location: 6099779 - 6097881" locus_tag="GGI48_RS28130" class="clusterblast-orf" id="dummy-1_h1_4_15"  />
</g>
<g id="a1_0016"  >
<polygon points="241,85 246,80 258,80 258,90 246,90 241,85 " style="fill:#d81515; stroke-width:1; stroke:black; " description="&lt;b&gt;GGI48_RS28125&lt;/b&gt;&lt;br&gt;aldehyde dehydrogenase family protein&lt;br&gt;Location: 6097781 - 6096333&lt;br&gt;&lt;br&gt;&lt;b&gt;BlastP hit with MCIC6FC_005518&lt;/b&gt;&lt;br&gt;Percentage identity: 41&lt;br&gt;Percentage coverage: 40&lt;br&gt;BLAST bit score: 336&lt;br&gt;E-value: 9.3e-90" locus_tag="GGI48_RS28125" class="clusterblast-orf" id="dummy-1_h1_4_16"  />
</g>
<g id="a1_0017"  >
<polygon points="259,85 264,80 268,80 268,90 264,90 259,85 " style="fill:white; stroke-width:1; stroke:black; " description="&lt;b&gt;GGI48_RS28120&lt;/b&gt;&lt;br&gt;p-hydroxycinnamoyl CoA hydratase/lyase&lt;br&gt;Location: 6096236 - 6095406" locus_tag="GGI48_RS28120" class="clusterblast-orf" id="dummy-1_h1_4_17"  />
</g>
<g id="a1_0018"  >
<polygon points="271,90 271,90 276,85 271,80 271,80 271,90 " style="fill:white; stroke-width:1; stroke:black; " description="&lt;b&gt;GGI48_RS28115&lt;/b&gt;&lt;br&gt;MarR family transcriptional regulator&lt;br&gt;Location: 6095197 - 6094709" locus_tag="GGI48_RS28115" class="clusterblast-orf" id="dummy-1_h1_4_18"  />
</g>
<g id="a1_0019"  >
<polygon points="277,85 282,80 292,80 292,90 282,90 277,85 " style="fill:#d81515; stroke-width:1; stroke:black; " description="&lt;b&gt;GGI48_RS28110&lt;/b&gt;&lt;br&gt;outer membrane porin, OprD family&lt;br&gt;Location: 6094653 - 6093328&lt;br&gt;&lt;br&gt;&lt;b&gt;BlastP hit with MCIC6FC_005518&lt;/b&gt;&lt;br&gt;Percentage identity: 41&lt;br&gt;Percentage coverage: 36&lt;br&gt;BLAST bit score: 281&lt;br&gt;E-value: 3.6e-73" locus_tag="GGI48_RS28110" class="clusterblast-orf" id="dummy-1_h1_4_19"  />
</g>
<g id="a1_0020"  >
<polygon points="296,90 305,90 310,85 305,80 296,80 296,90 " style="fill:#43d815; stroke-width:1; stroke:black; " description="&lt;b&gt;GGI48_RS28105&lt;/b&gt;&lt;br&gt;3-(3-hydroxy-phenyl)propionate transporter MhpT&lt;br&gt;Location: 6092994 - 6091783&lt;br&gt;&lt;br&gt;&lt;b&gt;BlastP hit with MCIC6FC_005522&lt;/b&gt;&lt;br&gt;Percentage identity: 32&lt;br&gt;Percentage coverage: 34&lt;br&gt;BLAST bit score: 136&lt;br&gt;E-value: 1.6e-29" locus_tag="GGI48_RS28105" class="clusterblast-orf" id="dummy-1_h1_4_20"  />
</g>
<g id="a1_0021"  >
<polygon points="311,85 316,80 322,80 322,90 316,90 311,85 " style="fill:#43d815; stroke-width:1; stroke:black; " description="&lt;b&gt;GGI48_RS28100&lt;/b&gt;&lt;br&gt;NAD(P)-dependent alcohol dehydrogenase&lt;br&gt;Location: 6091700 - 6090693&lt;br&gt;&lt;br&gt;&lt;b&gt;BlastP hit with MCIC6FC_005522&lt;/b&gt;&lt;br&gt;Percentage identity: 95&lt;br&gt;Percentage coverage: 30&lt;br&gt;BLAST bit score: 619&lt;br&gt;E-value: 4.9e-175" locus_tag="GGI48_RS28100" class="clusterblast-orf" id="dummy-1_h1_4_21"  />
</g>
<g id="a1_0022"  >
<polygon points="324,85 329,80 335,80 335,90 329,90 324,85 " style="fill:#d85a15; stroke-width:1; stroke:black; " description="&lt;b&gt;GGI48_RS28095&lt;/b&gt;&lt;br&gt;GNAT family N-acetyltransferase&lt;br&gt;Location: 6090489 - 6089572&lt;br&gt;&lt;br&gt;&lt;b&gt;BlastP hit with MCIC6FC_005524&lt;/b&gt;&lt;br&gt;Percentage identity: 53&lt;br&gt;Percentage coverage: 120&lt;br&gt;BLAST bit score: 275&lt;br&gt;E-value: 6.8e-72" locus_tag="GGI48_RS28095" class="clusterblast-orf" id="dummy-1_h1_4_22"  />
</g>
<g id="a1_0023"  >
<polygon points="338,90 344,90 349,85 344,80 338,80 338,90 " style="fill:#15d82c; stroke-width:1; stroke:black; " description="&lt;b&gt;GGI48_RS28090&lt;/b&gt;&lt;br&gt;alpha/beta fold hydrolase&lt;br&gt;Location: 6089316 - 6088375&lt;br&gt;&lt;br&gt;&lt;b&gt;BlastP hit with MCIC6FC_005525&lt;/b&gt;&lt;br&gt;Percentage identity: 87&lt;br&gt;Percentage coverage: 100&lt;br&gt;BLAST bit score: 551&lt;br&gt;E-value: 6.3e-155" locus_tag="GGI48_RS28090" class="clusterblast-orf" id="dummy-1_h1_4_23"  />
</g>
<g id="a1_0024"  >
<polygon points="349,85 354,80 354,80 354,90 354,90 349,85 " style="fill:#1571d8; stroke-width:1; stroke:black; " description="&lt;b&gt;GGI48_RS28085&lt;/b&gt;&lt;br&gt;hypothetical protein&lt;br&gt;Location: 6088338 - 6087868&lt;br&gt;&lt;br&gt;&lt;b&gt;BlastP hit with MCIC6FC_005526&lt;/b&gt;&lt;br&gt;Percentage identity: 77&lt;br&gt;Percentage coverage: 21&lt;br&gt;BLAST bit score: 217&lt;br&gt;E-value: 4e-54" locus_tag="GGI48_RS28085" class="clusterblast-orf" id="dummy-1_h1_4_24"  />
</g>
<g id="a1_0025"  >
<polygon points="357,85 362,80 373,80 373,90 362,90 357,85 " style="fill:#1571d8; stroke-width:1; stroke:black; " description="&lt;b&gt;GGI48_RS28080&lt;/b&gt;&lt;br&gt;isochorismate synthase&lt;br&gt;Location: 6087677 - 6086244&lt;br&gt;&lt;br&gt;&lt;b&gt;BlastP hit with MCIC6FC_005526&lt;/b&gt;&lt;br&gt;Percentage identity: 89&lt;br&gt;Percentage coverage: 62&lt;br&gt;BLAST bit score: 846&lt;br&gt;E-value: 3e-243" locus_tag="GGI48_RS28080" class="clusterblast-orf" id="dummy-1_h1_4_25"  />
</g>
<g id="a1_0026"  >
<polygon points="373,85 377,80 377,90 373,85 " style="fill:#1571d8; stroke-width:1; stroke:black; " description="&lt;b&gt;GGI48_RS28075&lt;/b&gt;&lt;br&gt;isochorismate lyase&lt;br&gt;Location: 6086251 - 6085928&lt;br&gt;&lt;br&gt;&lt;b&gt;BlastP hit with MCIC6FC_005526&lt;/b&gt;&lt;br&gt;Percentage identity: 92&lt;br&gt;Percentage coverage: 12&lt;br&gt;BLAST bit score: 170&lt;br&gt;E-value: 7.2e-40" locus_tag="GGI48_RS28075" class="clusterblast-orf" id="dummy-1_h1_4_26"  />
</g>
<g id="a1_0027"  >
<polygon points="377,85 382,80 386,80 386,90 382,90 377,85 " style="fill:white; stroke-width:1; stroke:black; " description="&lt;b&gt;GGI48_RS28070&lt;/b&gt;&lt;br&gt;alpha/beta fold hydrolase&lt;br&gt;Location: 6085904 - 6085125" locus_tag="GGI48_RS28070" class="clusterblast-orf" id="dummy-1_h1_4_27"  />
</g>
<g id="a1_0028"  >
<polygon points="386,85 391,80 398,80 398,90 391,90 386,85 " style="fill:white; stroke-width:1; stroke:black; " description="&lt;b&gt;GGI48_RS28065&lt;/b&gt;&lt;br&gt;saccharopine dehydrogenase NADP-binding domain-containing protein&lt;br&gt;Location: 6085128 - 6084034" locus_tag="GGI48_RS28065" class="clusterblast-orf" id="dummy-1_h1_4_28"  />
</g>
<g id="a1_0029"  >
<polygon points="399,85 404,80 461,80 461,90 404,90 399,85 " style="fill:#cd15d8; stroke-width:1; stroke:black; " description="&lt;b&gt;GGI48_RS28060&lt;/b&gt;&lt;br&gt;amino acid adenylation domain-containing protein&lt;br&gt;Location: 6084022 - 6078599&lt;br&gt;&lt;br&gt;&lt;b&gt;BlastP hit with MCIC6FC_005527&lt;/b&gt;&lt;br&gt;Percentage identity: 89&lt;br&gt;Percentage coverage: 35&lt;br&gt;BLAST bit score: 3125&lt;br&gt;E-value: 0.0" locus_tag="GGI48_RS28060" class="clusterblast-orf" id="dummy-1_h1_4_29"  />
</g>
<g id="a1_0030"  >
<polygon points="461,85 466,80 500,80 500,90 466,90 461,85 " style="fill:#cd15d8; stroke-width:1; stroke:black; " description="&lt;b&gt;GGI48_RS28055&lt;/b&gt;&lt;br&gt;amino acid adenylation domain-containing protein&lt;br&gt;Location: 6078602 - 6075132&lt;br&gt;&lt;br&gt;&lt;b&gt;BlastP hit with MCIC6FC_005527&lt;/b&gt;&lt;br&gt;Percentage identity: 86&lt;br&gt;Percentage coverage: 23&lt;br&gt;BLAST bit score: 1921&lt;br&gt;E-value: 0.0" locus_tag="GGI48_RS28055" class="clusterblast-orf" id="dummy-1_h1_4_30"  />
</g>
<g id="a1_0031"  >
<polygon points="500,85 505,80 521,80 521,90 505,90 500,85 " style="fill:#cd15d8; stroke-width:1; stroke:black; " description="&lt;b&gt;GGI48_RS28050&lt;/b&gt;&lt;br&gt;ATP-binding cassette domain-containing protein&lt;br&gt;Location: 6075139 - 6073376&lt;br&gt;&lt;br&gt;&lt;b&gt;BlastP hit with MCIC6FC_005527&lt;/b&gt;&lt;br&gt;Percentage identity: 91&lt;br&gt;Percentage coverage: 11&lt;br&gt;BLAST bit score: 913&lt;br&gt;E-value: 1e-262" locus_tag="GGI48_RS28050" class="clusterblast-orf" id="dummy-1_h1_4_31"  />
</g>
<g id="a1_0032"  >
<polygon points="520,85 525,80 540,80 540,90 525,90 520,85 " style="fill:#cd15d8; stroke-width:1; stroke:black; " description="&lt;b&gt;GGI48_RS28045&lt;/b&gt;&lt;br&gt;ATP-binding cassette domain-containing protein&lt;br&gt;Location: 6073379 - 6071634&lt;br&gt;&lt;br&gt;&lt;b&gt;BlastP hit with MCIC6FC_005527&lt;/b&gt;&lt;br&gt;Percentage identity: 76&lt;br&gt;Percentage coverage: 12&lt;br&gt;BLAST bit score: 738&lt;br&gt;E-value: 5.9e-210" locus_tag="GGI48_RS28045" class="clusterblast-orf" id="dummy-1_h1_4_32"  />
</g>
<g id="a1_0033"  >
<polygon points="540,85 545,80 560,80 560,90 545,90 540,85 " style="fill:#cd15d8; stroke-width:1; stroke:black; " description="&lt;b&gt;GGI48_RS28040&lt;/b&gt;&lt;br&gt;AMP-binding protein&lt;br&gt;Location: 6071641 - 6069974&lt;br&gt;&lt;br&gt;&lt;b&gt;BlastP hit with MCIC6FC_005527&lt;/b&gt;&lt;br&gt;Percentage identity: 93&lt;br&gt;Percentage coverage: 11&lt;br&gt;BLAST bit score: 1046&lt;br&gt;E-value: 1e-302" locus_tag="GGI48_RS28040" class="clusterblast-orf" id="dummy-1_h1_4_33"  />
</g>
<g id="a1_0034"  >
<polygon points="564,90 569,90 574,85 569,80 564,80 564,90 " style="fill:#d89f15; stroke-width:1; stroke:black; " description="&lt;b&gt;GGI48_RS28035&lt;/b&gt;&lt;br&gt;helix-turn-helix transcriptional regulator&lt;br&gt;Location: 6069608 - 6068706&lt;br&gt;&lt;br&gt;&lt;b&gt;BlastP hit with MCIC6FC_005528&lt;/b&gt;&lt;br&gt;Percentage identity: 92&lt;br&gt;Percentage coverage: 11&lt;br&gt;BLAST bit score: 544&lt;br&gt;E-value: 5e-152" locus_tag="GGI48_RS28035" class="clusterblast-orf" id="dummy-1_h1_4_34"  />
</g>
<g id="a1_0035"  >
<polygon points="576,90 597,90 602,85 597,80 576,80 576,90 " style="fill:#d89f15; stroke-width:1; stroke:black; " description="&lt;b&gt;GGI48_RS28030&lt;/b&gt;&lt;br&gt;TonB-dependent siderophore receptor&lt;br&gt;Location: 6068503 - 6066272&lt;br&gt;&lt;br&gt;&lt;b&gt;BlastP hit with MCIC6FC_005528&lt;/b&gt;&lt;br&gt;Percentage identity: 90&lt;br&gt;Percentage coverage: 28&lt;br&gt;BLAST bit score: 1360&lt;br&gt;E-value: 0.0" locus_tag="GGI48_RS28030" class="clusterblast-orf" id="dummy-1_h1_4_35"  />
</g>
<g id="a1_0036"  >
<polygon points="602,90 607,90 612,85 607,80 602,80 602,90 " style="fill:#d89f15; stroke-width:1; stroke:black; " description="&lt;b&gt;GGI48_RS28025&lt;/b&gt;&lt;br&gt;PepSY domain-containing protein&lt;br&gt;Location: 6066265 - 6065384&lt;br&gt;&lt;br&gt;&lt;b&gt;BlastP hit with MCIC6FC_005528&lt;/b&gt;&lt;br&gt;Percentage identity: 88&lt;br&gt;Percentage coverage: 10&lt;br&gt;BLAST bit score: 483&lt;br&gt;E-value: 1.8e-133" locus_tag="GGI48_RS28025" class="clusterblast-orf" id="dummy-1_h1_4_36"  />
</g>
<g id="a1_0037"  >
<polygon points="612,90 620,90 625,85 620,80 612,80 612,90 " style="fill:#d89f15; stroke-width:1; stroke:black; " description="&lt;b&gt;GGI48_RS28020&lt;/b&gt;&lt;br&gt;ABC transporter substrate-binding protein&lt;br&gt;Location: 6065397 - 6064279&lt;br&gt;&lt;br&gt;&lt;b&gt;BlastP hit with MCIC6FC_005528&lt;/b&gt;&lt;br&gt;Percentage identity: 90&lt;br&gt;Percentage coverage: 14&lt;br&gt;BLAST bit score: 674&lt;br&gt;E-value: 5.5e-191" locus_tag="GGI48_RS28020" class="clusterblast-orf" id="dummy-1_h1_4_37"  />
</g>
<g id="a1_0038"  >
<polygon points="625,90 632,90 637,85 632,80 625,80 625,90 " style="fill:#d89f15; stroke-width:1; stroke:black; " description="&lt;b&gt;GGI48_RS28015&lt;/b&gt;&lt;br&gt;iron ABC transporter permease&lt;br&gt;Location: 6064282 - 6063215&lt;br&gt;&lt;br&gt;&lt;b&gt;BlastP hit with MCIC6FC_005528&lt;/b&gt;&lt;br&gt;Percentage identity: 96&lt;br&gt;Percentage coverage: 13&lt;br&gt;BLAST bit score: 550&lt;br&gt;E-value: 7e-154" locus_tag="GGI48_RS28015" class="clusterblast-orf" id="dummy-1_h1_4_38"  />
</g>
<g id="a1_0039"  >
<polygon points="637,90 641,90 646,85 641,80 637,80 637,90 " style="fill:white; stroke-width:1; stroke:black; " description="&lt;b&gt;GGI48_RS28010&lt;/b&gt;&lt;br&gt;ATP-binding cassette domain-containing protein&lt;br&gt;Location: 6063167 - 6062388" locus_tag="GGI48_RS28010" class="clusterblast-orf" id="dummy-1_h1_4_39"  />
</g>
<g id="a1_0040"  >
<polygon points="646,90 655,90 660,85 655,80 646,80 646,90 " style="fill:#d89f15; stroke-width:1; stroke:black; " description="&lt;b&gt;GGI48_RS28005&lt;/b&gt;&lt;br&gt;MFS transporter&lt;br&gt;Location: 6062384 - 6061170&lt;br&gt;&lt;br&gt;&lt;b&gt;BlastP hit with MCIC6FC_005528&lt;/b&gt;&lt;br&gt;Percentage identity: 90&lt;br&gt;Percentage coverage: 15&lt;br&gt;BLAST bit score: 657&lt;br&gt;E-value: 7e-186" locus_tag="GGI48_RS28005" class="clusterblast-orf" id="dummy-1_h1_4_40"  />
</g>
<g id="a1_0041"  >
<polygon points="662,85 667,80 676,80 676,90 667,90 662,85 " style="fill:#15d871; stroke-width:1; stroke:black; " description="&lt;b&gt;GGI48_RS28000&lt;/b&gt;&lt;br&gt;sugar transporter&lt;br&gt;Location: 6060992 - 6059814&lt;br&gt;&lt;br&gt;&lt;b&gt;BlastP hit with MCIC6FC_005529&lt;/b&gt;&lt;br&gt;Percentage identity: 87&lt;br&gt;Percentage coverage: 64&lt;br&gt;BLAST bit score: 599&lt;br&gt;E-value: 5.1e-169" locus_tag="GGI48_RS28000" class="clusterblast-orf" id="dummy-1_h1_4_41"  />
</g>
<g id="a1_0042"  >
<polygon points="677,85 682,80 684,80 684,90 682,90 677,85 " style="fill:#15d871; stroke-width:1; stroke:black; " description="&lt;b&gt;GGI48_RS27995&lt;/b&gt;&lt;br&gt;TetR/AcrR family transcriptional regulator&lt;br&gt;Location: 6059682 - 6059083&lt;br&gt;&lt;br&gt;&lt;b&gt;BlastP hit with MCIC6FC_005529&lt;/b&gt;&lt;br&gt;Percentage identity: 89&lt;br&gt;Percentage coverage: 32&lt;br&gt;BLAST bit score: 335&lt;br&gt;E-value: 1.4e-89" locus_tag="GGI48_RS27995" class="clusterblast-orf" id="dummy-1_h1_4_42"  />
</g>
<g id="a1_0043"  >
<polygon points="686,85 691,80 696,80 696,90 691,90 686,85 " style="fill:#152cd8; stroke-width:1; stroke:black; " description="&lt;b&gt;GGI48_RS27990&lt;/b&gt;&lt;br&gt;alpha/beta fold hydrolase&lt;br&gt;Location: 6058938 - 6058051&lt;br&gt;&lt;br&gt;&lt;b&gt;BlastP hit with MCIC6FC_005530&lt;/b&gt;&lt;br&gt;Percentage identity: 91&lt;br&gt;Percentage coverage: 23&lt;br&gt;BLAST bit score: 534&lt;br&gt;E-value: 3.1e-149" locus_tag="GGI48_RS27990" class="clusterblast-orf" id="dummy-1_h1_4_43"  />
</g>
<g id="a1_0044"  >
<polygon points="696,85 701,80 708,80 708,90 701,90 696,85 " style="fill:#152cd8; stroke-width:1; stroke:black; " description="&lt;b&gt;GGI48_RS27985&lt;/b&gt;&lt;br&gt;TIM barrel protein&lt;br&gt;Location: 6058028 - 6056973&lt;br&gt;&lt;br&gt;&lt;b&gt;BlastP hit with MCIC6FC_005530&lt;/b&gt;&lt;br&gt;Percentage identity: 92&lt;br&gt;Percentage coverage: 27&lt;br&gt;BLAST bit score: 639&lt;br&gt;E-value: 8.9e-181" locus_tag="GGI48_RS27985" class="clusterblast-orf" id="dummy-1_h1_4_44"  />
</g>
<g id="a1_0045"  >
<polygon points="711,85 716,80 716,80 716,90 716,90 711,85 " style="fill:#15d8b6; stroke-width:1; stroke:black; " description="&lt;b&gt;GGI48_RS27980&lt;/b&gt;&lt;br&gt;Lrp/AsnC family transcriptional regulator&lt;br&gt;Location: 6056764 - 6056285&lt;br&gt;&lt;br&gt;&lt;b&gt;BlastP hit with MCIC6FC_005533&lt;/b&gt;&lt;br&gt;Percentage identity: 92&lt;br&gt;Percentage coverage: 100&lt;br&gt;BLAST bit score: 278&lt;br&gt;E-value: 3.9e-73" locus_tag="GGI48_RS27980" class="clusterblast-orf" id="dummy-1_h1_4_45"  />
</g>
<g id="a1_0046"  >
<polygon points="718,90 727,90 732,85 727,80 718,80 718,90 " style="fill:#4315d8; stroke-width:1; stroke:black; " description="&lt;b&gt;GGI48_RS27975&lt;/b&gt;&lt;br&gt;methionine gamma-lyase&lt;br&gt;Location: 6056161 - 6054908&lt;br&gt;&lt;br&gt;&lt;b&gt;BlastP hit with MCIC6FC_005534&lt;/b&gt;&lt;br&gt;Percentage identity: 83&lt;br&gt;Percentage coverage: 101&lt;br&gt;BLAST bit score: 632&lt;br&gt;E-value: 2.6e-179" locus_tag="GGI48_RS27975" class="clusterblast-orf" id="dummy-1_h1_4_46"  />
</g>
<g id="a1_0047"  >
<polygon points="732,90 734,85 732,80 732,90 " style="fill:white; stroke-width:1; stroke:black; " description="&lt;b&gt;GGI48_RS27970&lt;/b&gt;&lt;br&gt;hypothetical protein&lt;br&gt;Location: 6054911 - 6054768" locus_tag="GGI48_RS27970" class="clusterblast-orf" id="dummy-1_h1_4_47"  />
</g>
<g id="a1_0048"  >
<polygon points="734,90 742,90 747,85 742,80 734,80 734,90 " style="fill:#d8155a; stroke-width:1; stroke:black; " description="&lt;b&gt;GGI48_RS27965&lt;/b&gt;&lt;br&gt;branched-chain amino acid ABC transporter substrate-binding protein&lt;br&gt;Location: 6054771 - 6053638&lt;br&gt;&lt;br&gt;&lt;b&gt;BlastP hit with MCIC6FC_005535&lt;/b&gt;&lt;br&gt;Percentage identity: 99&lt;br&gt;Percentage coverage: 90&lt;br&gt;BLAST bit score: 723&lt;br&gt;E-value: 1.2e-206" locus_tag="GGI48_RS27965" class="clusterblast-orf" id="dummy-1_h1_4_48"  />
</g>
<g id="a1_0049"  >
<polygon points="753,90 755,90 760,85 755,80 753,80 753,90 " style="fill:#88d815; stroke-width:1; stroke:black; " description="&lt;b&gt;GGI48_RS27960&lt;/b&gt;&lt;br&gt;tail fiber protein&lt;br&gt;Location: 6053042 - 6052497&lt;br&gt;&lt;br&gt;&lt;b&gt;BlastP hit with MCIC6FC_005536&lt;/b&gt;&lt;br&gt;Percentage identity: 62&lt;br&gt;Percentage coverage: 99&lt;br&gt;BLAST bit score: 233&lt;br&gt;E-value: 2.2e-59" locus_tag="GGI48_RS27960" class="clusterblast-orf" id="dummy-1_h1_4_49"  />
</g>
<g id="a1_0050"  >
<polygon points="760,90 762,90 767,85 762,80 760,80 760,90 " style="fill:#88d815; stroke-width:1; stroke:black; " description="&lt;b&gt;GGI48_RS27955&lt;/b&gt;&lt;br&gt;tail fiber protein&lt;br&gt;Location: 6052461 - 6051886&lt;br&gt;&lt;br&gt;&lt;b&gt;BlastP hit with MCIC6FC_005536&lt;/b&gt;&lt;br&gt;Percentage identity: 34&lt;br&gt;Percentage coverage: 106&lt;br&gt;BLAST bit score: 92&lt;br&gt;E-value: 3.6e-17" locus_tag="GGI48_RS27955" class="clusterblast-orf" id="dummy-1_h1_4_50"  />
</g>
<g id="a1_0051"  >
<polygon points="767,90 768,90 773,85 768,80 767,80 767,90 " style="fill:#88d815; stroke-width:1; stroke:black; " description="&lt;b&gt;GGI48_RS27950&lt;/b&gt;&lt;br&gt;tail fiber protein&lt;br&gt;Location: 6051856 - 6051305&lt;br&gt;&lt;br&gt;&lt;b&gt;BlastP hit with MCIC6FC_005536&lt;/b&gt;&lt;br&gt;Percentage identity: 31&lt;br&gt;Percentage coverage: 103&lt;br&gt;BLAST bit score: 86&lt;br&gt;E-value: 3.4e-15" locus_tag="GGI48_RS27950" class="clusterblast-orf" id="dummy-1_h1_4_51"  />
</g>
<g id="a1_0052"  >
<polygon points="773,90 775,90 780,85 775,80 773,80 773,90 " style="fill:white; stroke-width:1; stroke:black; " description="&lt;b&gt;GGI48_RS27945&lt;/b&gt;&lt;br&gt;GNAT family N-acetyltransferase&lt;br&gt;Location: 6051308 - 6050772" locus_tag="GGI48_RS27945" class="clusterblast-orf" id="dummy-1_h1_4_52"  />
</g>
</svg>
