<svg xmlns="http://www.w3.org/2000/svg" xmlns:xlink="http://www.w3.org/1999/xlink" version="1.1" x="0" y="0" height="230" width="800" viewBox="0 0 800 230" preserveAspectRatio="none"  >
<g label="Query sequence" class="clusterblast-cluster"  >
<text x="5" y="20" class="clusterblast-acc"  >
Query sequence</text>
<line x1="10" y1="35" x2="778.0" y2="35" style="stroke-width:1; stroke:grey; "  />
<polygon points="0,35 5,30 189,30 189,40 5,40 0,35 " style="fill:white; stroke-width:1; stroke:black; " description="&lt;b&gt;MCIC6FC_003336&lt;/b&gt;&lt;br&gt;hypothetical protein&lt;br&gt;Location: 693054 - 696792" locus_tag="MCIC6FC_003336" class="clusterblast-orf" id="dummy-2_q0_0_all"  />
<polygon points="201,40 401,40 406,35 401,30 201,30 201,40 " style="fill:#d81515; stroke-width:1; stroke:black; " description="&lt;b&gt;MCIC6FC_003337&lt;/b&gt;&lt;br&gt;hypothetical protein&lt;br&gt;Location: 697036 - 701078" locus_tag="MCIC6FC_003337" class="clusterblast-orf" id="dummy-2_q1_0_all"  />
<polygon points="408,40 497,40 502,35 497,30 408,30 408,40 " style="fill:#15d815; stroke-width:1; stroke:black; " description="&lt;b&gt;MCIC6FC_003338&lt;/b&gt;&lt;br&gt;hypothetical protein&lt;br&gt;Location: 701110 - 702979" locus_tag="MCIC6FC_003338" class="clusterblast-orf" id="dummy-2_q2_0_all"  />
<polygon points="509,40 602,40 607,35 602,30 509,30 509,40 " style="fill:#1515d8; stroke-width:1; stroke:black; " description="&lt;b&gt;MCIC6FC_003339&lt;/b&gt;&lt;br&gt;hypothetical protein&lt;br&gt;Location: 703116 - 705053" locus_tag="MCIC6FC_003339" class="clusterblast-orf" id="dummy-2_q3_0_all"  />
<polygon points="611,40 666,40 671,35 666,30 611,30 611,40 " style="fill:#d815d8; stroke-width:1; stroke:black; " description="&lt;b&gt;MCIC6FC_003340&lt;/b&gt;&lt;br&gt;hypothetical protein&lt;br&gt;Location: 705138 - 706326" locus_tag="MCIC6FC_003340" class="clusterblast-orf" id="dummy-2_q4_0_all"  />
<polygon points="680,35 685,30 744,30 744,40 685,40 680,35 " style="fill:#d8d815; stroke-width:1; stroke:black; " description="&lt;b&gt;MCIC6FC_003341&lt;/b&gt;&lt;br&gt;hypothetical protein&lt;br&gt;Location: 706490 - 707769" locus_tag="MCIC6FC_003341" class="clusterblast-orf" id="dummy-2_q5_0_all"  />
<polygon points="760,40 775,40 780,35 775,30 760,30 760,40 " style="fill:#15d8d8; stroke-width:1; stroke:black; " description="&lt;b&gt;MCIC6FC_003342&lt;/b&gt;&lt;br&gt;hypothetical protein&lt;br&gt;Location: 708075 - 708471" locus_tag="MCIC6FC_003342" class="clusterblast-orf" id="dummy-2_q6_0_all"  />
</g>
<g label="NZ_MOBY01000010" description="NZ_MOBY01000010 (179125-189971): Pseudomonas fluorescens strain 2F9 2F9 conti... (88% of genes show similarity), bacteriocin" class="clusterblast-cluster"  >
<text x="5" y="70" class="clusterblast-acc"  >
<a xlink:href="https://antismash-db.secondarymetabolites.org/area.html?record=NZ_MOBY01000010&amp;start=179125&amp;end=189971" target="_blank">NZ_MOBY01000010 (179125-189971)</a>: Pseudomonas fluorescens strain 2F9 2F9 conti... (88% of genes show similarity), bacteriocin</text>
<line x1="10" y1="85" x2="778.0" y2="85" style="stroke-width:1; stroke:grey; "  />
</g>
<g id="a2_000"  >
<polygon points="150,90 198,90 203,85 198,80 150,80 150,90 " style="fill:#d81515; stroke-width:1; stroke:black; " description="&lt;b&gt;BK672_RS17475&lt;/b&gt;&lt;br&gt;protease modulator HflC&lt;br&gt;Location: 179701 - 180747&lt;br&gt;&lt;br&gt;&lt;b&gt;BlastP hit with MCIC6FC_003337&lt;/b&gt;&lt;br&gt;Percentage identity: 93&lt;br&gt;Percentage coverage: 24&lt;br&gt;BLAST bit score: 443&lt;br&gt;E-value: 7.5e-122" locus_tag="BK672_RS17475" class="clusterblast-orf" id="dummy-2_h2_2_0"  />
</g>
<g id="a2_001"  >
<polygon points="203,90 251,90 256,85 251,80 203,80 203,90 " style="fill:#d81515; stroke-width:1; stroke:black; " description="&lt;b&gt;BK672_RS17480&lt;/b&gt;&lt;br&gt;protease modulator HflK&lt;br&gt;Location: 180744 - 181793&lt;br&gt;&lt;br&gt;&lt;b&gt;BlastP hit with MCIC6FC_003337&lt;/b&gt;&lt;br&gt;Percentage identity: 83&lt;br&gt;Percentage coverage: 27&lt;br&gt;BLAST bit score: 440&lt;br&gt;E-value: 6.4e-121" locus_tag="BK672_RS17480" class="clusterblast-orf" id="dummy-2_h2_2_1"  />
</g>
<g id="a2_002"  >
<polygon points="256,90 347,90 352,85 347,80 256,80 256,90 " style="fill:#15d815; stroke-width:1; stroke:black; " description="&lt;b&gt;BK672_RS17485&lt;/b&gt;&lt;br&gt;cadmium-translocating P-type ATPase&lt;br&gt;Location: 181790 - 183697&lt;br&gt;&lt;br&gt;&lt;b&gt;BlastP hit with MCIC6FC_003338&lt;/b&gt;&lt;br&gt;Percentage identity: 86&lt;br&gt;Percentage coverage: 100&lt;br&gt;BLAST bit score: 904&lt;br&gt;E-value: 7.6e-261" locus_tag="BK672_RS17485" class="clusterblast-orf" id="dummy-2_h2_2_2"  />
</g>
<g id="a2_003"  >
<polygon points="358,90 366,90 371,85 366,80 358,80 358,90 " style="fill:white; stroke-width:1; stroke:black; " description="&lt;b&gt;BK672_RS17490&lt;/b&gt;&lt;br&gt;membrane protein&lt;br&gt;Location: 183808 - 184059" locus_tag="BK672_RS17490" class="clusterblast-orf" id="dummy-2_h2_2_3"  />
</g>
<g id="a2_004"  >
<polygon points="374,90 412,90 417,85 412,80 374,80 374,90 " style="fill:#1515d8; stroke-width:1; stroke:black; " description="&lt;b&gt;BK672_RS17495&lt;/b&gt;&lt;br&gt;DUF692 domain-containing protein&lt;br&gt;Location: 184126 - 184971&lt;br&gt;&lt;br&gt;&lt;b&gt;BlastP hit with MCIC6FC_003339&lt;/b&gt;&lt;br&gt;Percentage identity: 86&lt;br&gt;Percentage coverage: 40&lt;br&gt;BLAST bit score: 452&lt;br&gt;E-value: 7.6e-125" locus_tag="BK672_RS17495" class="clusterblast-orf" id="dummy-2_h2_2_4"  />
</g>
<g id="a2_005"  >
<polygon points="416,90 451,90 456,85 451,80 416,80 416,90 " style="fill:#1515d8; stroke-width:1; stroke:black; " description="&lt;b&gt;BK672_RS17500&lt;/b&gt;&lt;br&gt;putative DNA-binding domain-containing protein&lt;br&gt;Location: 184962 - 185750&lt;br&gt;&lt;br&gt;&lt;b&gt;BlastP hit with MCIC6FC_003339&lt;/b&gt;&lt;br&gt;Percentage identity: 64&lt;br&gt;Percentage coverage: 43&lt;br&gt;BLAST bit score: 349&lt;br&gt;E-value: 6.9e-94" locus_tag="BK672_RS17500" class="clusterblast-orf" id="dummy-2_h2_2_5"  />
</g>
<g id="a2_006"  >
<polygon points="461,90 516,90 521,85 516,80 461,80 461,90 " style="fill:#d815d8; stroke-width:1; stroke:black; " description="&lt;b&gt;BK672_RS17505&lt;/b&gt;&lt;br&gt;class I SAM-dependent methyltransferase&lt;br&gt;Location: 185835 - 187022&lt;br&gt;&lt;br&gt;&lt;b&gt;BlastP hit with MCIC6FC_003340&lt;/b&gt;&lt;br&gt;Percentage identity: 90&lt;br&gt;Percentage coverage: 100&lt;br&gt;BLAST bit score: 746&lt;br&gt;E-value: 1.7e-213" locus_tag="BK672_RS17505" class="clusterblast-orf" id="dummy-2_h2_2_6"  />
</g>
<g id="a2_007"  >
<polygon points="523,85 528,80 596,80 596,90 528,90 523,85 " style="fill:#d8d815; stroke-width:1; stroke:black; " description="&lt;b&gt;BK672_RS17510&lt;/b&gt;&lt;br&gt;cardiolipin synthase&lt;br&gt;Location: 187071 - 188510&lt;br&gt;&lt;br&gt;&lt;b&gt;BlastP hit with MCIC6FC_003341&lt;/b&gt;&lt;br&gt;Percentage identity: 88&lt;br&gt;Percentage coverage: 100&lt;br&gt;BLAST bit score: 756&lt;br&gt;E-value: 1.3e-216" locus_tag="BK672_RS17510" class="clusterblast-orf" id="dummy-2_h2_2_7"  />
</g>
<g id="a2_008"  >
<polygon points="603,90 624,90 629,85 624,80 603,80 603,90 " style="fill:#15d8d8; stroke-width:1; stroke:black; " description="&lt;b&gt;BK672_RS17515&lt;/b&gt;&lt;br&gt;DUF3617 domain-containing protein&lt;br&gt;Location: 188642 - 189160&lt;br&gt;&lt;br&gt;&lt;b&gt;BlastP hit with MCIC6FC_003342&lt;/b&gt;&lt;br&gt;Percentage identity: 77&lt;br&gt;Percentage coverage: 98&lt;br&gt;BLAST bit score: 211&lt;br&gt;E-value: 6.4e-53" locus_tag="BK672_RS17515" class="clusterblast-orf" id="dummy-2_h2_2_8"  />
</g>
</svg>
