<svg xmlns="http://www.w3.org/2000/svg" xmlns:xlink="http://www.w3.org/1999/xlink" version="1.1" x="0" y="0" height="230" width="800" viewBox="0 0 800 230" preserveAspectRatio="none"  >
<g label="Query sequence" class="clusterblast-cluster"  >
<text x="5" y="20" class="clusterblast-acc"  >
Query sequence</text>
<line x1="10" y1="35" x2="778.0" y2="35" style="stroke-width:1; stroke:grey; "  />
<polygon points="0,35 5,30 86,30 86,40 5,40 0,35 " style="fill:white; stroke-width:1; stroke:black; " description="&lt;b&gt;MCIC6FC_007605&lt;/b&gt;&lt;br&gt;hypothetical protein&lt;br&gt;Location: 971776 - 975355" locus_tag="MCIC6FC_007605" class="clusterblast-orf" id="dummy-3_q0_0_all"  />
<polygon points="86,35 91,30 112,30 112,40 91,40 86,35 " style="fill:white; stroke-width:1; stroke:black; " description="&lt;b&gt;MCIC6FC_007606&lt;/b&gt;&lt;br&gt;hypothetical protein&lt;br&gt;Location: 975381 - 976467" locus_tag="MCIC6FC_007606" class="clusterblast-orf" id="dummy-3_q1_0_all"  />
<polygon points="119,40 135,40 140,35 135,30 119,30 119,40 " style="fill:white; stroke-width:1; stroke:black; " description="&lt;b&gt;MCIC6FC_007607&lt;/b&gt;&lt;br&gt;hypothetical protein&lt;br&gt;Location: 976754 - 977637" locus_tag="MCIC6FC_007607" class="clusterblast-orf" id="dummy-3_q2_0_all"  />
<polygon points="146,35 151,30 165,30 165,40 151,40 146,35 " style="fill:white; stroke-width:1; stroke:black; " description="&lt;b&gt;MCIC6FC_007608&lt;/b&gt;&lt;br&gt;hypothetical protein&lt;br&gt;Location: 977867 - 978682" locus_tag="MCIC6FC_007608" class="clusterblast-orf" id="dummy-3_q3_0_all"  />
<polygon points="169,40 189,40 194,35 189,30 169,30 169,40 " style="fill:#d81515; stroke-width:1; stroke:black; " description="&lt;b&gt;MCIC6FC_007609&lt;/b&gt;&lt;br&gt;hypothetical protein&lt;br&gt;Location: 978819 - 979881" locus_tag="MCIC6FC_007609" class="clusterblast-orf" id="dummy-3_q4_0_all"  />
<polygon points="195,35 200,30 244,30 244,40 200,40 195,35 " style="fill:#77d815; stroke-width:1; stroke:black; " description="&lt;b&gt;MCIC6FC_007610&lt;/b&gt;&lt;br&gt;hypothetical protein&lt;br&gt;Location: 979916 - 981955" locus_tag="MCIC6FC_007610" class="clusterblast-orf" id="dummy-3_q5_0_all"  />
<polygon points="248,40 265,40 270,35 265,30 248,30 248,40 " style="fill:white; stroke-width:1; stroke:black; " description="&lt;b&gt;MCIC6FC_007611&lt;/b&gt;&lt;br&gt;hypothetical protein&lt;br&gt;Location: 982143 - 983026" locus_tag="MCIC6FC_007611" class="clusterblast-orf" id="dummy-3_q6_0_all"  />
<polygon points="277,35 282,30 305,30 305,40 282,40 277,35 " style="fill:#15d8d8; stroke-width:1; stroke:black; " description="&lt;b&gt;MCIC6FC_007612&lt;/b&gt;&lt;br&gt;hypothetical protein&lt;br&gt;Location: 983333 - 984520" locus_tag="MCIC6FC_007612" class="clusterblast-orf" id="dummy-3_q7_0_all"  />
<polygon points="311,40 317,40 322,35 317,30 311,30 311,40 " style="fill:#7715d8; stroke-width:1; stroke:black; " description="&lt;b&gt;MCIC6FC_007613&lt;/b&gt;&lt;br&gt;hypothetical protein&lt;br&gt;Location: 984737 - 985190" locus_tag="MCIC6FC_007613" class="clusterblast-orf" id="dummy-3_q8_0_all"  />
<polygon points="324,35 329,30 389,30 389,40 329,40 324,35 " style="fill:#d87715; stroke-width:1; stroke:black; " description="&lt;b&gt;MCIC6FC_007614&lt;/b&gt;&lt;br&gt;hypothetical protein&lt;br&gt;Location: 985312 - 987989" locus_tag="MCIC6FC_007614" class="clusterblast-orf" id="dummy-3_q9_0_all"  />
<polygon points="390,35 395,30 458,30 458,40 395,40 390,35 " style="fill:#15d815; stroke-width:1; stroke:black; " description="&lt;b&gt;MCIC6FC_007615&lt;/b&gt;&lt;br&gt;hypothetical protein&lt;br&gt;Location: 988056 - 990895" locus_tag="MCIC6FC_007615" class="clusterblast-orf" id="dummy-3_q10_0_all"  />
<polygon points="465,40 474,40 479,35 474,30 465,30 465,40 " style="fill:#1577d8; stroke-width:1; stroke:black; " description="&lt;b&gt;MCIC6FC_007616&lt;/b&gt;&lt;br&gt;hypothetical protein&lt;br&gt;Location: 991184 - 991775" locus_tag="MCIC6FC_007616" class="clusterblast-orf" id="dummy-3_q11_0_all"  />
<polygon points="481,35 486,30 497,30 497,40 486,40 481,35 " style="fill:#d815d8; stroke-width:1; stroke:black; " description="&lt;b&gt;MCIC6FC_007617&lt;/b&gt;&lt;br&gt;hypothetical protein&lt;br&gt;Location: 991824 - 992490" locus_tag="MCIC6FC_007617" class="clusterblast-orf" id="dummy-3_q12_0_all"  />
<polygon points="508,40 572,40 577,35 572,30 508,30 508,40 " style="fill:#d8d815; stroke-width:1; stroke:black; " description="&lt;b&gt;MCIC6FC_007618&lt;/b&gt;&lt;br&gt;hypothetical protein&lt;br&gt;Location: 992981 - 995855" locus_tag="MCIC6FC_007618" class="clusterblast-orf" id="dummy-3_q13_0_all"  />
<polygon points="578,40 654,40 659,35 654,30 578,30 578,40 " style="fill:#15d877; stroke-width:1; stroke:black; " description="&lt;b&gt;MCIC6FC_007619&lt;/b&gt;&lt;br&gt;hypothetical protein&lt;br&gt;Location: 995875 - 999269" locus_tag="MCIC6FC_007619" class="clusterblast-orf" id="dummy-3_q14_0_all"  />
<polygon points="659,35 664,30 737,30 737,40 664,40 659,35 " style="fill:#1515d8; stroke-width:1; stroke:black; " description="&lt;b&gt;MCIC6FC_007620&lt;/b&gt;&lt;br&gt;hypothetical protein&lt;br&gt;Location: 999279 - 1002494" locus_tag="MCIC6FC_007620" class="clusterblast-orf" id="dummy-3_q15_0_all"  />
<polygon points="738,35 743,30 769,30 769,40 743,40 738,35 " style="fill:#d81577; stroke-width:1; stroke:black; " description="&lt;b&gt;MCIC6FC_007621&lt;/b&gt;&lt;br&gt;hypothetical protein&lt;br&gt;Location: 1002561 - 1003827" locus_tag="MCIC6FC_007621" class="clusterblast-orf" id="dummy-3_q16_0_all"  />
<polygon points="770,35 775,30 780,30 780,40 775,40 770,35 " style="fill:white; stroke-width:1; stroke:black; " description="&lt;b&gt;MCIC6FC_007622&lt;/b&gt;&lt;br&gt;hypothetical protein&lt;br&gt;Location: 1003881 - 1004292" locus_tag="MCIC6FC_007622" class="clusterblast-orf" id="dummy-3_q17_0_all"  />
</g>
<g label="NZ_CP027756" description="NZ_CP027756 (3195517-3218279): Pseudomonas synxantha strain R6-28-08 chromoso... (50% of genes show similarity), hserlactone,phenazine" class="clusterblast-cluster"  >
<text x="5" y="70" class="clusterblast-acc"  >
<a xlink:href="https://antismash-db.secondarymetabolites.org/area.html?record=NZ_CP027756&amp;start=3195517&amp;end=3218279" target="_blank">NZ_CP027756 (3195517-3218279)</a>: Pseudomonas synxantha strain R6-28-08 chromoso... (50% of genes show similarity), hserlactone,phenazine</text>
<line x1="10" y1="85" x2="778.0" y2="85" style="stroke-width:1; stroke:grey; "  />
</g>
<g id="a3_000"  >
<polygon points="130,85 135,80 147,80 147,90 135,90 130,85 " style="fill:#77d815; stroke-width:1; stroke:black; " description="&lt;b&gt;C4K01_RS14510&lt;/b&gt;&lt;br&gt;response regulator&lt;br&gt;Location: 3195753 - 3196493&lt;br&gt;&lt;br&gt;&lt;b&gt;BlastP hit with MCIC6FC_007610&lt;/b&gt;&lt;br&gt;Percentage identity: 35&lt;br&gt;Percentage coverage: 32&lt;br&gt;BLAST bit score: 111&lt;br&gt;E-value: 3.5e-22" locus_tag="C4K01_RS14510" class="clusterblast-orf" id="dummy-3_h3_10_0"  />
</g>
<g id="a3_001"  >
<polygon points="155,90 156,90 161,85 156,80 155,80 155,90 " style="fill:white; stroke-width:1; stroke:black; " description="&lt;b&gt;C4K01_RS14515&lt;/b&gt;&lt;br&gt;DUF2790 domain-containing protein&lt;br&gt;Location: 3196798 - 3197058" locus_tag="C4K01_RS14515" class="clusterblast-orf" id="dummy-3_h3_10_1"  />
</g>
<g id="a3_002"  >
<polygon points="162,90 186,90 191,85 186,80 162,80 162,90 " style="fill:white; stroke-width:1; stroke:black; " description="&lt;b&gt;C4K01_RS14520&lt;/b&gt;&lt;br&gt;cytochrome c biogenesis protein DipZ&lt;br&gt;Location: 3197089 - 3198300" locus_tag="C4K01_RS14520" class="clusterblast-orf" id="dummy-3_h3_10_2"  />
</g>
<g id="a3_003"  >
<polygon points="193,85 198,80 227,80 227,90 198,90 193,85 " style="fill:white; stroke-width:1; stroke:black; " description="&lt;b&gt;C4K01_RS14525&lt;/b&gt;&lt;br&gt;aldehyde dehydrogenase family protein&lt;br&gt;Location: 3198400 - 3199818" locus_tag="C4K01_RS14525" class="clusterblast-orf" id="dummy-3_h3_10_3"  />
</g>
<g id="a3_004"  >
<polygon points="228,85 231,80 231,90 228,85 " style="fill:white; stroke-width:1; stroke:black; " description="&lt;b&gt;C4K01_RS14530&lt;/b&gt;&lt;br&gt;creatininase family protein&lt;br&gt;Location: 3199837 - 3199982" locus_tag="C4K01_RS14530" class="clusterblast-orf" id="dummy-3_h3_10_4"  />
</g>
<g id="a3_005"  >
<polygon points="231,85 236,80 250,80 250,90 236,90 231,85 " style="fill:white; stroke-width:1; stroke:black; " description="&lt;b&gt;C4K01_RS14535&lt;/b&gt;&lt;br&gt;alpha/beta hydrolase&lt;br&gt;Location: 3199989 - 3200765" locus_tag="C4K01_RS14535" class="clusterblast-orf" id="dummy-3_h3_10_5"  />
</g>
<g id="a3_006"  >
<polygon points="251,85 256,80 263,80 263,90 256,90 251,85 " style="fill:white; stroke-width:1; stroke:black; " description="&lt;b&gt;C4K01_RS14540&lt;/b&gt;&lt;br&gt;cytochrome P460 family protein&lt;br&gt;Location: 3200790 - 3201299" locus_tag="C4K01_RS14540" class="clusterblast-orf" id="dummy-3_h3_10_6"  />
</g>
<g id="a3_007"  >
<polygon points="263,85 268,80 289,80 289,90 268,90 263,85 " style="fill:white; stroke-width:1; stroke:black; " description="&lt;b&gt;C4K01_RS14545&lt;/b&gt;&lt;br&gt;alpha/beta hydrolase&lt;br&gt;Location: 3201324 - 3202397" locus_tag="C4K01_RS14545" class="clusterblast-orf" id="dummy-3_h3_10_7"  />
</g>
<g id="a3_008"  >
<polygon points="291,85 296,80 323,80 323,90 296,90 291,85 " style="fill:white; stroke-width:1; stroke:black; " description="&lt;b&gt;C4K01_RS14550&lt;/b&gt;&lt;br&gt;epoxide hydrolase&lt;br&gt;Location: 3202460 - 3203827" locus_tag="C4K01_RS14550" class="clusterblast-orf" id="dummy-3_h3_10_8"  />
</g>
<g id="a3_009"  >
<polygon points="335,90 345,90 350,85 345,80 335,80 335,90 " style="fill:white; stroke-width:1; stroke:black; " description="&lt;b&gt;C4K01_RS14555&lt;/b&gt;&lt;br&gt;LysE family translocator&lt;br&gt;Location: 3204302 - 3204934" locus_tag="C4K01_RS14555" class="clusterblast-orf" id="dummy-3_h3_10_9"  />
</g>
<g id="a3_0010"  >
<polygon points="351,85 356,80 357,80 357,90 356,90 351,85 " style="fill:#15d8d8; stroke-width:1; stroke:black; " description="&lt;b&gt;C4K01_RS14560&lt;/b&gt;&lt;br&gt;CsbD family protein&lt;br&gt;Location: 3204994 - 3205242&lt;br&gt;&lt;br&gt;&lt;b&gt;BlastP hit with MCIC6FC_007612&lt;/b&gt;&lt;br&gt;Percentage identity: 86&lt;br&gt;Percentage coverage: 29&lt;br&gt;BLAST bit score: 129&lt;br&gt;E-value: 3.9e-28" locus_tag="C4K01_RS14560" class="clusterblast-orf" id="dummy-3_h3_10_10"  />
</g>
<g id="a3_0011"  >
<polygon points="364,90 373,90 378,85 373,80 364,80 364,90 " style="fill:#1577d8; stroke-width:1; stroke:black; " description="&lt;b&gt;C4K01_RS14565&lt;/b&gt;&lt;br&gt;GNAT family N-acetyltransferase&lt;br&gt;Location: 3205518 - 3206108&lt;br&gt;&lt;br&gt;&lt;b&gt;BlastP hit with MCIC6FC_007616&lt;/b&gt;&lt;br&gt;Percentage identity: 86&lt;br&gt;Percentage coverage: 100&lt;br&gt;BLAST bit score: 349&lt;br&gt;E-value: 2.3e-94" locus_tag="C4K01_RS14565" class="clusterblast-orf" id="dummy-3_h3_10_11"  />
</g>
<g id="a3_0012"  >
<polygon points="379,85 384,80 397,80 397,90 384,90 379,85 " style="fill:#d815d8; stroke-width:1; stroke:black; " description="&lt;b&gt;C4K01_RS14570&lt;/b&gt;&lt;br&gt;transcriptional regulator&lt;br&gt;Location: 3206159 - 3206884&lt;br&gt;&lt;br&gt;&lt;b&gt;BlastP hit with MCIC6FC_007617&lt;/b&gt;&lt;br&gt;Percentage identity: 89&lt;br&gt;Percentage coverage: 100&lt;br&gt;BLAST bit score: 410&lt;br&gt;E-value: 9.3e-113" locus_tag="C4K01_RS14570" class="clusterblast-orf" id="dummy-3_h3_10_12"  />
</g>
<g id="a3_0013"  >
<polygon points="406,90 413,90 418,85 413,80 406,80 406,90 " style="fill:#d8d815; stroke-width:1; stroke:black; " description="&lt;b&gt;C4K01_RS14575&lt;/b&gt;&lt;br&gt;SnoaL-like domain-containing protein&lt;br&gt;Location: 3207274 - 3207765&lt;br&gt;&lt;br&gt;&lt;b&gt;BlastP hit with MCIC6FC_007618&lt;/b&gt;&lt;br&gt;Percentage identity: 91&lt;br&gt;Percentage coverage: 18&lt;br&gt;BLAST bit score: 315&lt;br&gt;E-value: 2.2e-83" locus_tag="C4K01_RS14575" class="clusterblast-orf" id="dummy-3_h3_10_13"  />
</g>
<g id="a3_0014"  >
<polygon points="418,90 425,90 430,85 425,80 418,80 418,90 " style="fill:#d8d815; stroke-width:1; stroke:black; " description="&lt;b&gt;C4K01_RS14580&lt;/b&gt;&lt;br&gt;phenazine biosynthesis protein PhzB&lt;br&gt;Location: 3207791 - 3208279&lt;br&gt;&lt;br&gt;&lt;b&gt;BlastP hit with MCIC6FC_007618&lt;/b&gt;&lt;br&gt;Percentage identity: 96&lt;br&gt;Percentage coverage: 16&lt;br&gt;BLAST bit score: 303&lt;br&gt;E-value: 6.5e-80" locus_tag="C4K01_RS14580" class="clusterblast-orf" id="dummy-3_h3_10_14"  />
</g>
<g id="a3_0015"  >
<polygon points="431,90 455,90 460,85 455,80 431,80 431,90 " style="fill:#d8d815; stroke-width:1; stroke:black; " description="&lt;b&gt;C4K01_RS14585&lt;/b&gt;&lt;br&gt;phospho-2-dehydro-3-deoxyheptonate aldolase&lt;br&gt;Location: 3208304 - 3209506&lt;br&gt;&lt;br&gt;&lt;b&gt;BlastP hit with MCIC6FC_007618&lt;/b&gt;&lt;br&gt;Percentage identity: 90&lt;br&gt;Percentage coverage: 43&lt;br&gt;BLAST bit score: 706&lt;br&gt;E-value: 2.5e-201" locus_tag="C4K01_RS14585" class="clusterblast-orf" id="dummy-3_h3_10_15"  />
</g>
<g id="a3_0016"  >
<polygon points="460,90 470,90 475,85 470,80 460,80 460,90 " style="fill:#d8d815; stroke-width:1; stroke:black; " description="&lt;b&gt;C4K01_RS14590&lt;/b&gt;&lt;br&gt;isochorismatase family protein&lt;br&gt;Location: 3209522 - 3210145&lt;br&gt;&lt;br&gt;&lt;b&gt;BlastP hit with MCIC6FC_007618&lt;/b&gt;&lt;br&gt;Percentage identity: 88&lt;br&gt;Percentage coverage: 23&lt;br&gt;BLAST bit score: 391&lt;br&gt;E-value: 3.1e-106" locus_tag="C4K01_RS14590" class="clusterblast-orf" id="dummy-3_h3_10_16"  />
</g>
<g id="a3_0017"  >
<polygon points="475,90 516,90 521,85 516,80 475,80 475,90 " style="fill:#15d877; stroke-width:1; stroke:black; " description="&lt;b&gt;C4K01_RS14595&lt;/b&gt;&lt;br&gt;phenazine-specific anthranilate synthase&lt;br&gt;Location: 3210142 - 3212055&lt;br&gt;&lt;br&gt;&lt;b&gt;BlastP hit with MCIC6FC_007619&lt;/b&gt;&lt;br&gt;Percentage identity: 95&lt;br&gt;Percentage coverage: 56&lt;br&gt;BLAST bit score: 1154&lt;br&gt;E-value: 0.0" locus_tag="C4K01_RS14595" class="clusterblast-orf" id="dummy-3_h3_10_17"  />
</g>
<g id="a3_0018"  >
<polygon points="521,90 536,90 541,85 536,80 521,80 521,90 " style="fill:#15d877; stroke-width:1; stroke:black; " description="&lt;b&gt;C4K01_RS14600&lt;/b&gt;&lt;br&gt;PhzF family phenazine biosynthesis protein&lt;br&gt;Location: 3212058 - 3212894&lt;br&gt;&lt;br&gt;&lt;b&gt;BlastP hit with MCIC6FC_007619&lt;/b&gt;&lt;br&gt;Percentage identity: 97&lt;br&gt;Percentage coverage: 25&lt;br&gt;BLAST bit score: 545&lt;br&gt;E-value: 9.3e-153" locus_tag="C4K01_RS14600" class="clusterblast-orf" id="dummy-3_h3_10_18"  />
</g>
<g id="a3_0019"  >
<polygon points="541,90 552,90 557,85 552,80 541,80 541,90 " style="fill:#15d877; stroke-width:1; stroke:black; " description="&lt;b&gt;C4K01_RS14605&lt;/b&gt;&lt;br&gt;pyridoxamine 5'-phosphate oxidase&lt;br&gt;Location: 3212891 - 3213559&lt;br&gt;&lt;br&gt;&lt;b&gt;BlastP hit with MCIC6FC_007619&lt;/b&gt;&lt;br&gt;Percentage identity: 94&lt;br&gt;Percentage coverage: 19&lt;br&gt;BLAST bit score: 413&lt;br&gt;E-value: 7.2e-113" locus_tag="C4K01_RS14605" class="clusterblast-orf" id="dummy-3_h3_10_19"  />
</g>
<g id="a3_0020"  >
<polygon points="576,90 602,90 607,85 602,80 576,80 576,90 " style="fill:white; stroke-width:1; stroke:black; " description="&lt;b&gt;C4K01_RS14615&lt;/b&gt;&lt;br&gt;MFS transporter&lt;br&gt;Location: 3214341 - 3215633" locus_tag="C4K01_RS14615" class="clusterblast-orf" id="dummy-3_h3_10_20"  />
</g>
<g id="a3_0021"  >
<polygon points="608,85 613,80 649,80 649,90 613,90 608,85 " style="fill:white; stroke-width:1; stroke:black; " description="&lt;b&gt;C4K01_RS14620&lt;/b&gt;&lt;br&gt;formyl transferase&lt;br&gt;Location: 3215679 - 3217412" locus_tag="C4K01_RS14620" class="clusterblast-orf" id="dummy-3_h3_10_21"  />
</g>
</svg>
