<svg xmlns="http://www.w3.org/2000/svg" xmlns:xlink="http://www.w3.org/1999/xlink" version="1.1" x="0" y="0" height="230" width="800" viewBox="0 0 800 230" preserveAspectRatio="none"  >
<g label="Query sequence" class="clusterblast-cluster"  >
<text x="5" y="20" class="clusterblast-acc"  >
Query sequence</text>
<line x1="10" y1="35" x2="778.0" y2="35" style="stroke-width:1; stroke:grey; "  />
<polygon points="286,35 291,30 396,30 396,40 291,40 286,35 " style="fill:#d81515; stroke-width:1; stroke:black; " description="&lt;b&gt;MCIC6FC_018158&lt;/b&gt;&lt;br&gt;hypothetical protein&lt;br&gt;Location: 80 - 6182" locus_tag="MCIC6FC_018158" class="clusterblast-orf" id="dummy-1_q0_0_all"  />
<polygon points="397,40 411,40 416,35 411,30 397,30 397,40 " style="fill:#15d815; stroke-width:1; stroke:black; " description="&lt;b&gt;MCIC6FC_018159&lt;/b&gt;&lt;br&gt;hypothetical protein&lt;br&gt;Location: 6243 - 7316" locus_tag="MCIC6FC_018159" class="clusterblast-orf" id="dummy-1_q1_0_all"  />
<polygon points="416,35 421,30 481,30 481,40 421,40 416,35 " style="fill:#1515d8; stroke-width:1; stroke:black; " description="&lt;b&gt;MCIC6FC_018160&lt;/b&gt;&lt;br&gt;hypothetical protein&lt;br&gt;Location: 7322 - 10946" locus_tag="MCIC6FC_018160" class="clusterblast-orf" id="dummy-1_q2_0_all"  />
<polygon points="484,35 489,30 493,30 493,40 489,40 484,35 " style="fill:#1515d8; stroke-width:1; stroke:black; " description="&lt;b&gt;MCIC6FC_018161&lt;/b&gt;&lt;br&gt;hypothetical protein&lt;br&gt;Location: 11087 - 11594" locus_tag="MCIC6FC_018161" class="clusterblast-orf" id="dummy-1_q3_0_all"  />
</g>
<g label="NZ_CP049045" description="NZ_CP049045 (6600306-6643763): Pseudomonas sp. BIOMIG1BAC chromosome, complet... (20% of genes show similarity), NRPS-like" class="clusterblast-cluster"  >
<text x="5" y="70" class="clusterblast-acc"  >
<a xlink:href="https://antismash-db.secondarymetabolites.org/area.html?record=NZ_CP049045&amp;start=6600306&amp;end=6643763" target="_blank">NZ_CP049045 (6600306-6643763)</a>: Pseudomonas sp. BIOMIG1BAC chromosome, complet... (20% of genes show similarity), NRPS-like</text>
<line x1="10" y1="85" x2="778.0" y2="85" style="stroke-width:1; stroke:grey; "  />
</g>
<g id="a1_000"  >
<polygon points="0,85 5,80 16,80 16,90 5,90 0,85 " style="fill:white; stroke-width:1; stroke:black; " description="&lt;b&gt;ATY02_RS30885&lt;/b&gt;&lt;br&gt;DMT family transporter&lt;br&gt;Location: 6643763 - 6642834" locus_tag="ATY02_RS30885" class="clusterblast-orf" id="dummy-1_h1_6_0"  />
</g>
<g id="a1_001"  >
<polygon points="18,90 29,90 34,85 29,80 18,80 18,90 " style="fill:white; stroke-width:1; stroke:black; " description="&lt;b&gt;ATY02_RS30880&lt;/b&gt;&lt;br&gt;LysR family transcriptional regulator&lt;br&gt;Location: 6642731 - 6641832" locus_tag="ATY02_RS30880" class="clusterblast-orf" id="dummy-1_h1_6_1"  />
</g>
<g id="a1_002"  >
<polygon points="34,85 39,80 74,80 74,90 39,90 34,85 " style="fill:white; stroke-width:1; stroke:black; " description="&lt;b&gt;ATY02_RS30875&lt;/b&gt;&lt;br&gt;GAF domain-containing protein&lt;br&gt;Location: 6641828 - 6639594" locus_tag="ATY02_RS30875" class="clusterblast-orf" id="dummy-1_h1_6_2"  />
</g>
<g id="a1_003"  >
<polygon points="74,85 79,80 85,80 85,90 79,90 74,85 " style="fill:white; stroke-width:1; stroke:black; " description="&lt;b&gt;ATY02_RS30870&lt;/b&gt;&lt;br&gt;biliverdin-producing heme oxygenase&lt;br&gt;Location: 6639597 - 6638983" locus_tag="ATY02_RS30870" class="clusterblast-orf" id="dummy-1_h1_6_3"  />
</g>
<g id="a1_004"  >
<polygon points="90,85 95,80 97,80 97,90 95,90 90,85 " style="fill:white; stroke-width:1; stroke:black; " description="&lt;b&gt;ATY02_RS30865&lt;/b&gt;&lt;br&gt;cupin domain-containing protein&lt;br&gt;Location: 6638746 - 6638354" locus_tag="ATY02_RS30865" class="clusterblast-orf" id="dummy-1_h1_6_4"  />
</g>
<g id="a1_005"  >
<polygon points="98,85 103,80 113,80 113,90 103,90 98,85 " style="fill:white; stroke-width:1; stroke:black; " description="&lt;b&gt;ATY02_RS30860&lt;/b&gt;&lt;br&gt;AraC family transcriptional regulator&lt;br&gt;Location: 6638274 - 6637465" locus_tag="ATY02_RS30860" class="clusterblast-orf" id="dummy-1_h1_6_5"  />
</g>
<g id="a1_006"  >
<polygon points="113,85 118,80 120,80 120,90 118,90 113,85 " style="fill:white; stroke-width:1; stroke:black; " description="&lt;b&gt;ATY02_RS30855&lt;/b&gt;&lt;br&gt;DUF190 domain-containing protein&lt;br&gt;Location: 6637429 - 6637058" locus_tag="ATY02_RS30855" class="clusterblast-orf" id="dummy-1_h1_6_6"  />
</g>
<g id="a1_007"  >
<polygon points="123,90 127,90 132,85 127,80 123,80 123,90 " style="fill:white; stroke-width:1; stroke:black; " description="&lt;b&gt;ATY02_RS30850&lt;/b&gt;&lt;br&gt;GNAT family N-acetyltransferase&lt;br&gt;Location: 6636877 - 6636398" locus_tag="ATY02_RS30850" class="clusterblast-orf" id="dummy-1_h1_6_7"  />
</g>
<g id="a1_008"  >
<polygon points="132,90 147,90 152,85 147,80 132,80 132,90 " style="fill:white; stroke-width:1; stroke:black; " description="&lt;b&gt;ATY02_RS30845&lt;/b&gt;&lt;br&gt;D-alanine--D-alanine ligase&lt;br&gt;Location: 6636363 - 6635269" locus_tag="ATY02_RS30845" class="clusterblast-orf" id="dummy-1_h1_6_8"  />
</g>
<g id="a1_009"  >
<polygon points="153,90 154,90 159,85 154,80 153,80 153,90 " style="fill:white; stroke-width:1; stroke:black; " description="&lt;b&gt;ATY02_RS30840&lt;/b&gt;&lt;br&gt;gamma-glutamylcyclotransferase&lt;br&gt;Location: 6635236 - 6634883" locus_tag="ATY02_RS30840" class="clusterblast-orf" id="dummy-1_h1_6_9"  />
</g>
<g id="a1_0010"  >
<polygon points="159,85 164,80 169,80 169,90 164,90 159,85 " style="fill:white; stroke-width:1; stroke:black; " description="&lt;b&gt;ATY02_RS30835&lt;/b&gt;&lt;br&gt;hypothetical protein&lt;br&gt;Location: 6634880 - 6634299" locus_tag="ATY02_RS30835" class="clusterblast-orf" id="dummy-1_h1_6_10"  />
</g>
<g id="a1_0011"  >
<polygon points="171,85 176,80 184,80 184,90 176,90 171,85 " style="fill:white; stroke-width:1; stroke:black; " description="&lt;b&gt;ATY02_RS30830&lt;/b&gt;&lt;br&gt;polyphenol oxidase family protein&lt;br&gt;Location: 6634220 - 6633495" locus_tag="ATY02_RS30830" class="clusterblast-orf" id="dummy-1_h1_6_11"  />
</g>
<g id="a1_0012"  >
<polygon points="186,85 191,80 201,80 201,90 191,90 186,85 " style="fill:white; stroke-width:1; stroke:black; " description="&lt;b&gt;ATY02_RS30825&lt;/b&gt;&lt;br&gt;MerR family transcriptional regulator&lt;br&gt;Location: 6633373 - 6632561" locus_tag="ATY02_RS30825" class="clusterblast-orf" id="dummy-1_h1_6_12"  />
</g>
<g id="a1_0013"  >
<polygon points="202,85 207,80 209,80 209,90 207,90 202,85 " style="fill:white; stroke-width:1; stroke:black; " description="&lt;b&gt;ATY02_RS30820&lt;/b&gt;&lt;br&gt;transcriptional regulator&lt;br&gt;Location: 6632482 - 6632111" locus_tag="ATY02_RS30820" class="clusterblast-orf" id="dummy-1_h1_6_13"  />
</g>
<g id="a1_0014"  >
<polygon points="209,85 214,80 214,80 214,90 214,90 209,85 " style="fill:white; stroke-width:1; stroke:black; " description="&lt;b&gt;ATY02_RS30815&lt;/b&gt;&lt;br&gt;type II toxin-antitoxin system HigB family toxin&lt;br&gt;Location: 6632105 - 6631803" locus_tag="ATY02_RS30815" class="clusterblast-orf" id="dummy-1_h1_6_14"  />
</g>
<g id="a1_0015"  >
<polygon points="216,85 221,80 222,80 222,90 221,90 216,85 " style="fill:white; stroke-width:1; stroke:black; " description="&lt;b&gt;ATY02_RS35865&lt;/b&gt;&lt;br&gt;DUF3077 domain-containing protein&lt;br&gt;Location: 6631687 - 6631343" locus_tag="ATY02_RS35865" class="clusterblast-orf" id="dummy-1_h1_6_15"  />
</g>
<g id="a1_0016"  >
<polygon points="221,85 226,80 230,80 230,90 226,90 221,85 " style="fill:white; stroke-width:1; stroke:black; " description="&lt;b&gt;ATY02_RS30805&lt;/b&gt;&lt;br&gt;GNAT family N-acetyltransferase&lt;br&gt;Location: 6631431 - 6630931" locus_tag="ATY02_RS30805" class="clusterblast-orf" id="dummy-1_h1_6_16"  />
</g>
<g id="a1_0017"  >
<polygon points="232,85 237,80 265,80 265,90 237,90 232,85 " style="fill:white; stroke-width:1; stroke:black; " description="&lt;b&gt;ATY02_RS30800&lt;/b&gt;&lt;br&gt;gamma-glutamyltransferase&lt;br&gt;Location: 6630790 - 6628955" locus_tag="ATY02_RS30800" class="clusterblast-orf" id="dummy-1_h1_6_17"  />
</g>
<g id="a1_0018"  >
<polygon points="269,90 282,90 287,85 282,80 269,80 269,90 " style="fill:white; stroke-width:1; stroke:black; " description="&lt;b&gt;ATY02_RS30795&lt;/b&gt;&lt;br&gt;cytochrome-c peroxidase&lt;br&gt;Location: 6628742 - 6627750" locus_tag="ATY02_RS30795" class="clusterblast-orf" id="dummy-1_h1_6_18"  />
</g>
<g id="a1_0019"  >
<polygon points="288,85 293,80 298,80 298,90 293,90 288,85 " style="fill:white; stroke-width:1; stroke:black; " description="&lt;b&gt;ATY02_RS30790&lt;/b&gt;&lt;br&gt;GNAT family N-acetyltransferase&lt;br&gt;Location: 6627685 - 6627113" locus_tag="ATY02_RS30790" class="clusterblast-orf" id="dummy-1_h1_6_19"  />
</g>
<g id="a1_0020"  >
<polygon points="300,85 305,80 315,80 315,90 305,90 300,85 " style="fill:white; stroke-width:1; stroke:black; " description="&lt;b&gt;ATY02_RS30785&lt;/b&gt;&lt;br&gt;5'-nucleotidase, lipoprotein e(P4) family&lt;br&gt;Location: 6627042 - 6626194" locus_tag="ATY02_RS30785" class="clusterblast-orf" id="dummy-1_h1_6_20"  />
</g>
<g id="a1_0021"  >
<polygon points="328,85 333,80 340,80 340,90 333,90 328,85 " style="fill:white; stroke-width:1; stroke:black; " description="&lt;b&gt;ATY02_RS30780&lt;/b&gt;&lt;br&gt;adenylyl-sulfate kinase&lt;br&gt;Location: 6625444 - 6624812" locus_tag="ATY02_RS30780" class="clusterblast-orf" id="dummy-1_h1_6_21"  />
</g>
<g id="a1_0022"  >
<polygon points="340,85 345,80 358,80 358,90 345,90 340,85 " style="fill:#d81515; stroke-width:1; stroke:black; " description="&lt;b&gt;ATY02_RS30775&lt;/b&gt;&lt;br&gt;NAD(P)-dependent alcohol dehydrogenase&lt;br&gt;Location: 6624781 - 6623774&lt;br&gt;&lt;br&gt;&lt;b&gt;BlastP hit with MCIC6FC_018158&lt;/b&gt;&lt;br&gt;Percentage identity: 45&lt;br&gt;Percentage coverage: 17&lt;br&gt;BLAST bit score: 245&lt;br&gt;E-value: 5.5e-62" locus_tag="ATY02_RS30775" class="clusterblast-orf" id="dummy-1_h1_6_22"  />
</g>
<g id="a1_0023"  >
<polygon points="358,85 363,80 432,80 432,90 363,90 358,85 " style="fill:#d81515; stroke-width:1; stroke:black; " description="&lt;b&gt;ATY02_RS30770&lt;/b&gt;&lt;br&gt;SDR family oxidoreductase&lt;br&gt;Location: 6623769 - 6619675&lt;br&gt;&lt;br&gt;&lt;b&gt;BlastP hit with MCIC6FC_018158&lt;/b&gt;&lt;br&gt;Percentage identity: 32&lt;br&gt;Percentage coverage: 76&lt;br&gt;BLAST bit score: 518&lt;br&gt;E-value: 2.6e-144" locus_tag="ATY02_RS30770" class="clusterblast-orf" id="dummy-1_h1_6_23"  />
</g>
<g id="a1_0024"  >
<polygon points="433,85 438,80 449,80 449,90 438,90 433,85 " style="fill:#d81515; stroke-width:1; stroke:black; " description="&lt;b&gt;ATY02_RS30765&lt;/b&gt;&lt;br&gt;DMT family transporter&lt;br&gt;Location: 6619638 - 6618703&lt;br&gt;&lt;br&gt;&lt;b&gt;BlastP hit with MCIC6FC_018158&lt;/b&gt;&lt;br&gt;Percentage identity: 37&lt;br&gt;Percentage coverage: 17&lt;br&gt;BLAST bit score: 149&lt;br&gt;E-value: 2.4e-33" locus_tag="ATY02_RS30765" class="clusterblast-orf" id="dummy-1_h1_6_24"  />
</g>
<g id="a1_0025"  >
<polygon points="451,90 462,90 467,85 462,80 451,80 451,90 " style="fill:#15d815; stroke-width:1; stroke:black; " description="&lt;b&gt;ATY02_RS30760&lt;/b&gt;&lt;br&gt;LysR family transcriptional regulator&lt;br&gt;Location: 6618612 - 6617707&lt;br&gt;&lt;br&gt;&lt;b&gt;BlastP hit with MCIC6FC_018159&lt;/b&gt;&lt;br&gt;Percentage identity: 44&lt;br&gt;Percentage coverage: 90&lt;br&gt;BLAST bit score: 204&lt;br&gt;E-value: 1.9e-50" locus_tag="ATY02_RS30760" class="clusterblast-orf" id="dummy-1_h1_6_25"  />
</g>
<g id="a1_0026"  >
<polygon points="473,85 478,80 493,80 493,90 478,90 473,85 " style="fill:#1515d8; stroke-width:1; stroke:black; " description="&lt;b&gt;ATY02_RS30755&lt;/b&gt;&lt;br&gt;aromatic ring-hydroxylating dioxygenase subunit alpha&lt;br&gt;Location: 6617393 - 6616257&lt;br&gt;&lt;br&gt;&lt;b&gt;BlastP hit with MCIC6FC_018160&lt;/b&gt;&lt;br&gt;Percentage identity: 41&lt;br&gt;Percentage coverage: 28&lt;br&gt;BLAST bit score: 209&lt;br&gt;E-value: 2e-51" locus_tag="ATY02_RS30755" class="clusterblast-orf" id="dummy-1_h1_6_26"  />
</g>
<g id="a1_0027"  >
<polygon points="494,85 499,80 514,80 514,90 499,90 494,85 " style="fill:#1515d8; stroke-width:1; stroke:black; " description="&lt;b&gt;ATY02_RS30750&lt;/b&gt;&lt;br&gt;mandelate racemase/muconate lactonizing enzyme family protein&lt;br&gt;Location: 6616215 - 6615112&lt;br&gt;&lt;br&gt;&lt;b&gt;BlastP hit with MCIC6FC_018160&lt;/b&gt;&lt;br&gt;Percentage identity: 49&lt;br&gt;Percentage coverage: 28&lt;br&gt;BLAST bit score: 262&lt;br&gt;E-value: 1.5e-67" locus_tag="ATY02_RS30750" class="clusterblast-orf" id="dummy-1_h1_6_27"  />
</g>
<g id="a1_0028"  >
<polygon points="514,85 519,80 538,80 538,90 519,90 514,85 " style="fill:#1515d8; stroke-width:1; stroke:black; " description="&lt;b&gt;ATY02_RS30745&lt;/b&gt;&lt;br&gt;NAD(P)-dependent oxidoreductase&lt;br&gt;Location: 6615115 - 6613745&lt;br&gt;&lt;br&gt;&lt;b&gt;BlastP hit with MCIC6FC_018160&lt;/b&gt;&lt;br&gt;Percentage identity: 48&lt;br&gt;Percentage coverage: 15&lt;br&gt;BLAST bit score: 150&lt;br&gt;E-value: 1.1e-33" locus_tag="ATY02_RS30745" class="clusterblast-orf" id="dummy-1_h1_6_28"  />
</g>
<g id="a1_0029"  >
<polygon points="539,85 544,80 555,80 555,90 544,90 539,85 " style="fill:#1515d8; stroke-width:1; stroke:black; " description="&lt;b&gt;ATY02_RS30740&lt;/b&gt;&lt;br&gt;isopenicillin N synthase family oxygenase&lt;br&gt;Location: 6613722 - 6612793&lt;br&gt;&lt;br&gt;&lt;b&gt;BlastP hit with MCIC6FC_018161&lt;/b&gt;&lt;br&gt;Percentage identity: 50&lt;br&gt;Percentage coverage: 53&lt;br&gt;BLAST bit score: 77&lt;br&gt;E-value: 9.1e-13" locus_tag="ATY02_RS30740" class="clusterblast-orf" id="dummy-1_h1_6_29"  />
</g>
<g id="a1_0030"  >
<polygon points="556,85 561,80 566,80 566,90 561,90 556,85 " style="fill:white; stroke-width:1; stroke:black; " description="&lt;b&gt;ATY02_RS30735&lt;/b&gt;&lt;br&gt;methyltransferase domain-containing protein&lt;br&gt;Location: 6612779 - 6612198" locus_tag="ATY02_RS30735" class="clusterblast-orf" id="dummy-1_h1_6_30"  />
</g>
<g id="a1_0031"  >
<polygon points="566,85 571,80 606,80 606,90 571,90 566,85 " style="fill:white; stroke-width:1; stroke:black; " description="&lt;b&gt;ATY02_RS30730&lt;/b&gt;&lt;br&gt;aminoglycoside phosphotransferase family protein&lt;br&gt;Location: 6612201 - 6609997" locus_tag="ATY02_RS30730" class="clusterblast-orf" id="dummy-1_h1_6_31"  />
</g>
<g id="a1_0032"  >
<polygon points="607,85 612,80 626,80 626,90 612,90 607,85 " style="fill:white; stroke-width:1; stroke:black; " description="&lt;b&gt;ATY02_RS30725&lt;/b&gt;&lt;br&gt;IS630-like element ISPa47 family transposase&lt;br&gt;Location: 6609892 - 6608855" locus_tag="ATY02_RS30725" class="clusterblast-orf" id="dummy-1_h1_6_32"  />
</g>
<g id="a1_0033"  >
<polygon points="650,90 654,90 659,85 654,80 650,80 650,90 " style="fill:white; stroke-width:1; stroke:black; " description="&lt;b&gt;ATY02_RS30720&lt;/b&gt;&lt;br&gt;RNA 2'-phosphotransferase&lt;br&gt;Location: 6607537 - 6607031" locus_tag="ATY02_RS30720" class="clusterblast-orf" id="dummy-1_h1_6_33"  />
</g>
<g id="a1_0034"  >
<polygon points="665,85 670,80 671,80 671,90 670,90 665,85 " style="fill:white; stroke-width:1; stroke:black; " description="&lt;b&gt;ATY02_RS30715&lt;/b&gt;&lt;br&gt;hypothetical protein&lt;br&gt;Location: 6606674 - 6606342" locus_tag="ATY02_RS30715" class="clusterblast-orf" id="dummy-1_h1_6_34"  />
</g>
<g id="a1_0035"  >
<polygon points="681,90 685,90 690,85 685,80 681,80 681,90 " style="fill:white; stroke-width:1; stroke:black; " description="&lt;b&gt;ATY02_RS30710&lt;/b&gt;&lt;br&gt;hypothetical protein&lt;br&gt;Location: 6605809 - 6605273" locus_tag="ATY02_RS30710" class="clusterblast-orf" id="dummy-1_h1_6_35"  />
</g>
<g id="a1_0036"  >
<polygon points="711,85 716,80 726,80 726,90 716,90 711,85 " style="fill:white; stroke-width:1; stroke:black; " description="&lt;b&gt;ATY02_RS30705&lt;/b&gt;&lt;br&gt;ATP-binding protein&lt;br&gt;Location: 6604117 - 6603314" locus_tag="ATY02_RS30705" class="clusterblast-orf" id="dummy-1_h1_6_36"  />
</g>
<g id="a1_0037"  >
<polygon points="725,85 730,80 752,80 752,90 730,90 725,85 " style="fill:white; stroke-width:1; stroke:black; " description="&lt;b&gt;ATY02_RS30700&lt;/b&gt;&lt;br&gt;IS21-like element ISPpu27 family transposase&lt;br&gt;Location: 6603321 - 6601822" locus_tag="ATY02_RS30700" class="clusterblast-orf" id="dummy-1_h1_6_37"  />
</g>
<g id="a1_0038"  >
<polygon points="754,90 768,90 773,85 768,80 754,80 754,90 " style="fill:white; stroke-width:1; stroke:black; " description="&lt;b&gt;ATY02_RS30695&lt;/b&gt;&lt;br&gt;DUF3987 domain-containing protein&lt;br&gt;Location: 6601711 - 6600647" locus_tag="ATY02_RS30695" class="clusterblast-orf" id="dummy-1_h1_6_38"  />
</g>
<g id="a1_0039"  >
<polygon points="773,90 774,90 779,85 774,80 773,80 773,90 " style="fill:white; stroke-width:1; stroke:black; " description="&lt;b&gt;ATY02_RS30690&lt;/b&gt;&lt;br&gt;hypothetical protein&lt;br&gt;Location: 6600660 - 6600307" locus_tag="ATY02_RS30690" class="clusterblast-orf" id="dummy-1_h1_6_39"  />
</g>
</svg>
