<svg xmlns="http://www.w3.org/2000/svg" xmlns:xlink="http://www.w3.org/1999/xlink" version="1.1" x="0" y="0" height="230" width="800" viewBox="0 0 800 230" preserveAspectRatio="none"  >
<g label="Query sequence" class="clusterblast-cluster"  >
<text x="5" y="20" class="clusterblast-acc"  >
Query sequence</text>
<line x1="10" y1="35" x2="778.0" y2="35" style="stroke-width:1; stroke:grey; "  />
<polygon points="130,40 226,40 231,35 226,30 130,30 130,40 " style="fill:#d81515; stroke-width:1; stroke:black; " description="&lt;b&gt;MCIC6FC_011003&lt;/b&gt;&lt;br&gt;hypothetical protein&lt;br&gt;Location: 370924 - 376344" locus_tag="MCIC6FC_011003" class="clusterblast-orf" id="dummy-1_q0_0_all"  />
<polygon points="235,35 240,30 252,30 252,40 240,40 235,35 " style="fill:white; stroke-width:1; stroke:black; " description="&lt;b&gt;MCIC6FC_011004&lt;/b&gt;&lt;br&gt;hypothetical protein&lt;br&gt;Location: 376570 - 377470" locus_tag="MCIC6FC_011004" class="clusterblast-orf" id="dummy-1_q1_0_all"  />
<polygon points="254,40 275,40 280,35 275,30 254,30 254,40 " style="fill:white; stroke-width:1; stroke:black; " description="&lt;b&gt;MCIC6FC_011005&lt;/b&gt;&lt;br&gt;hypothetical protein&lt;br&gt;Location: 377572 - 378942" locus_tag="MCIC6FC_011005" class="clusterblast-orf" id="dummy-1_q2_0_all"  />
<polygon points="286,35 291,30 311,30 311,40 291,40 286,35 " style="fill:#15d815; stroke-width:1; stroke:black; " description="&lt;b&gt;MCIC6FC_011006&lt;/b&gt;&lt;br&gt;hypothetical protein&lt;br&gt;Location: 379287 - 380587" locus_tag="MCIC6FC_011006" class="clusterblast-orf" id="dummy-1_q3_0_all"  />
<polygon points="312,35 317,30 394,30 394,40 317,40 312,35 " style="fill:#1597d8; stroke-width:1; stroke:black; " description="&lt;b&gt;MCIC6FC_011007&lt;/b&gt;&lt;br&gt;hypothetical protein&lt;br&gt;Location: 380682 - 385065" locus_tag="MCIC6FC_011007" class="clusterblast-orf" id="dummy-1_q4_0_all"  />
<polygon points="395,35 400,30 442,30 442,40 400,40 395,35 " style="fill:#9715d8; stroke-width:1; stroke:black; " description="&lt;b&gt;MCIC6FC_011008&lt;/b&gt;&lt;br&gt;hypothetical protein&lt;br&gt;Location: 385094 - 387603" locus_tag="MCIC6FC_011008" class="clusterblast-orf" id="dummy-1_q5_0_all"  />
<polygon points="445,35 450,30 452,30 452,40 450,40 445,35 " style="fill:#d89715; stroke-width:1; stroke:black; " description="&lt;b&gt;MCIC6FC_011009&lt;/b&gt;&lt;br&gt;hypothetical protein&lt;br&gt;Location: 387749 - 388124" locus_tag="MCIC6FC_011009" class="clusterblast-orf" id="dummy-1_q6_0_all"  />
<polygon points="455,35 460,30 539,30 539,40 460,40 455,35 " style="fill:#15d897; stroke-width:1; stroke:black; " description="&lt;b&gt;MCIC6FC_011010&lt;/b&gt;&lt;br&gt;hypothetical protein&lt;br&gt;Location: 388275 - 392786" locus_tag="MCIC6FC_011010" class="clusterblast-orf" id="dummy-1_q7_0_all"  />
<polygon points="542,35 547,30 576,30 576,40 547,40 542,35 " style="fill:#1515d8; stroke-width:1; stroke:black; " description="&lt;b&gt;MCIC6FC_011011&lt;/b&gt;&lt;br&gt;hypothetical protein&lt;br&gt;Location: 392922 - 394773" locus_tag="MCIC6FC_011011" class="clusterblast-orf" id="dummy-1_q8_0_all"  />
<polygon points="577,35 582,30 627,30 627,40 582,40 577,35 " style="fill:#d81597; stroke-width:1; stroke:black; " description="&lt;b&gt;MCIC6FC_011012&lt;/b&gt;&lt;br&gt;hypothetical protein&lt;br&gt;Location: 394840 - 397470" locus_tag="MCIC6FC_011012" class="clusterblast-orf" id="dummy-1_q9_0_all"  />
<polygon points="628,40 645,40 650,35 645,30 628,30 628,40 " style="fill:#97d815; stroke-width:1; stroke:black; " description="&lt;b&gt;MCIC6FC_011013&lt;/b&gt;&lt;br&gt;hypothetical protein&lt;br&gt;Location: 397557 - 398699" locus_tag="MCIC6FC_011013" class="clusterblast-orf" id="dummy-1_q10_0_all"  />
</g>
<g label="NZ_CP007014" description="NZ_CP007014 (516132-557785): Pseudomonas syringae CC1557, complete sequence (37% of genes show similarity), NRPS-like" class="clusterblast-cluster"  >
<text x="5" y="70" class="clusterblast-acc"  >
<a xlink:href="https://antismash-db.secondarymetabolites.org/area.html?record=NZ_CP007014&amp;start=516132&amp;end=557785" target="_blank">NZ_CP007014 (516132-557785)</a>: Pseudomonas syringae CC1557, complete sequence (37% of genes show similarity), NRPS-like</text>
<line x1="10" y1="85" x2="778.0" y2="85" style="stroke-width:1; stroke:grey; "  />
</g>
<g id="a1_000"  >
<polygon points="0,90 28,90 33,85 28,80 0,80 0,90 " style="fill:#d81515; stroke-width:1; stroke:black; " description="&lt;b&gt;N018_RS02390&lt;/b&gt;&lt;br&gt;acyl-CoA dehydrogenase&lt;br&gt;Location: 516133 - 517911&lt;br&gt;&lt;br&gt;&lt;b&gt;BlastP hit with MCIC6FC_011003&lt;/b&gt;&lt;br&gt;Percentage identity: 85&lt;br&gt;Percentage coverage: 36&lt;br&gt;BLAST bit score: 1019&lt;br&gt;E-value: 4.3e-295" locus_tag="N018_RS02390" class="clusterblast-orf" id="dummy-1_h1_5_0"  />
</g>
<g id="a1_001"  >
<polygon points="41,90 44,85 41,80 41,90 " style="fill:white; stroke-width:1; stroke:black; " description="&lt;b&gt;N018_RS02395&lt;/b&gt;&lt;br&gt;YqaE/Pmp3 family membrane protein&lt;br&gt;Location: 518325 - 518486" locus_tag="N018_RS02395" class="clusterblast-orf" id="dummy-1_h1_5_1"  />
</g>
<g id="a1_002"  >
<polygon points="44,85 49,80 79,80 79,90 49,90 44,85 " style="fill:white; stroke-width:1; stroke:black; " description="&lt;b&gt;N018_RS02400&lt;/b&gt;&lt;br&gt;S9 family peptidase&lt;br&gt;Location: 518528 - 520360" locus_tag="N018_RS02400" class="clusterblast-orf" id="dummy-1_h1_5_2"  />
</g>
<g id="a1_003"  >
<polygon points="78,85 83,80 100,80 100,90 83,90 78,85 " style="fill:#15d815; stroke-width:1; stroke:black; " description="&lt;b&gt;N018_RS02405&lt;/b&gt;&lt;br&gt;pyrroloquinoline quinone biosynthesis protein PqqE&lt;br&gt;Location: 520323 - 521492&lt;br&gt;&lt;br&gt;&lt;b&gt;BlastP hit with MCIC6FC_011006&lt;/b&gt;&lt;br&gt;Percentage identity: 90&lt;br&gt;Percentage coverage: 89&lt;br&gt;BLAST bit score: 714&lt;br&gt;E-value: 5.7e-204" locus_tag="N018_RS02405" class="clusterblast-orf" id="dummy-1_h1_5_3"  />
</g>
<g id="a1_004"  >
<polygon points="100,85 105,80 105,80 105,90 105,90 100,85 " style="fill:#15d815; stroke-width:1; stroke:black; " description="&lt;b&gt;N018_RS02410&lt;/b&gt;&lt;br&gt;pyrroloquinoline quinone biosynthesis peptide chaperone PqqD&lt;br&gt;Location: 521485 - 521769&lt;br&gt;&lt;br&gt;&lt;b&gt;BlastP hit with MCIC6FC_011006&lt;/b&gt;&lt;br&gt;Percentage identity: 75&lt;br&gt;Percentage coverage: 11&lt;br&gt;BLAST bit score: 76&lt;br&gt;E-value: 6.1e-12" locus_tag="N018_RS02410" class="clusterblast-orf" id="dummy-1_h1_5_4"  />
</g>
<g id="a1_005"  >
<polygon points="105,85 110,80 119,80 119,90 110,90 105,85 " style="fill:#1597d8; stroke-width:1; stroke:black; " description="&lt;b&gt;N018_RS02415&lt;/b&gt;&lt;br&gt;pyrroloquinoline-quinone synthase PqqC&lt;br&gt;Location: 521766 - 522521&lt;br&gt;&lt;br&gt;&lt;b&gt;BlastP hit with MCIC6FC_011007&lt;/b&gt;&lt;br&gt;Percentage identity: 96&lt;br&gt;Percentage coverage: 19&lt;br&gt;BLAST bit score: 502&lt;br&gt;E-value: 1.1e-139" locus_tag="N018_RS02415" class="clusterblast-orf" id="dummy-1_h1_5_5"  />
</g>
<g id="a1_006"  >
<polygon points="119,85 124,80 136,80 136,90 124,90 119,85 " style="fill:#1597d8; stroke-width:1; stroke:black; " description="&lt;b&gt;N018_RS02420&lt;/b&gt;&lt;br&gt;pyrroloquinoline quinone biosynthesis protein PqqB&lt;br&gt;Location: 522530 - 523441&lt;br&gt;&lt;br&gt;&lt;b&gt;BlastP hit with MCIC6FC_011007&lt;/b&gt;&lt;br&gt;Percentage identity: 93&lt;br&gt;Percentage coverage: 22&lt;br&gt;BLAST bit score: 563&lt;br&gt;E-value: 6.7e-158" locus_tag="N018_RS02420" class="clusterblast-orf" id="dummy-1_h1_5_6"  />
</g>
<g id="a1_007"  >
<polygon points="138,85 140,80 140,90 138,85 " style="fill:white; stroke-width:1; stroke:black; " description="&lt;b&gt;N018_RS25995&lt;/b&gt;&lt;br&gt;pyrroloquinoline quinone precursor peptide PqqA&lt;br&gt;Location: 523550 - 523624" locus_tag="N018_RS25995" class="clusterblast-orf" id="dummy-1_h1_5_7"  />
</g>
<g id="a1_008"  >
<polygon points="142,85 147,80 186,80 186,90 147,90 142,85 " style="fill:#1597d8; stroke-width:1; stroke:black; " description="&lt;b&gt;N018_RS02425&lt;/b&gt;&lt;br&gt;pyrroloquinoline quinone biosynthesis protein PqqF&lt;br&gt;Location: 523760 - 526096&lt;br&gt;&lt;br&gt;&lt;b&gt;BlastP hit with MCIC6FC_011007&lt;/b&gt;&lt;br&gt;Percentage identity: 45&lt;br&gt;Percentage coverage: 61&lt;br&gt;BLAST bit score: 568&lt;br&gt;E-value: 2.1e-159" locus_tag="N018_RS02425" class="clusterblast-orf" id="dummy-1_h1_5_8"  />
</g>
<g id="a1_009"  >
<polygon points="190,85 195,80 205,80 205,90 195,90 190,85 " style="fill:#9715d8; stroke-width:1; stroke:black; " description="&lt;b&gt;N018_RS02430&lt;/b&gt;&lt;br&gt;carbon-nitrogen hydrolase family protein&lt;br&gt;Location: 526324 - 527130&lt;br&gt;&lt;br&gt;&lt;b&gt;BlastP hit with MCIC6FC_011008&lt;/b&gt;&lt;br&gt;Percentage identity: 68&lt;br&gt;Percentage coverage: 32&lt;br&gt;BLAST bit score: 373&lt;br&gt;E-value: 4.7e-101" locus_tag="N018_RS02430" class="clusterblast-orf" id="dummy-1_h1_5_9"  />
</g>
<g id="a1_0010"  >
<polygon points="206,85 211,80 237,80 237,90 211,90 206,85 " style="fill:#9715d8; stroke-width:1; stroke:black; " description="&lt;b&gt;N018_RS02435&lt;/b&gt;&lt;br&gt;NAD(P)/FAD-dependent oxidoreductase&lt;br&gt;Location: 527146 - 528825&lt;br&gt;&lt;br&gt;&lt;b&gt;BlastP hit with MCIC6FC_011008&lt;/b&gt;&lt;br&gt;Percentage identity: 91&lt;br&gt;Percentage coverage: 67&lt;br&gt;BLAST bit score: 1055&lt;br&gt;E-value: 2.1e-306" locus_tag="N018_RS02435" class="clusterblast-orf" id="dummy-1_h1_5_10"  />
</g>
<g id="a1_0011"  >
<polygon points="240,85 245,80 249,80 249,90 245,90 240,85 " style="fill:#d89715; stroke-width:1; stroke:black; " description="&lt;b&gt;N018_RS02440&lt;/b&gt;&lt;br&gt;Lrp/AsnC family transcriptional regulator&lt;br&gt;Location: 528978 - 529439&lt;br&gt;&lt;br&gt;&lt;b&gt;BlastP hit with MCIC6FC_011009&lt;/b&gt;&lt;br&gt;Percentage identity: 92&lt;br&gt;Percentage coverage: 100&lt;br&gt;BLAST bit score: 221&lt;br&gt;E-value: 4.5e-56" locus_tag="N018_RS02440" class="clusterblast-orf" id="dummy-1_h1_5_11"  />
</g>
<g id="a1_0012"  >
<polygon points="249,85 254,80 269,80 269,90 254,90 249,85 " style="fill:white; stroke-width:1; stroke:black; " description="&lt;b&gt;N018_RS02445&lt;/b&gt;&lt;br&gt;FUSC family protein&lt;br&gt;Location: 529450 - 530526" locus_tag="N018_RS02445" class="clusterblast-orf" id="dummy-1_h1_5_12"  />
</g>
<g id="a1_0013"  >
<polygon points="275,90 276,90 281,85 276,80 275,80 275,90 " style="fill:white; stroke-width:1; stroke:black; " description="&lt;b&gt;N018_RS02450&lt;/b&gt;&lt;br&gt;helix-turn-helix transcriptional regulator&lt;br&gt;Location: 530868 - 531152" locus_tag="N018_RS02450" class="clusterblast-orf" id="dummy-1_h1_5_13"  />
</g>
<g id="a1_0014"  >
<polygon points="281,90 299,90 304,85 299,80 281,80 281,90 " style="fill:white; stroke-width:1; stroke:black; " description="&lt;b&gt;N018_RS02455&lt;/b&gt;&lt;br&gt;type II toxin-antitoxin system HipA family toxin&lt;br&gt;Location: 531152 - 532378" locus_tag="N018_RS02455" class="clusterblast-orf" id="dummy-1_h1_5_14"  />
</g>
<g id="a1_0015"  >
<polygon points="304,85 309,80 316,80 316,90 309,90 304,85 " style="fill:white; stroke-width:1; stroke:black; " description="&lt;b&gt;N018_RS02460&lt;/b&gt;&lt;br&gt;NERD domain-containing protein&lt;br&gt;Location: 532382 - 533017" locus_tag="N018_RS02460" class="clusterblast-orf" id="dummy-1_h1_5_15"  />
</g>
<g id="a1_0016"  >
<polygon points="317,85 322,80 338,80 338,90 322,90 317,85 " style="fill:white; stroke-width:1; stroke:black; " description="&lt;b&gt;N018_RS02465&lt;/b&gt;&lt;br&gt;Fic family protein&lt;br&gt;Location: 533080 - 534210" locus_tag="N018_RS02465" class="clusterblast-orf" id="dummy-1_h1_5_16"  />
</g>
<g id="a1_0017"  >
<polygon points="342,90 346,90 351,85 346,80 342,80 342,90 " style="fill:white; stroke-width:1; stroke:black; " description="&lt;b&gt;N018_RS02470&lt;/b&gt;&lt;br&gt;GNAT family N-acetyltransferase&lt;br&gt;Location: 534397 - 534900" locus_tag="N018_RS02470" class="clusterblast-orf" id="dummy-1_h1_5_17"  />
</g>
<g id="a1_0018"  >
<polygon points="357,90 428,90 433,85 428,80 357,80 357,90 " style="fill:white; stroke-width:1; stroke:black; " description="&lt;b&gt;N018_RS02475&lt;/b&gt;&lt;br&gt;non-ribosomal peptide synthetase&lt;br&gt;Location: 535235 - 539275" locus_tag="N018_RS02475" class="clusterblast-orf" id="dummy-1_h1_5_18"  />
</g>
<g id="a1_0019"  >
<polygon points="433,90 439,90 444,85 439,80 433,80 433,90 " style="fill:white; stroke-width:1; stroke:black; " description="&lt;b&gt;N018_RS02480&lt;/b&gt;&lt;br&gt;4'-phosphopantetheinyl transferase superfamily protein&lt;br&gt;Location: 539272 - 539862" locus_tag="N018_RS02480" class="clusterblast-orf" id="dummy-1_h1_5_19"  />
</g>
<g id="a1_0020"  >
<polygon points="447,85 452,80 463,80 463,90 452,90 447,85 " style="fill:white; stroke-width:1; stroke:black; " description="&lt;b&gt;N018_RS02485&lt;/b&gt;&lt;br&gt;formate/nitrite transporter family protein&lt;br&gt;Location: 540044 - 540859" locus_tag="N018_RS02485" class="clusterblast-orf" id="dummy-1_h1_5_20"  />
</g>
<g id="a1_0021"  >
<polygon points="473,85 478,80 481,80 481,90 478,90 473,85 " style="fill:white; stroke-width:1; stroke:black; " description="&lt;b&gt;N018_RS02490&lt;/b&gt;&lt;br&gt;DUF1493 family protein&lt;br&gt;Location: 541439 - 541864" locus_tag="N018_RS02490" class="clusterblast-orf" id="dummy-1_h1_5_21"  />
</g>
<g id="a1_0022"  >
<polygon points="481,85 486,80 489,80 489,90 486,90 481,85 " style="fill:white; stroke-width:1; stroke:black; " description="&lt;b&gt;N018_RS02495&lt;/b&gt;&lt;br&gt;hypothetical protein&lt;br&gt;Location: 541865 - 542296" locus_tag="N018_RS02495" class="clusterblast-orf" id="dummy-1_h1_5_22"  />
</g>
<g id="a1_0023"  >
<polygon points="490,85 495,80 499,80 499,90 495,90 490,85 " style="fill:white; stroke-width:1; stroke:black; " description="&lt;b&gt;N018_RS02500&lt;/b&gt;&lt;br&gt;type VI secretion system tube protein Hcp&lt;br&gt;Location: 542309 - 542812" locus_tag="N018_RS02500" class="clusterblast-orf" id="dummy-1_h1_5_23"  />
</g>
<g id="a1_0024"  >
<polygon points="509,85 514,80 555,80 555,90 514,90 509,85 " style="fill:#15d897; stroke-width:1; stroke:black; " description="&lt;b&gt;N018_RS02510&lt;/b&gt;&lt;br&gt;bifunctional diguanylate cyclase/phosphodiesterase&lt;br&gt;Location: 543328 - 545817&lt;br&gt;&lt;br&gt;&lt;b&gt;BlastP hit with MCIC6FC_011010&lt;/b&gt;&lt;br&gt;Percentage identity: 72&lt;br&gt;Percentage coverage: 56&lt;br&gt;BLAST bit score: 1176&lt;br&gt;E-value: 0.0" locus_tag="N018_RS02510" class="clusterblast-orf" id="dummy-1_h1_5_24"  />
</g>
<g id="a1_0025"  >
<polygon points="560,85 565,80 595,80 595,90 565,90 560,85 " style="fill:#1515d8; stroke-width:1; stroke:black; " description="&lt;b&gt;N018_RS02515&lt;/b&gt;&lt;br&gt;RNA polymerase sigma factor RpoD&lt;br&gt;Location: 546074 - 547921&lt;br&gt;&lt;br&gt;&lt;b&gt;BlastP hit with MCIC6FC_011011&lt;/b&gt;&lt;br&gt;Percentage identity: 95&lt;br&gt;Percentage coverage: 100&lt;br&gt;BLAST bit score: 1036&lt;br&gt;E-value: 1.3e-300" locus_tag="N018_RS02515" class="clusterblast-orf" id="dummy-1_h1_5_25"  />
</g>
<g id="a1_0026"  >
<polygon points="596,85 601,80 633,80 633,90 601,90 596,85 " style="fill:#d81597; stroke-width:1; stroke:black; " description="&lt;b&gt;N018_RS02520&lt;/b&gt;&lt;br&gt;DNA primase&lt;br&gt;Location: 547989 - 549944&lt;br&gt;&lt;br&gt;&lt;b&gt;BlastP hit with MCIC6FC_011012&lt;/b&gt;&lt;br&gt;Percentage identity: 79&lt;br&gt;Percentage coverage: 91&lt;br&gt;BLAST bit score: 1023&lt;br&gt;E-value: 9.9e-297" locus_tag="N018_RS02520" class="clusterblast-orf" id="dummy-1_h1_5_26"  />
</g>
<g id="a1_0027"  >
<polygon points="642,85 646,80 646,90 642,85 " style="fill:white; stroke-width:1; stroke:black; " description="&lt;b&gt;N018_RS02525&lt;/b&gt;&lt;br&gt;30S ribosomal protein S21&lt;br&gt;Location: 550427 - 550642" locus_tag="N018_RS02525" class="clusterblast-orf" id="dummy-1_h1_5_27"  />
</g>
<g id="a1_0028"  >
<polygon points="649,90 664,90 669,85 664,80 649,80 649,90 " style="fill:#97d815; stroke-width:1; stroke:black; " description="&lt;b&gt;N018_RS02530&lt;/b&gt;&lt;br&gt;tRNA (adenosine(37)-N6)-threonylcarbamoyltransferase complex transferase subunit TsaD&lt;br&gt;Location: 550841 - 551866&lt;br&gt;&lt;br&gt;&lt;b&gt;BlastP hit with MCIC6FC_011013&lt;/b&gt;&lt;br&gt;Percentage identity: 88&lt;br&gt;Percentage coverage: 92&lt;br&gt;BLAST bit score: 602&lt;br&gt;E-value: 3.6e-170" locus_tag="N018_RS02530" class="clusterblast-orf" id="dummy-1_h1_5_28"  />
</g>
<g id="a1_0029"  >
<polygon points="670,85 675,80 681,80 681,90 675,90 670,85 " style="fill:white; stroke-width:1; stroke:black; " description="&lt;b&gt;N018_RS02535&lt;/b&gt;&lt;br&gt;glycerol-3-phosphate 1-O-acyltransferase PlsY&lt;br&gt;Location: 551932 - 552510" locus_tag="N018_RS02535" class="clusterblast-orf" id="dummy-1_h1_5_29"  />
</g>
<g id="a1_0030"  >
<polygon points="682,90 684,90 689,85 684,80 682,80 682,90 " style="fill:white; stroke-width:1; stroke:black; " description="&lt;b&gt;N018_RS02540&lt;/b&gt;&lt;br&gt;dihydroneopterin aldolase&lt;br&gt;Location: 552575 - 552928" locus_tag="N018_RS02540" class="clusterblast-orf" id="dummy-1_h1_5_30"  />
</g>
<g id="a1_0031"  >
<polygon points="688,90 693,90 698,85 693,80 688,80 688,90 " style="fill:white; stroke-width:1; stroke:black; " description="&lt;b&gt;N018_RS02545&lt;/b&gt;&lt;br&gt;2-amino-4-hydroxy-6- hydroxymethyldihydropteridine diphosphokinase&lt;br&gt;Location: 552919 - 553443" locus_tag="N018_RS02545" class="clusterblast-orf" id="dummy-1_h1_5_31"  />
</g>
<g id="a1_0032"  >
<polygon points="702,85 707,80 725,80 725,90 707,90 702,85 " style="fill:white; stroke-width:1; stroke:black; " description="&lt;b&gt;N018_RS02550&lt;/b&gt;&lt;br&gt;multifunctional CCA addition/repair protein&lt;br&gt;Location: 553628 - 554857" locus_tag="N018_RS02550" class="clusterblast-orf" id="dummy-1_h1_5_32"  />
</g>
<g id="a1_0033"  >
<polygon points="727,85 732,80 756,80 756,90 732,90 727,85 " style="fill:white; stroke-width:1; stroke:black; " description="&lt;b&gt;N018_RS02555&lt;/b&gt;&lt;br&gt;SpoVR family protein&lt;br&gt;Location: 554955 - 556517" locus_tag="N018_RS02555" class="clusterblast-orf" id="dummy-1_h1_5_33"  />
</g>
<g id="a1_0034"  >
<polygon points="756,85 761,80 780,80 780,90 761,90 756,85 " style="fill:white; stroke-width:1; stroke:black; " description="&lt;b&gt;N018_RS02560&lt;/b&gt;&lt;br&gt;YeaH/YhbH family protein&lt;br&gt;Location: 556514 - 557785" locus_tag="N018_RS02560" class="clusterblast-orf" id="dummy-1_h1_5_34"  />
</g>
</svg>
