<svg xmlns="http://www.w3.org/2000/svg" xmlns:xlink="http://www.w3.org/1999/xlink" version="1.1" x="0" y="0" height="230" width="800" viewBox="0 0 800 230" preserveAspectRatio="none"  >
<g label="Query sequence" class="clusterblast-cluster"  >
<text x="5" y="20" class="clusterblast-acc"  >
Query sequence</text>
<line x1="10" y1="35" x2="778.0" y2="35" style="stroke-width:1; stroke:grey; "  />
<polygon points="58,40 71,40 76,35 71,30 58,30 58,40 " style="fill:#d81515; stroke-width:1; stroke:black; " description="&lt;b&gt;MCIC6FC_014020&lt;/b&gt;&lt;br&gt;hypothetical protein&lt;br&gt;Location: 52098 - 53356" locus_tag="MCIC6FC_014020" class="clusterblast-orf" id="dummy-1_q0_0_all"  />
<polygon points="77,35 82,30 114,30 114,40 82,40 77,35 " style="fill:#3cd815; stroke-width:1; stroke:black; " description="&lt;b&gt;MCIC6FC_014021&lt;/b&gt;&lt;br&gt;hypothetical protein&lt;br&gt;Location: 53450 - 56005" locus_tag="MCIC6FC_014021" class="clusterblast-orf" id="dummy-1_q1_0_all"  />
<polygon points="116,40 152,40 157,35 152,30 116,30 116,40 " style="fill:#1563d8; stroke-width:1; stroke:black; " description="&lt;b&gt;MCIC6FC_014022&lt;/b&gt;&lt;br&gt;hypothetical protein&lt;br&gt;Location: 56153 - 58945" locus_tag="MCIC6FC_014022" class="clusterblast-orf" id="dummy-1_q2_0_all"  />
<polygon points="159,35 164,30 174,30 174,40 164,40 159,35 " style="fill:#b115d8; stroke-width:1; stroke:black; " description="&lt;b&gt;MCIC6FC_014023&lt;/b&gt;&lt;br&gt;hypothetical protein&lt;br&gt;Location: 59080 - 60161" locus_tag="MCIC6FC_014023" class="clusterblast-orf" id="dummy-1_q3_0_all"  />
<polygon points="177,40 249,40 254,35 249,30 177,30 177,40 " style="fill:#d88a15; stroke-width:1; stroke:black; " description="&lt;b&gt;MCIC6FC_014024&lt;/b&gt;&lt;br&gt;hypothetical protein&lt;br&gt;Location: 60332 - 65690" locus_tag="MCIC6FC_014024" class="clusterblast-orf" id="dummy-1_q4_0_all"  />
<polygon points="255,40 270,40 275,35 270,30 255,30 255,40 " style="fill:#d88a15; stroke-width:1; stroke:black; " description="&lt;b&gt;MCIC6FC_014025&lt;/b&gt;&lt;br&gt;hypothetical protein&lt;br&gt;Location: 65750 - 67094" locus_tag="MCIC6FC_014025" class="clusterblast-orf" id="dummy-1_q5_0_all"  />
<polygon points="276,35 281,30 293,30 293,40 281,40 276,35 " style="fill:#15d863; stroke-width:1; stroke:black; " description="&lt;b&gt;MCIC6FC_014026&lt;/b&gt;&lt;br&gt;hypothetical protein&lt;br&gt;Location: 67206 - 68389" locus_tag="MCIC6FC_014026" class="clusterblast-orf" id="dummy-1_q6_0_all"  />
<polygon points="297,40 333,40 338,35 333,30 297,30 297,40 " style="fill:#3c15d8; stroke-width:1; stroke:black; " description="&lt;b&gt;MCIC6FC_014027&lt;/b&gt;&lt;br&gt;hypothetical protein&lt;br&gt;Location: 68607 - 71491" locus_tag="MCIC6FC_014027" class="clusterblast-orf" id="dummy-1_q7_0_all"  />
<polygon points="340,35 345,30 489,30 489,40 345,40 340,35 " style="fill:#d8158a; stroke-width:1; stroke:black; " description="&lt;b&gt;MCIC6FC_014028&lt;/b&gt;&lt;br&gt;hypothetical protein&lt;br&gt;Location: 71613 - 81880" locus_tag="MCIC6FC_014028" class="clusterblast-orf" id="dummy-1_q8_0_all"  />
<polygon points="494,40 560,40 565,35 560,30 494,30 494,40 " style="fill:#b1d815; stroke-width:1; stroke:black; " description="&lt;b&gt;MCIC6FC_014029&lt;/b&gt;&lt;br&gt;hypothetical protein&lt;br&gt;Location: 82282 - 87140" locus_tag="MCIC6FC_014029" class="clusterblast-orf" id="dummy-1_q9_0_all"  />
<polygon points="576,35 581,30 691,30 691,40 581,40 576,35 " style="fill:#15d8d8; stroke-width:1; stroke:black; " description="&lt;b&gt;MCIC6FC_014030&lt;/b&gt;&lt;br&gt;hypothetical protein&lt;br&gt;Location: 87945 - 95846" locus_tag="MCIC6FC_014030" class="clusterblast-orf" id="dummy-1_q10_0_all"  />
<polygon points="707,40 707,40 712,35 707,30 707,30 707,40 " style="fill:white; stroke-width:1; stroke:black; " description="&lt;b&gt;MCIC6FC_014031&lt;/b&gt;&lt;br&gt;hypothetical protein&lt;br&gt;Location: 96983 - 97328" locus_tag="MCIC6FC_014031" class="clusterblast-orf" id="dummy-1_q11_0_all"  />
<polygon points="712,35 717,30 722,30 722,40 717,40 712,35 " style="fill:white; stroke-width:1; stroke:black; " description="&lt;b&gt;MCIC6FC_014032&lt;/b&gt;&lt;br&gt;hypothetical protein&lt;br&gt;Location: 97335 - 97989" locus_tag="MCIC6FC_014032" class="clusterblast-orf" id="dummy-1_q12_0_all"  />
</g>
<g label="NZ_QNRY01000019" description="NZ_QNRY01000019 (516-56210): Brenneria salicis ATCC 15712 = DSM 30166 Ga02445... (17% of genes show similarity), NRPS" class="clusterblast-cluster"  >
<text x="5" y="70" class="clusterblast-acc"  >
<a xlink:href="https://antismash-db.secondarymetabolites.org/area.html?record=NZ_QNRY01000019&amp;start=516&amp;end=56210" target="_blank">NZ_QNRY01000019 (516-56210)</a>: Brenneria salicis ATCC 15712 = DSM 30166 Ga02445... (17% of genes show similarity), NRPS</text>
<line x1="10" y1="85" x2="778.0" y2="85" style="stroke-width:1; stroke:grey; "  />
</g>
<g id="a1_000"  >
<polygon points="0,90 2,90 7,85 2,80 0,80 0,90 " style="fill:white; stroke-width:1; stroke:black; " description="&lt;b&gt;DES54_RS10000&lt;/b&gt;&lt;br&gt;TIGR00645 family protein&lt;br&gt;Location: 55226 - 54720" locus_tag="DES54_RS10000" class="clusterblast-orf" id="dummy-1_h1_5_0"  />
</g>
<g id="a1_001"  >
<polygon points="9,90 19,90 24,85 19,80 9,80 9,90 " style="fill:white; stroke-width:1; stroke:black; " description="&lt;b&gt;DES54_RS09995&lt;/b&gt;&lt;br&gt;NADP-dependent oxidoreductase&lt;br&gt;Location: 54540 - 53503" locus_tag="DES54_RS09995" class="clusterblast-orf" id="dummy-1_h1_5_1"  />
</g>
<g id="a1_002"  >
<polygon points="25,85 30,80 43,80 43,90 30,90 25,85 " style="fill:white; stroke-width:1; stroke:black; " description="&lt;b&gt;DES54_RS09990&lt;/b&gt;&lt;br&gt;FAD-dependent 2-octaprenylphenol hydroxylase&lt;br&gt;Location: 53459 - 52248" locus_tag="DES54_RS09990" class="clusterblast-orf" id="dummy-1_h1_5_2"  />
</g>
<g id="a1_003"  >
<polygon points="43,85 48,80 60,80 60,90 48,90 43,85 " style="fill:white; stroke-width:1; stroke:black; " description="&lt;b&gt;DES54_RS09985&lt;/b&gt;&lt;br&gt;2-octaprenyl-6-methoxyphenyl hydroxylase&lt;br&gt;Location: 52212 - 51034" locus_tag="DES54_RS09985" class="clusterblast-orf" id="dummy-1_h1_5_3"  />
</g>
<g id="a1_004"  >
<polygon points="60,85 65,80 80,80 80,90 65,90 60,85 " style="fill:white; stroke-width:1; stroke:black; " description="&lt;b&gt;DES54_RS09980&lt;/b&gt;&lt;br&gt;Xaa-Pro aminopeptidase&lt;br&gt;Location: 51029 - 49692" locus_tag="DES54_RS09980" class="clusterblast-orf" id="dummy-1_h1_5_4"  />
</g>
<g id="a1_005"  >
<polygon points="80,85 85,80 89,80 89,90 85,90 80,85 " style="fill:white; stroke-width:1; stroke:black; " description="&lt;b&gt;DES54_RS09975&lt;/b&gt;&lt;br&gt;YecA family protein&lt;br&gt;Location: 49631 - 49047" locus_tag="DES54_RS09975" class="clusterblast-orf" id="dummy-1_h1_5_5"  />
</g>
<g id="a1_006"  >
<polygon points="92,90 96,85 92,80 92,90 " style="fill:white; stroke-width:1; stroke:black; " description="&lt;b&gt;DES54_RS09970&lt;/b&gt;&lt;br&gt;cell division protein ZapA&lt;br&gt;Location: 48857 - 48528" locus_tag="DES54_RS09970" class="clusterblast-orf" id="dummy-1_h1_5_6"  />
</g>
<g id="a1_007"  >
<polygon points="101,90 105,90 110,85 105,80 101,80 101,90 " style="fill:white; stroke-width:1; stroke:black; " description="&lt;b&gt;DES54_RS09960&lt;/b&gt;&lt;br&gt;5-formyltetrahydrofolate cyclo-ligase&lt;br&gt;Location: 48225 - 47611" locus_tag="DES54_RS09960" class="clusterblast-orf" id="dummy-1_h1_5_7"  />
</g>
<g id="a1_008"  >
<polygon points="110,90 122,90 127,85 122,80 110,80 110,90 " style="fill:white; stroke-width:1; stroke:black; " description="&lt;b&gt;DES54_RS09955&lt;/b&gt;&lt;br&gt;MFS transporter&lt;br&gt;Location: 47579 - 46416" locus_tag="DES54_RS09955" class="clusterblast-orf" id="dummy-1_h1_5_8"  />
</g>
<g id="a1_009"  >
<polygon points="129,85 134,80 147,80 147,90 134,90 129,85 " style="fill:white; stroke-width:1; stroke:black; " description="&lt;b&gt;DES54_RS09950&lt;/b&gt;&lt;br&gt;multifunctional transcriptional regulator/nicotinamide-nucleotide adenylyltransferase/ribosylnicotinamide kinase NadR&lt;br&gt;Location: 46284 - 45052" locus_tag="DES54_RS09950" class="clusterblast-orf" id="dummy-1_h1_5_9"  />
</g>
<g id="a1_0010"  >
<polygon points="148,85 153,80 168,80 168,90 153,90 148,85 " style="fill:white; stroke-width:1; stroke:black; " description="&lt;b&gt;DES54_RS09945&lt;/b&gt;&lt;br&gt;DNA repair protein RadA&lt;br&gt;Location: 44960 - 43578" locus_tag="DES54_RS09945" class="clusterblast-orf" id="dummy-1_h1_5_10"  />
</g>
<g id="a1_0011"  >
<polygon points="168,85 173,80 182,80 182,90 173,90 168,85 " style="fill:white; stroke-width:1; stroke:black; " description="&lt;b&gt;DES54_RS09940&lt;/b&gt;&lt;br&gt;phosphoserine phosphatase&lt;br&gt;Location: 43560 - 42583" locus_tag="DES54_RS09940" class="clusterblast-orf" id="dummy-1_h1_5_11"  />
</g>
<g id="a1_0012"  >
<polygon points="185,90 190,90 195,85 190,80 185,80 185,90 " style="fill:white; stroke-width:1; stroke:black; " description="&lt;b&gt;DES54_RS09935&lt;/b&gt;&lt;br&gt;YtjB family periplasmic protein&lt;br&gt;Location: 42413 - 41739" locus_tag="DES54_RS09935" class="clusterblast-orf" id="dummy-1_h1_5_12"  />
</g>
<g id="a1_0013"  >
<polygon points="196,90 206,90 211,85 206,80 196,80 196,90 " style="fill:#d88a15; stroke-width:1; stroke:black; " description="&lt;b&gt;DES54_RS09930&lt;/b&gt;&lt;br&gt;Fe2+-enterobactin ABC transporter substrate-binding protein&lt;br&gt;Location: 41651 - 40635&lt;br&gt;&lt;br&gt;&lt;b&gt;BlastP hit with MCIC6FC_014025&lt;/b&gt;&lt;br&gt;Percentage identity: 60&lt;br&gt;Percentage coverage: 100&lt;br&gt;BLAST bit score: 326&lt;br&gt;E-value: 2.4e-87" locus_tag="DES54_RS09930" class="clusterblast-orf" id="dummy-1_h1_5_13"  />
</g>
<g id="a1_0014"  >
<polygon points="211,85 216,80 229,80 229,90 216,90 211,85 " style="fill:#15d863; stroke-width:1; stroke:black; " description="&lt;b&gt;DES54_RS09925&lt;/b&gt;&lt;br&gt;enterobactin transporter EntS&lt;br&gt;Location: 40627 - 39332&lt;br&gt;&lt;br&gt;&lt;b&gt;BlastP hit with MCIC6FC_014026&lt;/b&gt;&lt;br&gt;Percentage identity: 69&lt;br&gt;Percentage coverage: 105&lt;br&gt;BLAST bit score: 477&lt;br&gt;E-value: 1.3e-132" locus_tag="DES54_RS09925" class="clusterblast-orf" id="dummy-1_h1_5_14"  />
</g>
<g id="a1_0015"  >
<polygon points="232,90 242,90 247,85 242,80 232,80 232,90 " style="fill:#3c15d8; stroke-width:1; stroke:black; " description="&lt;b&gt;DES54_RS09920&lt;/b&gt;&lt;br&gt;Fe(3+)-siderophore ABC transporter permease&lt;br&gt;Location: 39158 - 38115&lt;br&gt;&lt;br&gt;&lt;b&gt;BlastP hit with MCIC6FC_014027&lt;/b&gt;&lt;br&gt;Percentage identity: 65&lt;br&gt;Percentage coverage: 37&lt;br&gt;BLAST bit score: 379&lt;br&gt;E-value: 9.1e-103" locus_tag="DES54_RS09920" class="clusterblast-orf" id="dummy-1_h1_5_15"  />
</g>
<g id="a1_0016"  >
<polygon points="247,90 257,90 262,85 257,80 247,80 247,90 " style="fill:#3c15d8; stroke-width:1; stroke:black; " description="&lt;b&gt;DES54_RS09915&lt;/b&gt;&lt;br&gt;iron-enterobactin ABC transporter permease&lt;br&gt;Location: 38107 - 37073&lt;br&gt;&lt;br&gt;&lt;b&gt;BlastP hit with MCIC6FC_014027&lt;/b&gt;&lt;br&gt;Percentage identity: 66&lt;br&gt;Percentage coverage: 35&lt;br&gt;BLAST bit score: 371&lt;br&gt;E-value: 2.5e-100" locus_tag="DES54_RS09915" class="clusterblast-orf" id="dummy-1_h1_5_16"  />
</g>
<g id="a1_0017"  >
<polygon points="263,90 269,90 274,85 269,80 263,80 263,90 " style="fill:#3c15d8; stroke-width:1; stroke:black; " description="&lt;b&gt;DES54_RS09910&lt;/b&gt;&lt;br&gt;ABC transporter ATP-binding protein&lt;br&gt;Location: 37050 - 36253&lt;br&gt;&lt;br&gt;&lt;b&gt;BlastP hit with MCIC6FC_014027&lt;/b&gt;&lt;br&gt;Percentage identity: 67&lt;br&gt;Percentage coverage: 30&lt;br&gt;BLAST bit score: 347&lt;br&gt;E-value: 2.9e-93" locus_tag="DES54_RS09910" class="clusterblast-orf" id="dummy-1_h1_5_17"  />
</g>
<g id="a1_0018"  >
<polygon points="275,85 280,80 399,80 399,90 280,90 275,85 " style="fill:#d8158a; stroke-width:1; stroke:black; " description="&lt;b&gt;DES54_RS09905&lt;/b&gt;&lt;br&gt;amino acid adenylation domain-containing protein&lt;br&gt;Location: 36210 - 27646&lt;br&gt;&lt;br&gt;&lt;b&gt;BlastP hit with MCIC6FC_014028&lt;/b&gt;&lt;br&gt;Percentage identity: 53&lt;br&gt;Percentage coverage: 102&lt;br&gt;BLAST bit score: 2624&lt;br&gt;E-value: 0.0" locus_tag="DES54_RS09905" class="clusterblast-orf" id="dummy-1_h1_5_18"  />
</g>
<g id="a1_0019"  >
<polygon points="399,85 403,80 403,90 399,85 " style="fill:white; stroke-width:1; stroke:black; " description="&lt;b&gt;DES54_RS09900&lt;/b&gt;&lt;br&gt;MbtH family protein&lt;br&gt;Location: 27591 - 27364" locus_tag="DES54_RS09900" class="clusterblast-orf" id="dummy-1_h1_5_19"  />
</g>
<g id="a1_0020"  >
<polygon points="402,85 407,80 422,80 422,90 407,90 402,85 " style="fill:white; stroke-width:1; stroke:black; " description="&lt;b&gt;DES54_RS09895&lt;/b&gt;&lt;br&gt;enterochelin esterase&lt;br&gt;Location: 27392 - 26034" locus_tag="DES54_RS09895" class="clusterblast-orf" id="dummy-1_h1_5_20"  />
</g>
<g id="a1_0021"  >
<polygon points="427,90 454,90 459,85 454,80 427,80 427,90 " style="fill:#b1d815; stroke-width:1; stroke:black; " description="&lt;b&gt;DES54_RS09890&lt;/b&gt;&lt;br&gt;TonB-dependent siderophore receptor&lt;br&gt;Location: 25709 - 23481&lt;br&gt;&lt;br&gt;&lt;b&gt;BlastP hit with MCIC6FC_014029&lt;/b&gt;&lt;br&gt;Percentage identity: 48&lt;br&gt;Percentage coverage: 51&lt;br&gt;BLAST bit score: 557&lt;br&gt;E-value: 3.7e-156" locus_tag="DES54_RS09890" class="clusterblast-orf" id="dummy-1_h1_5_21"  />
</g>
<g id="a1_0022"  >
<polygon points="461,90 473,90 478,85 473,80 461,80 461,90 " style="fill:white; stroke-width:1; stroke:black; " description="&lt;b&gt;DES54_RS09885&lt;/b&gt;&lt;br&gt;isochorismate synthase&lt;br&gt;Location: 23329 - 22142" locus_tag="DES54_RS09885" class="clusterblast-orf" id="dummy-1_h1_5_22"  />
</g>
<g id="a1_0023"  >
<polygon points="478,90 497,90 502,85 497,80 478,80 478,90 " style="fill:white; stroke-width:1; stroke:black; " description="&lt;b&gt;DES54_RS09880&lt;/b&gt;&lt;br&gt;(2,3-dihydroxybenzoyl)adenylate synthase&lt;br&gt;Location: 22145 - 20517" locus_tag="DES54_RS09880" class="clusterblast-orf" id="dummy-1_h1_5_23"  />
</g>
<g id="a1_0024"  >
<polygon points="502,90 509,90 514,85 509,80 502,80 502,90 " style="fill:white; stroke-width:1; stroke:black; " description="&lt;b&gt;DES54_RS09875&lt;/b&gt;&lt;br&gt;isochorismatase family protein&lt;br&gt;Location: 20513 - 19635" locus_tag="DES54_RS09875" class="clusterblast-orf" id="dummy-1_h1_5_24"  />
</g>
<g id="a1_0025"  >
<polygon points="514,90 520,90 525,85 520,80 514,80 514,90 " style="fill:white; stroke-width:1; stroke:black; " description="&lt;b&gt;DES54_RS09870&lt;/b&gt;&lt;br&gt;2,3-dihydro-2,3-dihydroxybenzoate dehydrogenase&lt;br&gt;Location: 19638 - 18880" locus_tag="DES54_RS09870" class="clusterblast-orf" id="dummy-1_h1_5_25"  />
</g>
<g id="a1_0026"  >
<polygon points="528,90 546,90 551,85 546,80 528,80 528,90 " style="fill:white; stroke-width:1; stroke:black; " description="&lt;b&gt;DES54_RS09865&lt;/b&gt;&lt;br&gt;peptide chain release factor 3&lt;br&gt;Location: 18684 - 17095" locus_tag="DES54_RS09865" class="clusterblast-orf" id="dummy-1_h1_5_26"  />
</g>
<g id="a1_0027"  >
<polygon points="558,90 562,90 567,85 562,80 558,80 558,90 " style="fill:white; stroke-width:1; stroke:black; " description="&lt;b&gt;DES54_RS09860&lt;/b&gt;&lt;br&gt;molecular chaperone OsmY&lt;br&gt;Location: 16594 - 15983" locus_tag="DES54_RS09860" class="clusterblast-orf" id="dummy-1_h1_5_27"  />
</g>
<g id="a1_0028"  >
<polygon points="569,90 572,85 569,80 569,90 " style="fill:white; stroke-width:1; stroke:black; " description="&lt;b&gt;DES54_RS09855&lt;/b&gt;&lt;br&gt;DUF1328 domain-containing protein&lt;br&gt;Location: 15837 - 15676" locus_tag="DES54_RS09855" class="clusterblast-orf" id="dummy-1_h1_5_28"  />
</g>
<g id="a1_0029"  >
<polygon points="575,90 578,85 575,80 575,90 " style="fill:white; stroke-width:1; stroke:black; " description="&lt;b&gt;DES54_RS09850&lt;/b&gt;&lt;br&gt;stress-response protein&lt;br&gt;Location: 15420 - 15232" locus_tag="DES54_RS09850" class="clusterblast-orf" id="dummy-1_h1_5_29"  />
</g>
<g id="a1_0030"  >
<polygon points="578,90 585,90 590,85 585,80 578,80 578,90 " style="fill:white; stroke-width:1; stroke:black; " description="&lt;b&gt;DES54_RS09845&lt;/b&gt;&lt;br&gt;TatD family hydrolase&lt;br&gt;Location: 15212 - 14400" locus_tag="DES54_RS09845" class="clusterblast-orf" id="dummy-1_h1_5_30"  />
</g>
<g id="a1_0031"  >
<polygon points="596,90 609,90 614,85 609,80 596,80 596,90 " style="fill:white; stroke-width:1; stroke:black; " description="&lt;b&gt;DES54_RS09840&lt;/b&gt;&lt;br&gt;NupC/NupG family nucleoside CNT transporter&lt;br&gt;Location: 14026 - 12749" locus_tag="DES54_RS09840" class="clusterblast-orf" id="dummy-1_h1_5_31"  />
</g>
<g id="a1_0032"  >
<polygon points="616,90 621,90 626,85 621,80 616,80 616,90 " style="fill:white; stroke-width:1; stroke:black; " description="&lt;b&gt;DES54_RS09835&lt;/b&gt;&lt;br&gt;4'-phosphopantetheinyl transferase superfamily protein&lt;br&gt;Location: 12652 - 11936" locus_tag="DES54_RS09835" class="clusterblast-orf" id="dummy-1_h1_5_32"  />
</g>
<g id="a1_0033"  >
<polygon points="632,90 660,90 665,85 660,80 632,80 632,90 " style="fill:white; stroke-width:1; stroke:black; " description="&lt;b&gt;DES54_RS09830&lt;/b&gt;&lt;br&gt;catalase HPII&lt;br&gt;Location: 11533 - 9248" locus_tag="DES54_RS09830" class="clusterblast-orf" id="dummy-1_h1_5_33"  />
</g>
<g id="a1_0034"  >
<polygon points="667,85 672,80 677,80 677,90 672,90 667,85 " style="fill:white; stroke-width:1; stroke:black; " description="&lt;b&gt;DES54_RS09825&lt;/b&gt;&lt;br&gt;helix-turn-helix transcriptional regulator&lt;br&gt;Location: 9108 - 8410" locus_tag="DES54_RS09825" class="clusterblast-orf" id="dummy-1_h1_5_34"  />
</g>
<g id="a1_0035"  >
<polygon points="683,90 688,90 693,85 688,80 683,80 683,90 " style="fill:white; stroke-width:1; stroke:black; " description="&lt;b&gt;DES54_RS09820&lt;/b&gt;&lt;br&gt;hypothetical protein&lt;br&gt;Location: 7991 - 7293" locus_tag="DES54_RS09820" class="clusterblast-orf" id="dummy-1_h1_5_35"  />
</g>
<g id="a1_0036"  >
<polygon points="697,90 701,85 697,80 697,90 " style="fill:white; stroke-width:1; stroke:black; " description="&lt;b&gt;DES54_RS09815&lt;/b&gt;&lt;br&gt;phage holin, lambda family&lt;br&gt;Location: 7050 - 6712" locus_tag="DES54_RS09815" class="clusterblast-orf" id="dummy-1_h1_5_36"  />
</g>
<g id="a1_0037"  >
<polygon points="705,90 719,90 724,85 719,80 705,80 705,90 " style="fill:white; stroke-width:1; stroke:black; " description="&lt;b&gt;DES54_RS09810&lt;/b&gt;&lt;br&gt;glycoside hydrolase family 68 protein&lt;br&gt;Location: 6446 - 5163" locus_tag="DES54_RS09810" class="clusterblast-orf" id="dummy-1_h1_5_37"  />
</g>
<g id="a1_0038"  >
<polygon points="731,90 753,90 758,85 753,80 731,80 731,90 " style="fill:white; stroke-width:1; stroke:black; " description="&lt;b&gt;DES54_RS09800&lt;/b&gt;&lt;br&gt;CocE/NonD family hydrolase&lt;br&gt;Location: 4669 - 2813" locus_tag="DES54_RS09800" class="clusterblast-orf" id="dummy-1_h1_5_38"  />
</g>
<g id="a1_0039"  >
<polygon points="760,90 763,90 768,85 763,80 760,80 760,90 " style="fill:white; stroke-width:1; stroke:black; " description="&lt;b&gt;DES54_RS09795&lt;/b&gt;&lt;br&gt;TetR family transcriptional regulator&lt;br&gt;Location: 2660 - 2121" locus_tag="DES54_RS09795" class="clusterblast-orf" id="dummy-1_h1_5_39"  />
</g>
<g id="a1_0040"  >
<polygon points="769,85 774,80 780,80 780,90 774,90 769,85 " style="fill:white; stroke-width:1; stroke:black; " description="&lt;b&gt;DES54_RS09790&lt;/b&gt;&lt;br&gt;NAD(P)H-binding protein&lt;br&gt;Location: 2039 - 1320" locus_tag="DES54_RS09790" class="clusterblast-orf" id="dummy-1_h1_5_40"  />
</g>
</svg>
