<svg xmlns="http://www.w3.org/2000/svg" xmlns:xlink="http://www.w3.org/1999/xlink" version="1.1" x="0" y="0" height="230" width="800" viewBox="0 0 800 230" preserveAspectRatio="none"  >
<g label="Query sequence" class="clusterblast-cluster"  >
<text x="5" y="20" class="clusterblast-acc"  >
Query sequence</text>
<line x1="10" y1="35" x2="778.0" y2="35" style="stroke-width:1; stroke:grey; "  />
<polygon points="118,40 366,40 371,35 366,30 118,30 118,40 " style="fill:#d81515; stroke-width:1; stroke:black; " description="&lt;b&gt;MCIC6FC_020661&lt;/b&gt;&lt;br&gt;hypothetical protein&lt;br&gt;Location: 29 - 16470" locus_tag="MCIC6FC_020661" class="clusterblast-orf" id="dummy-1_q0_0_all"  />
<polygon points="372,35 377,30 423,30 423,40 377,40 372,35 " style="fill:#5cd815; stroke-width:1; stroke:black; " description="&lt;b&gt;MCIC6FC_020662&lt;/b&gt;&lt;br&gt;hypothetical protein&lt;br&gt;Location: 16511 - 19820" locus_tag="MCIC6FC_020662" class="clusterblast-orf" id="dummy-1_q1_0_all"  />
<polygon points="426,40 451,40 456,35 451,30 426,30 426,40 " style="fill:#15a3d8; stroke-width:1; stroke:black; " description="&lt;b&gt;MCIC6FC_020663&lt;/b&gt;&lt;br&gt;hypothetical protein&lt;br&gt;Location: 19984 - 21984" locus_tag="MCIC6FC_020663" class="clusterblast-orf" id="dummy-1_q2_0_all"  />
<polygon points="458,40 490,40 495,35 490,30 458,30 458,40 " style="fill:#c715d8; stroke-width:1; stroke:black; " description="&lt;b&gt;MCIC6FC_020664&lt;/b&gt;&lt;br&gt;hypothetical protein&lt;br&gt;Location: 22108 - 24458" locus_tag="MCIC6FC_020664" class="clusterblast-orf" id="dummy-1_q3_0_all"  />
<polygon points="496,40 499,35 496,30 496,40 " style="fill:#d88015; stroke-width:1; stroke:black; " description="&lt;b&gt;MCIC6FC_020665&lt;/b&gt;&lt;br&gt;hypothetical protein&lt;br&gt;Location: 24527 - 24765" locus_tag="MCIC6FC_020665" class="clusterblast-orf" id="dummy-1_q4_0_all"  />
<polygon points="500,35 505,30 537,30 537,40 505,40 500,35 " style="fill:#15d839; stroke-width:1; stroke:black; " description="&lt;b&gt;MCIC6FC_020666&lt;/b&gt;&lt;br&gt;hypothetical protein&lt;br&gt;Location: 24844 - 27235" locus_tag="MCIC6FC_020666" class="clusterblast-orf" id="dummy-1_q5_0_all"  />
<polygon points="540,35 545,30 560,30 560,40 545,40 540,35 " style="fill:#1539d8; stroke-width:1; stroke:black; " description="&lt;b&gt;MCIC6FC_020667&lt;/b&gt;&lt;br&gt;hypothetical protein&lt;br&gt;Location: 27428 - 28718" locus_tag="MCIC6FC_020667" class="clusterblast-orf" id="dummy-1_q6_0_all"  />
<polygon points="563,35 568,30 573,30 573,40 568,40 563,35 " style="fill:#d81580; stroke-width:1; stroke:black; " description="&lt;b&gt;MCIC6FC_020668&lt;/b&gt;&lt;br&gt;hypothetical protein&lt;br&gt;Location: 28904 - 29540" locus_tag="MCIC6FC_020668" class="clusterblast-orf" id="dummy-1_q7_0_all"  />
<polygon points="574,35 579,30 605,30 605,40 579,40 574,35 " style="fill:#c7d815; stroke-width:1; stroke:black; " description="&lt;b&gt;MCIC6FC_020669&lt;/b&gt;&lt;br&gt;hypothetical protein&lt;br&gt;Location: 29635 - 31644" locus_tag="MCIC6FC_020669" class="clusterblast-orf" id="dummy-1_q8_0_all"  />
<polygon points="607,40 635,40 640,35 635,30 607,30 607,40 " style="fill:#15d8a3; stroke-width:1; stroke:black; " description="&lt;b&gt;MCIC6FC_020670&lt;/b&gt;&lt;br&gt;hypothetical protein&lt;br&gt;Location: 31763 - 33859" locus_tag="MCIC6FC_020670" class="clusterblast-orf" id="dummy-1_q9_0_all"  />
<polygon points="650,35 655,30 662,30 662,40 655,40 650,35 " style="fill:#5c15d8; stroke-width:1; stroke:black; " description="&lt;b&gt;MCIC6FC_020671&lt;/b&gt;&lt;br&gt;hypothetical protein&lt;br&gt;Location: 34504 - 35290" locus_tag="MCIC6FC_020671" class="clusterblast-orf" id="dummy-1_q10_0_all"  />
</g>
<g label="NZ_FOIH01000005" description="NZ_FOIH01000005 (238861-291740): Pseudomonas sp. NFR09, whole genome shotgun ... (45% of genes show similarity), NRPS" class="clusterblast-cluster"  >
<text x="5" y="70" class="clusterblast-acc"  >
<a xlink:href="https://antismash-db.secondarymetabolites.org/area.html?record=NZ_FOIH01000005&amp;start=238861&amp;end=291740" target="_blank">NZ_FOIH01000005 (238861-291740)</a>: Pseudomonas sp. NFR09, whole genome shotgun ... (45% of genes show similarity), NRPS</text>
<line x1="10" y1="85" x2="778.0" y2="85" style="stroke-width:1; stroke:grey; "  />
</g>
<g id="a1_000"  >
<polygon points="0,90 4,85 0,80 0,90 " style="fill:white; stroke-width:1; stroke:black; " description="&lt;b&gt;BMX59_RS13870&lt;/b&gt;&lt;br&gt;hypothetical protein&lt;br&gt;Location: 239419 - 239730" locus_tag="BMX59_RS13870" class="clusterblast-orf" id="dummy-1_h1_9_0"  />
</g>
<g id="a1_001"  >
<polygon points="5,90 5,90 10,85 5,80 5,80 5,90 " style="fill:white; stroke-width:1; stroke:black; " description="&lt;b&gt;BMX59_RS13875&lt;/b&gt;&lt;br&gt;hypothetical protein&lt;br&gt;Location: 239755 - 240081" locus_tag="BMX59_RS13875" class="clusterblast-orf" id="dummy-1_h1_9_1"  />
</g>
<g id="a1_002"  >
<polygon points="10,90 13,90 18,85 13,80 10,80 10,90 " style="fill:white; stroke-width:1; stroke:black; " description="&lt;b&gt;BMX59_RS13880&lt;/b&gt;&lt;br&gt;hypothetical protein&lt;br&gt;Location: 240108 - 240650" locus_tag="BMX59_RS13880" class="clusterblast-orf" id="dummy-1_h1_9_2"  />
</g>
<g id="a1_003"  >
<polygon points="20,90 29,90 34,85 29,80 20,80 20,90 " style="fill:white; stroke-width:1; stroke:black; " description="&lt;b&gt;BMX59_RS13885&lt;/b&gt;&lt;br&gt;lipid kinase YegS&lt;br&gt;Location: 240744 - 241664" locus_tag="BMX59_RS13885" class="clusterblast-orf" id="dummy-1_h1_9_3"  />
</g>
<g id="a1_004"  >
<polygon points="34,85 39,80 44,80 44,90 39,90 34,85 " style="fill:white; stroke-width:1; stroke:black; " description="&lt;b&gt;BMX59_RS13890&lt;/b&gt;&lt;br&gt;response regulator transcription factor&lt;br&gt;Location: 241623 - 242282" locus_tag="BMX59_RS13890" class="clusterblast-orf" id="dummy-1_h1_9_4"  />
</g>
<g id="a1_005"  >
<polygon points="44,85 49,80 57,80 57,90 49,90 44,85 " style="fill:white; stroke-width:1; stroke:black; " description="&lt;b&gt;BMX59_RS13895&lt;/b&gt;&lt;br&gt;sensor histidine kinase&lt;br&gt;Location: 242279 - 243172" locus_tag="BMX59_RS13895" class="clusterblast-orf" id="dummy-1_h1_9_5"  />
</g>
<g id="a1_006"  >
<polygon points="63,85 68,80 70,80 70,90 68,90 63,85 " style="fill:white; stroke-width:1; stroke:black; " description="&lt;b&gt;BMX59_RS13900&lt;/b&gt;&lt;br&gt;hypothetical protein&lt;br&gt;Location: 243541 - 243990" locus_tag="BMX59_RS13900" class="clusterblast-orf" id="dummy-1_h1_9_6"  />
</g>
<g id="a1_007"  >
<polygon points="78,90 88,90 93,85 88,80 78,80 78,90 " style="fill:white; stroke-width:1; stroke:black; " description="&lt;b&gt;BMX59_RS13905&lt;/b&gt;&lt;br&gt;chemotaxis protein CheV&lt;br&gt;Location: 244532 - 245467" locus_tag="BMX59_RS13905" class="clusterblast-orf" id="dummy-1_h1_9_7"  />
</g>
<g id="a1_008"  >
<polygon points="93,90 101,90 106,85 101,80 93,80 93,90 " style="fill:white; stroke-width:1; stroke:black; " description="&lt;b&gt;BMX59_RS13910&lt;/b&gt;&lt;br&gt;MOSC domain-containing protein&lt;br&gt;Location: 245507 - 246313" locus_tag="BMX59_RS13910" class="clusterblast-orf" id="dummy-1_h1_9_8"  />
</g>
<g id="a1_009"  >
<polygon points="107,85 111,80 111,90 107,85 " style="fill:white; stroke-width:1; stroke:black; " description="&lt;b&gt;BMX59_RS13915&lt;/b&gt;&lt;br&gt;pyrimidine/purine nucleoside phosphorylase&lt;br&gt;Location: 246378 - 246662" locus_tag="BMX59_RS13915" class="clusterblast-orf" id="dummy-1_h1_9_9"  />
</g>
<g id="a1_0010"  >
<polygon points="112,85 117,80 121,80 121,90 117,90 112,85 " style="fill:white; stroke-width:1; stroke:black; " description="&lt;b&gt;BMX59_RS13920&lt;/b&gt;&lt;br&gt;exonuclease&lt;br&gt;Location: 246726 - 247268" locus_tag="BMX59_RS13920" class="clusterblast-orf" id="dummy-1_h1_9_10"  />
</g>
<g id="a1_0011"  >
<polygon points="122,85 127,80 151,80 151,90 127,90 122,85 " style="fill:white; stroke-width:1; stroke:black; " description="&lt;b&gt;BMX59_RS13925&lt;/b&gt;&lt;br&gt;acetyl/propionyl/methylcrotonyl-CoA carboxylase subunit alpha&lt;br&gt;Location: 247342 - 249225" locus_tag="BMX59_RS13925" class="clusterblast-orf" id="dummy-1_h1_9_11"  />
</g>
<g id="a1_0012"  >
<polygon points="152,85 157,80 164,80 164,90 157,90 152,85 " style="fill:white; stroke-width:1; stroke:black; " description="&lt;b&gt;BMX59_RS13930&lt;/b&gt;&lt;br&gt;enoyl-CoA hydratase/isomerase family protein&lt;br&gt;Location: 249319 - 250080" locus_tag="BMX59_RS13930" class="clusterblast-orf" id="dummy-1_h1_9_12"  />
</g>
<g id="a1_0013"  >
<polygon points="164,85 169,80 182,80 182,90 169,90 164,85 " style="fill:white; stroke-width:1; stroke:black; " description="&lt;b&gt;BMX59_RS13935&lt;/b&gt;&lt;br&gt;acyl-CoA dehydrogenase family protein&lt;br&gt;Location: 250077 - 251234" locus_tag="BMX59_RS13935" class="clusterblast-orf" id="dummy-1_h1_9_13"  />
</g>
<g id="a1_0014"  >
<polygon points="182,85 187,80 207,80 207,90 187,90 182,85 " style="fill:white; stroke-width:1; stroke:black; " description="&lt;b&gt;BMX59_RS13940&lt;/b&gt;&lt;br&gt;acyl-CoA carboxylase subunit beta&lt;br&gt;Location: 251252 - 252868" locus_tag="BMX59_RS13940" class="clusterblast-orf" id="dummy-1_h1_9_14"  />
</g>
<g id="a1_0015"  >
<polygon points="207,85 212,80 220,80 220,90 212,90 207,85 " style="fill:white; stroke-width:1; stroke:black; " description="&lt;b&gt;BMX59_RS13945&lt;/b&gt;&lt;br&gt;SDR family oxidoreductase&lt;br&gt;Location: 252872 - 253744" locus_tag="BMX59_RS13945" class="clusterblast-orf" id="dummy-1_h1_9_15"  />
</g>
<g id="a1_0016"  >
<polygon points="221,85 226,80 248,80 248,90 226,90 221,85 " style="fill:white; stroke-width:1; stroke:black; " description="&lt;b&gt;BMX59_RS13950&lt;/b&gt;&lt;br&gt;DUF1446 domain-containing protein&lt;br&gt;Location: 253758 - 255536" locus_tag="BMX59_RS13950" class="clusterblast-orf" id="dummy-1_h1_9_16"  />
</g>
<g id="a1_0017"  >
<polygon points="251,90 255,90 260,85 255,80 251,80 251,90 " style="fill:white; stroke-width:1; stroke:black; " description="&lt;b&gt;BMX59_RS13955&lt;/b&gt;&lt;br&gt;TetR family transcriptional regulator&lt;br&gt;Location: 255690 - 256313" locus_tag="BMX59_RS13955" class="clusterblast-orf" id="dummy-1_h1_9_17"  />
</g>
<g id="a1_0018"  >
<polygon points="262,90 269,90 274,85 269,80 262,80 262,90 " style="fill:white; stroke-width:1; stroke:black; " description="&lt;b&gt;BMX59_RS13960&lt;/b&gt;&lt;br&gt;transporter substrate-binding domain-containing protein&lt;br&gt;Location: 256408 - 257196" locus_tag="BMX59_RS13960" class="clusterblast-orf" id="dummy-1_h1_9_18"  />
</g>
<g id="a1_0019"  >
<polygon points="274,85 279,80 283,80 283,90 279,90 274,85 " style="fill:white; stroke-width:1; stroke:black; " description="&lt;b&gt;BMX59_RS13965&lt;/b&gt;&lt;br&gt;RNA polymerase factor sigma-70&lt;br&gt;Location: 257215 - 257766" locus_tag="BMX59_RS13965" class="clusterblast-orf" id="dummy-1_h1_9_19"  />
</g>
<g id="a1_0020"  >
<polygon points="287,90 294,90 299,85 294,80 287,80 287,90 " style="fill:white; stroke-width:1; stroke:black; " description="&lt;b&gt;BMX59_RS13970&lt;/b&gt;&lt;br&gt;thioesterase&lt;br&gt;Location: 258056 - 258808" locus_tag="BMX59_RS13970" class="clusterblast-orf" id="dummy-1_h1_9_20"  />
</g>
<g id="a1_0021"  >
<polygon points="299,90 493,90 498,85 493,80 299,80 299,90 " style="fill:#d81515; stroke-width:1; stroke:black; " description="&lt;b&gt;BMX59_RS13975&lt;/b&gt;&lt;br&gt;non-ribosomal peptide synthetase&lt;br&gt;Location: 258862 - 271740&lt;br&gt;&lt;br&gt;&lt;b&gt;BlastP hit with MCIC6FC_020661&lt;/b&gt;&lt;br&gt;Percentage identity: 93&lt;br&gt;Percentage coverage: 63&lt;br&gt;BLAST bit score: 6162&lt;br&gt;E-value: 0.0" locus_tag="BMX59_RS13975" class="clusterblast-orf" id="dummy-1_h1_9_21"  />
</g>
<g id="a1_0022"  >
<polygon points="500,85 505,80 512,80 512,90 505,90 500,85 " style="fill:#5cd815; stroke-width:1; stroke:black; " description="&lt;b&gt;BMX59_RS13980&lt;/b&gt;&lt;br&gt;thiol:disulfide interchange protein DsbG&lt;br&gt;Location: 271850 - 272611&lt;br&gt;&lt;br&gt;&lt;b&gt;BlastP hit with MCIC6FC_020662&lt;/b&gt;&lt;br&gt;Percentage identity: 83&lt;br&gt;Percentage coverage: 25&lt;br&gt;BLAST bit score: 405&lt;br&gt;E-value: 1.8e-110" locus_tag="BMX59_RS13980" class="clusterblast-orf" id="dummy-1_h1_9_22"  />
</g>
<g id="a1_0023"  >
<polygon points="511,85 516,80 524,80 524,90 516,90 511,85 " style="fill:#5cd815; stroke-width:1; stroke:black; " description="&lt;b&gt;BMX59_RS13985&lt;/b&gt;&lt;br&gt;TlpA family protein disulfide reductase&lt;br&gt;Location: 272587 - 273432&lt;br&gt;&lt;br&gt;&lt;b&gt;BlastP hit with MCIC6FC_020662&lt;/b&gt;&lt;br&gt;Percentage identity: 95&lt;br&gt;Percentage coverage: 23&lt;br&gt;BLAST bit score: 449&lt;br&gt;E-value: 8.3e-124" locus_tag="BMX59_RS13985" class="clusterblast-orf" id="dummy-1_h1_9_23"  />
</g>
<g id="a1_0024"  >
<polygon points="524,85 529,80 551,80 551,90 529,90 524,85 " style="fill:#5cd815; stroke-width:1; stroke:black; " description="&lt;b&gt;BMX59_RS13990&lt;/b&gt;&lt;br&gt;protein-disulfide reductase DsbD&lt;br&gt;Location: 273432 - 275159&lt;br&gt;&lt;br&gt;&lt;b&gt;BlastP hit with MCIC6FC_020662&lt;/b&gt;&lt;br&gt;Percentage identity: 95&lt;br&gt;Percentage coverage: 53&lt;br&gt;BLAST bit score: 992&lt;br&gt;E-value: 3.5e-287" locus_tag="BMX59_RS13990" class="clusterblast-orf" id="dummy-1_h1_9_24"  />
</g>
<g id="a1_0025"  >
<polygon points="553,90 559,90 564,85 559,80 553,80 553,90 " style="fill:#15a3d8; stroke-width:1; stroke:black; " description="&lt;b&gt;BMX59_RS13995&lt;/b&gt;&lt;br&gt;response regulator&lt;br&gt;Location: 275321 - 276001&lt;br&gt;&lt;br&gt;&lt;b&gt;BlastP hit with MCIC6FC_020663&lt;/b&gt;&lt;br&gt;Percentage identity: 92&lt;br&gt;Percentage coverage: 34&lt;br&gt;BLAST bit score: 374&lt;br&gt;E-value: 1.6e-101" locus_tag="BMX59_RS13995" class="clusterblast-orf" id="dummy-1_h1_9_25"  />
</g>
<g id="a1_0026"  >
<polygon points="564,90 579,90 584,85 579,80 564,80 564,90 " style="fill:#15a3d8; stroke-width:1; stroke:black; " description="&lt;b&gt;BMX59_RS14000&lt;/b&gt;&lt;br&gt;sensor histidine kinase N-terminal domain-containing protein&lt;br&gt;Location: 275998 - 277320&lt;br&gt;&lt;br&gt;&lt;b&gt;BlastP hit with MCIC6FC_020663&lt;/b&gt;&lt;br&gt;Percentage identity: 95&lt;br&gt;Percentage coverage: 69&lt;br&gt;BLAST bit score: 794&lt;br&gt;E-value: 6.6e-228" locus_tag="BMX59_RS14000" class="clusterblast-orf" id="dummy-1_h1_9_26"  />
</g>
<g id="a1_0027"  >
<polygon points="586,90 593,90 598,85 593,80 586,80 586,90 " style="fill:#c715d8; stroke-width:1; stroke:black; " description="&lt;b&gt;BMX59_RS14005&lt;/b&gt;&lt;br&gt;N-acetylmuramoyl-L-alanine amidase&lt;br&gt;Location: 277445 - 278212&lt;br&gt;&lt;br&gt;&lt;b&gt;BlastP hit with MCIC6FC_020664&lt;/b&gt;&lt;br&gt;Percentage identity: 88&lt;br&gt;Percentage coverage: 34&lt;br&gt;BLAST bit score: 481&lt;br&gt;E-value: 1.9e-133" locus_tag="BMX59_RS14005" class="clusterblast-orf" id="dummy-1_h1_9_27"  />
</g>
<g id="a1_0028"  >
<polygon points="602,90 619,90 624,85 619,80 602,80 602,90 " style="fill:#c715d8; stroke-width:1; stroke:black; " description="&lt;b&gt;BMX59_RS14010&lt;/b&gt;&lt;br&gt;aspartate aminotransferase family protein&lt;br&gt;Location: 278477 - 279871&lt;br&gt;&lt;br&gt;&lt;b&gt;BlastP hit with MCIC6FC_020664&lt;/b&gt;&lt;br&gt;Percentage identity: 99&lt;br&gt;Percentage coverage: 62&lt;br&gt;BLAST bit score: 912&lt;br&gt;E-value: 3.3e-263" locus_tag="BMX59_RS14010" class="clusterblast-orf" id="dummy-1_h1_9_28"  />
</g>
<g id="a1_0029"  >
<polygon points="625,90 628,85 625,80 625,90 " style="fill:#d88015; stroke-width:1; stroke:black; " description="&lt;b&gt;BMX59_RS14015&lt;/b&gt;&lt;br&gt;MbtH family protein&lt;br&gt;Location: 279954 - 280175&lt;br&gt;&lt;br&gt;&lt;b&gt;BlastP hit with MCIC6FC_020665&lt;/b&gt;&lt;br&gt;Percentage identity: 92&lt;br&gt;Percentage coverage: 94&lt;br&gt;BLAST bit score: 124&lt;br&gt;E-value: 5e-27" locus_tag="BMX59_RS14015" class="clusterblast-orf" id="dummy-1_h1_9_29"  />
</g>
<g id="a1_0030"  >
<polygon points="630,85 635,80 664,80 664,90 635,90 630,85 " style="fill:#15d839; stroke-width:1; stroke:black; " description="&lt;b&gt;BMX59_RS14020&lt;/b&gt;&lt;br&gt;mechanosensitive ion channel family protein&lt;br&gt;Location: 280300 - 282468&lt;br&gt;&lt;br&gt;&lt;b&gt;BlastP hit with MCIC6FC_020666&lt;/b&gt;&lt;br&gt;Percentage identity: 93&lt;br&gt;Percentage coverage: 97&lt;br&gt;BLAST bit score: 1270&lt;br&gt;E-value: 0.0" locus_tag="BMX59_RS14020" class="clusterblast-orf" id="dummy-1_h1_9_30"  />
</g>
<g id="a1_0031"  >
<polygon points="664,85 667,80 667,90 664,85 " style="fill:white; stroke-width:1; stroke:black; " description="&lt;b&gt;BMX59_RS30460&lt;/b&gt;&lt;br&gt;hypothetical protein&lt;br&gt;Location: 282521 - 282697" locus_tag="BMX59_RS30460" class="clusterblast-orf" id="dummy-1_h1_9_31"  />
</g>
<g id="a1_0032"  >
<polygon points="669,85 674,80 689,80 689,90 674,90 669,85 " style="fill:#1539d8; stroke-width:1; stroke:black; " description="&lt;b&gt;BMX59_RS14025&lt;/b&gt;&lt;br&gt;M18 family aminopeptidase&lt;br&gt;Location: 282824 - 284113&lt;br&gt;&lt;br&gt;&lt;b&gt;BlastP hit with MCIC6FC_020667&lt;/b&gt;&lt;br&gt;Percentage identity: 99&lt;br&gt;Percentage coverage: 100&lt;br&gt;BLAST bit score: 868&lt;br&gt;E-value: 4.1e-250" locus_tag="BMX59_RS14025" class="clusterblast-orf" id="dummy-1_h1_9_32"  />
</g>
<g id="a1_0033"  >
<polygon points="691,85 696,80 701,80 701,90 696,90 691,85 " style="fill:#d81580; stroke-width:1; stroke:black; " description="&lt;b&gt;BMX59_RS14030&lt;/b&gt;&lt;br&gt;RluA family pseudouridine synthase&lt;br&gt;Location: 284275 - 284910&lt;br&gt;&lt;br&gt;&lt;b&gt;BlastP hit with MCIC6FC_020668&lt;/b&gt;&lt;br&gt;Percentage identity: 98&lt;br&gt;Percentage coverage: 100&lt;br&gt;BLAST bit score: 443&lt;br&gt;E-value: 9.5e-123" locus_tag="BMX59_RS14030" class="clusterblast-orf" id="dummy-1_h1_9_33"  />
</g>
<g id="a1_0034"  >
<polygon points="703,85 707,80 707,90 703,85 " style="fill:#c7d815; stroke-width:1; stroke:black; " description="&lt;b&gt;BMX59_RS14035&lt;/b&gt;&lt;br&gt;cell division topological specificity factor MinE&lt;br&gt;Location: 285007 - 285261&lt;br&gt;&lt;br&gt;&lt;b&gt;BlastP hit with MCIC6FC_020669&lt;/b&gt;&lt;br&gt;Percentage identity: 100&lt;br&gt;Percentage coverage: 12&lt;br&gt;BLAST bit score: 134&lt;br&gt;E-value: 3.1e-29" locus_tag="BMX59_RS14035" class="clusterblast-orf" id="dummy-1_h1_9_34"  />
</g>
<g id="a1_0035"  >
<polygon points="707,85 712,80 719,80 719,90 712,90 707,85 " style="fill:#c7d815; stroke-width:1; stroke:black; " description="&lt;b&gt;BMX59_RS14040&lt;/b&gt;&lt;br&gt;septum site-determining protein MinD&lt;br&gt;Location: 285265 - 286077&lt;br&gt;&lt;br&gt;&lt;b&gt;BlastP hit with MCIC6FC_020669&lt;/b&gt;&lt;br&gt;Percentage identity: 99&lt;br&gt;Percentage coverage: 49&lt;br&gt;BLAST bit score: 498&lt;br&gt;E-value: 8.2e-139" locus_tag="BMX59_RS14040" class="clusterblast-orf" id="dummy-1_h1_9_35"  />
</g>
<g id="a1_0036"  >
<polygon points="722,85 727,80 733,80 733,90 727,90 722,85 " style="fill:#c7d815; stroke-width:1; stroke:black; " description="&lt;b&gt;BMX59_RS14045&lt;/b&gt;&lt;br&gt;septum site-determining protein MinC&lt;br&gt;Location: 286244 - 286981&lt;br&gt;&lt;br&gt;&lt;b&gt;BlastP hit with MCIC6FC_020669&lt;/b&gt;&lt;br&gt;Percentage identity: 80&lt;br&gt;Percentage coverage: 45&lt;br&gt;BLAST bit score: 346&lt;br&gt;E-value: 5.2e-93" locus_tag="BMX59_RS14045" class="clusterblast-orf" id="dummy-1_h1_9_36"  />
</g>
<g id="a1_0037"  >
<polygon points="735,90 745,90 750,85 745,80 735,80 735,90 " style="fill:#15d8a3; stroke-width:1; stroke:black; " description="&lt;b&gt;BMX59_RS14050&lt;/b&gt;&lt;br&gt;lipid A biosynthesis lauroyl acyltransferase&lt;br&gt;Location: 287101 - 288036&lt;br&gt;&lt;br&gt;&lt;b&gt;BlastP hit with MCIC6FC_020670&lt;/b&gt;&lt;br&gt;Percentage identity: 98&lt;br&gt;Percentage coverage: 45&lt;br&gt;BLAST bit score: 602&lt;br&gt;E-value: 5.1e-170" locus_tag="BMX59_RS14050" class="clusterblast-orf" id="dummy-1_h1_9_37"  />
</g>
<g id="a1_0038"  >
<polygon points="750,90 762,90 767,85 762,80 750,80 750,90 " style="fill:#15d8a3; stroke-width:1; stroke:black; " description="&lt;b&gt;BMX59_RS14055&lt;/b&gt;&lt;br&gt;patatin-like phospholipase family protein&lt;br&gt;Location: 288067 - 289191&lt;br&gt;&lt;br&gt;&lt;b&gt;BlastP hit with MCIC6FC_020670&lt;/b&gt;&lt;br&gt;Percentage identity: 93&lt;br&gt;Percentage coverage: 55&lt;br&gt;BLAST bit score: 673&lt;br&gt;E-value: 2.3e-191" locus_tag="BMX59_RS14055" class="clusterblast-orf" id="dummy-1_h1_9_38"  />
</g>
<g id="a1_0039"  >
<polygon points="767,85 772,80 780,80 780,90 772,90 767,85 " style="fill:#5c15d8; stroke-width:1; stroke:black; " description="&lt;b&gt;BMX59_RS14060&lt;/b&gt;&lt;br&gt;hypothetical protein&lt;br&gt;Location: 289195 - 289980&lt;br&gt;&lt;br&gt;&lt;b&gt;BlastP hit with MCIC6FC_020671&lt;/b&gt;&lt;br&gt;Percentage identity: 96&lt;br&gt;Percentage coverage: 100&lt;br&gt;BLAST bit score: 550&lt;br&gt;E-value: 8.9e-155" locus_tag="BMX59_RS14060" class="clusterblast-orf" id="dummy-1_h1_9_39"  />
</g>
</svg>
