<svg xmlns="http://www.w3.org/2000/svg" xmlns:xlink="http://www.w3.org/1999/xlink" version="1.1" x="0" y="0" height="230" width="800" viewBox="0 0 800 230" preserveAspectRatio="none"  >
<g label="Query sequence" class="clusterblast-cluster"  >
<text x="5" y="20" class="clusterblast-acc"  >
Query sequence</text>
<line x1="10" y1="35" x2="778.0" y2="35" style="stroke-width:1; stroke:grey; "  />
<polygon points="356,40 359,35 356,30 356,40 " style="fill:#d81515; stroke-width:1; stroke:black; " description="&lt;b&gt;MCIC6FC_019439&lt;/b&gt;&lt;br&gt;hypothetical protein&lt;br&gt;Location: 217 - 556" locus_tag="MCIC6FC_019439" class="clusterblast-orf" id="dummy-1_q0_0_all"  />
<polygon points="359,40 376,40 381,35 376,30 359,30 359,40 " style="fill:#15d863; stroke-width:1; stroke:black; " description="&lt;b&gt;MCIC6FC_019440&lt;/b&gt;&lt;br&gt;hypothetical protein&lt;br&gt;Location: 579 - 2695" locus_tag="MCIC6FC_019440" class="clusterblast-orf" id="dummy-1_q1_0_all"  />
<polygon points="381,35 386,30 391,30 391,40 386,40 381,35 " style="fill:#1563d8; stroke-width:1; stroke:black; " description="&lt;b&gt;MCIC6FC_019441&lt;/b&gt;&lt;br&gt;hypothetical protein&lt;br&gt;Location: 2711 - 3611" locus_tag="MCIC6FC_019441" class="clusterblast-orf" id="dummy-1_q2_0_all"  />
<polygon points="392,40 401,40 406,35 401,30 392,30 392,40 " style="fill:#b115d8; stroke-width:1; stroke:black; " description="&lt;b&gt;MCIC6FC_019442&lt;/b&gt;&lt;br&gt;hypothetical protein&lt;br&gt;Location: 3723 - 5091" locus_tag="MCIC6FC_019442" class="clusterblast-orf" id="dummy-1_q3_0_all"  />
<polygon points="407,40 418,40 423,35 418,30 407,30 407,40 " style="fill:#b1d815; stroke-width:1; stroke:black; " description="&lt;b&gt;MCIC6FC_019443&lt;/b&gt;&lt;br&gt;hypothetical protein&lt;br&gt;Location: 5197 - 6811" locus_tag="MCIC6FC_019443" class="clusterblast-orf" id="dummy-1_q4_0_all"  />
</g>
<g label="NZ_JACHCZ010000002" description="NZ_JACHCZ010000002 (375164-452637): Pseudomonas sp. JAI120 Ga0401626 02, whol... (16% of genes show similarity), NRPS,bacteriocin" class="clusterblast-cluster"  >
<text x="5" y="70" class="clusterblast-acc"  >
<a xlink:href="https://antismash-db.secondarymetabolites.org/area.html?record=NZ_JACHCZ010000002&amp;start=375164&amp;end=452637" target="_blank">NZ_JACHCZ010000002 (375164-452637)</a>: Pseudomonas sp. JAI120 Ga0401626 02, whol... (16% of genes show similarity), NRPS,bacteriocin</text>
<line x1="10" y1="85" x2="778.0" y2="85" style="stroke-width:1; stroke:grey; "  />
</g>
<g id="a1_000"  >
<polygon points="0,90 4,90 9,85 4,80 0,80 0,90 " style="fill:white; stroke-width:1; stroke:black; " description="&lt;b&gt;HDC32_RS13655&lt;/b&gt;&lt;br&gt;high-affinity branched-chain amino acid ABC transporter permease LivH&lt;br&gt;Location: 375967 - 376890" locus_tag="HDC32_RS13655" class="clusterblast-orf" id="dummy-1_h1_5_0"  />
</g>
<g id="a1_001"  >
<polygon points="9,90 17,90 22,85 17,80 9,80 9,90 " style="fill:white; stroke-width:1; stroke:black; " description="&lt;b&gt;HDC32_RS13660&lt;/b&gt;&lt;br&gt;high-affinity branched-chain amino acid ABC transporter permease LivM&lt;br&gt;Location: 376887 - 378140" locus_tag="HDC32_RS13660" class="clusterblast-orf" id="dummy-1_h1_5_1"  />
</g>
<g id="a1_002"  >
<polygon points="22,90 25,90 30,85 25,80 22,80 22,90 " style="fill:white; stroke-width:1; stroke:black; " description="&lt;b&gt;HDC32_RS13665&lt;/b&gt;&lt;br&gt;high-affinity branched-chain amino acid ABC transporter ATP-binding protein LivG&lt;br&gt;Location: 378137 - 378904" locus_tag="HDC32_RS13665" class="clusterblast-orf" id="dummy-1_h1_5_2"  />
</g>
<g id="a1_003"  >
<polygon points="30,90 32,90 37,85 32,80 30,80 30,90 " style="fill:white; stroke-width:1; stroke:black; " description="&lt;b&gt;HDC32_RS13670&lt;/b&gt;&lt;br&gt;ATP-binding cassette domain-containing protein&lt;br&gt;Location: 378906 - 379607" locus_tag="HDC32_RS13670" class="clusterblast-orf" id="dummy-1_h1_5_3"  />
</g>
<g id="a1_004"  >
<polygon points="39,90 42,85 39,80 39,90 " style="fill:#d81515; stroke-width:1; stroke:black; " description="&lt;b&gt;HDC32_RS13675&lt;/b&gt;&lt;br&gt;DUF2282 domain-containing protein&lt;br&gt;Location: 379845 - 380141&lt;br&gt;&lt;br&gt;&lt;b&gt;BlastP hit with MCIC6FC_019439&lt;/b&gt;&lt;br&gt;Percentage identity: 96&lt;br&gt;Percentage coverage: 88&lt;br&gt;BLAST bit score: 177&lt;br&gt;E-value: 6.7e-43" locus_tag="HDC32_RS13675" class="clusterblast-orf" id="dummy-1_h1_5_4"  />
</g>
<g id="a1_005"  >
<polygon points="43,90 47,90 52,85 47,80 43,80 43,90 " style="fill:#15d863; stroke-width:1; stroke:black; " description="&lt;b&gt;HDC32_RS13680&lt;/b&gt;&lt;br&gt;DUF692 family protein&lt;br&gt;Location: 380165 - 381043&lt;br&gt;&lt;br&gt;&lt;b&gt;BlastP hit with MCIC6FC_019440&lt;/b&gt;&lt;br&gt;Percentage identity: 79&lt;br&gt;Percentage coverage: 46&lt;br&gt;BLAST bit score: 448&lt;br&gt;E-value: 1.5e-123" locus_tag="HDC32_RS13680" class="clusterblast-orf" id="dummy-1_h1_5_5"  />
</g>
<g id="a1_006"  >
<polygon points="52,90 55,90 60,85 55,80 52,80 52,90 " style="fill:#15d863; stroke-width:1; stroke:black; " description="&lt;b&gt;HDC32_RS13685&lt;/b&gt;&lt;br&gt;putative DNA-binding domain-containing protein&lt;br&gt;Location: 381040 - 381816&lt;br&gt;&lt;br&gt;&lt;b&gt;BlastP hit with MCIC6FC_019440&lt;/b&gt;&lt;br&gt;Percentage identity: 78&lt;br&gt;Percentage coverage: 39&lt;br&gt;BLAST bit score: 379&lt;br&gt;E-value: 8.5e-103" locus_tag="HDC32_RS13685" class="clusterblast-orf" id="dummy-1_h1_5_6"  />
</g>
<g id="a1_007"  >
<polygon points="60,90 60,90 65,85 60,80 60,80 60,90 " style="fill:#15d863; stroke-width:1; stroke:black; " description="&lt;b&gt;HDC32_RS13690&lt;/b&gt;&lt;br&gt;DoxX family membrane protein&lt;br&gt;Location: 381813 - 382298&lt;br&gt;&lt;br&gt;&lt;b&gt;BlastP hit with MCIC6FC_019440&lt;/b&gt;&lt;br&gt;Percentage identity: 87&lt;br&gt;Percentage coverage: 17&lt;br&gt;BLAST bit score: 181&lt;br&gt;E-value: 2e-43" locus_tag="HDC32_RS13690" class="clusterblast-orf" id="dummy-1_h1_5_7"  />
</g>
<g id="a1_008"  >
<polygon points="65,85 70,80 74,80 74,90 70,90 65,85 " style="fill:#1563d8; stroke-width:1; stroke:black; " description="&lt;b&gt;HDC32_RS13695&lt;/b&gt;&lt;br&gt;LysR family transcriptional regulator&lt;br&gt;Location: 382295 - 383203&lt;br&gt;&lt;br&gt;&lt;b&gt;BlastP hit with MCIC6FC_019441&lt;/b&gt;&lt;br&gt;Percentage identity: 95&lt;br&gt;Percentage coverage: 100&lt;br&gt;BLAST bit score: 567&lt;br&gt;E-value: 1.1e-159" locus_tag="HDC32_RS13695" class="clusterblast-orf" id="dummy-1_h1_5_8"  />
</g>
<g id="a1_009"  >
<polygon points="76,90 77,90 82,85 77,80 76,80 76,90 " style="fill:#b115d8; stroke-width:1; stroke:black; " description="&lt;b&gt;HDC32_RS13700&lt;/b&gt;&lt;br&gt;short chain dehydrogenase&lt;br&gt;Location: 383422 - 384021&lt;br&gt;&lt;br&gt;&lt;b&gt;BlastP hit with MCIC6FC_019442&lt;/b&gt;&lt;br&gt;Percentage identity: 91&lt;br&gt;Percentage coverage: 45&lt;br&gt;BLAST bit score: 345&lt;br&gt;E-value: 7.1e-93" locus_tag="HDC32_RS13700" class="clusterblast-orf" id="dummy-1_h1_5_9"  />
</g>
<g id="a1_0010"  >
<polygon points="83,90 85,90 90,85 85,80 83,80 83,90 " style="fill:#b115d8; stroke-width:1; stroke:black; " description="&lt;b&gt;HDC32_RS13705&lt;/b&gt;&lt;br&gt;hypothetical protein&lt;br&gt;Location: 384118 - 384789&lt;br&gt;&lt;br&gt;&lt;b&gt;BlastP hit with MCIC6FC_019442&lt;/b&gt;&lt;br&gt;Percentage identity: 92&lt;br&gt;Percentage coverage: 52&lt;br&gt;BLAST bit score: 421&lt;br&gt;E-value: 1e-115" locus_tag="HDC32_RS13705" class="clusterblast-orf" id="dummy-1_h1_5_10"  />
</g>
<g id="a1_0011"  >
<polygon points="91,90 103,90 108,85 103,80 91,80 91,90 " style="fill:#b1d815; stroke-width:1; stroke:black; " description="&lt;b&gt;HDC32_RS13710&lt;/b&gt;&lt;br&gt;NAD(P)/FAD-dependent oxidoreductase&lt;br&gt;Location: 384896 - 386509&lt;br&gt;&lt;br&gt;&lt;b&gt;BlastP hit with MCIC6FC_019443&lt;/b&gt;&lt;br&gt;Percentage identity: 98&lt;br&gt;Percentage coverage: 100&lt;br&gt;BLAST bit score: 1057&lt;br&gt;E-value: 6e-307" locus_tag="HDC32_RS13710" class="clusterblast-orf" id="dummy-1_h1_5_11"  />
</g>
<g id="a1_0012"  >
<polygon points="108,85 113,80 120,80 120,90 113,90 108,85 " style="fill:white; stroke-width:1; stroke:black; " description="&lt;b&gt;HDC32_RS13715&lt;/b&gt;&lt;br&gt;pyridoxal-phosphate dependent enzyme&lt;br&gt;Location: 386570 - 387664" locus_tag="HDC32_RS13715" class="clusterblast-orf" id="dummy-1_h1_5_12"  />
</g>
<g id="a1_0013"  >
<polygon points="122,90 129,90 134,85 129,80 122,80 122,90 " style="fill:white; stroke-width:1; stroke:black; " description="&lt;b&gt;HDC32_RS13720&lt;/b&gt;&lt;br&gt;Na+/H+ antiporter NhaA&lt;br&gt;Location: 387881 - 389056" locus_tag="HDC32_RS13720" class="clusterblast-orf" id="dummy-1_h1_5_13"  />
</g>
<g id="a1_0014"  >
<polygon points="135,85 140,80 140,80 140,90 140,90 135,85 " style="fill:white; stroke-width:1; stroke:black; " description="&lt;b&gt;HDC32_RS13725&lt;/b&gt;&lt;br&gt;glycine zipper 2TM domain-containing protein&lt;br&gt;Location: 389134 - 389598" locus_tag="HDC32_RS13725" class="clusterblast-orf" id="dummy-1_h1_5_14"  />
</g>
<g id="a1_0015"  >
<polygon points="141,90 144,85 141,80 141,90 " style="fill:white; stroke-width:1; stroke:black; " description="&lt;b&gt;HDC32_RS13730&lt;/b&gt;&lt;br&gt;hypothetical protein&lt;br&gt;Location: 389756 - 390016" locus_tag="HDC32_RS13730" class="clusterblast-orf" id="dummy-1_h1_5_15"  />
</g>
<g id="a1_0016"  >
<polygon points="144,85 149,80 151,80 151,90 149,90 144,85 " style="fill:white; stroke-width:1; stroke:black; " description="&lt;b&gt;HDC32_RS13735&lt;/b&gt;&lt;br&gt;pyridoxamine 5'-phosphate oxidase&lt;br&gt;Location: 390053 - 390700" locus_tag="HDC32_RS13735" class="clusterblast-orf" id="dummy-1_h1_5_16"  />
</g>
<g id="a1_0017"  >
<polygon points="151,85 156,80 163,80 163,90 156,90 151,85 " style="fill:white; stroke-width:1; stroke:black; " description="&lt;b&gt;HDC32_RS13740&lt;/b&gt;&lt;br&gt;OmpA family protein&lt;br&gt;Location: 390728 - 391891" locus_tag="HDC32_RS13740" class="clusterblast-orf" id="dummy-1_h1_5_17"  />
</g>
<g id="a1_0018"  >
<polygon points="165,85 170,80 176,80 176,90 170,90 165,85 " style="fill:white; stroke-width:1; stroke:black; " description="&lt;b&gt;HDC32_RS13745&lt;/b&gt;&lt;br&gt;beta-lactamase family protein&lt;br&gt;Location: 392035 - 393180" locus_tag="HDC32_RS13745" class="clusterblast-orf" id="dummy-1_h1_5_18"  />
</g>
<g id="a1_0019"  >
<polygon points="177,85 182,80 201,80 201,90 182,90 177,85 " style="fill:white; stroke-width:1; stroke:black; " description="&lt;b&gt;HDC32_RS13750&lt;/b&gt;&lt;br&gt;beta-galactosidase&lt;br&gt;Location: 393263 - 395560" locus_tag="HDC32_RS13750" class="clusterblast-orf" id="dummy-1_h1_5_19"  />
</g>
<g id="a1_0020"  >
<polygon points="202,85 207,80 224,80 224,90 207,90 202,85 " style="fill:white; stroke-width:1; stroke:black; " description="&lt;b&gt;HDC32_RS13755&lt;/b&gt;&lt;br&gt;ATP-dependent DNA helicase DinG&lt;br&gt;Location: 395659 - 397803" locus_tag="HDC32_RS13755" class="clusterblast-orf" id="dummy-1_h1_5_20"  />
</g>
<g id="a1_0021"  >
<polygon points="225,90 225,90 230,85 225,80 225,80 225,90 " style="fill:white; stroke-width:1; stroke:black; " description="&lt;b&gt;HDC32_RS13760&lt;/b&gt;&lt;br&gt;CopD family protein&lt;br&gt;Location: 397903 - 398367" locus_tag="HDC32_RS13760" class="clusterblast-orf" id="dummy-1_h1_5_21"  />
</g>
<g id="a1_0022"  >
<polygon points="230,85 235,80 238,80 238,90 235,90 230,85 " style="fill:white; stroke-width:1; stroke:black; " description="&lt;b&gt;HDC32_RS13765&lt;/b&gt;&lt;br&gt;collagen-like protein&lt;br&gt;Location: 398405 - 399163" locus_tag="HDC32_RS13765" class="clusterblast-orf" id="dummy-1_h1_5_22"  />
</g>
<g id="a1_0023"  >
<polygon points="240,85 245,80 247,80 247,90 245,90 240,85 " style="fill:white; stroke-width:1; stroke:black; " description="&lt;b&gt;HDC32_RS13770&lt;/b&gt;&lt;br&gt;OmpA family protein&lt;br&gt;Location: 399320 - 400015" locus_tag="HDC32_RS13770" class="clusterblast-orf" id="dummy-1_h1_5_23"  />
</g>
<g id="a1_0024"  >
<polygon points="249,90 249,90 254,85 249,80 249,80 249,90 " style="fill:white; stroke-width:1; stroke:black; " description="&lt;b&gt;HDC32_RS13775&lt;/b&gt;&lt;br&gt;hypothetical protein&lt;br&gt;Location: 400207 - 400704" locus_tag="HDC32_RS13775" class="clusterblast-orf" id="dummy-1_h1_5_24"  />
</g>
<g id="a1_0025"  >
<polygon points="257,85 262,80 271,80 271,90 262,90 257,85 " style="fill:white; stroke-width:1; stroke:black; " description="&lt;b&gt;HDC32_RS13780&lt;/b&gt;&lt;br&gt;diaminobutyrate--2-oxoglutarate transaminase&lt;br&gt;Location: 401007 - 402422" locus_tag="HDC32_RS13780" class="clusterblast-orf" id="dummy-1_h1_5_25"  />
</g>
<g id="a1_0026"  >
<polygon points="273,85 275,80 275,90 273,85 " style="fill:white; stroke-width:1; stroke:black; " description="&lt;b&gt;HDC32_RS13785&lt;/b&gt;&lt;br&gt;MbtH family NRPS accessory protein&lt;br&gt;Location: 402603 - 402818" locus_tag="HDC32_RS13785" class="clusterblast-orf" id="dummy-1_h1_5_26"  />
</g>
<g id="a1_0027"  >
<polygon points="278,90 281,90 286,85 281,80 278,80 278,90 " style="fill:white; stroke-width:1; stroke:black; " description="&lt;b&gt;HDC32_RS13790&lt;/b&gt;&lt;br&gt;siderophore-iron reductase FhuF&lt;br&gt;Location: 403111 - 403836" locus_tag="HDC32_RS13790" class="clusterblast-orf" id="dummy-1_h1_5_27"  />
</g>
<g id="a1_0028"  >
<polygon points="286,85 291,80 303,80 303,90 291,90 286,85 " style="fill:white; stroke-width:1; stroke:black; " description="&lt;b&gt;HDC32_RS13795&lt;/b&gt;&lt;br&gt;cyclic peptide export ABC transporter&lt;br&gt;Location: 403851 - 405494" locus_tag="HDC32_RS13795" class="clusterblast-orf" id="dummy-1_h1_5_28"  />
</g>
<g id="a1_0029"  >
<polygon points="303,85 308,80 342,80 342,90 308,90 303,85 " style="fill:white; stroke-width:1; stroke:black; " description="&lt;b&gt;HDC32_RS13800&lt;/b&gt;&lt;br&gt;amino acid adenylation domain-containing protein&lt;br&gt;Location: 405494 - 409276" locus_tag="HDC32_RS13800" class="clusterblast-orf" id="dummy-1_h1_5_29"  />
</g>
<g id="a1_0030"  >
<polygon points="342,85 347,80 435,80 435,90 347,90 342,85 " style="fill:white; stroke-width:1; stroke:black; " description="&lt;b&gt;HDC32_RS13805&lt;/b&gt;&lt;br&gt;amino acid adenylation domain-containing protein&lt;br&gt;Location: 409273 - 418302" locus_tag="HDC32_RS13805" class="clusterblast-orf" id="dummy-1_h1_5_30"  />
</g>
<g id="a1_0031"  >
<polygon points="435,85 440,80 532,80 532,90 440,90 435,85 " style="fill:white; stroke-width:1; stroke:black; " description="&lt;b&gt;HDC32_RS13810&lt;/b&gt;&lt;br&gt;amino acid adenylation domain-containing protein&lt;br&gt;Location: 418305 - 427781" locus_tag="HDC32_RS13810" class="clusterblast-orf" id="dummy-1_h1_5_31"  />
</g>
<g id="a1_0032"  >
<polygon points="533,85 538,80 582,80 582,90 538,90 533,85 " style="fill:white; stroke-width:1; stroke:black; " description="&lt;b&gt;HDC32_RS13815&lt;/b&gt;&lt;br&gt;AMP-binding protein&lt;br&gt;Location: 427832 - 432637" locus_tag="HDC32_RS13815" class="clusterblast-orf" id="dummy-1_h1_5_32"  />
</g>
<g id="a1_0033"  >
<polygon points="583,85 588,80 593,80 593,90 588,90 583,85 " style="fill:white; stroke-width:1; stroke:black; " description="&lt;b&gt;HDC32_RS13820&lt;/b&gt;&lt;br&gt;TauD/TfdA family dioxygenase&lt;br&gt;Location: 432705 - 433697" locus_tag="HDC32_RS13820" class="clusterblast-orf" id="dummy-1_h1_5_33"  />
</g>
<g id="a1_0034"  >
<polygon points="595,85 600,80 604,80 604,90 600,90 595,85 " style="fill:white; stroke-width:1; stroke:black; " description="&lt;b&gt;HDC32_RS13825&lt;/b&gt;&lt;br&gt;ABC transporter substrate-binding protein&lt;br&gt;Location: 433892 - 434827" locus_tag="HDC32_RS13825" class="clusterblast-orf" id="dummy-1_h1_5_34"  />
</g>
<g id="a1_0035"  >
<polygon points="605,85 610,80 615,80 615,90 610,90 605,85 " style="fill:white; stroke-width:1; stroke:black; " description="&lt;b&gt;HDC32_RS13830&lt;/b&gt;&lt;br&gt;iron chelate uptake ABC transporter family permease subunit&lt;br&gt;Location: 434859 - 435899" locus_tag="HDC32_RS13830" class="clusterblast-orf" id="dummy-1_h1_5_35"  />
</g>
<g id="a1_0036"  >
<polygon points="615,85 620,80 626,80 626,90 620,90 615,85 " style="fill:white; stroke-width:1; stroke:black; " description="&lt;b&gt;HDC32_RS13835&lt;/b&gt;&lt;br&gt;iron chelate uptake ABC transporter family permease subunit&lt;br&gt;Location: 435896 - 436879" locus_tag="HDC32_RS13835" class="clusterblast-orf" id="dummy-1_h1_5_36"  />
</g>
<g id="a1_0037"  >
<polygon points="625,85 630,80 634,80 634,90 630,90 625,85 " style="fill:white; stroke-width:1; stroke:black; " description="&lt;b&gt;HDC32_RS13840&lt;/b&gt;&lt;br&gt;ATP-binding cassette domain-containing protein&lt;br&gt;Location: 436876 - 437682" locus_tag="HDC32_RS13840" class="clusterblast-orf" id="dummy-1_h1_5_37"  />
</g>
<g id="a1_0038"  >
<polygon points="638,90 655,90 660,85 655,80 638,80 638,90 " style="fill:white; stroke-width:1; stroke:black; " description="&lt;b&gt;HDC32_RS13845&lt;/b&gt;&lt;br&gt;TonB-dependent siderophore receptor&lt;br&gt;Location: 438092 - 440236" locus_tag="HDC32_RS13845" class="clusterblast-orf" id="dummy-1_h1_5_38"  />
</g>
<g id="a1_0039"  >
<polygon points="667,90 667,90 672,85 667,80 667,80 667,90 " style="fill:white; stroke-width:1; stroke:black; " description="&lt;b&gt;HDC32_RS13850&lt;/b&gt;&lt;br&gt;YchJ family protein&lt;br&gt;Location: 440891 - 441361" locus_tag="HDC32_RS13850" class="clusterblast-orf" id="dummy-1_h1_5_39"  />
</g>
<g id="a1_0040"  >
<polygon points="672,90 672,90 677,85 672,80 672,80 672,90 " style="fill:white; stroke-width:1; stroke:black; " description="&lt;b&gt;HDC32_RS13855&lt;/b&gt;&lt;br&gt;LEA type 2 family protein&lt;br&gt;Location: 441385 - 441867" locus_tag="HDC32_RS13855" class="clusterblast-orf" id="dummy-1_h1_5_40"  />
</g>
<g id="a1_0041"  >
<polygon points="677,90 679,85 677,80 677,90 " style="fill:white; stroke-width:1; stroke:black; " description="&lt;b&gt;HDC32_RS13860&lt;/b&gt;&lt;br&gt;SEC-C domain-containing protein&lt;br&gt;Location: 441864 - 442064" locus_tag="HDC32_RS13860" class="clusterblast-orf" id="dummy-1_h1_5_41"  />
</g>
<g id="a1_0042"  >
<polygon points="681,90 701,90 706,85 701,80 681,80 681,90 " style="fill:white; stroke-width:1; stroke:black; " description="&lt;b&gt;HDC32_RS13865&lt;/b&gt;&lt;br&gt;penicillin acylase family protein&lt;br&gt;Location: 442231 - 444672" locus_tag="HDC32_RS13865" class="clusterblast-orf" id="dummy-1_h1_5_42"  />
</g>
<g id="a1_0043"  >
<polygon points="707,90 712,90 717,85 712,80 707,80 707,90 " style="fill:white; stroke-width:1; stroke:black; " description="&lt;b&gt;HDC32_RS13870&lt;/b&gt;&lt;br&gt;ligase-associated DNA damage response exonuclease&lt;br&gt;Location: 444813 - 445817" locus_tag="HDC32_RS13870" class="clusterblast-orf" id="dummy-1_h1_5_43"  />
</g>
<g id="a1_0044"  >
<polygon points="717,90 729,90 734,85 729,80 717,80 717,90 " style="fill:white; stroke-width:1; stroke:black; " description="&lt;b&gt;HDC32_RS13875&lt;/b&gt;&lt;br&gt;ATP-dependent DNA ligase&lt;br&gt;Location: 445814 - 447448" locus_tag="HDC32_RS13875" class="clusterblast-orf" id="dummy-1_h1_5_44"  />
</g>
<g id="a1_0045"  >
<polygon points="737,90 740,90 745,85 740,80 737,80 737,90 " style="fill:white; stroke-width:1; stroke:black; " description="&lt;b&gt;HDC32_RS13880&lt;/b&gt;&lt;br&gt;transporter substrate-binding domain-containing protein&lt;br&gt;Location: 447683 - 448462" locus_tag="HDC32_RS13880" class="clusterblast-orf" id="dummy-1_h1_5_45"  />
</g>
<g id="a1_0046"  >
<polygon points="745,90 748,90 753,85 748,80 745,80 745,90 " style="fill:white; stroke-width:1; stroke:black; " description="&lt;b&gt;HDC32_RS13885&lt;/b&gt;&lt;br&gt;ABC transporter permease&lt;br&gt;Location: 448520 - 449248" locus_tag="HDC32_RS13885" class="clusterblast-orf" id="dummy-1_h1_5_46"  />
</g>
<g id="a1_0047"  >
<polygon points="753,90 755,90 760,85 755,80 753,80 753,90 " style="fill:white; stroke-width:1; stroke:black; " description="&lt;b&gt;HDC32_RS13890&lt;/b&gt;&lt;br&gt;ABC transporter permease&lt;br&gt;Location: 449245 - 449955" locus_tag="HDC32_RS13890" class="clusterblast-orf" id="dummy-1_h1_5_47"  />
</g>
<g id="a1_0048"  >
<polygon points="760,90 767,90 772,85 767,80 760,80 760,90 " style="fill:white; stroke-width:1; stroke:black; " description="&lt;b&gt;HDC32_RS13895&lt;/b&gt;&lt;br&gt;succinylglutamate desuccinylase/aspartoacylase family protein&lt;br&gt;Location: 449965 - 451083" locus_tag="HDC32_RS13895" class="clusterblast-orf" id="dummy-1_h1_5_48"  />
</g>
<g id="a1_0049"  >
<polygon points="772,90 775,90 780,85 775,80 772,80 772,90 " style="fill:white; stroke-width:1; stroke:black; " description="&lt;b&gt;HDC32_RS13900&lt;/b&gt;&lt;br&gt;ATP-binding cassette domain-containing protein&lt;br&gt;Location: 451097 - 451861" locus_tag="HDC32_RS13900" class="clusterblast-orf" id="dummy-1_h1_5_49"  />
</g>
</svg>
