<svg xmlns="http://www.w3.org/2000/svg" xmlns:xlink="http://www.w3.org/1999/xlink" version="1.1" x="0" y="0" height="230" width="800" viewBox="0 0 800 230" preserveAspectRatio="none"  >
<g label="Query sequence" class="clusterblast-cluster"  >
<text x="5" y="20" class="clusterblast-acc"  >
Query sequence</text>
<line x1="10" y1="35" x2="778.0" y2="35" style="stroke-width:1; stroke:grey; "  />
<polygon points="0,40 112,40 117,35 112,30 0,30 0,40 " style="fill:#d81515; stroke-width:1; stroke:black; " description="&lt;b&gt;MCIC6FC_019652&lt;/b&gt;&lt;br&gt;hypothetical protein&lt;br&gt;Location: 118749 - 120664" locus_tag="MCIC6FC_019652" class="clusterblast-orf" id="dummy-1_q0_0_all"  />
<polygon points="145,40 533,40 538,35 533,30 145,30 145,40 " style="fill:#15d815; stroke-width:1; stroke:black; " description="&lt;b&gt;MCIC6FC_019653&lt;/b&gt;&lt;br&gt;hypothetical protein&lt;br&gt;Location: 121128 - 127587" locus_tag="MCIC6FC_019653" class="clusterblast-orf" id="dummy-1_q1_0_all"  />
<polygon points="556,40 775,40 780,35 775,30 556,30 556,40 " style="fill:#1515d8; stroke-width:1; stroke:black; " description="&lt;b&gt;MCIC6FC_019654&lt;/b&gt;&lt;br&gt;hypothetical protein&lt;br&gt;Location: 127885 - 131565" locus_tag="MCIC6FC_019654" class="clusterblast-orf" id="dummy-1_q2_0_all"  />
</g>
<g label="NZ_MSCO01000002" description="NZ_MSCO01000002 (1151149-1162827): Aliivibrio sifiae strain ATCC 33715 scaffo... (42% of genes show similarity), siderophore" class="clusterblast-cluster"  >
<text x="5" y="70" class="clusterblast-acc"  >
<a xlink:href="https://antismash-db.secondarymetabolites.org/area.html?record=NZ_MSCO01000002&amp;start=1151149&amp;end=1162827" target="_blank">NZ_MSCO01000002 (1151149-1162827)</a>: Aliivibrio sifiae strain ATCC 33715 scaffo... (42% of genes show similarity), siderophore</text>
<line x1="10" y1="85" x2="778.0" y2="85" style="stroke-width:1; stroke:grey; "  />
</g>
<g id="a1_000"  >
<polygon points="34,90 111,90 116,85 111,80 34,80 34,90 " style="fill:white; stroke-width:1; stroke:black; " description="&lt;b&gt;BTO22_RS16155&lt;/b&gt;&lt;br&gt;heavy metal sensor histidine kinase&lt;br&gt;Location: 1151150 - 1152487" locus_tag="BTO22_RS16155" class="clusterblast-orf" id="dummy-1_h1_8_0"  />
</g>
<g id="a1_001"  >
<polygon points="139,90 228,90 233,85 228,80 139,80 139,90 " style="fill:#d81515; stroke-width:1; stroke:black; " description="&lt;b&gt;BTO22_RS16160&lt;/b&gt;&lt;br&gt;aminotransferase class V-fold PLP-dependent enzyme&lt;br&gt;Location: 1152875 - 1154422&lt;br&gt;&lt;br&gt;&lt;b&gt;BlastP hit with MCIC6FC_019652&lt;/b&gt;&lt;br&gt;Percentage identity: 40&lt;br&gt;Percentage coverage: 73&lt;br&gt;BLAST bit score: 215&lt;br&gt;E-value: 1.3e-53" locus_tag="BTO22_RS16160" class="clusterblast-orf" id="dummy-1_h1_8_1"  />
</g>
<g id="a1_002"  >
<polygon points="234,90 310,90 315,85 310,80 234,80 234,90 " style="fill:#15d815; stroke-width:1; stroke:black; " description="&lt;b&gt;BTO22_RS16165&lt;/b&gt;&lt;br&gt;SidA/IucD/PvdA family monooxygenase&lt;br&gt;Location: 1154440 - 1155765&lt;br&gt;&lt;br&gt;&lt;b&gt;BlastP hit with MCIC6FC_019653&lt;/b&gt;&lt;br&gt;Percentage identity: 42&lt;br&gt;Percentage coverage: 28&lt;br&gt;BLAST bit score: 321&lt;br&gt;E-value: 6.2e-85" locus_tag="BTO22_RS16165" class="clusterblast-orf" id="dummy-1_h1_8_2"  />
</g>
<g id="a1_003"  >
<polygon points="316,90 460,90 465,85 460,80 316,80 316,90 " style="fill:white; stroke-width:1; stroke:black; " description="&lt;b&gt;BTO22_RS16170&lt;/b&gt;&lt;br&gt;GNAT family N-acetyltransferase&lt;br&gt;Location: 1155778 - 1158237" locus_tag="BTO22_RS16170" class="clusterblast-orf" id="dummy-1_h1_8_3"  />
</g>
<g id="a1_004"  >
<polygon points="467,90 593,90 598,85 593,80 467,80 467,90 " style="fill:#1515d8; stroke-width:1; stroke:black; " description="&lt;b&gt;BTO22_RS16175&lt;/b&gt;&lt;br&gt;TonB-dependent siderophore receptor&lt;br&gt;Location: 1158261 - 1160420&lt;br&gt;&lt;br&gt;&lt;b&gt;BlastP hit with MCIC6FC_019654&lt;/b&gt;&lt;br&gt;Percentage identity: 33&lt;br&gt;Percentage coverage: 28&lt;br&gt;BLAST bit score: 59&lt;br&gt;E-value: 1.1e-06" locus_tag="BTO22_RS16175" class="clusterblast-orf" id="dummy-1_h1_8_4"  />
</g>
<g id="a1_005"  >
<polygon points="606,85 611,80 669,80 669,90 611,90 606,85 " style="fill:white; stroke-width:1; stroke:black; " description="&lt;b&gt;BTO22_RS16180&lt;/b&gt;&lt;br&gt;NAD-binding protein&lt;br&gt;Location: 1160539 - 1161585" locus_tag="BTO22_RS16180" class="clusterblast-orf" id="dummy-1_h1_8_5"  />
</g>
<g id="a1_006"  >
<polygon points="674,85 679,80 745,80 745,90 679,90 674,85 " style="fill:white; stroke-width:1; stroke:black; " description="&lt;b&gt;BTO22_RS16185&lt;/b&gt;&lt;br&gt;glyceraldehyde-3-phosphate dehydrogenase&lt;br&gt;Location: 1161667 - 1162827" locus_tag="BTO22_RS16185" class="clusterblast-orf" id="dummy-1_h1_8_6"  />
</g>
</svg>
