<svg xmlns="http://www.w3.org/2000/svg" xmlns:xlink="http://www.w3.org/1999/xlink" version="1.1" x="0" y="0" height="230" width="800" viewBox="0 0 800 230" preserveAspectRatio="none"  >
<g label="Query sequence" class="clusterblast-cluster"  >
<text x="5" y="20" class="clusterblast-acc"  >
Query sequence</text>
<line x1="10" y1="35" x2="778.0" y2="35" style="stroke-width:1; stroke:grey; "  />
<polygon points="25,40 33,40 38,35 33,30 25,30 25,40 " style="fill:#d81515; stroke-width:1; stroke:black; " description="&lt;b&gt;MCIC6FC_007376&lt;/b&gt;&lt;br&gt;hypothetical protein&lt;br&gt;Location: 474120 - 475205" locus_tag="MCIC6FC_007376" class="clusterblast-orf" id="dummy-1_q0_0_all"  />
<polygon points="42,35 47,30 91,30 91,40 47,40 42,35 " style="fill:#67d815; stroke-width:1; stroke:black; " description="&lt;b&gt;MCIC6FC_007377&lt;/b&gt;&lt;br&gt;hypothetical protein&lt;br&gt;Location: 475594 - 479870" locus_tag="MCIC6FC_007377" class="clusterblast-orf" id="dummy-1_q1_0_all"  />
<polygon points="92,40 142,40 147,35 142,30 92,30 92,40 " style="fill:#15b9d8; stroke-width:1; stroke:black; " description="&lt;b&gt;MCIC6FC_007378&lt;/b&gt;&lt;br&gt;hypothetical protein&lt;br&gt;Location: 479964 - 484887" locus_tag="MCIC6FC_007378" class="clusterblast-orf" id="dummy-1_q2_0_all"  />
<polygon points="150,40 159,40 164,35 159,30 150,30 150,40 " style="fill:#a515d8; stroke-width:1; stroke:black; " description="&lt;b&gt;MCIC6FC_007379&lt;/b&gt;&lt;br&gt;hypothetical protein&lt;br&gt;Location: 485105 - 486335" locus_tag="MCIC6FC_007379" class="clusterblast-orf" id="dummy-1_q3_0_all"  />
<polygon points="164,40 186,40 191,35 186,30 164,30 164,40 " style="fill:#d85315; stroke-width:1; stroke:black; " description="&lt;b&gt;MCIC6FC_007380&lt;/b&gt;&lt;br&gt;hypothetical protein&lt;br&gt;Location: 486382 - 488704" locus_tag="MCIC6FC_007380" class="clusterblast-orf" id="dummy-1_q4_0_all"  />
<polygon points="191,40 193,40 198,35 193,30 191,30 191,40 " style="fill:#2ad815; stroke-width:1; stroke:black; " description="&lt;b&gt;MCIC6FC_007381&lt;/b&gt;&lt;br&gt;hypothetical protein&lt;br&gt;Location: 488771 - 489344" locus_tag="MCIC6FC_007381" class="clusterblast-orf" id="dummy-1_q5_0_all"  />
<polygon points="198,40 208,40 213,35 208,30 198,30 198,40 " style="fill:#157cd8; stroke-width:1; stroke:black; " description="&lt;b&gt;MCIC6FC_007382&lt;/b&gt;&lt;br&gt;hypothetical protein&lt;br&gt;Location: 489369 - 490725" locus_tag="MCIC6FC_007382" class="clusterblast-orf" id="dummy-1_q6_0_all"  />
<polygon points="214,35 219,30 220,30 220,40 219,40 214,35 " style="fill:#d815ce; stroke-width:1; stroke:black; " description="&lt;b&gt;MCIC6FC_007383&lt;/b&gt;&lt;br&gt;hypothetical protein&lt;br&gt;Location: 490732 - 491308" locus_tag="MCIC6FC_007383" class="clusterblast-orf" id="dummy-1_q7_0_all"  />
<polygon points="222,40 225,35 222,30 222,40 " style="fill:#d89015; stroke-width:1; stroke:black; " description="&lt;b&gt;MCIC6FC_007384&lt;/b&gt;&lt;br&gt;hypothetical protein&lt;br&gt;Location: 491449 - 491764" locus_tag="MCIC6FC_007384" class="clusterblast-orf" id="dummy-1_q8_0_all"  />
<polygon points="226,40 230,40 235,35 230,30 226,30 226,40 " style="fill:#d89015; stroke-width:1; stroke:black; " description="&lt;b&gt;MCIC6FC_007385&lt;/b&gt;&lt;br&gt;hypothetical protein&lt;br&gt;Location: 491806 - 492622" locus_tag="MCIC6FC_007385" class="clusterblast-orf" id="dummy-1_q9_0_all"  />
<polygon points="235,40 532,40 537,35 532,30 235,30 235,40 " style="fill:#15d83e; stroke-width:1; stroke:black; " description="&lt;b&gt;MCIC6FC_007386&lt;/b&gt;&lt;br&gt;hypothetical protein&lt;br&gt;Location: 492655 - 519348" locus_tag="MCIC6FC_007386" class="clusterblast-orf" id="dummy-1_q10_0_all"  />
<polygon points="541,35 546,30 568,30 568,40 546,40 541,35 " style="fill:#153ed8; stroke-width:1; stroke:black; " description="&lt;b&gt;MCIC6FC_007387&lt;/b&gt;&lt;br&gt;hypothetical protein&lt;br&gt;Location: 519638 - 522035" locus_tag="MCIC6FC_007387" class="clusterblast-orf" id="dummy-1_q11_0_all"  />
<polygon points="570,35 575,30 588,30 588,40 575,40 570,35 " style="fill:#d81590; stroke-width:1; stroke:black; " description="&lt;b&gt;MCIC6FC_007388&lt;/b&gt;&lt;br&gt;hypothetical protein&lt;br&gt;Location: 522189 - 523842" locus_tag="MCIC6FC_007388" class="clusterblast-orf" id="dummy-1_q12_0_all"  />
<polygon points="590,40 595,40 600,35 595,30 590,30 590,40 " style="fill:#d8ce15; stroke-width:1; stroke:black; " description="&lt;b&gt;MCIC6FC_007389&lt;/b&gt;&lt;br&gt;hypothetical protein&lt;br&gt;Location: 524041 - 524869" locus_tag="MCIC6FC_007389" class="clusterblast-orf" id="dummy-1_q13_0_all"  />
<polygon points="608,35 613,30 648,30 648,40 613,40 608,35 " style="fill:#15d87c; stroke-width:1; stroke:black; " description="&lt;b&gt;MCIC6FC_007390&lt;/b&gt;&lt;br&gt;hypothetical protein&lt;br&gt;Location: 525562 - 529119" locus_tag="MCIC6FC_007390" class="clusterblast-orf" id="dummy-1_q14_0_all"  />
<polygon points="650,40 663,40 668,35 663,30 650,30 650,40 " style="fill:#2a15d8; stroke-width:1; stroke:black; " description="&lt;b&gt;MCIC6FC_007391&lt;/b&gt;&lt;br&gt;hypothetical protein&lt;br&gt;Location: 529255 - 530864" locus_tag="MCIC6FC_007391" class="clusterblast-orf" id="dummy-1_q15_0_all"  />
<polygon points="668,35 673,30 678,30 678,40 673,40 668,35 " style="fill:#d81553; stroke-width:1; stroke:black; " description="&lt;b&gt;MCIC6FC_007392&lt;/b&gt;&lt;br&gt;hypothetical protein&lt;br&gt;Location: 530867 - 531816" locus_tag="MCIC6FC_007392" class="clusterblast-orf" id="dummy-1_q16_0_all"  />
<polygon points="680,40 706,40 711,35 706,30 680,30 680,40 " style="fill:#a5d815; stroke-width:1; stroke:black; " description="&lt;b&gt;MCIC6FC_007393&lt;/b&gt;&lt;br&gt;hypothetical protein&lt;br&gt;Location: 531961 - 534689" locus_tag="MCIC6FC_007393" class="clusterblast-orf" id="dummy-1_q17_0_all"  />
<polygon points="711,40 718,40 723,35 718,30 711,30 711,40 " style="fill:#15d8b9; stroke-width:1; stroke:black; " description="&lt;b&gt;MCIC6FC_007394&lt;/b&gt;&lt;br&gt;hypothetical protein&lt;br&gt;Location: 534721 - 535791" locus_tag="MCIC6FC_007394" class="clusterblast-orf" id="dummy-1_q18_0_all"  />
<polygon points="724,40 749,40 754,35 749,30 724,30 724,40 " style="fill:#6715d8; stroke-width:1; stroke:black; " description="&lt;b&gt;MCIC6FC_007395&lt;/b&gt;&lt;br&gt;hypothetical protein&lt;br&gt;Location: 535825 - 538463" locus_tag="MCIC6FC_007395" class="clusterblast-orf" id="dummy-1_q19_0_all"  />
</g>
<g label="NZ_JACAQL010000001" description="NZ_JACAQL010000001 (49386-118604): Pseudomonas sp. IPO3747 IPO 3747 S30 L002 ... (56% of genes show similarity), NRPS" class="clusterblast-cluster"  >
<text x="5" y="70" class="clusterblast-acc"  >
<a xlink:href="https://antismash-db.secondarymetabolites.org/area.html?record=NZ_JACAQL010000001&amp;start=49386&amp;end=118604" target="_blank">NZ_JACAQL010000001 (49386-118604)</a>: Pseudomonas sp. IPO3747 IPO 3747 S30 L002 ... (56% of genes show similarity), NRPS</text>
<line x1="10" y1="85" x2="778.0" y2="85" style="stroke-width:1; stroke:grey; "  />
</g>
<g id="a1_000"  >
<polygon points="0,90 3,85 0,80 0,90 " style="fill:white; stroke-width:1; stroke:black; " description="&lt;b&gt;HX790_RS00410&lt;/b&gt;&lt;br&gt;hypothetical protein&lt;br&gt;Location: 118566 - 118231" locus_tag="HX790_RS00410" class="clusterblast-orf" id="dummy-1_h1_8_0"  />
</g>
<g id="a1_001"  >
<polygon points="7,85 12,80 19,80 19,90 12,90 7,85 " style="fill:white; stroke-width:1; stroke:black; " description="&lt;b&gt;HX790_RS00405&lt;/b&gt;&lt;br&gt;purine nucleoside permease&lt;br&gt;Location: 117901 - 116873" locus_tag="HX790_RS00405" class="clusterblast-orf" id="dummy-1_h1_8_1"  />
</g>
<g id="a1_002"  >
<polygon points="19,85 24,80 30,80 30,90 24,90 19,85 " style="fill:white; stroke-width:1; stroke:black; " description="&lt;b&gt;HX790_RS00400&lt;/b&gt;&lt;br&gt;nucleoside-specific channel-forming protein Tsx&lt;br&gt;Location: 116858 - 115896" locus_tag="HX790_RS00400" class="clusterblast-orf" id="dummy-1_h1_8_2"  />
</g>
<g id="a1_003"  >
<polygon points="31,85 36,80 42,80 42,90 36,90 31,85 " style="fill:white; stroke-width:1; stroke:black; " description="&lt;b&gt;HX790_RS00395&lt;/b&gt;&lt;br&gt;helix-turn-helix domain-containing protein&lt;br&gt;Location: 115740 - 114802" locus_tag="HX790_RS00395" class="clusterblast-orf" id="dummy-1_h1_8_3"  />
</g>
<g id="a1_004"  >
<polygon points="44,90 54,90 59,85 54,80 44,80 44,90 " style="fill:white; stroke-width:1; stroke:black; " description="&lt;b&gt;HX790_RS00390&lt;/b&gt;&lt;br&gt;sugar ABC transporter substrate-binding protein&lt;br&gt;Location: 114593 - 113283" locus_tag="HX790_RS00390" class="clusterblast-orf" id="dummy-1_h1_8_4"  />
</g>
<g id="a1_005"  >
<polygon points="59,90 63,90 68,85 63,80 59,80 59,90 " style="fill:white; stroke-width:1; stroke:black; " description="&lt;b&gt;HX790_RS00385&lt;/b&gt;&lt;br&gt;L-iditol 2-dehydrogenase&lt;br&gt;Location: 113269 - 112496" locus_tag="HX790_RS00385" class="clusterblast-orf" id="dummy-1_h1_8_5"  />
</g>
<g id="a1_006"  >
<polygon points="71,90 73,90 78,85 73,80 71,80 71,90 " style="fill:white; stroke-width:1; stroke:black; " description="&lt;b&gt;HX790_RS00380&lt;/b&gt;&lt;br&gt;nicotinamidase&lt;br&gt;Location: 112286 - 111639" locus_tag="HX790_RS00380" class="clusterblast-orf" id="dummy-1_h1_8_6"  />
</g>
<g id="a1_007"  >
<polygon points="80,90 84,85 80,80 80,90 " style="fill:white; stroke-width:1; stroke:black; " description="&lt;b&gt;HX790_RS00375&lt;/b&gt;&lt;br&gt;hypothetical protein&lt;br&gt;Location: 111426 - 111070" locus_tag="HX790_RS00375" class="clusterblast-orf" id="dummy-1_h1_8_7"  />
</g>
<g id="a1_008"  >
<polygon points="85,85 90,80 96,80 96,90 90,90 85,85 " style="fill:white; stroke-width:1; stroke:black; " description="&lt;b&gt;HX790_RS00370&lt;/b&gt;&lt;br&gt;ABC transporter substrate-binding protein&lt;br&gt;Location: 111030 - 109999" locus_tag="HX790_RS00370" class="clusterblast-orf" id="dummy-1_h1_8_8"  />
</g>
<g id="a1_009"  >
<polygon points="97,85 102,80 109,80 109,90 102,90 97,85 " style="fill:white; stroke-width:1; stroke:black; " description="&lt;b&gt;HX790_RS00365&lt;/b&gt;&lt;br&gt;FAD-binding oxidoreductase&lt;br&gt;Location: 109986 - 108889" locus_tag="HX790_RS00365" class="clusterblast-orf" id="dummy-1_h1_8_9"  />
</g>
<g id="a1_0010"  >
<polygon points="109,85 114,80 124,80 124,90 114,90 109,85 " style="fill:white; stroke-width:1; stroke:black; " description="&lt;b&gt;HX790_RS00360&lt;/b&gt;&lt;br&gt;FAD-dependent oxidoreductase&lt;br&gt;Location: 108892 - 107549" locus_tag="HX790_RS00360" class="clusterblast-orf" id="dummy-1_h1_8_10"  />
</g>
<g id="a1_0011"  >
<polygon points="124,85 127,80 127,90 124,85 " style="fill:white; stroke-width:1; stroke:black; " description="&lt;b&gt;HX790_RS00355&lt;/b&gt;&lt;br&gt;(2Fe-2S)-binding protein&lt;br&gt;Location: 107552 - 107262" locus_tag="HX790_RS00355" class="clusterblast-orf" id="dummy-1_h1_8_11"  />
</g>
<g id="a1_0012"  >
<polygon points="127,85 132,80 136,80 136,90 132,90 127,85 " style="fill:white; stroke-width:1; stroke:black; " description="&lt;b&gt;HX790_RS00350&lt;/b&gt;&lt;br&gt;ABC transporter permease&lt;br&gt;Location: 107262 - 106468" locus_tag="HX790_RS00350" class="clusterblast-orf" id="dummy-1_h1_8_12"  />
</g>
<g id="a1_0013"  >
<polygon points="136,85 141,80 146,80 146,90 141,90 136,85 " style="fill:white; stroke-width:1; stroke:black; " description="&lt;b&gt;HX790_RS00345&lt;/b&gt;&lt;br&gt;ABC transporter permease&lt;br&gt;Location: 106463 - 105618" locus_tag="HX790_RS00345" class="clusterblast-orf" id="dummy-1_h1_8_13"  />
</g>
<g id="a1_0014"  >
<polygon points="146,85 151,80 158,80 158,90 151,90 146,85 " style="fill:#15b9d8; stroke-width:1; stroke:black; " description="&lt;b&gt;HX790_RS00340&lt;/b&gt;&lt;br&gt;ABC transporter ATP-binding protein&lt;br&gt;Location: 105621 - 104593&lt;br&gt;&lt;br&gt;&lt;b&gt;BlastP hit with MCIC6FC_007378&lt;/b&gt;&lt;br&gt;Percentage identity: 32&lt;br&gt;Percentage coverage: 15&lt;br&gt;BLAST bit score: 103&lt;br&gt;E-value: 2.2e-19" locus_tag="HX790_RS00340" class="clusterblast-orf" id="dummy-1_h1_8_14"  />
</g>
<g id="a1_0015"  >
<polygon points="160,90 165,90 170,85 165,80 160,80 160,90 " style="fill:#d81515; stroke-width:1; stroke:black; " description="&lt;b&gt;HX790_RS00335&lt;/b&gt;&lt;br&gt;IclR family transcriptional regulator&lt;br&gt;Location: 104350 - 103520&lt;br&gt;&lt;br&gt;&lt;b&gt;BlastP hit with MCIC6FC_007376&lt;/b&gt;&lt;br&gt;Percentage identity: 96&lt;br&gt;Percentage coverage: 87&lt;br&gt;BLAST bit score: 507&lt;br&gt;E-value: 1.4e-141" locus_tag="HX790_RS00335" class="clusterblast-orf" id="dummy-1_h1_8_15"  />
</g>
<g id="a1_0016"  >
<polygon points="173,90 174,90 179,85 174,80 173,80 173,90 " style="fill:#2ad815; stroke-width:1; stroke:black; " description="&lt;b&gt;HX790_RS00330&lt;/b&gt;&lt;br&gt;DUF2239 family protein&lt;br&gt;Location: 103271 - 102699&lt;br&gt;&lt;br&gt;&lt;b&gt;BlastP hit with MCIC6FC_007381&lt;/b&gt;&lt;br&gt;Percentage identity: 79&lt;br&gt;Percentage coverage: 99&lt;br&gt;BLAST bit score: 302&lt;br&gt;E-value: 3.1e-80" locus_tag="HX790_RS00330" class="clusterblast-orf" id="dummy-1_h1_8_16"  />
</g>
<g id="a1_0017"  >
<polygon points="179,90 190,90 195,85 190,80 179,80 179,90 " style="fill:#157cd8; stroke-width:1; stroke:black; " description="&lt;b&gt;HX790_RS00325&lt;/b&gt;&lt;br&gt;MATE family efflux transporter&lt;br&gt;Location: 102673 - 101318&lt;br&gt;&lt;br&gt;&lt;b&gt;BlastP hit with MCIC6FC_007382&lt;/b&gt;&lt;br&gt;Percentage identity: 96&lt;br&gt;Percentage coverage: 100&lt;br&gt;BLAST bit score: 804&lt;br&gt;E-value: 5.9e-231" locus_tag="HX790_RS00325" class="clusterblast-orf" id="dummy-1_h1_8_17"  />
</g>
<g id="a1_0018"  >
<polygon points="195,85 200,80 201,80 201,90 200,90 195,85 " style="fill:#d815ce; stroke-width:1; stroke:black; " description="&lt;b&gt;HX790_RS00320&lt;/b&gt;&lt;br&gt;TetR/AcrR family transcriptional regulator&lt;br&gt;Location: 101334 - 100741&lt;br&gt;&lt;br&gt;&lt;b&gt;BlastP hit with MCIC6FC_007383&lt;/b&gt;&lt;br&gt;Percentage identity: 85&lt;br&gt;Percentage coverage: 100&lt;br&gt;BLAST bit score: 317&lt;br&gt;E-value: 9.3e-85" locus_tag="HX790_RS00320" class="clusterblast-orf" id="dummy-1_h1_8_18"  />
</g>
<g id="a1_0019"  >
<polygon points="203,90 211,90 216,85 211,80 203,80 203,90 " style="fill:#d89015; stroke-width:1; stroke:black; " description="&lt;b&gt;HX790_RS00315&lt;/b&gt;&lt;br&gt;MFS transporter&lt;br&gt;Location: 100599 - 99394&lt;br&gt;&lt;br&gt;&lt;b&gt;BlastP hit with MCIC6FC_007384&lt;/b&gt;&lt;br&gt;Percentage identity: 91&lt;br&gt;Percentage coverage: 100&lt;br&gt;BLAST bit score: 169&lt;br&gt;E-value: 1.7e-40&lt;br&gt;&lt;br&gt;&lt;b&gt;BlastP hit with MCIC6FC_007385&lt;/b&gt;&lt;br&gt;Percentage identity: 95&lt;br&gt;Percentage coverage: 100&lt;br&gt;BLAST bit score: 484&lt;br&gt;E-value: 8.1e-135" locus_tag="HX790_RS00315" class="clusterblast-orf" id="dummy-1_h1_8_19"  />
</g>
<g id="a1_0020"  >
<polygon points="216,85 220,80 220,90 216,85 " style="fill:white; stroke-width:1; stroke:black; " description="&lt;b&gt;HX790_RS00310&lt;/b&gt;&lt;br&gt;type II toxin-antitoxin system HicB family antitoxin&lt;br&gt;Location: 99427 - 99062" locus_tag="HX790_RS00310" class="clusterblast-orf" id="dummy-1_h1_8_20"  />
</g>
<g id="a1_0021"  >
<polygon points="220,85 223,80 223,90 220,85 " style="fill:white; stroke-width:1; stroke:black; " description="&lt;b&gt;HX790_RS00305&lt;/b&gt;&lt;br&gt;type II toxin-antitoxin system HicA family toxin&lt;br&gt;Location: 99077 - 98814" locus_tag="HX790_RS00305" class="clusterblast-orf" id="dummy-1_h1_8_21"  />
</g>
<g id="a1_0022"  >
<polygon points="225,90 345,90 350,85 345,80 225,80 225,90 " style="fill:#15d83e; stroke-width:1; stroke:black; " description="&lt;b&gt;HX790_RS00300&lt;/b&gt;&lt;br&gt;non-ribosomal peptide synthetase&lt;br&gt;Location: 98604 - 87589&lt;br&gt;&lt;br&gt;&lt;b&gt;BlastP hit with MCIC6FC_007386&lt;/b&gt;&lt;br&gt;Percentage identity: 68&lt;br&gt;Percentage coverage: 39&lt;br&gt;BLAST bit score: 4287&lt;br&gt;E-value: 0.0" locus_tag="HX790_RS00300" class="clusterblast-orf" id="dummy-1_h1_8_22"  />
</g>
<g id="a1_0023"  >
<polygon points="350,90 433,90 438,85 433,80 350,80 350,90 " style="fill:#15d83e; stroke-width:1; stroke:black; " description="&lt;b&gt;HX790_RS00295&lt;/b&gt;&lt;br&gt;amino acid adenylation domain-containing protein&lt;br&gt;Location: 87585 - 79804&lt;br&gt;&lt;br&gt;&lt;b&gt;BlastP hit with MCIC6FC_007386&lt;/b&gt;&lt;br&gt;Percentage identity: 62&lt;br&gt;Percentage coverage: 29&lt;br&gt;BLAST bit score: 3020&lt;br&gt;E-value: 0.0" locus_tag="HX790_RS00295" class="clusterblast-orf" id="dummy-1_h1_8_23"  />
</g>
<g id="a1_0024"  >
<polygon points="439,90 551,90 556,85 551,80 439,80 439,90 " style="fill:#15d83e; stroke-width:1; stroke:black; " description="&lt;b&gt;HX790_RS00290&lt;/b&gt;&lt;br&gt;amino acid adenylation domain-containing protein&lt;br&gt;Location: 79730 - 69387&lt;br&gt;&lt;br&gt;&lt;b&gt;BlastP hit with MCIC6FC_007386&lt;/b&gt;&lt;br&gt;Percentage identity: 60&lt;br&gt;Percentage coverage: 45&lt;br&gt;BLAST bit score: 4325&lt;br&gt;E-value: 0.0" locus_tag="HX790_RS00290" class="clusterblast-orf" id="dummy-1_h1_8_24"  />
</g>
<g id="a1_0025"  >
<polygon points="558,85 563,80 585,80 585,90 563,90 558,85 " style="fill:#153ed8; stroke-width:1; stroke:black; " description="&lt;b&gt;HX790_RS00285&lt;/b&gt;&lt;br&gt;TonB-dependent siderophore receptor&lt;br&gt;Location: 69251 - 66873&lt;br&gt;&lt;br&gt;&lt;b&gt;BlastP hit with MCIC6FC_007387&lt;/b&gt;&lt;br&gt;Percentage identity: 62&lt;br&gt;Percentage coverage: 100&lt;br&gt;BLAST bit score: 997&lt;br&gt;E-value: 8.4e-289" locus_tag="HX790_RS00285" class="clusterblast-orf" id="dummy-1_h1_8_25"  />
</g>
<g id="a1_0026"  >
<polygon points="586,85 591,80 605,80 605,90 591,90 586,85 " style="fill:#d81590; stroke-width:1; stroke:black; " description="&lt;b&gt;HX790_RS00280&lt;/b&gt;&lt;br&gt;cyclic peptide export ABC transporter&lt;br&gt;Location: 66718 - 65066&lt;br&gt;&lt;br&gt;&lt;b&gt;BlastP hit with MCIC6FC_007388&lt;/b&gt;&lt;br&gt;Percentage identity: 91&lt;br&gt;Percentage coverage: 100&lt;br&gt;BLAST bit score: 984&lt;br&gt;E-value: 3.9e-285" locus_tag="HX790_RS00280" class="clusterblast-orf" id="dummy-1_h1_8_26"  />
</g>
<g id="a1_0027"  >
<polygon points="607,90 612,90 617,85 612,80 607,80 607,90 " style="fill:#d8ce15; stroke-width:1; stroke:black; " description="&lt;b&gt;HX790_RS00275&lt;/b&gt;&lt;br&gt;N(5)-hydroxyornithine transformylase PvdF&lt;br&gt;Location: 64864 - 64037&lt;br&gt;&lt;br&gt;&lt;b&gt;BlastP hit with MCIC6FC_007389&lt;/b&gt;&lt;br&gt;Percentage identity: 96&lt;br&gt;Percentage coverage: 100&lt;br&gt;BLAST bit score: 547&lt;br&gt;E-value: 7.9e-154" locus_tag="HX790_RS00275" class="clusterblast-orf" id="dummy-1_h1_8_27"  />
</g>
<g id="a1_0028"  >
<polygon points="618,85 623,80 628,80 628,90 623,90 618,85 " style="fill:#15d87c; stroke-width:1; stroke:black; " description="&lt;b&gt;HX790_RS00270&lt;/b&gt;&lt;br&gt;formylglycine-generating enzyme family protein&lt;br&gt;Location: 63920 - 63048&lt;br&gt;&lt;br&gt;&lt;b&gt;BlastP hit with MCIC6FC_007390&lt;/b&gt;&lt;br&gt;Percentage identity: 93&lt;br&gt;Percentage coverage: 25&lt;br&gt;BLAST bit score: 583&lt;br&gt;E-value: 4.2e-164" locus_tag="HX790_RS00270" class="clusterblast-orf" id="dummy-1_h1_8_28"  />
</g>
<g id="a1_0029"  >
<polygon points="628,85 633,80 643,80 643,90 633,90 628,85 " style="fill:#15d87c; stroke-width:1; stroke:black; " description="&lt;b&gt;HX790_RS00265&lt;/b&gt;&lt;br&gt;aminotransferase class V-fold PLP-dependent enzyme&lt;br&gt;Location: 63014 - 61734&lt;br&gt;&lt;br&gt;&lt;b&gt;BlastP hit with MCIC6FC_007390&lt;/b&gt;&lt;br&gt;Percentage identity: 89&lt;br&gt;Percentage coverage: 36&lt;br&gt;BLAST bit score: 759&lt;br&gt;E-value: 4.2e-217" locus_tag="HX790_RS00265" class="clusterblast-orf" id="dummy-1_h1_8_29"  />
</g>
<g id="a1_0030"  >
<polygon points="643,85 648,80 658,80 658,90 648,90 643,85 " style="fill:#15d87c; stroke-width:1; stroke:black; " description="&lt;b&gt;HX790_RS00260&lt;/b&gt;&lt;br&gt;pyoverdine-tailoring dipeptidase-like protein PvdM&lt;br&gt;Location: 61715 - 60366&lt;br&gt;&lt;br&gt;&lt;b&gt;BlastP hit with MCIC6FC_007390&lt;/b&gt;&lt;br&gt;Percentage identity: 97&lt;br&gt;Percentage coverage: 38&lt;br&gt;BLAST bit score: 881&lt;br&gt;E-value: 9.7e-254" locus_tag="HX790_RS00260" class="clusterblast-orf" id="dummy-1_h1_8_30"  />
</g>
<g id="a1_0031"  >
<polygon points="660,90 673,90 678,85 673,80 660,80 660,90 " style="fill:#2a15d8; stroke-width:1; stroke:black; " description="&lt;b&gt;HX790_RS00255&lt;/b&gt;&lt;br&gt;hypothetical protein&lt;br&gt;Location: 60223 - 58610&lt;br&gt;&lt;br&gt;&lt;b&gt;BlastP hit with MCIC6FC_007391&lt;/b&gt;&lt;br&gt;Percentage identity: 96&lt;br&gt;Percentage coverage: 99&lt;br&gt;BLAST bit score: 1050&lt;br&gt;E-value: 4.2e-305" locus_tag="HX790_RS00255" class="clusterblast-orf" id="dummy-1_h1_8_31"  />
</g>
<g id="a1_0032"  >
<polygon points="678,85 683,80 689,80 689,90 683,90 678,85 " style="fill:#d81553; stroke-width:1; stroke:black; " description="&lt;b&gt;HX790_RS00250&lt;/b&gt;&lt;br&gt;DUF1853 family protein&lt;br&gt;Location: 58617 - 57670&lt;br&gt;&lt;br&gt;&lt;b&gt;BlastP hit with MCIC6FC_007392&lt;/b&gt;&lt;br&gt;Percentage identity: 87&lt;br&gt;Percentage coverage: 103&lt;br&gt;BLAST bit score: 576&lt;br&gt;E-value: 1.4e-162" locus_tag="HX790_RS00250" class="clusterblast-orf" id="dummy-1_h1_8_32"  />
</g>
<g id="a1_0033"  >
<polygon points="690,90 695,90 700,85 695,80 690,80 690,90 " style="fill:#a5d815; stroke-width:1; stroke:black; " description="&lt;b&gt;HX790_RS00245&lt;/b&gt;&lt;br&gt;NAD(+) kinase&lt;br&gt;Location: 57525 - 56635&lt;br&gt;&lt;br&gt;&lt;b&gt;BlastP hit with MCIC6FC_007393&lt;/b&gt;&lt;br&gt;Percentage identity: 100&lt;br&gt;Percentage coverage: 31&lt;br&gt;BLAST bit score: 564&lt;br&gt;E-value: 1.6e-158" locus_tag="HX790_RS00245" class="clusterblast-orf" id="dummy-1_h1_8_33"  />
</g>
<g id="a1_0034"  >
<polygon points="700,90 706,90 711,85 706,80 700,80 700,90 " style="fill:#a5d815; stroke-width:1; stroke:black; " description="&lt;b&gt;HX790_RS00240&lt;/b&gt;&lt;br&gt;metallophosphoesterase&lt;br&gt;Location: 56635 - 55664&lt;br&gt;&lt;br&gt;&lt;b&gt;BlastP hit with MCIC6FC_007393&lt;/b&gt;&lt;br&gt;Percentage identity: 97&lt;br&gt;Percentage coverage: 35&lt;br&gt;BLAST bit score: 665&lt;br&gt;E-value: 6.5e-189" locus_tag="HX790_RS00240" class="clusterblast-orf" id="dummy-1_h1_8_34"  />
</g>
<g id="a1_0035"  >
<polygon points="711,90 716,90 721,85 716,80 711,80 711,90 " style="fill:#a5d815; stroke-width:1; stroke:black; " description="&lt;b&gt;HX790_RS00235&lt;/b&gt;&lt;br&gt;rhomboid family intramembrane serine protease&lt;br&gt;Location: 55667 - 54798&lt;br&gt;&lt;br&gt;&lt;b&gt;BlastP hit with MCIC6FC_007393&lt;/b&gt;&lt;br&gt;Percentage identity: 95&lt;br&gt;Percentage coverage: 33&lt;br&gt;BLAST bit score: 552&lt;br&gt;E-value: 1e-154" locus_tag="HX790_RS00235" class="clusterblast-orf" id="dummy-1_h1_8_35"  />
</g>
<g id="a1_0036"  >
<polygon points="721,90 724,85 721,80 721,90 " style="fill:#15d8b9; stroke-width:1; stroke:black; " description="&lt;b&gt;HX790_RS00230&lt;/b&gt;&lt;br&gt;DUF1315 family protein&lt;br&gt;Location: 54783 - 54523&lt;br&gt;&lt;br&gt;&lt;b&gt;BlastP hit with MCIC6FC_007394&lt;/b&gt;&lt;br&gt;Percentage identity: 100&lt;br&gt;Percentage coverage: 22&lt;br&gt;BLAST bit score: 153&lt;br&gt;E-value: 4.1e-35" locus_tag="HX790_RS00230" class="clusterblast-orf" id="dummy-1_h1_8_36"  />
</g>
<g id="a1_0037"  >
<polygon points="724,90 729,90 734,85 729,80 724,80 724,90 " style="fill:#15d8b9; stroke-width:1; stroke:black; " description="&lt;b&gt;HX790_RS00225&lt;/b&gt;&lt;br&gt;DUF2797 domain-containing protein&lt;br&gt;Location: 54526 - 53696&lt;br&gt;&lt;br&gt;&lt;b&gt;BlastP hit with MCIC6FC_007394&lt;/b&gt;&lt;br&gt;Percentage identity: 95&lt;br&gt;Percentage coverage: 78&lt;br&gt;BLAST bit score: 533&lt;br&gt;E-value: 1.9e-149" locus_tag="HX790_RS00225" class="clusterblast-orf" id="dummy-1_h1_8_37"  />
</g>
<g id="a1_0038"  >
<polygon points="734,90 759,90 764,85 759,80 734,80 734,90 " style="fill:#6715d8; stroke-width:1; stroke:black; " description="&lt;b&gt;HX790_RS00220&lt;/b&gt;&lt;br&gt;aminopeptidase N&lt;br&gt;Location: 53681 - 51024&lt;br&gt;&lt;br&gt;&lt;b&gt;BlastP hit with MCIC6FC_007395&lt;/b&gt;&lt;br&gt;Percentage identity: 94&lt;br&gt;Percentage coverage: 103&lt;br&gt;BLAST bit score: 1632&lt;br&gt;E-value: 0.0" locus_tag="HX790_RS00220" class="clusterblast-orf" id="dummy-1_h1_8_38"  />
</g>
<g id="a1_0039"  >
<polygon points="767,85 770,80 770,90 767,85 " style="fill:white; stroke-width:1; stroke:black; " description="&lt;b&gt;HX790_RS00215&lt;/b&gt;&lt;br&gt;aldo/keto reductase&lt;br&gt;Location: 50768 - 50463" locus_tag="HX790_RS00215" class="clusterblast-orf" id="dummy-1_h1_8_39"  />
</g>
<g id="a1_0040"  >
<polygon points="771,90 775,90 780,85 775,80 771,80 771,90 " style="fill:white; stroke-width:1; stroke:black; " description="&lt;b&gt;HX790_RS00210&lt;/b&gt;&lt;br&gt;HTH domain-containing protein&lt;br&gt;Location: 50364 - 49648" locus_tag="HX790_RS00210" class="clusterblast-orf" id="dummy-1_h1_8_40"  />
</g>
</svg>
