<svg xmlns="http://www.w3.org/2000/svg" xmlns:xlink="http://www.w3.org/1999/xlink" version="1.1" x="0" y="0" height="230" width="800" viewBox="0 0 800 230" preserveAspectRatio="none"  >
<g label="Query sequence" class="clusterblast-cluster"  >
<text x="5" y="20" class="clusterblast-acc"  >
Query sequence</text>
<line x1="10" y1="35" x2="778.0" y2="35" style="stroke-width:1; stroke:grey; "  />
<polygon points="6,35 11,30 21,30 21,40 11,40 6,35 " style="fill:#d81515; stroke-width:1; stroke:black; " description="&lt;b&gt;MCIC6FC_007887&lt;/b&gt;&lt;br&gt;hypothetical protein&lt;br&gt;Location: 1618687 - 1619925" locus_tag="MCIC6FC_007887" class="clusterblast-orf" id="dummy-6_q0_0_all"  />
<polygon points="22,35 27,30 44,30 44,40 27,40 22,35 " style="fill:#4dd815; stroke-width:1; stroke:black; " description="&lt;b&gt;MCIC6FC_007888&lt;/b&gt;&lt;br&gt;hypothetical protein&lt;br&gt;Location: 1619941 - 1621734" locus_tag="MCIC6FC_007888" class="clusterblast-orf" id="dummy-6_q1_0_all"  />
<polygon points="45,35 50,30 59,30 59,40 50,40 45,35 " style="fill:#15bcd8; stroke-width:1; stroke:black; " description="&lt;b&gt;MCIC6FC_007889&lt;/b&gt;&lt;br&gt;hypothetical protein&lt;br&gt;Location: 1621784 - 1622873" locus_tag="MCIC6FC_007889" class="clusterblast-orf" id="dummy-6_q2_0_all"  />
<polygon points="59,35 64,30 76,30 76,40 64,40 59,35 " style="fill:#8515d8; stroke-width:1; stroke:black; " description="&lt;b&gt;MCIC6FC_007890&lt;/b&gt;&lt;br&gt;hypothetical protein&lt;br&gt;Location: 1622896 - 1624255" locus_tag="MCIC6FC_007890" class="clusterblast-orf" id="dummy-6_q3_0_all"  />
<polygon points="78,40 84,40 89,35 84,30 78,30 78,40 " style="fill:#d84d15; stroke-width:1; stroke:black; " description="&lt;b&gt;MCIC6FC_007891&lt;/b&gt;&lt;br&gt;hypothetical protein&lt;br&gt;Location: 1624394 - 1625291" locus_tag="MCIC6FC_007891" class="clusterblast-orf" id="dummy-6_q4_0_all"  />
<polygon points="90,40 113,40 118,35 113,30 90,30 90,40 " style="fill:#15d815; stroke-width:1; stroke:black; " description="&lt;b&gt;MCIC6FC_007892&lt;/b&gt;&lt;br&gt;hypothetical protein&lt;br&gt;Location: 1625391 - 1627551" locus_tag="MCIC6FC_007892" class="clusterblast-orf" id="dummy-6_q5_0_all"  />
<polygon points="118,35 123,30 132,30 132,40 123,40 118,35 " style="fill:#1585d8; stroke-width:1; stroke:black; " description="&lt;b&gt;MCIC6FC_007893&lt;/b&gt;&lt;br&gt;hypothetical protein&lt;br&gt;Location: 1627593 - 1628671" locus_tag="MCIC6FC_007893" class="clusterblast-orf" id="dummy-6_q6_0_all"  />
<polygon points="133,40 137,40 142,35 137,30 133,30 133,40 " style="fill:#bc15d8; stroke-width:1; stroke:black; " description="&lt;b&gt;MCIC6FC_007894&lt;/b&gt;&lt;br&gt;hypothetical protein&lt;br&gt;Location: 1628768 - 1629501" locus_tag="MCIC6FC_007894" class="clusterblast-orf" id="dummy-6_q7_0_all"  />
<polygon points="143,35 148,30 148,30 148,40 148,40 143,35 " style="fill:#d88515; stroke-width:1; stroke:black; " description="&lt;b&gt;MCIC6FC_007895&lt;/b&gt;&lt;br&gt;hypothetical protein&lt;br&gt;Location: 1629543 - 1629981" locus_tag="MCIC6FC_007895" class="clusterblast-orf" id="dummy-6_q8_0_all"  />
<polygon points="150,35 155,30 156,30 156,40 155,40 150,35 " style="fill:#15d84d; stroke-width:1; stroke:black; " description="&lt;b&gt;MCIC6FC_007896&lt;/b&gt;&lt;br&gt;hypothetical protein&lt;br&gt;Location: 1630103 - 1630574" locus_tag="MCIC6FC_007896" class="clusterblast-orf" id="dummy-6_q9_0_all"  />
<polygon points="157,40 168,40 173,35 168,30 157,30 157,40 " style="fill:#154dd8; stroke-width:1; stroke:black; " description="&lt;b&gt;MCIC6FC_007897&lt;/b&gt;&lt;br&gt;hypothetical protein&lt;br&gt;Location: 1630697 - 1631945" locus_tag="MCIC6FC_007897" class="clusterblast-orf" id="dummy-6_q10_0_all"  />
<polygon points="176,40 180,40 185,35 180,30 176,30 176,40 " style="fill:#d815bc; stroke-width:1; stroke:black; " description="&lt;b&gt;MCIC6FC_007898&lt;/b&gt;&lt;br&gt;hypothetical protein&lt;br&gt;Location: 1632165 - 1632855" locus_tag="MCIC6FC_007898" class="clusterblast-orf" id="dummy-6_q11_0_all"  />
<polygon points="185,35 190,30 224,30 224,40 190,40 185,35 " style="fill:#d8bc15; stroke-width:1; stroke:black; " description="&lt;b&gt;MCIC6FC_007899&lt;/b&gt;&lt;br&gt;hypothetical protein&lt;br&gt;Location: 1632911 - 1635995" locus_tag="MCIC6FC_007899" class="clusterblast-orf" id="dummy-6_q12_0_all"  />
<polygon points="231,35 236,30 537,30 537,40 236,40 231,35 " style="fill:#15d885; stroke-width:1; stroke:black; " description="&lt;b&gt;MCIC6FC_007900&lt;/b&gt;&lt;br&gt;hypothetical protein&lt;br&gt;Location: 1636549 - 1660777" locus_tag="MCIC6FC_007900" class="clusterblast-orf" id="dummy-6_q13_0_all"  />
<polygon points="540,35 545,30 561,30 561,40 545,40 540,35 " style="fill:#1515d8; stroke-width:1; stroke:black; " description="&lt;b&gt;MCIC6FC_007901&lt;/b&gt;&lt;br&gt;hypothetical protein&lt;br&gt;Location: 1660996 - 1662651" locus_tag="MCIC6FC_007901" class="clusterblast-orf" id="dummy-6_q14_0_all"  />
<polygon points="564,35 569,30 625,30 625,40 569,40 564,35 " style="fill:#1515d8; stroke-width:1; stroke:black; " description="&lt;b&gt;MCIC6FC_007902&lt;/b&gt;&lt;br&gt;hypothetical protein&lt;br&gt;Location: 1662893 - 1667726" locus_tag="MCIC6FC_007902" class="clusterblast-orf" id="dummy-6_q15_0_all"  />
<polygon points="644,40 656,40 661,35 656,30 644,30 644,40 " style="fill:#d81585; stroke-width:1; stroke:black; " description="&lt;b&gt;MCIC6FC_007903&lt;/b&gt;&lt;br&gt;hypothetical protein&lt;br&gt;Location: 1669225 - 1670522" locus_tag="MCIC6FC_007903" class="clusterblast-orf" id="dummy-6_q16_0_all"  />
<polygon points="661,40 666,40 671,35 666,30 661,30 661,40 " style="fill:#bcd815; stroke-width:1; stroke:black; " description="&lt;b&gt;MCIC6FC_007904&lt;/b&gt;&lt;br&gt;hypothetical protein&lt;br&gt;Location: 1670591 - 1671338" locus_tag="MCIC6FC_007904" class="clusterblast-orf" id="dummy-6_q17_0_all"  />
<polygon points="674,35 679,30 681,30 681,40 679,40 674,35 " style="fill:#15d8bc; stroke-width:1; stroke:black; " description="&lt;b&gt;MCIC6FC_007905&lt;/b&gt;&lt;br&gt;hypothetical protein&lt;br&gt;Location: 1671548 - 1672133" locus_tag="MCIC6FC_007905" class="clusterblast-orf" id="dummy-6_q18_0_all"  />
<polygon points="682,35 687,30 695,30 695,40 687,40 682,35 " style="fill:#4d15d8; stroke-width:1; stroke:black; " description="&lt;b&gt;MCIC6FC_007906&lt;/b&gt;&lt;br&gt;hypothetical protein&lt;br&gt;Location: 1672192 - 1673215" locus_tag="MCIC6FC_007906" class="clusterblast-orf" id="dummy-6_q19_0_all"  />
<polygon points="695,35 700,30 725,30 725,40 700,40 695,35 " style="fill:#d8154d; stroke-width:1; stroke:black; " description="&lt;b&gt;MCIC6FC_007907&lt;/b&gt;&lt;br&gt;hypothetical protein&lt;br&gt;Location: 1673279 - 1675586" locus_tag="MCIC6FC_007907" class="clusterblast-orf" id="dummy-6_q20_0_all"  />
<polygon points="727,40 768,40 773,35 768,30 727,30 727,40 " style="fill:#85d815; stroke-width:1; stroke:black; " description="&lt;b&gt;MCIC6FC_007908&lt;/b&gt;&lt;br&gt;hypothetical protein&lt;br&gt;Location: 1675751 - 1679462" locus_tag="MCIC6FC_007908" class="clusterblast-orf" id="dummy-6_q21_0_all"  />
</g>
<g label="NZ_LT907842" description="NZ_LT907842 (4859474-4921220): Pseudomonas fluorescens strain ATCC 13525 chro... (87% of genes show similarity), NRPS" class="clusterblast-cluster"  >
<text x="5" y="70" class="clusterblast-acc"  >
<a xlink:href="https://antismash-db.secondarymetabolites.org/area.html?record=NZ_LT907842&amp;start=4859474&amp;end=4921220" target="_blank">NZ_LT907842 (4859474-4921220)</a>: Pseudomonas fluorescens strain ATCC 13525 chro... (87% of genes show similarity), NRPS</text>
<line x1="10" y1="85" x2="778.0" y2="85" style="stroke-width:1; stroke:grey; "  />
</g>
<g id="a6_000"  >
<polygon points="0,90 3,90 8,85 3,80 0,80 0,90 " style="fill:white; stroke-width:1; stroke:black; " description="&lt;b&gt;CPH89_RS22930&lt;/b&gt;&lt;br&gt;response regulator transcription factor&lt;br&gt;Location: 4921220 - 4920537" locus_tag="CPH89_RS22930" class="clusterblast-orf" id="dummy-6_h6_7_0"  />
</g>
<g id="a6_001"  >
<polygon points="8,90 20,90 25,85 20,80 8,80 8,90 " style="fill:white; stroke-width:1; stroke:black; " description="&lt;b&gt;CPH89_RS22925&lt;/b&gt;&lt;br&gt;HAMP domain-containing histidine kinase&lt;br&gt;Location: 4920559 - 4919168" locus_tag="CPH89_RS22925" class="clusterblast-orf" id="dummy-6_h6_7_1"  />
</g>
<g id="a6_002"  >
<polygon points="27,85 32,80 32,80 32,90 32,90 27,85 " style="fill:#d81515; stroke-width:1; stroke:black; " description="&lt;b&gt;CPH89_RS22920&lt;/b&gt;&lt;br&gt;SRPBCC family protein&lt;br&gt;Location: 4919035 - 4918619&lt;br&gt;&lt;br&gt;&lt;b&gt;BlastP hit with MCIC6FC_007887&lt;/b&gt;&lt;br&gt;Percentage identity: 92&lt;br&gt;Percentage coverage: 34&lt;br&gt;BLAST bit score: 248&lt;br&gt;E-value: 1.1e-63" locus_tag="CPH89_RS22920" class="clusterblast-orf" id="dummy-6_h6_7_2"  />
</g>
<g id="a6_003"  >
<polygon points="33,85 38,80 43,80 43,90 38,90 33,85 " style="fill:#d81515; stroke-width:1; stroke:black; " description="&lt;b&gt;CPH89_RS22915&lt;/b&gt;&lt;br&gt;SDR family oxidoreductase&lt;br&gt;Location: 4918591 - 4917794&lt;br&gt;&lt;br&gt;&lt;b&gt;BlastP hit with MCIC6FC_007887&lt;/b&gt;&lt;br&gt;Percentage identity: 95&lt;br&gt;Percentage coverage: 66&lt;br&gt;BLAST bit score: 461&lt;br&gt;E-value: 1.1e-127" locus_tag="CPH89_RS22915" class="clusterblast-orf" id="dummy-6_h6_7_3"  />
</g>
<g id="a6_004"  >
<polygon points="43,85 46,80 46,90 43,85 " style="fill:#4dd815; stroke-width:1; stroke:black; " description="&lt;b&gt;CPH89_RS22910&lt;/b&gt;&lt;br&gt;aldo/keto reductase&lt;br&gt;Location: 4917778 - 4917551&lt;br&gt;&lt;br&gt;&lt;b&gt;BlastP hit with MCIC6FC_007888&lt;/b&gt;&lt;br&gt;Percentage identity: 91&lt;br&gt;Percentage coverage: 14&lt;br&gt;BLAST bit score: 124&lt;br&gt;E-value: 3.2e-26" locus_tag="CPH89_RS22910" class="clusterblast-orf" id="dummy-6_h6_7_4"  />
</g>
<g id="a6_005"  >
<polygon points="46,90 48,90 53,85 48,80 46,80 46,90 " style="fill:white; stroke-width:1; stroke:black; " description="&lt;b&gt;CPH89_RS22905&lt;/b&gt;&lt;br&gt;hypothetical protein&lt;br&gt;Location: 4917543 - 4917017" locus_tag="CPH89_RS22905" class="clusterblast-orf" id="dummy-6_h6_7_5"  />
</g>
<g id="a6_006"  >
<polygon points="54,85 59,80 70,80 70,90 59,90 54,85 " style="fill:#4dd815; stroke-width:1; stroke:black; " description="&lt;b&gt;CPH89_RS22900&lt;/b&gt;&lt;br&gt;FAD-binding oxidoreductase&lt;br&gt;Location: 4916903 - 4915608&lt;br&gt;&lt;br&gt;&lt;b&gt;BlastP hit with MCIC6FC_007888&lt;/b&gt;&lt;br&gt;Percentage identity: 95&lt;br&gt;Percentage coverage: 78&lt;br&gt;BLAST bit score: 796&lt;br&gt;E-value: 1.4e-228" locus_tag="CPH89_RS22900" class="clusterblast-orf" id="dummy-6_h6_7_6"  />
</g>
<g id="a6_007"  >
<polygon points="70,85 75,80 84,80 84,90 75,90 70,85 " style="fill:#15bcd8; stroke-width:1; stroke:black; " description="&lt;b&gt;CPH89_RS22895&lt;/b&gt;&lt;br&gt;polyamine ABC transporter substrate-binding protein&lt;br&gt;Location: 4915611 - 4914523&lt;br&gt;&lt;br&gt;&lt;b&gt;BlastP hit with MCIC6FC_007889&lt;/b&gt;&lt;br&gt;Percentage identity: 98&lt;br&gt;Percentage coverage: 100&lt;br&gt;BLAST bit score: 723&lt;br&gt;E-value: 1.1e-206" locus_tag="CPH89_RS22895" class="clusterblast-orf" id="dummy-6_h6_7_7"  />
</g>
<g id="a6_008"  >
<polygon points="84,85 89,80 102,80 102,90 89,90 84,85 " style="fill:#8515d8; stroke-width:1; stroke:black; " description="&lt;b&gt;CPH89_RS22890&lt;/b&gt;&lt;br&gt;glutamine synthetase&lt;br&gt;Location: 4914500 - 4913142&lt;br&gt;&lt;br&gt;&lt;b&gt;BlastP hit with MCIC6FC_007890&lt;/b&gt;&lt;br&gt;Percentage identity: 99&lt;br&gt;Percentage coverage: 100&lt;br&gt;BLAST bit score: 923&lt;br&gt;E-value: 8.8e-267" locus_tag="CPH89_RS22890" class="clusterblast-orf" id="dummy-6_h6_7_8"  />
</g>
<g id="a6_009"  >
<polygon points="103,90 110,90 115,85 110,80 103,80 103,90 " style="fill:#d84d15; stroke-width:1; stroke:black; " description="&lt;b&gt;CPH89_RS22885&lt;/b&gt;&lt;br&gt;helix-turn-helix domain-containing protein&lt;br&gt;Location: 4913003 - 4912107&lt;br&gt;&lt;br&gt;&lt;b&gt;BlastP hit with MCIC6FC_007891&lt;/b&gt;&lt;br&gt;Percentage identity: 96&lt;br&gt;Percentage coverage: 99&lt;br&gt;BLAST bit score: 580&lt;br&gt;E-value: 1.2e-163" locus_tag="CPH89_RS22885" class="clusterblast-orf" id="dummy-6_h6_7_9"  />
</g>
<g id="a6_0010"  >
<polygon points="116,90 138,90 143,85 138,80 116,80 116,90 " style="fill:#15d815; stroke-width:1; stroke:black; " description="&lt;b&gt;CPH89_RS22880&lt;/b&gt;&lt;br&gt;TonB-dependent siderophore receptor&lt;br&gt;Location: 4912001 - 4909860&lt;br&gt;&lt;br&gt;&lt;b&gt;BlastP hit with MCIC6FC_007892&lt;/b&gt;&lt;br&gt;Percentage identity: 90&lt;br&gt;Percentage coverage: 100&lt;br&gt;BLAST bit score: 1300&lt;br&gt;E-value: 0.0" locus_tag="CPH89_RS22880" class="clusterblast-orf" id="dummy-6_h6_7_10"  />
</g>
<g id="a6_0011"  >
<polygon points="143,85 148,80 157,80 157,90 148,90 143,85 " style="fill:#1585d8; stroke-width:1; stroke:black; " description="&lt;b&gt;CPH89_RS22875&lt;/b&gt;&lt;br&gt;MFS transporter&lt;br&gt;Location: 4909870 - 4908740&lt;br&gt;&lt;br&gt;&lt;b&gt;BlastP hit with MCIC6FC_007893&lt;/b&gt;&lt;br&gt;Percentage identity: 87&lt;br&gt;Percentage coverage: 99&lt;br&gt;BLAST bit score: 562&lt;br&gt;E-value: 3.9e-158" locus_tag="CPH89_RS22875" class="clusterblast-orf" id="dummy-6_h6_7_11"  />
</g>
<g id="a6_0012"  >
<polygon points="158,90 163,90 168,85 163,80 158,80 158,90 " style="fill:#bc15d8; stroke-width:1; stroke:black; " description="&lt;b&gt;CPH89_RS22870&lt;/b&gt;&lt;br&gt;helix-turn-helix transcriptional regulator&lt;br&gt;Location: 4908641 - 4907871&lt;br&gt;&lt;br&gt;&lt;b&gt;BlastP hit with MCIC6FC_007894&lt;/b&gt;&lt;br&gt;Percentage identity: 89&lt;br&gt;Percentage coverage: 100&lt;br&gt;BLAST bit score: 418&lt;br&gt;E-value: 3.5e-115" locus_tag="CPH89_RS22870" class="clusterblast-orf" id="dummy-6_h6_7_12"  />
</g>
<g id="a6_0013"  >
<polygon points="169,85 174,80 175,80 175,90 174,90 169,85 " style="fill:#15d84d; stroke-width:1; stroke:black; " description="&lt;b&gt;CPH89_RS22865&lt;/b&gt;&lt;br&gt;Lrp/AsnC family transcriptional regulator&lt;br&gt;Location: 4907792 - 4907322&lt;br&gt;&lt;br&gt;&lt;b&gt;BlastP hit with MCIC6FC_007896&lt;/b&gt;&lt;br&gt;Percentage identity: 97&lt;br&gt;Percentage coverage: 100&lt;br&gt;BLAST bit score: 302&lt;br&gt;E-value: 1.9e-80" locus_tag="CPH89_RS22865" class="clusterblast-orf" id="dummy-6_h6_7_13"  />
</g>
<g id="a6_0014"  >
<polygon points="177,90 187,90 192,85 187,80 177,80 177,90 " style="fill:#154dd8; stroke-width:1; stroke:black; " description="&lt;b&gt;CPH89_RS22860&lt;/b&gt;&lt;br&gt;methionine gamma-lyase&lt;br&gt;Location: 4907198 - 4905954&lt;br&gt;&lt;br&gt;&lt;b&gt;BlastP hit with MCIC6FC_007897&lt;/b&gt;&lt;br&gt;Percentage identity: 95&lt;br&gt;Percentage coverage: 100&lt;br&gt;BLAST bit score: 777&lt;br&gt;E-value: 5.5e-223" locus_tag="CPH89_RS22860" class="clusterblast-orf" id="dummy-6_h6_7_14"  />
</g>
<g id="a6_0015"  >
<polygon points="195,90 199,90 204,85 199,80 195,80 195,90 " style="fill:#d815bc; stroke-width:1; stroke:black; " description="&lt;b&gt;CPH89_RS22855&lt;/b&gt;&lt;br&gt;helix-turn-helix transcriptional regulator&lt;br&gt;Location: 4905721 - 4905044&lt;br&gt;&lt;br&gt;&lt;b&gt;BlastP hit with MCIC6FC_007898&lt;/b&gt;&lt;br&gt;Percentage identity: 91&lt;br&gt;Percentage coverage: 96&lt;br&gt;BLAST bit score: 389&lt;br&gt;E-value: 2.3e-106" locus_tag="CPH89_RS22855" class="clusterblast-orf" id="dummy-6_h6_7_15"  />
</g>
<g id="a6_0016"  >
<polygon points="205,85 210,80 229,80 229,90 210,90 205,85 " style="fill:#d8bc15; stroke-width:1; stroke:black; " description="&lt;b&gt;CPH89_RS22850&lt;/b&gt;&lt;br&gt;MacB family efflux pump subunit&lt;br&gt;Location: 4904975 - 4903017&lt;br&gt;&lt;br&gt;&lt;b&gt;BlastP hit with MCIC6FC_007899&lt;/b&gt;&lt;br&gt;Percentage identity: 97&lt;br&gt;Percentage coverage: 64&lt;br&gt;BLAST bit score: 1209&lt;br&gt;E-value: 0.0" locus_tag="CPH89_RS22850" class="clusterblast-orf" id="dummy-6_h6_7_16"  />
</g>
<g id="a6_0017"  >
<polygon points="230,85 235,80 244,80 244,90 235,90 230,85 " style="fill:#d8bc15; stroke-width:1; stroke:black; " description="&lt;b&gt;CPH89_RS22845&lt;/b&gt;&lt;br&gt;macrolide transporter subunit MacA&lt;br&gt;Location: 4903013 - 4901892&lt;br&gt;&lt;br&gt;&lt;b&gt;BlastP hit with MCIC6FC_007899&lt;/b&gt;&lt;br&gt;Percentage identity: 95&lt;br&gt;Percentage coverage: 36&lt;br&gt;BLAST bit score: 657&lt;br&gt;E-value: 2e-186" locus_tag="CPH89_RS22845" class="clusterblast-orf" id="dummy-6_h6_7_17"  />
</g>
<g id="a6_0018"  >
<polygon points="244,85 249,80 387,80 387,90 249,90 244,85 " style="fill:#15d885; stroke-width:1; stroke:black; " description="&lt;b&gt;CPH89_RS22840&lt;/b&gt;&lt;br&gt;amino acid adenylation domain-containing protein&lt;br&gt;Location: 4901874 - 4890541&lt;br&gt;&lt;br&gt;&lt;b&gt;BlastP hit with MCIC6FC_007900&lt;/b&gt;&lt;br&gt;Percentage identity: 90&lt;br&gt;Percentage coverage: 47&lt;br&gt;BLAST bit score: 6714&lt;br&gt;E-value: 0.0" locus_tag="CPH89_RS22840" class="clusterblast-orf" id="dummy-6_h6_7_18"  />
</g>
<g id="a6_0019"  >
<polygon points="387,85 392,80 550,80 550,90 392,90 387,85 " style="fill:#15d885; stroke-width:1; stroke:black; " description="&lt;b&gt;CPH89_RS22835&lt;/b&gt;&lt;br&gt;non-ribosomal peptide synthetase&lt;br&gt;Location: 4890544 - 4877633&lt;br&gt;&lt;br&gt;&lt;b&gt;BlastP hit with MCIC6FC_007900&lt;/b&gt;&lt;br&gt;Percentage identity: 90&lt;br&gt;Percentage coverage: 54&lt;br&gt;BLAST bit score: 7661&lt;br&gt;E-value: 0.0" locus_tag="CPH89_RS22835" class="clusterblast-orf" id="dummy-6_h6_7_19"  />
</g>
<g id="a6_0020"  >
<polygon points="553,85 558,80 562,80 562,90 558,90 553,85 " style="fill:#1515d8; stroke-width:1; stroke:black; " description="&lt;b&gt;CPH89_RS22830&lt;/b&gt;&lt;br&gt;VWA domain-containing protein&lt;br&gt;Location: 4877425 - 4876685&lt;br&gt;&lt;br&gt;&lt;b&gt;BlastP hit with MCIC6FC_007901&lt;/b&gt;&lt;br&gt;Percentage identity: 85&lt;br&gt;Percentage coverage: 41&lt;br&gt;BLAST bit score: 367&lt;br&gt;E-value: 2.8e-99" locus_tag="CPH89_RS22830" class="clusterblast-orf" id="dummy-6_h6_7_20"  />
</g>
<g id="a6_0021"  >
<polygon points="561,85 566,80 574,80 574,90 566,90 561,85 " style="fill:#1515d8; stroke-width:1; stroke:black; " description="&lt;b&gt;CPH89_RS22825&lt;/b&gt;&lt;br&gt;AAA family ATPase&lt;br&gt;Location: 4876760 - 4875762&lt;br&gt;&lt;br&gt;&lt;b&gt;BlastP hit with MCIC6FC_007901&lt;/b&gt;&lt;br&gt;Percentage identity: 93&lt;br&gt;Percentage coverage: 61&lt;br&gt;BLAST bit score: 592&lt;br&gt;E-value: 5.4e-167" locus_tag="CPH89_RS22825" class="clusterblast-orf" id="dummy-6_h6_7_21"  />
</g>
<g id="a6_0022"  >
<polygon points="574,85 579,80 621,80 621,90 579,90 574,85 " style="fill:#1515d8; stroke-width:1; stroke:black; " description="&lt;b&gt;CPH89_RS22820&lt;/b&gt;&lt;br&gt;cobaltochelatase subunit CobN&lt;br&gt;Location: 4875762 - 4872001&lt;br&gt;&lt;br&gt;&lt;b&gt;BlastP hit with MCIC6FC_007902&lt;/b&gt;&lt;br&gt;Percentage identity: 96&lt;br&gt;Percentage coverage: 78&lt;br&gt;BLAST bit score: 2438&lt;br&gt;E-value: 0.0" locus_tag="CPH89_RS22820" class="clusterblast-orf" id="dummy-6_h6_7_22"  />
</g>
<g id="a6_0023"  >
<polygon points="621,85 626,80 635,80 635,90 626,90 621,85 " style="fill:#1515d8; stroke-width:1; stroke:black; " description="&lt;b&gt;CPH89_RS22815&lt;/b&gt;&lt;br&gt;cobalamin biosynthesis protein CobW&lt;br&gt;Location: 4871997 - 4870876&lt;br&gt;&lt;br&gt;&lt;b&gt;BlastP hit with MCIC6FC_007902&lt;/b&gt;&lt;br&gt;Percentage identity: 95&lt;br&gt;Percentage coverage: 22&lt;br&gt;BLAST bit score: 602&lt;br&gt;E-value: 1.6e-169" locus_tag="CPH89_RS22815" class="clusterblast-orf" id="dummy-6_h6_7_23"  />
</g>
<g id="a6_0024"  >
<polygon points="640,90 644,90 649,85 644,80 640,80 640,90 " style="fill:white; stroke-width:1; stroke:black; " description="&lt;b&gt;CPH89_RS30440&lt;/b&gt;&lt;br&gt;hypothetical protein&lt;br&gt;Location: 4870480 - 4869803" locus_tag="CPH89_RS30440" class="clusterblast-orf" id="dummy-6_h6_7_24"  />
</g>
<g id="a6_0025"  >
<polygon points="654,90 656,85 654,80 654,90 " style="fill:#d81585; stroke-width:1; stroke:black; " description="&lt;b&gt;CPH89_RS22805&lt;/b&gt;&lt;br&gt;CbtB-domain containing protein&lt;br&gt;Location: 4869407 - 4869219&lt;br&gt;&lt;br&gt;&lt;b&gt;BlastP hit with MCIC6FC_007903&lt;/b&gt;&lt;br&gt;Percentage identity: 93&lt;br&gt;Percentage coverage: 11&lt;br&gt;BLAST bit score: 76&lt;br&gt;E-value: 5.9e-12" locus_tag="CPH89_RS22805" class="clusterblast-orf" id="dummy-6_h6_7_25"  />
</g>
<g id="a6_0026"  >
<polygon points="657,90 660,90 665,85 660,80 657,80 657,90 " style="fill:#d81585; stroke-width:1; stroke:black; " description="&lt;b&gt;CPH89_RS22800&lt;/b&gt;&lt;br&gt;CbtA family protein&lt;br&gt;Location: 4869207 - 4868506&lt;br&gt;&lt;br&gt;&lt;b&gt;BlastP hit with MCIC6FC_007903&lt;/b&gt;&lt;br&gt;Percentage identity: 94&lt;br&gt;Percentage coverage: 51&lt;br&gt;BLAST bit score: 378&lt;br&gt;E-value: 9.5e-103" locus_tag="CPH89_RS22800" class="clusterblast-orf" id="dummy-6_h6_7_26"  />
</g>
<g id="a6_0027"  >
<polygon points="665,90 665,90 670,85 665,80 665,80 665,90 " style="fill:#d81585; stroke-width:1; stroke:black; " description="&lt;b&gt;CPH89_RS22795&lt;/b&gt;&lt;br&gt;cobalamin biosynthesis protein&lt;br&gt;Location: 4868509 - 4868117&lt;br&gt;&lt;br&gt;&lt;b&gt;BlastP hit with MCIC6FC_007903&lt;/b&gt;&lt;br&gt;Percentage identity: 82&lt;br&gt;Percentage coverage: 31&lt;br&gt;BLAST bit score: 203&lt;br&gt;E-value: 3.2e-50" locus_tag="CPH89_RS22795" class="clusterblast-orf" id="dummy-6_h6_7_27"  />
</g>
<g id="a6_0028"  >
<polygon points="671,90 676,90 681,85 676,80 671,80 671,90 " style="fill:#bcd815; stroke-width:1; stroke:black; " description="&lt;b&gt;CPH89_RS22790&lt;/b&gt;&lt;br&gt;precorrin-4 C(11)-methyltransferase&lt;br&gt;Location: 4868046 - 4867300&lt;br&gt;&lt;br&gt;&lt;b&gt;BlastP hit with MCIC6FC_007904&lt;/b&gt;&lt;br&gt;Percentage identity: 94&lt;br&gt;Percentage coverage: 100&lt;br&gt;BLAST bit score: 470&lt;br&gt;E-value: 8.5e-131" locus_tag="CPH89_RS22790" class="clusterblast-orf" id="dummy-6_h6_7_28"  />
</g>
<g id="a6_0029"  >
<polygon points="683,85 688,80 690,80 690,90 688,90 683,85 " style="fill:#15d8bc; stroke-width:1; stroke:black; " description="&lt;b&gt;CPH89_RS22785&lt;/b&gt;&lt;br&gt;Fe-S biogenesis protein NfuA&lt;br&gt;Location: 4867128 - 4866544&lt;br&gt;&lt;br&gt;&lt;b&gt;BlastP hit with MCIC6FC_007905&lt;/b&gt;&lt;br&gt;Percentage identity: 100&lt;br&gt;Percentage coverage: 100&lt;br&gt;BLAST bit score: 397&lt;br&gt;E-value: 7.2e-109" locus_tag="CPH89_RS22785" class="clusterblast-orf" id="dummy-6_h6_7_29"  />
</g>
<g id="a6_0030"  >
<polygon points="702,85 707,80 731,80 731,90 707,90 702,85 " style="fill:#d8154d; stroke-width:1; stroke:black; " description="&lt;b&gt;CPH89_RS22775&lt;/b&gt;&lt;br&gt;fatty acid cis/trans isomerase&lt;br&gt;Location: 4865643 - 4863349&lt;br&gt;&lt;br&gt;&lt;b&gt;BlastP hit with MCIC6FC_007907&lt;/b&gt;&lt;br&gt;Percentage identity: 88&lt;br&gt;Percentage coverage: 100&lt;br&gt;BLAST bit score: 1414&lt;br&gt;E-value: 0.0" locus_tag="CPH89_RS22775" class="clusterblast-orf" id="dummy-6_h6_7_30"  />
</g>
<g id="a6_0031"  >
<polygon points="733,90 775,90 780,85 775,80 733,80 733,90 " style="fill:#85d815; stroke-width:1; stroke:black; " description="&lt;b&gt;CPH89_RS22770&lt;/b&gt;&lt;br&gt;methionine synthase&lt;br&gt;Location: 4863185 - 4859475&lt;br&gt;&lt;br&gt;&lt;b&gt;BlastP hit with MCIC6FC_007908&lt;/b&gt;&lt;br&gt;Percentage identity: 98&lt;br&gt;Percentage coverage: 100&lt;br&gt;BLAST bit score: 2428&lt;br&gt;E-value: 0.0" locus_tag="CPH89_RS22770" class="clusterblast-orf" id="dummy-6_h6_7_31"  />
</g>
</svg>
