<svg xmlns="http://www.w3.org/2000/svg" xmlns:xlink="http://www.w3.org/1999/xlink" version="1.1" x="0" y="0" height="230" width="800" viewBox="0 0 800 230" preserveAspectRatio="none"  >
<g label="Query sequence" class="clusterblast-cluster"  >
<text x="5" y="20" class="clusterblast-acc"  >
Query sequence</text>
<line x1="10" y1="35" x2="778.0" y2="35" style="stroke-width:1; stroke:grey; "  />
<polygon points="92,40 290,40 295,35 290,30 92,30 92,40 " style="fill:#d81515; stroke-width:1; stroke:black; " description="&lt;b&gt;MCIC6FC_014563&lt;/b&gt;&lt;br&gt;hypothetical protein&lt;br&gt;Location: 12765 - 15620" locus_tag="MCIC6FC_014563" class="clusterblast-orf" id="dummy-1_q0_0_all"  />
<polygon points="300,40 458,40 463,35 458,30 300,30 300,40 " style="fill:#15d815; stroke-width:1; stroke:black; " description="&lt;b&gt;MCIC6FC_014564&lt;/b&gt;&lt;br&gt;hypothetical protein&lt;br&gt;Location: 15681 - 17977" locus_tag="MCIC6FC_014564" class="clusterblast-orf" id="dummy-1_q1_0_all"  />
<polygon points="468,40 683,40 688,35 683,30 468,30 468,40 " style="fill:#1515d8; stroke-width:1; stroke:black; " description="&lt;b&gt;MCIC6FC_014565&lt;/b&gt;&lt;br&gt;hypothetical protein&lt;br&gt;Location: 18054 - 21151" locus_tag="MCIC6FC_014565" class="clusterblast-orf" id="dummy-1_q2_0_all"  />
</g>
<g label="NZ_MAYN01000001" description="NZ_MAYN01000001 (160011-172366): Pantoea eucrina strain Russ contig1, whole g... (50% of genes show similarity), siderophore" class="clusterblast-cluster"  >
<text x="5" y="70" class="clusterblast-acc"  >
<a xlink:href="https://antismash-db.secondarymetabolites.org/area.html?record=NZ_MAYN01000001&amp;start=160011&amp;end=172366" target="_blank">NZ_MAYN01000001 (160011-172366)</a>: Pantoea eucrina strain Russ contig1, whole g... (50% of genes show similarity), siderophore</text>
<line x1="10" y1="85" x2="778.0" y2="85" style="stroke-width:1; stroke:grey; "  />
</g>
<g id="a1_000"  >
<polygon points="0,90 36,90 41,85 36,80 0,80 0,90 " style="fill:white; stroke-width:1; stroke:black; " description="&lt;b&gt;BBA90_RS00675&lt;/b&gt;&lt;br&gt;DUF1349 domain-containing protein&lt;br&gt;Location: 172347 - 171760" locus_tag="BBA90_RS00675" class="clusterblast-orf" id="dummy-1_h1_8_0"  />
</g>
<g id="a1_001"  >
<polygon points="48,90 67,90 72,85 67,80 48,80 48,90 " style="fill:white; stroke-width:1; stroke:black; " description="&lt;b&gt;BBA90_RS00670&lt;/b&gt;&lt;br&gt;HNH nuclease family protein&lt;br&gt;Location: 171667 - 171320" locus_tag="BBA90_RS00670" class="clusterblast-orf" id="dummy-1_h1_8_1"  />
</g>
<g id="a1_002"  >
<polygon points="91,85 96,80 106,80 106,90 96,90 91,85 " style="fill:white; stroke-width:1; stroke:black; " description="&lt;b&gt;BBA90_RS00665&lt;/b&gt;&lt;br&gt;RNA chaperone/antiterminator CspA&lt;br&gt;Location: 171054 - 170842" locus_tag="BBA90_RS00665" class="clusterblast-orf" id="dummy-1_h1_8_2"  />
</g>
<g id="a1_003"  >
<polygon points="150,90 256,90 261,85 256,80 150,80 150,90 " style="fill:#d81515; stroke-width:1; stroke:black; " description="&lt;b&gt;BBA90_RS00660&lt;/b&gt;&lt;br&gt;aspartate aminotransferase family protein&lt;br&gt;Location: 170224 - 168671&lt;br&gt;&lt;br&gt;&lt;b&gt;BlastP hit with MCIC6FC_014563&lt;/b&gt;&lt;br&gt;Percentage identity: 79&lt;br&gt;Percentage coverage: 54&lt;br&gt;BLAST bit score: 807&lt;br&gt;E-value: 1.1e-231" locus_tag="BBA90_RS00660" class="clusterblast-orf" id="dummy-1_h1_8_3"  />
</g>
<g id="a1_004"  >
<polygon points="261,90 348,90 353,85 348,80 261,80 261,90 " style="fill:#d81515; stroke-width:1; stroke:black; " description="&lt;b&gt;BBA90_RS00655&lt;/b&gt;&lt;br&gt;lysine N(6)-hydroxylase/L-ornithine N(5)-oxygenase family protein&lt;br&gt;Location: 168660 - 167368&lt;br&gt;&lt;br&gt;&lt;b&gt;BlastP hit with MCIC6FC_014563&lt;/b&gt;&lt;br&gt;Percentage identity: 85&lt;br&gt;Percentage coverage: 46&lt;br&gt;BLAST bit score: 782&lt;br&gt;E-value: 5e-224" locus_tag="BBA90_RS00655" class="clusterblast-orf" id="dummy-1_h1_8_4"  />
</g>
<g id="a1_005"  >
<polygon points="353,90 515,90 520,85 515,80 353,80 353,90 " style="fill:#15d815; stroke-width:1; stroke:black; " description="&lt;b&gt;BBA90_RS00650&lt;/b&gt;&lt;br&gt;GNAT family N-acetyltransferase&lt;br&gt;Location: 167366 - 165012&lt;br&gt;&lt;br&gt;&lt;b&gt;BlastP hit with MCIC6FC_014564&lt;/b&gt;&lt;br&gt;Percentage identity: 82&lt;br&gt;Percentage coverage: 102&lt;br&gt;BLAST bit score: 1284&lt;br&gt;E-value: 0.0" locus_tag="BBA90_RS00650" class="clusterblast-orf" id="dummy-1_h1_8_5"  />
</g>
<g id="a1_006"  >
<polygon points="526,90 609,90 614,85 609,80 526,80 526,90 " style="fill:#1515d8; stroke-width:1; stroke:black; " description="&lt;b&gt;BBA90_RS00645&lt;/b&gt;&lt;br&gt;MFS transporter&lt;br&gt;Location: 164927 - 163692&lt;br&gt;&lt;br&gt;&lt;b&gt;BlastP hit with MCIC6FC_014565&lt;/b&gt;&lt;br&gt;Percentage identity: 81&lt;br&gt;Percentage coverage: 46&lt;br&gt;BLAST bit score: 628&lt;br&gt;E-value: 1.5e-177" locus_tag="BBA90_RS00645" class="clusterblast-orf" id="dummy-1_h1_8_6"  />
</g>
<g id="a1_007"  >
<polygon points="629,90 775,90 780,85 775,80 629,80 629,90 " style="fill:white; stroke-width:1; stroke:black; " description="&lt;b&gt;BBA90_RS00640&lt;/b&gt;&lt;br&gt;TonB-dependent siderophore receptor&lt;br&gt;Location: 163480 - 161363" locus_tag="BBA90_RS00640" class="clusterblast-orf" id="dummy-1_h1_8_7"  />
</g>
</svg>
