<svg xmlns="http://www.w3.org/2000/svg" xmlns:xlink="http://www.w3.org/1999/xlink" version="1.1" x="0" y="0" height="230" width="800" viewBox="0 0 800 230" preserveAspectRatio="none"  >
<g label="Query sequence" class="clusterblast-cluster"  >
<text x="5" y="20" class="clusterblast-acc"  >
Query sequence</text>
<line x1="10" y1="35" x2="778.0" y2="35" style="stroke-width:1; stroke:grey; "  />
<polygon points="104,40 128,40 133,35 128,30 104,30 104,40 " style="fill:#d81515; stroke-width:1; stroke:black; " description="&lt;b&gt;MCIC6FC_019439&lt;/b&gt;&lt;br&gt;hypothetical protein&lt;br&gt;Location: 217 - 556" locus_tag="MCIC6FC_019439" class="clusterblast-orf" id="dummy-1_q0_0_all"  />
<polygon points="135,40 314,40 319,35 314,30 135,30 135,40 " style="fill:#15d863; stroke-width:1; stroke:black; " description="&lt;b&gt;MCIC6FC_019440&lt;/b&gt;&lt;br&gt;hypothetical protein&lt;br&gt;Location: 579 - 2695" locus_tag="MCIC6FC_019440" class="clusterblast-orf" id="dummy-1_q1_0_all"  />
<polygon points="321,35 326,30 399,30 399,40 326,40 321,35 " style="fill:#1563d8; stroke-width:1; stroke:black; " description="&lt;b&gt;MCIC6FC_019441&lt;/b&gt;&lt;br&gt;hypothetical protein&lt;br&gt;Location: 2711 - 3611" locus_tag="MCIC6FC_019441" class="clusterblast-orf" id="dummy-1_q2_0_all"  />
<polygon points="409,40 522,40 527,35 522,30 409,30 409,40 " style="fill:#b115d8; stroke-width:1; stroke:black; " description="&lt;b&gt;MCIC6FC_019442&lt;/b&gt;&lt;br&gt;hypothetical protein&lt;br&gt;Location: 3723 - 5091" locus_tag="MCIC6FC_019442" class="clusterblast-orf" id="dummy-1_q3_0_all"  />
<polygon points="537,40 672,40 677,35 672,30 537,30 537,40 " style="fill:#b1d815; stroke-width:1; stroke:black; " description="&lt;b&gt;MCIC6FC_019443&lt;/b&gt;&lt;br&gt;hypothetical protein&lt;br&gt;Location: 5197 - 6811" locus_tag="MCIC6FC_019443" class="clusterblast-orf" id="dummy-1_q4_0_all"  />
</g>
<g label="NZ_LT629760" description="NZ_LT629760 (2852873-2863752): Pseudomonas trivialis strain LMG 21464 chromos... (63% of genes show similarity), bacteriocin" class="clusterblast-cluster"  >
<text x="5" y="70" class="clusterblast-acc"  >
<a xlink:href="https://antismash-db.secondarymetabolites.org/area.html?record=NZ_LT629760&amp;start=2852873&amp;end=2863752" target="_blank">NZ_LT629760 (2852873-2863752)</a>: Pseudomonas trivialis strain LMG 21464 chromos... (63% of genes show similarity), bacteriocin</text>
<line x1="10" y1="85" x2="778.0" y2="85" style="stroke-width:1; stroke:grey; "  />
</g>
<g id="a1_000"  >
<polygon points="0,90 75,90 80,85 75,80 0,80 0,90 " style="fill:white; stroke-width:1; stroke:black; " description="&lt;b&gt;BLU21_RS13145&lt;/b&gt;&lt;br&gt;high-affinity branched-chain amino acid ABC transporter permease LivH&lt;br&gt;Location: 2862879 - 2861956" locus_tag="BLU21_RS13145" class="clusterblast-orf" id="dummy-1_h1_4_0"  />
</g>
<g id="a1_001"  >
<polygon points="79,90 183,90 188,85 183,80 79,80 79,90 " style="fill:white; stroke-width:1; stroke:black; " description="&lt;b&gt;BLU21_RS13140&lt;/b&gt;&lt;br&gt;high-affinity branched-chain amino acid ABC transporter permease LivM&lt;br&gt;Location: 2861959 - 2860706" locus_tag="BLU21_RS13140" class="clusterblast-orf" id="dummy-1_h1_4_1"  />
</g>
<g id="a1_002"  >
<polygon points="188,90 250,90 255,85 250,80 188,80 188,90 " style="fill:white; stroke-width:1; stroke:black; " description="&lt;b&gt;BLU21_RS13135&lt;/b&gt;&lt;br&gt;high-affinity branched-chain amino acid ABC transporter ATP-binding protein LivG&lt;br&gt;Location: 2860709 - 2859942" locus_tag="BLU21_RS13135" class="clusterblast-orf" id="dummy-1_h1_4_2"  />
</g>
<g id="a1_003"  >
<polygon points="255,90 311,90 316,85 311,80 255,80 255,90 " style="fill:white; stroke-width:1; stroke:black; " description="&lt;b&gt;BLU21_RS13130&lt;/b&gt;&lt;br&gt;ABC transporter ATP-binding protein&lt;br&gt;Location: 2859940 - 2859239" locus_tag="BLU21_RS13130" class="clusterblast-orf" id="dummy-1_h1_4_3"  />
</g>
<g id="a1_004"  >
<polygon points="332,90 351,90 356,85 351,80 332,80 332,90 " style="fill:#d81515; stroke-width:1; stroke:black; " description="&lt;b&gt;BLU21_RS13125&lt;/b&gt;&lt;br&gt;DUF2282 domain-containing protein&lt;br&gt;Location: 2859058 - 2858774&lt;br&gt;&lt;br&gt;&lt;b&gt;BlastP hit with MCIC6FC_019439&lt;/b&gt;&lt;br&gt;Percentage identity: 85&lt;br&gt;Percentage coverage: 88&lt;br&gt;BLAST bit score: 151&lt;br&gt;E-value: 6.8e-35" locus_tag="BLU21_RS13125" class="clusterblast-orf" id="dummy-1_h1_4_4"  />
</g>
<g id="a1_005"  >
<polygon points="358,90 430,90 435,85 430,80 358,80 358,90 " style="fill:#15d863; stroke-width:1; stroke:black; " description="&lt;b&gt;BLU21_RS13120&lt;/b&gt;&lt;br&gt;DUF692 domain-containing protein&lt;br&gt;Location: 2858752 - 2857874&lt;br&gt;&lt;br&gt;&lt;b&gt;BlastP hit with MCIC6FC_019440&lt;/b&gt;&lt;br&gt;Percentage identity: 77&lt;br&gt;Percentage coverage: 46&lt;br&gt;BLAST bit score: 438&lt;br&gt;E-value: 9.1e-121" locus_tag="BLU21_RS13120" class="clusterblast-orf" id="dummy-1_h1_4_5"  />
</g>
<g id="a1_006"  >
<polygon points="434,90 495,90 500,85 495,80 434,80 434,90 " style="fill:#15d863; stroke-width:1; stroke:black; " description="&lt;b&gt;BLU21_RS13115&lt;/b&gt;&lt;br&gt;putative DNA-binding domain-containing protein&lt;br&gt;Location: 2857877 - 2857122&lt;br&gt;&lt;br&gt;&lt;b&gt;BlastP hit with MCIC6FC_019440&lt;/b&gt;&lt;br&gt;Percentage identity: 71&lt;br&gt;Percentage coverage: 40&lt;br&gt;BLAST bit score: 342&lt;br&gt;E-value: 6.8e-92" locus_tag="BLU21_RS13115" class="clusterblast-orf" id="dummy-1_h1_4_6"  />
</g>
<g id="a1_007"  >
<polygon points="500,90 537,90 542,85 537,80 500,80 500,90 " style="fill:#15d863; stroke-width:1; stroke:black; " description="&lt;b&gt;BLU21_RS13110&lt;/b&gt;&lt;br&gt;DoxX family protein&lt;br&gt;Location: 2857125 - 2856640&lt;br&gt;&lt;br&gt;&lt;b&gt;BlastP hit with MCIC6FC_019440&lt;/b&gt;&lt;br&gt;Percentage identity: 85&lt;br&gt;Percentage coverage: 17&lt;br&gt;BLAST bit score: 176&lt;br&gt;E-value: 1.1e-41" locus_tag="BLU21_RS13110" class="clusterblast-orf" id="dummy-1_h1_4_7"  />
</g>
<g id="a1_008"  >
<polygon points="542,85 547,80 556,80 556,90 547,90 542,85 " style="fill:#1563d8; stroke-width:1; stroke:black; " description="&lt;b&gt;BLU21_RS13105&lt;/b&gt;&lt;br&gt;LysR family transcriptional regulator&lt;br&gt;Location: 2856643 - 2856473&lt;br&gt;&lt;br&gt;&lt;b&gt;BlastP hit with MCIC6FC_019441&lt;/b&gt;&lt;br&gt;Percentage identity: 89&lt;br&gt;Percentage coverage: 19&lt;br&gt;BLAST bit score: 112&lt;br&gt;E-value: 7.1e-23" locus_tag="BLU21_RS13105" class="clusterblast-orf" id="dummy-1_h1_4_8"  />
</g>
<g id="a1_009"  >
<polygon points="572,90 625,90 630,85 625,80 572,80 572,90 " style="fill:#b115d8; stroke-width:1; stroke:black; " description="&lt;b&gt;BLU21_RS13100&lt;/b&gt;&lt;br&gt;hypothetical protein&lt;br&gt;Location: 2856296 - 2855625&lt;br&gt;&lt;br&gt;&lt;b&gt;BlastP hit with MCIC6FC_019442&lt;/b&gt;&lt;br&gt;Percentage identity: 90&lt;br&gt;Percentage coverage: 52&lt;br&gt;BLAST bit score: 415&lt;br&gt;E-value: 7.3e-114" locus_tag="BLU21_RS13100" class="clusterblast-orf" id="dummy-1_h1_4_9"  />
</g>
<g id="a1_0010"  >
<polygon points="639,90 775,90 780,85 775,80 639,80 639,90 " style="fill:#b1d815; stroke-width:1; stroke:black; " description="&lt;b&gt;BLU21_RS13095&lt;/b&gt;&lt;br&gt;NAD(P)/FAD-dependent oxidoreductase&lt;br&gt;Location: 2855518 - 2853905&lt;br&gt;&lt;br&gt;&lt;b&gt;BlastP hit with MCIC6FC_019443&lt;/b&gt;&lt;br&gt;Percentage identity: 96&lt;br&gt;Percentage coverage: 100&lt;br&gt;BLAST bit score: 1036&lt;br&gt;E-value: 8.4e-301" locus_tag="BLU21_RS13095" class="clusterblast-orf" id="dummy-1_h1_4_10"  />
</g>
</svg>
