<svg xmlns="http://www.w3.org/2000/svg" xmlns:xlink="http://www.w3.org/1999/xlink" version="1.1" x="0" y="0" height="230" width="800" viewBox="0 0 800 230" preserveAspectRatio="none"  >
<g label="Query sequence" class="clusterblast-cluster"  >
<text x="5" y="20" class="clusterblast-acc"  >
Query sequence</text>
<line x1="10" y1="35" x2="778.0" y2="35" style="stroke-width:1; stroke:grey; "  />
<polygon points="0,40 50,40 55,35 50,30 0,30 0,40 " style="fill:#d81515; stroke-width:1; stroke:black; " description="&lt;b&gt;MCIC6FC_005835&lt;/b&gt;&lt;br&gt;hypothetical protein&lt;br&gt;Location: 2047281 - 2050906" locus_tag="MCIC6FC_005835" class="clusterblast-orf" id="dummy-4_q0_0_all"  />
<polygon points="55,40 76,40 81,35 76,30 55,30 55,40 " style="fill:#6ad815; stroke-width:1; stroke:black; " description="&lt;b&gt;MCIC6FC_005836&lt;/b&gt;&lt;br&gt;hypothetical protein&lt;br&gt;Location: 2050941 - 2052611" locus_tag="MCIC6FC_005836" class="clusterblast-orf" id="dummy-4_q1_0_all"  />
<polygon points="81,40 104,40 109,35 104,30 81,30 81,40 " style="fill:#15bfd8; stroke-width:1; stroke:black; " description="&lt;b&gt;MCIC6FC_005837&lt;/b&gt;&lt;br&gt;hypothetical protein&lt;br&gt;Location: 2052634 - 2054500" locus_tag="MCIC6FC_005837" class="clusterblast-orf" id="dummy-4_q2_0_all"  />
<polygon points="111,40 119,40 124,35 119,30 111,30 111,40 " style="fill:#9d15d8; stroke-width:1; stroke:black; " description="&lt;b&gt;MCIC6FC_005838&lt;/b&gt;&lt;br&gt;hypothetical protein&lt;br&gt;Location: 2054640 - 2055468" locus_tag="MCIC6FC_005838" class="clusterblast-orf" id="dummy-4_q3_0_all"  />
<polygon points="125,35 130,30 151,30 151,40 130,40 125,35 " style="fill:#d84815; stroke-width:1; stroke:black; " description="&lt;b&gt;MCIC6FC_005839&lt;/b&gt;&lt;br&gt;hypothetical protein&lt;br&gt;Location: 2055536 - 2057256" locus_tag="MCIC6FC_005839" class="clusterblast-orf" id="dummy-4_q4_0_all"  />
<polygon points="155,35 160,30 174,30 174,40 160,40 155,35 " style="fill:#37d815; stroke-width:1; stroke:black; " description="&lt;b&gt;MCIC6FC_005840&lt;/b&gt;&lt;br&gt;hypothetical protein&lt;br&gt;Location: 2057492 - 2058741" locus_tag="MCIC6FC_005840" class="clusterblast-orf" id="dummy-4_q5_0_all"  />
<polygon points="175,35 180,30 185,30 185,40 180,40 175,35 " style="fill:#158cd8; stroke-width:1; stroke:black; " description="&lt;b&gt;MCIC6FC_005841&lt;/b&gt;&lt;br&gt;hypothetical protein&lt;br&gt;Location: 2058819 - 2059497" locus_tag="MCIC6FC_005841" class="clusterblast-orf" id="dummy-4_q6_0_all"  />
<polygon points="188,40 217,40 222,35 217,30 188,30 188,40 " style="fill:#d015d8; stroke-width:1; stroke:black; " description="&lt;b&gt;MCIC6FC_005842&lt;/b&gt;&lt;br&gt;hypothetical protein&lt;br&gt;Location: 2059651 - 2061882" locus_tag="MCIC6FC_005842" class="clusterblast-orf" id="dummy-4_q7_0_all"  />
<polygon points="222,40 234,40 239,35 234,30 222,30 222,40 " style="fill:#d015d8; stroke-width:1; stroke:black; " description="&lt;b&gt;MCIC6FC_005843&lt;/b&gt;&lt;br&gt;hypothetical protein&lt;br&gt;Location: 2061923 - 2063008" locus_tag="MCIC6FC_005843" class="clusterblast-orf" id="dummy-4_q8_0_all"  />
<polygon points="239,35 244,30 254,30 254,40 244,40 239,35 " style="fill:#d87b15; stroke-width:1; stroke:black; " description="&lt;b&gt;MCIC6FC_005844&lt;/b&gt;&lt;br&gt;hypothetical protein&lt;br&gt;Location: 2063011 - 2064018" locus_tag="MCIC6FC_005844" class="clusterblast-orf" id="dummy-4_q9_0_all"  />
<polygon points="256,35 261,30 264,30 264,40 261,40 256,35 " style="fill:#15d826; stroke-width:1; stroke:black; " description="&lt;b&gt;MCIC6FC_005845&lt;/b&gt;&lt;br&gt;hypothetical protein&lt;br&gt;Location: 2064129 - 2064652" locus_tag="MCIC6FC_005845" class="clusterblast-orf" id="dummy-4_q10_0_all"  />
<polygon points="267,35 272,30 300,30 300,40 272,40 267,35 " style="fill:#1559d8; stroke-width:1; stroke:black; " description="&lt;b&gt;MCIC6FC_005846&lt;/b&gt;&lt;br&gt;hypothetical protein&lt;br&gt;Location: 2064850 - 2067013" locus_tag="MCIC6FC_005846" class="clusterblast-orf" id="dummy-4_q11_0_all"  />
<polygon points="301,35 306,30 499,30 499,40 306,40 301,35 " style="fill:#d815ae; stroke-width:1; stroke:black; " description="&lt;b&gt;MCIC6FC_005847&lt;/b&gt;&lt;br&gt;hypothetical protein&lt;br&gt;Location: 2067133 - 2080148" locus_tag="MCIC6FC_005847" class="clusterblast-orf" id="dummy-4_q12_0_all"  />
<polygon points="505,40 508,40 513,35 508,30 505,30 505,40 " style="fill:#d8ae15; stroke-width:1; stroke:black; " description="&lt;b&gt;MCIC6FC_005848&lt;/b&gt;&lt;br&gt;hypothetical protein&lt;br&gt;Location: 2080521 - 2081070" locus_tag="MCIC6FC_005848" class="clusterblast-orf" id="dummy-4_q13_0_all"  />
<polygon points="514,35 519,30 533,30 533,40 519,40 514,35 " style="fill:#15d859; stroke-width:1; stroke:black; " description="&lt;b&gt;MCIC6FC_005849&lt;/b&gt;&lt;br&gt;hypothetical protein&lt;br&gt;Location: 2081115 - 2082375" locus_tag="MCIC6FC_005849" class="clusterblast-orf" id="dummy-4_q14_0_all"  />
<polygon points="534,35 539,30 546,30 546,40 539,40 534,35 " style="fill:#1526d8; stroke-width:1; stroke:black; " description="&lt;b&gt;MCIC6FC_005850&lt;/b&gt;&lt;br&gt;hypothetical protein&lt;br&gt;Location: 2082459 - 2083207" locus_tag="MCIC6FC_005850" class="clusterblast-orf" id="dummy-4_q15_0_all"  />
<polygon points="547,40 606,40 611,35 606,30 547,30 547,40 " style="fill:#d8157b; stroke-width:1; stroke:black; " description="&lt;b&gt;MCIC6FC_005851&lt;/b&gt;&lt;br&gt;hypothetical protein&lt;br&gt;Location: 2083275 - 2087517" locus_tag="MCIC6FC_005851" class="clusterblast-orf" id="dummy-4_q16_0_all"  />
<polygon points="613,40 637,40 642,35 637,30 613,30 613,40 " style="fill:#d0d815; stroke-width:1; stroke:black; " description="&lt;b&gt;MCIC6FC_005852&lt;/b&gt;&lt;br&gt;hypothetical protein&lt;br&gt;Location: 2087610 - 2089562" locus_tag="MCIC6FC_005852" class="clusterblast-orf" id="dummy-4_q17_0_all"  />
<polygon points="643,40 668,40 673,35 668,30 643,30 643,40 " style="fill:#15d88c; stroke-width:1; stroke:black; " description="&lt;b&gt;MCIC6FC_005853&lt;/b&gt;&lt;br&gt;hypothetical protein&lt;br&gt;Location: 2089608 - 2091564" locus_tag="MCIC6FC_005853" class="clusterblast-orf" id="dummy-4_q18_0_all"  />
<polygon points="676,40 678,40 683,35 678,30 676,30 676,40 " style="fill:#3715d8; stroke-width:1; stroke:black; " description="&lt;b&gt;MCIC6FC_005854&lt;/b&gt;&lt;br&gt;hypothetical protein&lt;br&gt;Location: 2091767 - 2092241" locus_tag="MCIC6FC_005854" class="clusterblast-orf" id="dummy-4_q19_0_all"  />
<polygon points="684,40 688,35 684,30 684,40 " style="fill:#d81548; stroke-width:1; stroke:black; " description="&lt;b&gt;MCIC6FC_005855&lt;/b&gt;&lt;br&gt;hypothetical protein&lt;br&gt;Location: 2092315 - 2092600" locus_tag="MCIC6FC_005855" class="clusterblast-orf" id="dummy-4_q20_0_all"  />
<polygon points="690,35 695,30 717,30 717,40 695,40 690,35 " style="fill:#9dd815; stroke-width:1; stroke:black; " description="&lt;b&gt;MCIC6FC_005856&lt;/b&gt;&lt;br&gt;hypothetical protein&lt;br&gt;Location: 2092677 - 2094503" locus_tag="MCIC6FC_005856" class="clusterblast-orf" id="dummy-4_q21_0_all"  />
<polygon points="726,40 759,40 764,35 759,30 726,30 726,40 " style="fill:#15d8bf; stroke-width:1; stroke:black; " description="&lt;b&gt;MCIC6FC_005857&lt;/b&gt;&lt;br&gt;hypothetical protein&lt;br&gt;Location: 2095064 - 2097589" locus_tag="MCIC6FC_005857" class="clusterblast-orf" id="dummy-4_q22_0_all"  />
<polygon points="764,35 769,30 780,30 780,40 769,40 764,35 " style="fill:#6a15d8; stroke-width:1; stroke:black; " description="&lt;b&gt;MCIC6FC_005858&lt;/b&gt;&lt;br&gt;hypothetical protein&lt;br&gt;Location: 2097590 - 2098608" locus_tag="MCIC6FC_005858" class="clusterblast-orf" id="dummy-4_q23_0_all"  />
</g>
<g label="NZ_FPKJ01000002" description="NZ_FPKJ01000002 (1000471-1053500): Pseudomonas sp. NFPP16, whole genome shotg... (97% of genes show similarity), NRPS" class="clusterblast-cluster"  >
<text x="5" y="70" class="clusterblast-acc"  >
<a xlink:href="https://antismash-db.secondarymetabolites.org/area.html?record=NZ_FPKJ01000002&amp;start=1000471&amp;end=1053500" target="_blank">NZ_FPKJ01000002 (1000471-1053500)</a>: Pseudomonas sp. NFPP16, whole genome shotg... (97% of genes show similarity), NRPS</text>
<line x1="10" y1="85" x2="778.0" y2="85" style="stroke-width:1; stroke:grey; "  />
</g>
<g id="a4_000"  >
<polygon points="3,90 16,90 21,85 16,80 3,80 3,90 " style="fill:#d81515; stroke-width:1; stroke:black; " description="&lt;b&gt;BT254_RS11850&lt;/b&gt;&lt;br&gt;PepSY domain-containing protein&lt;br&gt;Location: 1053016 - 1051793&lt;br&gt;&lt;br&gt;&lt;b&gt;BlastP hit with MCIC6FC_005835&lt;/b&gt;&lt;br&gt;Percentage identity: 87&lt;br&gt;Percentage coverage: 37&lt;br&gt;BLAST bit score: 690&lt;br&gt;E-value: 3.9e-196" locus_tag="BT254_RS11850" class="clusterblast-orf" id="dummy-4_h4_2_0"  />
</g>
<g id="a4_001"  >
<polygon points="21,90 25,90 30,85 25,80 21,80 21,90 " style="fill:#d81515; stroke-width:1; stroke:black; " description="&lt;b&gt;BT254_RS11845&lt;/b&gt;&lt;br&gt;hypothetical protein&lt;br&gt;Location: 1051796 - 1051254&lt;br&gt;&lt;br&gt;&lt;b&gt;BlastP hit with MCIC6FC_005835&lt;/b&gt;&lt;br&gt;Percentage identity: 97&lt;br&gt;Percentage coverage: 14&lt;br&gt;BLAST bit score: 313&lt;br&gt;E-value: 1e-82" locus_tag="BT254_RS11845" class="clusterblast-orf" id="dummy-4_h4_2_1"  />
</g>
<g id="a4_002"  >
<polygon points="30,90 30,90 35,85 30,80 30,80 30,90 " style="fill:white; stroke-width:1; stroke:black; " description="&lt;b&gt;BT254_RS11840&lt;/b&gt;&lt;br&gt;hypothetical protein&lt;br&gt;Location: 1051257 - 1050919" locus_tag="BT254_RS11840" class="clusterblast-orf" id="dummy-4_h4_2_2"  />
</g>
<g id="a4_003"  >
<polygon points="35,90 38,90 43,85 38,80 35,80 35,90 " style="fill:#d81515; stroke-width:1; stroke:black; " description="&lt;b&gt;BT254_RS11835&lt;/b&gt;&lt;br&gt;hypothetical protein&lt;br&gt;Location: 1050922 - 1050350&lt;br&gt;&lt;br&gt;&lt;b&gt;BlastP hit with MCIC6FC_005835&lt;/b&gt;&lt;br&gt;Percentage identity: 90&lt;br&gt;Percentage coverage: 17&lt;br&gt;BLAST bit score: 333&lt;br&gt;E-value: 9.3e-89" locus_tag="BT254_RS11835" class="clusterblast-orf" id="dummy-4_h4_2_3"  />
</g>
<g id="a4_004"  >
<polygon points="44,90 53,90 58,85 53,80 44,80 44,90 " style="fill:#6ad815; stroke-width:1; stroke:black; " description="&lt;b&gt;BT254_RS11830&lt;/b&gt;&lt;br&gt;zinc ABC transporter substrate-binding protein&lt;br&gt;Location: 1050314 - 1049385&lt;br&gt;&lt;br&gt;&lt;b&gt;BlastP hit with MCIC6FC_005836&lt;/b&gt;&lt;br&gt;Percentage identity: 98&lt;br&gt;Percentage coverage: 55&lt;br&gt;BLAST bit score: 579&lt;br&gt;E-value: 3.7e-163" locus_tag="BT254_RS11830" class="clusterblast-orf" id="dummy-4_h4_2_4"  />
</g>
<g id="a4_005"  >
<polygon points="58,90 64,90 69,85 64,80 58,80 58,90 " style="fill:#6ad815; stroke-width:1; stroke:black; " description="&lt;b&gt;BT254_RS11825&lt;/b&gt;&lt;br&gt;metal ABC transporter ATP-binding protein&lt;br&gt;Location: 1049388 - 1048645&lt;br&gt;&lt;br&gt;&lt;b&gt;BlastP hit with MCIC6FC_005836&lt;/b&gt;&lt;br&gt;Percentage identity: 97&lt;br&gt;Percentage coverage: 45&lt;br&gt;BLAST bit score: 469&lt;br&gt;E-value: 5.4e-130" locus_tag="BT254_RS11825" class="clusterblast-orf" id="dummy-4_h4_2_5"  />
</g>
<g id="a4_006"  >
<polygon points="69,90 78,90 83,85 78,80 69,80 69,90 " style="fill:#15bfd8; stroke-width:1; stroke:black; " description="&lt;b&gt;BT254_RS11820&lt;/b&gt;&lt;br&gt;metal ABC transporter permease&lt;br&gt;Location: 1048645 - 1047746&lt;br&gt;&lt;br&gt;&lt;b&gt;BlastP hit with MCIC6FC_005837&lt;/b&gt;&lt;br&gt;Percentage identity: 99&lt;br&gt;Percentage coverage: 49&lt;br&gt;BLAST bit score: 449&lt;br&gt;E-value: 6.2e-124" locus_tag="BT254_RS11820" class="clusterblast-orf" id="dummy-4_h4_2_6"  />
</g>
<g id="a4_007"  >
<polygon points="83,90 93,90 98,85 93,80 83,80 83,90 " style="fill:#15bfd8; stroke-width:1; stroke:black; " description="&lt;b&gt;BT254_RS11815&lt;/b&gt;&lt;br&gt;zinc ABC transporter substrate-binding protein&lt;br&gt;Location: 1047745 - 1046762&lt;br&gt;&lt;br&gt;&lt;b&gt;BlastP hit with MCIC6FC_005837&lt;/b&gt;&lt;br&gt;Percentage identity: 88&lt;br&gt;Percentage coverage: 55&lt;br&gt;BLAST bit score: 537&lt;br&gt;E-value: 1.3e-150" locus_tag="BT254_RS11815" class="clusterblast-orf" id="dummy-4_h4_2_7"  />
</g>
<g id="a4_008"  >
<polygon points="101,90 109,90 114,85 109,80 101,80 101,90 " style="fill:#9d15d8; stroke-width:1; stroke:black; " description="&lt;b&gt;BT254_RS11810&lt;/b&gt;&lt;br&gt;class I SAM-dependent methyltransferase&lt;br&gt;Location: 1046550 - 1045723&lt;br&gt;&lt;br&gt;&lt;b&gt;BlastP hit with MCIC6FC_005838&lt;/b&gt;&lt;br&gt;Percentage identity: 92&lt;br&gt;Percentage coverage: 99&lt;br&gt;BLAST bit score: 529&lt;br&gt;E-value: 1.7e-148" locus_tag="BT254_RS11810" class="clusterblast-orf" id="dummy-4_h4_2_8"  />
</g>
<g id="a4_009"  >
<polygon points="118,85 121,80 121,90 118,85 " style="fill:#d84815; stroke-width:1; stroke:black; " description="&lt;b&gt;BT254_RS11805&lt;/b&gt;&lt;br&gt;MbtH family protein&lt;br&gt;Location: 1045433 - 1045209&lt;br&gt;&lt;br&gt;&lt;b&gt;BlastP hit with MCIC6FC_005839&lt;/b&gt;&lt;br&gt;Percentage identity: 100&lt;br&gt;Percentage coverage: 14&lt;br&gt;BLAST bit score: 160&lt;br&gt;E-value: 4e-37" locus_tag="BT254_RS11805" class="clusterblast-orf" id="dummy-4_h4_2_9"  />
</g>
<g id="a4_0010"  >
<polygon points="123,85 128,80 144,80 144,90 128,90 123,85 " style="fill:#d84815; stroke-width:1; stroke:black; " description="&lt;b&gt;BT254_RS11800&lt;/b&gt;&lt;br&gt;aspartate aminotransferase family protein&lt;br&gt;Location: 1045126 - 1043714&lt;br&gt;&lt;br&gt;&lt;b&gt;BlastP hit with MCIC6FC_005839&lt;/b&gt;&lt;br&gt;Percentage identity: 93&lt;br&gt;Percentage coverage: 88&lt;br&gt;BLAST bit score: 845&lt;br&gt;E-value: 2.7e-243" locus_tag="BT254_RS11800" class="clusterblast-orf" id="dummy-4_h4_2_10"  />
</g>
<g id="a4_0011"  >
<polygon points="148,85 153,80 168,80 168,90 153,90 148,85 " style="fill:#37d815; stroke-width:1; stroke:black; " description="&lt;b&gt;BT254_RS11795&lt;/b&gt;&lt;br&gt;two-component sensor histidine kinase&lt;br&gt;Location: 1043478 - 1042153&lt;br&gt;&lt;br&gt;&lt;b&gt;BlastP hit with MCIC6FC_005840&lt;/b&gt;&lt;br&gt;Percentage identity: 95&lt;br&gt;Percentage coverage: 103&lt;br&gt;BLAST bit score: 758&lt;br&gt;E-value: 3.3e-217" locus_tag="BT254_RS11795" class="clusterblast-orf" id="dummy-4_h4_2_11"  />
</g>
<g id="a4_0012"  >
<polygon points="168,85 173,80 178,80 178,90 173,90 168,85 " style="fill:#158cd8; stroke-width:1; stroke:black; " description="&lt;b&gt;BT254_RS11790&lt;/b&gt;&lt;br&gt;response regulator&lt;br&gt;Location: 1042152 - 1041475&lt;br&gt;&lt;br&gt;&lt;b&gt;BlastP hit with MCIC6FC_005841&lt;/b&gt;&lt;br&gt;Percentage identity: 99&lt;br&gt;Percentage coverage: 100&lt;br&gt;BLAST bit score: 433&lt;br&gt;E-value: 1.4e-119" locus_tag="BT254_RS11790" class="clusterblast-orf" id="dummy-4_h4_2_12"  />
</g>
<g id="a4_0013"  >
<polygon points="181,90 202,90 207,85 202,80 181,80 181,90 " style="fill:#d015d8; stroke-width:1; stroke:black; " description="&lt;b&gt;BT254_RS11785&lt;/b&gt;&lt;br&gt;protein-disulfide reductase DsbD&lt;br&gt;Location: 1041321 - 1039570&lt;br&gt;&lt;br&gt;&lt;b&gt;BlastP hit with MCIC6FC_005842&lt;/b&gt;&lt;br&gt;Percentage identity: 93&lt;br&gt;Percentage coverage: 77&lt;br&gt;BLAST bit score: 1031&lt;br&gt;E-value: 4.8e-299" locus_tag="BT254_RS11785" class="clusterblast-orf" id="dummy-4_h4_2_13"  />
</g>
<g id="a4_0014"  >
<polygon points="207,90 215,90 220,85 215,80 207,80 207,90 " style="fill:#d015d8; stroke-width:1; stroke:black; " description="&lt;b&gt;BT254_RS11780&lt;/b&gt;&lt;br&gt;TlpA family protein disulfide reductase&lt;br&gt;Location: 1039570 - 1038707&lt;br&gt;&lt;br&gt;&lt;b&gt;BlastP hit with MCIC6FC_005842&lt;/b&gt;&lt;br&gt;Percentage identity: 97&lt;br&gt;Percentage coverage: 21&lt;br&gt;BLAST bit score: 297&lt;br&gt;E-value: 4.9e-78&lt;br&gt;&lt;br&gt;&lt;b&gt;BlastP hit with MCIC6FC_005843&lt;/b&gt;&lt;br&gt;Percentage identity: 99&lt;br&gt;Percentage coverage: 28&lt;br&gt;BLAST bit score: 191&lt;br&gt;E-value: 1.9e-46" locus_tag="BT254_RS11780" class="clusterblast-orf" id="dummy-4_h4_2_14"  />
</g>
<g id="a4_0015"  >
<polygon points="220,90 227,90 232,85 227,80 220,80 220,90 " style="fill:#d015d8; stroke-width:1; stroke:black; " description="&lt;b&gt;BT254_RS11775&lt;/b&gt;&lt;br&gt;thiol:disulfide interchange protein DsbG&lt;br&gt;Location: 1038731 - 1037964&lt;br&gt;&lt;br&gt;&lt;b&gt;BlastP hit with MCIC6FC_005843&lt;/b&gt;&lt;br&gt;Percentage identity: 96&lt;br&gt;Percentage coverage: 72&lt;br&gt;BLAST bit score: 495&lt;br&gt;E-value: 3.6e-138" locus_tag="BT254_RS11775" class="clusterblast-orf" id="dummy-4_h4_2_15"  />
</g>
<g id="a4_0016"  >
<polygon points="236,85 241,80 249,80 249,90 241,90 236,85 " style="fill:#d87b15; stroke-width:1; stroke:black; " description="&lt;b&gt;BT254_RS11770&lt;/b&gt;&lt;br&gt;alpha/beta fold hydrolase&lt;br&gt;Location: 1037652 - 1036840&lt;br&gt;&lt;br&gt;&lt;b&gt;BlastP hit with MCIC6FC_005844&lt;/b&gt;&lt;br&gt;Percentage identity: 92&lt;br&gt;Percentage coverage: 86&lt;br&gt;BLAST bit score: 496&lt;br&gt;E-value: 1.8e-138" locus_tag="BT254_RS11770" class="clusterblast-orf" id="dummy-4_h4_2_16"  />
</g>
<g id="a4_0017"  >
<polygon points="250,85 255,80 256,80 256,90 255,90 250,85 " style="fill:#15d826; stroke-width:1; stroke:black; " description="&lt;b&gt;BT254_RS11765&lt;/b&gt;&lt;br&gt;hypothetical protein&lt;br&gt;Location: 1036731 - 1036375&lt;br&gt;&lt;br&gt;&lt;b&gt;BlastP hit with MCIC6FC_005845&lt;/b&gt;&lt;br&gt;Percentage identity: 90&lt;br&gt;Percentage coverage: 77&lt;br&gt;BLAST bit score: 202&lt;br&gt;E-value: 2.5e-50" locus_tag="BT254_RS11765" class="clusterblast-orf" id="dummy-4_h4_2_17"  />
</g>
<g id="a4_0018"  >
<polygon points="262,85 267,80 278,80 278,90 267,90 262,85 " style="fill:#1559d8; stroke-width:1; stroke:black; " description="&lt;b&gt;BT254_RS11760&lt;/b&gt;&lt;br&gt;hypothetical protein&lt;br&gt;Location: 1035934 - 1034885&lt;br&gt;&lt;br&gt;&lt;b&gt;BlastP hit with MCIC6FC_005846&lt;/b&gt;&lt;br&gt;Percentage identity: 87&lt;br&gt;Percentage coverage: 50&lt;br&gt;BLAST bit score: 645&lt;br&gt;E-value: 5.5e-183" locus_tag="BT254_RS11760" class="clusterblast-orf" id="dummy-4_h4_2_18"  />
</g>
<g id="a4_0019"  >
<polygon points="280,85 285,80 296,80 296,90 285,90 280,85 " style="fill:#1559d8; stroke-width:1; stroke:black; " description="&lt;b&gt;BT254_RS11755&lt;/b&gt;&lt;br&gt;hypothetical protein&lt;br&gt;Location: 1034765 - 1033728&lt;br&gt;&lt;br&gt;&lt;b&gt;BlastP hit with MCIC6FC_005846&lt;/b&gt;&lt;br&gt;Percentage identity: 89&lt;br&gt;Percentage coverage: 48&lt;br&gt;BLAST bit score: 642&lt;br&gt;E-value: 4.6e-182" locus_tag="BT254_RS11755" class="clusterblast-orf" id="dummy-4_h4_2_19"  />
</g>
<g id="a4_0020"  >
<polygon points="299,85 304,80 497,80 497,90 304,90 299,85 " style="fill:#d815ae; stroke-width:1; stroke:black; " description="&lt;b&gt;BT254_RS11750&lt;/b&gt;&lt;br&gt;non-ribosomal peptide synthetase&lt;br&gt;Location: 1033500 - 1020472&lt;br&gt;&lt;br&gt;&lt;b&gt;BlastP hit with MCIC6FC_005847&lt;/b&gt;&lt;br&gt;Percentage identity: 95&lt;br&gt;Percentage coverage: 101&lt;br&gt;BLAST bit score: 8254&lt;br&gt;E-value: 0.0" locus_tag="BT254_RS11750" class="clusterblast-orf" id="dummy-4_h4_2_20"  />
</g>
<g id="a4_0021"  >
<polygon points="503,90 506,90 511,85 506,80 503,80 503,90 " style="fill:#d8ae15; stroke-width:1; stroke:black; " description="&lt;b&gt;BT254_RS11745&lt;/b&gt;&lt;br&gt;RNA polymerase factor sigma-70&lt;br&gt;Location: 1020098 - 1019550&lt;br&gt;&lt;br&gt;&lt;b&gt;BlastP hit with MCIC6FC_005848&lt;/b&gt;&lt;br&gt;Percentage identity: 99&lt;br&gt;Percentage coverage: 98&lt;br&gt;BLAST bit score: 328&lt;br&gt;E-value: 3.6e-88" locus_tag="BT254_RS11745" class="clusterblast-orf" id="dummy-4_h4_2_21"  />
</g>
<g id="a4_0022"  >
<polygon points="512,85 517,80 517,80 517,90 517,90 512,85 " style="fill:#15d859; stroke-width:1; stroke:black; " description="&lt;b&gt;BT254_RS11740&lt;/b&gt;&lt;br&gt;pyoverdine biosynthesis protein&lt;br&gt;Location: 1019516 - 1019157&lt;br&gt;&lt;br&gt;&lt;b&gt;BlastP hit with MCIC6FC_005849&lt;/b&gt;&lt;br&gt;Percentage identity: 78&lt;br&gt;Percentage coverage: 30&lt;br&gt;BLAST bit score: 184&lt;br&gt;E-value: 1.9e-44" locus_tag="BT254_RS11740" class="clusterblast-orf" id="dummy-4_h4_2_22"  />
</g>
<g id="a4_0023"  >
<polygon points="519,85 524,80 531,80 531,90 524,90 519,85 " style="fill:#15d859; stroke-width:1; stroke:black; " description="&lt;b&gt;BT254_RS11735&lt;/b&gt;&lt;br&gt;transporter substrate-binding domain-containing protein&lt;br&gt;Location: 1019061 - 1018267&lt;br&gt;&lt;br&gt;&lt;b&gt;BlastP hit with MCIC6FC_005849&lt;/b&gt;&lt;br&gt;Percentage identity: 76&lt;br&gt;Percentage coverage: 67&lt;br&gt;BLAST bit score: 376&lt;br&gt;E-value: 2.7e-102" locus_tag="BT254_RS11735" class="clusterblast-orf" id="dummy-4_h4_2_23"  />
</g>
<g id="a4_0024"  >
<polygon points="532,85 537,80 542,80 542,90 537,90 532,85 " style="fill:#1526d8; stroke-width:1; stroke:black; " description="&lt;b&gt;BT254_RS11730&lt;/b&gt;&lt;br&gt;TetR family transcriptional regulator&lt;br&gt;Location: 1018170 - 1017547&lt;br&gt;&lt;br&gt;&lt;b&gt;BlastP hit with MCIC6FC_005850&lt;/b&gt;&lt;br&gt;Percentage identity: 98&lt;br&gt;Percentage coverage: 92&lt;br&gt;BLAST bit score: 392&lt;br&gt;E-value: 3.5e-107" locus_tag="BT254_RS11730" class="clusterblast-orf" id="dummy-4_h4_2_24"  />
</g>
<g id="a4_0025"  >
<polygon points="545,90 567,90 572,85 567,80 545,80 545,90 " style="fill:#d8157b; stroke-width:1; stroke:black; " description="&lt;b&gt;BT254_RS11725&lt;/b&gt;&lt;br&gt;DUF1446 domain-containing protein&lt;br&gt;Location: 1017360 - 1015570&lt;br&gt;&lt;br&gt;&lt;b&gt;BlastP hit with MCIC6FC_005851&lt;/b&gt;&lt;br&gt;Percentage identity: 90&lt;br&gt;Percentage coverage: 45&lt;br&gt;BLAST bit score: 1085&lt;br&gt;E-value: 0.0" locus_tag="BT254_RS11725" class="clusterblast-orf" id="dummy-4_h4_2_25"  />
</g>
<g id="a4_0026"  >
<polygon points="572,90 580,90 585,85 580,80 572,80 572,90 " style="fill:#d8157b; stroke-width:1; stroke:black; " description="&lt;b&gt;BT254_RS11720&lt;/b&gt;&lt;br&gt;SDR family oxidoreductase&lt;br&gt;Location: 1015559 - 1014690&lt;br&gt;&lt;br&gt;&lt;b&gt;BlastP hit with MCIC6FC_005851&lt;/b&gt;&lt;br&gt;Percentage identity: 92&lt;br&gt;Percentage coverage: 19&lt;br&gt;BLAST bit score: 456&lt;br&gt;E-value: 9e-126" locus_tag="BT254_RS11720" class="clusterblast-orf" id="dummy-4_h4_2_26"  />
</g>
<g id="a4_0027"  >
<polygon points="585,90 605,90 610,85 605,80 585,80 585,90 " style="fill:#d8157b; stroke-width:1; stroke:black; " description="&lt;b&gt;BT254_RS11715&lt;/b&gt;&lt;br&gt;acyl-CoA carboxylase subunit beta&lt;br&gt;Location: 1014686 - 1013070&lt;br&gt;&lt;br&gt;&lt;b&gt;BlastP hit with MCIC6FC_005851&lt;/b&gt;&lt;br&gt;Percentage identity: 97&lt;br&gt;Percentage coverage: 38&lt;br&gt;BLAST bit score: 978&lt;br&gt;E-value: 6.8e-283" locus_tag="BT254_RS11715" class="clusterblast-orf" id="dummy-4_h4_2_27"  />
</g>
<g id="a4_0028"  >
<polygon points="611,90 623,90 628,85 623,80 611,80 611,90 " style="fill:#d0d815; stroke-width:1; stroke:black; " description="&lt;b&gt;BT254_RS11710&lt;/b&gt;&lt;br&gt;acyl-CoA dehydrogenase family protein&lt;br&gt;Location: 1013028 - 1011871&lt;br&gt;&lt;br&gt;&lt;b&gt;BlastP hit with MCIC6FC_005852&lt;/b&gt;&lt;br&gt;Percentage identity: 99&lt;br&gt;Percentage coverage: 58&lt;br&gt;BLAST bit score: 735&lt;br&gt;E-value: 4.7e-210" locus_tag="BT254_RS11710" class="clusterblast-orf" id="dummy-4_h4_2_28"  />
</g>
<g id="a4_0029"  >
<polygon points="628,90 635,90 640,85 635,80 628,80 628,90 " style="fill:#d0d815; stroke-width:1; stroke:black; " description="&lt;b&gt;BT254_RS11705&lt;/b&gt;&lt;br&gt;enoyl-CoA hydratase/isomerase family protein&lt;br&gt;Location: 1011874 - 1011077&lt;br&gt;&lt;br&gt;&lt;b&gt;BlastP hit with MCIC6FC_005852&lt;/b&gt;&lt;br&gt;Percentage identity: 91&lt;br&gt;Percentage coverage: 42&lt;br&gt;BLAST bit score: 453&lt;br&gt;E-value: 4.6e-125" locus_tag="BT254_RS11705" class="clusterblast-orf" id="dummy-4_h4_2_29"  />
</g>
<g id="a4_0030"  >
<polygon points="641,90 666,90 671,85 666,80 641,80 641,90 " style="fill:#15d88c; stroke-width:1; stroke:black; " description="&lt;b&gt;BT254_RS11700&lt;/b&gt;&lt;br&gt;acetyl/propionyl/methylcrotonyl-CoA carboxylase subunit alpha&lt;br&gt;Location: 1011019 - 1009064&lt;br&gt;&lt;br&gt;&lt;b&gt;BlastP hit with MCIC6FC_005853&lt;/b&gt;&lt;br&gt;Percentage identity: 91&lt;br&gt;Percentage coverage: 100&lt;br&gt;BLAST bit score: 1157&lt;br&gt;E-value: 0.0" locus_tag="BT254_RS11700" class="clusterblast-orf" id="dummy-4_h4_2_30"  />
</g>
<g id="a4_0031"  >
<polygon points="673,90 676,90 681,85 676,80 673,80 673,90 " style="fill:#3715d8; stroke-width:1; stroke:black; " description="&lt;b&gt;BT254_RS11695&lt;/b&gt;&lt;br&gt;3'-5' exoribonuclease&lt;br&gt;Location: 1008914 - 1008375&lt;br&gt;&lt;br&gt;&lt;b&gt;BlastP hit with MCIC6FC_005854&lt;/b&gt;&lt;br&gt;Percentage identity: 97&lt;br&gt;Percentage coverage: 100&lt;br&gt;BLAST bit score: 319&lt;br&gt;E-value: 2e-85" locus_tag="BT254_RS11695" class="clusterblast-orf" id="dummy-4_h4_2_31"  />
</g>
<g id="a4_0032"  >
<polygon points="682,90 682,90 687,85 682,80 682,80 682,90 " style="fill:#d81548; stroke-width:1; stroke:black; " description="&lt;b&gt;BT254_RS11690&lt;/b&gt;&lt;br&gt;pyrimidine/purine nucleoside phosphorylase&lt;br&gt;Location: 1008300 - 1008016&lt;br&gt;&lt;br&gt;&lt;b&gt;BlastP hit with MCIC6FC_005855&lt;/b&gt;&lt;br&gt;Percentage identity: 99&lt;br&gt;Percentage coverage: 100&lt;br&gt;BLAST bit score: 195&lt;br&gt;E-value: 2.6e-48" locus_tag="BT254_RS11690" class="clusterblast-orf" id="dummy-4_h4_2_32"  />
</g>
<g id="a4_0033"  >
<polygon points="688,85 693,80 700,80 700,90 693,90 688,85 " style="fill:#9dd815; stroke-width:1; stroke:black; " description="&lt;b&gt;BT254_RS11685&lt;/b&gt;&lt;br&gt;MOSC domain-containing protein&lt;br&gt;Location: 1007939 - 1007136&lt;br&gt;&lt;br&gt;&lt;b&gt;BlastP hit with MCIC6FC_005856&lt;/b&gt;&lt;br&gt;Percentage identity: 87&lt;br&gt;Percentage coverage: 48&lt;br&gt;BLAST bit score: 465&lt;br&gt;E-value: 1.1e-128" locus_tag="BT254_RS11685" class="clusterblast-orf" id="dummy-4_h4_2_33"  />
</g>
<g id="a4_0034"  >
<polygon points="701,85 706,80 716,80 716,90 706,90 701,85 " style="fill:#9dd815; stroke-width:1; stroke:black; " description="&lt;b&gt;BT254_RS11680&lt;/b&gt;&lt;br&gt;chemotaxis protein CheV&lt;br&gt;Location: 1007053 - 1006118&lt;br&gt;&lt;br&gt;&lt;b&gt;BlastP hit with MCIC6FC_005856&lt;/b&gt;&lt;br&gt;Percentage identity: 99&lt;br&gt;Percentage coverage: 55&lt;br&gt;BLAST bit score: 599&lt;br&gt;E-value: 2.8e-169" locus_tag="BT254_RS11680" class="clusterblast-orf" id="dummy-4_h4_2_34"  />
</g>
<g id="a4_0035"  >
<polygon points="724,90 726,90 731,85 726,80 724,80 724,90 " style="fill:#15d8bf; stroke-width:1; stroke:black; " description="&lt;b&gt;BT254_RS11675&lt;/b&gt;&lt;br&gt;hypothetical protein&lt;br&gt;Location: 1005556 - 1005119&lt;br&gt;&lt;br&gt;&lt;b&gt;BlastP hit with MCIC6FC_005857&lt;/b&gt;&lt;br&gt;Percentage identity: 82&lt;br&gt;Percentage coverage: 20&lt;br&gt;BLAST bit score: 217&lt;br&gt;E-value: 3.5e-54" locus_tag="BT254_RS11675" class="clusterblast-orf" id="dummy-4_h4_2_35"  />
</g>
<g id="a4_0036"  >
<polygon points="739,90 747,90 752,85 747,80 739,80 739,90 " style="fill:#15d8bf; stroke-width:1; stroke:black; " description="&lt;b&gt;BT254_RS11670&lt;/b&gt;&lt;br&gt;sensor histidine kinase&lt;br&gt;Location: 1004581 - 1003688&lt;br&gt;&lt;br&gt;&lt;b&gt;BlastP hit with MCIC6FC_005857&lt;/b&gt;&lt;br&gt;Percentage identity: 94&lt;br&gt;Percentage coverage: 40&lt;br&gt;BLAST bit score: 490&lt;br&gt;E-value: 2.1e-136" locus_tag="BT254_RS11670" class="clusterblast-orf" id="dummy-4_h4_2_36"  />
</g>
<g id="a4_0037"  >
<polygon points="752,90 757,90 762,85 757,80 752,80 752,90 " style="fill:#15d8bf; stroke-width:1; stroke:black; " description="&lt;b&gt;BT254_RS11665&lt;/b&gt;&lt;br&gt;response regulator transcription factor&lt;br&gt;Location: 1003691 - 1003032&lt;br&gt;&lt;br&gt;&lt;b&gt;BlastP hit with MCIC6FC_005857&lt;/b&gt;&lt;br&gt;Percentage identity: 92&lt;br&gt;Percentage coverage: 31&lt;br&gt;BLAST bit score: 359&lt;br&gt;E-value: 9.6e-97" locus_tag="BT254_RS11665" class="clusterblast-orf" id="dummy-4_h4_2_37"  />
</g>
<g id="a4_0038"  >
<polygon points="762,85 767,80 776,80 776,90 767,90 762,85 " style="fill:#6a15d8; stroke-width:1; stroke:black; " description="&lt;b&gt;BT254_RS11660&lt;/b&gt;&lt;br&gt;lipid kinase YegS&lt;br&gt;Location: 1003030 - 1002131&lt;br&gt;&lt;br&gt;&lt;b&gt;BlastP hit with MCIC6FC_005858&lt;/b&gt;&lt;br&gt;Percentage identity: 96&lt;br&gt;Percentage coverage: 96&lt;br&gt;BLAST bit score: 556&lt;br&gt;E-value: 1.5e-156" locus_tag="BT254_RS11660" class="clusterblast-orf" id="dummy-4_h4_2_38"  />
</g>
</svg>
