<svg xmlns="http://www.w3.org/2000/svg" xmlns:xlink="http://www.w3.org/1999/xlink" version="1.1" x="0" y="0" height="230" width="800" viewBox="0 0 800 230" preserveAspectRatio="none"  >
<g label="Query sequence" class="clusterblast-cluster"  >
<text x="5" y="20" class="clusterblast-acc"  >
Query sequence</text>
<line x1="10" y1="35" x2="778.0" y2="35" style="stroke-width:1; stroke:grey; "  />
<polygon points="13,40 40,40 45,35 40,30 13,30 13,40 " style="fill:#d81515; stroke-width:1; stroke:black; " description="&lt;b&gt;MCIC6FC_014458&lt;/b&gt;&lt;br&gt;hypothetical protein&lt;br&gt;Location: 58503 - 59449" locus_tag="MCIC6FC_014458" class="clusterblast-orf" id="dummy-1_q0_0_all"  />
<polygon points="45,35 50,30 85,30 85,40 50,40 45,35 " style="fill:#4dd815; stroke-width:1; stroke:black; " description="&lt;b&gt;MCIC6FC_014459&lt;/b&gt;&lt;br&gt;hypothetical protein&lt;br&gt;Location: 59458 - 60638" locus_tag="MCIC6FC_014459" class="clusterblast-orf" id="dummy-1_q1_0_all"  />
<polygon points="98,40 246,40 251,35 246,30 98,30 98,40 " style="fill:#1585d8; stroke-width:1; stroke:black; " description="&lt;b&gt;MCIC6FC_014460&lt;/b&gt;&lt;br&gt;hypothetical protein&lt;br&gt;Location: 61014 - 65580" locus_tag="MCIC6FC_014460" class="clusterblast-orf" id="dummy-1_q2_0_all"  />
<polygon points="252,40 282,40 287,35 282,30 252,30 252,40 " style="fill:#d815bc; stroke-width:1; stroke:black; " description="&lt;b&gt;MCIC6FC_014461&lt;/b&gt;&lt;br&gt;hypothetical protein&lt;br&gt;Location: 65596 - 66626" locus_tag="MCIC6FC_014461" class="clusterblast-orf" id="dummy-1_q3_0_all"  />
<polygon points="302,35 307,30 505,30 505,40 307,40 302,35 " style="fill:#d8bc15; stroke-width:1; stroke:black; " description="&lt;b&gt;MCIC6FC_014462&lt;/b&gt;&lt;br&gt;hypothetical protein&lt;br&gt;Location: 67094 - 73132" locus_tag="MCIC6FC_014462" class="clusterblast-orf" id="dummy-1_q4_0_all"  />
<polygon points="513,35 518,30 642,30 642,40 518,40 513,35 " style="fill:#15d885; stroke-width:1; stroke:black; " description="&lt;b&gt;MCIC6FC_014463&lt;/b&gt;&lt;br&gt;hypothetical protein&lt;br&gt;Location: 73348 - 77189" locus_tag="MCIC6FC_014463" class="clusterblast-orf" id="dummy-1_q5_0_all"  />
<polygon points="729,35 734,30 766,30 766,40 734,40 729,35 " style="fill:#4d15d8; stroke-width:1; stroke:black; " description="&lt;b&gt;MCIC6FC_014464&lt;/b&gt;&lt;br&gt;hypothetical protein&lt;br&gt;Location: 79782 - 80891" locus_tag="MCIC6FC_014464" class="clusterblast-orf" id="dummy-1_q6_0_all"  />
</g>
<g label="NZ_CP048034" description="NZ_CP048034 (407270-430832): Pantoea agglomerans strain UAEU18 plasmid unnamed1 (62% of genes show similarity), terpene" class="clusterblast-cluster"  >
<text x="5" y="70" class="clusterblast-acc"  >
<a xlink:href="https://antismash-db.secondarymetabolites.org/area.html?record=NZ_CP048034&amp;start=407270&amp;end=430832" target="_blank">NZ_CP048034 (407270-430832)</a>: Pantoea agglomerans strain UAEU18 plasmid unnamed1 (62% of genes show similarity), terpene</text>
<line x1="10" y1="85" x2="778.0" y2="85" style="stroke-width:1; stroke:grey; "  />
</g>
<g id="a1_000"  >
<polygon points="0,90 1,90 6,85 1,80 0,80 0,90 " style="fill:white; stroke-width:1; stroke:black; " description="&lt;b&gt;GW574_RS20700&lt;/b&gt;&lt;br&gt;sulfur carrier protein ThiS&lt;br&gt;Location: 430703 - 430506" locus_tag="GW574_RS20700" class="clusterblast-orf" id="dummy-1_h1_10_0"  />
</g>
<g id="a1_001"  >
<polygon points="6,90 27,90 32,85 27,80 6,80 6,90 " style="fill:white; stroke-width:1; stroke:black; " description="&lt;b&gt;GW574_RS20695&lt;/b&gt;&lt;br&gt;thiazole synthase&lt;br&gt;Location: 430503 - 429745" locus_tag="GW574_RS20695" class="clusterblast-orf" id="dummy-1_h1_10_1"  />
</g>
<g id="a1_002"  >
<polygon points="32,90 60,90 65,85 60,80 32,80 32,90 " style="fill:#d81515; stroke-width:1; stroke:black; " description="&lt;b&gt;GW574_RS20690&lt;/b&gt;&lt;br&gt;HesA/MoeB/ThiF family protein&lt;br&gt;Location: 429735 - 428767&lt;br&gt;&lt;br&gt;&lt;b&gt;BlastP hit with MCIC6FC_014458&lt;/b&gt;&lt;br&gt;Percentage identity: 88&lt;br&gt;Percentage coverage: 103&lt;br&gt;BLAST bit score: 528&lt;br&gt;E-value: 4.2e-148" locus_tag="GW574_RS20690" class="clusterblast-orf" id="dummy-1_h1_10_2"  />
</g>
<g id="a1_003"  >
<polygon points="65,85 70,80 79,80 79,90 70,90 65,85 " style="fill:#4dd815; stroke-width:1; stroke:black; " description="&lt;b&gt;GW574_RS20685&lt;/b&gt;&lt;br&gt;ASCH domain-containing protein&lt;br&gt;Location: 428757 - 428344&lt;br&gt;&lt;br&gt;&lt;b&gt;BlastP hit with MCIC6FC_014459&lt;/b&gt;&lt;br&gt;Percentage identity: 94&lt;br&gt;Percentage coverage: 40&lt;br&gt;BLAST bit score: 267&lt;br&gt;E-value: 1.5e-69" locus_tag="GW574_RS20685" class="clusterblast-orf" id="dummy-1_h1_10_3"  />
</g>
<g id="a1_004"  >
<polygon points="87,85 92,80 106,80 106,90 92,90 87,85 " style="fill:#4dd815; stroke-width:1; stroke:black; " description="&lt;b&gt;GW574_RS20680&lt;/b&gt;&lt;br&gt;thioredoxin domain-containing protein&lt;br&gt;Location: 428091 - 427549&lt;br&gt;&lt;br&gt;&lt;b&gt;BlastP hit with MCIC6FC_014459&lt;/b&gt;&lt;br&gt;Percentage identity: 92&lt;br&gt;Percentage coverage: 52&lt;br&gt;BLAST bit score: 353&lt;br&gt;E-value: 2.1e-95" locus_tag="GW574_RS20680" class="clusterblast-orf" id="dummy-1_h1_10_4"  />
</g>
<g id="a1_005"  >
<polygon points="116,90 120,90 125,85 120,80 116,80 116,90 " style="fill:white; stroke-width:1; stroke:black; " description="&lt;b&gt;GW574_RS20675&lt;/b&gt;&lt;br&gt;hypothetical protein&lt;br&gt;Location: 427231 - 426962" locus_tag="GW574_RS20675" class="clusterblast-orf" id="dummy-1_h1_10_5"  />
</g>
<g id="a1_006"  >
<polygon points="140,90 155,90 160,85 155,80 140,80 140,90 " style="fill:white; stroke-width:1; stroke:black; " description="&lt;b&gt;GW574_RS20670&lt;/b&gt;&lt;br&gt;type 1 fimbrial protein&lt;br&gt;Location: 426515 - 425925" locus_tag="GW574_RS20670" class="clusterblast-orf" id="dummy-1_h1_10_6"  />
</g>
<g id="a1_007"  >
<polygon points="164,90 180,90 185,85 180,80 164,80 164,90 " style="fill:#1585d8; stroke-width:1; stroke:black; " description="&lt;b&gt;GW574_RS20665&lt;/b&gt;&lt;br&gt;molecular chaperone&lt;br&gt;Location: 425827 - 425201&lt;br&gt;&lt;br&gt;&lt;b&gt;BlastP hit with MCIC6FC_014460&lt;/b&gt;&lt;br&gt;Percentage identity: 56&lt;br&gt;Percentage coverage: 19&lt;br&gt;BLAST bit score: 210&lt;br&gt;E-value: 8.8e-52" locus_tag="GW574_RS20665" class="clusterblast-orf" id="dummy-1_h1_10_7"  />
</g>
<g id="a1_008"  >
<polygon points="189,90 266,90 271,85 266,80 189,80 189,90 " style="fill:#1585d8; stroke-width:1; stroke:black; " description="&lt;b&gt;GW574_RS20660&lt;/b&gt;&lt;br&gt;fimbrial biogenesis outer membrane usher protein&lt;br&gt;Location: 425074 - 422633&lt;br&gt;&lt;br&gt;&lt;b&gt;BlastP hit with MCIC6FC_014460&lt;/b&gt;&lt;br&gt;Percentage identity: 86&lt;br&gt;Percentage coverage: 78&lt;br&gt;BLAST bit score: 1390&lt;br&gt;E-value: 0.0" locus_tag="GW574_RS20660" class="clusterblast-orf" id="dummy-1_h1_10_8"  />
</g>
<g id="a1_009"  >
<polygon points="272,90 304,90 309,85 304,80 272,80 272,90 " style="fill:#d815bc; stroke-width:1; stroke:black; " description="&lt;b&gt;GW574_RS20655&lt;/b&gt;&lt;br&gt;fimbrial protein&lt;br&gt;Location: 422616 - 421507&lt;br&gt;&lt;br&gt;&lt;b&gt;BlastP hit with MCIC6FC_014461&lt;/b&gt;&lt;br&gt;Percentage identity: 77&lt;br&gt;Percentage coverage: 107&lt;br&gt;BLAST bit score: 507&lt;br&gt;E-value: 1e-141" locus_tag="GW574_RS20655" class="clusterblast-orf" id="dummy-1_h1_10_9"  />
</g>
<g id="a1_0010"  >
<polygon points="316,90 329,90 334,85 329,80 316,80 316,90 " style="fill:white; stroke-width:1; stroke:black; " description="&lt;b&gt;GW574_RS20650&lt;/b&gt;&lt;br&gt;beta-carotene hydroxylase&lt;br&gt;Location: 421298 - 420771" locus_tag="GW574_RS20650" class="clusterblast-orf" id="dummy-1_h1_10_10"  />
</g>
<g id="a1_0011"  >
<polygon points="332,85 337,80 363,80 363,90 337,90 332,85 " style="fill:#d8bc15; stroke-width:1; stroke:black; " description="&lt;b&gt;GW574_RS20645&lt;/b&gt;&lt;br&gt;phytoene/squalene synthase family protein&lt;br&gt;Location: 420832 - 419903&lt;br&gt;&lt;br&gt;&lt;b&gt;BlastP hit with MCIC6FC_014462&lt;/b&gt;&lt;br&gt;Percentage identity: 94&lt;br&gt;Percentage coverage: 16&lt;br&gt;BLAST bit score: 579&lt;br&gt;E-value: 9.9e-163" locus_tag="GW574_RS20645" class="clusterblast-orf" id="dummy-1_h1_10_11"  />
</g>
<g id="a1_0012"  >
<polygon points="363,85 368,80 412,80 412,90 368,90 363,85 " style="fill:#d8bc15; stroke-width:1; stroke:black; " description="&lt;b&gt;GW574_RS20640&lt;/b&gt;&lt;br&gt;phytoene desaturase&lt;br&gt;Location: 419906 - 418428&lt;br&gt;&lt;br&gt;&lt;b&gt;BlastP hit with MCIC6FC_014462&lt;/b&gt;&lt;br&gt;Percentage identity: 91&lt;br&gt;Percentage coverage: 25&lt;br&gt;BLAST bit score: 891&lt;br&gt;E-value: 1.5e-256" locus_tag="GW574_RS20640" class="clusterblast-orf" id="dummy-1_h1_10_12"  />
</g>
<g id="a1_0013"  >
<polygon points="412,85 417,80 451,80 451,90 417,90 412,85 " style="fill:#d8bc15; stroke-width:1; stroke:black; " description="&lt;b&gt;GW574_RS20635&lt;/b&gt;&lt;br&gt;lycopene beta-cyclase CrtY&lt;br&gt;Location: 418431 - 417271&lt;br&gt;&lt;br&gt;&lt;b&gt;BlastP hit with MCIC6FC_014462&lt;/b&gt;&lt;br&gt;Percentage identity: 91&lt;br&gt;Percentage coverage: 19&lt;br&gt;BLAST bit score: 663&lt;br&gt;E-value: 8.9e-188" locus_tag="GW574_RS20635" class="clusterblast-orf" id="dummy-1_h1_10_13"  />
</g>
<g id="a1_0014"  >
<polygon points="451,85 456,80 495,80 495,90 456,90 451,85 " style="fill:#d8bc15; stroke-width:1; stroke:black; " description="&lt;b&gt;GW574_RS20630&lt;/b&gt;&lt;br&gt;glycosyltransferase family 1 protein&lt;br&gt;Location: 417284 - 415989&lt;br&gt;&lt;br&gt;&lt;b&gt;BlastP hit with MCIC6FC_014462&lt;/b&gt;&lt;br&gt;Percentage identity: 83&lt;br&gt;Percentage coverage: 21&lt;br&gt;BLAST bit score: 626&lt;br&gt;E-value: 9.2e-177" locus_tag="GW574_RS20630" class="clusterblast-orf" id="dummy-1_h1_10_14"  />
</g>
<g id="a1_0015"  >
<polygon points="495,85 500,80 525,80 525,90 500,90 495,85 " style="fill:#d8bc15; stroke-width:1; stroke:black; " description="&lt;b&gt;GW574_RS20625&lt;/b&gt;&lt;br&gt;polyprenyl synthetase family protein&lt;br&gt;Location: 415979 - 415071&lt;br&gt;&lt;br&gt;&lt;b&gt;BlastP hit with MCIC6FC_014462&lt;/b&gt;&lt;br&gt;Percentage identity: 97&lt;br&gt;Percentage coverage: 16&lt;br&gt;BLAST bit score: 566&lt;br&gt;E-value: 8.6e-159" locus_tag="GW574_RS20625" class="clusterblast-orf" id="dummy-1_h1_10_15"  />
</g>
<g id="a1_0016"  >
<polygon points="533,85 538,80 551,80 551,90 538,90 533,85 " style="fill:#15d885; stroke-width:1; stroke:black; " description="&lt;b&gt;GW574_RS20620&lt;/b&gt;&lt;br&gt;YtfJ family protein&lt;br&gt;Location: 414850 - 414320&lt;br&gt;&lt;br&gt;&lt;b&gt;BlastP hit with MCIC6FC_014463&lt;/b&gt;&lt;br&gt;Percentage identity: 94&lt;br&gt;Percentage coverage: 18&lt;br&gt;BLAST bit score: 319&lt;br&gt;E-value: 1.7e-84" locus_tag="GW574_RS20620" class="clusterblast-orf" id="dummy-1_h1_10_16"  />
</g>
<g id="a1_0017"  >
<polygon points="557,90 559,90 564,85 559,80 557,80 557,90 " style="fill:white; stroke-width:1; stroke:black; " description="&lt;b&gt;GW574_RS20615&lt;/b&gt;&lt;br&gt;hypothetical protein&lt;br&gt;Location: 414147 - 413920" locus_tag="GW574_RS20615" class="clusterblast-orf" id="dummy-1_h1_10_17"  />
</g>
<g id="a1_0018"  >
<polygon points="566,85 571,80 588,80 588,90 571,90 566,85 " style="fill:#15d885; stroke-width:1; stroke:black; " description="&lt;b&gt;GW574_RS20610&lt;/b&gt;&lt;br&gt;hypothetical protein&lt;br&gt;Location: 413874 - 413197&lt;br&gt;&lt;br&gt;&lt;b&gt;BlastP hit with MCIC6FC_014463&lt;/b&gt;&lt;br&gt;Percentage identity: 87&lt;br&gt;Percentage coverage: 19&lt;br&gt;BLAST bit score: 333&lt;br&gt;E-value: 8.5e-89" locus_tag="GW574_RS20610" class="clusterblast-orf" id="dummy-1_h1_10_18"  />
</g>
<g id="a1_0019"  >
<polygon points="593,85 598,80 651,80 651,90 598,90 593,85 " style="fill:#15d885; stroke-width:1; stroke:black; " description="&lt;b&gt;GW574_RS20605&lt;/b&gt;&lt;br&gt;DUF2534 family protein&lt;br&gt;Location: 413070 - 411340&lt;br&gt;&lt;br&gt;&lt;b&gt;BlastP hit with MCIC6FC_014463&lt;/b&gt;&lt;br&gt;Percentage identity: 85&lt;br&gt;Percentage coverage: 53&lt;br&gt;BLAST bit score: 839&lt;br&gt;E-value: 2.8e-241" locus_tag="GW574_RS20605" class="clusterblast-orf" id="dummy-1_h1_10_19"  />
</g>
<g id="a1_0020"  >
<polygon points="652,85 657,80 667,80 667,90 657,90 652,85 " style="fill:white; stroke-width:1; stroke:black; " description="&lt;b&gt;GW574_RS20600&lt;/b&gt;&lt;br&gt;DUF2946 domain-containing protein&lt;br&gt;Location: 411294 - 410875" locus_tag="GW574_RS20600" class="clusterblast-orf" id="dummy-1_h1_10_20"  />
</g>
<g id="a1_0021"  >
<polygon points="674,90 701,90 706,85 701,80 674,80 674,90 " style="fill:white; stroke-width:1; stroke:black; " description="&lt;b&gt;GW574_RS20595&lt;/b&gt;&lt;br&gt;D-2-hydroxyacid dehydrogenase&lt;br&gt;Location: 410654 - 409716" locus_tag="GW574_RS20595" class="clusterblast-orf" id="dummy-1_h1_10_21"  />
</g>
<g id="a1_0022"  >
<polygon points="713,90 739,90 744,85 739,80 713,80 713,90 " style="fill:white; stroke-width:1; stroke:black; " description="&lt;b&gt;GW574_RS20590&lt;/b&gt;&lt;br&gt;Rpn family recombination-promoting nuclease/putative transposase&lt;br&gt;Location: 409501 - 408584" locus_tag="GW574_RS20590" class="clusterblast-orf" id="dummy-1_h1_10_22"  />
</g>
<g id="a1_0023"  >
<polygon points="748,85 753,80 780,80 780,90 753,90 748,85 " style="fill:#4d15d8; stroke-width:1; stroke:black; " description="&lt;b&gt;GW574_RS20585&lt;/b&gt;&lt;br&gt;glutaminase B&lt;br&gt;Location: 408445 - 407519&lt;br&gt;&lt;br&gt;&lt;b&gt;BlastP hit with MCIC6FC_014464&lt;/b&gt;&lt;br&gt;Percentage identity: 72&lt;br&gt;Percentage coverage: 115&lt;br&gt;BLAST bit score: 391&lt;br&gt;E-value: 9.2e-107" locus_tag="GW574_RS20585" class="clusterblast-orf" id="dummy-1_h1_10_23"  />
</g>
</svg>
