<svg xmlns="http://www.w3.org/2000/svg" xmlns:xlink="http://www.w3.org/1999/xlink" version="1.1" x="0" y="0" height="230" width="800" viewBox="0 0 800 230" preserveAspectRatio="none"  >
<g label="Query sequence" class="clusterblast-cluster"  >
<text x="5" y="20" class="clusterblast-acc"  >
Query sequence</text>
<line x1="10" y1="35" x2="778.0" y2="35" style="stroke-width:1; stroke:grey; "  />
<polygon points="0,40 64,40 69,35 64,30 0,30 0,40 " style="fill:white; stroke-width:1; stroke:black; " description="&lt;b&gt;MCIC6FC_011802&lt;/b&gt;&lt;br&gt;hypothetical protein&lt;br&gt;Location: 133246 - 139428" locus_tag="MCIC6FC_011802" class="clusterblast-orf" id="dummy-1_q0_0_all"  />
<polygon points="72,35 77,30 106,30 106,40 77,40 72,35 " style="fill:#d81515; stroke-width:1; stroke:black; " description="&lt;b&gt;MCIC6FC_011803&lt;/b&gt;&lt;br&gt;hypothetical protein&lt;br&gt;Location: 139677 - 142680" locus_tag="MCIC6FC_011803" class="clusterblast-orf" id="dummy-1_q1_0_all"  />
<polygon points="111,40 115,40 120,35 115,30 111,30 111,40 " style="fill:#3cd815; stroke-width:1; stroke:black; " description="&lt;b&gt;MCIC6FC_011804&lt;/b&gt;&lt;br&gt;hypothetical protein&lt;br&gt;Location: 143112 - 143937" locus_tag="MCIC6FC_011804" class="clusterblast-orf" id="dummy-1_q2_0_all"  />
<polygon points="122,35 127,30 134,30 134,40 127,40 122,35 " style="fill:#1563d8; stroke-width:1; stroke:black; " description="&lt;b&gt;MCIC6FC_011805&lt;/b&gt;&lt;br&gt;hypothetical protein&lt;br&gt;Location: 144065 - 145139" locus_tag="MCIC6FC_011805" class="clusterblast-orf" id="dummy-1_q3_0_all"  />
<polygon points="135,35 140,30 140,30 140,40 140,40 135,35 " style="fill:#b115d8; stroke-width:1; stroke:black; " description="&lt;b&gt;MCIC6FC_011806&lt;/b&gt;&lt;br&gt;hypothetical protein&lt;br&gt;Location: 145253 - 145665" locus_tag="MCIC6FC_011806" class="clusterblast-orf" id="dummy-1_q4_0_all"  />
<polygon points="140,35 145,30 155,30 155,40 145,40 140,35 " style="fill:#b115d8; stroke-width:1; stroke:black; " description="&lt;b&gt;MCIC6FC_011807&lt;/b&gt;&lt;br&gt;hypothetical protein&lt;br&gt;Location: 145694 - 146994" locus_tag="MCIC6FC_011807" class="clusterblast-orf" id="dummy-1_q5_0_all"  />
<polygon points="155,35 160,30 169,30 169,40 160,40 155,35 " style="fill:#d88a15; stroke-width:1; stroke:black; " description="&lt;b&gt;MCIC6FC_011808&lt;/b&gt;&lt;br&gt;hypothetical protein&lt;br&gt;Location: 146996 - 148251" locus_tag="MCIC6FC_011808" class="clusterblast-orf" id="dummy-1_q6_0_all"  />
<polygon points="170,40 174,40 179,35 174,30 170,30 170,40 " style="fill:#15d863; stroke-width:1; stroke:black; " description="&lt;b&gt;MCIC6FC_011809&lt;/b&gt;&lt;br&gt;hypothetical protein&lt;br&gt;Location: 148358 - 149126" locus_tag="MCIC6FC_011809" class="clusterblast-orf" id="dummy-1_q7_0_all"  />
<polygon points="179,35 184,30 209,30 209,40 184,40 179,35 " style="fill:#3c15d8; stroke-width:1; stroke:black; " description="&lt;b&gt;MCIC6FC_011810&lt;/b&gt;&lt;br&gt;hypothetical protein&lt;br&gt;Location: 149145 - 151822" locus_tag="MCIC6FC_011810" class="clusterblast-orf" id="dummy-1_q8_0_all"  />
<polygon points="210,35 215,30 363,30 363,40 215,40 210,35 " style="fill:#3c15d8; stroke-width:1; stroke:black; " description="&lt;b&gt;MCIC6FC_011811&lt;/b&gt;&lt;br&gt;hypothetical protein&lt;br&gt;Location: 151855 - 165422" locus_tag="MCIC6FC_011811" class="clusterblast-orf" id="dummy-1_q9_0_all"  />
<polygon points="364,40 389,40 394,35 389,30 364,30 364,40 " style="fill:white; stroke-width:1; stroke:black; " description="&lt;b&gt;MCIC6FC_011812&lt;/b&gt;&lt;br&gt;hypothetical protein&lt;br&gt;Location: 165515 - 168223" locus_tag="MCIC6FC_011812" class="clusterblast-orf" id="dummy-1_q10_0_all"  />
<polygon points="396,35 401,30 421,30 421,40 401,40 396,35 " style="fill:#3c15d8; stroke-width:1; stroke:black; " description="&lt;b&gt;MCIC6FC_011813&lt;/b&gt;&lt;br&gt;hypothetical protein&lt;br&gt;Location: 168359 - 170602" locus_tag="MCIC6FC_011813" class="clusterblast-orf" id="dummy-1_q11_0_all"  />
<polygon points="422,35 427,30 478,30 478,40 427,40 422,35 " style="fill:#3c15d8; stroke-width:1; stroke:black; " description="&lt;b&gt;MCIC6FC_011814&lt;/b&gt;&lt;br&gt;hypothetical protein&lt;br&gt;Location: 170643 - 175636" locus_tag="MCIC6FC_011814" class="clusterblast-orf" id="dummy-1_q12_0_all"  />
<polygon points="479,35 484,30 562,30 562,40 484,40 479,35 " style="fill:#3c15d8; stroke-width:1; stroke:black; " description="&lt;b&gt;MCIC6FC_011815&lt;/b&gt;&lt;br&gt;hypothetical protein&lt;br&gt;Location: 175678 - 183109" locus_tag="MCIC6FC_011815" class="clusterblast-orf" id="dummy-1_q13_0_all"  />
<polygon points="563,35 568,30 597,30 597,40 568,40 563,35 " style="fill:#3c15d8; stroke-width:1; stroke:black; " description="&lt;b&gt;MCIC6FC_011816&lt;/b&gt;&lt;br&gt;hypothetical protein&lt;br&gt;Location: 183132 - 186177" locus_tag="MCIC6FC_011816" class="clusterblast-orf" id="dummy-1_q14_0_all"  />
<polygon points="598,35 603,30 606,30 606,40 603,40 598,35 " style="fill:#3c15d8; stroke-width:1; stroke:black; " description="&lt;b&gt;MCIC6FC_011817&lt;/b&gt;&lt;br&gt;hypothetical protein&lt;br&gt;Location: 186242 - 186981" locus_tag="MCIC6FC_011817" class="clusterblast-orf" id="dummy-1_q15_0_all"  />
<polygon points="607,40 634,40 639,35 634,30 607,30 607,40 " style="fill:#d8158a; stroke-width:1; stroke:black; " description="&lt;b&gt;MCIC6FC_011818&lt;/b&gt;&lt;br&gt;hypothetical protein&lt;br&gt;Location: 187094 - 189883" locus_tag="MCIC6FC_011818" class="clusterblast-orf" id="dummy-1_q16_0_all"  />
<polygon points="640,40 650,40 655,35 650,30 640,30 640,40 " style="fill:#d8158a; stroke-width:1; stroke:black; " description="&lt;b&gt;MCIC6FC_011819&lt;/b&gt;&lt;br&gt;hypothetical protein&lt;br&gt;Location: 189964 - 191316" locus_tag="MCIC6FC_011819" class="clusterblast-orf" id="dummy-1_q17_0_all"  />
<polygon points="656,40 689,40 694,35 689,30 656,30 656,40 " style="fill:#b1d815; stroke-width:1; stroke:black; " description="&lt;b&gt;MCIC6FC_011820&lt;/b&gt;&lt;br&gt;hypothetical protein&lt;br&gt;Location: 191385 - 194715" locus_tag="MCIC6FC_011820" class="clusterblast-orf" id="dummy-1_q18_0_all"  />
<polygon points="695,35 700,30 712,30 712,40 700,40 695,35 " style="fill:#15d8d8; stroke-width:1; stroke:black; " description="&lt;b&gt;MCIC6FC_011821&lt;/b&gt;&lt;br&gt;hypothetical protein&lt;br&gt;Location: 194854 - 196352" locus_tag="MCIC6FC_011821" class="clusterblast-orf" id="dummy-1_q19_0_all"  />
<polygon points="715,40 734,40 739,35 734,30 715,30 715,40 " style="fill:white; stroke-width:1; stroke:black; " description="&lt;b&gt;MCIC6FC_011822&lt;/b&gt;&lt;br&gt;hypothetical protein&lt;br&gt;Location: 196619 - 198724" locus_tag="MCIC6FC_011822" class="clusterblast-orf" id="dummy-1_q20_0_all"  />
<polygon points="740,35 745,30 758,30 758,40 745,40 740,35 " style="fill:white; stroke-width:1; stroke:black; " description="&lt;b&gt;MCIC6FC_011823&lt;/b&gt;&lt;br&gt;hypothetical protein&lt;br&gt;Location: 198797 - 200457" locus_tag="MCIC6FC_011823" class="clusterblast-orf" id="dummy-1_q21_0_all"  />
<polygon points="760,35 765,30 773,30 773,40 765,40 760,35 " style="fill:white; stroke-width:1; stroke:black; " description="&lt;b&gt;MCIC6FC_011824&lt;/b&gt;&lt;br&gt;hypothetical protein&lt;br&gt;Location: 200648 - 201730" locus_tag="MCIC6FC_011824" class="clusterblast-orf" id="dummy-1_q22_0_all"  />
<polygon points="775,40 775,40 780,35 775,30 775,30 775,40 " style="fill:white; stroke-width:1; stroke:black; " description="&lt;b&gt;MCIC6FC_011825&lt;/b&gt;&lt;br&gt;hypothetical protein&lt;br&gt;Location: 201938 - 202342" locus_tag="MCIC6FC_011825" class="clusterblast-orf" id="dummy-1_q23_0_all"  />
</g>
<g label="NZ_HG423343" description="NZ_HG423343 (508668-575924): Halomonas sp. A3H3 chromosome hala3h3, whole gen... (37% of genes show similarity), NRPS" class="clusterblast-cluster"  >
<text x="5" y="70" class="clusterblast-acc"  >
<a xlink:href="https://antismash-db.secondarymetabolites.org/area.html?record=NZ_HG423343&amp;start=508668&amp;end=575924" target="_blank">NZ_HG423343 (508668-575924)</a>: Halomonas sp. A3H3 chromosome hala3h3, whole gen... (37% of genes show similarity), NRPS</text>
<line x1="10" y1="85" x2="778.0" y2="85" style="stroke-width:1; stroke:grey; "  />
</g>
<g id="a1_000"  >
<polygon points="28,90 33,90 38,85 33,80 28,80 28,90 " style="fill:white; stroke-width:1; stroke:black; " description="&lt;b&gt;HALA3H3_RS02235&lt;/b&gt;&lt;br&gt;siderophore-interacting protein&lt;br&gt;Location: 509919 - 510875" locus_tag="HALA3H3_RS02235" class="clusterblast-orf" id="dummy-1_h1_2_0"  />
</g>
<g id="a1_001"  >
<polygon points="38,90 40,90 45,85 40,80 38,80 38,90 " style="fill:white; stroke-width:1; stroke:black; " description="&lt;b&gt;HALA3H3_RS02240&lt;/b&gt;&lt;br&gt;cytochrome b&lt;br&gt;Location: 510868 - 511491" locus_tag="HALA3H3_RS02240" class="clusterblast-orf" id="dummy-1_h1_2_1"  />
</g>
<g id="a1_002"  >
<polygon points="48,90 59,90 64,85 59,80 48,80 48,90 " style="fill:white; stroke-width:1; stroke:black; " description="&lt;b&gt;HALA3H3_RS02245&lt;/b&gt;&lt;br&gt;DUF3375 domain-containing protein&lt;br&gt;Location: 511697 - 513154" locus_tag="HALA3H3_RS02245" class="clusterblast-orf" id="dummy-1_h1_2_2"  />
</g>
<g id="a1_003"  >
<polygon points="64,90 66,90 71,85 66,80 64,80 64,90 " style="fill:white; stroke-width:1; stroke:black; " description="&lt;b&gt;HALA3H3_RS02250&lt;/b&gt;&lt;br&gt;DUF4194 domain-containing protein&lt;br&gt;Location: 513151 - 513759" locus_tag="HALA3H3_RS02250" class="clusterblast-orf" id="dummy-1_h1_2_3"  />
</g>
<g id="a1_004"  >
<polygon points="71,90 104,90 109,85 104,80 71,80 71,90 " style="fill:white; stroke-width:1; stroke:black; " description="&lt;b&gt;HALA3H3_RS02255&lt;/b&gt;&lt;br&gt;hypothetical protein&lt;br&gt;Location: 513749 - 517141" locus_tag="HALA3H3_RS02255" class="clusterblast-orf" id="dummy-1_h1_2_4"  />
</g>
<g id="a1_005"  >
<polygon points="109,90 118,90 123,85 118,80 109,80 109,90 " style="fill:white; stroke-width:1; stroke:black; " description="&lt;b&gt;HALA3H3_RS02260&lt;/b&gt;&lt;br&gt;hypothetical protein&lt;br&gt;Location: 517138 - 518337" locus_tag="HALA3H3_RS02260" class="clusterblast-orf" id="dummy-1_h1_2_5"  />
</g>
<g id="a1_006"  >
<polygon points="127,85 130,80 130,90 127,85 " style="fill:white; stroke-width:1; stroke:black; " description="&lt;b&gt;HALA3H3_RS02265&lt;/b&gt;&lt;br&gt;HigA family addiction module antidote protein&lt;br&gt;Location: 518672 - 518953" locus_tag="HALA3H3_RS02265" class="clusterblast-orf" id="dummy-1_h1_2_6"  />
</g>
<g id="a1_007"  >
<polygon points="130,85 133,80 133,90 130,85 " style="fill:white; stroke-width:1; stroke:black; " description="&lt;b&gt;HALA3H3_RS02270&lt;/b&gt;&lt;br&gt;plasmid maintenance system killer&lt;br&gt;Location: 518962 - 519240" locus_tag="HALA3H3_RS02270" class="clusterblast-orf" id="dummy-1_h1_2_7"  />
</g>
<g id="a1_008"  >
<polygon points="133,85 138,80 152,80 152,90 138,90 133,85 " style="fill:#3c15d8; stroke-width:1; stroke:black; " description="&lt;b&gt;HALA3H3_RS02275&lt;/b&gt;&lt;br&gt;cyclic peptide export ABC transporter&lt;br&gt;Location: 519276 - 520931&lt;br&gt;&lt;br&gt;&lt;b&gt;BlastP hit with MCIC6FC_011816&lt;/b&gt;&lt;br&gt;Percentage identity: 50&lt;br&gt;Percentage coverage: 32&lt;br&gt;BLAST bit score: 279&lt;br&gt;E-value: 1.7e-72&lt;br&gt;&lt;br&gt;&lt;b&gt;BlastP hit with MCIC6FC_011817&lt;/b&gt;&lt;br&gt;Percentage identity: 38&lt;br&gt;Percentage coverage: 96&lt;br&gt;BLAST bit score: 139&lt;br&gt;E-value: 3.3e-31" locus_tag="HALA3H3_RS02275" class="clusterblast-orf" id="dummy-1_h1_2_8"  />
</g>
<g id="a1_009"  >
<polygon points="154,90 162,90 167,85 162,80 154,80 154,90 " style="fill:#d8158a; stroke-width:1; stroke:black; " description="&lt;b&gt;HALA3H3_RS02280&lt;/b&gt;&lt;br&gt;acetyltransferase&lt;br&gt;Location: 521086 - 522255&lt;br&gt;&lt;br&gt;&lt;b&gt;BlastP hit with MCIC6FC_011819&lt;/b&gt;&lt;br&gt;Percentage identity: 45&lt;br&gt;Percentage coverage: 60&lt;br&gt;BLAST bit score: 203&lt;br&gt;E-value: 4.9e-50" locus_tag="HALA3H3_RS02280" class="clusterblast-orf" id="dummy-1_h1_2_9"  />
</g>
<g id="a1_0010"  >
<polygon points="167,90 177,90 182,85 177,80 167,80 167,90 " style="fill:#3c15d8; stroke-width:1; stroke:black; " description="&lt;b&gt;HALA3H3_RS02285&lt;/b&gt;&lt;br&gt;lysine N(6)-hydroxylase/L-ornithine N(5)-oxygenase family protein&lt;br&gt;Location: 522279 - 523571&lt;br&gt;&lt;br&gt;&lt;b&gt;BlastP hit with MCIC6FC_011810&lt;/b&gt;&lt;br&gt;Percentage identity: 48&lt;br&gt;Percentage coverage: 50&lt;br&gt;BLAST bit score: 323&lt;br&gt;E-value: 6.7e-86" locus_tag="HALA3H3_RS02285" class="clusterblast-orf" id="dummy-1_h1_2_10"  />
</g>
<g id="a1_0011"  >
<polygon points="184,90 188,90 193,85 188,80 184,80 184,90 " style="fill:white; stroke-width:1; stroke:black; " description="&lt;b&gt;HALA3H3_RS02290&lt;/b&gt;&lt;br&gt;hypothetical protein&lt;br&gt;Location: 523746 - 524591" locus_tag="HALA3H3_RS02290" class="clusterblast-orf" id="dummy-1_h1_2_11"  />
</g>
<g id="a1_0012"  >
<polygon points="196,90 216,90 221,85 216,80 196,80 196,90 " style="fill:#b1d815; stroke-width:1; stroke:black; " description="&lt;b&gt;HALA3H3_RS02295&lt;/b&gt;&lt;br&gt;TonB-dependent siderophore receptor&lt;br&gt;Location: 524830 - 527007&lt;br&gt;&lt;br&gt;&lt;b&gt;BlastP hit with MCIC6FC_011820&lt;/b&gt;&lt;br&gt;Percentage identity: 39&lt;br&gt;Percentage coverage: 74&lt;br&gt;BLAST bit score: 445&lt;br&gt;E-value: 2e-122" locus_tag="HALA3H3_RS02295" class="clusterblast-orf" id="dummy-1_h1_2_12"  />
</g>
<g id="a1_0013"  >
<polygon points="226,90 231,90 236,85 231,80 226,80 226,90 " style="fill:white; stroke-width:1; stroke:black; " description="&lt;b&gt;HALA3H3_RS02300&lt;/b&gt;&lt;br&gt;ABC transporter substrate-binding protein&lt;br&gt;Location: 527487 - 528362" locus_tag="HALA3H3_RS02300" class="clusterblast-orf" id="dummy-1_h1_2_13"  />
</g>
<g id="a1_0014"  >
<polygon points="239,85 244,80 267,80 267,90 244,90 239,85 " style="fill:white; stroke-width:1; stroke:black; " description="&lt;b&gt;HALA3H3_RS26890&lt;/b&gt;&lt;br&gt;alpha/beta fold hydrolase&lt;br&gt;Location: 528669 - 531152" locus_tag="HALA3H3_RS26890" class="clusterblast-orf" id="dummy-1_h1_2_14"  />
</g>
<g id="a1_0015"  >
<polygon points="269,85 274,80 362,80 362,90 274,90 269,85 " style="fill:#3c15d8; stroke-width:1; stroke:black; " description="&lt;b&gt;HALA3H3_RS02310&lt;/b&gt;&lt;br&gt;amino acid adenylation domain-containing protein&lt;br&gt;Location: 531254 - 539493&lt;br&gt;&lt;br&gt;&lt;b&gt;BlastP hit with MCIC6FC_011813&lt;/b&gt;&lt;br&gt;Percentage identity: 39&lt;br&gt;Percentage coverage: 52&lt;br&gt;BLAST bit score: 198&lt;br&gt;E-value: 2.2e-48" locus_tag="HALA3H3_RS02310" class="clusterblast-orf" id="dummy-1_h1_2_15"  />
</g>
<g id="a1_0016"  >
<polygon points="362,85 367,80 423,80 423,90 367,90 362,85 " style="fill:#3c15d8; stroke-width:1; stroke:black; " description="&lt;b&gt;HALA3H3_RS02315&lt;/b&gt;&lt;br&gt;amino acid adenylation domain-containing protein&lt;br&gt;Location: 539490 - 544925&lt;br&gt;&lt;br&gt;&lt;b&gt;BlastP hit with MCIC6FC_011813&lt;/b&gt;&lt;br&gt;Percentage identity: 42&lt;br&gt;Percentage coverage: 53&lt;br&gt;BLAST bit score: 216&lt;br&gt;E-value: 1e-53&lt;br&gt;&lt;br&gt;&lt;b&gt;BlastP hit with MCIC6FC_011814&lt;/b&gt;&lt;br&gt;Percentage identity: 33&lt;br&gt;Percentage coverage: 45&lt;br&gt;BLAST bit score: 237&lt;br&gt;E-value: 1.2e-59" locus_tag="HALA3H3_RS02315" class="clusterblast-orf" id="dummy-1_h1_2_16"  />
</g>
<g id="a1_0017"  >
<polygon points="424,85 429,80 547,80 547,90 429,90 424,85 " style="fill:#3c15d8; stroke-width:1; stroke:black; " description="&lt;b&gt;HALA3H3_RS02320&lt;/b&gt;&lt;br&gt;non-ribosomal peptide synthase&lt;br&gt;Location: 545026 - 555924&lt;br&gt;&lt;br&gt;&lt;b&gt;BlastP hit with MCIC6FC_011811&lt;/b&gt;&lt;br&gt;Percentage identity: 32&lt;br&gt;Percentage coverage: 63&lt;br&gt;BLAST bit score: 991&lt;br&gt;E-value: 2.3e-286&lt;br&gt;&lt;br&gt;&lt;b&gt;BlastP hit with MCIC6FC_011815&lt;/b&gt;&lt;br&gt;Percentage identity: 40&lt;br&gt;Percentage coverage: 48&lt;br&gt;BLAST bit score: 696&lt;br&gt;E-value: 6.8e-198" locus_tag="HALA3H3_RS02320" class="clusterblast-orf" id="dummy-1_h1_2_17"  />
</g>
<g id="a1_0018"  >
<polygon points="548,85 553,80 559,80 559,90 553,90 548,85 " style="fill:#3c15d8; stroke-width:1; stroke:black; " description="&lt;b&gt;HALA3H3_RS02325&lt;/b&gt;&lt;br&gt;Taurine catabolism dioxygenase TauD, TfdA family protein 2&lt;br&gt;Location: 555994 - 556995&lt;br&gt;&lt;br&gt;&lt;b&gt;BlastP hit with MCIC6FC_011816&lt;/b&gt;&lt;br&gt;Percentage identity: 52&lt;br&gt;Percentage coverage: 33&lt;br&gt;BLAST bit score: 309&lt;br&gt;E-value: 9e-82" locus_tag="HALA3H3_RS02325" class="clusterblast-orf" id="dummy-1_h1_2_18"  />
</g>
<g id="a1_0019"  >
<polygon points="558,85 563,80 568,80 568,90 563,90 558,85 " style="fill:white; stroke-width:1; stroke:black; " description="&lt;b&gt;HALA3H3_RS02330&lt;/b&gt;&lt;br&gt;4'-phosphopantetheinyl transferase superfamily protein&lt;br&gt;Location: 556928 - 557740" locus_tag="HALA3H3_RS02330" class="clusterblast-orf" id="dummy-1_h1_2_19"  />
</g>
<g id="a1_0020"  >
<polygon points="567,85 572,80 576,80 576,90 572,90 567,85 " style="fill:#3c15d8; stroke-width:1; stroke:black; " description="&lt;b&gt;HALA3H3_RS02335&lt;/b&gt;&lt;br&gt;thioesterase&lt;br&gt;Location: 557718 - 558458&lt;br&gt;&lt;br&gt;&lt;b&gt;BlastP hit with MCIC6FC_011816&lt;/b&gt;&lt;br&gt;Percentage identity: 33&lt;br&gt;Percentage coverage: 24&lt;br&gt;BLAST bit score: 101&lt;br&gt;E-value: 3.7e-19" locus_tag="HALA3H3_RS02335" class="clusterblast-orf" id="dummy-1_h1_2_20"  />
</g>
<g id="a1_0021"  >
<polygon points="576,85 578,80 578,90 576,85 " style="fill:white; stroke-width:1; stroke:black; " description="&lt;b&gt;HALA3H3_RS02340&lt;/b&gt;&lt;br&gt;MbtH family NRPS accessory protein&lt;br&gt;Location: 558448 - 558693" locus_tag="HALA3H3_RS02340" class="clusterblast-orf" id="dummy-1_h1_2_21"  />
</g>
<g id="a1_0022"  >
<polygon points="581,85 584,80 584,90 581,85 " style="fill:white; stroke-width:1; stroke:black; " description="&lt;b&gt;HALA3H3_RS02345&lt;/b&gt;&lt;br&gt;DUF4880 domain-containing protein&lt;br&gt;Location: 558949 - 559155" locus_tag="HALA3H3_RS02345" class="clusterblast-orf" id="dummy-1_h1_2_22"  />
</g>
<g id="a1_0023"  >
<polygon points="585,85 590,80 592,80 592,90 590,90 585,85 " style="fill:#b1d815; stroke-width:1; stroke:black; " description="&lt;b&gt;HALA3H3_RS02350&lt;/b&gt;&lt;br&gt;RNA polymerase factor sigma-70&lt;br&gt;Location: 559297 - 559884&lt;br&gt;&lt;br&gt;&lt;b&gt;BlastP hit with MCIC6FC_011820&lt;/b&gt;&lt;br&gt;Percentage identity: 38&lt;br&gt;Percentage coverage: 19&lt;br&gt;BLAST bit score: 121&lt;br&gt;E-value: 6.5e-25" locus_tag="HALA3H3_RS02350" class="clusterblast-orf" id="dummy-1_h1_2_23"  />
</g>
<g id="a1_0024"  >
<polygon points="594,90 607,90 612,85 607,80 594,80 594,90 " style="fill:white; stroke-width:1; stroke:black; " description="&lt;b&gt;HALA3H3_RS02355&lt;/b&gt;&lt;br&gt;ATP-binding protein&lt;br&gt;Location: 560062 - 561656" locus_tag="HALA3H3_RS02355" class="clusterblast-orf" id="dummy-1_h1_2_24"  />
</g>
<g id="a1_0025"  >
<polygon points="613,90 625,90 630,85 625,80 613,80 613,90 " style="fill:white; stroke-width:1; stroke:black; " description="&lt;b&gt;HALA3H3_RS02360&lt;/b&gt;&lt;br&gt;ATP-binding protein&lt;br&gt;Location: 561759 - 563270" locus_tag="HALA3H3_RS02360" class="clusterblast-orf" id="dummy-1_h1_2_25"  />
</g>
<g id="a1_0026"  >
<polygon points="631,90 635,90 640,85 635,80 631,80 631,90 " style="fill:white; stroke-width:1; stroke:black; " description="&lt;b&gt;HALA3H3_RS02365&lt;/b&gt;&lt;br&gt;inositol monophosphatase&lt;br&gt;Location: 563381 - 564178" locus_tag="HALA3H3_RS02365" class="clusterblast-orf" id="dummy-1_h1_2_26"  />
</g>
<g id="a1_0027"  >
<polygon points="642,90 646,90 651,85 646,80 642,80 642,90 " style="fill:#15d863; stroke-width:1; stroke:black; " description="&lt;b&gt;HALA3H3_RS02370&lt;/b&gt;&lt;br&gt;ATP-binding cassette domain-containing protein&lt;br&gt;Location: 564378 - 565145&lt;br&gt;&lt;br&gt;&lt;b&gt;BlastP hit with MCIC6FC_011809&lt;/b&gt;&lt;br&gt;Percentage identity: 60&lt;br&gt;Percentage coverage: 103&lt;br&gt;BLAST bit score: 294&lt;br&gt;E-value: 8.1e-78" locus_tag="HALA3H3_RS02370" class="clusterblast-orf" id="dummy-1_h1_2_27"  />
</g>
<g id="a1_0028"  >
<polygon points="653,90 657,90 662,85 657,80 653,80 653,90 " style="fill:#3c15d8; stroke-width:1; stroke:black; " description="&lt;b&gt;HALA3H3_RS02375&lt;/b&gt;&lt;br&gt;siderophore-iron reductase FhuF&lt;br&gt;Location: 565295 - 566083&lt;br&gt;&lt;br&gt;&lt;b&gt;BlastP hit with MCIC6FC_011810&lt;/b&gt;&lt;br&gt;Percentage identity: 39&lt;br&gt;Percentage coverage: 26&lt;br&gt;BLAST bit score: 141&lt;br&gt;E-value: 4.7e-31" locus_tag="HALA3H3_RS02375" class="clusterblast-orf" id="dummy-1_h1_2_28"  />
</g>
<g id="a1_0029"  >
<polygon points="662,85 667,80 681,80 681,90 667,90 662,85 " style="fill:#3c15d8; stroke-width:1; stroke:black; " description="&lt;b&gt;HALA3H3_RS02380&lt;/b&gt;&lt;br&gt;multidrug ABC transporter permease/ATP-binding protein&lt;br&gt;Location: 566108 - 567760&lt;br&gt;&lt;br&gt;&lt;b&gt;BlastP hit with MCIC6FC_011816&lt;/b&gt;&lt;br&gt;Percentage identity: 43&lt;br&gt;Percentage coverage: 23&lt;br&gt;BLAST bit score: 185&lt;br&gt;E-value: 2e-44" locus_tag="HALA3H3_RS02380" class="clusterblast-orf" id="dummy-1_h1_2_29"  />
</g>
<g id="a1_0030"  >
<polygon points="683,85 688,80 695,80 695,90 688,90 683,85 " style="fill:white; stroke-width:1; stroke:black; " description="&lt;b&gt;HALA3H3_RS02385&lt;/b&gt;&lt;br&gt;DUF1513 domain-containing protein&lt;br&gt;Location: 567944 - 569032" locus_tag="HALA3H3_RS02385" class="clusterblast-orf" id="dummy-1_h1_2_30"  />
</g>
<g id="a1_0031"  >
<polygon points="695,85 700,80 707,80 707,90 700,90 695,85 " style="fill:white; stroke-width:1; stroke:black; " description="&lt;b&gt;HALA3H3_RS02390&lt;/b&gt;&lt;br&gt;imelysin family protein&lt;br&gt;Location: 569036 - 570061" locus_tag="HALA3H3_RS02390" class="clusterblast-orf" id="dummy-1_h1_2_31"  />
</g>
<g id="a1_0032"  >
<polygon points="707,85 712,80 723,80 723,90 712,90 707,85 " style="fill:white; stroke-width:1; stroke:black; " description="&lt;b&gt;HALA3H3_RS02395&lt;/b&gt;&lt;br&gt;DUF1111 domain-containing protein&lt;br&gt;Location: 570085 - 571554" locus_tag="HALA3H3_RS02395" class="clusterblast-orf" id="dummy-1_h1_2_32"  />
</g>
<g id="a1_0033"  >
<polygon points="725,85 730,80 739,80 739,90 730,90 725,85 " style="fill:white; stroke-width:1; stroke:black; " description="&lt;b&gt;HALA3H3_RS02400&lt;/b&gt;&lt;br&gt;peptidase&lt;br&gt;Location: 571646 - 572932" locus_tag="HALA3H3_RS02400" class="clusterblast-orf" id="dummy-1_h1_2_33"  />
</g>
<g id="a1_0034"  >
<polygon points="742,90 746,90 751,85 746,80 742,80 742,90 " style="fill:white; stroke-width:1; stroke:black; " description="&lt;b&gt;HALA3H3_RS02405&lt;/b&gt;&lt;br&gt;LysR family transcriptional regulator ArgP&lt;br&gt;Location: 573153 - 574019" locus_tag="HALA3H3_RS02405" class="clusterblast-orf" id="dummy-1_h1_2_34"  />
</g>
</svg>
