<svg xmlns="http://www.w3.org/2000/svg" xmlns:xlink="http://www.w3.org/1999/xlink" version="1.1" x="0" y="0" height="230" width="800" viewBox="0 0 800 230" preserveAspectRatio="none"  >
<g label="Query sequence" class="clusterblast-cluster"  >
<text x="5" y="20" class="clusterblast-acc"  >
Query sequence</text>
<line x1="10" y1="35" x2="778.0" y2="35" style="stroke-width:1; stroke:grey; "  />
<polygon points="223,40 243,40 248,35 243,30 223,30 223,40 " style="fill:#d81515; stroke-width:1; stroke:black; " description="&lt;b&gt;MCIC6FC_020538&lt;/b&gt;&lt;br&gt;hypothetical protein&lt;br&gt;Location: 15803 - 17157" locus_tag="MCIC6FC_020538" class="clusterblast-orf" id="dummy-1_q0_0_all"  />
<polygon points="251,40 338,40 343,35 338,30 251,30 251,40 " style="fill:#15d863; stroke-width:1; stroke:black; " description="&lt;b&gt;MCIC6FC_020539&lt;/b&gt;&lt;br&gt;hypothetical protein&lt;br&gt;Location: 17304 - 22222" locus_tag="MCIC6FC_020539" class="clusterblast-orf" id="dummy-1_q1_0_all"  />
<polygon points="348,40 360,40 365,35 360,30 348,30 348,40 " style="fill:#1563d8; stroke-width:1; stroke:black; " description="&lt;b&gt;MCIC6FC_020540&lt;/b&gt;&lt;br&gt;hypothetical protein&lt;br&gt;Location: 22522 - 23419" locus_tag="MCIC6FC_020540" class="clusterblast-orf" id="dummy-1_q2_0_all"  />
<polygon points="365,40 400,40 405,35 400,30 365,30 365,40 " style="fill:#b115d8; stroke-width:1; stroke:black; " description="&lt;b&gt;MCIC6FC_020541&lt;/b&gt;&lt;br&gt;hypothetical protein&lt;br&gt;Location: 23444 - 25593" locus_tag="MCIC6FC_020541" class="clusterblast-orf" id="dummy-1_q3_0_all"  />
<polygon points="412,35 417,30 435,30 435,40 417,40 412,35 " style="fill:white; stroke-width:1; stroke:black; " description="&lt;b&gt;MCIC6FC_020542&lt;/b&gt;&lt;br&gt;hypothetical protein&lt;br&gt;Location: 25940 - 27194" locus_tag="MCIC6FC_020542" class="clusterblast-orf" id="dummy-1_q4_0_all"  />
<polygon points="439,40 451,40 456,35 451,30 439,30 439,40 " style="fill:white; stroke-width:1; stroke:black; " description="&lt;b&gt;MCIC6FC_020543&lt;/b&gt;&lt;br&gt;hypothetical protein&lt;br&gt;Location: 27418 - 28319" locus_tag="MCIC6FC_020543" class="clusterblast-orf" id="dummy-1_q5_0_all"  />
<polygon points="458,35 463,30 494,30 494,40 463,40 458,35 " style="fill:#b1d815; stroke-width:1; stroke:black; " description="&lt;b&gt;MCIC6FC_020544&lt;/b&gt;&lt;br&gt;hypothetical protein&lt;br&gt;Location: 28409 - 30323" locus_tag="MCIC6FC_020544" class="clusterblast-orf" id="dummy-1_q6_0_all"  />
<polygon points="496,35 501,30 556,30 556,40 501,40 496,35 " style="fill:#b1d815; stroke-width:1; stroke:black; " description="&lt;b&gt;MCIC6FC_020545&lt;/b&gt;&lt;br&gt;hypothetical protein&lt;br&gt;Location: 30445 - 33685" locus_tag="MCIC6FC_020545" class="clusterblast-orf" id="dummy-1_q7_0_all"  />
</g>
<g label="NZ_AP020337" description="NZ_AP020337 (5391819-5433703): Pseudomonas sp. KUIN-1 (23% of genes show similarity), NRPS-like" class="clusterblast-cluster"  >
<text x="5" y="70" class="clusterblast-acc"  >
<a xlink:href="https://antismash-db.secondarymetabolites.org/area.html?record=NZ_AP020337&amp;start=5391819&amp;end=5433703" target="_blank">NZ_AP020337 (5391819-5433703)</a>: Pseudomonas sp. KUIN-1 (23% of genes show similarity), NRPS-like</text>
<line x1="10" y1="85" x2="778.0" y2="85" style="stroke-width:1; stroke:grey; "  />
</g>
<g id="a1_000"  >
<polygon points="0,90 41,90 46,85 41,80 0,80 0,90 " style="fill:white; stroke-width:1; stroke:black; " description="&lt;b&gt;KUIN1_RS24385&lt;/b&gt;&lt;br&gt;bifunctional diguanylate cyclase/phosphodiesterase&lt;br&gt;Location: 5391820 - 5394306" locus_tag="KUIN1_RS24385" class="clusterblast-orf" id="dummy-1_h1_6_0"  />
</g>
<g id="a1_001"  >
<polygon points="49,90 63,90 68,85 63,80 49,80 49,90 " style="fill:white; stroke-width:1; stroke:black; " description="&lt;b&gt;KUIN1_RS24395&lt;/b&gt;&lt;br&gt;P-type conjugative transfer protein TrbL&lt;br&gt;Location: 5394489 - 5395496" locus_tag="KUIN1_RS24395" class="clusterblast-orf" id="dummy-1_h1_6_1"  />
</g>
<g id="a1_002"  >
<polygon points="69,90 73,85 69,80 69,90 " style="fill:white; stroke-width:1; stroke:black; " description="&lt;b&gt;KUIN1_RS24400&lt;/b&gt;&lt;br&gt;hypothetical protein&lt;br&gt;Location: 5395564 - 5395779" locus_tag="KUIN1_RS24400" class="clusterblast-orf" id="dummy-1_h1_6_2"  />
</g>
<g id="a1_003"  >
<polygon points="80,85 85,80 87,80 87,90 85,90 80,85 " style="fill:white; stroke-width:1; stroke:black; " description="&lt;b&gt;KUIN1_RS24405&lt;/b&gt;&lt;br&gt;type II toxin-antitoxin system RelE/ParE family toxin&lt;br&gt;Location: 5396146 - 5396496" locus_tag="KUIN1_RS24405" class="clusterblast-orf" id="dummy-1_h1_6_3"  />
</g>
<g id="a1_004"  >
<polygon points="87,85 91,80 91,90 87,85 " style="fill:white; stroke-width:1; stroke:black; " description="&lt;b&gt;KUIN1_RS24410&lt;/b&gt;&lt;br&gt;type II toxin-antitoxin system prevent-host-death family antitoxin&lt;br&gt;Location: 5396509 - 5396757" locus_tag="KUIN1_RS24410" class="clusterblast-orf" id="dummy-1_h1_6_4"  />
</g>
<g id="a1_005"  >
<polygon points="98,90 111,90 116,85 111,80 98,80 98,90 " style="fill:white; stroke-width:1; stroke:black; " description="&lt;b&gt;KUIN1_RS24415&lt;/b&gt;&lt;br&gt;tyrosine-type recombinase/integrase&lt;br&gt;Location: 5397095 - 5398057" locus_tag="KUIN1_RS24415" class="clusterblast-orf" id="dummy-1_h1_6_5"  />
</g>
<g id="a1_006"  >
<polygon points="116,85 121,80 122,80 122,90 121,90 116,85 " style="fill:white; stroke-width:1; stroke:black; " description="&lt;b&gt;KUIN1_RS24420&lt;/b&gt;&lt;br&gt;hypothetical protein&lt;br&gt;Location: 5398083 - 5398397" locus_tag="KUIN1_RS24420" class="clusterblast-orf" id="dummy-1_h1_6_6"  />
</g>
<g id="a1_007"  >
<polygon points="123,85 128,80 128,80 128,90 128,90 123,85 " style="fill:white; stroke-width:1; stroke:black; " description="&lt;b&gt;KUIN1_RS24425&lt;/b&gt;&lt;br&gt;hypothetical protein&lt;br&gt;Location: 5398470 - 5398709" locus_tag="KUIN1_RS24425" class="clusterblast-orf" id="dummy-1_h1_6_7"  />
</g>
<g id="a1_008"  >
<polygon points="129,85 134,80 138,80 138,90 134,90 129,85 " style="fill:white; stroke-width:1; stroke:black; " description="&lt;b&gt;KUIN1_RS24430&lt;/b&gt;&lt;br&gt;GNAT family N-acetyltransferase&lt;br&gt;Location: 5398789 - 5399235" locus_tag="KUIN1_RS24430" class="clusterblast-orf" id="dummy-1_h1_6_8"  />
</g>
<g id="a1_009"  >
<polygon points="139,85 144,80 152,80 152,90 144,90 139,85 " style="fill:white; stroke-width:1; stroke:black; " description="&lt;b&gt;KUIN1_RS24435&lt;/b&gt;&lt;br&gt;IS66 family transposase&lt;br&gt;Location: 5399291 - 5400034" locus_tag="KUIN1_RS24435" class="clusterblast-orf" id="dummy-1_h1_6_9"  />
</g>
<g id="a1_0010"  >
<polygon points="165,90 196,90 201,85 196,80 165,80 165,90 " style="fill:white; stroke-width:1; stroke:black; " description="&lt;b&gt;KUIN1_RS24445&lt;/b&gt;&lt;br&gt;S-type pyocin domain-containing protein&lt;br&gt;Location: 5400718 - 5402648" locus_tag="KUIN1_RS24445" class="clusterblast-orf" id="dummy-1_h1_6_10"  />
</g>
<g id="a1_0011"  >
<polygon points="201,90 201,90 206,85 201,80 201,80 201,90 " style="fill:white; stroke-width:1; stroke:black; " description="&lt;b&gt;KUIN1_RS24450&lt;/b&gt;&lt;br&gt;bacteriocin immunity protein&lt;br&gt;Location: 5402650 - 5402925" locus_tag="KUIN1_RS24450" class="clusterblast-orf" id="dummy-1_h1_6_11"  />
</g>
<g id="a1_0012"  >
<polygon points="210,85 213,80 213,90 210,85 " style="fill:white; stroke-width:1; stroke:black; " description="&lt;b&gt;KUIN1_RS27530&lt;/b&gt;&lt;br&gt;hypothetical protein&lt;br&gt;Location: 5403146 - 5403286" locus_tag="KUIN1_RS27530" class="clusterblast-orf" id="dummy-1_h1_6_12"  />
</g>
<g id="a1_0013"  >
<polygon points="215,85 220,80 220,80 220,90 220,90 215,85 " style="fill:white; stroke-width:1; stroke:black; " description="&lt;b&gt;KUIN1_RS24460&lt;/b&gt;&lt;br&gt;hypothetical protein&lt;br&gt;Location: 5403390 - 5403638" locus_tag="KUIN1_RS24460" class="clusterblast-orf" id="dummy-1_h1_6_13"  />
</g>
<g id="a1_0014"  >
<polygon points="221,85 225,80 225,90 221,85 " style="fill:white; stroke-width:1; stroke:black; " description="&lt;b&gt;KUIN1_RS24465&lt;/b&gt;&lt;br&gt;hypothetical protein&lt;br&gt;Location: 5403690 - 5403941" locus_tag="KUIN1_RS24465" class="clusterblast-orf" id="dummy-1_h1_6_14"  />
</g>
<g id="a1_0015"  >
<polygon points="228,85 233,80 233,80 233,90 233,90 228,85 " style="fill:white; stroke-width:1; stroke:black; " description="&lt;b&gt;KUIN1_RS24470&lt;/b&gt;&lt;br&gt;hypothetical protein&lt;br&gt;Location: 5404078 - 5404374" locus_tag="KUIN1_RS24470" class="clusterblast-orf" id="dummy-1_h1_6_15"  />
</g>
<g id="a1_0016"  >
<polygon points="235,85 240,80 241,80 241,90 240,90 235,85 " style="fill:white; stroke-width:1; stroke:black; " description="&lt;b&gt;KUIN1_RS24475&lt;/b&gt;&lt;br&gt;hypothetical protein&lt;br&gt;Location: 5404456 - 5404812" locus_tag="KUIN1_RS24475" class="clusterblast-orf" id="dummy-1_h1_6_16"  />
</g>
<g id="a1_0017"  >
<polygon points="243,85 248,80 252,80 252,90 248,90 243,85 " style="fill:white; stroke-width:1; stroke:black; " description="&lt;b&gt;KUIN1_RS27755&lt;/b&gt;&lt;br&gt;hypothetical protein&lt;br&gt;Location: 5404894 - 5405394" locus_tag="KUIN1_RS27755" class="clusterblast-orf" id="dummy-1_h1_6_17"  />
</g>
<g id="a1_0018"  >
<polygon points="252,85 257,80 259,80 259,90 257,90 252,85 " style="fill:white; stroke-width:1; stroke:black; " description="&lt;b&gt;KUIN1_RS24485&lt;/b&gt;&lt;br&gt;ATP-binding protein&lt;br&gt;Location: 5405391 - 5405756" locus_tag="KUIN1_RS24485" class="clusterblast-orf" id="dummy-1_h1_6_18"  />
</g>
<g id="a1_0019"  >
<polygon points="259,90 264,90 269,85 264,80 259,80 259,90 " style="fill:white; stroke-width:1; stroke:black; " description="&lt;b&gt;KUIN1_RS24490&lt;/b&gt;&lt;br&gt;transposase&lt;br&gt;Location: 5405758 - 5406304" locus_tag="KUIN1_RS24490" class="clusterblast-orf" id="dummy-1_h1_6_19"  />
</g>
<g id="a1_0020"  >
<polygon points="270,85 273,80 273,90 270,85 " style="fill:white; stroke-width:1; stroke:black; " description="&lt;b&gt;KUIN1_RS24500&lt;/b&gt;&lt;br&gt;AAA family ATPase&lt;br&gt;Location: 5406349 - 5406522" locus_tag="KUIN1_RS24500" class="clusterblast-orf" id="dummy-1_h1_6_20"  />
</g>
<g id="a1_0021"  >
<polygon points="274,90 276,85 274,80 274,90 " style="fill:white; stroke-width:1; stroke:black; " description="&lt;b&gt;KUIN1_RS24505&lt;/b&gt;&lt;br&gt;IS5/IS1182 family transposase&lt;br&gt;Location: 5406552 - 5406644" locus_tag="KUIN1_RS24505" class="clusterblast-orf" id="dummy-1_h1_6_21"  />
</g>
<g id="a1_0022"  >
<polygon points="277,85 282,80 306,80 306,90 282,90 277,85 " style="fill:white; stroke-width:1; stroke:black; " description="&lt;b&gt;KUIN1_RS24510&lt;/b&gt;&lt;br&gt;Effector protein hopAB1&lt;br&gt;Location: 5406707 - 5408257" locus_tag="KUIN1_RS24510" class="clusterblast-orf" id="dummy-1_h1_6_22"  />
</g>
<g id="a1_0023"  >
<polygon points="319,90 329,90 334,85 329,80 319,80 319,90 " style="fill:white; stroke-width:1; stroke:black; " description="&lt;b&gt;KUIN1_RS24520&lt;/b&gt;&lt;br&gt;formate/nitrite transporter family protein&lt;br&gt;Location: 5408983 - 5409798" locus_tag="KUIN1_RS24520" class="clusterblast-orf" id="dummy-1_h1_6_23"  />
</g>
<g id="a1_0024"  >
<polygon points="337,85 342,80 349,80 349,90 342,90 337,85 " style="fill:white; stroke-width:1; stroke:black; " description="&lt;b&gt;KUIN1_RS24525&lt;/b&gt;&lt;br&gt;4'-phosphopantetheinyl transferase superfamily protein&lt;br&gt;Location: 5409945 - 5410577" locus_tag="KUIN1_RS24525" class="clusterblast-orf" id="dummy-1_h1_6_24"  />
</g>
<g id="a1_0025"  >
<polygon points="349,85 354,80 424,80 424,90 354,90 349,85 " style="fill:white; stroke-width:1; stroke:black; " description="&lt;b&gt;KUIN1_RS24530&lt;/b&gt;&lt;br&gt;non-ribosomal peptide synthetase&lt;br&gt;Location: 5410574 - 5414614" locus_tag="KUIN1_RS24530" class="clusterblast-orf" id="dummy-1_h1_6_25"  />
</g>
<g id="a1_0026"  >
<polygon points="429,85 434,80 438,80 438,90 434,90 429,85 " style="fill:white; stroke-width:1; stroke:black; " description="&lt;b&gt;KUIN1_RS24535&lt;/b&gt;&lt;br&gt;GNAT family N-acetyltransferase&lt;br&gt;Location: 5414870 - 5415373" locus_tag="KUIN1_RS24535" class="clusterblast-orf" id="dummy-1_h1_6_26"  />
</g>
<g id="a1_0027"  >
<polygon points="442,85 447,80 465,80 465,90 447,90 442,85 " style="fill:white; stroke-width:1; stroke:black; " description="&lt;b&gt;KUIN1_RS24540&lt;/b&gt;&lt;br&gt;type II toxin-antitoxin system HipA family toxin&lt;br&gt;Location: 5415589 - 5416815" locus_tag="KUIN1_RS24540" class="clusterblast-orf" id="dummy-1_h1_6_27"  />
</g>
<g id="a1_0028"  >
<polygon points="465,85 470,80 471,80 471,90 470,90 465,85 " style="fill:white; stroke-width:1; stroke:black; " description="&lt;b&gt;KUIN1_RS24545&lt;/b&gt;&lt;br&gt;helix-turn-helix transcriptional regulator&lt;br&gt;Location: 5416815 - 5417138" locus_tag="KUIN1_RS24545" class="clusterblast-orf" id="dummy-1_h1_6_28"  />
</g>
<g id="a1_0029"  >
<polygon points="477,90 492,90 497,85 492,80 477,80 477,90 " style="fill:white; stroke-width:1; stroke:black; " description="&lt;b&gt;KUIN1_RS24550&lt;/b&gt;&lt;br&gt;FUSC family protein&lt;br&gt;Location: 5417447 - 5418550" locus_tag="KUIN1_RS24550" class="clusterblast-orf" id="dummy-1_h1_6_29"  />
</g>
<g id="a1_0030"  >
<polygon points="498,90 501,90 506,85 501,80 498,80 498,90 " style="fill:#d81515; stroke-width:1; stroke:black; " description="&lt;b&gt;KUIN1_RS24555&lt;/b&gt;&lt;br&gt;Lrp/AsnC family transcriptional regulator&lt;br&gt;Location: 5418561 - 5419022&lt;br&gt;&lt;br&gt;&lt;b&gt;BlastP hit with MCIC6FC_020538&lt;/b&gt;&lt;br&gt;Percentage identity: 91&lt;br&gt;Percentage coverage: 34&lt;br&gt;BLAST bit score: 257&lt;br&gt;E-value: 3.4e-66" locus_tag="KUIN1_RS24555" class="clusterblast-orf" id="dummy-1_h1_6_30"  />
</g>
<g id="a1_0031"  >
<polygon points="509,90 535,90 540,85 535,80 509,80 509,90 " style="fill:#15d863; stroke-width:1; stroke:black; " description="&lt;b&gt;KUIN1_RS24560&lt;/b&gt;&lt;br&gt;NAD(P)/FAD-dependent oxidoreductase&lt;br&gt;Location: 5419175 - 5420854&lt;br&gt;&lt;br&gt;&lt;b&gt;BlastP hit with MCIC6FC_020539&lt;/b&gt;&lt;br&gt;Percentage identity: 91&lt;br&gt;Percentage coverage: 33&lt;br&gt;BLAST bit score: 1012&lt;br&gt;E-value: 3.9e-293" locus_tag="KUIN1_RS24560" class="clusterblast-orf" id="dummy-1_h1_6_31"  />
</g>
<g id="a1_0032"  >
<polygon points="541,90 550,90 555,85 550,80 541,80 541,90 " style="fill:#15d863; stroke-width:1; stroke:black; " description="&lt;b&gt;KUIN1_RS24565&lt;/b&gt;&lt;br&gt;carbon-nitrogen hydrolase family protein&lt;br&gt;Location: 5420870 - 5421664&lt;br&gt;&lt;br&gt;&lt;b&gt;BlastP hit with MCIC6FC_020539&lt;/b&gt;&lt;br&gt;Percentage identity: 71&lt;br&gt;Percentage coverage: 16&lt;br&gt;BLAST bit score: 368&lt;br&gt;E-value: 2.9e-99" locus_tag="KUIN1_RS24565" class="clusterblast-orf" id="dummy-1_h1_6_32"  />
</g>
<g id="a1_0033"  >
<polygon points="568,90 606,90 611,85 606,80 568,80 568,90 " style="fill:#15d863; stroke-width:1; stroke:black; " description="&lt;b&gt;KUIN1_RS24570&lt;/b&gt;&lt;br&gt;pyrroloquinoline quinone biosynthesis protein PqqF&lt;br&gt;Location: 5422342 - 5424630&lt;br&gt;&lt;br&gt;&lt;b&gt;BlastP hit with MCIC6FC_020539&lt;/b&gt;&lt;br&gt;Percentage identity: 45&lt;br&gt;Percentage coverage: 50&lt;br&gt;BLAST bit score: 580&lt;br&gt;E-value: 4.9e-163" locus_tag="KUIN1_RS24570" class="clusterblast-orf" id="dummy-1_h1_6_33"  />
</g>
<g id="a1_0034"  >
<polygon points="613,90 614,85 613,80 613,90 " style="fill:white; stroke-width:1; stroke:black; " description="&lt;b&gt;KUIN1_RS24575&lt;/b&gt;&lt;br&gt;pyrroloquinoline quinone precursor peptide PqqA&lt;br&gt;Location: 5424766 - 5424840" locus_tag="KUIN1_RS24575" class="clusterblast-orf" id="dummy-1_h1_6_34"  />
</g>
<g id="a1_0035"  >
<polygon points="616,90 628,90 633,85 628,80 616,80 616,90 " style="fill:#1563d8; stroke-width:1; stroke:black; " description="&lt;b&gt;KUIN1_RS24580&lt;/b&gt;&lt;br&gt;pyrroloquinoline quinone biosynthesis protein PqqB&lt;br&gt;Location: 5424929 - 5425840&lt;br&gt;&lt;br&gt;&lt;b&gt;BlastP hit with MCIC6FC_020540&lt;/b&gt;&lt;br&gt;Percentage identity: 90&lt;br&gt;Percentage coverage: 95&lt;br&gt;BLAST bit score: 557&lt;br&gt;E-value: 8.3e-157" locus_tag="KUIN1_RS24580" class="clusterblast-orf" id="dummy-1_h1_6_35"  />
</g>
<g id="a1_0036"  >
<polygon points="633,90 642,90 647,85 642,80 633,80 633,90 " style="fill:#b115d8; stroke-width:1; stroke:black; " description="&lt;b&gt;KUIN1_RS24585&lt;/b&gt;&lt;br&gt;pyrroloquinoline-quinone synthase PqqC&lt;br&gt;Location: 5425849 - 5426604&lt;br&gt;&lt;br&gt;&lt;b&gt;BlastP hit with MCIC6FC_020541&lt;/b&gt;&lt;br&gt;Percentage identity: 94&lt;br&gt;Percentage coverage: 36&lt;br&gt;BLAST bit score: 473&lt;br&gt;E-value: 2.7e-131" locus_tag="KUIN1_RS24585" class="clusterblast-orf" id="dummy-1_h1_6_36"  />
</g>
<g id="a1_0037"  >
<polygon points="647,90 648,90 653,85 648,80 647,80 647,90 " style="fill:#b115d8; stroke-width:1; stroke:black; " description="&lt;b&gt;KUIN1_RS24590&lt;/b&gt;&lt;br&gt;pyrroloquinoline quinone biosynthesis peptide chaperone PqqD&lt;br&gt;Location: 5426601 - 5426885&lt;br&gt;&lt;br&gt;&lt;b&gt;BlastP hit with MCIC6FC_020541&lt;/b&gt;&lt;br&gt;Percentage identity: 69&lt;br&gt;Percentage coverage: 11&lt;br&gt;BLAST bit score: 108&lt;br&gt;E-value: 2.9e-21" locus_tag="KUIN1_RS24590" class="clusterblast-orf" id="dummy-1_h1_6_37"  />
</g>
<g id="a1_0038"  >
<polygon points="652,90 669,90 674,85 669,80 652,80 652,90 " style="fill:#b115d8; stroke-width:1; stroke:black; " description="&lt;b&gt;KUIN1_RS24595&lt;/b&gt;&lt;br&gt;pyrroloquinoline quinone biosynthesis protein PqqE&lt;br&gt;Location: 5426878 - 5428047&lt;br&gt;&lt;br&gt;&lt;b&gt;BlastP hit with MCIC6FC_020541&lt;/b&gt;&lt;br&gt;Percentage identity: 85&lt;br&gt;Percentage coverage: 56&lt;br&gt;BLAST bit score: 674&lt;br&gt;E-value: 1e-191" locus_tag="KUIN1_RS24595" class="clusterblast-orf" id="dummy-1_h1_6_38"  />
</g>
<g id="a1_0039"  >
<polygon points="673,90 702,90 707,85 702,80 673,80 673,90 " style="fill:white; stroke-width:1; stroke:black; " description="&lt;b&gt;KUIN1_RS24600&lt;/b&gt;&lt;br&gt;S9 family peptidase&lt;br&gt;Location: 5428010 - 5429836" locus_tag="KUIN1_RS24600" class="clusterblast-orf" id="dummy-1_h1_6_39"  />
</g>
<g id="a1_0040"  >
<polygon points="709,85 712,80 712,90 709,85 " style="fill:white; stroke-width:1; stroke:black; " description="&lt;b&gt;KUIN1_RS24605&lt;/b&gt;&lt;br&gt;YqaE/Pmp3 family membrane protein&lt;br&gt;Location: 5429892 - 5430053" locus_tag="KUIN1_RS24605" class="clusterblast-orf" id="dummy-1_h1_6_40"  />
</g>
<g id="a1_0041"  >
<polygon points="719,85 724,80 752,80 752,90 724,90 719,85 " style="fill:#b1d815; stroke-width:1; stroke:black; " description="&lt;b&gt;KUIN1_RS24610&lt;/b&gt;&lt;br&gt;acyl-CoA dehydrogenase C-terminal domain-containing protein&lt;br&gt;Location: 5430457 - 5432235&lt;br&gt;&lt;br&gt;&lt;b&gt;BlastP hit with MCIC6FC_020544&lt;/b&gt;&lt;br&gt;Percentage identity: 84&lt;br&gt;Percentage coverage: 93&lt;br&gt;BLAST bit score: 993&lt;br&gt;E-value: 1.3e-287&lt;br&gt;&lt;br&gt;&lt;b&gt;BlastP hit with MCIC6FC_020545&lt;/b&gt;&lt;br&gt;Percentage identity: 56&lt;br&gt;Percentage coverage: 59&lt;br&gt;BLAST bit score: 644&lt;br&gt;E-value: 2.3e-182" locus_tag="KUIN1_RS24610" class="clusterblast-orf" id="dummy-1_h1_6_41"  />
</g>
<g id="a1_0042"  >
<polygon points="755,85 760,80 780,80 780,90 760,90 755,85 " style="fill:#b1d815; stroke-width:1; stroke:black; " description="&lt;b&gt;KUIN1_RS24615&lt;/b&gt;&lt;br&gt;GGDEF domain-containing protein&lt;br&gt;Location: 5432405 - 5433703&lt;br&gt;&lt;br&gt;&lt;b&gt;BlastP hit with MCIC6FC_020545&lt;/b&gt;&lt;br&gt;Percentage identity: 77&lt;br&gt;Percentage coverage: 42&lt;br&gt;BLAST bit score: 641&lt;br&gt;E-value: 1.1e-181" locus_tag="KUIN1_RS24615" class="clusterblast-orf" id="dummy-1_h1_6_42"  />
</g>
</svg>
