<svg xmlns="http://www.w3.org/2000/svg" xmlns:xlink="http://www.w3.org/1999/xlink" version="1.1" x="0" y="0" height="230" width="800" viewBox="0 0 800 230" preserveAspectRatio="none"  >
<g label="Query sequence" class="clusterblast-cluster"  >
<text x="5" y="20" class="clusterblast-acc"  >
Query sequence</text>
<line x1="10" y1="35" x2="778.0" y2="35" style="stroke-width:1; stroke:grey; "  />
<polygon points="134,40 320,40 325,35 320,30 134,30 134,40 " style="fill:#d81515; stroke-width:1; stroke:black; " description="&lt;b&gt;MCIC6FC_022620&lt;/b&gt;&lt;br&gt;hypothetical protein&lt;br&gt;Location: 222 - 2660" locus_tag="MCIC6FC_022620" class="clusterblast-orf" id="dummy-1_q0_0_all"  />
<polygon points="325,35 330,30 397,30 397,40 330,40 325,35 " style="fill:#77d815; stroke-width:1; stroke:black; " description="&lt;b&gt;MCIC6FC_022621&lt;/b&gt;&lt;br&gt;hypothetical protein&lt;br&gt;Location: 2670 - 3585" locus_tag="MCIC6FC_022621" class="clusterblast-orf" id="dummy-1_q1_0_all"  />
<polygon points="405,40 507,40 512,35 507,30 405,30 405,40 " style="fill:#15d8d8; stroke-width:1; stroke:black; " description="&lt;b&gt;MCIC6FC_022622&lt;/b&gt;&lt;br&gt;hypothetical protein&lt;br&gt;Location: 3688 - 5057" locus_tag="MCIC6FC_022622" class="clusterblast-orf" id="dummy-1_q2_0_all"  />
<polygon points="520,40 642,40 647,35 642,30 520,30 520,40 " style="fill:#7715d8; stroke-width:1; stroke:black; " description="&lt;b&gt;MCIC6FC_022623&lt;/b&gt;&lt;br&gt;hypothetical protein&lt;br&gt;Location: 5163 - 6777" locus_tag="MCIC6FC_022623" class="clusterblast-orf" id="dummy-1_q3_0_all"  />
</g>
<g label="NZ_LT629972" description="NZ_LT629972 (2725325-2736216): Pseudomonas fuscovaginae strain LMG 2158 chrom... (54% of genes show similarity), bacteriocin" class="clusterblast-cluster"  >
<text x="5" y="70" class="clusterblast-acc"  >
<a xlink:href="https://antismash-db.secondarymetabolites.org/area.html?record=NZ_LT629972&amp;start=2725325&amp;end=2736216" target="_blank">NZ_LT629972 (2725325-2736216)</a>: Pseudomonas fuscovaginae strain LMG 2158 chrom... (54% of genes show similarity), bacteriocin</text>
<line x1="10" y1="85" x2="778.0" y2="85" style="stroke-width:1; stroke:grey; "  />
</g>
<g id="a1_000"  >
<polygon points="0,90 67,90 72,85 67,80 0,80 0,90 " style="fill:white; stroke-width:1; stroke:black; " description="&lt;b&gt;BLW67_RS12600&lt;/b&gt;&lt;br&gt;high-affinity branched-chain amino acid ABC transporter permease LivH&lt;br&gt;Location: 2735336 - 2734413" locus_tag="BLW67_RS12600" class="clusterblast-orf" id="dummy-1_h1_1_0"  />
</g>
<g id="a1_001"  >
<polygon points="72,90 165,90 170,85 165,80 72,80 72,90 " style="fill:white; stroke-width:1; stroke:black; " description="&lt;b&gt;BLW67_RS12595&lt;/b&gt;&lt;br&gt;high-affinity branched-chain amino acid ABC transporter permease LivM&lt;br&gt;Location: 2734416 - 2733163" locus_tag="BLW67_RS12595" class="clusterblast-orf" id="dummy-1_h1_1_1"  />
</g>
<g id="a1_002"  >
<polygon points="169,90 224,90 229,85 224,80 169,80 169,90 " style="fill:white; stroke-width:1; stroke:black; " description="&lt;b&gt;BLW67_RS12590&lt;/b&gt;&lt;br&gt;high-affinity branched-chain amino acid ABC transporter ATP-binding protein LivG&lt;br&gt;Location: 2733166 - 2732399" locus_tag="BLW67_RS12590" class="clusterblast-orf" id="dummy-1_h1_1_2"  />
</g>
<g id="a1_003"  >
<polygon points="229,90 279,90 284,85 279,80 229,80 229,90 " style="fill:white; stroke-width:1; stroke:black; " description="&lt;b&gt;BLW67_RS12585&lt;/b&gt;&lt;br&gt;ABC transporter ATP-binding protein&lt;br&gt;Location: 2732398 - 2731697" locus_tag="BLW67_RS12585" class="clusterblast-orf" id="dummy-1_h1_1_3"  />
</g>
<g id="a1_004"  >
<polygon points="296,90 315,90 320,85 315,80 296,80 296,90 " style="fill:white; stroke-width:1; stroke:black; " description="&lt;b&gt;BLW67_RS12580&lt;/b&gt;&lt;br&gt;DUF2282 domain-containing protein&lt;br&gt;Location: 2731548 - 2731243" locus_tag="BLW67_RS12580" class="clusterblast-orf" id="dummy-1_h1_1_4"  />
</g>
<g id="a1_005"  >
<polygon points="322,90 387,90 392,85 387,80 322,80 322,90 " style="fill:#d81515; stroke-width:1; stroke:black; " description="&lt;b&gt;BLW67_RS12575&lt;/b&gt;&lt;br&gt;DUF692 domain-containing protein&lt;br&gt;Location: 2731216 - 2730326&lt;br&gt;&lt;br&gt;&lt;b&gt;BlastP hit with MCIC6FC_022620&lt;/b&gt;&lt;br&gt;Percentage identity: 81&lt;br&gt;Percentage coverage: 37&lt;br&gt;BLAST bit score: 460&lt;br&gt;E-value: 4.4e-127" locus_tag="BLW67_RS12575" class="clusterblast-orf" id="dummy-1_h1_1_5"  />
</g>
<g id="a1_006"  >
<polygon points="391,90 446,90 451,85 446,80 391,80 391,90 " style="fill:#d81515; stroke-width:1; stroke:black; " description="&lt;b&gt;BLW67_RS12570&lt;/b&gt;&lt;br&gt;putative DNA-binding domain-containing protein&lt;br&gt;Location: 2730329 - 2729568&lt;br&gt;&lt;br&gt;&lt;b&gt;BlastP hit with MCIC6FC_022620&lt;/b&gt;&lt;br&gt;Percentage identity: 55&lt;br&gt;Percentage coverage: 33&lt;br&gt;BLAST bit score: 237&lt;br&gt;E-value: 6.1e-60" locus_tag="BLW67_RS12570" class="clusterblast-orf" id="dummy-1_h1_1_6"  />
</g>
<g id="a1_007"  >
<polygon points="451,85 456,80 523,80 523,90 456,90 451,85 " style="fill:#77d815; stroke-width:1; stroke:black; " description="&lt;b&gt;BLW67_RS12565&lt;/b&gt;&lt;br&gt;LysR family transcriptional regulator&lt;br&gt;Location: 2729567 - 2728653&lt;br&gt;&lt;br&gt;&lt;b&gt;BlastP hit with MCIC6FC_022621&lt;/b&gt;&lt;br&gt;Percentage identity: 83&lt;br&gt;Percentage coverage: 100&lt;br&gt;BLAST bit score: 504&lt;br&gt;E-value: 6.5e-141" locus_tag="BLW67_RS12565" class="clusterblast-orf" id="dummy-1_h1_1_7"  />
</g>
<g id="a1_008"  >
<polygon points="531,90 573,90 578,85 573,80 531,80 531,90 " style="fill:#15d8d8; stroke-width:1; stroke:black; " description="&lt;b&gt;BLW67_RS12560&lt;/b&gt;&lt;br&gt;short chain dehydrogenase&lt;br&gt;Location: 2728545 - 2727946&lt;br&gt;&lt;br&gt;&lt;b&gt;BlastP hit with MCIC6FC_022622&lt;/b&gt;&lt;br&gt;Percentage identity: 79&lt;br&gt;Percentage coverage: 46&lt;br&gt;BLAST bit score: 310&lt;br&gt;E-value: 2.5e-82" locus_tag="BLW67_RS12560" class="clusterblast-orf" id="dummy-1_h1_1_8"  />
</g>
<g id="a1_009"  >
<polygon points="592,90 640,90 645,85 640,80 592,80 592,90 " style="fill:#15d8d8; stroke-width:1; stroke:black; " description="&lt;b&gt;BLW67_RS12555&lt;/b&gt;&lt;br&gt;membrane protein&lt;br&gt;Location: 2727764 - 2727093&lt;br&gt;&lt;br&gt;&lt;b&gt;BlastP hit with MCIC6FC_022622&lt;/b&gt;&lt;br&gt;Percentage identity: 66&lt;br&gt;Percentage coverage: 52&lt;br&gt;BLAST bit score: 292&lt;br&gt;E-value: 7.1e-77" locus_tag="BLW67_RS12555" class="clusterblast-orf" id="dummy-1_h1_1_9"  />
</g>
<g id="a1_0010"  >
<polygon points="653,90 775,90 780,85 775,80 653,80 653,90 " style="fill:#7715d8; stroke-width:1; stroke:black; " description="&lt;b&gt;BLW67_RS12550&lt;/b&gt;&lt;br&gt;NAD(P)/FAD-dependent oxidoreductase&lt;br&gt;Location: 2726983 - 2725370&lt;br&gt;&lt;br&gt;&lt;b&gt;BlastP hit with MCIC6FC_022623&lt;/b&gt;&lt;br&gt;Percentage identity: 91&lt;br&gt;Percentage coverage: 100&lt;br&gt;BLAST bit score: 983&lt;br&gt;E-value: 1.1e-284" locus_tag="BLW67_RS12550" class="clusterblast-orf" id="dummy-1_h1_1_10"  />
</g>
</svg>
