<svg xmlns="http://www.w3.org/2000/svg" xmlns:xlink="http://www.w3.org/1999/xlink" version="1.1" x="0" y="0" height="230" width="800" viewBox="0 0 800 230" preserveAspectRatio="none"  >
<g label="Query sequence" class="clusterblast-cluster"  >
<text x="5" y="20" class="clusterblast-acc"  >
Query sequence</text>
<line x1="10" y1="35" x2="778.0" y2="35" style="stroke-width:1; stroke:grey; "  />
<polygon points="0,35 5,30 10,30 10,40 5,40 0,35 " style="fill:#d81515; stroke-width:1; stroke:black; " description="&lt;b&gt;MCIC6FC_004335&lt;/b&gt;&lt;br&gt;hypothetical protein&lt;br&gt;Location: 75504 - 75789" locus_tag="MCIC6FC_004335" class="clusterblast-orf" id="dummy-1_q0_0_all"  />
<polygon points="13,35 18,30 74,30 74,40 18,40 13,35 " style="fill:#15d8d8; stroke-width:1; stroke:black; " description="&lt;b&gt;MCIC6FC_004336&lt;/b&gt;&lt;br&gt;hypothetical protein&lt;br&gt;Location: 75871 - 77545" locus_tag="MCIC6FC_004336" class="clusterblast-orf" id="dummy-1_q1_0_all"  />
<polygon points="78,35 83,30 103,30 103,40 83,40 78,35 " style="fill:white; stroke-width:1; stroke:black; " description="&lt;b&gt;MCIC6FC_004337&lt;/b&gt;&lt;br&gt;hypothetical protein&lt;br&gt;Location: 77653 - 78341" locus_tag="MCIC6FC_004337" class="clusterblast-orf" id="dummy-1_q2_0_all"  />
<polygon points="114,35 119,30 158,30 158,40 119,40 114,35 " style="fill:white; stroke-width:1; stroke:black; " description="&lt;b&gt;MCIC6FC_004338&lt;/b&gt;&lt;br&gt;hypothetical protein&lt;br&gt;Location: 78631 - 79827" locus_tag="MCIC6FC_004338" class="clusterblast-orf" id="dummy-1_q3_0_all"  />
<polygon points="160,35 165,30 199,30 199,40 165,40 160,35 " style="fill:white; stroke-width:1; stroke:black; " description="&lt;b&gt;MCIC6FC_004339&lt;/b&gt;&lt;br&gt;hypothetical protein&lt;br&gt;Location: 79909 - 80961" locus_tag="MCIC6FC_004339" class="clusterblast-orf" id="dummy-1_q4_0_all"  />
<polygon points="209,40 402,40 407,35 402,30 209,30 209,40 " style="fill:white; stroke-width:1; stroke:black; " description="&lt;b&gt;MCIC6FC_004340&lt;/b&gt;&lt;br&gt;hypothetical protein&lt;br&gt;Location: 81238 - 86681" locus_tag="MCIC6FC_004340" class="clusterblast-orf" id="dummy-1_q5_0_all"  />
<polygon points="413,40 435,40 440,35 435,30 413,30 413,40 " style="fill:white; stroke-width:1; stroke:black; " description="&lt;b&gt;MCIC6FC_004341&lt;/b&gt;&lt;br&gt;hypothetical protein&lt;br&gt;Location: 86843 - 87584" locus_tag="MCIC6FC_004341" class="clusterblast-orf" id="dummy-1_q6_0_all"  />
<polygon points="442,35 447,30 482,30 482,40 447,40 442,35 " style="fill:white; stroke-width:1; stroke:black; " description="&lt;b&gt;MCIC6FC_004342&lt;/b&gt;&lt;br&gt;hypothetical protein&lt;br&gt;Location: 87637 - 88737" locus_tag="MCIC6FC_004342" class="clusterblast-orf" id="dummy-1_q7_0_all"  />
<polygon points="496,35 501,30 780,30 780,40 501,40 496,35 " style="fill:white; stroke-width:1; stroke:black; " description="&lt;b&gt;MCIC6FC_004343&lt;/b&gt;&lt;br&gt;hypothetical protein&lt;br&gt;Location: 89114 - 96894" locus_tag="MCIC6FC_004343" class="clusterblast-orf" id="dummy-1_q8_0_all"  />
</g>
<g label="BGC0000781" description="BGC0000781_c1: O-antigen (14% of genes show similarity), Saccharide" class="clusterblast-cluster"  >
<text x="5" y="70" class="clusterblast-acc"  >
<a xlink:href="https://mibig.secondarymetabolites.org/go/BGC0000781/1" target="_blank">BGC0000781</a>:                                                                        O-antigen (14% of genes show similarity), Saccharide</text>
<line x1="10" y1="85" x2="778.0" y2="85" style="stroke-width:1; stroke:grey; "  />
</g>
<g id="a1_000"  >
<polygon points="87,85 92,80 160,80 160,90 92,90 87,85 " style="fill:white; stroke-width:1; stroke:black; " description="&lt;b&gt;AAF23989.1&lt;/b&gt;&lt;br&gt;WbpM&lt;br&gt;Location: 16589 - 14592" locus_tag="AAF23989.1" class="clusterblast-orf" id="dummy-1_h1_1_0"  />
</g>
<g id="a1_001"  >
<polygon points="167,85 172,80 205,80 205,90 172,90 167,85 " style="fill:white; stroke-width:1; stroke:black; " description="&lt;b&gt;AAF23990.1&lt;/b&gt;&lt;br&gt;WbpL&lt;br&gt;Location: 14394 - 13354" locus_tag="AAF23990.1" class="clusterblast-orf" id="dummy-1_h1_1_1"  />
</g>
<g id="a1_002"  >
<polygon points="205,85 210,80 240,80 240,90 210,90 205,85 " style="fill:white; stroke-width:1; stroke:black; " description="&lt;b&gt;AAF23991.1&lt;/b&gt;&lt;br&gt;WbpV&lt;br&gt;Location: 13357 - 12395" locus_tag="AAF23991.1" class="clusterblast-orf" id="dummy-1_h1_1_2"  />
</g>
<g id="a1_003"  >
<polygon points="240,85 245,80 281,80 281,90 245,90 240,85 " style="fill:white; stroke-width:1; stroke:black; " description="&lt;b&gt;AAF23992.1&lt;/b&gt;&lt;br&gt;WbpU&lt;br&gt;Location: 12398 - 11268" locus_tag="AAF23992.1" class="clusterblast-orf" id="dummy-1_h1_1_3"  />
</g>
<g id="a1_004"  >
<polygon points="283,85 288,80 325,80 325,90 288,90 283,85 " style="fill:white; stroke-width:1; stroke:black; " description="&lt;b&gt;AAF23993.1&lt;/b&gt;&lt;br&gt;WbpT&lt;br&gt;Location: 11224 - 10073" locus_tag="AAF23993.1" class="clusterblast-orf" id="dummy-1_h1_1_4"  />
</g>
<g id="a1_005"  >
<polygon points="325,85 330,80 393,80 393,90 330,90 325,85 " style="fill:white; stroke-width:1; stroke:black; " description="&lt;b&gt;AAF24002.1&lt;/b&gt;&lt;br&gt;WbpS&lt;br&gt;Location: 10076 - 8193" locus_tag="AAF24002.1" class="clusterblast-orf" id="dummy-1_h1_1_5"  />
</g>
<g id="a1_006"  >
<polygon points="393,85 398,80 432,80 432,90 398,90 393,85 " style="fill:white; stroke-width:1; stroke:black; " description="&lt;b&gt;AAF24001.1&lt;/b&gt;&lt;br&gt;WbpR&lt;br&gt;Location: 8188 - 7142" locus_tag="AAF24001.1" class="clusterblast-orf" id="dummy-1_h1_1_6"  />
</g>
<g id="a1_007"  >
<polygon points="436,85 441,80 488,80 488,90 441,90 436,85 " style="fill:white; stroke-width:1; stroke:black; " description="&lt;b&gt;AAF24000.1&lt;/b&gt;&lt;br&gt;Wzx&lt;br&gt;Location: 7020 - 5596" locus_tag="AAF24000.1" class="clusterblast-orf" id="dummy-1_h1_1_7"  />
</g>
<g id="a1_008"  >
<polygon points="488,85 493,80 495,80 495,90 493,90 488,85 " style="fill:white; stroke-width:1; stroke:black; " description="&lt;b&gt;AAF23999.1&lt;/b&gt;&lt;br&gt;WbpQ&lt;br&gt;Location: 5589 - 5392" locus_tag="AAF23999.1" class="clusterblast-orf" id="dummy-1_h1_1_8"  />
</g>
<g id="a1_009"  >
<polygon points="495,85 500,80 533,80 533,90 500,90 495,85 " style="fill:white; stroke-width:1; stroke:black; " description="&lt;b&gt;AAF23998.1&lt;/b&gt;&lt;br&gt;WbpP&lt;br&gt;Location: 5395 - 4370" locus_tag="AAF23998.1" class="clusterblast-orf" id="dummy-1_h1_1_9"  />
</g>
<g id="a1_0010"  >
<polygon points="534,85 539,80 580,80 580,90 539,90 534,85 " style="fill:white; stroke-width:1; stroke:black; " description="&lt;b&gt;AAF23997.1&lt;/b&gt;&lt;br&gt;WbpO&lt;br&gt;Location: 4332 - 3064" locus_tag="AAF23997.1" class="clusterblast-orf" id="dummy-1_h1_1_10"  />
</g>
<g id="a1_0011"  >
<polygon points="589,85 594,80 621,80 621,90 594,90 589,85 " style="fill:white; stroke-width:1; stroke:black; " description="&lt;b&gt;AAF23996.1&lt;/b&gt;&lt;br&gt;Wzz&lt;br&gt;Location: 2811 - 1954" locus_tag="AAF23996.1" class="clusterblast-orf" id="dummy-1_h1_1_11"  />
</g>
<g id="a1_0012"  >
<polygon points="647,85 652,80 658,80 658,90 652,90 647,85 " style="fill:#d81515; stroke-width:1; stroke:black; " description="&lt;b&gt;AAF23995.1&lt;/b&gt;&lt;br&gt;Ihf-Beta&lt;br&gt;Location: 1226 - 942&lt;br&gt;&lt;br&gt;&lt;b&gt;BlastP hit with MCIC6FC_004335&lt;/b&gt;&lt;br&gt;Percentage identity: 71&lt;br&gt;Percentage coverage: 97&lt;br&gt;BLAST bit score: 134&lt;br&gt;E-value: 8.5e-32" locus_tag="AAF23995.1" class="clusterblast-orf" id="dummy-1_h1_1_12"  />
</g>
<g id="a1_0013"  >
<polygon points="663,85 668,80 692,80 692,90 668,90 663,85 " style="fill:#15d8d8; stroke-width:1; stroke:black; " description="&lt;b&gt;AAF23994.1&lt;/b&gt;&lt;br&gt;RpsA&lt;br&gt;Location: 805 - 1&lt;br&gt;&lt;br&gt;&lt;b&gt;BlastP hit with MCIC6FC_004336&lt;/b&gt;&lt;br&gt;Percentage identity: 67&lt;br&gt;Percentage coverage: 46&lt;br&gt;BLAST bit score: 350&lt;br&gt;E-value: 4.4e-96" locus_tag="AAF23994.1" class="clusterblast-orf" id="dummy-1_h1_1_13"  />
</g>
</svg>
