<svg xmlns="http://www.w3.org/2000/svg" xmlns:xlink="http://www.w3.org/1999/xlink" version="1.1" x="0" y="0" height="230" width="800" viewBox="0 0 800 230" preserveAspectRatio="none"  >
<g label="Query sequence" class="clusterblast-cluster"  >
<text x="5" y="20" class="clusterblast-acc"  >
Query sequence</text>
<line x1="10" y1="35" x2="778.0" y2="35" style="stroke-width:1; stroke:grey; "  />
<polygon points="0,35 5,30 39,30 39,40 5,40 0,35 " style="fill:white; stroke-width:1; stroke:black; " description="&lt;b&gt;MCIC6FC_019729&lt;/b&gt;&lt;br&gt;hypothetical protein&lt;br&gt;Location: 48 - 1635" locus_tag="MCIC6FC_019729" class="clusterblast-orf" id="dummy-1_q0_0_all"  />
<polygon points="100,40 282,40 287,35 282,30 100,30 100,40 " style="fill:white; stroke-width:1; stroke:black; " description="&lt;b&gt;MCIC6FC_019730&lt;/b&gt;&lt;br&gt;hypothetical protein&lt;br&gt;Location: 4097 - 11627" locus_tag="MCIC6FC_019730" class="clusterblast-orf" id="dummy-1_q1_0_all"  />
<polygon points="287,35 292,30 297,30 297,40 292,40 287,35 " style="fill:white; stroke-width:1; stroke:black; " description="&lt;b&gt;MCIC6FC_019731&lt;/b&gt;&lt;br&gt;hypothetical protein&lt;br&gt;Location: 11643 - 12033" locus_tag="MCIC6FC_019731" class="clusterblast-orf" id="dummy-1_q2_0_all"  />
<polygon points="305,35 310,30 391,30 391,40 310,40 305,35 " style="fill:white; stroke-width:1; stroke:black; " description="&lt;b&gt;MCIC6FC_019732&lt;/b&gt;&lt;br&gt;hypothetical protein&lt;br&gt;Location: 12371 - 15823" locus_tag="MCIC6FC_019732" class="clusterblast-orf" id="dummy-1_q3_0_all"  />
<polygon points="392,35 397,30 409,30 409,40 397,40 392,35 " style="fill:#d81515; stroke-width:1; stroke:black; " description="&lt;b&gt;MCIC6FC_019733&lt;/b&gt;&lt;br&gt;hypothetical protein&lt;br&gt;Location: 15848 - 16554" locus_tag="MCIC6FC_019733" class="clusterblast-orf" id="dummy-1_q4_0_all"  />
<polygon points="410,35 415,30 506,30 506,40 415,40 410,35 " style="fill:#77d815; stroke-width:1; stroke:black; " description="&lt;b&gt;MCIC6FC_019734&lt;/b&gt;&lt;br&gt;hypothetical protein&lt;br&gt;Location: 16577 - 20450" locus_tag="MCIC6FC_019734" class="clusterblast-orf" id="dummy-1_q5_0_all"  />
<polygon points="508,35 513,30 528,30 528,40 513,40 508,35 " style="fill:#15d8d8; stroke-width:1; stroke:black; " description="&lt;b&gt;MCIC6FC_019735&lt;/b&gt;&lt;br&gt;hypothetical protein&lt;br&gt;Location: 20551 - 21340" locus_tag="MCIC6FC_019735" class="clusterblast-orf" id="dummy-1_q6_0_all"  />
<polygon points="530,35 535,30 548,30 548,40 535,40 530,35 " style="fill:#7715d8; stroke-width:1; stroke:black; " description="&lt;b&gt;MCIC6FC_019736&lt;/b&gt;&lt;br&gt;hypothetical protein&lt;br&gt;Location: 21424 - 22154" locus_tag="MCIC6FC_019736" class="clusterblast-orf" id="dummy-1_q7_0_all"  />
<polygon points="549,35 554,30 564,30 564,40 554,40 549,35 " style="fill:white; stroke-width:1; stroke:black; " description="&lt;b&gt;MCIC6FC_019737&lt;/b&gt;&lt;br&gt;hypothetical protein&lt;br&gt;Location: 22198 - 22796" locus_tag="MCIC6FC_019737" class="clusterblast-orf" id="dummy-1_q8_0_all"  />
<polygon points="568,35 573,30 666,30 666,40 573,40 568,35 " style="fill:white; stroke-width:1; stroke:black; " description="&lt;b&gt;MCIC6FC_019738&lt;/b&gt;&lt;br&gt;hypothetical protein&lt;br&gt;Location: 22971 - 26914" locus_tag="MCIC6FC_019738" class="clusterblast-orf" id="dummy-1_q9_0_all"  />
<polygon points="667,35 672,30 708,30 708,40 672,40 667,35 " style="fill:white; stroke-width:1; stroke:black; " description="&lt;b&gt;MCIC6FC_019739&lt;/b&gt;&lt;br&gt;hypothetical protein&lt;br&gt;Location: 26943 - 28602" locus_tag="MCIC6FC_019739" class="clusterblast-orf" id="dummy-1_q10_0_all"  />
<polygon points="713,35 718,30 728,30 728,40 718,40 713,35 " style="fill:white; stroke-width:1; stroke:black; " description="&lt;b&gt;MCIC6FC_019740&lt;/b&gt;&lt;br&gt;hypothetical protein&lt;br&gt;Location: 28808 - 29406" locus_tag="MCIC6FC_019740" class="clusterblast-orf" id="dummy-1_q11_0_all"  />
<polygon points="731,40 775,40 780,35 775,30 731,30 731,40 " style="fill:white; stroke-width:1; stroke:black; " description="&lt;b&gt;MCIC6FC_019741&lt;/b&gt;&lt;br&gt;hypothetical protein&lt;br&gt;Location: 29521 - 31499" locus_tag="MCIC6FC_019741" class="clusterblast-orf" id="dummy-1_q12_0_all"  />
</g>
<g label="BGC0000836" description="BGC0000836_c1: APE Ec (26% of genes show similarity), Other" class="clusterblast-cluster"  >
<text x="5" y="70" class="clusterblast-acc"  >
<a xlink:href="https://mibig.secondarymetabolites.org/go/BGC0000836/1" target="_blank">BGC0000836</a>:                                                                           APE Ec (26% of genes show similarity), Other</text>
<line x1="10" y1="85" x2="778.0" y2="85" style="stroke-width:1; stroke:grey; "  />
</g>
<g id="a1_000"  >
<polygon points="203,85 208,80 234,80 234,90 208,90 203,85 " style="fill:white; stroke-width:1; stroke:black; " description="&lt;b&gt;c1186&lt;/b&gt;&lt;br&gt;Putative beta-ketoacyl-ACP synthase&lt;br&gt;Location: 1 - 1230" locus_tag="c1186" class="clusterblast-orf" id="dummy-1_h1_1_0"  />
</g>
<g id="a1_001"  >
<polygon points="234,85 239,80 252,80 252,90 239,90 234,85 " style="fill:white; stroke-width:1; stroke:black; " description="&lt;b&gt;c1187&lt;/b&gt;&lt;br&gt;3-oxoacyl-[acyl-carrier protein] reductase&lt;br&gt;Location: 1227 - 1958" locus_tag="c1187" class="clusterblast-orf" id="dummy-1_h1_1_1"  />
</g>
<g id="a1_002"  >
<polygon points="252,85 257,80 263,80 263,90 257,90 252,85 " style="fill:white; stroke-width:1; stroke:black; " description="&lt;b&gt;c1188&lt;/b&gt;&lt;br&gt;Conserved hypothetical protein&lt;br&gt;Location: 1958 - 2422" locus_tag="c1188" class="clusterblast-orf" id="dummy-1_h1_1_2"  />
</g>
<g id="a1_003"  >
<polygon points="263,85 268,80 292,80 292,90 268,90 263,85 " style="fill:white; stroke-width:1; stroke:black; " description="&lt;b&gt;c1189&lt;/b&gt;&lt;br&gt;Putative 3-oxoacyl-[ACP] synthase&lt;br&gt;Location: 2419 - 3597" locus_tag="c1189" class="clusterblast-orf" id="dummy-1_h1_1_3"  />
</g>
<g id="a1_004"  >
<polygon points="292,85 297,80 307,80 307,90 297,90 292,85 " style="fill:#d81515; stroke-width:1; stroke:black; " description="&lt;b&gt;c1190&lt;/b&gt;&lt;br&gt;Conserved hypothetical protein&lt;br&gt;Location: 3590 - 4174&lt;br&gt;&lt;br&gt;&lt;b&gt;BlastP hit with MCIC6FC_019733&lt;/b&gt;&lt;br&gt;Percentage identity: 68&lt;br&gt;Percentage coverage: 87&lt;br&gt;BLAST bit score: 252&lt;br&gt;E-value: 6.6e-67" locus_tag="c1190" class="clusterblast-orf" id="dummy-1_h1_1_4"  />
</g>
<g id="a1_005"  >
<polygon points="307,85 312,80 364,80 364,90 312,90 307,85 " style="fill:#77d815; stroke-width:1; stroke:black; " description="&lt;b&gt;c1191&lt;/b&gt;&lt;br&gt;Conserved hypothetical protein&lt;br&gt;Location: 4171 - 6489&lt;br&gt;&lt;br&gt;&lt;b&gt;BlastP hit with MCIC6FC_019734&lt;/b&gt;&lt;br&gt;Percentage identity: 71&lt;br&gt;Percentage coverage: 59&lt;br&gt;BLAST bit score: 899&lt;br&gt;E-value: 7e-261" locus_tag="c1191" class="clusterblast-orf" id="dummy-1_h1_1_5"  />
</g>
<g id="a1_006"  >
<polygon points="363,85 368,80 378,80 378,90 368,90 363,85 " style="fill:white; stroke-width:1; stroke:black; " description="&lt;b&gt;c1192&lt;/b&gt;&lt;br&gt;Conserved hypothetical protein&lt;br&gt;Location: 6458 - 7063" locus_tag="c1192" class="clusterblast-orf" id="dummy-1_h1_1_6"  />
</g>
<g id="a1_007"  >
<polygon points="378,85 383,80 389,80 389,90 383,90 378,85 " style="fill:white; stroke-width:1; stroke:black; " description="&lt;b&gt;c1193&lt;/b&gt;&lt;br&gt;Hypothetical protein&lt;br&gt;Location: 7060 - 7482" locus_tag="c1193" class="clusterblast-orf" id="dummy-1_h1_1_7"  />
</g>
<g id="a1_008"  >
<polygon points="389,85 394,80 429,80 429,90 394,90 389,85 " style="fill:#15d8d8; stroke-width:1; stroke:black; " description="&lt;b&gt;c1194&lt;/b&gt;&lt;br&gt;Putative enzyme&lt;br&gt;Location: 7486 - 9108&lt;br&gt;&lt;br&gt;&lt;b&gt;BlastP hit with MCIC6FC_019735&lt;/b&gt;&lt;br&gt;Percentage identity: 50&lt;br&gt;Percentage coverage: 100&lt;br&gt;BLAST bit score: 192&lt;br&gt;E-value: 8.8e-49" locus_tag="c1194" class="clusterblast-orf" id="dummy-1_h1_1_8"  />
</g>
<g id="a1_009"  >
<polygon points="428,85 431,80 431,90 428,85 " style="fill:white; stroke-width:1; stroke:black; " description="&lt;b&gt;c1195&lt;/b&gt;&lt;br&gt;Hypothetical protein&lt;br&gt;Location: 9080 - 9202" locus_tag="c1195" class="clusterblast-orf" id="dummy-1_h1_1_9"  />
</g>
<g id="a1_0010"  >
<polygon points="430,85 435,80 440,80 440,90 435,90 430,85 " style="fill:#7715d8; stroke-width:1; stroke:black; " description="&lt;b&gt;c1196&lt;/b&gt;&lt;br&gt;Conserved hypothetical protein&lt;br&gt;Location: 9153 - 9530&lt;br&gt;&lt;br&gt;&lt;b&gt;BlastP hit with MCIC6FC_019736&lt;/b&gt;&lt;br&gt;Percentage identity: 80&lt;br&gt;Percentage coverage: 47&lt;br&gt;BLAST bit score: 148&lt;br&gt;E-value: 1.5e-35" locus_tag="c1196" class="clusterblast-orf" id="dummy-1_h1_1_10"  />
</g>
<g id="a1_0011"  >
<polygon points="439,85 444,80 472,80 472,90 444,90 439,85 " style="fill:#7715d8; stroke-width:1; stroke:black; " description="&lt;b&gt;c1197&lt;/b&gt;&lt;br&gt;Putative enzyme&lt;br&gt;Location: 9493 - 10851&lt;br&gt;&lt;br&gt;&lt;b&gt;BlastP hit with MCIC6FC_019736&lt;/b&gt;&lt;br&gt;Percentage identity: 56&lt;br&gt;Percentage coverage: 58&lt;br&gt;BLAST bit score: 122&lt;br&gt;E-value: 6.6e-28" locus_tag="c1197" class="clusterblast-orf" id="dummy-1_h1_1_11"  />
</g>
<g id="a1_0012"  >
<polygon points="472,85 477,80 487,80 487,90 477,90 472,85 " style="fill:white; stroke-width:1; stroke:black; " description="&lt;b&gt;c1198&lt;/b&gt;&lt;br&gt;Conserved hypothetical protein&lt;br&gt;Location: 10848 - 11432" locus_tag="c1198" class="clusterblast-orf" id="dummy-1_h1_1_12"  />
</g>
<g id="a1_0013"  >
<polygon points="487,85 492,80 493,80 493,90 492,90 487,85 " style="fill:white; stroke-width:1; stroke:black; " description="&lt;b&gt;c1199&lt;/b&gt;&lt;br&gt;Putative acyl carrier protein&lt;br&gt;Location: 11434 - 11685" locus_tag="c1199" class="clusterblast-orf" id="dummy-1_h1_1_13"  />
</g>
<g id="a1_0014"  >
<polygon points="493,85 498,80 500,80 500,90 498,90 493,85 " style="fill:white; stroke-width:1; stroke:black; " description="&lt;b&gt;c1200&lt;/b&gt;&lt;br&gt;Putative acyl carrier protein&lt;br&gt;Location: 11697 - 11954" locus_tag="c1200" class="clusterblast-orf" id="dummy-1_h1_1_14"  />
</g>
<g id="a1_0015"  >
<polygon points="499,85 504,80 520,80 520,90 504,90 499,85 " style="fill:white; stroke-width:1; stroke:black; " description="&lt;b&gt;c1201&lt;/b&gt;&lt;br&gt;Putative phospholipid biosynthesis acyltransferase&lt;br&gt;Location: 11929 - 12768" locus_tag="c1201" class="clusterblast-orf" id="dummy-1_h1_1_15"  />
</g>
<g id="a1_0016"  >
<polygon points="519,85 524,80 538,80 538,90 524,90 519,85 " style="fill:white; stroke-width:1; stroke:black; " description="&lt;b&gt;c1202&lt;/b&gt;&lt;br&gt;Conserved hypothetical protein&lt;br&gt;Location: 12747 - 13493" locus_tag="c1202" class="clusterblast-orf" id="dummy-1_h1_1_16"  />
</g>
<g id="a1_0017"  >
<polygon points="538,85 543,80 565,80 565,90 543,90 538,85 " style="fill:white; stroke-width:1; stroke:black; " description="&lt;b&gt;c1203&lt;/b&gt;&lt;br&gt;Putative O-methyltransferase&lt;br&gt;Location: 13510 - 14568" locus_tag="c1203" class="clusterblast-orf" id="dummy-1_h1_1_17"  />
</g>
<g id="a1_0018"  >
<polygon points="566,85 571,80 576,80 576,90 571,90 566,85 " style="fill:white; stroke-width:1; stroke:black; " description="&lt;b&gt;c1204&lt;/b&gt;&lt;br&gt;Conserved hypothetical protein&lt;br&gt;Location: 14633 - 15022" locus_tag="c1204" class="clusterblast-orf" id="dummy-1_h1_1_18"  />
</g>
</svg>
