<svg xmlns="http://www.w3.org/2000/svg" xmlns:xlink="http://www.w3.org/1999/xlink" version="1.1" x="0" y="0" height="230" width="800" viewBox="0 0 800 230" preserveAspectRatio="none"  >
<g label="Query sequence" class="clusterblast-cluster"  >
<text x="5" y="20" class="clusterblast-acc"  >
Query sequence</text>
<line x1="10" y1="35" x2="778.0" y2="35" style="stroke-width:1; stroke:grey; "  />
<polygon points="0,40 261,40 266,35 261,30 0,30 0,40 " style="fill:#d81515; stroke-width:1; stroke:black; " description="&lt;b&gt;MCIC6FC_014563&lt;/b&gt;&lt;br&gt;hypothetical protein&lt;br&gt;Location: 12765 - 15620" locus_tag="MCIC6FC_014563" class="clusterblast-orf" id="dummy-1_q0_0_all"  />
<polygon points="272,40 480,40 485,35 480,30 272,30 272,40 " style="fill:#15d815; stroke-width:1; stroke:black; " description="&lt;b&gt;MCIC6FC_014564&lt;/b&gt;&lt;br&gt;hypothetical protein&lt;br&gt;Location: 15681 - 17977" locus_tag="MCIC6FC_014564" class="clusterblast-orf" id="dummy-1_q1_0_all"  />
<polygon points="492,40 775,40 780,35 775,30 492,30 492,40 " style="fill:#1515d8; stroke-width:1; stroke:black; " description="&lt;b&gt;MCIC6FC_014565&lt;/b&gt;&lt;br&gt;hypothetical protein&lt;br&gt;Location: 18054 - 21151" locus_tag="MCIC6FC_014565" class="clusterblast-orf" id="dummy-1_q2_0_all"  />
</g>
<g label="BGC0001572" description="BGC0001572_c1: desferrioxamine E (100% of genes show similarity), Other" class="clusterblast-cluster"  >
<text x="5" y="70" class="clusterblast-acc"  >
<a xlink:href="https://mibig.secondarymetabolites.org/go/BGC0001572/1" target="_blank">BGC0001572</a>:                                                                desferrioxamine E (100% of genes show similarity), Other</text>
<line x1="10" y1="85" x2="778.0" y2="85" style="stroke-width:1; stroke:grey; "  />
</g>
<g id="a1_000"  >
<polygon points="86,90 226,90 231,85 226,80 86,80 86,90 " style="fill:#d81515; stroke-width:1; stroke:black; " description="&lt;b&gt;AWD37887.1&lt;/b&gt;&lt;br&gt;putative pyridoxal-dependent decarboxylase DfoJ&lt;br&gt;Location: 10894 - 9341&lt;br&gt;&lt;br&gt;&lt;b&gt;BlastP hit with MCIC6FC_014563&lt;/b&gt;&lt;br&gt;Percentage identity: 97&lt;br&gt;Percentage coverage: 54&lt;br&gt;BLAST bit score: 973&lt;br&gt;E-value: 1.8e-283" locus_tag="AWD37887.1" class="clusterblast-orf" id="dummy-1_h1_1_0"  />
</g>
<g id="a1_001"  >
<polygon points="232,90 347,90 352,85 347,80 232,80 232,90 " style="fill:#d81515; stroke-width:1; stroke:black; " description="&lt;b&gt;AWD37886.1&lt;/b&gt;&lt;br&gt;putative lysine/ornithine N-monooxygenase DfoA&lt;br&gt;Location: 9330 - 8038&lt;br&gt;&lt;br&gt;&lt;b&gt;BlastP hit with MCIC6FC_014563&lt;/b&gt;&lt;br&gt;Percentage identity: 100&lt;br&gt;Percentage coverage: 46&lt;br&gt;BLAST bit score: 896&lt;br&gt;E-value: 3.6e-260" locus_tag="AWD37886.1" class="clusterblast-orf" id="dummy-1_h1_1_1"  />
</g>
<g id="a1_002"  >
<polygon points="352,90 566,90 571,85 566,80 352,80 352,90 " style="fill:#15d815; stroke-width:1; stroke:black; " description="&lt;b&gt;AWD37885.1&lt;/b&gt;&lt;br&gt;putative siderophore biosynthesis protein DfoC&lt;br&gt;Location: 8036 - 5682&lt;br&gt;&lt;br&gt;&lt;b&gt;BlastP hit with MCIC6FC_014564&lt;/b&gt;&lt;br&gt;Percentage identity: 96&lt;br&gt;Percentage coverage: 102&lt;br&gt;BLAST bit score: 1508&lt;br&gt;E-value: 0.0" locus_tag="AWD37885.1" class="clusterblast-orf" id="dummy-1_h1_1_2"  />
</g>
<g id="a1_003"  >
<polygon points="579,90 688,90 693,85 688,80 579,80 579,90 " style="fill:#1515d8; stroke-width:1; stroke:black; " description="&lt;b&gt;AWD37884.1&lt;/b&gt;&lt;br&gt;putative siderophore MFS transporter DfoS&lt;br&gt;Location: 5604 - 4378&lt;br&gt;&lt;br&gt;&lt;b&gt;BlastP hit with MCIC6FC_014565&lt;/b&gt;&lt;br&gt;Percentage identity: 99&lt;br&gt;Percentage coverage: 46&lt;br&gt;BLAST bit score: 744&lt;br&gt;E-value: 1.7e-214" locus_tag="AWD37884.1" class="clusterblast-orf" id="dummy-1_h1_1_3"  />
</g>
</svg>
