<svg xmlns="http://www.w3.org/2000/svg" xmlns:xlink="http://www.w3.org/1999/xlink" version="1.1" x="0" y="0" height="230" width="800" viewBox="0 0 800 230" preserveAspectRatio="none"  >
<g label="Query sequence" class="clusterblast-cluster"  >
<text x="5" y="20" class="clusterblast-acc"  >
Query sequence</text>
<line x1="10" y1="35" x2="778.0" y2="35" style="stroke-width:1; stroke:grey; "  />
<polygon points="89,40 135,40 140,35 135,30 89,30 89,40 " style="fill:white; stroke-width:1; stroke:black; " description="&lt;b&gt;MCIC6FC_012175&lt;/b&gt;&lt;br&gt;hypothetical protein&lt;br&gt;Location: 85985 - 90560" locus_tag="MCIC6FC_012175" class="clusterblast-orf" id="dummy-1_q0_0_all"  />
<polygon points="140,40 194,40 199,35 194,30 140,30 140,40 " style="fill:white; stroke-width:1; stroke:black; " description="&lt;b&gt;MCIC6FC_012176&lt;/b&gt;&lt;br&gt;hypothetical protein&lt;br&gt;Location: 90573 - 95850" locus_tag="MCIC6FC_012176" class="clusterblast-orf" id="dummy-1_q1_0_all"  />
<polygon points="201,35 206,30 217,30 217,40 206,40 201,35 " style="fill:white; stroke-width:1; stroke:black; " description="&lt;b&gt;MCIC6FC_012177&lt;/b&gt;&lt;br&gt;hypothetical protein&lt;br&gt;Location: 96034 - 97476" locus_tag="MCIC6FC_012177" class="clusterblast-orf" id="dummy-1_q2_0_all"  />
<polygon points="222,35 227,30 269,30 269,40 227,40 222,35 " style="fill:white; stroke-width:1; stroke:black; " description="&lt;b&gt;MCIC6FC_012178&lt;/b&gt;&lt;br&gt;hypothetical protein&lt;br&gt;Location: 97863 - 102059" locus_tag="MCIC6FC_012178" class="clusterblast-orf" id="dummy-1_q3_0_all"  />
<polygon points="271,40 295,40 300,35 295,30 271,30 271,40 " style="fill:white; stroke-width:1; stroke:black; " description="&lt;b&gt;MCIC6FC_012179&lt;/b&gt;&lt;br&gt;hypothetical protein&lt;br&gt;Location: 102315 - 104830" locus_tag="MCIC6FC_012179" class="clusterblast-orf" id="dummy-1_q4_0_all"  />
<polygon points="300,35 305,30 310,30 310,40 305,40 300,35 " style="fill:white; stroke-width:1; stroke:black; " description="&lt;b&gt;MCIC6FC_012180&lt;/b&gt;&lt;br&gt;hypothetical protein&lt;br&gt;Location: 104832 - 105751" locus_tag="MCIC6FC_012180" class="clusterblast-orf" id="dummy-1_q5_0_all"  />
<polygon points="312,35 317,30 383,30 383,40 317,40 312,35 " style="fill:#d81515; stroke-width:1; stroke:black; " description="&lt;b&gt;MCIC6FC_012181&lt;/b&gt;&lt;br&gt;hypothetical protein&lt;br&gt;Location: 105975 - 112248" locus_tag="MCIC6FC_012181" class="clusterblast-orf" id="dummy-1_q6_0_all"  />
<polygon points="387,40 391,40 396,35 391,30 387,30 387,40 " style="fill:#15d815; stroke-width:1; stroke:black; " description="&lt;b&gt;MCIC6FC_012182&lt;/b&gt;&lt;br&gt;hypothetical protein&lt;br&gt;Location: 112684 - 113485" locus_tag="MCIC6FC_012182" class="clusterblast-orf" id="dummy-1_q7_0_all"  />
<polygon points="397,40 414,40 419,35 414,30 397,30 397,40 " style="fill:#1515d8; stroke-width:1; stroke:black; " description="&lt;b&gt;MCIC6FC_012183&lt;/b&gt;&lt;br&gt;hypothetical protein&lt;br&gt;Location: 113517 - 115525" locus_tag="MCIC6FC_012183" class="clusterblast-orf" id="dummy-1_q8_0_all"  />
<polygon points="423,35 428,30 440,30 440,40 428,40 423,35 " style="fill:white; stroke-width:1; stroke:black; " description="&lt;b&gt;MCIC6FC_012184&lt;/b&gt;&lt;br&gt;hypothetical protein&lt;br&gt;Location: 115877 - 117343" locus_tag="MCIC6FC_012184" class="clusterblast-orf" id="dummy-1_q9_0_all"  />
<polygon points="441,40 449,40 454,35 449,30 441,30 441,40 " style="fill:white; stroke-width:1; stroke:black; " description="&lt;b&gt;MCIC6FC_012185&lt;/b&gt;&lt;br&gt;hypothetical protein&lt;br&gt;Location: 117475 - 118598" locus_tag="MCIC6FC_012185" class="clusterblast-orf" id="dummy-1_q10_0_all"  />
<polygon points="454,35 459,30 462,30 462,40 459,40 454,35 " style="fill:white; stroke-width:1; stroke:black; " description="&lt;b&gt;MCIC6FC_012186&lt;/b&gt;&lt;br&gt;hypothetical protein&lt;br&gt;Location: 118611 - 119329" locus_tag="MCIC6FC_012186" class="clusterblast-orf" id="dummy-1_q11_0_all"  />
<polygon points="463,35 468,30 469,30 469,40 468,40 463,35 " style="fill:white; stroke-width:1; stroke:black; " description="&lt;b&gt;MCIC6FC_012187&lt;/b&gt;&lt;br&gt;hypothetical protein&lt;br&gt;Location: 119420 - 119974" locus_tag="MCIC6FC_012187" class="clusterblast-orf" id="dummy-1_q12_0_all"  />
<polygon points="470,40 492,40 497,35 492,30 470,30 470,40 " style="fill:white; stroke-width:1; stroke:black; " description="&lt;b&gt;MCIC6FC_012188&lt;/b&gt;&lt;br&gt;hypothetical protein&lt;br&gt;Location: 120084 - 122513" locus_tag="MCIC6FC_012188" class="clusterblast-orf" id="dummy-1_q13_0_all"  />
<polygon points="508,35 513,30 579,30 579,40 513,40 508,35 " style="fill:white; stroke-width:1; stroke:black; " description="&lt;b&gt;MCIC6FC_012189&lt;/b&gt;&lt;br&gt;hypothetical protein&lt;br&gt;Location: 123493 - 129834" locus_tag="MCIC6FC_012189" class="clusterblast-orf" id="dummy-1_q14_0_all"  />
<polygon points="580,35 585,30 662,30 662,40 585,40 580,35 " style="fill:white; stroke-width:1; stroke:black; " description="&lt;b&gt;MCIC6FC_012190&lt;/b&gt;&lt;br&gt;hypothetical protein&lt;br&gt;Location: 129871 - 137203" locus_tag="MCIC6FC_012190" class="clusterblast-orf" id="dummy-1_q15_0_all"  />
<polygon points="664,35 669,30 691,30 691,40 669,40 664,35 " style="fill:white; stroke-width:1; stroke:black; " description="&lt;b&gt;MCIC6FC_012191&lt;/b&gt;&lt;br&gt;hypothetical protein&lt;br&gt;Location: 137366 - 139772" locus_tag="MCIC6FC_012191" class="clusterblast-orf" id="dummy-1_q16_0_all"  />
</g>
<g label="BGC0000425" description="BGC0000425_c1: sessilin A (55% of genes show similarity), NRP:Cyclic depsipeptide" class="clusterblast-cluster"  >
<text x="5" y="70" class="clusterblast-acc"  >
<a xlink:href="https://mibig.secondarymetabolites.org/go/BGC0000425/1" target="_blank">BGC0000425</a>:                                                                       sessilin A (55% of genes show similarity), NRP:Cyclic depsipeptide</text>
<line x1="10" y1="85" x2="778.0" y2="85" style="stroke-width:1; stroke:grey; "  />
</g>
<g id="a1_000"  >
<polygon points="0,90 10,90 15,85 10,80 0,80 0,90 " style="fill:white; stroke-width:1; stroke:black; " description="&lt;b&gt;AFH75325.1&lt;/b&gt;&lt;br&gt;diaminobutyrate-2-oxoglutarate aminotransferase&lt;br&gt;Location: 69722 - 68337" locus_tag="AFH75325.1" class="clusterblast-orf" id="dummy-1_h1_4_0"  />
</g>
<g id="a1_001"  >
<polygon points="16,85 21,80 38,80 38,90 21,90 16,85 " style="fill:white; stroke-width:1; stroke:black; " description="&lt;b&gt;AFH75324.1&lt;/b&gt;&lt;br&gt;macrolide export ATP-binding/permease protein MacB&lt;br&gt;Location: 68229 - 66271" locus_tag="AFH75324.1" class="clusterblast-orf" id="dummy-1_h1_4_1"  />
</g>
<g id="a1_002"  >
<polygon points="38,85 43,80 51,80 51,90 43,90 38,85 " style="fill:white; stroke-width:1; stroke:black; " description="&lt;b&gt;AFH75323.1&lt;/b&gt;&lt;br&gt;macrolide-specific efflux protein&lt;br&gt;Location: 66268 - 65117" locus_tag="AFH75323.1" class="clusterblast-orf" id="dummy-1_h1_4_2"  />
</g>
<g id="a1_003"  >
<polygon points="52,85 57,80 289,80 289,90 57,90 52,85 " style="fill:#d81515; stroke-width:1; stroke:black; " description="&lt;b&gt;AFH75322.1&lt;/b&gt;&lt;br&gt;nonribosomal peptide synthetase&lt;br&gt;Location: 64995 - 43822&lt;br&gt;&lt;br&gt;&lt;b&gt;BlastP hit with MCIC6FC_012181&lt;/b&gt;&lt;br&gt;Percentage identity: 48&lt;br&gt;Percentage coverage: 84&lt;br&gt;BLAST bit score: 1377&lt;br&gt;E-value: 0.0" locus_tag="AFH75322.1" class="clusterblast-orf" id="dummy-1_h1_4_3"  />
</g>
<g id="a1_004"  >
<polygon points="294,85 299,80 511,80 511,90 299,90 294,85 " style="fill:#d81515; stroke-width:1; stroke:black; " description="&lt;b&gt;AFH75321.1&lt;/b&gt;&lt;br&gt;nonribosomal peptide synthetase&lt;br&gt;Location: 43444 - 24044&lt;br&gt;&lt;br&gt;&lt;b&gt;BlastP hit with MCIC6FC_012181&lt;/b&gt;&lt;br&gt;Percentage identity: 49&lt;br&gt;Percentage coverage: 101&lt;br&gt;BLAST bit score: 1706&lt;br&gt;E-value: 0.0" locus_tag="AFH75321.1" class="clusterblast-orf" id="dummy-1_h1_4_4"  />
</g>
<g id="a1_005"  >
<polygon points="511,85 516,80 726,80 726,90 516,90 511,85 " style="fill:#d81515; stroke-width:1; stroke:black; " description="&lt;b&gt;AFH75320.1&lt;/b&gt;&lt;br&gt;nonribosomal peptide synthetase&lt;br&gt;Location: 24047 - 4806&lt;br&gt;&lt;br&gt;&lt;b&gt;BlastP hit with MCIC6FC_012181&lt;/b&gt;&lt;br&gt;Percentage identity: 49&lt;br&gt;Percentage coverage: 105&lt;br&gt;BLAST bit score: 1802&lt;br&gt;E-value: 0.0" locus_tag="AFH75320.1" class="clusterblast-orf" id="dummy-1_h1_4_5"  />
</g>
<g id="a1_006"  >
<polygon points="731,85 736,80 750,80 750,90 736,90 731,85 " style="fill:white; stroke-width:1; stroke:black; " description="&lt;b&gt;AFH75319.1&lt;/b&gt;&lt;br&gt;cyclic peptide transporter&lt;br&gt;Location: 4344 - 2647" locus_tag="AFH75319.1" class="clusterblast-orf" id="dummy-1_h1_4_6"  />
</g>
<g id="a1_007"  >
<polygon points="754,90 758,90 763,85 758,80 754,80 754,90 " style="fill:#15d815; stroke-width:1; stroke:black; " description="&lt;b&gt;AFH75318.1&lt;/b&gt;&lt;br&gt;LuxR family transcriptional regulator&lt;br&gt;Location: 2337 - 1522&lt;br&gt;&lt;br&gt;&lt;b&gt;BlastP hit with MCIC6FC_012182&lt;/b&gt;&lt;br&gt;Percentage identity: 51&lt;br&gt;Percentage coverage: 105&lt;br&gt;BLAST bit score: 260&lt;br&gt;E-value: 3.8e-69" locus_tag="AFH75318.1" class="clusterblast-orf" id="dummy-1_h1_4_7"  />
</g>
<g id="a1_008"  >
<polygon points="763,90 775,90 780,85 775,80 763,80 763,90 " style="fill:#1515d8; stroke-width:1; stroke:black; " description="&lt;b&gt;AFH75317.1&lt;/b&gt;&lt;br&gt;outer membrane efflux protein&lt;br&gt;Location: 1459 - 20&lt;br&gt;&lt;br&gt;&lt;b&gt;BlastP hit with MCIC6FC_012183&lt;/b&gt;&lt;br&gt;Percentage identity: 75&lt;br&gt;Percentage coverage: 75&lt;br&gt;BLAST bit score: 652&lt;br&gt;E-value: 7.8e-187" locus_tag="AFH75317.1" class="clusterblast-orf" id="dummy-1_h1_4_8"  />
</g>
</svg>
