<svg xmlns="http://www.w3.org/2000/svg" xmlns:xlink="http://www.w3.org/1999/xlink" version="1.1" x="0" y="0" height="230" width="800" viewBox="0 0 800 230" preserveAspectRatio="none"  >
<g label="Query sequence" class="clusterblast-cluster"  >
<text x="5" y="20" class="clusterblast-acc"  >
Query sequence</text>
<line x1="10" y1="35" x2="778.0" y2="35" style="stroke-width:1; stroke:grey; "  />
<polygon points="0,35 5,30 16,30 16,40 5,40 0,35 " style="fill:white; stroke-width:1; stroke:black; " description="&lt;b&gt;MCIC6FC_007887&lt;/b&gt;&lt;br&gt;hypothetical protein&lt;br&gt;Location: 1618687 - 1619925" locus_tag="MCIC6FC_007887" class="clusterblast-orf" id="dummy-6_q0_0_all"  />
<polygon points="16,35 21,30 39,30 39,40 21,40 16,35 " style="fill:#d81515; stroke-width:1; stroke:black; " description="&lt;b&gt;MCIC6FC_007888&lt;/b&gt;&lt;br&gt;hypothetical protein&lt;br&gt;Location: 1619941 - 1621734" locus_tag="MCIC6FC_007888" class="clusterblast-orf" id="dummy-6_q1_0_all"  />
<polygon points="39,35 44,30 53,30 53,40 44,40 39,35 " style="fill:#3cd815; stroke-width:1; stroke:black; " description="&lt;b&gt;MCIC6FC_007889&lt;/b&gt;&lt;br&gt;hypothetical protein&lt;br&gt;Location: 1621784 - 1622873" locus_tag="MCIC6FC_007889" class="clusterblast-orf" id="dummy-6_q2_0_all"  />
<polygon points="54,35 59,30 71,30 71,40 59,40 54,35 " style="fill:white; stroke-width:1; stroke:black; " description="&lt;b&gt;MCIC6FC_007890&lt;/b&gt;&lt;br&gt;hypothetical protein&lt;br&gt;Location: 1622896 - 1624255" locus_tag="MCIC6FC_007890" class="clusterblast-orf" id="dummy-6_q3_0_all"  />
<polygon points="73,40 79,40 84,35 79,30 73,30 73,40 " style="fill:#1563d8; stroke-width:1; stroke:black; " description="&lt;b&gt;MCIC6FC_007891&lt;/b&gt;&lt;br&gt;hypothetical protein&lt;br&gt;Location: 1624394 - 1625291" locus_tag="MCIC6FC_007891" class="clusterblast-orf" id="dummy-6_q4_0_all"  />
<polygon points="86,40 108,40 113,35 108,30 86,30 86,40 " style="fill:#b115d8; stroke-width:1; stroke:black; " description="&lt;b&gt;MCIC6FC_007892&lt;/b&gt;&lt;br&gt;hypothetical protein&lt;br&gt;Location: 1625391 - 1627551" locus_tag="MCIC6FC_007892" class="clusterblast-orf" id="dummy-6_q5_0_all"  />
<polygon points="114,35 119,30 128,30 128,40 119,40 114,35 " style="fill:white; stroke-width:1; stroke:black; " description="&lt;b&gt;MCIC6FC_007893&lt;/b&gt;&lt;br&gt;hypothetical protein&lt;br&gt;Location: 1627593 - 1628671" locus_tag="MCIC6FC_007893" class="clusterblast-orf" id="dummy-6_q6_0_all"  />
<polygon points="129,40 133,40 138,35 133,30 129,30 129,40 " style="fill:white; stroke-width:1; stroke:black; " description="&lt;b&gt;MCIC6FC_007894&lt;/b&gt;&lt;br&gt;hypothetical protein&lt;br&gt;Location: 1628768 - 1629501" locus_tag="MCIC6FC_007894" class="clusterblast-orf" id="dummy-6_q7_0_all"  />
<polygon points="139,35 144,30 145,30 145,40 144,40 139,35 " style="fill:#d88a15; stroke-width:1; stroke:black; " description="&lt;b&gt;MCIC6FC_007895&lt;/b&gt;&lt;br&gt;hypothetical protein&lt;br&gt;Location: 1629543 - 1629981" locus_tag="MCIC6FC_007895" class="clusterblast-orf" id="dummy-6_q8_0_all"  />
<polygon points="146,35 151,30 152,30 152,40 151,40 146,35 " style="fill:#15d863; stroke-width:1; stroke:black; " description="&lt;b&gt;MCIC6FC_007896&lt;/b&gt;&lt;br&gt;hypothetical protein&lt;br&gt;Location: 1630103 - 1630574" locus_tag="MCIC6FC_007896" class="clusterblast-orf" id="dummy-6_q9_0_all"  />
<polygon points="154,40 165,40 170,35 165,30 154,30 154,40 " style="fill:#3c15d8; stroke-width:1; stroke:black; " description="&lt;b&gt;MCIC6FC_007897&lt;/b&gt;&lt;br&gt;hypothetical protein&lt;br&gt;Location: 1630697 - 1631945" locus_tag="MCIC6FC_007897" class="clusterblast-orf" id="dummy-6_q10_0_all"  />
<polygon points="173,40 176,40 181,35 176,30 173,30 173,40 " style="fill:#d8158a; stroke-width:1; stroke:black; " description="&lt;b&gt;MCIC6FC_007898&lt;/b&gt;&lt;br&gt;hypothetical protein&lt;br&gt;Location: 1632165 - 1632855" locus_tag="MCIC6FC_007898" class="clusterblast-orf" id="dummy-6_q11_0_all"  />
<polygon points="182,35 187,30 222,30 222,40 187,40 182,35 " style="fill:#b1d815; stroke-width:1; stroke:black; " description="&lt;b&gt;MCIC6FC_007899&lt;/b&gt;&lt;br&gt;hypothetical protein&lt;br&gt;Location: 1632911 - 1635995" locus_tag="MCIC6FC_007899" class="clusterblast-orf" id="dummy-6_q12_0_all"  />
<polygon points="229,35 234,30 540,30 540,40 234,40 229,35 " style="fill:#15d8d8; stroke-width:1; stroke:black; " description="&lt;b&gt;MCIC6FC_007900&lt;/b&gt;&lt;br&gt;hypothetical protein&lt;br&gt;Location: 1636549 - 1660777" locus_tag="MCIC6FC_007900" class="clusterblast-orf" id="dummy-6_q13_0_all"  />
<polygon points="543,35 548,30 564,30 564,40 548,40 543,35 " style="fill:white; stroke-width:1; stroke:black; " description="&lt;b&gt;MCIC6FC_007901&lt;/b&gt;&lt;br&gt;hypothetical protein&lt;br&gt;Location: 1660996 - 1662651" locus_tag="MCIC6FC_007901" class="clusterblast-orf" id="dummy-6_q14_0_all"  />
<polygon points="567,35 572,30 629,30 629,40 572,40 567,35 " style="fill:white; stroke-width:1; stroke:black; " description="&lt;b&gt;MCIC6FC_007902&lt;/b&gt;&lt;br&gt;hypothetical protein&lt;br&gt;Location: 1662893 - 1667726" locus_tag="MCIC6FC_007902" class="clusterblast-orf" id="dummy-6_q15_0_all"  />
<polygon points="648,40 660,40 665,35 660,30 648,30 648,40 " style="fill:white; stroke-width:1; stroke:black; " description="&lt;b&gt;MCIC6FC_007903&lt;/b&gt;&lt;br&gt;hypothetical protein&lt;br&gt;Location: 1669225 - 1670522" locus_tag="MCIC6FC_007903" class="clusterblast-orf" id="dummy-6_q16_0_all"  />
<polygon points="666,40 670,40 675,35 670,30 666,30 666,40 " style="fill:white; stroke-width:1; stroke:black; " description="&lt;b&gt;MCIC6FC_007904&lt;/b&gt;&lt;br&gt;hypothetical protein&lt;br&gt;Location: 1670591 - 1671338" locus_tag="MCIC6FC_007904" class="clusterblast-orf" id="dummy-6_q17_0_all"  />
<polygon points="678,35 683,30 686,30 686,40 683,40 678,35 " style="fill:white; stroke-width:1; stroke:black; " description="&lt;b&gt;MCIC6FC_007905&lt;/b&gt;&lt;br&gt;hypothetical protein&lt;br&gt;Location: 1671548 - 1672133" locus_tag="MCIC6FC_007905" class="clusterblast-orf" id="dummy-6_q18_0_all"  />
<polygon points="686,35 691,30 699,30 699,40 691,40 686,35 " style="fill:white; stroke-width:1; stroke:black; " description="&lt;b&gt;MCIC6FC_007906&lt;/b&gt;&lt;br&gt;hypothetical protein&lt;br&gt;Location: 1672192 - 1673215" locus_tag="MCIC6FC_007906" class="clusterblast-orf" id="dummy-6_q19_0_all"  />
<polygon points="700,35 705,30 730,30 730,40 705,40 700,35 " style="fill:white; stroke-width:1; stroke:black; " description="&lt;b&gt;MCIC6FC_007907&lt;/b&gt;&lt;br&gt;hypothetical protein&lt;br&gt;Location: 1673279 - 1675586" locus_tag="MCIC6FC_007907" class="clusterblast-orf" id="dummy-6_q20_0_all"  />
<polygon points="732,40 775,40 780,35 775,30 732,30 732,40 " style="fill:white; stroke-width:1; stroke:black; " description="&lt;b&gt;MCIC6FC_007908&lt;/b&gt;&lt;br&gt;hypothetical protein&lt;br&gt;Location: 1675751 - 1679462" locus_tag="MCIC6FC_007908" class="clusterblast-orf" id="dummy-6_q21_0_all"  />
</g>
<g label="BGC0001346" description="BGC0001346_c1: bananamide 1 / bananamide 2 / bananamide 3 (37% of genes show similarity), NRP:Cyclic depsipeptide" class="clusterblast-cluster"  >
<text x="5" y="70" class="clusterblast-acc"  >
<a xlink:href="https://mibig.secondarymetabolites.org/go/BGC0001346/1" target="_blank">BGC0001346</a>:                                       bananamide 1 / bananamide 2 / bananamide 3 (37% of genes show similarity), NRP:Cyclic depsipeptide</text>
<line x1="10" y1="85" x2="778.0" y2="85" style="stroke-width:1; stroke:grey; "  />
</g>
<g id="a6_000"  >
<polygon points="169,90 174,90 179,85 174,80 169,80 169,90 " style="fill:#d8158a; stroke-width:1; stroke:black; " description="&lt;b&gt;AOA33126.1&lt;/b&gt;&lt;br&gt;LuxR family DNA-binding response regulator&lt;br&gt;Location: 34383 - 33610&lt;br&gt;&lt;br&gt;&lt;b&gt;BlastP hit with MCIC6FC_007898&lt;/b&gt;&lt;br&gt;Percentage identity: 62&lt;br&gt;Percentage coverage: 107&lt;br&gt;BLAST bit score: 272&lt;br&gt;E-value: 4.8e-73" locus_tag="AOA33126.1" class="clusterblast-orf" id="dummy-6_h6_7_0"  />
</g>
<g id="a6_001"  >
<polygon points="180,85 185,80 205,80 205,90 185,90 180,85 " style="fill:#b1d815; stroke-width:1; stroke:black; " description="&lt;b&gt;AOA33125.1&lt;/b&gt;&lt;br&gt;ABC transporter ATP-binding protein&lt;br&gt;Location: 33552 - 31588&lt;br&gt;&lt;br&gt;&lt;b&gt;BlastP hit with MCIC6FC_007899&lt;/b&gt;&lt;br&gt;Percentage identity: 85&lt;br&gt;Percentage coverage: 64&lt;br&gt;BLAST bit score: 1068&lt;br&gt;E-value: 5.9e-312" locus_tag="AOA33125.1" class="clusterblast-orf" id="dummy-6_h6_7_1"  />
</g>
<g id="a6_002"  >
<polygon points="205,85 210,80 219,80 219,90 210,90 205,85 " style="fill:white; stroke-width:1; stroke:black; " description="&lt;b&gt;AOA33124.1&lt;/b&gt;&lt;br&gt;RND family efflux transporter MFP subunit&lt;br&gt;Location: 31591 - 30443" locus_tag="AOA33124.1" class="clusterblast-orf" id="dummy-6_h6_7_2"  />
</g>
<g id="a6_003"  >
<polygon points="220,85 225,80 327,80 327,90 225,90 220,85 " style="fill:white; stroke-width:1; stroke:black; " description="&lt;b&gt;AOA33123.1&lt;/b&gt;&lt;br&gt;Nonribosomal peptide synthetase&lt;br&gt;Location: 30376 - 22076" locus_tag="AOA33123.1" class="clusterblast-orf" id="dummy-6_h6_7_3"  />
</g>
<g id="a6_004"  >
<polygon points="327,85 332,80 494,80 494,90 332,90 327,85 " style="fill:#15d8d8; stroke-width:1; stroke:black; " description="&lt;b&gt;AOA33122.1&lt;/b&gt;&lt;br&gt;Nonribosomal peptide synthetase&lt;br&gt;Location: 22079 - 9072&lt;br&gt;&lt;br&gt;&lt;b&gt;BlastP hit with MCIC6FC_007900&lt;/b&gt;&lt;br&gt;Percentage identity: 65&lt;br&gt;Percentage coverage: 54&lt;br&gt;BLAST bit score: 5400&lt;br&gt;E-value: 0.0" locus_tag="AOA33122.1" class="clusterblast-orf" id="dummy-6_h6_7_4"  />
</g>
<g id="a6_005"  >
<polygon points="497,85 502,80 579,80 579,90 502,90 497,85 " style="fill:white; stroke-width:1; stroke:black; " description="&lt;b&gt;AOA33121.1&lt;/b&gt;&lt;br&gt;Nonribosomal peptide synthetase&lt;br&gt;Location: 8821 - 2411" locus_tag="AOA33121.1" class="clusterblast-orf" id="dummy-6_h6_7_5"  />
</g>
<g id="a6_006"  >
<polygon points="585,90 591,90 596,85 591,80 585,80 585,90 " style="fill:white; stroke-width:1; stroke:black; " description="&lt;b&gt;AOA33120.1&lt;/b&gt;&lt;br&gt;LuxR family DNA-binding response regulator&lt;br&gt;Location: 1920 - 1126" locus_tag="AOA33120.1" class="clusterblast-orf" id="dummy-6_h6_7_6"  />
</g>
<g id="a6_007"  >
<polygon points="596,90 605,90 610,85 605,80 596,80 596,90 " style="fill:white; stroke-width:1; stroke:black; " description="&lt;b&gt;AOA33119.1&lt;/b&gt;&lt;br&gt;RND efflux system, outer membrane lipoprotein&lt;br&gt;Location: 1066 - 1" locus_tag="AOA33119.1" class="clusterblast-orf" id="dummy-6_h6_7_7"  />
</g>
</svg>
