<svg xmlns="http://www.w3.org/2000/svg" xmlns:xlink="http://www.w3.org/1999/xlink" version="1.1" x="0" y="0" height="230" width="800" viewBox="0 0 800 230" preserveAspectRatio="none"  >
<g label="Query sequence" class="clusterblast-cluster"  >
<text x="5" y="20" class="clusterblast-acc"  >
Query sequence</text>
<line x1="10" y1="35" x2="778.0" y2="35" style="stroke-width:1; stroke:grey; "  />
<polygon points="0,40 1,40 6,35 1,30 0,30 0,40 " style="fill:white; stroke-width:1; stroke:black; " description="&lt;b&gt;MCIC6FC_022236&lt;/b&gt;&lt;br&gt;hypothetical protein&lt;br&gt;Location: 31694 - 32090" locus_tag="MCIC6FC_022236" class="clusterblast-orf" id="dummy-1_q0_0_all"  />
<polygon points="6,35 10,30 10,40 6,35 " style="fill:white; stroke-width:1; stroke:black; " description="&lt;b&gt;MCIC6FC_022237&lt;/b&gt;&lt;br&gt;hypothetical protein&lt;br&gt;Location: 32123 - 32348" locus_tag="MCIC6FC_022237" class="clusterblast-orf" id="dummy-1_q1_0_all"  />
<polygon points="17,40 104,40 109,35 104,30 17,30 17,40 " style="fill:white; stroke-width:1; stroke:black; " description="&lt;b&gt;MCIC6FC_022238&lt;/b&gt;&lt;br&gt;hypothetical protein&lt;br&gt;Location: 32807 - 38607" locus_tag="MCIC6FC_022238" class="clusterblast-orf" id="dummy-1_q2_0_all"  />
<polygon points="109,35 114,30 140,30 140,40 114,40 109,35 " style="fill:white; stroke-width:1; stroke:black; " description="&lt;b&gt;MCIC6FC_022239&lt;/b&gt;&lt;br&gt;hypothetical protein&lt;br&gt;Location: 38646 - 40566" locus_tag="MCIC6FC_022239" class="clusterblast-orf" id="dummy-1_q3_0_all"  />
<polygon points="146,35 151,30 166,30 166,40 151,40 146,35 " style="fill:white; stroke-width:1; stroke:black; " description="&lt;b&gt;MCIC6FC_022240&lt;/b&gt;&lt;br&gt;hypothetical protein&lt;br&gt;Location: 40945 - 42244" locus_tag="MCIC6FC_022240" class="clusterblast-orf" id="dummy-1_q4_0_all"  />
<polygon points="170,40 196,40 201,35 196,30 170,30 170,40 " style="fill:white; stroke-width:1; stroke:black; " description="&lt;b&gt;MCIC6FC_022241&lt;/b&gt;&lt;br&gt;hypothetical protein&lt;br&gt;Location: 42488 - 44434" locus_tag="MCIC6FC_022241" class="clusterblast-orf" id="dummy-1_q5_0_all"  />
<polygon points="202,40 236,40 241,35 236,30 202,30 202,40 " style="fill:white; stroke-width:1; stroke:black; " description="&lt;b&gt;MCIC6FC_022242&lt;/b&gt;&lt;br&gt;hypothetical protein&lt;br&gt;Location: 44506 - 46980" locus_tag="MCIC6FC_022242" class="clusterblast-orf" id="dummy-1_q6_0_all"  />
<polygon points="247,40 251,35 247,30 247,40 " style="fill:#d81515; stroke-width:1; stroke:black; " description="&lt;b&gt;MCIC6FC_022243&lt;/b&gt;&lt;br&gt;hypothetical protein&lt;br&gt;Location: 47369 - 47636" locus_tag="MCIC6FC_022243" class="clusterblast-orf" id="dummy-1_q7_0_all"  />
<polygon points="255,40 318,40 323,35 318,30 255,30 255,40 " style="fill:white; stroke-width:1; stroke:black; " description="&lt;b&gt;MCIC6FC_022244&lt;/b&gt;&lt;br&gt;hypothetical protein&lt;br&gt;Location: 47865 - 52152" locus_tag="MCIC6FC_022244" class="clusterblast-orf" id="dummy-1_q8_0_all"  />
<polygon points="324,40 397,40 402,35 397,30 324,30 324,40 " style="fill:#15d863; stroke-width:1; stroke:black; " description="&lt;b&gt;MCIC6FC_022245&lt;/b&gt;&lt;br&gt;hypothetical protein&lt;br&gt;Location: 52203 - 57151" locus_tag="MCIC6FC_022245" class="clusterblast-orf" id="dummy-1_q9_0_all"  />
<polygon points="402,40 406,40 411,35 406,30 402,30 402,40 " style="fill:#1563d8; stroke-width:1; stroke:black; " description="&lt;b&gt;MCIC6FC_022246&lt;/b&gt;&lt;br&gt;hypothetical protein&lt;br&gt;Location: 57154 - 57728" locus_tag="MCIC6FC_022246" class="clusterblast-orf" id="dummy-1_q10_0_all"  />
<polygon points="411,40 424,40 429,35 424,30 411,30 411,40 " style="fill:#b115d8; stroke-width:1; stroke:black; " description="&lt;b&gt;MCIC6FC_022247&lt;/b&gt;&lt;br&gt;hypothetical protein&lt;br&gt;Location: 57748 - 58885" locus_tag="MCIC6FC_022247" class="clusterblast-orf" id="dummy-1_q11_0_all"  />
<polygon points="430,40 462,40 467,35 462,30 430,30 430,40 " style="fill:#b1d815; stroke-width:1; stroke:black; " description="&lt;b&gt;MCIC6FC_022248&lt;/b&gt;&lt;br&gt;hypothetical protein&lt;br&gt;Location: 58922 - 61311" locus_tag="MCIC6FC_022248" class="clusterblast-orf" id="dummy-1_q12_0_all"  />
<polygon points="473,35 478,30 493,30 493,40 478,40 473,35 " style="fill:white; stroke-width:1; stroke:black; " description="&lt;b&gt;MCIC6FC_022249&lt;/b&gt;&lt;br&gt;hypothetical protein&lt;br&gt;Location: 61664 - 62953" locus_tag="MCIC6FC_022249" class="clusterblast-orf" id="dummy-1_q13_0_all"  />
<polygon points="496,40 514,40 519,35 514,30 496,30 496,40 " style="fill:white; stroke-width:1; stroke:black; " description="&lt;b&gt;MCIC6FC_022250&lt;/b&gt;&lt;br&gt;hypothetical protein&lt;br&gt;Location: 63108 - 64568" locus_tag="MCIC6FC_022250" class="clusterblast-orf" id="dummy-1_q14_0_all"  />
<polygon points="524,35 529,30 536,30 536,40 529,40 524,35 " style="fill:white; stroke-width:1; stroke:black; " description="&lt;b&gt;MCIC6FC_022251&lt;/b&gt;&lt;br&gt;hypothetical protein&lt;br&gt;Location: 64918 - 65662" locus_tag="MCIC6FC_022251" class="clusterblast-orf" id="dummy-1_q15_0_all"  />
<polygon points="546,40 603,40 608,35 603,30 546,30 546,40 " style="fill:white; stroke-width:1; stroke:black; " description="&lt;b&gt;MCIC6FC_022252&lt;/b&gt;&lt;br&gt;hypothetical protein&lt;br&gt;Location: 66305 - 70227" locus_tag="MCIC6FC_022252" class="clusterblast-orf" id="dummy-1_q16_0_all"  />
<polygon points="614,35 619,30 620,30 620,40 619,40 614,35 " style="fill:white; stroke-width:1; stroke:black; " description="&lt;b&gt;MCIC6FC_022253&lt;/b&gt;&lt;br&gt;hypothetical protein&lt;br&gt;Location: 70588 - 70990" locus_tag="MCIC6FC_022253" class="clusterblast-orf" id="dummy-1_q17_0_all"  />
<polygon points="636,40 665,40 670,35 665,30 636,30 636,40 " style="fill:white; stroke-width:1; stroke:black; " description="&lt;b&gt;MCIC6FC_022254&lt;/b&gt;&lt;br&gt;hypothetical protein&lt;br&gt;Location: 71980 - 74154" locus_tag="MCIC6FC_022254" class="clusterblast-orf" id="dummy-1_q18_0_all"  />
<polygon points="671,35 676,30 688,30 688,40 676,40 671,35 " style="fill:white; stroke-width:1; stroke:black; " description="&lt;b&gt;MCIC6FC_022255&lt;/b&gt;&lt;br&gt;hypothetical protein&lt;br&gt;Location: 74193 - 75265" locus_tag="MCIC6FC_022255" class="clusterblast-orf" id="dummy-1_q19_0_all"  />
<polygon points="694,35 699,30 717,30 717,40 699,40 694,35 " style="fill:white; stroke-width:1; stroke:black; " description="&lt;b&gt;MCIC6FC_022256&lt;/b&gt;&lt;br&gt;hypothetical protein&lt;br&gt;Location: 75641 - 77103" locus_tag="MCIC6FC_022256" class="clusterblast-orf" id="dummy-1_q20_0_all"  />
<polygon points="721,35 726,30 731,30 731,40 726,40 721,35 " style="fill:white; stroke-width:1; stroke:black; " description="&lt;b&gt;MCIC6FC_022257&lt;/b&gt;&lt;br&gt;hypothetical protein&lt;br&gt;Location: 77349 - 78013" locus_tag="MCIC6FC_022257" class="clusterblast-orf" id="dummy-1_q21_0_all"  />
<polygon points="732,35 737,30 768,30 768,40 737,40 732,35 " style="fill:white; stroke-width:1; stroke:black; " description="&lt;b&gt;MCIC6FC_022258&lt;/b&gt;&lt;br&gt;hypothetical protein&lt;br&gt;Location: 78075 - 80367" locus_tag="MCIC6FC_022258" class="clusterblast-orf" id="dummy-1_q22_0_all"  />
<polygon points="771,35 776,30 780,30 780,40 776,40 771,35 " style="fill:white; stroke-width:1; stroke:black; " description="&lt;b&gt;MCIC6FC_022259&lt;/b&gt;&lt;br&gt;hypothetical protein&lt;br&gt;Location: 80507 - 81083" locus_tag="MCIC6FC_022259" class="clusterblast-orf" id="dummy-1_q23_0_all"  />
</g>
<g label="BGC0000837" description="BGC0000837_c1: APE Vf (10% of genes show similarity), Other" class="clusterblast-cluster"  >
<text x="5" y="70" class="clusterblast-acc"  >
<a xlink:href="https://mibig.secondarymetabolites.org/go/BGC0000837/1" target="_blank">BGC0000837</a>:                                                                           APE Vf (10% of genes show similarity), Other</text>
<line x1="10" y1="85" x2="778.0" y2="85" style="stroke-width:1; stroke:grey; "  />
</g>
<g id="a1_000"  >
<polygon points="243,85 248,80 263,80 263,90 248,90 243,85 " style="fill:white; stroke-width:1; stroke:black; " description="&lt;b&gt;VF_0841&lt;/b&gt;&lt;br&gt;dehydrogenase&lt;br&gt;Location: 1 - 1233" locus_tag="VF_0841" class="clusterblast-orf" id="dummy-1_h1_3_0"  />
</g>
<g id="a1_001"  >
<polygon points="264,85 269,80 281,80 281,90 269,90 264,85 " style="fill:white; stroke-width:1; stroke:black; " description="&lt;b&gt;VF_0842&lt;/b&gt;&lt;br&gt;putative O-methyltransferase&lt;br&gt;Location: 1333 - 2400" locus_tag="VF_0842" class="clusterblast-orf" id="dummy-1_h1_3_1"  />
</g>
<g id="a1_002"  >
<polygon points="283,85 288,80 292,80 292,90 288,90 283,85 " style="fill:white; stroke-width:1; stroke:black; " description="&lt;b&gt;VF_0843&lt;/b&gt;&lt;br&gt;lipoprotein, putative&lt;br&gt;Location: 2504 - 3079" locus_tag="VF_0843" class="clusterblast-orf" id="dummy-1_h1_3_2"  />
</g>
<g id="a1_003"  >
<polygon points="294,90 300,90 305,85 300,80 294,80 294,90 " style="fill:white; stroke-width:1; stroke:black; " description="&lt;b&gt;VF_0844&lt;/b&gt;&lt;br&gt;hypothetical protein&lt;br&gt;Location: 3209 - 3937" locus_tag="VF_0844" class="clusterblast-orf" id="dummy-1_h1_3_3"  />
</g>
<g id="a1_004"  >
<polygon points="305,90 313,90 318,85 313,80 305,80 305,90 " style="fill:white; stroke-width:1; stroke:black; " description="&lt;b&gt;VF_0845&lt;/b&gt;&lt;br&gt;1-acyl-sn-glycerol-3-phosphate acyltransferase&lt;br&gt;Location: 3942 - 4739" locus_tag="VF_0845" class="clusterblast-orf" id="dummy-1_h1_3_4"  />
</g>
<g id="a1_005"  >
<polygon points="317,90 317,90 322,85 317,80 317,80 317,90 " style="fill:white; stroke-width:1; stroke:black; " description="&lt;b&gt;VF_0846&lt;/b&gt;&lt;br&gt;acyl carrier protein&lt;br&gt;Location: 4708 - 5004" locus_tag="VF_0846" class="clusterblast-orf" id="dummy-1_h1_3_5"  />
</g>
<g id="a1_006"  >
<polygon points="322,90 326,85 322,80 322,90 " style="fill:white; stroke-width:1; stroke:black; " description="&lt;b&gt;VF_0847&lt;/b&gt;&lt;br&gt;acyl carrier protein&lt;br&gt;Location: 5016 - 5273" locus_tag="VF_0847" class="clusterblast-orf" id="dummy-1_h1_3_6"  />
</g>
<g id="a1_007"  >
<polygon points="326,90 330,90 335,85 330,80 326,80 326,90 " style="fill:white; stroke-width:1; stroke:black; " description="&lt;b&gt;VF_0848&lt;/b&gt;&lt;br&gt;DNA gyrase subunit B&lt;br&gt;Location: 5273 - 5833" locus_tag="VF_0848" class="clusterblast-orf" id="dummy-1_h1_3_7"  />
</g>
<g id="a1_008"  >
<polygon points="335,90 352,90 357,85 352,80 335,80 335,90 " style="fill:white; stroke-width:1; stroke:black; " description="&lt;b&gt;VF_0849&lt;/b&gt;&lt;br&gt;AMP-(fatty)acid ligase&lt;br&gt;Location: 5794 - 7197" locus_tag="VF_0849" class="clusterblast-orf" id="dummy-1_h1_3_8"  />
</g>
<g id="a1_009"  >
<polygon points="357,90 358,90 363,85 358,80 357,80 357,90 " style="fill:white; stroke-width:1; stroke:black; " description="&lt;b&gt;VF_0850&lt;/b&gt;&lt;br&gt;AMP-(fatty)acid ligase&lt;br&gt;Location: 7211 - 7585" locus_tag="VF_0850" class="clusterblast-orf" id="dummy-1_h1_3_9"  />
</g>
<g id="a1_0010"  >
<polygon points="363,90 385,90 390,85 385,80 363,80 363,90 " style="fill:white; stroke-width:1; stroke:black; " description="&lt;b&gt;VF_0851&lt;/b&gt;&lt;br&gt;predicted acyltransferase&lt;br&gt;Location: 7588 - 9279" locus_tag="VF_0851" class="clusterblast-orf" id="dummy-1_h1_3_10"  />
</g>
<g id="a1_0011"  >
<polygon points="389,90 409,90 414,85 409,80 389,80 389,90 " style="fill:white; stroke-width:1; stroke:black; " description="&lt;b&gt;VF_0852&lt;/b&gt;&lt;br&gt;phenylalanine and histidine ammonia-lyase&lt;br&gt;Location: 9269 - 10804" locus_tag="VF_0852" class="clusterblast-orf" id="dummy-1_h1_3_11"  />
</g>
<g id="a1_0012"  >
<polygon points="414,90 416,90 421,85 416,80 414,80 414,90 " style="fill:white; stroke-width:1; stroke:black; " description="&lt;b&gt;VF_0853&lt;/b&gt;&lt;br&gt;esterase&lt;br&gt;Location: 10816 - 11262" locus_tag="VF_0853" class="clusterblast-orf" id="dummy-1_h1_3_12"  />
</g>
<g id="a1_0013"  >
<polygon points="421,90 426,90 431,85 426,80 421,80 421,90 " style="fill:white; stroke-width:1; stroke:black; " description="&lt;b&gt;VF_0854&lt;/b&gt;&lt;br&gt;hypothetical protein&lt;br&gt;Location: 11255 - 11875" locus_tag="VF_0854" class="clusterblast-orf" id="dummy-1_h1_3_13"  />
</g>
<g id="a1_0014"  >
<polygon points="439,90 464,90 469,85 464,80 439,80 439,90 " style="fill:white; stroke-width:1; stroke:black; " description="&lt;b&gt;VF_0855&lt;/b&gt;&lt;br&gt;transporter&lt;br&gt;Location: 12397 - 14292" locus_tag="VF_0855" class="clusterblast-orf" id="dummy-1_h1_3_14"  />
</g>
<g id="a1_0015"  >
<polygon points="469,90 474,90 479,85 474,80 469,80 469,90 " style="fill:white; stroke-width:1; stroke:black; " description="&lt;b&gt;VF_0856&lt;/b&gt;&lt;br&gt;phospho-N-acetylmuramoyl-pentapeptide- transferase&lt;br&gt;Location: 14282 - 14908" locus_tag="VF_0856" class="clusterblast-orf" id="dummy-1_h1_3_15"  />
</g>
<g id="a1_0016"  >
<polygon points="479,90 492,90 497,85 492,80 479,80 479,90 " style="fill:#b115d8; stroke-width:1; stroke:black; " description="&lt;b&gt;VF_0857&lt;/b&gt;&lt;br&gt;3-oxoacyl-(acyl carrier protein) synthase&lt;br&gt;Location: 14914 - 16101&lt;br&gt;&lt;br&gt;&lt;b&gt;BlastP hit with MCIC6FC_022247&lt;/b&gt;&lt;br&gt;Percentage identity: 50&lt;br&gt;Percentage coverage: 101&lt;br&gt;BLAST bit score: 361&lt;br&gt;E-value: 1.7e-99" locus_tag="VF_0857" class="clusterblast-orf" id="dummy-1_h1_3_16"  />
</g>
<g id="a1_0017"  >
<polygon points="497,90 500,90 505,85 500,80 497,80 497,90 " style="fill:white; stroke-width:1; stroke:black; " description="&lt;b&gt;VF_0858&lt;/b&gt;&lt;br&gt;predicted 3-hydroxylacyl-(acyl carrier protein) dehydratase&lt;br&gt;Location: 16092 - 16562" locus_tag="VF_0858" class="clusterblast-orf" id="dummy-1_h1_3_17"  />
</g>
<g id="a1_0018"  >
<polygon points="505,90 511,90 516,85 511,80 505,80 505,90 " style="fill:white; stroke-width:1; stroke:black; " description="&lt;b&gt;VF_0859&lt;/b&gt;&lt;br&gt;3-oxoacyl-(acyl-carrier-protein) reductase, putative&lt;br&gt;Location: 16582 - 17307" locus_tag="VF_0859" class="clusterblast-orf" id="dummy-1_h1_3_18"  />
</g>
<g id="a1_0019"  >
<polygon points="516,90 531,90 536,85 531,80 516,80 516,90 " style="fill:#b1d815; stroke-width:1; stroke:black; " description="&lt;b&gt;VF_0860&lt;/b&gt;&lt;br&gt;3-oxoacyl-(acyl carrier protein) synthase&lt;br&gt;Location: 17304 - 18539&lt;br&gt;&lt;br&gt;&lt;b&gt;BlastP hit with MCIC6FC_022248&lt;/b&gt;&lt;br&gt;Percentage identity: 65&lt;br&gt;Percentage coverage: 57&lt;br&gt;BLAST bit score: 520&lt;br&gt;E-value: 3.2e-147" locus_tag="VF_0860" class="clusterblast-orf" id="dummy-1_h1_3_19"  />
</g>
</svg>
