<svg xmlns="http://www.w3.org/2000/svg" xmlns:xlink="http://www.w3.org/1999/xlink" version="1.1" x="0" y="0" height="230" width="800" viewBox="0 0 800 230" preserveAspectRatio="none"  >
<g label="Query sequence" class="clusterblast-cluster"  >
<text x="5" y="20" class="clusterblast-acc"  >
Query sequence</text>
<line x1="10" y1="35" x2="778.0" y2="35" style="stroke-width:1; stroke:grey; "  />
<polygon points="151,35 155,30 155,40 151,35 " style="fill:white; stroke-width:1; stroke:black; " description="&lt;b&gt;MCIC6FC_018480&lt;/b&gt;&lt;br&gt;hypothetical protein&lt;br&gt;Location: 40369 - 41275" locus_tag="MCIC6FC_018480" class="clusterblast-orf" id="dummy-1_q0_0_all"  />
<polygon points="157,40 161,40 166,35 161,30 157,30 157,40 " style="fill:white; stroke-width:1; stroke:black; " description="&lt;b&gt;MCIC6FC_018481&lt;/b&gt;&lt;br&gt;hypothetical protein&lt;br&gt;Location: 41686 - 43743" locus_tag="MCIC6FC_018481" class="clusterblast-orf" id="dummy-1_q1_0_all"  />
<polygon points="167,35 172,30 177,30 177,40 172,40 167,35 " style="fill:white; stroke-width:1; stroke:black; " description="&lt;b&gt;MCIC6FC_018482&lt;/b&gt;&lt;br&gt;hypothetical protein&lt;br&gt;Location: 43880 - 46147" locus_tag="MCIC6FC_018482" class="clusterblast-orf" id="dummy-1_q2_0_all"  />
<polygon points="177,40 181,35 177,30 177,40 " style="fill:white; stroke-width:1; stroke:black; " description="&lt;b&gt;MCIC6FC_018483&lt;/b&gt;&lt;br&gt;hypothetical protein&lt;br&gt;Location: 46260 - 47154" locus_tag="MCIC6FC_018483" class="clusterblast-orf" id="dummy-1_q3_0_all"  />
<polygon points="182,35 187,30 192,30 192,40 187,40 182,35 " style="fill:#d81515; stroke-width:1; stroke:black; " description="&lt;b&gt;MCIC6FC_018484&lt;/b&gt;&lt;br&gt;hypothetical protein&lt;br&gt;Location: 47233 - 49612" locus_tag="MCIC6FC_018484" class="clusterblast-orf" id="dummy-1_q4_0_all"  />
<polygon points="192,35 197,30 198,30 198,40 197,40 192,35 " style="fill:white; stroke-width:1; stroke:black; " description="&lt;b&gt;MCIC6FC_018485&lt;/b&gt;&lt;br&gt;hypothetical protein&lt;br&gt;Location: 49634 - 50993" locus_tag="MCIC6FC_018485" class="clusterblast-orf" id="dummy-1_q5_0_all"  />
<polygon points="199,40 203,35 199,30 199,40 " style="fill:#5cd815; stroke-width:1; stroke:black; " description="&lt;b&gt;MCIC6FC_018486&lt;/b&gt;&lt;br&gt;hypothetical protein&lt;br&gt;Location: 51132 - 52029" locus_tag="MCIC6FC_018486" class="clusterblast-orf" id="dummy-1_q6_0_all"  />
<polygon points="204,40 208,40 213,35 208,30 204,30 204,40 " style="fill:#15a3d8; stroke-width:1; stroke:black; " description="&lt;b&gt;MCIC6FC_018487&lt;/b&gt;&lt;br&gt;hypothetical protein&lt;br&gt;Location: 52166 - 54331" locus_tag="MCIC6FC_018487" class="clusterblast-orf" id="dummy-1_q7_0_all"  />
<polygon points="213,35 218,30 218,30 218,40 218,40 213,35 " style="fill:white; stroke-width:1; stroke:black; " description="&lt;b&gt;MCIC6FC_018488&lt;/b&gt;&lt;br&gt;hypothetical protein&lt;br&gt;Location: 54373 - 55450" locus_tag="MCIC6FC_018488" class="clusterblast-orf" id="dummy-1_q8_0_all"  />
<polygon points="219,40 222,35 219,30 219,40 " style="fill:white; stroke-width:1; stroke:black; " description="&lt;b&gt;MCIC6FC_018489&lt;/b&gt;&lt;br&gt;hypothetical protein&lt;br&gt;Location: 55551 - 56322" locus_tag="MCIC6FC_018489" class="clusterblast-orf" id="dummy-1_q9_0_all"  />
<polygon points="222,35 227,30 227,30 227,40 227,40 222,35 " style="fill:#c715d8; stroke-width:1; stroke:black; " description="&lt;b&gt;MCIC6FC_018490&lt;/b&gt;&lt;br&gt;hypothetical protein&lt;br&gt;Location: 56326 - 57332" locus_tag="MCIC6FC_018490" class="clusterblast-orf" id="dummy-1_q10_0_all"  />
<polygon points="227,40 231,40 236,35 231,30 227,30 227,40 " style="fill:#d88015; stroke-width:1; stroke:black; " description="&lt;b&gt;MCIC6FC_018491&lt;/b&gt;&lt;br&gt;hypothetical protein&lt;br&gt;Location: 57455 - 59520" locus_tag="MCIC6FC_018491" class="clusterblast-orf" id="dummy-1_q11_0_all"  />
<polygon points="237,35 242,30 250,30 250,40 242,40 237,35 " style="fill:#15d839; stroke-width:1; stroke:black; " description="&lt;b&gt;MCIC6FC_018492&lt;/b&gt;&lt;br&gt;hypothetical protein&lt;br&gt;Location: 59589 - 62673" locus_tag="MCIC6FC_018492" class="clusterblast-orf" id="dummy-1_q12_0_all"  />
<polygon points="251,35 256,30 360,30 360,40 256,40 251,35 " style="fill:#1539d8; stroke-width:1; stroke:black; " description="&lt;b&gt;MCIC6FC_018493&lt;/b&gt;&lt;br&gt;hypothetical protein&lt;br&gt;Location: 62865 - 87322" locus_tag="MCIC6FC_018493" class="clusterblast-orf" id="dummy-1_q13_0_all"  />
<polygon points="361,35 366,30 369,30 369,40 366,40 361,35 " style="fill:#d81580; stroke-width:1; stroke:black; " description="&lt;b&gt;MCIC6FC_018494&lt;/b&gt;&lt;br&gt;hypothetical protein&lt;br&gt;Location: 87575 - 89201" locus_tag="MCIC6FC_018494" class="clusterblast-orf" id="dummy-1_q14_0_all"  />
<polygon points="369,40 380,40 385,35 380,30 369,30 369,40 " style="fill:white; stroke-width:1; stroke:black; " description="&lt;b&gt;MCIC6FC_018495&lt;/b&gt;&lt;br&gt;hypothetical protein&lt;br&gt;Location: 89338 - 92879" locus_tag="MCIC6FC_018495" class="clusterblast-orf" id="dummy-1_q15_0_all"  />
<polygon points="385,35 389,30 389,40 385,35 " style="fill:#c7d815; stroke-width:1; stroke:black; " description="&lt;b&gt;MCIC6FC_018496&lt;/b&gt;&lt;br&gt;hypothetical protein&lt;br&gt;Location: 93004 - 93837" locus_tag="MCIC6FC_018496" class="clusterblast-orf" id="dummy-1_q16_0_all"  />
<polygon points="390,40 392,40 397,35 392,30 390,30 390,40 " style="fill:#15d8a3; stroke-width:1; stroke:black; " description="&lt;b&gt;MCIC6FC_018497&lt;/b&gt;&lt;br&gt;hypothetical protein&lt;br&gt;Location: 94038 - 95691" locus_tag="MCIC6FC_018497" class="clusterblast-orf" id="dummy-1_q17_0_all"  />
<polygon points="398,40 404,40 409,35 404,30 398,30 398,40 " style="fill:white; stroke-width:1; stroke:black; " description="&lt;b&gt;MCIC6FC_018498&lt;/b&gt;&lt;br&gt;hypothetical protein&lt;br&gt;Location: 95846 - 98231" locus_tag="MCIC6FC_018498" class="clusterblast-orf" id="dummy-1_q18_0_all"  />
<polygon points="409,35 414,30 490,30 490,40 414,40 409,35 " style="fill:#5c15d8; stroke-width:1; stroke:black; " description="&lt;b&gt;MCIC6FC_018499&lt;/b&gt;&lt;br&gt;hypothetical protein&lt;br&gt;Location: 98383 - 116494" locus_tag="MCIC6FC_018499" class="clusterblast-orf" id="dummy-1_q19_0_all"  />
<polygon points="491,35 496,30 546,30 546,40 496,40 491,35 " style="fill:#5c15d8; stroke-width:1; stroke:black; " description="&lt;b&gt;MCIC6FC_018500&lt;/b&gt;&lt;br&gt;hypothetical protein&lt;br&gt;Location: 116593 - 129094" locus_tag="MCIC6FC_018500" class="clusterblast-orf" id="dummy-1_q20_0_all"  />
<polygon points="547,35 552,30 557,30 557,40 552,40 547,35 " style="fill:white; stroke-width:1; stroke:black; " description="&lt;b&gt;MCIC6FC_018501&lt;/b&gt;&lt;br&gt;hypothetical protein&lt;br&gt;Location: 129176 - 131553" locus_tag="MCIC6FC_018501" class="clusterblast-orf" id="dummy-1_q21_0_all"  />
<polygon points="557,35 562,30 563,30 563,40 562,40 557,35 " style="fill:white; stroke-width:1; stroke:black; " description="&lt;b&gt;MCIC6FC_018502&lt;/b&gt;&lt;br&gt;hypothetical protein&lt;br&gt;Location: 131556 - 132906" locus_tag="MCIC6FC_018502" class="clusterblast-orf" id="dummy-1_q22_0_all"  />
<polygon points="564,35 569,30 569,30 569,40 569,40 564,35 " style="fill:white; stroke-width:1; stroke:black; " description="&lt;b&gt;MCIC6FC_018503&lt;/b&gt;&lt;br&gt;hypothetical protein&lt;br&gt;Location: 132965 - 134195" locus_tag="MCIC6FC_018503" class="clusterblast-orf" id="dummy-1_q23_0_all"  />
<polygon points="570,40 572,40 577,35 572,30 570,30 570,40 " style="fill:white; stroke-width:1; stroke:black; " description="&lt;b&gt;MCIC6FC_018504&lt;/b&gt;&lt;br&gt;hypothetical protein&lt;br&gt;Location: 134427 - 136068" locus_tag="MCIC6FC_018504" class="clusterblast-orf" id="dummy-1_q24_0_all"  />
<polygon points="577,35 581,30 581,40 577,35 " style="fill:white; stroke-width:1; stroke:black; " description="&lt;b&gt;MCIC6FC_018505&lt;/b&gt;&lt;br&gt;hypothetical protein&lt;br&gt;Location: 136093 - 136805" locus_tag="MCIC6FC_018505" class="clusterblast-orf" id="dummy-1_q25_0_all"  />
<polygon points="581,40 582,40 587,35 582,30 581,30 581,40 " style="fill:white; stroke-width:1; stroke:black; " description="&lt;b&gt;MCIC6FC_018506&lt;/b&gt;&lt;br&gt;hypothetical protein&lt;br&gt;Location: 136909 - 138265" locus_tag="MCIC6FC_018506" class="clusterblast-orf" id="dummy-1_q26_0_all"  />
<polygon points="588,40 595,40 600,35 595,30 588,30 588,40 " style="fill:white; stroke-width:1; stroke:black; " description="&lt;b&gt;MCIC6FC_018507&lt;/b&gt;&lt;br&gt;hypothetical protein&lt;br&gt;Location: 138444 - 141153" locus_tag="MCIC6FC_018507" class="clusterblast-orf" id="dummy-1_q27_0_all"  />
<polygon points="600,35 605,30 609,30 609,40 605,40 600,35 " style="fill:white; stroke-width:1; stroke:black; " description="&lt;b&gt;MCIC6FC_018508&lt;/b&gt;&lt;br&gt;hypothetical protein&lt;br&gt;Location: 141248 - 143227" locus_tag="MCIC6FC_018508" class="clusterblast-orf" id="dummy-1_q28_0_all"  />
<polygon points="609,35 614,30 628,30 628,40 614,40 609,35 " style="fill:white; stroke-width:1; stroke:black; " description="&lt;b&gt;MCIC6FC_018509&lt;/b&gt;&lt;br&gt;hypothetical protein&lt;br&gt;Location: 143237 - 147464" locus_tag="MCIC6FC_018509" class="clusterblast-orf" id="dummy-1_q29_0_all"  />
</g>
<g label="BGC0000413" description="BGC0000413_c1: pyoverdin (5% of genes show similarity), NRP" class="clusterblast-cluster"  >
<text x="5" y="70" class="clusterblast-acc"  >
<a xlink:href="https://mibig.secondarymetabolites.org/go/BGC0000413/1" target="_blank">BGC0000413</a>:                                                                        pyoverdin (5% of genes show similarity), NRP</text>
<line x1="10" y1="85" x2="778.0" y2="85" style="stroke-width:1; stroke:grey; "  />
</g>
<g id="a1_000"  >
<polygon points="0,85 3,80 3,90 0,85 " style="fill:white; stroke-width:1; stroke:black; " description="&lt;b&gt;PFL_4077&lt;/b&gt;&lt;br&gt;MgtC family protein&lt;br&gt;Location: 1 - 717" locus_tag="PFL_4077" class="clusterblast-orf" id="dummy-1_h1_2_0"  />
</g>
<g id="a1_001"  >
<polygon points="4,85 9,80 16,80 16,90 9,90 4,85 " style="fill:white; stroke-width:1; stroke:black; " description="&lt;b&gt;PFL_4078&lt;/b&gt;&lt;br&gt;magnesium-importing ATPase&lt;br&gt;Location: 922 - 3687" locus_tag="PFL_4078" class="clusterblast-orf" id="dummy-1_h1_2_1"  />
</g>
<g id="a1_002"  >
<polygon points="18,85 23,80 24,80 24,90 23,90 18,85 " style="fill:white; stroke-width:1; stroke:black; " description="&lt;b&gt;PFL_4079&lt;/b&gt;&lt;br&gt;L-ornithine 5-monooxygenase PvdA&lt;br&gt;Location: 4236 - 5573" locus_tag="PFL_4079" class="clusterblast-orf" id="dummy-1_h1_2_2"  />
</g>
<g id="a1_003"  >
<polygon points="25,85 27,80 27,90 25,85 " style="fill:white; stroke-width:1; stroke:black; " description="&lt;b&gt;PFL_4080&lt;/b&gt;&lt;br&gt;RNA polymerase sigma-70 factor, ECF subfamily, FpvI&lt;br&gt;Location: 5723 - 6202" locus_tag="PFL_4080" class="clusterblast-orf" id="dummy-1_h1_2_3"  />
</g>
<g id="a1_004"  >
<polygon points="29,90 29,90 34,85 29,80 29,80 29,90 " style="fill:white; stroke-width:1; stroke:black; " description="&lt;b&gt;PFL_4081&lt;/b&gt;&lt;br&gt;efflux transporter, RND family, MFP subunit&lt;br&gt;Location: 6532 - 7704" locus_tag="PFL_4081" class="clusterblast-orf" id="dummy-1_h1_2_4"  />
</g>
<g id="a1_005"  >
<polygon points="34,90 38,90 43,85 38,80 34,80 34,90 " style="fill:#15d839; stroke-width:1; stroke:black; " description="&lt;b&gt;PFL_4082&lt;/b&gt;&lt;br&gt;efflux ABC transporter, ATP-binding/permease protein&lt;br&gt;Location: 7705 - 9678&lt;br&gt;&lt;br&gt;&lt;b&gt;BlastP hit with MCIC6FC_018492&lt;/b&gt;&lt;br&gt;Percentage identity: 48&lt;br&gt;Percentage coverage: 65&lt;br&gt;BLAST bit score: 531&lt;br&gt;E-value: 3.4e-150" locus_tag="PFL_4082" class="clusterblast-orf" id="dummy-1_h1_2_5"  />
</g>
<g id="a1_006"  >
<polygon points="43,90 44,90 49,85 44,80 43,80 43,90 " style="fill:white; stroke-width:1; stroke:black; " description="&lt;b&gt;PFL_4083&lt;/b&gt;&lt;br&gt;efflux transporter, outer membrane factor lipoprotein, NodT family&lt;br&gt;Location: 9686 - 11077" locus_tag="PFL_4083" class="clusterblast-orf" id="dummy-1_h1_2_6"  />
</g>
<g id="a1_007"  >
<polygon points="49,90 51,85 49,80 49,90 " style="fill:white; stroke-width:1; stroke:black; " description="&lt;b&gt;PFL_4084&lt;/b&gt;&lt;br&gt;conserved hypothetical protein&lt;br&gt;Location: 11178 - 11477" locus_tag="PFL_4084" class="clusterblast-orf" id="dummy-1_h1_2_7"  />
</g>
<g id="a1_008"  >
<polygon points="51,90 53,85 51,80 51,90 " style="fill:white; stroke-width:1; stroke:black; " description="&lt;b&gt;PFL_4085&lt;/b&gt;&lt;br&gt;conserved hypothetical protein&lt;br&gt;Location: 11496 - 11933" locus_tag="PFL_4085" class="clusterblast-orf" id="dummy-1_h1_2_8"  />
</g>
<g id="a1_009"  >
<polygon points="53,85 58,80 60,80 60,90 58,90 53,85 " style="fill:#d81580; stroke-width:1; stroke:black; " description="&lt;b&gt;PFL_4086&lt;/b&gt;&lt;br&gt;chromophore maturation protein PvdP&lt;br&gt;Location: 11944 - 13572&lt;br&gt;&lt;br&gt;&lt;b&gt;BlastP hit with MCIC6FC_018494&lt;/b&gt;&lt;br&gt;Percentage identity: 60&lt;br&gt;Percentage coverage: 101&lt;br&gt;BLAST bit score: 679&lt;br&gt;E-value: 4.1e-195" locus_tag="PFL_4086" class="clusterblast-orf" id="dummy-1_h1_2_9"  />
</g>
<g id="a1_0010"  >
<polygon points="61,90 62,90 67,85 62,80 61,80 61,90 " style="fill:white; stroke-width:1; stroke:black; " description="&lt;b&gt;PFL_4087&lt;/b&gt;&lt;br&gt;putative dipeptidase precursor&lt;br&gt;Location: 13780 - 15153" locus_tag="PFL_4087" class="clusterblast-orf" id="dummy-1_h1_2_10"  />
</g>
<g id="a1_0011"  >
<polygon points="67,90 68,90 73,85 68,80 67,80 67,90 " style="fill:white; stroke-width:1; stroke:black; " description="&lt;b&gt;PFL_4088&lt;/b&gt;&lt;br&gt;chromophore maturation protein PvdN&lt;br&gt;Location: 15175 - 16470" locus_tag="PFL_4088" class="clusterblast-orf" id="dummy-1_h1_2_11"  />
</g>
<g id="a1_0012"  >
<polygon points="73,90 77,85 73,80 73,90 " style="fill:white; stroke-width:1; stroke:black; " description="&lt;b&gt;PFL_4089&lt;/b&gt;&lt;br&gt;chromophore maturation protein PvdO&lt;br&gt;Location: 16518 - 17411" locus_tag="PFL_4089" class="clusterblast-orf" id="dummy-1_h1_2_12"  />
</g>
<g id="a1_0013"  >
<polygon points="77,85 81,80 81,90 77,85 " style="fill:#c7d815; stroke-width:1; stroke:black; " description="&lt;b&gt;PFL_4090&lt;/b&gt;&lt;br&gt;N(5)-hydroxyornithine transformylase PvdF&lt;br&gt;Location: 17466 - 18329&lt;br&gt;&lt;br&gt;&lt;b&gt;BlastP hit with MCIC6FC_018496&lt;/b&gt;&lt;br&gt;Percentage identity: 84&lt;br&gt;Percentage coverage: 107&lt;br&gt;BLAST bit score: 456&lt;br&gt;E-value: 2e-128" locus_tag="PFL_4090" class="clusterblast-orf" id="dummy-1_h1_2_13"  />
</g>
<g id="a1_0014"  >
<polygon points="82,90 84,90 89,85 84,80 82,80 82,90 " style="fill:#15d8a3; stroke-width:1; stroke:black; " description="&lt;b&gt;PFL_4091&lt;/b&gt;&lt;br&gt;pyoverdine ABC transporter, permease/ATP-binding protein PvdE&lt;br&gt;Location: 18530 - 20182&lt;br&gt;&lt;br&gt;&lt;b&gt;BlastP hit with MCIC6FC_018497&lt;/b&gt;&lt;br&gt;Percentage identity: 89&lt;br&gt;Percentage coverage: 100&lt;br&gt;BLAST bit score: 961&lt;br&gt;E-value: 4.2e-280" locus_tag="PFL_4091" class="clusterblast-orf" id="dummy-1_h1_2_14"  />
</g>
<g id="a1_0015"  >
<polygon points="90,90 96,90 101,85 96,80 90,80 90,90 " style="fill:white; stroke-width:1; stroke:black; " description="&lt;b&gt;PFL_4092&lt;/b&gt;&lt;br&gt;TonB-dependent outermembrane ferripyoverdine receptor FpvA&lt;br&gt;Location: 20284 - 22752" locus_tag="PFL_4092" class="clusterblast-orf" id="dummy-1_h1_2_15"  />
</g>
<g id="a1_0016"  >
<polygon points="103,85 108,80 162,80 162,90 108,90 103,85 " style="fill:white; stroke-width:1; stroke:black; " description="&lt;b&gt;PFL_4093&lt;/b&gt;&lt;br&gt;non-ribosomal peptide synthetase PvdD&lt;br&gt;Location: 23151 - 36383" locus_tag="PFL_4093" class="clusterblast-orf" id="dummy-1_h1_2_16"  />
</g>
<g id="a1_0017"  >
<polygon points="162,85 167,80 191,80 191,90 167,90 162,85 " style="fill:#5c15d8; stroke-width:1; stroke:black; " description="&lt;b&gt;PFL_4094&lt;/b&gt;&lt;br&gt;non-ribosomal peptide synthetase PvdJ&lt;br&gt;Location: 36396 - 42977&lt;br&gt;&lt;br&gt;&lt;b&gt;BlastP hit with MCIC6FC_018500&lt;/b&gt;&lt;br&gt;Percentage identity: 46&lt;br&gt;Percentage coverage: 56&lt;br&gt;BLAST bit score: 1656&lt;br&gt;E-value: 0.0" locus_tag="PFL_4094" class="clusterblast-orf" id="dummy-1_h1_2_17"  />
</g>
<g id="a1_0018"  >
<polygon points="191,85 196,80 241,80 241,90 196,90 191,85 " style="fill:#5c15d8; stroke-width:1; stroke:black; " description="&lt;b&gt;PFL_4095&lt;/b&gt;&lt;br&gt;non-ribosomal peptide synthetase PvdI&lt;br&gt;Location: 42977 - 54124&lt;br&gt;&lt;br&gt;&lt;b&gt;BlastP hit with MCIC6FC_018499&lt;/b&gt;&lt;br&gt;Percentage identity: 51&lt;br&gt;Percentage coverage: 44&lt;br&gt;BLAST bit score: 2436&lt;br&gt;E-value: 0.0&lt;br&gt;&lt;br&gt;&lt;b&gt;BlastP hit with MCIC6FC_018500&lt;/b&gt;&lt;br&gt;Percentage identity: 51&lt;br&gt;Percentage coverage: 67&lt;br&gt;BLAST bit score: 2440&lt;br&gt;E-value: 0.0" locus_tag="PFL_4095" class="clusterblast-orf" id="dummy-1_h1_2_18"  />
</g>
<g id="a1_0019"  >
<polygon points="242,90 246,85 242,80 242,90 " style="fill:white; stroke-width:1; stroke:black; " description="&lt;b&gt;PFL_4096&lt;/b&gt;&lt;br&gt;siderophore-interacting protein&lt;br&gt;Location: 54337 - 55305" locus_tag="PFL_4096" class="clusterblast-orf" id="dummy-1_h1_2_19"  />
</g>
<g id="a1_0020"  >
<polygon points="247,85 250,80 250,90 247,85 " style="fill:white; stroke-width:1; stroke:black; " description="&lt;b&gt;PFL_4097&lt;/b&gt;&lt;br&gt;thioesterase&lt;br&gt;Location: 55487 - 56218" locus_tag="PFL_4097" class="clusterblast-orf" id="dummy-1_h1_2_20"  />
</g>
<g id="a1_0021"  >
<polygon points="250,85 255,80 256,80 256,90 255,90 250,85 " style="fill:white; stroke-width:1; stroke:black; " description="&lt;b&gt;PFL_4098&lt;/b&gt;&lt;br&gt;transporter, major facilitator family&lt;br&gt;Location: 56298 - 57470" locus_tag="PFL_4098" class="clusterblast-orf" id="dummy-1_h1_2_21"  />
</g>
<g id="a1_0022"  >
<polygon points="256,90 259,85 256,80 256,90 " style="fill:white; stroke-width:1; stroke:black; " description="&lt;b&gt;PFL_4099&lt;/b&gt;&lt;br&gt;transcriptional regulator, TetR family&lt;br&gt;Location: 57606 - 58193" locus_tag="PFL_4099" class="clusterblast-orf" id="dummy-1_h1_2_22"  />
</g>
<g id="a1_0023"  >
<polygon points="259,90 263,85 259,80 259,90 " style="fill:white; stroke-width:1; stroke:black; " description="&lt;b&gt;PFL_4100&lt;/b&gt;&lt;br&gt;glucose 1-dehydrogenase&lt;br&gt;Location: 58306 - 59106" locus_tag="PFL_4100" class="clusterblast-orf" id="dummy-1_h1_2_23"  />
</g>
<g id="a1_0024"  >
<polygon points="263,90 266,90 271,85 266,80 263,80 263,90 " style="fill:white; stroke-width:1; stroke:black; " description="&lt;b&gt;PFL_4101&lt;/b&gt;&lt;br&gt;glycosyl hydrolase, family 15&lt;br&gt;Location: 59099 - 60925" locus_tag="PFL_4101" class="clusterblast-orf" id="dummy-1_h1_2_24"  />
</g>
<g id="a1_0025"  >
<polygon points="271,90 273,85 271,80 271,90 " style="fill:white; stroke-width:1; stroke:black; " description="&lt;b&gt;PFL_4102&lt;/b&gt;&lt;br&gt;conserved hypothetical protein&lt;br&gt;Location: 60992 - 61369" locus_tag="PFL_4102" class="clusterblast-orf" id="dummy-1_h1_2_25"  />
</g>
<g id="a1_0026"  >
<polygon points="273,90 275,85 273,80 273,90 " style="fill:white; stroke-width:1; stroke:black; " description="&lt;b&gt;PFL_4103&lt;/b&gt;&lt;br&gt;conserved hypothetical protein&lt;br&gt;Location: 61366 - 61827" locus_tag="PFL_4103" class="clusterblast-orf" id="dummy-1_h1_2_26"  />
</g>
<g id="a1_0027"  >
<polygon points="276,90 276,90 281,85 276,80 276,80 276,90 " style="fill:white; stroke-width:1; stroke:black; " description="&lt;b&gt;PFL_4104&lt;/b&gt;&lt;br&gt;alpha/beta hydrolase family protein&lt;br&gt;Location: 62165 - 63070" locus_tag="PFL_4104" class="clusterblast-orf" id="dummy-1_h1_2_27"  />
</g>
<g id="a1_0028"  >
<polygon points="281,90 283,85 281,80 281,90 " style="fill:white; stroke-width:1; stroke:black; " description="&lt;b&gt;PFL_4105&lt;/b&gt;&lt;br&gt;conserved hypothetical protein&lt;br&gt;Location: 63072 - 63620" locus_tag="PFL_4105" class="clusterblast-orf" id="dummy-1_h1_2_28"  />
</g>
<g id="a1_0029"  >
<polygon points="283,90 284,90 289,85 284,80 283,80 283,90 " style="fill:white; stroke-width:1; stroke:black; " description="&lt;b&gt;PFL_4106&lt;/b&gt;&lt;br&gt;NAD dependent epimerase/dehydratase family protein&lt;br&gt;Location: 63636 - 65078" locus_tag="PFL_4106" class="clusterblast-orf" id="dummy-1_h1_2_29"  />
</g>
<g id="a1_0030"  >
<polygon points="290,90 295,90 300,85 295,80 290,80 290,90 " style="fill:white; stroke-width:1; stroke:black; " description="&lt;b&gt;PFL_4107&lt;/b&gt;&lt;br&gt;conserved hypothetical protein&lt;br&gt;Location: 65093 - 67531" locus_tag="PFL_4107" class="clusterblast-orf" id="dummy-1_h1_2_30"  />
</g>
<g id="a1_0031"  >
<polygon points="300,85 305,80 305,80 305,90 305,90 300,85 " style="fill:white; stroke-width:1; stroke:black; " description="&lt;b&gt;PFL_4108&lt;/b&gt;&lt;br&gt;transcriptional regulator, AraC family&lt;br&gt;Location: 67541 - 68524" locus_tag="PFL_4108" class="clusterblast-orf" id="dummy-1_h1_2_31"  />
</g>
<g id="a1_0032"  >
<polygon points="305,90 308,85 305,80 305,90 " style="fill:white; stroke-width:1; stroke:black; " description="&lt;b&gt;PFL_4109&lt;/b&gt;&lt;br&gt;isonitrile hydratase InhA&lt;br&gt;Location: 68617 - 69303" locus_tag="PFL_4109" class="clusterblast-orf" id="dummy-1_h1_2_32"  />
</g>
<g id="a1_0033"  >
<polygon points="308,85 310,80 310,90 308,85 " style="fill:white; stroke-width:1; stroke:black; " description="&lt;b&gt;PFL_4110&lt;/b&gt;&lt;br&gt;conserved hypothetical protein&lt;br&gt;Location: 69308 - 69652" locus_tag="PFL_4110" class="clusterblast-orf" id="dummy-1_h1_2_33"  />
</g>
<g id="a1_0034"  >
<polygon points="310,85 313,80 313,90 310,85 " style="fill:white; stroke-width:1; stroke:black; " description="&lt;b&gt;PFL_4111&lt;/b&gt;&lt;br&gt;translocator protein, LysE family&lt;br&gt;Location: 69677 - 70309" locus_tag="PFL_4111" class="clusterblast-orf" id="dummy-1_h1_2_34"  />
</g>
<g id="a1_0035"  >
<polygon points="313,90 314,90 319,85 314,80 313,80 313,90 " style="fill:white; stroke-width:1; stroke:black; " description="&lt;b&gt;PFL_4112&lt;/b&gt;&lt;br&gt;transcriptional regulator, GntR family/aminotransferase, classes I and II family protein&lt;br&gt;Location: 70397 - 71722" locus_tag="PFL_4112" class="clusterblast-orf" id="dummy-1_h1_2_35"  />
</g>
<g id="a1_0036"  >
<polygon points="321,85 324,80 324,90 321,85 " style="fill:white; stroke-width:1; stroke:black; " description="&lt;b&gt;PFL_4113&lt;/b&gt;&lt;br&gt;streptomycin 3''-kinase&lt;br&gt;Location: 72057 - 72860" locus_tag="PFL_4113" class="clusterblast-orf" id="dummy-1_h1_2_36"  />
</g>
<g id="a1_0037"  >
<polygon points="324,85 327,80 327,90 324,85 " style="fill:white; stroke-width:1; stroke:black; " description="&lt;b&gt;PFL_4114&lt;/b&gt;&lt;br&gt;conserved hypothetical protein&lt;br&gt;Location: 72939 - 73397" locus_tag="PFL_4114" class="clusterblast-orf" id="dummy-1_h1_2_37"  />
</g>
<g id="a1_0038"  >
<polygon points="327,90 328,90 333,85 328,80 327,80 327,90 " style="fill:white; stroke-width:1; stroke:black; " description="&lt;b&gt;PFL_4115&lt;/b&gt;&lt;br&gt;ADP-ribosylglycohydrolase family protein&lt;br&gt;Location: 73531 - 74853" locus_tag="PFL_4115" class="clusterblast-orf" id="dummy-1_h1_2_38"  />
</g>
<g id="a1_0039"  >
<polygon points="333,90 335,85 333,80 333,90 " style="fill:white; stroke-width:1; stroke:black; " description="&lt;b&gt;PFL_4116&lt;/b&gt;&lt;br&gt;conserved hypothetical protein&lt;br&gt;Location: 74891 - 75292" locus_tag="PFL_4116" class="clusterblast-orf" id="dummy-1_h1_2_39"  />
</g>
<g id="a1_0040"  >
<polygon points="335,85 340,80 340,80 340,90 340,90 335,85 " style="fill:white; stroke-width:1; stroke:black; " description="&lt;b&gt;PFL_4117&lt;/b&gt;&lt;br&gt;quinohemoprotein amine dehydrogenase, beta subunit PeaD&lt;br&gt;Location: 75395 - 76513" locus_tag="PFL_4117" class="clusterblast-orf" id="dummy-1_h1_2_40"  />
</g>
<g id="a1_0041"  >
<polygon points="341,85 342,80 342,90 341,85 " style="fill:white; stroke-width:1; stroke:black; " description="&lt;b&gt;PFL_4118&lt;/b&gt;&lt;br&gt;quinohemoprotein amine dehydrogenase, gamma subunit PeaC&lt;br&gt;Location: 76537 - 76860" locus_tag="PFL_4118" class="clusterblast-orf" id="dummy-1_h1_2_41"  />
</g>
<g id="a1_0042"  >
<polygon points="342,85 347,80 348,80 348,90 347,90 342,85 " style="fill:white; stroke-width:1; stroke:black; " description="&lt;b&gt;PFL_4119&lt;/b&gt;&lt;br&gt;putative quinohemoprotein amine dehydrogenase modification protein PeaB&lt;br&gt;Location: 76862 - 78295" locus_tag="PFL_4119" class="clusterblast-orf" id="dummy-1_h1_2_42"  />
</g>
<g id="a1_0043"  >
<polygon points="349,85 354,80 356,80 356,90 354,90 349,85 " style="fill:white; stroke-width:1; stroke:black; " description="&lt;b&gt;PFL_4120&lt;/b&gt;&lt;br&gt;quinohemoprotein amine dehydrogenase, alpha subunit PeaA&lt;br&gt;Location: 78375 - 79955" locus_tag="PFL_4120" class="clusterblast-orf" id="dummy-1_h1_2_43"  />
</g>
<g id="a1_0044"  >
<polygon points="357,90 360,90 365,85 360,80 357,80 357,90 " style="fill:white; stroke-width:1; stroke:black; " description="&lt;b&gt;PFL_4121&lt;/b&gt;&lt;br&gt;KWG repeat protein&lt;br&gt;Location: 80263 - 82023" locus_tag="PFL_4121" class="clusterblast-orf" id="dummy-1_h1_2_44"  />
</g>
<g id="a1_0045"  >
<polygon points="365,90 368,85 365,80 365,90 " style="fill:white; stroke-width:1; stroke:black; " description="&lt;b&gt;PFL_4122&lt;/b&gt;&lt;br&gt;HAD hydrolase, family IA, variant 3&lt;br&gt;Location: 82125 - 82790" locus_tag="PFL_4122" class="clusterblast-orf" id="dummy-1_h1_2_45"  />
</g>
<g id="a1_0046"  >
<polygon points="370,85 375,80 378,80 378,90 375,90 370,85 " style="fill:white; stroke-width:1; stroke:black; " description="&lt;b&gt;PFL_4123&lt;/b&gt;&lt;br&gt;putative 2-isopropylmalate synthase&lt;br&gt;Location: 83178 - 84893" locus_tag="PFL_4123" class="clusterblast-orf" id="dummy-1_h1_2_46"  />
</g>
<g id="a1_0047"  >
<polygon points="379,90 383,85 379,80 379,90 " style="fill:white; stroke-width:1; stroke:black; " description="&lt;b&gt;PFL_4124&lt;/b&gt;&lt;br&gt;transcriptional regulator, AraC family&lt;br&gt;Location: 85169 - 85999" locus_tag="PFL_4124" class="clusterblast-orf" id="dummy-1_h1_2_47"  />
</g>
<g id="a1_0048"  >
<polygon points="383,85 388,80 390,80 390,90 388,90 383,85 " style="fill:white; stroke-width:1; stroke:black; " description="&lt;b&gt;PFL_4125&lt;/b&gt;&lt;br&gt;drug resistance transporter, EmrB/QacA family&lt;br&gt;Location: 86004 - 87593" locus_tag="PFL_4125" class="clusterblast-orf" id="dummy-1_h1_2_48"  />
</g>
<g id="a1_0049"  >
<polygon points="390,85 395,80 395,80 395,90 395,90 390,85 " style="fill:white; stroke-width:1; stroke:black; " description="&lt;b&gt;PFL_4126&lt;/b&gt;&lt;br&gt;auxiliary transport protein, membrane fusion protein family&lt;br&gt;Location: 87586 - 88695" locus_tag="PFL_4126" class="clusterblast-orf" id="dummy-1_h1_2_49"  />
</g>
<g id="a1_0050"  >
<polygon points="395,85 400,80 401,80 401,90 400,90 395,85 " style="fill:white; stroke-width:1; stroke:black; " description="&lt;b&gt;PFL_4127&lt;/b&gt;&lt;br&gt;efflux transporter, outer membrane factor lipoprotein, NodT family&lt;br&gt;Location: 88692 - 90170" locus_tag="PFL_4127" class="clusterblast-orf" id="dummy-1_h1_2_50"  />
</g>
<g id="a1_0051"  >
<polygon points="401,85 402,80 402,90 401,85 " style="fill:white; stroke-width:1; stroke:black; " description="&lt;b&gt;PFL_4128&lt;/b&gt;&lt;br&gt;conserved hypothetical protein&lt;br&gt;Location: 90197 - 90439" locus_tag="PFL_4128" class="clusterblast-orf" id="dummy-1_h1_2_51"  />
</g>
<g id="a1_0052"  >
<polygon points="402,90 405,85 402,80 402,90 " style="fill:white; stroke-width:1; stroke:black; " description="&lt;b&gt;PFL_4129&lt;/b&gt;&lt;br&gt;conserved hypothetical protein&lt;br&gt;Location: 90425 - 90985" locus_tag="PFL_4129" class="clusterblast-orf" id="dummy-1_h1_2_52"  />
</g>
<g id="a1_0053"  >
<polygon points="406,90 407,90 412,85 407,80 406,80 406,90 " style="fill:white; stroke-width:1; stroke:black; " description="&lt;b&gt;PFL_4130&lt;/b&gt;&lt;br&gt;phenylacetaldehyde dehydrogenase PeaE&lt;br&gt;Location: 91186 - 92676" locus_tag="PFL_4130" class="clusterblast-orf" id="dummy-1_h1_2_53"  />
</g>
<g id="a1_0054"  >
<polygon points="413,90 417,90 422,85 417,80 413,80 413,90 " style="fill:white; stroke-width:1; stroke:black; " description="&lt;b&gt;PFL_4131&lt;/b&gt;&lt;br&gt;amidohydrolase family protein&lt;br&gt;Location: 92863 - 94782" locus_tag="PFL_4131" class="clusterblast-orf" id="dummy-1_h1_2_54"  />
</g>
<g id="a1_0055"  >
<polygon points="422,85 427,80 428,80 428,90 427,90 422,85 " style="fill:white; stroke-width:1; stroke:black; " description="&lt;b&gt;PFL_4132&lt;/b&gt;&lt;br&gt;phenylethylamine degradation protein PeaF&lt;br&gt;Location: 94920 - 96239" locus_tag="PFL_4132" class="clusterblast-orf" id="dummy-1_h1_2_55"  />
</g>
<g id="a1_0056"  >
<polygon points="428,85 431,80 431,90 428,85 " style="fill:white; stroke-width:1; stroke:black; " description="&lt;b&gt;PFL_4133&lt;/b&gt;&lt;br&gt;conserved hypothetical protein&lt;br&gt;Location: 96224 - 96907" locus_tag="PFL_4133" class="clusterblast-orf" id="dummy-1_h1_2_56"  />
</g>
<g id="a1_0057"  >
<polygon points="431,85 436,80 439,80 439,90 436,90 431,85 " style="fill:white; stroke-width:1; stroke:black; " description="&lt;b&gt;PFL_4134&lt;/b&gt;&lt;br&gt;2-phenylethylamine uptake protein PeaH&lt;br&gt;Location: 96897 - 98615" locus_tag="PFL_4134" class="clusterblast-orf" id="dummy-1_h1_2_57"  />
</g>
<g id="a1_0058"  >
<polygon points="439,85 444,80 447,80 447,90 444,90 439,85 " style="fill:white; stroke-width:1; stroke:black; " description="&lt;b&gt;PFL_4135&lt;/b&gt;&lt;br&gt;sigma-54 dependent transcriptional activator PeaR&lt;br&gt;Location: 98615 - 100519" locus_tag="PFL_4135" class="clusterblast-orf" id="dummy-1_h1_2_58"  />
</g>
<g id="a1_0059"  >
<polygon points="449,85 454,80 454,80 454,90 454,90 449,85 " style="fill:white; stroke-width:1; stroke:black; " description="&lt;b&gt;PFL_4136&lt;/b&gt;&lt;br&gt;acetylpolyamine aminohydrolase&lt;br&gt;Location: 100975 - 102000" locus_tag="PFL_4136" class="clusterblast-orf" id="dummy-1_h1_2_59"  />
</g>
<g id="a1_0060"  >
<polygon points="454,85 459,80 460,80 460,90 459,90 454,85 " style="fill:white; stroke-width:1; stroke:black; " description="&lt;b&gt;PFL_4137&lt;/b&gt;&lt;br&gt;N-carbamyl-L-amino acid amidohydrolase&lt;br&gt;Location: 102011 - 103240" locus_tag="PFL_4137" class="clusterblast-orf" id="dummy-1_h1_2_60"  />
</g>
<g id="a1_0061"  >
<polygon points="460,85 465,80 465,80 465,90 465,90 460,85 " style="fill:white; stroke-width:1; stroke:black; " description="&lt;b&gt;PFL_4138&lt;/b&gt;&lt;br&gt;transporter, major facilitator family&lt;br&gt;Location: 103260 - 104573" locus_tag="PFL_4138" class="clusterblast-orf" id="dummy-1_h1_2_61"  />
</g>
<g id="a1_0062"  >
<polygon points="466,90 466,90 471,85 466,80 466,80 466,90 " style="fill:white; stroke-width:1; stroke:black; " description="&lt;b&gt;PFL_4139&lt;/b&gt;&lt;br&gt;transcriptional regulator, LysR family&lt;br&gt;Location: 104752 - 105717" locus_tag="PFL_4139" class="clusterblast-orf" id="dummy-1_h1_2_62"  />
</g>
<g id="a1_0063"  >
<polygon points="471,85 476,80 479,80 479,90 476,90 471,85 " style="fill:white; stroke-width:1; stroke:black; " description="&lt;b&gt;PFL_4140&lt;/b&gt;&lt;br&gt;penicillin-binding protein 2&lt;br&gt;Location: 105719 - 107611" locus_tag="PFL_4140" class="clusterblast-orf" id="dummy-1_h1_2_63"  />
</g>
<g id="a1_0064"  >
<polygon points="506,90 510,85 506,80 506,90 " style="fill:white; stroke-width:1; stroke:black; " description="&lt;b&gt;PFL_4146&lt;/b&gt;&lt;br&gt;integral membrane protein, DUF6 family&lt;br&gt;Location: 113733 - 114620" locus_tag="PFL_4146" class="clusterblast-orf" id="dummy-1_h1_2_64"  />
</g>
<g id="a1_0065"  >
<polygon points="511,90 512,85 511,80 511,90 " style="fill:white; stroke-width:1; stroke:black; " description="&lt;b&gt;PFL_4147&lt;/b&gt;&lt;br&gt;putative lipoprotein&lt;br&gt;Location: 114779 - 115060" locus_tag="PFL_4147" class="clusterblast-orf" id="dummy-1_h1_2_65"  />
</g>
<g id="a1_0066"  >
<polygon points="512,85 515,80 515,90 512,85 " style="fill:white; stroke-width:1; stroke:black; " description="&lt;b&gt;PFL_4148&lt;/b&gt;&lt;br&gt;transcriptional regulator, TetR family&lt;br&gt;Location: 115070 - 115639" locus_tag="PFL_4148" class="clusterblast-orf" id="dummy-1_h1_2_66"  />
</g>
<g id="a1_0067"  >
<polygon points="515,90 518,85 515,80 515,90 " style="fill:white; stroke-width:1; stroke:black; " description="&lt;b&gt;PFL_4149&lt;/b&gt;&lt;br&gt;short chain dehydrogenase/reductase family protein&lt;br&gt;Location: 115733 - 116473" locus_tag="PFL_4149" class="clusterblast-orf" id="dummy-1_h1_2_67"  />
</g>
<g id="a1_0068"  >
<polygon points="519,90 521,85 519,80 519,90 " style="fill:white; stroke-width:1; stroke:black; " description="&lt;b&gt;PFL_4150&lt;/b&gt;&lt;br&gt;DsbA-like thioredoxin domain protein&lt;br&gt;Location: 116511 - 117107" locus_tag="PFL_4150" class="clusterblast-orf" id="dummy-1_h1_2_68"  />
</g>
<g id="a1_0069"  >
<polygon points="522,85 527,80 530,80 530,90 527,90 522,85 " style="fill:white; stroke-width:1; stroke:black; " description="&lt;b&gt;PFL_4151&lt;/b&gt;&lt;br&gt;peptidase, M24 family&lt;br&gt;Location: 117192 - 119000" locus_tag="PFL_4151" class="clusterblast-orf" id="dummy-1_h1_2_69"  />
</g>
<g id="a1_0070"  >
<polygon points="530,85 535,80 535,80 535,90 535,90 530,85 " style="fill:white; stroke-width:1; stroke:black; " description="&lt;b&gt;PFL_4152&lt;/b&gt;&lt;br&gt;aminotransferase, class V&lt;br&gt;Location: 119056 - 120225" locus_tag="PFL_4152" class="clusterblast-orf" id="dummy-1_h1_2_70"  />
</g>
<g id="a1_0071"  >
<polygon points="536,85 539,80 539,90 536,85 " style="fill:white; stroke-width:1; stroke:black; " description="&lt;b&gt;PFL_4153&lt;/b&gt;&lt;br&gt;translocator protein, LysE family&lt;br&gt;Location: 120436 - 121050" locus_tag="PFL_4153" class="clusterblast-orf" id="dummy-1_h1_2_71"  />
</g>
<g id="a1_0072"  >
<polygon points="540,85 541,80 541,90 540,85 " style="fill:white; stroke-width:1; stroke:black; " description="&lt;b&gt;PFL_4154&lt;/b&gt;&lt;br&gt;putative lipoprotein&lt;br&gt;Location: 121259 - 121483" locus_tag="PFL_4154" class="clusterblast-orf" id="dummy-1_h1_2_72"  />
</g>
<g id="a1_0073"  >
<polygon points="542,90 545,85 542,80 542,90 " style="fill:white; stroke-width:1; stroke:black; " description="&lt;b&gt;PFL_4155&lt;/b&gt;&lt;br&gt;NADH-dependent FMN reductase&lt;br&gt;Location: 121814 - 122377" locus_tag="PFL_4155" class="clusterblast-orf" id="dummy-1_h1_2_73"  />
</g>
<g id="a1_0074"  >
<polygon points="545,90 545,90 550,85 545,80 545,80 545,90 " style="fill:white; stroke-width:1; stroke:black; " description="&lt;b&gt;PFL_4156&lt;/b&gt;&lt;br&gt;methanesulfonate sulfonatase MsuD&lt;br&gt;Location: 122387 - 123526" locus_tag="PFL_4156" class="clusterblast-orf" id="dummy-1_h1_2_74"  />
</g>
<g id="a1_0075"  >
<polygon points="551,90 551,90 556,85 551,80 551,80 551,90 " style="fill:white; stroke-width:1; stroke:black; " description="&lt;b&gt;PFL_4157&lt;/b&gt;&lt;br&gt;putative monooxygenase MsuC&lt;br&gt;Location: 123661 - 124848" locus_tag="PFL_4157" class="clusterblast-orf" id="dummy-1_h1_2_75"  />
</g>
<g id="a1_0076"  >
<polygon points="556,90 556,90 561,85 556,80 556,80 556,90 " style="fill:white; stroke-width:1; stroke:black; " description="&lt;b&gt;PFL_4158&lt;/b&gt;&lt;br&gt;sigma-54 dependent transcriptional regulator&lt;br&gt;Location: 124873 - 125973" locus_tag="PFL_4158" class="clusterblast-orf" id="dummy-1_h1_2_76"  />
</g>
<g id="a1_0077"  >
<polygon points="561,85 562,80 562,90 561,85 " style="fill:white; stroke-width:1; stroke:black; " description="&lt;b&gt;PFL_4159&lt;/b&gt;&lt;br&gt;antibiotic biosynthesis monooxygenase&lt;br&gt;Location: 125970 - 126335" locus_tag="PFL_4159" class="clusterblast-orf" id="dummy-1_h1_2_77"  />
</g>
<g id="a1_0078"  >
<polygon points="563,90 565,85 563,80 563,90 " style="fill:white; stroke-width:1; stroke:black; " description="&lt;b&gt;PFL_4160&lt;/b&gt;&lt;br&gt;redox-sensitive transcriptional activator SoxR&lt;br&gt;Location: 126444 - 126917" locus_tag="PFL_4160" class="clusterblast-orf" id="dummy-1_h1_2_78"  />
</g>
<g id="a1_0079"  >
<polygon points="574,90 577,85 574,80 574,90 " style="fill:white; stroke-width:1; stroke:black; " description="&lt;b&gt;PFL_4162&lt;/b&gt;&lt;br&gt;organic radical activating enzyme family protein&lt;br&gt;Location: 128946 - 129590" locus_tag="PFL_4162" class="clusterblast-orf" id="dummy-1_h1_2_79"  />
</g>
<g id="a1_0080"  >
<polygon points="577,90 600,90 605,85 600,80 577,80 577,90 " style="fill:white; stroke-width:1; stroke:black; " description="&lt;b&gt;PFL_4163&lt;/b&gt;&lt;br&gt;histidine kinase&lt;br&gt;Location: 129606 - 135923" locus_tag="PFL_4163" class="clusterblast-orf" id="dummy-1_h1_2_80"  />
</g>
<g id="a1_0081"  >
<polygon points="605,90 606,90 611,85 606,80 605,80 605,90 " style="fill:white; stroke-width:1; stroke:black; " description="&lt;b&gt;PFL_4164&lt;/b&gt;&lt;br&gt;conserved hypothetical protein&lt;br&gt;Location: 135920 - 137254" locus_tag="PFL_4164" class="clusterblast-orf" id="dummy-1_h1_2_81"  />
</g>
<g id="a1_0082"  >
<polygon points="612,85 615,80 615,90 612,85 " style="fill:white; stroke-width:1; stroke:black; " description="&lt;b&gt;PFL_4165&lt;/b&gt;&lt;br&gt;lipoprotein, NLPA family&lt;br&gt;Location: 137352 - 138122" locus_tag="PFL_4165" class="clusterblast-orf" id="dummy-1_h1_2_82"  />
</g>
<g id="a1_0083"  >
<polygon points="615,85 618,80 618,90 615,85 " style="fill:white; stroke-width:1; stroke:black; " description="&lt;b&gt;PFL_4166&lt;/b&gt;&lt;br&gt;putative ABC transporter, permease protein&lt;br&gt;Location: 138205 - 138870" locus_tag="PFL_4166" class="clusterblast-orf" id="dummy-1_h1_2_83"  />
</g>
<g id="a1_0084"  >
<polygon points="618,85 623,80 624,80 624,90 623,90 618,85 " style="fill:white; stroke-width:1; stroke:black; " description="&lt;b&gt;PFL_4167&lt;/b&gt;&lt;br&gt;monooxygenase, DszC family&lt;br&gt;Location: 138874 - 140166" locus_tag="PFL_4167" class="clusterblast-orf" id="dummy-1_h1_2_84"  />
</g>
<g id="a1_0085"  >
<polygon points="625,90 627,85 625,80 625,90 " style="fill:white; stroke-width:1; stroke:black; " description="&lt;b&gt;PFL_4168&lt;/b&gt;&lt;br&gt;glyoxalase family protein&lt;br&gt;Location: 140381 - 140848" locus_tag="PFL_4168" class="clusterblast-orf" id="dummy-1_h1_2_85"  />
</g>
<g id="a1_0086"  >
<polygon points="628,90 629,90 634,85 629,80 628,80 628,90 " style="fill:white; stroke-width:1; stroke:black; " description="&lt;b&gt;PFL_4169&lt;/b&gt;&lt;br&gt;PepSY-associated TM helix domain protein&lt;br&gt;Location: 141145 - 142368" locus_tag="PFL_4169" class="clusterblast-orf" id="dummy-1_h1_2_86"  />
</g>
<g id="a1_0087"  >
<polygon points="634,90 636,85 634,80 634,90 " style="fill:white; stroke-width:1; stroke:black; " description="&lt;b&gt;PFL_4170&lt;/b&gt;&lt;br&gt;conserved hypothetical protein&lt;br&gt;Location: 142365 - 142907" locus_tag="PFL_4170" class="clusterblast-orf" id="dummy-1_h1_2_87"  />
</g>
<g id="a1_0088"  >
<polygon points="636,90 638,85 636,80 636,90 " style="fill:white; stroke-width:1; stroke:black; " description="&lt;b&gt;PFL_4171&lt;/b&gt;&lt;br&gt;conserved hypothetical protein&lt;br&gt;Location: 142904 - 143242" locus_tag="PFL_4171" class="clusterblast-orf" id="dummy-1_h1_2_88"  />
</g>
<g id="a1_0089"  >
<polygon points="638,90 640,85 638,80 638,90 " style="fill:white; stroke-width:1; stroke:black; " description="&lt;b&gt;PFL_4172&lt;/b&gt;&lt;br&gt;conserved hypothetical protein&lt;br&gt;Location: 143239 - 143811" locus_tag="PFL_4172" class="clusterblast-orf" id="dummy-1_h1_2_89"  />
</g>
<g id="a1_0090"  >
<polygon points="640,90 640,90 645,85 640,80 640,80 640,90 " style="fill:white; stroke-width:1; stroke:black; " description="&lt;b&gt;PFL_4173&lt;/b&gt;&lt;br&gt;cation ABC transporter, MZT family, periplasmic cation-binding protein&lt;br&gt;Location: 143847 - 144776" locus_tag="PFL_4173" class="clusterblast-orf" id="dummy-1_h1_2_90"  />
</g>
<g id="a1_0091"  >
<polygon points="645,90 648,85 645,80 645,90 " style="fill:white; stroke-width:1; stroke:black; " description="&lt;b&gt;PFL_4174&lt;/b&gt;&lt;br&gt;cation ABC transporter, MZT family, ATP-binding protein&lt;br&gt;Location: 144773 - 145516" locus_tag="PFL_4174" class="clusterblast-orf" id="dummy-1_h1_2_91"  />
</g>
<g id="a1_0092"  >
<polygon points="648,90 652,85 648,80 648,90 " style="fill:white; stroke-width:1; stroke:black; " description="&lt;b&gt;PFL_4175&lt;/b&gt;&lt;br&gt;cation ABC transporter, MZT family, permease protein&lt;br&gt;Location: 145516 - 146415" locus_tag="PFL_4175" class="clusterblast-orf" id="dummy-1_h1_2_92"  />
</g>
<g id="a1_0093"  >
<polygon points="652,90 656,85 652,80 652,90 " style="fill:white; stroke-width:1; stroke:black; " description="&lt;b&gt;PFL_4176&lt;/b&gt;&lt;br&gt;conserved hypothetical protein&lt;br&gt;Location: 146416 - 147399" locus_tag="PFL_4176" class="clusterblast-orf" id="dummy-1_h1_2_93"  />
</g>
<g id="a1_0094"  >
<polygon points="657,90 661,85 657,80 657,90 " style="fill:white; stroke-width:1; stroke:black; " description="&lt;b&gt;PFL_4177&lt;/b&gt;&lt;br&gt;methyltransferase domain protein&lt;br&gt;Location: 147611 - 148438" locus_tag="PFL_4177" class="clusterblast-orf" id="dummy-1_h1_2_94"  />
</g>
<g id="a1_0095"  >
<polygon points="662,85 663,80 663,90 662,85 " style="fill:white; stroke-width:1; stroke:black; " description="&lt;b&gt;PFL_4178&lt;/b&gt;&lt;br&gt;MbtH-like protein&lt;br&gt;Location: 148728 - 148952" locus_tag="PFL_4178" class="clusterblast-orf" id="dummy-1_h1_2_95"  />
</g>
<g id="a1_0096"  >
<polygon points="664,85 669,80 670,80 670,90 669,90 664,85 " style="fill:white; stroke-width:1; stroke:black; " description="&lt;b&gt;PFL_4179&lt;/b&gt;&lt;br&gt;2,4-diaminobutyrate 4-transaminase&lt;br&gt;Location: 149035 - 150447" locus_tag="PFL_4179" class="clusterblast-orf" id="dummy-1_h1_2_96"  />
</g>
<g id="a1_0097"  >
<polygon points="671,85 676,80 677,80 677,90 676,90 671,85 " style="fill:white; stroke-width:1; stroke:black; " description="&lt;b&gt;PFL_4180&lt;/b&gt;&lt;br&gt;sensor histidine kinase&lt;br&gt;Location: 150683 - 152008" locus_tag="PFL_4180" class="clusterblast-orf" id="dummy-1_h1_2_97"  />
</g>
<g id="a1_0098"  >
<polygon points="677,85 680,80 680,90 677,85 " style="fill:white; stroke-width:1; stroke:black; " description="&lt;b&gt;PFL_4181&lt;/b&gt;&lt;br&gt;DNA-binding response regulator&lt;br&gt;Location: 152009 - 152686" locus_tag="PFL_4181" class="clusterblast-orf" id="dummy-1_h1_2_98"  />
</g>
<g id="a1_0099"  >
<polygon points="681,90 683,90 688,85 683,80 681,80 681,90 " style="fill:white; stroke-width:1; stroke:black; " description="&lt;b&gt;PFL_4182&lt;/b&gt;&lt;br&gt;thiol:disulfide interchange protein DsbD&lt;br&gt;Location: 152840 - 154591" locus_tag="PFL_4182" class="clusterblast-orf" id="dummy-1_h1_2_99"  />
</g>
<g id="a1_00100"  >
<polygon points="688,90 692,85 688,80 688,90 " style="fill:white; stroke-width:1; stroke:black; " description="&lt;b&gt;PFL_4183&lt;/b&gt;&lt;br&gt;antioxidant, AhpC family&lt;br&gt;Location: 154591 - 155454" locus_tag="PFL_4183" class="clusterblast-orf" id="dummy-1_h1_2_100"  />
</g>
<g id="a1_00101"  >
<polygon points="692,90 695,85 692,80 692,90 " style="fill:white; stroke-width:1; stroke:black; " description="&lt;b&gt;PFL_4184&lt;/b&gt;&lt;br&gt;thiol:disulfide interchange protein DsbG&lt;br&gt;Location: 155430 - 156197" locus_tag="PFL_4184" class="clusterblast-orf" id="dummy-1_h1_2_101"  />
</g>
<g id="a1_00102"  >
<polygon points="696,85 700,80 700,90 696,85 " style="fill:white; stroke-width:1; stroke:black; " description="&lt;b&gt;PFL_4185&lt;/b&gt;&lt;br&gt;alpha/beta hydrolase family protein&lt;br&gt;Location: 156411 - 157223" locus_tag="PFL_4185" class="clusterblast-orf" id="dummy-1_h1_2_102"  />
</g>
<g id="a1_00103"  >
<polygon points="701,85 703,80 703,90 701,85 " style="fill:white; stroke-width:1; stroke:black; " description="&lt;b&gt;PFL_4186&lt;/b&gt;&lt;br&gt;conserved hypothetical protein&lt;br&gt;Location: 157332 - 157955" locus_tag="PFL_4186" class="clusterblast-orf" id="dummy-1_h1_2_103"  />
</g>
<g id="a1_00104"  >
<polygon points="705,85 709,80 709,90 705,85 " style="fill:white; stroke-width:1; stroke:black; " description="&lt;b&gt;PFL_4187&lt;/b&gt;&lt;br&gt;conserved hypothetical protein&lt;br&gt;Location: 158247 - 159296" locus_tag="PFL_4187" class="clusterblast-orf" id="dummy-1_h1_2_104"  />
</g>
<g id="a1_00105"  >
<polygon points="710,85 715,80 715,80 715,90 715,90 710,85 " style="fill:white; stroke-width:1; stroke:black; " description="&lt;b&gt;PFL_4188&lt;/b&gt;&lt;br&gt;conserved hypothetical protein&lt;br&gt;Location: 159416 - 160666" locus_tag="PFL_4188" class="clusterblast-orf" id="dummy-1_h1_2_105"  />
</g>
<g id="a1_00106"  >
<polygon points="715,85 720,80 774,80 774,90 720,90 715,85 " style="fill:white; stroke-width:1; stroke:black; " description="&lt;b&gt;PFL_4189&lt;/b&gt;&lt;br&gt;non-ribosomal peptide synthetase PvdL&lt;br&gt;Location: 160681 - 173709" locus_tag="PFL_4189" class="clusterblast-orf" id="dummy-1_h1_2_106"  />
</g>
<g id="a1_00107"  >
<polygon points="775,90 778,85 775,80 775,90 " style="fill:white; stroke-width:1; stroke:black; " description="&lt;b&gt;PFL_4190&lt;/b&gt;&lt;br&gt;RNA polymerase sigma-70 factor, ECF subfamily, PvdS&lt;br&gt;Location: 174083 - 174631" locus_tag="PFL_4190" class="clusterblast-orf" id="dummy-1_h1_2_107"  />
</g>
<g id="a1_00108"  >
<polygon points="778,85 780,80 780,90 778,85 " style="fill:white; stroke-width:1; stroke:black; " description="&lt;b&gt;PFL_4191&lt;/b&gt;&lt;br&gt;pyoverdine biosynthesis protein&lt;br&gt;Location: 174665 - 175054" locus_tag="PFL_4191" class="clusterblast-orf" id="dummy-1_h1_2_108"  />
</g>
</svg>
