<svg xmlns="http://www.w3.org/2000/svg" xmlns:xlink="http://www.w3.org/1999/xlink" version="1.1" x="0" y="0" height="230" width="800" viewBox="0 0 800 230" preserveAspectRatio="none"  >
<g label="Query sequence" class="clusterblast-cluster"  >
<text x="5" y="20" class="clusterblast-acc"  >
Query sequence</text>
<line x1="10" y1="35" x2="778.0" y2="35" style="stroke-width:1; stroke:grey; "  />
<polygon points="0,40 7,40 12,35 7,30 0,30 0,40 " style="fill:white; stroke-width:1; stroke:black; " description="&lt;b&gt;MCIC6FC_015386&lt;/b&gt;&lt;br&gt;hypothetical protein&lt;br&gt;Location: 35482 - 36303" locus_tag="MCIC6FC_015386" class="clusterblast-orf" id="dummy-1_q0_0_all"  />
<polygon points="13,35 18,30 57,30 57,40 18,40 13,35 " style="fill:white; stroke-width:1; stroke:black; " description="&lt;b&gt;MCIC6FC_015387&lt;/b&gt;&lt;br&gt;hypothetical protein&lt;br&gt;Location: 36361 - 39224" locus_tag="MCIC6FC_015387" class="clusterblast-orf" id="dummy-1_q1_0_all"  />
<polygon points="58,40 85,40 90,35 85,30 58,30 58,40 " style="fill:white; stroke-width:1; stroke:black; " description="&lt;b&gt;MCIC6FC_015388&lt;/b&gt;&lt;br&gt;hypothetical protein&lt;br&gt;Location: 39319 - 41380" locus_tag="MCIC6FC_015388" class="clusterblast-orf" id="dummy-1_q2_0_all"  />
<polygon points="91,35 96,30 149,30 149,40 96,40 91,35 " style="fill:white; stroke-width:1; stroke:black; " description="&lt;b&gt;MCIC6FC_015389&lt;/b&gt;&lt;br&gt;hypothetical protein&lt;br&gt;Location: 41444 - 45243" locus_tag="MCIC6FC_015389" class="clusterblast-orf" id="dummy-1_q3_0_all"  />
<polygon points="150,35 155,30 192,30 192,40 155,40 150,35 " style="fill:white; stroke-width:1; stroke:black; " description="&lt;b&gt;MCIC6FC_015390&lt;/b&gt;&lt;br&gt;hypothetical protein&lt;br&gt;Location: 45314 - 48104" locus_tag="MCIC6FC_015390" class="clusterblast-orf" id="dummy-1_q4_0_all"  />
<polygon points="192,35 197,30 233,30 233,40 197,40 192,35 " style="fill:white; stroke-width:1; stroke:black; " description="&lt;b&gt;MCIC6FC_015391&lt;/b&gt;&lt;br&gt;hypothetical protein&lt;br&gt;Location: 48107 - 50772" locus_tag="MCIC6FC_015391" class="clusterblast-orf" id="dummy-1_q5_0_all"  />
<polygon points="235,40 240,40 245,35 240,30 235,30 235,40 " style="fill:white; stroke-width:1; stroke:black; " description="&lt;b&gt;MCIC6FC_015392&lt;/b&gt;&lt;br&gt;hypothetical protein&lt;br&gt;Location: 50925 - 51549" locus_tag="MCIC6FC_015392" class="clusterblast-orf" id="dummy-1_q6_0_all"  />
<polygon points="247,40 253,40 258,35 253,30 247,30 247,40 " style="fill:white; stroke-width:1; stroke:black; " description="&lt;b&gt;MCIC6FC_015393&lt;/b&gt;&lt;br&gt;hypothetical protein&lt;br&gt;Location: 51705 - 52431" locus_tag="MCIC6FC_015393" class="clusterblast-orf" id="dummy-1_q7_0_all"  />
<polygon points="261,35 266,30 270,30 270,40 266,40 261,35 " style="fill:#d81515; stroke-width:1; stroke:black; " description="&lt;b&gt;MCIC6FC_015394&lt;/b&gt;&lt;br&gt;hypothetical protein&lt;br&gt;Location: 52619 - 53210" locus_tag="MCIC6FC_015394" class="clusterblast-orf" id="dummy-1_q8_0_all"  />
<polygon points="275,40 281,40 286,35 281,30 275,30 275,40 " style="fill:#15d863; stroke-width:1; stroke:black; " description="&lt;b&gt;MCIC6FC_015395&lt;/b&gt;&lt;br&gt;hypothetical protein&lt;br&gt;Location: 53508 - 54261" locus_tag="MCIC6FC_015395" class="clusterblast-orf" id="dummy-1_q9_0_all"  />
<polygon points="287,40 479,40 484,35 479,30 287,30 287,40 " style="fill:#1563d8; stroke-width:1; stroke:black; " description="&lt;b&gt;MCIC6FC_015396&lt;/b&gt;&lt;br&gt;hypothetical protein&lt;br&gt;Location: 54312 - 67209" locus_tag="MCIC6FC_015396" class="clusterblast-orf" id="dummy-1_q10_0_all"  />
<polygon points="487,40 509,40 514,35 509,30 487,30 487,40 " style="fill:white; stroke-width:1; stroke:black; " description="&lt;b&gt;MCIC6FC_015397&lt;/b&gt;&lt;br&gt;hypothetical protein&lt;br&gt;Location: 67444 - 69197" locus_tag="MCIC6FC_015397" class="clusterblast-orf" id="dummy-1_q11_0_all"  />
<polygon points="517,35 522,30 567,30 567,40 522,40 517,35 " style="fill:#b115d8; stroke-width:1; stroke:black; " description="&lt;b&gt;MCIC6FC_015398&lt;/b&gt;&lt;br&gt;hypothetical protein&lt;br&gt;Location: 69397 - 72707" locus_tag="MCIC6FC_015398" class="clusterblast-orf" id="dummy-1_q12_0_all"  />
<polygon points="570,40 642,40 647,35 642,30 570,30 570,40 " style="fill:white; stroke-width:1; stroke:black; " description="&lt;b&gt;MCIC6FC_015399&lt;/b&gt;&lt;br&gt;hypothetical protein&lt;br&gt;Location: 72884 - 77959" locus_tag="MCIC6FC_015399" class="clusterblast-orf" id="dummy-1_q13_0_all"  />
<polygon points="649,40 652,35 649,30 649,40 " style="fill:#b1d815; stroke-width:1; stroke:black; " description="&lt;b&gt;MCIC6FC_015400&lt;/b&gt;&lt;br&gt;hypothetical protein&lt;br&gt;Location: 78042 - 78267" locus_tag="MCIC6FC_015400" class="clusterblast-orf" id="dummy-1_q14_0_all"  />
<polygon points="654,35 659,30 711,30 711,40 659,40 654,35 " style="fill:white; stroke-width:1; stroke:black; " description="&lt;b&gt;MCIC6FC_015401&lt;/b&gt;&lt;br&gt;hypothetical protein&lt;br&gt;Location: 78379 - 82156" locus_tag="MCIC6FC_015401" class="clusterblast-orf" id="dummy-1_q15_0_all"  />
<polygon points="715,35 720,30 735,30 735,40 720,40 715,35 " style="fill:white; stroke-width:1; stroke:black; " description="&lt;b&gt;MCIC6FC_015402&lt;/b&gt;&lt;br&gt;hypothetical protein&lt;br&gt;Location: 82401 - 83691" locus_tag="MCIC6FC_015402" class="clusterblast-orf" id="dummy-1_q16_0_all"  />
<polygon points="738,35 743,30 748,30 748,40 743,40 738,35 " style="fill:white; stroke-width:1; stroke:black; " description="&lt;b&gt;MCIC6FC_015403&lt;/b&gt;&lt;br&gt;hypothetical protein&lt;br&gt;Location: 83886 - 84522" locus_tag="MCIC6FC_015403" class="clusterblast-orf" id="dummy-1_q17_0_all"  />
<polygon points="749,35 754,30 780,30 780,40 754,40 749,35 " style="fill:white; stroke-width:1; stroke:black; " description="&lt;b&gt;MCIC6FC_015404&lt;/b&gt;&lt;br&gt;hypothetical protein&lt;br&gt;Location: 84618 - 86626" locus_tag="MCIC6FC_015404" class="clusterblast-orf" id="dummy-1_q18_0_all"  />
</g>
<g label="BGC0000424" description="BGC0000424_c1: serobactin C / serobactin B / serobactin A (15% of genes show similarity), NRP:NRP siderophore" class="clusterblast-cluster"  >
<text x="5" y="70" class="clusterblast-acc"  >
<a xlink:href="https://mibig.secondarymetabolites.org/go/BGC0000424/1" target="_blank">BGC0000424</a>:                                       serobactin C / serobactin B / serobactin A (15% of genes show similarity), NRP:NRP siderophore</text>
<line x1="10" y1="85" x2="778.0" y2="85" style="stroke-width:1; stroke:grey; "  />
</g>
<g id="a1_000"  >
<polygon points="68,90 101,90 106,85 101,80 68,80 68,90 " style="fill:white; stroke-width:1; stroke:black; " description="&lt;b&gt;Hsero_2337&lt;/b&gt;&lt;br&gt;TonB-dependent transducer&lt;br&gt;Location: 1 - 2499" locus_tag="Hsero_2337" class="clusterblast-orf" id="dummy-1_h1_4_0"  />
</g>
<g id="a1_001"  >
<polygon points="107,90 111,90 116,85 111,80 107,80 107,90 " style="fill:#d81515; stroke-width:1; stroke:black; " description="&lt;b&gt;Hsero_2338&lt;/b&gt;&lt;br&gt;ferric regulator sigma-24 subunit protein&lt;br&gt;Location: 2580 - 3116&lt;br&gt;&lt;br&gt;&lt;b&gt;BlastP hit with MCIC6FC_015394&lt;/b&gt;&lt;br&gt;Percentage identity: 48&lt;br&gt;Percentage coverage: 81&lt;br&gt;BLAST bit score: 139&lt;br&gt;E-value: 4.2e-33" locus_tag="Hsero_2338" class="clusterblast-orf" id="dummy-1_h1_4_1"  />
</g>
<g id="a1_002"  >
<polygon points="118,90 121,85 118,80 118,90 " style="fill:#b1d815; stroke-width:1; stroke:black; " description="&lt;b&gt;Hsero_2339&lt;/b&gt;&lt;br&gt;MbtH-like protein&lt;br&gt;Location: 3282 - 3503&lt;br&gt;&lt;br&gt;&lt;b&gt;BlastP hit with MCIC6FC_015400&lt;/b&gt;&lt;br&gt;Percentage identity: 70&lt;br&gt;Percentage coverage: 86&lt;br&gt;BLAST bit score: 106&lt;br&gt;E-value: 1.9e-23" locus_tag="Hsero_2339" class="clusterblast-orf" id="dummy-1_h1_4_2"  />
</g>
<g id="a1_003"  >
<polygon points="122,90 128,90 133,85 128,80 122,80 122,90 " style="fill:white; stroke-width:1; stroke:black; " description="&lt;b&gt;Hsero_2340&lt;/b&gt;&lt;br&gt;thioesterase involved in non-ribosomal peptide biosynthesis protein&lt;br&gt;Location: 3510 - 4259" locus_tag="Hsero_2340" class="clusterblast-orf" id="dummy-1_h1_4_3"  />
</g>
<g id="a1_004"  >
<polygon points="133,90 138,90 143,85 138,80 133,80 133,90 " style="fill:white; stroke-width:1; stroke:black; " description="&lt;b&gt;Hsero_2341&lt;/b&gt;&lt;br&gt;4'-phosphopantetheinyl transferase protein&lt;br&gt;Location: 4261 - 4941" locus_tag="Hsero_2341" class="clusterblast-orf" id="dummy-1_h1_4_4"  />
</g>
<g id="a1_005"  >
<polygon points="144,90 154,90 159,85 154,80 144,80 144,90 " style="fill:white; stroke-width:1; stroke:black; " description="&lt;b&gt;Hsero_2342&lt;/b&gt;&lt;br&gt;clavaminic acid synthetase (CAS)-like protein&lt;br&gt;Location: 4947 - 5975" locus_tag="Hsero_2342" class="clusterblast-orf" id="dummy-1_h1_4_5"  />
</g>
<g id="a1_006"  >
<polygon points="161,90 575,90 580,85 575,80 161,80 161,90 " style="fill:white; stroke-width:1; stroke:black; " description="&lt;b&gt;Hsero_2343&lt;/b&gt;&lt;br&gt;Serobactin synthetase&lt;br&gt;Location: 6093 - 33575" locus_tag="Hsero_2343" class="clusterblast-orf" id="dummy-1_h1_4_6"  />
</g>
<g id="a1_007"  >
<polygon points="583,85 588,80 598,80 598,90 588,90 583,85 " style="fill:white; stroke-width:1; stroke:black; " description="&lt;b&gt;Hsero_2344&lt;/b&gt;&lt;br&gt;esterase/lipase protein&lt;br&gt;Location: 33793 - 34746" locus_tag="Hsero_2344" class="clusterblast-orf" id="dummy-1_h1_4_7"  />
</g>
<g id="a1_008"  >
<polygon points="599,85 604,80 632,80 632,90 604,90 599,85 " style="fill:white; stroke-width:1; stroke:black; " description="&lt;b&gt;Hsero_2345&lt;/b&gt;&lt;br&gt;TonB-dependent Fe3+-serobactin transporter&lt;br&gt;Location: 34835 - 36952" locus_tag="Hsero_2345" class="clusterblast-orf" id="dummy-1_h1_4_8"  />
</g>
<g id="a1_009"  >
<polygon points="633,85 638,80 653,80 653,90 638,90 633,85 " style="fill:white; stroke-width:1; stroke:black; " description="&lt;b&gt;Hsero_2346&lt;/b&gt;&lt;br&gt;L-ornithine N5-monooxygenase protein&lt;br&gt;Location: 37031 - 38362" locus_tag="Hsero_2346" class="clusterblast-orf" id="dummy-1_h1_4_9"  />
</g>
<g id="a1_0010"  >
<polygon points="653,85 658,80 669,80 669,90 658,90 653,85 " style="fill:white; stroke-width:1; stroke:black; " description="&lt;b&gt;Hsero_2347&lt;/b&gt;&lt;br&gt;acetyltransferases, including N-acetylases of ribosomal proteins&lt;br&gt;Location: 38384 - 39388" locus_tag="Hsero_2347" class="clusterblast-orf" id="dummy-1_h1_4_10"  />
</g>
<g id="a1_0011"  >
<polygon points="670,85 675,80 683,80 683,90 675,90 670,85 " style="fill:white; stroke-width:1; stroke:black; " description="&lt;b&gt;Hsero_2348&lt;/b&gt;&lt;br&gt;iron reductase protein&lt;br&gt;Location: 39494 - 40306" locus_tag="Hsero_2348" class="clusterblast-orf" id="dummy-1_h1_4_11"  />
</g>
<g id="a1_0012"  >
<polygon points="685,90 706,90 711,85 706,80 685,80 685,90 " style="fill:white; stroke-width:1; stroke:black; " description="&lt;b&gt;Hsero_2349&lt;/b&gt;&lt;br&gt;ABC-type siderophore (cyclic peptide) export system protein&lt;br&gt;Location: 40470 - 42152" locus_tag="Hsero_2349" class="clusterblast-orf" id="dummy-1_h1_4_12"  />
</g>
</svg>
