<svg xmlns="http://www.w3.org/2000/svg" xmlns:xlink="http://www.w3.org/1999/xlink" version="1.1" x="0" y="0" height="230" width="800" viewBox="0 0 800 230" preserveAspectRatio="none"  >
<g label="Query sequence" class="clusterblast-cluster"  >
<text x="5" y="20" class="clusterblast-acc"  >
Query sequence</text>
<line x1="10" y1="35" x2="778.0" y2="35" style="stroke-width:1; stroke:grey; "  />
<polygon points="0,40 7,40 12,35 7,30 0,30 0,40 " style="fill:white; stroke-width:1; stroke:black; " description="&lt;b&gt;MCIC6FC_015386&lt;/b&gt;&lt;br&gt;hypothetical protein&lt;br&gt;Location: 35482 - 36303" locus_tag="MCIC6FC_015386" class="clusterblast-orf" id="dummy-1_q0_0_all"  />
<polygon points="13,35 18,30 57,30 57,40 18,40 13,35 " style="fill:white; stroke-width:1; stroke:black; " description="&lt;b&gt;MCIC6FC_015387&lt;/b&gt;&lt;br&gt;hypothetical protein&lt;br&gt;Location: 36361 - 39224" locus_tag="MCIC6FC_015387" class="clusterblast-orf" id="dummy-1_q1_0_all"  />
<polygon points="58,40 85,40 90,35 85,30 58,30 58,40 " style="fill:white; stroke-width:1; stroke:black; " description="&lt;b&gt;MCIC6FC_015388&lt;/b&gt;&lt;br&gt;hypothetical protein&lt;br&gt;Location: 39319 - 41380" locus_tag="MCIC6FC_015388" class="clusterblast-orf" id="dummy-1_q2_0_all"  />
<polygon points="91,35 96,30 149,30 149,40 96,40 91,35 " style="fill:white; stroke-width:1; stroke:black; " description="&lt;b&gt;MCIC6FC_015389&lt;/b&gt;&lt;br&gt;hypothetical protein&lt;br&gt;Location: 41444 - 45243" locus_tag="MCIC6FC_015389" class="clusterblast-orf" id="dummy-1_q3_0_all"  />
<polygon points="150,35 155,30 192,30 192,40 155,40 150,35 " style="fill:white; stroke-width:1; stroke:black; " description="&lt;b&gt;MCIC6FC_015390&lt;/b&gt;&lt;br&gt;hypothetical protein&lt;br&gt;Location: 45314 - 48104" locus_tag="MCIC6FC_015390" class="clusterblast-orf" id="dummy-1_q4_0_all"  />
<polygon points="192,35 197,30 233,30 233,40 197,40 192,35 " style="fill:white; stroke-width:1; stroke:black; " description="&lt;b&gt;MCIC6FC_015391&lt;/b&gt;&lt;br&gt;hypothetical protein&lt;br&gt;Location: 48107 - 50772" locus_tag="MCIC6FC_015391" class="clusterblast-orf" id="dummy-1_q5_0_all"  />
<polygon points="235,40 240,40 245,35 240,30 235,30 235,40 " style="fill:white; stroke-width:1; stroke:black; " description="&lt;b&gt;MCIC6FC_015392&lt;/b&gt;&lt;br&gt;hypothetical protein&lt;br&gt;Location: 50925 - 51549" locus_tag="MCIC6FC_015392" class="clusterblast-orf" id="dummy-1_q6_0_all"  />
<polygon points="247,40 253,40 258,35 253,30 247,30 247,40 " style="fill:white; stroke-width:1; stroke:black; " description="&lt;b&gt;MCIC6FC_015393&lt;/b&gt;&lt;br&gt;hypothetical protein&lt;br&gt;Location: 51705 - 52431" locus_tag="MCIC6FC_015393" class="clusterblast-orf" id="dummy-1_q7_0_all"  />
<polygon points="261,35 266,30 270,30 270,40 266,40 261,35 " style="fill:#d81515; stroke-width:1; stroke:black; " description="&lt;b&gt;MCIC6FC_015394&lt;/b&gt;&lt;br&gt;hypothetical protein&lt;br&gt;Location: 52619 - 53210" locus_tag="MCIC6FC_015394" class="clusterblast-orf" id="dummy-1_q8_0_all"  />
<polygon points="275,40 281,40 286,35 281,30 275,30 275,40 " style="fill:#15d863; stroke-width:1; stroke:black; " description="&lt;b&gt;MCIC6FC_015395&lt;/b&gt;&lt;br&gt;hypothetical protein&lt;br&gt;Location: 53508 - 54261" locus_tag="MCIC6FC_015395" class="clusterblast-orf" id="dummy-1_q9_0_all"  />
<polygon points="287,40 479,40 484,35 479,30 287,30 287,40 " style="fill:#1563d8; stroke-width:1; stroke:black; " description="&lt;b&gt;MCIC6FC_015396&lt;/b&gt;&lt;br&gt;hypothetical protein&lt;br&gt;Location: 54312 - 67209" locus_tag="MCIC6FC_015396" class="clusterblast-orf" id="dummy-1_q10_0_all"  />
<polygon points="487,40 509,40 514,35 509,30 487,30 487,40 " style="fill:white; stroke-width:1; stroke:black; " description="&lt;b&gt;MCIC6FC_015397&lt;/b&gt;&lt;br&gt;hypothetical protein&lt;br&gt;Location: 67444 - 69197" locus_tag="MCIC6FC_015397" class="clusterblast-orf" id="dummy-1_q11_0_all"  />
<polygon points="517,35 522,30 567,30 567,40 522,40 517,35 " style="fill:#b115d8; stroke-width:1; stroke:black; " description="&lt;b&gt;MCIC6FC_015398&lt;/b&gt;&lt;br&gt;hypothetical protein&lt;br&gt;Location: 69397 - 72707" locus_tag="MCIC6FC_015398" class="clusterblast-orf" id="dummy-1_q12_0_all"  />
<polygon points="570,40 642,40 647,35 642,30 570,30 570,40 " style="fill:white; stroke-width:1; stroke:black; " description="&lt;b&gt;MCIC6FC_015399&lt;/b&gt;&lt;br&gt;hypothetical protein&lt;br&gt;Location: 72884 - 77959" locus_tag="MCIC6FC_015399" class="clusterblast-orf" id="dummy-1_q13_0_all"  />
<polygon points="649,40 652,35 649,30 649,40 " style="fill:#b1d815; stroke-width:1; stroke:black; " description="&lt;b&gt;MCIC6FC_015400&lt;/b&gt;&lt;br&gt;hypothetical protein&lt;br&gt;Location: 78042 - 78267" locus_tag="MCIC6FC_015400" class="clusterblast-orf" id="dummy-1_q14_0_all"  />
<polygon points="654,35 659,30 711,30 711,40 659,40 654,35 " style="fill:white; stroke-width:1; stroke:black; " description="&lt;b&gt;MCIC6FC_015401&lt;/b&gt;&lt;br&gt;hypothetical protein&lt;br&gt;Location: 78379 - 82156" locus_tag="MCIC6FC_015401" class="clusterblast-orf" id="dummy-1_q15_0_all"  />
<polygon points="715,35 720,30 735,30 735,40 720,40 715,35 " style="fill:white; stroke-width:1; stroke:black; " description="&lt;b&gt;MCIC6FC_015402&lt;/b&gt;&lt;br&gt;hypothetical protein&lt;br&gt;Location: 82401 - 83691" locus_tag="MCIC6FC_015402" class="clusterblast-orf" id="dummy-1_q16_0_all"  />
<polygon points="738,35 743,30 748,30 748,40 743,40 738,35 " style="fill:white; stroke-width:1; stroke:black; " description="&lt;b&gt;MCIC6FC_015403&lt;/b&gt;&lt;br&gt;hypothetical protein&lt;br&gt;Location: 83886 - 84522" locus_tag="MCIC6FC_015403" class="clusterblast-orf" id="dummy-1_q17_0_all"  />
<polygon points="749,35 754,30 780,30 780,40 754,40 749,35 " style="fill:white; stroke-width:1; stroke:black; " description="&lt;b&gt;MCIC6FC_015404&lt;/b&gt;&lt;br&gt;hypothetical protein&lt;br&gt;Location: 84618 - 86626" locus_tag="MCIC6FC_015404" class="clusterblast-orf" id="dummy-1_q18_0_all"  />
</g>
<g label="BGC0002001" description="BGC0002001_c1: crochelin A (15% of genes show similarity), NRP + Polyketide" class="clusterblast-cluster"  >
<text x="5" y="70" class="clusterblast-acc"  >
<a xlink:href="https://mibig.secondarymetabolites.org/go/BGC0002001/1" target="_blank">BGC0002001</a>:                                                                      crochelin A (15% of genes show similarity), NRP + Polyketide</text>
<line x1="10" y1="85" x2="778.0" y2="85" style="stroke-width:1; stroke:grey; "  />
</g>
<g id="a1_000"  >
<polygon points="7,90 10,85 7,80 7,90 " style="fill:#b1d815; stroke-width:1; stroke:black; " description="&lt;b&gt;Achr_RS19650&lt;/b&gt;&lt;br&gt;MbtH family protein&lt;br&gt;Location: 50175 - 49972&lt;br&gt;&lt;br&gt;&lt;b&gt;BlastP hit with MCIC6FC_015400&lt;/b&gt;&lt;br&gt;Percentage identity: 54&lt;br&gt;Percentage coverage: 85&lt;br&gt;BLAST bit score: 82&lt;br&gt;E-value: 3.9e-16" locus_tag="Achr_RS19650" class="clusterblast-orf" id="dummy-1_h1_2_0"  />
</g>
<g id="a1_001"  >
<polygon points="11,90 38,90 43,85 38,80 11,80 11,90 " style="fill:white; stroke-width:1; stroke:black; " description="&lt;b&gt;Achr_RS24430&lt;/b&gt;&lt;br&gt;non-ribosomal peptide synthetase&lt;br&gt;Location: 49899 - 47794" locus_tag="Achr_RS24430" class="clusterblast-orf" id="dummy-1_h1_2_1"  />
</g>
<g id="a1_002"  >
<polygon points="44,90 47,90 52,85 47,80 44,80 44,90 " style="fill:white; stroke-width:1; stroke:black; " description="&lt;b&gt;Achr_RS19640&lt;/b&gt;&lt;br&gt;hypothetical protein&lt;br&gt;Location: 47743 - 47222" locus_tag="Achr_RS19640" class="clusterblast-orf" id="dummy-1_h1_2_2"  />
</g>
<g id="a1_003"  >
<polygon points="54,90 69,90 74,85 69,80 54,80 54,90 " style="fill:white; stroke-width:1; stroke:black; " description="&lt;b&gt;Achr_RS19635&lt;/b&gt;&lt;br&gt;lysine N(6)-hydroxylase/L-ornithine N(5)-oxygenase family protein&lt;br&gt;Location: 47093 - 45792" locus_tag="Achr_RS19635" class="clusterblast-orf" id="dummy-1_h1_2_3"  />
</g>
<g id="a1_004"  >
<polygon points="78,85 83,80 83,80 83,90 83,90 78,85 " style="fill:white; stroke-width:1; stroke:black; " description="&lt;b&gt;Achr_RS19630&lt;/b&gt;&lt;br&gt;hypothetical protein&lt;br&gt;Location: 45540 - 45166" locus_tag="Achr_RS19630" class="clusterblast-orf" id="dummy-1_h1_2_4"  />
</g>
<g id="a1_005"  >
<polygon points="86,85 91,80 95,80 95,90 91,90 86,85 " style="fill:#d81515; stroke-width:1; stroke:black; " description="&lt;b&gt;Achr_RS19625&lt;/b&gt;&lt;br&gt;RNA polymerase factor sigma-70&lt;br&gt;Location: 44960 - 44415&lt;br&gt;&lt;br&gt;&lt;b&gt;BlastP hit with MCIC6FC_015394&lt;/b&gt;&lt;br&gt;Percentage identity: 67&lt;br&gt;Percentage coverage: 86&lt;br&gt;BLAST bit score: 221&lt;br&gt;E-value: 1.1e-57" locus_tag="Achr_RS19625" class="clusterblast-orf" id="dummy-1_h1_2_5"  />
</g>
<g id="a1_006"  >
<polygon points="98,85 103,80 120,80 120,90 103,90 98,85 " style="fill:white; stroke-width:1; stroke:black; " description="&lt;b&gt;Achr_RS19620&lt;/b&gt;&lt;br&gt;efflux transporter outer membrane subunit&lt;br&gt;Location: 44171 - 42738" locus_tag="Achr_RS19620" class="clusterblast-orf" id="dummy-1_h1_2_6"  />
</g>
<g id="a1_007"  >
<polygon points="122,85 127,80 139,80 139,90 127,90 122,85 " style="fill:white; stroke-width:1; stroke:black; " description="&lt;b&gt;Achr_RS19615&lt;/b&gt;&lt;br&gt;efflux RND transporter periplasmic adaptor subunit&lt;br&gt;Location: 42650 - 41499" locus_tag="Achr_RS19615" class="clusterblast-orf" id="dummy-1_h1_2_7"  />
</g>
<g id="a1_008"  >
<polygon points="141,85 146,80 148,80 148,90 146,90 141,85 " style="fill:white; stroke-width:1; stroke:black; " description="&lt;b&gt;Achr_RS19610&lt;/b&gt;&lt;br&gt;DUF4880 domain-containing protein&lt;br&gt;Location: 41354 - 40938" locus_tag="Achr_RS19610" class="clusterblast-orf" id="dummy-1_h1_2_8"  />
</g>
<g id="a1_009"  >
<polygon points="152,90 156,85 152,80 152,90 " style="fill:#b1d815; stroke-width:1; stroke:black; " description="&lt;b&gt;Achr_RS19605&lt;/b&gt;&lt;br&gt;MbtH family NRPS accessory protein&lt;br&gt;Location: 40650 - 40408&lt;br&gt;&lt;br&gt;&lt;b&gt;BlastP hit with MCIC6FC_015400&lt;/b&gt;&lt;br&gt;Percentage identity: 66&lt;br&gt;Percentage coverage: 92&lt;br&gt;BLAST bit score: 93&lt;br&gt;E-value: 1.3e-19" locus_tag="Achr_RS19605" class="clusterblast-orf" id="dummy-1_h1_2_9"  />
</g>
<g id="a1_0010"  >
<polygon points="156,90 162,90 167,85 162,80 156,80 156,90 " style="fill:white; stroke-width:1; stroke:black; " description="&lt;b&gt;Achr_RS19600&lt;/b&gt;&lt;br&gt;thioesterase&lt;br&gt;Location: 40397 - 39660" locus_tag="Achr_RS19600" class="clusterblast-orf" id="dummy-1_h1_2_10"  />
</g>
<g id="a1_0011"  >
<polygon points="169,90 178,90 183,85 178,80 169,80 169,90 " style="fill:white; stroke-width:1; stroke:black; " description="&lt;b&gt;Achr_RS19595&lt;/b&gt;&lt;br&gt;hypothetical protein&lt;br&gt;Location: 39578 - 38601" locus_tag="Achr_RS19595" class="clusterblast-orf" id="dummy-1_h1_2_11"  />
</g>
<g id="a1_0012"  >
<polygon points="184,90 260,90 265,85 260,80 184,80 184,90 " style="fill:#1563d8; stroke-width:1; stroke:black; " description="&lt;b&gt;Achr_RS19590&lt;/b&gt;&lt;br&gt;non-ribosomal peptide synthetase&lt;br&gt;Location: 38572 - 33275&lt;br&gt;&lt;br&gt;&lt;b&gt;BlastP hit with MCIC6FC_015396&lt;/b&gt;&lt;br&gt;Percentage identity: 50&lt;br&gt;Percentage coverage: 40&lt;br&gt;BLAST bit score: 1579&lt;br&gt;E-value: 0.0" locus_tag="Achr_RS19590" class="clusterblast-orf" id="dummy-1_h1_2_12"  />
</g>
<g id="a1_0013"  >
<polygon points="265,90 329,90 334,85 329,80 265,80 265,90 " style="fill:white; stroke-width:1; stroke:black; " description="&lt;b&gt;Achr_RS19585&lt;/b&gt;&lt;br&gt;type I polyketide synthase&lt;br&gt;Location: 33278 - 28716" locus_tag="Achr_RS19585" class="clusterblast-orf" id="dummy-1_h1_2_13"  />
</g>
<g id="a1_0014"  >
<polygon points="341,90 387,90 392,85 387,80 341,80 341,90 " style="fill:white; stroke-width:1; stroke:black; " description="&lt;b&gt;Achr_RS19580&lt;/b&gt;&lt;br&gt;non-ribosomal peptide synthetase&lt;br&gt;Location: 28274 - 24948" locus_tag="Achr_RS19580" class="clusterblast-orf" id="dummy-1_h1_2_14"  />
</g>
<g id="a1_0015"  >
<polygon points="392,90 506,90 511,85 506,80 392,80 392,90 " style="fill:white; stroke-width:1; stroke:black; " description="&lt;b&gt;Achr_RS19575&lt;/b&gt;&lt;br&gt;non-ribosomal peptide synthetase&lt;br&gt;Location: 24944 - 17133" locus_tag="Achr_RS19575" class="clusterblast-orf" id="dummy-1_h1_2_15"  />
</g>
<g id="a1_0016"  >
<polygon points="511,90 568,90 573,85 568,80 511,80 511,90 " style="fill:white; stroke-width:1; stroke:black; " description="&lt;b&gt;Achr_RS19570&lt;/b&gt;&lt;br&gt;amino acid adenylation domain-containing protein&lt;br&gt;Location: 17136 - 13069" locus_tag="Achr_RS19570" class="clusterblast-orf" id="dummy-1_h1_2_16"  />
</g>
<g id="a1_0017"  >
<polygon points="576,85 581,80 611,80 611,90 581,90 576,85 " style="fill:white; stroke-width:1; stroke:black; " description="&lt;b&gt;Achr_RS19560&lt;/b&gt;&lt;br&gt;TonB-dependent siderophore receptor&lt;br&gt;Location: 12854 - 10590" locus_tag="Achr_RS19560" class="clusterblast-orf" id="dummy-1_h1_2_17"  />
</g>
<g id="a1_0018"  >
<polygon points="612,85 617,80 634,80 634,90 617,90 612,85 " style="fill:white; stroke-width:1; stroke:black; " description="&lt;b&gt;Achr_RS19555&lt;/b&gt;&lt;br&gt;aminotransferase class III-fold pyridoxal phosphate-dependent enzyme&lt;br&gt;Location: 10524 - 9082" locus_tag="Achr_RS19555" class="clusterblast-orf" id="dummy-1_h1_2_18"  />
</g>
<g id="a1_0019"  >
<polygon points="639,90 647,90 652,85 647,80 639,80 639,90 " style="fill:white; stroke-width:1; stroke:black; " description="&lt;b&gt;Achr_RS19550&lt;/b&gt;&lt;br&gt;N(5)-hydroxyornithine transformylase PvdF&lt;br&gt;Location: 8716 - 7892" locus_tag="Achr_RS19550" class="clusterblast-orf" id="dummy-1_h1_2_19"  />
</g>
<g id="a1_0020"  >
<polygon points="652,90 663,90 668,85 663,80 652,80 652,90 " style="fill:white; stroke-width:1; stroke:black; " description="&lt;b&gt;Achr_RS19545&lt;/b&gt;&lt;br&gt;histone deacetylase family protein&lt;br&gt;Location: 7879 - 6836" locus_tag="Achr_RS19545" class="clusterblast-orf" id="dummy-1_h1_2_20"  />
</g>
<g id="a1_0021"  >
<polygon points="671,90 703,90 708,85 703,80 671,80 671,90 " style="fill:white; stroke-width:1; stroke:black; " description="&lt;b&gt;Achr_RS19540&lt;/b&gt;&lt;br&gt;penicillin acylase family protein&lt;br&gt;Location: 6663 - 4234" locus_tag="Achr_RS19540" class="clusterblast-orf" id="dummy-1_h1_2_21"  />
</g>
<g id="a1_0022"  >
<polygon points="710,90 730,90 735,85 730,80 710,80 710,90 " style="fill:white; stroke-width:1; stroke:black; " description="&lt;b&gt;Achr_RS19535&lt;/b&gt;&lt;br&gt;cyclic peptide export ABC transporter&lt;br&gt;Location: 4102 - 2441" locus_tag="Achr_RS19535" class="clusterblast-orf" id="dummy-1_h1_2_22"  />
</g>
<g id="a1_0023"  >
<polygon points="735,90 750,90 755,85 750,80 735,80 735,90 " style="fill:white; stroke-width:1; stroke:black; " description="&lt;b&gt;Achr_RS19530&lt;/b&gt;&lt;br&gt;PepSY domain-containing protein&lt;br&gt;Location: 2444 - 1101" locus_tag="Achr_RS19530" class="clusterblast-orf" id="dummy-1_h1_2_23"  />
</g>
<g id="a1_0024"  >
<polygon points="756,90 760,85 756,80 756,90 " style="fill:white; stroke-width:1; stroke:black; " description="&lt;b&gt;Achr_RS25415&lt;/b&gt;&lt;br&gt;hypothetical protein&lt;br&gt;Location: 1033 - 813" locus_tag="Achr_RS25415" class="clusterblast-orf" id="dummy-1_h1_2_24"  />
</g>
<g id="a1_0025"  >
<polygon points="760,85 765,80 772,80 772,90 765,90 760,85 " style="fill:white; stroke-width:1; stroke:black; " description="&lt;b&gt;Achr_RS19525&lt;/b&gt;&lt;br&gt;ATP-binding cassette domain-containing protein&lt;br&gt;Location: 768 - 1" locus_tag="Achr_RS19525" class="clusterblast-orf" id="dummy-1_h1_2_25"  />
</g>
</svg>
