<svg xmlns="http://www.w3.org/2000/svg" xmlns:xlink="http://www.w3.org/1999/xlink" version="1.1" x="0" y="0" height="230" width="800" viewBox="0 0 800 230" preserveAspectRatio="none"  >
<g label="Query sequence" class="clusterblast-cluster"  >
<text x="5" y="20" class="clusterblast-acc"  >
Query sequence</text>
<line x1="10" y1="35" x2="778.0" y2="35" style="stroke-width:1; stroke:grey; "  />
<polygon points="0,35 5,30 86,30 86,40 5,40 0,35 " style="fill:white; stroke-width:1; stroke:black; " description="&lt;b&gt;MCIC6FC_007605&lt;/b&gt;&lt;br&gt;hypothetical protein&lt;br&gt;Location: 971776 - 975355" locus_tag="MCIC6FC_007605" class="clusterblast-orf" id="dummy-3_q0_0_all"  />
<polygon points="86,35 91,30 112,30 112,40 91,40 86,35 " style="fill:white; stroke-width:1; stroke:black; " description="&lt;b&gt;MCIC6FC_007606&lt;/b&gt;&lt;br&gt;hypothetical protein&lt;br&gt;Location: 975381 - 976467" locus_tag="MCIC6FC_007606" class="clusterblast-orf" id="dummy-3_q1_0_all"  />
<polygon points="119,40 135,40 140,35 135,30 119,30 119,40 " style="fill:white; stroke-width:1; stroke:black; " description="&lt;b&gt;MCIC6FC_007607&lt;/b&gt;&lt;br&gt;hypothetical protein&lt;br&gt;Location: 976754 - 977637" locus_tag="MCIC6FC_007607" class="clusterblast-orf" id="dummy-3_q2_0_all"  />
<polygon points="146,35 151,30 165,30 165,40 151,40 146,35 " style="fill:white; stroke-width:1; stroke:black; " description="&lt;b&gt;MCIC6FC_007608&lt;/b&gt;&lt;br&gt;hypothetical protein&lt;br&gt;Location: 977867 - 978682" locus_tag="MCIC6FC_007608" class="clusterblast-orf" id="dummy-3_q3_0_all"  />
<polygon points="169,40 189,40 194,35 189,30 169,30 169,40 " style="fill:white; stroke-width:1; stroke:black; " description="&lt;b&gt;MCIC6FC_007609&lt;/b&gt;&lt;br&gt;hypothetical protein&lt;br&gt;Location: 978819 - 979881" locus_tag="MCIC6FC_007609" class="clusterblast-orf" id="dummy-3_q4_0_all"  />
<polygon points="195,35 200,30 244,30 244,40 200,40 195,35 " style="fill:white; stroke-width:1; stroke:black; " description="&lt;b&gt;MCIC6FC_007610&lt;/b&gt;&lt;br&gt;hypothetical protein&lt;br&gt;Location: 979916 - 981955" locus_tag="MCIC6FC_007610" class="clusterblast-orf" id="dummy-3_q5_0_all"  />
<polygon points="248,40 265,40 270,35 265,30 248,30 248,40 " style="fill:white; stroke-width:1; stroke:black; " description="&lt;b&gt;MCIC6FC_007611&lt;/b&gt;&lt;br&gt;hypothetical protein&lt;br&gt;Location: 982143 - 983026" locus_tag="MCIC6FC_007611" class="clusterblast-orf" id="dummy-3_q6_0_all"  />
<polygon points="277,35 282,30 305,30 305,40 282,40 277,35 " style="fill:white; stroke-width:1; stroke:black; " description="&lt;b&gt;MCIC6FC_007612&lt;/b&gt;&lt;br&gt;hypothetical protein&lt;br&gt;Location: 983333 - 984520" locus_tag="MCIC6FC_007612" class="clusterblast-orf" id="dummy-3_q7_0_all"  />
<polygon points="311,40 317,40 322,35 317,30 311,30 311,40 " style="fill:white; stroke-width:1; stroke:black; " description="&lt;b&gt;MCIC6FC_007613&lt;/b&gt;&lt;br&gt;hypothetical protein&lt;br&gt;Location: 984737 - 985190" locus_tag="MCIC6FC_007613" class="clusterblast-orf" id="dummy-3_q8_0_all"  />
<polygon points="324,35 329,30 389,30 389,40 329,40 324,35 " style="fill:white; stroke-width:1; stroke:black; " description="&lt;b&gt;MCIC6FC_007614&lt;/b&gt;&lt;br&gt;hypothetical protein&lt;br&gt;Location: 985312 - 987989" locus_tag="MCIC6FC_007614" class="clusterblast-orf" id="dummy-3_q9_0_all"  />
<polygon points="390,35 395,30 458,30 458,40 395,40 390,35 " style="fill:white; stroke-width:1; stroke:black; " description="&lt;b&gt;MCIC6FC_007615&lt;/b&gt;&lt;br&gt;hypothetical protein&lt;br&gt;Location: 988056 - 990895" locus_tag="MCIC6FC_007615" class="clusterblast-orf" id="dummy-3_q10_0_all"  />
<polygon points="465,40 474,40 479,35 474,30 465,30 465,40 " style="fill:white; stroke-width:1; stroke:black; " description="&lt;b&gt;MCIC6FC_007616&lt;/b&gt;&lt;br&gt;hypothetical protein&lt;br&gt;Location: 991184 - 991775" locus_tag="MCIC6FC_007616" class="clusterblast-orf" id="dummy-3_q11_0_all"  />
<polygon points="481,35 486,30 497,30 497,40 486,40 481,35 " style="fill:white; stroke-width:1; stroke:black; " description="&lt;b&gt;MCIC6FC_007617&lt;/b&gt;&lt;br&gt;hypothetical protein&lt;br&gt;Location: 991824 - 992490" locus_tag="MCIC6FC_007617" class="clusterblast-orf" id="dummy-3_q12_0_all"  />
<polygon points="508,40 572,40 577,35 572,30 508,30 508,40 " style="fill:#d81515; stroke-width:1; stroke:black; " description="&lt;b&gt;MCIC6FC_007618&lt;/b&gt;&lt;br&gt;hypothetical protein&lt;br&gt;Location: 992981 - 995855" locus_tag="MCIC6FC_007618" class="clusterblast-orf" id="dummy-3_q13_0_all"  />
<polygon points="578,40 654,40 659,35 654,30 578,30 578,40 " style="fill:#15d8d8; stroke-width:1; stroke:black; " description="&lt;b&gt;MCIC6FC_007619&lt;/b&gt;&lt;br&gt;hypothetical protein&lt;br&gt;Location: 995875 - 999269" locus_tag="MCIC6FC_007619" class="clusterblast-orf" id="dummy-3_q14_0_all"  />
<polygon points="659,35 664,30 737,30 737,40 664,40 659,35 " style="fill:white; stroke-width:1; stroke:black; " description="&lt;b&gt;MCIC6FC_007620&lt;/b&gt;&lt;br&gt;hypothetical protein&lt;br&gt;Location: 999279 - 1002494" locus_tag="MCIC6FC_007620" class="clusterblast-orf" id="dummy-3_q15_0_all"  />
<polygon points="738,35 743,30 769,30 769,40 743,40 738,35 " style="fill:white; stroke-width:1; stroke:black; " description="&lt;b&gt;MCIC6FC_007621&lt;/b&gt;&lt;br&gt;hypothetical protein&lt;br&gt;Location: 1002561 - 1003827" locus_tag="MCIC6FC_007621" class="clusterblast-orf" id="dummy-3_q16_0_all"  />
<polygon points="770,35 775,30 780,30 780,40 775,40 770,35 " style="fill:white; stroke-width:1; stroke:black; " description="&lt;b&gt;MCIC6FC_007622&lt;/b&gt;&lt;br&gt;hypothetical protein&lt;br&gt;Location: 1003881 - 1004292" locus_tag="MCIC6FC_007622" class="clusterblast-orf" id="dummy-3_q17_0_all"  />
</g>
<g label="BGC0000934" description="BGC0000934_c1: 5-acetyl-5,10-dihydrophenazine-1-carboxylic acid / 5-(2-hydrox... (8% of genes show similarity), Other:Phenazine" class="clusterblast-cluster"  >
<text x="5" y="70" class="clusterblast-acc"  >
<a xlink:href="https://mibig.secondarymetabolites.org/go/BGC0000934/1" target="_blank">BGC0000934</a>: 5-acetyl-5,10-dihydrophenazine-1-carboxylic acid / 5-(2-hydroxyacetyl)-5,10-dihydrophenazine-1-carboxylic acid / endophenazine A1 / endophenazine F / endophenazine G (8% of genes show similarity), Other:Phenazine</text>
<line x1="10" y1="85" x2="778.0" y2="85" style="stroke-width:1; stroke:grey; "  />
</g>
<g id="a3_000"  >
<polygon points="91,85 96,80 132,80 132,90 96,90 91,85 " style="fill:white; stroke-width:1; stroke:black; " description="&lt;b&gt;AHW81482.1&lt;/b&gt;&lt;br&gt;hypothetical protein&lt;br&gt;Location: 25006 - 23297" locus_tag="AHW81482.1" class="clusterblast-orf" id="dummy-3_h3_5_0"  />
</g>
<g id="a3_001"  >
<polygon points="134,85 139,80 177,80 177,90 139,90 134,85 " style="fill:white; stroke-width:1; stroke:black; " description="&lt;b&gt;AHW81481.1&lt;/b&gt;&lt;br&gt;hypothetical protein&lt;br&gt;Location: 23207 - 21420" locus_tag="AHW81481.1" class="clusterblast-orf" id="dummy-3_h3_5_1"  />
</g>
<g id="a3_002"  >
<polygon points="179,85 184,80 205,80 205,90 184,90 179,85 " style="fill:white; stroke-width:1; stroke:black; " description="&lt;b&gt;AHW81480.1&lt;/b&gt;&lt;br&gt;EpaU&lt;br&gt;Location: 21337 - 20252" locus_tag="AHW81480.1" class="clusterblast-orf" id="dummy-3_h3_5_2"  />
</g>
<g id="a3_003"  >
<polygon points="207,85 212,80 238,80 238,90 212,90 207,85 " style="fill:white; stroke-width:1; stroke:black; " description="&lt;b&gt;AHW81479.1&lt;/b&gt;&lt;br&gt;EpaT&lt;br&gt;Location: 20191 - 18896" locus_tag="AHW81479.1" class="clusterblast-orf" id="dummy-3_h3_5_3"  />
</g>
<g id="a3_004"  >
<polygon points="244,90 261,90 266,85 261,80 244,80 244,90 " style="fill:white; stroke-width:1; stroke:black; " description="&lt;b&gt;AHW81478.1&lt;/b&gt;&lt;br&gt;EpaS&lt;br&gt;Location: 18641 - 17724" locus_tag="AHW81478.1" class="clusterblast-orf" id="dummy-3_h3_5_4"  />
</g>
<g id="a3_005"  >
<polygon points="272,90 275,90 280,85 275,80 272,80 272,90 " style="fill:white; stroke-width:1; stroke:black; " description="&lt;b&gt;AHW81477.1&lt;/b&gt;&lt;br&gt;EpaR&lt;br&gt;Location: 17474 - 17151" locus_tag="AHW81477.1" class="clusterblast-orf" id="dummy-3_h3_5_5"  />
</g>
<g id="a3_006"  >
<polygon points="280,90 305,90 310,85 305,80 280,80 280,90 " style="fill:white; stroke-width:1; stroke:black; " description="&lt;b&gt;AHW81476.1&lt;/b&gt;&lt;br&gt;EpaQ&lt;br&gt;Location: 17151 - 15886" locus_tag="AHW81476.1" class="clusterblast-orf" id="dummy-3_h3_5_6"  />
</g>
<g id="a3_007"  >
<polygon points="318,90 325,90 330,85 325,80 318,80 318,90 " style="fill:white; stroke-width:1; stroke:black; " description="&lt;b&gt;AHW81475.1&lt;/b&gt;&lt;br&gt;EpaP&lt;br&gt;Location: 15554 - 15066" locus_tag="AHW81475.1" class="clusterblast-orf" id="dummy-3_h3_5_7"  />
</g>
<g id="a3_008"  >
<polygon points="331,90 354,90 359,85 354,80 331,80 331,90 " style="fill:#d81515; stroke-width:1; stroke:black; " description="&lt;b&gt;AHW81474.1&lt;/b&gt;&lt;br&gt;EpaO&lt;br&gt;Location: 15029 - 13854&lt;br&gt;&lt;br&gt;&lt;b&gt;BlastP hit with MCIC6FC_007618&lt;/b&gt;&lt;br&gt;Percentage identity: 59&lt;br&gt;Percentage coverage: 42&lt;br&gt;BLAST bit score: 455&lt;br&gt;E-value: 2.7e-127" locus_tag="AHW81474.1" class="clusterblast-orf" id="dummy-3_h3_5_8"  />
</g>
<g id="a3_009"  >
<polygon points="361,90 371,90 376,85 371,80 361,80 361,90 " style="fill:white; stroke-width:1; stroke:black; " description="&lt;b&gt;AHW81473.1&lt;/b&gt;&lt;br&gt;EpaN&lt;br&gt;Location: 13761 - 13138" locus_tag="AHW81473.1" class="clusterblast-orf" id="dummy-3_h3_5_9"  />
</g>
<g id="a3_0010"  >
<polygon points="376,90 419,90 424,85 419,80 376,80 376,90 " style="fill:#15d8d8; stroke-width:1; stroke:black; " description="&lt;b&gt;AHW81472.1&lt;/b&gt;&lt;br&gt;EpaM&lt;br&gt;Location: 13141 - 11129&lt;br&gt;&lt;br&gt;&lt;b&gt;BlastP hit with MCIC6FC_007619&lt;/b&gt;&lt;br&gt;Percentage identity: 62&lt;br&gt;Percentage coverage: 55&lt;br&gt;BLAST bit score: 765&lt;br&gt;E-value: 1.2e-220" locus_tag="AHW81472.1" class="clusterblast-orf" id="dummy-3_h3_5_10"  />
</g>
<g id="a3_0011"  >
<polygon points="429,90 444,90 449,85 444,80 429,80 429,90 " style="fill:white; stroke-width:1; stroke:black; " description="&lt;b&gt;AHW81471.1&lt;/b&gt;&lt;br&gt;EpaL&lt;br&gt;Location: 10949 - 10113" locus_tag="AHW81471.1" class="clusterblast-orf" id="dummy-3_h3_5_11"  />
</g>
<g id="a3_0012"  >
<polygon points="448,90 460,90 465,85 460,80 448,80 448,90 " style="fill:white; stroke-width:1; stroke:black; " description="&lt;b&gt;AHW81470.1&lt;/b&gt;&lt;br&gt;EpaK&lt;br&gt;Location: 10120 - 9425" locus_tag="AHW81470.1" class="clusterblast-orf" id="dummy-3_h3_5_12"  />
</g>
<g id="a3_0013"  >
<polygon points="466,90 473,90 478,85 473,80 466,80 466,90 " style="fill:white; stroke-width:1; stroke:black; " description="&lt;b&gt;AHW81469.1&lt;/b&gt;&lt;br&gt;EpaJ&lt;br&gt;Location: 9369 - 8887" locus_tag="AHW81469.1" class="clusterblast-orf" id="dummy-3_h3_5_13"  />
</g>
<g id="a3_0014"  >
<polygon points="479,90 489,90 494,85 489,80 479,80 479,90 " style="fill:white; stroke-width:1; stroke:black; " description="&lt;b&gt;AHW81468.1&lt;/b&gt;&lt;br&gt;EpaI&lt;br&gt;Location: 8836 - 8213" locus_tag="AHW81468.1" class="clusterblast-orf" id="dummy-3_h3_5_14"  />
</g>
<g id="a3_0015"  >
<polygon points="495,90 498,85 495,80 495,90 " style="fill:white; stroke-width:1; stroke:black; " description="&lt;b&gt;AHW81467.1&lt;/b&gt;&lt;br&gt;EpaH&lt;br&gt;Location: 8189 - 8034" locus_tag="AHW81467.1" class="clusterblast-orf" id="dummy-3_h3_5_15"  />
</g>
<g id="a3_0016"  >
<polygon points="503,85 508,80 531,80 531,90 508,90 503,85 " style="fill:white; stroke-width:1; stroke:black; " description="&lt;b&gt;AHW81466.1&lt;/b&gt;&lt;br&gt;EpaG&lt;br&gt;Location: 7859 - 6684" locus_tag="AHW81466.1" class="clusterblast-orf" id="dummy-3_h3_5_16"  />
</g>
<g id="a3_0017"  >
<polygon points="531,85 536,80 556,80 556,90 536,90 531,85 " style="fill:white; stroke-width:1; stroke:black; " description="&lt;b&gt;AHW81465.1&lt;/b&gt;&lt;br&gt;EpaF&lt;br&gt;Location: 6681 - 5623" locus_tag="AHW81465.1" class="clusterblast-orf" id="dummy-3_h3_5_17"  />
</g>
<g id="a3_0018"  >
<polygon points="556,85 561,80 582,80 582,90 561,90 556,85 " style="fill:white; stroke-width:1; stroke:black; " description="&lt;b&gt;AHW81464.1&lt;/b&gt;&lt;br&gt;EpaE&lt;br&gt;Location: 5626 - 4544" locus_tag="AHW81464.1" class="clusterblast-orf" id="dummy-3_h3_5_18"  />
</g>
<g id="a3_0019"  >
<polygon points="582,85 587,80 612,80 612,90 587,90 582,85 " style="fill:white; stroke-width:1; stroke:black; " description="&lt;b&gt;AHW81463.1&lt;/b&gt;&lt;br&gt;EpaD&lt;br&gt;Location: 4547 - 3297" locus_tag="AHW81463.1" class="clusterblast-orf" id="dummy-3_h3_5_19"  />
</g>
<g id="a3_0020"  >
<polygon points="612,85 617,80 637,80 637,90 617,90 612,85 " style="fill:white; stroke-width:1; stroke:black; " description="&lt;b&gt;AHW81462.1&lt;/b&gt;&lt;br&gt;EpaC&lt;br&gt;Location: 3300 - 2239" locus_tag="AHW81462.1" class="clusterblast-orf" id="dummy-3_h3_5_20"  />
</g>
<g id="a3_0021"  >
<polygon points="637,85 642,80 662,80 662,90 642,90 637,85 " style="fill:white; stroke-width:1; stroke:black; " description="&lt;b&gt;AHW81461.1&lt;/b&gt;&lt;br&gt;EpaB&lt;br&gt;Location: 2249 - 1212" locus_tag="AHW81461.1" class="clusterblast-orf" id="dummy-3_h3_5_21"  />
</g>
<g id="a3_0022"  >
<polygon points="666,85 671,80 688,80 688,90 671,90 666,85 " style="fill:white; stroke-width:1; stroke:black; " description="&lt;b&gt;AHW81460.1&lt;/b&gt;&lt;br&gt;EpaA&lt;br&gt;Location: 1058 - 147" locus_tag="AHW81460.1" class="clusterblast-orf" id="dummy-3_h3_5_22"  />
</g>
</svg>
