<svg xmlns="http://www.w3.org/2000/svg" xmlns:xlink="http://www.w3.org/1999/xlink" version="1.1" x="0" y="0" height="230" width="800" viewBox="0 0 800 230" preserveAspectRatio="none"  >
<g label="Query sequence" class="clusterblast-cluster"  >
<text x="5" y="20" class="clusterblast-acc"  >
Query sequence</text>
<line x1="10" y1="35" x2="778.0" y2="35" style="stroke-width:1; stroke:grey; "  />
<polygon points="0,40 261,40 266,35 261,30 0,30 0,40 " style="fill:#d81515; stroke-width:1; stroke:black; " description="&lt;b&gt;MCIC6FC_014563&lt;/b&gt;&lt;br&gt;hypothetical protein&lt;br&gt;Location: 12765 - 15620" locus_tag="MCIC6FC_014563" class="clusterblast-orf" id="dummy-1_q0_0_all"  />
<polygon points="272,40 480,40 485,35 480,30 272,30 272,40 " style="fill:#15d815; stroke-width:1; stroke:black; " description="&lt;b&gt;MCIC6FC_014564&lt;/b&gt;&lt;br&gt;hypothetical protein&lt;br&gt;Location: 15681 - 17977" locus_tag="MCIC6FC_014564" class="clusterblast-orf" id="dummy-1_q1_0_all"  />
<polygon points="492,40 775,40 780,35 775,30 492,30 492,40 " style="fill:#1515d8; stroke-width:1; stroke:black; " description="&lt;b&gt;MCIC6FC_014565&lt;/b&gt;&lt;br&gt;hypothetical protein&lt;br&gt;Location: 18054 - 21151" locus_tag="MCIC6FC_014565" class="clusterblast-orf" id="dummy-1_q2_0_all"  />
</g>
<g label="BGC0001453" description="BGC0001453_c1: desferrioxamine (50% of genes show similarity), Other" class="clusterblast-cluster"  >
<text x="5" y="70" class="clusterblast-acc"  >
<a xlink:href="https://mibig.secondarymetabolites.org/go/BGC0001453/1" target="_blank">BGC0001453</a>:                                                                  desferrioxamine (50% of genes show similarity), Other</text>
<line x1="10" y1="85" x2="778.0" y2="85" style="stroke-width:1; stroke:grey; "  />
</g>
<g id="a1_000"  >
<polygon points="53,90 146,90 151,85 146,80 53,80 53,90 " style="fill:white; stroke-width:1; stroke:black; " description="&lt;b&gt;desaE&lt;/b&gt;&lt;br&gt;ABC transporter substrate-binding protein&lt;br&gt;Location: 1 - 1050" locus_tag="desaE" class="clusterblast-orf" id="dummy-1_h1_4_0"  />
</g>
<g id="a1_001"  >
<polygon points="187,90 234,90 239,85 234,80 187,80 187,90 " style="fill:white; stroke-width:1; stroke:black; " description="&lt;b&gt;desaF&lt;/b&gt;&lt;br&gt;siderophore-interacting protein&lt;br&gt;Location: 1440 - 1997" locus_tag="desaF" class="clusterblast-orf" id="dummy-1_h1_4_1"  />
</g>
<g id="a1_002"  >
<polygon points="255,90 384,90 389,85 384,80 255,80 255,90 " style="fill:#d81515; stroke-width:1; stroke:black; " description="&lt;b&gt;desaA&lt;/b&gt;&lt;br&gt;pyridoxal 5-phosfate (PLP)-dependen lysine decarboxylase&lt;br&gt;Location: 2172 - 3614&lt;br&gt;&lt;br&gt;&lt;b&gt;BlastP hit with MCIC6FC_014563&lt;/b&gt;&lt;br&gt;Percentage identity: 52&lt;br&gt;Percentage coverage: 52&lt;br&gt;BLAST bit score: 507&lt;br&gt;E-value: 6.2e-143" locus_tag="desaA" class="clusterblast-orf" id="dummy-1_h1_4_2"  />
</g>
<g id="a1_003"  >
<polygon points="388,90 503,90 508,85 503,80 388,80 388,90 " style="fill:#d81515; stroke-width:1; stroke:black; " description="&lt;b&gt;desaB&lt;/b&gt;&lt;br&gt;FAD-dependent monooxygenase&lt;br&gt;Location: 3598 - 4890&lt;br&gt;&lt;br&gt;&lt;b&gt;BlastP hit with MCIC6FC_014563&lt;/b&gt;&lt;br&gt;Percentage identity: 56&lt;br&gt;Percentage coverage: 46&lt;br&gt;BLAST bit score: 497&lt;br&gt;E-value: 3.8e-140" locus_tag="desaB" class="clusterblast-orf" id="dummy-1_h1_4_3"  />
</g>
<g id="a1_004"  >
<polygon points="508,90 554,90 559,85 554,80 508,80 508,90 " style="fill:white; stroke-width:1; stroke:black; " description="&lt;b&gt;desaC&lt;/b&gt;&lt;br&gt;N-acetyltransferase&lt;br&gt;Location: 4887 - 5438" locus_tag="desaC" class="clusterblast-orf" id="dummy-1_h1_4_4"  />
</g>
<g id="a1_005"  >
<polygon points="559,90 721,90 726,85 721,80 559,80 559,90 " style="fill:#15d815; stroke-width:1; stroke:black; " description="&lt;b&gt;desaD&lt;/b&gt;&lt;br&gt;NTP-dependent siderophore synthetase&lt;br&gt;Location: 5435 - 7234&lt;br&gt;&lt;br&gt;&lt;b&gt;BlastP hit with MCIC6FC_014564&lt;/b&gt;&lt;br&gt;Percentage identity: 52&lt;br&gt;Percentage coverage: 79&lt;br&gt;BLAST bit score: 616&lt;br&gt;E-value: 5.8e-176" locus_tag="desaD" class="clusterblast-orf" id="dummy-1_h1_4_5"  />
</g>
</svg>
