<svg xmlns="http://www.w3.org/2000/svg" xmlns:xlink="http://www.w3.org/1999/xlink" version="1.1" x="0" y="0" height="230" width="800" viewBox="0 0 800 230" preserveAspectRatio="none"  >
<g label="Query sequence" class="clusterblast-cluster"  >
<text x="5" y="20" class="clusterblast-acc"  >
Query sequence</text>
<line x1="10" y1="35" x2="778.0" y2="35" style="stroke-width:1; stroke:grey; "  />
<polygon points="167,40 314,40 319,35 314,30 167,30 167,40 " style="fill:#d81515; stroke-width:1; stroke:black; " description="&lt;b&gt;MCIC6FC_014563&lt;/b&gt;&lt;br&gt;hypothetical protein&lt;br&gt;Location: 12765 - 15620" locus_tag="MCIC6FC_014563" class="clusterblast-orf" id="dummy-1_q0_0_all"  />
<polygon points="322,40 439,40 444,35 439,30 322,30 322,40 " style="fill:#15d815; stroke-width:1; stroke:black; " description="&lt;b&gt;MCIC6FC_014564&lt;/b&gt;&lt;br&gt;hypothetical protein&lt;br&gt;Location: 15681 - 17977" locus_tag="MCIC6FC_014564" class="clusterblast-orf" id="dummy-1_q1_0_all"  />
<polygon points="448,40 608,40 613,35 608,30 448,30 448,40 " style="fill:#1515d8; stroke-width:1; stroke:black; " description="&lt;b&gt;MCIC6FC_014565&lt;/b&gt;&lt;br&gt;hypothetical protein&lt;br&gt;Location: 18054 - 21151" locus_tag="MCIC6FC_014565" class="clusterblast-orf" id="dummy-1_q2_0_all"  />
</g>
<g label="BGC0001870" description="BGC0001870_c1: putrebactin / avaroferrin (40% of genes show similarity), Other" class="clusterblast-cluster"  >
<text x="5" y="70" class="clusterblast-acc"  >
<a xlink:href="https://mibig.secondarymetabolites.org/go/BGC0001870/1" target="_blank">BGC0001870</a>:                                                        putrebactin / avaroferrin (40% of genes show similarity), Other</text>
<line x1="10" y1="85" x2="778.0" y2="85" style="stroke-width:1; stroke:grey; "  />
</g>
<g id="a1_000"  >
<polygon points="0,90 91,90 96,85 91,80 0,80 0,90 " style="fill:#15d815; stroke-width:1; stroke:black; " description="&lt;b&gt;Xbud_00361&lt;/b&gt;&lt;br&gt;desferrioxamine siderophore biosynthesis protein dfoC&lt;br&gt;Location: 1 - 1812&lt;br&gt;&lt;br&gt;&lt;b&gt;BlastP hit with MCIC6FC_014564&lt;/b&gt;&lt;br&gt;Percentage identity: 53&lt;br&gt;Percentage coverage: 78&lt;br&gt;BLAST bit score: 621&lt;br&gt;E-value: 1.8e-177" locus_tag="Xbud_00361" class="clusterblast-orf" id="dummy-1_h1_2_0"  />
</g>
<g id="a1_001"  >
<polygon points="100,90 213,90 218,85 213,80 100,80 100,90 " style="fill:white; stroke-width:1; stroke:black; " description="&lt;b&gt;Xbud_00362&lt;/b&gt;&lt;br&gt;ferric alcaligin siderophore receptor&lt;br&gt;Location: 1895 - 4108" locus_tag="Xbud_00362" class="clusterblast-orf" id="dummy-1_h1_2_1"  />
</g>
<g id="a1_002"  >
<polygon points="222,90 273,90 278,85 273,80 222,80 222,90 " style="fill:white; stroke-width:1; stroke:black; " description="&lt;b&gt;Xbud_00363&lt;/b&gt;&lt;br&gt;putative lipoprotein&lt;br&gt;Location: 4176 - 5234" locus_tag="Xbud_00363" class="clusterblast-orf" id="dummy-1_h1_2_2"  />
</g>
<g id="a1_003"  >
<polygon points="277,90 326,90 331,85 326,80 277,80 277,90 " style="fill:white; stroke-width:1; stroke:black; " description="&lt;b&gt;Xbud_00364&lt;/b&gt;&lt;br&gt;hypothetical protein&lt;br&gt;Location: 5221 - 6231" locus_tag="Xbud_00364" class="clusterblast-orf" id="dummy-1_h1_2_3"  />
</g>
<g id="a1_004"  >
<polygon points="331,90 382,90 387,85 382,80 331,80 331,90 " style="fill:white; stroke-width:1; stroke:black; " description="&lt;b&gt;Xbud_00365&lt;/b&gt;&lt;br&gt;putative ferrichrome ABC transporter permease&lt;br&gt;Location: 6236 - 7288" locus_tag="Xbud_00365" class="clusterblast-orf" id="dummy-1_h1_2_4"  />
</g>
<g id="a1_005"  >
<polygon points="387,90 426,90 431,85 426,80 387,80 387,90 " style="fill:white; stroke-width:1; stroke:black; " description="&lt;b&gt;Xbud_00366&lt;/b&gt;&lt;br&gt;hypothetical protein&lt;br&gt;Location: 7288 - 8103" locus_tag="Xbud_00366" class="clusterblast-orf" id="dummy-1_h1_2_5"  />
</g>
<g id="a1_006"  >
<polygon points="431,90 467,90 472,85 467,80 431,80 431,90 " style="fill:white; stroke-width:1; stroke:black; " description="&lt;b&gt;Xbud_00367&lt;/b&gt;&lt;br&gt;putative iron transport-related membrane protein&lt;br&gt;Location: 8105 - 8872" locus_tag="Xbud_00367" class="clusterblast-orf" id="dummy-1_h1_2_6"  />
</g>
<g id="a1_007"  >
<polygon points="494,90 575,90 580,85 575,80 494,80 494,90 " style="fill:#d81515; stroke-width:1; stroke:black; " description="&lt;b&gt;Xbud_00368&lt;/b&gt;&lt;br&gt;putative decarboxylase involved in desferrioxamine biosynthesis&lt;br&gt;Location: 9291 - 10907&lt;br&gt;&lt;br&gt;&lt;b&gt;BlastP hit with MCIC6FC_014563&lt;/b&gt;&lt;br&gt;Percentage identity: 57&lt;br&gt;Percentage coverage: 51&lt;br&gt;BLAST bit score: 561&lt;br&gt;E-value: 2.1e-159" locus_tag="Xbud_00368" class="clusterblast-orf" id="dummy-1_h1_2_7"  />
</g>
<g id="a1_008"  >
<polygon points="581,90 647,90 652,85 647,80 581,80 581,90 " style="fill:#d81515; stroke-width:1; stroke:black; " description="&lt;b&gt;Xbud_00369&lt;/b&gt;&lt;br&gt;L-lysine 6-monooxygenase involved in desferrioxamine biosynthesis&lt;br&gt;Location: 10934 - 12253&lt;br&gt;&lt;br&gt;&lt;b&gt;BlastP hit with MCIC6FC_014563&lt;/b&gt;&lt;br&gt;Percentage identity: 64&lt;br&gt;Percentage coverage: 47&lt;br&gt;BLAST bit score: 597&lt;br&gt;E-value: 4.5e-170" locus_tag="Xbud_00369" class="clusterblast-orf" id="dummy-1_h1_2_8"  />
</g>
<g id="a1_009"  >
<polygon points="652,90 775,90 780,85 775,80 652,80 652,90 " style="fill:#15d815; stroke-width:1; stroke:black; " description="&lt;b&gt;Xbud_00370&lt;/b&gt;&lt;br&gt;desferrioxamine siderophore biosynthesis protein dfoC&lt;br&gt;Location: 12253 - 14658&lt;br&gt;&lt;br&gt;&lt;b&gt;BlastP hit with MCIC6FC_014564&lt;/b&gt;&lt;br&gt;Percentage identity: 52&lt;br&gt;Percentage coverage: 103&lt;br&gt;BLAST bit score: 827&lt;br&gt;E-value: 1.3e-239" locus_tag="Xbud_00370" class="clusterblast-orf" id="dummy-1_h1_2_9"  />
</g>
</svg>
