<svg xmlns="http://www.w3.org/2000/svg" xmlns:xlink="http://www.w3.org/1999/xlink" version="1.1" x="0" y="0" height="50" width="800" viewBox="0 0 800 50" preserveAspectRatio="none"  >
<g label="Query sequence" class="clusterblast-cluster"  >
<text x="5" y="20" class="clusterblast-acc"  >
Query sequence</text>
<line x1="10" y1="35" x2="778.0" y2="35" style="stroke-width:1; stroke:grey; "  />
<polygon points="0,35 5,30 26,30 26,40 5,40 0,35 " style="fill:white; stroke-width:1; stroke:black; " description="&lt;b&gt;MCIC6FC_009770&lt;/b&gt;&lt;br&gt;hypothetical protein&lt;br&gt;Location: 290 - 699" locus_tag="MCIC6FC_009770" class="clusterblast-orf" id="knownclusterblast-1_q0_0_all"  />
<polygon points="79,35 84,30 290,30 290,40 84,40 79,35 " style="fill:white; stroke-width:1; stroke:black; " description="&lt;b&gt;MCIC6FC_009771&lt;/b&gt;&lt;br&gt;hypothetical protein&lt;br&gt;Location: 1547 - 4931" locus_tag="MCIC6FC_009771" class="clusterblast-orf" id="knownclusterblast-1_q1_0_all"  />
<polygon points="349,35 354,30 452,30 452,40 354,40 349,35 " style="fill:white; stroke-width:1; stroke:black; " description="&lt;b&gt;MCIC6FC_009772&lt;/b&gt;&lt;br&gt;hypothetical protein&lt;br&gt;Location: 5866 - 7516" locus_tag="MCIC6FC_009772" class="clusterblast-orf" id="knownclusterblast-1_q2_0_all"  />
<polygon points="567,35 572,30 665,30 665,40 572,40 567,35 " style="fill:white; stroke-width:1; stroke:black; " description="&lt;b&gt;MCIC6FC_009773&lt;/b&gt;&lt;br&gt;hypothetical protein&lt;br&gt;Location: 9357 - 10920" locus_tag="MCIC6FC_009773" class="clusterblast-orf" id="knownclusterblast-1_q3_0_all"  />
<polygon points="668,40 775,40 780,35 775,30 668,30 668,40 " style="fill:white; stroke-width:1; stroke:black; " description="&lt;b&gt;MCIC6FC_009774&lt;/b&gt;&lt;br&gt;hypothetical protein&lt;br&gt;Location: 10967 - 12763" locus_tag="MCIC6FC_009774" class="clusterblast-orf" id="knownclusterblast-1_q4_0_all"  />
</g>
</svg>
