<svg xmlns="http://www.w3.org/2000/svg" xmlns:xlink="http://www.w3.org/1999/xlink" version="1.1" x="0" y="0" height="230" width="800" viewBox="0 0 800 230" preserveAspectRatio="none"  >
<g label="Query sequence" class="clusterblast-cluster"  >
<text x="5" y="20" class="clusterblast-acc"  >
Query sequence</text>
<line x1="10" y1="35" x2="778.0" y2="35" style="stroke-width:1; stroke:grey; "  />
<polygon points="0,35 5,30 6,30 6,40 5,40 0,35 " style="fill:white; stroke-width:1; stroke:black; " description="&lt;b&gt;MCIC6FC_018480&lt;/b&gt;&lt;br&gt;hypothetical protein&lt;br&gt;Location: 40369 - 41275" locus_tag="MCIC6FC_018480" class="clusterblast-orf" id="dummy-1_q0_0_all"  />
<polygon points="9,40 19,40 24,35 19,30 9,30 9,40 " style="fill:white; stroke-width:1; stroke:black; " description="&lt;b&gt;MCIC6FC_018481&lt;/b&gt;&lt;br&gt;hypothetical protein&lt;br&gt;Location: 41686 - 43743" locus_tag="MCIC6FC_018481" class="clusterblast-orf" id="dummy-1_q1_0_all"  />
<polygon points="25,35 30,30 42,30 42,40 30,40 25,35 " style="fill:white; stroke-width:1; stroke:black; " description="&lt;b&gt;MCIC6FC_018482&lt;/b&gt;&lt;br&gt;hypothetical protein&lt;br&gt;Location: 43880 - 46147" locus_tag="MCIC6FC_018482" class="clusterblast-orf" id="dummy-1_q2_0_all"  />
<polygon points="42,40 44,40 49,35 44,30 42,30 42,40 " style="fill:white; stroke-width:1; stroke:black; " description="&lt;b&gt;MCIC6FC_018483&lt;/b&gt;&lt;br&gt;hypothetical protein&lt;br&gt;Location: 46260 - 47154" locus_tag="MCIC6FC_018483" class="clusterblast-orf" id="dummy-1_q3_0_all"  />
<polygon points="50,35 55,30 67,30 67,40 55,40 50,35 " style="fill:#d81515; stroke-width:1; stroke:black; " description="&lt;b&gt;MCIC6FC_018484&lt;/b&gt;&lt;br&gt;hypothetical protein&lt;br&gt;Location: 47233 - 49612" locus_tag="MCIC6FC_018484" class="clusterblast-orf" id="dummy-1_q4_0_all"  />
<polygon points="67,35 72,30 77,30 77,40 72,40 67,35 " style="fill:white; stroke-width:1; stroke:black; " description="&lt;b&gt;MCIC6FC_018485&lt;/b&gt;&lt;br&gt;hypothetical protein&lt;br&gt;Location: 49634 - 50993" locus_tag="MCIC6FC_018485" class="clusterblast-orf" id="dummy-1_q5_0_all"  />
<polygon points="78,40 79,40 84,35 79,30 78,30 78,40 " style="fill:#5cd815; stroke-width:1; stroke:black; " description="&lt;b&gt;MCIC6FC_018486&lt;/b&gt;&lt;br&gt;hypothetical protein&lt;br&gt;Location: 51132 - 52029" locus_tag="MCIC6FC_018486" class="clusterblast-orf" id="dummy-1_q6_0_all"  />
<polygon points="85,40 96,40 101,35 96,30 85,30 85,40 " style="fill:#15a3d8; stroke-width:1; stroke:black; " description="&lt;b&gt;MCIC6FC_018487&lt;/b&gt;&lt;br&gt;hypothetical protein&lt;br&gt;Location: 52166 - 54331" locus_tag="MCIC6FC_018487" class="clusterblast-orf" id="dummy-1_q7_0_all"  />
<polygon points="102,35 107,30 109,30 109,40 107,40 102,35 " style="fill:white; stroke-width:1; stroke:black; " description="&lt;b&gt;MCIC6FC_018488&lt;/b&gt;&lt;br&gt;hypothetical protein&lt;br&gt;Location: 54373 - 55450" locus_tag="MCIC6FC_018488" class="clusterblast-orf" id="dummy-1_q8_0_all"  />
<polygon points="110,40 111,40 116,35 111,30 110,30 110,40 " style="fill:white; stroke-width:1; stroke:black; " description="&lt;b&gt;MCIC6FC_018489&lt;/b&gt;&lt;br&gt;hypothetical protein&lt;br&gt;Location: 55551 - 56322" locus_tag="MCIC6FC_018489" class="clusterblast-orf" id="dummy-1_q9_0_all"  />
<polygon points="116,35 121,30 123,30 123,40 121,40 116,35 " style="fill:#c715d8; stroke-width:1; stroke:black; " description="&lt;b&gt;MCIC6FC_018490&lt;/b&gt;&lt;br&gt;hypothetical protein&lt;br&gt;Location: 56326 - 57332" locus_tag="MCIC6FC_018490" class="clusterblast-orf" id="dummy-1_q10_0_all"  />
<polygon points="124,40 134,40 139,35 134,30 124,30 124,40 " style="fill:#d88015; stroke-width:1; stroke:black; " description="&lt;b&gt;MCIC6FC_018491&lt;/b&gt;&lt;br&gt;hypothetical protein&lt;br&gt;Location: 57455 - 59520" locus_tag="MCIC6FC_018491" class="clusterblast-orf" id="dummy-1_q11_0_all"  />
<polygon points="140,35 145,30 162,30 162,40 145,40 140,35 " style="fill:#15d839; stroke-width:1; stroke:black; " description="&lt;b&gt;MCIC6FC_018492&lt;/b&gt;&lt;br&gt;hypothetical protein&lt;br&gt;Location: 59589 - 62673" locus_tag="MCIC6FC_018492" class="clusterblast-orf" id="dummy-1_q12_0_all"  />
<polygon points="163,35 168,30 342,30 342,40 168,40 163,35 " style="fill:#1539d8; stroke-width:1; stroke:black; " description="&lt;b&gt;MCIC6FC_018493&lt;/b&gt;&lt;br&gt;hypothetical protein&lt;br&gt;Location: 62865 - 87322" locus_tag="MCIC6FC_018493" class="clusterblast-orf" id="dummy-1_q13_0_all"  />
<polygon points="343,35 348,30 355,30 355,40 348,40 343,35 " style="fill:#d81580; stroke-width:1; stroke:black; " description="&lt;b&gt;MCIC6FC_018494&lt;/b&gt;&lt;br&gt;hypothetical protein&lt;br&gt;Location: 87575 - 89201" locus_tag="MCIC6FC_018494" class="clusterblast-orf" id="dummy-1_q14_0_all"  />
<polygon points="356,40 377,40 382,35 377,30 356,30 356,40 " style="fill:white; stroke-width:1; stroke:black; " description="&lt;b&gt;MCIC6FC_018495&lt;/b&gt;&lt;br&gt;hypothetical protein&lt;br&gt;Location: 89338 - 92879" locus_tag="MCIC6FC_018495" class="clusterblast-orf" id="dummy-1_q15_0_all"  />
<polygon points="383,35 388,30 389,30 389,40 388,40 383,35 " style="fill:#c7d815; stroke-width:1; stroke:black; " description="&lt;b&gt;MCIC6FC_018496&lt;/b&gt;&lt;br&gt;hypothetical protein&lt;br&gt;Location: 93004 - 93837" locus_tag="MCIC6FC_018496" class="clusterblast-orf" id="dummy-1_q16_0_all"  />
<polygon points="390,40 397,40 402,35 397,30 390,30 390,40 " style="fill:#15d8a3; stroke-width:1; stroke:black; " description="&lt;b&gt;MCIC6FC_018497&lt;/b&gt;&lt;br&gt;hypothetical protein&lt;br&gt;Location: 94038 - 95691" locus_tag="MCIC6FC_018497" class="clusterblast-orf" id="dummy-1_q17_0_all"  />
<polygon points="404,40 416,40 421,35 416,30 404,30 404,40 " style="fill:white; stroke-width:1; stroke:black; " description="&lt;b&gt;MCIC6FC_018498&lt;/b&gt;&lt;br&gt;hypothetical protein&lt;br&gt;Location: 95846 - 98231" locus_tag="MCIC6FC_018498" class="clusterblast-orf" id="dummy-1_q18_0_all"  />
<polygon points="422,35 427,30 554,30 554,40 427,40 422,35 " style="fill:#5c15d8; stroke-width:1; stroke:black; " description="&lt;b&gt;MCIC6FC_018499&lt;/b&gt;&lt;br&gt;hypothetical protein&lt;br&gt;Location: 98383 - 116494" locus_tag="MCIC6FC_018499" class="clusterblast-orf" id="dummy-1_q19_0_all"  />
<polygon points="555,35 560,30 646,30 646,40 560,40 555,35 " style="fill:#5c15d8; stroke-width:1; stroke:black; " description="&lt;b&gt;MCIC6FC_018500&lt;/b&gt;&lt;br&gt;hypothetical protein&lt;br&gt;Location: 116593 - 129094" locus_tag="MCIC6FC_018500" class="clusterblast-orf" id="dummy-1_q20_0_all"  />
<polygon points="646,35 651,30 664,30 664,40 651,40 646,35 " style="fill:white; stroke-width:1; stroke:black; " description="&lt;b&gt;MCIC6FC_018501&lt;/b&gt;&lt;br&gt;hypothetical protein&lt;br&gt;Location: 129176 - 131553" locus_tag="MCIC6FC_018501" class="clusterblast-orf" id="dummy-1_q21_0_all"  />
<polygon points="664,35 669,30 674,30 674,40 669,40 664,35 " style="fill:white; stroke-width:1; stroke:black; " description="&lt;b&gt;MCIC6FC_018502&lt;/b&gt;&lt;br&gt;hypothetical protein&lt;br&gt;Location: 131556 - 132906" locus_tag="MCIC6FC_018502" class="clusterblast-orf" id="dummy-1_q22_0_all"  />
<polygon points="674,35 679,30 683,30 683,40 679,40 674,35 " style="fill:white; stroke-width:1; stroke:black; " description="&lt;b&gt;MCIC6FC_018503&lt;/b&gt;&lt;br&gt;hypothetical protein&lt;br&gt;Location: 132965 - 134195" locus_tag="MCIC6FC_018503" class="clusterblast-orf" id="dummy-1_q23_0_all"  />
<polygon points="685,40 692,40 697,35 692,30 685,30 685,40 " style="fill:white; stroke-width:1; stroke:black; " description="&lt;b&gt;MCIC6FC_018504&lt;/b&gt;&lt;br&gt;hypothetical protein&lt;br&gt;Location: 134427 - 136068" locus_tag="MCIC6FC_018504" class="clusterblast-orf" id="dummy-1_q24_0_all"  />
<polygon points="697,35 702,30 702,30 702,40 702,40 697,35 " style="fill:white; stroke-width:1; stroke:black; " description="&lt;b&gt;MCIC6FC_018505&lt;/b&gt;&lt;br&gt;hypothetical protein&lt;br&gt;Location: 136093 - 136805" locus_tag="MCIC6FC_018505" class="clusterblast-orf" id="dummy-1_q25_0_all"  />
<polygon points="703,40 708,40 713,35 708,30 703,30 703,40 " style="fill:white; stroke-width:1; stroke:black; " description="&lt;b&gt;MCIC6FC_018506&lt;/b&gt;&lt;br&gt;hypothetical protein&lt;br&gt;Location: 136909 - 138265" locus_tag="MCIC6FC_018506" class="clusterblast-orf" id="dummy-1_q26_0_all"  />
<polygon points="714,40 729,40 734,35 729,30 714,30 714,40 " style="fill:white; stroke-width:1; stroke:black; " description="&lt;b&gt;MCIC6FC_018507&lt;/b&gt;&lt;br&gt;hypothetical protein&lt;br&gt;Location: 138444 - 141153" locus_tag="MCIC6FC_018507" class="clusterblast-orf" id="dummy-1_q27_0_all"  />
<polygon points="734,35 739,30 749,30 749,40 739,40 734,35 " style="fill:white; stroke-width:1; stroke:black; " description="&lt;b&gt;MCIC6FC_018508&lt;/b&gt;&lt;br&gt;hypothetical protein&lt;br&gt;Location: 141248 - 143227" locus_tag="MCIC6FC_018508" class="clusterblast-orf" id="dummy-1_q28_0_all"  />
<polygon points="749,35 754,30 780,30 780,40 754,40 749,35 " style="fill:white; stroke-width:1; stroke:black; " description="&lt;b&gt;MCIC6FC_018509&lt;/b&gt;&lt;br&gt;hypothetical protein&lt;br&gt;Location: 143237 - 147464" locus_tag="MCIC6FC_018509" class="clusterblast-orf" id="dummy-1_q29_0_all"  />
</g>
<g label="BGC0002001" description="BGC0002001_c1: crochelin A (7% of genes show similarity), NRP + Polyketide" class="clusterblast-cluster"  >
<text x="5" y="70" class="clusterblast-acc"  >
<a xlink:href="https://mibig.secondarymetabolites.org/go/BGC0002001/1" target="_blank">BGC0002001</a>:                                                                      crochelin A (7% of genes show similarity), NRP + Polyketide</text>
<line x1="10" y1="85" x2="778.0" y2="85" style="stroke-width:1; stroke:grey; "  />
</g>
<g id="a1_000"  >
<polygon points="207,90 207,90 212,85 207,80 207,80 207,90 " style="fill:white; stroke-width:1; stroke:black; " description="&lt;b&gt;Achr_RS19525&lt;/b&gt;&lt;br&gt;ATP-binding cassette domain-containing protein&lt;br&gt;Location: 1 - 768" locus_tag="Achr_RS19525" class="clusterblast-orf" id="dummy-1_h1_3_0"  />
</g>
<g id="a1_001"  >
<polygon points="213,85 214,80 214,90 213,85 " style="fill:white; stroke-width:1; stroke:black; " description="&lt;b&gt;Achr_RS25415&lt;/b&gt;&lt;br&gt;hypothetical protein&lt;br&gt;Location: 813 - 1033" locus_tag="Achr_RS25415" class="clusterblast-orf" id="dummy-1_h1_3_1"  />
</g>
<g id="a1_002"  >
<polygon points="215,85 220,80 225,80 225,90 220,90 215,85 " style="fill:white; stroke-width:1; stroke:black; " description="&lt;b&gt;Achr_RS19530&lt;/b&gt;&lt;br&gt;PepSY domain-containing protein&lt;br&gt;Location: 1101 - 2444" locus_tag="Achr_RS19530" class="clusterblast-orf" id="dummy-1_h1_3_2"  />
</g>
<g id="a1_003"  >
<polygon points="225,85 230,80 237,80 237,90 230,90 225,85 " style="fill:white; stroke-width:1; stroke:black; " description="&lt;b&gt;Achr_RS19535&lt;/b&gt;&lt;br&gt;cyclic peptide export ABC transporter&lt;br&gt;Location: 2441 - 4102" locus_tag="Achr_RS19535" class="clusterblast-orf" id="dummy-1_h1_3_3"  />
</g>
<g id="a1_004"  >
<polygon points="238,85 243,80 255,80 255,90 243,90 238,85 " style="fill:white; stroke-width:1; stroke:black; " description="&lt;b&gt;Achr_RS19540&lt;/b&gt;&lt;br&gt;penicillin acylase family protein&lt;br&gt;Location: 4234 - 6663" locus_tag="Achr_RS19540" class="clusterblast-orf" id="dummy-1_h1_3_4"  />
</g>
<g id="a1_005"  >
<polygon points="257,85 262,80 264,80 264,90 262,90 257,85 " style="fill:white; stroke-width:1; stroke:black; " description="&lt;b&gt;Achr_RS19545&lt;/b&gt;&lt;br&gt;histone deacetylase family protein&lt;br&gt;Location: 6836 - 7879" locus_tag="Achr_RS19545" class="clusterblast-orf" id="dummy-1_h1_3_5"  />
</g>
<g id="a1_006"  >
<polygon points="264,85 269,80 270,80 270,90 269,90 264,85 " style="fill:#c7d815; stroke-width:1; stroke:black; " description="&lt;b&gt;Achr_RS19550&lt;/b&gt;&lt;br&gt;N(5)-hydroxyornithine transformylase PvdF&lt;br&gt;Location: 7892 - 8716&lt;br&gt;&lt;br&gt;&lt;b&gt;BlastP hit with MCIC6FC_018496&lt;/b&gt;&lt;br&gt;Percentage identity: 63&lt;br&gt;Percentage coverage: 107&lt;br&gt;BLAST bit score: 336&lt;br&gt;E-value: 4e-92" locus_tag="Achr_RS19550" class="clusterblast-orf" id="dummy-1_h1_3_6"  />
</g>
<g id="a1_007"  >
<polygon points="273,90 278,90 283,85 278,80 273,80 273,90 " style="fill:white; stroke-width:1; stroke:black; " description="&lt;b&gt;Achr_RS19555&lt;/b&gt;&lt;br&gt;aminotransferase class III-fold pyridoxal phosphate-dependent enzyme&lt;br&gt;Location: 9082 - 10524" locus_tag="Achr_RS19555" class="clusterblast-orf" id="dummy-1_h1_3_7"  />
</g>
<g id="a1_008"  >
<polygon points="284,90 295,90 300,85 295,80 284,80 284,90 " style="fill:white; stroke-width:1; stroke:black; " description="&lt;b&gt;Achr_RS19560&lt;/b&gt;&lt;br&gt;TonB-dependent siderophore receptor&lt;br&gt;Location: 10590 - 12854" locus_tag="Achr_RS19560" class="clusterblast-orf" id="dummy-1_h1_3_8"  />
</g>
<g id="a1_009"  >
<polygon points="302,85 307,80 332,80 332,90 307,90 302,85 " style="fill:white; stroke-width:1; stroke:black; " description="&lt;b&gt;Achr_RS19570&lt;/b&gt;&lt;br&gt;amino acid adenylation domain-containing protein&lt;br&gt;Location: 13069 - 17136" locus_tag="Achr_RS19570" class="clusterblast-orf" id="dummy-1_h1_3_9"  />
</g>
<g id="a1_0010"  >
<polygon points="332,85 337,80 388,80 388,90 337,90 332,85 " style="fill:#5c15d8; stroke-width:1; stroke:black; " description="&lt;b&gt;Achr_RS19575&lt;/b&gt;&lt;br&gt;non-ribosomal peptide synthetase&lt;br&gt;Location: 17133 - 24944&lt;br&gt;&lt;br&gt;&lt;b&gt;BlastP hit with MCIC6FC_018499&lt;/b&gt;&lt;br&gt;Percentage identity: 46&lt;br&gt;Percentage coverage: 44&lt;br&gt;BLAST bit score: 2008&lt;br&gt;E-value: 0.0&lt;br&gt;&lt;br&gt;&lt;b&gt;BlastP hit with MCIC6FC_018500&lt;/b&gt;&lt;br&gt;Percentage identity: 46&lt;br&gt;Percentage coverage: 67&lt;br&gt;BLAST bit score: 2064&lt;br&gt;E-value: 0.0" locus_tag="Achr_RS19575" class="clusterblast-orf" id="dummy-1_h1_3_10"  />
</g>
<g id="a1_0011"  >
<polygon points="388,85 393,80 413,80 413,90 393,90 388,85 " style="fill:white; stroke-width:1; stroke:black; " description="&lt;b&gt;Achr_RS19580&lt;/b&gt;&lt;br&gt;non-ribosomal peptide synthetase&lt;br&gt;Location: 24948 - 28274" locus_tag="Achr_RS19580" class="clusterblast-orf" id="dummy-1_h1_3_11"  />
</g>
<g id="a1_0012"  >
<polygon points="416,85 421,80 449,80 449,90 421,90 416,85 " style="fill:white; stroke-width:1; stroke:black; " description="&lt;b&gt;Achr_RS19585&lt;/b&gt;&lt;br&gt;type I polyketide synthase&lt;br&gt;Location: 28716 - 33278" locus_tag="Achr_RS19585" class="clusterblast-orf" id="dummy-1_h1_3_12"  />
</g>
<g id="a1_0013"  >
<polygon points="449,85 454,80 488,80 488,90 454,90 449,85 " style="fill:white; stroke-width:1; stroke:black; " description="&lt;b&gt;Achr_RS19590&lt;/b&gt;&lt;br&gt;non-ribosomal peptide synthetase&lt;br&gt;Location: 33275 - 38572" locus_tag="Achr_RS19590" class="clusterblast-orf" id="dummy-1_h1_3_13"  />
</g>
<g id="a1_0014"  >
<polygon points="488,85 493,80 495,80 495,90 493,90 488,85 " style="fill:white; stroke-width:1; stroke:black; " description="&lt;b&gt;Achr_RS19595&lt;/b&gt;&lt;br&gt;hypothetical protein&lt;br&gt;Location: 38601 - 39578" locus_tag="Achr_RS19595" class="clusterblast-orf" id="dummy-1_h1_3_14"  />
</g>
<g id="a1_0015"  >
<polygon points="496,85 501,80 501,80 501,90 501,90 496,85 " style="fill:white; stroke-width:1; stroke:black; " description="&lt;b&gt;Achr_RS19600&lt;/b&gt;&lt;br&gt;thioesterase&lt;br&gt;Location: 39660 - 40397" locus_tag="Achr_RS19600" class="clusterblast-orf" id="dummy-1_h1_3_15"  />
</g>
<g id="a1_0016"  >
<polygon points="501,85 503,80 503,90 501,85 " style="fill:white; stroke-width:1; stroke:black; " description="&lt;b&gt;Achr_RS19605&lt;/b&gt;&lt;br&gt;MbtH family NRPS accessory protein&lt;br&gt;Location: 40408 - 40650" locus_tag="Achr_RS19605" class="clusterblast-orf" id="dummy-1_h1_3_16"  />
</g>
<g id="a1_0017"  >
<polygon points="505,90 508,85 505,80 505,90 " style="fill:white; stroke-width:1; stroke:black; " description="&lt;b&gt;Achr_RS19610&lt;/b&gt;&lt;br&gt;DUF4880 domain-containing protein&lt;br&gt;Location: 40938 - 41354" locus_tag="Achr_RS19610" class="clusterblast-orf" id="dummy-1_h1_3_17"  />
</g>
<g id="a1_0018"  >
<polygon points="509,90 512,90 517,85 512,80 509,80 509,90 " style="fill:white; stroke-width:1; stroke:black; " description="&lt;b&gt;Achr_RS19615&lt;/b&gt;&lt;br&gt;efflux RND transporter periplasmic adaptor subunit&lt;br&gt;Location: 41499 - 42650" locus_tag="Achr_RS19615" class="clusterblast-orf" id="dummy-1_h1_3_18"  />
</g>
<g id="a1_0019"  >
<polygon points="518,90 523,90 528,85 523,80 518,80 518,90 " style="fill:white; stroke-width:1; stroke:black; " description="&lt;b&gt;Achr_RS19620&lt;/b&gt;&lt;br&gt;efflux transporter outer membrane subunit&lt;br&gt;Location: 42738 - 44171" locus_tag="Achr_RS19620" class="clusterblast-orf" id="dummy-1_h1_3_19"  />
</g>
<g id="a1_0020"  >
<polygon points="530,90 534,85 530,80 530,90 " style="fill:white; stroke-width:1; stroke:black; " description="&lt;b&gt;Achr_RS19625&lt;/b&gt;&lt;br&gt;RNA polymerase factor sigma-70&lt;br&gt;Location: 44415 - 44960" locus_tag="Achr_RS19625" class="clusterblast-orf" id="dummy-1_h1_3_20"  />
</g>
<g id="a1_0021"  >
<polygon points="536,90 538,85 536,80 536,90 " style="fill:white; stroke-width:1; stroke:black; " description="&lt;b&gt;Achr_RS19630&lt;/b&gt;&lt;br&gt;hypothetical protein&lt;br&gt;Location: 45166 - 45540" locus_tag="Achr_RS19630" class="clusterblast-orf" id="dummy-1_h1_3_21"  />
</g>
<g id="a1_0022"  >
<polygon points="540,85 545,80 550,80 550,90 545,90 540,85 " style="fill:white; stroke-width:1; stroke:black; " description="&lt;b&gt;Achr_RS19635&lt;/b&gt;&lt;br&gt;lysine N(6)-hydroxylase/L-ornithine N(5)-oxygenase family protein&lt;br&gt;Location: 45792 - 47093" locus_tag="Achr_RS19635" class="clusterblast-orf" id="dummy-1_h1_3_22"  />
</g>
<g id="a1_0023"  >
<polygon points="551,85 554,80 554,90 551,85 " style="fill:white; stroke-width:1; stroke:black; " description="&lt;b&gt;Achr_RS19640&lt;/b&gt;&lt;br&gt;hypothetical protein&lt;br&gt;Location: 47222 - 47743" locus_tag="Achr_RS19640" class="clusterblast-orf" id="dummy-1_h1_3_23"  />
</g>
<g id="a1_0024"  >
<polygon points="555,85 560,80 570,80 570,90 560,90 555,85 " style="fill:white; stroke-width:1; stroke:black; " description="&lt;b&gt;Achr_RS24430&lt;/b&gt;&lt;br&gt;non-ribosomal peptide synthetase&lt;br&gt;Location: 47794 - 49899" locus_tag="Achr_RS24430" class="clusterblast-orf" id="dummy-1_h1_3_24"  />
</g>
<g id="a1_0025"  >
<polygon points="571,85 572,80 572,90 571,85 " style="fill:white; stroke-width:1; stroke:black; " description="&lt;b&gt;Achr_RS19650&lt;/b&gt;&lt;br&gt;MbtH family protein&lt;br&gt;Location: 49972 - 50175" locus_tag="Achr_RS19650" class="clusterblast-orf" id="dummy-1_h1_3_25"  />
</g>
</svg>
