<svg xmlns="http://www.w3.org/2000/svg" xmlns:xlink="http://www.w3.org/1999/xlink" version="1.1" x="0" y="0" height="230" width="800" viewBox="0 0 800 230" preserveAspectRatio="none"  >
<g label="Query sequence" class="clusterblast-cluster"  >
<text x="5" y="20" class="clusterblast-acc"  >
Query sequence</text>
<line x1="10" y1="35" x2="778.0" y2="35" style="stroke-width:1; stroke:grey; "  />
<polygon points="0,40 261,40 266,35 261,30 0,30 0,40 " style="fill:#d81515; stroke-width:1; stroke:black; " description="&lt;b&gt;MCIC6FC_014563&lt;/b&gt;&lt;br&gt;hypothetical protein&lt;br&gt;Location: 12765 - 15620" locus_tag="MCIC6FC_014563" class="clusterblast-orf" id="dummy-1_q0_0_all"  />
<polygon points="272,40 480,40 485,35 480,30 272,30 272,40 " style="fill:#15d815; stroke-width:1; stroke:black; " description="&lt;b&gt;MCIC6FC_014564&lt;/b&gt;&lt;br&gt;hypothetical protein&lt;br&gt;Location: 15681 - 17977" locus_tag="MCIC6FC_014564" class="clusterblast-orf" id="dummy-1_q1_0_all"  />
<polygon points="492,40 775,40 780,35 775,30 492,30 492,40 " style="fill:#1515d8; stroke-width:1; stroke:black; " description="&lt;b&gt;MCIC6FC_014565&lt;/b&gt;&lt;br&gt;hypothetical protein&lt;br&gt;Location: 18054 - 21151" locus_tag="MCIC6FC_014565" class="clusterblast-orf" id="dummy-1_q2_0_all"  />
</g>
<g label="BGC0000940" description="BGC0000940_c1: desferrioxamin B / desferrioxamine E (50% of genes show similarity), Other" class="clusterblast-cluster"  >
<text x="5" y="70" class="clusterblast-acc"  >
<a xlink:href="https://mibig.secondarymetabolites.org/go/BGC0000940/1" target="_blank">BGC0000940</a>:                                             desferrioxamin B / desferrioxamine E (50% of genes show similarity), Other</text>
<line x1="10" y1="85" x2="778.0" y2="85" style="stroke-width:1; stroke:grey; "  />
</g>
<g id="a1_000"  >
<polygon points="49,90 141,90 146,85 141,80 49,80 49,90 " style="fill:white; stroke-width:1; stroke:black; " description="&lt;b&gt;CAB87217.1&lt;/b&gt;&lt;br&gt;Ferric-siderophore lipoprotein receptor&lt;br&gt;Location: 1 - 1050" locus_tag="CAB87217.1" class="clusterblast-orf" id="dummy-1_h1_6_0"  />
</g>
<g id="a1_001"  >
<polygon points="167,90 241,90 246,85 241,80 167,80 167,90 " style="fill:white; stroke-width:1; stroke:black; " description="&lt;b&gt;CAB87218.1&lt;/b&gt;&lt;br&gt;Ferric-siderophore hydrolase&lt;br&gt;Location: 1278 - 2123" locus_tag="CAB87218.1" class="clusterblast-orf" id="dummy-1_h1_6_1"  />
</g>
<g id="a1_002"  >
<polygon points="261,90 390,90 395,85 390,80 261,80 261,90 " style="fill:#d81515; stroke-width:1; stroke:black; " description="&lt;b&gt;CAB87219.1&lt;/b&gt;&lt;br&gt;putative pyridoxal-dependent decarboxylase&lt;br&gt;Location: 2287 - 3729&lt;br&gt;&lt;br&gt;&lt;b&gt;BlastP hit with MCIC6FC_014563&lt;/b&gt;&lt;br&gt;Percentage identity: 53&lt;br&gt;Percentage coverage: 52&lt;br&gt;BLAST bit score: 496&lt;br&gt;E-value: 8.4e-140" locus_tag="CAB87219.1" class="clusterblast-orf" id="dummy-1_h1_6_2"  />
</g>
<g id="a1_003"  >
<polygon points="398,90 508,90 513,85 508,80 398,80 398,90 " style="fill:#d81515; stroke-width:1; stroke:black; " description="&lt;b&gt;CAB87220.1&lt;/b&gt;&lt;br&gt;putative monooxygenase&lt;br&gt;Location: 3752 - 4993&lt;br&gt;&lt;br&gt;&lt;b&gt;BlastP hit with MCIC6FC_014563&lt;/b&gt;&lt;br&gt;Percentage identity: 55&lt;br&gt;Percentage coverage: 45&lt;br&gt;BLAST bit score: 482&lt;br&gt;E-value: 1.6e-135" locus_tag="CAB87220.1" class="clusterblast-orf" id="dummy-1_h1_6_3"  />
</g>
<g id="a1_004"  >
<polygon points="513,90 559,90 564,85 559,80 513,80 513,90 " style="fill:white; stroke-width:1; stroke:black; " description="&lt;b&gt;CAB87221.1&lt;/b&gt;&lt;br&gt;Acyl CoA acyl transferase&lt;br&gt;Location: 4990 - 5544" locus_tag="CAB87221.1" class="clusterblast-orf" id="dummy-1_h1_6_4"  />
</g>
<g id="a1_005"  >
<polygon points="564,90 725,90 730,85 725,80 564,80 564,90 " style="fill:#15d815; stroke-width:1; stroke:black; " description="&lt;b&gt;CAB87222.1&lt;/b&gt;&lt;br&gt;ATP-dependent siderophore synthetase (IucA-IucC family)&lt;br&gt;Location: 5541 - 7328&lt;br&gt;&lt;br&gt;&lt;b&gt;BlastP hit with MCIC6FC_014564&lt;/b&gt;&lt;br&gt;Percentage identity: 53&lt;br&gt;Percentage coverage: 78&lt;br&gt;BLAST bit score: 622&lt;br&gt;E-value: 1.1e-177" locus_tag="CAB87222.1" class="clusterblast-orf" id="dummy-1_h1_6_5"  />
</g>
</svg>
