<svg xmlns="http://www.w3.org/2000/svg" xmlns:xlink="http://www.w3.org/1999/xlink" version="1.1" x="0" y="0" height="50" width="800" viewBox="0 0 800 50" preserveAspectRatio="none"  >
<g label="Query sequence" class="clusterblast-cluster"  >
<text x="5" y="20" class="clusterblast-acc"  >
Query sequence</text>
<line x1="10" y1="35" x2="778.0" y2="35" style="stroke-width:1; stroke:grey; "  />
<polygon points="0,35 5,30 47,30 47,40 5,40 0,35 " style="fill:white; stroke-width:1; stroke:black; " description="&lt;b&gt;MCIC6FC_008038&lt;/b&gt;&lt;br&gt;hypothetical protein&lt;br&gt;Location: 163889 - 165503" locus_tag="MCIC6FC_008038" class="clusterblast-orf" id="knownclusterblast-1_q0_0_all"  />
<polygon points="51,35 56,30 70,30 70,40 56,40 51,35 " style="fill:white; stroke-width:1; stroke:black; " description="&lt;b&gt;MCIC6FC_008039&lt;/b&gt;&lt;br&gt;hypothetical protein&lt;br&gt;Location: 165609 - 166281" locus_tag="MCIC6FC_008039" class="clusterblast-orf" id="knownclusterblast-1_q1_0_all"  />
<polygon points="73,35 78,30 91,30 91,40 78,40 73,35 " style="fill:white; stroke-width:1; stroke:black; " description="&lt;b&gt;MCIC6FC_008040&lt;/b&gt;&lt;br&gt;hypothetical protein&lt;br&gt;Location: 166378 - 166978" locus_tag="MCIC6FC_008040" class="clusterblast-orf" id="knownclusterblast-1_q2_0_all"  />
<polygon points="94,40 116,40 121,35 116,30 94,30 94,40 " style="fill:white; stroke-width:1; stroke:black; " description="&lt;b&gt;MCIC6FC_008041&lt;/b&gt;&lt;br&gt;hypothetical protein&lt;br&gt;Location: 167081 - 167996" locus_tag="MCIC6FC_008041" class="clusterblast-orf" id="knownclusterblast-1_q3_0_all"  />
<polygon points="121,35 126,30 184,30 184,40 126,40 121,35 " style="fill:white; stroke-width:1; stroke:black; " description="&lt;b&gt;MCIC6FC_008042&lt;/b&gt;&lt;br&gt;hypothetical protein&lt;br&gt;Location: 168006 - 170121" locus_tag="MCIC6FC_008042" class="clusterblast-orf" id="knownclusterblast-1_q4_0_all"  />
<polygon points="185,35 190,30 349,30 349,40 190,40 185,35 " style="fill:white; stroke-width:1; stroke:black; " description="&lt;b&gt;MCIC6FC_008043&lt;/b&gt;&lt;br&gt;hypothetical protein&lt;br&gt;Location: 170144 - 175701" locus_tag="MCIC6FC_008043" class="clusterblast-orf" id="knownclusterblast-1_q5_0_all"  />
<polygon points="359,40 363,40 368,35 363,30 359,30 359,40 " style="fill:white; stroke-width:1; stroke:black; " description="&lt;b&gt;MCIC6FC_008044&lt;/b&gt;&lt;br&gt;hypothetical protein&lt;br&gt;Location: 176041 - 176344" locus_tag="MCIC6FC_008044" class="clusterblast-orf" id="knownclusterblast-1_q6_0_all"  />
<polygon points="377,35 382,30 463,30 463,40 382,40 377,35 " style="fill:white; stroke-width:1; stroke:black; " description="&lt;b&gt;MCIC6FC_008045&lt;/b&gt;&lt;br&gt;hypothetical protein&lt;br&gt;Location: 176636 - 179560" locus_tag="MCIC6FC_008045" class="clusterblast-orf" id="knownclusterblast-1_q7_0_all"  />
<polygon points="470,40 505,40 510,35 505,30 470,30 470,40 " style="fill:white; stroke-width:1; stroke:black; " description="&lt;b&gt;MCIC6FC_008046&lt;/b&gt;&lt;br&gt;hypothetical protein&lt;br&gt;Location: 179802 - 181149" locus_tag="MCIC6FC_008046" class="clusterblast-orf" id="knownclusterblast-1_q8_0_all"  />
<polygon points="515,35 520,30 599,30 599,40 520,40 515,35 " style="fill:white; stroke-width:1; stroke:black; " description="&lt;b&gt;MCIC6FC_008047&lt;/b&gt;&lt;br&gt;hypothetical protein&lt;br&gt;Location: 181305 - 184152" locus_tag="MCIC6FC_008047" class="clusterblast-orf" id="knownclusterblast-1_q9_0_all"  />
<polygon points="605,40 609,40 614,35 609,30 605,30 605,40 " style="fill:white; stroke-width:1; stroke:black; " description="&lt;b&gt;MCIC6FC_008048&lt;/b&gt;&lt;br&gt;hypothetical protein&lt;br&gt;Location: 184371 - 184666" locus_tag="MCIC6FC_008048" class="clusterblast-orf" id="knownclusterblast-1_q10_0_all"  />
<polygon points="615,35 620,30 705,30 705,40 620,40 615,35 " style="fill:white; stroke-width:1; stroke:black; " description="&lt;b&gt;MCIC6FC_008049&lt;/b&gt;&lt;br&gt;hypothetical protein&lt;br&gt;Location: 184709 - 187762" locus_tag="MCIC6FC_008049" class="clusterblast-orf" id="knownclusterblast-1_q11_0_all"  />
<polygon points="736,35 741,30 780,30 780,40 741,40 736,35 " style="fill:white; stroke-width:1; stroke:black; " description="&lt;b&gt;MCIC6FC_008050&lt;/b&gt;&lt;br&gt;hypothetical protein&lt;br&gt;Location: 188804 - 190280" locus_tag="MCIC6FC_008050" class="clusterblast-orf" id="knownclusterblast-1_q12_0_all"  />
</g>
</svg>
