<svg xmlns="http://www.w3.org/2000/svg" xmlns:xlink="http://www.w3.org/1999/xlink" version="1.1" x="0" y="0" height="230" width="800" viewBox="0 0 800 230" preserveAspectRatio="none"  >
<g label="Query sequence" class="clusterblast-cluster"  >
<text x="5" y="20" class="clusterblast-acc"  >
Query sequence</text>
<line x1="10" y1="35" x2="778.0" y2="35" style="stroke-width:1; stroke:grey; "  />
<polygon points="202,35 207,30 212,30 212,40 207,40 202,35 " style="fill:#d81515; stroke-width:1; stroke:black; " description="&lt;b&gt;MCIC6FC_005786&lt;/b&gt;&lt;br&gt;hypothetical protein&lt;br&gt;Location: 1910200 - 1912388" locus_tag="MCIC6FC_005786" class="clusterblast-orf" id="dummy-3_q0_0_all"  />
<polygon points="213,40 228,40 233,35 228,30 213,30 213,40 " style="fill:#54d815; stroke-width:1; stroke:black; " description="&lt;b&gt;MCIC6FC_005787&lt;/b&gt;&lt;br&gt;hypothetical protein&lt;br&gt;Location: 1912502 - 1917042" locus_tag="MCIC6FC_005787" class="clusterblast-orf" id="dummy-3_q1_0_all"  />
<polygon points="234,35 239,30 241,30 241,40 239,40 234,35 " style="fill:#15c1d8; stroke-width:1; stroke:black; " description="&lt;b&gt;MCIC6FC_005788&lt;/b&gt;&lt;br&gt;hypothetical protein&lt;br&gt;Location: 1917174 - 1918868" locus_tag="MCIC6FC_005788" class="clusterblast-orf" id="dummy-3_q2_0_all"  />
<polygon points="242,40 249,40 254,35 249,30 242,30 242,40 " style="fill:#8215d8; stroke-width:1; stroke:black; " description="&lt;b&gt;MCIC6FC_005789&lt;/b&gt;&lt;br&gt;hypothetical protein&lt;br&gt;Location: 1919075 - 1921770" locus_tag="MCIC6FC_005789" class="clusterblast-orf" id="dummy-3_q3_0_all"  />
<polygon points="254,40 258,35 254,30 254,40 " style="fill:#d84415; stroke-width:1; stroke:black; " description="&lt;b&gt;MCIC6FC_005790&lt;/b&gt;&lt;br&gt;hypothetical protein&lt;br&gt;Location: 1921817 - 1922711" locus_tag="MCIC6FC_005790" class="clusterblast-orf" id="dummy-3_q4_0_all"  />
<polygon points="258,35 263,30 263,30 263,40 263,40 258,35 " style="fill:#25d815; stroke-width:1; stroke:black; " description="&lt;b&gt;MCIC6FC_005791&lt;/b&gt;&lt;br&gt;hypothetical protein&lt;br&gt;Location: 1922765 - 1923740" locus_tag="MCIC6FC_005791" class="clusterblast-orf" id="dummy-3_q5_0_all"  />
<polygon points="263,40 278,40 283,35 278,30 263,30 263,40 " style="fill:#1592d8; stroke-width:1; stroke:black; " description="&lt;b&gt;MCIC6FC_005792&lt;/b&gt;&lt;br&gt;hypothetical protein&lt;br&gt;Location: 1923829 - 1928328" locus_tag="MCIC6FC_005792" class="clusterblast-orf" id="dummy-3_q6_0_all"  />
<polygon points="284,35 289,30 422,30 422,40 289,40 284,35 " style="fill:#b115d8; stroke-width:1; stroke:black; " description="&lt;b&gt;MCIC6FC_005793&lt;/b&gt;&lt;br&gt;hypothetical protein&lt;br&gt;Location: 1928467 - 1959441" locus_tag="MCIC6FC_005793" class="clusterblast-orf" id="dummy-3_q7_0_all"  />
<polygon points="423,40 427,35 423,30 423,40 " style="fill:#d87315; stroke-width:1; stroke:black; " description="&lt;b&gt;MCIC6FC_005794&lt;/b&gt;&lt;br&gt;hypothetical protein&lt;br&gt;Location: 1959602 - 1960571" locus_tag="MCIC6FC_005794" class="clusterblast-orf" id="dummy-3_q8_0_all"  />
<polygon points="427,35 432,30 436,30 436,40 432,40 427,35 " style="fill:#15d834; stroke-width:1; stroke:black; " description="&lt;b&gt;MCIC6FC_005795&lt;/b&gt;&lt;br&gt;hypothetical protein&lt;br&gt;Location: 1960675 - 1962660" locus_tag="MCIC6FC_005795" class="clusterblast-orf" id="dummy-3_q9_0_all"  />
<polygon points="437,40 439,35 437,30 437,40 " style="fill:#1563d8; stroke-width:1; stroke:black; " description="&lt;b&gt;MCIC6FC_005796&lt;/b&gt;&lt;br&gt;hypothetical protein&lt;br&gt;Location: 1962795 - 1963383" locus_tag="MCIC6FC_005796" class="clusterblast-orf" id="dummy-3_q10_0_all"  />
<polygon points="440,40 444,35 440,30 440,40 " style="fill:#d815d0; stroke-width:1; stroke:black; " description="&lt;b&gt;MCIC6FC_005797&lt;/b&gt;&lt;br&gt;hypothetical protein&lt;br&gt;Location: 1963495 - 1964296" locus_tag="MCIC6FC_005797" class="clusterblast-orf" id="dummy-3_q11_0_all"  />
<polygon points="444,40 471,40 476,35 471,30 444,30 444,40 " style="fill:white; stroke-width:1; stroke:black; " description="&lt;b&gt;MCIC6FC_005798&lt;/b&gt;&lt;br&gt;hypothetical protein&lt;br&gt;Location: 1964348 - 1971527" locus_tag="MCIC6FC_005798" class="clusterblast-orf" id="dummy-3_q12_0_all"  />
<polygon points="476,35 480,30 480,40 476,35 " style="fill:#d8a215; stroke-width:1; stroke:black; " description="&lt;b&gt;MCIC6FC_005799&lt;/b&gt;&lt;br&gt;hypothetical protein&lt;br&gt;Location: 1971536 - 1972520" locus_tag="MCIC6FC_005799" class="clusterblast-orf" id="dummy-3_q13_0_all"  />
<polygon points="481,40 484,35 481,30 481,40 " style="fill:#15d863; stroke-width:1; stroke:black; " description="&lt;b&gt;MCIC6FC_005800&lt;/b&gt;&lt;br&gt;hypothetical protein&lt;br&gt;Location: 1972612 - 1973299" locus_tag="MCIC6FC_005800" class="clusterblast-orf" id="dummy-3_q14_0_all"  />
<polygon points="484,35 485,30 485,40 484,35 " style="fill:#1534d8; stroke-width:1; stroke:black; " description="&lt;b&gt;MCIC6FC_005801&lt;/b&gt;&lt;br&gt;hypothetical protein&lt;br&gt;Location: 1973303 - 1973648" locus_tag="MCIC6FC_005801" class="clusterblast-orf" id="dummy-3_q15_0_all"  />
<polygon points="485,35 488,30 488,40 485,35 " style="fill:#d815a2; stroke-width:1; stroke:black; " description="&lt;b&gt;MCIC6FC_005802&lt;/b&gt;&lt;br&gt;hypothetical protein&lt;br&gt;Location: 1973672 - 1974304" locus_tag="MCIC6FC_005802" class="clusterblast-orf" id="dummy-3_q16_0_all"  />
<polygon points="488,40 489,40 494,35 489,30 488,30 488,40 " style="fill:#d8d015; stroke-width:1; stroke:black; " description="&lt;b&gt;MCIC6FC_005803&lt;/b&gt;&lt;br&gt;hypothetical protein&lt;br&gt;Location: 1974391 - 1975716" locus_tag="MCIC6FC_005803" class="clusterblast-orf" id="dummy-3_q17_0_all"  />
<polygon points="496,35 499,30 499,40 496,35 " style="fill:#15d892; stroke-width:1; stroke:black; " description="&lt;b&gt;MCIC6FC_005804&lt;/b&gt;&lt;br&gt;hypothetical protein&lt;br&gt;Location: 1976049 - 1976838" locus_tag="MCIC6FC_005804" class="clusterblast-orf" id="dummy-3_q18_0_all"  />
<polygon points="500,40 502,40 507,35 502,30 500,30 500,40 " style="fill:white; stroke-width:1; stroke:black; " description="&lt;b&gt;MCIC6FC_005805&lt;/b&gt;&lt;br&gt;hypothetical protein&lt;br&gt;Location: 1976898 - 1978654" locus_tag="MCIC6FC_005805" class="clusterblast-orf" id="dummy-3_q19_0_all"  />
<polygon points="508,35 510,30 510,40 508,35 " style="fill:#2515d8; stroke-width:1; stroke:black; " description="&lt;b&gt;MCIC6FC_005806&lt;/b&gt;&lt;br&gt;hypothetical protein&lt;br&gt;Location: 1978716 - 1979176" locus_tag="MCIC6FC_005806" class="clusterblast-orf" id="dummy-3_q20_0_all"  />
<polygon points="510,40 513,40 518,35 513,30 510,30 510,40 " style="fill:#d81573; stroke-width:1; stroke:black; " description="&lt;b&gt;MCIC6FC_005807&lt;/b&gt;&lt;br&gt;hypothetical protein&lt;br&gt;Location: 1979309 - 1981063" locus_tag="MCIC6FC_005807" class="clusterblast-orf" id="dummy-3_q21_0_all"  />
<polygon points="519,35 524,30 524,30 524,40 524,40 519,35 " style="fill:#b1d815; stroke-width:1; stroke:black; " description="&lt;b&gt;MCIC6FC_005808&lt;/b&gt;&lt;br&gt;hypothetical protein&lt;br&gt;Location: 1981136 - 1982256" locus_tag="MCIC6FC_005808" class="clusterblast-orf" id="dummy-3_q22_0_all"  />
<polygon points="524,35 529,30 539,30 539,40 529,40 524,35 " style="fill:#15d8c1; stroke-width:1; stroke:black; " description="&lt;b&gt;MCIC6FC_005809&lt;/b&gt;&lt;br&gt;hypothetical protein&lt;br&gt;Location: 1982279 - 1985697" locus_tag="MCIC6FC_005809" class="clusterblast-orf" id="dummy-3_q23_0_all"  />
<polygon points="541,40 543,40 548,35 543,30 541,30 541,40 " style="fill:#5415d8; stroke-width:1; stroke:black; " description="&lt;b&gt;MCIC6FC_005810&lt;/b&gt;&lt;br&gt;hypothetical protein&lt;br&gt;Location: 1986109 - 1987765" locus_tag="MCIC6FC_005810" class="clusterblast-orf" id="dummy-3_q24_0_all"  />
<polygon points="549,40 552,35 549,30 549,40 " style="fill:#d81544; stroke-width:1; stroke:black; " description="&lt;b&gt;MCIC6FC_005811&lt;/b&gt;&lt;br&gt;hypothetical protein&lt;br&gt;Location: 1987866 - 1988532" locus_tag="MCIC6FC_005811" class="clusterblast-orf" id="dummy-3_q25_0_all"  />
<polygon points="554,40 557,35 554,30 554,40 " style="fill:#82d815; stroke-width:1; stroke:black; " description="&lt;b&gt;MCIC6FC_005812&lt;/b&gt;&lt;br&gt;hypothetical protein&lt;br&gt;Location: 1989036 - 1989803" locus_tag="MCIC6FC_005812" class="clusterblast-orf" id="dummy-3_q26_0_all"  />
<polygon points="557,35 562,30 577,30 577,40 562,40 557,35 " style="fill:white; stroke-width:1; stroke:black; " description="&lt;b&gt;MCIC6FC_005813&lt;/b&gt;&lt;br&gt;hypothetical protein&lt;br&gt;Location: 1989807 - 1994168" locus_tag="MCIC6FC_005813" class="clusterblast-orf" id="dummy-3_q27_0_all"  />
</g>
<g label="BGC0000413" description="BGC0000413_c1: pyoverdin (24% of genes show similarity), NRP" class="clusterblast-cluster"  >
<text x="5" y="70" class="clusterblast-acc"  >
<a xlink:href="https://mibig.secondarymetabolites.org/go/BGC0000413/1" target="_blank">BGC0000413</a>:                                                                        pyoverdin (24% of genes show similarity), NRP</text>
<line x1="10" y1="85" x2="778.0" y2="85" style="stroke-width:1; stroke:grey; "  />
</g>
<g id="a3_000"  >
<polygon points="0,85 3,80 3,90 0,85 " style="fill:white; stroke-width:1; stroke:black; " description="&lt;b&gt;PFL_4077&lt;/b&gt;&lt;br&gt;MgtC family protein&lt;br&gt;Location: 1 - 717" locus_tag="PFL_4077" class="clusterblast-orf" id="dummy-3_h3_1_0"  />
</g>
<g id="a3_001"  >
<polygon points="4,85 9,80 16,80 16,90 9,90 4,85 " style="fill:white; stroke-width:1; stroke:black; " description="&lt;b&gt;PFL_4078&lt;/b&gt;&lt;br&gt;magnesium-importing ATPase&lt;br&gt;Location: 922 - 3687" locus_tag="PFL_4078" class="clusterblast-orf" id="dummy-3_h3_1_1"  />
</g>
<g id="a3_002"  >
<polygon points="18,85 23,80 24,80 24,90 23,90 18,85 " style="fill:#d81515; stroke-width:1; stroke:black; " description="&lt;b&gt;PFL_4079&lt;/b&gt;&lt;br&gt;L-ornithine 5-monooxygenase PvdA&lt;br&gt;Location: 4236 - 5573&lt;br&gt;&lt;br&gt;&lt;b&gt;BlastP hit with MCIC6FC_005786&lt;/b&gt;&lt;br&gt;Percentage identity: 95&lt;br&gt;Percentage coverage: 69&lt;br&gt;BLAST bit score: 837&lt;br&gt;E-value: 1.8e-242" locus_tag="PFL_4079" class="clusterblast-orf" id="dummy-3_h3_1_2"  />
</g>
<g id="a3_003"  >
<polygon points="25,85 27,80 27,90 25,85 " style="fill:white; stroke-width:1; stroke:black; " description="&lt;b&gt;PFL_4080&lt;/b&gt;&lt;br&gt;RNA polymerase sigma-70 factor, ECF subfamily, FpvI&lt;br&gt;Location: 5723 - 6202" locus_tag="PFL_4080" class="clusterblast-orf" id="dummy-3_h3_1_3"  />
</g>
<g id="a3_004"  >
<polygon points="29,90 29,90 34,85 29,80 29,80 29,90 " style="fill:white; stroke-width:1; stroke:black; " description="&lt;b&gt;PFL_4081&lt;/b&gt;&lt;br&gt;efflux transporter, RND family, MFP subunit&lt;br&gt;Location: 6532 - 7704" locus_tag="PFL_4081" class="clusterblast-orf" id="dummy-3_h3_1_4"  />
</g>
<g id="a3_005"  >
<polygon points="34,90 38,90 43,85 38,80 34,80 34,90 " style="fill:#54d815; stroke-width:1; stroke:black; " description="&lt;b&gt;PFL_4082&lt;/b&gt;&lt;br&gt;efflux ABC transporter, ATP-binding/permease protein&lt;br&gt;Location: 7705 - 9678&lt;br&gt;&lt;br&gt;&lt;b&gt;BlastP hit with MCIC6FC_005787&lt;/b&gt;&lt;br&gt;Percentage identity: 98&lt;br&gt;Percentage coverage: 43&lt;br&gt;BLAST bit score: 1198&lt;br&gt;E-value: 0.0" locus_tag="PFL_4082" class="clusterblast-orf" id="dummy-3_h3_1_5"  />
</g>
<g id="a3_006"  >
<polygon points="43,90 44,90 49,85 44,80 43,80 43,90 " style="fill:white; stroke-width:1; stroke:black; " description="&lt;b&gt;PFL_4083&lt;/b&gt;&lt;br&gt;efflux transporter, outer membrane factor lipoprotein, NodT family&lt;br&gt;Location: 9686 - 11077" locus_tag="PFL_4083" class="clusterblast-orf" id="dummy-3_h3_1_6"  />
</g>
<g id="a3_007"  >
<polygon points="49,90 51,85 49,80 49,90 " style="fill:white; stroke-width:1; stroke:black; " description="&lt;b&gt;PFL_4084&lt;/b&gt;&lt;br&gt;conserved hypothetical protein&lt;br&gt;Location: 11178 - 11477" locus_tag="PFL_4084" class="clusterblast-orf" id="dummy-3_h3_1_7"  />
</g>
<g id="a3_008"  >
<polygon points="51,90 53,85 51,80 51,90 " style="fill:white; stroke-width:1; stroke:black; " description="&lt;b&gt;PFL_4085&lt;/b&gt;&lt;br&gt;conserved hypothetical protein&lt;br&gt;Location: 11496 - 11933" locus_tag="PFL_4085" class="clusterblast-orf" id="dummy-3_h3_1_8"  />
</g>
<g id="a3_009"  >
<polygon points="53,85 58,80 60,80 60,90 58,90 53,85 " style="fill:#15c1d8; stroke-width:1; stroke:black; " description="&lt;b&gt;PFL_4086&lt;/b&gt;&lt;br&gt;chromophore maturation protein PvdP&lt;br&gt;Location: 11944 - 13572&lt;br&gt;&lt;br&gt;&lt;b&gt;BlastP hit with MCIC6FC_005788&lt;/b&gt;&lt;br&gt;Percentage identity: 98&lt;br&gt;Percentage coverage: 98&lt;br&gt;BLAST bit score: 1120&lt;br&gt;E-value: 0.0" locus_tag="PFL_4086" class="clusterblast-orf" id="dummy-3_h3_1_9"  />
</g>
<g id="a3_0010"  >
<polygon points="61,90 62,90 67,85 62,80 61,80 61,90 " style="fill:#8215d8; stroke-width:1; stroke:black; " description="&lt;b&gt;PFL_4087&lt;/b&gt;&lt;br&gt;putative dipeptidase precursor&lt;br&gt;Location: 13780 - 15153&lt;br&gt;&lt;br&gt;&lt;b&gt;BlastP hit with MCIC6FC_005789&lt;/b&gt;&lt;br&gt;Percentage identity: 98&lt;br&gt;Percentage coverage: 51&lt;br&gt;BLAST bit score: 878&lt;br&gt;E-value: 1.2e-254" locus_tag="PFL_4087" class="clusterblast-orf" id="dummy-3_h3_1_10"  />
</g>
<g id="a3_0011"  >
<polygon points="67,90 68,90 73,85 68,80 67,80 67,90 " style="fill:#8215d8; stroke-width:1; stroke:black; " description="&lt;b&gt;PFL_4088&lt;/b&gt;&lt;br&gt;chromophore maturation protein PvdN&lt;br&gt;Location: 15175 - 16470&lt;br&gt;&lt;br&gt;&lt;b&gt;BlastP hit with MCIC6FC_005789&lt;/b&gt;&lt;br&gt;Percentage identity: 94&lt;br&gt;Percentage coverage: 50&lt;br&gt;BLAST bit score: 812&lt;br&gt;E-value: 8.4e-235" locus_tag="PFL_4088" class="clusterblast-orf" id="dummy-3_h3_1_11"  />
</g>
<g id="a3_0012"  >
<polygon points="73,90 77,85 73,80 73,90 " style="fill:#d84415; stroke-width:1; stroke:black; " description="&lt;b&gt;PFL_4089&lt;/b&gt;&lt;br&gt;chromophore maturation protein PvdO&lt;br&gt;Location: 16518 - 17411&lt;br&gt;&lt;br&gt;&lt;b&gt;BlastP hit with MCIC6FC_005790&lt;/b&gt;&lt;br&gt;Percentage identity: 95&lt;br&gt;Percentage coverage: 100&lt;br&gt;BLAST bit score: 602&lt;br&gt;E-value: 4.5e-172" locus_tag="PFL_4089" class="clusterblast-orf" id="dummy-3_h3_1_12"  />
</g>
<g id="a3_0013"  >
<polygon points="77,85 81,80 81,90 77,85 " style="fill:#25d815; stroke-width:1; stroke:black; " description="&lt;b&gt;PFL_4090&lt;/b&gt;&lt;br&gt;N(5)-hydroxyornithine transformylase PvdF&lt;br&gt;Location: 17466 - 18329&lt;br&gt;&lt;br&gt;&lt;b&gt;BlastP hit with MCIC6FC_005791&lt;/b&gt;&lt;br&gt;Percentage identity: 99&lt;br&gt;Percentage coverage: 91&lt;br&gt;BLAST bit score: 580&lt;br&gt;E-value: 1.9e-165" locus_tag="PFL_4090" class="clusterblast-orf" id="dummy-3_h3_1_13"  />
</g>
<g id="a3_0014"  >
<polygon points="82,90 84,90 89,85 84,80 82,80 82,90 " style="fill:white; stroke-width:1; stroke:black; " description="&lt;b&gt;PFL_4091&lt;/b&gt;&lt;br&gt;pyoverdine ABC transporter, permease/ATP-binding protein PvdE&lt;br&gt;Location: 18530 - 20182" locus_tag="PFL_4091" class="clusterblast-orf" id="dummy-3_h3_1_14"  />
</g>
<g id="a3_0015"  >
<polygon points="90,90 96,90 101,85 96,80 90,80 90,90 " style="fill:#1592d8; stroke-width:1; stroke:black; " description="&lt;b&gt;PFL_4092&lt;/b&gt;&lt;br&gt;TonB-dependent outermembrane ferripyoverdine receptor FpvA&lt;br&gt;Location: 20284 - 22752&lt;br&gt;&lt;br&gt;&lt;b&gt;BlastP hit with MCIC6FC_005792&lt;/b&gt;&lt;br&gt;Percentage identity: 90&lt;br&gt;Percentage coverage: 58&lt;br&gt;BLAST bit score: 1465&lt;br&gt;E-value: 0.0" locus_tag="PFL_4092" class="clusterblast-orf" id="dummy-3_h3_1_15"  />
</g>
<g id="a3_0016"  >
<polygon points="103,85 108,80 162,80 162,90 108,90 103,85 " style="fill:#b115d8; stroke-width:1; stroke:black; " description="&lt;b&gt;PFL_4093&lt;/b&gt;&lt;br&gt;non-ribosomal peptide synthetase PvdD&lt;br&gt;Location: 23151 - 36383&lt;br&gt;&lt;br&gt;&lt;b&gt;BlastP hit with MCIC6FC_005793&lt;/b&gt;&lt;br&gt;Percentage identity: 85&lt;br&gt;Percentage coverage: 43&lt;br&gt;BLAST bit score: 7313&lt;br&gt;E-value: 0.0" locus_tag="PFL_4093" class="clusterblast-orf" id="dummy-3_h3_1_16"  />
</g>
<g id="a3_0017"  >
<polygon points="162,85 167,80 191,80 191,90 167,90 162,85 " style="fill:white; stroke-width:1; stroke:black; " description="&lt;b&gt;PFL_4094&lt;/b&gt;&lt;br&gt;non-ribosomal peptide synthetase PvdJ&lt;br&gt;Location: 36396 - 42977" locus_tag="PFL_4094" class="clusterblast-orf" id="dummy-3_h3_1_17"  />
</g>
<g id="a3_0018"  >
<polygon points="191,85 196,80 241,80 241,90 196,90 191,85 " style="fill:white; stroke-width:1; stroke:black; " description="&lt;b&gt;PFL_4095&lt;/b&gt;&lt;br&gt;non-ribosomal peptide synthetase PvdI&lt;br&gt;Location: 42977 - 54124" locus_tag="PFL_4095" class="clusterblast-orf" id="dummy-3_h3_1_18"  />
</g>
<g id="a3_0019"  >
<polygon points="242,90 246,85 242,80 242,90 " style="fill:#d87315; stroke-width:1; stroke:black; " description="&lt;b&gt;PFL_4096&lt;/b&gt;&lt;br&gt;siderophore-interacting protein&lt;br&gt;Location: 54337 - 55305&lt;br&gt;&lt;br&gt;&lt;b&gt;BlastP hit with MCIC6FC_005794&lt;/b&gt;&lt;br&gt;Percentage identity: 95&lt;br&gt;Percentage coverage: 100&lt;br&gt;BLAST bit score: 629&lt;br&gt;E-value: 2.9e-180" locus_tag="PFL_4096" class="clusterblast-orf" id="dummy-3_h3_1_19"  />
</g>
<g id="a3_0020"  >
<polygon points="247,85 250,80 250,90 247,85 " style="fill:white; stroke-width:1; stroke:black; " description="&lt;b&gt;PFL_4097&lt;/b&gt;&lt;br&gt;thioesterase&lt;br&gt;Location: 55487 - 56218" locus_tag="PFL_4097" class="clusterblast-orf" id="dummy-3_h3_1_20"  />
</g>
<g id="a3_0021"  >
<polygon points="250,85 255,80 256,80 256,90 255,90 250,85 " style="fill:#15d834; stroke-width:1; stroke:black; " description="&lt;b&gt;PFL_4098&lt;/b&gt;&lt;br&gt;transporter, major facilitator family&lt;br&gt;Location: 56298 - 57470&lt;br&gt;&lt;br&gt;&lt;b&gt;BlastP hit with MCIC6FC_005795&lt;/b&gt;&lt;br&gt;Percentage identity: 93&lt;br&gt;Percentage coverage: 61&lt;br&gt;BLAST bit score: 633&lt;br&gt;E-value: 3.8e-181" locus_tag="PFL_4098" class="clusterblast-orf" id="dummy-3_h3_1_21"  />
</g>
<g id="a3_0022"  >
<polygon points="256,90 259,85 256,80 256,90 " style="fill:#1563d8; stroke-width:1; stroke:black; " description="&lt;b&gt;PFL_4099&lt;/b&gt;&lt;br&gt;transcriptional regulator, TetR family&lt;br&gt;Location: 57606 - 58193&lt;br&gt;&lt;br&gt;&lt;b&gt;BlastP hit with MCIC6FC_005796&lt;/b&gt;&lt;br&gt;Percentage identity: 89&lt;br&gt;Percentage coverage: 99&lt;br&gt;BLAST bit score: 322&lt;br&gt;E-value: 3.5e-88" locus_tag="PFL_4099" class="clusterblast-orf" id="dummy-3_h3_1_22"  />
</g>
<g id="a3_0023"  >
<polygon points="259,90 263,85 259,80 259,90 " style="fill:#d815d0; stroke-width:1; stroke:black; " description="&lt;b&gt;PFL_4100&lt;/b&gt;&lt;br&gt;glucose 1-dehydrogenase&lt;br&gt;Location: 58306 - 59106&lt;br&gt;&lt;br&gt;&lt;b&gt;BlastP hit with MCIC6FC_005797&lt;/b&gt;&lt;br&gt;Percentage identity: 97&lt;br&gt;Percentage coverage: 100&lt;br&gt;BLAST bit score: 486&lt;br&gt;E-value: 2.5e-137" locus_tag="PFL_4100" class="clusterblast-orf" id="dummy-3_h3_1_23"  />
</g>
<g id="a3_0024"  >
<polygon points="263,90 266,90 271,85 266,80 263,80 263,90 " style="fill:white; stroke-width:1; stroke:black; " description="&lt;b&gt;PFL_4101&lt;/b&gt;&lt;br&gt;glycosyl hydrolase, family 15&lt;br&gt;Location: 59099 - 60925" locus_tag="PFL_4101" class="clusterblast-orf" id="dummy-3_h3_1_24"  />
</g>
<g id="a3_0025"  >
<polygon points="271,90 273,85 271,80 271,90 " style="fill:white; stroke-width:1; stroke:black; " description="&lt;b&gt;PFL_4102&lt;/b&gt;&lt;br&gt;conserved hypothetical protein&lt;br&gt;Location: 60992 - 61369" locus_tag="PFL_4102" class="clusterblast-orf" id="dummy-3_h3_1_25"  />
</g>
<g id="a3_0026"  >
<polygon points="273,90 275,85 273,80 273,90 " style="fill:white; stroke-width:1; stroke:black; " description="&lt;b&gt;PFL_4103&lt;/b&gt;&lt;br&gt;conserved hypothetical protein&lt;br&gt;Location: 61366 - 61827" locus_tag="PFL_4103" class="clusterblast-orf" id="dummy-3_h3_1_26"  />
</g>
<g id="a3_0027"  >
<polygon points="276,90 276,90 281,85 276,80 276,80 276,90 " style="fill:white; stroke-width:1; stroke:black; " description="&lt;b&gt;PFL_4104&lt;/b&gt;&lt;br&gt;alpha/beta hydrolase family protein&lt;br&gt;Location: 62165 - 63070" locus_tag="PFL_4104" class="clusterblast-orf" id="dummy-3_h3_1_27"  />
</g>
<g id="a3_0028"  >
<polygon points="281,90 283,85 281,80 281,90 " style="fill:white; stroke-width:1; stroke:black; " description="&lt;b&gt;PFL_4105&lt;/b&gt;&lt;br&gt;conserved hypothetical protein&lt;br&gt;Location: 63072 - 63620" locus_tag="PFL_4105" class="clusterblast-orf" id="dummy-3_h3_1_28"  />
</g>
<g id="a3_0029"  >
<polygon points="283,90 284,90 289,85 284,80 283,80 283,90 " style="fill:white; stroke-width:1; stroke:black; " description="&lt;b&gt;PFL_4106&lt;/b&gt;&lt;br&gt;NAD dependent epimerase/dehydratase family protein&lt;br&gt;Location: 63636 - 65078" locus_tag="PFL_4106" class="clusterblast-orf" id="dummy-3_h3_1_29"  />
</g>
<g id="a3_0030"  >
<polygon points="290,90 295,90 300,85 295,80 290,80 290,90 " style="fill:white; stroke-width:1; stroke:black; " description="&lt;b&gt;PFL_4107&lt;/b&gt;&lt;br&gt;conserved hypothetical protein&lt;br&gt;Location: 65093 - 67531" locus_tag="PFL_4107" class="clusterblast-orf" id="dummy-3_h3_1_30"  />
</g>
<g id="a3_0031"  >
<polygon points="300,85 305,80 305,80 305,90 305,90 300,85 " style="fill:#d8a215; stroke-width:1; stroke:black; " description="&lt;b&gt;PFL_4108&lt;/b&gt;&lt;br&gt;transcriptional regulator, AraC family&lt;br&gt;Location: 67541 - 68524&lt;br&gt;&lt;br&gt;&lt;b&gt;BlastP hit with MCIC6FC_005799&lt;/b&gt;&lt;br&gt;Percentage identity: 95&lt;br&gt;Percentage coverage: 100&lt;br&gt;BLAST bit score: 609&lt;br&gt;E-value: 3.1e-174" locus_tag="PFL_4108" class="clusterblast-orf" id="dummy-3_h3_1_31"  />
</g>
<g id="a3_0032"  >
<polygon points="305,90 308,85 305,80 305,90 " style="fill:#15d863; stroke-width:1; stroke:black; " description="&lt;b&gt;PFL_4109&lt;/b&gt;&lt;br&gt;isonitrile hydratase InhA&lt;br&gt;Location: 68617 - 69303&lt;br&gt;&lt;br&gt;&lt;b&gt;BlastP hit with MCIC6FC_005800&lt;/b&gt;&lt;br&gt;Percentage identity: 96&lt;br&gt;Percentage coverage: 100&lt;br&gt;BLAST bit score: 427&lt;br&gt;E-value: 1.5e-119" locus_tag="PFL_4109" class="clusterblast-orf" id="dummy-3_h3_1_32"  />
</g>
<g id="a3_0033"  >
<polygon points="308,85 310,80 310,90 308,85 " style="fill:#1534d8; stroke-width:1; stroke:black; " description="&lt;b&gt;PFL_4110&lt;/b&gt;&lt;br&gt;conserved hypothetical protein&lt;br&gt;Location: 69308 - 69652&lt;br&gt;&lt;br&gt;&lt;b&gt;BlastP hit with MCIC6FC_005801&lt;/b&gt;&lt;br&gt;Percentage identity: 100&lt;br&gt;Percentage coverage: 100&lt;br&gt;BLAST bit score: 235&lt;br&gt;E-value: 3.3e-62" locus_tag="PFL_4110" class="clusterblast-orf" id="dummy-3_h3_1_33"  />
</g>
<g id="a3_0034"  >
<polygon points="310,85 313,80 313,90 310,85 " style="fill:#d815a2; stroke-width:1; stroke:black; " description="&lt;b&gt;PFL_4111&lt;/b&gt;&lt;br&gt;translocator protein, LysE family&lt;br&gt;Location: 69677 - 70309&lt;br&gt;&lt;br&gt;&lt;b&gt;BlastP hit with MCIC6FC_005802&lt;/b&gt;&lt;br&gt;Percentage identity: 90&lt;br&gt;Percentage coverage: 107&lt;br&gt;BLAST bit score: 342&lt;br&gt;E-value: 5.6e-94" locus_tag="PFL_4111" class="clusterblast-orf" id="dummy-3_h3_1_34"  />
</g>
<g id="a3_0035"  >
<polygon points="313,90 314,90 319,85 314,80 313,80 313,90 " style="fill:#d8d015; stroke-width:1; stroke:black; " description="&lt;b&gt;PFL_4112&lt;/b&gt;&lt;br&gt;transcriptional regulator, GntR family/aminotransferase, classes I and II family protein&lt;br&gt;Location: 70397 - 71722&lt;br&gt;&lt;br&gt;&lt;b&gt;BlastP hit with MCIC6FC_005803&lt;/b&gt;&lt;br&gt;Percentage identity: 93&lt;br&gt;Percentage coverage: 108&lt;br&gt;BLAST bit score: 773&lt;br&gt;E-value: 2e-223" locus_tag="PFL_4112" class="clusterblast-orf" id="dummy-3_h3_1_35"  />
</g>
<g id="a3_0036"  >
<polygon points="321,85 324,80 324,90 321,85 " style="fill:#15d892; stroke-width:1; stroke:black; " description="&lt;b&gt;PFL_4113&lt;/b&gt;&lt;br&gt;streptomycin 3''-kinase&lt;br&gt;Location: 72057 - 72860&lt;br&gt;&lt;br&gt;&lt;b&gt;BlastP hit with MCIC6FC_005804&lt;/b&gt;&lt;br&gt;Percentage identity: 100&lt;br&gt;Percentage coverage: 100&lt;br&gt;BLAST bit score: 539&lt;br&gt;E-value: 2.4e-153" locus_tag="PFL_4113" class="clusterblast-orf" id="dummy-3_h3_1_36"  />
</g>
<g id="a3_0037"  >
<polygon points="324,85 327,80 327,90 324,85 " style="fill:#2515d8; stroke-width:1; stroke:black; " description="&lt;b&gt;PFL_4114&lt;/b&gt;&lt;br&gt;conserved hypothetical protein&lt;br&gt;Location: 72939 - 73397&lt;br&gt;&lt;br&gt;&lt;b&gt;BlastP hit with MCIC6FC_005806&lt;/b&gt;&lt;br&gt;Percentage identity: 92&lt;br&gt;Percentage coverage: 104&lt;br&gt;BLAST bit score: 282&lt;br&gt;E-value: 3e-76" locus_tag="PFL_4114" class="clusterblast-orf" id="dummy-3_h3_1_37"  />
</g>
<g id="a3_0038"  >
<polygon points="327,90 328,90 333,85 328,80 327,80 327,90 " style="fill:#d81573; stroke-width:1; stroke:black; " description="&lt;b&gt;PFL_4115&lt;/b&gt;&lt;br&gt;ADP-ribosylglycohydrolase family protein&lt;br&gt;Location: 73531 - 74853&lt;br&gt;&lt;br&gt;&lt;b&gt;BlastP hit with MCIC6FC_005807&lt;/b&gt;&lt;br&gt;Percentage identity: 89&lt;br&gt;Percentage coverage: 78&lt;br&gt;BLAST bit score: 802&lt;br&gt;E-value: 5.6e-232" locus_tag="PFL_4115" class="clusterblast-orf" id="dummy-3_h3_1_38"  />
</g>
<g id="a3_0039"  >
<polygon points="333,90 335,85 333,80 333,90 " style="fill:white; stroke-width:1; stroke:black; " description="&lt;b&gt;PFL_4116&lt;/b&gt;&lt;br&gt;conserved hypothetical protein&lt;br&gt;Location: 74891 - 75292" locus_tag="PFL_4116" class="clusterblast-orf" id="dummy-3_h3_1_39"  />
</g>
<g id="a3_0040"  >
<polygon points="335,85 340,80 340,80 340,90 340,90 335,85 " style="fill:#b1d815; stroke-width:1; stroke:black; " description="&lt;b&gt;PFL_4117&lt;/b&gt;&lt;br&gt;quinohemoprotein amine dehydrogenase, beta subunit PeaD&lt;br&gt;Location: 75395 - 76513&lt;br&gt;&lt;br&gt;&lt;b&gt;BlastP hit with MCIC6FC_005808&lt;/b&gt;&lt;br&gt;Percentage identity: 95&lt;br&gt;Percentage coverage: 102&lt;br&gt;BLAST bit score: 718&lt;br&gt;E-value: 4.1e-207" locus_tag="PFL_4117" class="clusterblast-orf" id="dummy-3_h3_1_40"  />
</g>
<g id="a3_0041"  >
<polygon points="341,85 342,80 342,90 341,85 " style="fill:white; stroke-width:1; stroke:black; " description="&lt;b&gt;PFL_4118&lt;/b&gt;&lt;br&gt;quinohemoprotein amine dehydrogenase, gamma subunit PeaC&lt;br&gt;Location: 76537 - 76860" locus_tag="PFL_4118" class="clusterblast-orf" id="dummy-3_h3_1_41"  />
</g>
<g id="a3_0042"  >
<polygon points="342,85 347,80 348,80 348,90 347,90 342,85 " style="fill:#15d8c1; stroke-width:1; stroke:black; " description="&lt;b&gt;PFL_4119&lt;/b&gt;&lt;br&gt;putative quinohemoprotein amine dehydrogenase modification protein PeaB&lt;br&gt;Location: 76862 - 78295&lt;br&gt;&lt;br&gt;&lt;b&gt;BlastP hit with MCIC6FC_005809&lt;/b&gt;&lt;br&gt;Percentage identity: 97&lt;br&gt;Percentage coverage: 43&lt;br&gt;BLAST bit score: 874&lt;br&gt;E-value: 1.7e-253" locus_tag="PFL_4119" class="clusterblast-orf" id="dummy-3_h3_1_42"  />
</g>
<g id="a3_0043"  >
<polygon points="349,85 354,80 356,80 356,90 354,90 349,85 " style="fill:#15d8c1; stroke-width:1; stroke:black; " description="&lt;b&gt;PFL_4120&lt;/b&gt;&lt;br&gt;quinohemoprotein amine dehydrogenase, alpha subunit PeaA&lt;br&gt;Location: 78375 - 79955&lt;br&gt;&lt;br&gt;&lt;b&gt;BlastP hit with MCIC6FC_005809&lt;/b&gt;&lt;br&gt;Percentage identity: 95&lt;br&gt;Percentage coverage: 46&lt;br&gt;BLAST bit score: 951&lt;br&gt;E-value: 1.4e-276" locus_tag="PFL_4120" class="clusterblast-orf" id="dummy-3_h3_1_43"  />
</g>
<g id="a3_0044"  >
<polygon points="357,90 360,90 365,85 360,80 357,80 357,90 " style="fill:#5415d8; stroke-width:1; stroke:black; " description="&lt;b&gt;PFL_4121&lt;/b&gt;&lt;br&gt;KWG repeat protein&lt;br&gt;Location: 80263 - 82023&lt;br&gt;&lt;br&gt;&lt;b&gt;BlastP hit with MCIC6FC_005810&lt;/b&gt;&lt;br&gt;Percentage identity: 83&lt;br&gt;Percentage coverage: 100&lt;br&gt;BLAST bit score: 903&lt;br&gt;E-value: 1.3e-262" locus_tag="PFL_4121" class="clusterblast-orf" id="dummy-3_h3_1_44"  />
</g>
<g id="a3_0045"  >
<polygon points="365,90 368,85 365,80 365,90 " style="fill:#d81544; stroke-width:1; stroke:black; " description="&lt;b&gt;PFL_4122&lt;/b&gt;&lt;br&gt;HAD hydrolase, family IA, variant 3&lt;br&gt;Location: 82125 - 82790&lt;br&gt;&lt;br&gt;&lt;b&gt;BlastP hit with MCIC6FC_005811&lt;/b&gt;&lt;br&gt;Percentage identity: 93&lt;br&gt;Percentage coverage: 100&lt;br&gt;BLAST bit score: 415&lt;br&gt;E-value: 7.6e-116" locus_tag="PFL_4122" class="clusterblast-orf" id="dummy-3_h3_1_45"  />
</g>
<g id="a3_0046"  >
<polygon points="370,85 375,80 378,80 378,90 375,90 370,85 " style="fill:white; stroke-width:1; stroke:black; " description="&lt;b&gt;PFL_4123&lt;/b&gt;&lt;br&gt;putative 2-isopropylmalate synthase&lt;br&gt;Location: 83178 - 84893" locus_tag="PFL_4123" class="clusterblast-orf" id="dummy-3_h3_1_46"  />
</g>
<g id="a3_0047"  >
<polygon points="379,90 383,85 379,80 379,90 " style="fill:#82d815; stroke-width:1; stroke:black; " description="&lt;b&gt;PFL_4124&lt;/b&gt;&lt;br&gt;transcriptional regulator, AraC family&lt;br&gt;Location: 85169 - 85999&lt;br&gt;&lt;br&gt;&lt;b&gt;BlastP hit with MCIC6FC_005812&lt;/b&gt;&lt;br&gt;Percentage identity: 93&lt;br&gt;Percentage coverage: 104&lt;br&gt;BLAST bit score: 477&lt;br&gt;E-value: 1.1e-134" locus_tag="PFL_4124" class="clusterblast-orf" id="dummy-3_h3_1_47"  />
</g>
<g id="a3_0048"  >
<polygon points="383,85 388,80 390,80 390,90 388,90 383,85 " style="fill:white; stroke-width:1; stroke:black; " description="&lt;b&gt;PFL_4125&lt;/b&gt;&lt;br&gt;drug resistance transporter, EmrB/QacA family&lt;br&gt;Location: 86004 - 87593" locus_tag="PFL_4125" class="clusterblast-orf" id="dummy-3_h3_1_48"  />
</g>
<g id="a3_0049"  >
<polygon points="390,85 395,80 395,80 395,90 395,90 390,85 " style="fill:white; stroke-width:1; stroke:black; " description="&lt;b&gt;PFL_4126&lt;/b&gt;&lt;br&gt;auxiliary transport protein, membrane fusion protein family&lt;br&gt;Location: 87586 - 88695" locus_tag="PFL_4126" class="clusterblast-orf" id="dummy-3_h3_1_49"  />
</g>
<g id="a3_0050"  >
<polygon points="395,85 400,80 401,80 401,90 400,90 395,85 " style="fill:white; stroke-width:1; stroke:black; " description="&lt;b&gt;PFL_4127&lt;/b&gt;&lt;br&gt;efflux transporter, outer membrane factor lipoprotein, NodT family&lt;br&gt;Location: 88692 - 90170" locus_tag="PFL_4127" class="clusterblast-orf" id="dummy-3_h3_1_50"  />
</g>
<g id="a3_0051"  >
<polygon points="401,85 402,80 402,90 401,85 " style="fill:white; stroke-width:1; stroke:black; " description="&lt;b&gt;PFL_4128&lt;/b&gt;&lt;br&gt;conserved hypothetical protein&lt;br&gt;Location: 90197 - 90439" locus_tag="PFL_4128" class="clusterblast-orf" id="dummy-3_h3_1_51"  />
</g>
<g id="a3_0052"  >
<polygon points="402,90 405,85 402,80 402,90 " style="fill:white; stroke-width:1; stroke:black; " description="&lt;b&gt;PFL_4129&lt;/b&gt;&lt;br&gt;conserved hypothetical protein&lt;br&gt;Location: 90425 - 90985" locus_tag="PFL_4129" class="clusterblast-orf" id="dummy-3_h3_1_52"  />
</g>
<g id="a3_0053"  >
<polygon points="406,90 407,90 412,85 407,80 406,80 406,90 " style="fill:white; stroke-width:1; stroke:black; " description="&lt;b&gt;PFL_4130&lt;/b&gt;&lt;br&gt;phenylacetaldehyde dehydrogenase PeaE&lt;br&gt;Location: 91186 - 92676" locus_tag="PFL_4130" class="clusterblast-orf" id="dummy-3_h3_1_53"  />
</g>
<g id="a3_0054"  >
<polygon points="413,90 417,90 422,85 417,80 413,80 413,90 " style="fill:white; stroke-width:1; stroke:black; " description="&lt;b&gt;PFL_4131&lt;/b&gt;&lt;br&gt;amidohydrolase family protein&lt;br&gt;Location: 92863 - 94782" locus_tag="PFL_4131" class="clusterblast-orf" id="dummy-3_h3_1_54"  />
</g>
<g id="a3_0055"  >
<polygon points="422,85 427,80 428,80 428,90 427,90 422,85 " style="fill:white; stroke-width:1; stroke:black; " description="&lt;b&gt;PFL_4132&lt;/b&gt;&lt;br&gt;phenylethylamine degradation protein PeaF&lt;br&gt;Location: 94920 - 96239" locus_tag="PFL_4132" class="clusterblast-orf" id="dummy-3_h3_1_55"  />
</g>
<g id="a3_0056"  >
<polygon points="428,85 431,80 431,90 428,85 " style="fill:white; stroke-width:1; stroke:black; " description="&lt;b&gt;PFL_4133&lt;/b&gt;&lt;br&gt;conserved hypothetical protein&lt;br&gt;Location: 96224 - 96907" locus_tag="PFL_4133" class="clusterblast-orf" id="dummy-3_h3_1_56"  />
</g>
<g id="a3_0057"  >
<polygon points="431,85 436,80 439,80 439,90 436,90 431,85 " style="fill:white; stroke-width:1; stroke:black; " description="&lt;b&gt;PFL_4134&lt;/b&gt;&lt;br&gt;2-phenylethylamine uptake protein PeaH&lt;br&gt;Location: 96897 - 98615" locus_tag="PFL_4134" class="clusterblast-orf" id="dummy-3_h3_1_57"  />
</g>
<g id="a3_0058"  >
<polygon points="439,85 444,80 447,80 447,90 444,90 439,85 " style="fill:white; stroke-width:1; stroke:black; " description="&lt;b&gt;PFL_4135&lt;/b&gt;&lt;br&gt;sigma-54 dependent transcriptional activator PeaR&lt;br&gt;Location: 98615 - 100519" locus_tag="PFL_4135" class="clusterblast-orf" id="dummy-3_h3_1_58"  />
</g>
<g id="a3_0059"  >
<polygon points="449,85 454,80 454,80 454,90 454,90 449,85 " style="fill:white; stroke-width:1; stroke:black; " description="&lt;b&gt;PFL_4136&lt;/b&gt;&lt;br&gt;acetylpolyamine aminohydrolase&lt;br&gt;Location: 100975 - 102000" locus_tag="PFL_4136" class="clusterblast-orf" id="dummy-3_h3_1_59"  />
</g>
<g id="a3_0060"  >
<polygon points="454,85 459,80 460,80 460,90 459,90 454,85 " style="fill:white; stroke-width:1; stroke:black; " description="&lt;b&gt;PFL_4137&lt;/b&gt;&lt;br&gt;N-carbamyl-L-amino acid amidohydrolase&lt;br&gt;Location: 102011 - 103240" locus_tag="PFL_4137" class="clusterblast-orf" id="dummy-3_h3_1_60"  />
</g>
<g id="a3_0061"  >
<polygon points="460,85 465,80 465,80 465,90 465,90 460,85 " style="fill:white; stroke-width:1; stroke:black; " description="&lt;b&gt;PFL_4138&lt;/b&gt;&lt;br&gt;transporter, major facilitator family&lt;br&gt;Location: 103260 - 104573" locus_tag="PFL_4138" class="clusterblast-orf" id="dummy-3_h3_1_61"  />
</g>
<g id="a3_0062"  >
<polygon points="466,90 466,90 471,85 466,80 466,80 466,90 " style="fill:white; stroke-width:1; stroke:black; " description="&lt;b&gt;PFL_4139&lt;/b&gt;&lt;br&gt;transcriptional regulator, LysR family&lt;br&gt;Location: 104752 - 105717" locus_tag="PFL_4139" class="clusterblast-orf" id="dummy-3_h3_1_62"  />
</g>
<g id="a3_0063"  >
<polygon points="471,85 476,80 479,80 479,90 476,90 471,85 " style="fill:white; stroke-width:1; stroke:black; " description="&lt;b&gt;PFL_4140&lt;/b&gt;&lt;br&gt;penicillin-binding protein 2&lt;br&gt;Location: 105719 - 107611" locus_tag="PFL_4140" class="clusterblast-orf" id="dummy-3_h3_1_63"  />
</g>
<g id="a3_0064"  >
<polygon points="506,90 510,85 506,80 506,90 " style="fill:white; stroke-width:1; stroke:black; " description="&lt;b&gt;PFL_4146&lt;/b&gt;&lt;br&gt;integral membrane protein, DUF6 family&lt;br&gt;Location: 113733 - 114620" locus_tag="PFL_4146" class="clusterblast-orf" id="dummy-3_h3_1_64"  />
</g>
<g id="a3_0065"  >
<polygon points="511,90 512,85 511,80 511,90 " style="fill:white; stroke-width:1; stroke:black; " description="&lt;b&gt;PFL_4147&lt;/b&gt;&lt;br&gt;putative lipoprotein&lt;br&gt;Location: 114779 - 115060" locus_tag="PFL_4147" class="clusterblast-orf" id="dummy-3_h3_1_65"  />
</g>
<g id="a3_0066"  >
<polygon points="512,85 515,80 515,90 512,85 " style="fill:white; stroke-width:1; stroke:black; " description="&lt;b&gt;PFL_4148&lt;/b&gt;&lt;br&gt;transcriptional regulator, TetR family&lt;br&gt;Location: 115070 - 115639" locus_tag="PFL_4148" class="clusterblast-orf" id="dummy-3_h3_1_66"  />
</g>
<g id="a3_0067"  >
<polygon points="515,90 518,85 515,80 515,90 " style="fill:white; stroke-width:1; stroke:black; " description="&lt;b&gt;PFL_4149&lt;/b&gt;&lt;br&gt;short chain dehydrogenase/reductase family protein&lt;br&gt;Location: 115733 - 116473" locus_tag="PFL_4149" class="clusterblast-orf" id="dummy-3_h3_1_67"  />
</g>
<g id="a3_0068"  >
<polygon points="519,90 521,85 519,80 519,90 " style="fill:white; stroke-width:1; stroke:black; " description="&lt;b&gt;PFL_4150&lt;/b&gt;&lt;br&gt;DsbA-like thioredoxin domain protein&lt;br&gt;Location: 116511 - 117107" locus_tag="PFL_4150" class="clusterblast-orf" id="dummy-3_h3_1_68"  />
</g>
<g id="a3_0069"  >
<polygon points="522,85 527,80 530,80 530,90 527,90 522,85 " style="fill:white; stroke-width:1; stroke:black; " description="&lt;b&gt;PFL_4151&lt;/b&gt;&lt;br&gt;peptidase, M24 family&lt;br&gt;Location: 117192 - 119000" locus_tag="PFL_4151" class="clusterblast-orf" id="dummy-3_h3_1_69"  />
</g>
<g id="a3_0070"  >
<polygon points="530,85 535,80 535,80 535,90 535,90 530,85 " style="fill:white; stroke-width:1; stroke:black; " description="&lt;b&gt;PFL_4152&lt;/b&gt;&lt;br&gt;aminotransferase, class V&lt;br&gt;Location: 119056 - 120225" locus_tag="PFL_4152" class="clusterblast-orf" id="dummy-3_h3_1_70"  />
</g>
<g id="a3_0071"  >
<polygon points="536,85 539,80 539,90 536,85 " style="fill:white; stroke-width:1; stroke:black; " description="&lt;b&gt;PFL_4153&lt;/b&gt;&lt;br&gt;translocator protein, LysE family&lt;br&gt;Location: 120436 - 121050" locus_tag="PFL_4153" class="clusterblast-orf" id="dummy-3_h3_1_71"  />
</g>
<g id="a3_0072"  >
<polygon points="540,85 541,80 541,90 540,85 " style="fill:white; stroke-width:1; stroke:black; " description="&lt;b&gt;PFL_4154&lt;/b&gt;&lt;br&gt;putative lipoprotein&lt;br&gt;Location: 121259 - 121483" locus_tag="PFL_4154" class="clusterblast-orf" id="dummy-3_h3_1_72"  />
</g>
<g id="a3_0073"  >
<polygon points="542,90 545,85 542,80 542,90 " style="fill:white; stroke-width:1; stroke:black; " description="&lt;b&gt;PFL_4155&lt;/b&gt;&lt;br&gt;NADH-dependent FMN reductase&lt;br&gt;Location: 121814 - 122377" locus_tag="PFL_4155" class="clusterblast-orf" id="dummy-3_h3_1_73"  />
</g>
<g id="a3_0074"  >
<polygon points="545,90 545,90 550,85 545,80 545,80 545,90 " style="fill:white; stroke-width:1; stroke:black; " description="&lt;b&gt;PFL_4156&lt;/b&gt;&lt;br&gt;methanesulfonate sulfonatase MsuD&lt;br&gt;Location: 122387 - 123526" locus_tag="PFL_4156" class="clusterblast-orf" id="dummy-3_h3_1_74"  />
</g>
<g id="a3_0075"  >
<polygon points="551,90 551,90 556,85 551,80 551,80 551,90 " style="fill:white; stroke-width:1; stroke:black; " description="&lt;b&gt;PFL_4157&lt;/b&gt;&lt;br&gt;putative monooxygenase MsuC&lt;br&gt;Location: 123661 - 124848" locus_tag="PFL_4157" class="clusterblast-orf" id="dummy-3_h3_1_75"  />
</g>
<g id="a3_0076"  >
<polygon points="556,90 556,90 561,85 556,80 556,80 556,90 " style="fill:white; stroke-width:1; stroke:black; " description="&lt;b&gt;PFL_4158&lt;/b&gt;&lt;br&gt;sigma-54 dependent transcriptional regulator&lt;br&gt;Location: 124873 - 125973" locus_tag="PFL_4158" class="clusterblast-orf" id="dummy-3_h3_1_76"  />
</g>
<g id="a3_0077"  >
<polygon points="561,85 562,80 562,90 561,85 " style="fill:white; stroke-width:1; stroke:black; " description="&lt;b&gt;PFL_4159&lt;/b&gt;&lt;br&gt;antibiotic biosynthesis monooxygenase&lt;br&gt;Location: 125970 - 126335" locus_tag="PFL_4159" class="clusterblast-orf" id="dummy-3_h3_1_77"  />
</g>
<g id="a3_0078"  >
<polygon points="563,90 565,85 563,80 563,90 " style="fill:white; stroke-width:1; stroke:black; " description="&lt;b&gt;PFL_4160&lt;/b&gt;&lt;br&gt;redox-sensitive transcriptional activator SoxR&lt;br&gt;Location: 126444 - 126917" locus_tag="PFL_4160" class="clusterblast-orf" id="dummy-3_h3_1_78"  />
</g>
<g id="a3_0079"  >
<polygon points="574,90 577,85 574,80 574,90 " style="fill:white; stroke-width:1; stroke:black; " description="&lt;b&gt;PFL_4162&lt;/b&gt;&lt;br&gt;organic radical activating enzyme family protein&lt;br&gt;Location: 128946 - 129590" locus_tag="PFL_4162" class="clusterblast-orf" id="dummy-3_h3_1_79"  />
</g>
<g id="a3_0080"  >
<polygon points="577,90 600,90 605,85 600,80 577,80 577,90 " style="fill:white; stroke-width:1; stroke:black; " description="&lt;b&gt;PFL_4163&lt;/b&gt;&lt;br&gt;histidine kinase&lt;br&gt;Location: 129606 - 135923" locus_tag="PFL_4163" class="clusterblast-orf" id="dummy-3_h3_1_80"  />
</g>
<g id="a3_0081"  >
<polygon points="605,90 606,90 611,85 606,80 605,80 605,90 " style="fill:white; stroke-width:1; stroke:black; " description="&lt;b&gt;PFL_4164&lt;/b&gt;&lt;br&gt;conserved hypothetical protein&lt;br&gt;Location: 135920 - 137254" locus_tag="PFL_4164" class="clusterblast-orf" id="dummy-3_h3_1_81"  />
</g>
<g id="a3_0082"  >
<polygon points="612,85 615,80 615,90 612,85 " style="fill:white; stroke-width:1; stroke:black; " description="&lt;b&gt;PFL_4165&lt;/b&gt;&lt;br&gt;lipoprotein, NLPA family&lt;br&gt;Location: 137352 - 138122" locus_tag="PFL_4165" class="clusterblast-orf" id="dummy-3_h3_1_82"  />
</g>
<g id="a3_0083"  >
<polygon points="615,85 618,80 618,90 615,85 " style="fill:white; stroke-width:1; stroke:black; " description="&lt;b&gt;PFL_4166&lt;/b&gt;&lt;br&gt;putative ABC transporter, permease protein&lt;br&gt;Location: 138205 - 138870" locus_tag="PFL_4166" class="clusterblast-orf" id="dummy-3_h3_1_83"  />
</g>
<g id="a3_0084"  >
<polygon points="618,85 623,80 624,80 624,90 623,90 618,85 " style="fill:white; stroke-width:1; stroke:black; " description="&lt;b&gt;PFL_4167&lt;/b&gt;&lt;br&gt;monooxygenase, DszC family&lt;br&gt;Location: 138874 - 140166" locus_tag="PFL_4167" class="clusterblast-orf" id="dummy-3_h3_1_84"  />
</g>
<g id="a3_0085"  >
<polygon points="625,90 627,85 625,80 625,90 " style="fill:white; stroke-width:1; stroke:black; " description="&lt;b&gt;PFL_4168&lt;/b&gt;&lt;br&gt;glyoxalase family protein&lt;br&gt;Location: 140381 - 140848" locus_tag="PFL_4168" class="clusterblast-orf" id="dummy-3_h3_1_85"  />
</g>
<g id="a3_0086"  >
<polygon points="628,90 629,90 634,85 629,80 628,80 628,90 " style="fill:white; stroke-width:1; stroke:black; " description="&lt;b&gt;PFL_4169&lt;/b&gt;&lt;br&gt;PepSY-associated TM helix domain protein&lt;br&gt;Location: 141145 - 142368" locus_tag="PFL_4169" class="clusterblast-orf" id="dummy-3_h3_1_86"  />
</g>
<g id="a3_0087"  >
<polygon points="634,90 636,85 634,80 634,90 " style="fill:white; stroke-width:1; stroke:black; " description="&lt;b&gt;PFL_4170&lt;/b&gt;&lt;br&gt;conserved hypothetical protein&lt;br&gt;Location: 142365 - 142907" locus_tag="PFL_4170" class="clusterblast-orf" id="dummy-3_h3_1_87"  />
</g>
<g id="a3_0088"  >
<polygon points="636,90 638,85 636,80 636,90 " style="fill:white; stroke-width:1; stroke:black; " description="&lt;b&gt;PFL_4171&lt;/b&gt;&lt;br&gt;conserved hypothetical protein&lt;br&gt;Location: 142904 - 143242" locus_tag="PFL_4171" class="clusterblast-orf" id="dummy-3_h3_1_88"  />
</g>
<g id="a3_0089"  >
<polygon points="638,90 640,85 638,80 638,90 " style="fill:white; stroke-width:1; stroke:black; " description="&lt;b&gt;PFL_4172&lt;/b&gt;&lt;br&gt;conserved hypothetical protein&lt;br&gt;Location: 143239 - 143811" locus_tag="PFL_4172" class="clusterblast-orf" id="dummy-3_h3_1_89"  />
</g>
<g id="a3_0090"  >
<polygon points="640,90 640,90 645,85 640,80 640,80 640,90 " style="fill:white; stroke-width:1; stroke:black; " description="&lt;b&gt;PFL_4173&lt;/b&gt;&lt;br&gt;cation ABC transporter, MZT family, periplasmic cation-binding protein&lt;br&gt;Location: 143847 - 144776" locus_tag="PFL_4173" class="clusterblast-orf" id="dummy-3_h3_1_90"  />
</g>
<g id="a3_0091"  >
<polygon points="645,90 648,85 645,80 645,90 " style="fill:white; stroke-width:1; stroke:black; " description="&lt;b&gt;PFL_4174&lt;/b&gt;&lt;br&gt;cation ABC transporter, MZT family, ATP-binding protein&lt;br&gt;Location: 144773 - 145516" locus_tag="PFL_4174" class="clusterblast-orf" id="dummy-3_h3_1_91"  />
</g>
<g id="a3_0092"  >
<polygon points="648,90 652,85 648,80 648,90 " style="fill:white; stroke-width:1; stroke:black; " description="&lt;b&gt;PFL_4175&lt;/b&gt;&lt;br&gt;cation ABC transporter, MZT family, permease protein&lt;br&gt;Location: 145516 - 146415" locus_tag="PFL_4175" class="clusterblast-orf" id="dummy-3_h3_1_92"  />
</g>
<g id="a3_0093"  >
<polygon points="652,90 656,85 652,80 652,90 " style="fill:white; stroke-width:1; stroke:black; " description="&lt;b&gt;PFL_4176&lt;/b&gt;&lt;br&gt;conserved hypothetical protein&lt;br&gt;Location: 146416 - 147399" locus_tag="PFL_4176" class="clusterblast-orf" id="dummy-3_h3_1_93"  />
</g>
<g id="a3_0094"  >
<polygon points="657,90 661,85 657,80 657,90 " style="fill:white; stroke-width:1; stroke:black; " description="&lt;b&gt;PFL_4177&lt;/b&gt;&lt;br&gt;methyltransferase domain protein&lt;br&gt;Location: 147611 - 148438" locus_tag="PFL_4177" class="clusterblast-orf" id="dummy-3_h3_1_94"  />
</g>
<g id="a3_0095"  >
<polygon points="662,85 663,80 663,90 662,85 " style="fill:white; stroke-width:1; stroke:black; " description="&lt;b&gt;PFL_4178&lt;/b&gt;&lt;br&gt;MbtH-like protein&lt;br&gt;Location: 148728 - 148952" locus_tag="PFL_4178" class="clusterblast-orf" id="dummy-3_h3_1_95"  />
</g>
<g id="a3_0096"  >
<polygon points="664,85 669,80 670,80 670,90 669,90 664,85 " style="fill:white; stroke-width:1; stroke:black; " description="&lt;b&gt;PFL_4179&lt;/b&gt;&lt;br&gt;2,4-diaminobutyrate 4-transaminase&lt;br&gt;Location: 149035 - 150447" locus_tag="PFL_4179" class="clusterblast-orf" id="dummy-3_h3_1_96"  />
</g>
<g id="a3_0097"  >
<polygon points="671,85 676,80 677,80 677,90 676,90 671,85 " style="fill:white; stroke-width:1; stroke:black; " description="&lt;b&gt;PFL_4180&lt;/b&gt;&lt;br&gt;sensor histidine kinase&lt;br&gt;Location: 150683 - 152008" locus_tag="PFL_4180" class="clusterblast-orf" id="dummy-3_h3_1_97"  />
</g>
<g id="a3_0098"  >
<polygon points="677,85 680,80 680,90 677,85 " style="fill:white; stroke-width:1; stroke:black; " description="&lt;b&gt;PFL_4181&lt;/b&gt;&lt;br&gt;DNA-binding response regulator&lt;br&gt;Location: 152009 - 152686" locus_tag="PFL_4181" class="clusterblast-orf" id="dummy-3_h3_1_98"  />
</g>
<g id="a3_0099"  >
<polygon points="681,90 683,90 688,85 683,80 681,80 681,90 " style="fill:white; stroke-width:1; stroke:black; " description="&lt;b&gt;PFL_4182&lt;/b&gt;&lt;br&gt;thiol:disulfide interchange protein DsbD&lt;br&gt;Location: 152840 - 154591" locus_tag="PFL_4182" class="clusterblast-orf" id="dummy-3_h3_1_99"  />
</g>
<g id="a3_00100"  >
<polygon points="688,90 692,85 688,80 688,90 " style="fill:white; stroke-width:1; stroke:black; " description="&lt;b&gt;PFL_4183&lt;/b&gt;&lt;br&gt;antioxidant, AhpC family&lt;br&gt;Location: 154591 - 155454" locus_tag="PFL_4183" class="clusterblast-orf" id="dummy-3_h3_1_100"  />
</g>
<g id="a3_00101"  >
<polygon points="692,90 695,85 692,80 692,90 " style="fill:white; stroke-width:1; stroke:black; " description="&lt;b&gt;PFL_4184&lt;/b&gt;&lt;br&gt;thiol:disulfide interchange protein DsbG&lt;br&gt;Location: 155430 - 156197" locus_tag="PFL_4184" class="clusterblast-orf" id="dummy-3_h3_1_101"  />
</g>
<g id="a3_00102"  >
<polygon points="696,85 700,80 700,90 696,85 " style="fill:white; stroke-width:1; stroke:black; " description="&lt;b&gt;PFL_4185&lt;/b&gt;&lt;br&gt;alpha/beta hydrolase family protein&lt;br&gt;Location: 156411 - 157223" locus_tag="PFL_4185" class="clusterblast-orf" id="dummy-3_h3_1_102"  />
</g>
<g id="a3_00103"  >
<polygon points="701,85 703,80 703,90 701,85 " style="fill:white; stroke-width:1; stroke:black; " description="&lt;b&gt;PFL_4186&lt;/b&gt;&lt;br&gt;conserved hypothetical protein&lt;br&gt;Location: 157332 - 157955" locus_tag="PFL_4186" class="clusterblast-orf" id="dummy-3_h3_1_103"  />
</g>
<g id="a3_00104"  >
<polygon points="705,85 709,80 709,90 705,85 " style="fill:white; stroke-width:1; stroke:black; " description="&lt;b&gt;PFL_4187&lt;/b&gt;&lt;br&gt;conserved hypothetical protein&lt;br&gt;Location: 158247 - 159296" locus_tag="PFL_4187" class="clusterblast-orf" id="dummy-3_h3_1_104"  />
</g>
<g id="a3_00105"  >
<polygon points="710,85 715,80 715,80 715,90 715,90 710,85 " style="fill:white; stroke-width:1; stroke:black; " description="&lt;b&gt;PFL_4188&lt;/b&gt;&lt;br&gt;conserved hypothetical protein&lt;br&gt;Location: 159416 - 160666" locus_tag="PFL_4188" class="clusterblast-orf" id="dummy-3_h3_1_105"  />
</g>
<g id="a3_00106"  >
<polygon points="715,85 720,80 774,80 774,90 720,90 715,85 " style="fill:white; stroke-width:1; stroke:black; " description="&lt;b&gt;PFL_4189&lt;/b&gt;&lt;br&gt;non-ribosomal peptide synthetase PvdL&lt;br&gt;Location: 160681 - 173709" locus_tag="PFL_4189" class="clusterblast-orf" id="dummy-3_h3_1_106"  />
</g>
<g id="a3_00107"  >
<polygon points="775,90 778,85 775,80 775,90 " style="fill:white; stroke-width:1; stroke:black; " description="&lt;b&gt;PFL_4190&lt;/b&gt;&lt;br&gt;RNA polymerase sigma-70 factor, ECF subfamily, PvdS&lt;br&gt;Location: 174083 - 174631" locus_tag="PFL_4190" class="clusterblast-orf" id="dummy-3_h3_1_107"  />
</g>
<g id="a3_00108"  >
<polygon points="778,85 780,80 780,90 778,85 " style="fill:white; stroke-width:1; stroke:black; " description="&lt;b&gt;PFL_4191&lt;/b&gt;&lt;br&gt;pyoverdine biosynthesis protein&lt;br&gt;Location: 174665 - 175054" locus_tag="PFL_4191" class="clusterblast-orf" id="dummy-3_h3_1_108"  />
</g>
</svg>
