<svg xmlns="http://www.w3.org/2000/svg" xmlns:xlink="http://www.w3.org/1999/xlink" version="1.1" x="0" y="0" height="230" width="800" viewBox="0 0 800 230" preserveAspectRatio="none"  >
<g label="Query sequence" class="clusterblast-cluster"  >
<text x="5" y="20" class="clusterblast-acc"  >
Query sequence</text>
<line x1="10" y1="35" x2="778.0" y2="35" style="stroke-width:1; stroke:grey; "  />
<polygon points="247,40 273,40 278,35 273,30 247,30 247,40 " style="fill:white; stroke-width:1; stroke:black; " description="&lt;b&gt;MCIC6FC_019806&lt;/b&gt;&lt;br&gt;hypothetical protein&lt;br&gt;Location: 44058 - 45851" locus_tag="MCIC6FC_019806" class="clusterblast-orf" id="dummy-1_q0_0_all"  />
<polygon points="281,35 286,30 304,30 304,40 286,40 281,35 " style="fill:white; stroke-width:1; stroke:black; " description="&lt;b&gt;MCIC6FC_019807&lt;/b&gt;&lt;br&gt;hypothetical protein&lt;br&gt;Location: 45981 - 47312" locus_tag="MCIC6FC_019807" class="clusterblast-orf" id="dummy-1_q1_0_all"  />
<polygon points="305,40 341,40 346,35 341,30 305,30 305,40 " style="fill:white; stroke-width:1; stroke:black; " description="&lt;b&gt;MCIC6FC_019808&lt;/b&gt;&lt;br&gt;hypothetical protein&lt;br&gt;Location: 47362 - 49671" locus_tag="MCIC6FC_019808" class="clusterblast-orf" id="dummy-1_q2_0_all"  />
<polygon points="356,35 361,30 385,30 385,40 361,40 356,35 " style="fill:#d81515; stroke-width:1; stroke:black; " description="&lt;b&gt;MCIC6FC_019809&lt;/b&gt;&lt;br&gt;hypothetical protein&lt;br&gt;Location: 50264 - 51899" locus_tag="MCIC6FC_019809" class="clusterblast-orf" id="dummy-1_q3_0_all"  />
<polygon points="387,40 403,40 408,35 403,30 387,30 387,40 " style="fill:white; stroke-width:1; stroke:black; " description="&lt;b&gt;MCIC6FC_019810&lt;/b&gt;&lt;br&gt;hypothetical protein&lt;br&gt;Location: 52046 - 53210" locus_tag="MCIC6FC_019810" class="clusterblast-orf" id="dummy-1_q4_0_all"  />
<polygon points="408,40 431,40 436,35 431,30 408,30 408,40 " style="fill:white; stroke-width:1; stroke:black; " description="&lt;b&gt;MCIC6FC_019811&lt;/b&gt;&lt;br&gt;hypothetical protein&lt;br&gt;Location: 53221 - 54828" locus_tag="MCIC6FC_019811" class="clusterblast-orf" id="dummy-1_q5_0_all"  />
<polygon points="436,40 479,40 484,35 479,30 436,30 436,40 " style="fill:#15d8d8; stroke-width:1; stroke:black; " description="&lt;b&gt;MCIC6FC_019812&lt;/b&gt;&lt;br&gt;hypothetical protein&lt;br&gt;Location: 54843 - 57573" locus_tag="MCIC6FC_019812" class="clusterblast-orf" id="dummy-1_q6_0_all"  />
<polygon points="486,35 491,30 496,30 496,40 491,40 486,35 " style="fill:white; stroke-width:1; stroke:black; " description="&lt;b&gt;MCIC6FC_019813&lt;/b&gt;&lt;br&gt;hypothetical protein&lt;br&gt;Location: 57648 - 58261" locus_tag="MCIC6FC_019813" class="clusterblast-orf" id="dummy-1_q7_0_all"  />
<polygon points="498,40 499,40 504,35 499,30 498,30 498,40 " style="fill:white; stroke-width:1; stroke:black; " description="&lt;b&gt;MCIC6FC_019814&lt;/b&gt;&lt;br&gt;hypothetical protein&lt;br&gt;Location: 58334 - 58685" locus_tag="MCIC6FC_019814" class="clusterblast-orf" id="dummy-1_q8_0_all"  />
<polygon points="512,40 527,40 532,35 527,30 512,30 512,40 " style="fill:white; stroke-width:1; stroke:black; " description="&lt;b&gt;MCIC6FC_019815&lt;/b&gt;&lt;br&gt;hypothetical protein&lt;br&gt;Location: 59151 - 60304" locus_tag="MCIC6FC_019815" class="clusterblast-orf" id="dummy-1_q9_0_all"  />
</g>
<g label="BGC0001103" description="BGC0001103_c1: mycosubtilin (20% of genes show similarity), NRP + Polyketide" class="clusterblast-cluster"  >
<text x="5" y="70" class="clusterblast-acc"  >
<a xlink:href="https://mibig.secondarymetabolites.org/go/BGC0001103/1" target="_blank">BGC0001103</a>:                                                                     mycosubtilin (20% of genes show similarity), NRP + Polyketide</text>
<line x1="10" y1="85" x2="778.0" y2="85" style="stroke-width:1; stroke:grey; "  />
</g>
<g id="a1_000"  >
<polygon points="0,90 16,90 21,85 16,80 0,80 0,90 " style="fill:white; stroke-width:1; stroke:black; " description="&lt;b&gt;AAF08794.1&lt;/b&gt;&lt;br&gt;FenF&lt;br&gt;Location: 1938 - 3140" locus_tag="AAF08794.1" class="clusterblast-orf" id="dummy-1_h1_2_0"  />
</g>
<g id="a1_001"  >
<polygon points="21,90 225,90 230,85 225,80 21,80 21,90 " style="fill:white; stroke-width:1; stroke:black; " description="&lt;b&gt;AAF08795.1&lt;/b&gt;&lt;br&gt;MycA&lt;br&gt;Location: 3161 - 15076" locus_tag="AAF08795.1" class="clusterblast-orf" id="dummy-1_h1_2_1"  />
</g>
<g id="a1_002"  >
<polygon points="231,90 509,90 514,85 509,80 231,80 231,90 " style="fill:white; stroke-width:1; stroke:black; " description="&lt;b&gt;AAF08796.1&lt;/b&gt;&lt;br&gt;MycB&lt;br&gt;Location: 15133 - 31242" locus_tag="AAF08796.1" class="clusterblast-orf" id="dummy-1_h1_2_2"  />
</g>
<g id="a1_003"  >
<polygon points="516,90 649,90 654,85 649,80 516,80 516,90 " style="fill:white; stroke-width:1; stroke:black; " description="&lt;b&gt;AAF08797.1&lt;/b&gt;&lt;br&gt;MycC&lt;br&gt;Location: 31340 - 39169" locus_tag="AAF08797.1" class="clusterblast-orf" id="dummy-1_h1_2_3"  />
</g>
<g id="a1_004"  >
<polygon points="657,90 658,90 663,85 658,80 657,80 657,90 " style="fill:white; stroke-width:1; stroke:black; " description="&lt;b&gt;AAF08798.1&lt;/b&gt;&lt;br&gt;YngL&lt;br&gt;Location: 39339 - 39731" locus_tag="AAF08798.1" class="clusterblast-orf" id="dummy-1_h1_2_4"  />
</g>
<g id="a1_005"  >
<polygon points="666,90 688,90 693,85 688,80 666,80 666,90 " style="fill:white; stroke-width:1; stroke:black; " description="&lt;b&gt;AAF08799.1&lt;/b&gt;&lt;br&gt;YngK&lt;br&gt;Location: 39886 - 41418" locus_tag="AAF08799.1" class="clusterblast-orf" id="dummy-1_h1_2_5"  />
</g>
<g id="a1_006"  >
<polygon points="702,90 717,90 722,85 717,80 702,80 702,90 " style="fill:white; stroke-width:1; stroke:black; " description="&lt;b&gt;AAF08800.1&lt;/b&gt;&lt;br&gt;YngJ&lt;br&gt;Location: 41925 - 43067" locus_tag="AAF08800.1" class="clusterblast-orf" id="dummy-1_h1_2_6"  />
</g>
<g id="a1_007"  >
<polygon points="723,90 747,90 752,85 747,80 723,80 723,90 " style="fill:#d81515; stroke-width:1; stroke:black; " description="&lt;b&gt;AAF08801.1&lt;/b&gt;&lt;br&gt;YngI&lt;br&gt;Location: 43110 - 44759&lt;br&gt;&lt;br&gt;&lt;b&gt;BlastP hit with MCIC6FC_019809&lt;/b&gt;&lt;br&gt;Percentage identity: 46&lt;br&gt;Percentage coverage: 99&lt;br&gt;BLAST bit score: 503&lt;br&gt;E-value: 3.1e-142" locus_tag="AAF08801.1" class="clusterblast-orf" id="dummy-1_h1_2_7"  />
</g>
<g id="a1_008"  >
<polygon points="752,90 770,90 775,85 770,80 752,80 752,90 " style="fill:#15d8d8; stroke-width:1; stroke:black; " description="&lt;b&gt;AAF08802.1&lt;/b&gt;&lt;br&gt;YngH&lt;br&gt;Location: 44769 - 46103&lt;br&gt;&lt;br&gt;&lt;b&gt;BlastP hit with MCIC6FC_019812&lt;/b&gt;&lt;br&gt;Percentage identity: 46&lt;br&gt;Percentage coverage: 49&lt;br&gt;BLAST bit score: 369&lt;br&gt;E-value: 1.8e-101" locus_tag="AAF08802.1" class="clusterblast-orf" id="dummy-1_h1_2_8"  />
</g>
<g id="a1_009"  >
<polygon points="776,90 779,85 776,80 776,90 " style="fill:white; stroke-width:1; stroke:black; " description="&lt;b&gt;AAF08803.1&lt;/b&gt;&lt;br&gt;YngXX&lt;br&gt;Location: 46118 - 46339" locus_tag="AAF08803.1" class="clusterblast-orf" id="dummy-1_h1_2_9"  />
</g>
</svg>
