<svg xmlns="http://www.w3.org/2000/svg" xmlns:xlink="http://www.w3.org/1999/xlink" version="1.1" x="0" y="0" height="50" width="800" viewBox="0 0 800 50" preserveAspectRatio="none"  >
<g label="Query sequence" class="clusterblast-cluster"  >
<text x="5" y="20" class="clusterblast-acc"  >
Query sequence</text>
<line x1="10" y1="35" x2="778.0" y2="35" style="stroke-width:1; stroke:grey; "  />
<polygon points="0,35 5,30 24,30 24,40 5,40 0,35 " style="fill:white; stroke-width:1; stroke:black; " description="&lt;b&gt;MCIC6FC_002123&lt;/b&gt;&lt;br&gt;hypothetical protein&lt;br&gt;Location: 121 - 848" locus_tag="MCIC6FC_002123" class="clusterblast-orf" id="knownclusterblast-1_q0_0_all"  />
<polygon points="30,40 51,40 56,35 51,30 30,30 30,40 " style="fill:white; stroke-width:1; stroke:black; " description="&lt;b&gt;MCIC6FC_002124&lt;/b&gt;&lt;br&gt;hypothetical protein&lt;br&gt;Location: 1018 - 1774" locus_tag="MCIC6FC_002124" class="clusterblast-orf" id="knownclusterblast-1_q1_0_all"  />
<polygon points="65,35 70,30 121,30 121,40 70,40 65,35 " style="fill:white; stroke-width:1; stroke:black; " description="&lt;b&gt;MCIC6FC_002125&lt;/b&gt;&lt;br&gt;hypothetical protein&lt;br&gt;Location: 2041 - 3727" locus_tag="MCIC6FC_002125" class="clusterblast-orf" id="knownclusterblast-1_q2_0_all"  />
<polygon points="132,35 137,30 158,30 158,40 137,40 132,35 " style="fill:white; stroke-width:1; stroke:black; " description="&lt;b&gt;MCIC6FC_002126&lt;/b&gt;&lt;br&gt;hypothetical protein&lt;br&gt;Location: 4035 - 4825" locus_tag="MCIC6FC_002126" class="clusterblast-orf" id="knownclusterblast-1_q3_0_all"  />
<polygon points="166,40 518,40 523,35 518,30 166,30 166,40 " style="fill:white; stroke-width:1; stroke:black; " description="&lt;b&gt;MCIC6FC_002127&lt;/b&gt;&lt;br&gt;hypothetical protein&lt;br&gt;Location: 5057 - 15635" locus_tag="MCIC6FC_002127" class="clusterblast-orf" id="knownclusterblast-1_q4_0_all"  />
<polygon points="526,35 531,30 555,30 555,40 531,40 526,35 " style="fill:white; stroke-width:1; stroke:black; " description="&lt;b&gt;MCIC6FC_002128&lt;/b&gt;&lt;br&gt;hypothetical protein&lt;br&gt;Location: 15728 - 16598" locus_tag="MCIC6FC_002128" class="clusterblast-orf" id="knownclusterblast-1_q5_0_all"  />
<polygon points="558,40 600,40 605,35 600,30 558,30 558,40 " style="fill:white; stroke-width:1; stroke:black; " description="&lt;b&gt;MCIC6FC_002129&lt;/b&gt;&lt;br&gt;hypothetical protein&lt;br&gt;Location: 16700 - 18073" locus_tag="MCIC6FC_002129" class="clusterblast-orf" id="knownclusterblast-1_q6_0_all"  />
<polygon points="626,40 661,40 666,35 661,30 626,30 626,40 " style="fill:white; stroke-width:1; stroke:black; " description="&lt;b&gt;MCIC6FC_002130&lt;/b&gt;&lt;br&gt;hypothetical protein&lt;br&gt;Location: 18704 - 19908" locus_tag="MCIC6FC_002130" class="clusterblast-orf" id="knownclusterblast-1_q7_0_all"  />
<polygon points="669,35 674,30 720,30 720,40 674,40 669,35 " style="fill:white; stroke-width:1; stroke:black; " description="&lt;b&gt;MCIC6FC_002131&lt;/b&gt;&lt;br&gt;hypothetical protein&lt;br&gt;Location: 19975 - 21492" locus_tag="MCIC6FC_002131" class="clusterblast-orf" id="knownclusterblast-1_q8_0_all"  />
<polygon points="724,40 763,40 768,35 763,30 724,30 724,40 " style="fill:white; stroke-width:1; stroke:black; " description="&lt;b&gt;MCIC6FC_002132&lt;/b&gt;&lt;br&gt;hypothetical protein&lt;br&gt;Location: 21620 - 22910" locus_tag="MCIC6FC_002132" class="clusterblast-orf" id="knownclusterblast-1_q9_0_all"  />
<polygon points="768,40 775,40 780,35 775,30 768,30 768,40 " style="fill:white; stroke-width:1; stroke:black; " description="&lt;b&gt;MCIC6FC_002133&lt;/b&gt;&lt;br&gt;hypothetical protein&lt;br&gt;Location: 22934 - 23272" locus_tag="MCIC6FC_002133" class="clusterblast-orf" id="knownclusterblast-1_q10_0_all"  />
</g>
</svg>
