<svg xmlns="http://www.w3.org/2000/svg" xmlns:xlink="http://www.w3.org/1999/xlink" version="1.1" x="0" y="0" height="200" width="800" viewBox="0 0 800 200" preserveAspectRatio="none"  >
<g label="Query sequence" class="clusterblast-cluster"  >
<text x="5" y="20" class="clusterblast-acc"  >
Query sequence</text>
<line x1="10" y1="35" x2="778.0" y2="35" style="stroke-width:1; stroke:grey; "  />
<polygon points="0,40 1,40 6,35 1,30 0,30 0,40 " style="fill:white; stroke-width:1; stroke:black; " description="&lt;b&gt;MCIC6FC_022236&lt;/b&gt;&lt;br&gt;hypothetical protein&lt;br&gt;Location: 31694 - 32090" locus_tag="MCIC6FC_022236" class="clusterblast-orf" id="knownclusterblast-1_q0_0_all"  />
<polygon points="6,35 10,30 10,40 6,35 " style="fill:white; stroke-width:1; stroke:black; " description="&lt;b&gt;MCIC6FC_022237&lt;/b&gt;&lt;br&gt;hypothetical protein&lt;br&gt;Location: 32123 - 32348" locus_tag="MCIC6FC_022237" class="clusterblast-orf" id="knownclusterblast-1_q1_0_all"  />
<polygon points="17,40 104,40 109,35 104,30 17,30 17,40 " style="fill:white; stroke-width:1; stroke:black; " description="&lt;b&gt;MCIC6FC_022238&lt;/b&gt;&lt;br&gt;hypothetical protein&lt;br&gt;Location: 32807 - 38607" locus_tag="MCIC6FC_022238" class="clusterblast-orf" id="knownclusterblast-1_q2_0_all"  />
<polygon points="109,35 114,30 140,30 140,40 114,40 109,35 " style="fill:white; stroke-width:1; stroke:black; " description="&lt;b&gt;MCIC6FC_022239&lt;/b&gt;&lt;br&gt;hypothetical protein&lt;br&gt;Location: 38646 - 40566" locus_tag="MCIC6FC_022239" class="clusterblast-orf" id="knownclusterblast-1_q3_0_all"  />
<polygon points="146,35 151,30 166,30 166,40 151,40 146,35 " style="fill:white; stroke-width:1; stroke:black; " description="&lt;b&gt;MCIC6FC_022240&lt;/b&gt;&lt;br&gt;hypothetical protein&lt;br&gt;Location: 40945 - 42244" locus_tag="MCIC6FC_022240" class="clusterblast-orf" id="knownclusterblast-1_q4_0_all"  />
<polygon points="170,40 196,40 201,35 196,30 170,30 170,40 " style="fill:white; stroke-width:1; stroke:black; " description="&lt;b&gt;MCIC6FC_022241&lt;/b&gt;&lt;br&gt;hypothetical protein&lt;br&gt;Location: 42488 - 44434" locus_tag="MCIC6FC_022241" class="clusterblast-orf" id="knownclusterblast-1_q5_0_all"  />
<polygon points="202,40 236,40 241,35 236,30 202,30 202,40 " style="fill:white; stroke-width:1; stroke:black; " description="&lt;b&gt;MCIC6FC_022242&lt;/b&gt;&lt;br&gt;hypothetical protein&lt;br&gt;Location: 44506 - 46980" locus_tag="MCIC6FC_022242" class="clusterblast-orf" id="knownclusterblast-1_q6_0_all"  />
<polygon points="247,40 251,35 247,30 247,40 " style="fill:#d81515; stroke-width:1; stroke:black; " description="&lt;b&gt;MCIC6FC_022243&lt;/b&gt;&lt;br&gt;hypothetical protein&lt;br&gt;Location: 47369 - 47636" locus_tag="MCIC6FC_022243" class="clusterblast-orf" id="knownclusterblast-1_q7_0_all"  />
<polygon points="255,40 318,40 323,35 318,30 255,30 255,40 " style="fill:white; stroke-width:1; stroke:black; " description="&lt;b&gt;MCIC6FC_022244&lt;/b&gt;&lt;br&gt;hypothetical protein&lt;br&gt;Location: 47865 - 52152" locus_tag="MCIC6FC_022244" class="clusterblast-orf" id="knownclusterblast-1_q8_0_all"  />
<polygon points="324,40 397,40 402,35 397,30 324,30 324,40 " style="fill:#15d863; stroke-width:1; stroke:black; " description="&lt;b&gt;MCIC6FC_022245&lt;/b&gt;&lt;br&gt;hypothetical protein&lt;br&gt;Location: 52203 - 57151" locus_tag="MCIC6FC_022245" class="clusterblast-orf" id="knownclusterblast-1_q9_0_all"  />
<polygon points="402,40 406,40 411,35 406,30 402,30 402,40 " style="fill:#1563d8; stroke-width:1; stroke:black; " description="&lt;b&gt;MCIC6FC_022246&lt;/b&gt;&lt;br&gt;hypothetical protein&lt;br&gt;Location: 57154 - 57728" locus_tag="MCIC6FC_022246" class="clusterblast-orf" id="knownclusterblast-1_q10_0_all"  />
<polygon points="411,40 424,40 429,35 424,30 411,30 411,40 " style="fill:#b115d8; stroke-width:1; stroke:black; " description="&lt;b&gt;MCIC6FC_022247&lt;/b&gt;&lt;br&gt;hypothetical protein&lt;br&gt;Location: 57748 - 58885" locus_tag="MCIC6FC_022247" class="clusterblast-orf" id="knownclusterblast-1_q11_0_all"  />
<polygon points="430,40 462,40 467,35 462,30 430,30 430,40 " style="fill:#b1d815; stroke-width:1; stroke:black; " description="&lt;b&gt;MCIC6FC_022248&lt;/b&gt;&lt;br&gt;hypothetical protein&lt;br&gt;Location: 58922 - 61311" locus_tag="MCIC6FC_022248" class="clusterblast-orf" id="knownclusterblast-1_q12_0_all"  />
<polygon points="473,35 478,30 493,30 493,40 478,40 473,35 " style="fill:white; stroke-width:1; stroke:black; " description="&lt;b&gt;MCIC6FC_022249&lt;/b&gt;&lt;br&gt;hypothetical protein&lt;br&gt;Location: 61664 - 62953" locus_tag="MCIC6FC_022249" class="clusterblast-orf" id="knownclusterblast-1_q13_0_all"  />
<polygon points="496,40 514,40 519,35 514,30 496,30 496,40 " style="fill:white; stroke-width:1; stroke:black; " description="&lt;b&gt;MCIC6FC_022250&lt;/b&gt;&lt;br&gt;hypothetical protein&lt;br&gt;Location: 63108 - 64568" locus_tag="MCIC6FC_022250" class="clusterblast-orf" id="knownclusterblast-1_q14_0_all"  />
<polygon points="524,35 529,30 536,30 536,40 529,40 524,35 " style="fill:white; stroke-width:1; stroke:black; " description="&lt;b&gt;MCIC6FC_022251&lt;/b&gt;&lt;br&gt;hypothetical protein&lt;br&gt;Location: 64918 - 65662" locus_tag="MCIC6FC_022251" class="clusterblast-orf" id="knownclusterblast-1_q15_0_all"  />
<polygon points="546,40 603,40 608,35 603,30 546,30 546,40 " style="fill:white; stroke-width:1; stroke:black; " description="&lt;b&gt;MCIC6FC_022252&lt;/b&gt;&lt;br&gt;hypothetical protein&lt;br&gt;Location: 66305 - 70227" locus_tag="MCIC6FC_022252" class="clusterblast-orf" id="knownclusterblast-1_q16_0_all"  />
<polygon points="614,35 619,30 620,30 620,40 619,40 614,35 " style="fill:white; stroke-width:1; stroke:black; " description="&lt;b&gt;MCIC6FC_022253&lt;/b&gt;&lt;br&gt;hypothetical protein&lt;br&gt;Location: 70588 - 70990" locus_tag="MCIC6FC_022253" class="clusterblast-orf" id="knownclusterblast-1_q17_0_all"  />
<polygon points="636,40 665,40 670,35 665,30 636,30 636,40 " style="fill:white; stroke-width:1; stroke:black; " description="&lt;b&gt;MCIC6FC_022254&lt;/b&gt;&lt;br&gt;hypothetical protein&lt;br&gt;Location: 71980 - 74154" locus_tag="MCIC6FC_022254" class="clusterblast-orf" id="knownclusterblast-1_q18_0_all"  />
<polygon points="671,35 676,30 688,30 688,40 676,40 671,35 " style="fill:white; stroke-width:1; stroke:black; " description="&lt;b&gt;MCIC6FC_022255&lt;/b&gt;&lt;br&gt;hypothetical protein&lt;br&gt;Location: 74193 - 75265" locus_tag="MCIC6FC_022255" class="clusterblast-orf" id="knownclusterblast-1_q19_0_all"  />
<polygon points="694,35 699,30 717,30 717,40 699,40 694,35 " style="fill:white; stroke-width:1; stroke:black; " description="&lt;b&gt;MCIC6FC_022256&lt;/b&gt;&lt;br&gt;hypothetical protein&lt;br&gt;Location: 75641 - 77103" locus_tag="MCIC6FC_022256" class="clusterblast-orf" id="knownclusterblast-1_q20_0_all"  />
<polygon points="721,35 726,30 731,30 731,40 726,40 721,35 " style="fill:white; stroke-width:1; stroke:black; " description="&lt;b&gt;MCIC6FC_022257&lt;/b&gt;&lt;br&gt;hypothetical protein&lt;br&gt;Location: 77349 - 78013" locus_tag="MCIC6FC_022257" class="clusterblast-orf" id="knownclusterblast-1_q21_0_all"  />
<polygon points="732,35 737,30 768,30 768,40 737,40 732,35 " style="fill:white; stroke-width:1; stroke:black; " description="&lt;b&gt;MCIC6FC_022258&lt;/b&gt;&lt;br&gt;hypothetical protein&lt;br&gt;Location: 78075 - 80367" locus_tag="MCIC6FC_022258" class="clusterblast-orf" id="knownclusterblast-1_q22_0_all"  />
<polygon points="771,35 776,30 780,30 780,40 776,40 771,35 " style="fill:white; stroke-width:1; stroke:black; " description="&lt;b&gt;MCIC6FC_022259&lt;/b&gt;&lt;br&gt;hypothetical protein&lt;br&gt;Location: 80507 - 81083" locus_tag="MCIC6FC_022259" class="clusterblast-orf" id="knownclusterblast-1_q23_0_all"  />
</g>
<g label="BGC0000836" description="BGC0000836_c1: APE Ec (26% of genes show similarity), Other" class="clusterblast-cluster"  >
<text x="5" y="70" class="clusterblast-acc"  >
<a xlink:href="https://mibig.secondarymetabolites.org/go/BGC0000836/1" target="_blank">BGC0000836</a>:                                                                           APE Ec (26% of genes show similarity), Other</text>
<line x1="10" y1="85" x2="778.0" y2="85" style="stroke-width:1; stroke:grey; "  />
</g>
<g id="a1_000"  >
<polygon points="271,90 272,90 277,85 272,80 271,80 271,90 " style="fill:#d81515; stroke-width:1; stroke:black; " description="&lt;b&gt;c1204&lt;/b&gt;&lt;br&gt;Conserved hypothetical protein&lt;br&gt;Location: 15022 - 14633&lt;br&gt;&lt;br&gt;&lt;b&gt;BlastP hit with MCIC6FC_022243&lt;/b&gt;&lt;br&gt;Percentage identity: 58&lt;br&gt;Percentage coverage: 98&lt;br&gt;BLAST bit score: 103&lt;br&gt;E-value: 1.5e-22" locus_tag="c1204" class="clusterblast-orf" id="knownclusterblast-1_all_1_1_0"  />
</g>
<g id="a1_001"  >
<polygon points="278,90 290,90 295,85 290,80 278,80 278,90 " style="fill:white; stroke-width:1; stroke:black; " description="&lt;b&gt;c1203&lt;/b&gt;&lt;br&gt;Putative O-methyltransferase&lt;br&gt;Location: 14568 - 13510" locus_tag="c1203" class="clusterblast-orf" id="knownclusterblast-1_all_1_1_1"  />
</g>
<g id="a1_002"  >
<polygon points="295,90 302,90 307,85 302,80 295,80 295,90 " style="fill:white; stroke-width:1; stroke:black; " description="&lt;b&gt;c1202&lt;/b&gt;&lt;br&gt;Conserved hypothetical protein&lt;br&gt;Location: 13493 - 12747" locus_tag="c1202" class="clusterblast-orf" id="knownclusterblast-1_all_1_1_2"  />
</g>
<g id="a1_003"  >
<polygon points="306,90 315,90 320,85 315,80 306,80 306,90 " style="fill:white; stroke-width:1; stroke:black; " description="&lt;b&gt;c1201&lt;/b&gt;&lt;br&gt;Putative phospholipid biosynthesis acyltransferase&lt;br&gt;Location: 12768 - 11929" locus_tag="c1201" class="clusterblast-orf" id="knownclusterblast-1_all_1_1_3"  />
</g>
<g id="a1_004"  >
<polygon points="319,90 323,85 319,80 319,90 " style="fill:white; stroke-width:1; stroke:black; " description="&lt;b&gt;c1200&lt;/b&gt;&lt;br&gt;Putative acyl carrier protein&lt;br&gt;Location: 11954 - 11697" locus_tag="c1200" class="clusterblast-orf" id="knownclusterblast-1_all_1_1_4"  />
</g>
<g id="a1_005"  >
<polygon points="324,90 328,85 324,80 324,90 " style="fill:white; stroke-width:1; stroke:black; " description="&lt;b&gt;c1199&lt;/b&gt;&lt;br&gt;Putative acyl carrier protein&lt;br&gt;Location: 11685 - 11434" locus_tag="c1199" class="clusterblast-orf" id="knownclusterblast-1_all_1_1_5"  />
</g>
<g id="a1_006"  >
<polygon points="328,90 332,90 337,85 332,80 328,80 328,90 " style="fill:white; stroke-width:1; stroke:black; " description="&lt;b&gt;c1198&lt;/b&gt;&lt;br&gt;Conserved hypothetical protein&lt;br&gt;Location: 11432 - 10848" locus_tag="c1198" class="clusterblast-orf" id="knownclusterblast-1_all_1_1_6"  />
</g>
<g id="a1_007"  >
<polygon points="337,90 353,90 358,85 353,80 337,80 337,90 " style="fill:white; stroke-width:1; stroke:black; " description="&lt;b&gt;c1197&lt;/b&gt;&lt;br&gt;Putative enzyme&lt;br&gt;Location: 10851 - 9493" locus_tag="c1197" class="clusterblast-orf" id="knownclusterblast-1_all_1_1_7"  />
</g>
<g id="a1_008"  >
<polygon points="358,90 359,90 364,85 359,80 358,80 358,90 " style="fill:white; stroke-width:1; stroke:black; " description="&lt;b&gt;c1196&lt;/b&gt;&lt;br&gt;Conserved hypothetical protein&lt;br&gt;Location: 9530 - 9153" locus_tag="c1196" class="clusterblast-orf" id="knownclusterblast-1_all_1_1_8"  />
</g>
<g id="a1_009"  >
<polygon points="363,90 365,85 363,80 363,90 " style="fill:white; stroke-width:1; stroke:black; " description="&lt;b&gt;c1195&lt;/b&gt;&lt;br&gt;Hypothetical protein&lt;br&gt;Location: 9202 - 9080" locus_tag="c1195" class="clusterblast-orf" id="knownclusterblast-1_all_1_1_9"  />
</g>
<g id="a1_0010"  >
<polygon points="364,90 385,90 390,85 385,80 364,80 364,90 " style="fill:white; stroke-width:1; stroke:black; " description="&lt;b&gt;c1194&lt;/b&gt;&lt;br&gt;Putative enzyme&lt;br&gt;Location: 9108 - 7486" locus_tag="c1194" class="clusterblast-orf" id="knownclusterblast-1_all_1_1_10"  />
</g>
<g id="a1_0011"  >
<polygon points="390,90 392,90 397,85 392,80 390,80 390,90 " style="fill:white; stroke-width:1; stroke:black; " description="&lt;b&gt;c1193&lt;/b&gt;&lt;br&gt;Hypothetical protein&lt;br&gt;Location: 7482 - 7060" locus_tag="c1193" class="clusterblast-orf" id="knownclusterblast-1_all_1_1_11"  />
</g>
<g id="a1_0012"  >
<polygon points="397,90 401,90 406,85 401,80 397,80 397,90 " style="fill:white; stroke-width:1; stroke:black; " description="&lt;b&gt;c1192&lt;/b&gt;&lt;br&gt;Conserved hypothetical protein&lt;br&gt;Location: 7063 - 6458" locus_tag="c1192" class="clusterblast-orf" id="knownclusterblast-1_all_1_1_12"  />
</g>
<g id="a1_0013"  >
<polygon points="406,90 437,90 442,85 437,80 406,80 406,90 " style="fill:#15d863; stroke-width:1; stroke:black; " description="&lt;b&gt;c1191&lt;/b&gt;&lt;br&gt;Conserved hypothetical protein&lt;br&gt;Location: 6489 - 4171&lt;br&gt;&lt;br&gt;&lt;b&gt;BlastP hit with MCIC6FC_022245&lt;/b&gt;&lt;br&gt;Percentage identity: 60&lt;br&gt;Percentage coverage: 43&lt;br&gt;BLAST bit score: 781&lt;br&gt;E-value: 2.9e-225" locus_tag="c1191" class="clusterblast-orf" id="knownclusterblast-1_all_1_1_13"  />
</g>
<g id="a1_0014"  >
<polygon points="442,90 446,90 451,85 446,80 442,80 442,90 " style="fill:#1563d8; stroke-width:1; stroke:black; " description="&lt;b&gt;c1190&lt;/b&gt;&lt;br&gt;Conserved hypothetical protein&lt;br&gt;Location: 4174 - 3590&lt;br&gt;&lt;br&gt;&lt;b&gt;BlastP hit with MCIC6FC_022246&lt;/b&gt;&lt;br&gt;Percentage identity: 51&lt;br&gt;Percentage coverage: 107&lt;br&gt;BLAST bit score: 173&lt;br&gt;E-value: 3e-43" locus_tag="c1190" class="clusterblast-orf" id="knownclusterblast-1_all_1_1_14"  />
</g>
<g id="a1_0015"  >
<polygon points="451,90 465,90 470,85 465,80 451,80 451,90 " style="fill:#b115d8; stroke-width:1; stroke:black; " description="&lt;b&gt;c1189&lt;/b&gt;&lt;br&gt;Putative 3-oxoacyl-[ACP] synthase&lt;br&gt;Location: 3597 - 2419&lt;br&gt;&lt;br&gt;&lt;b&gt;BlastP hit with MCIC6FC_022247&lt;/b&gt;&lt;br&gt;Percentage identity: 68&lt;br&gt;Percentage coverage: 100&lt;br&gt;BLAST bit score: 500&lt;br&gt;E-value: 2.4e-141" locus_tag="c1189" class="clusterblast-orf" id="knownclusterblast-1_all_1_1_15"  />
</g>
<g id="a1_0016"  >
<polygon points="470,90 472,90 477,85 472,80 470,80 470,90 " style="fill:white; stroke-width:1; stroke:black; " description="&lt;b&gt;c1188&lt;/b&gt;&lt;br&gt;Conserved hypothetical protein&lt;br&gt;Location: 2422 - 1958" locus_tag="c1188" class="clusterblast-orf" id="knownclusterblast-1_all_1_1_16"  />
</g>
<g id="a1_0017"  >
<polygon points="477,90 484,90 489,85 484,80 477,80 477,90 " style="fill:white; stroke-width:1; stroke:black; " description="&lt;b&gt;c1187&lt;/b&gt;&lt;br&gt;3-oxoacyl-[acyl-carrier protein] reductase&lt;br&gt;Location: 1958 - 1227" locus_tag="c1187" class="clusterblast-orf" id="knownclusterblast-1_all_1_1_17"  />
</g>
<g id="a1_0018"  >
<polygon points="489,90 503,90 508,85 503,80 489,80 489,90 " style="fill:#b1d815; stroke-width:1; stroke:black; " description="&lt;b&gt;c1186&lt;/b&gt;&lt;br&gt;Putative beta-ketoacyl-ACP synthase&lt;br&gt;Location: 1230 - 1&lt;br&gt;&lt;br&gt;&lt;b&gt;BlastP hit with MCIC6FC_022248&lt;/b&gt;&lt;br&gt;Percentage identity: 72&lt;br&gt;Percentage coverage: 57&lt;br&gt;BLAST bit score: 607&lt;br&gt;E-value: 3.4e-173" locus_tag="c1186" class="clusterblast-orf" id="knownclusterblast-1_all_1_1_18"  />
</g>
<g label="BGC0002008" description="BGC0002008_c1: aryl polyenes (27% of genes show similarity), Other" class="clusterblast-cluster"  >
<text x="5" y="120" class="clusterblast-acc"  >
<a xlink:href="https://mibig.secondarymetabolites.org/go/BGC0002008/1" target="_blank">BGC0002008</a>:                                                                    aryl polyenes (27% of genes show similarity), Other</text>
<line x1="10" y1="135" x2="778.0" y2="135" style="stroke-width:1; stroke:grey; "  />
</g>
<g id="a1_000"  >
<polygon points="269,140 270,140 275,135 270,130 269,130 269,140 " style="fill:#d81515; stroke-width:1; stroke:black; " description="&lt;b&gt;XDD1_RS15980&lt;/b&gt;&lt;br&gt;hypothetical protein&lt;br&gt;Location: 1 - 390&lt;br&gt;&lt;br&gt;&lt;b&gt;BlastP hit with MCIC6FC_022243&lt;/b&gt;&lt;br&gt;Percentage identity: 56&lt;br&gt;Percentage coverage: 100&lt;br&gt;BLAST bit score: 104&lt;br&gt;E-value: 6.7e-23" locus_tag="XDD1_RS15980" class="clusterblast-orf" id="knownclusterblast-1_all_1_2_0"  />
</g>
<g id="a1_001"  >
<polygon points="277,140 289,140 294,135 289,130 277,130 277,140 " style="fill:white; stroke-width:1; stroke:black; " description="&lt;b&gt;XDD1_RS15985&lt;/b&gt;&lt;br&gt;SAM-dependent methyltransferase&lt;br&gt;Location: 503 - 1576" locus_tag="XDD1_RS15985" class="clusterblast-orf" id="knownclusterblast-1_all_1_2_1"  />
</g>
<g id="a1_002"  >
<polygon points="294,140 301,140 306,135 301,130 294,130 294,140 " style="fill:white; stroke-width:1; stroke:black; " description="&lt;b&gt;XDD1_RS15990&lt;/b&gt;&lt;br&gt;beta-ketoacyl synthase chain length factor&lt;br&gt;Location: 1590 - 2309" locus_tag="XDD1_RS15990" class="clusterblast-orf" id="knownclusterblast-1_all_1_2_2"  />
</g>
<g id="a1_003"  >
<polygon points="306,140 313,140 318,135 313,130 306,130 306,140 " style="fill:white; stroke-width:1; stroke:black; " description="&lt;b&gt;XDD1_RS15995&lt;/b&gt;&lt;br&gt;1-acyl-sn-glycerol-3-phosphate acyltransferase&lt;br&gt;Location: 2311 - 3102" locus_tag="XDD1_RS15995" class="clusterblast-orf" id="knownclusterblast-1_all_1_2_3"  />
</g>
<g id="a1_004"  >
<polygon points="318,140 322,135 318,130 318,140 " style="fill:white; stroke-width:1; stroke:black; " description="&lt;b&gt;XDD1_RS16000&lt;/b&gt;&lt;br&gt;acyl carrier protein&lt;br&gt;Location: 3121 - 3378" locus_tag="XDD1_RS16000" class="clusterblast-orf" id="knownclusterblast-1_all_1_2_4"  />
</g>
<g id="a1_005"  >
<polygon points="323,140 327,135 323,130 323,140 " style="fill:white; stroke-width:1; stroke:black; " description="&lt;b&gt;XDD1_RS16005&lt;/b&gt;&lt;br&gt;acyl carrier protein&lt;br&gt;Location: 3393 - 3641" locus_tag="XDD1_RS16005" class="clusterblast-orf" id="knownclusterblast-1_all_1_2_5"  />
</g>
<g id="a1_006"  >
<polygon points="328,140 331,140 336,135 331,130 328,130 328,140 " style="fill:white; stroke-width:1; stroke:black; " description="&lt;b&gt;XDD1_RS16010&lt;/b&gt;&lt;br&gt;DNA gyrase subunit B&lt;br&gt;Location: 3733 - 4254" locus_tag="XDD1_RS16010" class="clusterblast-orf" id="knownclusterblast-1_all_1_2_6"  />
</g>
<g id="a1_007"  >
<polygon points="336,140 353,140 358,135 353,130 336,130 336,140 " style="fill:white; stroke-width:1; stroke:black; " description="&lt;b&gt;XDD1_RS16015&lt;/b&gt;&lt;br&gt;acyl-CoA synthetase&lt;br&gt;Location: 4224 - 5636" locus_tag="XDD1_RS16015" class="clusterblast-orf" id="knownclusterblast-1_all_1_2_7"  />
</g>
<g id="a1_008"  >
<polygon points="358,140 359,140 364,135 359,130 358,130 358,140 " style="fill:white; stroke-width:1; stroke:black; " description="&lt;b&gt;XDD1_RS16020&lt;/b&gt;&lt;br&gt;hydroxymyristoyl-ACP dehydratase&lt;br&gt;Location: 5623 - 5982" locus_tag="XDD1_RS16020" class="clusterblast-orf" id="knownclusterblast-1_all_1_2_8"  />
</g>
<g id="a1_009"  >
<polygon points="363,140 385,140 390,135 385,130 363,130 363,140 " style="fill:white; stroke-width:1; stroke:black; " description="&lt;b&gt;XDD1_RS16025&lt;/b&gt;&lt;br&gt;glycosyltransferase family 2 protein&lt;br&gt;Location: 5973 - 7688" locus_tag="XDD1_RS16025" class="clusterblast-orf" id="knownclusterblast-1_all_1_2_9"  />
</g>
<g id="a1_0010"  >
<polygon points="391,140 392,140 397,135 392,130 391,130 391,140 " style="fill:white; stroke-width:1; stroke:black; " description="&lt;b&gt;XDD1_RS16030&lt;/b&gt;&lt;br&gt;acyl-CoA thioesterase&lt;br&gt;Location: 7693 - 8115" locus_tag="XDD1_RS16030" class="clusterblast-orf" id="knownclusterblast-1_all_1_2_10"  />
</g>
<g id="a1_0011"  >
<polygon points="397,140 402,140 407,135 402,130 397,130 397,140 " style="fill:white; stroke-width:1; stroke:black; " description="&lt;b&gt;XDD1_RS16035&lt;/b&gt;&lt;br&gt;outer membrane lipoprotein carrier protein LolA&lt;br&gt;Location: 8133 - 8735" locus_tag="XDD1_RS16035" class="clusterblast-orf" id="knownclusterblast-1_all_1_2_11"  />
</g>
<g id="a1_0012"  >
<polygon points="407,140 438,140 443,135 438,130 407,130 407,140 " style="fill:#15d863; stroke-width:1; stroke:black; " description="&lt;b&gt;XDD1_RS16040&lt;/b&gt;&lt;br&gt;MMPL family transporter&lt;br&gt;Location: 8707 - 11031&lt;br&gt;&lt;br&gt;&lt;b&gt;BlastP hit with MCIC6FC_022245&lt;/b&gt;&lt;br&gt;Percentage identity: 57&lt;br&gt;Percentage coverage: 43&lt;br&gt;BLAST bit score: 753&lt;br&gt;E-value: 4.9e-217" locus_tag="XDD1_RS16040" class="clusterblast-orf" id="knownclusterblast-1_all_1_2_12"  />
</g>
<g id="a1_0013"  >
<polygon points="443,140 447,140 452,135 447,130 443,130 443,140 " style="fill:#1563d8; stroke-width:1; stroke:black; " description="&lt;b&gt;XDD1_RS16045&lt;/b&gt;&lt;br&gt;DUF3261 domain-containing protein&lt;br&gt;Location: 11028 - 11591&lt;br&gt;&lt;br&gt;&lt;b&gt;BlastP hit with MCIC6FC_022246&lt;/b&gt;&lt;br&gt;Percentage identity: 53&lt;br&gt;Percentage coverage: 109&lt;br&gt;BLAST bit score: 177&lt;br&gt;E-value: 2.1e-44" locus_tag="XDD1_RS16045" class="clusterblast-orf" id="knownclusterblast-1_all_1_2_13"  />
</g>
<g id="a1_0014"  >
<polygon points="452,140 466,140 471,135 466,130 452,130 452,140 " style="fill:#b115d8; stroke-width:1; stroke:black; " description="&lt;b&gt;XDD1_RS16050&lt;/b&gt;&lt;br&gt;beta-ketoacyl-[acyl-carrier-protein] synthase family protein&lt;br&gt;Location: 11595 - 12770&lt;br&gt;&lt;br&gt;&lt;b&gt;BlastP hit with MCIC6FC_022247&lt;/b&gt;&lt;br&gt;Percentage identity: 64&lt;br&gt;Percentage coverage: 101&lt;br&gt;BLAST bit score: 488&lt;br&gt;E-value: 1.2e-137" locus_tag="XDD1_RS16050" class="clusterblast-orf" id="knownclusterblast-1_all_1_2_14"  />
</g>
<g id="a1_0015"  >
<polygon points="471,140 474,140 479,135 474,130 471,130 471,140 " style="fill:white; stroke-width:1; stroke:black; " description="&lt;b&gt;XDD1_RS16055&lt;/b&gt;&lt;br&gt;hotdog family protein&lt;br&gt;Location: 12788 - 13267" locus_tag="XDD1_RS16055" class="clusterblast-orf" id="knownclusterblast-1_all_1_2_15"  />
</g>
<g id="a1_0016"  >
<polygon points="479,140 485,140 490,135 485,130 479,130 479,140 " style="fill:white; stroke-width:1; stroke:black; " description="&lt;b&gt;XDD1_RS16060&lt;/b&gt;&lt;br&gt;3-oxoacyl-ACP reductase FabG&lt;br&gt;Location: 13264 - 13995" locus_tag="XDD1_RS16060" class="clusterblast-orf" id="knownclusterblast-1_all_1_2_16"  />
</g>
<g id="a1_0017"  >
<polygon points="490,140 505,140 510,135 505,130 490,130 490,140 " style="fill:#b1d815; stroke-width:1; stroke:black; " description="&lt;b&gt;XDD1_RS16065&lt;/b&gt;&lt;br&gt;beta-ketoacyl-ACP synthase&lt;br&gt;Location: 13992 - 15251&lt;br&gt;&lt;br&gt;&lt;b&gt;BlastP hit with MCIC6FC_022248&lt;/b&gt;&lt;br&gt;Percentage identity: 68&lt;br&gt;Percentage coverage: 57&lt;br&gt;BLAST bit score: 568&lt;br&gt;E-value: 1.3e-161" locus_tag="XDD1_RS16065" class="clusterblast-orf" id="knownclusterblast-1_all_1_2_17"  />
</g>
<g label="BGC0000837" description="BGC0000837_c1: APE Vf (10% of genes show similarity), Other" class="clusterblast-cluster"  >
<text x="5" y="170" class="clusterblast-acc"  >
<a xlink:href="https://mibig.secondarymetabolites.org/go/BGC0000837/1" target="_blank">BGC0000837</a>:                                                                           APE Vf (10% of genes show similarity), Other</text>
<line x1="10" y1="185" x2="778.0" y2="185" style="stroke-width:1; stroke:grey; "  />
</g>
<g id="a1_000"  >
<polygon points="243,185 248,180 263,180 263,190 248,190 243,185 " style="fill:white; stroke-width:1; stroke:black; " description="&lt;b&gt;VF_0841&lt;/b&gt;&lt;br&gt;dehydrogenase&lt;br&gt;Location: 1 - 1233" locus_tag="VF_0841" class="clusterblast-orf" id="knownclusterblast-1_all_1_3_0"  />
</g>
<g id="a1_001"  >
<polygon points="264,185 269,180 281,180 281,190 269,190 264,185 " style="fill:white; stroke-width:1; stroke:black; " description="&lt;b&gt;VF_0842&lt;/b&gt;&lt;br&gt;putative O-methyltransferase&lt;br&gt;Location: 1333 - 2400" locus_tag="VF_0842" class="clusterblast-orf" id="knownclusterblast-1_all_1_3_1"  />
</g>
<g id="a1_002"  >
<polygon points="283,185 288,180 292,180 292,190 288,190 283,185 " style="fill:white; stroke-width:1; stroke:black; " description="&lt;b&gt;VF_0843&lt;/b&gt;&lt;br&gt;lipoprotein, putative&lt;br&gt;Location: 2504 - 3079" locus_tag="VF_0843" class="clusterblast-orf" id="knownclusterblast-1_all_1_3_2"  />
</g>
<g id="a1_003"  >
<polygon points="294,190 300,190 305,185 300,180 294,180 294,190 " style="fill:white; stroke-width:1; stroke:black; " description="&lt;b&gt;VF_0844&lt;/b&gt;&lt;br&gt;hypothetical protein&lt;br&gt;Location: 3209 - 3937" locus_tag="VF_0844" class="clusterblast-orf" id="knownclusterblast-1_all_1_3_3"  />
</g>
<g id="a1_004"  >
<polygon points="305,190 313,190 318,185 313,180 305,180 305,190 " style="fill:white; stroke-width:1; stroke:black; " description="&lt;b&gt;VF_0845&lt;/b&gt;&lt;br&gt;1-acyl-sn-glycerol-3-phosphate acyltransferase&lt;br&gt;Location: 3942 - 4739" locus_tag="VF_0845" class="clusterblast-orf" id="knownclusterblast-1_all_1_3_4"  />
</g>
<g id="a1_005"  >
<polygon points="317,190 317,190 322,185 317,180 317,180 317,190 " style="fill:white; stroke-width:1; stroke:black; " description="&lt;b&gt;VF_0846&lt;/b&gt;&lt;br&gt;acyl carrier protein&lt;br&gt;Location: 4708 - 5004" locus_tag="VF_0846" class="clusterblast-orf" id="knownclusterblast-1_all_1_3_5"  />
</g>
<g id="a1_006"  >
<polygon points="322,190 326,185 322,180 322,190 " style="fill:white; stroke-width:1; stroke:black; " description="&lt;b&gt;VF_0847&lt;/b&gt;&lt;br&gt;acyl carrier protein&lt;br&gt;Location: 5016 - 5273" locus_tag="VF_0847" class="clusterblast-orf" id="knownclusterblast-1_all_1_3_6"  />
</g>
<g id="a1_007"  >
<polygon points="326,190 330,190 335,185 330,180 326,180 326,190 " style="fill:white; stroke-width:1; stroke:black; " description="&lt;b&gt;VF_0848&lt;/b&gt;&lt;br&gt;DNA gyrase subunit B&lt;br&gt;Location: 5273 - 5833" locus_tag="VF_0848" class="clusterblast-orf" id="knownclusterblast-1_all_1_3_7"  />
</g>
<g id="a1_008"  >
<polygon points="335,190 352,190 357,185 352,180 335,180 335,190 " style="fill:white; stroke-width:1; stroke:black; " description="&lt;b&gt;VF_0849&lt;/b&gt;&lt;br&gt;AMP-(fatty)acid ligase&lt;br&gt;Location: 5794 - 7197" locus_tag="VF_0849" class="clusterblast-orf" id="knownclusterblast-1_all_1_3_8"  />
</g>
<g id="a1_009"  >
<polygon points="357,190 358,190 363,185 358,180 357,180 357,190 " style="fill:white; stroke-width:1; stroke:black; " description="&lt;b&gt;VF_0850&lt;/b&gt;&lt;br&gt;AMP-(fatty)acid ligase&lt;br&gt;Location: 7211 - 7585" locus_tag="VF_0850" class="clusterblast-orf" id="knownclusterblast-1_all_1_3_9"  />
</g>
<g id="a1_0010"  >
<polygon points="363,190 385,190 390,185 385,180 363,180 363,190 " style="fill:white; stroke-width:1; stroke:black; " description="&lt;b&gt;VF_0851&lt;/b&gt;&lt;br&gt;predicted acyltransferase&lt;br&gt;Location: 7588 - 9279" locus_tag="VF_0851" class="clusterblast-orf" id="knownclusterblast-1_all_1_3_10"  />
</g>
<g id="a1_0011"  >
<polygon points="389,190 409,190 414,185 409,180 389,180 389,190 " style="fill:white; stroke-width:1; stroke:black; " description="&lt;b&gt;VF_0852&lt;/b&gt;&lt;br&gt;phenylalanine and histidine ammonia-lyase&lt;br&gt;Location: 9269 - 10804" locus_tag="VF_0852" class="clusterblast-orf" id="knownclusterblast-1_all_1_3_11"  />
</g>
<g id="a1_0012"  >
<polygon points="414,190 416,190 421,185 416,180 414,180 414,190 " style="fill:white; stroke-width:1; stroke:black; " description="&lt;b&gt;VF_0853&lt;/b&gt;&lt;br&gt;esterase&lt;br&gt;Location: 10816 - 11262" locus_tag="VF_0853" class="clusterblast-orf" id="knownclusterblast-1_all_1_3_12"  />
</g>
<g id="a1_0013"  >
<polygon points="421,190 426,190 431,185 426,180 421,180 421,190 " style="fill:white; stroke-width:1; stroke:black; " description="&lt;b&gt;VF_0854&lt;/b&gt;&lt;br&gt;hypothetical protein&lt;br&gt;Location: 11255 - 11875" locus_tag="VF_0854" class="clusterblast-orf" id="knownclusterblast-1_all_1_3_13"  />
</g>
<g id="a1_0014"  >
<polygon points="439,190 464,190 469,185 464,180 439,180 439,190 " style="fill:white; stroke-width:1; stroke:black; " description="&lt;b&gt;VF_0855&lt;/b&gt;&lt;br&gt;transporter&lt;br&gt;Location: 12397 - 14292" locus_tag="VF_0855" class="clusterblast-orf" id="knownclusterblast-1_all_1_3_14"  />
</g>
<g id="a1_0015"  >
<polygon points="469,190 474,190 479,185 474,180 469,180 469,190 " style="fill:white; stroke-width:1; stroke:black; " description="&lt;b&gt;VF_0856&lt;/b&gt;&lt;br&gt;phospho-N-acetylmuramoyl-pentapeptide- transferase&lt;br&gt;Location: 14282 - 14908" locus_tag="VF_0856" class="clusterblast-orf" id="knownclusterblast-1_all_1_3_15"  />
</g>
<g id="a1_0016"  >
<polygon points="479,190 492,190 497,185 492,180 479,180 479,190 " style="fill:#b115d8; stroke-width:1; stroke:black; " description="&lt;b&gt;VF_0857&lt;/b&gt;&lt;br&gt;3-oxoacyl-(acyl carrier protein) synthase&lt;br&gt;Location: 14914 - 16101&lt;br&gt;&lt;br&gt;&lt;b&gt;BlastP hit with MCIC6FC_022247&lt;/b&gt;&lt;br&gt;Percentage identity: 50&lt;br&gt;Percentage coverage: 101&lt;br&gt;BLAST bit score: 361&lt;br&gt;E-value: 1.7e-99" locus_tag="VF_0857" class="clusterblast-orf" id="knownclusterblast-1_all_1_3_16"  />
</g>
<g id="a1_0017"  >
<polygon points="497,190 500,190 505,185 500,180 497,180 497,190 " style="fill:white; stroke-width:1; stroke:black; " description="&lt;b&gt;VF_0858&lt;/b&gt;&lt;br&gt;predicted 3-hydroxylacyl-(acyl carrier protein) dehydratase&lt;br&gt;Location: 16092 - 16562" locus_tag="VF_0858" class="clusterblast-orf" id="knownclusterblast-1_all_1_3_17"  />
</g>
<g id="a1_0018"  >
<polygon points="505,190 511,190 516,185 511,180 505,180 505,190 " style="fill:white; stroke-width:1; stroke:black; " description="&lt;b&gt;VF_0859&lt;/b&gt;&lt;br&gt;3-oxoacyl-(acyl-carrier-protein) reductase, putative&lt;br&gt;Location: 16582 - 17307" locus_tag="VF_0859" class="clusterblast-orf" id="knownclusterblast-1_all_1_3_18"  />
</g>
<g id="a1_0019"  >
<polygon points="516,190 531,190 536,185 531,180 516,180 516,190 " style="fill:#b1d815; stroke-width:1; stroke:black; " description="&lt;b&gt;VF_0860&lt;/b&gt;&lt;br&gt;3-oxoacyl-(acyl carrier protein) synthase&lt;br&gt;Location: 17304 - 18539&lt;br&gt;&lt;br&gt;&lt;b&gt;BlastP hit with MCIC6FC_022248&lt;/b&gt;&lt;br&gt;Percentage identity: 65&lt;br&gt;Percentage coverage: 57&lt;br&gt;BLAST bit score: 520&lt;br&gt;E-value: 3.2e-147" locus_tag="VF_0860" class="clusterblast-orf" id="knownclusterblast-1_all_1_3_19"  />
</g>
</svg>
