<svg xmlns="http://www.w3.org/2000/svg" xmlns:xlink="http://www.w3.org/1999/xlink" version="1.1" x="0" y="0" height="230" width="800" viewBox="0 0 800 230" preserveAspectRatio="none"  >
<g label="Query sequence" class="clusterblast-cluster"  >
<text x="5" y="20" class="clusterblast-acc"  >
Query sequence</text>
<line x1="10" y1="35" x2="778.0" y2="35" style="stroke-width:1; stroke:grey; "  />
<polygon points="0,35 5,30 20,30 20,40 5,40 0,35 " style="fill:#d81515; stroke-width:1; stroke:black; " description="&lt;b&gt;MCIC6FC_005786&lt;/b&gt;&lt;br&gt;hypothetical protein&lt;br&gt;Location: 1910200 - 1912388" locus_tag="MCIC6FC_005786" class="clusterblast-orf" id="dummy-3_q0_0_all"  />
<polygon points="21,40 58,40 63,35 58,30 21,30 21,40 " style="fill:#54d815; stroke-width:1; stroke:black; " description="&lt;b&gt;MCIC6FC_005787&lt;/b&gt;&lt;br&gt;hypothetical protein&lt;br&gt;Location: 1912502 - 1917042" locus_tag="MCIC6FC_005787" class="clusterblast-orf" id="dummy-3_q1_0_all"  />
<polygon points="64,35 69,30 80,30 80,40 69,40 64,35 " style="fill:#15c1d8; stroke-width:1; stroke:black; " description="&lt;b&gt;MCIC6FC_005788&lt;/b&gt;&lt;br&gt;hypothetical protein&lt;br&gt;Location: 1917174 - 1918868" locus_tag="MCIC6FC_005788" class="clusterblast-orf" id="dummy-3_q2_0_all"  />
<polygon points="82,40 102,40 107,35 102,30 82,30 82,40 " style="fill:#8215d8; stroke-width:1; stroke:black; " description="&lt;b&gt;MCIC6FC_005789&lt;/b&gt;&lt;br&gt;hypothetical protein&lt;br&gt;Location: 1919075 - 1921770" locus_tag="MCIC6FC_005789" class="clusterblast-orf" id="dummy-3_q3_0_all"  />
<polygon points="108,40 111,40 116,35 111,30 108,30 108,40 " style="fill:#d84415; stroke-width:1; stroke:black; " description="&lt;b&gt;MCIC6FC_005790&lt;/b&gt;&lt;br&gt;hypothetical protein&lt;br&gt;Location: 1921817 - 1922711" locus_tag="MCIC6FC_005790" class="clusterblast-orf" id="dummy-3_q4_0_all"  />
<polygon points="116,35 121,30 125,30 125,40 121,40 116,35 " style="fill:#25d815; stroke-width:1; stroke:black; " description="&lt;b&gt;MCIC6FC_005791&lt;/b&gt;&lt;br&gt;hypothetical protein&lt;br&gt;Location: 1922765 - 1923740" locus_tag="MCIC6FC_005791" class="clusterblast-orf" id="dummy-3_q5_0_all"  />
<polygon points="126,40 163,40 168,35 163,30 126,30 126,40 " style="fill:#1592d8; stroke-width:1; stroke:black; " description="&lt;b&gt;MCIC6FC_005792&lt;/b&gt;&lt;br&gt;hypothetical protein&lt;br&gt;Location: 1923829 - 1928328" locus_tag="MCIC6FC_005792" class="clusterblast-orf" id="dummy-3_q6_0_all"  />
<polygon points="169,35 174,30 457,30 457,40 174,40 169,35 " style="fill:#b115d8; stroke-width:1; stroke:black; " description="&lt;b&gt;MCIC6FC_005793&lt;/b&gt;&lt;br&gt;hypothetical protein&lt;br&gt;Location: 1928467 - 1959441" locus_tag="MCIC6FC_005793" class="clusterblast-orf" id="dummy-3_q7_0_all"  />
<polygon points="459,40 463,40 468,35 463,30 459,30 459,40 " style="fill:#d87315; stroke-width:1; stroke:black; " description="&lt;b&gt;MCIC6FC_005794&lt;/b&gt;&lt;br&gt;hypothetical protein&lt;br&gt;Location: 1959602 - 1960571" locus_tag="MCIC6FC_005794" class="clusterblast-orf" id="dummy-3_q8_0_all"  />
<polygon points="468,35 473,30 487,30 487,40 473,40 468,35 " style="fill:#15d834; stroke-width:1; stroke:black; " description="&lt;b&gt;MCIC6FC_005795&lt;/b&gt;&lt;br&gt;hypothetical protein&lt;br&gt;Location: 1960675 - 1962660" locus_tag="MCIC6FC_005795" class="clusterblast-orf" id="dummy-3_q9_0_all"  />
<polygon points="488,40 489,40 494,35 489,30 488,30 488,40 " style="fill:#1563d8; stroke-width:1; stroke:black; " description="&lt;b&gt;MCIC6FC_005796&lt;/b&gt;&lt;br&gt;hypothetical protein&lt;br&gt;Location: 1962795 - 1963383" locus_tag="MCIC6FC_005796" class="clusterblast-orf" id="dummy-3_q10_0_all"  />
<polygon points="495,40 497,40 502,35 497,30 495,30 495,40 " style="fill:#d815d0; stroke-width:1; stroke:black; " description="&lt;b&gt;MCIC6FC_005797&lt;/b&gt;&lt;br&gt;hypothetical protein&lt;br&gt;Location: 1963495 - 1964296" locus_tag="MCIC6FC_005797" class="clusterblast-orf" id="dummy-3_q11_0_all"  />
<polygon points="503,40 564,40 569,35 564,30 503,30 503,40 " style="fill:white; stroke-width:1; stroke:black; " description="&lt;b&gt;MCIC6FC_005798&lt;/b&gt;&lt;br&gt;hypothetical protein&lt;br&gt;Location: 1964348 - 1971527" locus_tag="MCIC6FC_005798" class="clusterblast-orf" id="dummy-3_q12_0_all"  />
<polygon points="569,35 574,30 578,30 578,40 574,40 569,35 " style="fill:#d8a215; stroke-width:1; stroke:black; " description="&lt;b&gt;MCIC6FC_005799&lt;/b&gt;&lt;br&gt;hypothetical protein&lt;br&gt;Location: 1971536 - 1972520" locus_tag="MCIC6FC_005799" class="clusterblast-orf" id="dummy-3_q13_0_all"  />
<polygon points="579,40 581,40 586,35 581,30 579,30 579,40 " style="fill:#15d863; stroke-width:1; stroke:black; " description="&lt;b&gt;MCIC6FC_005800&lt;/b&gt;&lt;br&gt;hypothetical protein&lt;br&gt;Location: 1972612 - 1973299" locus_tag="MCIC6FC_005800" class="clusterblast-orf" id="dummy-3_q14_0_all"  />
<polygon points="586,35 589,30 589,40 586,35 " style="fill:#1534d8; stroke-width:1; stroke:black; " description="&lt;b&gt;MCIC6FC_005801&lt;/b&gt;&lt;br&gt;hypothetical protein&lt;br&gt;Location: 1973303 - 1973648" locus_tag="MCIC6FC_005801" class="clusterblast-orf" id="dummy-3_q15_0_all"  />
<polygon points="589,35 594,30 595,30 595,40 594,40 589,35 " style="fill:#d815a2; stroke-width:1; stroke:black; " description="&lt;b&gt;MCIC6FC_005802&lt;/b&gt;&lt;br&gt;hypothetical protein&lt;br&gt;Location: 1973672 - 1974304" locus_tag="MCIC6FC_005802" class="clusterblast-orf" id="dummy-3_q16_0_all"  />
<polygon points="596,40 603,40 608,35 603,30 596,30 596,40 " style="fill:#d8d015; stroke-width:1; stroke:black; " description="&lt;b&gt;MCIC6FC_005803&lt;/b&gt;&lt;br&gt;hypothetical protein&lt;br&gt;Location: 1974391 - 1975716" locus_tag="MCIC6FC_005803" class="clusterblast-orf" id="dummy-3_q17_0_all"  />
<polygon points="611,35 616,30 619,30 619,40 616,40 611,35 " style="fill:#15d892; stroke-width:1; stroke:black; " description="&lt;b&gt;MCIC6FC_005804&lt;/b&gt;&lt;br&gt;hypothetical protein&lt;br&gt;Location: 1976049 - 1976838" locus_tag="MCIC6FC_005804" class="clusterblast-orf" id="dummy-3_q18_0_all"  />
<polygon points="619,40 630,40 635,35 630,30 619,30 619,40 " style="fill:white; stroke-width:1; stroke:black; " description="&lt;b&gt;MCIC6FC_005805&lt;/b&gt;&lt;br&gt;hypothetical protein&lt;br&gt;Location: 1976898 - 1978654" locus_tag="MCIC6FC_005805" class="clusterblast-orf" id="dummy-3_q19_0_all"  />
<polygon points="636,35 640,30 640,40 636,35 " style="fill:#2515d8; stroke-width:1; stroke:black; " description="&lt;b&gt;MCIC6FC_005806&lt;/b&gt;&lt;br&gt;hypothetical protein&lt;br&gt;Location: 1978716 - 1979176" locus_tag="MCIC6FC_005806" class="clusterblast-orf" id="dummy-3_q20_0_all"  />
<polygon points="642,40 653,40 658,35 653,30 642,30 642,40 " style="fill:#d81573; stroke-width:1; stroke:black; " description="&lt;b&gt;MCIC6FC_005807&lt;/b&gt;&lt;br&gt;hypothetical protein&lt;br&gt;Location: 1979309 - 1981063" locus_tag="MCIC6FC_005807" class="clusterblast-orf" id="dummy-3_q21_0_all"  />
<polygon points="659,35 664,30 669,30 669,40 664,40 659,35 " style="fill:#b1d815; stroke-width:1; stroke:black; " description="&lt;b&gt;MCIC6FC_005808&lt;/b&gt;&lt;br&gt;hypothetical protein&lt;br&gt;Location: 1981136 - 1982256" locus_tag="MCIC6FC_005808" class="clusterblast-orf" id="dummy-3_q22_0_all"  />
<polygon points="669,35 674,30 701,30 701,40 674,40 669,35 " style="fill:#15d8c1; stroke-width:1; stroke:black; " description="&lt;b&gt;MCIC6FC_005809&lt;/b&gt;&lt;br&gt;hypothetical protein&lt;br&gt;Location: 1982279 - 1985697" locus_tag="MCIC6FC_005809" class="clusterblast-orf" id="dummy-3_q23_0_all"  />
<polygon points="705,40 715,40 720,35 715,30 705,30 705,40 " style="fill:#5415d8; stroke-width:1; stroke:black; " description="&lt;b&gt;MCIC6FC_005810&lt;/b&gt;&lt;br&gt;hypothetical protein&lt;br&gt;Location: 1986109 - 1987765" locus_tag="MCIC6FC_005810" class="clusterblast-orf" id="dummy-3_q24_0_all"  />
<polygon points="721,40 722,40 727,35 722,30 721,30 721,40 " style="fill:#d81544; stroke-width:1; stroke:black; " description="&lt;b&gt;MCIC6FC_005811&lt;/b&gt;&lt;br&gt;hypothetical protein&lt;br&gt;Location: 1987866 - 1988532" locus_tag="MCIC6FC_005811" class="clusterblast-orf" id="dummy-3_q25_0_all"  />
<polygon points="732,40 734,40 739,35 734,30 732,30 732,40 " style="fill:#82d815; stroke-width:1; stroke:black; " description="&lt;b&gt;MCIC6FC_005812&lt;/b&gt;&lt;br&gt;hypothetical protein&lt;br&gt;Location: 1989036 - 1989803" locus_tag="MCIC6FC_005812" class="clusterblast-orf" id="dummy-3_q26_0_all"  />
<polygon points="739,35 744,30 780,30 780,40 744,40 739,35 " style="fill:white; stroke-width:1; stroke:black; " description="&lt;b&gt;MCIC6FC_005813&lt;/b&gt;&lt;br&gt;hypothetical protein&lt;br&gt;Location: 1989807 - 1994168" locus_tag="MCIC6FC_005813" class="clusterblast-orf" id="dummy-3_q27_0_all"  />
</g>
<g label="BGC0002001" description="BGC0002001_c1: crochelin A (7% of genes show similarity), NRP + Polyketide" class="clusterblast-cluster"  >
<text x="5" y="70" class="clusterblast-acc"  >
<a xlink:href="https://mibig.secondarymetabolites.org/go/BGC0002001/1" target="_blank">BGC0002001</a>:                                                                      crochelin A (7% of genes show similarity), NRP + Polyketide</text>
<line x1="10" y1="85" x2="778.0" y2="85" style="stroke-width:1; stroke:grey; "  />
</g>
<g id="a3_000"  >
<polygon points="156,90 159,90 164,85 159,80 156,80 156,90 " style="fill:white; stroke-width:1; stroke:black; " description="&lt;b&gt;Achr_RS19525&lt;/b&gt;&lt;br&gt;ATP-binding cassette domain-containing protein&lt;br&gt;Location: 1 - 768" locus_tag="Achr_RS19525" class="clusterblast-orf" id="dummy-3_h3_3_0"  />
</g>
<g id="a3_001"  >
<polygon points="164,85 166,80 166,90 164,85 " style="fill:white; stroke-width:1; stroke:black; " description="&lt;b&gt;Achr_RS25415&lt;/b&gt;&lt;br&gt;hypothetical protein&lt;br&gt;Location: 813 - 1033" locus_tag="Achr_RS25415" class="clusterblast-orf" id="dummy-3_h3_3_1"  />
</g>
<g id="a3_002"  >
<polygon points="167,85 172,80 179,80 179,90 172,90 167,85 " style="fill:white; stroke-width:1; stroke:black; " description="&lt;b&gt;Achr_RS19530&lt;/b&gt;&lt;br&gt;PepSY domain-containing protein&lt;br&gt;Location: 1101 - 2444" locus_tag="Achr_RS19530" class="clusterblast-orf" id="dummy-3_h3_3_2"  />
</g>
<g id="a3_003"  >
<polygon points="179,85 184,80 195,80 195,90 184,90 179,85 " style="fill:white; stroke-width:1; stroke:black; " description="&lt;b&gt;Achr_RS19535&lt;/b&gt;&lt;br&gt;cyclic peptide export ABC transporter&lt;br&gt;Location: 2441 - 4102" locus_tag="Achr_RS19535" class="clusterblast-orf" id="dummy-3_h3_3_3"  />
</g>
<g id="a3_004"  >
<polygon points="196,85 201,80 218,80 218,90 201,90 196,85 " style="fill:white; stroke-width:1; stroke:black; " description="&lt;b&gt;Achr_RS19540&lt;/b&gt;&lt;br&gt;penicillin acylase family protein&lt;br&gt;Location: 4234 - 6663" locus_tag="Achr_RS19540" class="clusterblast-orf" id="dummy-3_h3_3_4"  />
</g>
<g id="a3_005"  >
<polygon points="220,85 225,80 230,80 230,90 225,90 220,85 " style="fill:white; stroke-width:1; stroke:black; " description="&lt;b&gt;Achr_RS19545&lt;/b&gt;&lt;br&gt;histone deacetylase family protein&lt;br&gt;Location: 6836 - 7879" locus_tag="Achr_RS19545" class="clusterblast-orf" id="dummy-3_h3_3_5"  />
</g>
<g id="a3_006"  >
<polygon points="230,85 235,80 237,80 237,90 235,90 230,85 " style="fill:#25d815; stroke-width:1; stroke:black; " description="&lt;b&gt;Achr_RS19550&lt;/b&gt;&lt;br&gt;N(5)-hydroxyornithine transformylase PvdF&lt;br&gt;Location: 7892 - 8716&lt;br&gt;&lt;br&gt;&lt;b&gt;BlastP hit with MCIC6FC_005791&lt;/b&gt;&lt;br&gt;Percentage identity: 68&lt;br&gt;Percentage coverage: 85&lt;br&gt;BLAST bit score: 378&lt;br&gt;E-value: 1.5e-104" locus_tag="Achr_RS19550" class="clusterblast-orf" id="dummy-3_h3_3_6"  />
</g>
<g id="a3_007"  >
<polygon points="241,90 249,90 254,85 249,80 241,80 241,90 " style="fill:white; stroke-width:1; stroke:black; " description="&lt;b&gt;Achr_RS19555&lt;/b&gt;&lt;br&gt;aminotransferase class III-fold pyridoxal phosphate-dependent enzyme&lt;br&gt;Location: 9082 - 10524" locus_tag="Achr_RS19555" class="clusterblast-orf" id="dummy-3_h3_3_7"  />
</g>
<g id="a3_008"  >
<polygon points="255,90 271,90 276,85 271,80 255,80 255,90 " style="fill:white; stroke-width:1; stroke:black; " description="&lt;b&gt;Achr_RS19560&lt;/b&gt;&lt;br&gt;TonB-dependent siderophore receptor&lt;br&gt;Location: 10590 - 12854" locus_tag="Achr_RS19560" class="clusterblast-orf" id="dummy-3_h3_3_8"  />
</g>
<g id="a3_009"  >
<polygon points="278,85 283,80 316,80 316,90 283,90 278,85 " style="fill:white; stroke-width:1; stroke:black; " description="&lt;b&gt;Achr_RS19570&lt;/b&gt;&lt;br&gt;amino acid adenylation domain-containing protein&lt;br&gt;Location: 13069 - 17136" locus_tag="Achr_RS19570" class="clusterblast-orf" id="dummy-3_h3_3_9"  />
</g>
<g id="a3_0010"  >
<polygon points="316,85 321,80 388,80 388,90 321,90 316,85 " style="fill:white; stroke-width:1; stroke:black; " description="&lt;b&gt;Achr_RS19575&lt;/b&gt;&lt;br&gt;non-ribosomal peptide synthetase&lt;br&gt;Location: 17133 - 24944" locus_tag="Achr_RS19575" class="clusterblast-orf" id="dummy-3_h3_3_10"  />
</g>
<g id="a3_0011"  >
<polygon points="388,85 393,80 419,80 419,90 393,90 388,85 " style="fill:white; stroke-width:1; stroke:black; " description="&lt;b&gt;Achr_RS19580&lt;/b&gt;&lt;br&gt;non-ribosomal peptide synthetase&lt;br&gt;Location: 24948 - 28274" locus_tag="Achr_RS19580" class="clusterblast-orf" id="dummy-3_h3_3_11"  />
</g>
<g id="a3_0012"  >
<polygon points="423,85 428,80 466,80 466,90 428,90 423,85 " style="fill:white; stroke-width:1; stroke:black; " description="&lt;b&gt;Achr_RS19585&lt;/b&gt;&lt;br&gt;type I polyketide synthase&lt;br&gt;Location: 28716 - 33278" locus_tag="Achr_RS19585" class="clusterblast-orf" id="dummy-3_h3_3_12"  />
</g>
<g id="a3_0013"  >
<polygon points="466,85 471,80 515,80 515,90 471,90 466,85 " style="fill:white; stroke-width:1; stroke:black; " description="&lt;b&gt;Achr_RS19590&lt;/b&gt;&lt;br&gt;non-ribosomal peptide synthetase&lt;br&gt;Location: 33275 - 38572" locus_tag="Achr_RS19590" class="clusterblast-orf" id="dummy-3_h3_3_13"  />
</g>
<g id="a3_0014"  >
<polygon points="515,85 520,80 524,80 524,90 520,90 515,85 " style="fill:white; stroke-width:1; stroke:black; " description="&lt;b&gt;Achr_RS19595&lt;/b&gt;&lt;br&gt;hypothetical protein&lt;br&gt;Location: 38601 - 39578" locus_tag="Achr_RS19595" class="clusterblast-orf" id="dummy-3_h3_3_14"  />
</g>
<g id="a3_0015"  >
<polygon points="525,85 530,80 532,80 532,90 530,90 525,85 " style="fill:white; stroke-width:1; stroke:black; " description="&lt;b&gt;Achr_RS19600&lt;/b&gt;&lt;br&gt;thioesterase&lt;br&gt;Location: 39660 - 40397" locus_tag="Achr_RS19600" class="clusterblast-orf" id="dummy-3_h3_3_15"  />
</g>
<g id="a3_0016"  >
<polygon points="532,85 534,80 534,90 532,85 " style="fill:white; stroke-width:1; stroke:black; " description="&lt;b&gt;Achr_RS19605&lt;/b&gt;&lt;br&gt;MbtH family NRPS accessory protein&lt;br&gt;Location: 40408 - 40650" locus_tag="Achr_RS19605" class="clusterblast-orf" id="dummy-3_h3_3_16"  />
</g>
<g id="a3_0017"  >
<polygon points="537,90 541,85 537,80 537,90 " style="fill:white; stroke-width:1; stroke:black; " description="&lt;b&gt;Achr_RS19610&lt;/b&gt;&lt;br&gt;DUF4880 domain-containing protein&lt;br&gt;Location: 40938 - 41354" locus_tag="Achr_RS19610" class="clusterblast-orf" id="dummy-3_h3_3_17"  />
</g>
<g id="a3_0018"  >
<polygon points="542,90 548,90 553,85 548,80 542,80 542,90 " style="fill:white; stroke-width:1; stroke:black; " description="&lt;b&gt;Achr_RS19615&lt;/b&gt;&lt;br&gt;efflux RND transporter periplasmic adaptor subunit&lt;br&gt;Location: 41499 - 42650" locus_tag="Achr_RS19615" class="clusterblast-orf" id="dummy-3_h3_3_18"  />
</g>
<g id="a3_0019"  >
<polygon points="553,90 562,90 567,85 562,80 553,80 553,90 " style="fill:white; stroke-width:1; stroke:black; " description="&lt;b&gt;Achr_RS19620&lt;/b&gt;&lt;br&gt;efflux transporter outer membrane subunit&lt;br&gt;Location: 42738 - 44171" locus_tag="Achr_RS19620" class="clusterblast-orf" id="dummy-3_h3_3_19"  />
</g>
<g id="a3_0020"  >
<polygon points="569,90 569,90 574,85 569,80 569,80 569,90 " style="fill:white; stroke-width:1; stroke:black; " description="&lt;b&gt;Achr_RS19625&lt;/b&gt;&lt;br&gt;RNA polymerase factor sigma-70&lt;br&gt;Location: 44415 - 44960" locus_tag="Achr_RS19625" class="clusterblast-orf" id="dummy-3_h3_3_20"  />
</g>
<g id="a3_0021"  >
<polygon points="576,90 579,85 576,80 576,90 " style="fill:white; stroke-width:1; stroke:black; " description="&lt;b&gt;Achr_RS19630&lt;/b&gt;&lt;br&gt;hypothetical protein&lt;br&gt;Location: 45166 - 45540" locus_tag="Achr_RS19630" class="clusterblast-orf" id="dummy-3_h3_3_21"  />
</g>
<g id="a3_0022"  >
<polygon points="582,85 587,80 594,80 594,90 587,90 582,85 " style="fill:#d81515; stroke-width:1; stroke:black; " description="&lt;b&gt;Achr_RS19635&lt;/b&gt;&lt;br&gt;lysine N(6)-hydroxylase/L-ornithine N(5)-oxygenase family protein&lt;br&gt;Location: 45792 - 47093&lt;br&gt;&lt;br&gt;&lt;b&gt;BlastP hit with MCIC6FC_005786&lt;/b&gt;&lt;br&gt;Percentage identity: 47&lt;br&gt;Percentage coverage: 65&lt;br&gt;BLAST bit score: 381&lt;br&gt;E-value: 3.6e-105" locus_tag="Achr_RS19635" class="clusterblast-orf" id="dummy-3_h3_3_22"  />
</g>
<g id="a3_0023"  >
<polygon points="595,85 600,80 600,80 600,90 600,90 595,85 " style="fill:white; stroke-width:1; stroke:black; " description="&lt;b&gt;Achr_RS19640&lt;/b&gt;&lt;br&gt;hypothetical protein&lt;br&gt;Location: 47222 - 47743" locus_tag="Achr_RS19640" class="clusterblast-orf" id="dummy-3_h3_3_23"  />
</g>
<g id="a3_0024"  >
<polygon points="600,85 605,80 620,80 620,90 605,90 600,85 " style="fill:white; stroke-width:1; stroke:black; " description="&lt;b&gt;Achr_RS24430&lt;/b&gt;&lt;br&gt;non-ribosomal peptide synthetase&lt;br&gt;Location: 47794 - 49899" locus_tag="Achr_RS24430" class="clusterblast-orf" id="dummy-3_h3_3_24"  />
</g>
<g id="a3_0025"  >
<polygon points="621,85 623,80 623,90 621,85 " style="fill:white; stroke-width:1; stroke:black; " description="&lt;b&gt;Achr_RS19650&lt;/b&gt;&lt;br&gt;MbtH family protein&lt;br&gt;Location: 49972 - 50175" locus_tag="Achr_RS19650" class="clusterblast-orf" id="dummy-3_h3_3_25"  />
</g>
</svg>
