<svg xmlns="http://www.w3.org/2000/svg" xmlns:xlink="http://www.w3.org/1999/xlink" version="1.1" x="0" y="0" height="50" width="800" viewBox="0 0 800 50" preserveAspectRatio="none"  >
<g label="Query sequence" class="clusterblast-cluster"  >
<text x="5" y="20" class="clusterblast-acc"  >
Query sequence</text>
<line x1="10" y1="35" x2="778.0" y2="35" style="stroke-width:1; stroke:grey; "  />
<polygon points="0,40 147,40 152,35 147,30 0,30 0,40 " style="fill:white; stroke-width:1; stroke:black; " description="&lt;b&gt;MCIC6FC_011003&lt;/b&gt;&lt;br&gt;hypothetical protein&lt;br&gt;Location: 370924 - 376344" locus_tag="MCIC6FC_011003" class="clusterblast-orf" id="knownclusterblast-1_q0_0_all"  />
<polygon points="158,35 163,30 184,30 184,40 163,40 158,35 " style="fill:white; stroke-width:1; stroke:black; " description="&lt;b&gt;MCIC6FC_011004&lt;/b&gt;&lt;br&gt;hypothetical protein&lt;br&gt;Location: 376570 - 377470" locus_tag="MCIC6FC_011004" class="clusterblast-orf" id="knownclusterblast-1_q1_0_all"  />
<polygon points="186,40 220,40 225,35 220,30 186,30 186,40 " style="fill:white; stroke-width:1; stroke:black; " description="&lt;b&gt;MCIC6FC_011005&lt;/b&gt;&lt;br&gt;hypothetical protein&lt;br&gt;Location: 377572 - 378942" locus_tag="MCIC6FC_011005" class="clusterblast-orf" id="knownclusterblast-1_q2_0_all"  />
<polygon points="235,35 240,30 271,30 271,40 240,40 235,35 " style="fill:white; stroke-width:1; stroke:black; " description="&lt;b&gt;MCIC6FC_011006&lt;/b&gt;&lt;br&gt;hypothetical protein&lt;br&gt;Location: 379287 - 380587" locus_tag="MCIC6FC_011006" class="clusterblast-orf" id="knownclusterblast-1_q3_0_all"  />
<polygon points="274,35 279,30 397,30 397,40 279,40 274,35 " style="fill:white; stroke-width:1; stroke:black; " description="&lt;b&gt;MCIC6FC_011007&lt;/b&gt;&lt;br&gt;hypothetical protein&lt;br&gt;Location: 380682 - 385065" locus_tag="MCIC6FC_011007" class="clusterblast-orf" id="knownclusterblast-1_q4_0_all"  />
<polygon points="398,35 403,30 468,30 468,40 403,40 398,35 " style="fill:white; stroke-width:1; stroke:black; " description="&lt;b&gt;MCIC6FC_011008&lt;/b&gt;&lt;br&gt;hypothetical protein&lt;br&gt;Location: 385094 - 387603" locus_tag="MCIC6FC_011008" class="clusterblast-orf" id="knownclusterblast-1_q5_0_all"  />
<polygon points="472,35 477,30 483,30 483,40 477,40 472,35 " style="fill:white; stroke-width:1; stroke:black; " description="&lt;b&gt;MCIC6FC_011009&lt;/b&gt;&lt;br&gt;hypothetical protein&lt;br&gt;Location: 387749 - 388124" locus_tag="MCIC6FC_011009" class="clusterblast-orf" id="knownclusterblast-1_q6_0_all"  />
<polygon points="487,35 492,30 614,30 614,40 492,40 487,35 " style="fill:white; stroke-width:1; stroke:black; " description="&lt;b&gt;MCIC6FC_011010&lt;/b&gt;&lt;br&gt;hypothetical protein&lt;br&gt;Location: 388275 - 392786" locus_tag="MCIC6FC_011010" class="clusterblast-orf" id="knownclusterblast-1_q7_0_all"  />
<polygon points="618,35 623,30 670,30 670,40 623,40 618,35 " style="fill:white; stroke-width:1; stroke:black; " description="&lt;b&gt;MCIC6FC_011011&lt;/b&gt;&lt;br&gt;hypothetical protein&lt;br&gt;Location: 392922 - 394773" locus_tag="MCIC6FC_011011" class="clusterblast-orf" id="knownclusterblast-1_q8_0_all"  />
<polygon points="671,35 676,30 745,30 745,40 676,40 671,35 " style="fill:white; stroke-width:1; stroke:black; " description="&lt;b&gt;MCIC6FC_011012&lt;/b&gt;&lt;br&gt;hypothetical protein&lt;br&gt;Location: 394840 - 397470" locus_tag="MCIC6FC_011012" class="clusterblast-orf" id="knownclusterblast-1_q9_0_all"  />
<polygon points="748,40 775,40 780,35 775,30 748,30 748,40 " style="fill:white; stroke-width:1; stroke:black; " description="&lt;b&gt;MCIC6FC_011013&lt;/b&gt;&lt;br&gt;hypothetical protein&lt;br&gt;Location: 397557 - 398699" locus_tag="MCIC6FC_011013" class="clusterblast-orf" id="knownclusterblast-1_q10_0_all"  />
</g>
</svg>
