<svg xmlns="http://www.w3.org/2000/svg" xmlns:xlink="http://www.w3.org/1999/xlink" version="1.1" x="0" y="0" height="100" width="800" viewBox="0 0 800 100" preserveAspectRatio="none"  >
<g label="Query sequence" class="clusterblast-cluster"  >
<text x="5" y="20" class="clusterblast-acc"  >
Query sequence</text>
<line x1="10" y1="35" x2="778.0" y2="35" style="stroke-width:1; stroke:grey; "  />
<polygon points="0,35 5,30 5,30 5,40 5,40 0,35 " style="fill:white; stroke-width:1; stroke:black; " description="&lt;b&gt;MCIC6FC_006864&lt;/b&gt;&lt;br&gt;hypothetical protein&lt;br&gt;Location: 388330 - 388739" locus_tag="MCIC6FC_006864" class="clusterblast-orf" id="knownclusterblast-1_q0_0_all"  />
<polygon points="7,40 17,40 22,35 17,30 7,30 7,40 " style="fill:white; stroke-width:1; stroke:black; " description="&lt;b&gt;MCIC6FC_006865&lt;/b&gt;&lt;br&gt;hypothetical protein&lt;br&gt;Location: 388894 - 390042" locus_tag="MCIC6FC_006865" class="clusterblast-orf" id="knownclusterblast-1_q1_0_all"  />
<polygon points="36,35 41,30 61,30 61,40 41,40 36,35 " style="fill:white; stroke-width:1; stroke:black; " description="&lt;b&gt;MCIC6FC_006866&lt;/b&gt;&lt;br&gt;hypothetical protein&lt;br&gt;Location: 391149 - 393087" locus_tag="MCIC6FC_006866" class="clusterblast-orf" id="knownclusterblast-1_q2_0_all"  />
<polygon points="63,35 68,30 121,30 121,40 68,40 63,35 " style="fill:white; stroke-width:1; stroke:black; " description="&lt;b&gt;MCIC6FC_006867&lt;/b&gt;&lt;br&gt;hypothetical protein&lt;br&gt;Location: 393236 - 397650" locus_tag="MCIC6FC_006867" class="clusterblast-orf" id="knownclusterblast-1_q3_0_all"  />
<polygon points="122,40 154,40 159,35 154,30 122,30 122,40 " style="fill:white; stroke-width:1; stroke:black; " description="&lt;b&gt;MCIC6FC_006868&lt;/b&gt;&lt;br&gt;hypothetical protein&lt;br&gt;Location: 397737 - 400640" locus_tag="MCIC6FC_006868" class="clusterblast-orf" id="knownclusterblast-1_q4_0_all"  />
<polygon points="161,35 166,30 166,30 166,40 166,40 161,35 " style="fill:white; stroke-width:1; stroke:black; " description="&lt;b&gt;MCIC6FC_006869&lt;/b&gt;&lt;br&gt;hypothetical protein&lt;br&gt;Location: 400740 - 401154" locus_tag="MCIC6FC_006869" class="clusterblast-orf" id="knownclusterblast-1_q5_0_all"  />
<polygon points="168,40 184,40 189,35 184,30 168,30 168,40 " style="fill:white; stroke-width:1; stroke:black; " description="&lt;b&gt;MCIC6FC_006870&lt;/b&gt;&lt;br&gt;hypothetical protein&lt;br&gt;Location: 401288 - 402896" locus_tag="MCIC6FC_006870" class="clusterblast-orf" id="knownclusterblast-1_q6_0_all"  />
<polygon points="189,35 194,30 197,30 197,40 194,40 189,35 " style="fill:white; stroke-width:1; stroke:black; " description="&lt;b&gt;MCIC6FC_006871&lt;/b&gt;&lt;br&gt;hypothetical protein&lt;br&gt;Location: 402949 - 403510" locus_tag="MCIC6FC_006871" class="clusterblast-orf" id="knownclusterblast-1_q7_0_all"  />
<polygon points="200,40 220,40 225,35 220,30 200,30 200,40 " style="fill:white; stroke-width:1; stroke:black; " description="&lt;b&gt;MCIC6FC_006872&lt;/b&gt;&lt;br&gt;hypothetical protein&lt;br&gt;Location: 403758 - 405677" locus_tag="MCIC6FC_006872" class="clusterblast-orf" id="knownclusterblast-1_q8_0_all"  />
<polygon points="242,35 247,30 286,30 286,40 247,40 242,35 " style="fill:white; stroke-width:1; stroke:black; " description="&lt;b&gt;MCIC6FC_006873&lt;/b&gt;&lt;br&gt;hypothetical protein&lt;br&gt;Location: 407045 - 410364" locus_tag="MCIC6FC_006873" class="clusterblast-orf" id="knownclusterblast-1_q9_0_all"  />
<polygon points="287,40 311,40 316,35 311,30 287,30 287,40 " style="fill:#d81515; stroke-width:1; stroke:black; " description="&lt;b&gt;MCIC6FC_006874&lt;/b&gt;&lt;br&gt;hypothetical protein&lt;br&gt;Location: 410480 - 412722" locus_tag="MCIC6FC_006874" class="clusterblast-orf" id="knownclusterblast-1_q10_0_all"  />
<polygon points="318,35 323,30 351,30 351,40 323,40 318,35 " style="fill:white; stroke-width:1; stroke:black; " description="&lt;b&gt;MCIC6FC_006875&lt;/b&gt;&lt;br&gt;hypothetical protein&lt;br&gt;Location: 412842 - 415380" locus_tag="MCIC6FC_006875" class="clusterblast-orf" id="knownclusterblast-1_q11_0_all"  />
<polygon points="352,35 357,30 394,30 394,40 357,40 352,35 " style="fill:white; stroke-width:1; stroke:black; " description="&lt;b&gt;MCIC6FC_006876&lt;/b&gt;&lt;br&gt;hypothetical protein&lt;br&gt;Location: 415496 - 418718" locus_tag="MCIC6FC_006876" class="clusterblast-orf" id="knownclusterblast-1_q12_0_all"  />
<polygon points="405,35 410,30 431,30 431,40 410,40 405,35 " style="fill:white; stroke-width:1; stroke:black; " description="&lt;b&gt;MCIC6FC_006877&lt;/b&gt;&lt;br&gt;hypothetical protein&lt;br&gt;Location: 419604 - 421601" locus_tag="MCIC6FC_006877" class="clusterblast-orf" id="knownclusterblast-1_q13_0_all"  />
<polygon points="432,35 437,30 445,30 445,40 437,40 432,35 " style="fill:white; stroke-width:1; stroke:black; " description="&lt;b&gt;MCIC6FC_006878&lt;/b&gt;&lt;br&gt;hypothetical protein&lt;br&gt;Location: 421635 - 422689" locus_tag="MCIC6FC_006878" class="clusterblast-orf" id="knownclusterblast-1_q14_0_all"  />
<polygon points="446,40 451,40 456,35 451,30 446,30 446,40 " style="fill:white; stroke-width:1; stroke:black; " description="&lt;b&gt;MCIC6FC_006879&lt;/b&gt;&lt;br&gt;hypothetical protein&lt;br&gt;Location: 422755 - 423470" locus_tag="MCIC6FC_006879" class="clusterblast-orf" id="knownclusterblast-1_q15_0_all"  />
<polygon points="457,35 462,30 520,30 520,40 462,40 457,35 " style="fill:white; stroke-width:1; stroke:black; " description="&lt;b&gt;MCIC6FC_006880&lt;/b&gt;&lt;br&gt;hypothetical protein&lt;br&gt;Location: 423592 - 428431" locus_tag="MCIC6FC_006880" class="clusterblast-orf" id="knownclusterblast-1_q16_0_all"  />
<polygon points="522,35 527,30 599,30 599,40 527,40 522,35 " style="fill:white; stroke-width:1; stroke:black; " description="&lt;b&gt;MCIC6FC_006881&lt;/b&gt;&lt;br&gt;hypothetical protein&lt;br&gt;Location: 428595 - 434521" locus_tag="MCIC6FC_006881" class="clusterblast-orf" id="knownclusterblast-1_q17_0_all"  />
<polygon points="601,35 606,30 759,30 759,40 606,40 601,35 " style="fill:white; stroke-width:1; stroke:black; " description="&lt;b&gt;MCIC6FC_006882&lt;/b&gt;&lt;br&gt;hypothetical protein&lt;br&gt;Location: 434700 - 446857" locus_tag="MCIC6FC_006882" class="clusterblast-orf" id="knownclusterblast-1_q18_0_all"  />
<polygon points="759,35 764,30 780,30 780,40 764,40 759,35 " style="fill:#15d8d8; stroke-width:1; stroke:black; " description="&lt;b&gt;MCIC6FC_006883&lt;/b&gt;&lt;br&gt;hypothetical protein&lt;br&gt;Location: 446877 - 448445" locus_tag="MCIC6FC_006883" class="clusterblast-orf" id="knownclusterblast-1_q19_0_all"  />
</g>
<g label="BGC0001285" description="BGC0001285_c1: pseudopyronine A / pseudopyronine B (12% of genes show similarity), Other:Fatty acid" class="clusterblast-cluster"  >
<text x="5" y="70" class="clusterblast-acc"  >
<a xlink:href="https://mibig.secondarymetabolites.org/go/BGC0001285/1" target="_blank">BGC0001285</a>:                                              pseudopyronine A / pseudopyronine B (12% of genes show similarity), Other:Fatty acid</text>
<line x1="10" y1="85" x2="778.0" y2="85" style="stroke-width:1; stroke:grey; "  />
</g>
<g id="a1_000"  >
<polygon points="244,85 249,80 254,80 254,90 249,90 244,85 " style="fill:white; stroke-width:1; stroke:black; " description="&lt;b&gt;ALJ01868.1&lt;/b&gt;&lt;br&gt;hypothetical protein&lt;br&gt;Location: 22479 - 21685" locus_tag="ALJ01868.1" class="clusterblast-orf" id="knownclusterblast-1_all_1_1_0"  />
</g>
<g id="a1_001"  >
<polygon points="256,85 261,80 284,80 284,90 261,90 256,85 " style="fill:white; stroke-width:1; stroke:black; " description="&lt;b&gt;ALJ01867.1&lt;/b&gt;&lt;br&gt;glycogen debranching enzyme&lt;br&gt;Location: 21516 - 19363" locus_tag="ALJ01867.1" class="clusterblast-orf" id="knownclusterblast-1_all_1_1_1"  />
</g>
<g id="a1_002"  >
<polygon points="286,85 290,80 290,90 286,85 " style="fill:white; stroke-width:1; stroke:black; " description="&lt;b&gt;ALJ01866.1&lt;/b&gt;&lt;br&gt;hypothetical protein&lt;br&gt;Location: 19205 - 18939" locus_tag="ALJ01866.1" class="clusterblast-orf" id="knownclusterblast-1_all_1_1_2"  />
</g>
<g id="a1_003"  >
<polygon points="290,85 295,80 326,80 326,90 295,90 290,85 " style="fill:white; stroke-width:1; stroke:black; " description="&lt;b&gt;ALJ01865.1&lt;/b&gt;&lt;br&gt;malto-oligosyltrehalose synthase&lt;br&gt;Location: 18918 - 16144" locus_tag="ALJ01865.1" class="clusterblast-orf" id="knownclusterblast-1_all_1_1_3"  />
</g>
<g id="a1_004"  >
<polygon points="326,85 331,80 353,80 353,90 331,90 326,85 " style="fill:white; stroke-width:1; stroke:black; " description="&lt;b&gt;ALJ01864.1&lt;/b&gt;&lt;br&gt;4-alpha-glucanotransferase&lt;br&gt;Location: 16147 - 14078" locus_tag="ALJ01864.1" class="clusterblast-orf" id="knownclusterblast-1_all_1_1_4"  />
</g>
<g id="a1_005"  >
<polygon points="353,85 358,80 375,80 375,90 358,90 353,85 " style="fill:white; stroke-width:1; stroke:black; " description="&lt;b&gt;ALJ01863.1&lt;/b&gt;&lt;br&gt;malto-oligosyltrehalose trehalohydrolase&lt;br&gt;Location: 14081 - 12339" locus_tag="ALJ01863.1" class="clusterblast-orf" id="knownclusterblast-1_all_1_1_5"  />
</g>
<g id="a1_006"  >
<polygon points="375,85 380,80 396,80 396,90 380,90 375,85 " style="fill:#15d8d8; stroke-width:1; stroke:black; " description="&lt;b&gt;ALJ01862.1&lt;/b&gt;&lt;br&gt;glycogen synthase&lt;br&gt;Location: 12324 - 10765&lt;br&gt;&lt;br&gt;&lt;b&gt;BlastP hit with MCIC6FC_006883&lt;/b&gt;&lt;br&gt;Percentage identity: 77&lt;br&gt;Percentage coverage: 101&lt;br&gt;BLAST bit score: 785&lt;br&gt;E-value: 4.8e-227" locus_tag="ALJ01862.1" class="clusterblast-orf" id="knownclusterblast-1_all_1_1_6"  />
</g>
<g id="a1_007"  >
<polygon points="402,85 404,80 404,90 402,85 " style="fill:white; stroke-width:1; stroke:black; " description="&lt;b&gt;ALJ01861.1&lt;/b&gt;&lt;br&gt;hypothetical protein&lt;br&gt;Location: 10272 - 10105" locus_tag="ALJ01861.1" class="clusterblast-orf" id="knownclusterblast-1_all_1_1_7"  />
</g>
<g id="a1_008"  >
<polygon points="407,90 415,90 420,85 415,80 407,80 407,90 " style="fill:white; stroke-width:1; stroke:black; " description="&lt;b&gt;ALJ01860.1&lt;/b&gt;&lt;br&gt;6-phosphogluconate dehydrogenase&lt;br&gt;Location: 9908 - 8925" locus_tag="ALJ01860.1" class="clusterblast-orf" id="knownclusterblast-1_all_1_1_8"  />
</g>
<g id="a1_009"  >
<polygon points="420,90 434,90 439,85 434,80 420,80 420,90 " style="fill:white; stroke-width:1; stroke:black; " description="&lt;b&gt;ALJ01859.1&lt;/b&gt;&lt;br&gt;glucose-6-phosphate 1-dehydrogenase&lt;br&gt;Location: 8924 - 7431" locus_tag="ALJ01859.1" class="clusterblast-orf" id="knownclusterblast-1_all_1_1_9"  />
</g>
<g id="a1_0010"  >
<polygon points="440,85 445,80 453,80 453,90 445,90 440,85 " style="fill:white; stroke-width:1; stroke:black; " description="&lt;b&gt;ALJ01858.1&lt;/b&gt;&lt;br&gt;pseudopyronine synthase&lt;br&gt;Location: 7370 - 6321" locus_tag="ALJ01858.1" class="clusterblast-orf" id="knownclusterblast-1_all_1_1_10"  />
</g>
<g id="a1_0011"  >
<polygon points="457,90 475,90 480,85 475,80 457,80 457,90 " style="fill:white; stroke-width:1; stroke:black; " description="&lt;b&gt;ALJ01857.1&lt;/b&gt;&lt;br&gt;hypothetical protein&lt;br&gt;Location: 6079 - 4283" locus_tag="ALJ01857.1" class="clusterblast-orf" id="knownclusterblast-1_all_1_1_11"  />
</g>
<g id="a1_0012"  >
<polygon points="485,90 487,85 485,80 485,90 " style="fill:white; stroke-width:1; stroke:black; " description="&lt;b&gt;ALJ01856.1&lt;/b&gt;&lt;br&gt;hypothetical protein&lt;br&gt;Location: 3889 - 3692" locus_tag="ALJ01856.1" class="clusterblast-orf" id="knownclusterblast-1_all_1_1_12"  />
</g>
<g id="a1_0013"  >
<polygon points="489,85 494,80 498,80 498,90 494,90 489,85 " style="fill:white; stroke-width:1; stroke:black; " description="&lt;b&gt;ALJ01855.1&lt;/b&gt;&lt;br&gt;putative dioxygenase&lt;br&gt;Location: 3560 - 2880" locus_tag="ALJ01855.1" class="clusterblast-orf" id="knownclusterblast-1_all_1_1_13"  />
</g>
<g id="a1_0014"  >
<polygon points="500,90 524,90 529,85 524,80 500,80 500,90 " style="fill:#d81515; stroke-width:1; stroke:black; " description="&lt;b&gt;ALJ01854.1&lt;/b&gt;&lt;br&gt;hypothetical protein&lt;br&gt;Location: 2718 - 526&lt;br&gt;&lt;br&gt;&lt;b&gt;BlastP hit with MCIC6FC_006874&lt;/b&gt;&lt;br&gt;Percentage identity: 85&lt;br&gt;Percentage coverage: 98&lt;br&gt;BLAST bit score: 1268&lt;br&gt;E-value: 0.0" locus_tag="ALJ01854.1" class="clusterblast-orf" id="knownclusterblast-1_all_1_1_14"  />
</g>
<g id="a1_0015"  >
<polygon points="529,85 534,80 535,80 535,90 534,90 529,85 " style="fill:white; stroke-width:1; stroke:black; " description="&lt;b&gt;ALJ01853.1&lt;/b&gt;&lt;br&gt;membrane protein&lt;br&gt;Location: 476 - 9" locus_tag="ALJ01853.1" class="clusterblast-orf" id="knownclusterblast-1_all_1_1_15"  />
</g>
</svg>
