<svg xmlns="http://www.w3.org/2000/svg" xmlns:xlink="http://www.w3.org/1999/xlink" version="1.1" x="0" y="0" height="230" width="800" viewBox="0 0 800 230" preserveAspectRatio="none"  >
<g label="Query sequence" class="clusterblast-cluster"  >
<text x="5" y="20" class="clusterblast-acc"  >
Query sequence</text>
<line x1="10" y1="35" x2="778.0" y2="35" style="stroke-width:1; stroke:grey; "  />
<polygon points="194,35 199,30 237,30 237,40 199,40 194,35 " style="fill:white; stroke-width:1; stroke:black; " description="&lt;b&gt;MCIC6FC_007605&lt;/b&gt;&lt;br&gt;hypothetical protein&lt;br&gt;Location: 971776 - 975355" locus_tag="MCIC6FC_007605" class="clusterblast-orf" id="dummy-3_q0_0_all"  />
<polygon points="237,35 242,30 250,30 250,40 242,40 237,35 " style="fill:white; stroke-width:1; stroke:black; " description="&lt;b&gt;MCIC6FC_007606&lt;/b&gt;&lt;br&gt;hypothetical protein&lt;br&gt;Location: 975381 - 976467" locus_tag="MCIC6FC_007606" class="clusterblast-orf" id="dummy-3_q1_0_all"  />
<polygon points="254,40 259,40 264,35 259,30 254,30 254,40 " style="fill:white; stroke-width:1; stroke:black; " description="&lt;b&gt;MCIC6FC_007607&lt;/b&gt;&lt;br&gt;hypothetical protein&lt;br&gt;Location: 976754 - 977637" locus_tag="MCIC6FC_007607" class="clusterblast-orf" id="dummy-3_q2_0_all"  />
<polygon points="267,35 272,30 277,30 277,40 272,40 267,35 " style="fill:white; stroke-width:1; stroke:black; " description="&lt;b&gt;MCIC6FC_007608&lt;/b&gt;&lt;br&gt;hypothetical protein&lt;br&gt;Location: 977867 - 978682" locus_tag="MCIC6FC_007608" class="clusterblast-orf" id="dummy-3_q3_0_all"  />
<polygon points="279,40 286,40 291,35 286,30 279,30 279,40 " style="fill:white; stroke-width:1; stroke:black; " description="&lt;b&gt;MCIC6FC_007609&lt;/b&gt;&lt;br&gt;hypothetical protein&lt;br&gt;Location: 978819 - 979881" locus_tag="MCIC6FC_007609" class="clusterblast-orf" id="dummy-3_q4_0_all"  />
<polygon points="292,35 297,30 316,30 316,40 297,40 292,35 " style="fill:white; stroke-width:1; stroke:black; " description="&lt;b&gt;MCIC6FC_007610&lt;/b&gt;&lt;br&gt;hypothetical protein&lt;br&gt;Location: 979916 - 981955" locus_tag="MCIC6FC_007610" class="clusterblast-orf" id="dummy-3_q5_0_all"  />
<polygon points="319,40 324,40 329,35 324,30 319,30 319,40 " style="fill:white; stroke-width:1; stroke:black; " description="&lt;b&gt;MCIC6FC_007611&lt;/b&gt;&lt;br&gt;hypothetical protein&lt;br&gt;Location: 982143 - 983026" locus_tag="MCIC6FC_007611" class="clusterblast-orf" id="dummy-3_q6_0_all"  />
<polygon points="333,35 338,30 347,30 347,40 338,40 333,35 " style="fill:white; stroke-width:1; stroke:black; " description="&lt;b&gt;MCIC6FC_007612&lt;/b&gt;&lt;br&gt;hypothetical protein&lt;br&gt;Location: 983333 - 984520" locus_tag="MCIC6FC_007612" class="clusterblast-orf" id="dummy-3_q7_0_all"  />
<polygon points="350,40 350,40 355,35 350,30 350,30 350,40 " style="fill:white; stroke-width:1; stroke:black; " description="&lt;b&gt;MCIC6FC_007613&lt;/b&gt;&lt;br&gt;hypothetical protein&lt;br&gt;Location: 984737 - 985190" locus_tag="MCIC6FC_007613" class="clusterblast-orf" id="dummy-3_q8_0_all"  />
<polygon points="357,35 362,30 389,30 389,40 362,40 357,35 " style="fill:white; stroke-width:1; stroke:black; " description="&lt;b&gt;MCIC6FC_007614&lt;/b&gt;&lt;br&gt;hypothetical protein&lt;br&gt;Location: 985312 - 987989" locus_tag="MCIC6FC_007614" class="clusterblast-orf" id="dummy-3_q9_0_all"  />
<polygon points="390,35 395,30 424,30 424,40 395,40 390,35 " style="fill:white; stroke-width:1; stroke:black; " description="&lt;b&gt;MCIC6FC_007615&lt;/b&gt;&lt;br&gt;hypothetical protein&lt;br&gt;Location: 988056 - 990895" locus_tag="MCIC6FC_007615" class="clusterblast-orf" id="dummy-3_q10_0_all"  />
<polygon points="428,40 430,40 435,35 430,30 428,30 428,40 " style="fill:white; stroke-width:1; stroke:black; " description="&lt;b&gt;MCIC6FC_007616&lt;/b&gt;&lt;br&gt;hypothetical protein&lt;br&gt;Location: 991184 - 991775" locus_tag="MCIC6FC_007616" class="clusterblast-orf" id="dummy-3_q11_0_all"  />
<polygon points="435,35 440,30 443,30 443,40 440,40 435,35 " style="fill:white; stroke-width:1; stroke:black; " description="&lt;b&gt;MCIC6FC_007617&lt;/b&gt;&lt;br&gt;hypothetical protein&lt;br&gt;Location: 991824 - 992490" locus_tag="MCIC6FC_007617" class="clusterblast-orf" id="dummy-3_q12_0_all"  />
<polygon points="449,40 479,40 484,35 479,30 449,30 449,40 " style="fill:#d81515; stroke-width:1; stroke:black; " description="&lt;b&gt;MCIC6FC_007618&lt;/b&gt;&lt;br&gt;hypothetical protein&lt;br&gt;Location: 992981 - 995855" locus_tag="MCIC6FC_007618" class="clusterblast-orf" id="dummy-3_q13_0_all"  />
<polygon points="484,40 520,40 525,35 520,30 484,30 484,40 " style="fill:#15d8d8; stroke-width:1; stroke:black; " description="&lt;b&gt;MCIC6FC_007619&lt;/b&gt;&lt;br&gt;hypothetical protein&lt;br&gt;Location: 995875 - 999269" locus_tag="MCIC6FC_007619" class="clusterblast-orf" id="dummy-3_q14_0_all"  />
<polygon points="525,35 530,30 564,30 564,40 530,40 525,35 " style="fill:white; stroke-width:1; stroke:black; " description="&lt;b&gt;MCIC6FC_007620&lt;/b&gt;&lt;br&gt;hypothetical protein&lt;br&gt;Location: 999279 - 1002494" locus_tag="MCIC6FC_007620" class="clusterblast-orf" id="dummy-3_q15_0_all"  />
<polygon points="565,35 570,30 580,30 580,40 570,40 565,35 " style="fill:white; stroke-width:1; stroke:black; " description="&lt;b&gt;MCIC6FC_007621&lt;/b&gt;&lt;br&gt;hypothetical protein&lt;br&gt;Location: 1002561 - 1003827" locus_tag="MCIC6FC_007621" class="clusterblast-orf" id="dummy-3_q16_0_all"  />
<polygon points="580,35 585,30 585,30 585,40 585,40 580,35 " style="fill:white; stroke-width:1; stroke:black; " description="&lt;b&gt;MCIC6FC_007622&lt;/b&gt;&lt;br&gt;hypothetical protein&lt;br&gt;Location: 1003881 - 1004292" locus_tag="MCIC6FC_007622" class="clusterblast-orf" id="dummy-3_q17_0_all"  />
</g>
<g label="BGC0001675" description="BGC0001675_c1: murayaquinone (3% of genes show similarity), Polyketide" class="clusterblast-cluster"  >
<text x="5" y="70" class="clusterblast-acc"  >
<a xlink:href="https://mibig.secondarymetabolites.org/go/BGC0001675/1" target="_blank">BGC0001675</a>:                                                                    murayaquinone (3% of genes show similarity), Polyketide</text>
<line x1="10" y1="85" x2="778.0" y2="85" style="stroke-width:1; stroke:grey; "  />
</g>
<g id="a3_000"  >
<polygon points="0,85 5,80 8,80 8,90 5,90 0,85 " style="fill:white; stroke-width:1; stroke:black; " description="&lt;b&gt;AQW35080.1&lt;/b&gt;&lt;br&gt;two-component response regulator&lt;br&gt;Location: 66864 - 66184" locus_tag="AQW35080.1" class="clusterblast-orf" id="dummy-3_h3_9_0"  />
</g>
<g id="a3_001"  >
<polygon points="8,85 13,80 23,80 23,90 13,90 8,85 " style="fill:white; stroke-width:1; stroke:black; " description="&lt;b&gt;AQW35079.1&lt;/b&gt;&lt;br&gt;two-component sensor histidine kinase&lt;br&gt;Location: 66124 - 64910" locus_tag="AQW35079.1" class="clusterblast-orf" id="dummy-3_h3_9_1"  />
</g>
<g id="a3_002"  >
<polygon points="23,85 28,80 31,80 31,90 28,90 23,85 " style="fill:white; stroke-width:1; stroke:black; " description="&lt;b&gt;AQW35078.1&lt;/b&gt;&lt;br&gt;TetR family transcriptional regulator&lt;br&gt;Location: 64910 - 64227" locus_tag="AQW35078.1" class="clusterblast-orf" id="dummy-3_h3_9_2"  />
</g>
<g id="a3_003"  >
<polygon points="34,90 47,90 52,85 47,80 34,80 34,90 " style="fill:white; stroke-width:1; stroke:black; " description="&lt;b&gt;AQW35077.1&lt;/b&gt;&lt;br&gt;MFS transporter&lt;br&gt;Location: 63977 - 62466" locus_tag="AQW35077.1" class="clusterblast-orf" id="dummy-3_h3_9_3"  />
</g>
<g id="a3_004"  >
<polygon points="53,90 56,90 61,85 56,80 53,80 53,90 " style="fill:white; stroke-width:1; stroke:black; " description="&lt;b&gt;AQW35076.1&lt;/b&gt;&lt;br&gt;hypothetical protein&lt;br&gt;Location: 62399 - 61749" locus_tag="AQW35076.1" class="clusterblast-orf" id="dummy-3_h3_9_4"  />
</g>
<g id="a3_005"  >
<polygon points="65,85 70,80 76,80 76,90 70,90 65,85 " style="fill:white; stroke-width:1; stroke:black; " description="&lt;b&gt;AQW35075.1&lt;/b&gt;&lt;br&gt;NAD(P)-dependent oxidoreductase&lt;br&gt;Location: 61396 - 60533" locus_tag="AQW35075.1" class="clusterblast-orf" id="dummy-3_h3_9_5"  />
</g>
<g id="a3_006"  >
<polygon points="76,85 81,80 96,80 96,90 81,90 76,85 " style="fill:white; stroke-width:1; stroke:black; " description="&lt;b&gt;AQW35074.1&lt;/b&gt;&lt;br&gt;FAD-binding monooxygenase&lt;br&gt;Location: 60483 - 58885" locus_tag="AQW35074.1" class="clusterblast-orf" id="dummy-3_h3_9_6"  />
</g>
<g id="a3_007"  >
<polygon points="99,90 102,85 99,80 99,90 " style="fill:white; stroke-width:1; stroke:black; " description="&lt;b&gt;AQW35073.1&lt;/b&gt;&lt;br&gt;oxygenase&lt;br&gt;Location: 58639 - 58328" locus_tag="AQW35073.1" class="clusterblast-orf" id="dummy-3_h3_9_7"  />
</g>
<g id="a3_008"  >
<polygon points="102,90 103,90 108,85 103,80 102,80 102,90 " style="fill:white; stroke-width:1; stroke:black; " description="&lt;b&gt;AQW35072.1&lt;/b&gt;&lt;br&gt;hypothetical protein&lt;br&gt;Location: 58331 - 57867" locus_tag="AQW35072.1" class="clusterblast-orf" id="dummy-3_h3_9_8"  />
</g>
<g id="a3_009"  >
<polygon points="108,90 109,90 114,85 109,80 108,80 108,90 " style="fill:white; stroke-width:1; stroke:black; " description="&lt;b&gt;AQW35071.1&lt;/b&gt;&lt;br&gt;cyclase&lt;br&gt;Location: 57865 - 57332" locus_tag="AQW35071.1" class="clusterblast-orf" id="dummy-3_h3_9_9"  />
</g>
<g id="a3_0010"  >
<polygon points="114,90 115,90 120,85 115,80 114,80 114,90 " style="fill:white; stroke-width:1; stroke:black; " description="&lt;b&gt;AQW35070.1&lt;/b&gt;&lt;br&gt;hypothetical protein&lt;br&gt;Location: 57344 - 56883" locus_tag="AQW35070.1" class="clusterblast-orf" id="dummy-3_h3_9_10"  />
</g>
<g id="a3_0011"  >
<polygon points="120,90 124,90 129,85 124,80 120,80 120,90 " style="fill:white; stroke-width:1; stroke:black; " description="&lt;b&gt;AQW35069.1&lt;/b&gt;&lt;br&gt;ketoreductase&lt;br&gt;Location: 56886 - 56116" locus_tag="AQW35069.1" class="clusterblast-orf" id="dummy-3_h3_9_11"  />
</g>
<g id="a3_0012"  >
<polygon points="130,90 137,90 142,85 137,80 130,80 130,90 " style="fill:white; stroke-width:1; stroke:black; " description="&lt;b&gt;AQW35068.1&lt;/b&gt;&lt;br&gt;oxidase&lt;br&gt;Location: 56050 - 54995" locus_tag="AQW35068.1" class="clusterblast-orf" id="dummy-3_h3_9_12"  />
</g>
<g id="a3_0013"  >
<polygon points="143,85 148,80 161,80 161,90 148,90 143,85 " style="fill:white; stroke-width:1; stroke:black; " description="&lt;b&gt;AQW35067.1&lt;/b&gt;&lt;br&gt;oxidase&lt;br&gt;Location: 54922 - 53453" locus_tag="AQW35067.1" class="clusterblast-orf" id="dummy-3_h3_9_13"  />
</g>
<g id="a3_0014"  >
<polygon points="161,85 166,80 174,80 174,90 166,90 161,85 " style="fill:white; stroke-width:1; stroke:black; " description="&lt;b&gt;AQW35066.1&lt;/b&gt;&lt;br&gt;hypothetical protein&lt;br&gt;Location: 53417 - 52347" locus_tag="AQW35066.1" class="clusterblast-orf" id="dummy-3_h3_9_14"  />
</g>
<g id="a3_0015"  >
<polygon points="177,90 178,90 183,85 178,80 177,80 177,90 " style="fill:white; stroke-width:1; stroke:black; " description="&lt;b&gt;AQW35065.1&lt;/b&gt;&lt;br&gt;flavin reductase&lt;br&gt;Location: 52154 - 51636" locus_tag="AQW35065.1" class="clusterblast-orf" id="dummy-3_h3_9_15"  />
</g>
<g id="a3_0016"  >
<polygon points="183,90 187,90 192,85 187,80 183,80 183,90 " style="fill:white; stroke-width:1; stroke:black; " description="&lt;b&gt;AQW35064.1&lt;/b&gt;&lt;br&gt;Polyketide C-9 ketoreductase&lt;br&gt;Location: 51639 - 50851" locus_tag="AQW35064.1" class="clusterblast-orf" id="dummy-3_h3_9_16"  />
</g>
<g id="a3_0017"  >
<polygon points="193,90 200,90 205,85 200,80 193,80 193,90 " style="fill:white; stroke-width:1; stroke:black; " description="&lt;b&gt;AQW35063.1&lt;/b&gt;&lt;br&gt;cyclase&lt;br&gt;Location: 50773 - 49820" locus_tag="AQW35063.1" class="clusterblast-orf" id="dummy-3_h3_9_17"  />
</g>
<g id="a3_0018"  >
<polygon points="205,85 210,80 217,80 217,90 210,90 205,85 " style="fill:white; stroke-width:1; stroke:black; " description="&lt;b&gt;AQW35062.1&lt;/b&gt;&lt;br&gt;second ring cyclase&lt;br&gt;Location: 49761 - 48802" locus_tag="AQW35062.1" class="clusterblast-orf" id="dummy-3_h3_9_18"  />
</g>
<g id="a3_0019"  >
<polygon points="219,85 224,80 230,80 230,90 224,90 219,85 " style="fill:white; stroke-width:1; stroke:black; " description="&lt;b&gt;AQW35061.1&lt;/b&gt;&lt;br&gt;oxidoreductase&lt;br&gt;Location: 48671 - 47745" locus_tag="AQW35061.1" class="clusterblast-orf" id="dummy-3_h3_9_19"  />
</g>
<g id="a3_0020"  >
<polygon points="230,85 233,80 233,90 230,85 " style="fill:white; stroke-width:1; stroke:black; " description="&lt;b&gt;AQW35060.1&lt;/b&gt;&lt;br&gt;acyl carrier protein&lt;br&gt;Location: 47748 - 47485" locus_tag="AQW35060.1" class="clusterblast-orf" id="dummy-3_h3_9_20"  />
</g>
<g id="a3_0021"  >
<polygon points="233,85 238,80 248,80 248,90 238,90 233,85 " style="fill:white; stroke-width:1; stroke:black; " description="&lt;b&gt;AQW35059.1&lt;/b&gt;&lt;br&gt;chain length factor&lt;br&gt;Location: 47431 - 46187" locus_tag="AQW35059.1" class="clusterblast-orf" id="dummy-3_h3_9_21"  />
</g>
<g id="a3_0022"  >
<polygon points="248,85 253,80 264,80 264,90 253,90 248,85 " style="fill:white; stroke-width:1; stroke:black; " description="&lt;b&gt;AQW35058.1&lt;/b&gt;&lt;br&gt;KS&lt;br&gt;Location: 46190 - 44937" locus_tag="AQW35058.1" class="clusterblast-orf" id="dummy-3_h3_9_22"  />
</g>
<g id="a3_0023"  >
<polygon points="265,85 270,80 274,80 274,90 270,90 265,85 " style="fill:white; stroke-width:1; stroke:black; " description="&lt;b&gt;AQW35057.1&lt;/b&gt;&lt;br&gt;3-oxoacyl-ACP reductase&lt;br&gt;Location: 44833 - 44096" locus_tag="AQW35057.1" class="clusterblast-orf" id="dummy-3_h3_9_23"  />
</g>
<g id="a3_0024"  >
<polygon points="277,90 282,90 287,85 282,80 277,80 277,90 " style="fill:white; stroke-width:1; stroke:black; " description="&lt;b&gt;AQW35056.1&lt;/b&gt;&lt;br&gt;regulatory protein&lt;br&gt;Location: 43822 - 43022" locus_tag="AQW35056.1" class="clusterblast-orf" id="dummy-3_h3_9_24"  />
</g>
<g id="a3_0025"  >
<polygon points="287,85 292,80 304,80 304,90 292,90 287,85 " style="fill:white; stroke-width:1; stroke:black; " description="&lt;b&gt;AQW35055.1&lt;/b&gt;&lt;br&gt;bifunctional monooxygenase-dehydratase&lt;br&gt;Location: 42949 - 41534" locus_tag="AQW35055.1" class="clusterblast-orf" id="dummy-3_h3_9_25"  />
</g>
<g id="a3_0026"  >
<polygon points="306,85 311,80 325,80 325,90 311,90 306,85 " style="fill:white; stroke-width:1; stroke:black; " description="&lt;b&gt;AQW35054.1&lt;/b&gt;&lt;br&gt;long-chain acyl-CoA synthetase&lt;br&gt;Location: 41394 - 39817" locus_tag="AQW35054.1" class="clusterblast-orf" id="dummy-3_h3_9_26"  />
</g>
<g id="a3_0027"  >
<polygon points="325,85 330,80 336,80 336,90 330,90 325,85 " style="fill:white; stroke-width:1; stroke:black; " description="&lt;b&gt;AQW35053.1&lt;/b&gt;&lt;br&gt;acetyltransferase&lt;br&gt;Location: 39817 - 38933" locus_tag="AQW35053.1" class="clusterblast-orf" id="dummy-3_h3_9_27"  />
</g>
<g id="a3_0028"  >
<polygon points="339,90 353,90 358,85 353,80 339,80 339,90 " style="fill:white; stroke-width:1; stroke:black; " description="&lt;b&gt;AQW35052.1&lt;/b&gt;&lt;br&gt;carboxylesterase&lt;br&gt;Location: 38692 - 37112" locus_tag="AQW35052.1" class="clusterblast-orf" id="dummy-3_h3_9_28"  />
</g>
<g id="a3_0029"  >
<polygon points="358,90 367,90 372,85 367,80 358,80 358,90 " style="fill:#d81515; stroke-width:1; stroke:black; " description="&lt;b&gt;AQW35051.1&lt;/b&gt;&lt;br&gt;phospho-2-dehydro-3-deoxyheptonate aldolase&lt;br&gt;Location: 37075 - 35903&lt;br&gt;&lt;br&gt;&lt;b&gt;BlastP hit with MCIC6FC_007618&lt;/b&gt;&lt;br&gt;Percentage identity: 57&lt;br&gt;Percentage coverage: 42&lt;br&gt;BLAST bit score: 440&lt;br&gt;E-value: 8.9e-123" locus_tag="AQW35051.1" class="clusterblast-orf" id="dummy-3_h3_9_29"  />
</g>
<g id="a3_0030"  >
<polygon points="373,90 377,90 382,85 377,80 373,80 373,90 " style="fill:white; stroke-width:1; stroke:black; " description="&lt;b&gt;AQW35050.1&lt;/b&gt;&lt;br&gt;2,3-dihydroxybenzoate-2,3-dehydrogenase&lt;br&gt;Location: 35858 - 35076" locus_tag="AQW35050.1" class="clusterblast-orf" id="dummy-3_h3_9_30"  />
</g>
<g id="a3_0031"  >
<polygon points="382,90 386,90 391,85 386,80 382,80 382,90 " style="fill:white; stroke-width:1; stroke:black; " description="&lt;b&gt;AQW35049.1&lt;/b&gt;&lt;br&gt;phenazine biosynthesis protein PhzD&lt;br&gt;Location: 35074 - 34346" locus_tag="AQW35049.1" class="clusterblast-orf" id="dummy-3_h3_9_31"  />
</g>
<g id="a3_0032"  >
<polygon points="391,90 411,90 416,85 411,80 391,80 391,90 " style="fill:#15d8d8; stroke-width:1; stroke:black; " description="&lt;b&gt;AQW35048.1&lt;/b&gt;&lt;br&gt;phenazine biosynthesis protein PhzE&lt;br&gt;Location: 34349 - 32313&lt;br&gt;&lt;br&gt;&lt;b&gt;BlastP hit with MCIC6FC_007619&lt;/b&gt;&lt;br&gt;Percentage identity: 60&lt;br&gt;Percentage coverage: 56&lt;br&gt;BLAST bit score: 731&lt;br&gt;E-value: 1.8e-210" locus_tag="AQW35048.1" class="clusterblast-orf" id="dummy-3_h3_9_32"  />
</g>
<g id="a3_0033"  >
<polygon points="416,90 432,90 437,85 432,80 416,80 416,90 " style="fill:white; stroke-width:1; stroke:black; " description="&lt;b&gt;AQW35047.1&lt;/b&gt;&lt;br&gt;Acyl-CoA synthetase&lt;br&gt;Location: 32271 - 30541" locus_tag="AQW35047.1" class="clusterblast-orf" id="dummy-3_h3_9_33"  />
</g>
<g id="a3_0034"  >
<polygon points="437,90 444,90 449,85 444,80 437,80 437,90 " style="fill:white; stroke-width:1; stroke:black; " description="&lt;b&gt;AQW35046.1&lt;/b&gt;&lt;br&gt;beta-ketoacyl synthase III&lt;br&gt;Location: 30544 - 29543" locus_tag="AQW35046.1" class="clusterblast-orf" id="dummy-3_h3_9_34"  />
</g>
<g id="a3_0035"  >
<polygon points="450,85 455,80 462,80 462,90 455,90 450,85 " style="fill:white; stroke-width:1; stroke:black; " description="&lt;b&gt;AQW35045.1&lt;/b&gt;&lt;br&gt;3-oxoacyl-ACP synthase&lt;br&gt;Location: 29464 - 28418" locus_tag="AQW35045.1" class="clusterblast-orf" id="dummy-3_h3_9_35"  />
</g>
<g id="a3_0036"  >
<polygon points="463,85 468,80 478,80 478,90 468,90 463,85 " style="fill:white; stroke-width:1; stroke:black; " description="&lt;b&gt;AQW35044.1&lt;/b&gt;&lt;br&gt;SAM-dependent methyltransferase&lt;br&gt;Location: 28357 - 27083" locus_tag="AQW35044.1" class="clusterblast-orf" id="dummy-3_h3_9_36"  />
</g>
<g id="a3_0037"  >
<polygon points="479,85 484,80 490,80 490,90 484,90 479,85 " style="fill:white; stroke-width:1; stroke:black; " description="&lt;b&gt;AQW35043.1&lt;/b&gt;&lt;br&gt;dTDP-4-dehydrorhamnose reductase&lt;br&gt;Location: 27041 - 26157" locus_tag="AQW35043.1" class="clusterblast-orf" id="dummy-3_h3_9_37"  />
</g>
<g id="a3_0038"  >
<polygon points="490,85 495,80 501,80 501,90 495,90 490,85 " style="fill:white; stroke-width:1; stroke:black; " description="&lt;b&gt;AQW35042.1&lt;/b&gt;&lt;br&gt;dTDP-glucose 4,6-dehydratase&lt;br&gt;Location: 26160 - 25177" locus_tag="AQW35042.1" class="clusterblast-orf" id="dummy-3_h3_9_38"  />
</g>
<g id="a3_0039"  >
<polygon points="503,85 508,80 516,80 516,90 508,90 503,85 " style="fill:white; stroke-width:1; stroke:black; " description="&lt;b&gt;AQW35041.1&lt;/b&gt;&lt;br&gt;glycosyltransferase&lt;br&gt;Location: 25067 - 23931" locus_tag="AQW35041.1" class="clusterblast-orf" id="dummy-3_h3_9_39"  />
</g>
<g id="a3_0040"  >
<polygon points="519,90 527,90 532,85 527,80 519,80 519,90 " style="fill:white; stroke-width:1; stroke:black; " description="&lt;b&gt;AQW35040.1&lt;/b&gt;&lt;br&gt;glucose-1-phosphate thymidylyltransferase&lt;br&gt;Location: 23721 - 22654" locus_tag="AQW35040.1" class="clusterblast-orf" id="dummy-3_h3_9_40"  />
</g>
<g id="a3_0041"  >
<polygon points="532,90 534,90 539,85 534,80 532,80 532,90 " style="fill:white; stroke-width:1; stroke:black; " description="&lt;b&gt;AQW35039.1&lt;/b&gt;&lt;br&gt;dTDP-4-dehydrorhamnose 3,5-epimerase&lt;br&gt;Location: 22640 - 22050" locus_tag="AQW35039.1" class="clusterblast-orf" id="dummy-3_h3_9_41"  />
</g>
<g id="a3_0042"  >
<polygon points="539,85 544,80 548,80 548,90 544,90 539,85 " style="fill:white; stroke-width:1; stroke:black; " description="&lt;b&gt;AQW35038.1&lt;/b&gt;&lt;br&gt;regulatory protein&lt;br&gt;Location: 22047 - 21268" locus_tag="AQW35038.1" class="clusterblast-orf" id="dummy-3_h3_9_42"  />
</g>
<g id="a3_0043"  >
<polygon points="551,90 551,90 556,85 551,80 551,80 551,90 " style="fill:white; stroke-width:1; stroke:black; " description="&lt;b&gt;AQW35037.1&lt;/b&gt;&lt;br&gt;hypothetical protein&lt;br&gt;Location: 21040 - 20609" locus_tag="AQW35037.1" class="clusterblast-orf" id="dummy-3_h3_9_43"  />
</g>
<g id="a3_0044"  >
<polygon points="556,90 571,90 576,85 571,80 556,80 556,90 " style="fill:white; stroke-width:1; stroke:black; " description="&lt;b&gt;AQW35036.1&lt;/b&gt;&lt;br&gt;copper oxidase&lt;br&gt;Location: 20612 - 19017" locus_tag="AQW35036.1" class="clusterblast-orf" id="dummy-3_h3_9_44"  />
</g>
<g id="a3_0045"  >
<polygon points="576,85 581,80 588,80 588,90 581,90 576,85 " style="fill:white; stroke-width:1; stroke:black; " description="&lt;b&gt;AQW35035.1&lt;/b&gt;&lt;br&gt;oxidoreductase&lt;br&gt;Location: 18982 - 17957" locus_tag="AQW35035.1" class="clusterblast-orf" id="dummy-3_h3_9_45"  />
</g>
<g id="a3_0046"  >
<polygon points="589,85 594,80 597,80 597,90 594,90 589,85 " style="fill:white; stroke-width:1; stroke:black; " description="&lt;b&gt;AQW35034.1&lt;/b&gt;&lt;br&gt;hypothetical protein&lt;br&gt;Location: 17905 - 17231" locus_tag="AQW35034.1" class="clusterblast-orf" id="dummy-3_h3_9_46"  />
</g>
<g id="a3_0047"  >
<polygon points="600,90 608,90 613,85 608,80 600,80 600,90 " style="fill:white; stroke-width:1; stroke:black; " description="&lt;b&gt;AQW35033.1&lt;/b&gt;&lt;br&gt;ketoacyl-ACP synthase III&lt;br&gt;Location: 16950 - 15925" locus_tag="AQW35033.1" class="clusterblast-orf" id="dummy-3_h3_9_47"  />
</g>
<g id="a3_0048"  >
<polygon points="613,90 618,90 623,85 618,80 613,80 613,90 " style="fill:white; stroke-width:1; stroke:black; " description="&lt;b&gt;AQW35032.1&lt;/b&gt;&lt;br&gt;N-acetyltransferase&lt;br&gt;Location: 15889 - 15098" locus_tag="AQW35032.1" class="clusterblast-orf" id="dummy-3_h3_9_48"  />
</g>
<g id="a3_0049"  >
<polygon points="623,90 630,90 635,85 630,80 623,80 623,90 " style="fill:white; stroke-width:1; stroke:black; " description="&lt;b&gt;AQW35031.1&lt;/b&gt;&lt;br&gt;oxidoreductase&lt;br&gt;Location: 15075 - 14050" locus_tag="AQW35031.1" class="clusterblast-orf" id="dummy-3_h3_9_49"  />
</g>
<g id="a3_0050"  >
<polygon points="643,90 653,90 658,85 653,80 643,80 643,90 " style="fill:white; stroke-width:1; stroke:black; " description="&lt;b&gt;AQW35030.1&lt;/b&gt;&lt;br&gt;transposase&lt;br&gt;Location: 13402 - 12188" locus_tag="AQW35030.1" class="clusterblast-orf" id="dummy-3_h3_9_50"  />
</g>
<g id="a3_0051"  >
<polygon points="659,85 664,80 665,80 665,90 664,90 659,85 " style="fill:white; stroke-width:1; stroke:black; " description="&lt;b&gt;AQW35029.1&lt;/b&gt;&lt;br&gt;MarR family transcriptional regulator&lt;br&gt;Location: 12097 - 11564" locus_tag="AQW35029.1" class="clusterblast-orf" id="dummy-3_h3_9_51"  />
</g>
<g id="a3_0052"  >
<polygon points="667,90 682,90 687,85 682,80 667,80 667,90 " style="fill:white; stroke-width:1; stroke:black; " description="&lt;b&gt;AQW35028.1&lt;/b&gt;&lt;br&gt;Multidrug MFS transporter&lt;br&gt;Location: 11454 - 9730" locus_tag="AQW35028.1" class="clusterblast-orf" id="dummy-3_h3_9_52"  />
</g>
<g id="a3_0053"  >
<polygon points="692,90 710,90 715,85 710,80 692,80 692,90 " style="fill:white; stroke-width:1; stroke:black; " description="&lt;b&gt;AQW35027.1&lt;/b&gt;&lt;br&gt;transcriptional regulator&lt;br&gt;Location: 9356 - 7422" locus_tag="AQW35027.1" class="clusterblast-orf" id="dummy-3_h3_9_53"  />
</g>
<g id="a3_0054"  >
<polygon points="716,85 721,80 742,80 742,90 721,90 716,85 " style="fill:white; stroke-width:1; stroke:black; " description="&lt;b&gt;AQW35026.1&lt;/b&gt;&lt;br&gt;Transmembrane transporter&lt;br&gt;Location: 7355 - 5178" locus_tag="AQW35026.1" class="clusterblast-orf" id="dummy-3_h3_9_54"  />
</g>
<g id="a3_0055"  >
<polygon points="744,85 749,80 753,80 753,90 749,90 744,85 " style="fill:white; stroke-width:1; stroke:black; " description="&lt;b&gt;AQW35025.1&lt;/b&gt;&lt;br&gt;cytochrome BD oxidase subunit II&lt;br&gt;Location: 5026 - 4265" locus_tag="AQW35025.1" class="clusterblast-orf" id="dummy-3_h3_9_55"  />
</g>
<g id="a3_0056"  >
<polygon points="753,85 758,80 769,80 769,90 758,90 753,85 " style="fill:white; stroke-width:1; stroke:black; " description="&lt;b&gt;AQW35024.1&lt;/b&gt;&lt;br&gt;cytochrome ubiquinol oxidase subunit I&lt;br&gt;Location: 4252 - 2978" locus_tag="AQW35024.1" class="clusterblast-orf" id="dummy-3_h3_9_56"  />
</g>
<g id="a3_0057"  >
<polygon points="773,85 778,80 780,80 780,90 778,90 773,85 " style="fill:white; stroke-width:1; stroke:black; " description="&lt;b&gt;AQW35023.1&lt;/b&gt;&lt;br&gt;polyketide cyclase&lt;br&gt;Location: 2635 - 2081" locus_tag="AQW35023.1" class="clusterblast-orf" id="dummy-3_h3_9_57"  />
</g>
</svg>
