<svg xmlns="http://www.w3.org/2000/svg" xmlns:xlink="http://www.w3.org/1999/xlink" version="1.1" x="0" y="0" height="230" width="800" viewBox="0 0 800 230" preserveAspectRatio="none"  >
<g label="Query sequence" class="clusterblast-cluster"  >
<text x="5" y="20" class="clusterblast-acc"  >
Query sequence</text>
<line x1="10" y1="35" x2="778.0" y2="35" style="stroke-width:1; stroke:grey; "  />
<polygon points="0,35 5,30 6,30 6,40 5,40 0,35 " style="fill:white; stroke-width:1; stroke:black; " description="&lt;b&gt;MCIC6FC_018480&lt;/b&gt;&lt;br&gt;hypothetical protein&lt;br&gt;Location: 40369 - 41275" locus_tag="MCIC6FC_018480" class="clusterblast-orf" id="dummy-1_q0_0_all"  />
<polygon points="9,40 19,40 24,35 19,30 9,30 9,40 " style="fill:white; stroke-width:1; stroke:black; " description="&lt;b&gt;MCIC6FC_018481&lt;/b&gt;&lt;br&gt;hypothetical protein&lt;br&gt;Location: 41686 - 43743" locus_tag="MCIC6FC_018481" class="clusterblast-orf" id="dummy-1_q1_0_all"  />
<polygon points="25,35 30,30 42,30 42,40 30,40 25,35 " style="fill:white; stroke-width:1; stroke:black; " description="&lt;b&gt;MCIC6FC_018482&lt;/b&gt;&lt;br&gt;hypothetical protein&lt;br&gt;Location: 43880 - 46147" locus_tag="MCIC6FC_018482" class="clusterblast-orf" id="dummy-1_q2_0_all"  />
<polygon points="42,40 44,40 49,35 44,30 42,30 42,40 " style="fill:white; stroke-width:1; stroke:black; " description="&lt;b&gt;MCIC6FC_018483&lt;/b&gt;&lt;br&gt;hypothetical protein&lt;br&gt;Location: 46260 - 47154" locus_tag="MCIC6FC_018483" class="clusterblast-orf" id="dummy-1_q3_0_all"  />
<polygon points="50,35 55,30 67,30 67,40 55,40 50,35 " style="fill:#d81515; stroke-width:1; stroke:black; " description="&lt;b&gt;MCIC6FC_018484&lt;/b&gt;&lt;br&gt;hypothetical protein&lt;br&gt;Location: 47233 - 49612" locus_tag="MCIC6FC_018484" class="clusterblast-orf" id="dummy-1_q4_0_all"  />
<polygon points="67,35 72,30 77,30 77,40 72,40 67,35 " style="fill:white; stroke-width:1; stroke:black; " description="&lt;b&gt;MCIC6FC_018485&lt;/b&gt;&lt;br&gt;hypothetical protein&lt;br&gt;Location: 49634 - 50993" locus_tag="MCIC6FC_018485" class="clusterblast-orf" id="dummy-1_q5_0_all"  />
<polygon points="78,40 79,40 84,35 79,30 78,30 78,40 " style="fill:#5cd815; stroke-width:1; stroke:black; " description="&lt;b&gt;MCIC6FC_018486&lt;/b&gt;&lt;br&gt;hypothetical protein&lt;br&gt;Location: 51132 - 52029" locus_tag="MCIC6FC_018486" class="clusterblast-orf" id="dummy-1_q6_0_all"  />
<polygon points="85,40 96,40 101,35 96,30 85,30 85,40 " style="fill:#15a3d8; stroke-width:1; stroke:black; " description="&lt;b&gt;MCIC6FC_018487&lt;/b&gt;&lt;br&gt;hypothetical protein&lt;br&gt;Location: 52166 - 54331" locus_tag="MCIC6FC_018487" class="clusterblast-orf" id="dummy-1_q7_0_all"  />
<polygon points="102,35 107,30 109,30 109,40 107,40 102,35 " style="fill:white; stroke-width:1; stroke:black; " description="&lt;b&gt;MCIC6FC_018488&lt;/b&gt;&lt;br&gt;hypothetical protein&lt;br&gt;Location: 54373 - 55450" locus_tag="MCIC6FC_018488" class="clusterblast-orf" id="dummy-1_q8_0_all"  />
<polygon points="110,40 111,40 116,35 111,30 110,30 110,40 " style="fill:white; stroke-width:1; stroke:black; " description="&lt;b&gt;MCIC6FC_018489&lt;/b&gt;&lt;br&gt;hypothetical protein&lt;br&gt;Location: 55551 - 56322" locus_tag="MCIC6FC_018489" class="clusterblast-orf" id="dummy-1_q9_0_all"  />
<polygon points="116,35 121,30 123,30 123,40 121,40 116,35 " style="fill:#c715d8; stroke-width:1; stroke:black; " description="&lt;b&gt;MCIC6FC_018490&lt;/b&gt;&lt;br&gt;hypothetical protein&lt;br&gt;Location: 56326 - 57332" locus_tag="MCIC6FC_018490" class="clusterblast-orf" id="dummy-1_q10_0_all"  />
<polygon points="124,40 134,40 139,35 134,30 124,30 124,40 " style="fill:#d88015; stroke-width:1; stroke:black; " description="&lt;b&gt;MCIC6FC_018491&lt;/b&gt;&lt;br&gt;hypothetical protein&lt;br&gt;Location: 57455 - 59520" locus_tag="MCIC6FC_018491" class="clusterblast-orf" id="dummy-1_q11_0_all"  />
<polygon points="140,35 145,30 162,30 162,40 145,40 140,35 " style="fill:#15d839; stroke-width:1; stroke:black; " description="&lt;b&gt;MCIC6FC_018492&lt;/b&gt;&lt;br&gt;hypothetical protein&lt;br&gt;Location: 59589 - 62673" locus_tag="MCIC6FC_018492" class="clusterblast-orf" id="dummy-1_q12_0_all"  />
<polygon points="163,35 168,30 342,30 342,40 168,40 163,35 " style="fill:#1539d8; stroke-width:1; stroke:black; " description="&lt;b&gt;MCIC6FC_018493&lt;/b&gt;&lt;br&gt;hypothetical protein&lt;br&gt;Location: 62865 - 87322" locus_tag="MCIC6FC_018493" class="clusterblast-orf" id="dummy-1_q13_0_all"  />
<polygon points="343,35 348,30 355,30 355,40 348,40 343,35 " style="fill:#d81580; stroke-width:1; stroke:black; " description="&lt;b&gt;MCIC6FC_018494&lt;/b&gt;&lt;br&gt;hypothetical protein&lt;br&gt;Location: 87575 - 89201" locus_tag="MCIC6FC_018494" class="clusterblast-orf" id="dummy-1_q14_0_all"  />
<polygon points="356,40 377,40 382,35 377,30 356,30 356,40 " style="fill:white; stroke-width:1; stroke:black; " description="&lt;b&gt;MCIC6FC_018495&lt;/b&gt;&lt;br&gt;hypothetical protein&lt;br&gt;Location: 89338 - 92879" locus_tag="MCIC6FC_018495" class="clusterblast-orf" id="dummy-1_q15_0_all"  />
<polygon points="383,35 388,30 389,30 389,40 388,40 383,35 " style="fill:#c7d815; stroke-width:1; stroke:black; " description="&lt;b&gt;MCIC6FC_018496&lt;/b&gt;&lt;br&gt;hypothetical protein&lt;br&gt;Location: 93004 - 93837" locus_tag="MCIC6FC_018496" class="clusterblast-orf" id="dummy-1_q16_0_all"  />
<polygon points="390,40 397,40 402,35 397,30 390,30 390,40 " style="fill:#15d8a3; stroke-width:1; stroke:black; " description="&lt;b&gt;MCIC6FC_018497&lt;/b&gt;&lt;br&gt;hypothetical protein&lt;br&gt;Location: 94038 - 95691" locus_tag="MCIC6FC_018497" class="clusterblast-orf" id="dummy-1_q17_0_all"  />
<polygon points="404,40 416,40 421,35 416,30 404,30 404,40 " style="fill:white; stroke-width:1; stroke:black; " description="&lt;b&gt;MCIC6FC_018498&lt;/b&gt;&lt;br&gt;hypothetical protein&lt;br&gt;Location: 95846 - 98231" locus_tag="MCIC6FC_018498" class="clusterblast-orf" id="dummy-1_q18_0_all"  />
<polygon points="422,35 427,30 554,30 554,40 427,40 422,35 " style="fill:#5c15d8; stroke-width:1; stroke:black; " description="&lt;b&gt;MCIC6FC_018499&lt;/b&gt;&lt;br&gt;hypothetical protein&lt;br&gt;Location: 98383 - 116494" locus_tag="MCIC6FC_018499" class="clusterblast-orf" id="dummy-1_q19_0_all"  />
<polygon points="555,35 560,30 646,30 646,40 560,40 555,35 " style="fill:#5c15d8; stroke-width:1; stroke:black; " description="&lt;b&gt;MCIC6FC_018500&lt;/b&gt;&lt;br&gt;hypothetical protein&lt;br&gt;Location: 116593 - 129094" locus_tag="MCIC6FC_018500" class="clusterblast-orf" id="dummy-1_q20_0_all"  />
<polygon points="646,35 651,30 664,30 664,40 651,40 646,35 " style="fill:white; stroke-width:1; stroke:black; " description="&lt;b&gt;MCIC6FC_018501&lt;/b&gt;&lt;br&gt;hypothetical protein&lt;br&gt;Location: 129176 - 131553" locus_tag="MCIC6FC_018501" class="clusterblast-orf" id="dummy-1_q21_0_all"  />
<polygon points="664,35 669,30 674,30 674,40 669,40 664,35 " style="fill:white; stroke-width:1; stroke:black; " description="&lt;b&gt;MCIC6FC_018502&lt;/b&gt;&lt;br&gt;hypothetical protein&lt;br&gt;Location: 131556 - 132906" locus_tag="MCIC6FC_018502" class="clusterblast-orf" id="dummy-1_q22_0_all"  />
<polygon points="674,35 679,30 683,30 683,40 679,40 674,35 " style="fill:white; stroke-width:1; stroke:black; " description="&lt;b&gt;MCIC6FC_018503&lt;/b&gt;&lt;br&gt;hypothetical protein&lt;br&gt;Location: 132965 - 134195" locus_tag="MCIC6FC_018503" class="clusterblast-orf" id="dummy-1_q23_0_all"  />
<polygon points="685,40 692,40 697,35 692,30 685,30 685,40 " style="fill:white; stroke-width:1; stroke:black; " description="&lt;b&gt;MCIC6FC_018504&lt;/b&gt;&lt;br&gt;hypothetical protein&lt;br&gt;Location: 134427 - 136068" locus_tag="MCIC6FC_018504" class="clusterblast-orf" id="dummy-1_q24_0_all"  />
<polygon points="697,35 702,30 702,30 702,40 702,40 697,35 " style="fill:white; stroke-width:1; stroke:black; " description="&lt;b&gt;MCIC6FC_018505&lt;/b&gt;&lt;br&gt;hypothetical protein&lt;br&gt;Location: 136093 - 136805" locus_tag="MCIC6FC_018505" class="clusterblast-orf" id="dummy-1_q25_0_all"  />
<polygon points="703,40 708,40 713,35 708,30 703,30 703,40 " style="fill:white; stroke-width:1; stroke:black; " description="&lt;b&gt;MCIC6FC_018506&lt;/b&gt;&lt;br&gt;hypothetical protein&lt;br&gt;Location: 136909 - 138265" locus_tag="MCIC6FC_018506" class="clusterblast-orf" id="dummy-1_q26_0_all"  />
<polygon points="714,40 729,40 734,35 729,30 714,30 714,40 " style="fill:white; stroke-width:1; stroke:black; " description="&lt;b&gt;MCIC6FC_018507&lt;/b&gt;&lt;br&gt;hypothetical protein&lt;br&gt;Location: 138444 - 141153" locus_tag="MCIC6FC_018507" class="clusterblast-orf" id="dummy-1_q27_0_all"  />
<polygon points="734,35 739,30 749,30 749,40 739,40 734,35 " style="fill:white; stroke-width:1; stroke:black; " description="&lt;b&gt;MCIC6FC_018508&lt;/b&gt;&lt;br&gt;hypothetical protein&lt;br&gt;Location: 141248 - 143227" locus_tag="MCIC6FC_018508" class="clusterblast-orf" id="dummy-1_q28_0_all"  />
<polygon points="749,35 754,30 780,30 780,40 754,40 749,35 " style="fill:white; stroke-width:1; stroke:black; " description="&lt;b&gt;MCIC6FC_018509&lt;/b&gt;&lt;br&gt;hypothetical protein&lt;br&gt;Location: 143237 - 147464" locus_tag="MCIC6FC_018509" class="clusterblast-orf" id="dummy-1_q29_0_all"  />
</g>
<g label="BGC0000425" description="BGC0000425_c1: sessilin A (44% of genes show similarity), NRP:Cyclic depsipeptide" class="clusterblast-cluster"  >
<text x="5" y="70" class="clusterblast-acc"  >
<a xlink:href="https://mibig.secondarymetabolites.org/go/BGC0000425/1" target="_blank">BGC0000425</a>:                                                                       sessilin A (44% of genes show similarity), NRP:Cyclic depsipeptide</text>
<line x1="10" y1="85" x2="778.0" y2="85" style="stroke-width:1; stroke:grey; "  />
</g>
<g id="a1_000"  >
<polygon points="136,90 141,90 146,85 141,80 136,80 136,90 " style="fill:white; stroke-width:1; stroke:black; " description="&lt;b&gt;AFH75325.1&lt;/b&gt;&lt;br&gt;diaminobutyrate-2-oxoglutarate aminotransferase&lt;br&gt;Location: 69722 - 68337" locus_tag="AFH75325.1" class="clusterblast-orf" id="dummy-1_h1_4_0"  />
</g>
<g id="a1_001"  >
<polygon points="147,85 152,80 161,80 161,90 152,90 147,85 " style="fill:#15d839; stroke-width:1; stroke:black; " description="&lt;b&gt;AFH75324.1&lt;/b&gt;&lt;br&gt;macrolide export ATP-binding/permease protein MacB&lt;br&gt;Location: 68229 - 66271&lt;br&gt;&lt;br&gt;&lt;b&gt;BlastP hit with MCIC6FC_018492&lt;/b&gt;&lt;br&gt;Percentage identity: 76&lt;br&gt;Percentage coverage: 64&lt;br&gt;BLAST bit score: 936&lt;br&gt;E-value: 2.7e-272" locus_tag="AFH75324.1" class="clusterblast-orf" id="dummy-1_h1_4_1"  />
</g>
<g id="a1_002"  >
<polygon points="161,85 166,80 169,80 169,90 166,90 161,85 " style="fill:white; stroke-width:1; stroke:black; " description="&lt;b&gt;AFH75323.1&lt;/b&gt;&lt;br&gt;macrolide-specific efflux protein&lt;br&gt;Location: 66268 - 65117" locus_tag="AFH75323.1" class="clusterblast-orf" id="dummy-1_h1_4_2"  />
</g>
<g id="a1_003"  >
<polygon points="170,85 175,80 324,80 324,90 175,90 170,85 " style="fill:#1539d8; stroke-width:1; stroke:black; " description="&lt;b&gt;AFH75322.1&lt;/b&gt;&lt;br&gt;nonribosomal peptide synthetase&lt;br&gt;Location: 64995 - 43822&lt;br&gt;&lt;br&gt;&lt;b&gt;BlastP hit with MCIC6FC_018493&lt;/b&gt;&lt;br&gt;Percentage identity: 50&lt;br&gt;Percentage coverage: 81&lt;br&gt;BLAST bit score: 5606&lt;br&gt;E-value: 0.0" locus_tag="AFH75322.1" class="clusterblast-orf" id="dummy-1_h1_4_3"  />
</g>
<g id="a1_004"  >
<polygon points="327,85 332,80 468,80 468,90 332,90 327,85 " style="fill:#1539d8; stroke-width:1; stroke:black; " description="&lt;b&gt;AFH75321.1&lt;/b&gt;&lt;br&gt;nonribosomal peptide synthetase&lt;br&gt;Location: 43444 - 24044&lt;br&gt;&lt;br&gt;&lt;b&gt;BlastP hit with MCIC6FC_018493&lt;/b&gt;&lt;br&gt;Percentage identity: 53&lt;br&gt;Percentage coverage: 82&lt;br&gt;BLAST bit score: 6256&lt;br&gt;E-value: 0.0" locus_tag="AFH75321.1" class="clusterblast-orf" id="dummy-1_h1_4_4"  />
</g>
<g id="a1_005"  >
<polygon points="468,85 473,80 608,80 608,90 473,90 468,85 " style="fill:#1539d8; stroke-width:1; stroke:black; " description="&lt;b&gt;AFH75320.1&lt;/b&gt;&lt;br&gt;nonribosomal peptide synthetase&lt;br&gt;Location: 24047 - 4806&lt;br&gt;&lt;br&gt;&lt;b&gt;BlastP hit with MCIC6FC_018493&lt;/b&gt;&lt;br&gt;Percentage identity: 50&lt;br&gt;Percentage coverage: 81&lt;br&gt;BLAST bit score: 5607&lt;br&gt;E-value: 0.0" locus_tag="AFH75320.1" class="clusterblast-orf" id="dummy-1_h1_4_5"  />
</g>
<g id="a1_006"  >
<polygon points="612,85 617,80 624,80 624,90 617,90 612,85 " style="fill:white; stroke-width:1; stroke:black; " description="&lt;b&gt;AFH75319.1&lt;/b&gt;&lt;br&gt;cyclic peptide transporter&lt;br&gt;Location: 4344 - 2647" locus_tag="AFH75319.1" class="clusterblast-orf" id="dummy-1_h1_4_6"  />
</g>
<g id="a1_007"  >
<polygon points="626,90 627,90 632,85 627,80 626,80 626,90 " style="fill:white; stroke-width:1; stroke:black; " description="&lt;b&gt;AFH75318.1&lt;/b&gt;&lt;br&gt;LuxR family transcriptional regulator&lt;br&gt;Location: 2337 - 1522" locus_tag="AFH75318.1" class="clusterblast-orf" id="dummy-1_h1_4_7"  />
</g>
<g id="a1_008"  >
<polygon points="633,90 638,90 643,85 638,80 633,80 633,90 " style="fill:white; stroke-width:1; stroke:black; " description="&lt;b&gt;AFH75317.1&lt;/b&gt;&lt;br&gt;outer membrane efflux protein&lt;br&gt;Location: 1459 - 20" locus_tag="AFH75317.1" class="clusterblast-orf" id="dummy-1_h1_4_8"  />
</g>
</svg>
