<svg xmlns="http://www.w3.org/2000/svg" xmlns:xlink="http://www.w3.org/1999/xlink" version="1.1" x="0" y="0" height="230" width="800" viewBox="0 0 800 230" preserveAspectRatio="none"  >
<g label="Query sequence" class="clusterblast-cluster"  >
<text x="5" y="20" class="clusterblast-acc"  >
Query sequence</text>
<line x1="10" y1="35" x2="778.0" y2="35" style="stroke-width:1; stroke:grey; "  />
<polygon points="46,35 51,30 60,30 60,40 51,40 46,35 " style="fill:white; stroke-width:1; stroke:black; " description="&lt;b&gt;MCIC6FC_007887&lt;/b&gt;&lt;br&gt;hypothetical protein&lt;br&gt;Location: 1618687 - 1619925" locus_tag="MCIC6FC_007887" class="clusterblast-orf" id="dummy-6_q0_0_all"  />
<polygon points="60,35 65,30 80,30 80,40 65,40 60,35 " style="fill:#d81515; stroke-width:1; stroke:black; " description="&lt;b&gt;MCIC6FC_007888&lt;/b&gt;&lt;br&gt;hypothetical protein&lt;br&gt;Location: 1619941 - 1621734" locus_tag="MCIC6FC_007888" class="clusterblast-orf" id="dummy-6_q1_0_all"  />
<polygon points="81,35 86,30 93,30 93,40 86,40 81,35 " style="fill:#3cd815; stroke-width:1; stroke:black; " description="&lt;b&gt;MCIC6FC_007889&lt;/b&gt;&lt;br&gt;hypothetical protein&lt;br&gt;Location: 1621784 - 1622873" locus_tag="MCIC6FC_007889" class="clusterblast-orf" id="dummy-6_q2_0_all"  />
<polygon points="93,35 98,30 109,30 109,40 98,40 93,35 " style="fill:white; stroke-width:1; stroke:black; " description="&lt;b&gt;MCIC6FC_007890&lt;/b&gt;&lt;br&gt;hypothetical protein&lt;br&gt;Location: 1622896 - 1624255" locus_tag="MCIC6FC_007890" class="clusterblast-orf" id="dummy-6_q3_0_all"  />
<polygon points="110,40 116,40 121,35 116,30 110,30 110,40 " style="fill:#1563d8; stroke-width:1; stroke:black; " description="&lt;b&gt;MCIC6FC_007891&lt;/b&gt;&lt;br&gt;hypothetical protein&lt;br&gt;Location: 1624394 - 1625291" locus_tag="MCIC6FC_007891" class="clusterblast-orf" id="dummy-6_q4_0_all"  />
<polygon points="122,40 141,40 146,35 141,30 122,30 122,40 " style="fill:#b115d8; stroke-width:1; stroke:black; " description="&lt;b&gt;MCIC6FC_007892&lt;/b&gt;&lt;br&gt;hypothetical protein&lt;br&gt;Location: 1625391 - 1627551" locus_tag="MCIC6FC_007892" class="clusterblast-orf" id="dummy-6_q5_0_all"  />
<polygon points="147,35 152,30 159,30 159,40 152,40 147,35 " style="fill:white; stroke-width:1; stroke:black; " description="&lt;b&gt;MCIC6FC_007893&lt;/b&gt;&lt;br&gt;hypothetical protein&lt;br&gt;Location: 1627593 - 1628671" locus_tag="MCIC6FC_007893" class="clusterblast-orf" id="dummy-6_q6_0_all"  />
<polygon points="160,40 163,40 168,35 163,30 160,30 160,40 " style="fill:white; stroke-width:1; stroke:black; " description="&lt;b&gt;MCIC6FC_007894&lt;/b&gt;&lt;br&gt;hypothetical protein&lt;br&gt;Location: 1628768 - 1629501" locus_tag="MCIC6FC_007894" class="clusterblast-orf" id="dummy-6_q7_0_all"  />
<polygon points="169,35 174,30 174,30 174,40 174,40 169,35 " style="fill:#d88a15; stroke-width:1; stroke:black; " description="&lt;b&gt;MCIC6FC_007895&lt;/b&gt;&lt;br&gt;hypothetical protein&lt;br&gt;Location: 1629543 - 1629981" locus_tag="MCIC6FC_007895" class="clusterblast-orf" id="dummy-6_q8_0_all"  />
<polygon points="175,35 180,30 180,30 180,40 180,40 175,35 " style="fill:#15d863; stroke-width:1; stroke:black; " description="&lt;b&gt;MCIC6FC_007896&lt;/b&gt;&lt;br&gt;hypothetical protein&lt;br&gt;Location: 1630103 - 1630574" locus_tag="MCIC6FC_007896" class="clusterblast-orf" id="dummy-6_q9_0_all"  />
<polygon points="182,40 191,40 196,35 191,30 182,30 182,40 " style="fill:#3c15d8; stroke-width:1; stroke:black; " description="&lt;b&gt;MCIC6FC_007897&lt;/b&gt;&lt;br&gt;hypothetical protein&lt;br&gt;Location: 1630697 - 1631945" locus_tag="MCIC6FC_007897" class="clusterblast-orf" id="dummy-6_q10_0_all"  />
<polygon points="198,40 201,40 206,35 201,30 198,30 198,40 " style="fill:#d8158a; stroke-width:1; stroke:black; " description="&lt;b&gt;MCIC6FC_007898&lt;/b&gt;&lt;br&gt;hypothetical protein&lt;br&gt;Location: 1632165 - 1632855" locus_tag="MCIC6FC_007898" class="clusterblast-orf" id="dummy-6_q11_0_all"  />
<polygon points="207,35 212,30 242,30 242,40 212,40 207,35 " style="fill:#b1d815; stroke-width:1; stroke:black; " description="&lt;b&gt;MCIC6FC_007899&lt;/b&gt;&lt;br&gt;hypothetical protein&lt;br&gt;Location: 1632911 - 1635995" locus_tag="MCIC6FC_007899" class="clusterblast-orf" id="dummy-6_q12_0_all"  />
<polygon points="248,35 253,30 522,30 522,40 253,40 248,35 " style="fill:#15d8d8; stroke-width:1; stroke:black; " description="&lt;b&gt;MCIC6FC_007900&lt;/b&gt;&lt;br&gt;hypothetical protein&lt;br&gt;Location: 1636549 - 1660777" locus_tag="MCIC6FC_007900" class="clusterblast-orf" id="dummy-6_q13_0_all"  />
<polygon points="524,35 529,30 543,30 543,40 529,40 524,35 " style="fill:white; stroke-width:1; stroke:black; " description="&lt;b&gt;MCIC6FC_007901&lt;/b&gt;&lt;br&gt;hypothetical protein&lt;br&gt;Location: 1660996 - 1662651" locus_tag="MCIC6FC_007901" class="clusterblast-orf" id="dummy-6_q14_0_all"  />
<polygon points="546,35 551,30 601,30 601,40 551,40 546,35 " style="fill:white; stroke-width:1; stroke:black; " description="&lt;b&gt;MCIC6FC_007902&lt;/b&gt;&lt;br&gt;hypothetical protein&lt;br&gt;Location: 1662893 - 1667726" locus_tag="MCIC6FC_007902" class="clusterblast-orf" id="dummy-6_q15_0_all"  />
<polygon points="618,40 627,40 632,35 627,30 618,30 618,40 " style="fill:white; stroke-width:1; stroke:black; " description="&lt;b&gt;MCIC6FC_007903&lt;/b&gt;&lt;br&gt;hypothetical protein&lt;br&gt;Location: 1669225 - 1670522" locus_tag="MCIC6FC_007903" class="clusterblast-orf" id="dummy-6_q16_0_all"  />
<polygon points="633,40 636,40 641,35 636,30 633,30 633,40 " style="fill:white; stroke-width:1; stroke:black; " description="&lt;b&gt;MCIC6FC_007904&lt;/b&gt;&lt;br&gt;hypothetical protein&lt;br&gt;Location: 1670591 - 1671338" locus_tag="MCIC6FC_007904" class="clusterblast-orf" id="dummy-6_q17_0_all"  />
<polygon points="644,35 649,30 650,30 650,40 649,40 644,35 " style="fill:white; stroke-width:1; stroke:black; " description="&lt;b&gt;MCIC6FC_007905&lt;/b&gt;&lt;br&gt;hypothetical protein&lt;br&gt;Location: 1671548 - 1672133" locus_tag="MCIC6FC_007905" class="clusterblast-orf" id="dummy-6_q18_0_all"  />
<polygon points="651,35 656,30 663,30 663,40 656,40 651,35 " style="fill:white; stroke-width:1; stroke:black; " description="&lt;b&gt;MCIC6FC_007906&lt;/b&gt;&lt;br&gt;hypothetical protein&lt;br&gt;Location: 1672192 - 1673215" locus_tag="MCIC6FC_007906" class="clusterblast-orf" id="dummy-6_q19_0_all"  />
<polygon points="663,35 668,30 690,30 690,40 668,40 663,35 " style="fill:white; stroke-width:1; stroke:black; " description="&lt;b&gt;MCIC6FC_007907&lt;/b&gt;&lt;br&gt;hypothetical protein&lt;br&gt;Location: 1673279 - 1675586" locus_tag="MCIC6FC_007907" class="clusterblast-orf" id="dummy-6_q20_0_all"  />
<polygon points="691,40 728,40 733,35 728,30 691,30 691,40 " style="fill:white; stroke-width:1; stroke:black; " description="&lt;b&gt;MCIC6FC_007908&lt;/b&gt;&lt;br&gt;hypothetical protein&lt;br&gt;Location: 1675751 - 1679462" locus_tag="MCIC6FC_007908" class="clusterblast-orf" id="dummy-6_q21_0_all"  />
</g>
<g label="BGC0000447" description="BGC0000447_c1: tolaasin I / tolaasin F (60% of genes show similarity), NRP:Lipopeptide" class="clusterblast-cluster"  >
<text x="5" y="70" class="clusterblast-acc"  >
<a xlink:href="https://mibig.secondarymetabolites.org/go/BGC0000447/1" target="_blank">BGC0000447</a>:                                                          tolaasin I / tolaasin F (60% of genes show similarity), NRP:Lipopeptide</text>
<line x1="10" y1="85" x2="778.0" y2="85" style="stroke-width:1; stroke:grey; "  />
</g>
<g id="a6_000"  >
<polygon points="0,85 5,80 22,80 22,90 5,90 0,85 " style="fill:#b1d815; stroke-width:1; stroke:black; " description="&lt;b&gt;CCJ67642.1&lt;/b&gt;&lt;br&gt;macrolide export ATP-binding/permease protein MacB&lt;br&gt;Location: 68950 - 66992&lt;br&gt;&lt;br&gt;&lt;b&gt;BlastP hit with MCIC6FC_007899&lt;/b&gt;&lt;br&gt;Percentage identity: 78&lt;br&gt;Percentage coverage: 64&lt;br&gt;BLAST bit score: 950&lt;br&gt;E-value: 2.3e-276" locus_tag="CCJ67642.1" class="clusterblast-orf" id="dummy-6_h6_8_0"  />
</g>
<g id="a6_001"  >
<polygon points="22,85 27,80 35,80 35,90 27,90 22,85 " style="fill:white; stroke-width:1; stroke:black; " description="&lt;b&gt;CCJ67641.1&lt;/b&gt;&lt;br&gt;macrolide-specific efflux protein macA&lt;br&gt;Location: 66989 - 65838" locus_tag="CCJ67641.1" class="clusterblast-orf" id="dummy-6_h6_8_1"  />
</g>
<g id="a6_002"  >
<polygon points="36,85 41,80 275,80 275,90 41,90 36,85 " style="fill:#15d8d8; stroke-width:1; stroke:black; " description="&lt;b&gt;CCJ67640.1&lt;/b&gt;&lt;br&gt;TaaE&lt;br&gt;Location: 65716 - 44558&lt;br&gt;&lt;br&gt;&lt;b&gt;BlastP hit with MCIC6FC_007900&lt;/b&gt;&lt;br&gt;Percentage identity: 51&lt;br&gt;Percentage coverage: 81&lt;br&gt;BLAST bit score: 5852&lt;br&gt;E-value: 0.0" locus_tag="CCJ67640.1" class="clusterblast-orf" id="dummy-6_h6_8_2"  />
</g>
<g id="a6_003"  >
<polygon points="279,85 284,80 392,80 392,90 284,90 279,85 " style="fill:#15d8d8; stroke-width:1; stroke:black; " description="&lt;b&gt;CCJ67639.1&lt;/b&gt;&lt;br&gt;TaaD&lt;br&gt;Location: 44247 - 34255&lt;br&gt;&lt;br&gt;&lt;b&gt;BlastP hit with MCIC6FC_007900&lt;/b&gt;&lt;br&gt;Percentage identity: 53&lt;br&gt;Percentage coverage: 43&lt;br&gt;BLAST bit score: 3258&lt;br&gt;E-value: 0.0" locus_tag="CCJ67639.1" class="clusterblast-orf" id="dummy-6_h6_8_3"  />
</g>
<g id="a6_004"  >
<polygon points="392,85 397,80 505,80 505,90 397,90 392,85 " style="fill:#15d8d8; stroke-width:1; stroke:black; " description="&lt;b&gt;CCJ67638.1&lt;/b&gt;&lt;br&gt;TaaC&lt;br&gt;Location: 34258 - 24290&lt;br&gt;&lt;br&gt;&lt;b&gt;BlastP hit with MCIC6FC_007900&lt;/b&gt;&lt;br&gt;Percentage identity: 58&lt;br&gt;Percentage coverage: 42&lt;br&gt;BLAST bit score: 3493&lt;br&gt;E-value: 0.0" locus_tag="CCJ67638.1" class="clusterblast-orf" id="dummy-6_h6_8_4"  />
</g>
<g id="a6_005"  >
<polygon points="505,85 510,80 616,80 616,90 510,90 505,85 " style="fill:#15d8d8; stroke-width:1; stroke:black; " description="&lt;b&gt;CCJ67637.1&lt;/b&gt;&lt;br&gt;TaaB&lt;br&gt;Location: 24293 - 14451&lt;br&gt;&lt;br&gt;&lt;b&gt;BlastP hit with MCIC6FC_007900&lt;/b&gt;&lt;br&gt;Percentage identity: 60&lt;br&gt;Percentage coverage: 40&lt;br&gt;BLAST bit score: 3541&lt;br&gt;E-value: 0.0" locus_tag="CCJ67637.1" class="clusterblast-orf" id="dummy-6_h6_8_5"  />
</g>
<g id="a6_006"  >
<polygon points="616,85 621,80 725,80 725,90 621,90 616,85 " style="fill:#15d8d8; stroke-width:1; stroke:black; " description="&lt;b&gt;CCJ67636.1&lt;/b&gt;&lt;br&gt;TaaA&lt;br&gt;Location: 14454 - 4795&lt;br&gt;&lt;br&gt;&lt;b&gt;BlastP hit with MCIC6FC_007900&lt;/b&gt;&lt;br&gt;Percentage identity: 53&lt;br&gt;Percentage coverage: 40&lt;br&gt;BLAST bit score: 3013&lt;br&gt;E-value: 0.0" locus_tag="CCJ67636.1" class="clusterblast-orf" id="dummy-6_h6_8_6"  />
</g>
<g id="a6_007"  >
<polygon points="730,85 735,80 750,80 750,90 735,90 730,85 " style="fill:white; stroke-width:1; stroke:black; " description="&lt;b&gt;CCJ67635.1&lt;/b&gt;&lt;br&gt;cyclic peptide transporter family protein&lt;br&gt;Location: 4333 - 2636" locus_tag="CCJ67635.1" class="clusterblast-orf" id="dummy-6_h6_8_7"  />
</g>
<g id="a6_008"  >
<polygon points="753,90 758,90 763,85 758,80 753,80 753,90 " style="fill:white; stroke-width:1; stroke:black; " description="&lt;b&gt;CCJ67634.1&lt;/b&gt;&lt;br&gt;bacterial regulatory, luxR family protein&lt;br&gt;Location: 2384 - 1503" locus_tag="CCJ67634.1" class="clusterblast-orf" id="dummy-6_h6_8_8"  />
</g>
<g id="a6_009"  >
<polygon points="763,90 775,90 780,85 775,80 763,80 763,90 " style="fill:white; stroke-width:1; stroke:black; " description="&lt;b&gt;CCJ67633.1&lt;/b&gt;&lt;br&gt;multidrug/solvent efflux pump outer membrane protein mepC&lt;br&gt;Location: 1440 - 1" locus_tag="CCJ67633.1" class="clusterblast-orf" id="dummy-6_h6_8_9"  />
</g>
</svg>
