<svg xmlns="http://www.w3.org/2000/svg" xmlns:xlink="http://www.w3.org/1999/xlink" version="1.1" x="0" y="0" height="50" width="800" viewBox="0 0 800 50" preserveAspectRatio="none"  >
<g label="Query sequence" class="clusterblast-cluster"  >
<text x="5" y="20" class="clusterblast-acc"  >
Query sequence</text>
<line x1="10" y1="35" x2="778.0" y2="35" style="stroke-width:1; stroke:grey; "  />
<polygon points="0,40 8,40 13,35 8,30 0,30 0,40 " style="fill:white; stroke-width:1; stroke:black; " description="&lt;b&gt;MCIC6FC_007376&lt;/b&gt;&lt;br&gt;hypothetical protein&lt;br&gt;Location: 474120 - 475205" locus_tag="MCIC6FC_007376" class="clusterblast-orf" id="subclusterblast-1_q0_0_all"  />
<polygon points="17,35 22,30 69,30 69,40 22,40 17,35 " style="fill:white; stroke-width:1; stroke:black; " description="&lt;b&gt;MCIC6FC_007377&lt;/b&gt;&lt;br&gt;hypothetical protein&lt;br&gt;Location: 475594 - 479870" locus_tag="MCIC6FC_007377" class="clusterblast-orf" id="subclusterblast-1_q1_0_all"  />
<polygon points="70,40 125,40 130,35 125,30 70,30 70,40 " style="fill:white; stroke-width:1; stroke:black; " description="&lt;b&gt;MCIC6FC_007378&lt;/b&gt;&lt;br&gt;hypothetical protein&lt;br&gt;Location: 479964 - 484887" locus_tag="MCIC6FC_007378" class="clusterblast-orf" id="subclusterblast-1_q2_0_all"  />
<polygon points="133,40 143,40 148,35 143,30 133,30 133,40 " style="fill:white; stroke-width:1; stroke:black; " description="&lt;b&gt;MCIC6FC_007379&lt;/b&gt;&lt;br&gt;hypothetical protein&lt;br&gt;Location: 485105 - 486335" locus_tag="MCIC6FC_007379" class="clusterblast-orf" id="subclusterblast-1_q3_0_all"  />
<polygon points="148,40 171,40 176,35 171,30 148,30 148,40 " style="fill:white; stroke-width:1; stroke:black; " description="&lt;b&gt;MCIC6FC_007380&lt;/b&gt;&lt;br&gt;hypothetical protein&lt;br&gt;Location: 486382 - 488704" locus_tag="MCIC6FC_007380" class="clusterblast-orf" id="subclusterblast-1_q4_0_all"  />
<polygon points="177,40 179,40 184,35 179,30 177,30 177,40 " style="fill:white; stroke-width:1; stroke:black; " description="&lt;b&gt;MCIC6FC_007381&lt;/b&gt;&lt;br&gt;hypothetical protein&lt;br&gt;Location: 488771 - 489344" locus_tag="MCIC6FC_007381" class="clusterblast-orf" id="subclusterblast-1_q5_0_all"  />
<polygon points="184,40 196,40 201,35 196,30 184,30 184,40 " style="fill:white; stroke-width:1; stroke:black; " description="&lt;b&gt;MCIC6FC_007382&lt;/b&gt;&lt;br&gt;hypothetical protein&lt;br&gt;Location: 489369 - 490725" locus_tag="MCIC6FC_007382" class="clusterblast-orf" id="subclusterblast-1_q6_0_all"  />
<polygon points="201,35 206,30 208,30 208,40 206,40 201,35 " style="fill:white; stroke-width:1; stroke:black; " description="&lt;b&gt;MCIC6FC_007383&lt;/b&gt;&lt;br&gt;hypothetical protein&lt;br&gt;Location: 490732 - 491308" locus_tag="MCIC6FC_007383" class="clusterblast-orf" id="subclusterblast-1_q7_0_all"  />
<polygon points="210,40 214,35 210,30 210,40 " style="fill:white; stroke-width:1; stroke:black; " description="&lt;b&gt;MCIC6FC_007384&lt;/b&gt;&lt;br&gt;hypothetical protein&lt;br&gt;Location: 491449 - 491764" locus_tag="MCIC6FC_007384" class="clusterblast-orf" id="subclusterblast-1_q8_0_all"  />
<polygon points="214,40 219,40 224,35 219,30 214,30 214,40 " style="fill:white; stroke-width:1; stroke:black; " description="&lt;b&gt;MCIC6FC_007385&lt;/b&gt;&lt;br&gt;hypothetical protein&lt;br&gt;Location: 491806 - 492622" locus_tag="MCIC6FC_007385" class="clusterblast-orf" id="subclusterblast-1_q9_0_all"  />
<polygon points="224,40 543,40 548,35 543,30 224,30 224,40 " style="fill:white; stroke-width:1; stroke:black; " description="&lt;b&gt;MCIC6FC_007386&lt;/b&gt;&lt;br&gt;hypothetical protein&lt;br&gt;Location: 492655 - 519348" locus_tag="MCIC6FC_007386" class="clusterblast-orf" id="subclusterblast-1_q10_0_all"  />
<polygon points="551,35 556,30 580,30 580,40 556,40 551,35 " style="fill:white; stroke-width:1; stroke:black; " description="&lt;b&gt;MCIC6FC_007387&lt;/b&gt;&lt;br&gt;hypothetical protein&lt;br&gt;Location: 519638 - 522035" locus_tag="MCIC6FC_007387" class="clusterblast-orf" id="subclusterblast-1_q11_0_all"  />
<polygon points="582,35 587,30 602,30 602,40 587,40 582,35 " style="fill:white; stroke-width:1; stroke:black; " description="&lt;b&gt;MCIC6FC_007388&lt;/b&gt;&lt;br&gt;hypothetical protein&lt;br&gt;Location: 522189 - 523842" locus_tag="MCIC6FC_007388" class="clusterblast-orf" id="subclusterblast-1_q12_0_all"  />
<polygon points="605,40 610,40 615,35 610,30 605,30 605,40 " style="fill:white; stroke-width:1; stroke:black; " description="&lt;b&gt;MCIC6FC_007389&lt;/b&gt;&lt;br&gt;hypothetical protein&lt;br&gt;Location: 524041 - 524869" locus_tag="MCIC6FC_007389" class="clusterblast-orf" id="subclusterblast-1_q13_0_all"  />
<polygon points="623,35 628,30 666,30 666,40 628,40 623,35 " style="fill:white; stroke-width:1; stroke:black; " description="&lt;b&gt;MCIC6FC_007390&lt;/b&gt;&lt;br&gt;hypothetical protein&lt;br&gt;Location: 525562 - 529119" locus_tag="MCIC6FC_007390" class="clusterblast-orf" id="subclusterblast-1_q14_0_all"  />
<polygon points="668,40 683,40 688,35 683,30 668,30 668,40 " style="fill:white; stroke-width:1; stroke:black; " description="&lt;b&gt;MCIC6FC_007391&lt;/b&gt;&lt;br&gt;hypothetical protein&lt;br&gt;Location: 529255 - 530864" locus_tag="MCIC6FC_007391" class="clusterblast-orf" id="subclusterblast-1_q15_0_all"  />
<polygon points="688,35 693,30 699,30 699,40 693,40 688,35 " style="fill:white; stroke-width:1; stroke:black; " description="&lt;b&gt;MCIC6FC_007392&lt;/b&gt;&lt;br&gt;hypothetical protein&lt;br&gt;Location: 530867 - 531816" locus_tag="MCIC6FC_007392" class="clusterblast-orf" id="subclusterblast-1_q16_0_all"  />
<polygon points="701,40 729,40 734,35 729,30 701,30 701,40 " style="fill:white; stroke-width:1; stroke:black; " description="&lt;b&gt;MCIC6FC_007393&lt;/b&gt;&lt;br&gt;hypothetical protein&lt;br&gt;Location: 531961 - 534689" locus_tag="MCIC6FC_007393" class="clusterblast-orf" id="subclusterblast-1_q17_0_all"  />
<polygon points="734,40 742,40 747,35 742,30 734,30 734,40 " style="fill:white; stroke-width:1; stroke:black; " description="&lt;b&gt;MCIC6FC_007394&lt;/b&gt;&lt;br&gt;hypothetical protein&lt;br&gt;Location: 534721 - 535791" locus_tag="MCIC6FC_007394" class="clusterblast-orf" id="subclusterblast-1_q18_0_all"  />
<polygon points="748,40 775,40 780,35 775,30 748,30 748,40 " style="fill:white; stroke-width:1; stroke:black; " description="&lt;b&gt;MCIC6FC_007395&lt;/b&gt;&lt;br&gt;hypothetical protein&lt;br&gt;Location: 535825 - 538463" locus_tag="MCIC6FC_007395" class="clusterblast-orf" id="subclusterblast-1_q19_0_all"  />
</g>
</svg>
