<svg xmlns="http://www.w3.org/2000/svg" xmlns:xlink="http://www.w3.org/1999/xlink" version="1.1" x="0" y="0" height="50" width="800" viewBox="0 0 800 50" preserveAspectRatio="none"  >
<g label="Query sequence" class="clusterblast-cluster"  >
<text x="5" y="20" class="clusterblast-acc"  >
Query sequence</text>
<line x1="10" y1="35" x2="778.0" y2="35" style="stroke-width:1; stroke:grey; "  />
<polygon points="0,40 1,40 6,35 1,30 0,30 0,40 " style="fill:white; stroke-width:1; stroke:black; " description="&lt;b&gt;MCIC6FC_022236&lt;/b&gt;&lt;br&gt;hypothetical protein&lt;br&gt;Location: 31694 - 32090" locus_tag="MCIC6FC_022236" class="clusterblast-orf" id="subclusterblast-1_q0_0_all"  />
<polygon points="6,35 10,30 10,40 6,35 " style="fill:white; stroke-width:1; stroke:black; " description="&lt;b&gt;MCIC6FC_022237&lt;/b&gt;&lt;br&gt;hypothetical protein&lt;br&gt;Location: 32123 - 32348" locus_tag="MCIC6FC_022237" class="clusterblast-orf" id="subclusterblast-1_q1_0_all"  />
<polygon points="17,40 104,40 109,35 104,30 17,30 17,40 " style="fill:white; stroke-width:1; stroke:black; " description="&lt;b&gt;MCIC6FC_022238&lt;/b&gt;&lt;br&gt;hypothetical protein&lt;br&gt;Location: 32807 - 38607" locus_tag="MCIC6FC_022238" class="clusterblast-orf" id="subclusterblast-1_q2_0_all"  />
<polygon points="109,35 114,30 140,30 140,40 114,40 109,35 " style="fill:white; stroke-width:1; stroke:black; " description="&lt;b&gt;MCIC6FC_022239&lt;/b&gt;&lt;br&gt;hypothetical protein&lt;br&gt;Location: 38646 - 40566" locus_tag="MCIC6FC_022239" class="clusterblast-orf" id="subclusterblast-1_q3_0_all"  />
<polygon points="146,35 151,30 166,30 166,40 151,40 146,35 " style="fill:white; stroke-width:1; stroke:black; " description="&lt;b&gt;MCIC6FC_022240&lt;/b&gt;&lt;br&gt;hypothetical protein&lt;br&gt;Location: 40945 - 42244" locus_tag="MCIC6FC_022240" class="clusterblast-orf" id="subclusterblast-1_q4_0_all"  />
<polygon points="170,40 196,40 201,35 196,30 170,30 170,40 " style="fill:white; stroke-width:1; stroke:black; " description="&lt;b&gt;MCIC6FC_022241&lt;/b&gt;&lt;br&gt;hypothetical protein&lt;br&gt;Location: 42488 - 44434" locus_tag="MCIC6FC_022241" class="clusterblast-orf" id="subclusterblast-1_q5_0_all"  />
<polygon points="202,40 236,40 241,35 236,30 202,30 202,40 " style="fill:white; stroke-width:1; stroke:black; " description="&lt;b&gt;MCIC6FC_022242&lt;/b&gt;&lt;br&gt;hypothetical protein&lt;br&gt;Location: 44506 - 46980" locus_tag="MCIC6FC_022242" class="clusterblast-orf" id="subclusterblast-1_q6_0_all"  />
<polygon points="247,40 251,35 247,30 247,40 " style="fill:white; stroke-width:1; stroke:black; " description="&lt;b&gt;MCIC6FC_022243&lt;/b&gt;&lt;br&gt;hypothetical protein&lt;br&gt;Location: 47369 - 47636" locus_tag="MCIC6FC_022243" class="clusterblast-orf" id="subclusterblast-1_q7_0_all"  />
<polygon points="255,40 318,40 323,35 318,30 255,30 255,40 " style="fill:white; stroke-width:1; stroke:black; " description="&lt;b&gt;MCIC6FC_022244&lt;/b&gt;&lt;br&gt;hypothetical protein&lt;br&gt;Location: 47865 - 52152" locus_tag="MCIC6FC_022244" class="clusterblast-orf" id="subclusterblast-1_q8_0_all"  />
<polygon points="324,40 397,40 402,35 397,30 324,30 324,40 " style="fill:white; stroke-width:1; stroke:black; " description="&lt;b&gt;MCIC6FC_022245&lt;/b&gt;&lt;br&gt;hypothetical protein&lt;br&gt;Location: 52203 - 57151" locus_tag="MCIC6FC_022245" class="clusterblast-orf" id="subclusterblast-1_q9_0_all"  />
<polygon points="402,40 406,40 411,35 406,30 402,30 402,40 " style="fill:white; stroke-width:1; stroke:black; " description="&lt;b&gt;MCIC6FC_022246&lt;/b&gt;&lt;br&gt;hypothetical protein&lt;br&gt;Location: 57154 - 57728" locus_tag="MCIC6FC_022246" class="clusterblast-orf" id="subclusterblast-1_q10_0_all"  />
<polygon points="411,40 424,40 429,35 424,30 411,30 411,40 " style="fill:white; stroke-width:1; stroke:black; " description="&lt;b&gt;MCIC6FC_022247&lt;/b&gt;&lt;br&gt;hypothetical protein&lt;br&gt;Location: 57748 - 58885" locus_tag="MCIC6FC_022247" class="clusterblast-orf" id="subclusterblast-1_q11_0_all"  />
<polygon points="430,40 462,40 467,35 462,30 430,30 430,40 " style="fill:white; stroke-width:1; stroke:black; " description="&lt;b&gt;MCIC6FC_022248&lt;/b&gt;&lt;br&gt;hypothetical protein&lt;br&gt;Location: 58922 - 61311" locus_tag="MCIC6FC_022248" class="clusterblast-orf" id="subclusterblast-1_q12_0_all"  />
<polygon points="473,35 478,30 493,30 493,40 478,40 473,35 " style="fill:white; stroke-width:1; stroke:black; " description="&lt;b&gt;MCIC6FC_022249&lt;/b&gt;&lt;br&gt;hypothetical protein&lt;br&gt;Location: 61664 - 62953" locus_tag="MCIC6FC_022249" class="clusterblast-orf" id="subclusterblast-1_q13_0_all"  />
<polygon points="496,40 514,40 519,35 514,30 496,30 496,40 " style="fill:white; stroke-width:1; stroke:black; " description="&lt;b&gt;MCIC6FC_022250&lt;/b&gt;&lt;br&gt;hypothetical protein&lt;br&gt;Location: 63108 - 64568" locus_tag="MCIC6FC_022250" class="clusterblast-orf" id="subclusterblast-1_q14_0_all"  />
<polygon points="524,35 529,30 536,30 536,40 529,40 524,35 " style="fill:white; stroke-width:1; stroke:black; " description="&lt;b&gt;MCIC6FC_022251&lt;/b&gt;&lt;br&gt;hypothetical protein&lt;br&gt;Location: 64918 - 65662" locus_tag="MCIC6FC_022251" class="clusterblast-orf" id="subclusterblast-1_q15_0_all"  />
<polygon points="546,40 603,40 608,35 603,30 546,30 546,40 " style="fill:white; stroke-width:1; stroke:black; " description="&lt;b&gt;MCIC6FC_022252&lt;/b&gt;&lt;br&gt;hypothetical protein&lt;br&gt;Location: 66305 - 70227" locus_tag="MCIC6FC_022252" class="clusterblast-orf" id="subclusterblast-1_q16_0_all"  />
<polygon points="614,35 619,30 620,30 620,40 619,40 614,35 " style="fill:white; stroke-width:1; stroke:black; " description="&lt;b&gt;MCIC6FC_022253&lt;/b&gt;&lt;br&gt;hypothetical protein&lt;br&gt;Location: 70588 - 70990" locus_tag="MCIC6FC_022253" class="clusterblast-orf" id="subclusterblast-1_q17_0_all"  />
<polygon points="636,40 665,40 670,35 665,30 636,30 636,40 " style="fill:white; stroke-width:1; stroke:black; " description="&lt;b&gt;MCIC6FC_022254&lt;/b&gt;&lt;br&gt;hypothetical protein&lt;br&gt;Location: 71980 - 74154" locus_tag="MCIC6FC_022254" class="clusterblast-orf" id="subclusterblast-1_q18_0_all"  />
<polygon points="671,35 676,30 688,30 688,40 676,40 671,35 " style="fill:white; stroke-width:1; stroke:black; " description="&lt;b&gt;MCIC6FC_022255&lt;/b&gt;&lt;br&gt;hypothetical protein&lt;br&gt;Location: 74193 - 75265" locus_tag="MCIC6FC_022255" class="clusterblast-orf" id="subclusterblast-1_q19_0_all"  />
<polygon points="694,35 699,30 717,30 717,40 699,40 694,35 " style="fill:white; stroke-width:1; stroke:black; " description="&lt;b&gt;MCIC6FC_022256&lt;/b&gt;&lt;br&gt;hypothetical protein&lt;br&gt;Location: 75641 - 77103" locus_tag="MCIC6FC_022256" class="clusterblast-orf" id="subclusterblast-1_q20_0_all"  />
<polygon points="721,35 726,30 731,30 731,40 726,40 721,35 " style="fill:white; stroke-width:1; stroke:black; " description="&lt;b&gt;MCIC6FC_022257&lt;/b&gt;&lt;br&gt;hypothetical protein&lt;br&gt;Location: 77349 - 78013" locus_tag="MCIC6FC_022257" class="clusterblast-orf" id="subclusterblast-1_q21_0_all"  />
<polygon points="732,35 737,30 768,30 768,40 737,40 732,35 " style="fill:white; stroke-width:1; stroke:black; " description="&lt;b&gt;MCIC6FC_022258&lt;/b&gt;&lt;br&gt;hypothetical protein&lt;br&gt;Location: 78075 - 80367" locus_tag="MCIC6FC_022258" class="clusterblast-orf" id="subclusterblast-1_q22_0_all"  />
<polygon points="771,35 776,30 780,30 780,40 776,40 771,35 " style="fill:white; stroke-width:1; stroke:black; " description="&lt;b&gt;MCIC6FC_022259&lt;/b&gt;&lt;br&gt;hypothetical protein&lt;br&gt;Location: 80507 - 81083" locus_tag="MCIC6FC_022259" class="clusterblast-orf" id="subclusterblast-1_q23_0_all"  />
</g>
</svg>
