<svg xmlns="http://www.w3.org/2000/svg" xmlns:xlink="http://www.w3.org/1999/xlink" version="1.1" x="0" y="0" height="50" width="800" viewBox="0 0 800 50" preserveAspectRatio="none"  >
<g label="Query sequence" class="clusterblast-cluster"  >
<text x="5" y="20" class="clusterblast-acc"  >
Query sequence</text>
<line x1="10" y1="35" x2="778.0" y2="35" style="stroke-width:1; stroke:grey; "  />
<polygon points="0,35 5,30 34,30 34,40 5,40 0,35 " style="fill:white; stroke-width:1; stroke:black; " description="&lt;b&gt;MCIC6FC_005696&lt;/b&gt;&lt;br&gt;hypothetical protein&lt;br&gt;Location: 1757129 - 1757963" locus_tag="MCIC6FC_005696" class="clusterblast-orf" id="subclusterblast-2_q0_0_all"  />
<polygon points="46,40 97,40 102,35 97,30 46,30 46,40 " style="fill:white; stroke-width:1; stroke:black; " description="&lt;b&gt;MCIC6FC_005697&lt;/b&gt;&lt;br&gt;hypothetical protein&lt;br&gt;Location: 1758257 - 1759641" locus_tag="MCIC6FC_005697" class="clusterblast-orf" id="subclusterblast-2_q1_0_all"  />
<polygon points="104,35 109,30 158,30 158,40 109,40 104,35 " style="fill:white; stroke-width:1; stroke:black; " description="&lt;b&gt;MCIC6FC_005698&lt;/b&gt;&lt;br&gt;hypothetical protein&lt;br&gt;Location: 1759686 - 1761017" locus_tag="MCIC6FC_005698" class="clusterblast-orf" id="subclusterblast-2_q2_0_all"  />
<polygon points="161,40 194,40 199,35 194,30 161,30 161,40 " style="fill:white; stroke-width:1; stroke:black; " description="&lt;b&gt;MCIC6FC_005699&lt;/b&gt;&lt;br&gt;hypothetical protein&lt;br&gt;Location: 1761096 - 1762032" locus_tag="MCIC6FC_005699" class="clusterblast-orf" id="subclusterblast-2_q3_0_all"  />
<polygon points="204,40 215,40 220,35 215,30 204,30 204,40 " style="fill:white; stroke-width:1; stroke:black; " description="&lt;b&gt;MCIC6FC_005700&lt;/b&gt;&lt;br&gt;hypothetical protein&lt;br&gt;Location: 1762158 - 1762563" locus_tag="MCIC6FC_005700" class="clusterblast-orf" id="subclusterblast-2_q4_0_all"  />
<polygon points="223,40 254,40 259,35 254,30 223,30 223,40 " style="fill:white; stroke-width:1; stroke:black; " description="&lt;b&gt;MCIC6FC_005701&lt;/b&gt;&lt;br&gt;hypothetical protein&lt;br&gt;Location: 1762625 - 1763526" locus_tag="MCIC6FC_005701" class="clusterblast-orf" id="subclusterblast-2_q5_0_all"  />
<polygon points="284,35 289,30 353,30 353,40 289,40 284,35 " style="fill:white; stroke-width:1; stroke:black; " description="&lt;b&gt;MCIC6FC_005702&lt;/b&gt;&lt;br&gt;hypothetical protein&lt;br&gt;Location: 1764136 - 1765840" locus_tag="MCIC6FC_005702" class="clusterblast-orf" id="subclusterblast-2_q6_0_all"  />
<polygon points="362,40 474,40 479,35 474,30 362,30 362,40 " style="fill:white; stroke-width:1; stroke:black; " description="&lt;b&gt;MCIC6FC_005703&lt;/b&gt;&lt;br&gt;hypothetical protein&lt;br&gt;Location: 1766068 - 1768941" locus_tag="MCIC6FC_005703" class="clusterblast-orf" id="subclusterblast-2_q7_0_all"  />
<polygon points="479,40 586,40 591,35 586,30 479,30 479,40 " style="fill:white; stroke-width:1; stroke:black; " description="&lt;b&gt;MCIC6FC_005704&lt;/b&gt;&lt;br&gt;hypothetical protein&lt;br&gt;Location: 1768958 - 1771718" locus_tag="MCIC6FC_005704" class="clusterblast-orf" id="subclusterblast-2_q8_0_all"  />
<polygon points="592,35 597,30 620,30 620,40 597,40 592,35 " style="fill:white; stroke-width:1; stroke:black; " description="&lt;b&gt;MCIC6FC_005705&lt;/b&gt;&lt;br&gt;hypothetical protein&lt;br&gt;Location: 1771740 - 1772436" locus_tag="MCIC6FC_005705" class="clusterblast-orf" id="subclusterblast-2_q9_0_all"  />
<polygon points="626,40 701,40 706,35 701,30 626,30 626,40 " style="fill:white; stroke-width:1; stroke:black; " description="&lt;b&gt;MCIC6FC_005706&lt;/b&gt;&lt;br&gt;hypothetical protein&lt;br&gt;Location: 1772567 - 1774554" locus_tag="MCIC6FC_005706" class="clusterblast-orf" id="subclusterblast-2_q10_0_all"  />
<polygon points="708,35 713,30 726,30 726,40 713,40 708,35 " style="fill:white; stroke-width:1; stroke:black; " description="&lt;b&gt;MCIC6FC_005707&lt;/b&gt;&lt;br&gt;hypothetical protein&lt;br&gt;Location: 1774590 - 1775046" locus_tag="MCIC6FC_005707" class="clusterblast-orf" id="subclusterblast-2_q11_0_all"  />
<polygon points="730,40 775,40 780,35 775,30 730,30 730,40 " style="fill:white; stroke-width:1; stroke:black; " description="&lt;b&gt;MCIC6FC_005708&lt;/b&gt;&lt;br&gt;hypothetical protein&lt;br&gt;Location: 1775150 - 1776370" locus_tag="MCIC6FC_005708" class="clusterblast-orf" id="subclusterblast-2_q12_0_all"  />
</g>
</svg>
