<svg xmlns="http://www.w3.org/2000/svg" xmlns:xlink="http://www.w3.org/1999/xlink" version="1.1" x="0" y="0" height="50" width="800" viewBox="0 0 800 50" preserveAspectRatio="none"  >
<g label="Query sequence" class="clusterblast-cluster"  >
<text x="5" y="20" class="clusterblast-acc"  >
Query sequence</text>
<line x1="10" y1="35" x2="778.0" y2="35" style="stroke-width:1; stroke:grey; "  />
<polygon points="0,40 14,40 19,35 14,30 0,30 0,40 " style="fill:white; stroke-width:1; stroke:black; " description="&lt;b&gt;MCIC6FC_014910&lt;/b&gt;&lt;br&gt;hypothetical protein&lt;br&gt;Location: 239626 - 241411" locus_tag="MCIC6FC_014910" class="clusterblast-orf" id="subclusterblast-2_q0_0_all"  />
<polygon points="19,40 27,40 32,35 27,30 19,30 19,40 " style="fill:white; stroke-width:1; stroke:black; " description="&lt;b&gt;MCIC6FC_014911&lt;/b&gt;&lt;br&gt;hypothetical protein&lt;br&gt;Location: 241466 - 242660" locus_tag="MCIC6FC_014911" class="clusterblast-orf" id="subclusterblast-2_q1_0_all"  />
<polygon points="32,35 37,30 45,30 45,40 37,40 32,35 " style="fill:white; stroke-width:1; stroke:black; " description="&lt;b&gt;MCIC6FC_014912&lt;/b&gt;&lt;br&gt;hypothetical protein&lt;br&gt;Location: 242676 - 243838" locus_tag="MCIC6FC_014912" class="clusterblast-orf" id="subclusterblast-2_q2_0_all"  />
<polygon points="48,40 60,40 65,35 60,30 48,30 48,40 " style="fill:white; stroke-width:1; stroke:black; " description="&lt;b&gt;MCIC6FC_014913&lt;/b&gt;&lt;br&gt;hypothetical protein&lt;br&gt;Location: 244161 - 245739" locus_tag="MCIC6FC_014913" class="clusterblast-orf" id="subclusterblast-2_q3_0_all"  />
<polygon points="66,40 122,40 127,35 122,30 66,30 66,40 " style="fill:white; stroke-width:1; stroke:black; " description="&lt;b&gt;MCIC6FC_014914&lt;/b&gt;&lt;br&gt;hypothetical protein&lt;br&gt;Location: 245828 - 251581" locus_tag="MCIC6FC_014914" class="clusterblast-orf" id="subclusterblast-2_q4_0_all"  />
<polygon points="129,40 158,40 163,35 158,30 129,30 129,40 " style="fill:white; stroke-width:1; stroke:black; " description="&lt;b&gt;MCIC6FC_014915&lt;/b&gt;&lt;br&gt;hypothetical protein&lt;br&gt;Location: 251711 - 254884" locus_tag="MCIC6FC_014915" class="clusterblast-orf" id="subclusterblast-2_q5_0_all"  />
<polygon points="163,35 168,30 181,30 181,40 168,40 163,35 " style="fill:white; stroke-width:1; stroke:black; " description="&lt;b&gt;MCIC6FC_014916&lt;/b&gt;&lt;br&gt;hypothetical protein&lt;br&gt;Location: 254942 - 256615" locus_tag="MCIC6FC_014916" class="clusterblast-orf" id="subclusterblast-2_q6_0_all"  />
<polygon points="183,40 194,40 199,35 194,30 183,30 183,40 " style="fill:white; stroke-width:1; stroke:black; " description="&lt;b&gt;MCIC6FC_014917&lt;/b&gt;&lt;br&gt;hypothetical protein&lt;br&gt;Location: 256800 - 258257" locus_tag="MCIC6FC_014917" class="clusterblast-orf" id="subclusterblast-2_q7_0_all"  />
<polygon points="199,40 206,40 211,35 206,30 199,30 199,40 " style="fill:white; stroke-width:1; stroke:black; " description="&lt;b&gt;MCIC6FC_014918&lt;/b&gt;&lt;br&gt;hypothetical protein&lt;br&gt;Location: 258293 - 259451" locus_tag="MCIC6FC_014918" class="clusterblast-orf" id="subclusterblast-2_q8_0_all"  />
<polygon points="212,35 217,30 217,30 217,40 217,40 212,35 " style="fill:white; stroke-width:1; stroke:black; " description="&lt;b&gt;MCIC6FC_014919&lt;/b&gt;&lt;br&gt;hypothetical protein&lt;br&gt;Location: 259530 - 259948" locus_tag="MCIC6FC_014919" class="clusterblast-orf" id="subclusterblast-2_q9_0_all"  />
<polygon points="218,40 234,40 239,35 234,30 218,30 218,40 " style="fill:white; stroke-width:1; stroke:black; " description="&lt;b&gt;MCIC6FC_014920&lt;/b&gt;&lt;br&gt;hypothetical protein&lt;br&gt;Location: 260049 - 262083" locus_tag="MCIC6FC_014920" class="clusterblast-orf" id="subclusterblast-2_q10_0_all"  />
<polygon points="240,40 245,40 250,35 245,30 240,30 240,40 " style="fill:white; stroke-width:1; stroke:black; " description="&lt;b&gt;MCIC6FC_014921&lt;/b&gt;&lt;br&gt;hypothetical protein&lt;br&gt;Location: 262126 - 263035" locus_tag="MCIC6FC_014921" class="clusterblast-orf" id="subclusterblast-2_q11_0_all"  />
<polygon points="250,35 254,30 254,40 250,35 " style="fill:white; stroke-width:1; stroke:black; " description="&lt;b&gt;MCIC6FC_014922&lt;/b&gt;&lt;br&gt;hypothetical protein&lt;br&gt;Location: 263073 - 263484" locus_tag="MCIC6FC_014922" class="clusterblast-orf" id="subclusterblast-2_q12_0_all"  />
<polygon points="256,40 260,40 265,35 260,30 256,30 256,40 " style="fill:white; stroke-width:1; stroke:black; " description="&lt;b&gt;MCIC6FC_014923&lt;/b&gt;&lt;br&gt;hypothetical protein&lt;br&gt;Location: 263655 - 264463" locus_tag="MCIC6FC_014923" class="clusterblast-orf" id="subclusterblast-2_q13_0_all"  />
<polygon points="265,35 270,30 273,30 273,40 270,40 265,35 " style="fill:white; stroke-width:1; stroke:black; " description="&lt;b&gt;MCIC6FC_014924&lt;/b&gt;&lt;br&gt;hypothetical protein&lt;br&gt;Location: 264470 - 265247" locus_tag="MCIC6FC_014924" class="clusterblast-orf" id="subclusterblast-2_q14_0_all"  />
<polygon points="274,35 279,30 311,30 311,40 279,40 274,35 " style="fill:white; stroke-width:1; stroke:black; " description="&lt;b&gt;MCIC6FC_014925&lt;/b&gt;&lt;br&gt;hypothetical protein&lt;br&gt;Location: 265292 - 268782" locus_tag="MCIC6FC_014925" class="clusterblast-orf" id="subclusterblast-2_q15_0_all"  />
<polygon points="312,40 320,40 325,35 320,30 312,30 312,40 " style="fill:white; stroke-width:1; stroke:black; " description="&lt;b&gt;MCIC6FC_014926&lt;/b&gt;&lt;br&gt;hypothetical protein&lt;br&gt;Location: 268871 - 270079" locus_tag="MCIC6FC_014926" class="clusterblast-orf" id="subclusterblast-2_q16_0_all"  />
<polygon points="326,40 368,40 373,35 368,30 326,30 326,40 " style="fill:white; stroke-width:1; stroke:black; " description="&lt;b&gt;MCIC6FC_014927&lt;/b&gt;&lt;br&gt;hypothetical protein&lt;br&gt;Location: 270240 - 274554" locus_tag="MCIC6FC_014927" class="clusterblast-orf" id="subclusterblast-2_q17_0_all"  />
<polygon points="373,35 378,30 396,30 396,40 378,40 373,35 " style="fill:white; stroke-width:1; stroke:black; " description="&lt;b&gt;MCIC6FC_014928&lt;/b&gt;&lt;br&gt;hypothetical protein&lt;br&gt;Location: 274605 - 276728" locus_tag="MCIC6FC_014928" class="clusterblast-orf" id="subclusterblast-2_q18_0_all"  />
<polygon points="397,40 399,40 404,35 399,30 397,30 397,40 " style="fill:white; stroke-width:1; stroke:black; " description="&lt;b&gt;MCIC6FC_014929&lt;/b&gt;&lt;br&gt;hypothetical protein&lt;br&gt;Location: 276865 - 277536" locus_tag="MCIC6FC_014929" class="clusterblast-orf" id="subclusterblast-2_q19_0_all"  />
<polygon points="405,35 409,30 409,40 405,35 " style="fill:white; stroke-width:1; stroke:black; " description="&lt;b&gt;MCIC6FC_014930&lt;/b&gt;&lt;br&gt;hypothetical protein&lt;br&gt;Location: 277593 - 277968" locus_tag="MCIC6FC_014930" class="clusterblast-orf" id="subclusterblast-2_q20_0_all"  />
<polygon points="412,35 417,30 433,30 433,40 417,40 412,35 " style="fill:white; stroke-width:1; stroke:black; " description="&lt;b&gt;MCIC6FC_014931&lt;/b&gt;&lt;br&gt;hypothetical protein&lt;br&gt;Location: 278224 - 280190" locus_tag="MCIC6FC_014931" class="clusterblast-orf" id="subclusterblast-2_q21_0_all"  />
<polygon points="437,40 568,40 573,35 568,30 437,30 437,40 " style="fill:white; stroke-width:1; stroke:black; " description="&lt;b&gt;MCIC6FC_014932&lt;/b&gt;&lt;br&gt;hypothetical protein&lt;br&gt;Location: 280562 - 293284" locus_tag="MCIC6FC_014932" class="clusterblast-orf" id="subclusterblast-2_q22_0_all"  />
<polygon points="579,35 584,30 588,30 588,40 584,40 579,35 " style="fill:white; stroke-width:1; stroke:black; " description="&lt;b&gt;MCIC6FC_014934&lt;/b&gt;&lt;br&gt;hypothetical protein&lt;br&gt;Location: 293886 - 294771" locus_tag="MCIC6FC_014934" class="clusterblast-orf" id="subclusterblast-2_q23_0_all"  />
<polygon points="592,35 597,30 599,30 599,40 597,40 592,35 " style="fill:white; stroke-width:1; stroke:black; " description="&lt;b&gt;MCIC6FC_014935&lt;/b&gt;&lt;br&gt;hypothetical protein&lt;br&gt;Location: 295097 - 295790" locus_tag="MCIC6FC_014935" class="clusterblast-orf" id="subclusterblast-2_q24_0_all"  />
<polygon points="600,35 605,30 630,30 630,40 605,40 600,35 " style="fill:white; stroke-width:1; stroke:black; " description="&lt;b&gt;MCIC6FC_014936&lt;/b&gt;&lt;br&gt;hypothetical protein&lt;br&gt;Location: 295825 - 298683" locus_tag="MCIC6FC_014936" class="clusterblast-orf" id="subclusterblast-2_q25_0_all"  />
<polygon points="632,40 634,40 639,35 634,30 632,30 632,40 " style="fill:white; stroke-width:1; stroke:black; " description="&lt;b&gt;MCIC6FC_014937&lt;/b&gt;&lt;br&gt;hypothetical protein&lt;br&gt;Location: 298814 - 299507" locus_tag="MCIC6FC_014937" class="clusterblast-orf" id="subclusterblast-2_q26_0_all"  />
<polygon points="640,35 645,30 672,30 672,40 645,40 640,35 " style="fill:white; stroke-width:1; stroke:black; " description="&lt;b&gt;MCIC6FC_014938&lt;/b&gt;&lt;br&gt;hypothetical protein&lt;br&gt;Location: 299610 - 302608" locus_tag="MCIC6FC_014938" class="clusterblast-orf" id="subclusterblast-2_q27_0_all"  />
<polygon points="673,35 678,30 698,30 698,40 678,40 673,35 " style="fill:white; stroke-width:1; stroke:black; " description="&lt;b&gt;MCIC6FC_014939&lt;/b&gt;&lt;br&gt;hypothetical protein&lt;br&gt;Location: 302667 - 305020" locus_tag="MCIC6FC_014939" class="clusterblast-orf" id="subclusterblast-2_q28_0_all"  />
<polygon points="700,40 717,40 722,35 717,30 700,30 700,40 " style="fill:white; stroke-width:1; stroke:black; " description="&lt;b&gt;MCIC6FC_014940&lt;/b&gt;&lt;br&gt;hypothetical protein&lt;br&gt;Location: 305256 - 307289" locus_tag="MCIC6FC_014940" class="clusterblast-orf" id="subclusterblast-2_q29_0_all"  />
<polygon points="722,35 727,30 731,30 731,40 727,40 722,35 " style="fill:white; stroke-width:1; stroke:black; " description="&lt;b&gt;MCIC6FC_014941&lt;/b&gt;&lt;br&gt;hypothetical protein&lt;br&gt;Location: 307312 - 308134" locus_tag="MCIC6FC_014941" class="clusterblast-orf" id="subclusterblast-2_q30_0_all"  />
<polygon points="731,35 736,30 742,30 742,40 736,40 731,35 " style="fill:white; stroke-width:1; stroke:black; " description="&lt;b&gt;MCIC6FC_014942&lt;/b&gt;&lt;br&gt;hypothetical protein&lt;br&gt;Location: 308170 - 309112" locus_tag="MCIC6FC_014942" class="clusterblast-orf" id="subclusterblast-2_q31_0_all"  />
<polygon points="742,40 746,35 742,30 742,40 " style="fill:white; stroke-width:1; stroke:black; " description="&lt;b&gt;MCIC6FC_014943&lt;/b&gt;&lt;br&gt;hypothetical protein&lt;br&gt;Location: 309165 - 309516" locus_tag="MCIC6FC_014943" class="clusterblast-orf" id="subclusterblast-2_q32_0_all"  />
<polygon points="746,35 751,30 767,30 767,40 751,40 746,35 " style="fill:white; stroke-width:1; stroke:black; " description="&lt;b&gt;MCIC6FC_014944&lt;/b&gt;&lt;br&gt;hypothetical protein&lt;br&gt;Location: 309541 - 311537" locus_tag="MCIC6FC_014944" class="clusterblast-orf" id="subclusterblast-2_q33_0_all"  />
<polygon points="769,40 775,40 780,35 775,30 769,30 769,40 " style="fill:white; stroke-width:1; stroke:black; " description="&lt;b&gt;MCIC6FC_014945&lt;/b&gt;&lt;br&gt;hypothetical protein&lt;br&gt;Location: 311662 - 312676" locus_tag="MCIC6FC_014945" class="clusterblast-orf" id="subclusterblast-2_q34_0_all"  />
</g>
</svg>
