<svg xmlns="http://www.w3.org/2000/svg" xmlns:xlink="http://www.w3.org/1999/xlink" version="1.1" x="0" y="0" height="50" width="800" viewBox="0 0 800 50" preserveAspectRatio="none"  >
<g label="Query sequence" class="clusterblast-cluster"  >
<text x="5" y="20" class="clusterblast-acc"  >
Query sequence</text>
<line x1="10" y1="35" x2="778.0" y2="35" style="stroke-width:1; stroke:grey; "  />
<polygon points="0,35 5,30 117,30 117,40 5,40 0,35 " style="fill:white; stroke-width:1; stroke:black; " description="&lt;b&gt;MCIC6FC_018664&lt;/b&gt;&lt;br&gt;hypothetical protein&lt;br&gt;Location: 22705 - 26530" locus_tag="MCIC6FC_018664" class="clusterblast-orf" id="subclusterblast-1_q0_0_all"  />
<polygon points="124,40 157,40 162,35 157,30 124,30 124,40 " style="fill:white; stroke-width:1; stroke:black; " description="&lt;b&gt;MCIC6FC_018665&lt;/b&gt;&lt;br&gt;hypothetical protein&lt;br&gt;Location: 26767 - 28015" locus_tag="MCIC6FC_018665" class="clusterblast-orf" id="subclusterblast-1_q1_0_all"  />
<polygon points="170,35 175,30 292,30 292,40 175,40 170,35 " style="fill:white; stroke-width:1; stroke:black; " description="&lt;b&gt;MCIC6FC_018667&lt;/b&gt;&lt;br&gt;hypothetical protein&lt;br&gt;Location: 28265 - 32269" locus_tag="MCIC6FC_018667" class="clusterblast-orf" id="subclusterblast-1_q2_0_all"  />
<polygon points="294,40 379,40 384,35 379,30 294,30 294,40 " style="fill:white; stroke-width:1; stroke:black; " description="&lt;b&gt;MCIC6FC_018668&lt;/b&gt;&lt;br&gt;hypothetical protein&lt;br&gt;Location: 32335 - 35275" locus_tag="MCIC6FC_018668" class="clusterblast-orf" id="subclusterblast-1_q3_0_all"  />
<polygon points="392,40 411,40 416,35 411,30 392,30 392,40 " style="fill:white; stroke-width:1; stroke:black; " description="&lt;b&gt;MCIC6FC_018669&lt;/b&gt;&lt;br&gt;hypothetical protein&lt;br&gt;Location: 35531 - 36315" locus_tag="MCIC6FC_018669" class="clusterblast-orf" id="subclusterblast-1_q4_0_all"  />
<polygon points="418,40 575,40 580,35 575,30 418,30 418,40 " style="fill:white; stroke-width:1; stroke:black; " description="&lt;b&gt;MCIC6FC_018670&lt;/b&gt;&lt;br&gt;hypothetical protein&lt;br&gt;Location: 36382 - 41667" locus_tag="MCIC6FC_018670" class="clusterblast-orf" id="subclusterblast-1_q5_0_all"  />
<polygon points="581,40 628,40 633,35 628,30 581,30 581,40 " style="fill:white; stroke-width:1; stroke:black; " description="&lt;b&gt;MCIC6FC_018671&lt;/b&gt;&lt;br&gt;hypothetical protein&lt;br&gt;Location: 41706 - 43412" locus_tag="MCIC6FC_018671" class="clusterblast-orf" id="subclusterblast-1_q6_0_all"  />
<polygon points="637,40 678,40 683,35 678,30 637,30 637,40 " style="fill:white; stroke-width:1; stroke:black; " description="&lt;b&gt;MCIC6FC_018672&lt;/b&gt;&lt;br&gt;hypothetical protein&lt;br&gt;Location: 43518 - 45049" locus_tag="MCIC6FC_018672" class="clusterblast-orf" id="subclusterblast-1_q7_0_all"  />
<polygon points="683,35 688,30 708,30 708,40 688,40 683,35 " style="fill:white; stroke-width:1; stroke:black; " description="&lt;b&gt;MCIC6FC_018673&lt;/b&gt;&lt;br&gt;hypothetical protein&lt;br&gt;Location: 45052 - 45859" locus_tag="MCIC6FC_018673" class="clusterblast-orf" id="subclusterblast-1_q8_0_all"  />
<polygon points="712,40 712,40 717,35 712,30 712,30 712,40 " style="fill:white; stroke-width:1; stroke:black; " description="&lt;b&gt;MCIC6FC_018674&lt;/b&gt;&lt;br&gt;hypothetical protein&lt;br&gt;Location: 45981 - 46134" locus_tag="MCIC6FC_018674" class="clusterblast-orf" id="subclusterblast-1_q9_0_all"  />
<polygon points="720,35 725,30 780,30 780,40 725,40 720,35 " style="fill:white; stroke-width:1; stroke:black; " description="&lt;b&gt;MCIC6FC_018675&lt;/b&gt;&lt;br&gt;hypothetical protein&lt;br&gt;Location: 46233 - 48202" locus_tag="MCIC6FC_018675" class="clusterblast-orf" id="subclusterblast-1_q10_0_all"  />
</g>
</svg>
