<svg xmlns="http://www.w3.org/2000/svg" xmlns:xlink="http://www.w3.org/1999/xlink" version="1.1" x="0" y="0" height="50" width="800" viewBox="0 0 800 50" preserveAspectRatio="none"  >
<g label="Query sequence" class="clusterblast-cluster"  >
<text x="5" y="20" class="clusterblast-acc"  >
Query sequence</text>
<line x1="10" y1="35" x2="778.0" y2="35" style="stroke-width:1; stroke:grey; "  />
<polygon points="0,35 5,30 333,30 333,40 5,40 0,35 " style="fill:white; stroke-width:1; stroke:black; " description="&lt;b&gt;MCIC6FC_022474&lt;/b&gt;&lt;br&gt;hypothetical protein&lt;br&gt;Location: 2882 - 7006" locus_tag="MCIC6FC_022474" class="clusterblast-orf" id="subclusterblast-1_q0_0_all"  />
<polygon points="361,40 513,40 518,35 513,30 361,30 361,40 " style="fill:white; stroke-width:1; stroke:black; " description="&lt;b&gt;MCIC6FC_022475&lt;/b&gt;&lt;br&gt;hypothetical protein&lt;br&gt;Location: 7354 - 9298" locus_tag="MCIC6FC_022475" class="clusterblast-orf" id="subclusterblast-1_q1_0_all"  />
<polygon points="525,40 615,40 620,35 615,30 525,30 525,40 " style="fill:white; stroke-width:1; stroke:black; " description="&lt;b&gt;MCIC6FC_022476&lt;/b&gt;&lt;br&gt;hypothetical protein&lt;br&gt;Location: 9385 - 10570" locus_tag="MCIC6FC_022476" class="clusterblast-orf" id="subclusterblast-1_q2_0_all"  />
<polygon points="631,35 636,30 747,30 747,40 636,40 631,35 " style="fill:white; stroke-width:1; stroke:black; " description="&lt;b&gt;MCIC6FC_022477&lt;/b&gt;&lt;br&gt;hypothetical protein&lt;br&gt;Location: 10703 - 12143" locus_tag="MCIC6FC_022477" class="clusterblast-orf" id="subclusterblast-1_q3_0_all"  />
<polygon points="760,40 775,40 780,35 775,30 760,30 760,40 " style="fill:white; stroke-width:1; stroke:black; " description="&lt;b&gt;MCIC6FC_022478&lt;/b&gt;&lt;br&gt;hypothetical protein&lt;br&gt;Location: 12300 - 12555" locus_tag="MCIC6FC_022478" class="clusterblast-orf" id="subclusterblast-1_q4_0_all"  />
</g>
</svg>
