<svg xmlns="http://www.w3.org/2000/svg" xmlns:xlink="http://www.w3.org/1999/xlink" version="1.1" x="0" y="0" height="50" width="800" viewBox="0 0 800 50" preserveAspectRatio="none"  >
<g label="Query sequence" class="clusterblast-cluster"  >
<text x="5" y="20" class="clusterblast-acc"  >
Query sequence</text>
<line x1="10" y1="35" x2="778.0" y2="35" style="stroke-width:1; stroke:grey; "  />
<polygon points="0,35 5,30 23,30 23,40 5,40 0,35 " style="fill:white; stroke-width:1; stroke:black; " description="&lt;b&gt;MCIC6FC_007469&lt;/b&gt;&lt;br&gt;hypothetical protein&lt;br&gt;Location: 672575 - 674644" locus_tag="MCIC6FC_007469" class="clusterblast-orf" id="subclusterblast-2_q0_0_all"  />
<polygon points="24,40 30,40 35,35 30,30 24,30 24,40 " style="fill:white; stroke-width:1; stroke:black; " description="&lt;b&gt;MCIC6FC_007470&lt;/b&gt;&lt;br&gt;hypothetical protein&lt;br&gt;Location: 674727 - 675636" locus_tag="MCIC6FC_007470" class="clusterblast-orf" id="subclusterblast-2_q1_0_all"  />
<polygon points="35,35 40,30 61,30 61,40 40,40 35,35 " style="fill:white; stroke-width:1; stroke:black; " description="&lt;b&gt;MCIC6FC_007471&lt;/b&gt;&lt;br&gt;hypothetical protein&lt;br&gt;Location: 675666 - 677901" locus_tag="MCIC6FC_007471" class="clusterblast-orf" id="subclusterblast-2_q2_0_all"  />
<polygon points="63,40 84,40 89,35 84,30 63,30 63,40 " style="fill:white; stroke-width:1; stroke:black; " description="&lt;b&gt;MCIC6FC_007472&lt;/b&gt;&lt;br&gt;hypothetical protein&lt;br&gt;Location: 678045 - 680361" locus_tag="MCIC6FC_007472" class="clusterblast-orf" id="subclusterblast-2_q3_0_all"  />
<polygon points="92,35 97,30 123,30 123,40 97,40 92,35 " style="fill:white; stroke-width:1; stroke:black; " description="&lt;b&gt;MCIC6FC_007473&lt;/b&gt;&lt;br&gt;hypothetical protein&lt;br&gt;Location: 680593 - 683317" locus_tag="MCIC6FC_007473" class="clusterblast-orf" id="subclusterblast-2_q4_0_all"  />
<polygon points="125,40 137,40 142,35 137,30 125,30 125,40 " style="fill:white; stroke-width:1; stroke:black; " description="&lt;b&gt;MCIC6FC_007474&lt;/b&gt;&lt;br&gt;hypothetical protein&lt;br&gt;Location: 683450 - 684953" locus_tag="MCIC6FC_007474" class="clusterblast-orf" id="subclusterblast-2_q5_0_all"  />
<polygon points="142,35 147,30 151,30 151,40 147,40 142,35 " style="fill:white; stroke-width:1; stroke:black; " description="&lt;b&gt;MCIC6FC_007475&lt;/b&gt;&lt;br&gt;hypothetical protein&lt;br&gt;Location: 684963 - 685723" locus_tag="MCIC6FC_007475" class="clusterblast-orf" id="subclusterblast-2_q6_0_all"  />
<polygon points="152,40 157,40 162,35 157,30 152,30 152,40 " style="fill:white; stroke-width:1; stroke:black; " description="&lt;b&gt;MCIC6FC_007476&lt;/b&gt;&lt;br&gt;hypothetical protein&lt;br&gt;Location: 685781 - 686674" locus_tag="MCIC6FC_007476" class="clusterblast-orf" id="subclusterblast-2_q7_0_all"  />
<polygon points="162,35 167,30 172,30 172,40 167,40 162,35 " style="fill:white; stroke-width:1; stroke:black; " description="&lt;b&gt;MCIC6FC_007477&lt;/b&gt;&lt;br&gt;hypothetical protein&lt;br&gt;Location: 686682 - 687549" locus_tag="MCIC6FC_007477" class="clusterblast-orf" id="subclusterblast-2_q8_0_all"  />
<polygon points="173,40 181,40 186,35 181,30 173,30 173,40 " style="fill:white; stroke-width:1; stroke:black; " description="&lt;b&gt;MCIC6FC_007478&lt;/b&gt;&lt;br&gt;hypothetical protein&lt;br&gt;Location: 687621 - 688727" locus_tag="MCIC6FC_007478" class="clusterblast-orf" id="subclusterblast-2_q9_0_all"  />
<polygon points="186,35 191,30 192,30 192,40 191,40 186,35 " style="fill:white; stroke-width:1; stroke:black; " description="&lt;b&gt;MCIC6FC_007479&lt;/b&gt;&lt;br&gt;hypothetical protein&lt;br&gt;Location: 688781 - 689242" locus_tag="MCIC6FC_007479" class="clusterblast-orf" id="subclusterblast-2_q10_0_all"  />
<polygon points="197,35 202,30 212,30 212,40 202,40 197,35 " style="fill:white; stroke-width:1; stroke:black; " description="&lt;b&gt;MCIC6FC_007480&lt;/b&gt;&lt;br&gt;hypothetical protein&lt;br&gt;Location: 689670 - 690984" locus_tag="MCIC6FC_007480" class="clusterblast-orf" id="subclusterblast-2_q11_0_all"  />
<polygon points="215,35 220,30 225,30 225,40 220,40 215,35 " style="fill:white; stroke-width:1; stroke:black; " description="&lt;b&gt;MCIC6FC_007481&lt;/b&gt;&lt;br&gt;hypothetical protein&lt;br&gt;Location: 691289 - 692105" locus_tag="MCIC6FC_007481" class="clusterblast-orf" id="subclusterblast-2_q12_0_all"  />
<polygon points="225,35 230,30 232,30 232,40 230,40 225,35 " style="fill:white; stroke-width:1; stroke:black; " description="&lt;b&gt;MCIC6FC_007482&lt;/b&gt;&lt;br&gt;hypothetical protein&lt;br&gt;Location: 692133 - 692766" locus_tag="MCIC6FC_007482" class="clusterblast-orf" id="subclusterblast-2_q13_0_all"  />
<polygon points="234,40 260,40 265,35 260,30 234,30 234,40 " style="fill:white; stroke-width:1; stroke:black; " description="&lt;b&gt;MCIC6FC_007483&lt;/b&gt;&lt;br&gt;hypothetical protein&lt;br&gt;Location: 692877 - 695575" locus_tag="MCIC6FC_007483" class="clusterblast-orf" id="subclusterblast-2_q14_0_all"  />
<polygon points="265,35 270,30 272,30 272,40 270,40 265,35 " style="fill:white; stroke-width:1; stroke:black; " description="&lt;b&gt;MCIC6FC_007484&lt;/b&gt;&lt;br&gt;hypothetical protein&lt;br&gt;Location: 695586 - 696207" locus_tag="MCIC6FC_007484" class="clusterblast-orf" id="subclusterblast-2_q15_0_all"  />
<polygon points="275,40 340,40 345,35 340,30 275,30 275,40 " style="fill:white; stroke-width:1; stroke:black; " description="&lt;b&gt;MCIC6FC_007485&lt;/b&gt;&lt;br&gt;hypothetical protein&lt;br&gt;Location: 696508 - 702544" locus_tag="MCIC6FC_007485" class="clusterblast-orf" id="subclusterblast-2_q16_0_all"  />
<polygon points="346,35 351,30 376,30 376,40 351,40 346,35 " style="fill:white; stroke-width:1; stroke:black; " description="&lt;b&gt;MCIC6FC_007486&lt;/b&gt;&lt;br&gt;hypothetical protein&lt;br&gt;Location: 702671 - 705211" locus_tag="MCIC6FC_007486" class="clusterblast-orf" id="subclusterblast-2_q17_0_all"  />
<polygon points="377,35 382,30 387,30 387,40 382,40 377,35 " style="fill:white; stroke-width:1; stroke:black; " description="&lt;b&gt;MCIC6FC_007487&lt;/b&gt;&lt;br&gt;hypothetical protein&lt;br&gt;Location: 705352 - 706216" locus_tag="MCIC6FC_007487" class="clusterblast-orf" id="subclusterblast-2_q18_0_all"  />
<polygon points="391,35 396,30 416,30 416,40 396,40 391,35 " style="fill:white; stroke-width:1; stroke:black; " description="&lt;b&gt;MCIC6FC_007488&lt;/b&gt;&lt;br&gt;hypothetical protein&lt;br&gt;Location: 706499 - 708736" locus_tag="MCIC6FC_007488" class="clusterblast-orf" id="subclusterblast-2_q19_0_all"  />
<polygon points="418,35 423,30 457,30 457,40 423,40 418,35 " style="fill:white; stroke-width:1; stroke:black; " description="&lt;b&gt;MCIC6FC_007489&lt;/b&gt;&lt;br&gt;hypothetical protein&lt;br&gt;Location: 708846 - 712262" locus_tag="MCIC6FC_007489" class="clusterblast-orf" id="subclusterblast-2_q20_0_all"  />
<polygon points="458,40 462,40 467,35 462,30 458,30 458,40 " style="fill:white; stroke-width:1; stroke:black; " description="&lt;b&gt;MCIC6FC_007490&lt;/b&gt;&lt;br&gt;hypothetical protein&lt;br&gt;Location: 712372 - 713153" locus_tag="MCIC6FC_007490" class="clusterblast-orf" id="subclusterblast-2_q21_0_all"  />
<polygon points="469,40 512,40 517,35 512,30 469,30 469,40 " style="fill:white; stroke-width:1; stroke:black; " description="&lt;b&gt;MCIC6FC_007491&lt;/b&gt;&lt;br&gt;hypothetical protein&lt;br&gt;Location: 713274 - 717451" locus_tag="MCIC6FC_007491" class="clusterblast-orf" id="subclusterblast-2_q22_0_all"  />
<polygon points="517,35 522,30 534,30 534,40 522,40 517,35 " style="fill:white; stroke-width:1; stroke:black; " description="&lt;b&gt;MCIC6FC_007492&lt;/b&gt;&lt;br&gt;hypothetical protein&lt;br&gt;Location: 717453 - 718988" locus_tag="MCIC6FC_007492" class="clusterblast-orf" id="subclusterblast-2_q23_0_all"  />
<polygon points="536,35 541,30 566,30 566,40 541,40 536,35 " style="fill:white; stroke-width:1; stroke:black; " description="&lt;b&gt;MCIC6FC_007493&lt;/b&gt;&lt;br&gt;hypothetical protein&lt;br&gt;Location: 719128 - 721732" locus_tag="MCIC6FC_007493" class="clusterblast-orf" id="subclusterblast-2_q24_0_all"  />
<polygon points="568,35 573,30 592,30 592,40 573,40 568,35 " style="fill:white; stroke-width:1; stroke:black; " description="&lt;b&gt;MCIC6FC_007494&lt;/b&gt;&lt;br&gt;hypothetical protein&lt;br&gt;Location: 721903 - 723972" locus_tag="MCIC6FC_007494" class="clusterblast-orf" id="subclusterblast-2_q25_0_all"  />
<polygon points="592,35 597,30 751,30 751,40 597,40 592,35 " style="fill:white; stroke-width:1; stroke:black; " description="&lt;b&gt;MCIC6FC_007495&lt;/b&gt;&lt;br&gt;hypothetical protein&lt;br&gt;Location: 724015 - 737775" locus_tag="MCIC6FC_007495" class="clusterblast-orf" id="subclusterblast-2_q26_0_all"  />
<polygon points="757,35 762,30 768,30 768,40 762,40 757,35 " style="fill:white; stroke-width:1; stroke:black; " description="&lt;b&gt;MCIC6FC_007496&lt;/b&gt;&lt;br&gt;hypothetical protein&lt;br&gt;Location: 738268 - 739222" locus_tag="MCIC6FC_007496" class="clusterblast-orf" id="subclusterblast-2_q27_0_all"  />
<polygon points="768,35 773,30 780,30 780,40 773,40 768,35 " style="fill:white; stroke-width:1; stroke:black; " description="&lt;b&gt;MCIC6FC_007497&lt;/b&gt;&lt;br&gt;hypothetical protein&lt;br&gt;Location: 739248 - 740262" locus_tag="MCIC6FC_007497" class="clusterblast-orf" id="subclusterblast-2_q28_0_all"  />
</g>
</svg>
