<svg xmlns="http://www.w3.org/2000/svg" xmlns:xlink="http://www.w3.org/1999/xlink" version="1.1" x="0" y="0" height="50" width="800" viewBox="0 0 800 50" preserveAspectRatio="none"  >
<g label="Query sequence" class="clusterblast-cluster"  >
<text x="5" y="20" class="clusterblast-acc"  >
Query sequence</text>
<line x1="10" y1="35" x2="778.0" y2="35" style="stroke-width:1; stroke:grey; "  />
<polygon points="0,40 195,40 200,35 195,30 0,30 0,40 " style="fill:white; stroke-width:1; stroke:black; " description="&lt;b&gt;MCIC6FC_016886&lt;/b&gt;&lt;br&gt;hypothetical protein&lt;br&gt;Location: 31 - 6733" locus_tag="MCIC6FC_016886" class="clusterblast-orf" id="subclusterblast-1_q0_0_all"  />
<polygon points="213,35 218,30 247,30 247,40 218,40 213,35 " style="fill:white; stroke-width:1; stroke:black; " description="&lt;b&gt;MCIC6FC_016887&lt;/b&gt;&lt;br&gt;hypothetical protein&lt;br&gt;Location: 7172 - 8310" locus_tag="MCIC6FC_016887" class="clusterblast-orf" id="subclusterblast-1_q1_0_all"  />
<polygon points="252,35 257,30 274,30 274,40 257,40 252,35 " style="fill:white; stroke-width:1; stroke:black; " description="&lt;b&gt;MCIC6FC_016888&lt;/b&gt;&lt;br&gt;hypothetical protein&lt;br&gt;Location: 8475 - 9192" locus_tag="MCIC6FC_016888" class="clusterblast-orf" id="subclusterblast-1_q2_0_all"  />
<polygon points="294,40 510,40 515,35 510,30 294,30 294,40 " style="fill:white; stroke-width:1; stroke:black; " description="&lt;b&gt;MCIC6FC_016889&lt;/b&gt;&lt;br&gt;hypothetical protein&lt;br&gt;Location: 9882 - 17276" locus_tag="MCIC6FC_016889" class="clusterblast-orf" id="subclusterblast-1_q3_0_all"  />
<polygon points="518,40 529,40 534,35 529,30 518,30 518,40 " style="fill:white; stroke-width:1; stroke:black; " description="&lt;b&gt;MCIC6FC_016890&lt;/b&gt;&lt;br&gt;hypothetical protein&lt;br&gt;Location: 17354 - 17893" locus_tag="MCIC6FC_016890" class="clusterblast-orf" id="subclusterblast-1_q4_0_all"  />
<polygon points="535,35 540,30 597,30 597,40 540,40 535,35 " style="fill:white; stroke-width:1; stroke:black; " description="&lt;b&gt;MCIC6FC_016891&lt;/b&gt;&lt;br&gt;hypothetical protein&lt;br&gt;Location: 17927 - 19999" locus_tag="MCIC6FC_016891" class="clusterblast-orf" id="subclusterblast-1_q5_0_all"  />
<polygon points="605,40 626,40 631,35 626,30 605,30 605,40 " style="fill:white; stroke-width:1; stroke:black; " description="&lt;b&gt;MCIC6FC_016892&lt;/b&gt;&lt;br&gt;hypothetical protein&lt;br&gt;Location: 20291 - 21151" locus_tag="MCIC6FC_016892" class="clusterblast-orf" id="subclusterblast-1_q6_0_all"  />
<polygon points="648,40 775,40 780,35 775,30 648,30 648,40 " style="fill:white; stroke-width:1; stroke:black; " description="&lt;b&gt;MCIC6FC_016893&lt;/b&gt;&lt;br&gt;hypothetical protein&lt;br&gt;Location: 21717 - 26130" locus_tag="MCIC6FC_016893" class="clusterblast-orf" id="subclusterblast-1_q7_0_all"  />
</g>
</svg>
