<svg xmlns="http://www.w3.org/2000/svg" xmlns:xlink="http://www.w3.org/1999/xlink" version="1.1" x="0" y="0" height="50" width="800" viewBox="0 0 800 50" preserveAspectRatio="none"  >
<g label="Query sequence" class="clusterblast-cluster"  >
<text x="5" y="20" class="clusterblast-acc"  >
Query sequence</text>
<line x1="10" y1="35" x2="778.0" y2="35" style="stroke-width:1; stroke:grey; "  />
<polygon points="0,40 3,40 8,35 3,30 0,30 0,40 " style="fill:white; stroke-width:1; stroke:black; " description="&lt;b&gt;MCIC6FC_021937&lt;/b&gt;&lt;br&gt;hypothetical protein&lt;br&gt;Location: 55403 - 55824" locus_tag="MCIC6FC_021937" class="clusterblast-orf" id="subclusterblast-1_q0_0_all"  />
<polygon points="9,40 83,40 88,35 83,30 9,30 9,40 " style="fill:white; stroke-width:1; stroke:black; " description="&lt;b&gt;MCIC6FC_021938&lt;/b&gt;&lt;br&gt;hypothetical protein&lt;br&gt;Location: 55847 - 59617" locus_tag="MCIC6FC_021938" class="clusterblast-orf" id="subclusterblast-1_q1_0_all"  />
<polygon points="89,35 94,30 147,30 147,40 94,40 89,35 " style="fill:white; stroke-width:1; stroke:black; " description="&lt;b&gt;MCIC6FC_021939&lt;/b&gt;&lt;br&gt;hypothetical protein&lt;br&gt;Location: 59691 - 62473" locus_tag="MCIC6FC_021939" class="clusterblast-orf" id="subclusterblast-1_q2_0_all"  />
<polygon points="153,35 158,30 194,30 194,40 158,40 153,35 " style="fill:white; stroke-width:1; stroke:black; " description="&lt;b&gt;MCIC6FC_021940&lt;/b&gt;&lt;br&gt;hypothetical protein&lt;br&gt;Location: 62725 - 64695" locus_tag="MCIC6FC_021940" class="clusterblast-orf" id="subclusterblast-1_q3_0_all"  />
<polygon points="205,40 215,40 220,35 215,30 205,30 205,40 " style="fill:white; stroke-width:1; stroke:black; " description="&lt;b&gt;MCIC6FC_021941&lt;/b&gt;&lt;br&gt;hypothetical protein&lt;br&gt;Location: 65215 - 65932" locus_tag="MCIC6FC_021941" class="clusterblast-orf" id="subclusterblast-1_q4_0_all"  />
<polygon points="222,40 250,40 255,35 250,30 222,30 222,40 " style="fill:white; stroke-width:1; stroke:black; " description="&lt;b&gt;MCIC6FC_021942&lt;/b&gt;&lt;br&gt;hypothetical protein&lt;br&gt;Location: 66050 - 67624" locus_tag="MCIC6FC_021942" class="clusterblast-orf" id="subclusterblast-1_q5_0_all"  />
<polygon points="258,35 263,30 305,30 305,40 263,40 258,35 " style="fill:white; stroke-width:1; stroke:black; " description="&lt;b&gt;MCIC6FC_021943&lt;/b&gt;&lt;br&gt;hypothetical protein&lt;br&gt;Location: 67770 - 70040" locus_tag="MCIC6FC_021943" class="clusterblast-orf" id="subclusterblast-1_q6_0_all"  />
<polygon points="361,35 366,30 388,30 388,40 366,40 361,35 " style="fill:white; stroke-width:1; stroke:black; " description="&lt;b&gt;MCIC6FC_021944&lt;/b&gt;&lt;br&gt;hypothetical protein&lt;br&gt;Location: 72711 - 73984" locus_tag="MCIC6FC_021944" class="clusterblast-orf" id="subclusterblast-1_q7_0_all"  />
<polygon points="393,35 398,30 409,30 409,40 398,40 393,35 " style="fill:white; stroke-width:1; stroke:black; " description="&lt;b&gt;MCIC6FC_021945&lt;/b&gt;&lt;br&gt;hypothetical protein&lt;br&gt;Location: 74227 - 75000" locus_tag="MCIC6FC_021945" class="clusterblast-orf" id="subclusterblast-1_q8_0_all"  />
<polygon points="410,35 415,30 453,30 453,40 415,40 410,35 " style="fill:white; stroke-width:1; stroke:black; " description="&lt;b&gt;MCIC6FC_021946&lt;/b&gt;&lt;br&gt;hypothetical protein&lt;br&gt;Location: 75073 - 77123" locus_tag="MCIC6FC_021946" class="clusterblast-orf" id="subclusterblast-1_q9_0_all"  />
<polygon points="454,35 459,30 593,30 593,40 459,40 454,35 " style="fill:white; stroke-width:1; stroke:black; " description="&lt;b&gt;MCIC6FC_021947&lt;/b&gt;&lt;br&gt;hypothetical protein&lt;br&gt;Location: 77158 - 83829" locus_tag="MCIC6FC_021947" class="clusterblast-orf" id="subclusterblast-1_q10_0_all"  />
<polygon points="608,40 621,40 626,35 621,30 608,30 608,40 " style="fill:white; stroke-width:1; stroke:black; " description="&lt;b&gt;MCIC6FC_021948&lt;/b&gt;&lt;br&gt;hypothetical protein&lt;br&gt;Location: 84520 - 85380" locus_tag="MCIC6FC_021948" class="clusterblast-orf" id="subclusterblast-1_q11_0_all"  />
<polygon points="627,35 632,30 659,30 659,40 632,40 627,35 " style="fill:white; stroke-width:1; stroke:black; " description="&lt;b&gt;MCIC6FC_021949&lt;/b&gt;&lt;br&gt;hypothetical protein&lt;br&gt;Location: 85440 - 86954" locus_tag="MCIC6FC_021949" class="clusterblast-orf" id="subclusterblast-1_q12_0_all"  />
<polygon points="659,40 662,40 667,35 662,30 659,30 659,40 " style="fill:white; stroke-width:1; stroke:black; " description="&lt;b&gt;MCIC6FC_021950&lt;/b&gt;&lt;br&gt;hypothetical protein&lt;br&gt;Location: 86955 - 87358" locus_tag="MCIC6FC_021950" class="clusterblast-orf" id="subclusterblast-1_q13_0_all"  />
<polygon points="673,35 678,30 692,30 692,40 678,40 673,35 " style="fill:white; stroke-width:1; stroke:black; " description="&lt;b&gt;MCIC6FC_021951&lt;/b&gt;&lt;br&gt;hypothetical protein&lt;br&gt;Location: 87647 - 88546" locus_tag="MCIC6FC_021951" class="clusterblast-orf" id="subclusterblast-1_q14_0_all"  />
<polygon points="693,35 698,30 780,30 780,40 698,40 693,35 " style="fill:white; stroke-width:1; stroke:black; " description="&lt;b&gt;MCIC6FC_021952&lt;/b&gt;&lt;br&gt;hypothetical protein&lt;br&gt;Location: 88626 - 92757" locus_tag="MCIC6FC_021952" class="clusterblast-orf" id="subclusterblast-1_q15_0_all"  />
</g>
</svg>
