<svg xmlns="http://www.w3.org/2000/svg" xmlns:xlink="http://www.w3.org/1999/xlink" version="1.1" x="0" y="0" height="50" width="800" viewBox="0 0 800 50" preserveAspectRatio="none"  >
<g label="Query sequence" class="clusterblast-cluster"  >
<text x="5" y="20" class="clusterblast-acc"  >
Query sequence</text>
<line x1="10" y1="35" x2="778.0" y2="35" style="stroke-width:1; stroke:grey; "  />
<polygon points="0,35 5,30 10,30 10,40 5,40 0,35 " style="fill:white; stroke-width:1; stroke:black; " description="&lt;b&gt;MCIC6FC_004335&lt;/b&gt;&lt;br&gt;hypothetical protein&lt;br&gt;Location: 75504 - 75789" locus_tag="MCIC6FC_004335" class="clusterblast-orf" id="subclusterblast-1_q0_0_all"  />
<polygon points="13,35 18,30 74,30 74,40 18,40 13,35 " style="fill:white; stroke-width:1; stroke:black; " description="&lt;b&gt;MCIC6FC_004336&lt;/b&gt;&lt;br&gt;hypothetical protein&lt;br&gt;Location: 75871 - 77545" locus_tag="MCIC6FC_004336" class="clusterblast-orf" id="subclusterblast-1_q1_0_all"  />
<polygon points="78,35 83,30 103,30 103,40 83,40 78,35 " style="fill:white; stroke-width:1; stroke:black; " description="&lt;b&gt;MCIC6FC_004337&lt;/b&gt;&lt;br&gt;hypothetical protein&lt;br&gt;Location: 77653 - 78341" locus_tag="MCIC6FC_004337" class="clusterblast-orf" id="subclusterblast-1_q2_0_all"  />
<polygon points="114,35 119,30 158,30 158,40 119,40 114,35 " style="fill:white; stroke-width:1; stroke:black; " description="&lt;b&gt;MCIC6FC_004338&lt;/b&gt;&lt;br&gt;hypothetical protein&lt;br&gt;Location: 78631 - 79827" locus_tag="MCIC6FC_004338" class="clusterblast-orf" id="subclusterblast-1_q3_0_all"  />
<polygon points="160,35 165,30 199,30 199,40 165,40 160,35 " style="fill:white; stroke-width:1; stroke:black; " description="&lt;b&gt;MCIC6FC_004339&lt;/b&gt;&lt;br&gt;hypothetical protein&lt;br&gt;Location: 79909 - 80961" locus_tag="MCIC6FC_004339" class="clusterblast-orf" id="subclusterblast-1_q4_0_all"  />
<polygon points="209,40 402,40 407,35 402,30 209,30 209,40 " style="fill:white; stroke-width:1; stroke:black; " description="&lt;b&gt;MCIC6FC_004340&lt;/b&gt;&lt;br&gt;hypothetical protein&lt;br&gt;Location: 81238 - 86681" locus_tag="MCIC6FC_004340" class="clusterblast-orf" id="subclusterblast-1_q5_0_all"  />
<polygon points="413,40 435,40 440,35 435,30 413,30 413,40 " style="fill:white; stroke-width:1; stroke:black; " description="&lt;b&gt;MCIC6FC_004341&lt;/b&gt;&lt;br&gt;hypothetical protein&lt;br&gt;Location: 86843 - 87584" locus_tag="MCIC6FC_004341" class="clusterblast-orf" id="subclusterblast-1_q6_0_all"  />
<polygon points="442,35 447,30 482,30 482,40 447,40 442,35 " style="fill:white; stroke-width:1; stroke:black; " description="&lt;b&gt;MCIC6FC_004342&lt;/b&gt;&lt;br&gt;hypothetical protein&lt;br&gt;Location: 87637 - 88737" locus_tag="MCIC6FC_004342" class="clusterblast-orf" id="subclusterblast-1_q7_0_all"  />
<polygon points="496,35 501,30 780,30 780,40 501,40 496,35 " style="fill:white; stroke-width:1; stroke:black; " description="&lt;b&gt;MCIC6FC_004343&lt;/b&gt;&lt;br&gt;hypothetical protein&lt;br&gt;Location: 89114 - 96894" locus_tag="MCIC6FC_004343" class="clusterblast-orf" id="subclusterblast-1_q8_0_all"  />
</g>
</svg>
