<svg xmlns="http://www.w3.org/2000/svg" xmlns:xlink="http://www.w3.org/1999/xlink" version="1.1" x="0" y="0" height="50" width="800" viewBox="0 0 800 50" preserveAspectRatio="none"  >
<g label="Query sequence" class="clusterblast-cluster"  >
<text x="5" y="20" class="clusterblast-acc"  >
Query sequence</text>
<line x1="10" y1="35" x2="778.0" y2="35" style="stroke-width:1; stroke:grey; "  />
<polygon points="0,40 50,40 55,35 50,30 0,30 0,40 " style="fill:white; stroke-width:1; stroke:black; " description="&lt;b&gt;MCIC6FC_005835&lt;/b&gt;&lt;br&gt;hypothetical protein&lt;br&gt;Location: 2047281 - 2050906" locus_tag="MCIC6FC_005835" class="clusterblast-orf" id="subclusterblast-4_q0_0_all"  />
<polygon points="55,40 76,40 81,35 76,30 55,30 55,40 " style="fill:white; stroke-width:1; stroke:black; " description="&lt;b&gt;MCIC6FC_005836&lt;/b&gt;&lt;br&gt;hypothetical protein&lt;br&gt;Location: 2050941 - 2052611" locus_tag="MCIC6FC_005836" class="clusterblast-orf" id="subclusterblast-4_q1_0_all"  />
<polygon points="81,40 104,40 109,35 104,30 81,30 81,40 " style="fill:white; stroke-width:1; stroke:black; " description="&lt;b&gt;MCIC6FC_005837&lt;/b&gt;&lt;br&gt;hypothetical protein&lt;br&gt;Location: 2052634 - 2054500" locus_tag="MCIC6FC_005837" class="clusterblast-orf" id="subclusterblast-4_q2_0_all"  />
<polygon points="111,40 119,40 124,35 119,30 111,30 111,40 " style="fill:white; stroke-width:1; stroke:black; " description="&lt;b&gt;MCIC6FC_005838&lt;/b&gt;&lt;br&gt;hypothetical protein&lt;br&gt;Location: 2054640 - 2055468" locus_tag="MCIC6FC_005838" class="clusterblast-orf" id="subclusterblast-4_q3_0_all"  />
<polygon points="125,35 130,30 151,30 151,40 130,40 125,35 " style="fill:white; stroke-width:1; stroke:black; " description="&lt;b&gt;MCIC6FC_005839&lt;/b&gt;&lt;br&gt;hypothetical protein&lt;br&gt;Location: 2055536 - 2057256" locus_tag="MCIC6FC_005839" class="clusterblast-orf" id="subclusterblast-4_q4_0_all"  />
<polygon points="155,35 160,30 174,30 174,40 160,40 155,35 " style="fill:white; stroke-width:1; stroke:black; " description="&lt;b&gt;MCIC6FC_005840&lt;/b&gt;&lt;br&gt;hypothetical protein&lt;br&gt;Location: 2057492 - 2058741" locus_tag="MCIC6FC_005840" class="clusterblast-orf" id="subclusterblast-4_q5_0_all"  />
<polygon points="175,35 180,30 185,30 185,40 180,40 175,35 " style="fill:white; stroke-width:1; stroke:black; " description="&lt;b&gt;MCIC6FC_005841&lt;/b&gt;&lt;br&gt;hypothetical protein&lt;br&gt;Location: 2058819 - 2059497" locus_tag="MCIC6FC_005841" class="clusterblast-orf" id="subclusterblast-4_q6_0_all"  />
<polygon points="188,40 217,40 222,35 217,30 188,30 188,40 " style="fill:white; stroke-width:1; stroke:black; " description="&lt;b&gt;MCIC6FC_005842&lt;/b&gt;&lt;br&gt;hypothetical protein&lt;br&gt;Location: 2059651 - 2061882" locus_tag="MCIC6FC_005842" class="clusterblast-orf" id="subclusterblast-4_q7_0_all"  />
<polygon points="222,40 234,40 239,35 234,30 222,30 222,40 " style="fill:white; stroke-width:1; stroke:black; " description="&lt;b&gt;MCIC6FC_005843&lt;/b&gt;&lt;br&gt;hypothetical protein&lt;br&gt;Location: 2061923 - 2063008" locus_tag="MCIC6FC_005843" class="clusterblast-orf" id="subclusterblast-4_q8_0_all"  />
<polygon points="239,35 244,30 254,30 254,40 244,40 239,35 " style="fill:white; stroke-width:1; stroke:black; " description="&lt;b&gt;MCIC6FC_005844&lt;/b&gt;&lt;br&gt;hypothetical protein&lt;br&gt;Location: 2063011 - 2064018" locus_tag="MCIC6FC_005844" class="clusterblast-orf" id="subclusterblast-4_q9_0_all"  />
<polygon points="256,35 261,30 264,30 264,40 261,40 256,35 " style="fill:white; stroke-width:1; stroke:black; " description="&lt;b&gt;MCIC6FC_005845&lt;/b&gt;&lt;br&gt;hypothetical protein&lt;br&gt;Location: 2064129 - 2064652" locus_tag="MCIC6FC_005845" class="clusterblast-orf" id="subclusterblast-4_q10_0_all"  />
<polygon points="267,35 272,30 300,30 300,40 272,40 267,35 " style="fill:white; stroke-width:1; stroke:black; " description="&lt;b&gt;MCIC6FC_005846&lt;/b&gt;&lt;br&gt;hypothetical protein&lt;br&gt;Location: 2064850 - 2067013" locus_tag="MCIC6FC_005846" class="clusterblast-orf" id="subclusterblast-4_q11_0_all"  />
<polygon points="301,35 306,30 499,30 499,40 306,40 301,35 " style="fill:white; stroke-width:1; stroke:black; " description="&lt;b&gt;MCIC6FC_005847&lt;/b&gt;&lt;br&gt;hypothetical protein&lt;br&gt;Location: 2067133 - 2080148" locus_tag="MCIC6FC_005847" class="clusterblast-orf" id="subclusterblast-4_q12_0_all"  />
<polygon points="505,40 508,40 513,35 508,30 505,30 505,40 " style="fill:white; stroke-width:1; stroke:black; " description="&lt;b&gt;MCIC6FC_005848&lt;/b&gt;&lt;br&gt;hypothetical protein&lt;br&gt;Location: 2080521 - 2081070" locus_tag="MCIC6FC_005848" class="clusterblast-orf" id="subclusterblast-4_q13_0_all"  />
<polygon points="514,35 519,30 533,30 533,40 519,40 514,35 " style="fill:white; stroke-width:1; stroke:black; " description="&lt;b&gt;MCIC6FC_005849&lt;/b&gt;&lt;br&gt;hypothetical protein&lt;br&gt;Location: 2081115 - 2082375" locus_tag="MCIC6FC_005849" class="clusterblast-orf" id="subclusterblast-4_q14_0_all"  />
<polygon points="534,35 539,30 546,30 546,40 539,40 534,35 " style="fill:white; stroke-width:1; stroke:black; " description="&lt;b&gt;MCIC6FC_005850&lt;/b&gt;&lt;br&gt;hypothetical protein&lt;br&gt;Location: 2082459 - 2083207" locus_tag="MCIC6FC_005850" class="clusterblast-orf" id="subclusterblast-4_q15_0_all"  />
<polygon points="547,40 606,40 611,35 606,30 547,30 547,40 " style="fill:white; stroke-width:1; stroke:black; " description="&lt;b&gt;MCIC6FC_005851&lt;/b&gt;&lt;br&gt;hypothetical protein&lt;br&gt;Location: 2083275 - 2087517" locus_tag="MCIC6FC_005851" class="clusterblast-orf" id="subclusterblast-4_q16_0_all"  />
<polygon points="613,40 637,40 642,35 637,30 613,30 613,40 " style="fill:white; stroke-width:1; stroke:black; " description="&lt;b&gt;MCIC6FC_005852&lt;/b&gt;&lt;br&gt;hypothetical protein&lt;br&gt;Location: 2087610 - 2089562" locus_tag="MCIC6FC_005852" class="clusterblast-orf" id="subclusterblast-4_q17_0_all"  />
<polygon points="643,40 668,40 673,35 668,30 643,30 643,40 " style="fill:white; stroke-width:1; stroke:black; " description="&lt;b&gt;MCIC6FC_005853&lt;/b&gt;&lt;br&gt;hypothetical protein&lt;br&gt;Location: 2089608 - 2091564" locus_tag="MCIC6FC_005853" class="clusterblast-orf" id="subclusterblast-4_q18_0_all"  />
<polygon points="676,40 678,40 683,35 678,30 676,30 676,40 " style="fill:white; stroke-width:1; stroke:black; " description="&lt;b&gt;MCIC6FC_005854&lt;/b&gt;&lt;br&gt;hypothetical protein&lt;br&gt;Location: 2091767 - 2092241" locus_tag="MCIC6FC_005854" class="clusterblast-orf" id="subclusterblast-4_q19_0_all"  />
<polygon points="684,40 688,35 684,30 684,40 " style="fill:white; stroke-width:1; stroke:black; " description="&lt;b&gt;MCIC6FC_005855&lt;/b&gt;&lt;br&gt;hypothetical protein&lt;br&gt;Location: 2092315 - 2092600" locus_tag="MCIC6FC_005855" class="clusterblast-orf" id="subclusterblast-4_q20_0_all"  />
<polygon points="690,35 695,30 717,30 717,40 695,40 690,35 " style="fill:white; stroke-width:1; stroke:black; " description="&lt;b&gt;MCIC6FC_005856&lt;/b&gt;&lt;br&gt;hypothetical protein&lt;br&gt;Location: 2092677 - 2094503" locus_tag="MCIC6FC_005856" class="clusterblast-orf" id="subclusterblast-4_q21_0_all"  />
<polygon points="726,40 759,40 764,35 759,30 726,30 726,40 " style="fill:white; stroke-width:1; stroke:black; " description="&lt;b&gt;MCIC6FC_005857&lt;/b&gt;&lt;br&gt;hypothetical protein&lt;br&gt;Location: 2095064 - 2097589" locus_tag="MCIC6FC_005857" class="clusterblast-orf" id="subclusterblast-4_q22_0_all"  />
<polygon points="764,35 769,30 780,30 780,40 769,40 764,35 " style="fill:white; stroke-width:1; stroke:black; " description="&lt;b&gt;MCIC6FC_005858&lt;/b&gt;&lt;br&gt;hypothetical protein&lt;br&gt;Location: 2097590 - 2098608" locus_tag="MCIC6FC_005858" class="clusterblast-orf" id="subclusterblast-4_q23_0_all"  />
</g>
</svg>
