<svg xmlns="http://www.w3.org/2000/svg" xmlns:xlink="http://www.w3.org/1999/xlink" version="1.1" x="0" y="0" height="50" width="800" viewBox="0 0 800 50" preserveAspectRatio="none"  >
<g label="Query sequence" class="clusterblast-cluster"  >
<text x="5" y="20" class="clusterblast-acc"  >
Query sequence</text>
<line x1="10" y1="35" x2="778.0" y2="35" style="stroke-width:1; stroke:grey; "  />
<polygon points="0,35 5,30 96,30 96,40 5,40 0,35 " style="fill:white; stroke-width:1; stroke:black; " description="&lt;b&gt;MCIC6FC_015726&lt;/b&gt;&lt;br&gt;hypothetical protein&lt;br&gt;Location: 219963 - 224935" locus_tag="MCIC6FC_015726" class="clusterblast-orf" id="subclusterblast-1_q0_0_all"  />
<polygon points="101,40 227,40 232,35 227,30 101,30 101,40 " style="fill:white; stroke-width:1; stroke:black; " description="&lt;b&gt;MCIC6FC_015727&lt;/b&gt;&lt;br&gt;hypothetical protein&lt;br&gt;Location: 225227 - 232016" locus_tag="MCIC6FC_015727" class="clusterblast-orf" id="subclusterblast-1_q1_0_all"  />
<polygon points="235,40 239,40 244,35 239,30 235,30 235,40 " style="fill:white; stroke-width:1; stroke:black; " description="&lt;b&gt;MCIC6FC_015728&lt;/b&gt;&lt;br&gt;hypothetical protein&lt;br&gt;Location: 232179 - 232641" locus_tag="MCIC6FC_015728" class="clusterblast-orf" id="subclusterblast-1_q2_0_all"  />
<polygon points="247,35 252,30 267,30 267,40 252,40 247,35 " style="fill:white; stroke-width:1; stroke:black; " description="&lt;b&gt;MCIC6FC_015729&lt;/b&gt;&lt;br&gt;hypothetical protein&lt;br&gt;Location: 232802 - 233845" locus_tag="MCIC6FC_015729" class="clusterblast-orf" id="subclusterblast-1_q3_0_all"  />
<polygon points="268,35 273,30 347,30 347,40 273,40 268,35 " style="fill:white; stroke-width:1; stroke:black; " description="&lt;b&gt;MCIC6FC_015730&lt;/b&gt;&lt;br&gt;hypothetical protein&lt;br&gt;Location: 233870 - 237951" locus_tag="MCIC6FC_015730" class="clusterblast-orf" id="subclusterblast-1_q4_0_all"  />
<polygon points="350,40 382,40 387,35 382,30 350,30 350,40 " style="fill:white; stroke-width:1; stroke:black; " description="&lt;b&gt;MCIC6FC_015731&lt;/b&gt;&lt;br&gt;hypothetical protein&lt;br&gt;Location: 238143 - 240051" locus_tag="MCIC6FC_015731" class="clusterblast-orf" id="subclusterblast-1_q5_0_all"  />
<polygon points="394,40 403,40 408,35 403,30 394,30 394,40 " style="fill:white; stroke-width:1; stroke:black; " description="&lt;b&gt;MCIC6FC_015732&lt;/b&gt;&lt;br&gt;hypothetical protein&lt;br&gt;Location: 240415 - 241110" locus_tag="MCIC6FC_015732" class="clusterblast-orf" id="subclusterblast-1_q6_0_all"  />
<polygon points="409,40 431,40 436,35 431,30 409,30 409,40 " style="fill:white; stroke-width:1; stroke:black; " description="&lt;b&gt;MCIC6FC_015733&lt;/b&gt;&lt;br&gt;hypothetical protein&lt;br&gt;Location: 241181 - 242573" locus_tag="MCIC6FC_015733" class="clusterblast-orf" id="subclusterblast-1_q7_0_all"  />
<polygon points="438,35 443,30 495,30 495,40 443,40 438,35 " style="fill:white; stroke-width:1; stroke:black; " description="&lt;b&gt;MCIC6FC_015734&lt;/b&gt;&lt;br&gt;hypothetical protein&lt;br&gt;Location: 242686 - 245622" locus_tag="MCIC6FC_015734" class="clusterblast-orf" id="subclusterblast-1_q8_0_all"  />
<polygon points="496,40 497,40 502,35 497,30 496,30 496,40 " style="fill:white; stroke-width:1; stroke:black; " description="&lt;b&gt;MCIC6FC_015735&lt;/b&gt;&lt;br&gt;hypothetical protein&lt;br&gt;Location: 245715 - 246014" locus_tag="MCIC6FC_015735" class="clusterblast-orf" id="subclusterblast-1_q9_0_all"  />
<polygon points="505,35 510,30 534,30 534,40 510,40 505,35 " style="fill:white; stroke-width:1; stroke:black; " description="&lt;b&gt;MCIC6FC_015736&lt;/b&gt;&lt;br&gt;hypothetical protein&lt;br&gt;Location: 246155 - 247676" locus_tag="MCIC6FC_015736" class="clusterblast-orf" id="subclusterblast-1_q10_0_all"  />
<polygon points="544,40 554,40 559,35 554,30 544,30 544,40 " style="fill:white; stroke-width:1; stroke:black; " description="&lt;b&gt;MCIC6FC_015737&lt;/b&gt;&lt;br&gt;hypothetical protein&lt;br&gt;Location: 248191 - 248986" locus_tag="MCIC6FC_015737" class="clusterblast-orf" id="subclusterblast-1_q11_0_all"  />
<polygon points="560,35 565,30 585,30 585,40 565,40 560,35 " style="fill:white; stroke-width:1; stroke:black; " description="&lt;b&gt;MCIC6FC_015738&lt;/b&gt;&lt;br&gt;hypothetical protein&lt;br&gt;Location: 249038 - 250333" locus_tag="MCIC6FC_015738" class="clusterblast-orf" id="subclusterblast-1_q12_0_all"  />
<polygon points="586,35 591,30 606,30 606,40 591,40 586,35 " style="fill:white; stroke-width:1; stroke:black; " description="&lt;b&gt;MCIC6FC_015739&lt;/b&gt;&lt;br&gt;hypothetical protein&lt;br&gt;Location: 250378 - 251386" locus_tag="MCIC6FC_015739" class="clusterblast-orf" id="subclusterblast-1_q13_0_all"  />
<polygon points="607,40 616,40 621,35 616,30 607,30 607,40 " style="fill:white; stroke-width:1; stroke:black; " description="&lt;b&gt;MCIC6FC_015740&lt;/b&gt;&lt;br&gt;hypothetical protein&lt;br&gt;Location: 251445 - 252194" locus_tag="MCIC6FC_015740" class="clusterblast-orf" id="subclusterblast-1_q14_0_all"  />
<polygon points="622,35 627,30 688,30 688,40 627,40 622,35 " style="fill:white; stroke-width:1; stroke:black; " description="&lt;b&gt;MCIC6FC_015741&lt;/b&gt;&lt;br&gt;hypothetical protein&lt;br&gt;Location: 252222 - 255671" locus_tag="MCIC6FC_015741" class="clusterblast-orf" id="subclusterblast-1_q15_0_all"  />
<polygon points="689,35 694,30 725,30 725,40 694,40 689,35 " style="fill:white; stroke-width:1; stroke:black; " description="&lt;b&gt;MCIC6FC_015742&lt;/b&gt;&lt;br&gt;hypothetical protein&lt;br&gt;Location: 255717 - 257591" locus_tag="MCIC6FC_015742" class="clusterblast-orf" id="subclusterblast-1_q16_0_all"  />
<polygon points="727,40 775,40 780,35 775,30 727,30 727,40 " style="fill:white; stroke-width:1; stroke:black; " description="&lt;b&gt;MCIC6FC_015743&lt;/b&gt;&lt;br&gt;hypothetical protein&lt;br&gt;Location: 257671 - 260408" locus_tag="MCIC6FC_015743" class="clusterblast-orf" id="subclusterblast-1_q17_0_all"  />
</g>
</svg>
