<svg xmlns="http://www.w3.org/2000/svg" xmlns:xlink="http://www.w3.org/1999/xlink" version="1.1" x="0" y="0" height="50" width="800" viewBox="0 0 800 50" preserveAspectRatio="none"  >
<g label="Query sequence" class="clusterblast-cluster"  >
<text x="5" y="20" class="clusterblast-acc"  >
Query sequence</text>
<line x1="10" y1="35" x2="778.0" y2="35" style="stroke-width:1; stroke:grey; "  />
<polygon points="0,35 4,30 4,40 0,35 " style="fill:white; stroke-width:1; stroke:black; " description="&lt;b&gt;MCIC6FC_008714&lt;/b&gt;&lt;br&gt;hypothetical protein&lt;br&gt;Location: 43730 - 43999" locus_tag="MCIC6FC_008714" class="clusterblast-orf" id="subclusterblast-1_q0_0_all"  />
<polygon points="6,35 11,30 27,30 27,40 11,40 6,35 " style="fill:white; stroke-width:1; stroke:black; " description="&lt;b&gt;MCIC6FC_008715&lt;/b&gt;&lt;br&gt;hypothetical protein&lt;br&gt;Location: 44130 - 45482" locus_tag="MCIC6FC_008715" class="clusterblast-orf" id="subclusterblast-1_q1_0_all"  />
<polygon points="28,35 33,30 98,30 98,40 33,40 28,35 " style="fill:white; stroke-width:1; stroke:black; " description="&lt;b&gt;MCIC6FC_008716&lt;/b&gt;&lt;br&gt;hypothetical protein&lt;br&gt;Location: 45547 - 50041" locus_tag="MCIC6FC_008716" class="clusterblast-orf" id="subclusterblast-1_q2_0_all"  />
<polygon points="116,35 121,30 181,30 181,40 121,40 116,35 " style="fill:white; stroke-width:1; stroke:black; " description="&lt;b&gt;MCIC6FC_008719&lt;/b&gt;&lt;br&gt;hypothetical protein&lt;br&gt;Location: 51252 - 55428" locus_tag="MCIC6FC_008719" class="clusterblast-orf" id="subclusterblast-1_q3_0_all"  />
<polygon points="183,35 188,30 193,30 193,40 188,40 183,35 " style="fill:white; stroke-width:1; stroke:black; " description="&lt;b&gt;MCIC6FC_008720&lt;/b&gt;&lt;br&gt;hypothetical protein&lt;br&gt;Location: 55541 - 56170" locus_tag="MCIC6FC_008720" class="clusterblast-orf" id="subclusterblast-1_q4_0_all"  />
<polygon points="195,40 199,35 195,30 195,40 " style="fill:white; stroke-width:1; stroke:black; " description="&lt;b&gt;MCIC6FC_008721&lt;/b&gt;&lt;br&gt;hypothetical protein&lt;br&gt;Location: 56297 - 56591" locus_tag="MCIC6FC_008721" class="clusterblast-orf" id="subclusterblast-1_q5_0_all"  />
<polygon points="201,35 206,30 208,30 208,40 206,40 201,35 " style="fill:white; stroke-width:1; stroke:black; " description="&lt;b&gt;MCIC6FC_008722&lt;/b&gt;&lt;br&gt;hypothetical protein&lt;br&gt;Location: 56697 - 57174" locus_tag="MCIC6FC_008722" class="clusterblast-orf" id="subclusterblast-1_q6_0_all"  />
<polygon points="213,40 229,40 234,35 229,30 213,30 213,40 " style="fill:white; stroke-width:1; stroke:black; " description="&lt;b&gt;MCIC6FC_008723&lt;/b&gt;&lt;br&gt;hypothetical protein&lt;br&gt;Location: 57465 - 58857" locus_tag="MCIC6FC_008723" class="clusterblast-orf" id="subclusterblast-1_q7_0_all"  />
<polygon points="235,35 240,30 271,30 271,40 240,40 235,35 " style="fill:white; stroke-width:1; stroke:black; " description="&lt;b&gt;MCIC6FC_008724&lt;/b&gt;&lt;br&gt;hypothetical protein&lt;br&gt;Location: 58921 - 61187" locus_tag="MCIC6FC_008724" class="clusterblast-orf" id="subclusterblast-1_q8_0_all"  />
<polygon points="273,40 354,40 359,35 354,30 273,30 273,40 " style="fill:white; stroke-width:1; stroke:black; " description="&lt;b&gt;MCIC6FC_008725&lt;/b&gt;&lt;br&gt;hypothetical protein&lt;br&gt;Location: 61334 - 66895" locus_tag="MCIC6FC_008725" class="clusterblast-orf" id="subclusterblast-1_q9_0_all"  />
<polygon points="360,35 365,30 403,30 403,40 365,40 360,35 " style="fill:white; stroke-width:1; stroke:black; " description="&lt;b&gt;MCIC6FC_008726&lt;/b&gt;&lt;br&gt;hypothetical protein&lt;br&gt;Location: 66937 - 69693" locus_tag="MCIC6FC_008726" class="clusterblast-orf" id="subclusterblast-1_q10_0_all"  />
<polygon points="405,40 419,40 424,35 419,30 405,30 405,40 " style="fill:white; stroke-width:1; stroke:black; " description="&lt;b&gt;MCIC6FC_008727&lt;/b&gt;&lt;br&gt;hypothetical protein&lt;br&gt;Location: 69840 - 71086" locus_tag="MCIC6FC_008727" class="clusterblast-orf" id="subclusterblast-1_q11_0_all"  />
<polygon points="424,35 429,30 439,30 439,40 429,40 424,35 " style="fill:white; stroke-width:1; stroke:black; " description="&lt;b&gt;MCIC6FC_008728&lt;/b&gt;&lt;br&gt;hypothetical protein&lt;br&gt;Location: 71088 - 72053" locus_tag="MCIC6FC_008728" class="clusterblast-orf" id="subclusterblast-1_q12_0_all"  />
<polygon points="442,40 512,40 517,35 512,30 442,30 442,40 " style="fill:white; stroke-width:1; stroke:black; " description="&lt;b&gt;MCIC6FC_008729&lt;/b&gt;&lt;br&gt;hypothetical protein&lt;br&gt;Location: 72229 - 77088" locus_tag="MCIC6FC_008729" class="clusterblast-orf" id="subclusterblast-1_q13_0_all"  />
<polygon points="518,35 523,30 549,30 549,40 523,40 518,35 " style="fill:white; stroke-width:1; stroke:black; " description="&lt;b&gt;MCIC6FC_008730&lt;/b&gt;&lt;br&gt;hypothetical protein&lt;br&gt;Location: 77159 - 79159" locus_tag="MCIC6FC_008730" class="clusterblast-orf" id="subclusterblast-1_q14_0_all"  />
<polygon points="554,40 563,40 568,35 563,30 554,30 554,40 " style="fill:white; stroke-width:1; stroke:black; " description="&lt;b&gt;MCIC6FC_008731&lt;/b&gt;&lt;br&gt;hypothetical protein&lt;br&gt;Location: 79455 - 80388" locus_tag="MCIC6FC_008731" class="clusterblast-orf" id="subclusterblast-1_q15_0_all"  />
<polygon points="571,40 572,40 577,35 572,30 571,30 571,40 " style="fill:white; stroke-width:1; stroke:black; " description="&lt;b&gt;MCIC6FC_008732&lt;/b&gt;&lt;br&gt;hypothetical protein&lt;br&gt;Location: 80562 - 80910" locus_tag="MCIC6FC_008732" class="clusterblast-orf" id="subclusterblast-1_q16_0_all"  />
<polygon points="578,35 583,30 597,30 597,40 583,40 578,35 " style="fill:white; stroke-width:1; stroke:black; " description="&lt;b&gt;MCIC6FC_008733&lt;/b&gt;&lt;br&gt;hypothetical protein&lt;br&gt;Location: 80983 - 82244" locus_tag="MCIC6FC_008733" class="clusterblast-orf" id="subclusterblast-1_q17_0_all"  />
<polygon points="598,35 602,30 602,40 598,35 " style="fill:white; stroke-width:1; stroke:black; " description="&lt;b&gt;MCIC6FC_008734&lt;/b&gt;&lt;br&gt;hypothetical protein&lt;br&gt;Location: 82311 - 82569" locus_tag="MCIC6FC_008734" class="clusterblast-orf" id="subclusterblast-1_q18_0_all"  />
<polygon points="604,35 609,30 640,30 640,40 609,40 604,35 " style="fill:white; stroke-width:1; stroke:black; " description="&lt;b&gt;MCIC6FC_008735&lt;/b&gt;&lt;br&gt;hypothetical protein&lt;br&gt;Location: 82682 - 84971" locus_tag="MCIC6FC_008735" class="clusterblast-orf" id="subclusterblast-1_q19_0_all"  />
<polygon points="640,35 645,30 652,30 652,40 645,40 640,35 " style="fill:white; stroke-width:1; stroke:black; " description="&lt;b&gt;MCIC6FC_008736&lt;/b&gt;&lt;br&gt;hypothetical protein&lt;br&gt;Location: 84975 - 85791" locus_tag="MCIC6FC_008736" class="clusterblast-orf" id="subclusterblast-1_q20_0_all"  />
<polygon points="654,40 775,40 780,35 775,30 654,30 654,40 " style="fill:white; stroke-width:1; stroke:black; " description="&lt;b&gt;MCIC6FC_008737&lt;/b&gt;&lt;br&gt;hypothetical protein&lt;br&gt;Location: 85897 - 93996" locus_tag="MCIC6FC_008737" class="clusterblast-orf" id="subclusterblast-1_q21_0_all"  />
</g>
</svg>
